<?xml version="1.0" encoding="UTF-8"?><svg id="Layer_1" xmlns="http://www.w3.org/2000/svg" viewBox="0 0 551.75 208"><defs><style>.cls-1{fill:#500778;stroke-width:0px;}</style></defs><path class="cls-1" d="m81.88,76.76L39.3,3.01c-.5-.87-1.46-1.43-2.48-1.43H1.64C.18,1.57-.42,2.61.31,3.88l61.42,106.39c.67,1.17,1.78,1.17,2.45,0l17.69-30.65c.51-.88.51-1.99,0-2.87Z"/><rect class="cls-1" x="81.63" y="1.57" width="33.57" height="33.56" rx="1.73" ry="1.73"/><path class="cls-1" d="m161.44,1.57h30.11c.95,0,1.73.77,1.73,1.73v104.54c0,.95-.77,1.73-1.73,1.73h-30.11c-.95,0-1.73-.77-1.73-1.73V3.3c0-.95.77-1.73,1.73-1.73Z"/><path class="cls-1" d="m440.35,76.76L397.77,3.01c-.5-.87-1.46-1.43-2.48-1.43h-35.17c-1.46,0-2.06,1.04-1.33,2.31l61.42,106.39c.67,1.17,1.78,1.17,2.45,0l17.69-30.65c.51-.88.51-1.99,0-2.87Z"/><rect class="cls-1" x="440.1" y="1.57" width="33.57" height="33.56" rx="1.73" ry="1.73"/><path class="cls-1" d="m519.91,1.57h30.11c.95,0,1.73.77,1.73,1.73v104.54c0,.95-.77,1.73-1.73,1.73h-30.11c-.95,0-1.73-.77-1.73-1.73V3.3c0-.95.77-1.73,1.73-1.73Z"/><path class="cls-1" d="m271.11,34.39l42.58,73.75c.5.87,1.46,1.43,2.48,1.43h35.17c1.47,0,2.06-1.04,1.33-2.31L291.25.87c-.67-1.17-1.78-1.17-2.45,0l-17.69,30.65c-.51.88-.51,1.99,0,2.87Z"/><path class="cls-1" d="m239.53,76.01h30.11c.95,0,1.73.77,1.73,1.73v30.11c0,.95-.77,1.73-1.73,1.73h-30.11c-.95,0-1.73-.77-1.73-1.73v-30.11c0-.95.77-1.73,1.73-1.73Z"/><path class="cls-1" d="m163.59,164.43l13.23,38.32,13.8-38.32h3.31l-15.97,42.88h-2.96l-15.28-42.88h3.88Z"/><path class="cls-1" d="m204.64,164.43v42.88h-3.42v-42.88h3.42Z"/><path class="cls-1" d="m241.82,207.31l-4.51-13.23h-17.91l-4.73,13.23h-3.19l15.74-42.88h3.19l15.05,42.88h-3.65Zm-21.44-15.97h15.97l-7.76-22.81-8.21,22.81Z"/><path class="cls-1" d="m249.34,164.43l13.23,38.32,13.8-38.32h3.31l-15.97,42.88h-2.97l-15.28-42.88h3.88Z"/><path class="cls-1" d="m290.39,164.43v42.88h-3.42v-42.88h3.42Z"/><path class="cls-1" d="m338.86,168.54h-.46s-4.16-1.82-8.84-1.82c-5.99,0-9.18,2.97-9.18,7.3,0,10.95,20.19,8.21,20.19,22.35,0,8.21-6.84,11.41-14.08,11.41-5.82,0-9.87-2.05-9.87-2.05v-3.19h.46s4.62,2.51,9.98,2.51c6.22,0,10.09-3.36,10.09-8.5,0-11.75-20.19-8.84-20.19-22.13,0-6.33,4.56-10.43,12.54-10.43,5.02,0,9.35,1.6,9.35,1.6v2.96Z"/><path class="cls-1" d="m360.63,208c-8.33,0-13.23-5.82-13.23-15.85s4.9-16.08,13.46-16.08,13.23,5.82,13.23,15.85-4.9,16.08-13.46,16.08Zm9.81-15.97c0-8.78-3.31-13.23-9.69-13.23s-9.69,4.45-9.69,13.23,3.31,13.23,9.69,13.23,9.69-4.45,9.69-13.23Z"/><path class="cls-1" d="m386.4,162.83v44.48h-3.42v-44.48h3.42Z"/><path class="cls-1" d="m417.19,207.31l-.91-5.25c-.63,3.42-3.19,5.93-8.61,5.93-4.56,0-7.07-1.77-8.5-3.88-1.54-2.28-1.82-4.85-1.82-9.35v-18.02h3.42v18.02c0,3.65.17,5.53,1.37,7.3,1.2,1.77,3.08,2.96,6.33,2.96,7.13,0,7.81-5.87,7.81-9.12v-19.16h3.42v30.56h-2.51Z"/><path class="cls-1" d="m445.7,207.08s-2.05.69-4.79.69c-3.31,0-5.59-1.03-6.84-2.97-1.14-1.82-1.14-3.65-1.14-7.76v-17.11h-5.93v-2.74h5.93v-9.12l3.42-1.14v10.26h9.35v2.74h-9.35v17.11c0,2.97,0,4.56.68,5.93.68,1.37,2.05,2.05,3.93,2.05,2.22,0,4.28-.91,4.28-.91h.46v2.96Z"/><path class="cls-1" d="m457.79,165.11v4.33h-3.88v-4.33h3.88Zm-.23,11.63v30.56h-3.42v-30.56h3.42Z"/><path class="cls-1" d="m479.68,208c-8.33,0-13.23-5.82-13.23-15.85s4.9-16.08,13.46-16.08,13.23,5.82,13.23,15.85-4.9,16.08-13.46,16.08Zm9.81-15.97c0-8.78-3.31-13.23-9.69-13.23s-9.69,4.45-9.69,13.23,3.31,13.23,9.69,13.23,9.69-4.45,9.69-13.23Z"/><path class="cls-1" d="m504.54,176.75l.91,5.25c.69-3.65,3.42-5.93,8.84-5.93,4.79,0,7.3,1.77,8.72,3.88,1.71,2.57,1.82,5.36,1.82,9.35v18.02h-3.42v-18.02c0-2.51.06-5.25-1.37-7.3-1.08-1.6-3.02-2.97-6.56-2.97-7.36,0-8.04,5.87-8.04,9.12v19.16h-3.42v-30.56h2.51Z"/><path class="cls-1" d="m550.61,180.4h-.46s-3.19-1.37-6.61-1.37c-3.88,0-6.16,1.82-6.16,4.68,0,7.24,14.37,5.42,14.37,15.62,0,5.93-4.9,8.44-10.55,8.44-4.5,0-7.47-1.6-7.47-1.6v-2.97h.46s3.65,1.82,7.53,1.82c4.11,0,6.61-2.05,6.61-5.36,0-7.87-14.37-5.93-14.37-15.4,0-4.79,3.65-7.98,9.92-7.98,3.76,0,6.73,1.14,6.73,1.14v2.97Z"/></svg>