<?xml version="1.0" encoding="UTF-8"?>
<svg id="Layer_1" data-name="Layer 1" xmlns="http://www.w3.org/2000/svg" xmlns:xlink="http://www.w3.org/1999/xlink" viewBox="0 0 2763.41 766.09">
  <defs>
    <style>
      .cls-1 {
        font-family: Arimo-Bold, Arimo;
        font-size: 206.96px;
        font-weight: 700;
        letter-spacing: .08em;
      }

      .cls-1, .cls-2 {
        stroke: #000;
      }

      .cls-1, .cls-2, .cls-3, .cls-4 {
        stroke-miterlimit: 10;
      }

      .cls-1, .cls-2, .cls-4, .cls-5 {
        fill: #c28183;
      }

      .cls-3 {
        fill: none;
      }

      .cls-3, .cls-4 {
        stroke: #ffcab8;
        stroke-width: 3px;
      }

      .cls-6 {
        clip-path: url(#clippath);
      }
    </style>
    <clipPath id="clippath">
      <path class="cls-4" d="M279.6,302.16l-152.33,11.77-9.49,19.98c-21.08,43.89-33.73,82.78-33.21,87.77.53,5.35,4.22,9.63,13.18,9.28,29.52-1.07,93.3-12.13,137.04-21.41,33.21-7.14,48.49-12.13,53.24-14.99,4.74-3.21,18.98,2.14,13.7,5-5.27,3.21-34.79,12.85-69.58,19.62-34.79,7.14-90.66,17.48-119.12,18.2-19.5.71-24.77,0-26.88-1.78-2.64-1.43-11.07-6.78-11.6-13.2-.53-6.42,6.85-38.18,28.99-89.91,2.11-5.35,4.74-11.06,7.91-17.48-16.34,1.43-27.94,2.14-29.52,2.14-6.33.36-3.16-6.78,2.64-7.49,4.22-.71,15.81-1.43,30.57-2.85,17.92-37.46,44.28-85.99,64.83-121.67-42.17,7.14-74.85,14.99-81.7,17.13-10.01,3.21-12.65-4.28-3.69-8.56,6.85-3.57,41.64-12.13,91.19-18.55,10.01-17.13,18.45-30.33,22.14-35.68,13.18-18.55,15.81-19.27,17.92-20.69,1.58-1.43,12.12-1.78,6.33,2.5-5.27,4.64-7.91,8.92-8.43,13.2-.53,3.92-6.33,7.49-23.72,38.89,12.12-1.43,25.3-2.85,39.53-3.92,76.96-6.42,133.35-5.71,146.53-5.35,13.18.36,4.74,5-2.64,5.35-23.19.71-71.68-1.07-141.26,6.78-16.34,1.78-32.68,4.28-47.44,6.42l-1.05,2.14c-18.45,33.9-42.69,80.99-62.2,120.96,41.11-3.21,97.51-7.14,120.7-9.28,35.84-3.21,37.42-6.07,39.01-3.92,1.05,2.14-2.64,8.92-11.6,9.63h0Z"/>
    </clipPath>
  </defs>
  <text/>
  <text/>
  <text/>
  <text/>
  <g>
    <path class="cls-2" d="M480.24,402.5l.27-103.34,92.75.63-.04,16.72-68.05-.46-.07,25.96,62.95.43-.04,16.72-62.95-.43-.07,27.21,71.48.48-.04,16.72-96.18-.65Z"/>
    <path class="cls-2" d="M653.76,403.67l.11-44.52c.04-13.94-5.33-20.94-16.1-21.01-5.69-.04-10.29,2.07-13.79,6.32-3.5,4.26-5.26,9.73-5.27,16.43l-.11,42.54-23.52-.16.16-61.61c.01-4.25-.05-7.74-.18-10.45-.13-2.72-.28-5.15-.44-7.3l22.43.15c.17.93.38,3.41.65,7.45.27,4.03.4,6.81.4,8.33h.33c3.2-6.04,7.2-10.41,12-13.12,4.81-2.71,10.53-4.04,17.17-3.99,9.6.06,16.96,2.71,22.08,7.92,5.12,5.22,7.67,12.81,7.64,22.79l-.13,50.39-23.44-.16Z"/>
    <path class="cls-2" d="M737.55,405.71c-13.73-.09-24.32-3.75-31.78-10.96-7.46-7.21-11.17-17.23-11.14-30.04.03-13.1,3.83-23.29,11.38-30.54,7.55-7.26,18.25-10.84,32.09-10.75,10.66.07,19.47,2.48,26.43,7.22,6.96,4.74,11.33,11.25,13.09,19.52l-23.69.87c-.66-4.06-2.32-7.31-5-9.75-2.67-2.44-6.46-3.68-11.37-3.71-12.11-.08-18.19,8.75-18.23,26.5-.05,18.29,6.09,27.47,18.43,27.56,4.46.03,8.21-1.18,11.23-3.63,3.02-2.45,4.9-6.12,5.64-11l23.6,1.11c-.85,5.42-3.08,10.25-6.69,14.48-3.61,4.23-8.35,7.49-14.21,9.77-5.87,2.28-12.45,3.4-19.76,3.35Z"/>
    <path class="cls-2" d="M795.14,404.63l.16-60.73c.01-4.35-.05-7.98-.18-10.89-.13-2.91-.28-5.49-.44-7.74l22.43.15c.17.88.38,3.56.65,8.04.27,4.48.4,7.45.4,8.91h.33c2.3-5.56,4.35-9.47,6.14-11.73,1.79-2.26,3.92-3.93,6.37-5.02,2.46-1.08,5.53-1.61,9.21-1.59,3.01.02,5.44.4,7.28,1.15l-.04,17.24c-3.79-.76-7.14-1.15-10.04-1.17-5.86-.04-10.43,2.01-13.7,6.14-3.28,4.13-4.92,10.28-4.94,18.45l-.1,38.95-23.52-.16Z"/>
    <path class="cls-2" d="M873.49,436.34c-5.64-.04-10.57-.39-14.81-1.05l.04-14.67c2.96.41,5.66.63,8.12.64,3.35.02,6.12-.42,8.33-1.34,2.21-.91,4.19-2.44,5.96-4.58,1.76-2.14,3.74-5.77,5.93-10.89l-35.62-78.79,24.86.17,14.13,37.28c2.22,5.34,5.02,13.53,8.39,24.55l2.11-6.95,5.49-17.2,13.49-37.39,24.61.17-36.04,83.3c-4.83,10.14-9.82,17.14-15,21.02-5.17,3.88-11.83,5.79-19.98,5.73Z"/>
    <path class="cls-2" d="M1043.01,366.27c-.03,13.25-3.09,23.46-9.16,30.63-6.07,7.17-14.63,10.72-25.68,10.64-6.36-.04-11.9-1.29-16.61-3.74-4.71-2.45-8.31-5.96-10.81-10.52h-.5c.33,1.47.49,5.92.47,13.35l-.08,30.44-23.52-.16.24-92.27c.02-7.48-.19-13.57-.62-18.27l22.85.15c.28.88.51,2.62.7,5.21.19,2.59.28,5.16.27,7.7h.33c5.33-9.69,14.99-14.49,29-14.4,10.55.07,18.71,3.68,24.5,10.84,5.78,7.15,8.66,17.28,8.63,30.39ZM1018.49,366.1c.05-17.8-6.15-26.74-18.6-26.82-6.25-.04-11.04,2.32-14.37,7.09-3.33,4.77-5.01,11.46-5.03,20.06-.02,8.56,1.62,15.18,4.93,19.87,3.31,4.69,8.03,7.06,14.17,7.1,12.56.09,18.86-9.01,18.9-27.3Z"/>
    <path class="cls-2" d="M1085.09,407.92c-6.92-.05-12.25-1.73-15.97-5.06-3.73-3.33-5.59-8.34-5.57-15.04l.12-46.79-11.47-.08.04-13.94,12.64.09,7.41-18.58,14.73.1-.05,18.63,17.16.12-.04,13.94-17.16-.12-.11,41.22c-.01,3.86.82,6.72,2.49,8.56s4.26,2.78,7.78,2.8c1.84.01,4.46-.31,7.87-.97l-.03,12.76c-5.81,1.62-12.42,2.41-19.84,2.36Z"/>
    <path class="cls-2" d="M1119,406.83l.2-79.36,23.52.16-.2,79.36-23.52-.16ZM1119.24,313.17l.04-15.18,23.52.16-.04,15.18-23.52-.16Z"/>
    <path class="cls-2" d="M1252.78,367.98c-.03,12.86-4.13,22.92-12.3,30.17-8.17,7.25-19.45,10.83-33.85,10.73-14.12-.1-25.19-3.84-33.2-11.23-8.02-7.39-12.01-17.49-11.98-30.3.03-12.76,4.08-22.77,12.13-30.03,8.05-7.26,19.31-10.83,33.76-10.74,14.79.1,26.07,3.71,33.83,10.83,7.77,7.12,11.63,17.3,11.6,30.55ZM1228.17,367.81c.02-9.44-1.72-16.29-5.22-20.57s-8.6-6.44-15.3-6.48c-14.29-.1-21.45,8.83-21.5,26.77-.02,8.85,1.7,15.6,5.18,20.24,3.47,4.64,8.51,6.99,15.09,7.03,14.45.1,21.7-8.9,21.75-26.99Z"/>
    <path class="cls-2" d="M1330.02,408.26l.11-44.52c.04-13.94-5.33-20.94-16.1-21.01-5.69-.04-10.29,2.07-13.79,6.32-3.5,4.26-5.26,9.73-5.27,16.43l-.11,42.54-23.52-.16.16-61.61c.01-4.25-.05-7.74-.18-10.45-.13-2.71-.28-5.15-.44-7.3l22.43.15c.17.93.38,3.41.65,7.45.27,4.03.4,6.81.4,8.33h.33c3.2-6.04,7.2-10.41,12-13.12,4.81-2.7,10.53-4.04,17.17-3.99,9.6.06,16.96,2.71,22.08,7.93,5.12,5.22,7.67,12.81,7.64,22.79l-.13,50.39-23.44-.16Z"/>
    <path class="cls-2" d="M1400.26,403.89c-.02,5.87-.74,11.05-2.17,15.53-1.43,4.49-3.75,8.65-6.94,12.5l-15.49-.1c3.3-3.45,5.99-7.25,8.07-11.39,2.07-4.14,3.12-8.07,3.13-11.79l-10.8-.07.06-22.37,24.19.16-.05,17.53Z"/>
    <path class="cls-2" d="M1525.93,394.04c14.9.1,25.27-6.38,31.11-19.45l21.49,7.26c-4.66,9.94-11.47,17.32-20.44,22.12-8.97,4.81-19.7,7.16-32.2,7.08-18.97-.13-33.62-4.93-43.95-14.42-10.33-9.48-15.47-22.68-15.43-39.6.04-16.97,5.07-29.96,15.08-38.99,10.01-9.03,24.5-13.48,43.48-13.35,13.84.09,25.11,2.6,33.8,7.53,8.69,4.93,14.78,12.12,18.28,21.58l-21.78,5.06c-1.83-5.19-5.43-9.34-10.81-12.43-5.38-3.09-11.72-4.66-19.03-4.71-11.16-.08-19.64,2.9-25.43,8.92-5.79,6.03-8.7,14.88-8.73,26.57-.03,11.88,2.92,20.97,8.84,27.27,5.93,6.3,14.5,9.49,25.72,9.56Z"/>
    <path class="cls-2" d="M1632.19,411.77c-13.62-.09-24.07-3.69-31.36-10.81-7.29-7.11-10.92-17.44-10.89-30.99.03-13.1,3.77-23.15,11.21-30.14,7.44-6.99,17.97-10.44,31.58-10.35,13,.09,22.93,3.93,29.77,11.53,6.84,7.6,10.25,18.69,10.21,33.26v.59s-58.09-.39-58.09-.39c-.02,7.73,1.6,13.57,4.85,17.53,3.25,3.96,7.89,5.96,13.92,6,8.31.06,13.57-3.06,15.76-9.35l22.18,1.84c-6.45,14.33-19.5,21.43-39.15,21.3ZM1632.37,342.46c-5.52-.04-9.78,1.62-12.78,4.97-2.99,3.35-4.58,8.06-4.77,14.12l35.16.24c-.43-6.41-2.18-11.22-5.24-14.45-3.06-3.22-7.19-4.85-12.38-4.89Z"/>
    <path class="cls-2" d="M1690.46,410.7l.16-60.73c.01-4.35-.05-7.98-.18-10.89-.13-2.91-.28-5.49-.44-7.74l22.43.15c.17.88.38,3.56.65,8.04.27,4.48.4,7.45.4,8.91h.33c2.3-5.56,4.35-9.47,6.14-11.73,1.79-2.26,3.92-3.93,6.37-5.02,2.46-1.08,5.53-1.61,9.21-1.59,3.01.02,5.44.4,7.28,1.15l-.04,17.24c-3.79-.76-7.14-1.15-10.04-1.17-5.86-.04-10.43,2.01-13.7,6.14-3.28,4.13-4.92,10.28-4.94,18.45l-.1,38.95-23.52-.16Z"/>
    <path class="cls-2" d="M1780.35,412.63c-6.92-.05-12.25-1.73-15.98-5.06-3.73-3.33-5.59-8.34-5.57-15.04l.12-46.79-11.47-.08.04-13.94,12.64.09,7.41-18.58,14.73.1-.05,18.63,17.16.12-.04,13.94-17.16-.12-.11,41.22c0,3.86.82,6.72,2.49,8.56s4.26,2.78,7.78,2.8c1.84.01,4.46-.31,7.87-.97l-.03,12.76c-5.81,1.62-12.42,2.41-19.84,2.36Z"/>
    <path class="cls-2" d="M1814.26,411.54l.2-79.36,23.52.16-.2,79.36-23.52-.16ZM1814.5,317.88l.04-15.18,23.52.16-.04,15.18-23.52-.16Z"/>
    <path class="cls-2" d="M1889.68,346.62l-.17,65.42-23.44-.16.17-65.42-13.23-.09.04-13.94,13.23.09.02-8.29c.02-7.19,2.21-12.5,6.57-15.95,4.36-3.44,10.98-5.13,19.85-5.07,4.41.03,9.37.46,14.9,1.27l-.03,13.27c-2.29-.46-4.57-.69-6.86-.71-4.02-.03-6.85.65-8.5,2.03-1.65,1.38-2.48,3.83-2.49,7.35l-.02,6.23,17.83.12-.04,13.94-17.83-.12Z"/>
    <path class="cls-2" d="M1918.97,412.25l.2-79.36,23.52.16-.2,79.36-23.52-.16ZM1919.21,318.59l.04-15.18,23.52.16-.04,15.18-23.52-.16Z"/>
    <path class="cls-2" d="M2004.35,414.29c-13.73-.09-24.32-3.75-31.78-10.96-7.46-7.21-11.17-17.23-11.14-30.04.03-13.1,3.83-23.29,11.38-30.54s18.25-10.84,32.09-10.75c10.66.07,19.47,2.48,26.43,7.22,6.96,4.74,11.33,11.25,13.09,19.52l-23.69.87c-.66-4.06-2.32-7.31-5-9.75-2.67-2.44-6.46-3.68-11.37-3.71-12.11-.08-18.19,8.75-18.23,26.5-.05,18.29,6.09,27.47,18.43,27.56,4.46.03,8.21-1.18,11.23-3.63,3.02-2.45,4.9-6.11,5.64-11l23.6,1.11c-.85,5.42-3.08,10.25-6.69,14.48-3.61,4.23-8.35,7.49-14.21,9.77-5.87,2.28-12.45,3.4-19.76,3.35Z"/>
    <path class="cls-2" d="M2082.86,414.82c-8.76-.06-15.59-2.2-20.49-6.41-4.9-4.21-7.34-10.11-7.32-17.69.02-8.21,3.09-14.45,9.21-18.71,6.12-4.26,14.99-6.4,26.59-6.42l19.5-.16v-4.03c.02-5.18-1-9.04-3.06-11.57-2.06-2.53-5.43-3.81-10.12-3.85-4.35-.03-7.55.82-9.59,2.54-2.04,1.72-3.32,4.59-3.83,8.59l-24.52-1.19c1.53-7.72,5.57-13.54,12.14-17.48,6.57-3.94,15.51-5.87,26.84-5.8,11.44.08,20.25,2.61,26.43,7.59,6.18,4.98,9.26,12.02,9.24,21.11l-.07,28.9c-.01,4.45.55,7.52,1.69,9.22,1.14,1.69,3.05,2.55,5.73,2.57,1.79.01,3.52-.12,5.19-.4l-.03,11.15c-1.4.28-2.65.54-3.77.78-1.12.24-2.23.42-3.35.56-1.12.14-2.3.25-3.56.34-1.26.09-2.72.13-4.4.12-5.92-.04-10.28-1.34-13.09-3.9-2.81-2.56-4.49-6.31-5.04-11.26h-.5c-6.61,10.37-16.56,15.51-29.84,15.42ZM2110.33,376.8l-12.05.06c-5.47.16-9.35.66-11.64,1.5-2.29.84-4.04,2.14-5.24,3.89-1.21,1.75-1.81,4.1-1.82,7.03,0,3.77.97,6.57,2.95,8.42,1.98,1.85,4.61,2.78,7.9,2.8,3.68.03,7.05-.83,10.09-2.57,3.05-1.74,5.44-4.16,7.18-7.25,1.74-3.09,2.61-6.38,2.62-9.85v-4.03Z"/>
    <path class="cls-2" d="M2180.46,415.34c-6.92-.05-12.25-1.73-15.98-5.06-3.73-3.33-5.59-8.34-5.57-15.04l.12-46.79-11.47-.08.04-13.94,12.64.09,7.41-18.58,14.73.1-.05,18.63,17.16.12-.04,13.94-17.16-.12-.11,41.22c0,3.86.82,6.72,2.49,8.56s4.26,2.78,7.78,2.8c1.84.01,4.46-.31,7.87-.97l-.03,12.76c-5.81,1.62-12.42,2.41-19.84,2.36Z"/>
    <path class="cls-2" d="M2251.45,415.97c-13.62-.09-24.07-3.69-31.36-10.81-7.29-7.11-10.92-17.44-10.89-30.99.03-13.1,3.77-23.15,11.21-30.14,7.44-6.99,17.97-10.44,31.58-10.35,13,.09,22.93,3.93,29.77,11.53,6.84,7.6,10.25,18.69,10.21,33.26v.59s-58.09-.39-58.09-.39c-.02,7.73,1.6,13.57,4.85,17.53,3.25,3.96,7.89,5.96,13.92,6,8.31.06,13.57-3.06,15.76-9.35l22.18,1.84c-6.45,14.33-19.5,21.43-39.15,21.3ZM2251.62,346.66c-5.52-.04-9.78,1.62-12.78,4.97-2.99,3.35-4.58,8.06-4.77,14.12l35.16.24c-.43-6.41-2.18-11.22-5.24-14.45-3.06-3.22-7.19-4.85-12.38-4.89Z"/>
    <path class="cls-2" d="M2386.11,392.24c-.02,7.68-3.62,13.68-10.8,18.01-7.18,4.33-17.11,6.45-29.77,6.36-12.44-.08-21.97-1.87-28.57-5.36-6.6-3.49-10.98-8.89-13.14-16.19l20.68-2.57c1.16,3.77,3.18,6.45,6.05,8.04,2.87,1.59,7.88,2.4,15.02,2.45,6.58.04,11.39-.66,14.4-2.1,3.02-1.45,4.53-3.73,4.54-6.86,0-2.54-1.2-4.57-3.63-6.08-2.42-1.51-6.54-2.79-12.34-3.86-13.28-2.39-22.23-4.59-26.85-6.6-4.63-2.01-8.15-4.6-10.57-7.77-2.42-3.17-3.62-7.05-3.61-11.65.02-7.58,3.37-13.46,10.05-17.64,6.68-4.18,16.13-6.24,28.35-6.15,10.77.07,19.43,1.97,25.98,5.68,6.55,3.71,10.62,9.05,12.22,16l-20.85,1.77c-.66-3.23-2.3-5.65-4.92-7.26-2.62-1.61-6.77-2.43-12.47-2.47-5.58-.04-9.77.56-12.56,1.79-2.79,1.23-4.19,3.31-4.2,6.24,0,2.3,1.06,4.13,3.21,5.49,2.14,1.36,5.76,2.5,10.83,3.41,7.08,1.32,13.37,2.67,18.87,4.05,5.49,1.38,9.9,3.01,13.21,4.89,3.31,1.88,5.96,4.28,7.93,7.2,1.97,2.92,2.95,6.66,2.94,11.21Z"/>
    <path class="cls-2" d="M2429.25,410.86c-.02,5.87-.74,11.05-2.17,15.53-1.43,4.49-3.75,8.65-6.94,12.5l-15.49-.1c3.3-3.45,5.99-7.25,8.07-11.39,2.07-4.14,3.12-8.07,3.13-11.79l-10.8-.07.06-22.37,24.19.16-.05,17.53Z"/>
    <path class="cls-2" d="M2597,346.21c-.02,6.65-1.76,12.58-5.24,17.79-3.47,5.21-8.44,9.22-14.89,12.04-6.45,2.82-14.12,4.19-22.99,4.13l-29.3-.2-.09,36.38-24.69-.17.27-103.34,52.99.36c14.12.1,24.98,3.02,32.58,8.77,7.6,5.75,11.39,13.83,11.36,24.24ZM2572.14,346.41c.03-10.86-7.27-16.33-21.89-16.43l-25.53-.17-.09,33.52,26.2.18c6.81.05,12.06-1.4,15.75-4.33,3.69-2.93,5.54-7.19,5.56-12.76Z"/>
    <path class="cls-2" d="M2695.76,417.51l-42.23-47.74-14.59,9.66-.1,37.7-24.69-.17.27-103.34,24.69.17-.12,46.87,53.27-46.51,28.79.19-50.5,43.37,54.34,60-29.13-.2Z"/>
    <path class="cls-2" d="M2737.95,417.8l.27-103.34,24.69.17-.27,103.34-24.69-.17Z"/>
  </g>
  <text class="cls-1" transform="translate(530.79 182.94) rotate(-.2) scale(1.89 1) skewX(-.28)"><tspan x="0" y="0">Easy - PKI</tspan></text>
  <g>
    <path class="cls-2" d="M1086.17,691.51c-.04,11.98-6.55,21.1-19.54,27.37-12.99,6.27-32.03,9.34-57.13,9.2-22.9-.12-40.84-2.99-53.84-8.62-12.99-5.62-21.33-14.09-25.01-25.39l36.13-3.89c2.43,6.5,7.19,11.22,14.27,14.18,7.09,2.96,16.92,4.47,29.52,4.54,26.11.14,39.18-5.23,39.22-16.11.01-3.47-1.48-6.35-4.47-8.62-2.99-2.27-7.21-4.17-12.66-5.71-5.45-1.53-15.89-3.41-31.35-5.63-13.34-2.21-22.63-3.98-27.86-5.31-5.24-1.33-9.96-2.89-14.18-4.68-4.22-1.79-7.8-3.93-10.75-6.44-2.95-2.5-5.24-5.44-6.88-8.8-1.64-3.36-2.45-7.22-2.43-11.56.04-11.05,6.13-19.48,18.27-25.29,12.14-5.81,29.79-8.65,52.94-8.53,22.14.12,38.75,2.58,49.85,7.38,11.09,4.8,18.23,12.68,21.4,23.64l-36.26,3.19c-1.84-5.27-5.61-9.26-11.3-11.95-5.69-2.69-13.86-4.07-24.51-4.12-22.64-.12-33.98,4.68-34.01,14.4-.01,3.18,1.18,5.79,3.59,7.83,2.4,2.04,5.96,3.78,10.69,5.22,4.73,1.44,14.31,3.27,28.75,5.49,17.14,2.58,29.41,4.95,36.79,7.1,7.39,2.15,13.23,4.64,17.53,7.47,4.3,2.83,7.58,6.2,9.85,10.12,2.27,3.92,3.39,8.42,3.38,13.52Z"/>
    <path class="cls-2" d="M1114.32,726.9l.31-93.93,35.61.19-.31,93.93-35.61-.19ZM1114.69,616.05l.06-17.97,35.61.19-.06,17.97-35.61-.19Z"/>
    <path class="cls-2" d="M1267.17,727.71l.17-52.69c.05-16.49-6.85-24.78-20.7-24.85-7.18-.04-13.04,2.45-17.58,7.46-4.54,5.01-6.82,11.51-6.84,19.5l-.17,50.35-35.61-.19.24-72.92c.02-5.03-.08-9.16-.28-12.37-.2-3.21-.42-6.09-.67-8.64l33.97.18c.25,1.1.58,4.04.98,8.82.41,4.78.61,8.06.6,9.86h.51c4.42-7.15,9.9-12.33,16.46-15.54,6.56-3.21,14.4-4.79,23.53-4.74,20.95.11,33.65,7.01,38.08,20.69h.76c4.67-7.26,10.26-12.47,16.78-15.62,6.52-3.15,14.8-4.7,24.86-4.64,13.35.07,23.52,3.24,30.51,9.49,6.99,6.26,10.47,15.2,10.43,26.84l-.2,59.64-35.36-.19.17-52.69c.05-16.49-6.85-24.78-20.7-24.85-6.93-.04-12.62,2.23-17.07,6.81-4.45,4.58-6.9,10.92-7.35,19.02l-.17,51.48-35.36-.19Z"/>
    <path class="cls-2" d="M1547.16,681.79c-.05,15.68-4.68,27.77-13.87,36.26-9.2,8.49-22.16,12.69-38.89,12.6-9.63-.05-18.01-1.53-25.14-4.43-7.13-2.9-12.59-7.05-16.37-12.46h-.76c.5,1.74.74,7,.71,15.8l-.12,36.03-35.61-.19.36-109.2c.03-8.85-.29-16.06-.94-21.62l34.6.18c.42,1.04.77,3.1,1.06,6.17.28,3.07.42,6.11.41,9.12h.51c8.06-11.47,22.7-17.15,43.91-17.04,15.97.09,28.33,4.36,37.09,12.83,8.76,8.47,13.11,20.45,13.06,35.96ZM1510.03,681.6c.07-21.06-9.32-31.65-28.16-31.75-9.46-.05-16.72,2.75-21.76,8.39-5.05,5.65-7.59,13.56-7.62,23.75-.03,10.13,2.45,17.97,7.46,23.52,5.01,5.55,12.16,8.35,21.45,8.4,19.01.1,28.55-10.67,28.62-32.31Z"/>
    <path class="cls-2" d="M1575.77,729.34l.42-128.82,35.61.19-.42,128.82-35.61-.19Z"/>
    <path class="cls-2" d="M1647.89,729.73l.31-93.93,35.61.19-.31,93.93-35.61-.19ZM1648.25,618.87l.06-17.97,35.61.19-.06,17.97-35.61-.19Z"/>
    <path class="cls-2" d="M1762.08,652.9l-.25,77.43-35.49-.19.25-77.43-20.02-.11.05-16.49,20.02.11.03-9.81c.03-8.51,3.34-14.8,9.95-18.87,6.6-4.07,16.62-6.08,30.06-6,6.67.03,14.19.54,22.55,1.51l-.05,15.71c-3.46-.54-6.93-.82-10.39-.84-6.08-.03-10.38.77-12.87,2.41-2.5,1.64-3.75,4.54-3.77,8.7l-.02,7.38,27,.14-.05,16.49-27-.14Z"/>
    <path class="cls-2" d="M1806.44,730.57l.31-93.93,35.61.19-.31,93.93-35.61-.19ZM1806.8,619.71l.06-17.97,35.61.19-.06,17.97-35.61-.19Z"/>
    <path class="cls-2" d="M1934.69,732.98c-20.62-.11-36.44-4.37-47.49-12.8-11.04-8.42-16.54-20.65-16.48-36.68.05-15.51,5.71-27.4,16.97-35.68,11.26-8.27,27.2-12.36,47.82-12.25,19.69.1,34.71,4.65,45.07,13.65,10.36,9,15.52,22.12,15.46,39.36v.69s-87.96-.47-87.96-.47c-.03,9.15,2.42,16.06,7.35,20.74,4.93,4.68,11.95,7.05,21.08,7.1,12.59.07,20.54-3.62,23.86-11.07l33.58,2.18c-9.77,16.96-29.53,25.36-59.27,25.21ZM1934.96,650.95c-8.36-.04-14.82,1.92-19.35,5.89-4.53,3.97-6.94,9.54-7.22,16.72l53.23.28c-.65-7.59-3.29-13.29-7.93-17.1-4.63-3.81-10.88-5.74-18.74-5.78Z"/>
    <path class="cls-2" d="M2111.75,732.18c-.34-.87-.73-3.06-1.18-6.56-.45-3.5-.68-6.41-.67-8.73h-.51c-7.73,11.3-22.36,16.89-43.91,16.78-15.97-.08-28.29-4.42-36.97-13-8.67-8.58-12.99-20.54-12.94-35.88.05-15.57,4.67-27.57,13.87-36,9.19-8.43,22.2-12.6,39.01-12.51,9.72.05,18.1,1.48,25.14,4.3,7.05,2.82,12.46,6.98,16.25,12.5h.25s-.2-15.45-.2-15.45l.11-34.29,35.61.19-.36,108.34c-.02,5.79.29,12.62.95,20.49l-34.47-.18ZM2110.26,684.69c.03-10.13-2.41-17.94-7.34-23.43-4.92-5.49-12.2-8.27-21.84-8.32-9.55-.05-16.66,2.56-21.32,7.83-4.67,5.27-7.01,13.35-7.05,24.23-.07,21.3,9.23,31.99,27.9,32.09,9.38.05,16.65-2.73,21.83-8.35,5.17-5.61,7.78-13.63,7.81-24.05Z"/>
  </g>
  <g>
    <path class="cls-5" d="M279.6,302.16l-152.33,11.77-9.49,19.98c-21.08,43.89-33.73,82.78-33.21,87.77.53,5.35,4.22,9.63,13.18,9.28,29.52-1.07,93.3-12.13,137.04-21.41,33.21-7.14,48.49-12.13,53.24-14.99,4.74-3.21,18.98,2.14,13.7,5-5.27,3.21-34.79,12.85-69.58,19.62-34.79,7.14-90.66,17.48-119.12,18.2-19.5.71-24.77,0-26.88-1.78-2.64-1.43-11.07-6.78-11.6-13.2-.53-6.42,6.85-38.18,28.99-89.91,2.11-5.35,4.74-11.06,7.91-17.48-16.34,1.43-27.94,2.14-29.52,2.14-6.33.36-3.16-6.78,2.64-7.49,4.22-.71,15.81-1.43,30.57-2.85,17.92-37.46,44.28-85.99,64.83-121.67-42.17,7.14-74.85,14.99-81.7,17.13-10.01,3.21-12.65-4.28-3.69-8.56,6.85-3.57,41.64-12.13,91.19-18.55,10.01-17.13,18.45-30.33,22.14-35.68,13.18-18.55,15.81-19.27,17.92-20.69,1.58-1.43,12.12-1.78,6.33,2.5-5.27,4.64-7.91,8.92-8.43,13.2-.53,3.92-6.33,7.49-23.72,38.89,12.12-1.43,25.3-2.85,39.53-3.92,76.96-6.42,133.35-5.71,146.53-5.35,13.18.36,4.74,5-2.64,5.35-23.19.71-71.68-1.07-141.26,6.78-16.34,1.78-32.68,4.28-47.44,6.42l-1.05,2.14c-18.45,33.9-42.69,80.99-62.2,120.96,41.11-3.21,97.51-7.14,120.7-9.28,35.84-3.21,37.42-6.07,39.01-3.92,1.05,2.14-2.64,8.92-11.6,9.63h0Z"/>
    <g class="cls-6">
      <rect class="cls-4" x="1.5" y="116.84" width="1.27" height="321.12"/>
      <rect class="cls-4" x="2.77" y="116.84" width="1.27" height="321.12"/>
      <rect class="cls-4" x="4.04" y="116.84" width="1.27" height="321.12"/>
      <rect class="cls-4" x="5.31" y="116.84" width="1.27" height="321.12"/>
      <rect class="cls-4" x="6.58" y="116.84" width="1.27" height="321.12"/>
      <rect class="cls-4" x="7.85" y="116.84" width="1.27" height="321.12"/>
      <rect class="cls-4" x="9.12" y="116.84" width="1.27" height="321.12"/>
      <rect class="cls-4" x="10.39" y="116.84" width="1.27" height="321.12"/>
      <rect class="cls-4" x="11.66" y="116.84" width="1.27" height="321.12"/>
      <rect class="cls-4" x="12.93" y="116.84" width="1.27" height="321.12"/>
      <rect class="cls-4" x="14.2" y="116.84" width="1.27" height="321.12"/>
      <rect class="cls-4" x="15.47" y="116.84" width="1.27" height="321.12"/>
      <rect class="cls-4" x="16.74" y="116.84" width="1.27" height="321.12"/>
      <rect class="cls-4" x="18.01" y="116.84" width="1.27" height="321.12"/>
      <rect class="cls-4" x="19.29" y="116.84" width="1.27" height="321.12"/>
      <rect class="cls-4" x="20.56" y="116.84" width="1.27" height="321.12"/>
      <rect class="cls-4" x="21.83" y="116.84" width="1.27" height="321.12"/>
      <rect class="cls-4" x="23.1" y="116.84" width="1.27" height="321.12"/>
      <rect class="cls-4" x="24.37" y="116.84" width="1.27" height="321.12"/>
      <rect class="cls-4" x="25.64" y="116.84" width="1.27" height="321.12"/>
      <rect class="cls-4" x="26.91" y="116.84" width="1.27" height="321.12"/>
      <rect class="cls-4" x="28.18" y="116.84" width="1.27" height="321.12"/>
      <rect class="cls-4" x="29.45" y="116.84" width="1.27" height="321.12"/>
      <rect class="cls-4" x="30.72" y="116.84" width="1.27" height="321.12"/>
      <rect class="cls-4" x="31.99" y="116.84" width="1.27" height="321.12"/>
      <rect class="cls-4" x="33.26" y="116.84" width="1.27" height="321.12"/>
      <rect class="cls-4" x="34.53" y="116.84" width="1.27" height="321.12"/>
      <rect class="cls-4" x="35.8" y="116.84" width="1.27" height="321.12"/>
      <rect class="cls-4" x="37.07" y="116.84" width="1.27" height="321.12"/>
      <rect class="cls-4" x="38.34" y="116.84" width="1.27" height="321.12"/>
      <rect class="cls-4" x="39.61" y="116.84" width="1.27" height="321.12"/>
      <rect class="cls-4" x="40.88" y="116.84" width="1.27" height="321.12"/>
      <rect class="cls-4" x="42.15" y="116.84" width="1.27" height="321.12"/>
      <rect class="cls-4" x="43.42" y="116.84" width="1.27" height="321.12"/>
      <rect class="cls-4" x="44.69" y="116.84" width="1.27" height="321.12"/>
      <rect class="cls-4" x="45.96" y="116.84" width="1.27" height="321.12"/>
      <rect class="cls-4" x="47.23" y="116.84" width="1.27" height="321.12"/>
      <rect class="cls-4" x="48.5" y="116.84" width="1.27" height="321.12"/>
      <rect class="cls-4" x="49.77" y="116.84" width="1.27" height="321.12"/>
      <rect class="cls-4" x="51.04" y="116.84" width="1.27" height="321.12"/>
      <rect class="cls-4" x="52.32" y="116.84" width="1.27" height="321.12"/>
      <rect class="cls-4" x="53.59" y="116.84" width="1.27" height="321.12"/>
      <rect class="cls-4" x="54.86" y="116.84" width="1.27" height="321.12"/>
      <rect class="cls-4" x="56.13" y="116.84" width="1.27" height="321.12"/>
      <rect class="cls-4" x="57.4" y="116.84" width="1.27" height="321.12"/>
      <rect class="cls-4" x="58.67" y="116.84" width="1.27" height="321.12"/>
      <rect class="cls-4" x="59.94" y="116.84" width="1.27" height="321.12"/>
      <rect class="cls-4" x="61.21" y="116.84" width="1.27" height="321.12"/>
      <rect class="cls-4" x="62.48" y="116.84" width="1.27" height="321.12"/>
      <rect class="cls-4" x="63.75" y="116.84" width="1.27" height="321.12"/>
      <rect class="cls-4" x="65.02" y="116.84" width="1.27" height="321.12"/>
      <rect class="cls-4" x="66.29" y="116.84" width="1.27" height="321.12"/>
      <rect class="cls-4" x="67.56" y="116.84" width="1.27" height="321.12"/>
      <rect class="cls-4" x="68.83" y="116.84" width="1.27" height="321.12"/>
      <rect class="cls-4" x="70.1" y="116.84" width="1.27" height="321.12"/>
      <rect class="cls-4" x="71.37" y="116.84" width="1.27" height="321.12"/>
      <rect class="cls-4" x="72.64" y="116.84" width="1.27" height="321.12"/>
      <rect class="cls-4" x="73.91" y="116.84" width="1.27" height="321.12"/>
      <rect class="cls-4" x="75.18" y="116.84" width="1.27" height="321.12"/>
      <rect class="cls-4" x="76.45" y="116.84" width="1.27" height="321.12"/>
      <rect class="cls-4" x="77.72" y="116.84" width="1.27" height="321.12"/>
      <rect class="cls-4" x="78.99" y="116.84" width="1.27" height="321.12"/>
      <rect class="cls-4" x="80.26" y="116.84" width="1.27" height="321.12"/>
      <rect class="cls-4" x="81.53" y="116.84" width="1.27" height="321.12"/>
      <rect class="cls-4" x="82.8" y="116.84" width="1.27" height="321.12"/>
      <rect class="cls-4" x="84.07" y="116.84" width="1.27" height="321.12"/>
      <rect class="cls-4" x="85.35" y="116.84" width="1.27" height="321.12"/>
      <rect class="cls-4" x="86.62" y="116.84" width="1.27" height="321.12"/>
      <rect class="cls-4" x="87.89" y="116.84" width="1.27" height="321.12"/>
      <rect class="cls-4" x="89.16" y="116.84" width="1.27" height="321.12"/>
      <rect class="cls-4" x="90.43" y="116.84" width="1.27" height="321.12"/>
      <rect class="cls-4" x="91.7" y="116.84" width="1.27" height="321.12"/>
      <rect class="cls-4" x="92.97" y="116.84" width="1.27" height="321.12"/>
      <rect class="cls-4" x="94.24" y="116.84" width="1.27" height="321.12"/>
      <rect class="cls-4" x="95.51" y="116.84" width="1.27" height="321.12"/>
      <rect class="cls-4" x="96.78" y="116.84" width="1.27" height="321.12"/>
      <rect class="cls-4" x="98.05" y="116.84" width="1.27" height="321.12"/>
      <rect class="cls-4" x="99.32" y="116.84" width="1.27" height="321.12"/>
      <rect class="cls-4" x="100.59" y="116.84" width="1.27" height="321.12"/>
      <rect class="cls-4" x="101.86" y="116.84" width="1.27" height="321.12"/>
      <rect class="cls-4" x="103.13" y="116.84" width="1.27" height="321.12"/>
      <rect class="cls-4" x="104.4" y="116.84" width="1.27" height="321.12"/>
      <rect class="cls-4" x="105.67" y="116.84" width="1.27" height="321.12"/>
      <rect class="cls-4" x="106.94" y="116.84" width="1.27" height="321.12"/>
      <rect class="cls-4" x="108.21" y="116.84" width="1.27" height="321.12"/>
      <rect class="cls-4" x="109.48" y="116.84" width="1.27" height="321.12"/>
      <rect class="cls-4" x="110.75" y="116.84" width="1.27" height="321.12"/>
      <rect class="cls-4" x="112.02" y="116.84" width="1.27" height="321.12"/>
      <rect class="cls-4" x="113.29" y="116.84" width="1.27" height="321.12"/>
      <rect class="cls-4" x="114.56" y="116.84" width="1.27" height="321.12"/>
      <rect class="cls-4" x="115.83" y="116.84" width="1.27" height="321.12"/>
      <rect class="cls-4" x="117.1" y="116.84" width="1.27" height="321.12"/>
      <rect class="cls-4" x="118.37" y="116.84" width="1.27" height="321.12"/>
      <rect class="cls-4" x="119.65" y="116.84" width="1.27" height="321.12"/>
      <rect class="cls-4" x="120.92" y="116.84" width="1.27" height="321.12"/>
      <rect class="cls-4" x="122.19" y="116.84" width="1.27" height="321.12"/>
      <rect class="cls-4" x="123.46" y="116.84" width="1.27" height="321.12"/>
      <rect class="cls-4" x="124.73" y="116.84" width="1.27" height="321.12"/>
      <rect class="cls-4" x="126" y="116.84" width="1.27" height="321.12"/>
      <rect class="cls-4" x="127.27" y="116.84" width="1.27" height="321.12"/>
      <rect class="cls-4" x="128.54" y="116.84" width="1.27" height="321.12"/>
      <rect class="cls-4" x="129.81" y="116.84" width="1.27" height="321.12"/>
      <rect class="cls-4" x="131.08" y="116.84" width="1.27" height="321.12"/>
      <rect class="cls-4" x="132.35" y="116.84" width="1.27" height="321.12"/>
      <rect class="cls-4" x="133.62" y="116.84" width="1.27" height="321.12"/>
      <rect class="cls-4" x="134.89" y="116.84" width="1.27" height="321.12"/>
      <rect class="cls-4" x="136.16" y="116.84" width="1.27" height="321.12"/>
      <rect class="cls-4" x="137.43" y="116.84" width="1.27" height="321.12"/>
      <rect class="cls-4" x="138.7" y="116.84" width="1.27" height="321.12"/>
      <rect class="cls-4" x="139.97" y="116.84" width="1.27" height="321.12"/>
      <rect class="cls-4" x="141.24" y="116.84" width="1.27" height="321.12"/>
      <rect class="cls-4" x="142.51" y="116.84" width="1.27" height="321.12"/>
      <rect class="cls-4" x="143.78" y="116.84" width="1.27" height="321.12"/>
      <rect class="cls-4" x="145.05" y="116.84" width="1.27" height="321.12"/>
      <rect class="cls-4" x="146.32" y="116.84" width="1.27" height="321.12"/>
      <rect class="cls-4" x="147.59" y="116.84" width="1.27" height="321.12"/>
      <rect class="cls-4" x="148.86" y="116.84" width="1.27" height="321.12"/>
      <rect class="cls-4" x="150.13" y="116.84" width="1.27" height="321.12"/>
      <rect class="cls-4" x="151.4" y="116.84" width="1.27" height="321.12"/>
      <rect class="cls-4" x="152.68" y="116.84" width="1.27" height="321.12"/>
      <rect class="cls-4" x="153.95" y="116.84" width="1.27" height="321.12"/>
      <rect class="cls-4" x="155.22" y="116.84" width="1.27" height="321.12"/>
      <rect class="cls-4" x="156.49" y="116.84" width="1.27" height="321.12"/>
      <rect class="cls-4" x="157.76" y="116.84" width="1.27" height="321.12"/>
      <rect class="cls-4" x="159.03" y="116.84" width="5.08" height="321.12"/>
      <rect class="cls-4" x="164.11" y="116.84" width="1.27" height="321.12"/>
      <rect class="cls-4" x="165.38" y="116.84" width="1.27" height="321.12"/>
      <rect class="cls-4" x="166.65" y="116.84" width="1.27" height="321.12"/>
      <rect class="cls-4" x="167.92" y="116.84" width="1.27" height="321.12"/>
      <rect class="cls-4" x="169.19" y="116.84" width="1.27" height="321.12"/>
      <rect class="cls-4" x="170.46" y="116.84" width="1.27" height="321.12"/>
      <rect class="cls-4" x="171.73" y="116.84" width="1.27" height="321.12"/>
      <rect class="cls-4" x="173" y="116.84" width="1.27" height="321.12"/>
      <rect class="cls-4" x="174.27" y="116.84" width="1.27" height="321.12"/>
      <rect class="cls-4" x="175.54" y="116.84" width="1.27" height="321.12"/>
      <rect class="cls-4" x="176.81" y="116.84" width="1.27" height="321.12"/>
      <rect class="cls-4" x="178.08" y="116.84" width="1.27" height="321.12"/>
      <rect class="cls-4" x="179.35" y="116.84" width="1.27" height="321.12"/>
      <rect class="cls-4" x="180.62" y="116.84" width="1.27" height="321.12"/>
      <rect class="cls-4" x="181.89" y="116.84" width="1.27" height="321.12"/>
      <rect class="cls-4" x="183.16" y="116.84" width="1.27" height="321.12"/>
      <rect class="cls-4" x="184.43" y="116.84" width="1.27" height="321.12"/>
      <rect class="cls-4" x="185.71" y="116.84" width="1.27" height="321.12"/>
      <rect class="cls-4" x="186.98" y="116.84" width="1.27" height="321.12"/>
      <rect class="cls-4" x="188.25" y="116.84" width="1.27" height="321.12"/>
      <rect class="cls-4" x="189.52" y="116.84" width="1.27" height="321.12"/>
      <rect class="cls-4" x="190.79" y="116.84" width="1.27" height="321.12"/>
      <rect class="cls-4" x="192.06" y="116.84" width="1.27" height="321.12"/>
      <rect class="cls-4" x="193.33" y="116.84" width="1.27" height="321.12"/>
      <rect class="cls-4" x="194.6" y="116.84" width="1.27" height="321.12"/>
      <rect class="cls-4" x="195.87" y="116.84" width="1.27" height="321.12"/>
      <rect class="cls-4" x="197.14" y="116.84" width="1.27" height="321.12"/>
      <rect class="cls-4" x="198.41" y="116.84" width="1.27" height="321.12"/>
      <rect class="cls-4" x="199.68" y="116.84" width="1.27" height="321.12"/>
      <rect class="cls-4" x="200.95" y="116.84" width="1.27" height="321.12"/>
      <rect class="cls-4" x="202.22" y="116.84" width="1.27" height="321.12"/>
      <rect class="cls-4" x="203.49" y="116.84" width="1.27" height="321.12"/>
      <rect class="cls-4" x="204.76" y="116.84" width="1.27" height="321.12"/>
      <rect class="cls-4" x="206.03" y="116.84" width="1.27" height="321.12"/>
      <rect class="cls-4" x="207.3" y="116.84" width="1.27" height="321.12"/>
      <rect class="cls-4" x="208.57" y="116.84" width="1.27" height="321.12"/>
      <rect class="cls-4" x="209.84" y="116.84" width="1.27" height="321.12"/>
      <rect class="cls-4" x="211.11" y="116.84" width="1.27" height="321.12"/>
      <rect class="cls-4" x="212.38" y="116.84" width="1.27" height="321.12"/>
      <rect class="cls-4" x="213.65" y="116.84" width="1.27" height="321.12"/>
      <rect class="cls-4" x="214.92" y="116.84" width="1.27" height="321.12"/>
      <rect class="cls-4" x="216.19" y="116.84" width="1.27" height="321.12"/>
      <rect class="cls-4" x="217.46" y="116.84" width="1.27" height="321.12"/>
      <rect class="cls-4" x="218.73" y="116.84" width="1.27" height="321.12"/>
      <rect class="cls-4" x="220.01" y="116.84" width="1.27" height="321.12"/>
      <rect class="cls-4" x="221.28" y="116.84" width="1.27" height="321.12"/>
      <rect class="cls-4" x="222.55" y="116.84" width="1.27" height="321.12"/>
      <rect class="cls-4" x="223.82" y="116.84" width="1.27" height="321.12"/>
      <rect class="cls-4" x="225.09" y="116.84" width="1.27" height="321.12"/>
      <rect class="cls-4" x="226.36" y="116.84" width="1.27" height="321.12"/>
      <rect class="cls-4" x="227.63" y="116.84" width="1.27" height="321.12"/>
      <rect class="cls-4" x="228.9" y="116.84" width="1.27" height="321.12"/>
      <rect class="cls-4" x="230.17" y="116.84" width="1.27" height="321.12"/>
      <rect class="cls-4" x="231.44" y="116.84" width="1.27" height="321.12"/>
      <rect class="cls-4" x="232.71" y="116.84" width="1.27" height="321.12"/>
      <rect class="cls-4" x="233.98" y="116.84" width="1.27" height="321.12"/>
      <rect class="cls-4" x="235.25" y="116.84" width="1.27" height="321.12"/>
      <rect class="cls-4" x="236.52" y="116.84" width="1.27" height="321.12"/>
      <rect class="cls-4" x="237.79" y="116.84" width="1.27" height="321.12"/>
      <rect class="cls-4" x="239.06" y="116.84" width="1.27" height="321.12"/>
      <rect class="cls-4" x="240.33" y="116.84" width="1.27" height="321.12"/>
      <rect class="cls-4" x="241.6" y="116.84" width="1.27" height="321.12"/>
      <rect class="cls-4" x="242.87" y="116.84" width="1.27" height="321.12"/>
      <rect class="cls-4" x="244.14" y="116.84" width="1.27" height="321.12"/>
      <rect class="cls-4" x="245.41" y="116.84" width="1.27" height="321.12"/>
      <rect class="cls-4" x="246.68" y="116.84" width="1.27" height="321.12"/>
      <rect class="cls-4" x="247.95" y="116.84" width="1.27" height="321.12"/>
      <rect class="cls-4" x="249.22" y="116.84" width="1.27" height="321.12"/>
      <rect class="cls-4" x="250.49" y="116.84" width="1.27" height="321.12"/>
      <rect class="cls-4" x="251.76" y="116.84" width="1.27" height="321.12"/>
      <rect class="cls-4" x="253.04" y="116.84" width="1.27" height="321.12"/>
      <rect class="cls-4" x="254.31" y="116.84" width="1.27" height="321.12"/>
      <rect class="cls-4" x="255.58" y="116.84" width="1.27" height="321.12"/>
      <rect class="cls-4" x="256.85" y="116.84" width="1.27" height="321.12"/>
      <rect class="cls-4" x="258.12" y="116.84" width="1.27" height="321.12"/>
      <rect class="cls-4" x="259.39" y="116.84" width="1.27" height="321.12"/>
      <rect class="cls-4" x="260.66" y="116.84" width="1.27" height="321.12"/>
      <rect class="cls-4" x="261.93" y="116.84" width="1.27" height="321.12"/>
      <rect class="cls-4" x="263.2" y="116.84" width="1.27" height="321.12"/>
      <rect class="cls-4" x="264.47" y="116.84" width="1.27" height="321.12"/>
      <rect class="cls-4" x="265.74" y="116.84" width="1.27" height="321.12"/>
      <rect class="cls-4" x="267.01" y="116.84" width="1.27" height="321.12"/>
      <rect class="cls-4" x="268.28" y="116.84" width="1.27" height="321.12"/>
      <rect class="cls-4" x="269.55" y="116.84" width="1.27" height="321.12"/>
      <rect class="cls-4" x="270.82" y="116.84" width="1.27" height="321.12"/>
      <rect class="cls-4" x="272.09" y="116.84" width="1.27" height="321.12"/>
      <rect class="cls-4" x="273.36" y="116.84" width="1.27" height="321.12"/>
      <rect class="cls-4" x="274.63" y="116.84" width="1.27" height="321.12"/>
      <rect class="cls-4" x="275.9" y="116.84" width="1.27" height="321.12"/>
      <rect class="cls-4" x="277.17" y="116.84" width="1.27" height="321.12"/>
      <rect class="cls-4" x="278.44" y="116.84" width="1.27" height="321.12"/>
      <rect class="cls-4" x="279.71" y="116.84" width="1.27" height="321.12"/>
      <rect class="cls-4" x="280.98" y="116.84" width="1.27" height="321.12"/>
      <rect class="cls-4" x="282.25" y="116.84" width="1.27" height="321.12"/>
      <rect class="cls-4" x="283.52" y="116.84" width="1.27" height="321.12"/>
      <rect class="cls-4" x="284.79" y="116.84" width="1.27" height="321.12"/>
      <rect class="cls-4" x="286.06" y="116.84" width="1.27" height="321.12"/>
      <rect class="cls-4" x="287.34" y="116.84" width="1.27" height="321.12"/>
      <rect class="cls-4" x="288.61" y="116.84" width="1.27" height="321.12"/>
      <rect class="cls-4" x="289.88" y="116.84" width="1.27" height="321.12"/>
      <rect class="cls-4" x="291.15" y="116.84" width="1.27" height="321.12"/>
      <rect class="cls-4" x="292.42" y="116.84" width="1.27" height="321.12"/>
      <rect class="cls-4" x="293.69" y="116.84" width="1.27" height="321.12"/>
      <rect class="cls-4" x="294.96" y="116.84" width="1.27" height="321.12"/>
      <rect class="cls-4" x="296.23" y="116.84" width="1.27" height="321.12"/>
      <rect class="cls-4" x="297.5" y="116.84" width="1.27" height="321.12"/>
      <rect class="cls-4" x="298.77" y="116.84" width="1.27" height="321.12"/>
      <rect class="cls-4" x="300.04" y="116.84" width="1.27" height="321.12"/>
      <rect class="cls-4" x="301.31" y="116.84" width="1.27" height="321.12"/>
      <rect class="cls-4" x="302.58" y="116.84" width="1.27" height="321.12"/>
      <rect class="cls-4" x="303.85" y="116.84" width="1.27" height="321.12"/>
      <rect class="cls-4" x="305.12" y="116.84" width="1.27" height="321.12"/>
      <rect class="cls-4" x="306.39" y="116.84" width="1.27" height="321.12"/>
      <rect class="cls-4" x="307.66" y="116.84" width="1.27" height="321.12"/>
      <rect class="cls-4" x="308.93" y="116.84" width="1.27" height="321.12"/>
      <rect class="cls-4" x="310.2" y="116.84" width="1.27" height="321.12"/>
      <rect class="cls-4" x="311.47" y="116.84" width="1.27" height="321.12"/>
      <rect class="cls-4" x="312.74" y="116.84" width="1.27" height="321.12"/>
      <rect class="cls-4" x="314.01" y="116.84" width="1.27" height="321.12"/>
      <rect class="cls-4" x="315.28" y="116.84" width="1.27" height="321.12"/>
      <rect class="cls-4" x="316.55" y="116.84" width="1.27" height="321.12"/>
      <rect class="cls-4" x="317.82" y="116.84" width="1.27" height="321.12"/>
      <rect class="cls-4" x="319.09" y="116.84" width="2.54" height="321.12"/>
      <rect class="cls-4" x="321.64" y="116.84" width="5.08" height="321.12"/>
    </g>
    <path class="cls-3" d="M279.6,302.16l-152.33,11.77-9.49,19.98c-21.08,43.89-33.73,82.78-33.21,87.77.53,5.35,4.22,9.63,13.18,9.28,29.52-1.07,93.3-12.13,137.04-21.41,33.21-7.14,48.49-12.13,53.24-14.99,4.74-3.21,18.98,2.14,13.7,5-5.27,3.21-34.79,12.85-69.58,19.62-34.79,7.14-90.66,17.48-119.12,18.2-19.5.71-24.77,0-26.88-1.78-2.64-1.43-11.07-6.78-11.6-13.2-.53-6.42,6.85-38.18,28.99-89.91,2.11-5.35,4.74-11.06,7.91-17.48-16.34,1.43-27.94,2.14-29.52,2.14-6.33.36-3.16-6.78,2.64-7.49,4.22-.71,15.81-1.43,30.57-2.85,17.92-37.46,44.28-85.99,64.83-121.67-42.17,7.14-74.85,14.99-81.7,17.13-10.01,3.21-12.65-4.28-3.69-8.56,6.85-3.57,41.64-12.13,91.19-18.55,10.01-17.13,18.45-30.33,22.14-35.68,13.18-18.55,15.81-19.27,17.92-20.69,1.58-1.43,12.12-1.78,6.33,2.5-5.27,4.64-7.91,8.92-8.43,13.2-.53,3.92-6.33,7.49-23.72,38.89,12.12-1.43,25.3-2.85,39.53-3.92,76.96-6.42,133.35-5.71,146.53-5.35,13.18.36,4.74,5-2.64,5.35-23.19.71-71.68-1.07-141.26,6.78-16.34,1.78-32.68,4.28-47.44,6.42l-1.05,2.14c-18.45,33.9-42.69,80.99-62.2,120.96,41.11-3.21,97.51-7.14,120.7-9.28,35.84-3.21,37.42-6.07,39.01-3.92,1.05,2.14-2.64,8.92-11.6,9.63h0Z"/>
  </g>
</svg>