<svg xmlns="http://www.w3.org/2000/svg" id="Layer_1" data-name="Layer 1" viewBox="0 0 2763.41 766.09"><defs><clipPath id="clippath"><path d="m279.6 302.16-152.33 11.77-9.49 19.98c-21.08 43.89-33.73 82.78-33.21 87.77.53 5.35 4.22 9.63 13.18 9.28 29.52-1.07 93.3-12.13 137.04-21.41 33.21-7.14 48.49-12.13 53.24-14.99 4.74-3.21 18.98 2.14 13.7 5-5.27 3.21-34.79 12.85-69.58 19.62-34.79 7.14-90.66 17.48-119.12 18.2-19.5.71-24.77 0-26.88-1.78-2.64-1.43-11.07-6.78-11.6-13.2s6.85-38.18 28.99-89.91c2.11-5.35 4.74-11.06 7.91-17.48-16.34 1.43-27.94 2.14-29.52 2.14-6.33.36-3.16-6.78 2.64-7.49 4.22-.71 15.81-1.43 30.57-2.85 17.92-37.46 44.28-85.99 64.83-121.67-42.17 7.14-74.85 14.99-81.7 17.13-10.01 3.21-12.65-4.28-3.69-8.56 6.85-3.57 41.64-12.13 91.19-18.55 10.01-17.13 18.45-30.33 22.14-35.68 13.18-18.55 15.81-19.27 17.92-20.69 1.58-1.43 12.12-1.78 6.33 2.5-5.27 4.64-7.91 8.92-8.43 13.2-.53 3.92-6.33 7.49-23.72 38.89 12.12-1.43 25.3-2.85 39.53-3.92 76.96-6.42 133.35-5.71 146.53-5.35s4.74 5-2.64 5.35c-23.19.71-71.68-1.07-141.26 6.78-16.34 1.78-32.68 4.28-47.44 6.42l-1.05 2.14c-18.45 33.9-42.69 80.99-62.2 120.96 41.11-3.21 97.51-7.14 120.7-9.28 35.84-3.21 37.42-6.07 39.01-3.92 1.05 2.14-2.64 8.92-11.6 9.63Z" class="cls-4"/></clipPath><style>.cls-2,.cls-4{stroke:#000;stroke-miterlimit:10;fill:#c28183}.cls-4{stroke:#ffcab8;stroke-width:3px}</style></defs><path d="m480.24 402.5.27-103.34 92.75.63-.04 16.72-68.05-.46-.07 25.96 62.95.43-.04 16.72-62.95-.43-.07 27.21 71.48.48-.04 16.72-96.18-.65ZM653.76 403.67l.11-44.52c.04-13.94-5.33-20.94-16.1-21.01-5.69-.04-10.29 2.07-13.79 6.32-3.5 4.26-5.26 9.73-5.27 16.43l-.11 42.54-23.52-.16.16-61.61c.01-4.25-.05-7.74-.18-10.45-.13-2.72-.28-5.15-.44-7.3l22.43.15c.17.93.38 3.41.65 7.45.27 4.03.4 6.81.4 8.33h.33c3.2-6.04 7.2-10.41 12-13.12 4.81-2.71 10.53-4.04 17.17-3.99 9.6.06 16.96 2.71 22.08 7.92 5.12 5.22 7.67 12.81 7.64 22.79l-.13 50.39-23.44-.16ZM737.55 405.71c-13.73-.09-24.32-3.75-31.78-10.96s-11.17-17.23-11.14-30.04c.03-13.1 3.83-23.29 11.38-30.54 7.55-7.26 18.25-10.84 32.09-10.75 10.66.07 19.47 2.48 26.43 7.22s11.33 11.25 13.09 19.52l-23.69.87c-.66-4.06-2.32-7.31-5-9.75-2.67-2.44-6.46-3.68-11.37-3.71-12.11-.08-18.19 8.75-18.23 26.5-.05 18.29 6.09 27.47 18.43 27.56 4.46.03 8.21-1.18 11.23-3.63s4.9-6.12 5.64-11l23.6 1.11c-.85 5.42-3.08 10.25-6.69 14.48s-8.35 7.49-14.21 9.77c-5.87 2.28-12.45 3.4-19.76 3.35ZM795.14 404.63l.16-60.73q.015-6.525-.18-10.89c-.13-2.91-.28-5.49-.44-7.74l22.43.15c.17.88.38 3.56.65 8.04s.4 7.45.4 8.91h.33c2.3-5.56 4.35-9.47 6.14-11.73s3.92-3.93 6.37-5.02q3.69-1.62 9.21-1.59c3.01.02 5.44.4 7.28 1.15l-.04 17.24c-3.79-.76-7.14-1.15-10.04-1.17-5.86-.04-10.43 2.01-13.7 6.14-3.28 4.13-4.92 10.28-4.94 18.45l-.1 38.95-23.52-.16ZM873.49 436.34c-5.64-.04-10.57-.39-14.81-1.05l.04-14.67c2.96.41 5.66.63 8.12.64 3.35.02 6.12-.42 8.33-1.34 2.21-.91 4.19-2.44 5.96-4.58 1.76-2.14 3.74-5.77 5.93-10.89l-35.62-78.79 24.86.17 14.13 37.28c2.22 5.34 5.02 13.53 8.39 24.55l2.11-6.95 5.49-17.2 13.49-37.39 24.61.17-36.04 83.3c-4.83 10.14-9.82 17.14-15 21.02q-7.755 5.82-19.98 5.73ZM1043.01 366.27c-.03 13.25-3.09 23.46-9.16 30.63s-14.63 10.72-25.68 10.64c-6.36-.04-11.9-1.29-16.61-3.74s-8.31-5.96-10.81-10.52h-.5c.33 1.47.49 5.92.47 13.35l-.08 30.44-23.52-.16.24-92.27c.02-7.48-.19-13.57-.62-18.27l22.85.15c.28.88.51 2.62.7 5.21s.28 5.16.27 7.7h.33c5.33-9.69 14.99-14.49 29-14.4 10.55.07 18.71 3.68 24.5 10.84 5.78 7.15 8.66 17.28 8.63 30.39Zm-24.52-.17q.075-26.7-18.6-26.82c-6.25-.04-11.04 2.32-14.37 7.09s-5.01 11.46-5.03 20.06c-.02 8.56 1.62 15.18 4.93 19.87s8.03 7.06 14.17 7.1q18.84.135 18.9-27.3ZM1085.09 407.92c-6.92-.05-12.25-1.73-15.97-5.06-3.73-3.33-5.59-8.34-5.57-15.04l.12-46.79-11.47-.08.04-13.94 12.64.09 7.41-18.58 14.73.1-.05 18.63 17.16.12-.04 13.94-17.16-.12-.11 41.22c-.01 3.86.82 6.72 2.49 8.56s4.26 2.78 7.78 2.8c1.84.01 4.46-.31 7.87-.97l-.03 12.76c-5.81 1.62-12.42 2.41-19.84 2.36ZM1119 406.83l.2-79.36 23.52.16-.2 79.36zm.24-93.66.04-15.18 23.52.16-.04 15.18zM1252.78 367.98c-.03 12.86-4.13 22.92-12.3 30.17s-19.45 10.83-33.85 10.73c-14.12-.1-25.19-3.84-33.2-11.23-8.02-7.39-12.01-17.49-11.98-30.3.03-12.76 4.08-22.77 12.13-30.03s19.31-10.83 33.76-10.74c14.79.1 26.07 3.71 33.83 10.83 7.77 7.12 11.63 17.3 11.6 30.55Zm-24.61-.17c.02-9.44-1.72-16.29-5.22-20.57s-8.6-6.44-15.3-6.48c-14.29-.1-21.45 8.83-21.5 26.77-.02 8.85 1.7 15.6 5.18 20.24 3.47 4.64 8.51 6.99 15.09 7.03 14.45.1 21.7-8.9 21.75-26.99ZM1330.02 408.26l.11-44.52c.04-13.94-5.33-20.94-16.1-21.01-5.69-.04-10.29 2.07-13.79 6.32-3.5 4.26-5.26 9.73-5.27 16.43l-.11 42.54-23.52-.16.16-61.61c.01-4.25-.05-7.74-.18-10.45s-.28-5.15-.44-7.3l22.43.15c.17.93.38 3.41.65 7.45.27 4.03.4 6.81.4 8.33h.33c3.2-6.04 7.2-10.41 12-13.12 4.81-2.7 10.53-4.04 17.17-3.99 9.6.06 16.96 2.71 22.08 7.93s7.67 12.81 7.64 22.79l-.13 50.39-23.44-.16ZM1400.26 403.89c-.02 5.87-.74 11.05-2.17 15.53-1.43 4.49-3.75 8.65-6.94 12.5l-15.49-.1c3.3-3.45 5.99-7.25 8.07-11.39 2.07-4.14 3.12-8.07 3.13-11.79l-10.8-.07.06-22.37 24.19.16zM1525.93 394.04c14.9.1 25.27-6.38 31.11-19.45l21.49 7.26c-4.66 9.94-11.47 17.32-20.44 22.12-8.97 4.81-19.7 7.16-32.2 7.08-18.97-.13-33.62-4.93-43.95-14.42-10.33-9.48-15.47-22.68-15.43-39.6.04-16.97 5.07-29.96 15.08-38.99s24.5-13.48 43.48-13.35c13.84.09 25.11 2.6 33.8 7.53s14.78 12.12 18.28 21.58l-21.78 5.06c-1.83-5.19-5.43-9.34-10.81-12.43s-11.72-4.66-19.03-4.71c-11.16-.08-19.64 2.9-25.43 8.92-5.79 6.03-8.7 14.88-8.73 26.57-.03 11.88 2.92 20.97 8.84 27.27 5.93 6.3 14.5 9.49 25.72 9.56ZM1632.19 411.77c-13.62-.09-24.07-3.69-31.36-10.81q-10.935-10.665-10.89-30.99c.03-13.1 3.77-23.15 11.21-30.14s17.97-10.44 31.58-10.35c13 .09 22.93 3.93 29.77 11.53s10.25 18.69 10.21 33.26v.59l-58.09-.39c-.02 7.73 1.6 13.57 4.85 17.53q4.875 5.94 13.92 6c8.31.06 13.57-3.06 15.76-9.35l22.18 1.84q-9.675 21.495-39.15 21.3Zm.18-69.31c-5.52-.04-9.78 1.62-12.78 4.97-2.99 3.35-4.58 8.06-4.77 14.12l35.16.24c-.43-6.41-2.18-11.22-5.24-14.45-3.06-3.22-7.19-4.85-12.38-4.89ZM1690.46 410.7l.16-60.73q.015-6.525-.18-10.89c-.13-2.91-.28-5.49-.44-7.74l22.43.15c.17.88.38 3.56.65 8.04s.4 7.45.4 8.91h.33c2.3-5.56 4.35-9.47 6.14-11.73s3.92-3.93 6.37-5.02q3.69-1.62 9.21-1.59c3.01.02 5.44.4 7.28 1.15l-.04 17.24c-3.79-.76-7.14-1.15-10.04-1.17-5.86-.04-10.43 2.01-13.7 6.14-3.28 4.13-4.92 10.28-4.94 18.45l-.1 38.95-23.52-.16ZM1780.35 412.63c-6.92-.05-12.25-1.73-15.98-5.06s-5.59-8.34-5.57-15.04l.12-46.79-11.47-.08.04-13.94 12.64.09 7.41-18.58 14.73.1-.05 18.63 17.16.12-.04 13.94-17.16-.12-.11 41.22c0 3.86.82 6.72 2.49 8.56s4.26 2.78 7.78 2.8c1.84.01 4.46-.31 7.87-.97l-.03 12.76c-5.81 1.62-12.42 2.41-19.84 2.36ZM1814.26 411.54l.2-79.36 23.52.16-.2 79.36zm.24-93.66.04-15.18 23.52.16-.04 15.18zM1889.68 346.62l-.17 65.42-23.44-.16.17-65.42-13.23-.09.04-13.94 13.23.09.02-8.29c.02-7.19 2.21-12.5 6.57-15.95 4.36-3.44 10.98-5.13 19.85-5.07 4.41.03 9.37.46 14.9 1.27l-.03 13.27c-2.29-.46-4.57-.69-6.86-.71-4.02-.03-6.85.65-8.5 2.03q-2.475 2.07-2.49 7.35l-.02 6.23 17.83.12-.04 13.94-17.83-.12ZM1918.97 412.25l.2-79.36 23.52.16-.2 79.36zm.24-93.66.04-15.18 23.52.16-.04 15.18zM2004.35 414.29c-13.73-.09-24.32-3.75-31.78-10.96s-11.17-17.23-11.14-30.04c.03-13.1 3.83-23.29 11.38-30.54s18.25-10.84 32.09-10.75c10.66.07 19.47 2.48 26.43 7.22s11.33 11.25 13.09 19.52l-23.69.87c-.66-4.06-2.32-7.31-5-9.75-2.67-2.44-6.46-3.68-11.37-3.71-12.11-.08-18.19 8.75-18.23 26.5-.05 18.29 6.09 27.47 18.43 27.56 4.46.03 8.21-1.18 11.23-3.63s4.9-6.11 5.64-11l23.6 1.11c-.85 5.42-3.08 10.25-6.69 14.48s-8.35 7.49-14.21 9.77c-5.87 2.28-12.45 3.4-19.76 3.35ZM2082.86 414.82c-8.76-.06-15.59-2.2-20.49-6.41s-7.34-10.11-7.32-17.69c.02-8.21 3.09-14.45 9.21-18.71s14.99-6.4 26.59-6.42l19.5-.16v-4.03c.02-5.18-1-9.04-3.06-11.57s-5.43-3.81-10.12-3.85c-4.35-.03-7.55.82-9.59 2.54s-3.32 4.59-3.83 8.59l-24.52-1.19c1.53-7.72 5.57-13.54 12.14-17.48s15.51-5.87 26.84-5.8q17.16.12 26.43 7.59c6.18 4.98 9.26 12.02 9.24 21.11l-.07 28.9c-.01 4.45.55 7.52 1.69 9.22 1.14 1.69 3.05 2.55 5.73 2.57 1.79.01 3.52-.12 5.19-.4l-.03 11.15c-1.4.28-2.65.54-3.77.78s-2.23.42-3.35.56-2.3.25-3.56.34-2.72.13-4.4.12c-5.92-.04-10.28-1.34-13.09-3.9s-4.49-6.31-5.04-11.26h-.5c-6.61 10.37-16.56 15.51-29.84 15.42Zm27.47-38.02-12.05.06q-8.205.24-11.64 1.5c-2.29.84-4.04 2.14-5.24 3.89-1.21 1.75-1.81 4.1-1.82 7.03 0 3.77.97 6.57 2.95 8.42s4.61 2.78 7.9 2.8c3.68.03 7.05-.83 10.09-2.57 3.05-1.74 5.44-4.16 7.18-7.25s2.61-6.38 2.62-9.85v-4.03ZM2180.46 415.34c-6.92-.05-12.25-1.73-15.98-5.06s-5.59-8.34-5.57-15.04l.12-46.79-11.47-.08.04-13.94 12.64.09 7.41-18.58 14.73.1-.05 18.63 17.16.12-.04 13.94-17.16-.12-.11 41.22c0 3.86.82 6.72 2.49 8.56s4.26 2.78 7.78 2.8c1.84.01 4.46-.31 7.87-.97l-.03 12.76c-5.81 1.62-12.42 2.41-19.84 2.36ZM2251.45 415.97c-13.62-.09-24.07-3.69-31.36-10.81q-10.935-10.665-10.89-30.99c.03-13.1 3.77-23.15 11.21-30.14s17.97-10.44 31.58-10.35c13 .09 22.93 3.93 29.77 11.53s10.25 18.69 10.21 33.26v.59l-58.09-.39c-.02 7.73 1.6 13.57 4.85 17.53q4.875 5.94 13.92 6c8.31.06 13.57-3.06 15.76-9.35l22.18 1.84q-9.675 21.495-39.15 21.3Zm.17-69.31c-5.52-.04-9.78 1.62-12.78 4.97-2.99 3.35-4.58 8.06-4.77 14.12l35.16.24c-.43-6.41-2.18-11.22-5.24-14.45-3.06-3.22-7.19-4.85-12.38-4.89ZM2386.11 392.24c-.02 7.68-3.62 13.68-10.8 18.01s-17.11 6.45-29.77 6.36c-12.44-.08-21.97-1.87-28.57-5.36s-10.98-8.89-13.14-16.19l20.68-2.57c1.16 3.77 3.18 6.45 6.05 8.04s7.88 2.4 15.02 2.45c6.58.04 11.39-.66 14.4-2.1 3.02-1.45 4.53-3.73 4.54-6.86 0-2.54-1.2-4.57-3.63-6.08-2.42-1.51-6.54-2.79-12.34-3.86q-19.92-3.585-26.85-6.6c-4.63-2.01-8.15-4.6-10.57-7.77s-3.62-7.05-3.61-11.65q.03-11.37 10.05-17.64c6.68-4.18 16.13-6.24 28.35-6.15 10.77.07 19.43 1.97 25.98 5.68s10.62 9.05 12.22 16l-20.85 1.77q-.99-4.845-4.92-7.26c-2.62-1.61-6.77-2.43-12.47-2.47-5.58-.04-9.77.56-12.56 1.79q-4.185 1.845-4.2 6.24c0 2.3 1.06 4.13 3.21 5.49 2.14 1.36 5.76 2.5 10.83 3.41q10.62 1.98 18.87 4.05c5.49 1.38 9.9 3.01 13.21 4.89s5.96 4.28 7.93 7.2 2.95 6.66 2.94 11.21ZM2429.25 410.86c-.02 5.87-.74 11.05-2.17 15.53-1.43 4.49-3.75 8.65-6.94 12.5l-15.49-.1c3.3-3.45 5.99-7.25 8.07-11.39 2.07-4.14 3.12-8.07 3.13-11.79l-10.8-.07.06-22.37 24.19.16zM2597 346.21c-.02 6.65-1.76 12.58-5.24 17.79-3.47 5.21-8.44 9.22-14.89 12.04s-14.12 4.19-22.99 4.13l-29.3-.2-.09 36.38-24.69-.17.27-103.34 52.99.36c14.12.1 24.98 3.02 32.58 8.77s11.39 13.83 11.36 24.24Zm-24.86.2c.03-10.86-7.27-16.33-21.89-16.43l-25.53-.17-.09 33.52 26.2.18c6.81.05 12.06-1.4 15.75-4.33s5.54-7.19 5.56-12.76ZM2695.76 417.51l-42.23-47.74-14.59 9.66-.1 37.7-24.69-.17.27-103.34 24.69.17-.12 46.87 53.27-46.51 28.79.19-50.5 43.37 54.34 60zM2737.95 417.8l.27-103.34 24.69.17-.27 103.34z" class="cls-2"/><text style="font-family:Arimo-Bold,Arimo;font-size:206.96px;font-weight:700;letter-spacing:.08em;stroke:#000;stroke-miterlimit:10;fill:#c28183" transform="matrix(1.88999 -.0066 -.00575 1.00003 530.79 182.94)"><tspan x="0" y="0">Easy - PKI</tspan></text><path d="M1086.17 691.51c-.04 11.98-6.55 21.1-19.54 27.37s-32.03 9.34-57.13 9.2c-22.9-.12-40.84-2.99-53.84-8.62-12.99-5.62-21.33-14.09-25.01-25.39l36.13-3.89c2.43 6.5 7.19 11.22 14.27 14.18 7.09 2.96 16.92 4.47 29.52 4.54 26.11.14 39.18-5.23 39.22-16.11.01-3.47-1.48-6.35-4.47-8.62s-7.21-4.17-12.66-5.71c-5.45-1.53-15.89-3.41-31.35-5.63-13.34-2.21-22.63-3.98-27.86-5.31-5.24-1.33-9.96-2.89-14.18-4.68s-7.8-3.93-10.75-6.44c-2.95-2.5-5.24-5.44-6.88-8.8s-2.45-7.22-2.43-11.56q.06-16.575 18.27-25.29c12.14-5.81 29.79-8.65 52.94-8.53 22.14.12 38.75 2.58 49.85 7.38 11.09 4.8 18.23 12.68 21.4 23.64l-36.26 3.19c-1.84-5.27-5.61-9.26-11.3-11.95s-13.86-4.07-24.51-4.12c-22.64-.12-33.98 4.68-34.01 14.4-.01 3.18 1.18 5.79 3.59 7.83 2.4 2.04 5.96 3.78 10.69 5.22s14.31 3.27 28.75 5.49c17.14 2.58 29.41 4.95 36.79 7.1 7.39 2.15 13.23 4.64 17.53 7.47s7.58 6.2 9.85 10.12 3.39 8.42 3.38 13.52ZM1114.32 726.9l.31-93.93 35.61.19-.31 93.93zm.37-110.85.06-17.97 35.61.19-.06 17.97zM1267.17 727.71l.17-52.69c.05-16.49-6.85-24.78-20.7-24.85-7.18-.04-13.04 2.45-17.58 7.46q-6.81 7.515-6.84 19.5l-.17 50.35-35.61-.19.24-72.92c.02-5.03-.08-9.16-.28-12.37s-.42-6.09-.67-8.64l33.97.18c.25 1.1.58 4.04.98 8.82.41 4.78.61 8.06.6 9.86h.51c4.42-7.15 9.9-12.33 16.46-15.54s14.4-4.79 23.53-4.74c20.95.11 33.65 7.01 38.08 20.69h.76c4.67-7.26 10.26-12.47 16.78-15.62s14.8-4.7 24.86-4.64c13.35.07 23.52 3.24 30.51 9.49 6.99 6.26 10.47 15.2 10.43 26.84l-.2 59.64-35.36-.19.17-52.69c.05-16.49-6.85-24.78-20.7-24.85q-10.395-.06-17.07 6.81t-7.35 19.02l-.17 51.48-35.36-.19ZM1547.16 681.79c-.05 15.68-4.68 27.77-13.87 36.26-9.2 8.49-22.16 12.69-38.89 12.6-9.63-.05-18.01-1.53-25.14-4.43s-12.59-7.05-16.37-12.46h-.76c.5 1.74.74 7 .71 15.8l-.12 36.03-35.61-.19.36-109.2c.03-8.85-.29-16.06-.94-21.62l34.6.18c.42 1.04.77 3.1 1.06 6.17.28 3.07.42 6.11.41 9.12h.51c8.06-11.47 22.7-17.15 43.91-17.04 15.97.09 28.33 4.36 37.09 12.83s13.11 20.45 13.06 35.96Zm-37.13-.19c.07-21.06-9.32-31.65-28.16-31.75-9.46-.05-16.72 2.75-21.76 8.39-5.05 5.65-7.59 13.56-7.62 23.75-.03 10.13 2.45 17.97 7.46 23.52q7.515 8.325 21.45 8.4 28.515.15 28.62-32.31ZM1575.77 729.34l.42-128.82 35.61.19-.42 128.82zM1647.89 729.73l.31-93.93 35.61.19-.31 93.93zm.36-110.86.06-17.97 35.61.19-.06 17.97zM1762.08 652.9l-.25 77.43-35.49-.19.25-77.43-20.02-.11.05-16.49 20.02.11.03-9.81c.03-8.51 3.34-14.8 9.95-18.87 6.6-4.07 16.62-6.08 30.06-6 6.67.03 14.19.54 22.55 1.51l-.05 15.71c-3.46-.54-6.93-.82-10.39-.84-6.08-.03-10.38.77-12.87 2.41-2.5 1.64-3.75 4.54-3.77 8.7l-.02 7.38 27 .14-.05 16.49zM1806.44 730.57l.31-93.93 35.61.19-.31 93.93zm.36-110.86.06-17.97 35.61.19-.06 17.97zM1934.69 732.98c-20.62-.11-36.44-4.37-47.49-12.8-11.04-8.42-16.54-20.65-16.48-36.68.05-15.51 5.71-27.4 16.97-35.68 11.26-8.27 27.2-12.36 47.82-12.25 19.69.1 34.71 4.65 45.07 13.65s15.52 22.12 15.46 39.36v.69l-87.96-.47c-.03 9.15 2.42 16.06 7.35 20.74s11.95 7.05 21.08 7.1c12.59.07 20.54-3.62 23.86-11.07l33.58 2.18c-9.77 16.96-29.53 25.36-59.27 25.21Zm.27-82.03c-8.36-.04-14.82 1.92-19.35 5.89s-6.94 9.54-7.22 16.72l53.23.28c-.65-7.59-3.29-13.29-7.93-17.1-4.63-3.81-10.88-5.74-18.74-5.78ZM2111.75 732.18c-.34-.87-.73-3.06-1.18-6.56s-.68-6.41-.67-8.73h-.51c-7.73 11.3-22.36 16.89-43.91 16.78-15.97-.08-28.29-4.42-36.97-13-8.67-8.58-12.99-20.54-12.94-35.88.05-15.57 4.67-27.57 13.87-36 9.19-8.43 22.2-12.6 39.01-12.51 9.72.05 18.1 1.48 25.14 4.3 7.05 2.82 12.46 6.98 16.25 12.5h.25l-.2-15.45.11-34.29 35.61.19-.36 108.34c-.02 5.79.29 12.62.95 20.49l-34.47-.18Zm-1.49-47.49c.03-10.13-2.41-17.94-7.34-23.43-4.92-5.49-12.2-8.27-21.84-8.32-9.55-.05-16.66 2.56-21.32 7.83-4.67 5.27-7.01 13.35-7.05 24.23-.07 21.3 9.23 31.99 27.9 32.09 9.38.05 16.65-2.73 21.83-8.35 5.17-5.61 7.78-13.63 7.81-24.05Z" class="cls-2"/><path d="m279.6 302.16-152.33 11.77-9.49 19.98c-21.08 43.89-33.73 82.78-33.21 87.77.53 5.35 4.22 9.63 13.18 9.28 29.52-1.07 93.3-12.13 137.04-21.41 33.21-7.14 48.49-12.13 53.24-14.99 4.74-3.21 18.98 2.14 13.7 5-5.27 3.21-34.79 12.85-69.58 19.62-34.79 7.14-90.66 17.48-119.12 18.2-19.5.71-24.77 0-26.88-1.78-2.64-1.43-11.07-6.78-11.6-13.2s6.85-38.18 28.99-89.91c2.11-5.35 4.74-11.06 7.91-17.48-16.34 1.43-27.94 2.14-29.52 2.14-6.33.36-3.16-6.78 2.64-7.49 4.22-.71 15.81-1.43 30.57-2.85 17.92-37.46 44.28-85.99 64.83-121.67-42.17 7.14-74.85 14.99-81.7 17.13-10.01 3.21-12.65-4.28-3.69-8.56 6.85-3.57 41.64-12.13 91.19-18.55 10.01-17.13 18.45-30.33 22.14-35.68 13.18-18.55 15.81-19.27 17.92-20.69 1.58-1.43 12.12-1.78 6.33 2.5-5.27 4.64-7.91 8.92-8.43 13.2-.53 3.92-6.33 7.49-23.72 38.89 12.12-1.43 25.3-2.85 39.53-3.92 76.96-6.42 133.35-5.71 146.53-5.35s4.74 5-2.64 5.35c-23.19.71-71.68-1.07-141.26 6.78-16.34 1.78-32.68 4.28-47.44 6.42l-1.05 2.14c-18.45 33.9-42.69 80.99-62.2 120.96 41.11-3.21 97.51-7.14 120.7-9.28 35.84-3.21 37.42-6.07 39.01-3.92 1.05 2.14-2.64 8.92-11.6 9.63Z" style="fill:#c28183"/><g style="clip-path:url(#clippath)"><path d="M1.5 116.84h1.27v321.12H1.5zM2.77 116.84h1.27v321.12H2.77zM4.04 116.84h1.27v321.12H4.04z" class="cls-4"/><path d="M5.31 116.84h1.27v321.12H5.31zM6.58 116.84h1.27v321.12H6.58zM7.85 116.84h1.27v321.12H7.85zM9.12 116.84h1.27v321.12H9.12zM10.39 116.84h1.27v321.12h-1.27zM11.66 116.84h1.27v321.12h-1.27zM12.93 116.84h1.27v321.12h-1.27zM14.2 116.84h1.27v321.12H14.2zM15.47 116.84h1.27v321.12h-1.27z" class="cls-4"/><path d="M16.74 116.84h1.27v321.12h-1.27zM18.01 116.84h1.27v321.12h-1.27zM19.29 116.84h1.27v321.12h-1.27zM20.56 116.84h1.27v321.12h-1.27zM21.83 116.84h1.27v321.12h-1.27zM23.1 116.84h1.27v321.12H23.1zM24.37 116.84h1.27v321.12h-1.27zM25.64 116.84h1.27v321.12h-1.27zM26.91 116.84h1.27v321.12h-1.27zM28.18 116.84h1.27v321.12h-1.27zM29.45 116.84h1.27v321.12h-1.27zM30.72 116.84h1.27v321.12h-1.27zM31.99 116.84h1.27v321.12h-1.27zM33.26 116.84h1.27v321.12h-1.27zM34.53 116.84h1.27v321.12h-1.27z" class="cls-4"/><path d="M35.8 116.84h1.27v321.12H35.8zM37.07 116.84h1.27v321.12h-1.27zM38.34 116.84h1.27v321.12h-1.27z" class="cls-4"/><path d="M39.61 116.84h1.27v321.12h-1.27zM40.88 116.84h1.27v321.12h-1.27z" class="cls-4"/><path d="M42.15 116.84h1.27v321.12h-1.27zM43.42 116.84h1.27v321.12h-1.27z" class="cls-4"/><path d="M44.69 116.84h1.27v321.12h-1.27zM45.96 116.84h1.27v321.12h-1.27z" class="cls-4"/><path d="M47.23 116.84h1.27v321.12h-1.27zM48.5 116.84h1.27v321.12H48.5zM49.77 116.84h1.27v321.12h-1.27z" class="cls-4"/><path d="M51.04 116.84h1.27v321.12h-1.27zM52.32 116.84h1.27v321.12h-1.27zM53.59 116.84h1.27v321.12h-1.27z" class="cls-4"/><path d="M54.86 116.84h1.27v321.12h-1.27zM56.13 116.84h1.27v321.12h-1.27z" class="cls-4"/><path d="M57.4 116.84h1.27v321.12H57.4zM58.67 116.84h1.27v321.12h-1.27z" class="cls-4"/><path d="M59.94 116.84h1.27v321.12h-1.27zM61.21 116.84h1.27v321.12h-1.27z" class="cls-4"/><path d="M62.48 116.84h1.27v321.12h-1.27z" class="cls-4"/><path d="M63.75 116.84h1.27v321.12h-1.27zM65.02 116.84h1.27v321.12h-1.27zM66.29 116.84h1.27v321.12h-1.27zM67.56 116.84h1.27v321.12h-1.27zM68.83 116.84h1.27v321.12h-1.27zM70.1 116.84h1.27v321.12H70.1zM71.37 116.84h1.27v321.12h-1.27zM72.64 116.84h1.27v321.12h-1.27zM73.91 116.84h1.27v321.12h-1.27zM75.18 116.84h1.27v321.12h-1.27zM76.45 116.84h1.27v321.12h-1.27zM77.72 116.84h1.27v321.12h-1.27zM78.99 116.84h1.27v321.12h-1.27zM80.26 116.84h1.27v321.12h-1.27zM81.53 116.84h1.27v321.12h-1.27zM82.8 116.84h1.27v321.12H82.8zM84.07 116.84h1.27v321.12h-1.27zM85.35 116.84h1.27v321.12h-1.27zM86.62 116.84h1.27v321.12h-1.27zM87.89 116.84h1.27v321.12h-1.27zM89.16 116.84h1.27v321.12h-1.27zM90.43 116.84h1.27v321.12h-1.27zM91.7 116.84h1.27v321.12H91.7zM92.97 116.84h1.27v321.12h-1.27zM94.24 116.84h1.27v321.12h-1.27zM95.51 116.84h1.27v321.12h-1.27zM96.78 116.84h1.27v321.12h-1.27zM98.05 116.84h1.27v321.12h-1.27zM99.32 116.84h1.27v321.12h-1.27zM100.59 116.84h1.27v321.12h-1.27zM101.86 116.84h1.27v321.12h-1.27zM103.13 116.84h1.27v321.12h-1.27zM104.4 116.84h1.27v321.12h-1.27zM105.67 116.84h1.27v321.12h-1.27zM106.94 116.84h1.27v321.12h-1.27zM108.21 116.84h1.27v321.12h-1.27zM109.48 116.84h1.27v321.12h-1.27zM110.75 116.84h1.27v321.12h-1.27zM112.02 116.84h1.27v321.12h-1.27zM113.29 116.84h1.27v321.12h-1.27zM114.56 116.84h1.27v321.12h-1.27zM115.83 116.84h1.27v321.12h-1.27zM117.1 116.84h1.27v321.12h-1.27zM118.37 116.84h1.27v321.12h-1.27zM119.65 116.84h1.27v321.12h-1.27zM120.92 116.84h1.27v321.12h-1.27zM122.19 116.84h1.27v321.12h-1.27zM123.46 116.84h1.27v321.12h-1.27zM124.73 116.84H126v321.12h-1.27zM126 116.84h1.27v321.12H126zM127.27 116.84h1.27v321.12h-1.27zM128.54 116.84h1.27v321.12h-1.27zM129.81 116.84h1.27v321.12h-1.27zM131.08 116.84h1.27v321.12h-1.27z" class="cls-4"/><path d="M132.35 116.84h1.27v321.12h-1.27zM133.62 116.84h1.27v321.12h-1.27z" class="cls-4"/><path d="M134.89 116.84h1.27v321.12h-1.27zM136.16 116.84h1.27v321.12h-1.27zM137.43 116.84h1.27v321.12h-1.27z" class="cls-4"/><path d="M138.7 116.84h1.27v321.12h-1.27zM139.97 116.84h1.27v321.12h-1.27zM141.24 116.84h1.27v321.12h-1.27z" class="cls-4"/><path d="M142.51 116.84h1.27v321.12h-1.27zM143.78 116.84h1.27v321.12h-1.27zM145.05 116.84h1.27v321.12h-1.27z" class="cls-4"/><path d="M146.32 116.84h1.27v321.12h-1.27zM147.59 116.84h1.27v321.12h-1.27zM148.86 116.84h1.27v321.12h-1.27z" class="cls-4"/><path d="M150.13 116.84h1.27v321.12h-1.27zM151.4 116.84h1.27v321.12h-1.27zM152.68 116.84h1.27v321.12h-1.27z" class="cls-4"/><path d="M153.95 116.84h1.27v321.12h-1.27zM155.22 116.84h1.27v321.12h-1.27zM156.49 116.84h1.27v321.12h-1.27z" class="cls-4"/><path d="M157.76 116.84h1.27v321.12h-1.27zM159.03 116.84h5.08v321.12h-5.08zM164.11 116.84h1.27v321.12h-1.27z" class="cls-4"/><path d="M165.38 116.84h1.27v321.12h-1.27zM166.65 116.84h1.27v321.12h-1.27z" class="cls-4"/><path d="M167.92 116.84h1.27v321.12h-1.27zM169.19 116.84h1.27v321.12h-1.27zM170.46 116.84h1.27v321.12h-1.27z" class="cls-4"/><path d="M171.73 116.84H173v321.12h-1.27zM173 116.84h1.27v321.12H173zM174.27 116.84h1.27v321.12h-1.27z" class="cls-4"/><path d="M175.54 116.84h1.27v321.12h-1.27zM176.81 116.84h1.27v321.12h-1.27zM178.08 116.84h1.27v321.12h-1.27z" class="cls-4"/><path d="M179.35 116.84h1.27v321.12h-1.27zM180.62 116.84h1.27v321.12h-1.27z" class="cls-4"/><path d="M181.89 116.84h1.27v321.12h-1.27zM183.16 116.84h1.27v321.12h-1.27zM184.43 116.84h1.27v321.12h-1.27zM185.71 116.84h1.27v321.12h-1.27z" class="cls-4"/><path d="M186.98 116.84h1.27v321.12h-1.27zM188.25 116.84h1.27v321.12h-1.27zM189.52 116.84h1.27v321.12h-1.27z" class="cls-4"/><path d="M190.79 116.84h1.27v321.12h-1.27zM192.06 116.84h1.27v321.12h-1.27zM193.33 116.84h1.27v321.12h-1.27z" class="cls-4"/><path d="M194.6 116.84h1.27v321.12h-1.27zM195.87 116.84h1.27v321.12h-1.27z" class="cls-4"/><path d="M197.14 116.84h1.27v321.12h-1.27zM198.41 116.84h1.27v321.12h-1.27zM199.68 116.84h1.27v321.12h-1.27z" class="cls-4"/><path d="M200.95 116.84h1.27v321.12h-1.27zM202.22 116.84h1.27v321.12h-1.27zM203.49 116.84h1.27v321.12h-1.27z" class="cls-4"/><path d="M204.76 116.84h1.27v321.12h-1.27zM206.03 116.84h1.27v321.12h-1.27zM207.3 116.84h1.27v321.12h-1.27z" class="cls-4"/><path d="M208.57 116.84h1.27v321.12h-1.27zM209.84 116.84h1.27v321.12h-1.27zM211.11 116.84h1.27v321.12h-1.27z" class="cls-4"/><path d="M212.38 116.84h1.27v321.12h-1.27zM213.65 116.84h1.27v321.12h-1.27z" class="cls-4"/><path d="M214.92 116.84h1.27v321.12h-1.27zM216.19 116.84h1.27v321.12h-1.27zM217.46 116.84h1.27v321.12h-1.27z" class="cls-4"/><path d="M218.73 116.84H220v321.12h-1.27zM220.01 116.84h1.27v321.12h-1.27zM221.28 116.84h1.27v321.12h-1.27zM222.55 116.84h1.27v321.12h-1.27z" class="cls-4"/><path d="M223.82 116.84h1.27v321.12h-1.27zM225.09 116.84h1.27v321.12h-1.27zM226.36 116.84h1.27v321.12h-1.27z" class="cls-4"/><path d="M227.63 116.84h1.27v321.12h-1.27zM228.9 116.84h1.27v321.12h-1.27z" class="cls-4"/><path d="M230.17 116.84h1.27v321.12h-1.27zM231.44 116.84h1.27v321.12h-1.27zM232.71 116.84h1.27v321.12h-1.27z" class="cls-4"/><path d="M233.98 116.84h1.27v321.12h-1.27zM235.25 116.84h1.27v321.12h-1.27zM236.52 116.84h1.27v321.12h-1.27z" class="cls-4"/><path d="M237.79 116.84h1.27v321.12h-1.27zM239.06 116.84h1.27v321.12h-1.27zM240.33 116.84h1.27v321.12h-1.27z" class="cls-4"/><path d="M241.6 116.84h1.27v321.12h-1.27zM242.87 116.84h1.27v321.12h-1.27z" class="cls-4"/><path d="M244.14 116.84h1.27v321.12h-1.27zM245.41 116.84h1.27v321.12h-1.27zM246.68 116.84h1.27v321.12h-1.27z" class="cls-4"/><path d="M247.95 116.84h1.27v321.12h-1.27zM249.22 116.84h1.27v321.12h-1.27zM250.49 116.84h1.27v321.12h-1.27z" class="cls-4"/><path d="M251.76 116.84h1.27v321.12h-1.27zM253.04 116.84h1.27v321.12h-1.27zM254.31 116.84h1.27v321.12h-1.27zM255.58 116.84h1.27v321.12h-1.27zM256.85 116.84h1.27v321.12h-1.27zM258.12 116.84h1.27v321.12h-1.27zM259.39 116.84h1.27v321.12h-1.27zM260.66 116.84h1.27v321.12h-1.27zM261.93 116.84h1.27v321.12h-1.27zM263.2 116.84h1.27v321.12h-1.27zM264.47 116.84h1.27v321.12h-1.27zM265.74 116.84h1.27v321.12h-1.27zM267.01 116.84h1.27v321.12h-1.27zM268.28 116.84h1.27v321.12h-1.27zM269.55 116.84h1.27v321.12h-1.27zM270.82 116.84h1.27v321.12h-1.27zM272.09 116.84h1.27v321.12h-1.27zM273.36 116.84h1.27v321.12h-1.27zM274.63 116.84h1.27v321.12h-1.27zM275.9 116.84h1.27v321.12h-1.27zM277.17 116.84h1.27v321.12h-1.27zM278.44 116.84h1.27v321.12h-1.27zM279.71 116.84h1.27v321.12h-1.27zM280.98 116.84h1.27v321.12h-1.27zM282.25 116.84h1.27v321.12h-1.27zM283.52 116.84h1.27v321.12h-1.27zM284.79 116.84h1.27v321.12h-1.27zM286.06 116.84h1.27v321.12h-1.27zM287.34 116.84h1.27v321.12h-1.27zM288.61 116.84h1.27v321.12h-1.27zM289.88 116.84h1.27v321.12h-1.27zM291.15 116.84h1.27v321.12h-1.27zM292.42 116.84h1.27v321.12h-1.27zM293.69 116.84h1.27v321.12h-1.27zM294.96 116.84h1.27v321.12h-1.27zM296.23 116.84h1.27v321.12h-1.27zM297.5 116.84h1.27v321.12h-1.27zM298.77 116.84h1.27v321.12h-1.27zM300.04 116.84h1.27v321.12h-1.27zM301.31 116.84h1.27v321.12h-1.27zM302.58 116.84h1.27v321.12h-1.27zM303.85 116.84h1.27v321.12h-1.27zM305.12 116.84h1.27v321.12h-1.27zM306.39 116.84h1.27v321.12h-1.27zM307.66 116.84h1.27v321.12h-1.27zM308.93 116.84h1.27v321.12h-1.27zM310.2 116.84h1.27v321.12h-1.27zM311.47 116.84h1.27v321.12h-1.27zM312.74 116.84h1.27v321.12h-1.27zM314.01 116.84h1.27v321.12h-1.27zM315.28 116.84h1.27v321.12h-1.27zM316.55 116.84h1.27v321.12h-1.27zM317.82 116.84h1.27v321.12h-1.27zM319.09 116.84h2.54v321.12h-2.54zM321.64 116.84h5.08v321.12h-5.08z" class="cls-4"/></g><path d="m279.6 302.16-152.33 11.77-9.49 19.98c-21.08 43.89-33.73 82.78-33.21 87.77.53 5.35 4.22 9.63 13.18 9.28 29.52-1.07 93.3-12.13 137.04-21.41 33.21-7.14 48.49-12.13 53.24-14.99 4.74-3.21 18.98 2.14 13.7 5-5.27 3.21-34.79 12.85-69.58 19.62-34.79 7.14-90.66 17.48-119.12 18.2-19.5.71-24.77 0-26.88-1.78-2.64-1.43-11.07-6.78-11.6-13.2s6.85-38.18 28.99-89.91c2.11-5.35 4.74-11.06 7.91-17.48-16.34 1.43-27.94 2.14-29.52 2.14-6.33.36-3.16-6.78 2.64-7.49 4.22-.71 15.81-1.43 30.57-2.85 17.92-37.46 44.28-85.99 64.83-121.67-42.17 7.14-74.85 14.99-81.7 17.13-10.01 3.21-12.65-4.28-3.69-8.56 6.85-3.57 41.64-12.13 91.19-18.55 10.01-17.13 18.45-30.33 22.14-35.68 13.18-18.55 15.81-19.27 17.92-20.69 1.58-1.43 12.12-1.78 6.33 2.5-5.27 4.64-7.91 8.92-8.43 13.2-.53 3.92-6.33 7.49-23.72 38.89 12.12-1.43 25.3-2.85 39.53-3.92 76.96-6.42 133.35-5.71 146.53-5.35s4.74 5-2.64 5.35c-23.19.71-71.68-1.07-141.26 6.78-16.34 1.78-32.68 4.28-47.44 6.42l-1.05 2.14c-18.45 33.9-42.69 80.99-62.2 120.96 41.11-3.21 97.51-7.14 120.7-9.28 35.84-3.21 37.42-6.07 39.01-3.92 1.05 2.14-2.64 8.92-11.6 9.63Z" style="stroke-miterlimit:10;fill:none;stroke:#ffcab8;stroke-width:3px"/></svg>