<svg xmlns="http://www.w3.org/2000/svg" viewBox="0 0 500 415"><title>Tubitak Bilgem</title><path fill-rule="evenodd" d="M275 413.6c-2.1-.4-4-.7-5.9-1.2q-6.4-1.7-11.4-6.1c-3.8-3.3-6.7-7.3-8.9-11.8-2.5-5.3-4.3-10.9-5-16.7-.5-4-1-8-1.2-12-.3-5-.5-10.1-.3-15.1.5-11 2.1-21.9 7.4-31.9 3.4-6.4 8.2-11.7 14.7-15.1 3.8-2 8-2.9 12.3-3.3 5-.5 9.8.4 14.6 1.6l.4.2c3.1 1.2 3.1 1.2 3.1 4.5v17.4c-2-1-3.9-2-5.9-2.9-4.6-2.2-9.4-2.9-14.3-.8-3.4 1.5-5.7 4.2-7.5 7.4-2.4 4.4-3.4 9.3-4.1 14.3-1.1 8.4-.6 16.9-.5 25.3.1 6.2 1.2 12.3 3.7 18.1 1.8 4.2 4.2 8 9.1 9.2 1.6.4 3.1.5 4.8.8V367h-9.2v-17.7h27.2V409c-5.3 2-10.7 4.2-16.6 4.5-2.2.1-4.3.1-6.5.1m210.1-46v45h-19v-65.3h-.2q-3.5 10.1-6.9 20.3c-2.1 6.3-4.2 12.5-6.3 18.8-.1.4-.5.7-.8 1.1-.2-.3-.5-.6-.6-1q-6.4-19.1-12.9-38.2c-.1-.5-.3-.9-.6-1.3v65.6h-18.9V301.1h6.8c3.8 0 7.5 0 11.2-.1 1.2 0 1.8.4 2.1 1.5q5.3 15.9 10.6 31.9c.8 2.2 1.6 4.4 2.4 6.9 1.2-3.6 2.4-7 3.5-10.4 3.2-9.6 6.5-19.2 9.7-28.8.2-.4.8-1 1.2-1h18.7zM15.5 317.3v-16.1c.6-.1 1.1-.1 1.6-.1 6.3 0 12.7-.3 19 0 7.8.4 15.4 1.8 21.9 6.5 5.7 4 9.3 9.3 10.4 16.3.9 5.4.8 10.7-.9 15.8-2.1 6.8-6.5 11.7-12.7 15-.5.2-.9.5-1.5.8 4.2 2 8.1 4.3 11.2 7.7q4.3 4.8 5.4 11.1c.5 2.8.7 5.7.6 8.5-.2 8.5-3.1 15.8-9.6 21.4-4.8 4.1-10.5 6.3-16.5 7.6-7.5 1.6-15.2.7-22.8.9-2 .1-3.9 0-6.1 0zm19.9 50.8v26.2c5.8.6 10.7-2.2 13.4-6.4 1.8-2.6 1.9-5.7 1.9-8.8 0-4.2-1.2-7.8-4.5-10.5-3.1-2.5-6.6-3.7-10.8-3.4zm12.8-42.3c-2.6-4.5-8.3-7.2-12.6-6.2v28c2.5.4 4.7-.2 6.8-1.2 5.4-2.5 7.2-7.2 7.3-12.7 0-2.5-.9-5.1-1.5-7.9m327.7 86.9h-38.1V301.2h42.7v18.5h-23.1V347h20.3v19h-20.3v28h23.4v18.7zm-208.3-42.6v-68.9h19.6V394h20.4v18.6h-40zm-60 31.4V301.2h19.5v111.4h-19.5zm17.7-107.6h-16.7v-17h18v8.2c0 2.6-.1 5.2 0 7.8 0 .9-.4 1.2-1.3 1" style="fill:#ed1c24"/><path fill-rule="evenodd" d="M500.3 251.8c-54 .2-108 .1-162 .2-1.5 0-2.1-.5-2.5-1.9-1-3.8-2.1-7.6-3.2-11.7-2.4 4.4-1 9-1.6 13.5h-6.6v-37.5h6.7v14.1h.2c1.5-4.4 3.1-8.7 4.5-13.1.3-.8.6-1.1 1.5-1.1 2.1.1 4.3 0 6.7 0-1.4 3.5-2.8 6.8-4.1 10.2-.7 1.7-1.5 3.4-2.1 5.1-.2.7 0 1.5.2 2.2 1.2 4 2.4 7.9 3.6 11.8.3 1.1.7 1.6 2 1.6 11.5-.1 22.9-.1 34.4-.1h122.2c.1 2.2.1 4.4.1 6.7m-500-6.5c53.6-.2 107.3-.2 161-.2v-24.5h-4.5v-6.2h15.7v6.1h-4.2V252H.5c-.2-2.2-.2-4.4-.2-6.7m226 6.3c-3.4.2-6.5.3-9.8.5v-37.8c4 .3 8.1-.6 12.1.9 3.6 1.4 5.7 4.5 5.9 8.2.1 4-1.4 7.1-4.6 8.9 1.2 1.4 3.1 2.6 3.9 4.3 2.5 5.7.9 12.2-5.7 14.4zm-3-10.1v3.9c3.2 0 4.4-1.6 4.9-4.5.3-2.2-1.5-4.1-4.9-5.1zm4.1-14.3c.9-3.9-.6-6.7-4.1-6.5v9.2c1.8-.1 3.3-.7 4.1-2.7m-43 2.4v-15.2h6.8v1.6c0 8.6 0 17.3.1 25.9 0 1 .4 2.1.9 3 .9 1.6 2.9 1.5 3.7-.1.4-.8.6-1.8.6-2.7v-27.7h6.8c0 .3.1.7.1 1.1 0 9 .1 18.1-.1 27.1-.1 3.5-1.1 7.1-4.7 8.7-6.1 2.7-13 .6-13.8-7.4-.5-4.7-.3-9.4-.4-14.3m128.7 21.5c-.2.4-.5.8-.8.8-1.9.1-3.9.1-5.9.1-.4-2.5-.8-5-1.2-7.4h-5.6c-.4 2.4-.8 4.8-1.2 7.3h-6.7l7.2-37.8h7.3c2.3 12.3 4.6 24.5 6.9 37m-11.2-20.8c-.4 2.6-.9 5.2-1.3 7.9h3.6c-.6-3.6-1.2-7.1-1.8-10.9-.2 1.1-.3 1.9-.5 3M266 214.5c5.3-.2 10.4-.2 15.7-.2v6.2h-4.6v31.4h-6.9v-31.4h-4.3c0-2 0-4 .1-6m-12.3 23.1v14.3H247v-37.5h6.7zm-6.1-26.4c-.4-.3-.7-.6-.7-.9v-4.9h6.4v5.8zm-46.1-1c-.3.5-.6 1-.9 1-1.7.1-3.4 0-5.2 0v-5.8h6.1zm-10.3-4.9c1-.1 1.4.1 1.3 1.1-.1 1.5 0 3.1 0 4.7h-5.8v-5.8z" style="fill:#000"/><path fill-rule="evenodd" d="M343.8 58.5c-2 2.9-3.9 5.5-5.8 8.2q-13.1 18.2-26.1 36.5-19.1 26.6-38.1 53.3l-22 30.8c-1.5 2.2-1.5 2.2-3 .1q-11.6-16.2-23.2-32.3-9.3-12.9-18.5-25.8l-47.4-66.6c-.9-1.3-1.8-2.6-2.9-4.2h37.1c.1 0 .1 0 .1.2.1 1.2.3 2.2.3 3.3q.9 13.5 7.8 25.1c3.6 6.1 8.1 11.4 13.9 15.7.1.2.3.4.4.6 7.9 24.2 37.7 33 57.4 15.9 5-4.3 8.6-9.6 10.5-16 .2-.2.3-.4.5-.6 12.1-9.7 19.1-22 21.1-37.3.4-2.3.5-4.6.7-6.9zm-58 38.9c0-1.7.2-3.4.2-5 0-1.4-.2-2.8-.3-4.4.1-.3.1-.4.2-.6 3.4-4.1 5.9-8.6 7.7-13.6 1.8-4.9 2.4-10.1 2.7-15.3h6.4c.5 6.8-1 13.3-3.4 19.5-3 7.5-7.5 13.9-13.5 19.4M215 87.9c-.1 3.1-.1 6.2-.1 9.4-4.8-3.9-8.4-8.8-11.3-14.3-3.4-6.4-5.3-13.3-5.9-20.5-.1-1.2-.2-2.5-.3-3.8 2.2-.2 4.4-.2 6.8-.2.1 0 .1 0 .1.1.4 3 .5 5.9 1 8.6 1.4 7.6 4.5 14.4 9.6 20.3 0 .2 0 .3.1.4m71.1-29.4h-.1zm4.8 0c.3 8-2 15.2-6.1 21.9-.2.2-.5.4-.8.6-.8-1.7-1.4-3.3-2.2-5.1-.1-.3-.1-.5 0-.8 2.9-5.2 4.1-10.8 4.3-16.6zm-72 16.7v.4c-.9 1.9-1.7 3.6-2.6 5.5-4.5-6.9-6.8-14.2-6.8-22.4 1.6-.2 3.2-.2 4.9-.2.2 0 .2 0 .2.2.2 5.9 1.3 11.4 4.3 16.5" style="fill:#010101"/><path fill-rule="evenodd" d="M204.3 58.5c1.6 0 3.3 0 5.1.1.3-20.3 14.5-37.1 34.6-40.3 9.4-1.6 18.3.1 26.6 5 10.6 6.2 17.1 15.4 19.7 27.3.5 2.5.5 5.1.7 7.8 1.7.2 3.4.2 5.2.1.1 0 .1 0 .1-.1-.2-2.3-.2-4.5-.6-6.6-4-27.4-31.1-45-57.7-37.6-19 5.3-33.5 22.6-33.7 44.3m11.4 30.3c12.3 13.2 27.3 18.1 44.9 14.5 10.1-2.1 18.3-7.6 25.1-15.4.1-.2.1-.3.1-.4-.6-2-1.1-4-1.8-6-6.1 8.4-14.1 14-24.1 16.6-16 4-32.5-2.4-42.2-15.2-.4-.5-.8-1-1.4-1.8-.5 2.2-1 4.2-1.4 6.3 0 .3 0 .4.1.6.3.3.5.5.7.8M194 58.5c1.1 0 2.1 0 3.3.1.6-4 1-7.9 1.7-11.8.7-4.3 2.3-8.3 4.4-12.2 8.4-15.9 21.6-25.4 39.3-28.2 9.6-1.5 19.1-.2 28.1 3.6 7.8 3.4 14.4 8.2 19.8 14.7 6.2 7.4 10.2 15.9 11.7 25.5.3 2.7.4 5.4.6 8.2 1.1.1 2.3.2 3.5.1.2 0 .2 0 .1-.1-.3-3.3-.3-6.5-.9-9.7-2.7-13.9-9.4-25.4-20.6-34.3-10.1-8-21.8-11.8-34.7-12.1-2.3 0-4.7.4-7 .6-5.8.4-11.2 2-16.4 4.4-6.9 3.2-12.9 7.5-18.1 13.2-4.3 4.9-7.8 10.2-10.4 16.2-2.9 7-4.4 14.3-4.4 21.8m90.7 44.2c.3-1.6.6-3.3.9-5-8.2 7.3-17.7 11.7-28.5 13-15.8 1.9-29.8-2.4-41.9-13 .2 1.5.5 3.1.8 5 .1.3.3.5.5.7q15.2 11.3 33.9 11.3 18.75-.15 33.9-11.4c.2-.2.3-.4.4-.6m-15.1-40.3c-2.4-1.4-4.9-2.6-7.3-3.8 7.8 0 15.7 0 23.6-.1.2 0 .1 0 .2-.1-.2-2.3-.3-4.4-.7-6.5-1.9-9.2-6.5-16.7-14.1-22.3-8.5-6.1-18-8-28.2-6.1-7.7 1.4-14.1 5.2-19.4 11-6 6.9-9.2 14.8-9.1 24h23.6c-8.3 3.4-14.7 8.8-19.2 16.6-.1.2-.1.3 0 .6.3.6.5 1 .8 1.4 8.6 14.2 25.7 20.3 40.7 15.6 7.5-2.3 13.7-6.5 18.4-12.8 1-1.3 1.9-2.7 2.8-4.1v-.6c-3.1-5.2-7-9.7-12.1-12.8m-55-3.9" style="fill:#ed2228"/></svg>