<svg version="1.2" xmlns="http://www.w3.org/2000/svg" viewBox="0 0 500 415">
	<title>Tubitak Bilgem</title>
	<style>
		.s0 { fill: #ed1c24 } 
		.s1 { fill: #000000 } 
		.s2 { fill: #010101 } 
		.s3 { fill: #ed2228 } 
	</style>
	<path id="Bilgem" fill-rule="evenodd" class="s0" d="m275 413.6c-2.1-0.4-4-0.7-5.9-1.2q-6.4-1.7-11.4-6.1c-3.8-3.3-6.7-7.3-8.9-11.8-2.5-5.3-4.3-10.9-5-16.7-0.5-4-1-8-1.2-12-0.3-5-0.5-10.1-0.3-15.1 0.5-11 2.1-21.9 7.4-31.9 3.4-6.4 8.2-11.7 14.7-15.1 3.8-2 8-2.9 12.3-3.3 5-0.5 9.8 0.4 14.6 1.6q0.2 0.1 0.4 0.2c3.1 1.2 3.1 1.2 3.1 4.5 0 5.8 0 11.5 0 17.4-2-1-3.9-2-5.9-2.9-4.6-2.2-9.4-2.9-14.3-0.8-3.4 1.5-5.7 4.2-7.5 7.4-2.4 4.4-3.4 9.3-4.1 14.3-1.1 8.4-0.6 16.9-0.5 25.3 0.1 6.2 1.2 12.3 3.7 18.1 1.8 4.2 4.2 8 9.1 9.2 1.6 0.4 3.1 0.5 4.8 0.8 0-9.6 0-19 0-28.5-3.1 0-6.1 0-9.2 0 0-5.9 0-11.8 0-17.7 9.1 0 18.1 0 27.2 0 0 19.8 0 39.6 0 59.7-5.3 2-10.7 4.2-16.6 4.5-2.2 0.1-4.3 0.1-6.5 0.1zm210.1-46c0 15.1 0 30 0 45-6.4 0-12.6 0-19 0q0-32.6 0-65.3-0.1 0-0.2 0-3.5 10.1-6.9 20.3c-2.1 6.3-4.2 12.5-6.3 18.8-0.1 0.4-0.5 0.7-0.8 1.1-0.2-0.3-0.5-0.6-0.6-1q-6.4-19.1-12.9-38.2c-0.1-0.5-0.3-0.9-0.6-1.3 0 21.8 0 43.7 0 65.6-6.3 0-12.5 0-18.9 0 0-37.1 0-74.2 0-111.5q3.4 0 6.8 0c3.8 0 7.5 0 11.2-0.1 1.2 0 1.8 0.4 2.1 1.5q5.3 15.9 10.6 31.9c0.8 2.2 1.6 4.4 2.4 6.9 1.2-3.6 2.4-7 3.5-10.4 3.2-9.6 6.5-19.2 9.7-28.8 0.2-0.4 0.8-1 1.2-1 6.2 0 12.3 0 18.7 0 0 22.2 0 44.3 0 66.5zm-469.6-50.3c0-5.5 0-10.8 0-16.1 0.6-0.1 1.1-0.1 1.6-0.1 6.3 0 12.7-0.3 19 0 7.8 0.4 15.4 1.8 21.9 6.5 5.7 4 9.3 9.3 10.4 16.3 0.9 5.4 0.8 10.7-0.9 15.8-2.1 6.8-6.5 11.7-12.7 15-0.5 0.2-0.9 0.5-1.5 0.8 4.2 2 8.1 4.3 11.2 7.7q4.3 4.8 5.4 11.1c0.5 2.8 0.7 5.7 0.6 8.5-0.2 8.5-3.1 15.8-9.6 21.4-4.8 4.1-10.5 6.3-16.5 7.6-7.5 1.6-15.2 0.7-22.8 0.9-2 0.1-3.9 0-6.1 0 0-31.8 0-63.6 0-95.4zm19.9 50.8q0 13.1 0 26.2c5.8 0.6 10.7-2.2 13.4-6.4 1.8-2.6 1.9-5.7 1.9-8.8 0-4.2-1.2-7.8-4.5-10.5-3.1-2.5-6.6-3.7-10.8-3.4 0 1 0 1.8 0 2.9zm12.8-42.3c-2.6-4.5-8.3-7.2-12.6-6.2q0 14.1 0 28c2.5 0.4 4.7-0.2 6.8-1.2 5.4-2.5 7.2-7.2 7.3-12.7 0-2.5-0.9-5.1-1.5-7.9zm327.7 86.9c-12.8 0-25.4 0-38.1 0 0-37.2 0-74.3 0-111.5 14.2 0 28.4 0 42.7 0 0 6.1 0 12.3 0 18.5-7.7 0-15.3 0-23.1 0 0 9.1 0 18.2 0 27.3q10 0 20.3 0c0 6.4 0 12.7 0 19-6.8 0-13.5 0-20.3 0 0 9.4 0 18.6 0 28 7.7 0 15.5 0 23.4 0 0 6.2 0 12.4 0 18.7-1.5 0-3.1 0-4.9 0zm-208.3-42.6c0-23 0-45.9 0-68.9 6.5 0 13 0 19.6 0 0 30.9 0 61.8 0 92.8 6.8 0 13.6 0 20.4 0 0 6.2 0 12.4 0 18.6-13.2 0-26.5 0-40 0 0-14.1 0-28.2 0-42.5zm-60 31.4c0-33.5 0-66.8 0-100.3 6.5 0 12.9 0 19.5 0 0 37.1 0 74.2 0 111.4-6.4 0-12.9 0-19.5 0 0-3.6 0-7.3 0-11.1zm17.7-107.6c-5.7 0-11.1 0-16.7 0 0-5.7 0-11.3 0-17 5.9 0 11.9 0 18 0q0 4.1 0 8.2c0 2.6-0.1 5.2 0 7.8 0 0.9-0.4 1.2-1.3 1z"/>
	<path id="Tubitak" fill-rule="evenodd" class="s1" d="m500.3 251.8c-54 0.2-108 0.1-162 0.2-1.5 0-2.1-0.5-2.5-1.9-1-3.8-2.1-7.6-3.2-11.7-2.4 4.4-1 9-1.6 13.5-2.2 0-4.4 0-6.6 0 0-12.5 0-25 0-37.5 2.2 0 4.4 0 6.7 0q0 7.1 0 14.1 0.1 0 0.2 0c1.5-4.4 3.1-8.7 4.5-13.1 0.3-0.8 0.6-1.1 1.5-1.1 2.1 0.1 4.3 0 6.7 0-1.4 3.5-2.8 6.8-4.1 10.2-0.7 1.7-1.5 3.4-2.1 5.1-0.2 0.7 0 1.5 0.2 2.2 1.2 4 2.4 7.9 3.6 11.8 0.3 1.1 0.7 1.6 2 1.6 11.5-0.1 22.9-0.1 34.4-0.1 40.7 0 81.3 0 122.2 0 0.1 2.2 0.1 4.4 0.1 6.7zm-500-6.5c53.6-0.2 107.3-0.2 161-0.2 0-8.2 0-16.3 0-24.5q-2.2 0-4.5 0c0-2.1 0-4.1 0-6.2 5.2 0 10.4 0 15.7 0 0 2 0 4 0 6.1-1.4 0-2.7 0-4.2 0 0 10.5 0 20.9 0 31.5-56 0-111.9 0-167.8 0-0.2-2.2-0.2-4.4-0.2-6.7zm226 6.3c-3.4 0.2-6.5 0.3-9.8 0.5 0-12.7 0-25.1 0-37.8 4 0.3 8.1-0.6 12.1 0.9 3.6 1.4 5.7 4.5 5.9 8.2 0.1 4-1.4 7.1-4.6 8.9 1.2 1.4 3.1 2.6 3.9 4.3 2.5 5.7 0.9 12.2-5.7 14.4-0.6 0.2-1.2 0.4-1.8 0.6zm-3-10.1q0 2 0 3.9c3.2 0 4.4-1.6 4.9-4.5 0.3-2.2-1.5-4.1-4.9-5.1 0 1.8 0 3.6 0 5.7zm4.1-14.3c0.9-3.9-0.6-6.7-4.1-6.5 0 3 0 6 0 9.2 1.8-0.1 3.3-0.7 4.1-2.7zm-43 2.4c0-5.2 0-10.1 0-15.2 2.3 0 4.5 0 6.8 0q0 0.8 0 1.6c0 8.6 0 17.3 0.1 25.9 0 1 0.4 2.1 0.9 3 0.9 1.6 2.9 1.5 3.7-0.1 0.4-0.8 0.6-1.8 0.6-2.7 0-9.2 0-18.4 0-27.7 2.2 0 4.4 0 6.8 0 0 0.3 0.1 0.7 0.1 1.1 0 9 0.1 18.1-0.1 27.1-0.1 3.5-1.1 7.1-4.7 8.7-6.1 2.7-13 0.6-13.8-7.4-0.5-4.7-0.3-9.4-0.4-14.3zm128.7 21.5c-0.2 0.4-0.5 0.8-0.8 0.8-1.9 0.1-3.9 0.1-5.9 0.1-0.4-2.5-0.8-5-1.2-7.4q-2.8 0-5.6 0c-0.4 2.4-0.8 4.8-1.2 7.3q-3.4 0-6.7 0c2.4-12.6 4.8-25.2 7.2-37.8q3.6 0 7.3 0c2.3 12.3 4.6 24.5 6.9 37zm-11.2-20.8c-0.4 2.6-0.9 5.2-1.3 7.9 1.3 0 2.3 0 3.6 0-0.6-3.6-1.2-7.1-1.8-10.9-0.2 1.1-0.3 1.9-0.5 3zm-35.9-15.8c5.3-0.2 10.4-0.2 15.7-0.2 0 2.1 0 4.1 0 6.2-1.6 0-3.1 0-4.6 0 0 10.6 0 20.9 0 31.4-2.4 0-4.6 0-6.9 0 0-10.5 0-20.8 0-31.4-1.5 0-2.9 0-4.3 0 0-2 0-4 0.1-6zm-12.3 23.1c0 4.9 0 9.5 0 14.3-2.2 0-4.4 0-6.7 0 0-12.5 0-24.9 0-37.5 2.2 0 4.4 0 6.7 0 0 7.7 0 15.4 0 23.2zm-6.1-26.4c-0.4-0.3-0.7-0.6-0.7-0.9 0-1.6 0-3.2 0-4.9 2.1 0 4.2 0 6.4 0 0 1.8 0 3.7 0 5.8q-2.7 0-5.7 0zm-46.1-1c-0.3 0.5-0.6 1-0.9 1-1.7 0.1-3.4 0-5.2 0 0-1.9 0-3.8 0-5.8 1.9 0 3.9 0 6.1 0 0 1.5 0 3.1 0 4.8zm-10.3-4.9c1-0.1 1.4 0.1 1.3 1.1-0.1 1.5 0 3.1 0 4.7-1.9 0-3.8 0-5.8 0 0-1.8 0-3.7 0-5.8 1.4 0 2.9 0 4.5 0z"/>
	<path fill-rule="evenodd" class="s2" d="m306.6 58.5q0 0 0 0 0 0 0 0zm37.2 0c-2 2.9-3.9 5.5-5.8 8.2q-13.1 18.2-26.1 36.5-19.1 26.6-38.1 53.3-11 15.4-22 30.8c-1.5 2.2-1.5 2.2-3 0.1q-11.6-16.2-23.2-32.3-9.3-12.9-18.5-25.8-23.7-33.3-47.4-66.6c-0.9-1.3-1.8-2.6-2.9-4.2 12.5 0 24.7 0 37.1 0 0.1 0 0.1 0 0.1 0.2 0.1 1.2 0.3 2.2 0.3 3.3q0.9 13.5 7.8 25.1c3.6 6.1 8.1 11.4 13.9 15.7 0.1 0.2 0.3 0.4 0.4 0.6 7.9 24.2 37.7 33 57.4 15.9 5-4.3 8.6-9.6 10.5-16 0.2-0.2 0.3-0.4 0.5-0.6 12.1-9.7 19.1-22 21.1-37.3 0.4-2.3 0.5-4.6 0.7-6.9q0 0 0 0c12.3 0 24.6 0 37.2 0zm-58 38.9c0-1.7 0.2-3.4 0.2-5 0-1.4-0.2-2.8-0.3-4.4 0.1-0.3 0.1-0.4 0.2-0.6 3.4-4.1 5.9-8.6 7.7-13.6 1.8-4.9 2.4-10.1 2.7-15.3q0 0 0 0 0 0 0 0 0 0 0 0c2.1 0 4.2 0 6.4 0 0.5 6.8-1 13.3-3.4 19.5-3 7.5-7.5 13.9-13.5 19.4zm-70.8-9.5c-0.1 3.1-0.1 6.2-0.1 9.4-4.8-3.9-8.4-8.8-11.3-14.3-3.4-6.4-5.3-13.3-5.9-20.5-0.1-1.2-0.2-2.5-0.3-3.8 2.2-0.2 4.4-0.2 6.8-0.2 0.1 0 0.1 0 0.1 0.1 0.4 3 0.5 5.9 1 8.6 1.4 7.6 4.5 14.4 9.6 20.3 0 0.2 0 0.3 0.1 0.4zm71.1-29.4q0 0 0 0 0 0-0.1 0 0.1 0 0.1 0zm4.8 0c0.3 8-2 15.2-6.1 21.9-0.2 0.2-0.5 0.4-0.8 0.6-0.8-1.7-1.4-3.3-2.2-5.1-0.1-0.3-0.1-0.5 0-0.8 2.9-5.2 4.1-10.8 4.3-16.6 1.5 0 3.1 0 4.8 0zm-72 16.7c0 0.1 0 0.2 0 0.4-0.9 1.9-1.7 3.6-2.6 5.5-4.5-6.9-6.8-14.2-6.8-22.4 1.6-0.2 3.2-0.2 4.9-0.2 0.2 0 0.2 0 0.2 0.2 0.2 5.9 1.3 11.4 4.3 16.5z"/>
	<path fill-rule="evenodd" class="s3" d="m204.3 58.5c1.6 0 3.3 0 5.1 0.1 0.3-20.3 14.5-37.1 34.6-40.3 9.4-1.6 18.3 0.1 26.6 5 10.6 6.2 17.1 15.4 19.7 27.3 0.5 2.5 0.5 5.1 0.7 7.8 1.7 0.2 3.4 0.2 5.2 0.1 0.1 0 0.1 0 0.1-0.1-0.2-2.3-0.2-4.5-0.6-6.6-4-27.4-31.1-45-57.7-37.6-19 5.3-33.5 22.6-33.7 44.3q0 0 0 0zm11.4 30.3c12.3 13.2 27.3 18.1 44.9 14.5 10.1-2.1 18.3-7.6 25.1-15.4 0.1-0.2 0.1-0.3 0.1-0.4-0.6-2-1.1-4-1.8-6-6.1 8.4-14.1 14-24.1 16.6-16 4-32.5-2.4-42.2-15.2-0.4-0.5-0.8-1-1.4-1.8-0.5 2.2-1 4.2-1.4 6.3 0 0.3 0 0.4 0.1 0.6 0.3 0.3 0.5 0.5 0.7 0.8zm-21.7-30.3q0 0 0 0 0 0 0 0 0 0 0 0 0 0 0 0zm0 0c1.1 0 2.1 0 3.3 0.1 0.6-4 1-7.9 1.7-11.8 0.7-4.3 2.3-8.3 4.4-12.2 8.4-15.9 21.6-25.4 39.3-28.2 9.6-1.5 19.1-0.2 28.1 3.6 7.8 3.4 14.4 8.2 19.8 14.7 6.2 7.4 10.2 15.9 11.7 25.5 0.3 2.7 0.4 5.4 0.6 8.2 1.1 0.1 2.3 0.2 3.5 0.1 0.2 0 0.2 0 0.1-0.1-0.3-3.3-0.3-6.5-0.9-9.7-2.7-13.9-9.4-25.4-20.6-34.3-10.1-8-21.8-11.8-34.7-12.1-2.3 0-4.7 0.4-7 0.6-5.8 0.4-11.2 2-16.4 4.4-6.9 3.2-12.9 7.5-18.1 13.2-4.3 4.9-7.8 10.2-10.4 16.2-2.9 7-4.4 14.3-4.4 21.8zm0 0q0 0 0 0 0 0 0 0zm90.7 44.2c0.3-1.6 0.6-3.3 0.9-5-8.2 7.3-17.7 11.7-28.5 13-15.8 1.9-29.8-2.4-41.9-13 0.2 1.5 0.5 3.1 0.8 5 0.1 0.3 0.3 0.5 0.5 0.7q15.2 11.3 33.9 11.3c12.5-0.1 23.8-3.9 33.9-11.4 0.2-0.2 0.3-0.4 0.4-0.6zm-15.1-40.3c-2.4-1.4-4.9-2.6-7.3-3.8 7.8 0 15.7 0 23.6-0.1 0.2 0 0.1 0 0.2-0.1-0.2-2.3-0.3-4.4-0.7-6.5-1.9-9.2-6.5-16.7-14.1-22.3-8.5-6.1-18-8-28.2-6.1-7.7 1.4-14.1 5.2-19.4 11-6 6.9-9.2 14.8-9.1 24q11.8 0 23.6 0c-8.3 3.4-14.7 8.8-19.2 16.6-0.1 0.2-0.1 0.3 0 0.6 0.3 0.6 0.5 1 0.8 1.4 8.6 14.2 25.7 20.3 40.7 15.6 7.5-2.3 13.7-6.5 18.4-12.8 1-1.3 1.9-2.7 2.8-4.1 0-0.2 0-0.4 0-0.6-3.1-5.2-7-9.7-12.1-12.8zm-55-3.9q0 0 0 0 0 0 0 0zm0 0q0 0 0 0 0 0 0 0 0 0 0 0z"/>
</svg>