<svg id="ecOtSU7j2Yz1" xmlns="http://www.w3.org/2000/svg" xmlns:xlink="http://www.w3.org/1999/xlink" viewBox="0 0 1256 324" shape-rendering="geometricPrecision" text-rendering="geometricPrecision"><style><![CDATA[#ecOtSU7j2Yz2_to {animation: ecOtSU7j2Yz2_to__to 10000ms linear infinite normal forwards}@keyframes ecOtSU7j2Yz2_to__to { 0% {transform: translate(627.908831px,-169.453189px)} 4% {transform: translate(627.908831px,-169.453189px)} 30% {transform: translate(627.911133px,162.040009px)} 100% {transform: translate(627.911133px,162.040009px)}} #ecOtSU7j2Yz2 {animation: ecOtSU7j2Yz2_c_o 10000ms linear infinite normal forwards}@keyframes ecOtSU7j2Yz2_c_o { 0% {opacity: 0} 4% {opacity: 0} 30% {opacity: 1} 98% {opacity: 1} 100% {opacity: 0}} #ecOtSU7j2Yz10_to {animation: ecOtSU7j2Yz10_to__to 10000ms linear infinite normal forwards}@keyframes ecOtSU7j2Yz10_to__to { 0% {transform: translate(662.250000px,157.389455px)} 4% {transform: translate(662.250000px,157.389455px)} 30% {transform: translate(662.250000px,489.471578px)} 100% {transform: translate(662.250000px,489.471578px)}} #ecOtSU7j2Yz10 {animation: ecOtSU7j2Yz10_c_o 10000ms linear infinite normal forwards}@keyframes ecOtSU7j2Yz10_c_o { 0% {opacity: 1} 4% {opacity: 1} 30% {opacity: 0} 100% {opacity: 0}}]]></style><g id="ecOtSU7j2Yz2_to" transform="translate(627.908831,-169.453189)"><g id="ecOtSU7j2Yz2" transform="translate(-627.908831,-161.999991)" opacity="0"><path id="ecOtSU7j2Yz3" d="M441.500000,165.630000L441.500000,17.700000L560.020000,17.700000C568.040000,17.700000,575.030000,20.580000,581,26.340000C586.760000,32.300000,589.640000,39.300000,589.640000,47.320000L589.640000,86.410000C589.640000,94.440000,586.760000,101.230000,581,106.990000C575.030000,112.960000,568.040000,115.840000,560.020000,115.840000L471.130000,116.050000L471.130000,165.630000L441.500000,165.630000ZM477.920000,86.210000L552.810000,86.210000C556.930000,86.210000,559.190000,86.010000,559.400000,85.800000C559.600000,85.590000,559.810000,83.330000,559.810000,79.210000L559.810000,54.110000C559.810000,50,559.600000,47.740000,559.400000,47.530000C559.190000,47.320000,556.930000,47.320000,552.810000,47.320000L477.920000,47.320000C473.810000,47.320000,471.750000,47.320000,471.540000,47.530000C471.340000,47.740000,471.130000,50,471.130000,54.110000L471.130000,79.210000C471.130000,83.330000,471.340000,85.590000,471.540000,85.800000C471.750000,86.010000,473.810000,86.210000,477.920000,86.210000ZM634.060000,165.630000L634.060000,17.490000L663.890000,17.490000L663.890000,76.740000L695.780000,76.740000L745.370000,17.490000L776.850000,17.490000L776.850000,26.950000L722.530000,91.560000L776.850000,156.170000L776.850000,165.630000L745.370000,165.630000L695.780000,106.380000L663.890000,106.380000L663.890000,165.630000L634.060000,165.630000ZM826.620000,165.630000L826.620000,17.490000L855.840000,17.490000L855.840000,165.630000L826.620000,165.630000ZM457.280000,306.530000C452.960000,306.530000,449.220000,305.010000,446.190000,301.860000C443.040000,298.830000,441.520000,295.090000,441.520000,290.770000L441.520000,238.250000C441.520000,233.930000,443.040000,230.190000,446.190000,227.040000C449.220000,224.010000,452.960000,222.490000,457.280000,222.490000L525.330000,222.490000L525.330000,236.610000L459.730000,236.610000C457.740000,236.610000,456.580000,236.850000,456.220000,237.200000C455.760000,237.550000,455.530000,238.710000,455.530000,240.700000L455.530000,288.320000C455.530000,290.310000,455.760000,291.470000,456.220000,291.820000C456.580000,292.170000,457.740000,292.410000,459.730000,292.410000L525.330000,292.410000L525.330000,306.530000L457.280000,306.530000ZM562.200000,306.530000C557.880000,306.530000,554.270000,305.010000,551.230000,301.860000C548.080000,298.830000,546.560000,295.210000,546.560000,290.890000L546.560000,254.470000C546.560000,250.150000,548.080000,246.530000,551.230000,243.380000C554.270000,240.350000,557.880000,238.830000,562.200000,238.830000L599.670000,238.830000C603.990000,238.830000,607.730000,240.350000,610.760000,243.380000C613.790000,246.530000,615.310000,250.150000,615.310000,254.470000L615.310000,290.890000C615.310000,295.210000,613.790000,298.830000,610.760000,301.860000C607.730000,305.010000,603.990000,306.530000,599.670000,306.530000L562.200000,306.530000ZM564.650000,292.640000L597.220000,292.640000C599.200000,292.640000,600.370000,292.410000,600.840000,291.940000C601.190000,291.590000,601.420000,290.420000,601.420000,288.440000L601.420000,256.920000C601.420000,254.940000,601.190000,253.770000,600.840000,253.300000C600.370000,252.950000,599.200000,252.720000,597.220000,252.720000L564.650000,252.720000C562.670000,252.720000,561.500000,252.950000,561.150000,253.300000C560.690000,253.770000,560.450000,254.940000,560.450000,256.920000L560.450000,288.440000C560.450000,290.420000,560.690000,291.590000,561.150000,291.940000C561.500000,292.410000,562.670000,292.640000,564.650000,292.640000ZM634.790000,306.530000L634.790000,238.830000L688.020000,238.830000C692.340000,238.830000,695.960000,240.350000,698.990000,243.380000C702.030000,246.530000,703.540000,250.150000,703.540000,254.470000L703.540000,306.530000L689.650000,306.530000L689.650000,256.920000C689.650000,254.940000,689.420000,253.770000,689.070000,253.300000C688.600000,252.950000,687.440000,252.720000,685.450000,252.720000L653,252.720000C651.020000,252.720000,649.850000,252.950000,649.380000,253.300000C648.920000,253.770000,648.680000,254.940000,648.680000,256.920000L648.680000,306.530000L634.790000,306.530000ZM739.370000,306.530000C735.050000,306.530000,731.430000,305.010000,728.400000,301.860000C725.240000,298.830000,723.730000,295.210000,723.730000,290.890000L723.730000,288.670000L737.620000,288.670000L737.620000,289.490000C737.620000,290.770000,737.850000,291.590000,738.320000,291.940000C738.670000,292.410000,739.490000,292.640000,740.770000,292.640000L775.440000,292.640000C776.720000,292.640000,777.540000,292.410000,778.010000,291.940000C778.350000,291.590000,778.590000,290.770000,778.590000,289.490000L778.590000,282.840000C778.590000,281.550000,778.350000,280.730000,778.010000,280.270000C777.540000,279.920000,776.720000,279.690000,775.440000,279.690000L739.370000,279.690000C735.050000,279.690000,731.430000,278.170000,728.400000,275.020000C725.240000,271.980000,723.730000,268.360000,723.730000,264.040000L723.730000,254.470000C723.730000,250.150000,725.240000,246.530000,728.400000,243.380000C731.430000,240.350000,735.050000,238.830000,739.370000,238.830000L776.840000,238.830000C781.160000,238.830000,784.890000,240.350000,788.040000,243.380000C791.080000,246.530000,792.590000,250.150000,792.590000,254.470000L792.590000,256.690000L778.590000,256.690000L778.590000,255.870000C778.590000,254.590000,778.350000,253.770000,778.010000,253.300000C777.540000,252.950000,776.720000,252.720000,775.440000,252.720000L740.770000,252.720000C739.490000,252.720000,738.670000,252.950000,738.320000,253.300000C737.850000,253.770000,737.620000,254.590000,737.620000,255.870000L737.620000,262.520000C737.620000,263.810000,737.850000,264.630000,738.320000,264.980000C738.670000,265.440000,739.490000,265.680000,740.770000,265.680000L776.840000,265.680000C781.160000,265.680000,784.890000,267.190000,788.040000,270.230000C791.080000,273.380000,792.590000,277,792.590000,281.320000L792.590000,290.890000C792.590000,295.210000,791.080000,298.830000,788.040000,301.860000C784.890000,305.010000,781.160000,306.530000,776.840000,306.530000L739.370000,306.530000ZM828.190000,306.530000C823.870000,306.530000,820.250000,305.010000,817.220000,301.860000C814.060000,298.830000,812.550000,295.210000,812.550000,290.890000L812.550000,254.470000C812.550000,250.150000,814.060000,246.530000,817.220000,243.380000C820.250000,240.350000,823.870000,238.830000,828.190000,238.830000L865.660000,238.830000C869.980000,238.830000,873.710000,240.350000,876.740000,243.380000C879.780000,246.530000,881.300000,250.150000,881.300000,254.470000L881.300000,290.890000C881.300000,295.210000,879.780000,298.830000,876.740000,301.860000C873.710000,305.010000,869.980000,306.530000,865.660000,306.530000L828.190000,306.530000ZM830.640000,292.640000L863.210000,292.640000C865.190000,292.640000,866.360000,292.410000,866.820000,291.940000C867.170000,291.590000,867.410000,290.420000,867.410000,288.440000L867.410000,256.920000C867.410000,254.940000,867.170000,253.770000,866.820000,253.300000C866.360000,252.950000,865.190000,252.720000,863.210000,252.720000L830.640000,252.720000C828.660000,252.720000,827.490000,252.950000,827.140000,253.300000C826.670000,253.770000,826.440000,254.940000,826.440000,256.920000L826.440000,288.440000C826.440000,290.420000,826.670000,291.590000,827.140000,291.940000C827.490000,292.410000,828.660000,292.640000,830.640000,292.640000ZM900.900000,306.530000L900.900000,254.470000C900.900000,250.150000,902.410000,246.530000,905.570000,243.380000C908.600000,240.350000,912.220000,238.830000,916.540000,238.830000L954.240000,238.830000L954.240000,252.720000L918.990000,252.720000C917.010000,252.720000,915.840000,252.950000,915.490000,253.300000C915.020000,253.770000,914.790000,254.940000,914.790000,256.920000L914.790000,306.530000L900.900000,306.530000ZM986.910000,306.530000C982.590000,306.530000,978.860000,305.010000,975.830000,301.860000C972.790000,298.830000,971.270000,295.210000,971.270000,290.890000L971.270000,217.700000L985.160000,217.700000L985.160000,238.830000L1012.240000,238.830000L1012.240000,252.720000L985.160000,252.720000L985.160000,288.440000C985.160000,290.420000,985.400000,291.590000,985.860000,291.940000C986.210000,292.410000,987.380000,292.640000,989.370000,292.640000L1012.240000,292.640000L1012.240000,306.530000L986.910000,306.530000ZM1031.490000,306.530000L1031.490000,238.830000L1045.380000,238.830000L1045.380000,306.530000L1031.490000,306.530000ZM1031.490000,230.660000L1031.490000,216.650000L1045.380000,216.650000L1045.380000,230.660000L1031.490000,230.660000ZM1082.490000,306.530000C1078.170000,306.530000,1074.440000,305.010000,1071.400000,301.860000C1068.360000,298.830000,1066.850000,295.210000,1066.850000,290.890000L1066.850000,238.830000L1080.740000,238.830000L1080.740000,288.440000C1080.740000,290.420000,1080.970000,291.590000,1081.440000,291.940000C1081.790000,292.410000,1082.960000,292.640000,1084.940000,292.640000L1117.510000,292.640000C1119.490000,292.640000,1120.660000,292.410000,1121.120000,291.940000C1121.470000,291.590000,1121.710000,290.420000,1121.710000,288.440000L1121.710000,238.830000L1135.600000,238.830000L1135.600000,290.890000C1135.600000,295.210000,1134.080000,298.830000,1131.050000,301.860000C1128.010000,305.010000,1124.280000,306.530000,1119.960000,306.530000L1082.490000,306.530000ZM1154.970000,306.530000L1154.970000,238.830000L1240.180000,238.830000C1244.490000,238.830000,1248.230000,240.350000,1251.260000,243.380000C1254.300000,246.530000,1255.820000,250.150000,1255.820000,254.470000L1255.820000,306.530000L1241.930000,306.530000L1241.930000,256.920000C1241.930000,254.940000,1241.690000,253.770000,1241.340000,253.300000C1240.870000,252.950000,1239.710000,252.720000,1237.720000,252.720000L1216.710000,252.720000C1214.730000,252.720000,1213.560000,252.950000,1213.210000,253.300000C1212.740000,253.770000,1212.510000,254.940000,1212.510000,256.920000L1212.510000,306.530000L1198.390000,306.530000L1198.390000,256.920000C1198.390000,254.940000,1198.150000,253.770000,1197.800000,253.300000C1197.450000,252.950000,1196.290000,252.720000,1194.300000,252.720000L1173.180000,252.720000C1171.190000,252.720000,1170.020000,252.950000,1169.670000,253.300000C1169.210000,253.770000,1168.970000,254.940000,1168.970000,256.920000L1168.970000,306.530000L1154.970000,306.530000Z" fill="rgb(0,0,0)" fill-rule="evenodd" stroke="none" stroke-width="1"/><g id="ecOtSU7j2Yz4"><path id="ecOtSU7j2Yz5" d="M185.820000,289.340000C177.420000,303.880000,175.780000,323.960000,157.020000,323.960000C138.250000,323.960000,136.600000,303.880000,128.210000,289.340000C100.110000,283.720000,74.920000,270.040000,55.160000,250.810000L69.570000,237.190000C92.260000,258.970000,123.070000,272.360000,157.020000,272.360000C190.960000,272.360000,221.770000,258.970000,244.450000,237.190000L258.860000,250.810000C239.100000,270.040000,213.920000,283.720000,185.820000,289.340000Z" fill="rgb(0,0,0)" stroke="none" stroke-width="1"/><path id="ecOtSU7j2Yz6" d="M196.770000,5.520000C221.120000,12.390000,242.900000,25.420000,260.300000,42.820000C262.470000,45,264.580000,47.240000,266.610000,49.550000C283.410000,49.550000,301.660000,40.930000,311.050000,57.180000C320.420000,73.430000,303.860000,84.890000,295.460000,99.430000C300.400000,114.090000,303.080000,129.790000,303.080000,146.110000C303.080000,158.480000,301.540000,170.500000,298.650000,181.970000L279.640000,176.300000C282.010000,166.630000,283.280000,156.520000,283.280000,146.110000C283.280000,111.240000,269.140000,79.670000,246.300000,56.830000C231.440000,41.980000,212.910000,30.810000,192.180000,24.810000L196.770000,5.520000Z" fill="rgb(0,0,0)" stroke="none" stroke-width="1"/><path id="ecOtSU7j2Yz7" d="M18.370000,99.910000C9.980000,85.370000,-6.590000,73.910000,2.790000,57.660000C12.180000,41.410000,30.420000,50.030000,47.220000,50.030000C49.260000,47.720000,51.360000,45.480000,53.540000,43.300000C70.940000,25.900000,92.710000,12.870000,117.070000,6L121.660000,25.290000C100.930000,31.290000,82.390000,42.460000,67.540000,57.310000C44.700000,80.150000,30.560000,111.720000,30.560000,146.590000C30.560000,157,31.830000,167.110000,34.200000,176.780000L15.190000,182.450000C12.300000,170.980000,10.760000,158.960000,10.760000,146.590000C10.760000,130.270000,13.430000,114.570000,18.370000,99.910000Z" fill="rgb(0,0,0)" stroke="none" stroke-width="1"/><path id="ecOtSU7j2Yz8" d="M227.240000,75.880000C245.220000,93.850000,256.330000,118.680000,256.330000,146.110000C256.330000,160.680000,253.190000,174.530000,247.550000,186.990000L288.450000,210.610000L278.620000,227.710000L237.670000,204.060000C234.530000,208.430000,231.040000,212.540000,227.240000,216.340000C209.260000,234.310000,184.430000,245.430000,157.020000,245.430000C129.590000,245.430000,104.760000,234.310000,86.780000,216.340000C82.990000,212.540000,79.500000,208.430000,76.360000,204.060000L35.410000,227.710000L25.580000,210.610000L66.480000,186.990000C60.840000,174.530000,57.690000,160.680000,57.690000,146.110000C57.690000,118.680000,68.810000,93.850000,86.780000,75.880000C102.570000,60.100000,123.640000,49.600000,147.110000,47.280000L147.110000,0.040000L166.920000,0.040000L166.920000,47.280000C190.390000,49.600000,211.460000,60.100000,227.240000,75.880000ZM213.230000,89.890000C198.850000,75.500000,178.970000,66.600000,157.020000,66.600000C135.060000,66.600000,115.180000,75.500000,100.790000,89.890000C86.400000,104.270000,77.500000,124.150000,77.500000,146.110000C77.500000,168.060000,86.400000,187.940000,100.790000,202.330000C115.180000,216.720000,135.060000,225.610000,157.020000,225.610000C178.970000,225.610000,198.850000,216.720000,213.230000,202.330000C227.630000,187.950000,236.530000,168.060000,236.530000,146.110000C236.530000,124.150000,227.630000,104.270000,213.230000,89.890000Z" fill="rgb(0,0,0)" fill-rule="evenodd" stroke="none" stroke-width="1"/><path id="ecOtSU7j2Yz9" d="M146.040000,141.810000L132.310000,194.950000L181.720000,194.950000L167.990000,141.810000C175.510000,137.860000,180.640000,129.970000,180.640000,120.890000C180.640000,107.850000,170.060000,97.270000,157.020000,97.270000C143.970000,97.270000,133.390000,107.850000,133.390000,120.890000C133.390000,129.970000,138.520000,137.860000,146.040000,141.810000Z" fill="rgb(0,0,0)" stroke="none" stroke-width="1"/></g></g></g><g id="ecOtSU7j2Yz10_to" transform="translate(662.250000,157.389455)"><path id="ecOtSU7j2Yz10" d="M234.340000,5C238.550000,4.950000,246.700000,6.430000,252.440000,8.290000C258.640000,10.310000,266.420000,14.890000,271.610000,19.570000C276.410000,23.910000,282.450000,31.670000,285.040000,36.820000C288.730000,44.190000,289.850000,49.770000,290.880000,79.730000L262.130000,79.730000L262.090000,68.710000C262.060000,61.830000,260.620000,54.630000,258.250000,49.540000C255.320000,43.240000,252.510000,40.530000,245.840000,37.560000C240.060000,35,235.150000,34.110000,230.980000,34.880000C227.560000,35.510000,222.810000,37.230000,220.440000,38.710000C218.070000,40.190000,214.620000,43.720000,212.770000,46.570000C210.660000,49.830000,209.070000,57.080000,207.500000,80.690000L179.710000,81.650000L179.670000,64.880000C179.640000,50.200000,180.330000,46.670000,185.230000,36.600000C188.720000,29.430000,193.950000,22.580000,199.120000,18.400000C203.680000,14.710000,211.740000,10.210000,217.040000,8.400000C222.340000,6.580000,230.120000,5.060000,234.340000,5ZM301.420000,94.110000L311.010000,99.140000C316.280000,101.910000,323.990000,107.950000,328.140000,112.560000C332.290000,117.170000,337.200000,124.390000,339.050000,128.610000C340.900000,132.830000,343.010000,141.880000,343.740000,148.730000C344.560000,156.450000,344.240000,163.930000,342.890000,168.380000C341.700000,172.330000,338.340000,177.320000,335.450000,179.470000C332.280000,181.810000,327.300000,183.340000,322.990000,183.300000C317.380000,183.250000,314.330000,181.760000,309.090000,176.530000C303.500000,170.930000,302.390000,168.460000,302.440000,161.670000C302.470000,156.330000,300.970000,151.220000,298.080000,146.820000C295.660000,143.130000,290.680000,138.600000,287.010000,136.760000C281.230000,133.850000,274.380000,133.410000,235.780000,133.400000C202.330000,133.400000,189.660000,134.060000,184.980000,136.030000C181.560000,137.470000,176.600000,140.990000,169.170000,149.040000L169.170000,254.090000L183.610000,268.530000L302.380000,269.490000L302.390000,250.800000C302.390000,235.490000,303.090000,230.990000,306.220000,225.880000C308.670000,221.890000,312.460000,218.960000,316.760000,217.740000C322.080000,216.220000,324.950000,216.510000,330.650000,219.170000C335.020000,221.210000,339.210000,225.160000,341.330000,229.240000C344.170000,234.710000,344.620000,238.680000,343.730000,250.800000C343.060000,259.860000,340.950000,269.520000,338.320000,275.560000C335.740000,281.490000,330.170000,289,324.420000,294.290000C318.920000,299.370000,310.760000,304.540000,305.260000,306.450000C296.940000,309.340000,287.670000,309.780000,235.300000,309.780000C183.710000,309.780000,173.520000,309.310000,165.330000,306.550000C158.740000,304.320000,152.420000,299.990000,145.050000,292.630000C137.390000,284.990000,133.300000,278.950000,130.670000,271.410000C127.360000,261.900000,127,255.050000,127,201.440000C127,150.380000,127.460000,140.680000,130.280000,132.440000C132.080000,127.170000,137.260000,118.640000,141.780000,113.490000C146.300000,108.340000,153.420000,102.380000,157.610000,100.250000C161.790000,98.120000,167.400000,95.700000,170.070000,94.880000C172.740000,94.050000,203.380000,93.540000,301.420000,94.110000ZM434.640000,100.930000C438.330000,100.840000,446.090000,102.160000,451.890000,103.860000C459.670000,106.140000,464.710000,109.270000,471.140000,115.860000C476.560000,121.400000,480.730000,127.860000,484.470000,141.070000L471.530000,141.070000C458.970000,141.070000,458.530000,140.910000,456.200000,135.320000C454.880000,132.160000,451.220000,128.270000,448.050000,126.690000C444.890000,125.110000,438.420000,123.820000,433.680000,123.820000C426.630000,123.820000,423.800000,124.950000,418.210000,130.050000C414.450000,133.470000,410.580000,139.290000,409.600000,142.980000C408.620000,146.670000,407.820000,154.650000,407.810000,160.710000C407.810000,166.780000,408.990000,174.540000,410.430000,177.960000C411.880000,181.390000,415.410000,186.350000,418.280000,188.990000C422.090000,192.490000,426.160000,193.970000,433.380000,194.480000C442.040000,195.100000,444.050000,194.510000,449.610000,189.690000C453.110000,186.670000,456.770000,181.390000,457.760000,177.960000C459.550000,171.760000,459.600000,171.730000,484.470000,171.730000L483.370000,178.920000C482.770000,182.880000,480.180000,189.780000,477.620000,194.260000C475.060000,198.740000,469.310000,205,464.830000,208.160000C460.350000,211.330000,452.370000,214.890000,447.100000,216.060000C441.810000,217.240000,433.220000,217.630000,427.930000,216.920000C422.660000,216.220000,414.070000,213.310000,408.840000,210.460000C403.610000,207.610000,396.420000,201.400000,392.870000,196.650000C389.320000,191.910000,385.070000,183.280000,383.430000,177.490000C381.460000,170.500000,380.790000,162.740000,381.450000,154.480000C382,147.630000,384.130000,138.140000,386.200000,133.400000C388.260000,128.660000,392.450000,121.860000,395.520000,118.290000C398.590000,114.720000,403.680000,110.480000,406.840000,108.860000C410.010000,107.240000,416.040000,104.830000,420.260000,103.500000C424.480000,102.160000,430.950000,101.010000,434.640000,100.930000ZM676.150000,101.760000C684.650000,102.490000,691.570000,104.480000,697.940000,108.050000C704.130000,111.510000,708.490000,115.700000,710.880000,120.460000C712.860000,124.420000,714.480000,129.810000,714.480000,132.440000C714.480000,137.060000,714.030000,137.230000,702.020000,137.230000C692.230000,137.230000,689.560000,136.620000,689.560000,134.360000C689.560000,132.780000,687.410000,129.330000,684.770000,126.690000C680.940000,122.860000,678.060000,121.900000,670.400000,121.900000C662.160000,121.900000,660.260000,122.640000,656.910000,127.170000C654.770000,130.070000,653.040000,133.090000,653.080000,133.880000C653.120000,134.670000,654.650000,136.870000,656.500000,138.770000C658.340000,140.660000,667.620000,144.150000,677.100000,146.520000C686.590000,148.890000,697.770000,152.720000,701.940000,155.050000C706.110000,157.370000,711.580000,162.300000,714.090000,165.980000C717.850000,171.520000,718.540000,174.600000,718.010000,183.550000C717.570000,190.760000,716.010000,196.230000,713.350000,199.840000C711.140000,202.830000,706.400000,207.230000,702.800000,209.620000C699.210000,212.020000,691.530000,214.920000,685.730000,216.080000C679.930000,217.230000,670.440000,217.630000,664.650000,216.960000C658.850000,216.300000,650.220000,213.770000,645.480000,211.350000C640.680000,208.910000,634.560000,203.610000,631.680000,199.410000C628.830000,195.260000,626.020000,188.630000,624.390000,177.490000L637.330000,177.960000C648.650000,178.380000,650.330000,178.920000,650.750000,182.280000C651.010000,184.390000,653.450000,188.270000,656.170000,190.900000C660.390000,194.990000,662.910000,195.690000,673.220000,195.690000C682.680000,195.690000,686.220000,194.860000,689.420000,191.860000C691.680000,189.750000,693.520000,186.300000,693.520000,184.190000C693.520000,182.090000,691.980000,178.920000,690.110000,177.160000C688.230000,175.400000,678.490000,171.660000,668.480000,168.860000C658.460000,166.050000,647.040000,161.890000,643.090000,159.600000C639.140000,157.310000,634.210000,152.420000,632.130000,148.730000C630.060000,145.040000,628.330000,139.220000,628.290000,135.800000C628.260000,132.370000,629.410000,126.760000,630.860000,123.340000C632.300000,119.910000,635.850000,114.950000,638.750000,112.320000C641.640000,109.680000,648.440000,105.990000,653.850000,104.110000C661.120000,101.590000,666.940000,100.970000,676.150000,101.760000ZM549.640000,104.650000L569.580000,158.800000C580.540000,188.580000,589.250000,213.380000,588.930000,213.900000C588.610000,214.430000,582.510000,214.430000,562.400000,212.940000L535.570000,134.360000L523.320000,168.860000L532.010000,169.820000C539.870000,170.690000,540.930000,171.410000,543.110000,177.490000C544.430000,181.170000,545.580000,185.700000,545.660000,187.550000C545.790000,190.480000,543.860000,190.900000,515.140000,190.900000L508.120000,212.940000L480.640000,213.900000L484.630000,203.840000C486.830000,198.310000,495.960000,174.370000,504.920000,150.650000C513.880000,126.930000,521.610000,106.880000,522.100000,106.090000C522.590000,105.300000,528.990000,104.650000,549.640000,104.650000ZM1036.270000,104.650000L1059.490000,104.650000L1059.490000,123.820000L1037.450000,122.860000L1036.270000,104.650000ZM1076.750000,110.400000L1099.750000,110.400000L1099.750000,121.900000C1099.750000,132.890000,1099.960000,133.400000,1104.540000,133.400000C1107.740000,133.400000,1109.880000,134.830000,1110.990000,137.710000C1111.900000,140.080000,1113.200000,143.970000,1113.870000,146.340000C1114.980000,150.290000,1114.450000,150.650000,1099.750000,150.650000L1099.710000,171.260000C1099.690000,185.370000,1100.450000,192.630000,1102.110000,194.290000C1103.450000,195.620000,1107.340000,196.700000,1110.770000,196.680000C1116.990000,196.650000,1117,196.660000,1116.040000,214.860000L1106.450000,215.480000C1101.180000,215.820000,1093.640000,215.180000,1089.680000,214.040000C1084.730000,212.630000,1081.600000,210.200000,1079.620000,206.240000C1077.510000,202.010000,1076.750000,193.880000,1076.750000,150.650000L1070.520000,150.170000C1064.610000,149.720000,1064.290000,149.300000,1064.290000,142.030000C1064.290000,134.750000,1064.610000,134.330000,1076.750000,133.400000L1076.750000,110.400000ZM761.440000,131.640000C764.600000,131.570000,770.640000,132.450000,774.860000,133.610000C779.490000,134.880000,785.600000,138.870000,790.270000,143.660000C795.450000,148.980000,798.790000,154.630000,800.340000,160.710000C801.610000,165.720000,802.650000,171.970000,802.650000,174.610000C802.650000,177.250000,801.360000,179.830000,799.780000,180.360000C798.190000,180.890000,785.260000,181.320000,745.150000,181.320000L746.260000,185.630000C746.870000,188,749.460000,191.880000,752.010000,194.260000C754.680000,196.740000,759.090000,198.570000,762.400000,198.570000C765.560000,198.570000,770.090000,197.580000,772.460000,196.370000C774.830000,195.160000,777.420000,193.010000,778.210000,191.580000C779.150000,189.890000,783.310000,188.990000,790.190000,188.990000C795.990000,188.990000,800.720000,189.630000,800.690000,190.420000C800.670000,191.210000,798.610000,195.310000,796.110000,199.530000C793.440000,204.020000,788.100000,209.110000,783.210000,211.810000C776.880000,215.310000,772.070000,216.400000,763.360000,216.320000C757.030000,216.250000,749.700000,215.370000,747.070000,214.340000C744.430000,213.320000,739.320000,210,735.720000,206.970000C732.110000,203.930000,727.600000,197.990000,725.700000,193.780000C723.590000,189.120000,722.230000,181.590000,722.230000,174.610000C722.230000,167.710000,723.600000,160.040000,725.660000,155.440000C727.540000,151.230000,732.270000,145.190000,736.160000,142.030000C740.060000,138.860000,746.040000,135.260000,749.470000,134.030000C752.890000,132.790000,758.280000,131.710000,761.440000,131.640000ZM748.030000,158.490000L745.150000,164.070000C770.400000,164.070000,777.760000,163.420000,777.800000,162.630000C777.840000,161.840000,776.110000,158.820000,773.970000,155.920000C770.870000,151.730000,768.590000,150.680000,762.880000,150.800000C758.930000,150.890000,754.620000,151.390000,753.300000,151.930000C751.990000,152.470000,749.620000,155.420000,748.030000,158.490000ZM851.530000,132.370000C858.820000,132.980000,865.830000,134.990000,870.700000,137.890000C875.130000,140.530000,879.780000,145.380000,881.720000,149.420000C883.560000,153.260000,885.070000,158.130000,885.070000,160.230000C885.070000,163.600000,883.790000,164.070000,874.530000,164.070000C864.490000,164.070000,863.800000,163.750000,860.150000,157.360000C856.920000,151.700000,855.270000,150.650000,849.610000,150.650000C845.920000,150.650000,841.490000,151.300000,839.760000,152.090000C838.030000,152.880000,835.350000,156.110000,833.800000,159.280000C832.250000,162.440000,830.980000,169.340000,830.980000,174.610000C830.970000,179.880000,831.810000,185.920000,832.850000,188.030000C833.890000,190.140000,836.140000,193.370000,837.860000,195.220000C839.580000,197.060000,843.140000,198.570000,845.780000,198.570000C848.410000,198.570000,852.750000,197.490000,855.410000,196.170000C858.060000,194.860000,861.080000,191.410000,862.110000,188.510000C863.880000,183.550000,864.670000,183.240000,875.490000,183.240000C881.810000,183.240000,887,183.450000,887.020000,183.710000C887.040000,183.980000,886.040000,187.210000,884.810000,190.900000C883.580000,194.590000,880.970000,199.980000,879.030000,202.880000C877.080000,205.780000,871.820000,209.990000,867.340000,212.250000C861.750000,215.060000,855.590000,216.340000,847.690000,216.350000C840.300000,216.360000,833.520000,215.070000,828.700000,212.740000C824.580000,210.740000,818.760000,206.310000,815.770000,202.880000C812.770000,199.460000,809.460000,193.420000,808.410000,189.460000C807.360000,185.510000,806.520000,178.830000,806.530000,174.610000C806.540000,170.390000,807.610000,163.560000,808.910000,159.420000C810.210000,155.280000,814.300000,148.540000,817.990000,144.460000C821.670000,140.370000,828.140000,135.770000,832.360000,134.220000C837.380000,132.390000,844,131.750000,851.530000,132.370000ZM1026.910000,132.040000C1031.360000,132.410000,1031.740000,133.240000,1032.660000,154.480000L1025.470000,154.220000C1021.520000,154.070000,1016.340000,154.940000,1013.970000,156.140000C1011.600000,157.340000,1008.370000,160.910000,1006.780000,164.070000C1004.730000,168.180000,1003.910000,176.100000,1003.910000,213.900000L980.910000,213.900000L980.910000,133.400000L1001.990000,133.400000L1001.910000,145.860000L1007.220000,140.700000C1010.140000,137.860000,1014.690000,134.660000,1017.330000,133.590000C1019.960000,132.520000,1024.270000,131.820000,1026.910000,132.040000ZM915.810000,133.400000L916.250000,162.320000C916.690000,190.630000,916.800000,191.330000,921.490000,195.080000C924.960000,197.860000,927.860000,198.590000,932.030000,197.730000C935.190000,197.080000,939.080000,195.250000,940.660000,193.660000C942.850000,191.460000,943.760000,184.110000,945.450000,134.360000L968.450000,134.360000L969.410000,213.900000L957.910000,213.900000C947.680000,213.900000,946.410000,213.480000,946.410000,210.070000C946.410000,206.260000,946.370000,206.260000,941.140000,210.170000C938.240000,212.340000,932.850000,214.870000,929.160000,215.810000C925.470000,216.740000,918.900000,216.910000,914.570000,216.190000C910.240000,215.460000,904.730000,213.140000,902.330000,211.030000C899.920000,208.920000,896.780000,204.390000,895.350000,200.970000C893.590000,196.770000,892.630000,185.160000,892.420000,165.350000C892.240000,149.180000,892.820000,135.380000,893.700000,134.680000C894.570000,133.980000,899.910000,133.400000,915.810000,133.400000ZM1036.490000,133.400000L1059.490000,133.400000L1059.490000,213.900000L1036.490000,213.900000L1036.490000,133.400000ZM1140.960000,134.360000L1149.390000,160.230000C1154.060000,174.580000,1158.320000,184.830000,1158.950000,183.240000C1159.570000,181.650000,1163.530000,170.010000,1175.460000,134.360000L1186.480000,133.880000C1195.210000,133.500000,1197.500000,134,1197.500000,136.280000C1197.500000,137.860000,1190.050000,159.200000,1180.940000,183.710000C1171.830000,208.220000,1162.990000,230.370000,1161.290000,232.910000C1159.600000,235.460000,1155.400000,238.700000,1151.980000,240.100000C1148.550000,241.510000,1141,242.650000,1124.660000,242.650000L1124.580000,220.610000L1130.370000,222.050000C1133.560000,222.840000,1137.670000,222.740000,1139.520000,221.830000C1141.360000,220.920000,1143.520000,218.770000,1144.310000,217.040000C1145.230000,215.040000,1140.540000,199.870000,1131.350000,175.090000C1123.430000,153.740000,1117.010000,135.590000,1117.070000,134.750000C1117.130000,133.910000,1122.530000,133.470000,1140.960000,134.360000ZM189.120000,146.820000L281.300000,146.820000L290.880000,158.320000L289.920000,257.030000L244.880000,257.600000C217.420000,257.960000,197.030000,257.390000,192.650000,256.170000C187.670000,254.770000,184.580000,252.390000,182.590000,248.400000C180.530000,244.290000,179.710000,236.370000,179.710000,220.610000C179.710000,199.910000,180,198.220000,189.290000,187.070000L261.170000,186.110000L262.130000,175.570000L179.710000,175.570000L179.800000,165.900000C179.870000,158.330000,180.890000,155.200000,184.500000,151.520000L189.120000,146.820000ZM208.460000,227.320000L262.130000,227.320000L262.130000,215.820000L208.460000,215.820000L208.460000,227.320000ZM425.530000,237.920000C430.540000,238.420000,437.220000,240.550000,440.390000,242.650000C443.550000,244.760000,447.500000,249.290000,449.160000,252.720000C450.830000,256.140000,451.690000,260.020000,451.080000,261.340000C450.470000,262.660000,447.170000,263.760000,443.740000,263.780000C439.010000,263.810000,436.470000,262.430000,433.200000,258.030000C429.820000,253.490000,427.420000,252.240000,422.090000,252.240000C417.370000,252.240000,413.860000,253.700000,410.590000,257.030000C406.650000,261.040000,405.890000,263.690000,405.890000,273.320000C405.890000,283.030000,406.630000,285.570000,410.680000,289.610000C414.350000,293.280000,417.150000,294.290000,422.630000,293.930000C428.360000,293.540000,430.570000,292.210000,433.650000,287.290000C436.860000,282.180000,438.730000,281.120000,444.700000,281.060000C450.900000,281,451.890000,281.580000,451.900000,285.300000C451.900000,287.670000,449.890000,292.630000,447.420000,296.320000C444.960000,300.010000,439.780000,304.540000,435.910000,306.390000C432.050000,308.230000,425.650000,309.760000,421.700000,309.780000C417.750000,309.800000,410.630000,307.780000,405.890000,305.280000C399.780000,302.070000,395.990000,298.280000,392.910000,292.310000C389.980000,286.620000,388.570000,280.580000,388.590000,273.800000C388.620000,268.270000,389.820000,260.940000,391.270000,257.510000C392.730000,254.080000,396.390000,248.910000,399.420000,246.020000C402.450000,243.130000,407.520000,239.920000,410.680000,238.890000C413.840000,237.860000,420.520000,237.430000,425.530000,237.920000ZM492.140000,236.920000C495.830000,236.940000,502.510000,238.670000,506.990000,240.760000C512.620000,243.390000,516.550000,247.090000,519.700000,252.720000C522.210000,257.200000,524.800000,263.670000,525.450000,267.090000C526.100000,270.520000,525.720000,277.420000,524.600000,282.430000C523.480000,287.430000,520.460000,294.330000,517.890000,297.760000C515.290000,301.230000,509.620000,305.350000,505.080000,307.060000C499.640000,309.110000,493.740000,309.790000,487.350000,309.100000C482.080000,308.520000,475.610000,306.420000,472.970000,304.410000C470.340000,302.400000,466.210000,297.820000,463.810000,294.230000C461.410000,290.640000,458.930000,284.680000,458.320000,280.990000C457.700000,277.300000,457.710000,270.830000,458.340000,266.610000C458.980000,262.400000,461.460000,255.930000,463.860000,252.240000C466.250000,248.550000,472.090000,243.580000,476.820000,241.200000C481.560000,238.820000,488.450000,236.890000,492.140000,236.920000ZM477.770000,260.080000C476.190000,263.150000,474.890000,269.110000,474.890000,273.320000C474.890000,277.540000,476.180000,283.580000,477.760000,286.740000C479.340000,289.900000,482.580000,292.980000,484.950000,293.580000C487.320000,294.180000,491.770000,294.390000,494.820000,294.060000C498.230000,293.690000,501.950000,291.350000,504.410000,288.040000C507.200000,284.280000,508.430000,279.770000,508.430000,273.320000C508.430000,266.870000,507.200000,262.360000,504.410000,258.610000C501.320000,254.460000,498.630000,253.110000,492.910000,252.820000C488.790000,252.620000,484.360000,252.910000,483.040000,253.480000C481.730000,254.040000,479.360000,257.010000,477.770000,260.080000ZM706.810000,237.810000C712.610000,238.350000,719.300000,240.090000,721.670000,241.680000C724.040000,243.270000,727.700000,247.370000,729.810000,250.800000C731.910000,254.230000,733.640000,258.540000,733.640000,260.380000C733.650000,263.020000,732.010000,263.740000,725.980000,263.740000C719.960000,263.740000,717.840000,262.810000,716.110000,259.430000C714.900000,257.050000,712.960000,254.480000,711.800000,253.710000C710.640000,252.930000,707.100000,252.250000,703.940000,252.190000C700.780000,252.130000,696.030000,253.760000,693.400000,255.820000C689.080000,259.200000,688.610000,260.930000,688.610000,273.320000C688.610000,285.720000,689.080000,287.450000,693.400000,290.820000C696.030000,292.880000,700.930000,294.530000,704.280000,294.490000C707.630000,294.440000,711.730000,293.110000,713.390000,291.530000C715.040000,289.950000,716.830000,286.930000,717.360000,284.820000C718.110000,281.790000,719.910000,280.990000,725.980000,280.990000C732.640000,280.990000,733.660000,281.560000,733.700000,285.300000C733.730000,287.670000,731.790000,292.550000,729.390000,296.130000C726.990000,299.710000,722,304.240000,718.310000,306.200000C714.620000,308.150000,708.370000,309.750000,704.420000,309.750000C700.460000,309.740000,694.430000,308.550000,691,307.100000C687.570000,305.650000,682.450000,301.980000,679.620000,298.960000C676.790000,295.930000,673.560000,291.080000,672.430000,288.180000C671.310000,285.280000,670.400000,278.590000,670.400000,273.320000C670.400000,268.050000,671.310000,261.370000,672.430000,258.470000C673.560000,255.570000,676.380000,250.640000,678.710000,247.520000C681.040000,244.390000,685.950000,240.710000,689.610000,239.330000C693.670000,237.800000,700.390000,237.210000,706.810000,237.810000ZM549.640000,238.820000L549.670000,261.340000C549.690000,275.640000,550.580000,285.610000,552.120000,288.660000C554.160000,292.680000,555.900000,293.450000,563.060000,293.450000C570.210000,293.450000,571.960000,292.680000,574,288.660000C575.530000,285.610000,576.430000,275.640000,576.480000,238.820000L591.810000,238.820000L591.880000,266.130000C591.940000,291.720000,591.670000,293.800000,587.560000,299.060000C585.150000,302.140000,580.380000,305.810000,576.950000,307.200000C573.530000,308.600000,567.060000,309.740000,562.580000,309.740000C558.100000,309.740000,551.480000,308.230000,547.860000,306.380000C544.250000,304.540000,539.500000,300.590000,537.320000,297.610000C533.960000,293.030000,533.200000,288.510000,532.410000,268.450000C531.890000,255.380000,532.080000,243.380000,532.840000,241.760000C533.740000,239.830000,536.870000,238.820000,549.640000,238.820000ZM603.310000,238.820000L619.600000,238.680000L644.520000,279.170000L646.440000,239.780000L662.730000,238.820000L662.730000,307.820000L644.840000,306.870000L633.620000,288.660000C627.460000,278.640000,621.550000,269.580000,620.490000,268.530000C619.220000,267.250000,618.590000,273.500000,618.640000,307.820000L603.310000,307.820000L603.310000,238.820000ZM743.460000,238.600000L759.520000,239.780000L759.520000,306.870000L743.230000,307.820000L743.350000,273.210000L743.460000,238.600000ZM770.070000,238.820000L787.320000,238.820000L787.320000,294.410000L819.900000,294.410000L819.900000,307.820000L770.070000,307.820000L770.070000,238.820000Z" transform="translate(-662.250000,-157.389455)" fill="rgb(21,97,137)" fill-rule="evenodd" stroke="none" stroke-width="1"/></g></svg>