<svg version="1.2" xmlns="http://www.w3.org/2000/svg" viewBox="0 0 281 181">
	<title>01 Communique</title>
	<style>
		.s0 { fill: #5b70ab } 
		.s1 { fill: #00458d } 
		.s2 { fill: #9aa4cc } 
		.s3 { fill: #ffffff } 
	</style>
	<g id="Layer">
		<g id="Layer">
			<g id="Layer">
				<g id="Layer">
					<path id="Layer" class="s0" d="m210.3 98.9l5.4 6.3c15.6-13.3 44.8-37.2 64.9-48l-3.9-7.3c-20.8 11.2-50.5 35.5-66.4 49z"/>
					<path id="Layer" class="s0" d="m0.5 124.1l55.8-37.7 4.6 6.8-55.8 37.7z"/>
				</g>
				<path id="Layer" class="s1" d="m42.9 0.3h198.5v138.9h-198.5z"/>
				<path id="Layer" class="s2" d="m141 30.9c0 0-30.4 37.9-47.1 58.7 4.7-14.4 15-45.9 15-45.9 0 0-29.2 29.3-41.1 41.1 2.1-6.7 7.5-24.5 7.5-24.5l-74.8 49.7 4.6 6.9c0 0 41.5-27.6 55.5-36.9-2.6 8.6-10.5 34.1-10.5 34.1 0 0 28.2-28.2 40.2-40.2-4.9 15.1-18.3 56.1-18.3 56.1 0 0 40.1-50 58-72.2-7.3 18.2-21.6 53.6-21.6 53.6 0 0 30.1-25.9 41.9-36.1-4.8 13.9-18.3 53-18.3 53 0 0 31.1-35.8 46.4-53.5-6.6 13.8-22.2 46.1-22.2 46.1 0 0 35.8-31.8 47.4-42.2-2 8.1-7.3 29.4-7.3 29.4l10-8.9c0.5-0.4 46.4-41.2 74.3-56.1l-3.9-7.3c-21 11.2-50.7 35.6-66 48.6 2-8.2 7.4-29.6 7.4-29.6 0 0-24.2 21.5-36.6 32.5 7.9-16.4 31.1-64.6 31.1-64.6 0 0-43.8 50.5-58.9 67.9 4.6-13.3 14.4-41.6 14.4-41.6 0 0-27.4 23.6-39.4 33.9 7.2-17.8 29.7-73.8 29.7-73.8z"/>
				<path id="Layer" fill-rule="evenodd" class="s3" d="m113 125.8c-29.6 0-37-29.8-37-50.9 0-32.6 12.1-57 39.2-57 29.8 0 37 29.9 37 50.8 0 32.8-12.6 57.2-39.2 57.1zm-0.8-101.7c-12 0-19.8 16-19.8 45.6 0 24.1 6.3 50 23.1 50 12.1 0 20.1-16.3 20.1-45.6 0-23.8-6.7-50-23.4-50z"/>
				<path id="Layer" class="s3" d="m176 60.2c0-7.4-0.1-13.4-0.1-18 0-3.3 0-5-2.1-5-2.6 0-12.9 5.4-16 6.6-0.7 0.3-1.4 0.6-1.9 0.6-0.4 0-1-0.7-1-1.5 0-0.8 0.7-1.5 1.4-1.9 0.6-0.3 26.9-17.6 31.8-21.2 1.1-0.8 2.5-1.8 3.6-1.8 1.2 0 1.5 1.5 1.5 2.9 0 1.1-0.7 14.7-0.7 35.8v25.5c0 13.2 0 24.9 0.6 31 0.4 4.4 1.1 6.5 5.5 7.4 2.1 0.4 8 0.8 9.1 0.8 0.6 0 1.1 0.4 1.1 1.4 0 1-0.7 1.2-2.2 1.2-10.5 0-19.3-0.4-23-0.4-3.2 0-14.7 0.4-23.5 0.4-1.5 0-2.2-0.3-2.2-1.2 0-1 0.6-1.4 1.1-1.4 1.5 0 8.4-0.4 11-1 4.3-1 5.1-2.9 5.5-7.3 0.5-6.1 0.5-17.8 0.5-31z"/>
				<g id="Layer">
					<path id="Layer" class="s1" d="m45.1 164.3c-2.3-2.1-2.9-4.9-2.9-7.2 0-1.6 0.6-4.4 2.7-6.6 1.5-1.5 3.7-2.6 7.4-2.6 1 0 2.3 0.1 3.5 0.3 0.9 0.2 1.7 0.3 2.5 0.4 0.3 0 0.3 0.1 0.3 0.3 0 0.2-0.1 0.5-0.1 1.4 0 0.8 0 2.1-0.1 2.5 0 0.4-0.1 0.5-0.2 0.5-0.2 0-0.2-0.2-0.2-0.5 0-0.9-0.4-1.9-1-2.5-0.8-0.7-2.7-1.4-4.8-1.4-3.2 0-4.7 0.9-5.6 1.8-1.8 1.7-2.2 3.8-2.2 6.3 0 4.6 3.6 8.8 8.7 8.8 1.8 0 3.2-0.2 4.2-1.2 0.5-0.5 0.8-1.6 0.9-2 0-0.3 0.1-0.4 0.2-0.4 0.1 0 0.2 0.2 0.2 0.4 0 0.2-0.3 2.3-0.5 3.1-0.1 0.5-0.2 0.5-0.6 0.7-1 0.4-2.8 0.6-4.4 0.6-3.6-0.1-6.1-1-8-2.7z"/>
					<path id="Layer" fill-rule="evenodd" class="s1" d="m70.9 147.9c5.4 0 9.5 3.5 9.5 9.1 0 5.4-3.8 9.9-9.6 9.9-6.6 0-9.4-5.1-9.4-9.5 0-3.9 2.9-9.4 9.5-9.5zm0.5 18c2.2 0 6.7-1.3 6.7-8.3 0-5.8-3.5-8.9-7.3-8.9-4.1 0-7.1 2.7-7.1 8 0 5.7 3.4 9.3 7.7 9.2z"/>
					<path id="Layer" class="s1" d="m104 163.5c0.1 0.9 0.3 2.2 1.3 2.6 0.7 0.2 1.3 0.2 1.6 0.2 0.1 0 0.2 0 0.2 0.1 0 0.1-0.2 0.2-0.5 0.2-0.5 0-3.1-0.1-4-0.1-0.6-0.1-0.7-0.1-0.7-0.2 0-0.1 0-0.1 0.2-0.2 0.1 0 0.1-0.4 0.1-0.9l-1.2-12.5h-0.1l-5.9 12.6c-0.5 1.1-0.6 1.3-0.8 1.3-0.2 0-0.3-0.2-0.8-1.1-0.6-1.2-2.7-5.4-2.8-5.6-0.2-0.4-2.9-6.2-3.2-6.9h-0.1l-1 11.2q0 0.6 0 1.2c0 0.4 0.3 0.7 0.6 0.7 0.4 0.1 0.8 0.1 0.9 0.1 0.1 0 0.2 0 0.2 0.1 0 0.2-0.1 0.2-0.4 0.2-0.9 0-2.1-0.1-2.2-0.1-0.2 0-1.4 0.1-2 0.1-0.2 0-0.4 0-0.4-0.2 0-0.1 0.1-0.1 0.2-0.1 0.2 0 0.4 0 0.7-0.1 0.8-0.1 0.9-1.1 1-2l1.7-15.8c0-0.3 0.1-0.4 0.3-0.4 0.1 0 0.2 0.1 0.4 0.4l7.4 15.2 7.1-15.2c0.1-0.2 0.2-0.4 0.4-0.4 0.2 0 0.2 0.2 0.3 0.7z"/>
					<path id="Layer" class="s1" d="m129.4 163.5c0.1 0.9 0.3 2.2 1.3 2.6 0.7 0.2 1.3 0.2 1.6 0.2 0.1 0 0.2 0 0.2 0.1 0 0.1-0.2 0.2-0.5 0.2-0.5 0-3.1-0.1-4-0.1-0.6-0.1-0.7-0.1-0.7-0.2 0-0.1 0-0.1 0.2-0.2 0.1 0 0.1-0.4 0.1-0.9l-1.2-12.5h-0.1l-5.9 12.6c-0.5 1.1-0.6 1.3-0.8 1.3-0.2 0-0.3-0.2-0.7-1.1-0.6-1.2-2.7-5.4-2.8-5.6-0.2-0.4-2.9-6.2-3.2-6.9h-0.1l-1 11.2q0 0.6 0 1.2c0 0.4 0.3 0.7 0.6 0.7 0.4 0.1 0.8 0.1 0.9 0.1 0.1 0 0.2 0 0.2 0.1 0 0.2-0.1 0.2-0.4 0.2-0.9 0-2.1-0.1-2.2-0.1-0.2 0-1.4 0.1-2 0.1-0.2 0-0.4 0-0.4-0.2 0-0.1 0.1-0.1 0.2-0.1 0.2 0 0.4 0 0.7-0.1 0.8-0.1 0.9-1.1 1-2l1.7-15.8c0-0.3 0.1-0.4 0.3-0.4 0.1 0 0.2 0.1 0.4 0.4l7.4 15.2 7.1-15.2c0.1-0.2 0.2-0.4 0.4-0.4 0.2 0 0.2 0.2 0.3 0.7z"/>
					<path id="Layer" class="s1" d="m135.5 155.3c0-3.8 0-4.4 0-5.2 0-0.8-0.2-1.2-1-1.4-0.2 0-0.6-0.1-0.8-0.1-0.1 0-0.2 0-0.2-0.1 0-0.1 0.1-0.2 0.4-0.2 1.1 0 2.6 0.1 2.8 0.1 0.2 0 1.7-0.1 2.4-0.1 0.3 0 0.4 0 0.4 0.2 0 0.1-0.1 0.1-0.2 0.1-0.2 0-0.3 0-0.6 0.1-0.7 0.1-0.8 0.5-0.9 1.4 0 0.8 0 1.5 0 5.2v3.4c0 3.5 0.8 5 1.8 6 1.2 1.1 2.3 1.3 3.7 1.3 1.5 0 2.9-0.7 3.8-1.7 1.1-1.4 1.4-3.4 1.4-5.9v-3c0-3.8 0-4.4 0-5.2 0-0.8-0.2-1.2-1-1.4-0.2 0-0.6-0.1-0.8-0.1-0.1 0-0.2 0-0.2-0.1 0-0.1 0.1-0.2 0.4-0.2 1.1 0 2.4 0.1 2.6 0.1 0.2 0 1.3-0.1 2-0.1 0.3 0 0.4 0 0.4 0.2 0 0.1-0.1 0.1-0.2 0.1-0.2 0-0.3 0-0.6 0.1-0.7 0.1-0.8 0.5-0.9 1.4 0 0.8 0 1.5 0 5.2v2.6c0 2.6-0.3 5.5-2.2 7.2-1.7 1.5-3.6 1.8-5 1.8-0.8 0-3.3-0.1-5-1.7-1.2-1.1-2.1-2.8-2.1-6.4v-3.6z"/>
					<path id="Layer" class="s1" d="m157.6 163.3c0 2 0.3 2.6 0.9 2.8 0.5 0.1 1 0.1 1.2 0.1 0.1 0 0.2 0 0.2 0.1 0 0.1-0.1 0.2-0.4 0.2-1.4 0-2.3-0.1-2.6-0.1-0.2 0-1.2 0.1-2.3 0.1-0.2 0-0.4 0-0.4-0.2 0-0.1 0.1-0.1 0.2-0.1 0.2 0 0.6 0 1-0.1 0.6-0.2 0.7-0.9 0.7-3.1v-13.9c0-0.9 0.1-1.2 0.3-1.2 0.2 0 0.6 0.5 0.8 0.8 0.4 0.4 4 4.3 7.7 8.3 2.4 2.6 5 5.5 5.8 6.3l-0.3-12.3c0-1.6-0.2-2.1-0.9-2.3-0.4-0.1-1-0.1-1.2-0.1-0.2 0-0.2-0.1-0.2-0.2 0-0.1 0.2-0.2 0.5-0.2 1.1 0 2.2 0.1 2.5 0.1 0.3 0 1.1-0.1 2.1-0.1 0.3 0 0.4 0 0.4 0.2 0 0.1-0.1 0.2-0.3 0.2-0.1 0-0.3 0-0.6 0.1-0.8 0.2-0.9 0.7-0.9 2.2v14.2c0 1.6 0 1.7-0.2 1.7-0.2 0-0.5-0.3-1.8-1.5-0.3-0.2-3.7-3.8-6.3-6.6-2.8-3-5.5-6.1-6.3-6.9z"/>
					<path id="Layer" class="s1" d="m181.8 159.6c0 2.3 0 4.2 0.1 5.2 0.1 0.7 0.2 1.2 0.9 1.3 0.3 0 0.9 0.1 1.1 0.1 0.1 0 0.2 0.1 0.2 0.1 0 0.1-0.1 0.2-0.4 0.2-1.3 0-2.9-0.1-3-0.1-0.1 0-1.6 0.1-2.4 0.1-0.3 0-0.4 0-0.4-0.2 0-0.1 0-0.1 0.2-0.1 0.2 0 0.5 0 0.7-0.1 0.5-0.1 0.6-0.6 0.7-1.3 0.1-1 0.1-2.9 0.1-5.2v-4.3c0-3.8 0-4.4 0-5.2 0-0.8-0.3-1.2-0.8-1.4-0.3-0.1-0.6-0.1-0.8-0.1-0.1 0-0.2 0-0.2-0.1 0-0.1 0.1-0.2 0.4-0.2 0.8 0 2.3 0.1 2.4 0.1 0.1 0 1.6-0.1 2.4-0.1 0.3 0 0.4 0 0.4 0.2 0 0.1-0.1 0.1-0.2 0.1-0.2 0-0.3 0-0.6 0.1-0.7 0.1-0.8 0.5-0.9 1.4 0 0.8 0 1.5 0 5.2v4.3z"/>
					<path id="Layer" fill-rule="evenodd" class="s1" d="m200.5 166c-0.9 0.4-2.5 0.8-3.8 0.8-6.7 0-9.5-5.1-9.5-9.5 0-4 2.8-9.5 9.5-9.5 5.4 0 9.5 3.5 9.5 9.1 0 4.2-2.7 7.1-4.3 8.1l5 2.6c5.3 2.8 9 2.9 10.2 2.9 1.2 0 3.1-0.2 4.8-0.9 0.1-0.1 0.2-0.1 0.3-0.1 0.1 0 0.1 0 0.1 0.1 0 0.1-0.1 0.1-0.2 0.2-1.4 0.7-4.1 1.7-7.7 1.7-3 0-6.1-1-10-3.2zm-3.4-0.1c2.2 0 6.7-1.3 6.7-8.3 0-5.8-3.5-8.9-7.3-8.9-4.1 0-7.1 2.7-7.1 8 0 5.7 3.4 9.3 7.7 9.2z"/>
					<path id="Layer" class="s1" d="m210.7 155.3c0-3.8 0-4.4 0-5.2 0-0.8-0.2-1.2-1-1.4-0.2 0-0.6-0.1-0.8-0.1-0.1 0-0.2 0-0.2-0.1 0-0.1 0.1-0.2 0.4-0.2 1.1 0 2.6 0.1 2.8 0.1 0.2 0 1.7-0.1 2.4-0.1 0.3 0 0.4 0 0.4 0.2 0 0.1-0.1 0.1-0.2 0.1-0.2 0-0.3 0-0.6 0.1-0.7 0.1-0.8 0.5-0.9 1.4 0 0.8 0 1.5 0 5.2v3.4c0 3.5 0.8 5 1.8 6 1.2 1.1 2.3 1.3 3.7 1.3 1.5 0 2.9-0.7 3.8-1.7 1.1-1.4 1.4-3.4 1.4-5.9v-3c0-3.8 0-4.4 0-5.2 0-0.8-0.2-1.2-1-1.4-0.2 0-0.6-0.1-0.8-0.1-0.1 0-0.2 0-0.2-0.1 0-0.1 0.1-0.2 0.4-0.2 1.1 0 2.4 0.1 2.6 0.1 0.2 0 1.3-0.1 2-0.1 0.3 0 0.4 0 0.4 0.2 0 0.1-0.1 0.1-0.2 0.1-0.2 0-0.3 0-0.6 0.1-0.7 0.1-0.8 0.5-0.9 1.4 0 0.8 0 1.5 0 5.2v2.6c0 2.6-0.3 5.5-2.2 7.2-1.7 1.5-3.6 1.8-5 1.8-0.8 0-3.3-0.1-5-1.7-1.2-1.1-2.1-2.8-2.1-6.4v-3.6z"/>
					<path id="Layer" class="s1" d="m232.2 155.3c0-3.8 0-4.4 0-5.2 0-0.8-0.2-1.2-1-1.4-0.2 0-0.6-0.1-0.8-0.1-0.1 0-0.2 0-0.2-0.1 0-0.1 0.1-0.2 0.4-0.2 1.1 0 2.6 0.1 2.7 0.1 0.2 0 5 0 5.5 0 0.5 0 0.8-0.1 1-0.1 0.1 0 0.2-0.1 0.3-0.1 0.1 0 0.1 0.1 0.1 0.2 0 0.2-0.1 0.5-0.2 1.1 0 0.2-0.1 1.3-0.1 1.6 0 0.1-0.1 0.3-0.2 0.3-0.1 0-0.2-0.1-0.2-0.3 0-0.2 0-0.6-0.1-0.9-0.2-0.4-0.4-0.7-1.7-0.8-0.4 0-3-0.1-3.3-0.1-0.1 0-0.1 0.1-0.1 0.2v6.7c0 0.2 0 0.2 0.1 0.2 0.3 0 3.3 0 3.8 0 0.6 0 0.9-0.1 1.1-0.3 0.2-0.2 0.3-0.3 0.4-0.3 0.1 0 0.1 0 0.1 0.2 0 0.1-0.1 0.6-0.2 1.4 0 0.5-0.1 1.4-0.1 1.5 0 0.2 0 0.5-0.2 0.5-0.1 0-0.2-0.1-0.2-0.2 0-0.2 0-0.5-0.1-0.8-0.1-0.3-0.3-0.7-1.3-0.8-0.7-0.1-3-0.1-3.5-0.1-0.1 0-0.2 0.1-0.2 0.2v2.1c0 0.8 0 3.6 0 4.1 0.1 1.7 0.4 2 2.8 2 0.6 0 1.7 0 2.3-0.3 0.6-0.3 0.9-0.8 1.1-1.7 0-0.3 0.1-0.4 0.2-0.4 0.1 0 0.1 0.2 0.1 0.4 0 0.2-0.2 1.8-0.3 2.3-0.2 0.6-0.4 0.6-1.3 0.6-3.7 0-5.3-0.1-6-0.1-0.1 0-1.6 0.1-2.4 0.1-0.3 0-0.4 0-0.4-0.2 0-0.1 0-0.1 0.2-0.1 0.2 0 0.5 0 0.7-0.1 0.5-0.1 0.6-0.6 0.7-1.3 0.1-1 0.1-2.9 0.1-5.2v-4.6z"/>
				</g>
				<path id="Layer" class="s1" d="m42.7 177.4h197.5v2.7h-197.5z"/>
				<g id="Layer">
					<path id="Layer" class="s3" d="m228.2 133.9h-1v-4.1h-1.5v-0.9h4.1v0.9h-1.5v4.1z"/>
					<path id="Layer" class="s3" d="m235.3 133.9h-1v-4.2l-0.9 4.2h-1l-0.9-4.2v4.2h-1v-5h1.5l0.9 4 0.9-4h1.5z"/>
				</g>
			</g>
		</g>
	</g>
</svg>
