<svg version="1.1" id="Layer_1"
	xmlns="http://www.w3.org/2000/svg"
	xmlns:xlink="http://www.w3.org/1999/xlink" x="0px" y="0px" viewBox="0 0 2334 1498" enable-background="new 0 0 2334 1498" xml:space="preserve">
	<path fill="#FFFFFF" opacity="1.000000" stroke="none" d="
M352.000000,1499.000000 
	C235.060684,1499.000000 118.121368,1499.000000 1.000000,1499.000000 
	C1.000000,1344.640869 1.000000,1190.281738 1.331000,1035.566406 
	C14.079755,1053.546143 26.497511,1071.881958 39.129623,1090.534180 
	C40.898922,1089.483521 42.327015,1088.733521 43.652542,1087.832520 
	C52.308350,1081.949341 60.911617,1075.988281 69.588577,1070.136475 
	C93.431190,1054.056885 117.325638,1038.053833 141.154404,1021.953674 
	C164.724030,1006.028503 188.214493,989.986267 211.783676,974.060486 
	C234.800888,958.507751 257.894531,943.068115 280.913666,927.518250 
	C292.837921,919.463196 304.622742,911.201294 316.563507,903.171143 
	C328.616425,895.065552 340.784332,887.130798 352.941467,879.580811 
	C352.981049,972.955872 352.981049,1065.871460 352.981049,1158.715576 
	C904.999207,1158.715576 1456.364258,1158.715576 2008.008545,1158.715576 
	C2008.008545,1156.621338 2008.008545,1154.811646 2008.008545,1153.001831 
	C2008.008545,1076.508423 2008.008545,1000.015076 2008.008545,923.521729 
	C2008.008545,850.694702 2008.022827,777.867737 2007.957275,705.040771 
	C2007.954712,702.078735 2008.484253,699.979065 2011.062500,698.016541 
	C2023.554321,688.508057 2035.727295,678.579346 2048.250977,669.113831 
	C2066.081299,655.637268 2083.994141,642.262329 2102.096436,629.154297 
	C2132.464844,607.164490 2162.593018,584.805359 2193.595215,563.739136 
	C2226.311523,541.507935 2259.768555,520.348083 2293.238525,499.253937 
	C2306.697998,490.771118 2321.052734,483.708801 2335.000000,476.000000 
	C2335.000000,816.893982 2335.000000,1157.787964 2335.000000,1499.000000 
	C2223.307617,1499.000000 2111.614990,1499.000000 1999.461182,1498.531372 
	C1999.000000,1490.794067 1999.000000,1483.525391 1999.000000,1476.290527 
	C1449.700073,1476.290527 900.990540,1476.290527 352.000000,1476.290527 
	C352.000000,1484.052124 352.000000,1491.526001 352.000000,1499.000000 
M1718.002197,1394.503052 
	C1705.355103,1387.938477 1692.708008,1381.373901 1681.014648,1375.304321 
	C1686.941284,1369.054077 1693.718750,1363.373413 1698.676880,1356.399170 
	C1712.876831,1336.425171 1717.996948,1314.302002 1713.144653,1289.847290 
	C1708.515137,1266.515747 1695.474121,1249.615479 1674.565918,1239.486938 
	C1656.563965,1230.766357 1637.248047,1228.996826 1617.302856,1232.865845 
	C1596.616699,1236.878662 1580.476929,1247.659790 1569.204590,1264.866211 
	C1555.690063,1285.495483 1551.733887,1308.293335 1558.005615,1332.510254 
	C1566.863037,1366.710815 1591.543945,1386.529785 1625.602417,1389.860229 
	C1637.863037,1391.059326 1650.228149,1390.083496 1661.785278,1384.994385 
	C1665.411621,1383.397583 1668.338623,1384.525146 1671.426147,1386.124512 
	C1691.966064,1396.765503 1712.309326,1407.816162 1733.136719,1417.862183 
	C1747.700073,1424.886719 1763.457275,1428.377319 1779.699585,1428.973022 
	C1797.017822,1429.608154 1813.901611,1426.663818 1830.404907,1421.729492 
	C1836.916870,1419.782471 1843.078735,1416.664429 1849.400024,1414.079590 
	C1849.215210,1413.271484 1849.030518,1412.463257 1848.845703,1411.655151 
	C1846.975098,1411.759766 1844.936279,1411.412720 1843.259644,1412.037598 
	C1821.478882,1420.155151 1799.281128,1421.023926 1776.680908,1416.316406 
	C1756.264038,1412.063721 1737.177612,1404.243774 1718.002197,1394.503052 
M724.738098,1382.999878 
	C718.071289,1381.715942 716.878723,1380.499146 717.033875,1374.133545 
	C717.226990,1366.205688 717.611816,1358.280884 718.026001,1350.360596 
	C718.240356,1346.262817 718.661926,1342.174316 719.050293,1338.087402 
	C720.352173,1324.386719 721.701965,1310.690552 722.991394,1296.988647 
	C723.664429,1289.837524 724.249390,1282.678101 724.963013,1274.504517 
	C734.662598,1295.079712 743.621338,1314.625732 753.058167,1333.937866 
	C761.319702,1350.845093 770.090881,1367.503906 778.702332,1384.238892 
	C780.549927,1387.829468 782.551697,1387.900024 784.723694,1384.636719 
	C785.257324,1383.834961 785.581482,1382.893311 785.997498,1382.013916 
	C795.691772,1361.519043 805.399658,1341.030640 815.071106,1320.525024 
	C818.105713,1314.091064 820.993469,1307.588013 824.034607,1301.157227 
	C828.431152,1291.859985 832.906067,1282.599854 837.662781,1272.665771 
	C839.169983,1286.695679 840.725586,1299.831421 841.954285,1312.997559 
	C843.144653,1325.752808 843.927246,1338.545654 845.037109,1351.309082 
	C845.460510,1356.178101 847.100769,1361.072021 846.741333,1365.845581 
	C846.283142,1371.930054 850.566101,1378.524902 844.582214,1384.380127 
	C845.498108,1384.740356 846.028809,1385.098389 846.585083,1385.144043 
	C850.658691,1385.477417 854.733215,1385.852051 858.815369,1386.018433 
	C868.237244,1386.402466 877.662598,1386.737183 887.089844,1386.897095 
	C888.015686,1386.912720 888.964355,1385.580078 889.902466,1384.873291 
	C888.878235,1384.249756 887.911011,1383.477539 886.809692,1383.055054 
	C886.083008,1382.776489 885.163391,1383.002686 884.330200,1382.999634 
	C872.108887,1382.955322 866.217285,1377.561157 864.992493,1365.348389 
	C864.339355,1358.835693 863.698975,1352.320435 862.925720,1345.821533 
	C861.672180,1335.285767 860.211182,1324.774048 859.034424,1314.230103 
	C858.179504,1306.569580 857.744812,1298.863037 856.939148,1291.196167 
	C855.709351,1279.491699 854.294739,1267.806763 853.009888,1256.108032 
	C852.276917,1249.434082 851.826660,1242.722290 850.849182,1236.086426 
	C850.584656,1234.290527 848.863281,1232.709229 847.810486,1231.029419 
	C846.544495,1232.324585 844.831116,1233.403320 844.083069,1234.949097 
	C837.947144,1247.630249 831.957336,1260.382690 825.987000,1273.143188 
	C812.493347,1301.983521 799.036316,1330.840820 785.338196,1360.175659 
	C782.723755,1354.367798 780.411682,1348.852783 777.794189,1343.486816 
	C769.260376,1325.992188 760.603577,1308.557739 752.019531,1291.087524 
	C749.303955,1285.560669 746.668396,1279.994385 743.996521,1274.446045 
	C737.528137,1261.013794 731.127747,1247.547729 724.491577,1234.198853 
	C723.791931,1232.791504 721.704651,1232.073975 720.261108,1231.036377 
	C719.507446,1232.673950 718.284668,1234.255737 718.081604,1235.958862 
	C717.208679,1243.280762 716.759155,1250.652710 715.923523,1257.979736 
	C714.721313,1268.521118 713.205017,1279.026855 712.031799,1289.571167 
	C710.872314,1299.991699 710.055969,1310.450073 708.936584,1320.875488 
	C707.715576,1332.247437 706.373291,1343.607056 704.978760,1354.959229 
	C704.185059,1361.419800 703.555359,1367.936035 702.177002,1374.280518 
	C700.476562,1382.107544 699.594849,1382.397095 691.749695,1383.103638 
	C690.307678,1383.233521 688.986633,1384.706055 687.609680,1385.558960 
	C687.870117,1385.975342 688.130615,1386.391846 688.391052,1386.808350 
	C702.510986,1386.808350 716.630859,1386.808350 730.823730,1386.808350 
	C731.362976,1382.100586 728.044678,1383.175781 724.738098,1382.999878 
M939.943726,1242.603271 
	C938.537292,1239.515503 937.307312,1236.326904 935.632812,1233.392090 
	C935.009460,1232.299561 933.363708,1231.275635 932.150574,1231.235229 
	C931.466980,1231.212524 930.239258,1233.189819 930.070068,1234.381714 
	C928.925354,1242.449341 927.921265,1250.539307 927.022644,1258.638916 
	C926.227661,1265.805176 925.739807,1273.005981 924.916077,1280.168579 
	C923.704102,1290.706543 922.211121,1301.212646 921.034485,1311.754272 
	C920.179626,1319.413452 919.769165,1327.122070 918.933838,1334.783936 
	C917.730347,1345.822021 915.965698,1356.809937 915.099182,1367.870850 
	C914.223450,1379.049683 912.753601,1381.080566 901.784363,1383.101440 
	C900.586060,1383.322021 899.631104,1384.863647 898.563293,1385.792480 
	C898.829895,1386.194336 899.096497,1386.596069 899.363098,1386.997925 
	C912.838501,1386.997925 926.314209,1387.036377 939.788757,1386.929932 
	C940.944885,1386.920776 942.093384,1385.949707 943.245422,1385.425659 
	C941.155823,1383.776245 939.322144,1383.151855 937.458130,1383.041992 
	C930.473938,1382.630615 927.760925,1380.201172 928.062439,1373.415161 
	C928.493042,1363.723999 929.207153,1354.039062 930.062927,1344.374756 
	C931.247314,1330.999268 932.760376,1317.653076 933.972168,1304.279663 
	C934.866699,1294.407837 935.504883,1284.512817 936.313477,1273.890015 
	C937.233276,1275.646606 937.854126,1276.719482 938.372681,1277.839600 
	C946.595947,1295.602173 954.524658,1313.507812 963.098389,1331.099243 
	C971.697815,1348.743408 980.901917,1366.094116 989.963989,1383.509399 
	C990.698242,1384.920654 992.240234,1386.357910 993.689270,1386.756348 
	C994.380798,1386.946533 996.096497,1384.899170 996.731750,1383.570435 
	C1001.757080,1373.057983 1006.598877,1362.458130 1011.562866,1351.916016 
	C1023.424744,1326.725342 1035.317261,1301.549072 1047.228394,1276.381470 
	C1047.650879,1275.488770 1048.402100,1274.751709 1049.329102,1273.496826 
	C1050.271606,1281.784546 1051.292480,1289.345215 1051.961914,1296.936768 
	C1053.403809,1313.288086 1054.609619,1329.660034 1056.033447,1346.012939 
	C1056.471680,1351.046631 1057.992065,1356.073364 1057.795044,1361.054932 
	C1057.490234,1368.754883 1061.789917,1376.627563 1056.331421,1384.718384 
	C1071.532959,1387.681396 1086.201294,1386.955566 1100.924927,1386.949219 
	C1101.055664,1381.852783 1097.669189,1383.062256 1095.300781,1383.036011 
	C1084.174316,1382.912720 1078.727051,1378.447998 1077.023315,1367.584473 
	C1076.164673,1362.108887 1075.628662,1356.582397 1074.958008,1351.077759 
	C1073.634521,1340.218384 1072.220947,1329.368896 1071.028320,1318.495239 
	C1069.885376,1308.074585 1069.046753,1297.620972 1067.943726,1287.195679 
	C1066.705566,1275.493896 1065.319824,1263.807861 1064.000122,1252.114746 
	C1063.321899,1246.104858 1062.731079,1240.083008 1061.895508,1234.095093 
	C1061.743652,1233.006592 1060.714722,1231.366211 1059.879395,1231.224487 
	C1058.914917,1231.060669 1057.545898,1232.097778 1056.670776,1232.942871 
	C1055.892700,1233.694214 1055.499146,1234.872681 1055.022461,1235.902710 
	C1050.607910,1245.443604 1046.275879,1255.023315 1041.797363,1264.533936 
	C1032.898438,1283.431396 1023.894958,1302.279541 1014.992737,1321.175415 
	C1012.031677,1327.460449 1009.317505,1333.861572 1006.364563,1340.150635 
	C1003.383484,1346.499756 1000.246216,1352.775513 996.845581,1359.765259 
	C993.340271,1352.371216 990.242676,1345.648071 986.987244,1339.002441 
	C971.365295,1307.111328 955.700623,1275.241333 939.943726,1242.603271 
M1308.000000,1270.802002 
	C1308.000000,1269.007812 1308.000000,1267.213623 1308.000000,1264.818604 
	C1346.970337,1308.025391 1385.138306,1350.487793 1427.838013,1390.681885 
	C1428.442627,1387.405640 1428.951050,1385.897827 1428.966553,1384.385132 
	C1429.342896,1347.641113 1429.679810,1310.896606 1429.989868,1274.151855 
	C1430.058716,1265.989136 1429.991089,1257.825195 1430.002441,1249.661865 
	C1430.013550,1241.669556 1432.603027,1238.905640 1440.466553,1237.912231 
	C1441.888794,1237.732544 1443.167847,1236.417603 1444.512939,1235.626831 
	C1444.282227,1235.236328 1444.051514,1234.845825 1443.820679,1234.455322 
	C1428.594116,1234.455322 1413.367554,1234.455322 1398.228638,1234.455322 
	C1397.199951,1237.831665 1399.048706,1238.006226 1401.604492,1238.046753 
	C1412.922729,1238.226074 1416.519531,1241.564453 1416.957275,1252.713257 
	C1417.471069,1265.793701 1417.786987,1278.884888 1417.964722,1291.974487 
	C1418.129883,1304.134033 1417.819214,1316.300903 1418.057739,1328.458008 
	C1418.246948,1338.104858 1418.949829,1347.741577 1419.483276,1358.570557 
	C1401.771606,1339.267822 1385.091919,1321.077026 1368.396729,1302.900269 
	C1360.580200,1294.390015 1352.758545,1285.884155 1344.895874,1277.416626 
	C1331.402954,1262.885742 1317.898315,1248.365479 1304.322998,1233.911743 
	C1303.168945,1232.683228 1301.448608,1231.986816 1299.991211,1231.043213 
	C1299.310913,1232.702515 1298.400879,1234.309326 1298.006226,1236.033936 
	C1297.465820,1238.396729 1297.067871,1240.846558 1297.043457,1243.263550 
	C1296.940796,1253.425049 1297.000000,1263.588135 1297.000000,1273.750732 
	C1297.000000,1305.571167 1297.172974,1337.392944 1296.902954,1369.211060 
	C1296.812500,1379.858643 1294.469971,1383.251099 1284.517578,1383.067017 
	C1283.301636,1383.044556 1282.069214,1383.921143 1280.520752,1384.502563 
	C1283.540771,1387.252563 1319.694580,1388.303101 1329.911377,1386.432739 
	C1330.174805,1381.891846 1326.773682,1383.190430 1324.386230,1383.012085 
	C1315.178345,1382.324097 1313.308228,1381.119141 1311.959839,1373.740845 
	C1311.143677,1369.274658 1310.285645,1364.767944 1310.070068,1360.249634 
	C1309.525391,1348.838135 1309.264404,1337.411499 1309.016113,1325.988159 
	C1308.623291,1307.904053 1308.333374,1289.817627 1308.000000,1270.802002 
M656.061218,1351.552979 
	C666.864136,1332.716064 669.444519,1312.499634 665.988770,1291.335327 
	C662.785034,1271.714355 653.379211,1255.797119 636.524170,1244.989136 
	C612.693115,1229.707642 586.973511,1227.211548 560.171936,1235.447876 
	C539.269470,1241.871216 525.154846,1256.235596 515.972656,1275.558960 
	C507.971252,1292.397583 505.978943,1310.020142 509.901703,1328.458252 
	C515.789917,1356.134521 530.947754,1376.098511 557.788940,1385.710205 
	C570.772156,1390.359253 584.544556,1391.170044 598.495667,1389.174927 
	C608.265015,1387.777588 617.336243,1385.034790 626.060608,1380.539062 
	C638.785706,1373.981812 648.383240,1364.243042 656.061218,1351.552979 
M1156.983643,1368.475586 
	C1147.811646,1358.641846 1144.430054,1346.356201 1144.173584,1333.565674 
	C1143.612549,1305.582031 1143.994263,1277.579224 1144.003540,1249.584351 
	C1144.006226,1241.633789 1146.568604,1238.955200 1154.547363,1237.907715 
	C1155.950684,1237.723389 1157.197510,1236.348145 1158.516602,1235.522827 
	C1158.278442,1235.017456 1158.040161,1234.512207 1157.801880,1234.006836 
	C1141.832764,1234.006836 1125.863403,1233.978394 1109.894653,1234.072510 
	C1108.859375,1234.078613 1107.829468,1235.025513 1106.797119,1235.534912 
	C1106.861938,1236.025146 1106.926758,1236.515503 1106.991577,1237.005737 
	C1109.613525,1237.337891 1112.230103,1237.722778 1114.858521,1237.991577 
	C1121.264526,1238.647095 1124.959595,1243.545410 1124.983765,1251.811035 
	C1125.036377,1269.807617 1124.749512,1287.809204 1125.082642,1305.799683 
	C1125.329834,1319.147827 1125.673218,1332.558350 1127.198975,1345.799683 
	C1128.568481,1357.683960 1133.974976,1368.422729 1143.078491,1376.297363 
	C1151.622925,1383.688477 1161.819824,1387.877563 1173.454590,1389.201660 
	C1188.658203,1390.931885 1202.920166,1389.877075 1216.570312,1382.199829 
	C1229.128418,1375.136597 1236.986328,1364.677124 1240.936157,1351.179688 
	C1244.848145,1337.812256 1245.201904,1324.022583 1245.051636,1310.175171 
	C1244.845459,1291.180908 1244.971802,1272.182739 1245.011108,1253.186157 
	C1245.032837,1242.639038 1247.084595,1240.112671 1256.851318,1237.928101 
	C1257.998047,1237.671631 1259.015869,1236.839355 1260.221924,1236.206543 
	C1257.432495,1233.767090 1223.283081,1232.782349 1213.838013,1235.342773 
	C1215.273804,1236.640015 1216.942627,1237.833984 1218.662964,1237.913452 
	C1227.382324,1238.316406 1230.991211,1241.868652 1230.995850,1250.582275 
	C1231.007935,1273.411499 1231.179199,1296.242676 1230.908447,1319.068726 
	C1230.805542,1327.749146 1230.154175,1336.488281 1228.899048,1345.075806 
	C1226.530151,1361.282593 1217.994263,1373.591919 1202.213257,1378.700562 
	C1185.902588,1383.980469 1170.184570,1382.371460 1156.983643,1368.475586 
M1885.972290,1235.261841 
	C1884.569336,1234.841187 1883.171875,1234.079956 1881.762451,1234.057129 
	C1874.272339,1233.936035 1866.779297,1234.000000 1859.287231,1234.000000 
	C1853.225586,1234.000000 1847.164062,1234.000000 1841.102417,1234.000000 
	C1840.934570,1234.686768 1840.766724,1235.373413 1840.598999,1236.060181 
	C1842.323486,1236.706787 1844.026001,1237.837524 1845.776489,1237.917358 
	C1853.957031,1238.290283 1857.990112,1242.275391 1857.995239,1250.485718 
	C1858.009033,1272.641724 1858.190063,1294.800171 1857.908813,1316.952637 
	C1857.792236,1326.130493 1857.074097,1335.348755 1855.883301,1344.451050 
	C1854.737183,1353.211548 1851.719238,1361.466309 1845.422974,1368.059448 
	C1835.864014,1378.068726 1824.039062,1381.594238 1810.359131,1381.117188 
	C1795.078979,1380.584473 1781.365845,1369.156494 1775.983276,1356.644653 
	C1771.096191,1345.284424 1770.355225,1333.132812 1770.195801,1321.179810 
	C1769.872681,1296.940918 1770.652954,1272.687012 1771.009033,1248.439819 
	C1771.105591,1241.870728 1774.225220,1238.693848 1780.688965,1237.915771 
	C1782.157593,1237.739014 1783.498291,1236.499146 1784.897827,1235.748413 
	C1783.339355,1235.165649 1781.774536,1234.069702 1780.223511,1234.089111 
	C1773.647217,1234.170532 1767.074341,1234.826050 1760.501343,1234.811157 
	C1752.918945,1234.793945 1745.339233,1234.214966 1737.754639,1234.074585 
	C1736.445312,1234.050293 1735.118164,1234.993896 1733.799194,1235.490479 
	C1733.864868,1235.984619 1733.930664,1236.478760 1733.996460,1236.972900 
	C1736.161499,1237.315552 1738.315430,1237.788574 1740.494019,1237.975464 
	C1746.232056,1238.467285 1750.527100,1241.450806 1750.953613,1245.739136 
	C1751.457275,1250.804810 1751.883423,1255.896606 1751.963257,1260.983032 
	C1752.375977,1287.226440 1752.290527,1313.484131 1753.161499,1339.710938 
	C1753.585571,1352.482178 1758.509399,1364.191040 1767.294067,1373.619385 
	C1776.031128,1382.996704 1787.322388,1387.472290 1800.061035,1389.135864 
	C1810.139160,1390.452148 1820.095825,1390.778198 1829.792236,1387.884766 
	C1844.809814,1383.403320 1857.102783,1375.291382 1864.190796,1360.503052 
	C1869.743896,1348.916748 1871.564697,1336.528564 1871.843750,1324.055420 
	C1872.380127,1300.078979 1871.607666,1276.072510 1872.188721,1252.098022 
	C1872.428589,1242.197998 1872.572021,1238.869385 1883.787476,1237.895386 
	C1884.553345,1237.828857 1885.231079,1236.748169 1885.972290,1235.261841 
M484.993134,1360.328857 
	C485.279694,1358.413086 485.907806,1356.467896 485.746887,1354.590454 
	C485.613586,1353.034668 484.550018,1351.558594 483.898590,1350.047119 
	C482.932129,1351.246338 481.483368,1352.303101 481.080231,1353.668579 
	C479.012421,1360.671997 477.241364,1367.621460 470.567932,1372.144775 
	C456.925262,1381.391968 441.761047,1381.407837 426.678497,1378.648071 
	C409.472473,1375.499878 394.819214,1367.325562 383.562195,1353.246582 
	C373.771759,1341.001831 368.490448,1327.180542 367.111237,1311.871216 
	C366.135162,1301.036499 367.082092,1290.154175 370.054443,1279.628540 
	C374.171570,1265.048828 382.322540,1252.873291 396.206482,1246.611938 
	C416.145538,1237.619995 437.056854,1237.315430 457.807037,1244.431152 
	C471.641754,1249.175537 478.426544,1255.775635 479.086273,1272.261475 
	C479.143982,1273.703003 480.409729,1275.096191 481.114349,1276.511841 
	C481.831329,1276.325684 482.548309,1276.139404 483.265289,1275.953247 
	C483.821381,1263.067993 484.377472,1250.182617 484.948059,1236.960449 
	C480.728790,1236.452393 476.855377,1236.050659 473.001587,1235.509521 
	C462.521271,1234.037964 452.082428,1231.642944 441.564819,1231.239868 
	C430.765045,1230.825806 419.752167,1231.467163 409.078949,1233.181030 
	C385.712860,1236.933350 368.314819,1249.901489 357.151917,1270.674194 
	C348.373291,1287.010254 346.303345,1304.576782 348.914337,1322.937012 
	C351.615265,1341.929810 359.684387,1357.554199 374.433838,1370.133301 
	C390.521912,1383.854126 409.555939,1388.866333 429.790375,1389.775024 
	C442.078735,1390.327026 454.596436,1389.543335 466.772064,1387.742920 
	C478.241943,1386.046753 480.213196,1385.855713 482.170593,1374.511353 
	C482.939972,1370.052246 484.008820,1365.644775 484.993134,1360.328857 
M1949.000000,1294.416992 
	C1949.000000,1277.332153 1949.000000,1260.247314 1949.000000,1242.516968 
	C1960.114136,1243.034424 1970.524292,1243.352173 1980.907715,1244.060913 
	C1987.828125,1244.533203 1991.605469,1248.845825 1991.998901,1255.879028 
	C1992.071777,1257.182007 1992.134033,1258.485352 1992.201172,1259.788574 
	C1992.638550,1260.031494 1993.075806,1260.274292 1993.513184,1260.517212 
	C1994.341553,1259.200928 1995.678833,1257.968750 1995.912720,1256.554199 
	C1997.077759,1249.508179 1998.035034,1242.424194 1998.882202,1235.331665 
	C1999.155884,1233.038940 1998.679443,1231.544800 1995.478516,1232.659180 
	C1992.622437,1233.653809 1989.407349,1233.847534 1986.336304,1233.946533 
	C1980.176514,1234.145264 1974.004761,1233.940186 1967.841919,1234.080444 
	C1958.581299,1234.291138 1949.324463,1234.878784 1940.065430,1234.887451 
	C1931.973511,1234.895142 1923.882202,1234.268433 1915.786865,1234.090576 
	C1914.904053,1234.071167 1913.996704,1235.167725 1913.100586,1235.746704 
	C1913.998535,1236.495239 1914.790771,1237.583008 1915.821899,1237.904175 
	C1917.037842,1238.283325 1918.468628,1237.906372 1919.792603,1238.018188 
	C1925.692749,1238.516602 1929.662964,1241.543457 1929.963867,1246.045532 
	C1930.426147,1252.959106 1930.988770,1259.889526 1930.945679,1266.809326 
	C1930.732178,1301.065674 1930.364868,1335.321289 1929.979980,1369.576294 
	C1929.870728,1379.310181 1928.082886,1381.246338 1918.661011,1383.071777 
	C1917.722046,1383.253784 1916.945068,1384.271973 1916.092896,1384.902222 
	C1917.206299,1385.600952 1918.308960,1386.891357 1919.434570,1386.911621 
	C1944.355957,1387.358887 1969.279785,1387.757690 1994.203979,1387.830078 
	C1996.253418,1387.836060 1999.781128,1385.743652 2000.114868,1384.113159 
	C2001.788208,1375.938110 2002.626587,1367.592163 2003.758423,1359.306152 
	C2002.855103,1359.067993 2001.951904,1358.829834 2001.048584,1358.591675 
	C2000.366211,1360.369873 1999.502197,1362.101440 1999.031738,1363.933960 
	C1996.382935,1374.255737 1993.634888,1376.869141 1984.798462,1377.818970 
	C1976.884033,1378.669800 1968.788452,1378.338989 1960.805908,1377.910522 
	C1952.462036,1377.462402 1949.003540,1373.309326 1949.001343,1364.974854 
	C1948.996826,1348.143311 1948.993774,1331.311768 1949.011353,1314.480225 
	C1949.012817,1313.048462 1949.171509,1311.616943 1949.268188,1310.001831 
	C1957.630371,1310.001831 1965.628540,1309.684082 1973.591309,1310.077759 
	C1984.959351,1310.639893 1986.507080,1312.367188 1989.128296,1324.171753 
	C1989.328369,1325.072998 1991.229126,1325.596558 1992.457764,1326.370361 
	C1993.414551,1315.532471 1994.264648,1305.902832 1995.187988,1295.443237 
	C1980.232666,1305.665894 1964.343506,1298.836670 1949.000000,1301.348877 
	C1949.000000,1298.692139 1949.000000,1297.041748 1949.000000,1294.416992 
M1526.801758,1234.390259 
	C1516.817017,1234.260254 1506.832520,1234.105591 1496.847412,1234.009644 
	C1491.273926,1233.956055 1485.699585,1234.000000 1480.125610,1234.000000 
	C1479.936768,1234.641113 1479.747803,1235.282227 1479.558838,1235.923462 
	C1481.109131,1236.615723 1482.608154,1237.722046 1484.219360,1237.921265 
	C1488.781250,1238.485107 1492.577637,1239.999023 1493.425293,1244.994019 
	C1494.216431,1249.656982 1494.953125,1254.409302 1494.927246,1259.117920 
	C1494.724487,1296.192261 1494.758789,1333.277466 1493.712524,1370.330933 
	C1493.435913,1380.128296 1492.162231,1383.104004 1482.886475,1383.127441 
	C1481.756714,1383.130249 1480.631348,1384.808960 1479.503906,1385.711182 
	C1479.754150,1386.029785 1480.004517,1386.348511 1480.254761,1386.667236 
	C1497.460205,1386.667236 1514.665527,1386.667236 1531.945801,1386.667236 
	C1532.014282,1381.851440 1528.640259,1383.084595 1526.275513,1383.037109 
	C1519.731567,1382.905640 1515.375732,1380.858276 1514.294434,1376.608765 
	C1513.495239,1373.467896 1513.059326,1370.147339 1513.052612,1366.905518 
	C1512.971313,1327.592529 1512.988403,1288.279541 1513.010498,1248.966431 
	C1513.014526,1241.776367 1515.992065,1238.771362 1523.158691,1237.892578 
	C1524.516968,1237.726074 1525.705444,1236.174438 1526.801758,1234.390259 
z"/>
	<path fill="#02458D" opacity="1.000000" stroke="none" d="
M353.000000,1.000000 
	C904.368225,1.000000 1455.736450,1.000000 2007.552490,1.466042 
	C2008.000122,163.925400 2007.999756,325.918732 2008.005859,487.912048 
	C2008.005859,489.909393 2008.088989,491.906738 2008.020264,494.235992 
	C2006.710083,495.710327 2005.600342,496.964600 2004.302734,497.978485 
	C1979.499512,517.359985 1954.364502,536.331055 1929.918701,556.152466 
	C1880.500732,596.221741 1831.439453,636.731018 1782.268311,677.104248 
	C1772.927246,684.773987 1763.759277,692.654358 1753.364258,701.402954 
	C1773.975586,618.923828 1794.230835,537.869080 1814.782593,455.628265 
	C1813.008911,456.869720 1812.307861,457.263489 1811.720581,457.785400 
	C1766.406006,498.054260 1721.107422,538.341187 1675.790771,578.607849 
	C1650.894165,600.730164 1625.968140,622.819336 1600.955078,644.469604 
	C1600.826904,635.056335 1600.759888,626.096863 1600.777954,617.137512 
	C1600.831787,590.424805 1600.918945,563.712097 1601.238281,536.757568 
	C1625.029297,487.657104 1648.562378,438.792297 1672.124390,389.941315 
	C1702.411133,327.147736 1732.724731,264.367126 1763.009521,201.572632 
	C1764.481445,198.520615 1765.787964,195.388794 1767.171387,192.294113 
	C1766.655640,191.897812 1766.139893,191.501526 1765.624023,191.105240 
	C1764.957764,192.237366 1764.448730,193.505981 1763.602295,194.481964 
	C1742.661743,218.628464 1721.670288,242.730835 1700.719238,266.868195 
	C1675.622925,295.781128 1650.589844,324.748962 1625.455688,353.629028 
	C1617.493164,362.778473 1609.294556,371.722473 1601.180176,380.307495 
	C1601.694580,351.892822 1602.086182,323.927307 1602.807251,295.970276 
	C1603.721436,260.533051 1605.036621,225.105972 1605.885864,189.667496 
	C1606.131958,179.396317 1606.206055,168.988602 1604.838135,158.848709 
	C1603.496094,148.902145 1596.729980,145.380768 1587.241455,149.039352 
	C1580.961548,151.460739 1574.954468,154.933350 1569.355591,158.719452 
	C1540.540527,178.204727 1512.112183,198.267395 1483.149048,217.527039 
	C1421.486206,258.531128 1359.573120,299.158600 1297.775269,339.959747 
	C1292.798706,343.245514 1288.654175,347.221863 1287.507202,353.469574 
	C1285.687744,363.380341 1292.485352,369.963776 1301.909180,367.028595 
	C1307.602173,365.255463 1313.167969,362.966339 1318.606323,360.501892 
	C1348.728149,346.852020 1378.645264,332.737549 1408.957397,319.527496 
	C1419.687256,314.851440 1431.177979,311.610870 1442.608643,308.949860 
	C1451.921509,306.781891 1457.937012,311.494171 1459.975464,320.944977 
	C1460.951050,325.467987 1461.502808,330.162720 1461.567261,334.789093 
	C1462.020996,367.427643 1462.403931,400.068054 1462.602539,432.709106 
	C1462.808228,466.529633 1462.787964,500.351532 1462.840698,534.172852 
	C1462.844482,536.661011 1462.636963,539.149475 1462.236084,541.783569 
	C1401.520874,611.521790 1341.097656,681.114258 1280.674316,750.706665 
	C1280.333130,750.515198 1279.991821,750.323730 1279.650635,750.132263 
	C1318.865356,636.546570 1358.080078,522.960938 1397.294800,409.375275 
	C1394.944214,409.689026 1393.752319,410.538422 1392.647339,411.488831 
	C1352.746460,445.806732 1312.865601,480.147705 1272.937378,514.433716 
	C1269.842163,517.091675 1266.424561,519.374207 1263.146973,521.389160 
	C1261.808472,507.036469 1260.745850,493.094330 1259.102539,479.221008 
	C1253.702393,433.631592 1243.731689,389.097046 1227.593018,346.040527 
	C1224.449219,337.653229 1221.089966,329.346771 1218.112305,320.782837 
	C1251.024170,239.606445 1283.653809,158.650238 1316.283447,77.694038 
	C1315.904785,77.466049 1315.526245,77.238052 1315.147705,77.010063 
	C1268.695801,134.819031 1222.243774,192.627991 1175.500732,250.249329 
	C1144.355103,210.528488 1105.935425,181.233795 1058.486572,164.372864 
	C1013.405762,148.353424 966.910278,144.979584 919.607605,149.650970 
	C877.942017,153.765701 838.812195,165.824448 802.894653,187.565018 
	C750.292908,219.404312 713.853394,265.512543 687.258850,320.010071 
	C657.720642,380.539795 642.935242,445.199585 635.062866,511.650848 
	C630.277649,552.043213 628.530640,592.621033 628.974304,633.293457 
	C628.994080,635.103455 628.641052,636.917542 628.128784,638.747864 
	C607.372375,659.078125 586.950195,679.391602 566.522156,699.699219 
	C565.246887,700.966980 563.926392,702.189087 561.604980,704.410278 
	C582.495667,636.224915 602.981018,569.362549 623.466309,502.500214 
	C621.056885,502.680389 619.765686,503.367126 618.551392,504.170105 
	C606.472473,512.157654 594.391846,520.142883 582.338806,528.169373 
	C507.527191,577.988647 432.725006,627.822021 357.897675,677.617554 
	C356.429962,678.594299 354.693420,679.167053 353.045166,679.475647 
	C353.005371,453.015350 353.002686,227.007675 353.000000,1.000000 
M1767.764648,190.605667 
	C1767.600830,190.598541 1767.437134,190.591431 1767.273315,190.584320 
	C1767.350830,190.686035 1767.428467,190.787735 1767.764648,190.605667 
M1397.467041,407.791412 
	C1397.467041,407.791412 1397.563965,407.517456 1397.563965,407.517456 
	C1397.563965,407.517456 1397.346680,407.590729 1397.467041,407.791412 
z"/>
	<path fill="#07488F" opacity="1.000000" stroke="none" d="
M2335.000000,475.625000 
	C2321.052734,483.708801 2306.697998,490.771118 2293.238525,499.253937 
	C2259.768555,520.348083 2226.311523,541.507935 2193.595215,563.739136 
	C2162.593018,584.805359 2132.464844,607.164490 2102.096436,629.154297 
	C2083.994141,642.262329 2066.081299,655.637268 2048.250977,669.113831 
	C2035.727295,678.579346 2023.554321,688.508057 2011.062500,698.016541 
	C2008.484253,699.979065 2007.954712,702.078735 2007.957275,705.040771 
	C2008.022827,777.867737 2008.008545,850.694702 2008.008545,923.521729 
	C2008.008545,1000.015076 2008.008545,1076.508423 2008.008545,1153.001831 
	C2008.008545,1154.811646 2008.008545,1156.621338 2008.008545,1158.715576 
	C1456.364258,1158.715576 904.999207,1158.715576 352.981049,1158.715576 
	C352.981049,1065.871460 352.981049,972.955872 353.101379,879.184814 
	C353.460938,876.878784 353.906189,875.428528 353.908630,873.977478 
	C353.951233,848.883545 353.957733,823.789490 353.896362,798.695679 
	C353.892456,797.098999 353.269135,795.503967 352.959320,793.446228 
	C352.944305,783.692383 352.903961,774.400513 352.985046,764.780518 
	C354.509399,763.293640 355.822296,761.999756 357.328430,760.995728 
	C403.708038,730.077209 450.105774,699.185791 496.507019,668.299744 
	C497.752533,667.470825 499.068390,666.747498 501.240143,665.439819 
	C500.684479,667.465942 500.492188,668.245850 500.257233,669.012634 
	C477.027710,744.820496 453.776703,820.621826 430.576599,896.438721 
	C425.471161,913.122925 420.545868,929.862366 415.380798,946.773743 
	C415.264038,947.213074 415.304108,947.455139 415.344177,947.697144 
	C415.626892,947.532410 415.909637,947.367676 416.488098,947.046936 
	C488.417694,875.281067 560.050842,803.670532 631.690918,732.066956 
	C633.100952,730.657715 634.593445,729.330872 636.264038,728.293213 
	C641.803101,765.183594 650.020020,801.056458 662.066162,836.017944 
	C664.701660,843.666748 667.306152,851.326233 669.618042,859.174561 
	C645.685669,931.615540 622.058350,1003.862183 598.456604,1076.117188 
	C598.197021,1076.911987 598.269775,1077.815430 598.143982,1079.116211 
	C599.023804,1078.521606 599.515137,1078.331787 599.800537,1077.976440 
	C637.548401,1030.992798 675.281189,983.996826 713.322510,937.135620 
	C747.780884,983.878967 791.520203,1017.390747 847.096130,1034.542358 
	C889.563171,1047.648315 932.989868,1050.068726 976.939148,1045.188354 
	C1028.525269,1039.460083 1075.134521,1021.241028 1116.116089,989.108582 
	C1119.314209,986.601074 1122.663940,984.287231 1126.000000,982.278931 
	C1123.929321,989.124634 1121.848877,995.590759 1119.665283,1002.021912 
	C1112.682495,1022.585876 1105.661377,1043.136963 1098.463379,1063.892822 
	C1098.269653,1064.520020 1098.267700,1064.947266 1098.265869,1065.374634 
	C1098.676636,1065.064087 1099.087402,1064.753540 1099.745239,1064.224609 
	C1118.455933,1042.788696 1136.927002,1021.577637 1155.381470,1000.352234 
	C1187.375854,963.553833 1219.376587,926.760803 1251.344116,889.939148 
	C1287.784790,847.965027 1324.193970,805.963684 1360.613037,763.970886 
	C1387.981934,732.413452 1415.310791,700.821045 1442.735840,669.312683 
	C1449.271973,661.803467 1456.121338,654.567017 1462.843506,647.660400 
	C1462.651855,654.601257 1462.443115,661.086914 1461.963623,667.763550 
	C1461.434326,668.378418 1461.137085,668.783630 1460.922729,669.228821 
	C1437.912842,717.044312 1414.936035,764.875793 1391.898926,812.678223 
	C1361.855957,875.018066 1331.764038,937.334412 1301.703979,999.666016 
	C1301.089233,1000.940796 1300.605225,1002.278564 1299.560547,1004.786316 
	C1301.521362,1003.397949 1302.466553,1002.854675 1303.264282,1002.145447 
	C1349.536133,961.003235 1395.775513,919.824280 1442.080688,878.719543 
	C1448.500122,873.021118 1455.239014,867.682617 1461.846436,862.610474 
	C1461.583740,870.652100 1461.493042,878.273071 1460.990845,885.866882 
	C1459.388794,910.093323 1458.261230,934.375061 1455.744141,958.509644 
	C1453.645142,978.636169 1442.719849,992.758362 1422.690552,998.604126 
	C1416.482788,1000.416016 1410.138550,1002.260254 1403.743164,1002.843018 
	C1376.080078,1005.363770 1348.376709,1007.443176 1320.683960,1009.632263 
	C1315.051514,1010.077454 1312.525513,1012.534302 1311.608643,1018.871216 
	C1310.740112,1024.874878 1312.649780,1028.683716 1318.090942,1030.017456 
	C1322.076050,1030.994263 1326.319458,1031.358276 1330.436157,1031.290283 
	C1385.375610,1030.384399 1440.309814,1028.969727 1495.252319,1028.495605 
	C1529.369263,1028.201050 1563.498169,1029.293701 1597.621826,1029.747803 
	C1638.421387,1030.290894 1679.220947,1030.846436 1720.021606,1031.292114 
	C1723.137695,1031.326294 1726.355835,1030.872314 1729.363037,1030.048340 
	C1734.824951,1028.551880 1736.692627,1025.125732 1736.016235,1018.929749 
	C1735.380493,1013.105225 1732.419800,1010.067566 1726.892700,1009.654785 
	C1709.965698,1008.390503 1693.020630,1007.334351 1676.114502,1005.836243 
	C1662.363647,1004.617676 1648.608032,1003.212708 1635.611328,997.918030 
	C1622.384155,992.529297 1613.564209,983.174500 1610.085815,969.283142 
	C1608.313843,962.206177 1606.547974,954.967896 1606.167236,947.729553 
	C1604.305908,912.339233 1602.605713,876.934326 1601.460205,841.514771 
	C1600.695923,817.879639 1600.895020,794.211609 1600.786377,770.557739 
	C1600.735107,759.402710 1600.974121,748.246338 1601.385498,736.950684 
	C1631.908203,709.974548 1662.127075,683.138428 1692.346069,656.302307 
	C1692.683105,656.486755 1693.020264,656.671265 1693.357422,656.855713 
	C1673.253052,737.311462 1653.148804,817.767151 1632.718994,899.524902 
	C1652.821411,881.622498 1671.742065,864.586243 1690.866699,847.782227 
	C1723.638794,818.986877 1756.159912,789.888794 1789.474487,761.731873 
	C1837.547363,721.101501 1886.087158,681.018188 1934.723267,641.061279 
	C1958.777832,621.299072 1983.493408,602.341248 2007.937988,583.485840 
	C2007.966064,593.181702 2007.966064,602.411316 2007.966064,612.341187 
	C2102.982666,540.623474 2198.330566,471.019897 2302.207520,413.993652 
	C2302.878906,414.788696 2303.406982,415.233795 2303.709717,415.799316 
	C2311.093262,429.592743 2318.399902,443.427826 2325.844238,457.188263 
	C2328.740967,462.542786 2331.939209,467.734253 2335.000000,473.000000 
	C2335.000000,473.750000 2335.000000,474.500000 2335.000000,475.625000 
M1929.002563,1096.436401 
	C1930.321655,1102.237549 1931.640747,1108.038818 1932.933594,1113.724487 
	C1936.127319,1113.724487 1938.902954,1113.724487 1941.681274,1113.724487 
	C1944.111938,1103.067871 1946.483032,1092.672485 1948.854126,1082.276978 
	C1949.224121,1082.344727 1949.594238,1082.412354 1949.964233,1082.480103 
	C1949.964233,1092.894775 1949.964233,1103.309570 1949.964233,1113.650757 
	C1952.704834,1113.650757 1955.098755,1113.650757 1957.543701,1113.650757 
	C1957.543701,1099.698853 1957.543701,1086.099487 1957.543701,1072.249878 
	C1953.247070,1072.249878 1949.180054,1072.249878 1944.919434,1072.249878 
	C1942.531006,1082.670166 1940.177368,1092.939331 1937.492798,1104.651611 
	C1934.743774,1092.856934 1932.336548,1082.529175 1929.940552,1072.249023 
	C1925.548340,1072.249023 1921.451294,1072.249023 1917.270996,1072.249023 
	C1917.270996,1086.237915 1917.270996,1099.974121 1917.270996,1113.740723 
	C1919.964355,1113.740723 1922.378784,1113.740723 1925.070068,1113.740723 
	C1925.070068,1103.088989 1925.070068,1092.694092 1925.070068,1082.299194 
	C1925.319092,1082.262085 1925.567993,1082.224976 1925.817017,1082.187988 
	C1926.844238,1086.659302 1927.871338,1091.130493 1929.002563,1096.436401 
M1898.348633,1111.382690 
	C1898.348633,1100.810303 1898.348633,1090.237915 1898.348633,1079.163818 
	C1903.074097,1079.163818 1906.976318,1079.163818 1910.884033,1079.163818 
	C1910.884033,1076.553345 1910.884033,1074.471436 1910.884033,1072.226685 
	C1899.564087,1072.226685 1888.493042,1072.226685 1877.314209,1072.226685 
	C1877.314209,1074.675537 1877.314209,1076.896973 1877.314209,1079.642334 
	C1881.521362,1079.642334 1885.423096,1079.642334 1889.656738,1079.642334 
	C1889.656738,1091.267700 1889.656738,1102.370850 1889.656738,1114.728149 
	C1892.948242,1113.827759 1895.636475,1113.092407 1898.348633,1111.382690 
M597.290649,1080.409058 
	C597.434631,1080.419556 597.578674,1080.430176 597.722656,1080.440796 
	C597.657349,1080.344849 597.592102,1080.249023 597.290649,1080.409058 
z"/>
	<path fill="#FFFFFF" opacity="1.000000" stroke="none" d="
M352.540283,1.000000 
	C353.002686,227.007675 353.005371,453.015350 352.867615,679.773376 
	C323.200745,700.119080 293.643524,719.668152 264.153870,739.318665 
	C185.006134,792.059143 105.898224,844.859375 26.741091,897.585754 
	C18.273254,903.226135 9.585651,908.536499 0.999998,914.000000 
	C1.000000,609.767578 1.000000,305.535156 1.000000,1.000000 
	C118.026695,1.000000 235.053650,1.000000 352.540283,1.000000 
z"/>
	<path fill="#FFFFFF" opacity="1.000000" stroke="none" d="
M2008.133301,493.904053 
	C2008.088989,491.906738 2008.005859,489.909393 2008.005859,487.912048 
	C2007.999756,325.918732 2008.000122,163.925400 2008.000000,1.466042 
	C2116.930908,1.000000 2225.861572,1.000000 2335.000000,1.000000 
	C2335.000000,118.689232 2335.000000,236.378586 2334.694824,354.371124 
	C2323.920898,335.207001 2313.451904,315.739685 2302.778809,295.892822 
	C2293.511719,301.096313 2284.458252,305.841400 2275.740479,311.138306 
	C2249.394775,327.145325 2222.738037,342.698303 2197.023682,359.671906 
	C2164.162354,381.363068 2131.952881,404.055420 2099.748291,426.722382 
	C2077.529541,442.360748 2055.775879,458.661285 2033.853394,474.719421 
	C2025.225220,481.039398 2016.703491,487.504822 2008.133301,493.904053 
z"/>
	<path fill="#9BA5CD" opacity="1.000000" stroke="none" d="
M2008.020264,494.235962 
	C2016.703491,487.504822 2025.225220,481.039398 2033.853394,474.719421 
	C2055.775879,458.661285 2077.529541,442.360748 2099.748291,426.722382 
	C2131.952881,404.055420 2164.162354,381.363068 2197.023682,359.671906 
	C2222.738037,342.698303 2249.394775,327.145325 2275.740479,311.138306 
	C2284.458252,305.841400 2293.511719,301.096313 2302.778809,295.892822 
	C2313.451904,315.739685 2323.920898,335.207001 2334.694824,354.837158 
	C2335.000000,356.066681 2335.000000,357.133331 2334.635254,358.621094 
	C2327.440674,362.716797 2320.433838,366.100586 2313.811279,370.117157 
	C2287.575195,386.029083 2260.948242,401.370972 2235.422363,418.361145 
	C2199.741699,442.110657 2164.712402,466.859100 2129.792725,491.725586 
	C2104.959229,509.409943 2080.712891,527.922974 2056.305420,546.200989 
	C2040.081299,558.350708 2024.035522,570.738342 2007.909912,583.019470 
	C1983.493408,602.341248 1958.777832,621.299072 1934.723267,641.061279 
	C1886.087158,681.018188 1837.547363,721.101501 1789.474487,761.731873 
	C1756.159912,789.888794 1723.638794,818.986877 1690.866699,847.782227 
	C1671.742065,864.586243 1652.821411,881.622498 1632.718994,899.524902 
	C1653.148804,817.767151 1673.253052,737.311462 1693.357422,656.855713 
	C1693.020264,656.671265 1692.683105,656.486755 1692.346069,656.302307 
	C1662.127075,683.138428 1631.908203,709.974548 1601.311768,736.480286 
	C1600.974487,705.741028 1601.014893,675.332275 1601.055298,644.923462 
	C1625.968140,622.819336 1650.894165,600.730164 1675.790771,578.607849 
	C1721.107422,538.341187 1766.406006,498.054260 1811.720581,457.785400 
	C1812.307861,457.263489 1813.008911,456.869720 1814.782593,455.628265 
	C1794.230835,537.869080 1773.975586,618.923828 1753.364258,701.402954 
	C1763.759277,692.654358 1772.927246,684.773987 1782.268311,677.104248 
	C1831.439453,636.731018 1880.500732,596.221741 1929.918701,556.152466 
	C1954.364502,536.331055 1979.499512,517.359985 2004.302734,497.978485 
	C2005.600342,496.964600 2006.710083,495.710327 2008.020264,494.235962 
z"/>
	<path fill="#9BA5CD" opacity="1.000000" stroke="none" d="
M0.999998,914.375000 
	C9.585651,908.536499 18.273254,903.226135 26.741091,897.585754 
	C105.898224,844.859375 185.006134,792.059143 264.153870,739.318665 
	C293.643524,719.668152 323.200745,700.119080 352.904755,680.226013 
	C354.693420,679.167053 356.429962,678.594299 357.897675,677.617554 
	C432.725006,627.822021 507.527191,577.988647 582.338806,528.169373 
	C594.391846,520.142883 606.472473,512.157654 618.551392,504.170105 
	C619.765686,503.367126 621.056885,502.680389 623.466309,502.500214 
	C602.981018,569.362549 582.495667,636.224915 561.604980,704.410278 
	C563.926392,702.189087 565.246887,700.966980 566.522156,699.699219 
	C586.950195,679.391602 607.372375,659.078125 628.318726,639.195923 
	C629.226685,647.592041 629.542297,655.562317 630.018188,663.523071 
	C630.434265,670.483582 630.900696,677.445984 631.574341,684.385193 
	C632.985352,698.919800 634.547424,713.439697 636.047485,727.965637 
	C634.593445,729.330872 633.100952,730.657715 631.690918,732.066956 
	C560.050842,803.670532 488.417694,875.281067 416.328583,946.885986 
	C415.873322,946.881042 415.537689,946.576416 415.537659,946.576416 
	C420.545868,929.862366 425.471161,913.122925 430.576599,896.438721 
	C453.776703,820.621826 477.027710,744.820496 500.257233,669.012634 
	C500.492188,668.245850 500.684479,667.465942 501.240143,665.439819 
	C499.068390,666.747498 497.752533,667.470825 496.507019,668.299744 
	C450.105774,699.185791 403.708038,730.077209 357.328430,760.995728 
	C355.822296,761.999756 354.509399,763.293640 352.669189,764.892761 
	C349.434692,767.072815 346.587158,768.737122 343.847351,770.563110 
	C249.855316,833.206116 155.876160,895.868469 61.885254,958.513123 
	C54.392467,963.507019 46.829235,968.395264 38.969799,973.548340 
	C32.091011,963.010071 25.624443,952.894043 18.939308,942.924683 
	C13.087145,934.197571 6.989325,925.635132 1.000019,917.000000 
	C1.000000,916.250000 1.000000,915.500000 0.999998,914.375000 
z"/>
	<path fill="#02458D" opacity="1.000000" stroke="none" d="
M352.468658,1499.000000 
	C352.000000,1491.526001 352.000000,1484.052124 352.000000,1476.290527 
	C900.990540,1476.290527 1449.700073,1476.290527 1999.000000,1476.290527 
	C1999.000000,1483.525391 1999.000000,1490.794067 1999.000000,1498.531372 
	C1450.312378,1499.000000 901.624878,1499.000000 352.468658,1499.000000 
z"/>
	<path fill="#5A71AB" opacity="1.000000" stroke="none" d="
M352.933960,793.908142 
	C353.269135,795.503967 353.892456,797.098999 353.896362,798.695679 
	C353.957733,823.789490 353.951233,848.883545 353.908630,873.977478 
	C353.906189,875.428528 353.460938,876.878784 353.061829,878.725342 
	C340.784332,887.130798 328.616425,895.065552 316.563507,903.171143 
	C304.622742,911.201294 292.837921,919.463196 280.913666,927.518250 
	C257.894531,943.068115 234.800888,958.507751 211.783676,974.060486 
	C188.214493,989.986267 164.724030,1006.028503 141.154404,1021.953674 
	C117.325638,1038.053833 93.431190,1054.056885 69.588577,1070.136475 
	C60.911617,1075.988281 52.308350,1081.949341 43.652542,1087.832520 
	C42.327015,1088.733521 40.898922,1089.483521 39.129623,1090.534180 
	C26.497511,1071.881958 14.079755,1053.546143 1.331000,1035.105225 
	C1.000000,1034.250000 1.000000,1033.500000 1.329460,1032.271973 
	C12.877090,1024.172607 24.098314,1016.555664 35.312778,1008.928711 
	C58.708691,993.017456 82.063370,977.045105 105.505249,961.201843 
	C129.472778,945.003357 153.563492,928.987122 177.527863,912.783997 
	C199.882645,897.669128 222.100250,882.351379 244.455215,867.236816 
	C268.419800,851.033936 292.496735,834.997253 316.479919,818.821838 
	C328.681885,810.592224 340.785767,802.217346 352.933960,793.908142 
z"/>
	<path fill="#FFFFFF" opacity="1.000000" stroke="none" d="
M352.959290,793.446228 
	C340.785767,802.217346 328.681885,810.592224 316.479919,818.821838 
	C292.496735,834.997253 268.419800,851.033936 244.455215,867.236816 
	C222.100250,882.351379 199.882645,897.669128 177.527863,912.783997 
	C153.563492,928.987122 129.472778,945.003357 105.505249,961.201843 
	C82.063370,977.045105 58.708691,993.017456 35.312778,1008.928711 
	C24.098314,1016.555664 12.877090,1024.172607 1.329460,1031.896973 
	C1.000000,993.979126 1.000000,955.958191 1.000019,917.468628 
	C6.989325,925.635132 13.087145,934.197571 18.939308,942.924683 
	C25.624443,952.894043 32.091011,963.010071 38.969799,973.548340 
	C46.829235,968.395264 54.392467,963.507019 61.885254,958.513123 
	C155.876160,895.868469 249.855316,833.206116 343.847351,770.563110 
	C346.587158,768.737122 349.434692,767.072815 352.547821,765.220825 
	C352.903961,774.400513 352.944305,783.692383 352.959290,793.446228 
z"/>
	<path fill="#FFFFFF" opacity="1.000000" stroke="none" d="
M2007.937988,583.485840 
	C2024.035522,570.738342 2040.081299,558.350708 2056.305420,546.200989 
	C2080.712891,527.922974 2104.959229,509.409943 2129.792725,491.725586 
	C2164.712402,466.859100 2199.741699,442.110657 2235.422363,418.361145 
	C2260.948242,401.370972 2287.575195,386.029083 2313.811279,370.117157 
	C2320.433838,366.100586 2327.440674,362.716797 2334.635254,359.021057 
	C2335.000000,396.687561 2335.000000,434.375122 2335.000000,472.531311 
	C2331.939209,467.734253 2328.740967,462.542786 2325.844238,457.188263 
	C2318.399902,443.427826 2311.093262,429.592743 2303.709717,415.799316 
	C2303.406982,415.233795 2302.878906,414.788696 2302.207520,413.993652 
	C2198.330566,471.019897 2102.982666,540.623474 2007.966064,612.341187 
	C2007.966064,602.411316 2007.966064,593.181702 2007.937988,583.485840 
z"/>
	<path fill="#02458D" opacity="1.000000" stroke="none" d="
M1718.314209,1394.725098 
	C1737.177612,1404.243774 1756.264038,1412.063721 1776.680908,1416.316406 
	C1799.281128,1421.023926 1821.478882,1420.155151 1843.259644,1412.037598 
	C1844.936279,1411.412720 1846.975098,1411.759766 1848.845703,1411.655151 
	C1849.030518,1412.463257 1849.215210,1413.271484 1849.400024,1414.079590 
	C1843.078735,1416.664429 1836.916870,1419.782471 1830.404907,1421.729492 
	C1813.901611,1426.663818 1797.017822,1429.608154 1779.699585,1428.973022 
	C1763.457275,1428.377319 1747.700073,1424.886719 1733.136719,1417.862183 
	C1712.309326,1407.816162 1691.966064,1396.765503 1671.426147,1386.124512 
	C1668.338623,1384.525146 1665.411621,1383.397583 1661.785278,1384.994385 
	C1650.228149,1390.083496 1637.863037,1391.059326 1625.602417,1389.860229 
	C1591.543945,1386.529785 1566.863037,1366.710815 1558.005615,1332.510254 
	C1551.733887,1308.293335 1555.690063,1285.495483 1569.204590,1264.866211 
	C1580.476929,1247.659790 1596.616699,1236.878662 1617.302856,1232.865845 
	C1637.248047,1228.996826 1656.563965,1230.766357 1674.565918,1239.486938 
	C1695.474121,1249.615479 1708.515137,1266.515747 1713.144653,1289.847290 
	C1717.996948,1314.302002 1712.876831,1336.425171 1698.676880,1356.399170 
	C1693.718750,1363.373413 1686.941284,1369.054077 1681.014648,1375.304321 
	C1692.708008,1381.373901 1705.355103,1387.938477 1718.314209,1394.725098 
M1634.429443,1239.000000 
	C1630.345093,1239.334106 1626.182739,1239.276245 1622.189819,1240.070190 
	C1605.052124,1243.478271 1591.369019,1251.903442 1583.464478,1268.080566 
	C1576.984375,1281.342651 1574.149780,1295.354492 1576.045288,1310.083008 
	C1577.121460,1318.446167 1577.800537,1327.012695 1580.202271,1335.024902 
	C1588.337524,1362.163940 1612.017822,1382.977783 1642.338867,1381.009399 
	C1662.014038,1379.731934 1676.626465,1370.331543 1685.895630,1353.128174 
	C1693.405640,1339.189697 1694.549683,1323.906860 1694.060669,1308.328979 
	C1693.399658,1287.269409 1687.323730,1268.683960 1671.489502,1253.920532 
	C1661.250732,1244.374146 1649.188721,1239.684082 1634.429443,1239.000000 
z"/>
	<path fill="#02458D" opacity="1.000000" stroke="none" d="
M725.171997,1383.000000 
	C728.044678,1383.175781 731.362976,1382.100586 730.823730,1386.808350 
	C716.630859,1386.808350 702.510986,1386.808350 688.391052,1386.808350 
	C688.130615,1386.391846 687.870117,1385.975342 687.609680,1385.558960 
	C688.986633,1384.706055 690.307678,1383.233521 691.749695,1383.103638 
	C699.594849,1382.397095 700.476562,1382.107544 702.177002,1374.280518 
	C703.555359,1367.936035 704.185059,1361.419800 704.978760,1354.959229 
	C706.373291,1343.607056 707.715576,1332.247437 708.936584,1320.875488 
	C710.055969,1310.450073 710.872314,1299.991699 712.031799,1289.571167 
	C713.205017,1279.026855 714.721313,1268.521118 715.923523,1257.979736 
	C716.759155,1250.652710 717.208679,1243.280762 718.081604,1235.958862 
	C718.284668,1234.255737 719.507446,1232.673950 720.261108,1231.036377 
	C721.704651,1232.073975 723.791931,1232.791504 724.491577,1234.198853 
	C731.127747,1247.547729 737.528137,1261.013794 743.996521,1274.446045 
	C746.668396,1279.994385 749.303955,1285.560669 752.019531,1291.087524 
	C760.603577,1308.557739 769.260376,1325.992188 777.794189,1343.486816 
	C780.411682,1348.852783 782.723755,1354.367798 785.338196,1360.175659 
	C799.036316,1330.840820 812.493347,1301.983521 825.987000,1273.143188 
	C831.957336,1260.382690 837.947144,1247.630249 844.083069,1234.949097 
	C844.831116,1233.403320 846.544495,1232.324585 847.810547,1231.029419 
	C848.863281,1232.709229 850.584656,1234.290527 850.849182,1236.086426 
	C851.826660,1242.722290 852.276917,1249.434082 853.009888,1256.108032 
	C854.294739,1267.806763 855.709351,1279.491699 856.939148,1291.196167 
	C857.744812,1298.863037 858.179504,1306.569580 859.034424,1314.230103 
	C860.211182,1324.774048 861.672180,1335.285767 862.925720,1345.821533 
	C863.698975,1352.320435 864.339355,1358.835693 864.992493,1365.348389 
	C866.217285,1377.561157 872.108887,1382.955322 884.330200,1382.999634 
	C885.163391,1383.002686 886.083008,1382.776489 886.809692,1383.055054 
	C887.911011,1383.477539 888.878235,1384.249756 889.902466,1384.873291 
	C888.964355,1385.580078 888.015686,1386.912720 887.089844,1386.897095 
	C877.662598,1386.737183 868.237244,1386.402466 858.815369,1386.018433 
	C854.733215,1385.852051 850.658691,1385.477417 846.585083,1385.144043 
	C846.028809,1385.098389 845.498108,1384.740356 844.582214,1384.380127 
	C850.566101,1378.524902 846.283142,1371.930054 846.741333,1365.845581 
	C847.100769,1361.072021 845.460510,1356.178101 845.037109,1351.309082 
	C843.927246,1338.545654 843.144653,1325.752808 841.954285,1312.997559 
	C840.725586,1299.831421 839.169983,1286.695679 837.662781,1272.665771 
	C832.906067,1282.599854 828.431152,1291.859985 824.034607,1301.157227 
	C820.993469,1307.588013 818.105713,1314.091064 815.071106,1320.525024 
	C805.399658,1341.030640 795.691772,1361.519043 785.997498,1382.013916 
	C785.581482,1382.893311 785.257324,1383.834961 784.723694,1384.636719 
	C782.551697,1387.900024 780.549927,1387.829468 778.702332,1384.238892 
	C770.090881,1367.503906 761.319702,1350.845093 753.058167,1333.937866 
	C743.621338,1314.625732 734.662598,1295.079712 724.963013,1274.504517 
	C724.249390,1282.678101 723.664429,1289.837524 722.991394,1296.988647 
	C721.701965,1310.690552 720.352173,1324.386719 719.050293,1338.087402 
	C718.661926,1342.174316 718.240356,1346.262817 718.026001,1350.360596 
	C717.611816,1358.280884 717.226990,1366.205688 717.033875,1374.133545 
	C716.878723,1380.499146 718.071289,1381.715942 725.171997,1383.000000 
z"/>
	<path fill="#02458D" opacity="1.000000" stroke="none" d="
M939.997437,1242.983521 
	C955.700623,1275.241333 971.365295,1307.111328 986.987244,1339.002441 
	C990.242676,1345.648071 993.340271,1352.371216 996.845581,1359.765259 
	C1000.246216,1352.775513 1003.383484,1346.499756 1006.364563,1340.150635 
	C1009.317505,1333.861572 1012.031677,1327.460449 1014.992737,1321.175415 
	C1023.894958,1302.279541 1032.898438,1283.431396 1041.797363,1264.533936 
	C1046.275879,1255.023315 1050.607910,1245.443604 1055.022461,1235.902710 
	C1055.499146,1234.872681 1055.892700,1233.694214 1056.670776,1232.942871 
	C1057.545898,1232.097778 1058.914917,1231.060669 1059.879395,1231.224487 
	C1060.714722,1231.366211 1061.743652,1233.006592 1061.895508,1234.095093 
	C1062.731079,1240.083008 1063.321899,1246.104858 1064.000122,1252.114746 
	C1065.319824,1263.807861 1066.705566,1275.493896 1067.943726,1287.195679 
	C1069.046753,1297.620972 1069.885376,1308.074585 1071.028320,1318.495239 
	C1072.220947,1329.368896 1073.634521,1340.218384 1074.958008,1351.077759 
	C1075.628662,1356.582397 1076.164673,1362.108887 1077.023315,1367.584473 
	C1078.727051,1378.447998 1084.174316,1382.912720 1095.300781,1383.036011 
	C1097.669189,1383.062256 1101.055664,1381.852783 1100.924927,1386.949219 
	C1086.201294,1386.955566 1071.532959,1387.681396 1056.331421,1384.718384 
	C1061.789917,1376.627563 1057.490234,1368.754883 1057.795044,1361.054932 
	C1057.992065,1356.073364 1056.471680,1351.046631 1056.033447,1346.012939 
	C1054.609619,1329.660034 1053.403809,1313.288086 1051.961914,1296.936768 
	C1051.292480,1289.345215 1050.271606,1281.784546 1049.329102,1273.496826 
	C1048.402100,1274.751709 1047.650879,1275.488770 1047.228394,1276.381470 
	C1035.317261,1301.549072 1023.424744,1326.725342 1011.562866,1351.916016 
	C1006.598877,1362.458130 1001.757080,1373.057983 996.731750,1383.570435 
	C996.096497,1384.899170 994.380798,1386.946533 993.689270,1386.756348 
	C992.240234,1386.357910 990.698242,1384.920654 989.963989,1383.509399 
	C980.901917,1366.094116 971.697815,1348.743408 963.098389,1331.099243 
	C954.524658,1313.507812 946.595947,1295.602173 938.372681,1277.839600 
	C937.854126,1276.719482 937.233276,1275.646606 936.313477,1273.890015 
	C935.504883,1284.512817 934.866699,1294.407837 933.972168,1304.279663 
	C932.760376,1317.653076 931.247314,1330.999268 930.062927,1344.374756 
	C929.207153,1354.039062 928.493042,1363.723999 928.062439,1373.415161 
	C927.760925,1380.201172 930.473938,1382.630615 937.458130,1383.041992 
	C939.322144,1383.151855 941.155823,1383.776245 943.245422,1385.425659 
	C942.093384,1385.949707 940.944885,1386.920776 939.788757,1386.929932 
	C926.314209,1387.036377 912.838501,1386.997925 899.363098,1386.997925 
	C899.096497,1386.596069 898.829895,1386.194336 898.563293,1385.792480 
	C899.631104,1384.863647 900.586060,1383.322021 901.784363,1383.101440 
	C912.753601,1381.080566 914.223450,1379.049683 915.099182,1367.870850 
	C915.965698,1356.809937 917.730347,1345.822021 918.933838,1334.783936 
	C919.769165,1327.122070 920.179626,1319.413452 921.034485,1311.754272 
	C922.211121,1301.212646 923.704102,1290.706543 924.916077,1280.168579 
	C925.739807,1273.005981 926.227661,1265.805176 927.022644,1258.638916 
	C927.921265,1250.539307 928.925354,1242.449341 930.070068,1234.381714 
	C930.239258,1233.189819 931.466980,1231.212524 932.150574,1231.235229 
	C933.363708,1231.275635 935.009460,1232.299561 935.632812,1233.392090 
	C937.307312,1236.326904 938.537292,1239.515503 939.997437,1242.983521 
z"/>
	<path fill="#02458D" opacity="1.000000" stroke="none" d="
M1308.000000,1271.267090 
	C1308.333374,1289.817627 1308.623291,1307.904053 1309.016113,1325.988159 
	C1309.264404,1337.411499 1309.525391,1348.838135 1310.070068,1360.249634 
	C1310.285645,1364.767944 1311.143677,1369.274658 1311.959839,1373.740845 
	C1313.308228,1381.119141 1315.178345,1382.324097 1324.386230,1383.012085 
	C1326.773682,1383.190430 1330.174805,1381.891846 1329.911377,1386.432739 
	C1319.694580,1388.303101 1283.540771,1387.252563 1280.520752,1384.502563 
	C1282.069214,1383.921143 1283.301636,1383.044556 1284.517578,1383.067017 
	C1294.469971,1383.251099 1296.812500,1379.858643 1296.902954,1369.211060 
	C1297.172974,1337.392944 1297.000000,1305.571167 1297.000000,1273.750732 
	C1297.000000,1263.588135 1296.940796,1253.425049 1297.043457,1243.263550 
	C1297.067871,1240.846558 1297.465820,1238.396729 1298.006226,1236.033936 
	C1298.400879,1234.309326 1299.310913,1232.702515 1299.991211,1231.043213 
	C1301.448608,1231.986816 1303.168945,1232.683228 1304.322998,1233.911743 
	C1317.898315,1248.365479 1331.402954,1262.885742 1344.895874,1277.416626 
	C1352.758545,1285.884155 1360.580200,1294.390015 1368.396729,1302.900269 
	C1385.091919,1321.077026 1401.771606,1339.267822 1419.483276,1358.570557 
	C1418.949829,1347.741577 1418.246948,1338.104858 1418.057739,1328.458008 
	C1417.819214,1316.300903 1418.129883,1304.134033 1417.964722,1291.974487 
	C1417.786987,1278.884888 1417.471069,1265.793701 1416.957275,1252.713257 
	C1416.519531,1241.564453 1412.922729,1238.226074 1401.604492,1238.046753 
	C1399.048706,1238.006226 1397.199951,1237.831665 1398.228638,1234.455322 
	C1413.367554,1234.455322 1428.594116,1234.455322 1443.820679,1234.455322 
	C1444.051514,1234.845825 1444.282227,1235.236328 1444.512939,1235.626831 
	C1443.167847,1236.417603 1441.888794,1237.732544 1440.466553,1237.912231 
	C1432.603027,1238.905640 1430.013550,1241.669556 1430.002441,1249.661865 
	C1429.991089,1257.825195 1430.058716,1265.989136 1429.989868,1274.151855 
	C1429.679810,1310.896606 1429.342896,1347.641113 1428.966553,1384.385132 
	C1428.951050,1385.897827 1428.442627,1387.405640 1427.838013,1390.681885 
	C1385.138306,1350.487793 1346.970337,1308.025391 1308.000000,1264.818604 
	C1308.000000,1267.213623 1308.000000,1269.007812 1308.000000,1271.267090 
z"/>
	<path fill="#02458D" opacity="1.000000" stroke="none" d="
M656.009033,1351.925537 
	C648.383240,1364.243042 638.785706,1373.981812 626.060608,1380.539062 
	C617.336243,1385.034790 608.265015,1387.777588 598.495667,1389.174927 
	C584.544556,1391.170044 570.772156,1390.359253 557.788940,1385.710205 
	C530.947754,1376.098511 515.789917,1356.134521 509.901703,1328.458252 
	C505.978943,1310.020142 507.971252,1292.397583 515.972656,1275.558960 
	C525.154846,1256.235596 539.269470,1241.871216 560.171936,1235.447876 
	C586.973511,1227.211548 612.693115,1229.707642 636.524170,1244.989136 
	C653.379211,1255.797119 662.785034,1271.714355 665.988770,1291.335327 
	C669.444519,1312.499634 666.864136,1332.716064 656.009033,1351.925537 
M645.999634,1296.672974 
	C645.666260,1295.091309 645.359497,1293.503540 644.995300,1291.928955 
	C642.110229,1279.455200 637.570862,1267.712280 628.665100,1258.226929 
	C614.393188,1243.025879 597.089355,1236.630981 576.127869,1239.896851 
	C557.679626,1242.771118 544.056702,1252.073120 535.871765,1268.685913 
	C528.640198,1283.363770 526.903687,1298.971802 528.791809,1315.318115 
	C530.211548,1327.609497 533.077209,1339.242676 539.424683,1349.791260 
	C551.363281,1369.631836 568.254822,1381.057129 592.260315,1381.106323 
	C615.027100,1381.152954 634.617798,1366.849854 642.061707,1345.054077 
	C647.365662,1329.524048 648.152527,1313.685303 645.999634,1296.672974 
z"/>
	<path fill="#02458D" opacity="1.000000" stroke="none" d="
M1157.233643,1368.732178 
	C1170.184570,1382.371460 1185.902588,1383.980469 1202.213257,1378.700562 
	C1217.994263,1373.591919 1226.530151,1361.282593 1228.899048,1345.075806 
	C1230.154175,1336.488281 1230.805542,1327.749146 1230.908447,1319.068726 
	C1231.179199,1296.242676 1231.007935,1273.411499 1230.995850,1250.582275 
	C1230.991211,1241.868652 1227.382324,1238.316406 1218.662964,1237.913452 
	C1216.942627,1237.833984 1215.273804,1236.640015 1213.838013,1235.342773 
	C1223.283081,1232.782349 1257.432495,1233.767090 1260.221924,1236.206543 
	C1259.015869,1236.839355 1257.998047,1237.671631 1256.851318,1237.928101 
	C1247.084595,1240.112671 1245.032837,1242.639038 1245.011108,1253.186157 
	C1244.971802,1272.182739 1244.845459,1291.180908 1245.051636,1310.175171 
	C1245.201904,1324.022583 1244.848145,1337.812256 1240.936157,1351.179688 
	C1236.986328,1364.677124 1229.128418,1375.136597 1216.570312,1382.199829 
	C1202.920166,1389.877075 1188.658203,1390.931885 1173.454590,1389.201660 
	C1161.819824,1387.877563 1151.622925,1383.688477 1143.078491,1376.297363 
	C1133.974976,1368.422729 1128.568481,1357.683960 1127.198975,1345.799683 
	C1125.673218,1332.558350 1125.329834,1319.147827 1125.082642,1305.799683 
	C1124.749512,1287.809204 1125.036377,1269.807617 1124.983765,1251.811035 
	C1124.959595,1243.545410 1121.264526,1238.647095 1114.858521,1237.991577 
	C1112.230103,1237.722778 1109.613525,1237.337891 1106.991577,1237.005737 
	C1106.926758,1236.515503 1106.861938,1236.025146 1106.797119,1235.534912 
	C1107.829468,1235.025513 1108.859375,1234.078613 1109.894653,1234.072510 
	C1125.863403,1233.978394 1141.832764,1234.006836 1157.801880,1234.006836 
	C1158.040161,1234.512207 1158.278442,1235.017456 1158.516602,1235.522827 
	C1157.197510,1236.348145 1155.950684,1237.723389 1154.547363,1237.907715 
	C1146.568604,1238.955200 1144.006226,1241.633789 1144.003540,1249.584351 
	C1143.994263,1277.579224 1143.612549,1305.582031 1144.173584,1333.565674 
	C1144.430054,1346.356201 1147.811646,1358.641846 1157.233643,1368.732178 
z"/>
	<path fill="#02458D" opacity="1.000000" stroke="none" d="
M1885.961182,1235.700562 
	C1885.231079,1236.748169 1884.553345,1237.828857 1883.787476,1237.895386 
	C1872.572021,1238.869385 1872.428589,1242.197998 1872.188721,1252.098022 
	C1871.607666,1276.072510 1872.380127,1300.078979 1871.843750,1324.055420 
	C1871.564697,1336.528564 1869.743896,1348.916748 1864.190796,1360.503052 
	C1857.102783,1375.291382 1844.809814,1383.403320 1829.792236,1387.884766 
	C1820.095825,1390.778198 1810.139160,1390.452148 1800.061035,1389.135864 
	C1787.322388,1387.472290 1776.031128,1382.996704 1767.294067,1373.619385 
	C1758.509399,1364.191040 1753.585571,1352.482178 1753.161499,1339.710938 
	C1752.290527,1313.484131 1752.375977,1287.226440 1751.963257,1260.983032 
	C1751.883423,1255.896606 1751.457275,1250.804810 1750.953613,1245.739136 
	C1750.527100,1241.450806 1746.232056,1238.467285 1740.494019,1237.975464 
	C1738.315430,1237.788574 1736.161499,1237.315552 1733.996460,1236.972900 
	C1733.930664,1236.478760 1733.864868,1235.984619 1733.799194,1235.490479 
	C1735.118164,1234.993896 1736.445312,1234.050293 1737.754639,1234.074585 
	C1745.339233,1234.214966 1752.918945,1234.793945 1760.501343,1234.811157 
	C1767.074341,1234.826050 1773.647217,1234.170532 1780.223511,1234.089111 
	C1781.774536,1234.069702 1783.339355,1235.165649 1784.897827,1235.748535 
	C1783.498291,1236.499146 1782.157593,1237.739014 1780.688965,1237.915771 
	C1774.225220,1238.693848 1771.105591,1241.870728 1771.009033,1248.439819 
	C1770.652954,1272.687012 1769.872681,1296.940918 1770.195801,1321.179810 
	C1770.355225,1333.132812 1771.096191,1345.284424 1775.983276,1356.644653 
	C1781.365845,1369.156494 1795.078979,1380.584473 1810.359131,1381.117188 
	C1824.039062,1381.594238 1835.864014,1378.068726 1845.422974,1368.059448 
	C1851.719238,1361.466309 1854.737183,1353.211548 1855.883301,1344.451050 
	C1857.074097,1335.348755 1857.792236,1326.130493 1857.908813,1316.952637 
	C1858.190063,1294.800171 1858.009033,1272.641724 1857.995239,1250.485718 
	C1857.990112,1242.275391 1853.957031,1238.290283 1845.776489,1237.917358 
	C1844.026001,1237.837524 1842.323486,1236.706787 1840.598999,1236.060181 
	C1840.766724,1235.373413 1840.934570,1234.686768 1841.102417,1234.000000 
	C1847.164062,1234.000000 1853.225586,1234.000000 1859.287231,1234.000000 
	C1866.779297,1234.000000 1874.272339,1233.936035 1881.762451,1234.057129 
	C1883.171875,1234.079956 1884.569336,1234.841187 1885.961182,1235.700562 
z"/>
	<path fill="#02458D" opacity="1.000000" stroke="none" d="
M484.967224,1360.771362 
	C484.008820,1365.644775 482.939972,1370.052246 482.170593,1374.511353 
	C480.213196,1385.855713 478.241943,1386.046753 466.772064,1387.742920 
	C454.596436,1389.543335 442.078735,1390.327026 429.790375,1389.775024 
	C409.555939,1388.866333 390.521912,1383.854126 374.433838,1370.133301 
	C359.684387,1357.554199 351.615265,1341.929810 348.914337,1322.937012 
	C346.303345,1304.576782 348.373291,1287.010254 357.151917,1270.674194 
	C368.314819,1249.901489 385.712860,1236.933350 409.078949,1233.181030 
	C419.752167,1231.467163 430.765045,1230.825806 441.564819,1231.239868 
	C452.082428,1231.642944 462.521271,1234.037964 473.001587,1235.509521 
	C476.855377,1236.050659 480.728790,1236.452393 484.948059,1236.960449 
	C484.377472,1250.182617 483.821381,1263.067993 483.265289,1275.953247 
	C482.548309,1276.139404 481.831329,1276.325684 481.114349,1276.511841 
	C480.409729,1275.096191 479.143982,1273.703003 479.086273,1272.261475 
	C478.426544,1255.775635 471.641754,1249.175537 457.807037,1244.431152 
	C437.056854,1237.315430 416.145538,1237.619995 396.206482,1246.611938 
	C382.322540,1252.873291 374.171570,1265.048828 370.054443,1279.628540 
	C367.082092,1290.154175 366.135162,1301.036499 367.111237,1311.871216 
	C368.490448,1327.180542 373.771759,1341.001831 383.562195,1353.246582 
	C394.819214,1367.325562 409.472473,1375.499878 426.678497,1378.648071 
	C441.761047,1381.407837 456.925262,1381.391968 470.567932,1372.144775 
	C477.241364,1367.621460 479.012421,1360.671997 481.080231,1353.668579 
	C481.483368,1352.303101 482.932129,1351.246338 483.898590,1350.047119 
	C484.550018,1351.558594 485.613586,1353.034668 485.746887,1354.590454 
	C485.907806,1356.467896 485.279694,1358.413086 484.967224,1360.771362 
z"/>
	<path fill="#02458D" opacity="1.000000" stroke="none" d="
M1949.000000,1294.904175 
	C1949.000000,1297.041748 1949.000000,1298.692139 1949.000000,1301.348877 
	C1964.343506,1298.836670 1980.232666,1305.665894 1995.187988,1295.443237 
	C1994.264648,1305.902832 1993.414551,1315.532471 1992.457764,1326.370361 
	C1991.229126,1325.596558 1989.328369,1325.072998 1989.128296,1324.171753 
	C1986.507080,1312.367188 1984.959351,1310.639893 1973.591309,1310.077759 
	C1965.628540,1309.684082 1957.630371,1310.001831 1949.268188,1310.001831 
	C1949.171509,1311.616943 1949.012817,1313.048462 1949.011353,1314.480225 
	C1948.993774,1331.311768 1948.996826,1348.143311 1949.001343,1364.974854 
	C1949.003540,1373.309326 1952.462036,1377.462402 1960.805908,1377.910522 
	C1968.788452,1378.338989 1976.884033,1378.669800 1984.798462,1377.818970 
	C1993.634888,1376.869141 1996.382935,1374.255737 1999.031738,1363.933960 
	C1999.502197,1362.101440 2000.366211,1360.369873 2001.048584,1358.591675 
	C2001.951904,1358.829834 2002.855103,1359.067993 2003.758423,1359.306152 
	C2002.626587,1367.592163 2001.788208,1375.938110 2000.114868,1384.113159 
	C1999.781128,1385.743652 1996.253418,1387.836060 1994.203979,1387.830078 
	C1969.279785,1387.757690 1944.355957,1387.358887 1919.434570,1386.911621 
	C1918.308960,1386.891357 1917.206299,1385.600952 1916.092773,1384.902100 
	C1916.945068,1384.271973 1917.722046,1383.253784 1918.661011,1383.071777 
	C1928.082886,1381.246338 1929.870728,1379.310181 1929.979980,1369.576294 
	C1930.364868,1335.321289 1930.732178,1301.065674 1930.945679,1266.809326 
	C1930.988770,1259.889526 1930.426147,1252.959106 1929.963867,1246.045532 
	C1929.662964,1241.543457 1925.692749,1238.516602 1919.792603,1238.018188 
	C1918.468628,1237.906372 1917.037842,1238.283325 1915.821899,1237.904175 
	C1914.790771,1237.583008 1913.998535,1236.495239 1913.100586,1235.746704 
	C1913.996704,1235.167725 1914.904053,1234.071167 1915.786865,1234.090576 
	C1923.882202,1234.268433 1931.973511,1234.895142 1940.065430,1234.887451 
	C1949.324463,1234.878784 1958.581299,1234.291138 1967.841919,1234.080444 
	C1974.004761,1233.940186 1980.176514,1234.145264 1986.336304,1233.946533 
	C1989.407349,1233.847534 1992.622437,1233.653809 1995.478516,1232.659180 
	C1998.679443,1231.544800 1999.155884,1233.038940 1998.882202,1235.331665 
	C1998.035034,1242.424194 1997.077759,1249.508179 1995.912720,1256.554199 
	C1995.678833,1257.968750 1994.341553,1259.200928 1993.513184,1260.517212 
	C1993.075806,1260.274292 1992.638550,1260.031494 1992.201172,1259.788574 
	C1992.134033,1258.485352 1992.071777,1257.182007 1991.998901,1255.879028 
	C1991.605469,1248.845825 1987.828125,1244.533203 1980.907715,1244.060913 
	C1970.524292,1243.352173 1960.114136,1243.034424 1949.000000,1242.516968 
	C1949.000000,1260.247314 1949.000000,1277.332153 1949.000000,1294.904175 
z"/>
	<path fill="#02458D" opacity="1.000000" stroke="none" d="
M1526.886963,1234.826172 
	C1525.705444,1236.174438 1524.516968,1237.726074 1523.158691,1237.892578 
	C1515.992065,1238.771362 1513.014526,1241.776367 1513.010498,1248.966431 
	C1512.988403,1288.279541 1512.971313,1327.592529 1513.052612,1366.905518 
	C1513.059326,1370.147339 1513.495239,1373.467896 1514.294434,1376.608765 
	C1515.375732,1380.858276 1519.731567,1382.905640 1526.275513,1383.037109 
	C1528.640259,1383.084595 1532.014282,1381.851440 1531.945801,1386.667236 
	C1514.665527,1386.667236 1497.460205,1386.667236 1480.254761,1386.667236 
	C1480.004517,1386.348511 1479.754150,1386.029785 1479.503906,1385.711182 
	C1480.631348,1384.808960 1481.756714,1383.130249 1482.886475,1383.127441 
	C1492.162231,1383.104004 1493.435913,1380.128296 1493.712524,1370.330933 
	C1494.758789,1333.277466 1494.724487,1296.192261 1494.927246,1259.117920 
	C1494.953125,1254.409302 1494.216431,1249.656982 1493.425293,1244.994019 
	C1492.577637,1239.999023 1488.781250,1238.485107 1484.219360,1237.921265 
	C1482.608154,1237.722046 1481.109131,1236.615723 1479.558838,1235.923462 
	C1479.747803,1235.282227 1479.936768,1234.641113 1480.125610,1234.000000 
	C1485.699585,1234.000000 1491.273926,1233.956055 1496.847412,1234.009644 
	C1506.832520,1234.105591 1516.817017,1234.260254 1526.886963,1234.826172 
z"/>
	<path fill="#FFFFFF" opacity="1.000000" stroke="none" d="
M636.264038,728.293213 
	C634.547424,713.439697 632.985352,698.919800 631.574341,684.385193 
	C630.900696,677.445984 630.434265,670.483582 630.018188,663.523071 
	C629.542297,655.562317 629.226685,647.592041 628.651611,639.177795 
	C628.641052,636.917542 628.994080,635.103455 628.974304,633.293457 
	C628.530640,592.621033 630.277649,552.043213 635.062866,511.650848 
	C642.935242,445.199585 657.720642,380.539795 687.258850,320.010071 
	C713.853394,265.512543 750.292908,219.404312 802.894653,187.565018 
	C838.812195,165.824448 877.942017,153.765701 919.607605,149.650970 
	C966.910278,144.979584 1013.405762,148.353424 1058.486572,164.372864 
	C1105.935425,181.233795 1144.355103,210.528488 1175.587769,250.565079 
	C1184.452759,263.958588 1193.315796,276.620972 1201.303711,289.813110 
	C1207.388062,299.861206 1212.362061,310.581665 1217.830078,321.003052 
	C1221.089966,329.346771 1224.449219,337.653229 1227.593018,346.040527 
	C1243.731689,389.097046 1253.702393,433.631592 1259.102539,479.221008 
	C1260.745850,493.094330 1261.808472,507.036469 1263.075195,521.834290 
	C1263.640381,536.329895 1264.820435,549.940491 1264.765381,563.546082 
	C1264.682129,584.155396 1264.095947,604.779175 1263.056274,625.363098 
	C1262.126831,643.766479 1261.143921,662.240051 1258.655884,680.474121 
	C1255.158813,706.102478 1251.050049,731.705566 1245.757568,757.017273 
	C1237.501831,796.502747 1224.835693,834.662842 1207.328979,871.095093 
	C1187.236938,912.908081 1161.086426,950.272278 1125.758301,981.224609 
	C1125.661133,981.643677 1125.781738,981.822876 1125.943237,981.983032 
	C1125.984253,981.964050 1125.943237,981.883423 1125.943237,981.883423 
	C1122.663940,984.287231 1119.314209,986.601074 1116.116089,989.108582 
	C1075.134521,1021.241028 1028.525269,1039.460083 976.939148,1045.188354 
	C932.989868,1050.068726 889.563171,1047.648315 847.096130,1034.542358 
	C791.520203,1017.390747 747.780884,983.878967 713.229614,936.804077 
	C697.723450,914.932129 685.054871,892.161987 674.568420,868.159912 
	C673.197815,865.022827 671.481262,862.036804 669.924988,858.980835 
	C667.306152,851.326233 664.701660,843.666748 662.066162,836.017944 
	C650.020020,801.056458 641.803101,765.183594 636.264038,728.293213 
M779.845886,741.680603 
	C779.889954,742.126831 779.934021,742.572998 779.834900,743.878174 
	C783.783630,763.369751 787.475098,782.918518 791.796570,802.327087 
	C793.765076,811.168091 796.978394,819.731934 799.552124,828.865662 
	C799.498535,829.161560 799.449341,829.458130 799.133972,830.252563 
	C799.339111,830.542480 799.544189,830.832336 799.963379,831.859863 
	C807.306152,850.905884 813.788574,870.341064 822.188538,888.908813 
	C835.611633,918.580383 853.493408,945.352356 878.943787,966.354858 
	C902.961365,986.175110 930.572693,996.356689 961.752441,995.698914 
	C994.426636,995.009644 1020.873779,980.573303 1042.755981,957.057007 
	C1063.953735,934.276245 1077.954102,907.180054 1088.927246,878.396484 
	C1106.045898,833.492554 1114.887207,786.688904 1120.899414,738.492981 
	C1121.306396,732.717041 1121.770996,726.944458 1122.110718,721.164612 
	C1123.704224,694.063843 1125.263306,666.961060 1126.858521,638.941528 
	C1126.202759,610.673889 1125.546875,582.406311 1125.031616,553.216858 
	C1123.292236,533.382202 1122.098877,513.480957 1119.689697,493.728027 
	C1115.752319,461.446899 1110.291382,429.385803 1101.917114,397.919189 
	C1098.345093,384.496918 1093.960938,371.290741 1089.959106,357.212036 
	C1079.966553,326.390381 1066.907471,297.009033 1048.760010,270.051636 
	C1035.333618,250.107178 1019.368469,232.603271 999.061218,219.404144 
	C954.552551,190.474747 900.476929,193.073746 861.760986,226.119064 
	C843.366943,241.819000 829.838684,261.301300 818.896179,282.676178 
	C796.878967,325.684143 785.336365,371.900269 778.203308,419.280792 
	C774.392700,444.592346 772.310974,470.164215 769.172363,496.572327 
	C768.463501,514.683289 767.220581,532.792725 767.167603,550.905640 
	C767.082336,580.033936 767.003967,609.201538 768.385071,638.283081 
	C769.604858,663.967773 772.636414,689.576721 775.261047,715.178772 
	C776.150208,723.852539 778.240173,732.403076 779.845886,741.680603 
z"/>
	<path fill="#FFFFFF" opacity="1.000000" stroke="none" d="
M1600.955078,644.469604 
	C1601.014893,675.332275 1600.974487,705.741028 1601.007812,736.620239 
	C1600.974121,748.246338 1600.735107,759.402710 1600.786377,770.557739 
	C1600.895020,794.211609 1600.695923,817.879639 1601.460205,841.514771 
	C1602.605713,876.934326 1604.305908,912.339233 1606.167236,947.729553 
	C1606.547974,954.967896 1608.313843,962.206177 1610.085815,969.283142 
	C1613.564209,983.174500 1622.384155,992.529297 1635.611328,997.918030 
	C1648.608032,1003.212708 1662.363647,1004.617676 1676.114502,1005.836243 
	C1693.020630,1007.334351 1709.965698,1008.390503 1726.892700,1009.654785 
	C1732.419800,1010.067566 1735.380493,1013.105225 1736.016235,1018.929749 
	C1736.692627,1025.125732 1734.824951,1028.551880 1729.363037,1030.048340 
	C1726.355835,1030.872314 1723.137695,1031.326294 1720.021606,1031.292114 
	C1679.220947,1030.846436 1638.421387,1030.290894 1597.621826,1029.747803 
	C1563.498169,1029.293701 1529.369263,1028.201050 1495.252319,1028.495605 
	C1440.309814,1028.969727 1385.375610,1030.384399 1330.436157,1031.290283 
	C1326.319458,1031.358276 1322.076050,1030.994263 1318.090942,1030.017456 
	C1312.649780,1028.683716 1310.740112,1024.874878 1311.608643,1018.871216 
	C1312.525513,1012.534302 1315.051514,1010.077454 1320.683960,1009.632263 
	C1348.376709,1007.443176 1376.080078,1005.363770 1403.743164,1002.843018 
	C1410.138550,1002.260254 1416.482788,1000.416016 1422.690552,998.604126 
	C1442.719849,992.758362 1453.645142,978.636169 1455.744141,958.509644 
	C1458.261230,934.375061 1459.388794,910.093323 1460.990845,885.866882 
	C1461.493042,878.273071 1461.583740,870.652100 1461.912842,862.133301 
	C1462.246582,846.425110 1462.734497,831.627869 1462.776733,816.829224 
	C1462.912842,769.034363 1462.893066,721.239014 1462.891235,673.443848 
	C1462.891113,671.486755 1462.463135,669.529602 1462.234375,667.572510 
	C1462.443115,661.086914 1462.651855,654.601257 1462.907227,647.181091 
	C1462.942871,613.522949 1462.939209,580.799316 1462.904053,548.075745 
	C1462.901855,545.929626 1462.658813,543.783813 1462.527832,541.637817 
	C1462.636963,539.149475 1462.844482,536.661011 1462.840698,534.172852 
	C1462.787964,500.351532 1462.808228,466.529633 1462.602539,432.709106 
	C1462.403931,400.068054 1462.020996,367.427643 1461.567261,334.789093 
	C1461.502808,330.162720 1460.951050,325.467987 1459.975464,320.944977 
	C1457.937012,311.494171 1451.921509,306.781891 1442.608643,308.949860 
	C1431.177979,311.610870 1419.687256,314.851440 1408.957397,319.527496 
	C1378.645264,332.737549 1348.728149,346.852020 1318.606323,360.501892 
	C1313.167969,362.966339 1307.602173,365.255463 1301.909180,367.028595 
	C1292.485352,369.963776 1285.687744,363.380341 1287.507202,353.469574 
	C1288.654175,347.221863 1292.798706,343.245514 1297.775269,339.959747 
	C1359.573120,299.158600 1421.486206,258.531128 1483.149048,217.527039 
	C1512.112183,198.267395 1540.540527,178.204727 1569.355591,158.719452 
	C1574.954468,154.933350 1580.961548,151.460739 1587.241455,149.039352 
	C1596.729980,145.380768 1603.496094,148.902145 1604.838135,158.848709 
	C1606.206055,168.988602 1606.131958,179.396317 1605.885864,189.667496 
	C1605.036621,225.105972 1603.721436,260.533051 1602.807251,295.970276 
	C1602.086182,323.927307 1601.694580,351.892822 1601.122070,380.789673 
	C1601.056152,433.482941 1601.024780,485.241180 1600.993164,536.999390 
	C1600.918945,563.712097 1600.831787,590.424805 1600.777954,617.137512 
	C1600.759888,626.096863 1600.826904,635.056335 1600.955078,644.469604 
z"/>
	<path fill="#9BA5CD" opacity="1.000000" stroke="none" d="
M1462.235962,541.783569 
	C1462.658813,543.783813 1462.901855,545.929626 1462.904053,548.075745 
	C1462.939209,580.799316 1462.942871,613.522949 1462.890259,646.725830 
	C1456.121338,654.567017 1449.271973,661.803467 1442.735840,669.312683 
	C1415.310791,700.821045 1387.981934,732.413452 1360.613037,763.970886 
	C1324.193970,805.963684 1287.784790,847.965027 1251.344116,889.939148 
	C1219.376587,926.760803 1187.375854,963.553833 1155.381470,1000.352234 
	C1136.927002,1021.577637 1118.455933,1042.788696 1099.535767,1064.035767 
	C1098.937866,1063.941162 1098.796509,1063.817139 1098.655029,1063.692993 
	C1105.661377,1043.136963 1112.682495,1022.585876 1119.665283,1002.021912 
	C1121.848877,995.590759 1123.929321,989.124634 1126.000000,982.278931 
	C1125.943237,981.883423 1125.984253,981.964050 1126.128174,981.916565 
	C1126.173462,981.574341 1126.074829,981.279541 1125.976074,980.984802 
	C1161.086426,950.272278 1187.236938,912.908081 1207.328979,871.095093 
	C1224.835693,834.662842 1237.501831,796.502747 1245.757568,757.017273 
	C1251.050049,731.705566 1255.158813,706.102478 1258.655884,680.474121 
	C1261.143921,662.240051 1262.126831,643.766479 1263.056274,625.363098 
	C1264.095947,604.779175 1264.682129,584.155396 1264.765381,563.546082 
	C1264.820435,549.940491 1263.640381,536.329895 1263.085083,522.276367 
	C1266.424561,519.374207 1269.842163,517.091675 1272.937378,514.433716 
	C1312.865601,480.147705 1352.746460,445.806732 1392.647339,411.488831 
	C1393.752319,410.538422 1394.944214,409.689026 1397.294800,409.375275 
	C1358.080078,522.960938 1318.865356,636.546570 1279.650635,750.132263 
	C1279.991821,750.323730 1280.333130,750.515198 1280.674316,750.706665 
	C1341.097656,681.114258 1401.520874,611.521790 1462.235962,541.783569 
z"/>
	<path fill="#9AA4CD" opacity="1.000000" stroke="none" d="
M1601.238281,536.757568 
	C1601.024780,485.241180 1601.056152,433.482941 1601.145752,381.242584 
	C1609.294556,371.722473 1617.493164,362.778473 1625.455688,353.629028 
	C1650.589844,324.748962 1675.622925,295.781128 1700.719238,266.868195 
	C1721.670288,242.730835 1742.661743,218.628464 1763.602295,194.481964 
	C1764.448730,193.505981 1764.957764,192.237366 1765.624023,191.105240 
	C1766.139893,191.501526 1766.655640,191.897812 1767.171387,192.294113 
	C1765.787964,195.388794 1764.481445,198.520615 1763.009521,201.572632 
	C1732.724731,264.367126 1702.411133,327.147736 1672.124390,389.941315 
	C1648.562378,438.792297 1625.029297,487.657104 1601.238281,536.757568 
z"/>
	<path fill="#9AA4CD" opacity="1.000000" stroke="none" d="
M1218.112305,320.782837 
	C1212.362061,310.581665 1207.388062,299.861206 1201.303711,289.813110 
	C1193.315796,276.620972 1184.452759,263.958588 1175.878906,250.752716 
	C1222.243774,192.627991 1268.695801,134.819031 1315.147705,77.010063 
	C1315.526245,77.238052 1315.904785,77.466049 1316.283447,77.694038 
	C1283.653809,158.650238 1251.024170,239.606445 1218.112305,320.782837 
z"/>
	<path fill="#9AA4CD" opacity="1.000000" stroke="none" d="
M1767.635254,190.747559 
	C1767.428467,190.787735 1767.350830,190.686035 1767.273315,190.584320 
	C1767.437134,190.591431 1767.600830,190.598541 1767.635254,190.747559 
z"/>
	<path fill="#9BA5CD" opacity="1.000000" stroke="none" d="
M1397.406860,407.691071 
	C1397.346680,407.590729 1397.563965,407.517456 1397.563965,407.517456 
	C1397.563965,407.517456 1397.467041,407.791412 1397.406860,407.691071 
z"/>
	<path fill="#9BA5CD" opacity="1.000000" stroke="none" d="
M1461.963623,667.763550 
	C1462.463135,669.529602 1462.891113,671.486755 1462.891235,673.443848 
	C1462.893066,721.239014 1462.912842,769.034363 1462.776733,816.829224 
	C1462.734497,831.627869 1462.246582,846.425110 1461.896362,861.700256 
	C1455.239014,867.682617 1448.500122,873.021118 1442.080688,878.719543 
	C1395.775513,919.824280 1349.536133,961.003235 1303.264282,1002.145447 
	C1302.466553,1002.854675 1301.521362,1003.397949 1299.560547,1004.786316 
	C1300.605225,1002.278564 1301.089233,1000.940796 1301.703979,999.666016 
	C1331.764038,937.334412 1361.855957,875.018066 1391.898926,812.678223 
	C1414.936035,764.875793 1437.912842,717.044312 1460.922729,669.228821 
	C1461.137085,668.783630 1461.434326,668.378418 1461.963623,667.763550 
z"/>
	<path fill="#9AA4CD" opacity="1.000000" stroke="none" d="
M669.618042,859.174561 
	C671.481262,862.036804 673.197815,865.022827 674.568420,868.159912 
	C685.054871,892.161987 697.723450,914.932129 712.921814,936.669983 
	C675.281189,983.996826 637.548401,1030.992798 599.800537,1077.976440 
	C599.515137,1078.331787 599.023804,1078.521606 598.143982,1079.116211 
	C598.269775,1077.815430 598.197021,1076.911987 598.456604,1076.117188 
	C622.058350,1003.862183 645.685669,931.615540 669.618042,859.174561 
z"/>
	<path fill="#FAFAFC" opacity="1.000000" stroke="none" d="
M1928.950562,1096.019043 
	C1927.871338,1091.130493 1926.844238,1086.659302 1925.817017,1082.187988 
	C1925.567993,1082.224976 1925.319092,1082.262085 1925.070068,1082.299194 
	C1925.070068,1092.694092 1925.070068,1103.088989 1925.070068,1113.740723 
	C1922.378784,1113.740723 1919.964355,1113.740723 1917.270996,1113.740723 
	C1917.270996,1099.974121 1917.270996,1086.237915 1917.270996,1072.249023 
	C1921.451294,1072.249023 1925.548340,1072.249023 1929.940552,1072.249023 
	C1932.336548,1082.529175 1934.743774,1092.856934 1937.492798,1104.651611 
	C1940.177368,1092.939331 1942.531006,1082.670166 1944.919434,1072.249878 
	C1949.180054,1072.249878 1953.247070,1072.249878 1957.543701,1072.249878 
	C1957.543701,1086.099487 1957.543701,1099.698853 1957.543701,1113.650757 
	C1955.098755,1113.650757 1952.704834,1113.650757 1949.964233,1113.650757 
	C1949.964233,1103.309570 1949.964233,1092.894775 1949.964233,1082.480103 
	C1949.594238,1082.412354 1949.224121,1082.344727 1948.854126,1082.276978 
	C1946.483032,1092.672485 1944.111938,1103.067871 1941.681274,1113.724487 
	C1938.902954,1113.724487 1936.127319,1113.724487 1932.933594,1113.724487 
	C1931.640747,1108.038818 1930.321655,1102.237549 1928.950562,1096.019043 
z"/>
	<path fill="#FFFFFF" opacity="1.000000" stroke="none" d="
M1898.336670,1111.869873 
	C1895.636475,1113.092407 1892.948242,1113.827759 1889.656738,1114.728149 
	C1889.656738,1102.370850 1889.656738,1091.267700 1889.656738,1079.642334 
	C1885.423096,1079.642334 1881.521362,1079.642334 1877.314209,1079.642334 
	C1877.314209,1076.896973 1877.314209,1074.675537 1877.314209,1072.226685 
	C1888.493042,1072.226685 1899.564087,1072.226685 1910.884033,1072.226685 
	C1910.884033,1074.471436 1910.884033,1076.553345 1910.884033,1079.163818 
	C1906.976318,1079.163818 1903.074097,1079.163818 1898.348633,1079.163818 
	C1898.348633,1090.237915 1898.348633,1100.810303 1898.336670,1111.869873 
z"/>
	<path fill="#9BA5CD" opacity="1.000000" stroke="none" d="
M1099.288696,1064.254150 
	C1099.087402,1064.753540 1098.676636,1065.064087 1098.265869,1065.374634 
	C1098.267700,1064.947266 1098.269653,1064.520020 1098.463379,1063.892822 
	C1098.796509,1063.817139 1098.937866,1063.941162 1099.288696,1064.254150 
z"/>
	<path fill="#9AA4CD" opacity="1.000000" stroke="none" d="
M597.408691,1080.281006 
	C597.592102,1080.249023 597.657349,1080.344849 597.722656,1080.440796 
	C597.578674,1080.430176 597.434631,1080.419556 597.408691,1080.281006 
z"/>
	<path fill="#9BA5CD" opacity="1.000000" stroke="none" d="
M416.032837,947.041992 
	C415.909637,947.367676 415.626892,947.532410 415.344177,947.697144 
	C415.304108,947.455139 415.264038,947.213074 415.380829,946.773743 
	C415.537689,946.576416 415.873322,946.881042 416.032837,947.041992 
z"/>
	<path fill="#FFFFFF" opacity="1.000000" stroke="none" d="
M1634.904785,1239.000000 
	C1649.188721,1239.684082 1661.250732,1244.374146 1671.489502,1253.920532 
	C1687.323730,1268.683960 1693.399658,1287.269409 1694.060669,1308.328979 
	C1694.549683,1323.906860 1693.405640,1339.189697 1685.895630,1353.128174 
	C1676.626465,1370.331543 1662.014038,1379.731934 1642.338867,1381.009399 
	C1612.017822,1382.977783 1588.337524,1362.163940 1580.202271,1335.024902 
	C1577.800537,1327.012695 1577.121460,1318.446167 1576.045288,1310.083008 
	C1574.149780,1295.354492 1576.984375,1281.342651 1583.464478,1268.080566 
	C1591.369019,1251.903442 1605.052124,1243.478271 1622.189819,1240.070190 
	C1626.182739,1239.276245 1630.345093,1239.334106 1634.904785,1239.000000 
z"/>
	<path fill="#FFFFFF" opacity="1.000000" stroke="none" d="
M645.999817,1297.121582 
	C648.152527,1313.685303 647.365662,1329.524048 642.061707,1345.054077 
	C634.617798,1366.849854 615.027100,1381.152954 592.260315,1381.106323 
	C568.254822,1381.057129 551.363281,1369.631836 539.424683,1349.791260 
	C533.077209,1339.242676 530.211548,1327.609497 528.791809,1315.318115 
	C526.903687,1298.971802 528.640198,1283.363770 535.871765,1268.685913 
	C544.056702,1252.073120 557.679626,1242.771118 576.127869,1239.896851 
	C597.089355,1236.630981 614.393188,1243.025879 628.665100,1258.226929 
	C637.570862,1267.712280 642.110229,1279.455200 644.995300,1291.928955 
	C645.359497,1293.503540 645.666260,1295.091309 645.999817,1297.121582 
z"/>
	<path fill="#03458D" opacity="1.000000" stroke="none" d="
M769.449036,495.618591 
	C772.310974,470.164215 774.392700,444.592346 778.203308,419.280792 
	C785.336365,371.900269 796.878967,325.684143 818.896179,282.676178 
	C829.838684,261.301300 843.366943,241.819000 861.760986,226.119064 
	C900.476929,193.073746 954.552551,190.474747 999.061218,219.404144 
	C1019.368469,232.603271 1035.333618,250.107178 1048.760010,270.051636 
	C1066.907471,297.009033 1079.966553,326.390381 1089.654297,357.747620 
	C1087.441162,360.591003 1085.502930,362.874847 1083.628906,365.210205 
	C1040.927124,418.424042 998.242126,471.651306 955.533813,524.859863 
	C902.824402,590.528503 850.113892,656.196228 797.350403,721.821411 
	C792.079346,728.377441 786.439758,734.637146 780.931274,740.640320 
	C781.147034,739.286621 781.357666,738.312378 781.664734,737.369507 
	C798.765991,684.862793 815.851196,632.350891 832.989746,579.856323 
	C855.909851,509.653290 878.873535,439.464447 901.804810,369.265015 
	C902.329956,367.657410 902.691589,365.996399 903.129456,364.360260 
	C896.919800,369.384186 891.511169,374.719849 886.138550,380.091461 
	C848.549011,417.673035 810.971924,455.267090 773.358032,492.824249 
	C772.239807,493.940796 770.760193,494.695312 769.449036,495.618591 
z"/>
	<path fill="#9BA5CD" opacity="1.000000" stroke="none" d="
M780.971191,741.034424 
	C786.439758,734.637146 792.079346,728.377441 797.350403,721.821411 
	C850.113892,656.196228 902.824402,590.528503 955.533813,524.859863 
	C998.242126,471.651306 1040.927124,418.424042 1083.628906,365.210205 
	C1085.502930,362.874847 1087.441162,360.591003 1089.647705,358.134766 
	C1093.960938,371.290741 1098.345093,384.496918 1101.917114,397.919189 
	C1110.291382,429.385803 1115.752319,461.446899 1119.689697,493.728027 
	C1122.098877,513.480957 1123.292236,533.382202 1124.672729,553.855652 
	C1106.487793,598.684631 1088.661743,642.874756 1070.835693,687.064880 
	C1071.202637,687.277832 1071.569702,687.490723 1071.936768,687.703613 
	C1090.236084,671.755432 1108.535400,655.807251 1126.834717,639.859009 
	C1125.263306,666.961060 1123.704224,694.063843 1122.110718,721.164612 
	C1121.770996,726.944458 1121.306396,732.717041 1120.449707,738.536682 
	C1118.397827,739.521851 1116.609497,740.246460 1115.221680,741.437622 
	C1097.151611,756.947083 1079.154419,772.541321 1061.107422,788.077820 
	C1016.308350,826.644958 971.495117,865.195618 926.682617,903.747192 
	C918.391724,910.879761 910.077698,917.985352 901.774292,925.103455 
	C901.461792,924.900635 901.149292,924.697815 900.836853,924.494995 
	C959.941223,777.691101 1019.045593,630.887207 1078.150024,484.083374 
	C1075.932251,485.334290 1074.438721,487.008179 1073.035278,488.754395 
	C1055.300049,510.821350 1037.572510,532.894531 1019.853333,554.974243 
	C952.936035,638.359314 886.035278,721.757690 819.086426,805.117371 
	C812.750549,813.006287 806.120544,820.659058 799.627136,828.421448 
	C796.978394,819.731934 793.765076,811.168091 791.796570,802.327087 
	C787.475098,782.918518 783.783630,763.369751 780.174072,743.290222 
	C780.686035,742.123291 780.858826,741.544250 781.016357,740.982422 
	C781.001038,740.999512 780.971252,741.034424 780.971191,741.034424 
z"/>
	<path fill="#03458D" opacity="1.000000" stroke="none" d="
M799.589600,828.643555 
	C806.120544,820.659058 812.750549,813.006287 819.086426,805.117371 
	C886.035278,721.757690 952.936035,638.359314 1019.853333,554.974243 
	C1037.572510,532.894531 1055.300049,510.821350 1073.035278,488.754395 
	C1074.438721,487.008179 1075.932251,485.334290 1078.150024,484.083374 
	C1019.045593,630.887207 959.941223,777.691101 900.836853,924.494995 
	C901.149292,924.697815 901.461792,924.900635 901.774292,925.103455 
	C910.077698,917.985352 918.391724,910.879761 926.682617,903.747192 
	C971.495117,865.195618 1016.308350,826.644958 1061.107422,788.077820 
	C1079.154419,772.541321 1097.151611,756.947083 1115.221680,741.437622 
	C1116.609497,740.246460 1118.397827,739.521851 1120.191528,738.862122 
	C1114.887207,786.688904 1106.045898,833.492554 1088.927246,878.396484 
	C1077.954102,907.180054 1063.953735,934.276245 1042.755981,957.057007 
	C1020.873779,980.573303 994.426636,995.009644 961.752441,995.698914 
	C930.572693,996.356689 902.961365,986.175110 878.943787,966.354858 
	C853.493408,945.352356 835.611633,918.580383 822.188538,888.908813 
	C813.788574,870.341064 807.306152,850.905884 799.912598,831.242615 
	C799.709473,830.335388 799.557007,830.045349 799.404602,829.755371 
	C799.449341,829.458130 799.498535,829.161560 799.589600,828.643555 
z"/>
	<path fill="#9BA5CD" opacity="1.000000" stroke="none" d="
M769.310669,496.095459 
	C770.760193,494.695312 772.239807,493.940796 773.358032,492.824249 
	C810.971924,455.267090 848.549011,417.673035 886.138550,380.091461 
	C891.511169,374.719849 896.919800,369.384186 903.129456,364.360260 
	C902.691589,365.996399 902.329956,367.657410 901.804810,369.265015 
	C878.873535,439.464447 855.909851,509.653290 832.989746,579.856323 
	C815.851196,632.350891 798.765991,684.862793 781.664734,737.369507 
	C781.357666,738.312378 781.147034,739.286621 780.931274,740.640381 
	C780.971252,741.034424 781.001038,740.999512 780.704163,741.004272 
	C780.198669,741.009399 779.990051,741.009644 779.781372,741.009949 
	C778.240173,732.403076 776.150208,723.852539 775.261047,715.178772 
	C772.636414,689.576721 769.604858,663.967773 768.385071,638.283081 
	C767.003967,609.201538 767.082336,580.033936 767.167603,550.905640 
	C767.220581,532.792725 768.463501,514.683289 769.310669,496.095459 
z"/>
	<path fill="#06478E" opacity="1.000000" stroke="none" d="
M1126.846680,639.400269 
	C1108.535400,655.807251 1090.236084,671.755432 1071.936768,687.703613 
	C1071.569702,687.490723 1071.202637,687.277832 1070.835693,687.064880 
	C1088.661743,642.874756 1106.487793,598.684631 1124.602539,554.316528 
	C1125.546875,582.406311 1126.202759,610.673889 1126.846680,639.400269 
z"/>
	<path fill="#03458D" opacity="1.000000" stroke="none" d="
M779.813599,741.345276 
	C779.990051,741.009644 780.198669,741.009399 780.719482,740.987183 
	C780.858826,741.544250 780.686035,742.123291 780.245667,742.860718 
	C779.934021,742.572998 779.889954,742.126831 779.813599,741.345276 
z"/>
	<path fill="#07488F" opacity="1.000000" stroke="none" d="
M1125.758301,981.224609 
	C1126.074829,981.279541 1126.173462,981.574341 1126.087158,981.935547 
	C1125.781738,981.822876 1125.661133,981.643677 1125.758301,981.224609 
z"/>
	<path fill="#9BA5CD" opacity="1.000000" stroke="none" d="
M799.269287,830.003967 
	C799.557007,830.045349 799.709473,830.335388 799.805603,830.873779 
	C799.544189,830.832336 799.339111,830.542480 799.269287,830.003967 
z"/>
</svg>