<svg xmlns="http://www.w3.org/2000/svg" viewBox="0 0 281 181"><title>01 Communique</title><style>.s0{fill:#5b70ab}.s1{fill:#00458d}.s3{fill:#fff}</style><g id="Layer"><path d="m210.3 98.9 5.4 6.3c15.6-13.3 44.8-37.2 64.9-48l-3.9-7.3c-20.8 11.2-50.5 35.5-66.4 49M.5 124.1l55.8-37.7 4.6 6.8-55.8 37.7z" class="s0"/><path d="M42.9.3h198.5v138.9H42.9z" class="s1"/><path d="M141 30.9s-30.4 37.9-47.1 58.7c4.7-14.4 15-45.9 15-45.9S79.7 73 67.8 84.8c2.1-6.7 7.5-24.5 7.5-24.5L.5 110l4.6 6.9S46.6 89.3 60.6 80c-2.6 8.6-10.5 34.1-10.5 34.1l40.2-40.2C85.4 89 72 130 72 130s40.1-50 58-72.2c-7.3 18.2-21.6 53.6-21.6 53.6s30.1-25.9 41.9-36.1l-18.3 53s31.1-35.8 46.4-53.5c-6.6 13.8-22.2 46.1-22.2 46.1s35.8-31.8 47.4-42.2c-2 8.1-7.3 29.4-7.3 29.4l10-8.9c.5-.4 46.4-41.2 74.3-56.1l-3.9-7.3c-21 11.2-50.7 35.6-66 48.6 2-8.2 7.4-29.6 7.4-29.6s-24.2 21.5-36.6 32.5c7.9-16.4 31.1-64.6 31.1-64.6s-43.8 50.5-58.9 67.9c4.6-13.3 14.4-41.6 14.4-41.6s-27.4 23.6-39.4 33.9c7.2-17.8 29.7-73.8 29.7-73.8z" style="fill:#9aa4cc"/><path fill-rule="evenodd" d="M113 125.8c-29.6 0-37-29.8-37-50.9 0-32.6 12.1-57 39.2-57 29.8 0 37 29.9 37 50.8 0 32.8-12.6 57.2-39.2 57.1m-.8-101.7c-12 0-19.8 16-19.8 45.6 0 24.1 6.3 50 23.1 50 12.1 0 20.1-16.3 20.1-45.6 0-23.8-6.7-50-23.4-50" class="s3"/><path d="M176 60.2c0-7.4-.1-13.4-.1-18 0-3.3 0-5-2.1-5-2.6 0-12.9 5.4-16 6.6-.7.3-1.4.6-1.9.6-.4 0-1-.7-1-1.5s.7-1.5 1.4-1.9c.6-.3 26.9-17.6 31.8-21.2 1.1-.8 2.5-1.8 3.6-1.8 1.2 0 1.5 1.5 1.5 2.9 0 1.1-.7 14.7-.7 35.8v25.5c0 13.2 0 24.9.6 31 .4 4.4 1.1 6.5 5.5 7.4 2.1.4 8 .8 9.1.8.6 0 1.1.4 1.1 1.4s-.7 1.2-2.2 1.2c-10.5 0-19.3-.4-23-.4-3.2 0-14.7.4-23.5.4-1.5 0-2.2-.3-2.2-1.2 0-1 .6-1.4 1.1-1.4 1.5 0 8.4-.4 11-1 4.3-1 5.1-2.9 5.5-7.3.5-6.1.5-17.8.5-31z" class="s3"/><path d="M45.1 164.3c-2.3-2.1-2.9-4.9-2.9-7.2 0-1.6.6-4.4 2.7-6.6 1.5-1.5 3.7-2.6 7.4-2.6 1 0 2.3.1 3.5.3.9.2 1.7.3 2.5.4.3 0 .3.1.3.3s-.1.5-.1 1.4c0 .8 0 2.1-.1 2.5 0 .4-.1.5-.2.5-.2 0-.2-.2-.2-.5 0-.9-.4-1.9-1-2.5-.8-.7-2.7-1.4-4.8-1.4-3.2 0-4.7.9-5.6 1.8-1.8 1.7-2.2 3.8-2.2 6.3 0 4.6 3.6 8.8 8.7 8.8 1.8 0 3.2-.2 4.2-1.2.5-.5.8-1.6.9-2 0-.3.1-.4.2-.4s.2.2.2.4-.3 2.3-.5 3.1c-.1.5-.2.5-.6.7-1 .4-2.8.6-4.4.6-3.6-.1-6.1-1-8-2.7" class="s1"/><path fill-rule="evenodd" d="M70.9 147.9c5.4 0 9.5 3.5 9.5 9.1 0 5.4-3.8 9.9-9.6 9.9-6.6 0-9.4-5.1-9.4-9.5 0-3.9 2.9-9.4 9.5-9.5m.5 18c2.2 0 6.7-1.3 6.7-8.3 0-5.8-3.5-8.9-7.3-8.9-4.1 0-7.1 2.7-7.1 8 0 5.7 3.4 9.3 7.7 9.2" class="s1"/><path d="M104 163.5c.1.9.3 2.2 1.3 2.6.7.2 1.3.2 1.6.2.1 0 .2 0 .2.1s-.2.2-.5.2c-.5 0-3.1-.1-4-.1-.6-.1-.7-.1-.7-.2s0-.1.2-.2c.1 0 .1-.4.1-.9l-1.2-12.5h-.1L95 165.3c-.5 1.1-.6 1.3-.8 1.3s-.3-.2-.8-1.1l-2.8-5.6c-.2-.4-2.9-6.2-3.2-6.9h-.1l-1 11.2v1.2c0 .4.3.7.6.7.4.1.8.1.9.1s.2 0 .2.1c0 .2-.1.2-.4.2-.9 0-2.1-.1-2.2-.1-.2 0-1.4.1-2 .1-.2 0-.4 0-.4-.2 0-.1.1-.1.2-.1.2 0 .4 0 .7-.1.8-.1.9-1.1 1-2l1.7-15.8c0-.3.1-.4.3-.4.1 0 .2.1.4.4l7.4 15.2 7.1-15.2c.1-.2.2-.4.4-.4s.2.2.3.7zM129.4 163.5c.1.9.3 2.2 1.3 2.6.7.2 1.3.2 1.6.2.1 0 .2 0 .2.1s-.2.2-.5.2c-.5 0-3.1-.1-4-.1-.6-.1-.7-.1-.7-.2s0-.1.2-.2c.1 0 .1-.4.1-.9l-1.2-12.5h-.1l-5.9 12.6c-.5 1.1-.6 1.3-.8 1.3s-.3-.2-.7-1.1l-2.8-5.6c-.2-.4-2.9-6.2-3.2-6.9h-.1l-1 11.2v1.2c0 .4.3.7.6.7.4.1.8.1.9.1s.2 0 .2.1c0 .2-.1.2-.4.2-.9 0-2.1-.1-2.2-.1-.2 0-1.4.1-2 .1-.2 0-.4 0-.4-.2 0-.1.1-.1.2-.1.2 0 .4 0 .7-.1.8-.1.9-1.1 1-2l1.7-15.8c0-.3.1-.4.3-.4.1 0 .2.1.4.4l7.4 15.2 7.1-15.2c.1-.2.2-.4.4-.4s.2.2.3.7zM135.5 155.3v-5.2c0-.8-.2-1.2-1-1.4-.2 0-.6-.1-.8-.1-.1 0-.2 0-.2-.1s.1-.2.4-.2c1.1 0 2.6.1 2.8.1s1.7-.1 2.4-.1c.3 0 .4 0 .4.2 0 .1-.1.1-.2.1-.2 0-.3 0-.6.1-.7.1-.8.5-.9 1.4v8.6c0 3.5.8 5 1.8 6 1.2 1.1 2.3 1.3 3.7 1.3 1.5 0 2.9-.7 3.8-1.7 1.1-1.4 1.4-3.4 1.4-5.9v-8.2c0-.8-.2-1.2-1-1.4-.2 0-.6-.1-.8-.1-.1 0-.2 0-.2-.1s.1-.2.4-.2c1.1 0 2.4.1 2.6.1s1.3-.1 2-.1c.3 0 .4 0 .4.2 0 .1-.1.1-.2.1-.2 0-.3 0-.6.1-.7.1-.8.5-.9 1.4v7.8c0 2.6-.3 5.5-2.2 7.2-1.7 1.5-3.6 1.8-5 1.8-.8 0-3.3-.1-5-1.7-1.2-1.1-2.1-2.8-2.1-6.4v-3.6zM157.6 163.3c0 2 .3 2.6.9 2.8.5.1 1 .1 1.2.1.1 0 .2 0 .2.1s-.1.2-.4.2c-1.4 0-2.3-.1-2.6-.1-.2 0-1.2.1-2.3.1-.2 0-.4 0-.4-.2 0-.1.1-.1.2-.1.2 0 .6 0 1-.1.6-.2.7-.9.7-3.1v-13.9c0-.9.1-1.2.3-1.2s.6.5.8.8c.4.4 4 4.3 7.7 8.3 2.4 2.6 5 5.5 5.8 6.3l-.3-12.3c0-1.6-.2-2.1-.9-2.3-.4-.1-1-.1-1.2-.1s-.2-.1-.2-.2.2-.2.5-.2c1.1 0 2.2.1 2.5.1s1.1-.1 2.1-.1c.3 0 .4 0 .4.2 0 .1-.1.2-.3.2-.1 0-.3 0-.6.1-.8.2-.9.7-.9 2.2v14.2c0 1.6 0 1.7-.2 1.7s-.5-.3-1.8-1.5c-.3-.2-3.7-3.8-6.3-6.6-2.8-3-5.5-6.1-6.3-6.9zM181.8 159.6c0 2.3 0 4.2.1 5.2.1.7.2 1.2.9 1.3.3 0 .9.1 1.1.1.1 0 .2.1.2.1 0 .1-.1.2-.4.2-1.3 0-2.9-.1-3-.1s-1.6.1-2.4.1c-.3 0-.4 0-.4-.2 0-.1 0-.1.2-.1s.5 0 .7-.1c.5-.1.6-.6.7-1.3.1-1 .1-2.9.1-5.2v-9.5c0-.8-.3-1.2-.8-1.4-.3-.1-.6-.1-.8-.1-.1 0-.2 0-.2-.1s.1-.2.4-.2c.8 0 2.3.1 2.4.1s1.6-.1 2.4-.1c.3 0 .4 0 .4.2 0 .1-.1.1-.2.1-.2 0-.3 0-.6.1-.7.1-.8.5-.9 1.4v9.5z" class="s1"/><path fill-rule="evenodd" d="M200.5 166c-.9.4-2.5.8-3.8.8-6.7 0-9.5-5.1-9.5-9.5 0-4 2.8-9.5 9.5-9.5 5.4 0 9.5 3.5 9.5 9.1 0 4.2-2.7 7.1-4.3 8.1l5 2.6c5.3 2.8 9 2.9 10.2 2.9s3.1-.2 4.8-.9c.1-.1.2-.1.3-.1s.1 0 .1.1-.1.1-.2.2c-1.4.7-4.1 1.7-7.7 1.7-3 0-6.1-1-10-3.2zm-3.4-.1c2.2 0 6.7-1.3 6.7-8.3 0-5.8-3.5-8.9-7.3-8.9-4.1 0-7.1 2.7-7.1 8 0 5.7 3.4 9.3 7.7 9.2" class="s1"/><path d="M210.7 155.3v-5.2c0-.8-.2-1.2-1-1.4-.2 0-.6-.1-.8-.1-.1 0-.2 0-.2-.1s.1-.2.4-.2c1.1 0 2.6.1 2.8.1s1.7-.1 2.4-.1c.3 0 .4 0 .4.2 0 .1-.1.1-.2.1-.2 0-.3 0-.6.1-.7.1-.8.5-.9 1.4v8.6c0 3.5.8 5 1.8 6 1.2 1.1 2.3 1.3 3.7 1.3 1.5 0 2.9-.7 3.8-1.7 1.1-1.4 1.4-3.4 1.4-5.9v-8.2c0-.8-.2-1.2-1-1.4-.2 0-.6-.1-.8-.1-.1 0-.2 0-.2-.1s.1-.2.4-.2c1.1 0 2.4.1 2.6.1s1.3-.1 2-.1c.3 0 .4 0 .4.2 0 .1-.1.1-.2.1-.2 0-.3 0-.6.1-.7.1-.8.5-.9 1.4v7.8c0 2.6-.3 5.5-2.2 7.2-1.7 1.5-3.6 1.8-5 1.8-.8 0-3.3-.1-5-1.7-1.2-1.1-2.1-2.8-2.1-6.4v-3.6zM232.2 155.3v-5.2c0-.8-.2-1.2-1-1.4-.2 0-.6-.1-.8-.1-.1 0-.2 0-.2-.1s.1-.2.4-.2c1.1 0 2.6.1 2.7.1h5.5c.5 0 .8-.1 1-.1.1 0 .2-.1.3-.1s.1.1.1.2c0 .2-.1.5-.2 1.1 0 .2-.1 1.3-.1 1.6 0 .1-.1.3-.2.3s-.2-.1-.2-.3 0-.6-.1-.9c-.2-.4-.4-.7-1.7-.8-.4 0-3-.1-3.3-.1-.1 0-.1.1-.1.2v6.7c0 .2 0 .2.1.2h3.8c.6 0 .9-.1 1.1-.3s.3-.3.4-.3.1 0 .1.2c0 .1-.1.6-.2 1.4 0 .5-.1 1.4-.1 1.5 0 .2 0 .5-.2.5-.1 0-.2-.1-.2-.2 0-.2 0-.5-.1-.8s-.3-.7-1.3-.8c-.7-.1-3-.1-3.5-.1-.1 0-.2.1-.2.2v6.2c.1 1.7.4 2 2.8 2 .6 0 1.7 0 2.3-.3s.9-.8 1.1-1.7c0-.3.1-.4.2-.4s.1.2.1.4-.2 1.8-.3 2.3c-.2.6-.4.6-1.3.6-3.7 0-5.3-.1-6-.1-.1 0-1.6.1-2.4.1-.3 0-.4 0-.4-.2 0-.1 0-.1.2-.1s.5 0 .7-.1c.5-.1.6-.6.7-1.3.1-1 .1-2.9.1-5.2v-4.6zM42.7 177.4h197.5v2.7H42.7z" class="s1"/><path d="M228.2 133.9h-1v-4.1h-1.5v-.9h4.1v.9h-1.5v4.1zM235.3 133.9h-1v-4.2l-.9 4.2h-1l-.9-4.2v4.2h-1v-5h1.5l.9 4 .9-4h1.5z" class="s3"/></g></svg>