<svg version="1.2" xmlns="http://www.w3.org/2000/svg" viewBox="0 0 964 396"><style>.a{fill:#e30613}.b{fill:#1d1d1b}</style><path class="a" d="m58.7 79.2h-14q-8.4 0-12.6 2.9-4.2 2.8-4.2 8.4 0 5.1 3.3 8 3.5 2.8 9.5 2.8 7.6 0 12.8-5.3 5.2-5.5 5.2-13.7zm27-10.1v47.9h-27v-12.5q-5.4 7.7-12.2 11.2-6.7 3.4-16.4 3.4-13 0-21.2-7.5-8.1-7.7-8.1-19.8 0-14.8 10.1-21.6 10.2-6.9 31.9-6.9h15.9v-2.1q0-6.4-5.1-9.3-5-3-15.6-3-8.6 0-16.1 1.7-7.4 1.7-13.7 5.2v-20.5q8.6-2.1 17.3-3.1 8.7-1.1 17.3-1.1 22.7 0 32.8 8.9 10.1 9 10.1 29.1zm102.7-22.1q5.1-7.8 12-11.8 7.1-4.1 15.5-4.1 14.4 0 22 8.9 7.6 8.9 7.6 25.9v51.1h-27v-43.8q0.1-0.9 0.1-2 0-1 0-3 0-8.9-2.6-12.9-2.6-4-8.4-4-7.7 0-11.9 6.3-4.1 6.3-4.2 18.2v41.2h-27v-43.8q0-13.9-2.4-17.9-2.4-4-8.5-4-7.8 0-12 6.3-4.2 6.3-4.2 18.1v41.3h-26.9v-83.9h26.9v12.3q5-7.2 11.4-10.7 6.4-3.6 14.1-3.6 8.7 0 15.4 4.2 6.6 4.1 10.1 11.7zm147.6-11.3v20.4q-8.6-3.6-16.6-5.4-8-1.8-15.1-1.8-7.7 0-11.4 1.9-3.7 1.9-3.7 5.9 0 3.2 2.8 4.9 2.8 1.7 10.1 2.6l4.7 0.6q20.6 2.7 27.7 8.7 7.1 5.9 7.1 18.8 0 13.4-9.9 20.1-9.8 6.7-29.5 6.7-8.3 0-17.2-1.2-8.8-1.4-18.2-4v-20.4q8 3.9 16.4 5.9 8.5 1.9 17.2 1.9 7.8 0 11.8-2.2 4-2.1 4-6.4 0-3.6-2.8-5.3-2.7-1.8-10.9-2.8l-4.7-0.6q-17.9-2.2-25.1-8.3-7.2-6.1-7.2-18.4 0-13.4 9.2-19.8 9.1-6.4 28-6.4 7.4 0 15.6 1.1 8.1 1.1 17.7 3.5zm28.3-26.4h26.8v23.8h27.6v19.2h-27.6v35.5q0 5.9 2.3 8 2.3 2 9.2 2h13.8v19.2h-23q-15.9 0-22.6-6.6-6.5-6.7-6.5-22.6v-35.5h-13.4v-19.2h13.4zm154.6 65.5v7.7h-62.7q0.9 9.4 6.8 14.1 5.8 4.7 16.3 4.7 8.5 0 17.3-2.4 8.9-2.6 18.3-7.7v20.7q-9.5 3.6-19 5.5-9.6 1.8-19.1 1.8-22.7 0-35.4-11.6-12.6-11.6-12.6-32.5 0-20.5 12.4-32.3 12.4-11.7 34.1-11.7 19.8 0 31.6 11.9 12 11.9 12 31.8zm-62.4-8.9h34.8q0-7.6-4.5-12.3-4.4-4.7-11.6-4.7-7.8 0-12.7 4.4-4.8 4.4-6 12.6zm144.9-34.2l0.1 24.2q-3.5-1.6-7.1-2.4-3.4-0.8-6.9-0.8-10.4 0-16 6.7-5.5 6.6-5.5 18.9v38.7h-26.8v-83.9h26.8v13.8q5.1-8.3 11.8-12 6.7-3.8 16.1-3.8 1.4 0 2.9 0.1 1.6 0.1 4.6 0.5zm70.5 13.7v-45h27v116.6h-27v-12.1q-5.6 7.4-12.2 10.8-6.7 3.5-15.5 3.5-15.5 0-25.4-12.3-10-12.4-10-31.8 0-19.4 10-31.7 9.9-12.3 25.4-12.3 8.7 0 15.4 3.5 6.7 3.4 12.3 10.8zm-17.7 54.3q8.6 0 13.1-6.3 4.6-6.3 4.6-18.3 0-12-4.6-18.3-4.5-6.2-13.1-6.2-8.5 0-13.1 6.2-4.5 6.3-4.5 18.3 0 12 4.5 18.3 4.6 6.3 13.1 6.3zm122-20.5h-14q-8.4 0-12.6 2.9-4.2 2.8-4.2 8.4 0 5.1 3.3 8 3.5 2.8 9.5 2.8 7.6 0 12.8-5.4 5.2-5.4 5.2-13.6zm27-10.1v47.9h-27v-12.5q-5.4 7.7-12.2 11.2-6.7 3.4-16.4 3.4-13 0-21.2-7.5-8.1-7.7-8.1-19.8 0-14.8 10.1-21.7 10.2-6.8 31.9-6.8h15.9v-2.1q0-6.4-5.1-9.3-5-3-15.6-3-8.6 0-16.1 1.7-7.4 1.7-13.7 5.2v-20.5q8.6-2.1 17.3-3.1 8.7-1.2 17.3-1.2 22.7 0 32.8 9 10.1 8.9 10.1 29.1zm102.7-22.1q5.1-7.8 12-11.8 7.1-4.2 15.5-4.2 14.4 0 22 9 7.6 8.9 7.6 25.9v51.1h-27v-43.8q0.1-1 0.1-2 0-1.1 0-3 0-8.9-2.6-12.9-2.6-4-8.4-4-7.7 0-11.9 6.3-4.1 6.3-4.2 18.2v41.2h-27v-43.8q0-13.9-2.4-17.9-2.4-4-8.5-4-7.8 0-12 6.3-4.2 6.3-4.2 18.1v41.3h-26.9v-83.9h26.9v12.3q5-7.2 11.4-10.8 6.4-3.6 14.1-3.6 8.7 0 15.4 4.2 6.6 4.2 10.1 11.8z"/><path class="b" d="m96.5 173.7v21.9q-5.5-3.7-11-5.5-5.5-1.8-11.4-1.8-11.3 0-17.5 6.6-6.3 6.5-6.3 18.2 0 11.8 6.3 18.4 6.2 6.5 17.5 6.5 6.3 0 11.9-1.9 5.7-1.8 10.5-5.5v21.9q-6.3 2.4-12.8 3.5-6.5 1.2-13 1.2-22.7 0-35.5-11.6-12.8-11.7-12.8-32.5 0-20.7 12.8-32.3 12.8-11.7 35.5-11.7 6.6 0 13 1.2 6.4 1.1 12.8 3.4zm63 14.6q-8.9 0-13.6 6.4-4.6 6.4-4.6 18.4 0 12.1 4.6 18.5 4.7 6.4 13.6 6.4 8.8 0 13.5-6.4 4.6-6.4 4.6-18.5 0-12-4.6-18.4-4.7-6.4-13.5-6.4zm0-19.2q21.7 0 33.8 11.7 12.2 11.7 12.2 32.3 0 20.7-12.2 32.4-12.1 11.7-33.8 11.7-21.7 0-34-11.7-12.2-11.7-12.2-32.4 0-20.6 12.2-32.3 12.3-11.7 34-11.7zm149.9 34.8v51.1h-27v-8.3-30.8q0-10.9-0.5-15-0.5-4.1-1.7-6-1.6-2.7-4.3-4.1-2.7-1.5-6.1-1.5-8.4 0-13.2 6.5-4.8 6.5-4.8 17.9v41.3h-26.8v-83.9h26.8v12.3q6.1-7.3 12.9-10.8 6.8-3.5 15.1-3.5 14.5 0 22 8.9 7.6 8.9 7.6 25.9zm47.2 51.1l-32.9-83.9h26.8l20.9 58 20.8-58h26.9l-33 83.9zm161.3-42.2v7.7h-62.7q1 9.4 6.8 14.1 5.9 4.7 16.3 4.7 8.5 0 17.3-2.4 9-2.6 18.3-7.7v20.7q-9.5 3.6-19 5.5-9.5 1.8-19 1.8-22.8 0-35.5-11.6-12.5-11.6-12.5-32.5 0-20.5 12.3-32.3 12.5-11.7 34.2-11.7 19.8 0 31.6 11.9 11.9 11.9 11.9 31.8zm-62.4-8.9h34.8q0-7.6-4.5-12.3-4.4-4.7-11.6-4.7-7.8 0-12.6 4.4-4.9 4.4-6.1 12.6zm167 0v51.1h-26.9v-8.3-30.8q0-10.9-0.6-15-0.4-4.1-1.6-6-1.6-2.7-4.3-4.1-2.7-1.5-6.1-1.5-8.4 0-13.2 6.5-4.8 6.5-4.8 17.9v41.3h-26.8v-83.9h26.8v12.3q6.1-7.3 12.9-10.8 6.8-3.5 15-3.5 14.6 0 22.1 8.9 7.5 8.9 7.5 25.9zm27.4-56.6h26.8v23.8h27.6v19.2h-27.6v35.6q0 5.8 2.3 7.9 2.3 2 9.2 2h13.8v19.2h-23q-15.9 0-22.5-6.6-6.6-6.7-6.6-22.5v-35.6h-13.4v-19.2h13.4zm70.8 107.7v-83.9h26.8v83.9zm0-94.7v-21.8h26.9v21.8zm92.5 28q-8.9 0-13.7 6.4-4.6 6.4-4.6 18.4 0 12.1 4.6 18.5 4.8 6.4 13.7 6.4 8.7 0 13.4-6.4 4.6-6.4 4.6-18.5 0-12-4.6-18.4-4.7-6.4-13.4-6.4zm0-19.2q21.6 0 33.8 11.7 12.2 11.7 12.2 32.3 0 20.7-12.2 32.4-12.2 11.7-33.8 11.7-21.8 0-34-11.7-12.2-11.7-12.2-32.4 0-20.6 12.2-32.3 12.2-11.7 34-11.7zm149.8 34.8v51.1h-27v-8.3-30.8q0-10.8-0.5-15-0.5-4.1-1.7-6-1.5-2.6-4.2-4.1-2.7-1.5-6.2-1.5-8.4 0-13.2 6.5-4.7 6.5-4.7 17.9v41.3h-26.9v-83.9h26.9v12.3q6-7.3 12.8-10.8 6.9-3.5 15.1-3.5 14.5 0 22 8.9 7.6 8.9 7.6 25.9zm-541.9 171.8q8.6 0 13.1-6.3 4.5-6.3 4.5-18.3 0-11.9-4.5-18.2-4.5-6.3-13.1-6.3-8.7 0-13.3 6.3-4.6 6.3-4.6 18.2 0 12 4.6 18.3 4.6 6.3 13.3 6.3zm-17.9-99.2v44.9q5.6-7.3 12.3-10.8 6.7-3.5 15.5-3.5 15.5 0 25.5 12.4 9.9 12.2 9.9 31.6 0 19.4-9.9 31.8-10 12.3-25.5 12.3-8.8 0-15.5-3.5-6.7-3.5-12.3-10.8v12.1h-26.8v-116.5zm82.1 83.9v-51.3h27v8.4q0 6.8-0.1 17.2-0.1 10.2-0.1 13.7 0 10.1 0.5 14.6 0.6 4.4 1.8 6.4 1.7 2.6 4.3 4.1 2.7 1.4 6.2 1.4 8.3 0 13.1-6.4 4.8-6.5 4.8-18v-41.4h26.8v83.9h-26.8v-12.1q-6 7.3-12.9 10.8-6.7 3.5-14.9 3.5-14.5 0-22.1-8.9-7.6-8.9-7.6-25.9zm172.4-52.7v24.3q-3.5-1.7-7-2.4-3.5-0.8-7-0.8-10.3 0-15.9 6.6-5.6 6.6-5.6 19v38.6h-26.8v-83.9h26.8v13.8q5.2-8.2 11.9-12 6.7-3.8 16.1-3.8 1.3 0 2.9 0.2 1.6 0 4.6 0.4zm97.1 43.1v7.7h-62.7q1 9.4 6.8 14.1 5.9 4.8 16.4 4.8 8.4 0 17.3-2.5 8.9-2.6 18.2-7.6v20.6q-9.5 3.6-19 5.5-9.5 1.8-19 1.8-22.8 0-35.4-11.5-12.6-11.7-12.6-32.6 0-20.5 12.3-32.2 12.5-11.8 34.2-11.8 19.8 0 31.6 11.9 11.9 11.9 11.9 31.8zm-62.4-8.9h34.8q0-7.6-4.5-12.2-4.4-4.8-11.6-4.8-7.8 0-12.6 4.5-4.9 4.3-6.1 12.5zm134.2 13.4h-13.9q-8.4 0-12.7 2.8-4.1 2.9-4.1 8.4 0 5.1 3.3 8 3.5 2.9 9.5 2.9 7.6 0 12.8-5.4 5.1-5.5 5.1-13.7zm27.1-10.1v47.9h-27.1v-12.4q-5.4 7.6-12.1 11.1-6.7 3.5-16.4 3.5-13 0-21.2-7.6-8.1-7.6-8.1-19.8 0-14.7 10.1-21.6 10.2-6.9 31.9-6.9h15.8v-2.1q0-6.4-5-9.3-5-3-15.6-3-8.6 0-16.1 1.7-7.4 1.7-13.7 5.2v-20.5q8.6-2.1 17.3-3.1 8.6-1.1 17.3-1.1 22.7 0 32.8 9 10.1 8.9 10.1 29zm24 15.2v-51.2h27v8.4q0 6.8-0.1 17.1-0.1 10.3-0.1 13.7 0 10.2 0.6 14.7 0.5 4.4 1.8 6.4 1.6 2.6 4.2 4 2.7 1.5 6.2 1.5 8.4 0 13.2-6.5 4.7-6.4 4.7-17.9v-41.4h26.9v83.9h-26.9v-12.1q-6 7.3-12.8 10.8-6.8 3.5-14.9 3.5-14.6 0-22.2-9-7.6-8.9-7.6-25.9z"/></svg>