<?xml version="1.0" encoding="UTF-8"?><svg id="Layer_2" xmlns="http://www.w3.org/2000/svg" viewBox="0 0 1055.4 215.07"><defs><style>.cls-1{fill:#061128;}.cls-2{fill:#6a8c9b;}.cls-3{fill:#e09434;}</style></defs><g id="Layer_1-2"><circle class="cls-2" cx="192.04" cy="196.01" r="12.97"/><circle class="cls-2" cx="104.46" cy="104.53" r="12.81"/><circle class="cls-2" cx="13" cy="104.58" r="12.97"/><circle class="cls-2" cx="104.51" cy="196.04" r="12.97"/><circle class="cls-2" cx="12.97" cy="196.01" r="12.97"/><circle class="cls-2" cx="104.5" cy="13.05" r="12.97"/><circle class="cls-2" cx="13" cy="13.05" r="12.97"/><circle class="cls-2" cx="195.94" cy="12.97" r="12.97"/><path class="cls-1" d="m465.43,193.31c-4.01,6.62-9.93,11.9-17.75,15.85-7.82,3.95-17.29,5.91-28.42,5.91-16.76,0-30.56-4.08-41.41-12.25-10.85-8.17-16.77-19.58-17.75-34.23h38.45c.56,5.64,2.57,10.07,6.02,13.31,3.45,3.24,7.85,4.86,13.21,4.86,4.65,0,8.31-1.27,10.99-3.8,2.67-2.53,4.01-5.91,4.01-10.14,0-3.81-1.23-6.97-3.7-9.51-2.47-2.53-5.53-4.61-9.19-6.23s-8.74-3.56-15.21-5.81c-9.44-3.24-17.15-6.37-23.13-9.4-5.99-3.03-11.13-7.54-15.42-13.52-4.3-5.99-6.45-13.77-6.45-23.35,0-8.87,2.25-16.55,6.76-23.03,4.51-6.48,10.74-11.44,18.7-14.9,7.95-3.45,17.08-5.18,27.36-5.18,16.62,0,29.82,3.95,39.61,11.83,9.79,7.89,15.32,18.73,16.58,32.54h-39.08c-.71-4.93-2.5-8.83-5.39-11.72-2.89-2.89-6.8-4.33-11.72-4.33-4.23,0-7.64,1.13-10.25,3.38-2.61,2.25-3.91,5.56-3.91,9.93,0,3.52,1.16,6.52,3.49,8.98,2.32,2.47,5.25,4.47,8.77,6.02,3.52,1.55,8.59,3.52,15.21,5.92,9.58,3.24,17.39,6.44,23.45,9.61,6.05,3.17,11.27,7.79,15.63,13.84,4.36,6.06,6.55,13.94,6.55,23.66,0,7.89-2.01,15.14-6.02,21.76Z"/><path class="cls-1" d="m620.61,64.22v149.37h-36.34v-62.33h-56.62v62.33h-36.13V64.22h36.13v57.89h56.62v-57.89h36.34Z"/><path class="cls-1" d="m681.66,64.22v149.37h-36.13V64.22h36.13Z"/><path class="cls-1" d="m742.72,92.96v31.27h50.49v27.25h-50.49v33.17h56.83v28.95h-92.96V64.22h92.96v28.73h-56.83Z"/><path class="cls-1" d="m856.17,185.91h48.17v27.68h-84.3V64.22h36.13v121.69Z"/><path class="cls-1" d="m1046,177.57c-6.27,11.34-15.28,20.18-27.04,26.51-11.76,6.34-25.6,9.51-41.52,9.51h-56.41V64.22h56.41c16.06,0,29.93,3.1,41.62,9.29,11.69,6.2,20.67,14.93,26.93,26.2,6.27,11.27,9.4,24.23,9.4,38.87s-3.13,27.64-9.4,38.98Zm-38.87-7.5c7.82-7.46,11.73-17.96,11.73-31.48s-3.91-24.01-11.73-31.48c-7.82-7.46-18.77-11.19-32.85-11.19h-17.11v85.35h17.11c14.08,0,25.04-3.73,32.85-11.2Z"/><path class="cls-3" d="m200.51,115.53v27.11h-18.69v-77.29h30.28c9.18,0,16.18,2.28,20.99,6.83,4.81,4.55,7.22,10.69,7.22,18.42,0,4.81-1.08,9.09-3.22,12.85-2.15,3.76-5.34,6.71-9.57,8.86-4.23,2.15-9.37,3.22-15.42,3.22h-11.59Zm20.77-24.93c0-6.78-3.75-10.17-11.26-10.17h-9.51v20.12h9.51c7.51,0,11.26-3.32,11.26-9.95Z"/><path class="cls-3" d="m304.7,156.2l-10.06-13.67c-2.92.58-5.72.88-8.42.88-7.22,0-13.79-1.69-19.73-5.08-5.94-3.39-10.64-8.11-14.1-14.16-3.46-6.05-5.19-12.87-5.19-20.44s1.73-14.38,5.19-20.39,8.16-10.72,14.1-14.1c5.94-3.39,12.52-5.08,19.73-5.08s13.9,1.69,19.84,5.08c5.94,3.39,10.62,8.09,14.05,14.1s5.14,12.81,5.14,20.39c0,6.71-1.37,12.83-4.1,18.37-2.73,5.54-6.5,10.09-11.31,13.67l17.27,20.44h-22.41Zm-33.07-36.3c3.61,4.01,8.48,6.01,14.6,6.01s10.89-2,14.54-6.01c3.64-4.01,5.47-9.4,5.47-16.18s-1.8-12.17-5.41-16.18c-3.61-4.01-8.47-6.01-14.59-6.01s-10.99,1.98-14.6,5.96c-3.61,3.98-5.41,9.38-5.41,16.24s1.8,12.17,5.41,16.18Z"/></g></svg>