<svg width="460" height="156" viewBox="0 0 460 156" fill="none" xmlns="http://www.w3.org/2000/svg">
<path d="M75.3049 81.3656L38.7661 40.4759L38.1632 39.8049L38.1691 39.7906C38.1452 39.7637 38.1375 39.742 38.1077 39.7295L38.0935 39.7236C38.0792 39.7176 38.0792 39.7176 38.0695 39.6967C38.0598 39.6759 38.0379 39.6482 38.0237 39.6422L38.0081 39.6357L37.9998 39.6154L39.8815 38.4039C39.8929 38.3991 39.9022 38.3906 39.9082 38.3798C39.9195 38.3758 39.9292 38.368 39.9356 38.3577L39.9499 38.3637L57.1571 27.2549L74.6719 15.9507C76.3331 14.8811 78.2543 14.293 80.2245 14.251C82.1948 14.2091 84.1378 14.7148 85.8405 15.7128C87.543 16.7108 88.9392 18.1624 89.8759 19.9082C90.8125 21.6541 91.2532 23.6266 91.1498 25.6093L89.2154 62.2389C89.165 63.3158 89.0025 64.3844 88.7304 65.4272L88.7446 65.4331C88.7419 65.4841 88.7359 65.4984 88.7079 65.5219C88.7069 65.5496 88.7018 65.5769 88.6927 65.603C87.8518 68.8975 86.0448 71.8612 83.5077 74.1073L76.9473 79.9144L76.6825 80.1513L75.5586 81.1593L75.3049 81.3656Z" fill="#9D9CAF"/>
<path d="M40.215 122.732C40.2021 122.712 40.1854 122.692 40.1655 122.674C40.1284 122.633 40.0963 122.591 40.07 122.549C39.8536 122.306 39.6427 122.055 39.4488 121.814L19.9405 97.4065C16.6871 93.3314 14.5313 89.1037 13.6905 85.1494C12.8494 81.1951 13.3532 77.6541 15.1507 74.8833L37.9967 39.6906L38.0061 39.709L38.021 39.7187C38.036 39.7284 38.0462 39.7486 38.0705 39.7766C38.0948 39.8047 38.0813 39.796 38.0963 39.8057C38.1277 39.829 38.1553 39.8558 38.1772 39.884L38.1716 39.8926L99.5547 108.404C102.544 111.742 104.749 115.271 105.982 118.691C107.215 122.111 107.44 125.321 106.637 128.047C105.834 130.772 104.028 132.933 101.371 134.346C98.7148 135.759 95.2871 136.381 91.3801 136.16L76.5803 135.318C76.5183 135.311 76.4596 135.311 76.4055 135.319C76.4039 135.321 76.4005 135.322 76.3963 135.322C76.3921 135.322 76.3872 135.32 76.3829 135.317L76.3623 135.316L62.7058 134.542C58.9481 134.331 54.7589 133.079 50.7255 130.961C46.6921 128.843 43.0168 125.965 40.215 122.732Z" fill="#444BD3"/>
<path d="M161.925 62.04C162.328 62.6633 162.493 63.2133 162.42 63.69C162.347 64.2033 162.145 64.625 161.815 64.955C161.485 65.3217 161.063 65.5417 160.55 65.615C160.037 65.725 159.523 65.67 159.01 65.45C158.497 65.2667 158.057 64.8817 157.69 64.295L154.115 58.465C153.528 57.5117 152.74 56.7783 151.75 56.265C150.76 55.7517 149.568 55.495 148.175 55.495L152.3 53.79C154.023 53.79 155.38 54.1017 156.37 54.725C157.397 55.3117 158.405 56.3933 159.395 57.97L161.925 62.04ZM148.23 55.495C144.563 55.495 141.392 54.6883 138.715 53.075C136.038 51.425 133.948 49.115 132.445 46.145C130.978 43.1383 130.245 39.6183 130.245 35.585C130.245 32.5417 130.667 29.81 131.51 27.39C132.353 24.9333 133.545 22.8433 135.085 21.12C136.662 19.36 138.55 18.0217 140.75 17.105C142.987 16.1883 145.48 15.73 148.23 15.73C151.897 15.73 155.068 16.5367 157.745 18.15C160.422 19.7633 162.493 22.055 163.96 25.025C165.427 27.995 166.16 31.4967 166.16 35.53C166.16 38.5733 165.738 41.3233 164.895 43.78C164.052 46.2367 162.842 48.345 161.265 50.105C159.725 51.865 157.855 53.2033 155.655 54.12C153.455 55.0367 150.98 55.495 148.23 55.495ZM148.23 50.985C150.87 50.985 153.125 50.38 154.995 49.17C156.865 47.96 158.295 46.2 159.285 43.89C160.312 41.58 160.825 38.8117 160.825 35.585C160.825 30.7083 159.725 26.9317 157.525 24.255C155.362 21.5783 152.263 20.24 148.23 20.24C145.59 20.24 143.317 20.845 141.41 22.055C139.54 23.2283 138.11 24.97 137.12 27.28C136.13 29.5533 135.635 32.3217 135.635 35.585C135.635 40.425 136.735 44.2017 138.935 46.915C141.135 49.6283 144.233 50.985 148.23 50.985ZM191.707 55.495C187.857 55.495 184.557 54.6883 181.807 53.075C179.057 51.4617 176.93 49.17 175.427 46.2C173.96 43.1933 173.227 39.655 173.227 35.585C173.227 32.5417 173.648 29.81 174.492 27.39C175.335 24.9333 176.545 22.8433 178.122 21.12C179.698 19.36 181.623 18.0217 183.897 17.105C186.207 16.1883 188.81 15.73 191.707 15.73C193.907 15.73 196.015 16.0417 198.032 16.665C200.085 17.2883 201.845 18.1683 203.312 19.305C203.898 19.7083 204.283 20.1667 204.467 20.68C204.65 21.1933 204.668 21.6883 204.522 22.165C204.412 22.605 204.173 22.99 203.807 23.32C203.477 23.6133 203.055 23.7783 202.542 23.815C202.028 23.815 201.478 23.6133 200.892 23.21C199.608 22.22 198.197 21.505 196.657 21.065C195.153 20.5883 193.54 20.35 191.817 20.35C188.993 20.35 186.592 20.955 184.612 22.165C182.668 23.3383 181.183 25.0617 180.157 27.335C179.167 29.5717 178.672 32.3217 178.672 35.585C178.672 38.8117 179.167 41.58 180.157 43.89C181.183 46.1633 182.668 47.905 184.612 49.115C186.592 50.2883 188.993 50.875 191.817 50.875C193.54 50.875 195.172 50.6367 196.712 50.16C198.288 49.6833 199.737 48.95 201.057 47.96C201.643 47.5567 202.175 47.3733 202.652 47.41C203.165 47.4467 203.587 47.6117 203.917 47.905C204.247 48.1617 204.467 48.5283 204.577 49.005C204.723 49.445 204.723 49.9033 204.577 50.38C204.43 50.8567 204.1 51.2783 203.587 51.645C202.083 52.9283 200.287 53.9 198.197 54.56C196.143 55.1833 193.98 55.495 191.707 55.495ZM222.102 55.495C219.206 55.495 216.712 54.945 214.622 53.845C212.569 52.7083 210.974 51.1133 209.837 49.06C208.701 46.97 208.132 44.5133 208.132 41.69C208.132 38.9033 208.682 36.465 209.782 34.375C210.919 32.285 212.459 30.6533 214.402 29.48C216.382 28.3067 218.637 27.72 221.167 27.72C222.964 27.72 224.577 28.0317 226.007 28.655C227.474 29.2417 228.721 30.1033 229.747 31.24C230.774 32.3767 231.544 33.77 232.057 35.42C232.607 37.0333 232.882 38.8667 232.882 40.92C232.882 41.5067 232.699 41.965 232.332 42.295C232.002 42.5883 231.507 42.735 230.847 42.735H212.037V39.545H229.582L228.647 40.315C228.647 38.4083 228.354 36.795 227.767 35.475C227.217 34.1183 226.392 33.0917 225.292 32.395C224.229 31.6983 222.891 31.35 221.277 31.35C219.517 31.35 218.014 31.7717 216.767 32.615C215.521 33.4217 214.567 34.5767 213.907 36.08C213.247 37.5467 212.917 39.2517 212.917 41.195V41.525C212.917 44.825 213.706 47.3183 215.282 49.005C216.859 50.6917 219.132 51.535 222.102 51.535C223.276 51.535 224.467 51.3883 225.677 51.095C226.924 50.8017 228.116 50.27 229.252 49.5C229.802 49.17 230.297 49.0233 230.737 49.06C231.214 49.06 231.599 49.2067 231.892 49.5C232.186 49.7567 232.369 50.0867 232.442 50.49C232.516 50.8567 232.461 51.26 232.277 51.7C232.094 52.14 231.746 52.525 231.232 52.855C230.022 53.6983 228.574 54.3583 226.887 54.835C225.237 55.275 223.642 55.495 222.102 55.495ZM251.262 55.495C248.549 55.495 246.202 54.9267 244.222 53.79C242.242 52.6167 240.721 50.985 239.657 48.895C238.594 46.7683 238.062 44.275 238.062 41.415C238.062 39.2883 238.356 37.3817 238.942 35.695C239.566 34.0083 240.446 32.5783 241.582 31.405C242.719 30.195 244.094 29.2783 245.707 28.655C247.357 28.0317 249.209 27.72 251.262 27.72C252.546 27.72 253.902 27.9217 255.332 28.325C256.762 28.7283 258.082 29.3883 259.292 30.305C259.696 30.5983 259.952 30.9467 260.062 31.35C260.172 31.7167 260.172 32.1017 260.062 32.505C259.989 32.9083 259.806 33.2567 259.512 33.55C259.256 33.8067 258.907 33.9533 258.467 33.99C258.064 34.0267 257.624 33.8983 257.147 33.605C256.267 32.945 255.332 32.4683 254.342 32.175C253.389 31.8817 252.472 31.735 251.592 31.735C250.236 31.735 249.026 31.955 247.962 32.395C246.936 32.835 246.056 33.4767 245.322 34.32C244.626 35.1267 244.094 36.135 243.727 37.345C243.361 38.5183 243.177 39.8933 243.177 41.47C243.177 44.5867 243.911 47.0433 245.377 48.84C246.844 50.6 248.916 51.48 251.592 51.48C252.472 51.48 253.389 51.3517 254.342 51.095C255.296 50.8017 256.231 50.325 257.147 49.665C257.624 49.3717 258.064 49.2617 258.467 49.335C258.871 49.3717 259.201 49.5367 259.457 49.83C259.751 50.0867 259.934 50.4167 260.007 50.82C260.081 51.1867 260.044 51.5717 259.897 51.975C259.787 52.3783 259.531 52.7083 259.127 52.965C257.954 53.845 256.671 54.4867 255.277 54.89C253.884 55.2933 252.546 55.495 251.262 55.495ZM275.344 55.495C273.18 55.495 271.365 55.0917 269.899 54.285C268.469 53.4783 267.405 52.2867 266.709 50.71C266.012 49.1333 265.664 47.1533 265.664 44.77V30.36C265.664 29.5167 265.865 28.8933 266.269 28.49C266.709 28.05 267.332 27.83 268.139 27.83C268.945 27.83 269.569 28.05 270.009 28.49C270.449 28.8933 270.669 29.5167 270.669 30.36V44.77C270.669 47.0433 271.127 48.73 272.044 49.83C272.96 50.8933 274.409 51.425 276.389 51.425C278.589 51.425 280.367 50.6917 281.724 49.225C283.117 47.7583 283.814 45.815 283.814 43.395V30.36C283.814 29.5167 284.015 28.8933 284.419 28.49C284.859 28.05 285.482 27.83 286.289 27.83C287.095 27.83 287.719 28.05 288.159 28.49C288.599 28.8933 288.819 29.5167 288.819 30.36V52.8C288.819 54.5233 288.012 55.385 286.399 55.385C285.592 55.385 284.969 55.165 284.529 54.725C284.125 54.285 283.924 53.6433 283.924 52.8V48.015L284.639 48.95C283.905 51.0767 282.714 52.7083 281.064 53.845C279.45 54.945 277.544 55.495 275.344 55.495ZM300.007 55.385C299.164 55.385 298.522 55.165 298.082 54.725C297.642 54.285 297.422 53.6433 297.422 52.8V30.36C297.422 29.5167 297.642 28.8933 298.082 28.49C298.522 28.05 299.127 27.83 299.897 27.83C300.667 27.83 301.254 28.05 301.657 28.49C302.097 28.8933 302.317 29.5167 302.317 30.36V34.595H301.767C302.354 32.395 303.454 30.7267 305.067 29.59C306.681 28.4533 308.716 27.8117 311.172 27.665C311.759 27.6283 312.236 27.775 312.602 28.105C312.969 28.3983 313.171 28.9117 313.207 29.645C313.244 30.3417 313.079 30.91 312.712 31.35C312.346 31.7533 311.777 31.9917 311.007 32.065L310.017 32.12C307.597 32.3767 305.727 33.165 304.407 34.485C303.124 35.805 302.482 37.62 302.482 39.93V52.8C302.482 53.6433 302.262 54.285 301.822 54.725C301.419 55.165 300.814 55.385 300.007 55.385ZM320.535 55.275C319.765 55.275 319.16 55.0367 318.72 54.56C318.28 54.0833 318.06 53.4233 318.06 52.58V30.635C318.06 29.755 318.28 29.095 318.72 28.655C319.16 28.1783 319.765 27.94 320.535 27.94C321.342 27.94 321.965 28.1783 322.405 28.655C322.845 29.095 323.065 29.755 323.065 30.635V52.58C323.065 53.4233 322.845 54.0833 322.405 54.56C322.002 55.0367 321.378 55.275 320.535 55.275ZM320.535 22C319.545 22 318.757 21.7433 318.17 21.23C317.62 20.68 317.345 19.965 317.345 19.085C317.345 18.1317 317.62 17.4167 318.17 16.94C318.757 16.4267 319.545 16.17 320.535 16.17C321.598 16.17 322.387 16.4267 322.9 16.94C323.45 17.4167 323.725 18.1317 323.725 19.085C323.725 19.965 323.45 20.68 322.9 21.23C322.387 21.7433 321.598 22 320.535 22ZM334.137 55.385C333.367 55.385 332.762 55.165 332.322 54.725C331.882 54.285 331.662 53.6433 331.662 52.8V30.36C331.662 29.5167 331.882 28.8933 332.322 28.49C332.762 28.05 333.367 27.83 334.137 27.83C334.907 27.83 335.494 28.05 335.897 28.49C336.337 28.8933 336.557 29.5167 336.557 30.36V34.87L335.952 34.045C336.722 31.955 337.969 30.3783 339.692 29.315C341.452 28.2517 343.45 27.72 345.687 27.72C347.85 27.72 349.629 28.105 351.022 28.875C352.415 29.645 353.46 30.8183 354.157 32.395C354.854 33.9717 355.202 35.97 355.202 38.39V52.8C355.202 53.6433 354.982 54.285 354.542 54.725C354.139 55.165 353.534 55.385 352.727 55.385C351.92 55.385 351.297 55.165 350.857 54.725C350.417 54.285 350.197 53.6433 350.197 52.8V38.665C350.197 36.2817 349.739 34.54 348.822 33.44C347.905 32.34 346.439 31.79 344.422 31.79C342.075 31.79 340.187 32.5233 338.757 33.99C337.364 35.42 336.667 37.3633 336.667 39.82V52.8C336.667 54.5233 335.824 55.385 334.137 55.385ZM375.731 65.395C373.751 65.395 371.826 65.175 369.956 64.735C368.123 64.295 366.455 63.6167 364.951 62.7C364.475 62.4067 364.145 62.0583 363.961 61.655C363.815 61.2883 363.778 60.9033 363.851 60.5C363.961 60.0967 364.145 59.73 364.401 59.4C364.695 59.1067 365.025 58.905 365.391 58.795C365.795 58.7217 366.198 58.8133 366.601 59.07C368.215 59.9867 369.755 60.61 371.221 60.94C372.688 61.27 374.081 61.435 375.401 61.435C378.005 61.435 379.948 60.7567 381.231 59.4C382.551 58.08 383.211 56.1367 383.211 53.57V47.63H383.706C383.193 49.6833 382.038 51.315 380.241 52.525C378.481 53.735 376.428 54.34 374.081 54.34C371.661 54.34 369.553 53.79 367.756 52.69C365.96 51.5533 364.566 49.995 363.576 48.015C362.586 45.9983 362.091 43.67 362.091 41.03C362.091 39.0133 362.366 37.1983 362.916 35.585C363.503 33.935 364.31 32.5417 365.336 31.405C366.4 30.2317 367.665 29.3333 369.131 28.71C370.598 28.05 372.248 27.72 374.081 27.72C376.465 27.72 378.536 28.325 380.296 29.535C382.056 30.745 383.193 32.3767 383.706 34.43L383.101 35.2V30.36C383.101 29.5167 383.321 28.8933 383.761 28.49C384.201 28.05 384.825 27.83 385.631 27.83C386.401 27.83 387.006 28.05 387.446 28.49C387.886 28.8933 388.106 29.5167 388.106 30.36V52.91C388.106 57.0533 387.043 60.17 384.916 62.26C382.826 64.35 379.765 65.395 375.731 65.395ZM375.181 50.38C376.831 50.38 378.243 50.0133 379.416 49.28C380.626 48.51 381.543 47.4283 382.166 46.035C382.826 44.605 383.156 42.9367 383.156 41.03C383.156 38.1333 382.441 35.86 381.011 34.21C379.581 32.5233 377.638 31.68 375.181 31.68C373.531 31.68 372.101 32.065 370.891 32.835C369.718 33.5683 368.801 34.6317 368.141 36.025C367.481 37.4183 367.151 39.0867 367.151 41.03C367.151 43.89 367.866 46.1633 369.296 47.85C370.763 49.5367 372.725 50.38 375.181 50.38ZM143.72 129.385C142.877 129.385 142.235 129.165 141.795 128.725C141.355 128.248 141.135 127.588 141.135 126.745V94.57H129.09C128.393 94.57 127.843 94.3867 127.44 94.02C127.037 93.6167 126.835 93.0667 126.835 92.37C126.835 91.6733 127.037 91.1417 127.44 90.775C127.843 90.4083 128.393 90.225 129.09 90.225H158.295C159.028 90.225 159.578 90.4083 159.945 90.775C160.348 91.1417 160.55 91.6733 160.55 92.37C160.55 93.0667 160.348 93.6167 159.945 94.02C159.578 94.3867 159.028 94.57 158.295 94.57H146.25V126.745C146.25 127.588 146.03 128.248 145.59 128.725C145.187 129.165 144.563 129.385 143.72 129.385ZM173.105 129.495C170.208 129.495 167.715 128.945 165.625 127.845C163.572 126.708 161.977 125.113 160.84 123.06C159.703 120.97 159.135 118.513 159.135 115.69C159.135 112.903 159.685 110.465 160.785 108.375C161.922 106.285 163.462 104.653 165.405 103.48C167.385 102.307 169.64 101.72 172.17 101.72C173.967 101.72 175.58 102.032 177.01 102.655C178.477 103.242 179.723 104.103 180.75 105.24C181.777 106.377 182.547 107.77 183.06 109.42C183.61 111.033 183.885 112.867 183.885 114.92C183.885 115.507 183.702 115.965 183.335 116.295C183.005 116.588 182.51 116.735 181.85 116.735H163.04V113.545H180.585L179.65 114.315C179.65 112.408 179.357 110.795 178.77 109.475C178.22 108.118 177.395 107.092 176.295 106.395C175.232 105.698 173.893 105.35 172.28 105.35C170.52 105.35 169.017 105.772 167.77 106.615C166.523 107.422 165.57 108.577 164.91 110.08C164.25 111.547 163.92 113.252 163.92 115.195V115.525C163.92 118.825 164.708 121.318 166.285 123.005C167.862 124.692 170.135 125.535 173.105 125.535C174.278 125.535 175.47 125.388 176.68 125.095C177.927 124.802 179.118 124.27 180.255 123.5C180.805 123.17 181.3 123.023 181.74 123.06C182.217 123.06 182.602 123.207 182.895 123.5C183.188 123.757 183.372 124.087 183.445 124.49C183.518 124.857 183.463 125.26 183.28 125.7C183.097 126.14 182.748 126.525 182.235 126.855C181.025 127.698 179.577 128.358 177.89 128.835C176.24 129.275 174.645 129.495 173.105 129.495ZM202.265 129.495C199.552 129.495 197.205 128.927 195.225 127.79C193.245 126.617 191.723 124.985 190.66 122.895C189.597 120.768 189.065 118.275 189.065 115.415C189.065 113.288 189.358 111.382 189.945 109.695C190.568 108.008 191.448 106.578 192.585 105.405C193.722 104.195 195.097 103.278 196.71 102.655C198.36 102.032 200.212 101.72 202.265 101.72C203.548 101.72 204.905 101.922 206.335 102.325C207.765 102.728 209.085 103.388 210.295 104.305C210.698 104.598 210.955 104.947 211.065 105.35C211.175 105.717 211.175 106.102 211.065 106.505C210.992 106.908 210.808 107.257 210.515 107.55C210.258 107.807 209.91 107.953 209.47 107.99C209.067 108.027 208.627 107.898 208.15 107.605C207.27 106.945 206.335 106.468 205.345 106.175C204.392 105.882 203.475 105.735 202.595 105.735C201.238 105.735 200.028 105.955 198.965 106.395C197.938 106.835 197.058 107.477 196.325 108.32C195.628 109.127 195.097 110.135 194.73 111.345C194.363 112.518 194.18 113.893 194.18 115.47C194.18 118.587 194.913 121.043 196.38 122.84C197.847 124.6 199.918 125.48 202.595 125.48C203.475 125.48 204.392 125.352 205.345 125.095C206.298 124.802 207.233 124.325 208.15 123.665C208.627 123.372 209.067 123.262 209.47 123.335C209.873 123.372 210.203 123.537 210.46 123.83C210.753 124.087 210.937 124.417 211.01 124.82C211.083 125.187 211.047 125.572 210.9 125.975C210.79 126.378 210.533 126.708 210.13 126.965C208.957 127.845 207.673 128.487 206.28 128.89C204.887 129.293 203.548 129.495 202.265 129.495ZM219.251 129.385C218.481 129.385 217.876 129.165 217.436 128.725C216.996 128.285 216.776 127.643 216.776 126.8V92.37C216.776 91.5267 216.996 90.9033 217.436 90.5C217.876 90.06 218.481 89.84 219.251 89.84C220.058 89.84 220.681 90.06 221.121 90.5C221.561 90.9033 221.781 91.5267 221.781 92.37V108.045H221.066C221.836 105.955 223.083 104.378 224.806 103.315C226.566 102.252 228.565 101.72 230.801 101.72C232.965 101.72 234.743 102.123 236.136 102.93C237.53 103.7 238.575 104.873 239.271 106.45C239.968 108.027 240.316 110.007 240.316 112.39V126.8C240.316 127.643 240.096 128.285 239.656 128.725C239.253 129.165 238.648 129.385 237.841 129.385C237.035 129.385 236.411 129.165 235.971 128.725C235.531 128.285 235.311 127.643 235.311 126.8V112.665C235.311 110.282 234.853 108.54 233.936 107.44C233.02 106.34 231.553 105.79 229.536 105.79C227.19 105.79 225.301 106.523 223.871 107.99C222.478 109.42 221.781 111.363 221.781 113.82V126.8C221.781 128.523 220.938 129.385 219.251 129.385ZM251.276 129.385C250.506 129.385 249.901 129.165 249.461 128.725C249.021 128.285 248.801 127.643 248.801 126.8V104.36C248.801 103.517 249.021 102.893 249.461 102.49C249.901 102.05 250.506 101.83 251.276 101.83C252.046 101.83 252.633 102.05 253.036 102.49C253.476 102.893 253.696 103.517 253.696 104.36V108.87L253.091 108.045C253.861 105.955 255.108 104.378 256.831 103.315C258.591 102.252 260.589 101.72 262.826 101.72C264.989 101.72 266.768 102.105 268.161 102.875C269.554 103.645 270.599 104.818 271.296 106.395C271.993 107.972 272.341 109.97 272.341 112.39V126.8C272.341 127.643 272.121 128.285 271.681 128.725C271.278 129.165 270.673 129.385 269.866 129.385C269.059 129.385 268.436 129.165 267.996 128.725C267.556 128.285 267.336 127.643 267.336 126.8V112.665C267.336 110.282 266.878 108.54 265.961 107.44C265.044 106.34 263.578 105.79 261.561 105.79C259.214 105.79 257.326 106.523 255.896 107.99C254.503 109.42 253.806 111.363 253.806 113.82V126.8C253.806 128.523 252.963 129.385 251.276 129.385ZM292.211 129.495C289.571 129.495 287.279 128.927 285.336 127.79C283.392 126.653 281.889 125.04 280.826 122.95C279.762 120.86 279.231 118.403 279.231 115.58C279.231 113.453 279.524 111.547 280.111 109.86C280.734 108.137 281.614 106.67 282.751 105.46C283.887 104.25 285.244 103.333 286.821 102.71C288.434 102.05 290.231 101.72 292.211 101.72C294.851 101.72 297.142 102.288 299.086 103.425C301.029 104.562 302.532 106.175 303.596 108.265C304.659 110.318 305.191 112.757 305.191 115.58C305.191 117.707 304.879 119.632 304.256 121.355C303.669 123.078 302.807 124.545 301.671 125.755C300.534 126.965 299.159 127.9 297.546 128.56C295.969 129.183 294.191 129.495 292.211 129.495ZM292.211 125.535C293.824 125.535 295.217 125.15 296.391 124.38C297.601 123.61 298.517 122.492 299.141 121.025C299.801 119.558 300.131 117.743 300.131 115.58C300.131 112.353 299.416 109.897 297.986 108.21C296.556 106.523 294.631 105.68 292.211 105.68C290.634 105.68 289.241 106.065 288.031 106.835C286.857 107.568 285.941 108.668 285.281 110.135C284.621 111.602 284.291 113.417 284.291 115.58C284.291 118.807 285.006 121.282 286.436 123.005C287.902 124.692 289.827 125.535 292.211 125.535ZM320.567 129.495C317.817 129.495 315.727 128.688 314.297 127.075C312.867 125.425 312.152 123.06 312.152 119.98V92.37C312.152 91.5267 312.372 90.9033 312.812 90.5C313.252 90.06 313.857 89.84 314.627 89.84C315.434 89.84 316.057 90.06 316.497 90.5C316.937 90.9033 317.157 91.5267 317.157 92.37V119.595C317.157 121.502 317.542 122.932 318.312 123.885C319.119 124.802 320.255 125.26 321.722 125.26C322.052 125.26 322.345 125.26 322.602 125.26C322.859 125.223 323.115 125.187 323.372 125.15C323.775 125.113 324.069 125.223 324.252 125.48C324.435 125.737 324.527 126.25 324.527 127.02C324.527 127.717 324.362 128.267 324.032 128.67C323.739 129.037 323.244 129.275 322.547 129.385C322.217 129.422 321.887 129.44 321.557 129.44C321.227 129.477 320.897 129.495 320.567 129.495ZM340.361 129.495C337.721 129.495 335.43 128.927 333.486 127.79C331.543 126.653 330.04 125.04 328.976 122.95C327.913 120.86 327.381 118.403 327.381 115.58C327.381 113.453 327.675 111.547 328.261 109.86C328.885 108.137 329.765 106.67 330.901 105.46C332.038 104.25 333.395 103.333 334.971 102.71C336.585 102.05 338.381 101.72 340.361 101.72C343.001 101.72 345.293 102.288 347.236 103.425C349.18 104.562 350.683 106.175 351.746 108.265C352.81 110.318 353.341 112.757 353.341 115.58C353.341 117.707 353.03 119.632 352.406 121.355C351.82 123.078 350.958 124.545 349.821 125.755C348.685 126.965 347.31 127.9 345.696 128.56C344.12 129.183 342.341 129.495 340.361 129.495ZM340.361 125.535C341.975 125.535 343.368 125.15 344.541 124.38C345.751 123.61 346.668 122.492 347.291 121.025C347.951 119.558 348.281 117.743 348.281 115.58C348.281 112.353 347.566 109.897 346.136 108.21C344.706 106.523 342.781 105.68 340.361 105.68C338.785 105.68 337.391 106.065 336.181 106.835C335.008 107.568 334.091 108.668 333.431 110.135C332.771 111.602 332.441 113.417 332.441 115.58C332.441 118.807 333.156 121.282 334.586 123.005C336.053 124.692 337.978 125.535 340.361 125.535ZM372.348 139.395C370.368 139.395 368.443 139.175 366.573 138.735C364.739 138.295 363.071 137.617 361.568 136.7C361.091 136.407 360.761 136.058 360.578 135.655C360.431 135.288 360.394 134.903 360.468 134.5C360.578 134.097 360.761 133.73 361.018 133.4C361.311 133.107 361.641 132.905 362.008 132.795C362.411 132.722 362.814 132.813 363.218 133.07C364.831 133.987 366.371 134.61 367.838 134.94C369.304 135.27 370.698 135.435 372.018 135.435C374.621 135.435 376.564 134.757 377.848 133.4C379.168 132.08 379.828 130.137 379.828 127.57V121.63H380.323C379.809 123.683 378.654 125.315 376.858 126.525C375.098 127.735 373.044 128.34 370.698 128.34C368.278 128.34 366.169 127.79 364.373 126.69C362.576 125.553 361.183 123.995 360.193 122.015C359.203 119.998 358.708 117.67 358.708 115.03C358.708 113.013 358.983 111.198 359.533 109.585C360.119 107.935 360.926 106.542 361.953 105.405C363.016 104.232 364.281 103.333 365.748 102.71C367.214 102.05 368.864 101.72 370.698 101.72C373.081 101.72 375.153 102.325 376.913 103.535C378.673 104.745 379.809 106.377 380.323 108.43L379.718 109.2V104.36C379.718 103.517 379.938 102.893 380.378 102.49C380.818 102.05 381.441 101.83 382.248 101.83C383.018 101.83 383.623 102.05 384.063 102.49C384.503 102.893 384.723 103.517 384.723 104.36V126.91C384.723 131.053 383.659 134.17 381.533 136.26C379.443 138.35 376.381 139.395 372.348 139.395ZM371.798 124.38C373.448 124.38 374.859 124.013 376.033 123.28C377.243 122.51 378.159 121.428 378.783 120.035C379.443 118.605 379.773 116.937 379.773 115.03C379.773 112.133 379.058 109.86 377.628 108.21C376.198 106.523 374.254 105.68 371.798 105.68C370.148 105.68 368.718 106.065 367.508 106.835C366.334 107.568 365.418 108.632 364.758 110.025C364.098 111.418 363.768 113.087 363.768 115.03C363.768 117.89 364.483 120.163 365.913 121.85C367.379 123.537 369.341 124.38 371.798 124.38ZM395.769 129.275C394.999 129.275 394.394 129.037 393.954 128.56C393.514 128.083 393.294 127.423 393.294 126.58V104.635C393.294 103.755 393.514 103.095 393.954 102.655C394.394 102.178 394.999 101.94 395.769 101.94C396.576 101.94 397.199 102.178 397.639 102.655C398.079 103.095 398.299 103.755 398.299 104.635V126.58C398.299 127.423 398.079 128.083 397.639 128.56C397.236 129.037 396.612 129.275 395.769 129.275ZM395.769 96C394.779 96 393.991 95.7433 393.404 95.23C392.854 94.68 392.579 93.965 392.579 93.085C392.579 92.1317 392.854 91.4167 393.404 90.94C393.991 90.4267 394.779 90.17 395.769 90.17C396.832 90.17 397.621 90.4267 398.134 90.94C398.684 91.4167 398.959 92.1317 398.959 93.085C398.959 93.965 398.684 94.68 398.134 95.23C397.621 95.7433 396.832 96 395.769 96ZM419.271 129.495C416.374 129.495 413.881 128.945 411.791 127.845C409.738 126.708 408.143 125.113 407.006 123.06C405.869 120.97 405.301 118.513 405.301 115.69C405.301 112.903 405.851 110.465 406.951 108.375C408.088 106.285 409.628 104.653 411.571 103.48C413.551 102.307 415.806 101.72 418.336 101.72C420.133 101.72 421.746 102.032 423.176 102.655C424.643 103.242 425.889 104.103 426.916 105.24C427.943 106.377 428.713 107.77 429.226 109.42C429.776 111.033 430.051 112.867 430.051 114.92C430.051 115.507 429.868 115.965 429.501 116.295C429.171 116.588 428.676 116.735 428.016 116.735H409.206V113.545H426.751L425.816 114.315C425.816 112.408 425.523 110.795 424.936 109.475C424.386 108.118 423.561 107.092 422.461 106.395C421.398 105.698 420.059 105.35 418.446 105.35C416.686 105.35 415.183 105.772 413.936 106.615C412.689 107.422 411.736 108.577 411.076 110.08C410.416 111.547 410.086 113.252 410.086 115.195V115.525C410.086 118.825 410.874 121.318 412.451 123.005C414.028 124.692 416.301 125.535 419.271 125.535C420.444 125.535 421.636 125.388 422.846 125.095C424.093 124.802 425.284 124.27 426.421 123.5C426.971 123.17 427.466 123.023 427.906 123.06C428.383 123.06 428.768 123.207 429.061 123.5C429.354 123.757 429.538 124.087 429.611 124.49C429.684 124.857 429.629 125.26 429.446 125.7C429.263 126.14 428.914 126.525 428.401 126.855C427.191 127.698 425.743 128.358 424.056 128.835C422.406 129.275 420.811 129.495 419.271 129.495ZM446.066 129.495C444.416 129.495 442.747 129.312 441.061 128.945C439.411 128.542 437.852 127.863 436.386 126.91C435.982 126.653 435.689 126.342 435.506 125.975C435.359 125.572 435.304 125.187 435.341 124.82C435.414 124.417 435.579 124.068 435.836 123.775C436.092 123.482 436.404 123.317 436.771 123.28C437.174 123.207 437.596 123.298 438.036 123.555C439.466 124.362 440.841 124.93 442.161 125.26C443.517 125.59 444.856 125.755 446.176 125.755C448.192 125.755 449.714 125.388 450.741 124.655C451.767 123.922 452.281 122.95 452.281 121.74C452.281 120.713 451.932 119.925 451.236 119.375C450.576 118.788 449.531 118.348 448.101 118.055L442.986 117.01C440.712 116.497 438.989 115.653 437.816 114.48C436.679 113.27 436.111 111.73 436.111 109.86C436.111 108.21 436.551 106.78 437.431 105.57C438.347 104.323 439.612 103.37 441.226 102.71C442.839 102.05 444.691 101.72 446.781 101.72C448.394 101.72 449.916 101.94 451.346 102.38C452.812 102.783 454.132 103.407 455.306 104.25C455.746 104.507 456.021 104.837 456.131 105.24C456.277 105.607 456.296 105.992 456.186 106.395C456.112 106.762 455.947 107.073 455.691 107.33C455.434 107.587 455.104 107.752 454.701 107.825C454.297 107.862 453.857 107.752 453.381 107.495C452.317 106.762 451.217 106.248 450.081 105.955C448.981 105.625 447.881 105.46 446.781 105.46C444.801 105.46 443.297 105.845 442.271 106.615C441.281 107.385 440.786 108.393 440.786 109.64C440.786 110.593 441.079 111.382 441.666 112.005C442.289 112.628 443.261 113.087 444.581 113.38L449.696 114.425C452.079 114.938 453.876 115.763 455.086 116.9C456.296 118 456.901 119.503 456.901 121.41C456.901 123.903 455.911 125.883 453.931 127.35C451.987 128.78 449.366 129.495 446.066 129.495Z" fill="black"/>
</svg>
