<svg xmlns="http://www.w3.org/2000/svg" id="Layer_7" data-name="Layer 7" viewBox="0 0 386.62 105.34"><defs><style>.cls-3,.cls-4{fill-rule:evenodd}.cls-3{fill:#eba812}.cls-4{fill:#fff}</style></defs><path d="M79.05 21.44 67.63 41.21l6.62 11.46-6.62 11.46 9.02 15.62 2.4 4.16-1.56 2.7H38.32l-9.79-16.96-9.79-16.96 9.79-16.96 9.79-16.96H77.5l1.56 2.7Zm6.23 10.78 2.01 3.49 9.79 16.96-9.79 16.96-2.01 3.49-5.19-8.99 6.62-11.46-6.62-11.46zM69.2 27.73H43.51L30.67 49.97h12.45l6.62-11.46h13.23zM30.67 55.36 43.51 77.6h25.68l-6.23-10.78H49.73l-6.62-11.46H30.66Z" style="fill-rule:evenodd;fill:#f1c00d"/><path d="M43.51 77.61 30.67 55.37h12.45l6.62 11.46h13.23l6.23 10.78H43.52ZM77.5 86.6 57.91 52.67H18.73l9.79 16.96 9.79 16.96h39.18Z" style="fill:#f2910c;fill-rule:evenodd"/><path d="M18.73 52.67h39.18l14.4-24.94 5.19-8.99H38.32L28.53 35.7l-9.79 16.96Zm24.39-2.7H30.67l12.84-22.24H69.2l-6.23 10.78H49.74zM285.09 47.96 271.13 29.9h-4.25v26.12h4.55V37.44l14.37 18.58h3.84V29.9h-4.55zm74.51-13.81h8.28V29.9h-21.19v4.25h8.28v21.86h4.63zm-15.78 21.86-9.48-13.36 9.1-12.76h-5.26l-6.53 9.37-6.49-9.37h-5.41l9.14 12.84-9.51 13.28h5.26l6.9-9.89 6.86 9.89h5.41Zm-28.13-15.26h-19.33v15.26h19.51v-4.14h-14.96v-6.98h14.77v-4.14Z" class="cls-3"/><path d="m129.91 51.84-2.95-2.98c-1.12 1.04-2.25 1.87-3.4 2.48-1.14.61-2.51.91-4.1.91-1.24 0-2.39-.24-3.45-.73a8.25 8.25 0 0 1-2.74-2 9 9 0 0 1-1.79-2.97c-.42-1.13-.63-2.34-.63-3.64s.21-2.5.63-3.62 1.02-2.1 1.79-2.93 1.68-1.49 2.74-1.98 2.21-.73 3.45-.73q2.235 0 3.99.9c1.17.6 2.28 1.38 3.32 2.35l2.95-3.4c-.62-.6-1.28-1.14-1.98-1.64q-1.05-.75-2.28-1.29t-2.7-.84c-.98-.2-2.07-.3-3.26-.3-1.99 0-3.81.35-5.45 1.06s-3.06 1.68-4.25 2.91a13.3 13.3 0 0 0-2.78 4.31c-.66 1.64-.99 3.4-.99 5.26s.34 3.66 1.01 5.3 1.6 3.07 2.78 4.27q1.77 1.815 4.2 2.85c1.62.7 3.38 1.04 5.3 1.04 1.22 0 2.33-.11 3.34-.32s1.93-.52 2.78-.93 1.64-.9 2.37-1.46 1.44-1.2 2.11-1.92ZM296.36 29.9v4.14h19.33V29.9zm-35.04 13.02c0-1.84-.33-3.58-1.01-5.22-.67-1.64-1.6-3.07-2.8-4.29-1.19-1.22-2.62-2.18-4.29-2.89s-3.51-1.06-5.52-1.06-3.86.36-5.52 1.08c-1.67.72-3.11 1.7-4.33 2.93s-2.16 2.67-2.84 4.31c-.67 1.64-1.01 3.38-1.01 5.22s.34 3.58 1.01 5.22 1.6 3.07 2.8 4.29c1.19 1.22 2.62 2.18 4.29 2.89s3.51 1.06 5.52 1.06 3.86-.36 5.52-1.08c1.67-.72 3.11-1.7 4.33-2.93s2.16-2.67 2.84-4.31 1.01-3.38 1.01-5.22m-4.81.07c0 1.27-.22 2.47-.65 3.6a9.3 9.3 0 0 1-1.81 2.95c-.77.83-1.7 1.49-2.78 1.98s-2.27.73-3.56.73-2.49-.25-3.58-.75q-1.635-.75-2.82-2.01c-1.185-1.26-1.39-1.83-1.83-2.97-.44-1.13-.65-2.33-.65-3.6s.22-2.47.65-3.6a9.3 9.3 0 0 1 1.81-2.95c.77-.83 1.7-1.49 2.78-1.98s2.27-.73 3.56-.73 2.49.25 3.58.75q1.635.75 2.82 2.01c.78.85 1.39 1.83 1.83 2.97.44 1.13.65 2.33.65 3.6m-33.06-8.84h8.28V29.9h-21.19v4.25h8.28v21.86h4.63zm-15.75 4.51c0-1.34-.23-2.55-.69-3.62a7.8 7.8 0 0 0-1.98-2.76c-.86-.77-1.9-1.36-3.13-1.77s-2.61-.62-4.12-.62h-10.3v26.12h4.55v-8.4h5.2c1.45 0 2.8-.19 4.08-.58 1.27-.39 2.37-.95 3.33-1.7.95-.75 1.69-1.68 2.25-2.8.55-1.12.82-2.41.82-3.88Zm-4.66.09c0 1.42-.5 2.57-1.52 3.43-1.01.86-2.39 1.29-4.13 1.29h-5.35v-9.44h5.35c1.72 0 3.1.39 4.12 1.18 1.03.78 1.54 1.97 1.54 3.54Zm-29.96 6.85 10.37-15.71h-5.26l-7.39 11.57-7.31-11.57h-5.41l10.37 15.82v10.3h4.63zm-16.19 10.41-7.05-9.89c.92-.25 1.76-.6 2.52-1.06s1.41-1.02 1.96-1.68q.825-.99 1.29-2.28c.31-.86.47-1.83.47-2.93 0-1.27-.22-2.42-.67-3.45q-.675-1.545-1.92-2.61c-1.245-1.065-1.85-1.26-3.06-1.64-1.21-.39-2.56-.58-4.05-.58h-11.64v26.12h4.55v-9.1h5.77l6.44 9.1h5.41Zm-5.48-17.59c0 1.35-.48 2.43-1.46 3.22q-1.455 1.2-3.93 1.2h-6.73v-8.81h6.7c1.72 0 3.06.37 4 1.11.95.73 1.42 1.83 1.42 3.28M133.04 65.43c0-.46.2-.85.59-1.17.4-.32.95-.48 1.66-.48.63 0 1.26.12 1.88.37.62.24 1.24.6 1.88 1.06l1.3-1.84q-1.065-.855-2.28-1.29c-.81-.3-1.72-.44-2.74-.44-.68 0-1.32.1-1.89.29-.58.19-1.07.46-1.48.82s-.73.78-.97 1.27c-.23.49-.35 1.04-.35 1.65 0 .65.1 1.19.31 1.64.2.45.5.83.89 1.15s.87.58 1.45.79 1.23.4 1.97.57c.65.16 1.17.31 1.57.45.4.15.72.3.95.46s.39.35.47.54c.09.2.13.42.13.67 0 .54-.22.97-.66 1.28-.44.32-1.04.47-1.79.47-.87 0-1.65-.16-2.33-.46-.68-.31-1.36-.75-2.03-1.33l-1.46 1.74c.83.75 1.73 1.31 2.71 1.67s1.99.54 3.06.54c.72 0 1.39-.09 1.99-.28.6-.18 1.12-.45 1.55-.81s.77-.79 1.01-1.3.36-1.1.36-1.76c0-.58-.1-1.08-.29-1.51s-.47-.8-.84-1.13c-.37-.32-.84-.6-1.4-.82s-1.21-.43-1.93-.61c-.66-.16-1.2-.31-1.64-.45-.43-.14-.76-.3-1.01-.47-.24-.17-.41-.36-.5-.55-.09-.2-.14-.43-.14-.71Zm36.85-3.61h-10.23v13.83h10.33v-2.19h-7.92v-3.69H169v-2.19h-6.93v-3.56h7.82v-2.19Zm31.04 11.61-1.56-1.58c-.59.55-1.19.99-1.8 1.31s-1.33.48-2.17.48c-.66 0-1.27-.13-1.83-.38a4.5 4.5 0 0 1-1.45-1.06c-.41-.45-.72-.97-.95-1.57-.22-.6-.34-1.24-.34-1.93s.11-1.32.34-1.92a4.614 4.614 0 0 1 2.4-2.6c.56-.26 1.17-.38 1.83-.38.79 0 1.5.16 2.11.47.62.32 1.2.73 1.76 1.24l1.56-1.8q-.495-.48-1.05-.87a6.649 6.649 0 0 0-2.63-1.12c-.52-.11-1.1-.16-1.73-.16-1.05 0-2.01.19-2.88.56-.87.38-1.62.89-2.25 1.54q-.945.975-1.47 2.28c-.35.87-.52 1.8-.52 2.78s.18 1.94.53 2.8c.36.87.85 1.62 1.47 2.26a7 7 0 0 0 2.22 1.51c.86.37 1.79.55 2.81.55.64 0 1.23-.06 1.77-.17a6.7 6.7 0 0 0 1.47-.49c.45-.22.87-.47 1.25-.77.39-.3.76-.63 1.12-1.02Zm30.17-11.61h-2.41v7.96q0 1.92-.93 2.88c-.62.65-1.47.97-2.56.97s-1.96-.34-2.58-1.01-.94-1.65-.94-2.94v-7.86h-2.41v7.96c0 1 .14 1.88.41 2.64.28.76.67 1.39 1.19 1.91.51.51 1.13.9 1.86 1.16q1.08.39 2.43.39c1.35 0 1.73-.13 2.46-.39s1.35-.64 1.87-1.17c.51-.52.91-1.17 1.19-1.95s.42-1.68.42-2.71zm31.08 13.83-3.73-5.23c.49-.13.93-.32 1.33-.56s.75-.54 1.04-.89.52-.75.68-1.21c.17-.45.25-.97.25-1.55q0-1.005-.36-1.83T260.37 63c-.44-.38-.98-.66-1.62-.87s-1.35-.31-2.14-.31h-6.16v13.83h2.41v-4.82h3.05l3.41 4.82zm-2.9-9.31c0 .71-.26 1.28-.77 1.71-.51.42-1.21.63-2.08.63h-3.57v-4.66h3.55c.91 0 1.62.19 2.12.59q.75.585.75 1.74Zm21.6-4.51v13.83h2.41V61.83zm27.98 2.25h4.38v-2.25h-11.22v2.25h4.38v11.57h2.45V64.08Zm29.48 6.06 5.49-8.32h-2.79l-3.91 6.12-3.87-6.12h-2.86l5.49 8.38v5.45h2.45z" class="cls-4"/></svg>