<svg xmlns="http://www.w3.org/2000/svg" fill="none" viewBox="0 0 1211.7 326">
<path d="M309.692 83.0341C315.502 79.114 322.868 77.1291 331.625 77.1291C341.391 77.1291 349.453 79.6102 355.561 84.4897C361.685 89.3858 366.006 96.2336 368.406 104.868L368.654 105.744L389.097 100.253L388.833 99.3432C385.042 86.7227 378.189 76.5337 368.489 69.0738C358.772 61.5974 346.374 57.8096 331.625 57.8096C318.846 57.8096 307.772 60.6546 298.751 66.2619C289.729 71.8692 282.727 79.7922 277.943 89.8158C273.176 99.8064 270.776 111.534 270.776 124.684C270.776 137.833 273.193 149.561 277.943 159.551C282.727 169.575 289.713 177.498 298.751 183.105C307.772 188.712 318.829 191.557 331.625 191.557C346.374 191.557 358.772 187.77 368.489 180.293C378.189 172.817 385.042 162.644 388.833 150.024L389.097 149.114L368.654 143.623L368.406 144.499C366.006 153.067 361.685 159.899 355.561 164.828C349.453 169.74 341.391 172.238 331.625 172.238C322.868 172.238 315.486 170.253 309.659 166.333C303.832 162.413 299.38 156.839 296.45 149.776C293.487 142.647 292.013 134.228 292.08 124.717C292.08 115.206 293.586 106.77 296.549 99.6575C299.479 92.5947 303.915 87.0204 309.725 83.1003L309.692 83.0341Z" fill="#15202D"/>
<path d="M510.117 161.834L482.904 92.6608L482.672 92.0819H461.501L500.334 187.588L484.344 231.106H503.794L556.482 93.339L556.946 92.0819H536.321L510.117 161.834Z" fill="#15202D"/>
<path d="M634.944 96.1509C628.339 91.7015 620.394 89.4354 611.323 89.4354C602.252 89.4354 594.389 91.7015 588.132 96.1509C586.808 97.0937 585.517 98.1523 584.259 99.3267V92.0653H566.05V231.09H586.361V183.237C587.006 183.767 587.635 184.246 588.248 184.693C594.538 189.209 602.417 191.508 611.67 191.508C620.924 191.508 628.571 189.242 635.11 184.759C641.648 180.293 646.747 174.107 650.289 166.399C653.815 158.724 655.602 149.974 655.602 140.381C655.602 130.787 653.798 121.971 650.239 114.362C646.664 106.704 641.499 100.584 634.911 96.1343L634.944 96.1509ZM631.451 157.103C629.614 161.983 626.817 165.919 623.125 168.797C619.467 171.642 614.749 173.082 609.121 173.082C603.493 173.082 598.527 171.692 594.886 168.963C591.244 166.217 588.529 162.363 586.841 157.517C585.119 152.604 584.259 146.848 584.259 140.414C584.259 133.979 585.136 128.223 586.89 123.311C588.612 118.464 591.294 114.643 594.853 111.947C598.395 109.268 602.997 107.911 608.509 107.911C614.369 107.911 619.252 109.35 623.009 112.212C626.783 115.09 629.631 118.994 631.468 123.856C633.322 128.769 634.266 134.343 634.266 140.414C634.266 146.484 633.322 152.158 631.468 157.103H631.451Z" fill="#15202D"/>
<path d="M820.802 166.978C824.692 159.353 826.662 150.404 826.662 140.397C826.662 130.39 824.709 121.64 820.836 114.031C816.962 106.406 811.4 100.336 804.299 95.9855C797.198 91.6353 788.723 89.4354 779.089 89.4354C769.455 89.4354 761.244 91.6022 754.143 95.8532C747.042 100.121 741.447 106.158 737.524 113.8C733.601 121.425 731.614 130.374 731.614 140.381C731.614 150.388 733.551 159.237 737.391 166.862C741.232 174.521 746.777 180.608 753.878 184.958C760.98 189.308 769.455 191.508 779.089 191.508C788.723 191.508 797.115 189.324 804.2 184.991C811.301 180.674 816.879 174.603 820.769 166.945L820.802 166.978ZM779.105 172.37C770.58 172.37 764.058 169.476 759.672 163.753C755.236 157.963 753.001 150.107 753.001 140.397C753.001 134.095 753.961 128.488 755.848 123.724C757.702 119.027 760.582 115.288 764.406 112.625C768.213 109.962 773.163 108.606 779.105 108.606C787.729 108.606 794.318 111.484 798.654 117.174C803.058 122.93 805.292 130.754 805.292 140.414C805.292 150.073 803.091 157.633 798.737 163.571C794.45 169.426 787.845 172.387 779.105 172.387V172.37Z" fill="#15202D"/>
<path d="M860.811 96.8456L921.528 188.481L921.793 188.894H941.872V60.4231H921.379V152.389L860.662 60.8366L860.381 60.4231H840.319V188.894H860.811V96.8456Z" fill="#15202D"/>
<path d="M1048.59 163.323L1028.83 157.054L1028.48 157.765C1026.21 162.446 1023.03 166.101 1019.01 168.599C1014.99 171.097 1010.12 172.37 1004.58 172.37C996.166 172.37 989.644 169.608 985.225 164.133C981.682 159.766 979.53 153.878 978.785 146.583H1049.45L1049.5 145.723C1050.21 134.261 1048.84 124.22 1045.43 115.867C1042 107.465 1036.74 100.882 1029.82 96.3163C1022.9 91.7511 1014.41 89.4354 1004.59 89.4354C994.776 89.4354 986.83 91.5857 979.746 95.8035C972.644 100.038 967.033 106.108 963.077 113.849C959.12 121.557 957.118 130.787 957.118 141.257C957.118 151.149 959.153 159.981 963.159 167.491C967.182 175.017 972.893 180.971 980.143 185.173C987.377 189.374 995.901 191.491 1005.47 191.491C1015.04 191.491 1023.41 189.093 1031.03 184.362C1038.66 179.615 1044.44 172.833 1048.19 164.199L1048.59 163.273V163.323ZM985.225 115.917C989.661 110.376 996.398 107.564 1005.27 107.564C1013.27 107.564 1019.27 110.111 1023.16 115.123C1025.96 118.745 1027.83 123.906 1028.69 130.44H979.266C980.275 124.502 982.278 119.622 985.225 115.917Z" fill="#15202D"/>
<path d="M676.906 65.6995V92.0819H658.681V108.689H676.906V171.295C676.923 181.815 685.497 190.383 696.042 190.383H725.473V171.642H700.196C698.558 171.642 697.233 170.319 697.233 168.682V108.689H725.49V92.0819H697.233V65.6995H676.906Z" fill="#15202D"/>
<path d="M1211.69 108.689V92.0819H1183.43V65.6995H1163.12V92.0819H1121.16L1098.22 124.055L1075.01 92.0819H1050.89L1086.33 139.951L1050.1 188.878H1074.3L1098.2 155.846L1121.94 188.878H1146.14L1109.82 139.951L1144.9 92.5616V108.672H1163.12V171.279C1163.14 181.798 1171.71 190.367 1182.26 190.367H1211.69V171.626H1186.41C1184.77 171.626 1183.45 170.303 1183.45 168.665V108.672H1211.7L1211.69 108.689Z" fill="#15202D"/>
<path d="M451.751 92.1977C450.178 92.1977 447.944 92.1977 445.312 92.1977C440.064 92.1977 433.211 92.1977 426.872 92.1977C419.82 92.1977 413.199 94.9434 408.2 99.9222C403.217 104.901 400.469 111.534 400.469 118.58V131.167L400.502 131.598V189.738H420.813V119.622C420.813 114.858 424.703 110.971 429.47 110.971H455.177V93.157C455.177 92.2308 454.863 92.2308 451.767 92.2142L451.751 92.1977Z" fill="#15202D"/>
<path d="M793.473 238.748C796.685 236.664 800.839 235.655 805.921 235.738C811.285 235.771 815.754 237.028 819.346 239.492C822.921 241.957 825.057 245.298 825.752 249.516L832.953 248.176C832.588 244.405 831.198 241.08 828.798 238.219C826.397 235.357 823.252 233.124 819.346 231.52C815.439 229.915 811.053 229.105 806.17 229.105C801.286 229.105 796.983 229.882 793.275 231.42C789.55 232.959 786.653 235.109 784.584 237.855C782.515 240.601 781.472 243.776 781.472 247.399C781.472 250.409 782.168 252.94 783.575 255.024C784.982 257.092 787.398 258.944 790.825 260.565C794.268 262.186 799.035 263.824 805.127 265.445C810.904 267.033 815.257 268.405 818.171 269.596C821.1 270.771 823.054 272.061 824.063 273.467C825.057 274.873 825.553 276.659 825.553 278.859C825.553 282.878 823.948 286.054 820.736 288.37C817.525 290.686 813.188 291.844 807.742 291.844C802.296 291.844 797.612 290.686 793.838 288.37C790.063 286.054 787.663 282.945 786.637 279.041L779.436 280.265C780.612 285.988 783.674 290.471 788.623 293.68C793.556 296.888 799.83 298.493 807.444 298.493C815.059 298.493 821.597 296.756 826.133 293.283C830.668 289.809 832.936 285.029 832.936 278.925C832.936 275.551 832.208 272.723 830.734 270.423C829.278 268.124 826.762 266.123 823.203 264.419C819.644 262.715 814.694 261.045 808.355 259.424C803.157 258.117 799.118 256.91 796.271 255.768C793.424 254.627 791.437 253.386 790.328 252.014C789.203 250.657 788.656 249.003 788.656 247.051C788.656 243.644 790.262 240.882 793.473 238.798V238.748Z" fill="#15202D"/>
<path d="M888.041 233.438C883.506 230.527 878.043 229.088 871.67 229.088C865.297 229.088 859.934 230.494 855.349 233.29C850.78 236.085 847.238 240.104 844.738 245.331C842.239 250.558 840.981 256.761 840.981 263.956C840.981 271.151 842.239 277.155 844.755 282.333C847.271 287.51 850.83 291.513 855.432 294.341C860.033 297.17 865.479 298.576 871.786 298.576C878.093 298.576 883.919 297.037 888.919 293.944C893.918 290.851 897.741 286.468 900.39 280.778L894.05 277.966C891.815 282.399 888.786 285.79 884.995 288.171C881.188 290.553 876.752 291.744 871.67 291.744C864.304 291.744 858.61 289.313 854.554 284.433C850.813 279.934 848.81 273.732 848.529 265.842H901.797C901.913 258.117 900.787 251.517 898.42 246.026C896.036 240.534 892.577 236.35 888.058 233.438H888.041ZM848.661 259.507C849.224 252.626 851.194 247.151 854.554 243.082C858.593 238.186 864.337 235.738 871.786 235.738C879.235 235.738 884.515 238.086 888.372 242.8C891.65 246.803 893.62 252.377 894.249 259.507H848.661Z" fill="#15202D"/>
<path d="M927.471 239.476C930.847 237.094 935.135 235.903 940.333 235.903C944.967 235.903 949.073 237.028 952.648 239.277C956.223 241.527 958.855 244.719 960.511 248.821L967.347 246.324C965.477 240.964 962.116 236.747 957.25 233.67C952.383 230.61 946.772 229.072 940.382 229.072C933.993 229.072 928.298 230.511 923.796 233.405C919.277 236.283 915.834 240.336 913.45 245.563C911.067 250.79 909.842 256.86 909.759 263.824C909.842 270.655 911.05 276.676 913.384 281.886C915.718 287.113 919.145 291.198 923.663 294.143C928.182 297.087 933.728 298.559 940.316 298.559C946.904 298.559 952.002 297.103 956.604 294.209C961.206 291.298 964.781 287.063 967.347 281.506L960.395 279.124C958.557 283.226 955.925 286.352 952.499 288.502C949.056 290.653 945 291.728 940.333 291.728C932.768 291.728 927.073 289.18 923.217 284.086C919.376 278.991 917.39 272.226 917.274 263.824C917.357 258.332 918.234 253.502 919.889 249.317C921.561 245.133 924.077 241.858 927.454 239.476H927.471Z" fill="#15202D"/>
<path d="M1025.3 266.454C1025.3 270.076 1024.89 273.417 1024.04 276.477C1023.21 279.537 1021.94 282.2 1020.27 284.433C1018.58 286.666 1016.43 288.403 1013.8 289.644C1011.18 290.884 1008.07 291.496 1004.49 291.496C1000.92 291.496 998.037 290.901 995.504 289.726C992.955 288.552 990.853 286.815 989.164 284.549C987.476 282.283 986.218 279.521 985.39 276.262C984.562 273.004 984.132 269.315 984.132 265.163V230.908H977.064V266.933C977.064 270.341 977.395 273.616 978.074 276.742C978.752 279.868 979.779 282.746 981.152 285.36C982.526 287.973 984.281 290.256 986.4 292.191C988.519 294.126 991.002 295.615 993.865 296.673C996.729 297.732 999.973 298.261 1003.6 298.261C1008.73 298.261 1013.33 297.153 1017.44 294.937C1020.88 293.084 1023.71 290.371 1025.98 286.832V296.74H1032.38V230.924H1025.32V266.454H1025.3Z" fill="#15202D"/>
<path d="M1096.48 208.677H1089.46V217.642H1096.48V208.677Z" fill="#15202D"/>
<path d="M1096.48 230.908H1089.46V296.723H1096.48V230.908Z" fill="#15202D"/>
<path d="M1180.8 287.394L1158.07 230.908H1150.57L1177.37 296.756L1166.5 326H1173.81L1208.82 230.908H1201.44L1180.8 287.394Z" fill="#15202D"/>
<path d="M1126.99 212.465H1119.32V231.04H1105.83V237.458H1119.32V286.468C1119.32 291.645 1123.56 295.863 1128.74 295.863H1146.72V289.18H1131.32C1128.92 289.18 1126.97 287.229 1126.97 284.83V237.458H1146.72V231.04H1126.97V212.465H1126.99Z" fill="#15202D"/>
<path d="M1060.69 230.891C1057.18 230.891 1053.87 232.264 1051.39 234.745C1048.9 237.226 1047.53 240.534 1047.53 244.041V296.822H1054.88V244.67C1054.88 240.65 1058.16 237.375 1062.18 237.375H1079.21V230.924C1077.29 230.924 1068.97 230.924 1060.67 230.924L1060.69 230.891Z" fill="#15202D"/>
<path d="M68.1491 225.648L116.385 197.694L119.845 203.648L157.652 181.682L160.979 187.372L218.782 153.927V129.298L59.9554 220.917L68.1491 225.648Z" fill="#00D7E4"/>
<path d="M34.298 206.13L77.3692 181.17L80.8288 187.108L120.308 164.182L123.635 169.872L218.782 114.759V89.584L25.9553 201.316L34.298 206.13Z" fill="#00D7E4"/>
<path d="M209.496 54.7659L0.0331062 176.207C0.198637 179.152 1.02629 181.964 2.4002 184.478L38.966 163.256L42.4256 169.211L81.9213 146.269L85.232 151.975L218.799 74.5816V71.3231C218.799 64.558 215.273 58.289 209.513 54.7824L209.496 54.7659Z" fill="#00D7E4"/>
<path d="M42.5746 129.695L82.0538 106.753L85.3809 112.46L197.164 47.6369L175.38 35.066L0 136.791V146.418L39.115 123.74L42.5746 129.695Z" fill="#00D7E4"/>
<path d="M46.8122 88.4758L86.2914 65.5339L89.6185 71.2404L163.677 28.3174L141.893 15.7465L0 98.0197V107.646L43.3526 82.5211L46.8122 88.4758Z" fill="#00D7E4"/>
<path d="M45.7197 50.8788L83.527 28.9128L86.8376 34.6194L130.637 9.26251L119.083 2.59663C113.074 -0.860374 105.675 -0.860374 99.6828 2.59663L9.70012 54.5178C4.25415 57.6605 0.711784 63.2016 0.0993187 69.3713L42.2766 44.9242L45.7362 50.8788H45.7197Z" fill="#00D7E4"/>
<path d="M146.396 218.006L100.759 244.421C106.552 247.299 113.438 247.117 119.1 243.859L209.082 191.938C215.091 188.481 218.782 182.079 218.782 175.149V167.755L142.671 211.588L146.396 218.022V218.006Z" fill="#00D7E4"/>
</svg>