<svg xmlns="http://www.w3.org/2000/svg" baseProfile="tiny-ps" viewBox="0 0 596 192"><title>I4P</title><style>.shp1{fill:#33373f}</style><path id="I" fill-rule="evenodd" d="m221.21 95.52-30.13 17.35v78.35H.47V.62h190.61v77.51zM114.89 47.19h-38.2v97.43h38.2z" style="fill:#5eb1c9"/><path id="4" fill-rule="evenodd" d="m423.4 95.52-30.13 17.35v78.35h-190.6v-72.98l18.57-10.7 20.1-11.62-20.1-11.61-18.57-10.7V.62h190.6v77.51zm-70.49 21.89h-17.98V47.03h-30.02l-44.2 65.02-7.71 10.63-2.19 2.97c6.71.14 10.54.21 11.51.21l5.12-.06h30.09v18.53h37.4v-18.27h17.98z" class="shp1"/><path id="in4" d="M268.42 117.42h29.11v-44.1l-29.47 44.09c.11 0 .23.01.36.01" class="shp1"/><path id="P" fill-rule="evenodd" d="M595.44.62v190.6H404.83v-72.98l18.57-10.7 20.11-11.62-20.11-11.61-18.57-10.7V.62zm-51.05 78.81c0-17.76-15.98-32.24-35.68-32.24H472.4v97.43h35.88v-32.96h.43c19.7 0 35.68-14.42 35.68-32.23" style="fill:#ffb32f"/></svg>