<svg xmlns="http://www.w3.org/2000/svg" width="583" height="571"><path fill="#6bcdee" d="M381.324 17.62c2.584.837 5.13 1.748 7.676 2.692l2.617.936A229 229 0 0 1 406 27q1.888.795 3.777 1.586C427.284 36.054 444.517 44.88 460 56q1.909 1.32 3.82 2.637 1.965 1.367 3.93 2.738l1.885 1.302C471.127 63.734 472.57 64.86 474 66v2l1.695.766c7.974 4.27 14.616 11.349 20.993 17.671l1.892 1.865C503 92.753 503 92.753 503 95l1.75.707c2.798 1.608 4.25 3.447 6.25 5.98l2.39 3.016 1.28 1.627a270 270 0 0 0 4.127 5.03C541.77 139.034 557.4 170.816 568 205l.736 2.353c2.23 7.24 3.672 13.755 3.334 21.346-.15 2.493-.15 2.493.492 5.676.475 2.844.17 4.856-.562 7.625-1.765-3.088-2-4.233-2-8h-2l-.437 2.75L567 240l-.312 2.187c-1.031 2.717-2.128 3.405-4.688 4.813a93 93 0 0 1-6.977 1.473c-2.233.4-2.233.4-4.023 2.527h-3l-1 3v-8h-2l-2-15h-2c-1.607-3.215-1.057-6.436-1-10h-2v-4l-1-2h-2l-.652-1.854C524.038 184.086 510.352 158.03 491 134l-1.39-1.744c-6.31-7.885-13.219-15.035-20.48-22.053l-2.017-1.965-1.819-1.748C464 105 464 105 464 103l-2-.563c-2.723-1.304-4.19-2.38-6.375-4.375-3.8-3.462-7.83-6.447-12-9.437-5.464-3.928-10.473-8.096-15.41-12.68-5.359-4.706-10.314-7.645-17.465-8.195-4.415.294-7.735 1.5-11.75 3.25l-2.375.875c-1.803 1.02-1.803 1.02-2.375 3.133-1.801 4.312-4.349 8.072-6.875 11.992l-3.277 5.14-1.613 2.526c-4.082 6.417-8.068 12.895-11.903 19.463l-1.24 2.108a487 487 0 0 0-2.374 4.092c-.935 1.59-1.945 3.136-2.968 4.671h-2l-.75 2c-2.683 6.439-5.988 12.387-9.75 18.25-3.9 6.158-7.7 12.367-11.437 18.625-3.86 6.46-7.75 12.9-11.688 19.312a918 918 0 0 0-10.437 17.438 647 647 0 0 1-10 16.562l-1.239 1.98a503 503 0 0 1-6.293 9.77l-1.257 1.914a973 973 0 0 1-3.434 5.16c-1.624 2.83-2.446 4.762-2.715 7.989l1 3c5.912.738 11.64 1.136 17.593 1.082l2.443-.01q2.598-.01 5.195-.027 4.11-.025 8.221-.036 11.678-.038 23.355-.105 7.164-.04 14.328-.055 2.725-.009 5.452-.03c2.532-.02 5.064-.026 7.596-.03l2.276-.027c3.74.007 5.345.107 8.541 2.238-.505 4.923-1.912 7.87-4.687 11.937a935 935 0 0 0-2.446 3.68l-1.372 2.073c-2.953 4.562-5.744 9.224-8.558 13.872a2714 2714 0 0 1-10.855 17.805 3458 3458 0 0 0-12.332 20.195l-1.11 1.828a5143 5143 0 0 0-21.812 36.255c-5.15 8.632-10.413 17.193-15.693 25.747a1668 1668 0 0 0-13.385 22.045 735 735 0 0 1-11.687 18.938c-4.957 7.775-9.695 15.665-14.348 23.626-3.47 5.933-7.036 11.8-10.649 17.647-3.07 4.98-6.102 9.983-9.135 14.986q-2.764 4.557-5.529 9.112c-.37.61-.74 1.221-1.123 1.85Q235.655 505.809 227 520l-1.229 2.017A1296 1296 0 0 1 219 533l-1.152 1.856c-1.213 1.949-2.436 3.89-3.66 5.831l-1.133 1.823c-1.847 2.902-3.144 4.55-6.055 6.49-21.24 1.501-47.86-15.971-65.287-26.924a323 323 0 0 0-4.733-2.9c-12.42-7.624-23.415-17.07-34.305-26.697a879 879 0 0 0-4.355-3.815C87.308 478.952 76.994 468.62 68 457l-2.453-3.078C59.487 446.268 54.109 438.312 49 430l-1.17-1.872C24.13 390.111 8.307 345.034 7 300h1l1-20h1v8l6 2v-2l7 1v-7l3 1-1 5h2v-8c2.817-.783 4.46-1.195 7.25-.188C36 281 36 281 37 283c.226 1.704.409 3.413.563 5.125l.253 2.758L38 293l.076-2.12c.117-3.231.24-6.462.361-9.693l.12-3.333c.267-6.979.731-13.906 1.443-20.854h1c-.01.96-.02 1.92-.032 2.908C40.461 311.036 46.416 357.783 72 403l1.648 2.941c10.285 17.7 23.16 33.4 37.352 48.059l1.718 1.784c7.041 7.287 14.3 13.953 22.282 20.216q1.783 1.431 3.563 2.867a1386 1386 0 0 0 18.687 14.82l3.14 2.45c3.501 2.5 6.155 3.035 10.36 3.113l2.484.078c4.273-.507 8.107-1.576 11.148-4.787 1.305-1.778 2.473-3.593 3.618-5.479l1.3-2.041c3.043-4.824 5.917-9.745 8.747-14.697 2.436-4.146 5-8.203 7.578-12.262 8.608-13.563 17.092-27.197 25.313-41 5.898-9.89 12.068-19.596 18.284-29.289 9.786-15.265 19.515-30.568 29.053-45.989q1.68-2.71 3.371-5.412a774 774 0 0 0 4.354-7.06l1.296-2.05c1.744-2.9 2.739-4.729 2.517-8.157-.632-2.059-.632-2.059-1.813-3.105-2.86-.125-5.697-.186-8.559-.205l-2.72-.03q-4.47-.047-8.944-.081l-6.183-.063q-8.156-.083-16.31-.153-8.316-.077-16.63-.161-16.327-.162-32.654-.307c-2.104-4.695-2.104-4.695-1.164-7.438l1.539-2.562 1.727-2.926L200 301l1.836-3.043a868 868 0 0 1 8.406-13.496c5.687-8.991 11.098-18.122 16.44-27.322 7.536-12.975 15.194-25.858 23.256-38.514 5.976-9.388 11.63-18.95 17.257-28.55a4788 4788 0 0 1 9.081-15.387q1.498-2.53 2.993-5.063a931 931 0 0 1 9.735-16.11c4.01-6.491 7.832-13.08 11.621-19.703Q304.301 127.4 308 121l1.726-3.026 1.61-2.775 1.415-2.462L314 111h2l.352-2.233c.654-2.791 1.523-4.607 3.02-7.033l1.472-2.418 1.594-2.566 3.328-5.453 1.673-2.733c2.128-3.495 4.19-7.027 6.248-10.564 5.651-9.665 11.492-19.216 17.314-28.778Q353.503 45.112 356 41l1.74-2.862a248 248 0 0 0 8.768-15.79c3.757-5.912 8.138-6.509 14.816-4.728"/><path fill="#18b0ea" d="m435 252 1 4 2-1v4h-2v2l4-1v2h-4l2 1v2h2v7h-2v-4l-7 1v-2c-3.125 1.635-3.125 1.635-3.687 4.125L427 273l-1.937.313L423 274l-1 3h-2l.125 2.313C420 282 420 282 418 285h-3v3l-2 1-1 3h3l1-3 6-1 1 4-3-1v3l-2-1 1-2h-3v5l4-1 .313 2.375c.463 2.955.463 2.955 3.687 4.625 3.036 1.077 4.943.982 8 0v2l3.219-.219 4.281-.281 2.11-.145c4.807-.311 9.572-.398 14.39-.355l.375-1.875C457 299 457 299 459 297c2.625-.125 2.625-.125 5 0 .2-3.716.152-4.772-2-8l6 2v5h2v-5h2v5h2v-2l6-2v2h4v-2h2v-3l5.957-1.465c1.7-.445 3.376-.98 5.043-1.535v2h2l1 3h2v-2l3-1v4h2v-4h2v-4l5 1 2 14h1c1.392 44.635-20.939 90.79-49.397 124.117a463 463 0 0 0-4.705 5.637c-6.13 7.382-12.566 14.02-19.898 20.246l-2.535 2.191C427.038 462.512 412.587 471.953 397 480l-2.06 1.077C376.145 490.8 355.664 496.747 335 501l-3.281.676c-34.983 6.16-34.983 6.16-46.904 2.688C283 503 283 503 282.094 500.199c-.108-3.691.539-5.232 2.41-8.379l1.696-2.893L288 486l1.664-2.731a788 788 0 0 1 5.274-8.394 1225 1225 0 0 0 15.687-25.562c6.109-10.233 12.339-20.382 18.631-30.502 3.304-5.325 6.586-10.662 9.869-15.998l2.072-3.367a4946 4946 0 0 0 11.365-18.571c4.134-6.785 8.341-13.52 12.563-20.25 10.053-16.037 19.866-32.223 29.567-48.475 6.046-10.127 12.265-20.139 18.538-30.127q3.787-6.034 7.508-12.109l1.793-2.922q1.678-2.738 3.346-5.482l1.514-2.467 1.313-2.156C432.06 252 432.06 252 435 252"/><path fill="#169dde" d="m536 215 3 1 1 3h-2v2h2l1 10h2c1.263 5.075 2.27 9.728 2 15h2l1 5 2.125-1.5c3.246-1.694 5.268-1.752 8.875-1.5l1-3v2l1.875-1.5C564 244 564 244 566 244l.438-2.75c.426-2.465.913-4.838 1.562-7.25h2l1 5c.9-4.064.9-4.064.438-8.125-.594-2.545.343-3.64 1.562-5.875 13.848 58.634 5.93 123.188-21 177l-1.2 2.446C538.533 429.295 523.053 451.887 504 472a835 835 0 0 0-2.93 3.238c-9.856 10.923-20.486 20.67-32.07 29.762l-1.797 1.41c-8.815 6.879-17.802 13.059-27.508 18.608a190 190 0 0 0-4.597 2.775c-8.53 5.228-17.568 9.23-26.737 13.187a502 502 0 0 0-4.293 1.875C364.16 560.503 320.154 564.977 277 564l-3.369-.063a646 646 0 0 1-8.818-.25l-2.536-.067c-4.492-.21-7.837-.594-11.277-3.62-1.312-3.147-1.161-4.556.004-7.762l1.559-2.926 1.68-3.16L256 543l1.633-2.934c3.903-6.757 3.903-6.757 7.367-9.066 1.98-.265 1.98-.265 4.262-.287l2.604-.04 2.822-.017 2.944-.044c3.123-.047 6.245-.08 9.368-.112 56.063-.578 109.341-14.836 155-48.5l1.744-1.272c7.279-5.34 14.027-11.09 20.604-17.263 2.11-1.96 4.241-3.826 6.464-5.652 3.103-2.625 5.706-5.55 8.329-8.649a122 122 0 0 1 3.843-4.266C525.04 400.234 546.527 337.777 545 277c-.841-18.381-3.002-36.138-7.73-53.915-.74-2.797-1.27-5.174-1.27-8.085"/><path fill="#84ddf5" d="M418 105c4.69.188 7.685 2.72 11.188 5.563l1.703 1.351q1.724 1.37 3.44 2.75a349 349 0 0 0 4.74 3.707l2.741 2.129 2.458 1.906L446 124v2h2v2l1.785.806c29.388 15.84 50.5 63.042 59.632 93.177a270 270 0 0 1 2.896 10.954l.52 2.078c.941 4.047 1.204 7.658 1.094 11.838.081 2.393.54 4.517 1.065 6.854 1.739 8.875 1.217 17.978 1.133 26.98q-.016 2.816-.027 5.631-.035 6.841-.098 13.682h-1l-1-15-5-1v4h-2v4h-2l-1-3h-2v2l-3 1v-4l-3-1-1.812.938c-2.823 1.37-5.091 1.203-8.188 1.062v3h-2v2l-2.187-.562c-2.941-.458-4.954-.173-7.813.562v2h-2v-5h-2v5h-2v-5l-5-1 1.063 1.813C465 294 465 294 464 297l-2.937.938c-1.011.35-2.022.7-3.063 1.062l-.715 2.02L456 303a46.5 46.5 0 0 1-7.625.75l-2.082.09c-4.764.188-9.526.181-14.293.16v-2h-2l-1 2-7-1-.75-2.437c-.972-2.734-.972-2.734-3.375-3.375L416 297h4v-2l-4 1v-5h3l1 3v-3l2-1v-2h-2l-1 2h-3l-1 2h-3l1-4h2v-3h3l2-8h2l1-4 4-1v-5l11 1v4h2v-7h-4v-3h4v-2l-4 1c0-2 0-2 1-3l-2-2c-.625-2.625-.625-2.625-1-5l3-1c5.107-8.376 6.483-18.815 4.52-28.328-2.272-6.041-7.11-7.988-12.743-10.543-4.279-1.74-7.476-2.272-12.084-2.334l-3.943-.06q-2.13-.027-4.262-.051l-4.359-.063q-5.733-.083-11.467-.153-5.85-.077-11.703-.161-11.48-.162-22.959-.307c-1.113-3.727-1.113-3.727-.095-6.188l1.454-2.382 1.615-2.688 1.776-2.867 1.809-2.987c1.802-2.97 3.62-5.93 5.441-8.888l2.824-4.645a2131 2131 0 0 1 5.297-8.664c3.31-5.387 6.594-10.789 9.879-16.191l7-11.5 1.533-2.519c4.98-8.179 9.98-16.346 15.03-24.481l1.266-2.052c1.583-2.54 3.047-4.824 5.171-6.948"/><path fill="#d7f2f7" d="M276.378 66.922c2.603-.079 5.206-.13 7.81-.172l2.506-.065c5.787-.032 5.787-.032 8.116 1.523C296 70 296 70 295.902 72.298c-1.09 3.263-2.584 5.971-4.332 8.936l-1.05 1.792c-1.124 1.912-2.259 3.818-3.395 5.724l-2.329 3.942c-5.306 8.953-10.774 17.787-16.602 26.413-1.832 2.907-3.504 5.905-5.194 8.895a995 995 0 0 1-16.375 27.875l-1.113 1.826a7806 7806 0 0 1-5.512 9.023 1848 1848 0 0 0-5.219 8.608l-2.656 4.356-1.17 1.958c-2.612 4.24-2.612 4.24-5.955 5.354l1-6-1.25 2-1.75 2h-4l-2 3 2 1-2 7-1-2 1-3-11 2v-2h-2v5h-6v-2l-2 1a76 76 0 0 1-5-1v2h5l-4 1v2h4v2h-6v2h-6v-2l4-1-4-1v-3h-4v9h-4v-5l-4-1v2l-6-1v4l2 1h-4v-2l-3 1v4l-9 1-1-7-10 1v-3h-5l-.313 2.375C135 205 135 205 132 207c-2.74-.031-5.284-.555-8-1v-3l-7-1 3 3-8 1v-2l-8-2v-2h5v2h2v-3h-2l-1-4-1.75 2.063L104 199c-2.25-.25-2.25-.25-4-1v2l-2-1 1-2h-3l-1-6h-2v3h-2c-.375-2.25-.375-2.25 0-5 3-2.312 3-2.312 6-4l2 3 .375-1.875C100 184 100 184 102 182l-4 3-2-2c.226-3.964 1.926-6.799 3.945-10.152 1.624-2.845 2.818-5.817 4.055-8.848h2l.375-1.812C107 160 107 160 109 157h2l.687-2.125c1.651-3.616 3.604-5.963 6.313-8.875h2l.625-2.187c1.47-3.006 3.127-4.417 5.742-6.438 1.73-1.457 3.078-3 4.508-4.75 3.331-4.01 7.151-7.271 11.125-10.625l1.996-1.773 1.879-1.665 1.68-1.496C149 116 149 116 151 116v-2c5.412-4 5.412-4 8-4v-2c7.115-5.513 15.058-9.818 23-14q1.92-1.06 3.836-2.125c27.824-15.322 58.777-23.91 90.542-24.953"/><path fill="#def0f4" d="M327.778 7.367C329 9 329 9 328.918 11.797c-1.044 3.642-2.55 6.273-4.605 9.453q-1.091 1.704-2.18 3.41L320 28a803 803 0 0 0-4.676 8.074C314 38 314 38 311 40c-2.98.207-5.874.302-8.855.309l-5.483.07-2.897.027c-16.803.177-33.16.867-49.765 3.594l-3.781.535c-5.091.75-9.823 1.82-14.66 3.57-2.568.898-5.16 1.667-7.77 2.432-15.494 4.612-30.508 10.792-44.6 18.72C168.283 72 168.283 72 165 72v2c-1.664 1.073-3.385 2.055-5.125 3-14.693 8.334-27.778 18.99-40.117 30.465a158 158 0 0 1-6.57 5.722c-3.825 3.246-6.971 6.978-10.188 10.813l-2.242 2.582C89.788 139.392 80.235 153.287 72 168l-1.324 2.358c-6.714 12.078-12.266 24.285-16.853 37.319a283 283 0 0 1-2.249 6.096C46.56 227.593 43.902 242.445 42 257h-2l-1 43h-1l-2-19h-7l-2 1v6h-2l-2-6v7l-7-1v2l-6-2-1 13H8v-27l4-2c-.138-3.646-.287-7.292-.437-10.937l-.12-3.155-.127-2.998-.11-2.777c.024-2.115.024-2.115-1.206-3.133.059-9.237 1.868-18.057 4-27h3l-.07-2.492C16.685 204.375 20.872 191.788 27 178l.871-2.309C33.118 162.141 40.771 149.57 48 137h2l.625-2.5c1.184-3.013 2.164-4.732 4.094-7.227l1.627-2.124L58 123q1.469-1.962 2.93-3.93C76.53 98.155 76.53 98.155 83 92l4.313-4.375C98.434 76.522 98.434 76.522 103 75v-2h2l1-3a187 187 0 0 1 6-4l1.563-1.562c1.913-1.914 4.115-3.05 6.437-4.438a301 301 0 0 0 4.438-3.125c4.248-2.985 8.535-5.9 12.875-8.75l1.777-1.192c3.276-2.13 6.01-3.48 9.91-3.933v-2c16.538-8.786 33.265-15.987 51-22l2.39-.815C227.237 9.886 304.108-10.83 327.779 7.367"/><path fill="#92e2f7" d="m222 180 2 2 2-2c1.495 4.484.918 6.814-1 11-1.455 2.665-3.004 5.27-4.562 7.875l-1.364 2.296A3040 3040 0 0 1 215 208l-2.062 3.465c-9.005 15.071-18.17 30.047-27.29 45.049l-4.382 7.212-3.214 5.283a1279 1279 0 0 0-9.61 16.018l-1.648 2.79a720 720 0 0 0-2.953 5.058c-2.54 4.305-4.98 7.91-8.841 11.125h-3l3-6-6 1-.312 1.938L148 303l-3 1v2l-3 1v2h-6v-5l-4 1v-2l-5-1 1 4-3 1c-.733 2.015-.733 2.015-1 4l-6-1v2l2 1-8 1v-4l-2 4h-6v-9c-1.972 1.972-2.895 3.474-4 6v2h-6v-5h-2v4l-5 1v-3h-2l1 3-3 1v2h-3v6l-2 1v-4h-3l.563 3.25c.367 3.154.482 4.848-.563 7.75-3.569-4.655-3.682-9.348-4-15h-2c-4.147-40.166-1.148-78.91 15.25-116.312l.997-2.282c1.597-3.477 2.506-5.241 5.753-7.406l1 3-1 2h2v-3h2l1 6h3l1 1c2.5.167 2.5.167 5 0l1-1-6-1v-1h8l1 4h2l1-3-1 6h-2v-2h-5v2l10 1-2 1c-.652 2.025-.652 2.025-1 4h-2l-1-1-7 3 5 1 2-3 1 2h2l2-2 1 5h4v-5h4l-9-2v-1l5-1-3-2v-2l9 3v3c1.458.054 2.916.093 4.375.125l2.46.07c2.378.019 2.378.019 4.165-2.195.643-2.069.643-2.069 1-4h5v3l3-1c2.333-.04 4.667-.044 7 0l1-2v9l9-1-1-5h4v2l2-1v-4l2.375.125c2.786.162 2.786.162 4.625-2.125v2h3v5h4v-9c2.313-.625 2.313-.625 5-1l3 2h-4v2l5 1v1h-5v2h6v-2h6v-2h-4l-1-5 2.813.125c3.345.146 3.345.146 6.187-2.125l-1 3 5 1v-5h2v2l2.688-1c3.021-.912 5.196-1.183 8.312-1v4l1-6h-2l2-5h4z"/><path fill="#31c4f1" d="M155 298c-1 3-1 3-3 6l5-2c-2.012 5.952-5.667 11.05-9.012 16.318-4.173 6.686-6.981 12.58-5.988 20.682 1.714 5.427 4.498 10.427 9 14 7.408 3.626 14.594 3.458 22.71 3.477q2.13.021 4.257.047c3.711.041 7.422.067 11.134.087 5.96.036 11.92.097 17.881.159 2.08.019 4.16.03 6.239.041l3.804.031 3.359.02C223 357 223 357 225 358c-.365 6.317-3.594 10.877-6.812 16.125l-1.779 2.95q-1.82 3.018-3.651 6.03a1013 1013 0 0 0-4.727 7.872 2202 2202 0 0 1-33.13 53.845c-3.387 5.342-6.702 10.72-9.901 16.178-5.725-.39-9.128-2.013-13.437-5.625l-1.797-1.461c-37.176-30.731-62.895-68.934-75.703-115.539l-.894-3.23C71.403 328.432 70.39 321.928 70 315c2.038 3.96 2.988 7.663 4 12 .976-2.928 1.082-4.956 1-8h3l1 3 1-6h3v-2l2-2v-2h2v3l5-1v-4h2v5h6v-2l-4-1 4-1v-3l4-1v9h6l.375-1.937L111 310l2-1-1 5 6-2v-2h6v-4l3-1v-3h9l-4 1v2l4-1 .75 1.938c1.066 2.25 1.066 2.25 3.375 2.812L142 309v-2l-2-1h5l-1-3 1.938-.312L148 302l1-3c3-1 3-1 6-1"/><path fill="#6bceef" d="m9 249 3 1c.087 3.625.14 7.25.188 10.875l.076 3.129.029 2.988.048 2.761L12 272l-3 2c-.51 2.71-.51 2.71-.512 5.883l-.107 3.535-.069 3.707-.103 3.73Q8.085 295.427 8 300H7q-.037-8.03-.055-16.058-.008-2.725-.02-5.45C6.823 256.722 6.823 256.722 8 250z"/><path fill="#18b0ea" d="M514 246h1q.476 2.874.938 5.75l.527 3.234c1.458 10.244 1.668 20.433 1.597 30.766l-.013 3.883q-.018 4.683-.049 9.367h-2l-.06-3.374c-.077-4.192-.166-8.383-.257-12.574q-.057-2.704-.105-5.409c-.17-9.621-.465-18.938-2.26-28.416L513 247z"/><path fill="#d7f2f7" d="m108 205 3 1h-2v2l3-2c2.918.023 2.918.023 6.188.375l3.292.336L124 207c-1.875 1.063-1.875 1.063-4 2l-2-1v5h-4l-2-3c-3.61.656-3.61.656-7 2a76 76 0 0 1-5-1c1.75-2 1.75-2 4-4h4z"/><path fill="#6bceef" d="M18 202c1.235 4.165.63 7.775 0 12q-.287 2.25-.562 4.5L17 222h-3l-.367 2.605Q11.903 236.815 10 249H9c-.302-6.968.832-13.315 2.25-20.125.225-1.102.45-2.204.68-3.34 1.658-7.968 3.587-15.78 6.07-23.535"/><path fill="#92e2f7" d="m101 169 1 2c-1.184 2.615-2.578 5.079-3.969 7.59-1.376 2.48-1.376 2.48-.031 5.41l3-3 2 1v2l-2 1c-1.134 2.017-1.134 2.017-2 4l-3-3-1.875 1.5C92 189 92 189 90 189c1.59-4.363 3.742-8.248 6.063-12.25l1.103-1.93c2.693-4.68 2.693-4.68 3.834-5.82"/><path fill="#18b0ea" d="M436 215c3 1 3 1 5.188 4.313 3.616 7.775 2.48 16.63-.196 24.554-1.754 3.772-4.299 6.286-7.992 8.133 1.5-4.226 3.626-7.959 5.879-11.816 2.295-4.47 2.89-9.221 2.121-14.184-1.43-3.793-3.146-7.397-5-11"/></svg>