<?xml version="1.0" encoding="UTF-8"?>
<svg version="1.1" xmlns="http://www.w3.org/2000/svg" width="583" height="571">
<path d="M0 0 C2.58421509 0.83723295 5.12892616 1.74825395 7.67578125 2.69287109 C8.53945313 3.00160156 9.403125 3.31033203 10.29296875 3.62841797 C15.16349328 5.38639605 19.93333787 7.29765262 24.67578125 9.38037109 C25.93454903 9.90984217 27.19368159 10.43844664 28.453125 10.96630859 C45.95994222 18.43475493 63.19287168 27.26162442 78.67578125 38.38037109 C79.94818574 39.26077218 81.22169961 40.13957128 82.49609375 41.01708984 C83.8066439 41.92891053 85.1165486 42.84165969 86.42578125 43.75537109 C87.04791504 44.18487061 87.67004883 44.61437012 88.31103516 45.05688477 C89.8030071 46.11427921 91.24493718 47.24162241 92.67578125 48.38037109 C92.67578125 49.04037109 92.67578125 49.70037109 92.67578125 50.38037109 C93.23523438 50.63302734 93.7946875 50.88568359 94.37109375 51.14599609 C102.34442908 55.41646044 108.98705349 62.49527971 115.36328125 68.81787109 C116.29986572 69.74067871 116.29986572 69.74067871 117.25537109 70.68212891 C121.67578125 75.13346832 121.67578125 75.13346832 121.67578125 77.38037109 C122.54203125 77.73035156 122.54203125 77.73035156 123.42578125 78.08740234 C126.22347121 79.69510265 127.67626697 81.53439562 129.67578125 84.06787109 C130.4646875 85.06302734 131.25359375 86.05818359 132.06640625 87.08349609 C132.6996582 87.88883789 132.6996582 87.88883789 133.34570312 88.71044922 C134.69767121 90.40785409 136.08026552 92.07538909 137.47265625 93.73974609 C160.44723691 121.41533263 176.07683232 153.19692494 186.67578125 187.38037109 C186.91876953 188.15670898 187.16175781 188.93304688 187.41210938 189.73291016 C189.64261292 196.9737239 191.08348555 203.48827439 190.74609375 211.07958984 C190.59529166 213.57194128 190.59529166 213.57194128 191.23828125 216.75537109 C191.7123489 219.59977697 191.4086883 221.61161114 190.67578125 224.38037109 C188.91115442 221.29227414 188.67578125 220.14724974 188.67578125 216.38037109 C188.01578125 216.38037109 187.35578125 216.38037109 186.67578125 216.38037109 C186.53140625 217.28787109 186.38703125 218.19537109 186.23828125 219.13037109 C186.05265625 220.20287109 185.86703125 221.27537109 185.67578125 222.38037109 C185.57265625 223.10224609 185.46953125 223.82412109 185.36328125 224.56787109 C184.33275609 227.28471015 183.23583317 227.97234254 180.67578125 229.38037109 C178.35988918 229.96964612 176.05328025 230.44243522 173.69921875 230.85302734 C171.46604386 231.25282656 171.46604386 231.25282656 169.67578125 233.38037109 C168.68578125 233.38037109 167.69578125 233.38037109 166.67578125 233.38037109 C166.34578125 234.37037109 166.01578125 235.36037109 165.67578125 236.38037109 C165.67578125 233.74037109 165.67578125 231.10037109 165.67578125 228.38037109 C165.01578125 228.38037109 164.35578125 228.38037109 163.67578125 228.38037109 C163.01578125 223.43037109 162.35578125 218.48037109 161.67578125 213.38037109 C161.01578125 213.38037109 160.35578125 213.38037109 159.67578125 213.38037109 C158.0685249 210.1658584 158.6182994 206.94424574 158.67578125 203.38037109 C158.01578125 203.38037109 157.35578125 203.38037109 156.67578125 203.38037109 C156.67578125 202.06037109 156.67578125 200.74037109 156.67578125 199.38037109 C156.34578125 198.72037109 156.01578125 198.06037109 155.67578125 197.38037109 C155.01578125 197.38037109 154.35578125 197.38037109 153.67578125 197.38037109 C153.46074951 196.7685498 153.24571777 196.15672852 153.02416992 195.52636719 C142.7143057 166.46613065 129.02798715 140.41052906 109.67578125 116.38037109 C109.2173584 115.80480469 108.75893555 115.22923828 108.28662109 114.63623047 C101.97553823 106.75146893 95.06692095 99.60110571 87.80541992 92.58325195 C86.807323 91.61077515 86.807323 91.61077515 85.7890625 90.61865234 C85.18876221 90.04155518 84.58846191 89.46445801 83.9699707 88.86987305 C82.67578125 87.38037109 82.67578125 87.38037109 82.67578125 85.38037109 C82.01578125 85.19474609 81.35578125 85.00912109 80.67578125 84.81787109 C77.95241359 83.51292409 76.48622519 82.43744657 74.30078125 80.44287109 C70.50044079 76.98081851 66.47162722 73.99550535 62.30078125 71.00537109 C56.83636113 67.07716584 51.82770864 62.90953163 46.890625 58.32568359 C41.53208369 53.6192399 36.57678745 50.68044849 29.42578125 50.13037109 C25.01121704 50.42467537 21.6910953 51.63077892 17.67578125 53.38037109 C16.89203125 53.66912109 16.10828125 53.95787109 15.30078125 54.25537109 C13.49734466 55.27512579 13.49734466 55.27512579 12.92578125 57.38818359 C11.12440896 61.70021851 8.57725731 65.46004413 6.05078125 69.38037109 C4.95779471 71.09356925 3.8653477 72.80711173 2.7734375 74.52099609 C2.24121582 75.354375 1.70899414 76.18775391 1.16064453 77.04638672 C-2.92171429 83.463248 -6.90673122 89.94175658 -10.7421875 96.50927734 C-11.15122314 97.20504883 -11.56025879 97.90082031 -11.98168945 98.61767578 C-12.77969183 99.97781619 -13.5714413 101.34164896 -14.35620117 102.70947266 C-15.29081436 104.29989204 -16.30096066 105.84548396 -17.32421875 107.38037109 C-17.98421875 107.38037109 -18.64421875 107.38037109 -19.32421875 107.38037109 C-19.69546875 108.37037109 -19.69546875 108.37037109 -20.07421875 109.38037109 C-22.7570157 115.81908376 -26.06249741 121.76761123 -29.82421875 127.63037109 C-33.72399046 133.78821396 -37.5249022 139.99732163 -41.26171875 146.25537109 C-45.12070948 152.71606051 -49.01084335 159.1552627 -52.94921875 165.56787109 C-56.49452433 171.34306384 -59.97005489 177.15320483 -63.38671875 183.00537109 C-66.64314409 188.57569077 -69.96519785 194.09727759 -73.38671875 199.56787109 C-73.99966797 200.54808228 -73.99966797 200.54808228 -74.625 201.5480957 C-76.68744007 204.82876674 -78.78033048 208.08565901 -80.91796875 211.31787109 C-81.33296631 211.94927002 -81.74796387 212.58066895 -82.17553711 213.23120117 C-83.31306951 214.95618732 -84.46087522 216.67438631 -85.609375 218.39208984 C-87.23283042 221.22111809 -88.05485755 223.15353387 -88.32421875 226.38037109 C-87.99421875 227.37037109 -87.66421875 228.36037109 -87.32421875 229.38037109 C-81.41255292 230.118618 -75.68383006 230.51642678 -69.73095703 230.4621582 C-68.92491531 230.45909164 -68.1188736 230.45602509 -67.28840637 230.4528656 C-65.55662131 230.44576825 -63.82484426 230.43640956 -62.09308243 230.42497063 C-59.35272942 230.40744754 -56.6124357 230.39724103 -53.87203979 230.38905334 C-46.08716243 230.36470292 -38.30236616 230.32883321 -30.51757812 230.28442383 C-25.74156082 230.25768432 -20.96558843 230.24061767 -16.18951035 230.22955513 C-14.37218424 230.22334306 -12.55486704 230.21333491 -10.73758316 230.19947624 C-8.20536767 230.18031674 -5.67339135 230.17337286 -3.14111328 230.16918945 C-2.38992722 230.16042786 -1.63874115 230.15166626 -0.86479187 230.14263916 C2.87471539 230.14971241 4.47974545 230.24968056 7.67578125 232.38037109 C7.17105988 237.30323317 5.76356549 240.24984816 2.98828125 244.31787109 C2.1701582 245.54242205 1.35529353 246.7691536 0.54296875 247.99755859 C0.09018555 248.68172852 -0.36259766 249.36589844 -0.82910156 250.07080078 C-3.78210759 254.63243321 -6.5737074 259.29411919 -9.38671875 263.94287109 C-12.98801819 269.88853377 -16.59528448 275.82971487 -20.2421875 281.74755859 C-24.38002192 288.46289728 -28.48245107 295.19939164 -32.57421875 301.94287109 C-32.94039307 302.54610199 -33.30656738 303.14933289 -33.68383789 303.77084351 C-41.00151063 315.82736342 -48.27784807 327.90856138 -55.49609375 340.02490234 C-60.64637049 348.65744787 -65.90961881 357.21820831 -71.1887207 365.77255249 C-75.70361254 373.09012083 -80.17304504 380.43139375 -84.57421875 387.81787109 C-88.37436033 394.19417445 -92.27051823 400.49697589 -96.26171875 406.75537109 C-101.2186755 414.53078171 -105.95665231 422.42074731 -110.60913086 430.38183594 C-114.07973264 436.31430654 -117.6456825 442.18096986 -121.2578125 448.02832031 C-124.32791264 453.00852766 -127.36069124 458.01120437 -130.39358521 463.01412964 C-132.23539667 466.05215215 -134.07875564 469.0892357 -135.921875 472.12646484 C-136.29241501 472.7371431 -136.66295502 473.34782135 -137.04472351 473.977005 C-142.7938187 483.45133275 -148.55412117 492.91882031 -154.32421875 502.38037109 C-154.72962891 503.04584961 -155.13503906 503.71132813 -155.55273438 504.39697266 C-157.79170335 508.06959761 -160.0488012 511.73022211 -162.32421875 515.38037109 C-162.70449219 515.99299805 -163.08476562 516.605625 -163.4765625 517.23681641 C-164.68949717 519.1850685 -165.91178992 521.12714227 -167.13671875 523.06787109 C-167.51030518 523.66929932 -167.8838916 524.27072754 -168.26879883 524.89038086 C-170.11582371 527.79284854 -171.4132287 529.43971106 -174.32421875 531.38037109 C-195.56415217 532.88173853 -222.18354298 515.40890005 -239.61083984 504.45605469 C-241.17783928 503.47227021 -242.76009788 502.51289948 -244.34375 501.55615234 C-256.76516091 493.93271131 -267.75904775 484.48622147 -278.64941406 474.85986328 C-280.09575474 473.58219207 -281.54917938 472.31254827 -283.00390625 471.04443359 C-294.01612728 461.3320157 -304.33038622 451.00014013 -313.32421875 439.38037109 C-314.13375 438.36458984 -314.94328125 437.34880859 -315.77734375 436.30224609 C-321.83685623 428.64855471 -327.21523454 420.69310961 -332.32421875 412.38037109 C-332.7104541 411.76274902 -333.09668945 411.14512695 -333.49462891 410.50878906 C-357.19376906 372.4912163 -373.01699056 327.41438213 -374.32421875 282.38037109 C-373.99421875 282.38037109 -373.66421875 282.38037109 -373.32421875 282.38037109 C-372.99421875 275.78037109 -372.66421875 269.18037109 -372.32421875 262.38037109 C-371.99421875 262.38037109 -371.66421875 262.38037109 -371.32421875 262.38037109 C-371.32421875 265.02037109 -371.32421875 267.66037109 -371.32421875 270.38037109 C-369.34421875 271.04037109 -367.36421875 271.70037109 -365.32421875 272.38037109 C-365.32421875 271.72037109 -365.32421875 271.06037109 -365.32421875 270.38037109 C-363.01421875 270.71037109 -360.70421875 271.04037109 -358.32421875 271.38037109 C-358.32421875 269.07037109 -358.32421875 266.76037109 -358.32421875 264.38037109 C-357.33421875 264.71037109 -356.34421875 265.04037109 -355.32421875 265.38037109 C-355.65421875 267.03037109 -355.98421875 268.68037109 -356.32421875 270.38037109 C-355.66421875 270.38037109 -355.00421875 270.38037109 -354.32421875 270.38037109 C-354.32421875 267.74037109 -354.32421875 265.10037109 -354.32421875 262.38037109 C-351.50685703 261.59777062 -349.86452637 261.18526001 -347.07421875 262.19287109 C-345.32421875 263.38037109 -345.32421875 263.38037109 -344.32421875 265.38037109 C-344.09799794 267.08400931 -343.91533402 268.7936581 -343.76171875 270.50537109 C-343.67792969 271.41544922 -343.59414063 272.32552734 -343.5078125 273.26318359 C-343.44722656 273.96185547 -343.38664062 274.66052734 -343.32421875 275.38037109 C-343.2991626 274.68065186 -343.27410645 273.98093262 -343.24829102 273.26000977 C-343.13084008 270.02917692 -343.00880239 266.79853208 -342.88671875 263.56787109 C-342.84740234 262.46765625 -342.80808594 261.36744141 -342.76757812 260.23388672 C-342.49996395 253.25533247 -342.03582052 246.32787448 -341.32421875 239.38037109 C-340.99421875 239.38037109 -340.66421875 239.38037109 -340.32421875 239.38037109 C-340.33469238 240.33999756 -340.34516602 241.29962402 -340.35595703 242.28833008 C-340.86282698 293.41592386 -334.90856354 340.16287282 -309.32421875 385.38037109 C-308.78023438 386.35103516 -308.23625 387.32169922 -307.67578125 388.32177734 C-297.39128082 406.02134576 -284.5158159 421.72168902 -270.32421875 436.38037109 C-269.75735352 436.96915039 -269.19048828 437.55792969 -268.60644531 438.16455078 C-261.56503881 445.45144501 -254.3068049 452.11743781 -246.32421875 458.38037109 C-245.13542919 459.33449575 -243.94800659 460.29032527 -242.76171875 461.24755859 C-236.57235995 466.23773912 -230.34858644 471.18493146 -224.07421875 476.06787109 C-222.51960938 477.28023438 -222.51960938 477.28023438 -220.93359375 478.51708984 C-217.4332038 481.01661979 -214.77894041 481.55202224 -210.57421875 481.63037109 C-209.754375 481.65615234 -208.93453125 481.68193359 -208.08984375 481.70849609 C-203.81706172 481.20155585 -199.98310834 480.13246332 -196.94238281 476.92089844 C-195.63673454 475.14293985 -194.46953158 473.32799283 -193.32421875 471.44287109 C-192.89544434 470.76901367 -192.46666992 470.09515625 -192.02490234 469.40087891 C-188.98101369 464.57767926 -186.10678066 459.65610443 -183.27734375 454.70458984 C-180.84127309 450.55839758 -178.27732542 446.50179792 -175.69921875 442.44287109 C-167.0907839 428.87950248 -158.60682069 415.24548494 -150.38671875 401.44287109 C-144.4887122 391.55274275 -138.31777848 381.84647489 -132.10205078 372.15380859 C-122.316589 356.88838071 -112.58751634 341.58560344 -103.04882812 326.16455078 C-101.92962224 324.35772407 -100.80616872 322.553519 -99.67773438 320.75244141 C-98.21167385 318.4080322 -96.76504932 316.05284321 -95.32421875 313.69287109 C-94.89657227 313.01635498 -94.46892578 312.33983887 -94.02832031 311.64282227 C-92.28464326 308.74203874 -91.28967571 306.91362933 -91.51171875 303.48583984 C-92.14311027 301.42644085 -92.14311027 301.42644085 -93.32421875 300.38037109 C-96.18434772 300.25511958 -99.02150029 300.19427388 -101.88305664 300.17504883 C-102.78053116 300.16514923 -103.67800568 300.15524963 -104.60267639 300.14505005 C-107.58404863 300.11333569 -110.56543684 300.08863853 -113.546875 300.06396484 C-115.60811286 300.04340388 -117.66934641 300.02240765 -119.73057556 300.00099182 C-125.16721119 299.94568249 -130.60388542 299.89631243 -136.04058838 299.84814453 C-141.58373467 299.79799404 -147.12682461 299.74227437 -152.66992188 299.68701172 C-163.55463941 299.57932183 -174.43940578 299.47790108 -185.32421875 299.38037109 C-187.42871094 294.68505859 -187.42871094 294.68505859 -186.48828125 291.94287109 C-185.72644531 290.67443359 -185.72644531 290.67443359 -184.94921875 289.38037109 C-184.09457031 287.93210937 -184.09457031 287.93210937 -183.22265625 286.45458984 C-182.59617188 285.44009766 -181.9696875 284.42560547 -181.32421875 283.38037109 C-180.71835938 282.37619141 -180.1125 281.37201172 -179.48828125 280.33740234 C-176.73210744 275.80940251 -173.92056142 271.3179225 -171.08203125 266.84130859 C-165.39568859 257.84997169 -159.98464799 248.71895356 -154.64257812 239.51904297 C-147.10628929 226.54486857 -139.44791603 213.66110825 -131.38671875 201.00537109 C-125.41071416 191.61769949 -119.75655742 182.05473658 -114.12939453 172.45507812 C-111.11405938 167.31913941 -108.08220543 162.1930028 -105.04772949 157.06835938 C-104.04928334 155.38134184 -103.05244216 153.69337474 -102.05566406 152.00537109 C-98.85916187 146.60421531 -95.62530869 141.2315364 -92.3203125 135.89599609 C-88.31067354 129.40440867 -84.48791436 122.81522805 -80.69921875 116.19287109 C-78.24889698 111.91736087 -75.79011988 107.64691226 -73.32421875 103.38037109 C-72.75477539 102.38183105 -72.18533203 101.38329102 -71.59863281 100.35449219 C-71.0672168 99.43877441 -70.53580078 98.52305664 -69.98828125 97.57958984 C-69.52115723 96.76707764 -69.0540332 95.95456543 -68.57275391 95.11743164 C-68.1607373 94.54420166 -67.7487207 93.97097168 -67.32421875 93.38037109 C-66.66421875 93.38037109 -66.00421875 93.38037109 -65.32421875 93.38037109 C-65.15007446 92.27483887 -65.15007446 92.27483887 -64.97241211 91.14697266 C-64.31850394 88.35597931 -63.44915797 86.54062537 -61.953125 84.11474609 C-61.22379761 82.91785156 -61.22379761 82.91785156 -60.47973633 81.69677734 C-59.95404053 80.84986328 -59.42834473 80.00294922 -58.88671875 79.13037109 C-57.77664821 77.31308744 -56.66728262 75.495373 -55.55859375 73.67724609 C-55.00623047 72.77554688 -54.45386719 71.87384766 -53.88476562 70.94482422 C-51.75741004 67.448932 -49.69490247 63.91724991 -47.63671875 60.38037109 C-41.98608762 50.71547457 -36.14546167 41.16471923 -30.323349 31.60261536 C-28.65551125 28.86275434 -26.98961528 26.12171652 -25.32421875 23.38037109 C-24.75010254 22.43589111 -24.17598633 21.49141113 -23.58447266 20.51831055 C-20.45761121 15.3459968 -17.56007583 10.11461027 -14.81640625 4.72802734 C-11.05905511 -1.1834073 -6.67780711 -1.78028093 0 0 Z " fill="#6BCDEE" transform="translate(381.32421875,17.61962890625)"/>
<path d="M0 0 C0.33 1.32 0.66 2.64 1 4 C1.66 3.67 2.32 3.34 3 3 C3 4.32 3 5.64 3 7 C2.34 7 1.68 7 1 7 C1 7.66 1 8.32 1 9 C2.32 8.67 3.64 8.34 5 8 C5 8.66 5 9.32 5 10 C3.68 10 2.36 10 1 10 C1.99 10.495 1.99 10.495 3 11 C3 11.66 3 12.32 3 13 C3.66 13 4.32 13 5 13 C5 15.31 5 17.62 5 20 C4.34 20 3.68 20 3 20 C3 18.68 3 17.36 3 16 C0.69 16.33 -1.62 16.66 -4 17 C-4 16.34 -4 15.68 -4 15 C-7.12474627 16.63473516 -7.12474627 16.63473516 -7.6875 19.125 C-7.790625 19.74375 -7.89375 20.3625 -8 21 C-8.639375 21.103125 -9.27875 21.20625 -9.9375 21.3125 C-10.618125 21.539375 -11.29875 21.76625 -12 22 C-12.33 22.99 -12.66 23.98 -13 25 C-13.66 25 -14.32 25 -15 25 C-14.95875 25.763125 -14.9175 26.52625 -14.875 27.3125 C-15 30 -15 30 -17 33 C-17.99 33 -18.98 33 -20 33 C-20 33.99 -20 34.98 -20 36 C-20.99 36.495 -20.99 36.495 -22 37 C-22.33 37.99 -22.66 38.98 -23 40 C-22.01 40 -21.02 40 -20 40 C-19.67 39.01 -19.34 38.02 -19 37 C-16.03 36.505 -16.03 36.505 -13 36 C-12.67 37.32 -12.34 38.64 -12 40 C-12.99 39.67 -13.98 39.34 -15 39 C-15 39.99 -15 40.98 -15 42 C-15.66 41.67 -16.32 41.34 -17 41 C-16.67 40.34 -16.34 39.68 -16 39 C-16.99 39 -17.98 39 -19 39 C-19 40.65 -19 42.3 -19 44 C-17.68 43.67 -16.36 43.34 -15 43 C-14.896875 43.78375 -14.79375 44.5675 -14.6875 45.375 C-14.22404978 48.33045181 -14.22404978 48.33045181 -11 50 C-7.96436209 51.07716184 -6.0565764 50.98247098 -3 50 C-3 50.66 -3 51.32 -3 52 C-1.9378125 51.9278125 -0.875625 51.855625 0.21875 51.78125 C1.64582436 51.68736353 3.07290822 51.59362127 4.5 51.5 C5.19609375 51.45230469 5.8921875 51.40460938 6.609375 51.35546875 C11.41695525 51.04386633 16.18228746 50.95659718 21 51 C21.185625 50.071875 21.185625 50.071875 21.375 49.125 C22 47 22 47 24 45 C26.625 44.875 26.625 44.875 29 45 C29.20086443 41.28400809 29.1519437 40.22791555 27 37 C29.97 37.99 29.97 37.99 33 39 C33 40.65 33 42.3 33 44 C33.66 44 34.32 44 35 44 C35 42.35 35 40.7 35 39 C35.66 39 36.32 39 37 39 C37 40.65 37 42.3 37 44 C37.66 44 38.32 44 39 44 C39 43.34 39 42.68 39 42 C40.98 41.34 42.96 40.68 45 40 C45 40.66 45 41.32 45 42 C46.32 42 47.64 42 49 42 C49 41.34 49 40.68 49 40 C49.66 40 50.32 40 51 40 C51 39.01 51 38.02 51 37 C52.98567708 36.51171875 54.97135417 36.0234375 56.95703125 35.53515625 C58.65683202 35.08989295 60.33301954 34.55566015 62 34 C62 34.66 62 35.32 62 36 C62.66 36 63.32 36 64 36 C64.33 36.99 64.66 37.98 65 39 C65.66 39 66.32 39 67 39 C67 38.34 67 37.68 67 37 C67.99 36.67 68.98 36.34 70 36 C70 37.32 70 38.64 70 40 C70.66 40 71.32 40 72 40 C72 38.68 72 37.36 72 36 C72.66 36 73.32 36 74 36 C74 34.68 74 33.36 74 32 C75.65 32.33 77.3 32.66 79 33 C79.99 39.93 79.99 39.93 81 47 C81.33 47 81.66 47 82 47 C83.39249741 91.63478267 61.06142994 137.78916465 32.60253906 171.11669922 C31.0160392 172.98115076 29.45517429 174.86457141 27.8984375 176.75390625 C21.76838057 184.13557801 15.33199684 190.77471966 8 197 C7.16339844 197.72316406 6.32679688 198.44632813 5.46484375 199.19140625 C-7.96207275 210.51213977 -22.4132279 219.95319872 -38 228 C-38.6796582 228.35545898 -39.35931641 228.71091797 -40.05957031 229.07714844 C-58.85467382 238.7987537 -79.33648018 244.74765537 -100 249 C-101.0828125 249.22300781 -102.165625 249.44601562 -103.28125 249.67578125 C-138.26425121 255.83542259 -138.26425121 255.83542259 -150.18457031 252.36376953 C-152 251 -152 251 -152.90649414 248.19873047 C-153.01438908 244.50776565 -152.36699277 242.96737978 -150.49609375 239.8203125 C-149.93647949 238.86543945 -149.37686523 237.91056641 -148.80029297 236.92675781 C-148.20619629 235.96092773 -147.61209961 234.99509766 -147 234 C-146.45102051 233.09862305 -145.90204102 232.19724609 -145.33642578 231.26855469 C-143.59969025 228.45679352 -141.83447541 225.66467353 -140.0625 222.875 C-134.72946262 214.41412228 -129.49940207 205.90133345 -124.375 197.3125 C-118.26607106 187.0802018 -112.03604468 176.93073331 -105.74365234 166.81054688 C-102.44048607 161.48626094 -99.15827148 156.14906887 -95.875 150.8125 C-94.84947021 149.14610474 -94.84947021 149.14610474 -93.80322266 147.44604492 C-90.00081916 141.26404619 -86.21264505 135.0736686 -82.4375 128.875 C-78.30447526 122.09046898 -74.09693491 115.35449511 -69.875 108.625 C-59.82157611 92.58757978 -50.00887089 76.40230382 -40.30761719 60.1496582 C-34.26166144 50.0225793 -28.04286435 40.01109512 -21.76953125 30.0234375 C-19.24476529 26.00026506 -16.74314131 21.96411028 -14.26171875 17.9140625 C-13.6699585 16.94976318 -13.07819824 15.98546387 -12.46850586 14.99194336 C-11.35003898 13.16670837 -10.23479395 11.33949389 -9.12329102 9.51000977 C-8.62369873 8.69588623 -8.12410645 7.8817627 -7.609375 7.04296875 C-6.9592041 5.97598755 -6.9592041 5.97598755 -6.29589844 4.88745117 C-2.94024059 0 -2.94024059 0 0 0 Z " fill="#18B0EA" transform="translate(435,252)"/>
<path d="M0 0 C0.99 0.33 1.98 0.66 3 1 C3.33 1.99 3.66 2.98 4 4 C3.34 4 2.68 4 2 4 C2 4.66 2 5.32 2 6 C2.66 6 3.32 6 4 6 C4.33 9.3 4.66 12.6 5 16 C5.66 16 6.32 16 7 16 C8.26305335 21.07476794 9.27036084 25.72796354 9 31 C9.66 31 10.32 31 11 31 C11.33 32.65 11.66 34.3 12 36 C12.70125 35.505 13.4025 35.01 14.125 34.5 C17.37119719 32.8063319 19.39340156 32.74837685 23 33 C23.33 32.01 23.66 31.02 24 30 C24 30.66 24 31.32 24 32 C24.61875 31.505 25.2375 31.01 25.875 30.5 C28 29 28 29 30 29 C30.144375 28.0925 30.28875 27.185 30.4375 26.25 C30.86409473 23.78523044 31.35074221 21.41152893 32 19 C32.66 19 33.32 19 34 19 C34.33 20.65 34.66 22.3 35 24 C35.89932536 19.93570483 35.89932536 19.93570483 35.4375 15.875 C34.84370465 13.33016278 35.78076332 12.2344946 37 10 C50.8483351 68.63444011 42.93034551 133.18838477 16 187 C15.60377441 187.80727539 15.20754883 188.61455078 14.79931641 189.44628906 C2.53430859 214.29451168 -12.9456205 236.88704386 -32 257 C-32.97942067 258.07683439 -33.95590959 259.15634145 -34.9296875 260.23828125 C-44.78589422 271.16106575 -55.41578973 280.90878343 -67 290 C-67.59296875 290.4655127 -68.1859375 290.93102539 -68.796875 291.41064453 C-77.61230029 298.28873677 -86.59899326 304.46904528 -96.30517578 310.01806641 C-97.85392671 310.91536924 -99.37957181 311.8522523 -100.90234375 312.79296875 C-109.43232889 318.02102416 -118.47000994 322.02206856 -127.63867188 325.98046875 C-129.0722774 326.59944483 -130.50387004 327.22314973 -131.93164062 327.85546875 C-171.84080106 345.50329054 -215.84585461 349.97670424 -259 349 C-260.11165527 348.97921387 -261.22331055 348.95842773 -262.36865234 348.93701172 C-265.30943246 348.8753362 -268.24786487 348.78933736 -271.1875 348.6875 C-272.02410156 348.66526367 -272.86070312 348.64302734 -273.72265625 348.62011719 C-278.21470532 348.41026136 -281.56023245 348.02565961 -285 345 C-286.3123806 341.85344892 -286.16131126 340.44376288 -284.99609375 337.23828125 C-284.22458984 335.79001953 -284.22458984 335.79001953 -283.4375 334.3125 C-282.88320313 333.26964844 -282.32890625 332.22679687 -281.7578125 331.15234375 C-280.88769531 329.59193359 -280.88769531 329.59193359 -280 328 C-279.46117187 327.03191406 -278.92234375 326.06382812 -278.3671875 325.06640625 C-274.46395555 318.3093037 -274.46395555 318.3093037 -271 316 C-269.02075195 315.73498535 -269.02075195 315.73498535 -266.73828125 315.71289062 C-265.87887939 315.69947632 -265.01947754 315.68606201 -264.1340332 315.67224121 C-263.20292725 315.66696411 -262.27182129 315.66168701 -261.3125 315.65625 C-259.85493286 315.6343158 -259.85493286 315.6343158 -258.36791992 315.61193848 C-255.24532271 315.56540517 -252.12278445 315.53132423 -249 315.5 C-192.93720058 314.92194131 -139.6588333 300.66445958 -94 267 C-93.13689209 266.37013184 -93.13689209 266.37013184 -92.25634766 265.72753906 C-84.97702505 260.38839663 -78.22907664 254.63777119 -71.65234375 248.46484375 C-69.54288936 246.50451132 -67.41054058 244.63945317 -65.1875 242.8125 C-62.08450846 240.18804209 -59.48218449 237.26269141 -56.859375 234.1640625 C-55.61204599 232.71233924 -54.3296587 231.29007162 -53.015625 229.8984375 C-10.96053291 185.23408787 10.52718377 122.77698781 9 62 C8.15851723 43.61895105 5.99831741 25.8623171 1.27001953 8.08544922 C0.52926782 5.28793716 0 2.91082775 0 0 Z " fill="#169DDE" transform="translate(536,215)"/>
<path d="M0 0 C4.69026591 0.18826547 7.68454101 2.71945802 11.1875 5.5625 C11.74977295 6.00851563 12.3120459 6.45453125 12.89135742 6.9140625 C14.04081953 7.82725803 15.18740229 8.7440898 16.33105469 9.66455078 C17.89696928 10.91755734 19.48301869 12.14528288 21.0703125 13.37109375 C21.97523438 14.07363281 22.88015625 14.77617188 23.8125 15.5 C25.02873047 16.44359375 25.02873047 16.44359375 26.26953125 17.40625 C26.84058594 17.9321875 27.41164063 18.458125 28 19 C28 19.66 28 20.32 28 21 C28.66 21 29.32 21 30 21 C30 21.66 30 22.32 30 23 C30.58918213 23.26611084 31.17836426 23.53222168 31.78540039 23.80639648 C61.17320029 39.64554913 82.28432712 86.84797797 91.41650391 116.98339844 C92.46711516 120.61438128 93.41524123 124.26583328 94.3125 127.9375 C94.48410645 128.62303955 94.65571289 129.3085791 94.83251953 130.01489258 C95.77417326 134.06184341 96.03675539 137.67288756 95.92700195 141.85253906 C96.00837017 144.24623426 96.46771621 146.37043707 96.9921875 148.70703125 C98.73075722 157.58232234 98.20917279 166.68498165 98.125 175.6875 C98.11494984 177.56444835 98.10582759 179.44140191 98.09765625 181.31835938 C98.07580469 185.87903673 98.0413871 190.4394598 98 195 C97.67 195 97.34 195 97 195 C96.67 190.05 96.34 185.1 96 180 C94.35 179.67 92.7 179.34 91 179 C91 180.32 91 181.64 91 183 C90.34 183 89.68 183 89 183 C89 184.32 89 185.64 89 187 C88.34 187 87.68 187 87 187 C86.67 186.01 86.34 185.02 86 184 C85.34 184 84.68 184 84 184 C84 184.66 84 185.32 84 186 C83.01 186.33 82.02 186.66 81 187 C81 185.68 81 184.36 81 183 C80.01 182.67 79.02 182.34 78 182 C77.401875 182.309375 76.80375 182.61875 76.1875 182.9375 C73.3653005 184.30828261 71.0966471 184.14075669 68 184 C68 184.99 68 185.98 68 187 C67.34 187 66.68 187 66 187 C66 187.66 66 188.32 66 189 C65.278125 188.814375 64.55625 188.62875 63.8125 188.4375 C60.87173027 187.98004693 58.85896942 188.26483643 56 189 C56 189.66 56 190.32 56 191 C55.34 191 54.68 191 54 191 C54 189.35 54 187.7 54 186 C53.34 186 52.68 186 52 186 C52 187.65 52 189.3 52 191 C51.34 191 50.68 191 50 191 C50 189.35 50 187.7 50 186 C48.35 185.67 46.7 185.34 45 185 C45.350625 185.598125 45.70125 186.19625 46.0625 186.8125 C47 189 47 189 46 192 C45.030625 192.309375 44.06125 192.61875 43.0625 192.9375 C42.051875 193.288125 41.04125 193.63875 40 194 C39.76410156 194.66644531 39.52820313 195.33289063 39.28515625 196.01953125 C38.86105469 196.67308594 38.43695313 197.32664062 38 198 C35.3361868 198.47546323 33.05177828 198.6965616 30.375 198.75 C29.68792969 198.77964844 29.00085938 198.80929687 28.29296875 198.83984375 C23.52922642 199.02753341 18.76673407 199.02142352 14 199 C14 198.34 14 197.68 14 197 C13.34 197 12.68 197 12 197 C11.67 197.66 11.34 198.32 11 199 C8.69 198.67 6.38 198.34 4 198 C3.7525 197.195625 3.505 196.39125 3.25 195.5625 C2.27761141 192.828919 2.27761141 192.828919 -0.125 192.1875 C-0.74375 192.125625 -1.3625 192.06375 -2 192 C-0.68 192 0.64 192 2 192 C2 191.34 2 190.68 2 190 C0.68 190.33 -0.64 190.66 -2 191 C-2 189.35 -2 187.7 -2 186 C-1.01 186 -0.02 186 1 186 C1.33 186.99 1.66 187.98 2 189 C2 188.01 2 187.02 2 186 C2.66 185.67 3.32 185.34 4 185 C4 184.34 4 183.68 4 183 C3.34 183 2.68 183 2 183 C1.67 183.66 1.34 184.32 1 185 C0.01 185 -0.98 185 -2 185 C-2.33 185.66 -2.66 186.32 -3 187 C-3.99 187 -4.98 187 -6 187 C-5.67 185.68 -5.34 184.36 -5 183 C-4.34 183 -3.68 183 -3 183 C-3 182.01 -3 181.02 -3 180 C-2.01 180 -1.02 180 0 180 C0.66 177.36 1.32 174.72 2 172 C2.66 172 3.32 172 4 172 C4.33 170.68 4.66 169.36 5 168 C6.32 167.67 7.64 167.34 9 167 C9 165.35 9 163.7 9 162 C12.63 162.33 16.26 162.66 20 163 C20 164.32 20 165.64 20 167 C20.66 167 21.32 167 22 167 C22 164.69 22 162.38 22 160 C20.68 160 19.36 160 18 160 C18 159.01 18 158.02 18 157 C19.32 157 20.64 157 22 157 C22 156.34 22 155.68 22 155 C20.68 155.33 19.36 155.66 18 156 C18 154 18 154 19 153 C18.34 152.34 17.68 151.68 17 151 C16.375 148.375 16.375 148.375 16 146 C16.99 145.67 17.98 145.34 19 145 C24.10651671 136.6238431 25.48284135 126.18514997 23.51953125 116.671875 C21.24828428 110.63058865 16.4098185 108.68405858 10.77734375 106.12890625 C6.49825975 104.389588 3.30067169 103.85706906 -1.30737305 103.79467773 C-2.60849533 103.77473251 -3.90961761 103.75478729 -5.25016785 103.73423767 C-6.6706836 103.71725454 -8.0912006 103.70037569 -9.51171875 103.68359375 C-10.96475306 103.66301863 -12.41778146 103.64202201 -13.87080383 103.62062073 C-17.6929953 103.56545766 -21.51524026 103.51602302 -25.33752441 103.46777344 C-29.23873652 103.41751628 -33.13987105 103.36185222 -37.04101562 103.30664062 C-44.69394469 103.19912959 -52.34693833 103.09766902 -60 103 C-61.11315918 99.27349854 -61.11315918 99.27349854 -60.09472656 96.81201172 C-59.61487305 96.02584473 -59.13501953 95.23967773 -58.640625 94.4296875 C-57.84120483 93.09949585 -57.84120483 93.09949585 -57.02563477 91.74243164 C-56.43967529 90.7961792 -55.85371582 89.84992676 -55.25 88.875 C-54.6530835 87.88943115 -54.05616699 86.9038623 -53.44116211 85.88842773 C-51.63893159 82.91842663 -49.82070139 79.9587032 -48 77 C-47.0575052 75.45248536 -46.1160013 73.90436651 -45.17578125 72.35546875 C-43.41722641 69.46305728 -41.65122411 66.57540443 -39.87890625 63.69140625 C-36.56926903 58.30440654 -33.28515205 52.90195387 -30 47.5 C-27.66701808 43.66645272 -25.33354931 39.83320191 -23 36 C-22.49404297 35.16871582 -21.98808594 34.33743164 -21.46679688 33.48095703 C-16.48685767 25.30226145 -11.48780275 17.13547495 -6.4375 9 C-6.01952148 8.32267822 -5.60154297 7.64535645 -5.17089844 6.94750977 C-3.58778168 4.40735089 -2.12410949 2.12410949 0 0 Z " fill="#84DDF5" transform="translate(418,105)"/>
<path d="M0 0 C2.60303626 -0.07862673 5.20521254 -0.12989285 7.80908203 -0.171875 C8.63633789 -0.1934668 9.46359375 -0.21505859 10.31591797 -0.23730469 C16.10215271 -0.26858163 16.10215271 -0.26858163 18.43139648 1.28613281 C19.62158203 3.078125 19.62158203 3.078125 19.5234375 5.37597656 C18.43440301 8.63895266 16.93981239 11.34727431 15.19189453 14.3125 C14.84546402 14.90362579 14.49903351 15.49475159 14.1421051 16.10379028 C13.01780608 18.01646828 11.88268919 19.92244117 10.74658203 21.828125 C9.97008216 23.14196335 9.19379718 24.45592873 8.41772461 25.77001953 C3.1112819 34.72337957 -2.35691361 43.5573459 -8.18432617 52.18310547 C-10.01601869 55.08999514 -11.687995 58.08781186 -13.37841797 61.078125 C-18.69494062 70.46113364 -24.13530801 79.74787176 -29.75341797 88.953125 C-30.12082092 89.55565094 -30.48822388 90.15817688 -30.86676025 90.77896118 C-32.70192248 93.7879843 -34.53918162 96.79571175 -36.37841797 99.80224609 C-38.12696808 102.6662653 -39.86425277 105.53666574 -41.59716797 108.41015625 C-42.48202645 109.86231944 -43.36738869 111.31417587 -44.25341797 112.765625 C-44.63933105 113.41192871 -45.02524414 114.05823242 -45.42285156 114.72412109 C-48.03568521 118.96388075 -48.03568521 118.96388075 -51.37841797 120.078125 C-51.04841797 118.098125 -50.71841797 116.118125 -50.37841797 114.078125 C-50.79091797 114.738125 -51.20341797 115.398125 -51.62841797 116.078125 C-52.20591797 116.738125 -52.78341797 117.398125 -53.37841797 118.078125 C-54.69841797 118.078125 -56.01841797 118.078125 -57.37841797 118.078125 C-58.03841797 119.068125 -58.69841797 120.058125 -59.37841797 121.078125 C-58.71841797 121.408125 -58.05841797 121.738125 -57.37841797 122.078125 C-58.03841797 124.388125 -58.69841797 126.698125 -59.37841797 129.078125 C-59.70841797 128.418125 -60.03841797 127.758125 -60.37841797 127.078125 C-59.88341797 125.593125 -59.88341797 125.593125 -59.37841797 124.078125 C-64.82341797 125.068125 -64.82341797 125.068125 -70.37841797 126.078125 C-70.37841797 125.418125 -70.37841797 124.758125 -70.37841797 124.078125 C-71.03841797 124.078125 -71.69841797 124.078125 -72.37841797 124.078125 C-72.37841797 125.728125 -72.37841797 127.378125 -72.37841797 129.078125 C-74.35841797 129.078125 -76.33841797 129.078125 -78.37841797 129.078125 C-78.37841797 128.418125 -78.37841797 127.758125 -78.37841797 127.078125 C-79.36841797 127.573125 -79.36841797 127.573125 -80.37841797 128.078125 C-82.05496526 127.79870045 -83.72449951 127.46984253 -85.37841797 127.078125 C-85.37841797 127.738125 -85.37841797 128.398125 -85.37841797 129.078125 C-83.72841797 129.078125 -82.07841797 129.078125 -80.37841797 129.078125 C-81.69841797 129.408125 -83.01841797 129.738125 -84.37841797 130.078125 C-84.37841797 130.738125 -84.37841797 131.398125 -84.37841797 132.078125 C-83.05841797 132.078125 -81.73841797 132.078125 -80.37841797 132.078125 C-80.37841797 132.738125 -80.37841797 133.398125 -80.37841797 134.078125 C-82.35841797 134.078125 -84.33841797 134.078125 -86.37841797 134.078125 C-86.37841797 134.738125 -86.37841797 135.398125 -86.37841797 136.078125 C-88.35841797 136.078125 -90.33841797 136.078125 -92.37841797 136.078125 C-92.37841797 135.418125 -92.37841797 134.758125 -92.37841797 134.078125 C-91.05841797 133.748125 -89.73841797 133.418125 -88.37841797 133.078125 C-89.69841797 132.748125 -91.01841797 132.418125 -92.37841797 132.078125 C-92.37841797 131.088125 -92.37841797 130.098125 -92.37841797 129.078125 C-93.69841797 129.078125 -95.01841797 129.078125 -96.37841797 129.078125 C-96.37841797 132.048125 -96.37841797 135.018125 -96.37841797 138.078125 C-97.69841797 138.078125 -99.01841797 138.078125 -100.37841797 138.078125 C-100.37841797 136.428125 -100.37841797 134.778125 -100.37841797 133.078125 C-101.69841797 132.748125 -103.01841797 132.418125 -104.37841797 132.078125 C-104.37841797 132.738125 -104.37841797 133.398125 -104.37841797 134.078125 C-106.35841797 133.748125 -108.33841797 133.418125 -110.37841797 133.078125 C-110.37841797 134.398125 -110.37841797 135.718125 -110.37841797 137.078125 C-109.71841797 137.408125 -109.05841797 137.738125 -108.37841797 138.078125 C-109.69841797 138.078125 -111.01841797 138.078125 -112.37841797 138.078125 C-112.37841797 137.418125 -112.37841797 136.758125 -112.37841797 136.078125 C-113.36841797 136.408125 -114.35841797 136.738125 -115.37841797 137.078125 C-115.37841797 138.398125 -115.37841797 139.718125 -115.37841797 141.078125 C-118.34841797 141.408125 -121.31841797 141.738125 -124.37841797 142.078125 C-124.87341797 138.613125 -124.87341797 138.613125 -125.37841797 135.078125 C-128.67841797 135.408125 -131.97841797 135.738125 -135.37841797 136.078125 C-135.37841797 135.088125 -135.37841797 134.098125 -135.37841797 133.078125 C-137.02841797 133.078125 -138.67841797 133.078125 -140.37841797 133.078125 C-140.48154297 133.861875 -140.58466797 134.645625 -140.69091797 135.453125 C-141.37841797 138.078125 -141.37841797 138.078125 -144.37841797 140.078125 C-147.11832205 140.04669207 -149.66259651 139.52334163 -152.37841797 139.078125 C-152.37841797 138.088125 -152.37841797 137.098125 -152.37841797 136.078125 C-154.68841797 135.748125 -156.99841797 135.418125 -159.37841797 135.078125 C-158.38841797 136.068125 -157.39841797 137.058125 -156.37841797 138.078125 C-159.01841797 138.408125 -161.65841797 138.738125 -164.37841797 139.078125 C-164.37841797 138.418125 -164.37841797 137.758125 -164.37841797 137.078125 C-167.01841797 136.418125 -169.65841797 135.758125 -172.37841797 135.078125 C-172.37841797 134.418125 -172.37841797 133.758125 -172.37841797 133.078125 C-170.72841797 133.078125 -169.07841797 133.078125 -167.37841797 133.078125 C-167.37841797 133.738125 -167.37841797 134.398125 -167.37841797 135.078125 C-166.71841797 135.078125 -166.05841797 135.078125 -165.37841797 135.078125 C-165.37841797 134.088125 -165.37841797 133.098125 -165.37841797 132.078125 C-166.03841797 132.078125 -166.69841797 132.078125 -167.37841797 132.078125 C-167.87341797 130.098125 -167.87341797 130.098125 -168.37841797 128.078125 C-168.95591797 128.75875 -169.53341797 129.439375 -170.12841797 130.140625 C-170.87091797 130.78 -171.61341797 131.419375 -172.37841797 132.078125 C-174.62841797 131.828125 -174.62841797 131.828125 -176.37841797 131.078125 C-176.37841797 131.738125 -176.37841797 132.398125 -176.37841797 133.078125 C-177.03841797 132.748125 -177.69841797 132.418125 -178.37841797 132.078125 C-177.88341797 131.088125 -177.88341797 131.088125 -177.37841797 130.078125 C-178.36841797 130.078125 -179.35841797 130.078125 -180.37841797 130.078125 C-180.70841797 128.098125 -181.03841797 126.118125 -181.37841797 124.078125 C-182.03841797 124.078125 -182.69841797 124.078125 -183.37841797 124.078125 C-183.37841797 125.068125 -183.37841797 126.058125 -183.37841797 127.078125 C-184.03841797 127.078125 -184.69841797 127.078125 -185.37841797 127.078125 C-185.75341797 124.828125 -185.75341797 124.828125 -185.37841797 122.078125 C-182.37841797 119.765625 -182.37841797 119.765625 -179.37841797 118.078125 C-178.71841797 119.068125 -178.05841797 120.058125 -177.37841797 121.078125 C-177.25466797 120.459375 -177.13091797 119.840625 -177.00341797 119.203125 C-176.37841797 117.078125 -176.37841797 117.078125 -174.37841797 115.078125 C-175.69841797 116.068125 -177.01841797 117.058125 -178.37841797 118.078125 C-179.03841797 117.418125 -179.69841797 116.758125 -180.37841797 116.078125 C-180.1519211 112.11442972 -178.45268494 109.27946249 -176.43310547 105.92578125 C-174.80906557 103.08070395 -173.61548976 100.10895089 -172.37841797 97.078125 C-171.71841797 97.078125 -171.05841797 97.078125 -170.37841797 97.078125 C-170.19279297 96.1809375 -170.19279297 96.1809375 -170.00341797 95.265625 C-169.37841797 93.078125 -169.37841797 93.078125 -167.37841797 90.078125 C-166.71841797 90.078125 -166.05841797 90.078125 -165.37841797 90.078125 C-165.15154297 89.376875 -164.92466797 88.675625 -164.69091797 87.953125 C-163.04000509 84.33683965 -161.08753447 81.99042524 -158.37841797 79.078125 C-157.71841797 79.078125 -157.05841797 79.078125 -156.37841797 79.078125 C-156.06904297 77.9953125 -156.06904297 77.9953125 -155.75341797 76.890625 C-154.28421042 73.88542775 -152.62639334 72.47450693 -150.01123047 70.453125 C-148.28102358 68.99610867 -146.93336441 67.45344195 -145.50341797 65.703125 C-142.1723444 61.69366047 -138.35241541 58.43190319 -134.37841797 55.078125 C-133.71970703 54.49289063 -133.06099609 53.90765625 -132.38232422 53.3046875 C-131.76228516 52.75554687 -131.14224609 52.20640625 -130.50341797 51.640625 C-129.94912109 51.14691406 -129.39482422 50.65320313 -128.82373047 50.14453125 C-127.37841797 49.078125 -127.37841797 49.078125 -125.37841797 49.078125 C-125.37841797 48.418125 -125.37841797 47.758125 -125.37841797 47.078125 C-119.96665326 43.078125 -119.96665326 43.078125 -117.37841797 43.078125 C-117.37841797 42.418125 -117.37841797 41.758125 -117.37841797 41.078125 C-110.26312884 35.56470724 -102.32047711 31.2602726 -94.37841797 27.078125 C-93.09875225 26.37163584 -91.8201786 25.66316638 -90.54248047 24.953125 C-62.71837268 9.63122036 -31.76516653 1.04340518 0 0 Z " fill="#D7F2F7" transform="translate(276.37841796875,66.921875)"/>
<path d="M0 0 C1.22167969 1.6328125 1.22167969 1.6328125 1.13964844 4.4296875 C0.09589144 8.0717332 -1.40995437 10.70307317 -3.46582031 13.8828125 C-4.19313628 15.0190493 -4.9196905 16.15577404 -5.64550781 17.29296875 C-6.34933594 18.39511719 -7.05316406 19.49726563 -7.77832031 20.6328125 C-9.3523988 23.31574183 -10.91129921 26.00602197 -12.45410156 28.70703125 C-13.77832031 30.6328125 -13.77832031 30.6328125 -16.77832031 32.6328125 C-19.75840766 32.83970352 -22.65230936 32.93433292 -25.63378906 32.94140625 C-27.46118701 32.96433856 -29.28857946 32.98771176 -31.1159668 33.01147461 C-32.5503157 33.02523636 -32.5503157 33.02523636 -34.01364136 33.03927612 C-50.81627346 33.21592287 -67.17316308 33.90598521 -83.77832031 36.6328125 C-85.02613281 36.80941406 -86.27394531 36.98601563 -87.55957031 37.16796875 C-92.65041498 37.91773424 -97.38249351 38.98790993 -102.21972656 40.73828125 C-104.78751967 41.63602876 -107.38014061 42.40479811 -109.98999023 43.16967773 C-125.48307529 47.78142145 -140.49751734 53.96167959 -154.58862305 61.88964844 C-159.49598884 64.6328125 -159.49598884 64.6328125 -162.77832031 64.6328125 C-162.77832031 65.2928125 -162.77832031 65.9528125 -162.77832031 66.6328125 C-164.44204195 67.70539495 -166.16379708 68.68811059 -167.90332031 69.6328125 C-182.59608426 77.96679771 -195.68100361 88.62221806 -208.02050781 100.09765625 C-210.16953128 102.07317499 -212.33839105 103.96685614 -214.59082031 105.8203125 C-218.41530835 109.06561124 -221.56153784 112.79741801 -224.77832031 116.6328125 C-225.51824219 117.48488281 -226.25816406 118.33695312 -227.02050781 119.21484375 C-237.99071965 132.0251071 -247.54307415 145.92017588 -255.77832031 160.6328125 C-256.2153125 161.41108398 -256.65230469 162.18935547 -257.10253906 162.99121094 C-263.81609442 175.06902867 -269.36858397 187.27554955 -273.95556641 200.30957031 C-274.67919967 202.35292169 -275.43376266 204.38019829 -276.20410156 206.40625 C-281.2196158 220.226088 -283.87624683 235.07781541 -285.77832031 249.6328125 C-286.43832031 249.6328125 -287.09832031 249.6328125 -287.77832031 249.6328125 C-288.10832031 263.8228125 -288.43832031 278.0128125 -288.77832031 292.6328125 C-289.10832031 292.6328125 -289.43832031 292.6328125 -289.77832031 292.6328125 C-290.43832031 286.3628125 -291.09832031 280.0928125 -291.77832031 273.6328125 C-293.42832031 273.6328125 -295.07832031 273.6328125 -296.77832031 273.6328125 C-297.43832031 273.6328125 -298.09832031 273.6328125 -298.77832031 273.6328125 C-299.43832031 273.9628125 -300.09832031 274.2928125 -300.77832031 274.6328125 C-300.77832031 276.6128125 -300.77832031 278.5928125 -300.77832031 280.6328125 C-301.43832031 280.6328125 -302.09832031 280.6328125 -302.77832031 280.6328125 C-303.43832031 278.6528125 -304.09832031 276.6728125 -304.77832031 274.6328125 C-304.77832031 276.9428125 -304.77832031 279.2528125 -304.77832031 281.6328125 C-307.08832031 281.3028125 -309.39832031 280.9728125 -311.77832031 280.6328125 C-311.77832031 281.2928125 -311.77832031 281.9528125 -311.77832031 282.6328125 C-313.75832031 281.9728125 -315.73832031 281.3128125 -317.77832031 280.6328125 C-318.10832031 284.9228125 -318.43832031 289.2128125 -318.77832031 293.6328125 C-319.10832031 293.6328125 -319.43832031 293.6328125 -319.77832031 293.6328125 C-319.77832031 284.7228125 -319.77832031 275.8128125 -319.77832031 266.6328125 C-318.45832031 265.9728125 -317.13832031 265.3128125 -315.77832031 264.6328125 C-315.91648991 260.98664579 -316.06513565 257.34098176 -316.21582031 253.6953125 C-316.25513672 252.65439453 -316.29445313 251.61347656 -316.33496094 250.54101562 C-316.37685547 249.55166016 -316.41875 248.56230469 -316.46191406 247.54296875 C-316.49857178 246.62652588 -316.53522949 245.71008301 -316.57299805 244.76586914 C-316.54835895 242.6507397 -316.54835895 242.6507397 -317.77832031 241.6328125 C-317.71939114 232.39566403 -315.91023891 223.57614397 -313.77832031 214.6328125 C-312.78832031 214.6328125 -311.79832031 214.6328125 -310.77832031 214.6328125 C-310.80152344 213.81039062 -310.82472656 212.98796875 -310.84863281 212.140625 C-311.09327772 197.00758976 -306.90658691 184.42141235 -300.77832031 170.6328125 C-300.34712891 169.49005859 -300.34712891 169.49005859 -299.90722656 168.32421875 C-294.66032045 154.77451614 -287.00752872 142.20158012 -279.77832031 129.6328125 C-279.11832031 129.6328125 -278.45832031 129.6328125 -277.77832031 129.6328125 C-277.57207031 128.8078125 -277.36582031 127.9828125 -277.15332031 127.1328125 C-275.96957842 124.11965132 -274.98901752 122.40089525 -273.05957031 119.90625 C-272.52251465 119.20532227 -271.98545898 118.50439453 -271.43212891 117.78222656 C-270.88637207 117.07291992 -270.34061523 116.36361328 -269.77832031 115.6328125 C-268.79934262 114.32472072 -267.82271886 113.01486346 -266.84863281 111.703125 C-251.24895102 90.78780269 -251.24895102 90.78780269 -244.77832031 84.6328125 C-243.34011638 83.17517338 -241.90269836 81.71675864 -240.46582031 80.2578125 C-229.34421989 69.15477903 -229.34421989 69.15477903 -224.77832031 67.6328125 C-224.77832031 66.9728125 -224.77832031 66.3128125 -224.77832031 65.6328125 C-224.11832031 65.6328125 -223.45832031 65.6328125 -222.77832031 65.6328125 C-222.28332031 64.1478125 -222.28332031 64.1478125 -221.77832031 62.6328125 C-219.80510978 61.2601443 -217.80288879 59.92853633 -215.77832031 58.6328125 C-215.26269531 58.1171875 -214.74707031 57.6015625 -214.21582031 57.0703125 C-212.30233433 55.15682651 -210.10031765 54.01993591 -207.77832031 52.6328125 C-206.28961064 51.60483051 -204.81074065 50.56248671 -203.34082031 49.5078125 C-199.09276787 46.52269457 -194.8058099 43.60701823 -190.46582031 40.7578125 C-189.87937744 40.3644873 -189.29293457 39.97116211 -188.6887207 39.56591797 C-185.4120636 37.43508574 -182.67815332 36.08645161 -178.77832031 35.6328125 C-178.77832031 34.9728125 -178.77832031 34.3128125 -178.77832031 33.6328125 C-162.24076935 24.84645649 -145.51324698 17.64539954 -127.77832031 11.6328125 C-126.98941406 11.36388184 -126.20050781 11.09495117 -125.38769531 10.81787109 C-100.54262301 2.5189268 -23.67125037 -18.19865487 0 0 Z " fill="#DEF0F4" transform="translate(327.7783203125,7.3671875)"/>
<path d="M0 0 C0.99 0.99 0.99 0.99 2 2 C2.66 1.34 3.32 0.68 4 0 C5.49465631 4.48396893 4.91832608 6.81350113 3 11 C1.54450607 13.66457073 -0.00356743 16.26989895 -1.5625 18.875 C-2.23720337 20.01134888 -2.23720337 20.01134888 -2.92553711 21.1706543 C-4.28004118 23.44930162 -5.63953938 25.72490539 -7 28 C-7.68761448 29.15487977 -8.37512439 30.3098218 -9.0625 31.46484375 C-18.06670226 46.53633073 -27.23212891 61.51213929 -36.35189819 76.5138855 C-37.81311654 78.9178566 -39.27378722 81.32216033 -40.73449707 83.72644043 C-41.80500759 85.48767328 -42.87656956 87.24826314 -43.94824219 89.00878906 C-47.18432755 94.32937182 -50.40053032 99.65997219 -53.55859375 105.02734375 C-54.10217529 105.94773437 -54.64575684 106.868125 -55.20581055 107.81640625 C-56.19693883 109.49873878 -57.18202369 111.18465477 -58.15942383 112.875 C-60.69901732 117.1801889 -63.1391056 120.78471874 -67 124 C-67.99 124 -68.98 124 -70 124 C-69 122 -68 120 -67 118 C-68.98 118.33 -70.96 118.66 -73 119 C-73.103125 119.639375 -73.20625 120.27875 -73.3125 120.9375 C-73.539375 121.618125 -73.76625 122.29875 -74 123 C-75.485 123.495 -75.485 123.495 -77 124 C-77 124.66 -77 125.32 -77 126 C-78.485 126.495 -78.485 126.495 -80 127 C-80 127.66 -80 128.32 -80 129 C-81.98 129 -83.96 129 -86 129 C-86 127.33333333 -86 125.66666667 -86 124 C-87.32 124.33 -88.64 124.66 -90 125 C-90 124.34 -90 123.68 -90 123 C-91.65 122.67 -93.3 122.34 -95 122 C-94.67 123.32 -94.34 124.64 -94 126 C-94.99 126.33 -95.98 126.66 -97 127 C-97.73323796 129.01508358 -97.73323796 129.01508358 -98 131 C-99.98 130.67 -101.96 130.34 -104 130 C-104 130.66 -104 131.32 -104 132 C-103.34 132.33 -102.68 132.66 -102 133 C-104.64 133.33 -107.28 133.66 -110 134 C-110 132.68 -110 131.36 -110 130 C-110.66 131.32 -111.32 132.64 -112 134 C-113.98 134 -115.96 134 -118 134 C-118 131.03 -118 128.06 -118 125 C-119.9723199 126.9723199 -120.89473902 128.47368919 -122 131 C-122 131.66 -122 132.32 -122 133 C-123.98 133 -125.96 133 -128 133 C-128 131.35 -128 129.7 -128 128 C-128.66 128 -129.32 128 -130 128 C-130 129.32 -130 130.64 -130 132 C-131.65 132.33 -133.3 132.66 -135 133 C-135 132.01 -135 131.02 -135 130 C-135.66 130 -136.32 130 -137 130 C-136.67 130.99 -136.34 131.98 -136 133 C-136.99 133.33 -137.98 133.66 -139 134 C-139 134.66 -139 135.32 -139 136 C-139.99 136 -140.98 136 -142 136 C-142 137.98 -142 139.96 -142 142 C-142.66 142.33 -143.32 142.66 -144 143 C-144 141.68 -144 140.36 -144 139 C-144.99 139 -145.98 139 -147 139 C-146.814375 140.0725 -146.62875 141.145 -146.4375 142.25 C-146.0695432 145.40391546 -145.95534657 147.09818492 -147 150 C-150.56877447 145.34507678 -150.68175995 140.65150436 -151 135 C-151.66 135 -152.32 135 -153 135 C-157.1473041 94.83402159 -154.14804794 56.08936143 -137.75 18.6875 C-137.4209668 17.93452637 -137.09193359 17.18155273 -136.75292969 16.40576172 C-135.15618039 12.92928457 -134.24736644 11.16491096 -131 9 C-130.67 9.99 -130.34 10.98 -130 12 C-130.33 12.66 -130.66 13.32 -131 14 C-130.34 14 -129.68 14 -129 14 C-129 13.01 -129 12.02 -129 11 C-128.34 11 -127.68 11 -127 11 C-126.67 12.98 -126.34 14.96 -126 17 C-125.01 17 -124.02 17 -123 17 C-122.67 17.33 -122.34 17.66 -122 18 C-119.5 18.16666667 -119.5 18.16666667 -117 18 C-116.505 17.505 -116.505 17.505 -116 17 C-117.98 16.67 -119.96 16.34 -122 16 C-122 15.67 -122 15.34 -122 15 C-119.36 15 -116.72 15 -114 15 C-113.505 16.98 -113.505 16.98 -113 19 C-112.34 19 -111.68 19 -111 19 C-110.505 17.515 -110.505 17.515 -110 16 C-110.33 17.98 -110.66 19.96 -111 22 C-111.66 22 -112.32 22 -113 22 C-113 21.34 -113 20.68 -113 20 C-114.65 20 -116.3 20 -118 20 C-118 20.66 -118 21.32 -118 22 C-114.7 22.33 -111.4 22.66 -108 23 C-108.99 23.495 -108.99 23.495 -110 24 C-110.65213292 26.02463255 -110.65213292 26.02463255 -111 28 C-111.66 28 -112.32 28 -113 28 C-113.33 27.67 -113.66 27.34 -114 27 C-116.31 27.99 -118.62 28.98 -121 30 C-119.35 30.33 -117.7 30.66 -116 31 C-115.34 30.01 -114.68 29.02 -114 28 C-113.505 28.99 -113.505 28.99 -113 30 C-112.34 30 -111.68 30 -111 30 C-110.34 29.34 -109.68 28.68 -109 28 C-108.505 30.475 -108.505 30.475 -108 33 C-106.68 33 -105.36 33 -104 33 C-104 31.35 -104 29.7 -104 28 C-102.68 28 -101.36 28 -100 28 C-104.455 27.01 -104.455 27.01 -109 26 C-109 25.67 -109 25.34 -109 25 C-107.35 24.67 -105.7 24.34 -104 24 C-104.99 23.34 -105.98 22.68 -107 22 C-107 21.34 -107 20.68 -107 20 C-104 21 -101 22 -98 23 C-98 23.99 -98 24.98 -98 26 C-96.54207116 26.05399736 -95.08357288 26.09279177 -93.625 26.125 C-92.81289062 26.14820313 -92.00078125 26.17140625 -91.1640625 26.1953125 C-88.78657757 26.21370051 -88.78657757 26.21370051 -87 24 C-86.3574765 21.93125966 -86.3574765 21.93125966 -86 20 C-84.35 20 -82.7 20 -81 20 C-81 20.99 -81 21.98 -81 23 C-80.01 22.67 -79.02 22.34 -78 22 C-75.66700175 21.96045766 -73.33291811 21.95598268 -71 22 C-70.67 21.34 -70.34 20.68 -70 20 C-70 22.97 -70 25.94 -70 29 C-67.03 28.67 -64.06 28.34 -61 28 C-61.33 26.35 -61.66 24.7 -62 23 C-60.68 23 -59.36 23 -58 23 C-58 23.66 -58 24.32 -58 25 C-57.01 24.505 -57.01 24.505 -56 24 C-56 22.68 -56 21.36 -56 20 C-55.21625 20.04125 -54.4325 20.0825 -53.625 20.125 C-50.83883881 20.28728734 -50.83883881 20.28728734 -49 18 C-49 18.66 -49 19.32 -49 20 C-48.01 20 -47.02 20 -46 20 C-46 21.65 -46 23.3 -46 25 C-44.68 25 -43.36 25 -42 25 C-42 22.03 -42 19.06 -42 16 C-39.6875 15.375 -39.6875 15.375 -37 15 C-36.01 15.66 -35.02 16.32 -34 17 C-35.32 17 -36.64 17 -38 17 C-38 17.66 -38 18.32 -38 19 C-36.35 19.33 -34.7 19.66 -33 20 C-33 20.33 -33 20.66 -33 21 C-34.65 21 -36.3 21 -38 21 C-38 21.66 -38 22.32 -38 23 C-36.02 23 -34.04 23 -32 23 C-32 22.34 -32 21.68 -32 21 C-30.02 21 -28.04 21 -26 21 C-26 20.34 -26 19.68 -26 19 C-27.32 19 -28.64 19 -30 19 C-30.33 17.35 -30.66 15.7 -31 14 C-30.071875 14.04125 -29.14375 14.0825 -28.1875 14.125 C-24.84190281 14.27136339 -24.84190281 14.27136339 -22 12 C-22.33 12.99 -22.66 13.98 -23 15 C-21.35 15.33 -19.7 15.66 -18 16 C-18 14.35 -18 12.7 -18 11 C-17.34 11 -16.68 11 -16 11 C-16 11.66 -16 12.32 -16 13 C-14.6696875 12.505 -14.6696875 12.505 -13.3125 12 C-10.29076653 11.08777857 -8.11626294 10.81669042 -5 11 C-5 12.32 -5 13.64 -5 15 C-4.67 13.02 -4.34 11.04 -4 9 C-4.66 9 -5.32 9 -6 9 C-5.34 7.35 -4.68 5.7 -4 4 C-2.68 4 -1.36 4 0 4 C0 2.68 0 1.36 0 0 Z " fill="#92E2F7" transform="translate(222,180)"/>
<path d="M0 0 C-1 3 -1 3 -3 6 C-1.35 5.34 0.3 4.68 2 4 C-0.01185276 9.95173109 -3.66701873 15.05067291 -7.01171875 20.31835938 C-11.18513633 27.00365966 -13.9930426 32.89803336 -13 41 C-11.28630375 46.42670481 -8.50188442 51.42679508 -4 55 C3.40807515 58.62644099 10.59386744 58.45800212 18.7109375 58.4765625 C20.12962305 58.49089338 21.54829481 58.50665411 22.96694946 58.52377319 C26.67817463 58.56539465 30.38931414 58.59054926 34.10070801 58.61126709 C40.06131757 58.64725918 46.02171657 58.70803517 51.98210526 58.76975632 C54.06166785 58.78883979 56.14117363 58.80056888 58.22079468 58.81118774 C59.47615021 58.82144989 60.73150574 58.83171204 62.02490234 58.84228516 C63.13328461 58.84878082 64.24166687 58.85527649 65.38363647 58.86196899 C68 59 68 59 70 60 C69.63516418 66.31687157 66.40634485 70.87689337 63.1875 76.125 C62.60073486 77.09856445 62.01396973 78.07212891 61.40942383 79.07519531 C60.1960194 81.08725709 58.97879283 83.09701867 57.7578125 85.10449219 C56.16933207 87.72107246 54.59594229 90.34571099 53.03125 92.9765625 C42.25358471 111.08607354 31.19425573 129.02930385 19.90136719 146.82177734 C16.51420699 152.16361619 13.19867755 157.54260717 10 163 C4.27506362 162.61015566 0.87248353 160.98665065 -3.4375 157.375 C-4.03022705 156.89281006 -4.6229541 156.41062012 -5.23364258 155.91381836 C-42.40970085 125.18296504 -68.12864914 86.98009847 -80.9375 40.375 C-81.23229248 39.30886475 -81.52708496 38.24272949 -81.83081055 37.14428711 C-83.59744911 30.4331606 -84.60954533 23.92863955 -85 17 C-82.96169692 20.96054619 -82.01193077 24.66315384 -81 29 C-80.02391783 26.07175348 -79.91773332 24.04386724 -80 21 C-79.01 21 -78.02 21 -77 21 C-76.67 21.99 -76.34 22.98 -76 24 C-75.67 22.02 -75.34 20.04 -75 18 C-74.01 18 -73.02 18 -72 18 C-72 17.34 -72 16.68 -72 16 C-71.34 15.34 -70.68 14.68 -70 14 C-70 13.34 -70 12.68 -70 12 C-69.34 12 -68.68 12 -68 12 C-68 12.99 -68 13.98 -68 15 C-66.35 14.67 -64.7 14.34 -63 14 C-63 12.68 -63 11.36 -63 10 C-62.34 10 -61.68 10 -61 10 C-61 11.65 -61 13.3 -61 15 C-59.02 15 -57.04 15 -55 15 C-55 14.34 -55 13.68 -55 13 C-56.32 12.67 -57.64 12.34 -59 12 C-57.68 11.67 -56.36 11.34 -55 11 C-55 10.01 -55 9.02 -55 8 C-53.68 7.67 -52.36 7.34 -51 7 C-51 9.97 -51 12.94 -51 16 C-49.02 16 -47.04 16 -45 16 C-44.814375 15.0409375 -44.814375 15.0409375 -44.625 14.0625 C-44.41875 13.381875 -44.2125 12.70125 -44 12 C-43.34 11.67 -42.68 11.34 -42 11 C-42.33 12.65 -42.66 14.3 -43 16 C-41.02 15.34 -39.04 14.68 -37 14 C-37 13.34 -37 12.68 -37 12 C-35.02 12 -33.04 12 -31 12 C-31 10.68 -31 9.36 -31 8 C-30.01 7.67 -29.02 7.34 -28 7 C-28 6.01 -28 5.02 -28 4 C-25.03 4 -22.06 4 -19 4 C-20.32 4.33 -21.64 4.66 -23 5 C-23 5.66 -23 6.32 -23 7 C-21.68 6.67 -20.36 6.34 -19 6 C-18.7525 6.639375 -18.505 7.27875 -18.25 7.9375 C-17.18437567 10.18741541 -17.18437567 10.18741541 -14.875 10.75 C-14.25625 10.8325 -13.6375 10.915 -13 11 C-13 10.34 -13 9.68 -13 9 C-13.99 8.505 -13.99 8.505 -15 8 C-13.35 8 -11.7 8 -10 8 C-10.495 6.515 -10.495 6.515 -11 5 C-10.360625 4.896875 -9.72125 4.79375 -9.0625 4.6875 C-8.381875 4.460625 -7.70125 4.23375 -7 4 C-6.67 3.01 -6.34 2.02 -6 1 C-3 0 -3 0 0 0 Z " fill="#31C4F1" transform="translate(155,298)"/>
<path d="M0 0 C0.99 0.33 1.98 0.66 3 1 C3.08681476 4.62484999 3.14032721 8.24943443 3.1875 11.875 C3.22520508 13.42380859 3.22520508 13.42380859 3.26367188 15.00390625 C3.27333984 15.99003906 3.28300781 16.97617187 3.29296875 17.9921875 C3.3086792 18.90339355 3.32438965 19.81459961 3.34057617 20.75341797 C3.22818604 21.49479004 3.1157959 22.23616211 3 23 C2.01 23.66 1.02 24.32 0 25 C-0.510605 27.71004503 -0.510605 27.71004503 -0.51171875 30.8828125 C-0.54716797 32.04941406 -0.58261719 33.21601563 -0.61914062 34.41796875 C-0.64169922 35.64128906 -0.66425781 36.86460937 -0.6875 38.125 C-0.72166016 39.35605469 -0.75582031 40.58710938 -0.79101562 41.85546875 C-0.87371564 44.9035551 -0.94279427 47.95134571 -1 51 C-1.33 51 -1.66 51 -2 51 C-2.02494306 45.64722015 -2.04297376 40.29447503 -2.05493164 34.94165039 C-2.05992311 33.12523814 -2.06671864 31.30882982 -2.07543945 29.49243164 C-2.17725288 7.72232436 -2.17725288 7.72232436 -1 1 C-0.67 0.67 -0.34 0.34 0 0 Z " fill="#6BCEEF" transform="translate(9,249)"/>
<path d="M0 0 C0.33 0 0.66 0 1 0 C1.31825658 1.91571922 1.62919439 3.83265417 1.9375 5.75 C2.11152344 6.81734375 2.28554688 7.8846875 2.46484375 8.984375 C3.9230402 19.22797028 4.13260637 29.41739975 4.0625 39.75 C4.05798828 41.03132813 4.05347656 42.31265625 4.04882812 43.6328125 C4.0371772 46.75525931 4.02082025 49.87760318 4 53 C3.34 53 2.68 53 2 53 C1.98018066 51.88665283 1.96036133 50.77330566 1.93994141 49.6262207 C1.86297994 45.43444907 1.77441495 41.24298444 1.68261719 37.05151367 C1.64469664 35.24884164 1.60978477 33.4461034 1.578125 31.64331055 C1.40712712 22.0220077 1.11264603 12.70458206 -0.68212891 3.22729492 C-0.78702637 2.4922876 -0.89192383 1.75728027 -1 1 C-0.67 0.67 -0.34 0.34 0 0 Z " fill="#18B0EA" transform="translate(514,246)"/>
<path d="M0 0 C0.99 0.33 1.98 0.66 3 1 C2.34 1 1.68 1 1 1 C1 1.66 1 2.32 1 3 C1.99 2.34 2.98 1.68 4 1 C6.91796875 1.0234375 6.91796875 1.0234375 10.1875 1.375 C11.81751953 1.54128906 11.81751953 1.54128906 13.48046875 1.7109375 C14.31191406 1.80632812 15.14335938 1.90171875 16 2 C14.125 3.0625 14.125 3.0625 12 4 C11.34 3.67 10.68 3.34 10 3 C10 4.65 10 6.3 10 8 C8.68 8 7.36 8 6 8 C5.34 7.01 4.68 6.02 4 5 C0.39007621 5.65585189 0.39007621 5.65585189 -3 7 C-4.67654729 6.72057545 -6.34608154 6.39171753 -8 6 C-6.25 4 -6.25 4 -4 2 C-2.68 2 -1.36 2 0 2 C0 1.34 0 0.68 0 0 Z " fill="#D7F2F7" transform="translate(108,205)"/>
<path d="M0 0 C1.23469804 4.16480235 0.63071737 7.7749535 0 12 C-0.19126588 13.49952446 -0.3789299 14.99951399 -0.5625 16.5 C-0.706875 17.655 -0.85125 18.81 -1 20 C-1.99 20 -2.98 20 -4 20 C-4.12117187 20.85980469 -4.24234375 21.71960938 -4.3671875 22.60546875 C-5.52129504 30.7463658 -6.73147793 38.87606081 -8 47 C-8.33 47 -8.66 47 -9 47 C-9.30224328 40.03161337 -8.16784642 33.68507594 -6.75 26.875 C-6.52546143 25.77293213 -6.30092285 24.67086426 -6.06958008 23.53540039 C-4.41222568 15.56732786 -2.48342032 7.75548581 0 0 Z " fill="#6BCEEF" transform="translate(18,202)"/>
<path d="M0 0 C0.33 0.66 0.66 1.32 1 2 C-0.18435793 4.61545709 -1.57818161 7.07868435 -2.96875 9.58984375 C-4.34549518 12.07005617 -4.34549518 12.07005617 -3 15 C-2.01 14.01 -1.02 13.02 0 12 C0.66 12.33 1.32 12.66 2 13 C2 13.66 2 14.32 2 15 C1.01 15.495 1.01 15.495 0 16 C-1.13350534 18.01669827 -1.13350534 18.01669827 -2 20 C-2.99 19.01 -3.98 18.02 -5 17 C-5.61875 17.495 -6.2375 17.99 -6.875 18.5 C-9 20 -9 20 -11 20 C-9.4095488 15.6366679 -7.25824078 11.75213615 -4.9375 7.75 C-4.57333984 7.11320313 -4.20917969 6.47640625 -3.83398438 5.8203125 C-1.14074248 1.14074248 -1.14074248 1.14074248 0 0 Z " fill="#92E2F7" transform="translate(101,169)"/>
<path d="M0 0 C3 1 3 1 5.1875 4.3125 C8.80386135 12.0876769 7.66726244 20.94387031 4.9921875 28.8671875 C3.23773648 32.63856646 0.69347285 35.15326358 -3 37 C-1.50032855 32.7736532 0.62591501 29.04108914 2.87890625 25.18359375 C5.17374189 20.71386161 5.76852986 15.96274067 5 11 C3.57062818 7.2066671 1.85423123 3.60250638 0 0 Z " fill="#18B0EA" transform="translate(436,215)"/>
</svg>
