<svg version="1.1" id="Layer_1" xmlns="http://www.w3.org/2000/svg" xmlns:xlink="http://www.w3.org/1999/xlink" x="0px" y="0px"
	 viewBox="0 0 1938 632" enable-background="new 0 0 1938 632" xml:space="preserve">
<path fill="#FEFEFE" opacity="1.000000" stroke="none" 
	d="
M1254.000000,633.000000 
	C836.000000,633.000000 418.500000,633.000000 1.000000,633.000000 
	C1.000000,422.333344 1.000000,211.666672 1.000000,1.000000 
	C647.000000,1.000000 1293.000000,1.000000 1939.000000,1.000000 
	C1939.000000,211.666672 1939.000000,422.333344 1939.000000,633.000000 
	C1710.833374,633.000000 1482.666626,633.000000 1254.000000,633.000000 
M1843.514038,192.997971 
	C1843.685303,193.640060 1843.856689,194.282150 1844.741211,195.162720 
	C1845.742432,195.165131 1846.743530,195.167542 1848.108887,196.022751 
	C1848.211426,199.647568 1848.179443,203.283783 1848.484985,206.891434 
	C1848.600708,208.257812 1849.494751,209.558273 1850.755737,211.121872 
	C1851.482422,210.975845 1852.208984,210.829819 1854.282471,209.317368 
	C1854.406860,208.690079 1854.531250,208.062790 1854.659424,207.868942 
	C1854.477051,204.978058 1854.448608,202.066879 1854.071167,199.201675 
	C1853.652100,196.020874 1855.290283,195.084213 1858.889282,195.167923 
	C1859.471191,196.329941 1860.465820,197.461472 1860.554321,198.659897 
	C1860.785767,201.795013 1860.435913,204.975769 1860.712280,208.103485 
	C1860.813232,209.245758 1862.218262,211.284851 1862.698975,211.192871 
	C1864.175293,210.910446 1865.595947,209.923126 1866.818359,208.937286 
	C1867.291992,208.555237 1867.176758,207.443268 1867.279663,206.919083 
	C1869.915649,206.919083 1872.279663,206.919083 1874.643555,206.919083 
	C1874.433472,207.283463 1874.223389,207.647842 1874.013306,208.012222 
	C1875.705688,209.141891 1877.398193,210.271561 1879.090576,211.401260 
	C1879.852539,209.709579 1881.073853,208.070587 1881.275391,206.314606 
	C1881.632202,203.203217 1881.406006,200.020203 1881.357178,196.868195 
	C1881.284912,192.208817 1879.476562,191.369461 1874.918091,193.907684 
	C1874.918091,193.907684 1874.882690,193.967667 1874.260010,194.197296 
	C1873.399780,196.087082 1872.539551,197.976868 1871.544067,200.163864 
	C1869.964478,197.958527 1868.540649,195.970551 1867.078125,193.920258 
	C1867.078125,193.920258 1867.030762,193.864380 1866.903687,193.169800 
	C1863.935425,193.118759 1860.967041,193.067734 1857.086426,192.824554 
	C1852.734619,192.911865 1848.382935,192.999176 1843.514038,192.997971 
M624.569946,545.112610 
	C628.903076,539.117432 633.219543,533.110107 637.574341,527.130615 
	C641.551575,521.669434 645.737122,516.348267 649.449951,510.714417 
	C650.344299,509.357300 650.551453,505.936676 649.689514,505.278168 
	C639.347290,497.377106 628.749390,489.810486 618.207336,482.171539 
	C609.815002,476.090332 601.404663,470.034058 593.007996,463.958832 
	C584.356689,457.699371 575.839844,451.240601 566.981873,445.289246 
	C564.550110,443.655487 564.585388,442.689514 565.879944,440.672516 
	C568.258728,436.965973 571.018921,433.406494 572.770142,429.412964 
	C578.504883,416.334625 584.364502,403.270782 589.184937,389.845459 
	C592.593506,380.352539 595.039062,370.392334 596.732544,360.439636 
	C598.390625,350.694946 598.870178,340.709442 599.300598,330.805023 
	C600.065613,313.202698 598.471375,295.688660 594.692566,278.527832 
	C592.345947,267.870911 588.783386,257.428314 585.091003,247.131775 
	C576.341797,222.733932 562.781921,200.973190 546.058899,181.393173 
	C525.899414,157.789703 501.467804,139.201630 473.504425,125.775116 
	C462.097565,120.298157 449.678162,116.849335 437.565582,112.956429 
	C431.335022,110.953964 424.793121,109.866219 418.343750,108.613228 
	C411.383972,107.261078 404.381104,105.275841 397.373962,105.175301 
	C371.898651,104.809723 346.287964,103.394409 321.375458,110.912193 
	C311.536896,113.881142 301.297241,115.808128 291.827209,119.654686 
	C268.223480,129.242096 247.093918,143.079819 227.629120,159.483643 
	C221.203812,164.898514 221.185745,164.825699 214.651031,160.105072 
	C200.879028,150.156265 187.063080,140.268204 173.303589,130.302200 
	C156.067139,117.817841 138.870407,105.278633 121.654144,92.766411 
	C114.112831,87.285629 114.116890,87.323448 108.502884,95.083939 
	C96.537857,111.623749 84.497208,128.109116 72.627708,144.716995 
	C72.039497,145.540009 72.262566,147.934616 72.989326,148.541046 
	C77.018944,151.903381 81.302856,154.963959 85.534050,158.081223 
	C102.627052,170.674286 120.268623,182.595871 136.671585,196.030365 
	C150.951462,207.725937 167.877060,216.003662 180.003448,230.570328 
	C184.184921,235.593277 190.713135,238.662628 196.417068,242.804260 
	C200.613174,235.719452 204.499969,228.544022 208.974228,221.755798 
	C214.716888,213.043213 220.151215,203.930603 227.127762,196.274643 
	C237.353043,185.053528 247.677933,173.703476 261.076385,165.867203 
	C268.119019,161.748245 274.734375,156.876541 281.882751,152.966461 
	C289.576233,148.758224 297.523224,144.924408 305.637054,141.605545 
	C310.912018,139.447891 316.782867,138.794800 322.205750,136.938843 
	C328.653137,134.732254 335.025299,133.020050 341.953583,132.631210 
	C348.767212,132.248840 355.499023,129.216049 362.254425,129.259644 
	C373.369843,129.331329 384.543243,127.444061 395.706543,130.782623 
	C402.126160,132.702499 409.226990,132.339279 416.018890,133.026459 
	C416.828064,133.108292 417.644318,133.263184 418.420746,133.502655 
	C424.332520,135.325928 430.260193,137.103165 436.133209,139.045044 
	C441.260712,140.740433 446.499146,142.252274 451.379517,144.512512 
	C462.737549,149.772705 474.223633,154.796585 484.136749,162.773163 
	C490.771393,168.111710 498.525940,172.168015 504.689453,177.958206 
	C515.515991,188.128983 526.546997,198.237106 534.345154,211.218033 
	C537.485657,216.445831 542.033264,220.902847 544.716187,226.317307 
	C553.139648,243.317001 562.077820,260.139221 565.130493,279.293518 
	C566.534729,288.104126 570.492188,296.724152 570.623108,305.470551 
	C570.819092,318.553772 572.331543,331.672607 569.419922,344.938416 
	C567.649719,353.003662 567.398499,361.530914 565.004456,369.625977 
	C562.931152,376.636566 561.598328,383.932495 558.862732,390.665314 
	C554.737122,400.819092 549.729736,410.618591 544.968445,420.506744 
	C543.934387,422.654327 542.395142,424.566956 541.022034,426.541504 
	C535.341187,434.710663 530.053833,443.201538 523.806335,450.913513 
	C518.715515,457.197693 512.480530,462.558014 506.720215,468.295288 
	C504.492584,470.513977 502.206512,472.676971 499.882477,474.794342 
	C499.022278,475.578064 497.976776,476.158386 497.015808,476.831482 
	C497.936188,478.131989 498.697479,479.600861 499.832886,480.673859 
	C500.591614,481.390900 502.047577,481.328033 502.909698,481.984406 
	C511.652649,488.640472 520.423218,495.265320 529.013672,502.115112 
	C537.018127,508.497620 544.807800,515.149292 552.703857,521.668152 
	C556.333252,524.664551 559.898865,527.748901 563.655334,530.578369 
	C570.978882,536.094482 578.574097,541.259705 585.763245,546.941711 
	C593.221558,552.836487 600.332458,559.170837 608.227173,565.847351 
	C613.977478,558.572815 619.064758,552.137085 624.569946,545.112610 
M488.774628,410.164154 
	C478.627045,423.201447 466.233398,433.873627 452.561127,443.189819 
	C464.879272,452.794861 476.427856,461.799805 487.854065,470.709381 
	C491.095642,468.326965 494.409912,466.464691 497.007233,463.881531 
	C507.436737,453.508759 518.596924,443.785675 526.258789,430.907440 
	C529.536987,425.397308 533.992188,420.540070 536.901978,414.867767 
	C543.601990,401.807007 549.525391,388.534363 553.720093,374.216858 
	C557.045898,362.864990 559.490967,351.312500 560.502808,339.958740 
	C561.879333,324.512146 559.672852,308.745911 558.984680,293.117523 
	C558.963562,292.638306 558.746582,292.166016 558.609558,291.693848 
	C556.748596,285.283173 554.998596,278.837433 552.993286,272.472168 
	C550.703430,265.203644 548.734009,257.760437 545.623962,250.843338 
	C542.018433,242.824020 537.697327,235.058868 533.003906,227.613922 
	C527.615540,219.066483 522.193665,210.351334 515.496338,202.862747 
	C505.806122,192.027710 495.742859,181.372162 482.964020,173.833832 
	C476.075287,169.770126 469.720276,164.728851 462.625610,161.105453 
	C453.695770,156.544830 444.349884,152.742264 434.997467,149.088882 
	C430.138123,147.190643 424.902649,146.214188 419.791534,145.015396 
	C416.042633,144.136108 412.197662,143.672546 408.434998,142.844284 
	C402.987732,141.645157 397.544525,139.089783 392.155731,139.232407 
	C379.693909,139.562256 367.302368,138.085068 354.671417,140.528488 
	C344.132019,142.567291 333.543732,144.228699 323.031342,146.721115 
	C313.572601,148.963745 305.081573,153.222641 296.264404,156.796921 
	C291.261993,158.824814 286.665253,161.931183 282.044983,164.807480 
	C272.937714,170.477081 263.051910,175.320129 255.117004,182.344940 
	C244.447006,191.791122 234.409714,202.287796 225.797928,213.622894 
	C218.108734,223.743652 212.987686,235.781143 206.169434,246.618011 
	C203.999634,250.066666 205.944031,251.244812 207.766403,252.601669 
	C211.356171,255.274445 215.437210,257.303528 218.941513,260.071716 
	C226.848358,266.317627 234.586197,272.782623 242.266144,279.307556 
	C244.752823,281.420288 245.790237,282.334351 247.226303,278.139252 
	C253.940826,258.524689 264.867188,241.303421 278.984375,226.245987 
	C292.701111,211.615662 309.274261,200.717621 327.848907,193.420212 
	C342.257935,187.759354 357.379730,184.143066 373.125549,184.996674 
	C381.219543,185.435455 389.305054,186.141312 397.371155,186.956573 
	C409.224915,188.154648 420.382751,191.890305 431.267700,196.593842 
	C443.393799,201.833679 454.334320,208.842194 464.701996,217.062286 
	C476.181091,226.163513 484.892487,237.489517 493.009491,249.376846 
	C501.428619,261.706726 507.905029,275.065216 511.460815,289.601776 
	C513.758484,298.995087 516.168274,308.547424 516.714417,318.131836 
	C517.294678,328.314270 515.784180,338.622253 515.092590,348.869049 
	C514.319214,360.330383 510.394257,370.982544 505.411377,381.084778 
	C500.587769,390.863983 494.584259,400.061249 488.774628,410.164154 
M456.792236,490.309937 
	C463.650879,486.536285 470.525208,482.790497 477.344666,478.947418 
	C478.055542,478.546814 478.732147,477.622223 478.873840,476.840881 
	C478.965118,476.337494 478.153870,475.514923 477.568970,475.069031 
	C472.828003,471.454407 467.994324,467.960144 463.286987,464.302887 
	C457.029785,459.441498 450.924866,454.380829 444.580780,449.638214 
	C443.698944,448.978943 441.580963,449.178589 440.447296,449.770233 
	C424.085480,458.309418 406.443359,462.622894 388.335663,464.731506 
	C372.402863,466.586853 356.450287,464.596069 341.076538,460.441071 
	C331.576752,457.873596 322.566406,453.264893 313.591156,449.032227 
	C291.002777,438.379791 273.918976,421.557617 260.920013,400.486176 
	C253.398987,388.294556 247.460983,375.341217 244.665848,361.181091 
	C242.629700,350.865906 239.642609,340.514313 239.411591,330.127075 
	C239.156845,318.673279 241.632736,307.166595 242.739548,295.665680 
	C242.894791,294.052643 242.571854,291.778351 241.535767,290.778107 
	C238.045349,287.408325 234.220490,284.361755 230.363998,281.399261 
	C222.434570,275.307983 214.289246,269.492981 206.461029,263.276825 
	C202.748795,260.329071 200.664566,260.253113 199.108795,264.659546 
	C197.365891,269.595978 196.210388,274.754028 195.021729,279.867340 
	C194.112488,283.778687 193.655762,287.793457 192.806442,291.720886 
	C191.627823,297.171143 189.175339,302.587372 189.198730,308.009827 
	C189.263275,322.970581 190.330429,337.927032 191.006653,352.884918 
	C191.021576,353.215210 191.072556,353.550690 191.158066,353.869995 
	C193.092941,361.094604 194.862595,368.369385 197.023788,375.525879 
	C199.225647,382.816925 201.266586,390.237488 204.376541,397.152222 
	C207.982590,405.169922 212.305313,412.932159 216.995468,420.377869 
	C222.380264,428.926331 227.783218,437.656769 234.486984,445.135010 
	C244.186157,455.954773 254.239990,466.618011 267.017548,474.153564 
	C272.808777,477.568939 278.125092,481.798737 283.957764,485.132629 
	C292.842621,490.211121 302.048706,494.443420 311.930481,497.623932 
	C318.143280,499.623566 324.215546,501.925110 330.682953,503.047028 
	C334.321472,503.678162 337.956482,504.353271 341.559784,505.157684 
	C347.005127,506.373413 352.427673,508.831787 357.848877,508.801331 
	C374.143280,508.709930 390.438477,507.783539 406.718384,506.904663 
	C410.008972,506.726990 413.247864,505.379761 416.485107,504.480042 
	C420.458740,503.375671 424.409241,502.187256 428.362915,501.012146 
	C432.012970,499.927338 435.727692,499.007416 439.282135,497.665771 
	C444.967834,495.519592 450.544556,493.084656 456.792236,490.309937 
M1704.931763,373.494598 
	C1704.917236,377.325775 1704.935059,381.157440 1704.876343,384.987946 
	C1704.838745,387.445435 1705.682129,388.563934 1708.417114,388.437744 
	C1712.726318,388.238831 1717.099121,388.106812 1721.364624,388.617615 
	C1726.325684,389.211700 1727.150146,387.048187 1727.115601,382.702942 
	C1726.943970,361.047394 1726.734009,339.383453 1727.178955,317.735657 
	C1727.379395,307.984680 1731.249023,299.511627 1740.083496,294.025299 
	C1750.851196,287.338470 1767.007935,291.482422 1769.447510,303.948883 
	C1770.768677,310.700012 1772.234985,317.544830 1772.397339,324.376770 
	C1772.816772,342.021393 1772.720581,359.684601 1772.495361,377.336121 
	C1772.332764,390.083008 1771.145996,388.551544 1784.017456,388.571716 
	C1795.906372,388.590363 1795.221924,389.609955 1794.737305,378.025543 
	C1794.695679,377.029144 1794.797974,376.027618 1794.795288,375.028564 
	C1794.748535,357.707275 1794.991699,340.378357 1794.545532,323.067230 
	C1794.220215,310.445679 1798.683716,300.324310 1809.361938,293.943085 
	C1822.071777,286.347839 1835.776978,292.356750 1838.733765,306.550049 
	C1840.572144,315.374573 1840.704468,324.632385 1840.875366,333.709442 
	C1841.188843,350.362732 1841.055908,367.027008 1840.894897,383.684631 
	C1840.859009,387.402496 1841.975342,388.713715 1845.750488,388.434265 
	C1849.705933,388.141479 1853.723511,388.288086 1857.685669,388.600922 
	C1861.524414,388.904053 1863.243042,387.641907 1863.071289,383.605743 
	C1861.899902,356.061768 1865.458008,328.392853 1860.999268,300.941467 
	C1859.687622,292.865540 1856.707397,285.173859 1850.477051,279.777039 
	C1838.795776,269.658295 1820.395996,267.352722 1806.794922,276.282318 
	C1800.685181,280.293549 1795.398560,285.558411 1789.385498,290.547241 
	C1788.627319,289.430573 1787.631348,287.997925 1786.670044,286.542236 
	C1780.452148,277.124512 1771.796021,271.690857 1760.477173,271.036865 
	C1748.493164,270.344452 1738.601562,274.752197 1730.785156,283.910187 
	C1729.584351,285.317169 1727.900757,286.311951 1725.651611,288.137909 
	C1725.507202,285.966339 1725.360229,285.318573 1725.438599,284.699310 
	C1726.775024,274.142914 1726.119385,273.412598 1715.505737,273.728943 
	C1715.006348,273.743835 1714.506226,273.724976 1714.006470,273.730072 
	C1704.905518,273.822723 1704.943481,273.823029 1704.947144,283.037933 
	C1704.959106,312.857574 1704.940674,342.677246 1704.931763,373.494598 
M939.815857,313.457184 
	C938.895813,309.972595 937.909729,306.503876 937.068542,303.000336 
	C934.957336,294.206421 933.067017,285.354095 930.676270,276.638214 
	C930.307129,275.292328 927.827881,273.799683 926.210632,273.655945 
	C921.083740,273.200256 915.894043,273.506287 910.746033,273.212799 
	C907.361572,273.019836 906.468384,274.796204 907.056702,277.463379 
	C907.756531,280.636078 909.039307,283.675720 909.965210,286.803925 
	C912.323792,294.772980 914.669861,302.746277 916.935547,310.742096 
	C919.387939,319.396576 921.723633,328.084076 924.147400,336.746796 
	C926.389893,344.761536 928.792175,352.733276 930.920959,360.777740 
	C933.131775,369.132324 934.962219,377.590149 937.321167,385.900024 
	C937.671814,387.135132 939.966736,388.521667 941.436646,388.610992 
	C947.080383,388.953888 952.779724,389.102081 958.401855,388.638458 
	C960.061096,388.501587 962.216858,386.399200 962.944214,384.687286 
	C964.274902,381.555573 964.573242,378.003174 965.545471,374.697815 
	C968.589417,364.349182 971.977539,354.096436 974.798035,343.688843 
	C977.881958,332.309021 980.445312,320.788757 983.358337,309.361023 
	C983.600769,308.409821 984.779663,307.697327 985.860901,306.500488 
	C988.446899,317.883698 990.562317,328.436005 993.274658,338.832581 
	C996.983826,353.050140 1000.899231,367.227936 1005.346741,381.225647 
	C1006.134460,383.705048 1005.161804,388.570282 1010.178955,388.666626 
	C1015.838135,388.775269 1021.511047,388.951630 1027.152832,388.640869 
	C1028.587769,388.561798 1030.723022,387.019287 1031.175781,385.686829 
	C1033.385986,379.182129 1035.129883,372.519287 1037.049194,365.915436 
	C1038.907227,359.522980 1040.815308,353.144836 1042.633301,346.741119 
	C1044.815796,339.053284 1046.935669,331.347565 1049.065552,323.644867 
	C1051.285156,315.617706 1053.382202,307.555084 1055.721558,299.563171 
	C1057.963867,291.902283 1060.545288,284.339264 1062.685303,276.651855 
	C1062.913574,275.831787 1061.210327,273.529480 1060.360962,273.506866 
	C1054.723877,273.356903 1049.060181,273.455933 1043.440674,273.912659 
	C1042.009155,274.029053 1039.835083,275.488678 1039.490112,276.740997 
	C1037.708862,283.207642 1036.468018,289.820892 1034.928711,296.357086 
	C1033.429810,302.721802 1031.791626,309.053711 1030.226685,315.402954 
	C1028.464722,322.551361 1026.606201,329.678436 1024.993042,336.860443 
	C1023.415039,343.886017 1022.098145,350.970093 1020.653748,358.026001 
	C1020.423462,359.151093 1020.124329,360.262085 1019.856995,361.379608 
	C1019.280029,360.803772 1018.703064,360.227905 1018.126160,359.652039 
	C1016.433411,353.220673 1014.745544,346.787994 1013.046753,340.358215 
	C1010.870605,332.121399 1008.743713,323.871033 1006.488708,315.655853 
	C1004.074463,306.860840 1001.684448,298.054626 999.018494,289.334412 
	C994.633667,274.992310 999.816956,273.107758 980.761230,273.364777 
	C975.071350,273.441498 974.071899,276.478363 973.104919,280.292297 
	C970.816650,289.317902 968.894897,298.436218 966.618225,307.464935 
	C963.453247,320.016022 960.131409,332.527954 956.809204,345.038757 
	C955.582520,349.658508 954.164734,354.227509 952.834045,358.819641 
	C950.802368,356.616791 949.746338,354.597717 949.227173,352.448883 
	C946.150879,339.716492 943.199219,326.954071 939.815857,313.457184 
M1153.062134,273.778076 
	C1148.351807,273.499939 1146.354492,275.634644 1146.938354,280.375153 
	C1147.184692,282.375214 1146.979492,284.430878 1146.979492,286.461273 
	C1144.699463,285.483185 1143.863647,284.025757 1142.645752,283.040741 
	C1139.201660,280.255371 1135.953003,276.819580 1131.990356,275.168152 
	C1123.246338,271.524017 1114.318726,269.753540 1104.511719,272.613007 
	C1096.177979,275.042847 1088.837280,278.585144 1083.070801,284.813904 
	C1075.290649,293.217865 1070.950562,303.730194 1069.328491,314.771881 
	C1067.476318,327.379852 1067.268799,340.206451 1070.647461,352.841339 
	C1075.458862,370.834167 1084.961060,384.052490 1103.844116,389.566467 
	C1118.111572,393.732666 1135.058838,389.175629 1143.856934,377.553864 
	C1144.456665,376.761536 1145.392822,376.223907 1147.069580,374.813110 
	C1147.069580,394.808380 1147.069580,413.682892 1147.069580,432.922913 
	C1152.955078,432.922913 1158.276611,432.593506 1163.536255,433.022797 
	C1168.088501,433.394318 1169.128784,431.756927 1169.116821,427.432495 
	C1168.979980,377.942749 1169.034302,328.452515 1169.008301,278.962402 
	C1169.007446,277.234467 1168.701782,275.506653 1168.547119,273.872681 
	C1163.248413,273.872681 1158.598267,273.872681 1153.062134,273.778076 
M1378.823486,283.713593 
	C1370.774658,274.240051 1359.641968,272.014526 1348.165527,271.176270 
	C1336.629639,270.333679 1325.663940,273.626190 1314.960205,277.456940 
	C1311.814209,278.582855 1308.430176,280.598663 1306.604736,283.217133 
	C1305.660400,284.571777 1307.948242,288.122864 1308.660522,290.713257 
	C1309.010010,291.984497 1308.876221,293.413513 1309.344727,294.622467 
	C1310.657227,298.009766 1311.944946,300.233948 1316.570557,297.711182 
	C1326.272339,292.419861 1336.834473,290.071991 1348.020020,291.012360 
	C1358.274536,291.874451 1366.277344,301.231598 1365.491211,311.134796 
	C1365.378662,312.551849 1363.671997,314.771149 1362.404785,315.005188 
	C1357.209106,315.965027 1351.910034,316.581879 1346.626831,316.805939 
	C1335.965210,317.258148 1326.080933,320.168579 1316.588135,324.942566 
	C1302.828735,331.862274 1293.940430,353.229187 1299.413330,367.595245 
	C1303.702393,378.854065 1310.737305,386.945953 1323.494995,389.683685 
	C1339.104614,393.033417 1352.173096,389.715820 1363.150391,378.136780 
	C1364.089478,377.146301 1365.183228,376.302643 1366.541748,375.090515 
	C1368.480713,380.973724 1367.479614,388.391113 1376.128540,388.345276 
	C1380.080078,388.324310 1384.298950,388.822357 1387.829956,387.533203 
	C1389.000366,387.105896 1388.413940,381.829437 1388.602295,378.768280 
	C1388.673950,377.605804 1388.692505,376.438416 1388.690308,375.273346 
	C1388.649414,353.800446 1388.971313,332.317474 1388.385986,310.859253 
	C1388.126343,301.333221 1385.793091,291.940918 1378.823486,283.713593 
M900.904419,304.719574 
	C900.399414,303.869385 899.754211,303.072144 899.409973,302.161163 
	C891.064270,280.075958 872.690125,271.804199 852.841919,271.290863 
	C846.754822,271.133423 840.518677,273.171356 834.496033,274.755707 
	C816.632385,279.454956 808.130371,293.298767 803.376709,309.395752 
	C800.957642,317.587341 801.594116,326.698517 800.988281,335.403687 
	C800.296631,345.341125 802.638184,354.744049 807.211487,363.439941 
	C812.054810,372.649353 818.257141,380.471680 827.993347,385.600311 
	C837.709229,390.718201 847.722961,391.310760 858.143677,391.036133 
	C866.623535,390.812683 874.461121,387.951630 881.232056,383.336487 
	C897.313171,372.375366 903.866089,356.076233 905.019226,337.227539 
	C905.680542,326.417908 904.749756,315.779877 900.904419,304.719574 
M766.403015,276.064331 
	C746.190674,266.185425 728.763000,270.801514 713.037170,287.668579 
	C713.037170,283.462555 712.986816,280.673950 713.051025,277.888000 
	C713.117859,274.988434 711.831177,273.586700 708.879944,273.605225 
	C704.732544,273.631226 700.582275,273.611969 696.437134,273.484894 
	C692.744751,273.371735 691.346008,275.053375 691.661865,278.679382 
	C691.964661,282.154358 692.080933,285.656067 692.075134,289.145721 
	C692.022766,320.613037 691.972046,352.080597 691.773865,383.547119 
	C691.752502,386.941010 692.614380,388.479919 696.196289,388.360901 
	C700.516785,388.217407 704.882874,388.109680 709.167053,388.567993 
	C713.934326,389.078033 715.162354,387.217041 715.124207,382.693634 
	C714.941833,361.042297 714.772522,339.383759 715.157898,317.737762 
	C715.341553,307.421295 719.360229,298.598480 729.279968,293.735046 
	C741.504944,287.741394 754.209717,290.797272 759.022339,304.496307 
	C761.426514,311.339722 762.466736,318.941986 762.638000,326.235901 
	C763.087280,345.378143 762.809814,364.540466 762.605408,383.692474 
	C762.564026,387.571564 763.584045,389.122650 767.668945,388.777435 
	C771.967834,388.414093 776.329834,388.496460 780.645569,388.730042 
	C784.014771,388.912384 785.118774,387.459595 785.061523,384.345612 
	C784.972778,379.516968 785.208618,374.678558 785.010193,369.856476 
	C784.088440,347.455444 786.895813,324.989136 783.210754,302.609467 
	C781.363892,291.393646 775.840088,283.060944 766.403015,276.064331 
M1683.032715,351.500000 
	C1683.028564,327.513672 1682.944824,303.526886 1683.093628,279.541504 
	C1683.120361,275.244812 1681.678345,273.373810 1677.360596,273.554382 
	C1672.872559,273.742096 1668.335938,273.382263 1663.904541,273.935242 
	C1662.587524,274.099579 1660.555908,276.527710 1660.544434,277.932281 
	C1660.426880,292.415344 1660.873535,306.903595 1660.714233,321.385498 
	C1660.606567,331.152649 1660.040161,340.934052 1659.211426,350.669281 
	C1658.077637,363.986572 1644.903931,372.213745 1632.391602,370.960114 
	C1623.874023,370.106720 1615.401001,363.141998 1615.152832,355.162476 
	C1614.362183,329.736267 1613.968628,304.295319 1613.723511,278.857117 
	C1613.685669,274.941132 1612.968872,273.276215 1608.848145,273.568054 
	C1604.708252,273.861206 1600.427490,274.323303 1596.407593,273.601532 
	C1591.419556,272.705933 1590.887085,274.785370 1590.909302,278.869263 
	C1591.034668,301.855469 1590.854370,324.843719 1591.060669,347.828735 
	C1591.109009,353.210144 1591.856201,358.663971 1592.961548,363.942139 
	C1596.055786,378.717163 1607.115601,389.299011 1621.988037,390.832581 
	C1635.626221,392.238922 1648.418091,390.010590 1657.380249,377.910156 
	C1658.090820,376.950439 1659.188721,376.277557 1660.528198,375.101288 
	C1661.297852,378.769257 1662.192261,381.761322 1662.490845,384.811737 
	C1662.789062,387.858429 1664.215332,388.769104 1667.058105,388.647980 
	C1670.881592,388.485077 1674.728638,388.386688 1678.542236,388.628296 
	C1682.124512,388.855255 1683.149292,387.398834 1683.096069,383.981079 
	C1682.933105,373.489594 1683.033447,362.993988 1683.032715,351.500000 
M1217.157715,362.015778 
	C1213.247314,354.994934 1212.648438,347.410126 1212.969238,339.553284 
	C1213.254517,332.567413 1213.033447,325.560760 1213.033081,318.563293 
	C1213.032471,305.234741 1212.993408,291.906036 1213.056763,278.577789 
	C1213.071045,275.578278 1212.754639,273.303955 1208.873169,273.404877 
	C1203.108032,273.554779 1197.336182,273.443695 1191.317749,273.443695 
	C1191.076660,275.138428 1190.734375,276.424896 1190.734253,277.711334 
	C1190.733154,300.367004 1190.624268,323.024445 1190.897827,345.677185 
	C1190.978760,352.375885 1191.538208,359.198792 1192.970825,365.724945 
	C1196.229248,380.567719 1206.939209,388.495483 1220.968262,390.718536 
	C1233.919312,392.770844 1246.402588,390.104492 1255.728638,379.340271 
	C1256.773193,378.134613 1258.341064,377.382507 1260.491333,375.820770 
	C1260.701904,378.941406 1261.129150,380.916473 1260.904663,382.814392 
	C1260.371216,387.323120 1262.441895,388.846863 1266.643555,388.669647 
	C1270.135498,388.522339 1273.648926,388.487213 1277.134644,388.699768 
	C1280.688354,388.916504 1281.838379,387.401581 1281.734497,383.989441 
	C1281.460938,375.003357 1281.312988,366.011047 1281.280273,357.020599 
	C1281.185669,331.030853 1281.107544,305.040558 1281.194702,279.051056 
	C1281.208130,275.021271 1280.064819,273.251740 1275.817993,273.611725 
	C1272.352661,273.905426 1268.831787,273.755798 1265.348145,273.568420 
	C1260.841919,273.325958 1258.802246,274.715637 1258.858765,279.801300 
	C1259.110352,302.457001 1259.089844,325.118439 1258.843140,347.774261 
	C1258.803833,351.396423 1257.907959,355.484924 1256.051270,358.530640 
	C1247.209106,373.035126 1228.525879,376.145233 1217.157715,362.015778 
M1465.460938,270.996613 
	C1459.287720,272.483398 1452.613037,272.968292 1447.081909,275.737518 
	C1441.504517,278.529877 1437.062378,283.589996 1431.146973,288.459961 
	C1431.146973,284.065277 1431.075684,281.107056 1431.165771,278.153717 
	C1431.266724,274.844879 1430.102417,273.299500 1426.470703,273.580139 
	C1422.667847,273.874023 1418.809937,273.723846 1414.993530,273.486908 
	C1411.862549,273.292572 1410.919678,274.660248 1410.923828,277.573029 
	C1410.973511,313.048920 1410.988770,348.524902 1410.928223,384.000763 
	C1410.922607,387.286499 1412.260620,388.420898 1415.410034,388.367767 
	C1419.733643,388.294769 1424.083008,388.287628 1428.382324,388.680298 
	C1432.156250,389.024994 1433.254395,387.751221 1433.218872,383.981140 
	C1433.021362,362.997437 1432.988403,342.011108 1433.066284,321.026306 
	C1433.107178,309.993713 1437.264038,301.023163 1446.505127,294.397308 
	C1455.137451,288.208038 1470.303711,290.850647 1475.619629,299.784424 
	C1479.516357,306.332947 1480.172852,313.350098 1480.333740,320.280151 
	C1480.820557,341.249573 1480.612793,362.237671 1480.466309,383.217041 
	C1480.438599,387.193207 1481.259888,389.103760 1485.714355,388.637085 
	C1489.669312,388.222717 1493.735474,388.177704 1497.685669,388.598236 
	C1502.000244,389.057587 1503.130737,387.463959 1503.104858,383.356018 
	C1502.958374,360.039429 1503.227417,336.718719 1502.900269,313.405762 
	C1502.815308,307.349945 1501.841553,301.080444 1499.996704,295.318695 
	C1494.833862,279.195740 1482.576416,272.222900 1465.460938,270.996613 
M1551.194214,330.501495 
	C1551.223755,322.011139 1551.232910,313.520691 1551.287964,305.030487 
	C1551.356934,294.396759 1551.373169,294.396820 1562.242065,294.228577 
	C1577.869507,293.986603 1578.150513,293.771515 1576.849243,278.065430 
	C1576.727051,276.590668 1574.593140,274.204346 1573.245972,274.097321 
	C1567.634399,273.651642 1561.951660,273.668274 1556.324097,274.003784 
	C1552.268433,274.245575 1551.026733,272.725372 1551.120605,268.861938 
	C1551.310669,261.042236 1551.201172,253.214523 1551.156006,245.390472 
	C1551.147949,244.000412 1550.853760,242.612015 1550.708374,241.365433 
	C1544.401489,242.811249 1538.637085,243.977386 1532.966919,245.495758 
	C1529.971558,246.297882 1528.695312,248.343933 1528.862305,251.814896 
	C1529.210815,259.057556 1528.967651,266.328674 1528.967651,274.038116 
	C1525.877441,274.038116 1523.587891,274.006989 1521.299316,274.043488 
	C1510.916992,274.209106 1510.917114,274.215973 1510.979126,284.698273 
	C1511.037109,294.497009 1511.036865,294.494019 1520.572144,293.743622 
	C1521.567017,293.665344 1522.577393,293.725952 1523.562500,293.590332 
	C1527.666870,293.025269 1529.094849,294.683502 1529.045166,298.878845 
	C1528.852051,315.192291 1528.760376,331.513092 1529.055908,347.823456 
	C1529.195801,355.546478 1529.875366,363.318481 1531.081055,370.946503 
	C1532.221558,378.161774 1536.727783,383.512726 1543.146240,386.954407 
	C1553.373291,392.438416 1564.074341,392.195740 1574.814209,388.755341 
	C1575.963501,388.387207 1577.061768,386.447418 1577.322266,385.073364 
	C1577.649414,383.347473 1577.079224,381.453949 1576.911743,379.631378 
	C1576.600220,376.243652 1577.514771,371.400452 1575.668091,369.858185 
	C1573.650391,368.173004 1569.081543,369.508850 1565.625854,369.585968 
	C1557.390503,369.769775 1554.084229,367.788483 1553.016724,359.739807 
	C1551.779541,350.410583 1551.749634,340.921326 1551.194214,330.501495 
z"/>
<path fill="#050505" opacity="1.000000" stroke="none" 
	d="
M624.360962,545.406982 
	C619.064758,552.137085 613.977478,558.572815 608.227173,565.847351 
	C600.332458,559.170837 593.221558,552.836487 585.763245,546.941711 
	C578.574097,541.259705 570.978882,536.094482 563.655334,530.578369 
	C559.898865,527.748901 556.333252,524.664551 552.703857,521.668152 
	C544.807800,515.149292 537.018127,508.497620 529.013672,502.115112 
	C520.423218,495.265320 511.652649,488.640472 502.909698,481.984406 
	C502.047577,481.328033 500.591614,481.390900 499.832886,480.673859 
	C498.697479,479.600861 497.936188,478.131989 497.015808,476.831482 
	C497.976776,476.158386 499.022278,475.578064 499.882477,474.794342 
	C502.206512,472.676971 504.492584,470.513977 506.720215,468.295288 
	C512.480530,462.558014 518.715515,457.197693 523.806335,450.913513 
	C530.053833,443.201538 535.341187,434.710663 541.022034,426.541504 
	C542.395142,424.566956 543.934387,422.654327 544.968445,420.506744 
	C549.729736,410.618591 554.737122,400.819092 558.862732,390.665314 
	C561.598328,383.932495 562.931152,376.636566 565.004456,369.625977 
	C567.398499,361.530914 567.649719,353.003662 569.419922,344.938416 
	C572.331543,331.672607 570.819092,318.553772 570.623108,305.470551 
	C570.492188,296.724152 566.534729,288.104126 565.130493,279.293518 
	C562.077820,260.139221 553.139648,243.317001 544.716187,226.317307 
	C542.033264,220.902847 537.485657,216.445831 534.345154,211.218033 
	C526.546997,198.237106 515.515991,188.128983 504.689453,177.958206 
	C498.525940,172.168015 490.771393,168.111710 484.136749,162.773163 
	C474.223633,154.796585 462.737549,149.772705 451.379517,144.512512 
	C446.499146,142.252274 441.260712,140.740433 436.133209,139.045044 
	C430.260193,137.103165 424.332520,135.325928 418.420746,133.502655 
	C417.644318,133.263184 416.828064,133.108292 416.018890,133.026459 
	C409.226990,132.339279 402.126160,132.702499 395.706543,130.782623 
	C384.543243,127.444061 373.369843,129.331329 362.254425,129.259644 
	C355.499023,129.216049 348.767212,132.248840 341.953583,132.631210 
	C335.025299,133.020050 328.653137,134.732254 322.205750,136.938843 
	C316.782867,138.794800 310.912018,139.447891 305.637054,141.605545 
	C297.523224,144.924408 289.576233,148.758224 281.882751,152.966461 
	C274.734375,156.876541 268.119019,161.748245 261.076385,165.867203 
	C247.677933,173.703476 237.353043,185.053528 227.127762,196.274643 
	C220.151215,203.930603 214.716888,213.043213 208.974228,221.755798 
	C204.499969,228.544022 200.613174,235.719452 196.417068,242.804260 
	C190.713135,238.662628 184.184921,235.593277 180.003448,230.570328 
	C167.877060,216.003662 150.951462,207.725937 136.671585,196.030365 
	C120.268623,182.595871 102.627052,170.674286 85.534050,158.081223 
	C81.302856,154.963959 77.018944,151.903381 72.989326,148.541046 
	C72.262566,147.934616 72.039497,145.540009 72.627708,144.716995 
	C84.497208,128.109116 96.537857,111.623749 108.502884,95.083939 
	C114.116890,87.323448 114.112831,87.285629 121.654144,92.766411 
	C138.870407,105.278633 156.067139,117.817841 173.303589,130.302200 
	C187.063080,140.268204 200.879028,150.156265 214.651031,160.105072 
	C221.185745,164.825699 221.203812,164.898514 227.629120,159.483643 
	C247.093918,143.079819 268.223480,129.242096 291.827209,119.654686 
	C301.297241,115.808128 311.536896,113.881142 321.375458,110.912193 
	C346.287964,103.394409 371.898651,104.809723 397.373962,105.175301 
	C404.381104,105.275841 411.383972,107.261078 418.343750,108.613228 
	C424.793121,109.866219 431.335022,110.953964 437.565582,112.956429 
	C449.678162,116.849335 462.097565,120.298157 473.504425,125.775116 
	C501.467804,139.201630 525.899414,157.789703 546.058899,181.393173 
	C562.781921,200.973190 576.341797,222.733932 585.091003,247.131775 
	C588.783386,257.428314 592.345947,267.870911 594.692566,278.527832 
	C598.471375,295.688660 600.065613,313.202698 599.300598,330.805023 
	C598.870178,340.709442 598.390625,350.694946 596.732544,360.439636 
	C595.039062,370.392334 592.593506,380.352539 589.184937,389.845459 
	C584.364502,403.270782 578.504883,416.334625 572.770142,429.412964 
	C571.018921,433.406494 568.258728,436.965973 565.879944,440.672516 
	C564.585388,442.689514 564.550110,443.655487 566.981873,445.289246 
	C575.839844,451.240601 584.356689,457.699371 593.007996,463.958832 
	C601.404663,470.034058 609.815002,476.090332 618.207336,482.171539 
	C628.749390,489.810486 639.347290,497.377106 649.689514,505.278168 
	C650.551453,505.936676 650.344299,509.357300 649.449951,510.714417 
	C645.737122,516.348267 641.551575,521.669434 637.574341,527.130615 
	C633.219543,533.110107 628.903076,539.117432 624.360962,545.406982 
z"/>
<path fill="#050505" opacity="1.000000" stroke="none" 
	d="
M488.936829,409.839111 
	C494.584259,400.061249 500.587769,390.863983 505.411377,381.084778 
	C510.394257,370.982544 514.319214,360.330383 515.092590,348.869049 
	C515.784180,338.622253 517.294678,328.314270 516.714417,318.131836 
	C516.168274,308.547424 513.758484,298.995087 511.460815,289.601776 
	C507.905029,275.065216 501.428619,261.706726 493.009491,249.376846 
	C484.892487,237.489517 476.181091,226.163513 464.701996,217.062286 
	C454.334320,208.842194 443.393799,201.833679 431.267700,196.593842 
	C420.382751,191.890305 409.224915,188.154648 397.371155,186.956573 
	C389.305054,186.141312 381.219543,185.435455 373.125549,184.996674 
	C357.379730,184.143066 342.257935,187.759354 327.848907,193.420212 
	C309.274261,200.717621 292.701111,211.615662 278.984375,226.245987 
	C264.867188,241.303421 253.940826,258.524689 247.226303,278.139252 
	C245.790237,282.334351 244.752823,281.420288 242.266144,279.307556 
	C234.586197,272.782623 226.848358,266.317627 218.941513,260.071716 
	C215.437210,257.303528 211.356171,255.274445 207.766403,252.601669 
	C205.944031,251.244812 203.999634,250.066666 206.169434,246.618011 
	C212.987686,235.781143 218.108734,223.743652 225.797928,213.622894 
	C234.409714,202.287796 244.447006,191.791122 255.117004,182.344940 
	C263.051910,175.320129 272.937714,170.477081 282.044983,164.807480 
	C286.665253,161.931183 291.261993,158.824814 296.264404,156.796921 
	C305.081573,153.222641 313.572601,148.963745 323.031342,146.721115 
	C333.543732,144.228699 344.132019,142.567291 354.671417,140.528488 
	C367.302368,138.085068 379.693909,139.562256 392.155731,139.232407 
	C397.544525,139.089783 402.987732,141.645157 408.434998,142.844284 
	C412.197662,143.672546 416.042633,144.136108 419.791534,145.015396 
	C424.902649,146.214188 430.138123,147.190643 434.997467,149.088882 
	C444.349884,152.742264 453.695770,156.544830 462.625610,161.105453 
	C469.720276,164.728851 476.075287,169.770126 482.964020,173.833832 
	C495.742859,181.372162 505.806122,192.027710 515.496338,202.862747 
	C522.193665,210.351334 527.615540,219.066483 533.003906,227.613922 
	C537.697327,235.058868 542.018433,242.824020 545.623962,250.843338 
	C548.734009,257.760437 550.703430,265.203644 552.993286,272.472168 
	C554.998596,278.837433 556.748596,285.283173 558.609558,291.693848 
	C558.746582,292.166016 558.963562,292.638306 558.984680,293.117523 
	C559.672852,308.745911 561.879333,324.512146 560.502808,339.958740 
	C559.490967,351.312500 557.045898,362.864990 553.720093,374.216858 
	C549.525391,388.534363 543.601990,401.807007 536.901978,414.867767 
	C533.992188,420.540070 529.536987,425.397308 526.258789,430.907440 
	C518.596924,443.785675 507.436737,453.508759 497.007233,463.881531 
	C494.409912,466.464691 491.095642,468.326965 487.854065,470.709381 
	C476.427856,461.799805 464.879272,452.794861 452.561127,443.189819 
	C466.233398,433.873627 478.627045,423.201447 488.936829,409.839111 
z"/>
<path fill="#050505" opacity="1.000000" stroke="none" 
	d="
M456.479797,490.540894 
	C450.544556,493.084656 444.967834,495.519592 439.282135,497.665771 
	C435.727692,499.007416 432.012970,499.927338 428.362915,501.012146 
	C424.409241,502.187256 420.458740,503.375671 416.485107,504.480042 
	C413.247864,505.379761 410.008972,506.726990 406.718384,506.904663 
	C390.438477,507.783539 374.143280,508.709930 357.848877,508.801331 
	C352.427673,508.831787 347.005127,506.373413 341.559784,505.157684 
	C337.956482,504.353271 334.321472,503.678162 330.682953,503.047028 
	C324.215546,501.925110 318.143280,499.623566 311.930481,497.623932 
	C302.048706,494.443420 292.842621,490.211121 283.957764,485.132629 
	C278.125092,481.798737 272.808777,477.568939 267.017548,474.153564 
	C254.239990,466.618011 244.186157,455.954773 234.486984,445.135010 
	C227.783218,437.656769 222.380264,428.926331 216.995468,420.377869 
	C212.305313,412.932159 207.982590,405.169922 204.376541,397.152222 
	C201.266586,390.237488 199.225647,382.816925 197.023788,375.525879 
	C194.862595,368.369385 193.092941,361.094604 191.158066,353.869995 
	C191.072556,353.550690 191.021576,353.215210 191.006653,352.884918 
	C190.330429,337.927032 189.263275,322.970581 189.198730,308.009827 
	C189.175339,302.587372 191.627823,297.171143 192.806442,291.720886 
	C193.655762,287.793457 194.112488,283.778687 195.021729,279.867340 
	C196.210388,274.754028 197.365891,269.595978 199.108795,264.659546 
	C200.664566,260.253113 202.748795,260.329071 206.461029,263.276825 
	C214.289246,269.492981 222.434570,275.307983 230.363998,281.399261 
	C234.220490,284.361755 238.045349,287.408325 241.535767,290.778107 
	C242.571854,291.778351 242.894791,294.052643 242.739548,295.665680 
	C241.632736,307.166595 239.156845,318.673279 239.411591,330.127075 
	C239.642609,340.514313 242.629700,350.865906 244.665848,361.181091 
	C247.460983,375.341217 253.398987,388.294556 260.920013,400.486176 
	C273.918976,421.557617 291.002777,438.379791 313.591156,449.032227 
	C322.566406,453.264893 331.576752,457.873596 341.076538,460.441071 
	C356.450287,464.596069 372.402863,466.586853 388.335663,464.731506 
	C406.443359,462.622894 424.085480,458.309418 440.447296,449.770233 
	C441.580963,449.178589 443.698944,448.978943 444.580780,449.638214 
	C450.924866,454.380829 457.029785,459.441498 463.286987,464.302887 
	C467.994324,467.960144 472.828003,471.454407 477.568970,475.069031 
	C478.153870,475.514923 478.965118,476.337494 478.873840,476.840881 
	C478.732147,477.622223 478.055542,478.546814 477.344666,478.947418 
	C470.525208,482.790497 463.650879,486.536285 456.479797,490.540894 
z"/>
<path fill="#0A0A0A" opacity="1.000000" stroke="none" 
	d="
M1704.932861,372.995728 
	C1704.940674,342.677246 1704.959106,312.857574 1704.947144,283.037933 
	C1704.943481,273.823029 1704.905518,273.822723 1714.006470,273.730072 
	C1714.506226,273.724976 1715.006348,273.743835 1715.505737,273.728943 
	C1726.119385,273.412598 1726.775024,274.142914 1725.438599,284.699310 
	C1725.360229,285.318573 1725.507202,285.966339 1725.651611,288.137909 
	C1727.900757,286.311951 1729.584351,285.317169 1730.785156,283.910187 
	C1738.601562,274.752197 1748.493164,270.344452 1760.477173,271.036865 
	C1771.796021,271.690857 1780.452148,277.124512 1786.670044,286.542236 
	C1787.631348,287.997925 1788.627319,289.430573 1789.385498,290.547241 
	C1795.398560,285.558411 1800.685181,280.293549 1806.794922,276.282318 
	C1820.395996,267.352722 1838.795776,269.658295 1850.477051,279.777039 
	C1856.707397,285.173859 1859.687622,292.865540 1860.999268,300.941467 
	C1865.458008,328.392853 1861.899902,356.061768 1863.071289,383.605743 
	C1863.243042,387.641907 1861.524414,388.904053 1857.685669,388.600922 
	C1853.723511,388.288086 1849.705933,388.141479 1845.750488,388.434265 
	C1841.975342,388.713715 1840.859009,387.402496 1840.894897,383.684631 
	C1841.055908,367.027008 1841.188843,350.362732 1840.875366,333.709442 
	C1840.704468,324.632385 1840.572144,315.374573 1838.733765,306.550049 
	C1835.776978,292.356750 1822.071777,286.347839 1809.361938,293.943085 
	C1798.683716,300.324310 1794.220215,310.445679 1794.545532,323.067230 
	C1794.991699,340.378357 1794.748535,357.707275 1794.795288,375.028564 
	C1794.797974,376.027618 1794.695679,377.029144 1794.737305,378.025543 
	C1795.221924,389.609955 1795.906372,388.590363 1784.017456,388.571716 
	C1771.145996,388.551544 1772.332764,390.083008 1772.495361,377.336121 
	C1772.720581,359.684601 1772.816772,342.021393 1772.397339,324.376770 
	C1772.234985,317.544830 1770.768677,310.700012 1769.447510,303.948883 
	C1767.007935,291.482422 1750.851196,287.338470 1740.083496,294.025299 
	C1731.249023,299.511627 1727.379395,307.984680 1727.178955,317.735657 
	C1726.734009,339.383453 1726.943970,361.047394 1727.115601,382.702942 
	C1727.150146,387.048187 1726.325684,389.211700 1721.364624,388.617615 
	C1717.099121,388.106812 1712.726318,388.238831 1708.417114,388.437744 
	C1705.682129,388.563934 1704.838745,387.445435 1704.876343,384.987946 
	C1704.935059,381.157440 1704.917236,377.325775 1704.932861,372.995728 
z"/>
<path fill="#0B0B0B" opacity="1.000000" stroke="none" 
	d="
M940.010742,313.829468 
	C943.199219,326.954071 946.150879,339.716492 949.227173,352.448883 
	C949.746338,354.597717 950.802368,356.616791 952.834045,358.819641 
	C954.164734,354.227509 955.582520,349.658508 956.809204,345.038757 
	C960.131409,332.527954 963.453247,320.016022 966.618225,307.464935 
	C968.894897,298.436218 970.816650,289.317902 973.104919,280.292297 
	C974.071899,276.478363 975.071350,273.441498 980.761230,273.364777 
	C999.816956,273.107758 994.633667,274.992310 999.018494,289.334412 
	C1001.684448,298.054626 1004.074463,306.860840 1006.488708,315.655853 
	C1008.743713,323.871033 1010.870605,332.121399 1013.046753,340.358215 
	C1014.745544,346.787994 1016.433411,353.220673 1018.126160,359.652039 
	C1018.703064,360.227905 1019.280029,360.803772 1019.856995,361.379608 
	C1020.124329,360.262085 1020.423462,359.151093 1020.653748,358.026001 
	C1022.098145,350.970093 1023.415039,343.886017 1024.993042,336.860443 
	C1026.606201,329.678436 1028.464722,322.551361 1030.226685,315.402954 
	C1031.791626,309.053711 1033.429810,302.721802 1034.928711,296.357086 
	C1036.468018,289.820892 1037.708862,283.207642 1039.490112,276.740997 
	C1039.835083,275.488678 1042.009155,274.029053 1043.440674,273.912659 
	C1049.060181,273.455933 1054.723877,273.356903 1060.360962,273.506866 
	C1061.210327,273.529480 1062.913574,275.831787 1062.685303,276.651855 
	C1060.545288,284.339264 1057.963867,291.902283 1055.721558,299.563171 
	C1053.382202,307.555084 1051.285156,315.617706 1049.065552,323.644867 
	C1046.935669,331.347565 1044.815796,339.053284 1042.633301,346.741119 
	C1040.815308,353.144836 1038.907227,359.522980 1037.049194,365.915436 
	C1035.129883,372.519287 1033.385986,379.182129 1031.175781,385.686829 
	C1030.723022,387.019287 1028.587769,388.561798 1027.152832,388.640869 
	C1021.511047,388.951630 1015.838135,388.775269 1010.178955,388.666626 
	C1005.161804,388.570282 1006.134460,383.705048 1005.346741,381.225647 
	C1000.899231,367.227936 996.983826,353.050140 993.274658,338.832581 
	C990.562317,328.436005 988.446899,317.883698 985.860901,306.500488 
	C984.779663,307.697327 983.600769,308.409821 983.358337,309.361023 
	C980.445312,320.788757 977.881958,332.309021 974.798035,343.688843 
	C971.977539,354.096436 968.589417,364.349182 965.545471,374.697815 
	C964.573242,378.003174 964.274902,381.555573 962.944214,384.687286 
	C962.216858,386.399200 960.061096,388.501587 958.401855,388.638458 
	C952.779724,389.102081 947.080383,388.953888 941.436646,388.610992 
	C939.966736,388.521667 937.671814,387.135132 937.321167,385.900024 
	C934.962219,377.590149 933.131775,369.132324 930.920959,360.777740 
	C928.792175,352.733276 926.389893,344.761536 924.147400,336.746796 
	C921.723633,328.084076 919.387939,319.396576 916.935547,310.742096 
	C914.669861,302.746277 912.323792,294.772980 909.965210,286.803925 
	C909.039307,283.675720 907.756531,280.636078 907.056702,277.463379 
	C906.468384,274.796204 907.361572,273.019836 910.746033,273.212799 
	C915.894043,273.506287 921.083740,273.200256 926.210632,273.655945 
	C927.827881,273.799683 930.307129,275.292328 930.676270,276.638214 
	C933.067017,285.354095 934.957336,294.206421 937.068542,303.000336 
	C937.909729,306.503876 938.895813,309.972595 940.010742,313.829468 
z"/>
<path fill="#090909" opacity="1.000000" stroke="none" 
	d="
M1153.505127,273.825378 
	C1158.598267,273.872681 1163.248413,273.872681 1168.547119,273.872681 
	C1168.701782,275.506653 1169.007446,277.234467 1169.008301,278.962402 
	C1169.034302,328.452515 1168.979980,377.942749 1169.116821,427.432495 
	C1169.128784,431.756927 1168.088501,433.394318 1163.536255,433.022797 
	C1158.276611,432.593506 1152.955078,432.922913 1147.069580,432.922913 
	C1147.069580,413.682892 1147.069580,394.808380 1147.069580,374.813110 
	C1145.392822,376.223907 1144.456665,376.761536 1143.856934,377.553864 
	C1135.058838,389.175629 1118.111572,393.732666 1103.844116,389.566467 
	C1084.961060,384.052490 1075.458862,370.834167 1070.647461,352.841339 
	C1067.268799,340.206451 1067.476318,327.379852 1069.328491,314.771881 
	C1070.950562,303.730194 1075.290649,293.217865 1083.070801,284.813904 
	C1088.837280,278.585144 1096.177979,275.042847 1104.511719,272.613007 
	C1114.318726,269.753540 1123.246338,271.524017 1131.990356,275.168152 
	C1135.953003,276.819580 1139.201660,280.255371 1142.645752,283.040741 
	C1143.863647,284.025757 1144.699463,285.483185 1146.979492,286.461273 
	C1146.979492,284.430878 1147.184692,282.375214 1146.938354,280.375153 
	C1146.354492,275.634644 1148.351807,273.499939 1153.505127,273.825378 
M1146.983398,319.848022 
	C1145.060181,314.121704 1143.867920,308.007141 1141.072998,302.743774 
	C1133.466797,288.420227 1112.244629,286.639313 1102.417847,298.207062 
	C1097.308228,304.221863 1094.063721,310.438110 1092.592896,318.043732 
	C1089.316895,334.984406 1090.585693,350.728699 1102.810303,364.252655 
	C1109.122559,371.235809 1119.930542,372.590393 1127.529175,370.276337 
	C1140.028198,366.469940 1147.058594,353.972870 1146.988892,341.275360 
	C1146.951416,334.443817 1146.984497,327.611847 1146.983398,319.848022 
z"/>
<path fill="#0B0B0B" opacity="1.000000" stroke="none" 
	d="
M1379.038086,284.002228 
	C1385.793091,291.940918 1388.126343,301.333221 1388.385986,310.859253 
	C1388.971313,332.317474 1388.649414,353.800446 1388.690308,375.273346 
	C1388.692505,376.438416 1388.673950,377.605804 1388.602295,378.768280 
	C1388.413940,381.829437 1389.000366,387.105896 1387.829956,387.533203 
	C1384.298950,388.822357 1380.080078,388.324310 1376.128540,388.345276 
	C1367.479614,388.391113 1368.480713,380.973724 1366.541748,375.090515 
	C1365.183228,376.302643 1364.089478,377.146301 1363.150391,378.136780 
	C1352.173096,389.715820 1339.104614,393.033417 1323.494995,389.683685 
	C1310.737305,386.945953 1303.702393,378.854065 1299.413330,367.595245 
	C1293.940430,353.229187 1302.828735,331.862274 1316.588135,324.942566 
	C1326.080933,320.168579 1335.965210,317.258148 1346.626831,316.805939 
	C1351.910034,316.581879 1357.209106,315.965027 1362.404785,315.005188 
	C1363.671997,314.771149 1365.378662,312.551849 1365.491211,311.134796 
	C1366.277344,301.231598 1358.274536,291.874451 1348.020020,291.012360 
	C1336.834473,290.071991 1326.272339,292.419861 1316.570557,297.711182 
	C1311.944946,300.233948 1310.657227,298.009766 1309.344727,294.622467 
	C1308.876221,293.413513 1309.010010,291.984497 1308.660522,290.713257 
	C1307.948242,288.122864 1305.660400,284.571777 1306.604736,283.217133 
	C1308.430176,280.598663 1311.814209,278.582855 1314.960205,277.456940 
	C1325.663940,273.626190 1336.629639,270.333679 1348.165527,271.176270 
	C1359.641968,272.014526 1370.774658,274.240051 1379.038086,284.002228 
M1322.186035,348.956207 
	C1318.980591,357.298096 1321.918213,365.056763 1327.912231,369.115845 
	C1335.837036,374.482300 1343.794312,373.387115 1351.820557,369.871552 
	C1357.340576,367.453674 1361.952881,364.212463 1364.138550,357.926270 
	C1366.762695,350.379761 1367.296753,342.711182 1366.738525,334.954315 
	C1366.647461,333.690216 1363.461182,331.498657 1361.932373,331.677246 
	C1352.833252,332.740326 1343.550049,333.263092 1335.046021,337.205811 
	C1329.817505,339.629974 1324.518188,342.081696 1322.186035,348.956207 
z"/>
<path fill="#0A0A0A" opacity="1.000000" stroke="none" 
	d="
M900.949097,305.117828 
	C904.749756,315.779877 905.680542,326.417908 905.019226,337.227539 
	C903.866089,356.076233 897.313171,372.375366 881.232056,383.336487 
	C874.461121,387.951630 866.623535,390.812683 858.143677,391.036133 
	C847.722961,391.310760 837.709229,390.718201 827.993347,385.600311 
	C818.257141,380.471680 812.054810,372.649353 807.211487,363.439941 
	C802.638184,354.744049 800.296631,345.341125 800.988281,335.403687 
	C801.594116,326.698517 800.957642,317.587341 803.376709,309.395752 
	C808.130371,293.298767 816.632385,279.454956 834.496033,274.755707 
	C840.518677,273.171356 846.754822,271.133423 852.841919,271.290863 
	C872.690125,271.804199 891.064270,280.075958 899.409973,302.161163 
	C899.754211,303.072144 900.399414,303.869385 900.949097,305.117828 
M881.942810,324.547485 
	C880.273193,318.416626 879.276733,311.998779 876.808289,306.208496 
	C869.277588,288.544312 846.171265,285.708069 834.293091,298.315155 
	C828.879700,304.060760 826.400696,310.839844 824.620239,318.330566 
	C820.858887,334.155731 823.198853,348.685028 832.450928,362.063873 
	C839.921021,372.866028 860.609314,374.245331 869.335205,365.704803 
	C874.129944,361.011963 878.042297,356.152466 879.600342,349.273254 
	C881.393921,341.353760 883.803955,333.635529 881.942810,324.547485 
z"/>
<path fill="#0B0B0B" opacity="1.000000" stroke="none" 
	d="
M766.697510,276.279175 
	C775.840088,283.060944 781.363892,291.393646 783.210754,302.609467 
	C786.895813,324.989136 784.088440,347.455444 785.010193,369.856476 
	C785.208618,374.678558 784.972778,379.516968 785.061523,384.345612 
	C785.118774,387.459595 784.014771,388.912384 780.645569,388.730042 
	C776.329834,388.496460 771.967834,388.414093 767.668945,388.777435 
	C763.584045,389.122650 762.564026,387.571564 762.605408,383.692474 
	C762.809814,364.540466 763.087280,345.378143 762.638000,326.235901 
	C762.466736,318.941986 761.426514,311.339722 759.022339,304.496307 
	C754.209717,290.797272 741.504944,287.741394 729.279968,293.735046 
	C719.360229,298.598480 715.341553,307.421295 715.157898,317.737762 
	C714.772522,339.383759 714.941833,361.042297 715.124207,382.693634 
	C715.162354,387.217041 713.934326,389.078033 709.167053,388.567993 
	C704.882874,388.109680 700.516785,388.217407 696.196289,388.360901 
	C692.614380,388.479919 691.752502,386.941010 691.773865,383.547119 
	C691.972046,352.080597 692.022766,320.613037 692.075134,289.145721 
	C692.080933,285.656067 691.964661,282.154358 691.661865,278.679382 
	C691.346008,275.053375 692.744751,273.371735 696.437134,273.484894 
	C700.582275,273.611969 704.732544,273.631226 708.879944,273.605225 
	C711.831177,273.586700 713.117859,274.988434 713.051025,277.888000 
	C712.986816,280.673950 713.037170,283.462555 713.037170,287.668579 
	C728.763000,270.801514 746.190674,266.185425 766.697510,276.279175 
z"/>
<path fill="#090909" opacity="1.000000" stroke="none" 
	d="
M1683.031982,352.000000 
	C1683.033447,362.993988 1682.933105,373.489594 1683.096069,383.981079 
	C1683.149292,387.398834 1682.124512,388.855255 1678.542236,388.628296 
	C1674.728638,388.386688 1670.881592,388.485077 1667.058105,388.647980 
	C1664.215332,388.769104 1662.789062,387.858429 1662.490845,384.811737 
	C1662.192261,381.761322 1661.297852,378.769257 1660.528198,375.101288 
	C1659.188721,376.277557 1658.090820,376.950439 1657.380249,377.910156 
	C1648.418091,390.010590 1635.626221,392.238922 1621.988037,390.832581 
	C1607.115601,389.299011 1596.055786,378.717163 1592.961548,363.942139 
	C1591.856201,358.663971 1591.109009,353.210144 1591.060669,347.828735 
	C1590.854370,324.843719 1591.034668,301.855469 1590.909302,278.869263 
	C1590.887085,274.785370 1591.419556,272.705933 1596.407593,273.601532 
	C1600.427490,274.323303 1604.708252,273.861206 1608.848145,273.568054 
	C1612.968872,273.276215 1613.685669,274.941132 1613.723511,278.857117 
	C1613.968628,304.295319 1614.362183,329.736267 1615.152832,355.162476 
	C1615.401001,363.141998 1623.874023,370.106720 1632.391602,370.960114 
	C1644.903931,372.213745 1658.077637,363.986572 1659.211426,350.669281 
	C1660.040161,340.934052 1660.606567,331.152649 1660.714233,321.385498 
	C1660.873535,306.903595 1660.426880,292.415344 1660.544434,277.932281 
	C1660.555908,276.527710 1662.587524,274.099579 1663.904541,273.935242 
	C1668.335938,273.382263 1672.872559,273.742096 1677.360596,273.554382 
	C1681.678345,273.373810 1683.120361,275.244812 1683.093628,279.541504 
	C1682.944824,303.526886 1683.028564,327.513672 1683.031982,352.000000 
z"/>
<path fill="#090909" opacity="1.000000" stroke="none" 
	d="
M1217.336792,362.350128 
	C1228.525879,376.145233 1247.209106,373.035126 1256.051270,358.530640 
	C1257.907959,355.484924 1258.803833,351.396423 1258.843140,347.774261 
	C1259.089844,325.118439 1259.110352,302.457001 1258.858765,279.801300 
	C1258.802246,274.715637 1260.841919,273.325958 1265.348145,273.568420 
	C1268.831787,273.755798 1272.352661,273.905426 1275.817993,273.611725 
	C1280.064819,273.251740 1281.208130,275.021271 1281.194702,279.051056 
	C1281.107544,305.040558 1281.185669,331.030853 1281.280273,357.020599 
	C1281.312988,366.011047 1281.460938,375.003357 1281.734497,383.989441 
	C1281.838379,387.401581 1280.688354,388.916504 1277.134644,388.699768 
	C1273.648926,388.487213 1270.135498,388.522339 1266.643555,388.669647 
	C1262.441895,388.846863 1260.371216,387.323120 1260.904663,382.814392 
	C1261.129150,380.916473 1260.701904,378.941406 1260.491333,375.820770 
	C1258.341064,377.382507 1256.773193,378.134613 1255.728638,379.340271 
	C1246.402588,390.104492 1233.919312,392.770844 1220.968262,390.718536 
	C1206.939209,388.495483 1196.229248,380.567719 1192.970825,365.724945 
	C1191.538208,359.198792 1190.978760,352.375885 1190.897827,345.677185 
	C1190.624268,323.024445 1190.733154,300.367004 1190.734253,277.711334 
	C1190.734375,276.424896 1191.076660,275.138428 1191.317749,273.443695 
	C1197.336182,273.443695 1203.108032,273.554779 1208.873169,273.404877 
	C1212.754639,273.303955 1213.071045,275.578278 1213.056763,278.577789 
	C1212.993408,291.906036 1213.032471,305.234741 1213.033081,318.563293 
	C1213.033447,325.560760 1213.254517,332.567413 1212.969238,339.553284 
	C1212.648438,347.410126 1213.247314,354.994934 1217.336792,362.350128 
z"/>
<path fill="#090909" opacity="1.000000" stroke="none" 
	d="
M1465.923340,270.999512 
	C1482.576416,272.222900 1494.833862,279.195740 1499.996704,295.318695 
	C1501.841553,301.080444 1502.815308,307.349945 1502.900269,313.405762 
	C1503.227417,336.718719 1502.958374,360.039429 1503.104858,383.356018 
	C1503.130737,387.463959 1502.000244,389.057587 1497.685669,388.598236 
	C1493.735474,388.177704 1489.669312,388.222717 1485.714355,388.637085 
	C1481.259888,389.103760 1480.438599,387.193207 1480.466309,383.217041 
	C1480.612793,362.237671 1480.820557,341.249573 1480.333740,320.280151 
	C1480.172852,313.350098 1479.516357,306.332947 1475.619629,299.784424 
	C1470.303711,290.850647 1455.137451,288.208038 1446.505127,294.397308 
	C1437.264038,301.023163 1433.107178,309.993713 1433.066284,321.026306 
	C1432.988403,342.011108 1433.021362,362.997437 1433.218872,383.981140 
	C1433.254395,387.751221 1432.156250,389.024994 1428.382324,388.680298 
	C1424.083008,388.287628 1419.733643,388.294769 1415.410034,388.367767 
	C1412.260620,388.420898 1410.922607,387.286499 1410.928223,384.000763 
	C1410.988770,348.524902 1410.973511,313.048920 1410.923828,277.573029 
	C1410.919678,274.660248 1411.862549,273.292572 1414.993530,273.486908 
	C1418.809937,273.723846 1422.667847,273.874023 1426.470703,273.580139 
	C1430.102417,273.299500 1431.266724,274.844879 1431.165771,278.153717 
	C1431.075684,281.107056 1431.146973,284.065277 1431.146973,288.459961 
	C1437.062378,283.589996 1441.504517,278.529877 1447.081909,275.737518 
	C1452.613037,272.968292 1459.287720,272.483398 1465.923340,270.999512 
z"/>
<path fill="#0A0A0A" opacity="1.000000" stroke="none" 
	d="
M1551.194824,331.001526 
	C1551.749634,340.921326 1551.779541,350.410583 1553.016724,359.739807 
	C1554.084229,367.788483 1557.390503,369.769775 1565.625854,369.585968 
	C1569.081543,369.508850 1573.650391,368.173004 1575.668091,369.858185 
	C1577.514771,371.400452 1576.600220,376.243652 1576.911743,379.631378 
	C1577.079224,381.453949 1577.649414,383.347473 1577.322266,385.073364 
	C1577.061768,386.447418 1575.963501,388.387207 1574.814209,388.755341 
	C1564.074341,392.195740 1553.373291,392.438416 1543.146240,386.954407 
	C1536.727783,383.512726 1532.221558,378.161774 1531.081055,370.946503 
	C1529.875366,363.318481 1529.195801,355.546478 1529.055908,347.823456 
	C1528.760376,331.513092 1528.852051,315.192291 1529.045166,298.878845 
	C1529.094849,294.683502 1527.666870,293.025269 1523.562500,293.590332 
	C1522.577393,293.725952 1521.567017,293.665344 1520.572144,293.743622 
	C1511.036865,294.494019 1511.037109,294.497009 1510.979126,284.698273 
	C1510.917114,274.215973 1510.916992,274.209106 1521.299316,274.043488 
	C1523.587891,274.006989 1525.877441,274.038116 1528.967651,274.038116 
	C1528.967651,266.328674 1529.210815,259.057556 1528.862305,251.814896 
	C1528.695312,248.343933 1529.971558,246.297882 1532.966919,245.495758 
	C1538.637085,243.977386 1544.401489,242.811249 1550.708374,241.365433 
	C1550.853760,242.612015 1551.147949,244.000412 1551.156006,245.390472 
	C1551.201172,253.214523 1551.310669,261.042236 1551.120605,268.861938 
	C1551.026733,272.725372 1552.268433,274.245575 1556.324097,274.003784 
	C1561.951660,273.668274 1567.634399,273.651642 1573.245972,274.097321 
	C1574.593140,274.204346 1576.727051,276.590668 1576.849243,278.065430 
	C1578.150513,293.771515 1577.869507,293.986603 1562.242065,294.228577 
	C1551.373169,294.396820 1551.356934,294.396759 1551.287964,305.030487 
	C1551.232910,313.520691 1551.223755,322.011139 1551.194824,331.001526 
z"/>
<path fill="#656267" opacity="1.000000" stroke="none" 
	d="
M1874.958984,193.851410 
	C1879.476562,191.369461 1881.284912,192.208817 1881.357178,196.868195 
	C1881.406006,200.020203 1881.632202,203.203217 1881.275391,206.314606 
	C1881.073853,208.070587 1879.852539,209.709579 1879.090576,211.401245 
	C1877.398193,210.271561 1875.705688,209.141891 1874.013306,208.012222 
	C1874.223389,207.647842 1874.433472,207.283463 1874.643555,206.919083 
	C1872.279663,206.919083 1869.915649,206.919083 1867.279663,206.919083 
	C1867.176758,207.443268 1867.291992,208.555237 1866.818359,208.937286 
	C1865.595947,209.923126 1864.175293,210.910446 1862.698975,211.192871 
	C1862.218262,211.284851 1860.813232,209.245758 1860.712280,208.103485 
	C1860.435913,204.975769 1860.785767,201.795013 1860.554321,198.659897 
	C1860.465820,197.461472 1859.471191,196.329941 1858.440918,194.752655 
	C1857.994507,193.897156 1857.996704,193.456940 1857.998779,193.016708 
	C1860.967041,193.067734 1863.935425,193.118759 1866.524902,193.539398 
	C1864.915161,194.146118 1862.623169,194.337830 1862.610840,194.627090 
	C1862.392822,199.719727 1862.453125,204.824249 1862.453125,211.027466 
	C1867.511841,207.150681 1861.735718,200.621658 1867.856689,198.370529 
	C1867.652222,197.157852 1867.384399,195.570221 1867.116699,193.982590 
	C1868.540649,195.970551 1869.964478,197.958527 1871.544067,200.163864 
	C1872.539551,197.976868 1873.399780,196.087082 1874.644531,194.488403 
	C1876.002563,199.856094 1876.976074,204.932663 1877.949463,210.009232 
	C1878.456421,210.004120 1878.963379,209.998993 1879.470337,209.993866 
	C1880.511108,204.822403 1879.845581,199.539490 1879.844727,193.851410 
	C1877.879761,193.851410 1876.419434,193.851410 1874.958984,193.851410 
z"/>
<path fill="#35333B" opacity="1.000000" stroke="none" 
	d="
M1857.542725,192.920624 
	C1857.996704,193.456940 1857.994507,193.897156 1857.998291,194.667511 
	C1855.290283,195.084213 1853.652100,196.020874 1854.071167,199.201675 
	C1854.448608,202.066879 1854.477051,204.978058 1854.659424,207.621628 
	C1854.659546,204.166672 1854.659546,200.959015 1854.659546,197.751373 
	C1854.084961,197.783066 1853.510254,197.814758 1852.935669,197.846466 
	C1852.935669,202.125565 1852.935669,206.404678 1852.935669,210.683792 
	C1852.208984,210.829819 1851.482422,210.975845 1850.352539,210.548386 
	C1849.906738,206.322540 1850.041870,202.654800 1849.728516,199.025803 
	C1849.613403,197.693329 1848.437012,196.452530 1847.744873,195.169937 
	C1846.743530,195.167542 1845.742432,195.165131 1844.408447,194.737518 
	C1844.060913,193.903717 1844.046021,193.495087 1844.031128,193.086487 
	C1848.382935,192.999176 1852.734619,192.911865 1857.542725,192.920624 
z"/>
<path fill="#656267" opacity="1.000000" stroke="none" 
	d="
M1847.926880,195.596344 
	C1848.437012,196.452530 1849.613403,197.693329 1849.728516,199.025803 
	C1850.041870,202.654800 1849.906738,206.322540 1849.991699,210.431839 
	C1849.494751,209.558273 1848.600708,208.257812 1848.484985,206.891434 
	C1848.179443,203.283783 1848.211426,199.647568 1847.926880,195.596344 
z"/>
<path fill="#656267" opacity="1.000000" stroke="none" 
	d="
M1853.609131,210.000580 
	C1852.935669,206.404678 1852.935669,202.125565 1852.935669,197.846466 
	C1853.510254,197.814758 1854.084961,197.783066 1854.659546,197.751373 
	C1854.659546,200.959015 1854.659546,204.166672 1854.657471,207.404907 
	C1854.531250,208.062790 1854.406860,208.690079 1853.609131,210.000580 
z"/>
<path fill="#656267" opacity="1.000000" stroke="none" 
	d="
M1843.772583,193.042221 
	C1844.046021,193.495087 1844.060913,193.903717 1844.052002,194.618286 
	C1843.856689,194.282150 1843.685303,193.640060 1843.772583,193.042221 
z"/>
<path fill="#FAFAFA" opacity="1.000000" stroke="none" 
	d="
M1146.984619,320.314056 
	C1146.984497,327.611847 1146.951416,334.443817 1146.988892,341.275360 
	C1147.058594,353.972870 1140.028198,366.469940 1127.529175,370.276337 
	C1119.930542,372.590393 1109.122559,371.235809 1102.810303,364.252655 
	C1090.585693,350.728699 1089.316895,334.984406 1092.592896,318.043732 
	C1094.063721,310.438110 1097.308228,304.221863 1102.417847,298.207062 
	C1112.244629,286.639313 1133.466797,288.420227 1141.072998,302.743774 
	C1143.867920,308.007141 1145.060181,314.121704 1146.984619,320.314056 
z"/>
<path fill="#F6F6F6" opacity="1.000000" stroke="none" 
	d="
M1322.403320,348.622314 
	C1324.518188,342.081696 1329.817505,339.629974 1335.046021,337.205811 
	C1343.550049,333.263092 1352.833252,332.740326 1361.932373,331.677246 
	C1363.461182,331.498657 1366.647461,333.690216 1366.738525,334.954315 
	C1367.296753,342.711182 1366.762695,350.379761 1364.138550,357.926270 
	C1361.952881,364.212463 1357.340576,367.453674 1351.820557,369.871552 
	C1343.794312,373.387115 1335.837036,374.482300 1327.912231,369.115845 
	C1321.918213,365.056763 1318.980591,357.298096 1322.403320,348.622314 
z"/>
<path fill="#FAFAFA" opacity="1.000000" stroke="none" 
	d="
M881.893311,324.983032 
	C883.803955,333.635529 881.393921,341.353760 879.600342,349.273254 
	C878.042297,356.152466 874.129944,361.011963 869.335205,365.704803 
	C860.609314,374.245331 839.921021,372.866028 832.450928,362.063873 
	C823.198853,348.685028 820.858887,334.155731 824.620239,318.330566 
	C826.400696,310.839844 828.879700,304.060760 834.293091,298.315155 
	C846.171265,285.708069 869.277588,288.544312 876.808289,306.208496 
	C879.276733,311.998779 880.273193,318.416626 881.893311,324.983032 
z"/>
<path fill="#231317" opacity="1.000000" stroke="none" 
	d="
M1867.097412,193.951431 
	C1867.384399,195.570221 1867.652222,197.157852 1867.856689,198.370529 
	C1861.735718,200.621658 1867.511841,207.150681 1862.453125,211.027466 
	C1862.453125,204.824249 1862.392822,199.719727 1862.610840,194.627090 
	C1862.623169,194.337830 1864.915161,194.146118 1866.588501,193.886688 
	C1867.030762,193.864380 1867.078125,193.920258 1867.097412,193.951431 
z"/>
<path fill="#070824" opacity="1.000000" stroke="none" 
	d="
M1874.938477,193.879547 
	C1876.419434,193.851410 1877.879761,193.851410 1879.844727,193.851410 
	C1879.845581,199.539490 1880.511108,204.822403 1879.470337,209.993866 
	C1878.963379,209.998993 1878.456421,210.004120 1877.949463,210.009232 
	C1876.976074,204.932663 1876.002563,199.856094 1874.955811,194.373596 
	C1874.882690,193.967667 1874.918091,193.907684 1874.938477,193.879547 
z"/>
</svg>