<svg xmlns="http://www.w3.org/2000/svg" xml:space="preserve" viewBox="0 0 1938 632"><path fill="#fefefe" d="M1254 633H1V1h1938v632zm589.514-440.002c.171.642.343 1.284 1.227 2.165 1.001.002 2.003.005 3.368.86.102 3.625.07 7.26.376 10.868.116 1.367 1.01 2.667 2.27 4.23.727-.145 1.454-.291 3.527-1.804.125-.627.25-1.254.377-1.448-.182-2.89-.21-5.802-.588-8.667-.419-3.181 1.22-4.118 4.818-4.034.582 1.162 1.577 2.293 1.665 3.492.232 3.135-.118 6.316.158 9.443.101 1.143 1.506 3.182 1.987 3.09 1.476-.283 2.897-1.27 4.12-2.256.473-.382.358-1.494.46-2.018h7.365l-.63 1.093 5.077 3.39c.762-1.692 1.983-3.331 2.184-5.087.357-3.112.131-6.295.082-9.447-.072-4.66-1.88-5.499-6.439-2.96 0 0-.035.06-.658.29l-2.716 5.966c-1.58-2.205-3.003-4.193-4.466-6.244 0 0-.047-.056-.174-.75-2.969-.051-5.937-.102-9.818-.345-4.351.087-8.703.174-13.572.173M624.57 545.113c4.333-5.996 8.65-12.003 13.004-17.982 3.978-5.462 8.163-10.783 11.876-16.417.894-1.357 1.101-4.777.24-5.436-10.343-7.9-20.94-15.468-31.483-23.106-8.392-6.082-16.802-12.138-25.199-18.213-8.651-6.26-17.168-12.718-26.026-18.67-2.432-1.634-2.397-2.6-1.102-4.616 2.379-3.707 5.139-7.267 6.89-11.26 5.735-13.078 11.595-26.142 16.415-39.568 3.409-9.492 5.854-19.453 7.548-29.405 1.658-9.745 2.137-19.73 2.568-29.635.765-17.602-.83-35.116-4.608-52.277-2.347-10.657-5.91-21.1-9.602-31.396-8.75-24.398-22.31-46.159-39.032-65.739-20.16-23.603-44.591-42.191-72.555-55.618-11.406-5.477-23.826-8.926-35.938-12.819-6.231-2.002-12.773-3.09-19.222-4.343-6.96-1.352-13.963-3.337-20.97-3.438-25.475-.365-51.086-1.78-75.999 5.737-9.838 2.97-20.078 4.896-29.548 8.743-23.604 9.587-44.733 23.425-64.198 39.829-6.425 5.415-6.443 5.342-12.978.621-13.772-9.949-27.588-19.837-41.347-29.803-17.237-12.484-34.434-25.023-51.65-37.536-7.541-5.48-7.537-5.443-13.151 2.318-11.965 16.54-24.006 33.025-35.875 49.633-.589.823-.365 3.218.361 3.824 4.03 3.362 8.314 6.423 12.545 9.54 17.093 12.593 34.735 24.515 51.138 37.95 14.28 11.695 31.205 19.973 43.331 34.54 4.182 5.022 10.71 8.092 16.414 12.233 4.196-7.085 8.083-14.26 12.557-21.048 5.743-8.713 11.177-17.825 18.154-25.481 10.225-11.221 20.55-22.572 33.948-30.408 7.043-4.119 13.658-8.99 20.807-12.9 7.693-4.209 15.64-8.043 23.754-11.361 5.275-2.158 11.146-2.811 16.569-4.667 6.447-2.207 12.82-3.919 19.748-4.308 6.813-.382 13.545-3.415 20.3-3.371 11.116.071 22.29-1.816 33.453 1.523 6.42 1.92 13.52 1.556 20.312 2.243.81.082 1.625.237 2.402.477 5.912 1.823 11.84 3.6 17.712 5.542 5.128 1.695 10.366 3.207 15.247 5.468 11.358 5.26 22.844 10.284 32.757 18.26 6.634 5.339 14.389 9.395 20.552 15.185 10.827 10.171 21.858 20.28 29.656 33.26 3.14 5.228 7.688 9.685 10.371 15.1 8.424 16.999 17.362 33.821 20.414 52.976 1.405 8.81 5.362 17.43 5.493 26.177.196 13.083 1.709 26.202-1.203 39.467-1.77 8.066-2.022 16.593-4.416 24.688-2.073 7.01-3.406 14.306-6.141 21.04-4.126 10.153-9.133 19.953-13.895 29.84-1.034 2.148-2.573 4.061-3.946 6.036-5.68 8.169-10.968 16.66-17.216 24.372-5.09 6.284-11.325 11.644-17.086 17.381a212 212 0 0 1-6.838 6.5c-.86.783-1.905 1.363-2.866 2.036.92 1.301 1.681 2.77 2.817 3.843.759.717 2.215.654 3.077 1.31 8.743 6.656 17.513 13.281 26.104 20.131 8.004 6.383 15.794 13.034 23.69 19.553 3.63 2.997 7.195 6.08 10.951 8.91 7.324 5.516 14.92 10.682 22.108 16.364 7.459 5.894 14.57 12.229 22.464 18.905 5.75-7.274 10.838-13.71 16.343-20.734M488.775 410.164c-10.148 13.037-22.542 23.71-36.214 33.026l35.293 27.52c3.242-2.383 6.556-4.245 9.153-6.828 10.43-10.373 21.59-20.096 29.252-32.975 3.278-5.51 7.733-10.367 10.643-16.04 6.7-13.06 12.623-26.333 16.818-40.65 3.326-11.352 5.771-22.904 6.783-34.258 1.376-15.447-.83-31.213-1.518-46.841-.021-.48-.238-.952-.375-1.424-1.861-6.41-3.611-12.857-5.617-19.222-2.29-7.268-4.259-14.712-7.369-21.629-3.606-8.019-7.927-15.784-12.62-23.23-5.388-8.547-10.81-17.262-17.508-24.75-9.69-10.835-19.753-21.49-32.532-29.03-6.889-4.063-13.244-9.104-20.338-12.728-8.93-4.56-18.276-8.363-27.629-12.016-4.859-1.898-10.094-2.875-15.205-4.074-3.75-.879-7.594-1.342-11.357-2.17-5.447-1.2-10.89-3.755-16.28-3.613-12.461.33-24.853-1.147-37.484 1.296-10.539 2.04-21.127 3.7-31.64 6.193-9.458 2.243-17.95 6.502-26.767 10.076-5.002 2.028-9.599 5.134-14.219 8.01-9.107 5.67-18.993 10.513-26.928 17.538-10.67 9.446-20.707 19.943-29.32 31.278-7.688 10.12-12.81 22.158-19.628 32.995-2.17 3.449-.225 4.627 1.597 5.984 3.59 2.672 7.671 4.702 11.176 7.47 7.906 6.246 15.644 12.71 23.324 19.236 2.487 2.112 3.524 3.026 4.96-1.169 6.715-19.614 17.641-36.836 31.758-51.893 13.717-14.63 30.29-25.528 48.865-32.826 14.409-5.66 29.53-9.277 45.277-8.423 8.094.438 16.18 1.144 24.245 1.96 11.854 1.198 23.012 4.933 33.897 9.637 12.126 5.24 23.066 12.248 33.434 20.468 11.48 9.102 20.19 20.428 28.307 32.315 8.42 12.33 14.896 25.688 18.452 40.225 2.297 9.393 4.707 18.945 5.253 28.53.58 10.182-.93 20.49-1.621 30.737-.774 11.461-4.699 22.114-9.682 32.216-4.823 9.779-10.827 18.976-16.636 29.08m-31.983 80.145c6.859-3.774 13.733-7.52 20.553-11.363.71-.4 1.387-1.325 1.529-2.106.091-.504-.72-1.326-1.305-1.772-4.741-3.615-9.575-7.109-14.282-10.766-6.257-4.862-12.362-9.922-18.706-14.665-.882-.66-3-.46-4.134.132-16.362 8.54-34.004 12.853-52.111 14.962-15.933 1.855-31.886-.136-47.26-4.29-9.5-2.568-18.51-7.177-27.485-11.41-22.588-10.652-39.672-27.474-52.671-48.546-7.521-12.191-13.459-25.145-16.254-39.305-2.036-10.315-5.023-20.667-5.254-31.054-.255-11.454 2.22-22.96 3.328-34.461.155-1.613-.168-3.888-1.204-4.888-3.49-3.37-7.316-6.416-11.172-9.379-7.93-6.091-16.075-11.906-23.903-18.122-3.712-2.948-5.796-3.024-7.352 1.383-1.743 4.936-2.899 10.094-4.087 15.207-.91 3.912-1.366 7.926-2.216 11.854-1.178 5.45-3.63 10.866-3.607 16.289.064 14.96 1.131 29.917 1.808 44.875.015.33.066.666.151.985 1.935 7.225 3.705 14.5 5.866 21.656 2.202 7.29 4.243 14.711 7.353 21.626 3.606 8.018 7.928 15.78 12.618 23.226 5.385 8.548 10.788 17.279 17.492 24.757 9.7 10.82 19.753 21.483 32.53 29.019 5.792 3.415 11.108 7.645 16.94 10.979 8.886 5.078 18.092 9.31 27.973 12.49 6.213 2 12.286 4.302 18.753 5.424 3.638.631 7.273 1.306 10.877 2.11 5.445 1.216 10.868 3.675 16.289 3.644 16.294-.091 32.59-1.017 48.87-1.896 3.29-.178 6.529-1.525 9.766-2.425 3.974-1.104 7.924-2.293 11.878-3.468 3.65-1.085 7.365-2.005 10.92-3.346 5.685-2.146 11.262-4.581 17.51-7.356m1248.139-116.815c-.015 3.83.003 7.662-.056 11.493-.037 2.457.806 3.576 3.541 3.45 4.31-.2 8.682-.331 12.948.18 4.96.594 5.785-1.57 5.75-5.915-.171-21.656-.381-43.32.064-64.967.2-9.751 4.07-18.224 12.904-23.71 10.768-6.688 26.925-2.544 29.365 9.923 1.32 6.751 2.787 13.596 2.95 20.428.419 17.644.323 35.308.097 52.96-.162 12.746-1.349 11.215 11.522 11.235 11.89.018 11.205 1.038 10.72-10.546-.041-.997.061-1.998.058-2.997-.046-17.322.197-34.65-.25-51.962-.325-12.621 4.139-22.743 14.817-29.124 12.71-7.595 26.415-1.586 29.372 12.607 1.838 8.825 1.97 18.082 2.141 27.16.314 16.653.18 33.317.02 49.975-.036 3.717 1.08 5.029 4.855 4.75 3.956-.294 7.974-.147 11.936.166 3.838.303 5.557-.96 5.385-4.995-1.171-27.544 2.387-55.213-2.072-82.665-1.311-8.075-4.292-15.767-10.522-21.164-11.681-10.119-30.081-12.424-43.682-3.495-6.11 4.012-11.396 9.276-17.41 14.265-.758-1.116-1.754-2.55-2.715-4.005-6.218-9.417-14.874-14.851-26.193-15.505-11.984-.693-21.875 3.715-29.692 12.873-1.2 1.407-2.884 2.402-5.133 4.228-.145-2.172-.292-2.82-.213-3.439 1.336-10.556.68-11.286-9.933-10.97-.5.015-1-.004-1.5.001-9.1.093-9.063.093-9.059 9.308.012 29.82-.006 59.64-.015 90.457m-765.116-60.038c-.92-3.484-1.906-6.953-2.747-10.457-2.112-8.794-4.002-17.646-6.393-26.362-.369-1.346-2.848-2.838-4.465-2.982-5.127-.456-10.317-.15-15.465-.443-3.384-.193-4.278 1.583-3.69 4.25.7 3.173 1.983 6.213 2.91 9.34 2.358 7.97 4.704 15.943 6.97 23.94 2.452 8.654 4.788 17.341 7.211 26.004 2.243 8.015 4.645 15.986 6.774 24.03 2.21 8.355 4.041 16.813 6.4 25.123.35 1.235 2.646 2.622 4.116 2.711 5.643.343 11.343.491 16.965.027 1.66-.136 3.815-2.239 4.542-3.95 1.33-3.132 1.63-6.685 2.601-9.99 3.044-10.349 6.433-20.602 9.253-31.01 3.084-11.379 5.647-22.9 8.56-34.327.243-.951 1.422-1.664 2.503-2.86 2.586 11.383 4.701 21.935 7.414 32.332 3.709 14.217 7.624 28.395 12.072 42.393.787 2.479-.185 7.344 4.832 7.44 5.66.11 11.332.286 16.974-.025 1.435-.08 3.57-1.622 4.023-2.954 2.21-6.505 3.954-13.168 5.873-19.772 1.858-6.392 3.766-12.77 5.584-19.174 2.183-7.688 4.303-15.393 6.433-23.096 2.22-8.027 4.316-16.09 6.656-24.082 2.242-7.66 4.823-15.224 6.963-22.911.229-.82-1.475-3.123-2.324-3.145-5.637-.15-11.3-.051-16.92.406-1.432.116-3.606 1.576-3.95 2.828-1.782 6.467-3.023 13.08-4.562 19.616-1.5 6.365-3.137 12.697-4.702 19.046-1.762 7.148-3.62 14.275-5.234 21.457-1.578 7.026-2.895 14.11-4.34 21.166-.23 1.125-.529 2.236-.796 3.354l-1.73-1.728c-1.694-6.431-3.381-12.864-5.08-19.294-2.176-8.237-4.303-16.487-6.558-24.702-2.415-8.795-4.805-17.601-7.47-26.322-4.385-14.342.798-16.226-18.258-15.97-5.69.077-6.69 3.114-7.656 6.928-2.288 9.026-4.21 18.144-6.487 27.173-3.165 12.551-6.487 25.063-9.809 37.574-1.226 4.62-2.644 9.189-3.975 13.78-2.032-2.202-3.088-4.221-3.607-6.37-3.076-12.733-6.028-25.495-9.411-38.992m213.246-39.679c-4.71-.278-6.708 1.857-6.124 6.597.247 2 .041 4.056.041 6.086-2.28-.978-3.115-2.435-4.333-3.42-3.444-2.786-6.693-6.221-10.656-7.873-8.744-3.644-17.671-5.414-27.478-2.555-8.334 2.43-15.675 5.972-21.441 12.2-7.78 8.405-12.12 18.917-13.743 29.959-1.852 12.608-2.06 25.434 1.32 38.07 4.81 17.992 14.313 31.21 33.196 36.724 14.268 4.167 31.215-.39 40.013-12.012.6-.792 1.536-1.33 3.213-2.74v58.109c5.885 0 11.207-.33 16.466.1 4.553.371 5.593-1.266 5.58-5.59-.136-49.49-.082-98.98-.108-148.47 0-1.729-.306-3.456-.46-5.09-5.3 0-9.95 0-15.486-.095m225.761 9.936c-8.048-9.474-19.181-11.7-30.657-12.538-11.536-.842-22.502 2.45-33.206 6.28-3.146 1.127-6.53 3.143-8.355 5.761-.945 1.355 1.343 4.906 2.056 7.496.349 1.271.215 2.7.684 3.91 1.312 3.387 2.6 5.61 7.226 3.088 9.701-5.291 20.263-7.639 31.449-6.699 10.255.862 18.257 10.22 17.471 20.123-.112 1.417-1.819 3.636-3.086 3.87a113.6 113.6 0 0 1-15.778 1.8c-10.662.453-20.546 3.364-30.039 8.138-13.76 6.92-22.648 28.286-17.175 42.652 4.29 11.26 11.324 19.351 24.082 22.089 15.61 3.35 28.678.032 39.655-11.547.94-.99 2.033-1.834 3.392-3.046 1.939 5.883.938 13.3 9.587 13.254 3.951-.02 8.17.477 11.701-.812 1.17-.427.584-5.704.772-8.765.072-1.162.09-2.33.088-3.495-.04-21.473.281-42.956-.304-64.414-.26-9.526-2.593-18.918-9.563-27.145M900.904 304.72c-.505-.85-1.15-1.648-1.494-2.559-8.346-22.085-26.72-30.357-46.568-30.87-6.087-.158-12.323 1.88-18.346 3.465-17.864 4.699-26.366 18.543-31.12 34.64-2.418 8.191-1.782 17.303-2.388 26.008-.691 9.937 1.65 19.34 6.223 28.036 4.844 9.21 11.046 17.032 20.782 22.16 9.716 5.118 19.73 5.71 30.15 5.436 8.48-.223 16.318-3.084 23.09-7.7 16.08-10.96 22.633-27.26 23.786-46.108.662-10.81-.27-21.448-4.115-32.508m-134.501-28.656c-20.212-9.879-37.64-5.262-53.366 11.605 0-4.206-.05-6.995.014-9.781.067-2.9-1.22-4.301-4.171-4.283-4.147.026-8.298.007-12.443-.12-3.692-.113-5.091 1.568-4.775 5.194.303 3.475.419 6.977.413 10.467-.052 31.467-.103 62.935-.301 94.401-.021 3.394.84 4.933 4.422 4.814 4.32-.144 8.687-.251 12.971.207 4.767.51 5.995-1.351 5.957-5.874-.182-21.652-.351-43.31.034-64.956.184-10.317 4.202-19.14 14.122-24.003 12.225-5.994 24.93-2.938 29.742 10.761 2.405 6.844 3.445 14.446 3.616 21.74.45 19.142.172 38.304-.033 57.456-.041 3.88.979 5.43 5.064 5.085 4.299-.363 8.66-.28 12.977-.047 3.369.182 4.473-1.27 4.416-4.384-.09-4.829.147-9.667-.052-14.49-.922-22.4 1.886-44.867-1.8-67.247-1.846-11.215-7.37-19.548-16.807-26.545m916.63 75.436c-.004-23.986-.088-47.973.06-71.958.027-4.297-1.415-6.168-5.732-5.988-4.488.188-9.025-.172-13.456.381-1.317.165-3.35 2.593-3.36 3.997-.118 14.483.329 28.972.17 43.453-.108 9.768-.675 19.55-1.504 29.284-1.133 13.318-14.307 21.545-26.82 20.291-8.517-.853-16.99-7.818-17.238-15.798-.79-25.426-1.184-50.867-1.43-76.305-.037-3.916-.754-5.58-4.875-5.289-4.14.293-8.42.755-12.44.034-4.988-.896-5.52 1.183-5.499 5.267.126 22.986-.055 45.975.152 68.96.048 5.381.795 10.835 1.9 16.113 3.095 14.775 14.155 25.357 29.027 26.89 13.638 1.407 26.43-.821 35.392-12.922.71-.96 1.809-1.632 3.148-2.809.77 3.668 1.664 6.66 1.963 9.71.298 3.047 1.724 3.958 4.567 3.837 3.824-.163 7.67-.261 11.484-.02 3.583.227 4.607-1.23 4.554-4.647-.163-10.491-.063-20.987-.063-32.481m-465.875 10.516c-3.91-7.021-4.51-14.606-4.189-22.463.286-6.986.064-13.992.064-20.99 0-13.328-.04-26.657.024-39.985.014-3-.302-5.274-4.184-5.173-5.765.15-11.537.039-17.555.039-.241 1.694-.584 2.98-.584 4.267 0 22.656-.11 45.313.164 67.966.08 6.699.64 13.522 2.073 20.048 3.258 14.843 13.968 22.77 27.997 24.994 12.951 2.052 25.435-.615 34.76-11.379 1.045-1.205 2.613-1.957 4.763-3.52.21 3.121.638 5.096.414 6.994-.534 4.51 1.537 6.033 5.739 5.856 3.491-.148 7.005-.183 10.49.03 3.554.217 4.704-1.298 4.6-4.71a1007 1007 0 0 1-.454-26.97c-.094-25.99-.172-51.98-.085-77.969.013-4.03-1.13-5.8-5.377-5.44-3.465.294-6.986.145-10.47-.043-4.506-.242-6.546 1.148-6.49 6.233.252 22.656.232 45.317-.015 67.973-.04 3.622-.935 7.71-2.792 10.757-8.842 14.504-27.525 17.614-38.893 3.485m248.303-91.02c-6.173 1.487-12.848 1.972-18.38 4.742-5.576 2.792-10.019 7.852-15.934 12.722 0-4.395-.071-7.353.019-10.306.1-3.31-1.064-4.854-4.695-4.574-3.803.294-7.661.144-11.477-.093-3.131-.194-4.074 1.173-4.07 4.086.05 35.476.065 70.952.004 106.428-.005 3.285 1.333 4.42 4.482 4.367 4.324-.073 8.673-.08 12.972.312 3.774.345 4.872-.929 4.837-4.699-.198-20.984-.23-41.97-.153-62.955.041-11.032 4.198-20.003 13.44-26.629 8.631-6.189 23.798-3.546 29.114 5.387 3.896 6.549 4.553 13.566 4.714 20.496.487 20.97.279 41.958.132 62.937-.027 3.976.794 5.887 5.248 5.42 3.955-.414 8.021-.46 11.972-.039 4.314.46 5.445-1.134 5.419-5.242-.147-23.317.122-46.637-.205-69.95-.085-6.056-1.058-12.326-2.903-18.087-5.163-16.123-17.42-23.096-34.536-24.322m85.733 59.504c.03-8.49.039-16.98.094-25.47.069-10.634.085-10.634 10.954-10.802 15.628-.242 15.909-.457 14.607-16.164-.122-1.474-2.256-3.86-3.603-3.968-5.612-.445-11.294-.429-16.922-.093-4.056.242-5.297-1.279-5.203-5.142.19-7.82.08-15.647.035-23.472-.008-1.39-.302-2.778-.448-4.025-6.307 1.446-12.07 2.612-17.741 4.13-2.995.803-4.272 2.849-4.105 6.32.349 7.243.106 14.514.106 22.223-3.09 0-5.38-.031-7.669.005-10.382.166-10.382.173-10.32 10.655.058 9.799.058 9.796 9.593 9.046.995-.079 2.005-.018 2.99-.154 4.105-.565 5.533 1.094 5.483 5.289-.193 16.313-.285 32.634.01 48.944.14 7.723.82 15.495 2.026 23.124 1.14 7.215 5.647 12.566 12.065 16.007 10.227 5.484 20.928 5.242 31.668 1.801 1.15-.368 2.248-2.308 2.508-3.682.327-1.726-.243-3.62-.41-5.442-.312-3.387.603-8.23-1.244-9.773-2.018-1.685-6.586-.35-10.042-.272-8.235.184-11.542-1.798-12.61-9.846-1.236-9.33-1.266-18.819-1.822-29.239"/><path fill="#050505" d="M624.361 545.407c-5.296 6.73-10.384 13.166-16.134 20.44-7.895-6.676-15.005-13.01-22.464-18.905-7.189-5.682-14.784-10.848-22.108-16.364-3.756-2.83-7.322-5.913-10.951-8.91-7.896-6.519-15.686-13.17-23.69-19.553-8.59-6.85-17.361-13.475-26.104-20.13-.862-.657-2.318-.594-3.077-1.311-1.136-1.073-1.897-2.542-2.817-3.843.96-.673 2.006-1.253 2.866-2.037 2.325-2.117 4.61-4.28 6.838-6.499 5.76-5.737 11.996-11.097 17.086-17.381 6.248-7.712 11.535-16.203 17.216-24.372 1.373-1.975 2.912-3.888 3.946-6.035 4.762-9.888 9.77-19.688 13.895-29.842 2.735-6.733 4.068-14.028 6.141-21.039 2.394-8.095 2.646-16.622 4.416-24.688 2.912-13.265 1.4-26.384 1.203-39.467-.13-8.747-4.088-17.367-5.493-26.177-3.052-19.155-11.99-35.977-20.414-52.977-2.683-5.414-7.23-9.871-10.37-15.099-7.799-12.98-18.83-23.089-29.657-33.26-6.163-5.79-13.918-9.846-20.552-15.185-9.913-7.976-21.4-13-32.757-18.26-4.88-2.26-10.12-3.773-15.247-5.468-5.873-1.942-11.8-3.72-17.712-5.542a12.4 12.4 0 0 0-2.402-.477c-6.792-.687-13.893-.324-20.312-2.243-11.164-3.339-22.337-1.452-33.453-1.523-6.755-.044-13.487 2.989-20.3 3.371-6.929.389-13.3 2.101-19.748 4.308-5.423 1.856-11.294 2.509-16.569 4.667-8.114 3.318-16.06 7.152-23.754 11.36-7.149 3.91-13.764 8.782-20.807 12.901-13.398 7.836-23.723 19.187-33.948 30.408-6.977 7.656-12.411 16.768-18.154 25.48-4.474 6.789-8.36 13.964-12.557 21.05-5.704-4.142-12.232-7.212-16.414-12.235-12.126-14.566-29.052-22.844-43.331-34.54-16.403-13.434-34.045-25.356-51.138-37.949-4.231-3.117-8.515-6.178-12.545-9.54-.726-.606-.95-3.001-.361-3.824 11.87-16.608 23.91-33.093 35.875-49.633 5.614-7.76 5.61-7.798 13.151-2.318 17.216 12.513 34.413 25.052 51.65 37.536 13.76 9.966 27.575 19.854 41.347 29.803 6.535 4.72 6.553 4.794 12.978-.621 19.465-16.404 40.594-30.242 64.198-39.83 9.47-3.846 19.71-5.773 29.548-8.742 24.913-7.518 50.524-6.102 75.999-5.737 7.007.1 14.01 2.086 20.97 3.438 6.45 1.253 12.991 2.341 19.222 4.343 12.112 3.893 24.532 7.342 35.938 12.82 27.964 13.426 52.395 32.014 72.555 55.617 16.723 19.58 30.283 41.34 39.032 65.739 3.692 10.296 7.255 20.739 9.602 31.396 3.778 17.16 5.373 34.675 4.608 52.277-.43 9.904-.91 19.89-2.568 29.635-1.694 9.952-4.14 19.913-7.548 29.405-4.82 13.426-10.68 26.49-16.415 39.568-1.751 3.993-4.511 7.553-6.89 11.26-1.295 2.017-1.33 2.982 1.102 4.616 8.858 5.952 17.375 12.41 26.026 18.67 8.397 6.075 16.807 12.131 25.2 18.213 10.541 7.638 21.14 15.205 31.482 23.106.861.659.654 4.08-.24 5.436-3.713 5.634-7.898 10.955-11.876 16.417-4.354 5.98-8.67 11.986-13.213 18.276"/><path fill="#050505" d="M488.937 409.84c5.647-9.779 11.65-18.976 16.474-28.755 4.983-10.102 8.908-20.755 9.682-32.216.691-10.247 2.202-20.555 1.621-30.737-.546-9.585-2.956-19.137-5.253-28.53-3.556-14.537-10.032-27.895-18.452-40.225-8.117-11.887-16.828-23.213-28.307-32.315-10.368-8.22-21.308-15.228-33.434-20.468-10.885-4.704-22.043-8.44-33.897-9.637-8.066-.816-16.151-1.522-24.245-1.96-15.746-.854-30.868 2.762-45.277 8.423-18.575 7.298-35.148 18.196-48.865 32.826-14.117 15.057-25.043 32.279-31.758 51.893-1.436 4.195-2.473 3.281-4.96 1.169-7.68-6.525-15.418-12.99-23.324-19.236-3.505-2.768-7.586-4.798-11.176-7.47-1.822-1.357-3.766-2.535-1.597-5.984 6.819-10.837 11.94-22.874 19.629-32.995 8.612-11.335 18.649-21.832 29.319-31.278 7.935-7.025 17.82-11.868 26.928-17.538 4.62-2.876 9.217-5.982 14.22-8.01 8.817-3.574 17.308-7.833 26.766-10.076 10.513-2.492 21.101-4.154 31.64-6.193 12.631-2.443 25.023-.966 37.485-1.296 5.389-.142 10.832 2.413 16.279 3.612 3.763.829 7.608 1.292 11.357 2.171 5.11 1.2 10.346 2.176 15.205 4.074 9.353 3.653 18.699 7.456 27.629 12.016 7.094 3.624 13.45 8.665 20.338 12.729 12.779 7.538 22.842 18.194 32.532 29.029 6.698 7.488 12.12 16.203 17.508 24.75 4.693 7.446 9.014 15.211 12.62 23.23 3.11 6.917 5.08 14.36 7.37 21.63 2.005 6.364 3.755 12.81 5.616 19.22.137.473.354.945.375 1.425.688 15.628 2.894 31.394 1.518 46.84-1.012 11.354-3.457 22.907-6.783 34.259-4.195 14.317-10.118 27.59-16.818 40.65-2.91 5.673-7.365 10.53-10.643 16.04-7.662 12.879-18.822 22.602-29.252 32.975-2.597 2.583-5.911 4.445-9.153 6.827l-35.293-27.52c13.672-9.315 26.066-19.988 36.376-33.35M456.48 490.54c-5.935 2.545-11.512 4.98-17.198 7.126-3.554 1.341-7.269 2.261-10.92 3.346-3.953 1.175-7.903 2.364-11.877 3.468-3.237.9-6.476 2.247-9.767 2.425-16.28.879-32.575 1.805-48.87 1.896-5.42.03-10.843-2.428-16.288-3.643-3.604-.805-7.239-1.48-10.877-2.111-6.467-1.122-12.54-3.423-18.753-5.423-9.881-3.18-19.087-7.413-27.972-12.491-5.833-3.334-11.15-7.564-16.94-10.98-12.778-7.535-22.832-18.198-32.531-29.018-6.704-7.478-12.107-16.209-17.492-24.757-4.69-7.446-9.012-15.208-12.618-23.226-3.11-6.915-5.151-14.335-7.353-21.626-2.161-7.157-3.931-14.431-5.866-21.656a4.7 4.7 0 0 1-.151-.985c-.677-14.958-1.744-29.914-1.808-44.875-.024-5.423 2.429-10.839 3.607-16.29.85-3.927 1.306-7.941 2.216-11.853 1.188-5.113 2.344-10.271 4.087-15.207 1.556-4.407 3.64-4.33 7.352-1.383 7.828 6.216 15.974 12.031 23.903 18.122 3.856 2.963 7.681 6.01 11.172 9.38 1.036 1 1.359 3.274 1.204 4.887-1.107 11.5-3.583 23.007-3.328 34.461.23 10.387 3.218 20.739 5.254 31.054 2.795 14.16 8.733 27.114 16.254 39.305 12.999 21.072 30.083 37.894 52.671 48.546 8.975 4.233 17.986 8.842 27.486 11.41 15.373 4.154 31.326 6.145 47.259 4.29 18.107-2.11 35.75-6.423 52.111-14.962 1.134-.591 3.252-.791 4.134-.132 6.344 4.743 12.449 9.803 18.706 14.665 4.707 3.657 9.541 7.151 14.282 10.766.585.446 1.396 1.268 1.305 1.772-.142.781-.818 1.706-1.53 2.106-6.819 3.843-13.693 7.59-20.864 11.594"/><path fill="#0a0a0a" d="M1704.933 372.996c.008-30.319.026-60.138.014-89.958-.004-9.215-.041-9.215 9.06-9.308.5-.005 1 .014 1.499-.001 10.613-.316 11.269.414 9.933 10.97-.079.62.068 1.267.213 3.439 2.249-1.826 3.932-2.82 5.133-4.228 7.817-9.158 17.708-13.566 29.692-12.873 11.319.654 19.975 6.088 26.193 15.505.961 1.456 1.957 2.889 2.715 4.005 6.014-4.989 11.3-10.253 17.41-14.265 13.601-8.93 32-6.624 43.682 3.495 6.23 5.397 9.21 13.089 10.522 21.164 4.459 27.452.9 55.12 2.072 82.665.172 4.036-1.547 5.298-5.385 4.995-3.962-.313-7.98-.46-11.936-.167-3.775.28-4.891-1.032-4.855-4.75.16-16.657.294-33.321-.02-49.975-.17-9.077-.303-18.334-2.141-27.159-2.957-14.193-16.662-20.202-29.372-12.607-10.678 6.381-15.142 16.503-14.816 29.124.446 17.311.203 34.64.25 51.962.002.999-.1 2-.059 2.997.485 11.584 1.17 10.564-10.72 10.546-12.871-.02-11.684 1.511-11.522-11.236.226-17.651.322-35.315-.098-52.96-.162-6.831-1.628-13.676-2.95-20.427-2.44-12.467-18.596-16.61-29.364-9.924-8.834 5.487-12.704 13.96-12.904 23.71-.445 21.648-.235 43.312-.063 64.968.034 4.345-.79 6.509-5.751 5.915-4.266-.511-8.639-.38-12.948-.18-2.735.126-3.578-.993-3.54-3.45.058-3.83.04-7.662.056-11.992"/><path fill="#0b0b0b" d="M940.01 313.83c3.19 13.124 6.14 25.886 9.217 38.619.52 2.149 1.575 4.168 3.607 6.37 1.33-4.591 2.749-9.16 3.975-13.78 3.322-12.511 6.644-25.023 9.81-37.574 2.276-9.029 4.198-18.147 6.486-27.173.967-3.814 1.966-6.85 7.656-6.927 19.056-.257 13.873 1.627 18.257 15.97 2.666 8.72 5.056 17.526 7.47 26.32 2.256 8.216 4.383 16.466 6.559 24.703 1.699 6.43 3.386 12.863 5.08 19.294l1.73 1.728c.267-1.118.566-2.229.797-3.354 1.444-7.056 2.761-14.14 4.339-21.166 1.613-7.182 3.472-14.309 5.234-21.457 1.565-6.35 3.203-12.681 4.702-19.046 1.539-6.536 2.78-13.15 4.561-19.616.345-1.252 2.52-2.712 3.95-2.828 5.62-.457 11.284-.556 16.921-.406.85.022 2.553 2.325 2.324 3.145-2.14 7.687-4.721 15.25-6.963 22.911-2.34 7.992-4.437 16.055-6.656 24.082-2.13 7.703-4.25 15.408-6.433 23.096-1.818 6.404-3.726 12.782-5.584 19.174-1.92 6.604-3.663 13.267-5.873 19.772-.453 1.332-2.588 2.875-4.023 2.954-5.642.31-11.315.134-16.974.026-5.017-.097-4.045-4.962-4.832-7.441-4.448-13.998-8.363-28.176-12.072-42.393-2.713-10.397-4.828-20.95-7.414-32.333-1.081 1.197-2.26 1.91-2.503 2.861-2.913 11.428-5.476 22.948-8.56 34.328-2.82 10.407-6.209 20.66-9.253 31.009-.972 3.305-1.27 6.858-2.6 9.99-.728 1.711-2.884 3.814-4.543 3.95-5.622.464-11.322.316-16.965-.027-1.47-.09-3.765-1.476-4.116-2.711-2.359-8.31-4.19-16.768-6.4-25.122-2.129-8.045-4.531-16.016-6.774-24.031-2.423-8.663-4.76-17.35-7.211-26.005-2.266-7.996-4.612-15.969-6.97-23.938-.927-3.128-2.21-6.168-2.91-9.34-.588-2.668.306-4.444 3.69-4.251 5.148.293 10.338-.013 15.465.443 1.617.144 4.096 1.636 4.465 2.982 2.391 8.716 4.281 17.568 6.393 26.362.84 3.504 1.827 6.973 2.942 10.83"/><path fill="#090909" d="M1153.505 273.825c5.093.048 9.743.048 15.042.048.155 1.634.46 3.361.461 5.09.026 49.49-.028 98.98.109 148.47.012 4.324-1.028 5.961-5.58 5.59-5.26-.43-10.582-.1-16.467-.1v-58.11c-1.677 1.41-2.613 1.949-3.213 2.74-8.798 11.623-25.745 16.18-40.013 12.013-18.883-5.514-28.385-18.732-33.197-36.725-3.378-12.635-3.17-25.461-1.319-38.07 1.623-11.04 5.963-21.553 13.743-29.957 5.766-6.229 13.107-9.771 21.44-12.201 9.808-2.86 18.735-1.089 27.48 2.555 3.962 1.652 7.21 5.087 10.655 7.873 1.218.985 2.053 2.442 4.333 3.42 0-2.03.206-4.086-.04-6.086-.585-4.74 1.413-6.875 6.566-6.55m-6.522 46.023c-1.923-5.726-3.115-11.84-5.91-17.104-7.606-14.324-28.828-16.105-38.655-4.537-5.11 6.015-8.354 12.231-9.825 19.837-3.276 16.94-2.007 32.685 10.217 46.209 6.313 6.983 17.12 8.337 24.72 6.023 12.498-3.806 19.529-16.303 19.459-29-.038-6.832-.005-13.664-.006-21.428"/><path fill="#0b0b0b" d="M1379.038 284.002c6.755 7.939 9.088 17.331 9.348 26.857.585 21.458.263 42.941.304 64.414a55 55 0 0 1-.088 3.495c-.188 3.061.398 8.338-.772 8.765-3.531 1.29-7.75.791-11.701.812-8.65.046-7.648-7.371-9.587-13.254-1.359 1.212-2.453 2.055-3.392 3.046-10.977 11.579-24.045 14.896-39.655 11.547-12.758-2.738-19.793-10.83-24.082-22.089-5.473-14.366 3.416-35.733 17.175-42.652 9.493-4.774 19.377-7.685 30.039-8.137a113.6 113.6 0 0 0 15.778-1.8c1.267-.235 2.974-2.454 3.086-3.871.786-9.903-7.216-19.26-17.471-20.123-11.186-.94-21.748 1.408-31.45 6.7-4.625 2.522-5.913.298-7.225-3.09-.469-1.208-.335-2.638-.684-3.909-.713-2.59-3-6.141-2.056-7.496 1.825-2.618 5.21-4.634 8.355-5.76 10.704-3.83 21.67-7.123 33.206-6.28 11.476.838 22.609 3.063 30.872 12.825m-56.852 64.954c-3.205 8.342-.268 16.1 5.726 20.16 7.925 5.366 15.882 4.271 23.909.756 5.52-2.418 10.132-5.66 12.318-11.946 2.624-7.546 3.158-15.215 2.6-22.972-.092-1.264-3.278-3.455-4.807-3.277-9.099 1.063-18.382 1.586-26.886 5.529-5.228 2.424-10.528 4.876-12.86 11.75"/><path fill="#0a0a0a" d="M900.95 305.118c3.8 10.662 4.73 21.3 4.07 32.11-1.154 18.848-7.707 35.147-23.788 46.108-6.77 4.616-14.608 7.477-23.088 7.7-10.421.275-20.435-.318-30.15-5.436-9.737-5.128-15.94-12.95-20.783-22.16-4.573-8.696-6.914-18.099-6.223-28.036.606-8.705-.03-17.817 2.389-26.008 4.753-16.097 13.255-29.941 31.119-34.64 6.023-1.585 12.259-3.623 18.346-3.465 19.848.513 38.222 8.785 46.568 30.87.344.911.99 1.708 1.54 2.957m-19.007 19.43c-1.67-6.131-2.666-12.55-5.135-18.34-7.53-17.664-30.637-20.5-42.515-7.893-5.413 5.746-7.892 12.525-9.673 20.016-3.761 15.825-1.421 30.354 7.83 43.733 7.471 10.802 28.16 12.181 36.885 3.64 4.795-4.692 8.707-9.552 10.265-16.43 1.794-7.92 4.204-15.638 2.343-24.727"/><path fill="#0b0b0b" d="M766.698 276.28c9.142 6.78 14.666 15.114 16.513 26.33 3.685 22.38.877 44.845 1.8 67.246.198 4.823-.038 9.661.05 14.49.058 3.114-1.046 4.566-4.415 4.384-4.316-.234-8.678-.316-12.977.047-4.085.346-5.105-1.205-5.064-5.085.205-19.152.482-38.314.033-57.456-.171-7.294-1.211-14.896-3.616-21.74-4.812-13.699-17.517-16.755-29.742-10.761-9.92 4.863-13.938 13.686-14.122 24.003-.385 21.646-.216 43.304-.034 64.956.038 4.523-1.19 6.384-5.957 5.874-4.284-.458-8.65-.35-12.97-.207-3.583.119-4.444-1.42-4.423-4.814.198-31.466.249-62.934.301-94.401.006-3.49-.11-6.992-.413-10.467-.316-3.626 1.083-5.307 4.775-5.194 4.145.127 8.296.146 12.443.12 2.951-.018 4.238 1.383 4.171 4.283-.064 2.786-.014 5.575-.014 9.78 15.726-16.866 33.154-21.483 53.66-11.389"/><path fill="#090909" d="M1683.032 352c.001 10.994-.099 21.49.064 31.981.053 3.418-.971 4.874-4.554 4.647-3.813-.241-7.66-.143-11.484.02-2.843.121-4.269-.79-4.567-3.836-.299-3.05-1.193-6.043-1.963-9.71-1.34 1.176-2.437 1.848-3.148 2.808-8.962 12.1-21.754 14.329-35.392 12.923-14.872-1.534-25.932-12.116-29.026-26.89-1.106-5.279-1.853-10.733-1.901-16.114-.207-22.985-.026-45.974-.152-68.96-.022-4.084.51-6.163 5.499-5.267 4.02.721 8.3.26 12.44-.034 4.12-.292 4.838 1.373 4.876 5.29.245 25.437.638 50.878 1.429 76.304.248 7.98 8.721 14.945 17.239 15.798 12.512 1.254 25.686-6.973 26.82-20.29.828-9.736 1.395-19.517 1.502-29.285.16-14.481-.287-28.97-.17-43.453.012-1.404 2.044-3.832 3.36-3.997 4.432-.553 8.969-.193 13.457-.38 4.317-.181 5.76 1.69 5.733 5.987-.15 23.985-.065 47.972-.062 72.458M1217.337 362.35c11.189 13.795 29.872 10.685 38.714-3.82 1.857-3.045 2.753-7.134 2.792-10.756.247-22.656.267-45.317.016-67.973-.057-5.085 1.983-6.475 6.49-6.233 3.483.188 7.004.337 10.469.044 4.247-.36 5.39 1.41 5.377 5.44-.087 25.989-.01 51.979.085 77.969.033 8.99.18 17.982.454 26.968.104 3.413-1.046 4.928-4.6 4.71-3.485-.212-6.999-.177-10.49-.03-4.202.178-6.273-1.346-5.74-5.855.225-1.898-.202-3.873-.413-6.993-2.15 1.562-3.718 2.314-4.762 3.52-9.326 10.763-21.81 13.43-34.76 11.378-14.03-2.224-24.74-10.151-27.998-24.994-1.433-6.526-1.992-13.35-2.073-20.048-.274-22.653-.165-45.31-.164-67.966 0-1.286.343-2.573.584-4.267 6.018 0 11.79.11 17.555-.04 3.882-.1 4.198 2.174 4.184 5.174-.064 13.328-.025 26.657-.024 39.985 0 6.998.222 14.004-.064 20.99-.32 7.857.278 15.442 4.368 22.797M1465.923 271c16.653 1.223 28.91 8.196 34.074 24.319 1.845 5.761 2.818 12.03 2.903 18.087.327 23.313.058 46.633.205 69.95.026 4.108-1.105 5.702-5.42 5.242-3.95-.42-8.016-.375-11.97.04-4.455.466-5.276-1.445-5.249-5.421.147-20.98.355-41.967-.132-62.937-.161-6.93-.818-13.947-4.714-20.496-5.316-8.933-20.483-11.576-29.115-5.387-9.241 6.626-13.398 15.597-13.439 26.63-.078 20.984-.045 41.97.153 62.954.035 3.77-1.063 5.044-4.837 4.7-4.299-.393-8.648-.386-12.972-.313-3.15.053-4.487-1.082-4.482-4.367.06-35.476.046-70.952-.004-106.428-.004-2.913.939-4.28 4.07-4.086 3.816.237 7.674.387 11.477.093 3.631-.28 4.796 1.265 4.695 4.574-.09 2.953-.019 5.911-.019 10.306 5.915-4.87 10.358-9.93 15.935-12.722 5.531-2.77 12.206-3.255 18.841-4.738"/><path fill="#0a0a0a" d="M1551.195 331.002c.555 9.92.585 19.409 1.822 28.738 1.067 8.048 4.374 10.03 12.609 9.846 3.456-.077 8.024-1.413 10.042.272 1.847 1.542.932 6.386 1.244 9.773.167 1.823.737 3.716.41 5.442-.26 1.374-1.358 3.314-2.508 3.682-10.74 3.44-21.44 3.683-31.668-1.8-6.418-3.442-10.924-8.793-12.065-16.008a168 168 0 0 1-2.025-23.124c-.296-16.31-.204-32.63-.01-48.944.049-4.195-1.38-5.854-5.484-5.289-.985.136-1.995.075-2.99.154-9.535.75-9.535.753-9.593-9.046-.062-10.482-.062-10.489 10.32-10.655 2.289-.036 4.578-.005 7.669-.005 0-7.71.243-14.98-.106-22.223-.167-3.471 1.11-5.517 4.105-6.32 5.67-1.518 11.434-2.684 17.741-4.13.146 1.247.44 2.635.448 4.025.045 7.825.155 15.652-.035 23.472-.094 3.863 1.147 5.384 5.203 5.142 5.628-.336 11.31-.352 16.922.093 1.347.107 3.481 2.494 3.603 3.968 1.302 15.707 1.02 15.922-14.607 16.164-10.869.168-10.885.168-10.954 10.801-.055 8.49-.064 16.981-.093 25.972"/><path fill="#656267" d="M1874.959 193.851c4.518-2.482 6.326-1.642 6.398 3.017.049 3.152.275 6.335-.082 9.447-.201 1.756-1.422 3.395-2.184 5.086l-5.078-3.389.63-1.093h-7.363c-.103.524.012 1.636-.462 2.018-1.222.986-2.643 1.973-4.119 2.256-.48.092-1.886-1.947-1.987-3.09-.276-3.127.074-6.308-.158-9.443-.088-1.199-1.083-2.33-2.113-3.907-.446-.856-.444-1.296-.442-1.736 2.968.05 5.936.102 8.526.522-1.61.607-3.902.799-3.914 1.088-.218 5.093-.158 10.197-.158 16.4 5.059-3.876-.717-10.405 5.404-12.656l-.74-4.388 4.427 6.18c.996-2.186 1.856-4.076 3.1-5.675 1.359 5.368 2.332 10.445 3.305 15.521l1.521-.015c1.041-5.172.376-10.455.375-16.143z"/><path fill="#35333b" d="M1857.543 192.92c.454.537.452.977.455 1.748-2.708.416-4.346 1.353-3.927 4.534.378 2.865.406 5.776.588 8.42v-9.87l-1.723.094v12.838c-.727.146-1.454.292-2.583-.136-.446-4.225-.311-7.893-.624-11.522-.116-1.333-1.292-2.573-1.984-3.856-1.001-.002-2.003-.005-3.337-.432-.347-.834-.362-1.243-.377-1.652 4.352-.087 8.704-.174 13.512-.165"/><path fill="#656267" d="M1847.927 195.596c.51.857 1.686 2.097 1.802 3.43.313 3.629.178 7.297.263 11.406-.497-.874-1.391-2.174-1.507-3.54-.306-3.608-.274-7.244-.558-11.296M1853.61 210c-.674-3.595-.674-7.874-.674-12.154l1.724-.095c0 3.208 0 6.416-.003 9.654-.126.658-.25 1.285-1.048 2.596M1843.773 193.042c.273.453.288.862.279 1.576-.195-.336-.367-.978-.28-1.576"/><path fill="#fafafa" d="M1146.985 320.314c0 7.298-.034 14.13.004 20.961.07 12.698-6.96 25.195-19.46 29.001-7.598 2.314-18.406.96-24.719-6.023-12.224-13.524-13.493-29.269-10.217-46.21 1.47-7.605 4.715-13.821 9.825-19.836 9.827-11.568 31.049-9.787 38.655 4.537 2.795 5.263 3.987 11.378 5.912 17.57"/><path fill="#f6f6f6" d="M1322.403 348.622c2.115-6.54 7.415-8.992 12.643-11.416 8.504-3.943 17.787-4.466 26.886-5.529 1.53-.178 4.715 2.013 4.807 3.277.558 7.757.024 15.426-2.6 22.972-2.186 6.286-6.798 9.528-12.318 11.946-8.027 3.515-15.984 4.61-23.909-.756-5.994-4.06-8.931-11.818-5.509-20.494"/><path fill="#fafafa" d="M881.893 324.983c1.911 8.653-.5 16.37-2.293 24.29-1.558 6.88-5.47 11.739-10.265 16.432-8.726 8.54-29.414 7.161-36.884-3.641-9.252-13.379-11.592-27.908-7.83-43.733 1.78-7.491 4.259-14.27 9.672-20.016 11.878-12.607 34.985-9.77 42.515 7.893 2.469 5.79 3.465 12.209 5.085 18.775"/><path fill="#231317" d="M1867.097 193.951c.287 1.62.555 3.207.76 4.42-6.121 2.25-.345 8.78-5.404 12.656 0-6.203-.06-11.307.158-16.4.012-.29 2.304-.48 3.978-.74.442-.023.49.033.508.064"/><path fill="#070824" d="M1874.938 193.88c1.481-.029 2.942-.029 4.907-.029 0 5.688.666 10.971-.375 16.143l-1.52.015c-.974-5.076-1.947-10.153-2.994-15.635-.073-.406-.038-.466-.018-.494"/></svg>