<svg version="1.1" id="Layer_1" xmlns="http://www.w3.org/2000/svg" xmlns:xlink="http://www.w3.org/1999/xlink" x="0px" y="0px"
	 width="100%" viewBox="0 0 1608 1340" enable-background="new 0 0 1608 1340" xml:space="preserve">
<path fill="#FFFFFF" opacity="1.000000" stroke="none" 
	d="
M884.000000,1341.000000 
	C589.753052,1341.000000 295.506134,1341.000000 1.000000,1341.000000 
	C1.000000,1167.970703 1.000000,994.941284 1.468657,821.455933 
	C181.535248,821.000000 361.133179,821.000000 541.130127,821.000000 
	C541.130127,787.070618 541.130127,753.663208 541.130127,719.860962 
	C545.935181,719.860962 550.353882,719.860962 554.726501,719.860962 
	C554.726501,713.052124 554.726501,706.646729 554.726501,700.277466 
	C537.712646,700.277466 520.973816,700.277466 504.281189,700.277466 
	C504.281189,706.964783 504.281189,713.371399 504.281189,720.171204 
	C509.302521,720.171204 514.052856,720.171204 518.710815,720.171204 
	C518.710815,746.643921 518.710815,772.715698 518.710815,799.000000 
	C345.947815,799.000000 173.473907,799.000000 1.000000,799.000000 
	C1.000000,533.034302 1.000000,267.068573 1.000000,1.051441 
	C536.896606,1.051441 1072.793213,1.051441 1609.000000,1.051441 
	C1609.000000,266.695953 1609.000000,532.392029 1608.531372,798.544067 
	C1477.233643,799.000000 1346.404541,799.000000 1215.575439,799.000000 
	C1178.743408,799.000000 1141.910767,798.903564 1105.080200,799.132874 
	C1100.891846,799.158936 1099.508423,797.650757 1098.472168,794.081116 
	C1094.806030,781.451721 1090.829834,768.912537 1087.134155,756.291443 
	C1086.473511,754.035156 1085.824341,751.307922 1086.491333,749.220459 
	C1088.288574,743.596191 1090.807129,738.203064 1093.025757,732.712708 
	C1097.379883,721.937866 1101.724854,711.159363 1106.228027,700.000000 
	C1098.649536,700.000000 1091.654419,700.126831 1084.667847,699.937195 
	C1081.896606,699.862000 1080.790527,700.815308 1079.920898,703.452148 
	C1075.274780,717.537903 1070.373169,731.539368 1065.560059,745.569946 
	C1065.362549,745.544067 1065.165039,745.518127 1064.967529,745.492249 
	C1064.967529,730.460510 1064.967529,715.428711 1064.967529,700.201294 
	C1057.537598,700.201294 1050.466064,700.201294 1043.202515,700.201294 
	C1043.202515,740.469971 1043.202515,780.540771 1043.202515,820.793335 
	C1050.477051,820.793335 1057.548706,820.793335 1064.653931,820.793335 
	C1066.494873,806.518372 1061.768921,791.686646 1069.595581,777.411316 
	C1073.221436,790.521790 1076.681396,802.818115 1080.000488,815.152344 
	C1081.140747,819.390015 1083.036743,821.157349 1088.018311,821.152100 
	C1261.678833,820.969727 1435.339355,821.000000 1609.000000,821.000000 
	C1609.000000,994.274963 1609.000000,1167.549927 1609.000000,1341.000000 
	C1374.637329,1341.000000 1140.274536,1341.000000 905.634033,1340.612305 
	C924.358582,1339.458252 941.618286,1332.447632 958.631348,1325.912720 
	C958.631348,1261.579224 958.631348,1197.859375 958.631348,1134.215820 
	C929.323425,1134.215820 900.384705,1134.215820 871.243164,1134.215820 
	C871.243164,1153.157227 871.243164,1171.882324 871.243164,1191.076904 
	C881.211365,1191.076904 890.946228,1191.076904 900.708801,1191.076904 
	C900.708801,1221.608643 900.708801,1251.669922 900.708801,1282.730225 
	C895.344910,1281.801270 890.352722,1281.234619 885.514038,1280.043945 
	C869.749146,1276.164429 862.011902,1264.033936 856.037292,1250.422852 
	C847.937500,1231.970215 844.627319,1212.222168 844.306702,1192.420288 
	C843.867004,1165.265869 842.319153,1138.018921 845.921204,1110.884766 
	C848.050171,1094.847412 851.163330,1079.172241 859.056396,1064.861450 
	C864.702698,1054.624146 872.241333,1045.913086 883.081421,1041.134644 
	C898.722107,1034.240112 914.202148,1036.701538 929.223999,1043.685547 
	C935.446289,1046.578491 941.545166,1049.737183 948.000000,1052.922974 
	C948.000000,1034.130981 948.000000,1015.647522 948.000000,997.164062 
	C948.000000,986.497498 947.999939,986.497620 938.116333,982.580322 
	C937.663391,982.400879 937.228149,982.159241 936.761169,982.034973 
	C921.414612,977.950073 906.087830,975.224426 889.919495,976.748047 
	C875.904053,978.068787 862.533752,981.137451 850.247681,987.516174 
	C829.310669,998.386475 814.080261,1015.283813 803.020874,1035.971680 
	C785.862793,1068.067505 780.689148,1103.066406 779.172058,1138.728394 
	C778.489441,1154.774658 779.260681,1170.921753 780.127441,1186.982422 
	C780.823364,1199.877808 782.439819,1212.738892 784.038391,1225.566528 
	C786.381165,1244.365234 792.169739,1262.273438 800.221252,1279.294678 
	C807.080200,1293.794678 816.472351,1306.638550 828.720093,1317.362427 
	C839.464294,1326.770020 851.584534,1333.292114 865.269104,1336.950928 
	C871.432922,1338.599121 877.751587,1339.668213 884.000000,1341.000000 
M623.109863,198.876205 
	C583.754578,198.876205 544.399292,198.876205 504.164764,198.876205 
	C507.788086,203.944016 510.775574,208.104645 513.744873,212.278259 
	C564.550049,283.691223 615.332703,355.120270 666.166809,426.512695 
	C685.884094,454.204102 705.700378,481.825134 725.500549,509.457458 
	C750.312805,544.084595 775.139648,578.701477 799.997314,613.296021 
	C804.914734,620.139648 804.917969,620.030884 809.826782,613.133728 
	C833.355591,580.074158 856.907288,547.030884 880.489685,514.009521 
	C921.322937,456.832428 962.175232,399.668976 1003.038086,342.513062 
	C1031.016724,303.378723 1059.033691,264.271790 1087.016968,225.140808 
	C1093.115234,216.613342 1099.142944,208.035461 1105.613892,198.901093 
	C1065.143311,198.901093 1025.523926,198.901093 985.706787,198.042099 
	C984.772644,187.844086 984.671875,177.487015 982.761047,167.475403 
	C974.218628,122.718216 952.630188,85.582214 916.669067,57.158756 
	C883.960510,31.306103 846.474731,18.998438 805.061462,18.255348 
	C797.511047,18.119869 789.939026,19.414282 782.371338,19.971611 
	C763.944702,21.328659 746.477051,26.632650 729.857117,34.211674 
	C707.626160,44.349438 688.157166,58.461384 671.623535,76.751625 
	C657.557373,92.312302 646.257812,109.463387 638.146057,128.718277 
	C628.685120,151.175613 624.041199,174.652206 623.109863,198.876205 
M1560.000000,1192.500000 
	C1560.000000,1121.412354 1560.000000,1050.324585 1560.000000,979.000366 
	C1539.548706,979.000366 1519.736206,978.937683 1499.926392,979.141907 
	C1498.612183,979.155457 1496.593994,980.951843 1496.122803,982.334534 
	C1485.638550,1013.102051 1475.330322,1043.929565 1464.978882,1074.742188 
	C1461.278687,1085.756104 1457.552612,1096.761230 1453.697876,1108.186646 
	C1450.988770,1100.458496 1448.389160,1093.335449 1445.989014,1086.145874 
	C1434.568481,1051.936646 1423.160278,1017.723206 1411.879517,983.467834 
	C1410.702393,979.893188 1408.920776,978.805847 1405.162842,978.894714 
	C1393.170776,979.178406 1381.167603,979.000000 1369.168823,979.000000 
	C1361.893311,979.000000 1354.617676,979.000000 1347.284912,979.000000 
	C1347.284912,1098.916260 1347.284912,1218.303589 1347.284912,1337.684082 
	C1367.633057,1337.684082 1387.694580,1337.684082 1407.995850,1337.684082 
	C1407.995850,1267.119507 1407.995850,1196.870361 1407.995850,1126.621216 
	C1409.058105,1127.936279 1409.537964,1129.403687 1410.029541,1130.867065 
	C1423.779297,1171.796875 1437.522095,1212.729004 1451.321411,1253.641968 
	C1451.731323,1254.857056 1452.739502,1255.870361 1453.468750,1256.977661 
	C1454.317017,1255.758301 1455.507935,1254.654053 1455.962280,1253.302246 
	C1462.711914,1233.220093 1469.314087,1213.088257 1476.052856,1193.002197 
	C1483.384521,1171.148438 1490.821777,1149.330078 1498.213013,1127.496216 
	C1498.508057,1127.547363 1498.803223,1127.598511 1499.098267,1127.649658 
	C1499.098267,1197.651123 1499.098267,1267.652710 1499.098267,1337.703369 
	C1519.593872,1337.703369 1539.655151,1337.703369 1560.000000,1337.703369 
	C1560.000000,1289.438232 1560.000000,1241.469116 1560.000000,1192.500000 
M50.000000,1031.500000 
	C50.000000,1133.566650 50.000000,1235.633423 50.000000,1338.000000 
	C56.878258,1338.000000 63.186802,1338.151855 69.485970,1337.973267 
	C93.926430,1337.279785 118.518570,1340.180664 142.771622,1334.992065 
	C162.223938,1330.830566 180.438538,1323.668701 195.696075,1310.664062 
	C216.719986,1292.744629 226.152145,1269.125488 226.856873,1241.962036 
	C227.094345,1232.808350 226.356064,1223.495361 224.837601,1214.461426 
	C222.566940,1200.952271 216.671143,1188.981934 207.299835,1178.682861 
	C197.361130,1167.760254 184.964188,1160.559570 171.532852,1153.886230 
	C173.349228,1152.908325 174.726898,1152.147827 176.121017,1151.418823 
	C196.254166,1140.889648 210.394196,1125.176270 217.217392,1103.336792 
	C222.429657,1086.653442 222.873871,1069.712769 220.109650,1052.447876 
	C216.512299,1029.979370 204.970047,1012.888367 186.660034,999.946655 
	C165.490341,984.983765 141.049683,980.504517 116.044739,979.212585 
	C95.772194,978.165161 75.402390,978.995239 55.075733,979.009216 
	C53.471092,979.010315 51.866547,979.141479 50.000000,979.223694 
	C50.000000,996.562256 50.000000,1013.531128 50.000000,1031.500000 
M1209.496582,1338.000000 
	C1214.591187,1338.000000 1219.685791,1338.000000 1224.645630,1338.000000 
	C1224.645630,1317.622681 1224.645630,1297.893677 1224.645630,1277.700317 
	C1199.228882,1277.700317 1174.164307,1277.700317 1149.238281,1277.700317 
	C1149.238281,1247.620117 1149.238281,1218.010376 1149.238281,1187.932129 
	C1171.202759,1187.932129 1192.934692,1187.932129 1214.699707,1187.932129 
	C1214.699707,1167.398926 1214.699707,1147.337524 1214.699707,1126.808228 
	C1192.671509,1126.808228 1170.939453,1126.808228 1149.361328,1126.808228 
	C1149.361328,1097.275269 1149.361328,1068.214111 1149.361328,1038.863281 
	C1174.332397,1038.863281 1198.943359,1038.863281 1223.753662,1038.863281 
	C1223.753662,1018.841736 1223.753662,999.114014 1223.753662,979.274658 
	C1177.781006,979.274658 1132.055176,979.274658 1086.295166,979.274658 
	C1086.295166,1098.936890 1086.295166,1218.324341 1086.295166,1338.000000 
	C1127.225952,1338.000000 1167.862061,1338.000000 1209.496582,1338.000000 
M539.000000,1201.500000 
	C539.000000,1246.922363 539.000000,1292.344727 539.000000,1337.648193 
	C582.371704,1337.648193 625.099426,1337.648193 667.616272,1337.648193 
	C667.616272,1317.564331 667.616272,1297.834229 667.616272,1277.817139 
	C645.621521,1277.817139 624.009521,1277.817139 601.935974,1277.817139 
	C601.935974,1178.131714 601.935974,1078.739624 601.935974,979.296753 
	C580.740295,979.296753 560.011841,979.296753 539.000000,979.296753 
	C539.000000,1053.228760 539.000000,1126.864380 539.000000,1201.500000 
M346.000000,1302.500000 
	C346.000000,1314.256958 346.000000,1326.013794 346.000000,1337.657471 
	C367.363556,1337.657471 388.087128,1337.657471 408.680908,1337.657471 
	C408.680908,1217.956543 408.680908,1098.598267 408.680908,979.342468 
	C387.636505,979.342468 366.912933,979.342468 346.000000,979.342468 
	C346.000000,1086.956543 346.000000,1194.228271 346.000000,1302.500000 
M728.067627,819.976685 
	C729.866455,819.317383 731.649963,818.612427 733.466370,818.005920 
	C754.829651,810.873169 760.042053,789.929016 751.762146,771.580994 
	C749.306885,766.140076 743.363892,762.273071 739.211792,757.888367 
	C749.717224,752.058472 754.612732,742.159485 754.069397,729.022522 
	C753.588074,717.383118 746.604248,707.299744 735.160156,702.917786 
	C722.353943,698.014160 709.230652,700.861694 696.274353,699.919922 
	C696.274353,740.627441 696.274353,780.692017 696.274353,821.457275 
	C706.781860,820.961548 716.988525,820.479980 728.067627,819.976685 
M593.000000,749.500000 
	C593.333313,764.744873 592.675842,780.091125 594.221985,795.211975 
	C596.829163,820.709412 619.137268,827.684143 638.807495,818.837830 
	C650.304382,813.667358 653.612000,802.258240 653.822510,790.838074 
	C654.356689,761.849487 654.003723,732.844421 653.987183,703.845947 
	C653.986450,702.588440 653.798035,701.331055 653.719055,700.347412 
	C646.233948,700.347412 639.157471,700.347412 632.000000,700.347412 
	C632.000000,730.187439 632.056641,759.680481 631.912659,789.172546 
	C631.898193,792.135315 631.171326,795.332947 629.895325,798.000854 
	C627.361694,803.298157 620.884766,803.575684 618.030029,798.439392 
	C616.387207,795.483521 615.155518,791.853455 615.128235,788.515503 
	C614.901794,760.852112 615.000000,733.186157 615.000000,705.520935 
	C615.000000,703.754272 615.000000,701.987671 615.000000,700.285461 
	C607.360352,700.285461 600.287598,700.285461 593.000000,700.285461 
	C593.000000,716.546570 593.000000,732.523315 593.000000,749.500000 
M1006.999878,817.661987 
	C999.535950,778.193970 992.072021,738.725891 984.598022,699.204468 
	C976.743347,699.204468 968.968994,699.204468 961.227539,699.204468 
	C953.535583,739.827698 945.882019,780.247986 938.197388,820.832275 
	C945.324829,820.832275 952.440918,820.832275 959.698975,820.832275 
	C960.932678,812.928589 962.148987,805.136597 963.387878,797.199890 
	C969.490234,797.199890 975.582275,797.199890 981.605713,797.199890 
	C982.886047,805.192261 984.133606,812.979797 985.418335,820.999390 
	C991.831848,820.999390 998.142090,821.092590 1004.442871,820.891846 
	C1005.318787,820.863892 1006.148499,819.386963 1006.999878,817.661987 
M855.057800,700.731445 
	C855.057800,707.020691 855.057800,713.309937 855.057800,719.990723 
	C859.781311,719.990723 864.199341,719.990723 868.992065,719.990723 
	C868.992065,753.789307 868.992065,787.192749 868.992065,820.796509 
	C876.457153,820.796509 883.528015,820.796509 890.993774,820.796509 
	C890.993774,787.207458 890.993774,753.804382 890.993774,720.005188 
	C896.119385,720.005188 900.869995,720.005188 905.799561,720.005188 
	C905.799561,713.201538 905.799561,706.797058 905.799561,700.056213 
	C888.984009,700.056213 872.366150,700.056213 855.057800,700.731445 
M403.329071,956.000000 
	C405.970184,956.386902 407.145905,955.607300 407.070862,952.585266 
	C406.864441,944.269897 406.999939,935.945984 407.000000,927.625488 
	C407.000092,918.862610 407.000000,910.099731 407.000000,901.268066 
	C387.424927,901.268066 368.383118,901.268066 349.271729,901.268066 
	C349.271729,919.580322 349.271729,937.623291 349.271729,956.000000 
	C367.148407,956.000000 384.755432,956.000000 403.329071,956.000000 
M816.000000,774.500000 
	C816.000000,749.740173 816.000000,724.980286 816.000000,700.287415 
	C808.355408,700.287415 801.282349,700.287415 794.284302,700.287415 
	C794.284302,740.642578 794.284302,780.709656 794.284302,820.712646 
	C801.644531,820.712646 808.717590,820.712646 816.000000,820.712646 
	C816.000000,805.450867 816.000000,790.475403 816.000000,774.500000 
M796.680054,689.999817 
	C802.765320,689.999817 808.850525,689.999817 814.645508,689.999817 
	C814.645508,683.216675 814.645508,677.138794 814.645508,671.357361 
	C807.544678,671.357361 800.800842,671.357361 794.000183,671.357361 
	C794.000183,676.877441 793.914795,682.042969 794.077332,687.200745 
	C794.107239,688.148804 795.142334,689.065063 796.680054,689.999817 
M648.000000,686.351562 
	C648.000000,681.263672 648.000000,676.175781 648.000000,671.342773 
	C640.906982,671.342773 634.497253,671.342773 628.345642,671.342773 
	C628.345642,677.765686 628.345642,683.842651 628.345642,689.999817 
	C634.183594,689.999817 639.682190,690.130127 645.163269,689.879089 
	C646.145813,689.834167 647.056152,688.213989 648.000000,686.351562 
M614.381531,671.000000 
	C609.627197,671.000000 604.872803,671.000000 600.332153,671.000000 
	C600.332153,677.738342 600.332153,683.814148 600.332153,689.665161 
	C606.743896,689.665161 612.819885,689.665161 618.999939,689.665161 
	C618.999939,684.341064 618.801331,679.340393 619.073059,674.365479 
	C619.240906,671.292969 617.963745,670.605225 614.381531,671.000000 
z"/>
<path fill="#ED1C24" opacity="1.000000" stroke="none" 
	d="
M884.468506,1341.000000 
	C877.751587,1339.668213 871.432922,1338.599121 865.269104,1336.950928 
	C851.584534,1333.292114 839.464294,1326.770020 828.720093,1317.362427 
	C816.472351,1306.638550 807.080200,1293.794678 800.221252,1279.294678 
	C792.169739,1262.273438 786.381165,1244.365234 784.038391,1225.566528 
	C782.439819,1212.738892 780.823364,1199.877808 780.127441,1186.982422 
	C779.260681,1170.921753 778.489441,1154.774658 779.172058,1138.728394 
	C780.689148,1103.066406 785.862793,1068.067505 803.020874,1035.971680 
	C814.080261,1015.283813 829.310669,998.386475 850.247681,987.516174 
	C862.533752,981.137451 875.904053,978.068787 889.919495,976.748047 
	C906.087830,975.224426 921.414612,977.950073 936.761169,982.034973 
	C937.228149,982.159241 937.663391,982.400879 938.116333,982.580322 
	C947.999939,986.497620 948.000000,986.497498 948.000000,997.164062 
	C948.000000,1015.647522 948.000000,1034.130981 948.000000,1052.922974 
	C941.545166,1049.737183 935.446289,1046.578491 929.223999,1043.685547 
	C914.202148,1036.701538 898.722107,1034.240112 883.081421,1041.134644 
	C872.241333,1045.913086 864.702698,1054.624146 859.056396,1064.861450 
	C851.163330,1079.172241 848.050171,1094.847412 845.921204,1110.884766 
	C842.319153,1138.018921 843.867004,1165.265869 844.306702,1192.420288 
	C844.627319,1212.222168 847.937500,1231.970215 856.037292,1250.422852 
	C862.011902,1264.033936 869.749146,1276.164429 885.514038,1280.043945 
	C890.352722,1281.234619 895.344910,1281.801270 900.708801,1282.730225 
	C900.708801,1251.669922 900.708801,1221.608643 900.708801,1191.076904 
	C890.946228,1191.076904 881.211365,1191.076904 871.243164,1191.076904 
	C871.243164,1171.882324 871.243164,1153.157227 871.243164,1134.215820 
	C900.384705,1134.215820 929.323425,1134.215820 958.631348,1134.215820 
	C958.631348,1197.859375 958.631348,1261.579224 958.631348,1325.912720 
	C941.618286,1332.447632 924.358582,1339.458252 905.178101,1340.612305 
	C898.312378,1341.000000 891.624695,1341.000000 884.468506,1341.000000 
z"/>
<path fill="#000000" opacity="1.000000" stroke="none" 
	d="
M1609.000000,820.531433 
	C1435.339355,821.000000 1261.678833,820.969727 1088.018311,821.152100 
	C1083.036743,821.157349 1081.140747,819.390015 1080.000488,815.152344 
	C1076.681396,802.818115 1073.221436,790.521790 1069.595581,777.411316 
	C1061.768921,791.686646 1066.494873,806.518372 1064.653931,820.793335 
	C1057.548706,820.793335 1050.477051,820.793335 1043.202515,820.793335 
	C1043.202515,780.540771 1043.202515,740.469971 1043.202515,700.201294 
	C1050.466064,700.201294 1057.537598,700.201294 1064.967529,700.201294 
	C1064.967529,715.428711 1064.967529,730.460510 1064.967529,745.492249 
	C1065.165039,745.518127 1065.362549,745.544067 1065.560059,745.569946 
	C1070.373169,731.539368 1075.274780,717.537903 1079.920898,703.452148 
	C1080.790527,700.815308 1081.896606,699.862000 1084.667847,699.937195 
	C1091.654419,700.126831 1098.649536,700.000000 1106.228027,700.000000 
	C1101.724854,711.159363 1097.379883,721.937866 1093.025757,732.712708 
	C1090.807129,738.203064 1088.288574,743.596191 1086.491333,749.220459 
	C1085.824341,751.307922 1086.473511,754.035156 1087.134155,756.291443 
	C1090.829834,768.912537 1094.806030,781.451721 1098.472168,794.081116 
	C1099.508423,797.650757 1100.891846,799.158936 1105.080200,799.132874 
	C1141.910767,798.903564 1178.743408,799.000000 1215.575439,799.000000 
	C1346.404541,799.000000 1477.233643,799.000000 1608.531372,799.000000 
	C1609.000000,806.020935 1609.000000,813.041931 1609.000000,820.531433 
z"/>
<path fill="#000000" opacity="1.000000" stroke="none" 
	d="
M1.000000,799.468567 
	C173.473907,799.000000 345.947815,799.000000 518.710815,799.000000 
	C518.710815,772.715698 518.710815,746.643921 518.710815,720.171204 
	C514.052856,720.171204 509.302521,720.171204 504.281189,720.171204 
	C504.281189,713.371399 504.281189,706.964783 504.281189,700.277466 
	C520.973816,700.277466 537.712646,700.277466 554.726501,700.277466 
	C554.726501,706.646729 554.726501,713.052124 554.726501,719.860962 
	C550.353882,719.860962 545.935181,719.860962 541.130127,719.860962 
	C541.130127,753.663208 541.130127,787.070618 541.130127,821.000000 
	C361.133179,821.000000 181.535248,821.000000 1.468657,821.000000 
	C1.000000,813.979065 1.000000,806.958069 1.000000,799.468567 
z"/>
<path fill="#010101" opacity="1.000000" stroke="none" 
	d="
M985.904663,198.901093 
	C1025.523926,198.901093 1065.143311,198.901093 1105.613892,198.901093 
	C1099.142944,208.035461 1093.115234,216.613342 1087.016968,225.140808 
	C1059.033691,264.271790 1031.016724,303.378723 1003.038086,342.513062 
	C962.175232,399.668976 921.322937,456.832428 880.489685,514.009521 
	C856.907288,547.030884 833.355591,580.074158 809.826782,613.133728 
	C804.917969,620.030884 804.914734,620.139648 799.997314,613.296021 
	C775.139648,578.701477 750.312805,544.084595 725.500549,509.457458 
	C705.700378,481.825134 685.884094,454.204102 666.166809,426.512695 
	C615.332703,355.120270 564.550049,283.691223 513.744873,212.278259 
	C510.775574,208.104645 507.788086,203.944016 504.164764,198.876205 
	C544.399292,198.876205 583.754578,198.876205 623.562195,198.920563 
	C624.014526,198.964935 623.941467,198.975021 623.963928,199.427246 
	C624.322815,203.295670 624.767273,206.705200 624.978760,210.129120 
	C626.762573,239.009628 635.014832,265.912201 649.827087,290.747620 
	C661.514404,310.343719 676.068787,327.455322 694.593384,341.303467 
	C695.079834,342.023773 695.505127,342.502319 695.955933,343.366364 
	C721.231140,421.061218 817.281738,449.354340 880.489502,394.504333 
	C896.530212,380.584656 908.095276,363.556824 914.298218,342.885864 
	C914.840210,342.214111 915.153870,341.637909 915.807190,340.920105 
	C954.722961,309.942169 977.453430,270.107544 983.934143,221.112473 
	C984.906860,213.759094 985.335632,206.333771 985.992371,198.920120 
	C985.968689,198.898529 985.904663,198.901093 985.904663,198.901093 
z"/>
<path fill="#ED1C24" opacity="1.000000" stroke="none" 
	d="
M1560.000000,1193.000000 
	C1560.000000,1241.469116 1560.000000,1289.438232 1560.000000,1337.703369 
	C1539.655151,1337.703369 1519.593872,1337.703369 1499.098267,1337.703369 
	C1499.098267,1267.652710 1499.098267,1197.651123 1499.098267,1127.649658 
	C1498.803223,1127.598511 1498.508057,1127.547363 1498.213013,1127.496216 
	C1490.821777,1149.330078 1483.384521,1171.148438 1476.052856,1193.002197 
	C1469.314087,1213.088257 1462.711914,1233.220093 1455.962280,1253.302246 
	C1455.507935,1254.654053 1454.317017,1255.758301 1453.468750,1256.977661 
	C1452.739502,1255.870361 1451.731323,1254.857056 1451.321411,1253.641968 
	C1437.522095,1212.729004 1423.779297,1171.796875 1410.029541,1130.867065 
	C1409.537964,1129.403687 1409.058105,1127.936279 1407.995850,1126.621216 
	C1407.995850,1196.870361 1407.995850,1267.119507 1407.995850,1337.684082 
	C1387.694580,1337.684082 1367.633057,1337.684082 1347.284912,1337.684082 
	C1347.284912,1218.303589 1347.284912,1098.916260 1347.284912,979.000000 
	C1354.617676,979.000000 1361.893311,979.000000 1369.168823,979.000000 
	C1381.167603,979.000000 1393.170776,979.178406 1405.162842,978.894714 
	C1408.920776,978.805847 1410.702393,979.893188 1411.879517,983.467834 
	C1423.160278,1017.723206 1434.568481,1051.936646 1445.989014,1086.145874 
	C1448.389160,1093.335449 1450.988770,1100.458496 1453.697876,1108.186646 
	C1457.552612,1096.761230 1461.278687,1085.756104 1464.978882,1074.742188 
	C1475.330322,1043.929565 1485.638550,1013.102051 1496.122803,982.334534 
	C1496.593994,980.951843 1498.612183,979.155457 1499.926392,979.141907 
	C1519.736206,978.937683 1539.548706,979.000366 1560.000000,979.000366 
	C1560.000000,1050.324585 1560.000000,1121.412354 1560.000000,1193.000000 
z"/>
<path fill="#ED1C24" opacity="1.000000" stroke="none" 
	d="
M50.000000,1031.000000 
	C50.000000,1013.531128 50.000000,996.562256 50.000000,979.223694 
	C51.866547,979.141479 53.471092,979.010315 55.075733,979.009216 
	C75.402390,978.995239 95.772194,978.165161 116.044739,979.212585 
	C141.049683,980.504517 165.490341,984.983765 186.660034,999.946655 
	C204.970047,1012.888367 216.512299,1029.979370 220.109650,1052.447876 
	C222.873871,1069.712769 222.429657,1086.653442 217.217392,1103.336792 
	C210.394196,1125.176270 196.254166,1140.889648 176.121017,1151.418823 
	C174.726898,1152.147827 173.349228,1152.908325 171.532852,1153.886230 
	C184.964188,1160.559570 197.361130,1167.760254 207.299835,1178.682861 
	C216.671143,1188.981934 222.566940,1200.952271 224.837601,1214.461426 
	C226.356064,1223.495361 227.094345,1232.808350 226.856873,1241.962036 
	C226.152145,1269.125488 216.719986,1292.744629 195.696075,1310.664062 
	C180.438538,1323.668701 162.223938,1330.830566 142.771622,1334.992065 
	C118.518570,1340.180664 93.926430,1337.279785 69.485970,1337.973267 
	C63.186802,1338.151855 56.878258,1338.000000 50.000000,1338.000000 
	C50.000000,1235.633423 50.000000,1133.566650 50.000000,1031.000000 
M114.000000,1194.536377 
	C114.000000,1222.622192 114.000000,1250.708130 114.000000,1278.724243 
	C132.549759,1280.575317 148.160416,1271.716187 157.059570,1258.323120 
	C162.727814,1249.792603 163.108475,1239.976685 163.086945,1230.027466 
	C163.057755,1216.540649 159.116821,1204.876221 148.550583,1196.138672 
	C138.649323,1187.951050 127.231750,1184.107788 114.000000,1185.194458 
	C114.000000,1188.260742 114.000000,1190.904541 114.000000,1194.536377 
M155.105682,1058.560425 
	C146.561722,1044.062500 128.331558,1035.228394 114.335770,1038.682251 
	C114.335770,1068.756226 114.335770,1098.788086 114.335770,1128.717041 
	C122.407143,1130.008423 129.621674,1127.913574 136.468369,1124.768555 
	C153.843155,1116.787476 159.584854,1101.556885 159.738159,1084.017212 
	C159.810532,1075.735718 157.091782,1067.429810 155.105682,1058.560425 
z"/>
<path fill="#ED1C24" opacity="1.000000" stroke="none" 
	d="
M1208.997314,1338.000000 
	C1167.862061,1338.000000 1127.225952,1338.000000 1086.295166,1338.000000 
	C1086.295166,1218.324341 1086.295166,1098.936890 1086.295166,979.274658 
	C1132.055176,979.274658 1177.781006,979.274658 1223.753662,979.274658 
	C1223.753662,999.114014 1223.753662,1018.841736 1223.753662,1038.863281 
	C1198.943359,1038.863281 1174.332397,1038.863281 1149.361328,1038.863281 
	C1149.361328,1068.214111 1149.361328,1097.275269 1149.361328,1126.808228 
	C1170.939453,1126.808228 1192.671509,1126.808228 1214.699707,1126.808228 
	C1214.699707,1147.337524 1214.699707,1167.398926 1214.699707,1187.932129 
	C1192.934692,1187.932129 1171.202759,1187.932129 1149.238281,1187.932129 
	C1149.238281,1218.010376 1149.238281,1247.620117 1149.238281,1277.700317 
	C1174.164307,1277.700317 1199.228882,1277.700317 1224.645630,1277.700317 
	C1224.645630,1297.893677 1224.645630,1317.622681 1224.645630,1338.000000 
	C1219.685791,1338.000000 1214.591187,1338.000000 1208.997314,1338.000000 
z"/>
<path fill="#ED1C24" opacity="1.000000" stroke="none" 
	d="
M539.000000,1201.000000 
	C539.000000,1126.864380 539.000000,1053.228760 539.000000,979.296753 
	C560.011841,979.296753 580.740295,979.296753 601.935974,979.296753 
	C601.935974,1078.739624 601.935974,1178.131714 601.935974,1277.817139 
	C624.009521,1277.817139 645.621521,1277.817139 667.616272,1277.817139 
	C667.616272,1297.834229 667.616272,1317.564331 667.616272,1337.648193 
	C625.099426,1337.648193 582.371704,1337.648193 539.000000,1337.648193 
	C539.000000,1292.344727 539.000000,1246.922363 539.000000,1201.000000 
z"/>
<path fill="#ED1C24" opacity="1.000000" stroke="none" 
	d="
M346.000000,1302.000000 
	C346.000000,1194.228271 346.000000,1086.956543 346.000000,979.342468 
	C366.912933,979.342468 387.636505,979.342468 408.680908,979.342468 
	C408.680908,1098.598267 408.680908,1217.956543 408.680908,1337.657471 
	C388.087128,1337.657471 367.363556,1337.657471 346.000000,1337.657471 
	C346.000000,1326.013794 346.000000,1314.256958 346.000000,1302.000000 
z"/>
<path fill="#ED2126" opacity="1.000000" stroke="none" 
	d="
M624.027588,198.999390 
	C624.041199,174.652206 628.685120,151.175613 638.146057,128.718277 
	C646.257812,109.463387 657.557373,92.312302 671.623535,76.751625 
	C688.157166,58.461384 707.626160,44.349438 729.857117,34.211674 
	C746.477051,26.632650 763.944702,21.328659 782.371338,19.971611 
	C789.939026,19.414282 797.511047,18.119869 805.061462,18.255348 
	C846.474731,18.998438 883.960510,31.306103 916.669067,57.158756 
	C952.630188,85.582214 974.218628,122.718216 982.761047,167.475403 
	C984.671875,177.487015 984.772644,187.844086 985.805725,198.471588 
	C985.904663,198.901093 985.968689,198.898529 985.535522,198.999557 
	C981.407654,199.055191 977.713074,199.009796 974.054077,198.500458 
	C973.441406,189.455521 973.306396,180.798737 972.052795,172.307098 
	C967.484314,141.360825 954.559631,114.047821 934.656494,90.083885 
	C917.342529,69.237366 895.992859,53.713551 871.042480,43.032997 
	C841.885742,30.551832 811.382019,26.513374 780.381104,31.436554 
	C723.513428,40.467567 681.266174,70.995018 654.077515,121.947235 
	C647.444031,134.378494 642.322754,147.468719 639.936462,161.364182 
	C637.794434,173.837708 636.600769,186.474121 634.530518,199.019318 
	C630.695374,198.991638 627.318420,198.983322 623.941467,198.975006 
	C623.941467,198.975021 624.014526,198.964935 624.027588,198.999390 
z"/>
<path fill="#000000" opacity="1.000000" stroke="none" 
	d="
M727.631470,819.987549 
	C716.988525,820.479980 706.781860,820.961548 696.274353,821.457275 
	C696.274353,780.692017 696.274353,740.627441 696.274353,699.919922 
	C709.230652,700.861694 722.353943,698.014160 735.160156,702.917786 
	C746.604248,707.299744 753.588074,717.383118 754.069397,729.022522 
	C754.612732,742.159485 749.717224,752.058472 739.211792,757.888367 
	C743.363892,762.273071 749.306885,766.140076 751.762146,771.580994 
	C760.042053,789.929016 754.829651,810.873169 733.466370,818.005920 
	C731.649963,818.612427 729.866455,819.317383 727.631470,819.987549 
M718.000000,787.489258 
	C718.000000,791.607117 718.000000,795.724915 718.000000,799.832214 
	C728.296204,799.931030 732.289917,794.837219 733.777832,785.555176 
	C734.948975,778.249634 729.011292,772.146851 718.000000,769.092590 
	C718.000000,774.963257 718.000000,780.728149 718.000000,787.489258 
M731.200378,741.264526 
	C734.371704,728.717285 729.292480,719.953674 718.163696,720.355103 
	C718.163696,730.136047 718.163696,739.921631 718.163696,750.024231 
	C724.075745,749.686279 728.647705,747.715759 731.200378,741.264526 
z"/>
<path fill="#000000" opacity="1.000000" stroke="none" 
	d="
M593.000000,749.000000 
	C593.000000,732.523315 593.000000,716.546570 593.000000,700.285461 
	C600.287598,700.285461 607.360352,700.285461 615.000000,700.285461 
	C615.000000,701.987671 615.000000,703.754272 615.000000,705.520935 
	C615.000000,733.186157 614.901794,760.852112 615.128235,788.515503 
	C615.155518,791.853455 616.387207,795.483521 618.030029,798.439392 
	C620.884766,803.575684 627.361694,803.298157 629.895325,798.000854 
	C631.171326,795.332947 631.898193,792.135315 631.912659,789.172546 
	C632.056641,759.680481 632.000000,730.187439 632.000000,700.347412 
	C639.157471,700.347412 646.233948,700.347412 653.719055,700.347412 
	C653.798035,701.331055 653.986450,702.588440 653.987183,703.845947 
	C654.003723,732.844421 654.356689,761.849487 653.822510,790.838074 
	C653.612000,802.258240 650.304382,813.667358 638.807495,818.837830 
	C619.137268,827.684143 596.829163,820.709412 594.221985,795.211975 
	C592.675842,780.091125 593.333313,764.744873 593.000000,749.000000 
z"/>
<path fill="#000000" opacity="1.000000" stroke="none" 
	d="
M1006.999756,818.121338 
	C1006.148499,819.386963 1005.318787,820.863892 1004.442871,820.891846 
	C998.142090,821.092590 991.831848,820.999390 985.418335,820.999390 
	C984.133606,812.979797 982.886047,805.192261 981.605713,797.199890 
	C975.582275,797.199890 969.490234,797.199890 963.387878,797.199890 
	C962.148987,805.136597 960.932678,812.928589 959.698975,820.832275 
	C952.440918,820.832275 945.324829,820.832275 938.197388,820.832275 
	C945.882019,780.247986 953.535583,739.827698 961.227539,699.204468 
	C968.968994,699.204468 976.743347,699.204468 984.598022,699.204468 
	C992.072021,738.725891 999.535950,778.193970 1006.999756,818.121338 
M970.999939,751.459473 
	C969.578979,759.832214 968.158081,768.204895 966.699585,776.799072 
	C970.849792,776.799072 974.277222,776.799072 978.239624,776.799072 
	C976.355469,765.156067 974.516174,753.790588 972.550171,741.641785 
	C971.937988,745.168823 971.469055,747.870728 970.999939,751.459473 
z"/>
<path fill="#000000" opacity="1.000000" stroke="none" 
	d="
M855.403076,700.393799 
	C872.366150,700.056213 888.984009,700.056213 905.799561,700.056213 
	C905.799561,706.797058 905.799561,713.201538 905.799561,720.005188 
	C900.869995,720.005188 896.119385,720.005188 890.993774,720.005188 
	C890.993774,753.804382 890.993774,787.207458 890.993774,820.796509 
	C883.528015,820.796509 876.457153,820.796509 868.992065,820.796509 
	C868.992065,787.192749 868.992065,753.789307 868.992065,719.990723 
	C864.199341,719.990723 859.781311,719.990723 855.057800,719.990723 
	C855.057800,713.309937 855.057800,707.020691 855.403076,700.393799 
z"/>
<path fill="#ED1C24" opacity="1.000000" stroke="none" 
	d="
M402.845764,956.000000 
	C384.755432,956.000000 367.148407,956.000000 349.271729,956.000000 
	C349.271729,937.623291 349.271729,919.580322 349.271729,901.268066 
	C368.383118,901.268066 387.424927,901.268066 407.000000,901.268066 
	C407.000000,910.099731 407.000092,918.862610 407.000000,927.625488 
	C406.999939,935.945984 406.864441,944.269897 407.070862,952.585266 
	C407.145905,955.607300 405.970184,956.386902 402.845764,956.000000 
z"/>
<path fill="#000000" opacity="1.000000" stroke="none" 
	d="
M816.000000,775.000000 
	C816.000000,790.475403 816.000000,805.450867 816.000000,820.712646 
	C808.717590,820.712646 801.644531,820.712646 794.284302,820.712646 
	C794.284302,780.709656 794.284302,740.642578 794.284302,700.287415 
	C801.282349,700.287415 808.355408,700.287415 816.000000,700.287415 
	C816.000000,724.980286 816.000000,749.740173 816.000000,775.000000 
z"/>
<path fill="#000000" opacity="1.000000" stroke="none" 
	d="
M796.196716,689.997925 
	C795.142334,689.065063 794.107239,688.148804 794.077332,687.200745 
	C793.914795,682.042969 794.000183,676.877441 794.000183,671.357361 
	C800.800842,671.357361 807.544678,671.357361 814.645508,671.357361 
	C814.645508,677.138794 814.645508,683.216675 814.645508,689.999817 
	C808.850525,689.999817 802.765320,689.999817 796.196716,689.997925 
z"/>
<path fill="#000000" opacity="1.000000" stroke="none" 
	d="
M647.999878,686.836304 
	C647.056152,688.213989 646.145813,689.834167 645.163269,689.879089 
	C639.682190,690.130127 634.183594,689.999817 628.345642,689.999817 
	C628.345642,683.842651 628.345642,677.765686 628.345642,671.342773 
	C634.497253,671.342773 640.906982,671.342773 648.000000,671.342773 
	C648.000000,676.175781 648.000000,681.263672 647.999878,686.836304 
z"/>
<path fill="#000000" opacity="1.000000" stroke="none" 
	d="
M614.866516,671.000000 
	C617.963745,670.605225 619.240906,671.292969 619.073059,674.365479 
	C618.801331,679.340393 618.999939,684.341064 618.999939,689.665161 
	C612.819885,689.665161 606.743896,689.665161 600.332153,689.665161 
	C600.332153,683.814148 600.332153,677.738342 600.332153,671.000000 
	C604.872803,671.000000 609.627197,671.000000 614.866516,671.000000 
z"/>
<path fill="#FDFDFD" opacity="1.000000" stroke="none" 
	d="
M914.069824,342.981354 
	C908.095276,363.556824 896.530212,380.584656 880.489502,394.504333 
	C817.281738,449.354340 721.231140,421.061218 696.260620,343.519226 
	C728.792908,367.418884 765.220276,379.508331 805.342346,379.471313 
	C845.484863,379.434296 881.794617,366.967041 914.069824,342.981354 
z"/>
<path fill="#ED2328" opacity="1.000000" stroke="none" 
	d="
M914.298218,342.885864 
	C881.794617,366.967041 845.484863,379.434296 805.342346,379.471313 
	C765.220276,379.508331 728.792908,367.418884 696.235046,343.133728 
	C695.505127,342.502319 695.079834,342.023773 694.508911,340.890991 
	C693.547424,335.031097 692.731567,329.825439 692.139038,324.902100 
	C731.032349,358.852539 775.961914,372.850830 826.750244,366.707397 
	C861.520813,362.501526 892.078979,348.269440 918.349060,324.894165 
	C917.560730,330.470276 916.514099,335.765991 915.467529,341.061707 
	C915.153870,341.637909 914.840210,342.214111 914.298218,342.885864 
z"/>
<path fill="#F9F9F9" opacity="1.000000" stroke="none" 
	d="
M915.807129,340.920105 
	C916.514099,335.765991 917.560730,330.470276 918.449585,324.747284 
	C918.476013,324.150696 918.692322,324.049957 919.276611,323.951874 
	C938.537109,306.324310 953.048218,285.689667 962.499512,261.634430 
	C970.406616,241.509537 975.061401,220.730881 974.047363,198.951538 
	C974.047852,198.966965 974.018433,198.964386 974.018433,198.964386 
	C977.713074,199.009796 981.407654,199.055191 985.559204,199.021149 
	C985.335632,206.333771 984.906860,213.759094 983.934143,221.112473 
	C977.453430,270.107544 954.722961,309.942169 915.807129,340.920105 
z"/>
<path fill="#F9F9F9" opacity="1.000000" stroke="none" 
	d="
M691.915649,324.619812 
	C692.731567,329.825439 693.547424,335.031097 694.447815,340.649231 
	C676.068787,327.455322 661.514404,310.343719 649.827087,290.747620 
	C635.014832,265.912201 626.762573,239.009628 624.978760,210.129120 
	C624.767273,206.705200 624.322815,203.295670 623.963928,199.427231 
	C627.318420,198.983322 630.695374,198.991638 634.509644,199.003571 
	C634.946960,199.007187 634.951233,198.954987 634.976746,199.414581 
	C635.300049,203.800400 635.590271,207.727234 635.896912,211.652771 
	C637.717346,234.956284 643.857605,257.030548 654.865784,277.683838 
	C664.219482,295.233032 675.747986,311.109528 691.235352,324.067749 
	C691.641968,324.222260 691.810242,324.389465 691.915649,324.619812 
z"/>
<path fill="#FFFFFF" opacity="1.000000" stroke="none" 
	d="
M114.000000,1194.042358 
	C114.000000,1190.904541 114.000000,1188.260742 114.000000,1185.194458 
	C127.231750,1184.107788 138.649323,1187.951050 148.550583,1196.138672 
	C159.116821,1204.876221 163.057755,1216.540649 163.086945,1230.027466 
	C163.108475,1239.976685 162.727814,1249.792603 157.059570,1258.323120 
	C148.160416,1271.716187 132.549759,1280.575317 114.000000,1278.724243 
	C114.000000,1250.708130 114.000000,1222.622192 114.000000,1194.042358 
z"/>
<path fill="#FFFFFF" opacity="1.000000" stroke="none" 
	d="
M155.371689,1058.847656 
	C157.091782,1067.429810 159.810532,1075.735718 159.738159,1084.017212 
	C159.584854,1101.556885 153.843155,1116.787476 136.468369,1124.768555 
	C129.621674,1127.913574 122.407143,1130.008423 114.335770,1128.717041 
	C114.335770,1098.788086 114.335770,1068.756226 114.335770,1038.682251 
	C128.331558,1035.228394 146.561722,1044.062500 155.371689,1058.847656 
z"/>
<path fill="#FFFDFC" opacity="1.000000" stroke="none" 
	d="
M634.967773,199.022934 
	C636.600769,186.474121 637.794434,173.837708 639.936462,161.364182 
	C642.322754,147.468719 647.444031,134.378494 654.077515,121.947235 
	C681.266174,70.995018 723.513428,40.467567 780.381104,31.436554 
	C811.382019,26.513374 841.885742,30.551832 871.042480,43.032997 
	C895.992859,53.713551 917.342529,69.237366 934.656494,90.083885 
	C954.559631,114.047821 967.484314,141.360825 972.052795,172.307098 
	C973.306396,180.798737 973.441406,189.455521 974.054077,198.500458 
	C974.018433,198.964386 974.047852,198.966965 973.577026,198.917084 
	C966.377014,198.892624 959.647827,198.918015 952.910583,198.490448 
	C952.320740,191.076508 952.117493,184.059662 951.099976,177.162949 
	C938.114258,89.148636 850.848694,32.454987 765.322571,56.386299 
	C704.202820,73.488388 657.583923,128.949875 656.610352,198.905823 
	C649.075684,198.896957 642.013428,198.925980 634.951233,198.954987 
	C634.951233,198.954987 634.946960,199.007187 634.967773,199.022934 
z"/>
<path fill="#FFFFFF" opacity="1.000000" stroke="none" 
	d="
M718.000000,786.991150 
	C718.000000,780.728149 718.000000,774.963257 718.000000,769.092590 
	C729.011292,772.146851 734.948975,778.249634 733.777832,785.555176 
	C732.289917,794.837219 728.296204,799.931030 718.000000,799.832214 
	C718.000000,795.724915 718.000000,791.607117 718.000000,786.991150 
z"/>
<path fill="#FFFFFF" opacity="1.000000" stroke="none" 
	d="
M731.098999,741.663574 
	C728.647705,747.715759 724.075745,749.686279 718.163696,750.024231 
	C718.163696,739.921631 718.163696,730.136047 718.163696,720.355103 
	C729.292480,719.953674 734.371704,728.717285 731.098999,741.663574 
z"/>
<path fill="#FFFFFF" opacity="1.000000" stroke="none" 
	d="
M971.000000,751.016052 
	C971.469055,747.870728 971.937988,745.168823 972.550171,741.641785 
	C974.516174,753.790588 976.355469,765.156067 978.239624,776.799072 
	C974.277222,776.799072 970.849792,776.799072 966.699585,776.799072 
	C968.158081,768.204895 969.578979,759.832214 971.000000,751.016052 
z"/>
<path fill="#FEFCFC" opacity="1.000000" stroke="none" 
	d="
M692.139038,324.902100 
	C691.810242,324.389465 691.641968,324.222260 691.189331,323.621704 
	C691.074890,313.252441 691.181885,303.379730 691.533325,293.753052 
	C692.450317,294.735352 693.118958,295.475372 693.796326,296.207275 
	C733.136475,338.711151 781.365479,354.439362 837.965027,342.788239 
	C870.514893,336.087830 897.082397,318.599884 918.809753,293.964966 
	C919.226440,298.856140 919.811462,303.290375 919.794128,307.722290 
	C919.772888,313.155151 919.247803,318.586029 918.940552,324.017761 
	C918.692322,324.049957 918.476013,324.150696 918.191284,324.466858 
	C892.078979,348.269440 861.520813,362.501526 826.750244,366.707397 
	C775.961914,372.850830 731.032349,358.852539 692.139038,324.902100 
z"/>
<path fill="#030303" opacity="1.000000" stroke="none" 
	d="
M919.276611,323.951874 
	C919.247803,318.586029 919.772888,313.155151 919.794128,307.722290 
	C919.811462,303.290375 919.226440,298.856140 918.934692,293.734436 
	C918.989136,292.692963 919.017273,292.339966 919.345459,291.842957 
	C930.239441,278.547913 938.295898,264.008026 944.107544,248.136002 
	C949.934875,232.221222 951.926453,215.677536 953.000061,198.929153 
	C952.972534,198.917725 952.918640,198.943405 952.918640,198.943405 
	C959.647827,198.918015 966.377014,198.892624 973.576538,198.901657 
	C975.061401,220.730881 970.406616,241.509537 962.499512,261.634430 
	C953.048218,285.689667 938.537109,306.324310 919.276611,323.951874 
z"/>
<path fill="#030303" opacity="1.000000" stroke="none" 
	d="
M691.288940,293.506989 
	C691.181885,303.379730 691.074890,313.252441 691.013794,323.571228 
	C675.747986,311.109528 664.219482,295.233032 654.865784,277.683838 
	C643.857605,257.030548 637.717346,234.956284 635.896912,211.652771 
	C635.590271,207.727234 635.300049,203.800400 634.976746,199.414581 
	C642.013428,198.925980 649.075684,198.896957 656.583557,198.892853 
	C657.029236,198.917755 656.973877,198.939468 657.142944,199.325928 
	C658.247009,208.800278 658.546631,218.008392 660.239319,226.952896 
	C664.831604,251.219131 674.791199,273.107178 690.963989,292.248657 
	C691.074341,292.845978 691.181641,293.176483 691.288940,293.506989 
z"/>
<path fill="#ED2228" opacity="1.000000" stroke="none" 
	d="
M657.056030,198.930740 
	C657.583923,128.949875 704.202820,73.488388 765.322571,56.386299 
	C850.848694,32.454987 938.114258,89.148636 951.099976,177.162949 
	C952.117493,184.059662 952.320740,191.076508 952.910583,198.490448 
	C952.918640,198.943405 952.972534,198.917725 952.533569,198.989685 
	C946.736572,199.042862 941.378418,199.024094 935.980835,198.566559 
	C935.156738,189.899933 935.170410,181.501129 933.451721,173.473251 
	C925.228821,135.064896 904.490479,105.586891 870.294861,85.580948 
	C843.562500,69.941399 814.910706,64.547195 784.689026,69.443993 
	C720.013550,79.923279 674.264526,133.902695 673.521851,199.027298 
	C667.694885,199.013687 662.334412,198.976578 656.973877,198.939468 
	C656.973877,198.939468 657.029236,198.917755 657.056030,198.930740 
z"/>
<path fill="#ED1F26" opacity="1.000000" stroke="none" 
	d="
M691.533325,293.753052 
	C691.181641,293.176483 691.074341,292.845978 691.026855,291.859100 
	C692.517151,284.956512 693.947693,278.710266 695.618225,271.416046 
	C697.629944,274.098389 698.881042,275.776184 700.142029,277.446442 
	C731.215759,318.604950 784.358398,339.211243 835.698242,326.113434 
	C868.085266,317.850891 893.623535,299.924622 913.335693,272.980408 
	C915.477356,279.381653 917.261414,285.684326 919.045410,291.986969 
	C919.017273,292.339966 918.989136,292.692963 918.836060,293.276489 
	C897.082397,318.599884 870.514893,336.087830 837.965027,342.788239 
	C781.365479,354.439362 733.136475,338.711151 693.796326,296.207275 
	C693.118958,295.475372 692.450317,294.735352 691.533325,293.753052 
z"/>
<path fill="#FBFBFB" opacity="1.000000" stroke="none" 
	d="
M919.345459,291.842957 
	C917.261414,285.684326 915.477356,279.381653 913.339478,272.662354 
	C912.993530,271.821564 913.001465,271.397400 913.367554,271.072296 
	C914.422119,270.564667 915.317444,270.082428 915.786011,269.333252 
	C929.250732,247.806946 936.447449,224.464371 936.055420,198.963440 
	C936.056274,198.984451 936.020325,199.005341 936.020325,199.005341 
	C941.378418,199.024094 946.736572,199.042862 952.561157,199.001099 
	C951.926453,215.677536 949.934875,232.221222 944.107544,248.136002 
	C938.295898,264.008026 930.239441,278.547913 919.345459,291.842957 
z"/>
<path fill="#FFFCFB" opacity="1.000000" stroke="none" 
	d="
M913.009399,270.973267 
	C913.001465,271.397400 912.993530,271.821564 912.981812,272.563721 
	C893.623535,299.924622 868.085266,317.850891 835.698242,326.113434 
	C784.358398,339.211243 731.215759,318.604950 700.142029,277.446442 
	C698.881042,275.776184 697.629944,274.098389 695.618225,271.416046 
	C693.947693,278.710266 692.517151,284.956512 691.023804,291.592316 
	C674.791199,273.107178 664.831604,251.219131 660.239319,226.952896 
	C658.546631,218.008392 658.247009,208.800278 657.142944,199.325928 
	C662.334412,198.976578 667.694885,199.013687 673.506592,199.015106 
	C673.957703,198.979416 673.944885,198.942459 673.902710,199.412888 
	C673.704285,225.865311 681.306458,249.453033 695.507996,271.411804 
	C698.498901,265.365814 701.240051,259.824646 704.198730,254.520508 
	C705.190979,256.035736 705.962036,257.316223 706.741028,258.591797 
	C734.676880,304.339081 789.474365,324.010193 837.759277,308.952484 
	C861.787964,301.459106 881.757629,287.900177 896.960144,267.658691 
	C900.091309,263.489594 902.992737,259.147858 906.324585,255.053284 
	C908.769165,260.471680 910.889282,265.722473 913.009399,270.973267 
z"/>
<path fill="#FFFDFD" opacity="1.000000" stroke="none" 
	d="
M673.972961,198.991608 
	C674.264526,133.902695 720.013550,79.923279 784.689026,69.443993 
	C814.910706,64.547195 843.562500,69.941399 870.294861,85.580948 
	C904.490479,105.586891 925.228821,135.064896 933.451721,173.473251 
	C935.170410,181.501129 935.156738,189.899933 935.980835,198.566559 
	C936.020325,199.005341 936.056274,198.984451 935.586182,198.924683 
	C930.054688,198.906418 924.993225,198.947906 919.987427,198.558563 
	C919.361267,191.290863 919.282166,184.328888 917.893616,177.638702 
	C911.767639,148.123642 897.094788,123.823982 872.468994,106.031609 
	C845.187317,86.320335 814.637207,80.221565 781.865845,86.186966 
	C757.108154,90.693649 736.322205,102.934654 719.538086,121.823563 
	C699.974304,143.840714 689.784119,169.408600 689.609375,198.927612 
	C684.075073,198.889053 679.010010,198.915756 673.944885,198.942459 
	C673.944885,198.942459 673.957703,198.979416 673.972961,198.991608 
z"/>
<path fill="#040404" opacity="1.000000" stroke="none" 
	d="
M919.931763,198.989380 
	C924.993225,198.947906 930.054688,198.906418 935.585327,198.903687 
	C936.447449,224.464371 929.250732,247.806946 915.786011,269.333252 
	C915.317444,270.082428 914.422119,270.564667 913.367554,271.072296 
	C910.889282,265.722473 908.769165,260.471680 906.320068,254.760193 
	C906.006653,253.716171 906.022217,253.132828 906.348816,252.334412 
	C915.460205,235.487885 919.399109,217.632965 920.007385,198.942474 
	C919.974060,198.936646 919.931763,198.989380 919.931763,198.989380 
z"/>
<path fill="#ED1C24" opacity="1.000000" stroke="none" 
	d="
M906.037842,252.549500 
	C906.022217,253.132828 906.006653,253.716171 905.995605,254.592590 
	C902.992737,259.147858 900.091309,263.489594 896.960144,267.658691 
	C881.757629,287.900177 861.787964,301.459106 837.759277,308.952484 
	C789.474365,324.010193 734.676880,304.339081 706.741028,258.591797 
	C705.962036,257.316223 705.190979,256.035736 704.180786,254.231262 
	C703.951416,253.320251 703.957458,252.935471 704.250549,252.321991 
	C718.772705,227.200058 739.457825,209.848358 766.092651,198.944321 
	C740.715881,198.944321 715.339050,198.944321 689.998291,198.939896 
	C690.034241,198.935471 690.078491,198.992889 690.078491,198.992889 
	C689.784119,169.408600 699.974304,143.840714 719.538086,121.823563 
	C736.322205,102.934654 757.108154,90.693649 781.865845,86.186966 
	C814.637207,80.221565 845.187317,86.320335 872.468994,106.031609 
	C897.094788,123.823982 911.767639,148.123642 917.893616,177.638702 
	C919.282166,184.328888 919.361267,191.290863 919.987427,198.558563 
	C919.931763,198.989380 919.974060,198.936646 919.537842,198.988495 
	C893.892944,199.040359 868.684387,199.040359 843.560181,199.040359 
	C851.431763,203.158005 859.425598,206.805725 866.875977,211.345413 
	C883.579529,221.523209 896.005981,235.940292 906.037842,252.549500 
z"/>
<path fill="#070707" opacity="1.000000" stroke="none" 
	d="
M703.963562,252.550690 
	C703.957458,252.935471 703.951416,253.320251 703.963257,253.994263 
	C701.240051,259.824646 698.498901,265.365814 695.507996,271.411804 
	C681.306458,249.453033 673.704285,225.865311 673.902710,199.412888 
	C679.010010,198.915756 684.075073,198.889053 689.609375,198.927612 
	C690.078491,198.992889 690.034241,198.935471 690.084229,199.359802 
	C690.761475,218.416733 694.305481,236.284912 703.963562,252.550690 
z"/>
<path fill="#FEFDFC" opacity="1.000000" stroke="none" 
	d="
M906.348816,252.334412 
	C896.005981,235.940292 883.579529,221.523209 866.875977,211.345413 
	C859.425598,206.805725 851.431763,203.158005 843.560181,199.040359 
	C868.684387,199.040359 893.892944,199.040359 919.571167,198.994324 
	C919.399109,217.632965 915.460205,235.487885 906.348816,252.334412 
z"/>
<path fill="#FEFEFD" opacity="1.000000" stroke="none" 
	d="
M704.250549,252.321991 
	C694.305481,236.284912 690.761475,218.416733 690.048218,199.364227 
	C715.339050,198.944321 740.715881,198.944321 766.092651,198.944321 
	C739.457825,209.848358 718.772705,227.200058 704.250549,252.321991 
z"/>
</svg>
