<svg xmlns="http://www.w3.org/2000/svg" viewBox="0 0 612 354"><defs><clipPath id="a"><path d="M91 196h58v90H91Zm0 0"/></clipPath><clipPath id="b"><path d="M110.723 199.516q-5.274 2.601-8.496 7.687h-.743l-1.367-8.805h-8.18v86.676h10.91v-28.89h.743q3.222 4.711 8.062 6.816 4.835 2.11 11.778 2.11 11.53-.002 18.168-8.493 6.633-8.496 6.632-25.605.001-17.485-6.695-25.793-6.698-8.31-19.097-8.309c-4.297 0-8.208.867-11.715 2.606m-3.844 50.34c-2.692-4.13-4.031-10.25-4.031-18.348v-.496c0-8.27 1.363-14.508 4.09-18.727 2.73-4.215 6.984-6.324 12.773-6.324 4.133 0 7.46.809 9.98 2.418 2.524 1.613 4.36 4.238 5.52 7.875 1.156 3.64 1.734 8.555 1.734 14.758v.496q0 9.176-1.734 14.508-1.738 5.333-5.457 7.683-3.72 2.36-10.043 2.36-8.806 0-12.832-6.204"/></clipPath><clipPath id="c"><path d="M160 196h33v68h-33Zm0 0"/></clipPath><clipPath id="d"><path d="M176.75 200.133c-2.48 2.152-4.34 4.836-5.578 8.062h-.746l-1.238-9.797h-8.31v65.223h10.911V225.06q0-8.556 4.527-12.586c3.02-2.688 6.84-4.032 11.47-4.032h4.589v-10.539c-.246-.082-.93-.265-2.047-.558q-1.67-.435-3.781-.434-6.076 0-9.797 3.223"/></clipPath><clipPath id="e"><path d="M198 196h61v70h-61Zm0 0"/></clipPath><clipPath id="f"><path d="M205.766 205.281q-7.564 8.368-7.563 25.73 0 17.361 7.563 25.731 7.564 8.367 22.57 8.367 14.999 0 22.566-8.367 7.561-8.371 7.563-25.73c0-11.574-2.524-20.153-7.563-25.73-5.047-5.583-12.566-8.372-22.566-8.372q-15.006 0-22.57 8.371m8.183 45.008c-2.976-3.844-4.465-10.101-4.465-18.781v-.992q0-13.025 4.465-18.79c2.977-3.843 7.77-5.765 14.387-5.765q9.916 0 14.383 5.766 4.464 5.764 4.465 18.789v.992c0 8.68-1.489 14.937-4.465 18.781q-4.468 5.771-14.383 5.77-9.923.001-14.387-5.77"/></clipPath><clipPath id="g"><path d="M264 198h60v66h-60Zm0 0"/></clipPath><clipPath id="h"><path d="m312.281 198.398-11.406 32.614c-1.16 3.39-2.398 7.297-3.723 11.718q-1.98 6.632-2.601 8.739h-.621q-.622-2.232-2.727-9.051-2.11-6.82-3.723-11.406l-11.53-32.614h-11.532l23.934 65.223h10.91l23.933-65.223Zm0 0"/></clipPath><clipPath id="i"><path d="M333.113 173.969h10.914v12.152h-10.914Zm0 24.43h10.914v65.222h-10.914Zm0 0"/></clipPath><clipPath id="j"><path d="M360 196h88v68h-88Zm0 0"/></clipPath><clipPath id="k"><path d="M416.996 199.574c-3.594 1.781-6.508 4.32-8.738 7.63h-.746q-4.22-10.295-16.864-10.294-12.895 0-19.593 10.293h-.868l-1.238-8.805h-8.308v65.223h10.91V225.06c0-3.883.722-7.278 2.172-10.168q2.168-4.343 5.765-6.633 3.593-2.297 7.813-2.297 5.454 0 8.43 2.793 2.976 2.79 2.976 9.855v45.012h10.914V225.06c0-5.786 1.484-10.418 4.465-13.891q4.46-5.205 11.035-5.207 5.455 0 8.555 2.793 3.098 2.79 3.097 9.855v45.012h10.914v-46.996q0-19.716-19.218-19.715c-4.055 0-7.875.89-11.473 2.664"/></clipPath><clipPath id="l"><path d="M460 196h64v70h-64Zm0 0"/></clipPath><clipPath id="m"><path d="M470.379 201.621q-7.194 4.718-7.192 13.395 0 1.981.122 2.726h10.543v-1.488c0-2.89 1.136-5.332 3.41-7.316q3.41-2.977 11.343-2.977c5.622 0 9.508 1.016 11.657 3.039 2.148 2.027 3.226 4.941 3.226 8.742v7.192q-21.08 0-32.242 4.648-11.16 4.654-11.16 17.176c0 6.941 2.191 11.738 6.574 14.383q6.569 3.967 15.004 3.968 6.94 0 12.707-2.601c3.848-1.738 6.883-4.137 9.117-7.195h.867q.99 4.22 3.844 6.757c1.899 1.696 4.258 2.543 7.067 2.543 3.472 0 6.28-.496 8.433-1.488v-7.066h-4.96q-1.86 0-3.102-1.055-1.238-1.052-1.239-3.285v-35.34q0-9.298-6.324-14.383t-18.476-5.086q-12.03 0-19.22 4.711m4.403 52.145c-2.191-1.532-3.285-4.07-3.285-7.63q-.001-7.065 7.996-9.609c5.332-1.691 13.332-2.543 23.996-2.543v4.715c0 3.719-.914 6.88-2.73 9.485a17.2 17.2 0 0 1-7.067 5.89q-4.341 1.985-9.175 1.985-6.452-.001-9.735-2.293"/></clipPath><clipPath id="n"><path d="M528 173h58v93h-58Zm0 0"/></clipPath><clipPath id="o"><path d="M574.29 173.969v31.87h-.743c-2.152-3.144-4.836-5.413-8.059-6.82q-4.838-2.109-11.781-2.109-11.53 0-18.168 8.496-6.633 8.49-6.633 25.606c0 11.652 2.235 20.254 6.696 25.789 4.464 5.543 10.828 8.308 19.097 8.308q6.445 0 11.719-2.601c3.512-1.738 6.344-4.297 8.492-7.692h.746l1.364 8.805h8.183V173.97Zm-26.907 79.73q-3.718-2.35-5.457-7.683-1.734-5.332-1.735-14.508v-.496c0-6.203.579-11.117 1.735-14.758 1.16-3.637 2.996-6.262 5.52-7.875q3.78-2.417 9.98-2.418c5.789 0 10.043 2.11 12.773 6.324 2.727 4.219 4.09 10.457 4.09 18.727v.496c0 8.097-1.344 14.219-4.027 18.347q-4.03 6.205-12.836 6.204-6.323 0-10.043-2.36"/></clipPath><clipPath id="p"><path d="M31 34h163v162H31Zm0 0"/></clipPath><clipPath id="q"><path d="M67.191 34.68c-19.453 0-35.222 15.765-35.222 35.218v110.875c0 8.368 6.785 15.149 15.152 15.149 3.399 0 6.535-1.121 9.063-3.016l36.418-49.508 65.375-.07c19.421 0 35.164-15.746 35.164-35.164l.054-38.266c0-19.453-15.77-35.218-35.218-35.218Zm-20.07 35.21c0-11.128 9.024-20.156 20.152-20.156h90.79c11.128 0 20.152 9.028 20.152 20.157l-.082 38.273c0 11.129-9.028 20.156-20.156 20.156H87.57l-40.449 52.32Zm0 0"/></clipPath><clipPath id="r"><path d="M93 300h19v21H93Zm0 0"/></clipPath><clipPath id="s"><path d="M97.781 300.945c-1.172.403-2.078.996-2.722 1.79q-.969 1.189-.97 2.94v.438c0 .121.013.246.04.364h3.105v-.547q-.002-.801.383-1.461.383-.657 1.352-1.078.967-.418 2.61-.418 1.715 0 2.648.418c.625.28 1.054.675 1.296 1.187q.37.768.368 1.828v2.192q-2.742 0-5.079.273c-1.558.184-2.906.512-4.035.988q-1.698.71-2.648 1.989c-.637.851-.95 1.937-.95 3.25 0 1.05.18 1.918.548 2.613q.546 1.042 1.46 1.629.914.581 1.973.84a9.1 9.1 0 0 0 2.117.254c.977 0 1.875-.122 2.703-.368a8 8 0 0 0 2.247-1.039 6.4 6.4 0 0 0 1.664-1.59h.257c.07.56.22 1.067.438 1.516q.328.679.95 1.059.62.387 1.57.386a5.4 5.4 0 0 0 1.425-.168 8 8 0 0 0 1.133-.382v-2.118h-1.426a1.2 1.2 0 0 1-.804-.273q-.33-.277-.329-.969v-10.41q0-1.793-.82-3.07-.825-1.277-2.45-1.973c-1.081-.46-2.429-.691-4.034-.691q-2.268-.001-4.02.601m.438 16.473q-.803-.31-1.242-.93t-.438-1.605q0-1.536 1.113-2.38c.743-.558 1.809-.944 3.2-1.167q2.08-.328 5.039-.328v1.61q0 1.13-.477 2.081a5.1 5.1 0 0 1-1.277 1.625 5.8 5.8 0 0 1-1.844 1.04 6.6 6.6 0 0 1-2.211.366c-.707 0-1.328-.101-1.863-.312"/></clipPath><clipPath id="t"><path d="M112 297h20v30h-20Zm0 0"/></clipPath><clipPath id="u"><path d="M128.688 297.676c-.098.633-.364 1.254-.786 1.863-.43.61-1.066 1.106-1.922 1.496a7.2 7.2 0 0 0-1.824-.527 14 14 0 0 0-2.191-.164q-2.56-.001-4.328.8c-1.184.536-2.059 1.266-2.633 2.192-.57.926-.86 2-.86 3.215 0 1.023.243 1.957.715 2.797a5.9 5.9 0 0 0 1.954 2.062c-.903.195-1.66.586-2.282 1.168a2.85 2.85 0 0 0-.933 2.156q.001.95.511 1.735.511.787 1.426 1.222a5.5 5.5 0 0 0-2.137 1.575q-.895 1.059-.894 2.664 0 1.463.691 2.523a4.57 4.57 0 0 0 1.868 1.625q1.165.568 2.554.567h7.856q1.864 0 3.265-.75 1.408-.749 2.196-2.008.785-1.26.785-2.832-.002-2.191-1.352-3.598-1.352-1.406-3.472-1.406h-7.817q-.984 0-1.605-.457t-.621-1.188c0-.558.207-.969.62-1.222.415-.258.95-.383 1.606-.383h2.996q2.593-.001 4.309-.805t2.578-2.21c.57-.938.86-2.016.86-3.235 0-.852-.157-1.64-.462-2.371a5.75 5.75 0 0 0-1.367-1.977q1.207-.217 2.043-.855a4.6 4.6 0 0 0 1.336-1.61 4.5 4.5 0 0 0 .492-2.062Zm-9.282 12.238c-.68-.316-1.191-.77-1.535-1.351q-.511-.88-.512-2.012.002-1.752 1.153-2.778 1.153-1.02 3.488-1.02 2.337 0 3.473 1.02 1.132 1.026 1.132 2.778 0 1.793-1.132 2.812-1.136 1.025-3.473 1.024-1.57 0-2.594-.473m-2.847 13.55q-.805-.728-.805-1.937c0-.754.27-1.39.805-1.918.535-.52 1.191-.785 1.972-.785h7.38c.73 0 1.335.246 1.823.735q.734.726.735 1.968c0 .489-.137.942-.403 1.356q-.405.62-1.097.965-.692.346-1.535.347h-6.903q-1.17.001-1.972-.73"/></clipPath><clipPath id="v"><path d="M133 300h18v21h-18Zm0 0"/></clipPath><clipPath id="w"><path d="M137.563 301.418q-1.976 1.079-2.977 3.289-1.006 2.21-1.004 5.68c0 2.289.332 4.18 1.004 5.664q1.004 2.226 2.957 3.304 1.957 1.08 4.805 1.079 1.973-.001 3.507-.512t2.594-1.426a5.9 5.9 0 0 0 1.606-2.21c.367-.864.562-1.81.586-2.829H147.5a5.1 5.1 0 0 1-.367 1.754q-.327.801-.969 1.387-.64.584-1.57.894-.93.312-2.172.313-1.829-.001-3.031-.676-1.207-.68-1.809-2.156c-.402-.989-.629-2.246-.676-3.782h13.809v-1.535q-.001-3.105-.934-5.168-.93-2.062-2.758-3.105-1.825-1.041-4.53-1.04-2.956-.002-4.93 1.075m.183 4.074q.622-1.277 1.79-1.898c.776-.414 1.73-.621 2.847-.621q1.137-.001 2.027.308a4.04 4.04 0 0 1 1.574 1.004q.675.698 1.04 1.793.368 1.096.367 2.703h-10.414q.147-2.01.77-3.289"/></clipPath><clipPath id="x"><path d="M154 300h17v20h-17Zm0 0"/></clipPath><clipPath id="y"><path d="M161.727 300.688c-.79.234-1.508.59-2.153 1.078q-.971.731-1.738 1.898h-.254l-.293-2.883h-2.594v19.215h3.215v-11.289q0-1.718.711-2.96c.477-.825 1.113-1.462 1.918-1.9a5.3 5.3 0 0 1 2.559-.656q.915.001 1.66.184c.5.121.93.328 1.281.621q.529.436.84 1.203t.309 1.973v12.824h3.214v-13.262q0-2.373-.785-3.761-.786-1.388-2.152-2.008-1.37-.621-3.2-.621c-.902 0-1.745.113-2.538.344"/></clipPath><clipPath id="z"><path d="M173 295h10v26h-10Zm0 0"/></clipPath><clipPath id="A"><path d="m176.504 295.41-.586 5.371h-2.555v2.703h2.485v12.895q0 1.059.363 1.988a3.15 3.15 0 0 0 1.207 1.5c.559.375 1.34.567 2.336.567a6 6 0 0 0 1.008-.09q.528-.094 1.039-.203c.34-.075.633-.168.875-.293v-2.118h-2.043q-.915 0-1.242-.457-.329-.456-.328-1.37v-12.419h3.613v-2.703h-3.613v-5.37Zm0 0"/></clipPath><clipPath id="B"><path d="M185 300h18v21h-18Zm0 0"/></clipPath><clipPath id="C"><path d="M188.996 301.418q-1.969 1.079-2.976 3.289-1.003 2.21-1.004 5.68c0 2.289.336 4.18 1.004 5.664q1.005 2.226 2.96 3.304 1.953 1.08 4.801 1.079 1.977-.001 3.508-.512 1.535-.511 2.594-1.426a5.9 5.9 0 0 0 1.61-2.21 7.7 7.7 0 0 0 .581-2.829h-3.14a5.2 5.2 0 0 1-.364 1.754 3.9 3.9 0 0 1-.968 1.387c-.426.39-.954.687-1.575.894q-.927.312-2.172.313-1.825-.001-3.03-.676-1.207-.68-1.81-2.156c-.402-.989-.628-2.246-.675-3.782h13.808v-1.535q.002-3.105-.93-5.168c-.62-1.375-1.542-2.41-2.757-3.105-1.223-.695-2.73-1.04-4.531-1.04q-2.96-.002-4.934 1.075m.184 4.074q.621-1.277 1.789-1.898 1.17-.621 2.851-.621 1.131-.001 2.028.308a4 4 0 0 1 1.57 1.004q.674.698 1.043 1.793.363 1.096.363 2.703h-10.41q.143-2.01.766-3.289"/></clipPath><clipPath id="D"><path d="M212 293h18v28h-18Zm0 0"/></clipPath><clipPath id="E"><path d="M226.223 293.582v9.61h-.22q-.658-1.022-1.519-1.645a5.9 5.9 0 0 0-1.953-.914 9.2 9.2 0 0 0-2.375-.29c-1.484 0-2.789.352-3.906 1.06q-1.683 1.058-2.633 3.25-.95 2.19-.949 5.59 0 3.578.934 5.827.93 2.244 2.628 3.305c1.133.703 2.489 1.059 4.075 1.059q1.863 0 3.433-.786 1.57-.784 2.559-2.394h.254l.293 2.742h2.594v-26.414Zm-7.91 23.383c-.743-.442-1.31-1.164-1.7-2.176q-.584-1.517-.582-4v-.766q-.002-2.413.547-3.93c.363-1.007.926-1.75 1.68-2.226q1.132-.714 2.922-.715 1.024 0 1.937.332c.61.22 1.145.594 1.606 1.13q.695.807 1.097 2.156c.266.902.403 2.011.403 3.324v.586q.001 2.267-.532 3.797c-.351 1.027-.906 1.804-1.66 2.34-.758.535-1.742.804-2.96.804q-1.643 0-2.758-.656"/></clipPath><clipPath id="F"><path d="M234.477 293.582h3.214v3.582h-3.214Zm0 7.2h3.214v19.214h-3.214Zm0 0"/></clipPath><clipPath id="G"><path d="M240 297h21v30h-21Zm0 0"/></clipPath><clipPath id="H"><path d="M257.016 297.676q-.147.95-.786 1.863c-.425.61-1.066 1.106-1.918 1.496a7.2 7.2 0 0 0-1.828-.527q-1.02-.165-2.191-.164-2.556-.001-4.328.8-1.772.804-2.63 2.192-.859 1.39-.858 3.215.001 1.536.71 2.797a5.9 5.9 0 0 0 1.958 2.062q-1.354.294-2.286 1.168a2.85 2.85 0 0 0-.93 2.156q-.001.95.512 1.735c.34.523.817.933 1.422 1.222a5.55 5.55 0 0 0-2.136 1.575q-.893 1.059-.895 2.664-.001 1.463.695 2.523a4.54 4.54 0 0 0 1.864 1.625q1.166.568 2.554.567h7.856q1.863 0 3.27-.75 1.406-.749 2.19-2.008.786-1.26.786-2.832 0-2.191-1.352-3.598-1.347-1.406-3.468-1.406h-7.82q-.985 0-1.606-.457t-.621-1.188c0-.558.207-.969.62-1.222.415-.258.95-.383 1.606-.383h2.996q2.595-.001 4.313-.805t2.574-2.21q.86-1.407.86-3.235 0-1.276-.458-2.371a5.8 5.8 0 0 0-1.37-1.977q1.207-.217 2.046-.855a4.6 4.6 0 0 0 1.332-1.61 4.44 4.44 0 0 0 .496-2.062Zm-9.278 12.238c-.683-.316-1.195-.77-1.535-1.351q-.514-.88-.512-2.012-.001-1.752 1.153-2.778 1.15-1.02 3.488-1.02t3.469 1.02q1.132 1.026 1.133 2.778-.002 1.793-1.133 2.812-1.13 1.025-3.469 1.024-1.575 0-2.594-.473m-2.851 13.55q-.802-.728-.801-1.937c0-.754.266-1.39.8-1.918.54-.52 1.196-.785 1.973-.785h7.38q1.096 0 1.827.735.732.726.73 1.968.001.734-.401 1.356c-.27.414-.633.734-1.098.965a3.4 3.4 0 0 1-1.531.347h-6.907q-1.164.001-1.972-.73"/></clipPath><clipPath id="I"><path d="M263.008 293.582h3.215v3.582h-3.215Zm0 7.2h3.215v19.214h-3.215Zm0 0"/></clipPath><clipPath id="J"><path d="M269 295h10v26h-10Zm0 0"/></clipPath><clipPath id="K"><path d="m272.469 295.41-.586 5.371h-2.555v2.703h2.485v12.895q0 1.059.363 1.988a3.15 3.15 0 0 0 1.207 1.5c.558.375 1.336.567 2.336.567q.475-.002 1.004-.09.533-.094 1.043-.203c.34-.075.632-.168.875-.293v-2.118h-2.043q-.915 0-1.243-.457c-.222-.304-.328-.761-.328-1.37v-12.419h3.614v-2.703h-3.614v-5.37Zm0 0"/></clipPath><clipPath id="L"><path d="M280 300h20v21h-20Zm0 0"/></clipPath><clipPath id="M"><path d="M285.398 300.945c-1.168.403-2.074.996-2.718 1.79q-.972 1.189-.97 2.94v.438c0 .121.013.246.036.364h3.106v-.547q0-.801.382-1.461.386-.657 1.352-1.078.967-.418 2.613-.418 1.717 0 2.649.418.928.42 1.297 1.187c.242.512.367 1.121.367 1.828v2.192c-1.828 0-3.524.09-5.078.273-1.563.184-2.907.512-4.04.988q-1.698.71-2.648 1.989c-.633.851-.95 1.937-.95 3.25 0 1.05.184 1.918.548 2.613q.55 1.042 1.465 1.629a6.5 6.5 0 0 0 1.968.84 9.2 9.2 0 0 0 2.121.254q1.46 0 2.704-.368a8 8 0 0 0 2.246-1.039 6.5 6.5 0 0 0 1.664-1.59h.254a5 5 0 0 0 .437 1.516q.328.679.95 1.059.619.387 1.574.386a5.4 5.4 0 0 0 1.421-.168q.622-.162 1.133-.382v-2.118h-1.426a1.2 1.2 0 0 1-.8-.273q-.329-.277-.328-.969v-10.41c0-1.195-.278-2.219-.825-3.07q-.82-1.277-2.449-1.973-1.622-.69-4.035-.691c-1.512 0-2.848.199-4.02.601m.442 16.473c-.54-.207-.95-.516-1.242-.93q-.44-.621-.442-1.605c0-1.024.375-1.817 1.117-2.38.743-.558 1.805-.944 3.196-1.167q2.078-.328 5.043-.328v1.61q0 1.13-.477 2.081a5.1 5.1 0 0 1-1.277 1.625 5.8 5.8 0 0 1-1.848 1.04 6.5 6.5 0 0 1-2.207.366c-.707 0-1.328-.101-1.863-.312"/></clipPath><clipPath id="N"><path d="M301.984 293.582h3.215v26.414h-3.215Zm0 0"/></clipPath><clipPath id="O"><path d="M310.203 293.582h3.215v3.582h-3.215Zm0 7.2h3.215v19.214h-3.215Zm0 0"/></clipPath><clipPath id="P"><path d="M317 300h16v20h-16Zm0 0"/></clipPath><clipPath id="Q"><path d="M317.8 300.781v2.703h9.938l-10.703 14.793v1.72h15.89v-2.704h-11.323l10.738-14.832v-1.68Zm0 0"/></clipPath><clipPath id="R"><path d="M334 300h20v21h-20Zm0 0"/></clipPath><clipPath id="S"><path d="M339.21 300.945c-1.17.403-2.077.996-2.722 1.79q-.967 1.189-.968 2.94v.438c0 .121.011.246.035.364h3.105v-.547q0-.801.387-1.461.38-.657 1.348-1.078.966-.418 2.613-.418 1.716 0 2.648.418.933.42 1.297 1.187c.242.512.367 1.121.367 1.828v2.192q-2.742 0-5.078.273-2.338.275-4.039.988c-1.133.473-2.012 1.137-2.648 1.989-.633.851-.95 1.937-.95 3.25 0 1.05.184 1.918.551 2.613q.548 1.042 1.457 1.629a6.6 6.6 0 0 0 1.977.84q1.055.253 2.117.254 1.46 0 2.703-.368a8.1 8.1 0 0 0 2.246-1.039 6.5 6.5 0 0 0 1.664-1.59h.254a5 5 0 0 0 .438 1.516q.327.679.953 1.059c.414.258.933.386 1.57.386a5.4 5.4 0 0 0 1.422-.168q.622-.162 1.133-.382v-2.118h-1.426a1.2 1.2 0 0 1-.8-.273q-.33-.277-.329-.969v-10.41q.001-1.793-.824-3.07-.821-1.277-2.445-1.973c-1.086-.46-2.43-.691-4.04-.691q-2.265-.001-4.015.601m.437 16.473q-.808-.31-1.242-.93-.438-.621-.437-1.605 0-1.536 1.113-2.38c.742-.558 1.809-.944 3.195-1.167q2.082-.328 5.043-.328v1.61q-.001 1.13-.476 2.081a5.1 5.1 0 0 1-1.278 1.625q-.807.675-1.843 1.04a6.6 6.6 0 0 1-2.211.366c-.707 0-1.328-.101-1.864-.312"/></clipPath><clipPath id="T"><path d="M354 293h18v28h-18Zm0 0"/></clipPath><clipPath id="U"><path d="M368.25 293.582v9.61h-.219c-.437-.68-.945-1.231-1.515-1.645a5.9 5.9 0 0 0-1.954-.914 9.2 9.2 0 0 0-2.375-.29q-2.23-.001-3.91 1.06-1.68 1.058-2.629 3.25-.949 2.19-.949 5.59 0 3.578.93 5.827c.621 1.496 1.5 2.598 2.629 3.305 1.133.703 2.492 1.059 4.074 1.059q1.863 0 3.434-.786c1.046-.523 1.902-1.32 2.558-2.394h.254l.293 2.742h2.594v-26.414Zm-7.906 23.383c-.746-.442-1.313-1.164-1.7-2.176q-.585-1.517-.585-4v-.766q0-2.413.546-3.93.55-1.511 1.68-2.226c.758-.476 1.73-.715 2.926-.715q1.02 0 1.934.332c.609.22 1.144.594 1.609 1.13q.691.807 1.098 2.156.398 1.354.398 3.324v.586q0 2.267-.527 3.797c-.356 1.027-.91 1.804-1.664 2.34s-1.743.804-2.957.804q-1.646 0-2.758-.656"/></clipPath><clipPath id="V"><path d="M375 300h19v21h-19Zm0 0"/></clipPath><clipPath id="W"><path d="M379.484 301.418q-1.992 1.079-3.035 3.289-1.038 2.21-1.039 5.68c0 2.289.348 4.18 1.04 5.664q1.042 2.226 3.034 3.304 1.993 1.08 4.91 1.079 2.926 0 4.915-1.079 1.991-1.078 3.015-3.304c.68-1.485 1.024-3.375 1.024-5.664 0-2.313-.344-4.207-1.024-5.68q-1.024-2.21-3.015-3.289c-1.325-.719-2.965-1.074-4.914-1.074-1.946 0-3.582.355-4.91 1.074M381.272 317q-1.26-.73-1.882-2.281c-.414-1.035-.621-2.348-.621-3.93v-.805q0-2.408.62-3.945.624-1.531 1.883-2.266 1.26-.726 3.122-.726 1.864 0 3.109.726c.824.489 1.453 1.247 1.879 2.266q.64 1.537.64 3.945v.805c0 1.582-.214 2.895-.64 3.93q-.64 1.55-1.88 2.281c-.827.488-1.866.73-3.108.73q-1.863.001-3.122-.73"/></clipPath><clipPath id="X"><path d="M397 300h10v20h-10Zm0 0"/></clipPath><clipPath id="Y"><path d="M402.66 300.871a4.14 4.14 0 0 0-1.387 1.352 7.9 7.9 0 0 0-.804 1.734h-.254l-.293-3.176h-2.594v19.215h3.215v-10.703q0-1.207.273-2.266.276-1.06.86-1.828a3.9 3.9 0 0 1 1.48-1.187c.594-.278 1.309-.418 2.137-.418h1.203v-2.961a2.9 2.9 0 0 0-.676-.2 5 5 0 0 0-1.004-.09q-1.277 0-2.156.528"/></clipPath><clipPath id="Z"><path d="M415 300h19v21h-19Zm0 0"/></clipPath><clipPath id="aa"><path d="M419.684 300.945c-1.168.403-2.075.996-2.72 1.79-.648.792-.968 1.773-.968 2.94v.438c0 .121.012.246.035.364h3.106v-.547q.001-.801.383-1.461.385-.657 1.351-1.078.967-.418 2.613-.418 1.717 0 2.649.418.932.42 1.297 1.187t.367 1.828v2.192q-2.744 0-5.082.273-2.334.275-4.035.988-1.7.71-2.649 1.989c-.633.851-.949 1.937-.949 3.25 0 1.05.184 1.918.547 2.613.367.695.851 1.238 1.46 1.629a6.6 6.6 0 0 0 1.974.84 9.2 9.2 0 0 0 2.12.254q1.46 0 2.704-.368a8.1 8.1 0 0 0 2.246-1.039 6.5 6.5 0 0 0 1.664-1.59h.254c.07.56.219 1.067.437 1.516q.328.679.95 1.059.62.387 1.574.386a5.4 5.4 0 0 0 1.422-.168q.622-.162 1.132-.382v-2.118h-1.425a1.2 1.2 0 0 1-.801-.273c-.223-.184-.328-.508-.328-.969v-10.41c0-1.195-.278-2.219-.825-3.07q-.82-1.277-2.449-1.973c-1.082-.46-2.43-.691-4.035-.691q-2.267-.001-4.02.601m.438 16.473q-.804-.31-1.238-.93-.44-.621-.442-1.605 0-1.536 1.118-2.38c.742-.558 1.808-.944 3.195-1.167q2.079-.328 5.043-.328v1.61q0 1.13-.477 2.081a5 5 0 0 1-1.28 1.625 5.8 5.8 0 0 1-1.845 1.04 6.5 6.5 0 0 1-2.207.366c-.71 0-1.332-.101-1.867-.312"/></clipPath><clipPath id="ab"><path d="M436 300h16v21h-16Zm0 0"/></clipPath><clipPath id="ac"><path d="M448.578 300.781v11.285c0 1.122-.246 2.102-.746 2.942q-.75 1.26-1.918 1.918a5.15 5.15 0 0 1-2.559.66 7 7 0 0 1-1.625-.184c-.5-.12-.93-.332-1.296-.62-.368-.294-.645-.696-.84-1.208q-.293-.767-.293-1.972v-12.82h-3.215v13.257q.002 3.545 1.68 4.969 1.679 1.428 4.46 1.426 1.35-.002 2.536-.348a6.6 6.6 0 0 0 2.156-1.078q.967-.732 1.734-1.899h.258l.29 2.887h2.597v-19.215Zm0 0"/></clipPath><clipPath id="ad"><path d="M454 295h11v26h-11Zm0 0"/></clipPath><clipPath id="ae"><path d="m458.043 295.41-.586 5.371h-2.559v2.703h2.485v12.895c0 .707.125 1.367.367 1.988a3.17 3.17 0 0 0 1.203 1.5c.563.375 1.34.567 2.34.567q.475-.002 1.004-.09.527-.094 1.043-.203c.34-.075.633-.168.875-.293v-2.118h-2.043c-.613 0-1.024-.152-1.242-.457q-.331-.456-.332-1.37v-12.419h3.617v-2.703h-3.617v-5.37Zm0 0"/></clipPath><clipPath id="af"><path d="M466 300h19v21h-19Zm0 0"/></clipPath><clipPath id="ag"><path d="M470.629 301.418q-1.992 1.079-3.035 3.289c-.696 1.473-1.04 3.367-1.04 5.68 0 2.289.344 4.18 1.04 5.664q1.043 2.226 3.035 3.304c1.324.72 2.965 1.079 4.91 1.079q2.923 0 4.914-1.079t3.016-3.304q1.02-2.229 1.02-5.664 0-3.47-1.02-5.68-1.025-2.21-3.016-3.289c-1.328-.719-2.965-1.074-4.914-1.074-1.945 0-3.586.355-4.91 1.074M472.418 317q-1.261-.73-1.883-2.281c-.414-1.035-.62-2.348-.62-3.93v-.805q0-2.408.62-3.945.622-1.531 1.883-2.266 1.259-.726 3.121-.726t3.106.726c.828.489 1.457 1.247 1.882 2.266q.638 1.537.637 3.945v.805c0 1.582-.21 2.895-.637 3.93q-.639 1.55-1.882 2.281t-3.106.73q-1.862.001-3.121-.73"/></clipPath><clipPath id="ah"><path d="M488 300h10v20h-10Zm0 0"/></clipPath><clipPath id="ai"><path d="M493.805 300.871a4.14 4.14 0 0 0-1.387 1.352 7.7 7.7 0 0 0-.805 1.734h-.254l-.293-3.176h-2.593v19.215h3.214v-10.703q-.001-1.207.274-2.266.275-1.06.86-1.828a3.9 3.9 0 0 1 1.48-1.187q.89-.418 2.133-.418h1.207v-2.961a2.9 2.9 0 0 0-.676-.2 5 5 0 0 0-1.004-.09c-.856 0-1.57.177-2.156.528"/></clipPath><clipPath id="aj"><path d="M500.602 293.582h3.214v3.582h-3.214Zm0 7.2h3.214v19.214h-3.214Zm0 0"/></clipPath><clipPath id="ak"><path d="M507 300h17v20h-17Zm0 0"/></clipPath><clipPath id="al"><path d="M508.2 300.781v2.703h9.933l-10.703 14.793v1.72h15.89v-2.704h-11.324l10.738-14.832v-1.68Zm0 0"/></clipPath><clipPath id="am"><path d="M525 300h19v21h-19Zm0 0"/></clipPath><clipPath id="an"><path d="M529.605 300.945c-1.168.403-2.078.996-2.722 1.79q-.968 1.189-.969 2.94v.438c0 .121.012.246.035.364h3.11v-.547q-.002-.801.382-1.461.383-.657 1.352-1.078.967-.418 2.61-.418 1.717 0 2.652.418.93.42 1.293 1.187.368.768.367 1.828v2.192q-2.742 0-5.078.273-2.338.275-4.035.988-1.698.71-2.653 1.989c-.633.851-.949 1.937-.949 3.25 0 1.05.184 1.918.55 2.613q.547 1.042 1.462 1.629a6.5 6.5 0 0 0 1.972.84c.707.168 1.41.254 2.118.254q1.46 0 2.703-.368a8.1 8.1 0 0 0 2.25-1.039 6.5 6.5 0 0 0 1.66-1.59h.254a5 5 0 0 0 .437 1.516q.334.679.953 1.059.621.387 1.57.386a5.4 5.4 0 0 0 1.423-.168q.621-.162 1.136-.382v-2.118h-1.426a1.2 1.2 0 0 1-.804-.273q-.328-.277-.328-.969v-10.41q0-1.793-.825-3.07-.82-1.277-2.445-1.973-1.627-.69-4.039-.691-2.263-.001-4.016.601m.438 16.473q-.803-.31-1.242-.93t-.438-1.605q0-1.536 1.114-2.38c.742-.558 1.808-.944 3.195-1.167q2.084-.328 5.043-.328v1.61q0 1.13-.477 2.081a5.1 5.1 0 0 1-1.277 1.625 5.8 5.8 0 0 1-1.844 1.04 6.6 6.6 0 0 1-2.21.366c-.708 0-1.329-.101-1.864-.312"/></clipPath><clipPath id="ao"><path d="M545 293h17v28h-17Zm0 0"/></clipPath><clipPath id="ap"><path d="M558.645 293.582v9.61h-.22q-.654-1.022-1.515-1.645a5.9 5.9 0 0 0-1.953-.914 9.2 9.2 0 0 0-2.375-.29c-1.484 0-2.789.352-3.906 1.06q-1.683 1.058-2.633 3.25-.95 2.19-.95 5.59-.001 3.578.934 5.827.928 2.244 2.63 3.305c1.132.703 2.488 1.059 4.073 1.059 1.243 0 2.383-.262 3.43-.786q1.575-.784 2.559-2.394h.258l.289 2.742h2.593v-26.414Zm-7.907 23.383c-.742-.442-1.308-1.164-1.699-2.176q-.586-1.517-.586-4v-.766q0-2.413.55-3.93c.364-1.007.927-1.75 1.68-2.226q1.131-.714 2.922-.715c.68 0 1.329.11 1.934.332.61.22 1.145.594 1.61 1.13q.692.807 1.097 2.156.399 1.354.399 3.324v.586q0 2.267-.528 3.797c-.355 1.027-.906 1.804-1.664 2.34q-1.13.803-2.957.804-1.646 0-2.758-.656"/></clipPath><clipPath id="aq"><path d="M565 300h19v21h-19Zm0 0"/></clipPath><clipPath id="ar"><path d="M569.879 301.418q-1.993 1.079-3.031 3.289-1.043 2.21-1.043 5.68c0 2.289.347 4.18 1.043 5.664q1.038 2.226 3.03 3.304 1.992 1.08 4.915 1.079c1.945 0 3.586-.36 4.91-1.079q1.991-1.078 3.016-3.304 1.024-2.229 1.023-5.664 0-3.47-1.023-5.68-1.025-2.21-3.016-3.289c-1.324-.719-2.965-1.074-4.91-1.074-1.95 0-3.586.355-4.914 1.074M571.668 317q-1.261-.73-1.883-2.281c-.414-1.035-.62-2.348-.62-3.93v-.805q0-2.408.62-3.945.622-1.531 1.883-2.266 1.261-.726 3.125-.726 1.863 0 3.105.726c.825.489 1.454 1.247 1.88 2.266q.639 1.537.64 3.945v.805c0 1.582-.215 2.895-.64 3.93q-.64 1.55-1.88 2.281-1.242.731-3.105.73-1.864.001-3.125-.73"/></clipPath></defs><g clip-path="url(#a)"><g clip-path="url(#b)"><path fill="#73308b" d="M91.938 285.074V196.91h56.292v88.164Zm0 0"/></g></g><g clip-path="url(#c)"><g clip-path="url(#d)"><path fill="#73308b" d="M160.879 263.621v-66.71h31.496v66.71Zm0 0"/></g></g><g clip-path="url(#e)"><g clip-path="url(#f)"><path fill="#73308b" d="M198.203 265.11v-68.2h60.262v68.2Zm0 0"/></g></g><g clip-path="url(#g)"><g clip-path="url(#h)"><path fill="#73308b" d="M264.418 263.621v-65.223h58.777v65.223Zm0 0"/></g></g><g clip-path="url(#i)"><path fill="#73308b" d="M333.113 263.621V173.97h10.914v89.652Zm0 0"/></g><g clip-path="url(#j)"><g clip-path="url(#k)"><path fill="#73308b" d="M360.64 263.621v-66.71h87.048v66.71Zm0 0"/></g></g><g clip-path="url(#l)"><g clip-path="url(#m)"><path fill="#73308b" d="M460.086 265.11v-68.2h63.613v68.2Zm0 0"/></g></g><g clip-path="url(#n)"><g clip-path="url(#o)"><path fill="#73308b" d="M528.906 265.11v-91.141h56.297v91.14Zm0 0"/></g></g><g clip-path="url(#p)"><g clip-path="url(#q)"><path fill="#73308b" d="M31.969 195.922V34.68h161.226v161.242Zm0 0"/></g></g><g clip-path="url(#r)"><g clip-path="url(#s)"><path fill="#73308b" d="M93.18 300.344v20.09h18.484v-20.09Zm0 0"/></g></g><g clip-path="url(#t)"><g clip-path="url(#u)"><path fill="#73308b" d="M112.504 297.676v28.969h19.36v-28.97Zm0 0"/></g></g><g clip-path="url(#v)"><g clip-path="url(#w)"><path fill="#73308b" d="M133.582 300.344v20.09h17.133v-20.09Zm0 0"/></g></g><g clip-path="url(#x)"><g clip-path="url(#y)"><path fill="#73308b" d="M154.695 300.344v19.652h15.707v-19.652Zm0 0"/></g></g><g clip-path="url(#z)"><g clip-path="url(#A)"><path fill="#73308b" d="M173.363 295.41v25.024h9.313V295.41Zm0 0"/></g></g><g clip-path="url(#B)"><g clip-path="url(#C)"><path fill="#73308b" d="M185.016 300.344v20.09h17.132v-20.09Zm0 0"/></g></g><g clip-path="url(#D)"><g clip-path="url(#E)"><path fill="#73308b" d="M212.668 293.582v26.852h16.77v-26.852Zm0 0"/></g></g><g clip-path="url(#F)"><path fill="#73308b" d="M234.477 293.582v26.414h3.214v-26.414Zm0 0"/></g><g clip-path="url(#G)"><g clip-path="url(#H)"><path fill="#73308b" d="M240.832 297.676v28.969h19.363v-28.97Zm0 0"/></g></g><g clip-path="url(#I)"><path fill="#73308b" d="M263.008 293.582v26.414h3.215v-26.414Zm0 0"/></g><g clip-path="url(#J)"><g clip-path="url(#K)"><path fill="#73308b" d="M269.328 295.41v25.024h9.313V295.41Zm0 0"/></g></g><g clip-path="url(#L)"><g clip-path="url(#M)"><path fill="#73308b" d="M280.797 300.344v20.09h18.484v-20.09Zm0 0"/></g></g><g clip-path="url(#N)"><path fill="#73308b" d="M301.984 293.582v26.414h3.215v-26.414Zm0 0"/></g><g clip-path="url(#O)"><path fill="#73308b" d="M310.203 293.582v26.414h3.215v-26.414Zm0 0"/></g><g clip-path="url(#P)"><g clip-path="url(#Q)"><path fill="#73308b" d="M317.035 300.781v19.215h15.89v-19.215Zm0 0"/></g></g><g clip-path="url(#R)"><g clip-path="url(#S)"><path fill="#73308b" d="M334.605 300.344v20.09h18.485v-20.09Zm0 0"/></g></g><g clip-path="url(#T)"><g clip-path="url(#U)"><path fill="#73308b" d="M354.7 293.582v26.852h16.765v-26.852Zm0 0"/></g></g><g clip-path="url(#V)"><g clip-path="url(#W)"><path fill="#73308b" d="M375.41 300.344v20.09h17.938v-20.09Zm0 0"/></g></g><g clip-path="url(#X)"><g clip-path="url(#Y)"><path fill="#73308b" d="M397.328 300.344v19.652h9.168v-19.652Zm0 0"/></g></g><g clip-path="url(#Z)"><g clip-path="url(#aa)"><path fill="#73308b" d="M415.082 300.344v20.09h18.484v-20.09Zm0 0"/></g></g><g clip-path="url(#ab)"><g clip-path="url(#ac)"><path fill="#73308b" d="M436.086 300.781v19.653h15.71V300.78Zm0 0"/></g></g><g clip-path="url(#ad)"><g clip-path="url(#ae)"><path fill="#73308b" d="M454.898 295.41v25.024h9.317V295.41Zm0 0"/></g></g><g clip-path="url(#af)"><g clip-path="url(#ag)"><path fill="#73308b" d="M466.555 300.344v20.09h17.933v-20.09Zm0 0"/></g></g><g clip-path="url(#ah)"><g clip-path="url(#ai)"><path fill="#73308b" d="M488.473 300.344v19.652h9.168v-19.652Zm0 0"/></g></g><g clip-path="url(#aj)"><path fill="#73308b" d="M500.602 293.582v26.414h3.214v-26.414Zm0 0"/></g><g clip-path="url(#ak)"><g clip-path="url(#al)"><path fill="#73308b" d="M507.43 300.781v19.215h15.89v-19.215Zm0 0"/></g></g><g clip-path="url(#am)"><g clip-path="url(#an)"><path fill="#73308b" d="M525 300.344v20.09h18.488v-20.09Zm0 0"/></g></g><g clip-path="url(#ao)"><g clip-path="url(#ap)"><path fill="#73308b" d="M545.094 293.582v26.852h16.765v-26.852Zm0 0"/></g></g><g clip-path="url(#aq)"><g clip-path="url(#ar)"><path fill="#73308b" d="M565.805 300.344v20.09h17.937v-20.09Zm0 0"/></g></g></svg>