<svg xmlns="http://www.w3.org/2000/svg" xml:space="preserve" viewBox="0 0 500 90.8"><style>.logo_color_1{fill:#004380}</style><path d="M91.8 72.8c-.2 2.5-3.5 4.6-7.3 4.5s-6.7-2.2-6.5-4.7 3.5-4.5 7.3-4.4c3.7 0 6.7 2.1 6.5 4.6M113 74c.7-9.5-10.4-17.3-24.7-17.5-14.2-.2-26.3 7.2-27.1 16.6s10 17.3 24.3 17.6c14.4.4 26.8-7.2 27.5-16.7" style="fill:#ed6d05"/><path d="M161.9 20v12.6h33.2l-35.2 46.2v11.1h52.8V77.4h-35.5l35.5-46.2V20zm115.9 29.2H246c.1-4.3.4-6.3 1.8-9.5 2.2-5.2 7.4-8.8 14.1-8.8s11.7 3.6 14 8.8c1.4 3.2 1.8 5.3 1.9 9.5m14.1 9.8v-6.2c0-19.9-11-33.7-30-33.7-18.1 0-30 13.1-30 35.7 0 26.6 14.1 35.9 31.8 35.9 12.4 0 19.3-3.7 26.5-10.9l-9.1-8.4c-5 5-9.2 7.2-17.2 7.2-11.6 0-18-7.6-18-19.6zm53.3 30.9v-12h-5.9c-5.3 0-7.8-3-7.8-8.1V32h13.7V21.2h-13.7V0h-14.2v21.2h-8.1V32h8.1v38.5c0 10.1 6.1 19.5 19.4 19.5zm64.6-40.7H378c.1-4.3.4-6.3 1.8-9.5 2.2-5.2 7.4-8.8 14.1-8.8s11.7 3.6 14 8.8c1.4 3.2 1.8 5.3 1.9 9.5M424 59v-6.2c0-19.9-11-33.7-30-33.7-18.1 0-30 13.1-30 35.7 0 26.6 14.1 35.9 31.8 35.9 12.4 0 19.3-3.7 26.5-10.9l-9.1-8.4c-5 5-9.2 7.2-17.2 7.2-11.6 0-18-7.6-18-19.6zm76 9.6c0-12.4-7.8-18.6-21.1-19.7l-11.2-1c-7.5-.7-9.8-3.9-9.8-8 0-5.2 4.3-9 12.8-9 6.7 0 13 1.4 17.4 5.1l8.9-9c-6.6-5.7-15.6-7.9-26.2-7.9-14.8 0-26.7 7.7-26.7 21.4 0 12.3 7.7 18.2 20.9 19.3l11.3 1c6.8.6 9.5 3.6 9.5 8.3 0 6.6-6.8 9.7-15.5 9.7-7 0-14.7-1.5-20.4-7.3l-9.4 9.2c8.4 8.1 18.2 10.1 29.7 10.1 17.2 0 29.8-7.6 29.8-22.2" class="logo_color_1" style="fill:#004380"/><path d="M28.6 19.6c-1.7-4.2 3.5-10.2 11.5-13.4C48.2 3 56.2 3.8 57.9 8s-3.5 10.2-11.5 13.4c-8.1 3.2-16.1 2.4-17.8-1.8m8.8 26.6c-1.2-3.2 2-7.3 7.2-9.3s10.4-1 11.6 2.2-2 7.3-7.2 9.3-10.4 1-11.6-2.2m24.9-11.6c-1-3.5 3.1-7.7 9.2-9.5 6.1-1.7 11.9-.3 12.9 3.2s-3.1 7.7-9.2 9.5c-6.1 1.7-11.9.3-12.9-3.2m31-16.1c-1.4-6.7 8.8-14.5 22.9-17.4s26.6.1 28 6.7c1.4 6.7-8.8 14.5-22.9 17.4-14 3-26.6 0-28-6.7m-59.6 48c-1.4-3.8 1.8-8.4 7.3-10.2 5.5-1.9 11.1-.3 12.6 3.5s-1.8 8.4-7.3 10.2-11.1.2-12.6-3.5m-32.6-2C-2 59.6 1.5 52.2 8.9 48s15.8-3.6 18.9 1.2-.4 12.2-7.7 16.4c-7.3 4.3-15.9 3.8-19-1.1m62.7-48.2c-.8-3 3.2-6.7 8.9-8.3 5.8-1.6 11.2-.5 12 2.4.9 3-3.1 6.7-8.9 8.4-5.7 1.6-11.1.5-12-2.5" class="logo_color_1"/></svg>