<svg xmlns="http://www.w3.org/2000/svg" baseProfile="tiny-ps" viewBox="0 0 486 104"><title>DirectTrust</title><style>.shp0{fill:#6d6e70}.shp1{fill:#2aa857}</style><g id="Direct"><path id="D" fill-rule="evenodd" d="M166.5 48.2c0 12.8-9.5 21.6-23.4 21.6h-18.2V26.6h18.2c13.9 0 23.4 8.8 23.4 21.6m-6.3 0c0-9.7-6.8-16.2-17.5-16.2H131v32.4h11.7c10.7 0 17.6-6.5 17.5-16.2" class="shp0"/><path id="i" d="M175 37.1h5.9v32.7H175z" class="shp0"/><path id="idot" d="M182 26.8c0 2.3-1.7 4-4 4s-4-1.6-4-3.8 1.7-3.9 4-3.9 4 1.6 4 3.7" class="shp0"/><path id="r" d="M209.9 36.8v5.7c-.5-.1-1-.1-1.4-.1-6.3 0-10.3 3.9-10.3 11.1v16.3h-5.9V37.1h5.7v5.5c2.1-3.9 6.1-5.8 11.9-5.8" class="shp0"/><path id="e" fill-rule="evenodd" d="M246.4 53.7c0 .5 0 1.2-.1 1.8h-26.6c.8 5.8 5.4 9.6 11.9 9.6 3.9 0 7.1-1.3 9.5-4l3.3 3.8c-3 3.4-7.5 5.3-12.9 5.3-10.6 0-17.6-6.9-17.6-16.7 0-9.7 6.9-16.7 16.4-16.7 9.4 0 16.2 6.8 16.1 16.9m-5.6-2.5c-.6-5.5-4.8-9.4-10.5-9.4s-9.9 3.8-10.5 9.4z" class="shp0"/><path id="c" d="M257.7 53.5c0 7.2 4.8 11.6 11.2 11.6 3.6 0 6.8-1.5 8.9-4.7l4.5 2.8c-2.6 4.5-7.4 7-13.3 7-10.1 0-17.3-6.9-17.3-16.7s7.2-16.7 17.3-16.7c5.8 0 10.7 2.4 13.3 7l-4.5 2.9c-2.1-3.2-5.3-4.7-8.9-4.7-6.4 0-11.3 4.5-11.2 11.5" class="shp0"/><path id="t" d="m307 63.7 1.9 4.3c-1.8 1.6-4.5 2.3-7.2 2.3-6.6 0-10.4-3.7-10.4-10.3V42h-5.6v-4.9h5.6v-7.2h5.9v7.2h9.4V42h-9.4v17.7c0 3.5 1.8 5.5 5.1 5.5 1.7 0 3.4-.6 4.7-1.5" class="shp0"/></g><g id="Trust"><path id="T" d="M310.6 26.6h35.7V32h-14.8v37.8h-6.1V32h-14.8z" class="shp1"/><path d="M369 36.8v5.7c-.5-.1-1-.1-1.4-.1-6.3 0-10.3 3.9-10.3 11.1v16.3h-5.9V37.1h5.7v5.5c2.1-3.9 6.2-5.8 11.9-5.8" class="shp1"/><path id="u" d="M401.4 54V37.1h5.9v32.7h-5.6v-4.9c-2.4 3.4-6.5 5.3-11.1 5.3-8.5 0-14.1-4.7-14.1-14.3V37.1h5.9v18.2c0 6.4 3.2 9.6 8.8 9.6 6.1 0 10.1-3.9 10.1-10.9z" class="shp1"/><path id="s" d="M441.9 60.3c0 5.9-5.4 9.7-14.1 9.7-5.4 0-10.8-1.6-13.5-3.8l2.5-4.7c2.8 2 7.2 3.4 11.5 3.4 5.5 0 7.8-1.6 7.8-4.4 0-7.3-20.7-1-20.7-14 0-5.8 5.3-9.8 13.7-9.8 4.2 0 9.1 1.1 11.9 3l-2.5 4.7c-3-1.9-6.3-2.6-9.5-2.6-5.2 0-7.7 1.9-7.7 4.5 0 7.8 20.8 1.5 20.6 14" class="shp1"/><path d="M466.1 63.7 468 68c-1.8 1.6-4.5 2.3-7.2 2.3-6.6 0-10.4-3.7-10.4-10.3V42h-5.6v-4.9h5.6v-7.2h5.9v7.2h9.4V42h-9.4v17.7c0 3.5 1.8 5.5 5.1 5.5 1.8 0 3.4-.6 4.7-1.5" class="shp1"/></g><g id="TM"><path d="M468 26.6h7.1v1.1h-2.8v6.7h-1.4v-6.7H468z" class="shp0"/><path id="M" d="M485.4 34.4h-1.3v-5.5l-3 4.6h-.6l-2.9-4.5v5.4h-1.3v-7.8h1.1l3.5 5.3 3.4-5.3h1.1z" class="shp0"/></g><g id="Mark"><path id="Checkmark" d="m51.5 92.5 31.6-18.2V85l-31.6 18.2-10.4-6V86.6z" class="shp1"/><path id="Shield" d="m100.1 13.8 2.3 1.3v43.6c0 9.3-5 18-13.1 22.7l-3.1 1.8V72.4c4.3-3.2 6.9-8.3 6.9-13.7V20.5C67.2 6.6 35.7 6.6 9.8 20.5v38c0 6 3.3 11.7 8.5 14.7L38 84.6v10.7l-24.3-14C5.6 76.6.6 67.9.6 58.6V15l2.3-1.3c30-17.3 67.2-17.3 97.2.1" class="shp0"/><path id="Person body" d="M36.1 44.9c3.3 4.9 9 8.1 15.4 8.1s12-3.2 15.4-8.1c2.8 3.5 4.3 7.8 4.3 12.3v11.4L51.5 80 31.8 68.6V57.2c0-4.5 1.5-8.8 4.3-12.3" class="shp0"/><path id="Person head" d="M53.71 48.02c-7.54 1.22-14.61-3.89-15.83-11.42-1.21-7.54 3.89-14.61 11.43-15.83 7.53-1.21 14.6 3.89 15.82 11.43 1.22 7.53-3.89 14.6-11.42 15.82" class="shp0"/></g></svg>