<svg version="1.2" xmlns="http://www.w3.org/2000/svg" viewBox="0 0 577 321"><style>.a{fill:#231f20}</style><path class="a" d="m105.7 126c20.6-20.6 56.3-20.6 76.9 0 14.3 14.3 24.4 45 37.3 57.8 13.4 13.5 31.4 16.2 47.5 8-4.4 6.9-10.5 12.9-18.1 17.3-22.3 12.9-50.1 7.6-66.3-11.1-11.9-15.8-24.2-44.5-34.7-55.1-13.5-13.5-33.7-16.1-49.8-7.9 2-3.2 4.4-6.2 7.2-9zm325.4 57.9c13.4 13.5 26.7 16.1 42.8 7.9-4.4 6.9-10.5 12.9-18.1 17.3-22.3 12.9-50.1 7.7-66.3-11.1-32.1-42.5-65.1-125.8-93.6-154.3-13.5-13.4-33.7-16.1-49.8-7.9 2.1-3.2 4.5-6.2 7.2-9 20.7-20.6 55.6-25.9 83.1 1.6 37.2 37.2 61.1 122.1 94.7 155.5zm-171.4-107.3c26.4 26.5 45.2 85.3 69 109.1 13.5 13.5 27.5 16.1 43.6 7.9-4.4 7-9.4 12.3-18.2 17.4-14.9 8.6-50 7.6-66.3-11.2-22.6-30-46.4-86.2-66.5-106.3-13.5-13.5-33.7-16.1-49.8-7.9 2.1-3.2 4.5-6.2 7.2-9 20.7-20.6 54.8-26.1 81 0z"/><path fill-rule="evenodd" class="a" d="m156 105.1c6-13.2 32.7-19.9 45.6-16-7.9 8.2-14.1 18-17.9 29-8-6.8-17.6-11.1-27.7-13zm77.7-50.9c7.6-14.4 29.8-19.6 44.4-14.2-6.5 7.6-12.1 16-16.4 25.2l-1.4 3c-7.6-6.6-16.8-11.5-26.6-14zm-103.3 85c-14.9 20.6-13.1 49.6 5.5 68.2 3.4 3.5 7.2 6.3 11.3 8.6-14.9 1.2-30.1-3.9-41.5-15.3-14.7-14.7-18.9-36-12.6-54.4 0.3-0.9 0.9-1.6 1.6-2.1 9.3-6.1 21.5-10.2 35.7-5z"/><path class="a" d="m437.2 108.3c27.2 4.9 44.4 28 44.4 56.2q0 0.3 0 0.6c-0.2 18.4-20.8 30.3-36.4 20.6q-1-0.6-2-1.4c12.9-36.1-4.4-70.1-38.8-73.4 3.5-58.7-40.4-110.3-108.2-105.7-0.2 0-0.3-0.4-0.1-0.5 73.6-19.5 141.1 26.9 141.1 103.6z"/><path class="a" d="m186 267.1l15.3-22.1h-15.8l-14.5 20.9h-0.2v-20.9h-14.7v56.1h0.3 14.4v-15.7l5.1-7.4 12 23.1h15.8z"/><path fill-rule="evenodd" class="a" d="m425.1 301.1c-15.9 0-28.8-12.9-28.8-28.8 0-15.9 12.9-28.8 28.8-28.8 15.9 0 28.8 12.9 28.8 28.8 0 15.9-12.9 28.8-28.8 28.8zm0-50.3c-11.9 0-21.5 9.6-21.5 21.5 0 11.8 9.6 21.5 21.5 21.5 11.9 0 21.5-9.7 21.5-21.5 0-11.9-9.6-21.5-21.5-21.5z"/><path class="a" d="m349.9 301.1c-15.8 0-28.7-12.9-28.7-28.8 0-15.9 12.9-28.8 28.7-28.8 7.2 0 14.1 2.7 19.4 7.5l-4.9 5.4c-4-3.6-9.1-5.6-14.5-5.6-11.8 0-21.5 9.6-21.5 21.5 0 11.8 9.7 21.5 21.5 21.5 5.5 0 10.6-2 14.6-5.7l5 5.3c-5.4 4.9-12.3 7.7-19.6 7.7z"/><path class="a" d="m399.4 300.4h-26v-55.2h7.2v47.9h18.8z"/><path class="a" d="m479.8 301.1c-12 0-21.8-9.8-21.8-21.8v-34.1h7.4v34.1c0 7.9 6.4 14.4 14.4 14.4 7.9 0 14.3-6.5 14.3-14.4v-34.1h7.4v34.1c0 12-9.8 21.8-21.7 21.8z"/><path fill-rule="evenodd" class="a" d="m523.9 300.4h-17.4v-55.2h17.4c15.2 0 27.6 12.4 27.6 27.6 0 15.2-12.4 27.6-27.6 27.6zm-10-7.4h10c11.2 0 20.2-9.1 20.2-20.2 0-11.2-9-20.2-20.2-20.2h-10z"/><path class="a" d="m116.5 245l-7.6 40.1h-0.2l-8.1-40.1h-15l14.5 56.1h16.7l14.1-56.1z"/><path class="a" d="m135.1 245h14.4v56.1h-14.4z"/><path class="a" d="m205.6 245h14.4v56.1h-14.4z"/><path class="a" d="m254.8 301h14.4v-43.4c0-7.8-6.3-14.1-14.1-14.1-2.9-0.1-5.7 0.6-8.3 1.9-2.6 1.4-4.6 3.6-6 6.2h-0.4v-6.5h-13.8v56h14.4v-0.1-38.4c0-3.8 3.1-6.8 6.9-6.8 3.8 0 6.9 3 6.9 6.8v38.4h14.4v-43.4"/><path class="a" d="m555.3 258.8v-11.6h-4.2v-2h10.7v2h-4.3v11.6zm8 0v-13.6h3.2l3.4 10.8 3.2-10.8h3.2v13.6h-2v-11.4l-3.4 11.4h-2l-3.6-11.6v11.6z"/><path fill-rule="evenodd" class="a" d="m302.5 254.5v-9.4h12.6v54.9c0 11.2-9.1 20.3-20.3 20.3q-0.1 0-0.2 0-0.1 0-0.2 0c-0.2 0-0.3-0.1-0.5-0.1q-0.9 0-1.7-0.1c-8-0.9-15.1-6.8-17.8-15.2h13.1c0.8 3.3 3.8 5.8 7.3 5.8q0.1 0 0.3 0c0.2 0 0.4 0 0.6 0 3.9-0.4 6.8-3.8 6.8-7.8v-12.2h-0.1c-1 5.6-5.8 9.9-11.7 9.8 0 0-1.6 0.1-3.4-0.2-6.2-1.2-11.2-5.7-12.9-11.7-0.4-1.4-0.7-2.9-0.7-4.5v-24.2c0-9 7.4-16.4 16.5-16.4h0.5c6.3 0 11.3 4.9 11.7 11m-3.5 27.6c0-0.3 0.1-0.6 0.1-0.9v-18.6c0-4.3-3.5-7.7-7.7-7.7-4.2 0-7.6 3.4-7.6 7.7v18.6c0 0.3 0 0.6 0.1 0.9 0.4 3.8 3.6 6.7 7.5 6.7 3.9 0 7.1-2.9 7.6-6.7z"/><path class="a" d="m73.3 244.5c-20.5-3.6-26.2-38.9-6.7-85.7 5.4-13 3.5-28.1-6-38.4-1.9-2-4-3.8-6.4-5 1.8-3.2 2-7.1 0.4-10.5-2.8 2.4-10.5 3.4-17.2 4.3-11.1-0.8-22.2 2.6-31 9.6-3.5 0-6.4 2.8-6.4 6.4 0 1.3 0.4 2.5 1.1 3.6 1.1 5.3 4.6 9.8 9.6 12-1-11 14.3-13.4 23.4-6.7-6.5-1.8-13.3 1.1-16.5 6.9 6-3.1 12.9-2.6 18.3 0.8-2.9 6.1-11.4 7.6-22.3 7.1 1.4 2.4 1.9 7.6 2.8 9.1 1.5 1.9 6.3-1.6 9-2.1 2.6-0.6 8.7-1.7 8.7 2.1 0 18.1-19.6 33.4-30.1 66.4-9.5 30 0.8 50.7 19.6 64.5 16.9 12.5 53 13 64.6 12.8z"/><path class="a" d="m499.9 223.8c0 0 5.2-3.2 10.5-8.7 6.9-7.2 9-17.9 5.4-27.3l-0.2-0.4c0 0-5.8-13.3-7.8-22.1-0.7-3.2-0.5-4.7-0.5-4.7 0-9.2 8.5-16.7 18.9-16.7 10.5 0 19 7.5 19 16.7 0 9.1-8.1 16.4-18.3 16.7l0.2 0.2c2.1 1.8 4.7 4.3 7.5 7.6 0 0 5.5 6.1 8.5 12.5 5.7 12.1 6 28.3 1.5 42-6-3.8-13.1-6-20.7-6h-37.7c-0.4 0-0.5-0.4-0.2-0.6 2.1-1.5 8.1-5.5 13.9-9.2z"/></svg>