<svg xmlns="http://www.w3.org/2000/svg" viewBox="0 0 577 321"><style>.a{fill:#231f20}</style><path d="M105.7 126c20.6-20.6 56.3-20.6 76.9 0 14.3 14.3 24.4 45 37.3 57.8 13.4 13.5 31.4 16.2 47.5 8-4.4 6.9-10.5 12.9-18.1 17.3C227 222 199.2 216.7 183 198c-11.9-15.8-24.2-44.5-34.7-55.1-13.5-13.5-33.7-16.1-49.8-7.9q3-4.8 7.2-9m325.4 57.9c13.4 13.5 26.7 16.1 42.8 7.9-4.4 6.9-10.5 12.9-18.1 17.3-22.3 12.9-50.1 7.7-66.3-11.1-32.1-42.5-65.1-125.8-93.6-154.3-13.5-13.4-33.7-16.1-49.8-7.9q3.15-4.8 7.2-9C274 6.2 308.9.9 336.4 28.4c37.2 37.2 61.1 122.1 94.7 155.5M259.7 76.6c26.4 26.5 45.2 85.3 69 109.1 13.5 13.5 27.5 16.1 43.6 7.9-4.4 7-9.4 12.3-18.2 17.4-14.9 8.6-50 7.6-66.3-11.2-22.6-30-46.4-86.2-66.5-106.3-13.5-13.5-33.7-16.1-49.8-7.9q3.15-4.8 7.2-9c20.7-20.6 54.8-26.1 81 0" class="a"/><path fill-rule="evenodd" d="M156 105.1c6-13.2 32.7-19.9 45.6-16-7.9 8.2-14.1 18-17.9 29-8-6.8-17.6-11.1-27.7-13m77.7-50.9c7.6-14.4 29.8-19.6 44.4-14.2-6.5 7.6-12.1 16-16.4 25.2l-1.4 3c-7.6-6.6-16.8-11.5-26.6-14m-103.3 85c-14.9 20.6-13.1 49.6 5.5 68.2 3.4 3.5 7.2 6.3 11.3 8.6-14.9 1.2-30.1-3.9-41.5-15.3-14.7-14.7-18.9-36-12.6-54.4.3-.9.9-1.6 1.6-2.1 9.3-6.1 21.5-10.2 35.7-5" class="a"/><path d="M437.2 108.3c27.2 4.9 44.4 28 44.4 56.2v.6c-.2 18.4-20.8 30.3-36.4 20.6q-1-.6-2-1.4c12.9-36.1-4.4-70.1-38.8-73.4C407.9 52.2 364 .6 296.2 5.2c-.2 0-.3-.4-.1-.5 73.6-19.5 141.1 26.9 141.1 103.6M186 267.1l15.3-22.1h-15.8L171 265.9h-.2V245h-14.7v56.1h14.7v-15.7l5.1-7.4 12 23.1h15.8z" class="a"/><path fill-rule="evenodd" d="M425.1 301.1c-15.9 0-28.8-12.9-28.8-28.8s12.9-28.8 28.8-28.8 28.8 12.9 28.8 28.8-12.9 28.8-28.8 28.8m0-50.3c-11.9 0-21.5 9.6-21.5 21.5 0 11.8 9.6 21.5 21.5 21.5s21.5-9.7 21.5-21.5c0-11.9-9.6-21.5-21.5-21.5" class="a"/><path d="M349.9 301.1c-15.8 0-28.7-12.9-28.7-28.8s12.9-28.8 28.7-28.8c7.2 0 14.1 2.7 19.4 7.5l-4.9 5.4c-4-3.6-9.1-5.6-14.5-5.6-11.8 0-21.5 9.6-21.5 21.5 0 11.8 9.7 21.5 21.5 21.5 5.5 0 10.6-2 14.6-5.7l5 5.3c-5.4 4.9-12.3 7.7-19.6 7.7M399.4 300.4h-26v-55.2h7.2v47.9h18.8zM479.8 301.1c-12 0-21.8-9.8-21.8-21.8v-34.1h7.4v34.1c0 7.9 6.4 14.4 14.4 14.4 7.9 0 14.3-6.5 14.3-14.4v-34.1h7.4v34.1c0 12-9.8 21.8-21.7 21.8" class="a"/><path fill-rule="evenodd" d="M523.9 300.4h-17.4v-55.2h17.4c15.2 0 27.6 12.4 27.6 27.6s-12.4 27.6-27.6 27.6m-10-7.4h10c11.2 0 20.2-9.1 20.2-20.2 0-11.2-9-20.2-20.2-20.2h-10z" class="a"/><path d="m116.5 245-7.6 40.1h-.2l-8.1-40.1h-15l14.5 56.1h16.7l14.1-56.1zM135.1 245h14.4v56.1h-14.4zM205.6 245H220v56.1h-14.4zM254.8 301h14.4v-43.4c0-7.8-6.3-14.1-14.1-14.1-2.9-.1-5.7.6-8.3 1.9-2.6 1.4-4.6 3.6-6 6.2h-.4v-6.5h-13.8v56H241v-38.5c0-3.8 3.1-6.8 6.9-6.8s6.9 3 6.9 6.8zh14.4v-43.4M555.3 258.8v-11.6h-4.2v-2h10.7v2h-4.3v11.6zm8 0v-13.6h3.2l3.4 10.8 3.2-10.8h3.2v13.6h-2v-11.4l-3.4 11.4h-2l-3.6-11.6v11.6z" class="a"/><path fill-rule="evenodd" d="M302.5 254.5v-9.4h12.6V300c0 11.2-9.1 20.3-20.3 20.3h-.4c-.2 0-.3-.1-.5-.1q-.9 0-1.7-.1c-8-.9-15.1-6.8-17.8-15.2h13.1c.8 3.3 3.8 5.8 7.3 5.8h.9c3.9-.4 6.8-3.8 6.8-7.8v-12.2h-.1c-1 5.6-5.8 9.9-11.7 9.8 0 0-1.6.1-3.4-.2-6.2-1.2-11.2-5.7-12.9-11.7-.4-1.4-.7-2.9-.7-4.5v-24.2c0-9 7.4-16.4 16.5-16.4h.5c6.3 0 11.3 4.9 11.7 11m-3.5 27.6c0-.3.1-.6.1-.9v-18.6c0-4.3-3.5-7.7-7.7-7.7s-7.6 3.4-7.6 7.7v18.6c0 .3 0 .6.1.9.4 3.8 3.6 6.7 7.5 6.7s7.1-2.9 7.6-6.7" class="a"/><path d="M73.3 244.5c-20.5-3.6-26.2-38.9-6.7-85.7 5.4-13 3.5-28.1-6-38.4-1.9-2-4-3.8-6.4-5 1.8-3.2 2-7.1.4-10.5-2.8 2.4-10.5 3.4-17.2 4.3-11.1-.8-22.2 2.6-31 9.6-3.5 0-6.4 2.8-6.4 6.4 0 1.3.4 2.5 1.1 3.6 1.1 5.3 4.6 9.8 9.6 12-1-11 14.3-13.4 23.4-6.7-6.5-1.8-13.3 1.1-16.5 6.9 6-3.1 12.9-2.6 18.3.8-2.9 6.1-11.4 7.6-22.3 7.1 1.4 2.4 1.9 7.6 2.8 9.1 1.5 1.9 6.3-1.6 9-2.1 2.6-.6 8.7-1.7 8.7 2.1 0 18.1-19.6 33.4-30.1 66.4-9.5 30 .8 50.7 19.6 64.5 16.9 12.5 53 13 64.6 12.8zM499.9 223.8s5.2-3.2 10.5-8.7c6.9-7.2 9-17.9 5.4-27.3l-.2-.4s-5.8-13.3-7.8-22.1c-.7-3.2-.5-4.7-.5-4.7 0-9.2 8.5-16.7 18.9-16.7 10.5 0 19 7.5 19 16.7 0 9.1-8.1 16.4-18.3 16.7l.2.2c2.1 1.8 4.7 4.3 7.5 7.6 0 0 5.5 6.1 8.5 12.5 5.7 12.1 6 28.3 1.5 42-6-3.8-13.1-6-20.7-6h-37.7c-.4 0-.5-.4-.2-.6 2.1-1.5 8.1-5.5 13.9-9.2" class="a"/></svg>