
<svg viewBox="0 0 75 31" fill="none" xmlns="http://www.w3.org/2000/svg">
<g clip-path="url(#clip0_509_227511)">
<g clip-path="url(#clip1_509_227511)">
<path d="M37.2537 20.5872H44.3558C44.6068 20.5872 44.8101 20.384 44.8101 20.133V18.1287C44.8101 17.6624 44.609 17.397 44.2069 17.3326L39.5033 16.3688C37.5736 15.9835 36.6094 14.6898 36.6094 12.4868V10.8689C36.6094 8.78028 38.3035 7.08691 40.3931 7.08691H45.7988C46.0366 7.08691 46.2543 7.21905 46.3632 7.43114L47.4585 9.55645C47.6152 9.8607 47.3941 10.2227 47.0519 10.2227H40.5376C40.2865 10.2227 40.0832 10.4259 40.0832 10.6768V12.5123C40.0832 12.9632 40.2832 13.2285 40.6864 13.3085L45.3889 14.249C47.3186 14.6343 48.2839 15.929 48.2839 18.131V19.942C48.2839 22.0307 46.5898 23.7241 44.5002 23.7241H38.6479C38.3879 23.7241 38.1502 23.5786 38.0313 23.3476L36.9049 21.1624C36.7705 20.9003 36.9604 20.5894 37.2548 20.5894L37.2537 20.5872Z" fill="#191521"/>
<path d="M63.8956 23.242V7.5531C63.8956 7.30437 64.1134 7.11227 64.36 7.14225L66.9084 7.45649C67.1717 7.48869 67.3695 7.71188 67.3695 7.97727V20.2283C67.3695 20.426 67.5294 20.5859 67.7272 20.5859H74.0916C74.3482 20.5859 74.556 20.7935 74.556 21.05V23.3175C74.556 23.5396 74.376 23.7205 74.1527 23.7205H64.3744C64.1089 23.7205 63.8945 23.5062 63.8945 23.2409L63.8956 23.242Z" fill="#191521"/>
<path d="M50.3553 20.5872H57.4573C57.7084 20.5872 57.9117 20.384 57.9117 20.133V18.1287C57.9117 17.6624 57.7106 17.397 57.3085 17.3326L52.6049 16.3688C50.6752 15.9835 49.7109 14.6898 49.7109 12.4868V10.8689C49.7109 8.78028 51.4051 7.08691 53.4947 7.08691H58.9004C59.1381 7.08691 59.3559 7.21905 59.4647 7.43114L60.5601 9.55645C60.7167 9.8607 60.4957 10.2227 60.1535 10.2227H53.6391C53.3881 10.2227 53.1848 10.4259 53.1848 10.6768V12.5123C53.1848 12.9632 53.3847 13.2285 53.788 13.3085L58.4905 14.249C60.4201 14.6343 61.3855 15.929 61.3855 18.131V19.942C61.3855 22.0307 59.6914 23.7241 57.6017 23.7241H51.7495C51.4895 23.7241 51.2518 23.5786 51.1329 23.3476L50.0064 21.1624C49.872 20.9003 50.062 20.5894 50.3564 20.5894L50.3553 20.5872Z" fill="#191521"/>
<path d="M18.8292 11.9595H11.7383V3.58267C11.7383 3.08855 12.1393 2.68769 12.6337 2.68769H15.0344C15.5287 2.68769 15.9298 3.08855 15.9298 3.58267V6.87502C15.9298 7.36914 16.3308 7.77 16.8251 7.77C17.0518 7.77 17.2706 7.6845 17.4361 7.52904L25.0103 0.465778C25.3714 0.128216 25.938 0.148203 26.2757 0.510194L27.9132 2.26463C28.2509 2.62551 28.2309 3.19181 27.8687 3.52938L18.8281 11.9607L18.8292 11.9595Z" fill="#191521"/>
<path d="M18.832 19.0472V11.9595H27.2127C27.7071 11.9595 28.1081 12.3603 28.1081 12.8545V15.254C28.1081 15.7482 27.7071 16.149 27.2127 16.149H23.9189C23.4245 16.149 23.0235 16.5499 23.0235 17.044C23.0235 17.2705 23.109 17.4893 23.2646 17.6547L30.3322 25.2266C30.6699 25.5874 30.6499 26.1537 30.2878 26.4913L28.5325 28.128C28.1715 28.4656 27.6049 28.4456 27.2672 28.0836L18.832 19.0472Z" fill="#191521"/>
<path d="M11.7399 19.0469H18.8308V27.4237C18.8308 27.9179 18.4298 28.3187 17.9354 28.3187H15.5348C15.0404 28.3187 14.6394 27.9179 14.6394 27.4237V24.1314C14.6394 23.6373 14.2383 23.2364 13.744 23.2364C13.5173 23.2364 13.2985 23.3219 13.133 23.4774L5.55766 30.5418C5.19662 30.8793 4.63005 30.8593 4.29234 30.4973L2.65485 28.7429C2.31714 28.382 2.33713 27.8157 2.69929 27.4782L11.7399 19.0469Z" fill="#191521"/>
<path d="M11.7398 11.9591V19.0468H3.35912C2.86476 19.0468 2.46372 18.6459 2.46372 18.1518V15.7522C2.46372 15.2581 2.86476 14.8573 3.35912 14.8573H6.65297C7.14733 14.8573 7.54836 14.4564 7.54836 13.9623C7.54836 13.7357 7.46282 13.517 7.3073 13.3516L0.240791 5.78083C-0.0969265 5.41995 -0.0769301 4.85365 0.285227 4.51608L2.04047 2.87935C2.40151 2.54179 2.96808 2.56178 3.30579 2.92377L11.7409 11.9602L11.7398 11.9591Z" fill="#191521"/>
</g>
</g>
</svg>
