<svg xmlns="http://www.w3.org/2000/svg" xml:space="preserve" id="Layer_1" x="0" y="0" viewBox="-179 366 251.5 61"><style>.st0{fill:#222}.st1{fill:#a0cc41}</style><path d="M-21.4 366.5c5.2-.1 10.3 0 15.5 0 .7 0 1.2.6 1.1 1.3-2.6 13.4-5.1 26.9-7.9 40.3-.1.7.4 1.4 1.1 1.4H2.1c.7 0 1.2.7 1.1 1.4L.5 424.7c-.1.5-.6.9-1.1.9h-31.6c-.7 0-1.2-.6-1.1-1.3.7-3.4 1-7 2.9-10 3-5.4 4.2-11.8 2.7-17.9v-.4c.8-5.8 2.3-11.5 3.2-17.3.3-2.5 1.6-4.6 2.9-6.7.3-.4.2-1-.1-1.3-.7-.9-.9-2-.8-3.1 0-.6.5-1 1.1-1.1m-42 4.1c.6.3.8 1 .5 1.6-2.3 4-4.6 8-6.9 11.9-.3.6-1.1.7-1.6.4-3.5-2.4-7.6-4.6-11.9-3.4-2.3.6-3.8 4-1.4 5.4 4.3 2.1 9.6 2.4 13.2 5.9 4.4 3.5 4.8 9.8 3.1 14.8-2.1 8.3-8.8 15-16.9 17.4-9.1 3-20 1.3-27.1-5.4-.4-.3-.4-.9-.2-1.3 2.2-4.2 4.3-8.4 6.4-12.6.4-.7 1.3-.8 1.9-.2 3.5 4.1 8.5 7.6 14.1 6.6 2.4-.4 6.1-3.7 3.6-5.9-4.6-2.6-10.5-2.8-14.5-6.4s-4.7-9.7-3.2-14.6c2.2-7.2 7.9-13.3 15-16 8.3-3.5 17.9-2.3 25.9 1.8" class="st0"/><path d="M-26.2 370.7c.5.3.7 1 .4 1.5l-6.9 12c-.3.6-1 .7-1.5.4-3-2-6.2-3.9-9.9-3.8-2.1-.2-4 1.2-4.7 3.1 0 .2 0 .4-.1.6.5 2.6 3.7 3 5.8 3.7 5.4 1.3 11.1 4.3 12.5 10 1.3 8.2-2.5 16.7-8.8 21.8-8.9 7.2-22.1 7.8-32 2.3-.6-.4-.8-1.2-.3-1.7 3.1-3.2 5.5-6.9 7-11.1.2-.7 1-.9 1.6-.5 3.4 2.2 7.7 3.9 11.6 1.9 1.4-.6 2.1-2 2.7-3.3.2-.5.1-1-.3-1.3-3.8-3-9.2-3-13.3-5.6-.3-.2-.4-.5-.5-.8-.5-3.8-2.1-7.3-4.8-10-.4-.4-.4-.9-.2-1.4 3.5-5.4 6.3-11.3 10-16.6l.3-.3c9.1-6.5 21.8-6.1 31.4-.9m31.5 54.8v-3.7H9v3.7zm19.4-9.8-3.6.7c-.1-.7-.4-1.3-.8-1.6-.4-.4-1-.5-1.7-.5-.9 0-1.6.3-2.2.9-.5.6-.8 1.6-.8 3.1 0 1.6.3 2.8.8 3.5.6.7 1.3 1 2.2 1 .7 0 1.3-.2 1.7-.6s.8-1.1.9-2l3.6.6c-.4 1.7-1.1 2.9-2.1 3.7-1.1.8-2.5 1.3-4.3 1.3-2 0-3.6-.6-4.8-1.9s-1.8-3-1.8-5.3.6-4.1 1.8-5.3 2.8-1.9 4.9-1.9c1.7 0 3 .4 4 1.1 1.1.6 1.8 1.7 2.2 3.2m1.9 2.7c0-1.2.3-2.4.9-3.5s1.4-2 2.5-2.6 2.3-.9 3.7-.9c2.1 0 3.8.7 5.1 2 1.3 1.4 2 3.1 2 5.2s-.7 3.8-2 5.2c-1.4 1.4-3 2.1-5.1 2.1q-1.95 0-3.6-.9c-1.2-.6-2-1.4-2.6-2.5-.6-1.2-.9-2.6-.9-4.1m3.8.1c0 1.4.3 2.4 1 3.2.7.7 1.5 1.1 2.4 1.1s1.8-.4 2.4-1.1 1-1.8 1-3.2-.3-2.4-1-3.1c-.6-.7-1.4-1.1-2.4-1.1s-1.8.4-2.4 1.1c-.7.7-1 1.8-1 3.1m13.1-6.9h3.4v1.9c1.2-1.5 2.6-2.2 4.3-2.2.9 0 1.7.2 2.3.5.7.4 1.2.9 1.6 1.7.6-.7 1.3-1.3 2-1.7s1.5-.5 2.3-.5c1 0 1.9.2 2.6.6s1.2 1 1.6 1.8c.3.6.4 1.5.4 2.9v8.9h-3.7v-7.9c0-1.4-.1-2.3-.4-2.7-.3-.5-.9-.8-1.6-.8-.5 0-1 .2-1.4.5-.5.3-.8.8-1 1.4s-.3 1.6-.3 2.9v6.6h-3.7v-7.6c0-1.3-.1-2.2-.2-2.6q-.15-.6-.6-.9c-.3-.2-.6-.3-1.1-.3-.6 0-1.1.2-1.5.5-.5.3-.8.7-1 1.3s-.3 1.5-.3 2.9v6.7h-3.7z" class="st0"/><path d="M-180.7 376.9h8.6c.5 0 1-.4 1.1-.9l1.8-8.7c.1-.5-.2-.9-.7-.9h-8.6c-.5 0-1 .4-1.1.9l-1.8 8.7c-.2.5.2.9.7.9m9.7 14.9h8.6c.5 0 1-.4 1.1-.9l1.8-8.7c.1-.5-.2-.9-.7-.9h-8.6c-.5 0-1 .4-1.1.9l-1.8 8.7c-.2.5.1.9.7.9" class="st1"/><path d="M-112.5 376.8h-5.3c-.5 0-.8-.4-.7-.9l1.8-8.7c.1-.5-.2-.9-.7-.9h-46.2c-.5 0-1 .4-1.1.9l-1.8 8.7c-.1.5.2.9.7.9h11.1c.5 0 .8.4.7.9l-10.1 47.9c-.1.5.2.9.7.9h40.4c.5 0 1-.4 1.1-.9l10.1-47.9c.1-.5-.2-.9-.7-.9m-19.8 18.6c-.2 1.6-1.2 3.1-2.6 4l-.4 10.8c0 .6-.6 1.3-1.2 1.3h-7.5c-.6 0-.8-.6-.6-1.3l4.6-10.6c-1.1-.9-1.6-2.4-1-4.2.7-2.1 2.6-3.7 4.6-4 .3 0 .6-.1.9 0 .3 0 .6.1.8.1 1.7.4 2.7 2 2.4 3.9" class="st1"/></svg>