<?xml version="1.0" encoding="UTF-8" standalone="no"?>
<!-- Created with Inkscape (http://www.inkscape.org/) -->
<svg
   width="88.961624mm"
   height="17.374287mm"
   viewBox="0 0 88.961624 17.374287"
   version="1.1"
   id="svg5"
   inkscape:version="1.2 (dc2aeda, 2022-05-15)"
   sodipodi:docname="sealweb.logo.svg"
   xmlns:inkscape="http://www.inkscape.org/namespaces/inkscape"
   xmlns:sodipodi="http://sodipodi.sourceforge.net/DTD/sodipodi-0.dtd"
   xmlns="http://www.w3.org/2000/svg"
   xmlns:svg="http://www.w3.org/2000/svg">
  <sodipodi:namedview
     id="namedview7"
     pagecolor="#ffffff"
     bordercolor="#666666"
     borderopacity="1.0"
     inkscape:showpageshadow="2"
     inkscape:pageopacity="0.0"
     inkscape:pagecheckerboard="0"
     inkscape:deskcolor="#d1d1d1"
     inkscape:document-units="mm"
     showgrid="false"
     inkscape:zoom="3.1912404"
     inkscape:cx="137.09403"
     inkscape:cy="32.745888"
     inkscape:window-width="1680"
     inkscape:window-height="997"
     inkscape:window-x="0"
     inkscape:window-y="25"
     inkscape:window-maximized="0"
     inkscape:current-layer="layer1" />
  <defs
     id="defs2" />
  <g
     inkscape:label="Calque 1"
     inkscape:groupmode="layer"
     id="layer1"
     transform="translate(-52.110278,-132.7)">
    <path
       id="rect456"
       style="fill:#000000;stroke:none;stroke-width:1.602;stroke-linecap:round;stroke-linejoin:miter"
       d="M 129.5624 132.7 L 125.44327 149.85399 L 128.01159 149.85399 L 128.89939 148.498 L 129.1309 148.498 C 129.70166 149.54898 130.71127 150.07413 132.15914 150.07413 C 133.6217 150.07413 134.90951 149.51591 136.02299 148.39878 C 137.1438 147.28165 137.94893 145.70517 138.43783 143.66936 C 138.9126 141.69233 138.87393 140.1379 138.32259 139.00608 C 137.773 137.8669 136.77074 137.29714 135.31554 137.29714 C 133.77212 137.29714 132.46079 137.90697 131.38141 139.127 L 131.24912 139.127 C 131.60559 138.00987 131.84461 137.19808 131.96639 136.69097 L 132.92498 132.7 L 129.5624 132.7 z M 92.60238 133.73611 L 92.602897 133.77435 L 52.082373 133.77435 L 52.082373 149.84004 L 92.844226 149.84004 L 92.844226 149.85399 L 96.724609 149.85399 L 100.92435 141.40903 C 101.10991 141.0342 101.39576 140.40983 101.78218 139.53524 C 102.17039 138.6533 102.43449 138.01389 102.57386 137.61701 C 102.52561 137.94039 102.48282 138.57578 102.44622 139.52387 C 102.41876 140.46461 102.40933 141.08599 102.4178 141.38733 L 102.56766 149.85399 L 106.4589 149.85399 L 114.43102 133.73611 L 111.06844 133.73611 L 106.90538 142.53351 C 106.64601 143.06268 106.33202 143.75721 105.96384 144.6171 C 105.59741 145.46964 105.30838 146.18272 105.09722 146.75599 C 105.1593 146.16068 105.21332 145.44759 105.25846 144.6171 C 105.30372 143.7866 105.32337 143.16924 105.31737 142.76502 L 105.13702 133.73611 L 101.90724 133.73611 L 97.390718 142.76502 C 97.134591 143.25008 96.819555 143.93359 96.446073 144.81554 C 96.081669 145.69013 95.827483 146.33706 95.682812 146.75599 C 95.807047 145.56537 95.883879 144.15776 95.913806 142.53351 L 95.964965 133.73611 L 92.60238 133.73611 z M 120.20121 137.29714 C 118.37852 137.29714 116.81295 137.86287 115.50486 138.99471 C 114.20589 140.11918 113.30848 141.71421 112.81252 143.77943 C 112.33068 145.78585 112.51699 147.33678 113.37114 148.43186 C 114.22529 149.52694 115.64438 150.07413 117.62876 150.07413 C 118.59155 150.07413 119.42528 150.00098 120.12938 149.85399 C 120.83173 149.71435 121.51204 149.49737 122.1706 149.20339 L 122.79537 146.60148 C 121.99392 146.93956 121.2439 147.18611 120.54538 147.34045 C 119.84685 147.49479 119.12657 147.57196 118.38427 147.57196 C 117.42882 147.57196 116.75112 147.30336 116.3508 146.76684 C 115.95046 146.23033 115.84649 145.48468 116.03919 144.52925 L 123.98754 144.52925 L 124.37977 142.89731 C 124.79983 141.14813 124.64397 139.7776 123.9121 138.78542 C 123.18022 137.79322 121.94305 137.29714 120.20121 137.29714 z M 119.64879 139.68924 C 120.3617 139.68924 120.87305 139.91724 121.18255 140.37292 C 121.49378 140.82123 121.55691 141.46065 121.3722 142.29115 L 116.65363 142.29115 C 116.91186 141.46065 117.29723 140.82123 117.80911 140.37292 C 118.32277 139.91724 118.93589 139.68924 119.64879 139.68924 z M 133.58954 139.98689 C 134.30244 139.98689 134.79103 140.29208 135.05612 140.90208 C 135.32294 141.50474 135.31117 142.41224 135.01995 143.62491 C 134.72873 144.83758 134.3004 145.76363 133.73527 146.40304 C 133.17926 147.0351 132.55597 147.3513 131.8651 147.3513 C 131.01255 147.3513 130.45671 147.06467 130.1975 146.49141 C 129.94561 145.91815 129.97851 144.97005 130.2962 143.64714 L 130.38354 143.28333 C 130.68064 142.10741 131.08106 141.26606 131.58501 140.75894 C 132.09074 140.24448 132.75904 139.98689 133.58954 139.98689 z " />
    <g
       aria-label="SEAL"
       id="text348"
       style="font-weight:bold;font-size:15.5002px;line-height:1.25;-inkscape-font-specification:'sans-serif, Bold';fill:#ffffff;stroke-width:0.240905"
       transform="matrix(1.0982893,0,0,1.0982893,-8.5077249,-14.080274)">
      <path
         d="m 64.36774,144.24683 c 0,0.99904 -0.360763,1.78616 -1.082289,2.36136 -0.716481,0.5752 -1.715517,0.8628 -2.997109,0.8628 -1.180679,0 -2.225127,-0.22201 -3.133342,-0.66602 v -2.17971 c 0.746755,0.33301 1.37746,0.56763 1.892115,0.70386 0.519701,0.13623 0.993991,0.20435 1.42287,0.20435 0.514655,0 0.908214,-0.0984 1.180679,-0.29517 0.27751,-0.19678 0.416265,-0.48943 0.416265,-0.87794 0,-0.21696 -0.06055,-0.40869 -0.181643,-0.5752 -0.121095,-0.17155 -0.300215,-0.33554 -0.53736,-0.49195 -0.232099,-0.15642 -0.708912,-0.40618 -1.430439,-0.74928 -0.676115,-0.31787 -1.183202,-0.62313 -1.52126,-0.91578 -0.338057,-0.29265 -0.607999,-0.63323 -0.809825,-1.02175 -0.201825,-0.38851 -0.302738,-0.84262 -0.302738,-1.36232 0,-0.97885 0.330489,-1.74831 0.991468,-2.30838 0.666024,-0.56007 1.58433,-0.8401 2.754918,-0.8401 0.575203,0 1.122655,0.0681 1.642356,0.20435 0.524746,0.13623 1.072198,0.32797 1.642355,0.5752 l -0.01946,2.09214 c -0.714062,-0.36591 -1.81715,-0.67935 -2.205665,-0.77522 -0.383468,-0.0959 -0.761891,-0.1438 -1.135268,-0.1438 -0.444016,0 -0.784597,0.10343 -1.021742,0.3103 -0.237145,0.20687 -0.355717,0.47682 -0.355717,0.80983 0,0.20687 0.04793,0.38851 0.1438,0.54493 0.09587,0.15137 0.247237,0.30021 0.454108,0.44654 0.211917,0.14127 0.708912,0.3986 1.490986,0.77198 1.034356,0.49447 1.743268,0.99147 2.126736,1.49098 0.383469,0.49447 0.575203,1.10247 0.575203,1.824 z"
         id="path1164"
         sodipodi:nodetypes="scscccscscccssscsccccsssccccss"
         style="stroke-width:0.240905" />
      <path
         d="m 72.746022,147.31963 h -6.372641 v -11.06509 h 6.372641 v 1.92239 h -4.026419 v 2.42947 h 3.746387 v 1.92239 h -3.746387 v 2.85331 h 4.026419 z"
         id="path1166"
         style="stroke-width:0.240905" />
      <path
         d="m 81.661203,147.33705 -0.75951,-2.64209 h -3.819054 l -0.759512,2.64209 h -2.393179 l 3.697246,-11.14533 h 2.715612 l 3.711576,11.14533 z m -1.289735,-4.61606 q -1.053285,-3.5911 -1.189425,-4.06181 -0.128973,-0.47072 -0.186295,-0.74403 -0.236452,0.9718 -1.354223,4.80584 z"
         id="path1168"
         style="stroke-width:0.240905" />
      <path
         d="m 85.748633,147.31963 v -11.06509 h 2.346222 v 9.12756 h 4.488095 v 1.93753 z"
         id="path1170"
         style="stroke-width:0.240905" />
    </g>
  </g>
</svg>
