<svg xmlns="http://www.w3.org/2000/svg" viewBox="0 0 200 41"><path fill-rule="evenodd" d="M181.8 14.6h.5q3.7-4.1 9-4.1 5 0 6.9 3.9 1.8 3.8.2 10.7-1.6 6.8-5.5 10.7-3.9 3.8-9 3.8-4.8 0-6.9-3.6h-.4l-2.1 3.2h-6L178.2 0h7.5s-2.9 12.1-3.9 14.6M135.4 2.3h7.8l-18.4 36.9h-8.9s-.2-27.3 0-28c-.3.9-13.4 28-13.4 28L-.2 39.1-.3 2.2l101 .1v26c.1-2.1 13.6-26 13.6-26h7.5s0 28.5-.2 29.8c.5-1.3 13.8-29.8 13.8-29.8m29.7 11.6q2.5 3.4.9 9.3l-.7 3.7h-18.4q-.7 3.4.7 5.2t4.6 1.8q2.7 0 5-.6 2.6-.5 5.3-1.6l-1.6 5.9q-2.3.9-4.6 1.6-2.5.4-5.7.4-6.9 0-9.9-3.8-2.8-3.7-1.2-10.5 1.6-7.1 6.2-10.9 4.4-3.9 10.9-3.9 5.9 0 8.5 3.4M151 17.5q-1.8 1.4-2.7 4.4h10.8q.7-3-.5-4.4-.9-1.6-3.4-1.6-2.6 0-4.2 1.6m28.8 7.3q-1.2 4.6-.3 6.6 1 2.1 3.7 2.1 2.5 0 4.4-2.3 1.8-2.3 3-6.4.9-4.1 0-6.1-.9-2.1-3.2-2.1-3 0-4.9 1.9c-1 1-2.7 6.3-2.7 6.3"/><path fill-rule="evenodd" d="M23.2 26.4q0 3.9-2.7 5.9-2.8 2.3-7.6 2.3-4.4 0-7.8-1.6v-5.4q2.7 1.1 4.6 1.6 2 .6 3.6.6 1.9 0 3-.9.9-.7.9-2 0-.9-.4-1.6-.2-.5-1.2-1.2-.9-.6-3.6-1.8-2.6-1.1-4-2.3-1.1-1.1-2-2.7-.7-1.4-.7-3.2 0-3.8 2.5-5.9t6.9-2q2.3-.1 4.2.4 2 .5 4.1 1.4v5.2c-1.9-.9-4.6-1.6-5.5-1.8q-1.6-.5-3-.5-1.6 0-2.5.9-1 .7-1 2.1 0 .7.5 1.4.2.4 1.1 1.1.7.5 3.7 1.8 3.9 1.8 5.3 3.7 1.6 2 1.6 4.5m21.2 7.8H28.3V6.6h16.1v4.8H34.3v5.9h9.4v5h-9.4v7.1h10.1zm22.5 0-2.1-6.6h-9.6l-1.9 6.6h-5.9l9.2-27.8h6.8l9.5 27.8zm-3.2-11.4q-2.8-9.1-3-10.3-.5-1.1-.5-1.8-.7 2.5-3.4 12.1zm13.5 11.4V6.6H83v22.8h11.5v4.8z" style="fill:#fff"/></svg>