<svg id="Layer_1" data-name="Layer 1" xmlns="http://www.w3.org/2000/svg" viewBox="0 0 362.83 141.73"><defs><style>.cls-1{fill:none;}.cls-2{fill:#1e59a0;}.cls-3{fill:#53983d;}.cls-4{fill:#fbb929;}.cls-5{fill:#e83f36;}.cls-6{fill:#1d1d1b;}</style></defs><rect class="cls-1" width="362.83" height="141.73"/><polygon class="cls-2" points="41.46 35.43 41.46 85.04 62.72 85.04 62.72 35.43 41.46 35.43 41.46 35.43"/><polygon class="cls-3" points="69.81 35.43 69.81 70.87 91.07 70.87 91.07 35.43 69.81 35.43 69.81 35.43"/><polygon class="cls-4" points="69.81 70.87 69.81 85.04 91.07 85.04 91.07 70.87 69.81 70.87 69.81 70.87"/><polygon class="cls-5" points="41.46 85.04 41.46 106.3 62.72 106.3 62.72 85.04 41.46 85.04 41.46 85.04"/><path class="cls-6" d="M346.1,280.23v13.15h-6.16V257.94H353.5q5.94,0,9.43,3.09a10.43,10.43,0,0,1,3.5,8.19,10.08,10.08,0,0,1-3.42,8.12q-3.42,2.9-9.58,2.89Zm0-5h7.4a7.32,7.32,0,0,0,5-1.55,5.68,5.68,0,0,0,1.72-4.46,6.11,6.11,0,0,0-1.75-4.59,6.8,6.8,0,0,0-4.82-1.77H346.1Z" transform="translate(-234.7 -208.35)"/><path class="cls-6" d="M384,272.45a14.6,14.6,0,0,0-2.41-.2c-2.71,0-4.53,1-5.48,3.12v18h-5.91V267h5.65L376,270a6.67,6.67,0,0,1,5.94-3.44,5.51,5.51,0,0,1,2.1.35Z" transform="translate(-234.7 -208.35)"/><path class="cls-6" d="M386.89,260.18a3.15,3.15,0,0,1,.87-2.28,3.22,3.22,0,0,1,2.47-.91,3.26,3.26,0,0,1,2.48.91,3.15,3.15,0,0,1,.88,2.28,3.08,3.08,0,0,1-.88,2.24,3.29,3.29,0,0,1-2.48.9,3.26,3.26,0,0,1-2.47-.9A3.07,3.07,0,0,1,386.89,260.18Zm6.28,33.2h-5.91V267h5.91Z" transform="translate(-234.7 -208.35)"/><path class="cls-6" d="M404.39,267l.18,2.75a9.47,9.47,0,0,1,7.59-3.24q5.28,0,7.23,4.05a9.33,9.33,0,0,1,8.08-4.05c2.9,0,5.07.81,6.49,2.41s2.14,4,2.18,7.11v17.31h-5.92V276.24a5.23,5.23,0,0,0-1.09-3.67,4.81,4.81,0,0,0-3.63-1.17,4.93,4.93,0,0,0-3.3,1.08,5.72,5.72,0,0,0-1.79,2.84l0,18.06h-5.92V276.05q-.12-4.65-4.75-4.65a5.18,5.18,0,0,0-5,2.9v19.08h-5.92V267Z" transform="translate(-234.7 -208.35)"/><path class="cls-6" d="M452.94,293.87a12.21,12.21,0,0,1-9.11-3.55,12.83,12.83,0,0,1-3.49-9.43v-.73a15.67,15.67,0,0,1,1.52-7,11.64,11.64,0,0,1,4.27-4.84,11.3,11.3,0,0,1,6.13-1.73q5.39,0,8.32,3.44t2.93,9.71v2.38H446.3a7.86,7.86,0,0,0,2.18,5.16,6.51,6.51,0,0,0,4.81,1.9,8,8,0,0,0,6.62-3.28l3.18,3a10.57,10.57,0,0,1-4.22,3.66A13.18,13.18,0,0,1,452.94,293.87Zm-.7-22.57a5,5,0,0,0-3.93,1.71,8.72,8.72,0,0,0-1.91,4.74h11.27v-.44a7.17,7.17,0,0,0-1.59-4.49A4.93,4.93,0,0,0,452.24,271.3Z" transform="translate(-234.7 -208.35)"/><path class="cls-6" d="M478.46,278.07l-4,4.26v11.05h-6.16V257.94h6.16v16.62l3.41-4.21,10.37-12.41h7.45l-13.17,15.7,13.92,19.74h-7.3Z" transform="translate(-234.7 -208.35)"/><path class="cls-6" d="M508.36,293.87a12.22,12.22,0,0,1-9.12-3.55,12.83,12.83,0,0,1-3.49-9.43v-.73a15.8,15.8,0,0,1,1.52-7,11.64,11.64,0,0,1,4.27-4.84,11.34,11.34,0,0,1,6.14-1.73q5.37,0,8.31,3.44t2.93,9.71v2.38H501.71a7.91,7.91,0,0,0,2.18,5.16,6.54,6.54,0,0,0,4.81,1.9,8,8,0,0,0,6.62-3.28l3.19,3a10.6,10.6,0,0,1-4.23,3.66A13.17,13.17,0,0,1,508.36,293.87Zm-.71-22.57a5,5,0,0,0-3.93,1.71,8.8,8.8,0,0,0-1.91,4.74h11.27v-.44a7.23,7.23,0,0,0-1.58-4.49A5,5,0,0,0,507.65,271.3Z" transform="translate(-234.7 -208.35)"/><path class="cls-6" d="M531.92,284.91,537.28,267h6.3l-10.47,30.33q-2.4,6.64-8.17,6.65a10.65,10.65,0,0,1-2.85-.44V299l1.12.07a5.8,5.8,0,0,0,3.37-.81,5.49,5.49,0,0,0,1.79-2.74l.85-2.26L520,267h6.38Z" transform="translate(-234.7 -208.35)"/><path class="cls-6" d="M551.74,268.57h.87a1.24,1.24,0,0,1,.74.19.76.76,0,0,1,.22.61.67.67,0,0,1-.27.55,1,1,0,0,1-.66.21h-.9Zm.94,2a.85.85,0,0,1,.63.19.87.87,0,0,1,.19.62,3.25,3.25,0,0,0,.07.91h.5v-.08a1,1,0,0,1-.06-.28,3.89,3.89,0,0,1,0-.55,1.45,1.45,0,0,0-.14-.65.86.86,0,0,0-.5-.4,1,1,0,0,0,.7-1,1.09,1.09,0,0,0-.39-.92,1.82,1.82,0,0,0-1.12-.31h-1.28v4.17h.48v-1.72Zm-2.83-1.95a3.21,3.21,0,0,1,1.14-1.2,3,3,0,0,1,1.56-.44,2.92,2.92,0,0,1,1.57.45,3.08,3.08,0,0,1,1.12,1.2,3.43,3.43,0,0,1,.41,1.63,3.55,3.55,0,0,1-.41,1.66,3.13,3.13,0,0,1-1.14,1.2,3,3,0,0,1-3.1,0,3,3,0,0,1-1.14-1.2,3.49,3.49,0,0,1,0-3.3m-.38,3.49a3.58,3.58,0,0,0,1.28,1.37,3.31,3.31,0,0,0,1.8.51,3.36,3.36,0,0,0,1.8-.51,3.56,3.56,0,0,0,1.27-1.37,4,4,0,0,0,0-3.71,3.49,3.49,0,0,0-1.29-1.35,3.4,3.4,0,0,0-3.55,0,3.46,3.46,0,0,0-1.28,1.35,4,4,0,0,0,0,3.71" transform="translate(-234.7 -208.35)"/></svg>