<svg xmlns="http://www.w3.org/2000/svg" viewBox="0 0 281 72">
	<style>
		tspan { white-space:pre }
		.shp0 { fill: none } 
		.shp1 { fill: #1e59a0 } 
		.shp2 { fill: #53983d } 
		.shp3 { fill: #fbb929 } 
		.shp4 { fill: #e83f36 } 
		.shp5 { fill: #1d1d1b } 
	</style>
	<path id="Layer" class="shp0" d="M-41 -35L321.83 -35L321.83 106.73L-41 106.73L-41 -35Z" />
	<path id="Layer" class="shp1" d="M0.46 0.43L0.46 50.04L21.72 50.04L21.72 0.43L0.46 0.43L0.46 0.43L0.46 0.43Z" />
	<path id="Layer" class="shp2" d="M28.81 0.43L28.81 35.87L50.07 35.87L50.07 0.43L28.81 0.43L28.81 0.43L28.81 0.43Z" />
	<path id="Layer" class="shp3" d="M28.81 35.87L28.81 50.04L50.07 50.04L50.07 35.87L28.81 35.87L28.81 35.87L28.81 35.87Z" />
	<path id="Layer" class="shp4" d="M0.46 50.04L0.46 71.3L21.72 71.3L21.72 50.04L0.46 50.04L0.46 50.04L0.46 50.04Z" />
	<path id="Layer" fill-rule="evenodd" class="shp5" d="M70.4 36.88L70.4 50.03L64.24 50.03L64.24 14.59L77.8 14.59C81.76 14.59 84.9 15.62 87.23 17.68C87.8 18.19 88.32 18.76 88.77 19.38C89.22 20.01 89.6 20.68 89.9 21.38C90.2 22.09 90.42 22.83 90.56 23.58C90.7 24.34 90.76 25.1 90.73 25.87C90.77 26.63 90.73 27.39 90.59 28.14C90.46 28.89 90.25 29.62 89.95 30.32C89.66 31.02 89.29 31.69 88.84 32.31C88.4 32.92 87.88 33.49 87.31 33.99C85.03 35.92 81.84 36.89 77.73 36.88L70.4 36.88ZM70.4 31.88L77.8 31.88C78.25 31.91 78.69 31.9 79.14 31.84C79.58 31.79 80.02 31.7 80.44 31.57C80.87 31.44 81.28 31.26 81.68 31.06C82.07 30.85 82.45 30.61 82.8 30.33C83.1 30.04 83.36 29.73 83.59 29.38C83.81 29.04 84 28.67 84.15 28.29C84.3 27.91 84.41 27.51 84.47 27.1C84.53 26.69 84.55 26.28 84.52 25.87C84.54 25.45 84.52 25.03 84.45 24.61C84.39 24.19 84.28 23.79 84.13 23.39C83.98 23 83.79 22.62 83.56 22.27C83.33 21.91 83.07 21.58 82.77 21.28C82.45 20.98 82.09 20.72 81.72 20.49C81.34 20.26 80.95 20.07 80.53 19.92C80.12 19.77 79.7 19.66 79.26 19.59C78.83 19.52 78.39 19.49 77.95 19.51L70.4 19.51L70.4 31.88Z" />
	<path id="Layer" class="shp5" d="M108.3 29.1C108.1 29.07 107.9 29.04 107.7 29.01C107.5 28.99 107.3 28.97 107.1 28.95C106.9 28.93 106.7 28.92 106.5 28.91C106.29 28.9 106.09 28.9 105.89 28.9C103.18 28.9 101.36 29.9 100.41 32.02L100.41 50.02L94.5 50.02L94.5 23.65L100.15 23.65L100.3 26.65C100.59 26.12 100.95 25.64 101.37 25.21C101.8 24.78 102.27 24.41 102.79 24.11C103.31 23.81 103.87 23.58 104.46 23.42C105.04 23.27 105.64 23.2 106.24 23.21C106.42 23.2 106.6 23.21 106.78 23.22C106.95 23.23 107.13 23.25 107.31 23.28C107.48 23.31 107.66 23.35 107.83 23.4C108 23.44 108.17 23.5 108.34 23.56L108.3 29.1Z" />
	<path id="Layer" class="shp5" d="M111.19 16.83C111.18 16.62 111.2 16.41 111.23 16.21C111.27 16 111.32 15.8 111.4 15.6C111.47 15.41 111.56 15.22 111.68 15.04C111.79 14.87 111.92 14.7 112.06 14.55C112.22 14.39 112.4 14.25 112.59 14.13C112.78 14.01 112.99 13.91 113.2 13.83C113.41 13.75 113.63 13.7 113.85 13.67C114.08 13.63 114.3 13.62 114.53 13.64C114.76 13.63 114.98 13.63 115.21 13.67C115.43 13.7 115.65 13.75 115.87 13.83C116.08 13.91 116.28 14.01 116.48 14.13C116.67 14.25 116.85 14.39 117.01 14.55C117.16 14.7 117.29 14.87 117.4 15.04C117.51 15.22 117.6 15.41 117.68 15.6C117.76 15.8 117.81 16 117.85 16.21C117.88 16.41 117.9 16.62 117.89 16.83C117.9 17.04 117.88 17.24 117.84 17.45C117.81 17.65 117.75 17.85 117.68 18.04C117.6 18.23 117.51 18.42 117.4 18.59C117.28 18.76 117.15 18.92 117.01 19.07C116.85 19.23 116.67 19.36 116.47 19.48C116.28 19.6 116.08 19.7 115.86 19.78C115.65 19.86 115.43 19.91 115.21 19.94C114.98 19.98 114.76 19.98 114.53 19.97C114.3 19.98 114.08 19.98 113.86 19.94C113.63 19.91 113.41 19.86 113.2 19.78C112.99 19.7 112.78 19.6 112.59 19.48C112.4 19.37 112.22 19.23 112.06 19.07C111.92 18.92 111.79 18.76 111.68 18.59C111.56 18.41 111.47 18.23 111.4 18.04C111.32 17.85 111.27 17.65 111.23 17.44C111.2 17.24 111.18 17.04 111.19 16.83ZM117.47 50.03L111.56 50.03L111.56 23.65L117.47 23.65L117.47 50.03Z" />
	<path id="Layer" class="shp5" d="M128.69 23.65L128.87 26.4C129.34 25.86 129.86 25.38 130.44 24.96C131.02 24.54 131.64 24.19 132.29 23.91C132.95 23.63 133.63 23.43 134.33 23.3C135.04 23.17 135.75 23.13 136.46 23.16C139.98 23.16 142.39 24.51 143.69 27.21C144.13 26.56 144.66 25.97 145.25 25.45C145.85 24.93 146.5 24.49 147.21 24.14C147.91 23.79 148.66 23.53 149.43 23.36C150.2 23.2 150.98 23.13 151.77 23.16C154.67 23.16 156.84 23.97 158.26 25.57C159.68 27.17 160.4 29.57 160.44 32.68L160.44 49.99L154.52 49.99L154.52 32.89C154.55 32.56 154.55 32.24 154.51 31.91C154.48 31.59 154.42 31.27 154.32 30.95C154.23 30.64 154.11 30.33 153.96 30.04C153.81 29.75 153.63 29.48 153.43 29.22C153.18 29 152.92 28.81 152.63 28.65C152.35 28.49 152.05 28.36 151.74 28.26C151.42 28.16 151.1 28.09 150.78 28.06C150.45 28.02 150.13 28.02 149.8 28.05C149.5 28.04 149.21 28.05 148.92 28.09C148.62 28.13 148.33 28.2 148.05 28.29C147.77 28.38 147.5 28.5 147.24 28.64C146.98 28.78 146.73 28.94 146.5 29.13C146.28 29.32 146.08 29.52 145.9 29.73C145.71 29.95 145.54 30.18 145.39 30.42C145.24 30.66 145.11 30.91 144.99 31.17C144.88 31.43 144.78 31.7 144.71 31.97L144.71 50.03L138.79 50.03L138.79 32.7C138.71 29.6 137.13 28.05 134.04 28.05C133.53 28.02 133.02 28.06 132.52 28.17C132.02 28.29 131.54 28.48 131.1 28.74C130.66 28.99 130.25 29.32 129.9 29.69C129.56 30.07 129.26 30.49 129.04 30.95L129.04 50.03L123.12 50.03L123.12 23.65L128.69 23.65Z" />
	<path id="Layer" fill-rule="evenodd" class="shp5" d="M177.24 50.52C176.4 50.55 175.56 50.5 174.73 50.36C173.91 50.22 173.1 50 172.31 49.7C171.53 49.39 170.78 49.01 170.08 48.55C169.38 48.09 168.72 47.56 168.13 46.97C167.54 46.34 167.01 45.66 166.56 44.93C166.1 44.2 165.72 43.42 165.42 42.61C165.12 41.8 164.91 40.97 164.78 40.12C164.64 39.26 164.6 38.4 164.64 37.54L164.64 36.81C164.63 36.21 164.65 35.61 164.71 35.01C164.77 34.41 164.87 33.81 164.99 33.22C165.12 32.63 165.28 32.05 165.48 31.48C165.67 30.91 165.9 30.35 166.16 29.81C166.39 29.32 166.66 28.84 166.96 28.39C167.26 27.93 167.59 27.5 167.95 27.09C168.31 26.68 168.7 26.3 169.12 25.94C169.53 25.59 169.97 25.26 170.43 24.97C170.89 24.68 171.36 24.43 171.85 24.21C172.35 23.99 172.85 23.81 173.37 23.66C173.89 23.52 174.42 23.41 174.95 23.34C175.48 23.27 176.02 23.23 176.56 23.24C180.15 23.24 182.93 24.39 184.88 26.68C186.83 28.97 187.81 32.21 187.81 36.39L187.81 38.77L170.6 38.77C170.62 39.25 170.68 39.72 170.78 40.19C170.88 40.65 171.03 41.11 171.21 41.55C171.4 41.99 171.63 42.41 171.89 42.81C172.15 43.21 172.45 43.59 172.78 43.93C173.09 44.24 173.44 44.52 173.81 44.77C174.18 45.01 174.58 45.22 174.99 45.38C175.4 45.54 175.83 45.66 176.27 45.74C176.7 45.81 177.15 45.84 177.59 45.83C178.23 45.84 178.87 45.78 179.5 45.64C180.12 45.5 180.73 45.28 181.3 45C181.88 44.72 182.41 44.36 182.9 43.95C183.39 43.54 183.83 43.07 184.21 42.55L187.39 45.55C187.13 45.94 186.84 46.32 186.53 46.67C186.22 47.02 185.88 47.36 185.53 47.66C185.17 47.97 184.79 48.26 184.4 48.52C184.01 48.77 183.59 49.01 183.17 49.21C182.71 49.43 182.24 49.63 181.75 49.79C181.27 49.96 180.78 50.1 180.28 50.21C179.78 50.32 179.28 50.4 178.77 50.45C178.26 50.51 177.75 50.53 177.24 50.52ZM176.54 27.95C176.17 27.94 175.8 27.97 175.44 28.04C175.08 28.11 174.72 28.22 174.38 28.36C174.04 28.51 173.72 28.69 173.42 28.91C173.13 29.13 172.85 29.38 172.61 29.66C172.34 30 172.09 30.35 171.87 30.72C171.65 31.1 171.46 31.49 171.3 31.89C171.14 32.29 171.01 32.7 170.91 33.12C170.81 33.54 170.74 33.97 170.7 34.4L181.97 34.4L181.97 33.96C181.97 33.56 181.93 33.15 181.87 32.75C181.8 32.35 181.69 31.96 181.56 31.58C181.42 31.2 181.26 30.83 181.06 30.47C180.86 30.12 180.63 29.79 180.38 29.47C180.13 29.21 179.86 28.98 179.57 28.78C179.27 28.59 178.96 28.42 178.63 28.29C178.3 28.16 177.95 28.06 177.6 28.01C177.25 27.95 176.89 27.93 176.54 27.95Z" />
	<path id="Layer" class="shp5" d="M202.76 34.72L198.76 38.98L198.76 50.03L192.6 50.03L192.6 14.59L198.76 14.59L198.76 31.21L202.17 27L212.54 14.59L219.99 14.59L206.82 30.29L220.74 50.03L213.44 50.03L202.76 34.72Z" />
	<path id="Layer" fill-rule="evenodd" class="shp5" d="M232.66 50.52C231.82 50.55 230.98 50.5 230.15 50.36C229.32 50.23 228.51 50 227.73 49.7C226.95 49.39 226.2 49.01 225.49 48.55C224.79 48.09 224.14 47.56 223.54 46.97C222.95 46.34 222.42 45.66 221.97 44.93C221.51 44.2 221.13 43.42 220.83 42.61C220.53 41.8 220.32 40.97 220.19 40.12C220.05 39.26 220.01 38.4 220.05 37.54L220.05 36.81C220.04 36.21 220.07 35.61 220.13 35.01C220.19 34.41 220.28 33.81 220.41 33.22C220.54 32.63 220.7 32.05 220.89 31.48C221.09 30.91 221.31 30.35 221.57 29.81C221.8 29.32 222.07 28.84 222.37 28.39C222.67 27.93 223 27.5 223.36 27.09C223.72 26.68 224.11 26.3 224.53 25.94C224.94 25.59 225.38 25.26 225.84 24.97C226.3 24.68 226.77 24.43 227.27 24.21C227.76 23.99 228.27 23.81 228.79 23.66C229.3 23.52 229.83 23.41 230.37 23.34C230.9 23.27 231.44 23.23 231.98 23.24C235.56 23.24 238.33 24.39 240.29 26.68C242.25 28.97 243.23 32.21 243.22 36.39L243.22 38.77L226.01 38.77C226.03 39.25 226.09 39.72 226.19 40.19C226.3 40.65 226.44 41.11 226.63 41.55C226.81 41.99 227.04 42.41 227.3 42.81C227.56 43.21 227.86 43.58 228.19 43.93C228.5 44.24 228.85 44.52 229.22 44.77C229.59 45.01 229.99 45.21 230.4 45.38C230.81 45.54 231.24 45.66 231.68 45.74C232.11 45.81 232.56 45.84 233 45.83C233.64 45.84 234.28 45.78 234.91 45.64C235.53 45.5 236.14 45.28 236.71 45C237.29 44.72 237.82 44.36 238.31 43.95C238.8 43.54 239.24 43.07 239.62 42.55L242.81 45.55C242.55 45.94 242.26 46.32 241.95 46.67C241.63 47.02 241.3 47.36 240.94 47.66C240.58 47.97 240.21 48.26 239.81 48.52C239.42 48.77 239.01 49.01 238.58 49.21C238.12 49.43 237.65 49.63 237.17 49.79C236.69 49.96 236.19 50.1 235.7 50.21C235.2 50.32 234.69 50.4 234.19 50.45C233.68 50.51 233.17 50.53 232.66 50.52ZM230.85 28.04C230.49 28.11 230.13 28.22 229.79 28.36C229.45 28.51 229.13 28.69 228.83 28.91C228.54 29.13 228.26 29.38 228.02 29.66C227.75 30 227.5 30.35 227.28 30.73C227.07 31.1 226.87 31.49 226.71 31.89C226.55 32.29 226.42 32.7 226.32 33.12C226.22 33.54 226.15 33.97 226.11 34.4L237.38 34.4L237.38 33.96C237.38 33.56 237.34 33.15 237.28 32.75C237.21 32.35 237.1 31.96 236.97 31.58C236.84 31.2 236.67 30.83 236.47 30.48C236.28 30.12 236.05 29.79 235.8 29.47C235.55 29.21 235.28 28.99 234.98 28.79C234.69 28.59 234.37 28.42 234.04 28.29C233.71 28.16 233.36 28.07 233.01 28.01C232.66 27.95 232.31 27.93 231.95 27.95C231.58 27.94 231.21 27.97 230.85 28.04Z" />
	<path id="Layer" class="shp5" d="M256.22 41.56L261.58 23.65L267.88 23.65L257.41 53.98C255.81 58.41 253.09 60.62 249.24 60.63C249 60.63 248.76 60.61 248.52 60.59C248.28 60.57 248.04 60.54 247.8 60.51C247.56 60.47 247.32 60.43 247.09 60.37C246.85 60.32 246.62 60.26 246.39 60.19L246.39 55.65L247.51 55.72C247.8 55.74 248.1 55.74 248.39 55.71C248.68 55.69 248.97 55.64 249.26 55.57C249.54 55.5 249.82 55.41 250.09 55.3C250.37 55.19 250.63 55.06 250.88 54.91C251.09 54.73 251.29 54.54 251.48 54.34C251.66 54.13 251.83 53.91 251.98 53.68C252.14 53.44 252.27 53.2 252.38 52.95C252.5 52.7 252.59 52.44 252.67 52.17L253.52 49.91L244.3 23.65L250.68 23.65L256.22 41.56Z" />
	<path id="Layer" fill-rule="evenodd" class="shp5" d="M273.81 28.76C273.66 28.47 273.55 28.17 273.47 27.86C273.39 27.55 273.35 27.23 273.35 26.9C273.35 26.58 273.39 26.26 273.47 25.95C273.55 25.64 273.66 25.34 273.81 25.05C273.88 24.91 273.97 24.78 274.06 24.65C274.15 24.52 274.25 24.4 274.36 24.29C274.47 24.17 274.58 24.07 274.7 23.97C274.83 23.87 274.96 23.78 275.09 23.7C275.36 23.54 275.64 23.41 275.94 23.33C276.24 23.24 276.55 23.2 276.86 23.2C277.18 23.2 277.49 23.24 277.79 23.33C278.09 23.41 278.37 23.54 278.64 23.7C278.78 23.78 278.91 23.87 279.03 23.97C279.15 24.07 279.27 24.17 279.38 24.29C279.49 24.4 279.59 24.52 279.68 24.65C279.77 24.78 279.86 24.91 279.93 25.05C280.08 25.34 280.19 25.64 280.27 25.95C280.35 26.26 280.39 26.58 280.39 26.9C280.39 27.23 280.35 27.55 280.27 27.86C280.19 28.17 280.08 28.47 279.93 28.76C279.86 28.9 279.77 29.03 279.68 29.16C279.59 29.29 279.49 29.41 279.39 29.53C279.28 29.65 279.16 29.75 279.04 29.85C278.92 29.95 278.79 30.05 278.66 30.13C278.53 30.21 278.39 30.29 278.24 30.35C278.1 30.42 277.95 30.47 277.8 30.51C277.64 30.56 277.49 30.59 277.33 30.61C277.18 30.63 277.02 30.64 276.86 30.64C276.7 30.64 276.54 30.63 276.39 30.61C276.23 30.59 276.08 30.56 275.92 30.51C275.77 30.47 275.62 30.42 275.48 30.35C275.33 30.29 275.19 30.21 275.06 30.13C274.93 30.05 274.8 29.95 274.67 29.85C274.55 29.75 274.44 29.65 274.33 29.53C274.22 29.41 274.12 29.29 274.03 29.16C273.94 29.03 273.85 28.9 273.78 28.76M274.16 25.27C274.02 25.52 273.92 25.79 273.85 26.07C273.78 26.35 273.75 26.63 273.75 26.92C273.75 27.21 273.78 27.49 273.85 27.77C273.92 28.05 274.02 28.32 274.16 28.57C274.22 28.69 274.3 28.81 274.38 28.93C274.46 29.04 274.55 29.15 274.65 29.25C274.74 29.35 274.85 29.45 274.95 29.53C275.06 29.62 275.18 29.7 275.3 29.77C275.53 29.91 275.78 30.02 276.05 30.09C276.31 30.16 276.58 30.2 276.85 30.2C277.12 30.2 277.39 30.16 277.65 30.09C277.92 30.02 278.17 29.91 278.4 29.77C278.52 29.7 278.63 29.62 278.74 29.53C278.85 29.44 278.95 29.35 279.05 29.25C279.15 29.15 279.24 29.04 279.32 28.92C279.4 28.81 279.47 28.69 279.54 28.57C279.61 28.44 279.67 28.31 279.72 28.18C279.77 28.04 279.81 27.9 279.85 27.77C279.88 27.63 279.91 27.48 279.92 27.34C279.94 27.2 279.95 27.05 279.95 26.91C279.95 26.77 279.94 26.63 279.92 26.49C279.91 26.35 279.88 26.21 279.85 26.07C279.81 25.93 279.77 25.8 279.72 25.67C279.67 25.53 279.61 25.4 279.54 25.28C279.48 25.16 279.4 25.04 279.32 24.93C279.24 24.81 279.16 24.71 279.06 24.6C278.97 24.5 278.87 24.41 278.76 24.32C278.65 24.23 278.54 24.15 278.42 24.08C278.3 24.01 278.18 23.94 278.06 23.88C277.93 23.83 277.8 23.78 277.67 23.74C277.53 23.7 277.4 23.68 277.26 23.66C277.13 23.64 276.99 23.63 276.85 23.63C276.71 23.63 276.58 23.64 276.44 23.66C276.31 23.68 276.17 23.71 276.04 23.74C275.91 23.78 275.78 23.83 275.65 23.88C275.53 23.94 275.41 24 275.29 24.07C275.17 24.14 275.06 24.22 274.95 24.31C274.84 24.4 274.74 24.49 274.64 24.6C274.55 24.7 274.46 24.8 274.37 24.92C274.29 25.03 274.22 25.15 274.15 25.27L274.16 25.27ZM276.06 27.2L276.06 28.92L275.58 28.92L275.58 24.75L276.86 24.75C276.96 24.74 277.06 24.75 277.16 24.76C277.25 24.77 277.35 24.79 277.45 24.81C277.54 24.84 277.63 24.87 277.72 24.91C277.81 24.96 277.9 25 277.98 25.06C278.05 25.12 278.11 25.18 278.16 25.25C278.21 25.32 278.25 25.39 278.29 25.47C278.32 25.55 278.34 25.64 278.36 25.72C278.37 25.81 278.38 25.89 278.37 25.98C278.38 26.09 278.36 26.2 278.33 26.3C278.3 26.41 278.25 26.51 278.19 26.6C278.13 26.69 278.05 26.77 277.96 26.83C277.87 26.9 277.77 26.95 277.67 26.98C277.72 27 277.77 27.02 277.82 27.04C277.87 27.07 277.92 27.1 277.96 27.13C278 27.17 278.04 27.2 278.08 27.25C278.11 27.29 278.14 27.33 278.17 27.38C278.19 27.43 278.22 27.48 278.23 27.54C278.25 27.59 278.27 27.64 278.28 27.7C278.29 27.75 278.3 27.81 278.3 27.86C278.31 27.92 278.31 27.97 278.31 28.03C278.31 28.08 278.3 28.12 278.3 28.17C278.3 28.21 278.3 28.26 278.3 28.3C278.3 28.35 278.3 28.4 278.3 28.44C278.3 28.49 278.31 28.53 278.31 28.58C278.31 28.6 278.31 28.63 278.32 28.65C278.32 28.68 278.32 28.7 278.33 28.72C278.33 28.75 278.34 28.77 278.35 28.79C278.35 28.81 278.36 28.84 278.37 28.86L278.37 28.94L277.87 28.94C277.85 28.87 277.84 28.79 277.83 28.71C277.82 28.64 277.81 28.56 277.8 28.49C277.8 28.41 277.79 28.34 277.79 28.26C277.79 28.18 277.8 28.11 277.8 28.03C277.8 27.97 277.8 27.92 277.8 27.86C277.79 27.81 277.78 27.75 277.76 27.7C277.75 27.65 277.73 27.6 277.7 27.55C277.68 27.5 277.64 27.45 277.61 27.41C277.57 27.37 277.52 27.34 277.47 27.32C277.42 27.29 277.37 27.27 277.31 27.25C277.26 27.24 277.2 27.22 277.15 27.22C277.09 27.21 277.04 27.21 276.98 27.22L276.06 27.2ZM276.04 26.78L276.94 26.78C277 26.78 277.06 26.78 277.12 26.77C277.17 26.76 277.23 26.75 277.29 26.73C277.34 26.72 277.4 26.69 277.45 26.67C277.5 26.64 277.55 26.61 277.6 26.57C277.64 26.54 277.68 26.5 277.72 26.46C277.75 26.42 277.78 26.38 277.8 26.33C277.82 26.28 277.84 26.23 277.85 26.18C277.87 26.13 277.87 26.07 277.87 26.02C277.88 25.96 277.87 25.91 277.87 25.85C277.86 25.8 277.85 25.74 277.83 25.69C277.81 25.64 277.78 25.59 277.75 25.54C277.72 25.49 277.69 25.45 277.65 25.41C277.6 25.38 277.54 25.35 277.48 25.32C277.42 25.29 277.36 25.27 277.29 25.26C277.23 25.24 277.17 25.23 277.1 25.22C277.04 25.22 276.97 25.22 276.91 25.22L276.04 25.22L276.04 26.78Z" />
</svg>
