<?xml version="1.0" encoding="UTF-8"?>
<svg id="Layer_1" data-name="Layer 1" xmlns="http://www.w3.org/2000/svg" viewBox="0 0 400.46 134.56">
  <defs>
    <style>
      .cls-1 {
        fill: #f36f25;
      }

      .cls-1, .cls-2, .cls-3, .cls-4, .cls-5 {
        stroke-width: 0px;
      }

      .cls-2 {
        fill: #669f42;
      }

      .cls-3 {
        fill: #a777b4;
      }

      .cls-3, .cls-5 {
        fill-rule: evenodd;
      }

      .cls-4, .cls-5 {
        fill: #754098;
      }
    </style>
  </defs>
  <g>
    <rect class="cls-2" x="131.98" y="73.22" width="249.22" height="1.63"/>
    <g>
      <path class="cls-4" d="M135.11,94.52h-2.68l2.27-10.86h-3.82l.45-2.18h10.27l-.45,2.18h-3.77l-2.27,10.86Z"/>
      <path class="cls-4" d="M150.04,85.07h2.37l-.38,1.83c.89-1.37,1.85-2.05,2.9-2.05.36,0,.75.09,1.18.27l-.98,2.09c-.24-.08-.48-.12-.74-.12-.43,0-.89.16-1.34.49-.45.34-.81.78-1.06,1.34-.27.55-.51,1.43-.76,2.63l-.62,2.96h-2.55l1.97-9.45Z"/>
      <path class="cls-4" d="M165.24,85.07h2.55l-1.17,5.6c-.14.66-.2,1.09-.2,1.25,0,.27.1.5.29.7.2.19.46.29.78.29.22,0,.44-.04.66-.13.22-.09.45-.22.68-.4.23-.17.44-.37.62-.6.19-.23.36-.52.52-.88.11-.28.23-.72.36-1.34l.94-4.5h2.55l-1.97,9.45h-2.39l.27-1.28c-1.05,1-2.18,1.5-3.41,1.5-.77,0-1.38-.22-1.83-.67-.44-.44-.67-1.04-.67-1.79,0-.32.1-.98.3-1.95l1.1-5.27Z"/>
      <path class="cls-4" d="M182.08,91.87l2.47-.4c.22.53.49.89.81,1.12.33.21.77.32,1.34.32s1.04-.13,1.39-.39c.25-.18.37-.4.37-.65,0-.17-.06-.33-.18-.47-.13-.12-.49-.28-1.06-.48-1.55-.51-2.49-.91-2.86-1.21-.57-.46-.86-1.06-.86-1.81s.28-1.39.83-1.94c.78-.75,1.94-1.13,3.46-1.13,1.21,0,2.13.22,2.75.66.62.45,1.02,1.04,1.18,1.8l-2.36.41c-.13-.34-.32-.6-.61-.77-.38-.23-.83-.35-1.37-.35s-.92.09-1.15.27c-.23.18-.35.38-.35.62s.12.44.35.58c.15.09.63.26,1.43.5,1.25.37,2.08.72,2.5,1.07.6.49.89,1.08.89,1.77,0,.89-.37,1.68-1.13,2.33-.75.66-1.81.99-3.18.99s-2.42-.25-3.17-.75c-.74-.5-1.24-1.21-1.5-2.12Z"/>
      <path class="cls-4" d="M201.17,86.96l.38-1.9h1.26l.31-1.5,2.93-1.76-.69,3.27h1.56l-.4,1.9h-1.56l-.83,3.96c-.14.72-.22,1.13-.22,1.23,0,.2.06.35.19.46.12.11.35.17.67.17.11,0,.4-.02.85-.06l-.4,1.89c-.43.09-.89.14-1.35.14-.91,0-1.56-.17-1.96-.53-.41-.34-.61-.82-.61-1.44,0-.29.11-.96.33-2.01l.79-3.8h-1.24Z"/>
      <path class="cls-4" d="M233.47,94.52l2.73-13.03h3.52c.98,0,1.6.02,1.87.04.54.06,1.02.16,1.45.33.42.17.81.4,1.16.7.34.3.65.66.9,1.07.25.42.44.91.59,1.46.13.54.2,1.15.2,1.8,0,1.4-.27,2.65-.81,3.73-.54,1.09-1.21,1.95-2.02,2.59-.63.49-1.43.87-2.41,1.11-.56.12-1.41.19-2.57.19h-4.6ZM236.59,92.41h1.36c.99,0,1.7-.06,2.13-.18.44-.12.85-.35,1.22-.68.52-.48.97-1.12,1.33-1.92.36-.8.55-1.75.55-2.83,0-.92-.15-1.62-.46-2.08-.3-.46-.66-.78-1.11-.93-.31-.1-.85-.16-1.64-.16h-1.56l-1.83,8.78Z"/>
      <path class="cls-4" d="M263.75,90.59h-6.41c0,.1,0,.18,0,.23,0,.63.18,1.13.54,1.52.36.38.8.57,1.31.57.85,0,1.51-.43,1.99-1.32l2.29.39c-.44.92-1.04,1.6-1.78,2.07-.75.46-1.59.69-2.51.69-1.27,0-2.31-.4-3.09-1.2-.8-.81-1.19-1.87-1.19-3.19s.34-2.44,1.06-3.45c.99-1.36,2.38-2.04,4.2-2.04,1.15,0,2.07.36,2.75,1.07.68.71,1.02,1.71,1.02,3,0,.62-.06,1.17-.17,1.66ZM261.6,89.03c0-.11.01-.2.01-.26,0-.7-.16-1.23-.48-1.57-.32-.35-.73-.53-1.26-.53s-1,.2-1.41.59c-.42.4-.71.98-.85,1.76h4Z"/>
      <path class="cls-4" d="M272.65,94.52l2.73-13.03h2.54l-2.72,13.03h-2.55Z"/>
      <path class="cls-4" d="M287.7,85.07h2.55l-1.98,9.45h-2.55l1.97-9.45ZM288.45,81.48h2.55l-.48,2.31h-2.55l.48-2.31Z"/>
      <path class="cls-4" d="M303.5,94.52h-2.19l-1.89-9.45h2.51l.66,4.13c.18,1.11.3,1.85.33,2.21.04-.09.25-.48.62-1.15.37-.66.59-1.06.67-1.2l2.34-3.99h2.76l-5.81,9.45Z"/>
      <path class="cls-4" d="M326.1,90.59h-6.4c0,.1,0,.18,0,.23,0,.63.18,1.13.54,1.52.36.38.8.57,1.31.57.85,0,1.51-.43,1.99-1.32l2.28.39c-.45.92-1.03,1.6-1.77,2.07-.74.46-1.58.69-2.5.69-1.28,0-2.3-.4-3.1-1.2-.8-.81-1.19-1.87-1.19-3.19s.36-2.44,1.07-3.45c.98-1.36,2.38-2.04,4.19-2.04,1.16,0,2.08.36,2.76,1.07.68.71,1.02,1.71,1.02,3,0,.62-.06,1.17-.17,1.66ZM323.94,89.03c0-.11,0-.2,0-.26,0-.7-.15-1.23-.47-1.57-.31-.35-.73-.53-1.26-.53s-1,.2-1.42.59c-.42.4-.7.98-.85,1.76h3.99Z"/>
      <path class="cls-4" d="M336.86,85.07h2.38l-.38,1.83c.89-1.37,1.84-2.05,2.89-2.05.36,0,.76.09,1.18.27l-.98,2.09c-.24-.08-.48-.12-.74-.12-.44,0-.88.16-1.33.49-.46.34-.81.78-1.06,1.34-.26.55-.51,1.43-.76,2.63l-.63,2.96h-2.55l1.98-9.45Z"/>
      <path class="cls-4" d="M359.3,90.59h-6.41c0,.1,0,.18,0,.23,0,.63.18,1.13.54,1.52.35.38.79.57,1.31.57.85,0,1.5-.43,1.99-1.32l2.28.39c-.44.92-1.04,1.6-1.78,2.07-.75.46-1.58.69-2.51.69-1.26,0-2.29-.4-3.09-1.2-.79-.81-1.2-1.87-1.2-3.19s.37-2.44,1.08-3.45c.98-1.36,2.38-2.04,4.19-2.04,1.16,0,2.07.36,2.76,1.07.67.71,1.02,1.71,1.02,3,0,.62-.06,1.17-.18,1.66ZM357.15,89.03c0-.11,0-.2,0-.26,0-.7-.15-1.23-.47-1.57-.31-.35-.74-.53-1.27-.53s-.99.2-1.42.59c-.42.4-.7.98-.84,1.76h3.99Z"/>
      <path class="cls-4" d="M376.95,94.52h-2.42l.22-1.02c-.46.44-.91.76-1.37.95-.45.19-.95.29-1.51.29-.98,0-1.77-.33-2.37-1-.61-.67-.92-1.66-.92-2.96,0-1.5.43-2.87,1.29-4.09.85-1.22,1.98-1.83,3.39-1.83,1.27,0,2.22.5,2.85,1.51l1.03-4.88h2.55l-2.72,13.03ZM371.04,90.67c0,.67.18,1.2.52,1.58.34.38.76.57,1.26.57s.9-.16,1.3-.47c.4-.32.72-.81.96-1.46.24-.66.36-1.27.36-1.88,0-.68-.19-1.23-.55-1.65-.37-.42-.79-.63-1.27-.63-.75,0-1.37.41-1.84,1.24-.48.83-.73,1.72-.73,2.69Z"/>
    </g>
    <g>
      <path class="cls-1" d="M161.07,61.81l-8.31-.79c-.74.76-1.41,1.3-2.03,1.64-1.17.61-2.35.91-3.53.91-1.96,0-3.47-.75-4.49-2.24-.72-1.01-1.04-2.48-.98-4.45l.03-.85h21.44l.06-.46c.54-3.58.4-6.5-.42-8.69-.78-2.15-2.11-3.75-4.06-4.88-1.98-1.14-4.89-1.73-8.7-1.73-4.64,0-8.53,1.32-11.53,3.91-3,2.58-4.85,6.03-5.46,10.23-.44,2.93-.16,5.5.8,7.63.98,2.15,2.33,3.67,4.11,4.65,1.82.98,4.52,1.48,8.03,1.48,4.08,0,7.31-.6,9.62-1.76,1.94-.97,3.76-2.52,5.44-4.6ZM142.55,51.5c.47-1.86,1.12-3.24,2-4.21,1.39-1.56,3.08-2.37,5.03-2.37,1.72,0,3.08.57,4.03,1.69.91,1.09,1.31,2.78,1.19,5.14l-.04.85h-12.49l.28-1.1Z"/>
      <path class="cls-1" d="M216.25,42.67c-1.33-1.6-3.38-2.39-6.25-2.39-2.01,0-3.76.32-5.19.93-1.47.63-3.2,1.85-5.19,3.64l-.95.86-.47-1.2c-.56-1.42-1.36-2.46-2.44-3.16-1.09-.71-2.73-1.06-4.89-1.06-2.04,0-3.85.34-5.38,1.03-1.54.68-3.19,1.86-4.89,3.5l-1.93,1.87.9-5.76h-8.69l-4.14,26.62h9.47l2.13-13.74c.38-2.34,1.12-4.07,2.24-5.15,1.14-1.11,2.51-1.67,4.04-1.67,1,0,1.86.29,2.55.86.69.57,1.11,1.34,1.28,2.25.07.36.12,1.04-.16,2.84l-2.28,14.61h9.47l2.16-13.9c.36-2.27,1.07-3.9,2.17-4.97,1.12-1.09,2.48-1.64,4.03-1.64,1.44,0,2.59.66,3.36,1.9.53.8.68,1.94.44,3.47l-2.36,15.14h9.46l2.67-17.08c.55-3.56.17-6.19-1.13-7.79Z"/>
      <path class="cls-1" d="M244.53,40.92l-1.99,12.91c-.43,2.81-1.2,4.72-2.34,5.88-1.17,1.16-2.57,1.76-4.14,1.76s-2.65-.5-3.38-1.49c-.72-.96-.92-2.42-.6-4.47l2.25-14.59h-9.37l-2.67,17.33c-.54,3.45-.15,5.99,1.15,7.57,1.29,1.59,3.28,2.36,6.09,2.36,2.14,0,4.03-.38,5.6-1.12,1.6-.75,3.3-2.05,5.07-3.85l1.94-2.01-.98,6.34h8.58l4.1-26.62h-9.31Z"/>
      <path class="cls-1" d="M281.83,30.12l-2.4,14.75-1.24-1.48c-.88-1.02-1.96-1.81-3.22-2.31-1.29-.52-2.79-.8-4.5-.8-3.51,0-6.63,1.19-9.3,3.52-2.66,2.35-4.38,5.81-5.11,10.28-.64,3.98-.15,7.39,1.46,10.13,1.56,2.67,4.2,3.97,8.06,3.97,1.94,0,3.79-.39,5.49-1.15,1.26-.57,2.81-1.73,4.55-3.44l1.94-1.89-.96,5.84h9.19l6.07-37.42h-10.03ZM277.98,54.3c-.42,2.64-1.32,4.61-2.64,5.83-1.34,1.24-2.89,1.87-4.62,1.87s-3.04-.68-4-2c-.93-1.29-1.17-3.17-.75-5.76.42-2.66,1.27-4.6,2.51-5.8,1.27-1.2,2.71-1.82,4.31-1.82,1.85,0,3.31.67,4.31,1.99,1,1.3,1.3,3.21.89,5.69Z"/>
      <path class="cls-1" d="M323.21,42.66c-1.33-1.6-3.38-2.38-6.23-2.38-1.97,0-3.75.32-5.28.93-1.55.62-3.18,1.68-4.91,3.15l-1.85,1.57,2.52-15.8h-9.63l-5.93,37.42h9.64l2.02-12.88c.45-2.81,1.23-4.73,2.41-5.87,1.2-1.16,2.61-1.76,4.24-1.76,1.54,0,2.69.49,3.45,1.46.74.95.95,2.4.62,4.47l-2.32,14.58h9.68l2.74-17.3c.54-3.44.15-6-1.18-7.58Z"/>
      <path class="cls-1" d="M339.95,49.04c1.1-1.38,2.51-2.09,4.2-2.09.7,0,1.5.18,2.48.55l3.59-6.26c-2.77-1.36-5.28-1.21-7.14.03-1.02.68-2.14,1.98-3.32,3.88l-2.28,3.64,1.16-7.88h-8.15l-3.93,26.62h8.89l1.29-8.75c.7-4.76,1.76-7.95,3.22-9.75Z"/>
      <path class="cls-1" d="M371.2,63.07v1.9c0,.95.07,1.41.09,1.64.03.17.11.45.3.94h8.67c-.19-.74-.31-1.38-.36-1.94-.07-.83.02-1.92.24-3.35l1.94-12.54c.18-1.22.13-2.53-.16-3.89-.29-1.29-.78-2.28-1.47-2.95-1.05-1.04-2.48-1.72-4.28-2.05-1.92-.36-4.56-.54-7.84-.54-2.02,0-3.97.15-5.75.45-1.75.28-3.16.69-4.19,1.2-1.44.71-2.58,1.56-3.43,2.51-.65.73-1.25,1.72-1.8,2.94l8.75.9c.65-1.1,1.35-1.88,2.18-2.34,1.16-.65,2.68-.97,4.69-.97,1.72,0,2.87.36,3.54,1.09.68.75.89,1.92.64,3.55l-.09.53-.49.18c-1.49.54-2.91.99-4.24,1.33-1.33.34-4.2.92-8.48,1.73-3.43.65-5.87,1.62-7.25,2.88-1.37,1.26-2.19,2.83-2.48,4.8-.31,2.02.2,3.67,1.54,5.04,1.38,1.39,3.72,2.09,6.94,2.09,2.5,0,4.77-.37,6.78-1.13,1.42-.54,2.96-1.48,4.57-2.79l1.45-1.2ZM363.55,63.93c-1.44,0-2.52-.37-3.22-1.09-.73-.74-1.02-1.73-.84-2.87.15-.95.67-1.82,1.56-2.55.81-.67,2.39-1.28,4.95-1.92,1.7-.41,3.36-.88,4.95-1.4l1.39-.46-.5,3.18c-.23,1.48-.67,2.72-1.32,3.67-.65.97-1.66,1.78-2.95,2.44-1.29.65-2.64.98-4.02.98Z"/>
    </g>
  </g>
  <g>
    <path class="cls-3" d="M66.17,101.68s10.32-2.73,19.06-9.33c10.32-7.77,28.12-28.37,23.4-48.85-4.4-17.9-20.59-19.87-34.06-16.77-11.25,2.56-20.67,8.44-20.67,8.44,16.17-15.36,51.34-24.9,61.83-.74,6.93,16.4-2.58,35.41-12.33,46.55-4.91,5.55-10.58,10.25-16.81,13.83-6.04,3.67-12.69,6.18-20.43,6.86h0Z"/>
    <path class="cls-5" d="M53.01,27.53c-12.4,10.6-30.96,35.23-23.2,59.04,6.87,21.2,26.34,23.82,42.22,20.17,13.34-3.14,24.44-10.68,24.44-10.68-18.69,19.49-59.71,29.95-74.43,1.24-10.06-18.81-.06-44.17,11.76-57.68,16.76-19.34,31.13-22.94,43.89-24.48,0,0-14.02,3.08-24.66,12.39h0Z"/>
    <path class="cls-2" d="M80.33,68.59h-25.7c-.45,2.99-.26,5.62.52,7.9.81,2.29,2.1,4,3.85,5.15,1.77,1.17,3.82,1.74,6.16,1.74,1.57,0,3.02-.19,4.39-.56,1.37-.36,2.71-.96,4.07-1.73,1.35-.79,2.61-1.63,3.76-2.54,1.2-.9,2.72-2.12,4.62-3.66.76-.58,1.76-.88,3-.88,1.35,0,2.39.39,3.12,1.13.71.73.97,1.78.75,3.11-.19,1.19-.91,2.59-2.07,4.2-1.19,1.56-2.83,3.09-4.95,4.56-2.11,1.44-4.66,2.66-7.65,3.61-3.01.97-6.36,1.44-10.03,1.44-8.47,0-14.65-2.39-18.57-7.2-3.91-4.82-5.21-11.37-3.9-19.6.63-3.89,1.77-7.5,3.49-10.83,1.68-3.32,3.84-6.18,6.41-8.55,2.61-2.35,5.62-4.18,9.07-5.45,3.46-1.27,7.17-1.91,11.09-1.91,5.15,0,9.37,1.08,12.7,3.26,3.34,2.17,5.64,4.94,6.93,8.39,1.26,3.45,1.63,6.94,1.07,10.51-.54,3.31-1.82,5.44-3.88,6.42-2.04.96-4.8,1.47-8.24,1.47h0ZM55.8,61.14h23.84c.43-4.5-.26-7.86-2.01-10.08-1.76-2.24-4.33-3.35-7.78-3.35s-6.13,1.13-8.6,3.38c-2.47,2.27-4.3,5.62-5.46,10.06h0Z"/>
  </g>
</svg>