<svg xmlns="http://www.w3.org/2000/svg" viewBox="0 0 175 66"><defs><clipPath id="a"><path d="M11 11h41v41H11Zm0 0"/></clipPath><clipPath id="b"><path d="M39.336 11.398c0 .301 0 .602.152.903-1.347.148-2.543.148-3.89.3 0-.3 0-.601-.149-.902-.597 0-1.195.153-1.644.153 0 .296 0 .597.148.898-1.348.148-2.691.148-4.039.3 0-.3 0-.6-.148-.902-.598 0-1.196.153-1.797.153 0 .3 0 .597.152.898-1.348.153-2.844.153-4.191.301 0-.3 0-.602-.149-.898-.597 0-1.195.148-1.793.148 0 .3 0 .602.149.898-3.442.301-6.88.454-10.469.75.45 4.051.746 8.102 1.195 12.153.45 4.05.899 8.097 1.196 12.148.449 4.051.898 8.102 1.199 12.153l.148 1.347c1.793-.148 3.59-.449 5.086-.898l-.449-4.2c-.3-3.453-.75-6.902-1.047-10.203-.3-3.449-.75-6.75-1.047-10.199-.3-3.449-.75-6.75-1.047-10.199 1.793-.148 3.59-.3 5.383-.45 0 .302 0 .75.152 1.052.598 0 1.196-.153 1.793-.153 0-.3-.148-.75-.148-1.05 1.344-.149 2.84-.149 4.188-.297 0 .296 0 .75.148 1.046.598 0 1.2-.148 1.797-.148 0-.3 0-.75-.152-1.05 1.347-.15 2.695-.15 4.039-.302 0 .301 0 .75.152 1.051.598 0 1.195-.148 1.644-.148 0-.301 0-.75-.152-1.051 1.348-.148 2.695-.148 3.89-.3 0 .3 0 .6.15 1.05.597 0 1.046-.148 1.644-.148 0-.301 0-.602-.149-1.051 1.496-.153 3.14-.301 4.637-.301.3 3.148.598 6.3 1.047 9.45.3 2.1.45 4.35.75 6.448 1.344-2.097 2.691-4.5 3.59-6.75v-.75c-.45-3.597-.75-7.199-1.2-10.796-2.84.148-5.832.449-8.824.597 0-.3 0-.597-.148-.898-.598-.153-1.196-.153-1.797-.153"/></clipPath><clipPath id="d"><path d="M1 3h60v60H1Zm0 0"/></clipPath><clipPath id="e"><path d="M43.973 44.852c1.648-1.653 3.293-3.301 4.789-4.954L48.91 42c.3 3.148.598 6.3 1.047 9.45-2.242.448-4.488.902-6.879 1.35-2.246.45-4.637.9-7.031 1.348-2.395.454-4.938.903-7.477 1.5h-.152c5.234-2.398 10.621-6.148 15.555-10.796m-13.91-36c8.976-4.653 17.652-5.403 21.84-.903 3.738 3.903 3.288 10.95-.45 18.602-.148.148-.148.3-.3.597-.15.153-.15.301-.298.602-.148.148-.148.3-.3.602-.149.148-.149.296-.297.597-.153.153-.153.301-.301.602-.148.148-.148.3-.3.597h-.298l-.3.454v.148c-.149.148-.297.3-.297.45l-.301.448-.148.153c-.149.148-.301.3-.45.597-2.093 3-4.636 5.852-7.629 8.704-6.43 6-13.761 10.199-20.043 11.847-.148 0-.296.153-.449.153-.148 0-.297.148-.597.148-.149 0-.297 0-.45.148-.148 0-.297 0-.597.153-4.934.898-9.125 0-11.817-2.7-4.336-4.5-3.14-12.902 2.094-21.601C1.195 39.898-.598 50.7 4.637 56.102 7.328 58.8 11.367 60 16.152 59.55L16.453 63c3.442-.75 6.879-1.352 10.172-2.102 3.29-.75 6.73-1.347 9.871-2.097 3.14-.602 6.133-1.352 9.125-1.95 2.988-.601 5.98-1.203 8.824-1.8-.449-3.602-.75-7.2-1.199-10.801l-.894-8.7c8.074-11.25 10.468-22.8 4.933-28.652-2.242-2.398-5.531-3.449-9.57-3.449-4.938-.3-11.219 1.653-17.653 5.403"/></clipPath><clipPath id="g"><path d="M25 18h18v22H25Zm0 0"/></clipPath><clipPath id="h"><path d="m32.758 34.2-.153 1.198c-.296 0-.449.301-.449.602 0 .3.153.45.301.602l-.148.898h-.45l-.449-1.05c0-.15-.148-.15-.3-.15-.15 0-.15.15-.15.302l.45 1.046a.83.83 0 0 0-.45.75l-1.944.301c-.149 0-.149.153-.149.153 0 .148.149.148.149.148l1.945-.3c.148.448.598.75 1.195.75.45 0 .899-.45.899-1.052l4.187-.597c.153 0 .153-.153.153-.153 0-.148-.153-.148-.153-.148l-4.187.602a2 2 0 0 0-.45-.602l.301-.898h.149c.152.148.449.148.597.148L35 36.602c.148 0 .148-.153.148-.153 0-.148-.148-.148-.148-.148l-1.348.148h-.148c.148-.148.148-.3.148-.449q0-.45-.445-.45l.148-1.198c0-.153 0-.153-.148-.153-.3-.148-.3-.148-.45 0m-2.245-2.398-.895.898c-.3-.3-.898-.148-1.047.153a.94.94 0 0 0 0 .898l-.449.45c-.152 0-.152.152 0 .3 0 .148.149.148.297 0l.45-.45c.148.15.448.15.75 0l.597.9c-.152.152-.152.152-.152.3s0 .3.152.3L28.12 37.8a.453.453 0 0 0-.601 0c-.149-.152-.149-.3-.149-.6 0-.15-.148-.15-.148-.15-.149 0-.149.15-.149.15 0 .3 0 .448.149.75a.97.97 0 0 0 0 .902c.297.449 1.047.296 1.195-.153.152-.3.152-.597 0-.75l2.094-2.25c.152.153.449 0 .597-.148q.451-.451 0-.903c-.148-.148-.445-.148-.597-.148l-.598-.898c.3-.301.3-.602.148-.903l.899-.898c.148 0 .148-.153 0-.301-.148.3-.297.3-.45.3.153 0 0 0 0 0m-4.484-1.35c-.152 0-.152.152-.152.152l.598 3.898c-.446.148-.895.75-.746 1.2.148.6.597 1.05 1.347.902.598 0 .895-.454.895-1.051l1.347-.153c.149 0 .149-.148.149-.148 0-.148-.149-.148-.149-.148l-1.347.148c-.149-.45-.598-.898-1.047-.898l-.598-3.903c-.148.153-.148 0-.297 0m14.957-1.8c-.152 0-.152.152-.152.152l.3 2.25a.82.82 0 0 0-.448.75c0 .3.3.597.746.597l.449 3c0 .153.152.153.152.153.149 0 .149-.153.149-.153l-.45-3a.82.82 0 0 0 .45-.75c0-.296-.301-.597-.75-.597l-.297-2.25c.148-.153 0-.153-.149-.153.149 0 0 0 0 0m-4.937-2.699c-.598.153-.899.602-.899 1.051l-3.738.45a.82.82 0 0 0-.746-.45c-.3 0-.602.3-.602.602l-2.84.449h-.148c-.3-.301-.601-.45-.898-.301-.598.148-1.047.602-.899 1.2.149.75.899 1.198 1.496.902l1.497 2.398c0 .148.148.148.3 0 .149 0 .149-.148 0-.3l-1.496-2.4c.297-.3.446-.75.297-1.198l2.844-.454c.148.301.45.454.598.454l.296.898c0 .148.153.148.301.148.149 0 .149-.148.149-.296l-.297-.903c.148-.148.297-.3.297-.449l3.742-.602c.148.301.445.602.746.75l-.149 1.204c0 .148 0 .148.149.148.148 0 .148 0 .148-.148l.153-.903c.597 0 1.195-.597 1.047-1.199-.153-.602-.602-.898-1.047-.898-.153-.153-.153-.153-.301-.153m4.187-.3c-.449 0-.746.3-1.047.75l-1.343.152c-.153 0-.153.148-.153.148 0 .153.153.153.153.153l1.047-.153c0 .602.297 1.051.746 1.352l-1.196 4.648c-.449 0-.75.153-.898.602l-2.242-.602c0-.148 0-.3-.153-.3.153-.149.301-.45.301-.75a.82.82 0 0 0 .746-.45.94.94 0 0 0 0-.898l2.395-1.95c.148 0 .148-.152 0-.3-.149-.153-.149-.153-.3 0L36.495 30c-.148-.148-.3-.148-.45-.148h-.448c-.149-.153-.297-.301-.45-.454-.296-.148-.597-.296-.894-.449v-.148l.746-.602c.148 0 .148-.148 0-.3 0-.149-.148-.149-.3 0l-.747.601c-.148-.148-.598-.148-.746 0-.3.148-.45.45-.45.602-.152.148-.3.148-.448.296-.153.153-.301.301-.45.454h-.449c-.148 0-.3.148-.45.296l-2.991-1.046c-.149 0-.149 0-.297.148 0 .148 0 .148.148.3l2.992 1.052c0 .296 0 .449.149.597.148.153.3.301.598.301.152.3.152.45.449.75l.449.45v.3l-1.047 1.352s-.148.148 0 .296c0 0 .149.153.3 0l1.196-1.199h.301c.297 0 .598-.3.445-.597 0-.301-.297-.602-.597-.454-.149 0-.297 0-.297.153-.153-.153-.301-.153-.301-.301-.148-.148-.148-.3-.3-.45.448-.152.6-.6.6-1.05 0-.3-.152-.45-.448-.602l.296-.296.301-.301c.149.148.45.3.746.3.301 0 .45-.3.602-.453.297 0 .445.153.598.301.148.153.296.301.296.45a1.16 1.16 0 0 0-.296.75c0 .3.296.601.597.75 0 .152-.148.3-.3.453-.297-.153-.598-.153-.747 0-.3.296-.449.75-.148 1.046.148.153.297.301.598.301l.597 1.801c-.148.148-.3.45 0 .75.149.148.45.3.746.148l1.797 1.352c-.148.3 0 .602.149.75.3.3.597.3.898.148.148-.148.297-.296.297-.449l1.348-.148c.3 0 .449-.153.746-.301.152.148.449 0 .601-.148q.445-.451 0-.903c-.152-.148-.449-.148-.601-.148l-1.492-1.5h-.301v.3l1.496 1.348c-.149.153-.149.301 0 .602-.149.148-.301.148-.598.148l-1.347.153c-.149-.153-.297-.301-.45-.454-.297 0-.449 0-.597.153l-1.793-1.352c0-.148 0-.3-.153-.449-.148-.148-.297-.148-.449-.148l-.598-1.801c.153 0 .153-.153.153-.301l2.242.602c0 .148 0 .296.148.449l-1.046.75c-.149 0-.149.148 0 .3 0 .149.148.149.3 0l1.047-.75c.149.149.297.149.45.297v1.5c0 .153.148.153.148.153.148 0 .148-.153.148-.153v-1.5c.301 0 .598-.296.75-.597.149-.301.149-.602 0-.75l.746-.602c.149 0 .149-.148 0-.3 0-.149-.148-.149-.297 0l-.601.601s-.148-.148-.297-.148l1.195-4.653c.75.153 1.496-.597 1.348-1.5-.152-.597-.598-1.05-1.2-1.05zm-8.226-6.75c-2.84.453-5.086 3-4.785 6l.148 1.5c0 .3.3.453.598.453.3 0 .449-.301.449-.602l-.148-1.5c-.301-2.398 1.496-4.5 3.886-4.8 1.946-.302 3.89.6 4.637 2.402 0 .148.3.296.45.296.152 0 .448 0 .448-.296.153-.153.153-.454 0-.602a5.42 5.42 0 0 0-4.933-3.148c-.153.296-.45.296-.75.296"/></clipPath><linearGradient id="c" x1="-7983.054" x2="-7982.622" y1="1074.032" y2="1074.032" gradientTransform="matrix(91.9417 0 0 -92.2044 733987.3 99062.191)" gradientUnits="userSpaceOnUse"><stop offset="0" style="stop-color:#1eb473;stop-opacity:1"/><stop offset="1" style="stop-color:#2758a7;stop-opacity:1"/></linearGradient><linearGradient id="f" x1="-8025.157" x2="-8024.725" y1="1070.427" y2="1070.427" gradientTransform="matrix(136.15673 0 0 -136.54575 1092680.649 146195.262)" gradientUnits="userSpaceOnUse"><stop offset="0" style="stop-color:#1eb473;stop-opacity:1"/><stop offset="1" style="stop-color:#2758a7;stop-opacity:1"/></linearGradient><linearGradient id="i" x1="-8098.743" x2="-8098.31" y1="1325.46" y2="1325.46" gradientTransform="matrix(6.28504 45.18825 45.0595 -6.303 -8791.646 374341.805)" gradientUnits="userSpaceOnUse"><stop offset="0" style="stop-color:#1eb473;stop-opacity:1"/><stop offset="1" style="stop-color:#2758a7;stop-opacity:1"/></linearGradient></defs><path d="M68.355 19.95c3.141 0 4.786 1.8 4.786 4.05 0 1.648-.899 3.148-2.84 3.75l2.84 4.95h-3.887l-2.543-4.65h-.45v4.65h-3.59V19.95Zm-.3 2.85h-1.793v2.7h1.793c.898 0 1.496-.45 1.496-1.352-.149-.75-.598-1.347-1.496-1.347M82.715 22.8h-4.488v1.95h4.039v2.7h-4.04v2.402h4.489v2.847h-8.078V19.95h8.078ZM88.098 19.95v9.902h3.89v2.847h-7.48V19.95ZM93.332 19.95h3.59V32.7h-3.59ZM107.094 22.8h-4.637v1.95h4.04v2.7h-4.04v2.402h4.637v2.847h-8.227V19.95h8.227ZM108.738 19.95h8.676v2.698h-5.086v2.25h3.742v2.704h-3.742v5.097h-3.59Zm0 0" style="stroke:none;fill-rule:nonzero;fill:#1eb473;fill-opacity:1"/><path d="M71.348 36.3h3.738l-4.34 12.75h-4.484L61.773 36.3h3.739l2.992 9.15ZM84.21 46.95h-4.487l-.75 2.1h-3.739l4.637-12.75h4.04l4.636 12.75h-3.738Zm-2.245-6.9-1.344 4.052h2.692ZM93.332 36.3v10.052h3.89v2.699h-7.48V36.3ZM98.719 36.3h3.59v12.75h-3.59ZM115.918 42.602c0 3.75-2.543 6.449-6.582 6.449h-5.082V36.3h4.933c4.04 0 6.731 2.55 6.731 6.3m-7.027 3.297c2.093 0 3.289-1.199 3.289-3.296 0-2.102-1.348-3.301-3.29-3.301h-1.199v6.597ZM125.492 46.95h-4.488l-.746 2.1h-3.742l4.636-12.75h4.04l4.636 12.75h-3.738Zm-2.246-6.9-1.344 4.052h2.692ZM130.277 36.3h10.32v2.848h-3.44v9.903h-3.438v-9.903h-3.442ZM141.945 36.3h3.59v12.75h-3.59ZM153.61 49.2c-3.59 0-6.579-2.7-6.579-6.598 0-3.903 2.989-6.454 6.578-6.454s6.434 2.704 6.434 6.454-2.844 6.597-6.434 6.597m0-3.3c1.797 0 2.993-1.348 2.993-3.297 0-1.954-1.047-3.301-2.993-3.301-1.793 0-2.988 1.199-2.988 3.3 0 1.95 1.047 3.297 2.988 3.297M173.355 36.3v12.75h-3.44l-4.786-7.198v7.199h-3.441V36.3h3.44l4.786 7.199v-7.2Zm0 0" style="stroke:none;fill-rule:nonzero;fill:#2758a7;fill-opacity:1"/><g clip-path="url(#a)"><g clip-path="url(#b)"><path d="M11.367 11.25h39.785v40.648H11.367Zm0 0" style="stroke:none;fill-rule:nonzero;fill:url(#c)"/></g></g><g clip-path="url(#d)"><g clip-path="url(#e)"><path d="M-.598 3.148H62.97v59.704H-.598Zm0 0" style="stroke:none;fill-rule:nonzero;fill:url(#f)"/></g></g><g clip-path="url(#g)"><g clip-path="url(#h)"><path d="m42.031 16.5 3.29 22.8L25.425 42l-3.14-22.8Zm0 0" style="stroke:none;fill-rule:nonzero;fill:url(#i)"/></g></g></svg>