<?xml version="1.0" encoding="UTF-8"?>
<svg xmlns="http://www.w3.org/2000/svg" xmlns:xlink="http://www.w3.org/1999/xlink" viewBox="0 0 175 66" version="1.1">
<defs>
<clipPath id="clip1">
  <path d="M 11 11 L 52 11 L 52 52 L 11 52 Z M 11 11 "/>
</clipPath>
<clipPath id="clip2">
  <path d="M 39.335938 11.398438 C 39.335938 11.699219 39.335938 12 39.488281 12.300781 C 38.140625 12.449219 36.945312 12.449219 35.597656 12.601562 C 35.597656 12.300781 35.597656 12 35.449219 11.699219 C 34.851562 11.699219 34.253906 11.851562 33.804688 11.851562 C 33.804688 12.148438 33.804688 12.449219 33.953125 12.75 C 32.605469 12.898438 31.261719 12.898438 29.914062 13.050781 C 29.914062 12.75 29.914062 12.449219 29.765625 12.148438 C 29.167969 12.148438 28.570312 12.300781 27.96875 12.300781 C 27.96875 12.601562 27.96875 12.898438 28.121094 13.199219 C 26.773438 13.351562 25.277344 13.351562 23.929688 13.5 C 23.929688 13.199219 23.929688 12.898438 23.78125 12.601562 C 23.183594 12.601562 22.585938 12.75 21.988281 12.75 C 21.988281 13.050781 21.988281 13.351562 22.136719 13.648438 C 18.695312 13.949219 15.257812 14.101562 11.667969 14.398438 C 12.117188 18.449219 12.414062 22.5 12.863281 26.550781 C 13.3125 30.601562 13.761719 34.648438 14.058594 38.699219 C 14.507812 42.75 14.957031 46.800781 15.257812 50.851562 L 15.40625 52.199219 C 17.199219 52.050781 18.996094 51.75 20.492188 51.300781 L 20.042969 47.101562 C 19.742188 43.648438 19.292969 40.199219 18.996094 36.898438 C 18.695312 33.449219 18.246094 30.148438 17.949219 26.699219 C 17.648438 23.25 17.199219 19.949219 16.902344 16.5 C 18.695312 16.351562 20.492188 16.199219 22.285156 16.050781 C 22.285156 16.351562 22.285156 16.800781 22.4375 17.101562 C 23.035156 17.101562 23.632812 16.949219 24.230469 16.949219 C 24.230469 16.648438 24.082031 16.199219 24.082031 15.898438 C 25.425781 15.75 26.921875 15.75 28.269531 15.601562 C 28.269531 15.898438 28.269531 16.351562 28.417969 16.648438 C 29.015625 16.648438 29.617188 16.5 30.214844 16.5 C 30.214844 16.199219 30.214844 15.75 30.0625 15.449219 C 31.410156 15.300781 32.757812 15.300781 34.101562 15.148438 C 34.101562 15.449219 34.101562 15.898438 34.253906 16.199219 C 34.851562 16.199219 35.449219 16.050781 35.898438 16.050781 C 35.898438 15.75 35.898438 15.300781 35.746094 15 C 37.09375 14.851562 38.441406 14.851562 39.636719 14.699219 C 39.636719 15 39.636719 15.300781 39.785156 15.75 C 40.382812 15.75 40.832031 15.601562 41.429688 15.601562 C 41.429688 15.300781 41.429688 15 41.28125 14.550781 C 42.777344 14.398438 44.421875 14.25 45.917969 14.25 C 46.21875 17.398438 46.515625 20.550781 46.964844 23.699219 C 47.265625 25.800781 47.414062 28.050781 47.714844 30.148438 C 49.058594 28.050781 50.40625 25.648438 51.304688 23.398438 L 51.304688 22.648438 C 50.855469 19.050781 50.554688 15.449219 50.105469 11.851562 C 47.265625 12 44.273438 12.300781 41.28125 12.449219 C 41.28125 12.148438 41.28125 11.851562 41.132812 11.550781 C 40.535156 11.398438 39.9375 11.398438 39.335938 11.398438 "/>
</clipPath>
<linearGradient id="linear0" gradientUnits="userSpaceOnUse" x1="-7983.0537" y1="1074.0323" x2="-7982.6216" y2="1074.0323" gradientTransform="matrix(91.941709,0,0,-92.2044,733987.299679,99062.19135)">
<stop offset="0" style="stop-color:rgb(11.764706%,70.588235%,45.098039%);stop-opacity:1;"/>
<stop offset="1" style="stop-color:rgb(15.294118%,34.509804%,65.490196%);stop-opacity:1;"/>
</linearGradient>
<clipPath id="clip3">
  <path d="M 1 3 L 61 3 L 61 63 L 1 63 Z M 1 3 "/>
</clipPath>
<clipPath id="clip4">
  <path d="M 43.972656 44.851562 C 45.621094 43.199219 47.265625 41.550781 48.761719 39.898438 L 48.910156 42 C 49.210938 45.148438 49.507812 48.300781 49.957031 51.449219 C 47.714844 51.898438 45.46875 52.351562 43.078125 52.800781 C 40.832031 53.25 38.441406 53.699219 36.046875 54.148438 C 33.652344 54.601562 31.109375 55.050781 28.570312 55.648438 L 28.417969 55.648438 C 33.652344 53.25 39.039062 49.5 43.972656 44.851562 M 30.0625 8.851562 C 39.039062 4.199219 47.714844 3.449219 51.902344 7.949219 C 55.640625 11.851562 55.191406 18.898438 51.453125 26.550781 C 51.304688 26.699219 51.304688 26.851562 51.152344 27.148438 C 51.003906 27.300781 51.003906 27.449219 50.855469 27.75 C 50.707031 27.898438 50.707031 28.050781 50.554688 28.351562 C 50.40625 28.5 50.40625 28.648438 50.257812 28.949219 C 50.105469 29.101562 50.105469 29.25 49.957031 29.550781 C 49.808594 29.699219 49.808594 29.851562 49.65625 30.148438 L 49.359375 30.148438 L 49.058594 30.601562 L 49.058594 30.75 C 48.910156 30.898438 48.761719 31.050781 48.761719 31.199219 L 48.460938 31.648438 L 48.3125 31.800781 C 48.164062 31.949219 48.011719 32.101562 47.863281 32.398438 C 45.769531 35.398438 43.226562 38.25 40.234375 41.101562 C 33.804688 47.101562 26.472656 51.300781 20.191406 52.949219 C 20.042969 52.949219 19.894531 53.101562 19.742188 53.101562 C 19.59375 53.101562 19.445312 53.25 19.144531 53.25 C 18.996094 53.25 18.847656 53.25 18.695312 53.398438 C 18.546875 53.398438 18.398438 53.398438 18.097656 53.550781 C 13.164062 54.449219 8.972656 53.550781 6.28125 50.851562 C 1.945312 46.351562 3.140625 37.949219 8.375 29.25 C 1.195312 39.898438 -0.597656 50.699219 4.636719 56.101562 C 7.328125 58.800781 11.367188 60 16.152344 59.550781 L 16.453125 63 C 19.894531 62.25 23.332031 61.648438 26.625 60.898438 C 29.914062 60.148438 33.355469 59.550781 36.496094 58.800781 C 39.636719 58.199219 42.628906 57.449219 45.621094 56.851562 C 48.609375 56.25 51.601562 55.648438 54.445312 55.050781 C 53.996094 51.449219 53.695312 47.851562 53.246094 44.25 L 52.351562 35.550781 C 60.425781 24.300781 62.820312 12.75 57.285156 6.898438 C 55.042969 4.5 51.753906 3.449219 47.714844 3.449219 C 42.777344 3.148438 36.496094 5.101562 30.0625 8.851562 "/>
</clipPath>
<linearGradient id="linear1" gradientUnits="userSpaceOnUse" x1="-8025.1567" y1="1070.427" x2="-8024.7246" y2="1070.427" gradientTransform="matrix(136.156731,0,0,-136.54575,1092680.649038,146195.2617)">
<stop offset="0" style="stop-color:rgb(11.764706%,70.588235%,45.098039%);stop-opacity:1;"/>
<stop offset="1" style="stop-color:rgb(15.294118%,34.509804%,65.490196%);stop-opacity:1;"/>
</linearGradient>
<clipPath id="clip5">
  <path d="M 25 18 L 43 18 L 43 40 L 25 40 Z M 25 18 "/>
</clipPath>
<clipPath id="clip6">
  <path d="M 32.757812 34.199219 L 32.605469 35.398438 C 32.308594 35.398438 32.15625 35.699219 32.15625 36 C 32.15625 36.300781 32.308594 36.449219 32.457031 36.601562 L 32.308594 37.5 C 32.15625 37.5 32.007812 37.5 31.859375 37.5 L 31.410156 36.449219 C 31.410156 36.300781 31.261719 36.300781 31.109375 36.300781 C 30.960938 36.300781 30.960938 36.449219 30.960938 36.601562 L 31.410156 37.648438 C 31.109375 37.800781 30.960938 38.101562 30.960938 38.398438 L 29.015625 38.699219 C 28.867188 38.699219 28.867188 38.851562 28.867188 38.851562 C 28.867188 39 29.015625 39 29.015625 39 L 30.960938 38.699219 C 31.109375 39.148438 31.558594 39.449219 32.15625 39.449219 C 32.605469 39.449219 33.054688 39 33.054688 38.398438 L 37.242188 37.800781 C 37.394531 37.800781 37.394531 37.648438 37.394531 37.648438 C 37.394531 37.5 37.242188 37.5 37.242188 37.5 L 33.054688 38.101562 C 32.90625 37.800781 32.757812 37.648438 32.605469 37.5 L 32.90625 36.601562 C 32.90625 36.601562 33.054688 36.601562 33.054688 36.601562 C 33.207031 36.75 33.503906 36.75 33.652344 36.75 L 35 36.601562 C 35.148438 36.601562 35.148438 36.449219 35.148438 36.449219 C 35.148438 36.300781 35 36.300781 35 36.300781 L 33.652344 36.449219 C 33.652344 36.449219 33.503906 36.449219 33.503906 36.449219 C 33.652344 36.300781 33.652344 36.148438 33.652344 36 C 33.652344 35.699219 33.503906 35.550781 33.207031 35.550781 L 33.355469 34.351562 C 33.355469 34.199219 33.355469 34.199219 33.207031 34.199219 C 32.90625 34.050781 32.90625 34.050781 32.757812 34.199219 M 30.511719 31.800781 L 29.617188 32.699219 C 29.316406 32.398438 28.71875 32.550781 28.570312 32.851562 C 28.417969 33.148438 28.417969 33.449219 28.570312 33.75 L 28.121094 34.199219 C 27.96875 34.199219 27.96875 34.351562 28.121094 34.5 C 28.121094 34.648438 28.269531 34.648438 28.417969 34.5 L 28.867188 34.050781 C 29.015625 34.199219 29.316406 34.199219 29.617188 34.050781 L 30.214844 34.949219 C 30.0625 35.101562 30.0625 35.101562 30.0625 35.25 C 30.0625 35.398438 30.0625 35.550781 30.214844 35.550781 L 28.121094 37.800781 C 27.96875 37.648438 27.671875 37.648438 27.519531 37.800781 C 27.371094 37.648438 27.371094 37.5 27.371094 37.199219 C 27.371094 37.050781 27.222656 37.050781 27.222656 37.050781 C 27.074219 37.050781 27.074219 37.199219 27.074219 37.199219 C 27.074219 37.5 27.074219 37.648438 27.222656 37.949219 C 27.074219 38.25 27.074219 38.550781 27.222656 38.851562 C 27.519531 39.300781 28.269531 39.148438 28.417969 38.699219 C 28.570312 38.398438 28.570312 38.101562 28.417969 37.949219 L 30.511719 35.699219 C 30.664062 35.851562 30.960938 35.699219 31.109375 35.550781 C 31.410156 35.25 31.410156 34.949219 31.109375 34.648438 C 30.960938 34.5 30.664062 34.5 30.511719 34.5 L 29.914062 33.601562 C 30.214844 33.300781 30.214844 33 30.0625 32.699219 L 30.960938 31.800781 C 31.109375 31.800781 31.109375 31.648438 30.960938 31.5 C 30.8125 31.800781 30.664062 31.800781 30.511719 31.800781 C 30.664062 31.800781 30.511719 31.800781 30.511719 31.800781 M 26.027344 30.449219 C 25.875 30.449219 25.875 30.601562 25.875 30.601562 L 26.472656 34.5 C 26.027344 34.648438 25.578125 35.25 25.726562 35.699219 C 25.875 36.300781 26.324219 36.75 27.074219 36.601562 C 27.671875 36.601562 27.96875 36.148438 27.96875 35.550781 L 29.316406 35.398438 C 29.464844 35.398438 29.464844 35.25 29.464844 35.25 C 29.464844 35.101562 29.316406 35.101562 29.316406 35.101562 L 27.96875 35.25 C 27.820312 34.800781 27.371094 34.351562 26.921875 34.351562 L 26.324219 30.449219 C 26.175781 30.601562 26.175781 30.449219 26.027344 30.449219 M 40.984375 28.648438 C 40.832031 28.648438 40.832031 28.800781 40.832031 28.800781 L 41.132812 31.050781 C 40.832031 31.199219 40.683594 31.5 40.683594 31.800781 C 40.683594 32.101562 40.984375 32.398438 41.429688 32.398438 L 41.878906 35.398438 C 41.878906 35.550781 42.03125 35.550781 42.03125 35.550781 C 42.179688 35.550781 42.179688 35.398438 42.179688 35.398438 L 41.730469 32.398438 C 42.03125 32.25 42.179688 31.949219 42.179688 31.648438 C 42.179688 31.351562 41.878906 31.050781 41.429688 31.050781 L 41.132812 28.800781 C 41.28125 28.648438 41.132812 28.648438 40.984375 28.648438 C 41.132812 28.648438 40.984375 28.648438 40.984375 28.648438 M 36.046875 25.949219 C 35.449219 26.101562 35.148438 26.550781 35.148438 27 L 31.410156 27.449219 C 31.261719 27.148438 30.960938 27 30.664062 27 C 30.363281 27 30.0625 27.300781 30.0625 27.601562 L 27.222656 28.050781 C 27.222656 28.050781 27.074219 28.050781 27.074219 28.050781 C 26.773438 27.75 26.472656 27.601562 26.175781 27.75 C 25.578125 27.898438 25.128906 28.351562 25.277344 28.949219 C 25.425781 29.699219 26.175781 30.148438 26.773438 29.851562 L 28.269531 32.25 C 28.269531 32.398438 28.417969 32.398438 28.570312 32.25 C 28.71875 32.25 28.71875 32.101562 28.570312 31.949219 L 27.074219 29.550781 C 27.371094 29.25 27.519531 28.800781 27.371094 28.351562 L 30.214844 27.898438 C 30.363281 28.199219 30.664062 28.351562 30.8125 28.351562 L 31.109375 29.25 C 31.109375 29.398438 31.261719 29.398438 31.410156 29.398438 C 31.558594 29.398438 31.558594 29.25 31.558594 29.101562 L 31.261719 28.199219 C 31.410156 28.050781 31.558594 27.898438 31.558594 27.75 L 35.300781 27.148438 C 35.449219 27.449219 35.746094 27.75 36.046875 27.898438 L 35.898438 29.101562 C 35.898438 29.25 35.898438 29.25 36.046875 29.25 C 36.195312 29.25 36.195312 29.25 36.195312 29.101562 L 36.347656 28.199219 C 36.945312 28.199219 37.542969 27.601562 37.394531 27 C 37.242188 26.398438 36.792969 26.101562 36.347656 26.101562 C 36.195312 25.949219 36.195312 25.949219 36.046875 25.949219 M 40.234375 25.648438 C 39.785156 25.648438 39.488281 25.949219 39.1875 26.398438 L 37.84375 26.550781 C 37.691406 26.550781 37.691406 26.699219 37.691406 26.699219 C 37.691406 26.851562 37.84375 26.851562 37.84375 26.851562 L 38.890625 26.699219 C 38.890625 27.300781 39.1875 27.75 39.636719 28.050781 L 38.441406 32.699219 C 37.992188 32.699219 37.691406 32.851562 37.542969 33.300781 L 35.300781 32.699219 C 35.300781 32.550781 35.300781 32.398438 35.148438 32.398438 C 35.300781 32.25 35.449219 31.949219 35.449219 31.648438 C 35.746094 31.648438 36.046875 31.5 36.195312 31.199219 C 36.347656 30.898438 36.347656 30.601562 36.195312 30.300781 L 38.589844 28.351562 C 38.738281 28.351562 38.738281 28.199219 38.589844 28.050781 C 38.441406 27.898438 38.441406 27.898438 38.289062 28.050781 L 36.496094 30 C 36.347656 29.851562 36.195312 29.851562 36.046875 29.851562 C 35.898438 29.851562 35.746094 29.851562 35.597656 29.851562 C 35.449219 29.699219 35.300781 29.550781 35.148438 29.398438 C 34.851562 29.25 34.550781 29.101562 34.253906 28.949219 C 34.253906 28.949219 34.253906 28.949219 34.253906 28.800781 L 35 28.199219 C 35.148438 28.199219 35.148438 28.050781 35 27.898438 C 35 27.75 34.851562 27.75 34.699219 27.898438 L 33.953125 28.5 C 33.804688 28.351562 33.355469 28.351562 33.207031 28.5 C 32.90625 28.648438 32.757812 28.949219 32.757812 29.101562 C 32.605469 29.25 32.457031 29.25 32.308594 29.398438 C 32.15625 29.550781 32.007812 29.699219 31.859375 29.851562 C 31.710938 29.851562 31.558594 29.851562 31.410156 29.851562 C 31.261719 29.851562 31.109375 30 30.960938 30.148438 L 27.96875 29.101562 C 27.820312 29.101562 27.820312 29.101562 27.671875 29.25 C 27.671875 29.398438 27.671875 29.398438 27.820312 29.550781 L 30.8125 30.601562 C 30.8125 30.898438 30.8125 31.050781 30.960938 31.199219 C 31.109375 31.351562 31.261719 31.5 31.558594 31.5 C 31.710938 31.800781 31.710938 31.949219 32.007812 32.25 C 32.15625 32.398438 32.308594 32.550781 32.457031 32.699219 C 32.457031 32.851562 32.457031 33 32.457031 33 L 31.410156 34.351562 C 31.410156 34.351562 31.261719 34.5 31.410156 34.648438 C 31.410156 34.648438 31.558594 34.800781 31.710938 34.648438 L 32.90625 33.449219 C 33.054688 33.449219 33.054688 33.449219 33.207031 33.449219 C 33.503906 33.449219 33.804688 33.148438 33.652344 32.851562 C 33.652344 32.550781 33.355469 32.25 33.054688 32.398438 C 32.90625 32.398438 32.757812 32.398438 32.757812 32.550781 C 32.605469 32.398438 32.457031 32.398438 32.457031 32.25 C 32.308594 32.101562 32.308594 31.949219 32.15625 31.800781 C 32.605469 31.648438 32.757812 31.199219 32.757812 30.75 C 32.757812 30.449219 32.605469 30.300781 32.308594 30.148438 C 32.457031 30 32.457031 30 32.605469 29.851562 C 32.757812 29.699219 32.757812 29.699219 32.90625 29.550781 C 33.054688 29.699219 33.355469 29.851562 33.652344 29.851562 C 33.953125 29.851562 34.101562 29.550781 34.253906 29.398438 C 34.550781 29.398438 34.699219 29.550781 34.851562 29.699219 C 35 29.851562 35.148438 30 35.148438 30.148438 C 35 30.300781 34.851562 30.601562 34.851562 30.898438 C 34.851562 31.199219 35.148438 31.5 35.449219 31.648438 C 35.449219 31.800781 35.300781 31.949219 35.148438 32.101562 C 34.851562 31.949219 34.550781 31.949219 34.402344 32.101562 C 34.101562 32.398438 33.953125 32.851562 34.253906 33.148438 C 34.402344 33.300781 34.550781 33.449219 34.851562 33.449219 L 35.449219 35.25 C 35.300781 35.398438 35.148438 35.699219 35.449219 36 C 35.597656 36.148438 35.898438 36.300781 36.195312 36.148438 L 37.992188 37.5 C 37.84375 37.800781 37.992188 38.101562 38.140625 38.25 C 38.441406 38.550781 38.738281 38.550781 39.039062 38.398438 C 39.1875 38.25 39.335938 38.101562 39.335938 37.949219 L 40.683594 37.800781 C 40.984375 37.800781 41.132812 37.648438 41.429688 37.5 C 41.582031 37.648438 41.878906 37.5 42.03125 37.351562 C 42.328125 37.050781 42.328125 36.75 42.03125 36.449219 C 41.878906 36.300781 41.582031 36.300781 41.429688 36.300781 L 39.9375 34.800781 C 39.785156 34.800781 39.785156 34.800781 39.636719 34.800781 C 39.636719 34.949219 39.636719 34.949219 39.636719 35.101562 L 41.132812 36.449219 C 40.984375 36.601562 40.984375 36.75 41.132812 37.050781 C 40.984375 37.199219 40.832031 37.199219 40.535156 37.199219 L 39.1875 37.351562 C 39.039062 37.199219 38.890625 37.050781 38.738281 36.898438 C 38.441406 36.898438 38.289062 36.898438 38.140625 37.050781 L 36.347656 35.699219 C 36.347656 35.550781 36.347656 35.398438 36.195312 35.25 C 36.046875 35.101562 35.898438 35.101562 35.746094 35.101562 L 35.148438 33.300781 C 35.300781 33.300781 35.300781 33.148438 35.300781 33 L 37.542969 33.601562 C 37.542969 33.75 37.542969 33.898438 37.691406 34.050781 L 36.644531 34.800781 C 36.496094 34.800781 36.496094 34.949219 36.644531 35.101562 C 36.644531 35.25 36.792969 35.25 36.945312 35.101562 L 37.992188 34.351562 C 38.140625 34.5 38.289062 34.5 38.441406 34.648438 L 38.441406 36.148438 C 38.441406 36.300781 38.589844 36.300781 38.589844 36.300781 C 38.738281 36.300781 38.738281 36.148438 38.738281 36.148438 L 38.738281 34.648438 C 39.039062 34.648438 39.335938 34.351562 39.488281 34.050781 C 39.636719 33.75 39.636719 33.449219 39.488281 33.300781 L 40.234375 32.699219 C 40.382812 32.699219 40.382812 32.550781 40.234375 32.398438 C 40.234375 32.25 40.085938 32.25 39.9375 32.398438 L 39.335938 33 C 39.335938 33 39.1875 32.851562 39.039062 32.851562 L 40.234375 28.199219 C 40.984375 28.351562 41.730469 27.601562 41.582031 26.699219 C 41.429688 26.101562 40.984375 25.648438 40.382812 25.648438 C 40.382812 25.648438 40.382812 25.648438 40.234375 25.648438 M 32.007812 18.898438 C 29.167969 19.351562 26.921875 21.898438 27.222656 24.898438 L 27.371094 26.398438 C 27.371094 26.699219 27.671875 26.851562 27.96875 26.851562 C 28.269531 26.851562 28.417969 26.550781 28.417969 26.25 L 28.269531 24.75 C 27.96875 22.351562 29.765625 20.25 32.15625 19.949219 C 34.101562 19.648438 36.046875 20.550781 36.792969 22.351562 C 36.792969 22.5 37.09375 22.648438 37.242188 22.648438 C 37.394531 22.648438 37.691406 22.648438 37.691406 22.351562 C 37.84375 22.199219 37.84375 21.898438 37.691406 21.75 C 36.792969 19.800781 34.851562 18.601562 32.757812 18.601562 C 32.605469 18.898438 32.308594 18.898438 32.007812 18.898438 "/>
</clipPath>
<linearGradient id="linear2" gradientUnits="userSpaceOnUse" x1="-8098.7427" y1="1325.4601" x2="-8098.3105" y2="1325.4601" gradientTransform="matrix(6.285043,45.18825,45.059509,-6.303,-8791.645962,374341.80465)">
<stop offset="0" style="stop-color:rgb(11.764706%,70.588235%,45.098039%);stop-opacity:1;"/>
<stop offset="1" style="stop-color:rgb(15.294118%,34.509804%,65.490196%);stop-opacity:1;"/>
</linearGradient>
</defs>
<g id="surface1">
<path style=" stroke:none;fill-rule:nonzero;fill:rgb(11.764706%,70.588235%,45.098039%);fill-opacity:1;" d="M 68.355469 19.949219 C 71.496094 19.949219 73.140625 21.75 73.140625 24 C 73.140625 25.648438 72.242188 27.148438 70.300781 27.75 L 73.140625 32.699219 L 69.253906 32.699219 L 66.710938 28.050781 L 66.261719 28.050781 L 66.261719 32.699219 L 62.671875 32.699219 L 62.671875 19.949219 Z M 68.054688 22.800781 L 66.261719 22.800781 L 66.261719 25.5 L 68.054688 25.5 C 68.953125 25.5 69.550781 25.050781 69.550781 24.148438 C 69.402344 23.398438 68.953125 22.800781 68.054688 22.800781 "/>
<path style=" stroke:none;fill-rule:nonzero;fill:rgb(11.764706%,70.588235%,45.098039%);fill-opacity:1;" d="M 82.714844 22.800781 L 78.226562 22.800781 L 78.226562 24.75 L 82.265625 24.75 L 82.265625 27.449219 L 78.226562 27.449219 L 78.226562 29.851562 L 82.714844 29.851562 L 82.714844 32.699219 L 74.636719 32.699219 L 74.636719 19.949219 L 82.714844 19.949219 Z M 82.714844 22.800781 "/>
<path style=" stroke:none;fill-rule:nonzero;fill:rgb(11.764706%,70.588235%,45.098039%);fill-opacity:1;" d="M 88.097656 19.949219 L 88.097656 29.851562 L 91.988281 29.851562 L 91.988281 32.699219 L 84.507812 32.699219 L 84.507812 19.949219 Z M 88.097656 19.949219 "/>
<path style=" stroke:none;fill-rule:nonzero;fill:rgb(11.764706%,70.588235%,45.098039%);fill-opacity:1;" d="M 93.332031 19.949219 L 96.921875 19.949219 L 96.921875 32.699219 L 93.332031 32.699219 Z M 93.332031 19.949219 "/>
<path style=" stroke:none;fill-rule:nonzero;fill:rgb(11.764706%,70.588235%,45.098039%);fill-opacity:1;" d="M 107.09375 22.800781 L 102.457031 22.800781 L 102.457031 24.75 L 106.496094 24.75 L 106.496094 27.449219 L 102.457031 27.449219 L 102.457031 29.851562 L 107.09375 29.851562 L 107.09375 32.699219 L 98.867188 32.699219 L 98.867188 19.949219 L 107.09375 19.949219 Z M 107.09375 22.800781 "/>
<path style=" stroke:none;fill-rule:nonzero;fill:rgb(11.764706%,70.588235%,45.098039%);fill-opacity:1;" d="M 108.738281 19.949219 L 117.414062 19.949219 L 117.414062 22.648438 L 112.328125 22.648438 L 112.328125 24.898438 L 116.070312 24.898438 L 116.070312 27.601562 L 112.328125 27.601562 L 112.328125 32.699219 L 108.738281 32.699219 Z M 108.738281 19.949219 "/>
<path style=" stroke:none;fill-rule:nonzero;fill:rgb(15.294118%,34.509804%,65.490196%);fill-opacity:1;" d="M 71.347656 36.300781 L 75.085938 36.300781 L 70.746094 49.050781 L 66.261719 49.050781 L 61.773438 36.300781 L 65.511719 36.300781 L 68.503906 45.449219 Z M 71.347656 36.300781 "/>
<path style=" stroke:none;fill-rule:nonzero;fill:rgb(15.294118%,34.509804%,65.490196%);fill-opacity:1;" d="M 84.210938 46.949219 L 79.722656 46.949219 L 78.972656 49.050781 L 75.234375 49.050781 L 79.871094 36.300781 L 83.910156 36.300781 L 88.546875 49.050781 L 84.808594 49.050781 Z M 81.964844 40.050781 L 80.621094 44.101562 L 83.3125 44.101562 Z M 81.964844 40.050781 "/>
<path style=" stroke:none;fill-rule:nonzero;fill:rgb(15.294118%,34.509804%,65.490196%);fill-opacity:1;" d="M 93.332031 36.300781 L 93.332031 46.351562 L 97.222656 46.351562 L 97.222656 49.050781 L 89.742188 49.050781 L 89.742188 36.300781 Z M 93.332031 36.300781 "/>
<path style=" stroke:none;fill-rule:nonzero;fill:rgb(15.294118%,34.509804%,65.490196%);fill-opacity:1;" d="M 98.71875 36.300781 L 102.308594 36.300781 L 102.308594 49.050781 L 98.71875 49.050781 Z M 98.71875 36.300781 "/>
<path style=" stroke:none;fill-rule:nonzero;fill:rgb(15.294118%,34.509804%,65.490196%);fill-opacity:1;" d="M 115.917969 42.601562 C 115.917969 46.351562 113.375 49.050781 109.335938 49.050781 L 104.253906 49.050781 L 104.253906 36.300781 L 109.1875 36.300781 C 113.226562 36.300781 115.917969 38.851562 115.917969 42.601562 M 108.890625 45.898438 C 110.984375 45.898438 112.179688 44.699219 112.179688 42.601562 C 112.179688 40.5 110.832031 39.300781 108.890625 39.300781 L 107.691406 39.300781 L 107.691406 45.898438 Z M 108.890625 45.898438 "/>
<path style=" stroke:none;fill-rule:nonzero;fill:rgb(15.294118%,34.509804%,65.490196%);fill-opacity:1;" d="M 125.492188 46.949219 L 121.003906 46.949219 L 120.257812 49.050781 L 116.515625 49.050781 L 121.152344 36.300781 L 125.191406 36.300781 L 129.828125 49.050781 L 126.089844 49.050781 Z M 123.246094 40.050781 L 121.902344 44.101562 L 124.59375 44.101562 Z M 123.246094 40.050781 "/>
<path style=" stroke:none;fill-rule:nonzero;fill:rgb(15.294118%,34.509804%,65.490196%);fill-opacity:1;" d="M 130.277344 36.300781 L 140.597656 36.300781 L 140.597656 39.148438 L 137.15625 39.148438 L 137.15625 49.050781 L 133.71875 49.050781 L 133.71875 39.148438 L 130.277344 39.148438 Z M 130.277344 36.300781 "/>
<path style=" stroke:none;fill-rule:nonzero;fill:rgb(15.294118%,34.509804%,65.490196%);fill-opacity:1;" d="M 141.945312 36.300781 L 145.535156 36.300781 L 145.535156 49.050781 L 141.945312 49.050781 Z M 141.945312 36.300781 "/>
<path style=" stroke:none;fill-rule:nonzero;fill:rgb(15.294118%,34.509804%,65.490196%);fill-opacity:1;" d="M 153.609375 49.199219 C 150.019531 49.199219 147.03125 46.5 147.03125 42.601562 C 147.03125 38.699219 150.019531 36.148438 153.609375 36.148438 C 157.199219 36.148438 160.042969 38.851562 160.042969 42.601562 C 160.042969 46.351562 157.199219 49.199219 153.609375 49.199219 M 153.609375 45.898438 C 155.40625 45.898438 156.601562 44.550781 156.601562 42.601562 C 156.601562 40.648438 155.554688 39.300781 153.609375 39.300781 C 151.816406 39.300781 150.621094 40.5 150.621094 42.601562 C 150.621094 44.550781 151.667969 45.898438 153.609375 45.898438 "/>
<path style=" stroke:none;fill-rule:nonzero;fill:rgb(15.294118%,34.509804%,65.490196%);fill-opacity:1;" d="M 173.355469 36.300781 L 173.355469 49.050781 L 169.914062 49.050781 L 165.128906 41.851562 L 165.128906 49.050781 L 161.6875 49.050781 L 161.6875 36.300781 L 165.128906 36.300781 L 169.914062 43.5 L 169.914062 36.300781 Z M 173.355469 36.300781 "/>
<g clip-path="url(#clip1)" clip-rule="nonzero">
<g clip-path="url(#clip2)" clip-rule="nonzero">
<path style=" stroke:none;fill-rule:nonzero;fill:url(#linear0);" d="M 11.367188 11.25 L 51.152344 11.25 L 51.152344 51.898438 L 11.367188 51.898438 Z M 11.367188 11.25 "/>
</g>
</g>
<g clip-path="url(#clip3)" clip-rule="nonzero">
<g clip-path="url(#clip4)" clip-rule="nonzero">
<path style=" stroke:none;fill-rule:nonzero;fill:url(#linear1);" d="M -0.597656 3.148438 L 62.96875 3.148438 L 62.96875 62.851562 L -0.597656 62.851562 Z M -0.597656 3.148438 "/>
</g>
</g>
<g clip-path="url(#clip5)" clip-rule="nonzero">
<g clip-path="url(#clip6)" clip-rule="nonzero">
<path style=" stroke:none;fill-rule:nonzero;fill:url(#linear2);" d="M 42.03125 16.5 L 45.320312 39.300781 L 25.425781 42 L 22.285156 19.199219 Z M 42.03125 16.5 "/>
</g>
</g>
</g>
</svg>
