
<svg version="1.2" baseProfile="tiny-ps" xmlns="http://www.w3.org/2000/svg" viewBox="0 0 2541 656">
	<title>Sixscape</title>
	<defs>
		<radialGradient id="grd1" gradientUnits="userSpaceOnUse"  cx="329.558" cy="327.718" r="311.079">
			<stop offset="0" stop-color="#f9b317"  />
			<stop offset="0.644" stop-color="#f9b317"  />
			<stop offset="0.791" stop-color="#f9b317"  />
			<stop offset="0.958" stop-color="#f9b317"  />
			<stop offset="1" stop-color="#6a4c00"  />
		</radialGradient>
		<linearGradient id="grd2" gradientUnits="userSpaceOnUse"  x1="18.487" y1="237.028" x2="640.629" y2="237.028">
			<stop offset="0" stop-color="#ffde17"  />
			<stop offset="1" stop-color="#f1f1f2"  />
		</linearGradient>
		<linearGradient id="grd3" gradientUnits="userSpaceOnUse"  x1="467.388" y1="252.525" x2="467.388" y2="32.044">
			<stop offset="0" stop-color="#ffffff"  />
			<stop offset="1" stop-color="#f1f1f2"  />
		</linearGradient>
	</defs>
	<style>
		tspan { white-space:pre }
		.shp0 { fill: #252626 } 
		.shp1 { fill: url(#grd1) } 
		.shp2 { fill-opacity: 0.6;fill: #f9b815 } 
		.shp3 { fill-opacity: 0.149;fill: url(#grd2) } 
		.shp4 { fill-opacity: 0.129;fill: url(#grd3) } 
		.shp5 { fill: #000000 } 
		.shp6 { fill: #f8f9fa } 
		.shp7 { fill: #ffffff } 
		.shp8 { fill: #f9b815 } 
	</style>
	<path id="Sixscape" fill-rule="evenodd" class="shp0" d="M908.25 223.47C892.47 215.96 877.57 210.36 863.57 206.67C849.57 202.98 836.05 201.14 823.01 201.14C800.37 201.14 782.87 205.51 770.51 214.25C758.3 222.99 752.19 235.43 752.19 251.55C752.19 265.07 756.24 275.32 764.34 282.28C772.57 289.11 788.08 294.65 810.87 298.88L835.98 304C867.01 309.88 889.86 320.26 904.55 335.15C919.37 349.9 926.78 369.71 926.78 394.58C926.78 424.22 916.76 446.69 896.72 461.99C876.82 477.29 847.58 484.94 809.01 484.94C794.46 484.94 778.95 483.3 762.48 480.02C746.15 476.75 729.2 471.9 711.63 465.48L711.63 422.85C728.51 432.28 745.05 439.38 761.25 444.16C777.44 448.95 793.37 451.34 809.01 451.34C832.76 451.34 851.08 446.69 863.99 437.4C876.89 428.11 883.34 414.86 883.34 397.65C883.34 382.62 878.67 370.87 869.34 362.4C860.14 353.93 844.98 347.58 823.84 343.35L798.51 338.43C767.49 332.28 745.05 322.65 731.19 309.54C717.32 296.42 710.39 278.18 710.39 254.82C710.39 227.78 719.93 206.46 739.01 190.89C758.23 175.32 784.65 167.53 818.28 167.53C832.69 167.53 847.38 168.83 862.34 171.42C877.3 174.02 892.6 177.91 908.25 183.1L908.25 223.47ZM989.99 249.5L1027.87 249.5L1027.87 479L989.99 479L989.99 249.5ZM989.99 160.15L1027.87 160.15L1027.87 207.9L989.99 207.9L989.99 160.15ZM1298.82 249.5L1215.44 361.17L1303.15 479L1258.47 479L1191.35 388.84L1124.23 479L1079.55 479L1169.11 358.92L1087.17 249.5L1131.85 249.5L1193 331.26L1254.15 249.5L1298.82 249.5ZM1503.68 291.91C1492.98 286.45 1481.86 282.35 1470.33 279.62C1458.8 276.89 1446.86 275.52 1434.5 275.52C1415.7 275.52 1401.56 278.39 1392.09 284.13C1382.76 289.86 1378.09 298.47 1378.09 309.95C1378.09 318.69 1381.45 325.59 1388.18 330.64C1394.91 335.56 1408.43 340.27 1428.74 344.78L1441.71 347.65C1468.61 353.39 1487.69 361.52 1498.95 372.04C1510.34 382.42 1516.04 396.97 1516.04 415.68C1516.04 436.99 1507.53 453.86 1490.51 466.3C1473.62 478.73 1450.36 484.94 1420.71 484.94C1408.36 484.94 1395.45 483.78 1382 481.46C1368.69 479 1354.62 475.38 1339.8 470.6L1339.8 431.66C1353.8 438.91 1367.59 444.37 1381.18 448.06C1394.77 451.61 1408.22 453.39 1421.53 453.39C1439.38 453.39 1453.1 450.38 1462.71 444.37C1472.32 438.22 1477.12 429.62 1477.12 418.55C1477.12 408.3 1473.62 400.45 1466.62 394.99C1459.76 389.52 1444.59 384.26 1421.12 379.21L1407.94 376.13C1384.47 371.22 1367.52 363.7 1357.09 353.59C1346.66 343.35 1341.44 329.34 1341.44 311.59C1341.44 290 1349.13 273.33 1364.5 261.59C1379.88 249.84 1401.7 243.96 1429.97 243.96C1443.98 243.96 1457.15 244.99 1469.51 247.04C1481.86 249.09 1493.25 252.16 1503.68 256.26L1503.68 291.91ZM1742.31 293.55C1731.6 287.68 1720.83 283.31 1709.98 280.44C1699.28 277.43 1688.43 275.93 1677.45 275.93C1652.88 275.93 1633.81 283.72 1620.22 299.29C1606.63 314.73 1599.83 336.45 1599.83 364.45C1599.83 392.46 1606.63 414.25 1620.22 429.82C1633.81 445.26 1652.88 452.98 1677.45 452.98C1688.43 452.98 1699.28 451.54 1709.98 448.67C1720.83 445.67 1731.6 441.23 1742.31 435.35L1742.31 470.19C1739.68 471.42 1737.02 472.57 1734.32 473.64C1731.63 474.72 1728.9 475.72 1726.15 476.65C1723.4 477.57 1720.62 478.42 1717.82 479.18C1715.03 479.95 1712.21 480.64 1709.37 481.25C1698.11 483.71 1686.1 484.94 1673.34 484.94C1638.61 484.94 1611.02 474.08 1590.57 452.36C1570.12 430.64 1559.89 401.34 1559.89 364.45C1559.89 327.02 1570.19 297.58 1590.77 276.14C1611.5 254.69 1639.84 243.96 1675.81 243.96C1687.47 243.96 1698.87 245.19 1709.98 247.65C1721.1 249.97 1731.88 253.53 1742.31 258.31L1742.31 293.55ZM1988.55 479L1950.67 479L1950.67 444.16C1942.02 458.1 1931.25 468.41 1918.34 475.11C1905.44 481.66 1889.66 484.94 1870.99 484.94C1847.38 484.94 1828.58 478.39 1814.58 465.27C1800.71 452.02 1793.78 434.33 1793.78 412.2C1793.78 386.38 1802.43 366.91 1819.72 353.8C1837.15 340.68 1863.1 334.13 1897.55 334.13L1950.67 334.13L1950.67 330.44C1950.67 313.09 1944.9 299.7 1933.37 290.27C1921.98 280.71 1905.92 275.93 1885.2 275.93C1872.02 275.93 1859.19 277.5 1846.69 280.64C1834.2 283.79 1822.19 288.5 1810.66 294.78L1810.66 259.95C1824.53 254.62 1837.98 250.66 1851.02 248.06C1864.06 245.33 1876.75 243.96 1889.11 243.96C1922.46 243.96 1947.37 252.57 1963.85 269.78C1980.32 287 1988.55 313.09 1988.55 348.06L1988.55 479ZM1912.99 363.63C1882.38 363.63 1861.18 367.12 1849.37 374.08C1837.57 381.05 1831.66 392.94 1831.66 409.74C1831.66 423.13 1836.06 433.78 1844.84 441.71C1853.76 449.49 1865.84 453.39 1881.08 453.39C1902.08 453.39 1918.89 446.01 1931.52 431.26C1944.29 416.36 1950.67 396.62 1950.67 372.04L1950.67 363.63L1912.99 363.63ZM2103.23 566.29L2065.14 566.29L2065.14 249.5L2103.23 249.5L2103.23 284.33C2111.19 270.67 2121.21 260.56 2133.29 254C2145.51 247.31 2160.06 243.96 2176.94 243.96C2204.94 243.96 2227.66 255.03 2245.09 277.16C2262.66 299.29 2271.44 328.39 2271.44 364.45C2271.44 400.52 2262.66 429.62 2245.09 451.75C2227.66 473.88 2204.94 484.94 2176.94 484.94C2160.06 484.94 2145.51 481.66 2133.29 475.11C2121.21 468.41 2111.19 458.24 2103.23 444.57L2103.23 566.29ZM2214.82 299.29C2203.43 283.44 2187.72 275.52 2167.68 275.52C2147.64 275.52 2131.85 283.44 2120.32 299.29C2108.93 315 2103.23 336.72 2103.23 364.45C2103.23 392.18 2108.93 413.97 2120.32 429.82C2131.85 445.53 2147.64 453.39 2167.68 453.39C2187.72 453.39 2203.43 445.53 2214.82 429.82C2226.35 413.97 2232.12 392.18 2232.12 364.45C2232.12 336.72 2226.35 315 2214.82 299.29ZM2531.48 373.26L2357.3 373.26C2358.95 399.22 2366.77 419.03 2380.77 432.69C2394.91 446.21 2414.54 452.98 2439.66 452.98C2454.2 452.98 2468.27 451.2 2481.86 447.65C2495.59 444.1 2509.18 438.77 2522.63 431.66L2522.63 467.32C2509.04 473.06 2495.11 477.43 2480.83 480.43C2466.56 483.44 2452.08 484.94 2437.39 484.94C2400.6 484.94 2371.44 474.29 2349.89 452.98C2328.47 431.66 2317.77 402.84 2317.77 366.5C2317.77 328.93 2327.93 299.15 2348.24 277.16C2368.69 255.03 2396.21 243.96 2430.8 243.96C2461.82 243.96 2486.32 253.94 2504.3 273.88C2522.42 293.69 2531.48 320.67 2531.48 354.82L2531.48 373.26ZM2493.6 343.76C2493.32 323.13 2487.49 306.67 2476.1 294.37C2464.84 282.08 2449.88 275.93 2431.21 275.93C2410.08 275.93 2393.12 281.87 2380.36 293.76C2367.73 305.64 2360.46 322.38 2358.53 343.96L2493.6 343.76Z" />
	<path id="path176" class="shp1" d="M204.92 42.55C48.07 111.11 -24.16 295.54 44.41 452.38C45.15 454.09 45.99 455.73 46.76 457.42C54.54 474.39 63.65 490.36 73.98 505.21C157 624.54 316.27 673.2 454.24 612.89C535.17 577.51 593.49 511.25 621.65 433.88C622.92 430.37 624.16 426.85 625.31 423.3C647.97 353.37 646.33 275.3 614.75 203.06C563.78 86.47 448.78 16.64 328.69 16.63C287.23 16.63 245.17 24.95 204.92 42.55" />
	<path id="path72" class="shp2" d="M614.75 203.06C546.18 46.22 361.76 -26.01 204.92 42.55C48.07 111.11 -24.16 295.54 44.4 452.38L44.41 452.38C45.15 454.09 45.99 455.73 46.76 457.42C46.76 457.42 156.03 408.92 304.04 398.99C475.36 389.55 625.31 423.3 625.31 423.3C647.97 353.37 646.33 275.3 614.75 203.06Z" />
	<path id="path56" class="shp3" d="M204.92 42.55C48.07 111.11 -24.16 295.54 44.41 452.38C45.15 454.09 45.99 455.73 46.76 457.42C46.76 457.42 156.03 408.92 304.04 398.98C475.36 389.55 625.31 423.3 625.31 423.3C647.97 353.37 646.33 275.3 614.75 203.06C563.78 86.47 448.78 16.64 328.69 16.63C287.23 16.63 245.17 24.95 204.92 42.55" />
	<path id="path118" class="shp4" d="M611.65 251.52C607.75 236.08 604.65 209.34 598.35 194.94C551.99 88.9 444.79 32.04 328.4 32.04C288.35 32.04 485.63 269.81 611.65 251.52L611.65 251.52Z" />
	<path id="path188" class="shp5" d="M454.24 612.89C535.17 577.51 593.49 511.25 621.65 433.88C620.92 433.95 421.85 405.47 279.11 429.57C151.09 451.19 73.98 505.21 73.98 505.21C157 624.54 316.27 673.2 454.24 612.89Z" />
	<path id="path192" class="shp6" d="M304.04 398.98C156.03 408.92 46.76 457.42 46.76 457.42C54.54 474.39 63.65 490.36 73.98 505.21C73.98 505.21 151.09 451.19 279.11 429.57C421.85 405.47 620.92 433.95 621.65 433.88C622.92 430.37 624.15 426.85 625.31 423.3C625.31 423.3 475.36 389.55 304.04 398.98" />
	<path id="Six" fill-rule="evenodd" class="shp7" d="M283.91 81.75L392.08 81.75L303.84 242.49C325.35 240.87 351.21 238.96 370.45 241.15C449.62 250.13 512.03 307.39 512.03 403.3C512.03 512.33 432.93 588.92 329.19 588.92C229.45 588.92 144.05 517.84 144.05 390.88C144.05 323.26 168.13 266.67 199.08 217L283.91 81.75ZM327.71 494.98C368.28 494.98 399.06 457.92 399.06 409.07C399.06 361.9 368.28 324.86 327.71 324.86C288.53 324.86 257.75 361.9 257.75 409.07C257.75 457.92 288.53 494.98 327.71 494.98Z" />
	<path id="Ring" fill-rule="evenodd" class="shp8" d="M623.68 199.16C654.98 270.76 658.85 351.43 634.58 426.31C633.5 429.65 632.26 433.22 630.81 437.21C616.07 477.73 593.89 514.24 564.91 545.74C534.85 578.4 498.93 604 458.14 621.83C417.57 639.56 374.63 648.55 330.5 648.55C279.22 648.55 227.9 636.04 182.07 612.37C135.69 588.41 95.55 553.27 65.98 510.77C55.31 495.44 45.87 478.86 37.9 461.49C37.61 460.84 37.3 460.21 37 459.57C36.5 458.53 35.98 457.45 35.47 456.29C18.19 416.75 9.2 374.91 8.76 331.92C8.32 290.44 15.83 249.69 31.05 210.81C46.28 171.92 68.45 136.92 96.94 106.76C126.46 75.51 161.48 50.9 201.01 33.62C241.59 15.88 284.54 6.88 328.69 6.88L328.71 6.88C390.43 6.88 450.66 24.53 502.9 57.91C556.49 92.16 598.26 141 623.68 199.16ZM44.4 452.38C45.15 454.09 45.99 455.73 46.76 457.42C54.54 474.39 63.65 490.36 73.98 505.21C132.79 589.74 229.84 638.8 330.5 638.8C371.94 638.8 414 630.48 454.24 612.89C535.17 577.51 593.49 511.25 621.65 433.88C622.92 430.37 624.16 426.85 625.31 423.3C647.97 353.37 646.33 275.3 614.75 203.06C563.78 86.46 448.79 16.62 328.69 16.63C287.24 16.63 245.16 24.96 204.92 42.55C48.07 111.11 -24.16 295.54 44.4 452.38Z" />
</svg>