<svg xmlns="http://www.w3.org/2000/svg" fill="none" viewBox="0 0 2502 520"><g filter="url(#a)"><path fill="#697176" d="M699.049 199.684v-1.327a22.91 22.91 0 0 0-22.927-22.773H575.145a22.79 22.79 0 0 0-21.086 14.048 22.8 22.8 0 0 0-1.744 8.725v1.327a22.77 22.77 0 0 0 22.83 22.85h89.456a78.13 78.13 0 0 1 58.105 25.734 21.3 21.3 0 0 1 2.962 3.405 78.6 78.6 0 0 1 17.167 40.289 78.6 78.6 0 0 1-7.055 43.223 78.6 78.6 0 0 1-29.087 32.74 78.6 78.6 0 0 1-42.092 12.095h-77.935A78.649 78.649 0 0 1 508 301.353h44.315a34.31 34.31 0 0 0 34.293 34.294h77.936a34.3 34.3 0 0 0 24.786-9.755 34.312 34.312 0 0 0-24.786-58.852h-89.399a65.97 65.97 0 0 1-46.43-18.772 58.8 58.8 0 0 1-8.732-10.347 66.4 66.4 0 0 1-11.906-38.237v-1.327a67.21 67.21 0 0 1 41.419-62.175 67.2 67.2 0 0 1 25.726-5.143h100.977a67.315 67.315 0 0 1 67.318 67.318v1.327zM779.062 380.02V131.135h44.449V380.02zM1107.96 131.231l-96.42 124.788 95.98 124.231h-56.05l-67.877-87.975-67.76 87.975h-56.144l95.823-124.212-96.419-125.019h56.047l68.453 88.725 68.477-88.725h55.89zM859.093 380.25h.596l-.596.75zm248.867.596-.44-.596h.44zM1334.71 199.684v-1.328a22.92 22.92 0 0 0-6.77-16.117 22.9 22.9 0 0 0-16.16-6.655H1210.8a22.8 22.8 0 0 0-16.1 6.675 22.76 22.76 0 0 0-6.67 16.097v1.328a22.77 22.77 0 0 0 6.64 16.152 22.8 22.8 0 0 0 16.13 6.697h89.46a78.06 78.06 0 0 1 31.78 6.693 78.1 78.1 0 0 1 26.32 19.042 20 20 0 0 1 2.96 3.404 78.56 78.56 0 0 1 17.17 40.29 78.6 78.6 0 0 1-7.05 43.223 78.63 78.63 0 0 1-29.09 32.739 78.6 78.6 0 0 1-42.09 12.095h-77.92a78.594 78.594 0 0 1-55.63-23.029 78.7 78.7 0 0 1-17.06-25.527 78.6 78.6 0 0 1-5.97-30.11h44.35c0 9.097 3.62 17.82 10.06 24.251a34.3 34.3 0 0 0 24.25 10.043h77.92c4.57.108 9.12-.699 13.38-2.374a34.3 34.3 0 0 0 11.4-7.381 34.1 34.1 0 0 0 7.65-11.23 34.2 34.2 0 0 0 2.69-13.318c0-4.575-.91-9.103-2.69-13.319a34.1 34.1 0 0 0-7.65-11.23 34.3 34.3 0 0 0-11.4-7.381 34.4 34.4 0 0 0-13.38-2.374h-89.46a66 66 0 0 1-46.43-18.772 58.7 58.7 0 0 1-8.73-10.348 66.34 66.34 0 0 1-11.96-38.16v-1.327a67 67 0 0 1 5.07-25.735 67.192 67.192 0 0 1 62.05-41.583h100.98c17.85 0 34.98 7.093 47.6 19.717a67.34 67.34 0 0 1 19.72 47.601v1.327zM1459.07 255.577a80.21 80.21 0 0 0 23.49 56.656 80.22 80.22 0 0 0 56.66 23.491h124.5v44.353h-124.5a124.489 124.489 0 0 1-124.5-124.5 124.49 124.49 0 0 1 124.5-124.5h124.5v44.372h-124.5a80.21 80.21 0 0 0-80.15 80.128M1953.01 380.077h-49.81l-22.78-44.507-54.25-106.613-54.28 106.613-22.77 44.507h-49.82l22.62-44.507 104.25-204.493 104.22 204.493zM2212.67 198.203a67.2 67.2 0 0 1-10.65 36.403 67.2 67.2 0 0 1-28.68 24.818 62.3 62.3 0 0 1-19.37 5.482c-.64.112-1.28.157-1.93.134v.443h-119.25V380.02h-44.35V131h157.03a66.8 66.8 0 0 1 25.7 5.054 66.8 66.8 0 0 1 21.78 14.546 67.7 67.7 0 0 1 19.72 47.603m-44.36 0a23.97 23.97 0 0 0-6.8-16.406 22.67 22.67 0 0 0-15.97-6.501h-112.67v45.834h112.67c3.23.063 6.42-.65 9.31-2.078a22.644 22.644 0 0 0 13.46-20.849M2292.51 198.357v23.08h160.1v44.353h-160.14v47.027c0 6.052 2.39 11.858 6.66 16.15a22.9 22.9 0 0 0 16.11 6.757h181.74v44.353h-181.7a67.18 67.18 0 0 1-47.51-19.751 67.225 67.225 0 0 1-19.62-47.567V198.357a67.2 67.2 0 0 1 5.08-25.735 67.3 67.3 0 0 1 14.54-21.832 67.184 67.184 0 0 1 47.51-19.751h181.74v44.41h-181.74a22.92 22.92 0 0 0-16.11 6.757 22.9 22.9 0 0 0-6.66 16.151"/><path fill="#6a7277" d="M93.88 271.245v49.017c1.9 5.67 9.309 23.081 49.391 58.958 12.857 11.512 9.929 10.401 23.968 20.955l.058 79.818c-27.943-18.6-48.285-35.226-72.932-57.771-18.538-16.952-34.284-33.559-45.55-48.001-14.622-18.753-21.584-33.578-21.913-46.623v-.651l-.02-24.02L93.9 271.245z"/><path fill="#8ec856" d="M304.377 369.126c-26.916 24.096-50.147 43.347-79.952 61.678a8.13 8.13 0 0 1-8.474 0 602 602 0 0 1-37.096-24.844l.659 83.074c12.158 7.796 24.298 14.979 36.204 21.415l1.047.574a8.15 8.15 0 0 0 7.738 0l1.047-.574c47.606-25.725 89.977-57.426 123.253-87.844.524-.459 7.33-6.857 7.834-7.336l-49.351-48.768c-.951.862-1.92 1.724-2.89 2.605z"/><path fill="#6a7277" d="M424.256 173.001c-106.693-9.883-276.389 7.164-416.01 125.521A263 263 0 0 0 4 302.161c142.975-96.041 314.707-95.371 351.435-94.241v103.914c-1.726 5.172-5.72 16.837-38.085 47.255l47.975 47.886c14.854-14.136 27.517-27.831 36.999-40.014 14.622-18.752 21.583-33.559 21.913-46.603V173.001"/><path fill="#f26724" d="M449 168.615c-8.3-1.743-16.677-3.065-25.074-4.118a326 326 0 0 0-6.03-.747c-5.236-.46-10.414-1.054-15.669-1.303-2.618-.153-5.216-.364-7.834-.479l-7.854-.268c-2.598-.134-5.216-.134-7.834-.172l-6.612-.058h-1.222c-5.236.115-10.452.096-15.669.326-5.216.23-10.413.364-15.649.766l-7.795.517c-2.599.192-5.178.46-7.776.671-41.498 3.773-82.434 11.78-122.168 23.177-39.714 11.454-78.323 26.184-115.109 44.19a1014 1014 0 0 0-8.047 4.003c-15.61 7.834-30.95 16.166-45.842 25.131-2.017 1.206-3.995 2.452-5.973 3.677V74.24C43.501 60.985 60.856 49.416 78.658 39.61 127.796 12.562 180.522-1.133 233.52.073c40.994.939 80.766 10.765 118.211 29.23 6.884 3.41 13.71 7.088 20.381 11.053 18.092 10.726 35.409 23.502 51.814 38.213v67.501c-19.701-4.482-58.911-7.068-68.491-8.045l.097-29.843c-38.997-34.765-76.073-42.638-126.201-43.787-52.668-1.207-86.099 11.55-134.248 44.438l-.078 78.496c38.279-13.906 61.336-16.703 101.128-24.096 42.118-7.777 84.799-11.895 127.364-11.646 2.657.019 5.294 0 7.97.076l7.97.249c5.294.115 10.627.479 15.921.747 5.293.287 10.587.805 15.862 1.207l.873.096 7.058.747c2.618.268 5.275.555 7.893.919l7.873 1.054c2.617.364 5.216.823 7.853 1.245 5.217.766 10.414 1.877 15.61 2.854 1.862.402 3.704.804 5.546 1.226 8.455 1.896 16.852 4.08 25.074 6.646z"/></g><defs><filter id="a" width="2501.02" height="520" x="0" y="0" color-interpolation-filters="sRGB" filterUnits="userSpaceOnUse"><feFlood flood-opacity="0" result="BackgroundImageFix"/><feColorMatrix in="SourceAlpha" result="hardAlpha" values="0 0 0 0 0 0 0 0 0 0 0 0 0 0 0 0 0 0 127 0"/><feOffset dy="4"/><feGaussianBlur stdDeviation="2"/><feComposite in2="hardAlpha" operator="out"/><feColorMatrix values="0 0 0 0 0 0 0 0 0 0 0 0 0 0 0 0 0 0 0.25 0"/><feBlend in2="BackgroundImageFix" result="effect1_dropShadow_234_119"/><feBlend in="SourceGraphic" in2="effect1_dropShadow_234_119" result="shape"/></filter></defs></svg>