<?xml version="1.0" encoding="UTF-8" standalone="no"?>
<svg
   xmlns:dc="http://purl.org/dc/elements/1.1/"
   xmlns:cc="http://creativecommons.org/ns#"
   xmlns:rdf="http://www.w3.org/1999/02/22-rdf-syntax-ns#"
   xmlns:svg="http://www.w3.org/2000/svg"
   xmlns="http://www.w3.org/2000/svg"
   xmlns:sodipodi="http://sodipodi.sourceforge.net/DTD/sodipodi-0.dtd"
   xmlns:inkscape="http://www.inkscape.org/namespaces/inkscape"
   version="1.1"
   id="svg2"
   xml:space="preserve"
   width="2666.6667"
   height="1066.6667"
   viewBox="0 0 2666.6667 1066.6667"
   sodipodi:docname="logo_sixscape_for external use.ai"><metadata
     id="metadata8"><rdf:RDF><cc:Work
         rdf:about=""><dc:format>image/svg+xml</dc:format><dc:type
           rdf:resource="http://purl.org/dc/dcmitype/StillImage" /></cc:Work></rdf:RDF></metadata><defs
     id="defs6"><clipPath
       clipPathUnits="userSpaceOnUse"
       id="clipPath18"><path
         d="M 227.227,619.845 C 98.527,563.584 39.257,412.252 95.518,283.551 v 0 -10e-4 c 0.614,-1.402 1.3,-2.749 1.936,-4.135 v 0 c 0,0 89.659,39.802 211.111,47.953 v 0 c 140.581,7.741 263.62,-19.951 263.62,-19.951 v 0 c 18.6,57.379 17.249,121.44 -8.664,180.718 v 0 0.001 C 521.7,583.805 427.336,641.109 328.795,641.113 v 0 c -34.023,10e-4 -68.536,-6.828 -101.568,-21.268"
         id="path16" /></clipPath><linearGradient
       x1="0"
       y1="0"
       x2="1"
       y2="0"
       gradientUnits="userSpaceOnUse"
       gradientTransform="matrix(510.50763,0,0,-510.50763,74.250328,460.26364)"
       spreadMethod="pad"
       id="linearGradient32"><stop
         style="stop-opacity:0;stop-color:#ffffff"
         offset="0"
         id="stop28" /><stop
         style="stop-opacity:1;stop-color:#ffffff"
         offset="1"
         id="stop30" /></linearGradient><mask
       maskUnits="userSpaceOnUse"
       x="0"
       y="0"
       width="1"
       height="1"
       id="mask34"><g
         id="g44"><g
           id="g42"><g
             id="g40"><g
               id="g38"><path
                 d="M -32768,32767 H 32767 V -32768 H -32768 Z"
                 style="fill:url(#linearGradient32);stroke:none"
                 id="path36" /></g></g></g></g></mask><linearGradient
       x1="0"
       y1="0"
       x2="1"
       y2="0"
       gradientUnits="userSpaceOnUse"
       gradientTransform="matrix(510.50763,0,0,-510.50763,74.250328,460.26364)"
       spreadMethod="pad"
       id="linearGradient54"><stop
         style="stop-opacity:1;stop-color:#ffde17"
         offset="0"
         id="stop50" /><stop
         style="stop-opacity:1;stop-color:#f1f1f2"
         offset="1"
         id="stop52" /></linearGradient><clipPath
       clipPathUnits="userSpaceOnUse"
       id="clipPath68"><path
         d="M 0,800 H 2000 V 0 H 0 Z"
         id="path66" /></clipPath><clipPath
       clipPathUnits="userSpaceOnUse"
       id="clipPath80"><path
         d="m 560.98,448.37 c -3.205,12.671 -5.749,34.61 -10.916,46.43 v 0 C 512.024,581.815 424.058,628.466 328.55,628.466 v 0 c -32.861,0 129.024,-195.1 232.43,-180.096"
         id="path78" /></clipPath><linearGradient
       x1="0"
       y1="0"
       x2="1"
       y2="0"
       gradientUnits="userSpaceOnUse"
       gradientTransform="matrix(0,180.91846,180.91846,0,442.60281,447.54736)"
       spreadMethod="pad"
       id="linearGradient94"><stop
         style="stop-opacity:0;stop-color:#ffffff"
         offset="0"
         id="stop90" /><stop
         style="stop-opacity:1;stop-color:#ffffff"
         offset="1"
         id="stop92" /></linearGradient><mask
       maskUnits="userSpaceOnUse"
       x="0"
       y="0"
       width="1"
       height="1"
       id="mask96"><g
         id="g106"><g
           id="g104"><g
             id="g102"><g
               id="g100"><path
                 d="M -32768,32767 H 32767 V -32768 H -32768 Z"
                 style="fill:url(#linearGradient94);stroke:none"
                 id="path98" /></g></g></g></g></mask><linearGradient
       x1="0"
       y1="0"
       x2="1"
       y2="0"
       gradientUnits="userSpaceOnUse"
       gradientTransform="matrix(0,180.91846,180.91846,0,442.60281,447.54736)"
       spreadMethod="pad"
       id="linearGradient116"><stop
         style="stop-opacity:1;stop-color:#ffffff"
         offset="0"
         id="stop112" /><stop
         style="stop-opacity:1;stop-color:#f1f1f2"
         offset="1"
         id="stop114" /></linearGradient><clipPath
       clipPathUnits="userSpaceOnUse"
       id="clipPath126"><path
         d="M 227.227,619.845 C 98.527,563.584 39.257,412.252 95.518,283.551 v 0 -10e-4 c 0.614,-1.402 1.3,-2.749 1.936,-4.135 v 0 c 6.383,-13.921 13.859,-27.024 22.335,-39.209 v 0 c 68.12,-97.921 198.812,-137.853 312.023,-88.364 v 0 h 10e-4 c 66.411,29.031 114.266,83.403 137.369,146.891 v 0 c 1.047,2.879 2.059,5.768 3.003,8.684 v 0 c 18.6,57.379 17.249,121.44 -8.664,180.718 v 0 0.001 C 521.7,583.805 427.336,641.109 328.795,641.113 v 0 c -34.023,10e-4 -68.536,-6.828 -101.568,-21.268"
         id="path124" /></clipPath><radialGradient
       fx="0"
       fy="0"
       cx="0"
       cy="0"
       r="1"
       gradientUnits="userSpaceOnUse"
       gradientTransform="matrix(255.26021,0,0,-255.26021,329.50409,385.84616)"
       spreadMethod="pad"
       id="radialGradient146"><stop
         style="stop-opacity:0;stop-color:#ffffff"
         offset="0"
         id="stop136" /><stop
         style="stop-opacity:0.50000763;stop-color:#ffffff"
         offset="0.64359897"
         id="stop138" /><stop
         style="stop-opacity:0.50000763;stop-color:#ffffff"
         offset="0.790996"
         id="stop140" /><stop
         style="stop-opacity:0.50000763;stop-color:#ffffff"
         offset="0.95800847"
         id="stop142" /><stop
         style="stop-opacity:0.2;stop-color:#ffffff"
         offset="1"
         id="stop144" /></radialGradient><mask
       maskUnits="userSpaceOnUse"
       x="0"
       y="0"
       width="1"
       height="1"
       id="mask148"><g
         id="g158"><g
           id="g156"><g
             id="g154"><g
               id="g152"><path
                 d="M -32768,32767 H 32767 V -32768 H -32768 Z"
                 style="fill:url(#radialGradient146);stroke:none"
                 id="path150" /></g></g></g></g></mask><radialGradient
       fx="0"
       fy="0"
       cx="0"
       cy="0"
       r="1"
       gradientUnits="userSpaceOnUse"
       gradientTransform="matrix(255.26021,0,0,-255.26021,329.50409,385.84616)"
       spreadMethod="pad"
       id="radialGradient174"><stop
         style="stop-opacity:1;stop-color:#f9b317"
         offset="0"
         id="stop164" /><stop
         style="stop-opacity:1;stop-color:#f9b317"
         offset="0.64359897"
         id="stop166" /><stop
         style="stop-opacity:1;stop-color:#f9b317"
         offset="0.790996"
         id="stop168" /><stop
         style="stop-opacity:1;stop-color:#f9b317"
         offset="0.95800847"
         id="stop170" /><stop
         style="stop-opacity:1;stop-color:#6a4c00"
         offset="1"
         id="stop172" /></radialGradient><clipPath
       clipPathUnits="userSpaceOnUse"
       id="clipPath184"><path
         d="M 0,800 H 2000 V 0 H 0 Z"
         id="path182" /></clipPath></defs><sodipodi:namedview
     pagecolor="#ffffff"
     bordercolor="#666666"
     borderopacity="1"
     objecttolerance="10"
     gridtolerance="10"
     guidetolerance="10"
     inkscape:pageopacity="0"
     inkscape:pageshadow="2"
     inkscape:window-width="640"
     inkscape:window-height="480"
     id="namedview4" /><g
     id="g10"
     inkscape:groupmode="layer"
     inkscape:label="logo_sixscape_for external use"
     transform="matrix(1.3333333,0,0,-1.3333333,0,1066.6667)"><g
       id="g12"><g
         id="g14"
         clip-path="url(#clipPath18)"><g
           id="g20"><g
             id="g22" /><g
             id="g46"
             mask="url(#mask34)"><g
               id="g48"><path
                 d="M 227.227,619.845 C 98.527,563.584 39.257,412.252 95.518,283.551 v 0 -10e-4 c 0.614,-1.402 1.3,-2.749 1.936,-4.135 v 0 c 0,0 89.659,39.802 211.111,47.953 v 0 c 140.581,7.741 263.62,-19.951 263.62,-19.951 v 0 c 18.6,57.379 17.249,121.44 -8.664,180.718 v 0 0.001 C 521.7,583.805 427.336,641.109 328.795,641.113 v 0 c -34.023,10e-4 -68.536,-6.828 -101.568,-21.268"
                 style="fill:url(#linearGradient54);stroke:none"
                 id="path56" /></g></g></g></g></g><text
       transform="matrix(1,0,0,-0.99526225,619.1958,261.9873)"
       style="font-variant:normal;font-weight:normal;font-stretch:normal;font-size:345.797px;font-family:'Acumin Pro';-inkscape-font-specification:AcuminPro-Regular;writing-mode:lr-tb;fill:#252626;fill-opacity:1;fill-rule:nonzero;stroke:none"
       id="text60"><tspan
         x="0 195.72093 281.13272 441.92819 599.61145 774.58459 943.6792 1142.8582"
         y="0"
         sodipodi:role="line"
         id="tspan58">Sixscape</tspan></text><g
       id="g62"><g
         id="g64"
         clip-path="url(#clipPath68)"><g
           id="g70"
           transform="translate(563.5215,488.1351)"><path
             d="m 0,0 v 0 c -56.261,128.701 -207.593,187.971 -336.294,131.71 v 0 c -128.701,-56.261 -187.97,-207.593 -131.71,-336.294 h 0.001 c 0.613,-1.403 1.299,-2.75 1.935,-4.137 0,0 89.659,39.803 211.111,47.953 140.582,7.742 263.621,-19.951 263.621,-19.951 C 27.264,-123.339 25.913,-59.278 0,0"
             style="fill:#f9b815;fill-opacity:1;fill-rule:nonzero;stroke:none"
             id="path72" /></g></g></g><g
       id="g74"><g
         id="g76"
         clip-path="url(#clipPath80)"><g
           id="g82"><g
             id="g84" /><g
             id="g108"
             mask="url(#mask96)"><g
               id="g110"><path
                 d="m 560.98,448.37 c -3.205,12.671 -5.749,34.61 -10.916,46.43 v 0 C 512.024,581.815 424.058,628.466 328.55,628.466 v 0 c -32.861,0 129.024,-195.1 232.43,-180.096"
                 style="fill:url(#linearGradient116);stroke:none"
                 id="path118" /></g></g></g></g></g><g
       id="g120"><g
         id="g122"
         clip-path="url(#clipPath126)"><g
           id="g128"><g
             id="g130" /><g
             id="g160"
             mask="url(#mask148)"><g
               id="g162"><path
                 d="M 227.227,619.845 C 98.527,563.584 39.257,412.252 95.518,283.551 v 0 -10e-4 c 0.614,-1.402 1.3,-2.749 1.936,-4.135 v 0 c 6.383,-13.921 13.859,-27.024 22.335,-39.209 v 0 c 68.12,-97.921 198.812,-137.853 312.023,-88.364 v 0 h 10e-4 c 66.411,29.031 114.266,83.403 137.369,146.891 v 0 c 1.047,2.879 2.059,5.768 3.003,8.684 v 0 c 18.6,57.379 17.249,121.44 -8.664,180.718 v 0 0.001 C 521.7,583.805 427.336,641.109 328.795,641.113 v 0 c -34.023,10e-4 -68.536,-6.828 -101.568,-21.268"
                 style="fill:url(#radialGradient174);stroke:none"
                 id="path176" /></g></g></g></g></g><g
       id="g178"><g
         id="g180"
         clip-path="url(#clipPath184)"><g
           id="g186"
           transform="translate(431.8117,151.8412)"><path
             d="M 0,0 H 0.001 C 66.412,29.032 114.268,83.403 137.37,146.892 136.773,146.833 -26.577,170.201 -143.7,150.425 -248.755,132.686 -312.023,88.365 -312.023,88.365 -243.902,-9.557 -113.211,-49.489 0,0"
             style="fill:#000000;fill-opacity:1;fill-rule:nonzero;stroke:none"
             id="path188" /></g><g
           id="g190"
           transform="translate(308.5651,327.3675)"><path
             d="m 0,0 c -121.453,-8.15 -211.112,-47.953 -211.112,-47.953 6.384,-13.921 13.86,-27.023 22.336,-39.208 0,0 63.268,44.321 168.323,62.06 117.123,19.776 280.473,-3.592 281.07,-3.533 1.047,2.879 2.058,5.768 3.003,8.683 0,0 -123.039,27.692 -263.62,19.951"
             style="fill:#f8f9fa;fill-opacity:1;fill-rule:nonzero;stroke:none"
             id="path192" /></g><g
           id="g194"
           transform="translate(328.8098,649.1127)"><path
             d="m 0,0 h -0.015 c -36.227,-0.002 -71.477,-7.383 -104.771,-21.937 -32.441,-14.182 -61.173,-34.375 -85.399,-60.019 -23.377,-24.747 -41.566,-53.472 -54.062,-85.376 -12.495,-31.904 -18.652,-65.342 -18.298,-99.383 0.366,-35.275 7.742,-69.61 21.923,-102.051 0.417,-0.954 0.84,-1.838 1.25,-2.692 0.25,-0.523 0.501,-1.046 0.744,-1.574 6.535,-14.253 14.287,-27.86 23.04,-40.443 24.261,-34.875 57.202,-63.702 95.261,-83.364 37.601,-19.426 79.716,-29.694 121.793,-29.694 36.21,0 71.45,7.379 104.74,21.931 33.469,14.631 62.945,35.638 87.609,62.438 23.784,25.844 41.978,55.804 54.075,89.049 1.194,3.28 2.206,6.208 3.096,8.951 19.916,61.442 16.74,127.637 -8.944,186.391 -20.861,47.721 -55.132,87.8 -99.108,115.902 C 100.07,-14.479 50.644,0 0,0 m -0.015,-8 c 98.55,0.006 192.902,-57.3 234.727,-152.977 v -0.001 c 25.913,-59.277 27.264,-123.339 8.664,-180.718 -0.945,-2.915 -1.956,-5.805 -3.004,-8.683 -23.102,-63.489 -70.958,-117.861 -137.369,-146.892 h -0.001 c -33.015,-14.433 -67.533,-21.262 -101.536,-21.262 -82.595,0 -162.232,40.261 -210.487,109.627 -8.476,12.185 -15.952,25.287 -22.335,39.208 -0.636,1.386 -1.322,2.734 -1.936,4.136 v 0 c -56.26,128.701 3.009,280.034 131.71,336.294 v 0 C -68.558,-14.832 -34.03,-8.002 -0.015,-8"
             style="fill:#f9b815;fill-opacity:1;fill-rule:nonzero;stroke:none"
             id="path196" /></g><g
           id="g198"
           transform="translate(327.9852,248.5959)"><path
             d="M 0,0 C 33.295,0 58.546,30.414 58.546,70.497 58.546,109.2 33.295,139.599 0,139.599 -32.149,139.599 -57.401,109.2 -57.401,70.497 -57.401,30.414 -32.149,0 0,0 m -105.546,228.104 69.607,110.978 H 52.824 L -19.582,207.185 c 17.649,1.33 38.868,2.894 54.659,1.102 64.962,-7.372 116.169,-54.353 116.169,-133.06 0,-89.46 -64.904,-152.306 -150.029,-152.306 -81.84,0 -151.917,58.32 -151.917,162.5 0,55.489 19.756,101.92 45.154,142.683"
             style="fill:#ffffff;fill-opacity:1;fill-rule:nonzero;stroke:none"
             id="path200" /></g></g></g></g></svg>
