<svg xmlns="http://www.w3.org/2000/svg" viewBox="0 0 163 30"><defs><clipPath id="a"><path d="M86 11h13v13.047H86zm0 0"/></clipPath><clipPath id="b"><path d="M105 8h10v16.047h-10zm0 0"/></clipPath><clipPath id="c"><path d="M115 5.836h4V24h-4zm0 0"/></clipPath><clipPath id="d"><path d="M120 11h13v13.047h-13zm0 0"/></clipPath><clipPath id="e"><path d="M132 11h14v13.047h-14zm0 0"/></clipPath><clipPath id="f"><path d="M154 8h9v16.047h-9zm0 0"/></clipPath></defs><path fill="#1c1d29" d="M32.957 13.695h-5.95v-2.789h5.95a1.4 1.4 0 0 1 1.395 1.395 1.4 1.4 0 0 1-1.395 1.394m0 6.496h-5.95v-2.793h5.95c.766 0 1.395.633 1.395 1.399 0 .762-.63 1.394-1.395 1.394M38.043 12c-.148-2.715-2.48-4.816-5.203-4.816h-9.528v16.71h9.528c2.722 0 5.07-2.097 5.203-4.816a5.14 5.14 0 0 0-1.152-3.539A5.1 5.1 0 0 0 38.043 12M14.746 7.184H4.098c-.735 0-1.407.242-1.961.66a3.27 3.27 0 0 0-1.254 3.062 3.22 3.22 0 0 0 1 1.918l8.152 7.367H1.72L0 23.895h11.5a3.237 3.237 0 0 0 3.246-3.238c0-.169-.016-.317-.031-.466a3.24 3.24 0 0 0-1.09-1.996l-8.078-7.289h7.476zm38.938 0H43.039c-.734 0-1.406.242-1.945.66a3.27 3.27 0 0 0-1.285 2.597c0 .149.015.313.027.465.105.75.465 1.422 1.004 1.918l8.148 7.367H40.66l-1.719 3.72h11.5c.73 0 1.407-.24 1.942-.645.777-.602 1.3-1.532 1.3-2.594 0-.168-.011-.317-.027-.469a3.15 3.15 0 0 0-1.093-1.992l-8.075-7.29h7.477zm-36.86 0h3.707v16.71h-3.707zm40.09 15.211-.133.058h-.343v-.402h.343l.133.058.063.153zm.242.09.074-.223a.44.44 0 0 0-.136-.317.43.43 0 0 0-.313-.136h-.613v1.367h.254v-.465h.285l.223.465h.285l-.238-.528zm0 0"/><path fill="#1c1d29" d="M57.559 23.023a1.05 1.05 0 0 1-.391.391.95.95 0 0 1-.535.137q-.293-.001-.54-.137a.97.97 0 0 1-.39-.39 1.1 1.1 0 0 1-.133-.54q-.001-.293.133-.539a1.1 1.1 0 0 1 .39-.39q.247-.134.54-.133.287-.001.535.133c.168.105.3.226.39.39a.97.97 0 0 1 .149.54.97.97 0 0 1-.148.538m.285-1.226a1.4 1.4 0 0 0-.508-.512 1.44 1.44 0 0 0-.703-.18 1.36 1.36 0 0 0-1.21.691c-.122.208-.18.45-.18.704a1.39 1.39 0 0 0 .687 1.215c.222.12.449.18.703.18s.476-.06.703-.18c.223-.137.387-.3.508-.512.133-.223.191-.45.191-.703 0-.27-.058-.496-.191-.703"/><path fill="#0a9ac7" d="M81.2 7.184 74.335 18.93 67.398 7.184h-1.96v16.71h2.289v-12.09l6.027 10.067h1.09l6.011-10.14.032 12.164h2.289l-.031-16.711zm0 0"/><g clip-path="url(#a)"><path fill="#0a9ac7" d="M98.398 11.25v12.645H96.23v-1.907c-.93 1.309-2.496 2.059-4.277 2.059-3.262 0-5.43-1.785-5.43-5.524V11.25h2.29v7.02c0 2.476 1.242 3.718 3.41 3.718 2.379 0 3.902-1.484 3.902-4.199V11.25zm0 0"/></g><path fill="#0a9ac7" d="M101.555 6.195h2.285V23.91h-2.285zm0 0"/><g clip-path="url(#b)"><path fill="#0a9ac7" d="M114.398 23.16c-.687.602-1.734.887-2.765.887-2.543 0-3.992-1.41-3.992-3.961V13.14H105.5v-1.89h2.14V8.477h2.29v2.773h3.617v1.89h-3.617v6.856c0 1.363.715 2.113 1.972 2.113.657 0 1.317-.21 1.778-.597zm0 0"/></g><g clip-path="url(#c)"><path fill="#0a9ac7" d="M115.969 11.25h2.289v12.645h-2.29zm-.403-3.914c0-.84.657-1.5 1.54-1.5.882 0 1.539.644 1.539 1.453 0 .856-.641 1.531-1.54 1.531-.867 0-1.539-.644-1.539-1.484"/></g><g clip-path="url(#d)"><path fill="#0a9ac7" d="M120.246 17.578c0-3.762 2.781-6.45 6.668-6.45 2.258 0 4.145.93 5.145 2.7l-1.735 1.125c-.804-1.242-2.047-1.812-3.422-1.812-2.468 0-4.34 1.738-4.34 4.437 0 2.746 1.856 4.457 4.34 4.457 1.375 0 2.618-.57 3.422-1.816l1.735 1.097c-1 1.77-2.887 2.715-5.145 2.715-3.871.016-6.668-2.687-6.668-6.453"/></g><g clip-path="url(#e)"><path fill="#0a9ac7" d="M134.738 16.695h8.09c-.242-2.129-1.84-3.629-4.055-3.629-2.183 0-3.796 1.47-4.035 3.63m10.227 1.648h-10.227c.282 2.222 2.078 3.707 4.559 3.707 1.48 0 2.707-.496 3.648-1.531l1.258 1.484c-1.137 1.336-2.887 2.055-4.98 2.055-4.067 0-6.79-2.7-6.79-6.465 0-3.75 2.692-6.45 6.325-6.45 3.637 0 6.238 2.626 6.238 6.512.027.18 0 .465-.031.688"/></g><path fill="#0a9ac7" d="M153.773 11.129v2.223c-.195-.016-.359-.016-.523-.016-2.453 0-3.977 1.5-3.977 4.273v6.301h-2.289V11.25h2.184v2.113c.82-1.468 2.39-2.234 4.605-2.234"/><g clip-path="url(#f)"><path fill="#0a9ac7" d="M163 23.16c-.688.602-1.734.887-2.75.887-2.543 0-3.996-1.41-3.996-3.961V13.14h-2.137v-1.89h2.137V8.477h2.289v2.773h3.621v1.89h-3.621v6.856c0 1.363.719 2.113 1.977 2.113.671 0 1.312-.21 1.777-.597zm0 0"/></g></svg>