<svg xmlns="http://www.w3.org/2000/svg" data-name="Calque 1" viewBox="0 0 219 32.81"><path d="M43.01 20.31v11.97h-8.76v-8.43c0-3.76-1.27-5.37-5.21-5.37-2.59 0-5.34 1.12-7.05 2.77v11.02h-8.76V11.03h8.76v3.08c2.62-1.82 5.99-3.29 10.58-3.29 4.93 0 10.43 1.56 10.43 9.49h.02ZM91.76 4.38H83v6.67h-4.7v7.11H83V32.3h17.52v-7.12h-8.76v-7.03h8.76v-7.11h-8.76V4.37v.02ZM75.94 23.11H55.48c.71 2.3 3.12 2.88 5.5 2.88s3.64-.12 4.87-.77h9.53c-1.39 5.09-6 7.59-14.4 7.59s-14.31-3.17-14.31-11.14 5.87-11.14 14.67-11.14 14.6 3.17 14.6 12.58m-9.17-4.83c-1-1.44-3.17-2.11-5.49-2.11s-4.46.67-5.38 2.11zm58.26 4.11c-1.65 1.58-4.27 2.67-6.76 2.67-3.77 0-5.08-1.53-5.08-5.14v-8.85h-8.76v12.29c0 7.59 5.71 9.06 10.44 9.06 4.41 0 7.64-1.39 10.16-3.15v3.03h8.76V11.05h-8.76zm49.89-11.67c-5.17 0-8.25 1.62-10.37 4.09-1.67-3.11-5.3-4.09-7.97-4.09-5.17 0-7.67 2.12-9.56 3.9v-3.56h-8.76v21.25h8.76V20.84c1.8-1.77 3.61-2.7 5.76-2.7 3.11 0 4.06 1.56 4.06 5.21v8.96h8.76V20.62c1.8-1.77 3.35-2.47 5.5-2.47 3.11 0 4.06 1.56 4.06 5.21v8.96h8.76V19.54c0-7.32-5.32-8.82-9.03-8.82zM0 11.05.03 32.3h8.72l-.03-21.25zM8.76 0H0v8.76h8.76z" style="stroke-width:0;fill:#fff"/><path d="M201.48 6.02v8.76h8.76v8.76H219V6.02zm0 17.5h-8.76v8.76h8.76z" style="fill:#00aa9b;stroke-width:0"/></svg>