<svg id="Calque_1" data-name="Calque 1" 
  xmlns="http://www.w3.org/2000/svg" viewBox="0 0 219 32.81">
  <defs>
    <style>
          .cls-1 {
            fill: #00aa9b;
          }

          .cls-1, .cls-2 {
            stroke-width: 0px;
          }

          .cls-2 {
            fill: #fff;
          }
        </style>
  </defs>
  <path class="cls-2" d="M43.01,20.31v11.97h-8.76v-8.43c0-3.76-1.27-5.37-5.21-5.37-2.59,0-5.34,1.12-7.05,2.77v11.02h-8.76V11.03h8.76v3.08c2.62-1.82,5.99-3.29,10.58-3.29,4.93,0,10.43,1.56,10.43,9.49h.02ZM91.76,4.38h-8.76v6.67h-4.7v7.11h4.7v14.14h17.52v-7.12h-8.76v-7.03h8.76v-7.11h-8.76v-6.67h0v.02ZM75.94,23.11h-20.46c.71,2.3,3.12,2.88,5.5,2.88s3.64-.12,4.87-.77h9.53c-1.39,5.09-6,7.59-14.4,7.59s-14.31-3.17-14.31-11.14,5.87-11.14,14.67-11.14,14.6,3.17,14.6,12.58h0ZM66.77,18.28c-1-1.44-3.17-2.11-5.49-2.11s-4.46.67-5.38,2.11c0,0,10.87,0,10.87,0ZM125.03,22.39c-1.65,1.58-4.27,2.67-6.76,2.67-3.77,0-5.08-1.53-5.08-5.14v-8.85h-8.76v12.29c0,7.59,5.71,9.06,10.44,9.06,4.41,0,7.64-1.39,10.16-3.15v3.03h8.76V11.05h-8.76v11.34h0ZM174.92,10.72c-5.17,0-8.25,1.62-10.37,4.09-1.67-3.11-5.3-4.09-7.97-4.09-5.17,0-7.67,2.12-9.56,3.9v-3.56h-8.76v21.25h8.76v-11.47c1.8-1.77,3.61-2.7,5.76-2.7,3.11,0,4.06,1.56,4.06,5.21v8.96h8.76v-11.69c1.8-1.77,3.35-2.47,5.5-2.47,3.11,0,4.06,1.56,4.06,5.21v8.96h8.76v-12.78c0-7.32-5.32-8.82-9.03-8.82h.03ZM0,11.05l.03,21.25h8.72l-.03-21.25s-8.72,0-8.72,0ZM8.76,0H0v8.76h8.76S8.76,0,8.76,0Z"/>
  <path class="cls-1" d="M201.48,6.02v8.76h8.76v8.76h8.76V6.02h-17.52ZM201.48,23.52h-8.76v8.76h8.76v-8.76Z"/>
</svg>