<?xml version="1.0" encoding="utf-8"?>
<!-- Generator: Adobe Illustrator 25.2.3, SVG Export Plug-In . SVG Version: 6.00 Build 0)  -->
<svg version="1.1" baseProfile="basic" id="Ebene_1"
	 xmlns="http://www.w3.org/2000/svg" xmlns:xlink="http://www.w3.org/1999/xlink" x="0px" y="0px" viewBox="0 0 841.89 595.28"
	 xml:space="preserve">
<style type="text/css">
	.st0{fill:#0069B4;}
</style>
<path d="M314.87,329.06l-9.5,0.63v-5.23h-0.16c-3.4,4.59-6.73,5.86-12.35,5.86c-8.31,0-13.86-5.3-13.86-13.86v-27.63l10.06-1.27
	v26.21c0,4.28,1.98,7.84,6.49,7.84c6.33,0,9.26-4.83,9.26-9.9v-22.88l10.05-1.27V329.06L314.87,329.06z"/>
<path d="M325.24,281.87l10.06-4.51v11.48h9.11v8.71h-9.11v17.18c0,3.88,1.66,6.41,7.52,6.41c1.11,0,2.38-0.08,3.48-0.16l-2.45,9.03
	c-0.95,0.24-2.69,0.32-3.96,0.32c-8.47,0-14.65-4.51-14.65-13.46v-19.32h-6.18l2.22-8.71h3.96V281.87L325.24,281.87z"/>
<path d="M367.12,288.83l9.5-0.95v5.15c3.09-3.48,5.46-5.46,10.29-5.46c3.96,0,7.52,1.74,10.37,5.15c3.56-3.49,6.49-5.15,11.32-5.15
	c6.18,0,13.06,3.56,13.06,12.83v28.66l-10.06,0.63v-27.56c0.32-4.91-2.45-5.86-5.86-5.86c-4.12,0-6.33,3.09-6.33,8.08v24.7
	l-10.06,0.63v-27.56c0.32-4.91-2.45-5.86-5.86-5.86c-4.12,0-6.33,3.09-6.33,8.08v24.7l-10.05,0.63V288.83L367.12,288.83z"/>
<path d="M436.56,316.15c0-3.56,3.8-5.78,7.36-5.78c3.56,0,7.36,2.22,7.36,5.78c0,3.64-3.8,5.78-7.36,5.78
	C440.36,321.93,436.56,319.79,436.56,316.15L436.56,316.15L436.56,316.15z M431.41,298.33c3.64-1.43,7.44-2.38,11.4-2.38
	c4.67,0,8.63,1.03,8.63,6.49c0,1.03-0.16,1.82-0.24,2.69c-3.88-1.98-6.73-2.69-11.08-2.69c-7.52,0-13.62,6.41-13.62,13.7
	c0,9.18,6.65,14.17,15.2,14.17c3.72,0,7.28-1.43,10.06-3.8v3.48l9.18-0.95v-30.17c0-8.16-7.92-11.32-15.12-11.32
	c-3.88,0-7.84,0.4-11.64,1.11L431.41,298.33L431.41,298.33z"/>
<path d="M497.68,299.76c-2.61-1.58-5.46-3.01-8.55-3.01c-7.44,0-12.98,4.91-12.98,12.19c0,6.97,6.33,12.19,11.56,12.19
	c4.12,0,6.41-0.95,9.66-3.09l5.54,7.21c-3.88,3.88-9.9,5.07-15.04,5.07c-10.37,0-21.77-8.15-21.77-21.7
	c0-12.19,10.37-21.06,22.09-21.06c5.86,0,10.37,1.82,14.81,4.67L497.68,299.76L497.68,299.76z"/>
<path d="M512.8,308.95c0-6.89,6.02-12.19,12.83-12.19c6.81,0,12.83,5.3,12.83,12.19s-6.02,12.19-12.83,12.19
	C518.82,321.14,512.8,315.83,512.8,308.95L512.8,308.95L512.8,308.95z M503.3,308.95c0,12.11,10.45,21.38,22.33,21.38
	c11.88,0,22.33-9.27,22.33-21.38c0-12.12-10.45-21.38-22.33-21.38C513.75,287.57,503.3,296.83,503.3,308.95"/>
<path d="M561.32,280.94c0,3.48-2.57,6.09-5.98,6.09c-3.42,0-6.02-2.61-6.02-6.09c0-3.43,2.59-6.06,6.02-6.06
	C558.74,274.88,561.32,277.51,561.32,280.94L561.32,280.94L561.32,280.94z M555.34,288.06c3.88,0,7.13-3.15,7.13-7.13
	c0-3.94-3.25-7.09-7.13-7.09c-3.92,0-7.16,3.15-7.16,7.09C548.17,284.92,551.42,288.06,555.34,288.06L555.34,288.06L555.34,288.06z
	 M553.72,281.47h1.66l2.31,3.66h1.27l-2.43-3.68c1.15-0.2,2.12-0.85,2.12-2.34c0-1.56-0.89-2.37-2.79-2.37h-3.21v8.39h1.07V281.47
	L553.72,281.47z M555.64,277.69c0.95,0,1.94,0.26,1.94,1.39c0,0.91-0.44,1.44-1.9,1.44h-1.96v-2.83H555.64L555.64,277.69z"/>
<polygon class="st0" points="365.17,276.29 355.77,266.89 346.37,276.29 355.77,285.69 365.17,276.29 "/>
<polygon points="350.62,288.69 360.68,287.74 360.68,328.92 350.62,329.55 350.62,288.69 "/>
</svg>
