<svg xmlns="http://www.w3.org/2000/svg" xmlns:xlink="http://www.w3.org/1999/xlink" width="332" height="75" viewBox="0 0 332 75"><title>atom/cd/utimaco logo</title><defs><path id="a" d="M0 .828h41.992V51H0z"/><path id="c" d="M.609.828H52.89V51H.609z"/></defs><g fill="none" fill-rule="evenodd"><g transform="translate(0 23.434)"><mask id="b" fill="#fff"><use xlink:href="#a"/></mask><path fill="#000" d="m41.992 49.513-11.123.744v-6.132h-.186C26.697 49.513 22.803 51 16.222 51 6.49 51 0 44.776 0 34.74V2.313L11.773.828v30.754c0 5.016 2.317 9.197 7.6 9.197 7.416 0 10.847-5.668 10.847-11.615V2.313L41.992.828z" mask="url(#b)"/></g><path fill="#000" d="m54.135 17.572 11.772-5.297v13.471h10.661v10.222H65.907v20.161c0 4.551 1.947 7.526 8.806 7.526 1.299 0 2.783-.095 4.08-.187L75.92 74.06c-1.113.278-3.153.371-4.636.371-9.918 0-17.149-5.296-17.149-15.795v-22.67h-7.231l2.596-10.22h4.635zM103.17 25.746l11.124-1.114v6.04c3.616-4.088 6.397-6.409 12.051-6.409 4.636 0 8.806 2.042 12.143 6.04 4.171-4.092 7.601-6.04 13.256-6.04 7.231 0 15.295 4.18 15.295 15.05v33.633l-11.774.744V41.354c.372-5.758-2.873-6.874-6.86-6.874-4.818 0-7.414 3.623-7.414 9.478v28.988l-11.773.744V41.354c.371-5.758-2.873-6.874-6.86-6.874-4.819 0-7.416 3.623-7.416 9.478v28.988l-11.772.744zM184.465 57.801c0-4.18 4.451-6.782 8.621-6.782s8.621 2.602 8.621 6.782c0 4.274-4.45 6.785-8.62 6.785s-8.622-2.511-8.622-6.785m-6.024-20.903c4.263-1.675 8.714-2.787 13.348-2.787 5.467 0 10.104 1.209 10.104 7.617 0 1.212-.186 2.138-.277 3.159-4.544-2.32-7.88-3.159-12.979-3.159-8.807 0-15.944 7.523-15.944 16.073 0 10.778 7.786 16.632 17.798 16.632 4.356 0 8.528-1.671 11.773-4.46v4.088l10.752-1.114v-35.4c0-9.57-9.269-13.285-17.703-13.285-4.542 0-9.178.463-13.629 1.298zM256.028 38.569c-3.06-1.856-6.396-3.528-10.012-3.528-8.712 0-15.202 5.757-15.202 14.305 0 8.177 7.415 14.309 13.536 14.309 4.82 0 7.505-1.114 11.308-3.623l6.488 8.456c-4.542 4.552-11.588 5.946-17.613 5.946-12.144 0-25.49-9.568-25.49-25.458 0-14.308 12.142-24.714 25.862-24.714 6.859 0 12.143 2.135 17.335 5.483z"/><g transform="translate(262 23.434)"><mask id="d" fill="#fff"><use xlink:href="#c"/></mask><path fill="#000" d="M11.734 25.913c0-8.082 7.043-14.306 15.015-14.306s15.019 6.224 15.019 14.306c0 8.084-7.046 14.308-15.02 14.308-7.971 0-15.014-6.224-15.014-14.308m-11.125 0C.609 40.128 12.844 51 26.749 51 40.653 51 52.89 40.128 52.89 25.913S40.653.828 26.749.828.609 11.698.609 25.913" mask="url(#d)"/></g><path fill="#000" d="M330.532 16.482c0 4.088-3.014 7.15-7 7.15-4.008 0-7.046-3.062-7.046-7.15 0-4.02 3.038-7.11 7.046-7.11 3.986 0 7 3.09 7 7.11m-7 8.362c4.543 0 8.342-3.693 8.342-8.362 0-4.622-3.799-8.315-8.342-8.315-4.588 0-8.388 3.693-8.388 8.315 0 4.669 3.8 8.362 8.388 8.362m-1.897-7.735h1.944l2.711 4.297h1.482l-2.848-4.32c1.343-.233 2.48-1 2.48-2.741 0-1.835-1.045-2.787-3.268-2.787h-3.754v9.848h1.253zm2.247-4.438c1.111 0 2.27.3 2.27 1.626 0 1.07-.51 1.696-2.225 1.696h-2.292V12.67z"/><path fill="#0068b4" d="M89.882 0 78.876 11.03l11.006 11.026 11.002-11.026z"/><path fill="#000" d="M83.854 25.585V73.52l11.773-.74v-48.31z"/></g></svg>