<svg xmlns="http://www.w3.org/2000/svg" viewBox="0 0 520 160">
  <defs>
    <clipPath id="shield-clip-light">
      <path d="M70 10 C70 10, 125 25, 128 28 C131 31, 131 100, 70 145 C9 100, 9 31, 12 28 C15 25, 70 10, 70 10Z"/>
    </clipPath>
  </defs>
  <path d="M70 10 C70 10, 125 25, 128 28 C131 31, 131 100, 70 145 C9 100, 9 31, 12 28 C15 25, 70 10, 70 10Z" fill="#3BB98C"/>
  <rect x="70" y="10" width="62" height="135" fill="#2FA67A" clip-path="url(#shield-clip-light)"/>
  <polyline points="40,75 60,95 103,47" fill="none" stroke="white" stroke-width="12" stroke-linecap="round" stroke-linejoin="round"/>
  <g transform="translate(110, 108)">
    <rect x="-9" y="-3" width="18" height="15" rx="2.5" fill="#3BB98C"/>
    <path d="M-5,-3 L-5,-8 C-5,-13 5,-13 5,-8 L5,-3" fill="none" stroke="#3BB98C" stroke-width="3" stroke-linecap="round"/>
    <circle cx="0" cy="5" r="2.2" fill="white"/>
    <rect x="-0.8" y="5" width="1.6" height="4" fill="white"/>
  </g>
  <text x="160" y="100" font-family="Inter, -apple-system, BlinkMacSystemFont, 'Segoe UI', sans-serif" font-size="58" font-weight="600" fill="#1a1a2e" letter-spacing="-1">FixMyCert</text>
</svg>
