<?xml version="1.0" encoding="utf-8"?>
<!-- Generator: Adobe Illustrator 19.0.0, SVG Export Plug-In . SVG Version: 6.00 Build 0)  -->
<svg version="1.1" id="Layer_1" 
  xmlns="http://www.w3.org/2000/svg" 
  xmlns:xlink="http://www.w3.org/1999/xlink" x="0px" y="0px" viewBox="104 234.3 1124 324.7" style="enable-background:new 104 234.3 1124 324.7;" xml:space="preserve">
  <style type="text/css">
	.st0{fill:#FFFFFF;}
	.st1{fill:url(#SVGID_1_);}
	.st2{fill:url(#SVGID_2_);}
	.st3{fill:url(#SVGID_3_);}
	.st4{fill:url(#SVGID_4_);}
	.st5{fill:url(#SVGID_5_);}
	.st6{fill:url(#SVGID_6_);}
</style>
  <title>Asset 15</title>
  <g>
    <path class="st0" d="M590.8,351.9c0,8.2-2.9,14.8-8.7,19.9c-5.8,5.1-13,7.7-21.6,7.7h-39.5v-94.1h36.8c8.5,0,15.5,2.6,21.1,7.5
		c5.8,5,8.6,11.4,8.6,19.4c0,7.5-2.7,13.7-8.2,18.4C586.9,335.6,590.8,342.7,590.8,351.9z M542.4,305.5v16.7h15.3
		c4.8,0,8.2-3.5,8.2-8.4c0-4.8-3.4-8.3-8.2-8.3H542.4z M560.4,359.3c5.4,0,8.9-3.6,8.9-9s-3.5-9-8.9-9h-18v18
		C542.4,359.3,560.4,359.3,560.4,359.3z"/>
    <path class="st0" d="M599.2,377.6c-5-5-5-13,0-18s13-5,18,0s5,13,0,18S604.2,382.6,599.2,377.6z"/>
    <path class="st0" d="M656.6,358.8h37.7v20.7h-59.2v-94.1h58.5v20.7h-37v15.6h33.6v20.4h-33.6L656.6,358.8L656.6,358.8z"/>
    <path class="st0" d="M701.6,358.1l18.6-10.7c3.8,8.7,10.3,13,19.7,13c8.5,0,12.8-2.6,12.8-7.7c0-2.8-1.3-5-4.2-6.5
		c-2.7-1.6-7.8-3.5-15.3-5.5c-7.9-2.2-13.3-4.6-19.1-8.9c-5.5-4.5-8.6-11.2-8.6-19.7c0-8.7,3.1-15.6,9.3-20.9
		c6.3-5.2,13.7-7.8,22.3-7.8c15.5,0,27.6,7.4,34.4,21.3l-18.1,10.6c-3.4-7.1-8.1-10.9-16.3-10.9c-6.4,0-10.1,3.2-10.1,7.1
		c0,2.3,1.1,4.3,3.2,6.1c2.3,1.7,6.8,3.6,13.7,5.6l8.7,2.8c2,0.7,4.7,1.9,7.8,3.6c3.2,1.6,5.6,3.4,7.3,5.2c3.4,3.6,6.5,9.8,6.5,17.5
		c0,9-3.2,16-9.7,21.3c-6.4,5.1-14.9,7.7-25.3,7.7C720.1,381.4,707,372.5,701.6,358.1z"/>
    <path class="st0" d="M844.8,285.4v20.7h-24.2v73.4h-21.5v-73.4h-24.2v-20.7H844.8z"/>
    <path class="st0" d="M516.1,470.1l18.6-10.7c3.8,8.7,10.3,13,19.7,13c8.5,0,12.8-2.6,12.8-7.7c0-2.8-1.3-5-4.2-6.5
		c-2.7-1.6-7.8-3.5-15.3-5.5c-7.9-2.2-13.3-4.6-19.1-8.9c-5.5-4.5-8.6-11.2-8.6-19.7c0-8.7,3.1-15.6,9.3-20.9
		c6.3-5.2,13.7-7.8,22.3-7.8c15.5,0,27.6,7.4,34.4,21.3l-18.1,10.6c-3.4-7.1-8.1-10.9-16.3-10.9c-6.4,0-10.1,3.2-10.1,7.1
		c0,2.3,1.1,4.3,3.2,6.1c2.3,1.7,6.8,3.6,13.7,5.6l8.7,2.8c2,0.7,4.7,1.9,7.8,3.6c3.2,1.6,5.6,3.4,7.3,5.2c3.4,3.6,6.5,9.8,6.5,17.5
		c0,9-3.2,16-9.7,21.3c-6.4,5.1-14.9,7.7-25.3,7.7C534.5,493.4,521.5,484.5,516.1,470.1z"/>
    <path class="st0" d="M643.7,493.4c-13.6,0-25.2-4.7-34.7-14.1c-9.6-9.4-14.2-21-14.2-34.8c0-13.9,4.7-25.4,14.2-34.8
		s21.1-14.1,34.7-14.1c13.6,0,25.1,4.7,34.7,14.1s14.2,21,14.2,34.8c0,13.9-4.7,25.4-14.2,34.8C668.8,488.7,657.3,493.4,643.7,493.4
		z M643.7,472.4c7.8,0,14.2-2.6,19.5-7.8s7.9-12,7.9-20.2c0-8.2-2.7-14.9-7.9-20.2s-11.7-7.8-19.5-7.8c-7.8,0-14.4,2.6-19.6,7.8
		s-7.8,12-7.8,20.2c0,8.2,2.6,14.9,7.8,20.2S635.9,472.4,643.7,472.4z"/>
    <path class="st0" d="M726.2,470.8h33.6v20.7h-55.1v-94.2h21.5V470.8z"/>
    <path class="st0" d="M767.2,397.4h21.5v61.9c0,8.7,5,13.2,14.8,13.2c9.8,0,14.8-4.5,14.8-13.2v-61.9h21.5v63.8
		c0,9.8-3.4,17.7-10.2,23.5c-6.8,5.8-15.5,8.7-26.1,8.7c-10.6,0-19.2-2.9-26.1-8.7c-6.8-5.8-10.2-13.7-10.2-23.5L767.2,397.4
		L767.2,397.4z"/>
    <path class="st0" d="M918.4,397.4v20.7h-24.2v73.4h-21.5v-73.4h-24.2v-20.7C848.5,397.4,918.4,397.4,918.4,397.4z"/>
    <path class="st0" d="M927.8,397.4h21.5v94.1h-21.5V397.4z"/>
    <path class="st0" d="M1010.4,493.4c-13.6,0-25.2-4.7-34.7-14.1c-9.6-9.4-14.2-21-14.2-34.8c0-13.9,4.7-25.4,14.2-34.8
		s21.1-14.1,34.7-14.1c13.6,0,25.1,4.7,34.7,14.1s14.2,21,14.2,34.8c0,13.9-4.7,25.4-14.2,34.8
		C1035.5,488.7,1024,493.4,1010.4,493.4z M1010.4,472.4c7.8,0,14.2-2.6,19.5-7.8c5.2-5.2,7.9-12,7.9-20.2c0-8.2-2.7-14.9-7.9-20.2
		c-5.2-5.2-11.7-7.8-19.5-7.8c-7.8,0-14.4,2.6-19.6,7.8s-7.8,12-7.8,20.2c0,8.2,2.6,14.9,7.8,20.2S1002.6,472.4,1010.4,472.4z"/>
    <path class="st0" d="M1123.8,397.4h21.5v94.1h-16.1l-36.3-51.1v51.1h-21.5v-94.1h16.1l36.3,51.1V397.4z"/>
    <path class="st0" d="M1155.4,470.1l18.6-10.7c3.8,8.7,10.3,13,19.7,13c8.5,0,12.8-2.6,12.8-7.7c0-2.8-1.3-5-4.2-6.5
		c-2.7-1.6-7.8-3.5-15.3-5.5c-7.9-2.2-13.3-4.6-19.1-8.9c-5.5-4.5-8.6-11.2-8.6-19.7c0-8.7,3.1-15.6,9.3-20.9
		c6.3-5.2,13.7-7.8,22.3-7.8c15.5,0,27.6,7.4,34.4,21.3l-18.1,10.6c-3.4-7.1-8.1-10.9-16.3-10.9c-6.4,0-10.1,3.2-10.1,7.1
		c0,2.3,1.1,4.3,3.2,6.1c2.3,1.7,6.8,3.6,13.7,5.6l8.7,2.8c2,0.7,4.7,1.9,7.8,3.6c3.2,1.6,5.6,3.4,7.3,5.2c3.4,3.6,6.5,9.8,6.5,17.5
		c0,9-3.2,16-9.7,21.3c-6.4,5.1-14.9,7.7-25.3,7.7C1173.8,493.4,1160.8,484.5,1155.4,470.1z"/>
  </g>
  <g>
    <g>
      <linearGradient id="SVGID_1_" gradientUnits="userSpaceOnUse" x1="-241.1484" y1="261.3804" x2="734.6471" y2="419.0238" gradientTransform="matrix(1 0 0 -1 0 794.62)">
        <stop offset="0" style="stop-color:#9463FF"/>
        <stop offset="0.2619" style="stop-color:#9E1FED"/>
        <stop offset="0.6082" style="stop-color:#DB007C"/>
        <stop offset="0.6665" style="stop-color:#DD0872"/>
        <stop offset="0.7673" style="stop-color:#E31D56"/>
        <stop offset="0.8975" style="stop-color:#ED3F28"/>
        <stop offset="1" style="stop-color:#F55E00"/>
      </linearGradient>
      <path class="st1" d="M219.2,468.6c-6.5-4.3-12.5-9.2-17.7-15c0,0,0,0,0,0c-7.2-7.9-13-17-16.9-27.1c-2.9,9.8-7.1,18.9-11.8,26.9
			c4.8,7.6,10.6,14.4,17,20.6c0,0.1,0.1,0,0,0c0.8,0.8,1.6,1.5,2.4,2.3c1.5,1.4,3,2.8,4.6,4c2.8,2.3,5.7,4.5,8.8,6.6
			c5.2,3.5,10.7,6.6,16.5,9.2c5.1-6.8,9-14,11.7-19.8C228.8,474.2,223.9,471.6,219.2,468.6L219.2,468.6z"/>
      <linearGradient id="SVGID_2_" gradientUnits="userSpaceOnUse" x1="-152.7931" y1="240.902" x2="679.5527" y2="375.371" gradientTransform="matrix(1 0 0 -1 0 794.62)">
        <stop offset="0" style="stop-color:#9463FF"/>
        <stop offset="0.2619" style="stop-color:#9E1FED"/>
        <stop offset="0.6082" style="stop-color:#DB007C"/>
        <stop offset="0.6665" style="stop-color:#DD0872"/>
        <stop offset="0.7673" style="stop-color:#E31D56"/>
        <stop offset="0.8975" style="stop-color:#ED3F28"/>
        <stop offset="1" style="stop-color:#F55E00"/>
      </linearGradient>
      <path class="st2" d="M325.4,459c-6.9,6.5-15,11.8-23.7,15.8c0.8,7.3,2.9,14.6,6.5,21.9c6.8-2.8,13.5-6.2,19.5-10.3
			C324.9,474.6,325,464.2,325.4,459z"/>
    </g>
    <g>
      <linearGradient id="SVGID_3_" gradientUnits="userSpaceOnUse" x1="461.0091" y1="413.6528" x2="177.2082" y2="331.0003" gradientTransform="matrix(1 0 0 -1 0 794.62)">
        <stop offset="0" style="stop-color:#9463FF"/>
        <stop offset="0.2619" style="stop-color:#9E1FED"/>
        <stop offset="0.6082" style="stop-color:#DB007C"/>
        <stop offset="0.6665" style="stop-color:#DD0872"/>
        <stop offset="0.7673" style="stop-color:#E31D56"/>
        <stop offset="0.8975" style="stop-color:#ED3F28"/>
        <stop offset="1" style="stop-color:#F55E00"/>
      </linearGradient>
      <path class="st3" d="M286.3,465.4c0-14.4,3.9-27.9,10.4-39.6c26.2-44.8,68.9-78.8,119.7-93.4c-3-7.1-6.6-13.9-10.6-20.4
			c-39.9,12.4-75.1,35.4-102.2,65.9c-6.7-14.1-21-24-37.7-24c-19.4,0-35.6,13.4-40.3,31.3c-13-7.8-27.9-12.3-43.8-12.6
			c1.7-6.3,4.2-12.4,7.3-18.1c-6.1-5.1-11.6-10.8-16.3-17.2c-7.3,11.5-12.4,24.4-15,38c-0.6,3.6-1,6.6-1.3,9.4c0,0.1,0,0.2,0,0.3h0
			c-0.6,5.4-0.7,9.8-0.8,14.9l4.4-1.6c6.3-2,13.1-3.1,19.8-3.1c31.3,0,58.1,21.6,65.3,52.6c3.8,16.6,3,33.2,1.6,53
			c-0.6,8.5-1,17.5-0.9,26.6c0,7.5,0.6,15,1.3,22.1c0.2,1.8,0.5,3.6,0.6,5.4c0.1,1,0.3,1.9,0.4,2.8c5.8,0.6,11.7,1,17.7,1
			c1.8,0,3.6-0.2,5.4-0.3c-0.3-2.1-0.7-4.1-1-6.2c-0.2-1.6-0.5-3.2-0.6-4.9c-0.6-6.4-1-12.8-1-19.3c0-8.6,0.7-17,1.7-25.3
			c7.7,20.2,21.4,37.6,39.3,49.8c9.7-2.8,19.1-6.3,28-10.7C306.9,529.2,286.3,499.2,286.3,465.4z M265.9,414.5c-10.5,0-19-8.5-19-19
			s8.5-19,19-19c10.5,0,19,8.5,19,19C284.9,406,276.4,414.5,265.9,414.5z"/>
      <linearGradient id="SVGID_4_" gradientUnits="userSpaceOnUse" x1="363.8327" y1="487.0285" x2="98.9904" y2="487.0285" gradientTransform="matrix(1 0 0 -1 0 794.62)">
        <stop offset="0" style="stop-color:#9463FF"/>
        <stop offset="0.2619" style="stop-color:#9E1FED"/>
        <stop offset="0.6082" style="stop-color:#DB007C"/>
        <stop offset="0.6665" style="stop-color:#DD0872"/>
        <stop offset="0.7673" style="stop-color:#E31D56"/>
        <stop offset="0.8975" style="stop-color:#ED3F28"/>
        <stop offset="1" style="stop-color:#F55E00"/>
      </linearGradient>
      <path class="st4" d="M195.1,311.8c2.6,4.5,8.2,12.5,13.9,17.4c0,0,0.1,0,0.1,0.1c15.2-13.1,35-21.1,56.7-21.1
			c13.3,0,25.9,3.1,37.2,8.5c5.5-7.3,8.8-16.2,9.8-20.2c-14.2-6.8-30.1-10.7-47-10.7C238.9,285.8,214.2,295.7,195.1,311.8z"/>
      <linearGradient id="SVGID_5_" gradientUnits="userSpaceOnUse" x1="267.8182" y1="572.5221" x2="159.8412" y2="403.4476" gradientTransform="matrix(1 0 0 -1 0 794.62)">
        <stop offset="0" style="stop-color:#9463FF"/>
        <stop offset="0.2619" style="stop-color:#9E1FED"/>
        <stop offset="0.6082" style="stop-color:#DB007C"/>
        <stop offset="0.6665" style="stop-color:#DD0872"/>
        <stop offset="0.7673" style="stop-color:#E31D56"/>
        <stop offset="0.8975" style="stop-color:#ED3F28"/>
        <stop offset="1" style="stop-color:#F55E00"/>
      </linearGradient>
      <path class="st5" d="M172.8,337.1c-7.3,11.5-12.4,24.4-15,38c-0.6,3.6-1,6.6-1.3,9.4c0,0.1,0,0.2,0,0.3h0
			c-0.6,5.4-0.7,9.8-0.8,14.9l4.4-1.6c6-1.8,12.4-3,18.7-3.1c0-7.9,1.1-15.4,3.1-22.6c0,0,0,0-0.1,0c0.1-0.4,0.3-0.8,0.4-1.1
			c0.7-2.6,1.6-5.1,2.6-7.6c0.4-1,0.8-1.9,1.2-2.9c1-2.2,2-4.3,3.1-6.4C183,349.4,177.6,343.5,172.8,337.1z"/>
    </g>
    <linearGradient id="SVGID_6_" gradientUnits="userSpaceOnUse" x1="824.6255" y1="403.8722" x2="29.4743" y2="403.8722" gradientTransform="matrix(1 0 0 -1 0 794.62)">
      <stop offset="0.3566" style="stop-color:#0F93FF"/>
      <stop offset="0.8031" style="stop-color:#9E1FED"/>
      <stop offset="1" style="stop-color:#DB007C"/>
    </linearGradient>
    <path class="st6" d="M201.5,453.6c5.1-10,9.7-20.3,13.5-31c8.3,8.7,12.7,19.5,14.7,24.7c-3.2,7.3-6.7,14.5-10.5,21.4
		C212.8,464.3,206.7,459.4,201.5,453.6z M292.9,341.2c-1.1-6.1-1.8-12.2-2.2-18.5c-6.9-2.4-14.1-3.9-22.9-4.1c0,6.6,0.6,13,1.4,19.4
		c13.8,0.8,26.2,6.4,35.7,15.3c6.9-7.3,16.1-17.2,30.8-25.9c2.1-3.8,4-7.7,5.7-11.2l0,0c4.6-11.3,7.2-23.7,7.2-36.7
		c0-9.4-1.6-18.4-4.1-27c-9.6-5.3-19.8-9.7-30.5-13c7.4,11.6,11.8,25.3,11.8,40C325.9,305.3,312.7,327.8,292.9,341.2z M150.2,364.1
		c2.6-9.6,6.4-18.8,11.3-27.4c-8.2-12.4-19.1-22.9-31.7-31c-4.2,6.3-7.8,13-11.1,19.8C132.8,334.9,143.9,348.2,150.2,364.1z
		 M189.2,354.5c10.5,1.2,21.7,4.7,29.4,8.7c7.8-11.6,19.7-20.2,33.8-23.7c0-0.5,0-0.9,0-1.4c0-6-0.5-11.9-0.9-17.8
		c-8.5,1.3-16.6,4.8-22.4,7.7c0.1,3.4,0.5,6.7,0.5,10.1c0,4.2-0.4,8.3-0.6,12.4c-30.3-9.5-52.5-37.6-52.5-71
		c0-7.9,1.3-15.5,3.7-22.7c-9.5,5.9-18.2,12.6-26.3,20.2c0,0.8-0.1,1.7-0.1,2.5C153.8,309.7,167.7,336.6,189.2,354.5z M363.4,480.7
		c-4-1.6-8.2-3.4-12.8-5.6c-2.1-1.1-4-2.1-5.8-3.1c-2.2-1.2-4.2-2.5-6.2-3.7c0,2.6,0.3,5.6,0.7,8.7c0,0,0,0.1,0,0.2l0,0
		c0.4,2.6,0.8,5.4,1.5,8.3c0.2,0.9,0.4,1.8,0.7,2.7c0.2,0.8,0.5,1.6,0.7,2.3c4.4,13.5,12.4,25.3,22.7,34.5c6.2-4.7,12-9.8,17.5-15.3
		C373.4,502.2,366.6,492.3,363.4,480.7z M145.2,404.8c0.2-6.7,0.6-14.5,1.1-21c0.2-1.8,0.5-3.4,0.7-5.2c-18,7.2-32.9,20.1-43,36.3
		c1.6,13.6,5,26.6,9.7,39C116.3,433.4,128.4,415.3,145.2,404.8z M411,408.3c-5.8-4.3-19.1-12-32.3-12.4c-1.5,0.7-3.9,2.2-5.3,3
		c-11.7,8-21.1,19.1-27.3,32c-7.7-6.1-14.8-13-21.2-20.5c-1.7,2.2-3.5,4.4-5.3,6.7c-2.9,3.8-5.7,8-8.2,12.6
		c8.3,9.1,17.6,17.3,27.7,24.4c0,0.1-0.1-0.2-0.2-0.1c6.2,4.4,13.8,9.2,22.3,13.4c13.4,6.7,27.9,11.4,43.1,14.3
		c4.2-6.7,8-13.7,11.2-21c-18-2.5-34.9-8.5-50.2-17C373,425,390.2,411.2,411,408.3z M231.1,510.7c0.1-2.5,0.3-4.8,0.6-7.1
		c-12.2,15.2-30.7,24.9-51.7,24.9c-1.2,0-2.4-0.3-3.6-0.4c9.1-9.6,17.6-19.8,25.3-30.7c-6.7-4.1-12.9-8.9-18.2-13.8
		c-8.1,11.6-17.4,22.2-27.3,32.2c14.5,13.2,31.3,23.9,49.8,31.2c9-2.8,17.3-6.8,24.9-11.9C230.6,527.3,230.6,519,231.1,510.7z
		 M162.9,450.6c1.6-2.5,2.9-5.1,4.3-7.7c0,0.1-0.1,0,0,0.1c4.5-8.2,8.4-18.4,11-32.8c-10.5,1-19.3,4.2-25.8,7.5
		c-5.6,19.2-18,35.5-34.4,46.2c3.2,6.9,6.8,13.5,10.9,19.9c13.2-8.2,24.7-18.8,33.2-31.8C162.3,451.5,162.6,451.1,162.9,450.6z
		 M293.3,289.5c0-0.1,0.1-0.4,0.1-0.5c3.6-18,10.6-34.7,20.2-49.6c-7.6-2.3-15.4-3.9-23.4-5.1c-9.1,15.8-15.8,33.1-19.3,51.5
		c0,0,0,0.1,0,0.1C278.6,286.3,286.1,287.5,293.3,289.5z M232.7,235.7c-7.6,1.6-15,3.9-22.2,6.5c6.7,16.3,11.8,33.4,15,51.2
		c0,0,0,0.1,0,0.2c7.1-2.8,14.5-4.9,22.2-6.2C244.5,269.4,239.3,252.2,232.7,235.7z M352.1,382.5c39.6-4.9,66.3,13.5,76.4,25.5
		c0.3-4.1,0.6-8.3,0.6-12.4c0-5.6-0.3-11.3-0.9-16.8c-12.9-8.9-27.7-15.1-43.8-17.5C372.5,367.4,362,374.3,352.1,382.5z"/>
  </g>
</svg>
