<svg xmlns="http://www.w3.org/2000/svg" xml:space="preserve" viewBox="104 234.3 1124 324.7"><title>B.EST solutions</title><linearGradient id="a" x1="-169.655" x2="1686.244" y1="274.145" y2="763.737" gradientTransform="matrix(1 0 0 -1 0 794.62)" gradientUnits="userSpaceOnUse"><stop offset=".3" style="stop-color:#0f93ff"/><stop offset=".361" style="stop-color:#2a7dfc"/><stop offset=".484" style="stop-color:#5c55f5"/><stop offset=".592" style="stop-color:#8037f1"/><stop offset=".679" style="stop-color:#9626ee"/><stop offset=".736" style="stop-color:#9e1fed"/><stop offset="1" style="stop-color:#db007c"/></linearGradient><path d="M590.8 351.9c0 8.2-2.9 14.8-8.7 19.9s-13 7.7-21.6 7.7H521v-94.1h36.8c8.5 0 15.5 2.6 21.1 7.5 5.8 5 8.6 11.4 8.6 19.4 0 7.5-2.7 13.7-8.2 18.4 7.6 4.9 11.5 12 11.5 21.2m-48.4-46.4v16.7h15.3c4.8 0 8.2-3.5 8.2-8.4 0-4.8-3.4-8.3-8.2-8.3zm18 53.8c5.4 0 8.9-3.6 8.9-9s-3.5-9-8.9-9h-18v18z" style="fill:url(#a)"/><linearGradient id="b" x1="-156.5" x2="1699.399" y1="224.274" y2="713.868" gradientTransform="matrix(1 0 0 -1 0 794.62)" gradientUnits="userSpaceOnUse"><stop offset=".3" style="stop-color:#0f93ff"/><stop offset=".361" style="stop-color:#2a7dfc"/><stop offset=".484" style="stop-color:#5c55f5"/><stop offset=".592" style="stop-color:#8037f1"/><stop offset=".679" style="stop-color:#9626ee"/><stop offset=".736" style="stop-color:#9e1fed"/><stop offset="1" style="stop-color:#db007c"/></linearGradient><path d="M599.2 377.6c-5-5-5-13 0-18s13-5 18 0 5 13 0 18c-4.9 5-13 5-18 0" style="fill:url(#b)"/><linearGradient id="c" x1="-161.748" x2="1694.151" y1="244.169" y2="733.762" gradientTransform="matrix(1 0 0 -1 0 794.62)" gradientUnits="userSpaceOnUse"><stop offset=".3" style="stop-color:#0f93ff"/><stop offset=".361" style="stop-color:#2a7dfc"/><stop offset=".484" style="stop-color:#5c55f5"/><stop offset=".592" style="stop-color:#8037f1"/><stop offset=".679" style="stop-color:#9626ee"/><stop offset=".736" style="stop-color:#9e1fed"/><stop offset="1" style="stop-color:#db007c"/></linearGradient><path d="M656.6 358.8h37.7v20.7h-59.2v-94.1h58.5v20.7h-37v15.6h33.6v20.4h-33.6z" style="fill:url(#c)"/><linearGradient id="d" x1="-156.917" x2="1698.982" y1="225.857" y2="715.45" gradientTransform="matrix(1 0 0 -1 0 794.62)" gradientUnits="userSpaceOnUse"><stop offset=".3" style="stop-color:#0f93ff"/><stop offset=".361" style="stop-color:#2a7dfc"/><stop offset=".484" style="stop-color:#5c55f5"/><stop offset=".592" style="stop-color:#8037f1"/><stop offset=".679" style="stop-color:#9626ee"/><stop offset=".736" style="stop-color:#9e1fed"/><stop offset="1" style="stop-color:#db007c"/></linearGradient><path d="m701.6 358.1 18.6-10.7c3.8 8.7 10.3 13 19.7 13 8.5 0 12.8-2.6 12.8-7.7 0-2.8-1.3-5-4.2-6.5-2.7-1.6-7.8-3.5-15.3-5.5-7.9-2.2-13.3-4.6-19.1-8.9-5.5-4.5-8.6-11.2-8.6-19.7 0-8.7 3.1-15.6 9.3-20.9 6.3-5.2 13.7-7.8 22.3-7.8 15.5 0 27.6 7.4 34.4 21.3l-18.1 10.6c-3.4-7.1-8.1-10.9-16.3-10.9-6.4 0-10.1 3.2-10.1 7.1 0 2.3 1.1 4.3 3.2 6.1 2.3 1.7 6.8 3.6 13.7 5.6l8.7 2.8c2 .7 4.7 1.9 7.8 3.6 3.2 1.6 5.6 3.4 7.3 5.2 3.4 3.6 6.5 9.8 6.5 17.5 0 9-3.2 16-9.7 21.3-6.4 5.1-14.9 7.7-25.3 7.7-19.1.1-32.2-8.8-37.6-23.2" style="fill:url(#d)"/><linearGradient id="e" x1="-153.089" x2="1702.81" y1="211.346" y2="700.938" gradientTransform="matrix(1 0 0 -1 0 794.62)" gradientUnits="userSpaceOnUse"><stop offset=".3" style="stop-color:#0f93ff"/><stop offset=".361" style="stop-color:#2a7dfc"/><stop offset=".484" style="stop-color:#5c55f5"/><stop offset=".592" style="stop-color:#8037f1"/><stop offset=".679" style="stop-color:#9626ee"/><stop offset=".736" style="stop-color:#9e1fed"/><stop offset="1" style="stop-color:#db007c"/></linearGradient><path d="M844.8 285.4v20.7h-24.2v73.4h-21.5v-73.4h-24.2v-20.7z" style="fill:url(#e)"/><linearGradient id="f" x1="-141.355" x2="1714.544" y1="166.865" y2="656.458" gradientTransform="matrix(1 0 0 -1 0 794.62)" gradientUnits="userSpaceOnUse"><stop offset=".3" style="stop-color:#0f93ff"/><stop offset=".361" style="stop-color:#2a7dfc"/><stop offset=".484" style="stop-color:#5c55f5"/><stop offset=".592" style="stop-color:#8037f1"/><stop offset=".679" style="stop-color:#9626ee"/><stop offset=".736" style="stop-color:#9e1fed"/><stop offset="1" style="stop-color:#db007c"/></linearGradient><path d="m516.1 470.1 18.6-10.7c3.8 8.7 10.3 13 19.7 13 8.5 0 12.8-2.6 12.8-7.7 0-2.8-1.3-5-4.2-6.5-2.7-1.6-7.8-3.5-15.3-5.5-7.9-2.2-13.3-4.6-19.1-8.9-5.5-4.5-8.6-11.2-8.6-19.7 0-8.7 3.1-15.6 9.3-20.9 6.3-5.2 13.7-7.8 22.3-7.8 15.5 0 27.6 7.4 34.4 21.3l-18.1 10.6c-3.4-7.1-8.1-10.9-16.3-10.9-6.4 0-10.1 3.2-10.1 7.1 0 2.3 1.1 4.3 3.2 6.1 2.3 1.7 6.8 3.6 13.7 5.6l8.7 2.8c2 .7 4.7 1.9 7.8 3.6 3.2 1.6 5.6 3.4 7.3 5.2 3.4 3.6 6.5 9.8 6.5 17.5 0 9-3.2 16-9.7 21.3-6.4 5.1-14.9 7.7-25.3 7.7-19.2.1-32.2-8.8-37.6-23.2" style="fill:url(#f)"/><linearGradient id="g" x1="-135.477" x2="1720.422" y1="144.583" y2="634.176" gradientTransform="matrix(1 0 0 -1 0 794.62)" gradientUnits="userSpaceOnUse"><stop offset=".3" style="stop-color:#0f93ff"/><stop offset=".361" style="stop-color:#2a7dfc"/><stop offset=".484" style="stop-color:#5c55f5"/><stop offset=".592" style="stop-color:#8037f1"/><stop offset=".679" style="stop-color:#9626ee"/><stop offset=".736" style="stop-color:#9e1fed"/><stop offset="1" style="stop-color:#db007c"/></linearGradient><path d="M643.7 493.4c-13.6 0-25.2-4.7-34.7-14.1-9.6-9.4-14.2-21-14.2-34.8 0-13.9 4.7-25.4 14.2-34.8s21.1-14.1 34.7-14.1 25.1 4.7 34.7 14.1 14.2 21 14.2 34.8c0 13.9-4.7 25.4-14.2 34.8-9.6 9.4-21.1 14.1-34.7 14.1m0-21c7.8 0 14.2-2.6 19.5-7.8s7.9-12 7.9-20.2-2.7-14.9-7.9-20.2-11.7-7.8-19.5-7.8-14.4 2.6-19.6 7.8-7.8 12-7.8 20.2 2.6 14.9 7.8 20.2 11.8 7.8 19.6 7.8" style="fill:url(#g)"/><linearGradient id="h" x1="-129.725" x2="1726.174" y1="122.781" y2="612.374" gradientTransform="matrix(1 0 0 -1 0 794.62)" gradientUnits="userSpaceOnUse"><stop offset=".3" style="stop-color:#0f93ff"/><stop offset=".361" style="stop-color:#2a7dfc"/><stop offset=".484" style="stop-color:#5c55f5"/><stop offset=".592" style="stop-color:#8037f1"/><stop offset=".679" style="stop-color:#9626ee"/><stop offset=".736" style="stop-color:#9e1fed"/><stop offset="1" style="stop-color:#db007c"/></linearGradient><path d="M726.2 470.8h33.6v20.7h-55.1v-94.2h21.5z" style="fill:url(#h)"/><linearGradient id="i" x1="-125.837" x2="1730.062" y1="108.04" y2="597.633" gradientTransform="matrix(1 0 0 -1 0 794.62)" gradientUnits="userSpaceOnUse"><stop offset=".3" style="stop-color:#0f93ff"/><stop offset=".361" style="stop-color:#2a7dfc"/><stop offset=".484" style="stop-color:#5c55f5"/><stop offset=".592" style="stop-color:#8037f1"/><stop offset=".679" style="stop-color:#9626ee"/><stop offset=".736" style="stop-color:#9e1fed"/><stop offset="1" style="stop-color:#db007c"/></linearGradient><path d="M767.2 397.4h21.5v61.9c0 8.7 5 13.2 14.8 13.2s14.8-4.5 14.8-13.2v-61.9h21.5v63.8c0 9.8-3.4 17.7-10.2 23.5q-10.2 8.7-26.1 8.7c-10.6 0-19.2-2.9-26.1-8.7s-10.2-13.7-10.2-23.5z" style="fill:url(#i)"/><linearGradient id="j" x1="-120.68" x2="1735.219" y1="88.495" y2="578.088" gradientTransform="matrix(1 0 0 -1 0 794.62)" gradientUnits="userSpaceOnUse"><stop offset=".3" style="stop-color:#0f93ff"/><stop offset=".361" style="stop-color:#2a7dfc"/><stop offset=".484" style="stop-color:#5c55f5"/><stop offset=".592" style="stop-color:#8037f1"/><stop offset=".679" style="stop-color:#9626ee"/><stop offset=".736" style="stop-color:#9e1fed"/><stop offset="1" style="stop-color:#db007c"/></linearGradient><path d="M918.4 397.4v20.7h-24.2v73.4h-21.5v-73.4h-24.2v-20.7z" style="fill:url(#j)"/><linearGradient id="k" x1="-116.307" x2="1739.592" y1="71.916" y2="561.509" gradientTransform="matrix(1 0 0 -1 0 794.62)" gradientUnits="userSpaceOnUse"><stop offset=".3" style="stop-color:#0f93ff"/><stop offset=".361" style="stop-color:#2a7dfc"/><stop offset=".484" style="stop-color:#5c55f5"/><stop offset=".592" style="stop-color:#8037f1"/><stop offset=".679" style="stop-color:#9626ee"/><stop offset=".736" style="stop-color:#9e1fed"/><stop offset="1" style="stop-color:#db007c"/></linearGradient><path d="M927.8 397.4h21.5v94.1h-21.5z" style="fill:url(#k)"/><linearGradient id="l" x1="-111.62" x2="1744.279" y1="54.148" y2="543.741" gradientTransform="matrix(1 0 0 -1 0 794.62)" gradientUnits="userSpaceOnUse"><stop offset=".3" style="stop-color:#0f93ff"/><stop offset=".361" style="stop-color:#2a7dfc"/><stop offset=".484" style="stop-color:#5c55f5"/><stop offset=".592" style="stop-color:#8037f1"/><stop offset=".679" style="stop-color:#9626ee"/><stop offset=".736" style="stop-color:#9e1fed"/><stop offset="1" style="stop-color:#db007c"/></linearGradient><path d="M1010.4 493.4c-13.6 0-25.2-4.7-34.7-14.1-9.6-9.4-14.2-21-14.2-34.8 0-13.9 4.7-25.4 14.2-34.8s21.1-14.1 34.7-14.1 25.1 4.7 34.7 14.1 14.2 21 14.2 34.8c0 13.9-4.7 25.4-14.2 34.8-9.6 9.4-21.1 14.1-34.7 14.1m0-21c7.8 0 14.2-2.6 19.5-7.8 5.2-5.2 7.9-12 7.9-20.2s-2.7-14.9-7.9-20.2q-7.8-7.8-19.5-7.8c-7.8 0-14.4 2.6-19.6 7.8s-7.8 12-7.8 20.2 2.6 14.9 7.8 20.2 11.8 7.8 19.6 7.8" style="fill:url(#l)"/><linearGradient id="m" x1="-105.26" x2="1750.639" y1="30.041" y2="519.634" gradientTransform="matrix(1 0 0 -1 0 794.62)" gradientUnits="userSpaceOnUse"><stop offset=".3" style="stop-color:#0f93ff"/><stop offset=".361" style="stop-color:#2a7dfc"/><stop offset=".484" style="stop-color:#5c55f5"/><stop offset=".592" style="stop-color:#8037f1"/><stop offset=".679" style="stop-color:#9626ee"/><stop offset=".736" style="stop-color:#9e1fed"/><stop offset="1" style="stop-color:#db007c"/></linearGradient><path d="M1123.8 397.4h21.5v94.1h-16.1l-36.3-51.1v51.1h-21.5v-94.1h16.1l36.3 51.1z" style="fill:url(#m)"/><linearGradient id="n" x1="-99.762" x2="1756.137" y1="9.2" y2="498.793" gradientTransform="matrix(1 0 0 -1 0 794.62)" gradientUnits="userSpaceOnUse"><stop offset=".3" style="stop-color:#0f93ff"/><stop offset=".361" style="stop-color:#2a7dfc"/><stop offset=".484" style="stop-color:#5c55f5"/><stop offset=".592" style="stop-color:#8037f1"/><stop offset=".679" style="stop-color:#9626ee"/><stop offset=".736" style="stop-color:#9e1fed"/><stop offset="1" style="stop-color:#db007c"/></linearGradient><path d="m1155.4 470.1 18.6-10.7c3.8 8.7 10.3 13 19.7 13 8.5 0 12.8-2.6 12.8-7.7 0-2.8-1.3-5-4.2-6.5-2.7-1.6-7.8-3.5-15.3-5.5-7.9-2.2-13.3-4.6-19.1-8.9-5.5-4.5-8.6-11.2-8.6-19.7 0-8.7 3.1-15.6 9.3-20.9 6.3-5.2 13.7-7.8 22.3-7.8 15.5 0 27.6 7.4 34.4 21.3l-18.1 10.6c-3.4-7.1-8.1-10.9-16.3-10.9-6.4 0-10.1 3.2-10.1 7.1 0 2.3 1.1 4.3 3.2 6.1 2.3 1.7 6.8 3.6 13.7 5.6l8.7 2.8c2 .7 4.7 1.9 7.8 3.6 3.2 1.6 5.6 3.4 7.3 5.2 3.4 3.6 6.5 9.8 6.5 17.5 0 9-3.2 16-9.7 21.3-6.4 5.1-14.9 7.7-25.3 7.7-19.2.1-32.2-8.8-37.6-23.2" style="fill:url(#n)"/><linearGradient id="o" x1="-241.148" x2="734.647" y1="261.38" y2="419.024" gradientTransform="matrix(1 0 0 -1 0 794.62)" gradientUnits="userSpaceOnUse"><stop offset="0" style="stop-color:#9463ff"/><stop offset=".262" style="stop-color:#9e1fed"/><stop offset=".608" style="stop-color:#db007c"/><stop offset=".666" style="stop-color:#dd0872"/><stop offset=".767" style="stop-color:#e31d56"/><stop offset=".897" style="stop-color:#ed3f28"/><stop offset="1" style="stop-color:#f55e00"/></linearGradient><path d="M219.2 468.6c-6.5-4.3-12.5-9.2-17.7-15-7.2-7.9-13-17-16.9-27.1-2.9 9.8-7.1 18.9-11.8 26.9 4.8 7.6 10.6 14.4 17 20.6 0 .1.1 0 0 0 .8.8 1.6 1.5 2.4 2.3 1.5 1.4 3 2.8 4.6 4 2.8 2.3 5.7 4.5 8.8 6.6 5.2 3.5 10.7 6.6 16.5 9.2 5.1-6.8 9-14 11.7-19.8-5-2.1-9.9-4.7-14.6-7.7" style="fill:url(#o)"/><linearGradient id="p" x1="-152.793" x2="679.553" y1="240.902" y2="375.371" gradientTransform="matrix(1 0 0 -1 0 794.62)" gradientUnits="userSpaceOnUse"><stop offset="0" style="stop-color:#9463ff"/><stop offset=".262" style="stop-color:#9e1fed"/><stop offset=".608" style="stop-color:#db007c"/><stop offset=".666" style="stop-color:#dd0872"/><stop offset=".767" style="stop-color:#e31d56"/><stop offset=".897" style="stop-color:#ed3f28"/><stop offset="1" style="stop-color:#f55e00"/></linearGradient><path d="M325.4 459c-6.9 6.5-15 11.8-23.7 15.8.8 7.3 2.9 14.6 6.5 21.9 6.8-2.8 13.5-6.2 19.5-10.3-2.8-11.8-2.7-22.2-2.3-27.4" style="fill:url(#p)"/><linearGradient id="q" x1="461.009" x2="177.208" y1="413.653" y2="331" gradientTransform="matrix(1 0 0 -1 0 794.62)" gradientUnits="userSpaceOnUse"><stop offset="0" style="stop-color:#9463ff"/><stop offset=".262" style="stop-color:#9e1fed"/><stop offset=".608" style="stop-color:#db007c"/><stop offset=".666" style="stop-color:#dd0872"/><stop offset=".767" style="stop-color:#e31d56"/><stop offset=".897" style="stop-color:#ed3f28"/><stop offset="1" style="stop-color:#f55e00"/></linearGradient><path d="M286.3 465.4c0-14.4 3.9-27.9 10.4-39.6 26.2-44.8 68.9-78.8 119.7-93.4-3-7.1-6.6-13.9-10.6-20.4a226.7 226.7 0 0 0-102.2 65.9c-6.7-14.1-21-24-37.7-24-19.4 0-35.6 13.4-40.3 31.3-13-7.8-27.9-12.3-43.8-12.6 1.7-6.3 4.2-12.4 7.3-18.1-6.1-5.1-11.6-10.8-16.3-17.2-7.3 11.5-12.4 24.4-15 38-.6 3.6-1 6.6-1.3 9.4v.3c-.6 5.4-.7 9.8-.8 14.9l4.4-1.6c6.3-2 13.1-3.1 19.8-3.1 31.3 0 58.1 21.6 65.3 52.6 3.8 16.6 3 33.2 1.6 53-.6 8.5-1 17.5-.9 26.6 0 7.5.6 15 1.3 22.1.2 1.8.5 3.6.6 5.4.1 1 .3 1.9.4 2.8 5.8.6 11.7 1 17.7 1 1.8 0 3.6-.2 5.4-.3-.3-2.1-.7-4.1-1-6.2-.2-1.6-.5-3.2-.6-4.9-.6-6.4-1-12.8-1-19.3 0-8.6.7-17 1.7-25.3 7.7 20.2 21.4 37.6 39.3 49.8 9.7-2.8 19.1-6.3 28-10.7-30.8-12.6-51.4-42.6-51.4-76.4m-20.4-50.9c-10.5 0-19-8.5-19-19s8.5-19 19-19 19 8.5 19 19-8.5 19-19 19" style="fill:url(#q)"/><linearGradient id="r" x1="363.833" x2="98.99" y1="487.029" y2="487.029" gradientTransform="matrix(1 0 0 -1 0 794.62)" gradientUnits="userSpaceOnUse"><stop offset="0" style="stop-color:#9463ff"/><stop offset=".262" style="stop-color:#9e1fed"/><stop offset=".608" style="stop-color:#db007c"/><stop offset=".666" style="stop-color:#dd0872"/><stop offset=".767" style="stop-color:#e31d56"/><stop offset=".897" style="stop-color:#ed3f28"/><stop offset="1" style="stop-color:#f55e00"/></linearGradient><path d="M195.1 311.8c2.6 4.5 8.2 12.5 13.9 17.4 0 0 .1 0 .1.1 15.2-13.1 35-21.1 56.7-21.1 13.3 0 25.9 3.1 37.2 8.5 5.5-7.3 8.8-16.2 9.8-20.2-14.2-6.8-30.1-10.7-47-10.7-26.9 0-51.6 9.9-70.7 26" style="fill:url(#r)"/><linearGradient id="s" x1="267.818" x2="159.841" y1="572.522" y2="403.448" gradientTransform="matrix(1 0 0 -1 0 794.62)" gradientUnits="userSpaceOnUse"><stop offset="0" style="stop-color:#9463ff"/><stop offset=".262" style="stop-color:#9e1fed"/><stop offset=".608" style="stop-color:#db007c"/><stop offset=".666" style="stop-color:#dd0872"/><stop offset=".767" style="stop-color:#e31d56"/><stop offset=".897" style="stop-color:#ed3f28"/><stop offset="1" style="stop-color:#f55e00"/></linearGradient><path d="M172.8 337.1c-7.3 11.5-12.4 24.4-15 38-.6 3.6-1 6.6-1.3 9.4v.3c-.6 5.4-.7 9.8-.8 14.9l4.4-1.6c6-1.8 12.4-3 18.7-3.1 0-7.9 1.1-15.4 3.1-22.6h-.1c.1-.4.3-.8.4-1.1.7-2.6 1.6-5.1 2.6-7.6.4-1 .8-1.9 1.2-2.9 1-2.2 2-4.3 3.1-6.4-6.1-5-11.5-10.9-16.3-17.3" style="fill:url(#s)"/><linearGradient id="t" x1="824.625" x2="29.474" y1="403.872" y2="403.872" gradientTransform="matrix(1 0 0 -1 0 794.62)" gradientUnits="userSpaceOnUse"><stop offset=".357" style="stop-color:#0f93ff"/><stop offset=".803" style="stop-color:#9e1fed"/><stop offset="1" style="stop-color:#db007c"/></linearGradient><path d="M201.5 453.6c5.1-10 9.7-20.3 13.5-31 8.3 8.7 12.7 19.5 14.7 24.7-3.2 7.3-6.7 14.5-10.5 21.4-6.4-4.4-12.5-9.3-17.7-15.1m91.4-112.4c-1.1-6.1-1.8-12.2-2.2-18.5-6.9-2.4-14.1-3.9-22.9-4.1 0 6.6.6 13 1.4 19.4 13.8.8 26.2 6.4 35.7 15.3 6.9-7.3 16.1-17.2 30.8-25.9 2.1-3.8 4-7.7 5.7-11.2 4.6-11.3 7.2-23.7 7.2-36.7 0-9.4-1.6-18.4-4.1-27-9.6-5.3-19.8-9.7-30.5-13 7.4 11.6 11.8 25.3 11.8 40 .1 25.8-13.1 48.3-32.9 61.7m-142.7 22.9c2.6-9.6 6.4-18.8 11.3-27.4-8.2-12.4-19.1-22.9-31.7-31-4.2 6.3-7.8 13-11.1 19.8 14.1 9.4 25.2 22.7 31.5 38.6m39-9.6c10.5 1.2 21.7 4.7 29.4 8.7 7.8-11.6 19.7-20.2 33.8-23.7v-1.4c0-6-.5-11.9-.9-17.8-8.5 1.3-16.6 4.8-22.4 7.7.1 3.4.5 6.7.5 10.1 0 4.2-.4 8.3-.6 12.4-30.3-9.5-52.5-37.6-52.5-71 0-7.9 1.3-15.5 3.7-22.7-9.5 5.9-18.2 12.6-26.3 20.2 0 .8-.1 1.7-.1 2.5 0 30.2 13.9 57.1 35.4 75m174.2 126.2c-4-1.6-8.2-3.4-12.8-5.6-2.1-1.1-3.9-2.1-5.8-3.1-2.2-1.2-4.2-2.5-6.2-3.7 0 2.6.3 5.6.7 8.7v.2c.4 2.6.8 5.4 1.5 8.3.2.9.4 1.8.7 2.7.2.8.5 1.6.7 2.3 4.4 13.5 12.4 25.3 22.7 34.5 6.2-4.7 12-9.8 17.5-15.3-9-7.5-15.8-17.4-19-29m-218.2-75.9c.2-6.7.6-14.5 1.1-21 .2-1.8.5-3.4.7-5.2-18 7.2-32.9 20.1-43 36.3 1.6 13.6 5 26.6 9.7 39 2.6-20.5 14.7-38.6 31.5-49.1m265.8 3.5c-5.8-4.3-19.1-12-32.3-12.4-1.5.7-3.9 2.2-5.3 3-11.7 8-21.1 19.1-27.3 32-7.7-6.1-14.8-13-21.2-20.5-1.7 2.2-3.5 4.4-5.3 6.7-2.9 3.8-5.7 8-8.2 12.6 8.3 9.1 17.6 17.3 27.7 24.4 0 .1-.1-.2-.2-.1 6.2 4.4 13.8 9.2 22.3 13.4 13.4 6.7 27.9 11.4 43.1 14.3 4.2-6.7 8-13.7 11.2-21-18-2.5-34.9-8.5-50.2-17 7.7-18.7 24.9-32.5 45.7-35.4M231.1 510.7c.1-2.5.3-4.8.6-7.1-12.2 15.2-30.7 24.9-51.7 24.9-1.2 0-2.4-.3-3.6-.4 9.1-9.6 17.6-19.8 25.3-30.7-6.7-4.1-12.9-8.9-18.2-13.8-8.1 11.6-17.4 22.2-27.3 32.2 14.5 13.2 31.3 23.9 49.8 31.2 9-2.8 17.3-6.8 24.9-11.9-.3-7.8-.3-16.1.2-24.4m-68.2-60.1c1.6-2.5 2.9-5.1 4.3-7.7 0 .1-.1 0 0 .1 4.5-8.2 8.4-18.4 11-32.8-10.5 1-19.3 4.2-25.8 7.5-5.6 19.2-18 35.5-34.4 46.2 3.2 6.9 6.8 13.5 10.9 19.9 13.2-8.2 24.7-18.8 33.2-31.8.2-.5.5-.9.8-1.4m130.4-161.1c0-.1.1-.4.1-.5 3.6-18 10.6-34.7 20.2-49.6-7.6-2.3-15.4-3.9-23.4-5.1-9.1 15.8-15.8 33.1-19.3 51.5v.1c7.7.4 15.2 1.6 22.4 3.6m-60.6-53.8c-7.6 1.6-15 3.9-22.2 6.5 6.7 16.3 11.8 33.4 15 51.2v.2c7.1-2.8 14.5-4.9 22.2-6.2-3.2-18-8.4-35.2-15-51.7m119.4 146.8c39.6-4.9 66.3 13.5 76.4 25.5.3-4.1.6-8.3.6-12.4 0-5.6-.3-11.3-.9-16.8-12.9-8.9-27.7-15.1-43.8-17.5-11.9 6.1-22.4 13-32.3 21.2" style="fill:url(#t)"/></svg>