<svg xmlns="http://www.w3.org/2000/svg" viewBox="0 0 2146 410"><style>.shp0{fill:#091b2a}.shp1{fill:#00af73}</style><g id="Layer"><path fill-rule="evenodd" d="M2027.3 59.5c0-10.6 2.6-20.5 7.8-29.6s12.4-16.3 21.6-21.5 19.1-7.9 29.8-7.9 20.6 2.6 29.7 7.9c9.2 5.2 16.3 12.4 21.5 21.5s7.8 19 7.8 29.6q0 15.6-7.5 29.1c-5 9.1-12.1 16.3-21.3 21.8s-19.3 8.3-30.3 8.3c-10.9 0-21-2.7-30.2-8.2-9.2-5.4-16.3-12.7-21.4-21.8-4.9-8.9-7.5-18.7-7.5-29.2m9.6 0c0 9 2.2 17.4 6.7 25.1 4.4 7.7 10.5 13.7 18.1 18.1s15.9 6.5 24.8 6.5 17.2-2.2 24.9-6.7 13.7-10.5 18-18.1c4.4-7.6 6.5-16 6.5-25s-2.2-17.3-6.5-24.9q-6.6-11.4-18-18c-7.6-4.4-16-6.6-24.9-6.6s-17.2 2.2-24.8 6.5c-7.7 4.3-13.7 10.4-18.1 18-4.5 7.8-6.7 16.1-6.7 25.1m37.3 32.6h-11.7v-67h23c8.5 0 15.1 1.7 19.8 5.2 4.7 3.4 7 8.5 7 15s-3.6 11.4-10.7 14.8c6.8 2.6 10.2 8 10.2 16.1V81c0 4.5.5 7.8 1.4 9.8v1.3h-12.1c-.8-1.9-1.2-5.3-1.2-10.1 0-4.9-.1-7.8-.2-8.6-.9-5.1-4.5-7.7-10.9-7.9h-14.6zm13-36.8c4-.1 7.2-1 9.7-2.8 2.4-1.7 3.7-4 3.7-6.8 0-3.8-1.1-6.5-3.2-8.1-2.2-1.6-6-2.4-11.6-2.4h-11.5l-.1 20.1z" class="shp0"/><path d="M309.2 19.8c5.7-8.5.5-19.3-9.4-19.3H140.6c-33.5 0-60.2 8.9-79.9 26.7-19.7 17.7-31 43.1-34 76.3l-7.6 86.8c-2.8 33.2 4.1 58.6 20.7 76.3q25.05 26.7 75.3 26.7h36.4v-.2c7.2-1 11.1-5.4 11.8-13.1l3.7-42.6c.7-7.7-5-14-12.8-14H134c-13.1 0-22.3-2.9-27.6-8.6-5.2-5.7-7.2-15.4-6.1-29l6.8-77.8c1.2-13.6 4.9-23.2 11.1-28.9s15.9-8.6 29.1-8.6h107.4c12.7 0 25-6.7 32.3-17.7z" class="shp1"/><path d="M3.3 390.3c-5.7 8.5-.5 19.3 9.4 19.3h161.5c33.5 0 60.2-8.9 79.9-26.7 19.7-17.7 31-43.1 34-76.3l7.6-86.8c2.8-33.2-4.1-58.6-20.7-76.3q-25.05-26.7-75.3-26.7h-36.4v.2c-7.2 1-11.1 5.4-11.8 13.1l-3.7 42.6c-.7 7.7 5 14 12.8 14H181c13.1 0 22.3 2.9 27.6 8.6 5.2 5.7 7.2 15.4 6.1 28.9l-6.8 77.8c-1.2 13.6-4.9 23.2-11.1 28.9s-15.9 8.6-29.1 8.6H57.9c-12.7 0-25 6.7-32.3 17.7z" class="shp1"/><path d="M551 409.6H343c-8.9 0-13-4.4-12.2-13.4l33.5-382.3C365.1 5 369.9.5 378.8.5h208c8.5 0 12.3 4.4 11.6 13.4l-3.8 43.3c-.8 8.9-5.4 13.4-13.9 13.4h-133c-5.1 0-7.8 2.3-8.2 7l-7.2 82.7c-.4 4.7 1.9 7 7 7h108.8c8.9 0 13 4.5 12.2 13.4l-3.8 43.3c-.8 8.9-5.6 13.4-14.5 13.4H433.2c-5.1 0-7.8 2.3-8.2 7l-7.7 88.4c-.4 4.7 1.9 7 7 7h132.9c8.5 0 12.3 4.5 11.6 13.4l-3.8 43.3c-.9 8.6-5.5 13.1-14 13.1M775.4 409.6h-69.3q-50.25 0-75.3-26.7c-16.7-17.8-23.6-43.5-20.6-77l17.6-201.7c2.9-33.5 14.3-59.2 34.1-77S708.3.5 741.8.5h69.3c33.1 0 58.1 9 74.9 27 16.9 18 23.9 43.6 21 76.6l-2.6 29.9c-.8 9.3-5.9 14-15.2 14h-53.4c-8.9 0-13-4.7-12.1-14l2.3-26.1c1.2-13.6-.8-23.2-6.1-28.9-5.2-5.7-14.6-8.6-28.2-8.6h-43.3c-13.1 0-22.8 2.9-29.1 8.6-6.2 5.7-9.9 15.4-11.1 28.9l-17 194c-1.2 13.6.8 23.2 6.1 28.9 5.2 5.7 14.4 8.6 27.6 8.6h43.3c13.6 0 23.5-2.9 29.7-8.6s9.9-15.4 11.1-28.9l2.3-26.1c.8-9.3 5.7-14 14.6-14h53.4c9.3 0 13.6 4.7 12.8 14l-2.6 29.9c-2.9 33.1-14.4 58.6-34.4 76.6-20.1 18.3-46.6 27.3-79.7 27.3M1071 409.6h-53.4c-9.3 0-13.6-4.4-12.8-13.4l27.9-318.7c.4-4.7-1.7-7-6.4-7h-72.5c-8.9 0-13-4.4-12.2-13.4l3.8-43.3C946.2 4.9 951 .4 959.9.4h240.4c8.9 0 13 4.4 12.2 13.4l-3.8 43.3c-.8 8.9-5.6 13.4-14.5 13.4h-72.5c-5.1 0-7.8 2.3-8.2 7l-27.9 318.7c-.9 8.9-5.7 13.4-14.6 13.4M1334.5 13.9 1301 396.2c-.8 8.9-5.6 13.4-14.5 13.4h-54.1c-8.9 0-13-4.5-12.2-13.4l33.5-382.3c.8-8.9 5.6-13.4 14.5-13.4h54.1c8.9 0 13 4.5 12.2 13.4" class="shp0"/><path fill-rule="evenodd" d="M1853.8 409.6h-71.2q-50.25 0-75.3-26.7c-16.7-17.8-23.6-43.5-20.6-77l17.6-201.7c2.9-33.5 14.3-59.2 34.1-77S1784.8.5 1818.3.5h71.2q50.25 0 75.3 26.7c16.7 17.8 23.6 43.5 20.6 77l-17.6 201.7c-2.9 33.5-14.3 59.2-34.1 77-19.7 17.8-46.4 26.7-79.9 26.7m-52.4-70h45.2c13.6 0 23.5-2.9 29.7-8.6s9.9-15.4 11.1-28.9l17-194c1.2-13.6-.8-23.2-6.1-28.9-5.2-5.7-14.6-8.6-28.2-8.6h-45.2c-13.6 0-23.4 2.9-29.4 8.6s-9.6 15.4-10.8 28.9l-17 194c-1.2 13.6.7 23.2 5.7 28.9 5.2 5.7 14.4 8.6 28 8.6" class="shp0"/><path d="M1583.5 137.3h54.1c8.9 0 13.8-4.7 14.6-14l1.7-19.1c2.9-33.1-4-58.6-20.6-76.7-16.7-18-41.5-27-74.6-27h-67.4c-33.5 0-60.2 8.9-79.9 26.7-19.8 17.8-31.2 43.5-34.1 77l-17.6 201.7c-2.9 33.5 3.9 59.2 20.6 77q25.05 26.7 75.3 26.7h67.4c33.1 0 59.5-9 79.3-27s31.2-43.6 34.1-76.7l9.3-106.2c.9-9.8-3.6-14.6-13.4-14.6h-125.9c-9.9 0-17 10.7-12.8 19.3l16.4 33c5.4 10.9 16.6 17.7 29.2 17.7h13.8c4.7 0 6.8 2.3 6.4 7l-3.5 40.1c-1.2 13.6-4.8 23.2-10.8 29-6 5.7-15.8 8.6-29.4 8.6h-41.4c-13.1 0-22.3-2.9-27.6-8.6-5.2-5.7-7.2-15.4-6.1-29l17-194c1.2-13.6 4.9-23.2 11.1-28.9s15.9-8.6 29.1-8.6h41.4c13.6 0 22.9 2.9 27.9 8.6s6.9 15.4 5.7 28.9l-1.3 15.3c-1 9.1 3.1 13.8 12 13.8" class="shp0"/></g></svg>