<svg xmlns="http://www.w3.org/2000/svg" width="273" height="59" fill="none" viewBox="0 0 273 59"><path fill="#015258" d="M93.159 43.033a17 17 0 0 1-4.797-1q-2.338-.84-4.092-2.286-1.761-1.444-2.63-3.412l5.513-2.365c.27.56.74 1.113 1.414 1.649.674.542 1.468.98 2.383 1.324a8.1 8.1 0 0 0 2.865.511c.999 0 1.883-.138 2.726-.42.842-.284 1.528-.71 2.07-1.295a2.96 2.96 0 0 0 .812-2.088q0-1.373-.92-2.13c-.614-.506-1.379-.897-2.287-1.168q-1.374-.406-2.738-.776-3.053-.684-5.59-1.883c-1.692-.8-3.034-1.824-4.033-3.081-.999-1.258-1.492-2.799-1.492-4.622q.001-2.989 1.618-5.181c1.078-1.463 2.498-2.588 4.25-3.376 1.75-.789 3.628-1.186 5.62-1.186q3.735 0 6.848 1.589t4.766 4.357l-5.139 3.05c-.313-.625-.776-1.185-1.402-1.678-.62-.5-1.33-.897-2.119-1.198a8 8 0 0 0-2.46-.511q-1.59-.062-2.943.355-1.354.422-2.167 1.324c-.542.601-.812 1.372-.812 2.304 0 .933.319 1.595.962 2.04q.965.67 2.444 1.078 1.48.405 3.033.902a33 33 0 0 1 5.199 2.13q2.427 1.257 3.924 3.1 1.497 1.84 1.432 4.483c0 1.95-.59 3.665-1.757 5.14q-1.762 2.21-4.562 3.363c-1.865.77-3.851 1.09-5.945.963zM123.31 43.249q-4.298.001-7.829-2.209c-2.359-1.474-4.237-3.448-5.633-5.934q-2.102-3.717-2.1-8.238c0-2.28.403-4.417 1.216-6.397q1.216-2.971 3.346-5.23a15.5 15.5 0 0 1 4.964-3.532c1.89-.848 3.9-1.275 6.042-1.275q3.584 0 6.571 1.48a15.3 15.3 0 0 1 5.11 4.08q2.12 2.6 3.111 5.976.994 3.376.589 7.179h-24.004q.406 2.15 1.57 3.875a8.5 8.5 0 0 0 2.991 2.726q1.824.993 4.062 1.03c1.577 0 3.015-.392 4.315-1.186 1.3-.788 2.359-1.878 3.189-3.268l6.572 1.529q-1.87 4.143-5.633 6.77c-2.509 1.757-5.326 2.63-8.437 2.63zm-8.84-19.053h17.686a9.36 9.36 0 0 0-1.571-4.062 9.5 9.5 0 0 0-3.147-2.894 8.2 8.2 0 0 0-4.122-1.077c-1.492 0-2.84.355-4.092 1.059a9 9 0 0 0-3.111 2.882 10.6 10.6 0 0 0-1.637 4.092zM163.736 33.596l5.79 3.147a15.8 15.8 0 0 1-5.368 4.73q-3.252 1.778-7.053 1.776-4.299.001-7.829-2.209c-2.359-1.474-4.237-3.448-5.633-5.934q-2.101-3.717-2.1-8.238c0-2.28.403-4.417 1.216-6.397q1.217-2.971 3.345-5.23a15.5 15.5 0 0 1 4.965-3.532c1.89-.848 3.9-1.275 6.042-1.275 2.533 0 4.88.59 7.053 1.775 2.166 1.185 3.959 2.768 5.368 4.766l-5.789 3.147q-1.31-1.553-3.051-2.383c-1.162-.547-2.359-.824-3.581-.824q-2.555.001-4.622 1.384a9.9 9.9 0 0 0-3.267 3.64q-1.2 2.256-1.198 4.935c0 1.787.403 3.4 1.216 4.905.812 1.504 1.901 2.714 3.285 3.628 1.378.915 2.913 1.372 4.592 1.372a8.06 8.06 0 0 0 3.671-.872 9.3 9.3 0 0 0 2.961-2.305zM190.397 17.781h-6.542l-.03 24.661h-6.475l.03-24.66h-4.952v-6.476h4.952l-.03-9.779h6.475l.03 9.78h6.542zM197.238 6.788q-1.498.002-2.491-.963c-.662-.644-.999-1.45-.999-2.431 0-.98.331-1.757.999-2.413.662-.656 1.486-.981 2.461-.981s1.763.325 2.431.98c.662.657.999 1.457.999 2.414s-.325 1.787-.98 2.431c-.656.644-1.457.963-2.414.963zm-3.303 4.52h6.475v31.135h-6.475zM230.571 11.307h6.475v31.942q0 3.206-1.354 5.916a14.9 14.9 0 0 1-3.658 4.688c-1.535 1.318-3.298 2.34-5.278 3.069q-2.97 1.09-6.21 1.089a15 15 0 0 1-6.289-1.384 17.4 17.4 0 0 1-5.308-3.75 15.5 15.5 0 0 1-3.412-5.355l5.946-2.678a9 9 0 0 0 2.01 3.424 10.3 10.3 0 0 0 3.237 2.365 8.8 8.8 0 0 0 3.816.873c1.306 0 2.527-.205 3.719-.608a11 11 0 0 0 3.207-1.697 8.4 8.4 0 0 0 2.257-2.618 6.8 6.8 0 0 0 .842-3.334v-5.26a12 12 0 0 1-3.923 3.816c-1.601.963-3.454 1.45-5.573 1.45-2.118 0-4.278-.427-6.228-1.275a16.2 16.2 0 0 1-5.139-3.533 16.6 16.6 0 0 1-3.455-5.217c-.83-1.974-1.245-4.086-1.245-6.349q0-3.396 1.245-6.367a16.5 16.5 0 0 1 3.455-5.23 16.1 16.1 0 0 1 5.139-3.532q2.925-1.274 6.228-1.275c2.203 0 3.972.481 5.573 1.45a11.8 11.8 0 0 1 3.923 3.845v-4.465m-9.436 25.684q2.708-.001 4.73-1.384c1.348-.92 2.395-2.155 3.148-3.69.746-1.534 1.119-3.219 1.119-5.042s-.379-3.562-1.137-5.091q-1.138-2.292-3.16-3.67c-1.348-.922-2.918-1.385-4.7-1.385-1.781 0-3.333.457-4.778 1.372s-2.587 2.136-3.442 3.67c-.848 1.535-1.276 3.238-1.276 5.11s.434 3.569 1.294 5.11c.861 1.534 2.016 2.755 3.454 3.658a8.8 8.8 0 0 0 4.748 1.354zM257.341 43.249q-4.298.001-7.829-2.209c-2.359-1.474-4.236-3.448-5.633-5.934q-2.101-3.717-2.1-8.238c0-2.28.403-4.417 1.216-6.397q1.217-2.971 3.346-5.23a15.5 15.5 0 0 1 4.964-3.532c1.89-.848 3.9-1.275 6.042-1.275 2.865 0 5.476.74 7.829 2.208 2.353 1.475 4.237 3.454 5.633 5.946s2.1 5.253 2.1 8.28q.001 3.396-1.215 6.349a16.9 16.9 0 0 1-3.346 5.217 15.5 15.5 0 0 1-4.953 3.533c-1.877.848-3.899 1.276-6.054 1.276zm0-6.476q2.582 0 4.64-1.372 2.056-1.372 3.256-3.628 1.199-2.259 1.197-4.905c0-1.763-.409-3.466-1.228-4.983q-1.227-2.275-3.285-3.628c-1.372-.903-2.895-1.354-4.58-1.354s-3.243.457-4.621 1.372q-2.067 1.373-3.268 3.64-1.199 2.274-1.198 4.953c0 1.787.416 3.52 1.246 5.013s1.938 2.684 3.316 3.562a8.2 8.2 0 0 0 4.531 1.324z"/><path fill="#06dfc7" d="M64.895 42.457H48.37c0-8.78-7.143-15.917-15.917-15.917V10.016c17.891 0 32.448 14.557 32.448 32.447zM.006 10.617h16.525c0 8.78 7.143 15.917 15.917 15.917V43.06C14.557 43.06 0 28.502 0 10.611z"/></svg>