<svg xmlns="http://www.w3.org/2000/svg" viewBox="0 0 240.9 45.54"><defs><style>.cls-1{fill:#007856;fill-rule:evenodd}</style></defs><g id="Layer_2" data-name="Layer 2"><g id="Layer_1-2" data-name="Layer 1"><path d="M4.9 4.34H0v-2c.3 0 .6-.1.9-.1h11.7c.8 0 1.1.4 1.4 1.1 3.5 9.1 7.1 18.2 10.7 27.3.1.3.3.6.6 1.3 3.9-10.1 7.7-19.8 11.6-29.6H50v2h-4.8c0 .6-.1 1-.1 1.4v36.4c0 1.2.4 1.6 1.5 1.5a24 24 0 0 1 2.7 0v1.8H32.6v-1.9h3.3c.6 0 .9-.2.9-.9v-32.4c0-.1-.1-.1-.2-.5l-.7 1.4c-4.1 10.7-8.2 21.4-12.2 32.1-.3.7-.5 1.3-1.4 1.2s-1.2-.5-1.5-1.3c-4.1-10.7-8.3-21.5-12.5-32.2-.1-.4-.4-.7-.5-1.1-.1 0-.2.1-.3.1 0 .4-.1.8-.1 1.3v30.7c0 1.2.3 1.7 1.5 1.6s2.5 0 3.9 0v1.8H1v-1.8a24 24 0 0 1 2.7 0c1.1.1 1.3-.3 1.3-1.4V4.34ZM132 11.54v8.1c0 .7.1 1.2 1 1.2 4.6-.1 9.2-.1 13.8-.3a8.5 8.5 0 0 0 5.6-2.3 9.82 9.82 0 0 0 1.8-11.1c-1.8-3.6-5.1-4.8-8.7-4.9-4.1-.2-8.3 0-12.4-.1-.8 0-1.1.3-1.1 1.1zm0 21.1v8.7c0 .7.1 1.2 1 1.2 4.8-.1 9.7 0 14.5-.3 3-.2 5.8-1.3 7.5-3.9a10.22 10.22 0 0 0 .6-10.4c-1.6-3.5-4.8-4.8-8.4-5-4.7-.3-9.4-.2-14.1-.3-.9 0-1.2.3-1.2 1.2.1 3 .1 5.9.1 8.8M129.4.14c.4 0 .8-.1 1.2-.1 4.8 0 9.7-.1 14.5 0a14.46 14.46 0 0 1 8.7 2.7c3.3 2.5 4.3 6 3.9 9.9a9.32 9.32 0 0 1-6.4 8.3c-.5.2-.9.4-1.8.7.7.2 1.1.4 1.5.5 4.9 1.3 7.9 4.8 8.2 9.3.4 6.7-2.8 10.5-7.3 12a22.5 22.5 0 0 1-6.3 1.1c-5 .1-10.1 0-15.2 0-.3 0-.6-.1-1-.1Z" class="cls-1"/><path d="M182.1 31.24v-1.9c.1-1-.3-1.3-1.3-1.3-2.4.2-4.9.1-7.3.5a34 34 0 0 0-7.1 2 5.84 5.84 0 0 0-3.5 6.2 6.31 6.31 0 0 0 4.3 5.9 11.79 11.79 0 0 0 11.9-2.3c2.4-2.5 3.1-5.8 3-9.1m-18-9.7a13 13 0 0 1-2.1-.7 10.28 10.28 0 0 1 5.4-6.3 13.63 13.63 0 0 1 11-.6c3.7 1.3 5.4 4.4 5.7 8.1.3 4.1.2 8.3.3 12.5v10H182v-5.4c-.1 0-.3-.1-.4-.1-.3.4-.5.8-.8 1.2-3.6 5.8-12.2 6.3-16.8 3.3s-5.5-11.2.7-14.4a24.8 24.8 0 0 1 10.3-2.5l5.9-.3c.9 0 1.2-.3 1.1-1.2a30 30 0 0 0-.4-4.2c-.8-3.8-3.3-5.8-7.1-6-4.9-.2-8.4 1.8-10.4 6.6M226.5 27.84a6 6 0 0 0-.8.8c-1.9 2.1-3.9 4.1-5.8 6.2a2.8 2.8 0 0 0-.6 1.5c-.1 2.7 0 5.3 0 8.1H217V.24h2.3v31.6c.1.1.2.1.3.2.4-.4.9-.8 1.3-1.2 4.9-5.5 9.8-11 14.9-16.3.6-.6 1.9-.5 3-.7.1.1.1.3.2.4-1.4 1.6-2.8 3.1-4.2 4.7-1.9 2.1-3.8 4.2-5.8 6.2a1.24 1.24 0 0 0-.2 1.9c3.3 4.7 6.5 9.4 9.7 14.1.8 1.1 1.5 2.2 2.4 3.5-1.6.2-2.7.2-3.7-1.3-3.3-5-6.8-9.9-10.2-14.8a4.2 4.2 0 0 0-.5-.7M191.3 14.24v7.2a33 33 0 0 1 2.5-3.9c3.2-4.4 9.7-5.5 13.9-2.4a8.4 8.4 0 0 1 3.4 7c.2 7.1.1 14.3.1 21.4 0 .1-.1.2-.1.4H209v-19.5a16 16 0 0 0-.6-4.3c-1.3-4.1-4.2-4.8-7.1-4.7-6.3.2-9.7 6-9.9 11.7-.2 5.1-.1 10.2-.1 15.3v1.5H189v-29.7ZM70.7 41.64c-3 .3-6 .5-8.7-1.5a7.75 7.75 0 0 1-3.6-6.6 13.6 13.6 0 0 1 .5-4.5 9.9 9.9 0 0 1 2-3c.4-.5.8-.5 1.3 0 4.5 4.4 9.1 8.7 13.6 13.1.1.1.2.3.4.5a10.56 10.56 0 0 1-5.5 2m-2.9-35.3c2.7 0 4.6 2.1 4.7 5v.8A9.11 9.11 0 0 1 68.3 20a1.19 1.19 0 0 1-1.8-.1c-2.3-2.5-3.7-5.2-3.5-8.6.2-3 2.1-5 4.8-5Zm16.3-4.1v11.2h2.2c1.1-8.4 6.1-10 11.7-9v37.8c-.2.3-.5.7-.7.7a27 27 0 0 1-4-.1c-4.4-.8-6.8-4.2-9.9-6.9a19.2 19.2 0 0 0 3.7-8.4 3.82 3.82 0 0 1 3.2-3.2c1.4-.2 1.6-.8 1.2-2H78.8V24c2.5.1 4.6 1 5.1 3.7s-.7 4.6-2.3 6.6L69.4 22.74a11 11 0 0 0 1.5-.7 37 37 0 0 0 4-2c2.9-1.8 4.7-4.2 4.3-7.7s-2.6-5.9-6.1-7a17.75 17.75 0 0 0-7.6-.6c-4.5.5-8.3 3.4-9.3 7.4a11.2 11.2 0 0 0 2.6 10.6 7 7 0 0 1 .8 1A61 61 0 0 0 53.9 27c-5.5 3.8-5 12.2.1 15.6 3.5 2.3 7.4 2.9 11.4 2.9a22.2 22.2 0 0 0 12-3.6 1.26 1.26 0 0 1 1.2.1 10.7 10.7 0 0 0 7.8 2.9h23.9a5.7 5.7 0 0 0 1.3-.1c.3-1.8.3-1.8-1.3-1.8a11 11 0 0 0-1.8 0c-1.2.1-1.6-.3-1.6-1.5.1-11.5 0-22.9 0-34.4 0-2.8 0-2.8 2.9-2.8a7.78 7.78 0 0 1 8 5.8c.4 1.2.6 2.4.9 3.5h2.1V2.24Z" class="cls-1"/></g></g></svg>