<?xml version="1.0" encoding="utf-8"?>
<!-- Generator: Adobe Illustrator 19.2.1, SVG Export Plug-In . SVG Version: 6.00 Build 0)  -->
<svg version="1.1" id="layer" xmlns="http://www.w3.org/2000/svg" xmlns:xlink="http://www.w3.org/1999/xlink" 
	 viewBox="0 0 652 652" style="enable-background:new 0 0 652 652;" xml:space="preserve">
<style type="text/css">
	.st0{fill:#7AB800;}
	.st1{fill:#636466;}
	.st2{fill:#89C649;}
</style>
<polygon class="st0" points="420.7,292.5 420.7,261.5 409.6,261.5 409.6,292.5 377.8,292.5 377.8,303.6 409.6,303.6 409.6,335.4 
	420.7,335.4 420.7,303.6 451.7,303.6 451.7,292.5 "/>
<path class="st1" d="M124.1,275.7c-3.6-3.7-9-5.3-16.6-5.3H84.2v13.4h22.4c7.5,0,8.9,1.9,9,6.9v5.2h-14.8c-8.4,0-14.6,1.6-18.8,5
	c-4.2,3.4-6.2,8.6-6.2,15.4c0,7.8,2,12.8,5.8,15.8c3.8,3,9.3,3.9,16.2,3.9c1.6,0,3.2,0,4.9-0.1c5.5,0,10.7-2.6,14-7v6h12.5v-42.2
	C129.1,285,127.5,279.4,124.1,275.7 M115.6,308.5v3.1c0,4-2.7,11.3-13.9,11.4h-1.5c-8.4,0-11.2-0.7-11.3-6.8c0,0,0-0.2,0-0.2
	c0-5.3,2.4-7.5,11-7.5H115.6z"/>
<path class="st1" d="M190.4,273.9c-4.7-3.2-10.4-4.7-16.1-4.3h-2.6c-6-0.3-11.7,2.8-14.9,7.9v-7h-12.7v64.3h13.4v-37.2
	c0-14.3,10.4-14.1,14-14.1h0.5c5.4,0,7.8,0.7,9.6,2.4c1.8,1.7,2.7,4.7,2.7,9.4v39.4h13.2v-42.2C197.6,283.1,194.8,277.3,190.4,273.9
	"/>
<path class="st1" d="M250.7,242.6v31.2c-3.4-2.7-8.1-4.1-15.2-4.1c-6.2,0-12.2,0.7-16.8,3.9c-4.6,3.2-7.5,8.8-7.5,18.2
	c0,0,0,0,0,0.1v20.7c0,7.9,1.9,13.7,5.8,17.6c3.9,3.8,9.9,5.6,18,5.6h3c5.5,0.4,10.8-2.2,13.7-6.8v6h12.5v-92.3H250.7z M224.6,297.6
	c0-8.4,0.5-14.2,10.4-14.2c13.1,0,15.7,3.6,15.8,10.6v12.8c0,14.3-9.3,15.6-14,15.7c-7.5,0-12.2-0.6-12.2-10L224.6,297.6z"/>
<path class="st1" d="M368.6,315c0.3-6.5-2.8-12.6-8.2-16.2c-3.9-1.9-8.2-3-12.5-3.2l-3.8-0.2c-12.2-0.3-13.2-3.4-13.3-6.4l0,0
	c0.1-1.3,0.6-2.5,1.6-3.4c2-1.8,5.1-1.7,9.2-1.8h22.4v-13.4h-22.8c-16.9,0-23.2,8.8-23.3,17.2v0.6c0,9,3,12.5,6,14.8
	c4.9,3.8,12.5,5,23.9,5.3c2,0.1,4,0.6,5.7,1.7c1.5,1.1,2.4,2.9,2.3,4.7c0,0.3,0,0.5,0,0.8c-0.5,5.5-3.9,5.9-10.4,5.9h-25.3v13.4h27
	c4.6,0.1,9.2-1,13.2-3.3c5.6-3.5,8.8-9.8,8.4-16.4L368.6,315z"/>
<path class="st1" d="M302.9,270.5v64.3h-13.6v-51h-9.4v-13.3H302.9z M287.7,263h15.1v-13h-15.1V263z"/>
<path class="st1" d="M41.8,321.3c-3.4,0-7.6-0.6-7.6-5.3v-66H20.3v66.4c0,11.8,7.4,18.5,19.7,18.5h24.2v-13.6H41.8z"/>
<path class="st1" d="M616.3,271.5c-7.2,0-11.7,2-15.3,7.7v-7h-12.2v62.7h13.1v-36.2c0-12.5,7.3-13.7,14.6-13.8h3.7v-13.5H616.3z"/>
<path class="st1" d="M566.8,271.6l-13.2,48.7L537,271.6h-13.6l20.8,62.8h5.9l-2.1,7.8c-1.2,3.5-5.2,6.5-11.6,6.6h-5.7v13.3h5.8
	c11.6,0,18.2-4.2,21.9-12.6c1.6-4.5,3-9.2,4.1-13.9l2.2-8c0.1-0.5,14.7-54.7,14.7-55v-1.1L566.8,271.6z"/>
<path class="st1" d="M490.4,285.1v13.2h15.1v20.1c-4.3,3.5-6.5,4.1-14.6,4.2h-0.3c-6.1,0-8.7-1.4-11-3.6c-1.9-2.1-2.8-4.8-2.6-7.6
	v-34.8c0-4,0.6-6.7,2.4-8.5c2.3-1.9,5.3-2.7,8.3-2.4h3h19v-13.4h-18.6c-6.8,0-13.7,0.8-19,4.1c-5.3,3.4-8.8,9.4-8.8,19.6v36.5
	c0,20.3,16.2,23,29,23h0.2c15.4,0,19.7-3.8,26.3-11.3h0.1v-39L490.4,285.1z"/>
<path class="st2" d="M24.1,364.7v3.7l0,0c2.7-4,8-5.5,12.3-3.3c1.3,0.7,2.3,1.9,2.7,3.3c0.8-1.3,2-2.4,3.3-3.2
	c1.4-0.7,2.9-1.1,4.5-1.1c1.1,0,2.3,0.1,3.4,0.4c1,0.2,1.9,0.7,2.6,1.3c0.7,0.6,1.3,1.4,1.7,2.3c0.4,1.1,0.6,2.2,0.6,3.3v18.5h-4
	v-16.5c0-0.7-0.1-1.5-0.2-2.2c-0.1-0.6-0.4-1.2-0.7-1.8c-0.4-0.5-0.9-0.9-1.5-1.2c-0.8-0.3-1.6-0.5-2.4-0.4
	c-1.8-0.1-3.6,0.5-4.9,1.8c-1.2,1.2-1.8,2.9-1.8,4.7v15.7h-4.1v-16.5c0-0.8-0.1-1.5-0.2-2.2c-0.1-0.6-0.4-1.2-0.8-1.8
	c-0.4-0.5-0.9-0.9-1.4-1.2c-0.7-0.3-1.5-0.4-2.3-0.4c-1.1,0-2.1,0.2-3.1,0.7c-0.8,0.4-1.5,1-2.1,1.8c-0.5,0.6-0.9,1.4-1.2,2.1
	c-0.2,0.6-0.3,1.2-0.4,1.8v15.6h-4.1v-25.2"/>
<path class="st2" d="M75.4,377.7c-0.9,0.2-1.7,0.3-2.7,0.4l-2.8,0.4c-0.8,0.1-1.7,0.4-2.4,0.7c-0.7,0.3-1.3,0.8-1.8,1.4
	c-0.5,0.7-0.7,1.6-0.7,2.4c0,0.6,0.1,1.2,0.4,1.7c0.3,0.5,0.6,0.8,1,1.1c0.5,0.3,1,0.5,1.6,0.6c0.6,0.1,1.2,0.2,1.8,0.2
	c1.2,0,2.4-0.2,3.5-0.6c0.9-0.3,1.7-0.8,2.4-1.4c0.6-0.5,1-1.1,1.4-1.9c0.3-0.6,0.4-1.2,0.4-1.9v-4.2
	C76.9,377.3,76.2,377.6,75.4,377.7 M81.1,390.3c-0.9,0-1.8-0.3-2.4-0.9c-0.7-0.8-1-1.9-0.9-2.9c-1,1.3-2.4,2.3-3.9,2.9
	c-1.6,0.6-3.2,0.9-4.9,0.9c-1.1,0-2.2-0.2-3.3-0.5c-1-0.2-1.9-0.6-2.7-1.2c-0.8-0.6-1.4-1.3-1.8-2.2c-0.9-2.1-0.9-4.6,0-6.7
	c0.5-0.8,1.2-1.5,2-2.1c0.8-0.6,1.8-1,2.7-1.3c1-0.3,2-0.5,3.1-0.7c1.1-0.2,2.2-0.4,3.2-0.5c0.9-0.1,1.8-0.3,2.7-0.5
	c0.7-0.2,1.3-0.5,1.9-0.9c0.5-0.5,0.7-1.1,0.7-1.8c0-0.8-0.1-1.5-0.5-2.2c-0.3-0.5-0.8-1-1.3-1.2c-0.6-0.3-1.2-0.5-1.8-0.6
	c-0.7-0.1-1.3-0.1-2-0.1c-1.5-0.1-3,0.3-4.4,1c-1.3,0.8-2,2.3-1.9,3.8h-4.2c0-1.4,0.3-2.7,1-3.9c0.6-1.1,1.4-2,2.4-2.6
	c1-0.7,2.1-1.2,3.2-1.5c1.3-0.3,2.6-0.4,4-0.4c1.1,0,2.3,0.1,3.4,0.2c1.1,0.1,2.1,0.5,3,1c0.9,0.5,1.7,1.2,2.2,2.1
	c0.6,1.1,0.9,2.3,0.8,3.5v12.9c0,0.7,0,1.4,0.2,2.1c0,0.4,0.5,0.7,1.1,0.7c0.4,0,0.9-0.1,1.3-0.2v3.2
	C83.2,390.1,82.1,390.3,81.1,390.3"/>
<path class="st2" d="M92.9,364.7v4l0,0c1.6-3,4.8-4.7,8.2-4.6c1.4,0,2.8,0.2,4.1,0.7c1,0.4,2,1.1,2.7,1.9c0.7,0.8,1.2,1.8,1.4,2.9
	c0.3,1.2,0.4,2.5,0.4,3.7v16.6h-4.1v-17c0.1-1.4-0.4-2.7-1.4-3.7c-1-0.9-2.4-1.4-3.8-1.4c-1.1,0-2.2,0.2-3.3,0.6
	c-0.9,0.4-1.7,0.9-2.3,1.7c-0.6,0.7-1.1,1.5-1.4,2.4c-0.3,1-0.5,2.1-0.5,3.1v14.3h-4.1v-25.2"/>
<path class="st2" d="M129.9,377.7c-0.9,0.2-1.7,0.3-2.7,0.4l-2.8,0.4c-0.8,0.1-1.7,0.4-2.4,0.7c-0.7,0.3-1.3,0.8-1.8,1.4
	c-0.5,0.7-0.7,1.6-0.7,2.4c0,1.2,0.5,2.2,1.5,2.9c0.5,0.3,1,0.5,1.6,0.6c0.6,0.1,1.2,0.2,1.8,0.2c1.2,0,2.4-0.2,3.5-0.6
	c0.9-0.3,1.7-0.8,2.4-1.4c0.6-0.5,1-1.1,1.4-1.9c0.3-0.6,0.4-1.2,0.4-1.9v-4.2c-0.6,0.4-1.3,0.7-2,0.9 M135.9,390.3
	c-0.9,0-1.8-0.3-2.4-0.9c-0.7-0.8-1.1-1.9-0.9-2.9c-1.1,1.3-2.4,2.3-3.9,2.9c-1.6,0.6-3.2,0.9-4.9,0.9c-1.1,0-2.2-0.1-3.2-0.4
	c-1-0.2-1.9-0.6-2.7-1.2c-0.8-0.6-1.4-1.3-1.8-2.2c-0.9-2.1-0.9-4.6,0-6.7c0.5-0.9,1.1-1.6,1.9-2.2c0.8-0.6,1.7-1,2.7-1.3
	c1-0.3,2.1-0.5,3.1-0.7s2.2-0.4,3.2-0.5c0.9-0.1,1.8-0.3,2.7-0.5c0.7-0.2,1.3-0.5,1.9-0.9c0.5-0.5,0.7-1.1,0.7-1.8
	c0-0.8-0.1-1.5-0.5-2.2c-0.3-0.5-0.8-0.9-1.3-1.2c-0.6-0.3-1.2-0.5-1.8-0.6c-0.7-0.1-1.3-0.1-2-0.1c-1.5-0.1-3,0.3-4.4,1
	c-1.3,0.8-2,2.2-1.9,3.8h-4.1c0-1.4,0.4-2.7,1-3.9c0.6-1.1,1.4-2,2.4-2.6c1-0.7,2.2-1.2,3.4-1.4c1.3-0.3,2.6-0.4,4-0.4
	c1.1,0,2.2,0.1,3.4,0.2c1.1,0.1,2.1,0.5,3,1c0.9,0.5,1.7,1.2,2.2,2.1c0.6,1.1,0.9,2.3,0.8,3.5v12.9c0,0.7,0,1.4,0.2,2.1
	c0,0.4,0.5,0.7,1.1,0.7c0.4,0,0.9-0.1,1.3-0.2v3.2c-0.9,0.5-1.9,0.7-3,0.6"/>
<path class="st2" d="M157.2,385.6c0.9-0.6,1.7-1.3,2.3-2.2c0.6-1,1-2,1.3-3.1c0.3-1.1,0.4-2.3,0.4-3.5c0-1.1-0.1-2.2-0.4-3.2
	c-0.2-1-0.6-2-1.2-2.9c-0.6-0.9-1.3-1.6-2.2-2.1c-1-0.5-2.2-0.8-3.3-0.8c-1.2,0-2.3,0.2-3.4,0.8c-0.9,0.5-1.7,1.2-2.3,2
	c-0.6,0.9-1.1,1.9-1.3,2.9c-0.3,1.1-0.4,2.3-0.4,3.5c0,1.1,0.1,2.3,0.3,3.4c0.2,1.1,0.6,2.1,1.2,3.1c0.5,0.9,1.3,1.7,2.2,2.2
	c1,0.6,2.2,0.9,3.4,0.9C155,386.5,156.2,386.2,157.2,385.6 M162.6,396.9c-2.4,2.2-5.6,3.4-8.8,3.1c-1.2,0-2.4-0.1-3.6-0.4
	c-1.2-0.2-2.3-0.7-3.3-1.3c-1-0.6-1.8-1.4-2.4-2.3c-0.7-1-1-2.2-1.1-3.5h4.1c0,0.7,0.2,1.4,0.7,1.9c0.4,0.5,1,1,1.6,1.3
	c0.6,0.3,1.3,0.6,2,0.7c0.7,0.1,1.4,0.2,2.1,0.2c1.2,0,2.4-0.2,3.5-0.7c1-0.4,1.8-1.1,2.4-1.9c0.6-0.9,1.1-1.9,1.3-3
	c0.3-1.3,0.4-2.5,0.4-3.8v-1.7l0,0c-0.6,1.5-1.8,2.7-3.2,3.4c-1.4,0.7-3,1.1-4.6,1.1c-1.7,0-3.3-0.3-4.9-1c-1.4-0.7-2.5-1.6-3.5-2.8
	c-1-1.2-1.7-2.6-2.1-4c-0.5-1.6-0.7-3.2-0.7-4.9c0-1.6,0.2-3.1,0.6-4.6c0.4-1.5,1-3,1.9-4.3c0.9-1.3,2.2-2.4,3.6-3.1
	c1.7-0.9,3.6-1.3,5.5-1.2c1.5,0,3,0.3,4.4,1c1.3,0.7,2.4,1.8,3.1,3.1l0,0v-3.6h3.9v22.9C165.7,390.9,164.7,394.2,162.6,396.9"/>
<path class="st2" d="M188.5,372.1c-0.4-0.8-0.9-1.6-1.5-2.3c-0.6-0.6-1.4-1.2-2.2-1.5c-0.9-0.4-1.9-0.6-2.8-0.6c-1,0-2,0.2-2.9,0.6
	c-0.8,0.4-1.6,0.9-2.2,1.5c-0.6,0.7-1.1,1.4-1.5,2.3c-0.4,0.9-0.6,1.8-0.6,2.8h14.5C189.1,373.9,188.8,372.9,188.5,372.1
	 M189.5,388.2c-2.1,1.5-4.6,2.2-7.1,2.1c-1.8,0-3.6-0.3-5.2-1c-1.4-0.6-2.7-1.5-3.7-2.7c-1-1.2-1.8-2.7-2.3-4.2
	c-0.5-1.7-0.8-3.5-0.8-5.3c0-1.8,0.3-3.6,0.9-5.2c0.5-1.5,1.4-2.9,2.4-4.1c1-1.2,2.3-2.1,3.7-2.7c1.5-0.6,3.1-1,4.7-0.9
	c1.9-0.1,3.9,0.4,5.6,1.4c1.4,0.9,2.7,2.1,3.6,3.5c0.9,1.4,1.5,3,1.9,4.7c0.3,1.6,0.5,3.2,0.4,4.9h-18.8c0,1.1,0.1,2.1,0.4,3.1
	c0.3,1,0.8,1.8,1.4,2.6c0.7,0.8,1.5,1.4,2.4,1.8c1.1,0.5,2.3,0.7,3.6,0.7c1.5,0.1,3-0.4,4.3-1.2c1.2-0.9,2-2.2,2.2-3.7h4.1
	C192.7,384.4,191.4,386.6,189.5,388.2"/>
<path class="st2" d="M230.2,372.1c-0.3-0.8-0.9-1.6-1.5-2.3c-0.7-0.6-1.4-1.1-2.2-1.5c-0.9-0.4-1.9-0.6-2.8-0.6c-1,0-2,0.2-2.9,0.6
	c-0.8,0.4-1.6,0.9-2.2,1.5c-0.6,0.7-1.1,1.4-1.4,2.3c-0.4,0.9-0.6,1.8-0.6,2.8h14.4C230.8,373.9,230.6,372.9,230.2,372.1
	 M231.3,388.2c-2.1,1.5-4.6,2.2-7.1,2.1c-1.8,0-3.6-0.3-5.2-1c-1.4-0.6-2.7-1.5-3.7-2.7c-1-1.2-1.8-2.7-2.2-4.2
	c-0.5-1.7-0.8-3.5-0.9-5.3c0-1.8,0.3-3.6,0.9-5.2c0.5-1.5,1.4-2.9,2.4-4.1c1-1.2,2.3-2.1,3.7-2.7c1.5-0.7,3.1-1,4.7-0.9
	c1.9-0.1,3.9,0.4,5.6,1.4c1.4,0.9,2.6,2.1,3.6,3.5c0.9,1.4,1.5,3,1.9,4.7c0.3,1.6,0.4,3.2,0.4,4.9h-18.8c0,1.1,0.1,2.1,0.4,3.1
	c0.6,2,2,3.6,3.9,4.4c1.1,0.5,2.3,0.7,3.6,0.7c1.5,0.1,3-0.4,4.3-1.2c1.2-0.9,2-2.2,2.2-3.7h4.1
	C234.5,384.4,233.2,386.7,231.3,388.2"/>
<path class="st2" d="M244.5,364.7v4l0,0c1.6-3,4.8-4.7,8.2-4.6c1.4,0,2.8,0.2,4.1,0.7c1,0.4,2,1.1,2.7,1.9c0.7,0.8,1.2,1.8,1.4,2.9
	c0.3,1.2,0.4,2.5,0.4,3.7v16.6h-4.1v-17c0.1-1.4-0.4-2.7-1.4-3.7c-1-0.9-2.3-1.4-3.7-1.4c-1.1,0-2.2,0.2-3.3,0.6
	c-0.9,0.4-1.7,0.9-2.3,1.7c-0.6,0.7-1.1,1.5-1.4,2.4c-0.3,1-0.5,2.1-0.5,3.1v14.3h-4.1v-25.2"/>
<path class="st2" d="M284.7,372.1c-0.3-0.8-0.9-1.6-1.5-2.3c-0.6-0.6-1.4-1.2-2.2-1.5c-1.8-0.7-3.9-0.7-5.7,0
	c-0.8,0.4-1.6,0.9-2.2,1.5c-0.6,0.7-1.1,1.4-1.5,2.3c-0.4,0.9-0.6,1.8-0.6,2.8h14.4C285.2,373.9,285,372.9,284.7,372.1 M285.7,388.2
	c-2.1,1.5-4.6,2.2-7.1,2.1c-1.8,0-3.6-0.3-5.2-1c-1.4-0.6-2.7-1.5-3.7-2.7c-1-1.2-1.8-2.7-2.3-4.2c-0.5-1.7-0.8-3.5-0.8-5.3
	c0-1.8,0.3-3.6,0.9-5.2c0.5-1.5,1.4-2.9,2.4-4.1c1-1.2,2.3-2.1,3.7-2.7c1.5-0.7,3.1-1,4.7-0.9c1.9-0.1,3.9,0.4,5.6,1.4
	c1.4,0.9,2.7,2.1,3.6,3.5c0.9,1.4,1.5,3,1.9,4.7c0.3,1.6,0.5,3.2,0.4,4.9h-18.8c0,1.1,0.1,2.1,0.4,3.1c0.3,1,0.8,1.8,1.4,2.6
	c0.7,0.8,1.5,1.4,2.4,1.8c1.1,0.5,2.3,0.7,3.5,0.7c1.5,0.1,3.1-0.4,4.3-1.2c1.2-0.9,2-2.2,2.2-3.7h4.1
	C288.9,384.4,287.6,386.6,285.7,388.2"/>
<path class="st2" d="M298.8,364.7v5.3l0,0c0.8-1.8,2.1-3.4,3.7-4.5c1.7-1,3.6-1.5,5.6-1.3v4.4c-1.4,0-2.9,0.2-4.2,0.7
	c-1.1,0.4-2.1,1.1-2.8,2c-0.7,0.9-1.3,2-1.6,3.2c-0.3,1.4-0.5,2.8-0.5,4.3v11.3h-4.1v-25.2"/>
<path class="st2" d="M324.5,385.6c0.9-0.5,1.7-1.3,2.3-2.2c0.6-1,1-2,1.3-3.1c0.3-1.1,0.4-2.3,0.4-3.5c0-1.1-0.1-2.2-0.4-3.2
	c-0.2-1-0.7-2-1.3-2.9c-0.6-0.9-1.3-1.6-2.2-2.1c-1-0.5-2.1-0.8-3.3-0.8c-1.2,0-2.4,0.2-3.4,0.8c-0.9,0.5-1.7,1.2-2.3,2
	c-0.6,0.9-1.1,1.9-1.3,2.9c-0.3,1.1-0.4,2.3-0.4,3.5c0,1.1,0.1,2.3,0.3,3.4c0.2,1.1,0.6,2.1,1.2,3.1c0.5,0.9,1.3,1.7,2.2,2.2
	c1,0.6,2.2,0.9,3.4,0.9C322.2,386.5,323.4,386.2,324.5,385.6 M329.8,396.9c-2.4,2.2-5.6,3.3-8.8,3.1c-1.2,0-2.4-0.1-3.6-0.4
	c-1.2-0.2-2.3-0.7-3.3-1.3c-1-0.6-1.8-1.4-2.4-2.3c-0.7-1-1-2.2-1.1-3.5h4.1c0,0.7,0.3,1.4,0.7,1.9c0.4,0.5,1,1,1.6,1.3
	c0.7,0.3,1.4,0.6,2.1,0.7c0.7,0.1,1.4,0.2,2.1,0.2c1.2,0,2.4-0.2,3.5-0.7c1-0.4,1.8-1.1,2.4-1.9c0.6-0.9,1.1-1.9,1.3-3
	c0.3-1.3,0.4-2.5,0.4-3.8v-1.7l0,0c-0.6,1.5-1.8,2.7-3.2,3.4c-1.4,0.7-3,1.1-4.6,1.1c-1.7,0-3.3-0.3-4.9-1c-1.4-0.7-2.6-1.6-3.5-2.8
	c-1-1.2-1.7-2.6-2.1-4c-0.5-1.6-0.7-3.2-0.7-4.9c0-1.6,0.2-3.1,0.6-4.6c0.4-1.5,1-3,1.9-4.3c0.9-1.3,2.2-2.4,3.6-3.1
	c1.7-0.9,3.6-1.3,5.5-1.2c1.5,0,3,0.3,4.4,1c1.3,0.7,2.4,1.8,3.1,3.1l0,0v-3.6h3.8v22.9c0.3,3.3-0.7,6.6-2.8,9.2"/>
<path class="st2" d="M348.4,396.2c-0.4,0.8-0.9,1.5-1.6,2.1c-0.5,0.5-1.2,0.9-1.9,1.1c-0.8,0.3-1.6,0.4-2.4,0.4c-0.5,0-1,0-1.5,0
	c-0.5-0.1-1-0.2-1.4-0.3v-3.8l1.2,0.4c0.4,0.1,0.8,0.2,1.2,0.2c0.7,0,1.4-0.2,2-0.6c0.6-0.4,1-1,1.4-1.7l1.7-4.2l-10-25h4.7
	l7.3,20.6l0,0l7-20.6h4.4l-10.9,28.4c-0.4,1.1-0.9,2.1-1.4,3.1"/>
<path class="st2" d="M399.1,373.6c-0.3-1.1-0.8-2.1-1.4-3c-0.6-0.9-1.5-1.6-2.4-2.1c-1.1-0.5-2.3-0.8-3.5-0.8
	c-1.2,0-2.5,0.2-3.6,0.8c-1,0.5-1.8,1.3-2.4,2.2c-0.6,0.9-1.1,1.9-1.3,3c-0.3,1.1-0.4,2.3-0.4,3.4c0,1.2,0.1,2.4,0.4,3.6
	c0.3,1.1,0.7,2.1,1.4,3c0.6,0.9,1.5,1.6,2.4,2.1c1.1,0.5,2.4,0.8,3.7,0.8c1.2,0,2.5-0.2,3.6-0.8c0.9-0.5,1.7-1.3,2.3-2.2
	c0.6-1,1-2,1.3-3.1c0.3-1.2,0.4-2.4,0.4-3.6C399.5,375.8,399.3,374.7,399.1,373.6 M384.2,355.1v13l0,0c0.6-1.4,1.8-2.5,3.2-3
	c1.5-0.6,3.2-1,4.9-0.9c1.7,0,3.5,0.3,5.1,1.1c1.4,0.7,2.6,1.7,3.6,2.9c1,1.3,1.7,2.7,2.2,4.2c0.5,1.6,0.7,3.3,0.7,5
	c0,1.7-0.2,3.4-0.7,5c-0.4,1.5-1.2,2.9-2.1,4.1c-1,1.2-2.2,2.1-3.6,2.8c-1.6,0.7-3.3,1.1-5,1c-0.7,0-1.4-0.1-2.1-0.2
	c-0.8-0.1-1.5-0.3-2.2-0.6c-0.8-0.3-1.5-0.7-2.1-1.2c-0.7-0.5-1.2-1.2-1.7-1.9l0,0v3.5h-4.1v-34.7"/>
<path class="st2" d="M426,372.1c-0.3-0.8-0.9-1.6-1.5-2.3c-0.6-0.6-1.4-1.1-2.2-1.5c-0.9-0.4-1.9-0.6-2.8-0.6c-1,0-2,0.2-2.9,0.6
	c-0.8,0.4-1.6,0.9-2.2,1.5c-0.6,0.7-1.1,1.4-1.5,2.3c-0.4,0.9-0.6,1.8-0.6,2.8h14.5C426.6,373.9,426.4,372.9,426,372.1 M427,388.2
	c-2.1,1.5-4.6,2.2-7.1,2.1c-1.8,0-3.6-0.3-5.2-1c-1.4-0.6-2.7-1.5-3.7-2.7c-1-1.2-1.8-2.7-2.3-4.2c-0.5-1.7-0.8-3.5-0.9-5.3
	c0-1.8,0.3-3.6,0.9-5.2c0.5-1.5,1.4-2.9,2.4-4.1c1-1.2,2.3-2.1,3.7-2.7c1.5-0.6,3.1-1,4.7-0.9c2-0.1,3.9,0.4,5.6,1.4
	c1.4,0.9,2.7,2.1,3.6,3.5c0.9,1.4,1.5,3,1.9,4.7c0.3,1.6,0.5,3.2,0.4,4.9h-18.8c0,1.1,0.1,2.1,0.4,3.1c0.3,1,0.8,1.8,1.4,2.6
	c0.7,0.8,1.5,1.4,2.4,1.8c1.1,0.5,2.3,0.7,3.5,0.7c1.5,0.1,3.1-0.4,4.3-1.2c1.2-0.9,2-2.2,2.2-3.7h4.1
	C430.3,384.4,429,386.6,427,388.2"/>
<path class="st2" d="M446.7,364.7v3.6h-5v15.6c0,0.4,0,0.8,0.1,1.2c0.1,0.3,0.2,0.5,0.5,0.7c0.3,0.2,0.6,0.3,0.9,0.3
	c0.5,0,1.1,0,1.6,0h1.9v3.8h-3.2c-0.9,0-1.8-0.1-2.8-0.2c-0.7-0.1-1.3-0.4-1.9-0.8c-0.5-0.4-0.9-1-1-1.6c-0.3-0.9-0.4-1.9-0.3-2.8
	v-16h-4.2v-3.6h4.3v-7.5h4.1v7.5"/>
<path class="st2" d="M463.1,364.7v3.6h-5v15.6c0,0.4,0,0.8,0.1,1.2c0.1,0.3,0.2,0.5,0.5,0.7c0.3,0.2,0.6,0.3,0.9,0.3
	c0.5,0,1.1,0,1.6,0h1.9v3.8h-3.2c-0.9,0-1.8-0.1-2.8-0.2c-0.7-0.1-1.3-0.4-1.9-0.8c-0.5-0.4-0.8-1-1-1.6c-0.3-0.9-0.4-1.9-0.3-2.8
	v-16h-4.3v-3.6h4.3v-7.5h4.1v7.5"/>
<path class="st2" d="M484.9,372.1c-0.3-0.8-0.9-1.6-1.5-2.3c-0.6-0.6-1.4-1.1-2.2-1.5c-0.9-0.4-1.9-0.6-2.8-0.6c-1,0-2,0.2-2.9,0.6
	c-0.8,0.4-1.6,0.9-2.2,1.5c-0.6,0.7-1.1,1.4-1.5,2.3c-0.4,0.9-0.6,1.8-0.6,2.8h14.5C485.5,373.9,485.3,372.9,484.9,372.1
	 M485.9,388.2c-2.1,1.5-4.6,2.2-7.1,2.1c-1.8,0-3.6-0.3-5.2-1c-1.4-0.6-2.7-1.5-3.7-2.7c-1-1.2-1.8-2.6-2.3-4.2
	c-0.5-1.7-0.8-3.5-0.9-5.3c0-1.8,0.3-3.6,0.9-5.2c0.5-1.5,1.4-2.9,2.4-4.1c2.2-2.4,5.3-3.7,8.5-3.7c1.9-0.1,3.9,0.4,5.6,1.4
	c1.4,0.9,2.7,2.1,3.6,3.5c0.9,1.4,1.5,3,1.9,4.7c0.3,1.6,0.5,3.2,0.4,4.9h-18.8c0,1.1,0.1,2.1,0.4,3.1c0.3,1,0.8,1.8,1.4,2.6
	c0.7,0.8,1.5,1.4,2.4,1.8c1.1,0.5,2.3,0.7,3.6,0.7c1.5,0.1,3-0.4,4.3-1.2c1.2-0.9,2-2.2,2.2-3.7h4.1
	C489.1,384.4,487.8,386.6,485.9,388.2"/>
<path class="st2" d="M499.1,364.7v5.3l0,0c0.8-1.8,2.1-3.4,3.7-4.5c1.7-1,3.6-1.5,5.5-1.3v4.4c-1.4,0-2.9,0.2-4.2,0.7
	c-1.1,0.4-2.1,1.1-2.8,2c-0.7,0.9-1.3,2-1.5,3.2c-0.4,1.4-0.5,2.8-0.5,4.3v11.3h-4.1v-25.2"/>
</svg>
