<svg xmlns="http://www.w3.org/2000/svg" viewBox="0 0 652 181"><title>landisgyr-svg</title><style>.s1{fill:#636466}.s2{fill:#89c649}</style><path id="Layer" d="M420.7 66.5v-31h-11.1v31h-31.8v11.1h31.8v31.8h11.1V77.6h31V66.5z" style="fill:#7ab800"/><path fill-rule="evenodd" d="M129.2 66.7v42.2h-12.5v-6c-3.3 4.4-8.5 7-14 7-1.7.1-3.3.1-4.9.1-6.9 0-12.4-.9-16.2-3.9s-5.8-8-5.8-15.8c0-6.8 2-12 6.2-15.4s10.4-5 18.8-5h14.8v-5.2c-.1-5-1.5-6.9-9-6.9H84.2V44.4h23.3c7.6 0 13 1.6 16.6 5.3 3.4 3.7 5 9.3 5.1 17M99.9 82.5c-8.6 0-11 2.2-11 7.5v.2c.1 6.1 2.9 6.8 11.3 6.8h1.5c11.2-.1 13.9-7.4 13.9-11.4v-3.1z" class="s1"/><path d="M190.4 47.9c-4.7-3.2-10.4-4.7-16.1-4.3h-2.6c-6-.3-11.7 2.8-14.9 7.9v-7h-12.7v64.3h13.4V71.6c0-14.3 10.4-14.1 14-14.1h.5c5.4 0 7.8.7 9.6 2.4s2.7 4.7 2.7 9.4v39.4h13.2V66.5c.1-9.4-2.7-15.2-7.1-18.6" class="s1"/><path fill-rule="evenodd" d="M250.7 16.7h13.5V109h-12.5v-6c-2.9 4.6-8.2 7.2-13.7 6.8h-3c-8.1 0-14.1-1.8-18-5.6-3.9-3.9-5.8-9.7-5.8-17.6V65.8c0-9.4 2.9-15 7.5-18.2s10.6-3.9 16.8-3.9c7.1 0 11.8 1.4 15.2 4.1zm-26.1 69.8c0 9.4 4.7 10 12.2 10 4.7-.1 14-1.4 14-15.7V68c-.1-7-2.7-10.6-15.8-10.6-9.9 0-10.4 5.8-10.4 14.2z" class="s1"/><path d="M368.6 89c.3-6.5-2.8-12.6-8.2-16.2-3.9-1.9-8.2-3-12.5-3.2l-3.8-.2c-12.2-.3-13.2-3.4-13.3-6.4.1-1.3.6-2.5 1.6-3.4 2-1.8 5.1-1.7 9.2-1.8H364V44.4h-22.8c-16.9 0-23.2 8.8-23.3 17.2v.6c0 9 3 12.5 6 14.8 4.9 3.8 12.5 5 23.9 5.3 2 .1 4 .6 5.7 1.7 1.5 1.1 2.4 2.9 2.3 4.7v.8c-.5 5.5-3.9 5.9-10.4 5.9h-25.3v13.4h27c4.6.1 9.2-1 13.2-3.3 5.6-3.5 8.8-9.8 8.4-16.4z" class="s1"/><path fill-rule="evenodd" d="M302.9 44.5v64.3h-13.6v-51h-9.4V44.5zM287.7 24h15.1v13h-15.1z" class="s1"/><path d="M41.8 95.3c-3.4 0-7.6-.6-7.6-5.3V24H20.3v66.4c0 11.8 7.4 18.5 19.7 18.5h24.2V95.3zM616.3 45.5c-7.2 0-11.7 2-15.3 7.7v-7h-12.2v62.7h13.1V72.7c0-12.5 7.3-13.7 14.6-13.8h3.7V45.4h-3.9zM566.8 45.6l-13.2 48.7L537 45.6h-13.6l20.8 62.8h5.9l-2.1 7.8c-1.2 3.5-5.2 6.5-11.6 6.6h-5.7v13.3h5.8c11.6 0 18.2-4.2 21.9-12.6 1.6-4.5 3-9.2 4.1-13.9l2.2-8c.1-.5 14.7-54.7 14.7-55v-1.1zM490.4 59.1v13.2h15.1v20.1c-4.3 3.5-6.5 4.1-14.6 4.2h-.3c-6.1 0-8.7-1.4-11-3.6-1.9-2.1-2.8-4.8-2.6-7.6V50.6c0-4 .6-6.7 2.4-8.5 2.3-1.9 5.3-2.7 8.3-2.4h22V26.3h-18.6c-6.8 0-13.7.8-19 4.1-5.3 3.4-8.8 9.4-8.8 19.6v36.5c0 20.3 16.2 23 29 23h.2c15.4 0 19.7-3.8 26.3-11.3h.1v-39z" class="s1"/><path d="M24.1 138.7v3.7c2.7-4 8-5.5 12.3-3.3 1.3.7 2.3 1.9 2.7 3.3.8-1.3 2-2.4 3.3-3.2 1.4-.7 2.9-1.1 4.5-1.1 1.1 0 2.3.1 3.4.4 1 .2 1.9.7 2.6 1.3s1.3 1.4 1.7 2.3q.6 1.6.6 3.3v18.5h-4v-16.5c0-.7-.1-1.5-.2-2.2-.1-.6-.4-1.2-.7-1.8q-.6-.8-1.5-1.2c-.8-.3-1.6-.5-2.4-.4-1.8-.1-3.6.5-4.9 1.8-1.2 1.2-1.8 2.9-1.8 4.7V164h-4.1v-16.5c0-.8-.1-1.5-.2-2.2-.1-.6-.4-1.2-.8-1.8-.4-.5-.9-.9-1.4-1.2-.7-.3-1.5-.4-2.3-.4-1.1 0-2.1.2-3.1.7q-1.2.6-2.1 1.8c-.5.6-.9 1.4-1.2 2.1-.2.6-.3 1.2-.4 1.8v15.6H20v-25.2" class="s2"/><path fill-rule="evenodd" d="M81.1 164.3c-.9 0-1.8-.3-2.4-.9-.7-.8-1-1.9-.9-2.9-1 1.3-2.4 2.3-3.9 2.9-1.6.6-3.2.9-4.9.9-1.1 0-2.2-.2-3.3-.5q-1.5-.3-2.7-1.2c-.8-.6-1.4-1.3-1.8-2.2-.9-2.1-.9-4.6 0-6.7.5-.8 1.2-1.5 2-2.1s1.8-1 2.7-1.3c1-.3 2-.5 3.1-.7s2.2-.4 3.2-.5c.9-.1 1.8-.3 2.7-.5.7-.2 1.3-.5 1.9-.9.5-.5.7-1.1.7-1.8 0-.8-.1-1.5-.5-2.2-.3-.5-.8-1-1.3-1.2q-.9-.4-1.8-.6c-.7-.1-1.3-.1-2-.1-1.5-.1-3 .3-4.4 1-1.3.8-2 2.3-1.9 3.8h-4.2c0-1.4.3-2.7 1-3.9.6-1.1 1.4-2 2.4-2.6 1-.7 2.1-1.2 3.2-1.5 1.3-.3 2.6-.4 4-.4 1.1 0 2.3.1 3.4.2s2.1.5 3 1 1.7 1.2 2.2 2.1c.6 1.1.9 2.3.8 3.5v12.9c0 .7 0 1.4.2 2.1 0 .4.5.7 1.1.7.4 0 .9-.1 1.3-.2v3.2c-.8.4-1.9.6-2.9.6m-5.7-12.6c-.9.2-1.7.3-2.7.4l-2.8.4c-.8.1-1.7.4-2.4.7s-1.3.8-1.8 1.4c-.5.7-.7 1.6-.7 2.4 0 .6.1 1.2.4 1.7s.6.8 1 1.1c.5.3 1 .5 1.6.6s1.2.2 1.8.2c1.2 0 2.4-.2 3.5-.6.9-.3 1.7-.8 2.4-1.4.6-.5 1-1.1 1.4-1.9.3-.6.4-1.2.4-1.9v-4.2c-.6.7-1.3 1-2.1 1.1" class="s2"/><path d="M92.9 138.7v4c1.6-3 4.8-4.7 8.2-4.6 1.4 0 2.8.2 4.1.7 1 .4 2 1.1 2.7 1.9s1.2 1.8 1.4 2.9c.3 1.2.4 2.5.4 3.7v16.6h-4.1v-17c.1-1.4-.4-2.7-1.4-3.7-1-.9-2.4-1.4-3.8-1.4q-1.6 0-3.3.6c-.9.4-1.7.9-2.3 1.7-.6.7-1.1 1.5-1.4 2.4-.3 1-.5 2.1-.5 3.1v14.3h-4.1v-25.2" class="s2"/><path fill-rule="evenodd" d="M135.9 164.3c-.9 0-1.8-.3-2.4-.9-.7-.8-1.1-1.9-.9-2.9-1.1 1.3-2.4 2.3-3.9 2.9-1.6.6-3.2.9-4.9.9-1.1 0-2.2-.1-3.2-.4q-1.5-.3-2.7-1.2c-.8-.6-1.4-1.3-1.8-2.2-.9-2.1-.9-4.6 0-6.7.5-.9 1.1-1.6 1.9-2.2s1.7-1 2.7-1.3 2.1-.5 3.1-.7 2.2-.4 3.2-.5c.9-.1 1.8-.3 2.7-.5.7-.2 1.3-.5 1.9-.9.5-.5.7-1.1.7-1.8 0-.8-.1-1.5-.5-2.2-.3-.5-.8-.9-1.3-1.2q-.9-.4-1.8-.6c-.7-.1-1.3-.1-2-.1-1.5-.1-3 .3-4.4 1-1.3.8-2 2.2-1.9 3.8h-4.1c0-1.4.4-2.7 1-3.9.6-1.1 1.4-2 2.4-2.6 1-.7 2.2-1.2 3.4-1.4 1.3-.3 2.6-.4 4-.4 1.1 0 2.2.1 3.4.2 1.1.1 2.1.5 3 1s1.7 1.2 2.2 2.1c.6 1.1.9 2.3.8 3.5V158c0 .7 0 1.4.2 2.1 0 .4.5.7 1.1.7.4 0 .9-.1 1.3-.2v3.2q-1.4.8-3 .6m-6.2-12.7c-.9.2-1.7.3-2.7.4l-2.8.4c-.8.1-1.7.4-2.4.7s-1.3.8-1.8 1.4c-.5.7-.7 1.6-.7 2.4 0 1.2.5 2.2 1.5 2.9.5.3 1 .5 1.6.6s1.2.2 1.8.2c1.2 0 2.4-.2 3.5-.6.9-.3 1.7-.8 2.4-1.4.6-.5 1-1.1 1.4-1.9.3-.6.4-1.2.4-1.9v-4.2c-.6.4-1.3.7-2 .9zM162.6 170.9c-2.4 2.2-5.6 3.4-8.8 3.1-1.2 0-2.4-.1-3.6-.4-1.2-.2-2.3-.7-3.3-1.3s-1.8-1.4-2.4-2.3c-.7-1-1-2.2-1.1-3.5h4.1c0 .7.2 1.4.7 1.9.4.5 1 1 1.6 1.3s1.3.6 2 .7 1.4.2 2.1.2c1.2 0 2.4-.2 3.5-.7 1-.4 1.8-1.1 2.4-1.9.6-.9 1.1-1.9 1.3-3 .3-1.3.4-2.5.4-3.8v-1.7c-.6 1.5-1.8 2.7-3.2 3.4s-3 1.1-4.6 1.1c-1.7 0-3.3-.3-4.9-1-1.4-.7-2.5-1.6-3.5-2.8s-1.7-2.6-2.1-4c-.5-1.6-.7-3.2-.7-4.9 0-1.6.2-3.1.6-4.6s1-3 1.9-4.3 2.2-2.4 3.6-3.1c1.7-.9 3.6-1.3 5.5-1.2 1.5 0 3 .3 4.4 1 1.3.7 2.4 1.8 3.1 3.1v-3.6h3.9v22.9c.2 3.4-.8 6.7-2.9 9.4m-5.4-11.3c.9-.6 1.7-1.3 2.3-2.2.6-1 1-2 1.3-3.1s.4-2.3.4-3.5c0-1.1-.1-2.2-.4-3.2-.2-1-.6-2-1.2-2.9s-1.3-1.6-2.2-2.1c-1-.5-2.2-.8-3.3-.8-1.2 0-2.3.2-3.4.8-.9.5-1.7 1.2-2.3 2-.6.9-1.1 1.9-1.3 2.9-.3 1.1-.4 2.3-.4 3.5 0 1.1.1 2.3.3 3.4s.6 2.1 1.2 3.1c.5.9 1.3 1.7 2.2 2.2 1 .6 2.2.9 3.4.9 1.2-.1 2.4-.4 3.4-1M189.5 162.2c-2.1 1.5-4.6 2.2-7.1 2.1-1.8 0-3.6-.3-5.2-1-1.4-.6-2.7-1.5-3.7-2.7s-1.8-2.7-2.3-4.2c-.5-1.7-.8-3.5-.8-5.3s.3-3.6.9-5.2c.5-1.5 1.4-2.9 2.4-4.1s2.3-2.1 3.7-2.7c1.5-.6 3.1-1 4.7-.9 1.9-.1 3.9.4 5.6 1.4 1.4.9 2.7 2.1 3.6 3.5s1.5 3 1.9 4.7c.3 1.6.5 3.2.4 4.9h-18.8c0 1.1.1 2.1.4 3.1s.8 1.8 1.4 2.6q1 1.2 2.4 1.8c1.1.5 2.3.7 3.6.7 1.5.1 3-.4 4.3-1.2 1.2-.9 2-2.2 2.2-3.7h4.1c-.5 2.4-1.8 4.6-3.7 6.2m-1-16.1c-.4-.8-.9-1.6-1.5-2.3-.6-.6-1.4-1.2-2.2-1.5-.9-.4-1.9-.6-2.8-.6-1 0-2 .2-2.9.6-.8.4-1.6.9-2.2 1.5-.6.7-1.1 1.4-1.5 2.3s-.6 1.8-.6 2.8h14.5c-.2-1-.5-2-.8-2.8M231.3 162.2c-2.1 1.5-4.6 2.2-7.1 2.1-1.8 0-3.6-.3-5.2-1-1.4-.6-2.7-1.5-3.7-2.7s-1.8-2.7-2.2-4.2c-.5-1.7-.8-3.5-.9-5.3 0-1.8.3-3.6.9-5.2.5-1.5 1.4-2.9 2.4-4.1s2.3-2.1 3.7-2.7c1.5-.7 3.1-1 4.7-.9 1.9-.1 3.9.4 5.6 1.4 1.4.9 2.6 2.1 3.6 3.5.9 1.4 1.5 3 1.9 4.7.3 1.6.4 3.2.4 4.9h-18.8c0 1.1.1 2.1.4 3.1.6 2 2 3.6 3.9 4.4 1.1.5 2.3.7 3.6.7 1.5.1 3-.4 4.3-1.2 1.2-.9 2-2.2 2.2-3.7h4.1c-.6 2.4-1.9 4.7-3.8 6.2m-1.1-16.1c-.3-.8-.9-1.6-1.5-2.3-.7-.6-1.4-1.1-2.2-1.5-.9-.4-1.9-.6-2.8-.6-1 0-2 .2-2.9.6-.8.4-1.6.9-2.2 1.5-.6.7-1.1 1.4-1.4 2.3-.4.9-.6 1.8-.6 2.8H231c-.2-1-.4-2-.8-2.8" class="s2"/><path d="M244.5 138.7v4c1.6-3 4.8-4.7 8.2-4.6 1.4 0 2.8.2 4.1.7 1 .4 2 1.1 2.7 1.9s1.2 1.8 1.4 2.9c.3 1.2.4 2.5.4 3.7v16.6h-4.1v-17c.1-1.4-.4-2.7-1.4-3.7-1-.9-2.3-1.4-3.7-1.4q-1.7 0-3.3.6c-.9.4-1.7.9-2.3 1.7-.6.7-1.1 1.5-1.4 2.4-.3 1-.5 2.1-.5 3.1v14.3h-4.1v-25.2" class="s2"/><path fill-rule="evenodd" d="M285.7 162.2c-2.1 1.5-4.6 2.2-7.1 2.1-1.8 0-3.6-.3-5.2-1-1.4-.6-2.7-1.5-3.7-2.7s-1.8-2.7-2.3-4.2c-.5-1.7-.8-3.5-.8-5.3s.3-3.6.9-5.2c.5-1.5 1.4-2.9 2.4-4.1s2.3-2.1 3.7-2.7c1.5-.7 3.1-1 4.7-.9 1.9-.1 3.9.4 5.6 1.4 1.4.9 2.7 2.1 3.6 3.5s1.5 3 1.9 4.7c.3 1.6.5 3.2.4 4.9H271c0 1.1.1 2.1.4 3.1s.8 1.8 1.4 2.6q1 1.2 2.4 1.8c1.1.5 2.3.7 3.5.7 1.5.1 3.1-.4 4.3-1.2 1.2-.9 2-2.2 2.2-3.7h4.1c-.4 2.4-1.7 4.6-3.6 6.2m-1-16.1c-.3-.8-.9-1.6-1.5-2.3-.6-.6-1.4-1.2-2.2-1.5-1.8-.7-3.9-.7-5.7 0-.8.4-1.6.9-2.2 1.5-.6.7-1.1 1.4-1.5 2.3s-.6 1.8-.6 2.8h14.4c-.2-1-.4-2-.7-2.8" class="s2"/><path d="M298.8 138.7v5.3c.8-1.8 2.1-3.4 3.7-4.5 1.7-1 3.6-1.5 5.6-1.3v4.4c-1.4 0-2.9.2-4.2.7-1.1.4-2.1 1.1-2.8 2s-1.3 2-1.6 3.2c-.3 1.4-.5 2.8-.5 4.3v11.3h-4.1v-25.2" class="s2"/><path fill-rule="evenodd" d="M329.8 170.9c-2.4 2.2-5.6 3.3-8.8 3.1-1.2 0-2.4-.1-3.6-.4-1.2-.2-2.3-.7-3.3-1.3s-1.8-1.4-2.4-2.3c-.7-1-1-2.2-1.1-3.5h4.1c0 .7.3 1.4.7 1.9s1 1 1.6 1.3c.7.3 1.4.6 2.1.7s1.4.2 2.1.2c1.2 0 2.4-.2 3.5-.7 1-.4 1.8-1.1 2.4-1.9.6-.9 1.1-1.9 1.3-3 .3-1.3.4-2.5.4-3.8v-1.7c-.6 1.5-1.8 2.7-3.2 3.4s-3 1.1-4.6 1.1c-1.7 0-3.3-.3-4.9-1-1.4-.7-2.6-1.6-3.5-2.8-1-1.2-1.7-2.6-2.1-4-.5-1.6-.7-3.2-.7-4.9 0-1.6.2-3.1.6-4.6s1-3 1.9-4.3 2.2-2.4 3.6-3.1c1.7-.9 3.6-1.3 5.5-1.2 1.5 0 3 .3 4.4 1 1.3.7 2.4 1.8 3.1 3.1v-3.6h3.8v22.9c.3 3.3-.7 6.6-2.8 9.2m-5.4-11.1c.9-.5 1.7-1.3 2.3-2.2.6-1 1-2 1.3-3.1s.4-2.3.4-3.5c0-1.1-.1-2.2-.4-3.2-.2-1-.7-2-1.3-2.9s-1.3-1.6-2.2-2.1c-1-.5-2.1-.8-3.3-.8s-2.4.2-3.4.8c-.9.5-1.7 1.2-2.3 2-.6.9-1.1 1.9-1.3 2.9-.3 1.1-.4 2.3-.4 3.5 0 1.1.1 2.3.3 3.4s.6 2.1 1.2 3.1c.5.9 1.3 1.7 2.2 2.2 1 .6 2.2.9 3.4.9 1.2-.1 2.4-.4 3.5-1" class="s2"/><path d="M348.4 170.2c-.4.8-.9 1.5-1.6 2.1-.5.5-1.2.9-1.9 1.1-.8.3-1.6.4-2.4.4H341c-.5-.1-1-.2-1.4-.3v-3.8l1.2.4c.4.1.8.2 1.2.2.7 0 1.4-.2 2-.6s1-1 1.4-1.7l1.7-4.2-10-25h4.7l7.3 20.6 7-20.6h4.4l-10.9 28.4c-.4 1.1-.9 2.1-1.4 3.1" class="s2"/><path fill-rule="evenodd" d="M384.2 129.1v13c.6-1.4 1.8-2.5 3.2-3 1.5-.6 3.2-1 4.9-.9 1.7 0 3.5.3 5.1 1.1 1.4.7 2.6 1.7 3.6 2.9 1 1.3 1.7 2.7 2.2 4.2.5 1.6.7 3.3.7 5s-.2 3.4-.7 5c-.4 1.5-1.2 2.9-2.1 4.1-1 1.2-2.2 2.1-3.6 2.8-1.6.7-3.3 1.1-5 1-.7 0-1.4-.1-2.1-.2-.8-.1-1.5-.3-2.2-.6q-1.2-.4-2.1-1.2c-.7-.5-1.2-1.2-1.7-1.9v3.5h-4.1v-34.7m18.8 18.4c-.3-1.1-.8-2.1-1.4-3s-1.5-1.6-2.4-2.1c-1.1-.5-2.3-.8-3.5-.8s-2.5.2-3.6.8c-1 .5-1.8 1.3-2.4 2.2s-1.1 1.9-1.3 3c-.3 1.1-.4 2.3-.4 3.4 0 1.2.1 2.4.4 3.6.3 1.1.7 2.1 1.4 3 .6.9 1.5 1.6 2.4 2.1 1.1.5 2.4.8 3.7.8 1.2 0 2.5-.2 3.6-.8.9-.5 1.7-1.3 2.3-2.2.6-1 1-2 1.3-3.1.3-1.2.4-2.4.4-3.6-.1-1.1-.3-2.2-.5-3.3M427 162.2c-2.1 1.5-4.6 2.2-7.1 2.1-1.8 0-3.6-.3-5.2-1-1.4-.6-2.7-1.5-3.7-2.7s-1.8-2.7-2.3-4.2c-.5-1.7-.8-3.5-.9-5.3 0-1.8.3-3.6.9-5.2.5-1.5 1.4-2.9 2.4-4.1s2.3-2.1 3.7-2.7c1.5-.6 3.1-1 4.7-.9 2-.1 3.9.4 5.6 1.4 1.4.9 2.7 2.1 3.6 3.5s1.5 3 1.9 4.7c.3 1.6.5 3.2.4 4.9h-18.8c0 1.1.1 2.1.4 3.1s.8 1.8 1.4 2.6q1 1.2 2.4 1.8c1.1.5 2.3.7 3.5.7 1.5.1 3.1-.4 4.3-1.2 1.2-.9 2-2.2 2.2-3.7h4.1c-.2 2.4-1.5 4.6-3.5 6.2m-1-16.1c-.3-.8-.9-1.6-1.5-2.3-.6-.6-1.4-1.1-2.2-1.5-.9-.4-1.9-.6-2.8-.6-1 0-2 .2-2.9.6-.8.4-1.6.9-2.2 1.5-.6.7-1.1 1.4-1.5 2.3s-.6 1.8-.6 2.8h14.5c-.2-1-.4-2-.8-2.8" class="s2"/><path d="M446.7 138.7v3.6h-5v15.6c0 .4 0 .8.1 1.2.1.3.2.5.5.7q.5.3.9.3h3.5v3.8h-3.2c-.9 0-1.8-.1-2.8-.2-.7-.1-1.3-.4-1.9-.8-.5-.4-.9-1-1-1.6-.3-.9-.4-1.9-.3-2.8v-16h-4.2v-3.6h4.3v-7.5h4.1v7.5M463.1 138.7v3.6h-5v15.6c0 .4 0 .8.1 1.2.1.3.2.5.5.7q.5.3.9.3h3.5v3.8h-3.2c-.9 0-1.8-.1-2.8-.2-.7-.1-1.3-.4-1.9-.8-.5-.4-.8-1-1-1.6-.3-.9-.4-1.9-.3-2.8v-16h-4.3v-3.6h4.3v-7.5h4.1v7.5" class="s2"/><path fill-rule="evenodd" d="M485.9 162.2c-2.1 1.5-4.6 2.2-7.1 2.1-1.8 0-3.6-.3-5.2-1-1.4-.6-2.7-1.5-3.7-2.7s-1.8-2.6-2.3-4.2c-.5-1.7-.8-3.5-.9-5.3 0-1.8.3-3.6.9-5.2.5-1.5 1.4-2.9 2.4-4.1 2.2-2.4 5.3-3.7 8.5-3.7 1.9-.1 3.9.4 5.6 1.4 1.4.9 2.7 2.1 3.6 3.5s1.5 3 1.9 4.7c.3 1.6.5 3.2.4 4.9h-18.8c0 1.1.1 2.1.4 3.1s.8 1.8 1.4 2.6q1 1.2 2.4 1.8c1.1.5 2.3.7 3.6.7 1.5.1 3-.4 4.3-1.2 1.2-.9 2-2.2 2.2-3.7h4.1c-.5 2.5-1.8 4.7-3.7 6.3m-1-16.1c-.3-.8-.9-1.6-1.5-2.3-.6-.6-1.4-1.1-2.2-1.5-.9-.4-1.9-.6-2.8-.6-1 0-2 .2-2.9.6-.8.4-1.6.9-2.2 1.5-.6.7-1.1 1.4-1.5 2.3s-.6 1.8-.6 2.8h14.5c-.2-1-.4-2-.8-2.8" class="s2"/><path d="M499.1 138.7v5.3c.8-1.8 2.1-3.4 3.7-4.5 1.7-1 3.6-1.5 5.5-1.3v4.4c-1.4 0-2.9.2-4.2.7-1.1.4-2.1 1.1-2.8 2s-1.3 2-1.5 3.2c-.4 1.4-.5 2.8-.5 4.3v11.3h-4.1v-25.2" class="s2"/></svg>