<svg version="1.2" xmlns="http://www.w3.org/2000/svg" viewBox="0 0 480 241"><style></style><path  d="m120.4 0c66.5 0 120.4 53.9 120.4 120.4 0 26-8.2 50-22.2 69.7l-61.7-30.1c10.7-9.8 17.4-23.9 17.4-39.6 0-29.7-24.1-53.8-53.9-53.8-29.7 0-53.8 24.1-53.8 53.8 0 29.7 24.1 53.8 53.8 53.8 14 0 26.8-5.3 36.4-14.1l18.1 67.7c-16.3 8.3-34.9 13-54.5 13-66.5 0-120.4-53.9-120.4-120.4 0-66.5 53.9-120.4 120.4-120.4zm353 92.1l-70.2 91.6h76.8v52.5h-153.6v-40.1l70.5-91.9h-68.9v-52.5h145.4v40.4zm-160.1 143.8l-62.6-30.4v-153.8h62.6z"/></svg>
