<svg viewBox="0 0 64 32" fill="none" 
  xmlns="http://www.w3.org/2000/svg">
  <path d="M16 0C24.8365 6.56954e-05 31.9999 7.16348 32 16C32 19.4509 30.9068 22.6462 29.0488 25.2598L20.8457 21.2617C22.2647 19.9543 23.1552 18.0816 23.1553 16C23.1552 12.0485 19.9515 8.84479 16 8.84473C12.0485 8.84479 8.84485 12.0485 8.84473 16C8.84478 19.9515 12.0485 23.1552 16 23.1553C17.8647 23.1552 19.5615 22.4401 20.835 21.2715L23.2461 30.2686C21.0706 31.3756 18.6083 32 16 32C7.16343 31.9999 5.82852e-05 24.8366 0 16C0.000119053 7.16348 7.16347 6.59726e-05 16 0ZM62.9121 12.2334L53.5811 24.4062H63.7891V31.3877H43.374V26.0557L52.7393 13.8477H43.584V6.86621H62.9121V12.2334ZM41.6328 31.3418L33.3193 27.3105V6.86621H41.6328V31.3418Z" fill="white"/>
</svg>
