<?xml version="1.0" encoding="UTF-8"?><svg id="Layer_1" xmlns="http://www.w3.org/2000/svg" viewBox="0 0 512 512"><defs><style>.cls-1{fill:#fff;}</style></defs><rect class="cls-1" width="512" height="512"/><path d="M136.4,136c66.5,0,120.4,53.9,120.4,120.4,0,25.97-8.22,50.02-22.2,69.68l-61.72-30.08c10.68-9.84,17.37-23.94,17.37-39.6,0-29.74-24.1-53.84-53.84-53.84s-53.84,24.1-53.84,53.84c0,29.74,24.1,53.84,53.84,53.84,14.03,0,26.81-5.37,36.39-14.16l18.14,67.69c-16.37,8.33-34.9,13.03-54.53,13.03-66.49,0-120.4-53.9-120.4-120.4,0-66.49,53.9-120.4,120.4-120.4ZM489.4,228.06l-70.21,91.6h76.81v52.53h-153.62v-40.12l70.47-91.86h-68.89v-52.53h145.43v40.39ZM329.28,371.85l-62.56-30.34v-153.84h62.56v184.18Z"/></svg>
