<svg xmlns="http://www.w3.org/2000/svg" width="769" height="293"><path fill="#6004fe" d="M165.853 82.994c15.875 14.405 27.947 33.927 29.324 55.82.587 27.772-4.517 49.955-23.939 70.877-8.982 9.265-19.585 15.825-31.238 21.309q1.901 1.475 3.813 2.938l2.144 1.652c5.295 3.654 11.89 2.909 18.043 2.41 7.022-1.716 12.515-5.404 18-10 4.204 1.565 6.56 4.69 9.313 8.063l1.456 1.752c3.844 4.65 7.59 9.375 11.231 14.185-7.112 11.658-19.595 18.031-32.562 21.313-21.606 3.612-43.35-.983-61.438-13.313-7.522-5.565-15.683-11.716-21.621-18.984-4.186-5.088-8.836-6.189-15.05-7.536C57.169 229.947 43.687 221.498 32 210l-2.344-2.305C12.294 189.56 7.32 166.835 7.684 142.453 7.96 134.488 9.357 127.523 12 120l1.133-3.246c8.399-21.832 25.93-38.573 47.027-48.195C67.925 65.399 75.753 63.443 84 62l2.285-.402c27.841-3.916 58.1 2.812 79.568 21.396m-95.595 30.65c-11.395 11.888-13.762 24.04-13.531 40 .425 12.042 4.983 23.17 13.632 31.676 10.377 8.733 21.52 12.174 35.079 11.618 14.219-1.514 24.046-7.923 32.937-18.875 8.746-12.389 9.425-28.371 6.977-42.915-2.064-7.389-5.46-13.272-10.352-19.148l-1.656-1.996c-8.05-8.827-19.357-12.243-30.969-12.969-12.573-.13-23.091 3.937-32.117 12.61"/><path fill="#6004fd" d="M199 65h147v32h-54v136h-40V97h-53z"/><path fill="#6004fe" d="M603.492 115.746c11.4 9.231 15.766 22.15 17.508 36.254.085 2.753.127 5.479.114 8.23v2.397c0 2.592-.008 5.184-.016 7.775l-.005 5.418q-.006 7.105-.024 14.21-.014 7.26-.02 14.519-.016 14.226-.049 28.451h-18l-.06-7.001q-.102-11.496-.228-22.99-.076-6.965-.134-13.93a3867 3867 0 0 0-.136-13.46q-.028-2.557-.045-5.116c.112-15.953.112-15.953-4.897-30.878l-1.281-2.398L595 135l-.906-2.164C592.697 130.49 591.5 130.04 589 129l-2.437-1.254-2.563-1.308-2.562-1.317c-9.385-4.316-23.547-3.475-33.188-.496-8.999 3.62-17.124 10.17-21.54 18.934-2.784 6.741-3.856 12.786-3.915 20.077l-.03 2.278q-.047 3.709-.081 7.418l-.063 5.158a9008 9008 0 0 0-.153 13.548q-.077 6.917-.161 13.835-.161 13.564-.307 27.127h-18V107h17l1 19 2.813-3.562c19.207-21.836 55.775-22.74 78.68-6.692M691.367 105.844c19.143-.682 36.63 5.856 50.758 18.719 12.303 12.9 17.342 30.558 17.078 48.046-.97 16.184-6.455 32.71-18.203 44.391-15.707 13.653-33.41 18.436-54 17-16.623-1.871-31.7-9.03-42.504-22.008C633.392 197.26 629.584 180.177 631 162c2.405-17.008 9.365-32.051 23-43 11.502-7.748 23.461-12.238 37.367-13.156m-32.035 30.215C649.706 148.2 646.939 161.767 648 177c2.069 14.208 7.817 26.055 19.453 34.855 12.397 7.895 25.983 8.904 40.277 6.524 11.615-3.122 20.939-10.18 27.27-20.379 7.788-13.977 8.823-28.88 4.834-44.202-3.194-11.163-9.848-20.395-19.729-26.622-20.186-10.702-44.828-7.966-60.773 8.883M435 103v29l-7.312.25c-10.424.56-20.152 3.076-27.688 10.75-8.2 10.77-8.457 24.299-8.512 37.266l-.054 4.59c-.047 3.984-.077 7.969-.104 11.954-.035 4.803-.092 9.607-.145 14.41-.078 7.26-.129 14.52-.185 21.78h-31V104h29c1.996 1.996 1.41 5.817 1.563 8.563l.13 2.154q.159 2.64.307 5.283l1.688-2.277c7.243-8.528 18.28-12.268 28.937-14.473 4.447-.33 8.916-.25 13.375-.25M451 104h32v129h-32zM475.25 50.063c4.419 3.113 8.024 6.759 9.75 11.937.665 7.459.664 12.985-4 19-4.23 4.23-7.804 6.14-13.812 6.25-5.373-.086-8.933-1.005-12.848-4.902-5.058-5.656-5.647-9.875-5.547-17.407.398-5.651 2.633-8.593 6.707-12.254 5.698-4.76 12.854-4.88 19.75-2.624"/></svg>