<svg xmlns="http://www.w3.org/2000/svg" width="397" height="124"><path fill="#07021f" d="M67.121 17.496C74.457 23.368 79.003 30.834 81 40c1.12 13.872 1.029 28.026-8.238 39.254-6.859 6.798-15.584 10.887-25.176 11.762C42.323 90.984 37.16 89.965 32 89l-3 4c7.608 2.73 15.291 4.55 23.188 6.25l3.771.852 3.646.789 3.286.72c3.317.415 5.857.096 9.109-.611l2.875-.562L77 100c-1.359 4.225-3.137 6.39-6.5 9.25l-2.406 2.078c-3.917 3.128-7.24 3.08-12.094 2.672-5.052-.854-10.055-1.921-15.062-3q-3.02-.651-6.043-1.284a989 989 0 0 1-5.473-1.165C24.259 107.72 19.553 107.086 15 110l-1-2c.757-1.6.757-1.6 1.984-3.484l1.336-2.086 1.43-2.18C21.767 95.597 24.628 91.028 27 86l-1.504-.926C17.283 79.542 12.097 71.686 10 62c-1.223-13.74-.976-26.27 7.188-37.812C29.805 9.18 50.91 6.525 67.12 17.496m-34.496 3.629c-4.089 8.542-3.943 18.054-3.886 27.325.011 2.047 0 4.093-.012 6.14-.012 10.52.056 21.377 7.273 29.722 3.63 3.064 7.252 2.969 11.785 2.903 4.186-.406 6.376-2.426 9.34-5.215 5.436-8.698 5.351-18.759 5.266-28.697-.016-2.234 0-4.466.02-6.7.013-9.54-.319-19.192-5.161-27.665-3.51-3.022-7.14-4.56-11.687-5.375-5.586.953-9.498 3.036-12.938 7.562"/><path fill="#07011f" d="m258 32 2 6 1.645-1.059 2.168-1.379 2.144-1.37c5.524-3.222 11.85-2.74 18.043-2.192 4.62 2.151 6.846 4.433 9 9 .439 3.033.441 6.037.441 9.098l.04 2.64c.041 2.775.063 5.55.082 8.325q.033 4.167.091 8.335.038 2.589.044 5.178l.03 2.377.014 2.081c.312 2.38.955 3.952 2.258 5.966l3 1v2h-28v-2l1.938-.812C275.33 84.113 275.33 84.113 276 81c.109-2.757.164-5.488.168-8.246l.01-2.447q.007-2.561.007-5.122c.002-2.61.02-5.218.04-7.828q.005-2.49.005-4.978l.022-2.362c.03-5.346.03-5.346-2.252-10.017-3.844-1.31-5.51-1.217-9.25.438L262 42h-2q.104 8.918.262 17.834.051 3.036.084 6.07c.034 2.905.086 5.809.142 8.713l.02 2.753.06 2.547.033 2.248c.266 2.249.266 2.249 3.399 3.835v2h-27v-2l1.938-.812C241.33 84.113 241.33 84.113 242 81c.097-2.696.14-5.366.133-8.062l.003-2.387q0-2.498-.006-4.993c-.005-2.548 0-5.096.007-7.644q0-2.425-.004-4.852l.006-2.31c-.014-3.183-.125-5.71-1.139-8.752-2-1.209-2-1.209-4-2v-2q4.12-1.51 8.25-3l2.355-.867 2.286-.82 2.094-.762C254 32 254 32 258 32"/><path fill="#0a071c" d="M348 15c3.355 1.772 5.464 3.292 7.75 6.313 2.775 2.08 3.632 1.802 7 1.437l2.64-.383c8.853-1.246 8.853-1.246 12.61.633 1.032 4.93.927 9.437.625 14.438-.07 5.368.178 8.333 3.813 12.374A192 192 0 0 0 386 53c1.555 3.11 1.286 5.563 1 9-1.717 3.189-2.96 5.41-6.14 7.215-2.234 1.746-2.234 1.746-2.11 5.148l.5 7.875c-.297 4.462-1.375 6.383-4.25 9.762-4.87 3.42-11.52 2.397-17.125 1.5L356 93l-.687 1.75c-2.006 3.438-4.332 5.646-8.208 6.828-4.888.86-7.868.215-12.105-2.578-2.375-2.062-2.375-2.062-4-4v-2l-1.875.5c-5.957.953-11.129 1.498-16.625-1.25-3.253-2.927-4.383-4.771-4.73-9.16l.043-3.153.019-3.16C308 74 308 74 309 71l-1.75-.687c-3.392-1.98-5.505-4.823-7.25-8.313-.599-6.107.608-9.1 4-14 2.25-1.937 2.25-1.937 4-3-.433-2.513-.678-3.715-2.625-5.437L304 38c.313-2.687.313-2.687 1-5l3-1 .875-2.312c1.477-3.528 2.836-4.729 6.125-6.688 5.12-1.219 9.86-1.186 15 0l1.688-2.312c4.716-5.482 9.256-6.823 16.312-5.688m-16 9c5.625 4.483 5.625 4.483 12.438 5.938 3.465-1.268 6.408-3.02 9.562-4.938-1.502-3.824-3.52-5.835-7-8-7.049-1.463-10.362 2.278-15 7m-19.25 2.438c-2.01 2.941-1.908 3.598-1.5 7 .15.74.3 1.482.453 2.246.341 2.66-.064 4.726-.703 7.316 1.774-.425 3.544-.865 5.313-1.312l2.988-.739c2.824-.993 3.951-1.562 5.699-3.949 1.219-2.718 1.219-2.718 2.188-5.687l1.042-3.012L329 26c-4.876-2.438-11.425-1.697-16.25.438M358 27c2.148 7.998 2.148 7.998 7.71 13.688C369.125 41.906 372.354 43 376 43c.917-2.75 1.109-4.36 1.063-7.187L377 32l-2.937-1.25C371 29 371 29 370.309 26.89L370 25a365 365 0 0 0-4.875-.125l-2.742-.07c-2.571-.048-2.571-.048-4.383 2.195m-27 0a418 418 0 0 0-2 3.813l-1.125 2.144c-1.072 2.132-1.072 2.132-.875 5.043 6.517-.337 9.325-1.442 14-6-3.125-2.645-6.088-3.844-10-5m18.875 2-2.195 1.125L346 31c3.112 3.379 5.532 5.74 10 7h4c-.506-4.355-1.384-7.442-4-11-2.525 0-3.889.846-6.125 2M343 33l-4 4h9zm-19 17c-1.659 6.045-1.598 12.762 1.203 18.438C326.68 70.24 328.15 71.592 330 73l2.625 2.375C337.323 78.59 342.478 78.387 348 78c6.336-1.728 11.525-6.498 15-12 1.639-6.928 1.495-13.213-1.871-19.488-4.509-5.291-8.56-8.034-15.428-8.813C335.723 37.363 328.867 40.956 324 50m3-10-2 3 1 3 4-6zm30 0 4 6 1-3-2-3zm-41.187 4L312 46l5 10c3.95-4.74 6.35-7.704 6-14-3.196 0-4.417.547-7.187 2M364 42c-.747 5.979 1.677 9.324 5 14 2.273-2.069 3.557-3.834 4.688-6.687L375 46a418 418 0 0 0-3.812-2l-2.145-1.125c-2.132-1.072-2.132-1.072-5.043-.875m-56.375 6.32c-4.591 5.076-4.591 5.076-5.625 11.68 1.313 3.453 2.828 6.343 6.145 8.203L310 69c2.64-3.5 4.754-6.773 6-11-1.246-4.227-3.36-7.5-6-11-1.197-.115-1.197-.115-2.375 1.32M377 47c-2.584 3.856-4.739 7.513-6 12 1.234 3.98 3.294 6.863 6 10 4.405-2.448 6.286-4.144 8-9 .112-5.255-2.27-7.954-5.625-11.68-1.178-1.435-1.178-1.435-2.375-1.32m-56 7c-2.268 2.7-2.268 2.7-1.75 5.125.587 2.07.587 2.07 2.75 2.875v-8zm44 0v8l3-2c-.344-2.473-.344-2.473-1-5zm-48 7c-2.34 3.32-4.177 6.015-5 10q2.185 1.006 4.375 2l2.46 1.125c2.085 1 2.085 1 4.165.875-.12-5.027-.246-8.099-3.562-12.062zm52 0c-4.342 4.342-4.744 8.136-5 14 1.648-.449 3.294-.91 4.938-1.375l2.777-.773c2.452-.619 2.452-.619 3.285-2.852-.692-1.986-.692-1.986-1.812-4.062l-1.083-2.16c-.99-1.938-.99-1.938-3.105-2.778m-44 10 1 5 5 1a318 318 0 0 0-5-6zm36 0a318 318 0 0 0-5 6l5-1 1-5zm-50 2c-.924 2.77-1.163 4.567-1.187 7.438l-.043 2.308c.26 2.547.863 4.097 2.23 6.254 4.404 2.868 7.79 3.482 13 3a65 65 0 0 0 4-2c-2.209-8.14-2.209-8.14-7.969-13.91-4.855-2.175-4.855-2.175-10.031-3.09m64 0-12 4c-1.144 5.432-1.144 5.432-.812 8.688C362 88 362 88 360 89.812L358 91c4.686 1.5 9.227 1.806 13.75-.25 3.15-2.436 3.15-2.436 5.25-5.75.55-4.736.69-7.964-2-12m-48 5c.551 3.95 1.39 7.35 3 11 4.39-.51 7.337-1.522 11-4-3.686-4.244-6.498-5.858-12-7zm21.063 4.625L346 85l3.313 2.063 1.863 1.16C353.17 89.31 353.17 89.31 356 88l-1-3 1-3c2.063-.687 2.063-.687 4-1v-3c-4.857 0-8.35 1.42-11.937 4.625M340 80l2 3c1.975-.348 1.975-.348 4-1l1-2zm-2.687 8.188A82 82 0 0 0 333 91c.583 2.892.97 3.966 3 6.25 4.07 2.375 7.39 2.585 12 1.75 3.021-1.762 4.634-2.745 5.625-6.14L354 91c-5.93-3.664-10.1-6.205-16.687-2.812"/><path fill="#08021f" d="M86 13h66v19h-3l-1.39-2.773-1.86-3.602-.91-1.828c-2-3.829-2.808-4.78-6.84-6.797l-10-1 1 67 8 3v2h-37v-2l1.715-.586 2.222-.789 2.215-.773c2.035-.705 2.035-.705 2.848-2.852.062-2.888.066-5.754.031-8.64-.047-7.724.013-15.436.188-23.157l.067-2.975q.106-4.488.214-8.978l.145-6.23q.174-7.51.355-15.02-2.625.174-5.25.375c-.975.07-1.95.14-2.953.21-2.751.408-4.481.901-6.797 2.415a73 73 0 0 0-3.75 6.625l-.957 1.852A449 449 0 0 0 88 32h-3q-.04-3.906-.062-7.812l-.026-2.237c-.015-3.25.053-5.845 1.088-8.951M200 33c2.811 2.372 2.967 3.775 3.5 7.438-.5 3.562-.5 3.562-2.625 6.5C198 49 198 49 195 49.5c-4.727-.788-7.822-2.988-11-6.5-4.076 3.818-4.076 3.818-5.13 9.117l-.003 3.973-.003 2.122q0 2.223.006 4.446c.005 2.267 0 4.534-.007 6.801q0 2.16.004 4.318l.004 3.977c-.021 3.259-.021 3.259 1.129 6.246 3.008 1.225 3.008 1.225 6 2v2h-30v-2l4-2V42l-4-1v-3q4.12-1.51 8.25-3l2.355-.867 2.286-.82 2.094-.762C173 32 173 32 177 32l2 8 1.574-1.46c6.538-5.922 10.752-9.164 19.426-5.54"/><path fill="#08011f" d="m228 32 1 53 4 1v2h-27v-2l4-2V43l-4-2v-3c2.913-1.01 5.831-2.006 8.75-3l2.5-.867 2.422-.82 2.222-.762C224 32 224 32 228 32"/><path fill="#07021e" d="M348 47c3.29 1.727 3.814 2.442 5 6 .367 3.965.356 6.317-1.5 9.875-3.349 2.846-6.146 3.437-10.5 3.125-3.62-1.574-4.793-2.689-7-6-.545-4.827-.713-6.896 1.938-11 4.1-2.678 7.29-2.83 12.062-2"/><path fill="#08031f" d="M221.84 8.52c3.662.814 5.132 2.405 7.16 5.48.658 4.095.418 6.199-1.5 9.875-3.349 2.846-6.146 3.437-10.5 3.125-3.62-1.574-4.793-2.689-7-6-.555-4.285-.464-6.297 1.938-9.937 3.576-2.409 5.667-2.805 9.902-2.543"/><path fill="#08041c" d="m358 70 2 1c-.75 1.938-.75 1.938-2 4-2.125.75-2.125.75-4 1l1 3-6 3v-2a365 365 0 0 0-4.875-.125l-2.742-.07c-2.571-.048-2.571-.048-4.383 2.195l-2-2v-3l2.668.07 3.52.055 3.48.07C350.915 76.83 353.82 74.538 358 70"/><path fill="#120d25" d="M99 13h17l-4 1-1 5-1-3-1.898.105-2.477.082-2.46.106L101 16z"/><path fill="#140e25" d="m332 75 3 1v3c-5.75.125-5.75.125-8-1v3h-2v-5c1.454.03 1.454.03 2.938.063 2.937.293 2.937.293 4.062-1.063"/><path fill="#130e29" d="m363 53 3 1v10l-3 1z"/><path fill="#100d23" d="M324 23c8.4.55 8.4.55 12 4-4.962 0-8.651-.584-13-3z"/><path fill="#0f0c20" d="m45.688 10.938 3.011.027L51 11v1l-3.75.375c-3.126.382-5.539.93-8.25 2.625v-2l-2-1c3.15-1.05 5.388-1.101 8.688-1.062"/></svg>