<?xml version="1.0" encoding="UTF-8"?>
<svg version="1.1" xmlns="http://www.w3.org/2000/svg" width="397" height="124">
<path d="M0 0 C7.3360193 5.87186576 11.88235664 13.33825884 13.87890625 22.50390625 C14.99937219 36.37604732 14.90757032 50.53010293 5.640625 61.7578125 C-1.21803868 68.55564546 -9.94284271 72.644443 -19.53515625 73.51953125 C-24.7976894 73.48773347 -29.96118647 72.46889664 -35.12109375 71.50390625 C-36.11109375 72.82390625 -37.10109375 74.14390625 -38.12109375 75.50390625 C-30.51355795 78.23439478 -22.82961087 80.05335264 -14.93359375 81.75390625 C-13.68900391 82.03492187 -12.44441406 82.3159375 -11.16210938 82.60546875 C-9.95876953 82.86585937 -8.75542969 83.12625 -7.515625 83.39453125 C-6.43128174 83.63204102 -5.34693848 83.86955078 -4.22973633 84.11425781 C-0.91285624 84.53000749 1.6265264 84.21110679 4.87890625 83.50390625 C5.82765625 83.31828125 6.77640625 83.13265625 7.75390625 82.94140625 C8.80578125 82.72484375 8.80578125 82.72484375 9.87890625 82.50390625 C8.51992389 86.72856881 6.74173971 88.89331415 3.37890625 91.75390625 C2.58484375 92.4396875 1.79078125 93.12546875 0.97265625 93.83203125 C-2.94406437 96.95956189 -6.2674569 96.91127941 -11.12109375 96.50390625 C-16.17287802 95.65029085 -21.17621865 94.58273342 -26.18359375 93.50390625 C-28.19679284 93.07131402 -30.21035528 92.64133181 -32.22593689 92.2199707 C-34.05185669 91.83823143 -35.87573237 91.44675249 -37.69946289 91.0546875 C-42.86203379 90.22366645 -47.56803646 89.58994958 -52.12109375 92.50390625 C-52.45109375 91.84390625 -52.78109375 91.18390625 -53.12109375 90.50390625 C-52.36425781 88.90332031 -52.36425781 88.90332031 -51.13671875 87.01953125 C-50.69585937 86.33117187 -50.255 85.6428125 -49.80078125 84.93359375 C-49.09308594 83.85464844 -49.09308594 83.85464844 -48.37109375 82.75390625 C-45.35441652 78.10106509 -42.49288894 73.53211206 -40.12109375 68.50390625 C-40.61738281 68.19839844 -41.11367188 67.89289063 -41.625 67.578125 C-49.83782483 62.04576672 -55.02368446 54.18958407 -57.12109375 44.50390625 C-58.34414103 30.76317624 -58.09711035 18.23423902 -49.93359375 6.69140625 C-37.31606181 -8.31540301 -16.21092405 -10.97102941 0 0 Z M-34.49609375 3.62890625 C-38.58509136 12.17131186 -38.43954366 21.68264506 -38.38183594 30.95361328 C-38.37111093 33.00062674 -38.38178965 35.04676297 -38.39453125 37.09375 C-38.40583283 47.61424742 -38.33841557 58.47137789 -31.12109375 66.81640625 C-27.49028947 69.87989736 -23.86883759 69.7848701 -19.3359375 69.71875 C-15.1499993 69.31270661 -12.95990264 67.29337344 -9.99609375 64.50390625 C-4.55991724 55.80602383 -4.64512227 45.74508522 -4.72998047 35.80688477 C-4.74604556 33.57310705 -4.73006478 31.34114452 -4.7109375 29.10742188 C-4.69720304 19.56771841 -5.02906509 9.91495641 -9.87109375 1.44140625 C-13.38050326 -1.58058527 -17.01183115 -3.11750815 -21.55859375 -3.93359375 C-27.14437525 -2.97992374 -31.05622478 -0.89723713 -34.49609375 3.62890625 Z " fill="#07021F" transform="translate(67.12109375,17.49609375)"/>
<path d="M0 0 C0.66 1.98 1.32 3.96 2 6 C2.54269531 5.65066406 3.08539063 5.30132812 3.64453125 4.94140625 C4.35996094 4.48636719 5.07539063 4.03132813 5.8125 3.5625 C6.52019531 3.11003906 7.22789062 2.65757813 7.95703125 2.19140625 C13.48144999 -1.0302911 19.80679636 -0.5484756 26 0 C30.62064745 2.15099106 32.84581296 4.43269637 35 9 C35.43866628 12.03266668 35.44098258 15.03721513 35.44140625 18.09765625 C35.45461411 18.96893661 35.46782196 19.84021698 35.48143005 20.73789978 C35.52221798 23.51279941 35.54396864 26.28736899 35.5625 29.0625 C35.5863104 31.84110104 35.61445406 34.61939234 35.65428162 37.39781189 C35.67857905 39.12390855 35.69348605 40.85016923 35.69789124 42.57643127 C35.70807785 43.36082077 35.71826447 44.14521027 35.72875977 44.95336914 C35.73517235 45.98331749 35.73517235 45.98331749 35.74171448 47.03407288 C36.05435936 49.41375353 36.69709782 50.98580321 38 53 C38.99 53.33 39.98 53.66 41 54 C41 54.66 41 55.32 41 56 C31.76 56 22.52 56 13 56 C13 55.34 13 54.68 13 54 C13.639375 53.731875 14.27875 53.46375 14.9375 53.1875 C17.33131686 52.11332248 17.33131686 52.11332248 18 49 C18.10902956 46.24274311 18.164041 43.5115244 18.16796875 40.75390625 C18.17129715 39.94638412 18.17462555 39.138862 18.17805481 38.30686951 C18.18311513 36.59968637 18.18546341 34.89249336 18.18530273 33.18530273 C18.18748882 30.57584315 18.20565262 27.96680665 18.22460938 25.35742188 C18.22754357 23.69791811 18.22952819 22.03841234 18.23046875 20.37890625 C18.23765427 19.59963272 18.24483978 18.82035919 18.25224304 18.01747131 C18.28186605 12.67104985 18.28186605 12.67104985 16 8 C12.15590155 6.68951189 10.48964624 6.7834257 6.75 8.4375 C5.8425 8.953125 4.935 9.46875 4 10 C3.34 10 2.68 10 2 10 C2.06870701 15.94524425 2.15658932 21.88977368 2.26245117 27.83447266 C2.29575679 29.85782971 2.323771 31.88128093 2.34643555 33.90478516 C2.37987835 36.80932852 2.43218769 39.71300442 2.48828125 42.6171875 C2.49467117 43.52556366 2.5010611 44.43393982 2.50764465 45.36984253 C2.53733589 46.63092331 2.53733589 46.63092331 2.56762695 47.91748047 C2.57873001 48.65916473 2.58983307 49.400849 2.60127258 50.16500854 C2.86719253 52.41361836 2.86719253 52.41361836 6 54 C6 54.66 6 55.32 6 56 C-2.91 56 -11.82 56 -21 56 C-21 55.34 -21 54.68 -21 54 C-20.360625 53.731875 -19.72125 53.46375 -19.0625 53.1875 C-16.66868314 52.11332248 -16.66868314 52.11332248 -16 49 C-15.90302 46.30359012 -15.86003011 43.6338078 -15.8671875 40.9375 C-15.86623077 40.14980225 -15.86527405 39.36210449 -15.86428833 38.55053711 C-15.86360826 36.88622966 -15.86545047 35.22191953 -15.86962891 33.55761719 C-15.87497962 31.00970504 -15.86967808 28.46196917 -15.86328125 25.9140625 C-15.86394206 24.29687461 -15.86522329 22.67968683 -15.8671875 21.0625 C-15.86516327 20.29993896 -15.86313904 19.53737793 -15.86105347 18.75170898 C-15.87516906 15.56853084 -15.98590772 13.04227683 -17 10 C-19.00016466 8.79117904 -19.00016466 8.79117904 -21 8 C-21 7.34 -21 6.68 -21 6 C-18.25262623 4.99222971 -15.50250048 3.99358554 -12.75 3 C-11.97269531 2.71382812 -11.19539062 2.42765625 -10.39453125 2.1328125 C-9.64042969 1.86210938 -8.88632813 1.59140625 -8.109375 1.3125 C-7.41811523 1.06113281 -6.72685547 0.80976562 -6.01464844 0.55078125 C-4 0 -4 0 0 0 Z " fill="#07011F" transform="translate(258,32)"/>
<path d="M0 0 C3.35470973 1.77229948 5.46412764 3.29188296 7.75 6.3125 C10.52515356 8.39386517 11.3815375 8.11457445 14.75 7.75 C16.05710937 7.56050781 16.05710937 7.56050781 17.390625 7.3671875 C26.24299065 6.12149533 26.24299065 6.12149533 30 8 C31.03183121 12.92916956 30.92680256 17.43694376 30.625 22.4375 C30.55590103 27.80595812 30.80281924 30.77067577 34.4375 34.8125 C35.61300032 35.8882609 36.79813727 36.95377417 38 38 C39.5547669 41.10953379 39.28644437 43.56266761 39 47 C37.2828407 50.18901013 36.0408623 52.40929165 32.859375 54.21484375 C30.62637535 55.96086601 30.62637535 55.96086601 30.75 59.36328125 C30.91617408 61.98831248 31.08283783 64.61331276 31.25 67.23828125 C30.95345374 71.70037575 29.87462955 73.62131214 27 77 C22.13092252 80.41913086 15.48052511 79.39688402 9.875 78.5 C9.25625 78.335 8.6375 78.17 8 78 C7.773125 78.5775 7.54625 79.155 7.3125 79.75 C5.30673558 83.1884533 2.9805064 85.39563928 -0.89453125 86.578125 C-5.78261683 87.43797944 -8.76285854 86.79266142 -13 84 C-15.375 81.9375 -15.375 81.9375 -17 80 C-17 79.34 -17 78.68 -17 78 C-17.61875 78.165 -18.2375 78.33 -18.875 78.5 C-24.83213634 79.45314181 -30.00383499 79.99808251 -35.5 77.25 C-38.75250237 74.32274787 -39.88288108 72.47887451 -40.23046875 68.08984375 C-40.21628906 67.04957031 -40.20210938 66.00929688 -40.1875 64.9375 C-40.17783203 63.37322266 -40.17783203 63.37322266 -40.16796875 61.77734375 C-40 59 -40 59 -39 56 C-39.5775 55.773125 -40.155 55.54625 -40.75 55.3125 C-44.14222063 53.33370463 -46.25493471 50.49013058 -48 47 C-48.59877255 40.89251999 -47.39166508 37.89907179 -44 33 C-41.75 31.0625 -41.75 31.0625 -40 30 C-40.43328242 27.48696195 -40.6780133 26.28483439 -42.625 24.5625 C-43.07875 24.046875 -43.5325 23.53125 -44 23 C-43.6875 20.3125 -43.6875 20.3125 -43 18 C-42.01 17.67 -41.02 17.34 -40 17 C-39.71125 16.236875 -39.4225 15.47375 -39.125 14.6875 C-37.64842339 11.16012254 -36.2886177 9.9591765 -33 8 C-27.88005344 6.78141493 -23.139122 6.81404877 -18 8 C-17.443125 7.236875 -16.88625 6.47375 -16.3125 5.6875 C-11.5955975 0.20569439 -7.05641125 -1.13451135 0 0 Z M-16 9 C-10.37518115 13.48283403 -10.37518115 13.48283403 -3.5625 14.9375 C-0.09692342 13.66960613 2.8458323 11.91723919 6 10 C4.49755564 6.17559618 2.47989889 4.16527042 -1 2 C-8.04868681 0.537065 -11.36237898 4.2780586 -16 9 Z M-35.25 11.4375 C-37.2590664 14.37934723 -37.1581666 15.03611164 -36.75 18.4375 C-36.60046875 19.17871094 -36.4509375 19.91992188 -36.296875 20.68359375 C-35.95583117 23.34463313 -36.36051945 25.41010378 -37 28 C-35.22604492 27.57533503 -33.45589369 27.1347591 -31.6875 26.6875 C-30.20830078 26.32205078 -30.20830078 26.32205078 -28.69921875 25.94921875 C-25.87544315 24.95619781 -24.74760558 24.38697347 -23 22 C-21.78133025 19.28174215 -21.78133025 19.28174215 -20.8125 16.3125 C-20.46832031 15.31863281 -20.12414062 14.32476562 -19.76953125 13.30078125 C-19.38861328 12.16189453 -19.38861328 12.16189453 -19 11 C-23.87578243 8.56210878 -30.42502049 9.30337445 -35.25 11.4375 Z M10 12 C12.1484502 19.99805168 12.1484502 19.99805168 17.7109375 25.6875 C21.12369335 26.90570156 24.35274074 28 28 28 C28.91692961 25.24921116 29.10886083 23.64051087 29.0625 20.8125 C29.041875 19.554375 29.02125 18.29625 29 17 C28.030625 16.5875 27.06125 16.175 26.0625 15.75 C23 14 23 14 22.30859375 11.890625 C22.20675781 11.26671875 22.10492188 10.6428125 22 10 C20.37536158 9.94604522 18.75021459 9.90722805 17.125 9.875 C16.22007812 9.85179687 15.31515625 9.82859375 14.3828125 9.8046875 C11.81193006 9.75675164 11.81193006 9.75675164 10 12 Z M-17 12 C-17.67408308 13.26691507 -18.33900497 14.53870749 -19 15.8125 C-19.37125 16.52019531 -19.7425 17.22789063 -20.125 17.95703125 C-21.19685358 20.08920729 -21.19685358 20.08920729 -21 23 C-14.48277089 22.66290194 -11.67460782 21.55774263 -7 17 C-10.1254959 14.35534962 -13.08788267 13.15585285 -17 12 Z M1.875 14 C1.15054688 14.37125 0.42609375 14.7425 -0.3203125 15.125 C-1.15175781 15.558125 -1.15175781 15.558125 -2 16 C1.11184693 19.37857667 3.53220518 21.73985274 8 23 C9.32 23 10.64 23 12 23 C11.49357808 18.64477147 10.61588503 15.55760365 8 12 C5.47524538 12 4.11097066 12.84595063 1.875 14 Z M-5 18 C-6.32 19.32 -7.64 20.64 -9 22 C-6.03 22 -3.06 22 0 22 C-1.65 20.68 -3.3 19.36 -5 18 Z M-24 35 C-25.65901845 41.04527227 -25.59815512 47.76217923 -22.796875 53.4375 C-21.32087599 55.23977248 -19.84984179 56.5918462 -18 58 C-17.13375 58.78375 -16.2675 59.5675 -15.375 60.375 C-10.67685202 63.5895223 -5.52195026 63.38663566 0 63 C6.33585739 61.27203889 11.52524894 56.50168917 15 51 C16.63865167 44.07230745 16.49513116 37.78737395 13.12890625 31.51171875 C8.62046877 26.22099531 4.56892238 23.47797968 -2.29931641 22.69921875 C-12.2774708 22.36270234 -19.13337723 25.95619269 -24 35 Z M-21 25 C-21.99 26.485 -21.99 26.485 -23 28 C-22.67 28.99 -22.34 29.98 -22 31 C-20.68 29.02 -19.36 27.04 -18 25 C-18.99 25 -19.98 25 -21 25 Z M9 25 C10.98 27.97 10.98 27.97 13 31 C13.33 30.01 13.66 29.02 14 28 C13.34 27.01 12.68 26.02 12 25 C11.01 25 10.02 25 9 25 Z M-32.1875 29 C-33.445625 29.66 -34.70375 30.32 -36 31 C-34.35 34.3 -32.7 37.6 -31 41 C-27.05000157 36.26000189 -24.65024326 33.29562136 -25 27 C-28.19610552 27 -29.41717626 27.54671542 -32.1875 29 Z M16 27 C15.25262812 32.97897503 17.6768102 36.32379721 21 41 C23.27271445 38.93100225 24.55694402 37.16580795 25.6875 34.3125 C26.120625 33.219375 26.55375 32.12625 27 31 C25.73308493 30.32591692 24.46129251 29.66099503 23.1875 29 C22.47980469 28.62875 21.77210938 28.2575 21.04296875 27.875 C18.91079271 26.80314642 18.91079271 26.80314642 16 27 Z M-40.375 33.3203125 C-44.96613628 38.3958186 -44.96613628 38.3958186 -46 45 C-44.68691782 48.45318851 -43.17164121 51.34268581 -39.85546875 53.203125 C-39.24316406 53.46609375 -38.63085938 53.7290625 -38 54 C-35.35918878 50.4992323 -33.24616023 47.22656011 -32 43 C-33.24616023 38.77343989 -35.35918878 35.5007677 -38 32 C-39.19749343 31.88456381 -39.19749343 31.88456381 -40.375 33.3203125 Z M29 32 C26.41591159 35.85625501 24.26096265 39.51307457 23 44 C24.23418654 47.98025159 26.29356075 50.86330631 29 54 C33.40540336 51.55175125 35.28609877 49.85605348 37 45 C37.1117989 39.74545193 34.72975431 37.04602522 31.375 33.3203125 C30.19749343 31.88456381 30.19749343 31.88456381 29 32 Z M-27 39 C-29.26802406 41.69990757 -29.26802406 41.69990757 -28.75 44.125 C-28.16263073 46.1955029 -28.16263073 46.1955029 -26 47 C-26 44.36 -26 41.72 -26 39 C-26.33 39 -26.66 39 -27 39 Z M17 39 C17 41.64 17 44.28 17 47 C17.99 46.34 18.98 45.68 20 45 C19.65555119 42.52733235 19.65555119 42.52733235 19 40 C18.34 39.67 17.68 39.34 17 39 Z M-31 46 C-33.33946269 49.32052768 -35.17707746 52.01532244 -36 56 C-34.5437455 56.67119549 -33.08492133 57.33681807 -31.625 58 C-30.40683594 58.556875 -30.40683594 58.556875 -29.1640625 59.125 C-27.08001567 60.12495013 -27.08001567 60.12495013 -25 60 C-25.12047418 54.97294083 -25.24587237 51.90127449 -28.5625 47.9375 C-29.366875 47.298125 -30.17125 46.65875 -31 46 Z M21 46 C16.65757571 50.34242429 16.2555331 54.13551546 16 60 C17.64846769 59.55123384 19.29373455 59.09069512 20.9375 58.625 C21.85402344 58.36976562 22.77054687 58.11453125 23.71484375 57.8515625 C26.16745087 57.23339896 26.16745087 57.23339896 27 55 C26.30807593 53.01361474 26.30807593 53.01361474 25.1875 50.9375 C24.83042969 50.22464844 24.47335937 49.51179688 24.10546875 48.77734375 C23.11518817 46.8395501 23.11518817 46.8395501 21 46 Z M-23 56 C-22.67 57.65 -22.34 59.3 -22 61 C-20.35 61.33 -18.7 61.66 -17 62 C-18.64169528 59.97945196 -20.30911778 57.97956942 -22 56 C-22.33 56 -22.66 56 -23 56 Z M13 56 C11.30911778 57.97956942 9.64169528 59.97945196 8 62 C9.65 61.67 11.3 61.34 13 61 C13.33 59.35 13.66 57.7 14 56 C13.67 56 13.34 56 13 56 Z M-37 58 C-37.92350727 60.77052181 -38.16329585 62.56688758 -38.1875 65.4375 C-38.20167969 66.19933594 -38.21585937 66.96117188 -38.23046875 67.74609375 C-37.97000803 70.29331126 -37.36727945 71.84283951 -36 74 C-31.59553511 76.86802365 -28.20981469 77.48239025 -23 77 C-21.64628414 76.37576 -20.30726881 75.71642898 -19 75 C-21.2085475 66.86074387 -21.2085475 66.86074387 -26.96875 61.08984375 C-31.82433675 58.9146257 -31.82433675 58.9146257 -37 58 Z M27 58 C23.04 59.32 19.08 60.64 15 62 C13.85562567 67.43156085 13.85562567 67.43156085 14.1875 70.6875 C14 73 14 73 12 74.8125 C11.34 75.204375 10.68 75.59625 10 76 C14.68602129 77.49952681 19.22665083 77.8060678 23.75 75.75 C26.90075947 73.31367111 26.90075947 73.31367111 29 70 C29.55014429 65.26360152 29.69037189 62.03555783 27 58 Z M-21 63 C-20.44894091 66.9492568 -19.61064629 70.34920174 -18 74 C-13.6109185 73.48964169 -10.66291938 72.47785723 -7 70 C-10.68599419 65.75552184 -13.49789266 64.14194681 -19 63 C-19.66 63 -20.32 63 -21 63 Z M0.0625 67.625 C-0.618125 68.40875 -1.29875 69.1925 -2 70 C-0.906875 70.680625 0.18625 71.36125 1.3125 72.0625 C1.92738281 72.44535156 2.54226563 72.82820313 3.17578125 73.22265625 C5.17133075 74.31112074 5.17133075 74.31112074 8 73 C7.67 72.01 7.34 71.02 7 70 C7.33 69.01 7.66 68.02 8 67 C10.0625 66.3125 10.0625 66.3125 12 66 C12 65.01 12 64.02 12 63 C7.14289477 63 3.64909772 64.41995523 0.0625 67.625 Z M-8 65 C-7.01 66.485 -7.01 66.485 -6 68 C-4.02463255 67.65213292 -4.02463255 67.65213292 -2 67 C-1.67 66.34 -1.34 65.68 -1 65 C-3.31 65 -5.62 65 -8 65 Z M-10.6875 73.1875 C-12.14981089 74.08580918 -13.59733687 75.01113771 -15 76 C-14.41684026 78.89150037 -14.030207 79.96601713 -12 82.25 C-7.92935813 84.62454109 -4.61021207 84.83518335 0 84 C3.02127155 82.23759159 4.63361085 81.25488284 5.625 77.859375 C5.74875 77.24578125 5.8725 76.6321875 6 76 C0.06961282 72.33578739 -4.10015389 69.79487539 -10.6875 73.1875 Z " fill="#0A071C" transform="translate(348,15)"/>
<path d="M0 0 C21.78 0 43.56 0 66 0 C66 6.27 66 12.54 66 19 C65.01 19 64.02 19 63 19 C62.31164062 17.62714844 62.31164062 17.62714844 61.609375 16.2265625 C60.99019399 15.0257266 60.37036838 13.82522292 59.75 12.625 C59.44964844 12.02171875 59.14929688 11.4184375 58.83984375 10.796875 C56.84039208 6.96813776 56.03230481 6.01615241 52 4 C48.7 3.67 45.4 3.34 42 3 C42.33 25.11 42.66 47.22 43 70 C45.64 70.99 48.28 71.98 51 73 C51 73.66 51 74.32 51 75 C38.79 75 26.58 75 14 75 C14 74.34 14 73.68 14 73 C14.56589844 72.80664062 15.13179687 72.61328125 15.71484375 72.4140625 C16.44832031 72.15367188 17.18179688 71.89328125 17.9375 71.625 C18.66839844 71.36976562 19.39929688 71.11453125 20.15234375 70.8515625 C22.18682116 70.14728587 22.18682116 70.14728587 23 68 C23.06190527 65.1123455 23.06632702 62.24621396 23.03125 59.359375 C22.98376998 51.63648608 23.0437964 43.92422021 23.21875 36.203125 C23.25210449 34.73063293 23.25210449 34.73063293 23.28613281 33.22839355 C23.35571382 30.23555266 23.42778559 27.24277839 23.5 24.25 C23.54838872 22.173182 23.59656681 20.09635909 23.64453125 18.01953125 C23.76060494 13.01296109 23.87948586 8.00646516 24 3 C22.24929483 3.11470137 20.49942464 3.24219028 18.75 3.375 C17.77546875 3.44460937 16.8009375 3.51421875 15.796875 3.5859375 C13.04563523 3.99324395 11.31578853 4.48632458 9 6 C7.60461454 8.20652416 6.40624752 10.30258009 5.25 12.625 C4.93417969 13.23601563 4.61835937 13.84703125 4.29296875 14.4765625 C3.51824482 15.97905739 2.75770329 17.48885018 2 19 C1.01 19 0.02 19 -1 19 C-1.02697137 16.39576408 -1.04682489 13.79180756 -1.0625 11.1875 C-1.07087891 10.44951172 -1.07925781 9.71152344 -1.08789062 8.95117188 C-1.10259828 5.70077932 -1.03531702 3.10595105 0 0 Z " fill="#08021F" transform="translate(86,13)"/>
<path d="M0 0 C2.811284 2.37202088 2.96723106 3.77471351 3.5 7.4375 C3 11 3 11 0.875 13.9375 C-2 16 -2 16 -5 16.5 C-9.72717555 15.71213741 -12.82214984 13.51236071 -16 10 C-20.07616347 13.81834345 -20.07616347 13.81834345 -21.12939453 19.11694336 C-21.13052246 20.42800049 -21.13165039 21.73905762 -21.1328125 23.08984375 C-21.13376923 23.79017227 -21.13472595 24.49050079 -21.13571167 25.21205139 C-21.13639246 26.6940215 -21.13454519 28.1759946 -21.13037109 29.65795898 C-21.12502937 31.92503581 -21.13031529 34.19191379 -21.13671875 36.45898438 C-21.13605779 37.89843794 -21.13477627 39.33789138 -21.1328125 40.77734375 C-21.13168457 42.08952881 -21.13055664 43.40171387 -21.12939453 44.75366211 C-21.15024222 48.01292945 -21.15024222 48.01292945 -20 51 C-16.99152582 52.22520264 -16.99152582 52.22520264 -14 53 C-14 53.66 -14 54.32 -14 55 C-23.9 55 -33.8 55 -44 55 C-44 54.34 -44 53.68 -44 53 C-42.68 52.34 -41.36 51.68 -40 51 C-40 37.14 -40 23.28 -40 9 C-41.32 8.67 -42.64 8.34 -44 8 C-44 7.01 -44 6.02 -44 5 C-41.25262623 3.99222971 -38.50250048 2.99358554 -35.75 2 C-34.97269531 1.71382812 -34.19539062 1.42765625 -33.39453125 1.1328125 C-32.64042969 0.86210938 -31.88632813 0.59140625 -31.109375 0.3125 C-30.41811523 0.06113281 -29.72685547 -0.19023438 -29.01464844 -0.44921875 C-27 -1 -27 -1 -23 -1 C-22.34 1.64 -21.68 4.28 -21 7 C-20.48050781 6.51789062 -19.96101563 6.03578125 -19.42578125 5.5390625 C-12.8884569 -0.38198913 -8.67436238 -3.6237055 0 0 Z " fill="#08021F" transform="translate(200,33)"/>
<path d="M0 0 C0.495 26.235 0.495 26.235 1 53 C2.32 53.33 3.64 53.66 5 54 C5 54.66 5 55.32 5 56 C-3.91 56 -12.82 56 -22 56 C-22 55.34 -22 54.68 -22 54 C-20.68 53.34 -19.36 52.68 -18 52 C-18 38.47 -18 24.94 -18 11 C-19.32 10.34 -20.64 9.68 -22 9 C-22 8.01 -22 7.02 -22 6 C-19.08666921 4.99009308 -16.16884681 3.99384048 -13.25 3 C-12.0125 2.57074219 -12.0125 2.57074219 -10.75 2.1328125 C-9.95078125 1.86210938 -9.1515625 1.59140625 -8.328125 1.3125 C-7.5949707 1.06113281 -6.86181641 0.80976562 -6.10644531 0.55078125 C-4 0 -4 0 0 0 Z " fill="#08011F" transform="translate(228,32)"/>
<path d="M0 0 C3.28931514 1.72689045 3.8140267 2.4420801 5 6 C5.36712201 9.96491774 5.3561392 12.31739987 3.5 15.875 C0.15129023 18.7214033 -2.64584551 19.31162935 -7 19 C-10.62090756 17.42569236 -11.79255284 16.31117074 -14 13 C-14.5449818 8.17301831 -14.71304929 6.10407631 -12.0625 2 C-7.96164839 -0.67810718 -4.77254987 -0.82962082 0 0 Z " fill="#07021E" transform="translate(348,47)"/>
<path d="M0 0 C3.66262449 0.81465246 5.13193418 2.40542239 7.16015625 5.48046875 C7.81828122 9.57546859 7.5781744 11.67926729 5.66015625 15.35546875 C2.31144648 18.20187205 -0.48568926 18.7920981 -4.83984375 18.48046875 C-8.46075131 16.90616111 -9.63239659 15.79163949 -11.83984375 12.48046875 C-12.39528452 8.19563998 -12.303554 6.18351333 -9.90234375 2.54296875 C-6.32609016 0.13447143 -4.23452468 -0.26156496 0 0 Z " fill="#08031F" transform="translate(221.83984375,8.51953125)"/>
<path d="M0 0 C0.66 0.33 1.32 0.66 2 1 C1.25 2.9375 1.25 2.9375 0 5 C-2.125 5.75 -2.125 5.75 -4 6 C-3.67 6.99 -3.34 7.98 -3 9 C-4.98 9.99 -6.96 10.98 -9 12 C-9 11.34 -9 10.68 -9 10 C-10.62463842 9.94604522 -12.24978541 9.90722805 -13.875 9.875 C-14.77992188 9.85179688 -15.68484375 9.82859375 -16.6171875 9.8046875 C-19.18806994 9.75675164 -19.18806994 9.75675164 -21 12 C-21.66 11.34 -22.32 10.68 -23 10 C-23 9.01 -23 8.02 -23 7 C-21.67935547 7.03480469 -21.67935547 7.03480469 -20.33203125 7.0703125 C-18.58986328 7.09738281 -18.58986328 7.09738281 -16.8125 7.125 C-15.66394531 7.14820312 -14.51539063 7.17140625 -13.33203125 7.1953125 C-7.08492397 6.82912802 -4.17951275 4.5377567 0 0 Z " fill="#08041C" transform="translate(358,70)"/>
<path d="M0 0 C5.61 0 11.22 0 17 0 C15.68 0.33 14.36 0.66 13 1 C12.67 2.65 12.34 4.3 12 6 C11.67 5.01 11.34 4.02 11 3 C10.06027344 3.05220703 10.06027344 3.05220703 9.1015625 3.10546875 C8.28429687 3.13253906 7.46703125 3.15960937 6.625 3.1875 C5.81289062 3.22230469 5.00078125 3.25710937 4.1640625 3.29296875 C3.44992188 3.19628906 2.73578125 3.09960938 2 3 C1.34 2.01 0.68 1.02 0 0 Z " fill="#120D25" transform="translate(99,13)"/>
<path d="M0 0 C0.99 0.33 1.98 0.66 3 1 C3 1.99 3 2.98 3 4 C-2.75 4.125 -2.75 4.125 -5 3 C-5 3.99 -5 4.98 -5 6 C-5.66 6 -6.32 6 -7 6 C-7 4.35 -7 2.7 -7 1 C-5.5459375 1.0309375 -5.5459375 1.0309375 -4.0625 1.0625 C-1.12534105 1.35618499 -1.12534105 1.35618499 0 0 Z " fill="#140E25" transform="translate(332,75)"/>
<path d="M0 0 C0.99 0.33 1.98 0.66 3 1 C3 4.3 3 7.6 3 11 C2.01 11.33 1.02 11.66 0 12 C0 8.04 0 4.08 0 0 Z " fill="#130E29" transform="translate(363,53)"/>
<path d="M0 0 C8.40091813 0.55087988 8.40091813 0.55087988 12 4 C7.03804557 4 3.34881697 3.41600943 -1 1 C-0.67 0.67 -0.34 0.34 0 0 Z " fill="#100D23" transform="translate(324,23)"/>
<path d="M0 0 C0.99386719 0.00902344 1.98773438 0.01804687 3.01171875 0.02734375 C4.15060547 0.04474609 4.15060547 0.04474609 5.3125 0.0625 C5.3125 0.3925 5.3125 0.7225 5.3125 1.0625 C4.075 1.18625 2.8375 1.31 1.5625 1.4375 C-1.5637197 1.81996305 -3.97629237 2.36799523 -6.6875 4.0625 C-6.6875 3.4025 -6.6875 2.7425 -6.6875 2.0625 C-7.3475 1.7325 -8.0075 1.4025 -8.6875 1.0625 C-5.53819107 0.01273036 -3.29935544 -0.03881595 0 0 Z " fill="#0F0C20" transform="translate(45.6875,10.9375)"/>
<path d="" fill="#FFFFFF" transform="translate(0,0)"/>
<path d="" fill="#FFFFFF" transform="translate(0,0)"/>
<path d="" fill="#FFFFFF" transform="translate(0,0)"/>
<path d="" fill="#FFFFFF" transform="translate(0,0)"/>
<path d="" fill="#FFFFFF" transform="translate(0,0)"/>
<path d="" fill="#FFFFFF" transform="translate(0,0)"/>
<path d="" fill="#FFFFFF" transform="translate(0,0)"/>
<path d="" fill="#FFFFFF" transform="translate(0,0)"/>
<path d="" fill="#FFFFFF" transform="translate(0,0)"/>
</svg>
