<?xml version="1.0" encoding="UTF-8"?>
<svg version="1.1" xmlns="http://www.w3.org/2000/svg" width="769" height="293">
<path d="M0 0 C15.87470046 14.40515094 27.94663976 33.92693114 29.32373047 55.81982422 C29.91118195 83.5915346 24.80642815 105.77435943 5.38500977 126.69726562 C-3.59773741 135.96219334 -14.19990692 142.52192311 -25.85327148 148.00585938 C-24.58626426 148.98997188 -23.31450959 149.96797434 -22.04077148 150.94335938 C-21.33307617 151.48863281 -20.62538086 152.03390625 -19.89624023 152.59570312 C-14.60159604 156.25032369 -8.0057616 155.5045201 -1.85327148 155.00585938 C5.16914469 153.28948671 10.66181493 149.60215567 16.14672852 145.00585938 C20.3505006 146.5711984 22.70705769 149.69672271 25.45922852 153.06835938 C25.93980713 153.64674561 26.42038574 154.22513184 26.91552734 154.82104492 C30.76000814 159.4703492 34.50505756 164.19587077 38.14672852 169.00585938 C31.03429333 180.66421422 18.55177004 187.03714436 5.58422852 190.31835938 C-16.02137909 193.93087254 -37.7654086 189.33584951 -55.85327148 177.00585938 C-63.37516858 171.4410703 -71.53640952 165.2901145 -77.47436523 158.02148438 C-81.65994331 152.93356089 -86.30998835 151.83325471 -92.52441406 150.48632812 C-108.68340986 146.9527657 -122.1660201 138.50338265 -133.85327148 127.00585938 C-134.62670898 126.2453125 -135.40014648 125.48476562 -136.19702148 124.70117188 C-153.55929734 106.56591798 -158.53304536 83.84077963 -158.16967773 59.45898438 C-157.89281517 51.49368312 -156.49630177 44.5289946 -153.85327148 37.00585938 C-153.2925293 35.39904297 -153.2925293 35.39904297 -152.72045898 33.75976562 C-144.32140053 11.92777592 -126.78948541 -4.81309867 -105.69311523 -14.43554688 C-97.92872435 -17.5960219 -90.10004001 -19.55070378 -81.85327148 -20.99414062 C-81.09916992 -21.12691406 -80.34506836 -21.2596875 -79.56811523 -21.39648438 C-51.72725552 -25.31244345 -21.46881215 -18.58424343 0 0 Z M-95.59545898 30.65039062 C-106.9905089 42.53830602 -109.35776172 54.6899783 -109.12670898 70.65039062 C-108.70124046 82.6919923 -104.14349343 93.81978018 -95.49389648 102.32617188 C-85.11720387 111.05935106 -73.97511799 114.4994725 -60.41577148 113.94335938 C-46.19676714 112.4296137 -36.36881202 106.02079585 -27.47827148 95.06835938 C-18.73223359 82.68020371 -18.05327746 66.69739013 -20.50170898 52.15429688 C-22.56507546 44.7649759 -25.96177881 38.88186858 -30.85327148 33.00585938 C-31.39983398 32.34714844 -31.94639648 31.6884375 -32.50952148 31.00976562 C-40.55835052 22.18263001 -51.86629841 18.76676394 -63.47827148 18.04101562 C-76.0508332 17.91005144 -86.56973628 21.97834044 -95.59545898 30.65039062 Z " fill="#6004FE" transform="translate(165.853271484375,82.994140625)"/>
<path d="M0 0 C48.51 0 97.02 0 147 0 C147 10.56 147 21.12 147 32 C129.18 32 111.36 32 93 32 C93 76.88 93 121.76 93 168 C79.8 168 66.6 168 53 168 C53 123.12 53 78.24 53 32 C35.51 32 18.02 32 0 32 C0 21.44 0 10.88 0 0 Z " fill="#6004FD" transform="translate(199,65)"/>
<path d="M0 0 C11.39970083 9.23107088 15.76536472 22.15016377 17.5078125 36.25390625 C17.59232869 39.00671471 17.63484838 41.73247597 17.62133789 44.48413086 C17.62148392 45.27519226 17.62162994 46.06625366 17.6217804 46.88128662 C17.62108866 49.47296984 17.61333113 52.06457947 17.60546875 54.65625 C17.60360194 56.46228496 17.60217928 58.26832043 17.60118103 60.07435608 C17.59737654 64.81061215 17.58756404 69.54683718 17.57647705 74.28308105 C17.56621833 79.12296123 17.56167388 83.96284645 17.55664062 88.80273438 C17.5459398 98.28647411 17.52835988 107.77018273 17.5078125 117.25390625 C11.5678125 117.25390625 5.6278125 117.25390625 -0.4921875 117.25390625 C-0.5219165 113.78818115 -0.5219165 113.78818115 -0.55224609 110.25244141 C-0.61937697 102.5889382 -0.69701226 94.92556675 -0.77971458 87.26221657 C-0.8295016 82.61933969 -0.87583216 77.97648365 -0.9140625 73.33349609 C-0.95113886 68.84650935 -0.99755719 64.35970476 -1.05025101 59.87287521 C-1.06867692 58.16744582 -1.08382763 56.46197757 -1.09553146 54.7564888 C-0.98351203 38.80394762 -0.98351203 38.80394762 -5.9921875 23.87890625 C-6.415 23.08742187 -6.8378125 22.2959375 -7.2734375 21.48046875 C-7.675625 20.74570313 -8.0778125 20.0109375 -8.4921875 19.25390625 C-8.79125 18.53976563 -9.0903125 17.825625 -9.3984375 17.08984375 C-10.79555363 14.74468452 -11.99237229 14.29400794 -14.4921875 13.25390625 C-15.2965625 12.84011719 -16.1009375 12.42632812 -16.9296875 12 C-18.198125 11.35224609 -18.198125 11.35224609 -19.4921875 10.69140625 C-20.760625 10.03978516 -20.760625 10.03978516 -22.0546875 9.375 C-31.43939249 5.05863729 -45.60094899 5.90001076 -55.2421875 8.87890625 C-64.24076394 12.49858679 -72.36582441 19.04854921 -76.78125 27.8125 C-79.56614815 34.55435776 -80.63773634 40.59894642 -80.69750977 47.88989258 C-80.71235916 49.01752518 -80.71235916 49.01752518 -80.72750854 50.16793823 C-80.75897182 52.64057316 -80.78382064 55.11322726 -80.80859375 57.5859375 C-80.8291764 59.30515529 -80.85017321 61.02436816 -80.87156677 62.74357605 C-80.9266521 67.25951143 -80.97612087 71.77549146 -81.02441406 76.29150391 C-81.07472818 80.90336053 -81.13036243 85.51515266 -81.18554688 90.12695312 C-81.29296278 99.16921768 -81.39395238 108.21153729 -81.4921875 117.25390625 C-87.4321875 117.25390625 -93.3721875 117.25390625 -99.4921875 117.25390625 C-99.4921875 75.67390625 -99.4921875 34.09390625 -99.4921875 -8.74609375 C-93.8821875 -8.74609375 -88.2721875 -8.74609375 -82.4921875 -8.74609375 C-82.1621875 -2.47609375 -81.8321875 3.79390625 -81.4921875 10.25390625 C-80.5640625 9.07828125 -79.6359375 7.90265625 -78.6796875 6.69140625 C-59.4717999 -15.14452231 -22.90424905 -16.04733436 0 0 Z " fill="#6004FE" transform="translate(603.4921875,115.74609375)"/>
<path d="M0 0 C19.14293107 -0.6816474 36.63064813 5.85588439 50.7578125 18.71875 C63.06050281 31.61914186 68.09957455 49.2777008 67.8359375 66.765625 C66.86639101 82.94959333 61.38114594 99.47569541 49.6328125 111.15625 C33.92620097 124.8092672 16.22332145 129.59232675 -4.3671875 128.15625 C-20.99061598 126.28484984 -36.06747493 119.12626354 -46.87109375 106.1484375 C-57.97480186 91.41544934 -61.78303423 74.33289916 -60.3671875 56.15625 C-57.96251295 39.14800444 -51.00244144 24.1047544 -37.3671875 13.15625 C-25.86540314 5.40782914 -13.90608726 0.91789355 0 0 Z M-32.03515625 30.21484375 C-41.661386 42.35647022 -44.42803105 55.92319962 -43.3671875 71.15625 C-41.29816127 85.36464108 -35.54983463 97.21077646 -23.9140625 106.01171875 C-11.51720354 113.90594497 2.06840204 114.91514138 16.36328125 112.53515625 C27.97764802 109.41301465 37.30137535 102.35598034 43.6328125 92.15625 C51.421029 78.17899745 52.45605012 63.27621871 48.46704102 47.95410156 C45.2732681 36.79134791 38.61929719 27.55933819 28.73828125 21.33203125 C8.55210322 10.62998821 -16.09031551 13.36604354 -32.03515625 30.21484375 Z " fill="#6004FE" transform="translate(691.3671875,105.84375)"/>
<path d="M0 0 C0 9.57 0 19.14 0 29 C-2.413125 29.0825 -4.82625 29.165 -7.3125 29.25 C-17.73632198 29.81010176 -27.46359289 32.32625517 -35 40 C-43.20063016 50.77001819 -43.45716682 64.2987886 -43.51171875 77.265625 C-43.52860571 78.79548545 -43.54676119 80.32533236 -43.56611633 81.85516357 C-43.61318736 85.83998379 -43.64327187 89.82474914 -43.66955566 93.80975342 C-43.70487919 98.61339318 -43.76176703 103.41682228 -43.81494904 108.22029114 C-43.89295866 115.48016548 -43.94394394 122.73977375 -44 130 C-54.23 130 -64.46 130 -75 130 C-75 87.43 -75 44.86 -75 1 C-65.43 1 -55.86 1 -46 1 C-44.00383446 2.99616554 -44.59016573 6.81701963 -44.4375 9.5625 C-44.39431641 10.27341797 -44.35113281 10.98433594 -44.30664062 11.71679688 C-44.20028223 13.47761912 -44.09961154 15.2387832 -44 17 C-43.1646875 15.87271484 -43.1646875 15.87271484 -42.3125 14.72265625 C-35.06939669 6.1948809 -24.03159464 2.45481268 -13.375 0.25 C-8.92807131 -0.07940213 -4.45911208 0 0 0 Z " fill="#6004FE" transform="translate(435,103)"/>
<path d="M0 0 C10.56 0 21.12 0 32 0 C32 42.57 32 85.14 32 129 C21.44 129 10.88 129 0 129 C0 86.43 0 43.86 0 0 Z " fill="#6004FE" transform="translate(451,104)"/>
<path d="M0 0 C4.41854291 3.11306432 8.02390999 6.75922996 9.75 11.9375 C10.41517474 19.39618065 10.41431104 24.92299366 5.75 30.9375 C1.52034366 35.16715634 -2.05386066 37.07674167 -8.0625 37.1875 C-13.43524174 37.10172328 -16.99450134 36.18238455 -20.91015625 32.28515625 C-25.9682425 26.62918746 -26.5567318 22.41082976 -26.45703125 14.87890625 C-26.05923016 9.22712847 -23.82417386 6.28572704 -19.75 2.625 C-14.05164059 -2.13612924 -6.89637951 -2.25458561 0 0 Z " fill="#6004FE" transform="translate(475.25,50.0625)"/>
</svg>
