<svg version="1.2" baseProfile="tiny-ps" xmlns="http://www.w3.org/2000/svg" viewBox="0 0 2330 479">
	<title>Encryption Consulting</title>
	<style>
		tspan { white-space:pre }
		.shp0 { opacity: 0.996;fill: #353535 } 
		.shp1 { opacity: 0.996;fill: #1b2c58 } 
	</style>
	<path id="Path 0" class="shp0" d="M207 2.01C199.57 3.05 189.22 4.87 184 6.06C178.77 7.24 169.1 10 162.5 12.19C155.9 14.37 145.1 18.73 138.5 21.88C131.9 25.02 122.45 30.03 117.5 33.01C112.55 35.99 103.1 42.49 96.5 47.45C89.9 52.41 78.6 62.33 71.4 69.48C64.19 76.64 54.74 87 50.4 92.5C46.05 98 39.74 106.78 36.36 112C32.98 117.23 27.74 126.45 24.7 132.5C21.67 138.55 17.84 146.87 16.2 151C14.56 155.12 11.83 163 10.14 168.5C8.45 174 6.38 181.65 5.55 185.5C4.71 189.35 3.31 196.77 2.44 202C1.53 207.42 0.62 220.74 0.31 233C-0.11 249.42 0.15 257.81 1.4 268.5C2.3 276.2 4.19 287.67 5.59 294C7 300.32 9.93 310.9 12.11 317.5C14.29 324.1 19.17 335.8 22.96 343.5C26.75 351.2 32.63 361.77 36.03 367C39.44 372.22 45.48 380.55 49.45 385.5C53.43 390.45 60.02 398.07 64.09 402.43C68.17 406.79 76.45 414.61 82.5 419.8C88.55 424.99 99.57 433.27 107 438.2C114.42 443.13 126.8 450.26 134.5 454.05C142.2 457.84 154.57 462.96 162 465.43C169.42 467.89 181.35 471.08 188.5 472.52C195.65 473.96 207.8 475.84 215.5 476.71C223.2 477.57 237.37 478.32 247 478.36C259.03 478.41 268.25 477.87 276.5 476.64C283.1 475.65 293.45 473.57 299.5 472.01C305.55 470.45 315.2 467.45 320.94 465.34C326.68 463.23 337.22 458.57 344.37 455C351.51 451.42 357.48 448.05 357.62 447.5C357.77 446.95 354.2 443.73 349.7 440.34C345.19 436.95 337.72 430.65 333.09 426.34C328.46 422.03 321.49 414.9 317.59 410.5C313.69 406.1 309.28 400.92 307.8 399L305.09 395.5C295.33 399.15 288.67 401.29 284 402.61C279.32 403.93 271.67 405.69 267 406.53C262.32 407.36 252.87 408.31 246 408.65C238.84 409 229.12 408.78 223.25 408.13C217.61 407.51 209.51 406.3 205.25 405.43C200.99 404.57 192.32 402.16 186 400.06C179.67 397.97 170.22 394.12 165 391.51C159.77 388.9 151.67 384.29 147 381.26C142.32 378.24 136.02 373.71 133 371.21C129.97 368.71 125.1 364.37 122.17 361.58C119.23 358.79 114.01 353.12 110.55 349C107.09 344.87 101.78 337.67 98.75 333C95.72 328.32 91.1 320.22 88.49 315C85.88 309.77 82.03 300.32 79.94 294C77.84 287.67 75.44 279.12 74.61 275C73.77 270.87 72.62 263.45 72.05 258.5C71.48 253.55 71.02 245.67 71.02 241C71.02 236.32 71.48 228.45 72.05 223.5C72.62 218.55 73.77 211.12 74.61 207C75.44 202.87 77.84 194.32 79.94 188C82.03 181.67 85.88 172.22 88.49 167C91.1 161.77 95.72 153.67 98.75 149C101.78 144.32 107.09 137.12 110.55 133C114.01 128.87 119.23 123.21 122.17 120.42C125.1 117.63 129.97 113.29 133 110.79C136.02 108.29 142.77 103.44 148 100.02C153.22 96.6 162 91.63 167.5 88.99C173 86.34 182.67 82.58 189 80.62C195.32 78.67 204.55 76.27 209.5 75.3C216.42 73.94 223.35 73.54 239.5 73.57C257.41 73.6 262.04 73.94 271 75.86C276.77 77.1 286.22 79.69 292 81.61C297.77 83.54 306.77 87.21 312 89.78C317.22 92.35 325.55 97.1 330.5 100.34C335.45 103.59 341.97 108.29 345 110.79C348.02 113.29 352.9 117.63 355.83 120.42C358.76 123.21 363.98 128.87 367.42 133C370.86 137.12 375.93 143.87 378.69 148C381.45 152.12 384.68 157.41 385.86 159.75C387.04 162.09 388.45 164 389 164C389.55 164 392.14 162.19 394.75 159.98C397.36 157.77 402.87 154.21 407 152.05C411.12 149.9 418.1 147.14 422.5 145.9C428.42 144.25 433.35 143.64 441.5 143.58C447.55 143.54 454.64 143.84 457.25 144.25L462 145C452.75 126.79 447.44 117.45 444.22 112.5C441.01 107.55 434.73 99 430.28 93.5C425.83 88 416.85 78.22 410.34 71.77C403.83 65.32 394.22 56.64 389 52.48C383.77 48.31 375 41.91 369.5 38.24C364 34.56 353.65 28.59 346.5 24.97C339.35 21.34 328.1 16.45 321.5 14.11C314.9 11.77 304.1 8.56 297.5 6.97C290.9 5.38 280.77 3.34 275 2.42C268.29 1.36 256.55 0.64 242.5 0.43C224.94 0.17 217.78 0.49 207 2.01ZM474 1.96C467.12 2.93 457.67 4.5 453 5.45C448.32 6.41 439.55 8.77 433.5 10.69C427.45 12.62 417.77 16.23 412 18.72C406.22 21.2 399.47 24.38 397 25.77C394.52 27.16 391.49 28.9 390.25 29.65C388.07 30.96 388.32 31.24 398.25 38.73C403.89 42.98 415.29 53.22 423.58 61.48C431.87 69.74 440.65 78.87 443.08 81.76L447.5 87.03C459.9 83 467.89 80.97 473.25 79.91C478.61 78.86 489.41 77.61 497.25 77.13C505.09 76.65 516 76.6 521.5 77.04C527 77.47 535.32 78.72 540 79.83C544.67 80.93 551.42 82.94 555 84.28C558.57 85.63 566 88.98 571.5 91.74C577 94.5 585.55 99.48 590.5 102.81C595.45 106.14 603.32 112.17 608 116.22C612.67 120.26 620.1 127.89 624.5 133.16C628.9 138.44 634.97 146.84 638 151.83L643.5 160.91L725 161C724.07 157.51 722.22 152.45 720.28 147.5C718.34 142.55 714.01 133.1 710.66 126.5C707.3 119.9 701.9 110.45 698.66 105.5C695.41 100.55 689.34 92.22 685.17 87C680.99 81.77 673.24 73.22 667.94 68C662.65 62.77 652.95 54.34 646.41 49.26C639.86 44.17 628.65 36.53 621.5 32.27C614.35 28.01 603.55 22.38 597.5 19.76C591.45 17.13 581.1 13.22 574.5 11.06C567.9 8.9 558 6.23 552.5 5.13C547 4.02 536.99 2.41 530.25 1.56C523.22 0.66 511.29 0.05 502.25 0.11C493.32 0.17 481.09 0.97 474 1.96Z" />
	<path id="Path 1" class="shp0" d="M275.63 293.25C276.4 296.69 278.17 303.55 279.56 308.5C280.96 313.45 284.14 322.67 286.64 329C289.14 335.32 293.45 344.77 296.21 350C298.97 355.22 303.99 363.77 307.37 369C310.74 374.22 317.08 383 321.45 388.5C325.82 394 333.92 403.16 339.45 408.85C344.98 414.55 353.55 422.49 358.5 426.51C363.45 430.53 372 436.81 377.5 440.47C383 444.13 393.12 449.99 400 453.49C406.87 456.98 417.22 461.68 423 463.93C428.77 466.18 437.32 469.11 442 470.44C446.67 471.77 453.87 473.54 458 474.38C462.12 475.22 471.12 476.61 478 477.46C484.87 478.31 494.66 479 499.75 479C504.84 479 517.21 478.07 527.25 476.93C538.23 475.68 550.68 473.54 558.5 471.55C565.65 469.74 576 466.59 581.5 464.57C587 462.55 598.7 457.35 607.5 453.02C616.3 448.69 627.55 442.49 632.5 439.26C637.45 436.02 646 429.75 651.5 425.32C657 420.88 666 412.58 671.5 406.87C677 401.16 684.71 392.21 688.63 386.99C692.56 381.77 698.37 373.22 701.56 368C704.75 362.77 710.19 352.65 713.65 345.5C717.11 338.35 719.96 332.16 719.97 331.75C719.99 331.34 700.99 330.98 677.75 330.95L635.5 330.91C626.37 342.99 619.15 351 613.58 356.5C608 362 599.18 369.52 593.97 373.21C588.76 376.9 579.77 382.37 574 385.37C568.22 388.36 559.45 392.23 554.5 393.95C549.55 395.68 541 398.06 535.5 399.25C527.09 401.07 522.16 401.42 504.5 401.45C488.23 401.48 481.47 401.09 474.5 399.71C469.55 398.72 461 396.53 455.5 394.84C450 393.14 440.32 389.12 434 385.89C427.67 382.67 417.77 376.49 412 372.16C406.22 367.82 397 359.57 391.5 353.81C386 348.05 378.47 339.1 374.77 333.92C371.07 328.74 365.38 319.1 362.12 312.5C358.86 305.9 355.14 297.46 353.85 293.75L351.5 286.99L274.23 287L275.63 293.25Z" />
	<path id="Key" fill-rule="evenodd" class="shp0" d="M446 159.42C455.81 159.68 458.89 160.2 467 162.94C472.22 164.71 479.65 168.01 483.5 170.27C487.35 172.53 493.9 177.78 498.06 181.94C502.22 186.1 507.47 192.65 509.73 196.5C511.99 200.35 515.32 207.77 517.13 213C520.26 222.04 520.41 223.2 520.41 237C520.41 250.8 520.26 251.96 517.13 261C515.32 266.22 511.99 273.65 509.73 277.5C507.47 281.35 502.22 287.9 498.06 292.06C493.9 296.22 487.35 301.47 483.5 303.73C479.65 305.99 472.22 309.32 467 311.13C457.96 314.26 456.8 314.41 443 314.41C429.2 314.41 428.04 314.26 419 311.13C413.77 309.32 406.35 305.99 402.5 303.74C398.44 301.36 392.14 296.23 387.5 291.52C383.1 287.05 377.92 280.61 372.5 271.03L209.6 270.5L197.84 254C191.35 244.89 186.4 237.01 186.79 236.42C187.18 235.82 192.34 228.51 198.25 220.17C204.16 211.82 209.5 205.11 210.11 205.25C210.73 205.39 213.54 210.83 216.36 217.34C219.19 223.86 221.95 229.19 222.5 229.19C223.05 229.19 225.97 223.52 229 216.57C232.02 209.63 234.72 203.96 235 203.96C235.27 203.96 237.97 209.63 241 216.57C244.02 223.52 246.95 229.19 247.5 229.19C248.05 229.19 250.97 223.52 254 216.57C257.02 209.63 259.72 203.96 260 203.96C260.27 203.96 263.02 209.7 266.09 216.73C269.17 223.75 272.09 229.4 272.59 229.29C273.09 229.17 275.97 223.42 279 216.51C282.02 209.61 284.72 203.96 285 203.96C285.27 203.96 288.02 209.7 291.09 216.73C294.17 223.75 297.04 229.5 297.47 229.5C297.89 229.5 300.63 224.1 303.54 217.5C306.45 210.9 309.29 204.94 309.85 204.25C310.62 203.3 318.25 203 372.5 202.98L376 196.79C377.92 193.39 383.1 186.95 387.5 182.48C392.23 177.68 398.36 172.7 402.5 170.3C406.35 168.07 412.87 165.04 417 163.56C421.12 162.09 426.75 160.49 429.5 160C432.25 159.51 439.67 159.25 446 159.42ZM421.14 201.29C418.19 203.05 414 206.52 411.82 209C409.64 211.47 406.76 215.75 405.41 218.5C404.06 221.25 402.42 226.42 401.77 230C400.87 234.99 400.87 238.12 401.77 243.5C402.42 247.35 404.17 252.97 405.67 256C407.16 259.02 410.66 263.78 413.44 266.56C416.22 269.34 420.97 272.84 424 274.33C427.02 275.82 432.42 277.58 436 278.23C440.99 279.13 444.12 279.13 449.5 278.23C453.35 277.58 458.97 275.82 462 274.33C465.02 272.84 469.78 269.34 472.56 266.56C475.34 263.78 478.84 259.02 480.33 256C481.82 252.97 483.58 247.35 484.23 243.5C485.13 238.12 485.13 234.99 484.23 230C483.58 226.42 481.94 221.25 480.59 218.5C479.24 215.75 476.36 211.47 474.18 209C472 206.52 467.81 203.06 464.86 201.29C461.91 199.53 456.8 197.39 453.5 196.54C450.2 195.69 445.25 195.02 442.5 195.06C439.75 195.1 435.02 195.79 432 196.6C428.97 197.41 424.09 199.52 421.14 201.29Z" />
	<path id="Encryption" fill-rule="evenodd" class="shp1" d="M1203 42.44C1212.68 42.74 1217.47 43.41 1224.25 45.41C1229.06 46.84 1235.81 49.41 1239.25 51.13C1242.69 52.86 1247.52 55.64 1250 57.32C1252.47 59 1257.59 63.33 1261.36 66.94C1265.14 70.55 1270.16 76.2 1272.53 79.5C1274.89 82.8 1278.45 88.87 1280.42 93C1282.4 97.12 1284.01 101.06 1284.01 101.75C1284 102.71 1279.13 103 1242 103L1239.06 98.25C1237.44 95.64 1234.86 92.31 1233.31 90.85C1231.76 89.39 1228.25 86.79 1225.5 85.07C1222.75 83.34 1217.57 81.03 1214 79.94C1209.96 78.71 1204.66 77.96 1200 77.97C1195.87 77.98 1190.02 78.7 1187 79.58C1183.97 80.47 1179.02 82.6 1176 84.33C1172.97 86.06 1168.25 89.77 1165.5 92.57C1162.75 95.36 1158.84 100.77 1156.81 104.58C1154.78 108.38 1152.43 114.42 1151.58 118C1150.72 121.57 1150.03 127.65 1150.03 131.5C1150.03 135.35 1150.72 141.42 1151.58 145C1152.43 148.57 1154.78 154.63 1156.81 158.46C1158.84 162.28 1162.52 167.5 1165 170.05C1167.47 172.6 1171.75 176.12 1174.5 177.88C1177.25 179.63 1182.42 181.97 1186 183.06C1190.01 184.28 1195.37 185.04 1200 185.04C1204.63 185.04 1209.99 184.28 1214 183.06C1217.57 181.97 1222.64 179.71 1225.25 178.04C1227.86 176.37 1231.84 173.09 1234.1 170.75C1236.35 168.41 1239.16 164.8 1242.5 158.95L1263.25 158.98C1274.66 158.99 1284.19 159.34 1284.42 159.75C1284.66 160.16 1283.05 164.32 1280.85 169C1278.65 173.67 1274.91 180.2 1272.54 183.5C1270.17 186.8 1265.14 192.45 1261.36 196.06C1257.59 199.67 1252.47 204 1250 205.68C1247.52 207.36 1242.69 210.14 1239.25 211.87C1235.81 213.59 1229.06 216.2 1224.25 217.67C1216.45 220.04 1213.87 220.34 1200.5 220.35C1188.1 220.36 1184.11 219.99 1177.5 218.17C1173.1 216.96 1166.12 214.36 1162 212.41C1157.87 210.45 1151.8 206.9 1148.5 204.53C1145.2 202.16 1139.53 197.14 1135.89 193.36C1132.26 189.59 1127.41 183.57 1125.11 180C1122.81 176.42 1119.54 170.12 1117.84 166C1116.13 161.87 1113.9 154.45 1112.88 149.5C1111.86 144.55 1111.03 136.45 1111.03 131.5C1111.03 126.55 1111.86 118.45 1112.88 113.5C1113.9 108.55 1116.13 101.12 1117.84 97C1119.54 92.87 1122.81 86.57 1125.11 83C1127.41 79.42 1132.26 73.41 1135.89 69.64C1139.53 65.86 1145.2 60.86 1148.5 58.51C1151.8 56.16 1157.2 52.9 1160.5 51.26C1163.8 49.62 1168.75 47.54 1171.5 46.63C1174.25 45.73 1179.65 44.33 1183.5 43.52C1188.27 42.52 1194.48 42.18 1203 42.44ZM2070 42.48C2078.57 42.76 2083.73 43.51 2090.25 45.43C2095.06 46.84 2101.81 49.41 2105.25 51.13C2108.69 52.86 2113.52 55.64 2116 57.32C2118.47 59 2123.81 63.55 2127.86 67.44C2131.91 71.32 2137.16 77.2 2139.54 80.5C2141.92 83.8 2145.43 89.87 2147.35 94C2149.27 98.12 2151.8 104.87 2152.96 109C2154.12 113.12 2155.34 121 2155.67 126.5C2156.01 132.34 2155.77 139.62 2155.08 144C2154.44 148.12 2152.69 155.1 2151.19 159.5C2149.68 163.9 2146.44 171.07 2143.98 175.42C2141.39 180 2136.12 186.92 2131.5 191.81C2127.1 196.46 2120.8 202.18 2117.5 204.52C2114.2 206.85 2108.69 210.17 2105.25 211.88C2101.81 213.6 2095.06 216.2 2090.25 217.67C2082.49 220.04 2079.86 220.34 2067 220.34C2054.14 220.34 2051.51 220.04 2043.75 217.67C2038.94 216.2 2032.19 213.6 2028.75 211.88C2025.31 210.17 2019.8 206.85 2016.5 204.52C2013.2 202.18 2006.9 196.46 2002.5 191.81C1997.88 186.92 1992.61 180 1990.02 175.42C1987.56 171.07 1984.32 163.9 1982.81 159.5C1981.31 155.1 1979.56 148.12 1978.92 144C1978.23 139.62 1977.99 132.34 1978.33 126.5C1978.66 121 1979.87 113.12 1981.04 109C1982.2 104.87 1984.73 98.12 1986.65 94C1988.57 89.87 1992.08 83.8 1994.46 80.5C1996.84 77.2 2002.09 71.32 2006.14 67.44C2010.19 63.55 2015.52 59 2018 57.32C2020.47 55.64 2025.2 52.9 2028.5 51.24C2031.8 49.58 2037.65 47.25 2041.5 46.07C2045.35 44.89 2050.75 43.52 2053.5 43.01C2056.25 42.51 2063.67 42.27 2070 42.48ZM2044.5 85.79C2041.75 87.26 2036.09 91.84 2031.92 95.98C2027.19 100.67 2023.35 105.57 2021.7 109C2020.25 112.02 2018.37 117.2 2017.53 120.5C2016.68 123.8 2016 128.52 2016.01 131C2016.02 133.47 2016.72 138.42 2017.57 142C2018.42 145.57 2020.54 151.2 2022.28 154.5C2024.02 157.8 2028.38 163.46 2031.97 167.08C2036.48 171.63 2040.82 174.82 2046 177.37C2050.12 179.41 2056.42 181.6 2060 182.24C2064.95 183.13 2068.17 183.13 2073.5 182.24C2077.58 181.56 2083.63 179.53 2088 177.37C2093.18 174.82 2097.52 171.63 2102.03 167.08C2105.62 163.46 2109.98 157.8 2111.72 154.5C2113.46 151.2 2115.58 145.57 2116.43 142C2117.28 138.42 2117.98 133.47 2117.99 131C2118 128.52 2117.32 123.8 2116.47 120.5C2115.63 117.2 2113.75 112.02 2112.3 109C2110.65 105.57 2106.81 100.67 2102.08 95.98C2097.91 91.84 2092.25 87.26 2089.5 85.79C2086.75 84.32 2081.8 82.42 2078.5 81.56C2075.2 80.7 2069.8 80.02 2066.5 80.06C2063.2 80.1 2058.02 80.8 2055 81.62C2051.97 82.44 2047.25 84.32 2044.5 85.79ZM813 45L913 45L913 80L851 80L851 114L911 114L910.5 148.5L851 149L851 183L913 183L913 218L813 218L813 45ZM947.04 44.96L985.44 45.5L1014.47 97.69C1030.44 126.4 1043.85 150.25 1044.28 150.69C1044.71 151.14 1045.04 127.54 1045 45L1083 45L1083 218L1044.56 217.5L1015.53 165.31C999.56 136.6 986.15 112.75 985.72 112.31C985.29 111.86 984.96 135.46 985 218L947 218L947.04 44.96ZM1310 45L1345.75 44.99C1374.65 44.99 1382.65 45.28 1387.5 46.53C1390.8 47.37 1395.95 49.29 1398.95 50.78C1401.95 52.28 1406.9 55.79 1409.95 58.59C1413 61.39 1417.07 66.11 1418.99 69.09C1420.9 72.07 1423.53 77.42 1424.83 81C1426.39 85.31 1427.37 90.71 1427.74 97C1428.13 103.83 1427.83 108.61 1426.66 114C1425.76 118.12 1423.59 124.42 1421.83 128C1419.91 131.91 1416.21 136.94 1412.56 140.6C1409.23 143.96 1404.02 147.96 1401 149.49C1397.97 151.03 1394.02 152.78 1388.9 154.5L1412.58 185C1425.61 201.77 1436.77 216.08 1437.38 216.79C1438.29 217.85 1433.96 218.07 1389.5 217.91L1348.5 156.7L1348 218L1310 218L1310 45ZM1348 126C1367.88 126.03 1372.89 125.56 1376 124.48C1378.47 123.62 1382.02 121.47 1383.88 119.71C1385.73 117.94 1388.05 114.7 1389.03 112.5C1390 110.3 1391.11 106.7 1391.48 104.5C1391.87 102.26 1391.62 97.87 1390.91 94.5C1390.13 90.76 1388.49 86.99 1386.57 84.5C1384.8 82.21 1381.14 79.32 1377.99 77.73C1372.88 75.16 1371.66 74.97 1360.25 74.98L1348 75L1348 126ZM1487 45L1505.25 74C1515.29 89.95 1523.72 103.01 1524 103.01C1524.27 103.01 1532.71 89.95 1561 45L1584.25 44.97C1606.49 44.94 1607.43 45.01 1605.9 46.72C1605.02 47.7 1590.51 67.96 1543 135L1543 218L1505 218L1505.21 134.91L1474.45 91.71C1457.54 67.94 1442.98 47.7 1442.1 46.72C1440.57 45.01 1441.51 44.94 1487 45ZM1628 45L1663.75 44.99C1692.65 44.99 1700.65 45.28 1705.5 46.53C1708.8 47.37 1713.95 49.29 1716.95 50.78C1719.95 52.28 1724.9 55.79 1727.95 58.59C1731 61.39 1735.07 66.11 1736.99 69.09C1738.9 72.07 1741.53 77.42 1742.83 81C1744.39 85.31 1745.37 90.71 1745.74 97C1746.13 103.83 1745.83 108.61 1744.66 114C1743.76 118.12 1741.59 124.42 1739.83 128C1737.91 131.9 1734.21 136.94 1730.56 140.6C1727.05 144.14 1721.87 148.03 1718.25 149.85C1714.81 151.58 1709.19 153.67 1705.75 154.49C1701.54 155.49 1694.04 155.98 1666 156L1666 218L1628 218L1628 45ZM1666 126C1683.44 125.99 1690.07 125.56 1692 125.04C1693.92 124.51 1697.05 123.05 1698.95 121.79C1700.85 120.53 1703.66 117.7 1705.19 115.5C1706.73 113.3 1708.49 109.02 1709.1 106C1709.95 101.79 1709.91 99.09 1708.93 94.5C1708.14 90.79 1706.48 86.97 1704.57 84.5C1702.8 82.21 1699.14 79.32 1695.99 77.73C1690.88 75.16 1689.66 74.97 1678.25 74.98L1666 75L1666 126ZM1755 45L1891 45L1891 80L1842 80L1842 218L1804 218L1804 80L1755 80L1755 45ZM1911 45L1949 45L1949 218L1911 218L1911 45ZM2183.04 44.96L2221.44 45.5L2250.47 97.69C2266.44 126.4 2279.85 150.25 2280.28 150.69C2280.71 151.14 2281.04 127.54 2281 45L2319 45L2319 218L2280.56 217.5L2251.53 165.31C2235.56 136.6 2222.15 112.75 2221.72 112.31C2221.29 111.86 2220.96 135.46 2221 218L2183 218L2183.04 44.96Z" />
	<path id="Consulting" fill-rule="evenodd" class="shp1" d="M899 271.44C908.68 271.74 913.47 272.41 920.25 274.41C925.06 275.84 931.81 278.41 935.25 280.13C938.69 281.86 943.52 284.64 946 286.32C948.47 288 953.59 292.33 957.36 295.94C961.14 299.55 966.16 305.2 968.53 308.5C970.89 311.8 974.45 317.87 976.42 322C978.4 326.12 980.01 330.06 980.01 330.75C980 331.71 975.13 332 938 332L935.06 327.25C933.44 324.64 930.86 321.31 929.31 319.85C927.76 318.39 924.25 315.79 921.5 314.07C918.75 312.34 913.57 310.03 910 308.94C905.96 307.71 900.66 306.96 896 306.97C891.87 306.98 886.02 307.7 883 308.58C879.97 309.47 875.02 311.6 872 313.33C868.97 315.06 864.25 318.77 861.5 321.57C858.75 324.36 854.84 329.77 852.81 333.58C850.78 337.38 848.43 343.42 847.57 347C846.72 350.57 846.03 356.65 846.03 360.5C846.03 364.35 846.72 370.42 847.57 374C848.43 377.57 850.78 383.63 852.81 387.46C854.84 391.28 858.52 396.5 861 399.05C863.47 401.6 867.75 405.12 870.5 406.88C873.25 408.63 878.42 410.97 882 412.06C886.01 413.28 891.37 414.04 896 414.04C900.63 414.04 905.99 413.28 910 412.06C913.57 410.97 918.64 408.71 921.25 407.04C923.86 405.37 927.84 402.09 930.1 399.75C932.35 397.41 935.16 393.8 938.5 387.95L959.25 387.98C970.66 387.99 980.19 388.34 980.42 388.75C980.66 389.16 979.05 393.32 976.85 398C974.65 402.67 970.91 409.2 968.54 412.5C966.17 415.8 961.14 421.45 957.36 425.06C953.59 428.67 948.47 433 946 434.68C943.52 436.36 938.69 439.14 935.25 440.87C931.81 442.59 925.06 445.2 920.25 446.67C912.45 449.04 909.87 449.34 896.5 449.35C884.1 449.36 880.11 448.99 873.5 447.17C869.1 445.96 862.12 443.36 858 441.41C853.87 439.45 847.8 435.9 844.5 433.53C841.2 431.16 835.53 426.14 831.89 422.36C828.26 418.59 823.41 412.57 821.11 409C818.81 405.42 815.54 399.12 813.84 395C812.13 390.87 809.9 383.45 808.88 378.5C807.86 373.55 807.03 365.45 807.03 360.5C807.03 355.55 807.86 347.45 808.88 342.5C809.9 337.55 812.13 330.12 813.84 326C815.54 321.87 818.81 315.57 821.11 312C823.41 308.42 828.26 302.41 831.89 298.64C835.53 294.86 841.2 289.86 844.5 287.51C847.8 285.16 853.2 281.9 856.5 280.26C859.8 278.62 864.75 276.54 867.5 275.63C870.25 274.73 875.65 273.33 879.5 272.52C884.27 271.52 890.48 271.18 899 271.44ZM1088 271.48C1096.57 271.76 1101.73 272.51 1108.25 274.43C1113.06 275.84 1119.81 278.41 1123.25 280.13C1126.69 281.86 1131.52 284.64 1134 286.32C1136.47 288 1141.81 292.55 1145.86 296.44C1149.91 300.32 1155.16 306.2 1157.54 309.5C1159.92 312.8 1163.43 318.87 1165.35 323C1167.27 327.12 1169.8 333.87 1170.96 338C1172.13 342.12 1173.34 350 1173.67 355.5C1174.01 361.34 1173.77 368.62 1173.08 373C1172.44 377.12 1170.69 384.1 1169.19 388.5C1167.68 392.9 1164.44 400.07 1161.98 404.42C1159.39 409 1154.12 415.92 1149.5 420.81C1145.1 425.46 1138.8 431.18 1135.5 433.52C1132.2 435.85 1126.69 439.17 1123.25 440.88C1119.81 442.6 1113.06 445.2 1108.25 446.67C1100.49 449.04 1097.86 449.34 1085 449.34C1072.14 449.34 1069.51 449.04 1061.75 446.67C1056.94 445.2 1050.19 442.6 1046.75 440.88C1043.31 439.17 1037.8 435.85 1034.5 433.52C1031.2 431.18 1024.9 425.46 1020.5 420.81C1015.88 415.92 1010.61 409 1008.02 404.42C1005.56 400.07 1002.32 392.9 1000.81 388.5C999.31 384.1 997.56 377.12 996.92 373C996.23 368.62 995.99 361.34 996.33 355.5C996.66 350 997.87 342.12 999.04 338C1000.2 333.87 1002.73 327.12 1004.65 323C1006.57 318.87 1010.08 312.8 1012.46 309.5C1014.84 306.2 1020.09 300.32 1024.14 296.44C1028.19 292.55 1033.52 288 1036 286.32C1038.47 284.64 1043.2 281.9 1046.5 280.24C1049.8 278.58 1055.65 276.25 1059.5 275.07C1063.35 273.89 1068.75 272.52 1071.5 272.01C1074.25 271.51 1081.67 271.27 1088 271.48ZM1062.5 314.79C1059.75 316.26 1054.09 320.84 1049.92 324.98C1045.19 329.67 1041.35 334.57 1039.7 338C1038.25 341.02 1036.37 346.2 1035.53 349.5C1034.68 352.8 1034 357.52 1034.01 360C1034.02 362.47 1034.72 367.42 1035.57 371C1036.42 374.57 1038.54 380.2 1040.28 383.5C1042.02 386.8 1046.38 392.46 1049.97 396.08C1054.48 400.63 1058.82 403.82 1064 406.37C1068.12 408.41 1074.42 410.6 1078 411.24C1082.95 412.13 1086.17 412.13 1091.5 411.24C1095.58 410.56 1101.63 408.53 1106 406.37C1111.18 403.82 1115.52 400.63 1120.03 396.08C1123.62 392.46 1127.98 386.8 1129.72 383.5C1131.46 380.2 1133.58 374.57 1134.43 371C1135.28 367.42 1135.98 362.47 1135.99 360C1136 357.52 1135.32 352.8 1134.47 349.5C1133.63 346.2 1131.75 341.02 1130.3 338C1128.65 334.57 1124.81 329.67 1120.08 324.98C1115.91 320.84 1110.25 316.26 1107.5 314.79C1104.75 313.32 1099.8 311.42 1096.5 310.56C1093.2 309.7 1087.8 309.02 1084.5 309.06C1081.2 309.1 1076.02 309.8 1073 310.62C1069.97 311.44 1065.25 313.32 1062.5 314.79ZM1430.5 271.47C1439.4 271.72 1446.02 272.49 1451.5 273.92C1455.9 275.06 1462.65 277.56 1466.5 279.47C1470.35 281.37 1475.72 284.86 1478.44 287.22C1481.16 289.57 1485.12 294.2 1487.24 297.5C1489.37 300.8 1491.95 306.42 1492.99 310C1494.02 313.57 1495.12 318.64 1496 326L1458.72 325.5L1457.61 320.96C1457 318.46 1455.35 314.64 1453.94 312.46C1452.44 310.14 1449.54 307.56 1446.94 306.24C1444.5 304.99 1439.12 303.5 1435 302.91C1429.65 302.16 1425.78 302.16 1421.5 302.94C1418.2 303.53 1413.51 305.03 1411.07 306.26C1408.64 307.49 1405.6 310.07 1404.32 312C1402.7 314.44 1401.99 316.94 1401.99 320.25C1402 324.04 1402.58 325.66 1404.85 328.25C1406.41 330.04 1410.12 332.57 1413.1 333.89C1416.07 335.2 1427.95 338.64 1439.5 341.52C1451.05 344.4 1464.1 348.26 1468.5 350.1C1472.9 351.93 1479.17 355.25 1482.43 357.47C1485.69 359.69 1489.82 363.3 1491.61 365.5C1493.4 367.7 1496 371.97 1497.39 375C1498.79 378.02 1500.39 383.76 1500.96 387.75C1501.65 392.52 1501.67 397.48 1501.05 402.25C1500.53 406.24 1499.38 411.52 1498.5 414C1497.62 416.47 1495.86 420.3 1494.57 422.5C1493.29 424.7 1489.26 429.31 1485.62 432.75C1481.43 436.71 1476.34 440.27 1471.75 442.45C1467.76 444.35 1460.45 446.92 1455.5 448.16C1447.88 450.07 1443.89 450.41 1429.5 450.38C1415.26 450.35 1411.2 450 1404.5 448.18C1400.1 446.99 1392.67 444.12 1388 441.81C1381.85 438.76 1377.7 435.79 1372.96 431.05C1369.37 427.45 1365.01 421.8 1363.27 418.5C1361.54 415.2 1359.44 409.8 1358.63 406.5C1357.81 403.2 1356.88 398.14 1356 390L1395 390L1396 395.25C1396.54 398.14 1398.34 402.64 1400 405.25C1401.65 407.86 1404.91 411.36 1407.25 413.03C1409.59 414.7 1413.75 416.84 1416.5 417.78C1420.03 418.99 1424.45 419.47 1431.5 419.41C1439.52 419.33 1442.69 418.84 1447.5 416.94C1450.8 415.63 1454.91 413.2 1456.63 411.53C1458.35 409.86 1460.32 406.7 1461 404.5C1461.69 402.29 1461.96 398.82 1461.62 396.75C1461.21 394.29 1459.71 391.69 1457.25 389.21C1454.56 386.49 1451.09 384.54 1445 382.33C1440.32 380.63 1429.97 377.57 1422 375.51C1414.02 373.46 1403.67 370.44 1399 368.8C1394.32 367.15 1388.25 364.55 1385.5 363C1382.75 361.45 1378.25 358.18 1375.5 355.74C1372.75 353.29 1369.18 348.86 1367.57 345.89C1365.97 342.93 1364.06 338.25 1363.34 335.5C1362.61 332.75 1362.03 327.35 1362.04 323.5C1362.04 319.65 1362.52 314.47 1363.1 312C1363.68 309.52 1365.32 305.02 1366.75 302C1368.27 298.78 1372.07 293.76 1375.92 289.89C1380.17 285.62 1384.98 282.03 1389.5 279.75C1393.35 277.8 1399.2 275.43 1402.5 274.48C1405.8 273.52 1410.52 272.37 1413 271.92C1415.47 271.47 1423.35 271.27 1430.5 271.47ZM2239 271.08C2243.67 271.04 2250.42 271.48 2254 272.06C2257.57 272.63 2264.1 274.33 2268.5 275.82C2272.9 277.32 2280.07 280.56 2284.42 283.02C2289.03 285.63 2295.88 290.85 2300.79 295.5C2305.43 299.9 2311.17 306.42 2313.55 310C2315.92 313.57 2319.24 319.54 2320.93 323.25C2322.62 326.96 2324 330.45 2324 331C2324 331.63 2316.43 332 2282.5 331.97L2279 326.37C2277.07 323.28 2273.7 319.29 2271.5 317.5C2269.3 315.7 2265.25 313.11 2262.5 311.72C2259.75 310.34 2254.8 308.66 2251.5 307.99C2248.2 307.33 2241.67 306.96 2237 307.18C2229.69 307.53 2227.38 308.11 2220.5 311.39C2214.79 314.12 2210.75 316.96 2206.4 321.35C2202.57 325.21 2198.93 330.2 2196.65 334.75C2194.64 338.74 2192.33 344.81 2191.51 348.25C2190.7 351.69 2190.02 357.65 2190.01 361.5C2190 365.35 2190.68 371.2 2191.52 374.5C2192.36 377.8 2194.34 383.2 2195.92 386.5C2197.51 389.8 2201.21 395.16 2204.15 398.42C2207.09 401.67 2211.75 405.79 2214.5 407.56C2217.25 409.33 2222.31 411.73 2225.75 412.89C2230.21 414.4 2234.5 415 2240.75 415.01C2245.56 415.01 2252.09 414.33 2255.25 413.51C2258.41 412.68 2263.36 410.8 2266.25 409.33C2269.14 407.87 2273.54 404.6 2276.02 402.08C2278.51 399.56 2281.72 395.47 2283.15 393C2284.58 390.52 2286.03 387.49 2287 384L2243 384L2243 355L2329.5 354.99L2328.81 364.24C2328.42 369.33 2327.34 376.87 2326.4 381C2325.46 385.12 2323.62 391.2 2322.32 394.5C2321.01 397.8 2318.06 403.65 2315.76 407.5C2313.46 411.35 2308.41 417.82 2304.54 421.88C2300.67 425.94 2294.8 431.17 2291.5 433.51C2288.2 435.85 2282.69 439.17 2279.25 440.88C2275.81 442.6 2269.06 445.2 2264.25 446.67C2256.5 449.03 2253.78 449.34 2240.5 449.4C2227.81 449.46 2224.3 449.13 2217.75 447.24C2213.49 446.01 2207.19 443.74 2203.75 442.19C2200.31 440.64 2194.57 437.41 2191 435C2187.42 432.6 2181.66 427.9 2178.18 424.56C2174.71 421.23 2169.55 415.12 2166.73 411C2163.91 406.87 2160.34 400.69 2158.8 397.25C2157.26 393.81 2155.08 387.74 2153.95 383.75C2152.83 379.76 2151.65 371.77 2151.33 366C2150.98 359.78 2151.23 352.45 2151.93 348C2152.58 343.87 2154.44 336.45 2156.07 331.5C2157.69 326.55 2161.22 318.9 2163.9 314.5C2166.59 310.1 2171.87 303.18 2175.64 299.12C2179.41 295.06 2186.32 289.19 2191 286.08C2195.67 282.96 2202.65 279.15 2206.5 277.59C2210.35 276.04 2217.32 273.95 2222 272.95C2226.67 271.96 2234.32 271.11 2239 271.08ZM1198.04 273.96L1236.44 274.5L1265.47 326.69C1281.44 355.4 1294.85 379.25 1295.28 379.69C1295.71 380.14 1296.04 356.54 1296 274L1334 274L1334 447L1295.56 446.5L1266.53 394.31C1250.56 365.6 1237.15 341.75 1236.72 341.31C1236.29 340.86 1235.96 364.46 1236 447L1198 447L1198.04 273.96ZM1520 274L1558 274L1558.51 388.5L1560.95 394.5C1562.29 397.8 1564.99 402.1 1566.95 404.06C1568.98 406.09 1572.86 408.44 1576 409.54C1580.01 410.94 1584.2 411.46 1591.5 411.46C1598.83 411.46 1602.97 410.94 1607 409.53C1610.06 408.45 1614.1 406.01 1616.11 404.04C1618.09 402.09 1620.79 397.8 1624.49 388.5L1624.81 274L1663 274L1662.99 332.25C1662.97 384.71 1662.79 391.39 1661.14 399.5C1660.14 404.45 1657.67 411.99 1655.66 416.25C1653.01 421.85 1650.13 425.89 1645.25 430.84C1640.42 435.73 1636.22 438.82 1630.5 441.69C1626.1 443.89 1618.9 446.55 1614.5 447.6C1608.49 449.03 1602.77 449.5 1591.5 449.5C1580.23 449.5 1574.51 449.03 1568.5 447.6C1564.1 446.55 1556.9 443.89 1552.5 441.69C1546.78 438.82 1542.58 435.73 1537.75 430.84C1532.87 425.89 1529.99 421.85 1527.34 416.25C1525.33 411.99 1522.86 404.45 1521.86 399.5C1520.21 391.39 1520.02 384.71 1520.01 332.25L1520 274ZM1690 274L1728 274L1728 412L1790 412L1790 447L1690 447L1690 274ZM1766 274L1902 274L1902 309L1853 309L1853 447L1815 447L1815 309L1766 309L1766 274ZM1918 274L1956 274L1956 447L1918 447L1918 274ZM1987.04 273.96L2025.44 274.5L2054.47 326.69C2070.44 355.4 2083.85 379.25 2084.28 379.69C2084.71 380.14 2085.04 356.54 2085 274L2123 274L2123 447L2084.56 446.5L2055.53 394.31C2039.56 365.6 2026.15 341.75 2025.72 341.31C2025.29 340.86 2024.96 364.46 2025 447L1987 447L1987.04 273.96Z" />
</svg>