<svg xmlns="http://www.w3.org/2000/svg" baseProfile="tiny-ps" viewBox="0 0 2330 479"><title>Encryption Consulting</title><style>.shp0,.shp1{opacity:.996;fill:#353535}.shp1{fill:#1b2c58}</style><path id="Path 0" d="M207 2.01c-7.43 1.04-17.78 2.86-23 4.05-5.23 1.18-14.9 3.94-21.5 6.13-6.6 2.18-17.4 6.54-24 9.69-6.6 3.14-16.05 8.15-21 11.13s-14.4 9.48-21 14.44-17.9 14.88-25.1 22.03C64.19 76.64 54.74 87 50.4 92.5 46.05 98 39.74 106.78 36.36 112c-3.38 5.23-8.62 14.45-11.66 20.5-3.03 6.05-6.86 14.37-8.5 18.5-1.64 4.12-4.37 12-6.06 17.5s-3.76 13.15-4.59 17c-.84 3.85-2.24 11.27-3.11 16.5-.91 5.42-1.82 18.74-2.13 31-.42 16.42-.16 24.81 1.09 35.5.9 7.7 2.79 19.17 4.19 25.5 1.41 6.32 4.34 16.9 6.52 23.5s7.06 18.3 10.85 26 9.67 18.27 13.07 23.5c3.41 5.22 9.45 13.55 13.42 18.5 3.98 4.95 10.57 12.57 14.64 16.93 4.08 4.36 12.36 12.18 18.41 17.37s17.07 13.47 24.5 18.4c7.42 4.93 19.8 12.06 27.5 15.85s20.07 8.91 27.5 11.38c7.42 2.46 19.35 5.65 26.5 7.09s19.3 3.32 27 4.19c7.7.86 21.87 1.61 31.5 1.65 12.03.05 21.25-.49 29.5-1.72 6.6-.99 16.95-3.07 23-4.63s15.7-4.56 21.44-6.67 16.28-6.77 23.43-10.34c7.14-3.58 13.11-6.95 13.25-7.5.15-.55-3.42-3.77-7.92-7.16-4.51-3.39-11.98-9.69-16.61-14s-11.6-11.44-15.5-15.84-8.31-9.58-9.79-11.5l-2.71-3.5c-9.76 3.65-16.42 5.79-21.09 7.11-4.68 1.32-12.33 3.08-17 3.92-4.68.83-14.13 1.78-21 2.12-7.16.35-16.88.13-22.75-.52-5.64-.62-13.74-1.83-18-2.7-4.26-.86-12.93-3.27-19.25-5.37-6.33-2.09-15.78-5.94-21-8.55-5.23-2.61-13.33-7.22-18-10.25-4.68-3.02-10.98-7.55-14-10.05-3.03-2.5-7.9-6.84-10.83-9.63-2.94-2.79-8.16-8.46-11.62-12.58-3.46-4.13-8.77-11.33-11.8-16-3.03-4.68-7.65-12.78-10.26-18-2.61-5.23-6.46-14.68-8.55-21-2.1-6.33-4.5-14.88-5.33-19-.84-4.13-1.99-11.55-2.56-16.5s-1.03-12.83-1.03-17.5c0-4.68.46-12.55 1.03-17.5s1.72-12.38 2.56-16.5c.83-4.13 3.23-12.68 5.33-19 2.09-6.33 5.94-15.78 8.55-21 2.61-5.23 7.23-13.33 10.26-18 3.03-4.68 8.34-11.88 11.8-16 3.46-4.13 8.68-9.79 11.62-12.58 2.93-2.79 7.8-7.13 10.83-9.63 3.02-2.5 9.77-7.35 15-10.77 5.22-3.42 14-8.39 19.5-11.03 5.5-2.65 15.17-6.41 21.5-8.37 6.32-1.95 15.55-4.35 20.5-5.32 6.92-1.36 13.85-1.76 30-1.73 17.91.03 22.54.37 31.5 2.29 5.77 1.24 15.22 3.83 21 5.75 5.77 1.93 14.77 5.6 20 8.17 5.22 2.57 13.55 7.32 18.5 10.56 4.95 3.25 11.47 7.95 14.5 10.45 3.02 2.5 7.9 6.84 10.83 9.63s8.15 8.45 11.59 12.58c3.44 4.12 8.51 10.87 11.27 15 2.76 4.12 5.99 9.41 7.17 11.75S388.45 164 389 164s3.14-1.81 5.75-4.02 8.12-5.77 12.25-7.93c4.12-2.15 11.1-4.91 15.5-6.15 5.92-1.65 10.85-2.26 19-2.32 6.05-.04 13.14.26 15.75.67l4.75.75c-9.25-18.21-14.56-27.55-17.78-32.5-3.21-4.95-9.49-13.5-13.94-19s-13.43-15.28-19.94-21.73S394.22 56.64 389 52.48c-5.23-4.17-14-10.57-19.5-14.24-5.5-3.68-15.85-9.65-23-13.27-7.15-3.63-18.4-8.52-25-10.86s-17.4-5.55-24-7.14-16.73-3.63-22.5-4.55C268.29 1.36 256.55.64 242.5.43 224.94.17 217.78.49 207 2.01m267-.05c-6.88.97-16.33 2.54-21 3.49-4.68.96-13.45 3.32-19.5 5.24-6.05 1.93-15.73 5.54-21.5 8.03-5.78 2.48-12.53 5.66-15 7.05-2.48 1.39-5.51 3.13-6.75 3.88-2.18 1.31-1.93 1.59 8 9.08 5.64 4.25 17.04 14.49 25.33 22.75s17.07 17.39 19.5 20.28l4.42 5.27c12.4-4.03 20.39-6.06 25.75-7.12 5.36-1.05 16.16-2.3 24-2.78s18.75-.53 24.25-.09c5.5.43 13.82 1.68 18.5 2.79 4.67 1.1 11.42 3.11 15 4.45 3.57 1.35 11 4.7 16.5 7.46s14.05 7.74 19 11.07 12.82 9.36 17.5 13.41c4.67 4.04 12.1 11.67 16.5 16.94 4.4 5.28 10.47 13.68 13.5 18.67l5.5 9.08 81.5.09c-.93-3.49-2.78-8.55-4.72-13.5s-6.27-14.4-9.62-21c-3.36-6.6-8.76-16.05-12-21-3.25-4.95-9.32-13.28-13.49-18.5-4.18-5.23-11.93-13.78-17.23-19-5.29-5.23-14.99-13.66-21.53-18.74-6.55-5.09-17.76-12.73-24.91-16.99s-17.95-9.89-24-12.51c-6.05-2.63-16.4-6.54-23-8.7s-16.5-4.83-22-5.93c-5.5-1.11-15.51-2.72-22.25-3.57-7.03-.9-18.96-1.51-28-1.45-8.93.06-21.16.86-28.25 1.85" class="shp0"/><path id="Path 1" d="M275.63 293.25c.77 3.44 2.54 10.3 3.93 15.25 1.4 4.95 4.58 14.17 7.08 20.5 2.5 6.32 6.81 15.77 9.57 21 2.76 5.22 7.78 13.77 11.16 19 3.37 5.22 9.71 14 14.08 19.5s12.47 14.66 18 20.35c5.53 5.7 14.1 13.64 19.05 17.66s13.5 10.3 19 13.96 15.62 9.52 22.5 13.02c6.87 3.49 17.22 8.19 23 10.44 5.77 2.25 14.32 5.18 19 6.51 4.67 1.33 11.87 3.1 16 3.94 4.12.84 13.12 2.23 20 3.08 6.87.85 16.66 1.54 21.75 1.54s17.46-.93 27.5-2.07c10.98-1.25 23.43-3.39 31.25-5.38 7.15-1.81 17.5-4.96 23-6.98s17.2-7.22 26-11.55 20.05-10.53 25-13.76c4.95-3.24 13.5-9.51 19-13.94 5.5-4.44 14.5-12.74 20-18.45s13.21-14.66 17.13-19.88c3.93-5.22 9.74-13.77 12.93-18.99 3.19-5.23 8.63-15.35 12.09-22.5s6.31-13.34 6.32-13.75c.02-.41-18.98-.77-42.22-.8l-42.25-.04c-9.13 12.08-16.35 20.09-21.92 25.59-5.58 5.5-14.4 13.02-19.61 16.71s-14.2 9.16-19.97 12.16c-5.78 2.99-14.55 6.86-19.5 8.58-4.95 1.73-13.5 4.11-19 5.3-8.41 1.82-13.34 2.17-31 2.2-16.27.03-23.03-.36-30-1.74-4.95-.99-13.5-3.18-19-4.87-5.5-1.7-15.18-5.72-21.5-8.95-6.33-3.22-16.23-9.4-22-13.73-5.78-4.34-15-12.59-20.5-18.35s-13.03-14.71-16.73-19.89-9.39-14.82-12.65-21.42-6.98-15.04-8.27-18.75l-2.35-6.76-77.27.01z" class="shp0"/><path id="Key" fill-rule="evenodd" d="M446 159.42c9.81.26 12.89.78 21 3.52 5.22 1.77 12.65 5.07 16.5 7.33s10.4 7.51 14.56 11.67 9.41 10.71 11.67 14.56 5.59 11.27 7.4 16.5c3.13 9.04 3.28 10.2 3.28 24s-.15 14.96-3.28 24c-1.81 5.22-5.14 12.65-7.4 16.5s-7.51 10.4-11.67 14.56-10.71 9.41-14.56 11.67-11.28 5.59-16.5 7.4c-9.04 3.13-10.2 3.28-24 3.28s-14.96-.15-24-3.28c-5.23-1.81-12.65-5.14-16.5-7.39-4.06-2.38-10.36-7.51-15-12.22-4.4-4.47-9.58-10.91-15-20.49l-162.9-.53-11.76-16.5c-6.49-9.11-11.44-16.99-11.05-17.58.39-.6 5.55-7.91 11.46-16.25 5.91-8.35 11.25-15.06 11.86-14.92.62.14 3.43 5.58 6.25 12.09 2.83 6.52 5.59 11.85 6.14 11.85s3.47-5.67 6.5-12.62c3.02-6.94 5.72-12.61 6-12.61.27 0 2.97 5.67 6 12.61 3.02 6.95 5.95 12.62 6.5 12.62s3.47-5.67 6.5-12.62c3.02-6.94 5.72-12.61 6-12.61.27 0 3.02 5.74 6.09 12.77 3.08 7.02 6 12.67 6.5 12.56.5-.12 3.38-5.87 6.41-12.78 3.02-6.9 5.72-12.55 6-12.55.27 0 3.02 5.74 6.09 12.77 3.08 7.02 5.95 12.77 6.38 12.77.42 0 3.16-5.4 6.07-12s5.75-12.56 6.31-13.25c.77-.95 8.4-1.25 62.65-1.27l3.5-6.19c1.92-3.4 7.1-9.84 11.5-14.31 4.73-4.8 10.86-9.78 15-12.18 3.85-2.23 10.37-5.26 14.5-6.74 4.12-1.47 9.75-3.07 12.5-3.56s10.17-.75 16.5-.58m-24.86 41.87c-2.95 1.76-7.14 5.23-9.32 7.71-2.18 2.47-5.06 6.75-6.41 9.5s-2.99 7.92-3.64 11.5c-.9 4.99-.9 8.12 0 13.5.65 3.85 2.4 9.47 3.9 12.5 1.49 3.02 4.99 7.78 7.77 10.56s7.53 6.28 10.56 7.77c3.02 1.49 8.42 3.25 12 3.9 4.99.9 8.12.9 13.5 0 3.85-.65 9.47-2.41 12.5-3.9 3.02-1.49 7.78-4.99 10.56-7.77s6.28-7.54 7.77-10.56c1.49-3.03 3.25-8.65 3.9-12.5.9-5.38.9-8.51 0-13.5-.65-3.58-2.29-8.75-3.64-11.5s-4.23-7.03-6.41-9.5c-2.18-2.48-6.37-5.94-9.32-7.71-2.95-1.76-8.06-3.9-11.36-4.75s-8.25-1.52-11-1.48-7.48.73-10.5 1.54c-3.03.81-7.91 2.92-10.86 4.69" class="shp0"/><path id="Encryption" fill-rule="evenodd" d="M1203 42.44c9.68.3 14.47.97 21.25 2.97 4.81 1.43 11.56 4 15 5.72 3.44 1.73 8.27 4.51 10.75 6.19 2.47 1.68 7.59 6.01 11.36 9.62 3.78 3.61 8.8 9.26 11.17 12.56 2.36 3.3 5.92 9.37 7.89 13.5 1.98 4.12 3.59 8.06 3.59 8.75-.01.96-4.88 1.25-42.01 1.25l-2.94-4.75c-1.62-2.61-4.2-5.94-5.75-7.4s-5.06-4.06-7.81-5.78c-2.75-1.73-7.93-4.04-11.5-5.13-4.04-1.23-9.34-1.98-14-1.97-4.13.01-9.98.73-13 1.61-3.03.89-7.98 3.02-11 4.75-3.03 1.73-7.75 5.44-10.5 8.24-2.75 2.79-6.66 8.2-8.69 12.01-2.03 3.8-4.38 9.84-5.23 13.42-.86 3.57-1.55 9.65-1.55 13.5s.69 9.92 1.55 13.5c.85 3.57 3.2 9.63 5.23 13.46 2.03 3.82 5.71 9.04 8.19 11.59 2.47 2.55 6.75 6.07 9.5 7.83 2.75 1.75 7.92 4.09 11.5 5.18 4.01 1.22 9.37 1.98 14 1.98s9.99-.76 14-1.98c3.57-1.09 8.64-3.35 11.25-5.02s6.59-4.95 8.85-7.29c2.25-2.34 5.06-5.95 8.4-11.8l20.75.03c11.41.01 20.94.36 21.17.77.24.41-1.37 4.57-3.57 9.25-2.2 4.67-5.94 11.2-8.31 14.5s-7.4 8.95-11.18 12.56c-3.77 3.61-8.89 7.94-11.36 9.62-2.48 1.68-7.31 4.46-10.75 6.19-3.44 1.72-10.19 4.33-15 5.8-7.8 2.37-10.38 2.67-23.75 2.68-12.4.01-16.39-.36-23-2.18-4.4-1.21-11.38-3.81-15.5-5.76-4.13-1.96-10.2-5.51-13.5-7.88s-8.97-7.39-12.61-11.17c-3.63-3.77-8.48-9.79-10.78-13.36-2.3-3.58-5.57-9.88-7.27-14-1.71-4.13-3.94-11.55-4.96-16.5s-1.85-13.05-1.85-18 .83-13.05 1.85-18 3.25-12.38 4.96-16.5c1.7-4.13 4.97-10.43 7.27-14 2.3-3.58 7.15-9.59 10.78-13.36 3.64-3.78 9.31-8.78 12.61-11.13s8.7-5.61 12-7.25 8.25-3.72 11-4.63c2.75-.9 8.15-2.3 12-3.11 4.77-1 10.98-1.34 19.5-1.08m867 .04c8.57.28 13.73 1.03 20.25 2.95 4.81 1.41 11.56 3.98 15 5.7 3.44 1.73 8.27 4.51 10.75 6.19 2.47 1.68 7.81 6.23 11.86 10.12 4.05 3.88 9.3 9.76 11.68 13.06s5.89 9.37 7.81 13.5c1.92 4.12 4.45 10.87 5.61 15 1.16 4.12 2.38 12 2.71 17.5.34 5.84.1 13.12-.59 17.5-.64 4.12-2.39 11.1-3.89 15.5-1.51 4.4-4.75 11.57-7.21 15.92-2.59 4.58-7.86 11.5-12.48 16.39-4.4 4.65-10.7 10.37-14 12.71-3.3 2.33-8.81 5.65-12.25 7.36-3.44 1.72-10.19 4.32-15 5.79-7.76 2.37-10.39 2.67-23.25 2.67s-15.49-.3-23.25-2.67c-4.81-1.47-11.56-4.07-15-5.79-3.44-1.71-8.95-5.03-12.25-7.36-3.3-2.34-9.6-8.06-14-12.71-4.62-4.89-9.89-11.81-12.48-16.39-2.46-4.35-5.7-11.52-7.21-15.92-1.5-4.4-3.25-11.38-3.89-15.5-.69-4.38-.93-11.66-.59-17.5.33-5.5 1.54-13.38 2.71-17.5 1.16-4.13 3.69-10.88 5.61-15 1.92-4.13 5.43-10.2 7.81-13.5s7.63-9.18 11.68-13.06c4.05-3.89 9.38-8.44 11.86-10.12 2.47-1.68 7.2-4.42 10.5-6.08s9.15-3.99 13-5.17 9.25-2.55 12-3.06c2.75-.5 10.17-.74 16.5-.53m-25.5 43.31c-2.75 1.47-8.41 6.05-12.58 10.19-4.73 4.69-8.57 9.59-10.22 13.02-1.45 3.02-3.33 8.2-4.17 11.5-.85 3.3-1.53 8.02-1.52 10.5.01 2.47.71 7.42 1.56 11 .85 3.57 2.97 9.2 4.71 12.5s6.1 8.96 9.69 12.58c4.51 4.55 8.85 7.74 14.03 10.29 4.12 2.04 10.42 4.23 14 4.87 4.95.89 8.17.89 13.5 0 4.08-.68 10.13-2.71 14.5-4.87 5.18-2.55 9.52-5.74 14.03-10.29 3.59-3.62 7.95-9.28 9.69-12.58s3.86-8.93 4.71-12.5c.85-3.58 1.55-8.53 1.56-11 .01-2.48-.67-7.2-1.52-10.5-.84-3.3-2.72-8.48-4.17-11.5-1.65-3.43-5.49-8.33-10.22-13.02-4.17-4.14-9.83-8.72-12.58-10.19s-7.7-3.37-11-4.23-8.7-1.54-12-1.5-8.48.74-11.5 1.56c-3.03.82-7.75 2.7-10.5 4.17M813 45h100v35h-62v34h60l-.5 34.5-59.5.5v34h62v35H813zm134.04-.04 38.4.54 29.03 52.19c15.97 28.71 29.38 52.56 29.81 53 .43.45.76-23.15.72-105.69h38v173l-38.44-.5-29.03-52.19c-15.97-28.71-29.38-52.56-29.81-53-.43-.45-.76 23.15-.72 105.69h-38zM1310 45l35.75-.01c28.9 0 36.9.29 41.75 1.54 3.3.84 8.45 2.76 11.45 4.25 3 1.5 7.95 5.01 11 7.81s7.12 7.52 9.04 10.5c1.91 2.98 4.54 8.33 5.84 11.91 1.56 4.31 2.54 9.71 2.91 16 .39 6.83.09 11.61-1.08 17-.9 4.12-3.07 10.42-4.83 14-1.92 3.91-5.62 8.94-9.27 12.6-3.33 3.36-8.54 7.36-11.56 8.89-3.03 1.54-6.98 3.29-12.1 5.01l23.68 30.5c13.03 16.77 24.19 31.08 24.8 31.79.91 1.06-3.42 1.28-47.88 1.12l-41-61.21-.5 61.3h-38zm38 81c19.88.03 24.89-.44 28-1.52 2.47-.86 6.02-3.01 7.88-4.77 1.85-1.77 4.17-5.01 5.15-7.21.97-2.2 2.08-5.8 2.45-8 .39-2.24.14-6.63-.57-10-.78-3.74-2.42-7.51-4.34-10-1.77-2.29-5.43-5.18-8.58-6.77-5.11-2.57-6.33-2.76-17.74-2.75L1348 75zm139-81 18.25 29c10.04 15.95 18.47 29.01 18.75 29.01.27 0 8.71-13.06 37-58.01l23.25-.03c22.24-.03 23.18.04 21.65 1.75-.88.98-15.39 21.24-62.9 88.28v83h-38l.21-83.09-30.76-43.2c-16.91-23.77-31.47-44.01-32.35-44.99-1.53-1.71-.59-1.78 44.9-1.72m141 0 35.75-.01c28.9 0 36.9.29 41.75 1.54 3.3.84 8.45 2.76 11.45 4.25 3 1.5 7.95 5.01 11 7.81s7.12 7.52 9.04 10.5c1.91 2.98 4.54 8.33 5.84 11.91 1.56 4.31 2.54 9.71 2.91 16 .39 6.83.09 11.61-1.08 17-.9 4.12-3.07 10.42-4.83 14-1.92 3.9-5.62 8.94-9.27 12.6-3.51 3.54-8.69 7.43-12.31 9.25-3.44 1.73-9.06 3.82-12.5 4.64-4.21 1-11.71 1.49-39.75 1.51v62h-38zm38 81c17.44-.01 24.07-.44 26-.96 1.92-.53 5.05-1.99 6.95-3.25s4.71-4.09 6.24-6.29c1.54-2.2 3.3-6.48 3.91-9.5.85-4.21.81-6.91-.17-11.5-.79-3.71-2.45-7.53-4.36-10-1.77-2.29-5.43-5.18-8.58-6.77-5.11-2.57-6.33-2.76-17.74-2.75L1666 75zm89-81h136v35h-49v138h-38V80h-49zm156 0h38v173h-38zm272.04-.04 38.4.54 29.03 52.19c15.97 28.71 29.38 52.56 29.81 53 .43.45.76-23.15.72-105.69h38v173l-38.44-.5-29.03-52.19c-15.97-28.71-29.38-52.56-29.81-53-.43-.45-.76 23.15-.72 105.69h-38z" class="shp1"/><path id="Consulting" fill-rule="evenodd" d="M899 271.44c9.68.3 14.47.97 21.25 2.97 4.81 1.43 11.56 4 15 5.72 3.44 1.73 8.27 4.51 10.75 6.19 2.47 1.68 7.59 6.01 11.36 9.62 3.78 3.61 8.8 9.26 11.17 12.56 2.36 3.3 5.92 9.37 7.89 13.5 1.98 4.12 3.59 8.06 3.59 8.75-.01.96-4.88 1.25-42.01 1.25l-2.94-4.75c-1.62-2.61-4.2-5.94-5.75-7.4s-5.06-4.06-7.81-5.78c-2.75-1.73-7.93-4.04-11.5-5.13-4.04-1.23-9.34-1.98-14-1.97-4.13.01-9.98.73-13 1.61-3.03.89-7.98 3.02-11 4.75-3.03 1.73-7.75 5.44-10.5 8.24-2.75 2.79-6.66 8.2-8.69 12.01-2.03 3.8-4.38 9.84-5.24 13.42-.85 3.57-1.54 9.65-1.54 13.5s.69 9.92 1.54 13.5c.86 3.57 3.21 9.63 5.24 13.46 2.03 3.82 5.71 9.04 8.19 11.59 2.47 2.55 6.75 6.07 9.5 7.83 2.75 1.75 7.92 4.09 11.5 5.18 4.01 1.22 9.37 1.98 14 1.98s9.99-.76 14-1.98c3.57-1.09 8.64-3.35 11.25-5.02s6.59-4.95 8.85-7.29c2.25-2.34 5.06-5.95 8.4-11.8l20.75.03c11.41.01 20.94.36 21.17.77.24.41-1.37 4.57-3.57 9.25-2.2 4.67-5.94 11.2-8.31 14.5s-7.4 8.95-11.18 12.56c-3.77 3.61-8.89 7.94-11.36 9.62-2.48 1.68-7.31 4.46-10.75 6.19-3.44 1.72-10.19 4.33-15 5.8-7.8 2.37-10.38 2.67-23.75 2.68-12.4.01-16.39-.36-23-2.18-4.4-1.21-11.38-3.81-15.5-5.76-4.13-1.96-10.2-5.51-13.5-7.88s-8.97-7.39-12.61-11.17c-3.63-3.77-8.48-9.79-10.78-13.36-2.3-3.58-5.57-9.88-7.27-14-1.71-4.13-3.94-11.55-4.96-16.5s-1.85-13.05-1.85-18 .83-13.05 1.85-18 3.25-12.38 4.96-16.5c1.7-4.13 4.97-10.43 7.27-14 2.3-3.58 7.15-9.59 10.78-13.36 3.64-3.78 9.31-8.78 12.61-11.13s8.7-5.61 12-7.25 8.25-3.72 11-4.63c2.75-.9 8.15-2.3 12-3.11 4.77-1 10.98-1.34 19.5-1.08m189 .04c8.57.28 13.73 1.03 20.25 2.95 4.81 1.41 11.56 3.98 15 5.7 3.44 1.73 8.27 4.51 10.75 6.19 2.47 1.68 7.81 6.23 11.86 10.12 4.05 3.88 9.3 9.76 11.68 13.06s5.89 9.37 7.81 13.5c1.92 4.12 4.45 10.87 5.61 15 1.17 4.12 2.38 12 2.71 17.5.34 5.84.1 13.12-.59 17.5-.64 4.12-2.39 11.1-3.89 15.5-1.51 4.4-4.75 11.57-7.21 15.92-2.59 4.58-7.86 11.5-12.48 16.39-4.4 4.65-10.7 10.37-14 12.71-3.3 2.33-8.81 5.65-12.25 7.36-3.44 1.72-10.19 4.32-15 5.79-7.76 2.37-10.39 2.67-23.25 2.67s-15.49-.3-23.25-2.67c-4.81-1.47-11.56-4.07-15-5.79-3.44-1.71-8.95-5.03-12.25-7.36-3.3-2.34-9.6-8.06-14-12.71-4.62-4.89-9.89-11.81-12.48-16.39-2.46-4.35-5.7-11.52-7.21-15.92-1.5-4.4-3.25-11.38-3.89-15.5-.69-4.38-.93-11.66-.59-17.5.33-5.5 1.54-13.38 2.71-17.5 1.16-4.13 3.69-10.88 5.61-15 1.92-4.13 5.43-10.2 7.81-13.5s7.63-9.18 11.68-13.06c4.05-3.89 9.38-8.44 11.86-10.12 2.47-1.68 7.2-4.42 10.5-6.08s9.15-3.99 13-5.17 9.25-2.55 12-3.06c2.75-.5 10.17-.74 16.5-.53m-25.5 43.31c-2.75 1.47-8.41 6.05-12.58 10.19-4.73 4.69-8.57 9.59-10.22 13.02-1.45 3.02-3.33 8.2-4.17 11.5-.85 3.3-1.53 8.02-1.52 10.5.01 2.47.71 7.42 1.56 11 .85 3.57 2.97 9.2 4.71 12.5s6.1 8.96 9.69 12.58c4.51 4.55 8.85 7.74 14.03 10.29 4.12 2.04 10.42 4.23 14 4.87 4.95.89 8.17.89 13.5 0 4.08-.68 10.13-2.71 14.5-4.87 5.18-2.55 9.52-5.74 14.03-10.29 3.59-3.62 7.95-9.28 9.69-12.58s3.86-8.93 4.71-12.5c.85-3.58 1.55-8.53 1.56-11 .01-2.48-.67-7.2-1.52-10.5-.84-3.3-2.72-8.48-4.17-11.5-1.65-3.43-5.49-8.33-10.22-13.02-4.17-4.14-9.83-8.72-12.58-10.19s-7.7-3.37-11-4.23-8.7-1.54-12-1.5-8.48.74-11.5 1.56c-3.03.82-7.75 2.7-10.5 4.17m368-43.32c8.9.25 15.52 1.02 21 2.45 4.4 1.14 11.15 3.64 15 5.55 3.85 1.9 9.22 5.39 11.94 7.75 2.72 2.35 6.68 6.98 8.8 10.28 2.13 3.3 4.71 8.92 5.75 12.5 1.03 3.57 2.13 8.64 3.01 16l-37.28-.5-1.11-4.54c-.61-2.5-2.26-6.32-3.67-8.5-1.5-2.32-4.4-4.9-7-6.22-2.44-1.25-7.82-2.74-11.94-3.33-5.35-.75-9.22-.75-13.5.03-3.3.59-7.99 2.09-10.43 3.32-2.43 1.23-5.47 3.81-6.75 5.74-1.62 2.44-2.33 4.94-2.33 8.25.01 3.79.59 5.41 2.86 8 1.56 1.79 5.27 4.32 8.25 5.64 2.97 1.31 14.85 4.75 26.4 7.63s24.6 6.74 29 8.58c4.4 1.83 10.67 5.15 13.93 7.37s7.39 5.83 9.18 8.03 4.39 6.47 5.78 9.5c1.4 3.02 3 8.76 3.57 12.75.69 4.77.71 9.73.09 14.5-.52 3.99-1.67 9.27-2.55 11.75-.88 2.47-2.64 6.3-3.93 8.5-1.28 2.2-5.31 6.81-8.95 10.25-4.19 3.96-9.28 7.52-13.87 9.7-3.99 1.9-11.3 4.47-16.25 5.71-7.62 1.91-11.61 2.25-26 2.22-14.24-.03-18.3-.38-25-2.2-4.4-1.19-11.83-4.06-16.5-6.37-6.15-3.05-10.3-6.02-15.04-10.76-3.59-3.6-7.95-9.25-9.69-12.55-1.73-3.3-3.83-8.7-4.64-12-.82-3.3-1.75-8.36-2.63-16.5h39l1 5.25c.54 2.89 2.34 7.39 4 10 1.65 2.61 4.91 6.11 7.25 7.78s6.5 3.81 9.25 4.75c3.53 1.21 7.95 1.69 15 1.63 8.02-.08 11.19-.57 16-2.47 3.3-1.31 7.41-3.74 9.13-5.41s3.69-4.83 4.37-7.03c.69-2.21.96-5.68.62-7.75-.41-2.46-1.91-5.06-4.37-7.54-2.69-2.72-6.16-4.67-12.25-6.88-4.68-1.7-15.03-4.76-23-6.82-7.98-2.05-18.33-5.07-23-6.71-4.68-1.65-10.75-4.25-13.5-5.8s-7.25-4.82-10-7.26c-2.75-2.45-6.32-6.88-7.93-9.85-1.6-2.96-3.51-7.64-4.23-10.39-.73-2.75-1.31-8.15-1.3-12 0-3.85.48-9.03 1.06-11.5.58-2.48 2.22-6.98 3.65-10 1.52-3.22 5.32-8.24 9.17-12.11 4.25-4.27 9.06-7.86 13.58-10.14 3.85-1.95 9.7-4.32 13-5.27 3.3-.96 8.02-2.11 10.5-2.56 2.47-.45 10.35-.65 17.5-.45m808.5-.39c4.67-.04 11.42.4 15 .98 3.57.57 10.1 2.27 14.5 3.76 4.4 1.5 11.57 4.74 15.92 7.2 4.61 2.61 11.46 7.83 16.37 12.48 4.64 4.4 10.38 10.92 12.76 14.5 2.37 3.57 5.69 9.54 7.38 13.25s3.07 7.2 3.07 7.75c0 .63-7.57 1-41.5.97l-3.5-5.6c-1.93-3.09-5.3-7.08-7.5-8.87-2.2-1.8-6.25-4.39-9-5.78-2.75-1.38-7.7-3.06-11-3.73-3.3-.66-9.83-1.03-14.5-.81-7.31.35-9.62.93-16.5 4.21-5.71 2.73-9.75 5.57-14.1 9.96-3.83 3.86-7.47 8.85-9.75 13.4-2.01 3.99-4.32 10.06-5.14 13.5-.81 3.44-1.49 9.4-1.5 13.25s.67 9.7 1.51 13 2.82 8.7 4.4 12c1.59 3.3 5.29 8.66 8.23 11.92 2.94 3.25 7.6 7.37 10.35 9.14s7.81 4.17 11.25 5.33c4.46 1.51 8.75 2.11 15 2.12 4.81 0 11.34-.68 14.5-1.5 3.16-.83 8.11-2.71 11-4.18 2.89-1.46 7.29-4.73 9.77-7.25 2.49-2.52 5.7-6.61 7.13-9.08 1.43-2.48 2.88-5.51 3.85-9h-44v-29l86.5-.01-.69 9.25c-.39 5.09-1.47 12.63-2.41 16.76-.94 4.12-2.78 10.2-4.08 13.5-1.31 3.3-4.26 9.15-6.56 13s-7.35 10.32-11.22 14.38-9.74 9.29-13.04 11.63-8.81 5.66-12.25 7.37c-3.44 1.72-10.19 4.32-15 5.79-7.75 2.36-10.47 2.67-23.75 2.73-12.69.06-16.2-.27-22.75-2.16-4.26-1.23-10.56-3.5-14-5.05s-9.18-4.78-12.75-7.19c-3.58-2.4-9.34-7.1-12.82-10.44-3.47-3.33-8.63-9.44-11.45-13.56-2.82-4.13-6.39-10.31-7.93-13.75s-3.72-9.51-4.85-13.5c-1.12-3.99-2.3-11.98-2.62-17.75-.35-6.22-.1-13.55.6-18 .65-4.13 2.51-11.55 4.14-16.5 1.62-4.95 5.15-12.6 7.83-17 2.69-4.4 7.97-11.32 11.74-15.38s10.68-9.93 15.36-13.04c4.67-3.12 11.65-6.93 15.5-8.49 3.85-1.55 10.82-3.64 15.5-4.64 4.67-.99 12.32-1.84 17-1.87m-1040.96 2.88 38.4.54 29.03 52.19c15.97 28.71 29.38 52.56 29.81 53 .43.45.76-23.15.72-105.69h38v173l-38.44-.5-29.03-52.19c-15.97-28.71-29.38-52.56-29.81-53-.43-.45-.76 23.15-.72 105.69h-38zM1520 274h38l.51 114.5 2.44 6c1.34 3.3 4.04 7.6 6 9.56 2.03 2.03 5.91 4.38 9.05 5.48 4.01 1.4 8.2 1.92 15.5 1.92 7.33 0 11.47-.52 15.5-1.93 3.06-1.08 7.1-3.52 9.11-5.49 1.98-1.95 4.68-6.24 8.38-15.54l.32-114.5H1663l-.01 58.25c-.02 52.46-.2 59.14-1.85 67.25-1 4.95-3.47 12.49-5.48 16.75-2.65 5.6-5.53 9.64-10.41 14.59-4.83 4.89-9.03 7.98-14.75 10.85-4.4 2.2-11.6 4.86-16 5.91-6.01 1.43-11.73 1.9-23 1.9s-16.99-.47-23-1.9c-4.4-1.05-11.6-3.71-16-5.91-5.72-2.87-9.92-5.96-14.75-10.85-4.88-4.95-7.76-8.99-10.41-14.59-2.01-4.26-4.48-11.8-5.48-16.75-1.65-8.11-1.84-14.79-1.85-67.25zm170 0h38v138h62v35h-100zm76 0h136v35h-49v138h-38V309h-49zm152 0h38v173h-38zm69.04-.04 38.4.54 29.03 52.19c15.97 28.71 29.38 52.56 29.81 53 .43.45.76-23.15.72-105.69h38v173l-38.44-.5-29.03-52.19c-15.97-28.71-29.38-52.56-29.81-53-.43-.45-.76 23.15-.72 105.69h-38z" class="shp1"/></svg>