<?xml version="1.0" encoding="UTF-8"?>
<svg id="Capa_2" data-name="Capa 2" xmlns="http://www.w3.org/2000/svg" viewBox="0 0 265.71 88.31">
  <g id="Capa_1-2" data-name="Capa 1">
    <g>
      <path d="M77.22,20.79c-5.15,0-9.59,1.02-13.31,3.07-3.73,2.05-6.62,4.95-8.66,8.71-2.05,3.76-3.07,8.18-3.07,13.27,0,7.85,2.23,14.01,6.68,18.46,4.45,4.46,10.67,6.68,18.66,6.68,10.03,0,17.49-3.76,22.37-11.29l-10.89-4.55c-1.25,1.65-2.79,2.97-4.6,3.96-1.82.99-4.08,1.48-6.78,1.48-4.22,0-7.47-1.27-9.75-3.81-1.58-1.76-2.59-4.06-3.08-6.88h36c.13-.86.21-1.65.25-2.38.03-.73.05-1.42.05-2.08,0-7.72-2.14-13.76-6.43-18.12-4.29-4.36-10.1-6.53-17.42-6.53ZM70.34,32.57c1.88-1.19,4.17-1.78,6.88-1.78,2.44,0,4.52.53,6.24,1.58,1.72,1.06,3.02,2.61,3.91,4.65.51,1.16.85,2.5,1.07,3.96h-23.48c.25-1.15.58-2.23,1.03-3.22,1.02-2.28,2.48-4.01,4.36-5.2Z"/>
      <polygon points="104.34 69.79 117.41 69.79 117.41 0 104.34 6.53 104.34 69.79"/>
      <polygon points="123.15 69.79 136.22 69.79 136.22 0 123.15 6.53 123.15 69.79"/>
      <path d="M173.74,54.1c-2.86,3.52-6.45,5.29-10.79,5.29-2.64,0-4.72-.76-6.24-2.28-1.52-1.52-2.28-3.6-2.28-6.24v-28.91h-13.07v30.1c0,5.88,1.63,10.49,4.9,13.86,3.27,3.37,7.8,5.05,13.61,5.05,6.5,0,11.59-2.12,15.26-6.35l1.67,5.16h10V21.98h-13.07v32.13Z"/>
      <path d="M261.01,25.59c-3.14-3.2-7.51-4.8-13.12-4.8-4.36,0-8.07.88-11.14,2.62-1.74.99-3.27,2.29-4.6,3.87-.41-.55-.85-1.09-1.34-1.59-3.2-3.27-7.54-4.9-13.02-4.9-5.91,0-10.49,1.92-13.77,5.76l-1.48-4.57h-10v47.82h13.07v-32.84c1.12-1.46,2.4-2.6,3.86-3.39,1.58-.86,3.33-1.29,5.25-1.29,2.51,0,4.44.69,5.79,2.08,1.35,1.39,2.03,3.33,2.03,5.84v29.6h13.07v-30.79c0-.76-.04-1.49-.09-2.21,1.06-1.31,2.26-2.34,3.61-3.08,1.75-.96,3.65-1.44,5.69-1.44,2.44,0,4.36.69,5.74,2.08s2.08,3.33,2.08,5.84v29.6h13.07v-30.79c0-5.74-1.57-10.21-4.7-13.41Z"/>
      <path d="M37.25,26.8c-3.37-4-8.22-6.01-14.58-6.01-4.69,0-8.73.96-12.13,2.87-3.4,1.92-6.01,4.65-7.82,8.22-1.82,3.56-2.72,7.82-2.72,12.77,0,7.46,2.01,13.32,6.04,17.57,4.02,4.26,9.57,6.39,16.63,6.39,4.36,0,8.02-.94,10.99-2.82.74-.47,1.43-1,2.08-1.58v2.42c0,3.7-1.12,6.5-3.37,8.42-2.24,1.91-5.51,2.87-9.8,2.87-2.84,0-5.37-.45-7.6-1.33l4.79,11.57c1.15.1,2.31.16,3.5.16,8.18,0,14.49-2.13,18.91-6.39,4.42-4.26,6.63-10.34,6.63-18.26V21.98h-10l-1.56,4.83ZM35.74,52.56c-1.26,1.71-2.7,3-4.36,3.82-1.78.89-3.8,1.34-6.04,1.34-3.76,0-6.68-1.15-8.76-3.46-2.08-2.31-3.12-5.51-3.12-9.6,0-2.71.46-5.05,1.39-7.03.92-1.98,2.29-3.5,4.11-4.55,1.81-1.05,3.94-1.58,6.39-1.58,4.33,0,7.78,1.8,10.39,5.36v15.72Z"/>
    </g>
  </g>
</svg>
