<svg xmlns="http://www.w3.org/2000/svg" viewBox="0 0 1902.345 372.717"><path fill="#616d82" d="M325.82 356.276v-49.751h-16.952v-8.247h43.589v8.247h-16.994v49.751ZM416.763 356.276H407.5v-7.479h-.511a10.8 10.8 0 0 1-2.228 3.7 13.4 13.4 0 0 1-4.355 3.165 15.46 15.46 0 0 1-6.672 1.3 19.5 19.5 0 0 1-7.926-1.512 11.46 11.46 0 0 1-5.35-4.755 16.5 16.5 0 0 1-1.933-8.521v-30.8h9.432v28.338a10.55 10.55 0 0 0 1.253 5.587 6.9 6.9 0 0 0 3.27 2.849 11.5 11.5 0 0 0 4.4.827 10.75 10.75 0 0 0 5.335-1.317 10.04 10.04 0 0 0 3.733-3.57 9.47 9.47 0 0 0 1.385-5.056v-27.658h9.432ZM493.408 293.691a6.26 6.26 0 0 1 4.419-1.611 6.5 6.5 0 0 1 4.565 1.611 5.38 5.38 0 0 1 1.765 4.166 5.25 5.25 0 0 1-1.765 4.1 6.54 6.54 0 0 1-4.565 1.6 6.3 6.3 0 0 1-4.419-1.6 5.3 5.3 0 0 1-1.743-4.1 5.44 5.44 0 0 1 1.743-4.166m-.21 17.674h9.389v44.911h-9.389ZM538.635 311.365h9.263v8.073h.469a15.2 15.2 0 0 1 2.017-3.823 11.4 11.4 0 0 1 4.186-3.486 15.85 15.85 0 0 1 7.305-1.443q6.753 0 10.943 3.781t4.181 11.47v30.339h-9.431v-27.575a12.3 12.3 0 0 0-1.122-5.629 7.55 7.55 0 0 0-3.123-3.271 9.7 9.7 0 0 0-4.676-1.084 9.9 9.9 0 0 0-5.8 1.637 10.14 10.14 0 0 0-3.57 4.482 16.5 16.5 0 0 0-1.211 6.5v24.941h-9.432ZM613.052 293.691a6.26 6.26 0 0 1 4.419-1.611 6.5 6.5 0 0 1 4.565 1.611 5.38 5.38 0 0 1 1.765 4.166 5.25 5.25 0 0 1-1.765 4.1 6.54 6.54 0 0 1-4.565 1.6 6.3 6.3 0 0 1-4.419-1.6 5.3 5.3 0 0 1-1.743-4.1 5.44 5.44 0 0 1 1.743-4.166m-.21 17.674h9.389v44.911h-9.389ZM656.156 330.445a21.8 21.8 0 0 1 2.381-10.475 17 17 0 0 1 6.73-6.9 23.11 23.11 0 0 1 19.97-.385 15.4 15.4 0 0 1 6.014 5.419 14 14 0 0 1 2.164 7.2h-8.921a9.2 9.2 0 0 0-1.085-3.033 7.24 7.24 0 0 0-2.7-2.7 9.6 9.6 0 0 0-4.971-1.1 8.97 8.97 0 0 0-7.521 3.312q-2.591 3.311-2.591 8.879v6.288q0 5.647 2.7 8.963a9.09 9.09 0 0 0 7.457 3.318 11.7 11.7 0 0 0 4.866-.853 6.43 6.43 0 0 0 2.8-2.317 8.9 8.9 0 0 0 1.3-3.25h8.926a14.04 14.04 0 0 1-2.148 7.036 14.3 14.3 0 0 1-5.988 5.224 22.4 22.4 0 0 1-10.006 1.975 20.7 20.7 0 0 1-10.327-2.443 16.65 16.65 0 0 1-6.688-6.947 22.75 22.75 0 0 1-2.36-10.706ZM727.13 293.691a6.26 6.26 0 0 1 4.418-1.611 6.5 6.5 0 0 1 4.566 1.611 5.38 5.38 0 0 1 1.764 4.166 5.25 5.25 0 0 1-1.764 4.1 6.54 6.54 0 0 1-4.566 1.6 6.3 6.3 0 0 1-4.418-1.6 5.3 5.3 0 0 1-1.743-4.1 5.44 5.44 0 0 1 1.743-4.166m-.211 17.674h9.39v44.911h-9.39ZM800.61 313.024a17.25 17.25 0 0 1 7.03 6.967 21.96 21.96 0 0 1 2.528 10.833v5.824a22.55 22.55 0 0 1-2.528 11.065 16.95 16.95 0 0 1-7.03 6.946 23.9 23.9 0 0 1-20.8 0 17.15 17.15 0 0 1-7.03-6.925 22.25 22.25 0 0 1-2.549-11.044v-5.824a21.54 21.54 0 0 1 2.549-10.706 17.9 17.9 0 0 1 7.072-7.052 21.1 21.1 0 0 1 10.391-2.507 21.5 21.5 0 0 1 10.367 2.423m-16.057 6.9a10.86 10.86 0 0 0-3.571 4.671 17.4 17.4 0 0 0-1.232 6.736v5.013a18.2 18.2 0 0 0 1.169 6.736 10.2 10.2 0 0 0 3.529 4.65 9.72 9.72 0 0 0 5.84 1.7 9.45 9.45 0 0 0 5.777-1.7 10.4 10.4 0 0 0 3.465-4.65 18.3 18.3 0 0 0 1.164-6.736v-5.013a17.6 17.6 0 0 0-1.211-6.736 10.76 10.76 0 0 0-3.523-4.671 9.24 9.24 0 0 0-5.672-1.722 9.4 9.4 0 0 0-5.735 1.726ZM904.402 311.644a12.5 12.5 0 0 1 4.445 2.528 9.8 9.8 0 0 1 2.7 3.95h.469v-22.9h9.432v61.052h-9.179v-7.184h-.469a7.95 7.95 0 0 1-1.7 3.165 11.4 11.4 0 0 1-3.017 2.444 16.5 16.5 0 0 1-3.955 1.6 18.2 18.2 0 0 1-4.629.574 17.05 17.05 0 0 1-9-2.318 15.44 15.44 0 0 1-5.93-6.651 23.2 23.2 0 0 1-2.1-10.237v-7.689a22.7 22.7 0 0 1 2.143-10.238 15.8 15.8 0 0 1 6.014-6.63 17.04 17.04 0 0 1 9-2.338 18.1 18.1 0 0 1 5.776.872m-8.557 8.368a9.8 9.8 0 0 0-3.529 4.376 17.4 17.4 0 0 0-1.253 6.947v4.929a17.5 17.5 0 0 0 1.253 6.967 9.62 9.62 0 0 0 3.592 4.4 10.03 10.03 0 0 0 5.566 1.506 10.2 10.2 0 0 0 5.546-1.485 10 10 0 0 0 3.676-4.228 15.1 15.1 0 0 0 1.316-6.562v-6.8a12.56 12.56 0 0 0-1.406-6.077 10.33 10.33 0 0 0-3.8-4.034 10.54 10.54 0 0 0-5.546-1.443 9.55 9.55 0 0 0-5.415 1.504M957.876 293.691a6.26 6.26 0 0 1 4.418-1.611 6.5 6.5 0 0 1 4.566 1.611 5.38 5.38 0 0 1 1.764 4.166 5.25 5.25 0 0 1-1.764 4.1 6.54 6.54 0 0 1-4.566 1.6 6.3 6.3 0 0 1-4.418-1.6 5.3 5.3 0 0 1-1.743-4.1 5.44 5.44 0 0 1 1.743-4.166m-.211 17.674h9.39v44.911h-9.39ZM1028.386 362.563q2.67-2.765 2.675-7.736v-6.414h-.511a9.5 9.5 0 0 1-1.806 2.744 13.26 13.26 0 0 1-6.372 3.739 18.55 18.55 0 0 1-13.277-1.743 15.97 15.97 0 0 1-6.224-6.61 22.2 22.2 0 0 1-2.275-10.448v-5.911a22.5 22.5 0 0 1 2.275-10.517 16 16 0 0 1 6.2-6.625 17.43 17.43 0 0 1 8.9-2.275 16 16 0 0 1 5.946 1.043 13.3 13.3 0 0 1 4.418 2.759 10 10 0 0 1 2.507 3.634h.469v-6.841h9.137v43.762a18.64 18.64 0 0 1-1.6 8.095 14.3 14.3 0 0 1-4.418 5.434 18.7 18.7 0 0 1-6.52 3.081 31 31 0 0 1-7.947.98 24.6 24.6 0 0 1-10.048-1.785 14.46 14.46 0 0 1-6.03-4.672 12.2 12.2 0 0 1-2.317-6.245h9.348a5.25 5.25 0 0 0 1.485 2.7 8.2 8.2 0 0 0 3.207 1.912 14.2 14.2 0 0 0 4.655.7q5.443-.001 8.123-2.761m-13.15-42.488a10.23 10.23 0 0 0-3.718 4.482 16.3 16.3 0 0 0-1.317 6.778v3.907a15.36 15.36 0 0 0 1.38 6.736 10.8 10.8 0 0 0 3.8 4.46 9.9 9.9 0 0 0 5.567 1.6 9.2 9.2 0 0 0 5.519-1.617 10.16 10.16 0 0 0 3.423-4.271 14.3 14.3 0 0 0 1.169-5.84v-5.9a14.2 14.2 0 0 0-1.232-5.971 10.67 10.67 0 0 0-3.487-4.314 9.1 9.1 0 0 0-5.434-1.611 10.1 10.1 0 0 0-5.67 1.561M1076.114 293.691a6.26 6.26 0 0 1 4.418-1.611 6.5 6.5 0 0 1 4.566 1.611 5.38 5.38 0 0 1 1.764 4.166 5.25 5.25 0 0 1-1.764 4.1 6.54 6.54 0 0 1-4.566 1.6 6.3 6.3 0 0 1-4.418-1.6 5.3 5.3 0 0 1-1.743-4.1 5.44 5.44 0 0 1 1.743-4.166m-.211 17.674h9.39v44.911h-9.39ZM1124.105 300.448h9.221v11.217h10.027v7.394h-10.027v23.825q0 3.657 1.549 4.95t5.334 1.295c.648 0 1.338-.021 2.059-.063s1.27-.073 1.638-.1v7.225c-.368.053-1.2.132-2.485.232s-2.476.147-3.55.147a21.3 21.3 0 0 1-8.479-1.358 7.82 7.82 0 0 1-4.223-4.229 19.3 19.3 0 0 1-1.19-7.325v-24.6h-6.841v-7.394h6.967ZM1177.637 353.237a12.84 12.84 0 0 1-4.1-10.006 12.36 12.36 0 0 1 4.06-9.621q4.052-3.673 11.834-3.676h11.343v-4.208q0-3.862-2.3-5.714a9.53 9.53 0 0 0-6.161-1.848 11.5 11.5 0 0 0-4.2.658 6.35 6.35 0 0 0-2.591 1.785 6.6 6.6 0 0 0-1.322 2.654h-8.963a13.5 13.5 0 0 1 1.38-5.118 11.7 11.7 0 0 1 3.318-3.992 15.1 15.1 0 0 1 5.308-2.57 27.3 27.3 0 0 1 7.373-.9 25.3 25.3 0 0 1 8.794 1.469 13.28 13.28 0 0 1 6.373 4.776q2.377 3.318 2.38 8.921v30.424h-8.968v-5.825h-.422a13.1 13.1 0 0 1-2.633 3.191 12.8 12.8 0 0 1-4.1 2.4 16.5 16.5 0 0 1-5.8.916 15.16 15.16 0 0 1-10.603-3.716m18.374-4.719a9.2 9.2 0 0 0 3.465-3.033 7.62 7.62 0 0 0 1.295-4.376v-4.845h-9.858q-4.124 0-6.009 1.827a6.2 6.2 0 0 0-1.891 4.671 5.85 5.85 0 0 0 2.481 5.209 9.85 9.85 0 0 0 5.629 1.674 10.4 10.4 0 0 0 4.888-1.127M1245.276 295.224h9.432v61.052h-9.432Z"/><path fill="#e3703a" d="M396.137 31.034v27.257H367.71q-12.606 0-18.317 7.033t-5.715 22.273v4.982h45.426v26.376h-45.423v125.14h-30.186v-125.14h-26.083V92.584h26.083v-5.568q0-27.543 12.9-41.762t38.392-14.215ZM406.681 48.033a18.94 18.94 0 0 1 5.716-13.92 19.29 19.29 0 0 1 14.213-5.716 18.81 18.81 0 0 1 14.066 5.716 20.183 20.183 0 0 1 0 27.841 18.81 18.81 0 0 1-14.066 5.714 19.29 19.29 0 0 1-14.213-5.714 18.94 18.94 0 0 1-5.716-13.921m4.689 44.546h30.186v151.516H411.37ZM477.898 92.584h30.183v31.359q9.376-17.289 24.617-25.79a66.9 66.9 0 0 1 33.117-8.5v32.231a67.2 67.2 0 0 0-20.222 3.224 57.6 57.6 0 0 0-18.463 9.671 51.7 51.7 0 0 0-13.481 16.119 48.75 48.75 0 0 0-5.568 22.566v70.63h-30.186ZM588.675 92.584h30.186v24.618a61.9 61.9 0 0 1 20.368-20.221q12.159-7.323 27.989-7.328 17.287 0 28.721 8.939a49.27 49.27 0 0 1 16.411 23.885 65.6 65.6 0 0 1 21.4-24.031q13.187-8.793 30.772-8.793a49.3 49.3 0 0 1 20.515 4.1 43.1 43.1 0 0 1 15.386 11.575 52.8 52.8 0 0 1 9.671 17.731 71 71 0 0 1 3.369 22.274v98.763h-30.185v-90.558q0-16.705-8.353-25.643t-21.246-8.939a27.7 27.7 0 0 0-14.8 4.25 42.3 42.3 0 0 0-11.869 10.989 53 53 0 0 0-7.767 15.387 63.3 63.3 0 0 0-3.077 17.437v77.077H685.98v-90.558q0-16.705-8.352-25.643t-21.248-8.939a26.97 26.97 0 0 0-14.654 4.25 43.1 43.1 0 0 0-11.722 10.989 55.8 55.8 0 0 0-7.914 15.387 60.3 60.3 0 0 0-3.224 17.437v77.077H588.68ZM995.746 244.095h-30.187v-21.98a54.16 54.16 0 0 1-20.074 18.023q-12.46 6.6-31.5 6.6a72.4 72.4 0 0 1-29.893-6.154 73.5 73.5 0 0 1-23.739-16.705 76 76 0 0 1-15.532-24.764 83.2 83.2 0 0 1-5.568-30.626 85.2 85.2 0 0 1 5.568-31.066 77.4 77.4 0 0 1 15.532-25.057 70.6 70.6 0 0 1 23.739-16.705 74 74 0 0 1 29.893-6.008q19.047 0 31.5 6.594a53.34 53.34 0 0 1 20.074 18.317v-21.98h30.187Zm-30.187-84.111a50 50 0 0 0-4.981-15.972 43.2 43.2 0 0 0-9.965-12.9 50.57 50.57 0 0 0-52.166-7.912 44 44 0 0 0-14.946 10.844 47.9 47.9 0 0 0-9.379 15.825 54.4 54.4 0 0 0-3.224 18.61 50 50 0 0 0 3.371 18.317 49 49 0 0 0 9.524 15.386 44.9 44.9 0 0 0 14.947 10.7 47.3 47.3 0 0 0 19.636 3.957 50.5 50.5 0 0 0 17.877-3.078 45.8 45.8 0 0 0 14.36-8.5 44.4 44.4 0 0 0 9.965-12.6 46.7 46.7 0 0 0 4.981-15.387ZM1067.111 168.484a85.2 85.2 0 0 1 5.569-31.066 77.4 77.4 0 0 1 15.532-25.057 70.6 70.6 0 0 1 23.739-16.705 74 74 0 0 1 29.893-6.008q18.751 0 31.212 6.594a54.2 54.2 0 0 1 20.075 18.025V33.084h30.186v211.008h-30.186v-21.98a54.2 54.2 0 0 1-20.075 18.023q-12.461 6.6-31.212 6.6a72.4 72.4 0 0 1-29.893-6.154 73.5 73.5 0 0 1-23.739-16.705 75.95 75.95 0 0 1-15.532-24.764 83.2 83.2 0 0 1-5.569-30.628m126.02-9.965q-2.933-17.583-15.68-28.427t-31.212-10.844a48.05 48.05 0 0 0-19.928 3.957 44 44 0 0 0-14.946 10.844 47.9 47.9 0 0 0-9.378 15.825 54.4 54.4 0 0 0-3.224 18.61 50 50 0 0 0 3.37 18.317 49 49 0 0 0 9.525 15.386 44.9 44.9 0 0 0 14.946 10.7 47.3 47.3 0 0 0 19.635 3.957 50.3 50.3 0 0 0 17.584-2.931 45.6 45.6 0 0 0 24.179-20.515 43.2 43.2 0 0 0 5.129-14.946ZM1254.966 48.033a18.95 18.95 0 0 1 5.714-13.92 19.3 19.3 0 0 1 14.214-5.716 18.82 18.82 0 0 1 14.068 5.716 20.184 20.184 0 0 1 0 27.841 18.82 18.82 0 0 1-14.068 5.714 19.3 19.3 0 0 1-14.214-5.714 18.95 18.95 0 0 1-5.714-13.921m4.688 44.546h30.187v151.516h-30.187ZM1472.126 236.475q0 35.457-19.195 53.631t-56.709 18.172q-18.462 0-31.358-4.1t-21.1-10.844a44.3 44.3 0 0 1-12.309-15.532 54.7 54.7 0 0 1-4.982-18.17h31.358a22.5 22.5 0 0 0 4.689 10.11 27.25 27.25 0 0 0 8.646 6.887 41.3 41.3 0 0 0 11.577 3.81 75.4 75.4 0 0 0 13.48 1.173q45.72 0 45.72-45.133v-18.462a54.2 54.2 0 0 1-20.077 18.023q-12.459 6.594-31.5 6.594a75.5 75.5 0 0 1-29.894-5.861 70.8 70.8 0 0 1-23.739-16.266 75 75 0 0 1-15.532-24.325 79.3 79.3 0 0 1-5.569-29.746 80.9 80.9 0 0 1 5.569-30.332 75.1 75.1 0 0 1 15.532-24.325 70.9 70.9 0 0 1 23.739-16.266 75.6 75.6 0 0 1 29.894-5.861q19.046 0 31.5 6.594a54.2 54.2 0 0 1 20.077 18.025V92.584h30.184Zm-124.846-69.75a48.4 48.4 0 0 0 3.37 17.731 45.5 45.5 0 0 0 9.525 15.093 47.05 47.05 0 0 0 34.582 14.36 50.5 50.5 0 0 0 17.877-3.077 45.8 45.8 0 0 0 14.36-8.5 43.1 43.1 0 0 0 9.964-12.9 50 50 0 0 0 4.984-15.973v-14.066a46.08 46.08 0 0 0-29.894-37.806 49.5 49.5 0 0 0-17.291-2.931 48.05 48.05 0 0 0-19.929 3.957 46 46 0 0 0-14.946 10.55 45.3 45.3 0 0 0-9.378 15.24 51.9 51.9 0 0 0-3.223 18.322ZM1503.781 48.033a18.94 18.94 0 0 1 5.715-13.92 19.29 19.29 0 0 1 14.213-5.716 18.81 18.81 0 0 1 14.067 5.716 20.186 20.186 0 0 1 0 27.841 18.81 18.81 0 0 1-14.067 5.714 19.29 19.29 0 0 1-14.213-5.714 18.94 18.94 0 0 1-5.715-13.921m4.688 44.546h30.187v151.516h-30.187ZM1622.469 46.861v45.723h41.03v26.376h-41.03v76.784q0 13.779 6.007 18.609t15.973 4.836a74 74 0 0 0 8.938-.586q4.835-.584 10.112-1.465v27.841q-6.747.879-13.189 1.466t-12.309.586a76.2 76.2 0 0 1-19.05-2.2 32.8 32.8 0 0 1-14.36-7.62 35.45 35.45 0 0 1-9.085-14.507q-3.228-9.081-3.223-22.566v-81.18h-27.842V92.584h27.84V46.866ZM1835.817 244.095h-30.186v-21.98a54.15 54.15 0 0 1-20.074 18.023q-12.461 6.6-31.5 6.6a72.4 72.4 0 0 1-29.892-6.154 73.5 73.5 0 0 1-23.739-16.705 76 76 0 0 1-15.533-24.764 83.2 83.2 0 0 1-5.568-30.626 85.2 85.2 0 0 1 5.568-31.066 77.4 77.4 0 0 1 15.533-25.057 70.6 70.6 0 0 1 23.739-16.705 74 74 0 0 1 29.892-6.008q19.047 0 31.5 6.594a53.3 53.3 0 0 1 20.074 18.317v-21.98h30.186Zm-30.186-84.111a50 50 0 0 0-4.981-15.972 43.1 43.1 0 0 0-9.965-12.9 50.57 50.57 0 0 0-52.166-7.912 44 44 0 0 0-14.946 10.844 47.9 47.9 0 0 0-9.378 15.825 54.4 54.4 0 0 0-3.224 18.61 50 50 0 0 0 3.371 18.317 48.9 48.9 0 0 0 9.524 15.386 44.9 44.9 0 0 0 14.946 10.7 47.3 47.3 0 0 0 19.637 3.957 50.5 50.5 0 0 0 17.877-3.078 45.8 45.8 0 0 0 14.359-8.5 44.3 44.3 0 0 0 9.965-12.6 46.7 46.7 0 0 0 4.981-15.387ZM1872.158 33.084h30.187v211.008h-30.187Z"/><path fill="#1a3d93" d="m141.728 261.269 60.487-38.2a63.59 63.59 0 0 0 29.776-54.028V0H0v170.8a60.39 60.39 0 0 0 28.289 51.322l17.975 11.354 193.13 122.776 1.813 1.155 14.893-23.431Zm62.5-233.508v43.085l-42.982 43.16-42.484-44.142 42.316-42.1Zm-62.576 105.92-4.7 4.72H93.52V94.984l5.562-5.536Zm-98.539 64.974a32.78 32.78 0 0 1-15.352-27.851V27.761h97.334L71.873 80.71a12.62 12.62 0 0 0-3.735 9v61.386a12.7 12.7 0 0 0 12.691 12.688h59.888a15.98 15.98 0 0 0 11.4-4.73l52.113-52.258v62.25a35.96 35.96 0 0 1-16.84 30.554l-71.394 45.088ZM1018.655 224.46a18.95 18.95 0 0 1 5.715-13.92 19.3 19.3 0 0 1 14.211-5.716 18.82 18.82 0 0 1 14.067 5.716 20.18 20.18 0 0 1 0 27.841 18.82 18.82 0 0 1-14.067 5.714 19.3 19.3 0 0 1-14.214-5.714 18.94 18.94 0 0 1-5.712-13.921"/></svg>