<svg xmlns="http://www.w3.org/2000/svg" viewBox="0 0 1902.345 372.717"><g transform="translate(-5345.419 -3152.116)"><path d="M5671.239,3508.392v-49.751h-16.952v-8.247h43.589v8.247h-16.994v49.751Z" fill="#616d82"/><path d="M5762.182,3508.392h-9.263v-7.479h-.511a10.788,10.788,0,0,1-2.228,3.7,13.359,13.359,0,0,1-4.355,3.165,15.457,15.457,0,0,1-6.672,1.3,19.484,19.484,0,0,1-7.926-1.512,11.464,11.464,0,0,1-5.35-4.755,16.523,16.523,0,0,1-1.933-8.521v-30.8h9.432v28.338a10.549,10.549,0,0,0,1.253,5.587,6.883,6.883,0,0,0,3.27,2.849,11.45,11.45,0,0,0,4.4.827,10.749,10.749,0,0,0,5.335-1.317,10.039,10.039,0,0,0,3.733-3.57,9.467,9.467,0,0,0,1.385-5.056v-27.658h9.432Z" fill="#616d82"/><path d="M5838.827,3445.807a6.256,6.256,0,0,1,4.419-1.611,6.5,6.5,0,0,1,4.565,1.611,5.383,5.383,0,0,1,1.765,4.166,5.252,5.252,0,0,1-1.765,4.1,6.536,6.536,0,0,1-4.565,1.6,6.291,6.291,0,0,1-4.419-1.6,5.307,5.307,0,0,1-1.743-4.1A5.44,5.44,0,0,1,5838.827,3445.807Zm-.21,17.674h9.389v44.911h-9.389Z" fill="#616d82"/><path d="M5884.054,3463.481h9.263v8.073h.469a15.163,15.163,0,0,1,2.017-3.823,11.4,11.4,0,0,1,4.186-3.486,15.846,15.846,0,0,1,7.305-1.443q6.753,0,10.943,3.781t4.181,11.47v30.339h-9.431v-27.575a12.322,12.322,0,0,0-1.122-5.629,7.551,7.551,0,0,0-3.123-3.271,9.679,9.679,0,0,0-4.676-1.084,9.918,9.918,0,0,0-5.8,1.637,10.139,10.139,0,0,0-3.57,4.482,16.5,16.5,0,0,0-1.211,6.5v24.941h-9.432Z" fill="#616d82"/><path d="M5958.471,3445.807a6.256,6.256,0,0,1,4.419-1.611,6.5,6.5,0,0,1,4.565,1.611,5.384,5.384,0,0,1,1.765,4.166,5.253,5.253,0,0,1-1.765,4.1,6.538,6.538,0,0,1-4.565,1.6,6.29,6.29,0,0,1-4.419-1.6,5.307,5.307,0,0,1-1.743-4.1A5.44,5.44,0,0,1,5958.471,3445.807Zm-.21,17.674h9.389v44.911h-9.389Z" fill="#616d82"/><path d="M6001.575,3482.561a21.812,21.812,0,0,1,2.381-10.475,16.989,16.989,0,0,1,6.73-6.9,23.113,23.113,0,0,1,19.97-.385,15.408,15.408,0,0,1,6.014,5.419,13.983,13.983,0,0,1,2.164,7.2h-8.921a9.182,9.182,0,0,0-1.085-3.033,7.237,7.237,0,0,0-2.7-2.7,9.623,9.623,0,0,0-4.971-1.1,8.966,8.966,0,0,0-7.521,3.312q-2.591,3.311-2.591,8.879v6.288q0,5.647,2.7,8.963a9.091,9.091,0,0,0,7.457,3.318,11.72,11.72,0,0,0,4.866-.853,6.425,6.425,0,0,0,2.8-2.317,8.909,8.909,0,0,0,1.3-3.25h8.926a14.043,14.043,0,0,1-2.148,7.036,14.3,14.3,0,0,1-5.988,5.224,22.419,22.419,0,0,1-10.006,1.975,20.719,20.719,0,0,1-10.327-2.443,16.652,16.652,0,0,1-6.688-6.947,22.753,22.753,0,0,1-2.36-10.706Z" fill="#616d82"/><path d="M6072.549,3445.807a6.256,6.256,0,0,1,4.418-1.611,6.5,6.5,0,0,1,4.566,1.611,5.383,5.383,0,0,1,1.764,4.166,5.252,5.252,0,0,1-1.764,4.1,6.539,6.539,0,0,1-4.566,1.6,6.291,6.291,0,0,1-4.418-1.6,5.305,5.305,0,0,1-1.743-4.1A5.438,5.438,0,0,1,6072.549,3445.807Zm-.211,17.674h9.39v44.911h-9.39Z" fill="#616d82"/><path d="M6146.029,3465.14a17.253,17.253,0,0,1,7.03,6.967,21.964,21.964,0,0,1,2.528,10.833v5.824a22.552,22.552,0,0,1-2.528,11.065,16.955,16.955,0,0,1-7.03,6.946,23.9,23.9,0,0,1-20.8,0,17.149,17.149,0,0,1-7.03-6.925,22.252,22.252,0,0,1-2.549-11.044v-5.824a21.535,21.535,0,0,1,2.549-10.706,17.922,17.922,0,0,1,7.072-7.052,21.118,21.118,0,0,1,10.391-2.507A21.515,21.515,0,0,1,6146.029,3465.14Zm-16.057,6.9a10.856,10.856,0,0,0-3.571,4.671,17.373,17.373,0,0,0-1.232,6.736v5.013a18.2,18.2,0,0,0,1.169,6.736,10.185,10.185,0,0,0,3.529,4.65,9.724,9.724,0,0,0,5.84,1.7,9.445,9.445,0,0,0,5.777-1.7,10.4,10.4,0,0,0,3.465-4.65,18.3,18.3,0,0,0,1.164-6.736v-5.013a17.558,17.558,0,0,0-1.211-6.736,10.759,10.759,0,0,0-3.523-4.671,9.236,9.236,0,0,0-5.672-1.722A9.382,9.382,0,0,0,6129.972,3472.044Z" fill="#616d82"/><path d="M6249.821,3463.76a12.517,12.517,0,0,1,4.445,2.528,9.8,9.8,0,0,1,2.7,3.95h.469v-22.9h9.432v61.052h-9.179v-7.184h-.469a7.946,7.946,0,0,1-1.7,3.165,11.346,11.346,0,0,1-3.017,2.444,16.472,16.472,0,0,1-3.955,1.6,18.165,18.165,0,0,1-4.629.574,17.049,17.049,0,0,1-9-2.318,15.444,15.444,0,0,1-5.93-6.651,23.215,23.215,0,0,1-2.1-10.237v-7.689a22.7,22.7,0,0,1,2.143-10.238,15.778,15.778,0,0,1,6.014-6.63,17.044,17.044,0,0,1,9-2.338A18.077,18.077,0,0,1,6249.821,3463.76Zm-8.557,8.368a9.8,9.8,0,0,0-3.529,4.376,17.37,17.37,0,0,0-1.253,6.947v4.929a17.526,17.526,0,0,0,1.253,6.967,9.622,9.622,0,0,0,3.592,4.4,10.033,10.033,0,0,0,5.566,1.506,10.2,10.2,0,0,0,5.546-1.485,9.985,9.985,0,0,0,3.676-4.228,15.092,15.092,0,0,0,1.316-6.562v-6.8a12.558,12.558,0,0,0-1.406-6.077,10.328,10.328,0,0,0-3.8-4.034,10.542,10.542,0,0,0-5.546-1.443A9.554,9.554,0,0,0,6241.264,3472.128Z" fill="#616d82"/><path d="M6303.295,3445.807a6.256,6.256,0,0,1,4.418-1.611,6.5,6.5,0,0,1,4.566,1.611,5.382,5.382,0,0,1,1.764,4.166,5.251,5.251,0,0,1-1.764,4.1,6.537,6.537,0,0,1-4.566,1.6,6.291,6.291,0,0,1-4.418-1.6,5.305,5.305,0,0,1-1.743-4.1A5.438,5.438,0,0,1,6303.295,3445.807Zm-.211,17.674h9.39v44.911h-9.39Z" fill="#616d82"/><path d="M6373.805,3514.679q2.67-2.765,2.675-7.736v-6.414h-.511a9.516,9.516,0,0,1-1.806,2.744,13.255,13.255,0,0,1-6.372,3.739,18.55,18.55,0,0,1-13.277-1.743,15.972,15.972,0,0,1-6.224-6.61,22.208,22.208,0,0,1-2.275-10.448V3482.3a22.473,22.473,0,0,1,2.275-10.517,15.978,15.978,0,0,1,6.2-6.625,17.433,17.433,0,0,1,8.9-2.275,16.019,16.019,0,0,1,5.946,1.043,13.33,13.33,0,0,1,4.418,2.759,9.984,9.984,0,0,1,2.507,3.634h.469v-6.841h9.137v43.762a18.641,18.641,0,0,1-1.6,8.095,14.3,14.3,0,0,1-4.418,5.434,18.733,18.733,0,0,1-6.52,3.081,30.936,30.936,0,0,1-7.947.98,24.6,24.6,0,0,1-10.048-1.785,14.456,14.456,0,0,1-6.03-4.672,12.176,12.176,0,0,1-2.317-6.245h9.348a5.253,5.253,0,0,0,1.485,2.7,8.225,8.225,0,0,0,3.207,1.912,14.154,14.154,0,0,0,4.655.7Q6371.125,3517.439,6373.805,3514.679Zm-13.15-42.488a10.231,10.231,0,0,0-3.718,4.482,16.288,16.288,0,0,0-1.317,6.778v3.907a15.361,15.361,0,0,0,1.38,6.736,10.778,10.778,0,0,0,3.8,4.46,9.883,9.883,0,0,0,5.567,1.6,9.2,9.2,0,0,0,5.519-1.617,10.157,10.157,0,0,0,3.423-4.271,14.343,14.343,0,0,0,1.169-5.84v-5.9a14.211,14.211,0,0,0-1.232-5.971,10.668,10.668,0,0,0-3.487-4.314,9.089,9.089,0,0,0-5.434-1.611A10.1,10.1,0,0,0,6360.655,3472.191Z" fill="#616d82"/><path d="M6421.533,3445.807a6.255,6.255,0,0,1,4.418-1.611,6.5,6.5,0,0,1,4.566,1.611,5.383,5.383,0,0,1,1.764,4.166,5.252,5.252,0,0,1-1.764,4.1,6.539,6.539,0,0,1-4.566,1.6,6.289,6.289,0,0,1-4.418-1.6,5.3,5.3,0,0,1-1.743-4.1A5.437,5.437,0,0,1,6421.533,3445.807Zm-.211,17.674h9.39v44.911h-9.39Z" fill="#616d82"/><path d="M6469.524,3452.564h9.221v11.217h10.027v7.394h-10.027V3495q0,3.657,1.549,4.95t5.334,1.295c.648,0,1.338-.021,2.059-.063s1.27-.073,1.638-.1v7.225c-.368.053-1.2.132-2.485.232s-2.476.147-3.55.147a21.3,21.3,0,0,1-8.479-1.358,7.817,7.817,0,0,1-4.223-4.229,19.255,19.255,0,0,1-1.19-7.325v-24.6h-6.841v-7.394h6.967Z" fill="#616d82"/><path d="M6523.056,3505.353a12.843,12.843,0,0,1-4.1-10.006,12.362,12.362,0,0,1,4.06-9.621q4.052-3.673,11.834-3.676h11.343v-4.208q0-3.862-2.3-5.714a9.529,9.529,0,0,0-6.161-1.848,11.522,11.522,0,0,0-4.2.658,6.349,6.349,0,0,0-2.591,1.785,6.63,6.63,0,0,0-1.322,2.654h-8.963a13.5,13.5,0,0,1,1.38-5.118,11.716,11.716,0,0,1,3.318-3.992,15.1,15.1,0,0,1,5.308-2.57,27.285,27.285,0,0,1,7.373-.9,25.286,25.286,0,0,1,8.794,1.469,13.279,13.279,0,0,1,6.373,4.776q2.377,3.318,2.38,8.921v30.424h-8.968v-5.825h-.422a13.13,13.13,0,0,1-2.633,3.191,12.749,12.749,0,0,1-4.1,2.4,16.527,16.527,0,0,1-5.8.916A15.164,15.164,0,0,1,6523.056,3505.353Zm18.374-4.719a9.2,9.2,0,0,0,3.465-3.033,7.621,7.621,0,0,0,1.295-4.376v-4.845h-9.858q-4.124,0-6.009,1.827a6.2,6.2,0,0,0-1.891,4.671,5.85,5.85,0,0,0,2.481,5.209,9.847,9.847,0,0,0,5.629,1.674A10.4,10.4,0,0,0,6541.43,3500.634Z" fill="#616d82"/><path d="M6590.695,3447.34h9.432v61.052h-9.432Z" fill="#616d82"/><path d="M5741.556,3183.15v27.257h-28.427q-12.606,0-18.317,7.033t-5.715,22.273v4.982h45.426v26.376H5689.1v125.14h-30.186v-125.14h-26.083V3244.7h26.083v-5.568q0-27.543,12.9-41.762t38.392-14.215Z" fill="#e3703a"/><path d="M5752.1,3200.149a18.944,18.944,0,0,1,5.716-13.92,19.286,19.286,0,0,1,14.213-5.716,18.814,18.814,0,0,1,14.066,5.716,20.183,20.183,0,0,1,0,27.841,18.813,18.813,0,0,1-14.066,5.714,19.285,19.285,0,0,1-14.213-5.714A18.94,18.94,0,0,1,5752.1,3200.149Zm4.689,44.546h30.186v151.516h-30.186Z" fill="#e3703a"/><path d="M5823.317,3244.7H5853.5v31.359q9.376-17.289,24.617-25.79a66.872,66.872,0,0,1,33.117-8.5V3274a67.236,67.236,0,0,0-20.222,3.224,57.623,57.623,0,0,0-18.463,9.671,51.694,51.694,0,0,0-13.481,16.119,48.745,48.745,0,0,0-5.568,22.566v70.63h-30.186Z" fill="#e3703a"/><path d="M5934.094,3244.7h30.186v24.618a61.93,61.93,0,0,1,20.368-20.221q12.159-7.323,27.989-7.328,17.287,0,28.721,8.939a49.268,49.268,0,0,1,16.411,23.885,65.6,65.6,0,0,1,21.4-24.031q13.187-8.793,30.772-8.793a49.331,49.331,0,0,1,20.515,4.1,43.076,43.076,0,0,1,15.386,11.575,52.768,52.768,0,0,1,9.671,17.731,71.069,71.069,0,0,1,3.369,22.274v98.763h-30.185v-90.558q0-16.705-8.353-25.643t-21.246-8.939a27.7,27.7,0,0,0-14.8,4.25,42.268,42.268,0,0,0-11.869,10.989,52.933,52.933,0,0,0-7.767,15.387,63.307,63.307,0,0,0-3.077,17.437v77.077h-30.186v-90.558q0-16.705-8.352-25.643t-21.248-8.939a26.968,26.968,0,0,0-14.654,4.25,43.084,43.084,0,0,0-11.722,10.989,55.779,55.779,0,0,0-7.914,15.387,60.255,60.255,0,0,0-3.224,17.437v77.077h-30.186Z" fill="#e3703a"/><path d="M6341.165,3396.211h-30.187v-21.98a54.164,54.164,0,0,1-20.074,18.023q-12.46,6.6-31.5,6.6a72.439,72.439,0,0,1-29.893-6.154,73.455,73.455,0,0,1-23.739-16.705,75.948,75.948,0,0,1-15.532-24.764,83.189,83.189,0,0,1-5.568-30.626,85.182,85.182,0,0,1,5.568-31.066,77.4,77.4,0,0,1,15.532-25.057,70.63,70.63,0,0,1,23.739-16.705,74,74,0,0,1,29.893-6.008q19.047,0,31.5,6.594a53.338,53.338,0,0,1,20.074,18.317V3244.7h30.187Zm-30.187-84.111a50.042,50.042,0,0,0-4.981-15.972,43.164,43.164,0,0,0-9.965-12.9,50.573,50.573,0,0,0-52.166-7.912,43.985,43.985,0,0,0-14.946,10.844,47.871,47.871,0,0,0-9.379,15.825,54.383,54.383,0,0,0-3.224,18.61,49.944,49.944,0,0,0,3.371,18.317,48.957,48.957,0,0,0,9.524,15.386,44.906,44.906,0,0,0,14.947,10.7,47.313,47.313,0,0,0,19.636,3.957,50.5,50.5,0,0,0,17.877-3.078,45.751,45.751,0,0,0,14.36-8.5,44.355,44.355,0,0,0,9.965-12.6,46.7,46.7,0,0,0,4.981-15.387Z" fill="#e3703a"/><path d="M6412.53,3320.6a85.152,85.152,0,0,1,5.569-31.066,77.4,77.4,0,0,1,15.532-25.057,70.642,70.642,0,0,1,23.739-16.705,73.991,73.991,0,0,1,29.893-6.008q18.751,0,31.212,6.594a54.207,54.207,0,0,1,20.075,18.025V3185.2h30.186v211.008H6538.55v-21.98a54.185,54.185,0,0,1-20.075,18.023q-12.461,6.6-31.212,6.6a72.434,72.434,0,0,1-29.893-6.154,73.468,73.468,0,0,1-23.739-16.705,75.947,75.947,0,0,1-15.532-24.764A83.16,83.16,0,0,1,6412.53,3320.6Zm126.02-9.965q-2.933-17.583-15.68-28.427t-31.212-10.844a48.053,48.053,0,0,0-19.928,3.957,43.969,43.969,0,0,0-14.946,10.844,47.861,47.861,0,0,0-9.378,15.825,54.359,54.359,0,0,0-3.224,18.61,49.954,49.954,0,0,0,3.37,18.317,48.944,48.944,0,0,0,9.525,15.386,44.875,44.875,0,0,0,14.946,10.7,47.314,47.314,0,0,0,19.635,3.957,50.275,50.275,0,0,0,17.584-2.931,45.6,45.6,0,0,0,24.179-20.515,43.17,43.17,0,0,0,5.129-14.946Z" fill="#e3703a"/><path d="M6600.385,3200.149a18.95,18.95,0,0,1,5.714-13.92,19.293,19.293,0,0,1,14.214-5.716,18.819,18.819,0,0,1,14.068,5.716,20.184,20.184,0,0,1,0,27.841,18.819,18.819,0,0,1-14.068,5.714,19.292,19.292,0,0,1-14.214-5.714A18.946,18.946,0,0,1,6600.385,3200.149Zm4.688,44.546h30.187v151.516h-30.187Z" fill="#e3703a"/><path d="M6817.545,3388.591q0,35.457-19.195,53.631t-56.709,18.172q-18.462,0-31.358-4.1t-21.1-10.844a44.268,44.268,0,0,1-12.309-15.532,54.717,54.717,0,0,1-4.982-18.17h31.358a22.472,22.472,0,0,0,4.689,10.11,27.247,27.247,0,0,0,8.646,6.887,41.322,41.322,0,0,0,11.577,3.81,75.437,75.437,0,0,0,13.48,1.173q45.72,0,45.72-45.133v-18.462a54.2,54.2,0,0,1-20.077,18.023q-12.459,6.594-31.5,6.594a75.478,75.478,0,0,1-29.894-5.861,70.8,70.8,0,0,1-23.739-16.266,74.97,74.97,0,0,1-15.532-24.325,79.28,79.28,0,0,1-5.569-29.746,80.9,80.9,0,0,1,5.569-30.332,75.066,75.066,0,0,1,15.532-24.325,70.942,70.942,0,0,1,23.739-16.266,75.563,75.563,0,0,1,29.894-5.861q19.046,0,31.5,6.594a54.205,54.205,0,0,1,20.077,18.025V3244.7h30.184Zm-124.846-69.75a48.384,48.384,0,0,0,3.37,17.731,45.506,45.506,0,0,0,9.525,15.093,47.047,47.047,0,0,0,34.582,14.36,50.537,50.537,0,0,0,17.877-3.077,45.807,45.807,0,0,0,14.36-8.5,43.073,43.073,0,0,0,9.964-12.9,50.048,50.048,0,0,0,4.984-15.973v-14.066a46.081,46.081,0,0,0-29.894-37.806,49.489,49.489,0,0,0-17.291-2.931,48.05,48.05,0,0,0-19.929,3.957,45.972,45.972,0,0,0-14.946,10.55,45.275,45.275,0,0,0-9.378,15.24A51.918,51.918,0,0,0,6692.7,3318.841Z" fill="#e3703a"/><path d="M6849.2,3200.149a18.943,18.943,0,0,1,5.715-13.92,19.287,19.287,0,0,1,14.213-5.716,18.814,18.814,0,0,1,14.067,5.716,20.186,20.186,0,0,1,0,27.841,18.813,18.813,0,0,1-14.067,5.714,19.287,19.287,0,0,1-14.213-5.714A18.939,18.939,0,0,1,6849.2,3200.149Zm4.688,44.546h30.187v151.516h-30.187Z" fill="#e3703a"/><path d="M6967.888,3198.977V3244.7h41.03v26.376h-41.03v76.784q0,13.779,6.007,18.609t15.973,4.836a74.036,74.036,0,0,0,8.938-.586q4.835-.584,10.112-1.465v27.841q-6.747.879-13.189,1.466t-12.309.586a76.18,76.18,0,0,1-19.05-2.2,32.816,32.816,0,0,1-14.36-7.62,35.449,35.449,0,0,1-9.085-14.507q-3.228-9.081-3.223-22.566v-81.18H6909.86V3244.7H6937.7v-45.718Z" fill="#e3703a"/><path d="M7181.236,3396.211H7151.05v-21.98a54.148,54.148,0,0,1-20.074,18.023q-12.461,6.6-31.5,6.6a72.433,72.433,0,0,1-29.892-6.154,73.457,73.457,0,0,1-23.739-16.705,75.949,75.949,0,0,1-15.533-24.764,83.189,83.189,0,0,1-5.568-30.626,85.182,85.182,0,0,1,5.568-31.066,77.4,77.4,0,0,1,15.533-25.057,70.632,70.632,0,0,1,23.739-16.705,73.989,73.989,0,0,1,29.892-6.008q19.047,0,31.5,6.594a53.322,53.322,0,0,1,20.074,18.317V3244.7h30.186ZM7151.05,3312.1a50.029,50.029,0,0,0-4.981-15.972,43.14,43.14,0,0,0-9.965-12.9,50.573,50.573,0,0,0-52.166-7.912,43.988,43.988,0,0,0-14.946,10.844,47.878,47.878,0,0,0-9.378,15.825,54.359,54.359,0,0,0-3.224,18.61,49.944,49.944,0,0,0,3.371,18.317,48.931,48.931,0,0,0,9.524,15.386,44.885,44.885,0,0,0,14.946,10.7,47.322,47.322,0,0,0,19.637,3.957,50.508,50.508,0,0,0,17.877-3.078,45.771,45.771,0,0,0,14.359-8.5,44.329,44.329,0,0,0,9.965-12.6,46.691,46.691,0,0,0,4.981-15.387Z" fill="#e3703a"/><path d="M7217.577,3185.2h30.187v211.008h-30.187Z" fill="#e3703a"/><path d="M5487.147,3413.385l60.487-38.2a63.592,63.592,0,0,0,29.776-54.028V3152.116H5345.419v170.8a60.389,60.389,0,0,0,28.289,51.322l17.975,11.354,193.13,122.776,1.813,1.155,14.893-23.431Zm62.5-233.508v43.085l-42.982,43.16-42.484-44.142,42.316-42.1Zm-62.576,105.92-4.7,4.72h-43.432V3247.1l5.562-5.536Zm-98.539,64.974a32.775,32.775,0,0,1-15.352-27.851V3179.877h97.334l-53.222,52.949a12.616,12.616,0,0,0-3.735,9v61.386a12.7,12.7,0,0,0,12.691,12.688h59.888a15.976,15.976,0,0,0,11.4-4.73l52.113-52.258v62.25a35.957,35.957,0,0,1-16.84,30.554l-71.394,45.088Z" fill="#1a3d93"/><path d="M6364.074,3376.576a18.947,18.947,0,0,1,5.715-13.92A19.291,19.291,0,0,1,6384,3356.94a18.817,18.817,0,0,1,14.067,5.716,20.182,20.182,0,0,1,0,27.841,18.816,18.816,0,0,1-14.067,5.714,19.29,19.29,0,0,1-14.214-5.714A18.943,18.943,0,0,1,6364.074,3376.576Z" fill="#1a3d93"/></g></svg>