<svg xmlns="http://www.w3.org/2000/svg" id="Layer_1" data-name="Layer 1" viewBox="0 0 390.46 390.46"><defs><style>.cls-1,.cls-3{fill:#aeb1b2}.cls-1,.cls-2,.cls-3{stroke:#231f20;stroke-miterlimit:2.61;stroke-width:.22px}.cls-1,.cls-2{fill-rule:evenodd}.cls-2{fill:#2062af}</style></defs><title>Emblema STS</title><path d="M195.23 390.36C87.47 390.36.11 303 .11 195.23S87.47.11 195.23.11s195.13 87.36 195.13 195.12S303 390.36 195.23 390.36Z" class="cls-1"/><path d="M195.23 386.26c-105.5 0-191-85.53-191-191s85.52-191 191-191 191 85.52 191 191-85.53 191-191 191Z" class="cls-2"/><path d="M195.23 386.26c-105.5 0-191-85.53-191-191s85.52-191 191-191 191 85.52 191 191-85.53 191-191 191Z" class="cls-2"/><path d="M195.45 350a153.17 153.17 0 1 1 153.16-153.22A153.17 153.17 0 0 1 195.45 350Z" class="cls-1"/><path d="M327 306a10 10 0 0 0-.54-2.66 9.7 9.7 0 0 1-.65-2.61 2.2 2.2 0 0 1 .47-1.54 1.49 1.49 0 0 1 1.17-.52 1.34 1.34 0 0 1 1 .52 2.3 2.3 0 0 1 .44 1.5 8.5 8.5 0 0 1-.51 2.43 12.7 12.7 0 0 0-.64 2.88 9.2 9.2 0 0 0 1.92-1.65 10.2 10.2 0 0 1 2-1.9 2.57 2.57 0 0 1 1.29-.36 1.47 1.47 0 0 1 1.5 1.47 1.67 1.67 0 0 1-.63 1.28 8.4 8.4 0 0 1-3.19 1.12 14.5 14.5 0 0 0-2.48.76 9.4 9.4 0 0 0 2.46.8 7 7 0 0 1 3.07 1.06 1.84 1.84 0 0 1 .73 1.4 1.34 1.34 0 0 1-.44 1 1.4 1.4 0 0 1-1 .43 2.64 2.64 0 0 1-1.29-.41 8.7 8.7 0 0 1-1.91-1.82 10.5 10.5 0 0 0-2-1.78 9.3 9.3 0 0 0 .45 2.4 13.2 13.2 0 0 1 .7 3.12 1.92 1.92 0 0 1-.46 1.3 1.34 1.34 0 0 1-1 .53 1.85 1.85 0 0 1-1.3-.56 1.78 1.78 0 0 1-.4-1.3 7 7 0 0 1 .44-2.22c.29-.88.48-1.48.55-1.8a13 13 0 0 0 .22-1.47 11.5 11.5 0 0 0-2 1.68 10.4 10.4 0 0 1-2.12 2 1.93 1.93 0 0 1-1 .31 1.56 1.56 0 0 1-1.13-.44 1.35 1.35 0 0 1-.46-1 1.7 1.7 0 0 1 .4-1 2.8 2.8 0 0 1 1.19-.88 13.4 13.4 0 0 1 2.38-.62 13 13 0 0 0 2.33-.74 10 10 0 0 0-2.49-.82 9.3 9.3 0 0 1-2.94-.91 1.87 1.87 0 0 1-.87-1.55 1.3 1.3 0 0 1 .44-1 1.38 1.38 0 0 1 1-.44 2.73 2.73 0 0 1 1.35.41 7.3 7.3 0 0 1 1.78 1.64A9.6 9.6 0 0 0 327 306ZM331.42 105.08l-.37.26-5.39-7.57.38-.27.34.48a2.5 2.5 0 0 0 1 .86 1.25 1.25 0 0 0 .82.06 5.8 5.8 0 0 0 1.45-.85l9.59-6.83a5.9 5.9 0 0 0 1.32-1.11 1.34 1.34 0 0 0 .15-.83 2.23 2.23 0 0 0-.47-1.12l-.35-.48.38-.26L345.6 95l-.37.27-.34-.48a2.45 2.45 0 0 0-.94-.85 1.34 1.34 0 0 0-.83-.07 5.8 5.8 0 0 0-1.45.85l-9.59 6.83a5.6 5.6 0 0 0-1.32 1.12 1.32 1.32 0 0 0-.15.82 2.4 2.4 0 0 0 .47 1.12l.34.48Zm-6.14-8.53-.36.29-5.74-7.31.36-.28.36.46a2.55 2.55 0 0 0 1 .81 1.23 1.23 0 0 0 .83 0 5.7 5.7 0 0 0 1.4-.92l9.26-7.28a6 6 0 0 0 1.26-1.17 1.37 1.37 0 0 0 .12-.83 2.4 2.4 0 0 0-.53-1.1l-.37-.46.36-.28 5.75 7.3-.36.29-.37-.47a2.36 2.36 0 0 0-1-.8 1.23 1.23 0 0 0-.83 0 5.4 5.4 0 0 0-1.41.91L325.77 93a6 6 0 0 0-1.27 1.18 1.45 1.45 0 0 0-.11.83 2.33 2.33 0 0 0 .53 1.09l.36.46Zm-18.21-10.47.27-.26c1.34.68 2.35.7 3 .05.17-.16.2-.29.11-.38s-.08-.05-.17-.08a1.46 1.46 0 0 1-.57-.39 1.3 1.3 0 0 1-.39-1 1.34 1.34 0 0 1 .37-.86 1.32 1.32 0 0 1 1-.33 1.54 1.54 0 0 1 1.14.54 1.9 1.9 0 0 1 .55 1.42 2.08 2.08 0 0 1-.7 1.44c-1.2 1.14-2.75 1.1-4.62-.13Zm24.07-10-3.49 3.32-.31-.33a7.7 7.7 0 0 0 1.09-2.33 3.7 3.7 0 0 0-.13-1.82 4.5 4.5 0 0 0-1-1.43l-.93-1-10 9.51a6 6 0 0 0-1.15 1.3 1.3 1.3 0 0 0 0 .84 2.27 2.27 0 0 0 .63 1l.4.42-.33.32-6.41-6.73.33-.32.41.43a2.4 2.4 0 0 0 1 .7 1.27 1.27 0 0 0 .83-.05 5.6 5.6 0 0 0 1.31-1.05l10-9.51-.89-.94a3.74 3.74 0 0 0-2.35-1.36 5.08 5.08 0 0 0-3.19 1.05l-.35-.37 3.49-3.32L331.14 76ZM303.76 65.9l2-6.34-6 2.81 4.07 3.53Zm-.32 1-4.72-4.09-1.73.81a4 4 0 0 0-1.22.85 1.19 1.19 0 0 0-.28 1.24 4.9 4.9 0 0 0 1.11 1.39l-.3.35-4.48-3.88.3-.35a2.62 2.62 0 0 0 1.72.42 10.6 10.6 0 0 0 2.93-1L310.91 56l.18.16-4.71 15.27a9.1 9.1 0 0 0-.59 3 2 2 0 0 0 .65 1.19l-.3.35-6.53-5.65.3-.35.27.23a2.55 2.55 0 0 0 1.3.73.69.69 0 0 0 .62-.27 1.8 1.8 0 0 0 .26-.42q.06-.11.36-1l.72-2.32Zm-3.34-19.48-3.35 5.21-.43-.27a6.66 6.66 0 0 0 .21-4.31 5.47 5.47 0 0 0-2.31-3 5.23 5.23 0 0 0-3.09-.84 5.63 5.63 0 0 0-3.07 1A11.6 11.6 0 0 0 285 48.5a15 15 0 0 0-1.85 4 5.74 5.74 0 0 0 0 3.53 5.2 5.2 0 0 0 2.26 2.65 6.55 6.55 0 0 0 3 1 11 11 0 0 0 3.85-.55l-.83 1.29a9.7 9.7 0 0 1-3.85.24 9.4 9.4 0 0 1-3.57-1.46 10.8 10.8 0 0 1-3.65-3.69 8.1 8.1 0 0 1-1.1-4.62 9.2 9.2 0 0 1 1.45-4.5 9.5 9.5 0 0 1 3.74-3.35 9.3 9.3 0 0 1 5-1 9.64 9.64 0 0 1 4.73 1.53 10.9 10.9 0 0 1 2.9 2.83 6.5 6.5 0 0 0 1 1.23 1 1 0 0 0 .79.13 1.74 1.74 0 0 0 .87-.61l.43.28Zm-25.44 5.09-.21.41-8.27-4.24.21-.41.53.27a2.4 2.4 0 0 0 1.23.32 1.13 1.13 0 0 0 .76-.33 5.3 5.3 0 0 0 .89-1.42l5.37-10.47a6 6 0 0 0 .65-1.6 1.3 1.3 0 0 0-.24-.8 2.3 2.3 0 0 0-.94-.78l-.52-.27.2-.4L282.6 37l-.21.41-.53-.27a2.45 2.45 0 0 0-1.23-.32 1.28 1.28 0 0 0-.76.33 5.5 5.5 0 0 0-.89 1.42l-5.37 10.48a5.5 5.5 0 0 0-.65 1.6 1.4 1.4 0 0 0 .25.8 2.23 2.23 0 0 0 .93.77l.52.27ZM260.53 26.8l4.12 13.52 2.82-7.13a3.7 3.7 0 0 0 .37-2.21 2.54 2.54 0 0 0-1.7-1.47l.16-.43 5.49 2.17-.16.42a4.6 4.6 0 0 0-1.56-.2 1.6 1.6 0 0 0-.84.48 5.3 5.3 0 0 0-.86 1.6l-5.45 13.83-.42-.17-5.75-18.27-4.18 10.6a2.2 2.2 0 0 0 1.2 3.3l.39.16-.17.43-5.91-2.34.17-.42a2.21 2.21 0 0 0 3.42-1.49l4.63-11.75-.17-.57a3.5 3.5 0 0 0-.59-1.25 2.9 2.9 0 0 0-1.06-.7l.16-.42zm-26-8.19 8.87 2.52-.13.44-.45-.13a3.2 3.2 0 0 0-1.43-.18 1.22 1.22 0 0 0-.7.43 6.3 6.3 0 0 0-.68 1.81l-2.39 8.4a8.9 8.9 0 0 0-.52 3.15 3.05 3.05 0 0 0 .79 1.57 3.9 3.9 0 0 0 1.87 1.06 4.54 4.54 0 0 0 2.55.05 4.1 4.1 0 0 0 2-1.31 11 11 0 0 0 1.57-3.7l2-7A4.2 4.2 0 0 0 248 24a1.45 1.45 0 0 0-.41-.86 3.76 3.76 0 0 0-1.53-.75l.13-.44 5.93 1.68-.13.44-.35-.1a2.34 2.34 0 0 0-1.28 0 1.7 1.7 0 0 0-.94.68 4.7 4.7 0 0 0-.59 1.42L247 32.54a17.5 17.5 0 0 1-1.64 4.26 5 5 0 0 1-2.64 1.91 7.3 7.3 0 0 1-4.53-.06 8.3 8.3 0 0 1-3.27-1.58 5.25 5.25 0 0 1-1.75-2.74 7.46 7.46 0 0 1 .29-3.59l2.39-8.41a6.4 6.4 0 0 0 .36-1.91 1.3 1.3 0 0 0-.41-.74 3.6 3.6 0 0 0-1.43-.63l.12-.44Zm-17.2 9.24 6.33-11.07 7.16.91-.06.46-.57-.08a2.56 2.56 0 0 0-1.28.12 1.24 1.24 0 0 0-.6.56 5.8 5.8 0 0 0-.36 1.64l-1.48 11.68a5.7 5.7 0 0 0-.07 1.73 1.2 1.2 0 0 0 .51.67 2.3 2.3 0 0 0 1.14.41l.58.07-.06.46-9.22-1.17.06-.46.57.08a2.6 2.6 0 0 0 1.29-.12 1.35 1.35 0 0 0 .6-.57 5.5 5.5 0 0 0 .35-1.64l1.67-13.11L215 33.69h-.31l-4.86-16.89-1.59 12.46a11 11 0 0 0-.14 1.62 1.9 1.9 0 0 0 .61 1.17 3.15 3.15 0 0 0 1.73.64l-.06.45-6.06-.77v-.45h.19a2.8 2.8 0 0 0 1.12 0 1.87 1.87 0 0 0 .84-.45 2.5 2.5 0 0 0 .53-.91c0-.1.1-.54.2-1.35L208.68 18a5.7 5.7 0 0 0 .07-1.73 1.28 1.28 0 0 0-.51-.67 2.33 2.33 0 0 0-1.15-.41l-.57-.07.06-.46 7.22.92 3.51 12.32Zm-24.39-12.59a4 4 0 0 0-3.67 2.59 13.2 13.2 0 0 0-.89 5.91c.07 3 .67 5.27 1.78 6.7a3.64 3.64 0 0 0 3.18 1.44 3.75 3.75 0 0 0 2.25-.71 5.33 5.33 0 0 0 1.74-2.73 14.9 14.9 0 0 0 .53-4.83 16.2 16.2 0 0 0-.79-5.27 5.2 5.2 0 0 0-1.75-2.44 4 4 0 0 0-2.38-.66Zm-.17-.83a8.85 8.85 0 0 1 9.82 8.85 9.46 9.46 0 0 1-1.83 6 8.86 8.86 0 0 1-7.36 3.61 9 9 0 0 1-7.53-3.07 9.45 9.45 0 0 1-2.24-6.06 8.9 8.9 0 0 1 2.54-6.68 8.6 8.6 0 0 1 6.6-2.66Zm-13.72.39.78 6.14-.51.07a6.6 6.6 0 0 0-2.6-3.44 5.44 5.44 0 0 0-3.71-.84 5.3 5.3 0 0 0-2.91 1.34 5.7 5.7 0 0 0-1.7 2.76 11.5 11.5 0 0 0-.26 4.5 15.1 15.1 0 0 0 1.15 4.26 5.77 5.77 0 0 0 2.25 2.71 5.2 5.2 0 0 0 3.44.58 6.56 6.56 0 0 0 3-1.11 10.7 10.7 0 0 0 2.6-2.9l.19 1.53a9.8 9.8 0 0 1-2.8 2.65 9.7 9.7 0 0 1-3.67 1.18 10.86 10.86 0 0 1-5.17-.5 8.1 8.1 0 0 1-3.81-2.84 9.34 9.34 0 0 1-1.77-4.38 9.5 9.5 0 0 1 .72-5 9.37 9.37 0 0 1 3.12-4 9.64 9.64 0 0 1 4.61-1.86 11 11 0 0 1 4 .31 6.2 6.2 0 0 0 1.58.28 1 1 0 0 0 .69-.4 1.65 1.65 0 0 0 .27-1l.51-.06Zm-29.63 6.66 1.63 7.08.35-.08a2.81 2.81 0 0 0 2.16-1.59 6.55 6.55 0 0 0 .25-3.28l.5-.11 2.1 9.11-.5.11a7.1 7.1 0 0 0-1.21-2.29 2.94 2.94 0 0 0-1.45-1 4.44 4.44 0 0 0-2 .11l1.12 4.89a7.6 7.6 0 0 0 .53 1.73 1 1 0 0 0 .58.42 2.3 2.3 0 0 0 1.12 0l1-.24a6.44 6.44 0 0 0 3.65-2 6.37 6.37 0 0 0 1.32-3.92l.47-.1.49 5.7-15 3.47-.11-.45.58-.13a2.47 2.47 0 0 0 1.15-.55 1.2 1.2 0 0 0 .37-.74 5.6 5.6 0 0 0-.24-1.66l-2.64-11.47a9.5 9.5 0 0 0-.41-1.45 1.24 1.24 0 0 0-.63-.59 2.28 2.28 0 0 0-1.41-.05l-.58.13-.1-.45 14.54-3.35 1.19 5.14-.5.12a6.2 6.2 0 0 0-1.67-2.47 4 4 0 0 0-2.17-.77 10.3 10.3 0 0 0-2.73.39l-1.81.42Zm-6.54 12.69 1.67 6.06L129.82 46l-.17-.43.55-.21a2.5 2.5 0 0 0 1.06-.72 1.16 1.16 0 0 0 .25-.78 5.4 5.4 0 0 0-.47-1.61l-4.32-10.95a6 6 0 0 0-.77-1.55 1.3 1.3 0 0 0-.76-.35 2.3 2.3 0 0 0-1.2.2l-.55.21-.17-.42 8.85-3.49.16.42-.72.29a2.5 2.5 0 0 0-1.07.72 1.36 1.36 0 0 0-.27.79 5.7 5.7 0 0 0 .48 1.61l4.18 10.6a5.8 5.8 0 0 0 .79 1.56 1 1 0 0 0 .78.3 6 6 0 0 0 1.51-.47l1.38-.54a5 5 0 0 0 2-1.33 4.4 4.4 0 0 0 .94-2.07 12.5 12.5 0 0 0 .05-3.43l.52-.21ZM112.11 36l3.32 6.48.32-.16a2.83 2.83 0 0 0 1.71-2.08 6.55 6.55 0 0 0-.56-3.23l.45-.24 4.26 8.32-.45.24a7 7 0 0 0-1.74-1.93 2.93 2.93 0 0 0-1.64-.63 4.7 4.7 0 0 0-1.9.59l2.29 4.47a7.6 7.6 0 0 0 .93 1.55 1.1 1.1 0 0 0 .67.26 2.24 2.24 0 0 0 1.08-.31l.95-.49a5.74 5.74 0 0 0 3.36-7l.44-.23 1.87 5.42-13.72 7-.21-.4.52-.27a2.53 2.53 0 0 0 1-.82 1.24 1.24 0 0 0 .17-.81 5.6 5.6 0 0 0-.63-1.55l-5.37-10.47a9 9 0 0 0-.74-1.31 1.23 1.23 0 0 0-.76-.41 2.17 2.17 0 0 0-1.38.29l-.52.26-.21-.4 13.28-6.81 2.41 4.7-.46.24a6.3 6.3 0 0 0-2.22-2 4 4 0 0 0-2.29-.22 10.6 10.6 0 0 0-2.56 1.05l-1.66.84Zm-9.26 3.9 2.6 4.06-.38.24a7.7 7.7 0 0 0-2.09-1.51 3.5 3.5 0 0 0-1.81-.22 4.6 4.6 0 0 0-1.6.75l-1.14.72 7.45 11.61a5.5 5.5 0 0 0 1.05 1.37 1.4 1.4 0 0 0 .82.2 2.2 2.2 0 0 0 1.14-.43l.49-.31.25.39-7.82 5-.25-.38.49-.32a2.5 2.5 0 0 0 .9-.91 1.22 1.22 0 0 0 .1-.82 5.3 5.3 0 0 0-.78-1.48l-7.44-11.61-1.09.69A3.72 3.72 0 0 0 92 49a5 5 0 0 0 .43 3.33l-.43.28-2.61-4.06 13.5-8.65ZM74.3 62.36l4.76 5.49.26-.23a2.86 2.86 0 0 0 1.18-2.42 6.65 6.65 0 0 0-1.32-3l.38-.33 6.12 7.06-.38.34a6.9 6.9 0 0 0-2.14-1.46 2.9 2.9 0 0 0-1.75-.22 4.5 4.5 0 0 0-1.7 1L83 72.4a7 7 0 0 0 1.27 1.28 1.12 1.12 0 0 0 .71.1 2.16 2.16 0 0 0 1-.56l.81-.7A6.44 6.44 0 0 0 89 69a6.35 6.35 0 0 0-.67-4.08l.37-.32 3.11 4.81-11.65 10.1-.3-.35.44-.38a2.44 2.44 0 0 0 .76-1 1.2 1.2 0 0 0 0-.83 5.5 5.5 0 0 0-1-1.36l-7.71-8.89a8.3 8.3 0 0 0-1-1.09 1.2 1.2 0 0 0-.84-.22 2.23 2.23 0 0 0-1.27.61l-.45.38-.3-.34 11.28-9.77 3.46 4-.39.33a6.36 6.36 0 0 0-2.62-1.4 3.9 3.9 0 0 0-2.28.34 10.4 10.4 0 0 0-2.24 1.62l-1.4 1.22ZM59 78.17l10.53 9.12a5 5 0 0 0 1.09.81.72.72 0 0 0 .52 0 2.06 2.06 0 0 0 .82-.65 4 4 0 0 0 1.07-3.52c-.33-1.68-1.57-3.46-3.72-5.32a11.8 11.8 0 0 0-4.86-2.78 4.56 4.56 0 0 0-3.09.24A8.6 8.6 0 0 0 59 78.19Zm8.3 16.17-.35-.3.39-.44a2.5 2.5 0 0 0 .59-1.06 1.45 1.45 0 0 0-.11-.9 6.2 6.2 0 0 0-1.18-1.18l-8.9-7.71a6.2 6.2 0 0 0-1.4-1 1.33 1.33 0 0 0-.83 0 2.3 2.3 0 0 0-1 .73l-.39.45-.34-.3 5.22-6a12.7 12.7 0 0 1 4-3.32 7.6 7.6 0 0 1 4.8-.62 10.3 10.3 0 0 1 6.73 5 8.2 8.2 0 0 1 1 2.9 7.8 7.8 0 0 1-.2 2.76 12.2 12.2 0 0 1-1.28 3 14 14 0 0 1-1.54 2l-5.22 6Zm-9.32 1.79 4.9 3.94-8.54 13.31-.38-.25.32-.49a2.5 2.5 0 0 0 .43-1.2 1.2 1.2 0 0 0-.25-.79 5.6 5.6 0 0 0-1.33-1l-9.91-6.35a5.6 5.6 0 0 0-1.53-.81 1.35 1.35 0 0 0-.82.16 2.34 2.34 0 0 0-.86.86l-.32.5-.38-.25 5.13-8 .39.24-.43.66a2.6 2.6 0 0 0-.44 1.21 1.3 1.3 0 0 0 .25.8 5.7 5.7 0 0 0 1.32 1l9.6 6.15a5.8 5.8 0 0 0 1.55.81 1.05 1.05 0 0 0 .81-.22 6.2 6.2 0 0 0 .95-1.27l.8-1.24a5 5 0 0 0 .85-2.26 4.33 4.33 0 0 0-.44-2.22 13 13 0 0 0-2-2.82l.31-.47Zm-28.45 26.31 4.2-8.2.41.21-.21.41a3.2 3.2 0 0 0-.46 1.38 1.24 1.24 0 0 0 .28.76 6.5 6.5 0 0 0 1.64 1l7.78 4a9.2 9.2 0 0 0 3 1.13 3.1 3.1 0 0 0 1.7-.47 4 4 0 0 0 1.41-1.63 4.45 4.45 0 0 0 .54-2.49 4 4 0 0 0-.9-2.17 10.9 10.9 0 0 0-3.32-2.27l-6.48-3.32a4 4 0 0 0-1.65-.56 1.57 1.57 0 0 0-.93.23 3.8 3.8 0 0 0-1 1.35l-.41-.2 2.81-5.5.41.21-.17.33a2.4 2.4 0 0 0-.29 1.25 1.75 1.75 0 0 0 .48 1.06 4.8 4.8 0 0 0 1.28.85l6 3.09a17.7 17.7 0 0 1 3.85 2.43 5.13 5.13 0 0 1 1.37 3 7.3 7.3 0 0 1-1 4.43 8.3 8.3 0 0 1-2.18 2.9 5.27 5.27 0 0 1-3 1.18 7.6 7.6 0 0 1-3.47-1l-7.78-4a6.6 6.6 0 0 0-1.8-.73 1.35 1.35 0 0 0-.81.25 3.7 3.7 0 0 0-.89 1.29l-.41-.21Zm15.23 9.27.43.17-3.41 8.65-.42-.17.21-.55a2.4 2.4 0 0 0 .2-1.26 1.25 1.25 0 0 0-.4-.73 5.7 5.7 0 0 0-1.5-.74l-10.95-4.32a6.2 6.2 0 0 0-1.66-.5 1.4 1.4 0 0 0-.77.32 2.3 2.3 0 0 0-.68 1l-.22.54-.42-.17 3.41-8.64.42.17-.21.54a2.4 2.4 0 0 0-.2 1.26 1.28 1.28 0 0 0 .4.73 5.3 5.3 0 0 0 1.5.75l10.95 4.31a5.8 5.8 0 0 0 1.66.5 1.33 1.33 0 0 0 .77-.33 2.23 2.23 0 0 0 .68-1l.21-.55Zm-21.36 5.7 6 1.69-.14.49a6.68 6.68 0 0 0-4.18 1.05 5.5 5.5 0 0 0-2.23 3.08 5.3 5.3 0 0 0 .09 3.2 5.7 5.7 0 0 0 1.87 2.65 11.4 11.4 0 0 0 4 2 15 15 0 0 0 4.37.62 5.84 5.84 0 0 0 3.38-1 5.24 5.24 0 0 0 1.88-2.93 6.4 6.4 0 0 0 .13-3.16 10.6 10.6 0 0 0-1.64-3.53l1.48.42a9.8 9.8 0 0 1 1.34 3.62 9.3 9.3 0 0 1-.36 3.84 10.94 10.94 0 0 1-2.48 4.56 8.13 8.13 0 0 1-4.1 2.39 9.14 9.14 0 0 1-4.73-.1 9.74 9.74 0 0 1-6.73-7 9.73 9.73 0 0 1 .1-5 10.9 10.9 0 0 1 1.87-3.59 6 6 0 0 0 .88-1.35 1 1 0 0 0-.1-.79 1.68 1.68 0 0 0-.84-.65l.14-.49Zm12.21 22.87.45.08-1.63 9.15-.45-.08.1-.58a2.55 2.55 0 0 0 0-1.28 1.2 1.2 0 0 0-.54-.63 5.3 5.3 0 0 0-1.62-.43l-11.59-2.07a6 6 0 0 0-1.72-.17 1.4 1.4 0 0 0-.69.47 2.27 2.27 0 0 0-.47 1.13l-.1.58-.45-.08 1.63-9.15.45.08-.1.58a2.5 2.5 0 0 0 .05 1.27 1.28 1.28 0 0 0 .54.63 5.2 5.2 0 0 0 1.62.44l11.58 2.07a6.3 6.3 0 0 0 1.73.16 1.43 1.43 0 0 0 .6-.45 2.24 2.24 0 0 0 .47-1.11l.1-.58ZM16 168.92h.46a2.85 2.85 0 0 0 .91 1.8 16 16 0 0 0 3 1.88l13.14 7.13v.44l-14.63 5a19 19 0 0 0-3.13 1.24 2.18 2.18 0 0 0-.68 1.37h-.45l.64-8.49h.46v.29a3 3 0 0 0 .17 1.6.67.67 0 0 0 .57.34 1.7 1.7 0 0 0 .57-.06c.22-.05.82-.25 1.8-.58l9.14-3.11-7.61-4.1a21 21 0 0 0-1.88-.93 3.2 3.2 0 0 0-.83-.21 1.27 1.27 0 0 0-.72.15 1.36 1.36 0 0 0-.51.59 4.3 4.3 0 0 0-.34 1.48h-.45l.44-5.82Zm-.39 32.24 7.78-.2v-.75a8.7 8.7 0 0 0-.4-2.73 2.77 2.77 0 0 0-1.24-1.4 4.4 4.4 0 0 0-2.29-.46 4.1 4.1 0 0 0-3 1 4.2 4.2 0 0 0-.89 3.1v1.41Zm8.72-.23 5-.12a5.4 5.4 0 0 0 1.81-.23 1.26 1.26 0 0 0 .58-.64 4.3 4.3 0 0 0 .18-1.68h.46l.23 9.13h-.46a4.1 4.1 0 0 0-.27-1.67 1.3 1.3 0 0 0-.61-.6 5.3 5.3 0 0 0-1.82-.14l-11.66.3a5.5 5.5 0 0 0-1.81.22 1.3 1.3 0 0 0-.58.64 4.3 4.3 0 0 0-.18 1.68h-.46l-.21-8.29a17.6 17.6 0 0 1 .33-4.75 4.72 4.72 0 0 1 1.59-2.49 4.47 4.47 0 0 1 2.81-1 4.27 4.27 0 0 1 3.3 1.34 5.86 5.86 0 0 1 1.29 2.52l5.94-4.44a9.3 9.3 0 0 0 1.42-1.24 2.24 2.24 0 0 0 .41-1.27h.49l.14 5.62-8 6v1.17Zm-7 19.65 7.21-.92v-.35a2.81 2.81 0 0 0-1.37-2.31 6.4 6.4 0 0 0-3.23-.57l-.07-.51 9.28-1.18.06.51a7.1 7.1 0 0 0-2.4 1 2.93 2.93 0 0 0-1.15 1.34 4.5 4.5 0 0 0-.09 2l5-.63a6.9 6.9 0 0 0 1.77-.36 1 1 0 0 0 .48-.53 2.23 2.23 0 0 0 .07-1.12l-.14-1.06A6.43 6.43 0 0 0 31 212a6.34 6.34 0 0 0-3.76-1.7l-.06-.49 5.72.08 1.95 15.29-.46.06-.07-.58a2.44 2.44 0 0 0-.44-1.21 1.22 1.22 0 0 0-.69-.44 6 6 0 0 0-1.68.07l-11.68 1.49a9.5 9.5 0 0 0-1.48.25 1.28 1.28 0 0 0-.64.57 2.2 2.2 0 0 0-.2 1.4l.07.59-.45.05-1.88-14.8 5.24-.67.06.51a6.46 6.46 0 0 0-2.62 1.41 4 4 0 0 0-1 2.09 10.7 10.7 0 0 0 .11 2.76l.24 1.84Zm.51 11.5 5.77-1.47.12.52a6.12 6.12 0 0 0-3.08 2.64 4.74 4.74 0 0 0-.6 3.46 3 3 0 0 0 1.18 1.91 2.15 2.15 0 0 0 1.78.4 2 2 0 0 0 1-.51 4.4 4.4 0 0 0 .92-1.47 29 29 0 0 0 .86-3.13 12.4 12.4 0 0 1 1.88-4.77 4.9 4.9 0 0 1 2.8-1.76 5.1 5.1 0 0 1 4.14.84 6.3 6.3 0 0 1 2.57 3.95 7.5 7.5 0 0 1 .19 1.6 12 12 0 0 1-.21 2 3 3 0 0 0 0 1.07 1.3 1.3 0 0 0 .42.64 2 2 0 0 0 .93.43l.11.44-6.62 1.5-.11-.45a7.68 7.68 0 0 0 3.72-3.15 5.22 5.22 0 0 0 .65-3.81 3.38 3.38 0 0 0-1.31-2.11 2.45 2.45 0 0 0-2-.43 2.4 2.4 0 0 0-1.11.6 3.75 3.75 0 0 0-.87 1.25 15.3 15.3 0 0 0-.81 2.67 20 20 0 0 1-1.2 3.87 6.3 6.3 0 0 1-1.46 2 4.8 4.8 0 0 1-2.11 1.08 4.85 4.85 0 0 1-3.89-.71 5.48 5.48 0 0 1-2.35-3.51 7 7 0 0 1-.18-1.69 8.7 8.7 0 0 1 .23-1.6 3.5 3.5 0 0 0 .13-1.31.7.7 0 0 0-.32-.47 2.3 2.3 0 0 0-1.06-.14l-.09-.39ZM370.5 235l-7.09-1.63-.08.34a2.88 2.88 0 0 0 .48 2.65 6.6 6.6 0 0 0 2.84 1.65l-.11.5-9.11-2.1.12-.5a6.7 6.7 0 0 0 2.58-.09 2.8 2.8 0 0 0 1.54-.85 4.5 4.5 0 0 0 .77-1.83l-4.89-1.14a7.3 7.3 0 0 0-1.78-.28 1.05 1.05 0 0 0-.63.33 2.3 2.3 0 0 0-.46 1l-.24 1.05a5.76 5.76 0 0 0 3.17 7.06l-.11.48-5.35-2.06 3.47-15 .45.1-.14.58a2.6 2.6 0 0 0 0 1.28 1.25 1.25 0 0 0 .51.65 5.6 5.6 0 0 0 1.59.52l11.47 2.64a9.3 9.3 0 0 0 1.48.28 1.23 1.23 0 0 0 .8-.32 2.18 2.18 0 0 0 .67-1.24l.14-.57.44.1-3.35 14.54-5.16-1.14.12-.5a6.4 6.4 0 0 0 3-.41 4 4 0 0 0 1.64-1.62 10.4 10.4 0 0 0 .85-2.63l.42-1.81Zm-8.45-11.08-6.12-1.46 2-15.69.45.06-.07.59a2.34 2.34 0 0 0 .12 1.27 1.2 1.2 0 0 0 .56.6 5.6 5.6 0 0 0 1.64.35l11.68 1.49a6 6 0 0 0 1.73.07 1.33 1.33 0 0 0 .67-.5 2.4 2.4 0 0 0 .41-1.15l.07-.58.45.05-1.19 9.44-.46-.06.1-.78a2.43 2.43 0 0 0-.12-1.27 1.23 1.23 0 0 0-.56-.62 5.6 5.6 0 0 0-1.64-.35l-11.31-1.44a5.3 5.3 0 0 0-1.75-.06 1 1 0 0 0-.63.53 6.8 6.8 0 0 0-.32 1.56l-.18 1.47a5 5 0 0 0 .19 2.4 4.4 4.4 0 0 0 1.36 1.82 13 13 0 0 0 3 1.7l-.07.56Zm2.06-26.24 6.15-2.51-6-2.88-.13 5.39Zm-1 .39.15-6.24-1.72-.82a3.7 3.7 0 0 0-1.44-.4 1.2 1.2 0 0 0-1.13.57 5 5 0 0 0-.37 1.74h-.46l.15-5.93h.46a2.63 2.63 0 0 0 .77 1.6 10.4 10.4 0 0 0 2.68 1.59l14.06 6.74v.25l-14.78 6.06a9.2 9.2 0 0 0-2.68 1.44 2.06 2.06 0 0 0-.52 1.26h-.45l.21-8.63h.46v.36a2.7 2.7 0 0 0 .26 1.46.69.69 0 0 0 .61.3 1.5 1.5 0 0 0 .5-.06c.07 0 .41-.14 1-.37l2.25-.92Zm-4.85-12h-.45l-.71-9.27h.46v.58a2.56 2.56 0 0 0 .37 1.23 1.18 1.18 0 0 0 .68.47 5.4 5.4 0 0 0 1.67 0l11.74-.89a6 6 0 0 0 1.71-.28 1.32 1.32 0 0 0 .56-.62 2.45 2.45 0 0 0 .17-1.21v-.59h.46l.7 9.27h-.45v-.59a2.4 2.4 0 0 0-.37-1.21 1.26 1.26 0 0 0-.68-.48 5.4 5.4 0 0 0-1.67 0l-11.74.89a5.7 5.7 0 0 0-1.71.28 1.33 1.33 0 0 0-.55.63 2.2 2.2 0 0 0-.17 1.2v.58ZM375 171.59l-6.1 1.09-.09-.5a6.68 6.68 0 0 0 3.3-2.78 5.46 5.46 0 0 0 .65-3.74 5.26 5.26 0 0 0-1.48-2.84 5.63 5.63 0 0 0-2.84-1.56 11.6 11.6 0 0 0-4.51 0 15.2 15.2 0 0 0-4.2 1.37 5.7 5.7 0 0 0-2.59 2.38 5.2 5.2 0 0 0-.41 3.46 6.56 6.56 0 0 0 1.26 2.9 10.9 10.9 0 0 0 3 2.46l-1.51.27a9.8 9.8 0 0 1-2.79-2.68 9.6 9.6 0 0 1-1.36-3.6 11 11 0 0 1 .24-5.19 8 8 0 0 1 2.64-3.94 9.25 9.25 0 0 1 4.29-2 9.53 9.53 0 0 1 5 .46 9.4 9.4 0 0 1 4.13 2.92 9.8 9.8 0 0 1 2.09 4.52 10.9 10.9 0 0 1-.11 4 6 6 0 0 0-.19 1.6 1 1 0 0 0 .43.67 1.8 1.8 0 0 0 1 .22l.09.5Zm-8-29.29-7 2 .1.34a2.79 2.79 0 0 0 1.69 2.08 6.4 6.4 0 0 0 3.29.08l.14.5-9 2.55-.14-.49a7 7 0 0 0 2.22-1.32 2.88 2.88 0 0 0 .94-1.5 4.6 4.6 0 0 0-.21-2l-4.83 1.37a7.3 7.3 0 0 0-1.7.61 1.06 1.06 0 0 0-.39.6 2.2 2.2 0 0 0 .1 1.12l.29 1a6.5 6.5 0 0 0 2.21 3.54 6.4 6.4 0 0 0 4 1.12l.13.47-5.68.78-4.21-14.83.45-.12.16.56a2.5 2.5 0 0 0 .6 1.13 1.3 1.3 0 0 0 .76.33 5.6 5.6 0 0 0 1.65-.32l11.32-3.22a10 10 0 0 0 1.43-.47 1.3 1.3 0 0 0 .55-.66 2.3 2.3 0 0 0 0-1.42l-.17-.56.44-.13 4.08 14.36-5.08 1.44-.14-.49a6.4 6.4 0 0 0 2.38-1.79 3.9 3.9 0 0 0 .66-2.21 10.2 10.2 0 0 0-.52-2.71zm-6.21-17.07-7.2 2.84c.09.28.17.48.22.62a3.18 3.18 0 0 0 1.8 2 4.24 4.24 0 0 0 3.08-.28 4.14 4.14 0 0 0 2.39-1.87 3.42 3.42 0 0 0-.09-2.76l-.2-.51Zm-8.15 3.21-4.64 1.82a5.6 5.6 0 0 0-1.64.84 1.3 1.3 0 0 0-.33.81 4.1 4.1 0 0 0 .4 1.64l-.43.16-3.33-8.44.43-.17a4.1 4.1 0 0 0 .83 1.48 1.28 1.28 0 0 0 .79.35 5.4 5.4 0 0 0 1.77-.5l10.8-4.26a5.6 5.6 0 0 0 1.64-.84 1.3 1.3 0 0 0 .34-.8 4.4 4.4 0 0 0-.41-1.65l.43-.16 2.85 7.24c.94 2.38 1.19 4.27.75 5.63a4.25 4.25 0 0 1-2.57 2.82 4.35 4.35 0 0 1-3.17.09 5.55 5.55 0 0 1-2.66-2.15 20.8 20.8 0 0 1-1.88-3.91Zm4.66-14-5.3 2.79-.25-.48a6 6 0 0 0 2.34-3.31 4.7 4.7 0 0 0-.26-3.5 3.06 3.06 0 0 0-1.61-1.57 2.13 2.13 0 0 0-1.82.06 2.1 2.1 0 0 0-.82.73 4.5 4.5 0 0 0-.52 1.64 26 26 0 0 0-.07 3.25 12.65 12.65 0 0 1-.66 5.08 4.88 4.88 0 0 1-2.29 2.39 5 5 0 0 1-4.22.2 6.23 6.23 0 0 1-3.45-3.21 7.3 7.3 0 0 1-.58-1.49 11.6 11.6 0 0 1-.28-2 2.8 2.8 0 0 0-.25-1 1.2 1.2 0 0 0-.56-.52 1.9 1.9 0 0 0-1-.19l-.2-.4 6-3.07.21.4a7.72 7.72 0 0 0-2.84 4 5.27 5.27 0 0 0 .3 3.86 3.35 3.35 0 0 0 1.79 1.72 2.42 2.42 0 0 0 2.06-.07 2.46 2.46 0 0 0 .93-.86 3.9 3.9 0 0 0 .54-1.42 15.4 15.4 0 0 0 .13-2.79 20.5 20.5 0 0 1 .22-4 6.3 6.3 0 0 1 .93-2.31 4.7 4.7 0 0 1 1.78-1.55 4.86 4.86 0 0 1 3.95-.27 5.48 5.48 0 0 1 3.13 2.83 7 7 0 0 1 .59 1.6 9 9 0 0 1 .17 1.6 3.3 3.3 0 0 0 .19 1.3.66.66 0 0 0 .43.39 2.45 2.45 0 0 0 1.06-.13l.18.36ZM251 361.3l-4.52-4.87-.57 6.65zm.71.78-5.89 2-.16 1.9a3.9 3.9 0 0 0 .13 1.5 1.24 1.24 0 0 0 .94.86 5.3 5.3 0 0 0 1.76-.28l.15.43-5.6 2-.15-.44a2.63 2.63 0 0 0 1.22-1.27 10.8 10.8 0 0 0 .54-3.08l1.35-15.52.24-.08 10.89 11.68a9 9 0 0 0 2.31 2 2 2 0 0 0 1.35 0l.15.43-8.15 2.85-.15-.43.34-.12a2.75 2.75 0 0 0 1.28-.76.75.75 0 0 0 .07-.67 1.6 1.6 0 0 0-.24-.45c0-.07-.28-.34-.7-.81l-1.66-1.78ZM242 370l.1.45-9.05 2.09-.1-.45.57-.13a2.47 2.47 0 0 0 1.15-.55 1.2 1.2 0 0 0 .37-.74 5.2 5.2 0 0 0-.24-1.66l-2.64-11.47a6.2 6.2 0 0 0-.53-1.65 1.4 1.4 0 0 0-.7-.46 2.4 2.4 0 0 0-1.22 0l-.57.13-.11-.45 9.06-2.08.1.44-.57.13a2.5 2.5 0 0 0-1.15.55 1.3 1.3 0 0 0-.37.74 5.5 5.5 0 0 0 .23 1.67L239 368a5.9 5.9 0 0 0 .53 1.65 1.4 1.4 0 0 0 .71.46 2.37 2.37 0 0 0 1.21 0zm-25.25-12.56 10.65 9.29-1.4-7.58a3.6 3.6 0 0 0-.85-2.07 2.52 2.52 0 0 0-2.22-.34l-.08-.46 5.8-1.06.08.45a4.8 4.8 0 0 0-1.43.64 1.66 1.66 0 0 0-.46.86A5.4 5.4 0 0 0 227 359l2.69 14.62-.44.08-14.55-12.46 2.06 11.2a2.23 2.23 0 0 0 2.77 2.18l.41-.08.09.45-6.26 1.15-.08-.45a2.21 2.21 0 0 0 2.12-3.07l-2.29-12.42-.45-.39a3.4 3.4 0 0 0-1.15-.76 2.9 2.9 0 0 0-1.28 0l-.08-.45 6.22-1.14Zm-12.46-5.72 2.82 5h-1l-3.21-2.63-3.14 2.74h-1.07l2.64-5 3-.09Zm.17 18.51-2.85-6-2.54 6.16zm.45 1-6.25.19-.72 1.76a3.9 3.9 0 0 0-.32 1.46 1.23 1.23 0 0 0 .63 1.11 5.2 5.2 0 0 0 1.76.26v.46l-5.93.18v-.46a2.62 2.62 0 0 0 1.55-.85 10.4 10.4 0 0 0 1.45-2.77l5.92-14.48h.25l6.87 14.42a9 9 0 0 0 1.6 2.6 2.05 2.05 0 0 0 1.28.45v.44l-8.62.27v-.46h.36a2.7 2.7 0 0 0 1.45-.34.73.73 0 0 0 .26-.62 1.5 1.5 0 0 0-.09-.5c0-.07-.16-.41-.42-1l-1-2.19Zm-23.12-1.31 5.75-11.37 7.2.55v.45h-.58a2.46 2.46 0 0 0-1.27.18 1.3 1.3 0 0 0-.57.59 5.4 5.4 0 0 0-.27 1.66l-.9 11.74a6.4 6.4 0 0 0 0 1.73 1.36 1.36 0 0 0 .55.64 2.2 2.2 0 0 0 1.17.35h.57v.45l-9.27-.7v-.46h.57a2.5 2.5 0 0 0 1.28-.18 1.26 1.26 0 0 0 .57-.59 5.7 5.7 0 0 0 .27-1.66l1-13.18-8.07 15.7h-.31l-5.71-16.62-1 12.52a11.6 11.6 0 0 0 0 1.63 1.86 1.86 0 0 0 .66 1.13 3.1 3.1 0 0 0 1.76.56v.45L169 375v-.46h.19a2.8 2.8 0 0 0 1.12-.11 2 2 0 0 0 .82-.49 2.7 2.7 0 0 0 .48-.94c0-.1.06-.54.13-1.35l.85-11.25a6 6 0 0 0 0-1.73 1.35 1.35 0 0 0-.54-.65 2.4 2.4 0 0 0-1.18-.35h-.57v-.46l7.26.55 4.13 12.13ZM162.22 356a4 4 0 0 0-4.21 1.59 13.2 13.2 0 0 0-2.35 5.49c-.69 3-.67 5.28 0 6.94a3.71 3.71 0 0 0 2.72 2.19 3.8 3.8 0 0 0 2.36-.12 5.37 5.37 0 0 0 2.37-2.21 14.7 14.7 0 0 0 1.72-4.54 15.9 15.9 0 0 0 .56-5.3 5.1 5.1 0 0 0-1.08-2.8 4 4 0 0 0-2.13-1.24Zm0-.85a8.86 8.86 0 0 1 7.28 11 9.5 9.5 0 0 1-3.29 5.36 8.83 8.83 0 0 1-8 1.64 9 9 0 0 1-6.52-4.86 9.48 9.48 0 0 1-.64-6.43 8.87 8.87 0 0 1 4.14-5.83 8.66 8.66 0 0 1 7-.92Zm-20.59-4.39-2.48 7.38.71.24a8.4 8.4 0 0 0 2.71.55 2.72 2.72 0 0 0 1.74-.69 4.33 4.33 0 0 0 1.21-2 4.13 4.13 0 0 0 .05-3.15 4.25 4.25 0 0 0-2.61-1.9l-1.33-.44Zm-2.74 8.24-1.6 4.78a5.4 5.4 0 0 0-.4 1.78 1.26 1.26 0 0 0 .4.77 4.4 4.4 0 0 0 1.52.74l-.15.43-8.66-2.9.15-.43a4.2 4.2 0 0 0 1.66.32 1.36 1.36 0 0 0 .78-.37 5.5 5.5 0 0 0 .74-1.67l3.67-11.1a5.4 5.4 0 0 0 .41-1.78 1.3 1.3 0 0 0-.4-.76 4.3 4.3 0 0 0-1.52-.75l.14-.43 7.87 2.63a17.7 17.7 0 0 1 4.35 1.94 4.7 4.7 0 0 1 1.8 2.35 4.48 4.48 0 0 1 0 3 4.21 4.21 0 0 1-2.39 2.64 5.8 5.8 0 0 1-2.8.36l2.13 7.09a8.4 8.4 0 0 0 .69 1.76 2.16 2.16 0 0 0 1 .82l-.16.47-5.33-1.79-2.79-9.56-1.11-.38Z" class="cls-3"/><path d="M195.21 345.56a149 149 0 1 1 149-149 149 149 0 0 1-149 149Z" class="cls-2"/><path d="M63 306a9.6 9.6 0 0 0-.53-2.6 10 10 0 0 1-.64-2.56 2.17 2.17 0 0 1 .47-1.5 1.45 1.45 0 0 1 1.14-.51 1.33 1.33 0 0 1 1 .51 2.28 2.28 0 0 1 .43 1.47 8.3 8.3 0 0 1-.51 2.38 13 13 0 0 0-.62 2.81 9 9 0 0 0 1.88-1.61 9.4 9.4 0 0 1 1.92-1.86 2.47 2.47 0 0 1 1.26-.36 1.47 1.47 0 0 1 1.47 1.44 1.63 1.63 0 0 1-.62 1.25 8 8 0 0 1-3.12 1.1 13 13 0 0 0-2.42.75 9.3 9.3 0 0 0 2.4.77 6.9 6.9 0 0 1 3 1 1.82 1.82 0 0 1 .72 1.37 1.34 1.34 0 0 1-.43 1 1.4 1.4 0 0 1-1 .42 2.5 2.5 0 0 1-1.26-.4 8.3 8.3 0 0 1-1.87-1.78 10 10 0 0 0-1.94-1.74 9.4 9.4 0 0 0 .44 2.35 12.8 12.8 0 0 1 .69 3 1.84 1.84 0 0 1-.45 1.27 1.3 1.3 0 0 1-1 .52 1.8 1.8 0 0 1-1.27-.54 1.73 1.73 0 0 1-.4-1.27 7 7 0 0 1 .44-2.18c.28-.85.46-1.44.54-1.76a12 12 0 0 0 .21-1.43 10.2 10.2 0 0 0-2 1.65 10.8 10.8 0 0 1-2.08 2 1.9 1.9 0 0 1-1 .3 1.54 1.54 0 0 1-1.1-.43 1.33 1.33 0 0 1-.45-1 1.7 1.7 0 0 1 .39-1 2.8 2.8 0 0 1 1.16-.86 15.4 15.4 0 0 1 2.33-.61 11.6 11.6 0 0 0 2.28-.72 10 10 0 0 0-2.44-.8 9.5 9.5 0 0 1-2.87-.88 1.85 1.85 0 0 1-.85-1.52 1.27 1.27 0 0 1 .43-.94 1.33 1.33 0 0 1 1-.43 2.6 2.6 0 0 1 1.32.4 7.3 7.3 0 0 1 1.74 1.6A9.5 9.5 0 0 0 63 306Z" class="cls-3"/><path d="M234 247.24a.07.07 0 0 1-.07-.07.07.07 0 0 1 .07-.08.08.08 0 0 1 .08.08.08.08 0 0 1-.08.07ZM195.47 85.33a8.32 8.32 0 1 1 8.15-8.32 8.23 8.23 0 0 1-8.15 8.32ZM173.6 99.07c-7.42-5.4-11.22-12.77-11.46-22.08.18-9.41 4-16.74 11.45-22.06l2.09 2.15A23.34 23.34 0 0 0 165.07 77a23.82 23.82 0 0 0 10.6 19.91l-2.07 2.17Z" class="cls-1"/><path d="M170.41 77a20.72 20.72 0 0 1 8.41-16.74l2.3 2.29A17.06 17.06 0 0 0 173.58 77a17.25 17.25 0 0 0 7.55 14.47l-2.26 2.32A20.73 20.73 0 0 1 170.41 77Z" class="cls-1"/><path d="M184.29 65.76a14.51 14.51 0 0 0 0 22.55l2.22-2.24a11.5 11.5 0 0 1-4.47-9A11.28 11.28 0 0 1 186.5 68l-2.2-2.22ZM217.4 99.08c7.43-5.39 11.22-12.76 11.46-22.07-.18-9.41-4-16.75-11.44-22.07l-2.09 2.16A23.34 23.34 0 0 1 225.94 77a23.81 23.81 0 0 1-10.6 19.9l2.06 2.17Z" class="cls-1"/><path d="M220.6 77a20.72 20.72 0 0 0-8.41-16.74l-2.3 2.29A17.06 17.06 0 0 1 217.43 77a17.25 17.25 0 0 1-7.55 14.46l2.26 2.32A20.72 20.72 0 0 0 220.6 77Z" class="cls-1"/><path d="M206.72 65.78a14.49 14.49 0 0 1 0 22.54l-2.21-2.24a11.5 11.5 0 0 0 4.47-9 11.26 11.26 0 0 0-4.46-9.06l2.2-2.22ZM218.5 244.87h-46.09a3.38 3.38 0 0 0-2.65 1.49L155 270.22h-8c27-63.45 35.92-90.44 43.21-157.28l1.53-27.52h7.62l1.53 27.52c7.23 66.33 16.51 94.53 43.14 157.28h-8.05l-14.76-23.85a3.21 3.21 0 0 0-2.65-1.48Z" class="cls-1"/><path d="M182.99 210.23h24.91l8.54 23.78h-41.97l8.52-23.78zM186.61 190.07h17.67l-3.21-23.79-11.36.02-3.1 23.77zM190.92 147.23l8.96-.01-2.16-23.8h-4.47l-2.33 23.81z" class="cls-2"/><path d="M232.76 270.3h14.31v8.06h-14.31v-8.06zM143.75 270.35h14.3v8.06h-14.3v-8.06zM137.89 174.14h-18.76c0 5.8 8.4 10.51 18.76 10.51s18.76-4.71 18.76-10.51ZM142.15 142.91c-.39-1.88.4-3.68.6-5.52a21.24 21.24 0 0 0-8.75 8.42c-1.85 3.1-1.32 10.17-.92 11.41s-.65.67-1 .38c-2.52-1.88-2.36-3.18-3.17-8.13a17 17 0 0 0-1.91 9.88c.37 2.34 2.32 4.79 3.28 6s-.78.48-1.2.16c-1.65-.89-2.83-2.67-3.82-4.8a20 20 0 0 0 .05 4.69c.49 3.42 4.75 8.27 9.34 8.63h6.66c5.23-1.58 8.72-4.79 10.38-9.72a19.57 19.57 0 0 0-2.89-12.45 12.06 12.06 0 0 1-4.7 6.88c-.68.17-.72-.42-.55-.71 3-2.89 3.38-6.2 1.42-9.89-.94-1.74-2.45-3.36-2.84-5.24Z" class="cls-1"/><path d="M128.85 184.42h18.06a.64.64 0 0 1 .64.64v3.31a.64.64 0 0 1-.64.64h-18.06a.64.64 0 0 1-.64-.64v-3.31a.64.64 0 0 1 .64-.64Z" class="cls-1"/><path d="M145.38 189h-15a215.4 215.4 0 0 1 3.2 36.33h8.6c.11-13.57 1-25.55 3.2-36.33ZM133.57 225.36h8.62a5.4 5.4 0 0 1 0 4.23h-8.62a4.85 4.85 0 0 1 0-4.24ZM132.57 101.72a24.2 24.2 0 0 0 9.95-15.08c-6.88-.16-12.83 1.13-17.58 4.29a28.3 28.3 0 0 0-10.24 14.67c6.64.85 12.62-.34 17.87-3.88ZM110.21 104.59a26.5 26.5 0 0 0-3.77-18.29c-4.74 4.9-7.86 10.18-8.87 16a31.2 31.2 0 0 0 3.29 18.21 25.78 25.78 0 0 0 9.35-15.88Z" class="cls-1"/><path d="M119.49 123a23.62 23.62 0 0 0 14.24-10.88c-6.56-2.38-12.68-3.11-18.23-1.71a27.76 27.76 0 0 0-14.39 10.4c6.12 2.95 12.24 3.79 18.38 2.19ZM105.8 140.85a23.9 23.9 0 0 0 11.62-13.74c-6.85-1-12.93-.39-18 2.17a28 28 0 0 0-11.87 13.3c6.53 1.62 12.63 1.15 18.27-1.73ZM96.56 162.79a24.4 24.4 0 0 0 8.51-16c-6.83.49-12.62 2.35-17.05 6a28.64 28.64 0 0 0-8.83 15.64 25 25 0 0 0 17.37-5.57ZM93 186.93a25.17 25.17 0 0 0 5.88-17.36c-6.61 1.62-12 4.42-15.77 8.74a29.48 29.48 0 0 0-6.27 17A24.92 24.92 0 0 0 93 186.93ZM93.3 209a25.83 25.83 0 0 0 1.16-18.46c-5.92 3.35-10.34 7.52-12.85 12.73A30.24 30.24 0 0 0 80 221.48 25.12 25.12 0 0 0 93.3 209ZM98.38 229.66A26.44 26.44 0 0 0 96 211.18c-5.11 4.51-8.62 9.52-10 15.18a31.06 31.06 0 0 0 1.94 18.36 25.55 25.55 0 0 0 10.53-15.06ZM107 249.19a26.8 26.8 0 0 0-5.92-17.77c-4.1 5.48-6.54 11.15-6.84 17a31.47 31.47 0 0 0 5.42 17.75 26.13 26.13 0 0 0 7.34-17ZM119.45 266.46a26.9 26.9 0 0 0-9.17-16.37c-2.93 6.25-4.21 12.34-3.38 18.22a31.66 31.66 0 0 0 8.69 16.44 26.8 26.8 0 0 0 3.86-18.29ZM135.23 280.44a26.8 26.8 0 0 0-12.07-14.33c-1.65 6.77-1.72 13 .22 18.69A31.6 31.6 0 0 0 135 299.3a27.6 27.6 0 0 0 .23-18.86ZM152.88 292a26.37 26.37 0 0 0-14.49-11.71c-.3 7 .84 13.24 3.81 18.43a31.23 31.23 0 0 0 14.09 12 28.07 28.07 0 0 0-3.41-18.72Z" class="cls-1"/><path d="M93.14 124.7a26.94 26.94 0 0 0-7.4-17.24c-3.6 5.86-5.53 11.74-5.33 17.65a31.7 31.7 0 0 0 6.91 17.26 26.48 26.48 0 0 0 5.82-17.67ZM80 149.52c-2.14-6.9-5.94-11.71-11.48-14.83-1.94 6.66-2.29 12.91-.59 18.62a31.7 31.7 0 0 0 11 15A27.34 27.34 0 0 0 80 149.52ZM74.66 176.41a26.6 26.6 0 0 0-13.55-12.87c-.86 7-.23 13.23 2.33 18.63a31.44 31.44 0 0 0 13.13 13.09 27.9 27.9 0 0 0-1.91-18.85ZM74.7 203.23a26.2 26.2 0 0 0-15.33-10.5c.26 7 1.89 13.17 5.26 18.11a30.94 30.94 0 0 0 14.95 10.8 28.34 28.34 0 0 0-4.88-18.41ZM79.05 227.64a25.52 25.52 0 0 0-17-7.17c1.66 6.91 4.45 12.61 8.71 16.78a30.2 30.2 0 0 0 16.66 7.54 28.53 28.53 0 0 0-8.39-17.15ZM87.64 251.44a24.77 24.77 0 0 0-17.95-3.23c3.09 6.42 7 11.41 12 14.56a29.32 29.32 0 0 0 17.73 3.65 28.47 28.47 0 0 0-11.8-15ZM100.78 272.82a24.08 24.08 0 0 0-18 .88c4.37 5.62 9.23 9.65 14.75 11.61a28.47 28.47 0 0 0 17.92-.39 28 28 0 0 0-14.63-12.1ZM118 291.09a23.64 23.64 0 0 0-17.21 4.91c5.43 4.55 11 7.41 16.75 8.1a27.85 27.85 0 0 0 17.23-4.43c-4.81-4.92-10.34-7.88-16.73-8.6ZM138.23 305.41a23.4 23.4 0 0 0-16.07 7.88c6.06 3.58 12 5.45 17.73 5.14a27.6 27.6 0 0 0 16.11-7.38c-5.53-4-11.43-6-17.8-5.64ZM253.08 173.93h18.76c0 5.8-8.4 10.51-18.76 10.51s-18.76-4.71-18.76-10.51ZM248.82 142.7c.39-1.88-.4-3.68-.6-5.52a21.24 21.24 0 0 1 8.78 8.42c1.86 3.1 1.32 10.17.93 11.41s.64.67 1 .38c2.52-1.88 2.36-3.18 3.17-8.13a17 17 0 0 1 1.91 9.88c-.36 2.34-2.32 4.79-3.28 6s.79.48 1.2.16c1.65-.89 2.84-2.67 3.83-4.8a20 20 0 0 1-.06 4.69c-.48 3.42-4.75 8.27-9.34 8.63h-6.66c-5.23-1.58-8.72-4.79-10.38-9.72a19.62 19.62 0 0 1 2.9-12.45 12 12 0 0 0 4.69 6.88c.68.17.72-.42.55-.71-3-2.89-3.38-6.2-1.42-9.89.95-1.74 2.45-3.36 2.84-5.24Z" class="cls-1"/><path d="M262.12 184.21h-18a.65.65 0 0 0-.65.65v3.3a.65.65 0 0 0 .65.64h18a.65.65 0 0 0 .65-.64v-3.3a.65.65 0 0 0-.65-.65ZM245.59 188.82h15a215.4 215.4 0 0 0-3.19 36.33h-8.61c-.11-13.57-.95-25.55-3.2-36.33ZM257.4 225.15h-8.62a5.42 5.42 0 0 0 0 4.24h8.63a4.88 4.88 0 0 0 0-4.24ZM211.33 276.43v-5.9H213V275h3.23v-4.46H218v5.87h3.19v-5.87h1.52v-6.41H189a10.39 10.39 0 1 0 0 6.41h19v5.9Z" class="cls-1"/><path d="M175 267.32a4.12 4.12 0 1 1 4.12 4.13 4.12 4.12 0 0 1-4.12-4.13Z" class="cls-2"/><path d="M258.3 101.72a24.16 24.16 0 0 1-10-15.08c6.88-.16 12.83 1.13 17.58 4.29a28.38 28.38 0 0 1 10.25 14.67c-6.65.85-12.63-.34-17.87-3.88ZM280.3 104.59a26.55 26.55 0 0 1 3.76-18.29c4.75 4.9 7.86 10.18 8.88 16a31.3 31.3 0 0 1-3.29 18.21 25.78 25.78 0 0 1-9.35-15.88Z" class="cls-1"/><path d="M271 123a23.6 23.6 0 0 1-14.24-10.88c6.56-2.38 12.68-3.11 18.22-1.71a27.78 27.78 0 0 1 14.4 10.4c-6.13 2.95-12.24 3.79-18.38 2.19ZM285 140.85a23.9 23.9 0 0 1-11.62-13.74c6.85-1 12.93-.39 18 2.17a28 28 0 0 1 11.87 13.3c-6.53 1.62-12.64 1.15-18.27-1.73Z" class="cls-1"/><path d="M297.7 124.7a26.94 26.94 0 0 1 7.4-17.24c3.6 5.86 5.53 11.74 5.33 17.65a31.7 31.7 0 0 1-6.91 17.26 26.48 26.48 0 0 1-5.82-17.67ZM294.36 162.79a24.4 24.4 0 0 1-8.51-16c6.84.49 12.62 2.35 17 6a28.72 28.72 0 0 1 8.84 15.64 25 25 0 0 1-17.38-5.57Z" class="cls-1"/><path d="M311 149.52c2.13-6.9 5.93-11.71 11.47-14.83 1.94 6.66 2.29 12.91.59 18.62a31.7 31.7 0 0 1-11 15 27.33 27.33 0 0 1-1-18.78ZM297.44 186.93a25.18 25.18 0 0 1-5.89-17.36c6.62 1.62 12 4.42 15.78 8.74a29.53 29.53 0 0 1 6.26 17 24.9 24.9 0 0 1-16.15-8.41Z" class="cls-1"/><path d="M315.81 176.41a26.62 26.62 0 0 1 13.56-12.87c.86 7 .22 13.23-2.34 18.63a31.4 31.4 0 0 1-13.12 13.09 28 28 0 0 1 1.9-18.85ZM297.32 209a25.83 25.83 0 0 1-1.16-18.46c5.92 3.35 10.34 7.52 12.85 12.73a30.24 30.24 0 0 1 1.61 18.25 25.12 25.12 0 0 1-13.3-12.52Z" class="cls-1"/><path d="M315.92 203.23a26.2 26.2 0 0 1 15.33-10.5c-.26 7-1.89 13.17-5.26 18.11a30.94 30.94 0 0 1-15 10.8 28.34 28.34 0 0 1 4.88-18.41ZM291.88 229.66a26.44 26.44 0 0 1 2.42-18.48c5.11 4.51 8.61 9.52 10.05 15.18a31 31 0 0 1-2 18.36 25.5 25.5 0 0 1-10.52-15.06Z" class="cls-1"/><path d="M311.21 227.64a25.5 25.5 0 0 1 17-7.17c-1.66 6.91-4.46 12.61-8.71 16.78a30.2 30.2 0 0 1-16.67 7.54 28.54 28.54 0 0 1 8.4-17.15ZM283.29 249.19a26.78 26.78 0 0 1 5.91-17.77c4.1 5.48 6.54 11.15 6.85 17a31.5 31.5 0 0 1-5.43 17.75 26.16 26.16 0 0 1-7.33-17Z" class="cls-1"/><path d="M302.67 251.44a24.73 24.73 0 0 1 17.94-3.23c-3.08 6.42-7 11.41-12 14.56a29.3 29.3 0 0 1-17.72 3.65 28.43 28.43 0 0 1 11.8-15ZM270.82 266.46a26.9 26.9 0 0 1 9.18-16.37c2.93 6.25 4.21 12.34 3.37 18.22a31.6 31.6 0 0 1-8.69 16.44 26.87 26.87 0 0 1-3.86-18.29Z" class="cls-1"/><path d="M289.49 272.82a24.07 24.07 0 0 1 18 .88c-4.36 5.62-9.23 9.65-14.74 11.61a28.47 28.47 0 0 1-17.92-.39 28 28 0 0 1 14.62-12.1ZM254.66 280.44a26.76 26.76 0 0 1 12.08-14.33c1.64 6.77 1.72 13-.23 18.69a31.54 31.54 0 0 1-11.62 14.5 27.6 27.6 0 0 1-.23-18.86Z" class="cls-1"/><path d="M271.85 291.09A23.64 23.64 0 0 1 289.1 296c-5.42 4.55-11 7.41-16.74 8.1a27.86 27.86 0 0 1-17.24-4.43c4.81-4.92 10.35-7.88 16.73-8.6ZM237.32 292a26.4 26.4 0 0 1 14.5-11.71c.29 7-.84 13.24-3.82 18.43a31.23 31.23 0 0 1-14.09 12 28.13 28.13 0 0 1 3.41-18.72Z" class="cls-1"/><path d="M252 305.41a23.46 23.46 0 0 1 16.08 7.88c-6.06 3.58-12 5.45-17.73 5.14a27.55 27.55 0 0 1-16.14-7.38c5.52-4 11.42-6 17.79-5.64Z" class="cls-1"/><path d="M289.05 121.33 274.77 106l1.42-.16 8.36 7.82 9.24 11 4.36 6.51 7.1 12.6 3.52 9 3.78 13.43.91 5.74.57 6.36.86 13.38-.43 12.78-1.46 12.77-2.79 10.77-4.54 14c-2.12 5.12-4.33 9.38-6.67 12.14L293.1 265a64 64 0 0 1-11.1 13.64l-4.67 5.74a74.5 74.5 0 0 1-8.94 7.54l-10.72 8.28-10.14 5.87-11.82 5.63a222 222 0 0 1-23.51 8.48 78.6 78.6 0 0 0-16.52 6.6 38.3 38.3 0 0 0-9 8.16l-7.68-1.88a48 48 0 0 1 16.73-11.93c13.44-4.42 26.91-8.74 40.09-14.19a159 159 0 0 0 21.21-11.06A139 139 0 0 0 275.78 281a209 209 0 0 0 15.61-19 176.5 176.5 0 0 0 11.31-21.68 126 126 0 0 0 7.1-24 98.2 98.2 0 0 0 2.28-25 111.4 111.4 0 0 0-2.37-25c-1.59-8.92-5.31-15.87-8-23.81-6.48-13.59-10.29-18-12.69-21.16Z" class="cls-1"/><path d="M101.65 121.33 115.93 106l-1.41-.16-8.36 7.82-9.25 11-4.35 6.51-7.1 12.6-3.52 9-3.79 13.43-.91 5.74-.56 6.36-.87 13.38.43 12.78 1.51 12.76L80.49 228 85 242c2.12 5.12 4.33 9.38 6.68 12.14l5.9 10.88a63.7 63.7 0 0 0 11.13 13.65l4.66 5.74a74 74 0 0 0 9 7.54l10.72 8.28 10.14 5.87 11.77 5.6a221 221 0 0 0 23.51 8.48 78.3 78.3 0 0 1 16.51 6.6 38.3 38.3 0 0 1 9 8.16l7.6-1.88a48.15 48.15 0 0 0-16.73-11.93c-13.45-4.42-26.91-8.74-40.1-14.19a159 159 0 0 1-21.2-11.06A139.7 139.7 0 0 1 114.92 281a209 209 0 0 1-15.61-19A178 178 0 0 1 88 240.27a126 126 0 0 1-7.1-24 98.2 98.2 0 0 1-2.27-25 111.4 111.4 0 0 1 2.37-25c1.59-8.92 5.31-15.87 8-23.81 6.48-13.59 10.3-18 12.69-21.16Z" class="cls-1"/></svg>