<?xml version="1.0" encoding="UTF-8"?>
<svg id="Layer_2"
    xmlns="http://www.w3.org/2000/svg" viewBox="0 0 454.8 60">
    <defs>
        <style>.cls-1{fill:#fff;}</style>
        <style>.cls-2{fill:#f38c13}</style>
    </defs>
    <g id="_Background_0_Image">
        <g>
            <path class="cls-1" d="M0,60V0H454.8V60H0ZM398.88,5.81c-2.12-2.43-4.84-3.62-7.77-4.17-2.89-.54-5.84-.91-8.77-1.01-4.83-.16-9.68-.12-14.51-.01-2.7,.06-5.43,.26-8.08,.72-5.28,.93-9.84,3.25-13.02,7.75-2.64,3.73-3.48,8.03-3.53,12.45-.11,10.56-.09,21.13,0,31.69,.03,3.46,.91,5.93,5.42,6.36,3.27,.31,6.06-.8,6.71-4.41,.11-.62,.1-1.27,.1-1.9,0-10.09-.01-20.17,.01-30.26,.01-6.32,3.69-10.33,9.72-10.43,6.15-.1,12.31-.09,18.47,0,4.45,.06,7.58,2.66,8.57,6.94,.27,1.15,.37,2.36,.37,3.55,.03,10.21,.01,20.41,.02,30.62,0,2.98,1.3,4.92,3.72,5.62,1.61,.46,3.22,.46,4.83,0,2.41-.7,3.7-2.64,3.7-5.63,0-10.36-.08-20.73,.04-31.09,.07-6.21,3.86-9.73,9.83-9.97,6.03-.24,12.07-.1,18.11-.04,4.54,.05,8.04,2.67,9.09,6.77,.34,1.33,.51,2.75,.52,4.13,.04,10.01,0,20.01,.04,30.02,.01,3.99,1.4,5.66,5.34,6.1,3.03,.34,5.81-.7,6.55-3.84,.18-.76,.18-1.58,.18-2.37,.01-10.72,.02-21.45,0-32.17,0-1.39-.07-2.79-.29-4.16-.94-5.83-3.76-10.43-9.04-13.35-4.06-2.24-8.51-2.99-13.04-3.07-6.27-.11-12.54,0-18.81,.18-5.26,.15-10.33,1.06-14.46,4.99ZM58.65,59.45h0c12.79,.01,25.58-.05,38.37,.05,4.44,.03,7.11-3.54,5.83-8.06-.73-2.57-2.91-3.96-6.01-3.96-16.67,0-33.34,0-50,0-8.11,0-16.23,.03-24.34-.01-5.29-.02-9.4-3.61-9.59-8.74-.22-5.8-.18-11.62,0-17.42,.13-4.23,2.94-7.42,7-8.36,1.27-.29,2.61-.36,3.92-.36,24.26-.02,48.53-.01,72.79-.03,.94,0,1.93-.12,2.82-.41,2.88-.94,4.22-3.7,3.61-7.18-.45-2.54-2.74-4.37-5.53-4.37-24.9,0-49.8,0-74.71,0-1.71,0-3.44,.03-5.13,.26C10.59,1.8,5.41,5.33,2.62,12.05c-1.27,3.06-1.96,6.28-1.97,9.53-.01,6.88-.56,13.79,.42,20.64,.62,4.3,2.13,8.25,5.17,11.47,3.7,3.92,8.45,5.64,13.67,5.7,12.91,.16,25.82,.05,38.73,.05ZM168.53,19.24h0c-9.12-.01-18.23-.04-27.35,.01-2.3,.01-4.63,.14-6.91,.5-4.18,.65-8,2.19-11.12,5.16-4.02,3.82-5.48,8.73-5.69,14.03-.2,5.06-.08,10.12-.03,15.19,.02,2.91,2.18,5.27,4.95,5.56,3.58,.38,6.08-1.1,6.83-4.18,.25-1.02,.2-2.13,.23-3.2,.09-4.26-.03-8.53,.29-12.77,.27-3.62,2.27-6.32,5.84-7.43,1.8-.56,3.75-.83,5.64-.84,17.87-.06,35.74-.04,53.62-.03,1.47,0,2.95,.09,4.42,.25,4.06,.45,7.02,3.08,7.9,7.07,.27,1.23,.42,2.52,.44,3.78,.06,3.83,.02,7.65,.02,11.48,0,3.43,2.22,5.74,5.44,5.9,4.28,.21,6.53-2.46,6.55-5.67,.03-5.73,.07-11.48-.26-17.2-.26-4.57-2.02-8.68-5.43-11.91-4.27-4.04-9.61-5.53-15.26-5.64-10.03-.19-20.07-.05-30.11-.05Zm121.67,40.21h0c11.71,.01,23.43-.07,35.14,.05,4.41,.05,7.11-3.48,5.96-7.89-.69-2.66-2.92-4.14-6.13-4.14-19.19,0-38.38,0-57.57,0-3.52,0-7.04,.03-10.55-.01-4.95-.06-8.47-2.97-9.33-7.79-.29-1.63-.43-3.32-.43-4.98-.04-9.61,0-19.21-.04-28.82-.01-2.77-2.1-4.99-4.78-5.28-3.55-.38-6.16,1.07-6.92,3.93-.22,.84-.32,1.73-.33,2.59-.02,9.41-.07,18.82,.02,28.22,.02,2.69,.27,5.41,.73,8.06,.74,4.29,2.51,8.13,5.79,11.14,3.62,3.32,8.05,4.8,12.82,4.86,11.87,.15,23.75,.05,35.62,.05ZM168.44,.57c-15.07,0-30.14,0-45.21,0-2.99,0-5.3,2.11-5.57,5.02-.33,3.53,1.38,6.15,4.49,6.72,1.05,.19,2.14,.23,3.21,.23,29.14,.01,58.28,.02,87.41-.03,1.27,0,2.66-.29,3.79-.86,2.38-1.19,3.31-4.12,2.52-7.07-.65-2.44-2.76-4.02-5.44-4.02-15.07,0-30.14,0-45.21,0Z"/>
            <path class="cls-2" d="M398.88,5.81c4.12-3.93,9.2-4.84,14.46-4.99,6.27-.18,12.54-.3,18.81-.18,4.52,.08,8.98,.82,13.04,3.07,5.28,2.92,8.1,7.52,9.04,13.35,.22,1.37,.29,2.77,.29,4.16,.02,10.72,.02,21.45,0,32.17,0,.79,0,1.61-.18,2.37-.74,3.14-3.52,4.18-6.55,3.84-3.94-.44-5.32-2.11-5.34-6.1-.04-10.01,0-20.01-.04-30.02,0-1.38-.17-2.79-.52-4.13-1.04-4.09-4.55-6.72-9.09-6.77-6.04-.07-12.08-.2-18.11,.04-5.97,.24-9.76,3.75-9.83,9.97-.12,10.36-.03,20.73-.04,31.09,0,2.99-1.29,4.93-3.7,5.63-1.61,.47-3.22,.47-4.83,0-2.41-.7-3.71-2.64-3.72-5.62,0-10.21,0-20.41-.02-30.62,0-1.18-.11-2.4-.37-3.55-.98-4.28-4.12-6.88-8.57-6.94-6.16-.09-12.31-.1-18.47,0-6.02,.1-9.7,4.11-9.72,10.43-.02,10.09,0,20.17-.01,30.26,0,.64,.01,1.28-.1,1.9-.65,3.61-3.43,4.72-6.71,4.41-4.51-.42-5.39-2.9-5.42-6.36-.09-10.56-.11-21.13,0-31.69,.05-4.42,.89-8.72,3.53-12.45,3.19-4.51,7.74-6.82,13.02-7.75,2.66-.47,5.38-.66,8.08-.72,4.83-.11,9.68-.15,14.51,.01,2.93,.1,5.88,.47,8.77,1.01,2.93,.55,5.65,1.74,7.77,4.17Z"/>
            <path class="cls-2" d="M58.65,59.45c-12.91,0-25.82,.11-38.73-.05-5.21-.06-9.97-1.78-13.67-5.7-3.05-3.23-4.56-7.17-5.17-11.47-.98-6.86-.44-13.76-.42-20.64,0-3.25,.7-6.47,1.97-9.53C5.41,5.33,10.59,1.8,17.66,.84c1.69-.23,3.42-.25,5.13-.26,24.9-.02,49.8-.01,74.71,0,2.79,0,5.08,1.83,5.53,4.37,.62,3.48-.73,6.24-3.61,7.18-.89,.29-1.88,.41-2.82,.41-24.26,.02-48.53,.01-72.79,.03-1.31,0-2.65,.07-3.92,.36-4.06,.94-6.87,4.13-7,8.36-.18,5.8-.21,11.62,0,17.42,.19,5.12,4.3,8.71,9.59,8.74,8.11,.04,16.23,.01,24.34,.01,16.67,0,33.34,0,50,0,3.1,0,5.29,1.39,6.01,3.96,1.28,4.52-1.39,8.1-5.83,8.06-12.79-.1-25.58-.03-38.37-.03h0Z"/>
            <path class="cls-2" d="M168.53,19.24c10.04,0,20.07-.14,30.11,.05,5.66,.11,10.99,1.6,15.26,5.64,3.41,3.23,5.17,7.34,5.43,11.91,.33,5.72,.3,11.47,.26,17.2-.02,3.22-2.26,5.89-6.55,5.67-3.23-.16-5.44-2.46-5.44-5.9,0-3.83,.03-7.66-.02-11.48-.02-1.26-.17-2.55-.44-3.78-.89-3.99-3.84-6.63-7.9-7.07-1.46-.16-2.94-.25-4.42-.25-17.87-.02-35.74-.04-53.62,.03-1.89,0-3.84,.28-5.64,.84-3.56,1.11-5.57,3.81-5.84,7.43-.32,4.24-.2,8.51-.29,12.77-.02,1.07,.02,2.17-.23,3.2-.75,3.08-3.25,4.56-6.83,4.18-2.77-.29-4.93-2.64-4.95-5.56-.04-5.06-.17-10.13,.03-15.19,.21-5.3,1.67-10.21,5.69-14.03,3.12-2.97,6.94-4.52,11.12-5.16,2.27-.35,4.6-.48,6.91-.5,9.12-.05,18.23-.02,27.35-.02h0Z"/>
            <path class="cls-2" d="M290.19,59.45c-11.87,0-23.75,.1-35.62-.05-4.77-.06-9.2-1.54-12.82-4.86-3.28-3.01-5.06-6.85-5.79-11.14-.45-2.65-.7-5.37-.73-8.06-.09-9.41-.04-18.82-.02-28.22,0-.87,.1-1.76,.33-2.59,.76-2.86,3.37-4.31,6.92-3.93,2.67,.29,4.76,2.51,4.78,5.28,.04,9.61,0,19.21,.04,28.82,0,1.66,.14,3.34,.43,4.98,.86,4.82,4.38,7.73,9.33,7.79,3.52,.04,7.04,.01,10.55,.01,19.19,0,38.38,0,57.57,0,3.21,0,5.44,1.48,6.13,4.14,1.14,4.41-1.56,7.94-5.96,7.89-11.71-.12-23.43-.04-35.14-.04h0Z"/>
            <path class="cls-2" d="M168.44,.57c15.07,0,30.14,0,45.21,0,2.67,0,4.78,1.58,5.44,4.02,.79,2.95-.15,5.88-2.52,7.07-1.13,.56-2.51,.85-3.79,.86-29.14,.05-58.28,.04-87.41,.03-1.07,0-2.16-.03-3.21-.23-3.11-.57-4.82-3.2-4.49-6.72,.28-2.91,2.59-5.02,5.57-5.02,15.07,0,30.14,0,45.21,0Z"/>
        </g>
    </g>
</svg>