<svg xmlns="http://www.w3.org/2000/svg" viewBox="0 0 229 81"><title>Logius</title><path d="M0 0h44v77H0z" style="fill:#154273"/><path fill-rule="evenodd" d="M17.7 45.9h.7V44c1-.2 2.2-.4 3.6-.4 2.7 0 5 .7 5.6.9 0-.3-.1-.6-.4-.6v-.1c.6-.4.9.3.9.4.2-.1.5 0 .5.3 0 .8 1.9 1.2 2.3 1.3-.8.3-1.1 1.3-1.1 1.3-.5-.6-1.2-1.1-1.3-1.1-.2 0-.2.2-.2.3q-.1.1-.1 0c-.3-.4-.2-.5-.1-.6 0-.1 0-.5-.5-.5v5.5h.3s.8-.6 1.8-1.3c.9-.6 1.4-.2 2.4.3 1.4.8 2.7.1 2.7.1 1.2.8 1.6 3.3 1.6 3.3.2.1.6.2 1 .2.9 0 1-.6 1-.9 0-1.4-1.7-2-1.7-3.3 0-.4.2-1.7 1.8-1.7H40c.6 0 .8-.4.9-.6 0-.1.1 0 0 0 0 .1.1.3.1.6q0 .9-.9.9c-.3 0-.6-.1-.6-.1h-.1c.3.3.3.9.2 1.1h-.1c-.1-.6-.7-1.2-1.4-1.2-.9 0-.9.8-.9 1 0 1.1 1.9 1.9 1.9 3.4s-1.6 1.9-2.5 1.6c0 1.6 1.8 2.1 1.8 1q.1-.1.1 0c.2.6.2 1-.5 1.2-.1 0-.1 0 0 .1.7.4.3 2.1.3 2.6-.1.7.6.6.7.6q.1 0 0 .1c-.5.6-1.1 0-1.1 0-.5.2-.2.6.1.8q.1.1 0 .1c-.1 0-.8 0-.9-.6-.4.4-.9.3-1 .3-.1-.1-.8-.4-.9.4 0 .1 0 0 0 0-.5-.7 0-1.1.3-1.1 0 0-.4-.4-.8.1-.1-.9.6-1 1-.6.1-.1.2-.6-.5-.5v-.1c.5-.5 1 0 1.1.1.2.2.8.1.8.1-.2-2.9-2.7-1.8-3.1-3.2v-.1c-.1.4-1 .4-1.1-.2v-.1c.7.8 2.4-1.5.1-3.4-1.9-1.6-3.6-.7-4.3-.2 0 .2.1.3.2.3q.1.1 0 .1c-.2.1-.5.1-.6-.1-.4.3 0 .6.1.7q.1.1 0 .1c-.4.1-.7-.3-.7-.5v1.6c0 2.4-2.7 2.7-5.7 4.7-3-2-5.7-2.3-5.7-4.7v-1.6c0 .2-.4.6-.7.5q-.1 0 0-.1c.1-.1.5-.4.1-.7-.2.1-.4.2-.6.1q-.1 0 0-.1c.1 0 .2-.1.2-.3-.7-.5-2.4-1.4-4.3.2-2.3 1.9-.7 4.2.1 3.4v.1c-.1.6-1 .6-1.1.2l-.1.1c-.3 1.4-2.9.3-3 3.2 0 0 .6.1.8-.1.1-.1.5-.6 1-.1.1 0 .1.1 0 .1-.6 0-.5.4-.5.5.5-.4 1.2-.3 1.1.6-.4-.5-.8-.2-.9-.1.4 0 .9.4.4 1.1 0 0-.1.1-.1 0 0-.8-.7-.5-.9-.4-.1 0-.5.1-.9-.3-.1.6-.8.6-.9.6q-.1 0 0-.1c.3-.2.6-.6.1-.8 0 0-.6.6-1.1 0-.1-.1 0-.1 0-.1s.8.1.7-.6c0-.5-.4-2.2.3-2.7 0 0 .1 0 0 0-.7-.2-.8-.7-.5-1.2q0-.15 0 0c.1 1.1 1.8.6 1.9-1-.9.3-2.6-.1-2.6-1.6s2-2.3 2-3.4c0-.2 0-1-.9-1-.8 0-1.3.6-1.5 1.1q0 .1 0 0c-.1-.1-.1-.7.2-1 0 0 0-.1-.1 0-.1 0-.3.1-.6.1q-.9 0-.9-.9c0-.3.1-.5 0-.6 0-.1.1-.1.1 0 .1.1.2.6.9.6h1.4c1.7 0 1.9 1.3 1.9 1.7 0 1.3-1.8 1.9-1.8 3.3 0 .3.2.9 1.1.9.4 0 .7-.2 1-.3 0 0 .4-2.4 1.5-3.2 0 0 1.4.7 2.8-.1 1-.5 1.5-.9 2.4-.3s1.7 1.3 1.8 1.3h.2v-5.5c-.4 0-.4.3-.4.4 0 .2.2.3-.1.7h-.1c0-.1 0-.3-.2-.3-.1 0-.8.5-1.3 1 0 0-.3-.9-1.1-1.2.4-.1 2.3-.5 2.3-1.4 0-.2.3-.3.5-.3 0 0 .3-.7.9-.3-.3.1-.4.3-.4.6.2 0 .7-.2 1.3-.3zm8.5-.3h-.7v2.1h.7zm-13-1.4c.3 0 .6-.1.7-.4 0-.1 0-.1.1 0 .1.6-.3.8-.7.8s-.6-.3-1.2-.4c-.3 0-.5 0-.5-.1h.5c.6 0 .7.1 1.1.1m-6.3 1.6v-.1c.5.3.8-.3.7-.8-.1-.3-.4-1.1.3-1.7.6.3 1.1-.3 1-.6-.1-.1-.1-.1-.1 0 0 .2-.2.4-.4.4s-.7-.3-.7-.7c.6-.5 1.7-.3 2 .5 0 .1.1.1.1 0s0-.5-.5-.8c-.5-.2-.3-.5-.2-.6s.2-.1.1 0c-.1.3.2.4.7.3 1.1-.1 1.4.3 1.5.5.2.1 1.1.6 1.1.8 0 .1-.1.2-.1.2s0 .4-.3.7c-1.1-.7-1.4-.1-1.3.4 0 0 .2.1.9.1 0 0 0 .3-.1.4 0 0 .2.2.1.4 0 0-.4-.3-1.1-.3 0 0-.4.7 1.2 1s2.1 1.8 2.1 2.6q0 .1-.1.1c-1.3-.3-1.8 1.1-3.5.9.1-.4 0-.8 0-.8-.2.4-.5.6-.7.7-.6-.1-1-.4-1.1-.6 0 0 .7-.5.3-1.4 0 0-.4.6-1.3.3v-.1c1.1-.4.4-1.3.3-1.4-.5.3-.9-.1-.9-.4m3.6-3.2c.1.6.6.6.9.3 0-.3-.3-.3-.9-.3m21.4 1.5h.5c0 .1-.2.1-.5.1-.6.1-.8.4-1.2.4s-.8-.2-.7-.8c.1-.1.1-.1.1 0 .1.3.4.4.7.4.4 0 .5-.1 1.1-.1m4.3 2.1c-.1.1-.8 1 .3 1.4v.1c-.8.3-1.2-.3-1.2-.3-.5.9.2 1.4.2 1.4-.1.2-.5.5-1.1.6-.2-.1-.5-.3-.7-.7 0 0-.1.4 0 .8-1.6.2-2.2-1.2-3.5-.9q-.1 0-.1-.1c0-.8.5-2.3 2.1-2.6s1.2-1 1.2-1c-.7 0-1.1.3-1.1.3-.1-.2.1-.4.1-.4-.1-.1-.1-.4-.1-.4.7 0 .9-.1.9-.1.1-.5-.2-1.1-1.3-.4-.3-.3-.3-.7-.3-.7s-.1-.1-.1-.2c0-.2.9-.7 1.1-.8.1-.2.4-.6 1.5-.5.5.1.9 0 .7-.3 0-.1 0-.1.1 0s.3.4-.2.6c-.5.3-.5.7-.5.8s.1.1.2 0c.2-.8 1.3-1 2-.5-.1.4-.6.7-.8.7s-.4-.2-.4-.4c0-.1 0 0 0 0-.2.3.3.9.9.6.7.6.4 1.4.3 1.7-.1.5.2 1.1.7.8v.1c0 .3-.4.7-.9.4m-3.6-3.3c.3.3.8.3.9-.3-.6 0-.9 0-.9.3M22 32.9q.3 0 .3.3c0 .2 0 .3-.1.3q-.15.3 0 .3s.1.1.2 0 .2-.1.4-.1.3.1.3.2q0 .3-.3.3c-.2 0-.3 0-.4-.1s-.2-.1-.2 0c-.1 0 0 .5 0 .9.4.1.6.4.6.6 0 .5-.5.7-.8.9-.3-.2-.8-.4-.8-.9 0-.2.2-.5.6-.6 0-.4.1-.9.1-.9q-.15-.15-.3 0c-.1.1-.2.1-.3.1-.3 0-.4-.1-.4-.3 0-.1.1-.2.4-.2.1 0 .2 0 .3.1q.15.15.3 0s0-.1-.1-.3c0 0-.1-.1-.1-.3s.2-.3.3-.3m-3.6 10c0-1.2 0-1.9-.7-1.8.4-1-1.2-1.4-1.2-2.7 0-.8.6-.9.8-.9.5 0 .4.3.9.3 0 0 .1 0 .1.1s-.1.4-.4.4c-.2 0-.2-.3-.4-.3-.1 0-.3.1-.3.3 0 .6.4 1.2.8 1.7q.2-.2.4-.2c.3 0 .5.2.5.6q0 .1-.1.3.2.1.4.1c.2 0 .5-.1.5-.5 0-1-1.3-1.8-1.3-3 0-.5.4-1.1 1.2-1.1s.7.8 1.4.8h.1c0 .1-.2.5-.5.5-.4 0-.6-.7-.9-.7-.2 0-.4.1-.4.5s.2 1 .5 1.6q.1-.2.4-.2c.3 0 .5.3.5.7q0 .3-.3.6c.2.2.4.4.7.4.5 0 .7-.3.7-.6s-.6-.5-.6-1c0-.4.2-.6.4-.6.3 0 .4.2.4.2.1 0 .2-.2.4-.2.3 0 .5.3.5.6 0 .6-.6.7-.6 1s.2.6.7.6c.2 0 .4-.2.6-.4-.1-.2-.2-.4-.2-.6 0-.4.2-.7.5-.7q.2 0 .4.2c.3-.6.4-1.2.4-1.6s-.2-.5-.3-.5c-.4 0-.5.7-.9.7s-.5-.4-.5-.5h.1c.7 0 .5-.8 1.4-.8.8 0 1.2.6 1.2 1.1 0 1.2-1.3 2-1.3 3 0 .4.3.5.5.5q.1 0 .3-.1v-.3c0-.4.2-.6.5-.6q.2 0 .3.2c.5-.5.8-1.1.8-1.7 0-.2-.1-.3-.2-.3-.2 0-.2.3-.5.3-.2 0-.3-.3-.3-.4s0-.1.1-.1c.5 0 .4-.3.9-.3.2 0 .8.1.8.9 0 1.3-1.6 1.7-1.2 2.7-.7-.1-.7.6-.7 1.8 0 0-1.3-.5-3.7-.5-2.2 0-3.6.4-3.6.5m4.2-5.5c0 .3-.3.6-.6.6s-.6-.3-.6-.6c0-.4.3-.6.6-.6s.6.2.6.6m.2 17.6H22v2.1h.8zM15 62.7v1c0 1.7-2.7.1-5.4 0-2.2-.2-2.8.4-2.8.4l.4-2.3c0-.1.5-.4 2-.4 1.9 0 2.8.3 3.1.5V63c0 .3.1.4.3.5 0-.1.3-.8 2.4-.8m16.4.8c.2-.1.3-.2.3-.5v-1.1c.3-.2 1.3-.5 3.1-.5 1.5 0 2 .3 2 .4l.4 2.3s-.6-.6-2.8-.4c-2.7.1-5.4 1.7-5.4 0v-1c2.1 0 2.4.7 2.4.8m-18.6-.9c0 .1 0 0 0 0v-2.3c0-.7 4.4-1.1 9.2-1.1s9.3.4 9.3 1.1v2.3s-.1.1-.1 0c-.6-.6-4.9-.9-9.2-.9s-8.6.3-9.2.9m5.4-11.2c0-.1.2-.2.4-.2-.1 0-.4.2-.3.5h.1c.1-.1.3-.2.3-.2v.6c.4.1.9-.2 1-.7l-.5-.1c.5-.4 1.2-.7 1.9-.7 1.1 0 1.8 1.2 1.8 1.8 0 .2-.1.5-.2.7-.2.3-.3.2-.4.1.1.4.5.4.6.2.3.9 1.4-.1 2 1.1-.1 0-.3.1-.5 0-.3-.2-.5 0-.6.2h.1c.3-.1.5.1.5.2-.3-.1-.7 0-.5.5.2-.4.4-.2.5-.2-.2.1-.4.4 0 .6 0-.2.1-.4.2-.4s.4 0 .5-.3c.1.3.4.2.6.2v-.1c-.2 0-.5-.2-.3-.3 0 0 .5.1.6-.3 0 0-.4.2-.5-.2-.1-.3-.1-.7-.4-.8.3-.1.4-.3.2-.6h-.1c0 .6-1.3.1-1.3-.7.9.2 1.8 0 1.8-.9s-.8-1.2-.8-1.7c0-.3.2-.3.3-.3.4 0 .8.4.8.7h.1c.1-.2.1-.4 0-.5 0 0 0-.1.1-.1 0 .1.7 0 .7-.4v-.3c0-.1-.1-.1-.1-.1-.1.1-.1.4-.5.4-.3 0-.7-.2-1.1-.2-.6 0-.8.5-.8.8 0 .8.7.9.7 1.6 0 .5-.7.7-1.2.2-.2-.6-.3-1.1-.6-1.6-1.4.5-1.6-.4-2.4-.4-.6 0-1.4 1.1-2 1.3v-.7h.1v-.5s-.2.3-.2.4c-.1-.2-.2-.5-.2-.5s-.1.4-.1.5q0 .1 0 0l-.3-.4s.1.3.1.5v.1l-.5-.5.2.6q.1.1 0 0c-.1 0-.5-.3-.5-.3s.2.3.3.5q.1 0 0 0c-.3-.1-.5-.2-.5-.2l.4.4v.1h-.5l.5.2.1-.1.4.1c-.1.2-.1.3 0 .4m2 3.8q-.2-.1-.2-.3c0-.2.4-.4.5-.4s.2.1.4.1q.2 0 .3-.1t0-.1c-.3.1-.4-.2-.4-.7 0-.9.5-1 1.6-1.5-.2 0-.5-.3-.2-.6-.2-.2-.5-.3-.7-.3-.8 0-1.4.9-1.5 1.1-.1.1-.4.3-.5.1 0 .4.3.4.4.3 0 .4.2 1.1.2 1.1s-.4.4-.6.4-.2-.4-.5-.4q-.1 0-.2.2.3 0 .3.3c-.3-.2-.6-.2-.6.3.2-.2.4-.1.5 0-.2 0-.5.2-.2.6 0-.1 0-.3.3-.3.2 0 .4.2.6 0 .1.3.4.3.5.2m3.8-9.1c.1-.1.6-.3.8-.4-.2-.1-.7 0-.8-.1l-.1-.7-.6.3c-.2 0-.3-.5-.5-.6q-.1 0-.1.1c.1.1.2.6.1.7-.5 0-.7.2-.7.3-.2.1-.7.4-.7.5l.1.1s0 .2.1.3c.4-.2.8-.2.8.3 0 0-.1.1-.5.1v.2s-.1.1 0 .2c0 0 .4-.2.6-.1.1.2 0 .5-.6.6-.8.1-1.2.3-1.3 1.1.6 0 1 .3 1.4.5.7.3 1.5-.2 1.5-.2-.2-.1-.2-.5 0-.7.2.2.5.3.7.1-.3-.2-.4-.5-.2-.8.2.2.5 0 .6-.2-.3.1-.4-.2-.4-.4s.1-.8-.2-1.2m-3.3.6q0-.1-.1 0c-.1.3.2.5.4.5.3 0 .3-.2.9-.3v-.1h-.6c-.4.1-.6 0-.6-.1m-6.9 11.9c.2-.1.4-.3.4-.5 0-.4-.7-.8-1-.8-.2 0-.4.2-.7.2q-.3 0-.6-.3c.1 0 .6.1.8-.6.2-.8.2-1.4-.1-1.7-.3-.2-1.6-.7-2.3-1q-.1 0 0-.1c.2 0 .4-.1.4-.4 0-.1 0-.3-.2-.4.4-.4 1.1-.7 1.4-.7 1.4 0 2.6 1.9 3.2 1.9.1 0 .2 0 .2-.1q.1-.1.1 0c0 .6-.3.6-.5.6q-.1 0-.3-.1v.2c0 .7-.7 1.4-.7 1.4.3.3 1.1.9 1.3.6.1-.1.6-.9 1.1-.3v.1c-.3 0-.6.2-.5.5.5-.3 1.1-.3 1.1.5q0 .1-.1.1c-.3-.5-.7-.2-.8-.1.3 0 .9.4.4 1.1h-.1c0-.5-.3-.5-.5-.5-.4 0-.8.4-1.1-.1-.1.6-.7.5-.9.5m15.5-.5c-.3.5-.6 0-1.1 0-.2 0-.5.1-.5.6-.5-.7 0-1.1.3-1.1 0-.1-.5-.4-.8.1l-.1-.1c0-.8.7-.9 1.1-.5.1-.3-.1-.5-.5-.5v-.1c.6-.6 1 .2 1.1.3.2.3 1-.3 1.3-.6 0 0-.7-.7-.7-1.4v-.2q-.1.1-.3.1c-.1 0-.4 0-.4-.6q0-.1 0 0c.1.1.2.1.2.1.6 0 1.8-1.9 3.2-1.9.4 0 1.1.3 1.4.7-.2.1-.2.3-.2.4.1.3.2.4.4.4q.1 0 0 .1c-.7.3-2 .7-2.3 1s-.2.9 0 1.6c.2.8.6.7.7.7h.1c-.2.2-.5.3-.6.3-.4 0-.6-.2-.7-.2-.4 0-1 .4-1 .8 0 .2.1.4.3.5-.1 0-.8.1-.9-.5M19 47.4l.4.2.1-.3-.3-.1 1.5-2.1c.1 0 0-.3 0-.4-.1 0-.4.1-.4.1l-1.5 2.1-.2-.3-.2.3.3.3-.2.2c-.3-.2-.6 0-.7.1.1 0 .5-.1.5.2-.4-.2-.6.1-.6.2.1 0 .3-.1.4 0l-.3.5s.3.3.3.2l.5-.6s1.3.7 1.6.9q0-.4.3-.7c-.4-.1-1.2-.4-1.2-.4-.1.1-.2.1-.3.1-.2 0-.4-.2-.4-.3.1 0 .2.1.3 0zm3-1.2c0-.2.2-.2.5-.2-.1.3-.3.3-.5.2" style="fill:#fff"/><path fill-rule="evenodd" d="M59.3 46h-5.2v-.4q.4 0 .6-.3.2-.2.2-.6v-6.8l-.8-.2v-.3q.3-.1.8-.2.3-.1.7-.1h.4q.2 0 .3.1h.3q.2 0 .3.1v.2q-.2.1-.3.2-.2.1-.3.2t-.1.3q-.1.1-.1.3v6.7h1.6q.6-.1.9-.2.4-.2.6-.6l.1-.3h.4zm7-1.9q-.3.6-.7 1.1-.5.5-1 .8-.6.2-1.2.2-.7 0-1.2-.2-.6-.2-1-.6t-.6-1-.2-1.4.2-1.5q.3-.7.7-1.2.5-.4 1.1-.7.5-.3 1.2-.3.6 0 1.2.3.5.2.9.6t.6 1q.3.6.3 1.3 0 .9-.3 1.6m-1.1-2.5q-.2-.5-.4-.8-.3-.3-.6-.5t-.7-.2-.7.2q-.4.2-.6.5-.3.4-.4.9-.2.5-.2 1.2 0 .6.2 1.1.1.5.4.8.2.3.6.5.3.1.7.1.3 0 .6-.1.4-.2.6-.6.3-.3.5-.8.1-.6.1-1.3 0-.6-.1-1m8.4-1.3q-.3 0-.7-.1h-.8q.2.1.3.3.2.2.3.4t.1.4q.1.2.1.4 0 .6-.2 1.1-.3.5-.6.8-.4.4-.9.6t-1.1.2q-.2 0-.4-.1-.2 0-.4-.1-.1.1-.2.1-.1.1-.1.2-.1.1-.1.2-.1.1-.1.2 0 .3.3.4.2.2.6.2h1.9q.9 0 1.4.4.4.4.4 1.1 0 .5-.2 1-.3.4-.7.7-.5.4-1.1.5-.6.2-1.3.2t-1.2-.1-.8-.3-.5-.5q-.1-.3-.1-.7 0-.2.1-.5l.2-.4.4-.4.6-.2q-.4-.1-.6-.4t-.2-.7v-.4q.1-.2.2-.3l.3-.3.4-.2q-.2-.1-.4-.3-.3-.1-.4-.4-.2-.2-.3-.6-.1-.3-.1-.6 0-.6.2-1.1t.6-.9q.4-.3.9-.5t1-.2h.5q.2 0 .4.1t.4.1l.2.2.2-.2q.2 0 .3-.1.2 0 .4-.1h.9zm-1.4 6.4q-.3-.2-.8-.2h-2.2q-.1.1-.3.2l-.2.2q-.1.2-.1.3-.1.2-.1.4t.1.4.4.3q.2.2.5.2.3.1.8.1t.9-.1.7-.3l.4-.4q.1-.2.1-.5 0-.4-.2-.6m-.6-5.7q-.1-.3-.3-.6-.2-.1-.4-.3-.3-.1-.6-.1-.2 0-.5.2-.3.1-.5.4l-.3.6q-.1.3-.1.8 0 .4.1.7.1.4.3.6t.4.3q.3.1.5.1.3 0 .6-.1t.5-.4q.2-.2.3-.6t.1-.8q0-.5-.1-.8m5 5q-.2 0-.4.1h-1.4q-.3 0-.5-.1v-.3q.1 0 .3-.1.1 0 .2-.2.1 0 .2-.2v-4.8l-.9-.4v-.3q.5-.1.9-.2.5-.1.8 0h.4l-.1.7v5.2l.8.2v.3q-.2.1-.3.1m-.3-8.3q0 .1-.1.2-.1.2-.3.2-.1.1-.3.1-.1 0-.3-.1-.1 0-.2-.1t-.2-.3v-.6q.1-.1.2-.3.1-.1.2-.1.2-.1.4-.1h.2q.2.1.3.2t.1.2q.1.1.1.3t-.1.4m7.5 8q-.1.1-.3.2l-.2.2q-.2 0-.3.1-.2-.1-.4-.4l-.2-.4q-.2.1-.4.3l-.4.2-.6.2h-.6q-.4 0-.8-.1-.3-.1-.6-.4-.2-.3-.4-.7-.1-.4-.1-1v-3.5l-.8-.4v-.3q.5-.1.9-.2t.7-.1h.4l-.1.8v3.1q0 .6.1.9.1.4.3.6.1.2.4.3t.6.1h.4q.1 0 .3-.1t.4-.1l.2-.2v-4.4l-.8-.4v-.3q.5-.1.9-.2t.7 0h.4l-.1.7v4.7l.3.3q.1.2.3.4c-.1 0-.2.1-.2.1m5.3-.8q-.2.4-.5.7-.4.3-.8.4-.5.2-1.1.2-.9 0-1.3-.3t-.4-.8v-.3q0-.2.1-.3.5.4.9.6.5.3 1 .3.6 0 .9-.3.3-.2.3-.6v-.3q-.1-.2-.2-.3-.2-.1-.4-.3l-.6-.3-.6-.3q-.6-.2-1-.6-.3-.5-.3-1.1 0-.4.2-.7.2-.4.5-.7.3-.2.7-.4.5-.2 1-.2.4 0 .7.1.3 0 .5.1l.3.3q.1.2.1.4 0 .1-.1.3v.2q-.3-.2-.8-.3-.4-.2-.8-.2-.3 0-.6.1l-.4.2q-.1.1-.2.3-.1.1-.1.3t.1.3q0 .2.1.3l.4.2q.2.2.5.3l.7.3q.4.1.7.3l.4.4q.2.2.2.4.1.3.1.6 0 .4-.2.7M55.2 61.6h-1.1q-.2 0-.4-.1v-.2q.2-.1.3-.3.1-.1.2-.3l1.7-7.3-.8-.2v-.3q.2-.1.4-.1h.3q.2-.1.4-.1h.8l1.2 6.6 2.3-6.6h1q.1 0 .3.1h.3v.4l-.6.1.3 7.6.8.2v.3l-.6.2h-1.2q-.3 0-.6-.1v-.3q.2 0 .3-.2.2-.2.2-.5l-.1-6.1-2.5 7.2h-.4l-1.4-7.2-1.3 6.5.8.2v.3zm8.5-.1q-.2-.2-.2-.5v-.4q0-.2.1-.4v-.5q.1-.3.1-.5l.4-2.8.1-.8-.8-.3v-.2q.3-.1.7-.2.3-.1.7-.1h.3q.1.1.3.1l-.6 4q-.1.2-.1.4v.4q0 .2-.1.4v.3q0 .4.2.5.1.2.4.3v.2q-.2.1-.5.2h-.5q-.3 0-.5-.1m2-8.5q-.1.1-.2.3-.1.1-.2.1-.2.1-.3.1-.3 0-.5-.2-.1-.1-.1-.4v-.4l.2-.2.2-.2q.2-.1.3-.1.3 0 .5.2t.2.5q0 .1-.1.3m5.8 3.4q-.1.3-.1.5t-.1.5v.4l-.3 1.5v.6q-.1.1-.1.3v.2q0 .4.2.5.1.2.5.2v.3q-.3.1-.5.1-.3.1-.6.1-.4 0-.5-.1-.2-.2-.2-.5v-.7q.1-.2.1-.4v-.4l.3-1.6q0-.1.1-.3v-1.4q-.1-.2-.1-.3-.1-.1-.2-.1-.1-.1-.3-.1t-.6.3q-.3.3-.6.7-.3.5-.5 1.1-.2.7-.2 1.4l-.1 2.3h-1.1l.7-5.9-.9-.3V55q.3-.1.7-.1.3-.1.7-.1h.2q.2.1.3.1l-.4 2.1q.2-.5.5-.9t.6-.7q.4-.3.7-.4.3-.2.7-.2.2 0 .4.1l.4.2.2.4q.1.2.1.6zm1.5 5.1q-.1-.2-.1-.5v-.8q0-.3.1-.5v-.5l.5-2.8v-.8l-.8-.3v-.2q.4-.1.7-.2t.7-.1h.3q.2.1.3.1l-.6 4v.4q-.1.2-.1.4v.7q0 .4.1.5.1.2.4.3v.2l-.4.2h-.6q-.3 0-.5-.1m2-8.5q0 .1-.1.3-.1.1-.3.1-.1.1-.3.1t-.4-.2q-.2-.1-.2-.4 0-.2.1-.4.1-.1.1-.2.2-.1.3-.2t.3-.1.4.2.2.5q0 .1-.1.3m4.4 2.9-.2.4q-.3-.4-.7-.5-.4-.2-.8-.2t-.7.2q-.2.2-.2.6v.2q.1.2.2.3t.2.3q.2.2.5.4l.5.5.4.4q.2.2.3.4t.1.3q.1.2.1.5 0 .4-.2.7-.2.4-.6.7-.3.3-.8.4-.4.2-1 .2t-.9-.2-.3-.6v-.3q.1-.1.2-.3.3.3.6.5.3.1.7.1.3 0 .5-.1.2 0 .3-.1l.3-.3q.1-.2.1-.4v-.3q-.1-.2-.2-.3l-.2-.4q-.2-.2-.5-.4l-.5-.4q-.2-.2-.3-.4-.2-.2-.3-.4t-.1-.4q-.1-.1-.1-.4t.2-.6q.2-.4.4-.6.3-.3.7-.4.4-.2.9-.2.7 0 1.1.2t.4.6q0 .1-.1.3m3.8-.3q-.2.2-.9.2h-.4l-.2 1.4q0 .3-.1.6t-.1.6q0 .4-.1.7v.5q0 .3.1.6l.2.4q.2.1.3.2.2.1.5.1.1 0 .3-.1h.2v.2q0 .1-.1.2-.1.2-.3.3t-.4.1q-.2.1-.4.1-.7 0-1.1-.5-.3-.4-.3-1.2v-.8q.1-.4.1-.8.1-.5.1-.9.1-.5.2-.9l.2-.8q-.2 0-.4-.1h-.4v-.2q.3-.4.8-.9.5-.4 1.1-.7h.2L82 55h1q.2 0 .5-.1 0 .5-.3.7m4.4 4.7q.1.1 0 .2 0 .3-.1.5l-.4.4q-.3.1-.7.2-.3.1-.7.1-.5 0-.8-.1-.4-.2-.7-.4l-.4-.8q-.1-.4-.1-1.1 0-1.1.3-2 .2-.8.6-1.4.5-.6 1-.8.5-.3 1-.3.7 0 1.1.3.3.4.3 1.1 0 .6-.3 1.1-.2.5-.7.8t-1.1.5q-.5.2-1.2.2.1.6.1 1 .1.4.3.7.1.2.3.3.3.1.6.1.2 0 .4-.1.2 0 .4-.1l.4-.2.3-.3q.1 0 .1.1m-.8-4.5q-.2-.2-.5-.3-.2 0-.5.2-.2.2-.5.6-.2.3-.3.8-.2.5-.2 1.1.5 0 .9-.1.4-.2.6-.4.3-.2.5-.5.1-.4.1-.8.1-.4-.1-.6m1.8-.7q.4-.1.7-.2t.7-.1q.1 0 .3.1h.3l-.4 2 .7-1.2q.3-.4.5-.6.3-.3.6-.3t.4.2q.1.1.1.3v.4l-.2.4q-.1-.1-.2-.1h-.2q-.3 0-.6.2t-.6.6q-.2.4-.4 1.1t-.2 1.6l-.2 2h-1.1l.7-5.9-.9-.3zm4.5 6.4q-.2-.2-.2-.5v-.8q.1-.3.1-.5 0-.3.1-.5l.4-2.8.1-.8-.8-.3v-.2l.6-.2q.4-.1.7-.1h.4q.1.1.2.1l-.6 4v.4q0 .2-.1.4v.7q0 .4.1.5.2.2.5.3v.2q-.3.1-.5.2h-.6q-.3 0-.4-.1m2-8.5q-.1.1-.2.3-.1.1-.2.1-.2.1-.3.1-.3 0-.5-.2-.2-.1-.2-.4 0-.2.1-.4l.2-.2.2-.2q.1-.1.3-.1.3 0 .4.2.2.2.2.5zm4.5 7.3q.1.1.1.2 0 .3-.2.5l-.4.4q-.3.1-.7.2-.3.1-.7.1-.5 0-.8-.1-.4-.2-.7-.4l-.4-.8q-.1-.4-.1-1.1 0-1.1.3-2 .2-.8.6-1.4.5-.6 1-.8.5-.3 1-.3.7 0 1.1.3.3.4.3 1.1 0 .6-.2 1.1-.3.5-.8.8t-1 .5q-.6.2-1.2.2v1q.1.4.3.7.1.2.3.3.3.1.6.1.2 0 .4-.1.2 0 .4-.1l.4-.2.3-.3q.1 0 .1.1m-.8-4.5q-.2-.2-.5-.3-.2 0-.5.2-.2.2-.4.6-.3.3-.4.8-.2.5-.2 1.1.5 0 .9-.1.4-.2.7-.4.2-.2.4-.5.2-.4.2-.8t-.2-.6m5.8 4.7q.4-.4.7-1t.5-1.2q.3-.6.4-1.2.2-.6.1-1.1.1-.3-.1-.5-.1-.1-.4-.3V55q.2-.1.4-.1.2-.1.5-.1t.5.2.2.6-.1.8q-.1.5-.3 1-.1.6-.4 1.1-.2.5-.6 1-.2.5-.6 1-.3.4-.6.7-.2.2-.4.3l-.4.2h-.2l-.6-6.1-.6-.3V55q.3-.1.6-.1.3-.1.5-.1.3 0 .6.1zm7.7-2.4q-.1.3-.1.7t-.1.7v1.1q.1.2.1.3l.2.2h.4v.3l-.6.2h-1q-.1 0-.2-.1l.3-2q-.2.5-.5.9-.2.4-.5.7t-.6.4q-.3.2-.6.2-.2 0-.4-.2-.2-.1-.4-.4t-.3-.8q-.1-.4-.1-1 0-1.1.3-1.9.3-.9.8-1.4.4-.6 1.1-.9.6-.3 1.3-.3h.4q.2 0 .4.1h.4c.1 0 .2.1.3.1l-.4 2.4c-.1.2-.2.4-.2.7m-.9-2.5h-.4q-.4 0-.8.2t-.7.7q-.2.4-.4 1.1-.2.6-.2 1.5 0 .4.1.8.1.3.1.5l.3.3q.1.1.2.1.2 0 .5-.2t.5-.5q.2-.4.4-.9t.3-1.2l.4-2.3q-.1-.1-.3-.1m7.4.8v.5q-.1.2-.1.5 0 .2-.1.4l-.2 1.5v.3q-.1.1-.1.3v.5q0 .4.1.5.2.2.5.2v.3q-.2.1-.5.1-.2.1-.6.1-.3 0-.5-.1-.1-.2-.1-.5v-.7q0-.2.1-.4v-.4l.3-1.6v-.3q0-.2.1-.4v-1q-.1-.2-.2-.3t-.2-.1q-.1-.1-.2-.1-.3 0-.6.3-.4.3-.6.7-.3.5-.5 1.1-.2.7-.2 1.4l-.1 2.3h-1.2l.7-5.9-.8-.3V55q.3-.1.6-.1.4-.1.7-.1h.3q.2.1.3.1l-.4 2.1q.2-.5.5-.9t.6-.7.6-.5q.4-.1.7-.1t.5.1q.2 0 .3.2.2.2.2.4.1.2.1.5.1.3 0 .4m8.9-1q-.1.4-.4.7t-.7.5q-.4.3-.8.4.4 0 .8.1l.6.4q.3.2.4.6.2.3.2.7 0 .6-.3 1.2-.2.5-.7.9-.5.3-1.2.5t-1.5.2q-.4.1-.7 0h-.9q-.3 0-.5-.1v-.2c.1-.1.3-.2.4-.3q.1-.2.2-.5l.8-7.1-.7-.2v-.3q.6-.1 1.3-.1.6-.1 1.4-.1 1.2 0 1.9.5.6.5.6 1.4 0 .4-.2.8m-1.3 2.9q-.1-.3-.4-.5t-.8-.3-1.2-.1l-.4 3.4q.2.1.4.1h.4q.5 0 .9-.2.4-.1.7-.3l.4-.6q.2-.4.2-.8t-.2-.7m.2-4.2q-.1-.2-.4-.4-.2-.2-.4-.2-.3-.1-.7-.1h-.6l-.4 3.3q.6 0 1.1-.1l.8-.4q.3-.3.5-.7t.2-.8q0-.3-.1-.6m2.6 7.4q-.1-.2-.1-.5v-.8q0-.3.1-.5v-.5l.5-2.8.1-.8-.9-.3v-.2q.4-.1.7-.2t.7-.1h.3q.2.1.3.1l-.6 4v.4q-.1.2-.1.4v.7q0 .4.1.5.2.2.4.3v.2l-.4.2h-.6q-.3 0-.5-.1m2.1-8.5q-.1.1-.2.3-.1.1-.3.1-.1.1-.3.1t-.4-.2q-.2-.1-.2-.4 0-.2.1-.4l.2-.2.2-.2q.1-.1.3-.1.3 0 .4.2.2.2.2.5zm5.7 3.4v.5q-.1.2-.1.5 0 .2-.1.4l-.2 1.5q0 .1-.1.3v.8q0 .4.1.5.2.2.5.2v.3q-.2.1-.5.1-.3.1-.6.1t-.5-.1q-.2-.2-.2-.5v-.3q.1-.2.1-.4v-.4q.1-.2.1-.4l.3-1.6v-.7q.1-.1.1-.3v-.3q0-.3-.1-.4 0-.2-.1-.3t-.2-.1q-.1-.1-.2-.1-.3 0-.6.3-.4.3-.6.7-.3.5-.5 1.1-.2.7-.2 1.4l-.1 2.3h-1.2l.7-5.9-.8-.3V55q.3-.1.6-.1.3-.1.7-.1h.3q.2.1.3.1l-.4 2.1q.2-.5.5-.9t.6-.7.6-.5q.4-.1.7-.1t.5.1q.2 0 .3.2.2.2.2.4.1.2.1.5zm6.2 0v.5q0 .2-.1.5v.4l-.3 1.5v.3q0 .1-.1.3v.5q0 .4.2.5.1.2.4.2v.3q-.2.1-.5.1-.2.1-.6.1-.3 0-.5-.1-.1-.2-.1-.5v-.7q0-.2.1-.4v-.4l.3-1.6v-.3q0-.2.1-.4v-1q-.1-.2-.2-.3t-.2-.1q-.1-.1-.2-.1-.3 0-.6.3t-.6.7q-.3.5-.5 1.1-.2.7-.2 1.4l-.1 2.3h-1.2l.7-5.9-.8-.3V55q.3-.1.6-.1.4-.1.7-.1h.3q.2.1.3.1l-.4 2.1q.2-.5.5-.9t.6-.7.7-.5q.3-.1.7-.1.2 0 .4.1.2 0 .3.2.2.2.3.4v.5q.1.3 0 .4m5.1 3.9v.2q0 .3-.1.5l-.4.4q-.3.1-.7.2-.3.1-.8.1-.4 0-.8-.1l-.6-.4-.4-.8q-.1-.4-.1-1.1 0-1.1.2-2 .3-.8.7-1.4t.9-.8q.6-.3 1.1-.3.7 0 1.1.3.3.4.3 1.1 0 .6-.3 1.1-.2.5-.7.8t-1.1.5q-.5.2-1.2.2.1.6.1 1 .1.4.3.7.1.2.3.3.3.1.6.1.2 0 .4-.1.2 0 .4-.1l.4-.2.3-.3zm-.8-4.5q-.2-.2-.5-.3-.2 0-.5.2t-.5.6q-.2.3-.3.8-.2.5-.2 1.1.5 0 .9-.1.4-.2.6-.4.3-.2.5-.5.1-.4.1-.8t-.1-.6m6.9.6q0 .3-.1.5v.5q-.1.2-.1.4l-.2 1.5q0 .1-.1.3v.6q-.1.1-.1.2 0 .4.2.5.2.2.5.2v.3q-.2.1-.5.1-.3.1-.6.1t-.5-.1q-.2-.2-.2-.5v-.3q0-.2.1-.4v-.4q0-.2.1-.4l.2-1.6q0-.1.1-.3v-.7q.1-.2.1-.3 0-.3-.1-.4 0-.2-.1-.3t-.2-.1q-.1-.1-.2-.1-.3 0-.7.3-.3.3-.6.7-.3.5-.4 1.1-.2.7-.3 1.4v2.3h-1.2l.7-5.9-.9-.3V55q.4-.1.7-.1.3-.1.7-.1h.3q.1.1.3.1l-.5 2.1q.3-.5.5-.9.3-.4.6-.7.4-.3.7-.5.3-.1.7-.1.2 0 .4.1.2 0 .4.2l.2.4q.1.2.1.5zm1.6 5.1q-.2-.2-.2-.5v-.8q.1-.3.1-.5v-.5l1-6.8-.9-.3v-.2q.4-.1.7-.2h1.3l-1 7.2v.4q-.1.2-.1.4v.8q0 .3.2.5.1.1.4.2v.3q-.4.2-1 .2-.4-.1-.5-.2m7-3.4q-.1.3-.1.7t-.1.7v1.1q.1.2.1.3l.2.2h.4v.3l-.6.2h-1q-.1 0-.2-.1l.3-2q-.2.5-.5.9-.2.4-.5.7t-.6.4q-.3.2-.6.2-.2 0-.4-.2-.2-.1-.4-.4t-.3-.8q-.1-.4-.1-1 0-1.1.3-1.9.3-.9.7-1.4.5-.6 1.1-.9.7-.3 1.4-.3h.4q.1 0 .4.1h.4c.1.1.2.1.3.1l-.4 2.4q-.1.3-.2.7m-.9-2.5h-.4q-.4 0-.8.2t-.7.7q-.2.4-.4 1.1-.2.6-.2 1.5 0 .4.1.8.1.3.1.5.1.2.3.3.1.1.2.1.2 0 .5-.2l.5-.5q.2-.4.4-.9t.3-1.2l.4-2.3q-.1-.1-.3-.1m7.4.8v.5q-.1.2-.1.5 0 .2-.1.4l-.2 1.5v.3q-.1.1-.1.3v.5q0 .4.1.5.2.2.5.2v.3q-.2.1-.5.1-.3.1-.6.1t-.5-.1q-.2-.2-.2-.5.1-.1.1-.3v-.8q.1-.2.1-.4l.3-1.6v-.7q.1-.1.1-.3v-.3q0-.3-.1-.4 0-.2-.1-.3t-.2-.1q-.1-.1-.2-.1-.3 0-.6.3-.4.3-.6.7-.3.5-.5 1.1-.2.7-.2 1.4l-.1 2.3h-1.2l.7-5.9-.8-.3V55q.3-.1.6-.1.3-.1.7-.1h.3q.1.1.3.1l-.5 2.1h.1q.2-.5.5-.9t.6-.7.6-.5q.4-.1.7-.1t.5.1q.2 0 .3.2.2.2.2.4.1.2.1.5.1.3 0 .4m5.6 1.4v.4q0 .3-.1.5v.6q-.1.2-.1.4v.9q.1.2.2.3 0 .1.2.2h.3v.3q-.4.1-.6.2h-1q-.1 0-.2-.1l.3-2-.4.8q-.3.5-.6.7-.3.4-.6.5-.3.2-.6.2-.2 0-.4-.2-.2-.1-.4-.4t-.3-.8q-.1-.4-.1-1 0-1.1.3-1.9t.7-1.4q.5-.6 1.1-.9t1.3-.3h.5l.4-2.5-.9-.2v-.3q.3-.1.7-.1.3-.1.8-.1h.3q.2.1.3.1l-1 5.7q0 .2-.1.4m-.9-2.2h-.3q-.5 0-.9.2-.3.2-.6.6-.3.5-.5 1.1-.2.7-.2 1.6 0 .4.1.8.1.3.1.5l.3.3s.1.1.2.1q.2 0 .5-.2l.5-.5q.2-.4.4-.9t.3-1.2l.4-2.3q-.1-.1-.3-.1m6 .3q0 .2-.1.4-.4-.4-.8-.5-.4-.2-.7-.2-.5 0-.7.2-.3.2-.3.6 0 .1.1.2 0 .2.1.3l.3.3q.1.2.4.4l.5.5.4.4q.2.2.3.4t.1.3q.1.2.1.5 0 .4-.2.7-.2.4-.5.7-.4.3-.9.4-.4.2-1 .2t-.9-.2-.3-.6q0-.2.1-.3 0-.1.1-.3.3.3.6.5.4.1.7.1t.5-.1q.2 0 .4-.1.1-.2.2-.3.1-.2.1-.4v-.3q-.1-.2-.2-.3l-.2-.4-.4-.4-.5-.4-.4-.4q-.2-.2-.2-.4l-.2-.4v-.4q0-.3.1-.6.2-.4.5-.6.3-.3.6-.4.4-.2.9-.2.8 0 1.1.2.4.2.4.6 0 .1-.1.3m4.6 4.4v.2q0 .3-.1.5-.2.2-.5.4-.2.1-.6.2t-.8.1-.8-.1l-.6-.4-.4-.8q-.1-.4-.1-1.1 0-1.1.2-2 .3-.8.7-1.4t.9-.8q.5-.3 1-.3.8 0 1.1.3.4.4.4 1.1 0 .6-.3 1.1t-.7.8q-.5.3-1.1.5t-1.2.2q0 .6.1 1t.2.7q.2.2.4.3t.6.1q.1 0 .4-.1.2 0 .4-.1l.4-.2q.1-.2.2-.3.1 0 .2.1m-.9-4.5q-.1-.2-.4-.3-.2 0-.5.2t-.5.6q-.2.3-.4.8-.1.5-.1 1.1.5 0 .8-.1.4-.2.7-.4t.5-.5q.1-.4.1-.8t-.2-.6m7.4 5q.5 0 .8-.2t.5-.7l.1-.3h.4l-.3 1.9h-5.3v-.3l4.6-7.7h-2q-.3 0-.4.1-.2 0-.4.1-.1.1-.2.3-.2.2-.3.4l-.1.2h-.4l.2-1.8h5v.2l-4.5 7.8zm7-2.8q0 .4-.1.8 0 .3-.1.7v1q.1.3.2.4 0 .1.2.1.1.1.3.1v.3l-.6.2h-.9q-.2 0-.3-.1l.3-2q-.2.5-.5.9-.2.4-.5.7t-.6.4q-.2.2-.5.2t-.5-.2q-.2-.1-.4-.5-.2-.3-.3-.7-.1-.5-.1-1.1 0-1 .3-1.9.3-.8.8-1.4.5-.5 1.1-.8t1.3-.3h.8q.2.1.4.1c.1 0 .2.1.3.1l-.4 2.4zm-.9-2.4h-.4q-.4 0-.8.2t-.6.7q-.3.4-.5 1-.2.7-.2 1.6 0 .4.1.7.1.4.2.6t.2.3.2.1q.3 0 .5-.2.3-.2.5-.5.2-.4.4-.9t.3-1.3l.4-2.2q-.1-.1-.3-.1m2.6-3.8q.4-.1.7-.1.3-.1.7-.1h.4q.1.1.3.1l-.8 6 .7-.6q.3-.1.5-.4l.4-.6q.3-.4.4-.7.2-.4.2-.7.6 0 .8.1.2.2.2.4t-.2.4q-.1.3-.4.6-.2.3-.6.6-.3.4-.7.6l-.6.4 1.7 2.7.4.4q.2.2.5.3v.2q-.2.2-.4.2h-.7q-.2 0-.3-.1-.2-.1-.3-.3t-.3-.4l-1.4-2.6-.2 3.3h-1.2l.5-3.6.6-5.6-.9-.2zm8.8 8.4q.1.1.1.2 0 .3-.2.5-.1.2-.4.4t-.6.3q-.4.1-.8.1t-.8-.2q-.4-.1-.6-.4-.3-.3-.4-.8-.2-.4-.2-1 0-1.2.3-2.1.3-.8.7-1.4.4-.5.9-.8t1-.3q.7 0 1.1.4.4.3.4 1 0 .6-.3 1.1t-.7.8q-.5.4-1.1.5-.6.2-1.2.2 0 .6.1 1.1 0 .3.2.6.2.2.4.3t.5.1q.2 0 .4-.1.2 0 .5-.1.2-.1.3-.2.2-.1.3-.3zm-.8-4.5q-.2-.2-.5-.2-.2 0-.5.2-.2.2-.4.5-.3.3-.4.8t-.1 1.1q.4 0 .8-.1t.7-.4q.3-.2.4-.5.2-.3.2-.7 0-.5-.2-.7m6.9.7v.4q0 .2-.1.5v.4l-.3 1.5v.3q0 .1-.1.3v.5q0 .4.2.5.1.2.4.3v.2q-.2.1-.5.2h-.6q-.3.1-.5-.1-.1-.2-.1-.5v-.7q0-.2.1-.4v-.3l.3-1.6v-.4q0-.1.1-.3v-1.1q-.1-.2-.2-.3-.1 0-.2-.1h-.2q-.3 0-.6.2-.3.3-.6.8-.3.4-.5 1-.2.7-.2 1.4l-.1 2.3H210l.7-5.9-.8-.3V55l.6-.2q.4-.1.7-.1.2 0 .3.1h.3l-.4 2.1q.2-.5.5-.9t.6-.7.7-.4q.3-.2.6-.2t.5.1.3.2q.2.2.2.4.1.2.1.6.1.2 0 .4m7.3 3.8v.2q0 .3-.1.5-.2.2-.5.4-.2.2-.6.3t-.8.1-.8-.2q-.3-.1-.6-.4-.2-.3-.4-.8-.1-.4-.1-1 0-1.2.2-2.1.3-.8.7-1.4.4-.5.9-.8t1.1-.3q.7 0 1 .4.4.3.4 1 0 .6-.3 1.1-.2.5-.7.8-.5.4-1.1.5-.5.2-1.2.2 0 .6.1 1.1l.2.6q.2.2.4.3.3.1.6.1.1 0 .4-.1.2 0 .4-.1l.4-.2.3-.3q0 .1.1.1m-.8-4.5q-.2-.2-.5-.2-.2 0-.5.2t-.5.5-.4.8q-.1.5-.1 1.1.5 0 .9-.1.3-.1.6-.4.3-.2.5-.5.1-.3.1-.7 0-.5-.1-.7m6.9.7q0 .2-.1.4v.5q-.1.2-.1.4l-.3 1.5v.6q0 .2-.1.3v.2q0 .4.2.5.2.2.5.3v.2q-.3.1-.5.2h-.6q-.3.1-.5-.1t-.2-.5v-.3q0-.2.1-.4v-.4q0-.2.1-.3l.2-1.6q0-.2.1-.4v-.7q.1-.2 0-.3.1-.2 0-.4 0-.2-.1-.3-.1 0-.2-.1h-.3q-.2 0-.6.2-.3.3-.6.8-.3.4-.5 1-.2.7-.2 1.4l-.1 2.3h-1.1l.7-5.9-.9-.3V55q.4-.1.7-.2t.7-.1q.1 0 .3.1h.2l-.4 2.1q.2-.5.5-.9t.6-.7q.4-.3.7-.4.3-.2.7-.2.2 0 .4.1l.4.2.2.4q.1.2.1.6zM54.6 68.6v-.3q.3-.1.6-.1.3-.1.6-.1t.6.1q.3 0 .5.1v.2q-.2.1-.3.2-.2.2-.2.4l-.9 7.3.8.2v.3q-.3.1-.6.1-.3.1-.6.1-.4 0-.6-.1-.3 0-.5-.1v-.2q.2-.1.3-.2.2-.2.2-.4l.8-7.2zm5.6 8.3q-.2.1-.3.1H59q-.2-.1-.4-.3t-.4-.6q-.2-.3-.5-.9l-1.5-2.8 1.3-1.1q.8-.7 1.1-1.3.4-.6.4-1 0-.2-.1-.4-.1-.1-.4-.2v-.2q.3-.1.5-.1.2-.1.5-.1t.5.2q.1.1.1.4 0 .6-.4 1.4-.4.7-1.4 1.5l-1 .8 1.4 2.4.4.8.5.5q.2.2.4.3l.4.2v.2zm5.3-2.5q-.3.9-.7 1.5t-1 .9q-.5.3-1 .3-.4 0-.8-.2-.3-.1-.6-.4t-.4-.8q-.2-.4-.2-1.1 0-1 .3-1.9c.2-.5.4-1 .7-1.4q.4-.5.9-.8.6-.3 1.1-.3t.8.1q.4.1.6.4.3.3.4.7.2.5.1 1.1.1 1-.2 1.9m-1-2.5q0-.3-.2-.5-.1-.2-.3-.4-.2-.1-.4-.1-.3 0-.6.3c-.2.1-.4.3-.5.6q-.3.4-.4 1-.2.6-.2 1.3 0 .6.1 1t.3.7q.1.3.3.4t.5.1q.2 0 .5-.2t.5-.7q.2-.4.4-1.1.1-.7.1-1.6 0-.4-.1-.8m7.2-.1q0 .2-.1.5v.4q-.1.3-.1.5l-.2 1.5q0 .1-.1.2v.6q-.1.2-.1.3.1.4.2.5.2.2.5.2v.2q-.2.2-.5.2-.3.1-.6.1t-.5-.2q-.2-.1-.2-.4v-.3q0-.2.1-.4v-.4q0-.2.1-.4l.2-1.6q0-.1.1-.3v-.7q.1-.2.1-.4t-.1-.3q0-.2-.1-.3t-.2-.1q-.1-.1-.2-.1-.3 0-.7.3-.3.2-.6.7t-.4 1.1q-.2.7-.3 1.4v2.3h-1.2l.7-5.9-.9-.3v-.2q.4-.2.7-.2.3-.1.7-.1.2 0 .3.1h.3l-.5 2.1q.3-.5.6-.9.2-.4.6-.7.3-.3.6-.4.3-.2.7-.2.2 0 .4.1l.4.2.2.4q.1.2.1.6zm1.5 5.1q-.1-.2-.1-.5v-.9q.1-.2.1-.5 0-.2.1-.4l.4-2.8.1-.8-.8-.3v-.3q.3-.1.6-.1.4-.1.7-.1h.4q.1 0 .2.1l-.6 4v.4q0 .2-.1.4v.7q0 .4.1.5.2.2.5.3v.2q-.3.1-.5.2h-.6q-.3 0-.5-.1m2.1-8.5-.2.2q-.1.2-.2.2-.2.1-.3.1-.3 0-.5-.2t-.2-.5q0-.1.1-.3t.2-.3l.2-.2h.3q.3 0 .4.2.2.1.2.4zm5.7 3.4v.5q-.1.2-.1.4 0 .3-.1.5l-.2 1.5v.2q-.1.2-.1.3v.6q0 .4.1.5.2.2.5.2v.2q-.2.2-.5.2-.2.1-.6.1-.3 0-.5-.2-.1-.1-.1-.4v-.7q0-.2.1-.4v-.4l.3-1.6V73q0-.2.1-.4v-1q-.1-.2-.2-.3t-.2-.1q-.1-.1-.2-.1-.3 0-.6.3-.4.2-.6.7-.3.5-.5 1.1-.2.7-.2 1.4l-.1 2.3h-1.2l.7-5.9-.8-.3v-.2q.3-.2.6-.2.4-.1.7-.1.2 0 .3.1h.3l-.4 2.1q.2-.5.5-.9t.6-.7.7-.4q.3-.2.6-.2t.5.1.3.2q.2.2.2.4.1.2.1.6.1.1 0 .3m1.5-4.6q.3-.1.7-.1.3-.1.7-.1h.3q.2.1.3.1l-.8 6 .8-.6q.2-.1.5-.4l.4-.6q.2-.4.4-.7.1-.4.2-.7.5 0 .7.1.2.2.2.4t-.1.4l-.4.6-.6.6q-.4.4-.7.6l-.6.4 1.7 2.7.4.4q.2.2.5.3v.2q-.2.2-.4.2h-.8q-.1 0-.3-.1-.1-.1-.2-.3-.2-.2-.3-.4l-1.4-2.6-.3 3.3h-1.2l.6-3.6.6-5.5-.9-.3zm4.9 3.2q.4-.1.7-.2h1q.1 0 .3.1l-.5 2h.1l.7-1.2q.3-.5.5-.7.3-.2.6-.2t.4.1q.1.2.1.4t-.1.4q0 .2-.1.3h-.4q-.3 0-.6.2-.4.2-.6.6-.3.4-.4 1.1-.2.6-.3 1.6l-.1 2h-1.1l.7-6-.9-.2zm4.5 6.4q-.2-.2-.2-.5v-.8q.1-.3.1-.5 0-.3.1-.5l.4-2.8.1-.8-.8-.3v-.2q.3-.2.6-.2.4-.1.7-.1h.4q.1.1.2.1l-.6 4.1v.3q0 .2-.1.4v.7q0 .4.1.5.2.2.5.3v.2q-.3.1-.5.2h-.6q-.3 0-.4-.1m2-8.5q-.1.1-.2.3-.1.1-.2.1-.2.1-.3.1-.3 0-.5-.2-.2-.1-.2-.5 0-.1.1-.3l.2-.2q.1-.2.2-.2.1-.1.3-.1.3 0 .4.2.2.2.2.5zm1.4 10.5q-.1.5-.4.8c-.1.2-.3.4-.5.5q-.3.1-.7.1-.3 0-.5-.1-.3-.1-.4-.3v-.2q.3 0 .6-.1t.5-.4q.3-.2.4-.5.2-.4.3-.9l.7-6 .1-.8-.9-.3v-.2q.4-.2.7-.2.3-.1.7-.1.3 0 .6.1l-.9 7.4q-.1.8-.3 1.2m1.5-10.5q0 .1-.2.3-.1.1-.2.1-.1.1-.3.1-.3 0-.4-.2-.2-.1-.2-.5v-.3l.2-.2q.1-.2.3-.2.1-.1.2-.1h.3l.2.2q.1.1.1.2.1.1.1.3 0 .1-.1.3m1-1.1q.3-.2.6-.2.4-.1.8-.1h.3q.2.1.3.1l-.8 6 .8-.6q.2-.1.4-.4l.4-.6q.3-.3.4-.7.2-.3.3-.7.5 0 .7.2.2.1.2.3t-.2.5q-.1.3-.4.5-.2.4-.6.7-.3.3-.7.5l-.6.4 1.7 2.7q.2.3.4.4.2.2.5.3v.3q-.2.1-.3.1-.2.1-.5.1-.2 0-.3-.1-.2 0-.3-.1l-.3-.3q-.1-.2-.3-.4l-1.4-2.6-.2 3.3h-1.2l.6-3.6.5-5.5-.8-.3zm8.8 4.1q-.1.2-.2.3-.3-.3-.7-.5t-.8-.2q-.5 0-.7.3-.2.2-.2.5v.3q.1.1.1.3l.3.3q.2.1.4.4l.6.4q.2.3.4.5.1.1.2.3.2.2.2.4v.4q0 .4-.2.8-.1.4-.5.7-.3.2-.8.4-.4.2-1 .2t-1-.2q-.2-.2-.3-.6.1-.2.1-.3.1-.2.2-.3.3.3.6.4.3.2.7.2.3 0 .4-.1.3 0 .4-.2.2-.1.3-.3.1-.1.1-.4 0-.1-.1-.3 0-.1-.1-.3l-.3-.3q-.1-.2-.4-.4l-.5-.5-.4-.4q-.1-.1-.2-.3t-.1-.4q-.1-.2-.1-.4 0-.4.2-.7.1-.3.4-.6.3-.2.7-.4.4-.1.9-.1.7 0 1.1.2t.4.5q0 .2-.1.4m.7-.9q.3-.1.6-.1.3-.1.7-.1h.3q.2.1.3.1l-.4 2 .7-1.2q.3-.5.6-.7t.6-.2q.2 0 .3.2.1.1.1.3v.4q-.1.2-.1.4-.1-.1-.3-.1h-.2q-.3 0-.6.2t-.6.6q-.2.4-.4 1.1t-.2 1.6l-.1 2h-1.2l.7-5.9-.8-.3zm7.8 5.2v.2q0 .3-.1.5-.2.2-.5.4-.2.1-.6.2-.4.2-.8.1-.4.1-.8-.1-.3-.1-.6-.4-.2-.3-.4-.8-.1-.4-.1-1.1 0-1.1.2-2 .3-.8.7-1.4.4-.5.9-.8t1.1-.3q.7 0 1 .3.4.4.4 1.1 0 .6-.3 1.1t-.7.8q-.5.4-1.1.5-.6.2-1.2.2 0 .6.1 1t.2.7q.2.2.4.3t.6.1q.1 0 .4-.1.2 0 .4-.1l.4-.2q.1-.2.2-.3.1 0 .2.1m-.9-4.5q-.1-.2-.4-.2t-.5.2q-.3.1-.5.5-.2.3-.4.8-.1.5-.1 1.1.5 0 .9-.1.3-.1.6-.4.3-.2.5-.5.1-.3.1-.7 0-.5-.2-.7m2.3 5.7q-.2-.2-.2-.5v-.4q.1-.2.1-.4V75q.1-.3.1-.5l.9-6.8-.8-.2v-.3l.6-.2h1.1q.2 0 .3.1l-1.1 7.2v1.1q-.1.2-.1.4.1.3.2.5.2.2.5.3v.2q-.5.2-1.1.2-.3 0-.5-.2m7-3.4q0 .3-.1.7v.7q0 .3-.1.5 0 .4.1.6 0 .2.1.3l.2.2q.1 0 .3.1v.2l-.6.2h-.9q-.2 0-.3-.1l.3-2q-.2.5-.4.9-.3.4-.6.7-.2.3-.5.5-.3.1-.6.1-.2 0-.5-.1-.2-.2-.4-.5-.1-.3-.2-.8-.1-.4-.1-1 0-1.1.2-1.9.3-.8.8-1.4t1.1-.9 1.4-.3h.3q.2.1.4.1t.4.1h.4l-.5 2.4q-.1.3-.2.7m-.9-2.5h-.4q-.4 0-.8.2-.3.2-.6.7-.3.4-.5 1.1-.1.7-.1 1.5v.8q.1.3.2.5t.2.3q.2.1.3.1.2 0 .4-.2.3-.2.5-.5.3-.3.5-.9.2-.5.3-1.2l.4-2.3q-.2 0-.4-.1m5.5 0q-.2.2-.9.2h-.4l-.2 1.4q0 .3-.1.6 0 .3-.1.6 0 .4-.1.7v.5q0 .3.1.6l.2.4q.2.1.3.2.2.1.5.1h.3q.1-.1.2-.1v.2q0 .2-.1.3t-.3.2-.4.1q-.2.1-.4.1-.7 0-1.1-.5-.3-.4-.3-1.2v-.7q.1-.4.1-.9.1-.4.2-.9 0-.4.1-.8l.2-.9h-.4q-.1 0-.4-.1v-.1q.4-.5.9-.9.4-.5 1-.8h.2l-.2 1.1h.9q.2 0 .5-.1 0 .5-.3.7m1 5.9q-.2-.2-.2-.5V76q.1-.3.1-.5 0-.3.1-.5v-.5l.5-2.8v-.8l-.8-.3v-.2q.3-.1.7-.2h1.3l-.6 4.1q0 .1-.1.3v1.1q0 .4.1.6.1.1.4.2v.3q-.2.1-.5.1-.2.1-.5.1t-.5-.2m2-8.5q0 .2-.1.3t-.3.2h-.3q-.3 0-.4-.2-.2-.1-.2-.4v-.4l.2-.2.2-.2q.2-.1.3-.1.3 0 .5.2t.2.5q0 .2-.1.3m4.5 7.3q.1.1.1.2 0 .3-.2.5-.1.2-.4.4-.2.1-.6.2-.4.2-.8.1-.4.1-.8-.1-.3-.1-.6-.4-.2-.3-.4-.8-.1-.4-.1-1.1 0-1.1.2-2 .3-.8.7-1.4.4-.5.9-.8t1-.3q.7 0 1.1.3.4.4.4 1.1 0 .6-.3 1.1t-.7.8q-.5.4-1.1.5-.6.2-1.2.2 0 .6.1 1t.2.7q.2.2.4.3t.5.1q.2 0 .4-.1.3 0 .5-.1l.4-.2q.1-.2.2-.3.1 0 .1.1m-.8-4.5q-.2-.2-.5-.2-.2 0-.4.2-.3.1-.5.5-.2.3-.4.8-.1.5-.1 1.1.4 0 .8-.1t.7-.4q.3-.2.4-.5.2-.3.2-.7 0-.5-.2-.7m5.6.1q-.1.3-.2.4-.3-.3-.7-.5t-.8-.2q-.5 0-.7.2t-.2.6v.3q0 .1.1.2.1.2.3.3l.4.4.5.5q.3.2.5.4l.2.4.2.4v.4q0 .4-.2.8-.2.3-.5.6-.4.3-.8.5-.5.1-1 .1-.7 0-1-.2t-.3-.6q0-.1.1-.3 0-.1.1-.2.3.3.7.4.3.1.7.1h.4l.4-.2q.2-.1.2-.3.1-.2.1-.4.1-.2 0-.3 0-.2-.1-.3-.1-.2-.3-.4-.2-.1-.4-.4l-.5-.4-.4-.4-.2-.4q-.1-.2-.2-.3v-.5q0-.3.2-.6.1-.3.4-.6.3-.2.7-.4t.8-.2q.8 0 1.1.2.4.3.4.6z" style="fill:#000"/></svg>