<svg version="1.2"
	xmlns="http://www.w3.org/2000/svg" viewBox="0 0 229 81">
	<title>Logius</title>
	<style>
		.s0 { fill: #154273 } 
		.s1 { fill: #ffffff } 
		.s2 { fill: #000000 } 
	</style>
	<path id="Blauw" class="s0" d="m0 0h44v77h-44z"/>
	<path id="Rijkswapen" fill-rule="evenodd" class="s1" d="m17.7 45.9h0.7v-1.9c1-0.2 2.2-0.4 3.6-0.4 2.7 0 5 0.7 5.6 0.9 0-0.3-0.1-0.6-0.4-0.6q0-0.1 0-0.1c0.6-0.4 0.9 0.3 0.9 0.4 0.2-0.1 0.5 0 0.5 0.3 0 0.8 1.9 1.2 2.3 1.3-0.8 0.3-1.1 1.3-1.1 1.3-0.5-0.6-1.2-1.1-1.3-1.1-0.2 0-0.2 0.2-0.2 0.3q-0.1 0.1-0.1 0c-0.3-0.4-0.2-0.5-0.1-0.6 0-0.1 0-0.5-0.5-0.5v5.5h0.3c0 0 0.8-0.6 1.8-1.3 0.9-0.6 1.4-0.2 2.4 0.3 1.4 0.8 2.7 0.1 2.7 0.1 1.2 0.8 1.6 3.3 1.6 3.3 0.2 0.1 0.6 0.2 1 0.2 0.9 0 1-0.6 1-0.9 0-1.4-1.7-2-1.7-3.3 0-0.4 0.2-1.7 1.8-1.7 0.2 0 1.5 0 1.5 0 0.6 0 0.8-0.4 0.9-0.6 0-0.1 0.1 0 0 0 0 0.1 0.1 0.3 0.1 0.6 0 0.6-0.3 0.9-0.9 0.9-0.3 0-0.6-0.1-0.6-0.1-0.1 0-0.1 0-0.1 0 0.3 0.3 0.3 0.9 0.2 1.1q0 0-0.1 0c-0.1-0.6-0.7-1.2-1.4-1.2-0.9 0-0.9 0.8-0.9 1 0 1.1 1.9 1.9 1.9 3.4 0 1.5-1.6 1.9-2.5 1.6 0 1.6 1.8 2.1 1.8 1q0.1-0.1 0.1 0c0.2 0.6 0.2 1-0.5 1.2-0.1 0-0.1 0 0 0.1 0.7 0.4 0.3 2.1 0.3 2.6-0.1 0.7 0.6 0.6 0.7 0.6q0.1 0 0 0.1c-0.5 0.6-1.1 0-1.1 0-0.5 0.2-0.2 0.6 0.1 0.8q0.1 0.1 0 0.1c-0.1 0-0.8 0-0.9-0.6-0.4 0.4-0.9 0.3-1 0.3-0.1-0.1-0.8-0.4-0.9 0.4 0 0.1 0 0 0 0-0.5-0.7 0-1.1 0.3-1.1 0 0-0.4-0.4-0.8 0.1 0 0 0 0 0 0-0.1-0.9 0.6-1 1-0.6 0.1-0.1 0.2-0.6-0.5-0.5 0 0 0-0.1 0-0.1 0.5-0.5 1 0 1.1 0.1 0.2 0.2 0.8 0.1 0.8 0.1-0.2-2.9-2.7-1.8-3.1-3.2 0-0.1 0-0.1 0-0.1-0.1 0.4-1 0.4-1.1-0.2q0-0.1 0-0.1c0.7 0.8 2.4-1.5 0.1-3.4-1.9-1.6-3.6-0.7-4.3-0.2 0 0.2 0.1 0.3 0.2 0.3q0.1 0.1 0 0.1c-0.2 0.1-0.5 0.1-0.6-0.1-0.4 0.3 0 0.6 0.1 0.7q0.1 0.1 0 0.1c-0.4 0.1-0.7-0.3-0.7-0.5v1.6c0 2.4-2.7 2.7-5.7 4.7-3-2-5.7-2.3-5.7-4.7v-1.6c0 0.2-0.4 0.6-0.7 0.5q-0.1 0 0-0.1c0.1-0.1 0.5-0.4 0.1-0.7-0.2 0.1-0.4 0.2-0.6 0.1q-0.1 0 0-0.1c0.1 0 0.2-0.1 0.2-0.3-0.7-0.5-2.4-1.4-4.3 0.2-2.3 1.9-0.7 4.2 0.1 3.4q0 0 0 0.1c-0.1 0.6-1 0.6-1.1 0.2 0 0 0 0-0.1 0.1-0.3 1.4-2.9 0.3-3 3.2 0 0 0.6 0.1 0.8-0.1 0.1-0.1 0.5-0.6 1-0.1 0.1 0 0.1 0.1 0 0.1-0.6 0-0.5 0.4-0.5 0.5 0.5-0.4 1.2-0.3 1.1 0.6q0 0 0 0c-0.4-0.5-0.8-0.2-0.9-0.1 0.4 0 0.9 0.4 0.4 1.1 0 0-0.1 0.1-0.1 0 0-0.8-0.7-0.5-0.9-0.4-0.1 0-0.5 0.1-0.9-0.3-0.1 0.6-0.8 0.6-0.9 0.6q-0.1 0 0-0.1c0.3-0.2 0.6-0.6 0.1-0.8 0 0-0.6 0.6-1.1 0-0.1-0.1 0-0.1 0-0.1 0 0 0.8 0.1 0.7-0.6 0-0.5-0.4-2.2 0.3-2.7 0 0 0.1 0 0 0-0.7-0.2-0.8-0.7-0.5-1.2 0-0.1 0-0.1 0 0 0.1 1.1 1.8 0.6 1.9-1-0.9 0.3-2.6-0.1-2.6-1.6 0-1.5 2-2.3 2-3.4 0-0.2 0-1-0.9-1-0.8 0-1.3 0.6-1.5 1.1q0 0.1 0 0c-0.1-0.1-0.1-0.7 0.2-1 0 0 0-0.1-0.1 0-0.1 0-0.3 0.1-0.6 0.1-0.6 0-0.9-0.3-0.9-0.9 0-0.3 0.1-0.5 0-0.6 0-0.1 0.1-0.1 0.1 0 0.1 0.1 0.2 0.6 0.9 0.6 0 0 1.2 0 1.4 0 1.7 0 1.9 1.3 1.9 1.7 0 1.3-1.8 1.9-1.8 3.3 0 0.3 0.2 0.9 1.1 0.9 0.4 0 0.7-0.2 1-0.3 0 0 0.4-2.4 1.5-3.2 0 0 1.4 0.7 2.8-0.1 1-0.5 1.5-0.9 2.4-0.3 0.9 0.6 1.7 1.3 1.8 1.3h0.2v-5.5c-0.4 0-0.4 0.3-0.4 0.4 0 0.2 0.2 0.3-0.1 0.7q-0.1 0-0.1 0c0-0.1 0-0.3-0.2-0.3-0.1 0-0.8 0.5-1.3 1 0 0-0.3-0.9-1.1-1.2 0.4-0.1 2.3-0.5 2.3-1.4 0-0.2 0.3-0.3 0.5-0.3 0 0 0.3-0.7 0.9-0.3q0 0 0 0c-0.3 0.1-0.4 0.3-0.4 0.6 0.2 0 0.7-0.2 1.3-0.3zm8.5-0.3h-0.7v2.1h0.7zm-13-1.4c0.3 0 0.6-0.1 0.7-0.4 0-0.1 0-0.1 0.1 0 0.1 0.6-0.3 0.8-0.7 0.8-0.4 0-0.6-0.3-1.2-0.4-0.3 0-0.5 0-0.5-0.1 0 0 0.4 0 0.5 0 0.6 0 0.7 0.1 1.1 0.1zm-6.3 1.6c0-0.1 0-0.1 0-0.1 0.5 0.3 0.8-0.3 0.7-0.8-0.1-0.3-0.4-1.1 0.3-1.7 0.6 0.3 1.1-0.3 1-0.6-0.1-0.1-0.1-0.1-0.1 0 0 0.2-0.2 0.4-0.4 0.4-0.2 0-0.7-0.3-0.7-0.7 0.6-0.5 1.7-0.3 2 0.5 0 0.1 0.1 0.1 0.1 0 0-0.1 0-0.5-0.5-0.8-0.5-0.2-0.3-0.5-0.2-0.6 0.1-0.1 0.2-0.1 0.1 0-0.1 0.3 0.2 0.4 0.7 0.3 1.1-0.1 1.4 0.3 1.5 0.5 0.2 0.1 1.1 0.6 1.1 0.8 0 0.1-0.1 0.2-0.1 0.2 0 0 0 0.4-0.3 0.7-1.1-0.7-1.4-0.1-1.3 0.4 0 0 0.2 0.1 0.9 0.1 0 0 0 0.3-0.1 0.4 0 0 0.2 0.2 0.1 0.4 0 0-0.4-0.3-1.1-0.3 0 0-0.4 0.7 1.2 1 1.6 0.3 2.1 1.8 2.1 2.6q0 0.1-0.1 0.1c-1.3-0.3-1.8 1.1-3.5 0.9 0.1-0.4 0-0.8 0-0.8-0.2 0.4-0.5 0.6-0.7 0.7-0.6-0.1-1-0.4-1.1-0.6 0 0 0.7-0.5 0.3-1.4 0 0-0.4 0.6-1.3 0.3 0-0.1 0-0.1 0-0.1 1.1-0.4 0.4-1.3 0.3-1.4-0.5 0.3-0.9-0.1-0.9-0.4zm3.6-3.2c0.1 0.6 0.6 0.6 0.9 0.3 0-0.3-0.3-0.3-0.9-0.3zm21.4 1.5c0.1 0 0.5 0 0.5 0 0 0.1-0.2 0.1-0.5 0.1-0.6 0.1-0.8 0.4-1.2 0.4-0.4 0-0.8-0.2-0.7-0.8 0.1-0.1 0.1-0.1 0.1 0 0.1 0.3 0.4 0.4 0.7 0.4 0.4 0 0.5-0.1 1.1-0.1zm4.3 2.1c-0.1 0.1-0.8 1 0.3 1.4 0 0 0 0 0 0.1-0.8 0.3-1.2-0.3-1.2-0.3-0.5 0.9 0.2 1.4 0.2 1.4-0.1 0.2-0.5 0.5-1.1 0.6-0.2-0.1-0.5-0.3-0.7-0.7 0 0-0.1 0.4 0 0.8-1.6 0.2-2.2-1.2-3.5-0.9q-0.1 0-0.1-0.1c0-0.8 0.5-2.3 2.1-2.6 1.6-0.3 1.2-1 1.2-1-0.7 0-1.1 0.3-1.1 0.3-0.1-0.2 0.1-0.4 0.1-0.4-0.1-0.1-0.1-0.4-0.1-0.4 0.7 0 0.9-0.1 0.9-0.1 0.1-0.5-0.2-1.1-1.3-0.4-0.3-0.3-0.3-0.7-0.3-0.7 0 0-0.1-0.1-0.1-0.2 0-0.2 0.9-0.7 1.1-0.8 0.1-0.2 0.4-0.6 1.5-0.5 0.5 0.1 0.9 0 0.7-0.3 0-0.1 0-0.1 0.1 0 0.1 0.1 0.3 0.4-0.2 0.6-0.5 0.3-0.5 0.7-0.5 0.8 0 0.1 0.1 0.1 0.2 0 0.2-0.8 1.3-1 2-0.5-0.1 0.4-0.6 0.7-0.8 0.7-0.2 0-0.4-0.2-0.4-0.4 0-0.1 0 0 0 0-0.2 0.3 0.3 0.9 0.9 0.6 0.7 0.6 0.4 1.4 0.3 1.7-0.1 0.5 0.2 1.1 0.7 0.8 0 0 0 0 0 0.1 0 0.3-0.4 0.7-0.9 0.4zm-3.6-3.3c0.3 0.3 0.8 0.3 0.9-0.3-0.6 0-0.9 0-0.9 0.3zm-10.6-10c0.2 0 0.3 0.1 0.3 0.3 0 0.2 0 0.3-0.1 0.3-0.1 0.2-0.1 0.3 0 0.3 0 0 0.1 0.1 0.2 0 0.1-0.1 0.2-0.1 0.4-0.1 0.2 0 0.3 0.1 0.3 0.2 0 0.2-0.1 0.3-0.3 0.3-0.2 0-0.3 0-0.4-0.1-0.1-0.1-0.2-0.1-0.2 0-0.1 0 0 0.5 0 0.9 0.4 0.1 0.6 0.4 0.6 0.6 0 0.5-0.5 0.7-0.8 0.9-0.3-0.2-0.8-0.4-0.8-0.9 0-0.2 0.2-0.5 0.6-0.6 0-0.4 0.1-0.9 0.1-0.9-0.1-0.1-0.2-0.1-0.3 0-0.1 0.1-0.2 0.1-0.3 0.1-0.3 0-0.4-0.1-0.4-0.3 0-0.1 0.1-0.2 0.4-0.2 0.1 0 0.2 0 0.3 0.1 0.1 0.1 0.2 0.1 0.3 0 0 0 0-0.1-0.1-0.3 0 0-0.1-0.1-0.1-0.3 0-0.2 0.2-0.3 0.3-0.3zm-3.6 10c0-1.2 0-1.9-0.7-1.8 0.4-1-1.2-1.4-1.2-2.7 0-0.8 0.6-0.9 0.8-0.9 0.5 0 0.4 0.3 0.9 0.3 0 0 0.1 0 0.1 0.1 0 0.1-0.1 0.4-0.4 0.4-0.2 0-0.2-0.3-0.4-0.3-0.1 0-0.3 0.1-0.3 0.3 0 0.6 0.4 1.2 0.8 1.7q0.2-0.2 0.4-0.2c0.3 0 0.5 0.2 0.5 0.6q0 0.1-0.1 0.3 0.2 0.1 0.4 0.1c0.2 0 0.5-0.1 0.5-0.5 0-1-1.3-1.8-1.3-3 0-0.5 0.4-1.1 1.2-1.1 0.8 0 0.7 0.8 1.4 0.8q0.1 0 0.1 0c0 0.1-0.2 0.5-0.5 0.5-0.4 0-0.6-0.7-0.9-0.7-0.2 0-0.4 0.1-0.4 0.5 0 0.4 0.2 1 0.5 1.6q0.1-0.2 0.4-0.2c0.3 0 0.5 0.3 0.5 0.7q0 0.3-0.3 0.6c0.2 0.2 0.4 0.4 0.7 0.4 0.5 0 0.7-0.3 0.7-0.6 0-0.3-0.6-0.5-0.6-1 0-0.4 0.2-0.6 0.4-0.6 0.3 0 0.4 0.2 0.4 0.2 0.1 0 0.2-0.2 0.4-0.2 0.3 0 0.5 0.3 0.5 0.6 0 0.6-0.6 0.7-0.6 1 0 0.3 0.2 0.6 0.7 0.6 0.2 0 0.4-0.2 0.6-0.4-0.1-0.2-0.2-0.4-0.2-0.6 0-0.4 0.2-0.7 0.5-0.7q0.2 0 0.4 0.2c0.3-0.6 0.4-1.2 0.4-1.6 0-0.4-0.2-0.5-0.3-0.5-0.4 0-0.5 0.7-0.9 0.7-0.4 0-0.5-0.4-0.5-0.5q0 0 0.1 0c0.7 0 0.5-0.8 1.4-0.8 0.8 0 1.2 0.6 1.2 1.1 0 1.2-1.3 2-1.3 3 0 0.4 0.3 0.5 0.5 0.5q0.1 0 0.3-0.1 0-0.2 0-0.3c0-0.4 0.2-0.6 0.5-0.6q0.2 0 0.3 0.2c0.5-0.5 0.8-1.1 0.8-1.7 0-0.2-0.1-0.3-0.2-0.3-0.2 0-0.2 0.3-0.5 0.3-0.2 0-0.3-0.3-0.3-0.4 0-0.1 0-0.1 0.1-0.1 0.5 0 0.4-0.3 0.9-0.3 0.2 0 0.8 0.1 0.8 0.9 0 1.3-1.6 1.7-1.2 2.7-0.7-0.1-0.7 0.6-0.7 1.8 0 0-1.3-0.5-3.7-0.5-2.2 0-3.6 0.4-3.6 0.5zm0 0q0 0 0 0 0 0 0 0zm4.2-5.5c0 0.3-0.3 0.6-0.6 0.6-0.3 0-0.6-0.3-0.6-0.6 0-0.4 0.3-0.6 0.6-0.6 0.3 0 0.6 0.2 0.6 0.6zm0.2 17.6h-0.8v2.1h0.8zm-7.8 7.7v1c0 1.7-2.7 0.1-5.4 0-2.2-0.2-2.8 0.4-2.8 0.4l0.4-2.3c0-0.1 0.5-0.4 2-0.4 1.9 0 2.8 0.3 3.1 0.5v1.1c0 0.3 0.1 0.4 0.3 0.5 0-0.1 0.3-0.8 2.4-0.8zm16.4 0.8c0.2-0.1 0.3-0.2 0.3-0.5v-1.1c0.3-0.2 1.3-0.5 3.1-0.5 1.5 0 2 0.3 2 0.4l0.4 2.3c0 0-0.6-0.6-2.8-0.4-2.7 0.1-5.4 1.7-5.4 0v-1c2.1 0 2.4 0.7 2.4 0.8zm-18.6-0.9c0 0.1 0 0 0 0v-2.3c0-0.7 4.4-1.1 9.2-1.1 4.8 0 9.3 0.4 9.3 1.1v2.3c0 0-0.1 0.1-0.1 0-0.6-0.6-4.9-0.9-9.2-0.9-4.3 0-8.6 0.3-9.2 0.9zm5.4-11.2q0 0 0 0c0-0.1 0.2-0.2 0.4-0.2q0 0 0 0c-0.1 0-0.4 0.2-0.3 0.5q0.1 0 0.1 0c0.1-0.1 0.3-0.2 0.3-0.2v0.6c0.4 0.1 0.9-0.2 1-0.7l-0.5-0.1c0.5-0.4 1.2-0.7 1.9-0.7 1.1 0 1.8 1.2 1.8 1.8 0 0.2-0.1 0.5-0.2 0.7-0.2 0.3-0.3 0.2-0.4 0.1q0 0 0 0c0.1 0.4 0.5 0.4 0.6 0.2 0 0 0 0 0 0 0.3 0.9 1.4-0.1 2 1.1-0.1 0-0.3 0.1-0.5 0-0.3-0.2-0.5 0-0.6 0.2q0 0 0.1 0c0.3-0.1 0.5 0.1 0.5 0.2-0.3-0.1-0.7 0-0.5 0.5q0 0 0 0c0.2-0.4 0.4-0.2 0.5-0.2-0.2 0.1-0.4 0.4 0 0.6q0 0 0 0c0-0.2 0.1-0.4 0.2-0.4 0.1 0 0.4 0 0.5-0.3 0.1 0.3 0.4 0.2 0.6 0.2q0-0.1 0-0.1c-0.2 0-0.5-0.2-0.3-0.3 0 0 0.5 0.1 0.6-0.3q0 0 0 0c0 0-0.4 0.2-0.5-0.2-0.1-0.3-0.1-0.7-0.4-0.8 0.3-0.1 0.4-0.3 0.2-0.6 0 0-0.1 0-0.1 0 0 0.6-1.3 0.1-1.3-0.7 0.9 0.2 1.8 0 1.8-0.9 0-0.9-0.8-1.2-0.8-1.7 0-0.3 0.2-0.3 0.3-0.3 0.4 0 0.8 0.4 0.8 0.7q0.1 0 0.1 0c0.1-0.2 0.1-0.4 0-0.5 0 0 0-0.1 0.1-0.1 0 0.1 0.7 0 0.7-0.4 0-0.2 0-0.3 0-0.3 0-0.1-0.1-0.1-0.1-0.1-0.1 0.1-0.1 0.4-0.5 0.4-0.3 0-0.7-0.2-1.1-0.2-0.6 0-0.8 0.5-0.8 0.8 0 0.8 0.7 0.9 0.7 1.6 0 0.5-0.7 0.7-1.2 0.2-0.2-0.6-0.3-1.1-0.6-1.6-1.4 0.5-1.6-0.4-2.4-0.4-0.6 0-1.4 1.1-2 1.3v-0.7h0.1v-0.5c0 0-0.2 0.3-0.2 0.4q0 0 0 0c-0.1-0.2-0.2-0.5-0.2-0.5 0 0-0.1 0.4-0.1 0.5q0 0.1 0 0l-0.3-0.4c0 0 0.1 0.3 0.1 0.5q0 0.1 0 0.1l-0.5-0.5c0 0 0.1 0.3 0.2 0.6q0.1 0.1 0 0c-0.1 0-0.5-0.3-0.5-0.3 0 0 0.2 0.3 0.3 0.5q0.1 0 0 0c-0.3-0.1-0.5-0.2-0.5-0.2 0 0 0.2 0.2 0.4 0.4q0 0.1 0 0.1c-0.1 0-0.5 0-0.5 0l0.5 0.2 0.1-0.1 0.4 0.1c-0.1 0.2-0.1 0.3 0 0.4zm2 3.8q0 0 0 0-0.2-0.1-0.2-0.3c0-0.2 0.4-0.4 0.5-0.4 0.1 0 0.2 0.1 0.4 0.1q0.2 0 0.3-0.1 0.1-0.1 0-0.1c-0.3 0.1-0.4-0.2-0.4-0.7 0-0.9 0.5-1 1.6-1.5q0 0 0 0c-0.2 0-0.5-0.3-0.2-0.6-0.2-0.2-0.5-0.3-0.7-0.3-0.8 0-1.4 0.9-1.5 1.1-0.1 0.1-0.4 0.3-0.5 0.1q0 0 0 0c0 0.4 0.3 0.4 0.4 0.3q0 0 0 0c0 0.4 0.2 1.1 0.2 1.1 0 0-0.4 0.4-0.6 0.4-0.2 0-0.2-0.4-0.5-0.4q-0.1 0-0.2 0.2 0 0 0 0c0.2 0 0.3 0.1 0.3 0.3-0.3-0.2-0.6-0.2-0.6 0.3q0 0 0 0c0.2-0.2 0.4-0.1 0.5 0-0.2 0-0.5 0.2-0.2 0.6q0 0 0 0c0-0.1 0-0.3 0.3-0.3 0.2 0 0.4 0.2 0.6 0 0.1 0.3 0.4 0.3 0.5 0.2zm3.8-9.1c0.1-0.1 0.6-0.3 0.8-0.4q0 0 0 0c-0.2-0.1-0.7 0-0.8-0.1 0 0-0.1-0.7-0.1-0.7 0 0-0.6 0.3-0.6 0.3-0.2 0-0.3-0.5-0.5-0.6q-0.1 0-0.1 0.1c0.1 0.1 0.2 0.6 0.1 0.7-0.5 0-0.7 0.2-0.7 0.3-0.2 0.1-0.7 0.4-0.7 0.5 0 0 0.1 0.1 0.1 0.1 0 0 0 0.2 0.1 0.3 0.4-0.2 0.8-0.2 0.8 0.3 0 0-0.1 0.1-0.5 0.1 0 0 0 0.1 0 0.2 0 0-0.1 0.1 0 0.2 0 0 0.4-0.2 0.6-0.1 0.1 0.2 0 0.5-0.6 0.6-0.8 0.1-1.2 0.3-1.3 1.1 0.6 0 1 0.3 1.4 0.5 0.7 0.3 1.5-0.2 1.5-0.2-0.2-0.1-0.2-0.5 0-0.7 0.2 0.2 0.5 0.3 0.7 0.1q0 0 0 0c-0.3-0.2-0.4-0.5-0.2-0.8 0.2 0.2 0.5 0 0.6-0.2q0 0 0 0c-0.3 0.1-0.4-0.2-0.4-0.4 0-0.2 0.1-0.8-0.2-1.2zm-3.3 0.6q0-0.1-0.1 0c-0.1 0.3 0.2 0.5 0.4 0.5 0.3 0 0.3-0.2 0.9-0.3 0 0 0-0.1 0-0.1-0.1 0-0.3 0-0.6 0-0.4 0.1-0.6 0-0.6-0.1zm-6.9 11.9q0 0 0 0c0.2-0.1 0.4-0.3 0.4-0.5 0-0.4-0.7-0.8-1-0.8-0.2 0-0.4 0.2-0.7 0.2-0.2 0-0.4-0.1-0.6-0.3q0 0 0 0c0.1 0 0.6 0.1 0.8-0.6 0.2-0.8 0.2-1.4-0.1-1.7-0.3-0.2-1.6-0.7-2.3-1q-0.1 0 0-0.1c0.2 0 0.4-0.1 0.4-0.4 0-0.1 0-0.3-0.2-0.4 0.4-0.4 1.1-0.7 1.4-0.7 1.4 0 2.6 1.9 3.2 1.9 0.1 0 0.2 0 0.2-0.1q0.1-0.1 0.1 0c0 0.6-0.3 0.6-0.5 0.6q-0.1 0-0.3-0.1 0 0 0 0.1 0 0 0 0.1c0 0.7-0.7 1.4-0.7 1.4 0.3 0.3 1.1 0.9 1.3 0.6 0.1-0.1 0.6-0.9 1.1-0.3q0 0.1 0 0.1c-0.3 0-0.6 0.2-0.5 0.5 0.5-0.3 1.1-0.3 1.1 0.5q0 0.1-0.1 0.1c-0.3-0.5-0.7-0.2-0.8-0.1 0.3 0 0.9 0.4 0.4 1.1q-0.1 0-0.1 0c0-0.5-0.3-0.5-0.5-0.5-0.4 0-0.8 0.4-1.1-0.1-0.1 0.6-0.7 0.5-0.9 0.5zm15.5-0.5c-0.3 0.5-0.6 0-1.1 0-0.2 0-0.5 0.1-0.5 0.6q0 0 0 0c-0.5-0.7 0-1.1 0.3-1.1 0-0.1-0.5-0.4-0.8 0.1q0 0-0.1-0.1c0-0.8 0.7-0.9 1.1-0.5 0.1-0.3-0.1-0.5-0.5-0.5q0 0 0-0.1c0.6-0.6 1 0.2 1.1 0.3 0.2 0.3 1-0.3 1.3-0.6 0 0-0.7-0.7-0.7-1.4q0-0.1 0-0.1 0-0.1 0-0.1-0.1 0.1-0.3 0.1c-0.1 0-0.4 0-0.4-0.6q0-0.1 0 0c0.1 0.1 0.2 0.1 0.2 0.1 0.6 0 1.8-1.9 3.2-1.9 0.4 0 1.1 0.3 1.4 0.7-0.2 0.1-0.2 0.3-0.2 0.4 0.1 0.3 0.2 0.4 0.4 0.4q0.1 0 0 0.1c-0.7 0.3-2 0.7-2.3 1-0.3 0.3-0.2 0.9 0 1.6 0.2 0.8 0.6 0.7 0.7 0.7q0.1 0 0.1 0c-0.2 0.2-0.5 0.3-0.6 0.3-0.4 0-0.6-0.2-0.7-0.2-0.4 0-1 0.4-1 0.8 0 0.2 0.1 0.4 0.3 0.5q0 0 0 0c-0.1 0-0.8 0.1-0.9-0.5zm-10.3-10.7l0.4 0.2 0.1-0.3-0.3-0.1 1.5-2.1c0.1 0 0-0.3 0-0.4-0.1 0-0.4 0.1-0.4 0.1l-1.5 2.1-0.2-0.3-0.2 0.3 0.3 0.3-0.2 0.2c-0.3-0.2-0.6 0-0.7 0.1q0 0 0 0c0.1 0 0.5-0.1 0.5 0.2-0.4-0.2-0.6 0.1-0.6 0.2q0 0 0 0c0.1 0 0.3-0.1 0.4 0l-0.3 0.5c0 0 0.3 0.3 0.3 0.2l0.5-0.6c0 0 1.3 0.7 1.6 0.9q0-0.4 0.3-0.7c-0.4-0.1-1.2-0.4-1.2-0.4-0.1 0.1-0.2 0.1-0.3 0.1-0.2 0-0.4-0.2-0.4-0.3q0 0 0 0c0.1 0 0.2 0.1 0.3 0zm3-1.2c0-0.2 0.2-0.2 0.5-0.2-0.1 0.3-0.3 0.3-0.5 0.2z"/>
	<path id="Logius min BZK" fill-rule="evenodd" class="s2" d="m59.3 46h-5.2v-0.4q0.4 0 0.6-0.3 0.2-0.2 0.2-0.6v-6.8l-0.8-0.2v-0.3q0.3-0.1 0.8-0.2 0.3-0.1 0.7-0.1 0.2 0 0.4 0 0.2 0 0.3 0.1 0.2 0 0.3 0 0.2 0 0.3 0.1v0.2q-0.2 0.1-0.3 0.2-0.2 0.1-0.3 0.2-0.1 0.1-0.1 0.3-0.1 0.1-0.1 0.3v6.7h1.6q0.6-0.1 0.9-0.2 0.4-0.2 0.6-0.6l0.1-0.3h0.4zm7-1.9q-0.3 0.6-0.7 1.1-0.5 0.5-1 0.8-0.6 0.2-1.2 0.2-0.7 0-1.2-0.2-0.6-0.2-1-0.6-0.4-0.4-0.6-1-0.2-0.6-0.2-1.4 0-0.8 0.2-1.5 0.3-0.7 0.7-1.2 0.5-0.4 1.1-0.7 0.5-0.3 1.2-0.3 0.6 0 1.2 0.3 0.5 0.2 0.9 0.6 0.4 0.4 0.6 1 0.3 0.6 0.3 1.3 0 0.9-0.3 1.6zm-1.1-2.5q-0.2-0.5-0.4-0.8-0.3-0.3-0.6-0.5-0.3-0.2-0.7-0.2-0.4 0-0.7 0.2-0.4 0.2-0.6 0.5-0.3 0.4-0.4 0.9-0.2 0.5-0.2 1.2 0 0.6 0.2 1.1 0.1 0.5 0.4 0.8 0.2 0.3 0.6 0.5 0.3 0.1 0.7 0.1 0.3 0 0.6-0.1 0.4-0.2 0.6-0.6 0.3-0.3 0.5-0.8 0.1-0.6 0.1-1.3 0-0.6-0.1-1zm8.4-1.3q-0.3 0-0.7-0.1-0.4 0-0.8 0 0.2 0.1 0.3 0.3 0.2 0.2 0.3 0.4 0.1 0.2 0.1 0.4 0.1 0.2 0.1 0.4 0 0.6-0.2 1.1-0.3 0.5-0.6 0.8-0.4 0.4-0.9 0.6-0.5 0.2-1.1 0.2-0.2 0-0.4-0.1-0.2 0-0.4-0.1-0.1 0.1-0.2 0.1-0.1 0.1-0.1 0.2-0.1 0.1-0.1 0.2-0.1 0.1-0.1 0.2 0 0.3 0.3 0.4 0.2 0.2 0.6 0.2h1.9q0.9 0 1.4 0.4 0.4 0.4 0.4 1.1 0 0.5-0.2 1-0.3 0.4-0.7 0.7-0.5 0.4-1.1 0.5-0.6 0.2-1.3 0.2-0.7 0-1.2-0.1-0.5-0.1-0.8-0.3-0.3-0.2-0.5-0.5-0.1-0.3-0.1-0.7 0-0.2 0.1-0.5 0.1-0.2 0.2-0.4 0.2-0.2 0.4-0.4 0.3-0.1 0.6-0.2-0.4-0.1-0.6-0.4-0.2-0.3-0.2-0.7 0-0.2 0-0.4 0.1-0.2 0.2-0.3 0.2-0.2 0.3-0.3 0.2-0.1 0.4-0.2-0.2-0.1-0.4-0.3-0.3-0.1-0.4-0.4-0.2-0.2-0.3-0.6-0.1-0.3-0.1-0.6 0-0.6 0.2-1.1 0.2-0.5 0.6-0.9 0.4-0.3 0.9-0.5 0.5-0.2 1-0.2 0.2 0 0.5 0 0.2 0 0.4 0.1 0.2 0.1 0.4 0.1 0.1 0.1 0.2 0.2 0.1-0.1 0.2-0.2 0.2 0 0.3-0.1 0.2 0 0.4-0.1 0.2 0 0.3 0 0.2 0 0.3 0 0.2 0 0.3 0zm-1.4 6.4q-0.3-0.2-0.8-0.2h-2.2q-0.1 0.1-0.3 0.2-0.1 0.1-0.2 0.2-0.1 0.2-0.1 0.3-0.1 0.2-0.1 0.4 0 0.2 0.1 0.4 0.1 0.2 0.4 0.3 0.2 0.2 0.5 0.2 0.3 0.1 0.8 0.1 0.5 0 0.9-0.1 0.4-0.1 0.7-0.3 0.2-0.2 0.4-0.4 0.1-0.2 0.1-0.5 0-0.4-0.2-0.6zm-0.6-5.7q-0.1-0.3-0.3-0.6-0.2-0.1-0.4-0.3-0.3-0.1-0.6-0.1-0.2 0-0.5 0.2-0.3 0.1-0.5 0.4-0.1 0.2-0.3 0.6-0.1 0.3-0.1 0.8 0 0.4 0.1 0.7 0.1 0.4 0.3 0.6 0.2 0.2 0.4 0.3 0.3 0.1 0.5 0.1 0.3 0 0.6-0.1 0.3-0.1 0.5-0.4 0.2-0.2 0.3-0.6 0.1-0.4 0.1-0.8 0-0.5-0.1-0.8zm5 5q-0.2 0-0.4 0.1-0.2 0-0.4 0-0.2 0-0.5 0-0.2 0-0.5 0-0.3 0-0.5-0.1v-0.3q0.1 0 0.3-0.1 0.1 0 0.2-0.2 0.1 0 0.2-0.2 0-0.1 0-0.2v-4.6l-0.9-0.4v-0.3q0.5-0.1 0.9-0.2 0.5-0.1 0.8 0h0.4l-0.1 0.7v5.2l0.8 0.2v0.3q-0.2 0.1-0.3 0.1zm-0.3-8.3q0 0.1-0.1 0.2-0.1 0.2-0.3 0.2-0.1 0.1-0.3 0.1-0.1 0-0.3-0.1-0.1 0-0.2-0.1-0.1-0.1-0.2-0.3 0-0.1 0-0.3 0-0.2 0-0.3 0.1-0.1 0.2-0.3 0.1-0.1 0.2-0.1 0.2-0.1 0.4-0.1 0.1 0 0.2 0 0.2 0.1 0.3 0.2 0.1 0.1 0.1 0.2 0.1 0.1 0.1 0.3 0 0.2-0.1 0.4zm7.5 8q-0.1 0.1-0.3 0.2-0.1 0.1-0.2 0.2-0.2 0-0.3 0.1-0.2-0.1-0.4-0.4-0.1-0.2-0.2-0.4-0.2 0.1-0.4 0.3-0.2 0.1-0.4 0.2-0.3 0.1-0.6 0.2-0.3 0-0.6 0-0.4 0-0.8-0.1-0.3-0.1-0.6-0.4-0.2-0.3-0.4-0.7-0.1-0.4-0.1-1v-3.5l-0.8-0.4v-0.3q0.5-0.1 0.9-0.2 0.4-0.1 0.7-0.1h0.4l-0.1 0.8v3.1q0 0.6 0.1 0.9 0.1 0.4 0.3 0.6 0.1 0.2 0.4 0.3 0.3 0.1 0.6 0.1 0.2 0 0.4 0 0.1 0 0.3-0.1 0.2-0.1 0.4-0.1 0.1-0.1 0.2-0.2v-4.4l-0.8-0.4v-0.3q0.5-0.1 0.9-0.2 0.4-0.1 0.7 0h0.4l-0.1 0.7v4.7q0.1 0.1 0.3 0.3 0.1 0.2 0.3 0.4c-0.1 0-0.2 0.1-0.2 0.1zm5.3-0.8q-0.2 0.4-0.5 0.7-0.4 0.3-0.8 0.4-0.5 0.2-1.1 0.2-0.9 0-1.3-0.3-0.4-0.3-0.4-0.8 0-0.2 0-0.3 0-0.2 0.1-0.3 0.5 0.4 0.9 0.6 0.5 0.3 1 0.3 0.6 0 0.9-0.3 0.3-0.2 0.3-0.6 0-0.2 0-0.3-0.1-0.2-0.2-0.3-0.2-0.1-0.4-0.3-0.2-0.1-0.6-0.3l-0.6-0.3q-0.6-0.2-1-0.6-0.3-0.5-0.3-1.1 0-0.4 0.2-0.7 0.2-0.4 0.5-0.7 0.3-0.2 0.7-0.4 0.5-0.2 1-0.2 0.4 0 0.7 0.1 0.3 0 0.5 0.1 0.2 0.2 0.3 0.3 0.1 0.2 0.1 0.4 0 0.1-0.1 0.3 0 0.1 0 0.2-0.3-0.2-0.8-0.3-0.4-0.2-0.8-0.2-0.3 0-0.6 0.1-0.2 0.1-0.4 0.2-0.1 0.1-0.2 0.3-0.1 0.1-0.1 0.3 0 0.2 0.1 0.3 0 0.2 0.1 0.3 0.2 0.1 0.4 0.2 0.2 0.2 0.5 0.3l0.7 0.3q0.4 0.1 0.7 0.3 0.2 0.2 0.4 0.4 0.2 0.2 0.2 0.4 0.1 0.3 0.1 0.6 0 0.4-0.2 0.7zm-33.9 16.7q-0.3 0-0.6 0-0.2 0-0.5 0-0.2 0-0.4-0.1v-0.2q0.2-0.1 0.3-0.3 0.1-0.1 0.2-0.3l1.7-7.3-0.8-0.2v-0.3q0.2-0.1 0.4-0.1 0.1 0 0.3 0 0.2-0.1 0.4-0.1 0.2 0 0.3 0h0.5l1.2 6.6 2.3-6.6h0.3q0.2 0 0.3 0 0.2 0 0.4 0 0.1 0 0.3 0.1 0.2 0 0.3 0v0.4l-0.6 0.1 0.3 7.6 0.8 0.2v0.3q-0.3 0.1-0.6 0.2-0.2 0-0.5 0-0.5 0-0.7 0-0.3 0-0.6-0.1v-0.3q0.2 0 0.3-0.2 0.2-0.2 0.2-0.5l-0.1-6.1-2.5 7.2h-0.4l-1.4-7.2-1.3 6.5 0.8 0.2v0.3q-0.3 0.1-0.6 0.2zm8.5-0.1q-0.2-0.2-0.2-0.5 0-0.1 0-0.4 0-0.2 0.1-0.4 0-0.3 0-0.5 0.1-0.3 0.1-0.5l0.4-2.8 0.1-0.8-0.8-0.3v-0.2q0.3-0.1 0.7-0.2 0.3-0.1 0.7-0.1 0.1 0 0.3 0 0.1 0.1 0.3 0.1l-0.6 4q-0.1 0.2-0.1 0.4 0 0.2 0 0.4 0 0.2-0.1 0.4 0 0.2 0 0.3 0 0.4 0.2 0.5 0.1 0.2 0.4 0.3v0.2q-0.2 0.1-0.5 0.2-0.2 0-0.5 0-0.3 0-0.5-0.1zm2-8.5q-0.1 0.1-0.2 0.3-0.1 0.1-0.2 0.1-0.2 0.1-0.3 0.1-0.3 0-0.5-0.2-0.1-0.1-0.1-0.4 0-0.2 0-0.4 0.1-0.1 0.2-0.2 0.1-0.1 0.2-0.2 0.2-0.1 0.3-0.1 0.3 0 0.5 0.2 0.2 0.2 0.2 0.5 0 0.1-0.1 0.3zm5.8 3.4q-0.1 0.3-0.1 0.5 0 0.2-0.1 0.5 0 0.2 0 0.4l-0.3 1.5q0 0.1 0 0.3 0 0.1 0 0.3-0.1 0.1-0.1 0.3 0 0.1 0 0.2 0 0.4 0.2 0.5 0.1 0.2 0.5 0.2v0.3q-0.3 0.1-0.5 0.1-0.3 0.1-0.6 0.1-0.4 0-0.5-0.1-0.2-0.2-0.2-0.5 0-0.1 0-0.3 0-0.2 0-0.4 0.1-0.2 0.1-0.4 0-0.2 0-0.4l0.3-1.6q0-0.1 0.1-0.3 0-0.2 0-0.4 0-0.1 0-0.3 0-0.2 0-0.3 0-0.3 0-0.4-0.1-0.2-0.1-0.3-0.1-0.1-0.2-0.1-0.1-0.1-0.3-0.1-0.2 0-0.6 0.3-0.3 0.3-0.6 0.7-0.3 0.5-0.5 1.1-0.2 0.7-0.2 1.4l-0.1 2.3h-1.1l0.7-5.9-0.9-0.3v-0.3q0.3-0.1 0.7-0.1 0.3-0.1 0.7-0.1 0.1 0 0.2 0 0.2 0.1 0.3 0.1l-0.4 2.1q0.2-0.5 0.5-0.9 0.3-0.4 0.6-0.7 0.4-0.3 0.7-0.4 0.3-0.2 0.7-0.2 0.2 0 0.4 0.1 0.2 0.1 0.4 0.2 0.1 0.2 0.2 0.4 0.1 0.2 0.1 0.6 0 0.1 0 0.3zm1.5 5.1q-0.1-0.2-0.1-0.5 0-0.1 0-0.4 0-0.2 0-0.4 0-0.3 0.1-0.5 0-0.3 0-0.5l0.5-2.8v-0.8l-0.8-0.3v-0.2q0.4-0.1 0.7-0.2 0.3-0.1 0.7-0.1 0.2 0 0.3 0 0.2 0.1 0.3 0.1l-0.6 4q0 0.2 0 0.4-0.1 0.2-0.1 0.4 0 0.2 0 0.4 0 0.2 0 0.3 0 0.4 0.1 0.5 0.1 0.2 0.4 0.3v0.2q-0.2 0.1-0.4 0.2-0.3 0-0.6 0-0.3 0-0.5-0.1zm2-8.5q0 0.1-0.1 0.3-0.1 0.1-0.3 0.1-0.1 0.1-0.3 0.1-0.2 0-0.4-0.2-0.2-0.1-0.2-0.4 0-0.2 0.1-0.4 0.1-0.1 0.1-0.2 0.2-0.1 0.3-0.2 0.1-0.1 0.3-0.1 0.2 0 0.4 0.2 0.2 0.2 0.2 0.5 0 0.1-0.1 0.3zm4.4 2.9q-0.1 0.2-0.2 0.4-0.3-0.4-0.7-0.5-0.4-0.2-0.8-0.2-0.4 0-0.7 0.2-0.2 0.2-0.2 0.6 0 0.1 0 0.2 0.1 0.2 0.2 0.3 0.1 0.1 0.2 0.3 0.2 0.2 0.5 0.4l0.5 0.5q0.2 0.2 0.4 0.4 0.2 0.2 0.3 0.4 0.1 0.2 0.1 0.3 0.1 0.2 0.1 0.5 0 0.4-0.2 0.7-0.2 0.4-0.6 0.7-0.3 0.3-0.8 0.4-0.4 0.2-1 0.2-0.6 0-0.9-0.2-0.3-0.2-0.3-0.6 0-0.2 0-0.3 0.1-0.1 0.2-0.3 0.3 0.3 0.6 0.5 0.3 0.1 0.7 0.1 0.3 0 0.5-0.1 0.2 0 0.3-0.1 0.2-0.2 0.3-0.3 0.1-0.2 0.1-0.4 0-0.2 0-0.3-0.1-0.2-0.2-0.3-0.1-0.2-0.2-0.4-0.2-0.2-0.5-0.4l-0.5-0.4q-0.2-0.2-0.3-0.4-0.2-0.2-0.3-0.4-0.1-0.2-0.1-0.4-0.1-0.1-0.1-0.4 0-0.3 0.2-0.6 0.2-0.4 0.4-0.6 0.3-0.3 0.7-0.4 0.4-0.2 0.9-0.2 0.7 0 1.1 0.2 0.4 0.2 0.4 0.6 0 0.1-0.1 0.3zm3.8-0.3q-0.2 0.2-0.9 0.2h-0.4l-0.2 1.4q0 0.3-0.1 0.6-0.1 0.3-0.1 0.6 0 0.4-0.1 0.7 0 0.3 0 0.5 0 0.3 0.1 0.6 0.1 0.2 0.2 0.4 0.2 0.1 0.3 0.2 0.2 0.1 0.5 0.1 0.1 0 0.3-0.1 0.1 0 0.2 0v0.2q0 0.1-0.1 0.2-0.1 0.2-0.3 0.3-0.2 0.1-0.4 0.1-0.2 0.1-0.4 0.1-0.7 0-1.1-0.5-0.3-0.4-0.3-1.2 0-0.3 0-0.8 0.1-0.4 0.1-0.8 0.1-0.5 0.1-0.9 0.1-0.5 0.2-0.9l0.2-0.8q-0.2 0-0.4-0.1-0.2 0-0.4 0v-0.2q0.3-0.4 0.8-0.9 0.5-0.4 1.1-0.7h0.2l-0.3 1.1h0.4q0.3 0 0.6 0 0.2 0 0.5-0.1 0 0.5-0.3 0.7zm4.4 4.7q0.1 0.1 0 0.2 0 0.3-0.1 0.5-0.2 0.2-0.4 0.4-0.3 0.1-0.7 0.2-0.3 0.1-0.7 0.1-0.5 0-0.8-0.1-0.4-0.2-0.7-0.4-0.2-0.4-0.4-0.8-0.1-0.4-0.1-1.1 0-1.1 0.3-2 0.2-0.8 0.6-1.4 0.5-0.6 1-0.8 0.5-0.3 1-0.3 0.7 0 1.1 0.3 0.3 0.4 0.3 1.1 0 0.6-0.3 1.1-0.2 0.5-0.7 0.8-0.5 0.3-1.1 0.5-0.5 0.2-1.2 0.2 0.1 0.6 0.1 1 0.1 0.4 0.3 0.7 0.1 0.2 0.3 0.3 0.3 0.1 0.6 0.1 0.2 0 0.4-0.1 0.2 0 0.4-0.1 0.2-0.1 0.4-0.2 0.2-0.2 0.3-0.3 0.1 0 0.1 0.1zm-0.8-4.5q-0.2-0.2-0.5-0.3-0.2 0-0.5 0.2-0.2 0.2-0.5 0.6-0.2 0.3-0.3 0.8-0.2 0.5-0.2 1.1 0.5 0 0.9-0.1 0.4-0.2 0.6-0.4 0.3-0.2 0.5-0.5 0.1-0.4 0.1-0.8 0.1-0.4-0.1-0.6zm1.8-0.7q0.4-0.1 0.7-0.2 0.3-0.1 0.7-0.1 0.1 0 0.3 0.1 0.1 0 0.3 0l-0.4 2 0.7-1.2q0.3-0.4 0.5-0.6 0.3-0.3 0.6-0.3 0.3 0 0.4 0.2 0.1 0.1 0.1 0.3 0 0.2 0 0.4-0.1 0.2-0.2 0.4-0.1-0.1-0.2-0.1-0.1 0-0.2 0-0.3 0-0.6 0.2-0.3 0.2-0.6 0.6-0.2 0.4-0.4 1.1-0.2 0.7-0.2 1.6l-0.2 2h-1.1l0.7-5.9-0.9-0.3v-0.2zm4.5 6.4q-0.2-0.2-0.2-0.5 0-0.1 0-0.4 0-0.2 0-0.4 0.1-0.3 0.1-0.5 0-0.3 0.1-0.5l0.4-2.8 0.1-0.8-0.8-0.3v-0.2q0.3-0.1 0.6-0.2 0.4-0.1 0.7-0.1 0.2 0 0.4 0 0.1 0.1 0.2 0.1l-0.6 4q0 0.2 0 0.4 0 0.2-0.1 0.4 0 0.2 0 0.4 0 0.2 0 0.3 0 0.4 0.1 0.5 0.2 0.2 0.5 0.3v0.2q-0.3 0.1-0.5 0.2-0.3 0-0.6 0-0.3 0-0.4-0.1zm2-8.5q-0.1 0.1-0.2 0.3-0.1 0.1-0.2 0.1-0.2 0.1-0.3 0.1-0.3 0-0.5-0.2-0.2-0.1-0.2-0.4 0-0.2 0.1-0.4 0.1-0.1 0.2-0.2 0.1-0.1 0.2-0.2 0.1-0.1 0.3-0.1 0.3 0 0.4 0.2 0.2 0.2 0.2 0.5 0 0.1 0 0.3zm4.5 7.3q0.1 0.1 0.1 0.2 0 0.3-0.2 0.5-0.2 0.2-0.4 0.4-0.3 0.1-0.7 0.2-0.3 0.1-0.7 0.1-0.5 0-0.8-0.1-0.4-0.2-0.7-0.4-0.2-0.4-0.4-0.8-0.1-0.4-0.1-1.1 0-1.1 0.3-2 0.2-0.8 0.6-1.4 0.5-0.6 1-0.8 0.5-0.3 1-0.3 0.7 0 1.1 0.3 0.3 0.4 0.3 1.1 0 0.6-0.2 1.1-0.3 0.5-0.8 0.8-0.5 0.3-1 0.5-0.6 0.2-1.2 0.2 0 0.6 0 1 0.1 0.4 0.3 0.7 0.1 0.2 0.3 0.3 0.3 0.1 0.6 0.1 0.2 0 0.4-0.1 0.2 0 0.4-0.1 0.2-0.1 0.4-0.2 0.2-0.2 0.3-0.3 0.1 0 0.1 0.1zm-0.8-4.5q-0.2-0.2-0.5-0.3-0.2 0-0.5 0.2-0.2 0.2-0.4 0.6-0.3 0.3-0.4 0.8-0.2 0.5-0.2 1.1 0.5 0 0.9-0.1 0.4-0.2 0.7-0.4 0.2-0.2 0.4-0.5 0.2-0.4 0.2-0.8 0-0.4-0.2-0.6zm5.8 4.7q0.4-0.4 0.7-1 0.3-0.6 0.5-1.2 0.3-0.6 0.4-1.2 0.2-0.6 0.1-1.1 0.1-0.3-0.1-0.5-0.1-0.1-0.4-0.3v-0.2q0.2-0.1 0.4-0.1 0.2-0.1 0.5-0.1 0.3 0 0.5 0.2 0.2 0.2 0.2 0.6 0 0.4-0.1 0.8-0.1 0.5-0.3 1-0.1 0.6-0.4 1.1-0.2 0.5-0.6 1-0.2 0.5-0.6 1-0.3 0.4-0.6 0.7-0.2 0.2-0.4 0.3-0.2 0.1-0.4 0.2h-0.2l-0.6-6.1-0.6-0.3v-0.3q0.3-0.1 0.6-0.1 0.3-0.1 0.5-0.1 0.3 0 0.6 0.1l0.3 5.6zm7.7-2.4q-0.1 0.3-0.1 0.7 0 0.4-0.1 0.7 0 0.3 0 0.5 0 0.4 0 0.6 0.1 0.2 0.1 0.3 0.1 0.1 0.2 0.2 0.2 0 0.4 0v0.3q-0.3 0.1-0.6 0.2-0.3 0-0.7 0-0.1 0-0.3 0-0.1 0-0.2-0.1l0.3-2q-0.2 0.5-0.5 0.9-0.2 0.4-0.5 0.7-0.3 0.3-0.6 0.4-0.3 0.2-0.6 0.2-0.2 0-0.4-0.2-0.2-0.1-0.4-0.4-0.2-0.3-0.3-0.8-0.1-0.4-0.1-1 0-1.1 0.3-1.9 0.3-0.9 0.8-1.4 0.4-0.6 1.1-0.9 0.6-0.3 1.3-0.3 0.2 0 0.4 0 0.2 0 0.4 0.1 0.2 0 0.4 0c0.1 0 0.2 0.1 0.3 0.1l-0.4 2.4c-0.1 0.2-0.2 0.4-0.2 0.7zm-0.9-2.5q-0.3 0-0.4 0-0.4 0-0.8 0.2-0.4 0.2-0.7 0.7-0.2 0.4-0.4 1.1-0.2 0.6-0.2 1.5 0 0.4 0.1 0.8 0.1 0.3 0.1 0.5 0.2 0.2 0.3 0.3 0.1 0.1 0.2 0.1 0.2 0 0.5-0.2 0.3-0.2 0.5-0.5 0.2-0.4 0.4-0.9 0.2-0.5 0.3-1.2l0.4-2.3q-0.1-0.1-0.3-0.1zm7.4 0.8q0 0.3 0 0.5-0.1 0.2-0.1 0.5 0 0.2-0.1 0.4l-0.2 1.5q0 0.1 0 0.3-0.1 0.1-0.1 0.3 0 0.1 0 0.3 0 0.1 0 0.2 0 0.4 0.1 0.5 0.2 0.2 0.5 0.2v0.3q-0.2 0.1-0.5 0.1-0.2 0.1-0.6 0.1-0.3 0-0.5-0.1-0.1-0.2-0.1-0.5 0-0.1 0-0.3 0-0.2 0-0.4 0-0.2 0.1-0.4 0-0.2 0-0.4l0.3-1.6q0-0.1 0-0.3 0-0.2 0.1-0.4 0-0.1 0-0.3 0-0.2 0-0.3 0-0.3 0-0.4-0.1-0.2-0.2-0.3-0.1-0.1-0.2-0.1-0.1-0.1-0.2-0.1-0.3 0-0.6 0.3-0.4 0.3-0.6 0.7-0.3 0.5-0.5 1.1-0.2 0.7-0.2 1.4l-0.1 2.3h-1.2l0.7-5.9-0.8-0.3v-0.3q0.3-0.1 0.6-0.1 0.4-0.1 0.7-0.1 0.2 0 0.3 0 0.2 0.1 0.3 0.1l-0.4 2.1q0.2-0.5 0.5-0.9 0.3-0.4 0.6-0.7 0.3-0.3 0.6-0.5 0.4-0.1 0.7-0.1 0.3 0 0.5 0.1 0.2 0 0.3 0.2 0.2 0.2 0.2 0.4 0.1 0.2 0.1 0.5 0.1 0.3 0 0.4zm8.9-1q-0.1 0.4-0.4 0.7-0.3 0.3-0.7 0.5-0.4 0.3-0.8 0.4 0.4 0 0.8 0.1 0.3 0.2 0.6 0.4 0.3 0.2 0.4 0.6 0.2 0.3 0.2 0.7 0 0.6-0.3 1.2-0.2 0.5-0.7 0.9-0.5 0.3-1.2 0.5-0.7 0.2-1.5 0.2-0.4 0.1-0.7 0-0.2 0-0.5 0-0.2 0-0.4 0-0.3 0-0.5-0.1v-0.2c0.1-0.1 0.3-0.2 0.4-0.3q0.1-0.2 0.2-0.5l0.8-7.1-0.7-0.2v-0.3q0.6-0.1 1.3-0.1 0.6-0.1 1.4-0.1 1.2 0 1.9 0.5 0.6 0.5 0.6 1.4 0 0.4-0.2 0.8zm-1.3 2.9q-0.1-0.3-0.4-0.5-0.3-0.2-0.8-0.3-0.5-0.1-1.2-0.1l-0.4 3.4q0.2 0.1 0.4 0.1 0.2 0 0.4 0 0.5 0 0.9-0.2 0.4-0.1 0.7-0.3 0.2-0.3 0.4-0.6 0.2-0.4 0.2-0.8 0-0.4-0.2-0.7zm0.2-4.2q-0.1-0.2-0.4-0.4-0.2-0.2-0.4-0.2-0.3-0.1-0.7-0.1-0.1 0-0.3 0-0.1 0-0.3 0l-0.4 3.3q0.6 0 1.1-0.1 0.4-0.2 0.8-0.4 0.3-0.3 0.5-0.7 0.2-0.4 0.2-0.8 0-0.3-0.1-0.6zm2.6 7.4q-0.1-0.2-0.1-0.5 0-0.1 0-0.4 0-0.2 0-0.4 0-0.3 0.1-0.5 0-0.3 0-0.5l0.5-2.8 0.1-0.8-0.9-0.3v-0.2q0.4-0.1 0.7-0.2 0.3-0.1 0.7-0.1 0.2 0 0.3 0 0.2 0.1 0.3 0.1l-0.6 4q0 0.2 0 0.4-0.1 0.2-0.1 0.4 0 0.2 0 0.4 0 0.2 0 0.3 0 0.4 0.1 0.5 0.2 0.2 0.4 0.3v0.2q-0.2 0.1-0.4 0.2-0.3 0-0.6 0-0.3 0-0.5-0.1zm2.1-8.5q-0.1 0.1-0.2 0.3-0.1 0.1-0.3 0.1-0.1 0.1-0.3 0.1-0.2 0-0.4-0.2-0.2-0.1-0.2-0.4 0-0.2 0.1-0.4 0.1-0.1 0.2-0.2 0.1-0.1 0.2-0.2 0.1-0.1 0.3-0.1 0.3 0 0.4 0.2 0.2 0.2 0.2 0.5 0 0.1 0 0.3zm5.7 3.4q0 0.3 0 0.5-0.1 0.2-0.1 0.5 0 0.2-0.1 0.4l-0.2 1.5q0 0.1-0.1 0.3 0 0.1 0 0.3 0 0.1 0 0.3 0 0.1 0 0.2 0 0.4 0.1 0.5 0.2 0.2 0.5 0.2v0.3q-0.2 0.1-0.5 0.1-0.3 0.1-0.6 0.1-0.3 0-0.5-0.1-0.2-0.2-0.2-0.5 0-0.1 0-0.3 0.1-0.2 0.1-0.4 0-0.2 0-0.4 0.1-0.2 0.1-0.4l0.3-1.6q0-0.1 0-0.3 0-0.2 0-0.4 0.1-0.1 0.1-0.3 0-0.2 0-0.3 0-0.3-0.1-0.4 0-0.2-0.1-0.3-0.1-0.1-0.2-0.1-0.1-0.1-0.2-0.1-0.3 0-0.6 0.3-0.4 0.3-0.6 0.7-0.3 0.5-0.5 1.1-0.2 0.7-0.2 1.4l-0.1 2.3h-1.2l0.7-5.9-0.8-0.3v-0.3q0.3-0.1 0.6-0.1 0.3-0.1 0.7-0.1 0.2 0 0.3 0 0.2 0.1 0.3 0.1l-0.4 2.1q0.2-0.5 0.5-0.9 0.3-0.4 0.6-0.7 0.3-0.3 0.6-0.5 0.4-0.1 0.7-0.1 0.3 0 0.5 0.1 0.2 0 0.3 0.2 0.2 0.2 0.2 0.4 0.1 0.2 0.1 0.5 0 0.3 0 0.4zm6.2 0q0 0.3 0 0.5 0 0.2-0.1 0.5 0 0.2 0 0.4l-0.3 1.5q0 0.1 0 0.3 0 0.1-0.1 0.3 0 0.1 0 0.3 0 0.1 0 0.2 0 0.4 0.2 0.5 0.1 0.2 0.4 0.2v0.3q-0.2 0.1-0.5 0.1-0.2 0.1-0.6 0.1-0.3 0-0.5-0.1-0.1-0.2-0.1-0.5 0-0.1 0-0.3 0-0.2 0-0.4 0-0.2 0.1-0.4 0-0.2 0-0.4l0.3-1.6q0-0.1 0-0.3 0-0.2 0.1-0.4 0-0.1 0-0.3 0-0.2 0-0.3 0-0.3 0-0.4-0.1-0.2-0.2-0.3-0.1-0.1-0.2-0.1-0.1-0.1-0.2-0.1-0.3 0-0.6 0.3-0.3 0.3-0.6 0.7-0.3 0.5-0.5 1.1-0.2 0.7-0.2 1.4l-0.1 2.3h-1.2l0.7-5.9-0.8-0.3v-0.3q0.3-0.1 0.6-0.1 0.4-0.1 0.7-0.1 0.2 0 0.3 0 0.2 0.1 0.3 0.1l-0.4 2.1q0.2-0.5 0.5-0.9 0.3-0.4 0.6-0.7 0.3-0.3 0.7-0.5 0.3-0.1 0.7-0.1 0.2 0 0.4 0.1 0.2 0 0.3 0.2 0.2 0.2 0.3 0.4 0 0.2 0 0.5 0.1 0.3 0 0.4zm5.1 3.9q0 0.1 0 0.2 0 0.3-0.1 0.5-0.2 0.2-0.4 0.4-0.3 0.1-0.7 0.2-0.3 0.1-0.8 0.1-0.4 0-0.8-0.1-0.3-0.2-0.6-0.4-0.2-0.4-0.4-0.8-0.1-0.4-0.1-1.1 0-1.1 0.2-2 0.3-0.8 0.7-1.4 0.4-0.6 0.9-0.8 0.6-0.3 1.1-0.3 0.7 0 1.1 0.3 0.3 0.4 0.3 1.1 0 0.6-0.3 1.1-0.2 0.5-0.7 0.8-0.5 0.3-1.1 0.5-0.5 0.2-1.2 0.2 0.1 0.6 0.1 1 0.1 0.4 0.3 0.7 0.1 0.2 0.3 0.3 0.3 0.1 0.6 0.1 0.2 0 0.4-0.1 0.2 0 0.4-0.1 0.2-0.1 0.4-0.2 0.2-0.2 0.3-0.3 0 0 0.1 0.1zm-0.8-4.5q-0.2-0.2-0.5-0.3-0.2 0-0.5 0.2-0.3 0.2-0.5 0.6-0.2 0.3-0.3 0.8-0.2 0.5-0.2 1.1 0.5 0 0.9-0.1 0.4-0.2 0.6-0.4 0.3-0.2 0.5-0.5 0.1-0.4 0.1-0.8 0-0.4-0.1-0.6zm6.9 0.6q0 0.3-0.1 0.5 0 0.2 0 0.5-0.1 0.2-0.1 0.4l-0.2 1.5q0 0.1-0.1 0.3 0 0.1 0 0.3 0 0.1 0 0.3-0.1 0.1-0.1 0.2 0 0.4 0.2 0.5 0.2 0.2 0.5 0.2v0.3q-0.2 0.1-0.5 0.1-0.3 0.1-0.6 0.1-0.3 0-0.5-0.1-0.2-0.2-0.2-0.5 0-0.1 0-0.3 0-0.2 0.1-0.4 0-0.2 0-0.4 0-0.2 0.1-0.4l0.2-1.6q0-0.1 0.1-0.3 0-0.2 0-0.4 0-0.1 0-0.3 0.1-0.2 0.1-0.3 0-0.3-0.1-0.4 0-0.2-0.1-0.3-0.1-0.1-0.2-0.1-0.1-0.1-0.2-0.1-0.3 0-0.7 0.3-0.3 0.3-0.6 0.7-0.3 0.5-0.4 1.1-0.2 0.7-0.3 1.4v2.3h-1.2l0.7-5.9-0.9-0.3v-0.3q0.4-0.1 0.7-0.1 0.3-0.1 0.7-0.1 0.1 0 0.3 0 0.1 0.1 0.3 0.1l-0.5 2.1q0.3-0.5 0.5-0.9 0.3-0.4 0.6-0.7 0.4-0.3 0.7-0.5 0.3-0.1 0.7-0.1 0.2 0 0.4 0.1 0.2 0 0.4 0.2 0.1 0.2 0.2 0.4 0.1 0.2 0.1 0.5 0 0.3 0 0.4zm1.6 5.1q-0.2-0.2-0.2-0.5 0-0.1 0-0.4 0-0.2 0-0.4 0.1-0.3 0.1-0.5 0-0.3 0-0.5l1-6.8-0.9-0.3v-0.2q0.4-0.1 0.7-0.2 0.3 0 0.7 0 0.2 0 0.3 0 0.2 0 0.3 0l-1 7.2q0 0.2 0 0.4-0.1 0.2-0.1 0.4 0 0.2 0 0.4 0 0.2 0 0.4 0 0.3 0.2 0.5 0.1 0.1 0.4 0.2v0.3q-0.4 0.2-1 0.2-0.4-0.1-0.5-0.2zm7-3.4q-0.1 0.3-0.1 0.7 0 0.4-0.1 0.7 0 0.3 0 0.5 0 0.4 0 0.6 0.1 0.2 0.1 0.3 0.1 0.1 0.2 0.2 0.2 0 0.4 0v0.3q-0.3 0.1-0.6 0.2-0.3 0-0.7 0-0.1 0-0.3 0-0.1 0-0.2-0.1l0.3-2q-0.2 0.5-0.5 0.9-0.2 0.4-0.5 0.7-0.3 0.3-0.6 0.4-0.3 0.2-0.6 0.2-0.2 0-0.4-0.2-0.2-0.1-0.4-0.4-0.2-0.3-0.3-0.8-0.1-0.4-0.1-1 0-1.1 0.3-1.9 0.3-0.9 0.7-1.4 0.5-0.6 1.1-0.9 0.7-0.3 1.4-0.3 0.2 0 0.4 0 0.1 0 0.4 0.1 0.1 0 0.4 0c0.1 0.1 0.2 0.1 0.3 0.1l-0.4 2.4q-0.1 0.3-0.2 0.7zm-0.9-2.5q-0.3 0-0.4 0-0.4 0-0.8 0.2-0.4 0.2-0.7 0.7-0.2 0.4-0.4 1.1-0.2 0.6-0.2 1.5 0 0.4 0.1 0.8 0.1 0.3 0.1 0.5 0.1 0.2 0.3 0.3 0.1 0.1 0.2 0.1 0.2 0 0.5-0.2 0.2-0.2 0.5-0.5 0.2-0.4 0.4-0.9 0.2-0.5 0.3-1.2l0.4-2.3q-0.1-0.1-0.3-0.1zm7.4 0.8q0 0.3 0 0.5-0.1 0.2-0.1 0.5 0 0.2-0.1 0.4l-0.2 1.5q0 0.1 0 0.3-0.1 0.1-0.1 0.3 0 0.1 0 0.3 0 0.1 0 0.2 0 0.4 0.1 0.5 0.2 0.2 0.5 0.2v0.3q-0.2 0.1-0.5 0.1-0.3 0.1-0.6 0.1-0.3 0-0.5-0.1-0.2-0.2-0.2-0.5 0.1-0.1 0.1-0.3 0-0.2 0-0.4 0-0.2 0-0.4 0.1-0.2 0.1-0.4l0.3-1.6q0-0.1 0-0.3 0-0.2 0-0.4 0.1-0.1 0.1-0.3 0-0.2 0-0.3 0-0.3-0.1-0.4 0-0.2-0.1-0.3-0.1-0.1-0.2-0.1-0.1-0.1-0.2-0.1-0.3 0-0.6 0.3-0.4 0.3-0.6 0.7-0.3 0.5-0.5 1.1-0.2 0.7-0.2 1.4l-0.1 2.3h-1.2l0.7-5.9-0.8-0.3v-0.3q0.3-0.1 0.6-0.1 0.3-0.1 0.7-0.1 0.2 0 0.3 0 0.1 0.1 0.3 0.1l-0.5 2.1h0.1q0.2-0.5 0.5-0.9 0.3-0.4 0.6-0.7 0.3-0.3 0.6-0.5 0.4-0.1 0.7-0.1 0.3 0 0.5 0.1 0.2 0 0.3 0.2 0.2 0.2 0.2 0.4 0.1 0.2 0.1 0.5 0.1 0.3 0 0.4zm5.6 1.4q0 0.2 0 0.4 0 0.3-0.1 0.5 0 0.3 0 0.6-0.1 0.2-0.1 0.4 0 0.2 0 0.3 0 0.4 0 0.6 0.1 0.2 0.2 0.3 0 0.1 0.2 0.2 0.1 0 0.3 0v0.3q-0.4 0.1-0.6 0.2-0.3 0-0.7 0-0.1 0-0.3 0-0.1 0-0.2-0.1l0.3-2q-0.2 0.4-0.4 0.8-0.3 0.5-0.6 0.7-0.3 0.4-0.6 0.5-0.3 0.2-0.6 0.2-0.2 0-0.4-0.2-0.2-0.1-0.4-0.4-0.2-0.3-0.3-0.8-0.1-0.4-0.1-1 0-1.1 0.3-1.9 0.3-0.8 0.7-1.4 0.5-0.6 1.1-0.9 0.6-0.3 1.3-0.3 0.1 0 0.3 0 0.1 0 0.2 0l0.4-2.5-0.9-0.2v-0.3q0.3-0.1 0.7-0.1 0.3-0.1 0.8-0.1 0.1 0 0.3 0 0.2 0.1 0.3 0.1l-1 5.7q0 0.2-0.1 0.4zm-0.9-2.2q-0.2 0-0.3 0-0.5 0-0.9 0.2-0.3 0.2-0.6 0.6-0.3 0.5-0.5 1.1-0.2 0.7-0.2 1.6 0 0.4 0.1 0.8 0.1 0.3 0.1 0.5 0.2 0.2 0.3 0.3c0 0 0.1 0.1 0.2 0.1q0.2 0 0.5-0.2 0.2-0.2 0.5-0.5 0.2-0.4 0.4-0.9 0.2-0.5 0.3-1.2l0.4-2.3q-0.1-0.1-0.3-0.1zm6 0.3q0 0.2-0.1 0.4-0.4-0.4-0.8-0.5-0.4-0.2-0.7-0.2-0.5 0-0.7 0.2-0.3 0.2-0.3 0.6 0 0.1 0.1 0.2 0 0.2 0.1 0.3 0.1 0.1 0.3 0.3 0.1 0.2 0.4 0.4l0.5 0.5q0.2 0.2 0.4 0.4 0.2 0.2 0.3 0.4 0.1 0.2 0.1 0.3 0.1 0.2 0.1 0.5 0 0.4-0.2 0.7-0.2 0.4-0.5 0.7-0.4 0.3-0.9 0.4-0.4 0.2-1 0.2-0.6 0-0.9-0.2-0.3-0.2-0.3-0.6 0-0.2 0.1-0.3 0-0.1 0.1-0.3 0.3 0.3 0.6 0.5 0.4 0.1 0.7 0.1 0.3 0 0.5-0.1 0.2 0 0.4-0.1 0.1-0.2 0.2-0.3 0.1-0.2 0.1-0.4 0-0.2 0-0.3-0.1-0.2-0.2-0.3-0.1-0.2-0.2-0.4-0.2-0.2-0.4-0.4l-0.5-0.4q-0.2-0.2-0.4-0.4-0.2-0.2-0.2-0.4-0.1-0.2-0.2-0.4 0-0.1 0-0.4 0-0.3 0.1-0.6 0.2-0.4 0.5-0.6 0.3-0.3 0.6-0.4 0.4-0.2 0.9-0.2 0.8 0 1.1 0.2 0.4 0.2 0.4 0.6 0 0.1-0.1 0.3zm4.6 4.4q0 0.1 0 0.2 0 0.3-0.1 0.5-0.2 0.2-0.5 0.4-0.2 0.1-0.6 0.2-0.4 0.1-0.8 0.1-0.4 0-0.8-0.1-0.3-0.2-0.6-0.4-0.2-0.4-0.4-0.8-0.1-0.4-0.1-1.1 0-1.1 0.2-2 0.3-0.8 0.7-1.4 0.4-0.6 0.9-0.8 0.5-0.3 1-0.3 0.8 0 1.1 0.3 0.4 0.4 0.4 1.1 0 0.6-0.3 1.1-0.3 0.5-0.7 0.8-0.5 0.3-1.1 0.5-0.6 0.2-1.2 0.2 0 0.6 0.1 1 0.1 0.4 0.2 0.7 0.2 0.2 0.4 0.3 0.2 0.1 0.6 0.1 0.1 0 0.4-0.1 0.2 0 0.4-0.1 0.2-0.1 0.4-0.2 0.1-0.2 0.2-0.3 0.1 0 0.2 0.1zm-0.9-4.5q-0.1-0.2-0.4-0.3-0.2 0-0.5 0.2-0.3 0.2-0.5 0.6-0.2 0.3-0.4 0.8-0.1 0.5-0.1 1.1 0.5 0 0.8-0.1 0.4-0.2 0.7-0.4 0.3-0.2 0.5-0.5 0.1-0.4 0.1-0.8 0-0.4-0.2-0.6zm7.4 5q0.5 0 0.8-0.2 0.3-0.2 0.5-0.7l0.1-0.3h0.4l-0.3 1.9h-5.3v-0.3l4.6-7.7h-2q-0.3 0-0.4 0.1-0.2 0-0.4 0.1-0.1 0.1-0.2 0.3-0.2 0.2-0.3 0.4l-0.1 0.2h-0.4l0.2-1.8h5v0.2l-4.5 7.8h2.3zm7-2.8q0 0.4-0.1 0.8 0 0.3-0.1 0.7 0 0.3 0 0.5 0 0.3 0 0.5 0.1 0.3 0.2 0.4 0 0.1 0.2 0.1 0.1 0.1 0.3 0.1v0.3q-0.3 0.1-0.6 0.2-0.3 0-0.6 0-0.2 0-0.3 0-0.2 0-0.3-0.1l0.3-2q-0.2 0.5-0.5 0.9-0.2 0.4-0.5 0.7-0.3 0.3-0.6 0.4-0.2 0.2-0.5 0.2-0.3 0-0.5-0.2-0.2-0.1-0.4-0.5-0.2-0.3-0.3-0.7-0.1-0.5-0.1-1.1 0-1 0.3-1.9 0.3-0.8 0.8-1.4 0.5-0.5 1.1-0.8 0.6-0.3 1.3-0.3 0.2 0 0.4 0 0.2 0 0.4 0 0.2 0.1 0.4 0.1c0.1 0 0.2 0.1 0.3 0.1l-0.4 2.4q-0.1 0.3-0.2 0.6zm-0.9-2.4q-0.2 0-0.4 0-0.4 0-0.8 0.2-0.4 0.2-0.6 0.7-0.3 0.4-0.5 1-0.2 0.7-0.2 1.6 0 0.4 0.1 0.7 0.1 0.4 0.2 0.6 0.1 0.2 0.2 0.3 0.1 0.1 0.2 0.1 0.3 0 0.5-0.2 0.3-0.2 0.5-0.5 0.2-0.4 0.4-0.9 0.2-0.5 0.3-1.3l0.4-2.2q-0.1-0.1-0.3-0.1zm2.6-3.8q0.4-0.1 0.7-0.1 0.3-0.1 0.7-0.1 0.2 0 0.4 0 0.1 0.1 0.3 0.1l-0.8 6 0.7-0.6q0.3-0.1 0.5-0.4 0.2-0.3 0.4-0.6 0.3-0.4 0.4-0.7 0.2-0.4 0.2-0.7 0.6 0 0.8 0.1 0.2 0.2 0.2 0.4 0 0.2-0.2 0.4-0.1 0.3-0.4 0.6-0.2 0.3-0.6 0.6-0.3 0.4-0.7 0.6l-0.6 0.4 1.7 2.7q0.2 0.2 0.4 0.4 0.2 0.2 0.5 0.3v0.2q-0.2 0.2-0.4 0.2-0.2 0-0.4 0-0.2 0-0.3 0-0.2 0-0.3-0.1-0.2-0.1-0.3-0.3-0.1-0.2-0.3-0.4l-1.4-2.6-0.2 3.3h-1.2l0.5-3.6 0.6-5.6-0.9-0.2zm8.8 8.4q0.1 0.1 0.1 0.2 0 0.3-0.2 0.5-0.1 0.2-0.4 0.4-0.3 0.2-0.6 0.3-0.4 0.1-0.8 0.1-0.4 0-0.8-0.2-0.4-0.1-0.6-0.4-0.3-0.3-0.4-0.8-0.2-0.4-0.2-1 0-1.2 0.3-2.1 0.3-0.8 0.7-1.4 0.4-0.5 0.9-0.8 0.5-0.3 1-0.3 0.7 0 1.1 0.4 0.4 0.3 0.4 1 0 0.6-0.3 1.1-0.3 0.5-0.7 0.8-0.5 0.4-1.1 0.5-0.6 0.2-1.2 0.2 0 0.6 0.1 1.1 0 0.3 0.2 0.6 0.2 0.2 0.4 0.3 0.2 0.1 0.5 0.1 0.2 0 0.4-0.1 0.2 0 0.5-0.1 0.2-0.1 0.3-0.2 0.2-0.1 0.3-0.3 0.1 0.1 0.1 0.1zm-0.8-4.5q-0.2-0.2-0.5-0.2-0.2 0-0.5 0.2-0.2 0.2-0.4 0.5-0.3 0.3-0.4 0.8-0.1 0.5-0.1 1.1 0.4 0 0.8-0.1 0.4-0.1 0.7-0.4 0.3-0.2 0.4-0.5 0.2-0.3 0.2-0.7 0-0.5-0.2-0.7zm6.9 0.7q0 0.2 0 0.4 0 0.2-0.1 0.5 0 0.2 0 0.4l-0.3 1.5q0 0.1 0 0.3 0 0.1-0.1 0.3 0 0.2 0 0.3 0 0.1 0 0.2 0 0.4 0.2 0.5 0.1 0.2 0.4 0.3v0.2q-0.2 0.1-0.5 0.2-0.2 0-0.6 0-0.3 0.1-0.5-0.1-0.1-0.2-0.1-0.5 0-0.1 0-0.3 0-0.2 0-0.4 0-0.2 0.1-0.4 0-0.2 0-0.3l0.3-1.6q0-0.2 0-0.4 0-0.1 0.1-0.3 0-0.2 0-0.4 0-0.2 0-0.3 0-0.2 0-0.4-0.1-0.2-0.2-0.3-0.1 0-0.2-0.1-0.1 0-0.2 0-0.3 0-0.6 0.2-0.3 0.3-0.6 0.8-0.3 0.4-0.5 1-0.2 0.7-0.2 1.4l-0.1 2.3h-1.2l0.7-5.9-0.8-0.3v-0.2q0.3-0.1 0.6-0.2 0.4-0.1 0.7-0.1 0.2 0 0.3 0.1 0.2 0 0.3 0l-0.4 2.1q0.2-0.5 0.5-0.9 0.3-0.4 0.6-0.7 0.3-0.3 0.7-0.4 0.3-0.2 0.6-0.2 0.3 0 0.5 0.1 0.2 0.1 0.3 0.2 0.2 0.2 0.2 0.4 0.1 0.2 0.1 0.6 0.1 0.2 0 0.4zm7.3 3.8q0 0.1 0 0.2 0 0.3-0.1 0.5-0.2 0.2-0.5 0.4-0.2 0.2-0.6 0.3-0.4 0.1-0.8 0.1-0.4 0-0.8-0.2-0.3-0.1-0.6-0.4-0.2-0.3-0.4-0.8-0.1-0.4-0.1-1 0-1.2 0.2-2.1 0.3-0.8 0.7-1.4 0.4-0.5 0.9-0.8 0.5-0.3 1.1-0.3 0.7 0 1 0.4 0.4 0.3 0.4 1 0 0.6-0.3 1.1-0.2 0.5-0.7 0.8-0.5 0.4-1.1 0.5-0.5 0.2-1.2 0.2 0 0.6 0.1 1.1 0.1 0.3 0.2 0.6 0.2 0.2 0.4 0.3 0.3 0.1 0.6 0.1 0.1 0 0.4-0.1 0.2 0 0.4-0.1 0.2-0.1 0.4-0.2 0.1-0.1 0.3-0.3 0 0.1 0.1 0.1zm-0.8-4.5q-0.2-0.2-0.5-0.2-0.2 0-0.5 0.2-0.3 0.2-0.5 0.5-0.2 0.3-0.4 0.8-0.1 0.5-0.1 1.1 0.5 0 0.9-0.1 0.3-0.1 0.6-0.4 0.3-0.2 0.5-0.5 0.1-0.3 0.1-0.7 0-0.5-0.1-0.7zm6.9 0.7q0 0.2-0.1 0.4 0 0.2 0 0.5-0.1 0.2-0.1 0.4l-0.3 1.5q0 0.1 0 0.3 0 0.1 0 0.3 0 0.2-0.1 0.3 0 0.1 0 0.2 0 0.4 0.2 0.5 0.2 0.2 0.5 0.3v0.2q-0.3 0.1-0.5 0.2-0.3 0-0.6 0-0.3 0.1-0.5-0.1-0.2-0.2-0.2-0.5 0-0.1 0-0.3 0-0.2 0.1-0.4 0-0.2 0-0.4 0-0.2 0.1-0.3l0.2-1.6q0-0.2 0.1-0.4 0-0.1 0-0.3 0-0.2 0-0.4 0.1-0.2 0-0.3 0.1-0.2 0-0.4 0-0.2-0.1-0.3-0.1 0-0.2-0.1-0.1 0-0.3 0-0.2 0-0.6 0.2-0.3 0.3-0.6 0.8-0.3 0.4-0.5 1-0.2 0.7-0.2 1.4l-0.1 2.3h-1.1l0.7-5.9-0.9-0.3v-0.2q0.4-0.1 0.7-0.2 0.3-0.1 0.7-0.1 0.1 0 0.3 0.1 0.1 0 0.2 0l-0.4 2.1q0.2-0.5 0.5-0.9 0.3-0.4 0.6-0.7 0.4-0.3 0.7-0.4 0.3-0.2 0.7-0.2 0.2 0 0.4 0.1 0.2 0.1 0.4 0.2 0.1 0.2 0.2 0.4 0.1 0.2 0.1 0.6 0 0.2 0 0.4zm-173.7 12.2v-0.3q0.3-0.1 0.6-0.1 0.3-0.1 0.6-0.1 0.3 0 0.6 0.1 0.3 0 0.5 0.1v0.2q-0.2 0.1-0.3 0.2-0.2 0.2-0.2 0.4l-0.9 7.3 0.8 0.2v0.3q-0.3 0.1-0.6 0.1-0.3 0.1-0.6 0.1-0.4 0-0.6-0.1-0.3 0-0.5-0.1v-0.2q0.2-0.1 0.3-0.2 0.2-0.2 0.2-0.4l0.8-7.2zm5.6 8.3q-0.2 0.1-0.3 0.1-0.1 0-0.2 0-0.1 0-0.3 0-0.2 0-0.4 0-0.2-0.1-0.4-0.3-0.2-0.2-0.4-0.6-0.2-0.3-0.5-0.9l-1.5-2.8 1.3-1.1q0.8-0.7 1.1-1.3 0.4-0.6 0.4-1 0-0.2-0.1-0.4-0.1-0.1-0.4-0.2v-0.2q0.3-0.1 0.5-0.1 0.2-0.1 0.5-0.1 0.3 0 0.5 0.2 0.1 0.1 0.1 0.4 0 0.6-0.4 1.4-0.4 0.7-1.4 1.5l-1 0.8 1.4 2.4q0.2 0.4 0.4 0.8 0.3 0.3 0.5 0.5 0.2 0.2 0.4 0.3 0.2 0.1 0.4 0.2v0.2q-0.1 0.1-0.2 0.2zm5.3-2.5q-0.3 0.9-0.7 1.5-0.4 0.6-1 0.9-0.5 0.3-1 0.3-0.4 0-0.8-0.2-0.3-0.1-0.6-0.4-0.3-0.3-0.4-0.8-0.2-0.4-0.2-1.1 0-1 0.3-1.9c0.2-0.5 0.4-1 0.7-1.4q0.4-0.5 0.9-0.8 0.6-0.3 1.1-0.3 0.5 0 0.8 0.1 0.4 0.1 0.6 0.4 0.3 0.3 0.4 0.7 0.2 0.5 0.1 1.1 0.1 1-0.2 1.9zm-1-2.5q0-0.3-0.2-0.5-0.1-0.2-0.3-0.4-0.2-0.1-0.4-0.1-0.3 0-0.6 0.3c-0.2 0.1-0.4 0.3-0.5 0.6q-0.3 0.4-0.4 1-0.2 0.6-0.2 1.3 0 0.6 0.1 1 0.1 0.4 0.3 0.7 0.1 0.3 0.3 0.4 0.2 0.1 0.5 0.1 0.2 0 0.5-0.2 0.3-0.2 0.5-0.7 0.2-0.4 0.4-1.1 0.1-0.7 0.1-1.6 0-0.4-0.1-0.8zm7.2-0.1q0 0.2-0.1 0.5 0 0.2 0 0.4-0.1 0.3-0.1 0.5l-0.2 1.5q0 0.1-0.1 0.2 0 0.2 0 0.3 0 0.2 0 0.3-0.1 0.2-0.1 0.3 0.1 0.4 0.2 0.5 0.2 0.2 0.5 0.2v0.2q-0.2 0.2-0.5 0.2-0.3 0.1-0.6 0.1-0.3 0-0.5-0.2-0.2-0.1-0.2-0.4 0-0.1 0-0.3 0-0.2 0.1-0.4 0-0.2 0-0.4 0-0.2 0.1-0.4l0.2-1.6q0-0.1 0.1-0.3 0-0.2 0-0.4 0-0.2 0-0.3 0.1-0.2 0.1-0.4 0-0.2-0.1-0.3 0-0.2-0.1-0.3-0.1-0.1-0.2-0.1-0.1-0.1-0.2-0.1-0.3 0-0.7 0.3-0.3 0.2-0.6 0.7-0.3 0.5-0.4 1.1-0.2 0.7-0.3 1.4v2.3h-1.2l0.7-5.9-0.9-0.3v-0.2q0.4-0.2 0.7-0.2 0.3-0.1 0.7-0.1 0.2 0 0.3 0.1 0.1 0 0.3 0l-0.5 2.1q0.3-0.5 0.6-0.9 0.2-0.4 0.6-0.7 0.3-0.3 0.6-0.4 0.3-0.2 0.7-0.2 0.2 0 0.4 0.1 0.2 0.1 0.4 0.2 0.1 0.2 0.2 0.4 0.1 0.2 0.1 0.6 0 0.1 0 0.3zm1.5 5.1q-0.1-0.2-0.1-0.5 0-0.2 0-0.4 0-0.2 0-0.5 0.1-0.2 0.1-0.5 0-0.2 0.1-0.4l0.4-2.8 0.1-0.8-0.8-0.3v-0.3q0.3-0.1 0.6-0.1 0.4-0.1 0.7-0.1 0.2 0 0.4 0 0.1 0 0.2 0.1l-0.6 4q0 0.2 0 0.4 0 0.2-0.1 0.4 0 0.2 0 0.4 0 0.2 0 0.3 0 0.4 0.1 0.5 0.2 0.2 0.5 0.3v0.2q-0.3 0.1-0.5 0.2-0.3 0-0.6 0-0.3 0-0.5-0.1zm2.1-8.5q-0.1 0.1-0.2 0.2-0.1 0.2-0.2 0.2-0.2 0.1-0.3 0.1-0.3 0-0.5-0.2-0.2-0.2-0.2-0.5 0-0.1 0.1-0.3 0.1-0.2 0.2-0.3 0.1-0.1 0.2-0.2 0.1 0 0.3 0 0.3 0 0.4 0.2 0.2 0.1 0.2 0.4 0 0.2 0 0.4zm5.7 3.4q0 0.2 0 0.5-0.1 0.2-0.1 0.4 0 0.3-0.1 0.5l-0.2 1.5q0 0.1 0 0.2-0.1 0.2-0.1 0.3 0 0.2 0 0.3 0 0.2 0 0.3 0 0.4 0.1 0.5 0.2 0.2 0.5 0.2v0.2q-0.2 0.2-0.5 0.2-0.2 0.1-0.6 0.1-0.3 0-0.5-0.2-0.1-0.1-0.1-0.4 0-0.1 0-0.3 0-0.2 0-0.4 0-0.2 0.1-0.4 0-0.2 0-0.4l0.3-1.6q0-0.1 0-0.3 0-0.2 0.1-0.4 0-0.2 0-0.3 0-0.2 0-0.4 0-0.2 0-0.3-0.1-0.2-0.2-0.3-0.1-0.1-0.2-0.1-0.1-0.1-0.2-0.1-0.3 0-0.6 0.3-0.4 0.2-0.6 0.7-0.3 0.5-0.5 1.1-0.2 0.7-0.2 1.4l-0.1 2.3h-1.2l0.7-5.9-0.8-0.3v-0.2q0.3-0.2 0.6-0.2 0.4-0.1 0.7-0.1 0.2 0 0.3 0.1 0.2 0 0.3 0l-0.4 2.1q0.2-0.5 0.5-0.9 0.3-0.4 0.6-0.7 0.3-0.3 0.7-0.4 0.3-0.2 0.6-0.2 0.3 0 0.5 0.1 0.2 0.1 0.3 0.2 0.2 0.2 0.2 0.4 0.1 0.2 0.1 0.6 0.1 0.1 0 0.3zm1.5-4.6q0.3-0.1 0.7-0.1 0.3-0.1 0.7-0.1 0.2 0 0.3 0 0.2 0.1 0.3 0.1l-0.8 6 0.8-0.6q0.2-0.1 0.5-0.4 0.2-0.3 0.4-0.6 0.2-0.4 0.4-0.7 0.1-0.4 0.2-0.7 0.5 0 0.7 0.1 0.2 0.2 0.2 0.4 0 0.2-0.1 0.4-0.2 0.3-0.4 0.6-0.3 0.3-0.6 0.6-0.4 0.4-0.7 0.6l-0.6 0.4 1.7 2.7q0.2 0.2 0.4 0.4 0.2 0.2 0.5 0.3v0.2q-0.2 0.2-0.4 0.2-0.2 0-0.5 0-0.1 0-0.3 0-0.1 0-0.3-0.1-0.1-0.1-0.2-0.3-0.2-0.2-0.3-0.4l-1.4-2.6-0.3 3.3h-1.2l0.6-3.6 0.6-5.5-0.9-0.3zm4.9 3.2q0.4-0.1 0.7-0.2 0.3 0 0.7 0 0.1 0 0.3 0 0.1 0 0.3 0.1l-0.5 2h0.1l0.7-1.2q0.3-0.5 0.5-0.7 0.3-0.2 0.6-0.2 0.3 0 0.4 0.1 0.1 0.2 0.1 0.4 0 0.2-0.1 0.4 0 0.2-0.1 0.3-0.1 0-0.2 0-0.1 0-0.2 0-0.3 0-0.6 0.2-0.4 0.2-0.6 0.6-0.3 0.4-0.4 1.1-0.2 0.6-0.3 1.6l-0.1 2h-1.1l0.7-6-0.9-0.2zm4.5 6.4q-0.2-0.2-0.2-0.5 0-0.1 0-0.4 0-0.2 0-0.4 0.1-0.3 0.1-0.5 0-0.3 0.1-0.5l0.4-2.8 0.1-0.8-0.8-0.3v-0.2q0.3-0.2 0.6-0.2 0.4-0.1 0.7-0.1 0.2 0 0.4 0 0.1 0.1 0.2 0.1l-0.6 4.1q0 0.1 0 0.3 0 0.2-0.1 0.4 0 0.2 0 0.4 0 0.2 0 0.3 0 0.4 0.1 0.5 0.2 0.2 0.5 0.3v0.2q-0.3 0.1-0.5 0.2-0.3 0-0.6 0-0.3 0-0.4-0.1zm2-8.5q-0.1 0.1-0.2 0.3-0.1 0.1-0.2 0.1-0.2 0.1-0.3 0.1-0.3 0-0.5-0.2-0.2-0.1-0.2-0.5 0-0.1 0.1-0.3 0.1-0.1 0.2-0.2 0.1-0.2 0.2-0.2 0.1-0.1 0.3-0.1 0.3 0 0.4 0.2 0.2 0.2 0.2 0.5 0 0.1 0 0.3zm1.4 10.5q-0.1 0.5-0.4 0.8c-0.1 0.2-0.3 0.4-0.5 0.5q-0.3 0.1-0.7 0.1-0.3 0-0.5-0.1-0.3-0.1-0.4-0.3v-0.2q0.3 0 0.6-0.1 0.3-0.1 0.5-0.4 0.3-0.2 0.4-0.5 0.2-0.4 0.3-0.9l0.7-6 0.1-0.8-0.9-0.3v-0.2q0.4-0.2 0.7-0.2 0.3-0.1 0.7-0.1 0.3 0 0.6 0.1l-0.9 7.4q-0.1 0.8-0.3 1.2zm1.5-10.5q0 0.1-0.2 0.3-0.1 0.1-0.2 0.1-0.1 0.1-0.3 0.1-0.3 0-0.4-0.2-0.2-0.1-0.2-0.5 0-0.1 0-0.3 0.1-0.1 0.2-0.2 0.1-0.2 0.3-0.2 0.1-0.1 0.2-0.1 0.2 0 0.3 0 0.1 0.1 0.2 0.2 0.1 0.1 0.1 0.2 0.1 0.1 0.1 0.3 0 0.1-0.1 0.3zm1-1.1q0.3-0.2 0.6-0.2 0.4-0.1 0.8-0.1 0.1 0 0.3 0 0.2 0.1 0.3 0.1l-0.8 6 0.8-0.6q0.2-0.1 0.4-0.4 0.2-0.3 0.4-0.6 0.3-0.3 0.4-0.7 0.2-0.3 0.3-0.7 0.5 0 0.7 0.2 0.2 0.1 0.2 0.3 0 0.2-0.2 0.5-0.1 0.3-0.4 0.5-0.2 0.4-0.6 0.7-0.3 0.3-0.7 0.5l-0.6 0.4 1.7 2.7q0.2 0.3 0.4 0.4 0.2 0.2 0.5 0.3v0.3q-0.2 0.1-0.3 0.1-0.2 0.1-0.5 0.1-0.2 0-0.3-0.1-0.2 0-0.3-0.1-0.1-0.1-0.3-0.3-0.1-0.2-0.3-0.4l-1.4-2.6-0.2 3.3h-1.2l0.6-3.6 0.5-5.5-0.8-0.3zm8.8 4.1q-0.1 0.2-0.2 0.3-0.3-0.3-0.7-0.5-0.4-0.2-0.8-0.2-0.5 0-0.7 0.3-0.2 0.2-0.2 0.5 0 0.2 0 0.3 0.1 0.1 0.1 0.3 0.1 0.1 0.3 0.3 0.2 0.1 0.4 0.4l0.6 0.4q0.2 0.3 0.4 0.5 0.1 0.1 0.2 0.3 0.2 0.2 0.2 0.4 0 0.2 0 0.4 0 0.4-0.2 0.8-0.1 0.4-0.5 0.7-0.3 0.2-0.8 0.4-0.4 0.2-1 0.2-0.6 0-1-0.2-0.2-0.2-0.3-0.6 0.1-0.2 0.1-0.3 0.1-0.2 0.2-0.3 0.3 0.3 0.6 0.4 0.3 0.2 0.7 0.2 0.3 0 0.4-0.1 0.3 0 0.4-0.2 0.2-0.1 0.3-0.3 0.1-0.1 0.1-0.4 0-0.1-0.1-0.3 0-0.1-0.1-0.3-0.1-0.1-0.3-0.3-0.1-0.2-0.4-0.4l-0.5-0.5q-0.2-0.2-0.4-0.4-0.1-0.1-0.2-0.3-0.1-0.2-0.1-0.4-0.1-0.2-0.1-0.4 0-0.4 0.2-0.7 0.1-0.3 0.4-0.6 0.3-0.2 0.7-0.4 0.4-0.1 0.9-0.1 0.7 0 1.1 0.2 0.4 0.2 0.4 0.5 0 0.2-0.1 0.4zm0.7-0.9q0.3-0.1 0.6-0.1 0.3-0.1 0.7-0.1 0.1 0 0.3 0 0.2 0.1 0.3 0.1l-0.4 2 0.7-1.2q0.3-0.5 0.6-0.7 0.3-0.2 0.6-0.2 0.2 0 0.3 0.2 0.1 0.1 0.1 0.3 0 0.2 0 0.4-0.1 0.2-0.1 0.4-0.1-0.1-0.3-0.1-0.1 0-0.2 0-0.3 0-0.6 0.2-0.3 0.2-0.6 0.6-0.2 0.4-0.4 1.1-0.2 0.7-0.2 1.6l-0.1 2h-1.2l0.7-5.9-0.8-0.3zm7.8 5.2q0 0.1 0 0.2 0 0.3-0.1 0.5-0.2 0.2-0.5 0.4-0.2 0.1-0.6 0.2-0.4 0.2-0.8 0.1-0.4 0.1-0.8-0.1-0.3-0.1-0.6-0.4-0.2-0.3-0.4-0.8-0.1-0.4-0.1-1.1 0-1.1 0.2-2 0.3-0.8 0.7-1.4 0.4-0.5 0.9-0.8 0.5-0.3 1.1-0.3 0.7 0 1 0.3 0.4 0.4 0.4 1.1 0 0.6-0.3 1.1-0.3 0.5-0.7 0.8-0.5 0.4-1.1 0.5-0.6 0.2-1.2 0.2 0 0.6 0.1 1 0.1 0.4 0.2 0.7 0.2 0.2 0.4 0.3 0.2 0.1 0.6 0.1 0.1 0 0.4-0.1 0.2 0 0.4-0.1 0.2-0.1 0.4-0.2 0.1-0.2 0.2-0.3 0.1 0 0.2 0.1zm-0.9-4.5q-0.1-0.2-0.4-0.2-0.3 0-0.5 0.2-0.3 0.1-0.5 0.5-0.2 0.3-0.4 0.8-0.1 0.5-0.1 1.1 0.5 0 0.9-0.1 0.3-0.1 0.6-0.4 0.3-0.2 0.5-0.5 0.1-0.3 0.1-0.7 0-0.5-0.2-0.7zm2.3 5.7q-0.2-0.2-0.2-0.5 0-0.1 0-0.4 0.1-0.2 0.1-0.4 0-0.3 0-0.5 0.1-0.3 0.1-0.5l0.9-6.8-0.8-0.2v-0.3q0.3-0.1 0.6-0.2 0.4 0 0.7 0 0.2 0 0.4 0 0.2 0 0.3 0.1l-1.1 7.2q0 0.1 0 0.3 0 0.2 0 0.4 0 0.2 0 0.4-0.1 0.2-0.1 0.4 0.1 0.3 0.2 0.5 0.2 0.2 0.5 0.3v0.2q-0.5 0.2-1.1 0.2-0.3 0-0.5-0.2zm7-3.4q0 0.3-0.1 0.7 0 0.4 0 0.7 0 0.3-0.1 0.5 0 0.4 0.1 0.6 0 0.2 0.1 0.3 0.1 0.1 0.2 0.2 0.1 0 0.3 0.1v0.2q-0.3 0.1-0.6 0.2-0.3 0-0.6 0-0.2 0-0.3 0-0.2 0-0.3-0.1l0.3-2q-0.2 0.5-0.4 0.9-0.3 0.4-0.6 0.7-0.2 0.3-0.5 0.5-0.3 0.1-0.6 0.1-0.2 0-0.5-0.1-0.2-0.2-0.4-0.5-0.1-0.3-0.2-0.8-0.1-0.4-0.1-1 0-1.1 0.2-1.9 0.3-0.8 0.8-1.4 0.5-0.6 1.1-0.9 0.6-0.3 1.4-0.3 0.1 0 0.3 0 0.2 0.1 0.4 0.1 0.2 0 0.4 0.1 0.2 0 0.4 0l-0.5 2.4q-0.1 0.3-0.2 0.7zm-0.9-2.5q-0.2 0-0.4 0-0.4 0-0.8 0.2-0.3 0.2-0.6 0.7-0.3 0.4-0.5 1.1-0.1 0.7-0.1 1.5 0 0.5 0 0.8 0.1 0.3 0.2 0.5 0.1 0.2 0.2 0.3 0.2 0.1 0.3 0.1 0.2 0 0.4-0.2 0.3-0.2 0.5-0.5 0.3-0.3 0.5-0.9 0.2-0.5 0.3-1.2l0.4-2.3q-0.2 0-0.4-0.1zm5.5 0q-0.2 0.2-0.9 0.2h-0.4l-0.2 1.4q0 0.3-0.1 0.6 0 0.3-0.1 0.6 0 0.4-0.1 0.7 0 0.3 0 0.5 0 0.3 0.1 0.6 0.1 0.2 0.2 0.4 0.2 0.1 0.3 0.2 0.2 0.1 0.5 0.1 0.1 0 0.3 0 0.1-0.1 0.2-0.1v0.2q0 0.2-0.1 0.3-0.1 0.1-0.3 0.2-0.2 0.1-0.4 0.1-0.2 0.1-0.4 0.1-0.7 0-1.1-0.5-0.3-0.4-0.3-1.2 0-0.3 0-0.7 0.1-0.4 0.1-0.9 0.1-0.4 0.2-0.9 0-0.4 0.1-0.8l0.2-0.9q-0.2 0-0.4 0-0.1 0-0.4-0.1v-0.1q0.4-0.5 0.9-0.9 0.4-0.5 1-0.8h0.2l-0.2 1.1h0.4q0.3 0 0.5 0 0.2 0 0.5-0.1 0 0.5-0.3 0.7zm1 5.9q-0.2-0.2-0.2-0.5 0-0.1 0-0.3 0.1-0.3 0.1-0.5 0-0.3 0.1-0.5 0-0.3 0-0.5l0.5-2.8v-0.8l-0.8-0.3v-0.2q0.3-0.1 0.7-0.2 0.3 0 0.7 0 0.2 0 0.3 0 0.2 0 0.3 0l-0.6 4.1q0 0.1-0.1 0.3 0 0.2 0 0.4 0 0.2 0 0.4 0 0.2 0 0.3 0 0.4 0.1 0.6 0.1 0.1 0.4 0.2v0.3q-0.2 0.1-0.5 0.1-0.2 0.1-0.5 0.1-0.3 0-0.5-0.2zm2-8.5q0 0.2-0.1 0.3-0.1 0.1-0.3 0.2-0.1 0-0.3 0-0.3 0-0.4-0.2-0.2-0.1-0.2-0.4 0-0.2 0-0.4 0.1-0.1 0.2-0.2 0.1-0.1 0.2-0.2 0.2-0.1 0.3-0.1 0.3 0 0.5 0.2 0.2 0.2 0.2 0.5 0 0.2-0.1 0.3zm4.5 7.3q0.1 0.1 0.1 0.2 0 0.3-0.2 0.5-0.1 0.2-0.4 0.4-0.2 0.1-0.6 0.2-0.4 0.2-0.8 0.1-0.4 0.1-0.8-0.1-0.3-0.1-0.6-0.4-0.2-0.3-0.4-0.8-0.1-0.4-0.1-1.1 0-1.1 0.2-2 0.3-0.8 0.7-1.4 0.4-0.5 0.9-0.8 0.5-0.3 1-0.3 0.7 0 1.1 0.3 0.4 0.4 0.4 1.1 0 0.6-0.3 1.1-0.3 0.5-0.7 0.8-0.5 0.4-1.1 0.5-0.6 0.2-1.2 0.2 0 0.6 0.1 1 0.1 0.4 0.2 0.7 0.2 0.2 0.4 0.3 0.2 0.1 0.5 0.1 0.2 0 0.4-0.1 0.3 0 0.5-0.1 0.2-0.1 0.4-0.2 0.1-0.2 0.2-0.3 0.1 0 0.1 0.1zm-0.8-4.5q-0.2-0.2-0.5-0.2-0.2 0-0.4 0.2-0.3 0.1-0.5 0.5-0.2 0.3-0.4 0.8-0.1 0.5-0.1 1.1 0.4 0 0.8-0.1 0.4-0.1 0.7-0.4 0.3-0.2 0.4-0.5 0.2-0.3 0.2-0.7 0-0.5-0.2-0.7zm5.6 0.1q-0.1 0.3-0.2 0.4-0.3-0.3-0.7-0.5-0.4-0.2-0.8-0.2-0.5 0-0.7 0.2-0.2 0.2-0.2 0.6 0 0.1 0 0.3 0 0.1 0.1 0.2 0.1 0.2 0.3 0.3 0.2 0.2 0.4 0.4l0.5 0.5q0.3 0.2 0.5 0.4 0.1 0.2 0.2 0.4 0.1 0.2 0.2 0.4 0 0.2 0 0.4 0 0.4-0.2 0.8-0.2 0.3-0.5 0.6-0.4 0.3-0.8 0.5-0.5 0.1-1 0.1-0.7 0-1-0.2-0.3-0.2-0.3-0.6 0-0.1 0.1-0.3 0-0.1 0.1-0.2 0.3 0.3 0.7 0.4 0.3 0.1 0.7 0.1 0.2 0 0.4 0 0.2-0.1 0.4-0.2 0.2-0.1 0.2-0.3 0.1-0.2 0.1-0.4 0.1-0.2 0-0.3 0-0.2-0.1-0.3-0.1-0.2-0.3-0.4-0.2-0.1-0.4-0.4l-0.5-0.4q-0.2-0.2-0.4-0.4-0.1-0.2-0.2-0.4-0.1-0.2-0.2-0.3 0-0.2 0-0.5 0-0.3 0.2-0.6 0.1-0.3 0.4-0.6 0.3-0.2 0.7-0.4 0.4-0.2 0.8-0.2 0.8 0 1.1 0.2 0.4 0.3 0.4 0.6 0 0.1 0 0.3z"/>
</svg>