<svg version="1.2" xmlns="http://www.w3.org/2000/svg" viewBox="0 0 2092 2160">
    <style>.a{fill:#5a9bd5}.b{fill:#ed7d31}.c{fill:#188754}.d{fill:#000}</style>
    <path class="a"
        d="m1238.7 1928.2c-56 96.9-67 230.7-192 230.7-125.1 0-136.1-133.8-192.1-230.7-187.3-37.5-355.2-128.6-486.9-256.8l96.1-90.8c151.2 145.2 356.6 234.4 582.9 234.4 226.2 0 431.6-89.2 582.8-234.4l96 90.8c-131.7 128.2-299.5 219.3-486.8 256.8z" />
    <path class="b"
        d="m1311.6 36.5c162.4 45.8 307.5 132.7 423.5 248.6 14.5 14.6 28.6 29.5 42.1 44.9 112 0 233.6-57.5 296.2 50.8 62.5 108.3-47.9 184.7-103.9 281.6 32.9 97.7 50.8 202.4 50.8 311.2 0 82.4-10.3 162.5-29.5 239l-126.8-37.8c15.8-64.5 24.3-131.9 24.3-201.2 0-232.5-94.2-442.9-246.5-595.1-99-99-222.6-173.4-360.7-213.4z" />
    <path class="c"
        d="m122.5 665.6c-56-96.9-166.4-173.3-103.9-281.6 62.6-108.3 184.2-50.8 296.2-50.8 13.6-15.4 27.6-30.3 42.1-44.9 116-115.9 261.1-202.8 423.5-248.6l30.6 128.6c-138.2 40-261.8 114.4-360.8 213.4-152.2 152.2-246.5 362.6-246.5 595.1 0 69.3 8.5 136.7 24.3 201.2l-126.7 37.8c-19.3-76.5-29.6-156.6-29.6-239 0-108.8 17.8-213.5 50.8-311.2z" />
    <path fill-rule="evenodd" class="d"
        d="m1514.8 505.5c119.8 119.7 193.9 285.2 193.9 468.1 0 97.1-21 189.4-58.6 272.4l272.7 157.4-65.6 114-272.9-157.6c-20.9 29.1-44.2 56.5-69.5 81.8-119.9 119.8-285.4 193.9-468.1 193.9-182.9 0-348.4-74.1-468.2-193.9-25.3-25.3-48.6-52.7-69.5-81.8l-273 157.6-65.5-114 272.7-157.4c-37.6-83-58.6-175.3-58.6-272.4 0-182.9 74.1-348.4 193.9-468.1 105.2-105.2 245.7-175.2 402.1-190.6v-314.9h132.1v314.9c156.4 15.4 296.9 85.4 402.1 190.6zm-93.4 93.4c-95.9-96-228.4-155.3-374.7-155.3-146.4 0-278.9 59.3-374.8 155.3-96 95.8-155.3 228.3-155.3 374.7 0 146.3 59.3 278.8 155.3 374.7 95.9 95.9 228.4 155.1 374.8 155.1 146.3 0 278.8-59.2 374.7-155.1 96-95.9 155.3-228.4 155.3-374.7 0-146.4-59.3-278.9-155.3-374.7z" />
    <path class="d"
        d="m973.5 944.9l-91.5 354.2h329.3l-91.5-354.2c50.1-26.3 84.3-78.9 84.3-139.4 0-86.9-70.5-157.5-157.4-157.5-87 0-157.5 70.6-157.5 157.5 0 60.5 34.2 113.1 84.3 139.4z" />
</svg>