<svg xmlns="http://www.w3.org/2000/svg" xml:space="preserve" id="Layer_1" x="0" y="0" viewBox="0 0 475.2 83.6"><style>.st0{fill:#717373}.st1{fill:#4274b9}</style><path d="M6.2 11.2H30c5.7 0 10.7 1.1 15.1 3.3s7.8 5.2 10.2 9.2q3.6 5.85 3.6 13.8 0 7.8-3.6 13.8c-2.4 3.9-5.8 7-10.2 9.2s-9.4 3.3-15.1 3.3H6.2zm23.2 42.5c5.2 0 9.4-1.5 12.5-4.4s4.7-6.9 4.7-11.9-1.6-9-4.7-11.9-7.3-4.4-12.5-4.4h-11v32.5h11zM97.9 27.2c3.3 3 5 7.5 5 13.4v23H92v-5c-2.2 3.7-6.3 5.6-12.3 5.6-3.1 0-5.8-.5-8.1-1.6-2.3-1-4-2.5-5.2-4.3q-1.8-2.7-1.8-6.3c0-3.7 1.4-6.7 4.2-8.8S76 40 81.9 40h9.3c0-2.5-.8-4.5-2.3-5.9S85 32 81.9 32c-2.1 0-4.3.3-6.3 1s-3.8 1.6-5.3 2.7l-4.2-8.2c2.2-1.5 4.8-2.7 7.9-3.6 3.1-.8 6.2-1.3 9.5-1.3 6.3.2 11.1 1.7 14.4 4.6M87.9 55c1.5-.9 2.6-2.3 3.3-4.1v-4.1h-8c-4.8 0-7.2 1.6-7.2 4.7q0 2.25 1.8 3.6c1.2.9 2.8 1.3 4.8 1.3s3.8-.5 5.3-1.4M152.7 23.4l-17 40.3h-12.1l-16.9-40.3h12.1L130 50.8l11.5-27.4zM158.1 15.9c-1.3-1.2-2-2.8-2-4.6s.7-3.4 2-4.6 3.1-1.9 5.2-1.9 3.9.6 5.2 1.8 2 2.7 2 4.5c0 1.9-.7 3.6-2 4.8s-3.1 1.9-5.2 1.9-3.8-.7-5.2-1.9m-.6 7.5h11.7v40.3h-11.7zM221.1 8.1v55.6H210V59c-2.9 3.5-7.1 5.2-12.6 5.2-3.8 0-7.2-.8-10.3-2.5s-5.5-4.1-7.2-7.3c-1.7-3.1-2.6-6.8-2.6-10.9s.9-7.8 2.6-10.9 4.2-5.6 7.2-7.3c3.1-1.7 6.5-2.5 10.3-2.5 5.1 0 9.2 1.6 12.1 4.9V8.1zm-14.4 43.5c1.9-2 2.9-4.7 2.9-8.1s-1-6.1-2.9-8.1-4.4-3-7.3-3c-3 0-5.5 1-7.4 3s-2.9 4.7-2.9 8.1 1 6.1 2.9 8.1 4.4 3 7.4 3c2.9.1 5.4-.9 7.3-3" class="st0"/><path d="M268.2 36.6h11.1v21.3c-2.8 2.1-6.1 3.8-9.9 4.9-3.7 1.1-7.5 1.7-11.3 1.7-5.4 0-10.3-1.2-14.7-3.5-4.3-2.3-7.8-5.5-10.2-9.7-2.5-4.1-3.7-8.8-3.7-14s1.2-9.8 3.7-14c2.5-4.1 5.9-7.3 10.3-9.7 4.4-2.3 9.3-3.5 14.8-3.5 4.6 0 8.8.8 12.5 2.3s6.9 3.8 9.4 6.7l-7.8 7.2c-3.7-3.9-8.3-5.9-13.6-5.9-3.3 0-6.3.7-8.9 2.1s-4.6 3.4-6.1 5.9c-1.4 2.5-2.2 5.5-2.2 8.8 0 3.2.7 6.1 2.2 8.7 1.4 2.5 3.5 4.5 6 6 2.6 1.4 5.5 2.1 8.8 2.1 3.5 0 6.6-.7 9.4-2.2V36.6zM306.5 24.3c2.4-1 5.1-1.5 8.2-1.5v10.8c-1.3-.1-2.2-.2-2.6-.2-3.3 0-6 .9-7.9 2.8s-2.8 4.7-2.8 8.4v19h-11.7V23.4h11.2v5.3c1.3-2 3.2-3.4 5.6-4.4M329 61.6c-3.4-1.8-6-4.2-7.9-7.4-1.9-3.1-2.8-6.7-2.8-10.7s.9-7.6 2.8-10.7 4.5-5.6 7.9-7.4q5.1-2.7 11.4-2.7t11.4 2.7c3.3 1.8 6 4.2 7.9 7.4 1.9 3.1 2.8 6.7 2.8 10.7s-.9 7.6-2.8 10.7-4.5 5.6-7.9 7.4-7.1 2.7-11.4 2.7q-6.3 0-11.4-2.7m18.8-10c1.9-2 2.9-4.7 2.9-8.1s-1-6.1-2.9-8.1-4.4-3-7.4-3-5.5 1-7.4 3-2.9 4.7-2.9 8.1 1 6.1 2.9 8.1 4.4 3 7.4 3 5.5-.9 7.4-3M410.9 23.4v40.3h-11.1v-4.8c-1.5 1.7-3.4 3.1-5.5 4s-4.5 1.4-7 1.4c-5.3 0-9.5-1.5-12.6-4.6-3.1-3-4.6-7.6-4.6-13.6V23.4h11.7v21c0 6.5 2.7 9.7 8.2 9.7 2.8 0 5-.9 6.7-2.7s2.5-4.5 2.5-8.1V23.4zM455.8 25.4c3.1 1.7 5.5 4.1 7.2 7.3 1.7 3.1 2.6 6.8 2.6 10.9s-.9 7.8-2.6 10.9-4.2 5.5-7.2 7.3c-3.1 1.7-6.5 2.6-10.2 2.6-5.1 0-9.2-1.6-12.1-4.9v18.8h-11.7V23.4H433V28c2.9-3.5 7.1-5.2 12.7-5.2 3.7 0 7.1.8 10.1 2.6M451 51.6c1.9-2 2.9-4.7 2.9-8.1s-1-6.1-2.9-8.1-4.4-3-7.4-3-5.5 1-7.4 3-2.9 4.7-2.9 8.1 1 6.1 2.9 8.1 4.4 3 7.4 3 5.5-.9 7.4-3" class="st1"/><path d="m468.7 75.1-1.5-2.1h-1.6v2.1h-1.8v-7.7h3.3q1.05 0 1.8.3c.5.2.9.5 1.2 1 .3.4.4.9.4 1.5s-.1 1.1-.4 1.5-.7.7-1.2 1l1.7 2.5h-1.9zm-.4-5.9q-.45-.3-1.2-.3h-1.5v2.7h1.5c.5 0 .9-.1 1.2-.4s.4-.6.4-1-.1-.8-.4-1" class="st0"/><circle cx="466.9" cy="71" r="6.9" style="fill:none;stroke:#717373;stroke-width:2;stroke-miterlimit:10"/></svg>