<?xml version="1.0" encoding="utf-8"?>
<!-- Generator: Adobe Illustrator 24.3.0, SVG Export Plug-In . SVG Version: 6.00 Build 0)  -->
<svg version="1.1" id="Layer_1" xmlns="http://www.w3.org/2000/svg" xmlns:xlink="http://www.w3.org/1999/xlink" x="0px" y="0px"
	 viewBox="0 0 475.2 83.6" style="enable-background:new 0 0 475.2 83.6;" xml:space="preserve">
<style type="text/css">
	.st0{fill:#717373;}
	.st1{fill:#4274B9;}
	.st2{fill:none;stroke:#717373;stroke-width:2;stroke-miterlimit:10;}
</style>
<g>
	<path class="st0" d="M6.2,11.2H30c5.7,0,10.7,1.1,15.1,3.3c4.4,2.2,7.8,5.2,10.2,9.2c2.4,3.9,3.6,8.5,3.6,13.8
		c0,5.2-1.2,9.8-3.6,13.8c-2.4,3.9-5.8,7-10.2,9.2c-4.4,2.2-9.4,3.3-15.1,3.3H6.2V11.2z M29.4,53.7c5.2,0,9.4-1.5,12.5-4.4
		c3.1-2.9,4.7-6.9,4.7-11.9c0-5-1.6-9-4.7-11.9c-3.1-2.9-7.3-4.4-12.5-4.4H18.4v32.5H29.4z"/>
	<path class="st0" d="M97.9,27.2c3.3,3,5,7.5,5,13.4v23H92v-5c-2.2,3.7-6.3,5.6-12.3,5.6c-3.1,0-5.8-0.5-8.1-1.6
		c-2.3-1-4-2.5-5.2-4.3c-1.2-1.8-1.8-3.9-1.8-6.3c0-3.7,1.4-6.7,4.2-8.8c2.8-2.1,7.2-3.2,13.1-3.2h9.3c0-2.5-0.8-4.5-2.3-5.9
		c-1.5-1.4-3.9-2.1-7-2.1c-2.1,0-4.3,0.3-6.3,1s-3.8,1.6-5.3,2.7l-4.2-8.2c2.2-1.5,4.8-2.7,7.9-3.6c3.1-0.8,6.2-1.3,9.5-1.3
		C89.8,22.8,94.6,24.3,97.9,27.2z M87.9,55c1.5-0.9,2.6-2.3,3.3-4.1v-4.1h-8c-4.8,0-7.2,1.6-7.2,4.7c0,1.5,0.6,2.7,1.8,3.6
		c1.2,0.9,2.8,1.3,4.8,1.3C84.6,56.4,86.4,55.9,87.9,55z"/>
	<path class="st0" d="M152.7,23.4l-17,40.3h-12.1l-16.9-40.3h12.1L130,50.8l11.5-27.4H152.7z"/>
	<path class="st0" d="M158.1,15.9c-1.3-1.2-2-2.8-2-4.6s0.7-3.4,2-4.6c1.3-1.2,3.1-1.9,5.2-1.9c2.1,0,3.9,0.6,5.2,1.8
		c1.3,1.2,2,2.7,2,4.5c0,1.9-0.7,3.6-2,4.8s-3.1,1.9-5.2,1.9C161.2,17.8,159.5,17.1,158.1,15.9z M157.5,23.4h11.7v40.3h-11.7V23.4z"
		/>
	<path class="st0" d="M221.1,8.1v55.6H210V59c-2.9,3.5-7.1,5.2-12.6,5.2c-3.8,0-7.2-0.8-10.3-2.5c-3.1-1.7-5.5-4.1-7.2-7.3
		c-1.7-3.1-2.6-6.8-2.6-10.9c0-4.1,0.9-7.8,2.6-10.9c1.7-3.1,4.2-5.6,7.2-7.3c3.1-1.7,6.5-2.5,10.3-2.5c5.1,0,9.2,1.6,12.1,4.9V8.1
		H221.1z M206.7,51.6c1.9-2,2.9-4.7,2.9-8.1c0-3.4-1-6.1-2.9-8.1c-1.9-2-4.4-3-7.3-3c-3,0-5.5,1-7.4,3c-1.9,2-2.9,4.7-2.9,8.1
		c0,3.4,1,6.1,2.9,8.1c1.9,2,4.4,3,7.4,3C202.3,54.7,204.8,53.7,206.7,51.6z"/>
	<path class="st1" d="M268.2,36.6h11.1v21.3c-2.8,2.1-6.1,3.8-9.9,4.9c-3.7,1.1-7.5,1.7-11.3,1.7c-5.4,0-10.3-1.2-14.7-3.5
		c-4.3-2.3-7.8-5.5-10.2-9.7c-2.5-4.1-3.7-8.8-3.7-14c0-5.2,1.2-9.8,3.7-14c2.5-4.1,5.9-7.3,10.3-9.7c4.4-2.3,9.3-3.5,14.8-3.5
		c4.6,0,8.8,0.8,12.5,2.3c3.7,1.5,6.9,3.8,9.4,6.7l-7.8,7.2c-3.7-3.9-8.3-5.9-13.6-5.9c-3.3,0-6.3,0.7-8.9,2.1
		c-2.6,1.4-4.6,3.4-6.1,5.9c-1.4,2.5-2.2,5.5-2.2,8.8c0,3.2,0.7,6.1,2.2,8.7c1.4,2.5,3.5,4.5,6,6c2.6,1.4,5.5,2.1,8.8,2.1
		c3.5,0,6.6-0.7,9.4-2.2V36.6z"/>
	<path class="st1" d="M306.5,24.3c2.4-1,5.1-1.5,8.2-1.5v10.8c-1.3-0.1-2.2-0.2-2.6-0.2c-3.3,0-6,0.9-7.9,2.8
		c-1.9,1.9-2.8,4.7-2.8,8.4v19h-11.7V23.4h11.2v5.3C302.2,26.7,304.1,25.3,306.5,24.3z"/>
	<path class="st1" d="M329,61.6c-3.4-1.8-6-4.2-7.9-7.4c-1.9-3.1-2.8-6.7-2.8-10.7c0-4,0.9-7.6,2.8-10.7c1.9-3.1,4.5-5.6,7.9-7.4
		c3.4-1.8,7.2-2.7,11.4-2.7c4.2,0,8,0.9,11.4,2.7c3.3,1.8,6,4.2,7.9,7.4c1.9,3.1,2.8,6.7,2.8,10.7c0,4-0.9,7.6-2.8,10.7
		c-1.9,3.1-4.5,5.6-7.9,7.4s-7.1,2.7-11.4,2.7C336.2,64.3,332.4,63.4,329,61.6z M347.8,51.6c1.9-2,2.9-4.7,2.9-8.1
		c0-3.4-1-6.1-2.9-8.1c-1.9-2-4.4-3-7.4-3s-5.5,1-7.4,3c-1.9,2-2.9,4.7-2.9,8.1c0,3.4,1,6.1,2.9,8.1c1.9,2,4.4,3,7.4,3
		S345.9,53.7,347.8,51.6z"/>
	<path class="st1" d="M410.9,23.4v40.3h-11.1v-4.8c-1.5,1.7-3.4,3.1-5.5,4c-2.1,0.9-4.5,1.4-7,1.4c-5.3,0-9.5-1.5-12.6-4.6
		c-3.1-3-4.6-7.6-4.6-13.6V23.4h11.7v21c0,6.5,2.7,9.7,8.2,9.7c2.8,0,5-0.9,6.7-2.7c1.7-1.8,2.5-4.5,2.5-8.1V23.4H410.9z"/>
	<path class="st1" d="M455.8,25.4c3.1,1.7,5.5,4.1,7.2,7.3c1.7,3.1,2.6,6.8,2.6,10.9c0,4.1-0.9,7.8-2.6,10.9
		c-1.7,3.1-4.2,5.5-7.2,7.3c-3.1,1.7-6.5,2.6-10.2,2.6c-5.1,0-9.2-1.6-12.1-4.9v18.8h-11.7V23.4H433V28c2.9-3.5,7.1-5.2,12.7-5.2
		C449.4,22.8,452.8,23.6,455.8,25.4z M451,51.6c1.9-2,2.9-4.7,2.9-8.1c0-3.4-1-6.1-2.9-8.1c-1.9-2-4.4-3-7.4-3s-5.5,1-7.4,3
		c-1.9,2-2.9,4.7-2.9,8.1c0,3.4,1,6.1,2.9,8.1c1.9,2,4.4,3,7.4,3S449.1,53.7,451,51.6z"/>
</g>
<g>
	<g>
		<path class="st0" d="M468.7,75.1l-1.5-2.1h-0.1h-1.5v2.1h-1.8v-7.7h3.3c0.7,0,1.3,0.1,1.8,0.3c0.5,0.2,0.9,0.5,1.2,1
			c0.3,0.4,0.4,0.9,0.4,1.5s-0.1,1.1-0.4,1.5c-0.3,0.4-0.7,0.7-1.2,1l1.7,2.5H468.7z M468.3,69.2c-0.3-0.2-0.7-0.3-1.2-0.3h-1.5v2.7
			h1.5c0.5,0,0.9-0.1,1.2-0.4s0.4-0.6,0.4-1C468.7,69.8,468.6,69.4,468.3,69.2z"/>
	</g>
</g>
<circle class="st2" cx="466.9" cy="71" r="6.9"/>
</svg>
