<svg xmlns="http://www.w3.org/2000/svg" viewBox="0 0 400 431.211"><g fill-rule="evenodd"><path fill="#fbfafa" d="M320.594 119.778c-12.15 1.889-18.628 8.754-18.1 19.18.53 10.451 5.492 14.598 21.783 18.203 12.868 2.847 15.347 4.563 15.314 10.599-.03 5.711-4.163 8.438-12.791 8.439-10.035.002-14.441-2.828-17.158-11.017l-1.123-3.382-3.059-.117-3.06-.117v17.154l3.5 1.468c22.309 9.356 45.565 2.571 46.408-13.54.59-11.285-4.834-17.163-18.914-20.496-16.232-3.841-18.436-5.184-18.117-11.029.286-5.231 3.619-7.594 11.077-7.854 9.392-.327 13.343 2.14 15.861 9.906l.851 2.625H349l.108-7.655.109-7.654-3.557-1.424c-8.539-3.418-17.055-4.535-25.066-3.289m-281.127 1.289c-.147.146-.267 1.849-.267 3.784v3.518l3.491.115 3.492.116 3.301 11.2c1.816 6.16 5.31 18.265 7.764 26.9l4.462 15.7h6.118c5.479 0 6.14-.073 6.33-.7.117-.385 2.028-7.09 4.246-14.9 6.854-24.126 8.117-28.4 8.391-28.4.145 0 1.29 3.735 2.544 8.3a4286 4286 0 0 0 6.143 22l3.862 13.7h12.097l3.241-11.3 7.747-27.01 4.505-15.71 6.033.11 6.033.11V175l-3.7.115-3.7.115v7.17h52.8v-20.834l-3.062.117-3.062.117-.928 3.5c-2.375 8.96-3.585 9.686-16.148 9.694l-9 .006v-19.2l8.864-.108 8.863-.107.437-1.252c.547-1.571.554-3.693.017-5.625l-.414-1.493-8.884-.107L152.2 147v-18.4l7.8-.115c12.437-.185 14.341.915 16.651 9.615l.716 2.7h6.233v-20h-74.4v7.6h4.2c2.31 0 4.2.143 4.2.317 0 .517-9.913 36.529-10.109 36.725-.066.066-1.356-4.237-2.869-9.561-2.973-10.47-8.789-31.143-9.45-33.591l-.408-1.51-6.244.11-6.244.11-1.136 4c-.626 2.2-3.33 12.1-6.009 22-5.114 18.892-4.99 18.475-5.375 18.089-.196-.196-10.156-36.034-10.156-36.544 0-.08 1.8-.145 4-.145h4v-7.6H53.667c-7.664 0-14.054.12-14.2.267M191.2 124.6v3.8h7.206l-.103 23.3-.103 23.3-3.5.116-3.5.115v7.169h49.614l-.107-10.3-.107-10.3-3.047-.116-3.047-.116-.868 3.461c-2.228 8.885-3.605 9.841-14.538 10.094l-7.5.173V128.4h8v-7.6h-28.4zm55.2-.015v3.785l3.7.115 3.7.115V175l-3.7.115-3.7.115v7.17H296v-20.8h-5.969l-.421 1.7c-2.601 10.519-3.881 11.578-14.297 11.834-3.568.088-6.944.045-7.503-.096l-1.016-.255.103-23.091L267 128.6l4.1-.114 4.1-.114V120.8h-28.8zm3.4 88.231c-16.634 2.593-26.283 14.378-26.352 32.184-.108 27.994 24.942 40.687 54.016 27.371l2.536-1.162V243.6h-23.072l-.464 1.019c-.565 1.24-.608 4.949-.074 6.355l.39 1.026h10.42v15.925l-1.87.637c-18.563 6.325-31.826-9.291-27.148-31.962 3.951-19.143 27.098-22.822 33.479-5.321l.846 2.321h6.293v-15.853l-2.1-.867c-8.807-3.635-19.394-5.235-26.9-4.064m66.8 0c-19.603 3.055-31.012 20.94-26.203 41.074 7.336 30.715 53.464 31.936 62.734 1.661 7.426-24.249-11.688-46.608-36.531-42.735M48.885 218.1l.115 3.7 3.7.115 3.7.115v46.37h-7.6v7.6h29.6v-7.6h-8.8v-17.985l9.1-.107 9.1-.108.501-2c.375-1.499.393-2.524.073-4.093l-.428-2.092-9.073-.108-9.073-.107-.107-9.9-.107-9.9 9.307.001c12.094 0 13.324.608 15.451 7.627 1.565 5.163 1.235 4.824 4.555 4.69l2.901-.118.107-9.9.107-9.9H48.77zm61.755 22.412C98.295 271.601 99.953 268.4 96.191 268.4H93.2v7.6h23.2v-7.6h-3.376c-4.195 0-4.074.391-1.809-5.8l1.902-5.2 11.562-.106 11.562-.106 1.889 5.306c1.038 2.918 1.884 5.441 1.879 5.606s-1.539.3-3.409.3h-3.4v7.6h55.2v-7.6H180v-18.8h4.527c10.034 0 12.694 2.499 14.088 13.238 1.415 10.898 4.362 13.569 14.958 13.556 5.829-.007 6.046-.094 6.32-2.52.415-3.681-.054-4.673-2.211-4.68-3.945-.012-5.053-1.526-5.9-8.056-1.263-9.751-3.318-12.494-10.982-14.661l-1.4-.395 1.313-.041c13.03-.406 19.602-17.167 10.282-26.225-5.058-4.916-8.033-5.416-32.23-5.416H159.6v7.6h7.2v46.421l-6.063-.111-6.063-.11-2.967-7.2c-1.632-3.96-5.301-12.96-8.153-20a5166 5166 0 0 0-8.026-19.7l-2.839-6.9-5.844.012-5.845.011zm218.259-18.948c12.931 5.023 15.814 33.565 4.449 44.041-5.344 4.926-14.85 5.511-21.237 1.307-11.902-7.834-11.235-37.228 1.007-44.402 3.99-2.339 11.099-2.765 15.781-.946m-131.49 1.658c5.423 2.793 6.618 11.151 2.223 15.546-2.504 2.504-4.651 3.018-12.632 3.026l-6.8.006-.107-9.931-.107-9.93 7.72.13c7.363.125 7.811.178 9.703 1.153m-68.209 15.1c2.249 6.006 4.006 11.005 3.904 11.108s-3.963.138-8.577.078l-8.39-.108 4.214-11.297c2.319-6.213 4.337-11.163 4.487-11 .149.163 2.112 5.212 4.362 11.219"/><path fill="#fccc44" d="M6 409.8v15.4h388v-30.8H6z"/><path fill="#d41c2c" d="M6 200v194h388V6H6zm331-80.042c3.833.957 6.978 2.028 10.208 3.478l2.392 1.073V140H346c-2.812 0-3.6-.122-3.6-.558 0-7.059-5.832-11.637-14.828-11.64-8.267-.003-11.972 2.372-11.972 7.674 0 5.184 2.178 6.6 14.4 9.356 8.792 1.983 11.362 2.834 14.276 4.727 11.82 7.68 11.308 25.394-.912 31.557-9.667 4.875-27.645 4.302-38.964-1.242l-2.6-1.274-.108-8.69-.108-8.691.921-.231c.506-.127 2.084-.176 3.507-.109l2.588.121.851 2.652c2.919 9.098 7.026 12.07 16.749 12.121 8.646.045 12.43-1.985 12.905-6.921.625-6.512-1.534-8.167-14.669-11.247-13.62-3.193-18.157-5.805-21.047-12.116-5.478-11.966 2.696-23.961 18.011-26.431 2.772-.447 12.438.111 15.6.9m-269.084.782c.376.238.484 1.35.4 4.093L68.2 128.6l-4.1.114c-2.255.063-4.1.2-4.1.304 0 .222 2.617 9.557 5.714 20.382 1.196 4.18 2.587 9.177 3.092 11.105.505 1.927.981 3.441 1.059 3.363.211-.21 7.753-26.967 9.942-35.268 1.044-3.96 2.077-7.425 2.295-7.7.705-.89 12.567-.692 13.054.218.339.634 7.318 25.447 10.903 38.762.722 2.685 1.36 4.834 1.417 4.778.212-.212 9.324-34.655 9.324-35.244 0-.511-.673-.614-4.014-.614h-4.014l.114-4.1.114-4.1 36.6-.11c20.13-.06 37.008-.011 37.507.109l.907.22-.107 10.09L183.8 141h-6.722l-1.252-3.887c-2.492-7.742-3.5-8.267-15.926-8.296l-7.5-.017v18h17.62l.39 1.026c.504 1.325.504 5.823 0 7.148l-.39 1.026H152.4v18.4h9.016c12.221 0 12.991-.426 15.197-8.4.578-2.09 1.124-4.032 1.213-4.316.119-.38 1.035-.486 3.468-.4l3.306.116v21.2l-26.714.103-26.714.103.114-4.103.114-4.103 3.7-.115 3.7-.115V128.8h-11.493l-1.232 3.9c-.678 2.145-4.033 13.89-7.454 26.1-3.422 12.21-6.398 22.605-6.613 23.1-.381.878-.543.9-6.609.9H99.18l-.37-.973c-.203-.535-1.83-6.34-3.615-12.9-2.81-10.329-7.602-27.111-8.259-28.927-.119-.33-1.195 2.82-2.391 7s-3.507 12.1-5.136 17.6-3.476 11.8-4.105 14l-1.142 4H61.517l-2.746-9.2c-1.511-5.06-4.98-17.12-7.709-26.8L46.1 129l-3.65-.115-3.65-.115v-3.952c0-2.787.147-4.011.5-4.153.851-.344 28.069-.273 28.616.075m152 0c.376.238.484 1.35.4 4.093l-.116 3.767-4.3.114-4.3.113V174.4l7.5-.009c10.82-.012 11.994-.756 14.118-8.935l1.053-4.056 3.464-.116 3.465-.115v21.637l-25.3-.103-25.3-.103-.116-3.54c-.151-4.6-.095-4.66 4.368-4.66h3.555l-.104-22.7-.103-22.7-3.8-.2-3.8-.2-.116-3.54c-.075-2.265.051-3.741.349-4.1.526-.634 28.101-.843 29.083-.22m55.051-.097c.518.198.633.959.633 4.186v3.943l-4.1.114-4.1.114-.103 22.7-.104 22.7h7.378c10.771 0 12.033-.863 14.264-9.759l.863-3.441h3.343c4.134 0 3.816-1.004 3.672 11.6l-.113 9.8h-50.4v-8l3.7-.115 3.7-.115V128.8H246v-3.933c0-2.164.12-4.054.267-4.2.333-.334 27.835-.356 28.7-.024m-9.567 92.351c3.847.828 8.765 2.436 11.4 3.728l2.2 1.078v16l-3.296.116-3.296.116-1.568-3.395c-3.311-7.166-7.076-9.642-14.64-9.628-12.418.023-17.995 7.458-17.995 23.991 0 13.623 3.588 20.493 12.228 23.414 3.191 1.079 11.246.968 14.467-.2l1.9-.689V252.4h-10.42l-.39-1.026c-.677-1.782-.484-6.371.31-7.34.69-.842.872-.853 12.3-.744l11.6.11.105 14.031.105 14.031-3.305 1.427c-29.701 12.829-54.133.233-54.097-27.889.031-23.329 18.37-37.176 42.392-32.006m65.463.186c31.561 8.364 32.257 55.483.937 63.424-19.48 4.939-37.182-4.672-41.771-22.678-6.503-25.521 15.487-47.463 40.834-40.746M102.2 224.4v10.2l-3.306.116c-2.435.086-3.348-.02-3.462-.4l-1.184-3.942c-2.243-7.476-3.2-7.974-15.333-7.974H70v18.8h8.751c10.426 0 9.849-.281 9.849 4.8s.577 4.8-9.849 4.8H70V268h8.4v8H48.8v-8H56v-45.6h-7.2v-8.406l26.7.103 26.7.103zm33.132-4.4c1.283 3.19 3.499 8.59 4.925 12s4.66 11.33 7.187 17.6a4274 4274 0 0 0 6.031 14.9l1.435 3.5h11.49v-45.6h-7.2v-8.463l20.5.169c22.318.185 22.506.202 27.439 2.616 5.769 2.821 8.261 7.006 8.261 13.87 0 8.086-3.899 13.077-11.845 15.161-1.185.311-1.885.654-1.555.762 7.009 2.296 8.783 4.629 9.822 12.913.985 7.858 1.946 9.372 5.944 9.372 2.223 0 2.634.609 2.634 3.897 0 3.846-.103 3.903-7.068 3.903-10.01 0-13.361-2.59-14.565-11.253-1.764-12.693-3.805-15.01-13.467-15.288l-4.9-.141v18.054l4.1.114 4.1.114.114 3.9.115 3.9H132.8v-8h3.4c4.031 0 3.908.423 1.634-5.6l-1.737-4.6h-22.611l-1.887 5-1.887 5 3.544.115 3.544.115V276H93.2v-7.966l3.018-.117 3.017-.117 3.007-7.4c1.654-4.07 6.043-15.05 9.754-24.4s7.051-17.72 7.423-18.6.832-2.01 1.023-2.51c.342-.9.421-.91 6.452-.8l6.106.11zm181.868 1.325c-9.099 2.631-12.972 9.692-12.988 23.675-.009 7.531.228 9.08 2.189 14.314 4.73 12.626 24.385 13.35 30.579 1.126 3.85-7.599 3.947-22.431.197-30.289-3.423-7.172-12.235-11.065-19.977-8.826m-136.8 10.468v9.469l7.5-.131c10.484-.183 13.415-1.909 13.982-8.231.684-7.608-2.843-10.201-14.182-10.429l-7.3-.147zm-59.879 6.79-4.005 11.017h8.185c7.631 0 8.166-.047 7.914-.7-.149-.385-1.898-5.2-3.887-10.7s-3.749-10.143-3.909-10.317c-.161-.174-2.095 4.641-4.298 10.7"/><path fill="#ec8c94" d="m67.682 124.5-.082 3.9h-4c-3.555 0-3.996.078-3.968.7.018.418.112.499.233.2.141-.35 1.332-.5 3.981-.5 4.439 0 4.236.232 4.053-4.632l-.134-3.568zm41.295.199L109 128.6l3.986.116c2.57.074 4.095.287 4.294.6.211.332.31.265.314-.216.005-.622-.458-.7-4.18-.7h-4.185l-.137-3.801-.138-3.801zm82 0L191 128.6l3.8.025 3.8.025-3.686-.14-3.685-.14-.138-3.786-.137-3.786zm28.705-.213-.082 3.886-4.1.13-4.1.129 4.113.085c4.823.099 4.571.36 4.386-4.548l-.134-3.568zm55.599.2-.081 3.686-4.1.114-4.1.114-.005 23.1-.005 23.1.108-23 .108-23h4.01c4.685 0 4.47.222 4.283-4.433l-.136-3.367zm-234.369 4.009c1.052.082 2.672.081 3.6-.003s.068-.151-1.912-.15-2.74.07-1.688.153m91.888-.001 6 .127v45.949l-3.7.14-3.7.14 3.8-.025L139 175v-46.4l-6.1-.016-6.101-.016zm19.379.215c-.107.281-.143 4.466-.079 9.3l.116 8.791.092-9.092.092-9.092 8.3-.116 8.3-.117-8.313-.092c-6.43-.07-8.356.024-8.508.418m97.921-.216 3.5.137v45.94l-3.5.137-3.5.138 3.6-.023 3.6-.022v-46.4l-3.6-.022-3.6-.023zm85.133-.172c.092.067.707.437 1.367.824l1.2.702-.944-.823c-.52-.453-1.135-.824-1.367-.824s-.347.054-.256.121M302.128 138c0 1.43.073 2.015.161 1.3s.089-1.885 0-2.6c-.088-.715-.161-.13-.161 1.3m-187.499.629c-.148.586-.191 1.143-.097 1.237.095.094.292-.308.439-.895.148-.586.191-1.143.097-1.237-.095-.094-.292.308-.439.895m61.827-.229c0 .33.155.96.344 1.4.217.504.344.578.344.2 0-.33-.155-.96-.344-1.4-.217-.504-.344-.578-.344-.2m-75.2 5.6c0 .33.155.96.344 1.4.217.504.344.578.344.2 0-.33-.155-.96-.344-1.4-.217-.504-.344-.578-.344-.2m205.544 6.2c.746.77 1.447 1.4 1.557 1.4s-.411-.63-1.157-1.4-1.447-1.4-1.557-1.4.411.63 1.157 1.4m-254.344.6c0 .33.155.96.344 1.4.217.504.344.578.344.2 0-.33-.155-.96-.344-1.4-.217-.504-.344-.578-.344-.2m99.724 5.309c-.108.279-.147 4.644-.088 9.7L152.2 175l8 .012 8 .013-7.9-.121-7.9-.121v-18.768l8.9-.115 8.9-.116-8.913-.092c-6.909-.071-8.956.022-9.107.417m26.081 5.391c-.103.165.832.249 2.076.187 3.907-.195 4.378-.365 1.187-.427-1.692-.033-3.161.075-3.263.24m57.339-.054c2.388.3 5.11.33 4.939.054-.103-.165-1.481-.273-3.063-.24s-2.426.116-1.876.186m54.194.164c-.151.244-.166.551-.034.683s.24.03.24-.226c0-.314.981-.467 3-.467h3v20.794l-24.9.108-24.9.107 25-.004 25-.005v-21.2l-3.066-.116c-1.931-.073-3.168.048-3.34.326m12.298 8.49.092 8.9.116-8.73.116-8.73 3.155.13c1.735.071 3.071-.005 2.969-.17s-1.617-.3-3.364-.3H302zm-232.846-6.633c-.071.716.397 1.733.797 1.733.196 0 .357-.281.357-.624s-.166-.52-.37-.395c-.203.126-.452-.088-.553-.476s-.205-.495-.231-.238m283.278 1.933c.002 1.32.077 1.812.166 1.093s.087-1.799-.004-2.4-.164-.013-.162 1.307m-178.498 6.707c-1.139 1.404-1.184 1.522-.263.693.957-.862 2.093-2.414 1.751-2.393-.063.004-.732.769-1.488 1.7M313.2 171.8c.746.77 1.447 1.4 1.557 1.4s-.411-.63-1.157-1.4-1.447-1.4-1.557-1.4.411.63 1.157 1.4m23.775 1.5-1.175 1.3 1.3-1.175c.715-.646 1.3-1.231 1.3-1.3 0-.309-.33-.037-1.425 1.175m-146.089 5.4.114 3.9 24.6.005 24.6.004-24.5-.107-24.5-.108v-7.163l3.5-.133 3.5-.133-3.714-.083-3.715-.082zm23.814-3.602c1.815.074 4.785.074 6.6 0 1.815-.075.33-.135-3.3-.135s-5.115.06-3.3.135m56.019 0c1.825.074 4.705.074 6.4-.001s.201-.136-3.319-.135c-3.52 0-4.906.062-3.081.136m76.666 2.602-1.985 2.1 2.1-1.985c1.951-1.844 2.283-2.215 1.985-2.215-.063 0-1.008.945-2.1 2.1m-24.085-1.413a9 9 0 0 0 2.2 0c.605-.092.11-.167-1.1-.167s-1.705.075-1.1.167m4.4 0a9 9 0 0 0 2.2 0c.605-.092.11-.167-1.1-.167s-1.705.075-1.1.167m-263.2 6.41a86 86 0 0 0 6.2 0c1.705-.075.31-.136-3.1-.136s-4.805.061-3.1.136m38.018.001c1.715.075 4.415.074 6-.001 1.585-.076.182-.138-3.118-.137s-4.597.062-2.882.138m42.611.002c7.331.061 19.211.061 26.4 0s1.191-.111-13.329-.111-20.402.05-13.071.111m177.978 1.59c.719.089 1.799.087 2.4-.004s.013-.164-1.307-.162-1.812.077-1.093.166m7.198-.007c.497.096 1.217.092 1.6-.008.382-.1-.025-.179-.905-.174-.88.004-1.193.086-.695.182M159.346 218.2c.001 2.2.068 3.049.149 1.887.081-1.163.081-2.963-.002-4-.082-1.038-.148-.087-.147 2.113m138.839 3.5-1.985 2.1 2.1-1.985c1.951-1.844 2.283-2.215 1.985-2.215-.063 0-1.008.945-2.1 2.1m47.215-.1c.859.88 1.652 1.6 1.762 1.6s-.503-.72-1.362-1.6-1.652-1.6-1.762-1.6.503.72 1.362 1.6m-15 1.031c.99.562 2.609 1.774 3.598 2.695l1.798 1.674-1.398-1.552c-1.417-1.573-4.605-3.852-5.376-3.843-.232.002.388.464 1.378 1.026m-241 .235c.44.242 1.258.822 1.819 1.288.56.465.427.261-.295-.454s-1.54-1.295-1.818-1.288-.146.211.294.454m177.8 1.734c.746.77 1.447 1.4 1.557 1.4s-.411-.63-1.157-1.4-1.447-1.4-1.557-1.4.411.63 1.157 1.4m-65.091 7.4c0 .99.078 1.395.173.9a5.7 5.7 0 0 0 0-1.8c-.095-.495-.173-.09-.173.9m37.137.439c-.245.704-.433 1.479-.418 1.721s.286-.264.602-1.125c.315-.861.503-1.635.418-1.72-.086-.086-.356.42-.602 1.124M223.293 240c0 .77.082 1.085.183.7s.1-1.015 0-1.4c-.101-.385-.183-.07-.183.7m14.408.2c.004.88.086 1.193.182.695.096-.497.092-1.217-.008-1.6-.1-.382-.179.025-.174.905m66.05 5c0 2.53.065 3.565.145 2.3a45 45 0 0 0 0-4.6c-.08-1.265-.145-.23-.145 2.3m-233.804-3.492c.17.169 4.346.259 9.281.199l8.972-.108-9.281-.2c-5.104-.109-9.142-.06-8.972.109m110.403.003c.172.171 2.998.261 6.281.199l5.969-.113-6.281-.198c-3.455-.11-6.141-.059-5.969.112m159.79 3.489c0 1.87.069 2.635.153 1.7s.084-2.465 0-3.4-.153-.17-.153 1.7m-117.209-.2c.002 1.54.074 2.121.161 1.291s.085-2.09-.003-2.8-.16-.031-.158 1.509m14.37 0c.004.88.086 1.193.182.695.096-.497.092-1.217-.008-1.6-.1-.382-.179.025-.174.905m42.879 12.4c0 7.48.054 10.483.119 6.674.066-3.809.066-9.929 0-13.6s-.12-.554-.119 6.926m-24.466-9.6c.003 1.1.081 1.503.173.895.092-.609.09-1.509-.005-2s-.171.005-.168 1.105m-47.732 2.4c.965 1.1 1.838 2.09 1.94 2.2.103.11-.003-.16-.235-.6s-1.105-1.43-1.94-2.2c-1.444-1.331-1.432-1.301.235.6m29.719-.4c.004.88.086 1.193.182.695.096-.497.092-1.217-.008-1.6-.1-.382-.179.025-.174.905m-14.408.6c0 .77.082 1.085.183.7s.1-1.015 0-1.4c-.101-.385-.183-.07-.183.7m-29.693.925c0 .069.585.654 1.3 1.3l1.3 1.175-1.175-1.3c-1.095-1.212-1.425-1.484-1.425-1.175m63.119.752c.372.367 10.483.603 10.482.245-.001-.153-2.423-.333-5.382-.4-2.96-.067-5.255.003-5.1.155M238.848 256c-.006.33.235 1.14.538 1.8.707 1.545.717.826.014-1-.297-.77-.545-1.13-.552-.8m4.952 8.8c1.083 1.1 2.06 2 2.17 2s-.687-.9-1.77-2-2.06-2-2.17-2 .687.9 1.77 2m54.6 3.8c1.417 1.43 2.667 2.6 2.777 2.6s-.96-1.17-2.377-2.6-2.667-2.6-2.777-2.6.96 1.17 2.377 2.6m46.786.1L343 271l2.3-2.186c2.137-2.032 2.483-2.414 2.186-2.414-.062 0-1.097 1.035-2.3 2.3m-98.786-1.692c0 .341 4.105 2.188 4.8 2.16.33-.013-.047-.263-.838-.554a29 29 0 0 1-2.7-1.182c-.694-.359-1.262-.55-1.262-.424M109.461 268.1c.102.165 1.699.3 3.548.3h3.362l.137 3.801.138 3.801-.023-3.901-.023-3.901-3.663-.2c-2.015-.11-3.579-.065-3.476.1m45.289.011c.172.171 2.998.261 6.281.199l5.969-.113-6.281-.198c-3.455-.11-6.141-.059-5.969.112m-104.037.184c1.163.081 2.963.081 4-.002 1.038-.082.087-.148-2.113-.147s-3.049.068-1.887.149m20.987.001c1.265.079 3.335.079 4.6 0 1.265-.08.23-.145-2.3-.145s-3.565.065-2.3.145m23.011-.003c.94.085 2.38.084 3.2-.002.819-.086.049-.155-1.711-.154s-2.43.072-1.489.156m38.26.239c-.112.292-.144 2.137-.07 4.1l.134 3.568.083-3.884.082-3.885 3.5-.133 3.5-.133-3.513-.083c-2.612-.061-3.564.054-3.716.45m49.144-.236c1.273.08 3.253.079 4.4-.002 1.147-.08.105-.145-2.315-.144s-3.358.066-2.085.146m81.085.504c-.804.257-.843.323-.2.332.44.006 1.16-.143 1.6-.332 1.019-.438-.032-.438-1.4 0m-46.7.287a9 9 0 0 0 2.2 0c.605-.092.11-.167-1.1-.167s-1.705.075-1.1.167m101.6.389c.385.1 1.015.1 1.4 0 .385-.101.07-.183-.7-.183s-1.085.082-.7.183m6 0c.385.1 1.015.1 1.4 0 .385-.101.07-.183-.7-.183s-1.085.082-.7.183m-68.4.411a9 9 0 0 0 2.2 0c.605-.092.11-.167-1.1-.167s-1.705.075-1.1.167m-44.388 6.808c1.052.082 2.672.081 3.6-.003s.068-.151-1.912-.15-2.74.07-1.688.153"/><path fill="#e4545c" d="M324.5 119.096c1.265.079 3.335.079 4.6 0 1.265-.08.23-.145-2.3-.145s-3.565.065-2.3.145m-278 1.603c3.905.066 10.295.066 14.2 0 3.905-.065.71-.119-7.1-.119s-11.005.054-7.1.119m37.9-.029c5.357.29 10.711.305 10.539.03-.102-.165-3.011-.266-6.463-.224-3.452.041-5.286.129-4.076.194m43.07.03c10.158.059 26.898.059 37.2 0 10.301-.059 1.99-.108-18.47-.108s-28.889.048-18.73.108m70.856 0c4.029.065 10.509.065 14.4-.001 3.891-.065.594-.119-7.326-.118-7.92 0-11.103.053-7.074.119m47.846.23c-.112.292-.144 2.227-.071 4.3l.133 3.77.083-4.095.083-4.095 14.3-.11 14.3-.11-14.313-.095c-11.58-.077-14.351.006-14.515.435M38.948 124.8c0 2.31.066 3.255.147 2.1a36 36 0 0 0 0-4.2c-.081-1.155-.147-.21-.147 2.1m29.049-.118c-.108 2.245-.055 3.939.119 3.764s.262-2.012.197-4.082l-.118-3.764zm115.696 6.047-.093 10.13-3.363-.13c-1.85-.071-3.279.006-3.177.171.338.541 6.546.351 6.76-.208.107-.279.143-4.914.08-10.3l-.115-9.792zm36.304-6.047c-.108 2.245-.055 3.939.119 3.764s.262-2.012.197-4.082l-.118-3.764zm-29.533-.006c-.035 2.022.071 3.761.236 3.863.165.103.25-1.011.19-2.476-.193-4.64-.36-5.184-.426-1.387m158.904 7.524c0 4.4.058 6.255.13 4.121s.072-5.733.001-8c-.072-2.266-.131-.521-.131 3.879m-23.656-4.705c1.052.082 2.672.081 3.6-.003s.068-.151-1.912-.15-2.74.07-1.688.153m11.888 2.63c0 .069.585.654 1.3 1.3l1.3 1.175-1.175-1.3c-1.095-1.212-1.425-1.484-1.425-1.175m-182.4 16.952c7.349.286 15.109.297 14.939.023-.102-.165-4.181-.264-9.063-.22s-7.526.133-5.876.197m185.233.674c.409.37 3.567 1.844 3.567 1.665 0-.227-3.019-1.816-3.451-1.816-.155 0-.207.068-.116.151M303.2 161.047c2.349.298 5.511.33 5.339.053-.102-.165-1.571-.273-3.263-.24s-2.626.117-2.076.187M240.6 172c0 5.94.135 10.8.3 10.8s.3-4.86.3-10.8-.135-10.8-.3-10.8-.3 4.86-.3 10.8m61.17-2.2c.001 4.84.059 6.765.129 4.278s.07-6.447-.001-8.8c-.07-2.353-.128-.318-.128 4.522M184.575 172c0 5.83.056 8.215.124 5.3s.068-7.685 0-10.6-.124-.53-.124 5.3m111.824.281c-.109 5.764-.061 10.342.108 10.173s.259-4.886.2-10.481l-.108-10.173zm14.001-5.328c0 .429 1.19 2.647 1.421 2.647.11 0-.098-.585-.462-1.3-.742-1.46-.959-1.764-.959-1.347m-178.933 7.714c-.37.369-.338 8.133.033 8.134.165 0 .243-1.793.174-3.985l-.126-3.985 3.726-.133 3.726-.132-3.633-.083c-1.999-.046-3.754.037-3.9.184m25.033.031c2.365.071 6.235.071 8.6 0s.43-.128-4.3-.128-6.665.058-4.3.128m36.4-.004a29 29 0 0 0 3.8 0c1.045-.082.19-.15-1.9-.15s-2.945.068-1.9.15m21.98.004c1.914.073 5.154.073 7.2 0 2.046-.072.48-.132-3.48-.133-3.96 0-5.634.059-3.72.133m31.291.234c-.112.292-.144 2.137-.07 4.1l.134 3.568.083-3.885.082-3.885 3.7-.132 3.7-.132-3.713-.083c-2.779-.062-3.763.051-3.916.449m24.309-.234c1.914.073 5.154.073 7.2 0 2.046-.072.48-.132-3.48-.133-3.96 0-5.634.059-3.72.133m-80.016 3.978c-.035 2.022.071 3.761.236 3.863.165.103.25-1.011.19-2.476-.193-4.64-.36-5.184-.426-1.387m157.114-.776-1.378 1.5 1.5-1.378c1.396-1.284 1.684-1.622 1.378-1.622-.066 0-.741.675-1.5 1.5m-93.665 34.395c1.163.081 2.963.081 4-.002 1.038-.082.087-.148-2.113-.147s-3.049.068-1.887.149m66.199 0c1.052.082 2.672.081 3.6-.003s.068-.151-1.912-.15-2.74.07-1.688.153M75.3 214.299l26.7.107v20.053l-3.382-.13c-1.86-.071-3.238.014-3.062.189s1.743.265 3.482.2l3.162-.118v-20.4l-26.8-.004-26.8-.005zm45.367-.032c-.147.146-.264.461-.261.7.004.265.127.243.317-.056.216-.34 2.133-.526 6.294-.611l5.983-.123-6.033-.089c-3.319-.048-6.154.032-6.3.179m47.833.033a955 955 0 0 0 19 0c5.225-.064.95-.115-9.5-.115s-14.725.051-9.5.115m110.391 11.429-.091 7.93-3.363-.13c-1.85-.071-3.279.006-3.177.171.34.545 6.546.35 6.762-.212.108-.282.143-3.927.078-8.1l-.119-7.588zM211.2 219.8c.746.77 1.447 1.4 1.557 1.4s-.411-.63-1.157-1.4-1.447-1.4-1.557-1.4.411.63 1.157 1.4m86.778 1.7L296.6 223l1.5-1.378c.825-.759 1.5-1.434 1.5-1.5 0-.306-.338-.018-1.622 1.378m-43.267-.807c.94.085 2.38.084 3.2-.002.819-.086.049-.155-1.711-.154s-2.43.072-1.489.156m65.989-.004c.715.089 1.885.089 2.6 0 .715-.088.13-.161-1.3-.161s-2.015.073-1.3.161m-268.203 1.603 3.496.138.109 22.785L56.21 268l-.005-22.9-.005-22.9-3.6-.022-3.6-.023zm17.283.217c-.108.279-.147 4.644-.088 9.7l.108 9.191 8.9.012 8.9.011-8.8-.119-8.8-.119v-18.769l8.5-.116 8.5-.117-8.513-.091c-6.586-.071-8.556.023-8.707.417m93.117-.217 3.496.138.109 22.785.108 22.785-.005-22.9-.005-22.9-3.6-.022-3.6-.023zm17.283.217c-.108.279-.147 4.644-.088 9.7l.108 9.191 6.7.015 6.701.015-6.601-.125-6.6-.124v-18.76l6.1-.122 6.1-.121-6.113-.089c-4.642-.068-6.159.033-6.307.42M267 224.8c.859.88 1.652 1.6 1.762 1.6s-.503-.72-1.362-1.6-1.652-1.6-1.762-1.6.503.72 1.362 1.6m-68.6-.675c0 .069.585.654 1.3 1.3l1.3 1.175-1.175-1.3c-1.095-1.212-1.425-1.484-1.425-1.175m12.778 17.375L209.8 243l1.5-1.378c.825-.759 1.5-1.434 1.5-1.5 0-.306-.338-.018-1.622 1.378m26.564 3.5c-.001 1.98.066 2.84.15 1.912s.085-2.548.003-3.6c-.083-1.052-.152-.292-.153 1.688m51.195 0c.002 1.76.072 2.43.156 1.489.085-.94.084-2.38-.002-3.2-.086-.819-.155-.049-.154 1.711m-28.137-1.517c10.559.283 19.509.291 19.339.017-.103-.165-5.441-.262-11.863-.215s-9.786.136-7.476.198m-37.907 5.317c0 .77.082 1.085.183.7s.1-1.015 0-1.4c-.101-.385-.183-.07-.183.7m-42.714 1.309c-.107.281-.143 4.466-.079 9.3l.116 8.791.092-9.086.092-9.085 3.9-.131 3.9-.131-3.913-.083c-2.863-.062-3.965.053-4.108.425m-110.4.801c-.108.281-.143 4.286-.079 8.9l.117 8.39.092-8.692.091-8.693 8.9-.115 8.9-.116-8.913-.092c-6.925-.071-8.956.022-9.108.418m122.254.011c.092.067.707.437 1.367.824l1.2.702-.944-.823c-.52-.453-1.135-.824-1.367-.824s-.347.054-.256.121m74.934 9.279c0 4.18.059 5.836.131 3.679.073-2.156.072-5.576 0-7.6-.073-2.023-.132-.259-.131 3.921m-153.506-2.7c-.102.165 3.172.254 7.277.198 13.783-.189 15.139-.33 3.986-.414-6.092-.046-11.161.051-11.263.216M310 265c.746.77 1.447 1.4 1.557 1.4s-.411-.63-1.157-1.4-1.447-1.4-1.557-1.4.411.63 1.157 1.4m-11.8 3.8c1.083 1.1 2.06 2 2.17 2s-.687-.9-1.77-2-2.06-2-2.17-2 .687.9 1.77 2m47.4-.2c-.972.99-1.677 1.8-1.567 1.8s.995-.81 1.967-1.8 1.677-1.8 1.567-1.8-.995.81-1.967 1.8m-114.017.3c.981 1.045 1.836 1.9 1.9 1.9.301 0-.017-.359-1.783-2.017L229.8 267zm-43.037 3.3c.001 2.2.068 3.049.149 1.887.081-1.163.081-2.963-.002-4-.082-1.038-.148-.087-.147 2.113m66.554-2.707c.935.084 2.465.084 3.4 0s.17-.153-1.7-.153-2.635.069-1.7.153m65.805-.006c.609.092 1.509.09 2-.005s-.005-.171-1.105-.168-1.503.081-.895.173M220 272.426c0 1.335-.19 2.82-.422 3.3-.408.844-.401.848.2.098.579-.723.948-5.824.422-5.824-.11 0-.2 1.092-.2 2.426m33.891 5.463c.71.088 1.97.09 2.8.003s.249-.159-1.291-.161-2.219.069-1.509.158m66.809 0c.715.089 1.885.089 2.6 0 .715-.088.13-.161-1.3-.161s-2.015.073-1.3.161M102.9 394.3c53.405.056 140.795.056 194.2 0s9.71-.102-97.1-.102-150.505.046-97.1.102"/></g></svg>