<svg id="svg" version="1.1" xmlns="http://www.w3.org/2000/svg" xmlns:xlink="http://www.w3.org/1999/xlink" viewBox="0, 0, 400,431.211498973306"><g id="svgg"><path id="path0" d="M320.594 119.778 C 308.444 121.667,301.966 128.532,302.494 138.958 C 303.024 149.409,307.986 153.556,324.277 157.161 C 337.145 160.008,339.624 161.724,339.591 167.760 C 339.561 173.471,335.428 176.198,326.800 176.199 C 316.765 176.201,312.359 173.371,309.642 165.182 L 308.519 161.800 305.460 161.683 L 302.400 161.566 302.400 170.143 L 302.400 178.720 305.900 180.188 C 328.209 189.544,351.465 182.759,352.308 166.648 C 352.898 155.363,347.474 149.485,333.394 146.152 C 317.162 142.311,314.958 140.968,315.277 135.123 C 315.563 129.892,318.896 127.529,326.354 127.269 C 335.746 126.942,339.697 129.409,342.215 137.175 L 343.066 139.800 346.033 139.800 L 349.000 139.800 349.108 132.145 L 349.217 124.491 345.660 123.067 C 337.121 119.649,328.605 118.532,320.594 119.778 M39.467 121.067 C 39.320 121.213,39.200 122.916,39.200 124.851 L 39.200 128.369 42.691 128.484 L 46.183 128.600 49.484 139.800 C 51.300 145.960,54.794 158.065,57.248 166.700 L 61.710 182.400 67.828 182.400 C 73.307 182.400,73.968 182.327,74.158 181.700 C 74.275 181.315,76.186 174.610,78.404 166.800 C 85.258 142.674,86.521 138.400,86.795 138.400 C 86.940 138.400,88.085 142.135,89.339 146.700 C 90.593 151.265,93.357 161.165,95.482 168.700 L 99.344 182.400 105.393 182.400 L 111.441 182.400 114.682 171.100 C 116.465 164.885,119.951 152.730,122.429 144.090 L 126.934 128.380 132.967 128.490 L 139.000 128.600 139.000 151.800 L 139.000 175.000 135.300 175.115 L 131.600 175.230 131.600 178.815 L 131.600 182.400 158.000 182.400 L 184.400 182.400 184.400 171.983 L 184.400 161.566 181.338 161.683 L 178.276 161.800 177.348 165.300 C 174.973 174.260,173.763 174.986,161.200 174.994 L 152.200 175.000 152.200 165.400 L 152.200 155.800 161.064 155.692 L 169.927 155.585 170.364 154.333 C 170.911 152.762,170.918 150.640,170.381 148.708 L 169.967 147.215 161.083 147.108 L 152.200 147.000 152.200 137.800 L 152.200 128.600 160.000 128.485 C 172.437 128.300,174.341 129.400,176.651 138.100 L 177.367 140.800 180.484 140.800 L 183.600 140.800 183.600 130.800 L 183.600 120.800 146.400 120.800 L 109.200 120.800 109.200 124.600 L 109.200 128.400 113.400 128.400 C 115.710 128.400,117.600 128.543,117.600 128.717 C 117.600 129.234,107.687 165.246,107.491 165.442 C 107.425 165.508,106.135 161.205,104.622 155.881 C 101.649 145.411,95.833 124.738,95.172 122.290 L 94.764 120.780 88.520 120.890 L 82.276 121.000 81.140 125.000 C 80.514 127.200,77.810 137.100,75.131 147.000 C 70.017 165.892,70.141 165.475,69.756 165.089 C 69.560 164.893,59.600 129.055,59.600 128.545 C 59.600 128.465,61.400 128.400,63.600 128.400 L 67.600 128.400 67.600 124.600 L 67.600 120.800 53.667 120.800 C 46.003 120.800,39.613 120.920,39.467 121.067 M191.200 124.600 L 191.200 128.400 194.803 128.400 L 198.406 128.400 198.303 151.700 L 198.200 175.000 194.700 175.116 L 191.200 175.231 191.200 178.816 L 191.200 182.400 216.007 182.400 L 240.814 182.400 240.707 172.100 L 240.600 161.800 237.553 161.684 L 234.506 161.568 233.638 165.029 C 231.410 173.914,230.033 174.870,219.100 175.123 L 211.600 175.296 211.600 151.848 L 211.600 128.400 215.600 128.400 L 219.600 128.400 219.600 124.600 L 219.600 120.800 205.400 120.800 L 191.200 120.800 191.200 124.600 M246.400 124.585 L 246.400 128.370 250.100 128.485 L 253.800 128.600 253.800 151.800 L 253.800 175.000 250.100 175.115 L 246.400 175.230 246.400 178.815 L 246.400 182.400 271.200 182.400 L 296.000 182.400 296.000 172.000 L 296.000 161.600 293.015 161.600 L 290.031 161.600 289.610 163.300 C 287.009 173.819,285.729 174.878,275.313 175.134 C 271.745 175.222,268.369 175.179,267.810 175.038 L 266.794 174.783 266.897 151.692 L 267.000 128.600 271.100 128.486 L 275.200 128.372 275.200 124.586 L 275.200 120.800 260.800 120.800 L 246.400 120.800 246.400 124.585 M249.800 212.816 C 233.166 215.409,223.517 227.194,223.448 245.000 C 223.340 272.994,248.390 285.687,277.464 272.371 L 280.000 271.209 280.000 257.405 L 280.000 243.600 268.464 243.600 L 256.928 243.600 256.464 244.619 C 255.899 245.859,255.856 249.568,256.390 250.974 L 256.780 252.000 261.990 252.000 L 267.200 252.000 267.200 259.962 L 267.200 267.925 265.330 268.562 C 246.767 274.887,233.504 259.271,238.182 236.600 C 242.133 217.457,265.280 213.778,271.661 231.279 L 272.507 233.600 275.654 233.600 L 278.800 233.600 278.800 225.674 L 278.800 217.747 276.700 216.880 C 267.893 213.245,257.306 211.645,249.800 212.816 M316.600 212.816 C 296.997 215.871,285.588 233.756,290.397 253.890 C 297.733 284.605,343.861 285.826,353.131 255.551 C 360.557 231.302,341.443 208.943,316.600 212.816 M48.885 218.100 L 49.000 221.800 52.700 221.915 L 56.400 222.030 56.400 245.215 L 56.400 268.400 52.600 268.400 L 48.800 268.400 48.800 272.200 L 48.800 276.000 63.600 276.000 L 78.400 276.000 78.400 272.200 L 78.400 268.400 74.000 268.400 L 69.600 268.400 69.600 259.408 L 69.600 250.415 78.700 250.308 L 87.800 250.200 88.301 248.200 C 88.676 246.701,88.694 245.676,88.374 244.107 L 87.946 242.015 78.873 241.907 L 69.800 241.800 69.693 231.900 L 69.586 222.000 78.893 222.001 C 90.987 222.001,92.217 222.609,94.344 229.628 C 95.909 234.791,95.579 234.452,98.899 234.318 L 101.800 234.200 101.907 224.300 L 102.014 214.400 75.392 214.400 L 48.770 214.400 48.885 218.100 M110.640 240.512 C 98.295 271.601,99.953 268.400,96.191 268.400 L 93.200 268.400 93.200 272.200 L 93.200 276.000 104.800 276.000 L 116.400 276.000 116.400 272.200 L 116.400 268.400 113.024 268.400 C 108.829 268.400,108.950 268.791,111.215 262.600 L 113.117 257.400 124.679 257.294 L 136.241 257.188 138.130 262.494 C 139.168 265.412,140.014 267.935,140.009 268.100 C 140.004 268.265,138.470 268.400,136.600 268.400 L 133.200 268.400 133.200 272.200 L 133.200 276.000 160.800 276.000 L 188.400 276.000 188.400 272.200 L 188.400 268.400 184.200 268.400 L 180.000 268.400 180.000 259.000 L 180.000 249.600 184.527 249.600 C 194.561 249.600,197.221 252.099,198.615 262.838 C 200.030 273.736,202.977 276.407,213.573 276.394 C 219.402 276.387,219.619 276.300,219.893 273.874 C 220.308 270.193,219.839 269.201,217.682 269.194 C 213.737 269.182,212.629 267.668,211.782 261.138 C 210.519 251.387,208.464 248.644,200.800 246.477 L 199.400 246.082 200.713 246.041 C 213.743 245.635,220.315 228.874,210.995 219.816 C 205.937 214.900,202.962 214.400,178.765 214.400 L 159.600 214.400 159.600 218.200 L 159.600 222.000 163.200 222.000 L 166.800 222.000 166.800 245.210 L 166.800 268.421 160.737 268.310 L 154.674 268.200 151.707 261.000 C 150.075 257.040,146.406 248.040,143.554 241.000 C 140.701 233.960,137.090 225.095,135.528 221.300 L 132.689 214.400 126.845 214.412 L 121.000 214.423 110.640 240.512 M328.899 221.564 C 341.830 226.587,344.713 255.129,333.348 265.605 C 328.004 270.531,318.498 271.116,312.111 266.912 C 300.209 259.078,300.876 229.684,313.118 222.510 C 317.108 220.171,324.217 219.745,328.899 221.564 M197.409 223.222 C 202.832 226.015,204.027 234.373,199.632 238.768 C 197.128 241.272,194.981 241.786,187.000 241.794 L 180.200 241.800 180.093 231.869 L 179.986 221.939 187.706 222.069 C 195.069 222.194,195.517 222.247,197.409 223.222 M129.200 238.322 C 131.449 244.328,133.206 249.327,133.104 249.430 C 133.001 249.532,129.141 249.568,124.527 249.508 L 116.137 249.400 120.351 238.103 C 122.670 231.890,124.688 226.940,124.838 227.103 C 124.987 227.266,126.950 232.315,129.200 238.322 " stroke="none" fill="#fbfafa" fill-rule="evenodd"></path><path id="path1" d="M6.000 409.800 L 6.000 425.200 200.000 425.200 L 394.000 425.200 394.000 409.800 L 394.000 394.400 200.000 394.400 L 6.000 394.400 6.000 409.800 " stroke="none" fill="#fccc44" fill-rule="evenodd"></path><path id="path2" d="M6.000 200.000 L 6.000 394.000 200.000 394.000 L 394.000 394.000 394.000 200.000 L 394.000 6.000 200.000 6.000 L 6.000 6.000 6.000 200.000 M337.000 119.958 C 340.833 120.915,343.978 121.986,347.208 123.436 L 349.600 124.509 349.600 132.255 L 349.600 140.000 346.000 140.000 C 343.188 140.000,342.400 139.878,342.400 139.442 C 342.400 132.383,336.568 127.805,327.572 127.802 C 319.305 127.799,315.600 130.174,315.600 135.476 C 315.600 140.660,317.778 142.076,330.000 144.832 C 338.792 146.815,341.362 147.666,344.276 149.559 C 356.096 157.239,355.584 174.953,343.364 181.116 C 333.697 185.991,315.719 185.418,304.400 179.874 L 301.800 178.600 301.692 169.910 L 301.584 161.219 302.505 160.988 C 303.011 160.861,304.589 160.812,306.012 160.879 L 308.600 161.000 309.451 163.652 C 312.370 172.750,316.477 175.722,326.200 175.773 C 334.846 175.818,338.630 173.788,339.105 168.852 C 339.730 162.340,337.571 160.685,324.436 157.605 C 310.816 154.412,306.279 151.800,303.389 145.489 C 297.911 133.523,306.085 121.528,321.400 119.058 C 324.172 118.611,333.838 119.169,337.000 119.958 M67.916 120.740 C 68.292 120.978,68.400 122.090,68.316 124.833 L 68.200 128.600 64.100 128.714 C 61.845 128.777,60.000 128.914,60.000 129.018 C 60.000 129.240,62.617 138.575,65.714 149.400 C 66.910 153.580,68.301 158.577,68.806 160.505 C 69.311 162.432,69.787 163.946,69.865 163.868 C 70.076 163.658,77.618 136.901,79.807 128.600 C 80.851 124.640,81.884 121.175,82.102 120.900 C 82.807 120.010,94.669 120.208,95.156 121.118 C 95.495 121.752,102.474 146.565,106.059 159.880 C 106.781 162.565,107.419 164.714,107.476 164.658 C 107.688 164.446,116.800 130.003,116.800 129.414 C 116.800 128.903,116.127 128.800,112.786 128.800 L 108.772 128.800 108.886 124.700 L 109.000 120.600 145.600 120.490 C 165.730 120.430,182.608 120.479,183.107 120.599 L 184.014 120.819 183.907 130.909 L 183.800 141.000 180.439 141.000 L 177.078 141.000 175.826 137.113 C 173.334 129.371,172.326 128.846,159.900 128.817 L 152.400 128.800 152.400 137.800 L 152.400 146.800 161.210 146.800 L 170.020 146.800 170.410 147.826 C 170.914 149.151,170.914 153.649,170.410 154.974 L 170.020 156.000 161.210 156.000 L 152.400 156.000 152.400 165.200 L 152.400 174.400 161.416 174.400 C 173.637 174.400,174.407 173.974,176.613 166.000 C 177.191 163.910,177.737 161.968,177.826 161.684 C 177.945 161.304,178.861 161.198,181.294 161.284 L 184.600 161.400 184.600 172.000 L 184.600 182.600 157.886 182.703 L 131.172 182.806 131.286 178.703 L 131.400 174.600 135.100 174.485 L 138.800 174.370 138.800 151.585 L 138.800 128.800 133.054 128.800 L 127.307 128.800 126.075 132.700 C 125.397 134.845,122.042 146.590,118.621 158.800 C 115.199 171.010,112.223 181.405,112.008 181.900 C 111.627 182.778,111.465 182.800,105.399 182.800 L 99.180 182.800 98.810 181.827 C 98.607 181.292,96.980 175.487,95.195 168.927 C 92.385 158.598,87.593 141.816,86.936 140.000 C 86.817 139.670,85.741 142.820,84.545 147.000 C 83.349 151.180,81.038 159.100,79.409 164.600 C 77.780 170.100,75.933 176.400,75.304 178.600 L 74.162 182.600 67.839 182.600 L 61.517 182.600 58.771 173.400 C 57.260 168.340,53.791 156.280,51.062 146.600 L 46.100 129.000 42.450 128.885 L 38.800 128.770 38.800 124.818 C 38.800 122.031,38.947 120.807,39.300 120.665 C 40.151 120.321,67.369 120.392,67.916 120.740 M219.916 120.740 C 220.292 120.978,220.400 122.090,220.316 124.833 L 220.200 128.600 215.900 128.714 L 211.600 128.827 211.600 151.614 L 211.600 174.400 219.100 174.391 C 229.920 174.379,231.094 173.635,233.218 165.456 L 234.271 161.400 237.735 161.284 L 241.200 161.169 241.200 171.987 L 241.200 182.806 215.900 182.703 L 190.600 182.600 190.484 179.060 C 190.333 174.460,190.389 174.400,194.852 174.400 L 198.407 174.400 198.303 151.700 L 198.200 129.000 194.400 128.800 L 190.600 128.600 190.484 125.060 C 190.409 122.795,190.535 121.319,190.833 120.960 C 191.359 120.326,218.934 120.117,219.916 120.740 M274.967 120.643 C 275.485 120.841,275.600 121.602,275.600 124.829 L 275.600 128.772 271.500 128.886 L 267.400 129.000 267.297 151.700 L 267.193 174.400 274.571 174.400 C 285.342 174.400,286.604 173.537,288.835 164.641 L 289.698 161.200 293.041 161.200 C 297.175 161.200,296.857 160.196,296.713 172.800 L 296.600 182.600 271.400 182.600 L 246.200 182.600 246.200 178.600 L 246.200 174.600 249.900 174.485 L 253.600 174.370 253.600 151.585 L 253.600 128.800 249.800 128.800 L 246.000 128.800 246.000 124.867 C 246.000 122.703,246.120 120.813,246.267 120.667 C 246.600 120.333,274.102 120.311,274.967 120.643 M265.400 212.994 C 269.247 213.822,274.165 215.430,276.800 216.722 L 279.000 217.800 279.000 225.800 L 279.000 233.800 275.704 233.916 L 272.408 234.032 270.840 230.637 C 267.529 223.471,263.764 220.995,256.200 221.009 C 243.782 221.032,238.205 228.467,238.205 245.000 C 238.205 258.623,241.793 265.493,250.433 268.414 C 253.624 269.493,261.679 269.382,264.900 268.214 L 266.800 267.525 266.800 259.962 L 266.800 252.400 261.590 252.400 L 256.380 252.400 255.990 251.374 C 255.313 249.592,255.506 245.003,256.300 244.034 C 256.990 243.192,257.172 243.181,268.600 243.290 L 280.200 243.400 280.305 257.431 L 280.410 271.462 277.105 272.889 C 247.404 285.718,222.972 273.122,223.008 245.000 C 223.039 221.671,241.378 207.824,265.400 212.994 M330.863 213.180 C 362.424 221.544,363.120 268.663,331.800 276.604 C 312.320 281.543,294.618 271.932,290.029 253.926 C 283.526 228.405,305.516 206.463,330.863 213.180 M102.200 224.400 L 102.200 234.600 98.894 234.716 C 96.459 234.802,95.546 234.696,95.432 234.316 C 95.346 234.032,94.813 232.258,94.248 230.374 C 92.005 222.898,91.048 222.400,78.915 222.400 L 70.000 222.400 70.000 231.800 L 70.000 241.200 78.751 241.200 C 89.177 241.200,88.600 240.919,88.600 246.000 C 88.600 251.081,89.177 250.800,78.751 250.800 L 70.000 250.800 70.000 259.400 L 70.000 268.000 74.200 268.000 L 78.400 268.000 78.400 272.000 L 78.400 276.000 63.600 276.000 L 48.800 276.000 48.800 272.000 L 48.800 268.000 52.400 268.000 L 56.000 268.000 56.000 245.200 L 56.000 222.400 52.400 222.400 L 48.800 222.400 48.800 218.197 L 48.800 213.994 75.500 214.097 L 102.200 214.200 102.200 224.400 M135.332 220.000 C 136.615 223.190,138.831 228.590,140.257 232.000 C 141.682 235.410,144.917 243.330,147.444 249.600 C 149.972 255.870,152.685 262.575,153.475 264.500 L 154.910 268.000 160.655 268.000 L 166.400 268.000 166.400 245.200 L 166.400 222.400 162.800 222.400 L 159.200 222.400 159.200 218.168 L 159.200 213.937 179.700 214.106 C 202.018 214.291,202.206 214.308,207.139 216.722 C 212.908 219.543,215.400 223.728,215.400 230.592 C 215.400 238.678,211.501 243.669,203.555 245.753 C 202.370 246.064,201.670 246.407,202.000 246.515 C 209.009 248.811,210.783 251.144,211.822 259.428 C 212.807 267.286,213.768 268.800,217.766 268.800 C 219.989 268.800,220.400 269.409,220.400 272.697 C 220.400 276.543,220.297 276.600,213.332 276.600 C 203.322 276.600,199.971 274.010,198.767 265.347 C 197.003 252.654,194.962 250.337,185.300 250.059 L 180.400 249.918 180.400 258.945 L 180.400 267.972 184.500 268.086 L 188.600 268.200 188.714 272.100 L 188.829 276.000 160.814 276.000 L 132.800 276.000 132.800 272.000 L 132.800 268.000 136.200 268.000 C 140.231 268.000,140.108 268.423,137.834 262.400 L 136.097 257.800 124.792 257.800 L 113.486 257.800 111.599 262.800 L 109.712 267.800 113.256 267.915 L 116.800 268.030 116.800 272.015 L 116.800 276.000 105.000 276.000 L 93.200 276.000 93.200 272.017 L 93.200 268.034 96.218 267.917 L 99.235 267.800 102.242 260.400 C 103.896 256.330,108.285 245.350,111.996 236.000 C 115.706 226.650,119.047 218.280,119.419 217.400 C 119.791 216.520,120.251 215.390,120.442 214.890 C 120.784 213.990,120.863 213.980,126.894 214.090 L 133.000 214.200 135.332 220.000 M317.200 221.325 C 308.101 223.956,304.228 231.017,304.212 245.000 C 304.203 252.531,304.440 254.080,306.401 259.314 C 311.131 271.940,330.786 272.664,336.980 260.440 C 340.830 252.841,340.927 238.009,337.177 230.151 C 333.754 222.979,324.942 219.086,317.200 221.325 M180.400 231.793 L 180.400 241.262 187.900 241.131 C 198.384 240.948,201.315 239.222,201.882 232.900 C 202.566 225.292,199.039 222.699,187.700 222.471 L 180.400 222.324 180.400 231.793 M120.521 238.583 L 116.516 249.600 124.701 249.600 C 132.332 249.600,132.867 249.553,132.615 248.900 C 132.466 248.515,130.717 243.700,128.728 238.200 C 126.739 232.700,124.979 228.057,124.819 227.883 C 124.658 227.709,122.724 232.524,120.521 238.583 " stroke="none" fill="#d41c2c" fill-rule="evenodd"></path><path id="path3" d="M67.682 124.500 L 67.600 128.400 63.600 128.400 C 60.045 128.400,59.604 128.478,59.632 129.100 C 59.650 129.518,59.744 129.599,59.865 129.300 C 60.006 128.950,61.197 128.800,63.846 128.800 C 68.285 128.800,68.082 129.032,67.899 124.168 L 67.765 120.600 67.682 124.500 M108.977 124.699 L 109.000 128.600 112.986 128.716 C 115.556 128.790,117.081 129.003,117.280 129.316 C 117.491 129.648,117.590 129.581,117.594 129.100 C 117.599 128.478,117.136 128.400,113.414 128.400 L 109.229 128.400 109.092 124.599 L 108.954 120.798 108.977 124.699 M190.977 124.699 L 191.000 128.600 194.800 128.625 L 198.600 128.650 194.914 128.510 L 191.229 128.370 191.091 124.584 L 190.954 120.798 190.977 124.699 M219.682 124.486 L 219.600 128.372 215.500 128.502 L 211.400 128.631 215.513 128.716 C 220.336 128.815,220.084 129.076,219.899 124.168 L 219.765 120.600 219.682 124.486 M275.281 124.686 L 275.200 128.372 271.100 128.486 L 267.000 128.600 266.995 151.700 L 266.990 174.800 267.098 151.800 L 267.206 128.800 271.216 128.800 C 275.901 128.800,275.686 129.022,275.499 124.367 L 275.363 121.000 275.281 124.686 M40.912 128.695 C 41.964 128.777,43.584 128.776,44.512 128.692 C 45.440 128.608,44.580 128.541,42.600 128.542 C 40.620 128.543,39.860 128.612,40.912 128.695 M132.800 128.694 L 138.800 128.821 138.800 151.795 L 138.800 174.770 135.100 174.910 L 131.400 175.050 135.200 175.025 L 139.000 175.000 139.000 151.800 L 139.000 128.600 132.900 128.584 L 126.799 128.568 132.800 128.694 M152.179 128.909 C 152.072 129.190,152.036 133.375,152.100 138.209 L 152.216 147.000 152.308 137.908 L 152.400 128.816 160.700 128.700 L 169.000 128.583 160.687 128.491 C 154.257 128.421,152.331 128.515,152.179 128.909 M250.100 128.693 L 253.600 128.830 253.600 151.800 L 253.600 174.770 250.100 174.907 L 246.600 175.045 250.200 175.022 L 253.800 175.000 253.800 151.800 L 253.800 128.600 250.200 128.578 L 246.600 128.555 250.100 128.693 M335.233 128.521 C 335.325 128.588,335.940 128.958,336.600 129.345 L 337.800 130.047 336.856 129.224 C 336.336 128.771,335.721 128.400,335.489 128.400 C 335.257 128.400,335.142 128.454,335.233 128.521 M302.128 138.000 C 302.128 139.430,302.201 140.015,302.289 139.300 C 302.378 138.585,302.378 137.415,302.289 136.700 C 302.201 135.985,302.128 136.570,302.128 138.000 M114.629 138.629 C 114.481 139.215,114.438 139.772,114.532 139.866 C 114.627 139.960,114.824 139.558,114.971 138.971 C 115.119 138.385,115.162 137.828,115.068 137.734 C 114.973 137.640,114.776 138.042,114.629 138.629 M176.456 138.400 C 176.456 138.730,176.611 139.360,176.800 139.800 C 177.017 140.304,177.144 140.378,177.144 140.000 C 177.144 139.670,176.989 139.040,176.800 138.600 C 176.583 138.096,176.456 138.022,176.456 138.400 M101.256 144.000 C 101.256 144.330,101.411 144.960,101.600 145.400 C 101.817 145.904,101.944 145.978,101.944 145.600 C 101.944 145.270,101.789 144.640,101.600 144.200 C 101.383 143.696,101.256 143.622,101.256 144.000 M306.800 150.200 C 307.546 150.970,308.247 151.600,308.357 151.600 C 308.467 151.600,307.946 150.970,307.200 150.200 C 306.454 149.430,305.753 148.800,305.643 148.800 C 305.533 148.800,306.054 149.430,306.800 150.200 M52.456 150.800 C 52.456 151.130,52.611 151.760,52.800 152.200 C 53.017 152.704,53.144 152.778,53.144 152.400 C 53.144 152.070,52.989 151.440,52.800 151.000 C 52.583 150.496,52.456 150.422,52.456 150.800 M152.180 156.109 C 152.072 156.388,152.033 160.753,152.092 165.809 L 152.200 175.000 160.200 175.012 L 168.200 175.025 160.300 174.904 L 152.400 174.783 152.400 165.399 L 152.400 156.015 161.300 155.900 L 170.200 155.784 161.287 155.692 C 154.378 155.621,152.331 155.714,152.180 156.109 M178.261 161.500 C 178.158 161.665,179.093 161.749,180.337 161.687 C 184.244 161.492,184.715 161.322,181.524 161.260 C 179.832 161.227,178.363 161.335,178.261 161.500 M235.600 161.446 C 237.988 161.746,240.710 161.776,240.539 161.500 C 240.436 161.335,239.058 161.227,237.476 161.260 C 235.894 161.293,235.050 161.376,235.600 161.446 M289.794 161.610 C 289.643 161.854,289.628 162.161,289.760 162.293 C 289.892 162.425,290.000 162.323,290.000 162.067 C 290.000 161.753,290.981 161.600,293.000 161.600 L 296.000 161.600 296.000 171.997 L 296.000 182.394 271.100 182.502 L 246.200 182.609 271.200 182.605 L 296.200 182.600 296.200 172.000 L 296.200 161.400 293.134 161.284 C 291.203 161.211,289.966 161.332,289.794 161.610 M302.092 170.100 L 302.184 179.000 302.300 170.270 L 302.416 161.540 305.571 161.670 C 307.306 161.741,308.642 161.665,308.540 161.500 C 308.437 161.335,306.923 161.200,305.176 161.200 L 302.000 161.200 302.092 170.100 M69.246 163.467 C 69.175 164.183,69.643 165.200,70.043 165.200 C 70.239 165.200,70.400 164.919,70.400 164.576 C 70.400 164.233,70.234 164.056,70.030 164.181 C 69.827 164.307,69.578 164.093,69.477 163.705 C 69.376 163.317,69.272 163.210,69.246 163.467 M352.524 165.400 C 352.526 166.720,352.601 167.212,352.690 166.493 C 352.779 165.774,352.777 164.694,352.686 164.093 C 352.595 163.492,352.522 164.080,352.524 165.400 M174.026 172.107 C 172.887 173.511,172.842 173.629,173.763 172.800 C 174.720 171.938,175.856 170.386,175.514 170.407 C 175.451 170.411,174.782 171.176,174.026 172.107 M313.200 171.800 C 313.946 172.570,314.647 173.200,314.757 173.200 C 314.867 173.200,314.346 172.570,313.600 171.800 C 312.854 171.030,312.153 170.400,312.043 170.400 C 311.933 170.400,312.454 171.030,313.200 171.800 M336.975 173.300 L 335.800 174.600 337.100 173.425 C 337.815 172.779,338.400 172.194,338.400 172.125 C 338.400 171.816,338.070 172.088,336.975 173.300 M190.886 178.700 L 191.000 182.600 215.600 182.605 L 240.200 182.609 215.700 182.502 L 191.200 182.394 191.200 178.813 L 191.200 175.231 194.700 175.098 L 198.200 174.965 194.486 174.882 L 190.771 174.800 190.886 178.700 M214.700 175.098 C 216.515 175.172,219.485 175.172,221.300 175.098 C 223.115 175.023,221.630 174.963,218.000 174.963 C 214.370 174.963,212.885 175.023,214.700 175.098 M270.719 175.098 C 272.544 175.172,275.424 175.172,277.119 175.097 C 278.814 175.022,277.320 174.961,273.800 174.962 C 270.280 174.962,268.894 175.024,270.719 175.098 M347.385 177.700 L 345.400 179.800 347.500 177.815 C 349.451 175.971,349.783 175.600,349.485 175.600 C 349.422 175.600,348.477 176.545,347.385 177.700 M323.300 176.287 C 323.905 176.378,324.895 176.378,325.500 176.287 C 326.105 176.195,325.610 176.120,324.400 176.120 C 323.190 176.120,322.695 176.195,323.300 176.287 M327.700 176.287 C 328.305 176.378,329.295 176.378,329.900 176.287 C 330.505 176.195,330.010 176.120,328.800 176.120 C 327.590 176.120,327.095 176.195,327.700 176.287 M64.500 182.697 C 66.205 182.772,68.995 182.772,70.700 182.697 C 72.405 182.622,71.010 182.561,67.600 182.561 C 64.190 182.561,62.795 182.622,64.500 182.697 M102.518 182.698 C 104.233 182.773,106.933 182.772,108.518 182.697 C 110.103 182.621,108.700 182.559,105.400 182.560 C 102.100 182.561,100.803 182.622,102.518 182.698 M145.129 182.700 C 152.460 182.761,164.340 182.761,171.529 182.700 C 178.718 182.639,172.720 182.589,158.200 182.589 C 143.680 182.589,137.798 182.639,145.129 182.700 M323.107 184.290 C 323.826 184.379,324.906 184.377,325.507 184.286 C 326.108 184.195,325.520 184.122,324.200 184.124 C 322.880 184.126,322.388 184.201,323.107 184.290 M330.305 184.283 C 330.802 184.379,331.522 184.375,331.905 184.275 C 332.287 184.175,331.880 184.096,331.000 184.101 C 330.120 184.105,329.807 184.187,330.305 184.283 M159.346 218.200 C 159.347 220.400,159.414 221.249,159.495 220.087 C 159.576 218.924,159.576 217.124,159.493 216.087 C 159.411 215.049,159.345 216.000,159.346 218.200 M298.185 221.700 L 296.200 223.800 298.300 221.815 C 300.251 219.971,300.583 219.600,300.285 219.600 C 300.222 219.600,299.277 220.545,298.185 221.700 M345.400 221.600 C 346.259 222.480,347.052 223.200,347.162 223.200 C 347.272 223.200,346.659 222.480,345.800 221.600 C 344.941 220.720,344.148 220.000,344.038 220.000 C 343.928 220.000,344.541 220.720,345.400 221.600 M330.400 222.631 C 331.390 223.193,333.009 224.405,333.998 225.326 L 335.796 227.000 334.398 225.448 C 332.981 223.875,329.793 221.596,329.022 221.605 C 328.790 221.607,329.410 222.069,330.400 222.631 M89.400 222.866 C 89.840 223.108,90.658 223.688,91.219 224.154 C 91.779 224.619,91.646 224.415,90.924 223.700 C 90.202 222.985,89.384 222.405,89.106 222.412 C 88.828 222.419,88.960 222.623,89.400 222.866 M267.200 224.600 C 267.946 225.370,268.647 226.000,268.757 226.000 C 268.867 226.000,268.346 225.370,267.600 224.600 C 266.854 223.830,266.153 223.200,266.043 223.200 C 265.933 223.200,266.454 223.830,267.200 224.600 M202.109 232.000 C 202.109 232.990,202.187 233.395,202.282 232.900 C 202.378 232.405,202.378 231.595,202.282 231.100 C 202.187 230.605,202.109 231.010,202.109 232.000 M239.246 232.439 C 239.001 233.143,238.813 233.918,238.828 234.160 C 238.844 234.402,239.114 233.896,239.430 233.035 C 239.745 232.174,239.933 231.400,239.848 231.315 C 239.762 231.229,239.492 231.735,239.246 232.439 M223.293 240.000 C 223.293 240.770,223.375 241.085,223.476 240.700 C 223.576 240.315,223.576 239.685,223.476 239.300 C 223.375 238.915,223.293 239.230,223.293 240.000 M237.701 240.200 C 237.705 241.080,237.787 241.393,237.883 240.895 C 237.979 240.398,237.975 239.678,237.875 239.295 C 237.775 238.913,237.696 239.320,237.701 240.200 M303.751 245.200 C 303.751 247.730,303.816 248.765,303.896 247.500 C 303.975 246.235,303.975 244.165,303.896 242.900 C 303.816 241.635,303.751 242.670,303.751 245.200 M69.947 241.708 C 70.117 241.877,74.293 241.967,79.228 241.907 L 88.200 241.799 78.919 241.599 C 73.815 241.490,69.777 241.539,69.947 241.708 M180.350 241.711 C 180.522 241.882,183.348 241.972,186.631 241.910 L 192.600 241.797 186.319 241.599 C 182.864 241.489,180.178 241.540,180.350 241.711 M340.140 245.200 C 340.140 247.070,340.209 247.835,340.293 246.900 C 340.377 245.965,340.377 244.435,340.293 243.500 C 340.209 242.565,340.140 243.330,340.140 245.200 M222.931 245.000 C 222.933 246.540,223.005 247.121,223.092 246.291 C 223.179 245.461,223.177 244.201,223.089 243.491 C 223.000 242.781,222.929 243.460,222.931 245.000 M237.301 245.000 C 237.305 245.880,237.387 246.193,237.483 245.695 C 237.579 245.198,237.575 244.478,237.475 244.095 C 237.375 243.713,237.296 244.120,237.301 245.000 M280.180 257.400 C 280.180 264.880,280.234 267.883,280.299 264.074 C 280.365 260.265,280.365 254.145,280.299 250.474 C 280.233 246.803,280.179 249.920,280.180 257.400 M255.714 247.800 C 255.717 248.900,255.795 249.303,255.887 248.695 C 255.979 248.086,255.977 247.186,255.882 246.695 C 255.787 246.203,255.711 246.700,255.714 247.800 M207.982 250.200 C 208.947 251.300,209.820 252.290,209.922 252.400 C 210.025 252.510,209.919 252.240,209.687 251.800 C 209.455 251.360,208.582 250.370,207.747 249.600 C 206.303 248.269,206.315 248.299,207.982 250.200 M237.701 249.800 C 237.705 250.680,237.787 250.993,237.883 250.495 C 237.979 249.998,237.975 249.278,237.875 248.895 C 237.775 248.513,237.696 248.920,237.701 249.800 M223.293 250.400 C 223.293 251.170,223.375 251.485,223.476 251.100 C 223.576 250.715,223.576 250.085,223.476 249.700 C 223.375 249.315,223.293 249.630,223.293 250.400 M193.600 251.325 C 193.600 251.394,194.185 251.979,194.900 252.625 L 196.200 253.800 195.025 252.500 C 193.930 251.288,193.600 251.016,193.600 251.325 M256.719 252.077 C 257.091 252.444,267.202 252.680,267.201 252.322 C 267.200 252.169,264.778 251.989,261.819 251.922 C 258.859 251.855,256.564 251.925,256.719 252.077 M238.848 256.000 C 238.842 256.330,239.083 257.140,239.386 257.800 C 240.093 259.345,240.103 258.626,239.400 256.800 C 239.103 256.030,238.855 255.670,238.848 256.000 M243.800 264.800 C 244.883 265.900,245.860 266.800,245.970 266.800 C 246.080 266.800,245.283 265.900,244.200 264.800 C 243.117 263.700,242.140 262.800,242.030 262.800 C 241.920 262.800,242.717 263.700,243.800 264.800 M298.400 268.600 C 299.817 270.030,301.067 271.200,301.177 271.200 C 301.287 271.200,300.217 270.030,298.800 268.600 C 297.383 267.170,296.133 266.000,296.023 266.000 C 295.913 266.000,296.983 267.170,298.400 268.600 M345.186 268.700 L 343.000 271.000 345.300 268.814 C 347.437 266.782,347.783 266.400,347.486 266.400 C 347.424 266.400,346.389 267.435,345.186 268.700 M246.400 267.008 C 246.400 267.349,250.505 269.196,251.200 269.168 C 251.530 269.155,251.153 268.905,250.362 268.614 C 249.572 268.323,248.357 267.791,247.662 267.432 C 246.968 267.073,246.400 266.882,246.400 267.008 M109.461 268.100 C 109.563 268.265,111.160 268.400,113.009 268.400 L 116.371 268.400 116.508 272.201 L 116.646 276.002 116.623 272.101 L 116.600 268.200 112.937 268.000 C 110.922 267.890,109.358 267.935,109.461 268.100 M154.750 268.111 C 154.922 268.282,157.748 268.372,161.031 268.310 L 167.000 268.197 160.719 267.999 C 157.264 267.889,154.578 267.940,154.750 268.111 M50.713 268.295 C 51.876 268.376,53.676 268.376,54.713 268.293 C 55.751 268.211,54.800 268.145,52.600 268.146 C 50.400 268.147,49.551 268.214,50.713 268.295 M71.700 268.296 C 72.965 268.375,75.035 268.375,76.300 268.296 C 77.565 268.216,76.530 268.151,74.000 268.151 C 71.470 268.151,70.435 268.216,71.700 268.296 M94.711 268.293 C 95.651 268.378,97.091 268.377,97.911 268.291 C 98.730 268.205,97.960 268.136,96.200 268.137 C 94.440 268.139,93.770 268.209,94.711 268.293 M132.971 268.532 C 132.859 268.824,132.827 270.669,132.901 272.632 L 133.035 276.200 133.118 272.316 L 133.200 268.431 136.700 268.298 L 140.200 268.165 136.687 268.082 C 134.075 268.021,133.123 268.136,132.971 268.532 M182.115 268.296 C 183.388 268.376,185.368 268.375,186.515 268.294 C 187.662 268.214,186.620 268.149,184.200 268.150 C 181.780 268.151,180.842 268.216,182.115 268.296 M263.200 268.800 C 262.396 269.057,262.357 269.123,263.000 269.132 C 263.440 269.138,264.160 268.989,264.600 268.800 C 265.619 268.362,264.568 268.362,263.200 268.800 M216.500 269.087 C 217.105 269.178,218.095 269.178,218.700 269.087 C 219.305 268.995,218.810 268.920,217.600 268.920 C 216.390 268.920,215.895 268.995,216.500 269.087 M318.100 269.476 C 318.485 269.576,319.115 269.576,319.500 269.476 C 319.885 269.375,319.570 269.293,318.800 269.293 C 318.030 269.293,317.715 269.375,318.100 269.476 M324.100 269.476 C 324.485 269.576,325.115 269.576,325.500 269.476 C 325.885 269.375,325.570 269.293,324.800 269.293 C 324.030 269.293,323.715 269.375,324.100 269.476 M255.700 269.887 C 256.305 269.978,257.295 269.978,257.900 269.887 C 258.505 269.795,258.010 269.720,256.800 269.720 C 255.590 269.720,255.095 269.795,255.700 269.887 M211.312 276.695 C 212.364 276.777,213.984 276.776,214.912 276.692 C 215.840 276.608,214.980 276.541,213.000 276.542 C 211.020 276.543,210.260 276.612,211.312 276.695 " stroke="none" fill="#ec8c94" fill-rule="evenodd"></path><path id="path4" d="M324.500 119.096 C 325.765 119.175,327.835 119.175,329.100 119.096 C 330.365 119.016,329.330 118.951,326.800 118.951 C 324.270 118.951,323.235 119.016,324.500 119.096 M46.500 120.699 C 50.405 120.765,56.795 120.765,60.700 120.699 C 64.605 120.634,61.410 120.580,53.600 120.580 C 45.790 120.580,42.595 120.634,46.500 120.699 M84.400 120.670 C 89.757 120.960,95.111 120.975,94.939 120.700 C 94.837 120.535,91.928 120.434,88.476 120.476 C 85.024 120.517,83.190 120.605,84.400 120.670 M127.470 120.700 C 137.628 120.759,154.368 120.759,164.670 120.700 C 174.971 120.641,166.660 120.592,146.200 120.592 C 125.740 120.592,117.311 120.640,127.470 120.700 M198.326 120.700 C 202.355 120.765,208.835 120.765,212.726 120.699 C 216.617 120.634,213.320 120.580,205.400 120.581 C 197.480 120.581,194.297 120.634,198.326 120.700 M246.172 120.930 C 246.060 121.222,246.028 123.157,246.101 125.230 L 246.234 129.000 246.317 124.905 L 246.400 120.810 260.700 120.700 L 275.000 120.590 260.687 120.495 C 249.107 120.418,246.336 120.501,246.172 120.930 M38.948 124.800 C 38.948 127.110,39.014 128.055,39.095 126.900 C 39.176 125.745,39.176 123.855,39.095 122.700 C 39.014 121.545,38.948 122.490,38.948 124.800 M67.997 124.682 C 67.889 126.927,67.942 128.621,68.116 128.446 C 68.290 128.271,68.378 126.434,68.313 124.364 L 68.195 120.600 67.997 124.682 M183.693 130.729 L 183.600 140.859 180.237 140.729 C 178.387 140.658,176.958 140.735,177.060 140.900 C 177.398 141.441,183.606 141.251,183.820 140.692 C 183.927 140.413,183.963 135.778,183.900 130.392 L 183.785 120.600 183.693 130.729 M219.997 124.682 C 219.889 126.927,219.942 128.621,220.116 128.446 C 220.290 128.271,220.378 126.434,220.313 124.364 L 220.195 120.600 219.997 124.682 M190.464 124.676 C 190.429 126.698,190.535 128.437,190.700 128.539 C 190.865 128.642,190.950 127.528,190.890 126.063 C 190.697 121.423,190.530 120.879,190.464 124.676 M349.368 132.200 C 349.368 136.600,349.426 138.455,349.498 136.321 C 349.570 134.188,349.570 130.588,349.499 128.321 C 349.427 126.055,349.368 127.800,349.368 132.200 M325.712 127.495 C 326.764 127.577,328.384 127.576,329.312 127.492 C 330.240 127.408,329.380 127.341,327.400 127.342 C 325.420 127.343,324.660 127.412,325.712 127.495 M337.600 130.125 C 337.600 130.194,338.185 130.779,338.900 131.425 L 340.200 132.600 339.025 131.300 C 337.930 130.088,337.600 129.816,337.600 130.125 M155.200 147.077 C 162.549 147.363,170.309 147.374,170.139 147.100 C 170.037 146.935,165.958 146.836,161.076 146.880 C 156.194 146.925,153.550 147.013,155.200 147.077 M340.433 147.751 C 340.842 148.121,344.000 149.595,344.000 149.416 C 344.000 149.189,340.981 147.600,340.549 147.600 C 340.394 147.600,340.342 147.668,340.433 147.751 M303.200 161.047 C 305.549 161.345,308.711 161.377,308.539 161.100 C 308.437 160.935,306.968 160.827,305.276 160.860 C 303.584 160.893,302.650 160.977,303.200 161.047 M240.600 172.000 C 240.600 177.940,240.735 182.800,240.900 182.800 C 241.065 182.800,241.200 177.940,241.200 172.000 C 241.200 166.060,241.065 161.200,240.900 161.200 C 240.735 161.200,240.600 166.060,240.600 172.000 M301.770 169.800 C 301.771 174.640,301.829 176.565,301.899 174.078 C 301.969 171.591,301.969 167.631,301.898 165.278 C 301.828 162.925,301.770 164.960,301.770 169.800 M184.575 172.000 C 184.575 177.830,184.631 180.215,184.699 177.300 C 184.767 174.385,184.767 169.615,184.699 166.700 C 184.631 163.785,184.575 166.170,184.575 172.000 M296.399 172.281 C 296.290 178.045,296.338 182.623,296.507 182.454 C 296.676 182.284,296.766 177.568,296.707 171.973 L 296.599 161.800 296.399 172.281 M310.400 166.953 C 310.400 167.382,311.590 169.600,311.821 169.600 C 311.931 169.600,311.723 169.015,311.359 168.300 C 310.617 166.840,310.400 166.536,310.400 166.953 M131.467 174.667 C 131.097 175.036,131.129 182.800,131.500 182.801 C 131.665 182.801,131.743 181.008,131.674 178.816 L 131.548 174.831 135.274 174.698 L 139.000 174.566 135.367 174.483 C 133.368 174.437,131.613 174.520,131.467 174.667 M156.500 174.698 C 158.865 174.769,162.735 174.769,165.100 174.698 C 167.465 174.628,165.530 174.570,160.800 174.570 C 156.070 174.570,154.135 174.628,156.500 174.698 M192.900 174.694 C 193.945 174.776,195.655 174.776,196.700 174.694 C 197.745 174.612,196.890 174.544,194.800 174.544 C 192.710 174.544,191.855 174.612,192.900 174.694 M214.880 174.698 C 216.794 174.771,220.034 174.771,222.080 174.698 C 224.126 174.626,222.560 174.566,218.600 174.565 C 214.640 174.565,212.966 174.624,214.880 174.698 M246.171 174.932 C 246.059 175.224,246.027 177.069,246.101 179.032 L 246.235 182.600 246.318 178.715 L 246.400 174.830 250.100 174.698 L 253.800 174.566 250.087 174.483 C 247.308 174.421,246.324 174.534,246.171 174.932 M270.480 174.698 C 272.394 174.771,275.634 174.771,277.680 174.698 C 279.726 174.626,278.160 174.566,274.200 174.565 C 270.240 174.565,268.566 174.624,270.480 174.698 M190.464 178.676 C 190.429 180.698,190.535 182.437,190.700 182.539 C 190.865 182.642,190.950 181.528,190.890 180.063 C 190.697 175.423,190.530 174.879,190.464 178.676 M347.578 177.900 L 346.200 179.400 347.700 178.022 C 349.096 176.738,349.384 176.400,349.078 176.400 C 349.012 176.400,348.337 177.075,347.578 177.900 M253.913 212.295 C 255.076 212.376,256.876 212.376,257.913 212.293 C 258.951 212.211,258.000 212.145,255.800 212.146 C 253.600 212.147,252.751 212.214,253.913 212.295 M320.112 212.295 C 321.164 212.377,322.784 212.376,323.712 212.292 C 324.640 212.208,323.780 212.141,321.800 212.142 C 319.820 212.143,319.060 212.212,320.112 212.295 M75.300 214.299 L 102.000 214.406 102.000 224.432 L 102.000 234.459 98.618 234.329 C 96.758 234.258,95.380 234.343,95.556 234.518 C 95.732 234.693,97.299 234.783,99.038 234.718 L 102.200 234.600 102.200 224.400 L 102.200 214.200 75.400 214.196 L 48.600 214.191 75.300 214.299 M120.667 214.267 C 120.520 214.413,120.403 214.728,120.406 214.967 C 120.410 215.232,120.533 215.210,120.723 214.911 C 120.939 214.571,122.856 214.385,127.017 214.300 L 133.000 214.177 126.967 214.088 C 123.648 214.040,120.813 214.120,120.667 214.267 M168.500 214.300 C 173.725 214.363,182.275 214.363,187.500 214.300 C 192.725 214.236,188.450 214.185,178.000 214.185 C 167.550 214.185,163.275 214.236,168.500 214.300 M278.891 225.729 L 278.800 233.659 275.437 233.529 C 273.587 233.458,272.158 233.535,272.260 233.700 C 272.600 234.245,278.806 234.050,279.022 233.488 C 279.130 233.206,279.165 229.561,279.100 225.388 L 278.981 217.800 278.891 225.729 M211.200 219.800 C 211.946 220.570,212.647 221.200,212.757 221.200 C 212.867 221.200,212.346 220.570,211.600 219.800 C 210.854 219.030,210.153 218.400,210.043 218.400 C 209.933 218.400,210.454 219.030,211.200 219.800 M297.978 221.500 L 296.600 223.000 298.100 221.622 C 298.925 220.863,299.600 220.188,299.600 220.122 C 299.600 219.816,299.262 220.104,297.978 221.500 M254.711 220.693 C 255.651 220.778,257.091 220.777,257.911 220.691 C 258.730 220.605,257.960 220.536,256.200 220.537 C 254.440 220.539,253.770 220.609,254.711 220.693 M320.700 220.689 C 321.415 220.778,322.585 220.778,323.300 220.689 C 324.015 220.601,323.430 220.528,322.000 220.528 C 320.570 220.528,319.985 220.601,320.700 220.689 M52.497 222.292 L 55.993 222.430 56.102 245.215 L 56.210 268.000 56.205 245.100 L 56.200 222.200 52.600 222.178 L 49.000 222.155 52.497 222.292 M69.780 222.509 C 69.672 222.788,69.633 227.153,69.692 232.209 L 69.800 241.400 78.700 241.412 L 87.600 241.423 78.800 241.304 L 70.000 241.185 70.000 231.800 L 70.000 222.416 78.500 222.300 L 87.000 222.183 78.487 222.092 C 71.901 222.021,69.931 222.115,69.780 222.509 M162.897 222.292 L 166.393 222.430 166.502 245.215 L 166.610 268.000 166.605 245.100 L 166.600 222.200 163.000 222.178 L 159.400 222.155 162.897 222.292 M180.180 222.509 C 180.072 222.788,180.033 227.153,180.092 232.209 L 180.200 241.400 186.900 241.415 L 193.601 241.430 187.000 241.305 L 180.400 241.181 180.400 231.801 L 180.400 222.421 186.500 222.299 L 192.600 222.178 186.487 222.089 C 181.845 222.021,180.328 222.122,180.180 222.509 M267.000 224.800 C 267.859 225.680,268.652 226.400,268.762 226.400 C 268.872 226.400,268.259 225.680,267.400 224.800 C 266.541 223.920,265.748 223.200,265.638 223.200 C 265.528 223.200,266.141 223.920,267.000 224.800 M198.400 224.125 C 198.400 224.194,198.985 224.779,199.700 225.425 L 201.000 226.600 199.825 225.300 C 198.730 224.088,198.400 223.816,198.400 224.125 M211.178 241.500 L 209.800 243.000 211.300 241.622 C 212.125 240.863,212.800 240.188,212.800 240.122 C 212.800 239.816,212.462 240.104,211.178 241.500 M237.742 245.000 C 237.741 246.980,237.808 247.840,237.892 246.912 C 237.976 245.984,237.977 244.364,237.895 243.312 C 237.812 242.260,237.743 243.020,237.742 245.000 M288.937 245.000 C 288.939 246.760,289.009 247.430,289.093 246.489 C 289.178 245.549,289.177 244.109,289.091 243.289 C 289.005 242.470,288.936 243.240,288.937 245.000 M260.800 243.483 C 271.359 243.766,280.309 243.774,280.139 243.500 C 280.036 243.335,274.698 243.238,268.276 243.285 C 261.854 243.332,258.490 243.421,260.800 243.483 M222.893 248.800 C 222.893 249.570,222.975 249.885,223.076 249.500 C 223.176 249.115,223.176 248.485,223.076 248.100 C 222.975 247.715,222.893 248.030,222.893 248.800 M180.179 250.109 C 180.072 250.390,180.036 254.575,180.100 259.409 L 180.216 268.200 180.308 259.114 L 180.400 250.029 184.300 249.898 L 188.200 249.767 184.287 249.684 C 181.424 249.622,180.322 249.737,180.179 250.109 M69.779 250.910 C 69.671 251.191,69.636 255.196,69.700 259.810 L 69.817 268.200 69.909 259.508 L 70.000 250.815 78.900 250.700 L 87.800 250.584 78.887 250.492 C 71.962 250.421,69.931 250.514,69.779 250.910 M192.033 250.921 C 192.125 250.988,192.740 251.358,193.400 251.745 L 194.600 252.447 193.656 251.624 C 193.136 251.171,192.521 250.800,192.289 250.800 C 192.057 250.800,191.942 250.854,192.033 250.921 M266.967 260.200 C 266.967 264.380,267.026 266.036,267.098 263.879 C 267.171 261.723,267.170 258.303,267.098 256.279 C 267.025 254.256,266.966 256.020,266.967 260.200 M113.461 257.500 C 113.359 257.665,116.633 257.754,120.738 257.698 C 134.521 257.509,135.877 257.368,124.724 257.284 C 118.632 257.238,113.563 257.335,113.461 257.500 M310.000 265.000 C 310.746 265.770,311.447 266.400,311.557 266.400 C 311.667 266.400,311.146 265.770,310.400 265.000 C 309.654 264.230,308.953 263.600,308.843 263.600 C 308.733 263.600,309.254 264.230,310.000 265.000 M298.200 268.800 C 299.283 269.900,300.260 270.800,300.370 270.800 C 300.480 270.800,299.683 269.900,298.600 268.800 C 297.517 267.700,296.540 266.800,296.430 266.800 C 296.320 266.800,297.117 267.700,298.200 268.800 M345.600 268.600 C 344.628 269.590,343.923 270.400,344.033 270.400 C 344.143 270.400,345.028 269.590,346.000 268.600 C 346.972 267.610,347.677 266.800,347.567 266.800 C 347.457 266.800,346.572 267.610,345.600 268.600 M231.583 268.900 C 232.564 269.945,233.419 270.800,233.483 270.800 C 233.784 270.800,233.466 270.441,231.700 268.783 L 229.800 267.000 231.583 268.900 M188.546 272.200 C 188.547 274.400,188.614 275.249,188.695 274.087 C 188.776 272.924,188.776 271.124,188.693 270.087 C 188.611 269.049,188.545 270.000,188.546 272.200 M255.100 269.493 C 256.035 269.577,257.565 269.577,258.500 269.493 C 259.435 269.409,258.670 269.340,256.800 269.340 C 254.930 269.340,254.165 269.409,255.100 269.493 M320.905 269.487 C 321.514 269.579,322.414 269.577,322.905 269.482 C 323.397 269.387,322.900 269.311,321.800 269.314 C 320.700 269.317,320.297 269.395,320.905 269.487 M220.000 272.426 C 220.000 273.761,219.810 275.246,219.578 275.726 C 219.170 276.570,219.177 276.574,219.778 275.824 C 220.357 275.101,220.726 270.000,220.200 270.000 C 220.090 270.000,220.000 271.092,220.000 272.426 M253.891 277.889 C 254.601 277.977,255.861 277.979,256.691 277.892 C 257.521 277.805,256.940 277.733,255.400 277.731 C 253.860 277.729,253.181 277.800,253.891 277.889 M320.700 277.889 C 321.415 277.978,322.585 277.978,323.300 277.889 C 324.015 277.801,323.430 277.728,322.000 277.728 C 320.570 277.728,319.985 277.801,320.700 277.889 M102.900 394.300 C 156.305 394.356,243.695 394.356,297.100 394.300 C 350.505 394.244,306.810 394.198,200.000 394.198 C 93.190 394.198,49.495 394.244,102.900 394.300 " stroke="none" fill="#e4545c" fill-rule="evenodd"></path></g></svg>