<svg xmlns="http://www.w3.org/2000/svg" fill="none" viewBox="0 0 233 40"><g fill="#000" clip-path="url(#a)"><path fill-rule="evenodd" d="M28.055 0 11.509.013l-11.527 11.5.01 16.923 11.53 11.511c.015.003 16.578.003 16.578.003l11.526-11.514V11.553h-.003zM12.072 28.36H16.1c.035 0 .07.012.092.038l3.286 3.277a.15.15 0 0 1 .038.096c0 .036-.016.071-.038.093l-7.31 7.303a.14.14 0 0 1-.147.029.14.14 0 0 1-.08-.125V28.494c0-.074.057-.135.13-.135m7.825 3.736 7.307 7.296a.14.14 0 0 1 .029.144.14.14 0 0 1-.125.084h-14.61a.14.14 0 0 1-.125-.084.14.14 0 0 1 .032-.144l7.303-7.296a.135.135 0 0 1 .189 0M12.465.33h14.643c.051 0 .102.033.121.083a.13.13 0 0 1-.028.146l-7.32 7.304a.134.134 0 0 1-.189 0L12.372.56a.14.14 0 0 1-.031-.146.14.14 0 0 1 .124-.083m-.88.385v10.742a.13.13 0 0 1-.13.134H.694a.13.13 0 0 1-.121-.082.13.13 0 0 1 .029-.147L11.358.621a.14.14 0 0 1 .147-.029c.048.02.08.07.08.123m7.877 7.57-3.27 3.267a.13.13 0 0 1-.093.039h-4.06a.13.13 0 0 1-.13-.134V.877c0-.054.032-.103.08-.124a.14.14 0 0 1 .147.029l7.326 7.313c.022.025.038.06.038.095s-.016.07-.038.094m-7.553 8.02V12.05c0-.074.057-.133.13-.133h3.888c.073 0 .13.06.13.133v4.256a.133.133 0 0 1-.13.135H12.04a.133.133 0 0 1-.131-.135m7.562-1.043-1.142 1.14a.12.12 0 0 1-.093.039h-1.724a.135.135 0 0 1-.134-.135v-4c0-.053.035-.102.083-.123a.13.13 0 0 1 .144.028l2.866 2.859a.14.14 0 0 1 .042.096.14.14 0 0 1-.042.096m4.214 8.247h3.88a.13.13 0 0 1 .131.131v4.257a.133.133 0 0 1-.13.135h-3.881a.135.135 0 0 1-.135-.135V23.64c0-.074.061-.132.135-.132M28.02 39.23V28.494c0-.074.06-.135.134-.135h10.752c.055 0 .103.032.125.084a.14.14 0 0 1-.029.144L28.25 39.327a.14.14 0 0 1-.147.03.14.14 0 0 1-.084-.126m10.857-27.64H28.122a.134.134 0 0 1-.134-.134V.715a.135.135 0 0 1 .23-.095l10.755 10.742a.14.14 0 0 1 .03.146.14.14 0 0 1-.126.083m-15.919.189-3.067 3.062a.135.135 0 0 1-.19 0l-3.08-3.076a.13.13 0 0 1-.038-.095c0-.035.016-.07.038-.095l3.071-3.059a.134.134 0 0 1 .189 0l3.077 3.073c.026.025.042.06.042.095q-.002.056-.042.095m-8.31 8.297-2.874 2.87a.135.135 0 0 1-.188 0l-2.89-2.88a.14.14 0 0 1-.038-.096c0-.035.013-.07.039-.093l2.876-2.872a.135.135 0 0 1 .188 0l2.886 2.882a.136.136 0 0 1 0 .19M17.733 17l-1.13 1.124a.13.13 0 0 1-.143.028.14.14 0 0 1-.083-.125v-1.123c0-.074.06-.135.134-.135h1.126a.14.14 0 0 1 .125.083c.02.052.01.11-.029.148m9.8-5.408h-4.057a.13.13 0 0 1-.093-.039l-3.27-3.268a.14.14 0 0 1-.041-.094q.002-.056.041-.095L27.438.782a.14.14 0 0 1 .147-.03c.049.022.08.07.08.124v10.581a.13.13 0 0 1-.13.134m-11.476 12.05v4.256a.133.133 0 0 1-.131.135h-3.855a.133.133 0 0 1-.131-.135V23.64a.13.13 0 0 1 .13-.132h3.856a.13.13 0 0 1 .13.131m-.038-4.934-.954.953a.135.135 0 0 1-.189 0L12.21 17a.13.13 0 0 1-.028-.149.13.13 0 0 1 .121-.083h3.625c.073 0 .13.061.13.135v1.71c0 .036-.012.071-.037.094m-4.402 4.796v4.394a.133.133 0 0 1-.132.135H.86a.13.13 0 0 1-.122-.084.13.13 0 0 1 .029-.144l7.512-7.508a.135.135 0 0 1 .188 0l3.113 3.11a.14.14 0 0 1 .038.097m0 4.991v10.77a.14.14 0 0 1-.08.125.14.14 0 0 1-.148-.03L.603 28.588a.13.13 0 0 1-.029-.144.13.13 0 0 1 .122-.084h10.79c.074 0 .131.061.131.135m7.434-4.985h1.469a.13.13 0 0 1 .121.08c.023.052.01.11-.029.148l-.732.732a.135.135 0 0 1-.189 0l-.733-.732a.13.13 0 0 1-.028-.148.13.13 0 0 1 .121-.08m8.417 15.687-7.342-7.328a.13.13 0 0 1-.038-.093.13.13 0 0 1 .038-.097l3.286-3.28a.13.13 0 0 1 .093-.039h4.06c.073 0 .13.061.13.135v10.609a.132.132 0 0 1-.227.093M15.303 19.895l.528-.527a.13.13 0 0 1 .147-.029.13.13 0 0 1 .08.122v1.053a.14.14 0 0 1-.08.125.14.14 0 0 1-.147-.029l-.528-.526a.136.136 0 0 1 0-.19m4.402 11.552L16.62 28.37a.14.14 0 0 1-.038-.093c0-.036.016-.07.038-.097l3.071-3.065a.135.135 0 0 1 .189 0l3.08 3.081a.12.12 0 0 1 .04.093c0 .036-.014.071-.04.097l-3.067 3.062a.135.135 0 0 1-.19 0M23 27.772l-2.886-2.883a.14.14 0 0 1-.041-.096.14.14 0 0 1 .041-.096l1.152-1.15a.12.12 0 0 1 .093-.038h1.734c.073 0 .134.058.134.131v4.035a.133.133 0 0 1-.227.096m-1.139-4.822 1.14-1.14a.14.14 0 0 1 .143-.028c.051.022.083.07.083.125v1.14c0 .073-.06.131-.134.131h-1.139a.13.13 0 0 1-.122-.08.13.13 0 0 1 .03-.148m1.728-1.727.928-.927a.135.135 0 0 1 .188 0l2.659 2.654a.14.14 0 0 1 .028.148.14.14 0 0 1-.124.08h-3.583a.133.133 0 0 1-.135-.131v-1.73c0-.036.013-.071.039-.094m-7.077 2.286h1.702c.035 0 .07.013.093.038l1.155 1.15a.15.15 0 0 1 .038.096c0 .035-.016.07-.038.096l-2.857 2.844a.13.13 0 0 1-.144.03.13.13 0 0 1-.083-.123v-4c0-.073.06-.131.134-.131m11.316-.559-2.89-2.882a.14.14 0 0 1-.038-.097c0-.035.013-.07.039-.093l2.873-2.872a.135.135 0 0 1 .188 0l2.89 2.885a.14.14 0 0 1 .04.097c0 .035-.015.07-.04.093l-2.874 2.87a.13.13 0 0 1-.188 0m3.483-2.635 7.5 7.489a.13.13 0 0 1 .028.144.13.13 0 0 1-.121.084H28.154a.135.135 0 0 1-.134-.135V23.47a.14.14 0 0 1 .041-.096l3.065-3.059a.13.13 0 0 1 .185 0m7.768 7.293-7.534-7.524a.136.136 0 0 1 0-.19l7.534-7.524a.13.13 0 0 1 .144-.028c.051.02.083.07.083.123v15.047a.14.14 0 0 1-.083.125.13.13 0 0 1-.144-.029m-7.956-7.945-3.094-3.09a.13.13 0 0 1-.041-.094V12.05c0-.074.06-.134.134-.134h10.624c.055 0 .103.033.125.083.02.05.006.108-.032.146l-7.527 7.518a.135.135 0 0 1-.19 0m-7.573-3.357V12.05c0-.074.061-.134.135-.134h3.848c.074 0 .131.06.131.134v4.256a.133.133 0 0 1-.13.135h-3.85a.135.135 0 0 1-.134-.135m0 2.324v-1.727c0-.074.061-.135.135-.135h3.583a.14.14 0 0 1 .124.083c.02.052.01.11-.028.148l-2.659 2.652a.135.135 0 0 1-.188 0l-.928-.925a.14.14 0 0 1-.039-.096m0 1.849v-1.015c0-.054.032-.102.084-.122a.13.13 0 0 1 .143.03l.51.506a.12.12 0 0 1 .038.093q0 .056-.039.097l-.509.507a.13.13 0 0 1-.143.029.14.14 0 0 1-.084-.125m-.457-4.038h-1.734a.14.14 0 0 1-.096-.039l-1.136-1.133a.14.14 0 0 1-.038-.096q0-.056.038-.097L23 12.211a.13.13 0 0 1 .144-.028c.051.02.083.07.083.123v4c0 .074-.06.135-.134.135m-4.102-.228.717-.716a.13.13 0 0 1 .189 0l.716.716a.14.14 0 0 1 .032.144.14.14 0 0 1-.124.084h-1.434a.14.14 0 0 1-.124-.084.14.14 0 0 1 .028-.144m4.236 2.664v2.192c0 .036-.016.07-.038.093l-1.98 1.978a.13.13 0 0 1-.093.038h-2.659a.12.12 0 0 1-.093-.038l-1.945-1.942a.13.13 0 0 1-.041-.093v-2.228a.14.14 0 0 1 .041-.096l1.977-1.974a.14.14 0 0 1 .093-.039h2.627c.035 0 .067.016.093.038l1.98 1.975a.15.15 0 0 1 .038.096m0-1.974v1.14a.13.13 0 0 1-.083.121.13.13 0 0 1-.144-.029L21.858 17a.14.14 0 0 1-.029-.148.14.14 0 0 1 .125-.083h1.139c.073 0 .134.061.134.135m-7.3 6.275h-3.593a.13.13 0 0 1-.121-.08.13.13 0 0 1 .028-.148l2.643-2.638a.135.135 0 0 1 .188 0l.948.947a.14.14 0 0 1 .038.096v1.692a.13.13 0 0 1-.131.131m1.692 0h-1.107a.133.133 0 0 1-.134-.131v-1.105c0-.054.035-.102.083-.125a.13.13 0 0 1 .144.03l1.107 1.103a.13.13 0 0 1 .029.148.13.13 0 0 1-.122.08M.86 11.917h10.595c.074 0 .131.06.131.133v4.43a.13.13 0 0 1-.038.092l-3.08 3.079a.135.135 0 0 1-.19 0L.767 12.145A.13.13 0 0 1 .737 12a.13.13 0 0 1 .122-.082m-.33.453 7.515 7.508a.13.13 0 0 1 .042.093.14.14 0 0 1-.042.097L.529 27.573a.13.13 0 0 1-.147.029.13.13 0 0 1-.08-.122V12.465c0-.054.032-.103.08-.123a.14.14 0 0 1 .147.028" clip-rule="evenodd"/><path d="M56.993 28.762c3.588 0 6.866-1.536 8.23-5.353l-.048-.072c-1.148.048-3.062-.624-3.948-1.369l-.071.024c-.575 1.8-2.25 2.857-4.163 2.857-2.752 0-4.642-2.112-4.642-4.85 0-2.736 1.89-4.848 4.642-4.848 1.89 0 3.588 1.032 4.163 2.832l.071.024c.862-.744 2.8-1.416 3.948-1.368l.048-.072c-1.364-3.817-4.666-5.33-8.23-5.33-4.618 0-8.781 3.266-8.781 8.763s4.163 8.762 8.78 8.762M75.678 28.402h4.618l-4.068-6.65c1.915-.72 3.183-2.592 3.183-4.969 0-2.809-2.369-5.185-5.647-5.185h-7.273v16.804h3.996v-5.93h1.746zm-5.191-9.29v-4.01h2.727c1.077 0 2.153.625 2.153 2.017 0 1.393-1.076 1.993-2.177 1.993zM85.01 28.402h3.947v-6.29l6.053-10.514h-4.426l-3.445 6.121h-.12l-3.445-6.121h-4.498l5.933 10.274zM95.728 28.402h3.995v-5.377h2.728c3.397 0 5.909-2.497 5.909-5.738 0-3.217-2.536-5.69-5.909-5.69h-6.723zm3.995-8.978v-4.225h2.297c1.244 0 2.297.672 2.297 2.112 0 1.417-1.029 2.113-2.297 2.113zM113.6 28.402h3.995V15.367h4.618v-3.77h-13.255v3.77h4.642zM131.161 28.762c4.594 0 8.829-3.337 8.829-8.762s-4.235-8.762-8.829-8.762c-4.617 0-8.852 3.337-8.852 8.762s4.235 8.762 8.852 8.762M126.448 20c0-2.737 1.986-4.85 4.713-4.85 2.704 0 4.69 2.113 4.69 4.85s-1.986 4.85-4.69 4.85c-2.727 0-4.713-2.113-4.713-4.85M141.592 28.402h3.972V16.663h.119l3.589 11.739h4.091l3.613-11.739h.096v11.739h3.995V11.598h-6.292l-3.35 10.946h-.119l-3.35-10.946h-6.364zM173.389 11.598h-5.216l-6.292 16.804h4.067l1.34-3.697h6.818l1.316 3.697h4.259zm-4.857 9.602 2.129-5.881h.12l2.081 5.881zM182.17 28.402h3.995V15.367h4.617v-3.77h-13.254v3.77h4.642zM203.127 28.402h3.996V17.855s-4.536-1.1-10.79-.598c-.006 0 0-5.66 0-5.66h-3.996v16.805h3.996v-7.376c2.595-.22 4.642-.127 6.794.013zM213.317 18.235V28.4h-3.995V18.085c1.154.096 2.455.15 3.829.15zM223.655 28.762c3.589 0 6.867-1.536 8.231-5.353l-.048-.072c-1.149.048-3.063-.624-3.948-1.369l-.072.024c-.574 1.8-2.249 2.857-4.163 2.857-2.751 0-4.641-2.112-4.641-4.85 0-2.736 1.89-4.848 4.641-4.848 1.89 0 3.589 1.032 4.163 2.832l.072.024c.861-.744 2.799-1.416 3.948-1.368l.048-.072c-1.364-3.817-4.666-5.33-8.231-5.33-4.618 0-8.78 3.266-8.78 8.763s4.162 8.762 8.78 8.762M211.297 15.787c1.338 0 2.367-1.057 2.367-2.28 0-1.25-1.029-2.33-2.367-2.33a2.35 2.35 0 0 0-2.345 2.33c0 1.223 1.029 2.28 2.345 2.28"/></g><defs><clipPath id="a"><path fill="#fff" d="M0 0h232v40H0z"/></clipPath></defs></svg>