<svg viewBox="0 0 233 40" fill="none" 
  xmlns="http://www.w3.org/2000/svg">
  <g clip-path="url(#clip0_166_276)">
    <path fill-rule="evenodd" clip-rule="evenodd" d="M28.0547 0.00012207C26.9414 0.00108506 12.5133 0.0123011 11.5087 0.0129431L-0.0178223 11.513L-0.00819982 28.4362L11.5215 39.9471C11.5375 39.9503 28.0995 39.9503 28.0995 39.9503L39.626 28.4362V11.5534C39.6228 11.5531 39.6228 11.5524 39.6228 11.5521L28.0547 0.00012207ZM12.0718 28.3591H16.0995C16.1347 28.3591 16.1698 28.372 16.1922 28.3977L19.4778 31.675C19.5002 31.7007 19.5162 31.736 19.5162 31.7713C19.5162 31.8066 19.5002 31.842 19.4778 31.8644L12.1678 39.1671C12.1294 39.2056 12.0718 39.2152 12.0206 39.196C11.9726 39.1735 11.9406 39.1254 11.9406 39.0708V28.494C11.9406 28.4201 11.9982 28.3591 12.0718 28.3591ZM19.8969 32.0956L27.2038 39.3918C27.2421 39.4303 27.2518 39.4881 27.2326 39.5362C27.2102 39.5876 27.1622 39.6197 27.1078 39.6197H12.4972C12.4428 39.6197 12.3949 39.5876 12.3725 39.5362C12.3533 39.4881 12.3661 39.4303 12.4045 39.3918L19.7081 32.0956C19.7593 32.0442 19.8457 32.0442 19.8969 32.0956ZM12.4652 0.330083H27.1078C27.159 0.330083 27.2101 0.362514 27.2293 0.412589C27.2517 0.462665 27.239 0.520438 27.2006 0.558636L19.8809 7.86324C19.8297 7.91492 19.7465 7.91492 19.6921 7.86324L12.3725 0.558636C12.3341 0.520438 12.3213 0.462665 12.3405 0.412589C12.3629 0.362514 12.4108 0.330083 12.4652 0.330083ZM11.5855 0.715279V11.4574C11.5855 11.5313 11.5279 11.591 11.4543 11.591H0.695613C0.641228 11.591 0.593215 11.5585 0.57402 11.5085C0.551626 11.4584 0.564435 11.4006 0.602825 11.3624L11.3583 0.62061C11.3967 0.582411 11.4543 0.571156 11.5055 0.592021C11.5535 0.612565 11.5855 0.661351 11.5855 0.715279ZM19.4618 8.28439L16.1922 11.5521C16.1698 11.5772 16.1347 11.591 16.0995 11.591H12.0398C11.9662 11.591 11.9086 11.5313 11.9086 11.4574V0.876435C11.9086 0.822508 11.9406 0.773729 11.9886 0.752864C12.0398 0.73232 12.0974 0.743536 12.1358 0.781735L19.4618 8.09468C19.4842 8.12003 19.5002 8.15406 19.5002 8.18969C19.5002 8.225 19.4842 8.25935 19.4618 8.28439ZM11.9086 16.3057V12.0503C11.9086 11.9765 11.9662 11.9168 12.0398 11.9168H15.9268C16.0003 11.9168 16.0579 11.9765 16.0579 12.0503V16.3057C16.0579 16.3796 16.0003 16.4406 15.9268 16.4406H12.0398C11.9662 16.4406 11.9086 16.3796 11.9086 16.3057ZM19.4714 15.2625L18.3293 16.402C18.3069 16.4277 18.2717 16.4406 18.2365 16.4406H16.5122C16.4386 16.4406 16.3778 16.3796 16.3778 16.3057V12.3065C16.3778 12.2525 16.413 12.2037 16.461 12.1829C16.5122 12.162 16.5666 12.1736 16.6049 12.2114L19.4714 15.0699C19.497 15.0956 19.513 15.1309 19.513 15.1662C19.513 15.2015 19.497 15.2368 19.4714 15.2625ZM23.6847 23.5089H27.5652C27.6388 23.5089 27.6964 23.5667 27.6964 23.6405V27.8969C27.6964 27.9707 27.6388 28.0317 27.5652 28.0317H23.6847C23.6111 28.0317 23.5503 27.9707 23.5503 27.8969V23.6405C23.5503 23.5667 23.6111 23.5089 23.6847 23.5089ZM28.0195 39.2313V28.494C28.0195 28.4201 28.0803 28.3591 28.1539 28.3591H38.9062C38.9606 28.3591 39.0086 28.3912 39.031 28.4426C39.0502 28.4907 39.0374 28.5485 39.0022 28.587L28.2499 39.3276C28.2115 39.3629 28.1539 39.3757 28.1027 39.3565C28.0547 39.334 28.0195 39.2859 28.0195 39.2313ZM38.8775 11.591H28.1219C28.0483 11.591 27.9875 11.5313 27.9875 11.4571V0.715279C27.9875 0.661351 28.0227 0.612565 28.0707 0.592021C28.1219 0.571156 28.1795 0.582411 28.2179 0.62061L38.9734 11.3624C39.0118 11.4006 39.0214 11.4584 39.0022 11.5081C38.9798 11.5582 38.9319 11.591 38.8775 11.591ZM22.9584 11.78L19.8905 14.842C19.8393 14.8934 19.7561 14.8934 19.7017 14.842L16.6209 11.7659C16.5954 11.7409 16.5826 11.7068 16.5826 11.6712C16.5826 11.6356 16.5985 11.6012 16.6209 11.5762L19.6921 8.51711C19.7465 8.46543 19.8297 8.46543 19.8809 8.51711L22.9584 11.5903C22.984 11.6153 23.0001 11.6494 23.0001 11.685C23.0001 11.7206 22.984 11.7547 22.9584 11.78ZM14.6471 20.0774L11.7742 22.9472C11.7198 22.9985 11.6367 22.9985 11.5855 22.9472L8.69667 20.0678C8.67108 20.0421 8.65825 20.0068 8.65825 19.9715C8.65825 19.9362 8.67108 19.9009 8.69667 19.8784L11.5727 17.0055C11.6239 16.9542 11.7102 16.9542 11.7614 17.0055L14.6471 19.8881C14.6727 19.9137 14.6855 19.949 14.6855 19.9844C14.6855 20.0197 14.6727 20.0518 14.6471 20.0774ZM17.7343 16.9991L16.6049 18.1226C16.5698 18.1611 16.5122 18.1707 16.461 18.1515C16.413 18.129 16.3778 18.0808 16.3778 18.0263V16.9028C16.3778 16.829 16.4386 16.768 16.5122 16.768H17.6383C17.6927 16.768 17.7407 16.8033 17.7631 16.8514C17.7823 16.9028 17.7727 16.9606 17.7343 16.9991ZM27.5332 11.591H23.4767C23.4416 11.591 23.4064 11.5768 23.384 11.5521L20.1145 8.28439C20.0889 8.25935 20.0728 8.225 20.0728 8.18969C20.0728 8.15406 20.0889 8.12003 20.1145 8.09468L27.4373 0.781735C27.4756 0.743536 27.5333 0.73232 27.5845 0.752864C27.6325 0.773729 27.6644 0.822508 27.6644 0.876435V11.4571C27.6644 11.5313 27.6068 11.591 27.5332 11.591ZM16.0579 23.6405V27.8969C16.0579 27.9707 16.0003 28.0317 15.9268 28.0317H12.0718C11.9982 28.0317 11.9406 27.9707 11.9406 27.8969V23.6405C11.9406 23.5667 11.9982 23.5089 12.0718 23.5089H15.9268C16.0003 23.5089 16.0579 23.5667 16.0579 23.6405ZM16.0195 18.7068L15.0662 19.6602C15.015 19.7115 14.9318 19.7115 14.8774 19.6602L12.2093 16.9991C12.1709 16.9606 12.1582 16.9028 12.1806 16.8514C12.1998 16.8033 12.2477 16.768 12.3021 16.768H15.9268C16.0003 16.768 16.0579 16.829 16.0579 16.9028V18.6137C16.0579 18.649 16.0451 18.6843 16.0195 18.7068ZM11.6175 23.5025V27.8969C11.6175 27.9707 11.5599 28.0317 11.4863 28.0317H0.858757C0.804372 28.0317 0.756359 27.9996 0.737165 27.9483C0.71477 27.8969 0.72758 27.8424 0.765969 27.8038L8.2776 20.2957C8.32878 20.2444 8.41511 20.2444 8.4663 20.2957L11.5791 23.4062C11.6047 23.4319 11.6175 23.4672 11.6175 23.5025ZM11.6175 28.494V39.2634C11.6175 39.318 11.5855 39.3661 11.5375 39.3886C11.4863 39.4078 11.4287 39.3982 11.3903 39.3597L0.602825 28.587C0.564435 28.5485 0.551626 28.4907 0.57402 28.4426C0.593215 28.3912 0.641228 28.3591 0.695613 28.3591H11.4863C11.5599 28.3591 11.6175 28.4201 11.6175 28.494ZM19.0523 23.5089H20.5207C20.5751 23.5089 20.6231 23.541 20.6423 23.5892C20.6647 23.6405 20.6519 23.6983 20.6135 23.7368L19.8809 24.4687C19.8297 24.52 19.7465 24.52 19.6921 24.4687L18.9595 23.7368C18.9211 23.6983 18.9084 23.6405 18.9308 23.5892C18.95 23.541 18.9979 23.5089 19.0523 23.5089ZM27.4692 39.196L20.1272 31.8676C20.1016 31.8419 20.0888 31.8099 20.0888 31.7746C20.0888 31.736 20.1016 31.7039 20.1272 31.6783L23.4128 28.3977C23.4384 28.372 23.4704 28.3591 23.5056 28.3591H27.5652C27.6388 28.3591 27.6964 28.4201 27.6964 28.494V39.1029C27.6964 39.1543 27.6644 39.2056 27.6165 39.2249C27.5653 39.2473 27.5076 39.2345 27.4692 39.196ZM15.3029 19.8945L15.8308 19.3681C15.8692 19.3295 15.9267 19.3167 15.9779 19.3392C16.0259 19.3584 16.0579 19.4066 16.0579 19.4611V20.514C16.0579 20.5686 16.0259 20.6167 15.9779 20.6392C15.9267 20.6585 15.8692 20.6488 15.8308 20.6103L15.3029 20.0839C15.2773 20.0582 15.2645 20.0229 15.2645 19.9876C15.2645 19.9523 15.2773 19.9202 15.3029 19.8945ZM19.7049 31.4471L16.6209 28.3688C16.5985 28.3431 16.5826 28.311 16.5826 28.2757C16.5826 28.2404 16.5985 28.2051 16.6209 28.1794L19.6921 25.1139C19.7465 25.0625 19.8297 25.0625 19.8809 25.1139L22.9617 28.1955C22.9873 28.2179 23.0001 28.2532 23.0001 28.2885C23.0001 28.3238 22.9873 28.3591 22.9617 28.3848L19.8937 31.4471C19.8425 31.4985 19.7593 31.4985 19.7049 31.4471ZM23.0001 27.7717L20.1145 24.8892C20.0889 24.8635 20.0728 24.8282 20.0728 24.7929C20.0728 24.7576 20.0889 24.7223 20.1145 24.6966L21.2661 23.5474C21.2885 23.5217 21.3237 23.5089 21.3589 23.5089H23.0928C23.1664 23.5089 23.2272 23.5667 23.2272 23.6405V27.6754C23.2272 27.73 23.1952 27.7781 23.144 27.8006C23.096 27.8199 23.0385 27.8103 23.0001 27.7717ZM21.8612 22.9504L23.0001 21.8108C23.0385 21.7755 23.096 21.7627 23.144 21.7819C23.1952 21.8044 23.2272 21.8526 23.2272 21.9071V23.0467C23.2272 23.1205 23.1664 23.1783 23.0928 23.1783H21.954C21.8996 23.1783 21.8516 23.1462 21.8324 23.098C21.81 23.0467 21.8228 22.9889 21.8612 22.9504ZM23.5887 21.2234L24.5165 20.2957C24.5677 20.2444 24.6508 20.2444 24.7052 20.2957L27.3637 22.9504C27.3989 22.9889 27.4117 23.0467 27.3925 23.098C27.3701 23.1462 27.3221 23.1783 27.2677 23.1783H23.6847C23.6111 23.1783 23.5503 23.1205 23.5503 23.0467V21.3165C23.5503 21.2812 23.5631 21.2459 23.5887 21.2234ZM16.5122 23.5089H18.2141C18.2493 23.5089 18.2845 23.5217 18.3069 23.5474L19.4618 24.6966C19.4842 24.7223 19.5002 24.7576 19.5002 24.7929C19.5002 24.8282 19.4842 24.8635 19.4618 24.8892L16.6049 27.7332C16.5666 27.7717 16.5122 27.7846 16.461 27.7621C16.4098 27.7428 16.3778 27.6947 16.3778 27.6401V23.6405C16.3778 23.5667 16.4386 23.5089 16.5122 23.5089ZM27.8276 22.9504L24.9387 20.0678C24.9131 20.0421 24.9004 20.0068 24.9004 19.9715C24.9004 19.9362 24.9131 19.9009 24.9387 19.8784L27.8116 17.0055C27.8628 16.9542 27.9492 16.9542 28.0004 17.0055L30.8892 19.8913C30.9147 19.917 30.9308 19.9523 30.9308 19.9876C30.9308 20.0229 30.9147 20.0582 30.8892 20.0806L28.0164 22.9504C27.9652 23.0049 27.8788 23.0049 27.8276 22.9504ZM31.3115 20.315L38.8102 27.8038C38.8486 27.8424 38.8614 27.8969 38.839 27.9483C38.8198 27.9996 38.7719 28.0317 38.7175 28.0317H28.1539C28.0803 28.0317 28.0195 27.9707 28.0195 27.8969V23.4704C28.0195 23.4351 28.0355 23.3998 28.0611 23.3741L31.1259 20.315C31.1771 20.2636 31.2603 20.2636 31.3115 20.315ZM39.079 27.608L31.545 20.0839C31.5194 20.0582 31.5066 20.0261 31.5066 19.9908C31.5066 19.9555 31.5194 19.9202 31.545 19.8945L39.079 12.3703C39.1174 12.3322 39.1717 12.3209 39.2229 12.3418C39.2741 12.3623 39.3061 12.4111 39.3061 12.465V27.5117C39.3061 27.5663 39.2741 27.6144 39.2229 27.6369C39.1717 27.6562 39.1174 27.6465 39.079 27.608ZM31.1227 19.6634L28.0291 16.5722C28.0035 16.5465 27.9875 16.5144 27.9875 16.4791V12.0503C27.9875 11.9765 28.0483 11.9164 28.1219 11.9164H38.7463C38.8006 11.9164 38.8486 11.9492 38.871 11.9993C38.8902 12.0493 38.8774 12.1068 38.839 12.145L31.3115 19.6634C31.2571 19.7147 31.1739 19.7147 31.1227 19.6634ZM23.5503 16.3057V12.0503C23.5503 11.9765 23.6111 11.9164 23.6847 11.9164H27.5332C27.6068 11.9164 27.6644 11.9765 27.6644 12.0503V16.3057C27.6644 16.3796 27.6068 16.4406 27.5332 16.4406H23.6847C23.6111 16.4406 23.5503 16.3796 23.5503 16.3057ZM23.5503 18.6298V16.9028C23.5503 16.829 23.6111 16.768 23.6847 16.768H27.2677C27.3221 16.768 27.3701 16.8033 27.3925 16.8514C27.4117 16.9028 27.4021 16.9606 27.3637 16.9991L24.7052 19.6505C24.6508 19.7019 24.5677 19.7019 24.5165 19.6505L23.5887 18.7261C23.5631 18.7004 23.5503 18.6651 23.5503 18.6298ZM23.5503 20.4787V19.4644C23.5503 19.4098 23.5823 19.3616 23.6335 19.3424C23.6815 19.3199 23.7391 19.3327 23.7775 19.3713L24.2861 19.8784C24.3117 19.9009 24.3245 19.9362 24.3245 19.9715C24.3245 20.0068 24.3117 20.0421 24.2861 20.0678L23.7775 20.575C23.7391 20.6135 23.6815 20.6232 23.6335 20.6039C23.5823 20.5814 23.5503 20.5333 23.5503 20.4787ZM23.0928 16.4406H21.3589C21.3237 16.4406 21.2885 16.4277 21.2629 16.402L20.1272 15.2689C20.1016 15.2433 20.0888 15.2079 20.0888 15.1726C20.0888 15.1373 20.1016 15.102 20.1272 15.0763L23.0001 12.2114C23.0385 12.1733 23.096 12.162 23.144 12.1829C23.1952 12.2034 23.2272 12.2522 23.2272 12.3065V16.3057C23.2272 16.3796 23.1664 16.4406 23.0928 16.4406ZM18.9915 16.2126L19.7081 15.4968C19.7625 15.4423 19.8457 15.4423 19.8969 15.4968L20.6135 16.2126C20.6519 16.2512 20.6647 16.3089 20.6455 16.3571C20.6231 16.4085 20.5751 16.4406 20.5207 16.4406H19.0875C19.0331 16.4406 18.9852 16.4085 18.9628 16.3571C18.9436 16.3089 18.9531 16.2512 18.9915 16.2126ZM23.2272 18.8769V21.0693C23.2272 21.1047 23.2112 21.1399 23.1888 21.1624L21.2085 23.1398C21.1829 23.1654 21.1509 23.1783 21.1157 23.1783H18.4573C18.4221 23.1783 18.3869 23.1654 18.3645 23.1398L16.4194 21.1977C16.3938 21.1721 16.3778 21.1399 16.3778 21.1046V18.8769C16.3778 18.8416 16.3938 18.8063 16.4194 18.7806L18.3965 16.8065C18.4189 16.784 18.4541 16.768 18.4893 16.768H21.1157C21.1509 16.768 21.1829 16.784 21.2085 16.8065L23.1888 18.7806C23.2112 18.8063 23.2272 18.8416 23.2272 18.8769ZM23.2272 16.9028V18.0423C23.2272 18.0969 23.1952 18.1451 23.144 18.1643C23.096 18.1868 23.0385 18.1739 23.0001 18.1354L21.858 16.9991C21.8196 16.9606 21.81 16.9028 21.8292 16.8514C21.8516 16.8033 21.8996 16.768 21.954 16.768H23.0928C23.1664 16.768 23.2272 16.829 23.2272 16.9028ZM15.9268 23.1783H12.3341C12.2797 23.1783 12.2317 23.1462 12.2126 23.098C12.1902 23.0467 12.2029 22.9889 12.2413 22.9504L14.8838 20.3118C14.935 20.2604 15.0214 20.2604 15.0725 20.3118L16.0195 21.2587C16.0451 21.2844 16.0579 21.3197 16.0579 21.355V23.0467C16.0579 23.1205 16.0003 23.1783 15.9268 23.1783ZM17.6191 23.1783H16.5122C16.4386 23.1783 16.3778 23.1205 16.3778 23.0467V21.9424C16.3778 21.8879 16.413 21.8397 16.461 21.8173C16.5122 21.798 16.5698 21.8076 16.6049 21.8461L17.7118 22.9504C17.7502 22.9889 17.763 23.0467 17.7406 23.098C17.7215 23.1462 17.6735 23.1783 17.6191 23.1783ZM0.858757 11.9168H11.4543C11.5279 11.9168 11.5855 11.9765 11.5855 12.0503V16.4791C11.5855 16.5144 11.5727 16.5465 11.5471 16.5722L8.4663 19.6505C8.41511 19.7019 8.32878 19.7019 8.2776 19.6505L0.765969 12.1453C0.72758 12.1068 0.71477 12.0493 0.737165 11.9993C0.756359 11.9492 0.804372 11.9168 0.858757 11.9168ZM0.52922 12.3703L8.04403 19.8784C8.06963 19.9009 8.08565 19.9362 8.08565 19.9715C8.08565 20.0068 8.06963 20.0421 8.04403 20.0678L0.52922 27.5727C0.49083 27.6112 0.433258 27.6241 0.382071 27.6016C0.334084 27.5823 0.302093 27.5342 0.302093 27.4796V12.465C0.302093 12.4111 0.334084 12.3623 0.382071 12.3418C0.433258 12.3209 0.49083 12.3325 0.52922 12.3703Z" fill="white"/>
    <path d="M56.9926 28.7621C60.5813 28.7621 63.8591 27.2257 65.2229 23.4087L65.1749 23.3367C64.0265 23.3848 62.1126 22.7127 61.2274 21.9684L61.1556 21.9924C60.5813 23.7928 58.9066 24.8492 56.9926 24.8492C54.2412 24.8492 52.3511 22.7366 52.3511 19.9999C52.3511 17.2633 54.2412 15.1508 56.9926 15.1508C58.8826 15.1508 60.5813 16.183 61.1556 17.9834L61.2274 18.0074C62.0886 17.2633 64.0265 16.5911 65.1749 16.6391L65.2229 16.5671C63.8591 12.7501 60.5573 11.2378 56.9926 11.2378C52.375 11.2378 48.212 14.5026 48.212 19.9999C48.212 25.4973 52.375 28.7621 56.9926 28.7621Z" fill="white"/>
    <path d="M75.6782 28.4019H80.2958L76.2285 21.7523C78.1425 21.0322 79.4106 19.1596 79.4106 16.783C79.4106 13.9744 77.042 11.5978 73.7643 11.5978H66.491V28.4019H70.4865V22.4725H72.233L75.6782 28.4019ZM70.4865 19.1117V15.1026H73.2139C74.2906 15.1026 75.3673 15.7268 75.3673 17.1192C75.3673 18.5115 74.2906 19.1117 73.19 19.1117H70.4865Z" fill="white"/>
    <path d="M85.0093 28.4019H88.9569V22.1123L95.01 11.5978H90.5838L87.1386 17.7193H87.0189L83.5737 11.5978H79.0758L85.0093 21.8724V28.4019Z" fill="white"/>
    <path d="M95.7275 28.4019H99.7231V23.0246H102.451C105.848 23.0246 108.36 20.528 108.36 17.2872C108.36 14.0704 105.824 11.5978 102.451 11.5978H95.7275V28.4019ZM99.7231 19.4238V15.1987H102.02C103.264 15.1987 104.317 15.8708 104.317 17.3112C104.317 18.7276 103.288 19.4238 102.02 19.4238H99.7231Z" fill="white"/>
    <path d="M113.6 28.4019H117.595V15.3667H122.213V11.5978H108.958V15.3667H113.6V28.4019Z" fill="white"/>
    <path d="M131.161 28.7621C135.755 28.7621 139.99 25.4253 139.99 19.9999C139.99 14.5746 135.755 11.2378 131.161 11.2378C126.544 11.2378 122.309 14.5746 122.309 19.9999C122.309 25.4253 126.544 28.7621 131.161 28.7621ZM126.448 19.9999C126.448 17.2633 128.434 15.1508 131.161 15.1508C133.865 15.1508 135.851 17.2633 135.851 19.9999C135.851 22.7366 133.865 24.8492 131.161 24.8492C128.434 24.8492 126.448 22.7366 126.448 19.9999Z" fill="white"/>
    <path d="M141.592 28.4019H145.564V16.6631H145.683L149.272 28.4019H153.363L156.976 16.6631H157.072V28.4019H161.067V11.5978H154.775L151.425 22.5445H151.306L147.956 11.5978H141.592V28.4019Z" fill="white"/>
    <path d="M173.389 11.5978H168.173L161.881 28.4019H165.948L167.288 24.705H174.106L175.422 28.4019H179.681L173.389 11.5978ZM168.532 21.2001L170.661 15.3187H170.781L172.862 21.2001H168.532Z" fill="white"/>
    <path d="M182.17 28.4019H186.165V15.3667H190.782V11.5978H177.528V15.3667H182.17V28.4019Z" fill="white"/>
    <path d="M203.127 28.4019H207.123V17.8552C207.123 17.8552 202.587 16.7544 196.333 17.2568C196.327 17.2573 196.333 11.5978 196.333 11.5978H192.337V28.4019H196.333V21.0265C198.928 20.8064 200.975 20.8987 203.127 21.0388V28.4019Z" fill="white"/>
    <path d="M213.317 18.2352V28.4H209.322V18.0851C210.476 18.1813 211.777 18.2357 213.151 18.2357C213.21 18.2357 213.263 18.2352 213.317 18.2352Z" fill="white"/>
    <path d="M223.655 28.7621C227.244 28.7621 230.522 27.2257 231.886 23.4087L231.838 23.3367C230.689 23.3848 228.775 22.7127 227.89 21.9684L227.818 21.9924C227.244 23.7928 225.569 24.8492 223.655 24.8492C220.904 24.8492 219.014 22.7366 219.014 19.9999C219.014 17.2633 220.904 15.1508 223.655 15.1508C225.545 15.1508 227.244 16.183 227.818 17.9834L227.89 18.0074C228.751 17.2633 230.689 16.5911 231.838 16.6391L231.886 16.5671C230.522 12.7501 227.22 11.2378 223.655 11.2378C219.037 11.2378 214.875 14.5026 214.875 19.9999C214.875 25.4973 219.037 28.7621 223.655 28.7621Z" fill="white"/>
    <path d="M211.297 15.7868C212.635 15.7868 213.664 14.7305 213.664 13.5062C213.664 12.2579 212.635 11.1776 211.297 11.1776C209.981 11.1776 208.952 12.2579 208.952 13.5062C208.952 14.7305 209.981 15.7868 211.297 15.7868Z" fill="white"/>
  </g>
  <defs>
    <clipPath id="clip0_166_276">
      <rect width="232" height="40" fill="white"/>
    </clipPath>
  </defs>
</svg>
