<svg xmlns="http://www.w3.org/2000/svg" xml:space="preserve" style="fill-rule:evenodd;clip-rule:evenodd;stroke-linejoin:round;stroke-miterlimit:2" viewBox="0 0 2613 449"><path d="m29269.9 9957.37-360.3-358.63-515.4.4-359 356.97c0 24.37.3 525.39.3 525.39l358.3 356.5c.4.1.8.2 1.2.4.3.1.6.3.9.4h515.1l358.9-357.3z" style="fill:#fff" transform="translate(-10054.216 -3441.364)scale(.3587)"/><path d="M28754.2 10914.7h497v516l-497.6-6z" style="fill:#009ea6" transform="translate(-10226.855 -3671.567)scale(.36032)"/><path d="m28286.8 11229.5 358.6-358.6 505.4 2.5-369.9 358.8z" style="fill:#009ea6;fill-opacity:.76" transform="translate(-10057.44 -3785.936)scale(.36032)"/><path d="m28753.6 10905.4 364.9-361.3v517.8l-364.9 362.8z" style="fill:#009ea6;fill-opacity:.76" transform="translate(-10047.565 -3668.189)scale(.36032)"/><path d="M29276.3 9953.45h-1.3zm-365.8-356.92c-34.8.03-485.8.38-517.2.4l-360.3 358.26.3 527.21 360.4 358.6c.5.1 518.2.1 518.2.1l360.3-358.7v-525.95c-.1-.01-.1-.03-.1-.04zm-499.6 883.47h125.9c1.1 0 2.2.4 2.9 1.2l102.7 102.1c.7.8 1.2 1.9 1.2 3s-.5 2.2-1.2 2.9l-228.5 227.5c-1.2 1.2-3 1.5-4.6.9-1.5-.7-2.5-2.2-2.5-3.9v-329.5c0-2.3 1.8-4.2 4.1-4.2m244.6 116.4 228.4 227.3c1.2 1.2 1.5 3 .9 4.5-.7 1.6-2.2 2.6-3.9 2.6h-456.7c-1.7 0-3.2-1-3.9-2.6-.6-1.5-.2-3.3 1-4.5l228.3-227.3c1.6-1.6 4.3-1.6 5.9 0m-232.3-989.59h457.7c1.6 0 3.2 1.01 3.8 2.57.7 1.56.3 3.36-.9 4.55l-228.8 227.56c-1.6 1.61-4.2 1.61-5.9 0l-228.8-227.56c-1.2-1.19-1.6-2.99-1-4.55.7-1.56 2.2-2.57 3.9-2.57m-27.5 12v334.65c0 2.3-1.8 4.16-4.1 4.16h-336.3c-1.7 0-3.2-1.01-3.8-2.57-.7-1.56-.3-3.36.9-4.55l336.2-334.64c1.2-1.19 3-1.54 4.6-.89 1.5.64 2.5 2.16 2.5 3.84m246.2 235.8-102.2 101.8c-.7.78-1.8 1.21-2.9 1.21h-126.9c-2.3 0-4.1-1.86-4.1-4.16v-329.63c0-1.68 1-3.2 2.5-3.85 1.6-.64 3.4-.29 4.6.9l229 227.82c.7.79 1.2 1.85 1.2 2.96 0 1.1-.5 2.17-1.2 2.95m-236.1 249.89v-132.57c0-2.3 1.8-4.16 4.1-4.16h121.5c2.3 0 4.1 1.86 4.1 4.16v132.57c0 2.3-1.8 4.2-4.1 4.2h-121.5c-2.3 0-4.1-1.9-4.1-4.2m236.4-32.5-35.7 35.5c-.7.8-1.8 1.2-2.9 1.2h-53.9c-2.3 0-4.2-1.9-4.2-4.2v-124.59c0-1.68 1.1-3.2 2.6-3.85 1.6-.65 3.3-.29 4.5.89l89.6 89.05c.8.8 1.3 1.9 1.3 3s-.5 2.2-1.3 3m131.7 256.9h121.3c2.3 0 4.1 1.8 4.1 4.1v132.6c0 2.3-1.8 4.2-4.1 4.2h-121.3c-2.3 0-4.2-1.9-4.2-4.2V10333c0-2.3 1.9-4.1 4.2-4.1m135.5 489.8v-334.5c0-2.3 1.9-4.2 4.2-4.2h336.1c1.7 0 3.2 1 3.9 2.6.6 1.5.2 3.3-.9 4.5l-336.1 334.6c-1.2 1.1-3 1.5-4.6.9-1.5-.7-2.6-2.2-2.6-3.9m339.4-861.08h-336.2c-2.3 0-4.2-1.86-4.2-4.17v-334.64c0-1.68 1.1-3.2 2.6-3.84 1.6-.65 3.4-.3 4.6.89l336.2 334.64c1.2 1.19 1.5 2.99.9 4.54-.7 1.56-2.2 2.58-3.9 2.58m-497.6 5.89-95.9 95.39c-1.6 1.6-4.2 1.6-5.9 0l-96.3-95.83c-.8-.78-1.2-1.84-1.2-2.95s.5-2.18 1.2-2.96l96-95.3c1.7-1.61 4.3-1.61 5.9 0l96.2 95.74c.8.78 1.3 1.84 1.3 2.95s-.5 2.17-1.3 2.96m-259.8 258.49-89.8 89.4c-1.7 1.6-4.3 1.6-5.9 0l-90.3-89.7c-.8-.8-1.2-1.9-1.2-3s.4-2.2 1.2-2.9l89.9-89.5c1.6-1.6 4.3-1.6 5.9 0l90.2 89.8c.8.8 1.2 1.9 1.2 3s-.4 2.1-1.2 2.9m96.5-95.9-35.3 35c-1.1 1.2-2.9 1.5-4.5.9-1.5-.7-2.6-2.2-2.6-3.9v-35c0-2.3 1.9-4.2 4.2-4.2h35.2c1.7 0 3.2 1.1 3.9 2.6.6 1.6.3 3.4-.9 4.6m306.3-168.48h-126.8c-1.1 0-2.2-.44-2.9-1.21l-102.2-101.8c-.8-.78-1.3-1.85-1.3-2.95 0-1.11.5-2.17 1.3-2.96l228.9-227.82c1.2-1.19 3-1.54 4.6-.9 1.5.65 2.5 2.17 2.5 3.85v329.62c0 2.31-1.8 4.17-4.1 4.17m-358.7 375.38v132.6c0 2.3-1.8 4.2-4.1 4.2h-120.5c-2.3 0-4.1-1.9-4.1-4.2V10333c0-2.3 1.8-4.1 4.1-4.1h120.5c2.3 0 4.1 1.8 4.1 4.1m-1.2-153.7-29.8 29.7c-1.6 1.6-4.2 1.6-5.9 0l-83.4-82.9c-1.2-1.2-1.6-3-.9-4.6.6-1.5 2.1-2.6 3.8-2.6h113.3c2.3 0 4.1 1.9 4.1 4.2v53.3c0 1.1-.4 2.2-1.2 2.9m-137.6 149.4v136.9c0 2.3-1.8 4.2-4.1 4.2h-332.2c-1.7 0-3.2-1-3.8-2.6-.7-1.6-.3-3.3.9-4.5l234.8-233.9c1.6-1.6 4.3-1.6 5.9 0l97.3 96.9c.8.8 1.2 1.9 1.2 3m0 155.5v335.5c0 1.7-1 3.2-2.5 3.9-1.6.6-3.4.3-4.6-.9l-337.2-335.6c-1.2-1.2-1.6-3-.9-4.5.6-1.6 2.1-2.6 3.8-2.6h337.3c2.3 0 4.1 1.9 4.1 4.2m232.4-155.3h45.9c1.7 0 3.2 1 3.8 2.5.7 1.6.3 3.4-.9 4.6l-22.9 22.8c-1.6 1.6-4.2 1.6-5.9 0l-22.9-22.8c-1.2-1.2-1.6-3-.9-4.6.6-1.5 2.1-2.5 3.8-2.5m263.1 488.7-229.5-228.3c-.8-.8-1.2-1.8-1.2-2.9q0-1.8 1.2-3l102.7-102.2c.8-.8 1.8-1.2 2.9-1.2h126.9c2.3 0 4.1 1.9 4.1 4.2v330.5c0 1.6-1 3.2-2.5 3.8-1.6.7-3.4.3-4.6-.9m-380.3-601.3 16.5-16.4c1.2-1.2 3-1.6 4.6-.9 1.5.6 2.5 2.1 2.5 3.8v32.8c0 1.7-1 3.2-2.5 3.9-1.6.6-3.4.3-4.6-.9l-16.5-16.4c-.8-.8-1.2-1.9-1.2-3s.4-2.1 1.2-2.9m137.6 359.9-96.4-95.9c-.7-.8-1.2-1.8-1.2-2.9s.5-2.2 1.2-3l96-95.5c1.7-1.6 4.3-1.6 5.9 0l96.3 96c.8.7 1.2 1.8 1.2 2.9s-.4 2.2-1.2 3l-95.9 95.4c-1.6 1.6-4.2 1.6-5.9 0m103-114.5-90.2-89.8c-.8-.8-1.3-1.9-1.3-3s.5-2.2 1.3-3l36-35.8c.7-.8 1.8-1.2 2.9-1.2h54.2c2.3 0 4.2 1.8 4.2 4.1v125.7c0 1.7-1 3.2-2.6 3.9-1.5.6-3.3.3-4.5-.9m-35.6-150.2 35.6-35.5c1.2-1.1 3-1.5 4.5-.9 1.6.7 2.6 2.2 2.6 3.9v35.5c0 2.3-1.9 4.1-4.2 4.1h-35.6c-1.7 0-3.2-1-3.8-2.5-.7-1.6-.3-3.4.9-4.6m54-53.8 29-28.9c1.6-1.6 4.2-1.6 5.9 0l83.1 82.7c1.1 1.2 1.5 3 .9 4.6-.7 1.5-2.2 2.5-3.9 2.5h-112c-2.3 0-4.2-1.8-4.2-4.1v-53.9c0-1.1.4-2.2 1.2-2.9m-221.2 71.2h53.2c1.1 0 2.2.4 2.9 1.2l36.1 35.8c.7.8 1.2 1.9 1.2 3s-.5 2.2-1.2 3l-89.3 88.6c-1.2 1.2-2.9 1.6-4.5.9-1.6-.6-2.6-2.1-2.6-3.8V10333c0-2.3 1.9-4.1 4.2-4.1m353.7-17.4-90.3-89.8c-.8-.8-1.2-1.9-1.2-3s.4-2.2 1.2-2.9l89.8-89.5c1.6-1.6 4.3-1.6 5.9 0l90.3 89.9c.8.8 1.3 1.9 1.3 3s-.5 2.2-1.3 2.9l-89.8 89.4a4.05 4.05 0 0 1-5.9 0m108.9-82.1 234.4 233.3c1.2 1.2 1.6 2.9.9 4.5-.6 1.6-2.1 2.6-3.8 2.6h-330.2c-2.3 0-4.2-1.9-4.2-4.2v-137.9c0-1.1.5-2.2 1.3-3l95.8-95.3c1.6-1.6 4.2-1.6 5.8 0m242.8 227.2-235.5-234.4c-.8-.8-1.2-1.8-1.2-2.9s.4-2.2 1.2-3l235.5-234.4c1.2-1.19 2.9-1.54 4.5-.89 1.6.64 2.6 2.16 2.6 3.84v468.75c0 1.7-1 3.2-2.6 3.9-1.6.6-3.3.3-4.5-.9m-248.7-247.5-96.7-96.3c-.8-.8-1.3-1.8-1.3-2.9v-137.97c0-2.3 1.9-4.17 4.2-4.17h332.1c1.7 0 3.2 1.02 3.9 2.58.6 1.56.2 3.35-1 4.54l-235.3 234.22c-1.7 1.6-4.3 1.6-5.9 0m-236.7-104.6v-132.57c0-2.3 1.9-4.17 4.2-4.17h120.3c2.3 0 4.1 1.87 4.1 4.17v132.57c0 2.3-1.8 4.2-4.1 4.2h-120.3c-2.3 0-4.2-1.9-4.2-4.2m0 72.4v-53.8c0-2.3 1.9-4.2 4.2-4.2h112c1.7 0 3.2 1.1 3.9 2.6.6 1.6.3 3.4-.9 4.6l-83.1 82.6c-1.7 1.6-4.3 1.6-5.9 0l-29-28.8c-.8-.8-1.2-1.9-1.2-3m0 57.6v-31.6c0-1.7 1-3.2 2.6-3.8 1.5-.7 3.3-.3 4.5.9l15.9 15.8c.8.7 1.2 1.8 1.2 2.9s-.4 2.2-1.2 3l-15.9 15.8c-1.2 1.2-3 1.5-4.5.9-1.6-.7-2.6-2.2-2.6-3.9m-14.3-125.8h-54.2c-1.1 0-2.2-.4-3-1.2l-35.5-35.3c-.8-.8-1.2-1.9-1.2-3s.4-2.2 1.2-3l89.8-89.25c1.2-1.19 3-1.54 4.5-.89 1.6.64 2.6 2.16 2.6 3.85v124.59c0 2.3-1.9 4.2-4.2 4.2m-128.2-7.1 22.4-22.3c1.7-1.7 4.3-1.7 5.9 0l22.4 22.3c1.2 1.2 1.6 3 1 4.5-.7 1.6-2.2 2.6-3.9 2.6h-44.8c-1.7 0-3.2-1-3.9-2.6-.6-1.5-.3-3.3.9-4.5m132.4 83v68.3c0 1.1-.5 2.2-1.2 2.9l-61.9 61.6c-.8.8-1.8 1.2-2.9 1.2h-83.1c-1.1 0-2.2-.4-2.9-1.2l-60.8-60.5c-.8-.8-1.3-1.8-1.3-2.9v-69.4c0-1.1.5-2.2 1.3-3l61.8-61.5c.7-.7 1.8-1.2 2.9-1.2h82.1c1.1 0 2.1.5 2.9 1.2l61.9 61.5c.7.8 1.2 1.9 1.2 3m0-61.5v35.5c0 1.7-1 3.2-2.6 3.8-1.5.7-3.3.3-4.5-.9l-35.7-35.4c-1.2-1.2-1.5-3-.9-4.6.7-1.5 2.2-2.6 3.9-2.6h35.6c2.3 0 4.2 1.9 4.2 4.2m-228.2 195.5h-112.3c-1.7 0-3.2-1-3.8-2.5-.7-1.6-.3-3.4.9-4.6l82.6-82.2c1.6-1.6 4.3-1.6 5.9 0l29.6 29.5c.8.8 1.2 1.9 1.2 3v52.7c0 2.3-1.8 4.1-4.1 4.1m52.9 0h-34.6c-2.3 0-4.2-1.8-4.2-4.1v-34.4c0-1.7 1.1-3.2 2.6-3.9 1.6-.6 3.4-.3 4.5.9l34.6 34.4c1.2 1.2 1.6 3 .9 4.6-.6 1.5-2.1 2.5-3.8 2.5m-523.9-350.83h331.2c2.3 0 4.1 1.86 4.1 4.16v137.97c0 1.1-.4 2.1-1.2 2.9l-96.3 95.9c-1.6 1.6-4.3 1.6-5.9 0l-234.8-233.81c-1.2-1.2-1.6-2.99-.9-4.55.6-1.56 2.1-2.57 3.8-2.57m-10.3 14.13 234.9 233.9c.8.7 1.3 1.8 1.3 2.9s-.5 2.2-1.3 3l-234.9 233.8c-1.2 1.2-3 1.6-4.6.9-1.5-.6-2.5-2.1-2.5-3.8v-467.75c0-1.68 1-3.2 2.5-3.84 1.6-.65 3.4-.29 4.6.89" style="fill:#141d28" transform="translate(-10100.832 -3457.878)scale(.36032)"/><path d="M149.408 250.78c17.509 0 33.501-13.228 40.155-46.091l-.234-.62c-5.603.414-14.941-5.373-19.26-11.781l-.35.207c-2.802 15.501-10.973 24.596-20.311 24.596-13.424 0-22.646-18.189-22.646-41.751s9.222-41.75 22.646-41.75c9.221 0 17.509 8.887 20.311 24.388l.35.207c4.202-6.407 13.657-12.194 19.26-11.781l.234-.62C182.909 112.921 166.8 99.9 149.408 99.9c-22.529 0-42.84 28.109-42.84 75.44s20.311 75.44 42.84 75.44M240.573 247.68h22.529l-19.844-57.252c9.338-6.2 15.525-22.322 15.525-42.784 0-24.182-11.556-44.644-27.548-44.644h-35.486v144.68h19.494v-51.051h8.521zm-25.33-79.987v-34.517h13.307c5.253 0 10.506 5.374 10.506 17.362s-5.253 17.155-10.623 17.155zM286.098 247.68h19.26v-54.152L334.891 103h-21.595l-16.809 52.705h-.584L279.094 103h-21.945l28.949 88.462zM338.392 247.68h19.494v-46.298h13.307c16.576 0 28.833-21.495 28.833-49.397 0-27.696-12.374-48.985-28.833-48.985h-32.801zm19.494-77.3v-36.377h11.206c6.07 0 11.206 5.787 11.206 18.188 0 12.195-5.019 18.189-11.206 18.189zM425.589 247.68h19.494V135.45h22.529V103h-64.668v32.45h22.645zM511.269 250.78c22.412 0 43.073-28.729 43.073-75.44S533.681 99.9 511.269 99.9c-22.529 0-43.19 28.729-43.19 75.44s20.661 75.44 43.19 75.44m-22.996-75.44c0-23.562 9.688-41.75 22.996-41.75 13.19 0 22.879 18.188 22.879 41.75s-9.689 41.751-22.879 41.751c-13.308 0-22.996-18.189-22.996-41.751M562.163 247.68h19.377V146.611h.583l17.51 101.069h19.96l17.627-101.069h.466V247.68h19.494V103h-30.7l-16.342 94.249h-.583L593.213 103h-31.05zM717.296 103h-25.447l-30.7 144.68h19.844l6.537-31.83h33.268l6.42 31.83h20.778zM693.6 185.674l10.389-50.638h.583l10.156 50.638zM760.136 247.68h19.493V135.45h22.529V103H737.49v32.45h22.646zM862.39 247.68h19.494v-90.805s-22.128-9.478-52.645-5.152c-.029.004 0-48.723 0-48.723h-19.493v144.68h19.493v-63.501c12.664-1.895 22.652-1.1 33.151.106z" style="fill:#141d28;fill-rule:nonzero" transform="matrix(2.30848 0 0 1.30375 297.37 -4.142)"/><path d="M23202.6 3190.54v207.16h-81.7v-210.22c23.6 1.96 50.2 3.07 78.3 3.07 1.2 0 2.3-.01 3.4-.01" style="fill:#141d28;fill-rule:nonzero" transform="translate(-10377.116 -1552.619)scale(.55078)"/><path d="M962.544 250.78c17.51 0 33.502-13.228 40.156-46.091l-.23-.62c-5.607.414-14.946-5.373-19.265-11.781l-.35.207c-2.801 15.501-10.972 24.596-20.311 24.596-13.424 0-22.645-18.189-22.645-41.751s9.221-41.75 22.645-41.75c9.222 0 17.51 8.887 20.311 24.388l.35.207c4.203-6.407 13.658-12.194 19.265-11.781l.23-.62c-6.654-32.863-22.763-45.884-40.156-45.884-22.529 0-42.839 28.109-42.839 75.44s20.31 75.44 42.839 75.44" style="fill:#141d28;fill-rule:nonzero" transform="matrix(2.30848 0 0 1.30375 297.37 -4.142)"/><path d="M1015.31 249.747c6.53 0 11.55-9.094 11.55-19.635 0-10.748-5.02-20.049-11.55-20.049-6.42 0-11.44 9.301-11.44 20.049 0 10.541 5.02 19.635 11.44 19.635" style="fill:#141d28;fill-rule:nonzero" transform="matrix(2.30848 0 0 1.30375 35.987 -148.453)"/></svg>