<svg version="1.2" xmlns="http://www.w3.org/2000/svg" viewBox="0 0 335 80"><style>.a{fill:#1b2d3e}.b{fill:#fe7c06}</style><path fill-rule="evenodd" class="a" d="m74 0h10v17h18v9h-18l0.5 26.5 33.5 0.5v9h-44v-36h10v-9h-10zm-74 13h5v52h52v5h-57zm181 4h47v63h-47v-10h37v-8h-37zm11 35h26v-25h-26zm96-35h47v45h-47v-29h36v-6h-36zm10.7 34.5l25.3 0.5v-8h-25.5zm-172.7-34.5h10v34h26v-34h11v45h-47zm112 0h43v10h-33v35h-10z"/><path fill-rule="evenodd" class="b" d="m8 0h62v62h-62zm10 53h42v-8h-35l0.5-10.5 34.5-0.5v-25h-42zm56-36h10v9h-10zm-48 0h26v9h-26z"/></svg>