<?xml version="1.0" encoding="UTF-8"?>
<svg id="text" xmlns="http://www.w3.org/2000/svg" viewBox="0 0 841.89 595.28">
  <defs>
    <style>
      .cls-1 {
        fill: #ed1c24;
      }
    </style>
  </defs>
  <g>
    <path d="M229.58,282.08l-17.24,57.18c-2.74,9.3-10.13,11.81-17.11,11.81s-14.23-2.51-16.97-11.81l-17.24-57.18c-.14-.25-.14-.62-.14-.88,0-1.13.96-2.01,2.19-2.01h13.69c1.23,0,2.33.88,2.74,2.52l13.14,52.65c.55,2.39,1.51,3.15,2.6,3.15s2.05-.75,2.6-3.15l13.14-52.65c.41-1.64,1.64-2.52,2.87-2.52h13.69c1.23,0,2.19.88,2.19,2.01,0,.25,0,.63-.13.88Z"/>
    <path d="M307.54,320.73h-44.15v.37c0,7.22,3.25,15.79,16.25,15.79,9.89,0,19.23-.75,24.92-1.24h.41c1.35,0,2.44.62,2.44,1.86v8.21c0,1.99-.41,2.86-2.84,3.23-8.8,1.5-14.08,2.11-26.27,2.11-13.54,0-32.77-6.71-32.77-31.21v-9.2c0-19.4,11.78-31.58,32.5-31.58s32.23,13.06,32.23,31.58v6.96c0,1.99-.82,3.11-2.71,3.11ZM292.24,308.54c0-9.7-5.82-15.3-14.22-15.3s-14.49,5.47-14.49,15.3v.5h28.71v-.5Z"/>
    <path d="M368.98,293.02c-7.46,0-13.27,1.78-19.07,4.57v51.01c0,1.4-1.24,2.66-2.76,2.66h-12.71c-1.52,0-2.76-1.27-2.76-2.66v-66.36c0-1.4,1.24-2.54,2.76-2.54h12.02c1.52,0,2.76,1.14,2.76,2.54v2.66c6.77-4.82,14.23-6.09,19.76-6.09,1.52,0,2.76,1.14,2.76,2.53v9.14c0,1.39-1.24,2.53-2.76,2.53Z"/>
    <path d="M414.67,351.07c-5.28,0-16.66-.62-24.24-2.48-1.62-.38-2.57-1.37-2.57-2.86v-7.46c0-1,.95-1.99,2.3-1.99h.54c6.5.75,18.69,1.37,22.75,1.37,8.39,0,9.62-2.61,9.62-5.97,0-2.36-1.63-3.85-5.96-6.34l-18.55-10.44c-6.63-3.73-11.37-9.95-11.37-17.16,0-12.43,8.53-18.65,25.73-18.65,10.97,0,17.2,1.11,24.11,2.48,1.62.38,2.43,1.37,2.43,2.86v7.21c0,1.5-.81,2.37-2.16,2.37h-.54c-3.79-.5-14.63-1.5-22.35-1.5-6.5,0-9.35,1.37-9.35,5.22,0,1.99,2.03,3.24,5.42,5.1l17.74,9.95c11.37,6.34,13,12.56,13,18.9,0,10.82-8.81,19.4-26.54,19.4Z"/>
    <path d="M516.78,350.07h-11.51c-1.49,0-2.71-1.12-2.71-2.49v-1.99c-6.23,3.49-12.6,5.47-19.1,5.47-11.24,0-23.43-3.98-23.43-20.76v-.5c0-14.17,9.48-21.51,33.04-21.51h8.53v-5.47c0-8.08-3.92-10.07-11.91-10.07-8.67,0-17.61.49-22.08.99h-.67c-1.35,0-2.44-.37-2.44-2.12v-7.96c0-1.37.81-2.23,2.58-2.61,5.41-.99,13.27-1.99,22.61-1.99,19.23,0,29.79,7.83,29.79,23.75v44.76c0,1.37-1.22,2.49-2.7,2.49ZM501.61,319.24h-8.53c-12.32,0-15.03,3.61-15.03,10.57v.5c0,6.09,2.98,7.71,9.75,7.71,4.87,0,9.89-1.49,13.81-3.48v-15.29Z"/>
    <path d="M568.65,351.07c-5.28,0-16.66-.62-24.24-2.48-1.62-.38-2.57-1.37-2.57-2.86v-7.46c0-1,.95-1.99,2.3-1.99h.54c6.5.75,18.69,1.37,22.75,1.37,8.4,0,9.61-2.61,9.61-5.97,0-2.36-1.62-3.85-5.95-6.34l-18.56-10.44c-6.64-3.73-11.37-9.95-11.37-17.16,0-12.43,8.52-18.65,25.73-18.65,10.97,0,17.2,1.11,24.1,2.48,1.62.38,2.44,1.37,2.44,2.86v7.21c0,1.5-.81,2.37-2.16,2.37h-.54c-3.79-.5-14.62-1.5-22.34-1.5-6.5,0-9.34,1.37-9.34,5.22,0,1.99,2.03,3.24,5.41,5.1l17.74,9.95c11.38,6.34,13,12.56,13,18.9,0,10.82-8.8,19.4-26.54,19.4Z"/>
    <path d="M676.58,320.73h-44.15v.37c0,7.22,3.25,15.79,16.25,15.79,9.89,0,19.23-.75,24.92-1.24h.41c1.35,0,2.43.62,2.43,1.86v8.21c0,1.99-.41,2.86-2.84,3.23-8.8,1.5-14.08,2.11-26.27,2.11-13.54,0-32.77-6.71-32.77-31.21v-9.2c0-19.4,11.78-31.58,32.5-31.58s32.23,13.06,32.23,31.58v6.96c0,1.99-.81,3.11-2.71,3.11ZM661.28,308.54c0-9.7-5.82-15.3-14.22-15.3s-14.49,5.47-14.49,15.3v.5h28.71v-.5Z"/>
    <path d="M747,349.45c-3.11.75-9.2,1.62-17.46,1.62-17.61,0-30.87-9.94-30.87-30.21v-11.56c0-20.27,13.27-30.22,30.87-30.22,8.26,0,14.35.87,17.46,1.61,2.31.51,2.85,1.25,2.85,3.23v8.09c0,1.24-1.08,1.87-2.44,1.87h-.41c-5.41-.63-8.66-.88-17.46-.88-6.37,0-13,3.36-13,16.3v11.56c0,12.93,6.63,16.29,13,16.29,8.8,0,12.05-.25,17.46-.87h.41c1.35,0,2.44.62,2.44,1.86v8.09c0,1.99-.54,2.73-2.85,3.23Z"/>
  </g>
  <path class="cls-1" d="M116.39,313.68c-9.99-21.85,19.28-49.12,65.36-60.9,15.69-4.01,31.29-5.7,45.46-5.33-18.87-4.93-44.18-4.7-69.69,1.82-44.83,11.46-73.3,37.98-63.58,59.24,5.42,11.88,21.62,19.59,42.67,22.1-9.76-4.01-16.92-9.72-20.22-16.92Z"/>
</svg>