<svg xmlns="http://www.w3.org/2000/svg" xml:space="preserve" viewBox="0 0 676 127"><path d="m148.5 48.1-17.2 57.2c-2.7 9.3-10.1 11.8-17.1 11.8s-14.2-2.5-17-11.8L80 48.1c-.1-.3-.1-.6-.1-.9 0-1.1 1-2 2.2-2h13.7c1.2 0 2.3.9 2.7 2.5l13.1 52.6c.6 2.4 1.5 3.1 2.6 3.1s2.1-.8 2.6-3.1l13.1-52.6c.4-1.6 1.6-2.5 2.9-2.5h13.7c1.2 0 2.2.9 2.2 2 0 .3 0 .6-.2.9M226.5 86.7h-44.1v.4c0 7.2 3.3 15.8 16.3 15.8 9.9 0 19.2-.7 24.9-1.2h.4c1.4 0 2.4.6 2.4 1.9v8.2c0 2-.4 2.9-2.8 3.2-8.8 1.5-14.1 2.1-26.3 2.1-13.5 0-32.8-6.7-32.8-31.2v-9.2c0-19.4 11.8-31.6 32.5-31.6 20.9 0 32.2 13.1 32.2 31.6v7c0 1.9-.8 3-2.7 3m-15.3-12.2c0-9.7-5.8-15.3-14.2-15.3s-14.5 5.5-14.5 15.3v.5h28.7zM287.9 59c-7.5 0-13.3 1.8-19.1 4.6v51c0 1.4-1.2 2.7-2.8 2.7h-12.7c-1.5 0-2.8-1.3-2.8-2.7V48.2c0-1.4 1.2-2.5 2.8-2.5h12c1.5 0 2.8 1.1 2.8 2.5v2.7c6.8-4.8 14.2-6.1 19.8-6.1 1.5 0 2.8 1.1 2.8 2.5v9.1c0 1.5-1.2 2.6-2.8 2.6M333.6 117.1c-5.3 0-16.7-.6-24.2-2.5-1.6-.4-2.6-1.4-2.6-2.9v-7.5c0-1 1-2 2.3-2h.5c6.5.7 18.7 1.4 22.8 1.4 8.4 0 9.6-2.6 9.6-6 0-2.4-1.6-3.9-6-6.3l-18.6-10.4C310.8 77.2 306 71 306 63.7c0-12.4 8.5-18.6 25.7-18.6 11 0 17.2 1.1 24.1 2.5 1.6.4 2.4 1.4 2.4 2.9v7.2c0 1.5-.8 2.4-2.2 2.4h-.5c-3.8-.5-14.6-1.5-22.3-1.5-6.5 0-9.3 1.4-9.3 5.2 0 2 2 3.2 5.4 5.1l17.7 9.9c11.4 6.3 13 12.6 13 18.9.2 10.8-8.6 19.4-26.4 19.4M435.7 116.1h-11.5c-1.5 0-2.7-1.1-2.7-2.5v-2c-6.2 3.5-12.6 5.5-19.1 5.5-11.2 0-23.4-4-23.4-20.8v-.5c0-14.2 9.5-21.5 33-21.5h8.5v-5.5c0-8.1-3.9-10.1-11.9-10.1-8.7 0-17.6.5-22.1 1h-.7c-1.4 0-2.4-.4-2.4-2.1v-8c0-1.4.8-2.2 2.6-2.6 5.4-1 13.3-2 22.6-2 19.2 0 29.8 7.8 29.8 23.7v44.8c0 1.5-1.2 2.6-2.7 2.6m-15.1-30.9H412c-12.3 0-15 3.6-15 10.6v.5c0 6.1 3 7.7 9.8 7.7 4.9 0 9.9-1.5 13.8-3.5zM487.6 117.1c-5.3 0-16.7-.6-24.2-2.5-1.6-.4-2.6-1.4-2.6-2.9v-7.5c0-1 .9-2 2.3-2h.5c6.5.7 18.7 1.4 22.8 1.4 8.4 0 9.6-2.6 9.6-6 0-2.4-1.6-3.9-6-6.3l-18.6-10.4C464.8 77.2 460 71 460 63.7c0-12.4 8.5-18.6 25.7-18.6 11 0 17.2 1.1 24.1 2.5 1.6.4 2.4 1.4 2.4 2.9v7.2c0 1.5-.8 2.4-2.2 2.4h-.5c-3.8-.5-14.6-1.5-22.3-1.5-6.5 0-9.3 1.4-9.3 5.2 0 2 2 3.2 5.4 5.1l17.7 9.9c11.4 6.3 13 12.6 13 18.9.1 10.8-8.7 19.4-26.4 19.4M595.5 86.7h-44.1v.4c0 7.2 3.2 15.8 16.2 15.8 9.9 0 19.2-.7 24.9-1.2h.4c1.4 0 2.4.6 2.4 1.9v8.2c0 2-.4 2.9-2.8 3.2-8.8 1.5-14.1 2.1-26.3 2.1-13.5 0-32.8-6.7-32.8-31.2v-9.2c0-19.4 11.8-31.6 32.5-31.6 20.9 0 32.2 13.1 32.2 31.6v7c.1 1.9-.7 3-2.6 3m-15.3-12.2c0-9.7-5.8-15.3-14.2-15.3s-14.5 5.5-14.5 15.3v.5h28.7zM666 115.4c-3.1.8-9.2 1.6-17.5 1.6-17.6 0-30.9-9.9-30.9-30.2V75.3c0-20.3 13.3-30.2 30.9-30.2 8.3 0 14.4.9 17.5 1.6 2.3.5 2.8 1.2 2.8 3.2V58c0 1.2-1.1 1.9-2.4 1.9h-.4c-5.4-.6-8.7-.9-17.5-.9-6.4 0-13 3.4-13 16.3v11.6c0 12.9 6.6 16.3 13 16.3 8.8 0 12.1-.2 17.5-.9h.4c1.4 0 2.4.6 2.4 1.9v8.1c0 1.9-.5 2.7-2.8 3.1"/><path d="M35.4 79.7c-10-21.9 19.3-49.1 65.4-60.9 15.7-4 31.3-5.7 45.5-5.3-18.9-4.9-44.2-4.7-69.7 1.8C31.8 26.8 3.3 53.3 13 74.5c5.4 11.9 21.6 19.6 42.7 22.1-9.9-4-17.1-9.7-20.3-16.9" style="fill:#ed1c24"/></svg>