<svg version="1.2" xmlns="http://www.w3.org/2000/svg" viewBox="0 0 612 122">
    <style>.a{fill:#222221}</style>
    <path fill-rule="evenodd" class="a"
        d="m0 2.9h32.5v89.7h45.3v29.3h-77.8zm88.2 0h89.3v29.3h-56.8v16.4h56.8v26.6h-56.8v18.1h56.8v28.7h-89.3c0 0 0-119.1 0-119.1zm177.9 119.1l-20-30.4-20 30.4h-38.1l39-59.5-39-59.6h38.1l36.8 56 36.8-56h4.6l-39.1 59.6 39.1 59.5c0 0-38.2 0-38.2 0zm86-63.3q-1.5 3.4-3.9 5.8-2.5 2.5-5.8 4-3.4 1.4-7.2 1.4-4.2 0-7.7-1.7-3.6-1.7-6.2-4.6v26.1c0 1.3-1 2.3-2.3 2.3-1.2 0-2.2-1-2.2-2.3v-70.4q0-3.9 1.4-7.2 1.5-3.4 3.9-5.8 1.6-1.6 3.6-2.8 0.2-0.1 0.5-0.3 0.2-0.1 0.5-0.3 0.4-0.2 0.8-0.3 1.5-0.7 3-1.1 0.1 0 0.1 0 2.2-0.6 4.6-0.6 3.8 0 7.2 1.5 3.3 1.4 5.8 3.9 2.4 2.4 3.9 5.8 1.4 3.4 1.4 7.2v32.2q0 3.8-1.4 7.2zm-3.1-7.2v-32.2q0-2.9-1.1-5.4-1.1-2.6-2.9-4.4-1.9-1.9-4.4-3-2.5-1.1-5.4-1.1-2.4 0-4.6 0.8-0.4 0.2-0.8 0.3-2.5 1.1-4.3 2.9-0.1 0-0.1 0.1-0.1 0.1-0.1 0.1-1.8 1.8-2.9 4.3-1.1 2.5-1.1 5.4v32.2q0 2.9 1.1 5.4 1.1 2.5 3 4.4 1.8 1.9 4.4 2.9 2.5 1.2 5.4 1.1 2.8 0.1 5.4-1.1 2.5-1 4.4-2.9 1.8-1.8 2.9-4.4 1.1-2.5 1.1-5.4zm18.6 0q0 2.9 1.1 5.4 1.1 2.6 3 4.4 1.8 1.9 4.4 3 2.5 1.1 5.4 1.1 2.9 0 5.4-1.1 2.5-1.1 4.4-3 1.8-1.8 2.9-4.4 1.1-2.5 1.1-5.4c0-1.2 1-2.3 2.3-2.3 1.2 0 2.2 1.1 2.2 2.3q0 3.8-1.4 7.2-1.4 3.4-3.9 5.8-2.5 2.5-5.8 3.9-3.4 1.5-7.2 1.5-3.9 0-7.2-1.5-3.4-1.4-5.9-3.9-2.4-2.4-3.9-5.8-1.4-3.4-1.4-7.2v-32.2q0-3.9 1.4-7.2 1.5-3.4 3.9-5.8 2.5-2.5 5.9-4 3.3-1.4 7.2-1.4 3.8 0 7.2 1.4 3.3 1.5 5.8 4 2.5 2.4 3.9 5.8 1.4 3.4 1.4 7v0.2q0 8.5-10.4 12.3-1.2 0.4-4.1 1.6-2.9 1.2-6.2 2.4-3.4 1.2-6.5 2.5-3.2 1.2-5 1.7v11.7zm0-16.5q0 0 0 0zm0 0q2.1-0.8 5-2 3.1-1.1 6.1-2.2 3-1.1 5.5-2.1 2.6-0.9 3.7-1.3 2.4-1 4.9-2.9 2.5-1.9 2.5-5.4 0-2.8-1.1-5.3-1.1-2.5-3-4.3-1.8-1.9-4.3-3-2.6-1.1-5.5-1.1-2.8 0-5.4 1.1-2.5 1.1-4.4 3-1.8 1.8-2.9 4.3-1.1 2.6-1.1 5.5zm65.8-29.6h-5.3q-2.9 0-5.4 1.1-2.5 1.1-4.4 2.9-1 1-1.8 2.2-0.7 1-1.2 2.2-1.1 2.5-1.1 5.4v48.3c0 1.3-1 2.3-2.3 2.3-1.2 0-2.2-1-2.2-2.3v-48.3q0-3.8 1.4-7.2 1.4-3.3 3.9-5.8 0.8-0.8 1.6-1.4 4.6-3.7 11-4h5.8c1.2 0 2.3 1 2.3 2.3 0 1.2-1.1 2.3-2.3 2.3zm9.3 18.3q1.3 2 3.4 3.6 2.1 1.7 4.8 3.1 2.7 1.4 5.5 2.8 3.1 1.5 6.1 3.2 3.1 1.7 5.6 3.9 2.5 2.3 4 4.9 1.6 2.7 1.6 6.2 0 3.9-1.4 7.2-1.5 3.4-3.9 5.9-2.5 2.4-5.9 3.9-3.3 1.4-7.2 1.4-3.8 0-7.2-1.4-3.3-1.5-5.8-3.9-2.5-2.5-3.9-5.9-1.4-3.3-1.4-7.2c0-1.2 1-2.2 2.2-2.2 1.3 0 2.3 1 2.3 2.2q0 2.9 1.1 5.5 1.1 2.5 2.9 4.3 1.9 1.9 4.4 3 2.6 1.1 5.4 1.1 2.9 0 5.5-1.1 2.5-1.1 4.3-3 1.9-1.8 3-4.3 1.1-2.6 1.1-5.5 0-2.4-1.3-4.4-1.2-2-3.2-3.6-2.1-1.7-4.8-3.1-2.6-1.5-5.5-3-3.2-1.5-6.3-3.2-3-1.7-5.5-3.8-2.5-2.2-4.1-4.9-1.5-2.6-1.5-6.2 0-3.8 1.4-7.2 1.4-3.3 3.9-5.8 2.5-2.5 5.8-3.9 3.4-1.5 7.2-1.5 3.9 0 7.2 1.5 3.4 1.4 5.9 3.9 2.4 2.4 3.9 5.8 1.4 3.4 1.4 7.2c0 1.3-1 2.3-2.2 2.3-1.3 0-2.3-1-2.3-2.3q0-2.9-1.1-5.4-1.1-2.5-3-4.4-1.8-1.8-4.3-2.9-2.6-1.1-5.4-1.1-2.9 0-5.5 1.1-2.5 1.1-4.4 2.9-1.8 1.9-2.9 4.4-1.1 2.5-1.1 5.4 0 2.5 1.2 4.5zm75.9 34.9q-1.4 3.4-3.9 5.8-2.4 2.5-5.8 4-3.4 1.4-7.2 1.4-3.8 0-7.2-1.4-3.4-1.5-5.8-4-2.5-2.4-3.9-5.8-1.5-3.3-1.5-7.2v-32.2q0-3.8 1.5-7.2 1.4-3.4 3.9-5.8 2.4-2.5 5.8-3.9 3.4-1.5 7.2-1.5 3.8 0 7.2 1.5 3.4 1.4 5.8 3.9 2.5 2.4 3.9 5.8 1.5 3.4 1.5 7.2v32.2q0 3.9-1.5 7.2zm-3-39.4q0-2.9-1.2-5.4-1-2.5-2.9-4.4-1.8-1.8-4.4-2.9-2.5-1.1-5.4-1.1-2.9 0-5.4 1.1-2.6 1.1-4.4 2.9-1.9 1.9-3 4.4-1.1 2.5-1.1 5.4v32.3q0 2.8 1.1 5.4 1.1 2.5 3 4.4 1.8 1.8 4.4 2.9 2.5 1.1 5.4 1.1 2.9 0 5.4-1.1 2.6-1.1 4.4-2.9 1.9-1.9 2.9-4.4 1.2-2.6 1.2-5.4zm50.8 48.3c0 1.2-1 2.2-2.3 2.2-1.2 0-2.2-1-2.2-2.2v-48.3q0-2.9-1.1-5.5-1.1-2.5-3-4.3-1.8-1.9-4.4-3-2.5-1.1-5.4-1.1-0.3 0-0.6 0-2.1 0.1-4 0.8c-0.2 0.1-0.5 0.2-0.8 0.3q-2.4 1.1-4.3 2.9 0 0-0.1 0.1 0 0-0.1 0.1-1.8 1.8-2.8 4.2-1.1 2.6-1.1 5.5v48.3c0 1.2-1 2.2-2.3 2.2-1.2 0-2.2-1-2.2-2.2v-48.4q0-3.8 1.4-7.2 1.4-3.3 3.9-5.8 1.6-1.6 3.6-2.7 0.2-0.2 0.5-0.3 0.2-0.2 0.5-0.3 0.4-0.2 0.8-0.4 1.4-0.7 3-1.1 0 0 0.1 0 1.5-0.3 3.1-0.5 0.7 0 1.4 0 3.9 0 7.2 1.4 3.4 1.5 5.9 3.9 2.4 2.5 3.9 5.8 1.4 3.4 1.4 7.3v48.3zm45.6-15.5q-0.1 3.5-1.4 6.6-1.4 3.3-3.9 5.8-2.5 2.5-5.8 3.9-2.9 1.3-6.1 1.4-0.1 0-0.1 0-0.5 0.1-1 0.1c-0.3 0-0.5-0.1-0.8-0.1q-3.4-0.1-6.4-1.4-3.4-1.4-5.9-3.9-2.4-2.5-3.9-5.8-1.4-3.4-1.4-7.2v-3.9q0-8.5 10.4-12.3 1.2-0.5 4.2-1.6 2.9-1.1 6.3-2.4 3.4-1.3 6.5-2.5 3.2-1.2 4.8-1.9v-7.6q0-5.8-3.5-9.8-3.5-4.1-9.2-4.1-2.9 0-5.4 1.1-2.4 1.1-4.4 3-1.9 1.8-3 4.3-1.1 2.6-1.1 5.5c0 1.2-1 2.2-2.2 2.2-1.3 0-2.3-1-2.3-2.2q0-3.9 1.5-7.3 1.4-3.3 3.9-5.8 2.4-2.4 5.8-3.9 3.4-1.4 7.2-1.4 3.8 0 7 1.4 3.1 1.5 5.4 3.9 2.3 2.5 3.6 5.8 1.3 3.4 1.3 7.3v32.8zm-4.5-0.6v-19.6q-2.1 0.8-5.1 1.9-3 1.1-6 2.3-3 1.1-5.5 2.1-2.5 0.9-3.6 1.3-2.6 1-5 2.9-2.5 1.9-2.5 5.2v3.9q0 2.9 1.1 5.4 1.1 2.5 2.9 4.4 1.9 1.8 4.4 2.9 0.8 0.3 1.5 0.5 1.5 0.5 3.2 0.6 0.3 0 0.7 0 2.9 0 5.5-1.1 2.5-1.1 4.3-2.9 1.9-1.9 3-4.4 1.1-2.5 1.1-5.4 0 0 0 0z" />
</svg>