<svg xmlns="http://www.w3.org/2000/svg" viewBox="0 0 612 122"><path fill-rule="evenodd" d="M0 2.9h32.5v89.7h45.3v29.3H0zm88.2 0h89.3v29.3h-56.8v16.4h56.8v26.6h-56.8v18.1h56.8V122H88.2zM266.1 122l-20-30.4-20 30.4H188l39-59.5-39-59.6h38.1l36.8 56 36.8-56h4.6l-39.1 59.6 39.1 59.5zm86-63.3q-1.5 3.4-3.9 5.8-2.5 2.5-5.8 4-3.4 1.4-7.2 1.4-4.2 0-7.7-1.7-3.6-1.7-6.2-4.6v26.1c0 1.3-1 2.3-2.3 2.3-1.2 0-2.2-1-2.2-2.3V19.3q0-3.9 1.4-7.2 1.5-3.4 3.9-5.8 1.6-1.6 3.6-2.8.2-.1.5-.3.2-.1.5-.3.4-.2.8-.3 1.5-.7 3-1.1h.1q2.2-.6 4.6-.6 3.8 0 7.2 1.5 3.3 1.4 5.8 3.9 2.4 2.4 3.9 5.8 1.4 3.4 1.4 7.2v32.2q0 3.8-1.4 7.2m-3.1-7.2V19.3q0-2.9-1.1-5.4-1.1-2.6-2.9-4.4-1.9-1.9-4.4-3t-5.4-1.1q-2.4 0-4.6.8-.4.2-.8.3-2.5 1.1-4.3 2.9-.1 0-.1.1l-.1.1q-1.8 1.8-2.9 4.3t-1.1 5.4v32.2q0 2.9 1.1 5.4t3 4.4q1.8 1.9 4.4 2.9 2.5 1.2 5.4 1.1 2.8.1 5.4-1.1 2.5-1 4.4-2.9 1.8-1.8 2.9-4.4 1.1-2.5 1.1-5.4m18.6 0q0 2.9 1.1 5.4 1.1 2.6 3 4.4 1.8 1.9 4.4 3 2.5 1.1 5.4 1.1t5.4-1.1 4.4-3q1.8-1.8 2.9-4.4 1.1-2.5 1.1-5.4c0-1.2 1-2.3 2.3-2.3 1.2 0 2.2 1.1 2.2 2.3q0 3.8-1.4 7.2t-3.9 5.8q-2.5 2.5-5.8 3.9-3.4 1.5-7.2 1.5-3.9 0-7.2-1.5-3.4-1.4-5.9-3.9-2.4-2.4-3.9-5.8-1.4-3.4-1.4-7.2V19.3q0-3.9 1.4-7.2 1.5-3.4 3.9-5.8 2.5-2.5 5.9-4 3.3-1.4 7.2-1.4 3.8 0 7.2 1.4 3.3 1.5 5.8 4 2.5 2.4 3.9 5.8t1.4 7v.2q0 8.5-10.4 12.3-1.2.4-4.1 1.6t-6.2 2.4q-3.4 1.2-6.5 2.5-3.2 1.2-5 1.7zm0-16.5q2.1-.8 5-2 3.1-1.1 6.1-2.2t5.5-2.1q2.6-.9 3.7-1.3 2.4-1 4.9-2.9t2.5-5.4q0-2.8-1.1-5.3t-3-4.3q-1.8-1.9-4.3-3-2.6-1.1-5.5-1.1-2.8 0-5.4 1.1-2.5 1.1-4.4 3-1.8 1.8-2.9 4.3-1.1 2.6-1.1 5.5zm65.8-29.6h-5.3q-2.9 0-5.4 1.1t-4.4 2.9q-1 1-1.8 2.2-.7 1-1.2 2.2-1.1 2.5-1.1 5.4v48.3c0 1.3-1 2.3-2.3 2.3-1.2 0-2.2-1-2.2-2.3V19.2q0-3.8 1.4-7.2 1.4-3.3 3.9-5.8.8-.8 1.6-1.4 4.6-3.7 11-4h5.8c1.2 0 2.3 1 2.3 2.3 0 1.2-1.1 2.3-2.3 2.3m9.3 18.3q1.3 2 3.4 3.6 2.1 1.7 4.8 3.1t5.5 2.8q3.1 1.5 6.1 3.2 3.1 1.7 5.6 3.9 2.5 2.3 4 4.9 1.6 2.7 1.6 6.2 0 3.9-1.4 7.2-1.5 3.4-3.9 5.9-2.5 2.4-5.9 3.9-3.3 1.4-7.2 1.4-3.8 0-7.2-1.4-3.3-1.5-5.8-3.9-2.5-2.5-3.9-5.9-1.4-3.3-1.4-7.2c0-1.2 1-2.2 2.2-2.2 1.3 0 2.3 1 2.3 2.2q0 2.9 1.1 5.5 1.1 2.5 2.9 4.3 1.9 1.9 4.4 3 2.6 1.1 5.4 1.1 2.9 0 5.5-1.1 2.5-1.1 4.3-3 1.9-1.8 3-4.3 1.1-2.6 1.1-5.5 0-2.4-1.3-4.4-1.2-2-3.2-3.6-2.1-1.7-4.8-3.1-2.6-1.5-5.5-3-3.2-1.5-6.3-3.2-3-1.7-5.5-3.8-2.5-2.2-4.1-4.9-1.5-2.6-1.5-6.2 0-3.8 1.4-7.2 1.4-3.3 3.9-5.8t5.8-3.9q3.4-1.5 7.2-1.5 3.9 0 7.2 1.5 3.4 1.4 5.9 3.9 2.4 2.4 3.9 5.8 1.4 3.4 1.4 7.2c0 1.3-1 2.3-2.2 2.3-1.3 0-2.3-1-2.3-2.3q0-2.9-1.1-5.4t-3-4.4q-1.8-1.8-4.3-2.9-2.6-1.1-5.4-1.1-2.9 0-5.5 1.1-2.5 1.1-4.4 2.9-1.8 1.9-2.9 4.4t-1.1 5.4q0 2.5 1.2 4.5m75.9 34.9q-1.4 3.4-3.9 5.8-2.4 2.5-5.8 4-3.4 1.4-7.2 1.4t-7.2-1.4q-3.4-1.5-5.8-4-2.5-2.4-3.9-5.8-1.5-3.3-1.5-7.2V19.2q0-3.8 1.5-7.2 1.4-3.4 3.9-5.8 2.4-2.5 5.8-3.9 3.4-1.5 7.2-1.5t7.2 1.5q3.4 1.4 5.8 3.9 2.5 2.4 3.9 5.8 1.5 3.4 1.5 7.2v32.2q0 3.9-1.5 7.2m-3-39.4q0-2.9-1.2-5.4-1-2.5-2.9-4.4-1.8-1.8-4.4-2.9-2.5-1.1-5.4-1.1t-5.4 1.1q-2.6 1.1-4.4 2.9-1.9 1.9-3 4.4t-1.1 5.4v32.3q0 2.8 1.1 5.4 1.1 2.5 3 4.4 1.8 1.8 4.4 2.9 2.5 1.1 5.4 1.1t5.4-1.1q2.6-1.1 4.4-2.9 1.9-1.9 2.9-4.4 1.2-2.6 1.2-5.4zm50.8 48.3c0 1.2-1 2.2-2.3 2.2-1.2 0-2.2-1-2.2-2.2V19.2q0-2.9-1.1-5.5-1.1-2.5-3-4.3-1.8-1.9-4.4-3-2.5-1.1-5.4-1.1h-.6q-2.1.1-4 .8c-.2.1-.5.2-.8.3q-2.4 1.1-4.3 2.9l-.1.1-.1.1q-1.8 1.8-2.8 4.2-1.1 2.6-1.1 5.5v48.3c0 1.2-1 2.2-2.3 2.2-1.2 0-2.2-1-2.2-2.2V19.1q0-3.8 1.4-7.2 1.4-3.3 3.9-5.8 1.6-1.6 3.6-2.7.2-.2.5-.3.2-.2.5-.3l.8-.4q1.4-.7 3-1.1h.1q1.5-.3 3.1-.5h1.4q3.9 0 7.2 1.4 3.4 1.5 5.9 3.9 2.4 2.5 3.9 5.8 1.4 3.4 1.4 7.3zM612 52q-.1 3.5-1.4 6.6-1.4 3.3-3.9 5.8t-5.8 3.9q-2.9 1.3-6.1 1.4h-.1q-.5.1-1 .1c-.3 0-.5-.1-.8-.1q-3.4-.1-6.4-1.4-3.4-1.4-5.9-3.9-2.4-2.5-3.9-5.8-1.4-3.4-1.4-7.2v-3.9q0-8.5 10.4-12.3 1.2-.5 4.2-1.6 2.9-1.1 6.3-2.4t6.5-2.5q3.2-1.2 4.8-1.9v-7.6q0-5.8-3.5-9.8-3.5-4.1-9.2-4.1-2.9 0-5.4 1.1-2.4 1.1-4.4 3-1.9 1.8-3 4.3-1.1 2.6-1.1 5.5c0 1.2-1 2.2-2.2 2.2-1.3 0-2.3-1-2.3-2.2q0-3.9 1.5-7.3 1.4-3.3 3.9-5.8 2.4-2.4 5.8-3.9Q591 .8 594.8.8t7 1.4q3.1 1.5 5.4 3.9 2.3 2.5 3.6 5.8 1.3 3.4 1.3 7.3V52zm-4.5-.6V31.8q-2.1.8-5.1 1.9t-6 2.3q-3 1.1-5.5 2.1-2.5.9-3.6 1.3-2.6 1-5 2.9-2.5 1.9-2.5 5.2v3.9q0 2.9 1.1 5.4t2.9 4.4q1.9 1.8 4.4 2.9.8.3 1.5.5 1.5.5 3.2.6h.7q2.9 0 5.5-1.1 2.5-1.1 4.3-2.9 1.9-1.9 3-4.4t1.1-5.4" style="fill:#222221"/></svg>