<?xml version="1.0" encoding="UTF-8"?> <!-- Generator: Adobe Illustrator 19.0.0, SVG Export Plug-In . SVG Version: 6.00 Build 0) --> <svg xmlns="http://www.w3.org/2000/svg" xmlns:xlink="http://www.w3.org/1999/xlink" id="Layer_1" x="0px" y="0px" viewBox="-179 366 251.5 61" style="enable-background:new -179 366 251.5 61;" xml:space="preserve"> <style type="text/css"> .st0{fill:#222222;} .st1{fill:#A0CC41;} </style> <g> <path class="st0" d="M-21.4,366.5c5.2-0.1,10.3,0,15.5,0c0.7,0,1.2,0.6,1.1,1.3c-2.6,13.4-5.1,26.9-7.9,40.3 c-0.1,0.7,0.4,1.4,1.1,1.4H2.1c0.7,0,1.2,0.7,1.1,1.4l-2.7,13.8c-0.1,0.5-0.6,0.9-1.1,0.9h-31.6c-0.7,0-1.2-0.6-1.1-1.3 c0.7-3.4,1-7,2.9-10c3-5.4,4.2-11.8,2.7-17.9V396c0.8-5.8,2.3-11.5,3.2-17.3c0.3-2.5,1.6-4.6,2.9-6.7c0.3-0.4,0.2-1-0.1-1.3 c-0.7-0.9-0.9-2-0.8-3.1C-22.5,367-22,366.6-21.4,366.5L-21.4,366.5z M-63.4,370.6c0.6,0.3,0.8,1,0.5,1.6c-2.3,4-4.6,8-6.9,11.9 c-0.3,0.6-1.1,0.7-1.6,0.4c-3.5-2.4-7.6-4.6-11.9-3.4c-2.3,0.6-3.8,4-1.4,5.4c4.3,2.1,9.6,2.4,13.2,5.9c4.4,3.5,4.8,9.8,3.1,14.8 c-2.1,8.3-8.8,15-16.9,17.4c-9.1,3-20,1.3-27.1-5.4c-0.4-0.3-0.4-0.9-0.2-1.3c2.2-4.2,4.3-8.4,6.4-12.6c0.4-0.7,1.3-0.8,1.9-0.2 c3.5,4.1,8.5,7.6,14.1,6.6c2.4-0.4,6.1-3.7,3.6-5.9c-4.6-2.6-10.5-2.8-14.5-6.4s-4.7-9.7-3.2-14.6c2.2-7.2,7.9-13.3,15-16 C-81,365.3-71.4,366.5-63.4,370.6L-63.4,370.6z"></path> <path class="st0" d="M-26.2,370.7c0.5,0.3,0.7,1,0.4,1.5l-6.9,12c-0.3,0.6-1,0.7-1.5,0.4c-3-2-6.2-3.9-9.9-3.8 c-2.1-0.2-4,1.2-4.7,3.1c0,0.2,0,0.4-0.1,0.6c0.5,2.6,3.7,3,5.8,3.7c5.4,1.3,11.1,4.3,12.5,10c1.3,8.2-2.5,16.7-8.8,21.8 c-8.9,7.2-22.1,7.8-32,2.3c-0.6-0.4-0.8-1.2-0.3-1.7c3.1-3.2,5.5-6.9,7-11.1c0.2-0.7,1-0.9,1.6-0.5c3.4,2.2,7.7,3.9,11.6,1.9 c1.4-0.6,2.1-2,2.7-3.3c0.2-0.5,0.1-1-0.3-1.3c-3.8-3-9.2-3-13.3-5.6c-0.3-0.2-0.4-0.5-0.5-0.8c-0.5-3.8-2.1-7.3-4.8-10 c-0.4-0.4-0.4-0.9-0.2-1.4c3.5-5.4,6.3-11.3,10-16.6l0.3-0.3C-48.5,365.1-35.8,365.5-26.2,370.7L-26.2,370.7z M5.3,425.5v-3.7H9 v3.7H5.3z M24.7,415.7l-3.6,0.7c-0.1-0.7-0.4-1.3-0.8-1.6c-0.4-0.4-1-0.5-1.7-0.5c-0.9,0-1.6,0.3-2.2,0.9c-0.5,0.6-0.8,1.6-0.8,3.1 c0,1.6,0.3,2.8,0.8,3.5c0.6,0.7,1.3,1,2.2,1c0.7,0,1.3-0.2,1.7-0.6s0.8-1.1,0.9-2l3.6,0.6c-0.4,1.7-1.1,2.9-2.1,3.7 c-1.1,0.8-2.5,1.3-4.3,1.3c-2,0-3.6-0.6-4.8-1.9c-1.2-1.3-1.8-3-1.8-5.3c0-2.3,0.6-4.1,1.8-5.3s2.8-1.9,4.9-1.9c1.7,0,3,0.4,4,1.1 C23.6,413.1,24.3,414.2,24.7,415.7L24.7,415.7z M26.6,418.4c0-1.2,0.3-2.4,0.9-3.5c0.6-1.1,1.4-2,2.5-2.6s2.3-0.9,3.7-0.9 c2.1,0,3.8,0.7,5.1,2c1.3,1.4,2,3.1,2,5.2s-0.7,3.8-2,5.2c-1.4,1.4-3,2.1-5.1,2.1c-1.3,0-2.5-0.3-3.6-0.9c-1.2-0.6-2-1.4-2.6-2.5 C26.9,421.3,26.6,419.9,26.6,418.4L26.6,418.4z M30.4,418.5c0,1.4,0.3,2.4,1,3.2c0.7,0.7,1.5,1.1,2.4,1.1s1.8-0.4,2.4-1.1 c0.6-0.7,1-1.8,1-3.2c0-1.4-0.3-2.4-1-3.1c-0.6-0.7-1.4-1.1-2.4-1.1s-1.8,0.4-2.4,1.1C30.7,416.1,30.4,417.2,30.4,418.5z M43.5,411.6h3.4v1.9c1.2-1.5,2.6-2.2,4.3-2.2c0.9,0,1.7,0.2,2.3,0.5c0.7,0.4,1.2,0.9,1.6,1.7c0.6-0.7,1.3-1.3,2-1.7 c0.7-0.4,1.5-0.5,2.3-0.5c1,0,1.9,0.2,2.6,0.6c0.7,0.4,1.2,1,1.6,1.8c0.3,0.6,0.4,1.5,0.4,2.9v8.9h-3.7v-7.9c0-1.4-0.1-2.3-0.4-2.7 c-0.3-0.5-0.9-0.8-1.6-0.8c-0.5,0-1,0.2-1.4,0.5c-0.5,0.3-0.8,0.8-1,1.4s-0.3,1.6-0.3,2.9v6.6h-3.7v-7.6c0-1.3-0.1-2.2-0.2-2.6 c-0.1-0.4-0.3-0.7-0.6-0.9c-0.3-0.2-0.6-0.3-1.1-0.3c-0.6,0-1.1,0.2-1.5,0.5c-0.5,0.3-0.8,0.7-1,1.3c-0.2,0.6-0.3,1.5-0.3,2.9v6.7 h-3.7L43.5,411.6L43.5,411.6z"></path> </g> <g> <path class="st1" d="M-180.7,376.9h8.6c0.5,0,1-0.4,1.1-0.9l1.8-8.7c0.1-0.5-0.2-0.9-0.7-0.9h-8.6c-0.5,0-1,0.4-1.1,0.9l-1.8,8.7 C-181.6,376.5-181.2,376.9-180.7,376.9z M-171,391.8h8.6c0.5,0,1-0.4,1.1-0.9l1.8-8.7c0.1-0.5-0.2-0.9-0.7-0.9h-8.6 c-0.5,0-1,0.4-1.1,0.9l-1.8,8.7C-171.9,391.4-171.6,391.8-171,391.8z"></path> <path class="st1" d="M-112.5,376.8h-5.3c-0.5,0-0.8-0.4-0.7-0.9l1.8-8.7c0.1-0.5-0.2-0.9-0.7-0.9h-46.2c-0.5,0-1,0.4-1.1,0.9 l-1.8,8.7c-0.1,0.5,0.2,0.9,0.7,0.9h11.1c0.5,0,0.8,0.4,0.7,0.9l-10.1,47.9c-0.1,0.5,0.2,0.9,0.7,0.9h40.4c0.5,0,1-0.4,1.1-0.9 l10.1-47.9C-111.7,377.2-112,376.8-112.5,376.8z M-132.3,395.4c-0.2,1.6-1.2,3.1-2.6,4l-0.4,10.8c0,0.6-0.6,1.3-1.2,1.3h-7.5 c-0.6,0-0.8-0.6-0.6-1.3l4.6-10.6c-1.1-0.9-1.6-2.4-1-4.2c0.7-2.1,2.6-3.7,4.6-4c0.3,0,0.6-0.1,0.9,0c0.3,0,0.6,0.1,0.8,0.1 C-133,391.9-132,393.5-132.3,395.4z"></path> </g> </svg> 