<?xml version="1.0" encoding="UTF-8" standalone="no"?>
<svg 
  xmlns:inkscape="http://www.inkscape.org/namespaces/inkscape" 
  xmlns:sodipodi="http://sodipodi.sourceforge.net/DTD/sodipodi-0.dtd" 
  xmlns="http://www.w3.org/2000/svg" 
  xmlns:svg="http://www.w3.org/2000/svg" viewBox="0 0 640 640" fill="none" version="1.1" id="svg26" sodipodi:docname="didimo_logo_only_V1.svg" inkscape:version="1.3.2 (091e20e, 2023-11-25, custom)">
  <path fill-rule="evenodd" clip-rule="evenodd" d="m 200.11476,213.29798 v -66.492 l 248.709,1.272 v 109.899 c -0.192,-0.423 -0.408,-0.87 -0.624,-1.296 -17.565,-35.178 -42.609,-61.707 -72.063,-77.538 -27.654,-14.886 -59.193,-20.319 -92.073,-14.661 -14.811,2.544 -28.662,7.506 -41.676,14.661 -15.264,8.427 -29.331,19.896 -42.273,34.155 z m 248.709,184.674 v 120.147 h -80.643 c 0.264,-0.3 0.504,-0.672 0.792,-0.846 5.319,-3.168 7.524,-8.628 7.308,-15.534 -0.216,-6.906 -3.57,-11.046 -8.724,-13.239 -1.173,-0.498 -2.373,-0.921 -3.546,-1.371 -10.497,-4.113 -20.538,-9.399 -30.027,-16.032 -0.072,-0.048 -0.144,-0.099 -0.216,-0.15 -3.954,-2.766 -7.836,-5.784 -11.601,-9.048 -32.52,-28.074 -50.085,-65.796 -50.061,-115.038 0,-7.431 1.245,-14.436 4.458,-20.817 8.361,-16.632 25.857,-24.858 41.913,-19.647 12.102,3.939 26.433,17.376 26.097,41.262 -0.189,14.661 3.885,27.948 11.313,39.591 17.448,27.426 48.984,37.923 75.057,24.087 6.735,-3.591 12.774,-8.031 17.88,-13.365 z m -86.61,120.147 h -162.099 v -142.062 c 2.013,19.398 6.543,38.37 13.539,56.745 5.13,13.512 11.265,26.154 18.213,38.145 l 0.024,0.051 c 7.527,13.014 16.011,25.257 25.092,36.924 5.394,6.933 12.342,7.506 18.117,1.173 5.538,-6.108 5.754,-14.586 0.48,-21.741 -3.306,-4.512 -6.759,-8.901 -10.041,-13.44 -0.696,-0.948 -1.389,-1.92 -2.061,-2.892 l -0.072,-0.075 c -24.516,-34.83 -40.212,-73.899 -38.847,-116.706 -0.624,-21.717 1.557,-37.971 8.628,-52.557 15.36,-31.662 38.103,-49.539 68.274,-52.308 31.323,-2.865 57.159,10.596 77.121,40.215 11.121,16.482 15.528,35.88 15.672,57.021 0.048,8.775 5.706,14.709 13.374,14.559 6.615,-0.15 11.838,-6.333 11.862,-14.484 0.048,-22.416 -3.882,-43.707 -13.635,-62.88 -34.464,-67.839 -102.522,-80.232 -149.52,-49.89 -30.771,19.848 -51.357,50.265 -56.052,93.372 -0.048,0.573 -0.12,1.122 -0.168,1.695 v -72.825 c 0.624,-0.924 1.269,-1.872 1.917,-2.793 37.911,-54.252 100.317,-74.448 156.444,-48.27 43.593,20.322 73.452,57.12 82.272,115.236 1.317,8.754 1.701,17.802 1.653,26.703 -0.072,16.83 -9.537,31.515 -23.271,37.248 -14.931,6.258 -32.016,0.3 -42.129,-14.535 -5.106,-7.503 -6.927,-16.179 -7.047,-25.704 -0.192,-15.357 -4.146,-29.145 -12.078,-41.139 -19.077,-28.869 -53.25,-37.197 -79.707,-18.948 -17.877,12.318 -29.19,30.741 -30.411,56.271 -1.368,28.275 2.778,55.626 13.107,81.156 7.836,19.323 17.88,35.751 29.886,49.563 l 0.072,0.102 c 13.515,15.531 29.523,27.723 47.667,36.972 7.716,3.915 15.816,6.759 23.724,10.098 z m 41.937,-47.172 h 3.189 c 4.938,-0.972 12.486,-2.142 19.866,-4.161 6.447,-1.746 9.612,-8.304 8.676,-16.107 -0.864,-7.182 -6.159,-12.792 -12.27,-12.615 -3.33,0.123 -6.639,0.873 -9.969,1.32 -31.563,4.29 -57.54,-8.727 -77.862,-38.271 -11.025,-16.005 -14.883,-35.205 -15.195,-55.773 -0.12,-9.201 -5.367,-15.132 -12.582,-14.934 -6.996,0.201 -11.982,6.357 -12.054,15.207 -0.192,20.046 2.733,39.42 10.905,56.871 20.946,44.754 53.25,65.997 97.296,68.463 z" fill="#1f4bc5" id="path8" style="stroke-width:3"/>
  <path fill-rule="evenodd" clip-rule="evenodd" d="m 448.82376,31.095981 146.526,148.046999 h -219.204 c -27.672,-14.886 -59.226,-20.319 -92.103,-14.661 -14.796,2.544 -28.668,7.506 -41.646,14.661 H 53.555758 L 199.70976,31.095981 Z" fill="url(#paint0_linear_853_2)" id="path9" style="fill:url(#paint0_linear_853_2);stroke-width:3"/>
  <path fill-rule="evenodd" clip-rule="evenodd" d="M 53.531758,31.095981 H 200.10576 V 213.29798 h -0.024 c -0.648,0.75 -1.32,1.473 -1.968,2.22 -21.42,24.285 -36.861,53.079 -43.635,88.11 -8.841,45.702 -2.691,89.979 9.264,133.587 1.968,7.206 8.07,10.92 14.049,9.423 8.343,-2.07 12.603,-10.671 9.663,-20.418 -7.374,-24.51 -11.832,-49.716 -12.477,-75.843 -0.897,-35.229 6.948,-66.87 25.104,-94.194 l 0.024,-0.024 v 72.825 c -0.024,0.075 -0.024,0.126 -0.024,0.174 -1.593,15.759 -1.593,31.341 0,46.674 0,0.075 0,0.15 0.024,0.225 v 242.937 L 53.531758,470.94698 Z" fill="url(#paint1_linear_853_2)" id="path10" style="fill:url(#paint1_linear_853_2);stroke-width:3"/>
  <path fill-rule="evenodd" clip-rule="evenodd" d="m 595.32576,470.94698 -146.154,148.047 H 53.531758 v -148.047 h 146.526002 0.024 31.758 l 0.024,0.051 c 7.545,13.014 16.014,25.257 25.08,36.924 5.406,6.93 12.354,7.506 18.132,1.173 5.556,-6.108 5.754,-14.586 0.498,-21.741 -3.336,-4.515 -6.774,-8.901 -10.062,-13.44 -0.696,-0.945 -1.368,-1.92 -2.067,-2.892 l -0.051,-0.075 h 27.324 l 0.099,0.102 c 13.5,15.531 29.514,27.723 47.646,36.948 7.722,3.939 15.816,6.783 23.736,10.122 h 5.952 c 0.276,-0.3 0.501,-0.672 0.798,-0.846 5.331,-3.168 7.521,-8.652 7.323,-15.534 -0.225,-6.906 -3.588,-11.043 -8.742,-13.239 -1.17,-0.498 -2.367,-0.921 -3.537,-1.371 -10.512,-4.113 -20.523,-9.399 -30.012,-16.032 -0.075,-0.048 -0.15,-0.099 -0.225,-0.15 z" fill="url(#paint2_linear_853_2)" id="path11" style="fill:url(#paint2_linear_853_2);stroke-width:3"/>
  <path fill-rule="evenodd" clip-rule="evenodd" d="M 448.81476,31.092981 V 179.13098 h -36.594 z" fill="#134270" id="path12" style="stroke-width:3"/>
  <path fill-rule="evenodd" clip-rule="evenodd" d="m 448.81476,618.97298 v -148.038 h -36.594 z" fill="#134270" id="path13" style="stroke-width:3"/>
  <path d="m 407.31876,470.94098 c -0.207,0.039 -0.411,0.081 -0.609,0.123 -0.861,-0.036 -1.716,-0.075 -2.565,-0.123 z" fill="#ffffff" id="path14" style="stroke-width:3"/>
  <path d="m 448.82076,257.95598 c 14.439,29.496 20.535,62.028 18.183,96.237 -1.278,18.588 -7.866,33.018 -18.183,43.776 z" fill="#ffffff" id="path15" style="stroke-width:3"/>
  <path fill-rule="evenodd" clip-rule="evenodd" d="m 448.82376,31.095981 146.523,148.046999 v 291.804 l -146.523,148.047 z" fill="url(#paint3_linear_853_2)" id="path16" style="fill:url(#paint3_linear_853_2);stroke-width:3"/>
  <path fill-rule="evenodd" clip-rule="evenodd" d="M 53.531758,179.01698 V 30.969981 H 200.05776 Z" fill="#153fb5" id="path17" style="stroke-width:3"/>
  <path fill-rule="evenodd" clip-rule="evenodd" d="m 448.79976,618.99398 v -148.047 h 146.526 z" fill="#153fb5" id="path18" style="stroke-width:3"/>
  <path fill-rule="evenodd" clip-rule="evenodd" d="M 448.79976,31.095981 V 179.14298 h 146.526 z" fill="#153fb5" id="path19" style="stroke-width:3"/>
  <defs id="defs26">
    <linearGradient id="paint0_linear_853_2" x1="215.008" y1="246.717" x2="395.60901" y2="246.717" gradientUnits="userSpaceOnUse" gradientTransform="matrix(3,0,0,3,-591.46824,-635.03302)">
      <stop stop-color="#002FB2" id="stop19"/>
      <stop offset="1" stop-color="#3665E8" id="stop20"/>
    </linearGradient>
    <linearGradient id="paint1_linear_853_2" x1="280.32199" y1="328.96799" x2="214.99899" y2="329.58701" gradientUnits="userSpaceOnUse" gradientTransform="matrix(3,0,0,3,-591.46824,-635.03302)">
      <stop stop-color="#153FB5" id="stop21"/>
      <stop offset="1" stop-color="#3665E8" id="stop22"/>
    </linearGradient>
    <linearGradient id="paint2_linear_853_2" x1="395.59799" y1="393.33499" x2="214.99699" y2="393.33499" gradientUnits="userSpaceOnUse" gradientTransform="matrix(3,0,0,3,-591.46824,-635.03302)">
      <stop stop-color="#134270" id="stop23"/>
      <stop offset="1" stop-color="#3665E8" id="stop24"/>
    </linearGradient>
    <linearGradient id="paint3_linear_853_2" x1="330.284" y1="323.85699" x2="395.60699" y2="324.112" gradientUnits="userSpaceOnUse" gradientTransform="matrix(3,0,0,3,-591.46824,-635.03302)">
      <stop stop-color="#002FB2" id="stop25"/>
      <stop offset="1" stop-color="#3665E8" id="stop26"/>
    </linearGradient>
  </defs>
</svg>
