<svg xmlns="http://www.w3.org/2000/svg" width="2400" height="2400" fill="none" viewBox="0 0 2400 2400"><path fill="#0f237c" d="M0 0h2400v2400H0z"/><path fill="#fff" d="M565.786 1160.63q-66.542 0-107.734-36.48c-26.406-25.38-39.609-57.63-39.609-96.76q0-60.27 39.609-96.753 41.192-36.482 107.734-36.482 66.541 0 106.15 36.482 41.192 36.484 41.192 96.753c0 39.13-13.731 71.38-41.192 96.76q-39.609 36.48-106.15 36.48m0 637.64q-66.542 0-107.734-36.48c-26.406-24.32-39.609-56.57-39.609-96.76q0-60.27 39.609-96.75c27.461-24.32 63.373-36.49 107.734-36.49s79.744 12.17 106.15 36.49q41.192 36.48 41.192 96.75c0 40.19-13.731 72.44-41.192 96.76q-39.609 36.48-106.15 36.48M1441.3 1798.27c-95.06 0-168.99-26.44-221.81-79.31-52.81-52.87-79.21-125.83-79.21-218.89v-147.51c0-70.85 17.43-129.01 52.28-174.48 35.91-45.47 86.61-73.49 152.1-84.07l-20.6 42.83c-32.74-45.47-58.09-89.88-76.05-133.24q-25.35-65.032-25.35-128.478c0-52.873 12.68-98.872 38.03-137.997 25.35-40.183 60.73-71.378 106.15-93.584 45.41-23.264 98.75-34.895 160.01-34.895 63.38 0 118.3 12.16 164.77 36.481q71.295 36.483 109.32 101.515c26.41 42.298 39.61 92.526 39.61 150.686h-183.78q0-38.068-15.84-66.619c-10.57-19.034-25.88-33.31-45.95-42.827q-28.515-15.861-68.13-15.861-38.025 0-66.54 14.275c-19.01 9.517-33.8 23.264-44.36 41.24-9.51 17.977-14.26 39.126-14.26 63.447 0 25.379 6.34 53.401 19.01 84.067 13.73 30.67 32.22 61.86 55.46 93.58l218.63 309.31 87.14-166.55h191.7l-169.52 321.99 177.45 249.03h-198.05l-74.46-104.69c-73.93 80.37-163.18 120.55-267.75 120.55m15.84-163.37q45.945 0 85.56-25.38c26.4-16.92 49.11-40.19 68.12-69.79l-217.05-304.55c-22.18 8.46-38.55 22.74-49.11 42.83-10.57 19.03-15.85 43.88-15.85 74.55v147.51q0 63.45 33.27 99.93c23.24 23.26 54.93 34.9 95.06 34.9"/></svg>