<svg xmlns="http://www.w3.org/2000/svg" viewBox="0 0 2000 191.9"><defs><style>.cls-1,.cls-2{fill:#10154b}.cls-1{fill-rule:evenodd}</style></defs><g id="Calque_2" data-name="Calque 2"><g id="Calque_1-2" data-name="Calque 1"><path d="M0 0h14c36.77 0 66.25 30.25 66.25 67.11V191.9H52.34V67.11c0-21.85-17.34-39.2-38.34-39.2H0ZM188.41 0h-14c-36.81 0-66.29 30.25-66.29 67.11V191.9h27.91V67.11c0-21.85 17.39-39.2 38.38-39.2h14Z" class="cls-1"/><path d="m0 115.14 27.91 10.46v66.3H0ZM27.91 90.72 0 80.25V55.83h27.91ZM160.5 90.72l27.91-10.47V55.83H160.5ZM188.41 115.14 160.5 125.6v66.3h27.91ZM365.03 105.48h105.99V81.5H365.03V26.96H478.8V2.72H336.26v186.59h147.85v-24.24H365.03zM601.75 132.53c-1.74 4.43-3.58 9.65-5.48 15.54l-3.57 11q-1.69-5.16-3.35-10.34c-1.65-5.47-3.54-10.92-5.62-16.22l-51-129.81h-30.45l76.15 186.59h28.36L682.94 2.72h-30.42ZM740.25 105.48h105.99V81.5H740.25V26.96h113.76V2.72H711.47v186.59h147.85v-24.24H740.25zM1041 92.47c8.24-9.57 12.41-21.53 12.41-35.52 0-17-5.92-30.4-17.57-39.9-11.47-9.51-27.9-14.33-48.84-14.33h-87.92v186.59h28.78v-75.8h53.75l47.42 75.8h33.36l-52.23-79.26c12.92-2.79 23.29-8.7 30.84-17.58m-16.49-35.26c0 10.45-3.29 18.34-10 24.12s-16.4 8.59-28.88 8.59h-57.77V26.57h56.68c13 0 23.08 2.69 29.88 8s10.09 12.59 10.09 22.64M1080.73 26.96h62.71v162.35h28.65V26.96h62.71V2.72h-154.07zM1411.29 92.47c8.24-9.57 12.41-21.53 12.41-35.52 0-17-5.91-30.4-17.57-39.9-11.46-9.51-27.9-14.33-48.84-14.33h-87.91v186.59h28.77v-75.8h53.75l47.42 75.8h33.36l-52.23-79.26c12.92-2.79 23.29-8.7 30.84-17.58m-16.49-35.26c0 10.45-3.29 18.34-10 24.12s-16.39 8.59-28.88 8.59h-57.72V26.57h56.68c13 0 23.08 2.69 29.88 8s10.04 12.59 10.04 22.64M1596.53 117.2c0 16.55-4.42 29.28-13.13 37.83s-21 12.76-36.81 12.76c-15.35 0-27.2-4.15-35.24-12.35s-12.12-20.5-12.12-36.55V2.72h-28.77V121c0 14.64 3.19 27.41 9.48 38a63.25 63.25 0 0 0 26.75 24.48c11.37 5.64 24.83 8.5 40 8.5 15.8 0 29.7-3 41.34-8.76a64.9 64.9 0 0 0 27.38-25.39c6.47-10.89 9.75-24.06 9.75-39.12V2.72h-28.65ZM1810.21 105.38a40.8 40.8 0 0 0-8.94-7.6 59 59 0 0 0-10.42-5.61 123 123 0 0 0-19.6-6.71c-6.81-1.82-13.81-3.57-20.81-5.21-16.88-3.75-28-6.88-33.18-9.33s-9.42-5.28-12.19-8.61-4-7.62-4-12.74c0-8.93 3.47-15.45 10.59-19.94 7.33-4.61 18.21-6.94 32.36-6.94 12.88 0 23 2.13 30.22 6.34 7 4 11.84 10.68 14.36 19.78l.48 1.76 28.37-5-.62-2.15c-4.53-15.74-12.61-27-24-33.58S1765.29 0 1744.3 0c-22.61 0-40.3 4.4-52.61 13.07-12.42 8.83-18.69 21.54-18.69 37.79a48 48 0 0 0 3.54 19A43.8 43.8 0 0 0 1687 84.37a64.2 64.2 0 0 0 11 7.63 98.4 98.4 0 0 0 16.15 6.63c6.5 2.07 14.66 4.23 24.27 6.39q12.42 2.85 22.65 5.31a84 84 0 0 1 17.21 5.94 28.15 28.15 0 0 1 10.67 8.59c2.49 3.34 3.75 7.82 3.75 13.31 0 10-4 17.35-12.15 22.53s-20.33 7.85-35.85 7.85c-15 0-27-2.48-35.66-7.37-8.45-4.88-14.07-12.61-16.68-23l-.47-1.86-27.89 5.62.47 2c7.28 31.82 34 48 79.31 48 24.24 0 43.33-4.79 56.74-14.22 13.73-9.6 20.68-23.32 20.68-40.78a50.3 50.3 0 0 0-3-18.06 41.1 41.1 0 0 0-7.99-13.5M1845.93 2.72v24.24h62.72v162.35h28.64V26.96H2000V2.72z" class="cls-2"/></g></g></svg>