<svg xmlns="http://www.w3.org/2000/svg" viewBox="0 0 2000 191.9"><defs><style>.cls-1,.cls-2{fill:#10154b;}.cls-1{fill-rule:evenodd;}</style></defs><g id="Calque_2" data-name="Calque 2"><g id="Calque_1-2" data-name="Calque 1"><path class="cls-1" d="M0,0H14C50.77,0,80.25,30.25,80.25,67.11V191.9H52.34V67.11C52.34,45.26,35,27.91,14,27.91H0Z"/><path class="cls-1" d="M188.41,0h-14c-36.81,0-66.29,30.25-66.29,67.11V191.9h27.91V67.11c0-21.85,17.39-39.2,38.38-39.2h14Z"/><path class="cls-2" d="M0,115.14,27.91,125.6v66.3H0Z"/><path class="cls-2" d="M27.91,90.72,0,80.25V55.83H27.91Z"/><path class="cls-2" d="M160.5,90.72l27.91-10.47V55.83H160.5Z"/><path class="cls-2" d="M188.41,115.14,160.5,125.6v66.3h27.91Z"/><polygon class="cls-2" points="365.03 105.48 471.02 105.48 471.02 81.5 365.03 81.5 365.03 26.96 478.8 26.96 478.8 2.72 336.26 2.72 336.26 189.31 484.11 189.31 484.11 165.07 365.03 165.07 365.03 105.48"/><path class="cls-2" d="M601.75,132.53c-1.74,4.43-3.58,9.65-5.48,15.54l-3.57,11q-1.69-5.16-3.35-10.34c-1.65-5.47-3.54-10.92-5.62-16.22l-51-129.81H502.28l76.15,186.59h28.36L682.94,2.72H652.52Z"/><polygon class="cls-2" points="740.25 105.48 846.24 105.48 846.24 81.5 740.25 81.5 740.25 26.96 854.01 26.96 854.01 2.72 711.47 2.72 711.47 189.31 859.32 189.31 859.32 165.07 740.25 165.07 740.25 105.48"/><path class="cls-2" d="M1041,92.47c8.24-9.57,12.41-21.53,12.41-35.52,0-17-5.92-30.4-17.57-39.9C1024.37,7.54,1007.94,2.72,987,2.72H899.08V189.31h28.78v-75.8h53.75l47.42,75.8h33.36l-52.23-79.26C1023.08,107.26,1033.45,101.35,1041,92.47Zm-16.49-35.26c0,10.45-3.29,18.34-10,24.12s-16.4,8.59-28.88,8.59H927.86V26.57h56.68c13,0,23.08,2.69,29.88,8S1024.51,47.16,1024.51,57.21Z"/><polygon class="cls-2" points="1080.73 26.96 1143.44 26.96 1143.44 189.31 1172.09 189.31 1172.09 26.96 1234.8 26.96 1234.8 2.72 1080.73 2.72 1080.73 26.96"/><path class="cls-2" d="M1411.29,92.47c8.24-9.57,12.41-21.53,12.41-35.52,0-17-5.91-30.4-17.57-39.9-11.46-9.51-27.9-14.33-48.84-14.33h-87.91V189.31h28.77v-75.8h53.75l47.42,75.8h33.36l-52.23-79.26C1393.37,107.26,1403.74,101.35,1411.29,92.47ZM1394.8,57.21c0,10.45-3.29,18.34-10,24.12s-16.39,8.59-28.88,8.59h-57.72V26.57h56.68c13,0,23.08,2.69,29.88,8S1394.8,47.16,1394.8,57.21Z"/><path class="cls-2" d="M1596.53,117.2c0,16.55-4.42,29.28-13.13,37.83s-21,12.76-36.81,12.76c-15.35,0-27.2-4.15-35.24-12.35s-12.12-20.5-12.12-36.55V2.72h-28.77V121c0,14.64,3.19,27.41,9.48,38a63.25,63.25,0,0,0,26.75,24.48c11.37,5.64,24.83,8.5,40,8.5,15.8,0,29.7-3,41.34-8.76a64.9,64.9,0,0,0,27.38-25.39c6.47-10.89,9.75-24.06,9.75-39.12V2.72h-28.65Z"/><path class="cls-2" d="M1810.21,105.38a40.8,40.8,0,0,0-8.94-7.6,58.91,58.91,0,0,0-10.42-5.61,122.77,122.77,0,0,0-19.6-6.71c-6.81-1.82-13.81-3.57-20.81-5.21-16.88-3.75-28-6.88-33.18-9.33s-9.42-5.28-12.19-8.61-4-7.62-4-12.74c0-8.93,3.47-15.45,10.59-19.94,7.33-4.61,18.21-6.94,32.36-6.94,12.88,0,23,2.13,30.22,6.34,7,4,11.84,10.68,14.36,19.78l.48,1.76,28.37-5-.62-2.15c-4.53-15.74-12.61-27-24-33.58S1765.29,0,1744.3,0c-22.61,0-40.3,4.4-52.61,13.07C1679.27,21.9,1673,34.61,1673,50.86a48,48,0,0,0,3.54,19A43.76,43.76,0,0,0,1687,84.37,64.23,64.23,0,0,0,1698,92a98.44,98.44,0,0,0,16.15,6.63c6.5,2.07,14.66,4.23,24.27,6.39q12.42,2.85,22.65,5.31a83.89,83.89,0,0,1,17.21,5.94,28.15,28.15,0,0,1,10.67,8.59c2.49,3.34,3.75,7.82,3.75,13.31,0,10-4,17.35-12.15,22.53s-20.33,7.85-35.85,7.85c-15,0-27-2.48-35.66-7.37-8.45-4.88-14.07-12.61-16.68-23l-.47-1.86L1664,141.94l.47,2c7.28,31.82,34,48,79.31,48,24.24,0,43.33-4.79,56.74-14.22,13.73-9.6,20.68-23.32,20.68-40.78a50.3,50.3,0,0,0-3-18.06A41.13,41.13,0,0,0,1810.21,105.38Z"/><polygon class="cls-2" points="1845.93 2.72 1845.93 26.96 1908.65 26.96 1908.65 189.31 1937.29 189.31 1937.29 26.96 2000 26.96 2000 2.72 1845.93 2.72"/></g></g></svg>
