<svg title="Ontario Teachers Pension Plan Logo" id="Layer_1" x="0" y="0" version="1.1" viewBox="0 0 1100.3 381.5" xml:space="preserve">
  <path d="M952.1 319v30.8L926.8 319h-9.7v50.8h11.6V339l25.3 30.8h9.6V319h-11.5zm-76.8 30.9l8.1-19.4 8.1 19.4h-16.2zm24.2 19.8h12.3L889.2 319h-11.6L855 369.7h12l4.5-10.9h23.6l4.4 10.9zm-84.5 0h37.2v-9.6h-25.4V319H815v50.7zm-30.2-23.6h-9.6v-17.6h9.6c3.5 0 6.2.8 8.1 2.3 1.8 1.5 2.8 3.7 2.8 6.6 0 2.8-.9 5-2.8 6.5s-4.5 2.2-8.1 2.2m.7-27.1h-22v50.8h11.8v-14h10.2c4.5 0 8.4-.7 11.7-2.2 3.3-1.5 5.9-3.6 7.7-6.4s2.7-6 2.7-9.8c0-3.8-.9-7-2.7-9.8-1.8-2.8-4.3-4.9-7.7-6.4-3.3-1.5-7.2-2.2-11.7-2.2m-67 0v30.8L693.3 319h-9.7v50.8h11.6V339l25.3 30.8h9.6V319h-11.6zm-69.9 41.6c-3 0-5.7-.7-8.1-2.1s-4.3-3.3-5.7-5.8c-1.4-2.5-2.1-5.3-2.1-8.4 0-3.1.7-6 2.1-8.4 1.4-2.5 3.3-4.4 5.7-5.8 2.4-1.4 5.1-2.1 8.1-2.1s5.7.7 8.1 2.1 4.3 3.3 5.7 5.8c1.4 2.5 2.1 5.3 2.1 8.4 0 3.1-.7 6-2.1 8.4-1.4 2.5-3.3 4.4-5.7 5.8-2.4 1.4-5.1 2.1-8.1 2.1m0 10c5.3 0 10-1.1 14.2-3.4 4.2-2.3 7.5-5.4 9.9-9.4s3.6-8.5 3.6-13.5-1.2-9.5-3.6-13.5c-2.4-4-5.7-7.1-9.9-9.4-4.2-2.3-8.9-3.4-14.2-3.4s-10 1.1-14.2 3.4c-4.2 2.3-7.5 5.4-9.9 9.4s-3.6 8.5-3.6 13.5 1.2 9.5 3.6 13.5 5.7 7.1 9.9 9.4c4.2 2.2 8.9 3.4 14.2 3.4m-47.5-.9h11.8V319h-11.8v50.7zm-29.9.9c4.6 0 8.6-.7 11.8-2.1 3.2-1.4 5.7-3.3 7.3-5.7s2.4-5 2.4-7.9c0-3.4-.9-6.1-2.7-8-1.8-2-3.9-3.4-6.3-4.3-2.5-.9-5.6-1.8-9.5-2.8-3.7-.8-6.5-1.7-8.3-2.5-1.8-.8-2.7-2.1-2.7-3.9s.8-3.1 2.4-4.2c1.6-1.1 4-1.6 7.3-1.6 4.7 0 9.4 1.3 14.1 4l3.6-8.9c-2.3-1.5-5-2.6-8.1-3.3-3.1-.8-6.3-1.2-9.5-1.2-4.6 0-8.6.7-11.8 2.1-3.2 1.4-5.6 3.3-7.2 5.7-1.6 2.4-2.4 5.1-2.4 8 0 3.4.9 6.1 2.7 8.1 1.8 2 3.9 3.5 6.3 4.4 2.5.9 5.6 1.8 9.5 2.8 2.5.6 4.5 1.1 6 1.6s2.7 1.1 3.6 1.9c.9.8 1.4 1.8 1.4 3 0 1.6-.8 3-2.4 4-1.6 1-4.1 1.5-7.4 1.5-3 0-6-.5-9-1.5s-5.6-2.2-7.8-3.8l-4 8.8c2.3 1.7 5.3 3.2 9 4.2 3.9 1 7.7 1.6 11.7 1.6M530.8 319v30.8L505.5 319h-9.7v50.8h11.6V339l25.3 30.8h9.6V319h-11.5zm-71.3 41.3v-11.8h23.6v-9.1h-23.6v-11h26.7V319h-38.3v50.8h39.3v-9.4l-27.7-.1zm-41.6-14.2h-9.6v-17.6h9.6c3.5 0 6.2.8 8 2.3 1.8 1.5 2.8 3.7 2.8 6.6 0 2.8-.9 5-2.8 6.5-1.8 1.5-4.5 2.2-8 2.2m.7-27.1h-22v50.8h11.8v-14h10.2c4.5 0 8.4-.7 11.7-2.2 3.3-1.5 5.9-3.6 7.7-6.4 1.8-2.8 2.7-6 2.7-9.8 0-3.8-.9-7-2.7-9.8-1.8-2.8-4.3-4.9-7.7-6.4s-7.2-2.2-11.7-2.2" class="st0"/>
  <path d="M1086.9 199.3c-3.5 0-6.4 1.1-8.8 3.3-2.3 2.2-3.5 5.2-3.5 8.8 0 2.6.6 4.8 1.8 6.7s2.8 3.2 4.9 4.2l-5.4 19.9h12.5l7.3-18.1c1.3-3.4 2.2-5.9 2.6-7.6s.6-3.4.6-5c0-3.6-1.1-6.5-3.4-8.8-2.2-2.3-5.1-3.4-8.6-3.4" class="st0"/>
  <path d="M1031.1 291c8.1 0 14.9-1.2 20.5-3.7s9.8-5.7 12.7-9.9c2.8-4.2 4.2-8.8 4.2-13.8 0-5.9-1.5-10.5-4.6-14s-6.7-6-11-7.6c-4.3-1.6-9.8-3.2-16.5-4.8-6.5-1.4-11.3-2.9-14.4-4.3-3.2-1.5-4.7-3.7-4.7-6.7s1.4-5.5 4.1-7.3 6.9-2.8 12.7-2.8c8.2 0 16.3 2.3 24.4 6.9l6.3-15.5c-4-2.5-8.7-4.5-14.1-5.8-5.4-1.3-10.9-2-16.5-2-8.1 0-14.9 1.2-20.5 3.7-5.6 2.4-9.8 5.7-12.5 9.9-2.8 4.2-4.2 8.8-4.2 13.9 0 5.9 1.5 10.6 4.6 14.1 3.1 3.5 6.7 6.1 11 7.7 4.3 1.6 9.8 3.2 16.5 4.8 4.4 1 7.8 1.9 10.4 2.8s4.7 2 6.3 3.3 2.4 3.1 2.4 5.2c0 2.9-1.4 5.2-4.2 6.9-2.8 1.7-7.1 2.6-12.8 2.6-5.2 0-10.4-.8-15.6-2.5s-9.7-3.9-13.5-6.7l-6.9 15.4c3.9 3 9.2 5.5 15.7 7.4 6.5 1.8 13.3 2.8 20.2 2.8" class="st0"/>
  <path d="M982.7 250.2c3.2-4.7 4.7-10.4 4.7-16.9s-1.6-12.2-4.7-17c-3.1-4.8-7.5-8.5-13.3-11.1-5.8-2.6-12.5-3.9-20.3-3.9H911v88.2h20.4v-24.6h18.8l17 24.6h21.9l-19.8-28.3c5.8-2.6 10.3-6.2 13.4-11zm-20.7-5.6c-3.2 2.7-7.8 4-14 4h-16.6v-30.7H948c6.1 0 10.8 1.3 14 4 3.2 2.6 4.8 6.4 4.8 11.4 0 4.8-1.6 8.6-4.8 11.3z" class="st0"/>
  <path d="M989.1 289.5z" class="st0"/>
  <path d="M849.1 273.1v-20.4h41v-15.9h-41v-19.1h46.4v-16.4h-66.6v88.2h68.2v-16.4z" class="st0"/>
  <path d="M792.3 201.3v34.8h-40.1v-34.8h-20.4v88.2h20.4v-36.2h40.1v36.2h20.4v-88.2z" class="st0"/>
  <path d="M682.9 291c7.6 0 14.6-1.3 20.8-4 6.2-2.7 11.4-6.6 15.6-11.7l-13.1-12.1c-6 7-13.3 10.5-22.2 10.5-5.5 0-10.3-1.2-14.6-3.6s-7.6-5.7-10-10-3.6-9.2-3.6-14.6c0-5.5 1.2-10.3 3.6-14.6 2.4-4.3 5.7-7.6 10-10s9.2-3.6 14.6-3.6c8.8 0 16.2 3.4 22.2 10.3l13.1-12.1c-4.2-5-9.4-8.9-15.6-11.6-6.2-2.7-13.1-4-20.7-4-9.1 0-17.2 2-24.5 5.9-7.3 3.9-13 9.3-17.1 16.2s-6.2 14.8-6.2 23.5 2.1 16.6 6.2 23.5 9.9 12.3 17.1 16.2c7.3 3.8 15.4 5.8 24.4 5.8" class="st0"/>
  <path d="M595.4 201.3h-20.1L536 289.5h20.9l7.8-18.9h40.9l7.8 18.9h21.4l-39.4-88.2zm-24.1 53.8l14-33.8 14 33.8h-28z" class="st0"/>
  <path d="M482.4 273.1v-20.4h40.9v-15.9h-40.9v-19.1h46.3v-16.4h-66.6v88.2h68.3v-16.4z" class="st0"/>
  <path d="M405 289.5h20.4v-71.6h28.2v-16.6h-76.8v16.6H405z" class="st0"/>
  <path d="M921.8 154.9c-5.2 0-9.9-1.2-14.1-3.6-4.2-2.4-7.5-5.7-9.9-10-2.4-4.3-3.6-9.1-3.6-14.6s1.2-10.3 3.6-14.6 5.7-7.6 9.9-10c4.2-2.4 8.9-3.6 14.1-3.6s9.9 1.2 14.1 3.6c4.2 2.4 7.5 5.7 9.9 10s3.6 9.1 3.6 14.6-1.2 10.3-3.6 14.6-5.7 7.6-9.9 10c-4.2 2.4-8.9 3.6-14.1 3.6m0 17.4c9.2 0 17.4-2 24.7-5.9s13.1-9.4 17.3-16.3 6.3-14.7 6.3-23.4-2.1-16.4-6.3-23.4c-4.2-6.9-9.9-12.4-17.3-16.3s-15.5-5.9-24.7-5.9-17.4 2-24.8 5.9-13.1 9.4-17.3 16.3-6.2 14.7-6.2 23.4 2.1 16.4 6.2 23.4 9.9 12.4 17.3 16.3c7.4 3.9 15.6 5.9 24.8 5.9m-82.1-1.5h20.4V82.6h-20.4v88.2zm-35.1-56.2c0 4.9-1.6 8.6-4.8 11.3-3.2 2.7-7.8 4-14 4h-16.6V99.2h16.6c6.1 0 10.8 1.3 14 4 3.2 2.6 4.8 6.4 4.8 11.4m22.3 56.2l-19.8-28.3c5.8-2.5 10.3-6.1 13.4-10.9 3.2-4.7 4.7-10.4 4.7-16.9s-1.6-12.2-4.7-17c-3.1-4.8-7.5-8.5-13.3-11.1-5.8-2.6-12.5-3.9-20.3-3.9h-38.2v88.2h20.4v-24.6H788l17 24.6h21.9zm-149.4-34.4l14-33.8 14 33.8h-28zm42.2 34.4h21.4l-39.4-88.2h-20.2l-39.3 88.2h20.9l7.8-18.9h40.9l7.9 18.9zm-114.7 0h20.4V99.2h28.2V82.6h-76.8v16.6H605v71.6zm-56.8-88.2v53.5l-43.8-53.5h-16.9v88.2h20.2v-53.5l44 53.5h16.8V82.6h-20.3zm-122.3 72.3c-5.2 0-9.9-1.2-14.1-3.6-4.2-2.4-7.5-5.7-9.9-10-2.4-4.3-3.6-9.1-3.6-14.6s1.2-10.3 3.6-14.6 5.7-7.6 9.9-10 8.9-3.6 14.1-3.6c5.2 0 9.9 1.2 14.1 3.6 4.2 2.4 7.5 5.7 9.9 10s3.6 9.1 3.6 14.6-1.2 10.3-3.6 14.6-5.7 7.6-9.9 10c-4.2 2.4-8.9 3.6-14.1 3.6m0 17.4c9.2 0 17.4-2 24.7-5.9s13.1-9.4 17.3-16.3 6.3-14.7 6.3-23.4-2.1-16.4-6.3-23.4-10-12.3-17.3-16.3-15.5-5.9-24.7-5.9-17.4 2-24.8 5.9-13.1 9.4-17.3 16.3c-4.2 6.9-6.2 14.7-6.2 23.4s2.1 16.4 6.2 23.4 9.9 12.4 17.3 16.3c7.4 3.9 15.6 5.9 24.8 5.9" class="st0"/>
  <path d="M222.7 4.5c-73.7 15.6-73.4 50.2-67.5 68.2 14.2-29.1 37.7-53.4 67.5-68.2" class="st0"/>
  <path d="M164 83.8c80.5-10.9 79.7-53.9 75.2-72.8-34.5 13.5-61.1 40.2-75.2 72.8" class="st0"/>
  <path d="M117.6 381.4c10.5 0 13.3-4.3 18-6.5-30.4-23.1-50-59.6-50-100.6 0-41.7 20.3-78.7 51.5-101.8C83 192.5 42.3 240.7 33 299.1c25.6 46.9 60.7 82.3 84.6 82.3" class="st0"/>
  <path d="M10.7 247.6c1 3.1 2.1 6.2 3.2 9.3l.3.9 2.4 6.3c25.2-73.2 94.8-126 176.5-126 49.7 0 99.9 19.8 137.7 54.3l1.4 1.4c.2-2.9.3-5.8.3-8.7 0-15.4-2.2-29.4-6.3-41.7-1-3.1-2.2-6.1-3.5-9-1.3-2.9-2.7-5.7-4.2-8.3-1.5-2.7-3.1-5.2-4.9-7.7l-2.7-3.6c-10.2-12.8-23.7-22-40.2-26.9-9-2.7-18.8-4.1-29.4-4.1-15.8 0-30.4 1.8-43.1 5.8-.2.1-.5.2-.8.2-3.6 1-7.1 2.2-10.4 3.4-7 2.2-14.2 4.2-21 4.2-6.8 0-14-1.9-21-4.2-3.3-1.2-6.8-2.4-10.4-3.4-.2-.1-.5-.2-.8-.2-12.7-4-27.2-5.8-43.1-5.8-10.6 0-20.5 1.4-29.5 4.1-16.5 4.9-30 14.1-40.2 26.9l-2.7 3.6c-1.7 2.4-3.4 5-4.9 7.7-1.5 2.7-2.9 5.5-4.2 8.3-1.3 2.9-2.4 5.9-3.5 9C2.2 155.6 0 169.7 0 185c0 3.1.1 6.3.3 9.4.1 1 .1 1.9.2 2.9.2 2.2.4 4.5.6 6.8.1 1 .2 2.1.4 3.2.3 2.3.6 4.6 1 6.9.1.9.3 1.8.5 2.7.5 2.9 1.1 5.8 1.7 8.6.1.3.1.6.2.9 1.5 6.8 3.4 13.6 5.5 20.3.1.4.2.6.3.9" class="st0"/>
  <g>
    <path d="M117.1 271.2c0-54.7 44.3-99 99-99s99 44.3 99 99-44.3 99-99 99-99-44.3-99-99" class="st0"/>
  </g>
</svg>