<svg xmlns="http://www.w3.org/2000/svg" id="Layer_1" data-name="Layer 1" viewBox="0 0 738 225"><defs><style>.cls-1{fill:#083f3b}</style></defs><path d="M79 37.49h9.52v28.57L83.72 78H79ZM46.39 58.87l6.74-6.74 19.36 19.36.84.84 5 11.79L75 87.49ZM38.48 97v-9.51h28.57L79 92.25V97ZM59.86 129.58l-6.73-6.74 19.36-19.36.84-.84 11.78-5 3.37 3.36ZM98 137.49h-9.52v-28.57L93.24 97H98ZM130.57 116.11l-6.73 6.73-19.36-19.36-.85-.84-5-11.79 3.37-3.36ZM138.48 78v9.53h-28.57L98 82.72V78ZM117.1 45.4l6.74 6.73-19.37 19.36-.84.84-11.78 5L88.48 74ZM176.68 147.49h22c24.4 0 36.7-17.9 36.7-35.6 0-17.3-12-34.4-35.9-34.4h-22.8Zm10.1-9.5V87h12.7c17 0 25.7 12.6 25.7 25.4s-8.6 25.6-25.8 25.6ZM253.75 74.29a6.71 6.71 0 1 0 0 13.4 6.7 6.7 0 1 0 0-13.4m-4.9 73.2h9.8v-50.2h-9.8ZM313.83 97.29v7.6c-3-5.7-9.6-8.8-18.1-8.8-15.6 0-24.3 11.6-24.3 25.3 0 14.9 9.7 25.1 24.3 25.1 8.5 0 14.6-3 17.9-9v9.3c0 9.5-6.3 15.3-16 15.3-8.3 0-15.1-4.4-17.6-12.1l-8.6 4.1c3.5 10.3 13.4 16.9 25.9 16.9 15.2 0 26-9.8 26-25.2v-48.5Zm-32.7 24c0-10.2 6.6-16.5 16.1-16.5 9.8 0 16.4 6.3 16.4 16.5s-6.7 16.6-16.4 16.6c-10.4 0-16.1-7.4-16.1-16.6M342.73 74.29a6.71 6.71 0 1 0 0 13.4 6.7 6.7 0 1 0 0-13.4m-4.9 73.2h9.8v-50.2h-9.8ZM411.5 147.49v-70h-9.7v27.7c-3.2-5.7-9.5-9.1-17.8-9.1-15.6 0-24 12.5-24 26.1s8.3 25.9 23.9 25.9c8.3 0 14.9-3.5 18.3-9.4v8.8Zm-41.8-25.4c0-9.3 5.5-17.3 15.8-17.3 9.7 0 16.3 7.1 16.3 17.3s-6.6 17.3-16.2 17.3-15.9-7.1-15.9-17.3M470.09 125.39v-4.9c0-15.6-8.3-24.4-21.9-24.4-15.9 0-25.1 12.2-25.1 26.6s9.4 25.4 24.9 25.4c9.1 0 15.8-3.7 21-10.2l-5.4-5.8a17.53 17.53 0 0 1-14.7 7.4c-8.9 0-14.9-4.8-16.1-14.1Zm-37.2-7.5c1.1-8.5 6.3-13.5 14.9-13.5s12.6 4.9 12.7 13.5ZM481.67 97.29v50.2h9.7v-26.3c0-10.5 6.7-16.4 14.4-16.4 6.9 0 11.1 4.4 11.1 12.1v30.6h9.7v-33c0-11.8-7.1-18.4-17.9-18.4-8.9 0-14.3 4.1-17.5 9.9v-8.7ZM535.14 97.29v8.8h10.6v25.8c0 10.5 6.9 16.2 16 16.2a24.1 24.1 0 0 0 13.6-4.4l-2.8-7.1a15.43 15.43 0 0 1-8.4 2.7c-4.8 0-8.7-2.8-8.7-8.7v-24.5h15.4v-8.8h-15.4V84h-9.7v13.3ZM590.7 74.29a6.71 6.71 0 1 0 0 13.4 6.7 6.7 0 1 0 0-13.4m-4.9 73.2h9.8v-50.2h-9.8ZM605 97.29v8.8h10.6v25.8c0 10.5 6.9 16.2 16 16.2a24.1 24.1 0 0 0 13.6-4.4l-2.8-7.1a15.43 15.43 0 0 1-8.4 2.7c-4.8 0-8.7-2.8-8.7-8.7v-24.5h15.4v-8.8h-15.4V84h-9.7v13.3ZM689.93 97.29v23.8c0 9.9-6.1 16.4-14.4 16.4-7.1 0-11.9-4.7-11.9-12.5v-27.7h-9.8V127c0 12.8 9.2 19.3 19.3 19.3 7.7 0 13.9-3.6 16.8-9.7v10.3c0 9.9-5.8 15.2-14.6 15.2-7.7 0-13.4-3.8-15.7-11.8l-8.9 3.8c3.5 11 12.6 16.8 24.3 16.8 14 0 24.6-9 24.6-25.1V97.29Z" class="cls-1"/></svg>