<svg xmlns="http://www.w3.org/2000/svg" fill="none" viewBox="0 0 648 83"><path fill="#183964" d="M264.97 25.763h-41.758v9.381l1.259-.114v-.115c.228-1.373 2.745-4.004 5.834-4.004h9.267v48.394h9.153v-48.28h9.495c3.204 0 5.263 1.716 5.606 3.318v.229h1.373l-.114-8.58h-.115zM56.516 25.763h-.229v1.258l.115.115c.8.457 1.601 2.402 1.601 4.805v47.364h8.924V54.936h4.004c3.547.229 4.92 2.517 6.636 5.492l.229.343 1.144 1.83c1.945 3.204 4.576 7.551 7.207 11.67 1.945 2.86 4.348 4.576 7.437 5.034 2.173.343 6.521.228 8.237-.23l1.945-.457.801-.229-2.746-.8c-1.144-.344-2.86-1.145-5.148-3.776-1.488-1.602-3.776-5.377-7.322-10.868l-3.433-5.492-.114-.114c-.915-1.373-2.517-3.547-5.148-4.92 5.034-1.601 9.953-6.178 9.953-13.042 0-1.945-.457-5.606-3.775-8.81-3.318-3.203-8.58-4.804-15.674-4.804zm15.33 4.805c9.153.343 9.382 8.122 9.382 8.923 0 7.78-5.72 10.526-10.754 10.526 0 0-3.204-.115-3.547-.115V30.568c1.03 0 2.746-.115 4.92 0M148.042 25.763h-.229l.114 1.373h.115c.801.343 1.487 2.288 1.487 3.89V79.19h15.33c10.068 0 18.534-3.089 24.254-9.038 4.806-4.92 7.437-11.67 7.437-18.534 0-4.118-1.373-10.41-5.377-15.559-5.263-6.864-13.615-10.41-24.941-10.41zm10.64 5.148h4.805c1.258 0 4.461.114 6.75.458 15.101 2.288 16.703 14.987 16.703 20.25 0 4.347-.801 10.64-4.576 15.444-3.661 4.691-9.382 7.093-17.161 7.093-1.831 0-4.119 0-6.636-.114.115-.343.115-42.673.115-43.13M215.083 25.763h-10.526v1.258l.115.115c.915.457 1.601 2.173 1.601 4.461v47.708h8.924V25.877zM136.49 25.763h-30.089l.115 1.258h.114c.801.458 1.716 2.288 1.716 4.805V79.19h29.974l2.174-9.495-1.258-.458-.344.572c-2.517 3.89-5.033 4.347-13.728 4.347-3.089.115-6.178-.229-8.009-.343V51.962h15.216v-4.805h-15.216v-16.59c.458 0 12.356.115 12.356.115 2.746 0 5.835 2.631 6.064 4.233v.229h1.258zM387.374 25.763h-10.525l.114 1.258h.115c.915.458 1.601 2.288 1.601 4.576v47.708h8.924V25.877zM512.31 25.763h-29.975l.115 1.373h.114c.801.457 1.716 2.173 1.716 4.69V79.19h29.975l2.173-9.495-1.372-.458-.344.572c-2.517 3.89-5.034 4.347-13.614 4.347-3.089.115-6.178-.228-8.008-.343V51.962h15.216v-4.805H493.09v-16.59c.457 0 12.355.115 12.355.115 3.433 0 5.95 2.517 5.95 4.233v.23l1.372-.115-.228-9.382zM401.906 39.262c-.114 7.437 4.348 11.097 11.67 14.758l2.745 1.373c5.721 2.86 9.496 4.691 9.496 10.068 0 .915-.229 4.119-2.631 6.636-1.716 1.716-4.119 2.517-7.094 2.517-8.58-.115-11.669-6.75-12.813-10.64l-.229-.687-1.83.344.457 11.211.458.23c2.86 1.6 7.665 4.347 14.415 4.461 4.92 0 9.839-1.945 13.157-5.263 2.974-2.974 4.576-6.635 4.576-10.754 0-9.381-6.521-12.699-13.386-16.36l-1.258-.686c-7.436-3.661-9.953-5.377-9.953-9.496 0-2.86 2.173-7.207 8.123-7.093 7.207.114 10.296 5.263 10.982 8.008l.229.801 1.831-.229-.687-9.838-.343-.23c-4.118-2.745-9.267-3.088-11.326-3.088-8.008-.115-16.474 4.805-16.589 13.957M284.302 39.26c-.115 7.437 4.347 11.098 11.669 14.76l2.746 1.372c5.72 2.86 9.495 4.69 9.495 10.068 0 .915-.228 4.118-2.631 6.635-1.716 1.716-4.118 2.517-7.093 2.517-8.58-.114-11.669-6.75-12.813-10.64l-.229-.686-1.831.343.458 11.212.457.229c2.861 1.602 7.666 4.347 14.416 4.462 4.919 0 9.838-1.945 13.156-5.263 2.975-2.975 4.576-6.636 4.576-10.754 0-9.381-6.521-12.7-13.385-16.36l-1.258-.687c-7.437-3.66-9.954-5.377-9.954-9.495 0-2.86 2.174-7.208 8.123-7.093 7.208.114 10.297 5.262 10.983 8.008l.229.8 1.83-.228-.572-9.724-.343-.23c-4.119-2.745-9.267-3.088-11.326-3.088-8.008-.229-16.589 4.69-16.703 13.843M442.067 39.26c-.114 7.437 4.348 11.098 11.67 14.759l2.745 1.373c5.721 2.86 9.496 4.69 9.496 10.067 0 .916-.229 4.119-2.631 6.636-1.716 1.716-4.119 2.517-7.093 2.517-8.581-.115-11.67-6.75-12.814-10.64l-.229-.686-1.83.343.458 11.212.457.228c2.86 1.602 7.665 4.348 14.415 4.462 4.92 0 9.839-1.945 13.157-5.262 2.974-2.975 4.576-6.636 4.576-10.755 0-9.38-6.521-12.699-13.385-16.36l-1.259-.686c-7.436-3.661-9.953-5.377-9.953-9.496 0-1.83.801-3.66 2.174-5.034 1.487-1.372 3.546-2.173 5.949-2.173 7.207.114 10.296 5.262 10.983 8.008l.228.686 1.831-.228-.572-9.725-.343-.229c-4.119-2.745-9.267-3.088-11.326-3.088-8.009 0-16.589 4.919-16.704 14.071M365.063 25.763h-7.093l.114 1.258h.114c.344.23 1.488 1.03 1.488 4.348v30.317c0 5.835-2.174 12.928-12.47 12.928-9.725 0-11.784-5.834-11.784-14.53V25.65H324.22l.114 1.144h.115c.686.343 1.945 1.83 1.945 4.69V59.97c0 17.733 11.669 19.678 20.478 19.678 4.348 0 18.305-1.258 18.305-17.962V25.534zM7.436 33.426l.115.114zC2.746 38.574 0 45.438 0 52.53c0 7.894 3.089 14.988 8.695 20.136 5.377 4.92 12.47 7.55 20.135 7.55 4.005 0 11.898-.686 19.45-5.376l.342-.23.916-11.097-1.488-.114-.228.458C42.216 75.87 33.52 74.154 30.203 74.154c-14.758 0-19.792-10.868-19.792-22.652 0-11.327 5.034-21.051 19.907-21.051 4.576 0 12.813-.114 17.16 10.182l.23.572 1.372-.457-.915-11.555-.343-.115c-6.98-3.089-12.585-4.462-18.19-4.462-9.039-.114-16.704 2.975-22.196 8.81M620.771 61.913c-9.954-1.601-20.708-2.517-28.602-1.144-.457.114-.801-.229-.801-.686 0-2.746 0-11.67-2.173-22.767 0-.229-.115-.343-.343-.458-25.971-18.19-49.424-30.317-59.034-34.893-.686-.344-1.373.572-.801 1.144 28.03 25.74 37.869 69.558 39.127 75.393a.86.86 0 0 0 .801.572c31.461-6.064 63.037 1.487 71.847 3.89.686.229 1.144-.687.686-1.144-6.521-6.979-13.385-13.5-20.364-19.678 0-.114-.115-.229-.343-.229"/><path fill="#183964" d="M647.202 66.376C621.918 32.51 585.995 7.57 574.669.135c-.687-.458-1.373.343-.915 1.03 8.694 11.44 13.156 24.597 15.33 35.58 0 .228.114.343.229.457A416 416 0 0 1 620.889 61.8c.114.115.229.115.343.115 10.983 1.83 21.051 4.347 25.169 5.491.687.229 1.144-.457.801-1.03M264.97 25.763h-41.758v9.381l1.259-.114v-.115c.228-1.373 2.745-4.004 5.834-4.004h9.267v48.394h9.153v-48.28h9.495c3.204 0 5.263 1.716 5.606 3.318v.229h1.373l-.114-8.58h-.115zM56.516 25.763h-.229v1.258l.115.115c.8.457 1.601 2.402 1.601 4.805v47.364h8.924V54.936h4.004c3.547.229 4.92 2.517 6.636 5.492l.229.343 1.144 1.83c1.945 3.204 4.576 7.551 7.207 11.67 1.945 2.86 4.348 4.576 7.437 5.034 2.173.343 6.521.228 8.237-.23l1.945-.457.801-.229-2.746-.8c-1.144-.344-2.86-1.145-5.148-3.776-1.488-1.602-3.776-5.377-7.322-10.868l-3.433-5.492-.114-.114c-.915-1.373-2.517-3.547-5.148-4.92 5.034-1.601 9.953-6.178 9.953-13.042 0-1.945-.457-5.606-3.775-8.81-3.318-3.203-8.58-4.804-15.674-4.804zm15.33 4.805c9.153.343 9.382 8.122 9.382 8.923 0 7.78-5.72 10.526-10.754 10.526 0 0-3.204-.115-3.547-.115V30.568c1.03 0 2.746-.115 4.92 0M148.042 25.763h-.229l.114 1.373h.115c.801.343 1.487 2.288 1.487 3.89V79.19h15.33c10.068 0 18.534-3.089 24.254-9.038 4.806-4.92 7.437-11.67 7.437-18.534 0-4.118-1.373-10.41-5.377-15.559-5.263-6.864-13.615-10.41-24.941-10.41zm10.64 5.148h4.805c1.258 0 4.461.114 6.75.458 15.101 2.288 16.703 14.987 16.703 20.25 0 4.347-.801 10.64-4.576 15.444-3.661 4.691-9.382 7.093-17.161 7.093-1.831 0-4.119 0-6.636-.114.115-.343.115-42.673.115-43.13M215.083 25.763h-10.526v1.258l.115.115c.915.457 1.601 2.173 1.601 4.461v47.708h8.924V25.877zM136.49 25.763h-30.089l.115 1.258h.114c.801.458 1.716 2.288 1.716 4.805V79.19h29.974l2.174-9.495-1.258-.458-.344.572c-2.517 3.89-5.033 4.347-13.728 4.347-3.089.115-6.178-.229-8.009-.343V51.962h15.216v-4.805h-15.216v-16.59c.458 0 12.356.115 12.356.115 2.746 0 5.835 2.631 6.064 4.233v.229h1.258zM387.374 25.763h-10.525l.114 1.258h.115c.915.458 1.601 2.288 1.601 4.576v47.708h8.924V25.877zM512.31 25.763h-29.975l.115 1.373h.114c.801.457 1.716 2.173 1.716 4.69V79.19h29.975l2.173-9.495-1.372-.458-.344.572c-2.517 3.89-5.034 4.347-13.614 4.347-3.089.115-6.178-.228-8.008-.343V51.962h15.216v-4.805H493.09v-16.59c.457 0 12.355.115 12.355.115 3.433 0 5.95 2.517 5.95 4.233v.23l1.372-.115-.228-9.382zM401.906 39.262c-.114 7.437 4.348 11.097 11.67 14.758l2.745 1.373c5.721 2.86 9.496 4.691 9.496 10.068 0 .915-.229 4.119-2.631 6.636-1.716 1.716-4.119 2.517-7.094 2.517-8.58-.115-11.669-6.75-12.813-10.64l-.229-.687-1.83.344.457 11.211.458.23c2.86 1.6 7.665 4.347 14.415 4.461 4.92 0 9.839-1.945 13.157-5.263 2.974-2.974 4.576-6.635 4.576-10.754 0-9.381-6.521-12.699-13.386-16.36l-1.258-.686c-7.436-3.661-9.953-5.377-9.953-9.496 0-2.86 2.173-7.207 8.123-7.093 7.207.114 10.296 5.263 10.982 8.008l.229.801 1.831-.229-.687-9.838-.343-.23c-4.118-2.745-9.267-3.088-11.326-3.088-8.008-.115-16.474 4.805-16.589 13.957M284.302 39.26c-.115 7.437 4.347 11.098 11.669 14.76l2.746 1.372c5.72 2.86 9.495 4.69 9.495 10.068 0 .915-.228 4.118-2.631 6.635-1.716 1.716-4.118 2.517-7.093 2.517-8.58-.114-11.669-6.75-12.813-10.64l-.229-.686-1.831.343.458 11.212.457.229c2.861 1.602 7.666 4.347 14.416 4.462 4.919 0 9.838-1.945 13.156-5.263 2.975-2.975 4.576-6.636 4.576-10.754 0-9.381-6.521-12.7-13.385-16.36l-1.258-.687c-7.437-3.66-9.954-5.377-9.954-9.495 0-2.86 2.174-7.208 8.123-7.093 7.208.114 10.297 5.262 10.983 8.008l.229.8 1.83-.228-.572-9.724-.343-.23c-4.119-2.745-9.267-3.088-11.326-3.088-8.008-.229-16.589 4.69-16.703 13.843M442.067 39.26c-.114 7.437 4.348 11.098 11.67 14.759l2.745 1.373c5.721 2.86 9.496 4.69 9.496 10.067 0 .916-.229 4.119-2.631 6.636-1.716 1.716-4.119 2.517-7.093 2.517-8.581-.115-11.67-6.75-12.814-10.64l-.229-.686-1.83.343.458 11.212.457.228c2.86 1.602 7.665 4.348 14.415 4.462 4.92 0 9.839-1.945 13.157-5.262 2.974-2.975 4.576-6.636 4.576-10.755 0-9.38-6.521-12.699-13.385-16.36l-1.259-.686c-7.436-3.661-9.953-5.377-9.953-9.496 0-1.83.801-3.66 2.174-5.034 1.487-1.372 3.546-2.173 5.949-2.173 7.207.114 10.296 5.262 10.983 8.008l.228.686 1.831-.228-.572-9.725-.343-.229c-4.119-2.745-9.267-3.088-11.326-3.088-8.009 0-16.589 4.919-16.704 14.071M365.063 25.763h-7.093l.114 1.258h.114c.344.23 1.488 1.03 1.488 4.348v30.317c0 5.835-2.174 12.928-12.47 12.928-9.725 0-11.784-5.834-11.784-14.53V25.65H324.22l.114 1.144h.115c.686.343 1.945 1.83 1.945 4.69V59.97c0 17.733 11.669 19.678 20.478 19.678 4.348 0 18.305-1.258 18.305-17.962V25.534zM7.436 33.426l.115.114zC2.746 38.574 0 45.438 0 52.53c0 7.894 3.089 14.988 8.695 20.136 5.377 4.92 12.47 7.55 20.135 7.55 4.005 0 11.898-.686 19.45-5.376l.342-.23.916-11.097-1.488-.114-.228.458C42.216 75.87 33.52 74.154 30.203 74.154c-14.758 0-19.792-10.868-19.792-22.652 0-11.327 5.034-21.051 19.907-21.051 4.576 0 12.813-.114 17.16 10.182l.23.572 1.372-.457-.915-11.555-.343-.115c-6.98-3.089-12.585-4.462-18.19-4.462-9.039-.114-16.704 2.975-22.196 8.81"/><path fill="#183964" d="M620.771 61.913c-9.954-1.601-20.708-2.517-28.602-1.144-.457.114-.801-.229-.801-.686 0-2.746 0-11.67-2.173-22.767 0-.229-.115-.343-.343-.458-25.971-18.19-49.424-30.317-59.034-34.893-.686-.344-1.373.572-.801 1.144 28.03 25.74 37.869 69.558 39.127 75.393a.86.86 0 0 0 .801.572c31.461-6.064 63.037 1.487 71.847 3.89.686.229 1.144-.687.686-1.144-6.521-6.979-13.385-13.5-20.364-19.678 0-.114-.115-.229-.343-.229"/><path fill="#183964" d="M647.202 66.376C621.918 32.51 585.995 7.57 574.669.135c-.687-.458-1.373.343-.915 1.03 8.694 11.44 13.156 24.597 15.33 35.58 0 .228.114.343.229.457A416 416 0 0 1 620.889 61.8c.114.115.229.115.343.115 10.983 1.83 21.051 4.347 25.169 5.491.687.229 1.144-.457.801-1.03"/></svg>