<?xml version="1.0" encoding="utf-8"?>
<!-- Generator: Adobe Illustrator 26.0.1, SVG Export Plug-In . SVG Version: 6.00 Build 0)  -->
<svg version="1.1" xmlns="http://www.w3.org/2000/svg" xmlns:xlink="http://www.w3.org/1999/xlink" x="0px" y="0px"
	 viewBox="0 0 3492.7 1059.7" style="enable-background:new 0 0 3492.7 1059.7;" xml:space="preserve">
<style type="text/css">
	.st0{fill:#952553;}
	.st1{fill:#FFFFFF;}
	.st2{fill:#8D8D8C;}
</style>
<g id="granate">
</g>
<g id="C">
</g>
<g id="A">
</g>
<g id="R">
	<g>
		<g>
			<path class="st0" d="M637.1,681.1c125.4-182.3,167.7-377.7,33.3-486.4C536.2,85.9,314.4,137.1,175.1,309
				C35.8,481,31.9,708.6,166.2,817.3C300.5,926.2,512.2,862.7,637.1,681.1"/>
			<path class="st1" d="M573,697.3c-6.4,21.5-19,57-44.3,57c-26.6,0-26.6-20.3-26.6-58.2V394.8c0-50.7,0-124.1-172.2-124.1
				c-150.6,0-202.5,76-202.5,121.5c0,35.4,19,60.8,53.1,60.8c31.6,0,51.9-21.5,51.9-53.1c0-41.8-38-48.1-38-58.2
				c0-36.7,89.9-45.5,117.7-45.5c44.3,0,91.1,17.7,91.1,77.2v120.2c-193.7,0-313.9,65.8-317.7,183.6c0,93.6,68.3,124,148,124
				c64.6,0,127.9-24,170.9-77.1c8.9,46.8,35.5,77.1,82.3,77.1c58.2,0,103.7-44.2,107.5-103.8H573z M403.3,637.8
				c0,53.2-17.8,67.1-27.9,77.3c-30.4,26.5-57,36.7-97.5,36.7c-58.2,0-97.4-38-97.4-100c0-116.5,140.5-130.4,222.8-131.6V637.8z"/>
			<g>
				<path class="st2" d="M1066.9,254c6.1,0,12,1.6,17.7,4.7c5.8,3.1,10.3,7.6,13.5,13.3c3.2,5.8,4.8,11.8,4.8,18.1
					c0,6.2-1.6,12.2-4.8,17.9c-3.2,5.7-7.6,10.2-13.3,13.4c-5.7,3.2-11.7,4.8-17.9,4.8s-12.2-1.6-17.9-4.8
					c-5.7-3.2-10.2-7.6-13.4-13.4c-3.2-5.7-4.8-11.7-4.8-17.9c0-6.3,1.6-12.3,4.9-18.1c3.2-5.8,7.7-10.2,13.5-13.3
					C1054.9,255.5,1060.8,254,1066.9,254z M1066.9,260c-5.1,0-10,1.3-14.8,3.9c-4.8,2.6-8.5,6.3-11.3,11.1
					c-2.7,4.8-4.1,9.9-4.1,15.1c0,5.2,1.3,10.2,4,14.9c2.7,4.8,6.4,8.5,11.2,11.1c4.8,2.7,9.8,4,15,4c5.2,0,10.2-1.3,15-4
					c4.8-2.7,8.5-6.4,11.1-11.1c2.6-4.8,4-9.7,4-14.9c0-5.2-1.3-10.3-4-15.1c-2.7-4.8-6.4-8.5-11.3-11.1
					C1076.8,261.3,1071.9,260,1066.9,260z M1051.1,310v-38.8h13.3c4.6,0,7.9,0.4,9.9,1.1c2,0.7,3.7,2,4.9,3.8
					c1.2,1.8,1.8,3.7,1.8,5.7c0,2.8-1,5.3-3,7.4c-2,2.1-4.7,3.3-8.1,3.5c1.4,0.6,2.5,1.3,3.3,2.1c1.6,1.5,3.5,4.1,5.7,7.7l4.7,7.6
					h-7.6l-3.4-6.1c-2.7-4.8-4.9-7.8-6.5-9c-1.1-0.9-2.8-1.3-5-1.3h-3.7V310H1051.1z M1057.3,288.2h7.6c3.6,0,6.1-0.5,7.4-1.6
					c1.3-1.1,2-2.5,2-4.3c0-1.1-0.3-2.2-1-3.1c-0.6-0.9-1.5-1.6-2.7-2c-1.1-0.4-3.2-0.7-6.3-0.7h-7.1V288.2z"/>
			</g>
			<path class="st2" d="M525.1,545.8c0-100.7,16.8-168.5,50.4-203.4c33.6-34.9,98.9-52.4,196.1-52.4c93.7,0,157.1,12.6,190.4,37.9
				c36.1,26.1,48.5,81.3,49.8,123.6H881.5c-3.5-32.6-34.7-66.6-107.7-66.7c-51.8-0.1-84.3,9.2-97.5,27.8
				c-13.2,18.6-19.8,63.9-19.8,136.3c0,69.9,7.3,113.8,21.8,131.8c14.6,18.1,50.2,27,106.8,27c44.6,0,73.2-6.2,85.9-18.6
				c12.7-12.4,15.4-31.3,19-66.5h120.6h8.8c-1.1,46.2-8.1,76.2-8.1,76.2c-16,70-93.2,103.8-232.3,103.8c-102,0-169.8-17-203.4-51.1
				C542,717.5,525.1,648.9,525.1,545.8"/>
		</g>
		<g>
			<path class="st2" d="M1284.5,154.4l-40,100.1h76.2L1284.5,154.4z M1356.8,354.4l-30.6-84.4h-87.7l-33.9,84.4h-17.9l85.9-213.9
				h24.8l78.7,213.9H1356.8z"/>
			<polygon class="st2" points="1533.4,354.4 1420.2,151.9 1421.5,172.2 1421.5,354.4 1403.6,354.4 1403.6,140.5 1433,140.5 
				1548.9,345.6 1547.9,318.1 1547.9,140.5 1566.4,140.5 1566.4,354.4 			"/>
			<polygon class="st2" points="1644.9,155.3 1644.9,245.1 1740,245.1 1740,261.2 1644.9,261.2 1644.9,354.4 1627.1,354.4 
				1627.1,140.5 1746.6,140.5 1746.6,155.3 			"/>
		</g>
		<g>
			<path class="st0" d="M1284.5,411.3l-39.9,100.2h76.2L1284.5,411.3z M1356.8,611.3l-30.6-84.4h-87.7l-33.9,84.4h-17.8l85.9-213.9
				h24.8l78.6,213.9H1356.8z"/>
			<path class="st0" d="M1495,615.2c-39.6,0-82.6-14.5-82.6-74.7V397.4h18.5v141c0,50.5,34.2,60.8,64.1,60.8
				c33.3,0,64.5-13.6,64.5-68.1V397.4h16.9v135C1576.4,599.2,1530.6,615.2,1495,615.2"/>
			<polygon class="st0" points="1702.1,413.5 1702.1,611.3 1684.3,611.3 1684.3,413.5 1609.5,413.5 1609.5,397.4 1776.9,397.4 
				1776.9,413.5 			"/>
			<path class="st0" d="M1888.8,409.8c-57.5,0-88.1,40.9-88.1,93.8c0,51.1,29.3,95.8,85.9,95.8c59.6,0,89-41.7,89-95.3
				C1975.6,450.7,1943.8,409.8,1888.8,409.8 M1885.8,614.9c-64.2,0-102.6-46.6-102.6-111c0-66.9,44.5-109.5,108.3-109.5
				c66.6,0,102,48.1,102,110.2C1993.5,569.3,1952.3,614.9,1885.8,614.9"/>
			<path class="st0" d="M2107.4,412.2h-41.5v94.5h34.2c33.9,0,60.5-9.4,60.5-46.6C2160.7,424.3,2141.3,412.2,2107.4,412.2
				 M2181.8,611.3l-61.1-89.8c-5.8,1.2-15.4,1.8-22.4,1.8h-32.4v88h-18.2V397.4h66.3c39.1,0,65.6,18.8,65.6,60.9
				c0,25.4-11.8,48.4-41.7,58.7l65,94.3H2181.8z"/>
			<rect x="2256.2" y="397.4" class="st0" width="17.8" height="213.9"/>
			<path class="st0" d="M2398.1,412.9h-33.9v183h40c57.2,0,94.4-29.6,94.4-88.9C2498.5,442.5,2456.7,412.9,2398.1,412.9
				 M2400.8,611.3h-54.2V397.4h52.4c67.8,0,117.1,37.9,117.1,106.2C2516,578.9,2470.7,611.3,2400.8,611.3"/>
			<path class="st0" d="M2624.3,411.3l-39.9,100.2h76.2L2624.3,411.3z M2696.6,611.3l-30.6-84.4h-87.7l-33.9,84.4h-17.9l85.9-213.9
				h24.8l78.7,213.9H2696.6z"/>
			<path class="st0" d="M2806.6,412.9h-33.9v183h39.9c57.2,0,94.4-29.6,94.4-88.9C2907.1,442.5,2865.3,412.9,2806.6,412.9
				 M2809.4,611.3h-54.1V397.4h52.3c67.8,0,117.1,37.9,117.1,106.2C2924.6,578.9,2879.3,611.3,2809.4,611.3"/>
			<path class="st0" d="M3090.9,412.9h-33.9v183h39.9c57.2,0,94.4-29.6,94.4-88.9C3191.4,442.5,3149.6,412.9,3090.9,412.9
				 M3093.6,611.3h-54.1V397.4h52.3c67.8,0,117.1,37.9,117.1,106.2C3208.9,578.9,3163.5,611.3,3093.6,611.3"/>
			<polygon class="st0" points="3263.3,611.3 3263.3,397.4 3377.7,397.4 3377.7,412.2 3281.2,412.2 3281.2,496 3371.1,496 
				3371.1,511.7 3281.2,511.7 3281.2,595.8 3384.6,595.8 3384.6,611.3 			"/>
		</g>
		<g>
			<path class="st0" d="M1295.4,870.2c-68.7,0-108.6-46.6-108.6-108.6c0-65.7,39.4-110.7,107.4-110.7c40.6,0,58.7,9.1,60.5,9.7
				l-5.1,15.4c-5.4-1.7-23.3-8.8-54.7-8.8c-46.3,0-89.2,24.5-89.2,91.4c0,69,44.4,95.8,95.3,95.8c19.7,0,39.9-4.2,50.2-7.5l4.8,14.8
				C1351,863.8,1333.2,870.2,1295.4,870.2"/>
			<polygon class="st0" points="1399.7,867.1 1399.7,653.2 1514,653.2 1514,668 1417.5,668 1417.5,751.8 1507.4,751.8 1507.4,767.5 
				1417.5,767.5 1417.5,851.7 1521,851.7 1521,867.1 			"/>
			<path class="st0" d="M1633.2,668h-41.5v94.5h34.2c33.9,0,60.5-9.4,60.5-46.6C1686.5,680.2,1667.1,668,1633.2,668 M1707.6,867.1
				l-61.1-89.9c-5.8,1.3-15.4,1.8-22.4,1.8h-32.4v88h-18.1V653.2h66.2c39.1,0,65.6,18.8,65.6,60.8c0,25.4-11.8,48.4-41.7,58.7
				l65,94.3H1707.6z"/>
			<polygon class="st0" points="1827.7,669.3 1827.7,867.1 1809.8,867.1 1809.8,669.3 1735.1,669.3 1735.1,653.2 1902.4,653.2 
				1902.4,669.3 			"/>
			<rect x="1939.8" y="653.2" class="st0" width="17.9" height="213.9"/>
			<polygon class="st0" points="2049.6,668 2049.6,757.9 2144.7,757.9 2144.7,773.9 2049.6,773.9 2049.6,867.1 2031.7,867.1 
				2031.7,653.2 2151.3,653.2 2151.3,668 			"/>
			<rect x="2198.1" y="653.2" class="st0" width="17.9" height="213.9"/>
			<path class="st0" d="M2380.2,870.2c-68.7,0-108.6-46.6-108.6-108.6c0-65.7,39.4-110.7,107.4-110.7c40.6,0,58.7,9.1,60.5,9.7
				l-5.1,15.4c-5.4-1.7-23.3-8.8-54.8-8.8c-46.3,0-89.2,24.5-89.2,91.4c0,69,44.5,95.8,95.3,95.8c19.7,0,40-4.2,50.2-7.5l4.9,14.8
				C2435.9,863.8,2418.1,870.2,2380.2,870.2"/>
			<path class="st0" d="M2550.2,667.1l-40,100.2h76.3L2550.2,667.1z M2622.5,867.1l-30.6-84.4h-87.8l-33.9,84.4h-17.8l85.9-213.9
				h24.8l78.7,213.9H2622.5z"/>
			<path class="st0" d="M2764.3,870.2c-68.7,0-108.6-46.6-108.6-108.6c0-65.7,39.4-110.7,107.4-110.7c40.6,0,58.7,9.1,60.5,9.7
				l-5.2,15.4c-5.4-1.7-23.3-8.8-54.7-8.8c-46.3,0-89.2,24.5-89.2,91.4c0,69,44.4,95.8,95.3,95.8c19.7,0,39.9-4.2,50.2-7.5l4.8,14.8
				C2820,863.8,2802.1,870.2,2764.3,870.2"/>
			<rect x="2868.6" y="653.2" class="st0" width="17.8" height="213.9"/>
			<polygon class="st0" points="3338.1,867.1 3224.9,664.7 3226.2,685 3226.2,867.1 3208.3,867.1 3208.3,653.2 3237.6,653.2 
				3353.5,858.4 3352.6,830.8 3352.6,653.2 3371.1,653.2 3371.1,867.1 			"/>
			<path class="st0" d="M3121.6,706.6c8.5,15,13,33.3,13,53.4c0,53.5-29.4,95.3-89,95.3c-56.6,0-85.9-44.8-85.9-95.9
				c0-52.9,30.5-93.8,88-93.8c16,0,29.7,3.8,41.6,9.9l13-12.5c-14.4-8-31.5-13-51.8-13c-63.8,0-108.3,42.7-108.3,109.5
				c0,64.5,38.4,111,102.6,111c66.5,0,107.7-45.7,107.7-110.4c0-24.8-5.9-47.2-17-65.4L3121.6,706.6z"/>
			<polygon class="st0" points="3085,697.8 3136.2,648.6 3150.6,664.6 3096.1,710.3 			"/>
		</g>
	</g>
</g>
<g id="ANF">
</g>
<g id="AC">
</g>
</svg>
