<svg xmlns="http://www.w3.org/2000/svg" xml:space="preserve" viewBox="0 0 3492.7 1059.7"><style>.st0{fill:#952553}.st2{fill:#8d8d8c}</style><g id="R"><path d="M637.1 681.1c125.4-182.3 167.7-377.7 33.3-486.4-134.2-108.8-356-57.6-495.3 114.3-139.3 172-143.2 399.6-8.9 508.3 134.3 108.9 346 45.4 470.9-136.2" class="st0"/><path d="M573 697.3c-6.4 21.5-19 57-44.3 57-26.6 0-26.6-20.3-26.6-58.2V394.8c0-50.7 0-124.1-172.2-124.1-150.6 0-202.5 76-202.5 121.5 0 35.4 19 60.8 53.1 60.8 31.6 0 51.9-21.5 51.9-53.1 0-41.8-38-48.1-38-58.2 0-36.7 89.9-45.5 117.7-45.5 44.3 0 91.1 17.7 91.1 77.2v120.2c-193.7 0-313.9 65.8-317.7 183.6 0 93.6 68.3 124 148 124 64.6 0 127.9-24 170.9-77.1 8.9 46.8 35.5 77.1 82.3 77.1 58.2 0 103.7-44.2 107.5-103.8H573zm-169.7-59.5c0 53.2-17.8 67.1-27.9 77.3-30.4 26.5-57 36.7-97.5 36.7-58.2 0-97.4-38-97.4-100 0-116.5 140.5-130.4 222.8-131.6z" style="fill:#fff"/><path d="M1066.9 254c6.1 0 12 1.6 17.7 4.7 5.8 3.1 10.3 7.6 13.5 13.3 3.2 5.8 4.8 11.8 4.8 18.1 0 6.2-1.6 12.2-4.8 17.9s-7.6 10.2-13.3 13.4-11.7 4.8-17.9 4.8-12.2-1.6-17.9-4.8-10.2-7.6-13.4-13.4c-3.2-5.7-4.8-11.7-4.8-17.9 0-6.3 1.6-12.3 4.9-18.1 3.2-5.8 7.7-10.2 13.5-13.3 5.7-3.2 11.6-4.7 17.7-4.7m0 6c-5.1 0-10 1.3-14.8 3.9s-8.5 6.3-11.3 11.1c-2.7 4.8-4.1 9.9-4.1 15.1s1.3 10.2 4 14.9c2.7 4.8 6.4 8.5 11.2 11.1 4.8 2.7 9.8 4 15 4s10.2-1.3 15-4q7.2-4.05 11.1-11.1c2.6-4.8 4-9.7 4-14.9s-1.3-10.3-4-15.1-6.4-8.5-11.3-11.1-9.8-3.9-14.8-3.9m-15.8 50v-38.8h13.3c4.6 0 7.9.4 9.9 1.1s3.7 2 4.9 3.8q1.8 2.7 1.8 5.7c0 2.8-1 5.3-3 7.4s-4.7 3.3-8.1 3.5q2.1.9 3.3 2.1c1.6 1.5 3.5 4.1 5.7 7.7l4.7 7.6h-7.6l-3.4-6.1c-2.7-4.8-4.9-7.8-6.5-9-1.1-.9-2.8-1.3-5-1.3h-3.7V310zm6.2-21.8h7.6c3.6 0 6.1-.5 7.4-1.6s2-2.5 2-4.3c0-1.1-.3-2.2-1-3.1-.6-.9-1.5-1.6-2.7-2-1.1-.4-3.2-.7-6.3-.7h-7.1v11.7zM525.1 545.8q0-151.05 50.4-203.4c33.6-34.9 98.9-52.4 196.1-52.4 93.7 0 157.1 12.6 190.4 37.9 36.1 26.1 48.5 81.3 49.8 123.6H881.5c-3.5-32.6-34.7-66.6-107.7-66.7-51.8-.1-84.3 9.2-97.5 27.8s-19.8 63.9-19.8 136.3c0 69.9 7.3 113.8 21.8 131.8 14.6 18.1 50.2 27 106.8 27 44.6 0 73.2-6.2 85.9-18.6s15.4-31.3 19-66.5h129.4c-1.1 46.2-8.1 76.2-8.1 76.2-16 70-93.2 103.8-232.3 103.8-102 0-169.8-17-203.4-51.1-33.6-34-50.5-102.6-50.5-205.7M1284.5 154.4l-40 100.1h76.2zm72.3 200-30.6-84.4h-87.7l-33.9 84.4h-17.9l85.9-213.9h24.8l78.7 213.9zM1533.4 354.4l-113.2-202.5 1.3 20.3v182.2h-17.9V140.5h29.4l115.9 205.1-1-27.5V140.5h18.5v213.9zM1644.9 155.3v89.8h95.1v16.1h-95.1v93.2h-17.8V140.5h119.5v14.8z" class="st2"/><path d="m1284.5 411.3-39.9 100.2h76.2zm72.3 200-30.6-84.4h-87.7l-33.9 84.4h-17.8l85.9-213.9h24.8l78.6 213.9zM1495 615.2c-39.6 0-82.6-14.5-82.6-74.7V397.4h18.5v141c0 50.5 34.2 60.8 64.1 60.8 33.3 0 64.5-13.6 64.5-68.1V397.4h16.9v135c0 66.8-45.8 82.8-81.4 82.8M1702.1 413.5v197.8h-17.8V413.5h-74.8v-16.1h167.4v16.1zM1888.8 409.8c-57.5 0-88.1 40.9-88.1 93.8 0 51.1 29.3 95.8 85.9 95.8 59.6 0 89-41.7 89-95.3 0-53.4-31.8-94.3-86.8-94.3m-3 205.1c-64.2 0-102.6-46.6-102.6-111 0-66.9 44.5-109.5 108.3-109.5 66.6 0 102 48.1 102 110.2 0 64.7-41.2 110.3-107.7 110.3M2107.4 412.2h-41.5v94.5h34.2c33.9 0 60.5-9.4 60.5-46.6.1-35.8-19.3-47.9-53.2-47.9m74.4 199.1-61.1-89.8c-5.8 1.2-15.4 1.8-22.4 1.8h-32.4v88h-18.2V397.4h66.3c39.1 0 65.6 18.8 65.6 60.9 0 25.4-11.8 48.4-41.7 58.7l65 94.3zM2256.2 397.4h17.8v213.9h-17.8zM2398.1 412.9h-33.9v183h40c57.2 0 94.4-29.6 94.4-88.9-.1-64.5-41.9-94.1-100.5-94.1m2.7 198.4h-54.2V397.4h52.4c67.8 0 117.1 37.9 117.1 106.2-.1 75.3-45.4 107.7-115.3 107.7M2624.3 411.3l-39.9 100.2h76.2zm72.3 200-30.6-84.4h-87.7l-33.9 84.4h-17.9l85.9-213.9h24.8l78.7 213.9zM2806.6 412.9h-33.9v183h39.9c57.2 0 94.4-29.6 94.4-88.9.1-64.5-41.7-94.1-100.4-94.1m2.8 198.4h-54.1V397.4h52.3c67.8 0 117.1 37.9 117.1 106.2-.1 75.3-45.4 107.7-115.3 107.7M3090.9 412.9H3057v183h39.9c57.2 0 94.4-29.6 94.4-88.9.1-64.5-41.7-94.1-100.4-94.1m2.7 198.4h-54.1V397.4h52.3c67.8 0 117.1 37.9 117.1 106.2 0 75.3-45.4 107.7-115.3 107.7M3263.3 611.3V397.4h114.4v14.8h-96.5V496h89.9v15.7h-89.9v84.1h103.4v15.5zM1295.4 870.2c-68.7 0-108.6-46.6-108.6-108.6 0-65.7 39.4-110.7 107.4-110.7 40.6 0 58.7 9.1 60.5 9.7l-5.1 15.4c-5.4-1.7-23.3-8.8-54.7-8.8-46.3 0-89.2 24.5-89.2 91.4 0 69 44.4 95.8 95.3 95.8 19.7 0 39.9-4.2 50.2-7.5l4.8 14.8c-5 2.1-22.8 8.5-60.6 8.5M1399.7 867.1V653.2H1514V668h-96.5v83.8h89.9v15.7h-89.9v84.2H1521v15.4zM1633.2 668h-41.5v94.5h34.2c33.9 0 60.5-9.4 60.5-46.6.1-35.7-19.3-47.9-53.2-47.9m74.4 199.1-61.1-89.9c-5.8 1.3-15.4 1.8-22.4 1.8h-32.4v88h-18.1V653.2h66.2c39.1 0 65.6 18.8 65.6 60.8 0 25.4-11.8 48.4-41.7 58.7l65 94.3h-21.1zM1827.7 669.3v197.8h-17.9V669.3h-74.7v-16.1h167.3v16.1zM1939.8 653.2h17.9v213.9h-17.9zM2049.6 668v89.9h95.1v16h-95.1v93.2h-17.9V653.2h119.6V668zM2198.1 653.2h17.9v213.9h-17.9zM2380.2 870.2c-68.7 0-108.6-46.6-108.6-108.6 0-65.7 39.4-110.7 107.4-110.7 40.6 0 58.7 9.1 60.5 9.7l-5.1 15.4c-5.4-1.7-23.3-8.8-54.8-8.8-46.3 0-89.2 24.5-89.2 91.4 0 69 44.5 95.8 95.3 95.8 19.7 0 40-4.2 50.2-7.5l4.9 14.8c-4.9 2.1-22.7 8.5-60.6 8.5M2550.2 667.1l-40 100.2h76.3zm72.3 200-30.6-84.4h-87.8l-33.9 84.4h-17.8l85.9-213.9h24.8l78.7 213.9zM2764.3 870.2c-68.7 0-108.6-46.6-108.6-108.6 0-65.7 39.4-110.7 107.4-110.7 40.6 0 58.7 9.1 60.5 9.7l-5.2 15.4c-5.4-1.7-23.3-8.8-54.7-8.8-46.3 0-89.2 24.5-89.2 91.4 0 69 44.4 95.8 95.3 95.8 19.7 0 39.9-4.2 50.2-7.5l4.8 14.8c-4.8 2.1-22.7 8.5-60.5 8.5M2868.6 653.2h17.8v213.9h-17.8zM3338.1 867.1l-113.2-202.4 1.3 20.3v182.1h-17.9V653.2h29.3l115.9 205.2-.9-27.6V653.2h18.5v213.9zM3121.6 706.6c8.5 15 13 33.3 13 53.4 0 53.5-29.4 95.3-89 95.3-56.6 0-85.9-44.8-85.9-95.9 0-52.9 30.5-93.8 88-93.8 16 0 29.7 3.8 41.6 9.9l13-12.5c-14.4-8-31.5-13-51.8-13-63.8 0-108.3 42.7-108.3 109.5 0 64.5 38.4 111 102.6 111 66.5 0 107.7-45.7 107.7-110.4 0-24.8-5.9-47.2-17-65.4z" class="st0"/><path d="m3085 697.8 51.2-49.2 14.4 16-54.5 45.7z" class="st0"/></g></svg>