<svg xmlns="http://www.w3.org/2000/svg" fill="none" viewBox="0 0 189 48"><path fill="#fff" d="M164.295 1.707c-12.679 0-22.953 9.98-22.953 22.293s10.274 22.293 22.953 22.293c12.676 0 22.947-9.98 22.947-22.293S176.971 1.707 164.295 1.707"/><path fill="#018f26" d="M164.295 0c-13.649 0-24.711 10.742-24.711 24s11.06 24 24.711 24C177.941 48 189 37.258 189 24S177.941 0 164.295 0m-9.774 18.311v13.793h-2.646v-14.61c.032-.782.683-1.407 1.493-1.425h1.153zm13.743 13.793h-5.549c-.726-.026-1.325-.538-1.455-1.217v-7.92h2.646v6.926h4.02c5.465 0 7.174-2.85 7.174-5.67 0-2.55-1.363-5.94-7.284-5.94l-6.553.008v-.798c.035-.781.683-1.406 1.493-1.424h5.033c7.525 0 9.928 4.123 9.928 7.855-.006 3.422-1.585 8.18-9.453 8.18"/><path fill="#111319" d="M85.658 17.493v.787h16.459v-2.242h-14.96c-.822.018-1.48.658-1.5 1.455M13.425 24.23c-.098-.71-.71-1.258-1.461-1.284h-1.102v9.147h2.563zM24.427 31.653v-.008c.257.257.613.422 1.007.449h.438c.815-.019 1.471-.65 1.498-1.443V16.038h-2.535v12.198l-11.41-12.198h-2.563v1.004zM42.36 16.038h-5.054c-.802.015-1.444.634-1.477 1.408v.808h6.561c5.927 0 7.29 3.396 7.29 5.948 0 2.822-1.709 5.675-7.18 5.675h-4.025v-6.934H35.83v7.687c.014.795.664 1.435 1.48 1.464h5.53c7.878 0 9.46-4.763 9.46-8.191 0-3.735-2.406-7.865-9.939-7.865M0 17.462v14.632h2.649V16.038H1.493c-.81.018-1.46.642-1.493 1.424M87.159 22.943c-.821.016-1.483.656-1.499 1.456v6.242c.02.786.662 1.419 1.466 1.45h14.993v-2.242H88.306v-4.663l.003.002h13.813v-2.242H87.159zM63.399 29.851h13.81v2.243H62.246c-.81-.019-1.46-.643-1.493-1.425v-6.273c.019-.787.661-1.419 1.466-1.453h14.99v2.245H63.39zM60.75 18.28v-.792c.019-.787.661-1.419 1.466-1.45h14.99v2.242zM117.088 32.094h-5c-.832-.019-1.501-.675-1.501-1.488l-.03-7.66h2.649v6.931h3.915c5.924 0 7.29-3.396 7.29-5.948 0-2.822-1.709-5.675-7.179-5.675l-6.675.002v-.765c.019-.787.662-1.42 1.466-1.453h5.546c7.879 0 9.461 4.762 9.461 8.19 0 3.737-2.409 7.866-9.942 7.866"/></svg>