<svg version="1.2" xmlns="http://www.w3.org/2000/svg" viewBox="0 0 879 148">
	<title>Bloombase</title>
	<style>
		.s0 { fill: none } 
		.s1 { fill: #000000 } 
	</style>
	<g>
		<g>
			<g id="Layer_1">
			</g>
			<g id="Layer_2">
				<g>
					<path fill-rule="evenodd" class="s0" d="m878.7 147.4h-878.7v-147.4h878.7z"/>
					<g>
						<path fill-rule="evenodd" class="s1" d="m875.5 24.7c0 2.9-1 5.4-3.1 7.4-2 2.1-4.5 3.1-7.4 3.1-2.9 0-5.3-1-7.4-3-2-2.1-3.1-4.6-3.1-7.5 0-2.8 1.1-5.3 3.1-7.4 2-2 4.5-3.1 7.4-3.1 2.9 0 5.4 1.1 7.4 3.1 2.1 2.1 3.1 4.5 3.1 7.4zm-2 0c0-2.3-0.8-4.3-2.5-6q-2.4-2.4-6-2.4-3.5 0-5.9 2.5c-1.7 1.6-2.5 3.6-2.5 5.9 0 2.4 0.8 4.3 2.5 6 1.6 1.7 3.6 2.5 5.9 2.5q3.5 0 6-2.5c1.7-1.7 2.5-3.6 2.5-6z"/>
						<path fill-rule="evenodd" class="s1" d="m870.7 30.3h-2.8l-1.6-2.4q-0.9-1.3-1.2-1.7-0.3-0.3-0.7-0.4-0.4-0.2-1.1-0.2h-0.5v4.7h-2.3v-11.3h4.8q1.8 0 2.6 0.3 0.9 0.3 1.4 1.1 0.5 0.8 0.5 1.8 0 1.3-0.8 2.1-0.7 0.8-2.2 1.1 0.7 0.4 1.2 0.9 0.5 0.5 1.3 1.8zm-4.1-6.6q0.4-0.2 0.6-0.5 0.2-0.3 0.2-0.8 0-0.6-0.3-1-0.3-0.3-0.9-0.4-0.2-0.1-1.6-0.1h-1.8v2.9h1.7q1.7 0 2.1-0.1z"/>
						<path fill-rule="evenodd" class="s1" d="m125.1 101.5c0 8.4-2.2 15.2-6.5 20.2-4.1 4.7-9.2 8.3-15.2 10.7-5.8 2.3-12.1 3.8-18.7 4.4-6.4 0.6-12.4 0.9-17.7 0.9h-40.3v-105.2c0-3.4-0.5-5.4-0.9-6.4q-0.7-1.7-1.9-2.5-1.5-0.9-4-1.2c-2.2-0.3-4.5-0.5-7.1-0.5h-4.1v-11.8h55.2c4 0 8.8 0.1 14.7 0.4 6 0.4 11.9 1.5 17.5 3.4 5.9 2 11 5.2 15.1 9.6 4.5 4.6 6.8 11.2 6.8 19.4 0 5.2-1 9.7-3 13.4-1.9 3.6-4.3 6.6-7.1 8.9q-2.6 2.3-5.6 3.9c3.9 1.4 7.5 3.5 10.8 6 3.5 2.7 6.4 6.3 8.6 10.6 2.2 4.4 3.4 9.7 3.4 15.8zm-41.8-72c-2.4-1.5-5.2-2.5-8.4-3.1-3.5-0.7-7.2-1.1-11-1.1-3.1 0-5.5 0.2-7.2 0.4q-1.4 0.3-2 0.9c-0.4 0.4-0.7 1.2-0.8 2.3-0.3 1.7-0.4 4.2-0.4 7.4v26.6h5.4c3 0 6.6-0.1 10.4-0.3 3.7-0.2 7.1-1 10.4-2.2 3-1.2 5.5-3 7.6-5.6 2-2.4 2.9-5.9 2.9-10.7 0-3.8-0.6-6.9-1.9-9.2-1.2-2.3-2.9-4.1-5-5.4zm-29.8 82q0 4.9 0.3 7.6c0 0.6 0.2 1.5 0.7 2 0.3 0.3 1.3 0.7 2.9 0.9 2.2 0.3 5.4 0.4 9.6 0.4 4 0 7.9-0.4 11.7-1.1 3.6-0.8 6.9-2 9.7-3.7 2.7-1.5 4.8-3.6 6.5-6.3 1.6-2.5 2.4-5.8 2.4-9.8 0-5.5-1.1-9.8-3.3-12.6-2.4-3.2-5.3-5.4-8.9-7-3.8-1.7-8-2.7-12.5-3.1-4.9-0.4-9.5-0.6-13.7-0.6h-5.4c0 0 0 33.3 0 33.3z"/>
						<path class="s1" d="m197.6 103.1h-2.1-3.3l-0.7 3.3-1.3 5.8q-0.9 3.7-2 6.1c-0.6 1.3-1.3 2.3-2.2 3.1q-1.4 1.2-3.9 1.8c-1.9 0.5-4.4 0.7-7.6 0.7h-10.9q-3.6 0-5.5-0.2c-0.7-0.1-1.1-0.2-1.2-0.3q-0.1-0.1-0.1-0.3c-0.1-0.6-0.2-1.8-0.2-4v-65.4-14.4-4.1h-4.2-28.8-4.2v4.1 2.8 4.2h4.2q3 0 5.4 0.3 1.8 0.2 2.9 0.9 0.7 0.4 1.2 1.6c0.2 0.7 0.6 2.1 0.6 4.6v79.9 4.1h4.1 58.5 4l0.2-3.9 1.3-26.3 0.2-4.4z"/>
						<path fill-rule="evenodd" class="s1" d="m293.7 86.4c0 7.2-0.8 14-2.2 20.2-1.5 6.4-4 12.1-7.6 16.9-3.6 4.8-8.5 8.7-14.5 11.5-5.9 2.8-13.4 4.1-22.1 4.1-8.8 0-16.2-1.3-22.2-4.1-6-2.8-10.9-6.6-14.5-11.5-3.5-4.8-6.1-10.5-7.6-16.9-1.4-6.2-2.1-13-2.1-20.2 0-7.1 0.7-13.9 2.1-20.1 1.5-6.5 4-12.2 7.6-17 3.6-4.9 8.5-8.8 14.6-11.5 5.9-2.7 13.3-4.1 22.1-4.1 8.7 0 16.1 1.4 22.1 4.1 6 2.7 10.9 6.6 14.5 11.5 3.6 4.8 6.1 10.5 7.6 17 1.4 6.2 2.2 13 2.2 20.1zm-28.4 28c1.7-3.6 2.7-7.8 3.1-12.4 0.5-5 0.8-10.2 0.8-15.6 0-5.3-0.3-10.5-0.8-15.5-0.4-4.7-1.4-8.8-3-12.5-1.5-3.3-3.5-5.9-6.3-8-2.7-1.9-6.5-2.8-11.5-2.8-5 0-8.9 0.9-11.6 2.9-2.9 2-5 4.6-6.6 8-1.7 3.6-2.8 7.8-3.3 12.5-0.5 4.9-0.8 10.1-0.8 15.4 0 5.4 0.3 10.6 0.8 15.6 0.4 4.6 1.5 8.8 3.1 12.4 1.5 3.4 3.6 6 6.5 8 2.7 2 6.6 2.9 11.6 2.9 4.9 0 8.9-0.9 11.6-2.9 2.8-2 4.9-4.6 6.4-8z"/>
						<path fill-rule="evenodd" class="s1" d="m386.2 86.4c0 7.2-0.7 14-2.1 20.2-1.5 6.4-4.1 12.1-7.6 16.9-3.7 4.8-8.6 8.7-14.6 11.5-5.9 2.8-13.3 4.1-22.1 4.1-8.7 0-16.2-1.3-22.1-4.1-6-2.8-10.9-6.7-14.5-11.5-3.6-4.8-6.1-10.5-7.6-16.9-1.5-6.2-2.2-13-2.2-20.2 0-7.1 0.7-13.9 2.2-20.1 1.4-6.5 4-12.2 7.5-17 3.7-4.9 8.6-8.8 14.6-11.5 5.9-2.7 13.4-4.1 22.1-4.1 8.7 0 16.2 1.4 22.1 4.1 6 2.7 10.9 6.6 14.6 11.5 3.5 4.8 6.1 10.5 7.6 17 1.4 6.2 2.1 13 2.1 20.1zm-28.3 28c1.6-3.6 2.7-7.8 3.1-12.4 0.5-5 0.7-10.2 0.7-15.6 0-5.3-0.2-10.5-0.7-15.5-0.4-4.7-1.5-8.9-3-12.5-1.5-3.3-3.6-5.9-6.4-8-2.6-1.9-6.5-2.8-11.5-2.8-5 0-8.9 0.9-11.6 2.9-2.8 2-5 4.6-6.6 8-1.6 3.6-2.7 7.8-3.2 12.5-0.5 4.9-0.8 10.2-0.8 15.4 0 5.4 0.2 10.6 0.7 15.6 0.5 4.7 1.5 8.8 3.1 12.4 1.5 3.4 3.6 6 6.5 8 2.7 2 6.6 2.9 11.6 2.9 5 0 8.9-0.9 11.6-2.9 2.9-2 5-4.6 6.5-8z"/>
						<path fill-rule="evenodd" class="s1" d="m597.9 108.3c0 6.8-1.8 12.4-5.3 16.5-3.3 3.8-7.5 6.7-12.3 8.7-4.6 1.8-9.7 3-15 3.5-5 0.5-9.8 0.7-14.1 0.7h-32.6v-84c0-2.5-0.4-3.9-0.7-4.6q-0.5-1.2-1.2-1.6-1-0.7-2.8-0.9-2.5-0.3-5.4-0.3h-4.2v-11.1h44.4c3.2 0 7 0.1 11.7 0.3 4.9 0.3 9.6 1.2 14.1 2.7 4.8 1.6 8.9 4.3 12.3 7.8 3.7 3.8 5.6 9.2 5.6 16 0 4.2-0.9 7.9-2.5 11-1.5 2.9-3.5 5.3-5.8 7.3q-1.5 1.2-3.1 2.2 3.9 1.7 7.2 4.2c2.8 2.3 5.2 5.2 7 8.7 1.8 3.5 2.7 7.9 2.7 12.8zm-29.2-45.3q0-4.3-1.4-6.8c-0.9-1.7-2.1-3-3.7-4q-2.6-1.7-6.3-2.4c-2.7-0.5-5.5-0.7-8.6-0.7q-3.6 0-5.4 0.3c-0.6 0-1 0.2-1.2 0.4-0.1 0.1-0.3 0.6-0.4 1.3q-0.3 2-0.3 5.7v20.2h3.4c2.3 0 5.1-0.1 8.2-0.2 2.8-0.2 5.5-0.8 7.9-1.8 2.3-0.8 4.1-2.2 5.7-4.1 1.4-1.7 2.1-4.3 2.1-7.9zm-1 57.3c2-1.1 3.6-2.7 4.8-4.7 1.2-1.8 1.8-4.3 1.8-7.3 0-4.1-0.9-7.3-2.5-9.4-1.7-2.3-3.9-4-6.6-5.2-2.9-1.3-6.1-2.1-9.6-2.4-3.8-0.3-7.5-0.5-10.8-0.5h-3.4v25.5c0 2.5 0.1 4.5 0.2 5.8 0.1 0.7 0.3 1 0.4 1.1 0 0 0.4 0.3 1.8 0.5 1.7 0.2 4.2 0.3 7.4 0.3 3.1 0 6.2-0.3 9.1-0.9 2.7-0.5 5.2-1.5 7.4-2.8z"/>
						<path class="s1" d="m498.9 35.2h-19.5-2.8l-1 2.6-28.3 71.3-28.4-71.3-1-2.6h-2.8-34.1-4.1v4.1 2.8 4.2h4.1q3 0 5.4 0.3 1.8 0.2 2.9 0.9 0.7 0.4 1.1 1.5c0.3 0.8 0.7 2.1 0.7 4.7v79.9 4.1h4.1 9.4 4.1v-4.1-65.2l26.4 66.7 1.1 2.6h2.8 11.9 2.9l1-2.6 26.4-66.7v65.2 4.1h4.1 13.6 4.2v-4.1-94.3-4.1c0 0-4.2 0-4.2 0z"/>
						<path fill-rule="evenodd" class="s1" d="m695.2 137.6h-24.2l-1.1-2.4c-1.3-3-2.6-5.7-3.6-8.2 0 0-3.2-7.5-3.2-7.5 0 0-3.2-7.5-3.2-7.5l-2.4-5.6h-35.6c-8.4 20.1-10.9 26.2-11.6 27.9v3.4h-20.8l3-5.9c0.6-1.2 1.3-2.8 2.2-4.9 0 0 3.8-8.8 3.8-8.9l6.9-15.5c0 0 10.6-23.9 10.6-23.9l14.6-33.3c-1-0.2-2.8-0.4-6.1-0.4h-4.1v-11.2h27.1c0 0 2.7 0 2.7 0l1.1 2.5c0 0 12.7 29.1 12.7 29.2 0 0 9.7 22.5 9.7 22.5l7.4 16.8c0 0 5.2 12 5.2 11.9 3.3 7.4 5.6 12.7 6.6 15.3zm-45-103.9q0 0 0 0zm-10.4 30.5l-12.1 28.5h24z"/>
						<path class="s1" d="m770.9 98.1c-1.2-2.9-3-5.5-5.2-7.9-2.2-2.2-4.7-4.2-7.6-6.1-2.7-1.7-5.9-3.4-9.2-5-3.7-1.9-7.6-3.6-11.6-5.2-3.8-1.5-7.3-3.1-10.5-4.8-3-1.5-5.4-3.3-7.3-5.2-1.4-1.4-2-3-2-5.1 0-1.6 0.3-2.9 1.1-4.2q1.3-2.1 3.4-3.7 2.2-1.6 5.2-2.4c2.1-0.6 4.4-0.9 6.7-0.9 4 0 7.3 0.4 9.9 1.2 2.6 0.9 4.7 1.9 6.4 3.2q2.3 1.8 3.6 4 1.2 2.3 1.6 4.4c0-0.1 1.2 7.2 1.2 7.2l0.5 3.4h3.6 3.4 4.4l-0.3-4.3-1.6-26.7-0.2-3.2-3.2-0.6c-3.7-0.6-7.6-1.2-11.5-1.7-4.1-0.5-9-0.8-14.6-0.8-5.4 0-10.5 0.5-15.3 1.5-4.9 1-9.2 2.5-12.9 4.7-4 2.3-7.1 5.2-9.3 8.8-2.4 3.7-3.5 8.1-3.5 13.1 0 5.3 1 9.7 3.2 13.2 2.1 3.4 5.2 6.4 9.2 9.2 4.1 2.7 8.7 5.1 13.9 7.2 4.7 1.9 9.3 4 13.5 6.1 4 2 7.4 4.2 10.1 6.6 2.2 1.9 3.1 4 3.1 6.7 0 1.8-0.4 3.4-1.2 5-0.9 1.7-2.1 3.1-3.7 4.4-1.6 1.2-3.7 2.3-6.1 3.1-2.5 0.8-5.4 1.2-8.6 1.2-3.9 0-7.3-0.4-10.1-1.3-2.8-0.9-5.1-1.9-6.9-3.2q-2.4-1.8-3.7-4-1.4-2.3-1.7-4.3c0 0-1.2-7.1-1.2-7.1l-0.5-3.5h-3.6-3.4-4.4l0.3 4.4 1.6 27.1 0.2 3.5 3.5 0.3q1.3 0.2 4.3 0.6c2 0.4 4.3 0.7 7.1 1 2.5 0.3 5.4 0.5 8.4 0.8 3 0.2 6 0.3 8.8 0.3 5.9 0 11.5-0.5 16.6-1.7 5.4-1.2 10.1-3 14.1-5.3 4.2-2.6 7.6-5.8 10.1-9.6 2.5-3.9 3.8-8.7 3.8-14 0-3.9-0.6-7.4-1.9-10.4z"/>
						<path fill-rule="evenodd" class="s1" d="m849.5 110.8h-4.1-3.2l-0.8 3.1c-0.9 3.9-2.4 6.5-4.5 7.8-1.5 1-4.8 2.2-11.6 2.2h-15.7q-2.9 0-4.3-0.2-0.1 0-0.1 0c-0.1-0.2-0.2-0.7-0.3-1.4-0.1-1.5-0.2-3.6-0.2-6.1v-25h12.6c5.8 0 8 1.1 8.8 1.8 1.3 1.2 1.9 3.1 1.9 5.9v4.1h4.2 3.4 4.1v-4.1-29.3-4.1h-4.1-3.4-4.2v4.1c0 2.4-0.3 3.9-0.6 4.7q-0.4 1.1-1.1 1.6c-0.4 0.3-1.2 0.7-2.8 1q-2.5 0.4-6.2 0.5h-12.6v-20.7q0-3.5 0.2-5.7c0.1-0.9 0.3-1.4 0.4-1.7q0 0 0.2 0c0.6-0.2 1.9-0.3 4.1-0.3h14.4c6.3 0 9.5 1.1 11 2 1.9 1.2 3.2 3.4 3.9 6.6 0 0 2 9.2 2 9.2l0.7 3.3h3.3 2.8 4.5l-0.3-4.5-1.8-26.6-0.3-3.8h-3.9-74.2-4.1v4.1 2.8 4.2h4.1q3 0 5.5 0.3 1.8 0.2 2.8 0.9 0.7 0.4 1.2 1.6c0.3 0.7 0.6 2.1 0.6 4.6v79.9 4.1h4.2 62.4 3.9l0.2-3.9 1.2-18.7 0.2-4.3zm-44.2 13q0 0 0 0 0 0 0 0z"/>
					</g>
				</g>
			</g>
		</g>
	</g>
</svg>
