<svg xmlns="http://www.w3.org/2000/svg" viewBox="0 0 879 148"><title>Bloombase</title><style>.s1{fill:#000}</style><g id="Layer_2"><path fill-rule="evenodd" d="M878.7 147.4H0V0h878.7z" style="fill:none"/><path fill-rule="evenodd" d="M875.5 24.7c0 2.9-1 5.4-3.1 7.4-2 2.1-4.5 3.1-7.4 3.1s-5.3-1-7.4-3c-2-2.1-3.1-4.6-3.1-7.5 0-2.8 1.1-5.3 3.1-7.4 2-2 4.5-3.1 7.4-3.1s5.4 1.1 7.4 3.1c2.1 2.1 3.1 4.5 3.1 7.4m-2 0c0-2.3-.8-4.3-2.5-6q-2.4-2.4-6-2.4-3.5 0-5.9 2.5c-1.7 1.6-2.5 3.6-2.5 5.9 0 2.4.8 4.3 2.5 6 1.6 1.7 3.6 2.5 5.9 2.5q3.5 0 6-2.5c1.7-1.7 2.5-3.6 2.5-6" class="s1"/><path fill-rule="evenodd" d="M870.7 30.3h-2.8l-1.6-2.4q-.9-1.3-1.2-1.7-.3-.3-.7-.4-.4-.2-1.1-.2h-.5v4.7h-2.3V19h4.8q1.8 0 2.6.3.9.3 1.4 1.1t.5 1.8q0 1.3-.8 2.1-.7.8-2.2 1.1.7.4 1.2.9t1.3 1.8zm-4.1-6.6q.4-.2.6-.5t.2-.8q0-.6-.3-1-.3-.3-.9-.4-.2-.1-1.6-.1h-1.8v2.9h1.7q1.7 0 2.1-.1M125.1 101.5c0 8.4-2.2 15.2-6.5 20.2-4.1 4.7-9.2 8.3-15.2 10.7-5.8 2.3-12.1 3.8-18.7 4.4-6.4.6-12.4.9-17.7.9H26.7V32.5c0-3.4-.5-5.4-.9-6.4q-.7-1.7-1.9-2.5-1.5-.9-4-1.2c-2.2-.3-4.5-.5-7.1-.5H8.7V10.1h55.2c4 0 8.8.1 14.7.4 6 .4 11.9 1.5 17.5 3.4 5.9 2 11 5.2 15.1 9.6 4.5 4.6 6.8 11.2 6.8 19.4 0 5.2-1 9.7-3 13.4-1.9 3.6-4.3 6.6-7.1 8.9q-2.6 2.3-5.6 3.9c3.9 1.4 7.5 3.5 10.8 6 3.5 2.7 6.4 6.3 8.6 10.6 2.2 4.4 3.4 9.7 3.4 15.8m-41.8-72c-2.4-1.5-5.2-2.5-8.4-3.1-3.5-.7-7.2-1.1-11-1.1-3.1 0-5.5.2-7.2.4q-1.4.3-2 .9c-.4.4-.7 1.2-.8 2.3-.3 1.7-.4 4.2-.4 7.4v26.6h5.4c3 0 6.6-.1 10.4-.3 3.7-.2 7.1-1 10.4-2.2 3-1.2 5.5-3 7.6-5.6 2-2.4 2.9-5.9 2.9-10.7 0-3.8-.6-6.9-1.9-9.2-1.2-2.3-2.9-4.1-5-5.4m-29.8 82q0 4.9.3 7.6c0 .6.2 1.5.7 2 .3.3 1.3.7 2.9.9 2.2.3 5.4.4 9.6.4 4 0 7.9-.4 11.7-1.1 3.6-.8 6.9-2 9.7-3.7 2.7-1.5 4.8-3.6 6.5-6.3 1.6-2.5 2.4-5.8 2.4-9.8 0-5.5-1.1-9.8-3.3-12.6-2.4-3.2-5.3-5.4-8.9-7-3.8-1.7-8-2.7-12.5-3.1-4.9-.4-9.5-.6-13.7-.6h-5.4z" class="s1"/><path d="M197.6 103.1h-5.4l-.7 3.3-1.3 5.8q-.9 3.7-2 6.1c-.6 1.3-1.3 2.3-2.2 3.1q-1.4 1.2-3.9 1.8c-1.9.5-4.4.7-7.6.7h-10.9q-3.6 0-5.5-.2-1.05-.15-1.2-.3-.1-.1-.1-.3c-.1-.6-.2-1.8-.2-4V35.2h-37.2v11.1h4.2q3 0 5.4.3 1.8.2 2.9.9.7.4 1.2 1.6c.2.7.6 2.1.6 4.6v84h66.6l.2-3.9 1.3-26.3.2-4.4z" class="s1"/><path fill-rule="evenodd" d="M293.7 86.4c0 7.2-.8 14-2.2 20.2-1.5 6.4-4 12.1-7.6 16.9s-8.5 8.7-14.5 11.5c-5.9 2.8-13.4 4.1-22.1 4.1-8.8 0-16.2-1.3-22.2-4.1s-10.9-6.6-14.5-11.5c-3.5-4.8-6.1-10.5-7.6-16.9-1.4-6.2-2.1-13-2.1-20.2 0-7.1.7-13.9 2.1-20.1 1.5-6.5 4-12.2 7.6-17 3.6-4.9 8.5-8.8 14.6-11.5 5.9-2.7 13.3-4.1 22.1-4.1 8.7 0 16.1 1.4 22.1 4.1s10.9 6.6 14.5 11.5c3.6 4.8 6.1 10.5 7.6 17 1.4 6.2 2.2 13 2.2 20.1m-28.4 28c1.7-3.6 2.7-7.8 3.1-12.4.5-5 .8-10.2.8-15.6 0-5.3-.3-10.5-.8-15.5-.4-4.7-1.4-8.8-3-12.5-1.5-3.3-3.5-5.9-6.3-8-2.7-1.9-6.5-2.8-11.5-2.8s-8.9.9-11.6 2.9c-2.9 2-5 4.6-6.6 8-1.7 3.6-2.8 7.8-3.3 12.5-.5 4.9-.8 10.1-.8 15.4 0 5.4.3 10.6.8 15.6.4 4.6 1.5 8.8 3.1 12.4 1.5 3.4 3.6 6 6.5 8 2.7 2 6.6 2.9 11.6 2.9 4.9 0 8.9-.9 11.6-2.9 2.8-2 4.9-4.6 6.4-8" class="s1"/><path fill-rule="evenodd" d="M386.2 86.4c0 7.2-.7 14-2.1 20.2-1.5 6.4-4.1 12.1-7.6 16.9-3.7 4.8-8.6 8.7-14.6 11.5-5.9 2.8-13.3 4.1-22.1 4.1-8.7 0-16.2-1.3-22.1-4.1-6-2.8-10.9-6.7-14.5-11.5s-6.1-10.5-7.6-16.9c-1.5-6.2-2.2-13-2.2-20.2 0-7.1.7-13.9 2.2-20.1 1.4-6.5 4-12.2 7.5-17 3.7-4.9 8.6-8.8 14.6-11.5 5.9-2.7 13.4-4.1 22.1-4.1s16.2 1.4 22.1 4.1c6 2.7 10.9 6.6 14.6 11.5 3.5 4.8 6.1 10.5 7.6 17 1.4 6.2 2.1 13 2.1 20.1m-28.3 28c1.6-3.6 2.7-7.8 3.1-12.4.5-5 .7-10.2.7-15.6 0-5.3-.2-10.5-.7-15.5-.4-4.7-1.5-8.9-3-12.5-1.5-3.3-3.6-5.9-6.4-8-2.6-1.9-6.5-2.8-11.5-2.8s-8.9.9-11.6 2.9c-2.8 2-5 4.6-6.6 8-1.6 3.6-2.7 7.8-3.2 12.5-.5 4.9-.8 10.2-.8 15.4 0 5.4.2 10.6.7 15.6.5 4.7 1.5 8.8 3.1 12.4 1.5 3.4 3.6 6 6.5 8 2.7 2 6.6 2.9 11.6 2.9s8.9-.9 11.6-2.9c2.9-2 5-4.6 6.5-8M597.9 108.3c0 6.8-1.8 12.4-5.3 16.5-3.3 3.8-7.5 6.7-12.3 8.7-4.6 1.8-9.7 3-15 3.5-5 .5-9.8.7-14.1.7h-32.6v-84c0-2.5-.4-3.9-.7-4.6q-.5-1.2-1.2-1.6-1-.7-2.8-.9-2.5-.3-5.4-.3h-4.2V35.2h44.4c3.2 0 7 .1 11.7.3q7.35.45 14.1 2.7c4.8 1.6 8.9 4.3 12.3 7.8 3.7 3.8 5.6 9.2 5.6 16 0 4.2-.9 7.9-2.5 11-1.5 2.9-3.5 5.3-5.8 7.3q-1.5 1.2-3.1 2.2 3.9 1.7 7.2 4.2c2.8 2.3 5.2 5.2 7 8.7s2.7 7.9 2.7 12.8zM568.7 63q0-4.3-1.4-6.8c-.9-1.7-2.1-3-3.7-4q-2.6-1.7-6.3-2.4c-2.7-.5-5.5-.7-8.6-.7q-3.6 0-5.4.3c-.6 0-1 .2-1.2.4-.1.1-.3.6-.4 1.3q-.3 2-.3 5.7V77h3.4c2.3 0 5.1-.1 8.2-.2 2.8-.2 5.5-.8 7.9-1.8 2.3-.8 4.1-2.2 5.7-4.1 1.4-1.7 2.1-4.3 2.1-7.9m-1 57.3c2-1.1 3.6-2.7 4.8-4.7 1.2-1.8 1.8-4.3 1.8-7.3 0-4.1-.9-7.3-2.5-9.4-1.7-2.3-3.9-4-6.6-5.2q-4.35-1.95-9.6-2.4c-3.8-.3-7.5-.5-10.8-.5h-3.4v25.5c0 2.5.1 4.5.2 5.8.1.7.3 1 .4 1.1 0 0 .4.3 1.8.5 1.7.2 4.2.3 7.4.3 3.1 0 6.2-.3 9.1-.9 2.7-.5 5.2-1.5 7.4-2.8" class="s1"/><path d="M498.9 35.2h-22.3l-1 2.6-28.3 71.3-28.4-71.3-1-2.6h-41v11.1h4.1q3 0 5.4.3 1.8.2 2.9.9.7.4 1.1 1.5c.3.8.7 2.1.7 4.7v84h17.6V68.4l26.4 66.7 1.1 2.6h17.6l1-2.6 26.4-66.7v69.3h21.9V35.2z" class="s1"/><path fill-rule="evenodd" d="M695.2 137.6H671l-1.1-2.4c-1.3-3-2.6-5.7-3.6-8.2l-3.2-7.5-3.2-7.5-2.4-5.6h-35.6c-8.4 20.1-10.9 26.2-11.6 27.9v3.4h-20.8l3-5.9c.6-1.2 1.3-2.8 2.2-4.9 0 0 3.8-8.8 3.8-8.9l6.9-15.5L616 78.6l14.6-33.3c-1-.2-2.8-.4-6.1-.4h-4.1V33.7h29.8l1.1 2.5S664 65.3 664 65.4l9.7 22.5 7.4 16.8s5.2 12 5.2 11.9c3.3 7.4 5.6 12.7 6.6 15.3zm-55.4-73.4-12.1 28.5h24z" class="s1"/><path d="M770.9 98.1c-1.2-2.9-3-5.5-5.2-7.9-2.2-2.2-4.7-4.2-7.6-6.1-2.7-1.7-5.9-3.4-9.2-5-3.7-1.9-7.6-3.6-11.6-5.2q-5.7-2.25-10.5-4.8c-3-1.5-5.4-3.3-7.3-5.2-1.4-1.4-2-3-2-5.1 0-1.6.3-2.9 1.1-4.2q1.3-2.1 3.4-3.7 2.2-1.6 5.2-2.4c2.1-.6 4.4-.9 6.7-.9q6 0 9.9 1.2c2.6.9 4.7 1.9 6.4 3.2q2.3 1.8 3.6 4 1.2 2.3 1.6 4.4c0-.1 1.2 7.2 1.2 7.2l.5 3.4h11.4l-.3-4.3-1.6-26.7-.2-3.2-3.2-.6c-3.7-.6-7.6-1.2-11.5-1.7-4.1-.5-9-.8-14.6-.8q-8.1 0-15.3 1.5c-4.9 1-9.2 2.5-12.9 4.7-4 2.3-7.1 5.2-9.3 8.8-2.4 3.7-3.5 8.1-3.5 13.1 0 5.3 1 9.7 3.2 13.2 2.1 3.4 5.2 6.4 9.2 9.2 4.1 2.7 8.7 5.1 13.9 7.2 4.7 1.9 9.3 4 13.5 6.1 4 2 7.4 4.2 10.1 6.6 2.2 1.9 3.1 4 3.1 6.7 0 1.8-.4 3.4-1.2 5-.9 1.7-2.1 3.1-3.7 4.4-1.6 1.2-3.7 2.3-6.1 3.1-2.5.8-5.4 1.2-8.6 1.2-3.9 0-7.3-.4-10.1-1.3s-5.1-1.9-6.9-3.2q-2.4-1.8-3.7-4-1.4-2.3-1.7-4.3l-1.2-7.1-.5-3.5H694l.3 4.4 1.6 27.1.2 3.5 3.5.3q1.3.2 4.3.6c2 .4 4.3.7 7.1 1 2.5.3 5.4.5 8.4.8 3 .2 6 .3 8.8.3 5.9 0 11.5-.5 16.6-1.7 5.4-1.2 10.1-3 14.1-5.3 4.2-2.6 7.6-5.8 10.1-9.6 2.5-3.9 3.8-8.7 3.8-14 0-3.9-.6-7.4-1.9-10.4" class="s1"/><path fill-rule="evenodd" d="M849.5 110.8h-7.3l-.8 3.1q-1.35 5.85-4.5 7.8c-1.5 1-4.8 2.2-11.6 2.2h-15.7q-2.9 0-4.3-.2h-.1c-.1-.2-.2-.7-.3-1.4-.1-1.5-.2-3.6-.2-6.1v-25h12.6c5.8 0 8 1.1 8.8 1.8 1.3 1.2 1.9 3.1 1.9 5.9v4.1h11.7V65.5H828v4.1c0 2.4-.3 3.9-.6 4.7q-.4 1.1-1.1 1.6c-.4.3-1.2.7-2.8 1q-2.5.4-6.2.5h-12.6V56.7q0-3.5.2-5.7c.1-.9.3-1.4.4-1.7h.2c.6-.2 1.9-.3 4.1-.3H824c6.3 0 9.5 1.1 11 2q2.85 1.8 3.9 6.6l2 9.2.7 3.3h10.6l-.3-4.5-1.8-26.6-.3-3.8h-82.2v11.1h4.1q3 0 5.5.3 1.8.2 2.8.9.7.4 1.2 1.6c.3.7.6 2.1.6 4.6v84h70.5l.2-3.9 1.2-18.7.2-4.3zm-44.2 13" class="s1"/></g></svg>