<?xml version="1.0" encoding="UTF-8"?>
<!DOCTYPE svg PUBLIC "-//W3C//DTD SVG 1.1//EN" "http://www.w3.org/Graphics/SVG/1.1/DTD/svg11.dtd">
<!-- Creator: CorelDRAW X5 -->
<svg xmlns="http://www.w3.org/2000/svg" xml:space="preserve" width="4.01628in" height="1.25141in" style="shape-rendering:geometricPrecision; text-rendering:geometricPrecision; image-rendering:optimizeQuality; fill-rule:evenodd; clip-rule:evenodd"
viewBox="0 0 3871 1206"
 xmlns:xlink="http://www.w3.org/1999/xlink">
 <defs>
  <style type="text/css">
   <![CDATA[
    .fil1 {fill:#2D097D}
    .fil0 {fill:#2D097D;fill-rule:nonzero}
   ]]>
  </style>
 </defs>
 <g id="Layer_x0020_3">
  <metadata id="CorelCorpID_0Corel-Layer"/>
  <g id="_217356376">
   <g>
    <path class="fil0" d="M2356 1043l-41 14c-5,-16 -17,-24 -35,-24 -19,0 -29,6 -29,18 0,5 2,9 5,12 4,3 12,6 24,9 21,4 36,8 46,13 10,4 18,11 25,21 7,10 10,20 10,32 0,19 -7,35 -21,48 -14,14 -35,20 -63,20 -21,0 -39,-5 -54,-14 -15,-10 -25,-24 -29,-43l44 -10c5,19 19,29 42,29 11,0 19,-2 25,-6 5,-4 8,-9 8,-15 0,-6 -2,-11 -7,-14 -5,-3 -14,-6 -28,-9 -26,-5 -45,-13 -56,-22 -11,-9 -17,-23 -17,-41 0,-18 7,-34 20,-46 13,-13 31,-19 54,-19 40,0 66,16 78,48z"/>
    <polygon class="fil0" points="2587,1037 2490,1037 2490,1079 2567,1079 2567,1118 2490,1118 2490,1162 2587,1162 2587,1203 2441,1203 2441,998 2587,998 "/>
    <path class="fil0" d="M2818 1074l-50 3c-1,-29 -12,-43 -34,-43 -25,0 -38,22 -38,67 0,26 3,43 10,52 7,9 16,14 29,14 20,0 32,-13 36,-39l47 3c-3,25 -12,43 -27,56 -15,13 -34,19 -56,19 -27,0 -49,-9 -66,-28 -17,-19 -25,-45 -25,-78 0,-31 8,-56 25,-76 16,-20 39,-30 67,-30 49,0 77,27 83,80z"/>
    <path class="fil0" d="M3049 998l0 128c0,21 -2,36 -7,46 -5,10 -13,18 -26,25 -13,6 -29,10 -49,10 -20,0 -35,-3 -47,-9 -12,-6 -20,-14 -26,-25 -6,-11 -9,-26 -9,-47l0 -128 52 0 0 128c0,11 1,19 3,24 2,5 6,9 11,12 6,3 12,5 21,5 9,0 16,-2 22,-5 6,-3 9,-7 11,-12 2,-5 3,-13 3,-25l0 -128 41 0z"/>
    <path class="fil0" d="M3177 1034l0 52 29 0c10,0 17,-1 21,-2 4,-1 8,-4 12,-9 3,-5 5,-10 5,-16 0,-6 -2,-11 -5,-15 -3,-5 -7,-7 -11,-8 -4,-1 -12,-2 -23,-2l-28 0zm0 87l0 81 -48 0 0 -205 90 0c17,0 30,2 40,6 10,4 18,11 25,21 7,10 10,22 10,34 0,25 -12,42 -36,53l38 91 -53 0 -32 -81 -34 0z"/>
    <polygon class="fil0" points="3427,1203 3379,1203 3379,998 3427,998 "/>
    <polygon class="fil0" points="3647,998 3647,1038 3596,1038 3596,1203 3547,1203 3547,1038 3496,1038 3496,998 "/>
    <polygon class="fil0" points="3871,998 3807,1117 3807,1203 3759,1203 3759,1117 3694,998 3750,998 3789,1076 3828,998 "/>
   </g>
   <path class="fil0" d="M957 382c-5,4 -12,4 -16,-1 -32,-31 -87,-60 -143,-60 -165,0 -190,157 -190,210 0,52 24,209 190,209 58,0 110,-28 146,-58 5,-4 12,-4 16,2l32 40c4,6 3,13 -2,18 -48,44 -109,71 -193,71 -209,0 -271,-164 -271,-282 0,-114 62,-281 271,-281 88,0 147,31 195,80 5,5 4,13 -1,16l-35 35z"/>
   <path class="fil0" d="M1510 382c-5,4 -12,4 -16,-1 -32,-31 -87,-60 -143,-60 -165,0 -190,157 -190,210 0,52 24,209 190,209 58,0 110,-28 146,-58 5,-4 12,-4 16,2l32 40c4,6 3,13 -2,18 -48,44 -109,71 -193,71 -209,0 -271,-164 -271,-282 0,-114 62,-281 271,-281 88,0 147,31 195,80 5,5 4,13 -1,16l-35 35z"/>
   <path class="fil0" d="M2016 598l0 -328c0,-6 6,-12 12,-12l58 0c6,0 12,5 12,12l0 328c0,91 -56,214 -214,214 -158,0 -213,-123 -213,-214l0 -328c0,-6 5,-12 12,-12l56 0c6,0 12,5 12,12l0 328c0,38 27,144 133,144 107,0 132,-106 132,-144z"/>
   <path class="fil0" d="M2363 328l-147 0c-6,0 -12,-5 -12,-12l0 -47c0,-6 5,-12 12,-12l377 0c6,0 12,5 12,12l0 47c0,6 -5,12 -12,12l-149 0 0 466c0,6 -6,12 -12,12l-57 0c-6,0 -12,-5 -12,-12l0 -466z"/>
   <path class="fil0" d="M2798 794c0,6 -5,12 -12,12l-57 0c-6,0 -12,-5 -12,-12l0 -525c0,-6 5,-12 12,-12l57 0c6,0 12,5 12,12l0 525z"/>
   <path class="fil0" d="M3575 571l0 164 269 0c6,0 12,5 12,12l0 47c0,6 -5,12 -12,12l-337 0c-6,0 -12,-5 -12,-12l0 -525c0,-6 5,-12 12,-12l337 0c6,0 12,5 12,12l0 47c0,6 -5,12 -12,12l-269 0 0 172 208 0c6,0 12,6 12,12l0 47c0,6 -5,12 -12,12l-208 0z"/>
   <path class="fil1" d="M520 1063l65 0c5,0 9,-6 7,-11l0 0 -334 -790c-2,-6 -9,-10 -15,-10l0 0c-7,0 -13,4 -16,10l0 0 -226 532c-2,5 2,11 7,11l0 0 64 0c7,0 13,-5 16,-11l0 0 0 0c0,-1 72,-135 187,-137l0 0c0,0 -61,-40 -141,21l0 0 -28 69 136 -337 261 642c3,6 9,11 16,11z"/>
   <path class="fil1" d="M2878 0l-64 0c-5,0 -9,5 -7,11l0 0 334 790c2,6 9,10 15,10 7,0 13,-4 16,-10l0 0 226 -532c2,-5 -2,-11 -7,-11l0 0 -64 0c-4,0 -7,1 -10,3l0 0 1 -2c0,0 0,1 -1,2l0 0c-3,2 -5,4 -6,7l0 0 -3 8c-24,37 -87,118 -177,119l0 0c0,0 58,38 136,-17l0 0 -110 274 -261 -642c-3,-6 -9,-11 -16,-11z"/>
  </g>
 </g>
</svg>
