<svg version="1.2" xmlns="http://www.w3.org/2000/svg" viewBox="0 0 3871 1208">
	<title>Accutive Security</title>
	<style>
		.s0 { fill: #2d097d } 
	</style>
	<g id="Security">
		<path id="S" class="s0" d="m2356 1044l-41 14c-5-16-17-24-35-24-19 0-29 6-29 18 0 5 2 9 5 12q6 4.5 24 9c21 4 36 8 46 13 10 4 18 11 25 21 7 10 10 20 10 32q0 28.5-21 48c-14 14-35 20-63 20-21 0-39-5-54-14-15-10-25-24-29-43l44-10c5 19 19 29 42 29 11 0 19-2 25-6 5-4 8-9 8-15 0-6-2-11-7-14-5-3-14-6-28-9-26-5-45-13-56-22-11-9-17-23-17-41 0-18 7-34 20-46 13-13 31-19 54-19q60 0 78 48z"/>
		<path id="E" class="s0" d="m2587 1038h-97v42h77v39h-77v44h97v41h-146v-205h146z"/>
		<path id="C" class="s0" d="m2818 1075l-50 3c-1-29-12-43-34-43-25 0-38 22-38 67 0 26 3 43 10 52 7 9 16 14 29 14q30 0 36-39l47 3c-3 25-12 43-27 56-15 13-34 19-56 19-27 0-49-9-66-28-17-19-25-45-25-78 0-31 8-56 25-76 16-20 39-30 67-30 49 0 77 27 83 80z"/>
		<path id="U" class="s0" d="m3049 999v128c0 21-2 36-7 46-5 10-13 18-26 25-13 6-29 10-49 10-20 0-35-3-47-9-12-6-20-14-26-25-6-11-9-26-9-47v-128h52v128q0 16.5 3 24c2 5 6 9 11 12 6 3 12 5 21 5 9 0 16-2 22-5 6-3 9-7 11-12 2-5 3-13 3-25v-128h41z"/>
		<path id="R" fill-rule="evenodd" class="s0" d="m3177 1122v81h-48v-205h90c17 0 30 2 40 6 10 4 18 11 25 21 7 10 10 22 10 34 0 25-12 42-36 53l38 91h-53l-32-81zm0-87v52h29c10 0 17-1 21-2q6-1.5 12-9c3-5 5-10 5-16 0-6-2-11-5-15-3-5-7-7-11-8-4-1-12-2-23-2z"/>
		<path id="I" class="s0" d="m3427 1204h-48v-205h48z"/>
		<path id="T" class="s0" d="m3647 999v40h-51v165h-49v-165h-51v-40z"/>
		<path id="Y" class="s0" d="m3871 999l-64 119v86h-48v-86l-65-119h56l39 78 39-78z"/>
	</g>
	<path id="C" class="s0" d="m957 383c-5 4-12 4-16-1-32-31-87-60-143-60-165 0-190 157-190 210 0 52 24 209 190 209 58 0 110-28 146-58 5-4 12-4 16 2l32 40c4 6 3 13-2 18-48 44-109 71-193 71-209 0-271-164-271-282 0-114 62-281 271-281 88 0 147 31 195 80 5 5 4 13-1 16l-35 35z"/>
	<path id="C" class="s0" d="m1510 383c-5 4-12 4-16-1-32-31-87-60-143-60-165 0-190 157-190 210 0 52 24 209 190 209 58 0 110-28 146-58 5-4 12-4 16 2l32 40c4 6 3 13-2 18-48 44-109 71-193 71-209 0-271-164-271-282 0-114 62-281 271-281 88 0 147 31 195 80 5 5 4 13-1 16l-35 35z"/>
	<path id="U" class="s0" d="m2016 599v-328c0-6 6-12 12-12h58c6 0 12 5 12 12v328c0 91-56 214-214 214-158 0-213-123-213-214v-328c0-6 5-12 12-12h56c6 0 12 5 12 12v328c0 38 27 144 133 144 107 0 132-106 132-144z"/>
	<path id="T" class="s0" d="m2363 329h-147c-6 0-12-5-12-12v-47c0-6 5-12 12-12h377c6 0 12 5 12 12v47c0 6-5 12-12 12h-149v466c0 6-6 12-12 12h-57c-6 0-12-5-12-12z"/>
	<path id="I" class="s0" d="m2798 795c0 6-5 12-12 12h-57c-6 0-12-5-12-12v-525c0-6 5-12 12-12h57c6 0 12 5 12 12z"/>
	<path id="E" class="s0" d="m3575 572v164h269c6 0 12 5 12 12v47c0 6-5 12-12 12h-337c-6 0-12-5-12-12v-525c0-6 5-12 12-12h337c6 0 12 5 12 12v47c0 6-5 12-12 12h-269v172h208c6 0 12 6 12 12v47c0 6-5 12-12 12z"/>
	<path id="A" fill-rule="evenodd" class="s0" d="m520 1064h65c5 0 9-6 7-11l-334-790c-2-6-9-10-15-10-7 0-13 4-16 10l-226 532c-2 5 2 11 7 11h64c7 0 13-5 16-11 0-1 72-135 187-137 0 0-61-40-141 21l-28 69 136-337 261 642c3 6 9 11 16 11z"/>
	<path id="V" fill-rule="evenodd" class="s0" d="m2878 1h-64c-5 0-9 5-7 11l334 790c2 6 9 10 15 10 7 0 13-4 16-10l226-532c2-5-2-11-7-11h-64c-4 0-7 1-10 3l1-2c0 0 0 1-1 2-3 2-5 4-6 7l-3 8c-24 37-87 118-177 119 0 0 58 38 136-17l-110 274-261-642c-3-6-9-11-16-11z"/>
</svg>