<svg xmlns="http://www.w3.org/2000/svg" id="DB_logo" data-name="DB logo" viewBox="0 0 100 70"><defs><style>.cls-1{fill:#ec0016}</style></defs><path d="M90 0H10.05A10 10 0 0 0 0 10v50a10.05 10.05 0 0 0 10.05 10H90a10.05 10.05 0 0 0 10-10.07V10A10 10 0 0 0 90 0m2.7 59.93a2.76 2.76 0 0 1-2.7 2.86H10.05a2.76 2.76 0 0 1-2.75-2.86V10a2.76 2.76 0 0 1 2.75-2.9H90a2.76 2.76 0 0 1 2.7 2.9z" class="cls-1"/><path d="M30.58 57.91H13.76V12.09h16.82c11.85 0 18.4 7.42 18.4 22.7.02 13.26-4.43 23.01-18.4 23.12m7.31-22.17c0-9.23-1-16.44-10.9-16.44h-2.23v31.18h3.91c5.83 0 9.22-4.66 9.22-14.74M78 33.94a11.26 11.26 0 0 0 8-10.67c0-.95-.19-11.16-13.08-11.16H53.8v45.8H70c4.29 0 17.66 0 17.66-12.88 0-3.22-1.32-9.28-9.66-11.09M64.7 19.17h3.46c4.93 0 6.89 1.72 6.89 5.52 0 3-2.16 5.54-6 5.54H64.7zm4.51 31.31H64.7V38.71h4.81c5.71 0 7.11 3.33 7.11 5.89 0 5.88-5.62 5.88-7.41 5.88" class="cls-1"/></svg>