<svg version="1.2" xmlns="http://www.w3.org/2000/svg" viewBox="0 0 503 89">
	<title>lawtrust</title>
	<style>
		.s0 { fill: #136bb3 } 
		.s1 { fill: #5e5f61 } 
	</style>
	<path id="trust" class="s0" d="m502 34.7h-19.3v53.8h-15.2v-87.8h15.2v22.9h19.3zm-40.2-2.1h-41.3q-5.6 0-8.4 1.3-3.8 1.8-3.8 5v2.8q0 7 12.5 7h20.5q8.9 0 14.6 4.4 5.7 4.4 5.7 11.2v8.3q0 6.4-5.8 11.4-3.4 3.1-7.2 3.8-3.1 0.8-9.2 0.8h-46.7v-11.6h42.5q6.6 0 8.8-2.6 1.6-2 1.6-7.2 0-6.9-10.2-6.9h-19.3q-9.7 0-16.1-3.9-7.1-4.3-7.1-11.2v-9.1q0-7.6 8.1-12.1 5-3 15.3-3h45.5c0 0 0 11.6 0 11.6zm-133.5-11.5v41.9q0 5.2 3.5 8.5 2.7 2.5 10.3 2.5h16.4q13.7 0 13.7-10.7v-42.2h15.3v46.1q0 21.4-24.1 21.4h-26.3q-24.1 0-24.1-21.4v-46.1zm-20.6 11.5q-17.9 0-20.8 0.7-6.2 1.9-6.2 9v46.3h-16v-49.4q0-18.1 25.1-18.1h17.9c0 0 0 11.5 0 11.5zm-48.3 2.1h-19.3v53.9h-15.2v-87.9h15.2v23h19.3z"/>
	<path id="law" fill-rule="evenodd" class="s1" d="m219.2 22.9q0.1 0 0.1 0h-0.1l-2.4 7.6c0 0 0 0 0 0.1l-7.9 24.3-7.5 23.2q0 0 0 0 0 0 0 0v0.1q-0.1 0.2-0.2 0.5l-0.9 2.7q-2.4 7.2-11.3 7.2-9.2 0-11.2-7.1l-6.1-20.4-7.1-21-7.4 22.6q-1.4 4.5-2.7 8.9l-1.5 5.7q0 0.1 0 0.2c-0.5 1.6-1.2 3.1-2 4.4q-2.6 6.4-11 6.4-9.2 0-11.2-7l-6-20-3.4-10.7q0 0 0 0c-0.3-0.9-0.7-1.9-1.2-2.8l-0.2-0.4q-0.1-0.2-0.3-0.4l-0.8-1.6q0.9-2.9 0.9-6c0-4.9-1.7-9.5-4.5-13.2q0 0 0 0c-1-1.3-2.2-2.3-3.7-2.9q0 0 0 0c5.4 1.4 10.4 4.9 14.8 9.8q0.5 0.5 1 0.9 0.3 0.4 0.6 0.8 0.1 0.1 0.2 0.1c0.2 0.3 0.3 0.6 0.6 0.8 0.6 1 1.3 2 1.9 3q0.3 0.3 0.5 0.6 0 0.1 0 0.1 0.3 0.6 0.6 1.2 0.6 1.1 1.1 2.2 0 0 0 0l8.5 25.9 1.5 4.1 4.4-13.9 1-3.2 5.8-18.7 1.5-5.1q0.4-1.9 1.3-3.6v-0.1c2.2-4.3 5.9-7.1 10.1-7.1 4.8 0 9 3.8 10.9 9.2l3.9 12.3 9.4 29.1 8.2-24.9 0.6-2 1.1-3.3 1.5-5q0.1 0 0.1 0 0.3-0.9 0.6-1.8l0.1-0.3q0 0 0 0c2.8-6.8 7.4-11.5 13.2-12.2q0.5 0 1 0h-0.1 0.5q0.1 0 0.2 0h3.3q-0.1 0.3-0.2 0.6 0 0 0 0 0 0 0 0zm-107.4 50.9q0 0.5 0 1 0 0.1 0 0.2 0 0.2-0.1 0.4-0.6 5.4-5.1 9-5.3 4.1-14.4 4.1h-21.4q-8.4 0-13.5-3.9-5.5-4.3-5.5-12v-11.6q0-8 4.9-12.3 4.9-4.3 13.4-4.3h12.7q1 0 2.1 0 5.5 0 11.1 0.1 0.4 0 0.6-0.2 0.2-0.2 0.1-0.6c-0.1-1.1-0.2-2.2-0.4-3.3-0.2-1.1-0.6-2.2-1.2-3.2-0.5-0.8-1.2-1.4-2-1.8-0.7-0.4-1.6-0.7-2.5-1q-1.2-0.3-2.5-0.4-1.3-0.2-2.6-0.2-4.5 0-8.9 0-4.4 0-8.8 0-0.1 0-0.2 0-0.1 0-0.2 0 0 0 0 0 0 0 0 0-0.1 0-0.2 0-0.2 0-0.3 0c-3.1 0-6-1-8.3-2.7-2.4-1.7-4.3-4.2-5.4-7q-0.1-0.3-0.1-0.5-0.1-0.2-0.2-0.4 0-0.1 0-0.1 0 0 0-0.1 0 0 0 0 0-0.1 0-0.1-0.1-0.1-0.1-0.3 0-0.1-0.1-0.3 0 0 0 0 0 0 0 0 0 0 0 0 0 0 0 0 0-0.3 0-0.6-0.1-0.2-0.1-0.4v-0.3h6.7q0.1 0 0.1 0h32q1.2 0 2.4 0.2 1.1 0.1 2.2 0.4 0 0 0 0 0 0 0 0c2.8 0.5 5.3 1.4 7.4 2.6 2.1 1.2 3.9 2.7 5.1 4.4l0.5 0.6 0.3 0.5q0.1 0 0.1 0.1 1.2 1.6 1.8 3.3 0.6 1.8 0.6 3.6 0 0.1 0 0.2 0 0.1 0 0.1 0 0.1 0 0.2 0 0.1 0 0.1 0.1 9.1 0.1 18.1 0 9.1-0.1 18.1 0 0.1 0 0.2 0 0.1 0 0.1 0 0 0 0zm-14.8-16.5c0-0.6-0.2-0.7-0.8-0.7q-5 0.1-10.1 0.1-3.9-0.1-7.8 0c-2.3 0-4.6 0-6.9 0.8-2.4 0.8-3.6 2.5-3.7 5q-0.2 3.9-0.1 7.8c0.1 1.6 0.9 3 2.2 4q0.4 0.3 0.8 0.6-0.6-0.4-1.2-0.8-1-0.8-1.6-1.8-0.6-1-0.6-2.3 0 0 0 0 0 0 0 0 0 1.3 0.6 2.3 0.6 1 1.6 1.8 0.6 0.4 1.2 0.8c1.7 1 3.6 1.4 5.5 1.6 3.6 0.3 7.3 0.1 10.9 0.1 1.8 0 3.6-0.2 5.3-0.8 3-1 4.6-3.1 4.7-6.1 0-4.1-0.1-8.3 0-12.4zm-29.8 8.8q0 1.9 0 3.9 0-2 0-3.9zm-11.6 22c-0.2 0.1-0.5 0.1-0.8 0.1q-11.3 0-22.6 0h-14.5c-9.9-0.4-17.8-8.6-17.8-18.6q0.1-0.6 0.1-1.2 0-16.5 0-33.1v-16.4c-0.1 0-0.1 0-0.1 0 0 0 0 0 0.1 0v-3.1c-0.1 0 0 0 0 0v-2.6q0-0.2 0-0.3v-10.6q0.5-0.1 0.8-0.1 1.3 0 2.6 0.3c7.3 0.7 13 6.9 13 14.4 0 0.1 0 0.3 0 0.3v46.8 2.5l0.1 0.3c1.1 4.2 5 7.4 9.6 7.4h11.6q0.4 0 0.8 0 3.3 0 6.6 0c0.3 2.7 1.2 5.2 2.8 7.4q0 0 0 0 0 0.1 0.1 0.2c1.3 1.9 3 3.4 4.8 4.7q1.4 0.9 2.8 1.6z"/>
</svg>