<svg version="1.2" baseProfile="tiny-ps" xmlns="http://www.w3.org/2000/svg" viewBox="0 0 203 120">
	<title>Ascertia-Logo-Full-svg</title>
	<style>
		tspan { white-space:pre }
		.shp0 { fill: #0d4b9f } 
		.shp1 { fill: #00af62 } 
		.shp2 { fill: #000000 } 
	</style>
	<g >
		<g >
			<path class="shp0" d="M113.5 70C114.8 71.3 116.4 72.5 118.1 73.3C121.8 75 126 75.4 129.9 74.2C133.7 73.1 136.9 70.5 139 67.2C139.7 66.1 140.3 64.9 140.8 63.7C141.4 62 141.9 60.1 142 58.2C142.1 56.3 141.5 46 142.7 42.7C143 41.9 143.4 41.1 143.9 40.3C144.5 39.3 145.2 38.5 146.1 37.7C148.4 35.7 151.3 34.7 154.1 33.8C155.3 33.5 156.5 33.2 157.6 32.9C158.6 32.6 159.5 32.4 160.4 32C162.2 31.4 163.8 30.3 165.3 29.1C168.1 26.6 170 22.9 170.5 19C170.6 18.2 170.7 17.5 170.7 16.7C170.7 14.3 170.2 12.1 169.3 10C168.6 8.4 167.7 7 166.5 5.7C166.3 5.4 166 5.2 165.8 4.9C164.1 3.2 162 1.9 159.8 1C158 0.3 156 0 154 0C153.2 0 152.3 0.1 151.5 0.2C147.7 0.8 144.2 2.7 141.6 5.6C140.2 7.2 139.1 9 138.4 11C138.3 11.3 138.2 11.7 138.1 12C137.5 14.2 137.3 16.5 137.5 18.7C137.5 18.7 137.9 20.9 138 23.7C138.1 27.2 137.7 31.7 135.6 34.8C135.1 35.6 134.5 36.3 133.8 36.9C132 38.7 130 39.6 126.7 40.5C126.5 40.6 126.3 40.6 126.1 40.7C125 41 123.8 41.3 122.5 41.7C121 42.1 119.6 42.6 118.2 43.3C116.9 44 115.6 44.8 114.5 45.8C113.1 47 111.8 48.4 110.9 50C109.4 52.4 108.6 55.2 108.6 58.2C108.6 58.8 108.6 59.3 108.7 59.9C109.1 63.8 110.9 67.4 113.5 70Z" />
			<path class="shp1" d="M188 59.5C188 68.6 180.6 76 171.5 76C162.4 76 155 68.6 155 59.5C155 50.4 162.4 43 171.5 43C180.6 43 188 50.4 188 59.5Z" />
		</g>
		<g >
			<path fill-rule="evenodd" class="shp2" d="M41.3 87L35.4 87C35.4 88.6 35.4 90.3 35.4 91.9C35.4 92.8 35.3 93.6 35.6 94.5C35.9 95.6 36.8 96.3 37.9 96.5C38.7 96.7 39.6 96.6 40.5 96.8C41.3 96.9 42.1 97.4 42.8 97.8C44.5 99 46.1 100.8 46.9 102.7C47.2 103.4 47.3 104 47.3 104.7C47.3 106.6 47.3 108.5 47.3 110.3C47.3 112.4 46.6 114.3 45.3 116.1C43.1 119.1 38.7 120.4 35.3 118.9C33.1 117.9 31.2 116.1 30.2 113.9C29.2 111.7 29.5 109.1 29.5 106.8C29.5 106.2 29.5 105.6 29.5 105L35.4 105L35.4 112.6L41.4 112.6C41.4 111.3 41.4 109.9 41.5 108.6C41.5 107.6 41.7 106.5 41.5 105.5C41.3 104.5 40.7 103.5 39.7 103.2C38.6 102.8 37.4 103.2 36.3 102.8C34.1 102.1 32.2 100.4 31 98.4C29.6 96.1 29.7 94 29.7 91.4C29.7 90.2 29.5 88.9 29.7 87.8C29.9 86.8 30.4 85.7 30.9 84.8C32.8 81.1 37.6 79.4 41.5 80.7C43.4 81.3 44.9 82.7 46 84.3C46.6 85.2 47.2 86.3 47.4 87.4C47.6 88.7 47.5 90.2 47.5 91.5C47.5 92.1 47.5 92.8 47.5 93.4L41.6 93.4L41.6 87L41.3 87Z" />
			<path fill-rule="evenodd" class="shp2" d="M76.8 111.3C76.9 116.6 71.2 120.4 66.2 119.4C62.1 118.5 58.9 114.9 58.9 110.7C58.9 103.3 58.9 95.8 58.9 88.4C58.9 83.4 63.8 79.9 68.6 80.2C71.1 80.4 73.8 81.6 75.4 83.6C77.1 85.8 76.8 88.6 76.8 91.2C76.8 91.9 76.8 92.7 76.8 93.4L70.9 93.4L70.9 87L65.8 87L65.8 112.8L70.9 112.8L70.9 105.2L76.8 105.2L76.8 111.3L76.8 111.3Z" />
			<path fill-rule="evenodd" class="shp2" d="M88.6 88.1C88.6 83.1 93.7 80.1 98.2 80.4C100.6 80.5 102.9 81.6 104.5 83.3C105.9 84.9 106.4 86.6 106.4 88.7C106.4 92.4 106.4 96.1 106.4 99.7L94.4 99.7L94.4 112.7L100.5 112.7L100.5 106.2L106.5 106.2C106.5 109.7 106.6 113.4 104.2 116.2C102.3 118.4 99.4 119.6 96.5 119.3C93.7 119 91.3 117.2 90 114.8C88.3 111.5 88.7 107.8 88.7 104.3C88.6 99 88.6 93.5 88.6 88.1ZM94.4 93.6L100.5 93.6L100.5 87.1L94.4 87.1L94.4 93.6Z" />
			<path fill-rule="evenodd" class="shp2" d="M118.9 89.5C118.9 87.5 120.3 85 121.6 83.6C122.9 82.3 124.9 81 126.7 80.8C128.1 80.7 129.5 80.8 130.9 80.8L130.9 87.2L124.8 87.2L124.8 119L118.8 119L118.8 89.5L118.9 89.5Z" />
			<path fill-rule="evenodd" class="shp2" d="M155.1 87.1L149.3 87.1L149.3 119.4C147.1 119.4 145.3 118.4 144.1 116.6C143.2 115.3 143.4 113.7 143.4 112.2C143.4 102.7 143.4 93.2 143.4 83.8C143.4 80.7 143.4 77.5 143.4 74.4L149.3 74.4L149.3 80.8L155.1 80.8L155.1 87.1L155.1 87.1Z" />
			<path fill-rule="evenodd" class="shp2" d="M202.4 119C200.3 119 198.2 119 196.1 119C194.6 119 193.1 119.2 191.7 118.8C188.8 118 186.4 115.6 185.2 112.9C184.7 111.7 184.6 110.6 184.6 109.3C184.6 106.8 184.6 104.3 184.6 101.8C184.6 99 185.8 96.5 187.8 94.5C188.8 93.5 190.1 92.6 191.5 92.4C193.1 92.1 194.9 92.3 196.5 92.3L196.5 87.1L184.6 87.1L184.6 80.8C186.7 80.8 188.8 80.8 190.9 80.8C192.3 80.8 193.7 80.7 195.1 80.8C197.7 81.1 199.9 82.8 201.2 85C202.4 87.1 202.5 89.2 202.5 91.6C202.5 96.7 202.5 101.8 202.5 106.9C202.4 110.9 202.4 115 202.4 119ZM190.5 112.7L196.6 112.7L196.6 98.8L190.5 98.8L190.5 112.7Z" />
			<path fill-rule="evenodd" class="shp2" d="M173.5 119.6C172 119.6 170 118.5 169 117.4C168 116.2 167.4 114.9 167.4 113.4C167.4 105.5 167.4 97.6 167.4 89.7C167.4 86.8 167.4 83.8 167.4 80.9L173.6 80.9L173.6 119.6L173.5 119.6Z" />
			<path fill-rule="evenodd" class="shp2" d="M17.8 119C15.7 119 13.6 119 11.5 119C10 119 8.5 119.2 7.1 118.8C4.2 118 1.8 115.6 0.6 112.9C0.1 111.7 0 110.6 0 109.3C0 106.8 0 104.3 0 101.8C0 99 1.2 96.5 3.2 94.5C4.2 93.5 5.5 92.6 6.9 92.4C8.5 92.1 10.3 92.3 11.9 92.3L11.9 87.1L0 87.1L0 80.8C2.1 80.8 4.2 80.8 6.3 80.8C7.7 80.8 9.1 80.7 10.5 80.8C13.1 81.1 15.3 82.8 16.6 85C17.9 87.1 17.9 89.2 17.9 91.6C17.9 96.7 17.9 101.8 17.9 106.9C17.8 110.9 17.8 115 17.8 119ZM5.9 112.7L12 112.7L12 98.8L5.9 98.8L5.9 112.7Z" />
		</g>
	</g>
</svg>