<svg xmlns="http://www.w3.org/2000/svg" baseProfile="tiny-ps" viewBox="0 0 203 120"><title>Ascertia-Logo-Full-svg</title><style>.shp2{fill:#000}</style><path d="M113.5 70c1.3 1.3 2.9 2.5 4.6 3.3 3.7 1.7 7.9 2.1 11.8.9 3.8-1.1 7-3.7 9.1-7 .7-1.1 1.3-2.3 1.8-3.5.6-1.7 1.1-3.6 1.2-5.5s-.5-12.2.7-15.5q.45-1.2 1.2-2.4c.6-1 1.3-1.8 2.2-2.6 2.3-2 5.2-3 8-3.9 1.2-.3 2.4-.6 3.5-.9 1-.3 1.9-.5 2.8-.9 1.8-.6 3.4-1.7 4.9-2.9 2.8-2.5 4.7-6.2 5.2-10.1.1-.8.2-1.5.2-2.3 0-2.4-.5-4.6-1.4-6.7-.7-1.6-1.6-3-2.8-4.3-.2-.3-.5-.5-.7-.8-1.7-1.7-3.8-3-6-3.9-1.8-.7-3.8-1-5.8-1-.8 0-1.7.1-2.5.2-3.8.6-7.3 2.5-9.9 5.4-1.4 1.6-2.5 3.4-3.2 5.4-.1.3-.2.7-.3 1-.6 2.2-.8 4.5-.6 6.7 0 0 .4 2.2.5 5 .1 3.5-.3 8-2.4 11.1q-.75 1.2-1.8 2.1c-1.8 1.8-3.8 2.7-7.1 3.6-.2.1-.4.1-.6.2-1.1.3-2.3.6-3.6 1-1.5.4-2.9.9-4.3 1.6-1.3.7-2.6 1.5-3.7 2.5-1.4 1.2-2.7 2.6-3.6 4.2-1.5 2.4-2.3 5.2-2.3 8.2 0 .6 0 1.1.1 1.7.4 3.9 2.2 7.5 4.8 10.1" style="fill:#0d4b9f"/><path d="M188 59.5c0 9.1-7.4 16.5-16.5 16.5S155 68.6 155 59.5 162.4 43 171.5 43 188 50.4 188 59.5" style="fill:#00af62"/><path fill-rule="evenodd" d="M41.3 87h-5.9v4.9c0 .9-.1 1.7.2 2.6.3 1.1 1.2 1.8 2.3 2 .8.2 1.7.1 2.6.3.8.1 1.6.6 2.3 1 1.7 1.2 3.3 3 4.1 4.9.3.7.4 1.3.4 2v5.6c0 2.1-.7 4-2 5.8-2.2 3-6.6 4.3-10 2.8-2.2-1-4.1-2.8-5.1-5s-.7-4.8-.7-7.1V105h5.9v7.6h6c0-1.3 0-2.7.1-4 0-1 .2-2.1 0-3.1s-.8-2-1.8-2.3c-1.1-.4-2.3 0-3.4-.4-2.2-.7-4.1-2.4-5.3-4.4-1.4-2.3-1.3-4.4-1.3-7 0-1.2-.2-2.5 0-3.6.2-1 .7-2.1 1.2-3 1.9-3.7 6.7-5.4 10.6-4.1 1.9.6 3.4 2 4.5 3.6.6.9 1.2 2 1.4 3.1.2 1.3.1 2.8.1 4.1v1.9h-5.9V87zM76.8 111.3c.1 5.3-5.6 9.1-10.6 8.1-4.1-.9-7.3-4.5-7.3-8.7V88.4c0-5 4.9-8.5 9.7-8.2 2.5.2 5.2 1.4 6.8 3.4 1.7 2.2 1.4 5 1.4 7.6v2.2h-5.9V87h-5.1v25.8h5.1v-7.6h5.9zM88.6 88.1c0-5 5.1-8 9.6-7.7 2.4.1 4.7 1.2 6.3 2.9 1.4 1.6 1.9 3.3 1.9 5.4v11h-12v13h6.1v-6.5h6c0 3.5.1 7.2-2.3 10-1.9 2.2-4.8 3.4-7.7 3.1-2.8-.3-5.2-2.1-6.5-4.5-1.7-3.3-1.3-7-1.3-10.5-.1-5.3-.1-10.8-.1-16.2m5.8 5.5h6.1v-6.5h-6.1zM118.9 89.5c0-2 1.4-4.5 2.7-5.9 1.3-1.3 3.3-2.6 5.1-2.8 1.4-.1 2.8 0 4.2 0v6.4h-6.1V119h-6V89.5zM155.1 87.1h-5.8v32.3c-2.2 0-4-1-5.2-2.8-.9-1.3-.7-2.9-.7-4.4V74.4h5.9v6.4h5.8zM202.4 119h-6.3c-1.5 0-3 .2-4.4-.2-2.9-.8-5.3-3.2-6.5-5.9-.5-1.2-.6-2.3-.6-3.6v-7.5c0-2.8 1.2-5.3 3.2-7.3 1-1 2.3-1.9 3.7-2.1 1.6-.3 3.4-.1 5-.1v-5.2h-11.9v-6.3h6.3c1.4 0 2.8-.1 4.2 0 2.6.3 4.8 2 6.1 4.2 1.2 2.1 1.3 4.2 1.3 6.6v15.3c-.1 4-.1 8.1-.1 12.1m-11.9-6.3h6.1V98.8h-6.1zM173.5 119.6c-1.5 0-3.5-1.1-4.5-2.2-1-1.2-1.6-2.5-1.6-4V80.9h6.2v38.7zM17.8 119h-6.3c-1.5 0-3 .2-4.4-.2-2.9-.8-5.3-3.2-6.5-5.9-.5-1.2-.6-2.3-.6-3.6v-7.5c0-2.8 1.2-5.3 3.2-7.3 1-1 2.3-1.9 3.7-2.1 1.6-.3 3.4-.1 5-.1v-5.2H0v-6.3h6.3c1.4 0 2.8-.1 4.2 0 2.6.3 4.8 2 6.1 4.2 1.3 2.1 1.3 4.2 1.3 6.6v15.3c-.1 4-.1 8.1-.1 12.1m-11.9-6.3H12V98.8H5.9z" class="shp2"/></svg>