<?xml version="1.0" encoding="UTF-8"?><svg id="a" xmlns="http://www.w3.org/2000/svg" viewBox="0 0 614 136"><g id="b"><path d="M69.69,119.1c-9.58,0-19.02-2.8-27.23-8.17-11.23-7.29-18.9-18.52-21.7-31.61-2.74-13.1-.27-26.47,7.02-37.65,7.29-11.23,18.52-18.9,31.61-21.7,16.33-3.45,33.2,1.44,45.16,13.05.99.94.99,2.46.06,3.45s-2.46.99-3.45,0c-10.86-10.46-26.08-14.85-40.82-11.73-11.78,2.46-21.92,9.42-28.56,19.56-6.58,10.13-8.88,22.19-6.37,34.04,2.46,11.78,9.42,21.97,19.56,28.56,10.13,6.58,22.19,8.88,34.04,6.37,20.82-4.38,35.58-22.24,35.89-43.51,0-1.31,1.09-2.36,2.4-2.36h.06c1.31,0,2.4,1.15,2.36,2.46-.38,23.51-16.66,43.29-39.78,48.17-3.34.65-6.79,1.04-10.3,1.04" fill="#ec2024"/><path d="M70.06,94.77c-1.21,0-2.46-.11-3.72-.27-14.14-2.03-24.06-15.18-22.03-29.32.99-6.85,4.55-12.93,10.08-17.04,5.53-4.11,12.32-5.93,19.23-4.93,1.98.27,3.4,2.13,3.07,4.11-.27,1.98-2.09,3.4-4.11,3.07-4.93-.71-9.81.55-13.86,3.55-3.94,3.01-6.52,7.33-7.23,12.27-1.44,10.21,5.7,19.63,15.83,21.09,4.93.71,9.81-.55,13.86-3.55,3.94-3.01,6.52-7.33,7.23-12.27.55-3.94-.11-7.89-1.98-11.4-.99-1.75-.27-3.94,1.48-4.93,1.75-.99,3.94-.28,4.93,1.48,2.57,4.88,3.55,10.3,2.8,15.79-.99,6.85-4.55,12.93-10.08,17.04-4.49,3.5-9.92,5.26-15.51,5.26" fill="#231f20"/><path d="M98.67,91.87c-.6,0-1.15-.16-1.69-.55-1.44-.99-1.69-2.84-.77-4.22,5.87-8.39,7.33-19.13,3.94-28.77-5.76-16.66-24.01-25.48-40.61-19.73-5.7,1.98-10.63,5.49-14.36,10.08-1.09,1.25-2.96,1.48-4.22.44-1.25-1.04-1.48-2.96-.5-4.22,4.43-5.53,10.36-9.71,17.1-12.01,19.79-6.85,41.48,3.68,48.34,23.47,3.94,11.46,2.19,24.28-4.78,34.2-.55.99-1.48,1.44-2.46,1.44" fill="#231f20"/><path d="M69.96,105.63c-7.02,0-13.97-2.03-20-5.97-8.22-5.37-13.92-13.65-15.95-23.24-1.09-4.99-1.09-9.98,0-14.91.21-.99,1.21-1.59,2.13-1.44s1.59,1.21,1.36,2.13c-.94,4.43-.94,8.93,0,13.47,1.81,8.66,6.91,16.1,14.3,20.94,7.39,4.82,16.27,6.52,24.93,4.65,3.01-.65,5.93-1.65,8.61-3.07.94-.5,1.98-.11,2.46.77.5.94.11,1.98-.77,2.46-3.01,1.54-6.2,2.74-9.48,3.45-2.57.44-5.15.71-7.68.71" fill="#231f20"/><path d="M100.97,124.97c-1.31,0-2.46-.65-3.18-1.81-.99-1.75-.38-3.94,1.44-4.93,23.28-13.2,34.25-41.32,25.93-66.8C115.5,21.71,83.43,5.34,53.74,14.97c-22.86,7.41-38.65,28.56-39.24,52.62-.06,1.98-1.69,3.62-3.72,3.55-1.98,0-3.62-1.69-3.57-3.72.65-27.08,18.48-50.91,44.22-59.28,33.54-10.9,69.72,7.56,80.61,41.11,9.32,28.71-3.01,60.45-29.32,75.36-.78.34-.51.27-1.22.36" fill="#231f20"/><path d="M69.75,131c-10.02,0-20-2.46-29.1-7.29-14.41-7.62-25.1-20.44-30.02-36-.77-2.36-1.44-4.82-1.81-7.29-.16-.99.5-1.92,1.44-2.13.99-.16,1.92.5,2.13,1.44.44,2.3,1.04,4.61,1.69,6.85,4.65,14.64,14.7,26.74,28.33,33.98,13.59,7.18,29.21,8.83,43.91,4.43.44-.11.88-.27,1.31-.38.99-.33,1.98.21,2.3,1.15.33.94-.21,1.98-1.15,2.3-.44.16-.94.28-1.44.44-5.81,1.65-11.73,2.46-17.6,2.46" fill="#231f20"/><rect x="152.26" y="30.25" width="6.88" height="39.53" fill="#231f20"/><polygon points="202.8 69.78 202.8 30.25 227.82 30.25 227.82 36.24 209.47 36.24 209.47 47.44 226.89 47.44 226.89 53.42 209.47 53.42 209.47 69.78 202.8 69.78" fill="#231f20"/><path d="M251.85,69.78c-5.78,0-10.73-1.9-14.71-5.67-4.01-3.87-5.97-8.47-5.97-14.1s1.95-10.25,5.97-14.1c3.97-3.81,8.78-5.66,14.7-5.66s10.73,1.9,14.71,5.67c3.95,3.81,5.97,8.56,5.97,14.1s-2,10.29-5.97,14.1c-3.97,3.81-8.77,5.66-14.7,5.66ZM251.85,35.87c-3.74,0-6.94,1.41-9.52,4.18-2.57,2.77-3.87,6.13-3.87,9.96s1.31,7.21,3.87,9.96c2.54,2.74,5.74,4.12,9.52,4.12s6.98-1.39,9.52-4.14c2.56-2.69,3.87-6.04,3.87-9.96s-1.31-7.21-3.87-9.95c-2.59-2.77-5.78-4.18-9.52-4.18Z" fill="#231f20"/><path d="M290.78,70.41c-.21,0-.44,0-.65-.01-3.08-.14-5.86-.72-8.46-1.78-2.63-1.07-4.99-2.54-7.21-4.52l3.95-5.05c3.82,3.47,7.93,5.37,11.63,5.37,2.08,0,3.91-.61,5.16-1.72,1.25-1.11,1.76-2.59,1.39-4.05-.61-2.49-3.61-4.55-8.2-5.69-2.19-.54-4.16-1.19-5.87-1.95-1.55-.68-2.87-1.46-3.94-2.33-1.83-1.49-2.87-4.55-2.73-8,.14-3.45,1.52-6.57,3.55-8,2.67-1.89,6.1-2.89,9.89-2.89.7,0,1.39.03,2.1.1,4.16.4,8.17,1.98,11.12,4.35l-3.3,4.99c-2-1.44-4.12-2.52-6.15-3.11-1.31-.38-2.59-.58-3.82-.58-1.14,0-2.25.17-3.27.51-1.63.54-2.81,2.03-3.1,3.91-.28,1.92.5,3.68,2.05,4.59,1.78,1.02,4.12,1.71,6.61,2.44.64.18,1.27.37,1.9.57,2.89.9,5.77,1.96,7.35,3.72,3.34,3.57,3.89,8.41,1.45,12.64-2.3,3.99-6.69,6.48-11.44,6.48h-.01Z" fill="#231f20"/><polygon points="308.41 69.78 308.41 30.25 334.6 30.25 334.6 36.36 315.03 36.36 315.03 47.14 332.65 47.14 332.65 52.88 315.03 52.88 315.03 63.73 335.24 63.73 335.24 69.78 308.41 69.78" fill="#231f20"/><path d="M359.04,70.41c-5.87,0-10.96-1.96-14.68-5.66-3.81-3.78-5.73-8.58-5.73-14.3s1.98-10.56,5.86-14.43c3.87-3.84,8.7-5.78,14.38-5.78s11.17,2.33,15.28,6.58l-4.16,4.76c-2.91-3.18-6.51-4.8-10.7-4.8-2.23,0-3.98.3-5.49.94-1.66.7-2.94,1.75-3.99,2.7l-1.22,1.11h.17c-1.96,2.33-2.93,5.23-2.93,8.8,0,4.14,1.27,7.48,3.78,9.94,2.37,2.52,5.4,3.8,8.97,3.8,4.34,0,8.03-1.62,10.97-4.8l4.28,4.43c-4.31,4.52-9.15,6.72-14.78,6.72Z" fill="#231f20"/><polygon points="190.87 69.78 171.63 42.97 170.48 41.38 170.48 69.78 163.93 69.78 163.93 30.25 170.49 30.25 191.4 59.46 191.4 30.25 198.02 30.25 198.02 69.78 190.87 69.78" fill="#231f20"/><path d="M482.64,69.75c-5.84,0-10.66-1.86-14.71-5.69-3.99-3.77-5.94-8.37-5.94-14.04s1.95-10.28,5.94-14.04c4.05-3.82,8.87-5.69,14.71-5.69s10.66,1.86,14.71,5.69c3.99,3.77,5.94,8.37,5.94,14.04s-2,10.28-5.94,14.06c-4.05,3.82-8.86,5.69-14.71,5.69h0ZM482.82,36.02c-3.8,0-7.01,1.41-9.54,4.18-2.52,2.77-3.81,6.11-3.81,9.92s1.28,7.22,3.81,9.94c2.54,2.73,5.84,4.18,9.52,4.18s7.01-1.41,9.54-4.18c2.53-2.79,3.81-6.11,3.81-9.92s-1.25-7.18-3.81-9.94c-2.53-2.77-5.73-4.18-9.52-4.18Z" fill="#231f20"/><path d="M415.36,69.75c-7.12,0-10.66-2.05-14.36-5.57-3.82-3.65-5.76-8.39-5.76-14.07s1.92-10.36,5.87-14.14c3.95-3.78,8.74-5.7,14.24-5.7s9.85,1.61,13.8,4.78l-3.45,4.95c-1.71-1.34-3.08-2.16-4.39-2.66-1.69-.64-3.45-.95-5.42-.95-3.82,0-7.05,1.29-9.58,3.87-2.6,2.49-3.92,5.84-3.92,9.96s1.25,7.46,3.74,9.96c2.52,2.49,5.53,3.74,8.93,3.74s6.23-.67,8.51-1.98l.55-.31.11-10.59h6.85v12.74c-3.81,4.01-8.97,5.97-15.73,5.97h0Z" fill="#231f20"/><polygon points="435.94 69.75 435.94 30.28 442.71 30.28 442.71 63.71 459.99 63.71 459.99 69.75 435.94 69.75" fill="#231f20"/><path d="M507.96,69.91V30.11h14.06c2.56,0,4.68.3,6.47.92,1.66.58,2.93,1.39,3.88,2.46,1.54,1.93,2.3,4.12,2.3,6.68,0,2.69-1.07,5.2-2.59,6.57-.58.53-.94.85-1.22,1.01-.1.06-.38.2-.38.2,0,0-.51.28-.84.41l-2.74,1.09,2.87.72c2.26.58,3.98,1.61,5.26,3.16,1.25,1.51,1.86,3.47,1.86,5.96s-.92,5.1-2.54,7.06c-2.02,2.35-5.44,3.48-10.45,3.48l-2.29.06h-13.65ZM514.63,63.98h6.95c2.67,0,4.59-.34,6.03-1.08,1.55-.88,2.33-2.44,2.33-4.69,0-2.84-1.32-4.12-2.44-4.69-1.48-.7-3.68-1.02-6.77-1.02h-6.1v11.48ZM514.67,46.98h5.09c2.39,0,4.35-.3,5.69-.87,1.58-.81,2.33-2.29,2.33-4.53s-.71-3.7-2.13-4.49c-1.24-.7-3.16-1.04-5.9-1.04h-5.09v10.93h.01Z" fill="#231f20"/><path d="M571.51,69.75l-3.78-8.95h-18.71l-3.78,8.95h-7.28l16.86-39.47h7.33l16.86,39.47h-7.5,0ZM551.52,54.81h13.7l-6.85-16.08-6.85,16.08Z" fill="#231f20"/><polygon points="583.03 69.75 583.03 30.28 589.85 30.28 589.85 63.71 607.09 63.71 607.09 69.75 583.03 69.75" fill="#231f20"/></g><path d="M160.04,100.6h-.24c-.6,2.02-2.18,3.18-4.36,3.18-2.31,0-3.81-1.05-3.81-3.42,0-2.13,1.37-3.68,4.36-3.68h3.94v-1c0-1.84-.71-2.84-2.71-2.84-1.66,0-2.58.82-2.97,2.45l-2.16-.53c.5-2.37,2.26-3.81,5.21-3.81,3.42,0,4.92,1.66,4.92,4.71v7.86h-2.18v-2.92ZM159.93,98.95v-.68h-3.6c-1.6,0-2.52.63-2.52,1.84,0,.97.6,1.84,2.42,1.84,2.26,0,3.71-1.26,3.71-3Z" fill="#231f20"/><path d="M174.31,97.05h-1.31v6.47h-2.42v-15.77h2.42v7.31h1.21l6.34-7.31h2.73v.29l-7.26,7.86,7.6,7.34v.29h-2.81l-6.49-6.47Z" fill="#231f20"/><path d="M183.25,97.48c0-4.1,2.39-6.55,6.1-6.55s5.52,2.26,5.52,5.65c0,.37-.03.92-.08,1.47h-9.25c.18,2.5,1.5,3.87,3.86,3.87,2.21,0,2.97-1.1,3.37-2.47l2,.55c-.6,2.34-2.18,3.81-5.36,3.81-3.81,0-6.15-2.26-6.15-6.34ZM185.56,96.4h7.18c-.1-2.34-1.18-3.65-3.44-3.65s-3.47,1.21-3.73,3.65Z" fill="#231f20"/><path d="M195.87,107.89l.37-2.1c.55.1,1.05.18,1.58.18,1.45,0,2.26-.37,3.23-2.55l-5.21-12.17h2.52l1.58,4.39c.58,1.6,1.45,3.94,2.08,5.86h.39c.66-1.97,1.45-4.23,1.97-5.84l1.5-4.42h2.45l-5.21,12.44c-1.29,3.05-2.79,4.36-5.39,4.36-.76,0-1.31-.08-1.87-.16Z" fill="#231f20"/><path d="M213.37,91.24h3.73v1.89h-3.73v10.38h-2.29v-10.38h-2.21v-1.89h2.21v-.79c0-2.5,1.34-4.15,4.08-4.15.92,0,1.55.11,2.05.21l-.11,1.71c-.58-.08-1.08-.16-1.6-.16-1.5,0-2.13.84-2.13,2.44v.74Z" fill="#231f20"/><path d="M226.23,100.6h-.24c-.6,2.02-2.18,3.18-4.36,3.18-2.31,0-3.81-1.05-3.81-3.42,0-2.13,1.37-3.68,4.36-3.68h3.94v-1c0-1.84-.71-2.84-2.71-2.84-1.66,0-2.58.82-2.97,2.45l-2.16-.53c.5-2.37,2.26-3.81,5.21-3.81,3.42,0,4.92,1.66,4.92,4.71v7.86h-2.18v-2.92ZM226.12,98.95v-.68h-3.6c-1.6,0-2.52.63-2.52,1.84,0,.97.6,1.84,2.42,1.84,2.26,0,3.71-1.26,3.71-3Z" fill="#231f20"/><path d="M236.82,92.95c-2.31,0-3.73,1.5-3.73,4.44,0,2.71,1.34,4.42,3.84,4.42,2.26,0,3-1.37,3.44-3.02l2.1.55c-.55,2.81-2.24,4.5-5.52,4.5-3.86,0-6.21-2.34-6.21-6.42s2.45-6.49,6.13-6.49c3.44,0,5.05,1.63,5.55,4.52l-2.13.45c-.42-1.81-1.26-2.94-3.47-2.94Z" fill="#231f20"/><path d="M245.73,93.14h-1.87v-1.89h1.87v-3.44h2.29v3.44h3.92v1.89h-3.92v6.47c0,1.39.53,2.1,1.89,2.1.66,0,1.21-.13,1.87-.32l.29,2.02c-.84.26-1.5.42-2.63.42-2.58,0-3.71-1.68-3.71-3.97v-6.73Z" fill="#231f20"/><path d="M253.46,97.34c0-4.02,2.42-6.42,6.15-6.42s6.15,2.39,6.15,6.42-2.26,6.49-6.15,6.49-6.15-2.5-6.15-6.49ZM255.75,97.32c0,2.76,1.24,4.52,3.84,4.52s3.89-1.76,3.89-4.52-1.34-4.42-3.87-4.42-3.86,1.66-3.86,4.42Z" fill="#231f20"/><path d="M268.21,103.52v-12.28h2.21v3.47l.18.03c.63-2.68,1.89-3.63,3.79-3.63h.47v2.52h-.63c-2.66,0-3.73,1.05-3.73,3.81v6.07h-2.29Z" fill="#231f20"/><path d="M287.32,92.95c-2.31,0-3.73,1.5-3.73,4.44,0,2.71,1.34,4.42,3.84,4.42,2.26,0,3-1.37,3.44-3.02l2.1.55c-.55,2.81-2.24,4.5-5.52,4.5-3.86,0-6.2-2.34-6.2-6.42s2.44-6.49,6.12-6.49c3.44,0,5.05,1.63,5.55,4.52l-2.13.45c-.42-1.81-1.26-2.94-3.47-2.94Z" fill="#231f20"/><path d="M294.71,97.34c0-4.02,2.42-6.42,6.15-6.42s6.15,2.39,6.15,6.42-2.26,6.49-6.15,6.49-6.15-2.5-6.15-6.49ZM297,97.32c0,2.76,1.24,4.52,3.84,4.52s3.89-1.76,3.89-4.52-1.34-4.42-3.87-4.42-3.86,1.66-3.86,4.42Z" fill="#231f20"/><path d="M311.74,103.52h-2.29v-12.28h2.24v3.18h.24c.68-2.21,2.26-3.5,4.44-3.5,2.42,0,3.6,1.45,3.84,3.68h.24c.58-2.26,2.02-3.68,4.47-3.68,2.73,0,4.02,1.79,4.02,4.47v8.12h-2.29v-7.57c0-1.68-.74-2.94-2.66-2.94-2.23,0-3.65,1.39-3.65,3.5v7.02h-2.29v-7.57c0-1.68-.74-2.94-2.66-2.94-2.18,0-3.66,1.39-3.66,3.5v7.02Z" fill="#231f20"/><path d="M338.98,103.84c-2.39,0-3.89-1.52-4.5-3.63h-.16v7.33h-2.29v-16.3h2.29v3.23h.18c.6-2.1,2-3.55,4.36-3.55,3.08,0,4.76,2.31,4.76,6.47s-1.76,6.44-4.65,6.44ZM341.37,97.4c0-2.97-1.08-4.39-3.42-4.39-2.21,0-3.63,1.52-3.63,3.94v.95c0,2.31,1.42,3.92,3.63,3.92s3.42-1.47,3.42-4.42Z" fill="#231f20"/><path d="M353.75,100.6h-.24c-.6,2.02-2.18,3.18-4.36,3.18-2.31,0-3.81-1.05-3.81-3.42,0-2.13,1.37-3.68,4.36-3.68h3.94v-1c0-1.84-.71-2.84-2.71-2.84-1.66,0-2.58.82-2.97,2.45l-2.16-.53c.5-2.37,2.26-3.81,5.21-3.81,3.42,0,4.92,1.66,4.92,4.71v7.86h-2.18v-2.92ZM353.65,98.95v-.68h-3.6c-1.6,0-2.52.63-2.52,1.84,0,.97.6,1.84,2.42,1.84,2.26,0,3.71-1.26,3.71-3Z" fill="#231f20"/><path d="M361.32,103.52h-2.29v-12.28h2.24v3.18h.24c.68-2.18,2.31-3.5,4.44-3.5,2.73,0,3.97,1.79,3.97,4.47v8.12h-2.29v-7.57c0-1.68-.68-2.94-2.66-2.94-2.18,0-3.66,1.39-3.66,3.5v7.02Z" fill="#231f20"/><path d="M371.55,107.89l.37-2.1c.55.1,1.05.18,1.58.18,1.45,0,2.26-.37,3.23-2.55l-5.21-12.17h2.52l1.58,4.39c.58,1.6,1.45,3.94,2.08,5.86h.39c.66-1.97,1.45-4.23,1.97-5.84l1.5-4.42h2.45l-5.21,12.44c-1.29,3.05-2.79,4.36-5.39,4.36-.76,0-1.31-.08-1.87-.16Z" fill="#231f20"/></svg>