<?xml version="1.0" encoding="UTF-8"?>
<svg id="Layer_1" data-name="Layer 1" xmlns="http://www.w3.org/2000/svg" viewBox="0 0 847.5 235.13">
  <defs>
    <style>
      .cls-1 {
        fill: red;
      }

      .cls-1, .cls-2, .cls-3, .cls-4 {
        stroke-width: 0px;
      }

      .cls-2 {
        fill: #ec2024;
      }

      .cls-3 {
        fill: #fff;
      }

      .cls-4 {
        fill: #231f20;
      }
    </style>
  </defs>
  <rect class="cls-4" x="298" y="48.93" width="15.3" height="68.4"/>
  <polygon class="cls-4" points="396.7 48.93 412 48.93 412 117.33 396.7 117.33 364.2 74.53 364.2 117.33 348.9 117.33 348.9 48.93 363.2 48.93 396.7 93.03 396.7 48.93"/>
  <polygon class="cls-4" points="494.6 48.93 494.6 62.33 462.9 62.33 462.9 77.13 493 77.13 493 90.53 462.9 90.53 462.9 117.33 447.6 117.33 447.6 48.93 494.6 48.93"/>
  <path class="cls-4" d="M582.7,107.93c-6.9,6.8-15.4,10.1-25.5,10.1s-18.6-3.4-25.5-10.1c-6.9-6.8-10.4-15.1-10.4-25.2s3.5-18.4,10.4-25.2,15.4-10.1,25.5-10.1,18.6,3.4,25.5,10.1c6.9,6.8,10.4,15.2,10.4,25.2s-3.5,18.4-10.4,25.2M577.5,82.73c0-6.1-2-11.3-5.9-15.6s-8.7-6.5-14.4-6.5-10.5,2.2-14.4,6.5-5.9,9.5-5.9,15.6,2,11.3,5.9,15.6,8.7,6.4,14.4,6.4,10.5-2.1,14.4-6.4c4-4.3,5.9-9.5,5.9-15.6"/>
  <path class="cls-4" d="M639.8,62.63c-1.5,1.2-2.2,2.8-2.2,4.8s.9,3.6,2.7,4.7c1.8,1.2,5.9,2.6,12.4,4.2,6.5,1.6,11.5,4,15.1,7.2s5.4,7.9,5.4,14-2.3,11.1-6.9,14.9c-4.6,3.8-10.7,5.7-18.1,5.7-10.8,0-20.6-4-29.3-12l9.1-11.2c7.4,6.5,14.2,9.7,20.4,9.7,2.8,0,5-.6,6.6-1.8s2.4-2.8,2.4-4.9-.8-3.7-2.5-4.9-5.1-2.4-10.1-3.7c-8-1.9-13.8-4.4-17.5-7.4s-5.5-7.8-5.5-14.3,2.3-11.5,7-15,10.5-5.3,17.5-5.3c4.6,0,9.1.8,13.7,2.3,4.6,1.6,8.5,3.8,11.9,6.7l-7.7,11.2c-5.9-4.5-12.1-6.8-18.4-6.8-2.5.1-4.5.7-6,1.9"/>
  <polygon class="cls-4" points="754.4 48.93 754.4 62.53 720.4 62.53 720.4 76.63 751 76.63 751 89.63 720.4 89.63 720.4 103.83 755.5 103.83 755.5 117.33 705.1 117.33 705.1 48.93 754.4 48.93"/>
  <path class="cls-4" d="M818.5,103.83c7.5,0,13.6-3,18.4-8.9l9.8,10.1c-7.8,8.7-16.9,13.1-27.4,13.1s-19.2-3.3-26-10-10.2-15.1-10.2-25.2,3.5-18.6,10.4-25.4,15.4-10.2,25.5-10.2c11.2,0,20.6,4.3,28.2,12.8l-9.5,10.8c-4.8-6-10.8-9-18-9-5.7,0-10.6,1.9-14.7,5.6-4.1,3.8-6.1,8.8-6.1,15.2s1.9,11.5,5.8,15.3c3.7,3.9,8.3,5.8,13.8,5.8"/>
  <path class="cls-4" d="M322.2,168.33h9.5v15c-4.2,4.7-10,7-17.4,7-6.2,0-11.4-2.1-15.6-6.2-4.2-4.1-6.3-9.3-6.3-15.6s2.1-11.5,6.4-15.7,9.5-6.3,15.5-6.3,11.3,2,15.8,6l-4.9,7.1c-1.9-1.6-3.6-2.8-5.2-3.4-1.6-.6-3.3-.9-5.2-.9-3.6,0-6.6,1.2-9.1,3.7-2.5,2.4-3.7,5.7-3.7,9.6s1.2,7.2,3.5,9.6,5.2,3.6,8.4,3.6,6-.6,8.2-1.9l.1-11.6h0Z"/>
  <polygon class="cls-4" points="350.6 189.93 350.6 147.63 360 147.63 360 181.53 378 181.53 378 189.93 350.6 189.93"/>
  <path class="cls-4" d="M426.8,184.03c-4.3,4.2-9.5,6.3-15.8,6.3s-11.5-2.1-15.8-6.3-6.4-9.4-6.4-15.6,2.1-11.4,6.4-15.6c4.3-4.2,9.5-6.3,15.8-6.3s11.5,2.1,15.8,6.3,6.4,9.4,6.4,15.6-2.2,11.5-6.4,15.6M423.6,168.53c0-3.8-1.2-7-3.6-9.6-2.4-2.7-5.4-4-8.9-4s-6.5,1.3-8.9,4-3.6,5.9-3.6,9.6,1.2,7,3.6,9.6c2.4,2.6,5.4,4,8.9,4s6.5-1.3,8.9-4c2.3-2.6,3.6-5.8,3.6-9.6"/>
  <path class="cls-4" d="M466.1,189.93h-18.5v-42.3h16.4c2.9,0,5.3.3,7.4,1,2.1.7,3.6,1.6,4.7,2.8,1.9,2.2,2.8,4.6,2.8,7.4,0,3.3-1.1,5.8-3.2,7.4-.7.6-1.2.9-1.5,1.1-.3.1-.8.4-1.5.7,2.6.6,4.7,1.7,6.3,3.5s2.3,4,2.3,6.7c0,2.9-1,5.5-3,7.8-2.4,2.6-6.4,3.9-12.2,3.9M457,164.73h4.5c2.6,0,4.6-.3,5.8-.8,1.3-.6,1.9-1.8,1.9-3.7s-.6-3.1-1.8-3.7c-1.2-.6-3.1-.9-5.9-.9h-4.5v9.1h0ZM457,181.93h6.5c2.7,0,4.7-.3,6.1-1,1.3-.7,2-2,2-3.9,0-2-.7-3.2-2.1-3.9-1.4-.6-3.7-.9-6.9-.9h-5.6v9.7Z"/>
  <path class="cls-4" d="M528,189.93l-3.9-9.1h-17.7l-3.9,9.1h-10l18.3-42.3h9.1l18.3,42.3h-10.2ZM515.2,160.23l-5.3,12.3h10.6l-5.3-12.3Z"/>
  <polygon class="cls-4" points="552.1 189.93 552.1 147.63 561.5 147.63 561.5 181.53 579.5 181.53 579.5 189.93 552.1 189.93"/>
  <path class="cls-3" d="M119.2,167.63c-2.3,0-4.6-.2-6.9-.5-26.4-3.8-44.8-28.3-41-54.6,1.8-12.8,8.5-24.1,18.8-31.8s23-11,35.8-9.2c3.7.5,6.3,4,5.7,7.7-.5,3.7-3.9,6.3-7.7,5.7-9.2-1.3-18.3,1-25.8,6.6-7.4,5.6-12.2,13.7-13.5,22.9-2.7,19,10.6,36.6,29.5,39.3,9.2,1.3,18.3-1,25.8-6.6,7.4-5.6,12.2-13.7,13.5-22.9,1-7.3-.2-14.7-3.7-21.2-1.8-3.3-.5-7.4,2.8-9.2s7.4-.5,9.2,2.8c4.8,9.1,6.6,19.2,5.2,29.4-1.8,12.8-8.5,24.1-18.8,31.8-8.4,6.5-18.5,9.8-28.9,9.8"/>
  <path class="cls-3" d="M172.5,162.23c-1.1,0-2.2-.3-3.2-1-2.6-1.8-3.2-5.3-1.4-7.9,10.9-15.6,13.7-35.6,7.4-53.6-10.7-31-44.7-47.5-75.7-36.8-10.6,3.7-19.8,10.2-26.8,18.8-2,2.4-5.5,2.8-7.9.8s-2.8-5.5-.9-7.9c8.3-10.3,19.3-18.1,31.9-22.4,36.9-12.8,77.3,6.8,90.1,43.7,7.4,21.3,4.1,45.2-8.9,63.7-1,1.8-2.8,2.6-4.6,2.6"/>
  <path class="cls-3" d="M119,187.93c-13.1,0-26-3.8-37.3-11.1-15.3-10-25.9-25.4-29.7-43.3-2-9.3-2-18.6-.1-27.8.4-1.8,2.2-3,4-2.6s3,2.2,2.6,4c-1.7,8.3-1.7,16.7.1,25.1,3.4,16.1,12.9,30,26.7,39s30.3,12.1,46.5,8.7c5.6-1.2,11-3.1,16-5.7,1.7-.9,3.7-.2,4.6,1.4.9,1.7.2,3.7-1.4,4.6-5.6,2.9-11.5,5.1-17.7,6.4-4.8.8-9.6,1.3-14.3,1.3"/>
  <path class="cls-2" d="M118.9,212.73c-17.9,0-35.4-5.2-50.8-15.2-20.9-13.6-35.2-34.5-40.4-58.9-5.1-24.4-.5-49.3,13.1-70.2,13.6-20.9,34.5-35.2,58.9-40.4,30.4-6.4,61.9,2.7,84.2,24.3,1.8,1.7,1.8,4.6.1,6.4-1.7,1.8-4.6,1.8-6.4.1-20.2-19.5-48.6-27.7-76.1-21.9-22,4.6-40.9,17.6-53.2,36.5-12.3,18.9-16.5,41.4-11.9,63.4s17.6,40.9,36.5,53.2c18.9,12.3,41.4,16.5,63.4,11.9,38.8-8.2,66.3-41.5,66.9-81.1,0-2.5,2-4.4,4.5-4.4h.1c2.5,0,4.5,2.1,4.4,4.6-.7,43.8-31.1,80.7-74.1,89.8-6.2,1.2-12.7,1.9-19.2,1.9"/>
  <path class="cls-3" d="M174.7,223.93c-2.4,0-4.6-1.2-5.9-3.4-1.8-3.3-.7-7.4,2.6-9.2,43.4-24.6,63.8-77,48.3-124.5C201.7,31.43,142,.93,86.6,18.93,44,32.73,14.6,72.13,13.5,116.93c-.1,3.7-3.2,6.7-6.9,6.6-3.7-.1-6.7-3.2-6.6-6.9C1.2,66.13,34.4,21.73,82.4,6.13c62.5-20.3,129.9,14.1,150.2,76.6,17.4,53.6-5.5,112.7-54.5,140.5-1.1.5-2.3.7-3.4.7"/>
  <path class="cls-3" d="M118.6,235.13c-18.7,0-37.3-4.6-54.2-13.6-26.9-14.3-46.8-38.2-56.1-67.2-1.4-4.4-2.6-9-3.4-13.6-.3-1.8.9-3.6,2.7-4,1.8-.3,3.6.9,4,2.7.8,4.3,1.9,8.6,3.2,12.8,8.7,27.3,27.4,49.8,52.8,63.3,25.3,13.4,54.4,16.4,81.8,8.3.8-.2,1.6-.5,2.4-.7,1.8-.6,3.7.4,4.3,2.2.6,1.8-.4,3.7-2.2,4.3-.8.3-1.7.5-2.6.8-10.7,3.2-21.7,4.7-32.7,4.7"/>
  <rect class="cls-4" x="298.4" y="48.63" width="15.3" height="68.4"/>
  <polygon class="cls-4" points="397.1 48.63 412.4 48.63 412.4 117.03 397.1 117.03 364.5 74.23 364.5 117.03 349.3 117.03 349.3 48.63 363.6 48.63 397.1 92.73 397.1 48.63"/>
  <polygon class="cls-4" points="495 48.63 495 62.03 463.3 62.03 463.3 76.83 493.4 76.83 493.4 90.23 463.3 90.23 463.3 117.03 448 117.03 448 48.63 495 48.63"/>
  <path class="cls-4" d="M583.1,107.63c-6.9,6.8-15.4,10.1-25.5,10.1s-18.6-3.4-25.5-10.1c-6.9-6.8-10.4-15.1-10.4-25.2s3.5-18.4,10.4-25.2,15.4-10.1,25.5-10.1,18.6,3.4,25.5,10.1c6.9,6.8,10.4,15.2,10.4,25.2s-3.5,18.4-10.4,25.2M577.9,82.43c0-6.1-2-11.3-5.9-15.6s-8.7-6.5-14.4-6.5-10.5,2.2-14.4,6.5-5.9,9.5-5.9,15.6,2,11.3,5.9,15.6,8.7,6.4,14.4,6.4,10.5-2.1,14.4-6.4c4-4.3,5.9-9.5,5.9-15.6"/>
  <path class="cls-4" d="M640.2,62.33c-1.5,1.2-2.2,2.8-2.2,4.8s.9,3.6,2.7,4.7c1.8,1.2,5.9,2.6,12.4,4.2,6.5,1.6,11.5,4,15.1,7.2s5.4,7.9,5.4,14-2.3,11.1-6.9,14.9c-4.6,3.8-10.7,5.7-18.1,5.7-10.8,0-20.6-4-29.3-12l9.1-11.2c7.4,6.5,14.2,9.7,20.4,9.7,2.8,0,5-.6,6.6-1.8s2.4-2.8,2.4-4.9-.8-3.7-2.5-4.9-5.1-2.4-10.1-3.7c-8-1.9-13.8-4.4-17.5-7.4s-5.5-7.8-5.5-14.3,2.3-11.5,7-15,10.5-5.3,17.5-5.3c4.6,0,9.1.8,13.7,2.3,4.6,1.6,8.5,3.8,11.9,6.7l-7.7,11.2c-5.9-4.5-12.1-6.8-18.4-6.8-2.5.1-4.5.7-6,1.9"/>
  <polygon class="cls-4" points="754.8 48.63 754.8 62.23 720.8 62.23 720.8 76.33 751.4 76.33 751.4 89.33 720.8 89.33 720.8 103.53 755.9 103.53 755.9 117.03 705.5 117.03 705.5 48.63 754.8 48.63"/>
  <path class="cls-4" d="M818.9,103.53c7.5,0,13.6-3,18.4-8.9l9.8,10.1c-7.8,8.7-16.9,13.1-27.4,13.1s-19.2-3.3-26-10-10.3-15-10.3-25.2,3.5-18.6,10.4-25.4,15.4-10.2,25.5-10.2c11.2,0,20.6,4.3,28.2,12.8l-9.5,10.8c-4.8-6-10.8-9-18-9-5.7,0-10.6,1.9-14.7,5.6-4.1,3.8-6.1,8.8-6.1,15.2s1.9,11.5,5.8,15.3c3.7,3.9,8.4,5.8,13.9,5.8"/>
  <path class="cls-4" d="M322.6,168.03h9.5v15c-4.2,4.7-10,7-17.4,7-6.2,0-11.4-2.1-15.6-6.2-4.2-4.1-6.3-9.3-6.3-15.6s2.1-11.5,6.4-15.7,9.5-6.3,15.5-6.3,11.3,2,15.8,6l-4.9,7.1c-1.9-1.6-3.6-2.8-5.2-3.4-1.6-.6-3.3-.9-5.2-.9-3.6,0-6.6,1.2-9.1,3.7-2.5,2.4-3.7,5.7-3.7,9.6s1.2,7.2,3.5,9.6c2.4,2.4,5.2,3.6,8.4,3.6s6-.6,8.2-1.9l.1-11.6h0Z"/>
  <polygon class="cls-4" points="351 189.63 351 147.33 360.4 147.33 360.4 181.23 378.4 181.23 378.4 189.63 351 189.63"/>
  <path class="cls-4" d="M427.2,183.73c-4.3,4.2-9.5,6.3-15.8,6.3s-11.5-2.1-15.8-6.3-6.4-9.4-6.4-15.6,2.1-11.4,6.4-15.6c4.3-4.2,9.5-6.3,15.8-6.3s11.5,2.1,15.8,6.3,6.4,9.4,6.4,15.6c0,6.3-2.2,11.5-6.4,15.6M424,168.23c0-3.8-1.2-7-3.6-9.6-2.4-2.7-5.4-4-8.9-4s-6.5,1.3-8.9,4-3.6,5.9-3.6,9.6,1.2,7,3.6,9.6c2.4,2.6,5.4,4,8.9,4s6.5-1.3,8.9-4c2.3-2.6,3.6-5.8,3.6-9.6"/>
  <path class="cls-4" d="M466.5,189.63h-18.5v-42.3h16.4c2.9,0,5.3.3,7.4,1,2.1.7,3.6,1.6,4.7,2.8,1.9,2.2,2.8,4.6,2.8,7.4,0,3.3-1.1,5.8-3.2,7.4-.7.6-1.2.9-1.5,1.1-.3.1-.8.4-1.5.7,2.6.6,4.7,1.7,6.3,3.5s2.3,4,2.3,6.7c0,2.9-1,5.5-3,7.8-2.4,2.6-6.4,3.9-12.2,3.9M457.4,164.43h4.5c2.6,0,4.6-.3,5.8-.8,1.3-.6,1.9-1.8,1.9-3.7s-.6-3.1-1.8-3.7c-1.2-.6-3.1-.9-5.9-.9h-4.5v9.1h0ZM457.4,181.63h6.5c2.7,0,4.7-.3,6.1-1,1.3-.7,2-2,2-3.9,0-2-.7-3.2-2.1-3.9-1.4-.6-3.7-.9-6.9-.9h-5.6v9.7Z"/>
  <path class="cls-4" d="M528.4,189.63l-3.9-9.1h-17.7l-3.9,9.1h-10l18.3-42.3h9.1l18.3,42.3h-10.2ZM515.6,159.93l-5.3,12.3h10.6l-5.3-12.3Z"/>
  <polygon class="cls-4" points="552.5 189.63 552.5 147.33 561.9 147.33 561.9 181.23 579.9 181.23 579.9 189.63 552.5 189.63"/>
  <path class="cls-4" d="M119.6,167.33c-2.3,0-4.6-.2-6.9-.5-26.4-3.8-44.8-28.3-41-54.6,1.8-12.8,8.5-24.1,18.8-31.8s23-11,35.8-9.2c3.7.5,6.3,4,5.7,7.7-.5,3.7-3.9,6.3-7.7,5.7-9.2-1.3-18.3,1-25.8,6.6-7.4,5.6-12.2,13.7-13.5,22.9-2.7,19,10.6,36.6,29.5,39.3,9.2,1.3,18.3-1,25.8-6.6,7.4-5.6,12.2-13.7,13.5-22.9,1-7.3-.2-14.7-3.7-21.2-1.8-3.3-.5-7.4,2.8-9.2s7.4-.5,9.2,2.8c4.8,9.1,6.6,19.2,5.2,29.4-1.8,12.8-8.5,24.1-18.8,31.8-8.4,6.5-18.5,9.8-28.9,9.8"/>
  <path class="cls-4" d="M172.9,161.93c-1.1,0-2.2-.3-3.2-1-2.6-1.8-3.2-5.3-1.4-7.9,10.9-15.6,13.7-35.6,7.4-53.6-10.7-31-44.7-47.5-75.7-36.8-10.6,3.7-19.8,10.2-26.8,18.8-2,2.4-5.5,2.8-7.9.8s-2.8-5.5-.9-7.9c8.3-10.3,19.3-18.1,31.9-22.4,36.9-12.8,77.3,6.8,90.1,43.7,7.4,21.3,4.1,45.2-8.9,63.7-1,1.8-2.8,2.6-4.6,2.6"/>
  <path class="cls-4" d="M119.4,187.63c-13.1,0-26-3.8-37.3-11.1-15.3-10-25.9-25.4-29.7-43.3-2-9.3-2-18.6-.1-27.8.4-1.8,2.2-3,4-2.6s3,2.2,2.6,4c-1.7,8.3-1.7,16.7.1,25.1,3.4,16.1,12.9,30,26.7,39s30.3,12.1,46.5,8.7c5.6-1.2,11-3.1,16-5.7,1.7-.9,3.7-.2,4.6,1.4.9,1.7.2,3.7-1.4,4.6-5.6,2.9-11.5,5.1-17.7,6.4-4.8.8-9.6,1.3-14.3,1.3"/>
  <path class="cls-1" d="M119.3,212.33c-17.9,0-35.4-5.2-50.8-15.2-20.9-13.6-35.2-34.5-40.4-58.9-5.1-24.4-.5-49.3,13.1-70.2,13.6-20.9,34.5-35.2,58.9-40.4,30.4-6.4,61.9,2.7,84.2,24.3,1.8,1.7,1.8,4.6.1,6.4-1.7,1.8-4.6,1.8-6.4.1-20.2-19.5-48.6-27.7-76.1-21.9-22,4.6-40.9,17.6-53.2,36.5-12.3,18.9-16.5,41.4-11.9,63.4s17.6,40.9,36.5,53.2c18.9,12.3,41.4,16.5,63.4,11.9,38.8-8.2,66.3-41.5,66.9-81.1,0-2.5,2-4.4,4.5-4.4h.1c2.5,0,4.5,2.1,4.4,4.6-.7,43.8-31.1,80.7-74.1,89.8-6.2,1.3-12.7,1.9-19.2,1.9"/>
  <path class="cls-4" d="M175.1,223.63c-2.4,0-4.6-1.2-5.9-3.4-1.8-3.3-.7-7.4,2.6-9.2,43.4-24.6,63.8-77,48.3-124.5C202.1,31.13,142.4.63,87,18.63,44.4,32.43,15,71.83,13.9,116.63c-.1,3.7-3.2,6.7-6.9,6.6-3.7-.1-6.7-3.2-6.6-6.9C1.6,65.83,34.8,21.43,82.8,5.83c62.5-20.3,129.9,14.1,150.2,76.6,17.4,53.5-5.6,112.6-54.6,140.4-1,.6-2.2.8-3.3.8"/>
  <path class="cls-4" d="M119,234.83c-18.7,0-37.3-4.6-54.2-13.6-26.9-14.2-46.8-38.1-56-67.1-1.4-4.4-2.6-9-3.4-13.6-.3-1.8.9-3.6,2.7-4,1.8-.3,3.6.9,4,2.7.8,4.3,1.9,8.6,3.2,12.8,8.7,27.3,27.4,49.8,52.8,63.3,25.3,13.4,54.4,16.4,81.8,8.3.8-.2,1.6-.5,2.4-.7,1.8-.6,3.7.4,4.3,2.2.6,1.8-.4,3.7-2.2,4.3-.8.3-1.7.5-2.6.8-10.8,3.1-21.8,4.6-32.8,4.6"/>
</svg>
