<svg version="1.2" xmlns="http://www.w3.org/2000/svg" viewBox="0 0 162 26">
    <style>.a{fill:#e21936}</style>
    <path
        d="m0.3 12.8c0-8.4 5-12.8 11.2-12.8 4 0 5.8 1.1 6.9 2v5.3q-0.5-0.8-1.2-1.4-0.6-0.6-1.5-1.1-0.8-0.4-1.7-0.6-0.9-0.2-1.8-0.1c-4.5 0-7.1 2.9-7.1 8.4 0 5.6 2.5 8.9 7.1 8.9q0.9 0.1 1.8-0.1 0.8-0.2 1.7-0.5 0.8-0.4 1.5-1 0.7-0.6 1.2-1.3v4.6c-1.3 1.5-3.9 2.4-6.7 2.4-6.9 0-11.4-4.3-11.4-12.8z" />
    <path fill-rule="evenodd"
        d="m26.1 15.9h-0.2v9h-4.8v-24.3h6.9c5.6 0 9.5 2 9.5 7.2 0 4.1-2.5 6.8-6.5 7.7l8.4 9.4h-5.7zm1.9-3.3c3 0 4.7-1.5 4.7-4.3 0-2.8-1.7-3.9-4.7-3.9h-2.1v8.2z" />
    <path d="m44.7 14.9l-7.9-14.3h5.2l5.3 10.2 5.4-10.2h4.7l-8 14.3v10h-4.7z" />
    <path
        d="m58.5 0.6h7c7.1 0 10.1 2.9 10.1 7.9 0 4.9-3 8.9-10.1 8.9h-1.1v-3.6h1.1c3.7 0 5.3-1.9 5.3-4.8 0-2.9-1.6-4.6-5.3-4.6h-2.3v20.5h-4.7z" />
    <path d="m83.4 4.6h-7v-4h18.6v4h-6.9v20.3h-4.7z" />
    <path fill-rule="evenodd"
        d="m94.4 12.8c0-8.4 6-12.8 12-12.8 7 0 11.9 4.4 11.9 12.8 0 8.3-5.9 12.7-11.9 12.7-7.1 0-12-4.4-12-12.8zm19.1 0.2c0-5.7-2.7-8.9-7.1-8.9-4.4 0-7.2 3.1-7.2 8.5 0 5.8 2.8 9 7.2 9 4.4 0 7.1-3.2 7.1-8.6z" />
    <path class="a"
        d="m136.1 6.2h-4.3v9.6h-5.9l5.3-15h-4.4l-6.8 18.8v0.4h11.8v4.9h4.3v-4.9h2.5v-4.2h-2.5z" />
    <path fill-rule="evenodd" class="a"
        d="m161.2 24.9h-4.9l-1.9-4.9v-0.1h-8.4l-1.9 5h-4.9l8.6-21.7-0.9-2.4h4.9zm-9.2-9.2v-0.1l0.1-0.2 2.3-1.8-0.5-0.2-0.1-0.1v-0.1l0.4-1.4-1.1 0.1h-0.3l-0.1-0.1-0.2-0.5-1 1.2h-0.2v-0.1l0.5-3.1-0.6 0.5h-0.2l-0.2-0.1-0.1-0.1-0.6-1.9-0.7 1.9-0.1 0.1-0.2 0.1h-0.2l-0.7-0.5 0.5 3.1v0.1h-0.1-0.1l-1-1.2-0.1 0.5-0.2 0.1h-0.2l-1.2-0.1 0.4 1.4v0.2l-0.1 0.1-0.5 0.2 2.3 1.8 0.1 0.1v0.1z" />
</svg>