<svg xmlns="http://www.w3.org/2000/svg" viewBox="0 0 162 26"><style>.a{fill:#e21936}</style><path d="M.3 12.8C.3 4.4 5.3 0 11.5 0c4 0 5.8 1.1 6.9 2v5.3q-.5-.8-1.2-1.4-.6-.6-1.5-1.1-.8-.4-1.7-.6t-1.8-.1c-4.5 0-7.1 2.9-7.1 8.4 0 5.6 2.5 8.9 7.1 8.9q.9.1 1.8-.1.8-.2 1.7-.5.8-.4 1.5-1t1.2-1.3v4.6c-1.3 1.5-3.9 2.4-6.7 2.4C4.8 25.5.3 21.2.3 12.7z"/><path fill-rule="evenodd" d="M26.1 15.9h-.2v9h-4.8V.6H28c5.6 0 9.5 2 9.5 7.2 0 4.1-2.5 6.8-6.5 7.7l8.4 9.4h-5.7zm1.9-3.3c3 0 4.7-1.5 4.7-4.3S31 4.4 28 4.4h-2.1v8.2z"/><path d="M44.7 14.9 36.8.6H42l5.3 10.2L52.7.6h4.7l-8 14.3v10h-4.7zM58.5.6h7c7.1 0 10.1 2.9 10.1 7.9 0 4.9-3 8.9-10.1 8.9h-1.1v-3.6h1.1c3.7 0 5.3-1.9 5.3-4.8s-1.6-4.6-5.3-4.6h-2.3v20.5h-4.7zM83.4 4.6h-7v-4H95v4h-6.9v20.3h-4.7z"/><path fill-rule="evenodd" d="M94.4 12.8c0-8.4 6-12.8 12-12.8 7 0 11.9 4.4 11.9 12.8 0 8.3-5.9 12.7-11.9 12.7-7.1 0-12-4.4-12-12.8zm19.1.2c0-5.7-2.7-8.9-7.1-8.9s-7.2 3.1-7.2 8.5c0 5.8 2.8 9 7.2 9s7.1-3.2 7.1-8.6"/><path d="M136.1 6.2h-4.3v9.6h-5.9l5.3-15h-4.4L120 19.6v.4h11.8v4.9h4.3V20h2.5v-4.2h-2.5z" class="a"/><path fill-rule="evenodd" d="M161.2 24.9h-4.9l-1.9-4.9v-.1H146l-1.9 5h-4.9l8.6-21.7-.9-2.4h4.9zm-9.2-9.2v-.1l.1-.2 2.3-1.8-.5-.2-.1-.1v-.1l.4-1.4-1.1.1h-.3l-.1-.1-.2-.5-1 1.2h-.2v-.1l.5-3.1-.6.5h-.2l-.2-.1-.1-.1-.6-1.9-.7 1.9-.1.1-.2.1h-.2l-.7-.5.5 3.1v.1h-.2l-1-1.2-.1.5-.2.1h-.2l-1.2-.1.4 1.4v.2l-.1.1-.5.2 2.3 1.8.1.1v.1z" class="a"/></svg>