<svg xmlns="http://www.w3.org/2000/svg" xmlns:xlink="http://www.w3.org/1999/xlink" xml:space="preserve" id="Layer_1" x="0" y="0" viewBox="0 0 1323 584"><style>.st0{fill:#7ccbed}.st2{fill:#fff}.st3{fill:#00487a}.st4{fill:#454545}</style><path d="M281.55 448.1a179.3 179.3 0 0 1-116.79 43.18c-34.06 0-65.93-9.53-93.1-26.06C121.81 528.67 199.45 569.4 286.6 569.4c102.73 0 192.23-56.58 239.07-140.27-19.91 12.04-43.24 18.98-68.16 18.98H281.55z" class="st0"/><path d="M550.39 222.01a132.5 132.5 0 0 0-36.24-25.41c-11.45-26.13-29.08-49.46-51.43-67.61-31.86-25.88-72.05-40.13-113.15-40.13-34.2 0-67.49 9.67-96.26 27.96a180 180 0 0 0-30.77 24.68c-18.39-6.25-37.82-9.46-57.78-9.46-51.02 0-97.15 21.39-129.88 55.66-14.21 33.11-22.09 69.58-22.09 107.9 0 64.07 22.01 122.99 58.87 169.63 27.17 16.53 59.04 26.06 93.1 26.06 43.19 0 84.46-15.48 116.79-43.18h175.96c24.92 0 48.25-6.94 68.16-18.98 22.11-39.51 34.74-85.04 34.74-133.54 0-25.49-3.5-50.17-10.02-73.58M442.84 382.39H260.66c-20.55 24.13-51.14 39.45-85.32 39.45-61.88 0-112.05-50.17-112.05-112.05s50.17-112.05 112.05-112.05c25.7 0 49.36 8.67 68.27 23.22 18.25-37.12 56.43-62.68 100.59-62.68 53.49 0 98.2 37.5 109.35 87.64 32.82 5.15 57.93 33.54 57.93 67.81.01 37.92-30.73 68.66-68.64 68.66" class="st0"/><path d="M164.76 132.03c19.95 0 39.38 3.21 57.78 9.46 9.28-9.28 19.59-17.57 30.77-24.68 28.77-18.29 62.06-27.96 96.26-27.96 41.1 0 81.29 14.25 113.15 40.13 22.35 18.15 39.98 41.48 51.43 67.61A132.1 132.1 0 0 1 550.39 222C518.25 106.53 412.33 21.78 286.6 21.78c-112.91 0-209.84 68.34-251.71 165.91 32.73-34.27 78.85-55.66 129.87-55.66" class="st0"/><path d="M550.39 222.01a132.5 132.5 0 0 0-36.24-25.41c-11.45-26.13-29.08-49.46-51.43-67.61-31.86-25.88-72.05-40.13-113.15-40.13-34.2 0-67.49 9.67-96.26 27.96a180 180 0 0 0-30.77 24.68c-18.39-6.25-37.82-9.46-57.78-9.46-51.02 0-97.15 21.39-129.88 55.66-14.21 33.11-22.09 69.58-22.09 107.9 0 64.07 22.01 122.99 58.87 169.63 27.17 16.53 59.04 26.06 93.1 26.06 43.19 0 84.46-15.48 116.79-43.18h175.96c24.92 0 48.25-6.94 68.16-18.98 22.11-39.51 34.74-85.04 34.74-133.54 0-25.49-3.5-50.17-10.02-73.58M442.84 382.39H260.66c-20.55 24.13-51.14 39.45-85.32 39.45-61.88 0-112.05-50.17-112.05-112.05s50.17-112.05 112.05-112.05c25.7 0 49.36 8.67 68.27 23.22 18.25-37.12 56.43-62.68 100.59-62.68 53.49 0 98.2 37.5 109.35 87.64 32.82 5.15 57.93 33.54 57.93 67.81.01 37.92-30.73 68.66-68.64 68.66" style="opacity:.2;fill:#fff"/><path d="M164.29 315v-10.41a9 9 0 0 1 9-9h35.46c-5.53-12.99-18.41-22.09-33.41-22.09-20.05 0-36.3 16.25-36.3 36.3s16.25 36.3 36.3 36.3c15.01 0 27.88-9.11 33.41-22.09h-35.46c-4.97-.01-9-4.04-9-9.01" class="st2"/><path d="M453.55 245.93c-11.15-50.14-55.86-87.64-109.35-87.64-44.16 0-82.34 25.56-100.59 62.68-18.9-14.55-42.57-23.22-68.27-23.22-61.88 0-112.05 50.17-112.05 112.05s50.17 112.05 112.05 112.05c34.18 0 64.76-15.32 85.32-39.45h182.18c37.91 0 68.65-30.74 68.65-68.65 0-34.28-25.11-62.68-57.94-67.82m-47.8 49.66v17.23c0 6.17-5 11.17-11.17 11.17H251.35c-6.67 35.92-38.15 63.13-76 63.13-42.71 0-77.33-34.62-77.33-77.33s34.62-77.33 77.33-77.33c37.85 0 69.33 27.21 76 63.13h80.23v-42c0-4.69 3.81-8.5 8.5-8.5h9.83c4.69 0 8.5 3.81 8.5 8.5v42h20.52V258.5c0-7.41 6.01-13.41 13.41-13.41 7.41 0 13.41 6.01 13.41 13.41z" class="st2"/><path d="M175.34 372.92c-34.86 0-63.13-28.26-63.13-63.13 0-34.86 28.26-63.13 63.13-63.13 29.98 0 55.06 20.9 61.5 48.92h14.5c-6.67-35.92-38.15-63.13-76-63.13-42.71 0-77.33 34.62-77.33 77.33s34.62 77.33 77.33 77.33c37.85 0 69.33-27.21 76-63.13h-14.5c-6.44 28.04-31.52 48.94-61.5 48.94" class="st2"/><path d="M251.35 295.59h-14.5c1.05 4.57 1.62 9.32 1.62 14.2s-.57 9.64-1.62 14.2h14.5c.86-4.61 1.32-9.35 1.32-14.2s-.47-9.59-1.32-14.2" class="st2"/><path d="M236.84 295.59c-6.45-28.02-31.52-48.92-61.5-48.92-34.86 0-63.13 28.26-63.13 63.13s28.26 63.13 63.13 63.13c29.98 0 55.06-20.9 61.5-48.92 1.05-4.57 1.62-9.32 1.62-14.2s-.57-9.65-1.62-14.22m-13.14 20.89c-1.21.76-2.64 1.2-4.17 1.2-4.36 0-7.89-3.53-7.89-7.89s3.53-7.89 7.89-7.89c1.17 0 2.28.26 3.28.72 2.72 1.25 4.61 3.98 4.61 7.17 0 2.83-1.49 5.3-3.72 6.69m-48.36 29.61c-20.05 0-36.3-16.25-36.3-36.3s16.25-36.3 36.3-36.3c15.01 0 27.88 9.11 33.41 22.09h-35.46a9 9 0 0 0-9 9V315a9 9 0 0 0 9 9h35.46c-5.53 12.98-18.4 22.09-33.41 22.09M392.34 245.09c-7.41 0-13.41 6.01-13.41 13.41v37.09h-20.52v-42c0-4.69-3.81-8.5-8.5-8.5h-9.83c-4.69 0-8.5 3.81-8.5 8.5v42h-80.23c.86 4.61 1.32 9.35 1.32 14.2s-.47 9.6-1.32 14.2h143.24c6.17 0 11.17-5 11.17-11.17V258.5c-.01-7.4-6.02-13.41-13.42-13.41" class="st3"/><path d="M211.64 309.79c0 4.36 3.53 7.89 7.89 7.89 1.53 0 2.96-.44 4.17-1.2.01-.04.02-.08.03-.13.11-.57.2-1.15.27-1.73.02-.15.03-.31.05-.46.05-.45.08-.9.1-1.35.01-.17.02-.34.02-.51.02-.59.02-1.19-.01-1.79-.04-.94-.13-1.87-.25-2.8-.05-.37-.13-.73-.19-1.09-.09-.54-.18-1.08-.29-1.61-.1-.47-.23-.93-.36-1.39-.09-.33-.18-.67-.28-1-1-.46-2.11-.72-3.28-.72-4.34 0-7.87 3.54-7.87 7.89" class="st2"/><path d="M223.44 305c.12.53.2 1.07.29 1.61.06.36.14.72.19 1.09.12.92.21 1.85.25 2.8.03.6.02 1.2.01 1.79-.01.17-.01.34-.02.51-.02.45-.06.9-.1 1.35-.02.15-.03.31-.05.46-.07.58-.16 1.16-.27 1.73-.01.04-.02.08-.03.13a7.87 7.87 0 0 0 3.72-6.69c0-3.19-1.89-5.93-4.61-7.17.1.33.19.66.28 1 .11.47.24.93.34 1.39" class="st2"/><path d="m654.42 494.38 4.06 9.82 4.16-9.82h6.77l-7.82 15.19v7.51h-6.21v-7.58l-7.7-15.12zM679.62 508.68c0 1.13.27 2.01.83 2.65s1.27.96 2.15.96q1.305 0 2.13-.96c.56-.64.84-1.52.84-2.65s-.28-2.02-.84-2.65q-.825-.96-2.13-.96c-.88 0-1.59.32-2.15.96-.56.63-.83 1.51-.83 2.65m2.97 8.72c-1.52 0-2.85-.24-3.99-.71q-1.71-.72-2.88-1.92a8 8 0 0 1-1.76-2.79 9.5 9.5 0 0 1-.59-3.3c0-1.15.19-2.25.59-3.3.4-1.06.98-1.98 1.76-2.79q1.17-1.2 2.88-1.92t3.99-.72q2.235 0 3.96.72c1.15.48 2.12 1.12 2.89 1.92.78.8 1.37 1.73 1.76 2.79q.6 1.575.6 3.3t-.6 3.3a7.8 7.8 0 0 1-1.76 2.79c-.78.8-1.74 1.44-2.89 1.92-1.15.47-2.46.71-3.96.71M705.63 517.4c-1.7 0-3-.51-3.9-1.55s-1.35-2.55-1.35-4.52v-11.07h6.07v9.69c0 .74.17 1.32.5 1.73.33.4.78.61 1.35.61.47 0 .95-.11 1.44-.32q.735-.33 1.47-1.41v-10.3h6.08v10.1c0 .58.08.98.25 1.2.17.23.47.36.89.4v5.11c-1.04.21-1.9.32-2.55.32-2.07 0-3.26-.78-3.58-2.33l-.12-.6c-.79 1.04-1.73 1.8-2.81 2.26-1.09.45-2.34.68-3.74.68M739.01 505.45c-1.17 0-2.24.13-3.2.38s-1.68.68-2.14 1.28v9.97h-6.07v-16.82h5.56v3.2c.6-1.13 1.34-1.99 2.22-2.6a4.93 4.93 0 0 1 2.86-.91c.4 0 .66.01.77.04zM777.74 499.82h-6.53v17.26h-6.22v-17.26h-6.56v-5.44h19.31zM797.23 505.45c-1.17 0-2.24.13-3.2.38s-1.68.68-2.14 1.28v9.97h-6.07v-16.82h5.56v3.2c.6-1.13 1.34-1.99 2.22-2.6a4.93 4.93 0 0 1 2.86-.91c.4 0 .66.01.77.04zM810.77 517.4c-1.7 0-3-.51-3.9-1.55s-1.35-2.55-1.35-4.52v-11.07h6.07v9.69c0 .74.17 1.32.5 1.73.33.4.78.61 1.35.61.47 0 .95-.11 1.44-.32q.735-.33 1.47-1.41v-10.3h6.08v10.1c0 .58.08.98.25 1.2.17.23.47.36.89.4v5.11c-1.04.21-1.9.32-2.55.32-2.07 0-3.26-.78-3.58-2.33l-.12-.6c-.79 1.04-1.73 1.8-2.81 2.26-1.09.45-2.34.68-3.74.68M839.67 517.4c-1.47 0-2.92-.24-4.32-.71q-2.1-.72-3.57-2.1l2.07-3.64c1.04.71 2.05 1.25 3.02 1.63s1.87.58 2.68.58c.85 0 1.28-.27 1.28-.81 0-.29-.17-.55-.5-.76-.33-.22-.97-.46-1.93-.74-1.2-.34-2.2-.67-3-1-.79-.33-1.45-.69-1.95-1.08-.5-.38-.86-.81-1.07-1.28s-.32-1.03-.32-1.66q0-1.29.51-2.37c.34-.72.81-1.35 1.42-1.88s1.33-.94 2.17-1.23c.85-.29 1.77-.43 2.77-.43 1.23 0 2.41.16 3.53.48s2.24.97 3.37 1.95l-2.3 3.64c-1.04-.68-1.92-1.16-2.62-1.45-.71-.29-1.37-.43-1.99-.43-.36 0-.66.07-.89.21-.23.13-.35.35-.35.65 0 .32.17.58.51.79.34.2 1.01.43 2.01.68 1.22.32 2.24.66 3.07 1.01s1.5.74 2 1.15.86.88 1.07 1.4c.22.52.33 1.12.33 1.81 0 .87-.16 1.65-.48 2.33a5 5 0 0 1-1.39 1.76c-.61.49-1.35.86-2.21 1.11-.86.26-1.83.39-2.92.39M866.99 516.15c-.85.37-1.76.67-2.74.92-.97.24-1.92.37-2.86.37-.68 0-1.33-.09-1.95-.26a4.3 4.3 0 0 1-1.61-.83c-.46-.38-.82-.88-1.09-1.5-.26-.62-.39-1.39-.39-2.32v-7.7h-2.08v-4.57h2.08v-5.27h6.07v5.27h3.29v4.57h-3.29v5.56c0 .56.12.95.35 1.17.23.23.56.34.96.34.3 0 .64-.05 1.03-.14.38-.1.77-.23 1.15-.4zM886.08 506.88c-.1-.81-.4-1.44-.89-1.91s-1.11-.71-1.88-.71-1.4.24-1.89.71-.78 1.1-.89 1.91zm-2.68 10.52c-1.47 0-2.79-.23-3.94-.68-1.15-.46-2.11-1.09-2.89-1.87a8.1 8.1 0 0 1-1.78-2.72c-.4-1.02-.61-2.1-.61-3.23 0-1.21.19-2.37.59-3.45.4-1.09.98-2.04 1.76-2.84.78-.81 1.74-1.46 2.88-1.94q1.71-.72 3.99-.72 2.235 0 3.96.72c1.15.48 2.12 1.12 2.89 1.92.78.8 1.37 1.73 1.76 2.79q.6 1.575.6 3.3a12.791 12.791 0 0 1-.16 1.85h-11.8c.06.9.39 1.54.99 1.94.6.39 1.25.59 1.96.59q.99 0 1.86-.45c.59-.3.98-.72 1.17-1.25l5.15 1.47c-.69 1.34-1.74 2.44-3.15 3.29-1.42.85-3.16 1.28-5.23 1.28M909.92 512.29c1.11 0 2.07-.58 2.87-1.73v-3.01c-.3-.74-.73-1.34-1.31-1.8s-1.19-.69-1.82-.69c-.45 0-.86.1-1.23.29s-.69.46-.96.8c-.26.34-.48.74-.63 1.18q-.24.675-.24 1.44c0 1.06.3 1.92.91 2.55.61.65 1.41.97 2.41.97m-1.66 5.11c-1.15 0-2.22-.21-3.19-.63-.97-.43-1.8-1.03-2.51-1.81-.7-.78-1.25-1.71-1.64-2.79s-.59-2.25-.59-3.53q0-1.845.54-3.45c.36-1.06.87-1.98 1.52-2.76s1.42-1.39 2.32-1.82c.9-.44 1.89-.66 2.98-.66s2.08.25 2.99.74 1.61 1.18 2.09 2.07v-9.01h6.07v16.62c0 .58.09.98.26 1.2.17.23.47.36.89.4v5.11c-1.04.21-1.9.32-2.55.32-2.07 0-3.26-.78-3.58-2.33l-.12-.6c-.58 1.03-1.35 1.77-2.33 2.24-1 .45-2.04.69-3.15.69M956.95 501.8q-.96-.57-1.98-1.02c-.58-.25-1.22-.49-1.94-.72-.71-.22-1.41-.34-2.09-.34-.55 0-.99.09-1.33.26-.33.17-.49.45-.49.86 0 .3.1.55.29.74s.47.37.83.53c.37.16.81.31 1.33.46s1.12.33 1.78.55c1.04.32 1.98.67 2.82 1.06q1.275.57 2.16 1.35a5.24 5.24 0 0 1 1.37 1.9c.32.74.48 1.65.48 2.72 0 1.36-.25 2.51-.75 3.44q-.75 1.38-1.98 2.22-1.23.825-2.79 1.2c-1.03.24-2.07.36-3.11.36-.83 0-1.69-.06-2.56-.19s-1.74-.31-2.6-.54c-.86-.24-1.7-.51-2.5-.84-.79-.32-1.53-.68-2.22-1.09l2.69-5.47c.74.47 1.52.88 2.33 1.24.68.32 1.45.61 2.31.86.86.26 1.74.38 2.64.38q1.02 0 1.41-.27c.27-.18.4-.42.4-.72 0-.32-.13-.59-.4-.82-.26-.22-.63-.42-1.09-.59-.47-.17-1.01-.34-1.61-.51-.61-.17-1.26-.38-1.94-.61-1-.34-1.86-.7-2.58-1.09-.72-.4-1.32-.85-1.8-1.34-.47-.5-.81-1.08-1.04-1.71-.23-.64-.34-1.38-.34-2.21 0-1.25.23-2.36.69-3.32s1.09-1.76 1.87-2.4a8.4 8.4 0 0 1 2.7-1.45c1.01-.33 2.08-.5 3.21-.5q1.245 0 2.43.24c.79.16 1.55.37 2.29.61s1.42.51 2.07.8c.64.28 1.21.55 1.73.81zM980.11 506.88c-.1-.81-.4-1.44-.89-1.91s-1.11-.71-1.88-.71-1.4.24-1.89.71-.79 1.1-.89 1.91zm-2.68 10.52c-1.47 0-2.79-.23-3.94-.68-1.15-.46-2.11-1.09-2.89-1.87a8.1 8.1 0 0 1-1.78-2.72c-.4-1.02-.61-2.1-.61-3.23 0-1.21.19-2.37.59-3.45.4-1.09.98-2.04 1.76-2.84.78-.81 1.74-1.46 2.88-1.94q1.71-.72 3.99-.72 2.235 0 3.96.72c1.15.48 2.12 1.12 2.89 1.92.78.8 1.37 1.73 1.76 2.79.4 1.05.59 2.15.59 3.3a12.791 12.791 0 0 1-.16 1.85h-11.8c.06.9.39 1.54.99 1.94.6.39 1.25.59 1.96.59q.99 0 1.86-.45c.59-.3.98-.72 1.17-1.25l5.15 1.47c-.69 1.34-1.74 2.44-3.15 3.29s-3.15 1.28-5.22 1.28M1006.67 505.45c-1.17 0-2.24.13-3.2.38s-1.68.68-2.14 1.28v9.97h-6.07v-16.82h5.56v3.2c.6-1.13 1.33-1.99 2.22-2.6a4.93 4.93 0 0 1 2.86-.91c.4 0 .66.01.77.04zM1019.28 517.08l-5.66-16.82h6.23l3.01 12.06 3.03-12.06h5.66l-5.66 16.82zM1039.72 498.86v-5.11h6.07v5.11zm0 18.22v-16.82h6.07v16.82zM1054.43 508.68c0-1.15.2-2.25.61-3.3.41-1.06 1-1.98 1.78-2.79.78-.8 1.74-1.44 2.89-1.92s2.47-.72 3.97-.72c2.05 0 3.76.43 5.13 1.28 1.38.85 2.4 1.95 3.08 3.29l-5.91 1.79c-.58-.83-1.35-1.24-2.33-1.24-.83 0-1.54.31-2.11.94-.58.63-.86 1.52-.86 2.67s.29 2.04.86 2.67c.58.63 1.28.94 2.11.94.98 0 1.76-.42 2.33-1.25l5.91 1.79c-.68 1.34-1.71 2.44-3.08 3.29s-3.08 1.28-5.13 1.28c-1.49 0-2.81-.24-3.97-.71-1.15-.48-2.11-1.12-2.89-1.92s-1.37-1.73-1.78-2.79a9.3 9.3 0 0 1-.61-3.3M1091.17 506.88c-.1-.81-.4-1.44-.89-1.91s-1.11-.71-1.88-.71-1.4.24-1.89.71-.79 1.1-.89 1.91zm-2.68 10.52c-1.47 0-2.79-.23-3.94-.68-1.15-.46-2.11-1.09-2.89-1.87a8.1 8.1 0 0 1-1.78-2.72c-.4-1.02-.61-2.1-.61-3.23 0-1.21.19-2.37.59-3.45.4-1.09.98-2.04 1.76-2.84.78-.81 1.74-1.46 2.88-1.94q1.71-.72 3.99-.72 2.235 0 3.96.72c1.15.48 2.12 1.12 2.89 1.92.78.8 1.37 1.73 1.76 2.79q.6 1.575.6 3.3a12.791 12.791 0 0 1-.16 1.85h-11.8c.06.9.39 1.54.99 1.94.6.39 1.25.59 1.96.59q.99 0 1.86-.45c.59-.3.98-.72 1.17-1.25l5.15 1.47c-.69 1.34-1.74 2.44-3.15 3.29-1.42.85-3.16 1.28-5.23 1.28M1126.66 504.68h3.29c.38 0 .74-.18 1.07-.53s.5-.98.5-1.9c0-.94-.19-1.58-.58-1.92-.38-.34-.77-.51-1.15-.51h-3.13zm-6.23 12.4v-22.7h9.78q1.665 0 3.06.69c.94.46 1.75 1.05 2.42 1.79s1.2 1.58 1.58 2.53.58 1.9.58 2.86c0 1-.18 1.97-.55 2.92-.36.95-.86 1.79-1.52 2.53-.65.74-1.44 1.32-2.36 1.76-.93.44-1.95.65-3.05.65h-3.71v6.97zM1157.97 505.45c-1.17 0-2.24.13-3.2.38s-1.68.68-2.14 1.28v9.97h-6.07v-16.82h5.56v3.2c.6-1.13 1.34-1.99 2.22-2.6a4.93 4.93 0 0 1 2.86-.91c.4 0 .66.01.77.04zM1171.73 508.68c0 1.13.27 2.01.83 2.65s1.27.96 2.15.96q1.305 0 2.13-.96c.56-.64.84-1.52.84-2.65s-.28-2.02-.84-2.65q-.825-.96-2.13-.96c-.88 0-1.59.32-2.15.96-.56.63-.83 1.51-.83 2.65m2.98 8.72c-1.52 0-2.85-.24-3.99-.71q-1.71-.72-2.88-1.92a8 8 0 0 1-1.76-2.79 9.5 9.5 0 0 1-.59-3.3c0-1.15.19-2.25.59-3.3.4-1.06.98-1.98 1.76-2.79q1.17-1.2 2.88-1.92t3.99-.72q2.235 0 3.96.72c1.15.48 2.12 1.12 2.89 1.92.78.8 1.37 1.73 1.76 2.79.4 1.05.59 2.15.59 3.3s-.2 2.25-.59 3.3a7.8 7.8 0 0 1-1.76 2.79c-.78.8-1.74 1.44-2.89 1.92-1.15.47-2.47.71-3.96.71M1196.24 517.08l-5.65-16.82h6.23l3.01 12.06 3.03-12.06h5.66l-5.66 16.82zM1216.69 498.86v-5.11h6.07v5.11zm0 18.22v-16.82h6.07v16.82zM1241.03 512.29c1.11 0 2.07-.58 2.87-1.73v-3.01c-.3-.74-.73-1.34-1.31-1.8q-.87-.69-1.83-.69c-.45 0-.86.1-1.23.29s-.69.46-.96.8c-.26.34-.48.74-.63 1.18q-.24.675-.24 1.44c0 1.06.3 1.92.91 2.55.62.65 1.42.97 2.42.97m-1.66 5.11c-1.15 0-2.22-.21-3.19-.63-.97-.43-1.8-1.03-2.51-1.81-.7-.78-1.25-1.71-1.64-2.79s-.59-2.25-.59-3.53q0-1.845.54-3.45c.36-1.06.87-1.98 1.52-2.76s1.42-1.39 2.32-1.82c.9-.44 1.89-.66 2.98-.66s2.08.25 2.99.74 1.61 1.18 2.09 2.07v-9.01h6.07v16.62c0 .58.09.98.26 1.2.17.23.47.36.89.4v5.11c-1.04.21-1.9.32-2.55.32-2.07 0-3.26-.78-3.58-2.33l-.12-.6c-.58 1.03-1.35 1.77-2.33 2.24-1 .45-2.04.69-3.15.69M1271.17 506.88c-.1-.81-.4-1.44-.89-1.91s-1.11-.71-1.88-.71-1.4.24-1.89.71-.79 1.1-.89 1.91zm-2.68 10.52c-1.47 0-2.79-.23-3.94-.68-1.15-.46-2.11-1.09-2.89-1.87a8.1 8.1 0 0 1-1.78-2.72c-.4-1.02-.6-2.1-.6-3.23 0-1.21.19-2.37.59-3.45.4-1.09.98-2.04 1.76-2.84.78-.81 1.74-1.46 2.88-1.94q1.71-.72 3.99-.72 2.235 0 3.96.72c1.15.48 2.12 1.12 2.89 1.92.78.8 1.37 1.73 1.76 2.79q.6 1.575.6 3.3a12.791 12.791 0 0 1-.16 1.85h-11.8c.06.9.39 1.54.99 1.94.6.39 1.25.59 1.96.59q.99 0 1.86-.45c.59-.3.98-.72 1.17-1.25l5.15 1.47c-.69 1.34-1.74 2.44-3.15 3.29-1.43.85-3.18 1.28-5.24 1.28M1297.72 505.45c-1.17 0-2.24.13-3.2.38s-1.68.68-2.14 1.28v9.97h-6.07v-16.82h5.56v3.2c.6-1.13 1.34-1.99 2.22-2.6a4.93 4.93 0 0 1 2.86-.91c.4 0 .66.01.77.04z" class="st4"/><path d="M1042.06 279.44c-1.67-1.67-4.7-3.93-9.11-6.79-4.41-2.85-9.76-5.65-16.07-8.38-6.31-2.74-13.15-5.06-20.54-6.96a89.5 89.5 0 0 0-22.5-2.86c-13.57 0-23.69 2.5-30.35 7.5-6.67 4.99-10 12.02-10 21.06 0 5.24 1.25 9.59 3.75 13.04s6.13 6.49 10.89 9.11 10.78 5 18.04 7.15c7.26 2.14 15.65 4.4 25.18 6.78 12.38 3.34 23.63 6.91 33.75 10.72 10.12 3.8 18.69 8.57 25.71 14.28s12.44 12.56 16.25 20.54 5.72 17.8 5.72 29.47c0 13.57-2.56 25.18-7.68 34.82s-12.02 17.44-20.71 23.4c-8.69 5.95-18.69 10.29-30.01 13.03-11.31 2.73-23.15 4.1-35.53 4.1-19.05 0-37.86-2.85-56.44-8.57-18.57-5.71-35.24-13.81-49.99-24.28l21.78-42.5c2.14 2.14 6.02 4.94 11.61 8.4 5.59 3.45 12.2 6.9 19.82 10.35s16.07 6.37 25.36 8.75 18.82 3.57 28.58 3.57c27.14 0 40.72-8.69 40.72-26.08 0-5.47-1.55-10.12-4.65-13.93-3.09-3.81-7.5-7.14-13.21-10-5.71-2.85-12.62-5.47-20.72-7.86-8.09-2.38-17.14-5-27.14-7.86-12.14-3.34-22.68-6.97-31.61-10.89-8.93-3.93-16.37-8.57-22.32-13.93s-10.41-11.55-13.39-18.58c-2.98-7.02-4.47-15.42-4.47-25.18 0-12.85 2.38-24.28 7.15-34.28 4.76-10 11.37-18.34 19.83-25s18.27-11.72 29.46-15.18 23.22-5.19 36.08-5.19c17.86 0 34.29 2.8 49.28 8.39q22.5 8.4 39.3 19.83zm-182.57-23.21h-81.07v210.36h-48.94V256.23h-81.07V213h211.07v43.23zM1159.33 338.37h57.14q13.575 0 22.68-11.07c6.08-7.38 9.12-17.39 9.12-30.01 0-6.43-.96-12.2-2.86-17.32s-4.4-9.47-7.5-13.04c-3.09-3.57-6.72-6.25-10.89-8.03-4.16-1.79-8.39-2.68-12.68-2.68h-55v82.15zm-49.29 128.22V213h107.5c11.67 0 22.44 2.44 32.32 7.33q14.82 7.32 25.53 19.29c7.15 7.97 12.74 17.02 16.79 27.14s6.08 20.3 6.08 30.53c0 10.71-1.91 21.13-5.72 31.26-3.81 10.12-9.17 19.1-16.08 26.96-6.9 7.86-15.24 14.17-25 18.93s-20.47 7.14-32.14 7.14h-60v85.01z" class="st3"/><path d="M719.24 96.53h-24.33v64.4h-23.26v-64.4h-24.44V76.26h72.03zM767.29 117.52c-4.37 0-8.34.48-11.92 1.43-3.58.96-6.24 2.54-7.99 4.76v37.21h-22.66V98.2h20.75v11.93c2.23-4.21 4.99-7.45 8.29-9.72s6.86-3.4 10.67-3.4c1.51 0 2.46.04 2.86.11zM798.97 145.91c1.35 0 2.74-.22 4.17-.65 1.43-.44 2.71-1.02 3.82-1.74.88-.63 1.59-1.33 2.14-2.08.56-.75.84-1.53.84-2.32v-4.65c-1.35-.48-2.82-.88-4.41-1.19q-2.385-.48-4.29-.48c-2.78 0-5.09.68-6.92 2.03s-2.75 3.06-2.75 5.13c0 1.75.69 3.18 2.08 4.29 1.4 1.1 3.17 1.66 5.32 1.66m-6.8 16.21c-3.1 0-6-.52-8.7-1.55-2.7-1.04-5.03-2.45-6.97-4.24a19.3 19.3 0 0 1-4.59-6.38c-1.11-2.46-1.67-5.13-1.67-7.99 0-3.18.67-6.08 2.03-8.7 1.35-2.62 3.22-4.89 5.6-6.8 2.39-1.91 5.23-3.38 8.53-4.41 3.3-1.04 6.94-1.56 10.91-1.56 5.09 0 9.3.79 12.64 2.38v-1.9c0-2.94-.86-5.13-2.56-6.56s-4.46-2.15-8.28-2.15c-3.58 0-6.88.58-9.9 1.73q-4.53 1.725-9.54 5.07L773.09 105c8.27-5.33 17.69-7.99 28.26-7.99 10.02 0 17.73 2.23 23.14 6.69 5.4 4.45 8.11 11.13 8.11 20.03v12.17c0 2.15.32 3.64.95 4.48.64.83 1.75 1.33 3.34 1.48v19.09c-1.83.4-3.55.69-5.19.89q-2.445.3-4.35.3c-4.05 0-7.13-.74-9.24-2.2-2.11-1.47-3.48-3.64-4.11-6.5l-.48-2.27c-2.79 3.58-6.01 6.31-9.66 8.17a25.6 25.6 0 0 1-11.69 2.78M908.36 160.93H885.7v-35.3c0-3.1-.7-5.34-2.09-6.73s-3-2.09-4.82-2.09c-1.91 0-3.94.84-6.09 2.51s-3.73 3.82-4.76 6.44v35.18h-22.66V98.2h20.39v9.31c2.23-3.42 5.35-6.02 9.37-7.81 4.01-1.79 8.76-2.69 14.24-2.69 4.3 0 7.7.78 10.2 2.32 2.5 1.55 4.41 3.48 5.73 5.78 1.31 2.31 2.17 4.77 2.56 7.4.4 2.63.6 5.01.6 7.16v41.26zM945.29 162.12c-5.48 0-10.85-.89-16.1-2.68-5.24-1.79-9.7-4.39-13.36-7.81l7.76-13.6c3.89 2.63 7.65 4.66 11.27 6.09s6.94 2.14 9.96 2.14c3.17 0 4.76-.99 4.76-2.99 0-1.11-.62-2.06-1.85-2.85-1.23-.8-3.63-1.71-7.2-2.75-4.46-1.27-8.18-2.53-11.16-3.76s-5.4-2.57-7.27-4c-1.86-1.43-3.2-3.03-4-4.77-.79-1.75-1.19-3.81-1.19-6.2 0-3.18.64-6.12 1.91-8.83 1.27-2.7 3.04-5.05 5.3-7.03 2.27-1.99 4.97-3.52 8.11-4.59 3.14-1.08 6.58-1.61 10.33-1.61 4.61 0 9 .6 13.17 1.79s8.37 3.62 12.59 7.27l-8.59 13.6c-3.9-2.55-7.16-4.36-9.79-5.43-2.62-1.08-5.08-1.61-7.39-1.61-1.35 0-2.47.26-3.34.78-.88.52-1.32 1.33-1.32 2.44 0 1.2.64 2.18 1.91 2.93s3.78 1.6 7.51 2.55c4.53 1.2 8.35 2.45 11.45 3.77 3.1 1.31 5.58 2.74 7.45 4.29s3.2 3.3 4 5.24c.79 1.95 1.19 4.19 1.19 6.73 0 3.26-.6 6.16-1.79 8.71-1.19 2.54-2.92 4.73-5.19 6.56s-5.01 3.22-8.23 4.17c-3.21.97-6.85 1.45-10.9 1.45M1058.98 103.92c-2.38-1.43-4.85-2.7-7.4-3.81-2.15-.95-4.55-1.85-7.21-2.68-2.67-.84-5.27-1.26-7.81-1.26-2.07 0-3.72.32-4.96.96-1.23.63-1.84 1.71-1.84 3.22 0 1.11.36 2.02 1.08 2.74s1.75 1.37 3.1 1.97 3 1.17 4.95 1.73 4.15 1.23 6.62 2.03c3.9 1.19 7.42 2.5 10.56 3.94 3.14 1.43 5.82 3.12 8.05 5.07s3.94 4.31 5.13 7.1c1.19 2.78 1.79 6.16 1.79 10.13 0 5.09-.94 9.36-2.8 12.82s-4.33 6.22-7.39 8.29q-4.59 3.09-10.38 4.47c-3.86.91-7.73 1.37-11.62 1.37q-4.65 0-9.54-.72c-3.26-.47-6.5-1.15-9.72-2.02-3.22-.88-6.32-1.91-9.31-3.1-2.98-1.2-5.74-2.55-8.29-4.06l10.02-20.39c2.79 1.75 5.69 3.3 8.71 4.65 2.54 1.2 5.42 2.27 8.65 3.23 3.22.96 6.5 1.43 9.84 1.43q3.825 0 5.31-1.02c.99-.68 1.49-1.57 1.49-2.68 0-1.2-.5-2.21-1.49-3.04s-2.37-1.57-4.12-2.2c-1.75-.64-3.76-1.28-6.02-1.91-2.27-.64-4.67-1.39-7.21-2.27q-5.595-1.905-9.66-4.11c-2.7-1.47-4.93-3.14-6.68-5.01s-3.04-4-3.88-6.38c-.83-2.39-1.25-5.13-1.25-8.23 0-4.69.86-8.83 2.56-12.4 1.71-3.58 4.03-6.56 6.97-8.94q4.41-3.585 10.08-5.43c3.78-1.23 7.78-1.85 12-1.85 3.1 0 6.12.3 9.06.89 2.94.6 5.79 1.35 8.53 2.27s5.3 1.91 7.68 2.99q3.585 1.605 6.45 3.03z" class="st4"/><defs><path id="SVGID_1_" d="M1078.6 96.49h69.46v90.33h-69.46z"/></defs><clipPath id="SVGID_2_"><use xlink:href="#SVGID_1_" style="overflow:visible"/></clipPath><path d="M1113.25 143.04q2.505 0 4.59-1.08a10.75 10.75 0 0 0 3.57-2.98c.99-1.27 1.79-2.75 2.38-4.42q.9-2.505.9-5.37c0-3.97-1.13-7.15-3.4-9.53-2.27-2.39-5.27-3.58-9.01-3.58-4.21 0-7.79 2.15-10.73 6.44v10.85c1.11 2.78 2.74 5.09 4.89 6.92 2.15 1.84 4.42 2.75 6.81 2.75m7.87 19.08c-4.53 0-8.46-.89-11.8-2.68s-5.92-4.39-7.75-7.81v34.7h-22.66V98.2h19.68v9.42c2.22-3.42 4.96-6.04 8.22-7.87s7.27-2.75 12.04-2.75c4.14 0 7.99.82 11.56 2.45 3.58 1.63 6.64 3.87 9.18 6.73 2.55 2.86 4.56 6.28 6.02 10.26 1.47 3.98 2.21 8.27 2.21 12.88 0 4.69-.68 9.04-2.03 13.05q-2.025 6.03-5.61 10.44c-2.38 2.94-5.2 5.23-8.46 6.86-3.25 1.64-6.79 2.45-10.6 2.45" style="clip-path:url(#SVGID_2_);fill:#454545"/><path d="M1196.99 122.88c-.4-3.02-1.51-5.41-3.34-7.16s-4.18-2.62-7.04-2.62-5.21.87-7.04 2.62-2.94 4.14-3.33 7.16zm-10.02 39.24c-5.49 0-10.38-.86-14.68-2.56-4.29-1.71-7.89-4.03-10.79-6.97a30.1 30.1 0 0 1-6.62-10.13c-1.51-3.82-2.27-7.83-2.27-12.05 0-4.53.73-8.83 2.2-12.88 1.47-4.06 3.66-7.6 6.56-10.61 2.91-3.02 6.49-5.43 10.74-7.21 4.25-1.79 9.2-2.69 14.85-2.69 5.56 0 10.49.9 14.78 2.69 4.3 1.79 7.9 4.17 10.8 7.16 2.9 2.98 5.09 6.44 6.56 10.37s2.21 8.05 2.21 12.34c0 1.19-.06 2.41-.18 3.64s-.26 2.32-.42 3.28h-44c.24 3.34 1.46 5.74 3.69 7.21s4.65 2.21 7.28 2.21c2.46 0 4.79-.56 6.97-1.67 2.19-1.11 3.64-2.66 4.36-4.65l19.2 5.48c-2.55 5.01-6.47 9.1-11.76 12.29-5.27 3.16-11.77 4.75-19.48 4.75" class="st4"/><defs><path id="SVGID_3_" d="M1224.9 73.75h74.33v88.52h-74.33z"/></defs><clipPath id="SVGID_4_"><use xlink:href="#SVGID_3_" style="overflow:visible"/></clipPath><path d="M1261.26 143.04c4.14 0 7.72-2.15 10.74-6.44v-11.21c-1.11-2.79-2.75-5.03-4.9-6.73-2.15-1.71-4.41-2.56-6.79-2.56-1.67 0-3.21.36-4.6 1.08-1.39.71-2.58 1.7-3.57 2.98-.99 1.27-1.79 2.74-2.38 4.41-.6 1.67-.89 3.46-.89 5.37 0 3.98 1.13 7.16 3.4 9.55 2.26 2.36 5.26 3.55 8.99 3.55m-6.2 19.08c-4.29 0-8.25-.79-11.86-2.38-3.62-1.59-6.74-3.83-9.37-6.73-2.62-2.91-4.67-6.37-6.14-10.38s-2.21-8.41-2.21-13.18c0-4.61.67-8.9 2.03-12.88 1.35-3.98 3.24-7.41 5.67-10.32 2.43-2.9 5.31-5.16 8.64-6.79 3.34-1.63 7.04-2.45 11.09-2.45s7.77.92 11.15 2.75c3.38 1.82 5.98 4.41 7.81 7.75V73.87h22.66v62.02c0 2.15.32 3.64.95 4.48.64.83 1.75 1.33 3.34 1.48v19.09c-3.89.79-7.07 1.19-9.54 1.19-7.71 0-12.16-2.9-13.36-8.7l-.47-2.27c-2.15 3.82-5.06 6.6-8.71 8.35-3.65 1.74-7.55 2.61-11.68 2.61" style="clip-path:url(#SVGID_4_);fill:#454545"/></svg>