<?xml version="1.0" encoding="UTF-8"?>
<svg 
  xmlns="http://www.w3.org/2000/svg" viewBox="0 0 48 48" fill="none">
  <g clip-path="url(#clip0_53_1944)">
    <rect x="4.5" y="36.5" width="5" height="7" stroke="#3B566E" stroke-width="3"/>
    <rect x="15.5" y="31.5" width="5" height="12" stroke="#3B566E" stroke-width="3"/>
    <path fill-rule="evenodd" clip-rule="evenodd" d="M8.5651 15.7796L2.47385 23.7488L11.2781 27.7934L10.2411 23.2013C22.6904 19.917 33.9197 13.0779 42.5529 3.5131L40.3258 1.50301C32.1073 10.6085 21.4245 17.1267 9.57984 20.2731L8.5651 15.7796Z" fill="#57C2F7"/>
    <path d="M41.5954 40.8192H44V42.4011C44 43.2448 43.7688 43.8927 43.3064 44.3446C42.8593 44.7815 42.2042 45 41.341 45H32.5318V43.0113C33.9807 41.7759 34.7052 40.4049 34.7052 38.8983C34.7052 38.6422 34.6667 38.3484 34.5896 38.0169H32V36.0734H33.8266C33.4104 35.1846 33.2023 34.3785 33.2023 33.6554C33.2023 32.2241 33.6724 31.0942 34.6127 30.2655C35.553 29.4218 36.7784 29 38.289 29C39.7225 29 40.9249 29.4143 41.896 30.2429C42.8671 31.0565 43.3988 32.1789 43.4913 33.6102H41.0867C41.025 32.7514 40.7399 32.1186 40.2312 31.7119C39.7225 31.29 39.0751 31.0791 38.289 31.0791C37.5029 31.0791 36.8555 31.3126 36.3468 31.7797C35.8536 32.2467 35.6069 32.9021 35.6069 33.7458C35.6069 34.3936 35.8227 35.1695 36.2543 36.0734H41.1561V38.0169H37.0173C37.079 38.3785 37.1098 38.6723 37.1098 38.8983C37.1098 40.209 36.5087 41.5499 35.3064 42.9209H40.7861C41.3256 42.9209 41.5954 42.6573 41.5954 42.1299V40.8192Z" fill="#57C2F7"/>
    <path fill-rule="evenodd" clip-rule="evenodd" d="M41 18H39V26H36V18V15H39H41H44V18V26H41V18ZM33 28V25V22H30H28H25V25V42V45H28V42V28V25H30V28H33Z" fill="#3B566E"/>
  </g>
  <defs>
    <clipPath id="clip0_53_1944">
      <rect width="48" height="48" fill="white"/>
    </clipPath>
  </defs>
</svg> 