<svg xmlns="http://www.w3.org/2000/svg" width="927" height="377"><path fill="#fefefe" d="M0 0h927v377H0z"/><path fill="#92aaed" d="M498 13c16.886.885 33.486 2.646 50.17 5.41 5.244.867 10.482 1.698 15.752 2.387C626.552 29.008 693.938 40.614 751 69l3.266 1.61c12.229 6.353 27.18 15.766 32.183 29.234 1.958 7.663-.325 13.249-4.011 20.031-29.38 37.667-101.278 48.602-146.326 54.647-2.974.143-2.974.143-4.112 1.478l2.75 1.875c4.15 3.501 6.12 7.872 7.25 13.125.631 8.13-.678 15.638-2.375 23.563-1.766 8.623-3.266 17.141-3.992 25.918-.356 4.06-1.068 6.607-2.633 10.519h-14l-2-5-2.082 1.059-2.73 1.379-2.708 1.37c-6.754 3.245-14.158 2.84-21.48 2.192-4.69-1.68-8.586-4.575-11-9-2.69-6.087-3.15-11.68-.973-17.965 4.97-10.918 11.917-16.883 23.07-21.074 8.235-2.726 16.256-3.453 24.903-3.961.393-4.014.346-6.374-1.625-9.937-5.504-3.364-11.1-2.841-17.375-2.063a51 51 0 0 0-7.914 3.223C595 192 595 192 591 191l-2-9-2.193.244-3.08.342-3.415.38-7.41.82c-5.463.605-10.927 1.212-16.386 1.859l-2.413.281q-2.14.251-4.28.515c-4.96.576-9.84.643-14.823.559v3l3.289-.016q6.018-.026 12.037-.039 2.609-.008 5.218-.02c2.494-.013 4.989-.018 7.483-.023l2.37-.015c1.869 0 3.736.051 5.603.113 1 1 1 1 1.133 3.145l-.008 2.667.008 2.645C572 201 572 201 571 205h-39l-1 9a383 383 0 0 1-1.375 8l-.797 4.414-.412 2.27q-.634 3.543-1.244 7.09l-.405 2.335a2173 2173 0 0 0-.765 4.446c-.507 2.91-1.066 5.638-2.002 8.445q-3.72.04-7.437.063l-2.143.025c-1.807.009-3.614-.036-5.42-.088-1.527-1.527-1.158-2.896-1.168-5.02.057-4.728.82-9.068 1.856-13.667 2.229-10.44 3.958-20.947 5.649-31.484l.612-3.774.542-3.391C517 191 517 191 518 189l-2.762.438a159 159 0 0 1-24.32 1.625l-2.908-.014q-3.505-.018-7.01-.049l.007 2.31q.03 10.749.045 21.498.007 5.528.023 11.055.016 5.33.02 10.659.003 2.038.01 4.075c.008 1.897.008 3.793.009 5.69l.006 3.277C481 252 481 252 480 253c-2.53.073-5.033.092-7.562.063l-2.155-.014q-2.64-.02-5.283-.049l-1-7-1.54 1.242-2.085 1.633-2.04 1.617c-7.407 4.782-16.823 4.515-25.335 3.508-7.912-2.243-14.233-7.43-18.469-14.426-4.331-8.298-5.877-15.718-5.844-25.012l-.048-2.736-.002-2.697-.01-2.404C409 204 409 204 412 196h-20l1 3c.097 1.692.138 3.388.145 5.082l.02 3.135.003 3.38.01 3.471q.007 3.633.007 7.265c.002 3.718.02 7.436.04 11.153q.005 3.525.005 7.05l.022 3.386-.01 3.125.005 2.759C393 251 393 251 391 253c-3.223.23-3.223.23-7.062.188l-3.848-.02C377 253 377 253 376 252a66 66 0 0 1-.19-4.317l-.05-2.783-.041-3.033-.056-3.106q-.088-4.943-.163-9.886-.076-4.911-.163-9.821a1483 1483 0 0 1-.097-6.12l-.05-2.84-.039-2.475c-.186-3.224-.694-6.422-1.151-9.619l-28 1c-.82 3.276-1.141 5.63-1.19 8.936l-.05 2.962-.041 3.176-.056 3.272c-.079 4.62-.147 9.242-.215 13.863q-.08 5.058-.167 10.115l-.04 3.194-.052 2.934-.038 2.594C344 252 344 252 343 253c-2.511.1-4.989.139-7.5.125l-2.129.012c-5.244-.01-5.244-.01-6.371-1.137a79 79 0 0 1-.114-4.795v-3.094l.016-3.365.005-3.426c.005-3.627.018-7.255.03-10.882q.008-3.679.014-7.358.017-9.04.049-18.08l-2.277.433-2.993.56-2.964.557c-2.96.481-5.771.612-8.766.45l.484 1.555c2.53 11.992.165 23.948-6.062 34.351-5.877 8.655-14.267 13.554-24.508 15.758-11.408 1.288-21.783-.485-30.914-7.664-7.042-6.372-11.114-13.696-13-23a85 85 0 0 1-.062-4.75l.027-2.422L236 215q-3.595.425-7.187.875l-2.042.238c-3.92.498-7.134 1.41-10.771 2.887-3.043.74-6.115 1.333-9.187 1.938-6.721 1.362-13.31 2.855-19.813 5.062.626 4.353 1.68 6.167 5.277 8.863 6.439 4.249 12.215 4.813 19.723 4.137 2.403-.526 4.652-1.248 7-2 2.938-.125 2.938-.125 5 0 1.583 4.326 2.451 8.429 3 13q-1.874.722-3.75 1.438l-2.11.808c-5.6 1.972-10.87 2.008-16.765 2.066l-2.871.088c-11.028.098-18.448-3.538-26.363-11.08-2.938-3.184-6.141-6.774-6.141-11.32-6.599 1.528-12.874 3.076-19 6l1 12-3.625 1.438-2.04.808c-4.1 1.324-8.141 1.788-12.429 1.93l-2.183.072q-2.223.064-4.446.094c-6.219.239-9.754 2.28-14.324 6.588-5.908 6.748-7.506 12.05-7.328 21.043.598 4.83 2.518 8.155 5.375 12.027l1.54 2.086c23.48 29.045 73.238 39.542 107.711 47.992q3.856.947 7.705 1.922c41.16 10.432 83.046 16.117 125.044 22v1a410 410 0 0 1-32.125-2.937l-4.05-.514c-44.197-5.623-88.508-12.803-131.716-23.764a810 810 0 0 0-8.64-2.125 496 496 0 0 1-25.219-6.785l-2.455-.733a189 189 0 0 1-12.722-4.347 532 532 0 0 0-6.85-2.557C75.639 305.712 75.639 305.712 65 284c-.812-2.437-.812-2.437-1-5l-.152-2.059c-.322-7.623 1.753-12.494 6.527-18.316C76.781 251.684 84.915 246.77 93 242c-.993-2.497-1.993-4.983-3.07-7.445-4.3-10.923-5.138-25.193-.97-36.356 5.051-10.69 10.86-17.602 21.884-22.281 9.741-2.833 20.254-1.734 29.156 3.082 8.087 5.23 12.68 13.283 14.727 22.645.628 5.414.59 10.918.273 16.355-1 1-1 1-3.018 1.12l-2.685-.006h-3.034l-3.298-.016-3.359-.005c-3.556-.005-7.112-.018-10.668-.03q-3.608-.008-7.213-.014-8.863-.017-17.725-.049.442 2.155.898 4.309l.506 2.423c.73 2.777 1.94 4.934 3.596 7.268 5.114-.565 9.565-1.786 14.375-3.625 7.468-2.741 15.03-5.032 22.688-7.187l3.206-.915c5.588-1.552 10.954-2.739 16.731-3.273l-.176-2.422c-.459-11.18 2.115-19.355 9.363-27.953 7.085-7.332 15.53-12.503 25.934-12.89q2.159-.008 4.316.015l2.159-.023c6.889.025 13.066 1.5 19.404 4.273q-.465 2.407-.937 4.813l-.528 2.707C225 189 225 189 224 192c-1.687.813-1.687.813-4 1l-2.68-.965c-6.635-2.069-16.03-2.792-22.382.528-5.532 4.59-8.81 8.061-10.61 15.183l-.768 2.986L183 213l2.161-.411c14.91-2.828 29.81-5.48 44.839-7.589l4.047-.578L237 204l.125-2.375c2.249-9.316 8.66-16.782 16.25-22.375L256 178l1.71-.84c9.021-3.75 20.932-3.605 30.228-.722 6.872 2.944 13.325 8.113 16.707 14.828 2.01 2.889 2.01 2.889 4.542 3.211 2.712.115 5.353.046 8.063-.102l2.836-.082q3.46-.107 6.914-.293l-.035-3.684q-.015-2.376-.027-4.754l-.026-2.431c-.009-2.044.036-4.088.088-6.131 1-1 1-1 4.16-1.098l3.902.036 3.91.027L342 176v8l1.977-1.46 2.648-1.915 2.602-1.898c7.517-4.68 16.025-4.928 24.558-3.145 5.156 1.745 7.752 3.834 11.027 8.168 2.324 2.834 3.43 4.086 7.047 4.867 3.423.009 6.735-.282 10.141-.617l3.855.023c6.593-.04 11.05-.17 15.957-4.835l2.098-2.176c5.195-5.001 11.507-6.246 18.527-6.512 8.177.261 15.09 2.518 21.563 7.5l-.016-3.564q-.026-6.522-.039-13.044-.008-2.827-.02-5.654c-.013-2.703-.018-5.406-.023-8.11l-.015-2.569c0-2.02.05-4.04.113-6.059 1.933-1.933 5.375-1.174 7.938-1.187l3.84-.043C479 142 479 142 481 144c.175 3.013.231 5.933.195 8.945l-.008 2.682c-.011 2.833-.037 5.665-.062 8.498q-.016 2.877-.027 5.754-.035 7.06-.098 14.121l1.873-.184c2.896-.28 5.793-.548 8.69-.816l2.943-.29c8.27-.753 16.088-.71 24.494-.71l6-36c7.408-.02 14.816-.041 22.223-.052q5.175-.007 10.349-.023c3.954-.013 7.908-.018 11.862-.023l3.762-.015h3.458l3.062-.007C582 146 582 146 583 147c.17 5.022-.159 8.953-1 14h-42l-3 18c110.585-9.957 110.585-9.957 203.559-61.965C744.38 111.64 746.1 105.615 745 99c-2.044-6.922-5.956-11.956-11-17l-1.55-1.55C714.264 63.71 687.834 55.705 665 48l-2.583-.89C609.659 28.987 553.064 21.575 498 14z"/><path fill="#ea721c" d="M498 13c16.886.885 33.486 2.646 50.17 5.41 5.244.867 10.482 1.698 15.752 2.387C626.552 29.008 693.938 40.614 751 69l3.266 1.61c12.229 6.353 27.18 15.766 32.183 29.234 1.958 7.663-.325 13.249-4.011 20.031-29.38 37.667-101.278 48.602-146.326 54.647-2.974.143-2.974.143-4.112 1.478l2.75 1.875c4.15 3.501 6.12 7.872 7.25 13.125.631 8.13-.678 15.638-2.375 23.563-1.766 8.623-3.266 17.141-3.992 25.918-.356 4.06-1.068 6.607-2.633 10.519h-14l-2-5-2.082 1.059-2.73 1.379-2.708 1.37c-6.754 3.245-14.158 2.84-21.48 2.192-4.69-1.68-8.586-4.575-11-9-2.69-6.087-3.15-11.68-.973-17.965 4.97-10.918 11.917-16.883 23.07-21.074 8.235-2.726 16.256-3.453 24.903-3.961.393-4.014.346-6.374-1.625-9.937-5.504-3.364-11.1-2.841-17.375-2.063a51 51 0 0 0-7.914 3.223C595 192 595 192 591 191l-2-9-2.193.244-3.08.342-3.415.38-7.407.82c-5.476.607-10.952 1.215-16.425 1.859l-2.426.281q-2.16.252-4.32.515c-4.614.533-9.098.626-13.734.559v-7a79.6 79.6 0 0 1 14.195-3.008q2.144-.268 4.286-.538l2.283-.283c100.174-10.303 100.174-10.303 183.795-59.136C744.38 111.64 746.1 105.615 745 99c-2.044-6.922-5.956-11.956-11-17l-1.55-1.55C714.264 63.71 687.834 55.705 665 48l-2.583-.89C609.659 28.987 553.064 21.575 498 14z"/><path fill="#93aaed" d="m471.938 141.813 3.84-.043C479 142 479 142 481 144c.175 3.013.231 5.933.195 8.945l-.008 2.682c-.011 2.833-.037 5.665-.062 8.498q-.016 2.877-.027 5.754-.035 7.06-.098 14.121l1.873-.184c2.896-.28 5.793-.548 8.69-.816.97-.095 1.942-.19 2.943-.29 8.27-.753 16.088-.71 24.494-.71l6-36c7.408-.02 14.816-.041 22.223-.052q5.175-.007 10.349-.023c3.954-.013 7.908-.018 11.862-.023l3.762-.015h3.458l3.062-.007C582 146 582 146 583 147c.17 5.022-.159 8.953-1 14h-42c-1.274 8.421-1.274 8.421-2.543 16.843l-.484 3.177-.492 3.253C536 187 536 187 535 190l3.289-.016q6.018-.026 12.037-.039 2.609-.008 5.218-.02c2.494-.013 4.989-.018 7.483-.023l2.37-.015c1.869 0 3.736.051 5.603.113 1 1 1 1 1.133 3.145l-.008 2.667.008 2.645C572 201 572 201 571 205h-39l-1 9a383 383 0 0 1-1.375 8l-.797 4.414-.412 2.27q-.634 3.543-1.244 7.09l-.405 2.335a2173 2173 0 0 0-.765 4.446c-.507 2.91-1.066 5.638-2.002 8.445q-3.72.04-7.437.063l-2.143.025c-1.807.009-3.614-.036-5.42-.088-1.527-1.527-1.158-2.896-1.168-5.02.057-4.728.82-9.068 1.856-13.667 2.229-10.44 3.958-20.947 5.649-31.484l.612-3.774.542-3.391C517 191 517 191 518 189l-2.762.438a159 159 0 0 1-24.32 1.625l-2.908-.014q-3.505-.018-7.01-.049l.007 2.31q.03 10.749.045 21.498.007 5.528.023 11.055.016 5.33.02 10.659.003 2.038.01 4.075c.008 1.897.008 3.793.009 5.69l.006 3.277C481 252 481 252 480 253c-2.53.073-5.033.092-7.562.063l-2.155-.014q-2.64-.02-5.283-.049l-1-7-1.54 1.242-2.085 1.633-2.04 1.617c-7.407 4.782-16.823 4.515-25.335 3.508-7.912-2.243-14.233-7.43-18.469-14.426-4.331-8.298-5.877-15.718-5.844-25.012l-.048-2.736-.002-2.697-.01-2.404C409 204 409 204 412 196l-21-1-1-6 2.336-.057c3.536-.108 7.067-.275 10.601-.443l3.674-.086c7.799-.423 12.063-1.7 17.45-7.473 5.014-5.021 11.513-6.181 18.377-6.441 8.176.261 15.09 2.518 21.562 7.5l-.016-3.564q-.026-6.522-.039-13.044-.008-2.827-.02-5.654c-.013-2.703-.018-5.406-.023-8.11l-.015-2.569c0-2.02.05-4.04.113-6.059 1.933-1.933 5.375-1.174 7.938-1.187"/><path fill="#082dba" d="M846.988 178.25c5.978 4.506 9.098 10.953 10.824 18.125L858 200l.223 2.57c.663 12.749-4.098 25.621-12.223 35.43-6.198 6.179-12.602 10.485-21 13l-1.773.578c-9.883 1.873-21.923 1.708-30.399-4.055-4.82-3.852-7.585-7.82-9.828-13.523l-1.25-2.75c-3.08-13.347.617-26.693 7.305-38.305 6.566-9.942 16.274-16.724 27.89-19.472 10.986-1.7 20.551-1.19 30.043 4.777"/><path fill="#0a30bb" d="M96 243c1.527 1.203 1.527 1.203 3.188 2.75 5.297 4.903 11.8 6.99 18.812 8.25v2c-1.61 1.516-1.61 1.516-3.75 3.25-5.572 4.744-8.772 9.031-9.523 16.45-.256 7.505.809 12.25 5.273 18.3l1.54 2.086c23.48 29.045 73.238 39.542 107.711 47.992q3.856.947 7.705 1.922c41.16 10.432 83.046 16.117 125.044 22v1a410 410 0 0 1-32.125-2.937l-4.05-.514c-44.197-5.623-88.508-12.803-131.716-23.764a810 810 0 0 0-8.64-2.125 496 496 0 0 1-25.219-6.785l-2.455-.733a189 189 0 0 1-12.722-4.347 532 532 0 0 0-6.85-2.557C75.639 305.712 75.639 305.712 65 284c-.812-2.437-.812-2.437-1-5l-.152-2.059c-.322-7.623 1.753-12.494 6.527-18.316C75.508 253.052 81.68 249.089 88 245c3.33-2.22 4.138-2.702 8-2"/><path fill="#082dba" d="M635.684 178.32c5.508 5.983 6.594 12.793 6.505 20.6-.327 5.32-1.45 10.442-2.564 15.643-1.766 8.623-3.266 17.141-3.992 25.918-.356 4.06-1.068 6.607-2.633 10.519h-14l-2-5-2.082 1.059-2.73 1.379-2.708 1.37c-6.754 3.245-14.158 2.84-21.48 2.192-4.69-1.68-8.586-4.575-11-9-2.69-6.087-3.15-11.68-.973-17.965 4.97-10.918 11.917-16.883 23.07-21.074 8.235-2.726 16.256-3.453 24.903-3.961.393-4.014.346-6.374-1.625-9.937-5.504-3.364-11.1-2.841-17.375-2.063a51 51 0 0 0-7.914 3.223C595 192 595 192 591 191l-2-11c13.54-7.35 33.252-12.213 46.684-1.68"/><path fill="#93aaee" d="M140 179c8.087 5.23 12.68 13.283 14.727 22.645.628 5.414.59 10.918.273 16.355-1 1-1 1-3.018 1.12l-2.685-.006h-3.034l-3.298-.016-3.359-.005c-3.556-.005-7.112-.018-10.668-.03q-3.608-.008-7.213-.014-8.863-.017-17.725-.049.449 2.16.91 4.316l.512 2.428c1.136 4.434 2.805 6.74 6.578 9.256l1.938 1.563c4.362 3.04 9.291 2.62 14.437 2.625l2.25.037c3.532.009 6.157-.151 9.54-1.3C143 237 143 237 149 238l2 12-3.625 1.438-2.04.808c-12.48 4.029-28.476 4.43-40.335-1.246-2.895-1.787-5.438-3.77-8-6l-2.09-1.371c-2.37-2.022-2.926-3.695-3.91-6.629l-1.07-2.445c-4.3-10.923-5.138-25.193-.97-36.356 5.051-10.69 10.86-17.602 21.884-22.281 9.741-2.833 20.254-1.734 29.156 3.082"/><path fill="#93abee" d="m46.438 146.563 2.77.011c6.84.146 12.668 1.23 18.792 4.426l2 1-1.437 4.813-.81 2.707A216 216 0 0 1 66 165c-2.225.946-3.475 1.163-5.797.441l-1.953-.879c-4.452-1.6-8.743-1.936-13.437-2l-2.052-.066c-5.044.02-7.895 1.337-11.761 4.504-2.476 3.713-2.54 6.696-2 11 3.519 8.148 11.41 10.65 19 14 9.382 4.195 20.105 9.392 24.41 19.41 2.004 8.8 1.892 19.304-2.086 27.512C66.251 245.314 61.001 249.239 54 252l-2.52 1.082c-5.036 1.328-9.916 1.301-15.105 1.293l-3.249-.005c-8.458-.131-16.923-.453-23.423-6.51L8 246q.713-2.72 1.438-5.437l.808-3.06C11 235 11 235 12 234c4.034.33 6.872.947 10.645 2.52 4.684 1.794 9.005 1.96 13.98 1.917l2.484.061c5.443-.004 8.594-.864 12.891-4.498 2.844-4.077 3.675-7.867 3.46-12.762-.867-4.216-3.105-6.655-6.46-9.238-2.52-1.392-5.07-2.519-7.727-3.629C17.566 198.441 17.566 198.441 12 187c-2.25-6.912-2.305-16.14.023-23.027 4.237-7.595 10.383-12.908 18.622-15.637 5.305-1.495 10.302-1.835 15.793-1.774"/><path fill="#082dba" d="M525 146q11.123-.034 22.244-.052 5.163-.007 10.328-.023c3.954-.013 7.908-.018 11.862-.023l3.762-.015h3.458l3.062-.007C582 146 582 146 583 147c.17 5.022-.159 8.953-1 14h-42c-1.274 8.421-1.274 8.421-2.543 16.843l-.484 3.177-.492 3.253C536 187 536 187 535 190l3.289-.016q6.018-.026 12.037-.039 2.609-.008 5.218-.02c2.494-.013 4.989-.018 7.483-.023l2.37-.015c1.869 0 3.736.051 5.603.113 1 1 1 1 1.133 3.145l-.008 2.667.008 2.645C572 201 572 201 571 205h-39l-1 9a383 383 0 0 1-1.375 8l-.797 4.414-.412 2.27q-.634 3.543-1.244 7.09l-.405 2.335a2173 2173 0 0 0-.765 4.446c-.507 2.91-1.066 5.638-2.002 8.445q-3.72.04-7.437.063l-2.143.025c-1.807.009-3.614-.036-5.42-.088-1.527-1.527-1.158-2.896-1.168-5.02.057-4.729.822-9.067 1.856-13.667 1.74-8.22 3.213-16.458 4.562-24.75 2.233-13.668 4.63-27.304 7.063-40.938l.554-3.106Q523.43 154.76 525 146"/><path fill="#93aaee" d="m205.438 174.75 2.158-.023c6.889.025 13.066 1.5 19.404 4.273q-.465 2.407-.937 4.813l-.528 2.707C225 189 225 189 224 192c-1.687.813-1.687.813-4 1l-2.68-.965c-6.635-2.069-16.03-2.792-22.382.528C187.66 198.6 184.925 203.663 183 213l4 1h-4c.28 1.814.575 3.626.875 5.438l.492 3.058L185 225l2 1 .25 2.25c1.064 3.9 3.508 5.61 6.75 7.75 6.303 3.584 13.037 4.087 20.086 2.543 1.643-.499 3.279-1.02 4.914-1.543 2.938-.125 2.938-.125 5 0 1.583 4.326 2.451 8.429 3 13q-1.874.722-3.75 1.438l-2.11.808c-5.6 1.972-10.87 2.008-16.765 2.066l-2.871.088c-11.028.098-18.448-3.538-26.363-11.08-2.938-3.184-6.141-6.774-6.141-11.32-8.097 1.762-8.097 1.762-15.812 4.688-3.646 1.5-6.28 1.383-10.188 1.312l-2.691.977c-4.004 1.238-7.522 1.365-11.684 1.335l-2.275-.003c-5.36-.094-9.524-.845-14.35-3.309v-3c10.632-5.06 21.895-8.024 33.192-11.204a587 587 0 0 0 7.331-2.132l3.727-1.101 3.14-.934C162 218 162 218 166 218l-.176-2.422c-.459-11.18 2.115-19.355 9.363-27.953 8.543-8.841 18.003-13.007 30.25-12.875"/><path fill="#082dba" d="M724 177c-.679 3.115-1.741 5.851-3.062 8.75l-1.098 2.422L719 190c-5.75.125-5.75.125-8-1-10.222-.67-18.673-1.185-26.883 5.543-6.056 5.537-9.767 12.248-10.32 20.48-.298 8.486-.298 8.486 3.203 15.977 4.608 4.596 8.272 6.146 14.75 6.188 4.877-.03 8.65-.686 13.25-2.188 2.875-.187 2.875-.187 5 0 1 1 1 1 1.098 3.723l-.035 3.34-.028 3.347L711 248c-11.013 5.205-26.187 6.857-37.875 2.895-7.944-3.704-12.81-8.656-16.5-16.52-3.97-11.06-1.595-22.635 2.375-33.375 6.62-13.356 16.475-21.225 30.121-26.879 11.484-3.531 23.835-.802 34.879 2.879"/><path fill="#092eba" d="M764 155q-.464 4.156-.937 8.313l-.264 2.38-.264 2.295-.238 2.11C762 172 762 172 761 175h18l-1 14h-20l-.812 6.938c-.712 5.95-1.677 11.804-2.813 17.687-1.433 7.537-1.704 14.691-1.375 22.375 2.638 1.32 4.623 1.061 7.563 1 1.812-.038 3.625-.047 5.437 0 1.57 1.57 1.17 3.143 1.188 5.313l.042 2.363c-.26 2.62-.719 4.165-2.23 6.324-4.04 1.312-8.166 1.258-12.375 1.313l-2.25.087c-5.269.06-8.192-.928-12.375-4.4-5.498-7.583-4.74-16.643-3.34-25.537.87-5.086 1.852-10.15 2.84-15.213l1.012-5.328c.818-4.31 1.65-8.616 2.488-12.922h-9c-1.13-5.023-.78-8.979 0-14h12l.402-3.43.535-4.445.264-2.262c.686-5.636.686-5.636 1.799-7.863 2.547-.887 2.547-.887 5.75-1.687l3.172-.825c3.075-.487 5.103-.309 8.078.512"/><path fill="#082dba" d="M919 173c2.213 3.485 2.046 5.634 1.25 9.625l-.547 2.914C919 188 919 188 917 190c-1.704.15-3.415.221-5.125.25-6.182.494-9.667 2.24-13.875 6.75-4.111 6.495-6.008 13.087-7.238 20.602l-.517 2.916c-.534 3.033-1.046 6.07-1.558 9.107q-.54 3.111-1.087 6.223-1.322 7.572-2.6 15.152h-16c-1.125-7.875-1.125-7.875-.427-11.564l.456-2.502.518-2.645.52-2.807c.551-2.955 1.117-5.906 1.683-8.857q.548-2.916 1.094-5.832 1.067-5.7 2.145-11.4 1.406-7.472 2.734-14.96l.366-2.051A173 173 0 0 0 880 174h14l2 7 1.504-1.242c6.957-5.518 12.704-7.066 21.496-6.758"/><path fill="#fbfcfd" d="M830 187c5.035 2.934 8.288 6.388 10 12 1.03 10.99-.98 20.698-7 30-4.444 4.885-8.975 8.496-15.684 9.336-4.44.063-7.64-.041-11.754-1.836-5.364-5.233-6.816-9.81-7.062-17.312.355-10.715 3.815-19.594 11.5-27.188 5.927-4.784 12.468-6.761 20-5"/><path fill="#fdfdfe" d="M449.965 192.746c6.122-.433 6.122-.433 8.723 1.524 5.303 6.192 4.632 12.065 4.75 19.855l.138 3.672c.087 6.899-.311 11.381-4.9 16.697-4.068 3.657-8.313 5.682-13.801 5.944-5.719-.646-9.15-2.42-13.062-6.563-5.874-7.385-6.72-15.676-5.813-24.875.674-3.193 1.677-6.024 3-9l1.313-3.5c5.285-4.917 12.831-3.17 19.652-3.754"/><path fill="#fcfcfe" d="M292 206c1.874 1.874 1.26 4.866 1.313 7.375-.088 7.785-.92 14.85-6.29 20.824-5.771 5.174-9.29 6.162-17.043 6.078-5.458-.508-7.98-3.255-11.668-7.027-5.16-7.253-5.749-13.452-5.312-22.25l3.148-.586 2.032-.38q2.21-.412 4.423-.82a276 276 0 0 0 11.584-2.401c5.861-1.2 11.858-1.2 17.813-.813"/><path fill="#0e33bc" d="m166 219 2 12a975 975 0 0 1-8.562 3.5l-2.424 1.012c-4.94 1.976-8.633 2.642-14.014 2.488l-2.914.98c-3.905 1.29-7.378 1.361-11.461 1.333l-2.275-.004c-5.36-.094-9.524-.845-14.35-3.309v-3c10.613-5.05 21.857-8.01 33.136-11.177 3.568-1.025 7.107-2.135 10.642-3.267 3.477-.87 6.656-.754 10.222-.556"/><path fill="#0f32bc" d="m277 270.813 2.563.019c2.437.168 2.437.168 4.375.68 2.711.642 5.286.551 8.062.488.117 3.562.187 7.124.25 10.688l.102 3.052c.098 7.474.098 7.474-2.118 11.342-4.431 3.804-7.3 4.174-13.171 4.106l-3.653-.02c-2.929-.144-5.564-.493-8.41-1.168l1-3 2.922.035 3.828.027 3.797.036c2.738-.078 4.872-.27 7.453-1.098l1-5-3 1c-2.12.17-4.248.266-6.375.313l-3.398.113c-3.88-.512-5.463-1.717-8.227-4.426-1.61-3.221-1.602-6.517-1-10 3.931-5.023 7.653-7.294 14-7.187"/><path fill="#0f33bc" d="M236 205v9l-3.516.77c-7.804 1.716-15.586 3.47-23.332 5.437a1153 1153 0 0 1-12.152 2.98c-1.096.27-1.096.27-2.215.543-3.392.81-6.274 1.27-9.785 1.27-2.335-3.648-2.08-6.761-2-11 11.766-2.868 23.54-5.393 35.5-7.312l3.197-.52c4.808-.746 9.42-1.394 14.303-1.168M656.313 271.688l3.925-.114c4.35.493 6.404 1.673 9.762 4.426 2.36 3.541 2.573 4.828 2 9-2.457 3.992-4.268 6.102-8.812 7.375-7.058 1.287-12.812 1.126-19.188-2.375-2.934-2.556-3-4.001-3.5-7.937.123-3.479.509-4.074 2.813-7 4.28-3.285 7.72-3.276 13-3.375"/><path fill="#f7f8fc" d="M622 214c-.03 8.1-1.281 14.03-7 20-4.025 3.17-8.092 5.245-13.25 5.625C598 239 598 239 595 236.938c-2.51-3.687-2.626-5.555-2-9.938 2.23-5.203 6.125-8.754 11.262-10.98 5.969-1.996 11.48-2.38 17.738-2.02"/><path fill="#0b30bb" d="M135.848 263.902 142 264l.854 1.633 3.896 7.43 1.344 2.568c2.012 3.832 4.04 7.634 6.234 11.365C156 290 156 290 156 292h-7c-4-6.75-4-6.75-4-9h-14l-2 6-2 3c-3.625.188-3.625.188-7 0 1.36-3.517 2.882-6.892 4.566-10.266l1.471-2.945 1.525-3.039 1.538-3.086 1.466-2.93 1.342-2.68c1.61-3.029 1.61-3.029 3.94-3.152"/><path fill="#fdfdfe" d="M127 189c4.566 1.787 7.282 4.961 10 9v7h-33c3.378-10.134 3.378-10.134 6.563-12.5l1.816-1.406c4.501-3.037 9.355-2.507 14.621-2.094"/><path fill="#052bba" d="M192 264h7v12h19v-12h6v28h-6v-13h-19v13h-7z"/><path fill="#1436bc" d="M576 271c3.91 1.99 5.577 3.365 8 7v5h-21c2.35 5.145 2.35 5.145 6 6 2.061.069 4.125.085 6.188.063l3.292-.028L581 289l1 3c-8.313 1.415-15.39 2.11-23-2-2.047-1.639-2.889-2.504-3.469-5.086-.059-4.343-.005-6.295 2.719-9.851 5.797-4.348 10.572-4.925 17.75-4.063M498 271c3.91 1.99 5.577 3.365 8 7v5h-21c2.35 5.145 2.35 5.145 6 6 2.061.069 4.125.085 6.188.063l3.292-.028L503 289l1 3c-8.313 1.415-15.39 2.11-23-2-2.047-1.639-2.889-2.504-3.469-5.086-.059-4.343-.005-6.295 2.719-9.851 5.797-4.348 10.572-4.925 17.75-4.063M370 271c3.91 1.99 5.577 3.365 8 7v5h-21c2.35 5.145 2.35 5.145 6 6 2.061.069 4.125.085 6.188.063l3.292-.028L375 289l1 3c-8.313 1.415-15.39 2.11-23-2-2.047-1.639-2.889-2.504-3.469-5.086-.059-4.343-.005-6.295 2.719-9.851 5.797-4.348 10.572-4.925 17.75-4.063"/><path fill="#0b2fbb" d="M309 263h6v10l1.938-1c4.109-1.342 7.779-1.625 12.062-1 5.64 2.92 5.64 2.92 7 7 .07 2.395.084 4.792.063 7.188l-.028 3.855L336 292h-7l-.148-2.992-.227-3.883c-.07-1.276-.14-2.552-.21-3.867-.087-3.339-.087-3.339-2.415-5.258-4.557-.52-4.557-.52-8.68 1.102-1.937 2.786-1.841 5.23-2.007 8.586l-.2 3.574L315 292h-6z"/><path fill="#1134bc" d="M798 272h7l.113 3.21q.099 2.083.2 4.165l.068 2.117c.089 2.28.089 2.28.619 5.508 2.827 2.333 2.827 2.333 6.063 1.75 3.036-.51 3.036-.51 4.937-2.75.3-2.365.495-4.744.625-7.125l.227-3.883L818 272h7v20h-9l-3 1c-5.622.432-9.098-.45-14-3-1.594-3.188-1.102-6.629-1.062-10.125l.013-2.285q.02-2.795.049-5.59"/><path fill="#0f34bc" d="M286.675 197.79 289 198c2 3 2 3 2 7l-2.063.332c-4.672.764-9.337 1.536-13.98 2.469-7.052 1.409-13.727 2.586-20.957 2.199l1-8c6.224-1.737 12.257-2.57 18.687-3.125l2.8-.262c3.394-.308 6.79-.556 10.188-.823"/><path fill="#e67528" d="m519 182-1 7c-12.392 1.963-24.473 2.238-37 2v-6c12.786-2.298 25.038-3.157 38-3"/><path fill="#052bba" d="M727 264h32v3h-12v25h-7v-25h-13z"/><path fill="#0d31bb" d="M516 272h8q1.507 2.935 3 5.875l1.688 3.305C530 284 530 284 530 286h2l.688-2.5c1.577-4.208 3.162-8.22 6.312-11.5 3.813-.5 3.813-.5 7 0-1.616 3.36-3.3 6.681-5 10l-1.387 2.89-1.426 2.735-1.269 2.54C535 292 535 292 531.141 292.792c-2.701-.154-3.777-.43-5.71-2.356-1.456-2.188-2.677-4.406-3.869-6.75l-1.31-2.38c-1.674-3.079-3.142-5.977-4.252-9.307"/><path fill="#072cba" d="M703 262v3l-3.375.375c-3.656.272-3.656.272-5.625 2.625-.643 2.069-.643 2.069-1 4h7v3h-7v17h-7v-17h-4v-3h4l.313-2.812c.706-3.277.969-4.343 3.687-6.188 4.26-1.34 8.578-1.075 13-1"/><path fill="#f5f6fc" d="M281.375 190.25c2.583 1.722 4.63 3.372 6.625 5.75v2c-10.646 1.969-21.2 2.567-32 3 5.027-10.666 14.094-14.928 25.375-10.75"/><path fill="#052bba" d="M443 264h7v25h18v3h-25z"/><path fill="#1839bd" d="m859 272-1 3-11 1v2l2.59.918 3.347 1.27 3.34 1.23C859 283 859 283 859.98 285.535c.02 2.465.02 2.465-1.605 4.715-4.773 3.517-10.641 3.115-16.375 2.75l-3-1 1-4 1.563.5c3.17.65 6.21.562 9.437.5v-4l-1.863-.55c-.809-.252-1.617-.504-2.45-.762l-2.425-.739c-2.4-1.007-3.678-1.895-5.262-3.949.125-2.562.125-2.562 1-5 5.528-3.686 12.715-4.095 19-2"/><path fill="#0a2fbb" d="M883 266v6h8v3h-8l1 13 6 1v3c-2.569 1.284-4.152.998-7 .75l-2.687-.203C878 292 878 292 876 289c-.195-3.355-.195-3.355-.125-7.187l.055-3.856L876 275h-5v-3h5v-5c3-1 3-1 7-1"/><path fill="#f3f4fa" d="M658.023 274.55c3.526.802 5.009 2.53 6.977 5.45.162 3.98-.492 5.449-3.187 8.375-3.376 1.95-4.98 2.344-8.813 1.625-3.363-2.486-4.8-3.914-5.562-8.062C648 279 648 279 649.5 276.625c2.872-1.867 5.102-2.26 8.523-2.074"/><path fill="#f8f9fc" d="M279.844 274.566c2.67.537 3.568 1.239 5.156 3.434.61 2.726.503 5.258 0 8-2.28 2.918-3.826 2.978-7.5 3.438-3.5-.438-3.5-.438-5.937-2.063-2.022-3.073-2.09-4.757-1.563-8.375 1.909-4.836 5.218-4.441 9.844-4.434"/><path fill="#052bba" d="M598 263h6v29h-6z"/><path fill="#d08460" d="M498 13c16.846.883 33.405 2.642 50.052 5.389C560.672 20.466 573.334 22.23 586 24l-3 1v2c-6.345-.633-12.53-1.595-18.79-2.797-13.474-2.515-27.023-4.48-40.585-6.453l-7.504-1.102Q507.061 15.318 498 14z"/><path fill="#0a2fbb" d="M785 271v4l-3.375.813c-3.843.845-3.843.845-5.625 4.187-.46 2.968-.46 2.968-.625 6.188l-.227 3.292L775 292h-6v-20h8c2.709-1.354 5.01-1.065 8-1M408 271v4l-3.375.813c-3.843.845-3.843.845-5.625 4.187-.46 2.968-.46 2.968-.625 6.188l-.227 3.292L398 292h-6v-20h8c2.709-1.354 5.01-1.065 8-1"/><path fill="#e56f1e" d="M390 189h26l-3 6h-22z"/><path fill="#7489d8" d="m288.461 358.816 3.753.583L296 360q3.364.487 6.73.961L352 368v1a410 410 0 0 1-32.125-2.938l-4.05-.513a1210 1210 0 0 1-33.2-4.674l-3.273-.508L277 360v-1c4.101-1.078 7.292-.854 11.461-.184"/><path fill="#052bba" d="M242 272h6v20h-6z"/><path fill="#0e32bc" d="M327 194v7c-6.026 1.071-11.89 1.1-18 1l-1-6q3.624-.505 7.25-1l2.066-.29c3.278-.445 6.368-.71 9.684-.71"/><path fill="#0c31bc" d="m361 191.688 2.195-.05c5.28-.004 5.28-.004 7.805 1.757 1 1.605 1 1.605 1 3.605-8.021.714-15.946 1.145-24 1 2.72-6.279 6.73-6.34 13-6.312"/><path fill="#2e4ec5" d="m252.215 352.004 2.722.558 3.168.622L262 354q2.619.52 5.238 1.035c4.924.971 9.844 1.962 14.762 2.965v1c-8.125.291-15.7-.552-23.687-2l-3.319-.578q-3.999-.699-7.994-1.422c2.723-3 2.723-3 5.215-2.996"/><path fill="#f2f3fa" d="M571 274.188c3.013.816 4.202 1.315 6 3.812v2h-14c3.06-6.121 3.06-6.121 8-5.812M493 274.188c3.013.816 4.202 1.315 6 3.812v2h-14c3.06-6.121 3.06-6.121 8-5.812M365 274.188c3.013.816 4.202 1.315 6 3.812v2h-14c3.06-6.121 3.06-6.121 8-5.812"/><path fill="#edeef8" d="M137 270c3.366 2.725 4.442 6.069 6 10h-10c1.11-3.487 2.263-6.775 4-10"/><path fill="#e67121" d="m445.375 189.813 2.836-.043c2.95.243 5.113.999 7.789 2.23v1h-20c1.875-3.75 5.63-3.162 9.375-3.187"/><path fill="#3352c6" d="m80 250 2 1-14 14c0-4.903 3.702-7.613 7-11 1.625-1.383 3.274-2.745 5-4"/><path fill="#1839bd" d="M242 264q3.51.43 7 1l-1 4h-6c-.562-1.937-.562-1.937-1-4z"/><path fill="#d2d9f2" d="m118 255 2 1a1072 1072 0 0 1-4.875 5l-2.742 2.813C110 266 110 266 108 266c1.448-3.444 3.277-5.361 6.125-7.75l2.195-1.86z"/><path fill="#2143c1" d="M266 356c2.105.114 4.209.242 6.313.375 1.171.07 2.343.14 3.55.21C279 357 279 357 282 359a399 399 0 0 1-5.187.125l-2.918.07c-3.023-.204-5.163-.926-7.895-2.195z"/><path fill="#db8451" d="m579.262 22.926 2.426.387 2.449.363L586 24l-3 1v2l-9-1c3-3 3-3 5.262-3.074"/><path fill="#e57930" d="M583 25h6v3h-5z"/></svg>