<?xml version="1.0" encoding="UTF-8"?>
<svg id="Layer_1" xmlns="http://www.w3.org/2000/svg" version="1.1" viewBox="0 0 927 377">
  <!-- Generator: Adobe Illustrator 30.1.0, SVG Export Plug-In . SVG Version: 2.1.1 Build 136)  -->
  <defs>
    <style>
      .st0 {
        fill: #092eba;
      }

      .st1 {
        fill: #0f33bc;
      }

      .st2 {
        fill: #1839bd;
      }

      .st3 {
        fill: #fdfdfe;
      }

      .st4 {
        fill: #2143c1;
      }

      .st5 {
        fill: #92aaed;
      }

      .st6 {
        fill: #072cba;
      }

      .st7 {
        fill: #d2d9f2;
      }

      .st8 {
        fill: #3352c6;
      }

      .st9 {
        fill: #0e32bc;
      }

      .st10 {
        fill: #0e33bc;
      }

      .st11 {
        fill: #f7f8fc;
      }

      .st12 {
        fill: #93aaee;
      }

      .st13 {
        fill: #0b2fbb;
      }

      .st14 {
        fill: #0a30bb;
      }

      .st15 {
        fill: #f2f3fa;
      }

      .st16 {
        fill: #0f32bc;
      }

      .st17 {
        fill: #0d31bb;
      }

      .st18 {
        fill: #e67528;
      }

      .st19 {
        fill: #e67121;
      }

      .st20 {
        fill: #f5f6fc;
      }

      .st21 {
        fill: #e56f1e;
      }

      .st22 {
        fill: #0f34bc;
      }

      .st23 {
        fill: #1436bc;
      }

      .st24 {
        fill: #ea721c;
      }

      .st25 {
        fill: #93abee;
      }

      .st26 {
        fill: #fefefe;
      }

      .st27 {
        fill: #f8f9fc;
      }

      .st28 {
        fill: #052bba;
      }

      .st29 {
        fill: #d08460;
      }

      .st30 {
        fill: #0b30bb;
      }

      .st31 {
        fill: #f3f4fa;
      }

      .st32 {
        fill: #2e4ec5;
      }

      .st33 {
        fill: #fbfcfd;
      }

      .st34 {
        fill: #e57930;
      }

      .st35 {
        fill: #7489d8;
      }

      .st36 {
        fill: #0a2fbb;
      }

      .st37 {
        fill: #93aaed;
      }

      .st38 {
        fill: #1134bc;
      }

      .st39 {
        fill: #edeef8;
      }

      .st40 {
        fill: #082dba;
      }

      .st41 {
        fill: #fcfcfe;
      }

      .st42 {
        fill: #0c31bc;
      }

      .st43 {
        fill: #db8451;
      }
    </style>
  </defs>
  <path class="st26" d="M0,0h927v377H0V0Z"/>
  <path class="st5" d="M498,13c16.89.89,33.49,2.65,50.17,5.41,5.24.87,10.48,1.7,15.75,2.39,62.63,8.21,130.02,19.82,187.08,48.2l3.27,1.61c12.23,6.35,27.18,15.77,32.18,29.23,1.96,7.66-.33,13.25-4.01,20.03-29.38,37.67-101.28,48.6-146.33,54.65q-2.97.14-4.11,1.48l2.75,1.88c4.15,3.5,6.12,7.87,7.25,13.12.63,8.13-.68,15.64-2.38,23.56-1.77,8.62-3.27,17.14-3.99,25.92-.36,4.06-1.07,6.61-2.63,10.52h-14l-2-5-2.08,1.06-2.73,1.38-2.71,1.37c-6.75,3.24-14.16,2.84-21.48,2.19-4.69-1.68-8.59-4.57-11-9-2.69-6.09-3.15-11.68-.97-17.96,4.97-10.92,11.92-16.88,23.07-21.07,8.23-2.73,16.26-3.45,24.9-3.96.39-4.01.35-6.37-1.62-9.94-5.5-3.36-11.1-2.84-17.38-2.06-2.72.85-5.37,1.93-7.91,3.22q-2.09.78-6.09-.22l-2-9-2.19.24-3.08.34-3.41.38-7.41.82c-5.46.6-10.93,1.21-16.39,1.86l-2.41.28c-1.43.17-2.85.34-4.28.51-4.96.58-9.84.64-14.82.56v3l3.29-.02c4.01-.02,8.02-.03,12.04-.04,1.74,0,3.48-.01,5.22-.02,2.49-.01,4.99-.02,7.48-.02h2.37c1.87-.01,3.74.04,5.6.1q1,1,1.13,3.15v2.67s0,2.65,0,2.65q-.13,2.54-1.13,6.54h-39l-1,9c-.43,2.67-.89,5.34-1.38,8l-.8,4.41-.41,2.27c-.42,2.36-.84,4.73-1.24,7.09l-.41,2.34c-.26,1.48-.51,2.96-.77,4.45-.51,2.91-1.07,5.64-2,8.44-2.48.03-4.96.05-7.44.06l-2.14.02c-1.81,0-3.61-.04-5.42-.09-1.53-1.53-1.16-2.9-1.17-5.02.06-4.73.82-9.07,1.86-13.67,2.23-10.44,3.96-20.95,5.65-31.48l.61-3.77.54-3.39q.51-2.66,1.51-4.66l-2.76.44c-8.05,1.16-16.18,1.71-24.32,1.62h-2.91c-2.34-.03-4.67-.04-7.01-.06v2.31c.03,7.17.04,14.33.05,21.5,0,3.69.01,7.37.02,11.06.01,3.55.02,7.11.02,10.66,0,1.36,0,2.72.01,4.07,0,1.9,0,3.79,0,5.69v3.28q-.11,2.44-1.11,3.44c-2.53.07-5.03.09-7.56.06h-2.15c-1.76-.03-3.52-.04-5.28-.06l-1-7-1.54,1.24-2.08,1.63-2.04,1.62c-7.41,4.78-16.82,4.51-25.33,3.51-7.91-2.24-14.23-7.43-18.47-14.43-4.33-8.3-5.88-15.72-5.84-25.01l-.05-2.74v-2.7s-.01-2.4-.01-2.4q.37-2.73,3.37-10.73h-20l1,3c.1,1.69.14,3.39.14,5.08l.02,3.13v3.38s.01,3.47.01,3.47c0,2.42,0,4.84,0,7.26,0,3.72.02,7.44.04,11.15,0,2.35,0,4.7,0,7.05l.02,3.39v3.12s0,2.76,0,2.76q-.25,2.19-2.25,4.19-3.22.23-7.06.19l-3.85-.02q-3.09-.17-4.09-1.17c-.11-1.44-.17-2.88-.19-4.32l-.05-2.78-.04-3.03-.06-3.11c-.06-3.3-.11-6.59-.16-9.89-.05-3.27-.11-6.55-.16-9.82-.04-2.04-.07-4.08-.1-6.12l-.05-2.84-.04-2.48c-.19-3.22-.69-6.42-1.15-9.62l-28,1c-.82,3.28-1.14,5.63-1.19,8.94l-.05,2.96-.04,3.18-.06,3.27c-.08,4.62-.15,9.24-.21,13.86-.05,3.37-.11,6.74-.17,10.12l-.04,3.19-.05,2.93-.04,2.59q-.15,1.95-1.15,2.95c-2.51.1-4.99.14-7.5.12h-2.13q-5.24,0-6.37-1.12c-.09-1.6-.12-3.2-.11-4.79v-3.09l.02-3.37v-3.43c.01-3.63.02-7.26.04-10.88,0-2.45.01-4.91.01-7.36.01-6.03.03-12.05.05-18.08l-2.28.43-2.99.56-2.96.56c-2.96.48-5.77.61-8.77.45l.48,1.55c2.53,11.99.17,23.95-6.06,34.35-5.88,8.65-14.27,13.55-24.51,15.76-11.41,1.29-21.78-.49-30.91-7.66-7.04-6.37-11.11-13.7-13-23-.06-1.58-.09-3.17-.06-4.75l.03-2.42.04-1.83c-2.4.28-4.79.57-7.19.88l-2.04.24c-3.92.5-7.13,1.41-10.77,2.89-3.04.74-6.12,1.33-9.19,1.94-6.72,1.36-13.31,2.85-19.81,5.06.63,4.35,1.68,6.17,5.28,8.86,6.44,4.25,12.21,4.81,19.72,4.14,2.4-.53,4.65-1.25,7-2q2.94-.12,5,0c1.58,4.33,2.45,8.43,3,13-1.25.48-2.5.96-3.75,1.44l-2.11.81c-5.6,1.97-10.87,2.01-16.76,2.07l-2.87.09c-11.03.1-18.45-3.54-26.36-11.08-2.94-3.18-6.14-6.77-6.14-11.32-6.6,1.53-12.87,3.08-19,6l1,12-3.62,1.44-2.04.81c-4.1,1.32-8.14,1.79-12.43,1.93l-2.18.07c-1.48.04-2.96.07-4.45.09-6.22.24-9.75,2.28-14.32,6.59-5.91,6.75-7.51,12.05-7.33,21.04.6,4.83,2.52,8.15,5.38,12.03l1.54,2.09c23.48,29.05,73.24,39.54,107.71,47.99,2.57.63,5.14,1.27,7.71,1.92,41.16,10.43,83.05,16.12,125.04,22v1c-10.74-.56-21.46-1.54-32.12-2.94l-4.05-.51c-44.2-5.62-88.51-12.8-131.72-23.76-2.88-.72-5.76-1.43-8.64-2.12-8.46-2.04-16.87-4.3-25.22-6.79l-2.46-.73c-4.29-1.3-8.53-2.75-12.72-4.35-2.28-.87-4.56-1.72-6.85-2.56q-52.58-19.53-63.22-41.24-.81-2.44-1-5l-.15-2.06c-.32-7.62,1.75-12.49,6.53-18.32,6.41-6.94,14.54-11.85,22.62-16.62-.99-2.5-1.99-4.98-3.07-7.45-4.3-10.92-5.14-25.19-.97-36.36,5.05-10.69,10.86-17.6,21.88-22.28,9.74-2.83,20.25-1.73,29.16,3.08,8.09,5.23,12.68,13.28,14.73,22.65.63,5.41.59,10.92.27,16.35q-1,1-3.02,1.12h-2.68s-3.03,0-3.03,0l-3.3-.02h-3.36c-3.56-.01-7.11-.02-10.67-.04-2.41,0-4.81,0-7.21-.01-5.91-.01-11.82-.03-17.72-.05.29,1.44.59,2.87.9,4.31l.51,2.42c.73,2.78,1.94,4.93,3.6,7.27,5.11-.57,9.57-1.79,14.38-3.62,7.47-2.74,15.03-5.03,22.69-7.19l3.21-.91c5.59-1.55,10.95-2.74,16.73-3.27l-.18-2.42c-.46-11.18,2.12-19.35,9.36-27.95,7.09-7.33,15.53-12.5,25.93-12.89,1.44,0,2.88,0,4.32.01l2.16-.02c6.89.02,13.07,1.5,19.4,4.27-.31,1.6-.62,3.21-.94,4.81l-.53,2.71q-.54,2.48-1.54,5.48-1.69.81-4,1l-2.68-.96c-6.63-2.07-16.03-2.79-22.38.53-5.53,4.59-8.81,8.06-10.61,15.18l-.77,2.99-.56,2.27,2.16-.41c14.91-2.83,29.81-5.48,44.84-7.59l4.05-.58,2.95-.42.12-2.38c2.25-9.32,8.66-16.78,16.25-22.38l2.62-1.25,1.71-.84c9.02-3.75,20.93-3.6,30.23-.72,6.87,2.94,13.33,8.11,16.71,14.83q2.01,2.89,4.54,3.21c2.71.12,5.35.05,8.06-.1l2.84-.08c2.31-.07,4.61-.17,6.91-.29l-.04-3.68c-.01-1.58-.02-3.17-.03-4.75l-.03-2.43c0-2.04.04-4.09.09-6.13q1-1,4.16-1.1l3.9.04,3.91.03,3.03.04v8l1.98-1.46,2.65-1.91,2.6-1.9c7.52-4.68,16.02-4.93,24.56-3.15,5.16,1.74,7.75,3.83,11.03,8.17,2.32,2.83,3.43,4.09,7.05,4.87,3.42,0,6.73-.28,10.14-.62l3.86.02c6.59-.04,11.05-.17,15.96-4.84l2.1-2.18c5.2-5,11.51-6.25,18.53-6.51,8.18.26,15.09,2.52,21.56,7.5l-.02-3.56c-.02-4.35-.03-8.7-.04-13.04,0-1.88-.01-3.77-.02-5.65-.01-2.7-.02-5.41-.02-8.11l-.02-2.57c0-2.02.05-4.04.11-6.06,1.93-1.93,5.38-1.17,7.94-1.19l3.84-.04q3.22.23,5.22,2.23c.17,3.01.23,5.93.2,8.95v2.68c-.02,2.83-.04,5.66-.07,8.5-.01,1.92-.02,3.84-.03,5.75-.02,4.71-.06,9.41-.1,14.12l1.87-.18c2.9-.28,5.79-.55,8.69-.82l2.94-.29c8.27-.75,16.09-.71,24.49-.71l6-36c7.41-.02,14.82-.04,22.22-.05,3.45,0,6.9-.01,10.35-.02,3.95-.01,7.91-.02,11.86-.02h3.76s3.46-.01,3.46-.01h3.06q2.28.11,3.28,1.11c.17,5.02-.16,8.95-1,14h-42l-3,18q110.59-9.96,203.56-61.96c3.82-5.4,5.54-11.42,4.44-18.04-2.04-6.92-5.96-11.96-11-17l-1.55-1.55c-18.19-16.74-44.62-24.74-67.45-32.45l-2.58-.89c-52.76-18.12-109.35-25.53-164.42-33.11v-1Z"/>
  <path class="st24" d="M498,13c16.89.89,33.49,2.65,50.17,5.41,5.24.87,10.48,1.7,15.75,2.39,62.63,8.21,130.02,19.82,187.08,48.2l3.27,1.61c12.23,6.35,27.18,15.77,32.18,29.23,1.96,7.66-.33,13.25-4.01,20.03-29.38,37.67-101.28,48.6-146.33,54.65q-2.97.14-4.11,1.48l2.75,1.88c4.15,3.5,6.12,7.87,7.25,13.12.63,8.13-.68,15.64-2.38,23.56-1.77,8.62-3.27,17.14-3.99,25.92-.36,4.06-1.07,6.61-2.63,10.52h-14l-2-5-2.08,1.06-2.73,1.38-2.71,1.37c-6.75,3.24-14.16,2.84-21.48,2.19-4.69-1.68-8.59-4.57-11-9-2.69-6.09-3.15-11.68-.97-17.96,4.97-10.92,11.92-16.88,23.07-21.07,8.23-2.73,16.26-3.45,24.9-3.96.39-4.01.35-6.37-1.62-9.94-5.5-3.36-11.1-2.84-17.38-2.06-2.72.85-5.37,1.93-7.91,3.22q-2.09.78-6.09-.22l-2-9-2.19.24-3.08.34-3.41.38-7.41.82c-5.48.61-10.95,1.21-16.42,1.86l-2.43.28c-1.44.17-2.88.34-4.32.51-4.61.53-9.1.63-13.73.56v-7c4.63-1.43,9.38-2.44,14.2-3.01,1.43-.18,2.86-.36,4.29-.54l2.28-.28q100.17-10.3,183.79-59.14c3.82-5.4,5.54-11.42,4.44-18.04-2.04-6.92-5.96-11.96-11-17l-1.55-1.55c-18.19-16.74-44.62-24.74-67.45-32.45l-2.58-.89c-52.76-18.12-109.35-25.53-164.42-33.11v-1Z"/>
  <path class="st37" d="M471.94,141.81l3.84-.04q3.22.23,5.22,2.23c.17,3.01.23,5.93.2,8.95v2.68c-.02,2.83-.04,5.66-.07,8.5-.01,1.92-.02,3.84-.03,5.75-.02,4.71-.06,9.41-.1,14.12l1.87-.18c2.9-.28,5.79-.55,8.69-.82.97-.1,1.94-.19,2.94-.29,8.27-.75,16.09-.71,24.49-.71l6-36c7.41-.02,14.82-.04,22.22-.05,3.45,0,6.9-.01,10.35-.02,3.95-.01,7.91-.02,11.86-.02h3.76s3.46-.01,3.46-.01h3.06q2.28.11,3.28,1.11c.17,5.02-.16,8.95-1,14h-42q-1.27,8.42-2.54,16.84l-.48,3.18-.49,3.25q-.48,2.73-1.48,5.73l3.29-.02c4.01-.02,8.02-.03,12.04-.04,1.74,0,3.48-.01,5.22-.02,2.49-.01,4.99-.02,7.48-.02h2.37c1.87-.01,3.74.04,5.6.1q1,1,1.13,3.15v2.67s0,2.65,0,2.65q-.13,2.54-1.13,6.54h-39l-1,9c-.43,2.67-.89,5.34-1.38,8l-.8,4.41-.41,2.27c-.42,2.36-.84,4.73-1.24,7.09l-.41,2.34c-.26,1.48-.51,2.96-.77,4.45-.51,2.91-1.07,5.64-2,8.44-2.48.03-4.96.05-7.44.06l-2.14.02c-1.81,0-3.61-.04-5.42-.09-1.53-1.53-1.16-2.9-1.17-5.02.06-4.73.82-9.07,1.86-13.67,2.23-10.44,3.96-20.95,5.65-31.48l.61-3.77.54-3.39q.51-2.66,1.51-4.66l-2.76.44c-8.05,1.16-16.18,1.71-24.32,1.62h-2.91c-2.34-.03-4.67-.04-7.01-.06v2.31c.03,7.17.04,14.33.05,21.5,0,3.69.01,7.37.02,11.06.01,3.55.02,7.11.02,10.66,0,1.36,0,2.72.01,4.07,0,1.9,0,3.79,0,5.69v3.28q-.11,2.44-1.11,3.44c-2.53.07-5.03.09-7.56.06h-2.15c-1.76-.03-3.52-.04-5.28-.06l-1-7-1.54,1.24-2.08,1.63-2.04,1.62c-7.41,4.78-16.82,4.51-25.33,3.51-7.91-2.24-14.23-7.43-18.47-14.43-4.33-8.3-5.88-15.72-5.84-25.01l-.05-2.74v-2.7s-.01-2.4-.01-2.4q.37-2.73,3.37-10.73l-21-1-1-6,2.34-.06c3.54-.11,7.07-.27,10.6-.44l3.67-.09c7.8-.42,12.06-1.7,17.45-7.47,5.01-5.02,11.51-6.18,18.38-6.44,8.18.26,15.09,2.52,21.56,7.5l-.02-3.56c-.02-4.35-.03-8.7-.04-13.04,0-1.88-.01-3.77-.02-5.65-.01-2.7-.02-5.41-.02-8.11l-.02-2.57c0-2.02.05-4.04.11-6.06,1.93-1.93,5.38-1.17,7.94-1.19"/>
  <path class="st40" d="M846.99,178.25c5.98,4.51,9.1,10.95,10.82,18.12l.19,3.62.22,2.57c.66,12.75-4.1,25.62-12.22,35.43-6.2,6.18-12.6,10.49-21,13l-1.77.58c-9.88,1.87-21.92,1.71-30.4-4.05-4.82-3.85-7.59-7.82-9.83-13.52l-1.25-2.75c-3.08-13.35.62-26.69,7.3-38.31,6.57-9.94,16.27-16.72,27.89-19.47,10.99-1.7,20.55-1.19,30.04,4.78"/>
  <path class="st14" d="M96,243q1.53,1.2,3.19,2.75c5.3,4.9,11.8,6.99,18.81,8.25v2q-1.61,1.52-3.75,3.25c-5.57,4.74-8.77,9.03-9.52,16.45-.26,7.51.81,12.25,5.27,18.3l1.54,2.09c23.48,29.05,73.24,39.54,107.71,47.99,2.57.63,5.14,1.27,7.71,1.92,41.16,10.43,83.05,16.12,125.04,22v1c-10.74-.56-21.46-1.54-32.12-2.94l-4.05-.51c-44.2-5.62-88.51-12.8-131.72-23.76-2.88-.72-5.76-1.43-8.64-2.12-8.46-2.04-16.87-4.3-25.22-6.79l-2.46-.73c-4.29-1.3-8.53-2.75-12.72-4.35-2.28-.87-4.56-1.72-6.85-2.56q-52.58-19.53-63.22-41.24-.81-2.44-1-5l-.15-2.06c-.32-7.62,1.75-12.49,6.53-18.32,5.13-5.57,11.31-9.54,17.62-13.62,3.33-2.22,4.14-2.7,8-2"/>
  <path class="st40" d="M635.68,178.32c5.51,5.98,6.59,12.79,6.51,20.6-.33,5.32-1.45,10.44-2.56,15.64-1.77,8.62-3.27,17.14-3.99,25.92-.36,4.06-1.07,6.61-2.63,10.52h-14l-2-5-2.08,1.06-2.73,1.38-2.71,1.37c-6.75,3.24-14.16,2.84-21.48,2.19-4.69-1.68-8.59-4.57-11-9-2.69-6.09-3.15-11.68-.97-17.96,4.97-10.92,11.92-16.88,23.07-21.07,8.23-2.73,16.26-3.45,24.9-3.96.39-4.01.35-6.37-1.62-9.94-5.5-3.36-11.1-2.84-17.38-2.06-2.72.85-5.37,1.93-7.91,3.22q-2.09.78-6.09-.22l-2-11c13.54-7.35,33.25-12.21,46.68-1.68"/>
  <path class="st12" d="M140,179c8.09,5.23,12.68,13.28,14.73,22.65.63,5.41.59,10.92.27,16.35q-1,1-3.02,1.12h-2.68s-3.03,0-3.03,0l-3.3-.02h-3.36c-3.56-.01-7.11-.02-10.67-.04-2.41,0-4.81-.01-7.21-.01-5.91-.01-11.82-.03-17.72-.05.3,1.44.6,2.88.91,4.32l.51,2.43c1.14,4.43,2.81,6.74,6.58,9.26l1.94,1.56c4.36,3.04,9.29,2.62,14.44,2.62l2.25.04c3.53,0,6.16-.15,9.54-1.3q2.83-.92,8.83.08l2,12-3.62,1.44-2.04.81c-12.48,4.03-28.48,4.43-40.33-1.25-2.89-1.79-5.44-3.77-8-6l-2.09-1.37c-2.37-2.02-2.93-3.7-3.91-6.63l-1.07-2.45c-4.3-10.92-5.14-25.19-.97-36.36,5.05-10.69,10.86-17.6,21.88-22.28,9.74-2.83,20.25-1.73,29.16,3.08"/>
  <path class="st25" d="M46.44,146.56h2.77c6.84.16,12.67,1.24,18.79,4.44l2,1-1.44,4.81-.81,2.71c-.56,1.83-1.14,3.66-1.75,5.48-2.22.95-3.47,1.16-5.8.44l-1.95-.88c-4.45-1.6-8.74-1.94-13.44-2l-2.05-.07c-5.04.02-7.9,1.34-11.76,4.5-2.48,3.71-2.54,6.7-2,11,3.52,8.15,11.41,10.65,19,14,9.38,4.2,20.1,9.39,24.41,19.41,2,8.8,1.89,19.3-2.09,27.51-4.07,6.39-9.32,10.32-16.32,13.08l-2.52,1.08c-5.04,1.33-9.92,1.3-15.1,1.29h-3.25c-8.46-.14-16.92-.46-23.42-6.51l-1.7-1.86c.48-1.81.95-3.63,1.44-5.44l.81-3.06q.75-2.5,1.75-3.5c4.03.33,6.87.95,10.65,2.52,4.68,1.79,9.01,1.96,13.98,1.92l2.48.06c5.44,0,8.59-.86,12.89-4.5,2.84-4.08,3.67-7.87,3.46-12.76-.87-4.22-3.1-6.65-6.46-9.24-2.52-1.39-5.07-2.52-7.73-3.63q-23.71-9.93-29.27-21.37c-2.25-6.91-2.31-16.14.02-23.03,4.24-7.6,10.38-12.91,18.62-15.64,5.31-1.49,10.3-1.84,15.79-1.77"/>
  <path class="st40" d="M525,146c7.42-.02,14.83-.04,22.24-.05,3.44,0,6.88-.01,10.33-.02,3.95-.01,7.91-.02,11.86-.02h3.76s3.46-.01,3.46-.01h3.06q2.28.11,3.28,1.11c.17,5.02-.16,8.95-1,14h-42q-1.27,8.42-2.54,16.84l-.48,3.18-.49,3.25q-.48,2.73-1.48,5.73l3.29-.02c4.01-.02,8.02-.03,12.04-.04,1.74,0,3.48-.01,5.22-.02,2.49-.01,4.99-.02,7.48-.02h2.37c1.87-.01,3.74.04,5.6.1q1,1,1.13,3.15v2.67s0,2.65,0,2.65q-.13,2.54-1.13,6.54h-39l-1,9c-.43,2.67-.89,5.34-1.38,8l-.8,4.41-.41,2.27c-.42,2.36-.84,4.73-1.24,7.09l-.41,2.34c-.26,1.48-.51,2.96-.77,4.45-.51,2.91-1.07,5.64-2,8.44-2.48.03-4.96.05-7.44.06l-2.14.02c-1.81,0-3.61-.04-5.42-.09-1.53-1.53-1.16-2.9-1.17-5.02.06-4.73.82-9.07,1.86-13.67,1.74-8.22,3.21-16.46,4.56-24.75,2.23-13.67,4.63-27.3,7.06-40.94l.55-3.11c1.04-5.84,2.09-11.68,3.13-17.52"/>
  <path class="st12" d="M205.44,174.75l2.16-.02c6.89.02,13.07,1.5,19.4,4.27-.31,1.6-.62,3.21-.94,4.81l-.53,2.71q-.54,2.48-1.54,5.48-1.69.81-4,1l-2.68-.96c-6.63-2.07-16.03-2.79-22.38.53-7.28,6.04-10.01,11.1-11.94,20.44l4,1h-4c.28,1.81.57,3.63.88,5.44l.49,3.06.63,2.5,2,1,.25,2.25c1.06,3.9,3.51,5.61,6.75,7.75,6.3,3.58,13.04,4.09,20.09,2.54,1.64-.5,3.28-1.02,4.91-1.54q2.94-.12,5,0c1.58,4.33,2.45,8.43,3,13-1.25.48-2.5.96-3.75,1.44l-2.11.81c-5.6,1.97-10.87,2.01-16.76,2.07l-2.87.09c-11.03.1-18.45-3.54-26.36-11.08-2.94-3.18-6.14-6.77-6.14-11.32q-8.1,1.76-15.81,4.69c-3.65,1.5-6.28,1.38-10.19,1.31l-2.69.98c-4,1.24-7.52,1.37-11.68,1.34h-2.28c-5.36-.1-9.52-.85-14.35-3.31v-3c10.63-5.06,21.9-8.02,33.19-11.2,2.45-.69,4.89-1.41,7.33-2.13l3.73-1.1,3.14-.93q2.61-.63,6.61-.63l-.18-2.42c-.46-11.18,2.12-19.35,9.36-27.95,8.54-8.84,18-13.01,30.25-12.88"/>
  <path class="st40" d="M724,177c-.68,3.12-1.74,5.85-3.06,8.75l-1.1,2.42-.84,1.83q-5.75.12-8-1c-10.22-.67-18.67-1.18-26.88,5.54-6.06,5.54-9.77,12.25-10.32,20.48q-.3,8.49,3.2,15.98c4.61,4.6,8.27,6.15,14.75,6.19,4.88-.03,8.65-.69,13.25-2.19q2.88-.19,5,0,1,1,1.1,3.72l-.03,3.34-.03,3.35-.04,2.59c-11.01,5.21-26.19,6.86-37.88,2.9-7.94-3.7-12.81-8.66-16.5-16.52-3.97-11.06-1.59-22.63,2.38-33.38,6.62-13.36,16.47-21.23,30.12-26.88,11.48-3.53,23.84-.8,34.88,2.88"/>
  <path class="st0" d="M764,155c-.31,2.77-.62,5.54-.94,8.31l-.26,2.38-.26,2.29-.24,2.11q-.3,1.9-1.3,4.9h18l-1,14h-20l-.81,6.94c-.71,5.95-1.68,11.8-2.81,17.69-1.43,7.54-1.7,14.69-1.38,22.38,2.64,1.32,4.62,1.06,7.56,1,1.81-.04,3.62-.05,5.44,0,1.57,1.57,1.17,3.14,1.19,5.31l.04,2.36c-.26,2.62-.72,4.16-2.23,6.32-4.04,1.31-8.17,1.26-12.38,1.31l-2.25.09c-5.27.06-8.19-.93-12.38-4.4-5.5-7.58-4.74-16.64-3.34-25.54.87-5.09,1.85-10.15,2.84-15.21l1.01-5.33c.82-4.31,1.65-8.62,2.49-12.92h-9c-1.13-5.02-.78-8.98,0-14h12l.4-3.43.53-4.45.26-2.26q.69-5.64,1.8-7.86,2.55-.89,5.75-1.69l3.17-.82c3.08-.49,5.1-.31,8.08.51"/>
  <path class="st40" d="M919,173c2.21,3.49,2.05,5.63,1.25,9.62l-.55,2.91q-.7,2.46-2.7,4.46c-1.7.15-3.41.22-5.12.25-6.18.49-9.67,2.24-13.88,6.75-4.11,6.49-6.01,13.09-7.24,20.6l-.52,2.92c-.53,3.03-1.05,6.07-1.56,9.11-.36,2.07-.72,4.15-1.09,6.22-.88,5.05-1.75,10.1-2.6,15.15h-16q-1.12-7.88-.43-11.56l.46-2.5.52-2.65.52-2.81c.55-2.96,1.12-5.91,1.68-8.86.37-1.94.73-3.89,1.09-5.83.71-3.8,1.43-7.6,2.15-11.4.94-4.98,1.85-9.97,2.73-14.96l.37-2.05c.84-4.77,1.48-9.56,1.91-14.38h14l2,7,1.5-1.24c6.96-5.52,12.7-7.07,21.5-6.76"/>
  <path class="st33" d="M830,187c5.03,2.93,8.29,6.39,10,12,1.03,10.99-.98,20.7-7,30-4.44,4.88-8.97,8.5-15.68,9.34-4.44.06-7.64-.04-11.75-1.84-5.36-5.23-6.82-9.81-7.06-17.31.35-10.71,3.82-19.59,11.5-27.19,5.93-4.78,12.47-6.76,20-5"/>
  <path class="st3" d="M449.96,192.75q6.12-.43,8.72,1.52c5.3,6.19,4.63,12.07,4.75,19.85l.14,3.67c.09,6.9-.31,11.38-4.9,16.7-4.07,3.66-8.31,5.68-13.8,5.94-5.72-.65-9.15-2.42-13.06-6.56-5.87-7.38-6.72-15.68-5.81-24.88.67-3.19,1.68-6.02,3-9l1.31-3.5c5.29-4.92,12.83-3.17,19.65-3.75"/>
  <path class="st41" d="M292,206c1.87,1.87,1.26,4.87,1.31,7.38-.09,7.79-.92,14.85-6.29,20.82-5.77,5.17-9.29,6.16-17.04,6.08-5.46-.51-7.98-3.26-11.67-7.03-5.16-7.25-5.75-13.45-5.31-22.25l3.15-.59,2.03-.38c1.47-.27,2.95-.55,4.42-.82,3.88-.72,7.74-1.52,11.58-2.4,5.86-1.2,11.86-1.2,17.81-.81"/>
  <path class="st10" d="M166,219l2,12c-2.85,1.18-5.7,2.35-8.56,3.5l-2.42,1.01c-4.94,1.98-8.63,2.64-14.01,2.49l-2.91.98c-3.9,1.29-7.38,1.36-11.46,1.33h-2.28c-5.36-.1-9.52-.85-14.35-3.31v-3c10.61-5.05,21.86-8.01,33.14-11.18,3.57-1.02,7.11-2.13,10.64-3.27,3.48-.87,6.66-.75,10.22-.56"/>
  <path class="st16" d="M277,270.81l2.56.02q2.44.17,4.38.68c2.71.64,5.29.55,8.06.49.12,3.56.19,7.12.25,10.69l.1,3.05q.1,7.47-2.12,11.34c-4.43,3.8-7.3,4.17-13.17,4.11l-3.65-.02c-2.93-.14-5.56-.49-8.41-1.17l1-3,2.92.04,3.83.03,3.8.04c2.74-.08,4.87-.27,7.45-1.1l1-5-3,1c-2.12.17-4.25.27-6.38.31l-3.4.11c-3.88-.51-5.46-1.72-8.23-4.43-1.61-3.22-1.6-6.52-1-10,3.93-5.02,7.65-7.29,14-7.19"/>
  <path class="st1" d="M236,205v9l-3.52.77c-7.8,1.72-15.59,3.47-23.33,5.44-4.05,1.02-8.1,2.01-12.15,2.98q-1.1.27-2.21.54c-3.39.81-6.27,1.27-9.79,1.27-2.34-3.65-2.08-6.76-2-11,11.77-2.87,23.54-5.39,35.5-7.31l3.2-.52c4.81-.75,9.42-1.39,14.3-1.17M656.31,271.69l3.92-.11c4.35.49,6.4,1.67,9.76,4.43,2.36,3.54,2.57,4.83,2,9-2.46,3.99-4.27,6.1-8.81,7.38-7.06,1.29-12.81,1.13-19.19-2.38-2.93-2.56-3-4-3.5-7.94.12-3.48.51-4.07,2.81-7,4.28-3.29,7.72-3.28,13-3.38"/>
  <path class="st11" d="M622,214c-.03,8.1-1.28,14.03-7,20-4.03,3.17-8.09,5.24-13.25,5.62q-3.75-.62-6.75-2.69c-2.51-3.69-2.63-5.55-2-9.94,2.23-5.2,6.12-8.75,11.26-10.98,5.97-2,11.48-2.38,17.74-2.02"/>
  <path class="st30" d="M135.85,263.9l6.15.1.85,1.63,3.9,7.43,1.34,2.57c2.01,3.83,4.04,7.63,6.23,11.36q1.67,3,1.67,5h-7q-4-6.75-4-9h-14l-2,6-2,3q-3.62.19-7,0c1.36-3.52,2.88-6.89,4.57-10.27l1.47-2.95,1.53-3.04,1.54-3.09,1.47-2.93,1.34-2.68q1.61-3.03,3.94-3.15"/>
  <path class="st3" d="M127,189c4.57,1.79,7.28,4.96,10,9v7h-33q3.38-10.13,6.56-12.5l1.82-1.41c4.5-3.04,9.36-2.51,14.62-2.09"/>
  <path class="st28" d="M192,264h7v12h19v-12h6v28h-6v-13h-19v13h-7v-28Z"/>
  <path class="st23" d="M576,271c3.91,1.99,5.58,3.36,8,7v5h-21q2.35,5.14,6,6c2.06.07,4.12.08,6.19.06l3.29-.03,2.52-.03,1,3c-8.31,1.42-15.39,2.11-23-2-2.05-1.64-2.89-2.5-3.47-5.09-.06-4.34,0-6.3,2.72-9.85,5.8-4.35,10.57-4.92,17.75-4.06M498,271c3.91,1.99,5.58,3.36,8,7v5h-21q2.35,5.14,6,6c2.06.07,4.12.08,6.19.06l3.29-.03,2.52-.03,1,3c-8.31,1.42-15.39,2.11-23-2-2.05-1.64-2.89-2.5-3.47-5.09-.06-4.34,0-6.3,2.72-9.85,5.8-4.35,10.57-4.92,17.75-4.06M370,271c3.91,1.99,5.58,3.36,8,7v5h-21q2.35,5.14,6,6c2.06.07,4.12.08,6.19.06l3.29-.03,2.52-.03,1,3c-8.31,1.42-15.39,2.11-23-2-2.05-1.64-2.89-2.5-3.47-5.09-.06-4.34,0-6.3,2.72-9.85,5.8-4.35,10.57-4.92,17.75-4.06"/>
  <path class="st13" d="M309,263h6v10l1.94-1c4.11-1.34,7.78-1.62,12.06-1q5.64,2.92,7,7c.07,2.39.08,4.79.06,7.19l-.03,3.86-.03,2.96h-7l-.15-2.99-.23-3.88c-.07-1.28-.14-2.55-.21-3.87q-.09-3.34-2.42-5.26-4.56-.52-8.68,1.1c-1.94,2.79-1.84,5.23-2.01,8.59l-.2,3.57-.11,2.74h-6v-29Z"/>
  <path class="st38" d="M798,272h7l.11,3.21c.07,1.39.13,2.78.2,4.17l.07,2.12q.09,2.28.62,5.51,2.83,2.33,6.06,1.75,3.04-.51,4.94-2.75c.3-2.36.49-4.74.62-7.12l.23-3.88.15-2.99h7v20h-9l-3,1c-5.62.43-9.1-.45-14-3-1.59-3.19-1.1-6.63-1.06-10.12v-2.29c.03-1.86.04-3.73.06-5.59"/>
  <path class="st22" d="M286.67,197.79l2.33.21q2,3,2,7l-2.06.33c-4.67.76-9.34,1.54-13.98,2.47-7.05,1.41-13.73,2.59-20.96,2.2l1-8c6.22-1.74,12.26-2.57,18.69-3.12l2.8-.26c3.39-.31,6.79-.56,10.19-.82"/>
  <path class="st18" d="M519,182l-1,7c-12.39,1.96-24.47,2.24-37,2v-6c12.79-2.3,25.04-3.16,38-3"/>
  <path class="st28" d="M727,264h32v3h-12v25h-7v-25h-13v-3Z"/>
  <path class="st17" d="M516,272h8c1,1.96,2,3.92,3,5.88l1.69,3.3q1.31,2.82,1.31,4.82h2l.69-2.5c1.58-4.21,3.16-8.22,6.31-11.5q3.81-.5,7,0c-1.62,3.36-3.3,6.68-5,10l-1.39,2.89-1.43,2.73-1.27,2.54q-1.92,1.83-5.78,2.63c-2.7-.15-3.78-.43-5.71-2.36-1.46-2.19-2.68-4.41-3.87-6.75l-1.31-2.38c-1.67-3.08-3.14-5.98-4.25-9.31"/>
  <path class="st6" d="M703,262v3l-3.38.38q-3.66.27-5.62,2.62-.64,2.07-1,4h7v3h-7v17h-7v-17h-4v-3h4l.31-2.81c.71-3.28.97-4.34,3.69-6.19,4.26-1.34,8.58-1.08,13-1"/>
  <path class="st20" d="M281.38,190.25c2.58,1.72,4.63,3.37,6.62,5.75v2c-10.65,1.97-21.2,2.57-32,3,5.03-10.67,14.09-14.93,25.38-10.75"/>
  <path class="st28" d="M443,264h7v25h18v3h-25v-28Z"/>
  <path class="st2" d="M859,272l-1,3-11,1v2l2.59.92,3.35,1.27,3.34,1.23q2.72,1.58,3.7,4.12.02,2.46-1.6,4.71c-4.77,3.52-10.64,3.11-16.38,2.75l-3-1,1-4,1.56.5c3.17.65,6.21.56,9.44.5v-4l-1.86-.55c-.81-.25-1.62-.5-2.45-.76l-2.42-.74c-2.4-1.01-3.68-1.89-5.26-3.95q.12-2.56,1-5c5.53-3.69,12.72-4.1,19-2"/>
  <path class="st36" d="M883,266v6h8v3h-8l1,13,6,1v3c-2.57,1.28-4.15,1-7,.75l-2.69-.2q-2.31-.55-4.31-3.55-.2-3.36-.12-7.19l.05-3.86.07-2.96h-5v-3h5v-5q3-1,7-1"/>
  <path class="st31" d="M658.02,274.55c3.53.8,5.01,2.53,6.98,5.45.16,3.98-.49,5.45-3.19,8.38-3.38,1.95-4.98,2.34-8.81,1.62-3.36-2.49-4.8-3.91-5.56-8.06q.56-2.94,2.06-5.31c2.87-1.87,5.1-2.26,8.52-2.07"/>
  <path class="st27" d="M279.84,274.57c2.67.54,3.57,1.24,5.16,3.43.61,2.73.5,5.26,0,8-2.28,2.92-3.83,2.98-7.5,3.44q-3.5-.44-5.94-2.06c-2.02-3.07-2.09-4.76-1.56-8.38,1.91-4.84,5.22-4.44,9.84-4.43"/>
  <path class="st28" d="M598,263h6v29h-6v-29Z"/>
  <path class="st29" d="M498,13c16.85.88,33.41,2.64,50.05,5.39,12.62,2.08,25.28,3.84,37.95,5.61l-3,1v2c-6.34-.63-12.53-1.59-18.79-2.8-13.47-2.51-27.02-4.48-40.59-6.45l-7.5-1.1c-6.04-.89-12.08-1.77-18.12-2.65v-1Z"/>
  <path class="st36" d="M785,271v4l-3.38.81q-3.84.85-5.62,4.19-.46,2.97-.62,6.19l-.23,3.29-.15,2.52h-6v-20h8c2.71-1.35,5.01-1.07,8-1M408,271v4l-3.38.81q-3.84.85-5.62,4.19-.46,2.97-.62,6.19l-.23,3.29-.15,2.52h-6v-20h8c2.71-1.35,5.01-1.07,8-1"/>
  <path class="st21" d="M390,189h26l-3,6h-22l-1-6Z"/>
  <path class="st35" d="M288.46,358.82l3.75.58,3.79.6c2.24.32,4.49.65,6.73.96l49.27,7.04v1c-10.74-.56-21.46-1.54-32.12-2.94l-4.05-.51c-11.09-1.4-22.16-2.96-33.2-4.67l-3.27-.51-2.35-.37v-1c4.1-1.08,7.29-.85,11.46-.18"/>
  <path class="st28" d="M242,272h6v20h-6v-20Z"/>
  <path class="st9" d="M327,194v7c-6.03,1.07-11.89,1.1-18,1l-1-6c2.42-.34,4.83-.67,7.25-1l2.07-.29c3.28-.45,6.37-.71,9.68-.71"/>
  <path class="st42" d="M361,191.69l2.2-.05q5.28,0,7.8,1.76,1,1.6,1,3.6c-8.02.71-15.95,1.15-24,1,2.72-6.28,6.73-6.34,13-6.31"/>
  <path class="st32" d="M252.21,352l2.72.56,3.17.62,3.89.82c1.75.35,3.49.69,5.24,1.04,4.92.97,9.84,1.96,14.76,2.96v1c-8.12.29-15.7-.55-23.69-2l-3.32-.58c-2.67-.47-5.33-.94-7.99-1.42q2.72-3,5.21-3"/>
  <path class="st15" d="M571,274.19c3.01.82,4.2,1.32,6,3.81v2h-14q3.06-6.12,8-5.81M493,274.19c3.01.82,4.2,1.32,6,3.81v2h-14q3.06-6.12,8-5.81M365,274.19c3.01.82,4.2,1.32,6,3.81v2h-14q3.06-6.12,8-5.81"/>
  <path class="st39" d="M137,270c3.37,2.73,4.44,6.07,6,10h-10c1.11-3.49,2.26-6.77,4-10"/>
  <path class="st19" d="M445.38,189.81l2.84-.04c2.95.24,5.11,1,7.79,2.23v1h-20c1.88-3.75,5.63-3.16,9.38-3.19"/>
  <path class="st8" d="M80,250l2,1-14,14c0-4.9,3.7-7.61,7-11,1.62-1.38,3.27-2.74,5-4"/>
  <path class="st2" d="M242,264c2.34.29,4.67.62,7,1l-1,4h-6q-.56-1.94-1-4l1-1Z"/>
  <path class="st7" d="M118,255l2,1c-1.62,1.67-3.24,3.34-4.88,5l-2.74,2.81q-2.38,2.19-4.38,2.19c1.45-3.44,3.28-5.36,6.12-7.75l2.19-1.86,1.68-1.39Z"/>
  <path class="st4" d="M266,356c2.11.11,4.21.24,6.31.38,1.17.07,2.34.14,3.55.21q3.14.42,6.14,2.42c-1.73.05-3.46.09-5.19.12l-2.92.07c-3.02-.2-5.16-.93-7.89-2.2v-1Z"/>
  <path class="st43" d="M579.26,22.93l2.43.39,2.45.36,1.86.32-3,1v2l-9-1q3-3,5.26-3.07"/>
  <path class="st34" d="M583,25h6v3h-5l-1-3Z"/>
</svg>