<svg xmlns="http://www.w3.org/2000/svg" fill="none" viewBox="0 0 227 42"><path stroke="#0000e0" stroke-miterlimit="10" stroke-width="2.245" d="M22.07 33.226c6.805 0 12.32-5.516 12.32-12.32s-5.515-12.32-12.32-12.32c-6.803 0-12.32 5.516-12.32 12.32s5.517 12.32 12.32 12.32Z"/><path stroke="#0000e0" stroke-miterlimit="10" stroke-width="2.245" d="M22.07 38.33c9.623 0 17.424-7.801 17.424-17.424s-7.8-17.423-17.423-17.423-17.424 7.8-17.424 17.423 7.8 17.424 17.424 17.424Z"/><path fill="#e00000" d="m17.912 24.154-.375-1.967c-.32-.024-.657-.037-.953.282-.333.36-.724.666-1.085.998-.183.167-.373.183-.56.03-.17-.138-.18-.442.002-.608a57 57 0 0 1 1.63-1.45c.09-.076.24-.102.367-.113.235-.018.47-.005.697-.005.145-.415.285-.81.43-1.23-.338-.172-.7-.33-1.035-.537-.172-.105-.346-.271-.428-.451-.303-.665-.57-1.347-.853-2.02-.116-.274-.045-.52.188-.62.214-.093.414.023.541.311.251.576.496 1.154.76 1.724.053.116.162.23.275.293q.469.261.964.47c.084.035.25.019.306-.042.31-.33.676-.41 1.117-.407 1.133.008 2.268-.034 3.4-.04.529-.002 1.057.033 1.585.059a.46.46 0 0 1 .227.087c.185.127.362.267.557.412.388-.19.795-.383 1.19-.594.088-.048.157-.159.199-.256.256-.565.499-1.133.75-1.698.137-.309.34-.42.565-.317.23.103.296.333.171.629-.282.673-.557 1.354-.863 2.017a1.07 1.07 0 0 1-.417.43c-.34.206-.71.37-1.048.541.155.42.3.814.454 1.226.042.002.108.018.171.01.544-.09.961.119 1.334.505.346.359.734.68 1.098 1.024.227.214.254.438.09.62-.161.18-.39.177-.623-.029-.333-.293-.679-.578-.974-.908-.278-.306-.592-.414-.97-.346-.12.65-.245 1.302-.374 1.986.277.166.612.34.91.565.162.119.315.306.37.494.206.68.372 1.375.55 2.064.07.277-.032.494-.252.55-.274.07-.446-.048-.525-.357-.15-.589-.298-1.18-.457-1.769-.02-.084-.071-.185-.14-.227-.293-.18-.599-.34-.903-.51-1.808 3.18-5.861 3.142-7.63-.01-.019.002-.037.002-.053.01-.325.188-.77.304-.943.587-.248.409-.295.937-.427 1.415-.045.163-.08.327-.12.49-.073.304-.263.44-.52.373-.226-.06-.33-.285-.253-.575.153-.6.34-1.191.454-1.799.085-.446.317-.72.708-.913.267-.122.51-.28.72-.404"/><path fill="#e00000" d="M18.976 17.917c-.092-1.01.425-1.732 1.146-2.357l-.364-.671c-.257-.473-.634-.787-1.17-.893-.082-.015-.161-.047-.24-.073-.183-.064-.227-.22-.167-.362.045-.1.188-.23.283-.227.694.018 1.24.346 1.642.9.22.304.396.636.605.982.945-.446 1.906-.451 2.867-.015.174-.296.335-.581.504-.861.346-.568.877-.861 1.503-1.009a.56.56 0 0 1 .28-.002c.09.029.21.097.227.168.023.1-.016.236-.069.33-.032.061-.137.098-.216.117-.716.15-1.167.604-1.46 1.249-.056.118-.127.23-.17.3.29.375.597.716.837 1.099.243.386.352.826.29 1.323-2.1.002-4.203.002-6.328.002"/><path fill="#0000e0" d="M44.138 20.597v2.03l-12.876-1.013q6.436-.506 12.876-1.017M0 20.597v2.03l12.877-1.013Q6.439 21.108 0 20.597M20.874.08h2.03l-1.013 12.876Q21.38 6.52 20.874.08M20.874 41.73h2.03l-1.013-12.876z"/><path fill="#000" d="m95.052 29.538 6.427-14.49h2.274l-8.542 19.097q-.714 1.655-1.59 2.63-.846.975-1.852 1.365-1.008.422-2.242.422-1.201 0-2.305-.39a5 5 0 0 1-1.852-1.17l1.072-1.72q.65.616 1.397.942.78.357 1.722.357 1.136 0 1.948-.65.845-.618 1.592-2.208l.735-1.668-7.621-17.007h2.403zm19.451-14.652q2.436 0 4.351 1.103a7.67 7.67 0 0 1 3.054 3.054q1.104 1.948 1.104 4.514 0 2.598-1.104 4.547a7.95 7.95 0 0 1-3.054 3.053q-1.915 1.104-4.351 1.104-2.208 0-3.995-1.007a7.5 7.5 0 0 1-2.501-2.373v9.518h-2.306V15.048h2.209v3.347q.993-1.617 2.566-2.502 1.785-1.007 4.027-1.007M63.919 9.169q2.468 0 4.645.845 2.175.812 3.67 2.468l-1.527 1.527q-1.396-1.43-3.085-2.046-1.69-.65-3.638-.65-2.046 0-3.8.714a8.75 8.75 0 0 0-3.053 1.982 9.3 9.3 0 0 0-2.046 2.987q-.714 1.689-.714 3.735t.714 3.768a9.8 9.8 0 0 0 2.046 2.987 9.4 9.4 0 0 0 3.054 1.982q1.753.681 3.8.682 1.947 0 3.637-.65t3.085-2.078l1.526 1.526q-1.494 1.656-3.67 2.501t-4.676.845q-2.566 0-4.742-.845-2.175-.876-3.767-2.435a11.4 11.4 0 0 1-2.501-3.67Q52 23.233 52 20.73q0-2.501.877-4.612a11.4 11.4 0 0 1 2.5-3.67 11.4 11.4 0 0 1 3.8-2.403q2.177-.877 4.742-.877m65.84 5.879h5.196v1.916h-5.196v10.198q0 1.494.747 2.306.779.812 2.208.812 1.526 0 2.533-.877l.813 1.657a4.25 4.25 0 0 1-1.657.909 6.5 6.5 0 0 1-1.949.292q-2.403 0-3.702-1.3-1.299-1.297-1.299-3.669V16.964H124.4v-1.916h3.053V11.28h2.306zm51.911 9.645q0 2.729 1.331 4.125 1.364 1.364 3.8 1.365 1.787 0 3.086-.715a4.82 4.82 0 0 0 2.013-2.144q.715-1.396.714-3.344v-8.932h2.307v17.05h-2.209V28.98a6.3 6.3 0 0 1-2.176 2.242q-1.689 1.038-3.962 1.039-2.175 0-3.8-.812a5.85 5.85 0 0 1-2.534-2.435q-.876-1.625-.876-4.06v-9.906h2.306zm-97.192-7.567h-.261a1 1 0 0 0-.26-.032q-2.695 0-4.222 1.656-1.526 1.624-1.526 4.645v8.704h-2.306V15.048h2.208v3.29a5.45 5.45 0 0 1 2.176-2.413q1.69-1.04 4.19-1.04zm57.435 14.973h-2.306V15.048h2.306zm27.072-17.213q2.079 0 3.606.811 1.558.78 2.403 2.404.877 1.624.877 4.092V32.1h-2.306v-9.68q0-2.695-1.299-4.059-1.267-1.395-3.605-1.396-1.754 0-3.053.747-1.267.714-1.981 2.111-.683 1.365-.683 3.313v8.964h-2.305v-9.68q0-2.695-1.299-4.059-1.3-1.395-3.638-1.396-1.72 0-3.02.747-1.3.714-2.014 2.111-.682 1.365-.682 3.313v8.964h-2.306V15.048h2.209v3.079a6 6 0 0 1 2.143-2.17q1.754-1.071 4.125-1.071 2.5 0 4.254 1.266 1.22.86 1.842 2.33.77-1.367 2.153-2.297 1.917-1.3 4.579-1.3m51.07 0q2.078 0 3.604.811 1.56.78 2.403 2.404.877 1.624.877 4.092V32.1h-2.305v-9.68q0-2.695-1.299-4.059-1.267-1.395-3.606-1.396-1.753 0-3.052.747-1.267.714-1.982 2.111-.681 1.365-.681 3.313v8.964h-2.306v-9.68q0-2.695-1.3-4.059-1.299-1.395-3.637-1.396-1.72 0-3.02.747-1.299.714-2.014 2.111-.681 1.365-.682 3.313v8.964h-2.306V15.048h2.208v3.08a6 6 0 0 1 2.144-2.171q1.754-1.072 4.125-1.071 2.5 0 4.254 1.266 1.22.858 1.842 2.33.77-1.368 2.153-2.297 1.916-1.3 4.58-1.3m-105.714 2.013q-1.82 0-3.28.844a6.2 6.2 0 0 0-2.274 2.339q-.812 1.494-.812 3.475 0 1.98.812 3.508a6.2 6.2 0 0 0 2.274 2.338q1.46.813 3.28.812 1.818 0 3.247-.812a6.2 6.2 0 0 0 2.273-2.338q.845-1.527.845-3.508t-.845-3.475a6.2 6.2 0 0 0-2.273-2.339q-1.43-.843-3.247-.844M140.776 8q.715 0 1.203.455.487.455.487 1.137 0 .714-.487 1.201-.456.487-1.203.487-.714 0-1.201-.487a1.6 1.6 0 0 1-.487-1.169q0-.682.487-1.137A1.63 1.63 0 0 1 140.776 8"/></svg>