<svg xmlns="http://www.w3.org/2000/svg" viewBox="45 45 215.16 75.3"><title>Logo/yellow</title><g fill="#ffa729" fill-rule="evenodd"><path d="M116.154 80.578c0-19.685-16.071-35.684-35.779-35.578-18.466.102-34.094 14.755-35.297 33.186-.858 13.184 5.428 25.46 16.474 32.463l-.013 5.142-12.014.039v-8.182h-4.502v12.648h21.024l.013-9.73c.003-1.504-.777-2.895-2.087-3.724-9.056-5.724-14.465-15.54-14.465-26.264 0-17.072 13.841-30.971 30.89-31.072 16.705-.097 30.682 13.314 31.235 30.009.37 11.133-5.091 21.415-14.446 27.327-1.31.829-2.09 2.22-2.087 3.725l.023 9.729h21.015v-12.648h-4.505l.039 8.143-12.053.039-.013-5.185c10.359-6.556 16.548-17.793 16.548-30.067"/><path d="M80.577 76.121a4.46 4.46 0 0 0-4.456 4.456 4.46 4.46 0 0 0 4.456 4.457 4.46 4.46 0 0 0 4.456-4.457 4.46 4.46 0 0 0-4.456-4.456"/><path d="M91.781 79.746a72 72 0 0 1 4.83 4.947c3.29 3.735 3.868 6.095 3.313 7.054-.53.92-2.923 1.518-7.064.79a31 31 0 0 1-2.074-.445c.663-3.618 1.002-7.574 1.002-11.517-.004-.273-.004-.553-.007-.83m-14.556 6.639c-3.276-1.892-6.078-3.882-8.389-5.812 2.434-2.03 5.282-4.005 8.39-5.8 3.107-1.794 6.24-3.273 9.214-4.365.52 2.968.84 6.39.84 10.17s-.32 7.208-.84 10.172c-2.974-1.092-6.107-2.571-9.215-4.365m-5.048 5.213c-6.267 2.188-10.236 1.382-10.948.15-.53-.92.143-3.29 2.848-6.514.438-.523.916-1.05 1.423-1.573 2.802 2.382 6.06 4.65 9.472 6.624l.257.147a94 94 0 0 1-3.052 1.166m3-23.407a49 49 0 0 1 1.05-3.858c1.466-4.21 3.241-6.095 4.35-6.095 1.508 0 3.451 2.848 4.86 7.746-3.39 1.203-6.957 2.86-10.465 4.886l-.412.244q.299-1.504.617-2.923M96.25 97.377c4.541 0 6.622-1.726 7.574-3.377 1.834-3.176.546-7.311-3.832-12.284-2.425-2.753-6.082-6.355-8.565-8.146a59 59 0 0 0-.64-4.512 33 33 0 0 1 2.073-.445c4.141-.731 6.534-.13 7.064.79.357.62.084 1.908-.75 3.533-.716 1.395-1.363 2.168-1.568 2.396a51 51 0 0 1 3.208 3.166c.381-.403 1.35-1.525 2.367-3.501 1.618-3.147 1.836-5.786.646-7.847-1.205-2.09-4.222-4.3-11.747-2.974-.75.133-1.524.299-2.31.494-1.844-6.407-4.929-10.941-9.19-10.941-2.477 0-5.98 1.583-8.617 9.16-.026.084-.673 2.07-1.177 4.31a137 137 0 0 0-1.424 7.284 58 58 0 0 0-3.849 3.004c-3.546-3.667-5.038-6.774-4.284-8.081.455-.787 1.882-1.44 4.044-1.128 1.245.179 2.08.377 2.438.47.331-1.7.77-3.321 1.076-4.374a29 29 0 0 0-2.87-.556c-3.797-.546-7.087.732-8.588 3.335-2.133 3.693.25 8.634 4.88 13.432a33 33 0 0 0-1.584 1.755c-4.909 5.854-4.502 9.573-3.296 11.66 1.336 2.31 4.1 3.497 7.778 3.497 2.487 0 5.396-.543 8.56-1.648 1.517-.53 5.138-1.992 6.848-2.691a59 59 0 0 0 4.921 2.012c-1.408 4.898-3.35 7.746-4.86 7.746-1.196 0-2.636-1.75-3.764-4.567a17 17 0 0 1-.208-.592c-1.527.602-3.104 1.089-4.274 1.424.101.305.211.627.3.842 2.447 6.114 5.671 7.398 7.946 7.398 4.265 0 7.35-4.534 9.19-10.941q1.185.293 2.311.494c1.583.279 2.964.403 4.173.403M173.097 93.41l-8.932-8.931-3.97 3.536 8.686 8.747c-2.418 1.366-5.211 2.11-8.188 2.11-9.303 0-16.747-7.382-16.747-16.87 0-9.554 7.444-16.936 16.747-16.936 9.306 0 16.747 7.382 16.747 16.936 0 4.463-1.613 8.432-4.343 11.409M160.69 59.48c-12.408 0-22.455 9.987-22.455 22.517 0 12.469 10.047 22.517 22.455 22.517 4.528 0 8.747-1.365 12.28-3.66l4.902 4.963 3.969-3.598-4.775-4.775c3.784-4.031 6.14-9.427 6.14-15.447 0-12.53-10.11-22.516-22.516-22.516M196.383 81.871V65.683h11.598c4.281 0 7.752 3.6 7.752 8.065 0 4.466-3.474 8.126-7.752 8.126h-11.598zm25.12-8.123c0-7.444-6.077-13.46-13.522-13.46h-17.368v43.42h5.77V87.085h10.236l9.74 16.623h6.386L212.51 86.34c5.21-1.862 8.994-6.887 8.994-12.592M234.698 98.248v-37.96h-5.767v43.42h31.224v-5.46z"/></g></svg>