<svg xmlns="http://www.w3.org/2000/svg" viewBox="0 0 96 49"><title>KIR</title><style>.s0{fill:#28328c}</style><path id="line" d="M.1.8h95.7v7.4H.1z" class="s0"/><path id="dot" d="M81.2 40.7h14.6v7.4H81.2z" class="s0"/><path id="I" d="M32.2 17h7.3v31.1h-7.3z" class="s0"/><path id="F" fill-rule="evenodd" d="M73.5 48.2h-4.6q-.7 0-1.4-.2-.6-.1-1.2-.4-.6-.4-1-.9-.5-.5-.8-1.1c-1.7-3.6-3.9-8.3-4.2-9h-5.1v11.5H48V17h12.4c7.8 0 11.6 3.2 11.6 9.7 0 4.4-1.9 7.4-5.2 8.5zM60.4 23.1h-5.3v8.1h5.1c3.2 0 4.2-1 4.2-4.1 0-3-1-4-4-4" class="s0"/><path id="K" d="M17.3 31.8 27 48.1h-5.6q-.7.1-1.4-.1-.6-.2-1.2-.5t-1-.8q-.5-.5-.8-1.1c-1.5-2.5-5.5-9.4-6.2-10.5H7.3v13H.1V17h7.2v12.3l3.6-.1L18.3 17h8.3z" class="s0"/></svg>