<svg version="1.2" xmlns="http://www.w3.org/2000/svg" viewBox="0 0 96 49">
	<title>KIR</title>
	<style>
		.s0 { fill: #28328c } 
	</style>
	<path id="line" class="s0" d="m0.1 0.8h95.7v7.4h-95.7z"/>
	<path id="dot" class="s0" d="m81.2 40.7h14.6v7.4h-14.6z"/>
	<path id="I" class="s0" d="m32.2 17h7.3v31.1h-7.3z"/>
	<path id="F" fill-rule="evenodd" class="s0" d="m73.5 48.2h-4.6q-0.7 0-1.4-0.2-0.6-0.1-1.2-0.4-0.6-0.4-1-0.9-0.5-0.5-0.8-1.1c-1.7-3.6-3.9-8.3-4.2-9h-5.1v11.5h-7.2v-31.1h12.4c7.8 0 11.6 3.2 11.6 9.7 0 4.4-1.9 7.4-5.2 8.5zm-13.1-25.1h-5.3v8.1h5.1c3.2 0 4.2-1 4.2-4.1 0-3-1-4-4-4z"/>
	<path id="K" class="s0" d="m17.3 31.8l9.7 16.3h-5.6q-0.7 0.1-1.4-0.1-0.6-0.2-1.2-0.5-0.6-0.3-1-0.8-0.5-0.5-0.8-1.1c-1.5-2.5-5.5-9.4-6.2-10.5h-3.5v13h-7.2v-31.1h7.2v12.3l3.6-0.1 7.4-12.2h8.3z"/>
</svg>