<svg xmlns="http://www.w3.org/2000/svg" viewBox="0 0 696 155"><title>TrustAsia Logo</title><g fill="none" fill-rule="evenodd"><g fill-rule="nonzero"><path fill="#c6272a" d="M145.37 144.646c1.657-1.795 2.899-3.313 3.59-6.212 3.865-19.604 5.936-40.588 5.936-61.296 0-20.846-2.071-41.14-5.937-60.743-.552-2.761-1.932-4.97-3.727-6.903-1.795-1.519-3.451-2.761-6.213-3.313C119.278 2.313 98.984.242 78 .242c-20.846 0-41.278 2.071-61.02 5.937-2.76.552-4.693 2.209-6.488 3.727-1.519 1.795-3.037 3.59-3.59 6.489C3.038 36.136.967 56.43.967 77.276s2.071 41.278 5.937 60.882c.552 2.76 1.794 4.693 3.589 6.764 1.657 1.519 3.59 2.761 6.489 3.313 19.741 3.866 40.035 5.937 60.88 5.937 20.847 0 41.279-2.071 61.02-5.937 2.9-.69 4.832-1.794 6.489-3.589"/><g fill="#fff"><path d="M57.844 79.347h62.538c1.519 0 2.623-1.38 2.485-2.761-.138-2.071-.414-5.246-.414-7.455 0-1.38-1.242-2.485-2.623-2.485H57.844c-1.518 0-2.209 1.38-2.209 2.07 0 .967-.276 7.87-.276 7.87 0 1.656 1.519 2.76 2.485 2.76M134.602 129.322c-3.728-10.078-8.007-23.193-10.354-41.002-.138-1.104-1.243-2.347-2.623-2.347l-63.78-.138c-2.072 0-3.314 1.795-3.314 2.9-.414 7.04-3.175 24.85-4.694 31.89-.552 2.209 1.243 4.141 3.313 4.141h49.562c2.208 0 3.313-2.208 3.037-3.589l-.967-5.798c-.414-2.071-2.07-3.59-4.28-3.59H71.098c-1.932 0-3.037-1.794-2.899-3.037 0 0 .967-8.56.967-8.835.138-1.105 1.104-2.485 2.76-2.485h33.133c1.38 0 3.038.966 3.176 2.899 1.242 10.216 3.451 22.503 5.798 30.096.552 2.07 2.209 2.623 3.451 2.623h14.082c2.208.276 3.727-1.933 3.037-3.728M120.106 47.595H57.154c-.966 0-1.657.828-1.657 1.656.138 2.9.276 8.836.276 9.388 0 .828.69 1.519 1.657 1.519h63.09c1.105 0 1.933-.967 1.933-1.933 0-2.071.138-5.798.276-8.283-.138-1.38-1.656-2.347-2.623-2.347M49.561 54.083c0-3.175-.276-6.488-.414-9.664-.138-1.518-1.105-15.185-2.07-20.57-.277-1.518-1.796-2.76-3.038-2.76H25.954c-1.795 0-2.07.276-2.761.966-.552.552-.552 1.657-.276 3.451l1.242 8.007c.276 1.657 1.519 2.623 2.9 2.623h2.76c1.933 0 2.9 1.519 2.9 2.761 0 3.866 0 8.007-.138 12.287 0 1.38-.139 2.9-.139 4.28-.138 2.899-.828 12.286-.828 13.943-.552 9.25-2.209 19.604-2.485 22.503-1.933 14.081-4.694 27.472-7.455 38.102-.414 2.071 1.38 3.314 2.623 3.314h12.977c.553 0 3.176-.414 3.866-3.176 3.865-14.357 6.35-29.543 7.73-44.59 0 0 .139-2.21.277-3.176.276-2.899.414-5.66.552-8.56.138-1.932.138-3.727.276-5.66.138-2.899.138-5.936.138-8.835-.552-1.794-.552-3.451-.552-5.246M54.945 39.312c0 .69.828 1.656 1.933 1.656h62.676c2.485 0 3.865-2.07 3.865-3.59.277-4.14.553-9.663.829-13.39.138-1.795-1.38-3.038-2.9-3.038h-13.943c-1.242 0-2.07 1.105-2.07 1.795l-.415 4.004c0 .828-.69 1.518-1.656 1.518H56.602c-1.657 0-2.761 1.519-2.623 2.9.414 2.484.828 5.798.966 8.145"/></g></g><g fill="#000" fill-rule="nonzero"><path d="M223.89 48.196h14.77V26.564h-14.77V16.231h16.702v-5.098h-53.693v4.96h16.563v10.334h-14.493v21.63h14.493v12.125h-18.22v4.96h57.144v-4.96h-18.634V48.196zm-29.952-4.823V31.387h14.493V16.23h10.352v15.156h14.907v11.986h-14.769V60.32H208.57V43.373zM439.214 35.52h34.645v4.684h-34.645zM439.766 68.311h4.97v-3.72H468.2v3.72h4.969V45.44h-33.403zm28.572-18.187v9.783h-23.465v-9.783zM457.986 15.68l1.794-.964-.138-.276q-2.07-3.72-4.14-7.027l-.139-.137-4.278 2.342.138.275c1.242 1.93 2.346 3.858 3.45 5.787H436.04v4.822h41.27V15.68z"/><path d="m437.144 8.929-4.97-1.516-.137.276c-2.899 10.609-7.178 20.529-12.699 29.347l-.138.137v.138c.69 1.516 1.242 3.169 1.932 4.96l.138.413.276-.413c1.795-2.48 3.451-5.235 5.108-8.129v34.17h4.83V24.36c1.933-4.547 3.727-9.644 5.522-15.156zM439.214 25.6h34.645v4.684h-34.645zM393.803 17.747l.138.275 3.174-3.72-.138-.138c-2.484-2.48-4.692-4.546-6.763-6.2l-.138-.137-2.76 3.306.138.138c2.346 2.067 4.554 4.271 6.349 6.476"/><path d="m395.46 50.951-.277-.138v.414c-.276 3.995-.552 6.889-.828 8.542-.138.689-.552 1.378-.966 1.515-.414.138-1.243-.275-2.623-2.617-.69-1.103-1.38-3.031-1.932-5.65 3.589-5.648 6.763-12.4 9.386-19.977l.138-.276-4.555-2.342-.138.276c-1.657 5.649-3.589 10.746-5.935 15.155-.829-12.537-1.243-20.115-1.38-22.32h12.836v-4.96H386.21c-.138-3.72-.138-7.44-.138-10.746V7.55h-4.693v.276c.138 3.582.138 7.164.276 10.746h-17.943v22.458c0 8.818-1.38 15.707-4.003 20.529V44.751h-16.011v22.32h4.278v-3.72h10.629c-.276.413-.552.827-.829 1.102l-.138.276.138.138c1.105.964 2.209 2.066 3.175 3.444l.138.276.138-.276c2.76-3.858 4.693-8.68 5.797-14.329v.138c.276.964.552 2.342.967 4.684v.276h3.45c2.209 0 4.003-.551 5.107-1.791 1.243-1.24 1.933-3.307 1.933-5.925.138-3.995.276-10.057.414-18.737v-.276h-10.904v-8.818h13.526c.69 13.503 1.38 23.01 2.347 28.52A50.6 50.6 0 0 1 372.96 63.49l-.276.138.276.275a55 55 0 0 1 2.898 3.582l.138.276.276-.138c3.175-2.618 6.212-5.786 8.972-9.369.414 1.378.828 2.343 1.38 3.031q3.105 5.994 7.454 6.2c2.208-.275 3.727-2.204 4.417-5.648.276-1.24.552-3.996 1.104-8.956v-.276h-.138c-1.242-.413-2.485-.964-4.003-1.653m-40.167-1.653v9.506h-7.316v-9.506zm11.87 4.546c.69-3.444.967-7.164.967-11.297v-5.374h6.487c0 3.996-.138 8.405-.276 13.09 0 1.377-.276 2.48-.966 3.168-.552.551-1.243.827-2.209.689-.828 0-2.07-.138-3.727-.276z"/><path d="M343.285 25.738h16.839v4.547h-16.84zM343.285 35.244h16.839v4.547h-16.84zM362.47 16.231h-9.385l2.208-1.24-.138-.275c-1.242-2.343-2.623-4.823-4.279-7.44l-.138-.138-4.555 2.48.138.275c1.242 2.205 2.485 4.41 3.45 6.476h-8.695v4.547h21.394zM271.924 36.071l.138-.275c.414-.552.966-1.103 1.518-1.93.414-.55.966-1.24 1.519-1.928l.138-.276-.138-.138c-2.899-2.617-6.074-5.097-9.248-7.44l-.138-.137-3.037 3.72.276.137c2.899 2.343 5.797 5.098 8.696 7.854zM274.685 43.649l-.277-.138a59 59 0 0 1-4.416-1.791l-.277-.138v.276c-1.38 7.853-3.312 15.706-5.52 23.56l-.139.275 5.245 1.791v-.275c1.795-8.129 3.451-16.12 5.245-23.422zM285.037 28.493c0 9.783-.69 16.947-2.07 21.356-1.52 5.098-4.418 9.782-8.559 13.915l-.138.138.138.138c1.105 1.24 2.209 2.48 3.313 3.858l.138.275.138-.137c4.831-4.96 8.006-10.334 9.524-15.707 1.518-4.822 2.347-12.951 2.209-24.111V8.79h-4.831v19.702zM294.146 25.462l-.138-.275-3.864 1.377.138.276c1.518 4.409 2.76 9.093 3.864 13.778v.275l4.28-1.377-.139-.276c-1.104-5.098-2.622-9.644-4.14-13.778M274.408 21.191l.138.138.69-.827c.829-.964 1.795-1.929 2.761-3.169l.138-.137-.138-.138c-3.036-2.894-6.211-5.787-9.386-8.405l-.138-.137-3.174 3.582.138.138c2.346 2.204 5.383 5.097 8.971 8.955M299.391 10.996h4.831v52.907h-4.83z"/><path d="m274.823 40.342.276.138c1.38.413 2.622.964 3.864 1.516l.276.137.138-.275q2.278-6.614 4.555-15.294v-.275l-4.417-1.378v.276c-1.104 5.235-2.484 10.195-4.416 14.88zM313.194 8.79h4.831v58.694h-4.83zM308.225 25.876l-.138-.276-3.864 1.378.138.275c1.38 4.41 2.622 9.094 3.726 13.778v.276l4.28-1.516-.139-.275c-1.242-4.823-2.622-9.37-4.003-13.64"/></g><path fill="#c6272a" d="M678.824 128.382v-23.467c.55-16.012-24.183-10.077-32.015-5.935V84.21c11.542-3.452 33.252-5.936 43.145 2.484 4.122 3.451 6.046 8.697 6.046 15.875v41.825c-17.038-10.353-34.626 10.905-48.779-3.727-3.435-3.589-5.221-8.282-5.221-13.804 0-4.555.824-8.144 2.61-11.043s4.26-5.107 7.558-6.764c3.16-1.656 7.145-2.76 11.954-3.45 3.023-.415 6.183-.829 9.344-1.105v11.733c-.687.138-1.512.138-2.336.276-2.748.415-4.81.829-6.183 1.38-1.787.553-3.023 1.52-3.985 2.762s-1.374 2.76-1.374 4.693c0 1.242.137 2.347.275 3.175.137.828.687 1.518 1.374 2.347.687.69 1.648 1.242 2.61 1.656s2.611.552 4.81.552c1.648 0 3.435-.414 5.22-1.242 2.062-.966 3.573-2.07 4.947-3.451M633 146h-17V81h17z"/><path fill="#000" fill-rule="nonzero" d="M426 124.795c0 6.376-2.495 11.504-7.622 15.384-4.99 3.88-11.919 5.821-20.65 5.821-4.85 0-9.285-.554-13.166-1.525-4.019-.97-7.067-2.217-9.562-3.464v-16.216c7.345 4.02 14.552 8.039 23.005 8.039 3.465 0 5.96-.416 7.623-1.248 2.494-1.386 3.603-5.266.97-7.068-.97-.693-2.772-1.386-5.544-1.94-1.247-.277-3.049-.693-5.266-1.109s-4.296-.831-6.098-1.386c-4.989-1.524-8.592-3.742-11.087-6.79-2.356-3.05-3.603-6.93-3.603-11.504 0-5.96 2.495-10.81 7.484-14.83 4.989-3.88 11.78-5.959 20.372-5.959 4.019 0 8.038.416 11.641 1.386 3.742.97 6.652 1.94 8.731 3.049v15.522c-4.435-4.019-14.551-6.79-20.372-6.79-2.772 0-5.128.415-7.068 1.385-2.772 1.248-4.158 4.851-1.524 7.068.831.832 2.91 1.525 6.097 2.357 1.802.415 3.742.831 5.682 1.247 2.08.416 4.158.831 6.237 1.386 4.573 1.386 8.038 3.465 10.117 6.375 2.494 2.772 3.603 6.375 3.603 10.81M366.861 143.918c-16.25-7.775-38.75 9.024-50-4.165-3.333-3.887-4.861-9.718-4.861-17.354V82.14h17.639v30.681c0 3.054.139 5.692.278 7.774.139 2.083.555 3.749 1.25 5.137.555 1.388 1.527 2.36 2.777 2.916 1.25.694 3.056.971 5.278.971 1.528 0 3.195-.277 5-.971 1.806-.556 3.611-1.528 5.278-2.777V82H367v61.918zM239 97.86h-17.68V146h-18.503V97.86H185V82h54zM486 97.86h-17.817V146h-18.366V97.86H432V82h54zM285.327 101.289c0-1.527-.415-2.915-1.107-4.025s-1.937-1.942-3.597-2.636q-1.87-.625-4.151-.833c-1.66-.139-3.46-.139-5.535-.139h-6.365v16.93h5.397c2.767 0 5.257-.139 7.056-.416 1.937-.278 3.46-.833 4.843-1.666 1.245-.832 2.075-1.804 2.767-2.914.415-1.11.692-2.497.692-4.301M313 145h-21.585l-18.68-23.174h-8.163V145H247V82h29.61c4.013 0 7.61.139 10.516.694a23.7 23.7 0 0 1 8.163 2.775c2.63 1.388 4.566 3.192 6.088 5.55 1.522 2.221 2.214 5.135 2.214 8.466 0 4.718-1.245 8.464-3.459 11.378-2.352 2.915-5.673 5.412-10.1 7.355z"/><path fill="#c6272a" d="M608 124.795c0 6.376-2.488 11.504-7.602 15.384Q592.935 146 579.667 146c-4.838 0-9.26-.554-13.13-1.525-4.009-.97-7.05-2.217-9.537-3.464v-16.216c7.325 4.02 14.512 8.039 22.943 8.039 3.455 0 5.943-.416 7.602-1.248 2.488-1.386 3.593-5.266.967-7.068-.967-.693-2.764-1.386-5.528-1.94-1.244-.277-3.04-.693-5.252-1.109s-4.285-.831-6.082-1.386c-4.975-1.524-8.569-3.742-10.918-6.79-2.35-3.05-3.594-6.93-3.594-11.504 0-5.96 2.488-10.81 7.464-14.83C569.577 83.08 576.35 81 584.919 81c4.008 0 8.016.416 11.61 1.386 3.731.97 6.634 1.94 8.707 3.049v15.522c-4.423-4.019-14.512-6.79-20.317-6.79-2.765 0-5.114.415-7.05 1.385-2.763 1.248-4.145 4.851-1.52 7.068.83.832 2.903 1.525 6.082 2.357q2.695.623 5.805 1.247c2.073.416 4.146.831 6.22 1.386 4.56 1.386 8.016 3.465 10.089 6.375 2.35 2.772 3.455 6.375 3.455 10.81"/><g fill="#c6272a" fill-rule="nonzero"><path d="m558.314 63.308-3.57-6.343-42.285 54.462-3.981-2.206c1.922-6.342 4.119-13.65 7.139-23.44l4.119 13.65L532.503 83.3 526.6 64.962h-21.28l-11.67 35.849-5.765-3.31-8.1 8.549 5.903-.552 26.634 30.747 12.356-19.578c1.922 6.48 6.727 21.785 9.198 29.644h19.083l-15.925-49.223z"/><path d="M478.824 146.31h18.534c2.059-7.031 3.844-12.546 5.354-17.648l-13.18-15.442z"/></g><g fill="#000" fill-rule="nonzero"><path d="M498.55 31.594c-5.637 0-10.312-4.735-10.312-10.688s4.675-10.688 10.312-10.688 10.313 4.735 10.313 10.688-4.675 10.688-10.313 10.688m0-20.7c-5.363 0-9.625 4.465-9.625 10.012s4.4 10.012 9.625 10.012c5.363 0 9.625-4.465 9.625-10.012s-4.262-10.012-9.625-10.012"/><path d="M494.975 14.682c.825-.135 1.925-.27 3.025-.27 1.65 0 2.75.27 3.575 1.082.55.541.963 1.353.963 2.435 0 1.624-.963 2.706-2.338 3.247.963.271 1.512 1.218 1.788 2.571.412 1.759.687 2.977.962 3.518h-1.65c-.137-.406-.413-1.489-.825-2.977-.413-1.759-.963-2.435-2.475-2.435h-1.512v5.412h-1.513zm1.512 5.818h1.65c1.65 0 2.75-.947 2.75-2.435 0-1.624-1.1-2.3-2.75-2.3-.687 0-1.237.135-1.512.135v4.6z"/></g></g></svg>