<?xml version="1.0" encoding="UTF-8"?>
<svg viewBox="0 0 696 155" version="1.1" xmlns="http://www.w3.org/2000/svg" xmlns:xlink="http://www.w3.org/1999/xlink">
    <title>TrustAsia Logo</title>
    <g id="trustasia" stroke="none" stroke-width="1" fill="none" fill-rule="evenodd">
        <g id="trustasia-logo">
            <g id="XMLID_191_" fill-rule="nonzero">
                <path d="M145.369912,144.646018 C147.026549,142.851327 148.269027,141.332743 148.959292,138.433628 C152.824779,118.830088 154.895575,97.8460177 154.895575,77.1380531 C154.895575,56.2920354 152.824779,35.9982301 148.959292,16.3946903 C148.40708,13.6336283 147.026549,11.4247788 145.231858,9.4920354 C143.437168,7.97345133 141.780531,6.73097345 139.019469,6.17876106 C119.277876,2.31327434 98.9840708,0.242477876 78,0.242477876 C57.1539823,0.242477876 36.7221239,2.31327434 16.980531,6.17876106 C14.219469,6.73097345 12.2867257,8.38761062 10.4920354,9.90619469 C8.97345133,11.700885 7.45486726,13.4955752 6.90265487,16.3946903 C3.03716814,36.1362832 0.966371681,56.4300885 0.966371681,77.2761062 C0.966371681,98.1221239 3.03716814,118.553982 6.90265487,138.157522 C7.45486726,140.918584 8.69734513,142.851327 10.4920354,144.922124 C12.1486726,146.440708 14.0814159,147.683186 16.980531,148.235398 C36.7221239,152.100885 57.0159292,154.171681 77.8619469,154.171681 C98.7079646,154.171681 119.139823,152.100885 138.881416,148.235398 C141.780531,147.545133 143.713274,146.440708 145.369912,144.646018 Z" id="XMLID_201_" fill="#C6272A"></path>
                <g id="XMLID_192_" transform="translate(20.707965, 20.707965)" fill="#FFFFFF">
                    <path d="M37.1362832,58.6389381 L37.1362832,58.6389381 L41.2778761,58.6389381 L99.6743363,58.6389381 C101.19292,58.6389381 102.297345,57.2584071 102.159292,55.8778761 C102.021239,53.8070796 101.745133,50.6318584 101.745133,48.4230088 C101.745133,47.0424779 100.502655,45.9380531 99.1221239,45.9380531 L68.4743363,45.9380531 L37.1362832,45.9380531 C35.6176991,45.9380531 34.9274336,47.3185841 34.9274336,48.0088496 C34.9274336,48.9752212 34.6513274,55.8778761 34.6513274,55.8778761 C34.6513274,57.5345133 36.1699115,58.6389381 37.1362832,58.6389381 Z" id="XMLID_200_"></path>
                    <path d="M113.893805,108.614159 C110.166372,98.5362832 105.886726,85.4212389 103.539823,67.6123894 C103.40177,66.5079646 102.297345,65.2654867 100.916814,65.2654867 L37.1362832,65.1274336 C35.0654867,65.1274336 33.8230088,66.9221239 33.8230088,68.0265487 C33.4088496,75.0672566 30.6477876,92.8761062 29.1292035,99.9168142 C28.5769912,102.125664 30.3716814,104.058407 32.4424779,104.058407 L82.0035398,104.058407 C84.2123894,104.058407 85.3168142,101.849558 85.040708,100.469027 L84.0743363,94.6707965 C83.660177,92.6 82.0035398,91.0814159 79.7946903,91.0814159 L50.3893805,91.0814159 C48.4566372,91.0814159 47.3522124,89.2867257 47.4902655,88.0442478 C47.4902655,88.0442478 48.4566372,79.4849558 48.4566372,79.2088496 C48.5946903,78.1044248 49.5610619,76.7238938 51.2176991,76.7238938 L84.3504425,76.7238938 C85.7309735,76.7238938 87.3876106,77.6902655 87.5256637,79.6230088 C88.7681416,89.8389381 90.9769912,102.125664 93.3238938,109.718584 C93.8761062,111.789381 95.5327434,112.341593 96.7752212,112.341593 L110.856637,112.341593 C113.065487,112.617699 114.584071,110.40885 113.893805,108.614159 Z" id="XMLID_199_"></path>
                    <path d="M99.3982301,26.8867257 L36.4460177,26.8867257 C35.479646,26.8867257 34.7893805,27.7150442 34.7893805,28.5433628 C34.9274336,31.4424779 35.0654867,37.3787611 35.0654867,37.9309735 C35.0654867,38.759292 35.7557522,39.4495575 36.7221239,39.4495575 L82.0035398,39.4495575 L99.8123894,39.4495575 C100.916814,39.4495575 101.745133,38.4831858 101.745133,37.5168142 C101.745133,35.4460177 101.883186,31.7185841 102.021239,29.2336283 C101.883186,27.8530973 100.364602,26.8867257 99.3982301,26.8867257 Z" id="XMLID_198_"></path>
                    <path d="M28.8530973,33.3752212 C28.8530973,30.2 28.5769912,26.8867257 28.4389381,23.7115044 C28.300885,22.1929204 27.3345133,8.52566372 26.3681416,3.14159292 C26.0920354,1.62300885 24.5734513,0.380530973 23.3309735,0.380530973 L5.2460177,0.380530973 L5.2460177,0.380530973 C3.45132743,0.380530973 3.17522124,0.656637168 2.48495575,1.34690265 C1.93274336,1.89911504 1.93274336,3.00353982 2.20884956,4.79823009 L3.45132743,12.8053097 C3.72743363,14.4619469 4.9699115,15.4283186 6.35044248,15.4283186 L9.11150442,15.4283186 C11.0442478,15.4283186 12.0106195,16.9469027 12.0106195,18.1893805 C12.0106195,22.0548673 12.0106195,26.1964602 11.8725664,30.4761062 C11.8725664,31.8566372 11.7345133,33.3752212 11.7345133,34.7557522 C11.5964602,37.6548673 10.9061947,47.0424779 10.9061947,48.699115 C10.3539823,57.9486726 8.69734513,68.3026549 8.42123894,71.2017699 C6.48849558,85.2831858 3.72743363,98.6743363 0.966371681,109.304425 C0.552212389,111.375221 2.34690265,112.617699 3.58938053,112.617699 L16.5663717,112.617699 C17.1185841,112.617699 19.7415929,112.20354 20.4318584,109.442478 C24.2973451,95.0849558 26.7823009,79.899115 28.1628319,64.8513274 C28.1628319,64.8513274 28.300885,62.6424779 28.4389381,61.6761062 C28.7150442,58.7769912 28.8530973,56.0159292 28.9911504,53.1168142 C29.1292035,51.1840708 29.1292035,49.3893805 29.2672566,47.4566372 C29.4053097,44.5575221 29.4053097,41.520354 29.4053097,38.6212389 C28.8530973,36.8265487 28.8530973,35.1699115 28.8530973,33.3752212 Z" id="XMLID_197_"></path>
                    <path d="M34.2371681,18.6035398 C34.2371681,19.2938053 35.0654867,20.260177 36.1699115,20.260177 L98.8460177,20.260177 C101.330973,20.260177 102.711504,18.1893805 102.711504,16.6707965 C102.987611,12.5292035 103.263717,7.00707965 103.539823,3.27964602 C103.677876,1.48495575 102.159292,0.242477876 100.640708,0.242477876 L100.640708,0.242477876 L86.6973451,0.242477876 C85.4548673,0.242477876 84.6265487,1.34690265 84.6265487,2.03716814 L84.2123894,6.04070796 C84.2123894,6.86902655 83.5221239,7.55929204 82.5557522,7.55929204 L35.8938053,7.55929204 C34.2371681,7.55929204 33.1327434,9.07787611 33.2707965,10.4584071 C33.6849558,12.9433628 34.099115,16.2566372 34.2371681,18.6035398 Z" id="XMLID_194_"></path>
                </g>
            </g>
            <g id="XMLID_115_" transform="translate(185.000000, 7.000000)" fill="#000000" fill-rule="nonzero">
                <path d="M38.8901408,41.1955556 L53.6591549,41.1955556 L53.6591549,19.5644444 L38.8901408,19.5644444 L38.8901408,9.23111111 L55.5915493,9.23111111 L55.5915493,4.13333333 L1.89859155,4.13333333 L1.89859155,9.09333333 L18.4619718,9.09333333 L18.4619718,19.4266667 L3.96901408,19.4266667 L3.96901408,41.0577778 L18.4619718,41.0577778 L18.4619718,53.1822222 L0.242253521,53.1822222 L0.242253521,58.1422222 L57.3859155,58.1422222 L57.3859155,53.1822222 L38.7521127,53.1822222 L38.7521127,41.1955556 L38.8901408,41.1955556 Z M8.93802817,36.3733333 L8.93802817,24.3866667 L23.4309859,24.3866667 L23.4309859,9.23111111 L33.7830986,9.23111111 L33.7830986,24.3866667 L48.6901408,24.3866667 L48.6901408,36.3733333 L33.9211268,36.3733333 L33.9211268,53.32 L23.5690141,53.32 L23.5690141,36.3733333 L8.93802817,36.3733333 Z" id="XMLID_144_"></path>
                <g id="XMLID_136_" transform="translate(233.647887, 0.000000)">
                    <rect id="XMLID_143_" x="20.5661972" y="28.52" width="34.6450704" height="4.68444444"></rect>
                    <path d="M21.1183099,61.3111111 L26.0873239,61.3111111 L26.0873239,57.5911111 L49.5521127,57.5911111 L49.5521127,61.3111111 L54.5211268,61.3111111 L54.5211268,38.44 L21.1183099,38.44 L21.1183099,61.3111111 L21.1183099,61.3111111 Z M49.6901408,43.1244444 L49.6901408,52.9066667 L26.2253521,52.9066667 L26.2253521,43.1244444 L49.6901408,43.1244444 Z" id="XMLID_140_"></path>
                    <path d="M39.3380282,8.68 L41.1323944,7.71555556 L40.9943662,7.44 C39.6140845,4.96 38.2338028,2.61777778 36.8535211,0.413333333 L36.715493,0.275555556 L32.4366197,2.61777778 L32.5746479,2.89333333 C33.8169014,4.82222222 34.9211268,6.75111111 36.0253521,8.68 L17.3915493,8.68 L17.3915493,13.5022222 L58.6619718,13.5022222 L58.6619718,8.68 L39.3380282,8.68 Z" id="XMLID_139_"></path>
                    <path d="M18.4957746,1.92888889 L13.5267606,0.413333333 L13.3887324,0.688888889 C10.4901408,11.2977778 6.21126761,21.2177778 0.690140845,30.0355556 L0.552112676,30.1733333 L0.552112676,30.3111111 C1.24225352,31.8266667 1.7943662,33.48 2.48450704,35.2711111 L2.62253521,35.6844444 L2.89859155,35.2711111 C4.69295775,32.7911111 6.34929577,30.0355556 8.0056338,27.1422222 L8.0056338,61.3111111 L12.8366197,61.3111111 L12.8366197,17.36 C14.7690141,12.8133333 16.5633803,7.71555556 18.3577465,2.20444444 L18.4957746,1.92888889 Z" id="XMLID_138_"></path>
                    <rect id="XMLID_137_" x="20.5661972" y="18.6" width="34.6450704" height="4.68444444"></rect>
                </g>
                <g id="XMLID_126_" transform="translate(155.971831, 0.000000)">
                    <path d="M52.8309859,10.7466667 L52.9690141,11.0222222 L56.143662,7.30222222 L56.0056338,7.16444444 C53.5211268,4.68444444 51.3126761,2.61777778 49.2422535,0.964444444 L49.1042254,0.826666667 L46.343662,4.13333333 L46.4816901,4.27111111 C48.828169,6.33777778 51.0366197,8.54222222 52.8309859,10.7466667 Z" id="XMLID_135_"></path>
                    <path d="M54.4873239,43.9511111 L54.2112676,43.8133333 L54.2112676,44.2266667 C53.9352113,48.2222222 53.6591549,51.1155556 53.3830986,52.7688889 C53.2450704,53.4577778 52.8309859,54.1466667 52.4169014,54.2844444 C52.0028169,54.4222222 51.1746479,54.0088889 49.7943662,51.6666667 C49.1042254,50.5644444 48.4140845,48.6355556 47.8619718,46.0177778 C51.4507042,40.3688889 54.6253521,33.6177778 57.2478873,26.04 L57.3859155,25.7644444 L52.8309859,23.4222222 L52.6929577,23.6977778 C51.0366197,29.3466667 49.1042254,34.4444444 46.7577465,38.8533333 C45.9295775,26.3155556 45.515493,18.7377778 45.3774648,16.5333333 L58.2140845,16.5333333 L58.2140845,11.5733333 L45.2394366,11.5733333 C45.1014085,7.85333333 45.1014085,4.13333333 45.1014085,0.826666667 L45.1014085,0.551111111 L40.4084507,0.551111111 L40.4084507,0.826666667 C40.5464789,4.40888889 40.5464789,7.99111111 40.684507,11.5733333 L22.7408451,11.5733333 L22.7408451,34.0311111 C22.7408451,42.8488889 21.3605634,49.7377778 18.7380282,54.56 L18.7380282,37.7511111 L2.72676056,37.7511111 L2.72676056,60.0711111 L7.0056338,60.0711111 L7.0056338,56.3511111 L17.6338028,56.3511111 C17.3577465,56.7644444 17.0816901,57.1777778 16.8056338,57.4533333 L16.6676056,57.7288889 L16.8056338,57.8666667 C17.9098592,58.8311111 19.0140845,59.9333333 19.9802817,61.3111111 L20.1183099,61.5866667 L20.256338,61.3111111 C23.0169014,57.4533333 24.9492958,52.6311111 26.0535211,46.9822222 L26.0535211,47.12 C26.3295775,48.0844444 26.6056338,49.4622222 27.0197183,51.8044444 L27.0197183,52.08 L27.1577465,52.08 C27.8478873,52.08 28.8140845,52.08 30.4704225,52.08 C32.6788732,52.08 34.4732394,51.5288889 35.5774648,50.2888889 C36.8197183,49.0488889 37.5098592,46.9822222 37.5098592,44.3644444 C37.6478873,40.3688889 37.7859155,34.3066667 37.9239437,25.6266667 L37.9239437,25.3511111 L27.0197183,25.3511111 L27.0197183,16.5333333 L40.5464789,16.5333333 C41.2366197,30.0355556 41.9267606,39.5422222 42.8929577,45.0533333 C39.856338,49.4622222 36.1295775,53.32 31.9887324,56.4888889 L31.7126761,56.6266667 L31.9887324,56.9022222 C33.0929577,58.1422222 34.0591549,59.3822222 34.8873239,60.4844444 L35.0253521,60.76 L35.3014085,60.6222222 C38.4760563,58.0044444 41.5126761,54.8355556 44.2732394,51.2533333 C44.6873239,52.6311111 45.1014085,53.5955556 45.6535211,54.2844444 C47.7239437,58.28 50.2084507,60.3466667 53.1070423,60.4844444 C55.315493,60.2088889 56.8338028,58.28 57.5239437,54.8355556 C57.8,53.5955556 58.0760563,50.84 58.628169,45.88 L58.628169,45.6044444 L58.4901408,45.6044444 C57.2478873,45.1911111 56.0056338,44.64 54.4873239,43.9511111 Z M14.3211268,42.2977778 L14.3211268,51.8044444 L7.0056338,51.8044444 L7.0056338,42.2977778 L14.3211268,42.2977778 Z M26.1915493,46.8444444 C26.8816901,43.4 27.1577465,39.68 27.1577465,35.5466667 L27.1577465,30.1733333 L33.6450704,30.1733333 C33.6450704,34.1688889 33.5070423,38.5777778 33.3690141,43.2622222 C33.3690141,44.64 33.0929577,45.7422222 32.4028169,46.4311111 C31.8507042,46.9822222 31.1605634,47.2577778 30.1943662,47.12 C29.3661972,47.12 28.1239437,46.9822222 26.4676056,46.8444444 L26.1915493,46.8444444 Z" id="XMLID_130_"></path>
                    <rect id="XMLID_129_" x="2.31267606" y="18.7377778" width="16.8394366" height="4.54666667"></rect>
                    <rect id="XMLID_128_" x="2.31267606" y="28.2444444" width="16.8394366" height="4.54666667"></rect>
                    <path d="M21.4985915,9.23111111 L12.1126761,9.23111111 L14.3211268,7.99111111 L14.1830986,7.71555556 C12.9408451,5.37333333 11.5605634,2.89333333 9.90422535,0.275555556 L9.76619718,0.137777778 L5.21126761,2.61777778 L5.34929577,2.89333333 C6.5915493,5.09777778 7.83380282,7.30222222 8.8,9.36888889 L0.104225352,9.36888889 L0.104225352,13.9155556 L21.4985915,13.9155556 L21.4985915,9.23111111 L21.4985915,9.23111111 Z" id="XMLID_127_"></path>
                </g>
                <g id="XMLID_116_" transform="translate(77.676056, 1.377778)">
                    <path d="M9.24788732,27.6933333 L9.38591549,27.4177778 C9.8,26.8666667 10.3521127,26.3155556 10.9042254,25.4888889 C11.3183099,24.9377778 11.8704225,24.2488889 12.4225352,23.56 L12.5605634,23.2844444 L12.4225352,23.1466667 C9.52394366,20.5288889 6.34929577,18.0488889 3.17464789,15.7066667 L3.03661972,15.5688889 L0,19.2888889 L0.276056338,19.4266667 C3.17464789,21.7688889 6.07323944,24.5244444 8.97183099,27.28 L9.24788732,27.6933333 Z" id="XMLID_125_"></path>
                    <path d="M12.0084507,35.2711111 L11.7323944,35.1333333 C10.2140845,34.5822222 8.83380282,34.0311111 7.31549296,33.3422222 L7.03943662,33.2044444 L7.03943662,33.48 C5.65915493,41.3333333 3.72676056,49.1866667 1.51830986,57.04 L1.38028169,57.3155556 L6.62535211,59.1066667 L6.62535211,58.8311111 C8.41971831,50.7022222 10.0760563,42.7111111 11.8704225,35.4088889 L12.0084507,35.2711111 Z" id="XMLID_124_"></path>
                    <path d="M22.3605634,20.1155556 C22.3605634,29.8977778 21.6704225,37.0622222 20.2901408,41.4711111 C18.771831,46.5688889 15.8732394,51.2533333 11.7323944,55.3866667 L11.5943662,55.5244444 L11.7323944,55.6622222 C12.8366197,56.9022222 13.9408451,58.1422222 15.0450704,59.52 L15.1830986,59.7955556 L15.3211268,59.6577778 C20.1521127,54.6977778 23.3267606,49.3244444 24.8450704,43.9511111 C26.3633803,39.1288889 27.1915493,31 27.0535211,19.84 L27.0535211,0.413333333 L22.2225352,0.413333333 L22.2225352,20.1155556 L22.3605634,20.1155556 Z" id="XMLID_123_"></path>
                    <path d="M31.4704225,17.0844444 L31.3323944,16.8088889 L27.4676056,18.1866667 L27.6056338,18.4622222 C29.1239437,22.8711111 30.3661972,27.5555556 31.4704225,32.24 L31.4704225,32.5155556 L35.7492958,31.1377778 L35.6112676,30.8622222 C34.5070423,25.7644444 32.9887324,21.2177778 31.4704225,17.0844444 Z" id="XMLID_122_"></path>
                    <path d="M11.7323944,12.8133333 L11.8704225,12.9511111 L12.5605634,12.1244444 C13.3887324,11.16 14.3549296,10.1955556 15.3211268,8.95555556 L15.4591549,8.81777778 L15.3211268,8.68 C12.284507,5.78666667 9.10985915,2.89333333 5.93521127,0.275555556 L5.7971831,0.137777778 L2.62253521,3.72 L2.76056338,3.85777778 C5.10704225,6.06222222 8.14366197,8.95555556 11.7323944,12.8133333 Z" id="XMLID_121_"></path>
                    <rect id="XMLID_120_" x="36.715493" y="2.61777778" width="4.83098592" height="52.9066667"></rect>
                    <path d="M12.1464789,31.9644444 L12.4225352,32.1022222 C13.8028169,32.5155556 15.0450704,33.0666667 16.2873239,33.6177778 L16.5633803,33.7555556 L16.7014085,33.48 C18.2197183,29.0711111 19.7380282,23.9733333 21.256338,18.1866667 L21.256338,17.9111111 L16.8394366,16.5333333 L16.8394366,16.8088889 C15.7352113,22.0444444 14.3549296,27.0044444 12.4225352,31.6888889 L12.1464789,31.9644444 Z" id="XMLID_119_"></path>
                    <rect id="XMLID_118_" x="50.5183099" y="0.413333333" width="4.83098592" height="58.6933333"></rect>
                    <path d="M45.5492958,17.4977778 L45.4112676,17.2222222 L41.5464789,18.6 L41.684507,18.8755556 C43.0647887,23.2844444 44.3070423,27.9688889 45.4112676,32.6533333 L45.4112676,32.9288889 L49.6901408,31.4133333 L49.5521127,31.1377778 C48.3098592,26.3155556 46.9295775,21.7688889 45.5492958,17.4977778 Z" id="XMLID_117_"></path>
                </g>
            </g>
            <path d="M678.824427,128.381811 L678.824427,115.544204 C678.824427,115.544204 678.824427,115.544204 678.824427,115.544204 C678.824427,114.715972 678.824427,107.675994 678.824427,104.915218 C679.374046,88.9027201 654.641221,94.8383875 646.80916,98.9795509 L646.80916,84.2094016 C658.351145,80.7584321 680.061069,78.2737341 689.954198,86.6940996 C694.076336,90.1450691 696,95.3905426 696,102.568559 L696,144.394309 C678.961832,134.041401 661.374046,155.299372 647.221374,140.667262 C643.78626,137.078254 642,132.384935 642,126.863384 C642,122.308104 642.824427,118.719096 644.610687,115.820282 C646.396947,112.921467 648.870229,110.712847 652.167939,109.056382 C655.328244,107.399916 659.312977,106.295606 664.122137,105.605412 C667.145038,105.191296 670.305344,104.77718 673.465649,104.501102 L673.465649,116.234398 C672.778626,116.372437 671.954198,116.372437 671.129771,116.510476 C668.381679,116.924592 666.320611,117.338708 664.946565,117.890863 C663.160305,118.443019 661.923664,119.40929 660.961832,120.651639 C660,121.893988 659.587786,123.412415 659.587786,125.344958 C659.587786,126.587307 659.725191,127.691617 659.862595,128.519849 C660,129.348082 660.549618,130.038276 661.236641,130.866509 C661.923664,131.556703 662.885496,132.108858 663.847328,132.522974 C664.80916,132.93709 666.458015,133.075129 668.656489,133.075129 C670.305344,133.075129 672.091603,132.661013 673.877863,131.83278 C675.938931,130.866509 677.450382,129.762198 678.824427,128.381811 L678.824427,128.381811 Z" id="XMLID_112_" fill="#C6272A"></path>
            <polygon id="XMLID_108_" fill="#C6272A" points="633 146 616 146 616 81 633 81"></polygon>
            <path d="M426,124.795309 C426,131.170576 423.505435,136.298507 418.377717,140.179104 C413.388587,144.059701 406.459239,146 397.728261,146 C392.877717,146 388.442935,145.445629 384.5625,144.47548 C380.543478,143.50533 377.494565,142.257996 375,141.010661 L375,124.795309 C382.345109,128.814499 389.55163,132.833689 398.005435,132.833689 C401.470109,132.833689 403.964674,132.41791 405.627717,131.586354 C408.122283,130.200426 409.230978,126.319829 406.597826,124.518124 C405.627717,123.82516 403.826087,123.132196 401.054348,122.577825 C399.807065,122.30064 398.005435,121.884861 395.788043,121.469083 C393.570652,121.053305 391.491848,120.637527 389.690217,120.083156 C384.701087,118.558635 381.097826,116.341151 378.603261,113.292111 C376.247283,110.24307 375,106.362473 375,101.788913 C375,95.8294243 377.494565,90.978678 382.483696,86.9594883 C387.472826,83.0788913 394.263587,81 402.855978,81 C406.875,81 410.894022,81.4157783 414.497283,82.3859275 C418.23913,83.3560768 421.149457,84.326226 423.228261,85.434968 L423.228261,100.957356 C418.793478,96.9381663 408.67663,94.1663113 402.855978,94.1663113 C400.084239,94.1663113 397.728261,94.5820896 395.788043,95.5522388 C393.016304,96.7995736 391.630435,100.402985 394.263587,102.620469 C395.095109,103.452026 397.173913,104.144989 400.361413,104.976546 C402.163043,105.392324 404.103261,105.808102 406.043478,106.223881 C408.122283,106.639659 410.201087,107.055437 412.279891,107.609808 C416.853261,108.995736 420.317935,111.074627 422.396739,113.985075 C424.891304,116.75693 426,120.360341 426,124.795309 L426,124.795309 Z" id="XMLID_107_" fill="#000000" fill-rule="nonzero"></path>
            <path d="M366.861111,143.91775 C350.611111,136.143324 328.111111,152.941638 316.861111,139.752879 C313.527778,135.865666 312,130.034847 312,122.39925 L312,82.138829 L329.638889,82.138829 L329.638889,112.820046 C329.638889,115.874285 329.777778,118.512037 329.916667,120.594472 C330.055556,122.676908 330.472222,124.342856 331.166667,125.731147 C331.722222,127.119437 332.694444,128.09124 333.944444,128.646556 C335.194444,129.340701 337,129.61836 339.222222,129.61836 C340.75,129.61836 342.416667,129.340701 344.222222,128.646556 C346.027778,128.09124 347.833333,127.119437 349.5,125.869976 L349.5,82 L367,82 L367,143.91775 L366.861111,143.91775 Z" id="XMLID_106_" fill="#000000" fill-rule="nonzero"></path>
            <polygon id="XMLID_105_" fill="#000000" fill-rule="nonzero" points="239 97.8608696 221.319797 97.8608696 221.319797 146 202.817259 146 202.817259 97.8608696 185 97.8608696 185 82 239 82"></polygon>
            <polygon id="XMLID_104_" fill="#000000" fill-rule="nonzero" points="486 97.8608696 468.182741 97.8608696 468.182741 146 449.817259 146 449.817259 97.8608696 432 97.8608696 432 82 486 82"></polygon>
            <path d="M285.327044,101.288546 C285.327044,99.7621145 284.91195,98.3744493 284.220126,97.2643172 C283.528302,96.154185 282.283019,95.3215859 280.622642,94.6277533 C279.377358,94.2114537 277.993711,93.9339207 276.471698,93.7951542 C274.811321,93.6563877 273.012579,93.6563877 270.937107,93.6563877 L264.572327,93.6563877 L264.572327,110.585903 L269.968553,110.585903 C272.735849,110.585903 275.226415,110.447137 277.025157,110.169604 C278.962264,109.89207 280.484277,109.337004 281.867925,108.504405 C283.113208,107.671806 283.943396,106.700441 284.63522,105.590308 C285.050314,104.480176 285.327044,103.092511 285.327044,101.288546 L285.327044,101.288546 Z M313,145 L291.415094,145 L272.735849,121.825991 L264.572327,121.825991 L264.572327,145 L247,145 L247,82 L276.610063,82 C280.622642,82 284.220126,82.1387665 287.125786,82.6938326 C290.031447,83.1101322 292.798742,84.0814978 295.289308,85.469163 C297.918239,86.8568282 299.855346,88.660793 301.377358,91.0198238 C302.899371,93.2400881 303.591195,96.154185 303.591195,99.4845815 C303.591195,104.202643 302.345912,107.949339 300.132075,110.863436 C297.779874,113.777533 294.459119,116.27533 290.031447,118.218062 L313,145 L313,145 Z" id="XMLID_101_" fill="#000000" fill-rule="nonzero"></path>
            <path d="M608,124.795309 C608,131.170576 605.512195,136.298507 600.398374,140.179104 C595.422764,144.059701 588.512195,146 579.666667,146 C574.829268,146 570.406504,145.445629 566.536585,144.47548 C562.528455,143.50533 559.487805,142.257996 557,141.010661 L557,124.795309 C564.325203,128.814499 571.512195,132.833689 579.943089,132.833689 C583.398374,132.833689 585.886179,132.41791 587.544715,131.586354 C590.03252,130.200426 591.138211,126.319829 588.512195,124.518124 C587.544715,123.82516 585.747967,123.132196 582.98374,122.577825 C581.739837,122.30064 579.943089,121.884861 577.731707,121.469083 C575.520325,121.053305 573.447154,120.637527 571.650407,120.083156 C566.674797,118.558635 563.081301,116.341151 560.731707,113.292111 C558.382114,110.24307 557.138211,106.362473 557.138211,101.788913 C557.138211,95.8294243 559.626016,90.978678 564.601626,86.9594883 C569.577236,83.0788913 576.349593,81 584.918699,81 C588.926829,81 592.934959,81.4157783 596.528455,82.3859275 C600.260163,83.3560768 603.162602,84.326226 605.235772,85.434968 L605.235772,100.957356 C600.813008,96.9381663 590.723577,94.1663113 584.918699,94.1663113 C582.154472,94.1663113 579.804878,94.5820896 577.869919,95.5522388 C575.105691,96.7995736 573.723577,100.402985 576.349593,102.620469 C577.178862,103.452026 579.252033,104.144989 582.430894,104.976546 C584.227642,105.392324 586.162602,105.808102 588.235772,106.223881 C590.308943,106.639659 592.382114,107.055437 594.455285,107.609808 C599.01626,108.995736 602.471545,111.074627 604.544715,113.985075 C606.894309,116.75693 608,120.360341 608,124.795309 L608,124.795309 Z" id="XMLID_97_" fill="#C6272A"></path>
            <g id="XMLID_90_" transform="translate(478.000000, 56.000000)" fill="#C6272A" fill-rule="nonzero">
                <path d="M80.3135593,7.30757576 L76.7440678,0.965151515 L34.459322,55.4272727 L30.4779661,53.2212121 C32.4,46.8787879 34.5966102,39.5712121 37.6169492,29.7818182 L41.7355932,43.4318182 L54.5033898,27.3 L48.6,8.96212121 L27.320339,8.96212121 L15.6508475,44.8106061 L9.88474576,41.5015152 L1.78474576,50.05 L7.68813559,49.4984848 L34.3220339,80.2454545 L46.6779661,60.6666667 C48.6,67.1469697 53.4050847,82.4515152 55.8762712,90.3106061 L74.959322,90.3106061 L59.0338983,41.0878788 L80.3135593,7.30757576 Z" id="XMLID_94_"></path>
                <path d="M0.823728814,90.3106061 L19.3576271,90.3106061 C21.4169492,83.2787879 23.2016949,77.7636364 24.7118644,72.6621212 L11.5322034,57.219697 L0.823728814,90.3106061 Z" id="XMLID_91_"></path>
            </g>
            <g id="XMLID_81_" transform="translate(488.000000, 10.000000)" fill="#000000" fill-rule="nonzero">
                <path d="M10.55,21.5941176 C4.9125,21.5941176 0.2375,16.8588235 0.2375,10.9058824 C0.2375,4.95294118 4.9125,0.217647059 10.55,0.217647059 C16.1875,0.217647059 20.8625,4.95294118 20.8625,10.9058824 C20.8625,16.8588235 16.1875,21.5941176 10.55,21.5941176 Z M10.55,0.894117647 C5.1875,0.894117647 0.925,5.35882353 0.925,10.9058824 C0.925,16.4529412 5.325,20.9176471 10.55,20.9176471 C15.9125,20.9176471 20.175,16.4529412 20.175,10.9058824 C20.175,5.35882353 15.9125,0.894117647 10.55,0.894117647 Z" id="XMLID_86_"></path>
                <g id="XMLID_82_" transform="translate(6.875000, 4.411765)">
                    <path d="M0.1,0.270588235 C0.925,0.135294118 2.025,0 3.125,0 C4.775,0 5.875,0.270588235 6.7,1.08235294 C7.25,1.62352941 7.6625,2.43529412 7.6625,3.51764706 C7.6625,5.14117647 6.7,6.22352941 5.325,6.76470588 L5.325,6.76470588 C6.2875,7.03529412 6.8375,7.98235294 7.1125,9.33529412 C7.525,11.0941176 7.8,12.3117647 8.075,12.8529412 L6.425,12.8529412 C6.2875,12.4470588 6.0125,11.3647059 5.6,9.87647059 C5.1875,8.11764706 4.6375,7.44117647 3.125,7.44117647 L1.6125,7.44117647 L1.6125,12.8529412 L0.1,12.8529412 L0.1,0.270588235 L0.1,0.270588235 Z M1.6125,6.08823529 L3.2625,6.08823529 C4.9125,6.08823529 6.0125,5.14117647 6.0125,3.65294118 C6.0125,2.02941176 4.9125,1.35294118 3.2625,1.35294118 C2.575,1.35294118 2.025,1.48823529 1.75,1.48823529 L1.75,6.08823529 L1.6125,6.08823529 Z" id="XMLID_83_"></path>
                </g>
            </g>
        </g>
    </g>
</svg>