<?xml version="1.0" encoding="utf-8"?>
<!-- Generator: Adobe Illustrator 25.0.0, SVG Export Plug-In . SVG Version: 6.00 Build 0)  -->
<svg 
  xmlns="http://www.w3.org/2000/svg" 
  xmlns:xlink="http://www.w3.org/1999/xlink" version="1.1" id="Layer_1" x="0px" y="0px" viewBox="0 0 375 209" style="enable-background:new 0 0 375 209;" xml:space="preserve">
  <style type="text/css">
	.st0{fill:#049FD9;}
</style>
  <g transform="matrix(1.66667 0 0 1.66667 100 105.006)">
    <path class="st0" d="M50.7,19.2c-0.3-0.1-4.6-1.2-9.2-1.2c-8.7,0-14,4.7-14,11.7c0,6.2,4.4,9.3,9.7,11c0.6,0.2,1.4,0.5,2,0.7   c2.3,0.7,4.2,1.8,4.2,3.7c0,2.1-2.2,3.5-6.9,3.5c-4.1,0-8.1-1.2-8.9-1.4v8.6c0.5,0.1,5.2,1,10.2,1c7.2,0,15.5-3.2,15.5-12.6   c0-4.6-2.8-8.8-8.9-10.7l-2.6-0.8c-1.6-0.5-4.3-1.3-4.3-3.6c0-1.8,2.1-3.1,5.9-3.1c3.3,0,7.3,1.1,7.4,1.1V19.2z M130.7,37.5   c0,5.5-4.2,9.9-9.8,9.9c-5.6,0-9.8-4.4-9.8-9.9c0-5.4,4.2-9.9,9.8-9.9C126.5,27.6,130.7,32,130.7,37.5 M120.9,18.1   c-11.5,0-19.8,8.7-19.8,19.4c0,10.7,8.3,19.4,19.8,19.4c11.5,0,19.8-8.7,19.8-19.4C140.8,26.8,132.5,18.1,120.9,18.1 M14.8,56.3   H5.3V18.7h9.5"/>
    <path class="st0" d="M-7.7,19.4c-0.9-0.3-4.2-1.3-8.6-1.3c-11.5,0-20,8.2-20,19.4c0,12.1,9.3,19.4,20,19.4c4.2,0,7.5-1,8.6-1.3   V45.5c-0.4,0.2-3.5,2-8,2c-6.3,0-10.4-4.4-10.4-10c0-5.7,4.2-10,10.4-10c4.5,0,7.6,1.8,8,2"/>
    <path class="st0" d="M91.1,19.4c-0.9-0.3-4.2-1.3-8.6-1.3c-11.5,0-20,8.2-20,19.4c0,12.1,9.3,19.4,20,19.4c4.2,0,7.5-1,8.6-1.3   V45.5c-0.4,0.2-3.5,2-8,2c-6.3,0-10.4-4.4-10.4-10c0-5.7,4.2-10,10.4-10c4.5,0,7.6,1.8,8,2"/>
    <path class="st0" d="M5.3-52.2c0-2.6-2.1-4.7-4.7-4.7c-2.6,0-4.7,2.1-4.7,4.7v49.8c0,2.6,2.1,4.7,4.7,4.7c2.6,0,4.7-2.1,4.7-4.7   V-52.2z M-20.6-34.5c0-2.6-2.1-4.7-4.7-4.7s-4.7,2.1-4.7,4.7v22.8c0,2.6,2.1,4.7,4.7,4.7s4.7-2.1,4.7-4.7V-34.5z M-46.4-21.6   c0-2.6-2.1-4.7-4.7-4.7c-2.6,0-4.7,2.1-4.7,4.7v9.9c0,2.6,2.1,4.7,4.7,4.7c2.6,0,4.7-2.1,4.7-4.7"/>
    <path class="st0" d="M-4.1-52.2c0-2.6,2.1-4.7,4.7-4.7c2.6,0,4.7,2.1,4.7,4.7v49.8c0,2.6-2.1,4.7-4.7,4.7c-2.6,0-4.7-2.1-4.7-4.7   V-52.2z M21.7-34.5c0-2.6,2.1-4.7,4.7-4.7s4.7,2.1,4.7,4.7v22.8c0,2.6-2.1,4.7-4.7,4.7s-4.7-2.1-4.7-4.7V-34.5z M47.5-21.6   c0-2.6,2.1-4.7,4.7-4.7c2.6,0,4.7,2.1,4.7,4.7v9.9c0,2.6-2.1,4.7-4.7,4.7c-2.6,0-4.7-2.1-4.7-4.7"/>
    <g transform="matrix(-1 0 0 1 216 0)">
      <path class="st0" d="M116.9-52.2c0-2.6-2.1-4.7-4.7-4.7c-2.6,0-4.7,2.1-4.7,4.7v49.8c0,2.6,2.1,4.7,4.7,4.7c2.6,0,4.7-2.1,4.7-4.7    V-52.2z M91-34.5c0-2.6-2.1-4.7-4.7-4.7c-2.6,0-4.7,2.1-4.7,4.7v22.8c0,2.6,2.1,4.7,4.7,4.7c2.6,0,4.7-2.1,4.7-4.7V-34.5z     M65.2-21.6c0-2.6-2.1-4.7-4.7-4.7c-2.6,0-4.7,2.1-4.7,4.7v9.9c0,2.6,2.1,4.7,4.7,4.7c2.6,0,4.7-2.1,4.7-4.7"/>
      <path class="st0" d="M107.5-52.2c0-2.6,2.1-4.7,4.7-4.7c2.6,0,4.7,2.1,4.7,4.7v49.8c0,2.6-2.1,4.7-4.7,4.7c-2.6,0-4.7-2.1-4.7-4.7    V-52.2z M133.3-34.5c0-2.6,2.1-4.7,4.7-4.7s4.7,2.1,4.7,4.7v22.8c0,2.6-2.1,4.7-4.7,4.7s-4.7-2.1-4.7-4.7V-34.5z M159.1-21.6    c0-2.6,2.1-4.7,4.7-4.7c2.6,0,4.7,2.1,4.7,4.7v9.9c0,2.6-2.1,4.7-4.7,4.7c-2.6,0-4.7-2.1-4.7-4.7"/>
    </g>
  </g>
</svg>
