<?xml version="1.0" encoding="UTF-8" standalone="no"?>

<svg
   version="1.1"
   id="svg2"
   width="306.14267"
   height="102.0472"
   viewBox="0 0 306.14267 102.0472"
   sodipodi:docname="FOX-CRYPTO merkteken-Pos-CMYK.ai"
   xmlns:inkscape="http://www.inkscape.org/namespaces/inkscape"
   xmlns:sodipodi="http://sodipodi.sourceforge.net/DTD/sodipodi-0.dtd"
   xmlns="http://www.w3.org/2000/svg"
   xmlns:svg="http://www.w3.org/2000/svg">
  <defs
     id="defs6">
    <clipPath
       clipPathUnits="userSpaceOnUse"
       id="clipPath18">
      <path
         d="M 0,76.535 H 229.607 V 0 H 0 Z"
         id="path16" />
    </clipPath>
    <clipPath
       clipPathUnits="userSpaceOnUse"
       id="clipPath26">
      <path
         d="M 0,76.7537 H 305.166 V 0.218262 H 0 Z"
         id="path24" />
    </clipPath>
  </defs>
  <sodipodi:namedview
     id="namedview4"
     pagecolor="#ffffff"
     bordercolor="#000000"
     borderopacity="0.25"
     inkscape:showpageshadow="2"
     inkscape:pageopacity="0.0"
     inkscape:pagecheckerboard="0"
     inkscape:deskcolor="#d1d1d1" />
  <g
     id="g8"
     inkscape:groupmode="layer"
     inkscape:label="FOX-CRYPTO merkteken-Pos-CMYK"
     transform="matrix(1.3333333,0,0,-1.3333333,0,102.0472)">
    <path
       d="M 0,0 H 229.607 V 76.535 H 0 Z"
       style="fill:#ffffff;fill-opacity:1;fill-rule:nonzero;stroke:none"
       id="path10" />
    <g
       id="g12">
      <g
         id="g14"
         clip-path="url(#clipPath18)">
        <g
           id="g20">
          <g
             id="g22" />
          <g
             id="g32">
            <g
               clip-path="url(#clipPath26)"
               opacity="0"
               id="g30">
              <path
                 d="M 305.167,0.218 H 0 v 76.536 h 305.167 z"
                 style="fill:#ffffff;fill-opacity:1;fill-rule:nonzero;stroke:none"
                 id="path28" />
            </g>
          </g>
        </g>
        <g
           id="g34"
           transform="translate(50.9824,55.2752)">
          <path
             d="m 0,0 h -21.178 l -11.025,7.672 4.016,-19.179 c 0.281,-1.468 0.9,-2.814 1.767,-3.967 2.96,-4.099 10.086,-13.977 12.544,-17.443 0.796,-1.12 2.082,-1.754 3.288,-1.754 1.205,0 2.49,0.634 3.286,1.754 1.291,1.82 3.871,5.411 6.459,9.003 l -3.087,5.946 c -2.404,-0.569 -4.976,0.518 -6.165,2.808 -1.404,2.701 -0.348,6.03 2.357,7.43 2.706,1.401 6.036,0.349 7.439,-2.354 1.192,-2.289 0.599,-5.015 -1.25,-6.652 l 2.461,-4.742 c 1.704,2.366 3.28,4.55 4.331,6.004 0.866,1.153 1.485,2.499 1.766,3.967 l 4.016,19.179 z"
             style="fill:#3567b5;fill-opacity:1;fill-rule:nonzero;stroke:none"
             id="path36" />
        </g>
        <g
           id="g38"
           transform="translate(80.2358,44.6316)">
          <path
             d="m 0,0 c 0,5.807 3.733,11.008 11.422,11.008 2.808,0 4.978,-0.606 6.701,-1.755 L 15.506,4.85 C 14.358,5.52 13.209,5.999 11.327,5.999 8.2,5.999 6.445,3.605 6.445,0.192 c 0,-3.574 1.659,-6.158 4.946,-6.158 2.297,0 3.509,0.829 4.499,1.499 l 2.424,-4.211 C 17.229,-9.635 14.485,-11.007 11.295,-11.007 3.574,-11.007 0,-5.807 0,0"
             style="fill:#101a2b;fill-opacity:1;fill-rule:nonzero;stroke:none"
             id="path40" />
        </g>
        <g
           id="g42"
           transform="translate(110.4297,46.0037)">
          <path
             d="m 0,0 c 1.787,0 2.648,0.894 2.648,2.361 0,1.596 -0.829,2.393 -2.839,2.393 h -1.724 l 0,-4.754 z m -8.008,9.253 h 8.135 c 5.425,0 8.488,-2.202 8.488,-6.477 0,-3.446 -2.17,-5.137 -4.148,-5.839 v -0.063 c 0.702,-0.511 1.595,-1.5 2.68,-3.351 l 3.286,-5.52 h -6.54 l -3.606,6.062 c -0.989,1.66 -1.308,1.851 -1.978,1.851 h -0.224 v -7.913 h -6.093 z"
             style="fill:#101a2b;fill-opacity:1;fill-rule:nonzero;stroke:none"
             id="path44" />
        </g>
        <g
           id="g46"
           transform="translate(128.0396,42.0154)">
          <path
             d="m 0,0 -6.987,13.241 h 6.732 L 3.318,5.616 H 3.35 l 3.542,7.625 h 5.902 L 6.094,0 V -8.008 H 0 Z"
             style="fill:#101a2b;fill-opacity:1;fill-rule:nonzero;stroke:none"
             id="path48" />
        </g>
        <g
           id="g50"
           transform="translate(152.1548,45.2063)">
          <path
             d="m 0,0 c 2.138,0 3.127,0.861 3.127,2.839 0,1.947 -1.021,2.712 -2.999,2.712 h -1.755 l 0,-5.551 z m -7.721,10.05 h 8.263 c 4.882,0 8.647,-2.233 8.647,-7.147 0,-4.977 -3.733,-7.37 -9.252,-7.37 h -1.564 v -6.732 h -6.094 z"
             style="fill:#101a2b;fill-opacity:1;fill-rule:nonzero;stroke:none"
             id="path52" />
        </g>
        <g
           id="g54"
           transform="translate(169.9849,50.3113)">
          <path
             d="M 0,0 H -5.711 V 4.945 H 11.805 V 0 H 6.094 V -16.304 H 0 Z"
             style="fill:#101a2b;fill-opacity:1;fill-rule:nonzero;stroke:none"
             id="path56" />
        </g>
        <g
           id="g58"
           transform="translate(200.606,44.5999)">
          <path
             d="m 0,0 c 0,3.318 -1.181,6.19 -4.786,6.19 -3.669,0 -5.073,-2.712 -5.073,-5.999 0,-3.35 1.372,-6.317 4.945,-6.317 C -1.244,-6.126 0,-3.286 0,0 m -16.304,0 c 0,5.711 3.829,11.04 11.39,11.04 7.594,0 11.327,-5.233 11.327,-10.849 0,-5.711 -3.605,-11.167 -11.199,-11.167 -7.562,0 -11.518,5.329 -11.518,10.976"
             style="fill:#101a2b;fill-opacity:1;fill-rule:nonzero;stroke:none"
             id="path60" />
        </g>
        <g
           id="g62"
           transform="translate(83.0962,25.0437)">
          <path
             d="m 0,0 c 0.491,0 0.847,0.099 1.067,0.297 0.22,0.198 0.33,0.502 0.33,0.913 0,0.374 -0.106,0.658 -0.319,0.853 C 0.865,2.256 0.517,2.354 0.033,2.354 H -0.693 V 0 Z M -2.255,3.542 H 0.154 C 0.55,3.542 0.92,3.496 1.265,3.404 1.609,3.313 1.907,3.171 2.156,2.981 2.405,2.79 2.602,2.55 2.745,2.26 2.888,1.971 2.959,1.628 2.959,1.232 2.959,0.836 2.889,0.487 2.75,0.187 2.611,-0.114 2.411,-0.365 2.15,-0.567 1.89,-0.769 1.577,-0.92 1.21,-1.023 0.843,-1.126 0.433,-1.177 -0.022,-1.177 h -0.671 v -2.607 h -1.562 z"
             style="fill:#101a2b;fill-opacity:1;fill-rule:nonzero;stroke:none"
             id="path64" />
        </g>
        <g
           id="g66"
           transform="translate(88.791,22.1946)">
          <path
             d="M 0,0 C 0.228,0 0.42,0.046 0.578,0.137 0.735,0.229 0.873,0.341 0.99,0.473 V 1.441 H 0.803 C 0.37,1.441 0.02,1.373 -0.248,1.237 -0.515,1.102 -0.649,0.876 -0.649,0.561 -0.649,0.363 -0.583,0.22 -0.451,0.132 -0.319,0.044 -0.169,0 0,0 m -0.44,-1.067 c -0.227,0 -0.44,0.033 -0.638,0.099 -0.198,0.066 -0.368,0.163 -0.511,0.291 -0.143,0.129 -0.257,0.286 -0.342,0.473 -0.084,0.187 -0.126,0.402 -0.126,0.644 0,0.352 0.082,0.649 0.247,0.891 0.165,0.242 0.382,0.438 0.649,0.588 0.268,0.151 0.574,0.259 0.919,0.325 0.345,0.066 0.693,0.099 1.045,0.099 H 0.99 V 2.651 C 0.99,2.908 0.926,3.097 0.797,3.217 0.669,3.338 0.444,3.399 0.121,3.399 -0.172,3.399 -0.433,3.346 -0.66,3.239 -0.887,3.133 -1.082,3.018 -1.243,2.893 l -0.638,0.891 c 0.213,0.198 0.501,0.376 0.863,0.533 0.364,0.158 0.798,0.237 1.304,0.237 0.734,0 1.276,-0.152 1.628,-0.456 C 2.266,3.793 2.442,3.285 2.442,2.574 V 0.649 c 0,-0.367 0.016,-0.68 0.05,-0.941 0.032,-0.26 0.067,-0.475 0.104,-0.643 H 1.155 C 1.133,-0.869 1.115,-0.777 1.1,-0.66 1.085,-0.543 1.074,-0.444 1.067,-0.363 0.92,-0.539 0.721,-0.701 0.468,-0.847 0.214,-0.994 -0.088,-1.067 -0.44,-1.067"
             style="fill:#101a2b;fill-opacity:1;fill-rule:nonzero;stroke:none"
             id="path68" />
        </g>
        <g
           id="g70"
           transform="translate(92.5273,26.6165)">
          <path
             d="m 0,0 h 1.463 v -0.726 c 0.059,0.095 0.13,0.194 0.215,0.297 0.084,0.103 0.181,0.196 0.291,0.281 0.11,0.084 0.237,0.152 0.38,0.203 0.143,0.051 0.298,0.077 0.467,0.077 0.198,0 0.354,-0.015 0.468,-0.044 C 3.397,0.059 3.483,0.026 3.542,-0.011 L 3.19,-1.287 C 3.146,-1.258 3.08,-1.23 2.992,-1.205 2.904,-1.179 2.783,-1.166 2.629,-1.166 2.468,-1.166 2.323,-1.197 2.195,-1.259 2.066,-1.322 1.953,-1.397 1.854,-1.485 1.755,-1.573 1.672,-1.663 1.606,-1.754 1.54,-1.846 1.492,-1.921 1.463,-1.98 v -3.377 l -1.463,0 z"
             style="fill:#101a2b;fill-opacity:1;fill-rule:nonzero;stroke:none"
             id="path72" />
        </g>
        <g
           id="g74"
           transform="translate(99.0552,21.1277)">
          <path
             d="m 0,0 c -0.631,0 -1.071,0.15 -1.32,0.451 -0.25,0.3 -0.374,0.707 -0.374,1.221 V 4.4 h -0.858 v 1.089 h 0.858 V 7.04 h 1.452 V 5.489 H 1.012 V 4.4 H -0.242 V 1.958 c 0,-0.264 0.038,-0.457 0.115,-0.578 0.077,-0.121 0.218,-0.181 0.424,-0.181 0.161,0 0.304,0.024 0.429,0.072 0.125,0.047 0.216,0.089 0.275,0.126 L 1.342,0.308 C 1.232,0.249 1.065,0.183 0.841,0.11 0.618,0.037 0.337,0 0,0"
             style="fill:#101a2b;fill-opacity:1;fill-rule:nonzero;stroke:none"
             id="path76" />
        </g>
        <g
           id="g78"
           transform="translate(105.3359,22.2386)">
          <path
             d="M 0,0 C 0.418,0 0.711,0.154 0.88,0.462 1.048,0.77 1.133,1.177 1.133,1.683 1.133,1.932 1.111,2.163 1.067,2.376 1.023,2.588 0.951,2.772 0.853,2.926 0.753,3.08 0.628,3.201 0.479,3.289 0.328,3.377 0.15,3.421 -0.055,3.421 -0.261,3.421 -0.433,3.379 -0.572,3.294 -0.711,3.21 -0.825,3.095 -0.913,2.948 -1.001,2.801 -1.063,2.624 -1.1,2.415 -1.137,2.206 -1.155,1.976 -1.155,1.727 c 0,-0.249 0.022,-0.48 0.066,-0.693 0.044,-0.213 0.111,-0.396 0.203,-0.55 C -0.794,0.33 -0.675,0.211 -0.528,0.126 -0.381,0.042 -0.206,0 0,0 m -0.022,-1.111 c -0.47,0 -0.873,0.081 -1.21,0.242 -0.337,0.161 -0.616,0.374 -0.836,0.638 -0.22,0.264 -0.382,0.563 -0.484,0.897 -0.103,0.333 -0.154,0.672 -0.154,1.017 0,0.345 0.051,0.686 0.154,1.023 0.102,0.337 0.262,0.64 0.478,0.907 0.217,0.268 0.493,0.485 0.831,0.65 0.337,0.165 0.741,0.247 1.21,0.247 0.469,0 0.874,-0.081 1.215,-0.242 C 1.523,4.106 1.806,3.896 2.029,3.635 2.253,3.375 2.418,3.078 2.524,2.745 2.63,2.411 2.684,2.072 2.684,1.727 2.684,1.39 2.63,1.052 2.524,0.715 2.418,0.377 2.255,0.073 2.035,-0.198 1.815,-0.469 1.534,-0.689 1.193,-0.858 0.853,-1.027 0.447,-1.111 -0.022,-1.111"
             style="fill:#101a2b;fill-opacity:1;fill-rule:nonzero;stroke:none"
             id="path80" />
        </g>
        <g
           id="g82"
           transform="translate(109.2441,25.5276)">
          <path
             d="M 0,0 H -0.803 V 1.089 H 0 v 0.55 C 0,2.284 0.179,2.803 0.539,3.195 0.898,3.588 1.422,3.784 2.112,3.784 2.508,3.784 2.807,3.751 3.008,3.685 3.21,3.619 3.344,3.567 3.41,3.531 L 3.069,2.431 C 3.025,2.453 2.94,2.484 2.816,2.524 2.691,2.564 2.53,2.585 2.332,2.585 1.752,2.585 1.463,2.233 1.463,1.529 V 1.089 H 2.739 V 0 H 1.463 V -4.268 H 0 Z"
             style="fill:#101a2b;fill-opacity:1;fill-rule:nonzero;stroke:none"
             id="path84" />
        </g>
        <g
           id="g86"
           transform="translate(114.9307,28.5857)">
          <path
             d="M 0,0 H 4.202 V -1.276 H 1.551 v -1.793 h 2.332 v -1.21 H 1.551 v -3.047 l -1.551,0 z"
             style="fill:#101a2b;fill-opacity:1;fill-rule:nonzero;stroke:none"
             id="path88" />
        </g>
        <g
           id="g90"
           transform="translate(122.4863,22.2386)">
          <path
             d="M 0,0 C 0.418,0 0.711,0.154 0.88,0.462 1.048,0.77 1.133,1.177 1.133,1.683 1.133,1.932 1.111,2.163 1.067,2.376 1.023,2.588 0.951,2.772 0.853,2.926 0.753,3.08 0.628,3.201 0.479,3.289 0.328,3.377 0.15,3.421 -0.055,3.421 -0.261,3.421 -0.433,3.379 -0.572,3.294 -0.711,3.21 -0.825,3.095 -0.913,2.948 -1.001,2.801 -1.063,2.624 -1.1,2.415 -1.137,2.206 -1.155,1.976 -1.155,1.727 c 0,-0.249 0.022,-0.48 0.066,-0.693 0.044,-0.213 0.111,-0.396 0.203,-0.55 C -0.794,0.33 -0.675,0.211 -0.528,0.126 -0.381,0.042 -0.206,0 0,0 m -0.022,-1.111 c -0.47,0 -0.873,0.081 -1.21,0.242 -0.337,0.161 -0.616,0.374 -0.836,0.638 -0.22,0.264 -0.382,0.563 -0.484,0.897 -0.103,0.333 -0.154,0.672 -0.154,1.017 0,0.345 0.051,0.686 0.154,1.023 0.102,0.337 0.262,0.64 0.478,0.907 0.217,0.268 0.493,0.485 0.831,0.65 0.337,0.165 0.741,0.247 1.21,0.247 0.469,0 0.874,-0.081 1.215,-0.242 C 1.523,4.106 1.806,3.896 2.029,3.635 2.253,3.375 2.418,3.078 2.524,2.745 2.63,2.411 2.684,2.072 2.684,1.727 2.684,1.39 2.63,1.052 2.524,0.715 2.418,0.377 2.255,0.073 2.035,-0.198 1.815,-0.469 1.534,-0.689 1.193,-0.858 0.853,-1.027 0.447,-1.111 -0.022,-1.111"
             style="fill:#101a2b;fill-opacity:1;fill-rule:nonzero;stroke:none"
             id="path92" />
        </g>
        <g
           id="g94"
           transform="translate(127.2236,24.0315)">
          <path
             d="m 0,0 -1.76,2.585 h 1.65 L 0.858,1.122 1.716,2.585 H 3.223 L 1.562,0.066 3.454,-2.772 h -1.65 l -1.111,1.716 -1.012,-1.716 h -1.507 z"
             style="fill:#101a2b;fill-opacity:1;fill-rule:nonzero;stroke:none"
             id="path96" />
        </g>
        <path
           d="m 130.932,24.955 h 2.508 v -1.188 h -2.508 z"
           style="fill:#101a2b;fill-opacity:1;fill-rule:nonzero;stroke:none"
           id="path98" />
        <path
           d="m 135.046,28.586 h 1.551 V 21.26 h -1.551 z"
           style="fill:#101a2b;fill-opacity:1;fill-rule:nonzero;stroke:none"
           id="path100" />
        <g
           id="g102"
           transform="translate(139.6802,27.3094)">
          <path
             d="M 0,0 H -2.024 V 1.276 H 3.575 V 0 H 1.562 V -6.05 H 0 Z"
             style="fill:#101a2b;fill-opacity:1;fill-rule:nonzero;stroke:none"
             id="path104" />
        </g>
        <g
           id="g106"
           transform="translate(30.6968,45.3567)">
          <path
             d="M 0,0 C 3.217,0 3.223,5 0,5 -3.217,5 -3.223,0 0,0"
             style="fill:#3175bf;fill-opacity:1;fill-rule:nonzero;stroke:none"
             id="path108" />
        </g>
        <g
           id="g110"
           transform="translate(30.6968,45.3567)">
          <path
             d="M 0,0 C 3.217,0 3.223,5 0,5 -3.217,5 -3.223,0 0,0"
             style="fill:#3567b5;fill-opacity:1;fill-rule:nonzero;stroke:none"
             id="path112" />
        </g>
      </g>
    </g>
  </g>
</svg>
