<svg version="1.2" xmlns="http://www.w3.org/2000/svg" viewBox="0 0 252 57">
    <style>.a{fill:#3567b5}.b{fill:#101a2b}</style>
    <path class="a"
        d="m43 10.3h-28.3l-14.7-10.2 5.4 25.6c0.4 1.9 1.2 3.7 2.3 5.3 4 5.4 13.5 18.6 16.8 23.2 1 1.5 2.8 2.4 4.4 2.4 1.6 0 3.3-0.9 4.3-2.4 1.8-2.4 5.2-7.2 8.7-12l-4.2-7.9c-3.2 0.8-6.6-0.7-8.2-3.7-1.9-3.6-0.4-8.1 3.2-9.9 3.6-1.9 8-0.5 9.9 3.1 1.6 3 0.8 6.7-1.7 8.9l3.3 6.3c2.3-3.2 4.4-6.1 5.8-8 1.1-1.6 1.9-3.4 2.3-5.3l5.4-25.6z" />
    <path fill-rule="evenodd" class="b"
        d="m82 24.5c0-7.7 5-14.6 15.2-14.6 3.8 0 6.6 0.8 8.9 2.3l-3.4 5.9c-1.6-0.9-3.1-1.6-5.6-1.6-4.2 0-6.5 3.2-6.5 7.8 0 4.7 2.2 8.2 6.6 8.2 3 0 4.6-1.1 6-2l3.2 5.6c-1.4 1.3-5.1 3.1-9.4 3.1-10.3 0-15-6.9-15-14.7zm29.6-14.1h10.8c7.2 0 11.3 2.9 11.3 8.6 0 4.6-2.9 6.9-5.5 7.8v0.1c0.9 0.7 2.1 2 3.6 4.4l4.4 7.4h-8.8l-4.8-8.1c-1.3-2.2-1.7-2.4-2.6-2.4h-0.3v10.5h-8.1zm10.6 12.3c2.4 0 3.6-1.1 3.6-3.1 0-2.1-1.1-3.2-3.8-3.2h-2.3v6.3zm23.5 5.4l-9.3-17.7h8.9l4.8 10.2 4.8-10.2h7.8l-8.9 17.7v10.6h-8.1zm21.8-17.6h11c6.6 0 11.6 3 11.6 9.5 0 6.6-5 9.8-12.4 9.8h-2v9h-8.2zm10.3 13.4c2.9 0 4.2-1.1 4.2-3.8 0-2.6-1.4-3.6-4-3.6h-2.3v7.4zm23.7-6.8h-7.6v-6.6h23.4v6.6h-7.7v21.7h-8.1zm19.1 7.7c0-7.7 5.1-14.8 15.2-14.8 10.1 0 15.1 7 15.1 14.5 0 7.6-4.8 14.9-14.9 14.9-10.1 0-15.4-7.1-15.4-14.6zm21.8 0c0-4.5-1.6-8.3-6.4-8.3-4.9 0-6.8 3.6-6.8 8 0 4.5 1.8 8.4 6.6 8.4 4.9 0 6.6-3.8 6.6-8.1z" />
    <path fill-rule="evenodd" class="b"
        d="m82.8 45.9h3.2q0.8 0 1.5 0.2 0.7 0.2 1.2 0.6 0.5 0.4 0.8 0.9 0.2 0.6 0.2 1.4 0 0.8-0.2 1.4-0.3 0.6-0.8 1-0.6 0.4-1.3 0.6-0.7 0.2-1.6 0.2h-0.9v3.5h-2.1zm3 4.7q1 0 1.4-0.4 0.5-0.4 0.5-1.2 0-0.7-0.5-1.1-0.4-0.4-1.4-0.4h-0.9v3.1zm7 5.2q-0.5 0-0.9-0.1-0.4-0.1-0.7-0.4-0.2-0.2-0.4-0.6-0.2-0.4-0.2-0.9 0-0.7 0.4-1.2 0.3-0.4 0.8-0.7 0.6-0.3 1.2-0.5 0.7-0.1 1.4-0.1h0.3v-0.4q0-0.5-0.3-0.8-0.2-0.2-0.9-0.2-0.6 0-1 0.2-0.5 0.2-0.8 0.5l-0.8-1.2q0.4-0.4 1.1-0.7 0.7-0.3 1.7-0.3 1.5 0 2.2 0.6 0.7 0.6 0.7 2v2.6q0 0.7 0.1 1.2 0.1 0.5 0.1 0.9h-1.9q0-0.2-0.1-0.4 0-0.2 0-0.4-0.3 0.4-0.8 0.7-0.5 0.2-1.2 0.2zm0.6-1.4q0.4 0 0.7-0.2 0.3-0.1 0.6-0.4v-1.3h-0.3q-0.8 0-1.4 0.3-0.5 0.2-0.5 0.9 0 0.4 0.3 0.5 0.2 0.2 0.6 0.2zm4.9-5.9h2v1q0.1-0.2 0.3-0.4 0.2-0.2 0.4-0.4 0.2-0.1 0.5-0.2 0.3-0.1 0.6-0.1 0.4 0 0.6 0 0.3 0.1 0.4 0.1l-0.5 1.7q-0.1 0-0.3-0.1-0.1 0-0.4 0-0.4 0-0.6 0.1-0.3 0.1-0.5 0.3-0.2 0.2-0.3 0.4-0.1 0.1-0.2 0.3v4.5h-2zm8.7 7.3q-1.2 0-1.7-0.6-0.5-0.6-0.5-1.6v-3.7h-1.2v-1.4h1.2v-2.1h1.9v2.1h1.7v1.4h-1.7v3.3q0 0.5 0.2 0.7 0.1 0.3 0.5 0.3 0.4 0 0.6-0.1 0.3-0.1 0.4-0.2l0.4 1.5q-0.2 0.1-0.6 0.2-0.5 0.2-1.2 0.2zm8.4 0q-0.9 0-1.6-0.3-0.7-0.4-1.1-0.9-0.5-0.5-0.7-1.2-0.2-0.6-0.2-1.3 0-0.7 0.2-1.4 0.2-0.7 0.7-1.2 0.4-0.5 1.1-0.9 0.6-0.3 1.6-0.3 0.9 0 1.6 0.3 0.7 0.3 1.1 0.9 0.5 0.5 0.7 1.1 0.2 0.7 0.2 1.4 0 0.7-0.2 1.4-0.2 0.6-0.7 1.2-0.4 0.5-1.1 0.9-0.7 0.3-1.6 0.3zm0-1.5q0.9 0 1.2-0.6 0.3-0.6 0.3-1.6 0-0.5-0.1-1 0-0.4-0.2-0.7-0.2-0.3-0.5-0.5-0.3-0.2-0.7-0.2-0.5 0-0.7 0.2-0.3 0.2-0.5 0.5-0.2 0.3-0.2 0.7-0.1 0.4-0.1 0.9 0 0.5 0.1 0.9 0.1 0.5 0.2 0.8 0.2 0.3 0.5 0.4 0.3 0.2 0.7 0.2zm5.2-4.4h-1v-1.4h1v-0.8q0-1.3 0.8-2 0.7-0.8 2.1-0.8 0.7 0 1.1 0.1 0.4 0.1 0.6 0.2l-0.5 1.5q-0.1-0.1-0.3-0.1-0.3-0.1-0.7-0.1-1.1 0-1.1 1.4v0.6h1.7v1.4h-1.7v5.7h-2zm7.6-4.1h5.6v1.7h-3.5v2.4h3.1v1.6h-3.1v4.1h-2.1zm10.1 9.9q-1 0-1.7-0.3-0.6-0.3-1.1-0.8-0.4-0.6-0.6-1.2-0.2-0.7-0.2-1.4 0-0.7 0.2-1.3 0.2-0.7 0.6-1.3 0.5-0.5 1.1-0.8 0.7-0.3 1.6-0.3 1 0 1.7 0.3 0.6 0.3 1.1 0.8 0.4 0.5 0.7 1.2 0.2 0.7 0.2 1.4 0 0.6-0.2 1.3-0.3 0.7-0.7 1.2-0.4 0.6-1.1 0.9-0.7 0.3-1.6 0.3zm0-1.4q0.8 0 1.2-0.7 0.3-0.6 0.3-1.6 0-0.5-0.1-0.9-0.1-0.4-0.3-0.7-0.2-0.3-0.5-0.5-0.3-0.2-0.7-0.2-0.4 0-0.7 0.2-0.2 0.1-0.4 0.4-0.2 0.3-0.3 0.7 0 0.5 0 1 0 0.5 0 0.9 0.1 0.4 0.3 0.7 0.2 0.3 0.5 0.5 0.3 0.2 0.7 0.2zm6.3-2.4l-2.3-3.5h2.2l1.3 2 1.1-2h2l-2.2 3.4 2.5 3.8h-2.2l-1.5-2.3-1.3 2.3h-2zm4.9-1.3h3.4v1.6h-3.4zm5.5-4.8h2.1v9.7h-2.1zm6.2 1.8h-2.7v-1.7h7.4v1.7h-2.6v8h-2.1z" />
</svg>
