<svg xmlns="http://www.w3.org/2000/svg" viewBox="0 0 237 29"><style>.shp0{fill:#000}</style><g id="Logotype"><path id="E" d="M237.13.49c-.14 1.68-.28 3.3-.4 4.91-.03.32-.23.29-.44.29h-10.47a2.04 2.04 0 0 0-.92.08c-.3.09-.57.25-.8.46s-.41.47-.53.75c-.12.29-.18.6-.17.91-.13 1.18-.29 2.35-.43 3.52 0 .16-.03.31-.04.51h10.91c-.14 1.63-.28 3.18-.42 4.8h-10.96c-.17 1.67-.4 3.29-.5 4.91-.07 1.06.4 1.52 1.47 1.63.2 0 .4.02.62.02h11.14c-.15 1.76-.3 3.46-.44 5.17-.02.01-.04.01-.05.02-.02 0-.04 0-.06.01-.01 0-.03 0-.05.01h-.05c-4.5 0-9.01 0-13.52-.03-.19 0-.38-.02-.57-.04-.2-.02-.39-.05-.58-.09a9 9 0 0 1-.56-.14c-.19-.05-.37-.11-.55-.18-1.86-.68-2.47-2.25-2.46-4.07 0-1.39.17-2.77.3-4.16.33-3.28.67-6.56 1.02-9.85q.045-.63.12-1.26c.04-.42.09-.84.14-1.26.06-.43.12-.84.19-1.26q.09-.63.21-1.26c.09-.57.27-1.12.55-1.62.27-.51.63-.97 1.05-1.36.43-.38.92-.69 1.45-.91.54-.22 1.1-.35 1.68-.38.13-.02.27-.03.4-.05l.4-.03c.14-.01.27-.01.41-.02h12.35z" class="shp0"/><path id="N" d="M188.79.5c.19 0 .34-.02.5-.02h14.75c.47-.02.95 0 1.41.07.47.06.93.18 1.38.33s.88.34 1.3.58c.41.23.8.5 1.16.8.34.32.65.66.92 1.03.27.38.51.77.71 1.19s.35.85.47 1.3c.11.44.18.9.21 1.36q.06.72.06 1.44c.01.48 0 .96-.02 1.44s-.05.96-.1 1.44-.11.96-.18 1.43c-.32 3.35-.67 6.7-1 10.05-.19 1.83-.37 3.65-.56 5.53h-5.56c.12-1.22.24-2.4.36-3.58l.99-9.95c.15-1.58.32-3.16.42-4.74.01-.15.01-.31 0-.47 0-.15-.01-.31-.03-.47-.02-.15-.04-.31-.07-.46a6 6 0 0 0-.1-.46 3.4 3.4 0 0 0-1.25-1.98c-.32-.24-.68-.42-1.06-.54-.38-.11-.78-.16-1.18-.14-2.74-.04-5.49 0-8.23 0a.1.1 0 0 1-.05.01c-.02.01-.03.01-.05.01-.01.01-.03.01-.04.02-.02 0-.03.01-.05.01-.78 7.56-1.55 15.14-2.33 22.76h-5.56c.94-9.34 1.87-18.67 2.78-27.99" class="shp0"/><path id="O" d="M172.55.02c.52.08 1.05.17 1.58.27 3.84.74 6.08 3 6.9 6.9.1.53.18 1.06.25 1.59.06.53.11 1.07.14 1.61.03.53.04 1.07.04 1.61-.01.54-.03 1.07-.07 1.61-.02.64-.06 1.28-.13 1.92s-.17 1.27-.3 1.9c-.12.63-.28 1.25-.45 1.87-.18.62-.39 1.23-.62 1.82a10.92 10.92 0 0 1-6.5 6.57c-1 .37-2.04.59-3.1.66a28 28 0 0 1-3.68.2c-.61 0-1.23-.03-1.84-.07-.61-.05-1.23-.12-1.83-.2-4.37-.69-6.68-2.88-7.44-7.34-.22-1.14-.35-2.29-.4-3.45q-.075-1.74.09-3.48a24.497 24.497 0 0 1 1.64-6.74c.37-1 .9-1.95 1.54-2.8.65-.86 1.42-1.62 2.29-2.25.86-.64 1.82-1.14 2.83-1.5s2.07-.57 3.14-.63c.03-.01.07-.01.1-.02s.07-.01.1-.02l.1-.03.1-.03zm-3.14 5.13v.06h-1.48c-.63.01-1.25.1-1.85.29-.6.18-1.18.46-1.7.81a6.4 6.4 0 0 0-1.39 1.26c-.4.49-.72 1.03-.96 1.61-.36.82-.65 1.66-.87 2.53-.22.86-.37 1.75-.45 2.64s-.08 1.78-.01 2.67.21 1.77.43 2.64c.08.5.26.97.51 1.41s.57.83.96 1.15c.39.33.83.58 1.3.75s.97.26 1.48.26c.26.02.51.04.77.05l.77.03c.26 0 .52.01.78 0 .25 0 .51 0 .77-.01.67 0 1.33-.1 1.97-.29.64-.2 1.25-.49 1.8-.87.55-.37 1.05-.83 1.46-1.36.42-.52.75-1.1 1-1.73.14-.31.26-.64.37-.97.12-.32.22-.66.3-.99.09-.34.16-.68.22-1.02s.11-.69.14-1.03c.07-.49.12-.99.15-1.49.03-.49.04-.99.03-1.49a18.4 18.4 0 0 0-.32-2.96c-.07-.49-.21-.97-.44-1.42-.23-.44-.53-.85-.89-1.19s-.78-.62-1.23-.83c-.46-.2-.94-.33-1.44-.37-.72-.1-1.46-.09-2.18-.14" class="shp0"/><path id="Z" d="M131.37 5.64c.14-1.73.28-3.42.43-5.15h15.68c.1 0 .2 0 .3.01.1 0 .2.01.29.02l.3.03c.1.01.2.03.3.05.34.04.67.14.98.31.3.16.57.37.8.63s.41.56.52.89c.12.32.18.67.17 1.01.07.66.05 1.32-.05 1.98-.11.65-.28 1.29-.54 1.9s-.58 1.19-.98 1.72-.85 1-1.37 1.42c-3.87 3.48-7.71 6.98-11.56 10.48l-.33.3c-.11.1-.21.21-.31.31q-.165.165-.3.33c-.1.11-.19.22-.29.34-.46.6-.26.98.47 1.06.06.01.12.01.18.01h.36c.06 0 .12 0 .18-.01h13.12c-.15 1.73-.3 3.42-.45 5.17h-16.63c-.08 0-.16 0-.25-.01-.08 0-.17 0-.25-.01s-.17-.01-.25-.02-.16-.02-.25-.04c-1.98-.35-2.75-1.55-2.78-3.61-.04-2.85 1.35-4.88 3.28-6.66 3.92-3.59 7.86-7.15 11.78-10.73.07-.06.14-.12.21-.19.06-.06.12-.13.18-.19l.18-.21c.06-.07.11-.15.16-.22.31-.47.16-.82-.4-.9l-.18-.03c-.05 0-.11-.01-.17-.01s-.12-.01-.18-.01-.12 0-.18.01h-12.17z" class="shp0"/><path id="T" d="M126.89.52c-.15 1.7-.31 3.38-.46 5.1h-7.65c-.79 7.63-1.59 15.22-2.36 22.84h-5.51c.8-7.59 1.57-15.17 2.35-22.81h-7.65c.16-1.73.31-3.42.47-5.13z" class="shp0"/><path id="S" d="M100.8.51c-.16 1.74-.3 3.41-.45 5.15H89.97c-2.03.09-2.4 1.55-2.21 3.34.04.1.08.2.13.29s.11.17.18.25.14.15.23.21c.08.07.17.12.26.17.95.58 1.94 1.08 2.93 1.6 1.7.88 3.4 1.74 5.09 2.62.11.06.21.12.31.18l.3.18c.1.07.2.13.3.2.09.07.19.13.28.2.41.26.77.58 1.09.94s.58.76.79 1.2c.2.43.35.89.43 1.37.07.47.09.95.03 1.43-.1 1.11-.16 2.23-.34 3.33-.07.6-.24 1.19-.5 1.73a5.6 5.6 0 0 1-2.44 2.58c-.53.29-1.11.49-1.7.59-.26.07-.52.12-.78.17s-.52.09-.79.12c-.26.04-.52.06-.79.08-.26.02-.53.03-.79.04-3.81.04-7.62 0-11.42 0h-.09c-.03 0-.06 0-.08-.01h-.09c-.03 0-.06-.01-.08-.01.15-1.7.31-3.39.46-5.13h11.7c.29.01.57-.04.84-.14.26-.11.5-.27.69-.48.2-.2.35-.45.45-.71.1-.27.14-.56.11-.84.07-.29.09-.58.04-.87a2.5 2.5 0 0 0-.28-.83c-.15-.25-.34-.48-.57-.66s-.49-.32-.77-.4c-2.13-1.09-4.27-2.14-6.39-3.25-.2-.11-.4-.21-.6-.32s-.39-.22-.59-.34l-.57-.36c-.19-.13-.38-.25-.57-.38a4.9 4.9 0 0 1-1.57-1.81 4.823 4.823 0 0 1-.48-2.35c.01-.34.02-.69.05-1.03.02-.34.04-.69.08-1.03q.045-.51.12-1.02.06-.51.15-1.02c.09-.56.27-1.11.52-1.62a5.497 5.497 0 0 1 2.36-2.41c.5-.27 1.04-.46 1.61-.56.23-.06.46-.12.7-.16.24-.05.48-.09.71-.13.24-.03.48-.06.72-.08s.49-.03.73-.04c3.52-.04 7.04 0 10.56 0 .13 0 .21.01.37.02" class="shp0"/><path id="U" d="M71.54.51h5.49c-.11 1.08-.21 2.14-.32 3.2-.37 3.62-.71 7.25-1.11 10.86-.28 2.51-.53 5.02-.97 7.5q-.12.765-.39 1.5c-.17.48-.4.95-.67 1.39s-.59.85-.95 1.22c-.35.38-.74.72-1.17 1.01-.37.24-.76.45-1.16.63s-.82.33-1.24.45c-.43.11-.86.2-1.3.25q-.66.09-1.32.06c-2.7.03-5.4.03-8.09-.02-.4.01-.81-.01-1.2-.08-.4-.06-.79-.16-1.17-.29s-.75-.3-1.1-.5a6 6 0 0 1-.99-.68c-.29-.26-.55-.55-.78-.86s-.43-.64-.6-.98c-.17-.35-.3-.71-.41-1.08-.1-.38-.17-.76-.2-1.14-.04-.46-.07-.91-.09-1.37a21 21 0 0 1 .07-2.74c.04-.45.09-.91.16-1.36.34-3.3.67-6.6 1.01-9.9.22-2.26.45-4.51.68-6.76 0-.02.01-.05.01-.07.01-.03.01-.05.02-.08.01-.02.01-.05.02-.07s.01-.05.02-.07h5.48c-.09.88-.16 1.75-.25 2.61-.41 3.99-.81 7.98-1.22 11.98-.16 1.59-.32 3.18-.44 4.78-.01.12-.01.23-.01.35a4 4 0 0 0 .05.7c.01.12.03.23.06.35.03.27.11.53.23.77.13.24.29.45.49.64.19.18.42.33.67.44q.375.15.78.18c.17.02.35.03.52.05l.52.03c.18.01.35.01.53.02h.52c1.35 0 2.7.03 4.05 0a3.3 3.3 0 0 0 2.36-.76c.32-.27.6-.6.8-.97s.33-.78.38-1.2c.07-.35.13-.69.19-1.04.06-.34.11-.69.16-1.04s.09-.7.13-1.05.08-.7.11-1.05c.35-3.21.68-6.43 1.01-9.65.21-2.05.42-4.08.63-6.16" class="shp0"/><path id="R" d="M28.98 28.47h-5.47c.93-9.32 1.86-18.61 2.8-27.98h.51c4.11 0 8.21-.02 12.32 0 .22.01.45.02.67.04.22.01.44.04.66.07s.44.07.65.12c.22.04.44.09.65.15a5.4 5.4 0 0 1 2.64 1.46c.37.36.68.76.93 1.21s.43.92.55 1.42c.21.73.35 1.49.43 2.24.08.76.09 1.53.03 2.29q-.09 1.14-.36 2.25c-.19.74-.44 1.46-.76 2.16-.24.55-.54 1.07-.89 1.56-.36.48-.77.92-1.22 1.32-.45.39-.95.73-1.48 1.02-.53.28-1.09.5-1.67.66-.12.04-.24.08-.43.15l5.24 9.83c-.2 0-.34.02-.48.02h-5.55c-.07.01-.14 0-.21-.01-.06-.02-.13-.05-.19-.08a.5.5 0 0 1-.15-.14.5.5 0 0 1-.11-.18c-1.66-3.25-3.35-6.5-5.02-9.75-.03-.05-.05-.11-.07-.17s-.03-.12-.04-.18c-.01-.07-.02-.13-.02-.19v-.19c.08-1.08.19-2.15.3-3.28h2.83c.12 0 .25 0 .37-.01.13 0 .26-.01.38-.02.13-.02.25-.03.38-.05.12-.01.25-.03.37-.06.33-.05.65-.15.95-.29q.465-.21.84-.54c.25-.22.47-.47.65-.75s.33-.58.42-.9a6.8 6.8 0 0 0 .41-1.99c.02-.34.02-.68 0-1.01-.03-.34-.08-.68-.15-1.01-.04-.26-.11-.5-.23-.73s-.28-.44-.46-.62c-.19-.17-.41-.32-.64-.42-.24-.11-.49-.17-.75-.19-.1-.02-.19-.03-.29-.04l-.3-.03c-.1-.01-.2-.02-.3-.02-.1-.01-.2-.01-.3-.01h-6.05c-.8 7.65-1.59 15.27-2.39 22.87" class="shp0"/><path d="M7.65 5.64H0L.47.51h20.81c-.15 1.7-.31 3.4-.47 5.13h-7.64l-2.34 22.81H5.3c.77-7.57 1.56-15.16 2.35-22.81" class="shp0"/></g></svg>