<svg xmlns="http://www.w3.org/2000/svg" xml:space="preserve" id="Layer_1" x="0" y="0" viewBox="0 0 160.6 31.7"><style>.st1{fill:#27235d}</style><title>current-logo-01</title><linearGradient id="SVGID_1_" x1="-2" x2="19.962" y1="16.836" y2="16.836" gradientTransform="translate(2 -1)" gradientUnits="userSpaceOnUse"><stop offset="0" style="stop-color:#7c59a4"/><stop offset=".493" style="stop-color:#647aba"/><stop offset="1" style="stop-color:#3bc5f3"/></linearGradient><path d="M18.8 8H22V4.8h-3.2zm0-8v3.2H22V0zm0 12.8H22V9.6h-3.2zm0 9.4H22v-7.8h-3.2zM14.3 8h3.2V4.8h-3.2zm0 19.5h3.2V9.6h-3.2zm-4.9-9.8h3.2v-3.2H9.4zm0-14.5h3.2V0H9.4zm0 9.6h3.2v-8H9.4zm0 18.9h3.2V19H9.4zM0 8h3.2V4.8H0zm0-4.8h3.2V0H0zm0 19h3.2V9.6H0zm4.5 5.3h3.2V4.8H4.5z" style="fill:url(#SVGID_1_)"/><path d="M43.9 5v4.2h-11v5.5h7.7V19h-7.7v8.5h-5.1V5zM61.6 18.8c0 5.3-3.7 8.8-9.2 8.8-5.6 0-9.3-3.6-9.3-8.8 0-5.3 3.7-8.8 9.3-8.8 5.5 0 9.2 3.5 9.2 8.8m-13.6.1c0 2.8 1.8 4.8 4.3 4.8s4.3-1.9 4.3-4.8-1.8-4.8-4.3-4.8-4.3 2-4.3 4.8M74.8 10v4.4c-3.5-.3-5.7 1.9-5.7 4.8v8.3h-4.9V10.2h4.9v3.1c1.2-2.1 3.1-3.3 5.7-3.3M89 26.5c-1.3.7-2.9 1.2-4.5 1.2-3.1 0-5.4-1.8-5.4-5.3v-8h-2.4V10h2.4V6.2H84V10h4.7v4.4H84v7.1c0 1.4.6 2 1.7 2 .6 0 1.4-.2 2.3-.6zM101.4 27.5v-2c-1.2 1.4-3 2.2-5.4 2.2-3.7 0-5.9-2.2-5.9-5.4s2.3-5.2 6.6-5.2h4.8v-.3c0-1.8-1.2-2.9-3.6-2.9-1.5 0-3.3.5-5.1 1.5L91.1 12c2.6-1.3 4.8-2 7.8-2 4.6 0 7.3 2.3 7.3 6.2v11.3zm-.1-5.9V20h-3.9c-1.9 0-2.8.6-2.8 2 0 1.3 1 2.2 2.7 2.2 2.1 0 3.8-1.2 4-2.6M126.5 16.6v10.8h-4.9V18c0-2.2-1.3-3.5-3.4-3.5-2.5 0-3.9 1.9-3.9 4.4v8.5h-4.9V10.2h4.9v3c1.2-2.2 3.3-3.2 6-3.2 3.7 0 6.2 2.6 6.2 6.6M134.9 10.2v17.3H130V10.2zm0-4.9c0 1.4-1 2.5-2.4 2.5s-2.4-1.1-2.4-2.5 1-2.5 2.4-2.5 2.4 1 2.4 2.5M142.7 10.2l3.2 5.2 3.4-5.2h5.4l-5.5 8.4 5.9 8.9h-5.7l-3.5-5.6-3.8 5.6h-5.5l6-8.8-5.6-8.4h5.7zM160.6 12.1c0 1.3-1.1 2.4-2.4 2.4-1.4 0-2.4-1.1-2.4-2.4s1.1-2.4 2.4-2.4 2.4 1.1 2.4 2.4m-.5 0c0-1.1-.8-1.9-2-1.9-1.1 0-2 .9-2 2s.8 1.9 1.9 1.9c1.3 0 2.1-.9 2.1-2m-1.4.3.5.8h-.5l-.4-.7h-.6v.7h-.4v-2.4h1c.6 0 1 .3 1 .8-.1.4-.3.7-.6.8m-1-.3h.5c.3 0 .5-.2.5-.5s-.2-.4-.5-.4h-.5z" class="st1"/></svg>