<?xml version="1.0" encoding="utf-8"?>
<!-- Generator: Adobe Illustrator 22.0.1, SVG Export Plug-In . SVG Version: 6.00 Build 0)  -->
<svg version="1.1" id="Layer_1" 
  xmlns="http://www.w3.org/2000/svg" 
  xmlns:xlink="http://www.w3.org/1999/xlink" x="0px" y="0px" viewBox="0 0 160.6 31.7" style="enable-background:new 0 0 160.6 31.7;" xml:space="preserve">
  <style type="text/css">
	.st0{fill:url(#SVGID_1_);}
	.st1{fill:#27235D;}
</style>
  <title>current-logo-01</title>
  <desc>Created with Sketch.</desc>
  <g>
    <g>
      <linearGradient id="SVGID_1_" gradientUnits="userSpaceOnUse" x1="-2" y1="16.8364" x2="19.9621" y2="16.8364" gradientTransform="matrix(1 0 0 1 2 -1)">
        <stop offset="0" style="stop-color:#7C59A4"/>
        <stop offset="0.4934" style="stop-color:#647ABA"/>
        <stop offset="1" style="stop-color:#3BC5F3"/>
      </linearGradient>
      <path class="st0" d="M18.8,8H22V4.8h-3.2V8z M18.8,0v3.2H22V0H18.8z M18.8,12.8H22V9.6h-3.2V12.8z M18.8,22.2H22v-7.8h-3.2V22.2z
			 M14.3,8h3.2V4.8h-3.2V8z M14.3,27.5h3.2V9.6h-3.2V27.5z M9.4,17.7h3.2v-3.2H9.4V17.7z M9.4,3.2h3.2V0H9.4V3.2z M9.4,12.8h3.2v-8
			H9.4V12.8z M9.4,31.7h3.2V19H9.4V31.7z M0,8h3.2V4.8H0V8z M0,3.2h3.2V0H0V3.2z M0,22.2h3.2V9.6H0V22.2z M4.5,27.5h3.2V4.8H4.5
			V27.5z"/>
    </g>
    <g>
      <g>
        <path class="st1" d="M43.9,5l0,4.2h-11v5.5h7.7V19h-7.7v8.5h-5.1V5H43.9z"/>
        <path class="st1" d="M61.6,18.8c0,5.3-3.7,8.8-9.2,8.8c-5.6,0-9.3-3.6-9.3-8.8c0-5.3,3.7-8.8,9.3-8.8
				C57.9,10,61.6,13.5,61.6,18.8z M48,18.9c0,2.8,1.8,4.8,4.3,4.8c2.5,0,4.3-1.9,4.3-4.8s-1.8-4.8-4.3-4.8
				C49.8,14.1,48,16.1,48,18.9z"/>
        <path class="st1" d="M74.8,10v4.4c-3.5-0.3-5.7,1.9-5.7,4.8v8.3h-4.9V10.2h4.9v3.1C70.3,11.2,72.2,10,74.8,10z"/>
        <path class="st1" d="M89,26.5c-1.3,0.7-2.9,1.2-4.5,1.2c-3.1,0-5.4-1.8-5.4-5.3v-8h-2.4V10h2.4V6.2H84V10h4.7v4.4H84v7.1
				c0,1.4,0.6,2,1.7,2c0.6,0,1.4-0.2,2.3-0.6L89,26.5z"/>
        <path class="st1" d="M101.4,27.5v-2c-1.2,1.4-3,2.2-5.4,2.2c-3.7,0-5.9-2.2-5.9-5.4c0-3.2,2.3-5.2,6.6-5.2h4.8v-0.3
				c0-1.8-1.2-2.9-3.6-2.9c-1.5,0-3.3,0.5-5.1,1.5L91.1,12c2.6-1.3,4.8-2,7.8-2c4.6,0,7.3,2.3,7.3,6.2l0,11.3H101.4z M101.3,21.6V20
				h-3.9c-1.9,0-2.8,0.6-2.8,2c0,1.3,1,2.2,2.7,2.2C99.4,24.2,101.1,23,101.3,21.6z"/>
        <path class="st1" d="M126.5,16.6v10.8h-4.9v-9.4c0-2.2-1.3-3.5-3.4-3.5c-2.5,0-3.9,1.9-3.9,4.4v8.5h-4.9V10.2h4.9v3
				c1.2-2.2,3.3-3.2,6-3.2C124,10,126.5,12.6,126.5,16.6z"/>
        <path class="st1" d="M134.9,10.2v17.3H130V10.2H134.9z M134.9,5.3c0,1.4-1,2.5-2.4,2.5s-2.4-1.1-2.4-2.5c0-1.4,1-2.5,2.4-2.5
				S134.9,3.8,134.9,5.3z"/>
        <path class="st1" d="M142.7,10.2l3.2,5.2l3.4-5.2h5.4l-5.5,8.4l5.9,8.9h-5.7l-3.5-5.6l-3.8,5.6h-5.5l6-8.8l-5.6-8.4H142.7z"/>
        <g>
          <path class="st1" d="M160.6,12.1c0,1.3-1.1,2.4-2.4,2.4c-1.4,0-2.4-1.1-2.4-2.4s1.1-2.4,2.4-2.4
					C159.5,9.7,160.6,10.8,160.6,12.1z M160.1,12.1c0-1.1-0.8-1.9-2-1.9c-1.1,0-2,0.9-2,2c0,1.1,0.8,1.9,1.9,1.9
					C159.3,14.1,160.1,13.2,160.1,12.1z M158.7,12.4l0.5,0.8h-0.5l-0.4-0.7h-0.1h-0.5v0.7h-0.4v-2.4h1c0.6,0,1,0.3,1,0.8
					C159.2,12,159,12.3,158.7,12.4z M157.7,12.1h0.5c0.3,0,0.5-0.2,0.5-0.5c0-0.3-0.2-0.4-0.5-0.4h-0.5V12.1z"/>
        </g>
      </g>
    </g>
  </g>
</svg>
