<svg xmlns="http://www.w3.org/2000/svg" viewBox="0 0 226 67"><defs><style>.cls-1{fill:none;}.cls-2{fill:#2871eb;}.cls-3{fill:#1a397c;}</style></defs><title>Buypass-logo-RGB</title><g id="_Layer_" data-name="&lt;Layer&gt;"><rect class="cls-1" x="2.83" width="226.84" height="71.7"/></g><g id="_Layer_2" data-name="&lt;Layer&gt;"><path class="cls-2" d="M42.06,19.23c-6.93-.58-12,2.44-11.79,6.25.15,3.08,3.1,4.53,6,4.64h0a10.49,10.49,0,0,0,2.49-.35c3.33-1.06,8.24-.55,8.65,3.42.27,2.61-2.09,4.9-5.79,6-6,2-16-.21-17.93-6.95-2.16-7.45,7.5-12.5,8.47-13s1.11-1.26-.3-.91C26.5,19.71,18.26,24.18,18.2,32.52c-.05,6.48,7.65,14.8,20.36,14.56C47.75,46.9,57.74,41.54,57.73,32,57.73,25.12,50.65,20,42.06,19.23Z"/><path class="cls-3" d="M70.84,19.07h5.27v9.65h.08a7.08,7.08,0,0,1,6-2.86c3.82,0,7.94,3.08,7.94,10.09s-4.12,10.14-7.94,10.14c-2.82,0-5.16-.86-6.31-3h-.08v2.45h-5Zm9.58,10.76c-3.12,0-4.49,2.93-4.49,6.16s1.37,6.13,4.49,6.13,4.49-2.94,4.49-6.13S83.54,29.83,80.42,29.83Z"/><path class="cls-3" d="M110.17,45.57h-5V42.89h-.11a6.84,6.84,0,0,1-5.86,3.2c-5.61,0-7-3.16-7-7.91V26.38h5.27V37.22c0,3.15.93,4.71,3.38,4.71,2.86,0,4.08-1.6,4.08-5.49V26.38h5.27Z"/><path class="cls-3" d="M124.62,48c-1.15,3.08-3,4.34-6.61,4.34-1.08,0-2.15-.08-3.23-.18V47.79a26.12,26.12,0,0,0,3.08.19c1.82-.19,2.42-2.08,1.82-3.6l-6.75-18h5.64l4.34,13.14H123l4.2-13.14h5.45Z"/><path class="cls-3" d="M134.45,26.42h2.15v3.63h.08a7.17,7.17,0,0,1,6.83-4.19c5.82,0,8.61,4.71,8.61,10.13s-2.79,10.13-8.61,10.13a6.84,6.84,0,0,1-6.65-4.19h-.07V52.65h-2.34Zm9.06,1.41c-5.16,0-6.72,3.82-6.72,8.16,0,4,1.74,8.17,6.72,8.17,4.45,0,6.27-4.2,6.27-8.17S148,27.83,143.51,27.83Z"/><path class="cls-3" d="M154.18,32.28c.23-4.49,3.38-6.42,7.76-6.42,3.38,0,7.05,1,7.05,6.16V42.19a1.25,1.25,0,0,0,1.38,1.41,2.07,2.07,0,0,0,.74-.15v2a6.47,6.47,0,0,1-1.52.15c-2.38,0-2.75-1.34-2.75-3.34h-.08c-1.63,2.48-3.3,3.89-7,3.89s-6.42-1.74-6.42-5.6c0-5.38,5.23-5.57,10.28-6.16,1.93-.22,3-.48,3-2.6,0-3.15-2.26-3.93-5-3.93s-5,1.33-5.12,4.45Zm12.47,2.82h-.07c-.3.56-1.34.74-2,.85-4,.71-8.9.67-8.9,4.42A4,4,0,0,0,160,44.16c3.57,0,6.72-2.27,6.68-6Z"/><path class="cls-3" d="M185,32c-.11-2.89-2.34-4.19-5-4.19-2.08,0-4.53.81-4.53,3.3,0,2.08,2.38,2.82,4,3.23l3.12.7c2.67.41,5.46,2,5.46,5.31,0,4.16-4.12,5.75-7.69,5.75-4.45,0-7.49-2.08-7.86-6.75h2.33c.19,3.15,2.53,4.79,5.64,4.79,2.19,0,5.24-1,5.24-3.64,0-2.23-2.08-3-4.2-3.49l-3-.67c-3-.81-5.35-1.85-5.35-5.12,0-3.9,3.83-5.38,7.2-5.38,3.83,0,6.87,2,7,6.16Z"/><path class="cls-3" d="M202.61,32c-.11-2.89-2.33-4.19-5-4.19-2.07,0-4.52.81-4.52,3.3,0,2.08,2.37,2.82,4,3.23l3.11.7c2.68.41,5.46,2,5.46,5.31,0,4.16-4.12,5.75-7.68,5.75-4.46,0-7.5-2.08-7.87-6.75h2.34c.18,3.15,2.52,4.79,5.64,4.79,2.19,0,5.23-1,5.23-3.64,0-2.23-2.08-3-4.19-3.49l-3-.67c-3-.81-5.34-1.85-5.34-5.12,0-3.9,3.82-5.38,7.2-5.38,3.82,0,6.86,2,7,6.16Z"/><path class="cls-3" d="M207.64,27h-.75v-.46h2V27h-.75v2h-.54Z"/><path class="cls-3" d="M209.2,26.56H210l.58,1.7h0l.55-1.7h.77V29h-.51V27.28h0L210.74,29h-.42l-.61-1.74h0V29h-.51Z"/></g></svg>