<svg version="1.2" xmlns="http://www.w3.org/2000/svg" viewBox="0 0 89 89">
	<title>citi-svg</title>
	<defs>
		<clipPath clipPathUnits="userSpaceOnUse" id="cp1">
			<path d="m16.5 28.32h56v32.36h-56z"/>
		</clipPath>
	</defs>
	<style>
		.s0 { fill: #255be3 } 
		.s1 { fill: #ff3c28 } 
	</style>
	<g id="Clip-Path" clip-path="url(#cp1)">
		<g id="Layer">
			<path id="Layer" class="s0" d="m16.5 50.3c0-5.8 4.8-10.3 10.9-10.3 3.6 0 6.9 1.6 8.7 4l-2.7 2.7c-0.7-0.9-1.6-1.7-2.6-2.2-1-0.5-2.2-0.8-3.3-0.8-3.7 0-6.6 2.8-6.6 6.6 0 3.8 2.9 6.6 6.6 6.6 1.2 0 2.3-0.3 3.4-0.8 1.1-0.6 2-1.3 2.7-2.3l2.7 2.6c-1.8 2.5-5.2 4.2-8.9 4.2-6.1 0-10.9-4.5-10.9-10.3z"/>
			<path id="Layer" class="s0" d="m39.8 40.7h4.2v19.2h-4.2z"/>
			<path id="Layer" class="s0" d="m51.9 54.7v-10.4h-4.7v-3.6h4.8v-4.1l4-1.9v6h6.3v3.6h-6.3v9.7c0 2 1.1 2.8 3.1 2.8 1.1 0 2.2-0.2 3.1-0.6v3.6c-1.2 0.5-2.5 0.8-3.8 0.8-3.8 0-6.5-2.1-6.5-5.9z"/>
			<path id="Layer" class="s0" d="m65.6 40.7h4.2v19.2h-4.2z"/>
			<path id="Layer" class="s1" d="m54.8 28.5c3.4 0 6.8 0.8 9.9 2.4 3.1 1.6 5.8 3.9 7.8 6.7h-5c-1.6-1.8-3.5-3.2-5.7-4.2-2.2-0.9-4.6-1.5-7-1.5-2.5 0-4.8 0.6-7 1.5-2.2 1-4.2 2.4-5.8 4.2h-5c2.1-2.8 4.7-5.1 7.8-6.7 3.1-1.6 6.5-2.4 10-2.4z"/>
		</g>
	</g>
</svg>