<svg xmlns="http://www.w3.org/2000/svg" viewBox="0 0 64 39"><title>citi-svg</title><defs><clipPath id="cp1" clipPathUnits="userSpaceOnUse"><path d="M4.5 3.32h56v32.36h-56z"/></clipPath></defs><style>.s0{fill:#255be3}</style><g id="Clip-Path: Clip-Path" clip-path="url(#cp1)"><g id="Clip-Path"><g id="Layer"><path d="M4.5 25.3C4.5 19.5 9.3 15 15.4 15c3.6 0 6.9 1.6 8.7 4l-2.7 2.7c-.7-.9-1.6-1.7-2.6-2.2s-2.2-.8-3.3-.8c-3.7 0-6.6 2.8-6.6 6.6s2.9 6.6 6.6 6.6c1.2 0 2.3-.3 3.4-.8 1.1-.6 2-1.3 2.7-2.3l2.7 2.6c-1.8 2.5-5.2 4.2-8.9 4.2-6.1 0-10.9-4.5-10.9-10.3M27.8 15.7H32v19.2h-4.2zM39.9 29.7V19.3h-4.7v-3.6H40v-4.1l4-1.9v6h6.3v3.6H44V29c0 2 1.1 2.8 3.1 2.8 1.1 0 2.2-.2 3.1-.6v3.6c-1.2.5-2.5.8-3.8.8-3.8 0-6.5-2.1-6.5-5.9M53.6 15.7h4.2v19.2h-4.2z" class="s0"/><path d="M42.8 3.5c3.4 0 6.8.8 9.9 2.4s5.8 3.9 7.8 6.7h-5q-2.4-2.7-5.7-4.2c-2.2-.9-4.6-1.5-7-1.5-2.5 0-4.8.6-7 1.5-2.2 1-4.2 2.4-5.8 4.2h-5c2.1-2.8 4.7-5.1 7.8-6.7s6.5-2.4 10-2.4" style="fill:#ff3c28"/></g></g></g></svg>