<svg id="Layer_1" data-name="Layer 1" xmlns="http://www.w3.org/2000/svg" viewBox="0 0 320 119"><defs><style>.cls-1{fill:#231f20;}.cls-2{fill:#ffce62;}.cls-3{fill:#ffdc99;}.cls-4{fill:#fbb022;}.cls-5{fill:#f37920;}.cls-6{fill:#f79b36;}</style></defs><path class="cls-1" d="M43.18,12.14c-.88-1.92-2.1-2.78-3.92-2.78s-3,.86-3.94,2.78L.56,89.8a4.33,4.33,0,0,0-.56,2,3.82,3.82,0,0,0,4.1,3.86A3.92,3.92,0,0,0,7.92,93L18.06,70.34H60.48L70.6,92.94a3.91,3.91,0,0,0,3.82,2.68,3.81,3.81,0,0,0,4.1-3.86A4.4,4.4,0,0,0,78,89.82ZM21.34,62.78,39.26,21.54,57.18,62.78Z"/><path class="cls-1" d="M119.54,37.88c-9.26,0-16.8,3.62-21.92,10.48V42.6a4.22,4.22,0,1,0-8.44,0v72.18a4.22,4.22,0,0,0,8.44,0V85.64c5.12,6.86,12.66,10.48,21.92,10.48,15.88,0,27.86-12.52,27.86-29.12S135.42,37.88,119.54,37.88ZM138.94,67c0,12.82-8.44,21.78-20.54,21.78S97.62,79.62,97.62,67s8.74-21.78,20.78-21.78S138.94,54.16,138.94,67Z"/><path class="cls-1" d="M185.66,38.38a19.13,19.13,0,0,0-17.54,10.56V42.6a4.22,4.22,0,1,0-8.44,0V91.38a4.33,4.33,0,0,0,4.22,4.22,4.22,4.22,0,0,0,4.22-4.22V69.76c0-14,7.22-23.8,17.54-23.8,2.1,0,4.22-1.2,4.22-3.86C189.88,39.92,188.14,38.38,185.66,38.38Z"/><path class="cls-1" d="M205,38.38a4.17,4.17,0,0,0-4.22,4.22V91.38a4.22,4.22,0,1,0,8.44,0V42.6A4.16,4.16,0,0,0,205,38.38Z"/><circle class="cls-1" cx="205.04" cy="23.34" r="5.22"/><path class="cls-1" d="M253.82,37.88c-16.52,0-29,12.52-29,29.12s12.46,29.12,29,29.12,29-12.52,29-29.12S270.36,37.88,253.82,37.88Zm0,7.46c11.7,0,20.54,9.32,20.54,21.66s-8.84,21.66-20.54,21.66S233.28,79.36,233.28,67,242.12,45.34,253.82,45.34Z"/><path class="cls-2" d="M305.22,25.88A24.78,24.78,0,0,1,301,23a24.43,24.43,0,0,1-3.48-3.7,24.34,24.34,0,0,0-1.48,4.86A24.07,24.07,0,0,0,298,39h0a118.1,118.1,0,0,0,11.28-4.6A114.55,114.55,0,0,0,320,28.7h0A24.29,24.29,0,0,1,305.22,25.88Z"/><path class="cls-3" d="M317,4.58h0a24.35,24.35,0,0,1-7.24,13.16,23.73,23.73,0,0,1-4.06,3.06,21.79,21.79,0,0,1-2.24,1.2c-.78.36-1.56.68-2.36,1a24.78,24.78,0,0,0,4.18,2.9A24.45,24.45,0,0,0,320,28.7h0a116.94,116.94,0,0,0-3-24.12Z"/><path class="cls-4" d="M294.94,14.92a24.47,24.47,0,0,0-13.6,6.38h0A115,115,0,0,0,298,39h0a24.39,24.39,0,0,1-1.88-14.9,24,24,0,0,1,1.48-4.86A24.26,24.26,0,0,1,300,14.82,22.9,22.9,0,0,0,294.94,14.92Z"/><path class="cls-5" d="M293.06,0h0a24.42,24.42,0,0,1,10.28,11h0a24.48,24.48,0,0,1,1.68,4.8,24.16,24.16,0,0,1,.64,5,24.81,24.81,0,0,0,4.06-3.06A24.35,24.35,0,0,0,317,4.58h0A116.31,116.31,0,0,0,293.06,0Z"/><path class="cls-6" d="M293.06,0h0a116.44,116.44,0,0,0-11.74,21.3h0A24.3,24.3,0,0,1,300,14.82a23.51,23.51,0,0,1,5,1,24,24,0,0,0-1.68-4.8h0A24,24,0,0,0,293.06,0Z"/><path class="cls-1" d="M287.28,39.7a3.42,3.42,0,0,1-6.84,0,3.42,3.42,0,0,1,6.84,0Zm-.72,0a2.72,2.72,0,1,0-5.44,0,2.72,2.72,0,1,0,5.44,0Zm-2,.46,1,1.4h-.76l-.9-1.34h-.68v1.34h-.68v-3.7h1.52c.84,0,1.4.46,1.4,1.18A1.08,1.08,0,0,1,284.58,40.16Zm-1.36-.44h.84c.48,0,.74-.22.74-.68s-.26-.66-.74-.66h-.84Z"/></svg>