<svg xmlns="http://www.w3.org/2000/svg" id="Layer_1" data-name="Layer 1" viewBox="0 0 320 119"><defs><style>.cls-1{fill:#231f20}</style></defs><path d="M43.18 12.14c-.88-1.92-2.1-2.78-3.92-2.78s-3 .86-3.94 2.78L.56 89.8a4.3 4.3 0 0 0-.56 2 3.82 3.82 0 0 0 4.1 3.86A3.92 3.92 0 0 0 7.92 93l10.14-22.66h42.42l10.12 22.6a3.91 3.91 0 0 0 3.82 2.68 3.81 3.81 0 0 0 4.1-3.86 4.4 4.4 0 0 0-.52-1.94ZM21.34 62.78l17.92-41.24 17.92 41.24ZM119.54 37.88c-9.26 0-16.8 3.62-21.92 10.48V42.6a4.22 4.22 0 1 0-8.44 0v72.18a4.22 4.22 0 0 0 8.44 0V85.64c5.12 6.86 12.66 10.48 21.92 10.48 15.88 0 27.86-12.52 27.86-29.12s-11.98-29.12-27.86-29.12M138.94 67c0 12.82-8.44 21.78-20.54 21.78S97.62 79.62 97.62 67s8.74-21.78 20.78-21.78 20.54 8.94 20.54 21.78M185.66 38.38a19.13 19.13 0 0 0-17.54 10.56V42.6a4.22 4.22 0 1 0-8.44 0v48.78a4.33 4.33 0 0 0 4.22 4.22 4.22 4.22 0 0 0 4.22-4.22V69.76c0-14 7.22-23.8 17.54-23.8 2.1 0 4.22-1.2 4.22-3.86 0-2.18-1.74-3.72-4.22-3.72M205 38.38a4.17 4.17 0 0 0-4.22 4.22v48.78a4.22 4.22 0 1 0 8.44 0V42.6a4.16 4.16 0 0 0-4.22-4.22" class="cls-1"/><circle cx="205.04" cy="23.34" r="5.22" class="cls-1"/><path d="M253.82 37.88c-16.52 0-29 12.52-29 29.12s12.46 29.12 29 29.12 29-12.52 29-29.12-12.46-29.12-29-29.12m0 7.46c11.7 0 20.54 9.32 20.54 21.66s-8.84 21.66-20.54 21.66-20.54-9.3-20.54-21.66 8.84-21.66 20.54-21.66" class="cls-1"/><path d="M305.22 25.88A24.8 24.8 0 0 1 301 23a24.4 24.4 0 0 1-3.48-3.7 24.3 24.3 0 0 0-1.48 4.86A24.07 24.07 0 0 0 298 39a118 118 0 0 0 11.28-4.6A115 115 0 0 0 320 28.7a24.3 24.3 0 0 1-14.78-2.82" style="fill:#ffce62"/><path d="M317 4.58a24.35 24.35 0 0 1-7.24 13.16 23.7 23.7 0 0 1-4.06 3.06 22 22 0 0 1-2.24 1.2c-.78.36-1.56.68-2.36 1a24.8 24.8 0 0 0 4.18 2.9A24.45 24.45 0 0 0 320 28.7a117 117 0 0 0-3-24.12" style="fill:#ffdc99"/><path d="M294.94 14.92a24.47 24.47 0 0 0-13.6 6.38A115 115 0 0 0 298 39a24.4 24.4 0 0 1-1.88-14.9 24 24 0 0 1 1.48-4.86 24.3 24.3 0 0 1 2.4-4.42 23 23 0 0 0-5.06.1" style="fill:#fbb022"/><path d="M293.06 0a24.42 24.42 0 0 1 10.28 11 24.5 24.5 0 0 1 1.68 4.8 24 24 0 0 1 .64 5 25 25 0 0 0 4.06-3.06A24.35 24.35 0 0 0 317 4.58 116.3 116.3 0 0 0 293.06 0" style="fill:#f37920"/><path d="M293.06 0a116.4 116.4 0 0 0-11.74 21.3A24.3 24.3 0 0 1 300 14.82a23.5 23.5 0 0 1 5 1 24 24 0 0 0-1.68-4.8A24 24 0 0 0 293.06 0" style="fill:#f79b36"/><path d="M287.28 39.7a3.42 3.42 0 0 1-6.84 0 3.42 3.42 0 0 1 6.84 0m-.72 0a2.72 2.72 0 1 0-5.44 0 2.72 2.72 0 1 0 5.44 0m-2 .46 1 1.4h-.76l-.9-1.34h-.68v1.34h-.68v-3.7h1.52c.84 0 1.4.46 1.4 1.18a1.08 1.08 0 0 1-.88 1.12Zm-1.36-.44h.84c.48 0 .74-.22.74-.68s-.26-.66-.74-.66h-.84Z" class="cls-1"/></svg>