<svg viewBox="0 0 198 61" fill="none" 
  xmlns="http://www.w3.org/2000/svg">
  <path d="M18.1635 39.0493C17.6899 39.6414 17.6899 40.5909 18.2819 41.0645L21.8387 44.6213L14.962 51.4979C14.7252 51.7348 14.4884 51.8532 14.37 51.8532C14.1331 51.8532 13.8963 51.6164 13.8963 51.0221V44.8559C13.8963 44.0247 14.37 42.8407 14.9642 42.2464L18.1658 39.0449" fill="#1A565F"/>
  <path d="M25.5161 39.0493L37.1358 50.6691C37.7279 51.2611 38.2038 52.4475 38.2038 53.2786V59.4448C38.2038 59.9184 37.9669 60.2759 37.7301 60.2759C37.4933 60.2759 37.3749 60.1575 37.1381 59.9207L21.8432 44.6235L25.3999 41.0668C25.992 40.4747 25.992 39.6436 25.5183 39.0516" fill="#1A565F"/>
  <path d="M21.8409 35.9662C21.4857 35.9662 21.0098 36.0846 20.773 36.4398L18.1635 39.0493C17.6899 39.6414 17.6899 40.5909 18.2819 41.0645L21.8387 44.6213L25.3954 41.0645C25.9875 40.4725 25.9875 39.6414 25.5138 39.0493L22.9044 36.4398C22.6676 36.0846 22.3123 35.9662 21.8365 35.9662" fill="#072C2F"/>
  <path d="M51.0098 13.9108C51.8409 13.9108 52.0777 14.3845 51.4835 14.9787L36.1863 30.2759L32.6296 26.7191C32.2743 26.3639 31.9191 26.2455 31.5616 26.2455C31.2042 26.2455 30.8512 26.3639 30.6121 26.6007L42.2319 14.981C42.8239 14.3889 44.0103 13.913 44.8414 13.913H51.0076" fill="#A4C03B"/>
  <path d="M36.1885 30.2759L51.4857 45.5708C52.0777 46.1628 51.8409 46.6387 51.0121 46.6387H44.8458C44.0147 46.6387 42.8306 46.1651 42.2364 45.5708L30.6166 33.951C30.8534 34.1879 31.2087 34.3063 31.5661 34.3063C31.9236 34.3063 32.3972 34.1879 32.634 33.8326L36.1908 30.2759" fill="#A4C03B"/>
  <path d="M31.5639 26.2432C31.2087 26.2432 30.8534 26.3617 30.6144 26.5985L28.0049 29.2079C27.6497 29.5632 27.5313 30.039 27.5313 30.3943C27.5313 30.7495 27.7681 31.1047 28.0049 31.3438L30.6144 33.9533C30.8512 34.1901 31.2064 34.3085 31.5639 34.3085C31.9213 34.3085 32.395 34.1901 32.6318 33.8349L36.1885 30.2781L32.6318 26.7214C32.395 26.3661 31.9213 26.2477 31.5639 26.2477" fill="#6DA943"/>
  <path d="M7.49335 30.2758L11.0501 33.8326C11.4053 34.1878 11.7606 34.3062 12.118 34.3062C12.4755 34.3062 12.8285 34.1878 13.0675 33.951L9.86601 37.1525C9.27396 37.7446 8.08764 38.2204 7.25654 38.2204H1.09032C0.259216 38.2204 0.0223971 37.7468 0.616678 37.1525L7.49335 30.2758Z" fill="#A4C03B"/>
  <path d="M1.09027 22.3313H7.25649C8.08759 22.3313 9.27169 22.805 9.86597 23.3992L13.0675 26.6008C12.8307 26.3639 12.4754 26.2455 12.118 26.2455C11.7605 26.2455 11.2869 26.3639 11.0501 26.7192L7.49335 30.2758L0.6144 23.397C0.0223531 22.805 0.259172 22.3291 1.08804 22.3291" fill="#A4C03B"/>
  <path d="M12.118 26.2432C11.7628 26.2432 11.2869 26.3616 11.0501 26.7169L7.49337 30.2736L11.0501 33.8304C11.4053 34.1856 11.7606 34.304 12.118 34.304C12.4755 34.304 12.8285 34.1856 13.0675 33.9488L15.677 31.3393C15.9138 31.1025 16.0322 30.7473 16.1507 30.3898C16.1507 29.9162 16.0322 29.5587 15.677 29.2035L13.0675 26.594C12.8307 26.3572 12.4755 26.2388 12.118 26.2388" fill="#6DA943"/>
  <path d="M37.7279 0.275879C37.9647 0.275879 38.2015 0.512697 38.2015 1.10698V7.2732C38.2015 8.1043 37.7279 9.28839 37.1336 9.88267L25.5138 21.5024C25.9875 20.9104 25.9875 19.9609 25.3954 19.4872L21.8387 15.9305L37.1358 0.631107C37.3726 0.394288 37.491 0.275879 37.7279 0.275879Z" fill="#1A565F"/>
  <path d="M14.3699 8.69412C14.4884 8.69412 14.7252 8.81253 14.962 9.04935L21.8387 15.926L18.2819 19.4828C17.6899 20.0748 17.6899 20.9059 18.1635 21.498L14.962 18.2964C14.3699 17.7044 13.8941 16.5181 13.8941 15.687V9.52075C13.8941 8.9287 14.1309 8.68965 14.3677 8.68965" fill="#1A565F"/>
  <path d="M21.8409 15.9283L18.2842 19.485C17.6921 20.0771 17.6921 20.9082 18.1657 21.5002L20.7752 24.1097C21.012 24.3465 21.4857 24.5833 21.8431 24.5833C22.2006 24.5833 22.5536 24.4649 22.9111 24.1097L25.5205 21.5002C25.9942 20.9082 25.9942 19.9587 25.4021 19.485L21.8454 15.9283" fill="#072C2F"/>
  <path d="M59.9017 44.9788C60.1385 44.9788 60.3754 44.9788 60.4938 45.0972H61.0858C62.7458 45.0972 63.4562 44.2661 63.4562 38.6941V21.9761C63.4562 16.641 62.9826 15.5731 61.0858 15.5731H60.4938C60.3754 15.5731 60.1385 15.6915 59.9017 15.6915C59.4281 15.6915 59.0706 15.4546 59.0706 14.981C59.0706 14.5074 59.4258 14.1499 60.6122 14.1499C61.7985 14.1499 62.6274 14.2683 63.5769 14.2683C64.7632 14.3867 66.1863 14.5051 67.9647 14.5051C68.9142 14.5051 71.2847 14.3867 73.4183 14.3867C75.4334 14.2683 78.8718 14.1499 81.0076 14.1499C81.9571 14.1499 82.0755 14.3867 82.0755 15.2178C82.0755 15.4546 81.9571 17.233 81.9571 17.9457C81.7203 19.6057 81.6019 19.8425 81.126 19.8425C80.7708 19.8425 80.6524 19.6057 80.534 19.132C80.1788 18.1825 79.8235 17.5905 78.6372 17.2352C77.2141 16.7616 74.8436 16.4042 70.219 16.4042H68.0854C67.3749 16.4042 67.2543 16.5226 67.2543 17.3537V27.3134C69.3879 27.5503 70.3374 27.6687 72.5894 27.6687C75.9093 27.6687 76.7404 27.5503 77.2141 26.7192C77.8061 25.7697 78.1636 25.4144 78.5188 25.4144C78.874 25.4144 79.1108 25.6512 79.1108 26.1249C79.1108 26.3617 78.874 26.956 78.7556 27.548C78.5188 28.3791 78.282 29.0896 78.282 29.5632V31.46C78.282 32.7647 77.9267 33.12 77.4509 33.12C76.975 33.12 76.7404 32.7647 76.7404 32.0521C76.7404 30.9841 76.622 30.3921 75.9093 30.1553C75.4357 30.0369 73.8941 29.8 71.8767 29.8C70.8088 29.8 68.2015 29.9185 67.1336 30.0369V35.372C67.1336 38.8103 67.252 41.775 67.3704 44.027C69.0304 44.3823 70.8088 44.5007 71.6399 44.5007C75.9093 44.5007 78.3981 44.1454 80.1765 42.9591C80.6502 42.7223 81.126 42.0096 81.4813 41.2991C81.8365 40.7071 82.0733 40.468 82.4308 40.468C82.9044 40.468 82.9044 40.8233 82.9044 41.1785C82.9044 41.2969 82.786 41.6521 82.6676 42.128C82.5492 42.4832 82.3124 43.0775 82.0755 44.1432C81.3651 46.6343 81.2444 46.8711 79.7051 46.8711C77.0956 46.8711 74.6068 46.7527 70.811 46.6343C68.9142 46.5159 67.1359 46.3974 65.7127 46.3974C64.2896 46.3974 63.1032 46.5159 62.3928 46.6343C61.9191 46.7527 60.9696 46.7527 60.3776 46.7527C59.4281 46.7527 59.0729 46.3974 59.0729 45.9216C58.9544 45.3295 59.3097 44.9721 59.904 44.9721" fill="#1A565F"/>
  <path d="M87.2923 45.0972C88.9522 44.5051 89.9017 43.2004 92.509 40.3541L96.1841 35.611L90.9674 28.616C89.6627 26.956 88.4763 26.0065 87.0554 25.6513C86.345 25.4144 85.9875 25.0592 85.9875 24.7017C85.9875 24.4649 86.3427 24.1097 86.937 24.1097C88.2418 24.1097 89.4281 24.3465 91.0881 24.3465C92.6296 24.3465 93.2217 24.1097 94.6448 24.1097C95.9495 24.1097 96.3048 24.3465 96.3048 24.8202C96.3048 25.2938 95.8311 25.5306 94.8816 25.6513C94.1712 25.6513 93.9321 25.8881 93.9321 26.3617C93.9321 26.7169 94.4057 27.548 95.1184 28.4953L98.6752 33.12L101.64 29.4448C102.945 27.7849 103.537 26.8354 103.537 26.2433C103.537 25.7697 103.181 25.5328 102.587 25.5328C101.519 25.4144 101.164 25.1776 101.164 24.7017C101.164 24.3465 101.519 23.9913 102.587 23.9913C103.655 23.9913 104.721 24.2281 106.381 24.2281C107.567 24.2281 108.041 23.9913 108.872 23.9913C109.464 23.9913 109.821 24.2281 109.821 24.5833C109.821 24.9386 109.584 25.1754 108.635 25.5328C106.975 26.1249 105.907 27.3112 103.418 30.2759L99.9799 34.5454L105.673 42.0163C106.977 43.6763 107.925 44.6258 109.348 44.981C110.058 45.0994 110.416 45.4547 110.416 45.8121C110.416 46.0489 110.06 46.4042 109.466 46.4042C108.161 46.4042 107.925 46.1673 106.265 46.1673C104.013 46.1673 103.418 46.4042 101.995 46.4042C100.927 46.4042 100.335 46.1673 100.335 45.6937C100.335 45.3385 100.572 44.9833 101.758 44.8626C102.35 44.8626 102.708 44.5074 102.708 44.1522C102.708 43.7969 102.234 42.9658 101.521 42.0186L97.6095 36.9202L94.408 41.0713C93.4585 42.2576 92.6296 43.6807 92.6296 44.2728C92.6296 44.7464 92.8664 44.9832 93.5791 44.9832C94.5286 45.1017 95.0023 45.2201 95.0023 45.8144C95.0023 46.1696 94.647 46.5248 93.5791 46.5248C92.5112 46.5248 91.4455 46.288 90.0224 46.288C88.5992 46.288 88.0072 46.5248 87.1761 46.5248C86.584 46.5248 86.2266 46.288 86.2266 45.9328C86.1082 45.6959 86.345 45.4591 87.2945 45.1017" fill="#1A565F"/>
  <path d="M122.983 23.7545C128.318 23.8729 131.401 27.9055 131.282 32.6486C131.282 34.1901 130.809 34.6638 129.859 34.7822C128.791 34.9006 120.255 35.019 115.512 35.3742C115.748 40.9462 118.595 44.3867 123.338 44.5052C125.116 44.5052 127.25 43.9131 128.673 42.6084C129.383 42.0163 129.622 41.7773 130.096 41.7773C130.57 41.7773 130.807 42.3693 130.807 42.8452C130.807 43.5556 129.739 44.5052 127.96 45.5731C126.3 46.5226 123.928 46.8778 121.794 46.7594C115.154 46.5226 111.24 41.5427 111.361 35.0212C111.597 28.1446 116.814 23.6383 122.98 23.7567M126.542 33.12C127.134 33.12 127.491 32.8832 127.491 31.5784C127.61 27.9033 125.121 25.5306 122.038 25.5306C118.599 25.4122 115.635 28.4953 115.398 33.712C119.191 33.5936 123.106 33.3568 126.544 33.12" fill="#1A565F"/>
  <path d="M162.587 23.7545C167.922 23.8729 171.005 27.9055 170.887 32.6486C170.887 34.1901 170.413 34.6638 169.464 34.7822C168.396 34.9006 159.859 35.019 155.116 35.3742C155.353 40.9462 158.199 44.3867 162.942 44.5052C164.721 44.5052 166.854 43.9131 168.278 42.6084C168.988 42.0163 169.227 41.7773 169.701 41.7773C170.174 41.7773 170.411 42.3693 170.411 42.8452C170.411 43.5556 169.343 44.5052 167.565 45.5731C165.905 46.5226 163.532 46.8778 161.399 46.7594C154.759 46.5226 150.845 41.5427 150.965 35.0212C151.202 28.1446 156.419 23.6383 162.585 23.7567M166.144 33.12C166.736 33.12 167.093 32.8832 167.093 31.5784C167.212 27.9033 164.723 25.5306 161.64 25.5306C158.202 25.4122 155.237 28.4953 155 33.712C158.794 33.5936 162.708 33.3568 166.146 33.12" fill="#1A565F"/>
  <path d="M135.552 26.7169C134.366 26.7169 133.892 26.3617 133.892 25.8858C133.892 25.41 134.247 25.1754 134.723 25.0547C136.028 24.6995 136.857 23.9868 137.451 23.0395C138.161 21.6164 138.4 20.5485 138.874 19.4828C139.229 18.5333 139.466 18.1781 139.942 18.1781C140.534 18.1781 140.652 18.6517 140.652 19.4828V24.6995L147.292 24.5811C147.766 24.5811 148.123 25.7674 148.123 26.1227C148.123 26.5963 147.887 26.7147 147.413 26.7147L140.655 26.5963V39.7576C140.655 43.3144 141.841 44.3823 143.619 44.3823C144.687 44.3823 145.398 44.1455 145.99 43.6718C146.7 43.0798 146.939 42.8407 147.413 42.8407C147.887 42.8407 148.244 43.4328 148.244 43.7902C148.244 44.2639 147.652 44.8581 146.11 45.8054C144.687 46.5159 143.501 46.7549 142.198 46.7549C138.642 46.7549 136.863 44.2639 136.863 40.1151V26.7169H136.982H135.552Z" fill="#1A565F"/>
  <path d="M174.683 44.9788C174.92 44.9788 175.156 44.9788 175.275 45.0972H175.867C177.29 45.0972 177.645 44.3867 177.645 38.6942V31.5807C177.645 30.0391 177.645 28.9712 177.29 28.2607C176.935 27.6687 176.222 27.4296 175.512 27.3112C174.681 27.1928 174.325 26.956 174.325 26.4801C174.325 26.2433 174.444 25.8881 175.512 25.649C177.172 25.2938 178.832 24.8179 179.9 24.2259C180.731 23.7522 181.086 23.6338 181.441 23.6338C181.796 23.6338 182.033 23.8707 182.033 24.2259C182.033 24.5811 181.796 24.9363 181.678 25.4122C181.559 26.0043 181.441 26.9538 181.323 28.4953C183.219 25.1754 185.947 23.8707 187.963 23.8707C189.741 23.8707 190.927 25.057 190.927 26.5985C190.927 27.9033 189.741 28.8505 189.03 28.8505C188.557 28.8505 188.32 28.6137 187.844 27.5458C187.489 26.8354 186.895 26.4779 186.421 26.4779C184.879 26.4779 182.864 28.2563 181.441 31.4578V38.5713C181.441 44.6191 181.559 44.9743 183.338 44.9743C183.693 44.9743 184.169 44.9743 184.524 44.8559C184.879 44.8559 185.116 44.7375 185.474 44.7375C186.066 44.7375 186.542 45.0927 186.542 45.5686C186.542 46.1606 185.95 46.3997 184.763 46.3997C183.932 46.3997 183.103 46.2813 182.272 46.1629C181.441 46.0445 180.612 46.0445 179.781 46.0445C178.95 46.0445 178.24 46.1629 177.529 46.1629C176.819 46.2813 176.224 46.3997 175.514 46.3997C174.328 46.3997 173.972 46.0445 173.972 45.5686C173.736 45.3318 174.091 44.9766 174.683 44.9766" fill="#1A565F"/>
  <path d="M192.706 20.9082C192.706 19.485 193.892 18.2987 195.315 18.2987C196.738 18.2987 197.806 19.485 197.806 20.7898C197.806 22.2129 196.62 23.3993 195.197 23.3993C193.773 23.5177 192.706 22.3313 192.706 20.9082ZM197.449 20.9082C197.449 19.6034 196.499 18.6562 195.197 18.6562C193.894 18.6562 192.945 19.7241 192.945 20.9082C192.945 22.2129 193.894 23.1602 195.197 23.1602C196.501 23.1602 197.449 22.2107 197.449 20.9082ZM194.129 19.485H195.315C195.67 19.485 195.907 19.6035 196.146 19.7219C196.265 19.8403 196.383 20.0771 196.383 20.3139C196.383 20.7875 196.146 21.0244 195.791 21.145L196.501 22.0945H195.791L195.199 21.2634H194.725V22.0945H194.133V19.485H194.129ZM195.313 20.7898C195.668 20.7898 195.786 20.6714 195.786 20.4346C195.786 20.1977 195.55 20.0793 195.313 20.0793H194.721V20.9104H195.313V20.7898Z" fill="#1A565F"/>
</svg>
