<svg xmlns="http://www.w3.org/2000/svg" baseProfile="tiny" viewBox="0 0 437 132.2"><g fill="#fff"><path d="M125 24.8c3.5 0 6.4 1 8.6 3.1s3.3 4.7 3.3 7.9-1.1 5.9-3.3 7.9-5.2 3-8.8 3h-7v15.8h-7.3V24.8h14.6ZM123.2 41c1.9 0 3.5-.4 4.5-1.3s1.6-2.2 1.6-4c0-3.5-2.2-5.2-6.7-5.2h-5V41h5.5ZM150 24.8v17.4h.2L164 24.8h8.3l-14 17.8 18.2 19.9h-9.3L150.1 44v18.5h-7.3V24.8h7.3ZM187.7 24.8v37.7h-7.3V24.8zM215.1 24.8l-1.1 7.8c1.6-.6 3.3-.9 5.2-.9 3.6 0 6.7 1.4 9.1 4.1s3.7 6.1 3.7 10.3-1.7 9.2-5 12.9-7.9 5.5-13.6 5.5h-3.9l-2 14.8h-5.8l5.5-39c-1.3.9-2.4 2.1-3.4 3.5s-1.6 2.1-1.7 2.1-.3-.1-.3-.4c0-1 .6-2.5 1.8-4.4s2.6-3.6 4.2-4.9l1.6-11.3h5.8Zm-1.7 12.1-3.2 22.5h2.8c4 0 7.1-1.3 9.5-4 2.3-2.7 3.5-5.8 3.5-9.4s-.8-5.6-2.5-7.3c-1.7-1.8-3.8-2.6-6.3-2.6s-2.7.3-3.9.9ZM265.1 32.6l-4.3 30.9H255l.6-3.6v-.2c-2.8 2.9-5.6 4.3-8.5 4.3s-5.2-1.2-7.2-3.6-3-5.3-3-8.6c0-5.9 1.8-10.7 5.5-14.5s8.8-5.7 15.4-5.7 5.1.3 7.3.9Zm-8.9 21.9 2.5-17.8h-1.8c-4.6 0-8.1 1.5-10.5 4.4s-3.6 6.2-3.6 9.8.6 4.5 1.7 6.1c1.2 1.6 2.6 2.4 4.4 2.4s3-.7 4.6-2.1c1.7-1.4 2.5-2.3 2.6-2.6ZM279.4 32.6l-.9 5.9h.1c1.8-2.5 3.3-4.2 4.4-5.1 1.1-.8 2.3-1.3 3.8-1.3s1.8.2 2.6.5v6.6c-1.2-.7-2.4-1-3.6-1s-2.2.3-3.1.9-2 1.8-3.3 3.7-1.9 3-2 3.4L275 63.6h-5.8l4.3-30.9h5.8ZM310.5 32.6l-.6 4.6h-6.1l-3 16.9c-.2.8-.2 1.6-.2 2.1q0 3 3.3 3c3.3 0 3.5-.6 5.6-1.8l-.3 5.7c-2.1.9-4.3 1.4-6.4 1.4s-4.5-.6-6-1.9-2.2-3-2.2-5.1 0-1 .1-1.6l3.2-18.7h-5.4l.7-4.6h5.6l1.1-6.3h5.8l-1.1 6.3h6ZM322.4 32.6l-.8 5.5h.2c3.3-3.9 6.7-5.9 10.2-5.9s4.2.9 5.6 2.6c1.3 1.8 2 4 2 6.8s0 1.6-.2 2.4l-3 19.5h-5.8l2.8-19.7c.1-.7.2-1.3.2-1.9 0-1.6-.3-2.8-1-3.7-.7-.8-1.5-1.3-2.5-1.3s-1.2.1-2 .4c-.7.3-1.5.7-2.3 1.3s-1.9 1.5-3.1 2.7-1.9 2-1.9 2.3L318 63.3h-5.8l4.3-30.9h5.9ZM369.1 55.4l-.8 5.6c-3.1 2.3-6.6 3.5-10.3 3.5s-7-1.4-9.4-4.1-3.5-6.3-3.5-10.8 1.4-9.3 4.2-12.7 6.3-5.1 10.4-5.1 5.7 1.2 7.8 3.6 3.1 5.5 3.1 9.3 0 1.9-.2 2.9h-19.3q-.3 1.5-.3 3c0 2.8.8 5.1 2.3 6.7 1.6 1.6 3.5 2.5 5.9 2.5s6.2-1.4 10-4.2Zm-17-12H365q0-3.15-1.5-5.1c-1-1.2-2.3-1.9-4.1-1.9-3.4 0-5.8 2.3-7.3 6.9ZM385.2 32.6l-.9 5.9h.1c1.8-2.5 3.3-4.2 4.4-5.1 1.1-.8 2.3-1.3 3.8-1.3s1.8.2 2.6.5v6.6c-1.2-.7-2.4-1-3.6-1s-2.2.3-3.1.9-2 1.8-3.3 3.7-1.9 3-2 3.4l-2.4 17.4H375l4.3-30.9h5.8ZM417.6 34.9V41c-3.6-2.7-6.7-4.1-9.3-4.1s-2.2.3-3 1c-.8.6-1.2 1.4-1.2 2.3s.3 1.2.8 1.9 2.1 1.9 4.8 3.7 4.5 3.4 5.4 4.9 1.4 3 1.4 4.6q0 4.05-2.7 6.6c-1.8 1.7-4.1 2.6-6.9 2.6s-7-1.4-10.7-4.1l1-5.6c3.8 3.1 7 4.6 9.5 4.6s2.1-.3 2.9-1c.7-.6 1.1-1.5 1.1-2.4s-.3-1.5-.8-2.3q-.75-1.2-4.8-3.9c-2.6-1.8-4.4-3.5-5.2-4.9-.9-1.4-1.3-2.9-1.3-4.3 0-2.7.9-4.8 2.6-6.4 1.8-1.6 4.1-2.4 7-2.4s6.2 1.1 9.4 3.2Z"/></g><path fill="#fff" d="M43.2 31.4c-2.6 2.5-2.9 7.2-.1 9.6 1.9 1.6 1.7 3 .8 4.7-.1.3-.2.5-.3.8l-2.4 6.3h7.2V29.4c-1.8 0-3.6.6-5.1 2ZM8.4 42.9v9.6l39.9 22.8v-9.6zM8.2 32.3v.1l7.9 4.5 32.2-18.4v-9z"/><path fill="#85b9e5" d="M53.4 31.4c2.6 2.5 2.9 7.2.1 9.6-1.9 1.6-1.7 3-.8 4.7.1.3.2.5.3.8l2.4 6.3h-7.2V29.4c1.8 0 3.6.6 5.1 2ZM88.3 42.9v9.6l-40 22.8v-9.6zM88.4 32.3v.1l-7.9 4.5-32.2-18.4v-9z"/><path fill="#fff" d="M429.7 31.5c-.8.8-1.7 1.1-2.8 1.1s-2.1-.4-2.8-1.1-1.1-1.7-1.1-2.8.4-2.1 1.1-2.8c.8-.8 1.7-1.1 2.8-1.1s2.1.4 2.8 1.1c.8.8 1.1 1.7 1.1 2.8s-.4 2.1-1.1 2.8m-5.2-.4c.6.6 1.4.9 2.3.9s1.7-.3 2.3-.9.9-1.4.9-2.3-.3-1.7-.9-2.3-1.4-.9-2.3-.9-1.7.3-2.3.9-.9 1.4-.9 2.3.3 1.7.9 2.3m.7-.1v-4.7h2.1c.5 0 .8.1 1.1.4s.3.6.3 1 0 .6-.3.9c-.2.3-.4.4-.8.5l1.1 1.9h-.9l-1-1.9h-.8V31zm.8-2.5h1.3c.2 0 .4 0 .5-.2s.2-.3.2-.5 0-.3-.1-.5c0-.1-.3-.2-.5-.2h-1.3v1.4Z"/><g fill="#fff"><path d="M9.5 117.7v-14.9h4.7q1.95 0 3.3.6c.9.4 1.6 1 2.2 1.7q.9 1.05 1.2 2.4c.3.9.4 1.8.4 2.7s-.1 1.7-.4 2.6q-.3 1.35-1.2 2.4c-.5.7-1.3 1.3-2.2 1.8-.9.4-2.1.7-3.4.7zm2.5-2.3h2.4c.8 0 1.5-.2 2.1-.5s1-.7 1.3-1.2.6-1.1.7-1.7.2-1.2.2-1.8 0-1.3-.2-1.9-.4-1.2-.7-1.7-.8-.9-1.3-1.2-1.1-.4-1.9-.4h-2.7v10.3ZM28.6 117.9c-1 0-1.9-.2-2.7-.7-.7-.5-1.3-1.1-1.7-2q-.6-1.35-.6-3c0-1.65.2-2.2.6-3s1-1.5 1.7-1.9 1.6-.7 2.6-.7 1.6.2 2.3.6 1.3.9 1.7 1.7.6 1.7.6 2.9v1.5h-7.2c0 .6.2 1 .4 1.4s.5.7.9 1c.4.2.8.3 1.3.3s.9 0 1.3-.2.7-.4 1.1-.8l1.4 1.5c-.4.5-1 .9-1.6 1.2s-1.4.5-2.2.5Zm-2.5-6.7H31c0-.5-.1-1-.3-1.4s-.5-.7-.8-.9-.8-.3-1.2-.3-1.3.2-1.7.6-.7 1.1-.8 2ZM41.8 122v-15.2h2.4v.8c.7-.7 1.5-1.1 2.5-1.1s1.7.2 2.4.7 1.2 1.1 1.6 2c.4.8.5 1.9.5 3s-.2 2.1-.6 3-.9 1.5-1.6 2-1.5.7-2.4.7-1 0-1.4-.3-.8-.5-1.1-.9v4.1l-2.4 1.1Zm4.6-6.3q1.2 0 1.8-.9c.4-.6.6-1.4.6-2.5s-.2-1.9-.6-2.5q-.6-.9-1.8-.9c-1.2 0-.9 0-1.2.3s-.7.5-.9.8v4.6c.2.4.6.6.9.8q.6.3 1.2.3M57.7 117.9c-1.2 0-2.1-.3-2.8-1-.7-.6-1-1.5-1-2.6s.2-1.4.5-1.9q.45-.75 1.5-1.2c.6-.3 1.4-.4 2.2-.4s1 0 1.4.1.9.2 1.2.4v-.7c0-.7-.2-1.2-.5-1.5-.4-.3-.9-.5-1.6-.5s-1.1 0-1.6.3c-.6.2-1.1.5-1.6.8l-.7-1.9c.6-.4 1.3-.7 2-.9s1.5-.3 2.2-.3c1.4 0 2.4.3 3.1 1s1 1.7 1 3v7.1h-2.3v-.9c-.4.4-.8.7-1.3.9s-1.1.3-1.6.3Zm.5-2c.5 0 .9 0 1.3-.3.4-.2.8-.5 1.2-.8v-1.5c-.3-.2-.7-.3-1.1-.4-.4 0-.8-.1-1.2-.1-.7 0-1.3.1-1.7.4q-.6.45-.6 1.2c0 .75.2.9.5 1.1.4.3.8.4 1.5.4ZM66.6 117.7v-10.9H69v1.3c.2-.5.5-.8 1-1.1.4-.3.9-.4 1.4-.4s1.3.2 1.8.7l-.3 2.2c-.3-.2-.5-.4-.8-.5s-.6-.1-.9-.1-.8.1-1.2.3c-.3.2-.6.5-.8 1s-.3.9-.3 1.5v6h-2.4ZM78.9 117.9c-.8 0-1.4-.2-1.9-.7s-.6-1.2-.6-2.1v-6.3h-1.6v-2.1h1.6v-3.3l2.4-1.1v4.5h2.5v2.1h-2.5v5.7c0 .4 0 .7.2.9s.4.3.7.3c.5 0 1.1-.2 1.7-.5l-.3 2.1c-.3.2-.7.3-1.1.4s-.8.1-1.2.1ZM83.5 117.7v-10.9h2.4v1.1c.3-.4.7-.8 1.2-1s1-.3 1.6-.3c1.3 0 2.2.4 2.9 1.1.7.8 1 1.9 1 3.4v6.6h-2.4v-6.2c0-.9-.2-1.6-.5-2s-.9-.7-1.6-.7-1.3.2-1.7.7c-.4.4-.6 1.1-.6 2v6.2h-2.4ZM100.7 117.9c-1 0-1.9-.2-2.7-.7-.7-.5-1.3-1.1-1.7-2q-.6-1.35-.6-3c0-1.65.2-2.2.6-3s1-1.5 1.7-1.9 1.6-.7 2.6-.7 1.6.2 2.3.6 1.3.9 1.7 1.7.6 1.7.6 2.9v1.5H98c0 .6.2 1 .4 1.4s.5.7.9 1c.4.2.8.3 1.3.3s.9 0 1.3-.2.7-.4 1.1-.8l1.4 1.5c-.4.5-1 .9-1.6 1.2s-1.4.5-2.2.5Zm-2.6-6.7h4.9c0-.5-.1-1-.3-1.4s-.5-.7-.8-.9-.8-.3-1.2-.3-1.3.2-1.7.6-.7 1.1-.8 2ZM108.5 117.7v-10.9h2.4v1.3c.2-.5.5-.8 1-1.1.4-.3.9-.4 1.4-.4s1.3.2 1.8.7l-.3 2.2c-.3-.2-.5-.4-.8-.5s-.6-.1-.9-.1-.8.1-1.2.3c-.3.2-.6.5-.8 1s-.3.9-.3 1.5v6h-2.4ZM125.9 117.7l-4-10.9h2.5l2.4 6.7c0 .2.1.3.2.5s.1.4.1.5c0-.2.1-.4.2-.5 0-.2.1-.3.2-.5l2.3-6.7h2.4l-4 10.9zM138.9 117.9q-2.25 0-3.6-1.5c-.9-1-1.3-2.4-1.3-4.2s.2-2.2.6-3 1-1.5 1.7-2 1.6-.7 2.6-.7 1.9.2 2.6.7 1.3 1.1 1.7 2c.4.8.6 1.9.6 3s-.2 2.2-.6 3c-.4.9-1 1.5-1.7 2s-1.6.7-2.6.7m0-2.2q1.2 0 1.8-.9c.4-.6.7-1.4.7-2.5s-.2-1.9-.7-2.5c-.4-.6-1.1-.9-1.8-.9s-1.4.3-1.8.9-.7 1.5-.7 2.5.2 1.9.7 2.5c.4.6 1.1.9 1.8.9M151.4 117.9q-2.25 0-3.6-1.5c-.9-1-1.3-2.4-1.3-4.2s.2-2.2.6-3 1-1.5 1.7-2 1.6-.7 2.6-.7 1.9.2 2.6.7 1.3 1.1 1.7 2c.4.8.6 1.9.6 3s-.2 2.2-.6 3c-.4.9-1 1.5-1.7 2s-1.6.7-2.6.7m0-2.2q1.2 0 1.8-.9c.4-.6.7-1.4.7-2.5s-.2-1.9-.7-2.5c-.4-.6-1.1-.9-1.8-.9s-1.4.3-1.8.9-.7 1.5-.7 2.5.2 1.9.7 2.5c.4.6 1.1.9 1.8.9M159.2 117.7v-10.9h2.4v1.3c.2-.5.5-.8 1-1.1.4-.3.9-.4 1.4-.4s1.3.2 1.8.7l-.3 2.2c-.3-.2-.5-.4-.8-.5s-.6-.1-.9-.1-.8.1-1.2.3c-.3.2-.6.5-.8 1s-.3.9-.3 1.5v6h-2.4ZM177.6 117.9q-2.1 0-3.3-1.5t-1.2-4.2c0-2.7.2-2.1.6-3s.9-1.5 1.6-2 1.5-.7 2.4-.7 1.8.3 2.5 1v-4.2l2.4-1.1v15.3h-2.4v-.9c-.6.8-1.4 1.1-2.5 1.1Zm.4-2.2c.5 0 .9 0 1.2-.3s.7-.5.9-.8V110c-.2-.3-.5-.6-.9-.8q-.6-.3-1.2-.3-1.2 0-1.8.9c-.6.9-.6 1.4-.6 2.5s0 1.3.3 1.8.5.9.9 1.2.8.4 1.3.4ZM187.4 105.2c-.4 0-.7-.1-1-.4s-.4-.6-.4-1 .1-.7.4-1 .6-.4 1-.4.8.1 1 .4.4.6.4 1-.1.7-.4 1-.6.4-1 .4m-1.2 12.5v-10.9h2.4v10.9zM196 122.2l-1.3-2c1 0 1.8-.2 2.4-.4s1-.4 1.2-.7.4-.7.4-1.2v-1c-.6.7-1.4 1-2.5 1s-1.7-.2-2.4-.7-1.2-1.1-1.6-2c-.4-.8-.5-1.9-.5-3s.2-2.1.6-3c.4-.8.9-1.5 1.6-2s1.5-.7 2.4-.7 1 0 1.4.2.8.4 1.1.7v-.7h2.4v10.1c0 .9 0 1.7-.3 2.3-.2.6-.5 1.2-.9 1.6s-.9.7-1.6 1c-.7.2-1.4.4-2.4.4Zm.6-6.5q.6 0 1.2-.3c.6-.3.7-.5.9-.8V110c-.2-.3-.5-.6-.9-.8s-.8-.3-1.1-.3c-.8 0-1.5.3-1.9.9s-.7 1.4-.7 2.5.1 1.3.3 1.8q.3.75.9 1.2c.4.3.8.4 1.3.4M206 105.2c-.4 0-.7-.1-1-.4s-.4-.6-.4-1 .1-.7.4-1 .6-.4 1-.4.8.1 1 .4.4.6.4 1-.1.7-.4 1-.6.4-1 .4m-1.2 12.5v-10.9h2.4v10.9zM214 117.9c-.8 0-1.4-.2-1.9-.7s-.6-1.2-.6-2.1v-6.3h-1.6v-2.1h1.6v-3.3l2.4-1.1v4.5h2.5v2.1h-2.5v5.7c0 .4 0 .7.2.9s.4.3.7.3c.5 0 1.1-.2 1.7-.5l-.3 2.1c-.3.2-.7.3-1.1.4s-.8.1-1.2.1ZM222.5 117.9c-1.2 0-2.1-.3-2.8-1-.7-.6-1-1.5-1-2.6s.2-1.4.5-1.9q.45-.75 1.5-1.2c.6-.3 1.4-.4 2.2-.4s1 0 1.4.1.9.2 1.2.4v-.7c0-.7-.2-1.2-.5-1.5-.4-.3-.9-.5-1.6-.5s-1.1 0-1.6.3c-.6.2-1.1.5-1.6.8l-.7-1.9c.6-.4 1.3-.7 2-.9s1.5-.3 2.2-.3c1.4 0 2.4.3 3.1 1s1 1.7 1 3v7.1h-2.3v-.9c-.4.4-.8.7-1.3.9s-1.1.3-1.6.3Zm.5-2c.5 0 .9 0 1.3-.3.4-.2.8-.5 1.2-.8v-1.5c-.3-.2-.7-.3-1.1-.4-.4 0-.8-.1-1.2-.1-.7 0-1.3.1-1.7.4q-.6.45-.6 1.2c0 .75.2.9.5 1.1.4.3.8.4 1.5.4ZM231.4 117.7v-14.2l2.4-1.1v15.3zM241.9 117.9c-1 0-1.9-.2-2.7-.7-.7-.5-1.3-1.1-1.7-2q-.6-1.35-.6-3c0-1.65.2-2.2.6-3s1-1.5 1.7-1.9 1.6-.7 2.6-.7 1.6.2 2.3.6 1.3.9 1.7 1.7.6 1.7.6 2.9v1.5h-7.2c0 .6.2 1 .4 1.4s.5.7.9 1c.4.2.8.3 1.3.3s.9 0 1.3-.2.7-.4 1.1-.8l1.4 1.5c-.4.5-1 .9-1.6 1.2s-1.4.5-2.2.5Zm-2.6-6.7h4.9c0-.5-.1-1-.3-1.4s-.5-.7-.8-.9-.8-.3-1.2-.3-1.3.2-1.7.6-.7 1.1-.8 2ZM255.1 117.7v-10.9h2.4v1.3c.2-.5.5-.8 1-1.1.4-.3.9-.4 1.4-.4s1.3.2 1.8.7l-.3 2.2c-.3-.2-.5-.4-.8-.5s-.6-.1-.9-.1-.8.1-1.2.3c-.3.2-.6.5-.8 1s-.3.9-.3 1.5v6H255ZM267.9 117.9c-1 0-1.9-.2-2.7-.7-.7-.5-1.3-1.1-1.7-2q-.6-1.35-.6-3c0-1.65.2-2.2.6-3s1-1.5 1.7-1.9 1.6-.7 2.6-.7 1.6.2 2.3.6 1.3.9 1.7 1.7.6 1.7.6 2.9v1.5h-7.2c0 .6.2 1 .4 1.4s.5.7.9 1c.4.2.8.3 1.3.3s.9 0 1.3-.2.7-.4 1.1-.8l1.4 1.5c-.4.5-1 .9-1.6 1.2s-1.4.5-2.2.5Zm-2.6-6.7h4.9c0-.5-.1-1-.3-1.4s-.5-.7-.8-.9-.8-.3-1.2-.3-1.3.2-1.7.6-.7 1.1-.8 2ZM280.1 117.9c-1 0-1.8-.2-2.5-.7s-1.3-1.1-1.6-2-.6-1.9-.6-3 .2-2.2.6-3 .9-1.5 1.7-2c.7-.5 1.6-.7 2.6-.7s1.9.2 2.7.7c.7.5 1.2 1.2 1.6 2.2l-2.3.8c-.2-.5-.4-.8-.8-1.1-.3-.2-.7-.4-1.2-.4-.8 0-1.3.3-1.8.9s-.6 1.5-.6 2.5.2 1.9.6 2.5 1 .9 1.7.9.9-.1 1.3-.4.6-.7.8-1.2l2.3.7c-.3 1-.8 1.8-1.6 2.4-.7.5-1.7.8-2.8.8ZM287.5 117.7v-14.2l2.4-1.1v5.6c.3-.4.8-.8 1.2-1 .5-.2 1-.3 1.6-.3.9 0 1.6.2 2.2.5s1 .9 1.3 1.6.4 1.5.4 2.4v6.6h-2.4v-6.2c0-.9-.2-1.5-.5-2s-.9-.7-1.6-.7-1.3.2-1.7.7c-.4.4-.6 1.1-.6 2v6.2h-2.4ZM303 117.9c-.8 0-1.4-.2-1.9-.7s-.6-1.2-.6-2.1v-6.3h-1.6v-2.1h1.6v-3.3l2.4-1.1v4.5h2.5v2.1h-2.5v5.7c0 .4 0 .7.2.9s.4.3.7.3c.5 0 1.1-.2 1.7-.5l-.3 2.1c-.3.2-.7.3-1.1.4s-.8.1-1.2.1ZM311.6 117.9c-.8 0-1.6-.2-2.3-.5-.8-.4-1.4-.8-1.8-1.4l1.6-1.4c.4.4.8.7 1.3.9s.9.3 1.4.3 1-.1 1.3-.3.5-.5.5-.9 0-.4-.2-.6c-.1-.2-.4-.4-.7-.6-.4-.2-.8-.4-1.5-.6-1.2-.4-2.1-.9-2.6-1.5-.5-.5-.8-1.2-.8-2s.4-1.6 1.1-2.1 1.6-.8 2.8-.8 1.5.1 2.1.4c.7.3 1.2.7 1.7 1.3l-1.6 1.3c-.6-.7-1.4-1-2.3-1s-.9 0-1.1.3c-.3.2-.4.4-.4.7s.2.6.5.8.9.5 1.8.8c.8.3 1.5.6 2 .9s.9.7 1.1 1.1.4.9.4 1.5c0 1-.4 1.8-1.1 2.4q-1.05.9-3 .9ZM318.2 117.7v-1.8l5.6-6.9h-5.2v-2.1h8.2v1.7l-5.6 7h5.6v2.1zM334.4 117.9c-1 0-1.9-.2-2.7-.7-.7-.5-1.3-1.1-1.7-2q-.6-1.35-.6-3c0-1.65.2-2.2.6-3s1-1.5 1.7-1.9 1.6-.7 2.6-.7 1.6.2 2.3.6 1.3.9 1.7 1.7.6 1.7.6 2.9v1.5h-7.2c0 .6.2 1 .4 1.4s.5.7.9 1c.4.2.8.3 1.3.3s.9 0 1.3-.2.7-.4 1.1-.8l1.4 1.5c-.4.5-1 .9-1.6 1.2s-1.4.5-2.2.5Zm-2.6-6.7h4.9c0-.5-.1-1-.3-1.4s-.5-.7-.8-.9-.8-.3-1.2-.3-1.3.2-1.7.6-.7 1.1-.8 2ZM342 117.7v-14.2l2.4-1.1v7.8l3.2-3.3h2.8l-3 3.1 4 7.8h-2.6l-3.2-6.1-1.2 1.3v4.8H342ZM357.9 117.9c-1 0-1.9-.2-2.7-.7-.7-.5-1.3-1.1-1.7-2q-.6-1.35-.6-3c0-1.65.2-2.2.6-3s1-1.5 1.7-1.9 1.6-.7 2.6-.7 1.6.2 2.3.6 1.3.9 1.7 1.7.6 1.7.6 2.9v1.5h-7.2c0 .6.2 1 .4 1.4s.5.7.9 1c.4.2.8.3 1.3.3s.9 0 1.3-.2.7-.4 1.1-.8l1.4 1.5c-.4.5-1 .9-1.6 1.2s-1.4.5-2.2.5Zm-2.6-6.7h4.9c0-.5-.1-1-.3-1.4s-.5-.7-.8-.9-.8-.3-1.2-.3-1.3.2-1.7.6-.7 1.1-.8 2ZM365.6 117.7v-10.9h2.4v1.3c.2-.5.5-.8 1-1.1.4-.3.9-.4 1.4-.4s1.3.2 1.8.7l-.3 2.2c-.3-.2-.5-.4-.8-.5s-.6-.1-.9-.1-.8.1-1.2.3c-.3.2-.6.5-.8 1s-.3.9-.3 1.5v6h-2.4ZM374.5 117.7v-14.2l2.4-1.1v5.6c.3-.4.8-.8 1.2-1 .5-.2 1-.3 1.6-.3.9 0 1.6.2 2.2.5s1 .9 1.3 1.6.4 1.5.4 2.4v6.6h-2.4v-6.2c0-.9-.2-1.5-.5-2s-.9-.7-1.6-.7-1.3.2-1.7.7c-.4.4-.6 1.1-.6 2v6.2h-2.4ZM391.7 117.9c-1 0-1.9-.2-2.7-.7-.7-.5-1.3-1.1-1.7-2q-.6-1.35-.6-3c0-1.65.2-2.2.6-3s1-1.5 1.7-1.9 1.6-.7 2.6-.7 1.6.2 2.3.6 1.3.9 1.7 1.7.6 1.7.6 2.9v1.5H389c0 .6.2 1 .4 1.4s.5.7.9 1c.4.2.8.3 1.3.3s.9 0 1.3-.2.7-.4 1.1-.8l1.4 1.5c-.4.5-1 .9-1.6 1.2s-1.4.5-2.2.5Zm-2.5-6.7h4.9c0-.5-.1-1-.3-1.4s-.5-.7-.8-.9-.8-.3-1.2-.3-1.3.2-1.7.6-.7 1.1-.8 2ZM400.6 105.2c-.4 0-.7-.1-1-.4s-.4-.6-.4-1 .1-.7.4-1 .6-.4 1-.4.8.1 1 .4.4.6.4 1-.1.7-.4 1-.6.4-1 .4m-1.2 12.5v-10.9h2.4v10.9zM409.4 117.9q-2.1 0-3.3-1.5t-1.2-4.2c0-2.7.2-2.1.6-3s.9-1.5 1.6-2 1.5-.7 2.4-.7 1.8.3 2.5 1v-4.2l2.4-1.1v15.3H412v-.9c-.6.8-1.4 1.1-2.5 1.1Zm.4-2.2c.5 0 .9 0 1.2-.3s.7-.5.9-.8V110c-.2-.3-.5-.6-.9-.8q-.6-.3-1.2-.3-1.2 0-1.8.9c-.6.9-.6 1.4-.6 2.5s0 1.3.3 1.8.5.9.9 1.2.8.4 1.3.4ZM418.8 117.9c-.5 0-.9-.2-1.2-.5s-.5-.7-.5-1.2.2-.8.5-1.1.7-.5 1.2-.5.9.2 1.2.5.5.7.5 1.1-.2.8-.5 1.2c-.3.3-.7.5-1.2.5"/></g></svg>