<svg xmlns="http://www.w3.org/2000/svg" viewBox="0 0 100 96"><title>CDAC</title><defs><clipPath id="cp1" clipPathUnits="userSpaceOnUse"><path d="M50.21 95.51c-27.26 0-49.3-21.2-49.3-47.43C.91 21.86 22.95.66 50.21.66s49.3 21.2 49.3 47.42c0 26.23-22.04 47.43-49.3 47.43"/></clipPath><clipPath id="cp2" clipPathUnits="userSpaceOnUse"><path d="M50.21 95.51c-27.26 0-49.3-21.2-49.3-47.43C.91 21.86 22.95.66 50.21.66s49.3 21.2 49.3 47.42c0 26.23-22.04 47.43-49.3 47.43"/></clipPath><clipPath id="cp3" clipPathUnits="userSpaceOnUse"><path d="M50.21 95.51c-27.26 0-49.3-21.2-49.3-47.43C.91 21.86 22.95.66 50.21.66s49.3 21.2 49.3 47.42c0 26.23-22.04 47.43-49.3 47.43"/></clipPath><clipPath id="cp4" clipPathUnits="userSpaceOnUse"><path d="M50.21 95.51c-27.26 0-49.3-21.2-49.3-47.43C.91 21.86 22.95.66 50.21.66s49.3 21.2 49.3 47.42c0 26.23-22.04 47.43-49.3 47.43"/></clipPath><clipPath id="cp5" clipPathUnits="userSpaceOnUse"><path d="M50.21 95.51c-27.26 0-49.3-21.2-49.3-47.43C.91 21.86 22.95.66 50.21.66s49.3 21.2 49.3 47.42c0 26.23-22.04 47.43-49.3 47.43"/></clipPath><clipPath id="cp6" clipPathUnits="userSpaceOnUse"><path d="M50.21 95.51c-27.26 0-49.3-21.2-49.3-47.43C.91 21.86 22.95.66 50.21.66s49.3 21.2 49.3 47.42c0 26.23-22.04 47.43-49.3 47.43"/></clipPath><clipPath id="cp7" clipPathUnits="userSpaceOnUse"><path d="M50.21 95.51c-27.26 0-49.3-21.2-49.3-47.43C.91 21.86 22.95.66 50.21.66s49.3 21.2 49.3 47.42c0 26.23-22.04 47.43-49.3 47.43"/></clipPath><clipPath id="cp8" clipPathUnits="userSpaceOnUse"><path d="M50.21 95.51c-27.26 0-49.3-21.2-49.3-47.43C.91 21.86 22.95.66 50.21.66s49.3 21.2 49.3 47.42c0 26.23-22.04 47.43-49.3 47.43"/></clipPath><clipPath id="cp9" clipPathUnits="userSpaceOnUse"><path d="M50.21 95.51c-27.26 0-49.3-21.2-49.3-47.43C.91 21.86 22.95.66 50.21.66s49.3 21.2 49.3 47.42c0 26.23-22.04 47.43-49.3 47.43"/></clipPath><clipPath id="cp10" clipPathUnits="userSpaceOnUse"><path d="M50.21 95.51c-27.26 0-49.3-21.2-49.3-47.43C.91 21.86 22.95.66 50.21.66s49.3 21.2 49.3 47.42c0 26.23-22.04 47.43-49.3 47.43"/></clipPath><clipPath id="cp11" clipPathUnits="userSpaceOnUse"><path d="M50.21 95.51c-27.26 0-49.3-21.2-49.3-47.43C.91 21.86 22.95.66 50.21.66s49.3 21.2 49.3 47.42c0 26.23-22.04 47.43-49.3 47.43"/></clipPath><clipPath id="cp12" clipPathUnits="userSpaceOnUse"><path d="M50.21 95.51c-27.26 0-49.3-21.2-49.3-47.43C.91 21.86 22.95.66 50.21.66s49.3 21.2 49.3 47.42c0 26.23-22.04 47.43-49.3 47.43"/></clipPath><clipPath id="cp13" clipPathUnits="userSpaceOnUse"><path d="M50.21 95.51c-27.26 0-49.3-21.2-49.3-47.43C.91 21.86 22.95.66 50.21.66s49.3 21.2 49.3 47.42c0 26.23-22.04 47.43-49.3 47.43"/></clipPath><clipPath id="cp14" clipPathUnits="userSpaceOnUse"><path d="M50.21 95.51c-27.26 0-49.3-21.2-49.3-47.43C.91 21.86 22.95.66 50.21.66s49.3 21.2 49.3 47.42c0 26.23-22.04 47.43-49.3 47.43"/></clipPath><clipPath id="cp15" clipPathUnits="userSpaceOnUse"><path d="M50.21 95.51c-27.26 0-49.3-21.2-49.3-47.43C.91 21.86 22.95.66 50.21.66s49.3 21.2 49.3 47.42c0 26.23-22.04 47.43-49.3 47.43"/></clipPath><clipPath id="cp16" clipPathUnits="userSpaceOnUse"><path d="M50.21 95.51c-27.26 0-49.3-21.2-49.3-47.43C.91 21.86 22.95.66 50.21.66s49.3 21.2 49.3 47.42c0 26.23-22.04 47.43-49.3 47.43"/></clipPath><clipPath id="cp17" clipPathUnits="userSpaceOnUse"><path d="M50.21 95.51c-27.26 0-49.3-21.2-49.3-47.43C.91 21.86 22.95.66 50.21.66s49.3 21.2 49.3 47.42c0 26.23-22.04 47.43-49.3 47.43"/></clipPath><clipPath id="cp18" clipPathUnits="userSpaceOnUse"><path d="M50.21 95.51c-27.26 0-49.3-21.2-49.3-47.43C.91 21.86 22.95.66 50.21.66s49.3 21.2 49.3 47.42c0 26.23-22.04 47.43-49.3 47.43"/></clipPath><clipPath id="cp19" clipPathUnits="userSpaceOnUse"><path d="M50.21 95.51c-27.26 0-49.3-21.2-49.3-47.43C.91 21.86 22.95.66 50.21.66s49.3 21.2 49.3 47.42c0 26.23-22.04 47.43-49.3 47.43"/></clipPath><clipPath id="cp20" clipPathUnits="userSpaceOnUse"><path d="M50.21 95.51c-27.26 0-49.3-21.2-49.3-47.43C.91 21.86 22.95.66 50.21.66s49.3 21.2 49.3 47.42c0 26.23-22.04 47.43-49.3 47.43"/></clipPath><clipPath id="cp21" clipPathUnits="userSpaceOnUse"><path d="M50.21 95.51c-27.26 0-49.3-21.2-49.3-47.43C.91 21.86 22.95.66 50.21.66s49.3 21.2 49.3 47.42c0 26.23-22.04 47.43-49.3 47.43"/></clipPath><clipPath id="cp22" clipPathUnits="userSpaceOnUse"><path d="M50.21 95.51c-27.26 0-49.3-21.2-49.3-47.43C.91 21.86 22.95.66 50.21.66s49.3 21.2 49.3 47.42c0 26.23-22.04 47.43-49.3 47.43"/></clipPath><clipPath id="cp23" clipPathUnits="userSpaceOnUse"><path d="M50.21 95.51c-27.26 0-49.3-21.2-49.3-47.43C.91 21.86 22.95.66 50.21.66s49.3 21.2 49.3 47.42c0 26.23-22.04 47.43-49.3 47.43"/></clipPath><clipPath id="cp24" clipPathUnits="userSpaceOnUse"><path d="M50.21 95.51c-27.26 0-49.3-21.2-49.3-47.43C.91 21.86 22.95.66 50.21.66s49.3 21.2 49.3 47.42c0 26.23-22.04 47.43-49.3 47.43"/></clipPath><clipPath id="cp25" clipPathUnits="userSpaceOnUse"><path d="M50.21 95.51c-27.26 0-49.3-21.2-49.3-47.43C.91 21.86 22.95.66 50.21.66s49.3 21.2 49.3 47.42c0 26.23-22.04 47.43-49.3 47.43"/></clipPath><clipPath id="cp26" clipPathUnits="userSpaceOnUse"><path d="M50.21 95.51c-27.26 0-49.3-21.2-49.3-47.43C.91 21.86 22.95.66 50.21.66s49.3 21.2 49.3 47.42c0 26.23-22.04 47.43-49.3 47.43"/></clipPath><clipPath id="cp27" clipPathUnits="userSpaceOnUse"><path d="M50.21 95.51c-27.26 0-49.3-21.2-49.3-47.43C.91 21.86 22.95.66 50.21.66s49.3 21.2 49.3 47.42c0 26.23-22.04 47.43-49.3 47.43"/></clipPath><clipPath id="cp28" clipPathUnits="userSpaceOnUse"><path d="M50.21 95.51c-27.26 0-49.3-21.2-49.3-47.43C.91 21.86 22.95.66 50.21.66s49.3 21.2 49.3 47.42c0 26.23-22.04 47.43-49.3 47.43"/></clipPath><clipPath id="cp29" clipPathUnits="userSpaceOnUse"><path d="M50.21 95.51c-27.26 0-49.3-21.2-49.3-47.43C.91 21.86 22.95.66 50.21.66s49.3 21.2 49.3 47.42c0 26.23-22.04 47.43-49.3 47.43"/></clipPath><clipPath id="cp30" clipPathUnits="userSpaceOnUse"><path d="M50.21 95.51c-27.26 0-49.3-21.2-49.3-47.43C.91 21.86 22.95.66 50.21.66s49.3 21.2 49.3 47.42c0 26.23-22.04 47.43-49.3 47.43"/></clipPath><clipPath id="cp31" clipPathUnits="userSpaceOnUse"><path d="M50.21 95.51c-27.26 0-49.3-21.2-49.3-47.43C.91 21.86 22.95.66 50.21.66s49.3 21.2 49.3 47.42c0 26.23-22.04 47.43-49.3 47.43"/></clipPath><clipPath id="cp32" clipPathUnits="userSpaceOnUse"><path d="M50.21 95.51c-27.26 0-49.3-21.2-49.3-47.43C.91 21.86 22.95.66 50.21.66s49.3 21.2 49.3 47.42c0 26.23-22.04 47.43-49.3 47.43"/></clipPath><clipPath id="cp33" clipPathUnits="userSpaceOnUse"><path d="M50.21 95.51c-27.26 0-49.3-21.2-49.3-47.43C.91 21.86 22.95.66 50.21.66s49.3 21.2 49.3 47.42c0 26.23-22.04 47.43-49.3 47.43"/></clipPath><clipPath id="cp34" clipPathUnits="userSpaceOnUse"><path d="M50.21 95.51c-27.26 0-49.3-21.2-49.3-47.43C.91 21.86 22.95.66 50.21.66s49.3 21.2 49.3 47.42c0 26.23-22.04 47.43-49.3 47.43"/></clipPath><clipPath id="cp35" clipPathUnits="userSpaceOnUse"><path d="M50.21 95.51c-27.26 0-49.3-21.2-49.3-47.43C.91 21.86 22.95.66 50.21.66s49.3 21.2 49.3 47.42c0 26.23-22.04 47.43-49.3 47.43"/></clipPath><clipPath id="cp36" clipPathUnits="userSpaceOnUse"><path d="M50.21 95.51c-27.26 0-49.3-21.2-49.3-47.43C.91 21.86 22.95.66 50.21.66s49.3 21.2 49.3 47.42c0 26.23-22.04 47.43-49.3 47.43"/></clipPath><clipPath id="cp37" clipPathUnits="userSpaceOnUse"><path d="M50.21 95.51c-27.26 0-49.3-21.2-49.3-47.43C.91 21.86 22.95.66 50.21.66s49.3 21.2 49.3 47.42c0 26.23-22.04 47.43-49.3 47.43"/></clipPath><clipPath id="cp38" clipPathUnits="userSpaceOnUse"><path d="M50.21 95.51c-27.26 0-49.3-21.2-49.3-47.43C.91 21.86 22.95.66 50.21.66s49.3 21.2 49.3 47.42c0 26.23-22.04 47.43-49.3 47.43"/></clipPath><clipPath id="cp39" clipPathUnits="userSpaceOnUse"><path d="M50.21 95.51c-27.26 0-49.3-21.2-49.3-47.43C.91 21.86 22.95.66 50.21.66s49.3 21.2 49.3 47.42c0 26.23-22.04 47.43-49.3 47.43"/></clipPath><clipPath id="cp40" clipPathUnits="userSpaceOnUse"><path d="M50.21 95.51c-27.26 0-49.3-21.2-49.3-47.43C.91 21.86 22.95.66 50.21.66s49.3 21.2 49.3 47.42c0 26.23-22.04 47.43-49.3 47.43"/></clipPath><clipPath id="cp41" clipPathUnits="userSpaceOnUse"><path d="M50.21 95.51c-27.26 0-49.3-21.2-49.3-47.43C.91 21.86 22.95.66 50.21.66s49.3 21.2 49.3 47.42c0 26.23-22.04 47.43-49.3 47.43"/></clipPath><clipPath id="cp42" clipPathUnits="userSpaceOnUse"><path d="M50.21 95.51c-27.26 0-49.3-21.2-49.3-47.43C.91 21.86 22.95.66 50.21.66s49.3 21.2 49.3 47.42c0 26.23-22.04 47.43-49.3 47.43"/></clipPath><clipPath id="cp43" clipPathUnits="userSpaceOnUse"><path d="M50.21 95.51c-27.26 0-49.3-21.2-49.3-47.43C.91 21.86 22.95.66 50.21.66s49.3 21.2 49.3 47.42c0 26.23-22.04 47.43-49.3 47.43"/></clipPath><clipPath id="cp44" clipPathUnits="userSpaceOnUse"><path d="M50.21 95.51c-27.26 0-49.3-21.2-49.3-47.43C.91 21.86 22.95.66 50.21.66s49.3 21.2 49.3 47.42c0 26.23-22.04 47.43-49.3 47.43"/></clipPath><clipPath id="cp45" clipPathUnits="userSpaceOnUse"><path d="M50.21 95.51c-27.26 0-49.3-21.2-49.3-47.43C.91 21.86 22.95.66 50.21.66s49.3 21.2 49.3 47.42c0 26.23-22.04 47.43-49.3 47.43"/></clipPath><clipPath id="cp46" clipPathUnits="userSpaceOnUse"><path d="M50.21 95.51c-27.26 0-49.3-21.2-49.3-47.43C.91 21.86 22.95.66 50.21.66s49.3 21.2 49.3 47.42c0 26.23-22.04 47.43-49.3 47.43"/></clipPath><clipPath id="cp47" clipPathUnits="userSpaceOnUse"><path d="M50.21 95.51c-27.26 0-49.3-21.2-49.3-47.43C.91 21.86 22.95.66 50.21.66s49.3 21.2 49.3 47.42c0 26.23-22.04 47.43-49.3 47.43"/></clipPath><clipPath id="cp48" clipPathUnits="userSpaceOnUse"><path d="M50.21 95.51c-27.26 0-49.3-21.2-49.3-47.43C.91 21.86 22.95.66 50.21.66s49.3 21.2 49.3 47.42c0 26.23-22.04 47.43-49.3 47.43"/></clipPath><clipPath id="cp49" clipPathUnits="userSpaceOnUse"><path d="M50.21 95.51c-27.26 0-49.3-21.2-49.3-47.43C.91 21.86 22.95.66 50.21.66s49.3 21.2 49.3 47.42c0 26.23-22.04 47.43-49.3 47.43"/></clipPath><clipPath id="cp50" clipPathUnits="userSpaceOnUse"><path d="M50.21 95.51c-27.26 0-49.3-21.2-49.3-47.43C.91 21.86 22.95.66 50.21.66s49.3 21.2 49.3 47.42c0 26.23-22.04 47.43-49.3 47.43"/></clipPath><clipPath id="cp51" clipPathUnits="userSpaceOnUse"><path d="M50.21 95.51c-27.26 0-49.3-21.2-49.3-47.43C.91 21.86 22.95.66 50.21.66s49.3 21.2 49.3 47.42c0 26.23-22.04 47.43-49.3 47.43"/></clipPath><clipPath id="cp52" clipPathUnits="userSpaceOnUse"><path d="M50.21 95.51c-27.26 0-49.3-21.2-49.3-47.43C.91 21.86 22.95.66 50.21.66s49.3 21.2 49.3 47.42c0 26.23-22.04 47.43-49.3 47.43"/></clipPath><clipPath id="cp53" clipPathUnits="userSpaceOnUse"><path d="M50.21 95.51c-27.26 0-49.3-21.2-49.3-47.43C.91 21.86 22.95.66 50.21.66s49.3 21.2 49.3 47.42c0 26.23-22.04 47.43-49.3 47.43"/></clipPath><clipPath id="cp54" clipPathUnits="userSpaceOnUse"><path d="M50.21 95.51c-27.26 0-49.3-21.2-49.3-47.43C.91 21.86 22.95.66 50.21.66s49.3 21.2 49.3 47.42c0 26.23-22.04 47.43-49.3 47.43"/></clipPath><clipPath id="cp55" clipPathUnits="userSpaceOnUse"><path d="M50.21 95.51c-27.26 0-49.3-21.2-49.3-47.43C.91 21.86 22.95.66 50.21.66s49.3 21.2 49.3 47.42c0 26.23-22.04 47.43-49.3 47.43"/></clipPath><clipPath id="cp56" clipPathUnits="userSpaceOnUse"><path d="M50.21 95.51c-27.26 0-49.3-21.2-49.3-47.43C.91 21.86 22.95.66 50.21.66s49.3 21.2 49.3 47.42c0 26.23-22.04 47.43-49.3 47.43"/></clipPath><clipPath id="cp57" clipPathUnits="userSpaceOnUse"><path d="M50.21 95.51c-27.26 0-49.3-21.2-49.3-47.43C.91 21.86 22.95.66 50.21.66s49.3 21.2 49.3 47.42c0 26.23-22.04 47.43-49.3 47.43"/></clipPath><clipPath id="cp58" clipPathUnits="userSpaceOnUse"><path d="M50.21 95.51c-27.26 0-49.3-21.2-49.3-47.43C.91 21.86 22.95.66 50.21.66s49.3 21.2 49.3 47.42c0 26.23-22.04 47.43-49.3 47.43"/></clipPath><clipPath id="cp59" clipPathUnits="userSpaceOnUse"><path d="M50.21 95.51c-27.26 0-49.3-21.2-49.3-47.43C.91 21.86 22.95.66 50.21.66s49.3 21.2 49.3 47.42c0 26.23-22.04 47.43-49.3 47.43"/></clipPath><clipPath id="cp60" clipPathUnits="userSpaceOnUse"><path d="M50.21 95.51c-27.26 0-49.3-21.2-49.3-47.43C.91 21.86 22.95.66 50.21.66s49.3 21.2 49.3 47.42c0 26.23-22.04 47.43-49.3 47.43"/></clipPath><clipPath id="cp61" clipPathUnits="userSpaceOnUse"><path d="M50.21 95.51c-27.26 0-49.3-21.2-49.3-47.43C.91 21.86 22.95.66 50.21.66s49.3 21.2 49.3 47.42c0 26.23-22.04 47.43-49.3 47.43"/></clipPath><clipPath id="cp62" clipPathUnits="userSpaceOnUse"><path d="M50.21 95.51c-27.26 0-49.3-21.2-49.3-47.43C.91 21.86 22.95.66 50.21.66s49.3 21.2 49.3 47.42c0 26.23-22.04 47.43-49.3 47.43"/></clipPath><clipPath id="cp63" clipPathUnits="userSpaceOnUse"><path d="M50.21 95.51c-27.26 0-49.3-21.2-49.3-47.43C.91 21.86 22.95.66 50.21.66s49.3 21.2 49.3 47.42c0 26.23-22.04 47.43-49.3 47.43"/></clipPath><clipPath id="cp64" clipPathUnits="userSpaceOnUse"><path d="M50.21 95.51c-27.26 0-49.3-21.2-49.3-47.43C.91 21.86 22.95.66 50.21.66s49.3 21.2 49.3 47.42c0 26.23-22.04 47.43-49.3 47.43"/></clipPath><clipPath id="cp65" clipPathUnits="userSpaceOnUse"><path d="M50.21 95.51c-27.26 0-49.3-21.2-49.3-47.43C.91 21.86 22.95.66 50.21.66s49.3 21.2 49.3 47.42c0 26.23-22.04 47.43-49.3 47.43"/></clipPath><clipPath id="cp66" clipPathUnits="userSpaceOnUse"><path d="M50.21 95.51c-27.26 0-49.3-21.2-49.3-47.43C.91 21.86 22.95.66 50.21.66s49.3 21.2 49.3 47.42c0 26.23-22.04 47.43-49.3 47.43"/></clipPath><clipPath id="cp67" clipPathUnits="userSpaceOnUse"><path d="M50.21 95.51c-27.26 0-49.3-21.2-49.3-47.43C.91 21.86 22.95.66 50.21.66s49.3 21.2 49.3 47.42c0 26.23-22.04 47.43-49.3 47.43"/></clipPath><clipPath id="cp68" clipPathUnits="userSpaceOnUse"><path d="M50.21 95.51c-27.26 0-49.3-21.2-49.3-47.43C.91 21.86 22.95.66 50.21.66s49.3 21.2 49.3 47.42c0 26.23-22.04 47.43-49.3 47.43"/></clipPath><clipPath id="cp69" clipPathUnits="userSpaceOnUse"><path d="M50.21 95.51c-27.26 0-49.3-21.2-49.3-47.43C.91 21.86 22.95.66 50.21.66s49.3 21.2 49.3 47.42c0 26.23-22.04 47.43-49.3 47.43"/></clipPath><clipPath id="cp70" clipPathUnits="userSpaceOnUse"><path d="M50.21 95.51c-27.26 0-49.3-21.2-49.3-47.43C.91 21.86 22.95.66 50.21.66s49.3 21.2 49.3 47.42c0 26.23-22.04 47.43-49.3 47.43"/></clipPath><clipPath id="cp71" clipPathUnits="userSpaceOnUse"><path d="M50.21 95.51c-27.26 0-49.3-21.2-49.3-47.43C.91 21.86 22.95.66 50.21.66s49.3 21.2 49.3 47.42c0 26.23-22.04 47.43-49.3 47.43"/></clipPath><clipPath id="cp72" clipPathUnits="userSpaceOnUse"><path d="M50.21 95.51c-27.26 0-49.3-21.2-49.3-47.43C.91 21.86 22.95.66 50.21.66s49.3 21.2 49.3 47.42c0 26.23-22.04 47.43-49.3 47.43"/></clipPath><clipPath id="cp73" clipPathUnits="userSpaceOnUse"><path d="M50.21 95.51c-27.26 0-49.3-21.2-49.3-47.43C.91 21.86 22.95.66 50.21.66s49.3 21.2 49.3 47.42c0 26.23-22.04 47.43-49.3 47.43"/></clipPath><clipPath id="cp74" clipPathUnits="userSpaceOnUse"><path d="M50.21 95.51c-27.26 0-49.3-21.2-49.3-47.43C.91 21.86 22.95.66 50.21.66s49.3 21.2 49.3 47.42c0 26.23-22.04 47.43-49.3 47.43"/></clipPath><clipPath id="cp75" clipPathUnits="userSpaceOnUse"><path d="M50.21 95.51c-27.26 0-49.3-21.2-49.3-47.43C.91 21.86 22.95.66 50.21.66s49.3 21.2 49.3 47.42c0 26.23-22.04 47.43-49.3 47.43"/></clipPath><clipPath id="cp76" clipPathUnits="userSpaceOnUse"><path d="M50.21 95.51c-27.26 0-49.3-21.2-49.3-47.43C.91 21.86 22.95.66 50.21.66s49.3 21.2 49.3 47.42c0 26.23-22.04 47.43-49.3 47.43"/></clipPath><clipPath id="cp77" clipPathUnits="userSpaceOnUse"><path d="M50.21 95.51c-27.26 0-49.3-21.2-49.3-47.43C.91 21.86 22.95.66 50.21.66s49.3 21.2 49.3 47.42c0 26.23-22.04 47.43-49.3 47.43"/></clipPath><clipPath id="cp78" clipPathUnits="userSpaceOnUse"><path d="M50.21 95.51c-27.26 0-49.3-21.2-49.3-47.43C.91 21.86 22.95.66 50.21.66s49.3 21.2 49.3 47.42c0 26.23-22.04 47.43-49.3 47.43"/></clipPath><clipPath id="cp79" clipPathUnits="userSpaceOnUse"><path d="M50.21 95.51c-27.26 0-49.3-21.2-49.3-47.43C.91 21.86 22.95.66 50.21.66s49.3 21.2 49.3 47.42c0 26.23-22.04 47.43-49.3 47.43"/></clipPath><clipPath id="cp80" clipPathUnits="userSpaceOnUse"><path d="M50.21 95.51c-27.26 0-49.3-21.2-49.3-47.43C.91 21.86 22.95.66 50.21.66s49.3 21.2 49.3 47.42c0 26.23-22.04 47.43-49.3 47.43"/></clipPath><clipPath id="cp81" clipPathUnits="userSpaceOnUse"><path d="M50.21 95.51c-27.26 0-49.3-21.2-49.3-47.43C.91 21.86 22.95.66 50.21.66s49.3 21.2 49.3 47.42c0 26.23-22.04 47.43-49.3 47.43"/></clipPath><clipPath id="cp82" clipPathUnits="userSpaceOnUse"><path d="M50.21 95.51c-27.26 0-49.3-21.2-49.3-47.43C.91 21.86 22.95.66 50.21.66s49.3 21.2 49.3 47.42c0 26.23-22.04 47.43-49.3 47.43"/></clipPath><clipPath id="cp83" clipPathUnits="userSpaceOnUse"><path d="M50.21 95.51c-27.26 0-49.3-21.2-49.3-47.43C.91 21.86 22.95.66 50.21.66s49.3 21.2 49.3 47.42c0 26.23-22.04 47.43-49.3 47.43"/></clipPath><clipPath id="cp84" clipPathUnits="userSpaceOnUse"><path d="M50.21 95.51c-27.26 0-49.3-21.2-49.3-47.43C.91 21.86 22.95.66 50.21.66s49.3 21.2 49.3 47.42c0 26.23-22.04 47.43-49.3 47.43"/></clipPath><clipPath id="cp85" clipPathUnits="userSpaceOnUse"><path d="M50.21 95.51c-27.26 0-49.3-21.2-49.3-47.43C.91 21.86 22.95.66 50.21.66s49.3 21.2 49.3 47.42c0 26.23-22.04 47.43-49.3 47.43"/></clipPath><clipPath id="cp86" clipPathUnits="userSpaceOnUse"><path d="M50.21 95.51c-27.26 0-49.3-21.2-49.3-47.43C.91 21.86 22.95.66 50.21.66s49.3 21.2 49.3 47.42c0 26.23-22.04 47.43-49.3 47.43"/></clipPath><clipPath id="cp87" clipPathUnits="userSpaceOnUse"><path d="M50.21 95.51c-27.26 0-49.3-21.2-49.3-47.43C.91 21.86 22.95.66 50.21.66s49.3 21.2 49.3 47.42c0 26.23-22.04 47.43-49.3 47.43"/></clipPath><clipPath id="cp88" clipPathUnits="userSpaceOnUse"><path d="M50.21 95.51c-27.26 0-49.3-21.2-49.3-47.43C.91 21.86 22.95.66 50.21.66s49.3 21.2 49.3 47.42c0 26.23-22.04 47.43-49.3 47.43"/></clipPath><clipPath id="cp89" clipPathUnits="userSpaceOnUse"><path d="M50.21 95.51c-27.26 0-49.3-21.2-49.3-47.43C.91 21.86 22.95.66 50.21.66s49.3 21.2 49.3 47.42c0 26.23-22.04 47.43-49.3 47.43"/></clipPath><clipPath id="cp90" clipPathUnits="userSpaceOnUse"><path d="M50.21 95.51c-27.26 0-49.3-21.2-49.3-47.43C.91 21.86 22.95.66 50.21.66s49.3 21.2 49.3 47.42c0 26.23-22.04 47.43-49.3 47.43"/></clipPath><clipPath id="cp91" clipPathUnits="userSpaceOnUse"><path d="M50.21 95.51c-27.26 0-49.3-21.2-49.3-47.43C.91 21.86 22.95.66 50.21.66s49.3 21.2 49.3 47.42c0 26.23-22.04 47.43-49.3 47.43"/></clipPath><clipPath id="cp92" clipPathUnits="userSpaceOnUse"><path d="M50.21 95.51c-27.26 0-49.3-21.2-49.3-47.43C.91 21.86 22.95.66 50.21.66s49.3 21.2 49.3 47.42c0 26.23-22.04 47.43-49.3 47.43"/></clipPath><clipPath id="cp93" clipPathUnits="userSpaceOnUse"><path d="M50.21 95.51c-27.26 0-49.3-21.2-49.3-47.43C.91 21.86 22.95.66 50.21.66s49.3 21.2 49.3 47.42c0 26.23-22.04 47.43-49.3 47.43"/></clipPath><clipPath id="cp94" clipPathUnits="userSpaceOnUse"><path d="M50.21 95.51c-27.26 0-49.3-21.2-49.3-47.43C.91 21.86 22.95.66 50.21.66s49.3 21.2 49.3 47.42c0 26.23-22.04 47.43-49.3 47.43"/></clipPath><clipPath id="cp95" clipPathUnits="userSpaceOnUse"><path d="M50.21 95.51c-27.26 0-49.3-21.2-49.3-47.43C.91 21.86 22.95.66 50.21.66s49.3 21.2 49.3 47.42c0 26.23-22.04 47.43-49.3 47.43"/></clipPath><clipPath id="cp96" clipPathUnits="userSpaceOnUse"><path d="M50.21 95.51c-27.26 0-49.3-21.2-49.3-47.43C.91 21.86 22.95.66 50.21.66s49.3 21.2 49.3 47.42c0 26.23-22.04 47.43-49.3 47.43"/></clipPath><clipPath id="cp97" clipPathUnits="userSpaceOnUse"><path d="M50.21 95.51c-27.26 0-49.3-21.2-49.3-47.43C.91 21.86 22.95.66 50.21.66s49.3 21.2 49.3 47.42c0 26.23-22.04 47.43-49.3 47.43"/></clipPath><clipPath id="cp98" clipPathUnits="userSpaceOnUse"><path d="M50.21 95.51c-27.26 0-49.3-21.2-49.3-47.43C.91 21.86 22.95.66 50.21.66s49.3 21.2 49.3 47.42c0 26.23-22.04 47.43-49.3 47.43"/></clipPath><clipPath id="cp99" clipPathUnits="userSpaceOnUse"><path d="M50.21 94.22c-26.17 0-47.33-20.5-47.33-45.88 0-25.37 21.16-45.88 47.33-45.88s47.33 20.51 47.33 45.88c0 25.38-21.16 45.88-47.33 45.88"/></clipPath><clipPath id="cp100" clipPathUnits="userSpaceOnUse"><path d="M50.21 94.22c-26.17 0-47.33-20.5-47.33-45.88 0-25.37 21.16-45.88 47.33-45.88s47.33 20.51 47.33 45.88c0 25.38-21.16 45.88-47.33 45.88"/></clipPath><clipPath id="cp101" clipPathUnits="userSpaceOnUse"><path d="M50.21 94.22c-26.17 0-47.33-20.5-47.33-45.88 0-25.37 21.16-45.88 47.33-45.88s47.33 20.51 47.33 45.88c0 25.38-21.16 45.88-47.33 45.88"/></clipPath><clipPath id="cp102" clipPathUnits="userSpaceOnUse"><path d="M50.21 94.22c-26.17 0-47.33-20.5-47.33-45.88 0-25.37 21.16-45.88 47.33-45.88s47.33 20.51 47.33 45.88c0 25.38-21.16 45.88-47.33 45.88"/></clipPath><clipPath id="cp103" clipPathUnits="userSpaceOnUse"><path d="M50.21 94.22c-26.17 0-47.33-20.5-47.33-45.88 0-25.37 21.16-45.88 47.33-45.88s47.33 20.51 47.33 45.88c0 25.38-21.16 45.88-47.33 45.88"/></clipPath><clipPath id="cp104" clipPathUnits="userSpaceOnUse"><path d="M50.21 94.22c-26.17 0-47.33-20.5-47.33-45.88 0-25.37 21.16-45.88 47.33-45.88s47.33 20.51 47.33 45.88c0 25.38-21.16 45.88-47.33 45.88"/></clipPath><clipPath id="cp105" clipPathUnits="userSpaceOnUse"><path d="M50.21 94.22c-26.17 0-47.33-20.5-47.33-45.88 0-25.37 21.16-45.88 47.33-45.88s47.33 20.51 47.33 45.88c0 25.38-21.16 45.88-47.33 45.88"/></clipPath><clipPath id="cp106" clipPathUnits="userSpaceOnUse"><path d="M50.21 94.22c-26.17 0-47.33-20.5-47.33-45.88 0-25.37 21.16-45.88 47.33-45.88s47.33 20.51 47.33 45.88c0 25.38-21.16 45.88-47.33 45.88"/></clipPath><clipPath id="cp107" clipPathUnits="userSpaceOnUse"><path d="M50.21 94.22c-26.17 0-47.33-20.5-47.33-45.88 0-25.37 21.16-45.88 47.33-45.88s47.33 20.51 47.33 45.88c0 25.38-21.16 45.88-47.33 45.88"/></clipPath><clipPath id="cp108" clipPathUnits="userSpaceOnUse"><path d="M50.21 94.22c-26.17 0-47.33-20.5-47.33-45.88 0-25.37 21.16-45.88 47.33-45.88s47.33 20.51 47.33 45.88c0 25.38-21.16 45.88-47.33 45.88"/></clipPath><clipPath id="cp109" clipPathUnits="userSpaceOnUse"><path d="M50.21 94.22c-26.17 0-47.33-20.5-47.33-45.88 0-25.37 21.16-45.88 47.33-45.88s47.33 20.51 47.33 45.88c0 25.38-21.16 45.88-47.33 45.88"/></clipPath><clipPath id="cp110" clipPathUnits="userSpaceOnUse"><path d="M50.21 94.22c-26.17 0-47.33-20.5-47.33-45.88 0-25.37 21.16-45.88 47.33-45.88s47.33 20.51 47.33 45.88c0 25.38-21.16 45.88-47.33 45.88"/></clipPath><clipPath id="cp111" clipPathUnits="userSpaceOnUse"><path d="M50.21 94.22c-26.17 0-47.33-20.5-47.33-45.88 0-25.37 21.16-45.88 47.33-45.88s47.33 20.51 47.33 45.88c0 25.38-21.16 45.88-47.33 45.88"/></clipPath><clipPath id="cp112" clipPathUnits="userSpaceOnUse"><path d="M50.21 94.22c-26.17 0-47.33-20.5-47.33-45.88 0-25.37 21.16-45.88 47.33-45.88s47.33 20.51 47.33 45.88c0 25.38-21.16 45.88-47.33 45.88"/></clipPath><clipPath id="cp113" clipPathUnits="userSpaceOnUse"><path d="M50.21 94.22c-26.17 0-47.33-20.5-47.33-45.88 0-25.37 21.16-45.88 47.33-45.88s47.33 20.51 47.33 45.88c0 25.38-21.16 45.88-47.33 45.88"/></clipPath><clipPath id="cp114" clipPathUnits="userSpaceOnUse"><path d="M50.21 94.22c-26.17 0-47.33-20.5-47.33-45.88 0-25.37 21.16-45.88 47.33-45.88s47.33 20.51 47.33 45.88c0 25.38-21.16 45.88-47.33 45.88"/></clipPath><clipPath id="cp115" clipPathUnits="userSpaceOnUse"><path d="M50.21 94.22c-26.17 0-47.33-20.5-47.33-45.88 0-25.37 21.16-45.88 47.33-45.88s47.33 20.51 47.33 45.88c0 25.38-21.16 45.88-47.33 45.88"/></clipPath><clipPath id="cp116" clipPathUnits="userSpaceOnUse"><path d="M50.21 94.22c-26.17 0-47.33-20.5-47.33-45.88 0-25.37 21.16-45.88 47.33-45.88s47.33 20.51 47.33 45.88c0 25.38-21.16 45.88-47.33 45.88"/></clipPath><clipPath id="cp117" clipPathUnits="userSpaceOnUse"><path d="M50.21 94.22c-26.17 0-47.33-20.5-47.33-45.88 0-25.37 21.16-45.88 47.33-45.88s47.33 20.51 47.33 45.88c0 25.38-21.16 45.88-47.33 45.88"/></clipPath><clipPath id="cp118" clipPathUnits="userSpaceOnUse"><path d="M50.21 94.22c-26.17 0-47.33-20.5-47.33-45.88 0-25.37 21.16-45.88 47.33-45.88s47.33 20.51 47.33 45.88c0 25.38-21.16 45.88-47.33 45.88"/></clipPath><clipPath id="cp119" clipPathUnits="userSpaceOnUse"><path d="M50.21 94.22c-26.17 0-47.33-20.5-47.33-45.88 0-25.37 21.16-45.88 47.33-45.88s47.33 20.51 47.33 45.88c0 25.38-21.16 45.88-47.33 45.88"/></clipPath><clipPath id="cp120" clipPathUnits="userSpaceOnUse"><path d="M50.21 94.22c-26.17 0-47.33-20.5-47.33-45.88 0-25.37 21.16-45.88 47.33-45.88s47.33 20.51 47.33 45.88c0 25.38-21.16 45.88-47.33 45.88"/></clipPath><clipPath id="cp121" clipPathUnits="userSpaceOnUse"><path d="M50.21 94.22c-26.17 0-47.33-20.5-47.33-45.88 0-25.37 21.16-45.88 47.33-45.88s47.33 20.51 47.33 45.88c0 25.38-21.16 45.88-47.33 45.88"/></clipPath><clipPath id="cp122" clipPathUnits="userSpaceOnUse"><path d="M50.21 94.22c-26.17 0-47.33-20.5-47.33-45.88 0-25.37 21.16-45.88 47.33-45.88s47.33 20.51 47.33 45.88c0 25.38-21.16 45.88-47.33 45.88"/></clipPath><clipPath id="cp123" clipPathUnits="userSpaceOnUse"><path d="M50.21 94.22c-26.17 0-47.33-20.5-47.33-45.88 0-25.37 21.16-45.88 47.33-45.88s47.33 20.51 47.33 45.88c0 25.38-21.16 45.88-47.33 45.88"/></clipPath><clipPath id="cp124" clipPathUnits="userSpaceOnUse"><path d="M50.21 94.22c-26.17 0-47.33-20.5-47.33-45.88 0-25.37 21.16-45.88 47.33-45.88s47.33 20.51 47.33 45.88c0 25.38-21.16 45.88-47.33 45.88"/></clipPath><clipPath id="cp125" clipPathUnits="userSpaceOnUse"><path d="M50.21 94.22c-26.17 0-47.33-20.5-47.33-45.88 0-25.37 21.16-45.88 47.33-45.88s47.33 20.51 47.33 45.88c0 25.38-21.16 45.88-47.33 45.88"/></clipPath><clipPath id="cp126" clipPathUnits="userSpaceOnUse"><path d="M50.21 94.22c-26.17 0-47.33-20.5-47.33-45.88 0-25.37 21.16-45.88 47.33-45.88s47.33 20.51 47.33 45.88c0 25.38-21.16 45.88-47.33 45.88"/></clipPath><clipPath id="cp127" clipPathUnits="userSpaceOnUse"><path d="M50.21 94.22c-26.17 0-47.33-20.5-47.33-45.88 0-25.37 21.16-45.88 47.33-45.88s47.33 20.51 47.33 45.88c0 25.38-21.16 45.88-47.33 45.88"/></clipPath><clipPath id="cp128" clipPathUnits="userSpaceOnUse"><path d="M50.21 94.22c-26.17 0-47.33-20.5-47.33-45.88 0-25.37 21.16-45.88 47.33-45.88s47.33 20.51 47.33 45.88c0 25.38-21.16 45.88-47.33 45.88"/></clipPath><clipPath id="cp129" clipPathUnits="userSpaceOnUse"><path d="M50.21 94.22c-26.17 0-47.33-20.5-47.33-45.88 0-25.37 21.16-45.88 47.33-45.88s47.33 20.51 47.33 45.88c0 25.38-21.16 45.88-47.33 45.88"/></clipPath><clipPath id="cp130" clipPathUnits="userSpaceOnUse"><path d="M50.21 94.22c-26.17 0-47.33-20.5-47.33-45.88 0-25.37 21.16-45.88 47.33-45.88s47.33 20.51 47.33 45.88c0 25.38-21.16 45.88-47.33 45.88"/></clipPath><clipPath id="cp131" clipPathUnits="userSpaceOnUse"><path d="M50.21 94.22c-26.17 0-47.33-20.5-47.33-45.88 0-25.37 21.16-45.88 47.33-45.88s47.33 20.51 47.33 45.88c0 25.38-21.16 45.88-47.33 45.88"/></clipPath><clipPath id="cp132" clipPathUnits="userSpaceOnUse"><path d="M50.21 94.22c-26.17 0-47.33-20.5-47.33-45.88 0-25.37 21.16-45.88 47.33-45.88s47.33 20.51 47.33 45.88c0 25.38-21.16 45.88-47.33 45.88"/></clipPath><clipPath id="cp133" clipPathUnits="userSpaceOnUse"><path d="M50.21 94.22c-26.17 0-47.33-20.5-47.33-45.88 0-25.37 21.16-45.88 47.33-45.88s47.33 20.51 47.33 45.88c0 25.38-21.16 45.88-47.33 45.88"/></clipPath><clipPath id="cp134" clipPathUnits="userSpaceOnUse"><path d="M50.21 94.22c-26.17 0-47.33-20.5-47.33-45.88 0-25.37 21.16-45.88 47.33-45.88s47.33 20.51 47.33 45.88c0 25.38-21.16 45.88-47.33 45.88"/></clipPath><clipPath id="cp135" clipPathUnits="userSpaceOnUse"><path d="M50.21 94.22c-26.17 0-47.33-20.5-47.33-45.88 0-25.37 21.16-45.88 47.33-45.88s47.33 20.51 47.33 45.88c0 25.38-21.16 45.88-47.33 45.88"/></clipPath><clipPath id="cp136" clipPathUnits="userSpaceOnUse"><path d="M50.21 94.22c-26.17 0-47.33-20.5-47.33-45.88 0-25.37 21.16-45.88 47.33-45.88s47.33 20.51 47.33 45.88c0 25.38-21.16 45.88-47.33 45.88"/></clipPath><clipPath id="cp137" clipPathUnits="userSpaceOnUse"><path d="M50.21 94.22c-26.17 0-47.33-20.5-47.33-45.88 0-25.37 21.16-45.88 47.33-45.88s47.33 20.51 47.33 45.88c0 25.38-21.16 45.88-47.33 45.88"/></clipPath><clipPath id="cp138" clipPathUnits="userSpaceOnUse"><path d="M50.21 94.22c-26.17 0-47.33-20.5-47.33-45.88 0-25.37 21.16-45.88 47.33-45.88s47.33 20.51 47.33 45.88c0 25.38-21.16 45.88-47.33 45.88"/></clipPath><clipPath id="cp139" clipPathUnits="userSpaceOnUse"><path d="M50.21 94.22c-26.17 0-47.33-20.5-47.33-45.88 0-25.37 21.16-45.88 47.33-45.88s47.33 20.51 47.33 45.88c0 25.38-21.16 45.88-47.33 45.88"/></clipPath><clipPath id="cp140" clipPathUnits="userSpaceOnUse"><path d="M50.21 94.22c-26.17 0-47.33-20.5-47.33-45.88 0-25.37 21.16-45.88 47.33-45.88s47.33 20.51 47.33 45.88c0 25.38-21.16 45.88-47.33 45.88"/></clipPath><clipPath id="cp141" clipPathUnits="userSpaceOnUse"><path d="M50.21 94.22c-26.17 0-47.33-20.5-47.33-45.88 0-25.37 21.16-45.88 47.33-45.88s47.33 20.51 47.33 45.88c0 25.38-21.16 45.88-47.33 45.88"/></clipPath><clipPath id="cp142" clipPathUnits="userSpaceOnUse"><path d="M50.21 94.22c-26.17 0-47.33-20.5-47.33-45.88 0-25.37 21.16-45.88 47.33-45.88s47.33 20.51 47.33 45.88c0 25.38-21.16 45.88-47.33 45.88"/></clipPath><clipPath id="cp143" clipPathUnits="userSpaceOnUse"><path d="M50.21 94.22c-26.17 0-47.33-20.5-47.33-45.88 0-25.37 21.16-45.88 47.33-45.88s47.33 20.51 47.33 45.88c0 25.38-21.16 45.88-47.33 45.88"/></clipPath><clipPath id="cp144" clipPathUnits="userSpaceOnUse"><path d="M50.21 94.22c-26.17 0-47.33-20.5-47.33-45.88 0-25.37 21.16-45.88 47.33-45.88s47.33 20.51 47.33 45.88c0 25.38-21.16 45.88-47.33 45.88"/></clipPath><clipPath id="cp145" clipPathUnits="userSpaceOnUse"><path d="M50.21 94.22c-26.17 0-47.33-20.5-47.33-45.88 0-25.37 21.16-45.88 47.33-45.88s47.33 20.51 47.33 45.88c0 25.38-21.16 45.88-47.33 45.88"/></clipPath><clipPath id="cp146" clipPathUnits="userSpaceOnUse"><path d="M50.21 94.22c-26.17 0-47.33-20.5-47.33-45.88 0-25.37 21.16-45.88 47.33-45.88s47.33 20.51 47.33 45.88c0 25.38-21.16 45.88-47.33 45.88"/></clipPath><clipPath id="cp147" clipPathUnits="userSpaceOnUse"><path d="M50.21 94.22c-26.17 0-47.33-20.5-47.33-45.88 0-25.37 21.16-45.88 47.33-45.88s47.33 20.51 47.33 45.88c0 25.38-21.16 45.88-47.33 45.88"/></clipPath><clipPath id="cp148" clipPathUnits="userSpaceOnUse"><path d="M50.21 94.22c-26.17 0-47.33-20.5-47.33-45.88 0-25.37 21.16-45.88 47.33-45.88s47.33 20.51 47.33 45.88c0 25.38-21.16 45.88-47.33 45.88"/></clipPath><clipPath id="cp149" clipPathUnits="userSpaceOnUse"><path d="M50.21 94.22c-26.17 0-47.33-20.5-47.33-45.88 0-25.37 21.16-45.88 47.33-45.88s47.33 20.51 47.33 45.88c0 25.38-21.16 45.88-47.33 45.88"/></clipPath><clipPath id="cp150" clipPathUnits="userSpaceOnUse"><path d="M50.21 94.22c-26.17 0-47.33-20.5-47.33-45.88 0-25.37 21.16-45.88 47.33-45.88s47.33 20.51 47.33 45.88c0 25.38-21.16 45.88-47.33 45.88"/></clipPath><clipPath id="cp151" clipPathUnits="userSpaceOnUse"><path d="M50.21 94.22c-26.17 0-47.33-20.5-47.33-45.88 0-25.37 21.16-45.88 47.33-45.88s47.33 20.51 47.33 45.88c0 25.38-21.16 45.88-47.33 45.88"/></clipPath><clipPath id="cp152" clipPathUnits="userSpaceOnUse"><path d="M50.21 94.22c-26.17 0-47.33-20.5-47.33-45.88 0-25.37 21.16-45.88 47.33-45.88s47.33 20.51 47.33 45.88c0 25.38-21.16 45.88-47.33 45.88"/></clipPath><clipPath id="cp153" clipPathUnits="userSpaceOnUse"><path d="M50.21 94.22c-26.17 0-47.33-20.5-47.33-45.88 0-25.37 21.16-45.88 47.33-45.88s47.33 20.51 47.33 45.88c0 25.38-21.16 45.88-47.33 45.88"/></clipPath><clipPath id="cp154" clipPathUnits="userSpaceOnUse"><path d="M50.21 94.22c-26.17 0-47.33-20.5-47.33-45.88 0-25.37 21.16-45.88 47.33-45.88s47.33 20.51 47.33 45.88c0 25.38-21.16 45.88-47.33 45.88"/></clipPath><clipPath id="cp155" clipPathUnits="userSpaceOnUse"><path d="M50.21 94.22c-26.17 0-47.33-20.5-47.33-45.88 0-25.37 21.16-45.88 47.33-45.88s47.33 20.51 47.33 45.88c0 25.38-21.16 45.88-47.33 45.88"/></clipPath><clipPath id="cp156" clipPathUnits="userSpaceOnUse"><path d="M50.21 94.22c-26.17 0-47.33-20.5-47.33-45.88 0-25.37 21.16-45.88 47.33-45.88s47.33 20.51 47.33 45.88c0 25.38-21.16 45.88-47.33 45.88"/></clipPath><clipPath id="cp157" clipPathUnits="userSpaceOnUse"><path d="M50.21 94.22c-26.17 0-47.33-20.5-47.33-45.88 0-25.37 21.16-45.88 47.33-45.88s47.33 20.51 47.33 45.88c0 25.38-21.16 45.88-47.33 45.88"/></clipPath><clipPath id="cp158" clipPathUnits="userSpaceOnUse"><path d="M50.21 94.22c-26.17 0-47.33-20.5-47.33-45.88 0-25.37 21.16-45.88 47.33-45.88s47.33 20.51 47.33 45.88c0 25.38-21.16 45.88-47.33 45.88"/></clipPath><clipPath id="cp159" clipPathUnits="userSpaceOnUse"><path d="M50.21 94.22c-26.17 0-47.33-20.5-47.33-45.88 0-25.37 21.16-45.88 47.33-45.88s47.33 20.51 47.33 45.88c0 25.38-21.16 45.88-47.33 45.88"/></clipPath><clipPath id="cp160" clipPathUnits="userSpaceOnUse"><path d="M50.21 94.22c-26.17 0-47.33-20.5-47.33-45.88 0-25.37 21.16-45.88 47.33-45.88s47.33 20.51 47.33 45.88c0 25.38-21.16 45.88-47.33 45.88"/></clipPath><clipPath id="cp161" clipPathUnits="userSpaceOnUse"><path d="M50.21 94.22c-26.17 0-47.33-20.5-47.33-45.88 0-25.37 21.16-45.88 47.33-45.88s47.33 20.51 47.33 45.88c0 25.38-21.16 45.88-47.33 45.88"/></clipPath><clipPath id="cp162" clipPathUnits="userSpaceOnUse"><path d="M50.21 94.22c-26.17 0-47.33-20.5-47.33-45.88 0-25.37 21.16-45.88 47.33-45.88s47.33 20.51 47.33 45.88c0 25.38-21.16 45.88-47.33 45.88"/></clipPath><clipPath id="cp163" clipPathUnits="userSpaceOnUse"><path d="M50.21 94.22c-26.17 0-47.33-20.5-47.33-45.88 0-25.37 21.16-45.88 47.33-45.88s47.33 20.51 47.33 45.88c0 25.38-21.16 45.88-47.33 45.88"/></clipPath><clipPath id="cp164" clipPathUnits="userSpaceOnUse"><path d="M50.21 94.22c-26.17 0-47.33-20.5-47.33-45.88 0-25.37 21.16-45.88 47.33-45.88s47.33 20.51 47.33 45.88c0 25.38-21.16 45.88-47.33 45.88"/></clipPath><clipPath id="cp165" clipPathUnits="userSpaceOnUse"><path d="M50.21 94.22c-26.17 0-47.33-20.5-47.33-45.88 0-25.37 21.16-45.88 47.33-45.88s47.33 20.51 47.33 45.88c0 25.38-21.16 45.88-47.33 45.88"/></clipPath><clipPath id="cp166" clipPathUnits="userSpaceOnUse"><path d="M50.21 94.22c-26.17 0-47.33-20.5-47.33-45.88 0-25.37 21.16-45.88 47.33-45.88s47.33 20.51 47.33 45.88c0 25.38-21.16 45.88-47.33 45.88"/></clipPath><clipPath id="cp167" clipPathUnits="userSpaceOnUse"><path d="M50.21 94.22c-26.17 0-47.33-20.5-47.33-45.88 0-25.37 21.16-45.88 47.33-45.88s47.33 20.51 47.33 45.88c0 25.38-21.16 45.88-47.33 45.88"/></clipPath><clipPath id="cp168" clipPathUnits="userSpaceOnUse"><path d="M50.21 94.22c-26.17 0-47.33-20.5-47.33-45.88 0-25.37 21.16-45.88 47.33-45.88s47.33 20.51 47.33 45.88c0 25.38-21.16 45.88-47.33 45.88"/></clipPath><clipPath id="cp169" clipPathUnits="userSpaceOnUse"><path d="M50.21 94.22c-26.17 0-47.33-20.5-47.33-45.88 0-25.37 21.16-45.88 47.33-45.88s47.33 20.51 47.33 45.88c0 25.38-21.16 45.88-47.33 45.88"/></clipPath><clipPath id="cp170" clipPathUnits="userSpaceOnUse"><path d="M50.21 94.22c-26.17 0-47.33-20.5-47.33-45.88 0-25.37 21.16-45.88 47.33-45.88s47.33 20.51 47.33 45.88c0 25.38-21.16 45.88-47.33 45.88"/></clipPath><clipPath id="cp171" clipPathUnits="userSpaceOnUse"><path d="M50.21 94.22c-26.17 0-47.33-20.5-47.33-45.88 0-25.37 21.16-45.88 47.33-45.88s47.33 20.51 47.33 45.88c0 25.38-21.16 45.88-47.33 45.88"/></clipPath><clipPath id="cp172" clipPathUnits="userSpaceOnUse"><path d="M50.21 94.22c-26.17 0-47.33-20.5-47.33-45.88 0-25.37 21.16-45.88 47.33-45.88s47.33 20.51 47.33 45.88c0 25.38-21.16 45.88-47.33 45.88"/></clipPath><clipPath id="cp173" clipPathUnits="userSpaceOnUse"><path d="M50.21 94.22c-26.17 0-47.33-20.5-47.33-45.88 0-25.37 21.16-45.88 47.33-45.88s47.33 20.51 47.33 45.88c0 25.38-21.16 45.88-47.33 45.88"/></clipPath><clipPath id="cp174" clipPathUnits="userSpaceOnUse"><path d="M50.21 94.22c-26.17 0-47.33-20.5-47.33-45.88 0-25.37 21.16-45.88 47.33-45.88s47.33 20.51 47.33 45.88c0 25.38-21.16 45.88-47.33 45.88"/></clipPath><clipPath id="cp175" clipPathUnits="userSpaceOnUse"><path d="M50.21 94.22c-26.17 0-47.33-20.5-47.33-45.88 0-25.37 21.16-45.88 47.33-45.88s47.33 20.51 47.33 45.88c0 25.38-21.16 45.88-47.33 45.88"/></clipPath><clipPath id="cp176" clipPathUnits="userSpaceOnUse"><path d="M50.21 94.22c-26.17 0-47.33-20.5-47.33-45.88 0-25.37 21.16-45.88 47.33-45.88s47.33 20.51 47.33 45.88c0 25.38-21.16 45.88-47.33 45.88"/></clipPath><clipPath id="cp177" clipPathUnits="userSpaceOnUse"><path d="M50.21 94.22c-26.17 0-47.33-20.5-47.33-45.88 0-25.37 21.16-45.88 47.33-45.88s47.33 20.51 47.33 45.88c0 25.38-21.16 45.88-47.33 45.88"/></clipPath><clipPath id="cp178" clipPathUnits="userSpaceOnUse"><path d="M50.21 94.22c-26.17 0-47.33-20.5-47.33-45.88 0-25.37 21.16-45.88 47.33-45.88s47.33 20.51 47.33 45.88c0 25.38-21.16 45.88-47.33 45.88"/></clipPath><clipPath id="cp179" clipPathUnits="userSpaceOnUse"><path d="M50.21 94.22c-26.17 0-47.33-20.5-47.33-45.88 0-25.37 21.16-45.88 47.33-45.88s47.33 20.51 47.33 45.88c0 25.38-21.16 45.88-47.33 45.88"/></clipPath><clipPath id="cp180" clipPathUnits="userSpaceOnUse"><path d="M50.21 94.22c-26.17 0-47.33-20.5-47.33-45.88 0-25.37 21.16-45.88 47.33-45.88s47.33 20.51 47.33 45.88c0 25.38-21.16 45.88-47.33 45.88"/></clipPath><clipPath id="cp181" clipPathUnits="userSpaceOnUse"><path d="M50.21 94.22c-26.17 0-47.33-20.5-47.33-45.88 0-25.37 21.16-45.88 47.33-45.88s47.33 20.51 47.33 45.88c0 25.38-21.16 45.88-47.33 45.88"/></clipPath><clipPath id="cp182" clipPathUnits="userSpaceOnUse"><path d="M50.21 94.22c-26.17 0-47.33-20.5-47.33-45.88 0-25.37 21.16-45.88 47.33-45.88s47.33 20.51 47.33 45.88c0 25.38-21.16 45.88-47.33 45.88"/></clipPath><clipPath id="cp183" clipPathUnits="userSpaceOnUse"><path d="M50.21 94.22c-26.17 0-47.33-20.5-47.33-45.88 0-25.37 21.16-45.88 47.33-45.88s47.33 20.51 47.33 45.88c0 25.38-21.16 45.88-47.33 45.88"/></clipPath><clipPath id="cp184" clipPathUnits="userSpaceOnUse"><path d="M50.21 94.22c-26.17 0-47.33-20.5-47.33-45.88 0-25.37 21.16-45.88 47.33-45.88s47.33 20.51 47.33 45.88c0 25.38-21.16 45.88-47.33 45.88"/></clipPath><clipPath id="cp185" clipPathUnits="userSpaceOnUse"><path d="M50.21 94.22c-26.17 0-47.33-20.5-47.33-45.88 0-25.37 21.16-45.88 47.33-45.88s47.33 20.51 47.33 45.88c0 25.38-21.16 45.88-47.33 45.88"/></clipPath><clipPath id="cp186" clipPathUnits="userSpaceOnUse"><path d="M50.21 94.22c-26.17 0-47.33-20.5-47.33-45.88 0-25.37 21.16-45.88 47.33-45.88s47.33 20.51 47.33 45.88c0 25.38-21.16 45.88-47.33 45.88"/></clipPath><clipPath id="cp187" clipPathUnits="userSpaceOnUse"><path d="M50.21 94.22c-26.17 0-47.33-20.5-47.33-45.88 0-25.37 21.16-45.88 47.33-45.88s47.33 20.51 47.33 45.88c0 25.38-21.16 45.88-47.33 45.88"/></clipPath><clipPath id="cp188" clipPathUnits="userSpaceOnUse"><path d="M50.21 94.22c-26.17 0-47.33-20.5-47.33-45.88 0-25.37 21.16-45.88 47.33-45.88s47.33 20.51 47.33 45.88c0 25.38-21.16 45.88-47.33 45.88"/></clipPath><clipPath id="cp189" clipPathUnits="userSpaceOnUse"><path d="M50.21 94.22c-26.17 0-47.33-20.5-47.33-45.88 0-25.37 21.16-45.88 47.33-45.88s47.33 20.51 47.33 45.88c0 25.38-21.16 45.88-47.33 45.88"/></clipPath><clipPath id="cp190" clipPathUnits="userSpaceOnUse"><path d="M50.21 94.22c-26.17 0-47.33-20.5-47.33-45.88 0-25.37 21.16-45.88 47.33-45.88s47.33 20.51 47.33 45.88c0 25.38-21.16 45.88-47.33 45.88"/></clipPath><clipPath id="cp191" clipPathUnits="userSpaceOnUse"><path d="M50.21 94.22c-26.17 0-47.33-20.5-47.33-45.88 0-25.37 21.16-45.88 47.33-45.88s47.33 20.51 47.33 45.88c0 25.38-21.16 45.88-47.33 45.88"/></clipPath><clipPath id="cp192" clipPathUnits="userSpaceOnUse"><path d="M50.21 94.22c-26.17 0-47.33-20.5-47.33-45.88 0-25.37 21.16-45.88 47.33-45.88s47.33 20.51 47.33 45.88c0 25.38-21.16 45.88-47.33 45.88"/></clipPath><clipPath id="cp193" clipPathUnits="userSpaceOnUse"><path d="M50.21 94.22c-26.17 0-47.33-20.5-47.33-45.88 0-25.37 21.16-45.88 47.33-45.88s47.33 20.51 47.33 45.88c0 25.38-21.16 45.88-47.33 45.88"/></clipPath><clipPath id="cp194" clipPathUnits="userSpaceOnUse"><path d="M50.21 94.22c-26.17 0-47.33-20.5-47.33-45.88 0-25.37 21.16-45.88 47.33-45.88s47.33 20.51 47.33 45.88c0 25.38-21.16 45.88-47.33 45.88"/></clipPath><clipPath id="cp195" clipPathUnits="userSpaceOnUse"><path d="M50.21 94.22c-26.17 0-47.33-20.5-47.33-45.88 0-25.37 21.16-45.88 47.33-45.88s47.33 20.51 47.33 45.88c0 25.38-21.16 45.88-47.33 45.88"/></clipPath><clipPath id="cp196" clipPathUnits="userSpaceOnUse"><path d="M50.21 94.22c-26.17 0-47.33-20.5-47.33-45.88 0-25.37 21.16-45.88 47.33-45.88s47.33 20.51 47.33 45.88c0 25.38-21.16 45.88-47.33 45.88"/></clipPath><clipPath id="cp197" clipPathUnits="userSpaceOnUse"><path d="M18.12 15.43h66.76V82.2H18.12z"/></clipPath><radialGradient id="g1" cx="0" cy="0" r="1" gradientTransform="translate(50.653 47.927)scale(44.961)" gradientUnits="userSpaceOnUse"><stop offset="0" stop-color="#0095da"/><stop offset="1" stop-color="#144ea2"/></radialGradient></defs><style>.s0{fill:#cd992b}.s1{fill:#ce922a}.s2{fill:#d0a02a}.s3{fill:#d1972a}.s4{fill:#d5a62a}.s5{fill:#d19a2a}.s6{fill:#d5a82a}.s7{fill:#d39e29}.s8{fill:#d8ac29}.s9{fill:#d9a429}.s10{fill:#dab028}.s11{fill:#d9a629}.s12{fill:#dbb327}.s13{fill:#dbaa28}.s14{fill:#ddb726}.s15{fill:#dcad27}.s16{fill:#dfba24}.s17{fill:#deb126}.s18{fill:#e2be23}.s19{fill:#e1b524}.s20{fill:#e4c225}.s21{fill:#e3b923}.s22{fill:#e7c62c}.s23{fill:#e4bd26}.s24{fill:#e7c838}.s25{fill:#e6c12d}.s26{fill:#eccd41}.s27{fill:#e8c434}.s28{fill:#ecd146}.s29{fill:#ebc83b}.s30{fill:#f0d64e}.s31{fill:#edcc45}.s32{fill:#f1da53}.s33{fill:#f0d34d}.s34{fill:#f1de59}.s35{fill:#f0d653}.s36{fill:#f6e060}.s37{fill:#f3db58}.s38{fill:#f6e366}.s39{fill:#f9e86d}.s40{fill:#f6e265}.s41{fill:#f9ea73}.s42{fill:#f6e56b}.s43{fill:#fbee7a}.s44{fill:#fef381}.s45{fill:#f9ed7a}.s46{fill:#fef389}.s47{fill:#fbf281}.s51{fill:#fff}.s52{fill:#144ea2}</style><g id="Layer"><g id="Clip-Path" clip-path="url(#cp1)"><path d="m50.2 48.1 68.4 2.2v-4.4z" class="s0"/></g><g clip-path="url(#cp2)"><path d="m50.2 48.1-68.4-2.2v4.4z" class="s1"/></g><g clip-path="url(#cp3)"><path d="m50.2 48.1 68.4-2.2-.3-4.4z" class="s2"/></g><g clip-path="url(#cp4)"><path d="m50.2 48.1-68.4 2.2.3 4.4z" class="s3"/></g><g clip-path="url(#cp5)"><path d="m50.2 48.1 68.1-6.6-.5-4.3z" class="s4"/></g><g clip-path="url(#cp6)"><path d="m50.2 48.1-68.1 6.6.5 4.3z" class="s5"/></g><g clip-path="url(#cp7)"><path d="m50.2 48.1 67.6-10.9-.9-4.3z" class="s6"/></g><g clip-path="url(#cp8)"><path d="M50.2 48.1-17.4 59l.9 4.3z" class="s7"/></g><g clip-path="url(#cp9)"><path d="m50.2 48.1 66.7-15.2-1.1-4.3z" class="s8"/></g><g clip-path="url(#cp10)"><path d="m50.2 48.1-66.7 15.2 1.1 4.3z" class="s9"/></g><g clip-path="url(#cp11)"><path d="m50.2 48.1 65.6-19.5-1.4-4.2z" class="s10"/></g><g clip-path="url(#cp12)"><path d="m50.2 48.1-65.6 19.5 1.4 4.1z" class="s11"/></g><g clip-path="url(#cp13)"><path d="m50.2 48.1 64.2-23.7-1.6-4z" class="s12"/></g><g clip-path="url(#cp14)"><path d="M50.2 48.1-14 71.7l1.6 4.1z" class="s13"/></g><g clip-path="url(#cp15)"><path d="m50.2 48.1 62.6-27.7-1.9-4z" class="s14"/></g><g clip-path="url(#cp16)"><path d="m50.2 48.1-62.6 27.7 1.9 3.9z" class="s15"/></g><g clip-path="url(#cp17)"><path d="m50.2 48.1 60.7-31.7-2.2-3.8z" class="s16"/></g><g clip-path="url(#cp18)"><path d="m50.2 48.1-60.7 31.6 2.2 3.9z" class="s17"/></g><g clip-path="url(#cp19)"><path d="m50.2 48.1 58.5-35.5-2.4-3.7z" class="s18"/></g><g clip-path="url(#cp20)"><path d="M50.2 48.1-8.3 83.6l2.4 3.6z" class="s19"/></g><g clip-path="url(#cp21)"><path d="m50.2 48.1 56.1-39.2-2.6-3.5z" class="s20"/></g><g clip-path="url(#cp22)"><path d="M50.2 48.1-5.9 87.2l2.6 3.6z" class="s21"/></g><g clip-path="url(#cp23)"><path d="m50.2 48.1 53.5-42.7-2.8-3.3z" class="s22"/></g><g clip-path="url(#cp24)"><path d="M50.2 48.1-3.3 90.8l2.8 3.3z" class="s23"/></g><g clip-path="url(#cp25)"><path d="m50.2 48.1 50.7-46-3.1-3.2z" class="s24"/></g><g clip-path="url(#cp26)"><path d="m50.2 48.1-50.7 46 3.1 3.1z" class="s25"/></g><g clip-path="url(#cp27)"><path d="M50.2 48.1 97.8-1.1 94.6-4z" class="s26"/></g><g clip-path="url(#cp28)"><path d="M50.2 48.1 2.6 97.2l3.2 3z" class="s27"/></g><g clip-path="url(#cp29)"><path d="M50.2 48.1 94.6-4l-3.5-2.8z" class="s28"/></g><g clip-path="url(#cp30)"><path d="M50.2 48.1 5.8 100.2l3.5 2.7z" class="s29"/></g><g clip-path="url(#cp31)"><path d="M50.2 48.1 91.1-6.8l-3.6-2.5z" class="s30"/></g><g clip-path="url(#cp32)"><path d="M50.2 48.1 9.3 102.9l3.6 2.5z" class="s31"/></g><g clip-path="url(#cp33)"><path d="M50.2 48.1 87.5-9.3l-3.7-2.3z" class="s32"/></g><g clip-path="url(#cp34)"><path d="m50.2 48.1-37.3 57.3 3.7 2.3z" class="s33"/></g><g clip-path="url(#cp35)"><path d="m50.2 48.1 33.6-59.7-3.9-2z" class="s34"/></g><g clip-path="url(#cp36)"><path d="m50.2 48.1-33.6 59.6 3.9 2z" class="s35"/></g><g clip-path="url(#cp37)"><path d="m50.2 48.1 29.7-61.7-4-1.8z" class="s36"/></g><g clip-path="url(#cp38)"><path d="m50.2 48.1-29.7 61.6 4 1.8z" class="s37"/></g><g clip-path="url(#cp39)"><path d="m50.2 48.1 25.7-63.5-4.1-1.5z" class="s38"/></g><g clip-path="url(#cp40)"><path d="m50.2 48.1-25.7 63.4 4.1 1.5z" class="s36"/></g><g clip-path="url(#cp41)"><path d="m50.2 48.1 21.6-65-4.2-1.2z" class="s39"/></g><g clip-path="url(#cp42)"><path d="M50.2 48.1 28.6 113l4.2 1.3z" class="s40"/></g><g clip-path="url(#cp43)"><path d="m50.2 48.1 17.4-66.2-4.3-1z" class="s41"/></g><g clip-path="url(#cp44)"><path d="m50.2 48.1-17.4 66.2 4.3 1z" class="s42"/></g><g clip-path="url(#cp45)"><path d="m50.2 48.1 13.1-67.2-4.3-.7z" class="s43"/></g><g clip-path="url(#cp46)"><path d="m50.2 48.1-13.1 67.2 4.4.7z" class="s41"/></g><g clip-path="url(#cp47)"><path d="M50.2 48.1 59-19.8l-4.4-.4z" class="s44"/></g><g clip-path="url(#cp48)"><path d="M50.2 48.1 41.5 116l4.3.4z" class="s45"/></g><g clip-path="url(#cp49)"><path d="m50.2 48.1 4.4-68.3-4.4-.2z" class="s46"/></g><g clip-path="url(#cp50)"><path d="m50.2 48.1-4.4 68.3 4.4.1z" class="s47"/></g><g clip-path="url(#cp51)"><path d="M50.2 48.1v-68.5l-4.4.2z" class="s47"/></g><g clip-path="url(#cp52)"><path d="M50.2 48.1v68.4l4.4-.1z" class="s46"/></g><g clip-path="url(#cp53)"><path d="m50.2 48.1-4.4-68.3-4.3.4z" class="s45"/></g><g clip-path="url(#cp54)"><path d="m50.2 48.1 4.4 68.3 4.4-.4z" class="s44"/></g><g clip-path="url(#cp55)"><path d="m50.2 48.1-8.7-67.9-4.4.7z" class="s41"/></g><g clip-path="url(#cp56)"><path d="M50.2 48.1 59 116l4.3-.7z" class="s43"/></g><g clip-path="url(#cp57)"><path d="M50.2 48.1 37.1-19.1l-4.3 1z" class="s42"/></g><g clip-path="url(#cp58)"><path d="m50.2 48.1 13.1 67.2 4.3-1z" class="s41"/></g><g clip-path="url(#cp59)"><path d="M50.2 48.1 32.8-18.1l-4.2 1.2z" class="s40"/></g><g clip-path="url(#cp60)"><path d="m50.2 48.1 17.4 66.2 4.2-1.3z" class="s39"/></g><g clip-path="url(#cp61)"><path d="m50.2 48.1-21.6-65-4.1 1.5z" class="s36"/></g><g clip-path="url(#cp62)"><path d="M50.2 48.1 71.8 113l4.1-1.5z" class="s38"/></g><g clip-path="url(#cp63)"><path d="M50.2 48.1 24.5-15.4l-4 1.8z" class="s37"/></g><g clip-path="url(#cp64)"><path d="m50.2 48.1 25.7 63.4 4-1.8z" class="s36"/></g><g clip-path="url(#cp65)"><path d="M50.2 48.1 20.5-13.6l-3.9 2z" class="s35"/></g><g clip-path="url(#cp66)"><path d="m50.2 48.1 29.7 61.6 3.9-2z" class="s34"/></g><g clip-path="url(#cp67)"><path d="M50.2 48.1 16.6-11.6l-3.7 2.3z" class="s33"/></g><g clip-path="url(#cp68)"><path d="m50.2 48.1 33.6 59.6 3.7-2.3z" class="s32"/></g><g clip-path="url(#cp69)"><path d="M50.2 48.1 12.9-9.3 9.3-6.8z" class="s31"/></g><g clip-path="url(#cp70)"><path d="m50.2 48.1 37.3 57.3 3.6-2.5z" class="s30"/></g><g clip-path="url(#cp71)"><path d="M50.2 48.1 9.3-6.8 5.8-4z" class="s29"/></g><g clip-path="url(#cp72)"><path d="m50.2 48.1 40.9 54.8 3.5-2.7z" class="s28"/></g><g clip-path="url(#cp73)"><path d="M50.2 48.1 5.8-4 2.6-1.1z" class="s27"/></g><g clip-path="url(#cp74)"><path d="m50.2 48.1 44.4 52.1 3.2-3z" class="s26"/></g><g clip-path="url(#cp75)"><path d="M50.2 48.1 2.6-1.1-.5 2.1z" class="s25"/></g><g clip-path="url(#cp76)"><path d="m50.2 48.1 47.6 49.1 3.1-3.1z" class="s24"/></g><g clip-path="url(#cp77)"><path d="M50.2 48.1-.5 2.1l-2.8 3.3z" class="s23"/></g><g clip-path="url(#cp78)"><path d="m50.2 48.1 50.7 46 2.8-3.3z" class="s22"/></g><g clip-path="url(#cp79)"><path d="M50.2 48.1-3.3 5.4l-2.6 3.5z" class="s21"/></g><g clip-path="url(#cp80)"><path d="m50.2 48.1 53.5 42.7 2.6-3.6z" class="s20"/></g><g clip-path="url(#cp81)"><path d="M50.2 48.1-5.9 8.9l-2.4 3.7z" class="s19"/></g><g clip-path="url(#cp82)"><path d="m50.2 48.1 56.1 39.1 2.4-3.6z" class="s18"/></g><g clip-path="url(#cp83)"><path d="M50.2 48.1-8.3 12.6l-2.2 3.8z" class="s17"/></g><g clip-path="url(#cp84)"><path d="m50.2 48.1 58.5 35.5 2.2-3.9z" class="s16"/></g><g clip-path="url(#cp85)"><path d="m50.2 48.1-60.7-31.7-1.9 4z" class="s15"/></g><g clip-path="url(#cp86)"><path d="m50.2 48.1 60.7 31.6 1.9-3.9z" class="s14"/></g><g clip-path="url(#cp87)"><path d="m50.2 48.1-62.6-27.7-1.6 4z" class="s13"/></g><g clip-path="url(#cp88)"><path d="m50.2 48.1 62.6 27.7 1.6-4.1z" class="s12"/></g><g clip-path="url(#cp89)"><path d="M50.2 48.1-14 24.4l-1.4 4.2z" class="s11"/></g><g clip-path="url(#cp90)"><path d="m50.2 48.1 64.2 23.6 1.4-4.1z" class="s10"/></g><g clip-path="url(#cp91)"><path d="m50.2 48.1-65.6-19.5-1.1 4.3z" class="s9"/></g><g clip-path="url(#cp92)"><path d="m50.2 48.1 65.6 19.5 1.1-4.3z" class="s8"/></g><g clip-path="url(#cp93)"><path d="m50.2 48.1-66.7-15.2-.9 4.3z" class="s7"/></g><g clip-path="url(#cp94)"><path d="m50.2 48.1 66.7 15.2.9-4.3z" class="s6"/></g><g clip-path="url(#cp95)"><path d="m50.2 48.1-67.6-10.9-.5 4.3z" class="s5"/></g><g clip-path="url(#cp96)"><path d="M50.2 48.1 117.8 59l.5-4.3z" class="s4"/></g><g clip-path="url(#cp97)"><path d="m50.2 48.1-68.1-6.6-.3 4.4z" class="s3"/></g><g clip-path="url(#cp98)"><path d="m50.2 48.1 68.1 6.6.3-4.4z" class="s2"/></g><path d="M50.2 95.5C22.9 95.5.9 74.3.9 48.1S22.9.7 50.2.7s49.3 21.2 49.3 47.4-22 47.4-49.3 47.4z" style="fill:none;stroke:#ce922a;stroke-miterlimit:2.6131;stroke-width:.4"/><g clip-path="url(#cp99)"><path d="m50.2 48.3 2.1-65.9h-4.2z" class="s0"/></g><g clip-path="url(#cp100)"><path d="m50.2 48.3-2.1 66h4.2z" class="s1"/></g><g clip-path="url(#cp101)"><path d="m50.2 48.3-2.1-65.9-4.2.3z" class="s2"/></g><g clip-path="url(#cp102)"><path d="m50.2 48.3 2.1 66 4.2-.3z" class="s3"/></g><g clip-path="url(#cp103)"><path d="m50.2 48.3-6.3-65.6-4.2.5z" class="s4"/></g><g clip-path="url(#cp104)"><path d="m50.2 48.3 6.3 65.7 4.2-.5z" class="s5"/></g><g clip-path="url(#cp105)"><path d="M50.2 48.3 39.7-16.8l-4.2.8z" class="s6"/></g><g clip-path="url(#cp106)"><path d="m50.2 48.3 10.5 65.2 4.2-.9z" class="s7"/></g><g clip-path="url(#cp107)"><path d="M50.2 48.3 35.5-16l-4.1 1.1z" class="s8"/></g><g clip-path="url(#cp108)"><path d="m50.2 48.3 14.7 64.3 4.1-1z" class="s9"/></g><g clip-path="url(#cp109)"><path d="M50.2 48.3 31.4-14.9l-4 1.3z" class="s10"/></g><g clip-path="url(#cp110)"><path d="M50.2 48.3 69 111.6l4-1.4z" class="s11"/></g><g clip-path="url(#cp111)"><path d="M50.2 48.3 27.4-13.6 23.5-12z" class="s12"/></g><g clip-path="url(#cp112)"><path d="M50.2 48.3 73 110.2l3.9-1.5z" class="s13"/></g><g clip-path="url(#cp113)"><path d="M50.2 48.3 23.5-12l-3.8 1.9z" class="s14"/></g><g clip-path="url(#cp114)"><path d="m50.2 48.3 26.7 60.4 3.8-1.9z" class="s15"/></g><g clip-path="url(#cp115)"><path d="M50.2 48.3 19.7-10.1l-3.7 2z" class="s16"/></g><g clip-path="url(#cp116)"><path d="m50.2 48.3 30.5 58.5 3.7-2.1z" class="s17"/></g><g clip-path="url(#cp117)"><path d="M50.2 48.3 16-8.1l-3.5 2.3z" class="s18"/></g><g clip-path="url(#cp118)"><path d="m50.2 48.3 34.2 56.4 3.5-2.3z" class="s19"/></g><g clip-path="url(#cp119)"><path d="M50.2 48.3 12.5-5.8 9.1-3.2z" class="s20"/></g><g clip-path="url(#cp120)"><path d="m50.2 48.3 37.7 54.1 3.4-2.5z" class="s21"/></g><g clip-path="url(#cp121)"><path d="M50.2 48.3 9.1-3.2 5.9-.5z" class="s22"/></g><g clip-path="url(#cp122)"><path d="m50.2 48.3 41.1 51.6 3.2-2.7z" class="s23"/></g><g clip-path="url(#cp123)"><path d="M50.2 48.3 5.9-.5l-3.1 3z" class="s24"/></g><g clip-path="url(#cp124)"><path d="m50.2 48.3 44.3 48.9 3.1-3z" class="s25"/></g><g clip-path="url(#cp125)"><path d="M50.2 48.3 2.8 2.5 0 5.6z" class="s26"/></g><g clip-path="url(#cp126)"><path d="m50.2 48.3 47.4 45.9 2.8-3.1z" class="s27"/></g><g clip-path="url(#cp127)"><path d="M50.2 48.3 0 5.6l-2.6 3.3z" class="s28"/></g><g clip-path="url(#cp128)"><path d="m50.2 48.3 50.2 42.8 2.7-3.3z" class="s29"/></g><g clip-path="url(#cp129)"><path d="M50.2 48.3-2.6 8.9l-2.5 3.5z" class="s30"/></g><g clip-path="url(#cp130)"><path d="m50.2 48.3 52.9 39.5 2.4-3.5z" class="s31"/></g><g clip-path="url(#cp131)"><path d="M50.2 48.3-5.1 12.4-7.3 16z" class="s32"/></g><g clip-path="url(#cp132)"><path d="m50.2 48.3 55.3 36 2.2-3.6z" class="s33"/></g><g clip-path="url(#cp133)"><path d="M50.2 48.3-7.3 16l-1.9 3.7z" class="s34"/></g><g clip-path="url(#cp134)"><path d="m50.2 48.3 57.5 32.4 1.9-3.7z" class="s35"/></g><g clip-path="url(#cp135)"><path d="M50.2 48.3-9.2 19.7l-1.7 3.9z" class="s36"/></g><g clip-path="url(#cp136)"><path d="M50.2 48.3 109.6 77l1.7-3.9z" class="s37"/></g><g clip-path="url(#cp137)"><path d="m50.2 48.3-61.1-24.7-1.5 4z" class="s38"/></g><g clip-path="url(#cp138)"><path d="m50.2 48.3 61.1 24.8 1.5-4z" class="s36"/></g><g clip-path="url(#cp139)"><path d="m50.2 48.3-62.6-20.7-1.2 4z" class="s39"/></g><g clip-path="url(#cp140)"><path d="m50.2 48.3 62.6 20.8 1.2-4z" class="s40"/></g><g clip-path="url(#cp141)"><path d="m50.2 48.3-63.8-16.7-.9 4.1z" class="s41"/></g><g clip-path="url(#cp142)"><path d="M50.2 48.3 114 65.1l.9-4.1z" class="s42"/></g><g clip-path="url(#cp143)"><path d="m50.2 48.3-64.7-12.6-.7 4.2z" class="s43"/></g><g clip-path="url(#cp144)"><path d="M50.2 48.3 114.9 61l.7-4.2z" class="s41"/></g><g clip-path="url(#cp145)"><path d="m50.2 48.3-65.4-8.4-.4 4.2z" class="s44"/></g><g clip-path="url(#cp146)"><path d="m50.2 48.3 65.4 8.5.4-4.2z" class="s45"/></g><g clip-path="url(#cp147)"><path d="m50.2 48.3-65.8-4.2-.1 4.2z" class="s46"/></g><g clip-path="url(#cp148)"><path d="m50.2 48.3 65.8 4.3.2-4.3z" class="s47"/></g><g clip-path="url(#cp149)"><path d="M50.2 48.3h-65.9l.1 4.3z" class="s47"/></g><g clip-path="url(#cp150)"><path d="M50.2 48.3h66l-.2-4.2z" class="s46"/></g><g clip-path="url(#cp151)"><path d="m50.2 48.3-65.8 4.3.4 4.2z" class="s45"/></g><g clip-path="url(#cp152)"><path d="m50.2 48.3 65.8-4.2-.4-4.2z" class="s44"/></g><g clip-path="url(#cp153)"><path d="m50.2 48.3-65.4 8.5.7 4.2z" class="s41"/></g><g clip-path="url(#cp154)"><path d="m50.2 48.3 65.4-8.4-.7-4.2z" class="s43"/></g><g clip-path="url(#cp155)"><path d="M50.2 48.3-14.5 61l.9 4.1z" class="s42"/></g><g clip-path="url(#cp156)"><path d="m50.2 48.3 64.7-12.6-.9-4.1z" class="s41"/></g><g clip-path="url(#cp157)"><path d="m50.2 48.3-63.8 16.8 1.2 4z" class="s40"/></g><g clip-path="url(#cp158)"><path d="M50.2 48.3 114 31.6l-1.2-4z" class="s39"/></g><g clip-path="url(#cp159)"><path d="m50.2 48.3-62.6 20.8 1.5 4z" class="s36"/></g><g clip-path="url(#cp160)"><path d="m50.2 48.3 62.6-20.7-1.5-4z" class="s38"/></g><g clip-path="url(#cp161)"><path d="m50.2 48.3-61.1 24.8 1.7 3.9z" class="s37"/></g><g clip-path="url(#cp162)"><path d="m50.2 48.3 61.1-24.7-1.7-3.9z" class="s36"/></g><g clip-path="url(#cp163)"><path d="M50.2 48.3-9.2 77l1.9 3.7z" class="s35"/></g><g clip-path="url(#cp164)"><path d="m50.2 48.3 59.4-28.6-1.9-3.7z" class="s34"/></g><g clip-path="url(#cp165)"><path d="M50.2 48.3-7.3 80.7l2.2 3.6z" class="s33"/></g><g clip-path="url(#cp166)"><path d="M50.2 48.3 107.7 16l-2.2-3.6z" class="s32"/></g><g clip-path="url(#cp167)"><path d="m50.2 48.3-55.3 36 2.5 3.5z" class="s31"/></g><g clip-path="url(#cp168)"><path d="m50.2 48.3 55.3-35.9-2.4-3.5z" class="s30"/></g><g clip-path="url(#cp169)"><path d="M50.2 48.3-2.6 87.8 0 91.1z" class="s29"/></g><g clip-path="url(#cp170)"><path d="m50.2 48.3 52.9-39.4-2.7-3.3z" class="s28"/></g><g clip-path="url(#cp171)"><path d="M50.2 48.3 0 91.1l2.8 3.1z" class="s27"/></g><g clip-path="url(#cp172)"><path d="m50.2 48.3 50.2-42.7-2.8-3.1z" class="s26"/></g><g clip-path="url(#cp173)"><path d="M50.2 48.3 2.8 94.2l3.1 3z" class="s25"/></g><g clip-path="url(#cp174)"><path d="M50.2 48.3 97.6 2.5l-3.1-3z" class="s24"/></g><g clip-path="url(#cp175)"><path d="M50.2 48.3 5.9 97.2l3.2 2.7z" class="s23"/></g><g clip-path="url(#cp176)"><path d="M50.2 48.3 94.5-.5l-3.2-2.7z" class="s22"/></g><g clip-path="url(#cp177)"><path d="M50.2 48.3 9.1 99.9l3.4 2.5z" class="s21"/></g><g clip-path="url(#cp178)"><path d="M50.2 48.3 91.3-3.2l-3.4-2.6z" class="s20"/></g><g clip-path="url(#cp179)"><path d="m50.2 48.3-37.7 54.1 3.5 2.3z" class="s19"/></g><g clip-path="url(#cp180)"><path d="M50.2 48.3 87.9-5.8l-3.5-2.3z" class="s18"/></g><g clip-path="url(#cp181)"><path d="M50.2 48.3 16 104.7l3.7 2.1z" class="s17"/></g><g clip-path="url(#cp182)"><path d="M50.2 48.3 84.4-8.1l-3.7-2z" class="s16"/></g><g clip-path="url(#cp183)"><path d="m50.2 48.3-30.5 58.5 3.8 1.9z" class="s15"/></g><g clip-path="url(#cp184)"><path d="m50.2 48.3 30.5-58.4-3.8-1.9z" class="s14"/></g><g clip-path="url(#cp185)"><path d="m50.2 48.3-26.7 60.4 3.9 1.5z" class="s13"/></g><g clip-path="url(#cp186)"><path d="M50.2 48.3 76.9-12 73-13.6z" class="s12"/></g><g clip-path="url(#cp187)"><path d="m50.2 48.3-22.8 61.9 4 1.4z" class="s11"/></g><g clip-path="url(#cp188)"><path d="M50.2 48.3 73-13.6l-4-1.3z" class="s10"/></g><g clip-path="url(#cp189)"><path d="m50.2 48.3-18.8 63.3 4.1 1z" class="s9"/></g><g clip-path="url(#cp190)"><path d="M50.2 48.3 69-14.9 64.9-16z" class="s8"/></g><g clip-path="url(#cp191)"><path d="m50.2 48.3-14.7 64.3 4.2.9z" class="s7"/></g><g clip-path="url(#cp192)"><path d="M50.2 48.3 64.9-16l-4.2-.8z" class="s6"/></g><g clip-path="url(#cp193)"><path d="m50.2 48.3-10.5 65.2 4.2.5z" class="s5"/></g><g clip-path="url(#cp194)"><path d="m50.2 48.3 10.5-65.1-4.2-.5z" class="s4"/></g><g clip-path="url(#cp195)"><path d="M50.2 48.3 43.9 114l4.2.3z" class="s3"/></g><g clip-path="url(#cp196)"><path d="m50.2 48.3 6.3-65.6-4.2-.3z" class="s2"/></g><path d="M50.2 94.2C24 94.2 2.9 73.7 2.9 48.3 2.9 23 24 2.5 50.2 2.5S97.5 23 97.5 48.3c0 25.4-21.1 45.9-47.3 45.9z" style="fill:none;stroke:#fff9ae;stroke-miterlimit:2.6131;stroke-width:.4"/><path fill-rule="evenodd" d="M50.7 79.7c17.5 0 31.7-14.3 31.7-31.8S68.2 16.1 50.7 16.1c-17.6 0-31.8 14.3-31.8 31.8s14.2 31.8 31.8 31.8" style="fill:url(#g1)"/><path fill-rule="evenodd" d="M62.9 53c-2.2 0-4-1.7-4-3.9s1.8-3.9 4-3.9h3.2V47h-3.2c-1.2 0-2.1 1-2.1 2.1 0 1.2.9 2.1 2.1 2.1h3.2V53zM43.4 42.8h-1.3v-3.6h-1.9v-1.4h1.9v-1.6h-2.2v1.5c0 .5-.2.8-.5 1.1s-.9.6-1 .6c0 .1.5.8.9 1.2.5.6 1.1 1.3 1.2 1.3l-1.2.9s-1-1.2-2-2.7c-.7-1-1.5-2.3-1.5-2.3L37 37c0 .1.5 1.1 1 1.1.6 0 .5-.7.5-.7v-1.2h-3.3v-1.3h6.1c-.3-.5-.4-.9-.3-1.9s.9-1.8 2.1-1.8c3 0 3.7 3.7 3.7 3.7h.9v1.3h-1v2h-1.3v-2h-2zm3.3 0h-1.3v-2.2h1.3zm-4.2-.4h.5v-6.6h2.8v2h.5v-2h1v-.5h-.9v-.4q-.2-.7-.5-1.3-.2-.4-.5-.8l-.3-.3q-.2-.2-.4-.3l-.3-.2-.4-.2-.5-.1h-.6q-.4 0-.7.2l-.1.1q-.5.3-.6.9-.1.1-.1.2v1c.2.4.5.9.8 1.2h-6.5v.5H39v1.7c0 .4-.2.8-.6 1h-.1c-.2.1-.3.1-.5.1q-.1-.1-.3-.2c-.3-.1-.5-.4-.7-.7l-.4.2q.7 1.2 1.4 2.3l1.6 2 .4-.3q-.6-.6-1.1-1.3l-.4-.6q-.1-.1-.2-.4l-.3-.4v-.1c.7-.1 1.5-.4 1.6-1.1v-2.2h3.1v2.5h-1.9v.5h1.9zm3.3 0h.5v-1.3h-.5zm-3.1-7.2c-.7-.6-1.1-1.5-.8-2.3q.1-.3.4-.5.2-.2.5-.2.2-.1.3-.1h.3q.3.1.5.2l.3.1.4.3.3.3.6.8q.2.5.3 1l.2.5h-3.1zm.3-.3h2.4s-.6-2.3-2.2-2.3c-.5 0-.9.3-.9.9s.3 1.2.7 1.4m3.7 3.9v.5h-1.3v-.5zm0 1v.4h-1.4v-.4zM66.2 36H62v1.9c.1 0 .5-.6 1.4-.6 1.2 0 2.1.9 2.1 2.1 0 1.5-1.6 2.9-1.6 2.9l-1-.7c.1 0 1.3-1 1.3-2.1 0-.7-.3-1.2-.9-1.2-.8 0-1.3 1-1.3 1v3.6h-1.3V41s-.6.4-1.3.4c-1.2 0-2.2-.8-2.2-2.3 0-2.4 2.7-2.3 2.7-2.3l.3 1.1s-1.8-.1-1.8 1.2c0 .8.5 1.2 1.1 1.2.8 0 1.2-.7 1.2-.7V36h-4.9v1.9h-3s-.3 0-.1.4c.1.2.7.9 1 .9.7 0 1.1-.4 1.7-.4.7 0 1 .8 1 1.6 0 1.9-1.6 2.3-2.5 2.3-2.5 0-4.6-3.4-4.6-3.5l.8-.8c0 .1 1.9 3.4 3.9 3.4.7 0 1.1-.6 1.1-1.4 0-.4-.1-.6-.4-.5-.2.1-.8.3-1.3.3-.6 0-2.2-1.3-2.2-2.5 0-.4.4-.7.8-.7h2.5v-1h-5.8v-1.1h4.4l-2.3-1.3.5-1.1 2.6 2.4h1l-2.6-3.1 1.2-.6 2.1 3.7h10.6zM53.3 49.5v1.8h-.7v1.9h-1.9v-4c0-2.1 1.8-3.9 3.9-3.9 2.2 0 3.9 1.8 3.9 3.9v4h-1.8v-4c0-1.1-.9-2.1-2.1-2.1-1.1 0-2 1-2 2.1v.3zm2.2 0v1.8h-.3v-1.8zm-.6 0v1.8h-.4v-1.8zm-.7 0v1.8h-.5v-1.8zm1.9 0v1.8h-.2v-1.8zM45 48h-1.8v-.1H45zm0 .6h-1.8v-.3H45zm0 .8h-1.8V49H45zm0 .8h-1.8v-.4H45zm0 .3v.8h1.5c1.1 0 2-.9 2-2.1 0-1.1-.9-2.1-2-2.1h-3.3v-1.8h3.3c2.1 0 3.9 1.7 3.9 3.9s-1.8 3.9-3.9 3.9h-3.3v-2.6zm-6 2.6c-2-.1-3.6-1.8-3.6-3.9s1.6-3.8 3.6-3.9h3.6v1.8H39c-1 .2-1.7 1.1-1.7 2.1 0 1.1.7 1.9 1.7 2q.2.1.3.1h3.3v1.8H39m0-6.6h3v-.6h-3c-1.6.2-2.9 1.6-2.9 3.3s1.3 3.1 2.9 3.3h3v-.6h-3c-1.3-.2-2.3-1.3-2.3-2.7s1-2.5 2.3-2.7M29.6 59.6l.2.2.2.4v.3q0 .3-.3.5l-.3.3.5.6-.3.3-.7-.8h-.1q-.3 0-.5-.2-.1-.2-.1-.4 0-.3.2-.4.1-.1.2-.1.3 0 .4.2.3-.1.3-.4 0-.2-.2-.4-.2-.3-.8-.4l.1-.4h2.3v-.5h-2.8l-.4-.7h4.1l.3.7h-.5V62l-.7-.5v-1.9zm3.6-1.2V62l-.8-.5v-3.1h-.1l-.4-.7h1.4l.4.7zm3.9 0V62l-.7-.5v-1.6h-1.2q-.2.1-.2.3v.1q0 .1-.1.2t-.2.1-.2-.1q-.1 0-.3-.4-.2-.3-.2-.5-.1-.3.3-.4h2.1v-.8h-2.3l-.4-.7h3.5l.4.7zm1.7 0V62l-.8-.5v-3.1h-.1l-.3-.7h1.3l.4.7zm3.2 0v1.2h-1.4q-.1 0-.1.1-.2 0-.3.3-.1.1-.1.2 0 .2.1.4.1.1.3.2h.2q.3 0 .5-.1-.1-.1-.1-.3 0-.1.1-.2t.3-.1.5.2q.2.2.2.4 0 .4-.3.5l.5 1-.5.2-.4-1h-.3q-.3 0-.6-.1t-.6-.4-.4-.7q-.1-.3-.1-.5 0-.7.8-.8h.9v-.5h-1.5l-.4-.7h2.1l.1.1h.2v-.1h.7l.3.7zm-.2-.7h-.3l-.3-.7-.2-.2q-.1-.2-.3-.3-.3-.2-.5-.1l-.2-.8h.2q.4 0 .7.3t.6 1.2zm4.4.7V62l-.8-.5v-.8q-.4.6-1 .6-.5 0-.9-.4-.3-.3-.4-.8v-.2q0-.4.3-.7.4-.4.8-.4.9.1 1.2.7v-1.1h-2.1l-.4-.7h3.8l.3.7zm-.7 1.5v-.1q-.4-.3-.8-.3-.2 0-.5.1-.2.1-.4.3t-.2.4q0 .1.1.2t.4.1q.4 0 .7-.1.4-.3.7-.6m7.6-1.5h-.8V62l-.8-.5v-1.7h-1.4q-.1.1-.2.4l-.1.1q0 .2.2.4l.5.9-.3.2-.7-1q-.3-.4-.3-.9 0-.7.8-.8h1.5v-.7H49l-.4-.7h4.2zm-.2 4.8q-.1.5-.7.5-.3 0-.6-.2-.5-.2-1.2-.9l.2-.3q.1.2.2.3.4.3.6.5.3.1.5.1.3 0 .6-.2.1-.1.1-.3t-.1-.2q-.1-.1-.2-.1-.2 0-.4.4l-.4-.5q.2-.3.5-.3h.2q.3 0 .5.3.3.3.3.7 0 .1-.1.2m5-4.8v.9l.1-.1q.2-.1.4-.1.4-.1.8.4.2.5.2.9v.1q-.1.6-.4 1.1l-.6-.4q.1-.2.1-.3.2-.3.3-.5.1-.3.1-.5t-.2-.2q-.1 0-.3.1-.2.2-.5.4V62l-.8-.6v-.7l-.7.3q-.5 0-.8-.3-.4-.4-.4-1 0-.4.2-.6.3-.3.7-.3h.4q.3.1.6.5v-.9H55l-.4-.7h2.3l.1.1h.2v-.1h.3l.1.1h.2v-.1h1.6l.4.7zm-.8 1.4q-.1-.1-.1-.2-.2-.2-.5-.3h-.1q-.3 0-.5.3-.2.2-.2.5v.1q.1.2.4.2.2 0 .5-.1.3-.2.5-.5m.7-2.1h-.3l-.3-.7q-.1-.1-.1-.2-.2-.3-.4-.4-.3-.2-.7-.2l-.1-.8q.6 0 .9.4.2.1.4.5l.1.2zm-.5 0H57l-.1-.2-.1-.1q-.1-.1-.3-.2h-.4l-.2-.6q.3 0 .5.1.3.1.5.4zm5.9.8v3.6l-.7-.6v-.7q-.5.5-1.1.5-.4 0-.8-.3t-.4-.8q-.1-.1-.1-.2 0-.4.4-.8.3-.3.8-.3.8 0 1.2.7v-1.1h-2.2l-.4-.8h3.4l.4.8zm-.8 1.5v-.2q-.3-.2-.8-.2h-.4q-.3.1-.5.3-.1.3-.1.5v.1q.1.2.4.2.4 0 .7-.2.5-.3.7-.5m1.7-1.5-.4-.8h2.2l.4.8zm2.8 1v-.3q.1-.1.4-.2t.3-.2q0-.2-.2-.3h-.6l-.3-.8h3.3l.4.8h-.5v3.6l-.8-.6v-.6q-.4.2-.8.2-.7 0-1.1-.6-.2-.4-.4-.9h.1q.1-.1.2-.1m-.7.4q-.1.2-.4.7l-.6-.4q0-.1.1-.3l.2-.2q-.2-.2-.4-.2-.1 0-.2.1-.4.2-.4.8 0 .2.1.4.2.6.8.9l-.2.3q-.2-.1-.6-.5-.3-.3-.4-.6-.3-.5-.3-1 0-.4.3-.7.2-.3.6-.3.2 0 .3.1.3.1.6.4 0-.1.3-.2.2-.1.4-.1t.5.1q-.3.1-.4.1.1.2.1.3-.2.1-.4.3m2.7-1.4h-1.1q.3.3.3.6 0 .1-.1.2-.1.4-.9.6.1.5.7.5l.1-.1q.3 0 .6-.1t.4-.3zm5.6 0h-.9v3.6l-.7-.5v-1.1h-1.3v.3q0 .3-.3.3-.2 0-.5-.4-.4-.4-.4-.6 0-.3.3-.3h.1v-1.3h-.2l-.4-.7h3.9zm-1.6 0h-1.3v1.3h1.3zm2 5.5-.2.2-.4-.4q-.4-.5-.7-.6-.2-.1-.5-.1h-.3l-.4-.7h.6q.3 0 .6.3.2.1.7.7z" class="s51"/><path d="m76.4 57.7.7.4v3.8l-.7-.4zM75.2 57.7l.7.4v3.8l-.7-.4zM25.7 57.7l.7.4v3.8l-.7-.4zM24.5 57.7l.6.4v3.8l-.6-.4z" class="s51"/><path fill-rule="evenodd" d="m12.9 37.7-.6-.2v-.1q.4-.5.6-.8.2-.7-.1-1.2-.3-.6-1-.8-.6-.2-1.2 0-.5.3-.8 1v1l-.7-.1v-.3q0-.6.1-.9.4-1 1.2-1.5.7-.4 1.7 0 1 .3 1.4 1.1t0 1.8q-.1.3-.4.8-.1.2-.2.2m-.4 2.9-.7-.1.5-1.8-1.2-.2-.4 1.6-.6-.1.4-1.7-1.2-.2-.4 1.8-.7-.2.6-2.6 4.3 1zm-.1.4-.2 1.1L9 43.3q-.1 0-.3.1-.2 0-.5.1.3-.1.6 0h.4l2.8.3-.1.8-4.3-.5.1-1.1 3.3-1.2q.1-.1.3-.1.2-.1.5-.1h-1L8 41.2l.1-.7zm-.5 3.7-.1 3.1h-.7l.1-1.1-3.7-.1v-.9l3.7.1v-1.1zm0 3.4v1.5q0 .7-.3 1.1-.2.4-.8.5-.4 0-.7-.3-.3-.2-.4-.6 0 .2-.1.3-.2.1-.5.3l-1.5.6v-.9l1.3-.5q.3-.1.4-.3t.1-.5V49l-1.9.1v-.9zm-.6.9H10v.5q.1.4.2.6.2.2.5.2.4 0 .5-.2.2-.2.1-.7zm.8 2.5.3 2.6-.6.1-.2-1.8-1.1.2.2 1.6-.7.1-.2-1.7-1.2.2.2 1.8-.7.1-.3-2.7zm.7 4.7.7 2.5-.6.1-.5-1.6-1.1.3.4 1.6-.6.1-.4-1.5-1.8.5-.3-.8zm1.5 4.6q.4.9 0 1.6-.4.8-1.4 1.1t-1.8 0q-.7-.3-1-1.2t.1-1.6q.4-.8 1.4-1.1t1.7 0 1 1.2m-.6.2q-.1-.5-.7-.6-.5-.2-1.2 0-.7.3-1 .7-.3.5-.1 1t.7.6q.5.2 1.2 0 .7-.3 1-.7.3-.5.1-1m2 3.4q.4.7.3 1.2-.1.4-.6.7-.4.2-.8.1-.3-.1-.6-.5.1.2 0 .3-.1.2-.3.5l-1.2 1.1-.3-.8 1-1q.2-.2.2-.4t-.1-.5l-.1-.2-1.6.7-.4-.7 4-1.8zm-.8-.3-1.2.5.2.4q.1.4.4.6.2.1.5 0 .3-.2.4-.4 0-.3-.2-.7zm2.5 3.4.7 1.1q.3.4.4.8.2.4.2.7 0 .5-.3 1-.3.4-.8.7-.5.4-1 .4-.5.1-1-.2-.3-.1-.6-.4t-.6-.8l-.6-1zm-.1 1.1-2.6 1.6.3.5q.4.6.9.7.6.1 1.2-.3t.7-.9q.1-.6-.3-1.2zm2.4 2.3 1.6 2.1-.5.4-1.1-1.4-.9.7 1.1 1.3-.5.4-1.1-1.3-1 .8 1.2 1.4-.5.4-1.7-2.1zm2.3 2.8L20.2 77l3.4-1.7.6.7-4.2 1.8-.7-.7 2.1-4.1zm2.3 2.3 2 1.8-.4.4-1.4-1.1-.8.8 1.3 1.2-.4.4-1.3-1.1-.8 1 1.4 1.2-.4.5-2.1-1.8zm3.1 2.6-2.1 3 1.4 1-.4.5-2.1-1.5 2.5-3.5zm3.1 2q.8.5 1 1.3.1.8-.5 1.7-.5.9-1.3 1.1t-1.6-.3-.9-1.3q-.2-.8.4-1.7t1.3-1.1q.8-.2 1.6.3m-.3.5q-.5-.3-1-.1t-.9.8T28 83q0 .5.4.8.5.3 1 .1t.9-.8.4-1.1q-.1-.6-.5-.9m2.4.7 1.1.6q.8.4 1 .9t-.1 1.1-.8.7q-.6.1-1.3-.3l-.4-.2-.7 1.5-.8-.4zm.5.9-.7 1.3.3.2q.4.2.7.1.3 0 .4-.4.2-.3.1-.5-.1-.3-.5-.5zm2.2.5 1.2.4v3.5q0 .2-.1.4l.2-.4q.1-.1.1-.2l2-2.5 1.3.4-1.4 4.1-.8-.3 1-3q.1-.2.1-.4.1-.2.2-.3-.1.1-.2.3-.1.1-.1.2l-2.3 2.8-.7-.3-.1-3.5q0-.1.1-.3v-.4q-.1.4-.1.6-.1.1-.1.2l-1 3-.7-.2zm7.8 2.3-.2.6-1.7-.4-.3 1.1 1.7.4-.2.6-1.6-.4-.3 1.3 1.8.4-.2.6-2.6-.6 1-4.2zm.4.1 1.1.2 1.2 3.2q0 .1.1.3 0 .2.1.5v-1l.3-2.8.8.1-.5 4.3-1.1-.1-1.2-3.3q-.1-.1-.1-.3t-.1-.5v1.1l-.4 2.7-.7-.1zm3.7.6h3.1v.7h-1.1l-.1 3.6h-.9l.1-3.6-1.1-.1zm6.9-.1q1-.1 1.6.4.6.6.6 1.7.1 1-.4 1.6-.5.7-1.4.8-1 0-1.6-.5-.6-.6-.7-1.6 0-1.1.5-1.7.5-.7 1.4-.7m.1.6q-.6 0-.9.5-.2.5-.2 1.2.1.7.4 1.1.4.4.9.4t.8-.5.3-1.2q-.1-.7-.4-1.1-.4-.4-.9-.4m2.3-.8 2.5-.5.1.7-1.6.2.2 1.2 1.5-.3.1.7-1.5.2.3 1.9-.8.1zm5.4-1.2 1-.3 3 3.5-.9.3-.7-.8-1.8.6v1.1l-.8.3zm.7.5-.1 2.1 1.4-.5zm2.9-1.8q.5-.3.9-.4t.7 0q.6.1 1 .4t.6.9q.3.5.3 1.1-.1.5-.4.9-.2.3-.5.5-.3.3-.8.5l-1.1.5-1.8-3.9zm-.1.7 1.3 2.8.4-.2q.7-.3.9-.9.2-.5-.1-1.2-.3-.6-.8-.8-.6-.2-1.2.1zm2.3-1.7.7-.4 2.8 2.5-.8-3.7.8-.4.8 4.5-.9.5zm4.5-2.6.8-.6 3.9 2.5-.8.5-.8-.6-1.6 1.1.3 1.1-.7.5zm.8.3.6 2 1.1-.9zm1.4-1.8.8-.7 3.2 1.2q.1.1.3.2t.4.3l-.4-.4-.3-.3-1.9-2.2.6-.5 2.9 3.3-.8.7-3.3-1.3q-.1 0-.3-.1t-.4-.3l.5.5q.2.2.3.2l1.8 2.2-.6.5zm6-4.6h-.1q-.5.3-.8.6-.5.5-.4 1.1 0 .6.5 1.1t1.1.5q.7 0 1.2-.6.1-.1.3-.6l.1-.2.6.4-.1.2q-.3.5-.5.8-.8.8-1.7.8-.9.1-1.6-.6t-.7-1.6q-.1-.9.7-1.7.2-.3.7-.6l.2-.1zm-.3-.8 1.6-2.1.5.4-1.1 1.4.9.7 1-1.3.5.4-1 1.3 1 .8 1.1-1.5.5.4-1.6 2.2zm2.6-3.5q.3-.5.6-.8.2-.3.5-.4.5-.2 1-.2.5.1 1.1.4.5.3.8.8.2.4.2 1 0 .3-.1.7-.2.4-.5.8l-.6 1-3.7-2.3zm.4.7 2.5 1.6.3-.4q.4-.6.2-1.2-.1-.5-.7-.9t-1.1-.3q-.6.1-1 .8zm3.5-7.5.6.3q0 .1-.1.1-.4.4-.5.8-.3.6-.1 1.2.2.5.9.9.6.2 1.2 0t.9-.9q.1-.2.1-.7V64l.7.2v.3q-.1.6-.3.9-.4 1-1.2 1.3-.8.4-1.8 0-.9-.5-1.2-1.3-.3-.9.1-1.8.2-.3.5-.8zm1.6-3.3q.7-.3 1.7 0t1.4 1q.4.8.1 1.7t-1.1 1.2q-.7.3-1.7 0-1-.4-1.4-1.1t-.1-1.6 1.1-1.2m-.5 1.4q-.1.5.2 1 .3.4 1 .7.7.2 1.2 0 .5-.1.7-.6.1-.5-.2-1-.3-.4-1-.7-.7-.2-1.2 0-.5.1-.7.6m.3-2.4.3-1.3 3.1-.3h.7q-.2-.1-.3-.1-.2-.1-.3-.2l-2.7-1.7.3-1.3 4.2 1-.2.8-3.1-.7q-.2-.1-.4-.1-.2-.1-.3-.1.1.1.3.1.2.1.2.2l3 1.9-.2.7-3.5.5h-.6q.3 0 .5.1h.2l3.2.7-.2.7zm1.2-6.4q0-.8.4-1.2t1-.3q.7 0 1 .5.3.4.3 1.2l-.1.4 1.7.2-.1.8-4.3-.3zm.6.5 1.4.1v-.4q.1-.4-.1-.6-.2-.3-.5-.3-.4 0-.6.2t-.2.6zm-.4-2.5V49l2.5.1q.7 0 1-.2t.3-.7q0-.4-.3-.7-.3-.2-1-.2l-2.5-.1.1-.8 2.5.1q.9 0 1.4.4.4.5.4 1.4 0 .8-.5 1.2-.5.5-1.4.4zm0-3.5-.2-3.2h.7l.1 1.1 3.6-.3.1.9-3.7.3.1 1.1zm-.3-3.5-.1-.8 4.3-.6.1.9zm-.4-2.4 2.6-2.3q.1-.1.3-.2l.4-.2q-.3.1-.5.2-.3.1-.4.1l-2.8.6-.2-.7 4.3-1 .2 1-2.7 2.3-.2.2-.4.2.6-.2q.3-.1.4-.1l2.7-.6.2.7-4.3 1zm-1.6-6.4.6-.1v.1q0 .7.1 1 .3.7.9 1 .5.3 1.2 0 .7-.2.9-.8.3-.5.1-1.2-.1-.1-.3-.4v-.1l-1.1.4.3.8-.6.1-.5-1.5 2.1-.7q.3.4.5.7.1.3.2.5.4 1.1 0 1.9-.3.8-1.3 1.2-1 .3-1.8-.1-.8-.5-1.2-1.6-.1-.2-.1-.8z" class="s52"/><path d="m14.9 26.6.4.9 1 .2-.7.6.2 1-.9-.5-.9.5.2-1-.7-.6 1-.2zM85.4 25.8l.4.9 1 .1-.8.7.2 1-.8-.5-.9.5.2-1-.8-.7 1-.1z" class="s52"/><path fill-rule="evenodd" d="M52.6 7.5h.8q-.1-.2 0-.5.1-1.3 1.7-1.2.7 0 1.5.8.6.6 1.1 1.4c3.4.6 6.8 1.5 10 2.8q2.3.9 4.6 2.1l-.4.7q-.5-.3-1.1-.5l-1.5 3.5-.7-.3.8-1.9-.8-.4-.1-.7 1.2.5.5-1.1c-.5-.2-.8-.3-1.3-.6l-.4 1.1q-.2.4-.5.4-.3.1-.6 0 .1.5.2.9.2.4.4.9l-.7.2q-.2-.4-.5-1.8-.2-.8-.3-1.6l.7-.1q0 .8.2.9.3.1.4-.2l.4-.9c-.8-.4-1.5-.7-2.3-.9l-1.2 3.6-.7-.2 1.2-3.7c-1.1-.4-2-.7-3.2-1l-.2 1.1q.4-.3.8-.2.5.1.7.5.3.5.2.9-.2.9-1.2 1.4l-.5-.5q.8-.4 1-1 .1-.6-.4-.7-.3-.1-.5.1t-.3.2l-.4 2-.7-.2.2-1q-.4.2-.8.1-.5-.1-.7-.6-.3-.4-.2-1 .2-.8 1-.9.3-.1.8 0v.6q-.9-.2-1.1.5-.1.7.4.8.4.1.8-.3l.4-1.9-1.4-.4q-.8-.1-1.6-.3l-.7 3.8-.7-.1.2-1.2q-.4.2-.9.1-.6 0-.9-.4-.4-.4-.3-.9.1-.6.5-.8.4-.3.9-.2.3 0 .5.1l.1.6q-.2-.2-.5-.2t-.5.1q-.2.2-.3.5-.1.6.7.7.4.1.8-.3l.4-1.9q-1.7-.3-3.4-.4l-.3 3.8-.8-.1.3-3.8q-.4 0-.8-.1zm1.4.1 2.8.4q-.3-.6-.7-1-.6-.5-1.2-.6-.9 0-.9.8zM30.8 11.1q.4-.2.8-.3c5.6-2.2 11.8-3.4 18.1-3.4H51v.8q-.6-.1-1.2-.1l.1 3.9h-.7l-.1-2.3-1.4.1v.8q0 .1-.2.1t-.6-.4q-.4-.5-.4-.7-.1-.3.2-.3l2.4-.2v-.9q-1.9 0-3.7.1l.3 3.9-.7.1-.3-3.9q-.6.1-1.2.1l.3 1.6q.1.4-.2.8t-.8.5-.9-.2-.5-.7l-.2-1.6c-.5 0-.8.1-1.2.2l.8 3.8-.7.2-.8-3.9-1.4.4.6 2q.1.4-.2.5-.1 0-.7-.2-.6-.3-.6-.4-.1-.3.2-.3l.3-.1-.3-1.3-1.7.5 1.2 3.7-.7.2-.6-2-.8.3-.7-.4 1.3-.4-.4-1.2-1.3.5.3 1q.2.4 0 .7-.2.2-.5.4l.8.4q.4.3.9.5l-.4.6q-.4-.2-1.6-1-.7-.4-1.2-.9l.4-.5q.5.5.8.4.2-.1.1-.4l-.3-1-1.7.7zm12-2.5q-.4.1-.9.1l.3 1.7q.1.4.6.4.4-.1.3-.6zM20.7 21.5q-.3.2-.7.1-.4 0-.7-.3l-1-1.2q-.4.4-.9.8l-.5-.5c3.4-3.4 7.4-6.2 11.8-8.3l.4.7-.7.4 1.7 3.4-.7.4-1.1-2.3-1.5.8q-.3.2-.1.5.3.5 1.1.7.6.3.7.2l-.2.7-.5-.2q-.5-.1-.9-.3-.6-.3-.8-.7-.2-.5-.1-.8t.3-.5l1.7-.9-.3-.7c-1.1.6-2 1-3.3 1.9l2 3.3-.6.4-2.1-3.3c-.6.4-.5.3-1.1.8l1.2 1.7q.2.3 0 .5-.2.1-.8 0-.6 0-.7-.1-.1-.2.1-.4l.3-.2L22 17q-.8.5-1.4 1.1l2.3 3-.6.5-.6-.8-.9 1.9-.6-.3zm-1.9-1.9 1 1.1c.5.6 1.1.2 1.4-.5L20 18.6q-.6.4-1.2 1" class="s52"/><path d="m35.4 8.9-.8.3-.2-.8.8-.3zM77.5 14.7l-.6-.4.4-.6.6.4z" class="s52"/><path fill-rule="evenodd" d="m73.8 13.7 2.2 1.4-.5-2 .7-.1.3 2.4c2.1 1.5 3.9 3.1 5.9 4.7l-.6.8q-.4-.4-.7-.8l-.6.7-1.3-1q-.1-.2-.3-.2-.3.1-.4.3-.5.6.5 1.5 0-.1.1-.1.3-.5.8-.1.2.1.2.3t-.1.3q-.3.4-.7.2-.1.2-.3.8 0 .1-.1.5l-.6-.4q0-.1.2-.5.1-.2.2-.5l-2.2-.4.1-.7 1.7.6q-1-1.2-.3-2.1.6-.8 1.4-.2l.9.8.2-.3q-2-1.8-4.2-3.3l-.5.8q.4-.1.8.2t.5.7q.1.5-.2.9-.4.7-1.6.9l-.2-.6q.9-.1 1.2-.6.3-.6-.1-.9-.2-.1-.6 0-.2 0-.3.1l-1 1.7-.6-.4.5-.9q-.4 0-.7-.2-.5-.3-.6-.8t.2-1q.4-.7 1.2-.5.4.1.8.3l-.2.6q-.8-.6-1.2 0t.1.9q.4.3.8 0l1.1-1.7-1-.6q-.7-.4-1.3-.8z" class="s52"/></g></svg>