<svg version="1.2" xmlns="http://www.w3.org/2000/svg" viewBox="0 0 100 96">
	<title>CDAC</title>
	<defs>
		<clipPath clipPathUnits="userSpaceOnUse" id="cp1">
			<path d="m50.21 95.51c-27.26 0-49.3-21.2-49.3-47.43 0-26.22 22.04-47.42 49.3-47.42 27.26 0 49.3 21.2 49.3 47.42 0 26.23-22.04 47.43-49.3 47.43z"/>
		</clipPath>
		<clipPath clipPathUnits="userSpaceOnUse" id="cp2">
			<path d="m50.21 95.51c-27.26 0-49.3-21.2-49.3-47.43 0-26.22 22.04-47.42 49.3-47.42 27.26 0 49.3 21.2 49.3 47.42 0 26.23-22.04 47.43-49.3 47.43z"/>
		</clipPath>
		<clipPath clipPathUnits="userSpaceOnUse" id="cp3">
			<path d="m50.21 95.51c-27.26 0-49.3-21.2-49.3-47.43 0-26.22 22.04-47.42 49.3-47.42 27.26 0 49.3 21.2 49.3 47.42 0 26.23-22.04 47.43-49.3 47.43z"/>
		</clipPath>
		<clipPath clipPathUnits="userSpaceOnUse" id="cp4">
			<path d="m50.21 95.51c-27.26 0-49.3-21.2-49.3-47.43 0-26.22 22.04-47.42 49.3-47.42 27.26 0 49.3 21.2 49.3 47.42 0 26.23-22.04 47.43-49.3 47.43z"/>
		</clipPath>
		<clipPath clipPathUnits="userSpaceOnUse" id="cp5">
			<path d="m50.21 95.51c-27.26 0-49.3-21.2-49.3-47.43 0-26.22 22.04-47.42 49.3-47.42 27.26 0 49.3 21.2 49.3 47.42 0 26.23-22.04 47.43-49.3 47.43z"/>
		</clipPath>
		<clipPath clipPathUnits="userSpaceOnUse" id="cp6">
			<path d="m50.21 95.51c-27.26 0-49.3-21.2-49.3-47.43 0-26.22 22.04-47.42 49.3-47.42 27.26 0 49.3 21.2 49.3 47.42 0 26.23-22.04 47.43-49.3 47.43z"/>
		</clipPath>
		<clipPath clipPathUnits="userSpaceOnUse" id="cp7">
			<path d="m50.21 95.51c-27.26 0-49.3-21.2-49.3-47.43 0-26.22 22.04-47.42 49.3-47.42 27.26 0 49.3 21.2 49.3 47.42 0 26.23-22.04 47.43-49.3 47.43z"/>
		</clipPath>
		<clipPath clipPathUnits="userSpaceOnUse" id="cp8">
			<path d="m50.21 95.51c-27.26 0-49.3-21.2-49.3-47.43 0-26.22 22.04-47.42 49.3-47.42 27.26 0 49.3 21.2 49.3 47.42 0 26.23-22.04 47.43-49.3 47.43z"/>
		</clipPath>
		<clipPath clipPathUnits="userSpaceOnUse" id="cp9">
			<path d="m50.21 95.51c-27.26 0-49.3-21.2-49.3-47.43 0-26.22 22.04-47.42 49.3-47.42 27.26 0 49.3 21.2 49.3 47.42 0 26.23-22.04 47.43-49.3 47.43z"/>
		</clipPath>
		<clipPath clipPathUnits="userSpaceOnUse" id="cp10">
			<path d="m50.21 95.51c-27.26 0-49.3-21.2-49.3-47.43 0-26.22 22.04-47.42 49.3-47.42 27.26 0 49.3 21.2 49.3 47.42 0 26.23-22.04 47.43-49.3 47.43z"/>
		</clipPath>
		<clipPath clipPathUnits="userSpaceOnUse" id="cp11">
			<path d="m50.21 95.51c-27.26 0-49.3-21.2-49.3-47.43 0-26.22 22.04-47.42 49.3-47.42 27.26 0 49.3 21.2 49.3 47.42 0 26.23-22.04 47.43-49.3 47.43z"/>
		</clipPath>
		<clipPath clipPathUnits="userSpaceOnUse" id="cp12">
			<path d="m50.21 95.51c-27.26 0-49.3-21.2-49.3-47.43 0-26.22 22.04-47.42 49.3-47.42 27.26 0 49.3 21.2 49.3 47.42 0 26.23-22.04 47.43-49.3 47.43z"/>
		</clipPath>
		<clipPath clipPathUnits="userSpaceOnUse" id="cp13">
			<path d="m50.21 95.51c-27.26 0-49.3-21.2-49.3-47.43 0-26.22 22.04-47.42 49.3-47.42 27.26 0 49.3 21.2 49.3 47.42 0 26.23-22.04 47.43-49.3 47.43z"/>
		</clipPath>
		<clipPath clipPathUnits="userSpaceOnUse" id="cp14">
			<path d="m50.21 95.51c-27.26 0-49.3-21.2-49.3-47.43 0-26.22 22.04-47.42 49.3-47.42 27.26 0 49.3 21.2 49.3 47.42 0 26.23-22.04 47.43-49.3 47.43z"/>
		</clipPath>
		<clipPath clipPathUnits="userSpaceOnUse" id="cp15">
			<path d="m50.21 95.51c-27.26 0-49.3-21.2-49.3-47.43 0-26.22 22.04-47.42 49.3-47.42 27.26 0 49.3 21.2 49.3 47.42 0 26.23-22.04 47.43-49.3 47.43z"/>
		</clipPath>
		<clipPath clipPathUnits="userSpaceOnUse" id="cp16">
			<path d="m50.21 95.51c-27.26 0-49.3-21.2-49.3-47.43 0-26.22 22.04-47.42 49.3-47.42 27.26 0 49.3 21.2 49.3 47.42 0 26.23-22.04 47.43-49.3 47.43z"/>
		</clipPath>
		<clipPath clipPathUnits="userSpaceOnUse" id="cp17">
			<path d="m50.21 95.51c-27.26 0-49.3-21.2-49.3-47.43 0-26.22 22.04-47.42 49.3-47.42 27.26 0 49.3 21.2 49.3 47.42 0 26.23-22.04 47.43-49.3 47.43z"/>
		</clipPath>
		<clipPath clipPathUnits="userSpaceOnUse" id="cp18">
			<path d="m50.21 95.51c-27.26 0-49.3-21.2-49.3-47.43 0-26.22 22.04-47.42 49.3-47.42 27.26 0 49.3 21.2 49.3 47.42 0 26.23-22.04 47.43-49.3 47.43z"/>
		</clipPath>
		<clipPath clipPathUnits="userSpaceOnUse" id="cp19">
			<path d="m50.21 95.51c-27.26 0-49.3-21.2-49.3-47.43 0-26.22 22.04-47.42 49.3-47.42 27.26 0 49.3 21.2 49.3 47.42 0 26.23-22.04 47.43-49.3 47.43z"/>
		</clipPath>
		<clipPath clipPathUnits="userSpaceOnUse" id="cp20">
			<path d="m50.21 95.51c-27.26 0-49.3-21.2-49.3-47.43 0-26.22 22.04-47.42 49.3-47.42 27.26 0 49.3 21.2 49.3 47.42 0 26.23-22.04 47.43-49.3 47.43z"/>
		</clipPath>
		<clipPath clipPathUnits="userSpaceOnUse" id="cp21">
			<path d="m50.21 95.51c-27.26 0-49.3-21.2-49.3-47.43 0-26.22 22.04-47.42 49.3-47.42 27.26 0 49.3 21.2 49.3 47.42 0 26.23-22.04 47.43-49.3 47.43z"/>
		</clipPath>
		<clipPath clipPathUnits="userSpaceOnUse" id="cp22">
			<path d="m50.21 95.51c-27.26 0-49.3-21.2-49.3-47.43 0-26.22 22.04-47.42 49.3-47.42 27.26 0 49.3 21.2 49.3 47.42 0 26.23-22.04 47.43-49.3 47.43z"/>
		</clipPath>
		<clipPath clipPathUnits="userSpaceOnUse" id="cp23">
			<path d="m50.21 95.51c-27.26 0-49.3-21.2-49.3-47.43 0-26.22 22.04-47.42 49.3-47.42 27.26 0 49.3 21.2 49.3 47.42 0 26.23-22.04 47.43-49.3 47.43z"/>
		</clipPath>
		<clipPath clipPathUnits="userSpaceOnUse" id="cp24">
			<path d="m50.21 95.51c-27.26 0-49.3-21.2-49.3-47.43 0-26.22 22.04-47.42 49.3-47.42 27.26 0 49.3 21.2 49.3 47.42 0 26.23-22.04 47.43-49.3 47.43z"/>
		</clipPath>
		<clipPath clipPathUnits="userSpaceOnUse" id="cp25">
			<path d="m50.21 95.51c-27.26 0-49.3-21.2-49.3-47.43 0-26.22 22.04-47.42 49.3-47.42 27.26 0 49.3 21.2 49.3 47.42 0 26.23-22.04 47.43-49.3 47.43z"/>
		</clipPath>
		<clipPath clipPathUnits="userSpaceOnUse" id="cp26">
			<path d="m50.21 95.51c-27.26 0-49.3-21.2-49.3-47.43 0-26.22 22.04-47.42 49.3-47.42 27.26 0 49.3 21.2 49.3 47.42 0 26.23-22.04 47.43-49.3 47.43z"/>
		</clipPath>
		<clipPath clipPathUnits="userSpaceOnUse" id="cp27">
			<path d="m50.21 95.51c-27.26 0-49.3-21.2-49.3-47.43 0-26.22 22.04-47.42 49.3-47.42 27.26 0 49.3 21.2 49.3 47.42 0 26.23-22.04 47.43-49.3 47.43z"/>
		</clipPath>
		<clipPath clipPathUnits="userSpaceOnUse" id="cp28">
			<path d="m50.21 95.51c-27.26 0-49.3-21.2-49.3-47.43 0-26.22 22.04-47.42 49.3-47.42 27.26 0 49.3 21.2 49.3 47.42 0 26.23-22.04 47.43-49.3 47.43z"/>
		</clipPath>
		<clipPath clipPathUnits="userSpaceOnUse" id="cp29">
			<path d="m50.21 95.51c-27.26 0-49.3-21.2-49.3-47.43 0-26.22 22.04-47.42 49.3-47.42 27.26 0 49.3 21.2 49.3 47.42 0 26.23-22.04 47.43-49.3 47.43z"/>
		</clipPath>
		<clipPath clipPathUnits="userSpaceOnUse" id="cp30">
			<path d="m50.21 95.51c-27.26 0-49.3-21.2-49.3-47.43 0-26.22 22.04-47.42 49.3-47.42 27.26 0 49.3 21.2 49.3 47.42 0 26.23-22.04 47.43-49.3 47.43z"/>
		</clipPath>
		<clipPath clipPathUnits="userSpaceOnUse" id="cp31">
			<path d="m50.21 95.51c-27.26 0-49.3-21.2-49.3-47.43 0-26.22 22.04-47.42 49.3-47.42 27.26 0 49.3 21.2 49.3 47.42 0 26.23-22.04 47.43-49.3 47.43z"/>
		</clipPath>
		<clipPath clipPathUnits="userSpaceOnUse" id="cp32">
			<path d="m50.21 95.51c-27.26 0-49.3-21.2-49.3-47.43 0-26.22 22.04-47.42 49.3-47.42 27.26 0 49.3 21.2 49.3 47.42 0 26.23-22.04 47.43-49.3 47.43z"/>
		</clipPath>
		<clipPath clipPathUnits="userSpaceOnUse" id="cp33">
			<path d="m50.21 95.51c-27.26 0-49.3-21.2-49.3-47.43 0-26.22 22.04-47.42 49.3-47.42 27.26 0 49.3 21.2 49.3 47.42 0 26.23-22.04 47.43-49.3 47.43z"/>
		</clipPath>
		<clipPath clipPathUnits="userSpaceOnUse" id="cp34">
			<path d="m50.21 95.51c-27.26 0-49.3-21.2-49.3-47.43 0-26.22 22.04-47.42 49.3-47.42 27.26 0 49.3 21.2 49.3 47.42 0 26.23-22.04 47.43-49.3 47.43z"/>
		</clipPath>
		<clipPath clipPathUnits="userSpaceOnUse" id="cp35">
			<path d="m50.21 95.51c-27.26 0-49.3-21.2-49.3-47.43 0-26.22 22.04-47.42 49.3-47.42 27.26 0 49.3 21.2 49.3 47.42 0 26.23-22.04 47.43-49.3 47.43z"/>
		</clipPath>
		<clipPath clipPathUnits="userSpaceOnUse" id="cp36">
			<path d="m50.21 95.51c-27.26 0-49.3-21.2-49.3-47.43 0-26.22 22.04-47.42 49.3-47.42 27.26 0 49.3 21.2 49.3 47.42 0 26.23-22.04 47.43-49.3 47.43z"/>
		</clipPath>
		<clipPath clipPathUnits="userSpaceOnUse" id="cp37">
			<path d="m50.21 95.51c-27.26 0-49.3-21.2-49.3-47.43 0-26.22 22.04-47.42 49.3-47.42 27.26 0 49.3 21.2 49.3 47.42 0 26.23-22.04 47.43-49.3 47.43z"/>
		</clipPath>
		<clipPath clipPathUnits="userSpaceOnUse" id="cp38">
			<path d="m50.21 95.51c-27.26 0-49.3-21.2-49.3-47.43 0-26.22 22.04-47.42 49.3-47.42 27.26 0 49.3 21.2 49.3 47.42 0 26.23-22.04 47.43-49.3 47.43z"/>
		</clipPath>
		<clipPath clipPathUnits="userSpaceOnUse" id="cp39">
			<path d="m50.21 95.51c-27.26 0-49.3-21.2-49.3-47.43 0-26.22 22.04-47.42 49.3-47.42 27.26 0 49.3 21.2 49.3 47.42 0 26.23-22.04 47.43-49.3 47.43z"/>
		</clipPath>
		<clipPath clipPathUnits="userSpaceOnUse" id="cp40">
			<path d="m50.21 95.51c-27.26 0-49.3-21.2-49.3-47.43 0-26.22 22.04-47.42 49.3-47.42 27.26 0 49.3 21.2 49.3 47.42 0 26.23-22.04 47.43-49.3 47.43z"/>
		</clipPath>
		<clipPath clipPathUnits="userSpaceOnUse" id="cp41">
			<path d="m50.21 95.51c-27.26 0-49.3-21.2-49.3-47.43 0-26.22 22.04-47.42 49.3-47.42 27.26 0 49.3 21.2 49.3 47.42 0 26.23-22.04 47.43-49.3 47.43z"/>
		</clipPath>
		<clipPath clipPathUnits="userSpaceOnUse" id="cp42">
			<path d="m50.21 95.51c-27.26 0-49.3-21.2-49.3-47.43 0-26.22 22.04-47.42 49.3-47.42 27.26 0 49.3 21.2 49.3 47.42 0 26.23-22.04 47.43-49.3 47.43z"/>
		</clipPath>
		<clipPath clipPathUnits="userSpaceOnUse" id="cp43">
			<path d="m50.21 95.51c-27.26 0-49.3-21.2-49.3-47.43 0-26.22 22.04-47.42 49.3-47.42 27.26 0 49.3 21.2 49.3 47.42 0 26.23-22.04 47.43-49.3 47.43z"/>
		</clipPath>
		<clipPath clipPathUnits="userSpaceOnUse" id="cp44">
			<path d="m50.21 95.51c-27.26 0-49.3-21.2-49.3-47.43 0-26.22 22.04-47.42 49.3-47.42 27.26 0 49.3 21.2 49.3 47.42 0 26.23-22.04 47.43-49.3 47.43z"/>
		</clipPath>
		<clipPath clipPathUnits="userSpaceOnUse" id="cp45">
			<path d="m50.21 95.51c-27.26 0-49.3-21.2-49.3-47.43 0-26.22 22.04-47.42 49.3-47.42 27.26 0 49.3 21.2 49.3 47.42 0 26.23-22.04 47.43-49.3 47.43z"/>
		</clipPath>
		<clipPath clipPathUnits="userSpaceOnUse" id="cp46">
			<path d="m50.21 95.51c-27.26 0-49.3-21.2-49.3-47.43 0-26.22 22.04-47.42 49.3-47.42 27.26 0 49.3 21.2 49.3 47.42 0 26.23-22.04 47.43-49.3 47.43z"/>
		</clipPath>
		<clipPath clipPathUnits="userSpaceOnUse" id="cp47">
			<path d="m50.21 95.51c-27.26 0-49.3-21.2-49.3-47.43 0-26.22 22.04-47.42 49.3-47.42 27.26 0 49.3 21.2 49.3 47.42 0 26.23-22.04 47.43-49.3 47.43z"/>
		</clipPath>
		<clipPath clipPathUnits="userSpaceOnUse" id="cp48">
			<path d="m50.21 95.51c-27.26 0-49.3-21.2-49.3-47.43 0-26.22 22.04-47.42 49.3-47.42 27.26 0 49.3 21.2 49.3 47.42 0 26.23-22.04 47.43-49.3 47.43z"/>
		</clipPath>
		<clipPath clipPathUnits="userSpaceOnUse" id="cp49">
			<path d="m50.21 95.51c-27.26 0-49.3-21.2-49.3-47.43 0-26.22 22.04-47.42 49.3-47.42 27.26 0 49.3 21.2 49.3 47.42 0 26.23-22.04 47.43-49.3 47.43z"/>
		</clipPath>
		<clipPath clipPathUnits="userSpaceOnUse" id="cp50">
			<path d="m50.21 95.51c-27.26 0-49.3-21.2-49.3-47.43 0-26.22 22.04-47.42 49.3-47.42 27.26 0 49.3 21.2 49.3 47.42 0 26.23-22.04 47.43-49.3 47.43z"/>
		</clipPath>
		<clipPath clipPathUnits="userSpaceOnUse" id="cp51">
			<path d="m50.21 95.51c-27.26 0-49.3-21.2-49.3-47.43 0-26.22 22.04-47.42 49.3-47.42 27.26 0 49.3 21.2 49.3 47.42 0 26.23-22.04 47.43-49.3 47.43z"/>
		</clipPath>
		<clipPath clipPathUnits="userSpaceOnUse" id="cp52">
			<path d="m50.21 95.51c-27.26 0-49.3-21.2-49.3-47.43 0-26.22 22.04-47.42 49.3-47.42 27.26 0 49.3 21.2 49.3 47.42 0 26.23-22.04 47.43-49.3 47.43z"/>
		</clipPath>
		<clipPath clipPathUnits="userSpaceOnUse" id="cp53">
			<path d="m50.21 95.51c-27.26 0-49.3-21.2-49.3-47.43 0-26.22 22.04-47.42 49.3-47.42 27.26 0 49.3 21.2 49.3 47.42 0 26.23-22.04 47.43-49.3 47.43z"/>
		</clipPath>
		<clipPath clipPathUnits="userSpaceOnUse" id="cp54">
			<path d="m50.21 95.51c-27.26 0-49.3-21.2-49.3-47.43 0-26.22 22.04-47.42 49.3-47.42 27.26 0 49.3 21.2 49.3 47.42 0 26.23-22.04 47.43-49.3 47.43z"/>
		</clipPath>
		<clipPath clipPathUnits="userSpaceOnUse" id="cp55">
			<path d="m50.21 95.51c-27.26 0-49.3-21.2-49.3-47.43 0-26.22 22.04-47.42 49.3-47.42 27.26 0 49.3 21.2 49.3 47.42 0 26.23-22.04 47.43-49.3 47.43z"/>
		</clipPath>
		<clipPath clipPathUnits="userSpaceOnUse" id="cp56">
			<path d="m50.21 95.51c-27.26 0-49.3-21.2-49.3-47.43 0-26.22 22.04-47.42 49.3-47.42 27.26 0 49.3 21.2 49.3 47.42 0 26.23-22.04 47.43-49.3 47.43z"/>
		</clipPath>
		<clipPath clipPathUnits="userSpaceOnUse" id="cp57">
			<path d="m50.21 95.51c-27.26 0-49.3-21.2-49.3-47.43 0-26.22 22.04-47.42 49.3-47.42 27.26 0 49.3 21.2 49.3 47.42 0 26.23-22.04 47.43-49.3 47.43z"/>
		</clipPath>
		<clipPath clipPathUnits="userSpaceOnUse" id="cp58">
			<path d="m50.21 95.51c-27.26 0-49.3-21.2-49.3-47.43 0-26.22 22.04-47.42 49.3-47.42 27.26 0 49.3 21.2 49.3 47.42 0 26.23-22.04 47.43-49.3 47.43z"/>
		</clipPath>
		<clipPath clipPathUnits="userSpaceOnUse" id="cp59">
			<path d="m50.21 95.51c-27.26 0-49.3-21.2-49.3-47.43 0-26.22 22.04-47.42 49.3-47.42 27.26 0 49.3 21.2 49.3 47.42 0 26.23-22.04 47.43-49.3 47.43z"/>
		</clipPath>
		<clipPath clipPathUnits="userSpaceOnUse" id="cp60">
			<path d="m50.21 95.51c-27.26 0-49.3-21.2-49.3-47.43 0-26.22 22.04-47.42 49.3-47.42 27.26 0 49.3 21.2 49.3 47.42 0 26.23-22.04 47.43-49.3 47.43z"/>
		</clipPath>
		<clipPath clipPathUnits="userSpaceOnUse" id="cp61">
			<path d="m50.21 95.51c-27.26 0-49.3-21.2-49.3-47.43 0-26.22 22.04-47.42 49.3-47.42 27.26 0 49.3 21.2 49.3 47.42 0 26.23-22.04 47.43-49.3 47.43z"/>
		</clipPath>
		<clipPath clipPathUnits="userSpaceOnUse" id="cp62">
			<path d="m50.21 95.51c-27.26 0-49.3-21.2-49.3-47.43 0-26.22 22.04-47.42 49.3-47.42 27.26 0 49.3 21.2 49.3 47.42 0 26.23-22.04 47.43-49.3 47.43z"/>
		</clipPath>
		<clipPath clipPathUnits="userSpaceOnUse" id="cp63">
			<path d="m50.21 95.51c-27.26 0-49.3-21.2-49.3-47.43 0-26.22 22.04-47.42 49.3-47.42 27.26 0 49.3 21.2 49.3 47.42 0 26.23-22.04 47.43-49.3 47.43z"/>
		</clipPath>
		<clipPath clipPathUnits="userSpaceOnUse" id="cp64">
			<path d="m50.21 95.51c-27.26 0-49.3-21.2-49.3-47.43 0-26.22 22.04-47.42 49.3-47.42 27.26 0 49.3 21.2 49.3 47.42 0 26.23-22.04 47.43-49.3 47.43z"/>
		</clipPath>
		<clipPath clipPathUnits="userSpaceOnUse" id="cp65">
			<path d="m50.21 95.51c-27.26 0-49.3-21.2-49.3-47.43 0-26.22 22.04-47.42 49.3-47.42 27.26 0 49.3 21.2 49.3 47.42 0 26.23-22.04 47.43-49.3 47.43z"/>
		</clipPath>
		<clipPath clipPathUnits="userSpaceOnUse" id="cp66">
			<path d="m50.21 95.51c-27.26 0-49.3-21.2-49.3-47.43 0-26.22 22.04-47.42 49.3-47.42 27.26 0 49.3 21.2 49.3 47.42 0 26.23-22.04 47.43-49.3 47.43z"/>
		</clipPath>
		<clipPath clipPathUnits="userSpaceOnUse" id="cp67">
			<path d="m50.21 95.51c-27.26 0-49.3-21.2-49.3-47.43 0-26.22 22.04-47.42 49.3-47.42 27.26 0 49.3 21.2 49.3 47.42 0 26.23-22.04 47.43-49.3 47.43z"/>
		</clipPath>
		<clipPath clipPathUnits="userSpaceOnUse" id="cp68">
			<path d="m50.21 95.51c-27.26 0-49.3-21.2-49.3-47.43 0-26.22 22.04-47.42 49.3-47.42 27.26 0 49.3 21.2 49.3 47.42 0 26.23-22.04 47.43-49.3 47.43z"/>
		</clipPath>
		<clipPath clipPathUnits="userSpaceOnUse" id="cp69">
			<path d="m50.21 95.51c-27.26 0-49.3-21.2-49.3-47.43 0-26.22 22.04-47.42 49.3-47.42 27.26 0 49.3 21.2 49.3 47.42 0 26.23-22.04 47.43-49.3 47.43z"/>
		</clipPath>
		<clipPath clipPathUnits="userSpaceOnUse" id="cp70">
			<path d="m50.21 95.51c-27.26 0-49.3-21.2-49.3-47.43 0-26.22 22.04-47.42 49.3-47.42 27.26 0 49.3 21.2 49.3 47.42 0 26.23-22.04 47.43-49.3 47.43z"/>
		</clipPath>
		<clipPath clipPathUnits="userSpaceOnUse" id="cp71">
			<path d="m50.21 95.51c-27.26 0-49.3-21.2-49.3-47.43 0-26.22 22.04-47.42 49.3-47.42 27.26 0 49.3 21.2 49.3 47.42 0 26.23-22.04 47.43-49.3 47.43z"/>
		</clipPath>
		<clipPath clipPathUnits="userSpaceOnUse" id="cp72">
			<path d="m50.21 95.51c-27.26 0-49.3-21.2-49.3-47.43 0-26.22 22.04-47.42 49.3-47.42 27.26 0 49.3 21.2 49.3 47.42 0 26.23-22.04 47.43-49.3 47.43z"/>
		</clipPath>
		<clipPath clipPathUnits="userSpaceOnUse" id="cp73">
			<path d="m50.21 95.51c-27.26 0-49.3-21.2-49.3-47.43 0-26.22 22.04-47.42 49.3-47.42 27.26 0 49.3 21.2 49.3 47.42 0 26.23-22.04 47.43-49.3 47.43z"/>
		</clipPath>
		<clipPath clipPathUnits="userSpaceOnUse" id="cp74">
			<path d="m50.21 95.51c-27.26 0-49.3-21.2-49.3-47.43 0-26.22 22.04-47.42 49.3-47.42 27.26 0 49.3 21.2 49.3 47.42 0 26.23-22.04 47.43-49.3 47.43z"/>
		</clipPath>
		<clipPath clipPathUnits="userSpaceOnUse" id="cp75">
			<path d="m50.21 95.51c-27.26 0-49.3-21.2-49.3-47.43 0-26.22 22.04-47.42 49.3-47.42 27.26 0 49.3 21.2 49.3 47.42 0 26.23-22.04 47.43-49.3 47.43z"/>
		</clipPath>
		<clipPath clipPathUnits="userSpaceOnUse" id="cp76">
			<path d="m50.21 95.51c-27.26 0-49.3-21.2-49.3-47.43 0-26.22 22.04-47.42 49.3-47.42 27.26 0 49.3 21.2 49.3 47.42 0 26.23-22.04 47.43-49.3 47.43z"/>
		</clipPath>
		<clipPath clipPathUnits="userSpaceOnUse" id="cp77">
			<path d="m50.21 95.51c-27.26 0-49.3-21.2-49.3-47.43 0-26.22 22.04-47.42 49.3-47.42 27.26 0 49.3 21.2 49.3 47.42 0 26.23-22.04 47.43-49.3 47.43z"/>
		</clipPath>
		<clipPath clipPathUnits="userSpaceOnUse" id="cp78">
			<path d="m50.21 95.51c-27.26 0-49.3-21.2-49.3-47.43 0-26.22 22.04-47.42 49.3-47.42 27.26 0 49.3 21.2 49.3 47.42 0 26.23-22.04 47.43-49.3 47.43z"/>
		</clipPath>
		<clipPath clipPathUnits="userSpaceOnUse" id="cp79">
			<path d="m50.21 95.51c-27.26 0-49.3-21.2-49.3-47.43 0-26.22 22.04-47.42 49.3-47.42 27.26 0 49.3 21.2 49.3 47.42 0 26.23-22.04 47.43-49.3 47.43z"/>
		</clipPath>
		<clipPath clipPathUnits="userSpaceOnUse" id="cp80">
			<path d="m50.21 95.51c-27.26 0-49.3-21.2-49.3-47.43 0-26.22 22.04-47.42 49.3-47.42 27.26 0 49.3 21.2 49.3 47.42 0 26.23-22.04 47.43-49.3 47.43z"/>
		</clipPath>
		<clipPath clipPathUnits="userSpaceOnUse" id="cp81">
			<path d="m50.21 95.51c-27.26 0-49.3-21.2-49.3-47.43 0-26.22 22.04-47.42 49.3-47.42 27.26 0 49.3 21.2 49.3 47.42 0 26.23-22.04 47.43-49.3 47.43z"/>
		</clipPath>
		<clipPath clipPathUnits="userSpaceOnUse" id="cp82">
			<path d="m50.21 95.51c-27.26 0-49.3-21.2-49.3-47.43 0-26.22 22.04-47.42 49.3-47.42 27.26 0 49.3 21.2 49.3 47.42 0 26.23-22.04 47.43-49.3 47.43z"/>
		</clipPath>
		<clipPath clipPathUnits="userSpaceOnUse" id="cp83">
			<path d="m50.21 95.51c-27.26 0-49.3-21.2-49.3-47.43 0-26.22 22.04-47.42 49.3-47.42 27.26 0 49.3 21.2 49.3 47.42 0 26.23-22.04 47.43-49.3 47.43z"/>
		</clipPath>
		<clipPath clipPathUnits="userSpaceOnUse" id="cp84">
			<path d="m50.21 95.51c-27.26 0-49.3-21.2-49.3-47.43 0-26.22 22.04-47.42 49.3-47.42 27.26 0 49.3 21.2 49.3 47.42 0 26.23-22.04 47.43-49.3 47.43z"/>
		</clipPath>
		<clipPath clipPathUnits="userSpaceOnUse" id="cp85">
			<path d="m50.21 95.51c-27.26 0-49.3-21.2-49.3-47.43 0-26.22 22.04-47.42 49.3-47.42 27.26 0 49.3 21.2 49.3 47.42 0 26.23-22.04 47.43-49.3 47.43z"/>
		</clipPath>
		<clipPath clipPathUnits="userSpaceOnUse" id="cp86">
			<path d="m50.21 95.51c-27.26 0-49.3-21.2-49.3-47.43 0-26.22 22.04-47.42 49.3-47.42 27.26 0 49.3 21.2 49.3 47.42 0 26.23-22.04 47.43-49.3 47.43z"/>
		</clipPath>
		<clipPath clipPathUnits="userSpaceOnUse" id="cp87">
			<path d="m50.21 95.51c-27.26 0-49.3-21.2-49.3-47.43 0-26.22 22.04-47.42 49.3-47.42 27.26 0 49.3 21.2 49.3 47.42 0 26.23-22.04 47.43-49.3 47.43z"/>
		</clipPath>
		<clipPath clipPathUnits="userSpaceOnUse" id="cp88">
			<path d="m50.21 95.51c-27.26 0-49.3-21.2-49.3-47.43 0-26.22 22.04-47.42 49.3-47.42 27.26 0 49.3 21.2 49.3 47.42 0 26.23-22.04 47.43-49.3 47.43z"/>
		</clipPath>
		<clipPath clipPathUnits="userSpaceOnUse" id="cp89">
			<path d="m50.21 95.51c-27.26 0-49.3-21.2-49.3-47.43 0-26.22 22.04-47.42 49.3-47.42 27.26 0 49.3 21.2 49.3 47.42 0 26.23-22.04 47.43-49.3 47.43z"/>
		</clipPath>
		<clipPath clipPathUnits="userSpaceOnUse" id="cp90">
			<path d="m50.21 95.51c-27.26 0-49.3-21.2-49.3-47.43 0-26.22 22.04-47.42 49.3-47.42 27.26 0 49.3 21.2 49.3 47.42 0 26.23-22.04 47.43-49.3 47.43z"/>
		</clipPath>
		<clipPath clipPathUnits="userSpaceOnUse" id="cp91">
			<path d="m50.21 95.51c-27.26 0-49.3-21.2-49.3-47.43 0-26.22 22.04-47.42 49.3-47.42 27.26 0 49.3 21.2 49.3 47.42 0 26.23-22.04 47.43-49.3 47.43z"/>
		</clipPath>
		<clipPath clipPathUnits="userSpaceOnUse" id="cp92">
			<path d="m50.21 95.51c-27.26 0-49.3-21.2-49.3-47.43 0-26.22 22.04-47.42 49.3-47.42 27.26 0 49.3 21.2 49.3 47.42 0 26.23-22.04 47.43-49.3 47.43z"/>
		</clipPath>
		<clipPath clipPathUnits="userSpaceOnUse" id="cp93">
			<path d="m50.21 95.51c-27.26 0-49.3-21.2-49.3-47.43 0-26.22 22.04-47.42 49.3-47.42 27.26 0 49.3 21.2 49.3 47.42 0 26.23-22.04 47.43-49.3 47.43z"/>
		</clipPath>
		<clipPath clipPathUnits="userSpaceOnUse" id="cp94">
			<path d="m50.21 95.51c-27.26 0-49.3-21.2-49.3-47.43 0-26.22 22.04-47.42 49.3-47.42 27.26 0 49.3 21.2 49.3 47.42 0 26.23-22.04 47.43-49.3 47.43z"/>
		</clipPath>
		<clipPath clipPathUnits="userSpaceOnUse" id="cp95">
			<path d="m50.21 95.51c-27.26 0-49.3-21.2-49.3-47.43 0-26.22 22.04-47.42 49.3-47.42 27.26 0 49.3 21.2 49.3 47.42 0 26.23-22.04 47.43-49.3 47.43z"/>
		</clipPath>
		<clipPath clipPathUnits="userSpaceOnUse" id="cp96">
			<path d="m50.21 95.51c-27.26 0-49.3-21.2-49.3-47.43 0-26.22 22.04-47.42 49.3-47.42 27.26 0 49.3 21.2 49.3 47.42 0 26.23-22.04 47.43-49.3 47.43z"/>
		</clipPath>
		<clipPath clipPathUnits="userSpaceOnUse" id="cp97">
			<path d="m50.21 95.51c-27.26 0-49.3-21.2-49.3-47.43 0-26.22 22.04-47.42 49.3-47.42 27.26 0 49.3 21.2 49.3 47.42 0 26.23-22.04 47.43-49.3 47.43z"/>
		</clipPath>
		<clipPath clipPathUnits="userSpaceOnUse" id="cp98">
			<path d="m50.21 95.51c-27.26 0-49.3-21.2-49.3-47.43 0-26.22 22.04-47.42 49.3-47.42 27.26 0 49.3 21.2 49.3 47.42 0 26.23-22.04 47.43-49.3 47.43z"/>
		</clipPath>
		<clipPath clipPathUnits="userSpaceOnUse" id="cp99">
			<path d="m50.21 94.22c-26.17 0-47.33-20.5-47.33-45.88 0-25.37 21.16-45.88 47.33-45.88 26.17 0 47.33 20.51 47.33 45.88 0 25.38-21.16 45.88-47.33 45.88z"/>
		</clipPath>
		<clipPath clipPathUnits="userSpaceOnUse" id="cp100">
			<path d="m50.21 94.22c-26.17 0-47.33-20.5-47.33-45.88 0-25.37 21.16-45.88 47.33-45.88 26.17 0 47.33 20.51 47.33 45.88 0 25.38-21.16 45.88-47.33 45.88z"/>
		</clipPath>
		<clipPath clipPathUnits="userSpaceOnUse" id="cp101">
			<path d="m50.21 94.22c-26.17 0-47.33-20.5-47.33-45.88 0-25.37 21.16-45.88 47.33-45.88 26.17 0 47.33 20.51 47.33 45.88 0 25.38-21.16 45.88-47.33 45.88z"/>
		</clipPath>
		<clipPath clipPathUnits="userSpaceOnUse" id="cp102">
			<path d="m50.21 94.22c-26.17 0-47.33-20.5-47.33-45.88 0-25.37 21.16-45.88 47.33-45.88 26.17 0 47.33 20.51 47.33 45.88 0 25.38-21.16 45.88-47.33 45.88z"/>
		</clipPath>
		<clipPath clipPathUnits="userSpaceOnUse" id="cp103">
			<path d="m50.21 94.22c-26.17 0-47.33-20.5-47.33-45.88 0-25.37 21.16-45.88 47.33-45.88 26.17 0 47.33 20.51 47.33 45.88 0 25.38-21.16 45.88-47.33 45.88z"/>
		</clipPath>
		<clipPath clipPathUnits="userSpaceOnUse" id="cp104">
			<path d="m50.21 94.22c-26.17 0-47.33-20.5-47.33-45.88 0-25.37 21.16-45.88 47.33-45.88 26.17 0 47.33 20.51 47.33 45.88 0 25.38-21.16 45.88-47.33 45.88z"/>
		</clipPath>
		<clipPath clipPathUnits="userSpaceOnUse" id="cp105">
			<path d="m50.21 94.22c-26.17 0-47.33-20.5-47.33-45.88 0-25.37 21.16-45.88 47.33-45.88 26.17 0 47.33 20.51 47.33 45.88 0 25.38-21.16 45.88-47.33 45.88z"/>
		</clipPath>
		<clipPath clipPathUnits="userSpaceOnUse" id="cp106">
			<path d="m50.21 94.22c-26.17 0-47.33-20.5-47.33-45.88 0-25.37 21.16-45.88 47.33-45.88 26.17 0 47.33 20.51 47.33 45.88 0 25.38-21.16 45.88-47.33 45.88z"/>
		</clipPath>
		<clipPath clipPathUnits="userSpaceOnUse" id="cp107">
			<path d="m50.21 94.22c-26.17 0-47.33-20.5-47.33-45.88 0-25.37 21.16-45.88 47.33-45.88 26.17 0 47.33 20.51 47.33 45.88 0 25.38-21.16 45.88-47.33 45.88z"/>
		</clipPath>
		<clipPath clipPathUnits="userSpaceOnUse" id="cp108">
			<path d="m50.21 94.22c-26.17 0-47.33-20.5-47.33-45.88 0-25.37 21.16-45.88 47.33-45.88 26.17 0 47.33 20.51 47.33 45.88 0 25.38-21.16 45.88-47.33 45.88z"/>
		</clipPath>
		<clipPath clipPathUnits="userSpaceOnUse" id="cp109">
			<path d="m50.21 94.22c-26.17 0-47.33-20.5-47.33-45.88 0-25.37 21.16-45.88 47.33-45.88 26.17 0 47.33 20.51 47.33 45.88 0 25.38-21.16 45.88-47.33 45.88z"/>
		</clipPath>
		<clipPath clipPathUnits="userSpaceOnUse" id="cp110">
			<path d="m50.21 94.22c-26.17 0-47.33-20.5-47.33-45.88 0-25.37 21.16-45.88 47.33-45.88 26.17 0 47.33 20.51 47.33 45.88 0 25.38-21.16 45.88-47.33 45.88z"/>
		</clipPath>
		<clipPath clipPathUnits="userSpaceOnUse" id="cp111">
			<path d="m50.21 94.22c-26.17 0-47.33-20.5-47.33-45.88 0-25.37 21.16-45.88 47.33-45.88 26.17 0 47.33 20.51 47.33 45.88 0 25.38-21.16 45.88-47.33 45.88z"/>
		</clipPath>
		<clipPath clipPathUnits="userSpaceOnUse" id="cp112">
			<path d="m50.21 94.22c-26.17 0-47.33-20.5-47.33-45.88 0-25.37 21.16-45.88 47.33-45.88 26.17 0 47.33 20.51 47.33 45.88 0 25.38-21.16 45.88-47.33 45.88z"/>
		</clipPath>
		<clipPath clipPathUnits="userSpaceOnUse" id="cp113">
			<path d="m50.21 94.22c-26.17 0-47.33-20.5-47.33-45.88 0-25.37 21.16-45.88 47.33-45.88 26.17 0 47.33 20.51 47.33 45.88 0 25.38-21.16 45.88-47.33 45.88z"/>
		</clipPath>
		<clipPath clipPathUnits="userSpaceOnUse" id="cp114">
			<path d="m50.21 94.22c-26.17 0-47.33-20.5-47.33-45.88 0-25.37 21.16-45.88 47.33-45.88 26.17 0 47.33 20.51 47.33 45.88 0 25.38-21.16 45.88-47.33 45.88z"/>
		</clipPath>
		<clipPath clipPathUnits="userSpaceOnUse" id="cp115">
			<path d="m50.21 94.22c-26.17 0-47.33-20.5-47.33-45.88 0-25.37 21.16-45.88 47.33-45.88 26.17 0 47.33 20.51 47.33 45.88 0 25.38-21.16 45.88-47.33 45.88z"/>
		</clipPath>
		<clipPath clipPathUnits="userSpaceOnUse" id="cp116">
			<path d="m50.21 94.22c-26.17 0-47.33-20.5-47.33-45.88 0-25.37 21.16-45.88 47.33-45.88 26.17 0 47.33 20.51 47.33 45.88 0 25.38-21.16 45.88-47.33 45.88z"/>
		</clipPath>
		<clipPath clipPathUnits="userSpaceOnUse" id="cp117">
			<path d="m50.21 94.22c-26.17 0-47.33-20.5-47.33-45.88 0-25.37 21.16-45.88 47.33-45.88 26.17 0 47.33 20.51 47.33 45.88 0 25.38-21.16 45.88-47.33 45.88z"/>
		</clipPath>
		<clipPath clipPathUnits="userSpaceOnUse" id="cp118">
			<path d="m50.21 94.22c-26.17 0-47.33-20.5-47.33-45.88 0-25.37 21.16-45.88 47.33-45.88 26.17 0 47.33 20.51 47.33 45.88 0 25.38-21.16 45.88-47.33 45.88z"/>
		</clipPath>
		<clipPath clipPathUnits="userSpaceOnUse" id="cp119">
			<path d="m50.21 94.22c-26.17 0-47.33-20.5-47.33-45.88 0-25.37 21.16-45.88 47.33-45.88 26.17 0 47.33 20.51 47.33 45.88 0 25.38-21.16 45.88-47.33 45.88z"/>
		</clipPath>
		<clipPath clipPathUnits="userSpaceOnUse" id="cp120">
			<path d="m50.21 94.22c-26.17 0-47.33-20.5-47.33-45.88 0-25.37 21.16-45.88 47.33-45.88 26.17 0 47.33 20.51 47.33 45.88 0 25.38-21.16 45.88-47.33 45.88z"/>
		</clipPath>
		<clipPath clipPathUnits="userSpaceOnUse" id="cp121">
			<path d="m50.21 94.22c-26.17 0-47.33-20.5-47.33-45.88 0-25.37 21.16-45.88 47.33-45.88 26.17 0 47.33 20.51 47.33 45.88 0 25.38-21.16 45.88-47.33 45.88z"/>
		</clipPath>
		<clipPath clipPathUnits="userSpaceOnUse" id="cp122">
			<path d="m50.21 94.22c-26.17 0-47.33-20.5-47.33-45.88 0-25.37 21.16-45.88 47.33-45.88 26.17 0 47.33 20.51 47.33 45.88 0 25.38-21.16 45.88-47.33 45.88z"/>
		</clipPath>
		<clipPath clipPathUnits="userSpaceOnUse" id="cp123">
			<path d="m50.21 94.22c-26.17 0-47.33-20.5-47.33-45.88 0-25.37 21.16-45.88 47.33-45.88 26.17 0 47.33 20.51 47.33 45.88 0 25.38-21.16 45.88-47.33 45.88z"/>
		</clipPath>
		<clipPath clipPathUnits="userSpaceOnUse" id="cp124">
			<path d="m50.21 94.22c-26.17 0-47.33-20.5-47.33-45.88 0-25.37 21.16-45.88 47.33-45.88 26.17 0 47.33 20.51 47.33 45.88 0 25.38-21.16 45.88-47.33 45.88z"/>
		</clipPath>
		<clipPath clipPathUnits="userSpaceOnUse" id="cp125">
			<path d="m50.21 94.22c-26.17 0-47.33-20.5-47.33-45.88 0-25.37 21.16-45.88 47.33-45.88 26.17 0 47.33 20.51 47.33 45.88 0 25.38-21.16 45.88-47.33 45.88z"/>
		</clipPath>
		<clipPath clipPathUnits="userSpaceOnUse" id="cp126">
			<path d="m50.21 94.22c-26.17 0-47.33-20.5-47.33-45.88 0-25.37 21.16-45.88 47.33-45.88 26.17 0 47.33 20.51 47.33 45.88 0 25.38-21.16 45.88-47.33 45.88z"/>
		</clipPath>
		<clipPath clipPathUnits="userSpaceOnUse" id="cp127">
			<path d="m50.21 94.22c-26.17 0-47.33-20.5-47.33-45.88 0-25.37 21.16-45.88 47.33-45.88 26.17 0 47.33 20.51 47.33 45.88 0 25.38-21.16 45.88-47.33 45.88z"/>
		</clipPath>
		<clipPath clipPathUnits="userSpaceOnUse" id="cp128">
			<path d="m50.21 94.22c-26.17 0-47.33-20.5-47.33-45.88 0-25.37 21.16-45.88 47.33-45.88 26.17 0 47.33 20.51 47.33 45.88 0 25.38-21.16 45.88-47.33 45.88z"/>
		</clipPath>
		<clipPath clipPathUnits="userSpaceOnUse" id="cp129">
			<path d="m50.21 94.22c-26.17 0-47.33-20.5-47.33-45.88 0-25.37 21.16-45.88 47.33-45.88 26.17 0 47.33 20.51 47.33 45.88 0 25.38-21.16 45.88-47.33 45.88z"/>
		</clipPath>
		<clipPath clipPathUnits="userSpaceOnUse" id="cp130">
			<path d="m50.21 94.22c-26.17 0-47.33-20.5-47.33-45.88 0-25.37 21.16-45.88 47.33-45.88 26.17 0 47.33 20.51 47.33 45.88 0 25.38-21.16 45.88-47.33 45.88z"/>
		</clipPath>
		<clipPath clipPathUnits="userSpaceOnUse" id="cp131">
			<path d="m50.21 94.22c-26.17 0-47.33-20.5-47.33-45.88 0-25.37 21.16-45.88 47.33-45.88 26.17 0 47.33 20.51 47.33 45.88 0 25.38-21.16 45.88-47.33 45.88z"/>
		</clipPath>
		<clipPath clipPathUnits="userSpaceOnUse" id="cp132">
			<path d="m50.21 94.22c-26.17 0-47.33-20.5-47.33-45.88 0-25.37 21.16-45.88 47.33-45.88 26.17 0 47.33 20.51 47.33 45.88 0 25.38-21.16 45.88-47.33 45.88z"/>
		</clipPath>
		<clipPath clipPathUnits="userSpaceOnUse" id="cp133">
			<path d="m50.21 94.22c-26.17 0-47.33-20.5-47.33-45.88 0-25.37 21.16-45.88 47.33-45.88 26.17 0 47.33 20.51 47.33 45.88 0 25.38-21.16 45.88-47.33 45.88z"/>
		</clipPath>
		<clipPath clipPathUnits="userSpaceOnUse" id="cp134">
			<path d="m50.21 94.22c-26.17 0-47.33-20.5-47.33-45.88 0-25.37 21.16-45.88 47.33-45.88 26.17 0 47.33 20.51 47.33 45.88 0 25.38-21.16 45.88-47.33 45.88z"/>
		</clipPath>
		<clipPath clipPathUnits="userSpaceOnUse" id="cp135">
			<path d="m50.21 94.22c-26.17 0-47.33-20.5-47.33-45.88 0-25.37 21.16-45.88 47.33-45.88 26.17 0 47.33 20.51 47.33 45.88 0 25.38-21.16 45.88-47.33 45.88z"/>
		</clipPath>
		<clipPath clipPathUnits="userSpaceOnUse" id="cp136">
			<path d="m50.21 94.22c-26.17 0-47.33-20.5-47.33-45.88 0-25.37 21.16-45.88 47.33-45.88 26.17 0 47.33 20.51 47.33 45.88 0 25.38-21.16 45.88-47.33 45.88z"/>
		</clipPath>
		<clipPath clipPathUnits="userSpaceOnUse" id="cp137">
			<path d="m50.21 94.22c-26.17 0-47.33-20.5-47.33-45.88 0-25.37 21.16-45.88 47.33-45.88 26.17 0 47.33 20.51 47.33 45.88 0 25.38-21.16 45.88-47.33 45.88z"/>
		</clipPath>
		<clipPath clipPathUnits="userSpaceOnUse" id="cp138">
			<path d="m50.21 94.22c-26.17 0-47.33-20.5-47.33-45.88 0-25.37 21.16-45.88 47.33-45.88 26.17 0 47.33 20.51 47.33 45.88 0 25.38-21.16 45.88-47.33 45.88z"/>
		</clipPath>
		<clipPath clipPathUnits="userSpaceOnUse" id="cp139">
			<path d="m50.21 94.22c-26.17 0-47.33-20.5-47.33-45.88 0-25.37 21.16-45.88 47.33-45.88 26.17 0 47.33 20.51 47.33 45.88 0 25.38-21.16 45.88-47.33 45.88z"/>
		</clipPath>
		<clipPath clipPathUnits="userSpaceOnUse" id="cp140">
			<path d="m50.21 94.22c-26.17 0-47.33-20.5-47.33-45.88 0-25.37 21.16-45.88 47.33-45.88 26.17 0 47.33 20.51 47.33 45.88 0 25.38-21.16 45.88-47.33 45.88z"/>
		</clipPath>
		<clipPath clipPathUnits="userSpaceOnUse" id="cp141">
			<path d="m50.21 94.22c-26.17 0-47.33-20.5-47.33-45.88 0-25.37 21.16-45.88 47.33-45.88 26.17 0 47.33 20.51 47.33 45.88 0 25.38-21.16 45.88-47.33 45.88z"/>
		</clipPath>
		<clipPath clipPathUnits="userSpaceOnUse" id="cp142">
			<path d="m50.21 94.22c-26.17 0-47.33-20.5-47.33-45.88 0-25.37 21.16-45.88 47.33-45.88 26.17 0 47.33 20.51 47.33 45.88 0 25.38-21.16 45.88-47.33 45.88z"/>
		</clipPath>
		<clipPath clipPathUnits="userSpaceOnUse" id="cp143">
			<path d="m50.21 94.22c-26.17 0-47.33-20.5-47.33-45.88 0-25.37 21.16-45.88 47.33-45.88 26.17 0 47.33 20.51 47.33 45.88 0 25.38-21.16 45.88-47.33 45.88z"/>
		</clipPath>
		<clipPath clipPathUnits="userSpaceOnUse" id="cp144">
			<path d="m50.21 94.22c-26.17 0-47.33-20.5-47.33-45.88 0-25.37 21.16-45.88 47.33-45.88 26.17 0 47.33 20.51 47.33 45.88 0 25.38-21.16 45.88-47.33 45.88z"/>
		</clipPath>
		<clipPath clipPathUnits="userSpaceOnUse" id="cp145">
			<path d="m50.21 94.22c-26.17 0-47.33-20.5-47.33-45.88 0-25.37 21.16-45.88 47.33-45.88 26.17 0 47.33 20.51 47.33 45.88 0 25.38-21.16 45.88-47.33 45.88z"/>
		</clipPath>
		<clipPath clipPathUnits="userSpaceOnUse" id="cp146">
			<path d="m50.21 94.22c-26.17 0-47.33-20.5-47.33-45.88 0-25.37 21.16-45.88 47.33-45.88 26.17 0 47.33 20.51 47.33 45.88 0 25.38-21.16 45.88-47.33 45.88z"/>
		</clipPath>
		<clipPath clipPathUnits="userSpaceOnUse" id="cp147">
			<path d="m50.21 94.22c-26.17 0-47.33-20.5-47.33-45.88 0-25.37 21.16-45.88 47.33-45.88 26.17 0 47.33 20.51 47.33 45.88 0 25.38-21.16 45.88-47.33 45.88z"/>
		</clipPath>
		<clipPath clipPathUnits="userSpaceOnUse" id="cp148">
			<path d="m50.21 94.22c-26.17 0-47.33-20.5-47.33-45.88 0-25.37 21.16-45.88 47.33-45.88 26.17 0 47.33 20.51 47.33 45.88 0 25.38-21.16 45.88-47.33 45.88z"/>
		</clipPath>
		<clipPath clipPathUnits="userSpaceOnUse" id="cp149">
			<path d="m50.21 94.22c-26.17 0-47.33-20.5-47.33-45.88 0-25.37 21.16-45.88 47.33-45.88 26.17 0 47.33 20.51 47.33 45.88 0 25.38-21.16 45.88-47.33 45.88z"/>
		</clipPath>
		<clipPath clipPathUnits="userSpaceOnUse" id="cp150">
			<path d="m50.21 94.22c-26.17 0-47.33-20.5-47.33-45.88 0-25.37 21.16-45.88 47.33-45.88 26.17 0 47.33 20.51 47.33 45.88 0 25.38-21.16 45.88-47.33 45.88z"/>
		</clipPath>
		<clipPath clipPathUnits="userSpaceOnUse" id="cp151">
			<path d="m50.21 94.22c-26.17 0-47.33-20.5-47.33-45.88 0-25.37 21.16-45.88 47.33-45.88 26.17 0 47.33 20.51 47.33 45.88 0 25.38-21.16 45.88-47.33 45.88z"/>
		</clipPath>
		<clipPath clipPathUnits="userSpaceOnUse" id="cp152">
			<path d="m50.21 94.22c-26.17 0-47.33-20.5-47.33-45.88 0-25.37 21.16-45.88 47.33-45.88 26.17 0 47.33 20.51 47.33 45.88 0 25.38-21.16 45.88-47.33 45.88z"/>
		</clipPath>
		<clipPath clipPathUnits="userSpaceOnUse" id="cp153">
			<path d="m50.21 94.22c-26.17 0-47.33-20.5-47.33-45.88 0-25.37 21.16-45.88 47.33-45.88 26.17 0 47.33 20.51 47.33 45.88 0 25.38-21.16 45.88-47.33 45.88z"/>
		</clipPath>
		<clipPath clipPathUnits="userSpaceOnUse" id="cp154">
			<path d="m50.21 94.22c-26.17 0-47.33-20.5-47.33-45.88 0-25.37 21.16-45.88 47.33-45.88 26.17 0 47.33 20.51 47.33 45.88 0 25.38-21.16 45.88-47.33 45.88z"/>
		</clipPath>
		<clipPath clipPathUnits="userSpaceOnUse" id="cp155">
			<path d="m50.21 94.22c-26.17 0-47.33-20.5-47.33-45.88 0-25.37 21.16-45.88 47.33-45.88 26.17 0 47.33 20.51 47.33 45.88 0 25.38-21.16 45.88-47.33 45.88z"/>
		</clipPath>
		<clipPath clipPathUnits="userSpaceOnUse" id="cp156">
			<path d="m50.21 94.22c-26.17 0-47.33-20.5-47.33-45.88 0-25.37 21.16-45.88 47.33-45.88 26.17 0 47.33 20.51 47.33 45.88 0 25.38-21.16 45.88-47.33 45.88z"/>
		</clipPath>
		<clipPath clipPathUnits="userSpaceOnUse" id="cp157">
			<path d="m50.21 94.22c-26.17 0-47.33-20.5-47.33-45.88 0-25.37 21.16-45.88 47.33-45.88 26.17 0 47.33 20.51 47.33 45.88 0 25.38-21.16 45.88-47.33 45.88z"/>
		</clipPath>
		<clipPath clipPathUnits="userSpaceOnUse" id="cp158">
			<path d="m50.21 94.22c-26.17 0-47.33-20.5-47.33-45.88 0-25.37 21.16-45.88 47.33-45.88 26.17 0 47.33 20.51 47.33 45.88 0 25.38-21.16 45.88-47.33 45.88z"/>
		</clipPath>
		<clipPath clipPathUnits="userSpaceOnUse" id="cp159">
			<path d="m50.21 94.22c-26.17 0-47.33-20.5-47.33-45.88 0-25.37 21.16-45.88 47.33-45.88 26.17 0 47.33 20.51 47.33 45.88 0 25.38-21.16 45.88-47.33 45.88z"/>
		</clipPath>
		<clipPath clipPathUnits="userSpaceOnUse" id="cp160">
			<path d="m50.21 94.22c-26.17 0-47.33-20.5-47.33-45.88 0-25.37 21.16-45.88 47.33-45.88 26.17 0 47.33 20.51 47.33 45.88 0 25.38-21.16 45.88-47.33 45.88z"/>
		</clipPath>
		<clipPath clipPathUnits="userSpaceOnUse" id="cp161">
			<path d="m50.21 94.22c-26.17 0-47.33-20.5-47.33-45.88 0-25.37 21.16-45.88 47.33-45.88 26.17 0 47.33 20.51 47.33 45.88 0 25.38-21.16 45.88-47.33 45.88z"/>
		</clipPath>
		<clipPath clipPathUnits="userSpaceOnUse" id="cp162">
			<path d="m50.21 94.22c-26.17 0-47.33-20.5-47.33-45.88 0-25.37 21.16-45.88 47.33-45.88 26.17 0 47.33 20.51 47.33 45.88 0 25.38-21.16 45.88-47.33 45.88z"/>
		</clipPath>
		<clipPath clipPathUnits="userSpaceOnUse" id="cp163">
			<path d="m50.21 94.22c-26.17 0-47.33-20.5-47.33-45.88 0-25.37 21.16-45.88 47.33-45.88 26.17 0 47.33 20.51 47.33 45.88 0 25.38-21.16 45.88-47.33 45.88z"/>
		</clipPath>
		<clipPath clipPathUnits="userSpaceOnUse" id="cp164">
			<path d="m50.21 94.22c-26.17 0-47.33-20.5-47.33-45.88 0-25.37 21.16-45.88 47.33-45.88 26.17 0 47.33 20.51 47.33 45.88 0 25.38-21.16 45.88-47.33 45.88z"/>
		</clipPath>
		<clipPath clipPathUnits="userSpaceOnUse" id="cp165">
			<path d="m50.21 94.22c-26.17 0-47.33-20.5-47.33-45.88 0-25.37 21.16-45.88 47.33-45.88 26.17 0 47.33 20.51 47.33 45.88 0 25.38-21.16 45.88-47.33 45.88z"/>
		</clipPath>
		<clipPath clipPathUnits="userSpaceOnUse" id="cp166">
			<path d="m50.21 94.22c-26.17 0-47.33-20.5-47.33-45.88 0-25.37 21.16-45.88 47.33-45.88 26.17 0 47.33 20.51 47.33 45.88 0 25.38-21.16 45.88-47.33 45.88z"/>
		</clipPath>
		<clipPath clipPathUnits="userSpaceOnUse" id="cp167">
			<path d="m50.21 94.22c-26.17 0-47.33-20.5-47.33-45.88 0-25.37 21.16-45.88 47.33-45.88 26.17 0 47.33 20.51 47.33 45.88 0 25.38-21.16 45.88-47.33 45.88z"/>
		</clipPath>
		<clipPath clipPathUnits="userSpaceOnUse" id="cp168">
			<path d="m50.21 94.22c-26.17 0-47.33-20.5-47.33-45.88 0-25.37 21.16-45.88 47.33-45.88 26.17 0 47.33 20.51 47.33 45.88 0 25.38-21.16 45.88-47.33 45.88z"/>
		</clipPath>
		<clipPath clipPathUnits="userSpaceOnUse" id="cp169">
			<path d="m50.21 94.22c-26.17 0-47.33-20.5-47.33-45.88 0-25.37 21.16-45.88 47.33-45.88 26.17 0 47.33 20.51 47.33 45.88 0 25.38-21.16 45.88-47.33 45.88z"/>
		</clipPath>
		<clipPath clipPathUnits="userSpaceOnUse" id="cp170">
			<path d="m50.21 94.22c-26.17 0-47.33-20.5-47.33-45.88 0-25.37 21.16-45.88 47.33-45.88 26.17 0 47.33 20.51 47.33 45.88 0 25.38-21.16 45.88-47.33 45.88z"/>
		</clipPath>
		<clipPath clipPathUnits="userSpaceOnUse" id="cp171">
			<path d="m50.21 94.22c-26.17 0-47.33-20.5-47.33-45.88 0-25.37 21.16-45.88 47.33-45.88 26.17 0 47.33 20.51 47.33 45.88 0 25.38-21.16 45.88-47.33 45.88z"/>
		</clipPath>
		<clipPath clipPathUnits="userSpaceOnUse" id="cp172">
			<path d="m50.21 94.22c-26.17 0-47.33-20.5-47.33-45.88 0-25.37 21.16-45.88 47.33-45.88 26.17 0 47.33 20.51 47.33 45.88 0 25.38-21.16 45.88-47.33 45.88z"/>
		</clipPath>
		<clipPath clipPathUnits="userSpaceOnUse" id="cp173">
			<path d="m50.21 94.22c-26.17 0-47.33-20.5-47.33-45.88 0-25.37 21.16-45.88 47.33-45.88 26.17 0 47.33 20.51 47.33 45.88 0 25.38-21.16 45.88-47.33 45.88z"/>
		</clipPath>
		<clipPath clipPathUnits="userSpaceOnUse" id="cp174">
			<path d="m50.21 94.22c-26.17 0-47.33-20.5-47.33-45.88 0-25.37 21.16-45.88 47.33-45.88 26.17 0 47.33 20.51 47.33 45.88 0 25.38-21.16 45.88-47.33 45.88z"/>
		</clipPath>
		<clipPath clipPathUnits="userSpaceOnUse" id="cp175">
			<path d="m50.21 94.22c-26.17 0-47.33-20.5-47.33-45.88 0-25.37 21.16-45.88 47.33-45.88 26.17 0 47.33 20.51 47.33 45.88 0 25.38-21.16 45.88-47.33 45.88z"/>
		</clipPath>
		<clipPath clipPathUnits="userSpaceOnUse" id="cp176">
			<path d="m50.21 94.22c-26.17 0-47.33-20.5-47.33-45.88 0-25.37 21.16-45.88 47.33-45.88 26.17 0 47.33 20.51 47.33 45.88 0 25.38-21.16 45.88-47.33 45.88z"/>
		</clipPath>
		<clipPath clipPathUnits="userSpaceOnUse" id="cp177">
			<path d="m50.21 94.22c-26.17 0-47.33-20.5-47.33-45.88 0-25.37 21.16-45.88 47.33-45.88 26.17 0 47.33 20.51 47.33 45.88 0 25.38-21.16 45.88-47.33 45.88z"/>
		</clipPath>
		<clipPath clipPathUnits="userSpaceOnUse" id="cp178">
			<path d="m50.21 94.22c-26.17 0-47.33-20.5-47.33-45.88 0-25.37 21.16-45.88 47.33-45.88 26.17 0 47.33 20.51 47.33 45.88 0 25.38-21.16 45.88-47.33 45.88z"/>
		</clipPath>
		<clipPath clipPathUnits="userSpaceOnUse" id="cp179">
			<path d="m50.21 94.22c-26.17 0-47.33-20.5-47.33-45.88 0-25.37 21.16-45.88 47.33-45.88 26.17 0 47.33 20.51 47.33 45.88 0 25.38-21.16 45.88-47.33 45.88z"/>
		</clipPath>
		<clipPath clipPathUnits="userSpaceOnUse" id="cp180">
			<path d="m50.21 94.22c-26.17 0-47.33-20.5-47.33-45.88 0-25.37 21.16-45.88 47.33-45.88 26.17 0 47.33 20.51 47.33 45.88 0 25.38-21.16 45.88-47.33 45.88z"/>
		</clipPath>
		<clipPath clipPathUnits="userSpaceOnUse" id="cp181">
			<path d="m50.21 94.22c-26.17 0-47.33-20.5-47.33-45.88 0-25.37 21.16-45.88 47.33-45.88 26.17 0 47.33 20.51 47.33 45.88 0 25.38-21.16 45.88-47.33 45.88z"/>
		</clipPath>
		<clipPath clipPathUnits="userSpaceOnUse" id="cp182">
			<path d="m50.21 94.22c-26.17 0-47.33-20.5-47.33-45.88 0-25.37 21.16-45.88 47.33-45.88 26.17 0 47.33 20.51 47.33 45.88 0 25.38-21.16 45.88-47.33 45.88z"/>
		</clipPath>
		<clipPath clipPathUnits="userSpaceOnUse" id="cp183">
			<path d="m50.21 94.22c-26.17 0-47.33-20.5-47.33-45.88 0-25.37 21.16-45.88 47.33-45.88 26.17 0 47.33 20.51 47.33 45.88 0 25.38-21.16 45.88-47.33 45.88z"/>
		</clipPath>
		<clipPath clipPathUnits="userSpaceOnUse" id="cp184">
			<path d="m50.21 94.22c-26.17 0-47.33-20.5-47.33-45.88 0-25.37 21.16-45.88 47.33-45.88 26.17 0 47.33 20.51 47.33 45.88 0 25.38-21.16 45.88-47.33 45.88z"/>
		</clipPath>
		<clipPath clipPathUnits="userSpaceOnUse" id="cp185">
			<path d="m50.21 94.22c-26.17 0-47.33-20.5-47.33-45.88 0-25.37 21.16-45.88 47.33-45.88 26.17 0 47.33 20.51 47.33 45.88 0 25.38-21.16 45.88-47.33 45.88z"/>
		</clipPath>
		<clipPath clipPathUnits="userSpaceOnUse" id="cp186">
			<path d="m50.21 94.22c-26.17 0-47.33-20.5-47.33-45.88 0-25.37 21.16-45.88 47.33-45.88 26.17 0 47.33 20.51 47.33 45.88 0 25.38-21.16 45.88-47.33 45.88z"/>
		</clipPath>
		<clipPath clipPathUnits="userSpaceOnUse" id="cp187">
			<path d="m50.21 94.22c-26.17 0-47.33-20.5-47.33-45.88 0-25.37 21.16-45.88 47.33-45.88 26.17 0 47.33 20.51 47.33 45.88 0 25.38-21.16 45.88-47.33 45.88z"/>
		</clipPath>
		<clipPath clipPathUnits="userSpaceOnUse" id="cp188">
			<path d="m50.21 94.22c-26.17 0-47.33-20.5-47.33-45.88 0-25.37 21.16-45.88 47.33-45.88 26.17 0 47.33 20.51 47.33 45.88 0 25.38-21.16 45.88-47.33 45.88z"/>
		</clipPath>
		<clipPath clipPathUnits="userSpaceOnUse" id="cp189">
			<path d="m50.21 94.22c-26.17 0-47.33-20.5-47.33-45.88 0-25.37 21.16-45.88 47.33-45.88 26.17 0 47.33 20.51 47.33 45.88 0 25.38-21.16 45.88-47.33 45.88z"/>
		</clipPath>
		<clipPath clipPathUnits="userSpaceOnUse" id="cp190">
			<path d="m50.21 94.22c-26.17 0-47.33-20.5-47.33-45.88 0-25.37 21.16-45.88 47.33-45.88 26.17 0 47.33 20.51 47.33 45.88 0 25.38-21.16 45.88-47.33 45.88z"/>
		</clipPath>
		<clipPath clipPathUnits="userSpaceOnUse" id="cp191">
			<path d="m50.21 94.22c-26.17 0-47.33-20.5-47.33-45.88 0-25.37 21.16-45.88 47.33-45.88 26.17 0 47.33 20.51 47.33 45.88 0 25.38-21.16 45.88-47.33 45.88z"/>
		</clipPath>
		<clipPath clipPathUnits="userSpaceOnUse" id="cp192">
			<path d="m50.21 94.22c-26.17 0-47.33-20.5-47.33-45.88 0-25.37 21.16-45.88 47.33-45.88 26.17 0 47.33 20.51 47.33 45.88 0 25.38-21.16 45.88-47.33 45.88z"/>
		</clipPath>
		<clipPath clipPathUnits="userSpaceOnUse" id="cp193">
			<path d="m50.21 94.22c-26.17 0-47.33-20.5-47.33-45.88 0-25.37 21.16-45.88 47.33-45.88 26.17 0 47.33 20.51 47.33 45.88 0 25.38-21.16 45.88-47.33 45.88z"/>
		</clipPath>
		<clipPath clipPathUnits="userSpaceOnUse" id="cp194">
			<path d="m50.21 94.22c-26.17 0-47.33-20.5-47.33-45.88 0-25.37 21.16-45.88 47.33-45.88 26.17 0 47.33 20.51 47.33 45.88 0 25.38-21.16 45.88-47.33 45.88z"/>
		</clipPath>
		<clipPath clipPathUnits="userSpaceOnUse" id="cp195">
			<path d="m50.21 94.22c-26.17 0-47.33-20.5-47.33-45.88 0-25.37 21.16-45.88 47.33-45.88 26.17 0 47.33 20.51 47.33 45.88 0 25.38-21.16 45.88-47.33 45.88z"/>
		</clipPath>
		<clipPath clipPathUnits="userSpaceOnUse" id="cp196">
			<path d="m50.21 94.22c-26.17 0-47.33-20.5-47.33-45.88 0-25.37 21.16-45.88 47.33-45.88 26.17 0 47.33 20.51 47.33 45.88 0 25.38-21.16 45.88-47.33 45.88z"/>
		</clipPath>
		<clipPath clipPathUnits="userSpaceOnUse" id="cp197">
			<path d="m18.12 15.43h66.76v66.77h-66.76z"/>
		</clipPath>
		<radialGradient id="g1" cx="0" cy="0" r="1" gradientUnits="userSpaceOnUse" gradientTransform="matrix(44.961,0,0,44.961,50.653,47.927)">
			<stop offset="0" stop-color="#0095da"/>
			<stop offset="1" stop-color="#144ea2"/>
		</radialGradient>
	</defs>
	<style>
		.s0 { fill: #cd992b } 
		.s1 { fill: #ce922a } 
		.s2 { fill: #d0a02a } 
		.s3 { fill: #d1972a } 
		.s4 { fill: #d5a62a } 
		.s5 { fill: #d19a2a } 
		.s6 { fill: #d5a82a } 
		.s7 { fill: #d39e29 } 
		.s8 { fill: #d8ac29 } 
		.s9 { fill: #d9a429 } 
		.s10 { fill: #dab028 } 
		.s11 { fill: #d9a629 } 
		.s12 { fill: #dbb327 } 
		.s13 { fill: #dbaa28 } 
		.s14 { fill: #ddb726 } 
		.s15 { fill: #dcad27 } 
		.s16 { fill: #dfba24 } 
		.s17 { fill: #deb126 } 
		.s18 { fill: #e2be23 } 
		.s19 { fill: #e1b524 } 
		.s20 { fill: #e4c225 } 
		.s21 { fill: #e3b923 } 
		.s22 { fill: #e7c62c } 
		.s23 { fill: #e4bd26 } 
		.s24 { fill: #e7c838 } 
		.s25 { fill: #e6c12d } 
		.s26 { fill: #eccd41 } 
		.s27 { fill: #e8c434 } 
		.s28 { fill: #ecd146 } 
		.s29 { fill: #ebc83b } 
		.s30 { fill: #f0d64e } 
		.s31 { fill: #edcc45 } 
		.s32 { fill: #f1da53 } 
		.s33 { fill: #f0d34d } 
		.s34 { fill: #f1de59 } 
		.s35 { fill: #f0d653 } 
		.s36 { fill: #f6e060 } 
		.s37 { fill: #f3db58 } 
		.s38 { fill: #f6e366 } 
		.s39 { fill: #f9e86d } 
		.s40 { fill: #f6e265 } 
		.s41 { fill: #f9ea73 } 
		.s42 { fill: #f6e56b } 
		.s43 { fill: #fbee7a } 
		.s44 { fill: #fef381 } 
		.s45 { fill: #f9ed7a } 
		.s46 { fill: #fef389 } 
		.s47 { fill: #fbf281 } 
		.s48 { fill: none;stroke: #ce922a;stroke-miterlimit:2.6131;stroke-width: .4 } 
		.s49 { fill: none;stroke: #fff9ae;stroke-miterlimit:2.6131;stroke-width: .4 } 
		.s50 { fill: url(#g1) } 
		.s51 { fill: #ffffff } 
		.s52 { fill: #144ea2 } 
	</style>
	<g id="Layer">
		<g id="Layer">
			<g id="Layer">
				<g id="Clip-Path" clip-path="url(#cp1)">
					<path id="Layer" class="s0" d="m50.2 48.1l68.4 2.2v-4.4z"/>
				</g>
				<g id="Clip-Path" clip-path="url(#cp2)">
					<path id="Layer" class="s1" d="m50.2 48.1l-68.4-2.2v4.4z"/>
				</g>
				<g id="Clip-Path" clip-path="url(#cp3)">
					<path id="Layer" class="s2" d="m50.2 48.1l68.4-2.2-0.3-4.4z"/>
				</g>
				<g id="Clip-Path" clip-path="url(#cp4)">
					<path id="Layer" class="s3" d="m50.2 48.1l-68.4 2.2 0.3 4.4z"/>
				</g>
				<g id="Clip-Path" clip-path="url(#cp5)">
					<path id="Layer" class="s4" d="m50.2 48.1l68.1-6.6-0.5-4.3z"/>
				</g>
				<g id="Clip-Path" clip-path="url(#cp6)">
					<path id="Layer" class="s5" d="m50.2 48.1l-68.1 6.6 0.5 4.3z"/>
				</g>
				<g id="Clip-Path" clip-path="url(#cp7)">
					<path id="Layer" class="s6" d="m50.2 48.1l67.6-10.9-0.9-4.3z"/>
				</g>
				<g id="Clip-Path" clip-path="url(#cp8)">
					<path id="Layer" class="s7" d="m50.2 48.1l-67.6 10.9 0.9 4.3z"/>
				</g>
				<g id="Clip-Path" clip-path="url(#cp9)">
					<path id="Layer" class="s8" d="m50.2 48.1l66.7-15.2-1.1-4.3z"/>
				</g>
				<g id="Clip-Path" clip-path="url(#cp10)">
					<path id="Layer" class="s9" d="m50.2 48.1l-66.7 15.2 1.1 4.3z"/>
				</g>
				<g id="Clip-Path" clip-path="url(#cp11)">
					<path id="Layer" class="s10" d="m50.2 48.1l65.6-19.5-1.4-4.2z"/>
				</g>
				<g id="Clip-Path" clip-path="url(#cp12)">
					<path id="Layer" class="s11" d="m50.2 48.1l-65.6 19.5 1.4 4.1z"/>
				</g>
				<g id="Clip-Path" clip-path="url(#cp13)">
					<path id="Layer" class="s12" d="m50.2 48.1l64.2-23.7-1.6-4z"/>
				</g>
				<g id="Clip-Path" clip-path="url(#cp14)">
					<path id="Layer" class="s13" d="m50.2 48.1l-64.2 23.6 1.6 4.1z"/>
				</g>
				<g id="Clip-Path" clip-path="url(#cp15)">
					<path id="Layer" class="s14" d="m50.2 48.1l62.6-27.7-1.9-4z"/>
				</g>
				<g id="Clip-Path" clip-path="url(#cp16)">
					<path id="Layer" class="s15" d="m50.2 48.1l-62.6 27.7 1.9 3.9z"/>
				</g>
				<g id="Clip-Path" clip-path="url(#cp17)">
					<path id="Layer" class="s16" d="m50.2 48.1l60.7-31.7-2.2-3.8z"/>
				</g>
				<g id="Clip-Path" clip-path="url(#cp18)">
					<path id="Layer" class="s17" d="m50.2 48.1l-60.7 31.6 2.2 3.9z"/>
				</g>
				<g id="Clip-Path" clip-path="url(#cp19)">
					<path id="Layer" class="s18" d="m50.2 48.1l58.5-35.5-2.4-3.7z"/>
				</g>
				<g id="Clip-Path" clip-path="url(#cp20)">
					<path id="Layer" class="s19" d="m50.2 48.1l-58.5 35.5 2.4 3.6z"/>
				</g>
				<g id="Clip-Path" clip-path="url(#cp21)">
					<path id="Layer" class="s20" d="m50.2 48.1l56.1-39.2-2.6-3.5z"/>
				</g>
				<g id="Clip-Path" clip-path="url(#cp22)">
					<path id="Layer" class="s21" d="m50.2 48.1l-56.1 39.1 2.6 3.6z"/>
				</g>
				<g id="Clip-Path" clip-path="url(#cp23)">
					<path id="Layer" class="s22" d="m50.2 48.1l53.5-42.7-2.8-3.3z"/>
				</g>
				<g id="Clip-Path" clip-path="url(#cp24)">
					<path id="Layer" class="s23" d="m50.2 48.1l-53.5 42.7 2.8 3.3z"/>
				</g>
				<g id="Clip-Path" clip-path="url(#cp25)">
					<path id="Layer" class="s24" d="m50.2 48.1l50.7-46-3.1-3.2z"/>
				</g>
				<g id="Clip-Path" clip-path="url(#cp26)">
					<path id="Layer" class="s25" d="m50.2 48.1l-50.7 46 3.1 3.1z"/>
				</g>
				<g id="Clip-Path" clip-path="url(#cp27)">
					<path id="Layer" class="s26" d="m50.2 48.1l47.6-49.2-3.2-2.9z"/>
				</g>
				<g id="Clip-Path" clip-path="url(#cp28)">
					<path id="Layer" class="s27" d="m50.2 48.1l-47.6 49.1 3.2 3z"/>
				</g>
				<g id="Clip-Path" clip-path="url(#cp29)">
					<path id="Layer" class="s28" d="m50.2 48.1l44.4-52.1-3.5-2.8z"/>
				</g>
				<g id="Clip-Path" clip-path="url(#cp30)">
					<path id="Layer" class="s29" d="m50.2 48.1l-44.4 52.1 3.5 2.7z"/>
				</g>
				<g id="Clip-Path" clip-path="url(#cp31)">
					<path id="Layer" class="s30" d="m50.2 48.1l40.9-54.9-3.6-2.5z"/>
				</g>
				<g id="Clip-Path" clip-path="url(#cp32)">
					<path id="Layer" class="s31" d="m50.2 48.1l-40.9 54.8 3.6 2.5z"/>
				</g>
				<g id="Clip-Path" clip-path="url(#cp33)">
					<path id="Layer" class="s32" d="m50.2 48.1l37.3-57.4-3.7-2.3z"/>
				</g>
				<g id="Clip-Path" clip-path="url(#cp34)">
					<path id="Layer" class="s33" d="m50.2 48.1l-37.3 57.3 3.7 2.3z"/>
				</g>
				<g id="Clip-Path" clip-path="url(#cp35)">
					<path id="Layer" class="s34" d="m50.2 48.1l33.6-59.7-3.9-2z"/>
				</g>
				<g id="Clip-Path" clip-path="url(#cp36)">
					<path id="Layer" class="s35" d="m50.2 48.1l-33.6 59.6 3.9 2z"/>
				</g>
				<g id="Clip-Path" clip-path="url(#cp37)">
					<path id="Layer" class="s36" d="m50.2 48.1l29.7-61.7-4-1.8z"/>
				</g>
				<g id="Clip-Path" clip-path="url(#cp38)">
					<path id="Layer" class="s37" d="m50.2 48.1l-29.7 61.6 4 1.8z"/>
				</g>
				<g id="Clip-Path" clip-path="url(#cp39)">
					<path id="Layer" class="s38" d="m50.2 48.1l25.7-63.5-4.1-1.5z"/>
				</g>
				<g id="Clip-Path" clip-path="url(#cp40)">
					<path id="Layer" class="s36" d="m50.2 48.1l-25.7 63.4 4.1 1.5z"/>
				</g>
				<g id="Clip-Path" clip-path="url(#cp41)">
					<path id="Layer" class="s39" d="m50.2 48.1l21.6-65-4.2-1.2z"/>
				</g>
				<g id="Clip-Path" clip-path="url(#cp42)">
					<path id="Layer" class="s40" d="m50.2 48.1l-21.6 64.9 4.2 1.3z"/>
				</g>
				<g id="Clip-Path" clip-path="url(#cp43)">
					<path id="Layer" class="s41" d="m50.2 48.1l17.4-66.2-4.3-1z"/>
				</g>
				<g id="Clip-Path" clip-path="url(#cp44)">
					<path id="Layer" class="s42" d="m50.2 48.1l-17.4 66.2 4.3 1z"/>
				</g>
				<g id="Clip-Path" clip-path="url(#cp45)">
					<path id="Layer" class="s43" d="m50.2 48.1l13.1-67.2-4.3-0.7z"/>
				</g>
				<g id="Clip-Path" clip-path="url(#cp46)">
					<path id="Layer" class="s41" d="m50.2 48.1l-13.1 67.2 4.4 0.7z"/>
				</g>
				<g id="Clip-Path" clip-path="url(#cp47)">
					<path id="Layer" class="s44" d="m50.2 48.1l8.8-67.9-4.4-0.4z"/>
				</g>
				<g id="Clip-Path" clip-path="url(#cp48)">
					<path id="Layer" class="s45" d="m50.2 48.1l-8.7 67.9 4.3 0.4z"/>
				</g>
				<g id="Clip-Path" clip-path="url(#cp49)">
					<path id="Layer" class="s46" d="m50.2 48.1l4.4-68.3-4.4-0.2z"/>
				</g>
				<g id="Clip-Path" clip-path="url(#cp50)">
					<path id="Layer" class="s47" d="m50.2 48.1l-4.4 68.3 4.4 0.1z"/>
				</g>
				<g id="Clip-Path" clip-path="url(#cp51)">
					<path id="Layer" class="s47" d="m50.2 48.1v-68.5l-4.4 0.2z"/>
				</g>
				<g id="Clip-Path" clip-path="url(#cp52)">
					<path id="Layer" class="s46" d="m50.2 48.1v68.4l4.4-0.1z"/>
				</g>
				<g id="Clip-Path" clip-path="url(#cp53)">
					<path id="Layer" class="s45" d="m50.2 48.1l-4.4-68.3-4.3 0.4z"/>
				</g>
				<g id="Clip-Path" clip-path="url(#cp54)">
					<path id="Layer" class="s44" d="m50.2 48.1l4.4 68.3 4.4-0.4z"/>
				</g>
				<g id="Clip-Path" clip-path="url(#cp55)">
					<path id="Layer" class="s41" d="m50.2 48.1l-8.7-67.9-4.4 0.7z"/>
				</g>
				<g id="Clip-Path" clip-path="url(#cp56)">
					<path id="Layer" class="s43" d="m50.2 48.1l8.8 67.9 4.3-0.7z"/>
				</g>
				<g id="Clip-Path" clip-path="url(#cp57)">
					<path id="Layer" class="s42" d="m50.2 48.1l-13.1-67.2-4.3 1z"/>
				</g>
				<g id="Clip-Path" clip-path="url(#cp58)">
					<path id="Layer" class="s41" d="m50.2 48.1l13.1 67.2 4.3-1z"/>
				</g>
				<g id="Clip-Path" clip-path="url(#cp59)">
					<path id="Layer" class="s40" d="m50.2 48.1l-17.4-66.2-4.2 1.2z"/>
				</g>
				<g id="Clip-Path" clip-path="url(#cp60)">
					<path id="Layer" class="s39" d="m50.2 48.1l17.4 66.2 4.2-1.3z"/>
				</g>
				<g id="Clip-Path" clip-path="url(#cp61)">
					<path id="Layer" class="s36" d="m50.2 48.1l-21.6-65-4.1 1.5z"/>
				</g>
				<g id="Clip-Path" clip-path="url(#cp62)">
					<path id="Layer" class="s38" d="m50.2 48.1l21.6 64.9 4.1-1.5z"/>
				</g>
				<g id="Clip-Path" clip-path="url(#cp63)">
					<path id="Layer" class="s37" d="m50.2 48.1l-25.7-63.5-4 1.8z"/>
				</g>
				<g id="Clip-Path" clip-path="url(#cp64)">
					<path id="Layer" class="s36" d="m50.2 48.1l25.7 63.4 4-1.8z"/>
				</g>
				<g id="Clip-Path" clip-path="url(#cp65)">
					<path id="Layer" class="s35" d="m50.2 48.1l-29.7-61.7-3.9 2z"/>
				</g>
				<g id="Clip-Path" clip-path="url(#cp66)">
					<path id="Layer" class="s34" d="m50.2 48.1l29.7 61.6 3.9-2z"/>
				</g>
				<g id="Clip-Path" clip-path="url(#cp67)">
					<path id="Layer" class="s33" d="m50.2 48.1l-33.6-59.7-3.7 2.3z"/>
				</g>
				<g id="Clip-Path" clip-path="url(#cp68)">
					<path id="Layer" class="s32" d="m50.2 48.1l33.6 59.6 3.7-2.3z"/>
				</g>
				<g id="Clip-Path" clip-path="url(#cp69)">
					<path id="Layer" class="s31" d="m50.2 48.1l-37.3-57.4-3.6 2.5z"/>
				</g>
				<g id="Clip-Path" clip-path="url(#cp70)">
					<path id="Layer" class="s30" d="m50.2 48.1l37.3 57.3 3.6-2.5z"/>
				</g>
				<g id="Clip-Path" clip-path="url(#cp71)">
					<path id="Layer" class="s29" d="m50.2 48.1l-40.9-54.9-3.5 2.8z"/>
				</g>
				<g id="Clip-Path" clip-path="url(#cp72)">
					<path id="Layer" class="s28" d="m50.2 48.1l40.9 54.8 3.5-2.7z"/>
				</g>
				<g id="Clip-Path" clip-path="url(#cp73)">
					<path id="Layer" class="s27" d="m50.2 48.1l-44.4-52.1-3.2 2.9z"/>
				</g>
				<g id="Clip-Path" clip-path="url(#cp74)">
					<path id="Layer" class="s26" d="m50.2 48.1l44.4 52.1 3.2-3z"/>
				</g>
				<g id="Clip-Path" clip-path="url(#cp75)">
					<path id="Layer" class="s25" d="m50.2 48.1l-47.6-49.2-3.1 3.2z"/>
				</g>
				<g id="Clip-Path" clip-path="url(#cp76)">
					<path id="Layer" class="s24" d="m50.2 48.1l47.6 49.1 3.1-3.1z"/>
				</g>
				<g id="Clip-Path" clip-path="url(#cp77)">
					<path id="Layer" class="s23" d="m50.2 48.1l-50.7-46-2.8 3.3z"/>
				</g>
				<g id="Clip-Path" clip-path="url(#cp78)">
					<path id="Layer" class="s22" d="m50.2 48.1l50.7 46 2.8-3.3z"/>
				</g>
				<g id="Clip-Path" clip-path="url(#cp79)">
					<path id="Layer" class="s21" d="m50.2 48.1l-53.5-42.7-2.6 3.5z"/>
				</g>
				<g id="Clip-Path" clip-path="url(#cp80)">
					<path id="Layer" class="s20" d="m50.2 48.1l53.5 42.7 2.6-3.6z"/>
				</g>
				<g id="Clip-Path" clip-path="url(#cp81)">
					<path id="Layer" class="s19" d="m50.2 48.1l-56.1-39.2-2.4 3.7z"/>
				</g>
				<g id="Clip-Path" clip-path="url(#cp82)">
					<path id="Layer" class="s18" d="m50.2 48.1l56.1 39.1 2.4-3.6z"/>
				</g>
				<g id="Clip-Path" clip-path="url(#cp83)">
					<path id="Layer" class="s17" d="m50.2 48.1l-58.5-35.5-2.2 3.8z"/>
				</g>
				<g id="Clip-Path" clip-path="url(#cp84)">
					<path id="Layer" class="s16" d="m50.2 48.1l58.5 35.5 2.2-3.9z"/>
				</g>
				<g id="Clip-Path" clip-path="url(#cp85)">
					<path id="Layer" class="s15" d="m50.2 48.1l-60.7-31.7-1.9 4z"/>
				</g>
				<g id="Clip-Path" clip-path="url(#cp86)">
					<path id="Layer" class="s14" d="m50.2 48.1l60.7 31.6 1.9-3.9z"/>
				</g>
				<g id="Clip-Path" clip-path="url(#cp87)">
					<path id="Layer" class="s13" d="m50.2 48.1l-62.6-27.7-1.6 4z"/>
				</g>
				<g id="Clip-Path" clip-path="url(#cp88)">
					<path id="Layer" class="s12" d="m50.2 48.1l62.6 27.7 1.6-4.1z"/>
				</g>
				<g id="Clip-Path" clip-path="url(#cp89)">
					<path id="Layer" class="s11" d="m50.2 48.1l-64.2-23.7-1.4 4.2z"/>
				</g>
				<g id="Clip-Path" clip-path="url(#cp90)">
					<path id="Layer" class="s10" d="m50.2 48.1l64.2 23.6 1.4-4.1z"/>
				</g>
				<g id="Clip-Path" clip-path="url(#cp91)">
					<path id="Layer" class="s9" d="m50.2 48.1l-65.6-19.5-1.1 4.3z"/>
				</g>
				<g id="Clip-Path" clip-path="url(#cp92)">
					<path id="Layer" class="s8" d="m50.2 48.1l65.6 19.5 1.1-4.3z"/>
				</g>
				<g id="Clip-Path" clip-path="url(#cp93)">
					<path id="Layer" class="s7" d="m50.2 48.1l-66.7-15.2-0.9 4.3z"/>
				</g>
				<g id="Clip-Path" clip-path="url(#cp94)">
					<path id="Layer" class="s6" d="m50.2 48.1l66.7 15.2 0.9-4.3z"/>
				</g>
				<g id="Clip-Path" clip-path="url(#cp95)">
					<path id="Layer" class="s5" d="m50.2 48.1l-67.6-10.9-0.5 4.3z"/>
				</g>
				<g id="Clip-Path" clip-path="url(#cp96)">
					<path id="Layer" class="s4" d="m50.2 48.1l67.6 10.9 0.5-4.3z"/>
				</g>
				<g id="Clip-Path" clip-path="url(#cp97)">
					<path id="Layer" class="s3" d="m50.2 48.1l-68.1-6.6-0.3 4.4z"/>
				</g>
				<g id="Clip-Path" clip-path="url(#cp98)">
					<path id="Layer" class="s2" d="m50.2 48.1l68.1 6.6 0.3-4.4z"/>
				</g>
			</g>
			<path id="Layer" class="s48" d="m50.2 95.5c-27.3 0-49.3-21.2-49.3-47.4 0-26.2 22-47.4 49.3-47.4 27.3 0 49.3 21.2 49.3 47.4 0 26.2-22 47.4-49.3 47.4z"/>
		</g>
		<g id="Layer">
			<g id="Layer">
				<g id="Clip-Path" clip-path="url(#cp99)">
					<path id="Layer" class="s0" d="m50.2 48.3l2.1-65.9h-4.2z"/>
				</g>
				<g id="Clip-Path" clip-path="url(#cp100)">
					<path id="Layer" class="s1" d="m50.2 48.3l-2.1 66h4.2z"/>
				</g>
				<g id="Clip-Path" clip-path="url(#cp101)">
					<path id="Layer" class="s2" d="m50.2 48.3l-2.1-65.9-4.2 0.3z"/>
				</g>
				<g id="Clip-Path" clip-path="url(#cp102)">
					<path id="Layer" class="s3" d="m50.2 48.3l2.1 66 4.2-0.3z"/>
				</g>
				<g id="Clip-Path" clip-path="url(#cp103)">
					<path id="Layer" class="s4" d="m50.2 48.3l-6.3-65.6-4.2 0.5z"/>
				</g>
				<g id="Clip-Path" clip-path="url(#cp104)">
					<path id="Layer" class="s5" d="m50.2 48.3l6.3 65.7 4.2-0.5z"/>
				</g>
				<g id="Clip-Path" clip-path="url(#cp105)">
					<path id="Layer" class="s6" d="m50.2 48.3l-10.5-65.1-4.2 0.8z"/>
				</g>
				<g id="Clip-Path" clip-path="url(#cp106)">
					<path id="Layer" class="s7" d="m50.2 48.3l10.5 65.2 4.2-0.9z"/>
				</g>
				<g id="Clip-Path" clip-path="url(#cp107)">
					<path id="Layer" class="s8" d="m50.2 48.3l-14.7-64.3-4.1 1.1z"/>
				</g>
				<g id="Clip-Path" clip-path="url(#cp108)">
					<path id="Layer" class="s9" d="m50.2 48.3l14.7 64.3 4.1-1z"/>
				</g>
				<g id="Clip-Path" clip-path="url(#cp109)">
					<path id="Layer" class="s10" d="m50.2 48.3l-18.8-63.2-4 1.3z"/>
				</g>
				<g id="Clip-Path" clip-path="url(#cp110)">
					<path id="Layer" class="s11" d="m50.2 48.3l18.8 63.3 4-1.4z"/>
				</g>
				<g id="Clip-Path" clip-path="url(#cp111)">
					<path id="Layer" class="s12" d="m50.2 48.3l-22.8-61.9-3.9 1.6z"/>
				</g>
				<g id="Clip-Path" clip-path="url(#cp112)">
					<path id="Layer" class="s13" d="m50.2 48.3l22.8 61.9 3.9-1.5z"/>
				</g>
				<g id="Clip-Path" clip-path="url(#cp113)">
					<path id="Layer" class="s14" d="m50.2 48.3l-26.7-60.3-3.8 1.9z"/>
				</g>
				<g id="Clip-Path" clip-path="url(#cp114)">
					<path id="Layer" class="s15" d="m50.2 48.3l26.7 60.4 3.8-1.9z"/>
				</g>
				<g id="Clip-Path" clip-path="url(#cp115)">
					<path id="Layer" class="s16" d="m50.2 48.3l-30.5-58.4-3.7 2z"/>
				</g>
				<g id="Clip-Path" clip-path="url(#cp116)">
					<path id="Layer" class="s17" d="m50.2 48.3l30.5 58.5 3.7-2.1z"/>
				</g>
				<g id="Clip-Path" clip-path="url(#cp117)">
					<path id="Layer" class="s18" d="m50.2 48.3l-34.2-56.4-3.5 2.3z"/>
				</g>
				<g id="Clip-Path" clip-path="url(#cp118)">
					<path id="Layer" class="s19" d="m50.2 48.3l34.2 56.4 3.5-2.3z"/>
				</g>
				<g id="Clip-Path" clip-path="url(#cp119)">
					<path id="Layer" class="s20" d="m50.2 48.3l-37.7-54.1-3.4 2.6z"/>
				</g>
				<g id="Clip-Path" clip-path="url(#cp120)">
					<path id="Layer" class="s21" d="m50.2 48.3l37.7 54.1 3.4-2.5z"/>
				</g>
				<g id="Clip-Path" clip-path="url(#cp121)">
					<path id="Layer" class="s22" d="m50.2 48.3l-41.1-51.5-3.2 2.7z"/>
				</g>
				<g id="Clip-Path" clip-path="url(#cp122)">
					<path id="Layer" class="s23" d="m50.2 48.3l41.1 51.6 3.2-2.7z"/>
				</g>
				<g id="Clip-Path" clip-path="url(#cp123)">
					<path id="Layer" class="s24" d="m50.2 48.3l-44.3-48.8-3.1 3z"/>
				</g>
				<g id="Clip-Path" clip-path="url(#cp124)">
					<path id="Layer" class="s25" d="m50.2 48.3l44.3 48.9 3.1-3z"/>
				</g>
				<g id="Clip-Path" clip-path="url(#cp125)">
					<path id="Layer" class="s26" d="m50.2 48.3l-47.4-45.8-2.8 3.1z"/>
				</g>
				<g id="Clip-Path" clip-path="url(#cp126)">
					<path id="Layer" class="s27" d="m50.2 48.3l47.4 45.9 2.8-3.1z"/>
				</g>
				<g id="Clip-Path" clip-path="url(#cp127)">
					<path id="Layer" class="s28" d="m50.2 48.3l-50.2-42.7-2.6 3.3z"/>
				</g>
				<g id="Clip-Path" clip-path="url(#cp128)">
					<path id="Layer" class="s29" d="m50.2 48.3l50.2 42.8 2.7-3.3z"/>
				</g>
				<g id="Clip-Path" clip-path="url(#cp129)">
					<path id="Layer" class="s30" d="m50.2 48.3l-52.8-39.4-2.5 3.5z"/>
				</g>
				<g id="Clip-Path" clip-path="url(#cp130)">
					<path id="Layer" class="s31" d="m50.2 48.3l52.9 39.5 2.4-3.5z"/>
				</g>
				<g id="Clip-Path" clip-path="url(#cp131)">
					<path id="Layer" class="s32" d="m50.2 48.3l-55.3-35.9-2.2 3.6z"/>
				</g>
				<g id="Clip-Path" clip-path="url(#cp132)">
					<path id="Layer" class="s33" d="m50.2 48.3l55.3 36 2.2-3.6z"/>
				</g>
				<g id="Clip-Path" clip-path="url(#cp133)">
					<path id="Layer" class="s34" d="m50.2 48.3l-57.5-32.3-1.9 3.7z"/>
				</g>
				<g id="Clip-Path" clip-path="url(#cp134)">
					<path id="Layer" class="s35" d="m50.2 48.3l57.5 32.4 1.9-3.7z"/>
				</g>
				<g id="Clip-Path" clip-path="url(#cp135)">
					<path id="Layer" class="s36" d="m50.2 48.3l-59.4-28.6-1.7 3.9z"/>
				</g>
				<g id="Clip-Path" clip-path="url(#cp136)">
					<path id="Layer" class="s37" d="m50.2 48.3l59.4 28.7 1.7-3.9z"/>
				</g>
				<g id="Clip-Path" clip-path="url(#cp137)">
					<path id="Layer" class="s38" d="m50.2 48.3l-61.1-24.7-1.5 4z"/>
				</g>
				<g id="Clip-Path" clip-path="url(#cp138)">
					<path id="Layer" class="s36" d="m50.2 48.3l61.1 24.8 1.5-4z"/>
				</g>
				<g id="Clip-Path" clip-path="url(#cp139)">
					<path id="Layer" class="s39" d="m50.2 48.3l-62.6-20.7-1.2 4z"/>
				</g>
				<g id="Clip-Path" clip-path="url(#cp140)">
					<path id="Layer" class="s40" d="m50.2 48.3l62.6 20.8 1.2-4z"/>
				</g>
				<g id="Clip-Path" clip-path="url(#cp141)">
					<path id="Layer" class="s41" d="m50.2 48.3l-63.8-16.7-0.9 4.1z"/>
				</g>
				<g id="Clip-Path" clip-path="url(#cp142)">
					<path id="Layer" class="s42" d="m50.2 48.3l63.8 16.8 0.9-4.1z"/>
				</g>
				<g id="Clip-Path" clip-path="url(#cp143)">
					<path id="Layer" class="s43" d="m50.2 48.3l-64.7-12.6-0.7 4.2z"/>
				</g>
				<g id="Clip-Path" clip-path="url(#cp144)">
					<path id="Layer" class="s41" d="m50.2 48.3l64.7 12.7 0.7-4.2z"/>
				</g>
				<g id="Clip-Path" clip-path="url(#cp145)">
					<path id="Layer" class="s44" d="m50.2 48.3l-65.4-8.4-0.4 4.2z"/>
				</g>
				<g id="Clip-Path" clip-path="url(#cp146)">
					<path id="Layer" class="s45" d="m50.2 48.3l65.4 8.5 0.4-4.2z"/>
				</g>
				<g id="Clip-Path" clip-path="url(#cp147)">
					<path id="Layer" class="s46" d="m50.2 48.3l-65.8-4.2-0.1 4.2z"/>
				</g>
				<g id="Clip-Path" clip-path="url(#cp148)">
					<path id="Layer" class="s47" d="m50.2 48.3l65.8 4.3 0.2-4.3z"/>
				</g>
				<g id="Clip-Path" clip-path="url(#cp149)">
					<path id="Layer" class="s47" d="m50.2 48.3h-65.9l0.1 4.3z"/>
				</g>
				<g id="Clip-Path" clip-path="url(#cp150)">
					<path id="Layer" class="s46" d="m50.2 48.3h66l-0.2-4.2z"/>
				</g>
				<g id="Clip-Path" clip-path="url(#cp151)">
					<path id="Layer" class="s45" d="m50.2 48.3l-65.8 4.3 0.4 4.2z"/>
				</g>
				<g id="Clip-Path" clip-path="url(#cp152)">
					<path id="Layer" class="s44" d="m50.2 48.3l65.8-4.2-0.4-4.2z"/>
				</g>
				<g id="Clip-Path" clip-path="url(#cp153)">
					<path id="Layer" class="s41" d="m50.2 48.3l-65.4 8.5 0.7 4.2z"/>
				</g>
				<g id="Clip-Path" clip-path="url(#cp154)">
					<path id="Layer" class="s43" d="m50.2 48.3l65.4-8.4-0.7-4.2z"/>
				</g>
				<g id="Clip-Path" clip-path="url(#cp155)">
					<path id="Layer" class="s42" d="m50.2 48.3l-64.7 12.7 0.9 4.1z"/>
				</g>
				<g id="Clip-Path" clip-path="url(#cp156)">
					<path id="Layer" class="s41" d="m50.2 48.3l64.7-12.6-0.9-4.1z"/>
				</g>
				<g id="Clip-Path" clip-path="url(#cp157)">
					<path id="Layer" class="s40" d="m50.2 48.3l-63.8 16.8 1.2 4z"/>
				</g>
				<g id="Clip-Path" clip-path="url(#cp158)">
					<path id="Layer" class="s39" d="m50.2 48.3l63.8-16.7-1.2-4z"/>
				</g>
				<g id="Clip-Path" clip-path="url(#cp159)">
					<path id="Layer" class="s36" d="m50.2 48.3l-62.6 20.8 1.5 4z"/>
				</g>
				<g id="Clip-Path" clip-path="url(#cp160)">
					<path id="Layer" class="s38" d="m50.2 48.3l62.6-20.7-1.5-4z"/>
				</g>
				<g id="Clip-Path" clip-path="url(#cp161)">
					<path id="Layer" class="s37" d="m50.2 48.3l-61.1 24.8 1.7 3.9z"/>
				</g>
				<g id="Clip-Path" clip-path="url(#cp162)">
					<path id="Layer" class="s36" d="m50.2 48.3l61.1-24.7-1.7-3.9z"/>
				</g>
				<g id="Clip-Path" clip-path="url(#cp163)">
					<path id="Layer" class="s35" d="m50.2 48.3l-59.4 28.7 1.9 3.7z"/>
				</g>
				<g id="Clip-Path" clip-path="url(#cp164)">
					<path id="Layer" class="s34" d="m50.2 48.3l59.4-28.6-1.9-3.7z"/>
				</g>
				<g id="Clip-Path" clip-path="url(#cp165)">
					<path id="Layer" class="s33" d="m50.2 48.3l-57.5 32.4 2.2 3.6z"/>
				</g>
				<g id="Clip-Path" clip-path="url(#cp166)">
					<path id="Layer" class="s32" d="m50.2 48.3l57.5-32.3-2.2-3.6z"/>
				</g>
				<g id="Clip-Path" clip-path="url(#cp167)">
					<path id="Layer" class="s31" d="m50.2 48.3l-55.3 36 2.5 3.5z"/>
				</g>
				<g id="Clip-Path" clip-path="url(#cp168)">
					<path id="Layer" class="s30" d="m50.2 48.3l55.3-35.9-2.4-3.5z"/>
				</g>
				<g id="Clip-Path" clip-path="url(#cp169)">
					<path id="Layer" class="s29" d="m50.2 48.3l-52.8 39.5 2.6 3.3z"/>
				</g>
				<g id="Clip-Path" clip-path="url(#cp170)">
					<path id="Layer" class="s28" d="m50.2 48.3l52.9-39.4-2.7-3.3z"/>
				</g>
				<g id="Clip-Path" clip-path="url(#cp171)">
					<path id="Layer" class="s27" d="m50.2 48.3l-50.2 42.8 2.8 3.1z"/>
				</g>
				<g id="Clip-Path" clip-path="url(#cp172)">
					<path id="Layer" class="s26" d="m50.2 48.3l50.2-42.7-2.8-3.1z"/>
				</g>
				<g id="Clip-Path" clip-path="url(#cp173)">
					<path id="Layer" class="s25" d="m50.2 48.3l-47.4 45.9 3.1 3z"/>
				</g>
				<g id="Clip-Path" clip-path="url(#cp174)">
					<path id="Layer" class="s24" d="m50.2 48.3l47.4-45.8-3.1-3z"/>
				</g>
				<g id="Clip-Path" clip-path="url(#cp175)">
					<path id="Layer" class="s23" d="m50.2 48.3l-44.3 48.9 3.2 2.7z"/>
				</g>
				<g id="Clip-Path" clip-path="url(#cp176)">
					<path id="Layer" class="s22" d="m50.2 48.3l44.3-48.8-3.2-2.7z"/>
				</g>
				<g id="Clip-Path" clip-path="url(#cp177)">
					<path id="Layer" class="s21" d="m50.2 48.3l-41.1 51.6 3.4 2.5z"/>
				</g>
				<g id="Clip-Path" clip-path="url(#cp178)">
					<path id="Layer" class="s20" d="m50.2 48.3l41.1-51.5-3.4-2.6z"/>
				</g>
				<g id="Clip-Path" clip-path="url(#cp179)">
					<path id="Layer" class="s19" d="m50.2 48.3l-37.7 54.1 3.5 2.3z"/>
				</g>
				<g id="Clip-Path" clip-path="url(#cp180)">
					<path id="Layer" class="s18" d="m50.2 48.3l37.7-54.1-3.5-2.3z"/>
				</g>
				<g id="Clip-Path" clip-path="url(#cp181)">
					<path id="Layer" class="s17" d="m50.2 48.3l-34.2 56.4 3.7 2.1z"/>
				</g>
				<g id="Clip-Path" clip-path="url(#cp182)">
					<path id="Layer" class="s16" d="m50.2 48.3l34.2-56.4-3.7-2z"/>
				</g>
				<g id="Clip-Path" clip-path="url(#cp183)">
					<path id="Layer" class="s15" d="m50.2 48.3l-30.5 58.5 3.8 1.9z"/>
				</g>
				<g id="Clip-Path" clip-path="url(#cp184)">
					<path id="Layer" class="s14" d="m50.2 48.3l30.5-58.4-3.8-1.9z"/>
				</g>
				<g id="Clip-Path" clip-path="url(#cp185)">
					<path id="Layer" class="s13" d="m50.2 48.3l-26.7 60.4 3.9 1.5z"/>
				</g>
				<g id="Clip-Path" clip-path="url(#cp186)">
					<path id="Layer" class="s12" d="m50.2 48.3l26.7-60.3-3.9-1.6z"/>
				</g>
				<g id="Clip-Path" clip-path="url(#cp187)">
					<path id="Layer" class="s11" d="m50.2 48.3l-22.8 61.9 4 1.4z"/>
				</g>
				<g id="Clip-Path" clip-path="url(#cp188)">
					<path id="Layer" class="s10" d="m50.2 48.3l22.8-61.9-4-1.3z"/>
				</g>
				<g id="Clip-Path" clip-path="url(#cp189)">
					<path id="Layer" class="s9" d="m50.2 48.3l-18.8 63.3 4.1 1z"/>
				</g>
				<g id="Clip-Path" clip-path="url(#cp190)">
					<path id="Layer" class="s8" d="m50.2 48.3l18.8-63.2-4.1-1.1z"/>
				</g>
				<g id="Clip-Path" clip-path="url(#cp191)">
					<path id="Layer" class="s7" d="m50.2 48.3l-14.7 64.3 4.2 0.9z"/>
				</g>
				<g id="Clip-Path" clip-path="url(#cp192)">
					<path id="Layer" class="s6" d="m50.2 48.3l14.7-64.3-4.2-0.8z"/>
				</g>
				<g id="Clip-Path" clip-path="url(#cp193)">
					<path id="Layer" class="s5" d="m50.2 48.3l-10.5 65.2 4.2 0.5z"/>
				</g>
				<g id="Clip-Path" clip-path="url(#cp194)">
					<path id="Layer" class="s4" d="m50.2 48.3l10.5-65.1-4.2-0.5z"/>
				</g>
				<g id="Clip-Path" clip-path="url(#cp195)">
					<path id="Layer" class="s3" d="m50.2 48.3l-6.3 65.7 4.2 0.3z"/>
				</g>
				<g id="Clip-Path" clip-path="url(#cp196)">
					<path id="Layer" class="s2" d="m50.2 48.3l6.3-65.6-4.2-0.3z"/>
				</g>
			</g>
			<path id="Layer" class="s49" d="m50.2 94.2c-26.2 0-47.3-20.5-47.3-45.9 0-25.3 21.1-45.8 47.3-45.8 26.2 0 47.3 20.5 47.3 45.8 0 25.4-21.1 45.9-47.3 45.9z"/>
		</g>
		<g id="Layer">
			<g id="Layer">
				<g id="Clip-Path" clip-path="url(#cp197)">
					<g id="Layer">
					</g>
				</g>
			</g>
		</g>
		<path id="Layer" fill-rule="evenodd" class="s50" d="m50.7 79.7c17.5 0 31.7-14.3 31.7-31.8 0-17.5-14.2-31.8-31.7-31.8-17.6 0-31.8 14.3-31.8 31.8 0 17.5 14.2 31.8 31.8 31.8z"/>
		<path id="Layer" fill-rule="evenodd" class="s51" d="m62.9 53c-2.2 0-4-1.7-4-3.9 0-2.2 1.8-3.9 4-3.9h3.2v1.8h-3.2c-1.2 0-2.1 1-2.1 2.1 0 1.2 0.9 2.1 2.1 2.1h3.2v1.8zm-19.5-10.2h-1.3v-3.6h-1.9v-1.4h1.9v-1.6h-2.2v1.5c0 0.5-0.2 0.8-0.5 1.1-0.3 0.3-0.9 0.6-1 0.6 0 0.1 0.5 0.8 0.9 1.2 0.5 0.6 1.1 1.3 1.2 1.3l-1.2 0.9c0 0-1-1.2-2-2.7-0.7-1-1.5-2.3-1.5-2.3l1.2-0.8c0 0.1 0.5 1.1 1 1.1 0.6 0 0.5-0.7 0.5-0.7v-1.2h-3.3v-1.3h6.1c-0.3-0.5-0.4-0.9-0.3-1.9 0.1-1 0.9-1.8 2.1-1.8 3 0 3.7 3.7 3.7 3.7h0.9v1.3h-1v2h-1.3v-2h-2q0 3.3 0 6.6zm-5-3.4q0 0 0 0 0 0 0 0zm8.3 3.4h-1.3v-2.2h1.3zm-4.2-0.4h0.5v-6.6h2.8v2h0.5v-2h1v-0.5h-0.9v-0.4q-0.2-0.7-0.5-1.3-0.2-0.4-0.5-0.8l-0.3-0.3q-0.2-0.2-0.4-0.3l-0.3-0.2-0.4-0.2-0.5-0.1q-0.3 0-0.6 0-0.4 0-0.7 0.2l-0.1 0.1q-0.5 0.3-0.6 0.9-0.1 0.1-0.1 0.2c0 0.3 0 0.7 0 1 0.2 0.4 0.5 0.9 0.8 1.2h-6.5v0.5h3.3q0 0.8 0 1.7c0 0.4-0.2 0.8-0.6 1h-0.1c-0.2 0.1-0.3 0.1-0.5 0.1q-0.1-0.1-0.3-0.2c-0.3-0.1-0.5-0.4-0.7-0.7l-0.4 0.2q0.7 1.2 1.4 2.3 0.8 1 1.6 2l0.4-0.3q-0.6-0.6-1.1-1.3-0.2-0.3-0.4-0.6-0.1-0.1-0.2-0.4l-0.3-0.4v-0.1c0.7-0.1 1.5-0.4 1.6-1.1q0-0.1 0-0.3v-1.9h3.1v2.5h-1.9v0.5h1.9zm3.3 0h0.5v-1.3h-0.5zm-3.1-7.2c-0.7-0.6-1.1-1.5-0.8-2.3q0.1-0.3 0.4-0.5 0.2-0.2 0.5-0.2 0.2-0.1 0.3-0.1h0.3q0.3 0.1 0.5 0.2l0.3 0.1 0.4 0.3q0.2 0.2 0.3 0.3 0.3 0.4 0.6 0.8 0.2 0.5 0.3 1l0.2 0.5h-3.1zm0.3-0.3c0.9 0 1.5 0 2.4 0 0 0-0.6-2.3-2.2-2.3-0.5 0-0.9 0.3-0.9 0.9 0 0.6 0.3 1.2 0.7 1.4zm3.7 3.9v0.5h-1.3v-0.5zm0 1v0.4h-1.4v-0.4zm19.5-3.8h-4.2v1.9c0.1 0 0.5-0.6 1.4-0.6 1.2 0 2.1 0.9 2.1 2.1 0 1.5-1.6 2.9-1.6 2.9l-1-0.7c0.1 0 1.3-1 1.3-2.1 0-0.7-0.3-1.2-0.9-1.2-0.8 0-1.3 1-1.3 1v3.6h-1.3v-1.9c0 0-0.6 0.4-1.3 0.4-1.2 0-2.2-0.8-2.2-2.3 0-2.4 2.7-2.3 2.7-2.3l0.3 1.1c0 0-1.8-0.1-1.8 1.2 0 0.8 0.5 1.2 1.1 1.2 0.8 0 1.2-0.7 1.2-0.7v-3.6h-4.9v1.9h-3c0 0-0.3 0-0.1 0.4 0.1 0.2 0.7 0.9 1 0.9 0.7 0 1.1-0.4 1.7-0.4 0.7 0 1 0.8 1 1.6 0 1.9-1.6 2.3-2.5 2.3-2.5 0-4.6-3.4-4.6-3.5l0.8-0.8c0 0.1 1.9 3.4 3.9 3.4 0.7 0 1.1-0.6 1.1-1.4 0-0.4-0.1-0.6-0.4-0.5-0.2 0.1-0.8 0.3-1.3 0.3-0.6 0-2.2-1.3-2.2-2.5 0-0.4 0.4-0.7 0.8-0.7h2.5v-1h-5.8v-1.1h4.4l-2.3-1.3 0.5-1.1 2.6 2.4h1l-2.6-3.1 1.2-0.6 2.1 3.7h10.6zm-12.9 13.5v1.8h-0.7v1.9h-1.9v-4c0-2.1 1.8-3.9 3.9-3.9 2.2 0 3.9 1.8 3.9 3.9v4h-1.8v-4c0-1.1-0.9-2.1-2.1-2.1-1.1 0-2 1-2 2.1v0.3zm2.2 0v1.8h-0.3v-1.8zm-0.6 0v1.8h-0.4v-1.8zm-0.7 0v1.8h-0.5v-1.8zm1.9 0v1.8h-0.2v-1.8zm-11.1-1.5h-1.8v-0.1h1.8zm0 0.6h-1.8v-0.3h1.8zm0 0.8h-1.8v-0.4h1.8zm0 0.8h-1.8v-0.4h1.8zm0 0.3v0.8h1.5c1.1 0 2-0.9 2-2.1 0-1.1-0.9-2.1-2-2.1h-3.3v-1.8h3.3c2.1 0 3.9 1.7 3.9 3.9 0 2.2-1.8 3.9-3.9 3.9h-3.3v-2.6zm-6 2.6c-2-0.1-3.6-1.8-3.6-3.9 0-2.1 1.6-3.8 3.6-3.9q0.2 0 0.3 0h3.3v1.8h-3.3q-0.1 0-0.3 0c-1 0.2-1.7 1.1-1.7 2.1 0 1.1 0.7 1.9 1.7 2q0.2 0.1 0.3 0.1h3.3v1.8h-3.3q-0.1 0-0.3 0zm0-6.6q0.2 0 0.3 0h2.7v-0.6h-2.7q-0.1 0-0.3 0c-1.6 0.2-2.9 1.6-2.9 3.3 0 1.7 1.3 3.1 2.9 3.3q0.2 0 0.3 0h2.7v-0.6h-2.7q-0.1 0-0.3 0c-1.3-0.2-2.3-1.3-2.3-2.7 0-1.4 1-2.5 2.3-2.7z"/>
		<path id="Layer" fill-rule="evenodd" class="s51" d="m29.6 59.6q0.1 0.1 0.2 0.2 0.1 0.2 0.2 0.4 0 0.2 0 0.3 0 0.3-0.3 0.5-0.2 0.2-0.3 0.3l0.5 0.6-0.3 0.3-0.7-0.8q0 0-0.1 0-0.3 0-0.5-0.2-0.1-0.2-0.1-0.4 0-0.3 0.2-0.4 0.1-0.1 0.2-0.1 0.3 0 0.4 0.2 0.3-0.1 0.3-0.4 0-0.2-0.2-0.4-0.2-0.3-0.8-0.4l0.1-0.4h2.3v-0.5h-2.8l-0.4-0.7h4.1l0.3 0.7h-0.5v3.6l-0.7-0.5v-1.9zm3.6-1.2v3.6l-0.8-0.5v-3.1h-0.1l-0.4-0.7h1.4l0.4 0.7zm3.9 0v3.6l-0.7-0.5v-1.6h-1.2q-0.2 0.1-0.2 0.3 0 0.1 0 0.1 0 0.1-0.1 0.2-0.1 0.1-0.2 0.1-0.1 0-0.2-0.1-0.1 0-0.3-0.4-0.2-0.3-0.2-0.5-0.1-0.3 0.3-0.4h2.1v-0.8h-2.3l-0.4-0.7h3.5l0.4 0.7zm1.7 0v3.6l-0.8-0.5v-3.1h-0.1l-0.3-0.7h1.3l0.4 0.7zm3.2 0v1.2h-1.4q-0.1 0-0.1 0.1-0.2 0-0.3 0.3-0.1 0.1-0.1 0.2 0 0.2 0.1 0.4 0.1 0.1 0.3 0.2 0.1 0 0.2 0 0.3 0 0.5-0.1-0.1-0.1-0.1-0.3 0-0.1 0.1-0.2 0.1-0.1 0.3-0.1 0.2 0 0.5 0.2 0.2 0.2 0.2 0.4 0 0.4-0.3 0.5l0.5 1-0.5 0.2-0.4-1q-0.1 0-0.3 0-0.3 0-0.6-0.1-0.3-0.1-0.6-0.4-0.3-0.3-0.4-0.7-0.1-0.3-0.1-0.5 0-0.7 0.8-0.8h0.9v-0.5h-1.5l-0.4-0.7h2.1l0.1 0.1h0.2v-0.1h0.7l0.3 0.7zm-0.2-0.7h-0.3l-0.3-0.7q-0.1-0.1-0.2-0.2-0.1-0.2-0.3-0.3-0.3-0.2-0.5-0.1l-0.2-0.8q0.1 0 0.2 0 0.4 0 0.7 0.3 0.3 0.3 0.6 1.2zm4.4 0.7v3.6l-0.8-0.5v-0.8q-0.4 0.6-1 0.6-0.5 0-0.9-0.4-0.3-0.3-0.4-0.8 0-0.1 0-0.2 0-0.4 0.3-0.7 0.4-0.4 0.8-0.4 0.9 0.1 1.2 0.7v-1.1h-2.1l-0.4-0.7h3.8l0.3 0.7zm-0.7 1.5v-0.1q-0.4-0.3-0.8-0.3-0.2 0-0.5 0.1-0.2 0.1-0.4 0.3-0.2 0.2-0.2 0.4 0 0.1 0.1 0.2 0.1 0.1 0.4 0.1 0.4 0 0.7-0.1 0.4-0.3 0.7-0.6zm7.6-1.5h-0.8v3.6l-0.8-0.5v-1.7h-1.2q-0.1 0-0.2 0-0.1 0.1-0.2 0.4-0.1 0.1-0.1 0.1 0 0.2 0.2 0.4l0.5 0.9-0.3 0.2-0.7-1q-0.3-0.4-0.3-0.9 0-0.7 0.8-0.8h1.5v-0.7h-2.5l-0.4-0.7h4.2zm-0.2 4.8q-0.1 0.5-0.7 0.5-0.3 0-0.6-0.2-0.5-0.2-1.2-0.9l0.2-0.3q0.1 0.2 0.2 0.3 0.4 0.3 0.6 0.5 0.3 0.1 0.5 0.1 0.3 0 0.6-0.2 0.1-0.1 0.1-0.3 0-0.2-0.1-0.2-0.1-0.1-0.2-0.1-0.2 0-0.4 0.4l-0.4-0.5q0.2-0.3 0.5-0.3 0.1 0 0.2 0 0.3 0 0.5 0.3 0.3 0.3 0.3 0.7 0 0.1-0.1 0.2zm5-4.8v0.9q0.1-0.1 0.1-0.1 0.2-0.1 0.4-0.1 0.4-0.1 0.8 0.4 0.2 0.5 0.2 0.9 0 0.1 0 0.1-0.1 0.6-0.4 1.1l-0.6-0.4q0.1-0.2 0.1-0.3 0.2-0.3 0.3-0.5 0.1-0.3 0.1-0.5 0-0.2-0.2-0.2-0.1 0-0.3 0.1-0.2 0.2-0.5 0.4v1.8l-0.8-0.6v-0.7q-0.7 0.3-0.7 0.3-0.5 0-0.8-0.3-0.4-0.4-0.4-1 0-0.4 0.2-0.6 0.3-0.3 0.7-0.3 0.2 0 0.4 0 0.3 0.1 0.6 0.5v-0.9h-2.1l-0.4-0.7h2.3l0.1 0.1h0.2v-0.1h0.3l0.1 0.1h0.2v-0.1h1.6l0.4 0.7zm-0.8 1.4q-0.1-0.1-0.1-0.2-0.2-0.2-0.5-0.3 0 0-0.1 0-0.3 0-0.5 0.3-0.2 0.2-0.2 0.5 0 0.1 0 0.1 0.1 0.2 0.4 0.2 0.2 0 0.5-0.1 0.3-0.2 0.5-0.5zm0.7-2.1h-0.3l-0.3-0.7q-0.1-0.1-0.1-0.2-0.2-0.3-0.4-0.4-0.3-0.2-0.7-0.2l-0.1-0.8q0.6 0 0.9 0.4 0.2 0.1 0.4 0.5 0.1 0.2 0.1 0.2zm-0.5 0.1zm0-0.1h-0.3l-0.1-0.2q-0.1-0.1-0.1-0.1-0.1-0.1-0.3-0.2-0.2 0-0.4 0l-0.2-0.6q0.3 0 0.5 0.1 0.3 0.1 0.5 0.4zm5.9 0.8v3.6l-0.7-0.6v-0.7q-0.5 0.5-1.1 0.5-0.4 0-0.8-0.3-0.4-0.3-0.4-0.8-0.1-0.1-0.1-0.2 0-0.4 0.4-0.8 0.3-0.3 0.8-0.3 0.8 0 1.2 0.7v-1.1h-2.2l-0.4-0.8h3.4l0.4 0.8zm-0.8 1.5v-0.2q-0.3-0.2-0.8-0.2-0.2 0-0.4 0-0.3 0.1-0.5 0.3-0.1 0.3-0.1 0.5 0 0.1 0 0.1 0.1 0.2 0.4 0.2 0.4 0 0.7-0.2 0.5-0.3 0.7-0.5zm1.7-1.5l-0.4-0.8h2.2l0.4 0.8zm2.8 1v-0.3q0 0 0 0 0.1-0.1 0.4-0.2 0.3-0.1 0.3-0.2 0-0.2-0.2-0.3h-0.6l-0.3-0.8h3.3l0.4 0.8h-0.5v3.6l-0.8-0.6v-0.6q-0.4 0.2-0.8 0.2-0.7 0-1.1-0.6-0.2-0.4-0.4-0.9 0 0 0.1 0 0.1-0.1 0.2-0.1zm-0.7 0.4q-0.1 0.2-0.4 0.7l-0.6-0.4q0-0.1 0.1-0.3 0.1-0.1 0.2-0.2-0.2-0.2-0.4-0.2-0.1 0-0.2 0.1-0.4 0.2-0.4 0.8 0 0.2 0.1 0.4 0.2 0.6 0.8 0.9l-0.2 0.3q-0.2-0.1-0.6-0.5-0.3-0.3-0.4-0.6-0.3-0.5-0.3-1 0-0.4 0.3-0.7 0.2-0.3 0.6-0.3 0.2 0 0.3 0.1 0.3 0.1 0.6 0.4 0-0.1 0.3-0.2 0.2-0.1 0.4-0.1 0.2 0 0.5 0.1-0.3 0.1-0.4 0.1 0.1 0.2 0.1 0.3-0.2 0.1-0.4 0.3zm2.7-1.4h-1.1q0.3 0.3 0.3 0.6 0 0.1-0.1 0.2-0.1 0.4-0.9 0.6 0.1 0.5 0.7 0.5 0 0 0.1-0.1 0.3 0 0.6-0.1 0.3-0.1 0.4-0.3zm5.6 0h-0.9v3.6l-0.7-0.5v-1.1h-1.3v0.3q0 0.3-0.3 0.3 0 0 0 0-0.2 0-0.5-0.4-0.4-0.4-0.4-0.6 0-0.3 0.3-0.3h0.1v-1.3h-0.2l-0.4-0.7h3.9zm-1.6 0h-1.3v1.3h1.3zm2 5.5l-0.2 0.2q-0.2-0.2-0.4-0.4-0.4-0.5-0.7-0.6-0.2-0.1-0.5-0.1-0.2 0-0.3 0l-0.4-0.7q0.3 0 0.6 0 0.3 0 0.6 0.3 0.2 0.1 0.7 0.7z"/>
		<path id="Layer" class="s51" d="m76.4 57.7l0.7 0.4v3.8l-0.7-0.4z"/>
		<path id="Layer" class="s51" d="m75.2 57.7l0.7 0.4v3.8l-0.7-0.4z"/>
		<path id="Layer" class="s51" d="m25.7 57.7l0.7 0.4v3.8l-0.7-0.4z"/>
		<path id="Layer" class="s51" d="m24.5 57.7l0.6 0.4v3.8l-0.6-0.4z"/>
		<path id="Layer" fill-rule="evenodd" class="s52" d="m12.9 37.7l-0.6-0.2q0-0.1 0-0.1 0.4-0.5 0.6-0.8 0.2-0.7-0.1-1.2-0.3-0.6-1-0.8-0.6-0.2-1.2 0-0.5 0.3-0.8 1 0 0.2 0 0.7 0 0.2 0 0.3l-0.7-0.1q0-0.1 0-0.3 0-0.6 0.1-0.9 0.4-1 1.2-1.5 0.7-0.4 1.7 0 1 0.3 1.4 1.1 0.4 0.8 0 1.8-0.1 0.3-0.4 0.8-0.1 0.2-0.2 0.2zm-0.4 2.9l-0.7-0.1 0.5-1.8-1.2-0.2-0.4 1.6-0.6-0.1 0.4-1.7-1.2-0.2-0.4 1.8-0.7-0.2 0.6-2.6 4.3 1zm-0.1 0.4l-0.2 1.1-3.2 1.2q-0.1 0-0.3 0.1-0.2 0-0.5 0.1 0.3-0.1 0.6 0 0.2 0 0.4 0l2.8 0.3-0.1 0.8-4.3-0.5 0.1-1.1 3.3-1.2q0.1-0.1 0.3-0.1 0.2-0.1 0.5-0.1-0.4 0-0.7 0-0.2 0-0.3 0l-2.8-0.4 0.1-0.7zm-0.5 3.7l-0.1 3.1h-0.7l0.1-1.1-3.7-0.1v-0.9l3.7 0.1v-1.1zm0 3.4v1.5q0 0.7-0.3 1.1-0.2 0.4-0.8 0.5-0.4 0-0.7-0.3-0.3-0.2-0.4-0.6 0 0.2-0.1 0.3-0.2 0.1-0.5 0.3l-1.5 0.6v-0.9l1.3-0.5q0.3-0.1 0.4-0.3 0.1-0.2 0.1-0.5v-0.3l-1.9 0.1v-0.9zm-0.6 0.9h-1.3v0.5q0.1 0.4 0.2 0.6 0.2 0.2 0.5 0.2 0.4 0 0.5-0.2 0.2-0.2 0.1-0.7zm0.8 2.5l0.3 2.6-0.6 0.1-0.2-1.8-1.1 0.2 0.2 1.6-0.7 0.1-0.2-1.7-1.2 0.2 0.2 1.8-0.7 0.1-0.3-2.7zm0.7 4.7l0.7 2.5-0.6 0.1-0.5-1.6-1.1 0.3 0.4 1.6-0.6 0.1-0.4-1.5-1.8 0.5-0.3-0.8zm1.5 4.6q0.4 0.9 0 1.6-0.4 0.8-1.4 1.1-1 0.3-1.8 0-0.7-0.3-1-1.2-0.3-0.9 0.1-1.6 0.4-0.8 1.4-1.1 1-0.3 1.7 0 0.7 0.3 1 1.2zm-0.6 0.2q-0.1-0.5-0.7-0.6-0.5-0.2-1.2 0-0.7 0.3-1 0.7-0.3 0.5-0.1 1 0.2 0.5 0.7 0.6 0.5 0.2 1.2 0 0.7-0.3 1-0.7 0.3-0.5 0.1-1zm2 3.4q0.4 0.7 0.3 1.2-0.1 0.4-0.6 0.7-0.4 0.2-0.8 0.1-0.3-0.1-0.6-0.5 0.1 0.2 0 0.3-0.1 0.2-0.3 0.5l-1.2 1.1-0.3-0.8 1-1q0.2-0.2 0.2-0.4 0-0.2-0.1-0.5l-0.1-0.2-1.6 0.7-0.4-0.7 4-1.8zm-0.8-0.3l-1.2 0.5 0.2 0.4q0.1 0.4 0.4 0.6 0.2 0.1 0.5 0 0.3-0.2 0.4-0.4 0-0.3-0.2-0.7zm2.5 3.4l0.7 1.1q0.3 0.4 0.4 0.8 0.2 0.4 0.2 0.7 0 0.5-0.3 1-0.3 0.4-0.8 0.7-0.5 0.4-1 0.4-0.5 0.1-1-0.2-0.3-0.1-0.6-0.4-0.3-0.3-0.6-0.8l-0.6-1zm-0.1 1.1l-2.6 1.6 0.3 0.5q0.4 0.6 0.9 0.7 0.6 0.1 1.2-0.3 0.6-0.4 0.7-0.9 0.1-0.6-0.3-1.2zm2.4 2.3l1.6 2.1-0.5 0.4-1.1-1.4-0.9 0.7 1.1 1.3-0.5 0.4-1.1-1.3-1 0.8 1.2 1.4-0.5 0.4-1.7-2.1zm2.3 2.8l-1.8 3.3 3.4-1.7 0.6 0.7-4.2 1.8-0.7-0.7 2.1-4.1zm2.3 2.3l2 1.8-0.4 0.4-1.4-1.1-0.8 0.8 1.3 1.2-0.4 0.4-1.3-1.1-0.8 1 1.4 1.2-0.4 0.5-2.1-1.8zm3.1 2.6l-2.1 3 1.4 1-0.4 0.5-2.1-1.5 2.5-3.5zm3.1 2q0.8 0.5 1 1.3 0.1 0.8-0.5 1.7-0.5 0.9-1.3 1.1-0.8 0.2-1.6-0.3-0.8-0.5-0.9-1.3-0.2-0.8 0.4-1.7 0.6-0.9 1.3-1.1 0.8-0.2 1.6 0.3zm-0.3 0.5q-0.5-0.3-1-0.1-0.5 0.2-0.9 0.8-0.4 0.6-0.3 1.2 0 0.5 0.4 0.8 0.5 0.3 1 0.1 0.5-0.2 0.9-0.8 0.4-0.6 0.4-1.1-0.1-0.6-0.5-0.9zm2.4 0.7l1.1 0.6q0.8 0.4 1 0.9 0.2 0.5-0.1 1.1-0.3 0.6-0.8 0.7-0.6 0.1-1.3-0.3l-0.4-0.2-0.7 1.5-0.8-0.4zm0.5 0.9l-0.7 1.3 0.3 0.2q0.4 0.2 0.7 0.1 0.3 0 0.4-0.4 0.2-0.3 0.1-0.5-0.1-0.3-0.5-0.5zm2.2 0.5l1.2 0.4v3.2q0 0.1 0 0.3 0 0.2-0.1 0.4 0.1-0.2 0.2-0.4 0.1-0.1 0.1-0.2l2-2.5 1.3 0.4-1.4 4.1-0.8-0.3 1-3q0.1-0.2 0.1-0.4 0.1-0.2 0.2-0.3-0.1 0.1-0.2 0.3-0.1 0.1-0.1 0.2l-2.3 2.8-0.7-0.3-0.1-3.5q0-0.1 0.1-0.3 0-0.2 0-0.4-0.1 0.4-0.1 0.6-0.1 0.1-0.1 0.2l-1 3-0.7-0.2zm7.8 2.3l-0.2 0.6-1.7-0.4-0.3 1.1 1.7 0.4-0.2 0.6-1.6-0.4-0.3 1.3 1.8 0.4-0.2 0.6-2.6-0.6 1-4.2zm0.4 0.1l1.1 0.2 1.2 3.2q0 0.1 0.1 0.3 0 0.2 0.1 0.5 0-0.3 0-0.6 0-0.2 0-0.4l0.3-2.8 0.8 0.1-0.5 4.3-1.1-0.1-1.2-3.3q-0.1-0.1-0.1-0.3 0-0.2-0.1-0.5 0 0.4 0 0.7 0 0.2 0 0.4l-0.4 2.7-0.7-0.1zm3.7 0.6h3.1v0.7h-1.1l-0.1 3.6h-0.9l0.1-3.6-1.1-0.1zm6.9-0.1q1-0.1 1.6 0.4 0.6 0.6 0.6 1.7 0.1 1-0.4 1.6-0.5 0.7-1.4 0.8-1 0-1.6-0.5-0.6-0.6-0.7-1.6 0-1.1 0.5-1.7 0.5-0.7 1.4-0.7zm0.1 0.6q-0.6 0-0.9 0.5-0.2 0.5-0.2 1.2 0.1 0.7 0.4 1.1 0.4 0.4 0.9 0.4 0.5 0 0.8-0.5 0.3-0.5 0.3-1.2-0.1-0.7-0.4-1.1-0.4-0.4-0.9-0.4zm2.3-0.8l2.5-0.5 0.1 0.7-1.6 0.2 0.2 1.2 1.5-0.3 0.1 0.7-1.5 0.2 0.3 1.9-0.8 0.1zm5.4-1.2l1-0.3 3 3.5-0.9 0.3-0.7-0.8-1.8 0.6v1.1l-0.8 0.3zm0.7 0.5l-0.1 2.1 1.4-0.5zm2.9-1.8q0.5-0.3 0.9-0.4 0.4-0.1 0.7 0 0.6 0.1 1 0.4 0.4 0.3 0.6 0.9 0.3 0.5 0.3 1.1-0.1 0.5-0.4 0.9-0.2 0.3-0.5 0.5-0.3 0.3-0.8 0.5l-1.1 0.5-1.8-3.9zm-0.1 0.7l1.3 2.8 0.4-0.2q0.7-0.3 0.9-0.9 0.2-0.5-0.1-1.2-0.3-0.6-0.8-0.8-0.6-0.2-1.2 0.1zm2.3-1.7l0.7-0.4 2.8 2.5-0.8-3.7 0.8-0.4 0.8 4.5-0.9 0.5zm4.5-2.6l0.8-0.6 3.9 2.5-0.8 0.5-0.8-0.6-1.6 1.1 0.3 1.1-0.7 0.5zm0.8 0.3l0.6 2 1.1-0.9zm1.4-1.8l0.8-0.7 3.2 1.2q0.1 0.1 0.3 0.2 0.2 0.1 0.4 0.3-0.2-0.2-0.4-0.4-0.2-0.2-0.3-0.3l-1.9-2.2 0.6-0.5 2.9 3.3-0.8 0.7-3.3-1.3q-0.1 0-0.3-0.1-0.2-0.1-0.4-0.3 0.3 0.3 0.5 0.5 0.2 0.2 0.3 0.2l1.8 2.2-0.6 0.5zm6-4.6q0 0-0.1 0-0.5 0.3-0.8 0.6-0.5 0.5-0.4 1.1 0 0.6 0.5 1.1 0.5 0.5 1.1 0.5 0.7 0 1.2-0.6 0.1-0.1 0.3-0.6 0.1-0.2 0.1-0.2l0.6 0.4q0 0-0.1 0.2-0.3 0.5-0.5 0.8-0.8 0.8-1.7 0.8-0.9 0.1-1.6-0.6-0.7-0.7-0.7-1.6-0.1-0.9 0.7-1.7 0.2-0.3 0.7-0.6 0.2-0.1 0.2-0.1zm-0.3-0.8l1.6-2.1 0.5 0.4-1.1 1.4 0.9 0.7 1-1.3 0.5 0.4-1 1.3 1 0.8 1.1-1.5 0.5 0.4-1.6 2.2zm2.6-3.5q0.3-0.5 0.6-0.8 0.2-0.3 0.5-0.4 0.5-0.2 1-0.2 0.5 0.1 1.1 0.4 0.5 0.3 0.8 0.8 0.2 0.4 0.2 1 0 0.3-0.1 0.7-0.2 0.4-0.5 0.8l-0.6 1-3.7-2.3zm0.4 0.7l2.5 1.6 0.3-0.4q0.4-0.6 0.2-1.2-0.1-0.5-0.7-0.9-0.6-0.4-1.1-0.3-0.6 0.1-1 0.8zm3.5-7.5l0.6 0.3q0 0.1-0.1 0.1-0.4 0.4-0.5 0.8-0.3 0.6-0.1 1.2 0.2 0.5 0.9 0.9 0.6 0.2 1.2 0 0.6-0.2 0.9-0.9 0.1-0.2 0.1-0.7 0-0.2 0-0.3l0.7 0.2q0 0.1 0 0.3-0.1 0.6-0.3 0.9-0.4 1-1.2 1.3-0.8 0.4-1.8 0-0.9-0.5-1.2-1.3-0.3-0.9 0.1-1.8 0.2-0.3 0.5-0.8 0.1-0.1 0.2-0.2zm1.6-3.3q0.7-0.3 1.7 0 1 0.3 1.4 1 0.4 0.8 0.1 1.7-0.3 0.9-1.1 1.2-0.7 0.3-1.7 0-1-0.4-1.4-1.1-0.4-0.7-0.1-1.6 0.3-0.9 1.1-1.2zm-0.5 1.4q-0.1 0.5 0.2 1 0.3 0.4 1 0.7 0.7 0.2 1.2 0 0.5-0.1 0.7-0.6 0.1-0.5-0.2-1-0.3-0.4-1-0.7-0.7-0.2-1.2 0-0.5 0.1-0.7 0.6zm0.3-2.4l0.3-1.3 3.1-0.3q0.2 0 0.3 0 0.2 0 0.4 0-0.2-0.1-0.3-0.1-0.2-0.1-0.3-0.2l-2.7-1.7 0.3-1.3 4.2 1-0.2 0.8-3.1-0.7q-0.2-0.1-0.4-0.1-0.2-0.1-0.3-0.1 0.1 0.1 0.3 0.1 0.2 0.1 0.2 0.2l3 1.9-0.2 0.7-3.5 0.5q-0.1 0-0.3 0-0.1 0-0.3 0 0.3 0 0.5 0.1 0.2 0 0.2 0l3.2 0.7-0.2 0.7zm1.2-6.4q0-0.8 0.4-1.2 0.4-0.4 1-0.3 0.7 0 1 0.5 0.3 0.4 0.3 1.2l-0.1 0.4 1.7 0.2-0.1 0.8-4.3-0.3zm0.6 0.5l1.4 0.1v-0.4q0.1-0.4-0.1-0.6-0.2-0.3-0.5-0.3-0.4 0-0.6 0.2-0.2 0.2-0.2 0.6zm-0.4-2.5v-0.9l2.5 0.1q0.7 0 1-0.2 0.3-0.2 0.3-0.7 0-0.4-0.3-0.7-0.3-0.2-1-0.2l-2.5-0.1 0.1-0.8 2.5 0.1q0.9 0 1.4 0.4 0.4 0.5 0.4 1.4 0 0.8-0.5 1.2-0.5 0.5-1.4 0.4zm0-3.5l-0.2-3.2h0.7l0.1 1.1 3.6-0.3 0.1 0.9-3.7 0.3 0.1 1.1zm-0.3-3.5l-0.1-0.8 4.3-0.6 0.1 0.9zm-0.4-2.4l2.6-2.3q0.1-0.1 0.3-0.2 0.2-0.1 0.4-0.2-0.3 0.1-0.5 0.2-0.3 0.1-0.4 0.1l-2.8 0.6-0.2-0.7 4.3-1 0.2 1-2.7 2.3q-0.1 0.1-0.2 0.2-0.2 0.1-0.4 0.2 0.3-0.1 0.6-0.2 0.3-0.1 0.4-0.1l2.7-0.6 0.2 0.7-4.3 1zm-1.6-6.4l0.6-0.1q0 0 0 0.1 0 0.7 0.1 1 0.3 0.7 0.9 1 0.5 0.3 1.2 0 0.7-0.2 0.9-0.8 0.3-0.5 0.1-1.2-0.1-0.1-0.3-0.4 0 0 0-0.1l-1.1 0.4 0.3 0.8-0.6 0.1-0.5-1.5 2.1-0.7q0.3 0.4 0.5 0.7 0.1 0.3 0.2 0.5 0.4 1.1 0 1.9-0.3 0.8-1.3 1.2-1 0.3-1.8-0.1-0.8-0.5-1.2-1.6-0.1-0.2-0.1-0.8 0-0.3 0-0.4z"/>
		<path id="Layer" class="s52" d="m14.9 26.6l0.4 0.9 1 0.2-0.7 0.6 0.2 1-0.9-0.5-0.9 0.5 0.2-1-0.7-0.6 1-0.2z"/>
		<path id="Layer" class="s52" d="m85.4 25.8l0.4 0.9 1 0.1-0.8 0.7 0.2 1-0.8-0.5-0.9 0.5 0.2-1-0.8-0.7 1-0.1z"/>
		<path id="Layer" fill-rule="evenodd" class="s52" d="m52.6 7.5q0.4 0 0.8 0-0.1-0.2 0-0.5 0.1-1.3 1.7-1.2 0.7 0 1.5 0.8 0.6 0.6 1.1 1.4c3.4 0.6 6.8 1.5 10 2.8q2.3 0.9 4.6 2.1l-0.4 0.7q-0.5-0.3-1.1-0.5l-1.5 3.5-0.7-0.3 0.8-1.9-0.8-0.4-0.1-0.7 1.2 0.5 0.5-1.1c-0.5-0.2-0.8-0.3-1.3-0.6l-0.4 1.1q-0.2 0.4-0.5 0.4-0.3 0.1-0.6 0 0.1 0.5 0.2 0.9 0.2 0.4 0.4 0.9l-0.7 0.2q-0.2-0.4-0.5-1.8-0.2-0.8-0.3-1.6l0.7-0.1q0 0.8 0.2 0.9 0.3 0.1 0.4-0.2l0.4-0.9c-0.8-0.4-1.5-0.7-2.3-0.9l-1.2 3.6-0.7-0.2 1.2-3.7c-1.1-0.4-2-0.7-3.2-1l-0.2 1.1q0.4-0.3 0.8-0.2 0.5 0.1 0.7 0.5 0.3 0.5 0.2 0.9-0.2 0.9-1.2 1.4l-0.5-0.5q0.8-0.4 1-1 0.1-0.6-0.4-0.7-0.3-0.1-0.5 0.1-0.2 0.2-0.3 0.2l-0.4 2-0.7-0.2 0.2-1q-0.4 0.2-0.8 0.1-0.5-0.1-0.7-0.6-0.3-0.4-0.2-1 0.2-0.8 1-0.9 0.3-0.1 0.8 0v0.6q-0.9-0.2-1.1 0.5-0.1 0.7 0.4 0.8 0.4 0.1 0.8-0.3l0.4-1.9-1.4-0.4q-0.8-0.1-1.6-0.3l-0.7 3.8-0.7-0.1 0.2-1.2q-0.4 0.2-0.9 0.1-0.6 0-0.9-0.4-0.4-0.4-0.3-0.9 0.1-0.6 0.5-0.8 0.4-0.3 0.9-0.2 0.3 0 0.5 0.1l0.1 0.6q-0.2-0.2-0.5-0.2-0.3 0-0.5 0.1-0.2 0.2-0.3 0.5-0.1 0.6 0.7 0.7 0.4 0.1 0.8-0.3l0.4-1.9q-1.7-0.3-3.4-0.4l-0.3 3.8-0.8-0.1 0.3-3.8q-0.4 0-0.8-0.1zm1.4 0.1q1.4 0.2 2.8 0.4-0.3-0.6-0.7-1-0.6-0.5-1.2-0.6-0.9 0-0.9 0.8 0 0.3 0 0.4z"/>
		<path id="Layer" fill-rule="evenodd" class="s52" d="m30.8 11.1q0.4-0.2 0.8-0.3c5.6-2.2 11.8-3.4 18.1-3.4q0.6 0 1.3 0v0.8q-0.6-0.1-1.2-0.1l0.1 3.9h-0.7l-0.1-2.3-1.4 0.1v0.6q0 0.1 0 0.2 0 0.1-0.2 0.1-0.2 0-0.6-0.4-0.4-0.5-0.4-0.7-0.1-0.3 0.2-0.3l2.4-0.2v-0.9q-1.9 0-3.7 0.1l0.3 3.9-0.7 0.1-0.3-3.9q-0.6 0.1-1.2 0.1l0.3 1.6q0.1 0.4-0.2 0.8-0.3 0.4-0.8 0.5-0.5 0.1-0.9-0.2-0.4-0.3-0.5-0.7l-0.2-1.6c-0.5 0-0.8 0.1-1.2 0.2l0.8 3.8-0.7 0.2-0.8-3.9-1.4 0.4 0.6 2q0.1 0.4-0.2 0.5-0.1 0-0.7-0.2-0.6-0.3-0.6-0.4-0.1-0.3 0.2-0.3l0.3-0.1-0.3-1.3-1.7 0.5 1.2 3.7-0.7 0.2-0.6-2-0.8 0.3-0.7-0.4 1.3-0.4-0.4-1.2-1.3 0.5 0.3 1q0.2 0.4 0 0.7-0.2 0.2-0.5 0.4 0.4 0.2 0.8 0.4 0.4 0.3 0.9 0.5l-0.4 0.6q-0.4-0.2-1.6-1-0.7-0.4-1.2-0.9l0.4-0.5q0.5 0.5 0.8 0.4 0.2-0.1 0.1-0.4l-0.3-1-1.7 0.7zm12-2.5q-0.4 0.1-0.9 0.1l0.3 1.7q0.1 0.4 0.6 0.4 0.4-0.1 0.3-0.6z"/>
		<path id="Layer" fill-rule="evenodd" class="s52" d="m20.7 21.5q-0.3 0.2-0.7 0.1-0.4 0-0.7-0.3l-1-1.2q-0.4 0.4-0.9 0.8l-0.5-0.5c3.4-3.4 7.4-6.2 11.8-8.3l0.4 0.7-0.7 0.4 1.7 3.4-0.7 0.4-1.1-2.3-1.5 0.8q-0.3 0.2-0.1 0.5 0.3 0.5 1.1 0.7 0.6 0.3 0.7 0.2l-0.2 0.7q0 0-0.5-0.2-0.5-0.1-0.9-0.3-0.6-0.3-0.8-0.7-0.2-0.5-0.1-0.8 0.1-0.3 0.3-0.5l1.7-0.9-0.3-0.7c-1.1 0.6-2 1-3.3 1.9l2 3.3-0.6 0.4-2.1-3.3c-0.6 0.4-0.5 0.3-1.1 0.8l1.2 1.7q0.2 0.3 0 0.5-0.2 0.1-0.8 0-0.6 0-0.7-0.1-0.1-0.2 0.1-0.4l0.3-0.2-0.7-1.1q-0.8 0.5-1.4 1.1l2.3 3-0.6 0.5-0.6-0.8-0.9 1.9-0.6-0.3zm-1.9-1.9l1 1.1c0.5 0.6 1.1 0.2 1.4-0.5l-1.2-1.6q-0.6 0.4-1.2 1z"/>
		<path id="Layer" class="s52" d="m35.4 8.9l-0.8 0.3-0.2-0.8 0.8-0.3z"/>
		<path id="Layer" class="s52" d="m77.5 14.7l-0.6-0.4 0.4-0.6 0.6 0.4z"/>
		<path id="Layer" fill-rule="evenodd" class="s52" d="m73.8 13.7q1.1 0.7 2.2 1.4l-0.5-2 0.7-0.1 0.3 2.4c2.1 1.5 3.9 3.1 5.9 4.7l-0.6 0.8q-0.4-0.4-0.7-0.8l-0.6 0.7-1.3-1q-0.1-0.2-0.3-0.2-0.3 0.1-0.4 0.3-0.5 0.6 0.5 1.5 0-0.1 0.1-0.1 0.3-0.5 0.8-0.1 0.2 0.1 0.2 0.3 0 0.2-0.1 0.3-0.3 0.4-0.7 0.2-0.1 0.2-0.3 0.8 0 0.1-0.1 0.5l-0.6-0.4q0-0.1 0.2-0.5 0.1-0.2 0.2-0.5l-2.2-0.4 0.1-0.7 1.7 0.6q-1-1.2-0.3-2.1 0.6-0.8 1.4-0.2l0.9 0.8 0.2-0.3q-2-1.8-4.2-3.3l-0.5 0.8q0.4-0.1 0.8 0.2 0.4 0.3 0.5 0.7 0.1 0.5-0.2 0.9-0.4 0.7-1.6 0.9l-0.2-0.6q0.9-0.1 1.2-0.6 0.3-0.6-0.1-0.9-0.2-0.1-0.6 0-0.2 0-0.3 0.1l-1 1.7-0.6-0.4 0.5-0.9q-0.4 0-0.7-0.2-0.5-0.3-0.6-0.8-0.1-0.5 0.2-1 0.4-0.7 1.2-0.5 0.4 0.1 0.8 0.3l-0.2 0.6q-0.8-0.6-1.2 0-0.4 0.6 0.1 0.9 0.4 0.3 0.8 0l1.1-1.7-1-0.6q-0.7-0.4-1.3-0.8z"/>
	</g>
</svg>