<svg xmlns="http://www.w3.org/2000/svg" xml:space="preserve" fill-rule="evenodd" stroke-linejoin="round" stroke-width="28.222" preserveAspectRatio="xMidYMid" viewBox="3498 5000.25 15002 2516"><defs class="ClipPathGroup"><clipPath id="a" clipPathUnits="userSpaceOnUse"><path d="M0 0h21000v14800H0z"/></clipPath></defs><g class="SlideGroup"><g class="Slide" clip-path="url(#a)"><g class="Page"><g class="com.sun.star.drawing.PolyPolygonShape"><path fill="none" d="M0 0h21000v14801H0z" class="BoundingBox"/></g><g class="com.sun.star.drawing.ClosedBezierShape"><path fill="none" d="M3855 5236h995v1261h-995z" class="BoundingBox"/><path fill="#00205b" d="M3911 5241c-12-7-26-7-38 0-12 6-18 19-18 32v575c0 14 6 26 18 33s26 7 38 0c66-37 170-98 227-130 23-14 52-14 75 0 73 42 232 134 307 176 24 14 38 39 38 66v320c0 25 14 49 37 62 49 29 139 81 197 115 11 7 26 7 37 0 12-7 20-19 20-33v-634c0-26-14-49-37-62-148-86-719-415-901-520"/></g><g class="com.sun.star.drawing.ClosedBezierShape"><path fill="none" d="M3922 5000h1211v721H3922z" class="BoundingBox"/><path fill="#00205b" d="M5112 5596c12-7 20-19 20-34 0-13-8-26-20-32-182-107-750-435-899-520-23-13-51-13-72 0-51 28-139 80-199 113-11 7-20 20-20 33 0 14 9 26 20 33 183 105 752 435 901 521 23 13 50 13 71 0 51-28 140-80 198-114"/></g><g class="com.sun.star.drawing.ClosedBezierShape"><path fill="none" d="M4907 5641h293v856h-293z" class="BoundingBox"/><path fill="#00205b" d="M5164 6375c21-13 35-37 35-62v-634c0-14-6-26-18-33-13-7-26-7-39 0-59 34-149 85-198 114-23 13-37 36-37 62v635c0 14 8 26 20 33 11 7 26 7 37 0 60-34 149-86 200-115"/></g><g class="com.sun.star.drawing.ClosedBezierShape"><path fill="none" d="M3850 6054h643v1464h-643z" class="BoundingBox"/><path fill="#00205b" d="M3850 7478c0 14 8 26 18 33 13 7 26 7 39 0 116-67 383-220 498-287 12-7 20-19 20-33 0-13-8-26-20-32-64-38-170-99-225-131-25-13-39-38-39-65v-355c0-27 14-52 39-66 67-39 211-121 277-160 23-13 35-36 35-62v-228c0-14-6-26-18-33-11-7-26-7-37 0-130 75-445 255-552 317-21 13-35 36-35 62z"/></g><g class="com.sun.star.drawing.ClosedBezierShape"><path fill="none" d="M3498 6257h294v1261h-294z" class="BoundingBox"/><path fill="#00205b" d="M3556 6262c-10-7-26-7-38 0s-20 19-20 33v1040c0 26 14 49 37 62 50 29 140 80 200 114 12 7 26 7 38 0 11-7 18-19 18-33V6438c0-26-13-49-35-62-50-29-140-80-200-114"/></g><g class="com.sun.star.drawing.ClosedBezierShape"><path fill="none" d="M3567 5818h860v519h-860z" class="BoundingBox"/><path fill="#00205b" d="M4208 5828c-22-13-51-13-72 0-106 61-421 242-549 317-12 6-20 19-20 32 0 14 8 26 20 33 58 35 147 87 197 116 22 13 49 13 73 0 106-62 419-244 548-318 12-7 20-20 20-33 0-14-8-26-20-33-58-34-148-85-197-114"/></g><g class="com.sun.star.drawing.ClosedBezierShape"><path fill="none" d="M4278 6054h1560v890H4278z" class="BoundingBox"/><path fill="#00205b" d="M5819 6413c12-7 18-20 18-33 0-14-6-26-18-33-117-68-382-221-499-288-12-7-26-7-38 0-10 7-18 19-18 33v262c0 27-14 52-37 65-73 42-234 135-306 177-23 13-52 13-76 0-69-40-212-122-279-160-21-13-49-13-72 0-49 28-139 80-197 114-11 7-19 19-19 33 0 13 8 26 19 32 130 75 444 256 549 318 23 13 51 13 72 0 150-86 719-415 901-520"/></g><g class="com.sun.star.drawing.ClosedBezierShape"><path fill="none" d="M4912 6459h995v855h-995z" class="BoundingBox"/><path fill="#00205b" d="M4912 7277c0 13 8 25 18 32 13 6 28 6 39 0 183-107 752-435 900-522 23-13 37-35 37-61v-229c0-13-8-26-18-33-13-6-28-6-39 0-183 106-752 436-900 521-23 13-37 36-37 62z"/></g><g class="com.sun.star.drawing.ClosedBezierShape"><path fill="none" d="M4211 6662h643v653h-643z" class="BoundingBox"/><path fill="#00205b" d="M4211 6929c0 25 12 49 35 62 106 61 420 243 550 318 13 6 27 6 39 0 12-7 18-20 18-33v-229c0-26-13-50-35-63-110-61-422-242-552-317-10-7-26-7-36 0-13 7-19 19-19 33z"/></g><g class="com.sun.star.drawing.ClosedBezierShape"><path fill="none" d="M6275 5653h877v1271h-877z" class="BoundingBox"/><path fill="#00205b" d="M6277 6599v-39c0-28 15-43 43-43h166c28 0 42 15 42 43v16q0 75 30 102c21 19 56 28 110 28h92c52 0 87-10 107-30s31-56 31-110v-24c0-39-16-68-46-89-31-20-69-32-115-36s-97-12-150-23-104-25-150-43c-45-18-84-53-114-105-31-52-48-118-48-200v-69c0-102 29-182 88-238 58-58 137-86 241-86h197c104 0 185 28 243 86 59 56 88 136 88 238v38c0 27-14 41-42 41h-168c-28 0-41-14-41-41v-12c0-51-11-86-31-105-20-18-55-27-107-27h-78c-54 0-90 10-110 30-20 21-29 60-29 120v37c0 62 55 97 162 107 113 9 211 31 298 67 46 19 86 54 118 105 29 51 46 115 46 195v67c0 103-29 182-87 239-60 56-139 85-242 85h-214c-105 0-185-29-243-85-58-57-87-136-87-239"/></g><g class="com.sun.star.drawing.ClosedBezierShape"><path fill="none" d="M7273 5915h810v1009h-810z" class="BoundingBox"/><path fill="#00205b" d="M8036 6923h-437c-104 0-184-28-240-83-57-55-86-135-86-239v-365c0-103 29-183 86-238 56-55 136-83 240-83h157c104 0 185 28 242 83 55 55 84 135 84 238v253c0 28-14 41-41 41h-497c-17 0-23 8-23 22v43c0 41 7 70 26 88 18 18 47 27 90 27h399c29 0 43 14 43 43v130c0 15-3 25-9 31-7 6-17 9-34 9m-492-560h269c15 0 21-8 21-22v-97c0-42-8-71-26-88-17-17-46-26-87-26h-84c-43 0-72 9-90 26-17 17-25 46-25 88v97c0 14 8 22 22 22"/></g><g class="com.sun.star.drawing.ClosedBezierShape"><path fill="none" d="M8188 5915h664v1009h-664z" class="BoundingBox"/><path fill="#00205b" d="M8851 6747v136c0 15-3 25-9 31s-17 9-32 9h-295c-104 0-184-28-240-83-58-55-87-135-87-239v-365c0-103 29-183 87-238 56-55 136-83 240-83h295c28 0 41 14 41 41v137q0 21-9 30c-6 6-17 9-32 9h-254c-41 0-70 9-89 27-18 17-27 47-27 89v341c0 43 9 72 27 90 19 18 48 27 89 27h254c28 0 41 14 41 41"/></g><g class="com.sun.star.drawing.ClosedBezierShape"><path fill="none" d="M8950 5915h827v1009h-827z" class="BoundingBox"/><path fill="#00205b" d="M9322 6923h-65c-102 0-177-28-229-83s-78-135-78-239v-645c0-27 14-41 41-41h167c29 0 43 14 43 41v633c0 43 8 72 26 90s46 27 87 27h74c90 0 137-50 137-150v-600c0-27 14-41 41-41h165c31 0 45 14 45 41v925c0 28-14 42-45 42h-165c-27 0-41-14-41-42v-65h-8c-15 36-42 62-79 80s-75 27-116 27"/></g><g class="com.sun.star.drawing.ClosedBezierShape"><path fill="none" d="M9931 5915h565v1009h-565z" class="BoundingBox"/><path fill="#00205b" d="M10140 6923h-168c-26 0-41-14-41-42v-925c0-27 15-41 41-41h168c28 0 42 14 42 41v68h7c16-36 40-63 77-81 38-19 76-28 118-28h71c28 0 40 14 40 41v137c0 15-3 26-8 32-6 6-17 8-32 7h-137c-90 0-136 51-136 154v595q0 42-42 42"/></g><g class="com.sun.star.drawing.ClosedBezierShape"><path fill="none" d="M10541 5915h811v1009h-811z" class="BoundingBox"/><path fill="#00205b" d="M11304 6923h-436c-104 0-185-28-242-83-56-55-85-135-85-239v-365c0-103 29-183 85-238 57-55 138-83 242-83h156c104 0 185 28 241 83 57 55 86 135 86 238v253c0 28-15 41-43 41h-496c-16 0-23 8-23 22v43c0 41 9 70 26 88 18 18 47 27 90 27h399c29 0 43 14 43 43v130c0 15-3 25-10 31-6 6-16 9-33 9m-492-560h270c15 0 21-8 21-22v-97c0-42-7-71-24-88-19-17-49-26-90-26h-84c-43 0-72 9-89 26-18 17-26 46-26 88v97c0 14 8 22 22 22"/></g><g class="com.sun.star.drawing.ClosedBezierShape"><path fill="none" d="M11496 5653h1177v1271h-1177z" class="BoundingBox"/><path fill="#00205b" d="M12340 5653h291c27 0 41 14 41 41v1187c0 28-14 42-41 42h-161c-29 0-43-14-43-42v-935h-7l-203 661c-8 26-23 40-49 40h-167c-24 0-40-14-49-40l-205-663h-8v937c0 16-1 27-7 33-5 6-17 9-34 9h-162c-28 0-40-14-40-42V5694c0-27 12-41 40-41h295c17 0 31 9 37 27l210 697h12l211-697c3-18 17-27 39-27"/></g><g class="com.sun.star.drawing.ClosedBezierShape"><path fill="none" d="M12829 5915h827v1009h-827z" class="BoundingBox"/><path fill="#00205b" d="M13202 6923h-47c-104 0-185-28-242-83s-84-135-84-239v-365c0-103 27-183 84-238s138-83 242-83h454c30 0 46 14 46 41v925c0 28-16 42-46 42h-165c-28 0-41-14-41-42v-65h-8c-14 36-40 62-77 80-36 18-76 27-116 27m201-367v-402c0-15-8-22-23-22h-187q-61.5 0-87 27c-17 17-26 47-26 89v341c0 43 9 72 26 90q25.5 27 87 27h73c92 0 137-50 137-150"/></g><g class="com.sun.star.drawing.ClosedBezierShape"><path fill="none" d="M13791 5915h663v1009h-663z" class="BoundingBox"/><path fill="#00205b" d="M14453 6747v136c0 15-3 25-9 31s-17 9-32 9h-296c-104 0-184-28-241-83-56-55-84-135-84-239v-365c0-103 28-183 84-238 57-55 137-83 241-83h296c27 0 41 14 41 41v137q0 21-9 30c-6 6-17 9-32 9h-257q-61.5 0-87 27c-18 17-27 47-27 89v341c0 43 9 72 27 90q25.5 27 87 27h257c27 0 41 14 41 41"/></g><g class="com.sun.star.drawing.ClosedBezierShape"><path fill="none" d="M14561 5534h828v1390h-828z" class="BoundingBox"/><path fill="#00205b" d="M14772 6923h-170c-26 0-41-14-41-42V5576c0-28 15-41 41-41h170c26 0 40 13 40 41v446h9c29-71 92-107 193-107h63c207 0 311 107 311 322v644c0 28-15 42-44 42h-166q-42 0-42-42v-632c0-42-9-72-26-89-18-19-49-28-90-28h-72c-90 0-136 51-136 151v598c0 28-14 42-40 42"/></g><g class="com.sun.star.drawing.ClosedBezierShape"><path fill="none" d="M15522 5535h254v1390h-254z" class="BoundingBox"/><path fill="#00205b" d="M15523 5745v-171c0-26 14-39 40-39h174c26 0 38 12 38 37v173c0 27-12 40-38 40h-174c-26 0-40-13-40-40m0 1136v-925c0-27 14-41 40-41h171c29 0 41 14 41 41v925c0 17-1 29-7 34s-17 8-31 8h-171c-27 0-43-14-43-42"/></g><g class="com.sun.star.drawing.ClosedBezierShape"><path fill="none" d="M15921 5915h828v1009h-828z" class="BoundingBox"/><path fill="#00205b" d="M16132 6923h-168c-29 0-43-14-43-42v-925c0-27 14-41 43-41h168c27 0 41 14 41 41v66h8c29-71 93-107 194-107h63c206 0 310 107 310 321v645c0 28-15 42-44 42h-165q-42 0-42-42v-633c0-42-9-72-26-89-18-18-47-27-90-27h-72c-90 0-136 50-136 150v599c0 28-14 42-41 42"/></g><g class="com.sun.star.drawing.ClosedBezierShape"><path fill="none" d="M16874 5915h809v1009h-809z" class="BoundingBox"/><path fill="#00205b" d="M17637 6923h-438c-104 0-184-28-239-83-58-55-86-135-86-239v-365c0-103 28-183 86-238 55-55 135-83 239-83h157c104 0 185 28 242 83 56 55 84 135 84 238v253c0 28-14 41-40 41h-497c-17 0-24 8-24 22v43c0 41 9 70 26 88 18 18 47 27 90 27h400c28 0 42 14 42 43v130c0 15-3 25-9 31-7 6-16 9-33 9m-492-560h269c14 0 21-8 21-22v-97c0-42-9-71-26-88-16-17-47-26-89-26h-83c-43 0-72 9-89 26s-26 46-26 88v97c0 14 8 22 23 22"/></g><g class="com.sun.star.drawing.ClosedBezierShape"><path fill="none" d="M17770 5915h731v1009h-731z" class="BoundingBox"/><path fill="#00205b" d="M18190 6923h-376c-26 0-38-14-38-42v-126c0-14 1-25 7-30 5-6 17-9 31-9h331c65 0 97-20 97-60v-9c0-32-28-62-81-91l-196-108c-66-35-116-72-148-111-32-41-47-92-47-154 0-92 24-159 73-203 50-43 125-65 229-65h330c27 0 39 14 39 41v129c0 14-2 24-8 30-4 6-15 9-31 9h-275c-64 0-96 17-96 49v10c0 29 27 59 84 89l199 120c70 37 118 75 145 114 29 38 41 89 41 152 0 177-102 265-310 265"/></g></g></g></g></svg>
