<?xml version="1.0" encoding="UTF-8"?>
<!DOCTYPE svg PUBLIC "-//W3C//DTD SVG 1.1//EN" "http://www.w3.org/Graphics/SVG/1.1/DTD/svg11.dtd">
<svg version="1.2" width="210mm" height="148mm" viewBox="0 0 21000 14800" preserveAspectRatio="xMidYMid" fill-rule="evenodd" stroke-width="28.222" stroke-linejoin="round" xmlns="http://www.w3.org/2000/svg" xmlns:ooo="http://xml.openoffice.org/svg/export" xmlns:xlink="http://www.w3.org/1999/xlink" xmlns:presentation="http://sun.com/xmlns/staroffice/presentation" xmlns:smil="http://www.w3.org/2001/SMIL20/" xmlns:anim="urn:oasis:names:tc:opendocument:xmlns:animation:1.0" xmlns:svg="urn:oasis:names:tc:opendocument:xmlns:svg-compatible:1.0" xml:space="preserve">
 <defs class="ClipPathGroup">
  <clipPath id="presentation_clip_path" clipPathUnits="userSpaceOnUse">
   <rect x="0" y="0" width="21000" height="14800"/>
  </clipPath>
  <clipPath id="presentation_clip_path_shrink" clipPathUnits="userSpaceOnUse">
   <rect x="21" y="14" width="20958" height="14771"/>
  </clipPath>
 </defs>
 <defs class="TextShapeIndex">
  <g ooo:slide="id1" ooo:id-list="id3 id4 id5 id6 id7 id8 id9 id10 id11 id12 id13 id14 id15 id16 id17 id18 id19 id20 id21 id22 id23 id24 id25 id26"/>
 </defs>
 <defs class="EmbeddedBulletChars">
  <g id="bullet-char-template-57356" transform="scale(0.00048828125,-0.00048828125)">
   <path d="M 580,1141 L 1163,571 580,0 -4,571 580,1141 Z"/>
  </g>
  <g id="bullet-char-template-57354" transform="scale(0.00048828125,-0.00048828125)">
   <path d="M 8,1128 L 1137,1128 1137,0 8,0 8,1128 Z"/>
  </g>
  <g id="bullet-char-template-10146" transform="scale(0.00048828125,-0.00048828125)">
   <path d="M 174,0 L 602,739 174,1481 1456,739 174,0 Z M 1358,739 L 309,1346 659,739 1358,739 Z"/>
  </g>
  <g id="bullet-char-template-10132" transform="scale(0.00048828125,-0.00048828125)">
   <path d="M 2015,739 L 1276,0 717,0 1260,543 174,543 174,936 1260,936 717,1481 1274,1481 2015,739 Z"/>
  </g>
  <g id="bullet-char-template-10007" transform="scale(0.00048828125,-0.00048828125)">
   <path d="M 0,-2 C -7,14 -16,27 -25,37 L 356,567 C 262,823 215,952 215,954 215,979 228,992 255,992 264,992 276,990 289,987 310,991 331,999 354,1012 L 381,999 492,748 772,1049 836,1024 860,1049 C 881,1039 901,1025 922,1006 886,937 835,863 770,784 769,783 710,716 594,584 L 774,223 C 774,196 753,168 711,139 L 727,119 C 717,90 699,76 672,76 641,76 570,178 457,381 L 164,-76 C 142,-110 111,-127 72,-127 30,-127 9,-110 8,-76 1,-67 -2,-52 -2,-32 -2,-23 -1,-13 0,-2 Z"/>
  </g>
  <g id="bullet-char-template-10004" transform="scale(0.00048828125,-0.00048828125)">
   <path d="M 285,-33 C 182,-33 111,30 74,156 52,228 41,333 41,471 41,549 55,616 82,672 116,743 169,778 240,778 293,778 328,747 346,684 L 369,508 C 377,444 397,411 428,410 L 1163,1116 C 1174,1127 1196,1133 1229,1133 1271,1133 1292,1118 1292,1087 L 1292,965 C 1292,929 1282,901 1262,881 L 442,47 C 390,-6 338,-33 285,-33 Z"/>
  </g>
  <g id="bullet-char-template-9679" transform="scale(0.00048828125,-0.00048828125)">
   <path d="M 813,0 C 632,0 489,54 383,161 276,268 223,411 223,592 223,773 276,916 383,1023 489,1130 632,1184 813,1184 992,1184 1136,1130 1245,1023 1353,916 1407,772 1407,592 1407,412 1353,268 1245,161 1136,54 992,0 813,0 Z"/>
  </g>
  <g id="bullet-char-template-8226" transform="scale(0.00048828125,-0.00048828125)">
   <path d="M 346,457 C 273,457 209,483 155,535 101,586 74,649 74,723 74,796 101,859 155,911 209,963 273,989 346,989 419,989 480,963 531,910 582,859 608,796 608,723 608,648 583,586 532,535 482,483 420,457 346,457 Z"/>
  </g>
  <g id="bullet-char-template-8211" transform="scale(0.00048828125,-0.00048828125)">
   <path d="M -4,459 L 1135,459 1135,606 -4,606 -4,459 Z"/>
  </g>
  <g id="bullet-char-template-61548" transform="scale(0.00048828125,-0.00048828125)">
   <path d="M 173,740 C 173,903 231,1043 346,1159 462,1274 601,1332 765,1332 928,1332 1067,1274 1183,1159 1299,1043 1357,903 1357,740 1357,577 1299,437 1183,322 1067,206 928,148 765,148 601,148 462,206 346,322 231,437 173,577 173,740 Z"/>
  </g>
 </defs>
 <g>
  <g id="id2" class="Master_Slide">
   <g id="bg-id2" class="Background"/>
   <g id="bo-id2" class="BackgroundObjects"/>
  </g>
 </g>
 <g class="SlideGroup">
  <g>
   <g id="container-id1">
    <g id="id1" class="Slide" clip-path="url(#presentation_clip_path)">
     <g class="Page">
      <g class="com.sun.star.drawing.PolyPolygonShape">
       <g id="id3">
        <rect class="BoundingBox" stroke="none" fill="none" x="0" y="0" width="21000" height="14801"/>
</g>
      </g>
      <g class="com.sun.star.drawing.ClosedBezierShape">
       <g id="id4">
        <rect class="BoundingBox" stroke="none" fill="none" x="3855" y="5236" width="995" height="1261"/>
        <path fill="rgb(0,0,0)" stroke="none" d="M 3911,5241 C 3899,5234 3885,5234 3873,5241 3861,5247 3855,5260 3855,5273 3855,5408 3855,5714 3855,5848 3855,5862 3861,5874 3873,5881 3885,5888 3899,5888 3911,5881 3977,5844 4081,5783 4138,5751 4161,5737 4190,5737 4213,5751 4286,5793 4445,5885 4520,5927 4544,5941 4558,5966 4558,5993 4558,6071 4558,6236 4558,6313 4558,6338 4572,6362 4595,6375 4644,6404 4734,6456 4792,6490 4803,6497 4818,6497 4829,6490 4841,6483 4849,6471 4849,6457 4849,6307 4849,5946 4849,5823 4849,5797 4835,5774 4812,5761 4664,5675 4093,5346 3911,5241 Z"/>
       </g>
      </g>
      <g class="com.sun.star.drawing.ClosedBezierShape">
       <g id="id5">
        <rect class="BoundingBox" stroke="none" fill="none" x="3922" y="5000" width="1211" height="721"/>
        <path fill="rgb(0,0,0)" stroke="none" d="M 5112,5596 C 5124,5589 5132,5577 5132,5562 5132,5549 5124,5536 5112,5530 4930,5423 4362,5095 4213,5010 4190,4997 4162,4997 4141,5010 4090,5038 4002,5090 3942,5123 3931,5130 3922,5143 3922,5156 3922,5170 3931,5182 3942,5189 4125,5294 4694,5624 4843,5710 4866,5723 4893,5723 4914,5710 4965,5682 5054,5630 5112,5596 Z"/>
       </g>
      </g>
      <g class="com.sun.star.drawing.ClosedBezierShape">
       <g id="id6">
        <rect class="BoundingBox" stroke="none" fill="none" x="4907" y="5641" width="293" height="856"/>
        <path fill="rgb(0,0,0)" stroke="none" d="M 5164,6375 C 5185,6362 5199,6338 5199,6313 5199,6190 5199,5828 5199,5679 5199,5665 5193,5653 5181,5646 5168,5639 5155,5639 5142,5646 5083,5680 4993,5731 4944,5760 4921,5773 4907,5796 4907,5822 4907,5945 4907,6307 4907,6457 4907,6471 4915,6483 4927,6490 4938,6497 4953,6497 4964,6490 5024,6456 5113,6404 5164,6375 Z"/>
       </g>
      </g>
      <g class="com.sun.star.drawing.ClosedBezierShape">
       <g id="id7">
        <rect class="BoundingBox" stroke="none" fill="none" x="3850" y="6054" width="643" height="1464"/>
        <path fill="rgb(0,0,0)" stroke="none" d="M 3850,7478 C 3850,7492 3858,7504 3868,7511 3881,7518 3894,7518 3907,7511 4023,7444 4290,7291 4405,7224 4417,7217 4425,7205 4425,7191 4425,7178 4417,7165 4405,7159 4341,7121 4235,7060 4180,7028 4155,7015 4141,6990 4141,6963 4141,6878 4141,6692 4141,6608 4141,6581 4155,6556 4180,6542 4247,6503 4391,6421 4457,6382 4480,6369 4492,6346 4492,6320 4492,6263 4492,6159 4492,6092 4492,6078 4486,6066 4474,6059 4463,6052 4448,6052 4437,6059 4307,6134 3992,6314 3885,6376 3864,6389 3850,6412 3850,6438 L 3850,7478 Z"/>
       </g>
      </g>
      <g class="com.sun.star.drawing.ClosedBezierShape">
       <g id="id8">
        <rect class="BoundingBox" stroke="none" fill="none" x="3498" y="6257" width="294" height="1261"/>
        <path fill="rgb(0,0,0)" stroke="none" d="M 3556,6262 C 3546,6255 3530,6255 3518,6262 3506,6269 3498,6281 3498,6295 3498,6506 3498,7163 3498,7335 3498,7361 3512,7384 3535,7397 3585,7426 3675,7477 3735,7511 3747,7518 3761,7518 3773,7511 3784,7504 3791,7492 3791,7478 L 3791,6438 C 3791,6412 3778,6389 3756,6376 3706,6347 3616,6296 3556,6262 Z"/>
       </g>
      </g>
      <g class="com.sun.star.drawing.ClosedBezierShape">
       <g id="id9">
        <rect class="BoundingBox" stroke="none" fill="none" x="3567" y="5817" width="860" height="520"/>
        <path fill="rgb(0,0,0)" stroke="none" d="M 4208,5828 C 4186,5815 4157,5815 4136,5828 4030,5889 3715,6070 3587,6145 3575,6151 3567,6164 3567,6177 3567,6191 3575,6203 3587,6210 3645,6245 3734,6297 3784,6326 3806,6339 3833,6339 3857,6326 3963,6264 4276,6082 4405,6008 4417,6001 4425,5988 4425,5975 4425,5961 4417,5949 4405,5942 4347,5908 4257,5857 4208,5828 Z"/>
       </g>
      </g>
      <g class="com.sun.star.drawing.ClosedBezierShape">
       <g id="id10">
        <rect class="BoundingBox" stroke="none" fill="none" x="4278" y="6054" width="1560" height="890"/>
        <path fill="rgb(0,0,0)" stroke="none" d="M 5819,6413 C 5831,6406 5837,6393 5837,6380 5837,6366 5831,6354 5819,6347 5702,6279 5437,6126 5320,6059 5308,6052 5294,6052 5282,6059 5272,6066 5264,6078 5264,6092 5264,6167 5264,6288 5264,6354 5264,6381 5250,6406 5227,6419 5154,6461 4993,6554 4921,6596 4898,6609 4869,6609 4845,6596 4776,6556 4633,6474 4566,6436 4545,6423 4517,6423 4494,6436 4445,6464 4355,6516 4297,6550 4286,6557 4278,6569 4278,6583 4278,6596 4286,6609 4297,6615 4427,6690 4741,6871 4846,6933 4869,6946 4897,6946 4918,6933 5068,6847 5637,6518 5819,6413 Z"/>
       </g>
      </g>
      <g class="com.sun.star.drawing.ClosedBezierShape">
       <g id="id11">
        <rect class="BoundingBox" stroke="none" fill="none" x="4912" y="6459" width="995" height="855"/>
        <path fill="rgb(0,0,0)" stroke="none" d="M 4912,7277 C 4912,7290 4920,7302 4930,7309 4943,7315 4958,7315 4969,7309 5152,7202 5721,6874 5869,6787 5892,6774 5906,6752 5906,6726 5906,6669 5906,6565 5906,6497 5906,6484 5898,6471 5888,6464 5875,6458 5860,6458 5849,6464 5666,6570 5097,6900 4949,6985 4926,6998 4912,7021 4912,7047 4912,7104 4912,7208 4912,7277 Z"/>
       </g>
      </g>
      <g class="com.sun.star.drawing.ClosedBezierShape">
       <g id="id12">
        <rect class="BoundingBox" stroke="none" fill="none" x="4211" y="6662" width="643" height="653"/>
        <path fill="rgb(0,0,0)" stroke="none" d="M 4211,6929 C 4211,6954 4223,6978 4246,6991 4352,7052 4666,7234 4796,7309 4809,7315 4823,7315 4835,7309 4847,7302 4853,7289 4853,7276 4853,7208 4853,7104 4853,7047 4853,7021 4840,6997 4818,6984 4708,6923 4396,6742 4266,6667 4256,6660 4240,6660 4230,6667 4217,6674 4211,6686 4211,6700 4211,6767 4211,6871 4211,6929 Z"/>
       </g>
      </g>
      <g class="com.sun.star.drawing.ClosedBezierShape">
       <g id="id13">
        <rect class="BoundingBox" stroke="none" fill="none" x="6275" y="5653" width="877" height="1271"/>
        <path fill="rgb(0,0,0)" stroke="none" d="M 6277,6599 L 6277,6560 C 6277,6532 6292,6517 6320,6517 L 6486,6517 C 6514,6517 6528,6532 6528,6560 L 6528,6576 C 6528,6626 6538,6660 6558,6678 6579,6697 6614,6706 6668,6706 L 6760,6706 C 6812,6706 6847,6696 6867,6676 6887,6656 6898,6620 6898,6566 L 6898,6542 C 6898,6503 6882,6474 6852,6453 6821,6433 6783,6421 6737,6417 6691,6413 6640,6405 6587,6394 6534,6383 6483,6369 6437,6351 6392,6333 6353,6298 6323,6246 6292,6194 6275,6128 6275,6046 L 6275,5977 C 6275,5875 6304,5795 6363,5739 6421,5681 6500,5653 6604,5653 L 6801,5653 C 6905,5653 6986,5681 7044,5739 7103,5795 7132,5875 7132,5977 L 7132,6015 C 7132,6042 7118,6056 7090,6056 L 6922,6056 C 6894,6056 6881,6042 6881,6015 L 6881,6003 C 6881,5952 6870,5917 6850,5898 6830,5880 6795,5871 6743,5871 L 6665,5871 C 6611,5871 6575,5881 6555,5901 6535,5922 6526,5961 6526,6021 L 6526,6058 C 6526,6120 6581,6155 6688,6165 6801,6174 6899,6196 6986,6232 7032,6251 7072,6286 7104,6337 7133,6388 7150,6452 7150,6532 L 7150,6599 C 7150,6702 7121,6781 7063,6838 7003,6894 6924,6923 6821,6923 L 6607,6923 C 6502,6923 6422,6894 6364,6838 6306,6781 6277,6702 6277,6599 Z"/>
       </g>
      </g>
      <g class="com.sun.star.drawing.ClosedBezierShape">
       <g id="id14">
        <rect class="BoundingBox" stroke="none" fill="none" x="7273" y="5915" width="810" height="1010"/>
        <path fill="rgb(0,0,0)" stroke="none" d="M 8036,6923 L 7599,6923 C 7495,6923 7415,6895 7359,6840 7302,6785 7273,6705 7273,6601 L 7273,6236 C 7273,6133 7302,6053 7359,5998 7415,5943 7495,5915 7599,5915 L 7756,5915 C 7860,5915 7941,5943 7998,5998 8053,6053 8082,6133 8082,6236 L 8082,6489 C 8082,6517 8068,6530 8041,6530 L 7544,6530 C 7527,6530 7521,6538 7521,6552 L 7521,6595 C 7521,6636 7528,6665 7547,6683 7565,6701 7594,6710 7637,6710 L 8036,6710 C 8065,6710 8079,6724 8079,6753 L 8079,6883 C 8079,6898 8076,6908 8070,6914 8063,6920 8053,6923 8036,6923 Z M 7544,6363 L 7813,6363 C 7828,6363 7834,6355 7834,6341 L 7834,6244 C 7834,6202 7826,6173 7808,6156 7791,6139 7762,6130 7721,6130 L 7637,6130 C 7594,6130 7565,6139 7547,6156 7530,6173 7522,6202 7522,6244 L 7522,6341 C 7522,6355 7530,6363 7544,6363 Z"/>
       </g>
      </g>
      <g class="com.sun.star.drawing.ClosedBezierShape">
       <g id="id15">
        <rect class="BoundingBox" stroke="none" fill="none" x="8188" y="5915" width="664" height="1010"/>
        <path fill="rgb(0,0,0)" stroke="none" d="M 8851,6747 L 8851,6883 C 8851,6898 8848,6908 8842,6914 8836,6920 8825,6923 8810,6923 L 8515,6923 C 8411,6923 8331,6895 8275,6840 8217,6785 8188,6705 8188,6601 L 8188,6236 C 8188,6133 8217,6053 8275,5998 8331,5943 8411,5915 8515,5915 L 8810,5915 C 8838,5915 8851,5929 8851,5956 L 8851,6093 C 8851,6107 8848,6117 8842,6123 8836,6129 8825,6132 8810,6132 L 8556,6132 C 8515,6132 8486,6141 8467,6159 8449,6176 8440,6206 8440,6248 L 8440,6589 C 8440,6632 8449,6661 8467,6679 8486,6697 8515,6706 8556,6706 L 8810,6706 C 8838,6706 8851,6720 8851,6747 Z"/>
       </g>
      </g>
      <g class="com.sun.star.drawing.ClosedBezierShape">
       <g id="id16">
        <rect class="BoundingBox" stroke="none" fill="none" x="8950" y="5914" width="827" height="1010"/>
        <path fill="rgb(0,0,0)" stroke="none" d="M 9322,6923 L 9257,6923 C 9155,6923 9080,6895 9028,6840 8976,6785 8950,6705 8950,6601 L 8950,5956 C 8950,5929 8964,5915 8991,5915 L 9158,5915 C 9187,5915 9201,5929 9201,5956 L 9201,6589 C 9201,6632 9209,6661 9227,6679 9245,6697 9273,6706 9314,6706 L 9388,6706 C 9478,6706 9525,6656 9525,6556 L 9525,5956 C 9525,5929 9539,5915 9566,5915 L 9731,5915 C 9762,5915 9776,5929 9776,5956 L 9776,6881 C 9776,6909 9762,6923 9731,6923 L 9566,6923 C 9539,6923 9525,6909 9525,6881 L 9525,6816 9517,6816 C 9502,6852 9475,6878 9438,6896 9401,6914 9363,6923 9322,6923 Z"/>
       </g>
      </g>
      <g class="com.sun.star.drawing.ClosedBezierShape">
       <g id="id17">
        <rect class="BoundingBox" stroke="none" fill="none" x="9931" y="5915" width="565" height="1010"/>
        <path fill="rgb(0,0,0)" stroke="none" d="M 10140,6923 L 9972,6923 C 9946,6923 9931,6909 9931,6881 L 9931,5956 C 9931,5929 9946,5915 9972,5915 L 10140,5915 C 10168,5915 10182,5929 10182,5956 L 10182,6024 10189,6024 C 10205,5988 10229,5961 10266,5943 10304,5924 10342,5915 10384,5915 L 10455,5915 C 10483,5915 10495,5929 10495,5956 L 10495,6093 C 10495,6108 10492,6119 10487,6125 10481,6131 10470,6133 10455,6132 L 10318,6132 C 10228,6132 10182,6183 10182,6286 L 10182,6881 C 10182,6909 10168,6923 10140,6923 Z"/>
       </g>
      </g>
      <g class="com.sun.star.drawing.ClosedBezierShape">
       <g id="id18">
        <rect class="BoundingBox" stroke="none" fill="none" x="10541" y="5915" width="811" height="1010"/>
        <path fill="rgb(0,0,0)" stroke="none" d="M 11304,6923 L 10868,6923 C 10764,6923 10683,6895 10626,6840 10570,6785 10541,6705 10541,6601 L 10541,6236 C 10541,6133 10570,6053 10626,5998 10683,5943 10764,5915 10868,5915 L 11024,5915 C 11128,5915 11209,5943 11265,5998 11322,6053 11351,6133 11351,6236 L 11351,6489 C 11351,6517 11336,6530 11308,6530 L 10812,6530 C 10796,6530 10789,6538 10789,6552 L 10789,6595 C 10789,6636 10798,6665 10815,6683 10833,6701 10862,6710 10905,6710 L 11304,6710 C 11333,6710 11347,6724 11347,6753 L 11347,6883 C 11347,6898 11344,6908 11337,6914 11331,6920 11321,6923 11304,6923 Z M 10812,6363 L 11082,6363 C 11097,6363 11103,6355 11103,6341 L 11103,6244 C 11103,6202 11096,6173 11079,6156 11060,6139 11030,6130 10989,6130 L 10905,6130 C 10862,6130 10833,6139 10816,6156 10798,6173 10790,6202 10790,6244 L 10790,6341 C 10790,6355 10798,6363 10812,6363 Z"/>
       </g>
      </g>
      <g class="com.sun.star.drawing.ClosedBezierShape">
       <g id="id19">
        <rect class="BoundingBox" stroke="none" fill="none" x="11496" y="5653" width="1177" height="1271"/>
        <path fill="rgb(0,0,0)" stroke="none" d="M 12340,5653 L 12631,5653 C 12658,5653 12672,5667 12672,5694 L 12672,6881 C 12672,6909 12658,6923 12631,6923 L 12470,6923 C 12441,6923 12427,6909 12427,6881 L 12427,5946 12420,5946 12217,6607 C 12209,6633 12194,6647 12168,6647 L 12001,6647 C 11977,6647 11961,6633 11952,6607 L 11747,5944 11739,5944 11739,6881 C 11739,6897 11738,6908 11732,6914 11727,6920 11715,6923 11698,6923 L 11536,6923 C 11508,6923 11496,6909 11496,6881 L 11496,5694 C 11496,5667 11508,5653 11536,5653 L 11831,5653 C 11848,5653 11862,5662 11868,5680 L 12078,6377 12090,6377 12301,5680 C 12304,5662 12318,5653 12340,5653 Z"/>
       </g>
      </g>
      <g class="com.sun.star.drawing.ClosedBezierShape">
       <g id="id20">
        <rect class="BoundingBox" stroke="none" fill="none" x="12829" y="5914" width="827" height="1010"/>
        <path fill="rgb(0,0,0)" stroke="none" d="M 13202,6923 L 13155,6923 C 13051,6923 12970,6895 12913,6840 12856,6785 12829,6705 12829,6601 L 12829,6236 C 12829,6133 12856,6053 12913,5998 12970,5943 13051,5915 13155,5915 L 13609,5915 C 13639,5915 13655,5929 13655,5956 L 13655,6881 C 13655,6909 13639,6923 13609,6923 L 13444,6923 C 13416,6923 13403,6909 13403,6881 L 13403,6816 13395,6816 C 13381,6852 13355,6878 13318,6896 13282,6914 13242,6923 13202,6923 Z M 13403,6556 L 13403,6154 C 13403,6139 13395,6132 13380,6132 L 13193,6132 C 13152,6132 13123,6141 13106,6159 13089,6176 13080,6206 13080,6248 L 13080,6589 C 13080,6632 13089,6661 13106,6679 13123,6697 13152,6706 13193,6706 L 13266,6706 C 13358,6706 13403,6656 13403,6556 Z"/>
       </g>
      </g>
      <g class="com.sun.star.drawing.ClosedBezierShape">
       <g id="id21">
        <rect class="BoundingBox" stroke="none" fill="none" x="13791" y="5914" width="663" height="1010"/>
        <path fill="rgb(0,0,0)" stroke="none" d="M 14453,6747 L 14453,6883 C 14453,6898 14450,6908 14444,6914 14438,6920 14427,6923 14412,6923 L 14116,6923 C 14012,6923 13932,6895 13875,6840 13819,6785 13791,6705 13791,6601 L 13791,6236 C 13791,6133 13819,6053 13875,5998 13932,5943 14012,5915 14116,5915 L 14412,5915 C 14439,5915 14453,5929 14453,5956 L 14453,6093 C 14453,6107 14450,6117 14444,6123 14438,6129 14427,6132 14412,6132 L 14155,6132 C 14114,6132 14085,6141 14068,6159 14050,6176 14041,6206 14041,6248 L 14041,6589 C 14041,6632 14050,6661 14068,6679 14085,6697 14114,6706 14155,6706 L 14412,6706 C 14439,6706 14453,6720 14453,6747 Z"/>
       </g>
      </g>
      <g class="com.sun.star.drawing.ClosedBezierShape">
       <g id="id22">
        <rect class="BoundingBox" stroke="none" fill="none" x="14561" y="5535" width="828" height="1389"/>
        <path fill="rgb(0,0,0)" stroke="none" d="M 14772,6923 L 14602,6923 C 14576,6923 14561,6909 14561,6881 L 14561,5576 C 14561,5548 14576,5535 14602,5535 L 14772,5535 C 14798,5535 14812,5548 14812,5576 L 14812,6022 14821,6022 C 14850,5951 14913,5915 15014,5915 L 15077,5915 C 15284,5915 15388,6022 15388,6237 L 15388,6881 C 15388,6909 15373,6923 15344,6923 L 15178,6923 C 15150,6923 15136,6909 15136,6881 L 15136,6249 C 15136,6207 15127,6177 15110,6160 15092,6141 15061,6132 15020,6132 L 14948,6132 C 14858,6132 14812,6183 14812,6283 L 14812,6881 C 14812,6909 14798,6923 14772,6923 Z"/>
       </g>
      </g>
      <g class="com.sun.star.drawing.ClosedBezierShape">
       <g id="id23">
        <rect class="BoundingBox" stroke="none" fill="none" x="15522" y="5535" width="254" height="1389"/>
        <path fill="rgb(0,0,0)" stroke="none" d="M 15523,5745 L 15523,5574 C 15523,5548 15537,5535 15563,5535 L 15737,5535 C 15763,5535 15775,5547 15775,5572 L 15775,5745 C 15775,5772 15763,5785 15737,5785 L 15563,5785 C 15537,5785 15523,5772 15523,5745 Z M 15523,6881 L 15523,5956 C 15523,5929 15537,5915 15563,5915 L 15734,5915 C 15763,5915 15775,5929 15775,5956 L 15775,6881 C 15775,6898 15774,6910 15768,6915 15762,6920 15751,6923 15737,6923 L 15566,6923 C 15539,6923 15523,6909 15523,6881 Z"/>
       </g>
      </g>
      <g class="com.sun.star.drawing.ClosedBezierShape">
       <g id="id24">
        <rect class="BoundingBox" stroke="none" fill="none" x="15921" y="5915" width="828" height="1010"/>
        <path fill="rgb(0,0,0)" stroke="none" d="M 16132,6923 L 15964,6923 C 15935,6923 15921,6909 15921,6881 L 15921,5956 C 15921,5929 15935,5915 15964,5915 L 16132,5915 C 16159,5915 16173,5929 16173,5956 L 16173,6022 16181,6022 C 16210,5951 16274,5915 16375,5915 L 16438,5915 C 16644,5915 16748,6022 16748,6236 L 16748,6881 C 16748,6909 16733,6923 16704,6923 L 16539,6923 C 16511,6923 16497,6909 16497,6881 L 16497,6248 C 16497,6206 16488,6176 16471,6159 16453,6141 16424,6132 16381,6132 L 16309,6132 C 16219,6132 16173,6182 16173,6282 L 16173,6881 C 16173,6909 16159,6923 16132,6923 Z"/>
       </g>
      </g>
      <g class="com.sun.star.drawing.ClosedBezierShape">
       <g id="id25">
        <rect class="BoundingBox" stroke="none" fill="none" x="16874" y="5914" width="809" height="1010"/>
        <path fill="rgb(0,0,0)" stroke="none" d="M 17637,6923 L 17199,6923 C 17095,6923 17015,6895 16960,6840 16902,6785 16874,6705 16874,6601 L 16874,6236 C 16874,6133 16902,6053 16960,5998 17015,5943 17095,5915 17199,5915 L 17356,5915 C 17460,5915 17541,5943 17598,5998 17654,6053 17682,6133 17682,6236 L 17682,6489 C 17682,6517 17668,6530 17642,6530 L 17145,6530 C 17128,6530 17121,6538 17121,6552 L 17121,6595 C 17121,6636 17130,6665 17147,6683 17165,6701 17194,6710 17237,6710 L 17637,6710 C 17665,6710 17679,6724 17679,6753 L 17679,6883 C 17679,6898 17676,6908 17670,6914 17663,6920 17654,6923 17637,6923 Z M 17145,6363 L 17414,6363 C 17428,6363 17435,6355 17435,6341 L 17435,6244 C 17435,6202 17426,6173 17409,6156 17393,6139 17362,6130 17320,6130 L 17237,6130 C 17194,6130 17165,6139 17148,6156 17131,6173 17122,6202 17122,6244 L 17122,6341 C 17122,6355 17130,6363 17145,6363 Z"/>
       </g>
      </g>
      <g class="com.sun.star.drawing.ClosedBezierShape">
       <g id="id26">
        <rect class="BoundingBox" stroke="none" fill="none" x="17770" y="5915" width="731" height="1010"/>
        <path fill="rgb(0,0,0)" stroke="none" d="M 18190,6923 L 17814,6923 C 17788,6923 17776,6909 17776,6881 L 17776,6755 C 17776,6741 17777,6730 17783,6725 17788,6719 17800,6716 17814,6716 L 18145,6716 C 18210,6716 18242,6696 18242,6656 L 18242,6647 C 18242,6615 18214,6585 18161,6556 L 17965,6448 C 17899,6413 17849,6376 17817,6337 17785,6296 17770,6245 17770,6183 17770,6091 17794,6024 17843,5980 17893,5937 17968,5915 18072,5915 L 18402,5915 C 18429,5915 18441,5929 18441,5956 L 18441,6085 C 18441,6099 18439,6109 18433,6115 18429,6121 18418,6124 18402,6124 L 18127,6124 C 18063,6124 18031,6141 18031,6173 L 18031,6183 C 18031,6212 18058,6242 18115,6272 L 18314,6392 C 18384,6429 18432,6467 18459,6506 18488,6544 18500,6595 18500,6658 18500,6835 18398,6923 18190,6923 Z"/>
       </g>
      </g>
     </g>
    </g>
   </g>
  </g>
 </g>
</svg>