<svg xmlns="http://www.w3.org/2000/svg" xml:space="preserve" id="Layer_2_00000181783900908597791080000007408563667061506991_" x="0" y="0" viewBox="0 0 263 78.3"><style>.st0{fill:#2a5058}</style><g id="Layer_1-2"><g id="Group_30"><path id="Path_34" d="M33.5 33.2H12.1l-4.1 9H0L17.5 4.7c1.1-2.4 3.6-4 6.3-4h2.6l19.3 41.4h-8zm-18.7-6.1h16l-8-17.5c-.1 0-8 17.5-8 17.5" class="st0"/><path id="Path_35" d="M79.9 35.8v6.3H60.6c-2.6 0-4.8-2.1-4.8-4.8V.8h6.8v35.1h17.3z" class="st0"/><path id="Path_36" d="M141.1 26.9h-9.6v15.3h-6.8V5.5c0-2.6 2.1-4.7 4.7-4.7h13.2c8 0 13.9 5.5 13.9 13.1.1 5.4-3.3 10.2-8.4 12l9.6 16.3H150zm-9.6-6.4h10.7c4.5 0 7.4-2.8 7.4-6.7s-2.9-6.7-7.4-6.7h-10.7z" class="st0"/><path id="Path_37" d="M168.2 21.5C168.2 9.2 177.5 0 190 0s21.8 9.2 21.8 21.5S202.6 43 190.1 43s-21.9-9.3-21.9-21.5m36.8 0c0-8.2-6.7-14.9-14.9-14.9s-14.9 6.7-14.9 14.9c0 8.3 6.7 14.9 14.9 14.9S205 29.7 205 21.5" class="st0"/><path id="Path_38" d="M263 .8v38.3c0 1.7-1.4 3.1-3.1 3.1H257l-23.8-29.6v29.6h-7.1V5.3c0-2.5 2-4.6 4.6-4.6h1.9l23.3 29.1V.8z" class="st0"/><path id="Path_39" d="M97.9.8H80v6.3h15.5v35.1h6.8v-37c0-2.4-2-4.4-4.4-4.4" class="st0"/><path id="Rectangle_31" d="M105.6.8h12.7v6.3h-12.7z" style="fill:#02bbe3"/></g></g><path d="M192.4 78.3c-2.4 0-4.3-.7-5.6-2-1.3-1.4-1.9-3.3-1.9-5.8 0-1.2.2-2.4.6-3.3.4-1 .9-1.8 1.6-2.5q1.05-1.05 2.4-1.5c.9-.3 2-.5 3.1-.5.6 0 1.2 0 1.7.1s1 .2 1.4.3.7.3 1 .4.4.2.6.3l-1 2.7c-.5-.2-1-.5-1.6-.6q-.9-.3-2.1-.3-.75 0-1.5.3c-.5.2-.9.5-1.3.8q-.6.6-.9 1.5c-.2.6-.3 1.3-.3 2.2 0 .7.1 1.3.2 1.9.2.6.4 1.1.7 1.6.3.4.8.8 1.3 1 .5.3 1.2.4 2 .4.5 0 .9 0 1.3-.1s.7-.1 1-.2.6-.2.8-.3l.6-.3.9 2.7c-.5.3-1.2.6-2 .8-.8.3-1.8.4-3 .4M205.5 78.3c-1.1 0-2-.1-2.7-.4-.8-.3-1.4-.7-1.9-1.2s-.9-1.2-1.1-1.9-.4-1.5-.4-2.4V63h3.4v9c0 .6.1 1.1.2 1.6.1.4.3.8.6 1q.3.45.9.6c.3.1.7.2 1.1.2.8 0 1.5-.3 2-.8s.8-1.4.8-2.6v-9.1h3.4v9.4c0 .9-.1 1.7-.4 2.4-.2.7-.6 1.4-1.1 1.9s-1.2.9-1.9 1.2c-.9.3-1.8.5-2.9.5M219.6 65.6h-1.3v4.1h1c1.3 0 2.2-.2 2.7-.5s.8-.9.8-1.6-.3-1.3-.8-1.6c-.5-.2-1.3-.4-2.4-.4m-.2-2.8c2.3 0 4 .4 5.2 1.2s1.8 2.1 1.8 3.7c0 1.1-.2 1.9-.7 2.6s-1.2 1.2-2.1 1.6c.3.4.6.8 1 1.3.3.5.7 1 1 1.5s.6 1.1.9 1.6c.3.6.6 1.1.8 1.7h-3.8c-.3-.5-.6-1-.8-1.5l-.9-1.5c-.3-.5-.6-.9-.9-1.4l-.9-1.2h-1.7V78H215V63.2c.7-.1 1.5-.2 2.3-.3s1.5-.1 2.1-.1M255.9 69.1c.6-1 1.2-2 1.7-3.1.6-1 1.1-2.1 1.5-3.1h3.7c-.8 1.6-1.7 3.2-2.6 4.7s-1.8 3-2.8 4.6V78H254v-5.7c-1-1.5-1.9-3.1-2.8-4.6s-1.7-3.1-2.6-4.7h3.9c.5 1 1 2.1 1.5 3.1.7 1 1.3 2 1.9 3M163.8 75.3c.5 0 .9 0 1.2-.1s.6-.2.7-.3c.2-.1.3-.3.4-.5s.1-.4.1-.6c0-.5-.2-.9-.7-1.2s-1.3-.7-2.4-1.1l-1.5-.6c-.5-.2-.9-.5-1.3-.8s-.7-.8-1-1.2c-.2-.5-.4-1.1-.4-1.8s.1-1.3.4-1.9.6-1 1.1-1.4 1.1-.7 1.7-.9c.7-.2 1.4-.3 2.3-.3 1 0 1.9.1 2.6.3s1.3.5 1.8.7l-1 2.7c-.4-.2-.9-.4-1.4-.6s-1.1-.3-1.9-.3-1.4.1-1.7.3c-.4.2-.5.6-.5 1 0 .3.1.5.2.7s.3.4.6.5c.2.2.5.3.8.4s.7.3 1 .4c.8.3 1.5.6 2 .9.6.3 1.1.6 1.4 1 .4.4.7.8.9 1.3q.3.75.3 1.8 0 2.1-1.5 3.3c-1 .8-2.5 1.2-4.4 1.2-.7 0-1.3 0-1.8-.1s-1-.2-1.4-.3-.8-.2-1.1-.4c-.3-.1-.5-.3-.7-.4l1-2.7c.4.2 1 .5 1.7.7s1.5.3 2.5.3M172.3 77.8v-15h10.2v2.8h-6.8v3h6v2.8h-6V75h7.3v2.8zM229.3 62.8h3.4v15h-3.4zM247.4 62.8v2.9h-4.6v12.1h-3.4V65.7h-4.5v-2.9z" class="st0"/></svg>