<?xml version="1.0" encoding="utf-8"?>
<!-- Generator: Adobe Illustrator 28.2.0, SVG Export Plug-In . SVG Version: 6.00 Build 0)  -->
<svg version="1.1" id="Layer_2_00000181783900908597791080000007408563667061506991_"
	 xmlns="http://www.w3.org/2000/svg" xmlns:xlink="http://www.w3.org/1999/xlink" x="0px" y="0px" viewBox="0 0 263 78.3"
	 style="enable-background:new 0 0 263 78.3;" xml:space="preserve">
<style type="text/css">
	.st0{fill:#2A5058;}
	.st1{fill:#02BBE3;}
</style>
<g id="Layer_1-2">
	<g>
		<g id="Group_30">
			<path id="Path_34" class="st0" d="M33.5,33.2H12.1l-4.1,9H0L17.5,4.7c1.1-2.4,3.6-4,6.3-4h2.6l19.3,41.4h-8L33.5,33.2L33.5,33.2z
				 M14.8,27.1h16l-8-17.5C22.7,9.6,14.8,27.1,14.8,27.1z"/>
			<path id="Path_35" class="st0" d="M79.9,35.8v6.3H60.6c-2.6,0-4.8-2.1-4.8-4.8V0.8h6.8v35.1H79.9z"/>
			<path id="Path_36" class="st0" d="M141.1,26.9h-9.6v15.3h-6.8V5.5c0-2.6,2.1-4.7,4.7-4.7h13.2c8,0,13.9,5.5,13.9,13.1
				c0.1,5.4-3.3,10.2-8.4,12l9.6,16.3H150L141.1,26.9L141.1,26.9z M131.5,20.5h10.7c4.5,0,7.4-2.8,7.4-6.7s-2.9-6.7-7.4-6.7h-10.7
				V20.5z"/>
			<path id="Path_37" class="st0" d="M168.2,21.5c0-12.3,9.3-21.5,21.8-21.5s21.8,9.2,21.8,21.5S202.6,43,190.1,43
				S168.2,33.7,168.2,21.5 M205,21.5c0-8.2-6.7-14.9-14.9-14.9c-8.2,0-14.9,6.7-14.9,14.9l0,0c0,8.3,6.7,14.9,14.9,14.9
				C198.3,36.4,205,29.7,205,21.5L205,21.5"/>
			<path id="Path_38" class="st0" d="M263,0.8v38.3c0,1.7-1.4,3.1-3.1,3.1H257l-23.8-29.6v29.6h-7.1V5.3c0-2.5,2-4.6,4.6-4.6l0,0
				h1.9l23.3,29.1V0.8H263z"/>
			<path id="Path_39" class="st0" d="M97.9,0.8H80v6.3h15.5v35.1h6.8V5.2C102.3,2.8,100.3,0.8,97.9,0.8L97.9,0.8"/>
			<rect id="Rectangle_31" x="105.6" y="0.8" class="st1" width="12.7" height="6.3"/>
		</g>
	</g>
</g>
<g>
	<path class="st0" d="M192.4,78.3c-2.4,0-4.3-0.7-5.6-2c-1.3-1.4-1.9-3.3-1.9-5.8c0-1.2,0.2-2.4,0.6-3.3c0.4-1,0.9-1.8,1.6-2.5
		c0.7-0.7,1.5-1.2,2.4-1.5c0.9-0.3,2-0.5,3.1-0.5c0.6,0,1.2,0,1.7,0.1c0.5,0.1,1,0.2,1.4,0.3c0.4,0.1,0.7,0.3,1,0.4
		c0.3,0.1,0.4,0.2,0.6,0.3l-1,2.7c-0.5-0.2-1-0.5-1.6-0.6c-0.6-0.2-1.3-0.3-2.1-0.3c-0.5,0-1,0.1-1.5,0.3c-0.5,0.2-0.9,0.5-1.3,0.8
		c-0.4,0.4-0.7,0.9-0.9,1.5c-0.2,0.6-0.3,1.3-0.3,2.2c0,0.7,0.1,1.3,0.2,1.9c0.2,0.6,0.4,1.1,0.7,1.6c0.3,0.4,0.8,0.8,1.3,1
		c0.5,0.3,1.2,0.4,2,0.4c0.5,0,0.9,0,1.3-0.1c0.4-0.1,0.7-0.1,1-0.2c0.3-0.1,0.6-0.2,0.8-0.3c0.2-0.1,0.4-0.2,0.6-0.3l0.9,2.7
		c-0.5,0.3-1.2,0.6-2,0.8C194.6,78.2,193.6,78.3,192.4,78.3"/>
	<path class="st0" d="M205.5,78.3c-1.1,0-2-0.1-2.7-0.4c-0.8-0.3-1.4-0.7-1.9-1.2c-0.5-0.5-0.9-1.2-1.1-1.9
		c-0.2-0.7-0.4-1.5-0.4-2.4v-9.4h3.4V72c0,0.6,0.1,1.1,0.2,1.6c0.1,0.4,0.3,0.8,0.6,1c0.2,0.3,0.5,0.5,0.9,0.6
		c0.3,0.1,0.7,0.2,1.1,0.2c0.8,0,1.5-0.3,2-0.8c0.5-0.5,0.8-1.4,0.8-2.6v-9.1h3.4v9.4c0,0.9-0.1,1.7-0.4,2.4
		c-0.2,0.7-0.6,1.4-1.1,1.9c-0.5,0.5-1.2,0.9-1.9,1.2C207.5,78.1,206.6,78.3,205.5,78.3"/>
	<path class="st0" d="M219.6,65.6c-0.2,0-0.5,0-0.7,0c-0.2,0-0.4,0-0.6,0v4.1h1c1.3,0,2.2-0.2,2.7-0.5c0.5-0.3,0.8-0.9,0.8-1.6
		c0-0.7-0.3-1.3-0.8-1.6C221.5,65.8,220.7,65.6,219.6,65.6 M219.4,62.8c2.3,0,4,0.4,5.2,1.2c1.2,0.8,1.8,2.1,1.8,3.7
		c0,1.1-0.2,1.9-0.7,2.6c-0.5,0.7-1.2,1.2-2.1,1.6c0.3,0.4,0.6,0.8,1,1.3c0.3,0.5,0.7,1,1,1.5c0.3,0.5,0.6,1.1,0.9,1.6
		c0.3,0.6,0.6,1.1,0.8,1.7h-3.8c-0.3-0.5-0.6-1-0.8-1.5c-0.3-0.5-0.6-1-0.9-1.5c-0.3-0.5-0.6-0.9-0.9-1.4c-0.3-0.4-0.6-0.8-0.9-1.2
		h-1.7V78H215V63.2c0.7-0.1,1.5-0.2,2.3-0.3C218.1,62.8,218.8,62.8,219.4,62.8"/>
	<path class="st0" d="M255.9,69.1c0.6-1,1.2-2,1.7-3.1c0.6-1,1.1-2.1,1.5-3.1h3.7c-0.8,1.6-1.7,3.2-2.6,4.7c-0.9,1.5-1.8,3-2.8,4.6
		V78h-3.4v-5.7c-1-1.5-1.9-3.1-2.8-4.6c-0.9-1.5-1.7-3.1-2.6-4.7h3.9c0.5,1,1,2.1,1.5,3.1C254.7,67.1,255.3,68.1,255.9,69.1"/>
	<path class="st0" d="M163.8,75.3c0.5,0,0.9,0,1.2-0.1c0.3-0.1,0.6-0.2,0.7-0.3c0.2-0.1,0.3-0.3,0.4-0.5c0.1-0.2,0.1-0.4,0.1-0.6
		c0-0.5-0.2-0.9-0.7-1.2c-0.5-0.3-1.3-0.7-2.4-1.1c-0.5-0.2-1-0.4-1.5-0.6c-0.5-0.2-0.9-0.5-1.3-0.8c-0.4-0.3-0.7-0.8-1-1.2
		c-0.2-0.5-0.4-1.1-0.4-1.8c0-0.7,0.1-1.3,0.4-1.9c0.3-0.6,0.6-1,1.1-1.4c0.5-0.4,1.1-0.7,1.7-0.9c0.7-0.2,1.4-0.3,2.3-0.3
		c1,0,1.9,0.1,2.6,0.3c0.7,0.2,1.3,0.5,1.8,0.7l-1,2.7c-0.4-0.2-0.9-0.4-1.4-0.6c-0.5-0.2-1.1-0.3-1.9-0.3c-0.8,0-1.4,0.1-1.7,0.3
		c-0.4,0.2-0.5,0.6-0.5,1c0,0.3,0.1,0.5,0.2,0.7c0.1,0.2,0.3,0.4,0.6,0.5c0.2,0.2,0.5,0.3,0.8,0.4c0.3,0.1,0.7,0.3,1,0.4
		c0.8,0.3,1.5,0.6,2,0.9c0.6,0.3,1.1,0.6,1.4,1c0.4,0.4,0.7,0.8,0.9,1.3c0.2,0.5,0.3,1.1,0.3,1.8c0,1.4-0.5,2.5-1.5,3.3
		c-1,0.8-2.5,1.2-4.4,1.2c-0.7,0-1.3,0-1.8-0.1c-0.5-0.1-1-0.2-1.4-0.3c-0.4-0.1-0.8-0.2-1.1-0.4c-0.3-0.1-0.5-0.3-0.7-0.4l1-2.7
		c0.4,0.2,1,0.5,1.7,0.7C162,75.2,162.8,75.3,163.8,75.3"/>
	<polygon class="st0" points="172.3,77.8 172.3,62.8 182.5,62.8 182.5,65.6 175.7,65.6 175.7,68.6 181.7,68.6 181.7,71.4 
		175.7,71.4 175.7,75 183,75 183,77.8 	"/>
	<rect x="229.3" y="62.8" class="st0" width="3.4" height="15"/>
	<polygon class="st0" points="247.4,62.8 247.4,65.7 242.8,65.7 242.8,77.8 239.4,77.8 239.4,65.7 234.9,65.7 234.9,62.8 	"/>
</g>
</svg>
