<?xml version="1.0" encoding="UTF-8"?>
<svg 
  xmlns="http://www.w3.org/2000/svg" id="a" viewBox="0 0 341.6 64.45">
  <defs>
    <style>.b{fill:#fff;}</style>
  </defs>
  <path class="b" d="m103.02,58.29c0-2.96-1.11-4.54-3.62-4.54s-3.64,1.39-3.64,4.44,1.11,4.56,3.62,4.56,3.64-1.39,3.64-4.46m.35-5.01c1.15,1.01,1.74,2.72,1.74,4.96s-.56,3.97-1.72,4.98c-1.08.92-2.49,1.24-4,1.24s-2.89-.31-3.97-1.24c-1.15-1.01-1.72-2.72-1.72-4.96s.54-3.97,1.72-4.98c1.06-.92,2.49-1.24,3.99-1.24s2.89.31,3.97,1.24"/>
  <path class="b" d="m113.06,53.88h-1.95v4.98h1.97c1.97,0,2.77-.8,2.77-2.51,0-1.88-1.04-2.47-2.78-2.47m3.86,5.4c-.92.96-2.11,1.18-3.99,1.18h-1.83v3.74h-2.02v-11.92h4.09c1.62,0,2.84.19,3.71,1.06.71.73,1.01,1.79,1.01,3.03s-.35,2.25-.97,2.91"/>
  <polygon class="b" points="120.1 52.28 120.1 53.97 124.12 53.97 124.12 64.21 126.14 64.21 126.14 53.97 130.16 53.97 130.16 52.28 120.1 52.28"/>
  <rect class="b" x="133.69" y="52.28" width="2.02" height="11.92"/>
  <polygon class="b" points="150.61 52.28 147.11 62 147.06 62 143.54 52.28 140.77 52.28 140.77 64.21 142.53 64.21 142.53 55.15 142.58 55.15 145.84 64.21 148 64.21 151.31 55.15 151.36 55.15 151.36 64.21 153.32 64.21 153.32 52.28 150.61 52.28"/>
  <rect class="b" x="158.38" y="52.28" width="2.02" height="11.92"/>
  <polygon class="b" points="165.2 52.28 165.2 53.95 171.22 53.95 171.22 54.02 164.73 62.52 164.73 64.21 174.32 64.21 174.32 62.52 167.36 62.52 167.36 62.45 173.85 53.95 173.85 52.28 165.2 52.28"/>
  <polygon class="b" points="178.3 52.28 178.3 64.21 186.01 64.21 186.01 62.52 180.32 62.52 180.32 58.9 185.27 58.9 185.27 57.28 180.32 57.28 180.32 53.97 185.74 53.97 185.74 52.28 178.3 52.28"/>
  <path class="b" d="m194.92,53.94h-2.47v8.62h2.44c2.63,0,3.85-1.36,3.85-4.3s-1.29-4.32-3.81-4.32m4.11,9.09c-1.11.89-2.61,1.18-4.16,1.18h-4.44v-11.92h4.47c1.55,0,3,.28,4.13,1.18,1.18.97,1.79,2.61,1.79,4.77s-.57,3.81-1.79,4.79"/>
  <rect class="b" x="212.2" y="52.28" width="2.02" height="11.92"/>
  <polygon class="b" points="217.75 52.28 217.75 53.97 221.77 53.97 221.77 64.21 223.79 64.21 223.79 53.97 227.81 53.97 227.81 52.28 217.75 52.28"/>
  <rect class="b" x="228.01" y="58.98" width="4.35" height="1.65"/>
  <path class="b" d="m241.19,63.79c-.87.52-1.97.66-3.29.66-.9,0-2.04-.03-3.26-.17v-1.72c1.05.12,2.09.21,3.03.21.77,0,1.51-.07,2.02-.28.63-.24.92-.82.92-1.5,0-.9-.43-1.37-1.34-1.67-.59-.19-1.27-.37-1.9-.56-1.76-.5-2.75-1.39-2.75-3.25,0-1.11.42-2.21,1.37-2.82.89-.56,1.9-.64,3.1-.64.82,0,1.83.07,2.94.19v1.65c-.97-.12-2-.21-2.77-.21-.68,0-1.25.02-1.79.24-.61.26-.85.87-.85,1.43,0,.84.43,1.29,1.25,1.57.54.17,1.15.33,1.83.52,1.88.49,2.91,1.41,2.91,3.41,0,1.11-.38,2.3-1.43,2.94"/>
  <path class="b" d="m255.11,58.29c0-2.96-1.11-4.54-3.62-4.54s-3.64,1.39-3.64,4.44,1.11,4.56,3.62,4.56,3.64-1.39,3.64-4.46m.35-5.01c1.15,1.01,1.74,2.72,1.74,4.96s-.56,3.97-1.72,4.98c-1.08.92-2.49,1.24-4,1.24s-2.89-.31-3.97-1.24c-1.15-1.01-1.72-2.72-1.72-4.96s.54-3.97,1.72-4.98c1.06-.92,2.49-1.24,3.99-1.24s2.89.31,3.97,1.24"/>
  <polygon class="b" points="261.18 52.28 261.18 64.21 269.08 64.21 269.08 62.45 263.19 62.45 263.19 52.28 261.18 52.28"/>
  <path class="b" d="m272.9,63.23c-.89-.89-1.06-2.11-1.06-4.06v-6.89h2.04v7.14c0,1.11.09,1.85.57,2.47.47.63,1.31.85,2.21.85s1.72-.19,2.23-.87c.47-.59.57-1.32.57-2.4v-7.19h1.95v6.89c0,1.95-.16,3.17-1.06,4.06-.99,1.03-2.31,1.22-3.71,1.22s-2.75-.19-3.74-1.22"/>
  <polygon class="b" points="284.71 52.28 284.71 53.97 288.74 53.97 288.74 64.21 290.75 64.21 290.75 53.97 294.78 53.97 294.78 52.28 284.71 52.28"/>
  <rect class="b" x="298.3" y="52.28" width="2.02" height="11.92"/>
  <path class="b" d="m313.64,58.29c0-2.96-1.11-4.54-3.62-4.54s-3.64,1.39-3.64,4.44,1.11,4.56,3.62,4.56,3.64-1.39,3.64-4.46m.35-5.01c1.15,1.01,1.74,2.72,1.74,4.96s-.56,3.97-1.72,4.98c-1.08.92-2.49,1.24-4,1.24s-2.89-.31-3.97-1.24c-1.15-1.01-1.72-2.72-1.72-4.96s.54-3.97,1.72-4.98c1.06-.92,2.49-1.24,3.99-1.24s2.89.31,3.97,1.24"/>
  <polygon class="b" points="327.4 52.28 327.4 60.99 327.35 60.99 322.02 52.28 319.7 52.28 319.7 64.21 321.57 64.21 321.57 55.4 321.6 55.4 327.09 64.21 329.26 64.21 329.26 52.28 327.4 52.28"/>
  <path class="b" d="m340.17,63.79c-.87.52-1.97.66-3.29.66-.91,0-2.04-.03-3.26-.17v-1.72c1.05.12,2.09.21,3.03.21.77,0,1.51-.07,2.02-.28.63-.24.92-.82.92-1.5,0-.9-.43-1.37-1.34-1.67-.59-.19-1.27-.37-1.9-.56-1.76-.5-2.75-1.39-2.75-3.25,0-1.11.42-2.21,1.37-2.82.89-.56,1.9-.64,3.1-.64.82,0,1.83.07,2.94.19v1.65c-.98-.12-2-.21-2.77-.21-.68,0-1.25.02-1.79.24-.61.26-.85.87-.85,1.43,0,.84.43,1.29,1.25,1.57.54.17,1.15.33,1.83.52,1.88.49,2.91,1.41,2.91,3.41,0,1.11-.38,2.3-1.43,2.94"/>
  <path class="b" d="m167.86,7.79h-17.91c-3.91,0-5.41.76-5.41,3.38,0,1.12.46,2.28,1.65,2.82,1.08.49,1.79.6,4.86.6h5.9c8,0,12.56,3.74,12.56,10.39,0,4.33-2.3,8.71-5.61,10.31-1.79.87-4.04,1.12-8.45,1.12h-20.7v-7.77h17.79c3.6,0,4.41-.07,5.28-.32,1.18-.35,1.9-1.53,1.9-2.95s-.67-2.41-1.72-2.93c-.75-.37-1.79-.45-4.33-.45h-6.13c-4.63,0-6.8-.52-8.97-2.09-2.69-1.87-4.33-5.38-4.33-9.27,0-3.51,1.42-6.65,3.96-8.75,1.72-1.35,3.96-1.87,8.3-1.87h21.38v7.77Z"/>
  <polygon class="b" points="187.55 36.42 187.55 7.79 174.5 7.79 174.5 .02 210.86 .02 210.86 7.79 197.57 7.79 197.57 36.42 187.55 36.42"/>
  <path class="b" d="m242.33,7.79h-15.63v28.63h-10.02V6.72c0-3.7,3-6.7,6.7-6.7h18.94v7.77Z"/>
  <path class="b" d="m296.44,28.64h7.25c5.76,0,9.34-4.04,9.34-10.69,0-6.35-3.51-10.17-9.34-10.17h-7.25s0,20.85,0,20.85ZM305.86.02c4.71,0,8.37,1.12,11.06,3.36,4.26,3.51,6.28,8.3,6.28,14.58,0,6.05-1.87,10.84-5.53,14.2-3.59,3.21-6.95,4.26-13.98,4.26h-17.27V.02h19.43Z"/>
  <path class="b" d="m331.59,36.42h10.02V.02h-10.02v36.4Z"/>
  <path class="b" d="m122.57,4.05C119.51.69,116.74-.13,108.22.02h-8.82v7.77h8.82c6.05,0,7.77,1.49,7.62,6.5v14.35h-17.39l.4-.6,6.67-9.83,2.66-3.92h-4.04c-3.89,0-6.8.3-8.45.9-3.89,1.35-6.43,5.53-6.43,10.46,0,3.81,1.64,7.1,4.41,8.97,2.24,1.49,4.11,1.79,11.66,1.79h20.51V15.94c.07-5.68-.75-8.82-3.29-11.89Z"/>
  <path class="b" d="m273.52,4.05c-3.06-3.36-5.83-4.19-14.35-4.04h-8.82v7.77h8.82c6.05,0,7.77,1.49,7.62,6.5v14.35h-17.39l.4-.6,6.67-9.83,2.66-3.92h-4.04c-3.89,0-6.8.3-8.45.9-3.89,1.35-6.43,5.53-6.43,10.46,0,3.81,1.64,7.1,4.41,8.97,2.24,1.49,4.11,1.79,11.66,1.79h20.51V15.94c.07-5.68-.75-8.82-3.29-11.89Z"/>
  <path class="b" d="m52.3,0H12.15C5.44,0,0,5.44,0,12.15v40.14c0,6.71,5.44,12.15,12.15,12.15h40.14c6.71,0,12.15-5.44,12.15-12.15V12.15c0-6.71-5.44-12.15-12.15-12.15Zm-3.01,49.21h-19.14c-7.04,0-8.79-.28-10.88-1.67-2.58-1.74-4.11-4.81-4.11-8.37,0-4.6,2.37-8.51,6-9.76,1.53-.56,4.25-.84,7.88-.84h3.77l-2.48,3.66-6.23,9.18-.38.56h16.22v-13.39c.14-4.67-1.46-6.07-7.11-6.07h-8.23v-7.25h8.23c7.95-.14,10.53.63,13.39,3.77,2.37,2.86,3.14,5.79,3.07,11.09v19.11Z"/>
</svg> 