<svg xmlns="http://www.w3.org/2000/svg" id="a" viewBox="0 0 341.6 64.45"><defs><style>.b{fill:#fff}</style></defs><path d="M103.02 58.29c0-2.96-1.11-4.54-3.62-4.54s-3.64 1.39-3.64 4.44 1.11 4.56 3.62 4.56 3.64-1.39 3.64-4.46m.35-5.01c1.15 1.01 1.74 2.72 1.74 4.96s-.56 3.97-1.72 4.98c-1.08.92-2.49 1.24-4 1.24s-2.89-.31-3.97-1.24c-1.15-1.01-1.72-2.72-1.72-4.96s.54-3.97 1.72-4.98c1.06-.92 2.49-1.24 3.99-1.24s2.89.31 3.97 1.24M113.06 53.88h-1.95v4.98h1.97c1.97 0 2.77-.8 2.77-2.51 0-1.88-1.04-2.47-2.78-2.47m3.86 5.4c-.92.96-2.11 1.18-3.99 1.18h-1.83v3.74h-2.02V52.28h4.09c1.62 0 2.84.19 3.71 1.06.71.73 1.01 1.79 1.01 3.03s-.35 2.25-.97 2.91M120.1 52.28v1.69h4.02v10.24h2.02V53.97h4.02v-1.69zM133.69 52.28h2.02V64.2h-2.02zM150.61 52.28l-3.5 9.72h-.05l-3.52-9.72h-2.77v11.93h1.76v-9.06h.05l3.26 9.06H148l3.31-9.06h.05v9.06h1.96V52.28zM158.38 52.28h2.02V64.2h-2.02zM165.2 52.28v1.67h6.02v.07l-6.49 8.5v1.69h9.59v-1.69h-6.96v-.07l6.49-8.5v-1.67zM178.3 52.28v11.93h7.71v-1.69h-5.69V58.9h4.95v-1.62h-4.95v-3.31h5.42v-1.69zM194.92 53.94h-2.47v8.62h2.44c2.63 0 3.85-1.36 3.85-4.3s-1.29-4.32-3.81-4.32m4.11 9.09c-1.11.89-2.61 1.18-4.16 1.18h-4.44V52.29h4.47c1.55 0 3 .28 4.13 1.18 1.18.97 1.79 2.61 1.79 4.77s-.57 3.81-1.79 4.79M212.2 52.28h2.02V64.2h-2.02zM217.75 52.28v1.69h4.02v10.24h2.02V53.97h4.02v-1.69zM228.01 58.98h4.35v1.65h-4.35zM241.19 63.79c-.87.52-1.97.66-3.29.66-.9 0-2.04-.03-3.26-.17v-1.72c1.05.12 2.09.21 3.03.21.77 0 1.51-.07 2.02-.28.63-.24.92-.82.92-1.5 0-.9-.43-1.37-1.34-1.67-.59-.19-1.27-.37-1.9-.56-1.76-.5-2.75-1.39-2.75-3.25 0-1.11.42-2.21 1.37-2.82.89-.56 1.9-.64 3.1-.64.82 0 1.83.07 2.94.19v1.65c-.97-.12-2-.21-2.77-.21-.68 0-1.25.02-1.79.24-.61.26-.85.87-.85 1.43 0 .84.43 1.29 1.25 1.57.54.17 1.15.33 1.83.52 1.88.49 2.91 1.41 2.91 3.41 0 1.11-.38 2.3-1.43 2.94M255.11 58.29c0-2.96-1.11-4.54-3.62-4.54s-3.64 1.39-3.64 4.44 1.11 4.56 3.62 4.56 3.64-1.39 3.64-4.46m.35-5.01c1.15 1.01 1.74 2.72 1.74 4.96s-.56 3.97-1.72 4.98c-1.08.92-2.49 1.24-4 1.24s-2.89-.31-3.97-1.24c-1.15-1.01-1.72-2.72-1.72-4.96s.54-3.97 1.72-4.98c1.06-.92 2.49-1.24 3.99-1.24s2.89.31 3.97 1.24M261.18 52.28v11.93h7.9v-1.76h-5.89V52.28zM272.9 63.23c-.89-.89-1.06-2.11-1.06-4.06v-6.89h2.04v7.14c0 1.11.09 1.85.57 2.47.47.63 1.31.85 2.21.85s1.72-.19 2.23-.87c.47-.59.57-1.32.57-2.4v-7.19h1.95v6.89c0 1.95-.16 3.17-1.06 4.06-.99 1.03-2.31 1.22-3.71 1.22s-2.75-.19-3.74-1.22M284.71 52.28v1.69h4.03v10.24h2.01V53.97h4.03v-1.69zM298.3 52.28h2.02V64.2h-2.02zM313.64 58.29c0-2.96-1.11-4.54-3.62-4.54s-3.64 1.39-3.64 4.44 1.11 4.56 3.62 4.56 3.64-1.39 3.64-4.46m.35-5.01c1.15 1.01 1.74 2.72 1.74 4.96s-.56 3.97-1.72 4.98c-1.08.92-2.49 1.24-4 1.24s-2.89-.31-3.97-1.24c-1.15-1.01-1.72-2.72-1.72-4.96s.54-3.97 1.72-4.98c1.06-.92 2.49-1.24 3.99-1.24s2.89.31 3.97 1.24M327.4 52.28v8.71h-.05l-5.33-8.71h-2.32v11.93h1.87V55.4h.03l5.49 8.81h2.17V52.28zM340.17 63.79c-.87.52-1.97.66-3.29.66-.91 0-2.04-.03-3.26-.17v-1.72c1.05.12 2.09.21 3.03.21.77 0 1.51-.07 2.02-.28.63-.24.92-.82.92-1.5 0-.9-.43-1.37-1.34-1.67-.59-.19-1.27-.37-1.9-.56-1.76-.5-2.75-1.39-2.75-3.25 0-1.11.42-2.21 1.37-2.82.89-.56 1.9-.64 3.1-.64.82 0 1.83.07 2.94.19v1.65c-.98-.12-2-.21-2.77-.21-.68 0-1.25.02-1.79.24-.61.26-.85.87-.85 1.43 0 .84.43 1.29 1.25 1.57.54.17 1.15.33 1.83.52 1.88.49 2.91 1.41 2.91 3.41 0 1.11-.38 2.3-1.43 2.94M167.86 7.79h-17.91c-3.91 0-5.41.76-5.41 3.38 0 1.12.46 2.28 1.65 2.82 1.08.49 1.79.6 4.86.6h5.9c8 0 12.56 3.74 12.56 10.39 0 4.33-2.3 8.71-5.61 10.31-1.79.87-4.04 1.12-8.45 1.12h-20.7v-7.77h17.79c3.6 0 4.41-.07 5.28-.32 1.18-.35 1.9-1.53 1.9-2.95s-.67-2.41-1.72-2.93c-.75-.37-1.79-.45-4.33-.45h-6.13c-4.63 0-6.8-.52-8.97-2.09-2.69-1.87-4.33-5.38-4.33-9.27 0-3.51 1.42-6.65 3.96-8.75 1.72-1.35 3.96-1.87 8.3-1.87h21.38v7.77ZM187.55 36.42V7.79H174.5V.02h36.36v7.77h-13.29v28.63zM242.33 7.79H226.7v28.63h-10.02V6.72c0-3.7 3-6.7 6.7-6.7h18.94v7.77ZM296.44 28.64h7.25c5.76 0 9.34-4.04 9.34-10.69 0-6.35-3.51-10.17-9.34-10.17h-7.25v20.85ZM305.86.02c4.71 0 8.37 1.12 11.06 3.36 4.26 3.51 6.28 8.3 6.28 14.58 0 6.05-1.87 10.84-5.53 14.2-3.59 3.21-6.95 4.26-13.98 4.26h-17.27V.02h19.43ZM331.59 36.42h10.02V.02h-10.02zM122.57 4.05C119.51.69 116.74-.13 108.22.02H99.4v7.77h8.82c6.05 0 7.77 1.49 7.62 6.5v14.35H98.45l.4-.6 6.67-9.83 2.66-3.92h-4.04c-3.89 0-6.8.3-8.45.9-3.89 1.35-6.43 5.53-6.43 10.46 0 3.81 1.64 7.1 4.41 8.97 2.24 1.49 4.11 1.79 11.66 1.79h20.51V15.94c.07-5.68-.75-8.82-3.29-11.89ZM273.52 4.05C270.46.69 267.69-.14 259.17.01h-8.82v7.77h8.82c6.05 0 7.77 1.49 7.62 6.5v14.35H249.4l.4-.6 6.67-9.83 2.66-3.92h-4.04c-3.89 0-6.8.3-8.45.9-3.89 1.35-6.43 5.53-6.43 10.46 0 3.81 1.64 7.1 4.41 8.97 2.24 1.49 4.11 1.79 11.66 1.79h20.51V15.94c.07-5.68-.75-8.82-3.29-11.89ZM52.3 0H12.15C5.44 0 0 5.44 0 12.15v40.14C0 59 5.44 64.44 12.15 64.44h40.14c6.71 0 12.15-5.44 12.15-12.15V12.15C64.44 5.44 59 0 52.29 0Zm-3.01 49.21H30.15c-7.04 0-8.79-.28-10.88-1.67-2.58-1.74-4.11-4.81-4.11-8.37 0-4.6 2.37-8.51 6-9.76 1.53-.56 4.25-.84 7.88-.84h3.77l-2.48 3.66-6.23 9.18-.38.56h16.22V28.58c.14-4.67-1.46-6.07-7.11-6.07H24.6v-7.25h8.23c7.95-.14 10.53.63 13.39 3.77 2.37 2.86 3.14 5.79 3.07 11.09v19.11Z" class="b"/></svg>