<?xml version="1.0" encoding="UTF-8" standalone="no"?>
<!DOCTYPE svg PUBLIC "-//W3C//DTD SVG 1.1//EN" "http://www.w3.org/Graphics/SVG/1.1/DTD/svg11.dtd">
<svg viewBox="0 0 600 600" version="1.1" xmlns="http://www.w3.org/2000/svg" xmlns:xlink="http://www.w3.org/1999/xlink" xml:space="preserve" xmlns:serif="http://www.serif.com/" style="fill-rule:evenodd;clip-rule:evenodd;stroke-linejoin:round;stroke-miterlimit:2;">
    <g transform="matrix(1.18474,0,0,1.18474,24.3678,-252.607)">
        <g transform="matrix(0.607827,0,0,0.607827,143.585,236.127)">
            <path d="M131.712,416.099L154.86,371.682L179.033,371.682L183.54,416.831L206.993,371.682L232.836,371.682L192.289,449.659L164.106,449.659L159.6,408.513L138.262,449.659L110.079,449.659L100.722,371.682L126.677,371.682L131.712,416.099Z" style="fill-rule:nonzero;"/>
        </g>
        <g transform="matrix(0.168541,0,0,0.168541,-144.561,304.535)">
            <path d="M2655.81,1222.19C2626.61,1222.19 2601.37,1216.84 2580.08,1206.12C2558.79,1195.41 2542.32,1180.61 2530.67,1161.73C2519.01,1142.85 2513.19,1121.09 2513.19,1096.45C2513.19,1071.54 2517.54,1048.84 2526.25,1028.36C2534.95,1007.87 2547.2,990.123 2563.01,975.125C2578.81,960.127 2597.55,948.544 2619.25,940.375C2640.94,932.207 2664.64,928.122 2690.36,928.122C2719.55,928.122 2744.79,933.479 2766.08,944.192C2787.37,954.905 2803.85,969.702 2815.5,988.583C2827.15,1007.47 2832.97,1029.23 2832.97,1053.87C2832.97,1078.77 2828.62,1101.47 2819.91,1121.96C2811.21,1142.45 2798.96,1160.19 2783.16,1175.19C2767.35,1190.19 2748.61,1201.77 2726.91,1209.94C2705.22,1218.11 2681.52,1222.19 2655.81,1222.19ZM2663.84,1145.46C2675.62,1145.46 2686,1143.18 2694.97,1138.63C2703.95,1134.08 2711.65,1127.79 2718.08,1119.75C2724.5,1111.71 2729.32,1102.54 2732.54,1092.23C2735.75,1081.92 2737.36,1071.01 2737.36,1059.49C2737.36,1048.51 2735.15,1038.93 2730.73,1030.77C2726.31,1022.6 2720.02,1016.24 2711.85,1011.68C2703.68,1007.13 2693.84,1004.85 2682.32,1004.85C2670.8,1004.85 2660.49,1007.13 2651.39,1011.68C2642.28,1016.24 2634.51,1022.53 2628.09,1030.57C2621.66,1038.6 2616.84,1047.77 2613.62,1058.08C2610.41,1068.39 2608.8,1079.31 2608.8,1090.83C2608.8,1101.54 2611.01,1111.05 2615.43,1119.35C2619.85,1127.65 2626.14,1134.08 2634.31,1138.63C2642.48,1143.18 2652.32,1145.46 2663.84,1145.46Z" style="fill-rule:nonzero;"/>
        </g>
        <g transform="matrix(0.607827,0,0,0.607827,143.585,236.127)">
            <path d="M340.132,430.053L336.211,449.659L309.922,449.659L325.517,371.682L360.495,371.682C370.818,371.682 378.801,373.929 384.445,378.422C390.089,382.915 392.911,389.209 392.911,397.303C392.911,403.838 391.296,409.557 388.065,414.458C384.835,419.359 380.268,423.184 374.364,425.932C373.563,426.305 372.742,426.652 371.902,426.974L384.891,449.659L357.599,449.659L346.528,430.053L340.132,430.053ZM344.047,410.225L354.814,410.225C358.453,410.225 361.275,409.315 363.28,407.496C365.285,405.676 366.288,403.133 366.288,399.865C366.288,397.043 365.415,395.02 363.67,393.794C361.925,392.569 359.53,391.956 356.485,391.956L347.691,391.956L344.047,410.225Z" style="fill-rule:nonzero;"/>
        </g>
        <g transform="matrix(0.607827,0,0,0.607827,143.585,236.127)">
            <path d="M426.159,399.27L455.738,371.682L485.926,371.682L446.836,407.18L472.224,449.659L442.928,449.659L427.149,424.264L419.793,431.1L416.081,449.659L390.238,449.659L405.833,371.682L431.677,371.682L426.159,399.27Z" style="fill-rule:nonzero;"/>
        </g>
        <g transform="matrix(0.168541,0,0,0.168541,-144.561,304.535)">
            <path d="M3528.78,1222.19C3512.17,1222.19 3496.24,1220.99 3480.97,1218.58C3465.7,1216.17 3451.84,1212.75 3439.39,1208.33C3426.94,1203.91 3416.16,1199.03 3407.05,1193.67L3443.61,1123.77C3454.05,1129.66 3464.57,1134.55 3475.14,1138.43C3485.72,1142.31 3496.3,1145.19 3506.88,1147.07C3517.46,1148.94 3527.97,1149.88 3538.42,1149.88C3546.72,1149.88 3553.62,1149.21 3559.11,1147.87C3564.6,1146.53 3568.75,1144.59 3571.56,1142.05C3574.37,1139.5 3575.78,1136.62 3575.78,1133.41C3575.78,1129.12 3573.37,1125.64 3568.55,1122.96C3563.73,1120.29 3557.37,1117.88 3549.47,1115.73C3541.57,1113.59 3532.86,1111.38 3523.35,1109.1C3513.85,1106.83 3504.27,1103.88 3494.63,1100.27C3484.99,1096.65 3476.22,1092.03 3468.32,1086.41C3460.41,1080.78 3454.05,1073.68 3449.23,1065.11C3444.41,1056.54 3442,1046.1 3442,1033.78C3442,1012.35 3447.69,993.739 3459.08,977.937C3470.46,962.136 3486.8,949.883 3508.09,941.179C3529.38,932.474 3554.76,928.122 3584.22,928.122C3605.11,928.122 3624.59,930.198 3642.67,934.349C3660.75,938.5 3676.35,944.46 3689.47,952.226L3655.32,1021.33C3644.07,1014.36 3631.82,1009.14 3618.56,1005.66C3605.31,1002.18 3591.85,1000.44 3578.19,1000.44C3569.08,1000.44 3561.45,1001.31 3555.29,1003.05C3549.13,1004.79 3544.51,1007.13 3541.43,1010.08C3538.35,1013.02 3536.81,1016.1 3536.81,1019.32C3536.81,1023.6 3539.22,1027.15 3544.04,1029.96C3548.86,1032.77 3555.29,1035.18 3563.33,1037.19C3571.36,1039.2 3580.13,1041.35 3589.64,1043.62C3599.15,1045.9 3608.66,1048.71 3618.16,1052.06C3627.67,1055.4 3636.44,1059.82 3644.48,1065.32C3652.51,1070.81 3658.94,1077.77 3663.76,1086.2C3668.58,1094.64 3670.99,1105.02 3670.99,1117.34C3670.99,1138.23 3665.23,1156.51 3653.72,1172.18C3642.2,1187.84 3625.8,1200.1 3604.5,1208.93C3583.21,1217.77 3557.97,1222.19 3528.78,1222.19Z" style="fill-rule:nonzero;"/>
        </g>
    </g>
    <g transform="matrix(0.446298,0,0,0.446298,-48.35,31.8728)">
        <path d="M681.324,604.757C681.324,596.478 674.603,589.757 666.324,589.757L491.011,589.757C482.732,589.757 476.011,596.478 476.011,604.757L476.011,780.07C476.011,788.349 482.732,795.07 491.011,795.07L666.324,795.07C674.603,795.07 681.324,788.349 681.324,780.07L681.324,604.757ZM448.537,722.081C448.537,713.802 441.816,707.081 433.537,707.081L404.189,707.081C395.911,707.081 389.189,713.802 389.189,722.081L389.189,751.429C389.189,759.707 395.911,766.429 404.189,766.429L433.537,766.429C441.816,766.429 448.537,759.707 448.537,751.429L448.537,722.081ZM331.283,604.757C331.283,596.478 324.561,589.757 316.283,589.757L228.511,589.757C220.232,589.757 213.511,596.478 213.511,604.757L213.511,692.529C213.511,700.808 220.232,707.529 228.511,707.529L316.283,707.529C324.561,707.529 331.283,700.808 331.283,692.529L331.283,604.757ZM448.537,604.757C448.537,596.478 441.816,589.757 433.537,589.757L373.968,589.757C365.69,589.757 358.968,596.478 358.968,604.757L358.968,664.326C358.968,672.605 365.69,679.326 373.968,679.326L433.537,679.326C441.816,679.326 448.537,672.605 448.537,664.326L448.537,604.757ZM186.037,604.757C186.037,596.478 179.316,589.757 171.037,589.757L141.689,589.757C133.41,589.757 126.689,596.478 126.689,604.757L126.689,634.105C126.689,642.384 133.41,649.105 141.689,649.105L171.037,649.105C179.316,649.105 186.037,642.384 186.037,634.105L186.037,604.757ZM555.388,425.917C555.388,417.639 548.667,410.917 540.388,410.917L418.658,410.917C410.38,410.917 403.658,417.639 403.658,425.917L403.658,547.059C403.658,555.338 410.38,562.059 418.658,562.059L540.388,562.059C548.667,562.059 555.388,555.338 555.388,547.059L555.388,425.917ZM376.185,466.716C376.185,458.438 369.463,451.716 361.185,451.716L280.842,451.716C272.563,451.716 265.842,458.438 265.842,466.716L265.842,547.059C265.842,555.338 272.563,562.059 280.842,562.059L361.185,562.059C369.463,562.059 376.185,555.338 376.185,547.059L376.185,466.716ZM238.368,494.109C238.368,485.831 231.647,479.109 223.368,479.109L170.418,479.109C162.139,479.109 155.418,485.831 155.418,494.109L155.418,547.059C155.418,555.338 162.139,562.059 170.418,562.059L223.368,562.059C231.647,562.059 238.368,555.338 238.368,547.059L238.368,494.109Z" style="fill:url(#_Linear1);"/>
    </g>
    <g transform="matrix(0.199677,0,0,0.199677,125.392,39.8704)">
        <path d="M570.399,1222.19C541.474,1222.19 516.165,1216.9 494.471,1206.32C472.777,1195.75 455.971,1181.02 444.053,1162.13C432.135,1143.25 426.176,1121.36 426.176,1096.45C426.176,1071.81 430.528,1049.18 439.232,1028.56C447.937,1007.93 460.19,990.123 475.991,975.125C491.793,960.127 510.54,948.544 532.234,940.375C553.928,932.207 577.764,928.122 603.743,928.122C630.793,928.122 654.763,932.943 675.654,942.585C696.544,952.226 712.078,966.153 722.255,984.365L653.96,1037.8C648.068,1027.35 640.435,1019.25 631.061,1013.49C621.687,1007.73 610.572,1004.85 597.717,1004.85C586.468,1004.85 576.224,1006.93 566.984,1011.08C557.744,1015.23 549.777,1021.12 543.081,1028.76C536.385,1036.39 531.163,1045.43 527.413,1055.87C523.664,1066.32 521.789,1077.84 521.789,1090.42C521.789,1101.4 524.199,1111.05 529.02,1119.35C533.841,1127.65 540.604,1134.08 549.308,1138.63C558.012,1143.18 568.122,1145.46 579.639,1145.46C590.62,1145.46 601.399,1142.92 611.979,1137.83C622.558,1132.74 632.668,1124.44 642.31,1112.92L698.151,1166.35C681.01,1187.24 661.928,1201.77 640.903,1209.94C619.879,1218.11 596.378,1222.19 570.399,1222.19Z" style="fill-rule:nonzero;"/>
        <g transform="matrix(3.6064,0,0,3.6064,342.226,-54.2269)">
            <path d="M136.166,301.799L160.45,301.799L165.975,274.173L192.264,274.173L176.669,352.149L150.38,352.149L156.128,323.41L131.844,323.41L126.096,352.149L99.806,352.149L115.402,274.173L141.691,274.173L136.166,301.799Z" style="fill-rule:nonzero;"/>
        </g>
        <path d="M1161.75,1222.19C1132.56,1222.19 1108.19,1216.63 1088.64,1205.52C1069.09,1194.41 1055.23,1178.87 1047.06,1158.92C1038.89,1138.97 1037.48,1115.73 1042.84,1089.22L1073.77,934.55L1168.58,934.55L1138.05,1087.61C1136.18,1097.52 1135.51,1106.09 1136.04,1113.32C1136.58,1120.55 1138.38,1126.58 1141.46,1131.4C1144.55,1136.22 1148.76,1139.77 1154.12,1142.05C1159.48,1144.32 1165.9,1145.46 1173.4,1145.46C1182.51,1145.46 1190.34,1143.59 1196.9,1139.84C1203.47,1136.09 1208.96,1129.93 1213.38,1121.36C1217.8,1112.79 1221.34,1101.54 1224.02,1087.61L1254.55,934.55L1347.76,934.55L1316.02,1093.24C1307.72,1135.28 1290.71,1167.29 1265,1189.25C1239.29,1211.21 1204.87,1222.19 1161.75,1222.19Z" style="fill-rule:nonzero;"/>
        <g transform="matrix(3.6064,0,0,3.6064,342.226,-54.2269)">
            <path d="M333.182,310.445L340.42,274.173L366.041,274.173L350.445,352.149L328.835,352.149L306.441,315.877L299.204,352.149L273.583,352.149L289.178,274.173L310.789,274.173L333.182,310.445Z" style="fill-rule:nonzero;"/>
        </g>
        <g transform="matrix(3.6064,0,0,3.6064,342.226,-54.2269)">
            <path d="M397.618,301.761L427.197,274.173L457.385,274.173L418.294,309.67L443.683,352.149L414.386,352.149L398.608,326.755L391.252,333.591L387.54,352.149L361.696,352.149L377.292,274.173L403.135,274.173L397.618,301.761Z" style="fill-rule:nonzero;"/>
        </g>
    </g>
    <defs>
        <linearGradient id="_Linear1" x1="0" y1="0" x2="1" y2="0" gradientUnits="userSpaceOnUse" gradientTransform="matrix(897.643,-306.647,306.647,897.643,169.89,700.756)"><stop offset="0" style="stop-color:rgb(119,0,204);stop-opacity:1"/><stop offset="0.47" style="stop-color:rgb(86,0,180);stop-opacity:1"/><stop offset="1" style="stop-color:rgb(0,0,119);stop-opacity:1"/></linearGradient>
    </defs>
</svg>
