<svg version="1.2" xmlns="http://www.w3.org/2000/svg" viewBox="0 0 582 172">
	<title>Chunk Works</title>
	<defs>
		<linearGradient id="g1" x2="1" gradientUnits="userSpaceOnUse" gradientTransform="matrix(400.616,-136.856,117.696,344.53,19.472,129.619)">
			<stop offset="0" stop-color="#7700cc"/>
			<stop offset=".47" stop-color="#5600b4"/>
			<stop offset="1" stop-color="#000077"/>
		</linearGradient>
	</defs>
	<style>
		.s0 { fill: url(#g1) } 
		.s1 { fill: #000000 } 
	</style>
	<path id="Elemen" fill-rule="evenodd" class="s0" d="m247.7 165c0 3.7-3 6.7-6.7 6.7h-78.2c-3.7 0-6.7-3-6.7-6.7v-78.2c0-3.7 3-6.7 6.7-6.7h78.2c3.7 0 6.7 3 6.7 6.7zm-103.9-12.8c0 3.7-3 6.7-6.7 6.7h-13.1c-3.7 0-6.7-3-6.7-6.7v-13.1c0-3.7 3-6.7 6.7-6.7h13.1c3.7 0 6.7 3 6.7 6.7zm-52.3-26.3c0 3.7-3 6.7-6.7 6.7h-39.2c-3.7 0-6.7-3-6.7-6.7v-39.2c0-3.7 3-6.7 6.7-6.7h39.2c3.7 0 6.7 3 6.7 6.7zm52.3-12.6c0 3.7-3 6.7-6.7 6.7h-26.5c-3.7 0-6.7-3-6.7-6.7v-26.5c0-3.7 3-6.7 6.7-6.7h26.5c3.7 0 6.7 3 6.7 6.7zm-117.1-13.5c0 3.7-3 6.7-6.7 6.7h-13.1c-3.7 0-6.7-3-6.7-6.7v-13.1c0-3.7 3-6.7 6.7-6.7h13.1c3.7 0 6.7 3 6.7 6.7zm164.8-38.9c0 3.7-3 6.7-6.7 6.7h-54.3c-3.7 0-6.7-3-6.7-6.7v-54c0-3.7 3-6.7 6.7-6.7h54.3c3.7 0 6.7 3 6.7 6.7zm-80 0c0 3.7-3 6.7-6.7 6.7h-35.8c-3.7 0-6.7-3-6.7-6.7v-35.9c0-3.7 3-6.7 6.7-6.7h35.8c3.7 0 6.7 3 6.7 6.7zm-61.5 0c0 3.7-3 6.7-6.7 6.7h-23.6c-3.7 0-6.7-3-6.7-6.7v-23.6c0-3.7 3-6.7 6.7-6.7h23.6c3.7 0 6.7 3 6.7 6.7z"/>
	<path id="Chunk Works" fill-rule="evenodd" class="s1" d="m281.3 111.8l16.7-32h17.4l3.2 32.5 16.9-32.5h18.6l-29.2 56.1h-20.2l-3.3-29.6-15.4 29.6h-20.3l-6.7-56.1h18.7zm94.1 25.4q-8.8 0-15.1-3.2-6.4-3.2-9.9-8.8-3.5-5.7-3.5-13.1 0-7.4 2.6-13.6 2.6-6.1 7.3-10.6 4.8-4.5 11.3-6.9 6.5-2.5 14.2-2.5 8.7 0 15.1 3.2 6.4 3.2 9.9 8.9 3.5 5.7 3.5 13 0 7.5-2.7 13.6-2.6 6.2-7.3 10.7-4.7 4.5-11.2 6.9-6.5 2.4-14.2 2.4zm1.6-15.3q3.5 0 6.2-1.3 2.7-1.4 4.6-3.8 1.9-2.4 2.9-5.5 1-3.1 1-6.5 0-3.3-1.4-5.8-1.3-2.4-3.7-3.8-2.5-1.4-5.9-1.4-3.5 0-6.2 1.4-2.7 1.4-4.7 3.8-1.9 2.4-2.8 5.5-1 3.1-1 6.5 0 3.2 1.3 5.7 1.3 2.5 3.8 3.9 2.4 1.3 5.9 1.3zm54.4-0.1l-2.8 14.2h-19l11.3-56.2h25.2q11.1 0 17.2 4.9 6.1 4.8 6.1 13.6 0 7-3.5 12.3-3.5 5.3-9.9 8.3-0.8 0.4-1.7 0.7l9.3 16.4h-19.6l-8-14.2zm2.8-14.2h7.8q3.9 0 6.1-2 2.1-2 2.1-5.5 0-3-1.9-4.4-1.8-1.3-5.1-1.3h-6.4zm59.2-7.9l21.3-19.8h21.7l-28.1 25.5 18.2 30.6h-21.1l-11.3-18.3-5.3 4.9-2.7 13.4h-18.6l11.2-56.1h18.6zm56.4 37.5q-5 0-9.6-0.7-4.5-0.7-8.3-2-3.7-1.4-6.4-3l7.3-13.9q3.1 1.7 6.3 2.9 3.2 1.2 6.3 1.7 3.2 0.6 6.3 0.6 2.5 0 4.2-0.4 1.6-0.4 2.4-1.2 0.9-0.7 0.9-1.7 0-1.3-1.5-2.1-1.4-0.8-3.8-1.4-2.3-0.7-5.2-1.4-2.8-0.6-5.7-1.7-2.9-1.1-5.3-2.8-2.3-1.7-3.8-4.2-1.4-2.6-1.4-6.3 0-6.4 3.4-11.1 3.4-4.8 9.8-7.4 6.3-2.6 15.2-2.6 6.2 0 11.6 1.2 5.5 1.3 9.4 3.6l-6.8 13.8q-3.4-2.1-7.4-3.1-3.9-1.1-8-1.1-2.8 0-4.6 0.6-1.9 0.5-2.8 1.4-0.9 0.9-0.9 1.8 0 1.3 1.4 2.1 1.5 0.9 3.9 1.5 2.4 0.6 5.2 1.3 2.9 0.6 5.7 1.7 2.9 1 5.3 2.6 2.4 1.6 3.8 4.2 1.5 2.5 1.5 6.2 0 6.2-3.5 10.9-3.4 4.7-9.8 7.4-6.4 2.6-15.1 2.6zm-318.4-68.3q-8.7 0-15.2-3.2-6.5-3.1-10.1-8.8-3.5-5.6-3.5-13.1 0-7.4 2.6-13.6 2.6-6.1 7.3-10.6 4.7-4.5 11.2-7 6.5-2.4 14.3-2.4 8.1 0 14.4 2.9 6.2 2.9 9.3 8.3l-13.6 10.7q-1.8-3.1-4.6-4.9-2.8-1.7-6.7-1.7-3.3 0-6.1 1.3-2.8 1.2-4.8 3.5-2 2.3-3.1 5.4-1.1 3.1-1.1 6.9 0 3.3 1.4 5.8 1.4 2.5 4.1 3.8 2.6 1.4 6 1.4 3.3 0 6.5-1.5 3.1-1.6 6-5l11.2 10.7q-5.2 6.2-11.5 8.7-6.3 2.4-14 2.4zm52.5-37.5h17.4l4-19.9h19l-11.3 56.1h-18.9l4.1-20.7h-17.5l-4.1 20.7h-18.9l11.2-56.1h18.9zm65.6 37.5q-8.7 0-14.6-3.3-5.8-3.3-8.3-9.3-2.4-6-0.8-13.9l6.2-30.9h18.9l-6.1 30.5q-0.6 3-0.4 5.2 0.2 2.1 1.1 3.6 0.9 1.4 2.5 2.1 1.6 0.7 3.8 0.7 2.8 0 4.7-1.1 2-1.2 3.3-3.7 1.4-2.6 2.2-6.8l6.1-30.5h18.6l-6.4 31.7q-2.5 12.6-10.2 19.1-7.7 6.6-20.6 6.6zm76.3-31.3l5.2-26.1h18.5l-11.3 56.1h-15.5l-16.1-26.1-5.3 26.1h-18.4l11.2-56.1h15.6zm46.4-6.3l21.3-19.8h21.7l-28.1 25.5 18.3 30.6h-21.1l-11.4-18.3-5.3 4.9-2.7 13.4h-18.6l11.3-56.1h18.6z"/>
</svg>