<svg version="1.2" xmlns="http://www.w3.org/2000/svg" viewBox="0 0 215 130"><style>.a{fill:#052460}.b{fill:#8b9fd1}</style><path fill-rule="evenodd" class="a" d="m5.4 120.1q0 1.5 0.5 2.6 0.6 1.1 1.5 1.8 1 0.7 2.2 1.1 1.2 0.3 2.7 0.3 1.5 0 2.6-0.4 1.1-0.3 1.8-0.9 0.7-0.6 1-1.3 0.3-0.8 0.3-1.5 0-1.6-0.7-2.3-0.7-0.7-1.5-1-1.5-0.6-3.4-1-1.9-0.5-4.7-1.3-1.8-0.4-2.9-1.2-1.2-0.7-1.8-1.6-0.7-0.9-1-1.9-0.3-1.1-0.3-2.1 0-2.1 0.9-3.6 0.8-1.5 2.2-2.4 1.4-1 3.2-1.5 1.8-0.5 3.6-0.5 2.1 0 4 0.6 1.9 0.5 3.3 1.6 1.4 1.1 2.2 2.7 0.8 1.6 0.9 3.8h-4.8q-0.2-2.6-1.8-3.7-1.5-1.1-4-1.1-0.8 0-1.7 0.2-0.9 0.1-1.6 0.5-0.7 0.4-1.2 1.1-0.5 0.7-0.5 1.7 0 1.5 0.9 2.3 0.9 0.8 2.4 1.2 0.1 0 1.2 0.3 1 0.3 2.3 0.6 1.3 0.4 2.5 0.7 1.2 0.3 1.8 0.5 1.3 0.4 2.3 1.1 1 0.7 1.6 1.6 0.7 1 1 2 0.3 1.1 0.3 2.2 0 2.2-0.9 3.8-0.9 1.6-2.4 2.7-1.6 1-3.5 1.5-1.9 0.4-3.9 0.4-2.3 0-4.4-0.5-2-0.6-3.5-1.8-1.5-1.1-2.4-3-1-1.8-1-4.3h4.7zm33-18.7q3 0 5.4 1.2 2.4 1.1 4.1 3 1.6 2 2.5 4.5 0.9 2.6 0.9 5.5 0 2.9-0.9 5.5-0.9 2.6-2.5 4.5-1.7 1.9-4.1 3-2.4 1.2-5.4 1.1-3.1 0.1-5.5-1.1-2.4-1.1-4-3-1.7-2-2.6-4.5-0.9-2.6-0.9-5.5c0-2 0.3-3.7 0.9-5.5q0.9-2.5 2.6-4.5 1.6-1.9 4-3 2.4-1.2 5.5-1.2zm0 3.9q-2.2 0-3.8 0.8-1.5 0.9-2.5 2.4-1 1.4-1.5 3.3-0.4 1.8-0.4 3.8 0 1.9 0.4 3.8 0.5 1.8 1.5 3.3 1 1.4 2.5 2.3 1.6 0.9 3.8 0.9 2.1 0 3.7-0.9 1.6-0.9 2.6-2.3 0.9-1.5 1.4-3.3 0.5-1.9 0.5-3.8 0-2-0.5-3.8-0.5-1.9-1.4-3.3-1-1.5-2.6-2.4-1.6-0.8-3.7-0.8zm17.2-3.2h4.8v22.9h13.7v4.1h-18.5zm21.5 0h4.7v15.7q0 1.4 0.1 2.8 0.2 1.4 0.8 2.5 0.6 1.1 1.9 1.9 1.2 0.7 3.5 0.7 2.3 0 3.6-0.7 1.3-0.8 1.9-1.9 0.6-1.1 0.8-2.5 0.1-1.4 0.1-2.8v-15.7h4.7v17.3q0 2.6-0.8 4.5-0.8 2-2.2 3.3-1.5 1.3-3.5 1.9-2.1 0.7-4.6 0.6-2.5 0-4.5-0.6-2-0.6-3.5-1.9-1.5-1.3-2.2-3.3-0.8-1.9-0.8-4.5zm25 0h21.9v4.1h-8.6v22.9h-4.7v-22.9h-8.6c0 0 0-4.1 0-4.1zm25 0h4.8v27h-4.8zm22.1-0.6q3 0 5.4 1.1 2.4 1.2 4.1 3.1 1.6 1.9 2.5 4.5 0.9 2.6 0.9 5.4 0 2.9-0.9 5.5-0.9 2.6-2.5 4.5-1.7 2-4.1 3.1-2.4 1.1-5.4 1.1-3.1 0-5.5-1.1-2.4-1.1-4-3.1-1.7-1.9-2.6-4.5-0.9-2.5-0.9-5.5c0-1.9 0.3-3.7 0.9-5.4q0.9-2.6 2.6-4.5 1.6-1.9 4-3.1 2.4-1.1 5.5-1.1zm0 3.8q-2.2 0-3.8 0.9-1.5 0.9-2.5 2.3-1 1.5-1.5 3.4-0.4 1.8-0.4 3.7 0 2 0.4 3.8 0.5 1.9 1.5 3.3 1 1.5 2.5 2.4 1.6 0.8 3.8 0.8 2.1 0 3.7-0.8 1.6-0.9 2.6-2.4 0.9-1.4 1.4-3.3 0.5-1.8 0.5-3.8 0-1.9-0.5-3.7-0.5-1.9-1.4-3.4-1-1.4-2.6-2.3-1.6-0.9-3.7-0.9zm17.1-3.2h5l12.3 19.9h0.1v-19.9h4.5v27h-5l-12.3-19.8h-0.1v19.8h-4.5zm30.6 18.1q0 1.5 0.5 2.6 0.5 1.1 1.5 1.8 0.9 0.7 2.2 1 1.2 0.4 2.6 0.4 1.6 0 2.7-0.4 1.1-0.4 1.8-0.9 0.6-0.6 0.9-1.3 0.3-0.8 0.3-1.5 0.1-1.6-0.7-2.3-0.7-0.8-1.5-1.1-1.4-0.5-3.3-1-2-0.4-4.7-1.2-1.8-0.5-2.9-1.2-1.2-0.7-1.9-1.6-0.7-0.9-0.9-2-0.3-1-0.3-2 0-2.1 0.8-3.6 0.9-1.5 2.3-2.5 1.4-1 3.2-1.4 1.7-0.5 3.6-0.5 2.1 0 4 0.6 1.8 0.5 3.2 1.6 1.5 1.1 2.3 2.7 0.8 1.6 0.8 3.7h-4.7q-0.2-2.6-1.8-3.6-1.6-1.1-4-1.1-0.9 0-1.7 0.1-0.9 0.2-1.6 0.6-0.8 0.4-1.2 1.1-0.5 0.7-0.5 1.7 0 1.4 0.9 2.2 0.9 0.8 2.3 1.3 0.2 0 1.2 0.3 1.1 0.3 2.4 0.6 1.2 0.4 2.5 0.7 1.2 0.3 1.7 0.4 1.4 0.5 2.3 1.2 1 0.7 1.7 1.6 0.7 1 1 2 0.3 1.1 0.3 2.1 0 2.3-0.9 3.9-1 1.6-2.5 2.6-1.5 1.1-3.4 1.5-1.9 0.5-3.9 0.5-2.4 0-4.4-0.6-2-0.5-3.6-1.7-1.5-1.2-2.4-3-0.9-1.8-0.9-4.3h4.7z"/><path class="b" d="m47.6 0h-15.5v17.3h5.7q7.4 0 10 2.7 2.7 2.8 2.7 6.8c0 2.7-1 5-3.1 6.8q-3.1 2.6-10.6 2.6h-4.7v17.2h12.6q15.8 0 23.6-7.3 7.7-7.2 7.7-20c0-8.6-2.4-14.8-7.1-19.3q-7.1-6.8-21.3-6.8z"/><path fill-rule="evenodd" class="a" d="m0.7 0h26.2v84.8h-26.2z"/><path fill-rule="evenodd" class="a" d="m85.8 0h26.2v84.8h-26.2z"/><path fill-rule="evenodd" class="b" d="m146.7 32l31-32h-34.9l-25.4 29.7v32.3l11.5-12 17.9 34.8 32.3 0.1-32.4-52.9z"/><path fill-rule="evenodd" class="a" d="m201.9 27v5.3h12.2v52.5h-26.2v-84.8h26.2v5.4h-12.2v5.4h12.2v5.4h-12.2v5.4h12.2v5.4h-12.2z"/></svg>