<svg version="1.2" xmlns="http://www.w3.org/2000/svg" viewBox="0 0 428 260"><style>.a{fill:#231f20}</style><path class="a" d="m94.2 0.6h-31v34.4h11.4q14.7 0 20 5.6 5.4 5.5 5.4 13.5 0 8.3-6.2 13.5-6.1 5.3-21.3 5.3h-9.3v34.3h25.2q31.7 0 47.1-14.4 15.5-14.5 15.5-40.2 0-25-14.2-38.5-14.2-13.5-42.6-13.5z"/><path class="a" d="m0.3 0.6v169.6h52.4v-169.6z"/><path class="a" d="m223 0.6h-52.4v169.6h52.4z"/><path class="a" d="m292.4 64.6l61.9-64h-69.7l-50.9 59.4v64.6l23.1-24.2 35.7 69.8h64.6z"/><path class="a" d="m402.7 54.4v10.8h24.6v105h-52.5v-169.6h52.5v10.7h-24.6v10.8h24.6v10.8h-24.6v10.8h24.6v10.7z"/><path class="a" d="m9.8 240.7q0 3.1 1.1 5.3 1 2.2 2.9 3.6 1.9 1.4 4.4 2 2.4 0.7 5.3 0.7 3.1 0 5.3-0.7 2.2-0.8 3.6-1.9 1.3-1.1 1.9-2.6 0.6-1.5 0.6-3 0-3.1-1.4-4.6-1.4-1.5-3-2.1-2.9-1-6.7-2-3.9-0.9-9.5-2.4-3.4-0.9-5.7-2.4-2.4-1.5-3.7-3.3-1.4-1.8-2-3.9-0.5-2-0.5-4.1 0-4.1 1.7-7.1 1.7-3 4.5-5 2.8-1.9 6.3-2.9 3.6-0.9 7.2-0.9 4.3 0 8 1.1 3.8 1.1 6.6 3.3 2.9 2.2 4.5 5.4 1.7 3.2 1.7 7.4h-9.5q-0.4-5.2-3.5-7.4-3.2-2.1-8.1-2.1-1.7 0-3.4 0.3-1.8 0.4-3.2 1.2-1.5 0.8-2.4 2.1-1 1.4-1 3.4 0 2.9 1.8 4.5 1.8 1.7 4.7 2.5 0.3 0.1 2.4 0.6 2 0.6 4.6 1.3 2.6 0.7 5.1 1.3 2.4 0.7 3.5 1 2.6 0.8 4.6 2.2 2 1.5 3.3 3.3 1.3 1.9 2 4 0.6 2.1 0.6 4.2 0 4.6-1.9 7.8-1.8 3.2-4.8 5.3-3.1 2-6.9 3-3.9 0.9-7.9 0.9-4.6 0-8.7-1.1-4.1-1.2-7.1-3.5-3.1-2.4-4.9-6-1.8-3.7-1.9-8.7z"/><path fill-rule="evenodd" class="a" d="m75.7 203.4q6 0 10.8 2.2 4.8 2.3 8.2 6.2 3.3 3.8 5.1 9 1.8 5.1 1.8 10.9 0 5.8-1.8 11-1.8 5.1-5.1 9-3.4 3.8-8.2 6.1-4.8 2.2-10.8 2.2-6.1 0-10.9-2.2-4.8-2.3-8.1-6.1-3.4-3.9-5.1-9-1.8-5.2-1.8-11 0-5.8 1.8-10.9 1.7-5.2 5.1-9 3.3-3.9 8.1-6.2 4.8-2.2 10.9-2.2zm0 7.7q-4.3 0-7.5 1.7-3.1 1.8-5.1 4.7-2 2.9-2.9 6.6-1 3.7-1 7.6 0 3.8 1 7.6 0.9 3.7 2.9 6.6 2 2.9 5.1 4.6 3.2 1.8 7.5 1.8 4.3 0 7.4-1.8 3.2-1.7 5.1-4.6 2-2.9 3-6.6 0.9-3.8 0.9-7.6 0-3.9-0.9-7.6-1-3.7-3-6.6-1.9-2.9-5.1-4.7-3.1-1.7-7.4-1.7z"/><path class="a" d="m110.2 204.6h9.5v45.9h27.4v8.2h-36.9z"/><path class="a" d="m153.1 204.6h9.4v31.5q0 2.8 0.3 5.6 0.2 2.8 1.5 5 1.2 2.2 3.8 3.7 2.5 1.4 7.1 1.4 4.7 0 7.2-1.4 2.5-1.5 3.8-3.7 1.2-2.2 1.5-5 0.3-2.8 0.3-5.6v-31.5h9.4v34.7q0 5.2-1.6 9-1.6 3.9-4.5 6.5-2.9 2.6-7 3.9-4.1 1.3-9.1 1.3-5 0-9.1-1.3-4-1.3-7-3.9-2.9-2.6-4.5-6.5-1.5-3.8-1.5-9z"/><path class="a" d="m203.2 204.6h43.7v8.2h-17.2v45.9h-9.4v-45.9h-17.1z"/><path class="a" d="m253.2 204.6h9.5v54.1h-9.5z"/><path fill-rule="evenodd" class="a" d="m297.3 203.4q6 0 10.9 2.2 4.8 2.3 8.1 6.2 3.3 3.8 5.1 9 1.8 5.1 1.8 10.9 0 5.8-1.8 11-1.8 5.1-5.1 9-3.3 3.8-8.1 6.1-4.9 2.2-10.9 2.2-6.1 0-10.9-2.2-4.8-2.3-8.1-6.1-3.4-3.9-5.1-9-1.8-5.2-1.8-11 0-5.8 1.8-10.9 1.7-5.2 5.1-9 3.3-3.9 8.1-6.2 4.8-2.2 10.9-2.2zm0 7.7q-4.3 0-7.5 1.7-3.1 1.8-5.1 4.7-2 2.9-2.9 6.6-0.9 3.7-0.9 7.6 0 3.8 0.9 7.6 0.9 3.7 2.9 6.6 2 2.9 5.1 4.6 3.2 1.8 7.5 1.8 4.3 0 7.4-1.8 3.2-1.7 5.2-4.6 1.9-2.9 2.9-6.6 0.9-3.8 0.9-7.6 0-3.9-0.9-7.6-1-3.7-2.9-6.6-2-2.9-5.2-4.7-3.1-1.7-7.4-1.7z"/><path class="a" d="m331.4 204.6h10l24.7 39.9h0.2v-39.9h9v54.1h-10l-24.6-39.7h-0.3v39.7h-9z"/><path class="a" d="m392.7 240.7q0 3.1 1 5.3 1.1 2.2 3 3.6 1.9 1.4 4.4 2 2.4 0.7 5.3 0.7 3.1 0 5.3-0.7 2.2-0.8 3.5-1.9 1.4-1.1 2-2.6 0.6-1.5 0.6-3 0-3.1-1.4-4.6-1.4-1.5-3-2.1-2.9-1-6.7-2-3.9-0.9-9.5-2.4-3.5-0.9-5.8-2.4-2.3-1.5-3.6-3.3-1.4-1.8-2-3.9-0.5-2-0.5-4.1 0-4.1 1.7-7.1 1.7-3 4.5-5 2.8-1.9 6.3-2.9 3.6-0.9 7.2-0.9 4.3 0 8 1.1 3.8 1.1 6.6 3.3 2.8 2.2 4.5 5.4 1.7 3.2 1.7 7.4h-9.5q-0.4-5.2-3.5-7.4-3.2-2.1-8.2-2.1-1.6 0-3.4 0.3-1.7 0.4-3.1 1.2-1.5 0.8-2.4 2.1-1 1.4-1 3.4 0 2.9 1.8 4.5 1.8 1.7 4.7 2.5 0.3 0.1 2.4 0.6 2 0.6 4.6 1.3 2.6 0.7 5 1.3 2.5 0.7 3.6 1 2.6 0.8 4.6 2.2 2 1.5 3.3 3.3 1.3 1.9 1.9 4 0.7 2.1 0.7 4.2 0 4.6-1.9 7.8-1.8 3.2-4.9 5.3-3 2-6.8 3-3.9 0.9-7.9 0.9-4.6 0-8.7-1.1-4.1-1.2-7.1-3.5-3.1-2.4-4.9-6-1.8-3.7-1.9-8.7z"/></svg>