<svg xmlns="http://www.w3.org/2000/svg" viewBox="0 0 428 260"><style>.a{fill:#231f20}</style><path d="M94.2.6h-31V35h11.4q14.7 0 20 5.6 5.4 5.5 5.4 13.5 0 8.3-6.2 13.5-6.1 5.3-21.3 5.3h-9.3v34.3h25.2q31.7 0 47.1-14.4Q151 78.3 151 52.6q0-25-14.2-38.5T94.2.6M.3.6v169.6h52.4V.6zM223 .6h-52.4v169.6H223zM292.4 64.6l61.9-64h-69.7L233.7 60v64.6l23.1-24.2 35.7 69.8h64.6zM402.7 54.4v10.8h24.6v105h-52.5V.6h52.5v10.7h-24.6v10.8h24.6v10.8h-24.6v10.8h24.6v10.7zM9.8 240.7q0 3.1 1.1 5.3 1 2.2 2.9 3.6t4.4 2q2.4.7 5.3.7 3.1 0 5.3-.7 2.2-.8 3.6-1.9 1.3-1.1 1.9-2.6t.6-3q0-3.1-1.4-4.6t-3-2.1q-2.9-1-6.7-2-3.9-.9-9.5-2.4-3.4-.9-5.7-2.4-2.4-1.5-3.7-3.3-1.4-1.8-2-3.9-.5-2-.5-4.1 0-4.1 1.7-7.1t4.5-5q2.8-1.9 6.3-2.9 3.6-.9 7.2-.9 4.3 0 8 1.1 3.8 1.1 6.6 3.3 2.9 2.2 4.5 5.4 1.7 3.2 1.7 7.4h-9.5q-.4-5.2-3.5-7.4-3.2-2.1-8.1-2.1-1.7 0-3.4.3-1.8.4-3.2 1.2-1.5.8-2.4 2.1-1 1.4-1 3.4 0 2.9 1.8 4.5 1.8 1.7 4.7 2.5.3.1 2.4.6 2 .6 4.6 1.3t5.1 1.3q2.4.7 3.5 1 2.6.8 4.6 2.2 2 1.5 3.3 3.3 1.3 1.9 2 4 .6 2.1.6 4.2 0 4.6-1.9 7.8-1.8 3.2-4.8 5.3-3.1 2-6.9 3-3.9.9-7.9.9-4.6 0-8.7-1.1-4.1-1.2-7.1-3.5-3.1-2.4-4.9-6-1.8-3.7-1.9-8.7z" class="a"/><path fill-rule="evenodd" d="M75.7 203.4q6 0 10.8 2.2 4.8 2.3 8.2 6.2 3.3 3.8 5.1 9 1.8 5.1 1.8 10.9t-1.8 11q-1.8 5.1-5.1 9-3.4 3.8-8.2 6.1-4.8 2.2-10.8 2.2-6.1 0-10.9-2.2-4.8-2.3-8.1-6.1-3.4-3.9-5.1-9-1.8-5.2-1.8-11t1.8-10.9q1.7-5.2 5.1-9 3.3-3.9 8.1-6.2 4.8-2.2 10.9-2.2m0 7.7q-4.3 0-7.5 1.7-3.1 1.8-5.1 4.7t-2.9 6.6q-1 3.7-1 7.6 0 3.8 1 7.6.9 3.7 2.9 6.6t5.1 4.6q3.2 1.8 7.5 1.8t7.4-1.8q3.2-1.7 5.1-4.6 2-2.9 3-6.6.9-3.8.9-7.6 0-3.9-.9-7.6-1-3.7-3-6.6-1.9-2.9-5.1-4.7-3.1-1.7-7.4-1.7" class="a"/><path d="M110.2 204.6h9.5v45.9h27.4v8.2h-36.9zM153.1 204.6h9.4v31.5q0 2.8.3 5.6.2 2.8 1.5 5 1.2 2.2 3.8 3.7 2.5 1.4 7.1 1.4 4.7 0 7.2-1.4 2.5-1.5 3.8-3.7 1.2-2.2 1.5-5t.3-5.6v-31.5h9.4v34.7q0 5.2-1.6 9-1.6 3.9-4.5 6.5t-7 3.9-9.1 1.3-9.1-1.3q-4-1.3-7-3.9-2.9-2.6-4.5-6.5-1.5-3.8-1.5-9zM203.2 204.6h43.7v8.2h-17.2v45.9h-9.4v-45.9h-17.1zM253.2 204.6h9.5v54.1h-9.5z" class="a"/><path fill-rule="evenodd" d="M297.3 203.4q6 0 10.9 2.2 4.8 2.3 8.1 6.2 3.3 3.8 5.1 9 1.8 5.1 1.8 10.9t-1.8 11q-1.8 5.1-5.1 9-3.3 3.8-8.1 6.1-4.9 2.2-10.9 2.2-6.1 0-10.9-2.2-4.8-2.3-8.1-6.1-3.4-3.9-5.1-9-1.8-5.2-1.8-11t1.8-10.9q1.7-5.2 5.1-9 3.3-3.9 8.1-6.2 4.8-2.2 10.9-2.2m0 7.7q-4.3 0-7.5 1.7-3.1 1.8-5.1 4.7t-2.9 6.6-.9 7.6q0 3.8.9 7.6.9 3.7 2.9 6.6t5.1 4.6q3.2 1.8 7.5 1.8t7.4-1.8q3.2-1.7 5.2-4.6 1.9-2.9 2.9-6.6.9-3.8.9-7.6 0-3.9-.9-7.6-1-3.7-2.9-6.6-2-2.9-5.2-4.7-3.1-1.7-7.4-1.7" class="a"/><path d="M331.4 204.6h10l24.7 39.9h.2v-39.9h9v54.1h-10L340.7 219h-.3v39.7h-9zM392.7 240.7q0 3.1 1 5.3 1.1 2.2 3 3.6t4.4 2q2.4.7 5.3.7 3.1 0 5.3-.7 2.2-.8 3.5-1.9 1.4-1.1 2-2.6t.6-3q0-3.1-1.4-4.6t-3-2.1q-2.9-1-6.7-2-3.9-.9-9.5-2.4-3.5-.9-5.8-2.4t-3.6-3.3q-1.4-1.8-2-3.9-.5-2-.5-4.1 0-4.1 1.7-7.1t4.5-5q2.8-1.9 6.3-2.9 3.6-.9 7.2-.9 4.3 0 8 1.1 3.8 1.1 6.6 3.3t4.5 5.4 1.7 7.4h-9.5q-.4-5.2-3.5-7.4-3.2-2.1-8.2-2.1-1.6 0-3.4.3-1.7.4-3.1 1.2-1.5.8-2.4 2.1-1 1.4-1 3.4 0 2.9 1.8 4.5 1.8 1.7 4.7 2.5.3.1 2.4.6 2 .6 4.6 1.3t5 1.3q2.5.7 3.6 1 2.6.8 4.6 2.2 2 1.5 3.3 3.3 1.3 1.9 1.9 4 .7 2.1.7 4.2 0 4.6-1.9 7.8-1.8 3.2-4.9 5.3-3 2-6.8 3-3.9.9-7.9.9-4.6 0-8.7-1.1-4.1-1.2-7.1-3.5-3.1-2.4-4.9-6-1.8-3.7-1.9-8.7z" class="a"/></svg>