<svg xmlns="http://www.w3.org/2000/svg" data-name="Layer 1" viewBox="0 0 72 24"><defs><linearGradient id="a" x1="52.62" x2="70.5" y1="12.84" y2="8.05" gradientUnits="userSpaceOnUse"><stop offset="0" stop-color="#202e39"/><stop offset=".04" stop-color="#1e323f"/><stop offset=".1" stop-color="#1a3c4f"/><stop offset=".16" stop-color="#134e6a"/><stop offset=".23" stop-color="#096690"/><stop offset=".28" stop-color="#007eb4"/><stop offset=".34" stop-color="#0084bc"/><stop offset=".43" stop-color="#0093d2"/><stop offset=".48" stop-color="#009fe3"/><stop offset=".51" stop-color="#18a6cd"/><stop offset=".57" stop-color="#44b3a4"/><stop offset=".63" stop-color="#69be81"/><stop offset=".69" stop-color="#88c765"/><stop offset=".76" stop-color="#a0ce4f"/><stop offset=".83" stop-color="#b1d33f"/><stop offset=".9" stop-color="#bbd636"/><stop offset="1" stop-color="#bed733"/></linearGradient></defs><title>int_vsat_TM_rgb_grd</title><path d="M58.13 7.29a1.83 1.83 0 0 0-1.25 1.25l-1.38 4.8-.34-1.21a1.33 1.33 0 0 0-2.56.73l.79 2.75a1.33 1.33 0 0 0 2.55 0l1.34-4.67 1.24 4.31a1.81 1.81 0 0 0 3.49 0l2.6-9.06 2.45 8.56a2.52 2.52 0 0 0 4.84-1.39L68.85 2.71a2.52 2.52 0 0 0-4.85 0L61.35 12l-1-3.43a1.82 1.82 0 0 0-2.22-1.28" style="fill:url(#a)"/><path d="M51.08 15.11v.06c0 .69-.15 1.25-1.28 1.25s-1.28-.56-1.28-1.25v-.06c0-.69.15-1.25 1.28-1.25s1.28.56 1.28 1.25m-3.36 8.75a2.93 2.93 0 0 1-1.94-.62 3.35 3.35 0 0 1-.89-2.65v-4.26h-1.27c-.65 0-.81-.12-.81-1.18S43 14 43.62 14h1.25v-1.7c0-.78.14-1 1.42-1s1.42.2 1.42 1v8c0 .83.08 1 .35 1.19s1.15.07 1.82 0c.51-.08.54.13.68.9s.11 1.06-.39 1.18a10.3 10.3 0 0 1-2.45.29M35.26 16.4c-.51.1-.55-.11-.71-.88s-.16-1.06.34-1.19a11.6 11.6 0 0 1 3.38-.47 3.17 3.17 0 0 1 3.2 1.91 7.4 7.4 0 0 1 .33 3.05v3.59a1 1 0 0 1-.67 1A7.9 7.9 0 0 1 38 24c-2.38 0-4.27-.71-4.27-3.07s1.64-3.09 3.93-3.09a13 13 0 0 1 1.54.07v-.53c0-.87-.43-1.39-1.57-1.38a12.8 12.8 0 0 0-2.37.4m2.83 5.6a3.4 3.4 0 0 0 1.13-.19.05.05 0 0 0 0-.06V19.9a.06.06 0 0 0-.06-.06 7 7 0 0 0-1.2-.1c-1 0-1.59.25-1.59 1.16S37 22 38.09 22m-6.42 1.17a4.25 4.25 0 0 1-2.58.81 10.4 10.4 0 0 1-3.09-.52c-.52-.16-.52-.3-.41-1.1s.2-1.12.68-1a14.6 14.6 0 0 0 2.62.47c.55 0 1.05-.22 1.08-.81s-.48-1-1.54-1.25c-1.21-.34-2.8-.92-2.86-3 0-1.64 1.23-2.94 3.33-2.94a8.3 8.3 0 0 1 2.87.47c.51.14.52.42.35 1.19s-.2 1-.71.88a8.4 8.4 0 0 0-2.26-.37c-.42 0-.89.23-.89.73s.63.74 1.31 1a7.4 7.4 0 0 1 2.2 1.06 2.41 2.41 0 0 1 .88 1.95 2.88 2.88 0 0 1-.98 2.45ZM17.41 16.4c-.52.1-.55-.11-.72-.88s-.15-1.06.35-1.19a11.4 11.4 0 0 1 3.38-.47 3.15 3.15 0 0 1 3.19 1.91 7.25 7.25 0 0 1 .39 3.05v3.59a1 1 0 0 1-.67 1 7.9 7.9 0 0 1-3.11.6c-2.39 0-4.27-.71-4.27-3.07s1.63-3.09 3.93-3.09a13 13 0 0 1 1.54.07v-.53c0-.87-.43-1.39-1.58-1.38a12.8 12.8 0 0 0-2.43.39m2.83 5.6a3.3 3.3 0 0 0 1.12-.19.06.06 0 0 0 .05-.06V19.9a.06.06 0 0 0-.06-.06 7 7 0 0 0-1.2-.1c-.95 0-1.59.25-1.59 1.16s.59 1.1 1.68 1.1m-7.41 1.84c-1.28 0-1.42-.2-1.42-1v-7.9c0-.78.14-1 1.42-1s1.42.19 1.42 1v7.94c0 .78-.14.98-1.42.98ZM9 11.27c-1.19 0-1.36.2-1.56 1l-2.28 8.6-2.3-8.62c-.2-.78-.37-1-1.57-1s-1.42.19-1.23 1l3.05 10.63c.26.78.77 1 2.05 1s1.8-.2 2.06-1l3.05-10.64c.19-.78-.05-.97-1.27-.97M51.83 23.7v-.91h-.36v-.19h.93v.19H52v.91Zm.74 0v-1.1h.26l.17.4.1.28.1-.28.17-.41h.25v1.1h-.19v-.86l-.26.69H53l-.26-.69v.86Z" style="fill:#202e39"/></svg>