<svg version="1.2" xmlns="http://www.w3.org/2000/svg" viewBox="0 0 1321 122">
    <style>.a{fill:#336cb2}.b{fill:#313236}</style>
    <path fill-rule="evenodd" class="a"
        d="m821.5 0.5v33l-35.5 0.5v88h-34v-88h-35l-0.2-16.3c-0.1-9 0.2-16.7 0.7-17 0.5-0.4 24.1-0.6 104-0.2zm16.5-0.5h34.8c27.8 0 36 0.3 41.2 1.6 3.6 0.8 8.8 2.6 11.5 4 2.8 1.4 7.1 4.6 9.7 7.2 2.7 2.6 6 7.4 7.5 10.7 2.6 5.5 2.8 7 2.8 18 0 11-0.2 12.5-2.8 17.8-1.5 3.1-4.8 8-7.4 10.8-2.7 2.9-6.7 6.4-13.3 10.4l14 20.3c7.7 11.1 14 20.4 14 20.7 0 0.3-8.8 0.5-39 0.5l-24-37h-15v37h-34zm34 58c29.7 0 31.9-0.2 34.8-2 1.7-1.1 3.7-3.1 4.2-4.5 0.5-1.4 1-4.8 1-7.5 0-2.8-0.7-6.4-1.5-8-0.8-1.6-3-3.8-4.7-4.7-2.6-1.3-6.7-1.8-18.4-2.1l-15.2-0.4zm90-58h31v74.5l2.8 5.4c1.5 3 4.1 6.6 5.7 7.9 1.7 1.4 5.5 3.7 8.5 5.1 4.5 2 7 2.5 13.5 2.5 6.5 0 9.1-0.5 13.5-2.5 3-1.4 6.9-3.7 8.5-5.1 1.7-1.3 4.3-4.9 8.5-13.3v-74.5h30.5v39.2c0 39 0 39.3-2.4 45.3-1.3 3.3-3.8 8.2-5.6 11-1.7 2.7-5.6 7.2-8.6 10-3 2.7-8.6 6.6-12.4 8.7-3.9 2-10.4 4.6-14.5 5.7-5.3 1.5-10.4 2.1-17.5 2.1-7 0-12.2-0.6-17.5-2.1-4.1-1.1-10.6-3.7-14.5-5.7-4.2-2.2-9.6-6.2-13.6-10.2-4.1-4.1-7.8-8.9-9.9-13-1.8-3.6-3.8-9.4-4.6-13-1-4.8-1.4-16-1.4-42.3zm190.5 0.1c6.7-0.1 12.5 0.5 17.5 1.8 4.2 1 9.6 2.9 12 4.2 2.5 1.2 6.8 4.4 9.5 7 3 2.8 6.1 7 7.8 10.6 1.4 3.2 3 8 4.2 15.4h-30l-0.6-2.8c-0.4-1.5-1.8-4.1-3-5.7-1.3-1.6-3.8-3.5-5.6-4.2-1.8-0.8-6-1.4-9.3-1.4-3.3 0-7.4 0.6-9.2 1.3-1.8 0.8-4.1 2.5-5 3.8-1 1.3-1.8 3.9-1.8 5.7 0 2.1 0.9 4.1 2.5 5.7 1.4 1.4 4.9 3.2 7.8 3.9 2.9 0.8 10.4 2.7 16.7 4.2 6.4 1.5 14.2 3.9 17.5 5.3 3.3 1.5 7.8 4.1 9.9 5.7 2.1 1.6 4.9 4.7 6.2 6.9 1.3 2.2 2.8 7 3.3 10.5 0.6 3.8 0.7 8.6 0.2 11.5-0.5 2.8-1.8 7.1-3.1 9.5-1.2 2.5-3.2 5.8-4.4 7.4-1.1 1.5-4.8 4.6-8.1 6.8-3.3 2.2-9.1 4.9-13 6.1-5.6 1.8-9.4 2.2-19.5 2.2-9.2 0-14-0.5-18.5-1.8-3.3-1.1-8.2-3-11-4.4-2.7-1.4-6.8-3.9-9-5.7-2.2-1.8-5.4-5.4-7.3-8.1-1.8-2.7-4.1-7.9-5.2-11.5-1.1-3.5-2-7.3-2-8.2 0-1.6 1.4-1.8 30-1.8l0.5 2.5c0.3 1.4 1.3 3.7 2.3 5.2 0.9 1.4 3.8 3.8 6.2 5.2 3.7 2.1 6.1 2.6 13 2.9 6.8 0.3 9.3 0 12-1.5 2-0.9 4.1-3.1 4.9-4.8 1.1-2.5 1.1-3.4 0-5.8-0.8-1.6-2.6-3.5-4.1-4.3-1.5-0.7-9.9-2.9-18.5-4.9-10.3-2.2-18.2-4.6-22.8-6.9-4.6-2.2-8.4-5-11.3-8.2-2.4-2.7-5-7.1-5.9-9.9-0.9-2.8-1.5-8-1.5-12 0.1-4.3 0.8-9.1 2.1-12.5 1.2-3.2 4-7.7 6.9-11 2.9-3.2 7.2-6.6 10.3-8.1 3-1.5 7.9-3.4 10.9-4.2 3.1-0.9 10-1.6 15.5-1.6zm168.5-0.1v34h-36v88h-34v-88l-34.5-0.5-0.2-15.4c-0.1-8.5 0-16.1 0.3-16.8 0.3-1 10.8-1.3 104.4-1.3z" />
    <path class="b"
        d="m0.1 14.9l-0.1 15.1c50.9 0.5 52.8 0.6 57 2.7 2.5 1.2 6.3 4.1 8.6 6.5 2.3 2.4 5 6.9 6.3 10.3 1.9 4.9 2.2 7.4 1.9 13.5-0.3 5.2-1.2 8.9-2.8 12-1.2 2.5-3.3 5.8-4.5 7.5-1.3 1.7-4.7 4.3-7.7 6l-5.3 3-53.5 0.5v30c49.3 0 55.5-0.3 60-1.6 3-0.9 8.2-3 11.4-4.7 3.4-1.9 8.5-6 12.2-10 4.4-4.6 7.6-9.3 10.3-15 2.1-4.5 4.5-10.7 5.2-13.7 0.7-3 1.3-10.2 1.3-16 0-6.6-0.6-12.9-1.7-17-1-3.6-3.3-9.7-5.2-13.5-1.8-3.9-5.6-9.5-8.3-12.5-2.7-3-7.5-7.3-10.8-9.4-3.2-2.2-8.4-4.9-11.4-6-4.9-1.8-8.5-2-34.2-2.4l-28.6-0.4zm124.9 46.1v61h35v-122h-35zm107.5-59.5c-3.3 0.7-8.5 2.3-11.5 3.5-3 1.2-8 3.9-11 6-3 2-7.7 6.2-10.4 9.1-2.6 3-6.3 8.1-8.2 11.4-1.8 3.3-4.3 9.8-5.5 14.5-1.8 7-2.1 10.3-1.7 18.5 0.4 6.9 1.3 12 2.9 16.5 1.3 3.6 4 9.2 5.9 12.4 1.9 3.2 6.4 8.6 10.1 12 3.6 3.4 9.2 7.6 12.5 9.3 3.2 1.8 9.5 4.2 13.9 5.3 7 1.8 11 2 32.2 2h24.3v-62h-34v29c-15.8-0.5-18.6-1.1-23-3.2-3-1.4-7.1-4.3-8.9-6.4-1.9-2.2-4.4-5.9-5.5-8.4-1.2-2.7-1.9-6.7-1.9-10 0-3.5 0.8-7.3 2.2-10.5 1.2-2.7 3.4-6.2 4.9-7.7 1.5-1.6 5.4-4 8.7-5.5 6-2.8 6-2.8 31.7-3l25.8-0.3v-34c-39.5 0.2-49.6 0.6-53.5 1.5zm80.5 59.5v61h34v-122h-34zm58-44v17h34v88h34v-88h36v-34h-104zm143.5-15.8c-0.3 0.7-9.7 27.9-20.9 60.5-11.2 32.5-20.4 59.4-20.5 59.7-0.1 0.4 7.3 0.6 16.4 0.6h16.5c12.3-38.3 18.5-57.8 21.8-68l5.9-18.5c10.9 34.1 17.2 53.6 21 65.3l6.8 21.2c27.5 0 35.7-0.3 35.9-0.7 0.2-0.4-9.6-27.8-21.8-60.8l-22.2-60c-34-0.5-38.5-0.2-38.9 0.7zm96.5 59.8v61h93v-33h-59v-89h-34z" />
</svg>