<svg xmlns="http://www.w3.org/2000/svg" viewBox="0 0 1321 122"><path fill-rule="evenodd" d="M821.5.5v33L786 34v88h-34V34h-35l-.2-16.3c-.1-9 .2-16.7.7-17 .5-.4 24.1-.6 104-.2M838 0h34.8c27.8 0 36 .3 41.2 1.6 3.6.8 8.8 2.6 11.5 4 2.8 1.4 7.1 4.6 9.7 7.2 2.7 2.6 6 7.4 7.5 10.7 2.6 5.5 2.8 7 2.8 18s-.2 12.5-2.8 17.8c-1.5 3.1-4.8 8-7.4 10.8-2.7 2.9-6.7 6.4-13.3 10.4l14 20.3c7.7 11.1 14 20.4 14 20.7s-8.8.5-39 .5l-24-37h-15v37h-34zm34 58c29.7 0 31.9-.2 34.8-2 1.7-1.1 3.7-3.1 4.2-4.5s1-4.8 1-7.5c0-2.8-.7-6.4-1.5-8s-3-3.8-4.7-4.7c-2.6-1.3-6.7-1.8-18.4-2.1l-15.2-.4zm90-58h31v74.5l2.8 5.4c1.5 3 4.1 6.6 5.7 7.9 1.7 1.4 5.5 3.7 8.5 5.1 4.5 2 7 2.5 13.5 2.5s9.1-.5 13.5-2.5c3-1.4 6.9-3.7 8.5-5.1 1.7-1.3 4.3-4.9 8.5-13.3V0h30.5v39.2c0 39 0 39.3-2.4 45.3-1.3 3.3-3.8 8.2-5.6 11-1.7 2.7-5.6 7.2-8.6 10-3 2.7-8.6 6.6-12.4 8.7-3.9 2-10.4 4.6-14.5 5.7-5.3 1.5-10.4 2.1-17.5 2.1-7 0-12.2-.6-17.5-2.1-4.1-1.1-10.6-3.7-14.5-5.7-4.2-2.2-9.6-6.2-13.6-10.2-4.1-4.1-7.8-8.9-9.9-13-1.8-3.6-3.8-9.4-4.6-13-1-4.8-1.4-16-1.4-42.3zm190.5.1c6.7-.1 12.5.5 17.5 1.8 4.2 1 9.6 2.9 12 4.2 2.5 1.2 6.8 4.4 9.5 7 3 2.8 6.1 7 7.8 10.6 1.4 3.2 3 8 4.2 15.4h-30l-.6-2.8c-.4-1.5-1.8-4.1-3-5.7-1.3-1.6-3.8-3.5-5.6-4.2-1.8-.8-6-1.4-9.3-1.4s-7.4.6-9.2 1.3c-1.8.8-4.1 2.5-5 3.8-1 1.3-1.8 3.9-1.8 5.7 0 2.1.9 4.1 2.5 5.7 1.4 1.4 4.9 3.2 7.8 3.9 2.9.8 10.4 2.7 16.7 4.2 6.4 1.5 14.2 3.9 17.5 5.3 3.3 1.5 7.8 4.1 9.9 5.7s4.9 4.7 6.2 6.9 2.8 7 3.3 10.5c.6 3.8.7 8.6.2 11.5-.5 2.8-1.8 7.1-3.1 9.5-1.2 2.5-3.2 5.8-4.4 7.4-1.1 1.5-4.8 4.6-8.1 6.8s-9.1 4.9-13 6.1c-5.6 1.8-9.4 2.2-19.5 2.2-9.2 0-14-.5-18.5-1.8-3.3-1.1-8.2-3-11-4.4-2.7-1.4-6.8-3.9-9-5.7s-5.4-5.4-7.3-8.1c-1.8-2.7-4.1-7.9-5.2-11.5-1.1-3.5-2-7.3-2-8.2 0-1.6 1.4-1.8 30-1.8l.5 2.5c.3 1.4 1.3 3.7 2.3 5.2.9 1.4 3.8 3.8 6.2 5.2 3.7 2.1 6.1 2.6 13 2.9 6.8.3 9.3 0 12-1.5 2-.9 4.1-3.1 4.9-4.8 1.1-2.5 1.1-3.4 0-5.8-.8-1.6-2.6-3.5-4.1-4.3-1.5-.7-9.9-2.9-18.5-4.9-10.3-2.2-18.2-4.6-22.8-6.9-4.6-2.2-8.4-5-11.3-8.2-2.4-2.7-5-7.1-5.9-9.9s-1.5-8-1.5-12c.1-4.3.8-9.1 2.1-12.5 1.2-3.2 4-7.7 6.9-11 2.9-3.2 7.2-6.6 10.3-8.1 3-1.5 7.9-3.4 10.9-4.2 3.1-.9 10-1.6 15.5-1.6M1321 0v34h-36v88h-34V34l-34.5-.5-.2-15.4c-.1-8.5 0-16.1.3-16.8.3-1 10.8-1.3 104.4-1.3" style="fill:#336cb2"/><path d="M.1 14.9 0 30c50.9.5 52.8.6 57 2.7 2.5 1.2 6.3 4.1 8.6 6.5s5 6.9 6.3 10.3c1.9 4.9 2.2 7.4 1.9 13.5-.3 5.2-1.2 8.9-2.8 12-1.2 2.5-3.3 5.8-4.5 7.5-1.3 1.7-4.7 4.3-7.7 6l-5.3 3L0 92v30c49.3 0 55.5-.3 60-1.6 3-.9 8.2-3 11.4-4.7 3.4-1.9 8.5-6 12.2-10 4.4-4.6 7.6-9.3 10.3-15C96 86.2 98.4 80 99.1 77s1.3-10.2 1.3-16c0-6.6-.6-12.9-1.7-17-1-3.6-3.3-9.7-5.2-13.5-1.8-3.9-5.6-9.5-8.3-12.5s-7.5-7.3-10.8-9.4C71.2 6.4 66 3.7 63 2.6 58.1.8 54.5.6 28.8.2L.2-.2zM125 61v61h35V0h-35zM232.5 1.5c-3.3.7-8.5 2.3-11.5 3.5s-8 3.9-11 6c-3 2-7.7 6.2-10.4 9.1-2.6 3-6.3 8.1-8.2 11.4-1.8 3.3-4.3 9.8-5.5 14.5-1.8 7-2.1 10.3-1.7 18.5.4 6.9 1.3 12 2.9 16.5 1.3 3.6 4 9.2 5.9 12.4s6.4 8.6 10.1 12c3.6 3.4 9.2 7.6 12.5 9.3 3.2 1.8 9.5 4.2 13.9 5.3 7 1.8 11 2 32.2 2H286V60h-34v29c-15.8-.5-18.6-1.1-23-3.2-3-1.4-7.1-4.3-8.9-6.4-1.9-2.2-4.4-5.9-5.5-8.4-1.2-2.7-1.9-6.7-1.9-10 0-3.5.8-7.3 2.2-10.5 1.2-2.7 3.4-6.2 4.9-7.7 1.5-1.6 5.4-4 8.7-5.5 6-2.8 6-2.8 31.7-3L286 34V0c-39.5.2-49.6.6-53.5 1.5M313 61v61h34V0h-34zm58-44v17h34v88h34V34h36V0H371zM514.5 1.2c-.3.7-9.7 27.9-20.9 60.5-11.2 32.5-20.4 59.4-20.5 59.7-.1.4 7.3.6 16.4.6H506c12.3-38.3 18.5-57.8 21.8-68l5.9-18.5c10.9 34.1 17.2 53.6 21 65.3l6.8 21.2c27.5 0 35.7-.3 35.9-.7s-9.6-27.8-21.8-60.8L553.4.5c-34-.5-38.5-.2-38.9.7M611 61v61h93V89h-59V0h-34z" style="fill:#313236"/></svg>