<svg version="1.2" baseProfile="tiny-ps" xmlns="http://www.w3.org/2000/svg" viewBox="0 0 494 114">
	<title>securetrust-svg</title>
	<style>
		tspan { white-space:pre }
		.shp0 { fill: #53575a } 
		.shp1 { fill: #008fc5 } 
		.shp2 { fill: #3dae2b } 
	</style>
	<path fill-rule="evenodd" class="shp0" d="M272.82 113.7L272.82 112.08C272.55 112.39 272.24 112.66 271.91 112.9C271.58 113.14 271.22 113.35 270.84 113.51C270.47 113.67 270.07 113.8 269.67 113.87C269.27 113.95 268.86 113.99 268.45 113.98C265.97 113.98 264.52 112.67 264.52 110.44C264.52 107.94 266.8 106.82 270.2 106.44L272.76 106.14L272.76 104.69C272.76 103.02 272.04 102.18 269.81 102.18C267.81 102.18 266.81 102.85 266.81 103.88L266.81 104.72L265.31 104.72C265.3 104.64 265.29 104.57 265.29 104.49C265.28 104.41 265.27 104.34 265.27 104.26C265.26 104.18 265.26 104.11 265.26 104.03C265.25 103.95 265.25 103.88 265.25 103.8C265.25 102.04 266.7 100.73 269.85 100.73C273 100.73 274.36 102.1 274.36 104.66L274.36 113.66L272.82 113.7ZM268.75 112.56C269.13 112.56 269.5 112.51 269.87 112.43C270.23 112.36 270.59 112.24 270.93 112.09C271.28 111.93 271.6 111.75 271.91 111.53C272.21 111.31 272.5 111.06 272.75 110.78L272.75 107.41L270.27 107.71C267.77 108.05 266.21 108.77 266.21 110.39C266.22 111.78 267 112.56 268.75 112.56Z" />
	<path class="shp0" d="M294.84 94.88L294.84 96.41L289.25 96.41L289.25 113.7L287.49 113.7L287.49 96.41L281.87 96.41L281.87 94.88L294.84 94.88Z" />
	<path class="shp0" d="M296.26 103.15C296.4 102.79 296.6 102.45 296.84 102.15C297.08 101.85 297.37 101.59 297.69 101.37C298.01 101.15 298.36 100.99 298.74 100.88C299.11 100.77 299.49 100.71 299.88 100.72C300.01 100.72 300.15 100.72 300.28 100.73C300.42 100.73 300.55 100.75 300.68 100.76C300.82 100.78 300.95 100.8 301.08 100.83C301.21 100.85 301.34 100.88 301.47 100.92L301.22 102.67C301.09 102.63 300.97 102.59 300.84 102.56C300.71 102.53 300.58 102.51 300.45 102.49C300.32 102.47 300.19 102.45 300.06 102.44C299.92 102.43 299.79 102.42 299.66 102.42C297.91 102.42 296.93 103.65 296.26 105.26L296.26 113.7L294.62 113.7L294.62 101L296.24 101L296.24 103.15L296.26 103.15Z" />
	<path class="shp0" d="M313.92 113.7L312.3 113.7L312.3 112.14C312.03 112.44 311.74 112.72 311.41 112.96C311.08 113.2 310.73 113.4 310.36 113.56C309.99 113.72 309.6 113.84 309.21 113.91C308.81 113.99 308.4 114.02 308 114C304.72 114 303.49 112.33 303.49 109.21L303.49 101L305.11 101L305.11 109.11C305.11 111.31 305.89 112.42 308.34 112.42C308.71 112.43 309.08 112.41 309.45 112.34C309.81 112.27 310.17 112.16 310.51 112.01C310.84 111.86 311.17 111.67 311.46 111.45C311.76 111.23 312.03 110.97 312.27 110.69L312.27 101L313.91 101L313.92 113.7Z" />
	<path class="shp0" d="M324.5 103.54C324.3 103.3 324.07 103.09 323.82 102.91C323.57 102.73 323.3 102.57 323.02 102.45C322.74 102.33 322.44 102.24 322.13 102.18C321.83 102.13 321.52 102.11 321.21 102.12C319.21 102.12 318.4 103.12 318.4 104.4C318.4 105.29 318.82 105.99 320.16 106.32L322.36 106.82C324.61 107.38 325.84 108.44 325.84 110.28C325.84 112.42 324.11 113.98 320.96 113.98C320.52 114.01 320.07 113.99 319.63 113.91C319.19 113.83 318.76 113.69 318.36 113.51C317.95 113.32 317.57 113.09 317.22 112.81C316.87 112.53 316.56 112.21 316.29 111.86L317.37 110.8C317.56 111.1 317.79 111.37 318.05 111.61C318.32 111.84 318.61 112.04 318.93 112.2C319.25 112.36 319.58 112.47 319.93 112.54C320.28 112.6 320.64 112.62 320.99 112.59C322.83 112.59 324.14 111.86 324.14 110.36C324.14 109.22 323.28 108.72 321.91 108.36L319.68 107.81C317.68 107.33 316.68 106.11 316.68 104.49C316.68 102.68 317.96 100.73 321.22 100.73C321.62 100.71 322.02 100.73 322.42 100.8C322.82 100.87 323.2 100.98 323.58 101.13C323.95 101.28 324.3 101.47 324.63 101.7C324.96 101.93 325.27 102.19 325.54 102.49L324.5 103.54Z" />
	<path class="shp0" d="M331.27 110.28C331.27 111.56 331.77 112.45 333.13 112.45C333.29 112.45 333.45 112.43 333.61 112.41C333.77 112.39 333.93 112.36 334.09 112.32C334.25 112.29 334.4 112.24 334.55 112.19C334.71 112.13 334.85 112.07 335 112L335.31 113.44C335.11 113.53 334.91 113.62 334.7 113.69C334.5 113.76 334.29 113.83 334.07 113.87C333.86 113.92 333.64 113.96 333.43 113.99C333.21 114.01 332.99 114.03 332.77 114.03C330.6 114.03 329.62 112.66 329.62 110.46L329.62 102.53L327.17 102.53L327.17 101.33L329.62 101.05L329.62 97.82L331.27 97.49L331.27 101L334.94 101L334.94 102.48L331.27 102.48L331.27 110.28Z" />
	<path class="shp0" d="M346.92 101L350.45 111.83L353.93 101L355.75 101L351.48 113.7L349.59 113.7L346.05 103.12L342.49 113.7L340.62 113.7L336.36 101L338.17 101L341.63 111.83L345.19 101L346.92 101Z" />
	<path fill-rule="evenodd" class="shp0" d="M364.77 113.7L364.77 112.08C364.5 112.39 364.19 112.66 363.86 112.9C363.53 113.14 363.17 113.35 362.79 113.51C362.42 113.67 362.02 113.8 361.62 113.87C361.22 113.95 360.81 113.99 360.4 113.98C357.92 113.98 356.47 112.67 356.47 110.44C356.47 107.94 358.75 106.82 362.15 106.44L364.71 106.14L364.71 104.69C364.71 103.02 363.99 102.18 361.76 102.18C359.76 102.18 358.76 102.85 358.76 103.88L358.76 104.72L357.26 104.72C357.25 104.64 357.24 104.57 357.24 104.49C357.23 104.41 357.22 104.34 357.22 104.26C357.21 104.18 357.21 104.11 357.21 104.03C357.2 103.95 357.2 103.88 357.2 103.8C357.2 102.04 358.65 100.73 361.8 100.73C364.95 100.73 366.31 102.1 366.31 104.66L366.31 113.66L364.77 113.7ZM360.7 112.56C361.08 112.56 361.45 112.51 361.82 112.43C362.18 112.36 362.54 112.24 362.88 112.09C363.23 111.93 363.55 111.75 363.86 111.53C364.16 111.31 364.45 111.06 364.7 110.78L364.7 107.41L362.22 107.71C359.72 108.05 358.16 108.77 358.16 110.39C358.17 111.78 359 112.56 360.7 112.56Z" />
	<path class="shp0" d="M379.3 101L374.51 113.7L372.51 113.7L367.69 101L369.47 101L373.47 112.11L377.47 101L379.3 101Z" />
	<path fill-rule="evenodd" class="shp0" d="M389.38 111.05L390.25 112.2C389.95 112.49 389.63 112.75 389.28 112.98C388.93 113.2 388.56 113.39 388.17 113.54C387.79 113.7 387.39 113.81 386.98 113.88C386.57 113.96 386.16 113.99 385.74 113.98C381.74 113.98 380.14 111.22 380.14 107.32C380.14 103.62 381.81 100.72 385.57 100.72C388.97 100.72 390.5 103.29 390.5 105.99C390.5 106.15 390.49 106.3 390.49 106.46C390.48 106.61 390.47 106.77 390.46 106.92C390.45 107.08 390.43 107.23 390.42 107.39C390.4 107.54 390.38 107.7 390.36 107.85L381.81 107.85C381.81 110.61 382.92 112.5 385.74 112.5C386.07 112.5 386.41 112.47 386.74 112.41C387.07 112.34 387.39 112.25 387.7 112.12C388.01 112 388.31 111.85 388.59 111.67C388.87 111.49 389.14 111.28 389.38 111.05ZM388.85 106.49C388.85 106.44 388.86 106.39 388.86 106.34C388.86 106.29 388.86 106.24 388.86 106.19C388.86 106.13 388.86 106.08 388.86 106.03C388.86 105.98 388.85 105.93 388.85 105.88C388.85 103.76 387.74 102.17 385.54 102.17C382.92 102.17 381.95 104.04 381.78 106.49L388.85 106.49Z" />
	<path fill-rule="evenodd" class="shp0" d="M394.74 100.83C395.46 100.92 396.13 101.28 396.61 101.83C396.98 102.25 397.22 102.77 397.31 103.31C397.22 102.84 396.99 102.39 396.64 102.03C395.92 101.28 394.82 101.05 393.86 101.44C392.9 101.82 392.26 102.75 392.26 103.79C392.23 104.13 392.28 104.46 392.39 104.78C392.5 105.1 392.69 105.39 392.92 105.63C393.15 105.87 393.44 106.06 393.75 106.19C394.07 106.31 394.4 106.37 394.74 106.35C395.78 106.38 396.73 105.78 397.14 104.83C397.23 104.64 397.29 104.44 397.32 104.25C397.24 104.81 396.99 105.35 396.61 105.78C396.13 106.33 395.46 106.69 394.74 106.78C394.02 106.69 393.35 106.33 392.87 105.78C392.39 105.24 392.13 104.53 392.13 103.81C392.13 103.08 392.39 102.37 392.87 101.83C393.35 101.28 394.02 100.92 394.74 100.83ZM397.31 103.31C397.37 103.62 397.38 103.94 397.32 104.25C397.34 104.1 397.35 103.95 397.35 103.81C397.35 103.64 397.34 103.48 397.31 103.31ZM393.54 102.09L394.75 102.09C395.59 102.09 395.98 102.44 395.98 103.09C395.98 103.74 395.62 103.97 394.98 104.09L396.08 105.6L395.56 105.6L394.56 104.13L394 104.13L394 105.6L393.57 105.6L393.54 102.09ZM394 102.46L394 103.7L394.76 103.7C395.37 103.7 395.58 103.36 395.58 103.07C395.58 102.78 395.37 102.46 394.77 102.46L394 102.46Z" />
	<path fill-rule="evenodd" class="shp0" d="M414.42 94.49L416.06 94.49L416.06 113.7L414.45 113.7L414.45 112.42C414.21 112.68 413.94 112.92 413.64 113.12C413.35 113.33 413.03 113.5 412.7 113.64C412.37 113.77 412.02 113.87 411.67 113.93C411.32 113.99 410.96 114.02 410.6 114C406.87 114 405.2 111.38 405.2 107.34C405.2 103.3 406.87 100.74 410.63 100.74C410.98 100.72 411.34 100.75 411.69 100.81C412.04 100.87 412.38 100.97 412.71 101.11C413.03 101.24 413.34 101.42 413.63 101.62C413.92 101.83 414.18 102.07 414.42 102.33L414.42 94.49ZM410.85 112.49C411.2 112.51 411.56 112.48 411.9 112.41C412.25 112.33 412.58 112.21 412.89 112.05C413.21 111.88 413.5 111.68 413.75 111.44C414.01 111.2 414.24 110.92 414.42 110.62L414.42 104.19C414.23 103.89 414.01 103.62 413.75 103.39C413.5 103.15 413.21 102.94 412.9 102.78C412.59 102.62 412.26 102.49 411.92 102.42C411.58 102.34 411.23 102.31 410.88 102.32C407.82 102.32 406.88 104.38 406.88 107.32C406.88 110.26 407.85 112.45 410.85 112.45L410.85 112.49Z" />
	<path class="shp0" d="M419 96.27C418.98 96.09 419 95.91 419.06 95.74C419.12 95.57 419.21 95.42 419.34 95.29C419.46 95.16 419.61 95.06 419.78 95C419.95 94.94 420.13 94.91 420.31 94.93C420.49 94.92 420.67 94.95 420.83 95.01C421 95.08 421.15 95.18 421.27 95.3C421.4 95.43 421.5 95.58 421.56 95.75C421.62 95.91 421.65 96.09 421.64 96.27C421.65 96.45 421.62 96.62 421.56 96.79C421.5 96.95 421.4 97.1 421.27 97.23C421.15 97.35 421 97.45 420.83 97.51C420.66 97.57 420.49 97.59 420.31 97.58C420.13 97.6 419.95 97.58 419.79 97.52C419.62 97.46 419.46 97.37 419.34 97.24C419.21 97.12 419.12 96.96 419.06 96.79C419 96.63 418.98 96.45 419 96.27ZM419.5 101L421.14 101L421.14 113.7L419.5 113.7L419.5 101Z" />
	<path class="shp0" d="M434.66 101L429.87 113.7L427.87 113.7L423.05 101L424.83 101L428.83 112.11L432.83 101L434.66 101Z" />
	<path class="shp0" d="M436.14 96.27C436.12 96.09 436.14 95.91 436.2 95.74C436.26 95.57 436.35 95.42 436.48 95.29C436.6 95.16 436.75 95.06 436.92 95C437.09 94.94 437.27 94.91 437.45 94.93C437.63 94.92 437.81 94.95 437.97 95.01C438.14 95.08 438.29 95.17 438.42 95.3C438.54 95.43 438.64 95.58 438.7 95.75C438.77 95.91 438.79 96.09 438.78 96.27C438.79 96.45 438.76 96.62 438.7 96.79C438.64 96.95 438.54 97.1 438.41 97.23C438.29 97.35 438.14 97.45 437.97 97.51C437.8 97.57 437.63 97.59 437.45 97.58C437.27 97.6 437.09 97.58 436.93 97.52C436.76 97.46 436.61 97.36 436.48 97.24C436.36 97.11 436.26 96.96 436.2 96.79C436.14 96.63 436.12 96.45 436.14 96.27L436.14 96.27ZM436.64 101L438.28 101L438.28 113.7L436.64 113.7L436.64 101Z" />
	<path class="shp0" d="M448.75 103.54C448.55 103.31 448.32 103.09 448.07 102.91C447.83 102.73 447.56 102.57 447.27 102.45C446.99 102.33 446.69 102.24 446.39 102.18C446.09 102.13 445.78 102.11 445.47 102.12C443.47 102.12 442.66 103.12 442.66 104.4C442.66 105.29 443.07 105.99 444.41 106.32L446.61 106.82C448.87 107.38 450.09 108.44 450.09 110.28C450.09 112.42 448.36 113.98 445.22 113.98C444.77 114.01 444.33 113.99 443.89 113.91C443.45 113.83 443.02 113.69 442.61 113.51C442.21 113.33 441.82 113.09 441.47 112.81C441.12 112.54 440.81 112.22 440.54 111.86L441.62 110.8C441.81 111.1 442.04 111.37 442.31 111.61C442.57 111.85 442.87 112.05 443.18 112.2C443.5 112.36 443.84 112.47 444.19 112.54C444.54 112.6 444.9 112.62 445.25 112.59C447.08 112.59 448.39 111.86 448.39 110.36C448.39 109.22 447.53 108.72 446.16 108.36L443.94 107.81C441.94 107.33 440.94 106.11 440.94 104.49C440.94 102.68 442.22 100.73 445.48 100.73C445.88 100.71 446.28 100.73 446.68 100.8C447.07 100.87 447.46 100.98 447.83 101.13C448.2 101.28 448.56 101.47 448.89 101.7C449.22 101.93 449.52 102.19 449.79 102.49L448.75 103.54Z" />
	<path class="shp0" d="M452 96.27C451.98 96.09 452 95.91 452.05 95.74C452.11 95.57 452.21 95.42 452.33 95.29C452.45 95.16 452.61 95.06 452.77 95C452.94 94.94 453.12 94.91 453.3 94.93C453.48 94.92 453.66 94.95 453.82 95.01C453.99 95.08 454.14 95.17 454.27 95.3C454.4 95.43 454.49 95.58 454.56 95.75C454.62 95.91 454.65 96.09 454.64 96.27C454.65 96.45 454.62 96.62 454.56 96.79C454.49 96.95 454.39 97.1 454.27 97.23C454.14 97.35 453.99 97.45 453.82 97.51C453.65 97.57 453.48 97.59 453.3 97.58C453.12 97.6 452.95 97.58 452.78 97.52C452.61 97.46 452.46 97.36 452.33 97.24C452.21 97.11 452.11 96.96 452.06 96.79C452 96.62 451.98 96.45 452 96.27ZM452.5 101L454.14 101L454.14 113.7L452.5 113.7L452.5 101Z" />
	<path fill-rule="evenodd" class="shp0" d="M467.91 107.32C467.91 111.17 466.32 113.98 462.26 113.98C458.44 113.98 456.75 111.17 456.75 107.35C456.75 103.53 458.42 100.72 462.34 100.72C466.26 100.72 467.91 103.56 467.91 107.32ZM466.24 107.32C466.24 104.26 465.16 102.22 462.31 102.22C459.46 102.22 458.44 104.22 458.44 107.29C458.44 110.36 459.56 112.42 462.29 112.42C465.02 112.42 466.24 110.39 466.24 107.35L466.24 107.32Z" />
	<path class="shp0" d="M470.61 101L472.23 101L472.23 102.56C472.5 102.26 472.8 101.99 473.12 101.75C473.45 101.52 473.8 101.32 474.17 101.16C474.54 101 474.92 100.88 475.32 100.81C475.72 100.73 476.12 100.7 476.52 100.72C479.8 100.72 481.03 102.39 481.03 105.51L481.03 113.7L479.41 113.7L479.41 105.6C479.41 103.4 478.63 102.28 476.18 102.28C475.81 102.27 475.44 102.29 475.08 102.36C474.71 102.43 474.36 102.54 474.02 102.69C473.68 102.84 473.36 103.03 473.07 103.25C472.77 103.47 472.5 103.73 472.26 104.01L472.26 113.7L470.61 113.7L470.61 101Z" />
	<path class="shp1" d="M45.69 19.07C42.55 14.32 37.33 11.42 29.8 11.42C21.1 11.42 16.69 16.42 16.69 23.13C16.69 28.7 19.69 31.72 26.32 33.81L36.52 36.81C49.4 40.81 55.43 47.37 55.43 57.81C55.43 72.31 44.53 81.36 28.06 81.36C10.54 81.36 3.7 73 0.56 66.74L9.5 59.74C12.28 65.42 16.5 70.41 28.06 70.41C37.45 70.41 42.44 65.66 42.44 58.7C42.44 52.78 38.61 49.76 32.12 47.79L21.91 44.79C9.15 40.79 3.58 33.79 3.58 23.79C3.58 11.73 11.47 0.47 29.8 0.47C42.9 0.47 50.67 6.04 54.62 12.07L45.69 19.07Z" />
	<path fill-rule="evenodd" class="shp1" d="M104.96 73.71C101.25 77.77 93.96 81.37 85.59 81.37C67.84 81.37 60.42 69.77 60.42 53.64C60.42 38.45 68.31 26.03 84.42 26.03C99.96 26.03 106.11 37.29 106.11 48.65C106.12 49.38 106.11 50.11 106.08 50.84C106.05 51.57 106.01 52.3 105.94 53.02C105.87 53.75 105.78 54.47 105.68 55.19C105.57 55.92 105.44 56.63 105.3 57.35L72.25 57.35C72.48 65.82 76.66 71.27 85.59 71.27C86.85 71.26 88.1 71.14 89.34 70.91C90.57 70.68 91.78 70.35 92.96 69.9C94.13 69.46 95.27 68.91 96.35 68.26C97.42 67.62 98.44 66.88 99.39 66.05L104.96 73.71ZM95.1 48.77C95.12 48.6 95.14 48.44 95.16 48.27C95.18 48.11 95.19 47.94 95.2 47.77C95.21 47.61 95.22 47.44 95.22 47.27C95.22 47.1 95.22 46.94 95.22 46.77C95.22 39.69 90.81 35.52 84.43 35.52C76.08 35.52 72.71 41.32 72.25 48.74L95.1 48.77Z" />
	<path class="shp1" d="M134.77 26C144.17 26 151.48 29.83 155.31 37.26L147 43.2C144.57 38.91 141 36.36 135.64 36.36C126.24 36.36 122.76 43.67 122.76 53.64C122.76 63.61 126.24 70.93 135.64 70.93C136.81 70.96 137.98 70.83 139.11 70.53C140.24 70.24 141.33 69.79 142.34 69.2C143.35 68.61 144.27 67.88 145.08 67.04C145.89 66.19 146.57 65.24 147.12 64.2L155.36 70.11C151.64 77.54 144.22 81.37 134.82 81.37C117.89 81.37 110.82 68.95 110.82 53.64C110.76 38.56 117.84 26 134.77 26Z" />
	<path class="shp1" d="M205.18 80.09L193.93 80.09L193.93 73.94C190.93 78.12 185.12 81.25 177.11 81.25C164.59 81.25 158.79 74.06 158.79 60.6L158.79 27.19L170.39 27.19L170.39 59.44C170.39 66.75 173.17 70.44 181.29 70.44C182.43 70.45 183.56 70.34 184.67 70.12C185.79 69.91 186.88 69.58 187.93 69.16C188.98 68.73 189.99 68.2 190.94 67.58C191.89 66.95 192.77 66.24 193.58 65.44L193.58 27.19L205.18 27.19L205.18 80.09Z" />
	<path class="shp1" d="M223.28 35.78C226.06 30.67 230.12 26.03 237.78 26.03C238.31 26.03 238.83 26.04 239.36 26.07C239.88 26.09 240.41 26.14 240.93 26.19C241.45 26.25 241.97 26.33 242.49 26.42C243.01 26.51 243.53 26.61 244.04 26.73L243.04 39.14C242.4 38.97 241.75 38.82 241.1 38.7C240.44 38.57 239.79 38.46 239.13 38.38C238.47 38.3 237.81 38.23 237.14 38.19C236.48 38.15 235.81 38.14 235.15 38.14C229.7 38.14 225.87 41.5 223.67 46.26L223.67 80.13L212 80.13L212 27.19L223.13 27.19L223.13 35.78L223.28 35.78Z" />
	<path fill-rule="evenodd" class="shp1" d="M288.01 73.71C284.29 77.77 277.01 81.37 268.64 81.37C250.89 81.37 243.46 69.77 243.46 53.64C243.46 38.45 251.35 26.03 267.46 26.03C283 26.03 289.15 37.29 289.15 48.65C289.16 49.38 289.15 50.11 289.12 50.84C289.09 51.57 289.04 52.29 288.97 53.02C288.91 53.75 288.82 54.47 288.71 55.19C288.61 55.92 288.48 56.63 288.34 57.35L255.3 57.35C255.53 65.82 259.7 71.27 268.64 71.27C269.9 71.26 271.15 71.14 272.39 70.91C273.62 70.68 274.83 70.35 276.01 69.9C277.18 69.46 278.32 68.91 279.4 68.26C280.47 67.62 281.49 66.88 282.44 66.05L288.01 73.71ZM278.15 48.77C278.17 48.6 278.19 48.44 278.21 48.27C278.22 48.11 278.23 47.94 278.24 47.77C278.25 47.61 278.26 47.44 278.26 47.27C278.26 47.1 278.26 46.94 278.26 46.77C278.26 39.69 273.86 35.52 267.48 35.52C259.12 35.52 255.76 41.32 255.3 48.74L278.15 48.77Z" />
	<path class="shp2" d="M330.23 1.67L330.23 12.11L308.54 12.11L308.54 80.11L295.89 80.11L295.89 12.11L274.09 12.11L274.09 1.67L330.23 1.67Z" />
	<path class="shp2" d="M327.33 35.78C330.11 30.67 334.17 26.03 341.83 26.03C342.36 26.03 342.88 26.04 343.41 26.07C343.93 26.09 344.46 26.14 344.98 26.19C345.5 26.25 346.02 26.33 346.54 26.42C347.06 26.51 347.58 26.61 348.09 26.73L347.09 39.14C346.45 38.97 345.8 38.82 345.15 38.7C344.49 38.57 343.84 38.46 343.18 38.38C342.52 38.3 341.86 38.23 341.19 38.19C340.53 38.15 339.86 38.14 339.2 38.14C333.75 38.14 329.92 41.5 327.72 46.26L327.72 80.13L316.12 80.13L316.12 27.19L327.25 27.19L327.25 35.78L327.33 35.78Z" />
	<path class="shp2" d="M397.63 80.09L386.37 80.09L386.37 73.94C383.37 78.12 377.56 81.25 369.55 81.25C357.03 81.25 351.23 74.06 351.23 60.6L351.23 27.19L362.83 27.19L362.83 59.44C362.83 66.75 365.61 70.44 373.73 70.44C374.87 70.44 376 70.34 377.11 70.12C378.23 69.91 379.32 69.58 380.37 69.16C381.43 68.73 382.43 68.2 383.38 67.57C384.33 66.95 385.22 66.24 386.03 65.44L386.03 27.19L397.63 27.19L397.63 80.09Z" />
	<path class="shp2" d="M435.9 40.65C435.09 39.74 434.18 38.92 433.19 38.21C432.2 37.49 431.14 36.88 430.02 36.39C428.9 35.91 427.73 35.54 426.54 35.3C425.34 35.06 424.12 34.95 422.9 34.97C416.75 34.97 414.2 37.97 414.2 41.58C414.2 44.48 415.71 46.68 419.89 47.58L428.82 49.67C438.91 51.99 443.67 57.21 443.67 64.86C443.67 73.45 437.52 81.34 421.67 81.34C410.41 81.34 404.03 76.46 400.79 72.4L407.63 65.33C410.53 68.69 414.63 72.4 422.01 72.4C427.81 72.4 431.87 70.2 431.87 65.79C431.87 62.66 429.44 60.79 425.15 59.79L416 57.47C407.07 55.27 402.55 49.93 402.55 42.62C402.5 35 408.07 26 423.26 26C433.35 26 439.26 30 442.63 33.66L435.9 40.65Z" />
	<path class="shp2" d="M467.22 63.73C467.22 68.14 469.31 70.58 473.6 70.58C474.19 70.56 474.77 70.52 475.35 70.45C475.93 70.39 476.51 70.29 477.08 70.18C477.66 70.06 478.23 69.92 478.79 69.75C479.35 69.59 479.9 69.4 480.45 69.19L481.03 79.39C480.15 79.71 479.26 79.99 478.35 80.24C477.45 80.48 476.54 80.69 475.61 80.86C474.69 81.02 473.77 81.15 472.83 81.24C471.9 81.33 470.97 81.38 470.03 81.39C459.71 81.39 455.53 74.77 455.53 65.26L455.53 37.17L445.79 37.17L445.79 28.35L455.53 27.19L455.53 14.09L467.24 12.23L467.24 27.23L480.24 27.23L480.24 37.23L467.24 37.23L467.22 63.73Z" />
	<path class="shp2" d="M483.83 12.28L483.83 13.19L481.39 13.19L481.39 20.71L480.32 20.71L480.32 13.19L477.91 13.19L477.91 12.28L483.83 12.28Z" />
	<path class="shp2" d="M491.45 12.28L492.87 12.28L494 20.71L493 20.71L492 13.55L489.72 20.71L488.6 20.71L486.35 13.55L485.44 20.71L484.44 20.71L485.57 12.28L487 12.28L489.2 19.35L491.45 12.28Z" />
</svg>