<svg version="1.1" id="Layer_1" xmlns="http://www.w3.org/2000/svg" xmlns:xlink="http://www.w3.org/1999/xlink" x="0px" y="0px"
	 viewBox="0 0 400 400" enable-background="new 0 0 400 400" xml:space="preserve">
<path fill="#000000" opacity="1.000000" stroke="none" 
	d="
M182.696106,169.921936 
	C179.604218,170.370850 177.423096,172.047791 175.041885,173.183853 
	C164.587112,178.171783 154.035889,175.819931 143.485901,173.784409 
	C142.794556,173.651031 142.234634,172.836472 141.503159,172.250244 
	C142.536850,169.281647 144.893188,169.608154 146.913788,169.863602 
	C160.194595,171.542648 171.803497,166.906921 182.826660,160.315216 
	C187.177597,157.713409 187.092682,154.019226 183.048935,150.924088 
	C176.007416,145.534409 174.573837,135.464294 179.913864,127.615585 
	C184.381790,121.048676 190.043961,115.332321 197.068619,111.910713 
	C208.322784,106.428993 219.775131,108.068329 230.373108,114.292122 
	C235.920990,117.550194 241.794586,119.700439 247.911423,121.228668 
	C255.683975,123.170532 262.839966,119.958931 265.196594,113.913872 
	C267.544922,107.889977 263.851959,98.454819 257.932281,94.757645 
	C247.517593,88.253098 236.081726,89.521210 224.901321,90.840401 
	C215.899796,91.902496 206.857468,92.979027 198.123535,96.231544 
	C189.790283,99.334854 180.993256,95.851913 172.380890,95.892387 
	C169.472778,95.906052 166.833939,95.916382 163.944168,97.541771 
	C169.744583,104.312431 174.887955,111.296204 168.348953,120.145119 
	C165.242264,124.349258 158.240143,125.332047 152.188232,122.650017 
	C142.848663,118.510971 144.128616,110.455780 145.331543,101.901169 
	C138.276962,109.947807 139.296967,118.518929 142.268570,126.675682 
	C143.759598,130.768433 145.312164,134.578079 145.536514,138.991272 
	C145.810776,144.386719 146.242737,149.880569 151.575027,153.272705 
	C148.627457,155.672394 147.839767,152.146942 145.433197,152.915741 
	C144.256531,154.544678 142.796982,156.695297 141.205124,158.743057 
	C137.336929,163.719147 129.455124,164.786057 124.382591,161.079544 
	C119.143295,157.251160 119.597084,149.565445 125.380287,146.592041 
	C130.011185,144.211075 134.856384,142.537399 140.326416,145.054550 
	C140.883148,141.613220 140.650726,138.878769 139.612869,135.907150 
	C136.936584,128.244324 134.374527,120.547485 134.659042,112.171478 
	C135.034332,101.123245 141.087173,94.354256 152.081497,93.716179 
	C154.544647,93.573235 156.570084,92.512161 158.709915,91.713768 
	C166.896362,88.659309 175.137085,90.164436 183.369186,91.187263 
	C186.343506,91.556808 189.268875,91.921478 193.085571,91.079521 
	C184.432205,83.874580 177.552933,76.452080 185.843597,65.422485 
	C189.699234,60.293060 195.279343,59.030178 201.485794,62.222157 
	C210.563690,66.890907 213.117828,71.693390 210.696808,86.108063 
	C216.159485,87.844505 221.415115,85.697685 226.732788,85.215935 
	C237.720810,84.220490 248.675476,83.663124 259.005920,88.734657 
	C267.832062,93.067673 272.624298,102.343300 271.222168,112.355667 
	C270.192535,119.708244 264.111053,125.305336 254.862366,126.986298 
	C248.898376,128.070251 243.295425,126.069389 237.923035,123.847488 
	C232.548309,121.624611 227.334167,118.985886 222.153976,116.326218 
	C213.173706,111.715477 204.762756,112.880989 196.803146,118.617249 
	C191.506607,122.434288 186.670090,126.705589 183.601227,132.688232 
	C182.133774,135.548996 181.952057,138.488251 182.578339,141.432785 
	C183.545380,145.979431 186.653839,147.373749 190.724731,145.389023 
	C196.254288,142.693100 198.893723,143.294876 202.265686,148.741425 
	C203.714859,151.082199 205.188797,150.247803 206.920715,149.782944 
	C214.675690,147.701477 222.010834,144.510895 229.190842,141.012222 
	C235.684723,137.847870 242.379913,135.583542 249.590851,135.015228 
	C256.013031,134.509109 261.814575,136.357178 266.894928,140.221298 
	C271.830566,143.975357 271.989532,149.515091 271.105103,154.815994 
	C270.331024,159.455704 267.242218,162.818344 262.495789,164.266251 
	C261.703156,164.508041 260.945496,164.882538 260.142242,165.068466 
	C253.162796,166.683762 246.985764,168.185699 245.400085,177.415771 
	C244.201263,184.393997 240.778229,190.931290 243.519516,198.225388 
	C243.818832,199.021820 243.863251,199.852081 243.227661,200.563416 
	C239.289459,199.490646 236.953476,193.923874 238.281311,187.956390 
	C239.328171,183.251678 240.782730,178.637085 242.078949,173.988815 
	C242.521652,172.401245 243.214462,170.862549 242.868149,168.874466 
	C237.798462,167.439941 231.845840,167.973770 227.925201,163.369034 
	C223.866150,158.601715 223.696487,153.475189 227.323456,147.370270 
	C223.321701,149.169220 220.088516,150.623688 216.854462,152.076218 
	C212.733093,153.927277 208.575317,155.612610 203.914886,155.389832 
	C202.382370,155.316589 200.929855,155.690521 199.685471,156.642624 
	C198.855743,157.277451 198.245972,158.077957 198.484940,159.192307 
	C198.741089,160.386734 199.712692,160.675797 200.759537,160.703156 
	C203.590927,160.777161 206.423157,160.833801 209.255386,160.857422 
	C227.359283,161.008423 235.776520,169.207199 236.322403,187.410004 
	C236.496841,193.226898 236.367065,199.053040 236.367294,204.874939 
	C236.367355,206.545471 236.383377,208.186356 237.185104,209.744278 
	C237.846207,211.028915 238.958054,212.592941 236.895676,213.539597 
	C235.249451,214.295242 233.958298,213.088776 233.075912,211.895294 
	C230.836517,208.866394 229.357590,205.280014 229.991837,201.635468 
	C231.050629,195.551453 229.921936,189.678314 228.997803,183.835846 
	C227.069351,171.643860 222.175003,167.707413 209.787857,167.478653 
	C203.987106,167.371536 198.093994,167.928467 192.627182,165.287170 
	C190.914108,164.459503 189.736282,165.613174 188.496078,166.309341 
	C186.619156,167.362976 184.857834,168.622574 182.696106,169.921936 
M245.545929,151.146179 
	C246.847656,154.009094 248.436310,156.755264 248.819717,159.971664 
	C249.101303,162.333878 250.706741,163.124237 252.760941,162.493683 
	C256.389893,161.379745 260.123596,160.461746 263.066193,157.748611 
	C267.442383,153.713638 267.669250,148.940094 263.429321,144.779770 
	C260.490265,141.895859 257.049652,140.218063 252.753708,140.148087 
	C246.138977,140.040344 239.864136,141.059845 233.788406,144.627502 
	C238.340485,145.437286 241.964386,147.544327 245.545929,151.146179 
M193.879074,83.710022 
	C195.076996,84.287643 196.245377,84.939499 197.477982,85.429970 
	C202.704742,87.509819 204.787720,86.314308 205.641083,80.716171 
	C206.446945,75.429588 204.573746,71.207047 200.248596,68.147240 
	C195.274139,64.628098 189.200424,67.419380 188.386200,73.485725 
	C187.795364,77.887741 190.428452,80.633041 193.879074,83.710022 
M151.177521,106.572342 
	C149.910599,109.444130 150.481750,112.080917 152.275604,114.510597 
	C154.787491,117.912796 159.363098,118.792358 163.189545,116.744423 
	C167.479141,114.448624 164.890762,111.385841 164.100113,108.582069 
	C163.745987,107.326256 163.127625,106.095436 162.405090,105.001236 
	C158.408295,98.948524 154.631927,99.253105 151.177521,106.572342 
M235.218994,150.194031 
	C229.787918,150.950287 228.234802,153.443817 230.162582,158.223145 
	C232.064392,162.938095 236.296661,163.306427 240.453537,163.769379 
	C243.267044,164.082703 243.999146,162.402283 243.558838,160.044357 
	C242.715195,155.526581 240.536545,151.979660 235.218994,150.194031 
M126.620178,157.024109 
	C132.479782,160.436661 139.173462,157.491913 140.292313,151.044083 
	C140.484100,149.938766 140.346054,148.981003 139.329117,148.507263 
	C136.003967,146.958237 132.613632,146.739212 129.482956,148.886063 
	C126.879562,150.671295 124.120705,152.581757 126.620178,157.024109 
z"/>
<path fill="#000000" opacity="1.000000" stroke="none" 
	d="
M108.777252,119.842667 
	C109.525116,118.505035 109.884209,117.254723 110.703133,116.510201 
	C116.032539,111.664986 116.074318,105.845367 115.131905,99.174973 
	C113.853348,90.125404 121.582283,79.264847 131.112808,75.495499 
	C133.422363,74.582062 134.914139,73.244003 136.272339,71.170540 
	C142.977036,60.934910 152.685516,56.513870 164.757660,57.467712 
	C167.863510,57.713112 170.002151,57.331932 172.031525,54.637939 
	C181.285858,42.352787 197.184464,41.230743 207.884735,52.199543 
	C210.516373,54.897224 212.664749,55.819134 216.497421,54.932934 
	C236.771027,50.245239 253.436295,56.737431 267.005676,72.080368 
	C268.111572,73.330811 269.178955,74.449989 271.079102,74.640839 
	C280.256775,75.562668 287.129303,80.479843 292.790131,87.435234 
	C294.049194,88.982224 295.416962,90.441917 296.757141,91.921478 
	C303.950745,99.863403 304.507416,109.303497 297.844208,117.657234 
	C295.937195,120.048096 296.617065,121.857964 297.548187,124.026833 
	C303.036865,136.811966 291.470764,146.786285 281.924408,150.330017 
	C280.952911,150.690628 279.899506,150.476196 279.341309,149.417206 
	C278.743347,148.282776 279.453186,147.515396 280.256378,146.874573 
	C282.204346,145.320389 284.223083,143.853149 286.142639,142.265427 
	C292.941986,136.641510 294.359039,132.153885 290.758423,124.394379 
	C288.841125,120.262543 289.045502,117.595505 292.578949,114.496063 
	C296.611664,110.958672 296.865723,105.637650 294.211517,100.820351 
	C290.268951,93.664642 284.195587,88.425964 278.161407,83.209702 
	C275.633392,81.024368 272.357147,80.704414 269.174683,81.960625 
	C266.102875,83.173134 264.303833,82.297615 262.814270,79.309532 
	C257.999664,69.651482 249.210068,65.254631 239.513123,61.971115 
	C230.257599,58.837074 221.506165,59.627033 212.931625,64.170174 
	C209.828644,65.814255 207.784164,64.675209 206.148849,61.513794 
	C199.982834,49.593349 184.522232,49.028931 177.397568,60.356159 
	C176.963257,61.046631 176.576416,61.800968 176.342728,62.578270 
	C174.366745,69.150826 174.167938,69.550293 168.003616,66.262985 
	C158.316376,61.096992 144.822144,69.531090 142.803848,78.090569 
	C142.167648,80.788666 140.688431,81.883751 138.107681,82.434128 
	C132.709976,83.585258 128.246872,86.186554 125.301048,91.149918 
	C123.237679,94.626465 122.220894,97.913689 123.850174,101.966927 
	C125.881851,107.021233 124.210838,111.452164 121.019989,115.744537 
	C115.574036,123.070534 110.435928,130.916473 108.070625,139.621429 
	C106.541016,145.250763 106.114342,151.825531 108.357399,157.948288 
	C111.138420,165.539520 116.445625,170.757965 123.254074,174.687363 
	C124.760864,175.556992 126.941750,175.400208 127.649155,177.736252 
	C125.826668,180.279434 123.497505,179.116959 121.447388,178.332840 
	C109.944901,173.933533 99.215797,160.993301 100.395691,144.320465 
	C101.029900,135.358582 103.775101,127.506012 108.777252,119.842667 
z"/>
<path fill="#000000" opacity="1.000000" stroke="none" 
	d="
M214.534592,245.713593 
	C216.638367,244.286041 218.515594,243.858246 220.122726,245.781189 
	C221.918640,247.929962 220.214432,249.806046 219.337219,251.816483 
	C222.098984,254.403152 223.303757,252.161591 224.790726,250.324020 
	C226.245056,248.526779 227.917297,246.900589 230.386292,246.520523 
	C232.870422,254.130356 233.174347,254.297409 240.949127,252.409485 
	C249.129211,250.423141 252.888092,253.326859 253.257996,261.871033 
	C253.297760,262.789520 252.796356,263.887787 254.335938,264.893799 
	C253.934341,260.026855 254.603897,255.866638 259.147614,253.313828 
	C263.306427,250.977264 267.694641,252.347122 271.837494,252.615692 
	C274.731201,252.803284 274.007812,256.236237 273.511444,258.473999 
	C272.980133,260.869507 271.065735,260.978149 269.167877,260.398163 
	C268.258026,260.120117 267.539398,259.268433 266.671387,258.790497 
	C264.969116,257.853210 263.416138,258.121155 262.291901,259.737366 
	C261.394531,261.027374 260.970367,262.494507 261.981750,263.926727 
	C263.066467,265.462799 264.627869,266.182556 266.311554,265.147095 
	C268.800598,263.616394 271.101959,262.790527 273.408691,265.315033 
	C271.699066,270.790436 266.497040,272.938965 260.224304,270.547302 
	C258.156677,269.758972 256.718719,269.302979 254.413086,270.630554 
	C251.693085,272.196747 248.147415,270.231964 245.101257,270.865662 
	C239.903732,271.946899 234.978043,268.743805 229.430740,270.975739 
	C226.061493,272.331360 224.517334,268.307281 224.559311,264.650391 
	C224.592667,261.746704 225.839111,258.148987 221.287888,256.565460 
	C221.056015,260.084015 220.377029,263.184418 222.487549,266.345184 
	C224.198227,268.907104 223.008835,270.954865 219.806274,270.983276 
	C210.147491,271.069061 200.483612,271.153778 190.829468,270.919434 
	C186.730347,270.819977 186.150803,269.123505 188.574295,265.570190 
	C190.267944,263.086914 190.488388,260.119659 188.740021,258.172058 
	C185.156281,254.179962 187.282776,252.867233 190.994751,251.818497 
	C190.561371,250.491501 189.874756,249.272339 189.816101,248.023682 
	C189.698090,245.510742 191.302338,244.400208 193.653519,244.558777 
	C195.830276,244.705582 197.183777,246.060623 196.645615,248.235382 
	C195.498123,252.872421 196.784332,257.499695 196.383575,262.120514 
	C196.232498,263.862610 196.489532,265.616882 198.842621,265.638855 
	C201.012085,265.659119 201.849121,264.182281 201.622528,262.324158 
	C201.081436,257.887024 203.485214,252.971664 199.421890,249.063187 
	C198.535843,248.210907 198.614975,246.716492 199.481796,245.836731 
	C201.217575,244.074966 203.540695,244.802216 205.650391,244.834930 
	C207.509750,244.863770 208.267014,246.072708 208.283707,247.802399 
	C208.322235,251.798859 208.246475,255.798660 208.389267,259.790924 
	C208.461563,261.812317 207.481461,264.321106 210.160614,265.503387 
	C211.297455,266.005035 212.746185,265.836273 213.236343,264.646149 
	C214.137070,262.459198 214.641190,259.707611 212.951324,258.016510 
	C209.706238,254.768997 211.341400,253.229492 214.487137,251.731979 
	C214.738556,249.809769 212.930161,247.926514 214.534592,245.713593 
M242.662491,257.204163 
	C240.599609,257.813782 238.585968,258.337280 236.374573,257.610901 
	C234.606110,257.029999 232.326584,256.854675 231.751236,259.039215 
	C231.194382,261.153564 230.206512,263.873840 233.873322,266.042664 
	C235.262650,260.434143 239.022247,258.191895 244.345200,258.102905 
	C244.750244,258.096161 243.762329,257.401031 242.662491,257.204163 
z"/>
<path fill="#000000" opacity="1.000000" stroke="none" 
	d="
M124.471786,271.021606 
	C121.873940,271.406067 120.989937,269.568115 119.828506,268.278473 
	C114.156876,272.444336 108.597282,272.406311 102.950630,268.461609 
	C100.157837,271.760010 96.330605,272.305115 93.401276,269.816620 
	C90.781067,267.590668 89.423569,263.878326 87.442184,260.715271 
	C85.680298,263.689575 85.545403,263.836975 87.674408,265.785339 
	C88.888306,266.896240 89.038780,268.027222 88.744698,269.329041 
	C88.366508,271.003174 86.898109,271.014893 85.546982,271.042725 
	C84.048035,271.073608 82.548119,271.078583 81.048828,271.067505 
	C74.229012,271.017151 73.978836,270.585541 77.309761,264.671509 
	C78.672783,262.251465 77.824409,252.273895 75.827309,250.063904 
	C74.763222,248.886414 74.586250,247.721909 74.972099,246.431854 
	C75.449615,244.835281 76.947762,244.814453 78.272919,244.800156 
	C82.437355,244.755203 86.617142,244.554016 90.764175,244.824448 
	C97.992401,245.295807 101.016487,251.150604 96.971214,257.123169 
	C94.188011,261.232361 97.392494,262.898254 99.266769,265.611084 
	C101.777084,263.671875 100.819351,261.044861 101.464668,258.964539 
	C102.828911,254.566589 106.934311,251.655685 111.744621,252.029739 
	C116.156410,252.372803 119.751831,255.631256 120.368217,259.717712 
	C120.766869,262.360657 120.256493,263.919403 117.062019,263.638916 
	C114.452805,263.409851 111.807457,263.592316 108.907631,263.592316 
	C109.040810,266.038849 110.533875,267.178589 112.108360,266.349274 
	C115.019730,264.815826 117.768311,264.979095 120.756302,265.598877 
	C121.976082,265.851898 123.360832,265.134491 123.361778,263.837341 
	C123.365189,259.166260 125.253105,254.222672 121.944771,249.956116 
	C120.887383,248.592484 120.279961,247.205048 121.313995,245.930267 
	C122.899910,243.975098 125.328148,244.893661 127.419624,244.824966 
	C128.874146,244.777206 129.961594,245.355408 130.225098,247.029709 
	C130.478973,248.642822 129.904572,250.384537 130.922394,251.871201 
	C139.730103,252.328293 140.560287,253.165512 140.863159,262.123444 
	C140.908188,263.455566 140.675827,264.760345 141.803772,265.835144 
	C142.968124,266.944611 143.757172,268.460785 142.652954,269.823242 
	C141.222473,271.588257 139.004013,271.078430 137.046707,270.871826 
	C135.241592,270.681305 133.992538,269.868683 133.818039,267.760071 
	C133.566772,264.723541 134.516052,261.512024 132.778397,258.383423 
	C129.139130,259.755798 130.029434,262.662842 130.714676,264.663239 
	C132.886932,271.004791 133.065704,270.944733 126.375336,271.066284 
	C125.875969,271.075348 125.375977,271.049896 124.471786,271.021606 
M87.163017,250.439438 
	C85.025291,251.677231 85.476250,253.163406 87.071045,254.308426 
	C88.054237,255.014328 89.537056,254.745850 90.103622,253.553558 
	C91.156853,251.337128 89.747971,250.581970 87.163017,250.439438 
z"/>
<path fill="#000000" opacity="1.000000" stroke="none" 
	d="
M337.044464,286.552795 
	C340.168884,285.315826 343.015747,285.417847 345.793732,285.984985 
	C348.189331,286.474091 350.059662,287.840332 350.615875,290.470062 
	C351.391083,294.135223 350.457916,298.081390 352.819763,301.537628 
	C353.532104,302.580078 352.596710,304.514923 350.937469,304.317963 
	C344.807159,303.590302 337.808868,307.608398 332.777405,300.731049 
	C327.252136,306.138153 321.499908,306.267456 315.445923,302.108887 
	C312.477386,305.807709 308.461060,305.362793 304.644531,304.424652 
	C301.967621,303.766632 302.324554,301.677002 303.659546,299.709198 
	C305.520081,296.966766 305.620026,293.889740 303.898346,291.283173 
	C301.551270,287.729797 303.055847,286.262939 306.306763,285.334442 
	C305.832825,284.002014 305.045380,282.777832 305.039673,281.550018 
	C305.030121,279.493317 306.257690,277.956909 308.465454,278.126068 
	C310.770660,278.302704 312.408234,279.881836 311.744537,282.180695 
	C310.142365,287.730316 313.293152,292.873962 312.071808,298.543030 
	C312.976746,298.184601 313.451935,298.089233 313.454590,297.982117 
	C313.713593,287.555847 319.788513,283.180817 330.275940,286.061371 
	C333.588989,286.971344 332.352203,289.882416 332.114441,291.961060 
	C331.829224,294.454315 329.854675,294.527954 327.938019,293.713409 
	C327.041992,293.332581 326.337860,292.524536 325.481628,292.020782 
	C323.763062,291.009644 322.243103,291.403870 321.126160,292.987122 
	C320.077148,294.474091 319.973999,296.155609 321.005035,297.664948 
	C322.036499,299.174896 323.392334,299.745026 325.312561,298.899902 
	C329.089661,297.237549 329.299072,297.292969 332.432434,297.791412 
	C334.455566,293.531250 338.280151,292.021881 342.986938,291.855499 
	C341.393066,289.719940 339.813507,291.118134 338.314575,291.330139 
	C336.836548,291.539185 335.075439,292.061829 334.295654,290.379150 
	C333.308838,288.249634 335.304199,287.577820 337.044464,286.552795 
z"/>
<path fill="#000000" opacity="1.000000" stroke="none" 
	d="
M125.524948,212.135330 
	C131.304733,208.969055 136.935745,212.535095 142.486389,211.469894 
	C144.287720,211.124207 144.331024,213.533234 144.230347,214.981873 
	C144.088623,217.020676 145.224365,219.576492 142.809204,220.881836 
	C140.963318,221.879471 139.352646,220.964539 138.067230,219.321625 
	C135.675400,216.264603 132.740051,215.280609 129.402817,217.783218 
	C126.327797,220.089233 125.499527,224.923401 127.411591,228.198380 
	C130.472977,233.441925 135.158554,232.727661 139.726898,226.290634 
	C141.592346,225.530670 143.087067,227.591614 144.929047,227.074432 
	C148.593063,219.934799 151.500259,217.966309 157.338287,218.674286 
	C159.756653,218.967575 161.843399,219.941315 163.272614,221.961380 
	C164.644226,223.900009 165.980774,226.164902 164.840332,228.440170 
	C163.659424,230.796127 161.072769,230.008743 158.973694,229.804382 
	C157.011780,229.613358 155.055740,228.996964 152.928986,230.298340 
	C155.322449,236.611572 162.041824,227.346405 164.248230,233.452271 
	C159.308350,240.290512 150.318573,238.988693 144.898193,230.356049 
	C140.920563,238.450226 133.878464,238.259323 126.781181,236.796539 
	C122.177948,235.847824 119.253830,232.469589 118.744507,227.663101 
	C118.086823,221.456589 118.456047,215.512329 125.524948,212.135330 
z"/>
<path fill="#000000" opacity="1.000000" stroke="none" 
	d="
M202.628906,225.647522 
	C201.316391,223.929794 199.587891,222.738632 200.332642,220.607849 
	C201.138443,218.302368 203.315353,218.930130 205.053345,218.777649 
	C208.083344,218.511871 210.940460,220.086075 214.219650,218.880493 
	C216.831253,217.920319 215.876663,221.400330 216.876633,222.651291 
	C221.935059,218.352524 227.865051,217.380859 231.901215,220.141220 
	C235.234406,222.420807 236.626633,227.595505 235.051025,231.848740 
	C233.498627,236.039429 229.785049,238.033569 224.544098,237.490891 
	C218.905060,236.906967 217.088272,234.528992 215.555832,225.665543 
	C213.026245,224.753632 211.465149,225.945801 210.396332,228.121201 
	C209.325073,230.301575 209.608902,231.848618 212.232224,232.718430 
	C213.596115,233.170654 213.281464,234.645432 213.033478,235.785034 
	C212.773178,236.981339 211.748596,237.278442 210.731522,237.284607 
	C204.925873,237.319824 199.114288,237.450089 193.316483,237.233444 
	C190.500443,237.128220 189.469559,235.030731 189.491043,232.332306 
	C189.516800,229.100006 190.018372,226.027542 187.655884,222.924667 
	C185.674988,220.322937 190.493179,214.710327 195.527145,213.375748 
	C196.465393,215.499054 196.186844,218.054337 198.553604,219.815994 
	C200.222061,221.057907 198.884964,222.970459 197.387833,224.407272 
	C195.455872,226.261383 195.876541,228.746811 196.784195,230.909805 
	C197.345367,232.247101 199.031296,232.401428 200.321808,232.113708 
	C203.970749,231.300171 202.713882,228.367035 202.628906,225.647522 
M226.318726,231.662262 
	C227.544601,231.313583 228.250824,230.437790 228.500610,229.258102 
	C228.847595,227.619492 228.946091,225.966232 227.337433,224.843781 
	C226.458344,224.230392 225.477631,224.220566 224.618195,224.892426 
	C223.307236,225.917236 223.213379,227.390854 223.325104,228.892181 
	C223.432922,230.341141 224.136536,231.336060 226.318726,231.662262 
z"/>
<path fill="#000000" opacity="1.000000" stroke="none" 
	d="
M65.514877,281.412781 
	C65.457428,278.770142 66.926933,278.143494 68.787308,278.464355 
	C71.658195,278.959412 74.863968,277.481720 77.371048,279.771973 
	C77.790886,280.155487 77.828667,281.813782 77.470703,282.063873 
	C72.034180,285.861908 75.046494,291.490692 74.302429,296.273926 
	C74.099808,297.576508 74.274811,298.935455 74.244232,300.267761 
	C74.202507,302.086029 74.458740,304.056580 71.970139,304.626923 
	C69.586006,305.173309 67.617767,304.538483 66.357193,302.439270 
	C63.877094,298.309235 61.510826,294.110809 58.564388,290.029327 
	C58.613628,293.315063 56.960163,296.590973 60.003914,299.747742 
	C62.108124,301.930084 61.699448,304.052155 58.161541,304.416534 
	C56.345608,304.603577 54.503788,304.766083 52.689411,304.662903 
	C51.447521,304.592255 49.826092,304.828400 49.204884,303.279999 
	C48.588482,301.743591 49.241493,300.584015 50.338089,299.288269 
	C53.772938,295.229706 53.514587,287.291870 49.965740,283.098969 
	C48.787323,281.706665 48.626949,280.373901 49.967899,279.194519 
	C52.034412,277.376984 60.654877,278.832611 62.163506,281.221619 
	C64.085922,284.265839 65.902100,287.377106 67.898254,290.681610 
	C70.254807,286.445099 67.111794,284.336945 65.514877,281.412781 
z"/>
<path fill="#000000" opacity="1.000000" stroke="none" 
	d="
M280.730408,300.948273 
	C278.441559,295.801880 278.246918,291.252380 282.509308,287.429932 
	C284.055725,286.043152 298.135101,285.175537 299.888489,286.208160 
	C301.336731,287.061035 301.682953,288.752258 300.788483,289.594055 
	C297.161041,293.008057 298.416687,297.287811 298.381256,301.284119 
	C298.295807,310.915955 293.857666,314.449524 284.297211,312.189301 
	C282.904114,311.859955 280.989624,311.596100 281.135620,309.672211 
	C281.293152,307.596222 282.792175,306.482666 284.959808,306.651917 
	C287.232483,306.829376 289.643097,307.598663 291.345978,304.419037 
	C287.480072,304.214722 283.090881,305.887238 280.730408,300.948273 
M286.283691,294.818146 
	C286.267059,296.525635 286.366180,298.329468 288.514526,298.547272 
	C290.211700,298.719360 291.186462,297.469360 291.519073,295.886780 
	C291.845642,294.333069 291.532257,292.825958 290.015137,292.080597 
	C287.983643,291.082520 287.035767,292.433533 286.283691,294.818146 
z"/>
<path fill="#000000" opacity="1.000000" stroke="none" 
	d="
M155.020248,290.053772 
	C155.285080,288.948914 155.229980,287.139435 155.865463,286.850922 
	C160.857758,284.584290 166.176239,286.199249 171.304520,286.272827 
	C175.015564,286.326111 176.321838,290.180695 176.955063,293.573700 
	C178.242950,300.474915 173.933029,305.182404 166.936005,304.599579 
	C166.116379,304.531311 165.283600,304.280609 164.802643,305.259674 
	C164.517685,306.580505 165.599030,306.942017 166.393692,307.466553 
	C167.706390,308.332977 167.976135,309.541107 167.538574,310.933319 
	C167.087280,312.369171 165.785217,312.243927 164.651703,312.308502 
	C163.493851,312.374420 162.330872,312.356720 161.170059,312.362671 
	C154.331543,312.397736 155.237503,312.645782 156.969833,306.350769 
	C158.349335,301.337860 159.813187,295.345398 155.295044,290.193909 
	C154.996841,290.014893 155.020248,290.053772 155.020248,290.053772 
M168.075516,291.672058 
	C164.315994,291.896454 163.944473,294.274506 164.823792,297.136505 
	C165.267960,298.582214 166.469559,299.984863 168.146240,298.900696 
	C170.518478,297.366760 171.216064,295.164398 169.355545,292.648499 
	C169.164886,292.390717 168.891083,292.194427 168.075516,291.672058 
z"/>
<path fill="#000000" opacity="1.000000" stroke="none" 
	d="
M165.812469,270.309998 
	C164.941147,265.453583 168.122025,261.327789 167.071396,256.598572 
	C166.578751,254.381104 167.235336,251.971573 165.842926,249.837143 
	C164.606644,247.942078 164.288620,245.597626 166.971237,245.073975 
	C169.428146,244.594360 172.833282,243.288361 174.004974,247.427353 
	C174.404907,248.840134 173.821991,250.451859 174.813309,251.743042 
	C184.372757,252.311569 187.676193,255.890625 186.230484,264.192871 
	C185.564972,268.014832 183.304260,271.322021 179.460403,270.996124 
	C174.999451,270.617920 170.513275,271.994934 165.812469,270.309998 
M178.888840,259.027710 
	C176.670853,256.884705 175.203873,258.092072 174.480453,260.316254 
	C173.830627,262.314148 174.094482,264.716248 176.525589,265.169739 
	C178.860870,265.605347 179.347916,263.370911 179.572159,261.507416 
	C179.647247,260.883514 179.371307,260.217316 178.888840,259.027710 
z"/>
<path fill="#000000" opacity="1.000000" stroke="none" 
	d="
M263.046234,226.745911 
	C263.190155,228.981598 262.922852,230.711945 264.121399,232.414902 
	C266.718933,236.105713 266.124725,237.123535 261.775574,237.367172 
	C258.645172,237.542526 255.559464,236.946045 252.385590,237.269333 
	C247.400803,237.777100 243.991318,234.164307 243.666199,228.658569 
	C243.347183,223.255936 246.349777,219.216599 251.117249,218.663193 
	C252.401276,218.514145 253.692642,218.428268 255.297989,218.285080 
	C254.896317,215.956284 252.187286,214.001541 254.244888,211.852234 
	C255.604507,210.431976 257.704346,211.098465 259.497314,211.085556 
	C262.356995,211.064957 263.141174,212.878952 263.124420,215.340103 
	C263.099609,218.988190 263.069611,222.636261 263.046234,226.745911 
M250.431030,228.384979 
	C250.840424,230.331467 251.725693,231.874481 254.016113,231.409134 
	C255.532532,231.101044 255.833984,229.666458 255.891449,228.316986 
	C255.956604,226.787338 255.740463,225.165649 254.043411,224.712723 
	C251.687469,224.084000 250.967331,225.865707 250.431030,228.384979 
z"/>
<path fill="#000000" opacity="1.000000" stroke="none" 
	d="
M308.767670,259.234741 
	C307.813385,257.291565 305.251617,256.361633 306.514099,253.884781 
	C307.669983,251.617142 309.914764,252.267914 311.826996,252.162659 
	C312.646362,252.117538 313.478394,252.311508 314.305206,252.391449 
	C324.409271,253.368393 324.404633,253.369049 326.364227,263.363281 
	C326.488861,263.998901 326.594147,264.788116 327.012207,265.189178 
	C328.442566,266.561340 329.743164,268.256378 328.258759,269.909973 
	C326.542450,271.821899 323.914917,271.156464 321.670929,270.651611 
	C319.210693,270.098145 319.830475,267.914459 319.600769,266.163422 
	C319.264648,263.601135 320.761932,260.556580 317.725433,258.313049 
	C315.246124,260.758759 315.849304,263.142395 317.058228,265.603149 
	C319.085419,269.729462 318.453064,270.835968 313.866943,271.013733 
	C312.213959,271.077789 310.522705,271.079315 308.900482,270.804779 
	C306.200592,270.347931 305.407318,268.281708 307.072113,266.498199 
	C309.106201,264.319000 308.878052,262.030060 308.767670,259.234741 
z"/>
<path fill="#000000" opacity="1.000000" stroke="none" 
	d="
M277.882019,291.743195 
	C278.773254,297.086060 278.309113,301.602478 273.108856,303.997284 
	C267.621460,306.524231 261.273773,303.967041 259.448120,298.675476 
	C257.420197,292.797699 260.474518,287.624359 267.638977,285.405121 
	C264.714111,283.510864 266.420135,281.665070 267.520782,279.875244 
	C269.349487,276.901581 271.912079,277.770813 274.524445,278.453094 
	C274.830078,281.679077 270.935822,282.035126 270.743896,285.103699 
	C273.168335,286.843414 276.746826,287.752869 277.882019,291.743195 
M267.203461,292.054901 
	C266.834930,292.935150 266.271637,293.787415 266.140076,294.701752 
	C265.896149,296.397064 266.267456,298.026672 267.923737,298.924225 
	C268.910858,299.459137 269.857697,299.001251 270.505341,298.165771 
	C271.570862,296.791199 271.985931,295.214264 271.284302,293.569000 
	C270.651428,292.085052 269.549408,291.206665 267.203461,292.054901 
z"/>
<path fill="#000000" opacity="1.000000" stroke="none" 
	d="
M175.354126,229.019287 
	C175.377899,229.558487 175.403397,229.724045 175.404739,229.889786 
	C175.424362,232.303574 179.902649,233.637405 177.513855,236.296448 
	C175.471329,238.570038 172.151047,237.267395 169.409622,237.281250 
	C166.066864,237.298141 165.216003,235.571472 167.145432,232.799057 
	C169.275894,229.737732 169.376801,226.926971 167.115143,223.765167 
	C164.955322,220.745773 166.062073,218.963608 169.897476,218.790649 
	C173.195374,218.641922 176.472778,219.166489 179.809967,218.776215 
	C183.150482,218.385559 184.940750,220.480347 185.662903,223.655502 
	C186.449829,227.115585 185.364380,230.858780 187.959976,234.126205 
	C189.102997,235.565094 187.637253,237.357956 185.501678,237.266510 
	C182.933807,237.156570 179.505875,238.651169 178.951920,234.144669 
	C178.581528,231.131363 179.690475,227.903397 178.011215,225.077332 
	C175.157318,225.150742 175.452087,227.031113 175.354126,229.019287 
z"/>
<path fill="#000000" opacity="1.000000" stroke="none" 
	d="
M287.022736,266.027802 
	C286.047180,257.402771 287.255341,255.018265 294.038330,252.181259 
	C293.202484,245.960541 295.809113,243.792450 302.214111,245.425522 
	C302.352936,246.803879 301.218414,247.399429 300.467651,248.219254 
	C299.697479,249.060303 298.900665,249.876984 297.761597,251.077271 
	C303.387970,253.607071 307.147766,257.194977 305.933411,263.717041 
	C305.218018,267.559174 302.725861,269.932617 299.134430,270.927002 
	C294.270050,272.273834 290.311127,270.691040 287.235107,266.234619 
	C287.001343,266.002808 287.022736,266.027802 287.022736,266.027802 
M293.529236,260.828430 
	C293.346802,262.963593 293.818207,264.871582 296.152313,265.393402 
	C297.694000,265.738068 298.522369,264.506042 298.772461,263.105560 
	C299.123718,261.138153 299.335480,258.943024 297.258392,257.889160 
	C295.264923,256.877747 294.391357,258.587982 293.529236,260.828430 
z"/>
<path fill="#000000" opacity="1.000000" stroke="none" 
	d="
M98.602463,298.800720 
	C98.487717,295.483002 99.335869,292.414795 96.300102,290.239594 
	C95.402901,289.596710 95.430466,287.963531 96.273140,287.036804 
	C97.946548,285.196503 100.265190,285.828949 102.363930,285.885193 
	C104.151711,285.933105 104.834366,287.137909 105.130775,288.815277 
	C105.685997,291.957275 104.079643,295.403076 106.464981,298.649841 
	C109.782532,296.576355 109.369995,293.940674 107.680878,291.555695 
	C106.526161,289.925293 105.306244,288.438232 106.814407,286.777252 
	C108.448097,284.978058 110.860992,285.786163 112.954651,285.958893 
	C115.180992,286.142517 115.268677,287.907379 115.366455,289.635651 
	C115.591805,293.618774 114.499718,297.740784 117.918457,301.256317 
	C119.177742,302.551208 117.608177,304.510986 115.607170,304.589447 
	C111.332230,304.757080 107.025810,304.935822 102.773918,304.593292 
	C99.910492,304.362610 98.695381,302.045746 98.602463,298.800720 
z"/>
<path fill="#000000" opacity="1.000000" stroke="none" 
	d="
M163.428940,267.448273 
	C163.584244,269.026672 163.528305,270.568787 162.163467,270.645508 
	C157.109146,270.929657 151.980545,271.770477 147.000000,270.441376 
	C144.186554,269.690613 143.442596,267.175476 143.705399,264.450317 
	C143.972626,261.679291 145.544724,259.818115 148.166443,259.091644 
	C149.832047,258.630127 151.626114,258.632172 154.035385,258.346588 
	C150.736542,255.513397 146.829071,260.200409 144.205750,255.904861 
	C146.585281,251.730957 150.838669,251.779022 155.077194,252.159241 
	C159.250412,252.533569 161.129639,255.249725 161.288574,259.232513 
	C161.399719,262.017365 160.922241,264.913055 163.428940,267.448273 
z"/>
<path fill="#000000" opacity="1.000000" stroke="none" 
	d="
M193.907578,301.800232 
	C189.789093,306.456635 184.800308,305.079895 180.201187,304.294006 
	C177.548019,303.840668 177.708939,299.590790 180.350906,296.500336 
	C178.663925,294.310883 176.383499,292.149750 178.219162,289.047729 
	C179.949478,286.123688 182.895828,285.650940 186.015839,285.705200 
	C193.154114,285.829468 193.219223,285.820831 192.460907,292.520416 
	C192.289612,294.033905 193.613525,294.377228 194.007187,295.399445 
	C194.788712,297.428772 195.730179,299.423859 193.907578,301.800232 
z"/>
<path fill="#000000" opacity="1.000000" stroke="none" 
	d="
M76.471222,293.651215 
	C78.795486,287.488098 81.603355,285.347687 86.760376,285.695892 
	C90.942932,285.978302 93.986214,287.869629 95.290642,292.092682 
	C96.338982,295.486664 95.257080,297.151154 91.604759,297.196350 
	C89.178886,297.226410 86.656403,296.486420 83.926697,297.993622 
	C86.856728,302.761993 92.493988,295.298981 94.926056,300.526367 
	C91.908775,304.639374 87.144073,306.142273 82.330887,304.242401 
	C77.755417,302.436401 75.615158,299.034760 76.471222,293.651215 
z"/>
<path fill="#000000" opacity="1.000000" stroke="none" 
	d="
M276.935425,232.650070 
	C279.247620,231.944427 281.113464,230.237442 283.316406,231.989746 
	C283.998566,232.532349 284.601746,233.264404 284.142792,234.114899 
	C282.909698,236.399872 280.651398,237.126053 278.301331,237.354797 
	C274.069519,237.766708 269.817017,237.806610 267.195801,233.582718 
	C264.976105,230.005859 265.038513,226.291779 267.378540,222.771851 
	C269.906921,218.968689 273.709198,218.171646 277.924652,218.768143 
	C280.140472,219.081680 282.075775,220.141449 283.293182,222.060226 
	C284.537354,224.021194 286.007385,226.299515 284.797424,228.539429 
	C283.593842,230.767487 280.983704,230.040619 278.877289,229.900925 
	C276.941711,229.772568 274.986603,228.893021 273.080414,230.240005 
	C273.208557,232.619186 274.883453,232.684647 276.935425,232.650070 
z"/>
<path fill="#000000" opacity="1.000000" stroke="none" 
	d="
M229.750793,289.946472 
	C234.377884,285.283325 239.308914,284.437744 243.745026,287.245239 
	C247.402634,289.560028 248.884995,294.287415 247.315781,298.632568 
	C245.470169,303.743042 240.726181,306.107025 235.340820,304.599823 
	C230.289780,303.186127 227.569229,298.825165 228.540726,293.582886 
	C228.749008,292.458923 229.207275,291.381287 229.750793,289.946472 
M235.476410,296.815857 
	C237.005096,299.933319 238.782440,300.513824 240.502686,297.065125 
	C241.242798,295.581360 241.072433,293.845947 239.986526,292.415527 
	C239.343170,291.568024 238.426041,291.160522 237.396103,291.568939 
	C235.287933,292.404938 235.323898,294.263611 235.476410,296.815857 
z"/>
<path fill="#000000" opacity="1.000000" stroke="none" 
	d="
M154.981445,289.998322 
	C157.337158,298.881378 153.730225,305.056519 146.061432,304.996643 
	C141.882523,304.964020 138.523682,303.088287 137.180969,299.013397 
	C135.885239,295.081024 135.878174,290.973145 139.403458,288.006531 
	C142.902908,285.061676 146.997910,284.842194 151.075104,286.765930 
	C152.370026,287.376892 153.370026,288.612885 154.762619,289.808319 
	C155.020248,290.053772 154.996841,290.014893 154.981445,289.998322 
M143.342377,295.439972 
	C143.415787,297.461090 144.065430,299.294189 146.377563,299.172821 
	C148.063446,299.084351 148.685974,297.452576 148.797455,295.844696 
	C148.916031,294.134766 148.910324,292.232117 146.953491,291.671204 
	C144.569366,290.987823 143.774582,292.760193 143.342377,295.439972 
z"/>
<path fill="#000000" opacity="1.000000" stroke="none" 
	d="
M209.030121,300.033386 
	C208.397827,295.370087 207.536438,290.668060 212.273514,287.355438 
	C216.578232,284.345154 221.388611,286.015137 225.794342,286.438995 
	C228.420303,286.691681 227.413467,290.407623 226.970016,292.510803 
	C226.506195,294.710632 224.466766,294.355408 222.876587,293.729218 
	C221.508896,293.190582 220.348907,292.087341 218.965866,291.634979 
	C217.494995,291.153900 216.360367,292.191284 215.768082,293.442963 
	C215.021759,295.020203 214.975540,296.732239 216.230057,298.122101 
	C217.322357,299.332275 218.793945,299.944763 220.231003,298.834351 
	C222.645157,296.968903 224.909988,296.431671 227.239105,298.842896 
	C224.746750,306.567963 216.334320,307.319214 209.229355,300.241516 
	C209.005783,300.004333 209.030121,300.033386 209.030121,300.033386 
z"/>
<path fill="#000000" opacity="1.000000" stroke="none" 
	d="
M252.517075,278.531982 
	C254.618515,278.641754 256.846802,278.067444 256.989594,280.835510 
	C257.382843,288.457916 255.925385,296.244904 259.651917,303.316437 
	C257.213654,305.008881 254.965424,304.531769 252.890549,304.766144 
	C251.143631,304.963440 249.016983,305.265442 248.005402,303.294525 
	C247.113144,301.556122 249.165939,300.319489 249.384598,299.051971 
	C250.261154,293.970612 251.490921,288.589844 249.154907,283.683136 
	C247.180923,279.536835 247.095139,279.185089 252.517075,278.531982 
z"/>
<path fill="#000000" opacity="1.000000" stroke="none" 
	d="
M286.989990,265.991180 
	C287.035217,267.959473 287.504242,270.348083 284.716705,270.720367 
	C281.659119,271.128662 278.304901,272.035645 275.675354,269.651093 
	C274.415131,268.508270 275.089020,267.011169 276.279694,265.735931 
	C278.532257,263.323303 278.415253,260.406403 276.484894,258.102142 
	C273.568420,254.620758 274.831543,252.861267 278.487488,251.739120 
	C278.158600,250.403275 277.791382,249.308578 277.636688,248.184631 
	C277.436005,246.726990 278.028534,245.510544 279.400177,244.931473 
	C280.816956,244.333374 282.312012,244.156815 283.615417,245.301468 
	C284.764862,246.310913 284.798065,247.554794 284.420502,248.947372 
	C282.982758,254.250198 285.474457,259.477020 284.828369,264.785706 
	C284.792999,265.076111 285.830566,265.497070 286.695740,265.942505 
	C287.022736,266.027802 287.001343,266.002808 286.989990,265.991180 
z"/>
<path fill="#000000" opacity="1.000000" stroke="none" 
	d="
M133.357758,301.723877 
	C131.673553,304.890503 121.964272,305.888184 120.505165,303.322510 
	C119.632896,301.788727 120.483398,300.730347 121.671478,299.511749 
	C124.133881,296.986053 124.668419,294.020691 121.973358,291.239960 
	C120.769676,289.997986 120.381218,288.732117 121.046265,287.234802 
	C121.701393,285.759796 123.210922,285.707825 124.484825,285.848297 
	C128.272903,286.265961 132.029877,287.197601 135.830399,285.532257 
	C136.827072,288.446228 137.109985,290.602844 134.688431,292.185272 
	C129.007675,295.897614 128.899719,296.574799 133.357758,301.723877 
z"/>
<path fill="#000000" opacity="1.000000" stroke="none" 
	d="
M208.994659,299.989227 
	C207.702042,304.129639 201.303711,306.447144 197.584671,303.989960 
	C195.837845,302.835815 195.995331,301.281128 197.326645,299.782776 
	C199.634903,297.184998 199.327713,294.304993 197.883911,291.543213 
	C195.556122,287.090546 195.566422,286.862640 200.330750,285.135315 
	C199.621658,283.516693 198.253922,282.019714 199.273254,280.051483 
	C200.153244,278.352325 201.480515,277.525635 203.347977,278.297028 
	C205.569931,279.214874 205.918625,280.868439 205.418961,283.176239 
	C204.347778,288.123779 205.846588,293.077881 205.773941,298.048737 
	C205.752533,299.513733 207.325516,299.541748 208.714355,299.963684 
	C209.030121,300.033386 209.005783,300.004333 208.994659,299.989227 
z"/>
</svg>