<svg xmlns="http://www.w3.org/2000/svg" xml:space="preserve" viewBox="0 0 400 400"><path d="M182.696 169.922c-3.092.449-5.273 2.126-7.654 3.262-10.455 4.988-21.006 2.636-31.556.6-.691-.133-1.251-.948-1.983-1.534 1.034-2.968 3.39-2.642 5.41-2.386 13.282 1.679 24.89-2.957 35.914-9.549 4.35-2.602 4.266-6.296.222-9.39-7.042-5.39-8.475-15.46-3.135-23.31 4.468-6.566 10.13-12.283 17.155-15.704 11.254-5.482 22.706-3.843 33.304 2.381 5.548 3.258 11.422 5.408 17.538 6.937 7.773 1.942 14.929-1.27 17.286-7.315 2.348-6.024-1.345-15.46-7.265-19.156-10.414-6.505-21.85-5.237-33.03-3.918-9.002 1.062-18.045 2.139-26.778 5.392-8.334 3.103-17.13-.38-25.743-.34-2.908.014-5.547.024-8.437 1.65 5.8 6.77 10.944 13.754 4.405 22.603-3.107 4.204-10.109 5.187-16.16 2.505-9.34-4.139-8.06-12.194-6.857-20.749-7.055 8.047-6.035 16.618-3.063 24.775 1.49 4.092 3.043 7.902 3.268 12.315.274 5.396.706 10.89 6.038 14.282-2.948 2.4-3.735-1.126-6.142-.357-1.176 1.629-2.636 3.78-4.228 5.827-3.868 4.976-11.75 6.043-16.822 2.337-5.24-3.829-4.786-11.515.997-14.488 4.631-2.38 9.476-4.055 14.946-1.537.557-3.442.325-6.176-.713-9.148-2.676-7.663-5.238-15.36-4.954-23.736.375-11.048 6.428-17.817 17.422-18.455 2.464-.143 4.49-1.204 6.629-2.002 8.186-3.055 16.427-1.55 24.66-.527 2.974.37 5.899.734 9.716-.107-8.654-7.205-15.533-14.628-7.242-25.658 3.855-5.129 9.435-6.392 15.642-3.2 9.078 4.669 11.632 9.471 9.21 23.886 5.463 1.737 10.72-.41 16.037-.892 10.988-.996 21.942-1.553 32.273 3.519 8.826 4.333 13.618 13.608 12.216 23.62-1.03 7.353-7.11 12.95-16.36 14.631-5.964 1.084-11.567-.917-16.939-3.139-5.375-2.222-10.589-4.861-15.769-7.52-8.98-4.612-17.391-3.446-25.35 2.29-5.297 3.817-10.134 8.089-13.203 14.071-1.467 2.861-1.649 5.8-1.023 8.745.967 4.546 4.076 5.94 8.147 3.956 5.53-2.696 8.169-2.094 11.54 3.352 1.45 2.341 2.924 1.507 4.656 1.042 7.755-2.082 15.09-5.272 22.27-8.77 6.494-3.165 13.189-5.43 20.4-5.998 6.422-.506 12.224 1.342 17.304 5.206 4.936 3.754 5.095 9.294 4.21 14.595-.774 4.64-3.863 8.002-8.61 9.45-.792.242-1.55.617-2.353.802-6.98 1.616-13.156 3.118-14.742 12.348-1.199 6.978-4.622 13.515-1.88 20.81.299.796.343 1.626-.292 2.337-3.939-1.072-6.275-6.64-4.947-12.607 1.047-4.704 2.502-9.319 3.798-13.967.443-1.588 1.135-3.126.79-5.115-5.07-1.434-11.023-.9-14.944-5.505-4.059-4.767-4.229-9.894-.602-15.999-4.001 1.8-7.234 3.254-10.469 4.706-4.12 1.851-8.279 3.537-12.94 3.314-1.532-.073-2.984.3-4.229 1.253-.83.634-1.439 1.435-1.2 2.55.256 1.194 1.228 1.483 2.275 1.51 2.83.074 5.663.13 8.495.154 18.104.151 26.522 8.35 27.067 26.553.175 5.817.045 11.643.045 17.465 0 1.67.016 3.311.818 4.87.661 1.284 1.773 2.848-.29 3.795-1.646.755-2.937-.451-3.82-1.645-2.238-3.029-3.717-6.615-3.083-10.26 1.059-6.084-.07-11.957-.994-17.8-1.929-12.191-6.823-16.128-19.21-16.356-5.8-.107-11.694.45-17.16-2.192-1.714-.827-2.892.326-4.132 1.022-1.877 1.054-3.638 2.314-5.8 3.613m62.85-18.776c1.302 2.863 2.89 5.61 3.274 8.826.281 2.362 1.887 3.152 3.94 2.522 3.63-1.114 7.364-2.032 10.306-4.745 4.376-4.035 4.603-8.809.363-12.97-2.939-2.883-6.38-4.56-10.675-4.63-6.615-.109-12.89.91-18.966 4.479 4.552.81 8.176 2.916 11.758 6.518M193.879 83.71c1.198.578 2.366 1.23 3.599 1.72 5.227 2.08 7.31.884 8.163-4.714.806-5.286-1.067-9.509-5.392-12.569-4.975-3.519-11.049-.728-11.863 5.339-.59 4.402 2.042 7.147 5.493 10.224m-42.701 22.862c-1.267 2.872-.696 5.509 1.098 7.939 2.511 3.402 7.087 4.281 10.914 2.233 4.29-2.295 1.7-5.358.91-8.162-.354-1.256-.972-2.487-1.695-3.58-3.997-6.053-7.773-5.749-11.227 1.57m84.041 43.622c-5.431.756-6.984 3.25-5.056 8.03 1.901 4.714 6.134 5.082 10.29 5.545 2.814.314 3.546-1.367 3.106-3.725-.844-4.517-3.022-8.064-8.34-9.85m-108.599 6.83c5.86 3.413 12.553.468 13.672-5.98.192-1.105.054-2.063-.963-2.537-3.325-1.549-6.715-1.768-9.846.38-2.603 1.784-5.362 3.695-2.863 8.137"/><path d="M108.777 119.843c.748-1.338 1.107-2.588 1.926-3.333 5.33-4.845 5.371-10.665 4.429-17.335-1.279-9.05 6.45-19.91 15.98-23.68 2.31-.913 3.802-2.251 5.16-4.324 6.705-10.236 16.414-14.657 28.486-13.703 3.106.245 5.244-.136 7.274-2.83 9.254-12.285 25.152-13.407 35.853-2.438 2.631 2.697 4.78 3.62 8.612 2.733 20.274-4.688 36.94 1.804 50.509 17.147 1.106 1.25 2.173 2.37 4.073 2.56 9.178.923 16.05 5.84 21.711 12.795 1.26 1.547 2.627 3.007 3.967 4.486 7.194 7.942 7.75 17.382 1.087 25.736-1.907 2.391-1.227 4.201-.296 6.37 5.489 12.785-6.077 22.76-15.624 26.303-.971.36-2.024.146-2.583-.913-.598-1.134.112-1.902.915-2.542 1.948-1.555 3.967-3.022 5.887-4.61 6.799-5.623 8.216-10.111 4.615-17.87-1.917-4.132-1.712-6.8 1.82-9.899 4.034-3.537 4.288-8.858 1.634-13.676-3.943-7.155-10.016-12.394-16.05-17.61-2.529-2.186-5.805-2.506-8.987-1.25-3.072 1.213-4.871.338-6.36-2.65C258 69.65 249.21 65.255 239.512 61.97c-9.255-3.134-18.007-2.344-26.581 2.2-3.103 1.643-5.148.504-6.783-2.657-6.166-11.92-21.627-12.485-28.751-1.158-.435.69-.822 1.445-1.055 2.222-1.976 6.573-2.175 6.972-8.34 3.685-9.687-5.166-23.18 3.268-25.2 11.828-.635 2.698-2.115 3.793-4.695 4.343-5.398 1.151-9.861 3.753-12.807 8.716-2.063 3.476-3.08 6.764-1.45 10.817 2.03 5.054.36 9.485-2.831 13.778-5.446 7.326-10.584 15.171-12.95 23.876-1.529 5.63-1.956 12.205.287 18.327 2.781 7.592 8.089 12.81 14.897 16.74 1.507.869 3.688.712 4.395 3.048-1.822 2.543-4.151 1.381-6.202.597-11.502-4.4-22.231-17.34-21.051-34.013.634-8.961 3.38-16.814 8.381-24.477M214.535 245.714c2.103-1.428 3.98-1.856 5.588.067 1.796 2.149.091 4.025-.786 6.035 2.762 2.587 3.967.346 5.454-1.492 1.454-1.797 3.126-3.423 5.595-3.803 2.484 7.61 2.788 7.776 10.563 5.888 8.18-1.986 11.94.918 12.309 9.462.04.919-.462 2.017 1.078 3.023-.402-4.867.268-9.027 4.812-11.58 4.158-2.337 8.547-.967 12.69-.698 2.893.187 2.17 3.62 1.673 5.858-.53 2.396-2.445 2.504-4.343 1.924-.91-.278-1.629-1.13-2.497-1.608-1.702-.937-3.255-.669-4.38.947-.896 1.29-1.32 2.758-.31 4.19 1.085 1.536 2.647 2.256 4.33 1.22 2.49-1.53 4.791-2.356 7.098.168-1.71 5.475-6.912 7.624-13.185 5.232-2.067-.788-3.505-1.244-5.81.084-2.72 1.566-6.267-.399-9.313.235-5.197 1.08-10.123-2.122-15.67.11-3.37 1.355-4.914-2.669-4.872-6.326.034-2.903 1.28-6.501-3.271-8.085-.232 3.519-.911 6.62 1.2 9.78 1.71 2.562.52 4.61-2.682 4.638-9.659.086-19.322.17-28.977-.064-4.099-.099-4.678-1.795-2.255-5.349 1.694-2.483 1.914-5.45.166-7.398-3.584-3.992-1.457-5.305 2.255-6.354-.434-1.326-1.12-2.546-1.179-3.794-.118-2.513 1.486-3.624 3.838-3.465 2.176.147 3.53 1.502 2.992 3.676-1.148 4.637.138 9.265-.262 13.886-.152 1.742.106 3.496 2.459 3.518 2.17.02 3.006-1.457 2.78-3.315-.542-4.437 1.862-9.352-2.201-13.26-.886-.853-.807-2.348.06-3.227 1.736-1.762 4.059-1.035 6.168-1.002 1.86.029 2.617 1.238 2.634 2.967.038 3.997-.038 7.997.105 11.989.073 2.021-.908 4.53 1.772 5.712 1.136.502 2.585.333 3.075-.857.901-2.187 1.405-4.938-.285-6.63-3.245-3.247-1.61-4.787 1.536-6.284.252-1.922-1.557-3.805.048-6.018m28.127 11.49c-2.062.61-4.076 1.133-6.287.407-1.769-.581-4.048-.756-4.624 1.428-.557 2.115-1.544 4.835 2.122 7.004 1.39-5.609 5.15-7.851 10.472-7.94.405-.007-.583-.702-1.683-.899M124.472 271.022c-2.598.384-3.482-1.454-4.643-2.744-5.672 4.166-11.232 4.128-16.878.184-2.793 3.298-6.62 3.843-9.55 1.355-2.62-2.226-3.977-5.939-5.959-9.102-1.762 2.975-1.897 3.122.232 5.07 1.214 1.111 1.365 2.242 1.07 3.544-.377 1.674-1.846 1.686-3.197 1.714q-2.249.043-4.498.025c-6.82-.05-7.07-.482-3.74-6.396 1.364-2.42.515-12.398-1.482-14.608-1.064-1.178-1.24-2.342-.855-3.632.478-1.597 1.976-1.618 3.3-1.632 4.165-.045 8.345-.246 12.492.024 7.228.472 10.252 6.327 6.207 12.3-2.783 4.108.421 5.774 2.296 8.487 2.51-1.94 1.552-4.566 2.198-6.646 1.364-4.398 5.47-7.31 10.28-6.935 4.411.343 8.007 3.601 8.623 7.688.399 2.643-.112 4.201-3.306 3.92-2.61-.228-5.255-.046-8.154-.046.133 2.447 1.626 3.587 3.2 2.757 2.912-1.533 5.66-1.37 8.648-.75 1.22.253 2.605-.465 2.606-1.762.003-4.67 1.891-9.614-1.417-13.88-1.058-1.365-1.665-2.752-.631-4.027 1.586-1.955 4.014-1.036 6.106-1.105 1.454-.048 2.542.53 2.805 2.205.254 1.613-.32 3.355.697 4.841 8.808.457 9.638 1.295 9.941 10.252.045 1.333-.187 2.637.94 3.712 1.165 1.11 1.954 2.626.85 3.988-1.43 1.765-3.649 1.255-5.606 1.049-1.805-.19-3.054-1.003-3.229-3.112-.251-3.036.698-6.248-1.04-9.377-3.639 1.373-2.749 4.28-2.063 6.28 2.172 6.342 2.35 6.282-4.34 6.403-.499.01-.999-.016-1.903-.044m-37.309-20.583c-2.138 1.238-1.687 2.724-.092 3.87.983.705 2.466.437 3.033-.755 1.053-2.217-.356-2.972-2.941-3.115M337.044 286.553c3.125-1.237 5.972-1.135 8.75-.568 2.395.49 4.266 1.855 4.822 4.485.775 3.665-.158 7.611 2.204 11.068.712 1.042-.223 2.977-1.883 2.78-6.13-.728-13.128 3.29-18.16-3.587-5.525 5.407-11.277 5.536-17.331 1.378-2.969 3.699-6.985 3.254-10.801 2.316-2.677-.658-2.32-2.748-.985-4.716 1.86-2.742 1.96-5.82.238-8.426-2.347-3.553-.842-5.02 2.409-5.949-.474-1.332-1.262-2.556-1.267-3.784-.01-2.057 1.218-3.593 3.425-3.424 2.306.177 3.943 1.756 3.28 4.055-1.603 5.55 1.548 10.693.327 16.362.905-.358 1.38-.454 1.383-.56.259-10.427 6.334-14.802 16.82-11.922 3.314.91 2.077 3.821 1.84 5.9-.286 2.493-2.26 2.567-4.177 1.752-.896-.38-1.6-1.188-2.456-1.692-1.719-1.011-3.239-.617-4.356.966-1.049 1.487-1.152 3.169-.121 4.678 1.031 1.51 2.387 2.08 4.308 1.235 3.777-1.662 3.986-1.607 7.12-1.109 2.023-4.26 5.847-5.77 10.554-5.936-1.594-2.135-3.173-.737-4.672-.525-1.478.21-3.24.732-4.02-.95-.986-2.13 1.01-2.802 2.75-3.827M125.525 212.135c5.78-3.166 11.41.4 16.961-.665 1.802-.346 1.845 2.063 1.744 3.512-.141 2.039.994 4.594-1.42 5.9-1.847.997-3.457.083-4.743-1.56-2.392-3.057-5.327-4.041-8.664-1.539-3.075 2.306-3.903 7.14-1.991 10.415 3.061 5.244 7.747 4.53 12.315-1.907 1.865-.76 3.36 1.3 5.202.783 3.664-7.14 6.571-9.108 12.41-8.4 2.418.294 4.504 1.267 5.934 3.287 1.371 1.939 2.708 4.204 1.567 6.48-1.18 2.355-3.767 1.568-5.866 1.363-1.962-.19-3.918-.807-6.045.494 2.393 6.314 9.113-2.952 11.32 3.154-4.94 6.839-13.93 5.537-19.35-3.096-3.978 8.094-11.02 7.903-18.118 6.44-4.603-.948-7.527-4.326-8.036-9.133-.658-6.206-.289-12.15 6.78-15.528M202.629 225.648c-1.313-1.718-3.041-2.91-2.296-5.04.805-2.306 2.982-1.678 4.72-1.83 3.03-.266 5.887 1.308 9.167.102 2.611-.96 1.657 2.52 2.657 3.771 5.058-4.298 10.988-5.27 15.024-2.51 3.333 2.28 4.726 7.455 3.15 11.708-1.552 4.19-5.266 6.185-10.507 5.642-5.639-.584-7.456-2.962-8.988-11.825-2.53-.912-4.09.28-5.16 2.455-1.07 2.18-.787 3.728 1.836 4.597 1.364.453 1.05 1.927.801 3.067-.26 1.196-1.284 1.493-2.301 1.5-5.806.035-11.618.165-17.416-.052-2.816-.105-3.846-2.202-3.825-4.9.026-3.233.527-6.305-1.835-9.408-1.981-2.602 2.837-8.215 7.871-9.55.938 2.124.66 4.68 3.027 6.441 1.668 1.242.331 3.154-1.166 4.591-1.932 1.854-1.511 4.34-.604 6.503.561 1.337 2.247 1.491 3.538 1.204 3.649-.814 2.392-3.747 2.307-6.466m23.69 6.014c1.226-.348 1.932-1.224 2.182-2.404.347-1.639.445-3.292-1.164-4.414-.879-.614-1.86-.623-2.719.048-1.31 1.025-1.405 2.499-1.293 4 .108 1.45.812 2.444 2.994 2.77M65.515 281.413c-.058-2.643 1.412-3.27 3.272-2.949 2.871.495 6.077-.982 8.584 1.308.42.383.458 2.042.1 2.292-5.437 3.798-2.425 9.427-3.169 14.21-.202 1.303-.027 2.661-.058 3.994-.041 1.818.215 3.789-2.274 4.359-2.384.546-4.352-.089-5.613-2.188-2.48-4.13-4.846-8.328-7.793-12.41.05 3.286-1.604 6.562 1.44 9.719 2.104 2.182 1.695 4.304-1.842 4.669-1.816.187-3.658.35-5.473.246-1.241-.07-2.863.165-3.484-1.383-.617-1.536.036-2.696 1.133-3.992 3.435-4.058 3.177-11.996-.372-16.189-1.179-1.392-1.34-2.725.002-3.904 2.066-1.818 10.687-.362 12.196 2.027 1.922 3.044 3.738 6.155 5.734 9.46 2.357-4.237-.786-6.345-2.383-9.27M280.73 300.948c-2.288-5.146-2.483-9.696 1.78-13.518 1.546-1.387 15.625-2.254 17.378-1.222 1.449.853 1.795 2.544.9 3.386-3.627 3.414-2.371 7.694-2.407 11.69-.085 9.632-4.523 13.166-14.084 10.905-1.393-.329-3.307-.593-3.161-2.517.157-2.076 1.656-3.19 3.824-3.02 2.272.177 4.683.947 6.386-2.233-3.866-.204-8.255 1.468-10.616-3.47m5.554-6.13c-.017 1.707.082 3.51 2.23 3.728 1.698.172 2.672-1.078 3.005-2.66.327-1.554.013-3.061-1.504-3.806-2.031-.998-2.98.353-3.731 2.737M155.02 290.054c.265-1.105.21-2.915.845-3.203 4.993-2.267 10.311-.652 15.44-.578 3.71.053 5.017 3.908 5.65 7.3 1.288 6.902-3.022 11.61-10.019 11.027-.82-.069-1.652-.32-2.133.66-.285 1.32.796 1.682 1.59 2.207 1.313.866 1.583 2.074 1.146 3.466-.452 1.436-1.754 1.31-2.887 1.376-1.158.065-2.321.048-3.482.054-6.838.035-5.932.283-4.2-6.012 1.38-5.013 2.843-11.006-1.675-16.157-.298-.18-.275-.14-.275-.14m13.056 1.618c-3.76.224-4.132 2.603-3.252 5.465.444 1.445 1.646 2.848 3.322 1.764 2.372-1.534 3.07-3.737 1.21-6.253-.191-.257-.465-.454-1.28-.976"/><path d="M165.812 270.31c-.87-4.856 2.31-8.982 1.26-13.711-.493-2.218.163-4.627-1.23-6.762-1.235-1.895-1.553-4.24 1.13-4.763 2.456-.48 5.861-1.786 7.033 2.353.4 1.413-.183 3.025.808 4.316 9.56.569 12.863 4.148 11.417 12.45-.665 3.822-2.926 7.129-6.77 6.803-4.46-.378-8.947.999-13.648-.686m13.077-11.282c-2.218-2.143-3.685-.936-4.409 1.288-.65 1.998-.386 4.4 2.046 4.854 2.335.435 2.822-1.8 3.046-3.663.075-.623-.2-1.29-.683-2.48M263.046 226.746c.144 2.236-.123 3.966 1.075 5.669 2.598 3.69 2.004 4.709-2.345 4.952-3.13.176-6.217-.421-9.39-.098-4.985.508-8.395-3.105-8.72-8.61-.319-5.403 2.684-9.442 7.451-9.996 1.284-.149 2.576-.235 4.181-.378-.402-2.329-3.11-4.283-1.053-6.433 1.36-1.42 3.46-.754 5.252-.766 2.86-.021 3.644 1.793 3.627 4.254-.024 3.648-.054 7.296-.078 11.406m-12.615 1.639c.41 1.946 1.295 3.49 3.585 3.024 1.517-.308 1.818-1.743 1.875-3.092.066-1.53-.15-3.151-1.848-3.604-2.356-.629-3.076 1.153-3.612 3.672M308.768 259.235c-.955-1.943-3.516-2.873-2.254-5.35 1.156-2.268 3.4-1.617 5.313-1.722.82-.045 1.651.149 2.478.228 10.104.977 10.1.978 12.06 10.972.124.636.23 1.425.647 1.826 1.43 1.372 2.731 3.067 1.247 4.721-1.717 1.912-4.344 1.246-6.588.742-2.46-.554-1.84-2.738-2.07-4.489-.336-2.562 1.16-5.606-1.876-7.85-2.479 2.446-1.876 4.83-.667 7.29 2.027 4.126 1.395 5.233-3.191 5.41-1.653.065-3.344.066-4.967-.208-2.7-.457-3.493-2.523-1.828-4.307 2.034-2.179 1.806-4.468 1.696-7.263M277.882 291.743c.891 5.343.427 9.86-4.773 12.254-5.488 2.527-11.835-.03-13.66-5.322-2.029-5.877 1.026-11.05 8.19-13.27-2.925-1.894-1.219-3.74-.118-5.53 1.828-2.973 4.391-2.104 7.003-1.422.306 3.226-3.588 3.582-3.78 6.65 2.424 1.74 6.003 2.65 7.138 6.64m-10.679.312c-.368.88-.931 1.732-1.063 2.647-.244 1.695.127 3.325 1.784 4.222.987.535 1.934.077 2.581-.758 1.066-1.375 1.48-2.952.78-4.597-.634-1.484-1.736-2.362-4.082-1.514M175.354 229.02c.024.538.05.704.05.87.02 2.414 4.499 3.747 2.11 6.406-2.043 2.274-5.363.971-8.104.985-3.343.017-4.194-1.71-2.265-4.482 2.13-3.061 2.232-5.872-.03-9.034-2.16-3.02-1.053-4.801 2.782-4.974 3.298-.15 6.576.375 9.913-.015 3.34-.39 5.13 1.704 5.853 4.88.787 3.46-.299 7.203 2.297 10.47 1.143 1.44-.323 3.232-2.458 3.14-2.568-.11-5.996 1.385-6.55-3.121-.37-3.014.738-6.242-.94-9.068-2.855.074-2.56 1.954-2.658 3.942"/><path d="M287.023 266.028c-.976-8.625.232-11.01 7.015-13.847-.836-6.22 1.771-8.389 8.176-6.755.139 1.378-.996 1.973-1.746 2.793-.77.841-1.567 1.658-2.706 2.858 5.626 2.53 9.386 6.118 8.171 12.64-.715 3.842-3.207 6.216-6.799 7.21-4.864 1.347-8.823-.236-11.899-4.692-.234-.232-.212-.207-.212-.207m6.506-5.2c-.182 2.136.29 4.044 2.623 4.565 1.542.345 2.37-.887 2.62-2.287.352-1.968.563-4.163-1.514-5.217-1.993-1.011-2.867.699-3.729 2.94M98.602 298.8c-.114-3.317.734-6.385-2.302-8.56-.897-.643-.87-2.276-.027-3.203 1.674-1.84 3.992-1.208 6.09-1.152 1.789.048 2.471 1.253 2.768 2.93.555 3.142-1.051 6.588 1.334 9.835 3.318-2.074 2.905-4.71 1.216-7.094-1.155-1.63-2.375-3.118-.867-4.779 1.634-1.799 4.047-.99 6.14-.818 2.227.184 2.315 1.948 2.412 3.677.226 3.983-.866 8.105 2.552 11.62 1.26 1.295-.31 3.255-2.31 3.333-4.276.168-8.582.347-12.834.004-2.864-.23-4.079-2.547-4.172-5.792M163.429 267.448c.155 1.579.1 3.12-1.266 3.198-5.054.284-10.182 1.124-15.163-.205-2.813-.75-3.557-3.266-3.295-5.99.268-2.772 1.84-4.633 4.461-5.36 1.666-.46 3.46-.459 5.87-.744-3.3-2.834-7.207 1.853-9.83-2.442 2.38-4.174 6.633-4.126 10.871-3.746 4.173.375 6.053 3.09 6.212 7.074.11 2.784-.367 5.68 2.14 8.215M193.908 301.8c-4.119 4.657-9.108 3.28-13.707 2.494-2.653-.453-2.492-4.703.15-7.794-1.687-2.19-3.968-4.35-2.132-7.452 1.73-2.924 4.677-3.397 7.797-3.343 7.138.124 7.203.116 6.445 6.815-.171 1.514 1.153 1.857 1.546 2.88.782 2.029 1.723 4.024-.1 6.4M76.471 293.651c2.324-6.163 5.132-8.303 10.29-7.955 4.182.282 7.225 2.174 8.53 6.397 1.048 3.394-.034 5.058-3.686 5.103-2.426.03-4.949-.71-7.678.798 2.93 4.768 8.567-2.695 11 2.532-3.018 4.113-7.783 5.616-12.596 3.716-4.576-1.806-6.716-5.207-5.86-10.59M276.935 232.65c2.313-.706 4.178-2.413 6.381-.66.683.542 1.286 1.274.827 2.125-1.233 2.285-3.492 3.011-5.842 3.24-4.231.412-8.484.452-11.105-3.772-2.22-3.577-2.157-7.291.183-10.811 2.528-3.803 6.33-4.6 10.546-4.004 2.215.314 4.15 1.373 5.368 3.292 1.244 1.961 2.714 4.24 1.504 6.48-1.203 2.227-3.813 1.5-5.92 1.36-1.935-.127-3.89-1.007-5.797.34.129 2.38 1.803 2.445 3.855 2.41M229.75 289.946c4.628-4.663 9.559-5.508 13.995-2.7 3.658 2.314 5.14 7.041 3.57 11.387-1.845 5.11-6.589 7.474-11.974 5.967-5.051-1.414-7.772-5.775-6.8-11.017.208-1.124.666-2.202 1.21-3.637m5.725 6.87c1.53 3.117 3.306 3.698 5.027.25.74-1.485.57-3.22-.516-4.65-.644-.848-1.561-1.255-2.59-.847-2.11.836-2.073 2.695-1.92 5.247M154.981 289.998c2.356 8.883-1.25 15.059-8.92 14.999-4.178-.033-7.537-1.909-8.88-5.984-1.296-3.932-1.303-8.04 2.222-11.006 3.5-2.945 7.595-3.165 11.672-1.241 1.295.61 2.295 1.847 3.688 3.042.257.246.234.207.218.19m-11.639 5.442c.074 2.021.723 3.854 3.036 3.733 1.685-.089 2.308-1.72 2.42-3.328.118-1.71.112-3.613-1.845-4.174-2.384-.683-3.178 1.09-3.61 3.769M209.03 300.033c-.632-4.663-1.494-9.365 3.244-12.678 4.304-3.01 9.115-1.34 13.52-.916 2.626.253 1.62 3.969 1.176 6.072-.464 2.2-2.503 1.844-4.093 1.218-1.368-.538-2.528-1.642-3.911-2.094-1.471-.481-2.606.556-3.198 1.808-.746 1.577-.792 3.29.462 4.68 1.092 1.21 2.564 1.822 4.001.711 2.414-1.865 4.679-2.402 7.008.009-2.492 7.725-10.905 8.476-18.01 1.399-.223-.238-.199-.209-.199-.209"/><path d="M252.517 278.532c2.102.11 4.33-.465 4.473 2.304.393 7.622-1.065 15.409 2.662 22.48-2.438 1.693-4.687 1.216-6.761 1.45-1.747.197-3.874.5-4.886-1.471-.892-1.739 1.16-2.976 1.38-4.243.876-5.081 2.106-10.462-.23-15.369-1.974-4.146-2.06-4.498 3.362-5.151M286.99 265.991c.045 1.968.514 4.357-2.273 4.73-3.058.408-6.412 1.315-9.042-1.07-1.26-1.143-.586-2.64.605-3.915 2.252-2.413 2.135-5.33.205-7.634-2.917-3.481-1.653-5.24 2.002-6.363-.328-1.336-.696-2.43-.85-3.554-.201-1.458.392-2.674 1.763-3.254 1.417-.598 2.912-.774 4.215.37 1.15 1.01 1.183 2.254.806 3.646-1.438 5.303 1.053 10.53.407 15.839-.035.29 1.003.711 1.868 1.157.327.085.305.06.294.048M133.358 301.724c-1.684 3.167-11.394 4.164-12.853 1.599-.872-1.534-.022-2.593 1.166-3.811 2.463-2.526 2.997-5.491.302-8.272-1.203-1.242-1.592-2.508-.927-4.005.655-1.475 2.165-1.527 3.439-1.387 3.788.418 7.545 1.35 11.345-.316.997 2.914 1.28 5.07-1.142 6.653-5.68 3.713-5.788 4.39-1.33 9.539M208.995 299.99c-1.293 4.14-7.691 6.457-11.41 4-1.747-1.154-1.59-2.709-.258-4.207 2.308-2.598 2-5.478.557-8.24-2.328-4.452-2.318-4.68 2.447-6.408-.71-1.618-2.077-3.115-1.058-5.084.88-1.699 2.208-2.525 4.075-1.754 2.222.918 2.57 2.571 2.071 4.88-1.071 4.947.428 9.9.355 14.872-.021 1.465 1.552 1.493 2.94 1.915.316.07.292.04.28.025"/></svg>