<svg viewBox="0 0 190 42" fill="none" 
  xmlns="http://www.w3.org/2000/svg">
  <g clip-path="url(#clip0_16_16)">
    <path d="M183.369 30.1649L181.711 32.9221V34.9231H180.749V32.9189L179.093 30.1649H180.135L181.233 32.093L182.317 30.1649H183.369Z" fill="#082233"/>
    <path d="M176.875 30.1649H177.837V34.9231H176.971L174.706 31.6491V34.9231H173.747V30.1649H174.699L176.875 33.3138V30.1649Z" fill="#082233"/>
    <path d="M167.948 34.9231L169.655 30.1649H170.671L172.375 34.9231H171.415L171.026 33.8209H169.313L168.914 34.9231H167.948ZM169.526 32.982H170.796L170.166 31.0931L169.526 32.982Z" fill="#082233"/>
    <path d="M163.791 34.9231V30.1649H165.545C165.892 30.1649 166.202 30.2248 166.477 30.3455C166.752 30.4641 166.968 30.6393 167.126 30.8722C167.287 31.105 167.367 31.389 167.367 31.7241C167.367 32.0397 167.298 32.3095 167.156 32.5337C167.015 32.7578 166.818 32.9286 166.563 33.0472C166.31 33.1658 166.013 33.2246 165.67 33.2246H164.76V34.9231H163.791ZM164.75 32.4814H165.643C165.885 32.4814 166.083 32.4042 166.237 32.2508C166.391 32.0952 166.467 31.9026 166.467 31.6752C166.467 31.4478 166.386 31.2508 166.224 31.1126C166.061 30.9723 165.863 30.9015 165.63 30.9015H164.75V32.4814Z" fill="#082233"/>
    <path d="M157.079 34.9231V30.1649H158.477L159.568 33.5576L160.669 30.1649H162.064V34.9231H161.09V31.2835L159.944 34.9231H159.188L158.048 31.2998V34.9231H157.079Z" fill="#082233"/>
    <path d="M153.387 34.9895C152.937 34.9895 152.546 34.8915 152.216 34.6968C151.889 34.4998 151.635 34.2191 151.455 33.8578C151.277 33.4933 151.188 33.0592 151.188 32.5543C151.188 32.0495 151.278 31.611 151.459 31.2443C151.641 30.8776 151.897 30.5958 152.226 30.3988C152.556 30.1986 152.943 30.0996 153.387 30.0996C153.83 30.0996 154.213 30.1986 154.54 30.3956C154.868 30.5936 155.121 30.8754 155.298 31.241C155.478 31.6077 155.569 32.0451 155.569 32.5543C155.569 33.0635 155.479 33.4901 155.302 33.8546C155.126 34.2191 154.874 34.4998 154.547 34.6968C154.219 34.8926 153.832 34.9895 153.387 34.9895ZM153.387 34.1995C153.62 34.1995 153.82 34.1451 153.989 34.0352C154.162 33.9231 154.293 33.7479 154.385 33.5086C154.478 33.267 154.523 32.9536 154.523 32.5674C154.523 32.1811 154.477 31.8492 154.382 31.6033C154.29 31.3574 154.158 31.1779 153.986 31.0636C153.817 30.9472 153.618 30.8896 153.387 30.8896C153.156 30.8896 152.955 30.9483 152.784 31.0636C152.612 31.1779 152.479 31.3585 152.385 31.6066C152.29 31.8525 152.243 32.1724 152.243 32.5674C152.243 32.9624 152.29 33.2692 152.385 33.5086C152.479 33.7479 152.612 33.9231 152.784 34.0352C152.955 34.1451 153.156 34.1995 153.387 34.1995Z" fill="#082233"/>
    <path d="M147.956 30.0986C148.313 30.0986 148.632 30.1715 148.911 30.3162C149.193 30.4587 149.419 30.6546 149.59 30.9016C149.764 31.1497 149.866 31.4293 149.897 31.7405H148.889C148.857 31.5762 148.801 31.4304 148.72 31.3031C148.639 31.1736 148.532 31.0724 148.4 31.0006C148.268 30.9255 148.11 30.8885 147.926 30.8885C147.704 30.8885 147.513 30.9418 147.352 31.0496C147.192 31.1573 147.068 31.3303 146.983 31.5697C146.897 31.809 146.855 32.1246 146.855 32.5174C146.855 33.1093 146.948 33.5391 147.138 33.8035C147.329 34.0668 147.592 34.1985 147.926 34.1985C148.11 34.1985 148.268 34.1571 148.4 34.0733C148.532 33.9874 148.639 33.8764 148.72 33.7382C148.801 33.5978 148.857 33.4444 148.889 33.278H149.897C149.868 33.5043 149.814 33.7197 149.732 33.9264C149.65 34.131 149.535 34.3127 149.386 34.4727C149.236 34.6326 149.044 34.7588 148.809 34.8513C148.574 34.9438 148.289 34.9895 147.956 34.9895C147.512 34.9895 147.128 34.8861 146.805 34.6805C146.482 34.4748 146.232 34.1843 146.057 33.8122C145.882 33.439 145.796 33.0038 145.796 32.5054C145.796 32.0071 145.882 31.5762 146.057 31.2182C146.23 30.8581 146.479 30.5817 146.801 30.3891C147.125 30.1965 147.51 30.0997 147.956 30.0997V30.0986Z" fill="#082233"/>
    <path d="M142.859 30.1649L141.201 32.9221V34.9231H140.239V32.9189L138.584 30.1649H139.625L140.722 32.093L141.807 30.1649H142.859Z" fill="#082233"/>
    <path d="M133.667 31.0201V30.1649H137.481V31.0201H136.074V34.9231H135.108V31.0201H133.667Z" fill="#082233"/>
    <path d="M131.387 30.1649H132.346V34.9231H131.387V30.1649Z" fill="#082233"/>
    <path d="M129.837 34.9231H128.839L128.064 33.0897H127.098V34.9231H126.139V30.1649H128.15C128.529 30.1649 128.841 30.2248 129.082 30.3455C129.324 30.4663 129.503 30.6339 129.616 30.8493C129.731 31.0626 129.788 31.3074 129.788 31.586C129.788 31.8362 129.748 32.0473 129.669 32.2214C129.592 32.3922 129.49 32.5348 129.363 32.649C129.238 32.7633 129.101 32.8557 128.95 32.9286L129.837 34.9231ZM127.978 32.3498C128.235 32.3498 128.439 32.2812 128.588 32.1431C128.74 32.0049 128.815 31.8275 128.815 31.6099C128.815 31.3923 128.743 31.2171 128.598 31.0898C128.453 30.9625 128.269 30.8994 128.048 30.8994H127.098V32.3509H127.978V32.3498Z" fill="#082233"/>
    <path d="M124.522 33.1104C124.522 33.4944 124.46 33.8274 124.334 34.1103C124.209 34.391 124.005 34.6086 123.724 34.7621C123.445 34.9133 123.074 34.9895 122.613 34.9895C122.152 34.9895 121.778 34.9122 121.499 34.7588C121.22 34.6032 121.018 34.3823 120.892 34.0972C120.769 33.8122 120.708 33.4716 120.708 33.0766V30.1649H121.687V33.1495C121.687 33.5053 121.773 33.7643 121.944 33.9297C122.115 34.0918 122.339 34.1734 122.613 34.1734C122.795 34.1734 122.957 34.1386 123.098 34.0679C123.239 33.995 123.348 33.8851 123.427 33.736C123.509 33.5848 123.549 33.3889 123.549 33.1506V30.166H124.522V33.1114V33.1104Z" fill="#082233"/>
    <path d="M117.259 30.0986C117.617 30.0986 117.936 30.1715 118.215 30.3162C118.496 30.4587 118.722 30.6546 118.894 30.9016C119.067 31.1497 119.17 31.4293 119.2 31.7405H118.191C118.161 31.5762 118.105 31.4304 118.023 31.3031C117.943 31.1736 117.836 31.0724 117.704 31.0006C117.572 30.9255 117.414 30.8885 117.229 30.8885C117.008 30.8885 116.816 30.9418 116.655 31.0496C116.495 31.1573 116.372 31.3303 116.286 31.5697C116.201 31.809 116.157 32.1246 116.157 32.5174C116.157 33.1093 116.252 33.5391 116.441 33.8035C116.633 34.0668 116.895 34.1985 117.229 34.1985C117.414 34.1985 117.572 34.1571 117.704 34.0733C117.836 33.9874 117.943 33.8764 118.023 33.7382C118.105 33.5978 118.161 33.4444 118.191 33.278H119.2C119.172 33.5043 119.117 33.7197 119.036 33.9264C118.954 34.131 118.839 34.3127 118.689 34.4727C118.54 34.6326 118.348 34.7588 118.113 34.8513C117.877 34.9438 117.593 34.9895 117.259 34.9895C116.815 34.9895 116.431 34.8861 116.108 34.6805C115.786 34.4748 115.536 34.1843 115.36 33.8122C115.186 33.439 115.1 33.0038 115.1 32.5054C115.1 32.0071 115.186 31.5762 115.36 31.2182C115.534 30.8581 115.782 30.5817 116.105 30.3891C116.428 30.1965 116.812 30.0997 117.259 30.0997V30.0986Z" fill="#082233"/>
    <path d="M110.5 34.9231V30.1649H113.773L113.769 30.9745H111.465V32.1289H113.466V32.9221H111.459V34.1038L113.806 34.107V34.9231H110.5Z" fill="#082233"/>
    <path d="M107.066 34.9895C106.831 34.9895 106.601 34.9601 106.374 34.9002C106.147 34.8415 105.941 34.7523 105.754 34.6337C105.567 34.5151 105.413 34.3671 105.29 34.1897C105.169 34.0124 105.097 33.8035 105.072 33.5641H106.057C106.09 33.7088 106.153 33.8307 106.244 33.9297C106.337 34.0287 106.454 34.1038 106.594 34.1571C106.735 34.2093 106.891 34.2365 107.062 34.2365C107.233 34.2365 107.399 34.2148 107.542 34.1701C107.687 34.1266 107.804 34.0602 107.892 33.9721C107.981 33.8818 108.024 33.7708 108.024 33.637C108.024 33.5162 107.988 33.4172 107.915 33.341C107.844 33.2638 107.75 33.2017 107.629 33.1539C107.508 33.106 107.37 33.0657 107.217 33.0353L106.393 32.8677C106.032 32.8002 105.746 32.6577 105.536 32.4401C105.324 32.2203 105.216 31.9287 105.21 31.5653C105.208 31.2671 105.287 31.0093 105.448 30.7916C105.61 30.5718 105.83 30.4032 106.107 30.2846C106.386 30.166 106.698 30.1072 107.043 30.1072C107.454 30.1072 107.8 30.1725 108.079 30.3009C108.36 30.4282 108.574 30.6012 108.718 30.821C108.866 31.0386 108.942 31.2802 108.946 31.5479H107.981C107.963 31.3814 107.913 31.2486 107.829 31.1496C107.745 31.0506 107.638 30.9799 107.506 30.9353C107.377 30.8917 107.229 30.87 107.062 30.87C106.934 30.87 106.818 30.8841 106.712 30.9124C106.608 30.9407 106.521 30.981 106.448 31.0343C106.376 31.0843 106.32 31.1453 106.28 31.2149C106.241 31.2856 106.221 31.364 106.221 31.4521C106.221 31.5903 106.267 31.7024 106.36 31.7872C106.452 31.8732 106.625 31.9428 106.878 31.9972L107.695 32.1648C107.987 32.2214 108.219 32.3063 108.39 32.4183C108.564 32.5304 108.693 32.6566 108.78 32.797C108.868 32.9373 108.924 33.081 108.951 33.2279C108.979 33.3726 108.993 33.5064 108.993 33.6294C108.993 33.8862 108.911 34.1179 108.749 34.3236C108.589 34.5281 108.364 34.6902 108.077 34.811C107.789 34.9296 107.452 34.9884 107.067 34.9884L107.066 34.9895Z" fill="#082233"/>
    <path d="M102.121 30.1649L100.463 32.9221V34.9231H99.501V32.9189L97.8464 30.1649H98.8884L99.986 32.093L101.07 30.1649H102.122H102.121Z" fill="#082233"/>
    <path d="M92.9307 31.0201V30.1649H96.7444V31.0201H95.3373V34.9231H94.3716V31.0201H92.9307Z" fill="#082233"/>
    <path d="M90.6506 30.1649H91.6098V34.9231H90.6506V30.1649Z" fill="#082233"/>
    <path d="M85.5181 31.0201V30.1649H89.3318V31.0201H87.9247V34.9231H86.959V31.0201H85.5181Z" fill="#082233"/>
    <path d="M83.2368 30.1649H84.1992V34.9231H83.3327L81.0678 31.6491V34.9231H80.1086V30.1649H81.0613L83.2368 33.3138V30.1649Z" fill="#082233"/>
    <path d="M75.23 34.9231V30.1649H78.5031L78.4998 30.9745H76.1957V32.1289H78.1968V32.9221H76.1891V34.1038L78.5358 34.107V34.9231H75.23Z" fill="#082233"/>
    <path d="M69.824 30.1649H70.4169C70.5684 30.1649 70.7188 30.166 70.8681 30.1682C71.0196 30.1682 71.1461 30.1693 71.2474 30.1714C71.8251 30.1845 72.2971 30.2879 72.6622 30.4805C73.0273 30.6731 73.2944 30.9429 73.4633 31.29C73.6344 31.6371 73.7205 32.0473 73.7205 32.5206C73.7205 32.9939 73.6301 33.4411 73.4502 33.8013C73.2704 34.1593 72.9946 34.4356 72.6229 34.6304C72.2535 34.8252 71.7848 34.9231 71.2158 34.9231H69.8251V30.1649H69.824ZM70.7929 30.9418V34.1473H71.2344C71.5068 34.1473 71.7543 34.0951 71.9755 33.9895C72.2 33.884 72.3788 33.7121 72.5129 33.4727C72.6469 33.2333 72.7145 32.9145 72.7145 32.5152C72.7145 32.1441 72.6546 31.8438 72.5368 31.6132C72.418 31.3803 72.2491 31.2106 72.0289 31.1028C71.8088 30.9951 71.5483 30.9418 71.2474 30.9418H70.7929Z" fill="#082233"/>
    <path d="M67.1394 30.1649H68.0986V34.9231H67.1394V30.1649Z" fill="#082233"/>
    <path d="M60.2368 34.9231V30.1649H63.5099L63.5066 30.9745H61.2025V32.1289H63.2036V32.9221H61.196V34.1038L63.5426 34.107V34.9231H60.2368Z" fill="#082233"/>
    <path d="M57.549 32.8797H55.4628V34.9231H54.5037V30.1649H55.4628V32.0734H57.549V30.1649H58.5114V34.9231H57.549V32.8797Z" fill="#082233"/>
    <path d="M49.3733 31.0201V30.1649H53.187V31.0201H51.7799V34.9231H50.8142V31.0201H49.3733Z" fill="#082233"/>
    <path d="M36.7301 10.982L36.0227 10.5783L18.2359 0.318787L0.255127 10.6947V31.3531L0.503634 31.4924L18.2359 41.6823L35.4396 31.7948L36.4652 31.2051V19.6965L35.4396 20.2862L27.2301 25.0052V16.4376L36.7137 10.9896L36.729 10.982H36.7301ZM18.7885 12.131L26.2208 16.43V25.0052L18.7885 20.7138V12.1299V12.131ZM17.7084 1.80946V10.9504L9.76379 15.5443L1.80939 10.982L17.7073 1.80837L17.7084 1.80946ZM17.7084 12.131V20.7138L10.2772 25.0052V16.43L17.7084 12.131ZM1.2982 11.8666L9.25043 16.43V25.595L1.29711 30.1888V11.8666H1.2982ZM1.83445 31.0658L9.76379 26.4796L17.7247 31.0582L17.74 40.2003L1.83336 31.0658H1.83445ZM18.2446 30.166H18.237L10.7818 25.8898L18.213 21.5984L18.2446 21.6137L18.2762 21.5984L25.7075 25.8898L24.8519 26.3784L18.2523 30.1736H18.2446V30.166ZM27.7522 25.8898L35.4483 21.4581V30.6001L34.6559 31.0582L18.7504 40.1927L18.7656 31.0506L27.7522 25.8822V25.8898ZM26.7342 15.5454L18.7896 10.9515V1.80837L34.6875 10.9809L26.7353 15.5443L26.7342 15.5454Z" fill="#082233"/>
    <path d="M18.2456 41.9924L0 31.5076V10.5316L18.2456 0L37.2761 10.9809L27.52 16.5922V24.5384L36.7551 19.2308V31.3683L18.2456 42V41.9924ZM0.543882 31.1899L0.652876 31.2519L18.2533 41.3635L36.2188 31.0419V20.1622L26.9837 25.4709V16.2745L36.1959 10.982L18.2533 0.628912L0.543882 10.8493V31.1899ZM18.4854 40.6736L18.5007 30.9026L35.7272 20.9924V30.7623L18.4854 40.6649V40.6725V40.6736ZM19.0446 31.2138L19.0293 39.727L35.1834 30.4456V21.9249L19.0446 31.2062V31.2138ZM18.0102 40.6736L1.29049 31.0659L9.76371 26.1684L17.9961 30.9026L18.0113 40.6736H18.0102ZM2.37826 31.0659L17.4674 39.7346L17.4522 31.2214L9.76371 26.806L2.37826 31.0746V31.0669V31.0659ZM1.02564 30.6622V11.3998L9.52283 16.281V25.756L1.02564 30.6698V30.6622ZM1.57061 12.3389V29.7221L8.97895 25.4383V16.5911L1.57061 12.3389ZM18.2533 30.4826H18.238L10.2389 25.8888L18.2151 21.2873L26.2535 25.8888L18.2544 30.4826H18.2533ZM18.238 29.8537H18.2456L25.1646 25.8877L18.238 21.8988L11.3267 25.8877L18.238 29.8613V29.8537ZM10.0057 25.4764V16.2723L17.9819 11.6621V20.8738L10.0057 25.4753V25.4764ZM10.5419 16.5824V24.5287L17.4293 20.555V12.6033L10.5419 16.5846V16.5824ZM26.4943 25.4764L18.5181 20.8749V11.6642L26.4943 16.2745V25.4785V25.4764ZM19.0631 20.5561L25.9505 24.5297V16.5835L19.0631 12.6022V20.5571V20.5561ZM26.7363 15.861L18.5192 11.1115V1.34269L35.2324 10.9885L26.7352 15.8697V15.8621L26.7363 15.861ZM19.0631 10.7938L26.7363 15.2332L34.1446 10.9798L19.0609 2.28171V10.7949L19.0631 10.7938ZM9.76589 15.861L1.2676 10.9809L17.9808 1.33508V11.105L9.76371 15.8545V15.8621L9.76589 15.861ZM2.35537 10.9809L9.76371 15.2342L17.4369 10.7949V2.28171L2.35537 10.9809Z" fill="#082233"/>
    <path d="M138.013 7.9223H141.233L148.037 23.8888H144.388L142.934 20.3341H136.217L134.763 23.8888H131.201L138.005 7.9223H138.013ZM141.686 17.2548L139.579 12.1125L137.472 17.2548H141.686Z" fill="#082233"/>
    <path d="M150.947 8.04095H158.205C160.224 8.04095 161.79 8.60458 162.831 9.65241C163.714 10.5338 164.19 11.7796 164.19 13.279V13.3269C164.19 15.8817 162.807 17.4931 160.788 18.2385L164.667 23.8965H160.581L157.18 18.826H154.437V23.8965H150.947V8.04095ZM157.974 15.7381C159.676 15.7381 160.653 14.8339 160.653 13.4999V13.452C160.653 11.9602 159.611 11.191 157.911 11.191H154.437V15.7457H157.974V15.7381Z" fill="#082233"/>
    <path d="M168.483 8.04095H171.973V14.9688L178.412 8.04095H182.633L176.17 14.762L182.927 23.8878H178.73L173.809 17.1428L171.973 19.0469V23.8954H168.483V8.04095Z" fill="#082233"/>
    <path d="M188.18 9.21495C188.18 9.4293 188.029 9.57946 187.743 9.57946H187.178V8.83303H187.727C188.005 8.83303 188.172 8.96034 188.172 9.20625M188.752 9.18231C188.752 8.65024 188.363 8.34122 187.759 8.34122H186.63V10.8808H187.194V10.0637H187.639L188.18 10.8808H188.831L188.211 9.9679C188.537 9.8493 188.761 9.59469 188.761 9.17469M189.722 9.67412C189.722 10.8482 188.807 11.8013 187.607 11.8013C186.407 11.8013 185.502 10.8569 185.502 9.68283C185.502 8.50878 186.407 7.55562 187.615 7.55562C188.823 7.55562 189.722 8.50008 189.722 9.6665M190 9.67412C190 8.37277 188.959 7.2934 187.615 7.2934C186.271 7.2934 185.223 8.38039 185.223 9.68174C185.223 10.9831 186.265 12.0625 187.607 12.0625C188.95 12.0625 190 10.9755 190 9.67412Z" fill="#082233"/>
    <path d="M57.4902 23.9183C52.919 23.9183 49.4683 20.4037 49.4683 15.7435C49.4683 11.0832 52.9659 7.47406 57.608 7.47406C60.6663 7.47406 62.3677 8.61981 63.607 9.77209L62.1323 11.4782C60.6424 10.1507 59.2309 9.55883 57.5764 9.55883C54.3381 9.55883 51.8988 12.1811 51.8988 15.6564C51.8988 19.1318 54.3926 21.8487 57.5764 21.8487C59.5917 21.8487 60.917 21.0435 62.2577 19.8184L63.7084 21.3036C61.8577 23.1675 60.0462 23.9335 57.4739 23.9335L57.4892 23.9172L57.4902 23.9183Z" fill="#082233"/>
    <path d="M71.7957 23.9345V17.6073L65.3955 7.84833H68.1661L73.0088 15.4878L77.907 7.84833H80.573L74.1968 17.4637L74.1728 23.9356H71.7957V23.9345Z" fill="#082233"/>
    <path d="M83.578 23.9345V7.84723H90.8632C92.6965 7.84723 94.1483 8.32707 95.0736 9.23889C95.7799 9.93526 96.12 10.7753 96.12 11.7991C96.12 13.3986 95.4061 14.5194 93.8649 15.3028L93.248 15.6151L93.9052 15.8316C96.0873 16.5671 97.0606 17.727 97.0606 19.6072C97.0606 22.3187 94.8295 23.9345 91.0975 23.9345H83.5769H83.578ZM85.9061 21.927H91.1302C93.394 21.927 94.6834 20.9913 94.6834 19.3515C94.6834 17.7118 93.345 16.776 90.9111 16.776H85.9061V21.9281V21.927ZM85.9061 14.8719H90.2626C92.4774 14.8719 93.7428 13.9438 93.7428 12.3203C93.7428 10.784 92.5177 9.86453 90.4741 9.86453H85.9061V14.8719Z" fill="#082233"/>
    <path d="M100.435 23.9345V7.84723H111.749V9.88738H102.687V14.799H110.719V16.8391H102.687V21.9031H111.864V23.9345H100.435Z" fill="#082233"/>
    <path d="M126.517 23.9345L122.647 18.1274H118.762V23.9345H116.548V7.84723H123.29C125.134 7.84723 126.638 8.39127 127.643 9.43148C128.444 10.303 128.867 11.4716 128.867 12.823C128.867 15.2386 127.605 16.9425 125.307 17.6389L124.929 17.751L129.102 23.9345H126.517ZM118.762 16.1112H123.085C125.225 16.1112 126.6 14.9034 126.6 13.0319C126.6 11.0636 125.307 9.92764 123.063 9.92764H118.762V16.1112Z" fill="#082233"/>
    <path d="M186.531 30.2541C186.531 30.352 186.462 30.4206 186.331 30.4206H186.074V30.08H186.324C186.451 30.08 186.527 30.1377 186.527 30.2498M186.792 30.2389C186.792 29.9962 186.614 29.8548 186.339 29.8548H185.823V31.0136H186.081V30.6404H186.284L186.531 31.0136H186.828L186.545 30.5969C186.694 30.5425 186.796 30.4271 186.796 30.2345M187.235 30.463C187.235 30.9984 186.817 31.4336 186.269 31.4336C185.721 31.4336 185.308 31.0027 185.308 30.4663C185.308 29.9299 185.722 29.4957 186.274 29.4957C186.825 29.4957 187.235 29.9266 187.235 30.4587M187.361 30.4619C187.361 29.8678 186.886 29.376 186.274 29.376C185.661 29.376 185.181 29.8722 185.181 30.4663C185.181 31.0604 185.657 31.5522 186.269 31.5522C186.882 31.5522 187.361 31.056 187.361 30.4619Z" fill="#082233"/>
  </g>
  <defs>
    <clipPath id="clip0_16_16">
      <rect width="190" height="42" fill="white"/>
    </clipPath>
  </defs>
</svg>
