<svg xmlns="http://www.w3.org/2000/svg" fill="none" viewBox="0 0 190 42"><g fill="#082233" clip-path="url(#a)"><path d="m183.369 30.165-1.658 2.757v2.001h-.962V32.92l-1.656-2.754h1.042l1.098 1.928 1.084-1.928zM176.875 30.165h.962v4.758h-.866l-2.265-3.274v3.274h-.959v-4.758h.952l2.176 3.149zM167.948 34.923l1.707-4.758h1.016l1.704 4.758h-.96l-.389-1.102h-1.713l-.399 1.102zm1.578-1.941h1.27l-.63-1.889zM163.791 34.923v-4.758h1.754q.52 0 .932.18.412.179.649.527.241.35.241.852.001.473-.211.81a1.36 1.36 0 0 1-.593.513q-.379.178-.893.178h-.91v1.698zm.959-2.442h.893q.363 0 .594-.23a.79.79 0 0 0 .23-.576.71.71 0 0 0-.243-.562.88.88 0 0 0-.594-.212h-.88zM157.079 34.923v-4.758h1.398l1.091 3.393 1.101-3.393h1.395v4.758h-.974v-3.64l-1.146 3.64h-.756l-1.14-3.623v3.623zM153.387 34.99q-.675-.001-1.171-.293a2 2 0 0 1-.761-.84q-.267-.546-.267-1.303 0-.759.271-1.31a2 2 0 0 1 .767-.845q.495-.3 1.161-.3.663 0 1.153.297.492.297.758.845.27.55.271 1.313c0 .51-.09.936-.267 1.3a1.94 1.94 0 0 1-.755.843q-.492.293-1.16.292m0-.79q.349 0 .602-.165.259-.168.396-.526.139-.362.138-.942c0-.386-.046-.718-.141-.964q-.138-.368-.396-.54a1.03 1.03 0 0 0-.599-.173q-.346 0-.603.174-.258.17-.399.543-.142.367-.142.96c0 .395.047.702.142.942q.141.358.399.526.257.165.603.165M147.956 30.099q.536 0 .955.217.423.215.679.586.26.372.307.838h-1.008a1.3 1.3 0 0 0-.169-.437.85.85 0 0 0-.32-.302.94.94 0 0 0-.474-.113q-.333 0-.574.162-.24.16-.369.52-.129.359-.128.947-.001.889.283 1.286a.92.92 0 0 0 .788.396.87.87 0 0 0 .474-.126 1 1 0 0 0 .32-.335q.121-.21.169-.46h1.008a2.7 2.7 0 0 1-.165.648 1.8 1.8 0 0 1-.346.547q-.225.24-.577.378-.353.14-.853.139-.666 0-1.151-.31a2.02 2.02 0 0 1-.748-.868q-.262-.559-.261-1.307 0-.748.261-1.287.26-.54.744-.829.486-.289 1.155-.29M142.859 30.165l-1.658 2.757v2.001h-.962V32.92l-1.655-2.754h1.041l1.097 1.928 1.085-1.928zM133.667 31.02v-.855h3.814v.855h-1.407v3.903h-.966V31.02zM131.387 30.165h.959v4.758h-.959zM129.837 34.923h-.998l-.775-1.833h-.966v1.833h-.959v-4.758h2.011q.57 0 .932.18.364.181.534.504.172.32.172.737 0 .374-.119.635-.115.257-.306.428a1.7 1.7 0 0 1-.413.28zm-1.859-2.573q.386 0 .61-.207a.69.69 0 0 0 .227-.533.66.66 0 0 0-.217-.52.8.8 0 0 0-.55-.19h-.95v1.45zM124.522 33.11q0 .576-.188 1a1.36 1.36 0 0 1-.61.652q-.419.227-1.111.227c-.461 0-.835-.077-1.114-.23a1.38 1.38 0 0 1-.607-.662q-.184-.427-.184-1.02v-2.912h.979v2.985q0 .532.257.78.257.243.669.243.273 0 .485-.105a.76.76 0 0 0 .329-.332q.122-.227.122-.585v-2.985h.973v2.945M117.259 30.099q.537 0 .956.217.421.215.679.586.26.372.306.838h-1.009a1.2 1.2 0 0 0-.168-.437.84.84 0 0 0-.319-.302.95.95 0 0 0-.475-.113q-.332 0-.574.162-.24.16-.369.52-.128.359-.129.947 0 .889.284 1.286a.92.92 0 0 0 .788.396.87.87 0 0 0 .475-.126 1 1 0 0 0 .319-.335q.123-.21.168-.46h1.009a2.7 2.7 0 0 1-.164.648 1.7 1.7 0 0 1-.347.547q-.224.24-.576.378a2.3 2.3 0 0 1-.854.139q-.666 0-1.151-.31a2.04 2.04 0 0 1-.748-.868q-.26-.559-.26-1.307t.26-1.287a1.9 1.9 0 0 1 .745-.829q.484-.289 1.154-.29M110.5 34.923v-4.758h3.273l-.004.81h-2.304v1.154h2.001v.793h-2.007v1.182l2.347.003v.816zM107.066 34.99q-.352 0-.692-.09a2.2 2.2 0 0 1-.62-.266 1.6 1.6 0 0 1-.464-.444 1.34 1.34 0 0 1-.218-.626h.985a.8.8 0 0 0 .187.366.9.9 0 0 0 .35.227q.212.079.468.08c.171 0 .337-.022.48-.067a.8.8 0 0 0 .35-.198.46.46 0 0 0 .132-.335.4.4 0 0 0-.109-.296.76.76 0 0 0-.286-.187 2.4 2.4 0 0 0-.412-.119l-.824-.167q-.542-.102-.857-.428-.317-.33-.326-.875a1.25 1.25 0 0 1 .238-.773 1.56 1.56 0 0 1 .659-.507 2.4 2.4 0 0 1 .936-.178q.617.001 1.036.194.422.19.639.52.222.327.228.727h-.965a.7.7 0 0 0-.152-.398.7.7 0 0 0-.323-.215 1.4 1.4 0 0 0-.444-.065q-.191 0-.35.042a.8.8 0 0 0-.264.122.6.6 0 0 0-.168.18.5.5 0 0 0-.059.238q0 .207.139.335.138.129.518.21l.817.168q.438.084.695.253.26.168.39.379.131.21.171.43.042.219.042.402 0 .386-.244.695-.24.306-.672.487a2.6 2.6 0 0 1-1.01.177zM102.121 30.165l-1.658 2.757v2.001h-.962V32.92l-1.655-2.754h1.042l1.098 1.928 1.084-1.928h1.052zM92.93 31.02v-.855h3.814v.855h-1.407v3.903h-.965V31.02zM90.65 30.165h.96v4.758h-.96zM85.518 31.02v-.855h3.814v.855h-1.407v3.903h-.966V31.02zM83.237 30.165h.962v4.758h-.866l-2.265-3.274v3.274h-.96v-4.758h.953l2.176 3.149zM75.23 34.923v-4.758h3.273l-.003.81h-2.304v1.154h2v.793H76.19v1.182l2.347.003v.816zM69.824 30.165h.593q.227 0 .451.003.228 0 .38.003.867.02 1.414.31.547.288.801.809.257.52.258 1.23c0 .474-.09.921-.27 1.281q-.27.537-.828.83-.554.291-1.407.292h-1.39v-4.758zm.969.777v3.205h.441a1.7 1.7 0 0 0 .742-.157q.336-.159.537-.517.201-.36.201-.958 0-.555-.177-.902a1.1 1.1 0 0 0-.508-.51 1.76 1.76 0 0 0-.782-.161zM67.14 30.165h.959v4.758h-.96zM60.237 34.923v-4.758h3.273l-.003.81h-2.304v1.154h2v.793h-2.007v1.182l2.347.003v.816zM57.549 32.88h-2.086v2.043h-.96v-4.758h.96v1.908h2.086v-1.908h.962v4.758h-.962zM49.373 31.02v-.855h3.814v.855H51.78v3.903h-.966V31.02zM36.73 10.982l-.707-.404L18.236.318.256 10.696v20.658l.248.14 17.732 10.19 17.204-9.888 1.025-.59V19.697l-1.025.59-8.21 4.718v-8.567l9.484-5.448zM18.79 12.131l7.432 4.299v8.575l-7.433-4.291V12.13zm-1.08-10.322v9.141l-7.945 4.594-7.955-4.562 15.898-9.174zm0 10.322v8.583l-7.432 4.291V16.43zm-16.41-.264L9.25 16.43v9.165l-7.953 4.594V11.867zm.535 19.199 7.93-4.586 7.96 4.578.016 9.142zm16.41-.9h-.007l-7.455-4.276 7.431-4.292.032.016.031-.016 7.432 4.292-.856.488-6.6 3.796h-.007zm9.508-4.276 7.696-4.432V30.6l-.792.458-15.906 9.135.016-9.142 8.986-5.169zm-1.018-10.345-7.944-4.594V1.808l15.898 9.173-7.953 4.563z"/><path d="M18.246 41.992 0 31.508V10.532L18.246 0l19.03 10.98-9.756 5.612v7.946l9.235-5.307v12.137L18.245 42zM.544 31.19l.109.062 17.6 10.112L36.22 31.042v-10.88l-9.235 5.309v-9.196l9.212-5.293L18.253.629.543 10.849zm17.941 9.484.016-9.771 17.226-9.91v9.77l-17.242 9.902v.008m.56-9.46-.016 8.513 16.154-9.281v-8.521l-16.138 9.281zm-1.035 9.46L1.29 31.066l8.474-4.898 8.232 4.735.015 9.77M2.378 31.066l15.09 8.669-.016-8.514-7.688-4.415-7.386 4.269zm-1.352-.404V11.4l8.497 4.881v9.475L1.026 30.67zM1.57 12.34v17.383l7.408-4.284v-8.847zm16.682 18.144h-.015l-8-4.594 7.977-4.602 8.038 4.602-7.999 4.594m-.015-.63h.008l6.919-3.965-6.927-3.99-6.911 3.99 6.911 3.973zm-8.232-4.377v-9.204l7.976-4.61v9.212zm.536-8.894v7.947l6.887-3.974v-7.952l-6.887 3.982zm15.952 8.894-7.976-4.601v-9.21l7.976 4.61v9.204zm-7.43-4.92 6.887 3.974v-7.946l-6.888-3.982v7.955m7.672-4.695-8.217-4.75V1.343l16.713 9.646-8.497 4.88v-.007zm-7.673-5.067 7.673 4.44 7.409-4.254L19.06 2.282v8.513zM9.766 15.86l-8.498-4.88L17.98 1.335v9.77l-8.217 4.75v.007zm-7.41-4.88 7.408 4.253 7.673-4.44V2.283zM138.013 7.922h3.22l6.804 15.967h-3.649l-1.454-3.555h-6.717l-1.454 3.555h-3.562l6.804-15.967zm3.673 9.333-2.107-5.142-2.107 5.142zM150.947 8.041h7.258c2.019 0 3.585.564 4.626 1.611.883.882 1.359 2.128 1.359 3.627v.048c0 2.555-1.383 4.166-3.402 4.911l3.879 5.659h-4.086l-3.401-5.071h-2.743v5.07h-3.49zm7.027 7.697c1.702 0 2.679-.904 2.679-2.238v-.048c0-1.492-1.042-2.261-2.742-2.261h-3.474v4.555h3.537zM168.483 8.041h3.49v6.928l6.439-6.928h4.221l-6.463 6.721 6.757 9.126h-4.197l-4.921-6.745-1.836 1.904v4.848h-3.49zM188.18 9.215c0 .214-.151.364-.437.364h-.565v-.746h.549c.278 0 .445.127.445.373m.58-.024c0-.532-.389-.84-.993-.84h-1.129v2.539h.564v-.817h.445l.541.817h.651l-.62-.913c.326-.119.55-.373.55-.793m.961.5c0 1.173-.915 2.126-2.115 2.126s-2.105-.944-2.105-2.118.905-2.127 2.113-2.127 2.107.944 2.107 2.11m.278.008a2.374 2.374 0 0 0-2.385-2.38 2.387 2.387 0 0 0-2.392 2.388 2.375 2.375 0 0 0 2.384 2.38A2.39 2.39 0 0 0 190 9.675M57.49 23.918c-4.571 0-8.022-3.514-8.022-8.174s3.498-8.27 8.14-8.27c3.058 0 4.76 1.146 5.999 2.298l-1.475 1.706c-1.49-1.327-2.901-1.92-4.556-1.92-3.238 0-5.677 2.623-5.677 6.098 0 3.476 2.494 6.193 5.677 6.193 2.016 0 3.341-.805 4.682-2.03l1.45 1.485c-1.85 1.864-3.662 2.63-6.234 2.63zM71.796 23.935v-6.328l-6.4-9.759h2.77l4.843 7.64 4.898-7.64h2.666l-6.376 9.616-.024 6.472zM83.578 23.935V7.846h7.285c1.834 0 3.285.48 4.21 1.392.707.696 1.047 1.536 1.047 2.56 0 1.6-.714 2.72-2.255 3.504l-.617.312.657.217c2.182.735 3.156 1.895 3.156 3.775 0 2.712-2.232 4.328-5.964 4.328h-7.52zm2.328-2.008h5.224c2.264 0 3.553-.936 3.553-2.575s-1.338-2.576-3.772-2.576h-5.005v5.152zm0-7.055h4.357c2.214 0 3.48-.928 3.48-2.552 0-1.536-1.225-2.455-3.269-2.455h-4.568zM100.435 23.935V7.846h11.314v2.04h-9.062V14.8h8.032v2.04h-8.032v5.064h9.177v2.032zM126.517 23.935l-3.87-5.808h-3.885v5.808h-2.214V7.846h6.742c1.844 0 3.348.544 4.353 1.584.801.872 1.224 2.04 1.224 3.392 0 2.416-1.262 4.12-3.56 4.816l-.378.112 4.173 6.183zm-7.755-7.824h4.323c2.14 0 3.515-1.208 3.515-3.08 0-1.967-1.293-3.103-3.537-3.103h-4.301zM186.531 30.254c0 .098-.069.167-.2.167h-.257v-.341h.25c.127 0 .203.058.203.17m.265-.011c0-.243-.178-.384-.453-.384h-.516v1.159h.258v-.374h.203l.247.374h.297l-.283-.417a.36.36 0 0 0 .251-.363m.439.229a.96.96 0 0 1-.966.97.95.95 0 0 1-.961-.967c0-.536.414-.97.966-.97a.95.95 0 0 1 .961.963m.126.003a1.09 1.09 0 0 0-2.18.004c0 .594.476 1.086 1.088 1.086a1.09 1.09 0 0 0 1.092-1.09"/></g><defs><clipPath id="a"><path fill="#fff" d="M0 0h190v42H0z"/></clipPath></defs></svg>