<svg xmlns="http://www.w3.org/2000/svg" xmlns:xlink="http://www.w3.org/1999/xlink" id="Layer_2" data-name="Layer 2" viewBox="0 0 92.01 37.38"><defs><symbol id="New_Symbol_2" data-name="New Symbol 2" viewBox="0 0 33.18 37.38"><path d="M31.68 8.25 18.09.4c-.93-.54-2.08-.54-3.01 0L1.5 8.25C.57 8.78 0 9.78 0 10.85v15.69c0 1.07.58 2.07 1.5 2.6l13.58 7.84c.46.27.98.4 1.5.4s1.04-.13 1.5-.4l13.58-7.84c.93-.53 1.5-1.53 1.5-2.6V10.85c0-1.07-.58-2.07-1.5-2.6Zm.57 18.29c0 .74-.4 1.43-1.04 1.8l-13.58 7.84c-.64.37-1.44.37-2.07 0L1.97 28.33a2.09 2.09 0 0 1-1.04-1.8V10.84c0-.74.4-1.43 1.04-1.8l13.58-7.83c.32-.18.68-.28 1.04-.28s.72.09 1.04.28l13.58 7.84c.64.37 1.04 1.06 1.04 1.8z" class="cls-1"/><path d="m21.98 20.88-3.54-2.04-.36.21c-.29.17-.47.48-.47.81v4.56l3.49-2.02c.48-.28.88-.96.88-1.52M25.19 22.73c0 .56-.39 1.24-.88 1.52l-6.67 3.85v5.75c0 .26.06.43.21.39.02 0 .05-.01.08-.03l11.82-6.83c.48-.28.88-.96.88-1.52l-4.51-2.6z" class="cls-1"/><path d="M29.75 11.19c.23-.13.43-.15.59-.08L24.94 8c-.16-.1-.38-.09-.63.05l-12.24 7.07c-.48.28-.88.96-.88 1.52v5.21l-2.2 1.27v5.75c0 .26.06.43.21.39.02 0 .05-.01.08-.03l1.91-1.1v2.68c0 .27.09.46.24.56.01 0 .03.02.05.03l5.39 3.11c-.15-.09-.24-.29-.24-.56V19.78c0-.56.39-1.24.88-1.52l7.67-4.43 4.56-2.63Z" class="cls-1"/><path d="M21.11 6.2c.22-.13.43-.15.58-.08L16.3 3.01s-.03-.02-.04-.02c-.16-.08-.36-.05-.59.08L3.43 10.13c-.48.28-.88.96-.88 1.52v14.17c0 .27.09.46.24.56.01 0 .03.02.05.03l5.39 3.11c-.15-.09-.24-.29-.24-.56V14.79c0-.56.39-1.24.88-1.52l7.68-4.43 4.56-2.63Z" class="cls-1"/></symbol><symbol id="New_Symbol_3" data-name="New Symbol 3" viewBox="0 0 52.35 26.97"><path d="M31.96 17.34h-1.75v-.15c0-1.65.36-2.27 1.63-2.27h.13v2.42Zm17.57-4.48-1.13-.81s-.03-.01-.04-.01c-.04 0-.09.03-.09.1v5.2h-1.33c-.24 0-.43-.19-.43-.43v-3.9a.19.19 0 0 0-.08-.15l-1.13-.81s-.03-.01-.04-.01c-.04 0-.08.03-.08.1v5.2h-1.44c-.24 0-.43-.19-.43-.43v-1.37c0-.07-.03-.13-.08-.16l-1.13-.68s-.02-.01-.04-.01c-.04 0-.08.04-.08.1v2.56h-1.33c-.24 0-.43-.19-.43-.43v-1.37c0-.07-.03-.13-.08-.16l-1.13-.68s-.03-.01-.04-.01c-.04 0-.08.04-.08.1v2.56h-1.57c-.24 0-.43-.19-.43-.43v-1.37c0-.07-.03-.13-.08-.16l-1.13-.68s-.02-.01-.04-.01c-.04 0-.09.04-.09.1v2.56h-1.81c-.24 0-.43-.19-.43-.43v-2.98c0-.1-.07-.18-.15-.18h-1.32c-2.6 0-2.96 1.75-2.96 3.44v.65c0 .37.3.66.66.66h1.7c.41-.02.71-.12.89-.33.14.19.38.31.75.33h2.59c.42-.02.71-.12.9-.33.14.19.38.31.75.33h1.76c.42-.02.71-.12.89-.33.14.19.38.31.75.33h1.45c.42-.02.71-.12.9-.33.14.19.38.31.74.33h1.59c.42-.02.71-.12.9-.33.14.19.38.31.74.33h2.7s.09-.05.09-.1v-5.4c0-.06-.03-.12-.07-.15ZM50.89 12.05s-.03-.02-.04-.02c-.04 0-.08.04-.08.1v6.28c0 .05.04.1.08.1h1.17s.08-.04.08-.1v-5.4c0-.06-.03-.12-.07-.15l-1.13-.81ZM34.4 1.46l-.8.11v-.25c0-.41.2-.5.8-.53v-.8c-1.48.07-1.59.79-1.59 1.34v.34l-.26.04v.8l1.85-.26v-.8ZM48.4 1.52s-.03-.01-.05-.01c-.04 0-.08.03-.08.1v5.2H44.3c.03-.18.06-.37.06-.56 0-1.37-.8-2.48-2.37-2.48s-2.62 1.04-2.62 2.51c0 .19.02.37.05.53h-3.75V5.54c0-1.33-1.12-2.4-2.47-2.31-1.23.08-2.16 1.16-2.16 2.39v1.76c0 .33.27.6.6.6h2.59v.15c0 .78-.17 1.07-1.67 1-.1 0-.52-.05-.8-.09-.03 0-.06 0-.08.03-.02.02-.03.05-.03.08l.16.84c.01.07.07.13.15.14.25.04.82.08.9.08 2.78.11 2.81-1.43 2.81-2.08v-.15h4.28c.2.26.45.5.73.71h.93c.92 0 1.62-.27 2.07-.71h5.84s.08-.04.08-.1v-5.4c0-.06-.03-.12-.07-.15zM32.48 5.37c0-.42.36-.81.83-.83.5-.02.92.34.92.79V6.8h-1.62c-.07 0-.13-.06-.13-.13zm9.22 2.14h-.61a2.03 2.03 0 0 1-.41-1.21c0-.82.48-1.34 1.23-1.34s1.14.54 1.14 1.22c0 .82-.5 1.33-1.35 1.33M52.02 2.33l-1.13-.81s-.03-.02-.04-.02c-.04 0-.08.04-.08.1v6.28c0 .05.04.1.08.1h1.17s.08-.04.08-.1v-5.4c0-.06-.03-.12-.07-.15ZM34.02 19.41c-.39 0-.71.32-.71.71s.32.71.71.71.71-.32.71-.71-.32-.71-.71-.71M35.64 19.41c-.39 0-.71.32-.71.71s.32.71.71.71.71-.32.71-.71-.32-.71-.71-.71M5.75 19.41c-.39 0-.71.32-.71.71s.32.71.71.71.71-.32.71-.71-.32-.71-.71-.71M7.38 19.41c-.39 0-.71.32-.71.71s.32.71.71.71.71-.32.71-.71-.32-.71-.71-.71" class="cls-1"/><circle cx="3.83" cy="12.31" r=".71" class="cls-1"/><circle cx="14.33" cy="12.31" r=".71" class="cls-1"/><path d="M16.62 12.31c0-.39-.32-.71-.71-.71s-.71.32-.71.71.32.71.71.71.71-.32.71-.71M30.44 13.02c.39 0 .71-.32.71-.71s-.32-.71-.71-.71-.71.32-.71.71.32.71.71.71M32.76 12.31c0-.39-.32-.71-.71-.71s-.71.32-.71.71.32.71.71.71.71-.32.71-.71M19.44 13.72c.39 0 .71-.32.71-.71s-.32-.71-.71-.71-.71.32-.71.71.32.71.71.71M21.75 13.02c0-.39-.32-.71-.71-.71s-.71.32-.71.71.32.71.71.71.71-.32.71-.71M11.02 13.02c0-.39-.32-.71-.71-.71s-.71.32-.71.71.32.71.71.71.71-.32.71-.71M40.85 19.41c-.39 0-.71.32-.71.71s.32.71.71.71.71-.32.71-.71-.32-.71-.71-.71M42.47 19.41c-.39 0-.71.32-.71.71s.32.71.71.71.71-.32.71-.71-.32-.71-.71-.71M38.24 19.41c-.39 0-.71.32-.71.71s.32.71.71.71.71-.32.71-.71-.32-.71-.71-.71M3.83 2.21c.39 0 .71-.32.71-.71S4.22.79 3.83.79s-.71.32-.71.71.32.71.71.71M2.93 12.31c0-.39-.32-.71-.71-.71s-.71.32-.71.71.32.71.71.71.71-.32.71-.71M2.27 2.21c.39 0 .71-.32.71-.71S2.66.79 2.27.79s-.71.32-.71.71.32.71.71.71" class="cls-1"/><path d="M3.43 17.34H1.67v-.15c0-1.65.36-2.27 1.63-2.27h.13v2.41Zm12.1-2.37c.66 0 1.1.42 1.1.99 0 .71-.66 1.2-1.12 1.27-.49-.11-1.09-.61-1.09-1.27 0-.6.46-.99 1.11-.99m11.44-2.11-1.13-.81s-.03-.01-.04-.01c-.04 0-.08.03-.08.1v5.2h-1.11c-.24 0-.43-.19-.43-.43V13c0-.06-.03-.11-.07-.14l-1.13-.81s-.03-.01-.04-.01c-.04 0-.09.03-.09.1v5.2h-1.22c-.24 0-.43-.19-.43-.43v-1.37c0-.07-.03-.13-.08-.16l-1.13-.68s-.02-.01-.04-.01c-.04 0-.08.04-.08.1v2.56h-2.4c.36-.41.42-.89.42-1.44 0-1.14-.82-2.13-2.31-2.13s-2.37 1.01-2.37 2.17c0 .58.08 1.07.4 1.4h-1.87c-.24 0-.43-.19-.43-.43v-1.37c0-.07-.03-.12-.08-.16l-1.13-.68s-.03-.01-.04-.01c-.04 0-.08.04-.08.1v2.56h-1.5c-.24 0-.43-.19-.43-.43v-1.37c0-.07-.03-.12-.08-.16l-1.13-.68s-.03-.01-.04-.01c-.04 0-.09.04-.09.1v2.56H5.23c-.24 0-.43-.19-.43-.43v-2.98c0-.1-.07-.17-.15-.17H3.33c-2.6 0-2.97 1.75-2.97 3.44v.65c0 .37.3.66.66.66h1.61c.41-.02.71-.12.89-.33.14.19.38.31.75.33h2.6c.41-.02.71-.12.89-.33.14.19.38.31.75.33h1.41c.41-.02.71-.12.89-.33.14.19.38.31.75.33h3.07c.32 0 .66-.11.9-.24.23.13.55.24.93.24h3.59c.42-.02.71-.12.9-.33.14.19.38.31.75.33h1.2c.42-.02.71-.12.9-.33.14.19.38.31.75.33h2.44s.09-.05.09-.1v-5.4c0-.06-.03-.12-.07-.15ZM3.34 6.81H1.59v-.15c0-1.65.36-2.27 1.63-2.27h.13V6.8Zm25.92-3.02-.86-.54c-.12-.07-.27 0-.27.15v2.31c0 .69-.15 1.04-.71 1.1s-.4 0-.4 0c-.44-.06-.66-.29-.66-.72V4.73c0-.11-.06-.22-.15-.28l-.87-.54c-.12-.07-.27 0-.27.15v1.68c0 .7-.18 1-.68 1.06h-.43c-.39-.05-.64-.26-.64-.72V5.3c0-.11-.06-.21-.15-.27l-.87-.54a.177.177 0 0 0-.27.15v1.28c0 .7-.19.81-.7.87h-3.35c-.6-.06-.95-.4-.95-1.09V4.05a.36.36 0 0 0-.15-.28l-.87-.54c-.12-.07-.28 0-.28.15v2.31c0 .69-.14 1.03-.69 1.1h-.41c-.44-.06-.66-.29-.66-.72V4.71c0-.11-.06-.22-.15-.28l-.87-.54c-.12-.07-.27 0-.27.15v1.68c0 .7-.18 1-.68 1.06h-.43c-.4-.05-.65-.26-.65-.72v-.78c0-.11-.06-.21-.15-.27l-.86-.54a.177.177 0 0 0-.27.15v1.09c0 .7-.19 1-.7 1.06H5.09c-.24 0-.43-.19-.43-.43V3.36c0-.1-.07-.18-.15-.18H3.19C.61 3.22.25 4.97.25 6.66v.65c0 .37.3.66.66.66h1.78c.41-.02.71-.12.89-.33.14.19.38.31.75.33h5.52c.41-.02.71-.12.89-.33.14.19.38.31.75.33h1.2c.41-.02.71-.12.89-.33.14.19.38.31.75.33h1.36c.42-.02.71-.12.9-.33.14.19.38.31.74.33h4.8c.41-.02.71-.12.89-.33.14.19.38.31.75.33h1.3c.41-.02.71-.12.89-.33.14.19.38.31.75.33h.71c1.21-.02 2-.72 2-1.89V4.05a.36.36 0 0 0-.15-.28ZM2.56 25.32v-1.94h-.6v2.47h1.42l.07-.53zm1.06-1.94v2.47h.61v-2.47zm2.41 1.14c.09-.08.17-.23.17-.46 0-.41-.28-.68-.74-.68h-.85v2.47h.84c.5 0 .82-.3.82-.77 0-.3-.12-.46-.25-.56Zm-.82-.63h.18c.21 0 .23.1.23.21s-.01.19-.25.19h-.16zm.21 1.46h-.21v-.54h.16c.22 0 .3.07.3.28 0 .18-.07.27-.26.27Zm2.15-1.97s-.3.74-.35.86c-.07-.17-.16-.4-.25-.62l-.1-.25H6.2l.7 1.52v.95h.61v-.92l.71-1.55h-.65Zm1.6 0H8.5l-.02.07s-.12.47-.31 1.19l-.29 1.09-.04.12h.62l.13-.57h.47l.14.57h.63l-.67-2.47Zm-.49 1.47c.06-.23.11-.45.16-.65.03.16.16.65.16.65h-.31Zm2.49-1.47v1.24c-.1-.25-.66-1.24-.66-1.24h-.52v2.47h.56v-1.31c.1.26.23.65.65 1.25l.03.06h.48v-2.47h-.55Zm1.21 0v.54h.54v1.93h.6v-1.93h.54v-.54zm2.51 1.94v-.48h.83v-.53h-.83v-.38h.87v-.54h-1.47v2.47h1.46l.08-.53h-.94Zm4.18-1.94v.91h-.49v-.91h-.6v2.47h.6v-1.02h.49v1.02h.6v-2.47zm2.15 0v.79c0 .15.01.31.01.45-.1-.25-.68-1.24-.68-1.24h-.5v2.47h.56v-1.31c.1.26.24.65.64 1.25l.05.06h.48v-2.47zm3.63 1.94v-1.94h-.6v2.47h1.42l.07-.53zM31 23.38s-.3.74-.35.86c-.07-.18-.16-.41-.25-.62l-.1-.25h-.67l.69 1.52v.95h.61v-.92l.71-1.55H31Zm2.75.54v-.54h-1.46v2.47h.59v-.97h.81v-.54h-.81v-.41h.86Zm5.56-.54v1.24c-.1-.25-.65-1.24-.65-1.24h-.53v2.47h.56v-1.31c.1.26.24.65.63 1.25l.03.06h.51v-2.47zm1.7 0h-.76v2.47h.73c.47 0 1.03-.23 1.03-1.28 0-.98-.54-1.19-1-1.19m-.04 1.95h-.11v-1.42h.12c.22 0 .42.08.42.66 0 .68-.22.76-.43.76m2.4-1.95h-.67l-.02.07s-.12.47-.31 1.19l-.29 1.09-.04.12h.61l.14-.57h.47l.14.57h.63l-.67-2.47Zm-.45 1.35c.04-.16.08-.33.11-.47.02.11.11.47.11.47h-.23Zm.87-1.35v.54h.54v1.93h.59v-1.93h.54v-.54h-1.68Zm1.88 0v2.47h.6v-2.47zm4.25 0v1.24c-.1-.25-.24-.62-.6-1.18l-.03-.06h-.55v2.47h.56v-1.31c.1.26.24.65.62 1.25l.03.06h.52v-2.47zm-32.77 1.6v.08c-.05.18-.1.3-.27.3-.07 0-.31 0-.31-.74 0-.67.17-.74.31-.74.18 0 .22.12.25.29v.07l.09.01h.51v-.1c-.02-.18-.11-.8-.84-.8-.58 0-.92.46-.92 1.26 0 .32 0 1.28.9 1.28.47 0 .79-.3.85-.8l.02-.11zm5.88-1.63c-.61 0-.94.46-.94 1.25 0 1.07.49 1.29.91 1.29.64 0 .95-.43.95-1.29 0-.8-.33-1.25-.92-1.25m-.01 2.01c-.29 0-.33-.47-.33-.76 0-.48.11-.72.32-.72.09 0 .33 0 .33.72 0 .68-.17.76-.32.76m3.68-2.01c-.61 0-.94.46-.94 1.25 0 1.07.5 1.29.91 1.29.64 0 .95-.43.95-1.29 0-.8-.33-1.25-.92-1.25m-.01 2.01c-.29 0-.33-.47-.33-.76 0-.48.11-.72.32-.72.09 0 .33 0 .33.72 0 .68-.17.76-.32.76m2.16-.43h.19c0 .4-.13.43-.27.43s-.32-.07-.32-.73c0-.5.11-.75.34-.75.16 0 .23.1.25.25l.02.08h.58v-.11c-.04-.23-.16-.75-.84-.75-.61 0-.96.47-.96 1.28 0 1.1.53 1.26.84 1.26.19 0 .34-.04.45-.13 0 .01.02.09.02.09h.48v-1.36h-.98zm5.99-1.58c-.6 0-.94.46-.94 1.25 0 1.07.5 1.29.92 1.29.63 0 .94-.43.94-1.29 0-.8-.33-1.25-.92-1.25m-.01 2.01c-.28 0-.32-.47-.32-.76 0-.48.1-.72.32-.72.09 0 .33 0 .33.72 0 .68-.17.76-.33.76m12.68-2.01c-.6 0-.94.46-.94 1.25 0 1.07.5 1.29.92 1.29.63 0 .94-.43.94-1.29 0-.8-.33-1.25-.92-1.25m-.01 2.01c-.28 0-.32-.47-.32-.76 0-.48.1-.72.32-.72.09 0 .33 0 .33.72 0 .68-.17.76-.33.76m-10.33-1.98v1.63c0 .3-.1.35-.26.35-.13 0-.27-.04-.27-.36v-1.62h-.6v1.64c0 .57.29.87.85.87s.86-.31.86-.88v-1.63h-.6Z" class="cls-1"/><path d="M49.99 26.97H2.35c-1.3 0-2.35-1.06-2.35-2.35s1.06-2.35 2.35-2.35h47.64c1.3 0 2.35 1.06 2.35 2.35s-1.06 2.35-2.35 2.35m-47.64-4.2c-1.02 0-1.85.83-1.85 1.85s.83 1.85 1.85 1.85h47.64c1.02 0 1.85-.83 1.85-1.85s-.83-1.85-1.85-1.85z" class="cls-1"/></symbol><style>.cls-1{fill:#1462ac;stroke-width:0}</style></defs><g id="Layer_1-2" data-name="Layer 1"><g id="H_logo_Blue_on_black" data-name="H logo Blue on black"><use xlink:href="#New_Symbol_2" width="33.18" height="37.38" transform="translate(58.83)"/><use xlink:href="#New_Symbol_3" width="52.35" height="26.97" transform="translate(0 4.31)"/></g></g></svg>