<?xml version="1.0" encoding="UTF-8"?><svg id="Layer_1" xmlns="http://www.w3.org/2000/svg" xmlns:xlink="http://www.w3.org/1999/xlink" viewBox="0 0 728.7 132.85"><defs><linearGradient id="linear-gradient" x1="-634.89" y1="3237.71" x2="-473.55" y2="3316.93" gradientTransform="translate(654 3343.06) scale(1 -1)" gradientUnits="userSpaceOnUse"><stop offset="0" stop-color="#4b00ff"/><stop offset=".07" stop-color="#6307e1"/><stop offset=".19" stop-color="#8c13b0"/><stop offset=".32" stop-color="#af1e86"/><stop offset=".45" stop-color="#cc2663"/><stop offset=".58" stop-color="#e22d49"/><stop offset=".72" stop-color="#f23236"/><stop offset=".85" stop-color="#fb352a"/><stop offset="1" stop-color="#ff3627"/></linearGradient></defs><path d="M98.38,0L0,66.43l98.38,66.43,98.38-66.43L98.38,0ZM98.38,114.57L27.07,66.43,98.38,18.28l71.31,48.15-71.31,48.15ZM118.56,73.68c-2.01-4.62-2.01-9.87,0-14.5l6.62-15.25c1.18-2.72-1.58-5.49-4.31-4.31l-15.25,6.62c-4.62,2.01-9.87,2.01-14.5,0l-15.25-6.62c-2.72-1.18-5.49,1.59-4.31,4.31l6.62,15.25c2.01,4.62,2.01,9.87,0,14.5l-6.62,15.25c-1.18,2.72,1.58,5.49,4.31,4.31l15.25-6.62c4.62-2.01,9.87-2.01,14.5,0l15.25,6.62c2.72,1.18,5.49-1.58,4.31-4.31l-6.62-15.25Z" fill="url(#linear-gradient)"/><path d="M245.88,22.4l30.29,80.87h-16.79l-6.42-17.35h-33.35l-6.42,17.35h-16.45l30.19-80.87h18.94ZM224.82,71.83h22.86l-11.49-31.09-11.37,31.09Z"/><path d="M298.49,97.17v26.14h-15.76V44.01h15.76v6.09c3.49-4.28,9.13-7.21,16.56-7.21,16.34,0,25.79,13.97,25.79,30.75s-9.45,30.85-25.79,30.85c-7.43,0-13.07-2.93-16.56-7.32ZM298.15,75.34c0,10.03,5.64,15.65,13.18,15.65,8.89,0,13.63-7.1,13.63-17.35s-4.73-17.23-13.63-17.23c-7.55,0-13.18,5.51-13.18,15.65v3.27Z"/><path d="M366.08,97.17v26.14h-15.76V44.01h15.76v6.09c3.49-4.28,9.13-7.21,16.56-7.21,16.34,0,25.79,13.97,25.79,30.75s-9.45,30.85-25.79,30.85c-7.43,0-13.07-2.93-16.56-7.32ZM365.73,75.34c0,10.03,5.64,15.65,13.18,15.65,8.89,0,13.63-7.1,13.63-17.35s-4.74-17.23-13.63-17.23c-7.55,0-13.18,5.51-13.18,15.65v3.27Z"/><path d="M432.58,103.26l-29.84-80.87h17.8l20.95,59.81,21.06-59.81h17.01l-29.63,80.87h-17.35Z"/><path d="M485.86,22.4h16.11v14.64h-16.11v-14.64ZM501.86,103.26h-15.76v-59.25h15.76v59.25Z"/><path d="M511.31,73.64c0-17.46,12.06-30.75,28.83-30.75s27.04,13.07,27.04,29.63v4.61h-40.78c1.12,9.02,6.65,14.42,14.42,14.42,6.09,0,10.92-2.93,12.73-8.68l13.29,4.73c-4.28,10.81-14.3,16.9-26.14,16.9-17.46,0-29.39-12.51-29.39-30.85v-.02ZM526.97,66.43h24.55c-.11-5.86-3.83-10.92-11.5-10.92-6.31,0-11.15,3.72-13.07,10.92h.02Z"/><path d="M617.09,44.01l9.8,37.06,9.91-37.06h15.44l-17.91,59.25h-13.63l-10.03-35.82-10.03,35.82h-13.63l-17.91-59.25h16l10.03,37.06,9.69-37.06h12.29Z"/><path d="M700.78,62.14l27.93,41.12h-18.58l-19.27-28.83-19.38,28.83h-18.13l28.05-41.12-27.04-39.77h18.69l18.13,27.26,18.26-27.26h18.13l-26.81,39.77h.02Z"/></svg>
