<?xml version="1.0" encoding="UTF-8"?><svg id="a" xmlns="http://www.w3.org/2000/svg" xmlns:xlink="http://www.w3.org/1999/xlink" viewBox="0 0 260.68 44.8"><defs><style>.c{fill:url(#b);}.d{fill:#12122d;}</style><linearGradient id="b" x1="3.2" y1="21.6" x2="68" y2="21.6" gradientTransform="matrix(1, 0, 0, 1, 0, 0)" gradientUnits="userSpaceOnUse"><stop offset="0" stop-color="#4b00ff"/><stop offset="1" stop-color="#ed4137"/></linearGradient></defs><path class="d" d="M96.72,18.89v14.62h-4.81v-4.1c-3.81,6.95-16.29,5.48-16.29-2.67,0-11,16.29-4.71,16.29-9.19,0-2.9-2.76-4.1-5.33-4.1-2.38,0-5.09,.52-5.71,4.29l-4.29-.81c.81-5.62,5.38-7.43,10-7.38,5.09,.05,10.14,2.19,10.14,9.33Zm-4.81,4.33v-2.14c-3,2-11.24-.14-11.24,5.67s11.24,5.76,11.24-3.52Z"/><path class="d" d="M123.08,21.6c0,8.24-4.1,12.19-10.38,12.19-3.76,0-6.67-1.33-8.38-4.38v13.62h-4.67l-.1-33.33h4.76v4.1c1.71-3.05,4.62-4.43,8.38-4.38,6.29,.05,10.38,3.95,10.38,12.19Zm-4.67,0c0-5.57-2.71-8.43-6.95-8.48-3.81-.05-7.14,2.1-7.14,8.48s3.33,8.48,7.14,8.48c4.24,0,6.95-2.9,6.95-8.48Z"/><path class="d" d="M148.96,21.6c0,8.24-4.1,12.19-10.38,12.19-3.76,0-6.67-1.33-8.38-4.38v13.62h-4.67l-.1-33.33h4.76v4.1c1.71-3.05,4.62-4.43,8.38-4.38,6.29,.05,10.38,3.95,10.38,12.19Zm-4.67,0c0-5.57-2.71-8.43-6.95-8.48-3.81-.05-7.14,2.1-7.14,8.48s3.33,8.48,7.14,8.48c4.24,0,6.95-2.9,6.95-8.48Z"/><path class="d" d="M165.78,9.7h5l-8.9,23.81h-4.14l-8.9-23.81h5l6,17.67,5.95-17.67Z"/><path class="d" d="M172.38,33.51h4.71V9.7h-4.71v23.81Z"/><path class="d" d="M202.22,23.51h-18.38c.62,4.43,3.57,6.38,6.95,6.33,2.86-.05,5.62-1.43,6.9-4.57l4.1,1.62c-1.9,4.62-6.29,6.86-11,6.9-6.24,.05-11.57-3.95-11.57-12.19s5.33-12.24,11.57-12.19c6.24,.05,11.57,3.95,11.57,12.19,0,.67-.05,1.29-.14,1.9Zm-18.38-3.95h13.9c-.71-4.33-3.62-6.14-6.95-6.19-3.33-.05-6.24,1.86-6.95,6.19Z"/><path class="d" d="M229.52,9.7h4.86l-7.48,23.81h-4l-4.57-15.57-4.57,15.57h-4l-7.48-23.81h4.86l4.52,16.33,4.24-16.33h4.86l4.24,16.33,4.52-16.33Z"/><path class="d" d="M257.49,33.51h-5.38l-5.57-8.29-5.57,8.29h-5.38l8.48-11.95-.1-.19-8.29-11.67h5.43l5.43,8.14,5.43-8.14h5.43l-8.29,11.67-.1,.19,8.48,11.95Z"/><rect class="d" x="172.09" y="1.77" width="5.29" height="5.29" rx="2.64" ry="2.64"/><path class="c" d="M55.69,23.4l2.37,4.27-3.23,5.83h-4.73l5.59-10.1Zm12.31-13.7h-4.73l-3.21,5.81,2.36,4.28,5.58-10.09Zm-8.94,7.62l-2.47-4.47c-1.08-1.95-3.12-3.15-5.35-3.15s-4.27,1.21-5.35,3.15l-8.56,15.5c-.35,.63-1.01,1.02-1.72,1.02s-1.37-.39-1.72-1.02l-8.56-15.5c-1.07-1.95-3.12-3.15-5.35-3.15s-4.27,1.21-5.35,3.15L3.2,33.51h4.8L18.26,14.86c.35-.63,1.01-1.02,1.72-1.02s1.38,.39,1.72,1.02l8.56,15.5c1.07,1.95,3.12,3.15,5.35,3.15s4.27-1.21,5.35-3.15l8.56-15.5c.35-.63,1.01-1.02,1.72-1.02s1.38,.39,1.72,1.02l3.73,6.74,2.37,4.27,4.23,7.64h4.71l-6.58-11.91-2.36-4.28Z"/></svg>