<svg 
  xmlns="http://www.w3.org/2000/svg" xml:space="preserve" viewBox="0 0 201.8 43.4">
  <path d="M103.2 38.5c-4.1 0-6.5-3.2-6.8-8.9v-.3h17.9v-1.6c0-10.3-4.1-16-11.5-16-5.7 0-12.4 4.1-12.4 15.8 0 9.9 4.7 15.8 12.5 15.8 4.5 0 8.8-2.4 11.2-6.3l-3.8-2.7c-1.9 2.6-3.8 4.2-7.1 4.2m-6.8-13.6c.6-7 4.2-8.1 6.3-8.1 3.6 0 5.5 2.6 5.8 8.1v.3H96.4zm68.4 13.6c-4.1 0-6.5-3.2-6.8-8.9v-.3h17.8v-1.6c0-10.3-4.1-16-11.5-16-5.7 0-12.4 4.1-12.4 15.8 0 9.9 4.7 15.8 12.5 15.8 4.5-.1 8.7-2.4 11.2-6.3l-3.8-2.8c-1.8 2.7-3.7 4.3-7 4.3M158 24.9c.6-7 4.2-8.1 6.2-8.1 3.6 0 5.5 2.6 5.9 8.1v.3H158zM39 38.5c-4.1 0-6.5-3.2-6.8-8.9v-.3H50v-1.6c0-10.3-4.1-16-11.5-16-5.7 0-12.4 4.1-12.4 15.8 0 9.9 4.7 15.8 12.5 15.8 4.5-.1 8.8-2.4 11.2-6.3L46 34.3c-1.7 2.6-3.7 4.2-7 4.2m-6.7-13.6c.6-7 4.2-8.1 6.2-8.1 3.6 0 5.5 2.6 5.8 8.1v.3h-12zm-17.8 7.5c0 4.7-2.7 5.7-5 5.7-2.5-.1-4.9-.9-6.9-2.3L0 40.3c3 2.1 6.6 3.2 10.3 3.2 6.9 0 10.6-3.8 10.6-10.6V.1h-6.4zm61.7-24v4H63.5V8.8c0-3.5 2.4-3.9 4.1-3.9.4.1 1.3.1 1.8.1V.1c-.5 0-2.1-.1-3.1-.1-6.1 0-8.9 2.6-8.9 8.3v4H53v4.8h4.4v25.7h6.2V17.2h12.6v25.6h6.1V17.2H88v-4.8h-5.7V8.8c0-3.5 2.4-3.9 4.2-3.9.3 0 1.2 0 1.7.1V.1c-.5 0-2.1-.1-3.1-.1-6.1 0-8.9 2.7-8.9 8.4m50.1 8.6-.1.1h-.5v-4.8h-6.1v30.4h6.1V22.3c1.7-3.1 4.9-5 8.4-5h1.3c0-.4.1-5.1.2-5.6h-.3c-3.7 0-7.2 2.1-9 5.3m14.4-10.2h6.2V1.1h-6.2zm0 36h6.1V12.4h-6.1zm49.9.6c5.4 0 11.2-2.8 11.2-8.8 0-6.3-5-8-9.3-9.5-3.3-1.1-6.5-2.2-6.5-5.2 0-2.2 1.6-3.5 4.5-3.5 2.7.1 5.3 1.4 7 3.5l3.6-3.3c-2.6-3.2-6.5-5-10.5-5-6.2 0-10.4 3.4-10.4 8.5 0 6.2 5 7.9 9.3 9.4 3.4 1.2 6.5 2.2 6.5 5.3 0 2.4-1.9 3.7-5.3 3.7-3.3-.1-6.5-1.6-8.6-4.2l-3.7 3.1c3 4 7.5 6.2 12.2 6"/>
</svg>