<svg version="1.2" xmlns="http://www.w3.org/2000/svg" viewBox="0 0 1238 242">
	<title>Pos Digicert</title>
	<style>
		.s0 { fill: #293890 } 
		.s1 { fill: #ec1c24 } 
	</style>
	<path id="Pos" fill-rule="evenodd" class="s1" d="m438 133.5v0.5c0 37-29.8 59-74.7 59-27.2 0-53.2-7-74.3-20.6 10.1-11 17.6-24.1 21.8-38.6 16.8 11.5 35.1 17.6 54.3 17.6 13.8 0 21.1-4.7 21.1-12.4v-0.6c0-7.4-6-11.6-31.1-17.3-15.4-3.4-28.9-7.1-40.3-12.6q0-0.3 0-0.6c0-10.1-0.9-19.2-3.8-28.3-0.2-0.6-1-0.3-1 0.2 1.3 6.2 2 12.6 2 19.1v0.5c0 52-41.9 94.1-97.7 94.1-55.8 0-97.1-41.6-97.1-93.6v-0.5c0-17 4.8-32.9 12.8-46.6 0.4-0.7-0.6-0.9-0.9-0.4-11.1 15.7-17.7 34.9-17.7 55.5 0 8 1 15.8 2.9 23.2-11.3 4.7-24.3 7.1-38.9 7.1h-24.8v51.7h-50.1v-180.9h77.5c29.2 0 51.7 9.7 64.1 27 17.6-18.8 43.2-30.6 72.8-30.6 31.5 0 58.4 13.3 75.9 34.3 10-20.5 33.3-34.3 66.1-34.3 31.5 0 56 8.8 76.1 24.5l-25.6 35.4c-16.9-11.6-35.4-17.8-51.8-17.8-12.4 0-18.5 5.2-18.5 11.6v0.5c0 8.3 6.3 11.9 32 17.6 42.5 9.1 68.9 22.5 68.9 56.3zm-334.9-58.6c0-15.5-10.9-23.8-28.9-23.8h-23.6v47.8h23.8c17.8 0 28.7-9.3 28.7-23.5zm175.5 24.5c0-3.9-1.4-7.5-3.6-10.4l-61-68.2c-19.5 0.1-37.4 6.9-51.4 18.1l44.9 50.1c2.2 2.9 3.6 6.5 3.6 10.4 0 4-1.4 7.6-3.6 10.4l-44.9 50.2c14 11.2 31.8 17.9 51.4 18.1l61-68.3c2.2-2.8 3.6-6.4 3.6-10.4z"/>
	<path id="Digicert" fill-rule="evenodd" class="s0" d="m493.8 188.8c-6.2-0.3-8.4-2.5-8.4-8.4v-162.4c0-6.4 1.9-8.9 8.1-9.4 11.1-1.2 22.5-1.7 35.9-1.7 61.9 0 89.4 20.9 89.4 84.1v14.8c0 58.5-22.5 83.3-89.1 83.3-12.3 0-25.4 0-35.9-0.3zm23.1-159.4c-3.1 0.3-4.2 2-4.2 4.8v128.1c0 3.7 1.4 5 5 5h15.6c41.2 0 57.4-13.9 57.4-64.9v-8c0-51-15.9-65.5-58.5-65.5-5 0-12.3 0.3-15.3 0.5zm118.6-12.8c0-11.4 7.3-16.1 16.2-16.1h1.4c9.2 0 15.9 4.7 15.9 16.1v2c0 11.4-6.7 16.1-15.9 16.1h-1.4c-8.9 0-16.2-4.7-16.2-16.1zm29.6 167.4c0 3.9-1.4 5-5.6 5h-14.5c-3.9 0-5.6-1.1-5.6-5v-126.5c0-3.9 1.7-5 5.6-5h14.5c4.2 0 5.6 1.1 5.6 5zm128.1-77.1v5c0 27-7.2 39.5-17.8 45.1 15.6 8.4 23.1 22.6 23.1 38.5v3c0 28.2-18.9 42.6-55.7 42.6-19.5 0-40.7-4.1-54.9-10-3.1-1.4-4.2-2.5-4.2-4.4 0-1.2 0.6-2.8 1.4-5.9l2.8-8.1c0.6-1.9 1.9-2.5 2.8-2.5 1.1 0 2.2 0.6 3.9 1.1 12.8 5.1 30.6 8.9 46.2 8.9 19.8 0 31.8-6.4 31.8-24.5v-2.2c0-12.3-5.6-22-17.3-27-4.7 0.8-10.3 1.4-17.3 1.4-39.5 0-55.1-17.9-55.1-56v-5c0-41.8 18.1-56.9 55.1-56.9 2 0 4.2 0 6.2 0.3 5.3-14.8 16.1-22.8 35.4-22.8h8c3.7 0 4.8 1.4 4.8 5v10.6c0 3.3-0.6 4.4-4.5 4.4h-9.7c-7.8 0-11.2 1.1-13.7 5.6 20.1 6.1 28.7 21.2 28.7 53.8zm-84.1 5c0 24.2 5.8 35.9 28.9 35.9 23.4 0 29-11.7 29-36.2v-5.9c0-24.7-6.9-35.3-29-35.3-22.8 0-28.9 10.6-28.9 35.3zm100.8-95.2c0-11.5 7.2-16.2 16.2-16.2h1.4c9.1 0 15.8 4.7 15.8 16.2v1.9c0 11.4-6.7 16.2-15.8 16.2h-1.4c-9 0-16.2-4.8-16.2-16.2zm29.5 167.4c0 4-1.4 5.1-5.5 5.1h-14.5c-3.9 0-5.6-1.1-5.6-5.1v-126.4c0-3.9 1.7-5 5.6-5h14.5c4.1 0 5.5 1.1 5.5 5zm113.7-10.6c1.1 3.6 1.4 5.6 1.4 6.4 0 2.2-1.4 3.6-4.2 4.7-10 4.5-24.5 7-37.6 7-16.7 0-31.5-3.9-39.8-12-12.3-11.7-15.4-30.4-15.4-54.6v-8.9c0-29.3 4.2-42.1 14.8-52.1 9.7-9.2 24.5-13.9 41.8-13.9 15.9 0 32 5.3 41.5 11.7 1.7 1.1 2.5 2.2 2.5 3.6 0 1.1-0.8 3.1-2.8 6.7l-3.9 7.2c-1.1 2-1.9 2.8-3.3 2.8-0.9 0-2-0.3-3.4-1.1-10.3-6.4-19.5-9.2-29.8-9.2-9.2 0-17 2-22.3 6.7-9.2 8.9-8.9 20.3-8.9 39.8v4.5c0 20.3 1.1 30.9 7 38.4 5 6.2 13.6 9.2 25.3 9.2 9.5 0 20.9-2.5 27.6-5 1.4-0.6 2.8-1.1 4.2-1.1 1.7 0 2.8 0.8 3.6 3.3zm115.1-47.6c0 5.3-2.3 8.1-7.9 8.1h-71.8c0.8 26.4 6.7 36.5 34 36.5 9.7 0 21.7-2.3 29.5-5.3 1.7-0.6 3.3-1.1 4.5-1.1 1.3 0 2.5 0.5 3.3 3l1.9 6.7c0.9 2.8 1.4 4.7 1.4 5.9 0 1.9-1.1 3-3.3 4.1-9.8 4.5-25.4 7.8-40.4 7.8-43.5 0-57.1-19.2-57.1-66v-9.5c0-43.7 13.9-66 54.6-66 33.1 0 51.3 16.2 51.3 55.7zm-28.5-12.8c2.8 0 3.7-0.8 3.7-3.9 0-26.4-5.6-37.9-27.1-37.9-23.1 0-28.1 13.4-28.1 41.8zm65.2-42.6h0.5c7.3-12.3 16.5-17.8 34.6-17.8h5.5c4.5 0 5.9 1.1 5.9 5v12.2c0 3.4-1.4 4.8-5.9 4.8h-6.1c-13.4 0-19.2 2.5-23.7 7.8-4.4 5.3-6.1 12.5-6.1 24.2v77.5c0 3.9-1.4 5-5.6 5h-14.5c-3.8 0-5.5-1.1-5.5-5v-127.3c0-3.4 1.4-4.2 4.4-4.2h9.8c3.3 0 5 0.8 5.3 4.2zm110.8 118.6c-17.5 0-27.5-3.6-33.4-10-6.1-7-8.3-16.7-8.3-34v-70.5h-16.8c-3 0-4.1-0.8-4.1-4.1v-9c0-3.6 0.8-4.1 3.6-4.7l17.3-3.3v-30.4c0-3.9 1.6-5.3 5.5-5.3h14.8c3.9 0 5.3 1.4 5.3 5.3v29.5h30.1c3.3 0 4.4 1.4 4.4 5v12c0 3.4-1.1 5-4.4 5h-30.1v68.6c0 10.8 0.5 14.7 3.3 18.9 3.1 4.5 7.3 5.3 17.6 5.3h12c3.6 0 5 0.8 5 5.3v11.4c0 3.6-0.9 5-5 5z"/>
</svg>
