<?xml version="1.0" encoding="UTF-8"?>
<svg id="Capa_2" data-name="Capa 2" xmlns="http://www.w3.org/2000/svg" viewBox="0 0 431.26 142.27">
  <defs>
    <style>
      .cls-1 {
        fill: #36f;
        stroke-width: 0px;
      }
    </style>
  </defs>
  <g id="Capa_1-2" data-name="Capa 1">
    <g>
      <path class="cls-1" d="M0,3.47h50.77c41.5,0,50,17.18,50,41.7,0,26.06-11,43.05-51.73,43.05h-18.73v50.38H0V3.47ZM50.58,63.12c13.32,0,18.53-5.21,18.53-17.37,0-11-4.25-16.6-17.95-16.6h-20.85v33.98h20.27Z"/>
      <path class="cls-1" d="M110.62,96.71l30.31-5.21c.58,8.3,1.74,13.9,3.86,17.76,2.9,5.4,8.11,7.33,14.09,7.33,8.69,0,11.78-2.9,14.09-6.76,2.51-4.25,3.47-8.69,3.47-17.18,0-3.47-.19-6.76-.58-9.07-1.35-10.81-7.91-12.35-30.31-12.35l-3.09-14.86,26.64-27.41h-54.82V3.47h91.5v20.27l-25.87,28.57c23.17,4.83,28.57,22.39,28.57,39.77,0,11.78-2.51,23.74-9.07,32.82-8.69,11.97-23.36,17.37-39.77,17.37-14.48,0-28.38-4.25-37.64-15.06-6.95-8.11-10.23-18.53-11.39-30.5Z"/>
      <path class="cls-1" d="M253.09,93.62c1.74,18.73,9.07,24.13,20.85,24.13,12.35,0,16.22-5.98,16.22-14.09,0-12.74-9.46-14.48-31.66-24.32-16.22-7.14-33.98-15.83-33.98-41.31S241.5,0,271.04,0s45.94,14.86,49.03,40.73l-29.34,5.21c-1.54-16.99-8.88-22.01-20.08-22.01-11.97,0-16.41,5.21-16.41,12.74,0,11.77,11.78,13.9,32.04,22.78,21.04,9.27,34.17,18.15,34.17,41.7,0,28.96-19.69,41.12-46.91,41.12-31.08,0-46.52-15.44-49.8-43.43l29.34-5.21Z"/>
      <path class="cls-1" d="M363.89,93.62c1.74,18.73,9.07,24.13,20.85,24.13,12.35,0,16.22-5.98,16.22-14.09,0-12.74-9.46-14.48-31.66-24.32-16.22-7.14-33.98-15.83-33.98-41.31S352.31,0,381.85,0s45.94,14.86,49.03,40.73l-29.34,5.21c-1.54-16.99-8.88-22.01-20.08-22.01-11.97,0-16.41,5.21-16.41,12.74,0,11.77,11.78,13.9,32.04,22.78,21.04,9.27,34.17,18.15,34.17,41.7,0,28.96-19.69,41.12-46.91,41.12-31.08,0-46.52-15.44-49.8-43.43l29.34-5.21Z"/>
    </g>
  </g>
</svg>