<svg xmlns="http://www.w3.org/2000/svg" fill="none" viewBox="0 0 144 56"><path fill="#000" d="m51.468 30.676-4.14-2.824c-1.618-1.14-2.324-2.181-2.324-3.42 0-1.585 1.314-2.575 3.182-2.575 2.375 0 3.486 1.09 4.9 1.09 1.11 0 1.867-.744 1.867-1.833 0-.792-.404-1.438-1.465-1.933-1.667-.792-3.485-1.089-5.455-1.089-2.072 0-3.89.595-5.202 1.586a9 9 0 0 0-.758.644c-1.515 1.586-2.777 3.913-3.788 7.184l-1.162 3.764c-2.072 6.64-5.354 9.81-10.456 9.81-5.607 0-9.141-3.815-9.141-9.461 0-5.649 3.535-9.514 8.637-9.514q.332 0 .651.019l.077.004q.287.015.565.047l.093.01q.277.032.544.075l.081.012q.283.049.556.108l.042.009c.797.179 1.538.437 2.242.759.656.297 1.212.397 1.716.397 1.213 0 2.02-.792 2.02-1.981 0-.743-.455-1.487-1.515-1.981-1.92-.941-4.395-1.487-7.072-1.487-7.982 0-13.486 5.549-13.486 13.624 0 2.126.386 4.077 1.108 5.796-1.048 2.235-2.65 3.42-4.745 3.42-2.526 0-4.193-1.437-4.193-4.707V22.256h5.91c1.363 0 2.273-.792 2.273-1.932s-.91-1.933-2.273-1.933H4.849v-5.055c0-1.487-1.01-2.479-2.425-2.479-1.413 0-2.424.992-2.424 2.479V36.77c0 5.451 3.182 8.324 8.585 8.324 1.213 0 2.323-.197 3.334-.545a8.08 8.08 0 0 0 4.197-3.44c2.4 2.544 5.962 4.034 10.4 4.034 2.322 0 4.344-.446 6.163-1.386 3.686-1.884 6.314-5.698 8.132-11.544l1.061-3.419c.708.927 1.698 1.813 3.03 2.725l3.789 2.576c1.716 1.189 2.424 2.18 2.424 3.616 0 2.13-1.716 3.567-4.193 3.567-2.374 0-4.394-1.189-5.505-1.189s-1.868.744-1.868 1.833c0 .792.405 1.437 1.466 1.932 1.465.695 3.838 1.29 5.96 1.29 2.677 0 4.898-.793 6.465-2.182 1.414-1.289 2.273-3.121 2.273-5.251-.002-2.97-1.214-4.954-4.245-7.035M64.99 19.395h3.404v-6.08h2.415v-2.458h-8.235v2.458h2.415zM73.32 19.395l1.735-5.106 1.733 5.106h3.33l-3.264-8.538h-3.6l-3.262 8.538zM81.716 19.395h3.404v-6.08h2.415v-2.458h-8.234v2.458h2.415zM90.039 19.395l1.735-5.106 1.733 5.106h3.33l-3.262-8.538h-3.602l-3.262 8.538zM122.713 25.503c.421.966.976 2.012 1.529 2.945l2.227 3.755h1.614v-8.538h-1.442v2.98c0 1.305.029 2.404.141 3.537l-.03.008a24 24 0 0 0-1.452-2.86l-2.203-3.665h-1.781v8.538h1.439v-3.054c0-1.4-.021-2.529-.082-3.638zM114.988 29.79h2.709l.772 2.413h1.672l-2.769-8.538h-1.982l-2.738 8.538h1.611zm.913-3.286c.151-.509.28-1.1.404-1.6h.027c.13.496.27 1.078.431 1.605l.672 2.105h-2.198zM89.59 31.044a4.3 4.3 0 0 1-2.06-.545l-.346 1.292c.465.286 1.402.546 2.304.546 2.2 0 3.235-1.192 3.235-2.566 0-1.227-.712-1.973-2.193-2.537-1.138-.435-1.632-.745-1.632-1.399 0-.503.42-1.027 1.41-1.027.801 0 1.396.244 1.703.405l.373-1.258c-.444-.225-1.121-.42-2.045-.42-1.849 0-3.018 1.053-3.018 2.451 0 1.224.9 1.981 2.31 2.482 1.076.392 1.51.773 1.51 1.416 0 .694-.558 1.16-1.55 1.16M67.206 24.82c.696 0 1.265.154 1.661.334l.339-1.242c-.318-.172-1.04-.379-2.066-.379-2.606 0-4.566 1.695-4.566 4.502 0 2.598 1.648 4.303 4.354 4.303 1.032 0 1.844-.204 2.212-.389l-.257-1.229c-.41.186-1.069.31-1.7.31-1.876 0-2.969-1.192-2.969-3.074 0-2.05 1.252-3.136 2.992-3.136M110.752 32.203v-7.227h2.458v-1.311h-6.452v1.31h2.436v7.228zM141.888 23.665l-1.027 2.187c-.291.62-.526 1.15-.738 1.695h-.026a37 37 0 0 0-.744-1.692l-1.015-2.19h-1.783l2.698 4.984v3.554h1.558v-3.597l2.833-4.938h-1.756zM73.713 23.526c-2.407 0-4.06 1.851-4.06 4.473 0 2.5 1.523 4.346 3.935 4.346h.014c2.335 0 4.068-1.637 4.068-4.497-.005-2.441-1.47-4.322-3.957-4.322m-.061 7.569h-.013c-1.49 0-2.36-1.435-2.355-3.133-.002-1.703.818-3.188 2.373-3.188s2.355 1.522 2.355 3.132c-.003 1.785-.855 3.189-2.36 3.189M134.062 24.82a4.1 4.1 0 0 1 1.661.334l.338-1.242c-.317-.172-1.039-.379-2.066-.379-2.605 0-4.565 1.695-4.565 4.502 0 2.598 1.648 4.303 4.354 4.303 1.031 0 1.844-.2 2.211-.389l-.256-1.229c-.41.186-1.069.31-1.701.31-1.876 0-2.968-1.192-2.968-3.074 0-2.05 1.251-3.136 2.992-3.136M104.107 23.665h-1.558v8.538h5.066v-1.309h-3.508zM100.776 28.541v-4.875h-1.558v4.979c0 1.673-.675 2.444-1.796 2.444-1.056 0-1.749-.776-1.749-2.444v-4.979h-1.558v4.886c0 2.685 1.283 3.795 3.249 3.795 2.06-.003 3.412-1.176 3.412-3.806M85.78 23.665H84.34v2.98c0 1.305.029 2.404.14 3.537l-.03.008a24 24 0 0 0-1.451-2.86l-2.204-3.665h-1.78v8.538h1.441v-3.054c0-1.4-.02-2.529-.082-3.636l.04-.008c.42.967.976 2.013 1.529 2.945l2.227 3.755h1.614v-8.54zM92.44 36.47h-1.557v8.537h1.558zM80.167 41.003v-.034c.796-.283 1.537-1.025 1.537-2.116 0-.726-.265-1.313-.728-1.7-.571-.477-1.555-.683-2.61-.683-1.056 0-1.755.074-2.344.183v8.354h1.534v-3.482h.778c.878.021 1.28.379 1.523 1.483.236 1.054.44 1.753.569 2h1.587c-.17-.332-.4-1.303-.667-2.363-.211-.823-.566-1.409-1.18-1.642m-1.696-.614h-.915v-2.677c.156-.04.47-.077.96-.077 1 .003 1.648.434 1.648 1.358 0 .843-.645 1.396-1.693 1.396M87.069 40.373c-.33 1.035-.64 2.079-.868 3.085h-.026c-.222-1.033-.513-2.031-.836-3.109l-1.164-3.882h-1.698l2.759 8.538h1.785l2.947-8.538h-1.659zM103.222 41.218h3.214v-1.271h-3.214V37.75h3.405V36.47h-4.963v8.535h5.15v-1.282h-3.592zM98.41 37.621c.695 0 1.264.154 1.66.334l.339-1.242c-.317-.172-1.04-.379-2.066-.379-2.606 0-4.566 1.695-4.566 4.502 0 2.598 1.648 4.303 4.355 4.303 1.031 0 1.843-.201 2.211-.39l-.257-1.228c-.412.185-1.068.31-1.7.31-1.876 0-2.969-1.192-2.969-3.075 0-2.05 1.252-3.135 2.992-3.135M65.92 40.034c-1.14-.435-1.633-.745-1.633-1.399 0-.503.42-1.027 1.407-1.027.802 0 1.397.243 1.704.405l.373-1.258c-.445-.225-1.122-.421-2.045-.421-1.849 0-3.018 1.054-3.018 2.452 0 1.224.9 1.981 2.31 2.481 1.076.392 1.51.774 1.51 1.417 0 .7-.556 1.166-1.55 1.166a4.3 4.3 0 0 1-2.061-.546l-.347 1.292c.466.286 1.402.546 2.304.546 2.201 0 3.236-1.192 3.236-2.566.002-1.232-.71-1.979-2.19-2.543M71.072 41.218h3.214v-1.271h-3.214V37.75h3.407V36.47h-4.965v8.535h5.153v-1.282h-3.595zM111.148 40.034c-1.138-.435-1.632-.745-1.632-1.399 0-.503.42-1.027 1.407-1.027.801 0 1.397.243 1.703.405l.373-1.258c-.444-.225-1.121-.421-2.044-.421-1.849 0-3.019 1.054-3.019 2.452 0 1.224.9 1.981 2.31 2.481 1.076.392 1.51.774 1.51 1.417 0 .7-.555 1.166-1.55 1.166a4.3 4.3 0 0 1-2.061-.546l-.346 1.292c.465.286 1.402.546 2.304.546 2.201 0 3.235-1.192 3.235-2.566.003-1.232-.709-1.979-2.19-2.543"/></svg>