<?xml version="1.0" encoding="UTF-8"?>
<svg viewBox="0 0 122 57" version="1.1" xmlns="http://www.w3.org/2000/svg" xmlns:xlink="http://www.w3.org/1999/xlink">
    <defs>
        <linearGradient x1="50.0004467%" y1="0.00303049842%" x2="50.0004467%" y2="100.000709%" id="linearGradient-1">
            <stop stop-color="#C6168D" offset="20%"></stop>
            <stop stop-color="#762B8A" offset="80%"></stop>
        </linearGradient>
    </defs>
    <g id="Symbols" stroke="none" stroke-width="1" fill="none" fill-rule="evenodd">
        <g id="Nav/Main" transform="translate(-33.000000, -18.000000)" fill-rule="nonzero">
            <g id="Logo">
                <g id="Group-2" transform="translate(33.000000, 18.000000)">
                    <g id="Group" transform="translate(42.508800, 0.000000)">
                        <path d="M17.108928,39.507264 L0.001728,29.630016 L0.001728,9.877248 L17.108928,0 L34.216128,9.877248 L34.216128,29.631744 L17.108928,39.507264 Z M31.463424,28.041984 L31.463424,11.46528 L17.1072,3.177792 L2.750976,11.46528 L2.750976,28.041984 L17.1072,36.329472 L31.463424,28.041984 Z" id="Shape" fill="#762B8A"></path>
                        <polygon id="Path" fill="url(#linearGradient-1)" points="19.816704 28.881792 19.816704 26.111808 28.703808 20.94336 28.703808 18.192384 19.816704 23.31072 19.816704 20.558016 28.714176 15.443136 28.712448 13.05504 17.108928 6.353856 5.50368 13.05504 5.50368 26.453952 17.108928 33.153408 28.714176 26.450496 28.714176 23.69952"></polygon>
                    </g>
                    <g id="Group" transform="translate(0.000000, 43.200000)" fill="#3F454F">
                        <polygon id="Path" points="13.428288 12.979008 0.03456 12.979008 0.03456 0.4752 12.989376 0.4752 12.989376 3.226176 3.008448 3.226176 3.008448 5.111424 9.948096 5.111424 9.948096 7.855488 3.010176 7.855488 3.010176 10.228032 13.428288 10.228032"></polygon>
                        <polygon id="Path" points="17.421696 0.4752 17.421696 12.979008 20.395584 12.979008 20.395584 3.720384 27.945216 12.979008 31.879872 12.979008 31.879872 0.4752 28.902528 0.4752 28.902528 9.744192 21.354624 0.4752"></polygon>
                        <polygon id="Path" points="35.403264 0.4752 35.403264 3.22272 41.055552 3.22272 41.055552 12.979008 44.031168 12.979008 44.031168 3.22272 49.686912 3.22272 49.686912 0.4752"></polygon>
                        <polygon id="Path" points="107.23104 0.4752 107.23104 3.22272 112.883328 3.22272 112.883328 12.979008 115.858944 12.979008 115.858944 3.22272 121.514688 3.22272 121.514688 0.4752"></polygon>
                        <path d="M63.1152,0.471744 C64.47168,0.471744 65.549952,0.841536 66.353472,1.58112 C67.155264,2.320704 67.557888,3.312576 67.557888,4.555008 C67.557888,6.535296 66.647232,7.80192 64.827648,8.353152 L64.827648,8.353152 L68.122944,12.973824 L64.656576,12.973824 L61.56,8.62272 L56.192832,8.62272 L56.192832,12.973824 L53.215488,12.973824 L53.215488,0.470016 L63.1152,0.470016 L63.1152,0.471744 Z M56.192832,3.226176 L56.192832,5.880384 L62.591616,5.880384 C64.366272,5.880384 64.52352,5.251392 64.52352,4.542912 C64.52352,3.742848 64.010304,3.224448 62.686656,3.224448 L56.192832,3.224448 L56.192832,3.226176 Z" id="Shape"></path>
                        <path d="M79.183872,10.573632 C83.05632,10.573632 83.417472,9.249984 83.417472,8.106048 L83.417472,0.476928 L86.39136,0.476928 L86.39136,8.748864 C86.39136,11.708928 83.218752,13.317696 79.1856,13.317696 L79.187328,13.317696 C75.152448,13.317696 71.981568,11.7072 71.981568,8.748864 L71.981568,0.476928 L74.955456,0.476928 L74.955456,8.106048 C74.950272,9.248256 75.313152,10.573632 79.183872,10.573632 L79.183872,10.573632 Z" id="Path"></path>
                        <path d="M102.396096,4.119552 L104.251968,2.16 C101.737728,0.157248 98.553024,0.216 97.6752,0.158976 C96.795648,0.101952 90.896256,-0.020736 90.631872,3.988224 C90.45216,6.709824 93.049344,7.599744 97.22592,7.703424 C101.402496,7.807104 101.577024,8.532864 101.57184,8.989056 C101.566656,9.481536 101.037888,10.580544 97.300224,10.520064 C94.87584,10.48032 92.798784,9.631872 91.67904,8.6832 L90.014976,10.862208 C91.974528,12.417408 94.476672,13.195008 97.585344,13.195008 C101.326464,13.195008 104.540544,12.223872 104.709888,9.163584 C104.90688,5.605632 101.274624,5.184 97.958592,4.910976 C94.756608,4.64832 93.745728,4.56192 93.756096,3.770496 C93.766464,2.896128 96.187392,2.78208 97.860096,2.875392 C99.812736,2.985984 101.281536,3.476736 102.396096,4.119552 Z" id="Path"></path>
                    </g>
                </g>
            </g>
        </g>
    </g>
</svg>