<svg xmlns="http://www.w3.org/2000/svg" viewBox="0 0 433 97"><path d="M185.2 46.88a13.77 13.77 0 0 0 8.8-13c0-11.7-8.3-17.5-19.7-17.5h-29.9V80h32.5c10 0 19.8-7 19.8-17.7 0-12.72-11.5-15.3-11.5-15.42M160 29.58h11.6a5.66 5.66 0 0 1 6 5.31v.69a5.93 5.93 0 0 1-6 5.81h-11.7Zm11.7 37.1h-11.6v-12.5h11.3c5.7 0 8.4 2.5 8.4 6.2 0 4.62-3.4 6.3-8.1 6.3M231.1 14.78c-18.4 0-29.2 14.7-29.2 33.3s10.8 33.3 29.2 33.3 29.2-14.6 29.2-33.3-10.7-33.3-29.2-33.3m0 51.4c-9 0-13.5-8.1-13.5-18.1s4.5-18 13.5-18 13.6 8.1 13.6 18c0 10.1-4.6 18.1-13.6 18.1M294.2 41.38l-2.2-.5c-5.4-1.1-9.7-2.5-9.7-6.4 0-4.2 4.1-5.9 7.7-5.9a17.86 17.86 0 0 1 13 5.9l9.9-9.8c-4.5-5.1-11.8-10-23.2-10-13.4 0-23.6 7.5-23.6 20 0 11.4 8.2 17 18.2 19.1l2.2.5c8.3 1.7 11.4 3 11.4 7 0 3.8-3.4 6.3-8.6 6.3-6.2 0-11.8-2.7-16.1-8.2l-10.1 10c5.6 6.7 12.7 11.9 26.4 11.9 11.9 0 24.6-6.8 24.6-20.7.2-14.5-10.8-17.3-19.9-19.2M349.7 66.18c-7 0-14.3-5.8-14.3-18.5 0-11.3 6.8-17.6 13.9-17.6 5.6 0 8.9 2.6 11.5 7.1l12.8-8.5c-6.4-9.7-14-13.8-24.5-13.8-19.2 0-29.6 14.9-29.6 32.9 0 18.9 11.5 33.7 29.4 33.7 12.6 0 18.6-4.4 25.1-13.8L361.1 59c-2.6 4.18-5.4 7.18-11.4 7.18M416.3 16.38v23.4H397v-23.4h-16.7v63.6H397v-25.1h19.3v25.1H433v-63.6z" style="fill:#ed0007;fill-rule:evenodd"/><path d="M48.2.18a48.2 48.2 0 1 0 48.2 48.2A48.2 48.2 0 0 0 48.2.18m0 91.9a43.7 43.7 0 1 1 43.7-43.7 43.71 43.71 0 0 1-43.7 43.7"/><path d="M68.1 18.28h-3.3v16.5H31.7v-16.5h-3.4a36.06 36.06 0 0 0 0 60.2h3.4V62h33.1v16.5h3.3a36.05 36.05 0 0 0 0-60.2ZM27.1 72a31.59 31.59 0 0 1-2.63-44.6 33 33 0 0 1 2.63-2.62Zm37.7-14.6H31.7V39.28h33.1Zm4.5 14.5V24.78a31.65 31.65 0 0 1 2.39 44.71 34 34 0 0 1-2.39 2.39Z"/></svg>