<svg xmlns="http://www.w3.org/2000/svg" xmlns:xlink="http://www.w3.org/1999/xlink" xml:space="preserve" overflow="hidden"><defs><clipPath id="clip0"><rect x="1596" y="766" width="1269" height="575"/></clipPath></defs><g clip-path="url(#clip0)" transform="translate(-1596 -766)"><path d="M1806.5 793.5 2170.5 793.5 2170.5 1158.64 2122.57 1158.64 2170.5 1219.5 2094.67 1219.5 2044.31 1158.64 1806.5 1158.64 1806.5 793.5ZM1867.17 854.357 1867.17 1097.79 2109.83 1097.79 2109.83 854.357 1867.17 854.357Z" stroke="#D0CECE" stroke-width="4.58333" stroke-miterlimit="8" fill="#D0CECE" fill-rule="evenodd"/><path d="M2232.5 793.5 2596.5 793.5 2596.5 854.333 2293.17 854.333 2293.17 1097.67 2596.5 1097.67 2596.5 1158.5 2232.5 1158.5 2232.5 793.5Z" stroke="#D0CECE" stroke-width="4.58333" stroke-miterlimit="8" fill="#D0CECE" fill-rule="evenodd"/><path d="M1783.5 768.5 2148.5 768.5 2148.5 1133.64 2100.44 1133.64 2148.5 1194.5 2072.46 1194.5 2021.97 1133.64 1783.5 1133.64 1783.5 768.5ZM1844.33 829.357 1844.33 1072.79 2087.67 1072.79 2087.67 829.357 1844.33 829.357Z" stroke="#969B7F" stroke-width="4.58333" stroke-miterlimit="8" fill="#969B7F" fill-rule="evenodd"/><path d="M2210.5 768.5 2574.5 768.5 2574.5 829.333 2271.17 829.333 2271.17 1072.67 2574.5 1072.67 2574.5 1133.5 2210.5 1133.5 2210.5 768.5Z" stroke="#969B7F" stroke-width="4.58333" stroke-miterlimit="8" fill="#969B7F" fill-rule="evenodd"/><path d="M1598.5 1030.5 1701.5 1030.5 1701.5 1090.58 1632.83 1090.58 1632.83 1073.42 1684.33 1073.42 1684.33 1047.67 1615.67 1047.67 1615.67 1133.5 1598.5 1133.5 1598.5 1030.5Z" stroke="#969B7F" stroke-width="4.58333" stroke-miterlimit="8" fill="#969B7F" fill-rule="evenodd"/><path d="M2639.5 1030.5 2742.5 1030.5 2742.5 1090.58 2673.83 1090.58 2673.83 1073.42 2725.33 1073.42 2725.33 1047.67 2656.67 1047.67 2656.67 1116.33 2742.5 1116.33 2742.5 1133.5 2639.5 1133.5 2639.5 1030.5Z" stroke="#969B7F" stroke-width="4.58333" stroke-miterlimit="8" fill="#969B7F" fill-rule="evenodd"/><path d="M2760.5 1030.5 2862.5 1030.5 2862.5 1090.58 2794.5 1090.58 2794.5 1073.42 2845.5 1073.42 2845.5 1047.67 2777.5 1047.67 2777.5 1116.33 2862.5 1116.33 2862.5 1133.5 2760.5 1133.5 2760.5 1030.5Z" stroke="#969B7F" stroke-width="4.58333" stroke-miterlimit="8" fill="#969B7F" fill-rule="evenodd"/><path d="M2665.12 1262 2673 1262 2673 1325 2665.12 1325 2665.12 1316.86C2661.28 1322.95 2656.53 1326 2650.88 1326 2645.97 1326 2642.1 1324.1 2639.26 1320.29 2636.42 1316.49 2635 1311.32 2635 1304.77 2635 1297.59 2636.68 1291.79 2640.04 1287.36 2643.4 1282.93 2647.8 1280.71 2653.24 1280.71 2657.91 1280.71 2661.87 1282.68 2665.12 1286.62L2665.12 1262ZM2654.32 1286.62C2650.85 1286.62 2648.17 1288.14 2646.26 1291.17 2644.35 1294.21 2643.4 1298.48 2643.4 1304 2643.4 1314.2 2646.45 1319.3 2652.56 1319.3 2657.01 1319.3 2661.2 1316.52 2665.12 1310.96L2665.12 1292.52C2661.44 1288.59 2657.84 1286.62 2654.32 1286.62Z" fill="#969B7F" fill-rule="evenodd"/><path d="M2008.28 1272C2015.07 1272 2020.49 1274.46 2024.51 1279.37 2028.54 1284.28 2030.55 1290.88 2030.55 1299.17 2030.55 1305.14 2029.46 1310.29 2027.29 1314.61 2025.11 1318.93 2021.96 1322.16 2017.84 1324.32 2022.33 1327.49 2027.39 1329.74 2033 1331.06L2028.83 1338C2021.96 1335.28 2015.9 1331.34 2010.66 1326.17 2009.33 1326.25 2008.3 1326.29 2007.57 1326.29 2001.16 1326.29 1995.96 1323.79 1991.97 1318.79 1987.99 1313.78 1986 1307.24 1986 1299.17 1986 1290.88 1988.01 1284.28 1992.04 1279.37 1996.07 1274.46 2001.48 1272 2008.28 1272ZM2008.26 1277.97C2003.82 1277.97 2000.4 1279.81 1998.01 1283.48 1995.62 1287.16 1994.42 1292.37 1994.42 1299.13 1994.42 1305.91 1995.62 1311.14 1998.01 1314.81 2000.4 1318.48 2003.82 1320.32 2008.26 1320.32 2012.69 1320.32 2016.12 1318.48 2018.52 1314.81 2020.93 1311.14 2022.13 1305.91 2022.13 1299.13 2022.13 1292.37 2020.93 1287.16 2018.52 1283.48 2016.12 1279.81 2012.69 1277.97 2008.26 1277.97Z" fill="#969B7F" fill-rule="evenodd"/><path d="M2198.87 1273 2206.78 1273 2206.78 1282.4 2226.12 1282.4 2226.12 1288.34 2206.78 1288.34 2206.78 1310.66C2206.78 1313.15 2206.93 1314.86 2207.24 1315.8 2207.55 1316.74 2208.21 1317.55 2209.23 1318.25 2211.05 1319.45 2213.71 1320.06 2217.19 1320.06 2220.49 1320.06 2223.76 1319.68 2227 1318.93L2227 1324.96C2223.04 1325.65 2219.22 1326 2215.52 1326 2209.08 1326 2204.69 1324.84 2202.36 1322.53 2200.04 1320.21 2198.87 1315.83 2198.87 1309.38L2198.87 1288.34 2188 1288.34 2188 1282.4 2198.87 1282.4 2198.87 1273Z" fill="#969B7F" fill-rule="evenodd"/><path d="M1744 1274 1760.52 1274C1772.5 1274 1778.49 1277.95 1778.49 1285.85 1778.49 1288.87 1777.45 1291.47 1775.39 1293.66 1773.33 1295.84 1770.45 1297.4 1766.75 1298.33 1776.25 1300.26 1781 1304.75 1781 1311.8 1781 1315.83 1779.6 1318.98 1776.81 1321.26 1775 1322.77 1772.94 1323.77 1770.62 1324.26 1768.31 1324.76 1764.58 1325 1759.45 1325L1744 1325 1744 1274ZM1751.86 1279.88 1751.86 1296.06 1754.62 1296.06C1765.21 1296.06 1770.5 1293.12 1770.5 1287.24 1770.5 1284.35 1769.48 1282.4 1767.43 1281.39 1765.38 1280.39 1761.42 1279.88 1755.54 1279.88L1751.86 1279.88ZM1751.86 1300.95 1751.86 1319.12 1758.97 1319.12C1764.16 1319.12 1767.73 1318.59 1769.68 1317.53 1771.64 1316.47 1772.62 1314.52 1772.62 1311.68 1772.62 1308.4 1771.01 1305.79 1767.81 1303.85 1764.6 1301.92 1760.24 1300.95 1754.74 1300.95L1751.86 1300.95Z" fill="#969B7F" fill-rule="evenodd"/><path d="M2490 1274 2504.45 1274C2510.46 1274 2514.64 1274.49 2516.97 1275.47 2521.96 1277.51 2524.46 1281.12 2524.46 1286.28 2524.46 1289.83 2523.59 1292.8 2521.86 1295.17 2520.13 1297.54 2517.23 1299.75 2513.17 1301.79L2531 1325 2521.4 1325 2505.1 1303.77 2497.93 1303.77 2497.93 1325 2490 1325 2490 1274ZM2497.93 1279.88 2497.93 1297.89 2502.12 1297.89C2506.38 1297.89 2509.77 1296.96 2512.26 1295.1 2514.76 1293.24 2516.01 1290.73 2516.01 1287.57 2516.01 1284.62 2515.07 1282.61 2513.19 1281.52 2511.31 1280.43 2507.85 1279.88 2502.8 1279.88L2497.93 1279.88Z" fill="#969B7F" fill-rule="evenodd"/><path d="M1810.87 1281C1816.98 1281 1821.48 1282.78 1824.37 1286.35 1827.27 1289.92 1828.71 1295.47 1828.71 1303L1828.71 1305.5 1798.56 1305.5C1799.16 1315.26 1804.56 1320.13 1814.78 1320.13 1819.1 1320.13 1823.84 1319.13 1829 1317.12L1829 1323.3C1823.43 1325.1 1818.32 1326 1813.68 1326 1806.07 1326 1800.22 1324.1 1796.13 1320.29 1792.04 1316.48 1790 1311.04 1790 1303.96 1790 1297.27 1791.96 1291.77 1795.89 1287.46 1799.81 1283.15 1804.81 1281 1810.87 1281ZM1810.17 1286.87C1806.97 1286.87 1804.36 1287.99 1802.37 1290.24 1800.37 1292.48 1799.18 1295.62 1798.8 1299.63L1820.16 1299.63 1820.16 1298.52C1820.16 1290.75 1816.83 1286.87 1810.17 1286.87Z" fill="#969B7F" fill-rule="evenodd"/><path d="M2108.59 1281C2114.13 1281 2118.05 1282.09 2120.33 1284.27 2122.62 1286.45 2123.77 1290.21 2123.77 1295.55L2123.77 1313.68C2123.77 1316.29 2124.05 1318.06 2124.61 1319 2125.17 1319.95 2126.23 1320.42 2127.78 1320.42 2128.29 1320.42 2129.12 1320.29 2130.28 1320.02L2131 1324.72C2128.35 1325.57 2126.35 1326 2124.99 1326 2121.09 1326 2118.46 1324.01 2117.09 1320.02 2112.3 1324.01 2107.51 1326 2102.75 1326 2098.75 1326 2095.46 1324.87 2092.88 1322.61 2090.29 1320.35 2089 1317.5 2089 1314.04 2089 1309.55 2091.01 1305.94 2095.03 1303.2 2099.05 1300.46 2104.35 1299.1 2110.94 1299.1L2115.85 1299.1 2115.85 1295.39C2115.85 1292.33 2115.16 1290.15 2113.8 1288.85 2112.43 1287.55 2110.17 1286.9 2107.01 1286.9 2102.42 1286.9 2097.68 1288.17 2092.78 1290.73L2092.78 1283.99C2098.4 1282 2103.67 1281 2108.59 1281ZM2113.48 1304C2102.62 1304 2097.2 1306.91 2097.2 1312.73 2097.2 1314.83 2097.9 1316.51 2099.29 1317.79 2100.68 1319.06 2102.53 1319.7 2104.84 1319.7 2108.29 1319.7 2111.96 1318.11 2115.85 1314.92L2115.85 1304 2113.48 1304Z" fill="#969B7F" fill-rule="evenodd"/><path d="M2161.65 1281C2169.89 1281 2174 1285.85 2174 1295.55L2174 1325 2166.13 1325 2166.13 1297.69C2166.13 1294.33 2165.6 1291.95 2164.55 1290.53 2163.5 1289.12 2161.73 1288.41 2159.26 1288.41 2155.31 1288.41 2151.19 1291.23 2146.87 1296.86L2146.87 1325 2139 1325 2139 1281.95 2146.87 1281.95 2146.87 1290.04C2150.49 1284.01 2155.42 1281 2161.65 1281Z" fill="#969B7F" fill-rule="evenodd"/><path d="M2303.01 1281C2307.03 1281 2309.61 1284.01 2310.76 1290.04L2311.05 1290.04C2313.89 1284.01 2317.22 1281 2321.05 1281 2323.83 1281 2325.86 1281.98 2327.11 1283.95 2328.37 1285.92 2329 1289.1 2329 1293.49L2329 1325 2321.91 1325 2321.91 1293.8C2321.91 1291.45 2321.73 1289.85 2321.38 1289.01 2321.02 1288.16 2320.35 1287.74 2319.37 1287.74 2316.8 1287.74 2314.02 1290.9 2311.05 1297.21L2311.05 1325 2303.95 1325 2303.95 1295.23C2303.95 1292.27 2303.78 1290.3 2303.42 1289.3 2303.07 1288.31 2302.36 1287.82 2301.29 1287.82 2300.14 1287.82 2298.78 1288.72 2297.21 1290.53 2295.64 1292.34 2294.27 1294.6 2293.09 1297.29L2293.09 1325 2286 1325 2286 1281.95 2293.09 1281.95 2293.09 1290.04C2296.56 1284.01 2299.87 1281 2303.01 1281Z" fill="#969B7F" fill-rule="evenodd"/><path d="M2556.33 1281C2562.29 1281 2566.67 1282.78 2569.49 1286.35 2572.31 1289.92 2573.72 1295.47 2573.72 1303L2573.72 1305.5 2544.34 1305.5C2544.92 1315.26 2550.19 1320.13 2560.14 1320.13 2564.35 1320.13 2568.97 1319.13 2574 1317.12L2574 1323.3C2568.57 1325.1 2563.6 1326 2559.07 1326 2551.66 1326 2545.96 1324.1 2541.98 1320.29 2537.99 1316.48 2536 1311.04 2536 1303.96 2536 1297.27 2537.91 1291.77 2541.74 1287.46 2545.56 1283.15 2550.43 1281 2556.33 1281ZM2555.66 1286.87C2552.53 1286.87 2550 1287.99 2548.05 1290.24 2546.11 1292.48 2544.95 1295.62 2544.58 1299.63L2565.38 1299.63 2565.38 1298.52C2565.38 1290.75 2562.14 1286.87 2555.66 1286.87Z" fill="#969B7F" fill-rule="evenodd"/><path d="M2606.59 1281C2612.13 1281 2616.05 1282.09 2618.33 1284.27 2620.62 1286.45 2621.77 1290.21 2621.77 1295.55L2621.77 1313.68C2621.77 1316.29 2622.05 1318.06 2622.61 1319 2623.17 1319.95 2624.23 1320.42 2625.78 1320.42 2626.29 1320.42 2627.12 1320.29 2628.28 1320.02L2629 1324.72C2626.35 1325.57 2624.35 1326 2622.99 1326 2619.09 1326 2616.46 1324.01 2615.09 1320.02 2610.3 1324.01 2605.51 1326 2600.75 1326 2596.75 1326 2593.46 1324.87 2590.88 1322.61 2588.29 1320.35 2587 1317.5 2587 1314.04 2587 1309.55 2589.01 1305.94 2593.03 1303.2 2597.05 1300.46 2602.35 1299.1 2608.94 1299.1L2613.85 1299.1 2613.85 1295.39C2613.85 1292.33 2613.16 1290.15 2611.8 1288.85 2610.43 1287.55 2608.17 1286.9 2605.01 1286.9 2600.42 1286.9 2595.68 1288.17 2590.78 1290.73L2590.78 1283.99C2596.4 1282 2601.67 1281 2606.59 1281ZM2611.48 1304C2600.62 1304 2595.2 1306.91 2595.2 1312.73 2595.2 1314.83 2595.9 1316.51 2597.29 1317.79 2598.68 1319.06 2600.53 1319.7 2602.84 1319.7 2606.29 1319.7 2609.96 1318.11 2613.85 1314.92L2613.85 1304 2611.48 1304Z" fill="#969B7F" fill-rule="evenodd"/><path d="M2039 1282 2046.87 1282 2046.87 1309.29C2046.87 1312.67 2047.39 1315.06 2048.43 1316.48 2049.47 1317.89 2051.24 1318.59 2053.74 1318.59 2057.69 1318.59 2061.81 1315.77 2066.13 1310.12L2066.13 1282 2074 1282 2074 1325.01 2066.13 1325.01 2066.13 1316.93C2062.51 1322.98 2057.57 1326 2051.31 1326 2043.1 1326 2039 1321.14 2039 1311.43L2039 1282Z" fill="#969B7F" fill-rule="evenodd"/><path d="M2238 1282 2246.1 1282 2246.1 1309.29C2246.1 1312.67 2246.63 1315.06 2247.7 1316.48 2248.77 1317.89 2250.59 1318.59 2253.16 1318.59 2257.22 1318.59 2261.47 1315.77 2265.9 1310.12L2265.9 1282 2274 1282 2274 1325.01 2265.9 1325.01 2265.9 1316.93C2262.18 1322.98 2257.1 1326 2250.66 1326 2242.22 1326 2238 1321.14 2238 1311.43L2238 1282Z" fill="#969B7F" fill-rule="evenodd"/><path d="M2685 1282 2693.22 1282 2707.48 1314.17 2721.88 1282 2729 1282 2707 1330.8C2705.28 1334.6 2703.23 1337.25 2700.85 1338.75 2698.46 1340.25 2695.07 1341 2690.67 1341L2687.29 1341 2687.29 1335.1 2690.51 1335.1C2693.51 1335.1 2695.7 1334.63 2697.07 1333.67 2698.43 1332.71 2699.87 1330.66 2701.37 1327.49L2703.34 1323.35 2685 1282Z" fill="#969B7F" fill-rule="evenodd"/><path d="M1903 1313 1915 1313 1915 1325 1903 1325 1903 1313Z" fill="#969B7F" fill-rule="evenodd"/><path d="M2401 1313 2413 1313 2413 1325 2401 1325 2401 1313Z" fill="#969B7F" fill-rule="evenodd"/></g></svg>