<svg version="1.2" xmlns="http://www.w3.org/2000/svg" viewBox="0 0 1269 575" width="1269" height="575"><defs><clipPath clipPathUnits="userSpaceOnUse" id="cp1"><path d="m0 0h1269v575h-1269z"/></clipPath></defs><style>.a{fill:#d0cece;stroke:#d0cece;stroke-width:4.6}.b{fill:#969b7f;stroke:#969b7f;stroke-width:4.6}.c{fill:#969b7f}</style><g clip-path="url(#cp1)"><path fill-rule="evenodd" class="a" d="m210.5 27.5h364v365.1h-47.9l47.9 60.9h-75.8l-50.4-60.9h-237.8zm60.7 60.9v243.4h242.6v-243.4z"/><path fill-rule="evenodd" class="a" d="m636.5 27.5h364v60.8h-303.3v243.4h303.3v60.8h-364z"/><path fill-rule="evenodd" class="b" d="m187.5 2.5h365v365.1h-48.1l48.1 60.9h-76l-50.5-60.9h-238.5zm60.8 60.9v243.4h243.4v-243.4z"/><path fill-rule="evenodd" class="b" d="m614.5 2.5h364v60.8h-303.3v243.4h303.3v60.8h-364z"/><path fill-rule="evenodd" class="b" d="m2.5 264.5h103v60.1h-68.7v-17.2h51.5v-25.7h-68.6v85.8h-17.2z"/><path fill-rule="evenodd" class="b" d="m1043.5 264.5h103v60.1h-68.7v-17.2h51.5v-25.7h-68.6v68.6h85.8v17.2h-103z"/><path fill-rule="evenodd" class="b" d="m1164.5 264.5h102v60.1h-68v-17.2h51v-25.7h-68v68.6h85v17.2h-102z"/><path fill-rule="evenodd" class="c" d="m1069.1 496h7.9v63h-7.9v-8.1q-5.7 9.1-14.2 9.1-7.4 0-11.6-5.7-4.3-5.7-4.3-15.5 0-10.8 5-17.4 5.1-6.7 13.2-6.7 7 0 11.9 5.9zm-10.8 24.6q-5.2 0-8 4.6-2.9 4.5-2.9 12.8 0 15.3 9.2 15.3 6.6 0 12.5-8.3v-18.5q-5.5-5.9-10.8-5.9z"/><path fill-rule="evenodd" class="c" d="m412.3 506q10.2 0 16.2 7.4 6.1 7.3 6 19.8 0 8.9-3.2 15.4-3.3 6.5-9.5 9.7 6.8 4.8 15.2 6.8l-4.2 6.9q-10.3-4.1-18.1-11.8-2 0.1-3.1 0.1-9.6 0-15.6-7.5-6-7.5-6-19.6 0-12.5 6-19.8 6.1-7.4 16.3-7.4zm0 6q-6.7 0-10.3 5.5-3.6 5.5-3.6 15.6 0 10.2 3.6 15.7 3.6 5.5 10.3 5.5 6.6 0 10.2-5.5 3.6-5.5 3.6-15.7 0-10.1-3.6-15.6-3.6-5.5-10.2-5.5z"/><path fill-rule="evenodd" class="c" d="m602.9 507h7.9v9.4h19.3v5.9h-19.3v22.4q0 3.7 0.4 5.1 0.5 1.4 2 2.5 2.8 1.8 8 1.8 4.9 0 9.8-1.2v6.1q-5.9 1-11.5 1-9.6 0-13.1-3.5-3.5-3.4-3.5-13.1v-21.1h-10.9v-5.9h10.9z"/><path fill-rule="evenodd" class="c" d="m148 508h16.5q18 0 18 11.8 0 4.6-3.1 7.9-3.1 3.2-8.7 4.6 14.3 2.9 14.3 13.5 0 6-4.2 9.5-2.7 2.2-6.2 3-3.5 0.7-11.1 0.7h-15.5zm7.9 5.9v16.2h2.7q15.9 0 15.9-8.9 0-4.3-3.1-5.8-3-1.5-11.9-1.5zm0 21.1v18.1h7.2q7.7 0 10.7-1.6 2.9-1.6 2.9-5.8 0-4.9-4.8-7.9-4.8-2.8-13.1-2.8z"/><path fill-rule="evenodd" class="c" d="m894 508h14.4q9.1 0 12.6 1.5 7.5 3 7.5 10.8 0 5.3-2.6 8.9-2.6 3.5-8.7 6.6l17.8 23.2h-9.6l-16.3-21.2h-7.2v21.2h-7.9zm7.9 5.9v18h4.2q6.4 0 10.2-2.8 3.7-2.8 3.7-7.5 0-4.5-2.8-6.1-2.8-1.6-10.4-1.6z"/><path fill-rule="evenodd" class="c" d="m214.9 515q9.1 0 13.5 5.3 4.3 5.4 4.3 16.7v2.5h-30.1q0.9 14.6 16.2 14.6 6.5 0 14.2-3v6.2q-8.4 2.7-15.3 2.7-11.4 0-17.6-5.7-6.1-5.7-6.1-16.3 0-10.1 5.9-16.5 5.9-6.5 15-6.5zm-0.7 5.9q-4.8 0-7.8 3.3-3 3.4-3.6 9.4h21.4v-1.1q0-11.6-10-11.6z"/><path fill-rule="evenodd" class="c" d="m512.6 515q8.3 0 11.7 3.3 3.5 3.2 3.5 11.2v18.2q0 3.9 0.8 5.3 0.9 1.4 3.2 1.4 0.7 0 2.5-0.4l0.7 4.7q-4 1.3-6 1.3-5.9 0-7.9-6-7.2 6-14.4 6-6 0-9.8-3.4-3.9-3.4-3.9-8.6 0-6.7 6-10.8 6.1-4.1 15.9-4.1h4.9v-3.7q0-4.6-2-6.6-2.1-1.9-6.8-1.9-6.9 0-14.2 3.8v-6.7q8.4-3 15.8-3zm4.9 23q-16.3 0-16.3 8.7 0 3.2 2.1 5.1 2.1 1.9 5.5 1.9 5.2 0 11-4.8v-10.9z"/><path fill-rule="evenodd" class="c" d="m565.7 515q12.3 0 12.3 14.5v29.5h-7.9v-27.3q0-5-1.5-7.2-1.6-2.1-5.3-2.1-6 0-12.4 8.5v28.1h-7.9v-43h7.9v8q5.4-9 14.8-9z"/><path fill-rule="evenodd" class="c" d="m707 515q6 0 7.8 9h0.3q4.2-9 10-9 4.1 0 6 3 1.9 2.9 1.9 9.5v31.5h-7.1v-31.2q0-3.5-0.5-4.8-0.6-1.3-2-1.3-3.9 0-8.3 9.5v27.8h-7.2v-29.8q0.1-4.4-0.5-5.9-0.5-1.5-2.1-1.5-1.7 0-4.1 2.7-2.3 2.7-4.1 6.8v27.7h-7.1v-43h7.1v8q5.2-9 9.9-9z"/><path fill-rule="evenodd" class="c" d="m960.3 515q9 0 13.2 5.3 4.2 5.4 4.2 16.7v2.5h-29.4q0.9 14.6 15.8 14.6 6.4 0 13.9-3v6.2q-8.1 2.7-14.9 2.7-11.1 0-17.1-5.7-6-5.7-6-16.3 0-10.1 5.7-16.5 5.8-6.5 14.6-6.5zm-0.6 5.9q-4.7 0-7.6 3.3-3 3.4-3.5 9.4h20.8v-1.1q0-11.6-9.7-11.6z"/><path fill-rule="evenodd" class="c" d="m1010.6 515q8.3 0 11.7 3.3 3.5 3.2 3.5 11.2v18.2q0 3.9 0.8 5.3 0.9 1.4 3.2 1.4 0.7 0 2.5-0.4l0.7 4.7q-4 1.3-6 1.3-5.9 0-7.9-6-7.2 6-14.4 6-6 0-9.8-3.4-3.9-3.4-3.9-8.6 0-6.7 6-10.8 6.1-4.1 15.9-4.1h4.9v-3.7q0-4.6-2-6.6-2.1-1.9-6.8-1.9-6.9 0-14.2 3.8v-6.7q8.4-3 15.8-3zm4.9 23q-16.3 0-16.3 8.7 0 3.2 2.1 5.1 2.1 1.9 5.5 1.9 5.2 0 11-4.8v-10.9z"/><path fill-rule="evenodd" class="c" d="m443 516h7.9v27.3q0 5.1 1.5 7.2 1.6 2.1 5.3 2.1 6 0 12.4-8.5v-28.1h7.9v43h-7.9v-8.1q-5.4 9.1-14.8 9.1-12.3 0-12.3-14.6z"/><path fill-rule="evenodd" class="c" d="m642 516h8.1v27.3q0 5.1 1.6 7.2 1.6 2.1 5.5 2.1 6.1 0 12.7-8.5v-28.1h8.1v43h-8.1v-8.1q-5.6 9.1-15.2 9.1-12.7 0-12.7-14.6z"/><path fill-rule="evenodd" class="c" d="m1089 516h8.2l14.3 32.2 14.4-32.2h7.1l-22 48.8q-2.6 5.7-6.2 8-3.5 2.2-10.1 2.2h-3.4v-5.9h3.2q4.5 0 6.6-1.4 2-1.5 4.3-6.2l1.9-4.2z"/><path fill-rule="evenodd" class="c" d="m307 547h12v12h-12z"/><path fill-rule="evenodd" class="c" d="m805 547h12v12h-12z"/></g></svg>
