<svg version="1.2" xmlns="http://www.w3.org/2000/svg" viewBox="0 0 1014 326">
	<defs>
		<linearGradient id="P" gradientUnits="userSpaceOnUse" />
		<linearGradient id="g1" x1="179.5" y1="287.6" x2="244.2" y2="176.4" href="#P">
			<stop stop-color="#1f2772" />
			<stop offset=".78" stop-color="#0071b4" />
			<stop offset="1" stop-color="#0071b4" />
		</linearGradient>
		<linearGradient id="g2" x1="213.2" y1="194.8" x2="154" y2="89.6" href="#P">
			<stop stop-color="#456e1c" />
			<stop offset=".22" stop-color="#456e1c" />
			<stop offset="1" stop-color="#8cc63f" />
		</linearGradient>
		<linearGradient id="g3" x1="201.9" y1="306.9" x2="79.3" y2="304.1" href="#P">
			<stop stop-color="#28aae1" />
			<stop offset=".22" stop-color="#28aae1" />
			<stop offset="1" stop-color="#004762" />
		</linearGradient>
		<linearGradient id="g4" x1="27.5" y1="118.2" x2="149.6" y2="117.1" href="#P">
			<stop stop-color="#df1957" />
			<stop offset=".22" stop-color="#df1957" />
			<stop offset="1" stop-color="#8a002a" />
		</linearGradient>
		<linearGradient id="g5" x1="75.1" y1="332.9" x2="14.9" y2="227.2" href="#P">
			<stop stop-color="#ef4142" />
			<stop offset=".22" stop-color="#ef4142" />
			<stop offset="1" stop-color="#841c10" />
		</linearGradient>
		<linearGradient id="g6" x1="-10.8" y1="237.5" x2="51.1" y2="135.7" href="#P">
			<stop stop-color="#fbb03f" />
			<stop offset=".22" stop-color="#fbb03f" />
			<stop offset="1" stop-color="#aa6a27" />
		</linearGradient>
	</defs>
	<style>
		.a{fill:url(#g1)}.b{fill:url(#g2)}.c{fill:url(#g3)}.d{fill:url(#g4)}.e{fill:url(#g5)}.f{fill:url(#g6)}.g{fill:#01411c}</style>
	<path fill-rule="evenodd"
		d="m293 186.3v-30.1q0-3.2 0.7-6.7 0.7-3.5 2.3-7 1.5-3.4 3.9-6.6 2.5-3.2 5.9-5.6 3.5-2.4 8-3.8 4.6-1.5 10.3-1.5h60.3v22.3h-60.3q-4.4 0-6.6 2.2-2.3 2.2-2.3 6.9v29.9q0 4.4 2.3 6.7 2.3 2.3 6.8 2.3h60.1v22.2h-60.3q-4.6 0-10.1-1.6-5.5-1.6-10.1-5.3-4.7-3.8-7.8-9.7-3.1-5.9-3.1-14.6zm107.3 0v-30.1q0-8.6 3.1-14.5 3.1-6 7.8-9.7 4.6-3.7 10.1-5.3 5.5-1.7 10.1-1.7h40.2q8.5 0 14.5 3.1 6 3.1 9.7 7.8 3.7 4.6 5.3 10.1 1.7 5.5 1.7 10.2v30.1q0 5.7-1.5 10.3-1.4 4.6-3.8 8.1-2.4 3.4-5.6 5.9-3.1 2.4-6.6 3.9-3.5 1.6-7 2.3-3.6 0.7-6.7 0.7h-40.2q-4.6 0-10.1-1.6-5.5-1.6-10.1-5.3-4.7-3.8-7.8-9.7-3.1-5.9-3.1-14.6zm22.2-30.1v30.1q0 4.4 2.3 6.7 2.3 2.3 6.8 2.3h40q4.5 0 6.7-2.3 2.2-2.3 2.2-6.7v-29.9q0-4.7-2.3-6.9-2.3-2.2-6.6-2.2h-40q-4.5 0-6.8 2.2-2.3 2.3-2.3 6.7zm98.2 30.1v-30.1q0-8.6 3.1-14.5 3.1-6 7.8-9.7 4.6-3.7 10.1-5.3 5.5-1.7 10.1-1.7h40.2v22.3h-40q-4.5 0-6.8 2.2-2.3 2.3-2.3 6.7v29.9q0 4.6 2.3 6.9 2.3 2.3 6.6 2.3h40.2q4.5 0 6.7-2.3 2.3-2.3 2.3-6.7v-100.4h22.2v100.4q0 5.7-1.5 10.3-1.4 4.6-3.8 8.1-2.4 3.4-5.6 5.9-3.1 2.4-6.6 3.9-3.5 1.6-7 2.3-3.6 0.7-6.7 0.7h-40.2q-5.7 0-10.2-1.4-4.6-1.5-8-3.9-3.5-2.4-5.9-5.6-2.5-3.2-4-6.6-1.6-3.5-2.3-7.1-0.7-3.5-0.7-6.6zm121.8 0.6v-31.2q0-4.7 1.7-10 1.6-5.4 5.2-9.9 3.7-4.6 9.5-7.7 5.9-3.1 14.3-3.1h40.1q4.6 0 10 1.7 5.3 1.6 9.9 5.2 4.6 3.7 7.7 9.5 3 5.9 3 14.3 0 4.6-1.6 9.9-1.6 5.4-5.2 10-3.7 4.5-9.5 7.6-5.9 3.1-14.3 3.1h-40.1v-21.1h40.1q4.5 0 7-2.8 2.5-2.8 2.5-6.9 0-4.4-2.8-6.8-2.7-2.5-6.7-2.5h-40.1q-4.6 0-7 2.7-2.5 2.8-2.5 6.9v31.1q0 4.4 2.8 6.9 2.7 2.5 6.8 2.5h40v21.2h-40.1q-4.6 0-10-1.6-5.3-1.6-9.9-5.3-4.6-3.6-7.7-9.4-3.1-5.9-3.1-14.3zm114.5-0.6v-30.1q0-3.2 0.8-6.7 0.7-3.5 2.2-7 1.6-3.4 4-6.6 2.5-3.2 5.9-5.6 3.5-2.4 8-3.8 4.6-1.5 10.3-1.5h40.1q3.2 0 6.7 0.8 3.6 0.7 7.1 2.2 3.4 1.6 6.6 4 3.2 2.4 5.6 5.9 2.4 3.5 3.8 8 1.5 4.5 1.5 10.3v70.2q0 5.8-1.5 10.4-1.4 4.5-3.8 8-2.4 3.5-5.6 5.9-3.2 2.4-6.6 4-3.5 1.5-7.1 2.2-3.5 0.8-6.7 0.8h-40.1v-22.3h40.1q4.6 0 6.8-2.3 2.2-2.3 2.2-6.7v-70.2q0-4.4-2.2-6.7-2.2-2.2-6.8-2.2h-40.1q-4.1 0-6.5 2.5-2.4 2.5-2.4 6.4v30.1q0 4.4 2.3 6.7 2.3 2.3 6.8 2.3h39.9v22.2h-40.1q-3.2 0-6.7-0.7-3.5-0.7-7-2.3-3.4-1.5-6.6-3.9-3.2-2.5-5.5-5.9-2.4-3.5-3.9-8.1-1.5-4.6-1.5-10.3zm145.5 31.2h-22.2v-92.5h22.2zm0-111.5h-22.2v-20.1h22.2zm19.4 80.3v-30.2q0-3.1 0.8-6.6 0.7-3.5 2.3-7 1.5-3.5 3.9-6.7 2.5-3.1 5.9-5.5 3.5-2.4 8-3.9 4.6-1.4 10.3-1.4h60.3v22.2h-60.3q-4.4 0-6.6 2.3-2.3 2.2-2.3 6.8v30q0 4.3 2.3 6.6 2.3 2.3 6.8 2.3h60.1v22.3h-60.3q-4.6 0-10.1-1.6-5.5-1.7-10.1-5.4-4.7-3.7-7.8-9.6-3.2-6-3.2-14.6z" />
	<path class="a"
		d="m222.6 174.9l-61.2 104.7h39.5 5.3c14.1-19 22.5-42.5 22.5-68 0-12.9-2.2-25.2-6.1-36.7z" />
	<path class="b" d="m156.3 133.9l40.9 71.6 19.8-33.9 2.7-4.6c-14.6-34.3-45.5-59.9-82.9-67.3z" />
	<path class="c"
		d="m161.4 286.1h-82.9l22.1 38.7c4.6 0.5 9.3 0.9 14 0.9 34.5 0 65.5-15.4 86.3-39.6z" />
	<path class="d"
		d="m28.2 137.1h39.6 82.8l-22-38.7c-4.6-0.6-9.3-0.9-14-0.9-34.6 0-65.4 15.3-86.4 39.6z" />
	<path class="e" d="m9.5 256.1c14.6 34.3 45.5 60 82.9 67.4l-19.5-34.2-40.9-71.7z" />
	<path class="f"
		d="m23 143.5c-14.1 19.1-22.5 42.6-22.5 68.1 0 12.8 2.2 25.2 6.1 36.7l19.8-34 41.4-70.8z" />
	<path class="g"
		d="m53.6 107.3v-24.7c0-33.7 27.4-61.2 61.1-61.2 33.7 0 61.2 27.5 61.2 61.2v24.7c7.6 4.5 14.6 9.7 21 15.7v-40.4c0-45.3-36.8-82.2-82.2-82.2-45.3 0-82.2 36.9-82.2 82.2v40.4c6.4-6 13.5-11.2 21.1-15.7z" />
	<path class="g"
		d="m134.8 195.2c0-10.9-8.8-19.7-19.7-19.7-10.9 0-19.8 8.8-19.8 19.7 0 8 4.7 14.8 11.5 17.9l-11.5 34.1h39.5l-11.4-34.1c6.7-3.1 11.4-9.9 11.4-17.9z" />
</svg>