<svg xmlns="http://www.w3.org/2000/svg" viewBox="0 0 191 136"><style>.b{fill:#2c2e35}</style><path fill-rule="evenodd" d="M12.7 116v1.9H7.6v12.9H5.5v-12.9H.4V116zm10.1-3.2q.4 0 .7.3.3.2.3.7 0 .4-.3.7t-.7.3-.7-.3-.3-.7q0-.5.3-.8.3-.2.7-.2m-4.1 0q.4 0 .7.3.3.2.3.7 0 .4-.3.7-.2.3-.7.3-.4 0-.7-.3t-.3-.7q0-.5.3-.8.3-.2.7-.2M25 116h2.1v8.4q0 1.7-.2 2.6-.3.8-.7 1.4-.3.6-.8 1-1.8 1.5-4.6 1.5-2.9 0-4.7-1.5-.5-.4-.8-1-.4-.6-.7-1.4-.2-.8-.2-2.6V116h2.1v8.4q0 2.1.5 2.9t1.5 1.3q.9.5 2.2.5 1.9 0 3.1-1 .6-.5.9-1.2.3-.8.3-2.5zm14.4 0h2.1l-6.3 14.8h-.4L28.4 116h2.1l4.5 10.4zm12.3-.1h1.4l6.7 14.8h-2.2l-2-4.4h-6.3l-1.8 4.4h-2.2zm3.1 8.6-2.4-5.3-2.2 5.3zm16.9-8.5h2.1v8.4q0 1.7-.2 2.5-.3.9-.6 1.5-.4.6-.9 1-1.8 1.5-4.6 1.5-2.9 0-4.6-1.5-.6-.4-.9-1-.4-.6-.6-1.4-.3-.9-.3-2.6V116h2.2v8.4q0 2.1.4 2.9.5.8 1.5 1.3t2.3.5q1.9 0 3-1 .7-.5.9-1.3.3-.7.3-2.4zm8.7 8.6-1.6-1q-1.5-.9-2.1-1.8-.7-.9-.7-2.1 0-1.7 1.2-2.8t3.2-1.1q1.8 0 3.4 1v2.4q-1.6-1.5-3.5-1.5-1 0-1.7.5-.6.5-.6 1.2t.5 1.2q.5.6 1.5 1.3l1.7.9q2.7 1.6 2.7 4.1 0 1.8-1.2 2.9t-3.1 1.1q-2.2 0-4-1.3v-2.7q1.7 2.2 4 2.2.9 0 1.6-.6t.7-1.4q0-1.3-2-2.5m5-8.6h12.3v1.8h-5.1v12.9h-2.1v-12.9h-5.1zm14.4 14.8v-14.7h3.7q2.2 0 3.6 1.1 1.3 1.1 1.3 3 0 1.3-.7 2.2-.6.9-1.8 1.4.7.5 1.4 1.3.6.8 1.9 2.8.7 1.2 1.2 1.9l.8 1h-2.5l-.7-.9q0-.1-.1-.2l-.4-.6-.7-1.1-.7-1.1q-.6-.9-1.2-1.5-.5-.5-1-.8-.4-.2-1.4-.2h-.6v6.4zm2.8-12.9h-.7v4.6h.8q1.6 0 2.2-.3.6-.2 1-.8.3-.5.3-1.2t-.4-1.3q-.3-.6-1-.8t-2.2-.2m10.2-1.8h2.2v14.7h-2.2zm10.2-.1h1.4l6.7 14.9h-2.2l-2-4.4h-6.3l-1.8 4.4h-2.2zm3.1 8.6-2.4-5.4-2.2 5.4zm18.9-1h5v6.2q-2.8 1.2-5.5 1.2-3.6 0-5.8-2.1-2.2-2.2-2.2-5.3 0-3.3 2.3-5.5 2.2-2.2 5.7-2.2 1.2 0 2.3.2 1.1.3 2.9 1v2.2q-2.7-1.5-5.3-1.5-2.4 0-4.1 1.6-1.6 1.7-1.6 4.1 0 2.5 1.6 4.1 1.7 1.6 4.3 1.6 1.3 0 3-.6l.2-.1v-3.1H145zm9.4-2.4v2.2l.1-.2q1.4-2.2 2.8-2.2 1.1 0 2.3 1.1l-1 1.7q-1.1-1-1.9-1-.9 0-1.6.9t-.7 2.1v5.1h-1.9v-9.7zm10.3 0q2.2 0 3.6 1.4 1.5 1.4 1.5 3.6 0 2.1-1.5 3.5t-3.7 1.4-3.7-1.4-1.5-3.6q0-2.1 1.5-3.5t3.8-1.4m-.1 1.7q-1.4 0-2.3.9t-.9 2.3.9 2.3 2.3.9q1.5 0 2.4-.9t.9-2.3-1-2.3q-.9-.9-2.3-.9m13.1 8v-1.2q-.6.6-1.4 1t-1.6.4q-.9 0-1.7-.5-.7-.4-1.1-1.2t-.4-2.6v-5.6h1.9v5.5q0 1.6.4 2.2.5.6 1.6.6 1.3 0 2.3-1.4v-6.9h1.9v9.7zm4.5 5v-14.7h3.4q2.6 0 4 1.3 1.5 1.3 1.5 3.6 0 2.2-1.4 3.6-1.3 1.4-3.4 1.4-1 0-2.1-.4v5.2zm3.3-12.9h-1.3v6q.8.4 1.8.4 1.4 0 2.2-.9.9-1 .9-2.4 0-1-.4-1.7-.4-.8-1.1-1.1t-2.1-.3" style="fill:#6e7979"/><path d="m113.9 45.8-.5 2.2c-.5 1.9-1.2 4.6-5.3 8-4.8 4-12.8 5.4-19 5.3-6.3 0-12.8-.6-17.2-4.2-4.4-3.8-3.9-8.2-3.7-9.6 0 0 .1-.6.2-1.4 1.4-6.4 6.3-31.4 6.3-31.4h12s-5.6 28.5-5.9 29.8c-.3 1.7 0 2.9 1.3 3.5 2.4 1.2 6.3 1.6 8.7 1.6 5-.3 7.5-1.3 8.7-1.9 1.3-.5 2.1-1.6 2.6-3.5v.1l5.7-29.6h12zm-45.8-20H51.5l-6.8 34.8H32.5l6.8-34.8h-17l2.2-11.1h45.8zM122.5.5l-1.4 7.8H75.8L77.4.5z" class="b"/><path d="m181.3.6-44 62.8-15.6-48.7h12.5l7.1 21.9 25.2-36z" style="fill:#ff401b"/><path d="M42.2 75.8v2.8h-5.4v11.8h-3.6V78.6h-5.3v-2.8zm8.1 0h5.6v2.8H54v3.2h1.9v2.9c-.2-.1-.5-.2-.9-.2h-1v5.9h-3.7zm5.6 0h1c1.4 0 2.6.4 3.5 1.3q1.3 1.1 1.3 2.9c0 1.5-.9 2.7-2.5 3.4.5.3 1.2 1.1 1.7 2.2.8 1.5 1.6 3.1 2.2 4.7h-3.9c-.7-1.5-1.3-2.8-2-4.2-.4-.7-.9-1.2-1.3-1.5v-2.8q2 0 2-1.7 0-1.6-2-1.6zm25.8 0h3.7V84c0 2.3-.8 4-2.2 5.1-1.3 1-3 1.4-5.3 1.4-2.1 0-3.9-.5-5.2-1.5-1.3-1.2-2.1-2.9-2.1-5v-8.2h3.7v8.3c0 1.1.4 1.8 1 2.5.7.5 1.6.8 2.6.8 1.1 0 2-.3 2.7-.8.7-.6 1.1-1.5 1.1-2.7zm22.5.9v2.9q-2.9-1.3-4.5-1.3-1 0-1.7.3c-.3.2-.5.4-.5.9s.6 1.1 1.9 1.5q2.8 1.1 3.6 1.6c1.2.8 1.9 2 1.9 3.4q0 2.1-1.5 3.3c-1 .7-2.4 1.2-4.1 1.2-1.2 0-2.2-.1-3-.5q-.9-.3-2.3-.9v-3.2c1.1.8 1.9 1.2 2.7 1.5q1.2.4 2.3.4c1.4 0 2.2-.5 2.2-1.4q0-.9-2-1.6c-2-.8-3-1.3-3.6-1.6-1.2-.7-1.8-1.9-1.8-3.4 0-1.3.4-2.3 1.5-3.1 1-.7 2.3-1.2 4-1.2 1.5 0 3.2.5 4.9 1.2m19.1-.9v2.7h-5.2v11.8h-3.7V78.5h-5.3v-2.7zm17.9 14.5h-3.6V75.8h3.6zm19.4-14.6v2.8h-5.3v11.8h-3.6V78.5h-5.3v-2.8z" class="b"/></svg>