<svg xmlns="http://www.w3.org/2000/svg" xml:space="preserve" id="Layer_1" viewBox="0 0 393.2 185.8"><style>.st0{fill:#1e3a6e}.st1{fill:#676767}.st2{fill:#888b8d}</style><path d="M383.3 12.5H381v6.4h-1.5v-6.4h-2.3v-1.2h6.1zm5.7 4.2 2.1-5.4h2.1v7.6h-1.4V13l-2.3 5.9h-1l-2.3-5.9v5.9h-1.4v-7.6h2.1z" class="st0"/><path d="M162.6 52.2c-5 0-7.4-1.9-7.4-7.5s2.4-7.4 7.4-7.4 7.4 1.9 7.4 7.4-2.4 7.5-7.4 7.5" class="st1"/><path d="M362.7 139.7H170c-5.6 0-10-4.6-10-10v-21.8h5.6v21.8c0 2.5 2 4.6 4.6 4.6h192.7c2.5 0 4.5-2 4.5-4.6V10c0-2.5-2-4.6-4.5-4.6H170c-2.5 0-4.6 2-4.6 4.6v18.3h-5.6V10c0-5.6 4.6-10 10-10h192.7c5.6 0 10 4.6 10 10v119.5c.4 5.7-4.2 10.2-9.8 10.2" class="st1"/><path d="M0 38.4h13.6l12.1 28.4 11.6-28.4h14.1v60.4H37V65.5l-7.7 18.3h-7.4l-8.3-19.1v34H0zM72.3 38.4h15.8L104 98.8H89.5l-2.8-13.3H72.6l-3 13.3H55.8zM84 74.3l-4.4-20.2L75 74.3zM105.7 64.6c-.2-4.4.5-8.8 1.9-12.9 1.1-3.1 3-6.1 5.5-8.3s5.3-3.6 8.5-4.5c3.6-.9 7.4-1.4 11.1-1.2 2.2 0 4.6.2 6.7.3 2.2.3 4.2.6 6.1.9v11.8c-3.4-.9-7.1-1.4-10.8-1.4-1.9 0-3.8.2-5.5.5-1.6.3-3.1.9-4.4 1.9-1.2 1.1-2.4 2.5-2.8 4.1-.8 2.3-1.1 4.9-.9 7.4v11c-.2 2.5.3 4.9.9 7.4.5 1.6 1.4 3 2.7 4.1 1.1.9 2.5 1.6 3.9 1.9 1.6.3 3.1.5 4.7.5h2.3V74.6h-6V63.5h18.8V98c-1.9.3-4.1.6-6.7.9-2.8.3-5.8.5-8.6.5-3.8 0-7.5-.5-11.1-1.4-3.1-.8-6.1-2.3-8.5-4.6-2.5-2.2-4.4-5.2-5.5-8.3-1.4-4.1-2-8.5-1.9-12.9zM155.7 58.3h13.6v40.5h-13.6zM176.1 64.6c-.2-4.4.5-8.8 1.9-12.9 1.1-3.1 2.8-6 5.2-8.3 2.2-2 5-3.6 8-4.5 3.3-.9 6.7-1.4 10.2-1.2 3.8 0 7.5.3 11.3 1.2v11.8c-1.6-.5-3-.8-4.5-.9-1.6-.2-3.1-.3-4.7-.2-1.6 0-3 .2-4.4.5s-2.7.9-3.6 1.9c-1.1 1.1-2 2.5-2.5 4.1-.8 2.3-1.1 4.9-.9 7.4v11c-.2 2.5.3 4.9.9 7.4.5 1.6 1.4 3 2.7 4.1 1.1.9 2.4 1.6 3.8 1.9s3 .5 4.6.5c1.7 0 3.5 0 5.2-.3 1.4-.2 2.8-.3 4.2-.8v11.6c-1.9.5-3.8.8-5.8.9-1.9.2-3.8.3-5.8.3-3.4 0-6.9-.5-10.2-1.4-3-.8-5.8-2.3-8-4.6-2.4-2.3-4.2-5.2-5.3-8.3-1.4-4.1-2-8.5-1.9-12.9zM232.4 38.4h15.8L264 98.8h-14.4l-3-13.3h-14.1l-3 13.3h-13.8zm11.9 35.9-4.4-20.2-4.7 20.2zM268.4 38.4h22c12.2 0 18.4 6 18.4 18 0 2.8-.5 5.8-1.6 8.5-.9 2.3-2.7 4.4-4.9 5.8 1.7 1.1 3 2.8 3.8 4.7.8 2 1.1 4.2 1.1 6.4v16.9h-14.3V82.6c0-1.4-.3-3-.8-4.4-.6-1.4-2-2-3.6-1.9h-5.6v22.4h-14.3V38.4zm20.4 27.1c1.4 0 2.7-.6 3.5-1.7.9-1.9 1.4-3.9 1.2-6.1 0-3.1-.5-5.2-1.2-6.3s-2.2-1.7-3.6-1.7h-5.8v15.8zM315.3 98.8V38.4h20.1c3.3 0 6.4.5 9.6 1.4 2.8.9 5.3 2.5 7.4 4.5 2.2 2.3 3.8 5.3 4.9 8.5 1.2 4.1 1.9 8.5 1.7 12.9v6.1c.2 4.4-.5 8.6-1.7 12.9-.9 3.1-2.7 6-4.9 8.5-2 2.2-4.5 3.8-7.4 4.6-3 .9-6.3 1.4-9.4 1.4zM329.8 87h3.8c1.4 0 2.8-.2 4.1-.5 1.2-.3 2.4-1.1 3.1-2.2.9-1.2 1.6-2.8 1.9-4.4.5-2.5.8-4.9.6-7.4v-7.8c0-2.5-.2-5-.6-7.4-.3-1.6-.9-3.1-1.9-4.4-.8-1.1-1.9-1.7-3-2.2-1.4-.5-2.8-.6-4.1-.6h-3.9z" class="st0"/><path d="M228.3 161.3h3v7c.2-.3.5-.6.8-.9s.6-.5 1-.7.8-.3 1.1-.4c.4-.1.8-.1 1.2-.1 1.1 0 2 .2 2.8.6s1.5.9 2 1.6.9 1.4 1.2 2.3.4 1.8.4 2.9c0 .9-.1 1.8-.4 2.7s-.6 1.6-1.1 2.3-1.1 1.2-1.9 1.6-1.6.6-2.6.6c-.5 0-.9 0-1.4-.1s-.9-.2-1.4-.4c-.4-.2-.8-.4-1.2-.7s-.6-.7-.9-1.1v1.9H228zm10.6 12.2c0-.6-.1-1.2-.2-1.8-.2-.6-.4-1.1-.7-1.6s-.7-.8-1.2-1.1-1-.4-1.6-.4c-1.3 0-2.2.4-2.9 1.3s-1 2.1-1 3.6c0 .7.1 1.3.2 1.9s.4 1.1.8 1.5c.3.4.7.8 1.2 1s1 .4 1.6.4c.7 0 1.3-.1 1.8-.4s.9-.6 1.2-1.1c.3-.4.5-1 .7-1.6.1-.5.1-1.1.1-1.7M243 166.6h3.3l3.6 10.3 3.5-10.3h3.2l-5.4 14.5c-.2.6-.5 1.2-.7 1.8q-.3.9-.9 1.5c-.4.4-.8.8-1.3 1-.5.3-1.2.4-2 .4-.7 0-1.4-.1-2.1-.2V183c.2 0 .5.1.7.1s.5.1.7.1c.4 0 .6 0 .9-.1.2-.1.4-.2.6-.4s.3-.4.4-.6.2-.5.3-.8l.4-1.1zM268.2 169.5c.4-3 3-5.4 6.1-5.4s5.7 2.3 6.1 5.4h5.6c2 0 2.1-2 2.1-2v-5.3s0-2.1-2.4-2.1h-20.5v9.4zM285.7 171h-5.3c-.3 3.1-3 5.5-6.1 5.5s-5.8-2.4-6.1-5.5h-2.9v9.4h20.8c2 0 2.1-2 2.1-2v-5.3c-.1 0-.1-2.1-2.5-2.1" class="st2"/><path d="M274.3 165.6c-2.6 0-4.7 2.1-4.7 4.7s2.1 4.7 4.7 4.7 4.7-2.1 4.7-4.7-2.1-4.7-4.7-4.7M307 169.3s2.7-.7 2.7-4.1c0-2.2-1.9-5.1-5.3-5.1h-8.3v20.3h9.1s5.7.2 5.7-5.8c0-4-3.9-5.3-3.9-5.3m-7.9-6.2h4.7c2.9 0 2.9 2.6 2.9 2.6s0 2.8-3 2.8h-4.6zm5.3 14.2h-5.3v-6.1h5.5c3.3 0 3.3 3.1 3.3 3.1s-.1 3-3.5 3M348.3 160.1h-6.7v17.3h-.8l-6.7-17.3h-3.4l-7.2 18.2-4-5.6s5.1-.6 5.1-6.1c0-3.9-2.7-6.5-6.9-6.5H311v20.3h3.1v-9.6l7 9.6h5l6.2-15.8 5 12.9h-8.6l-1.2 3h21.7c4.7 0 9.3-3.9 9.5-10.2.1-5.1-3.8-10.2-10.4-10.2m-34.1 10.4v-7.3h3.7c1.6 0 3.5 1 3.5 3.6 0 3.7-3.3 3.8-4.5 3.8-.9-.1-2.7-.1-2.7-.1m34.7 6.9h-4.2v-14.2h4.2c3.1 0 6.7 2.8 6.7 7.2 0 4.3-3.9 7-6.7 7" class="st2"/><path d="m355.2 160.1 7 13.7v6.6h3.2v-6.6l7.2-13.7H369l-5.1 10.1-5.1-10.1zM368.4 178.1h.4c.3 0 .5 0 .5.3s-.2.3-.5.3h-.5zm-.3 1.6h.3v-.7h.4l.5.7h.4l-.5-.8c.4-.1.5-.3.5-.6 0-.4-.3-.5-.6-.5h-.9z" class="st2"/><path d="M368.9 177.2c-.9 0-1.6.7-1.6 1.6s.7 1.6 1.6 1.6 1.6-.7 1.6-1.6-.7-1.6-1.6-1.6m0 3c-.8 0-1.4-.6-1.4-1.4s.6-1.4 1.4-1.4 1.4.6 1.4 1.4-.6 1.4-1.4 1.4" class="st2"/></svg>