<?xml version="1.0" encoding="utf-8"?>
<!-- Generator: Adobe Illustrator 27.8.0, SVG Export Plug-In . SVG Version: 6.00 Build 0)  -->
<svg version="1.1" id="Layer_1" 
  xmlns="http://www.w3.org/2000/svg" 
  xmlns:xlink="http://www.w3.org/1999/xlink" viewBox="0 0 393.2 185.8" xml:space="preserve">
  <style type="text/css">
	.st0{fill:#1E3A6E;}
	.st1{fill:#676767;}
	.st2{fill:#888B8D;}
</style>
  <g>
    <g>
      <path class="st0" d="M383.3,12.5H381v6.4h-1.5v-6.4h-2.3v-1.2h6.1V12.5z M389,16.7l2.1-5.4h2.1v7.6h-1.4v-5.9h0l-2.3,5.9h-1
			l-2.3-5.9h0v5.9h-1.4v-7.6h2.1L389,16.7z"/>
    </g>
    <g>
      <path class="st1" d="M162.6,52.2c-5,0-7.4-1.9-7.4-7.5s2.4-7.4,7.4-7.4s7.4,1.9,7.4,7.4S167.6,52.2,162.6,52.2z"/>
      <path class="st1" d="M362.7,139.7H170c-5.6,0-10-4.6-10-10v-21.8h5.6v21.8c0,2.5,2,4.6,4.6,4.6l0,0h192.7c2.5,0,4.5-2,4.5-4.6l0,0
			V10c0-2.5-2-4.6-4.5-4.6l0,0H170c-2.5,0-4.6,2-4.6,4.6l0,0v18.3h-5.6V10c0-5.6,4.6-10,10-10l0,0h192.7c5.6,0,10,4.6,10,10v119.5
			C372.9,135.2,368.3,139.7,362.7,139.7z"/>
      <path class="st0" d="M0,38.4h13.6l12.1,28.4l11.6-28.4h14.1v60.4H37V65.5l-7.7,18.3h-7.4l-8.3-19.1v34H0V38.4z"/>
      <path class="st0" d="M72.3,38.4h15.8L104,98.8H89.5l-2.8-13.3H72.6l-3,13.3H55.8L72.3,38.4z M84,74.3l-4.4-20.2l-4.6,20.2H84z"/>
      <path class="st0" d="M105.7,64.6c-0.2-4.4,0.5-8.8,1.9-12.9c1.1-3.1,3-6.1,5.5-8.3c2.5-2.2,5.3-3.6,8.5-4.5
			c3.6-0.9,7.4-1.4,11.1-1.2c2.2,0,4.6,0.2,6.7,0.3c2.2,0.3,4.2,0.6,6.1,0.9v11.8c-3.4-0.9-7.1-1.4-10.8-1.4c-1.9,0-3.8,0.2-5.5,0.5
			c-1.6,0.3-3.1,0.9-4.4,1.9c-1.2,1.1-2.4,2.5-2.8,4.1c-0.8,2.3-1.1,4.9-0.9,7.4v11c-0.2,2.5,0.3,4.9,0.9,7.4c0.5,1.6,1.4,3,2.7,4.1
			c1.1,0.9,2.5,1.6,3.9,1.9c1.6,0.3,3.1,0.5,4.7,0.5h0.9c0.3,0,0.8,0,1.4,0V74.6h-6V63.5h18.8V98c-1.9,0.3-4.1,0.6-6.7,0.9
			c-2.8,0.3-5.8,0.5-8.6,0.5c-3.8,0-7.5-0.5-11.1-1.4c-3.1-0.8-6.1-2.3-8.5-4.6c-2.5-2.2-4.4-5.2-5.5-8.3c-1.4-4.1-2-8.5-1.9-12.9
			L105.7,64.6z"/>
      <path class="st0" d="M155.7,58.3h13.6v40.5h-13.6V58.3z"/>
      <path class="st0" d="M176.1,64.6c-0.2-4.4,0.5-8.8,1.9-12.9c1.1-3.1,2.8-6,5.2-8.3c2.2-2,5-3.6,8-4.5c3.3-0.9,6.7-1.4,10.2-1.2
			c3.8,0,7.5,0.3,11.3,1.2v11.8c-1.6-0.5-3-0.8-4.5-0.9c-1.6-0.2-3.1-0.3-4.7-0.2c-1.6,0-3,0.2-4.4,0.5c-1.4,0.3-2.7,0.9-3.6,1.9
			c-1.1,1.1-2,2.5-2.5,4.1c-0.8,2.3-1.1,4.9-0.9,7.4v11c-0.2,2.5,0.3,4.9,0.9,7.4c0.5,1.6,1.4,3,2.7,4.1c1.1,0.9,2.4,1.6,3.8,1.9
			s3,0.5,4.6,0.5c1.7,0,3.5,0,5.2-0.3c1.4-0.2,2.8-0.3,4.2-0.8v11.6c-1.9,0.5-3.8,0.8-5.8,0.9c-1.9,0.2-3.8,0.3-5.8,0.3
			c-3.4,0-6.9-0.5-10.2-1.4c-3-0.8-5.8-2.3-8-4.6c-2.4-2.3-4.2-5.2-5.3-8.3c-1.4-4.1-2-8.5-1.9-12.9L176.1,64.6z"/>
      <path class="st0" d="M232.4,38.4h15.8L264,98.8h-14.4l-3-13.3h-14.1l-3,13.3h-13.8L232.4,38.4z M244.3,74.3l-4.4-20.2l-4.7,20.2
			H244.3z"/>
      <path class="st0" d="M268.4,38.4h22c12.2,0,18.4,6,18.4,18c0,2.8-0.5,5.8-1.6,8.5c-0.9,2.3-2.7,4.4-4.9,5.8c1.7,1.1,3,2.8,3.8,4.7
			c0.8,2,1.1,4.2,1.1,6.4v16.9h-14.3V82.6c0-1.4-0.3-3-0.8-4.4c-0.6-1.4-2-2-3.6-1.9h-5.6v22.4h-14.3V38.4H268.4z M288.8,65.5
			c1.4,0,2.7-0.6,3.5-1.7c0.9-1.9,1.4-3.9,1.2-6.1c0-3.1-0.5-5.2-1.2-6.3s-2.2-1.7-3.6-1.7h-5.8v15.8L288.8,65.5L288.8,65.5z"/>
      <path class="st0" d="M315.3,98.8V38.4h20.1c3.3,0,6.4,0.5,9.6,1.4c2.8,0.9,5.3,2.5,7.4,4.5c2.2,2.3,3.8,5.3,4.9,8.5
			c1.2,4.1,1.9,8.5,1.7,12.9v6.1c0.2,4.4-0.5,8.6-1.7,12.9c-0.9,3.1-2.7,6-4.9,8.5c-2,2.2-4.5,3.8-7.4,4.6c-3,0.9-6.3,1.4-9.4,1.4
			L315.3,98.8z M329.8,87h3.8c1.4,0,2.8-0.2,4.1-0.5c1.2-0.3,2.4-1.1,3.1-2.2c0.9-1.2,1.6-2.8,1.9-4.4c0.5-2.5,0.8-4.9,0.6-7.4v-7.8
			c0-2.5-0.2-5-0.6-7.4c-0.3-1.6-0.9-3.1-1.9-4.4c-0.8-1.1-1.9-1.7-3-2.2c-1.4-0.5-2.8-0.6-4.1-0.6h-3.9V87z"/>
    </g>
    <g>
      <g>
        <path class="st2" d="M228.3,161.3h3v7h0c0.2-0.3,0.5-0.6,0.8-0.9s0.6-0.5,1-0.7c0.4-0.2,0.8-0.3,1.1-0.4c0.4-0.1,0.8-0.1,1.2-0.1
				c1.1,0,2,0.2,2.8,0.6s1.5,0.9,2,1.6c0.5,0.7,0.9,1.4,1.2,2.3c0.3,0.9,0.4,1.8,0.4,2.9c0,0.9-0.1,1.8-0.4,2.7s-0.6,1.6-1.1,2.3
				s-1.1,1.2-1.9,1.6c-0.8,0.4-1.6,0.6-2.6,0.6c-0.5,0-0.9,0-1.4-0.1s-0.9-0.2-1.4-0.4c-0.4-0.2-0.8-0.4-1.2-0.7s-0.6-0.7-0.9-1.1h0
				v1.9h-2.9L228.3,161.3L228.3,161.3z M238.9,173.5c0-0.6-0.1-1.2-0.2-1.8c-0.2-0.6-0.4-1.1-0.7-1.6s-0.7-0.8-1.2-1.1
				c-0.5-0.3-1-0.4-1.6-0.4c-1.3,0-2.2,0.4-2.9,1.3s-1,2.1-1,3.6c0,0.7,0.1,1.3,0.2,1.9s0.4,1.1,0.8,1.5c0.3,0.4,0.7,0.8,1.2,1
				c0.5,0.2,1,0.4,1.6,0.4c0.7,0,1.3-0.1,1.8-0.4s0.9-0.6,1.2-1.1c0.3-0.4,0.5-1,0.7-1.6C238.9,174.7,238.9,174.1,238.9,173.5z"/>
        <path class="st2" d="M243,166.6h3.3l3.6,10.3h0l3.5-10.3h3.2l-5.4,14.5c-0.2,0.6-0.5,1.2-0.7,1.8c-0.2,0.6-0.5,1.1-0.9,1.5
				c-0.4,0.4-0.8,0.8-1.3,1c-0.5,0.3-1.2,0.4-2,0.4c-0.7,0-1.4-0.1-2.1-0.2v-2.6c0.2,0,0.5,0.1,0.7,0.1c0.2,0,0.5,0.1,0.7,0.1
				c0.4,0,0.6,0,0.9-0.1c0.2-0.1,0.4-0.2,0.6-0.4s0.3-0.4,0.4-0.6c0.1-0.2,0.2-0.5,0.3-0.8l0.4-1.1L243,166.6z"/>
      </g>
      <g>
        <path class="st2" d="M268.2,169.5c0.4-3,3-5.4,6.1-5.4c3.1,0,5.7,2.3,6.1,5.4h0c0,0,3.6,0,5.6,0s2.1-2,2.1-2l0-5.3
				c0,0,0-2.1-2.4-2.1c-5.3,0-20.5,0-20.5,0v9.4L268.2,169.5"/>
        <path class="st2" d="M285.7,171c-1.3,0-3.2,0-5.3,0c-0.3,3.1-3,5.5-6.1,5.5s-5.8-2.4-6.1-5.5c-1.8,0-2.9,0-2.9,0v9.4h15.2
				c0,0,3.6,0,5.6,0s2.1-2,2.1-2l0-5.3C288.1,173.1,288.1,171,285.7,171"/>
        <path class="st2" d="M274.3,165.6c-2.6,0-4.7,2.1-4.7,4.7s2.1,4.7,4.7,4.7s4.7-2.1,4.7-4.7S276.9,165.6,274.3,165.6"/>
        <path class="st2" d="M307,169.3c0,0,2.7-0.7,2.7-4.1c0-2.2-1.9-5.1-5.3-5.1c-3.5,0-8.3,0-8.3,0v20.3h9.1c0,0,5.7,0.2,5.7-5.8
				C310.9,170.6,307,169.3,307,169.3 M299.1,163.1c0.8,0,4.6,0,4.7,0c2.9,0,2.9,2.6,2.9,2.6s0,2.8-3,2.8c-3,0-4.6,0-4.6,0
				L299.1,163.1z M304.4,177.3c-3.5,0-5.3,0-5.3,0v-6.1c0,0,2.1,0,5.5,0c3.3,0,3.3,3.1,3.3,3.1S307.8,177.3,304.4,177.3z"/>
        <path class="st2" d="M348.3,160.1c-1.6,0-6.7,0-6.7,0l0,17.3h-0.8l-6.7-17.3h-3.4l-7.2,18.2l-4-5.6c0,0,5.1-0.6,5.1-6.1
				c0-3.9-2.7-6.5-6.9-6.5c-2.9,0-6.7,0-6.7,0l0,20.3h3.1v-9.6l7,9.6h5l6.2-15.8l5,12.9h-8.6l-1.2,3c0,0,20.2,0,21.7,0
				c4.7,0,9.3-3.9,9.5-10.2C358.8,165.2,354.9,160.1,348.3,160.1 M314.2,170.5l0-7.3c2.9,0,2.8,0,3.7,0c1.6,0,3.5,1,3.5,3.6
				c0,3.7-3.3,3.8-4.5,3.8C316,170.5,314.2,170.5,314.2,170.5z M348.9,177.4c-2.8,0-4.2,0-4.2,0l0-14.2c0,0,1.1,0,4.2,0
				c3.1,0,6.7,2.8,6.7,7.2C355.6,174.7,351.7,177.4,348.9,177.4z"/>
        <g>
          <polyline class="st2" points="355.2,160.1 362.2,173.8 362.2,180.4 365.4,180.4 365.4,173.8 372.6,160.1 369,160.1 363.9,170.2 
					358.8,160.1 355.2,160.1 				"/>
        </g>
        <path class="st2" d="M368.4,178.1h0.4c0.3,0,0.5,0,0.5,0.3c0,0.3-0.2,0.3-0.5,0.3h-0.5L368.4,178.1 M368.1,179.7h0.3V179h0.4
				l0.5,0.7l0.4,0l-0.5-0.8c0.4-0.1,0.5-0.3,0.5-0.6c0-0.4-0.3-0.5-0.6-0.5h-0.9L368.1,179.7L368.1,179.7z"/>
        <path class="st2" d="M368.9,177.2c-0.9,0-1.6,0.7-1.6,1.6c0,0.9,0.7,1.6,1.6,1.6s1.6-0.7,1.6-1.6
				C370.5,177.9,369.8,177.2,368.9,177.2 M368.9,180.2c-0.8,0-1.4-0.6-1.4-1.4c0-0.8,0.6-1.4,1.4-1.4c0.8,0,1.4,0.6,1.4,1.4
				C370.3,179.6,369.7,180.2,368.9,180.2z"/>
      </g>
    </g>
  </g>
</svg>
