<svg xmlns="http://www.w3.org/2000/svg" viewBox="0 0 1024 279"><title>TrustWrx</title><path d="M968 .1c10.4-.1 14.8.3 19 1.7 3 .9 7.8 3.1 10.5 4.7 2.8 1.6 7.3 5.2 10 8 2.8 2.9 6.4 7.9 8.2 11.1 1.7 3.2 4.2 9.3 5.5 13.4 2.1 6.8 2.3 9.3 2.2 26 0 13.7-.5 20.7-1.8 27-1 4.7-3.4 13.7-5.4 20-1.9 6.3-5.7 16.7-8.4 23-2.8 6.3-6.6 14.4-8.5 18-2 3.6-6 10.6-9 15.5-2.9 4.9-6.4 10.3-7.6 12-1.2 1.6-6.9 9.3-12.6 17-6.8 9-15.5 19-24.5 28-7.8 7.7-18.9 17.6-24.8 22-5.8 4.4-14.4 10.2-19 13-4.5 2.7-13 7-18.8 9.6s-14.1 5.7-18.5 6.9c-6.9 1.8-10.1 2.1-39.2 1.5l-7.4-3.7c-4.6-2.4-9.7-6-13.4-9.7-4.3-4.3-5.8-6.4-5.2-7.5.4-1 1.4-1.4 2.5-1 .9.3 4.2 1 7.2 1.6 3.1.5 8.4.7 12 .3s10.4-1.8 15.3-3.1c4.8-1.3 13.7-4.9 19.7-7.9s15.4-8.5 20.8-12.1c5.3-3.7 13.1-9.4 17.2-12.8 4.1-3.3 12.5-11 18.5-17.1s15.7-16.7 21.4-23.5c5.7-6.9 13.6-17.4 17.6-23.5s10.4-17.1 14.3-24.5c3.8-7.4 9-18.9 11.5-25.5 2.4-6.6 5.2-15.6 6.1-20s2.1-11.8 2.6-16.5c.6-5.3.6-11.3.1-16-.5-4.1-1.9-10-3-13-1.1-3.2-4-7.8-6.9-11-3.2-3.6-6.7-6.3-10.3-7.9-3.7-1.6-8-2.5-13.9-2.9-6.6-.4-10.7 0-18.5 1.8-5.5 1.2-13.8 4-18.5 6.2-4.7 2.1-12.1 6-16.5 8.6-4.4 2.5-12 7.6-17 11.3s-11.9 9.3-15.5 12.4c-3.6 3.2-10.7 9.8-15.7 14.6-5.1 4.9-9.5 8.9-9.8 8.9s-.5-.7-.5-1.5.7-1.5 1.5-1.5 1.9-1.2 2.4-2.7c.5-1.6 5.3-7.8 10.8-13.8s13.1-13.9 16.9-17.4c3.8-3.6 10.9-9.7 15.9-13.6 5-4 11.7-9 15-11.2s9.8-6 14.5-8.6c4.7-2.5 12-5.9 16.3-7.6 4.2-1.7 10.7-4 14.5-5 5-1.5 10.1-2 20.2-2" style="fill:#ed2b2e"/><path d="m936 106 4.5 7.3c2.5 3.9 7.9 12.8 19.3 32.2l-2.4 4c-1.3 2.2-5.5 8.6-9.4 14.2-3.8 5.7-7.3 10.3-7.8 10.3-.4.1-10.3-14.1-21.9-31.5-11.7-17.3-21.6-32.2-22.1-33.1-.4-1-.1-1.9.8-2.5.8-.5 9.9-.9 39-.9m49.1 72.6c.4.5 9 13.6 19.3 29.2 10.2 15.5 18.4 28.6 18.1 29.2s-8.1 1-20.3 1c-19.2-.1-19.7-.1-21.3-2.3-.8-1.2-5.2-8.2-17.9-28.7l8.8-11.7c4.8-6.5 9.6-13.1 10.7-14.7 1.1-1.5 2.2-2.4 2.6-2M604 72l1 3.7c.6 2.1 2.6 11 4.5 19.8 2 8.8 4.9 21.6 6.5 28.5s4.1 17.4 5.4 23.5c1.4 6.1 3.5 15.4 4.8 20.8 1.3 5.3 2.6 9.7 3.1 9.7.4 0 .9-1.7 1.3-3.8.3-2 2.7-13.1 5.5-24.7 2.7-11.6 6.5-27.5 8.5-35.5 1.9-8 4.9-20.6 10-41.5h46.6l4.9 19.5c2.6 10.7 8.5 34.5 13.1 52.7 4.6 18.3 8.6 32.9 9 32.5.3-.4 2.2-8.4 4.1-17.7 2-9.4 5.4-25.8 7.7-36.5s5.6-26.5 10.5-50.5l20.3-.3c19.6-.2 20.2-.1 20.2 1.8 0 1.1-.9 5.5-2.1 9.7-1.1 4.3-3.8 14.1-5.9 21.8s-5.7 20.7-7.9 29c-2.3 8.2-5.9 21.5-8.1 29.5s-6 22.1-8.5 31.5c-2.6 9.3-6.2 22.5-8.1 29.2-1.9 6.8-3.4 12.5-3.4 12.8s-8.4.4-37.5 0l-3.7-14.5c-2.1-8-5.1-19.7-6.7-26s-5.7-22.1-9.1-35-7.6-29.1-9.2-36-3.3-12.1-3.7-11.5c-.4.5-2 5.3-3.4 10.5-1.5 5.2-3.3 12.6-4.2 16.5-.8 3.8-6.6 27-24 96l-36.5.5-1.6-5.8c-.9-3.1-3.3-11.6-5.4-18.7-2.1-7.2-5.7-19.5-8-27.5s-6.2-21.5-8.7-30c-2.4-8.5-6.5-22.5-9-31-2.4-8.5-6.2-21.4-8.3-28.5-2.1-7.2-4.7-15.3-5.7-18.2-.9-2.9-1.4-5.5-.9-5.8s10.3-.5 42.6-.5m265.7 32.2c5.1.2 9.6.7 10.2 1.3.6.7.3 6.1-.9 16-1.1 8.2-2 15.3-2 15.7 0 .5-4.6.5-10.2.2-8-.5-11.5-.3-15.8.9-3 .9-7.3 3.1-9.4 4.9-2.2 1.8-5 5.5-6.3 8.3-2.3 5-2.3 5.3-2.3 86.5h-36l.5-131.5 15-.3c8.3-.1 16 0 17.3.3 2 .5 2.2 1 2.2 16l3.3-4c1.8-2.2 5.8-5.5 8.8-7.4s7.9-4.3 10.9-5.3c4.1-1.3 7.9-1.7 14.7-1.6" style="fill:#929291"/><path d="M507.6 72c14.6 0 17.5.2 17.9 1.5.3.8.5 8.5.5 32.5l28.5.5.5 28.5h-29v33c0 27.1.3 33.6 1.5 36.5.9 2.1 2.8 4.2 4.7 5.1 2.6 1.3 5.4 1.6 13 1.3 5.4-.2 9.8-.4 9.8-.4s1.1 5.6 2.5 12.5 2.2 12.8 1.7 13.1c-.4.3-2.5 1.1-4.7 1.7-2.2.7-8 1.6-13 2-5 .5-12.4.5-16.5.1s-10.2-1.7-13.5-2.9c-4.2-1.6-7.6-3.8-11.1-7.4-3.6-3.6-5.8-6.9-7.3-11.1-1.3-3.4-2.6-10.3-3.1-16-.5-5.5-.9-36.4-1-68.8 0-32.3.3-59.4.6-60.2.5-1.3 3.4-1.5 18-1.5m-95.1 31.1c8.1 0 16.7.5 20.5 1.3 3.6.7 9.6 2.8 13.5 4.6 3.9 1.9 9 5.4 11.6 7.9 2.5 2.5 5.5 6.4 6.6 8.6 1.2 2.2 2.8 6.9 3.7 10.5s1.5 6.6 1.4 6.7c-.2.1-5.7.8-12.3 1.7s-13.6 1.9-15.5 2.2c-3.4.5-3.6.4-5.2-3.8-.9-2.4-3.3-5.8-5.2-7.6-2-1.7-5.5-3.7-7.9-4.3-2.3-.6-7.6-1.1-11.7-1.1s-9.4.5-11.8 1.1c-2.3.6-5.7 2.4-7.5 4-2.4 2.2-3.2 3.8-3.2 6.4 0 1.9.6 4.5 1.3 5.8.6 1.3 2.8 3.2 4.7 4.1 1.9 1 11 3.1 20.2 4.8 9.3 1.6 20.1 3.9 24 5 4 1.1 9.5 3.1 12.3 4.5 2.7 1.4 6.9 4.2 9.1 6.2 2.3 2.1 4.8 5.1 5.7 6.8.8 1.7 2.1 5.2 2.8 8 .8 2.7 1.4 8.6 1.4 13s-.6 10.2-1.4 13c-.8 2.7-3 7.2-4.8 10-1.8 2.7-5.6 6.6-8.3 8.7-2.8 2-8.4 4.8-12.5 6.2s-10.4 3-14 3.6c-3.6.5-10.8 1-16 1s-13.6-.7-18.5-1.6c-5-.8-12.4-2.9-16.5-4.7-5.6-2.3-9-4.7-13.6-9.2-3.4-3.3-7.1-8-8.4-10.5-1.2-2.5-2.9-7.4-3.6-11-.8-3.6-1.4-7.1-1.4-7.8 0-.9 4.1-1.2 34.5-1.2l1.2 4.2c.6 2.5 2.5 5.7 4.5 7.5 1.8 1.8 5.3 3.8 7.8 4.5s9.2 1.3 15 1.3c8.4-.1 11.3-.5 14.4-2 2.1-1.1 4.5-3.2 5.2-4.8.8-1.5 1.4-4.3 1.4-6.2 0-2.4-.9-4.5-2.8-6.6-1.5-1.7-4.5-3.7-6.7-4.5s-10.8-2.6-19-3.9c-8.3-1.4-17.3-3.2-20-4-2.8-.7-7.9-2.7-11.5-4.3s-8.3-4.5-10.5-6.4-5.4-6.2-7-9.4c-2.8-5.5-3-6.7-3-16.9 0-10.7.1-11.2 3.5-17.4 1.9-3.5 5.4-8.1 7.7-10.2 2.4-2.2 7.6-5.5 11.5-7.4 4-1.9 10.2-4.1 13.8-4.9 3.8-.8 12.4-1.5 20.5-1.5m-221.3 1c3.2-.1 6.5.1 7.3.4 1.3.4 1.5 3.2 1.5 33h-12.7c-10.8 0-13.4.3-16.8 2-2.2 1.1-5.5 3.6-7.4 5.5s-4.2 5.1-5 7c-1.4 3-1.6 9.8-2.1 86l-35.5-.5-.2-65c-.2-50.7 0-65.2 1-65.7.6-.4 7.8-.8 15.9-.8 8.2 0 15.5.2 16.3.5 1.1.4 1.5 2.1 1.5 7.2 0 3.8.2 7.1.5 7.5.3.5 2.5-1.3 4.9-4 2.4-2.6 6.8-6 9.7-7.6 3-1.7 7.6-3.5 10.4-4.2 2.7-.7 7.6-1.3 10.7-1.3m44.5 2c8.4-.1 16 .1 16.8.4 1.3.4 1.5 6.2 1.5 44.3 0 35.4.3 44.6 1.4 48.7.8 2.7 2.8 6.2 4.3 7.7 1.5 1.4 4.8 3.2 7.3 3.8s6.5.9 9 .6c2.5-.4 7-2.1 10-3.9 3-1.7 6.9-5.1 8.7-7.5 1.8-2.3 3.7-5.9 4.3-8s1-20.6 1-44.5c0-35.3.2-40.8 1.5-41.2.8-.3 8.4-.5 16.7-.5 8.4 0 15.9.4 16.5.8 1 .5 1.2 15 .8 130.7l-34.5.5.1-16.5-6.3 6.3c-3.7 3.6-8.8 7.4-12.3 9.2-3.3 1.6-8.5 3.4-11.5 4.1-3.2.7-9.1.9-14 .6-5-.3-10.8-1.3-14-2.5-3-1.2-7.4-3.5-9.8-5.2-2.3-1.6-5.5-4.9-7.1-7.2-1.6-2.4-3.5-6.3-4.4-8.8-.8-2.5-2-8-2.6-12.2-.6-4.5-1.2-27-1.3-53.2-.2-38.9 0-45.5 1.2-45.9.8-.3 8.4-.6 16.7-.6M0 59h145v33H91v146l-37.5-.5L53 92H0V75.5z" style="fill:#196bb3"/></svg>