<svg xmlns="http://www.w3.org/2000/svg" viewBox="0 0 169 48"><style>.b{fill:#192a5e}</style><path fill-rule="evenodd" d="M6.5 15.8 0 20.6 9.1 36 47.5 7.7V3.8L10.8 25.9z" style="fill:#00a94e"/><path fill-rule="evenodd" d="M28.3 12.6v-.8c0-1.2-.5-2.4-1.3-3.3-.9-.8-2-1.3-3.2-1.3s-2.4.5-3.3 1.3c-.8.9-1.3 2.1-1.3 3.3v6.3L12 22.3V11.8c0-2.9 1-5.6 2.9-7.8C16.8 1.9 19.4.5 22.2.1s5.7.3 8 1.8c2.4 1.6 4.1 4 4.9 6.7zm-9.1 18.9v4.7c0 1.2.4 2.4 1.3 3.2.9.9 2 1.4 3.2 1.4s2.4-.5 3.3-1.4c.8-.8 1.3-2 1.3-3.2V24.9l7.2-5.3v16.6c0 3.1-1.2 6.1-3.4 8.3-2.1 2.2-5 3.4-8.1 3.5s-6.1-1.1-8.3-3.2c-2.3-2.1-3.6-5-3.7-8.1zm150-15.8c-.4 1.6-1.4 2.9-2.9 3.5s-3.2.4-4.6-.4c-1.3-.9-2.1-2.5-2.1-4.1 0-.9.3-1.9.8-2.7.5-.7 1.3-1.4 2.2-1.7.9-.4 1.8-.5 2.8-.3.9.2 1.8.6 2.4 1.3 1.2 1.2 1.7 2.8 1.4 4.4m-1.3.5q.3-.7.3-1.5 0-.7-.3-1.4t-.8-1.2q-.5-.6-1.2-.9t-1.5-.3q-.7 0-1.4.3t-1.2.9q-.6.5-.9 1.2-.2.7-.2 1.4 0 .8.2 1.5.3.7.9 1.2.5.5 1.2.8t1.4.3q.8 0 1.5-.3t1.2-.8.8-1.2m-.8.8h-1.5l-1.4-1.7h-.5V17h-1.2v-4.8h2.4q.1 0 .2.1h.4q0 .1.1.1t.1.1h.2l.1.1q.1.1.1.2.1 0 .1.1l.2.4v.4q0 .2-.1.4t-.2.3l-.2.2q-.1.1-.2.1l-.2.2h-.2zm-2.1-3.1v-.1l.1-.1q0-.1-.1-.1v-.2l-.1-.1q0-.1-.1-.1h-.1q0-.1-.1-.1h-.9v1.3h.8l.1-.1h.1q.1 0 .1-.1h.1v-.1h.1v-.2M69.3 36.2H50v-4.3l11.4-14.3H50.5v-4.4h18.2v4.4L57.2 31.7h12.1zm16.5-13.9q.4.8.6 1.6.3.9.4 1.8t.1 1.8-.1 1.8-.4 1.8q-.2.9-.7 1.7-.4.8-.9 1.5-.6.6-1.3 1.1-.6.5-1.4.8t-1.6.4q-.8.2-1.7.1-.8.1-1.6-.1-.8-.1-1.6-.4t-1.4-.8q-.7-.5-1.3-1.1-.5-.7-1-1.5-.4-.8-.6-1.7-.3-.9-.4-1.8t-.1-1.8.1-1.8.4-1.8q.2-.8.7-1.6.4-.9.9-1.6.6-.6 1.3-1.1.6-.5 1.4-.8t1.6-.4q.8-.2 1.6-.1.9-.1 1.7.1.8.1 1.6.4t1.5.8q.6.5 1.2 1.1zm-5.4 10.1q.1 0 .3-.2l.2-.2q.1-.1.2-.3.1-.1.2-.3l.2-.4.2-.4q0-.2.1-.5 0-.3.1-.6 0-.3.1-.6v-2.6q-.1-.4-.1-.7-.1-.3-.1-.6-.1-.2-.1-.5l-.2-.4-.2-.4-.2-.4q-.1-.1-.2-.3l-.2-.2q-.1-.1-.3-.2-.1-.1-.3-.2-.1 0-.3-.1-.1 0-.3-.1h-1.3q-.1 0-.3.1-.1 0-.3.1-.1 0-.3.1l-.2.2q-.2.1-.3.3l-.2.2-.2.4-.2.4q-.1.2-.1.5l-.2.4q0 .3-.1.7 0 .3-.1.6v2.6q.1.3.1.6.1.3.1.6.1.2.1.5l.2.4q0 .2.1.4t.3.4q.1.1.2.3l.2.2q.1.1.3.2.1.1.3.2l.6.2q.3.1.6.1.4 0 .7-.1l.6-.2q.2-.1.3-.2m27.1-14.7h-7.2v18.5h-5.9V17.7h-7.2v-4.4h20.3zm13.5 5.7q-.4.1-.8.3-.3.1-.7.2t-.8.3-.7.3q-.5.3-.9.5t-.8.5q-.5.3-.9.5l-.8.6v9.6H109V18.9h5.6v2.5q.4-.2.7-.4.4-.3.7-.5.4-.2.8-.3.3-.2.7-.4t.9-.3q.4-.1.8-.3.4-.1.9-.2.4-.1.9-.2zm19.8 12.7h-5.5v-1.9q-.4.3-.7.5-.3.3-.7.5-.3.2-.7.4t-.7.4q-.4.2-.8.3t-.7.2q-.4.1-.8.1h-.8q-.6.1-1.2 0t-1.2-.3-1.1-.6q-.5-.3-.9-.7-.4-.5-.7-1.1-.4-.6-.6-1.2t-.2-1.3q-.1-.7-.1-1.3V18.8h5.6v8.6c0-.5-.4 4.7 3 4.7 3.5 0 3.4-4.7 3.4-4.7l-.1-8.6h5.5zm18.4-7.8q.3.3.4.7l.2.8v.9q0 .6-.1 1.2-.2.7-.5 1.2-.3.6-.8 1.1-.4.4-1 .8-.7.4-1.5.8-.8.3-1.7.5-.8.2-1.7.3-.8.1-1.7 0h-1q-.6 0-1.1-.1-.5 0-1-.1-.6-.1-1.1-.2-.4-.1-.7-.2l-.8-.2q-.4-.1-.8-.3-.3-.1-.7-.3v-4.5h.5q.4.3 1 .6l.4.2q.1.1.3.2l.4.2.4.2q.3.1.5.1.3.1.5.2t.5.1q.2.1.5.2.3 0 .6.1.3 0 .6.1h2.4l.6-.2q.3 0 .6-.1.1-.1.3-.2.1-.1.2-.3.1-.1.2-.3v-.3q.1-.2 0-.3 0-.1-.1-.2 0-.2-.1-.3t-.2-.1l-.4-.2q-.3-.1-.5-.2-.2 0-.4-.1-.2 0-.5-.1-.6-.1-1.7-.3-.2 0-.4-.1-.3 0-.5-.1-.3 0-.5-.1-.2 0-.5-.1-.5-.1-.9-.3-.5-.1-1-.4-.4-.2-.8-.5t-.8-.7q-.3-.3-.5-.7l-.4-.8q-.1-.4-.2-.9v-.8q0-.7.2-1.3.1-.6.4-1.1.3-.6.8-1 .4-.5 1-.8.7-.5 1.5-.8.7-.3 1.6-.5.8-.2 1.6-.3.9-.1 1.7-.1.5 0 1 .1h.9q.5.1.9.2.5 0 1 .1.3.1.7.2.3.1.7.2.3.1.7.2.3.1.6.3v4.3h-.4q-.4-.2-.7-.4t-.7-.3q-.4-.2-.7-.4l-.8-.2q-.3-.2-.7-.3t-.8-.1q-.4-.1-.8-.1-.4-.1-.9-.1h-.5q-.3.1-.6.1-.3.1-.6.1-.2.1-.5.2-.2 0-.4.1-.1.1-.2.3-.2.1-.2.3-.1.2-.1.4v.2q0 .2.1.3 0 .1.1.2l.2.2.4.2q.3.1.5.2.3.1.5.2h.5q.9.2 1.9.4 1 .1 1.9.4.5.1.9.2.5.2.9.4l.8.6q.4.2.7.6.2.3.4.7" class="b"/></svg>