<svg version="1.2" xmlns="http://www.w3.org/2000/svg" viewBox="0 0 169 48">
    <style>.a{fill:#00a94e}.b{fill:#192a5e}</style>
    <path fill-rule="evenodd" class="a" d="m6.5 15.8l-6.5 4.8 9.1 15.4 38.4-28.3v-3.9l-36.7 22.1z" />
    <path fill-rule="evenodd" class="b"
        d="m28.3 12.6v-0.8c0-1.2-0.5-2.4-1.3-3.3-0.9-0.8-2-1.3-3.2-1.3-1.2 0-2.4 0.5-3.3 1.3-0.8 0.9-1.3 2.1-1.3 3.3v6.3l-7.2 4.2v-10.5c0-2.9 1-5.6 2.9-7.8 1.9-2.1 4.5-3.5 7.3-3.9 2.8-0.4 5.7 0.3 8 1.8 2.4 1.6 4.1 4 4.9 6.7zm-9.1 18.9v4.7c0 1.2 0.4 2.4 1.3 3.2 0.9 0.9 2 1.4 3.2 1.4 1.2 0 2.4-0.5 3.3-1.4 0.8-0.8 1.3-2 1.3-3.2v-11.3l7.2-5.3v16.6c0 3.1-1.2 6.1-3.4 8.3-2.1 2.2-5 3.4-8.1 3.5-3.1 0.1-6.1-1.1-8.3-3.2-2.3-2.1-3.6-5-3.7-8.1zm150-15.8c-0.4 1.6-1.4 2.9-2.9 3.5-1.5 0.6-3.2 0.4-4.6-0.4-1.3-0.9-2.1-2.5-2.1-4.1 0-0.9 0.3-1.9 0.8-2.7 0.5-0.7 1.3-1.4 2.2-1.7 0.9-0.4 1.8-0.5 2.8-0.3 0.9 0.2 1.8 0.6 2.4 1.3 1.2 1.2 1.7 2.8 1.4 4.4zm-1.3 0.5q0.3-0.7 0.3-1.5 0-0.7-0.3-1.4-0.3-0.7-0.8-1.2-0.5-0.6-1.2-0.9-0.7-0.3-1.5-0.3-0.7 0-1.4 0.3-0.7 0.3-1.2 0.9-0.6 0.5-0.9 1.2-0.2 0.7-0.2 1.4 0 0.8 0.2 1.5 0.3 0.7 0.9 1.2 0.5 0.5 1.2 0.8 0.7 0.3 1.4 0.3 0.8 0 1.5-0.3 0.7-0.3 1.2-0.8 0.5-0.5 0.8-1.2zm-0.8 0.8h-1.5l-1.4-1.7h-0.5v1.7h-1.2v-4.8h1.8q0.1 0 0.2 0 0.1 0 0.2 0 0.1 0 0.2 0 0.1 0 0.2 0.1 0.1 0 0.2 0 0.1 0 0.2 0 0 0.1 0.1 0.1 0.1 0 0.1 0.1 0.1 0 0.2 0 0.1 0.1 0.1 0.1 0.1 0.1 0.1 0.2 0.1 0 0.1 0.1 0.1 0.2 0.2 0.4 0 0.2 0 0.4 0 0.2-0.1 0.4-0.1 0.2-0.2 0.3-0.1 0.1-0.2 0.2-0.1 0.1-0.2 0.1-0.1 0.1-0.2 0.2-0.1 0-0.2 0zm-2.1-3.1q0 0 0-0.1 0 0 0 0 0.1-0.1 0.1-0.1 0-0.1-0.1-0.1 0 0 0-0.1 0 0 0 0 0-0.1 0-0.1 0 0-0.1-0.1 0 0 0 0 0-0.1-0.1-0.1 0 0 0 0-0.1 0-0.1 0 0-0.1-0.1-0.1 0 0-0.1 0 0 0 0 0-0.1 0-0.2 0 0 0-0.1 0 0 0-0.1 0 0 0-0.1 0h-0.3v1.3h0.3q0 0 0.1 0 0 0 0.1 0 0.1 0 0.1 0 0.1 0 0.2 0 0 0 0 0 0.1-0.1 0.1-0.1 0.1 0 0.1 0 0.1 0 0.1-0.1 0 0 0.1 0 0 0 0-0.1 0 0 0.1 0 0-0.1 0-0.1 0 0 0-0.1z" />
    <path fill-rule="evenodd" class="b"
        d="m69.3 36.2h-19.3v-4.3l11.4-14.3h-10.9v-4.4h18.2v4.4l-11.5 14.1h12.1zm16.5-13.9q0.4 0.8 0.6 1.6 0.3 0.9 0.4 1.8 0.1 0.9 0.1 1.8 0 0.9-0.1 1.8-0.1 0.9-0.4 1.8-0.2 0.9-0.7 1.7-0.4 0.8-0.9 1.5-0.6 0.6-1.3 1.1-0.6 0.5-1.4 0.8-0.8 0.3-1.6 0.4-0.8 0.2-1.7 0.1-0.8 0.1-1.6-0.1-0.8-0.1-1.6-0.4-0.8-0.3-1.4-0.8-0.7-0.5-1.3-1.1-0.5-0.7-1-1.5-0.4-0.8-0.6-1.7-0.3-0.9-0.4-1.8-0.1-0.9-0.1-1.8 0-0.9 0.1-1.8 0.1-0.9 0.4-1.8 0.2-0.8 0.7-1.6 0.4-0.9 0.9-1.6 0.6-0.6 1.3-1.1 0.6-0.5 1.4-0.8 0.8-0.3 1.6-0.4 0.8-0.2 1.6-0.1 0.9-0.1 1.7 0.1 0.8 0.1 1.6 0.4 0.8 0.3 1.5 0.8 0.6 0.5 1.2 1.1 0.5 0.8 1 1.6zm-5.4 10.1q0.1 0 0.3-0.2 0.1-0.1 0.2-0.2 0.1-0.1 0.2-0.3 0.1-0.1 0.2-0.3 0.1-0.2 0.2-0.4 0.1-0.2 0.2-0.4 0-0.2 0.1-0.5 0-0.3 0.1-0.6 0-0.3 0.1-0.6 0-0.4 0-0.7 0-0.3 0-0.7 0-0.3 0-0.6 0-0.3 0-0.6-0.1-0.4-0.1-0.7-0.1-0.3-0.1-0.6-0.1-0.2-0.1-0.5-0.1-0.2-0.2-0.4-0.1-0.2-0.2-0.4-0.1-0.2-0.2-0.4-0.1-0.1-0.2-0.3-0.1-0.1-0.2-0.2-0.1-0.1-0.3-0.2-0.1-0.1-0.3-0.2-0.1 0-0.3-0.1-0.1 0-0.3-0.1-0.2 0-0.3 0-0.2 0-0.3 0-0.2 0-0.4 0-0.1 0-0.3 0-0.1 0-0.3 0.1-0.1 0-0.3 0.1-0.1 0-0.3 0.1-0.1 0.1-0.2 0.2-0.2 0.1-0.3 0.3-0.1 0.1-0.2 0.2-0.1 0.2-0.2 0.4-0.1 0.2-0.2 0.4-0.1 0.2-0.1 0.5-0.1 0.2-0.2 0.4 0 0.3-0.1 0.7 0 0.3-0.1 0.6 0 0.3 0 0.7 0 0.3 0 0.6 0 0.4 0 0.7 0 0.3 0 0.6 0.1 0.3 0.1 0.6 0.1 0.3 0.1 0.6 0.1 0.2 0.1 0.5 0.1 0.2 0.2 0.4 0 0.2 0.1 0.4 0.1 0.2 0.3 0.4 0.1 0.1 0.2 0.3 0.1 0.1 0.2 0.2 0.1 0.1 0.3 0.2 0.1 0.1 0.3 0.2 0.3 0.1 0.6 0.2 0.3 0.1 0.6 0.1 0.4 0 0.7-0.1 0.3-0.1 0.6-0.2 0.2-0.1 0.3-0.2zm27.1-14.7h-7.2v18.5h-5.9v-18.5h-7.2v-4.4h20.3zm13.5 5.7q-0.4 0.1-0.8 0.3-0.3 0.1-0.7 0.2-0.4 0.1-0.8 0.3-0.4 0.2-0.7 0.3-0.5 0.3-0.9 0.5-0.4 0.2-0.8 0.5-0.5 0.3-0.9 0.5-0.4 0.3-0.8 0.6v9.6h-5.6v-17.3h5.6v2.5q0.4-0.2 0.7-0.4 0.4-0.3 0.7-0.5 0.4-0.2 0.8-0.3 0.3-0.2 0.7-0.4 0.4-0.2 0.9-0.3 0.4-0.1 0.8-0.3 0.4-0.1 0.9-0.2 0.4-0.1 0.9-0.2zm19.8 12.7h-5.5v-1.9q-0.4 0.3-0.7 0.5-0.3 0.3-0.7 0.5-0.3 0.2-0.7 0.4-0.4 0.2-0.7 0.4-0.4 0.2-0.8 0.3-0.4 0.1-0.7 0.2-0.4 0.1-0.8 0.1-0.4 0-0.8 0-0.6 0.1-1.2 0-0.6-0.1-1.2-0.3-0.6-0.2-1.1-0.6-0.5-0.3-0.9-0.7-0.4-0.5-0.7-1.1-0.4-0.6-0.6-1.2-0.2-0.6-0.2-1.3-0.1-0.7-0.1-1.3v-11.3h5.6v8.6c0-0.5-0.4 4.7 3 4.7 3.5 0 3.4-4.7 3.4-4.7l-0.1-8.6h5.5c0 0 0 17.3 0 17.3zm18.4-7.8q0.3 0.3 0.4 0.7 0.1 0.4 0.2 0.8 0 0.4 0 0.9 0 0.6-0.1 1.2-0.2 0.7-0.5 1.2-0.3 0.6-0.8 1.1-0.4 0.4-1 0.8-0.7 0.4-1.5 0.8-0.8 0.3-1.7 0.5-0.8 0.2-1.7 0.3-0.8 0.1-1.7 0-0.5 0-1 0-0.6 0-1.1-0.1-0.5 0-1-0.1-0.6-0.1-1.1-0.2-0.4-0.1-0.7-0.2-0.4-0.1-0.8-0.2-0.4-0.1-0.8-0.3-0.3-0.1-0.7-0.3v-4.5h0.5q0.4 0.3 1 0.6 0.2 0.1 0.4 0.2 0.1 0.1 0.3 0.2 0.2 0.1 0.4 0.2 0.2 0.1 0.4 0.2 0.3 0.1 0.5 0.1 0.3 0.1 0.5 0.2 0.2 0.1 0.5 0.1 0.2 0.1 0.5 0.2 0.3 0 0.6 0.1 0.3 0 0.6 0.1 0.2 0 0.5 0 0.3 0 0.6 0 0.3 0 0.7 0 0.3 0 0.6 0 0.3-0.1 0.6-0.2 0.3 0 0.6-0.1 0.1-0.1 0.3-0.2 0.1-0.1 0.2-0.3 0.1-0.1 0.2-0.3 0-0.1 0-0.3 0.1-0.2 0-0.3 0-0.1-0.1-0.2 0-0.2-0.1-0.3-0.1-0.1-0.2-0.1-0.2-0.1-0.4-0.2-0.3-0.1-0.5-0.2-0.2 0-0.4-0.1-0.2 0-0.5-0.1-0.6-0.1-1.7-0.3-0.2 0-0.4-0.1-0.3 0-0.5-0.1-0.3 0-0.5-0.1-0.2 0-0.5-0.1-0.5-0.1-0.9-0.3-0.5-0.1-1-0.4-0.4-0.2-0.8-0.5-0.4-0.3-0.8-0.7-0.3-0.3-0.5-0.7-0.2-0.4-0.4-0.8-0.1-0.4-0.2-0.9 0-0.4 0-0.8 0-0.7 0.2-1.3 0.1-0.6 0.4-1.1 0.3-0.6 0.8-1 0.4-0.5 1-0.8 0.7-0.5 1.5-0.8 0.7-0.3 1.6-0.5 0.8-0.2 1.6-0.3 0.9-0.1 1.7-0.1 0.5 0 1 0.1 0.4 0 0.9 0 0.5 0.1 0.9 0.2 0.5 0 1 0.1 0.3 0.1 0.7 0.2 0.3 0.1 0.7 0.2 0.3 0.1 0.7 0.2 0.3 0.1 0.6 0.3v4.3h-0.4q-0.4-0.2-0.7-0.4-0.3-0.2-0.7-0.3-0.4-0.2-0.7-0.4-0.4-0.1-0.8-0.2-0.3-0.2-0.7-0.3-0.4-0.1-0.8-0.1-0.4-0.1-0.8-0.1-0.4-0.1-0.9-0.1-0.2 0-0.5 0-0.3 0.1-0.6 0.1-0.3 0.1-0.6 0.1-0.2 0.1-0.5 0.2-0.2 0-0.4 0.1-0.1 0.1-0.2 0.3-0.2 0.1-0.2 0.3-0.1 0.2-0.1 0.4 0 0.1 0 0.2 0 0.2 0.1 0.3 0 0.1 0.1 0.2 0.1 0.1 0.2 0.2 0.2 0.1 0.4 0.2 0.3 0.1 0.5 0.2 0.3 0.1 0.5 0.2 0.3 0 0.5 0 0.9 0.2 1.9 0.4 1 0.1 1.9 0.4 0.5 0.1 0.9 0.2 0.5 0.2 0.9 0.4 0.4 0.3 0.8 0.6 0.4 0.2 0.7 0.6 0.2 0.3 0.4 0.7z" />
</svg>