<?xml version="1.0" standalone="no"?>
<!DOCTYPE svg PUBLIC "-//W3C//DTD SVG 20010904//EN"
 "http://www.w3.org/TR/2001/REC-SVG-20010904/DTD/svg10.dtd">
<svg version="1.0" xmlns="http://www.w3.org/2000/svg"
 width="363.000000pt" height="111.000000pt" viewBox="0 0 363.000000 111.000000"
 preserveAspectRatio="xMidYMid meet">

<g transform="translate(0.000000,111.000000) scale(0.100000,-0.100000)"
fill="#000000" stroke="none">
<path d="M2330 931 c0 -5 5 -13 10 -16 6 -3 10 -2 10 4 0 5 -4 13 -10 16 -5 3
-10 2 -10 -4z"/>
<path d="M2485 782 c49 -51 57 -64 45 -72 -8 -5 -10 -10 -5 -10 38 0 30 20
-33 80 l-67 65 60 -63z"/>
<path d="M2490 625 c0 -5 5 -17 10 -25 5 -8 10 -10 10 -5 0 6 -5 17 -10 25 -5
8 -10 11 -10 5z"/>
<path d="M2497 569 c-9 -5 -22 -7 -27 -4 -6 3 -10 1 -10 -4 0 -16 23 -13 46 4
22 17 17 19 -9 4z"/>
</g>
</svg>
