<svg xmlns="http://www.w3.org/2000/svg" baseProfile="tiny-ps" viewBox="0 0 486 329"><title>TrustSEC</title><style>.shp0{fill:#000}.shp1{fill:#f8be32}.shp3{fill:#f8bf35}</style><path id="r" d="M108.7 282c-1.5-.38-3.26-.78-5.28-1.19-2.03-.4-4.21-.62-6.53-.62-1.05 0-2.31.1-3.77.29-1.47.18-2.57.39-3.32.61v45.24H73.03v-56.04c3-1.05 6.54-2.04 10.64-2.98 4.08-.94 8.64-1.41 13.67-1.41.9 0 1.98.06 3.26.17s2.55.26 3.83.45c1.27.19 2.55.41 3.82.67q1.92.405 3.27.96z" class="shp1"/><path id="u" d="M168.24 324.31c-2.86.83-6.53 1.59-11.03 2.31-4.51.71-9.23 1.07-14.18 1.07-5.03 0-9.21-.68-12.55-2.03s-5.98-3.24-7.93-5.68c-1.96-2.44-3.34-5.35-4.17-8.73-.83-3.37-1.24-7.09-1.24-11.14v-32.97h16.77v30.94c0 5.41.71 9.31 2.14 11.71 1.42 2.4 4.09 3.61 7.99 3.61 1.2 0 2.48-.07 3.83-.18q2.025-.165 3.6-.39v-45.69h16.77z" class="shp1"/><path id="s" d="M198.17 314.29c3.08 0 5.25-.3 6.53-.89 1.27-.6 1.91-1.77 1.91-3.5 0-1.34-.82-2.53-2.47-3.54-1.66-1.01-4.17-2.16-7.54-3.43-2.63-.98-5.01-1.99-7.15-3.04s-3.96-2.31-5.46-3.77c-1.5-1.47-2.66-3.21-3.49-5.24-.82-2.02-1.23-4.46-1.23-7.31 0-5.55 2.06-9.94 6.18-13.16 4.13-3.23 9.79-4.84 17-4.84 3.6 0 7.05.32 10.35.95 3.3.64 5.93 1.33 7.88 2.08l-2.93 13.06q-2.925-1.02-6.36-1.8c-2.28-.52-4.85-.79-7.7-.79-5.25 0-7.88 1.46-7.88 4.39 0 .67.11 1.28.34 1.8.22.53.67 1.03 1.34 1.52.68.49 1.6 1.02 2.77 1.58 1.16.57 2.64 1.19 4.44 1.87 3.68 1.37 6.71 2.71 9.11 4.03 2.4 1.33 4.3 2.76 5.69 4.29 1.39 1.54 2.36 3.24 2.93 5.11q.84 2.805.84 6.51c0 5.84-2.2 10.25-6.59 13.25-4.38 3-10.59 4.49-18.62 4.49-5.26 0-9.62-.45-13.11-1.35q-5.235-1.35-7.26-2.25l2.81-13.62c2.85 1.13 5.78 2.01 8.78 2.65s5.97.95 8.89.95" class="shp1"/><path id="t" d="m232.38 252.4 16.77-2.7v17.44h20.15v13.95h-20.15v20.82c0 3.53.62 6.34 1.86 8.45 1.24 2.1 3.73 3.14 7.48 3.14 1.8 0 3.66-.16 5.57-.5 1.92-.34 3.66-.8 5.23-1.41l2.37 13.06c-2.03.82-4.28 1.53-6.76 2.14-2.47.6-5.51.89-9.11.89-4.57 0-8.36-.61-11.37-1.85-3-1.24-5.39-2.97-7.2-5.18-1.8-2.21-3.06-4.89-3.77-8.04-.71-3.16-1.07-6.64-1.07-10.47z" class="shp1"/><path id="S" d="M300.62 326.7v-22.35h2.57c2.9 14.56 9.79 21.84 20.66 21.84 4.88 0 8.67-1.39 11.35-4.18 2.68-2.78 4.03-5.9 4.03-9.35 0-3.49-1.18-6.41-3.54-8.77-2.36-2.32-6.66-4.82-12.92-7.48-5.57-2.39-9.78-4.49-12.61-6.28-2.84-1.8-5.05-4.13-6.64-7s-2.38-5.93-2.38-9.17c0-4.96 1.72-9.09 5.15-12.38 3.43-3.3 7.78-4.95 13.04-4.95 2.94 0 5.71.48 8.31 1.43 2.59.96 5.26 2.94 7.99 5.95 1.57-1.88 2.47-3.91 2.67-6.1h2.25v18.2h-2.25c-1.3-5.3-3.6-9.47-6.89-12.51q-4.95-4.56-11.46-4.56c-4.14 0-7.17 1.12-9.1 3.35-1.93 2.24-2.9 4.69-2.9 7.36 0 3.21 1.22 5.93 3.65 8.15 2.38 2.25 6.71 4.78 12.96 7.58 5.98 2.67 10.33 4.82 13.05 6.44s4.89 3.87 6.54 6.74c1.63 2.87 2.45 6.19 2.45 9.94 0 5.95-1.98 10.79-5.94 14.51-3.97 3.73-9.26 5.59-15.89 5.59-7.62 0-13.98-2.92-19.07-8.77-1.13 1.61-1.97 3.86-2.51 6.77z" class="shp0"/><path id="E" d="M411.35 305.79h2.46l-1.49 21.63h-57.57v-2.36h1.44q5.175 0 6.69-1.38c1-.93 1.65-2.09 1.92-3.51.28-1.42.41-5.04.41-10.85v-34.08c0-5.3-.14-8.79-.43-10.46-.29-1.68-.96-2.85-2-3.51-1.04-.67-3.24-1-6.59-1v-2.36h49.67l1.64 17.33h-2.4c-1.1-4.86-2.44-8.3-4.03-10.33-1.59-2.04-3.48-3.32-5.67-3.85-2.18-.53-5.7-.79-10.55-.79h-9.64v29.16h7.38c3.38 0 5.75-.28 7.1-.87q2.025-.87 2.67-2.64c.42-1.18.64-3.47.64-6.89h2.4v23.78H393c0-3.86-.33-6.45-.98-7.76-.65-1.32-1.59-2.17-2.84-2.57-1.25-.39-3.36-.59-6.33-.59h-7.64v16.46c0 8.23.52 13.08 1.58 14.53s3.92 2.18 8.57 2.18h5.18c3.65 0 6.66-.47 9.02-1.41s4.6-2.87 6.74-5.79c2.13-2.92 3.82-6.95 5.05-12.07" class="shp0"/><path id="C" d="M483.37 301.33h2.2v24.35h-2.2c-.62-2.77-1.73-5.21-3.33-7.33q-9.18 10.35-23.43 10.35c-10.05 0-18.26-3.18-24.63-9.53-6.38-6.36-9.56-14.77-9.56-25.22 0-6.87 1.46-13.34 4.41-19.41q4.41-9.09 12.3-13.5c5.26-2.94 11.04-4.41 17.33-4.41 5.19 0 9.89 1.07 14.12 3.2 4.22 2.14 7.37 4.51 9.46 7.1 1.46-2.9 2.35-5.91 2.66-9.02h2.26l.61 26.35h-2.2c-1.54-9.36-4.68-15.87-9.41-19.53q-7.095-5.49-16.02-5.49c-7.28 0-13.06 2.96-17.35 8.87-4.29 5.92-6.43 14.37-6.43 25.38 0 10.42 2.34 18.41 7.02 23.96 4.68 5.56 10.5 8.33 17.48 8.33 3.72 0 7.53-.9 11.43-2.71 3.9-1.82 6.98-4.88 9.25-9.2 2.28-4.33 3.62-8.51 4.03-12.54" class="shp0"/><path id="Shield" d="M154.53 40.33s49.12 5.13 97.51-30.06c0 0 39.58 26.39 98.23 34.46 0 0 10.27 123.9-96.04 170.09 0 0-112.9-66.72-99.7-174.49" class="shp0"/><path id="Layer" d="M251.9.58s28.13 30.35 104.39 34.05c0 0 9.88 138.7-104.39 188.06V206.4s86.63-34.79 88.85-156.96c0 0-63.68-11.11-88.85-29.62z" style="fill:#ce9f30"/><path d="M252.12.58s-28.14 30.35-104.4 34.05c0 0-9.87 138.7 104.4 188.06V206.4s-86.63-34.79-88.85-156.96c0 0 63.67-11.11 88.85-29.62z" class="shp3"/><path d="M267.45 69.19v-23.2c16.78 13.82 60.22 19.74 60.22 19.74v19.74c-42.94-2.46-60.22-16.28-60.22-16.28v-23.2" style="fill:#d0a02d"/><path d="M175.15 64.25c50.34-3.46 77.49-31.1 77.49-31.1v166.34l-20.24-11.84V72.64c-13.32 8.39-54.78 13.82-54.78 13.82z" class="shp3"/><path d="M.32 245.68c29.93-2.06 46.07-18.49 46.07-18.49v98.89l-12.03-7.05v-68.37c-7.93 4.99-32.57 8.22-32.57 8.22zM54.82 245.82v-12.47c9.03 7.43 32.38 10.62 32.38 10.62v10.61c-23.09-1.32-32.38-8.76-32.38-8.76v-12.47" class="shp0"/></svg>