<?xml version="1.0" encoding="utf-8"?>
<!-- Generator: Adobe Illustrator 15.0.0, SVG Export Plug-In . SVG Version: 6.00 Build 0)  -->
<!DOCTYPE svg PUBLIC "-//W3C//DTD SVG 1.1//EN" "http://www.w3.org/Graphics/SVG/1.1/DTD/svg11.dtd">
<svg version="1.1" id="Layer_1" xmlns="http://www.w3.org/2000/svg" xmlns:xlink="http://www.w3.org/1999/xlink" x="0px" y="0px"
	 width="841.89px" height="595.276px" viewBox="0 0 841.89 595.276" enable-background="new 0 0 841.89 595.276"
	 xml:space="preserve">
<g>
	<defs>
		<rect id="SVGID_1_" width="841.89" height="595.276"/>
	</defs>
	<clipPath id="SVGID_2_">
		<use xlink:href="#SVGID_1_"  overflow="visible"/>
	</clipPath>
	<path clip-path="url(#SVGID_2_)" d="M478.623,459.701v-22.349h2.566c2.903,14.56,9.787,21.836,20.658,21.836
		c4.887,0,8.672-1.391,11.353-4.175c2.681-2.786,4.026-5.905,4.026-9.356c0-3.484-1.18-6.409-3.54-8.766
		c-2.359-2.322-6.66-4.82-12.916-7.483c-5.571-2.391-9.776-4.487-12.611-6.28c-2.835-1.796-5.051-4.127-6.639-6.996
		c-1.587-2.872-2.383-5.932-2.383-9.176c0-4.957,1.72-9.081,5.149-12.38c3.437-3.299,7.784-4.949,13.048-4.949
		c2.938,0,5.704,0.481,8.305,1.438c2.595,0.956,5.265,2.938,7.995,5.945c1.57-1.879,2.463-3.912,2.664-6.101h2.256v18.197h-2.256
		c-1.295-5.296-3.597-9.465-6.89-12.507c-3.299-3.041-7.12-4.562-11.461-4.562c-4.137,0-7.166,1.119-9.097,3.356
		c-1.93,2.239-2.897,4.69-2.897,7.356c0,3.214,1.214,5.929,3.643,8.15c2.389,2.254,6.713,4.785,12.968,7.586
		c5.979,2.667,10.326,4.812,13.047,6.433c2.715,1.623,4.892,3.871,6.535,6.741c1.639,2.872,2.457,6.187,2.457,9.946
		c0,5.945-1.981,10.782-5.944,14.505c-3.964,3.727-9.263,5.587-15.89,5.587c-7.623,0-13.98-2.921-19.072-8.763
		c-1.128,1.605-1.964,3.86-2.508,6.764H478.623z"/>
	<path clip-path="url(#SVGID_2_)" d="M589.349,438.787h2.457l-1.483,21.633h-57.568v-2.356h1.438c3.449,0,5.676-0.461,6.689-1.386
		c1.003-0.923,1.645-2.091,1.92-3.512c0.274-1.418,0.411-5.032,0.411-10.842v-34.088c0-5.295-0.147-8.783-0.435-10.456
		c-0.292-1.675-0.957-2.846-1.999-3.513c-1.042-0.665-3.242-1-6.587-1v-2.357h49.67l1.638,17.326h-2.404
		c-1.096-4.851-2.436-8.296-4.027-10.329c-1.587-2.034-3.478-3.314-5.665-3.844c-2.188-0.53-5.704-0.796-10.555-0.796h-9.641v29.168
		h7.383c3.38,0,5.75-0.289,7.097-0.871c1.352-0.581,2.24-1.46,2.669-2.641c0.424-1.18,0.642-3.477,0.642-6.893h2.405v23.783h-2.405
		c0-3.86-0.327-6.449-0.974-7.767c-0.653-1.314-1.598-2.168-2.847-2.563c-1.248-0.394-3.356-0.59-6.329-0.59h-7.641v16.455
		c0,8.235,0.527,13.082,1.587,14.533c1.06,1.452,3.917,2.18,8.563,2.18h5.178c3.654,0,6.661-0.469,9.021-1.412
		c2.359-0.939,4.604-2.869,6.741-5.79C586.434,447.937,588.117,443.913,589.349,438.787"/>
	<path clip-path="url(#SVGID_2_)" d="M661.367,434.328h2.205v24.349h-2.205c-0.613-2.767-1.725-5.21-3.328-7.329
		c-6.117,6.901-13.93,10.353-23.426,10.353c-10.052,0-18.26-3.176-24.635-9.534c-6.375-6.354-9.559-14.762-9.559-25.221
		c0-6.867,1.466-13.334,4.41-19.402c2.938-6.065,7.039-10.566,12.303-13.506c5.258-2.938,11.037-4.41,17.326-4.41
		c5.195,0,9.896,1.071,14.118,3.205c4.222,2.137,7.377,4.504,9.462,7.1c1.466-2.904,2.354-5.911,2.664-9.021h2.256l0.613,26.348
		h-2.205c-1.535-9.362-4.674-15.871-9.405-19.528s-10.075-5.487-16.021-5.487c-7.279,0-13.063,2.958-17.349,8.869
		c-4.29,5.914-6.432,14.37-6.432,25.373c0,10.424,2.337,18.411,7.021,23.967c4.681,5.553,10.505,8.328,17.481,8.328
		c3.723,0,7.532-0.905,11.426-2.715c3.901-1.813,6.982-4.88,9.256-9.201C659.62,442.538,660.96,438.36,661.367,434.328"/>
	<path clip-path="url(#SVGID_2_)" d="M332.53,173.331c0,0,49.12,5.132,97.506-30.058c0,0,39.589,26.392,98.238,34.457
		c0,0,10.265,123.899-96.039,170.086C432.235,347.816,319.334,281.101,332.53,173.331"/>
	<path clip-path="url(#SVGID_2_)" fill="#F8BE32" d="M286.704,414.998c-1.499-0.375-3.262-0.773-5.288-1.184
		c-2.026-0.408-4.202-0.62-6.528-0.62c-1.052,0-2.305,0.097-3.771,0.282c-1.464,0.189-2.569,0.394-3.317,0.619v45.239h-16.767
		v-56.041c2.997-1.054,6.542-2.045,10.633-2.984c4.088-0.937,8.647-1.406,13.675-1.406c0.899,0,1.984,0.055,3.263,0.169
		c1.276,0.111,2.546,0.261,3.824,0.449c1.275,0.187,2.551,0.412,3.826,0.674c1.276,0.266,2.365,0.584,3.265,0.957L286.704,414.998z"
		/>
	<path clip-path="url(#SVGID_2_)" fill="#F8BE32" d="M346.237,457.31c-2.854,0.827-6.528,1.595-11.03,2.308
		s-9.228,1.068-14.178,1.068c-5.029,0-9.212-0.672-12.552-2.027c-3.337-1.349-5.981-3.239-7.931-5.679
		c-1.951-2.438-3.338-5.348-4.165-8.727c-0.827-3.371-1.238-7.091-1.238-11.14V400.14h16.769v30.945
		c0,5.407,0.711,9.309,2.137,11.707c1.425,2.403,4.089,3.604,7.991,3.604c1.199,0,2.478-0.061,3.827-0.172s2.551-0.243,3.601-0.393
		V400.14h16.769V457.31z"/>
	<path clip-path="url(#SVGID_2_)" fill="#F8BE32" d="M376.175,447.295c3.073,0,5.249-0.301,6.522-0.899
		c1.278-0.599,1.915-1.765,1.915-3.491c0-1.349-0.825-2.531-2.476-3.546c-1.654-1.011-4.167-2.155-7.539-3.433
		c-2.625-0.971-5.009-1.985-7.147-3.036c-2.137-1.051-3.959-2.308-5.456-3.771c-1.502-1.464-2.664-3.207-3.49-5.234
		c-0.825-2.022-1.236-4.46-1.236-7.315c0-5.55,2.062-9.939,6.186-13.164c4.128-3.225,9.791-4.84,16.994-4.84
		c3.604,0,7.052,0.32,10.357,0.956c3.299,0.64,5.923,1.332,7.874,2.082l-2.924,13.056c-1.954-0.679-4.073-1.276-6.361-1.801
		c-2.287-0.523-4.855-0.788-7.706-0.788c-5.252,0-7.877,1.464-7.877,4.391c0,0.673,0.112,1.277,0.338,1.799
		c0.222,0.527,0.674,1.034,1.346,1.52c0.68,0.49,1.598,1.018,2.762,1.581c1.161,0.57,2.645,1.192,4.44,1.873
		c3.68,1.363,6.715,2.704,9.117,4.03c2.401,1.323,4.296,2.754,5.686,4.287c1.388,1.535,2.364,3.236,2.927,5.105
		c0.56,1.873,0.842,4.043,0.842,6.513c0,5.842-2.197,10.255-6.587,13.254c-4.384,2.992-10.596,4.487-18.619,4.487
		c-5.258,0-9.622-0.446-13.115-1.349c-3.486-0.901-5.904-1.649-7.256-2.252l2.812-13.617c2.847,1.129,5.779,2.012,8.779,2.646
		C370.28,446.977,373.246,447.295,376.175,447.295"/>
	<path clip-path="url(#SVGID_2_)" fill="#F8BE32" d="M410.385,385.397l16.769-2.701v17.444h20.143v13.955h-20.143v20.82
		c0,3.527,0.618,6.34,1.859,8.441c1.234,2.103,3.727,3.147,7.48,3.147c1.8,0,3.657-0.165,5.567-0.504
		c1.916-0.338,3.663-0.802,5.235-1.405l2.362,13.052c-2.027,0.828-4.275,1.538-6.756,2.14c-2.474,0.602-5.51,0.899-9.106,0.899
		c-4.577,0-8.369-0.619-11.37-1.855c-3-1.237-5.398-2.965-7.201-5.179c-1.801-2.21-3.063-4.894-3.772-8.044
		c-0.713-3.152-1.068-6.641-1.068-10.467V385.397z"/>
	<path clip-path="url(#SVGID_2_)" fill="#CE9F30" d="M429.901,133.576c0,0,28.134,30.357,104.393,34.059
		c0,0,9.875,138.699-104.393,188.059v-16.289c0,0,86.626-34.798,88.846-156.965c0,0-63.673-11.105-88.846-29.615V133.576z"/>
	<path clip-path="url(#SVGID_2_)" fill="#F8BF35" d="M430.116,133.576c0,0-28.135,30.357-104.395,34.059
		c0,0-9.874,138.699,104.395,188.059v-16.289c0,0-86.626-34.798-88.847-156.965c0,0,63.675-11.105,88.847-29.615V133.576z"/>
	<path clip-path="url(#SVGID_2_)" fill="#D0A02D" d="M445.449,202.187v-23.199c16.785,13.82,60.22,19.744,60.22,19.744v19.742
		C462.726,216.007,445.449,202.187,445.449,202.187v-23.199"/>
	<path clip-path="url(#SVGID_2_)" fill="#F8BF35" d="M353.147,197.249c50.345-3.454,77.494-31.096,77.494-31.096v166.341
		l-20.237-11.848V205.64c-13.328,8.392-54.788,13.821-54.788,13.821L353.147,197.249z"/>
	<path clip-path="url(#SVGID_2_)" d="M178.318,378.676c29.932-2.054,46.072-18.489,46.072-18.489v98.893l-12.032-7.045v-68.373
		c-7.924,4.989-32.572,8.219-32.572,8.219L178.318,378.676z"/>
	<path clip-path="url(#SVGID_2_)" d="M232.824,378.825V366.35c9.025,7.432,32.378,10.619,32.378,10.619v10.612
		C242.113,386.258,232.824,378.825,232.824,378.825V366.35"/>
</g>
</svg>
