<svg version="1.2" baseProfile="tiny-ps" xmlns="http://www.w3.org/2000/svg" viewBox="0 0 486 329">
	<title>TrustSEC</title>
	<style>
		tspan { white-space:pre }
		.shp0 { fill: #000000 } 
		.shp1 { fill: #f8be32 } 
		.shp2 { fill: #ce9f30 } 
		.shp3 { fill: #f8bf35 } 
		.shp4 { fill: #d0a02d } 
	</style>
	<path id="r" class="shp1" d="M108.7 282C107.2 281.62 105.44 281.22 103.42 280.81C101.39 280.41 99.21 280.19 96.89 280.19C95.84 280.19 94.58 280.29 93.12 280.48C91.65 280.66 90.55 280.87 89.8 281.09L89.8 326.33L73.03 326.33L73.03 270.29C76.03 269.24 79.57 268.25 83.67 267.31C87.75 266.37 92.31 265.9 97.34 265.9C98.24 265.9 99.32 265.96 100.6 266.07C101.88 266.18 103.15 266.33 104.43 266.52C105.7 266.71 106.98 266.93 108.25 267.19C109.53 267.46 110.62 267.78 111.52 268.15L108.7 282Z" />
	<path id="u" class="shp1" d="M168.24 324.31C165.38 325.14 161.71 325.9 157.21 326.62C152.7 327.33 147.98 327.69 143.03 327.69C138 327.69 133.82 327.01 130.48 325.66C127.14 324.31 124.5 322.42 122.55 319.98C120.59 317.54 119.21 314.63 118.38 311.25C117.55 307.88 117.14 304.16 117.14 300.11L117.14 267.14L133.91 267.14L133.91 298.08C133.91 303.49 134.62 307.39 136.05 309.79C137.47 312.19 140.14 313.4 144.04 313.4C145.24 313.4 146.52 313.33 147.87 313.22C149.22 313.11 150.42 312.98 151.47 312.83L151.47 267.14L168.24 267.14L168.24 324.31Z" />
	<path id="s" class="shp1" d="M198.17 314.29C201.25 314.29 203.42 313.99 204.7 313.4C205.97 312.8 206.61 311.63 206.61 309.9C206.61 308.56 205.79 307.37 204.14 306.36C202.48 305.35 199.97 304.2 196.6 302.93C193.97 301.95 191.59 300.94 189.45 299.89C187.31 298.84 185.49 297.58 183.99 296.12C182.49 294.65 181.33 292.91 180.5 290.88C179.68 288.86 179.27 286.42 179.27 283.57C179.27 278.02 181.33 273.63 185.45 270.41C189.58 267.18 195.24 265.57 202.45 265.57C206.05 265.57 209.5 265.89 212.8 266.52C216.1 267.16 218.73 267.85 220.68 268.6L217.75 281.66C215.8 280.98 213.68 280.38 211.39 279.86C209.11 279.34 206.54 279.07 203.69 279.07C198.44 279.07 195.81 280.53 195.81 283.46C195.81 284.13 195.92 284.74 196.15 285.26C196.37 285.79 196.82 286.29 197.49 286.78C198.17 287.27 199.09 287.8 200.26 288.36C201.42 288.93 202.9 289.55 204.7 290.23C208.38 291.6 211.41 292.94 213.81 294.26C216.21 295.59 218.11 297.02 219.5 298.55C220.89 300.09 221.86 301.79 222.43 303.66C222.99 305.53 223.27 307.7 223.27 310.17C223.27 316.01 221.07 320.42 216.68 323.42C212.3 326.42 206.09 327.91 198.06 327.91C192.8 327.91 188.44 327.46 184.95 326.56C181.46 325.66 179.04 324.91 177.69 324.31L180.5 310.69C183.35 311.82 186.28 312.7 189.28 313.34C192.28 313.98 195.25 314.29 198.17 314.29Z" />
	<path id="t" class="shp1" d="M232.38 252.4L249.15 249.7L249.15 267.14L269.3 267.14L269.3 281.09L249.15 281.09L249.15 301.91C249.15 305.44 249.77 308.25 251.01 310.36C252.25 312.46 254.74 313.5 258.49 313.5C260.29 313.5 262.15 313.34 264.06 313C265.98 312.66 267.72 312.2 269.29 311.59L271.66 324.65C269.63 325.47 267.38 326.18 264.9 326.79C262.43 327.39 259.39 327.68 255.79 327.68C251.22 327.68 247.43 327.07 244.42 325.83C241.42 324.59 239.03 322.86 237.22 320.65C235.42 318.44 234.16 315.76 233.45 312.61C232.74 309.45 232.38 305.97 232.38 302.14L232.38 252.4L232.38 252.4Z" />
	<path id="S" class="shp0" d="M300.62 326.7L300.62 304.35L303.19 304.35C306.09 318.91 312.98 326.19 323.85 326.19C328.73 326.19 332.52 324.8 335.2 322.01C337.88 319.23 339.23 316.11 339.23 312.66C339.23 309.17 338.05 306.25 335.69 303.89C333.33 301.57 329.03 299.07 322.77 296.41C317.2 294.02 312.99 291.92 310.16 290.13C307.32 288.33 305.11 286 303.52 283.13C301.93 280.26 301.14 277.2 301.14 273.96C301.14 269 302.86 264.87 306.29 261.58C309.72 258.28 314.07 256.63 319.33 256.63C322.27 256.63 325.04 257.11 327.64 258.06C330.23 259.02 332.9 261 335.63 264.01C337.2 262.13 338.1 260.1 338.3 257.91L340.55 257.91L340.55 276.11L338.3 276.11C337 270.81 334.7 266.64 331.41 263.6C328.11 260.56 324.29 259.04 319.95 259.04C315.81 259.04 312.78 260.16 310.85 262.39C308.92 264.63 307.95 267.08 307.95 269.75C307.95 272.96 309.17 275.68 311.6 277.9C313.98 280.15 318.31 282.68 324.56 285.48C330.54 288.15 334.89 290.3 337.61 291.92C340.33 293.54 342.5 295.79 344.15 298.66C345.78 301.53 346.6 304.85 346.6 308.6C346.6 314.55 344.62 319.39 340.66 323.11C336.69 326.84 331.4 328.7 324.77 328.7C317.15 328.7 310.79 325.78 305.7 319.93C304.57 321.54 303.73 323.79 303.19 326.7L300.62 326.7L300.62 326.7Z" />
	<path id="E" class="shp0" d="M411.35 305.79L413.81 305.79L412.32 327.42L354.75 327.42L354.75 325.06L356.19 325.06C359.64 325.06 361.87 324.6 362.88 323.68C363.88 322.75 364.53 321.59 364.8 320.17C365.08 318.75 365.21 315.13 365.21 309.32L365.21 275.24C365.21 269.94 365.07 266.45 364.78 264.78C364.49 263.1 363.82 261.93 362.78 261.27C361.74 260.6 359.54 260.27 356.19 260.27L356.19 257.91L405.86 257.91L407.5 275.24L405.1 275.24C404 270.38 402.66 266.94 401.07 264.91C399.48 262.87 397.59 261.59 395.4 261.06C393.22 260.53 389.7 260.27 384.85 260.27L375.21 260.27L375.21 289.43L382.59 289.43C385.97 289.43 388.34 289.15 389.69 288.56C391.04 287.98 391.93 287.1 392.36 285.92C392.78 284.74 393 282.45 393 279.03L395.4 279.03L395.4 302.81L393 302.81C393 298.95 392.67 296.36 392.02 295.05C391.37 293.73 390.43 292.88 389.18 292.48C387.93 292.09 385.82 291.89 382.85 291.89L375.21 291.89L375.21 308.35C375.21 316.58 375.73 321.43 376.79 322.88C377.85 324.33 380.71 325.06 385.36 325.06L390.54 325.06C394.19 325.06 397.2 324.59 399.56 323.65C401.92 322.71 404.16 320.78 406.3 317.86C408.43 314.94 410.12 310.91 411.35 305.79Z" />
	<path id="C" class="shp0" d="M483.37 301.33L485.57 301.33L485.57 325.68L483.37 325.68C482.75 322.91 481.64 320.47 480.04 318.35C473.92 325.25 466.11 328.7 456.61 328.7C446.56 328.7 438.35 325.52 431.98 319.17C425.6 312.81 422.42 304.4 422.42 293.95C422.42 287.08 423.88 280.61 426.83 274.54C429.77 268.48 433.87 263.98 439.13 261.04C444.39 258.1 450.17 256.63 456.46 256.63C461.65 256.63 466.35 257.7 470.58 259.83C474.8 261.97 477.95 264.34 480.04 266.93C481.5 264.03 482.39 261.02 482.7 257.91L484.96 257.91L485.57 284.26L483.37 284.26C481.83 274.9 478.69 268.39 473.96 264.73C469.23 261.07 463.89 259.24 457.94 259.24C450.66 259.24 444.88 262.2 440.59 268.11C436.3 274.03 434.16 282.48 434.16 293.49C434.16 303.91 436.5 311.9 441.18 317.45C445.86 323.01 451.68 325.78 458.66 325.78C462.38 325.78 466.19 324.88 470.09 323.07C473.99 321.25 477.07 318.19 479.34 313.87C481.62 309.54 482.96 305.36 483.37 301.33Z" />
	<path id="Shield" class="shp0" d="M154.53 40.33C154.53 40.33 203.65 45.46 252.04 10.27C252.04 10.27 291.62 36.66 350.27 44.73C350.27 44.73 360.54 168.63 254.23 214.82C254.23 214.82 141.33 148.1 154.53 40.33Z" />
	<path id="Layer" class="shp2" d="M251.9 0.58C251.9 0.58 280.03 30.93 356.29 34.63C356.29 34.63 366.17 173.33 251.9 222.69L251.9 206.4C251.9 206.4 338.53 171.61 340.75 49.44C340.75 49.44 277.07 38.33 251.9 19.82L251.9 0.58L251.9 0.58Z" />
	<path id="Layer" class="shp3" d="M252.12 0.58C252.12 0.58 223.98 30.93 147.72 34.63C147.72 34.63 137.85 173.33 252.12 222.69L252.12 206.4C252.12 206.4 165.49 171.61 163.27 49.44C163.27 49.44 226.94 38.33 252.12 19.82L252.12 0.58Z" />
	<path id="Layer" class="shp4" d="M267.45 69.19L267.45 45.99C284.23 59.81 327.67 65.73 327.67 65.73L327.67 85.47C284.73 83.01 267.45 69.19 267.45 69.19L267.45 45.99" />
	<path id="Layer" class="shp3" d="M175.15 64.25C225.49 60.79 252.64 33.15 252.64 33.15L252.64 199.49L232.4 187.65L232.4 72.64C219.08 81.03 177.62 86.46 177.62 86.46L175.15 64.25Z" />
	<path id="Layer" class="shp0" d="M0.32 245.68C30.25 243.62 46.39 227.19 46.39 227.19L46.39 326.08L34.36 319.03L34.36 250.66C26.43 255.65 1.79 258.88 1.79 258.88L0.32 245.68Z" />
	<path id="Layer" class="shp0" d="M54.82 245.82L54.82 233.35C63.85 240.78 87.2 243.97 87.2 243.97L87.2 254.58C64.11 253.26 54.82 245.82 54.82 245.82L54.82 233.35" />
</svg>