<svg xmlns="http://www.w3.org/2000/svg" viewBox="0 0 832 236"><title>DigiCert Blue Logo</title><style>.s0{fill:#1774ba}</style><path id="R" fill-rule="evenodd" d="M806.2 29.6V9h6.5c1.8 0 3.1.3 4 .6s1.8 1.3 2.4 2.2c.7.9 1 2.1 1 3.4 0 1.2-.3 2.4-1 3.4-.6.9-1.5 1.8-2.7 2.1.3.3.3.6.6.9l4.3 8h-3.4l-4.3-8.3h-4.3v8.3zm2.8-10.7h4.3q1.8 0 2.8-1 .9-.9.9-2.7c0-1.6-.6-2.5-1.6-3.1-.6-.3-1.5-.6-2.7-.6h-3.4z" class="s0"/><path id="digicert" fill-rule="evenodd" d="M.5 117.1c0-20.7 5.6-37 16.4-49.3 11-12.3 24.9-18.5 42.1-18.5 5.6 0 10.8.7 15.7 2.2 5 1.2 8.7 3.1 11.4 5.2 2.8 2.2 5.3 4 7.4 6.2 2.2 2.1 3.7 3.7 4.6 5.2l1 2.2h.6c-.3-2.5-.6-5.6-.6-8.6V1H124v181h-23.7v-12.3l.3-8.6h-.6c-.3.6-.9 1.5-1.6 2.5-.6.9-2.1 3-4.3 5.8-2.1 2.8-4.9 5.2-8 7.4-3 2.2-7.1 4-12.3 5.9-5.2 1.8-10.8 2.4-16.6 2.4-17.6 0-31.4-6.1-41.6-18.8C5.8 153.7.5 137.4.5 117.1m25.6 0c0 14.1 3.4 25.2 10.2 33.8 6.7 8.4 15.7 12.7 26.4 12.7 10.5 0 19.4-4 26.8-11.7 7.1-7.7 10.8-19.4 10.8-35.1 0-12.7-3.1-23.4-9.6-32.4-6.4-9.2-15.3-13.8-27-13.8-10.5 0-19.4 4-26.8 12.3-7.4 8.6-10.8 19.7-10.8 34.2m119.1-90.8V1h25.3v25.3zm.3 155.7V52.1h24.9V182zm62.8 23.4c10.8 5.9 22.8 8.7 35.7 8.7 12.4 0 22.2-3.1 29.9-9 7.4-5.8 11.4-15.1 11.4-27.7v-9.5l.3-8.3h-.6c-8 13.5-20.9 20.3-38.5 20.3-17.5 0-31.7-6.2-42.2-18.8-10.4-12.6-15.7-28.3-15.7-47.7 0-19.1 5-34.8 15.1-46.8 10.2-12 24-18.2 41.6-18.2 5.8 0 11.1.6 16 1.9 4.9 1.2 8.9 2.7 11.7 4.9 2.8 1.8 5.2 4 7.4 5.8 2.1 1.9 3.4 3.4 4 5l1.2 1.8h.6c-.3-1.2-.3-2.4-.3-4v-12h23.7v124.4c0 10.1-1.8 19.4-5.5 27.1-3.7 8-8.6 14.1-15.1 18.4-6.5 4.7-13.2 8.1-20.6 10.2-7.4 2.2-15.7 3.4-24 3.4-15.8 0-30.5-3.7-44.4-10.8zm42.8-46.5c10.2 0 18.5-3.4 24.6-10.4 6.5-7.1 9.6-18.5 9.6-34.2 0-28.9-12.3-43.7-36.7-43.7-11 0-19.7 3.7-26.1 11.4q-9.3 11.5-9.3 31.4c0 13.5 3.4 24.6 10.2 32.9s16 12.6 27.7 12.6m79.1-132.7V1h25.3v25.2zm.3 155.8V52.1h24.9V182zm43.1-64.9c0-19.4 6.5-35.4 19.7-48.4q19.4-19.4 49.9-19.4c9.5 0 18.5 1.6 26.5 4.7 8 3 13.8 6.4 17.2 9.5l4.9 4.6-11.7 17.6c-.9-1-2.4-2.5-4.6-4-1.8-1.9-6.1-4-12.3-6.8s-12.6-4-19.1-4q-19.4 0-32.3 12.9c-8.6 8.6-12.9 19.7-12.9 33q0 19.8 12.9 33.2c8.6 8.9 19.7 13.2 32.9 13.2 7.1 0 14.2-1.5 20.7-4.3 6.7-2.7 11.4-5.8 14.4-8.6l4.6-4.3 9.9 18.2c-.6.6-1.2 1.2-2.2 2.1-.9.9-3 2.5-6.1 4.9-3.4 2.5-6.8 4.7-10.5 6.2-3.7 1.9-8.6 3.4-14.4 4.9-5.9 1.6-12.1 2.2-18.5 2.2-20.3 0-37-6.5-49.9-19.1-12.6-12.3-19.1-28.6-19.1-48.3m124.4 0c0-20.4 6.2-36.7 18.5-49.3S544.2 49 563 49c17.5 0 31.4 5.9 41.2 17.3C614.1 77.7 619 92.1 619 110l-.6 10.8h-94.5c.6 13.5 5.2 24.3 13.8 31.7 8.3 7.4 18.8 11.1 30.8 11.1 6.8 0 13.2-1.3 19.7-3.7 6.5-2.5 11.1-5 14.2-7.4l4.6-3.7 10.1 18.1c-1.2 1.3-3.4 3.1-6.1 5.3-2.8 2.1-8.3 4.9-17.3 8.3-8.6 3.4-17.5 5.2-26.7 5.2-20.4 0-36.7-6.4-49.6-19.4-12.9-13.5-19.4-29.8-19.4-49.2m26.5-15.1h69.2c-.3-10.8-3.3-19.1-9.2-24.7-5.8-5.5-13.2-8.3-21.9-8.3-9.8 0-18.1 2.8-24.9 8.7-7.4 5.8-11.7 13.8-13.2 24.3m112.3 80V52.1h24.1v22.5l-.7 9.8h.7c3-9.8 8.3-18.1 15.3-24.3 7.4-6.5 15.7-9.5 25.6-9.5l6.5.6v24.6c-2.2-.6-4.7-.6-7.1-.6q-12 0-22.2 8.3c-6.8 5.5-11.4 12.9-14.5 22.2-2.1 6.7-3 14.4-3 23.4V182zm103.4-47.4V74h-16.9V54h17.5V16.4h24V54h31.4v20h-31.4v57.5c0 5 .7 9.3 2.2 13 1.2 3.7 3.1 6.4 4.9 8.6 1.9 2.1 4.3 3.7 6.8 4.9 2.8 1.2 4.9 1.9 7.1 2.2 2.1.3 4.3.6 6.4.6l5.9-.6v22.1c-2.5.3-5.2.6-8.6.6-4 0-8-.3-11.7-.6q-5.6-.9-13-3.7c-4.9-2.1-8.9-4.6-12.3-8s-6.4-8-8.9-14.1c-2.2-6.5-3.4-13.9-3.4-21.9m91.1-115.1c0 10.4-8.3 18.8-18.7 18.8-10.5 0-18.8-8.4-18.8-18.8C793.8 9 802.1.7 812.6.7c10.4 0 18.7 8.3 18.7 18.8m-3.7 0c0-8.3-6.7-15.1-15-15.1-8.4 0-15.1 6.8-15.1 15.1s6.7 15.1 15.1 15.1c8.3 0 15-6.8 15-15.1" class="s0"/></svg>