<svg xmlns="http://www.w3.org/2000/svg" id="Layer_1" viewBox="0 0 559.63 192.28"><defs><style>.st0{fill:#264742}.st1{fill:#8ac2ba}</style></defs><path d="M129.7 65.16c-3.95-3.95-8.53-7.06-13.74-9.32s-10.82-3.39-16.85-3.39-11.64 1.13-16.85 3.39-9.79 5.37-13.74 9.32-7.06 8.53-9.32 13.74-3.39 10.82-3.39 16.85 1.13 11.64 3.39 16.85 5.37 9.79 9.32 13.74 8.54 7.06 13.74 9.32c5.21 2.26 10.82 3.39 16.85 3.39s11.64-1.13 16.85-3.39 9.79-5.37 13.74-9.32 7.06-8.54 9.32-13.74c2.26-5.21 3.39-10.82 3.39-16.85s-1.13-11.64-3.39-16.85-5.36-9.79-9.32-13.74m-6.31 40.85c-1.38 3.2-3.26 5.99-5.65 8.38s-5.18 4.27-8.38 5.65q-4.8 2.07-10.26 2.07c-5.46 0-7.06-.69-10.26-2.07s-5.99-3.26-8.38-5.65c-2.38-2.39-4.27-5.18-5.65-8.38q-2.07-4.8-2.07-10.26c0-5.46.69-7.06 2.07-10.26s3.26-5.99 5.65-8.38 5.18-4.27 8.38-5.65q4.8-2.07 10.26-2.07c5.46 0 7.06.69 10.26 2.07s5.99 3.26 8.38 5.65c2.39 2.38 4.27 5.18 5.65 8.38q2.07 4.8 2.07 10.26c0 5.46-.69 7.06-2.07 10.26M214.69 52.46c-6.02 0-11.64 1.13-16.85 3.39s-9.79 5.37-13.74 9.32-7.06 8.53-9.32 13.74-3.39 10.82-3.39 16.85 1.13 11.64 3.39 16.85 5.36 9.79 9.32 13.74c3.95 3.95 8.53 7.06 13.74 9.32s10.82 3.39 16.85 3.39 11.64-1.13 16.85-3.39 9.79-5.37 13.74-9.32 7.06-8.54 9.32-13.74c2.26-5.21 3.39-10.82 3.39-16.85s-1.13-11.64-3.39-16.85-5.37-9.79-9.32-13.74-8.54-7.06-13.74-9.32c-5.21-2.26-10.82-3.39-16.85-3.39m24.29 33.04q2.07 4.8 2.07 10.26c0 5.46-.69 7.06-2.07 10.26s-3.26 5.99-5.65 8.38c-2.39 2.38-5.18 4.27-8.38 5.65q-4.8 2.07-10.26 2.07c-5.46 0-7.06-.69-10.26-2.07s-5.99-3.26-8.38-5.65-4.27-5.18-5.65-8.38q-2.07-4.8-2.07-10.26c0-5.46.69-7.06 2.07-10.26s3.26-5.99 5.65-8.38c2.38-2.39 5.18-4.27 8.38-5.65q4.8-2.07 10.26-2.07c5.46 0 7.06.69 10.26 2.07s5.99 3.26 8.38 5.65 4.27 5.18 5.65 8.38" class="st1"/><path d="M273.43 66.01h11.67l-16.94-32.94h-33.32c-6.65-2.13-13.37-3.2-20.14-3.2-9.04 0-17.57 1.73-25.6 5.18s-15.03 8.16-20.99 14.12c-4.43 4.43-8.16 9.43-11.2 15-3.04-5.57-6.77-10.57-11.2-15-5.96-5.96-12.96-10.67-20.99-14.12s-16.57-5.18-25.6-5.18c-6.78 0-13.49 1.07-20.14 3.2H45.66L28.72 66.01h11.67c-2.26 4.39-4.02 9.1-5.27 14.12s-1.88 10.23-1.88 15.62c0 9.04 1.73 17.57 5.18 25.6s8.16 15.03 14.12 20.99 12.96 10.67 20.99 14.12 16.57 5.18 25.6 5.18 17.57-1.73 25.6-5.18 15.03-8.16 20.99-14.12c4.43-4.43 8.16-9.43 11.2-15 3.04 5.57 6.77 10.57 11.2 15 5.96 5.96 12.96 10.67 20.99 14.12s16.57 5.18 25.6 5.18 17.57-1.73 25.6-5.18 15.03-8.16 20.99-14.12 10.67-12.96 14.12-20.99 5.18-16.57 5.18-25.6c0-5.4-.63-10.61-1.88-15.62-1.26-5.02-3.01-9.73-5.27-14.12Zm-129.9 48.48c-2.51 5.84-5.96 10.95-10.35 15.34s-9.51 7.84-15.34 10.35c-5.84 2.51-12.08 3.76-18.73 3.76s-12.9-1.26-18.73-3.76c-5.84-2.51-10.95-5.96-15.34-10.35s-7.84-9.51-10.35-15.34c-2.51-5.84-3.77-12.08-3.77-18.73 0-4.77.69-9.38 2.07-13.84s3.29-8.56 5.74-12.33 5.36-7.15 8.75-10.17 7.15-5.46 11.29-7.34H48.09l2.26-4.52h48c6.9 0 13.34 1.25 19.3 3.77 5.96 2.51 11.14 5.96 15.53 10.35s7.84 9.51 10.35 15.34c2.51 5.84 3.77 12.08 3.77 18.73s-1.25 12.9-3.77 18.73Zm102.79-55.07c3.39 3.01 6.31 6.4 8.75 10.17s4.36 7.87 5.74 12.33c1.38 4.45 2.07 9.07 2.07 13.84 0 6.65-1.26 12.9-3.77 18.73-2.51 5.84-5.96 10.95-10.35 15.34s-9.51 7.84-15.34 10.35c-5.84 2.51-12.08 3.76-18.73 3.76s-12.9-1.26-18.73-3.76c-5.84-2.51-10.95-5.96-15.34-10.35s-7.84-9.51-10.35-15.34c-2.51-5.84-3.77-12.08-3.77-18.73s1.25-12.9 3.77-18.73c2.51-5.84 5.96-10.95 10.35-15.34s9.57-7.84 15.53-10.35 12.39-3.77 19.3-3.77h48l2.26 4.52h-30.68c4.14 1.88 7.91 4.33 11.29 7.34Z" class="st1"/><path d="M157.22 135.27a70.5 70.5 0 0 1-21.99 20.44l21.76 16.87 22.02-17.05a70.1 70.1 0 0 1-21.79-20.26" class="st1"/><path d="M375.07 94.57c-2.01.17-2.68.17-3.85.17-6.28 0-11.89-1.84-14.65-4.86-5.69 3.43-11.05 4.86-17.41 4.86-17.41 0-32.73-14.15-32.73-31.22 0-18.33 14.06-33.15 32.56-33.15s33.07 14.98 33.07 31.73c0 7.12-1.51 12.72-5.11 17.83 1.59 1.42 4.02 2.18 6.45 2.18.42 0 1.09 0 1.67-.08v12.56Zm-52.73-34.65c3.01-1.26 5.52-2.09 8.79-2.09 8.04 0 16.24 4.77 23.02 13.06 1.59-2.76 2.09-5.86 2.09-9.12 0-9.71-7.03-17.5-17.24-17.5-8.46 0-14.73 5.86-16.66 15.57zm7.03 9.46c-1.92 0-3.43.33-5.44 1 2.93 6.45 8.96 10.46 15.07 10.46 2.43 0 5.02-.42 7.12-1.51-5.69-7.28-10.38-9.96-16.74-9.96ZM406.72 93.49v-4.94h-.17c-2.01 4.27-5.69 6.45-11.97 6.45-9.79 0-17.91-5.86-17.91-19.09V47.03h13.9v26.03c0 6.11 2.18 8.96 7.45 8.96s7.95-3.52 7.95-9.21V47.03h13.9v46.46h-13.14ZM424.63 93.49V31.54h13.9v19.17c3.68-3.93 8.37-5.27 13.23-5.27 12.05 0 23.1 9.04 23.1 24.53 0 14.31-9.12 25.11-23.44 25.11-5.61 0-11.22-2.59-13.31-6.53h-.17v4.94zm36.33-23.28c0-6.19-4.77-11.8-11.47-11.8s-11.47 5.27-11.47 11.72c0 6.86 4.86 11.97 11.3 11.97s11.64-5.19 11.64-11.89M477.71 42.09V31.54h13.9v10.55zm0 51.4V47.03h13.9v46.46zM500.65 93.49V57.58h-6.86V47.03h6.86V31.54h13.9v15.49h6.7v10.55h-6.7v35.91zM306.43 131c0-19.17 13.81-33.57 32.65-33.57s32.73 13.98 32.73 31.73-14.23 32.56-31.98 32.56-33.4-12.39-33.4-30.72m49.56-1.34c0-9.71-6.95-18.33-16.91-18.33s-16.83 8.29-16.83 18.08 6.95 18.42 17.08 18.42 16.66-8.29 16.66-18.16ZM414 160.54l-7.79-30.05h-.17l-7.79 30.05h-12.89l-14.23-46.46h14.4l6.95 28.88h.17l7.62-28.88h11.72l7.7 28.88h.17l6.95-28.88h14.31l-14.31 46.46zM443.8 160.54V98.59h13.9v61.95z" class="st0"/></svg>

