<svg xmlns="http://www.w3.org/2000/svg" width="388" height="373" fill="none" viewBox="0 0 388 373"><path fill="#000" d="M384.62 150.748c-9.604-48.568-33.932-88.031-74.453-116.37C267.604 4.613 219.786-5.106 168.583 2.451c-33.125 4.886-61.625 20.078-87.062 41.375-1.443 1.209-31.1 29.98-30.365 33.073 32.453-39.588 78.485-62.052 88.375-61.833-6.203 7.713-10.833 16.047-14.442 25.005-8.787 21.828-12.417 44.615-13.032 67.99l-.245 7.755c-4.661.786-8.218 4.833-8.218 9.719 0 4.593 3.14 8.437 7.385 9.541l-.193 3.526c.323 11.729.782 23.459 1.157 35.188.078 2.593.01 5.187.01 8-9.75-2.922-17.198-7.38-22.52-12.386l-2.126-2.015v-.677h16.287v-5.813H80.469l-2.531-2.401c-12.683-12.896-23.443-27.068-29.329-44.391-1.432-4.229-2.093-8.796-2.573-13.26-.859-8.047 3.573-13.073 10.37-16.349 1.901-.911 4.026-1.38 6.073-1.969 7.573-2.172 15.35-1.614 23.078-1.63 3.693-.005 13.823 1.901 17.495 1.073-6.589-1.469-19.573-4.401-26.187-4.708-7.985-.37-15.948.422-23.526 3.495-8.38 3.4-12.38 9.838-12.87 18.562-.177 3.151.203 6.391.781 9.51 1.813 9.823 5.365 19.068 11.047 27.266 5.15 7.443 10.953 14.432 16.417 21.656 0 0 .765 1.052 2.682 3.146h-7.401v5.813H77.15c.943.895 1.99 1.869 3.13 2.906v39.416h7.026v-33.265c.292.239.558.474.855.724l24.369 13.536 3.677 25.464c.131.901.198 1.693.427 2.953l1.516 10.495s.052.359.156 1.005c-2.666 1.734-4.75 4.172-6.239 7.312-1.5 3.157-2.245 6.782-2.245 10.886 0 4.099.734 7.693 2.208 10.765 1.469 3.079 3.531 5.454 6.188 7.136 2.651 1.687 5.739 2.526 9.26 2.526.224 0 .427-.026.646-.031l.25.713c4.729 11.969 9.318 23.584 14.094 35.667-12.683 7.542-25.328 14.88-39.688 18.646-2.297.604-4.719 1.015-7.078.984-8.724-.099-14.213-4.354-15.656-12.953-.865-5.172-.959-10.615-.464-15.844.573-6.015 2.183-11.932 3.344-17.896-2.807 4.849-5.125 9.86-6.77 15.084-1.714 5.463-2.782 11.13-4.23 17.114-19.5-20.021-30.177-35.036-32.812-44.416 3.755-1.995 6.765-4.912 9.02-8.782q4.057-6.978 4.058-16.994-.001-8.757-3.151-15.224c-2.105-4.308-5.115-7.625-9.032-9.938q-5.873-3.469-13.911-3.469-7.968 0-13.875 3.469c-3.943 2.313-6.964 5.63-9.068 9.938Q0 231.106 0 239.941c0 5.838 1.068 10.911 3.193 15.224q3.193 6.467 9.067 9.974c3.917 2.343 8.527 3.51 13.839 3.51q1.249-.002 2.052-.042c15.37 21.276 32.23 41.292 51.77 58.068 14.615 12.552 29.918 24.12 47.813 31.823 27.537 11.849 56.391 15.698 86.084 14.177 23.432-1.198 45.948-6.5 66.979-17.062 46.01-23.094 77.656-59.172 95.776-107.23 5.958-15.802 9.651-32.203 10.906-49.031 1.219-16.281.328-32.505-2.859-48.604M13.047 256.269q-4.688-5.758-4.688-16.406c0-7.047 1.547-12.474 4.651-16.287q4.65-5.719 13.089-5.719 8.43 0 13.125 5.719c3.125 3.813 4.693 9.24 4.693 16.287 0 7.099-1.568 12.567-4.693 16.406q-4.695 5.756-13.125 5.755-8.358.001-13.052-5.755m112.875-22.104a12.2 12.2 0 0 1 3.37-.459c3.63 0 6.427 1.24 8.396 3.709 1.973 2.474 2.958 5.994 2.958 10.573q0 6.782-2.958 10.526c-1.318 1.677-3.011 2.776-5.058 3.328zm-5.026 24.39q-3.031-3.71-3.031-10.411c0-3.761.708-6.833 2.109-9.229a244 244 0 0 0 5.927 22.89c-2.01-.557-3.682-1.635-5.005-3.25m-24.11 73.177c8.339-2.505 16.902-4.442 24.943-7.687 8.084-3.26 15.646-7.818 24.146-12.167 1.75 3.162 3.406 6.443 5.328 9.558 5.74 9.286 11.12 18.849 17.547 27.645 4.505 6.167 10.495 11.256 16.042 17.052-22.297 2.188-69.037-16.625-88.005-34.401m276.469-84.567c-6.797-18.032-17.765-30.844-30.838-41.979-12.604-10.74-31.99-22.063-47.662-27.87 6.453 4.484 18.391 11.614 24.781 16.187 11.99 8.568 23.105 18.146 32.808 29.271 5.833 6.688 10.63 14.005 13.255 22.63 2.917 9.594.62 17.959-5.927 25.198-8.568 9.479-19.875 13.271-32.167 14.073-25.401 1.651-50-2-73.479-12.198-.422-.182-8.177-2.963-10.344-2.963 11.448 6.713 29.339 13.531 40.693 15.708 16.557 3.167 33.156 5.094 50.057 2.885 7.854-1.031 14.797-4.171 21.709-7.968-2.756 11.729-28.375 39.536-46.474 52.479-26.578 19-56.073 30.25-89.907 34.219l3.438-5.214c6.901-10.474 10.099-22.286 12.292-34.427.119-.646.229-1.266.369-1.865 4.766-.692 8.433-4.791 8.433-9.755a9.86 9.86 0 0 0-6.896-9.406c-.026-.88-.136-1.609-.386-1.917v-18.057a63 63 0 0 0-.927-.083c-.875 5.953-1.744 11.906-2.698 18.39-.338.25-.125.714.204 1.25a9.857 9.857 0 0 0-9.016 9.823 9.85 9.85 0 0 0 6.583 9.297 4.9 4.9 0 0 0-.468 1.073c-3.027 10.786-5.933 21.609-11.714 31.385-5.104 8.62-11.063 12.032-23.12 7.625-8.213-3-14.776-8.484-20.604-14.854-10.917-11.927-19.37-25.442-25.76-40.495 20.255-14.942 44.567-33.078 65.614-48.619.563 1.614 1.391 2.989 2.485 4.114q3.391 3.47 9.541 3.469c2.209 0 4.177-.287 5.912-.865v-6.468c-1.417.421-2.813.63-4.177.63q-3.156-.001-4.927-1.698c-1.126-1.073-1.698-2.896-1.756-5.422 19.953-20.25 26.776-34.13 26.776-34.13l-26.797 27.177V234.42h10.959v-6.156h-10.959v-12.698l-7.963 2.76v9.938h-7.724v6.156h7.724v20.099l-16.948 12.646v-23.912q0-15.931-14.266-15.932c-3.052 0-5.77.667-8.161 2.01-2.391 1.339-4.219 3.276-5.479 5.797l-.709-6.864h-7.411c.417 3.312.63 7.052.63 11.203v28.552h7.886v-22.636c0-3.52 1.01-6.338 3.031-8.442 2.026-2.099 4.719-3.157 8.083-3.157q4.413.001 6.427 2.37c1.339 1.578 2.005 4.099 2.005 7.573v24.292h6.818l-2.219 1.656c-15.849 11.182-31.083 21.927-46.869 33.063-1.355-2.558-2.5-4.256-3.193-6.115-2.896-7.766-5.76-15.536-8.427-23.38l-1.422-5.865a14 14 0 0 0 1.51-.698q3.43-1.897 5.162-5.442v6.781h7.885v-39.755h-7.885v6.468q-1.812-3.547-5.203-5.479c-2.261-1.291-4.917-1.932-7.964-1.932-1.088 0-2.13.12-3.146.297l-.479-1.979c-1.693-10.36-4.349-22.287-3.755-33.813l.922-.021c0 .042.005.084.005.125 0 5.453 1.557 9.745 4.662 12.881q4.665 4.696 12.838 4.697 3.585 0 7.13-1.182c2.365-.792 4.313-1.859 5.844-3.213l-2.094-4.87c-3.245 2.573-6.823 3.854-10.745 3.854q-10.538-.001-10.88-11.964h24.328v-1.151c0-5.276-1.317-9.395-3.953-12.369-2.635-2.98-6.25-4.464-10.844-4.464-3.156 0-5.968.745-8.447 2.229a14.8 14.8 0 0 0-4.594 4.313c1.719.635 3.693 1.182 5.844 2.031a8.5 8.5 0 0 1 1.046-1.203c1.625-1.531 3.719-2.302 6.287-2.302q3.781 0 6.016 2.265c1.484 1.511 2.364 3.709 2.63 6.594h-13.485c-4.645-.802-9.255-2.062-13.671-3.26-.573-8.042-1.318-15.703-1.605-23.386-.291-7.739-.099-15.494-.182-23.239-.01-1.308.083-2.516.354-3.667 3.427-1.547 5.813-4.984 5.813-8.989 0-3.662-2-6.849-4.964-8.553a61 61 0 0 1 .057-5.286c1.417-25.182 4.297-49.964 14.605-73.312 3.687-8.35 8.062-16.282 14.526-22.86 6.651-6.77 12.515-7.745 20.916-3.427 6.818 3.5 12.151 8.802 16.261 15.115 4.364 6.692 8.125 13.776 12.114 20.713 1.381 2.401 6.355 13.485 8.506 17.469-.87-16.026-16.266-43.828-33.271-58.953 35.567-9.568 103.281 5.75 137.38 32.682-1.766.557-3.208 1.266-4.714 1.448-14.375 1.698-27.01 7.974-39.38 14.922-14.276 8.015-27.234 17.943-39.359 28.807-13.906 12.464-27.115 25.708-40.61 38.641-.937.901-6.427 7.916-6.609 9.854 1.484-1.12 7.729-8.141 9.193-9.287a266 266 0 0 0 4.995-4.01c15.656-12.901 31.083-26.094 47.026-38.625 12.807-10.068 26.406-19.083 41.072-26.302 8.662-4.266 17.719-7.292 27.506-7.88 9.26-.558 14.495 3.088 17.172 11.984 2.099 6.98.724 13.854-.532 20.62-1.255 6.76-3.51 13.338-5.198 19.531a25 25 0 0 0-.421 1.886 11 11 0 0 0-.938-.047c-5.448 0-9.865 4.416-9.865 9.87a9.82 9.82 0 0 0 2.73 6.796c-6.693 15.25-20.12 37.219-27.578 51.631 9.078-9.698 21.036-29.641 27.437-41.146 1.427-2.568 2.635-5.266 4.187-7.75.032-.042.053-.094.084-.136a9.9 9.9 0 0 0 3.005.469c5.443 0 9.859-4.417 9.859-9.864a9.84 9.84 0 0 0-4.229-8.094c2.162-6.922 4.651-13.63 6.281-20.542 1.636-6.943 2.396-14.094 3.527-21.068 17.27 12.375 39.864 54.579 46.781 88.87 6.562 32.537 3.927 64.479-7.615 97.464"/><path fill="#000" d="M64.094 252.639c0 10.625 4.786 15.932 14.349 15.932q4.178-.002 7.49-1.854 3.312-1.854 5.202-5.323v6.625h7.73v-39.755H90.9v22.323q.001 5.21-2.958 8.364-2.954 3.15-7.844 3.151-4.095 0-6.11-2.328-2.008-2.322-2.01-7.213v-24.297h-7.885zM273.406 250.587c0 3.474-.989 6.26-2.958 8.364-1.969 2.099-4.583 3.156-7.844 3.156-2.734 0-4.771-.781-6.109-2.333q-2.01-2.322-2.011-7.213v-24.292h-7.885v24.37c0 10.625 4.781 15.932 14.349 15.932q4.178-.002 7.49-1.854 3.312-1.854 5.203-5.323v6.625h7.724v-39.755h-7.959zM294.693 239.467v28.552h7.885V245.54q-.001-5.445 2.677-8.599c1.787-2.099 4.203-3.156 7.255-3.156q3.94.001 5.714 2.369 1.775 2.366 1.776 7.49v24.375h7.958V245.54q0-5.445 2.641-8.599c1.766-2.099 4.167-3.156 7.213-3.156q3.946.001 5.719 2.369 1.773 2.366 1.771 7.49v24.375h7.964v-24.766c0-10.62-4.412-15.932-13.245-15.932q-4.414-.001-7.922 2.052c-2.339 1.365-4.115 3.234-5.323 5.599q-2.836-7.65-12.062-7.651-4.335 0-7.568 1.969c-2.156 1.317-3.813 3.182-4.964 5.604l-.713-6.63h-7.407c.417 3.312.631 7.052.631 11.203M182.724 175.941c-1.891 1.192-3.292 2.916-4.193 5.172l-.609-6.151h-6.349q.54 4.256.542 9.599v24.474h6.755v-19q-.001-4.258 2.333-7.063c1.552-1.87 3.886-2.807 6.99-2.807 1.442 0 2.776.229 3.989.677l.136-6.219a12 12 0 0 0-3.245-.474q-3.514.001-6.349 1.792M220.292 175.941q-2.837 1.788-4.188 5.172l-.609-6.151h-6.354c.364 2.838.541 6.036.541 9.599v24.474h6.756v-19c0-2.839.781-5.193 2.333-7.063q2.329-2.806 6.995-2.807c1.442 0 2.77.229 3.984.677l.135-6.219a11.9 11.9 0 0 0-3.239-.474q-3.518.001-6.354 1.792M253.099 207.342q3.413 2.165 7.943 2.166 3.915 0 6.854-1.625c1.963-1.078 3.437-2.635 4.427-4.661v5.813h6.76v-34.073h-6.76v5.541q-1.554-3.04-4.458-4.698-2.908-1.656-6.823-1.656c-2.933 0-5.542.745-7.839 2.229q-3.445 2.234-5.375 6.287c-1.281 2.708-1.927 5.817-1.927 9.333q-.002 5.275 1.896 9.229c1.26 2.636 3.026 4.677 5.302 6.115m2.297-24.438c1.734-2.187 4.135-3.276 7.198-3.276 3.109 0 5.505 1.058 7.198 3.172q2.53 3.18 2.531 9.063 0 5.813-2.531 9.026-2.538 3.209-7.131 3.208-4.664.002-7.265-3.177-2.6-3.172-2.599-8.922-.002-5.812 2.599-9.094"/></svg>