<svg xmlns="http://www.w3.org/2000/svg" viewBox="0 0 2016 569"><title>PQSecure</title><style>.s0{fill:#2027d3}.s1{fill:#8fa0a9}</style><path id="PQ" fill-rule="evenodd" d="M324 279h42l25 3 14 3 16 6 9 6 8 8 7 14 5 19 3 21 1 13v83l-2 24-5 21 2 4 34 34-1 4-27 27-5-1-96-96 6-7 24-24 4 2 17 17 2-13v-51l-1-7-2-38-3-17-4-4-16-4-20-2h-37l-25 3-10 3-3 1-4 17-2 20v84l3 26 3 11 2 2 10 3 27 3h13l9 1 1 3 4 2 18 18 7 8 8 9-3 2-15 2-17 1h-15l-25-1-2-1-22-3-17-5-13-7-9-9-7-16-4-16-2-15-2-28v-73l3-27 5-20 5-12 7-9 9-8 11-5 12-4 25-4zM0 282h138l16 3 11 4 11 6 8 8 7 12 4 13 2 10 1 10v33l-2 16-5 16-7 12-7 7-12 7-16 5-15 2H72v-43l2-1 45-1 17-2 9-4 4-11 1-9v-27l-4-16-5-3-11-2-83-1v214H0z" class="s0"/><path id="SECURE" fill-rule="evenodd" d="M611 279h16l27 1 24 4 12 5 8 6 6 9 5 12 3 19v17h-29l-3-24-4-11-7-6-14-4-8-1h-49l-20 3-11 4-6 7-3 8-2 8v24l4 16 2 5 10 5 24 4 22 2 35 2 24 4 17 5 6 4 7 7 5 10 4 16 1 12v26l-3 20-4 12-6 10-7 6-8 4-17 5-37 4h-30l-24-2-21-4-12-5-7-4-8-11-5-13-2-10-1-10v-23h29l2 25 3 14 2 6h2l4 4 12 4 20 2h38l18-1 16-4 8-4 5-10 3-14v-31l-3-12-5-6-9-4-15-3-24-1-9-1-38-2-15-3-16-7-10-8-8-10-5-11-3-14-1-8v-14l3-21 4-13 7-12 8-7 14-6 21-4 8-1zm201 77h21l14 1 19 4 10 4 10 9 5 8 4 11 3 15 1 10v34l-1 1H772l2 28 4 19 6 8 10 5 17 3h28l14-2 11-4 4-5 2-7 1-15 1-1h27v20l-3 11-6 9-8 7-13 6-16 3-26 2h-14l-23-3-15-4-11-6-5-5-6-9-4-10-3-14-2-12-1-17v-28l2-21 4-18 5-13 9-11 12-7 20-5zm-20 30-8 4-5 6-4 10-3 19v10h99v-22l-2-11-3-6-4-5-8-5-15-3h-34zm700-26h33l23 4 11 4 10 7 7 10 5 15 3 22v35h-127l2 27 3 16 5 10 7 5 14 4 8 1h26l21-3 8-5 4-9 2-17h27v19l-3 12-5 8-4 5-10 6-12 4-20 3-14 1-28-1-18-3-14-5-9-6-8-9-5-13-3-13-2-16v-53l4-25 5-13 5-8 8-8 13-6 16-4zm-11 25-9 3-7 6-4 9-3 14v18h99v-16l-1-6-3-13-4-8-8-5-15-4h-35zm-374-22h26l1 119 2 19 4 9 5 5 13 4 6 1h17l20-4 8-4 6-5 5-11 3-12 1-8 1-113h27l1 1v177h-28v-19l-7 8-13 8-14 4-14 2h-14l-18-3-10-4-10-6-5-4-7-11-5-14-1-7zm-121-3h36l18 2 15 5 10 6 7 9 4 9 3 15v16h-26l-1-1-1-15-3-9-6-7-10-4-9-2h-33l-13 3-8 5-4 5-4 11-3 22v43l2 17 3 12 3 6v2l4 2 11 5 18 3h24l16-3 8-4 4-7 2-5 2-24 1-1h25l1 1v21l-3 12-3 6-6 8-9 8-13 6-16 4-17 2-26-1-20-3-13-5-9-6-1-3-4-2-6-12-4-13-2-15-1-3-1-21v-16l1-19 4-24 6-15 4-7h2l2-4 8-6 12-5zm375-2h9l20 4 10 6 7 7 5 10 4 20v15l-1 2h-26l-1-24-4-8-5-4-7-3-5-1h-13l-12 3-8 5-8 9-5 12-2 12-1 118h-26l-1-1V366l1-3h25l1 5v10l6-7 10-7 18-5z" class="s1"/><path id="TM" fill-rule="evenodd" d="M1972 119h6l4 8 11 27 6-13 8-20 3-2h6v42h-4v-36h-2l-3 10-11 26-4 1-3-4-13-32v-3h-2v38l-4 1v-42zm-40 1h33l-1 3h-13v38h-4v-38h-15z" class="s1"/><path id="Element outer" d="M1636 0h160l110 110v157l-47 47-1 2 48-1 1 1v58h-236l-1-1v-62l77-1 21-2 7-8 14-15 7-8 12-14 7-7 7-8 11-12 3-6v-97l-69-69h-99l-69 69-1 114-2 1-63-1-1-142 7-8z" class="s0"/><path id="Element inner" fill-rule="evenodd" d="M1669 88h12l12 5 14 9 9 8 5-2 11-9 12-7 9-3h13l8 4 4 5 4 10v30l-1 12 16 6 13 7 10 9 5 8 1 2v9l-5 10-7 7-13 8-15 6-6 2 2 21v11l-2 13-5 9-8 6-13 1-12-4-11-7-11-9-2-2-4 1-13 10-14 8-11 3-8-1-8-4-6-8-3-10v-24l2-15-16-6-15-8-9-8-5-9v-13l6-9 8-7 10-6 14-6 7-2 1-2-2-10v-25l4-13 5-7zm104 81-5 13-1 7 2 5 6 18 3 3 15-5 12-6 8-7 4-6 1-6-6-10-11-8-14-6-10-2zm-126-9-14 6-10 7-6 8v9l1 3 6 7 12 7 12 5 9 2 7-20 3-9-4-10-6-17h-3zm95 70-9 12-8 9-2 5 6 5 7 7 16 8h9l5-2 5-6 3-10v-15l-3-16-3-1zm7-131-13 8-10 8-2 4 4 5 8 11 7 8 21 4h7l1-1 3-18v-12l-1-7-3-6-6-5-9-1zm-87 127-3 14v19l3 10 7 6h13l10-5 12-9 6-7-5-6-9-12-6-7-10-1-17-3zm7-128-5 5-4 10v20l2 13 5 1 24-4 8-10 11-13-1-4-12-11-16-8-7-1zm32 53-5 2-7 10-11 20-1 5 10 18 8 13 5 3h37l8-13 10-18 1-6-9-18-9-15-16-2h-16zm28 7 16 16v25l-12 12-6 4h-21l-6-4-5-6-7-8v-15l1-9 8-8 8-7zm-21-23-4 7h26v-2l-8-10-5-5zm-4 98 8 11 5 4 10-12 2-5h-25zm56-59 2 1 6-16-1-4-7-1h-10zm-94-19v4l5 14 3-1 8-14 1-5h-5zm-1 60 1 2 11 2h7l-1-3-5-8-5-9h-2zm85 4h9l8-2v-4l-5-14h-2z" class="s1"/></svg>