<svg xmlns="http://www.w3.org/2000/svg" width="3220" height="732"><path fill="#0a8b6f" d="M71 0h43v2l2.938.25c3.89.55 7.123 1.943 10.656 3.617a113 113 0 0 0 5.64 2.446c4.405 1.874 8.428 4.336 12.516 6.812q2.24 1.352 4.484 2.695l1.976 1.196c1.929 1.13 1.929 1.13 4.79 1.984v2l1.656.316c2.879.84 5.231 2.154 7.844 3.622 3.139 1.754 6.268 3.484 9.5 5.062v2l1.656.316c2.879.84 5.231 2.154 7.844 3.621 3.139 1.755 6.268 3.485 9.5 5.063v2l1.656.316c2.879.84 5.231 2.154 7.844 3.621 3.139 1.755 6.268 3.485 9.5 5.063v2l1.656.316c2.879.84 5.231 2.154 7.844 3.621 3.139 1.755 6.268 3.485 9.5 5.063v2l1.715.352c13.557 3.847 27.368 14.552 39.285 21.96 5.556 3.454 11.227 6.616 17 9.688 7.142 3.801 14.063 7.846 20.934 12.121 3.249 1.991 6.547 3.848 9.894 5.668 2.41 1.343 4.756 2.771 7.11 4.211 4.883 2.96 9.918 5.526 15.062 8v2l1.68.332c9.219 2.654 17.916 9.366 26.062 14.344.89.54 1.78 1.08 2.695 1.637.804.49 1.607.982 2.434 1.488 2.202 1.329 2.202 1.329 5.129 2.199v2l1.656.316c2.879.84 5.231 2.154 7.844 3.621 3.139 1.755 6.268 3.485 9.5 5.063v2l1.652.316c2.894.843 5.278 2.156 7.91 3.621l2.88 1.59A100 100 0 0 1 419 173v2l1.773.816c9.733 5.174 18.668 15.89 24.227 25.184v3h2v4h2c1.498 3.371 2 5.204 2 9h2c6.315 23.744 7.764 47.811-2 71h-2v4h-2v4h-2v3h-2l-.719 2.633c-1.424 3.744-3.22 6.174-5.781 9.242l-2.406 2.93L432 316h-2v2c-1.898 1.727-1.898 1.727-4.375 3.625l-2.46 1.914C421 325 421 325 419 325v2a133 133 0 0 1-7.312 4.438l-2.294 1.323q-2.432 1.402-4.87 2.795a2103 2103 0 0 0-10.01 5.774q-2.445 1.416-4.894 2.83a823 823 0 0 0-14.503 8.582c-2.905 1.726-5.866 3.345-8.828 4.973-2.5 1.404-4.958 2.867-7.414 4.348l-2.512 1.511a1102 1102 0 0 0-4.445 2.696C347.335 369 347.335 369 344 369v2l-2.379 1.137c-6.819 3.246-6.819 3.246-13.121 7.363-3.91 2.993-8.298 4.965-12.73 7.07-2.766 1.323-2.766 1.323-4.946 3.11C309 391 309 391 306 391v2l-2.484 1.207-3.266 1.606-3.234 1.582c-2.974 1.475-2.974 1.475-5.22 3.304C290 402 290 402 287 402v2l-3.5 1.688c-3.768 1.867-7.252 4.011-10.738 6.359C271 413 271 413 268 413v2l-3.45 1.672c-5.39 2.693-10.498 5.824-15.634 8.969l-2.186 1.312-1.956 1.193C243 429 243 429 240 429v2l-1.914 1.031c-10.402 5.636-20.671 11.48-30.793 17.606-2.967 1.764-5.987 3.42-9.012 5.082-2.457 1.38-4.87 2.822-7.281 4.281-3.859 2.334-7.766 4.548-11.719 6.719-2.457 1.38-4.87 2.822-7.281 4.281-3.861 2.336-7.771 4.55-11.727 6.723-2.414 1.356-4.78 2.777-7.148 4.214-19.078 11.518-37.382 20.486-60.062 20.313l-3.053.023c-9.866-.025-18.906-1.466-28.01-5.273l-2.434-.941C51.432 491.9 44.212 488.28 37 483.375l-1.784-1.202C33.772 481.17 32.38 480.09 31 479v-2l-1.75-.75c-2.58-1.433-4.311-3.034-6.25-5.25v-2h-2c-2.097-2.254-3.822-4.82-5.625-7.312l-1.562-2.092-1.477-2.022-1.358-1.856C10 454 10 454 10 451H8l-1.312-3.562a197 197 0 0 0-5.762-13.754c-1.079-3.127-1.178-5.627-1.18-8.933l-.018-3.838.011-4.21-.011-4.478c-.01-4.102-.008-8.205-.004-12.307.002-4.424-.007-8.848-.014-13.273q-.018-13-.012-26.003.002-10.568-.005-21.134l-.001-3.036-.004-6.106q-.014-28.644-.003-57.288c.006-17.474-.006-34.948-.025-52.422q-.03-26.906-.024-53.81c.002-10.073 0-20.145-.014-30.218a9182 9182 0 0 1-.002-25.725q.011-6.562-.005-13.126-.014-6.008.007-12.017.004-2.173-.008-4.347C-.454 68.18-.454 68.18 3 62q.85-2.31 1.688-4.625C9.886 44.399 18.786 32.485 29 23h2v-2a85 85 0 0 1 5.75-4.25l1.785-1.216C47.618 9.47 59.75 2 71 2z"/><path d="m2501.706 183.564 2.983-.03c3.256-.029 6.512-.035 9.768-.038l6.793-.03q7.124-.026 14.246-.022c6.08 0 12.16-.04 18.239-.092 4.678-.034 9.356-.04 14.034-.038a766 766 0 0 0 6.723-.04c3.139-.03 6.275-.02 9.414-.003l2.794-.05c5.725.083 8.764 1.19 12.907 5.185 2.136 2.445 3.76 5.009 5.33 7.844l1.778 3.14C2608 202 2608 202 2608 204h2l2.25 4.063 1.371 2.476a347 347 0 0 0 3.691 6.399C2619 220 2619 220 2619 222h2l.777 1.441c5.495 10.046 11.34 19.915 17.797 29.373 1.36 2.086 2.572 4.196 3.758 6.385 2.568 4.666 5.309 9.207 8.105 13.739l2.891 4.714q2.355 3.835 4.719 7.664l1.64 2.684 1.387 2.25C2663 292 2663 292 2663 294h2c.315.58.63 1.16.953 1.758 1.995 3.64 3.967 7.22 6.36 10.617C2674 309 2674 309 2674 312h2c.315.58.63 1.16.953 1.758 1.995 3.64 3.967 7.22 6.36 10.617C2685 327 2685 327 2685 330h2l.96 1.844c3.133 5.884 6.49 11.58 10.04 17.219l1.304 2.07 2.527 4.01a682 682 0 0 1 4.794 7.732l1.414 2.305C2709 367 2709 367 2709 369h2l1.102 2.055c4.848 8.976 9.899 17.703 15.796 26.035C2729 399 2729 399 2729 402h2l1.207 2.266 1.605 2.984 1.583 2.953c1.503 2.772 1.503 2.772 3.304 4.969C2740 417 2740 417 2740 420h2l1.242 2.3 1.633 3.013 1.617 2.988c1.515 2.795 1.515 2.795 3.508 5.699l-.006-3.716a110200 110200 0 0 1-.104-98.066l-.001-2.161q-.015-17.323-.043-34.646-.028-17.773-.034-35.548-.003-9.983-.023-19.967-.02-9.394-.015-18.787 0-3.45-.012-6.901c-.01-3.138-.008-6.275-.003-9.413l-.017-2.765c.029-6.143.576-10.84 4.432-15.861 5.27-3.96 12.748-2.905 19.04-2.868q2.25-.009 4.499-.022 4.704-.016 9.408.014c4.006.023 8.01-.004 12.017-.045 3.094-.026 6.188-.023 9.283-.012a352 352 0 0 0 4.429-.023c2.07-.02 4.138-.002 6.208.027l3.56.005c4.721 1.054 7.608 2.72 10.382 6.755 1.055 4.708.937 9.403.875 14.203q.01 2.205.03 4.41a961 961 0 0 1-.02 12.107c-.02 4.354.001 8.708.016 13.062.024 8.527.01 17.054-.017 25.582-.03 9.927-.026 19.855-.02 29.782.009 17.71-.017 35.421-.061 53.132q-.065 25.787-.041 51.575a24281 24281 0 0 1-.015 62.13l-.004 2.974q-.012 10.384 0 20.768a5151 5151 0 0 1-.039 25.301c-.017 4.304-.026 8.609-.014 12.913q.016 5.908-.031 11.815-.011 2.14.005 4.28c.082 12.007.082 12.007-3.142 15.283L2828 551l-1 1c-3.042.122-6.063.179-9.106.193l-2.898.025q-4.77.036-9.539.055l-3.284.017q-8.609.039-17.216.06c-5.931.017-11.861.061-17.792.112-4.556.034-9.112.046-13.669.051q-3.279.01-6.558.046c-3.062.032-6.123.032-9.185.024l-2.735.05c-4.26-.042-7.115-.259-10.503-2.982C2720 544.892 2720 544.892 2720 541h-2l-1.574-2.816c-4.737-8.436-4.737-8.436-10.207-16.403-2.218-3.242-3.97-6.754-5.79-10.23-1.35-2.563-1.35-2.563-3.109-4.696C2696 505 2696 505 2696 502h-2l-1.066-2.02c-4.127-7.704-8.687-15.045-13.489-22.343l-1.383-2.137-1.214-1.844C2676 472 2676 472 2676 469h-2l-1.504-2.676c-3.853-6.817-7.8-13.5-12.148-20.02-1.26-2.152-1.904-3.867-2.348-6.304h-2c-.315-.58-.63-1.16-.953-1.758-1.995-3.64-3.967-7.22-6.36-10.617C2647 425 2647 425 2647 422h-2c-.315-.58-.63-1.16-.953-1.758-1.995-3.64-3.967-7.22-6.36-10.617C2636 407 2636 407 2636 404h-2l-1.137-2.125c-2.822-5.233-5.7-10.356-8.98-15.316C2623 385 2623 385 2623 383h-2l-1.207-2.266-1.606-2.984-1.582-2.953c-1.503-2.772-1.503-2.772-3.304-4.969C2612 368 2612 368 2612 365h-2l-1.207-2.266-1.606-2.984-1.582-2.953c-1.503-2.772-1.503-2.772-3.304-4.969C2601 350 2601 350 2601 347h-2q-1.477-2.621-2.938-5.25l-1.652-2.953c-1.176-2.333-1.931-4.25-2.41-6.797h-2c-1.072-1.622-2.053-3.303-3-5a617 617 0 0 0-2.121-3.523l-3.475-5.774q-1.71-2.848-3.404-5.703l-1.176-1.966C2574 305.232 2574 305.232 2574 303h-2c-1.46-2.647-2-3.894-2-7h-2l.011 3.856a59349 59349 0 0 1 .212 104.014c.017 11.985.049 23.97.086 35.955q.056 18.445.067 36.89.008 11.383.056 22.765c.023 5.818.026 11.636.02 17.454q.003 3.58.025 7.162c.02 3.256.015 6.511.004 9.767l.035 2.872c-.05 5.58-.718 8.88-4.516 13.265-3.646 2.431-5.375 2.253-9.719 2.259l-2.055.01c-2.242.01-4.484.003-6.726-.003l-4.674.005q-4.898.005-9.795-.01c-4.186-.012-8.373-.005-12.56.007q-4.824.009-9.65 0-2.316-.003-4.632.005c-2.157.005-4.313-.003-6.47-.014l-3.721-.005C2491 552 2491 552 2488 550v-2h-2v-4h-2a121176 121176 0 0 1-.22-149.634l-.003-3.176c-.017-16.98-.049-33.96-.086-50.94q-.056-26.128-.067-52.255-.008-16.127-.056-32.254a6190 6190 0 0 1-.022-22.106c.003-4.253-.001-8.507-.023-12.761q-.028-5.84-.007-11.68.003-2.115-.016-4.229c-.108-12.99-.108-12.99 4.5-17.965l1.643-1.848c3.876-1.895 7.808-1.594 12.063-1.588"/><path fill="#28b34b" d="m666 368 3.355.383c15.1 1.78 29.082 8.625 40.645 18.617v2h2v2l3 1a119 119 0 0 1 5.188 6.875l1.404 1.934C725 405.617 725 405.617 725 409h2c7.615 15.732 7.435 32.838 7.356 49.92q.001 3.382.007 6.766c.005 6.071-.009 12.142-.026 18.214-.015 6.366-.014 12.733-.015 19.099q-.006 16.006-.04 32.013-.036 16.465-.042 32.932v2.055l-.002 4.1v2.044l-.001 2.038c-.004 11.113-.017 22.227-.03 33.34l-.01 11.377q-.007 8.91-.029 17.82-.007 3.278-.008 6.553-.004 4.455-.02 8.91l.003 2.646c-.029 5.945-.029 5.945-1.143 8.173-.529 3.467-.962 6.942-1.402 10.422-.563 3.37-1.424 6.375-2.598 9.578h-2l-.312 1.563c-.93 3.297-2.302 6.303-3.688 9.437h-2l-.687 2.125c-1.651 3.616-3.604 5.963-6.313 8.875h-2v2h-2v2c-8.411 7.356-21.239 17-33 17v2h-37l-1-2c-2.108-.806-2.108-.806-4.625-1.437-4.322-1.218-8.294-2.7-12.375-4.563v-2l-1.621-.281c-3.137-.948-5.64-2.525-8.442-4.219-4.306-2.601-4.306-2.601-8.937-4.5v-2l-1.645-.297c-2.998-.895-5.361-2.34-8.043-3.953-3.62-2.155-7.24-4.29-10.937-6.312-4.033-2.22-7.968-4.587-11.906-6.97-2.301-1.368-4.623-2.68-6.969-3.968-4.076-2.24-8.052-4.624-12.031-7.031-2.301-1.37-4.623-2.68-6.969-3.969-4.076-2.24-8.052-4.624-12.031-7.031-3.028-1.802-6.108-3.496-9.196-5.192-2.414-1.356-4.78-2.777-7.148-4.215-7.841-4.736-15.902-9.028-24.125-13.062v-2l-1.621-.281c-3.137-.948-5.64-2.525-8.442-4.219-4.306-2.601-4.306-2.601-8.937-4.5v-2l-1.621-.281c-3.137-.948-5.64-2.525-8.442-4.219-4.306-2.601-4.306-2.601-8.937-4.5v-2l-1.621-.281c-3.137-.948-5.64-2.525-8.442-4.219-4.306-2.601-4.306-2.601-8.937-4.5v-2l-1.875-.437C431 613 431 613 429 612v-2l-2.195-.719c-8.33-3.805-15.436-13.397-19.805-21.281v-3h-2v-4h-2l-.621-2.152-.817-2.785-.808-2.778c-.544-2.225-.544-2.225-1.754-3.285-3.8-15.336-2.657-31.03 2-46h2l.36-2.195c1.665-7.291 5.996-14.032 10.64-19.805h2l.813-1.812c1.186-2.186 2.283-3.601 4.187-5.188h2v-2c5.784-4.85 12.52-8.571 19.05-12.309a390 390 0 0 0 8.137-4.816c3.798-2.29 7.646-4.46 11.532-6.594 2.457-1.38 4.87-2.822 7.281-4.281 3.859-2.334 7.766-4.548 11.719-6.719 2.457-1.38 4.87-2.822 7.281-4.281 3.859-2.334 7.766-4.548 11.719-6.719 2.457-1.38 4.87-2.822 7.281-4.281 3.861-2.336 7.771-4.55 11.727-6.723 2.414-1.356 4.78-2.777 7.148-4.214 4.317-2.61 8.712-5.038 13.148-7.438 8.016-4.376 15.909-8.93 23.664-13.75a255 255 0 0 1 14.875-8.55 86 86 0 0 0 5.063-2.993C585 398 585 398 588 398v-2l2.23-1.207 2.957-1.606 2.918-1.582a109 109 0 0 0 5.57-3.304C604 387 604 387 607 387v-2l2.344-1.137c7.054-3.453 7.054-3.453 13.781-7.488 12.238-7.745 28.604-10.97 42.875-8.375"/><path d="m956.773 183.417 3.68-.008c3.292 0 6.582.02 9.873.051 3.459.028 6.918.028 10.376.03q8.695.016 17.39.078c8.171.057 16.343.08 24.516.095a9846 9846 0 0 1 21.14.07q6.758.026 13.514.074l3.441.013 3.151.026 2.735.017c2.28.13 4.216.539 6.411 1.137 1.977.154 3.957.274 5.938.375 6.338.419 12.586 1.166 18.874 2.062l2.639.371c15.644 2.287 15.644 2.287 17.549 4.192l3 .375c3.656.48 6.903 1.528 10.371 2.754 3.054 1.012 6.142 1.804 9.254 2.621 7.283 2.056 13.858 5.015 20.608 8.374 1.657.821 3.325 1.62 4.994 2.415 16.869 8.151 34.001 19.66 46.773 33.461v2h2a107 107 0 0 1 4.625 5.375l2.477 3.023C1224 255 1224 255 1224 257h2l1.738 3.117c1.978 3.466 4.187 6.72 6.45 10.008 5.543 8.331 9.227 17.48 12.949 26.732a260 260 0 0 0 2.11 5.057c.992 2.748.888 5.19.753 8.086h2c3.235 16.4 3.235 16.4 3.79 24.18.116 1.917.116 1.917 1.21 3.82.245 2.569.429 5.112.563 7.687l.126 2.395c.488 10.304.484 20.606.311 30.918l-.038 2.455c-.253 12.173-2.277 23.688-4.962 35.545l-.754 3.543c-1.356 5.99-3.342 11.304-6.012 16.832-1.124 2.39-2.032 4.766-2.921 7.25-4.359 11.09-11.53 23.375-19.313 32.375h-2l-.687 2.125c-1.651 3.616-3.604 5.963-6.313 8.875h-2v2c-1.375 1.625-1.375 1.625-3 3h-2v2h-2v2h-2v2c-5.476 5-5.476 5-8 5v2l-5 2v2c-1.68 1.29-1.68 1.29-3.875 2.625l-2.18 1.352C1183 515 1183 515 1181 515v2h-3v2l-2.344 1.137c-6.855 3.329-6.855 3.329-13.343 7.3-5.959 3.873-12.804 6.19-19.383 8.79-1.54.617-3.066 1.27-4.586 1.933-12.644 5.498-26.552 8.091-40.098 10.262-3.121.398-3.121.398-5.246 1.578a144 144 0 0 1-5.437.5c-3.126.233-5.577.505-8.563 1.5-1.834.099-3.671.14-5.508.147l-3.47.022-3.812.008-4.011.02c-4.393.02-8.786.031-13.18.041l-4.541.013q-10.67.029-21.343.041-12.304.015-24.61.077-9.517.044-19.037.048c-3.787.002-7.575.011-11.362.036q-5.349.034-10.699.018c-1.924-.001-3.847.018-5.77.038-11.098-.067-17.296-3.506-25.384-11.072-6.396-6.857-8.395-13.747-8.402-23.023l-.01-3.313.005-3.607-.007-3.857q-.008-5.29-.004-10.579c0-3.806-.006-7.612-.01-11.417q-.012-11.181-.012-22.362 0-9.09-.006-18.179-.014-25.776-.012-51.552v-5.617q-.002-22.543-.023-45.085-.023-23.153-.02-46.305.001-12.996-.014-25.992a10270 10270 0 0 1-.005-22.13q.007-5.643-.005-11.286c-.01-4.082-.003-8.164.005-12.246l-.016-3.587c.07-16.563.07-16.563 5.7-23.175l1.81-2.18c3.287-3.647 3.287-3.647 4.753-4.945h2v-2c8.465-4.175 15.378-5.721 24.773-5.583M1001 261v214c40.373 4.318 40.373 4.318 78-3l3.563-.25c7.717-.785 15.074-3.42 22.437-5.75l2.98-.902c9.603-3.153 18.637-8.51 27.02-14.098v-2l1.7-.719c14.493-8.07 24.956-27.762 29.586-43.248 1.772-6.378 3.25-12.644 3.573-19.283C1170 384 1170 384 1171 382c.307-4.805.295-9.623.313-14.438l.008-2.125c.015-15.031-2.443-28.267-7.321-42.437h-2v-4h-2l-.371-1.734c-.657-2.366-1.566-4.338-2.691-6.516l-1.098-2.14-.84-1.61h-2l-.687-2.125c-1.651-3.616-3.604-5.963-6.313-8.875h-2v-2h-2v-2a106 106 0 0 0-6.437-5.063l-2.025-1.474C1123.27 278.168 1112.283 272.02 1100 269l-2.754-.969c-3.8-1.207-7.574-1.915-11.496-2.594-7.494-1.309-7.494-1.309-9.75-2.437a189 189 0 0 0-6.375-.5c-3.752-.237-6.963-.584-10.625-1.5zM1375.476 183.606l2.906-.019c3.215-.017 6.43-.012 9.647-.007q3.457-.01 6.914-.026c6.262-.022 12.524-.025 18.787-.023q7.839-.002 15.678-.017c13.035-.02 26.069-.021 39.103-.014 11.315.006 22.63-.015 33.944-.048q17.433-.051 34.867-.044c6.523.002 13.046-.004 19.57-.028 6.134-.023 12.269-.02 18.403 0a859 859 0 0 0 6.755-.016 735 735 0 0 1 9.22.015l2.7-.038c6.23.088 9.333 1.53 14.03 5.659 3.063 5.478 2.306 12.286 2.3 18.406l.014 3.63q.008 3.793.002 7.586c-.003 3.864.02 7.728.045 11.593q.004 3.69.002 7.379l.028 3.495c-.039 6.729-.502 11.444-4.953 16.786C1604 259 1604 259 1602 259v2l-160 1v63l13.583.028c14.796.034 29.592.09 44.388.156 8.972.04 17.944.072 26.917.087q11.73.019 23.462.084c4.14.022 8.28.038 12.421.037q5.85 0 11.697.05 2.143.012 4.288.004c12.141-.041 12.141-.041 16.141 2.463L1597 330v2h2c.973 3.262 1.127 6.21 1.13 9.607l.009 3.408-.006 3.669.003 3.78q0 3.959-.006 7.916-.006 5.06.004 10.121c.004 3.228.001 6.455-.001 9.683l.006 3.662-.01 3.417-.002 2.999c-.124 2.678-.528 5.129-1.127 7.738h-2v2h-2v2c-3.44 2.092-6.146 2.258-10.138 2.278l-3.815.034-4.179.007-4.405.03c-3.986.028-7.97.043-11.956.056-4.165.015-8.33.042-12.496.068-7.887.047-15.774.083-23.661.116-10.658.046-21.317.107-31.975.167-16.791.094-33.583.167-50.375.244v70l15.343-.048c16.703-.05 33.407-.083 50.111-.107q15.196-.022 30.391-.071 13.244-.046 26.487-.056c4.676-.004 9.35-.013 14.026-.035q6.6-.03 13.201-.022 2.422-.001 4.846-.019c2.205-.015 4.41-.011 6.616-.003l3.74-.008c3.524.401 5.45 1.204 8.239 3.369v2h2c1.984 3.32 2.257 5.842 2.275 9.683l.029 3.46-.003 3.724.013 3.841q.01 4.023.002 8.044c-.006 3.426.01 6.85.034 10.276.018 3.28.015 6.56.013 9.84l.028 3.712c-.039 7.186-.272 12.103-5.384 17.54-4.3 2.689-7.929 2.438-12.907 2.395l-3.044.02c-3.37.019-6.74.009-10.11-.002q-3.623.011-7.244.027c-5.88.02-11.76.021-17.64.013q-7.17-.008-14.34.001l-2.061.003-4.146.006c-12.96.016-25.92.007-38.881-.01-11.856-.014-23.71 0-35.566.03a11418 11418 0 0 1-40.657.027l-2.053-.001q-7.16-.002-14.318.022a2816 2816 0 0 1-19.278-.012q-3.54-.008-7.08.01a806 806 0 0 1-9.655-.02l-2.837.035c-4.233-.06-7.267-.256-10.692-2.89-3.95-4.386-4.747-7.98-4.755-13.805l-.02-3.69.01-4.045-.014-4.304c-.012-3.943-.012-7.886-.01-11.829 0-4.252-.01-8.504-.02-12.757q-.023-12.495-.023-24.992-.002-10.156-.012-20.313-.026-28.789-.025-57.578v-6.275c.001-16.795-.018-33.59-.046-50.385q-.043-25.86-.04-51.722c0-9.681-.006-19.362-.027-29.044a6411 6411 0 0 1-.009-24.725c.007-4.206.007-8.41-.01-12.616q-.024-5.775.004-11.551.005-2.089-.012-4.177c-.099-13.286-.099-13.286 4.511-18.966 4.32-3.83 8.99-3.427 14.476-3.394M2134.52 183.485l2.92-.02c3.233-.019 6.464-.009 9.696.002q3.475-.011 6.949-.027c6.293-.022 12.586-.02 18.88-.01 5.25.005 10.502-.002 15.753-.01 13.095-.018 26.19-.011 39.285.006 11.37.015 22.74 0 34.11-.028q17.518-.045 35.034-.031c6.555.005 13.11.003 19.665-.018a2653 2653 0 0 1 18.49.012q3.394.008 6.79-.01c3.087-.017 6.173-.002 9.26.02l2.72-.035c4.23.063 7.044.315 10.406 3.016 3.81 4.001 4.774 6.062 4.828 11.493l.049 3.641.016 3.94.027 4.047q.024 4.242.028 8.486c.005 3.615.043 7.229.088 10.843.03 2.788.037 5.575.038 8.362.006 1.978.036 3.955.066 5.933-.05 10.012-.05 10.012-2.965 13.642-4.344 3.703-6.437 4.51-12.088 4.502l-1.988.005c-2.202.003-4.403-.008-6.605-.019h-4.73c-4.285.002-8.57-.01-12.855-.024-4.476-.013-8.952-.014-13.429-.016-8.478-.006-16.957-.023-25.435-.043-9.652-.022-19.304-.033-28.955-.043-19.856-.021-39.712-.058-59.568-.101v64l13.583.028c14.796.034 29.592.09 44.388.156 8.972.04 17.944.072 26.917.087q11.73.019 23.462.084c4.14.022 8.28.038 12.421.037q5.85 0 11.697.05 2.143.012 4.288.004c13.36-.046 13.36-.046 18.244 4.554 5.316 5.525 4.58 11.84 4.531 19.063l.012 3.832a996 996 0 0 1-.022 8.008 746 746 0 0 0 .015 10.228c.018 3.27.005 6.538-.005 9.807l.025 3.693c-.118 10.63-.118 10.63-4.556 15.369-3.81 3.595-6.073 4.499-11.296 4.481l-3.845.017-4.196-.044q-2.218-.001-4.436.002c-4.008.001-8.015-.022-12.023-.05-4.191-.025-8.382-.028-12.572-.033-7.934-.012-15.866-.045-23.8-.085-10.721-.053-21.443-.075-32.165-.098-16.89-.038-33.778-.117-50.667-.19v71l15.418-.08c16.792-.082 33.584-.138 50.376-.18 10.183-.025 20.366-.06 30.549-.117q13.312-.076 26.626-.093c4.7-.007 9.399-.022 14.099-.059q6.635-.05 13.272-.037 2.433 0 4.868-.03c2.22-.025 4.436-.019 6.655-.005l3.76-.014c4.504.82 6.184 2.38 9.377 5.615v2h2q.07 12.023.104 24.044.014 5.582.047 11.165.032 5.388.039 10.776.005 2.055.021 4.11c.015 1.92.016 3.84.016 5.76l.014 3.31c-.239 2.809-.787 4.451-2.241 6.835h-2v2c-3.088 2.058-3.725 2.25-7.213 2.26l-2.616.021-2.875-.007-3.054.016c-3.392.015-6.785.016-10.177.016q-3.64.011-7.277.026c-6.602.022-13.203.03-19.804.035q-6.182.006-12.363.017c-11.408.02-22.815.036-34.223.04h-2.212l-6.667.002h-2.23c-11.924.004-23.848.03-35.772.068q-18.359.057-36.717.058c-6.874 0-13.747.009-20.62.038-6.463.027-12.925.028-19.388.012q-3.562-.003-7.125.02c-3.237.021-6.472.01-9.709-.007l-2.862.04c-4.459-.058-6.457-.168-10.093-2.943-3.259-4.413-4.253-7.124-4.257-12.656l-.018-3.71.011-4.08-.011-4.331c-.01-3.972-.008-7.944-.004-11.916.002-4.282-.007-8.563-.014-12.845q-.018-12.585-.012-25.17.002-10.226-.005-20.453l-.001-2.937-.004-5.908q-.014-27.714-.003-55.43c.006-16.913-.006-33.826-.025-50.739q-.03-26.034-.024-52.068.005-14.622-.014-29.244-.019-12.448-.002-24.895c.006-4.236.007-8.47-.005-12.706q-.015-5.813.007-11.627.004-2.105-.008-4.211c-.01-1.905 0-3.81.011-5.716v-3.21c.57-4.353 2.55-6.96 5.467-10.14 4.156-2.458 7.68-2.278 12.428-2.235M1900.686 174.684c2.98.003 5.958-.02 8.937-.045 9.523-.033 18.841.3 28.272 1.693l2.39.353c4.746.784 9.181 2.014 13.717 3.616 2.96 1.035 5.98 1.847 8.998 2.699 18.945 5.741 36.924 15.048 52 28v2l1.8.805c4.104 2.23 7.385 5.75 8.876 10.222.71 4.454.29 7.95-1.676 11.973-2.5 2.875-2.5 2.875-5 5h-2v2c-1.898 1.727-1.898 1.727-4.375 3.625l-2.46 1.914C2008 250 2008 250 2006 250v2a86 86 0 0 1-4.75 3.938l-2.672 2.09L1996 260l-2.203 1.754C1992 263 1992 263 1990 263v2c-1.898 1.727-1.898 1.727-4.375 3.625l-2.46 1.914C1981 272 1981 272 1979 272v2c-3.983 2.468-7.398 4.43-12.188 3.938-3.545-.872-5.946-1.699-8.812-3.938v-2h-2v-2l-2.25-.824c-2.59-1.107-4.498-2.322-6.75-3.988-7.405-5.065-16.302-8.132-25-10.188l-2.277-.559c-7.273-1.512-14.45-1.623-21.848-1.628l-3.129-.003c-5.037-.174-5.037-.174-9.746 1.19-1.476.156-2.956.275-4.438.375-11.381 1.107-20.559 5.354-30.562 10.625-5.748 3-5.748 3-8 3v2a96 96 0 0 1-4.75 3.313c-9.615 6.835-17.664 15.472-23.164 25.957L1813 301h-2l-.32 1.574c-.902 3.218-2.22 6.175-3.555 9.239l-1.555 3.582a987 987 0 0 1-3.168 7.195 61 61 0 0 0-2.965 9.16l-.69 2.797L1798 338l-.524 2.167c-1.829 8.447-1.814 16.846-1.792 25.447.003 2.551-.02 5.102-.045 7.654-.073 18.852 3.707 35.666 11.987 52.658 1.45 2.988 2.76 5.796 3.374 9.074h2l.777 1.582c3.425 6.585 8.401 16.007 15.223 19.418v2c.565.253 1.13.505 1.71.766 2.602 1.402 4.653 3.083 6.915 4.984 9.508 7.715 19.256 12.596 31.117 15.602C1871 480 1871 480 1872 481c7.888 2.316 15.848 2.302 24 2.25l3.656.023c9.952-.021 18.26-1.13 27.344-5.273q2.624-.88 5.25-1.75c12.29-4.455 21.623-12.9 30.562-22.187 2.567-2.58 4.52-4.33 8.188-5.063 7.004.26 11.303 3.202 17 7v2l2.187.754c3.082 1.365 5.236 3.021 7.813 5.184 2.552 2.133 4.93 4.022 7.812 5.69L2008 471v2l1.96.598c4.36 2.01 7.894 4.895 11.665 7.84l2.312 1.775c8.425 6.51 8.425 6.51 10.063 9.787.07 2.207.084 4.417.062 6.625l-.027 3.602L2034 506h-2l-.75 1.688c-1.48 2.736-3.185 4.989-5.25 7.312h-2v2h-2v2h-2v2a152 152 0 0 1-6.75 5.438l-1.922 1.486q-1.842 1.422-3.697 2.83a158 158 0 0 0-3.897 3.094C2002 535 2002 535 1999 535v2c-19.543 11-19.543 11-26 11v2l-1.977.586-2.648.789-2.602.773a213 213 0 0 0-5.664 1.829c-3.388 1.115-6.792 2.088-10.234 3.023l-3.633 1c-10.124 2.507-20.148 3.397-30.555 3.688l-3.954.118c-19.303.484-38.073-.136-56.815-5.087-2.9-.715-5.784-1.237-8.73-1.719-4.426-.765-8.086-2.135-12.188-4q-2.306-.68-4.625-1.312c-6.446-1.88-12.346-4.767-18.375-7.688l-3.309-1.523c-10.215-4.842-19.473-10.963-28.691-17.477l-2.317-1.636-2.222-1.61-2.014-1.455L1771 517v-2l-1.75-.812c-2.306-1.217-4.27-2.491-6.25-4.188v-2h-2v-2h-2c-1.691-1.645-1.691-1.645-3.563-3.812l-1.878-2.145C1752 498 1752 498 1751 495h-2c-9-10.103-9-10.103-9-15h-2q-2.951-5.146-5.887-10.3a517 517 0 0 0-3.758-6.493l-1.355-2.332-1.188-2.008C1725 457 1725 457 1725 453h-2c-.38-1.178-.38-1.178-.77-2.379-2.144-6.581-2.144-6.581-4.73-12.996-16.125-38.97-16.255-95.31-1.298-134.481 1.432-3.846 2.7-7.747 3.985-11.644l.827-2.492q.994-3.003 1.986-6.008h2v-4h2v-4h2l.309-2.137c.79-3.274 2.096-5.749 3.753-8.675l1.66-2.958L1736 259h2l.437-1.875C1739 255 1739 255 1740 253h2l.707-2.133c1.523-3.378 3.579-5.966 5.98-8.742l1.43-1.671c16.107-18.51 16.107-18.51 23.883-23.454h2v-2c2.423-2.108 5.156-3.825 7.812-5.625l2.237-1.562 2.158-1.477 1.984-1.358C1792 204 1792 204 1795 204v-2q4.226-2.115 8.457-4.219a425 425 0 0 0 6.93-3.562c11.382-5.919 22.89-9.768 35.418-12.64 2.155-.371 2.155-.371 3.195-1.579 2.54-.528 5.07-1 7.625-1.437l2.062-.37c2.434-.424 4.873-.81 7.313-1.193l3.135-.532c10.527-1.626 20.917-1.807 31.551-1.784M2940.676 183.737l2.929-.023 3.225.005 3.42-.018c3.803-.017 7.605-.02 11.407-.023q4.077-.014 8.155-.03c7.398-.028 14.797-.04 22.196-.048q6.93-.01 13.858-.023 19.184-.04 38.367-.052l2.48-.001 2.487-.002 4.989-.002 2.5-.002c13.364-.008 26.729-.043 40.093-.09q20.58-.07 41.16-.074c7.703-.002 15.407-.013 23.11-.05q9.84-.047 19.681-.024 5.02.014 10.04-.022c3.63-.025 7.259-.014 10.89.007l3.197-.049c6.073.082 9.488.95 13.921 5.2 1.981 2.574 2.101 4.678 2.109 7.877l.057 3.711-.052 3.969q.003 2.055.013 4.108.006 4.294-.05 8.586c-.046 3.662-.033 7.32-.003 10.982.018 2.825.007 5.65-.013 8.475-.01 2.003.004 4.007.017 6.01-.16 8.816-.16 8.816-2.145 11.796-5.064 4.402-10.353 4.21-16.683 4.184h-2.78c-3.036 0-6.071-.009-9.106-.016l-6.31-.005q-8.308-.006-16.616-.024-8.475-.014-16.951-.02-16.635-.016-33.268-.049l.005 1.82a79259 79259 0 0 1 .215 119.616l.003 2.578c.017 13.779.049 27.558.086 41.338q.056 21.204.067 42.41.008 13.086.056 26.173.03 8.97.022 17.942c-.003 3.452.001 6.904.023 10.356.02 3.742.015 7.483.004 11.226l.035 3.307c-.058 7.327-1.144 10.831-6.348 16.083-3.028 1.608-5.44 1.547-8.86 1.57-.665.01-1.329.018-2.013.027-2.19.023-4.379.024-6.568.023l-4.581.023q-4.8.019-9.598.009c-4.092-.006-8.182.025-12.273.065-3.154.026-6.307.029-9.46.025q-2.264.003-4.524.03c-13.257.139-13.257.139-17.137-2.908-3.15-3.967-4.405-6.57-4.4-11.656l-.012-3.033.017-3.325-.005-3.537q-.002-4.86.014-9.721c.008-3.494.006-6.988.004-10.483q-.001-9.081.017-18.162c.016-8.753.021-17.506.024-26.26q.007-21.3.036-42.603.028-20.694.041-41.388l.002-2.576.007-12.796q.033-53.086.101-106.173l-3.528.02q-16.465.091-32.93.135c-5.642.016-11.285.037-16.928.071-5.447.033-10.893.05-16.34.059q-3.115.008-6.231.032c-2.911.022-5.822.025-8.733.024l-2.598.032c-5.957-.03-10.336-.997-14.712-5.373v-3h-2a2699 2699 0 0 1-.26-22.376c-.025-3.464-.06-6.927-.117-10.391-.065-3.987-.09-7.973-.111-11.96l-.078-3.75c-.004-9.603-.004-9.603 2.909-13.228 3.62-3.127 5.59-4.544 10.333-4.558M1361.34 592.705q2.27-.017 4.537-.062c12.967-.253 25.067.684 35.318 9.584 5.502 5.406 7.48 11.14 7.805 18.773-.567 2.946-1.583 5.368-3 8l-1.562 3-1.438 2h-2v2a105 105 0 0 1-5 4l3 1v2l1.805.79c2.337 1.289 3.619 2.545 5.32 4.585l1.508 1.773c4.992 6.761 4.456 15.762 3.367 23.852-2.273 6.481-6.376 11.165-12 15h-2v2a788 788 0 0 1-4 1.375l-2.25.773c-7.285 2.256-13.513 3.142-21.121 3.082h-2.918q-3.03-.006-6.058-.024c-3.105-.019-6.21-.02-9.315-.02q-2.948-.007-5.897-.018l-2.824-.003-2.591-.02-2.29-.011C1336 696 1336 696 1335 695a263 263 0 0 1-.114-9.201v-2.927c0-3.209.009-6.417.016-9.626l.005-6.654q.006-8.776.024-17.553.014-8.949.02-17.896.016-17.572.049-35.143c8.483-3.56 17.281-3.248 26.34-3.295M1361 613a63 63 0 0 0-.098 4.254l.01 2.588.026 2.72.013 2.733q.018 3.352.049 6.705c9.5.643 9.5.643 18-3 2.532-2.185 2.532-2.185 4-5-.182-3.087-.622-5.244-2-8h-2v-2c-4.347-1.512-14.301-4.699-18-1m-1 38q-.042 6.468-.062 12.938l-.026 3.732-.01 3.545-.016 3.285c-.17 2.44-.17 2.44 1.114 3.5 7.187.834 13.584-.792 20-4v-2h2c2.353-3.677 2.437-6.705 2-11-1.102-3.6-2.569-6.144-5.848-8.105-4.491-1.737-8.674-2.017-13.464-1.961l-3.239.029zM1697.04 592.734l2.095-.005q2.16-.003 4.32.01c2.174.011 4.347 0 6.522-.012 9.306-.01 18.438.267 27.023 4.273v2h3v2h3v2h2l2 5h2c2.547 4.844 2.228 9.492 2.125 14.813l-.027 2.677c-.024 2.17-.06 4.34-.098 6.51h-2v4h-2l-2 5h-2v2c-3 2-3 2-6 2 1.13 2.67 2.263 4.27 4.313 6.375 6.996 8.19 8.894 21.466 11.687 31.625l1.113 3.66C1755 690 1755 690 1755 694h-26c-4.496-10.115-4.496-10.115-5.633-14.77l-.754-3.001-.738-3.042q-.747-3.042-1.508-6.082l-.653-2.682c-.705-2.392-1.327-4.347-2.714-6.423-4.93-1.404-4.93-1.404-14-1v37h-26v-99c13.524-2.254 13.524-2.254 20.04-2.266M1703 613a104 104 0 0 0-.316 5.348l-.127 3.271-.12 3.443-.13 3.456q-.16 4.24-.307 8.482 2.893.027 5.785.043l3.254.024c4.909-.111 7.808-1.29 11.836-4.005 2.745-3.955 2.836-6.73 2.613-11.464-.725-3.857-2.304-5.405-5.488-7.598-3.718-1.78-6.64-2.249-10.75-2.187l-2.922.019c-2.288-.09-2.288-.09-3.328 1.168M2567.195 592.734l2.175-.005a686 686 0 0 1 4.492.01c2.266.011 4.532 0 6.798-.012 13.563-.014 24.445 1.646 34.895 10.808 2.915 2.955 3.445 4.245 3.445 8.465h2v20h-2v4h-2l-.5 2.125c-2.185 4.189-5.647 6.267-9.5 8.875l2.5 2.375C2612 652 2612 652 2612 654h2v4h2c1.496 3.446 2.374 6.604 2.938 10.313.714 4.191 1.746 7.912 3.332 11.847 1.857 4.678 2.84 8.832 2.73 13.84-4.292.087-8.583.14-12.875.188l-3.707.076-3.535.029-3.27.048L2599 694c-1.995-2.993-2.619-4.924-3.437-8.375l-.778-3.219a562 562 0 0 1-1.539-6.875c-1.785-9.614-1.785-9.614-7.309-17.343-3.964-1.763-3.964-1.763-12.937-2.188v38h-25v-99c12.397-2.254 12.397-2.254 19.195-2.266M2573 614c-.278 2.426-.278 2.426-.195 5.227l.02 3.125.05 3.273.027 3.297q.036 4.039.098 8.078 2.629.027 5.258.043l2.957.024c5.066-.122 8.552-1.227 12.722-4.067 2.902-4.22 2.834-8.011 2.063-13-1.268-3.297-1.929-3.953-5-6-5.158-2.265-13.646-4.354-18 0M2365.313 592.867l3.257-.004 3.43.012 3.43-.012 3.258.004 3.011.004C2384 593 2384 593 2385 594c.103 2.105.136 4.213.142 6.32l.01 2.001q.011 2.16.017 4.319.011 3.424.041 6.85c.052 6.493.1 12.987.116 19.481.01 3.97.04 7.939.081 11.908q.02 2.264.015 4.527c-.038 11.39-.038 11.39 4.578 21.594l2 1v2c5.998 1.548 11.731 2.092 17.375-.625 5.922-5.358 7.33-12.9 7.838-20.612.113-3.808.169-7.614.201-11.423q.028-2.1.059-4.199c.05-3.654.09-7.309.128-10.963.04-3.741.091-7.482.141-11.223q.144-10.977.258-21.955 6.219-.042 12.438-.062l3.587-.026 3.409-.01 3.158-.016C2443 593 2443 593 2444 594c.1 1.897.128 3.798.13 5.697l.009 3.691-.006 4.018.003 4.092q.001 4.292-.006 8.585-.006 5.512.004 11.026.005 4.227 0 8.452 0 2.034.002 4.067c.003 1.892-.002 3.783-.007 5.675l-.002 3.268C2444 655 2444 655 2443 656a147 147 0 0 0-.312 4.875c-.486 6.173-2.323 11.439-4.688 17.125h-2l-.625 2.125c-1.758 3.677-4.18 6.348-7.375 8.875h-2v2c-11.887 6.617-27.22 7.3-40.403 4.487-3.733-1.102-7.2-2.596-10.597-4.487v-2l-1.875-.75c-2.476-1.456-3.076-2.628-4.125-5.25h-2c-.979-1.592-1.932-3.2-2.875-4.812l-1.617-2.708c-4.145-9.567-3.793-19.933-3.738-30.175v-4.452q.003-4.628.024-9.253.023-5.94.02-11.88.001-4.58.013-9.157l.006-4.385q.005-3.045.022-6.089l.011-3.5c.238-4.613 2.342-3.717 6.447-3.722M2025.79 592.87l3.75-.009 4.085.006 4.159-.003q4.362-.002 8.726.006 5.604.006 11.208-.004 4.296-.005 8.59 0 2.068 0 4.135-.002c1.922-.003 3.845.002 5.768.007l3.322.002C2082 593 2082 593 2083 594c.087 1.489.107 2.981.098 4.473l-.008 2.453-.028 3.136L2083 614l-38 1v15l-1 2h36v20l-35 1c.04 6.163.04 6.163.09 12.326l.008 2.322.016 2.38C2045 672 2045 672 2044 674h41v20h-66c-.04-24.916-.04-24.916-.049-35.498q-.008-10.851-.026-21.702-.016-8.744-.02-17.487-.003-3.344-.01-6.688-.01-4.665-.009-9.332l-.01-2.822c.012-7.595.012-7.595 6.913-7.6M1511 593l31.438-.062 9.939-.028 7.744-.008 2.046-.008c1.978-.007 3.957-.007 5.936-.008l3.385-.006C1574 593 1574 593 1575 594c.087 1.489.107 2.981.098 4.473l-.008 2.453-.027 3.136L1575 614h-39l1 2c.097 2.332.13 4.666.125 7l.008 3.813C1537 630 1537 630 1536 632h36v20h-36l1 2c.095 1.352.13 2.708.133 4.063l.004 2.414-.012 2.523.012 2.523-.008 4.63C1537 672 1537 672 1536 674h41v20h-66zM1890.375 591.625l3.46-.035c7.784.026 14.714 1.177 22.165 3.41-.424 7.553-.925 14.982-4 22l-2 1a384 384 0 0 1-4.875-2.164c-7.152-2.814-15.76-4.395-23-1.399-2.924 1.257-2.924 1.257-4.125 2.563-.606 4.088-.606 4.088 0 8 3.958 3.21 7.931 4.838 12.75 6.375 9.575 3.292 20.804 8.549 26.25 17.625v3h2c3.073 8.644 3.191 17.131-.602 25.578-5.234 9.066-12.456 14.87-22.433 17.776-5.497 1.198-10.984 1.173-16.59 1.146l-3.724-.002c-9.66-.158-17.782-1.642-26.651-5.498v-6h2l-.125-2.937c-.018-4.512 1.02-8.711 2.125-13.063 3.695.37 6.561.771 9.875 2.5 3.537 1.698 6.4 2.017 10.27 2.29C1875 674 1875 674 1876 675c5.542.452 10.16-.287 15-3 2.282-2.162 2.282-2.162 3-5-.341-3.191-.341-3.191-2-6-2.532-1.753-2.532-1.753-5-3v-2l-2.176-.395c-8.506-1.823-16.872-5.327-23.824-10.605v-2h-2v-2h-2v-2h-2c-1.46-2.647-2-3.894-2-7h-2q-.08-4.312-.125-8.625c-.017-.808-.034-1.616-.05-2.45-.04-4.726.348-8.479 2.175-12.925h2l.563-2.125c1.949-3.898 4.785-6.508 8.437-8.875h3v-2c7.857-2.942 15.034-3.46 23.375-3.375M1035.57 591.76c2.028-.01 4.055-.04 6.082-.072 7.64-.03 14.205.504 21.348 3.312-1.373 18.373-1.373 18.373-4 21-2 .04-4 .043-6 0v-2c-1.918.03-1.918.03-3.875.063-3.875.062-3.875.062-6.125-1.063-10.131-.533-18.124 1.323-26 8-2.414 2.76-3.835 5.505-5 9h-2v28h2l1.062 3.125c2.441 5.73 7.335 9.4 12.938 11.875 5.683 1.73 11.08 2.317 17 2l1-1c2.318-.321 4.638-.512 6.969-.719 2.023-.072 2.023-.072 3.031-1.281 2.5-.125 2.5-.125 5 0 1.835 1.835 1.685 4.71 2.062 7.188l.536 3.417c.376 3.173.475 6.205.402 9.395l-1.898.621-2.477.817-2.46.808c-2.175.706-2.175.706-4.165 1.754-4.119.236-8.24.229-12.364.24-2.035.01-4.068.04-6.103.073-15.113.059-26.472-3.39-37.596-13.938-2.434-2.58-3.988-4.895-4.937-8.375h-2q-.973-2.374-1.938-4.75l-1.09-2.672c-2.567-6.805-2.194-13.494-2.222-20.703l-.063-3.883c-.064-15.688 4.684-25.485 15.184-36.922 10.744-10.448 23.229-13.269 37.699-13.31M2235.125 591.75l3.844-.062c7.83-.033 14.614.762 22.031 3.312.348 4.637-.551 7.767-2.266 11.965-1.08 2.993-1.405 5.878-1.734 9.035-2 .043-4 .04-6 0l-1-1a74 74 0 0 0-4-.5c-3.889-.389-3.889-.389-5-1.5-8.977-1.042-16.15 1.98-24 6h-2v2h-2l-3 9h-2l.063 2.938C2208 636 2208 636 2207 637c-.1 2.332-.13 4.666-.125 7l-.008 3.875c-.226 2.992-.226 2.992 1.133 4.125.04 2 .043 4 0 6h2l.516 1.898.734 2.477.703 2.46c1.297 2.682 2.332 3.08 5.047 4.165l3.188 2c6.122 3.514 12.817 4.428 19.812 4l2-1c2.33-.308 4.662-.509 7.004-.719 1.992-.076 1.992-.076 2.996-1.281a100 100 0 0 1 5 0l.184 1.934.253 2.504.247 2.496c.105 2.053.105 2.053 1.316 3.066.072 1.853.084 3.708.063 5.563l-.028 3.066L2259 693c-7.822 3.09-15.356 3.437-23.67 3.336-2.09-.024-4.18-.02-6.271-.014-6.083-.025-11.296-.15-17.059-2.322l-3.812-1.187c-7.42-2.8-16.131-9.406-19.5-16.625L2188 674h-2a340 340 0 0 1-1.875-3.562l-1.055-2.004c-3.373-7.671-3.374-14.623-3.32-22.934l-.023-3.629c.013-5.996.18-11.226 2.273-16.871h2l-.219-2.133c.558-7.312 7.292-14.354 12.532-19.117 3.227-2.75 3.227-2.75 6.687-2.75v-2q3.09-1.477 6.188-2.937l3.48-1.653c7.292-3.086 14.652-2.629 22.457-2.66M1154 593c4.437-.087 8.875-.14 13.313-.187l3.826-.077 3.662-.029 3.38-.048c2.819.341 2.819.341 4.632 1.707 2.564 3.53 3.187 6.279 3.187 10.634h2l.77 2.45 1.043 3.237 1.019 3.2c1.12 2.983 2.514 5.403 4.168 8.113 1.146 2.965 2.048 5.963 3 9l4-10h2l.438-2.25c.464-2.27.98-4.508 1.562-6.75h2l.25-2.875c.69-5.015 2.753-9.51 4.75-14.125h2v-2h27c1 4 1 4-.074 6.078l-1.613 2.172c-2.921 4.105-5.161 8.198-7.313 12.75h-2l-.328 1.68c-.796 2.749-2.013 4.954-3.422 7.445-2.908 5.219-5.62 10.511-8.25 15.875h-2v4h-2l-.312 1.688C1214 647 1214 647 1212.489 649.04c-2.115 4.205-1.967 7.988-2 12.636l-.055 2.803c-.054 2.945-.088 5.889-.121 8.833q-.05 3.002-.104 6.002c-.087 4.896-.147 9.79-.209 14.686h-26l-.113-9.23a4786 4786 0 0 0-.15-8.867q-.049-3.077-.083-6.154c-.034-2.952-.086-5.903-.142-8.854l-.02-2.772c-.114-4.97-.538-7.96-3.492-12.123v-3h-2a669 669 0 0 1-2.5-4.812l-1.406-2.708C1173 633 1173 633 1173 630h-2l-1.645-3.324-2.168-4.364-1.08-2.185c-1.528-3.071-3.055-6.043-4.869-8.959C1160 609 1160 609 1160 606h-2a232 232 0 0 1-2-3.687l-1.125-2.075c-1-2.56-.938-4.513-.875-7.238M3012 593c4.437-.087 8.875-.14 13.313-.187l3.826-.077 3.662-.029 3.38-.048c2.819.341 2.819.341 4.695 1.691 1.542 2.264 1.34 3.975 1.124 6.65h2l.629 1.879c2.282 6.56 4.991 12.782 8.084 18.992 1.647 3.388 2.287 5.274 2.287 9.129 3-1.5 3.172-3.644 4.313-6.75l1.32-3.547L3062 617a2295 2295 0 0 1 2.688-7l1.199-3.125A638 638 0 0 1 3069 599h2l.438-2.437C3072 594 3072 594 3073 593c2-.088 4.002-.107 6.004-.098l3.682.01 3.876.025 3.89.014q4.773.018 9.548.049v5h-2l-.309 1.61c-.894 3.092-2.29 5.775-3.753 8.64l-1.66 3.266L3091 614h-2l-.324 1.668c-.814 2.807-2.063 5.093-3.488 7.644l-1.633 2.942a528 528 0 0 1-3.742 6.496c-1.874 3.36-3.361 6.693-4.813 10.25h-2l-.875 2.25C3071 648 3071 648 3069.95 649.903c-1.045 2.306-1.223 3.887-1.269 6.407l-.06 2.547-.035 2.721-.059 2.808c-.06 2.955-.106 5.91-.152 8.864l-.117 6.016c-.098 4.911-.177 9.822-.258 14.734h-26l.098-8.844c0-2.883-.015-5.766-.03-8.649q-.006-2.964.038-5.928c.177-12.669-.894-21.747-8.077-32.382-1.86-2.931-2.669-4.794-3.029-8.197h-2a418 418 0 0 1-2-3.812l-1.125-2.145C3025 622 3025 622 3025 619h-2a669 669 0 0 1-2.5-4.812l-1.406-2.708C3018 609 3018 609 3018 606h-2a232 232 0 0 1-2-3.687l-1.125-2.075c-1-2.56-.938-4.513-.875-7.238M2844 593h79v22h-27v79h-26v-79h-26zM2722 593q5.969-.042 11.938-.062l3.443-.026 3.271-.01 3.031-.016C2746 593 2746 593 2747 594c.095 3.105.126 6.188.114 9.293v2.956c0 3.241-.009 6.483-.016 9.724l-.005 6.721q-.006 8.865-.024 17.73-.014 9.04-.02 18.078-.016 17.749-.049 35.498c-4.146.029-8.292.047-12.437.063l-3.588.025-3.409.01-3.158.016C2722 694 2722 694 2721 693a256 256 0 0 1-.13-9.078l-.005-2.887q-.004-4.75.002-9.5l-.003-6.573q-.001-6.899.006-13.798.006-8.859-.004-17.719-.005-6.79 0-13.58 0-3.268-.002-6.535-.003-4.56.007-9.123l-.007-2.75c.022-6.228.022-6.228 1.136-8.457"/></svg>