<svg version="1.2" xmlns="http://www.w3.org/2000/svg" viewBox="0 0 3222 732"><style>.a{fill:#0a8b6f}.b{fill:#28b34b}</style><path class="a" d="m72 0h43v2l2.9 0.3c3.9 0.5 7.2 1.9 10.7 3.6q0.7 0.3 1.4 0.6 0.7 0.3 1.4 0.6 0.7 0.3 1.4 0.6 0.7 0.3 1.4 0.6c4.4 1.9 8.5 4.3 12.6 6.8q2.2 1.4 4.4 2.7l2 1.2c1.9 1.1 1.9 1.1 4.8 2v2l1.7 0.3c2.8 0.9 5.2 2.2 7.8 3.6 3.1 1.8 6.3 3.5 9.5 5.1v2l1.7 0.3c2.8 0.9 5.2 2.2 7.8 3.6 3.1 1.8 6.3 3.5 9.5 5.1v2l1.7 0.3c2.8 0.9 5.2 2.2 7.8 3.6 3.1 1.8 6.3 3.5 9.5 5.1v2l1.7 0.3c2.8 0.9 5.2 2.2 7.8 3.6 3.1 1.8 6.3 3.5 9.5 5.1v2l1.7 0.4c13.6 3.8 27.4 14.5 39.3 21.9 5.6 3.5 11.2 6.6 17 9.7 7.1 3.8 14.1 7.8 20.9 12.1 3.3 2 6.6 3.9 9.9 5.7 2.4 1.3 4.8 2.8 7.1 4.2 4.9 3 10 5.5 15.1 8v2l1.7 0.3c9.2 2.7 17.9 9.4 26 14.4q1.4 0.8 2.7 1.6 1.2 0.7 2.5 1.5c2.2 1.3 2.2 1.3 5.1 2.2v2l1.7 0.3c2.8 0.9 5.2 2.2 7.8 3.6 3.1 1.8 6.3 3.5 9.5 5.1v2l1.7 0.3c2.8 0.9 5.2 2.2 7.9 3.6l2.8 1.6q0.8 0.4 1.5 0.9 0.7 0.4 1.3 0.8 0.7 0.5 1.4 0.9 0.7 0.4 1.4 0.9v2l1.8 0.8c9.7 5.2 18.6 15.9 24.2 25.2v3h2v4h2c1.5 3.4 2 5.2 2 9h2c6.3 23.7 7.8 47.8-2 71h-2v4h-2v4h-2v3h-2l-0.7 2.6c-1.4 3.8-3.2 6.2-5.8 9.3l-2.4 2.9-2.1 2.2h-2v2c-1.9 1.7-1.9 1.7-4.4 3.6l-2.4 1.9c-2.2 1.5-2.2 1.5-4.2 1.5v2q-0.9 0.6-1.8 1.2-0.9 0.5-1.8 1.1-0.9 0.5-1.9 1.1-0.9 0.5-1.8 1l-2.3 1.4q-2.4 1.4-4.9 2.8-1.2 0.7-2.5 1.4-1.2 0.7-2.5 1.4-1.2 0.8-2.5 1.5-1.2 0.7-2.5 1.4-2.4 1.4-4.9 2.9-1.8 1-3.6 2.1-1.8 1-3.7 2.1-1.8 1.1-3.6 2.2-1.8 1.1-3.6 2.1c-2.9 1.8-5.8 3.4-8.8 5q-3.8 2.1-7.4 4.4l-2.5 1.5q-0.6 0.3-1.1 0.6-0.6 0.4-1.2 0.7-0.5 0.4-1.1 0.7-0.5 0.3-1.1 0.7c-4.6 2.7-4.6 2.7-7.9 2.7v2l-2.4 1.1c-6.8 3.3-6.8 3.3-13.1 7.4-3.9 3-8.3 5-12.7 7.1-2.8 1.3-2.8 1.3-5 3.1-1.8 1.3-1.8 1.3-4.8 1.3v2l-2.5 1.2-3.2 1.6-3.3 1.6c-3 1.5-3 1.5-5.2 3.3-1.8 1.3-1.8 1.3-4.8 1.3v2l-3.5 1.7c-3.8 1.9-7.3 4-10.7 6.3-1.8 1-1.8 1-4.8 1v2l-3.4 1.7c-5.4 2.7-10.5 5.8-15.7 8.9l-2.2 1.4-1.9 1.1c-1.8 0.9-1.8 0.9-4.8 0.9v2l-1.9 1c-10.4 5.7-20.7 11.5-30.8 17.6-3 1.8-6 3.5-9 5.1q-3.7 2.1-7.3 4.3c-3.9 2.3-7.8 4.5-11.7 6.7q-3.7 2.1-7.3 4.3c-3.9 2.3-7.8 4.6-11.7 6.7-2.4 1.4-4.8 2.8-7.2 4.2-19.1 11.6-37.4 20.5-60 20.4h-3.1c-9.9-0.1-18.9-1.5-28-5.3l-2.4-0.9c-8.2-3.2-15.4-6.8-22.6-11.7l-1.8-1.2c-1.4-1-2.8-2.1-4.2-3.2v-2l-1.7-0.7c-2.6-1.5-4.4-3.1-6.3-5.3v-2h-2c-2.1-2.3-3.8-4.8-5.6-7.3l-1.6-2.1-1.5-2-1.3-1.9c-1-1.7-1-1.7-1-4.7h-2l-1.3-3.6q-0.7-1.7-1.4-3.4-0.6-1.8-1.4-3.5-0.7-1.7-1.4-3.4-0.8-1.7-1.6-3.4c-1.1-3.1-1.2-5.6-1.2-8.9v-3.9-4.2-4.5q0-6.1 0-12.3 0-6.6 0-13.3 0-13 0-26 0-10.5 0-21.1v-3-6.1q0-28.7 0-57.3 0-26.2 0-52.4-0.1-27-0.1-53.9 0-15.1 0-30.2 0-3.2 0-6.4 0-3.2 0-6.4 0-3.3 0-6.5 0-3.2 0-6.4 0-6.6 0-13.1 0-6 0-12 0-2.2 0-4.4c-0.1-13.2-0.1-13.2 3.4-19.4q0.9-2.3 1.7-4.6c5.2-13 14.1-24.9 24.3-34.4h2v-2q0.7-0.6 1.4-1.1 0.7-0.6 1.4-1.1 0.7-0.5 1.5-1 0.7-0.5 1.5-1.1l1.7-1.2c9.1-6 21.3-13.5 32.5-13.5z"/><path  d="m2502.7 183.6l3-0.1q4.9 0 9.8 0h6.8q7.1-0.1 14.2-0.1 9.1 0 18.2 0 7.1-0.1 14.1-0.1 0.8 0 1.6 0 0.9 0 1.7 0 0.9 0 1.7 0 0.9 0 1.7 0 4.7-0.1 9.4 0l2.8-0.1c5.7 0.1 8.8 1.2 12.9 5.2 2.1 2.5 3.8 5 5.3 7.8l1.8 3.2c1.3 2.6 1.3 2.6 1.3 4.6h2l2.3 4.1 1.3 2.4q0.5 0.8 0.9 1.6 0.5 0.8 0.9 1.6 0.5 0.8 1 1.6 0.4 0.8 0.9 1.6c1.7 3.1 1.7 3.1 1.7 5.1h2l0.8 1.4c5.5 10.1 11.3 20 17.8 29.4 1.3 2.1 2.5 4.2 3.7 6.4 2.6 4.7 5.3 9.2 8.1 13.7l2.9 4.8q2.4 3.8 4.7 7.6l1.7 2.7 1.4 2.3c0.9 1.7 0.9 1.7 0.9 3.7h2q0.5 0.9 1 1.8c1.9 3.6 3.9 7.2 6.3 10.6 1.7 2.6 1.7 2.6 1.7 5.6h2q0.5 0.9 1 1.8c1.9 3.6 3.9 7.2 6.3 10.6 1.7 2.6 1.7 2.6 1.7 5.6h2l1 1.8c3.1 5.9 6.5 11.6 10 17.3l1.3 2 2.5 4q0.6 1 1.2 2 0.6 0.9 1.2 1.9 0.6 1 1.2 1.9 0.6 1 1.2 2l1.4 2.3c1 1.8 1 1.8 1 3.8h2l1.1 2.1c4.9 8.9 9.9 17.7 15.8 26 1.1 1.9 1.1 1.9 1.1 4.9h2l1.2 2.3 1.6 3 1.6 2.9c1.5 2.8 1.5 2.8 3.3 5 1.3 1.8 1.3 1.8 1.3 4.8h2l1.2 2.3 1.7 3 1.6 3c1.5 2.8 1.5 2.8 3.5 5.7v-3.7q0-12.3 0-24.5-0.1-12.3-0.1-24.5 0-12.3 0-24.6 0-12.2 0-24.5v-2.1q0-17.4-0.1-34.7 0-17.8 0-35.5 0-10 0-20 0-9.4 0-18.8 0-3.4 0-6.9-0.1-4.7 0-9.4l-0.1-2.8c0.1-6.1 0.6-10.8 4.5-15.8 5.2-4 12.7-2.9 19-2.9q2.3 0 4.5 0 4.7 0 9.4 0 6 0 12-0.1 4.7 0 9.3 0 0.6 0 1.1 0 0.6 0 1.1 0 0.6 0 1.1 0 0.6 0 1.1 0 3.2 0 6.3 0h3.5c4.7 1.1 7.6 2.8 10.4 6.8 1.1 4.7 0.9 9.4 0.9 14.2q0 2.2 0 4.4 0 1.5 0 3 0 1.6 0 3.1 0 1.5 0 3 0 1.5 0 3 0 6.6 0 13.1 0 12.8 0 25.6-0.1 14.9 0 29.7 0 26.6-0.1 53.2-0.1 25.8 0 51.6 0 7.7 0 15.5 0 7.8 0 15.5 0 7.8 0 15.6 0 7.7-0.1 15.5v3q0 10.3 0 20.7 0 3.2 0 6.4 0 3.1 0 6.3 0 3.1 0 6.3 0 3.2 0 6.3 0 6.5 0 12.9 0 5.9 0 11.9-0.1 2.1 0 4.2c0 12 0 12-3.2 15.3l-2.5 1.7-1 1q-4.6 0.2-9.1 0.2h-2.9q-4.8 0.1-9.5 0.1h-3.3q-8.6 0-17.2 0-8.9 0.1-17.8 0.2-6.9 0-13.7 0-3.3 0-6.6 0.1-4.6 0-9.1 0h-2.8c-4.2 0-7.1-0.2-10.5-2.9-4.5-4.8-4.5-4.8-4.5-8.7h-2l-1.6-2.8c-4.7-8.5-4.7-8.5-10.2-16.4-2.2-3.3-4-6.8-5.8-10.2-1.3-2.6-1.3-2.6-3.1-4.7-1.3-1.9-1.3-1.9-1.3-4.9h-2l-1.1-2c-4.1-7.7-8.7-15.1-13.5-22.4l-1.3-2.1-1.3-1.8c-0.8-1.7-0.8-1.7-0.8-4.7h-2l-1.5-2.7c-3.9-6.8-7.8-13.5-12.2-20-1.2-2.1-1.9-3.9-2.3-6.3h-2q-0.5-0.9-1-1.8c-1.9-3.6-3.9-7.2-6.3-10.6-1.7-2.6-1.7-2.6-1.7-5.6h-2q-0.5-0.9-1-1.8c-1.9-3.6-3.9-7.2-6.3-10.6-1.7-2.6-1.7-2.6-1.7-5.6h-2l-1.1-2.1c-2.9-5.3-5.7-10.4-9-15.3-0.9-1.6-0.9-1.6-0.9-3.6h-2l-1.2-2.3-1.6-2.9-1.6-3c-1.5-2.8-1.5-2.8-3.3-5-1.3-1.8-1.3-1.8-1.3-4.8h-2l-1.2-2.3-1.6-2.9-1.6-3c-1.5-2.8-1.5-2.8-3.3-5-1.3-1.8-1.3-1.8-1.3-4.8h-2q-1.5-2.6-2.9-5.2l-1.7-3c-1.2-2.3-1.9-4.3-2.4-6.8h-2c-1.1-1.6-2.1-3.3-3-5q-0.3-0.4-0.5-0.9-0.3-0.4-0.6-0.9-0.2-0.4-0.5-0.8-0.3-0.5-0.5-0.9l-3.5-5.8q-1.7-2.8-3.4-5.7l-1.2-2c-2.8-4.8-2.8-4.8-2.8-7h-2c-1.5-2.6-2-3.9-2-7h-2v3.9q0 13 0.1 26 0 13 0 26 0.1 13 0.1 26 0 13 0 26 0.1 17.9 0.1 35.9 0.1 18.5 0.1 36.9 0 11.4 0 22.8 0.1 8.7 0.1 17.4 0 3.6 0 7.2 0 4.9 0 9.8v2.8c0 5.6-0.7 8.9-4.5 13.3-3.6 2.4-5.4 2.3-9.7 2.3h-2.1q-3.3 0-6.7 0h-4.7q-4.9 0-9.8 0-6.2-0.1-12.5 0-4.9 0-9.7 0-2.3 0-4.6 0-3.2 0-6.5 0h-3.7c-3-0.3-3-0.3-6-2.3v-2h-2v-4h-2q0-18.7-0.1-37.4 0-18.7 0-37.4-0.1-18.7-0.1-37.4 0-18.7 0-37.4v-3.2q-0.1-25.5-0.1-50.9-0.1-26.2-0.1-52.3 0-16.1 0-32.3 0-2.7 0-5.5-0.1-2.7-0.1-5.5 0-2.8 0-5.5 0-2.8 0-5.6 0.1-6.3 0-12.7 0-5.9 0-11.7 0-2.1 0-4.2c-0.1-13-0.1-13 4.5-18l1.6-1.8c3.9-1.9 7.9-1.6 12.1-1.6z"/><path class="b" d="m667 368l3.4 0.4c15.1 1.8 29 8.6 40.6 18.6v2h2v2l3 1q0.7 0.8 1.3 1.7 0.7 0.8 1.4 1.7 0.6 0.9 1.2 1.7 0.7 0.9 1.3 1.8l1.4 1.9c3.4 4.8 3.4 4.8 3.4 8.2h2c7.6 15.7 7.4 32.8 7.4 49.9q0 3.4 0 6.8 0 9.1-0.1 18.2 0 9.5 0 19.1 0 16 0 32-0.1 16.5-0.1 32.9v2.1 4.1 2 2.1q0 16.7 0 33.3v11.4q0 8.9 0 17.8 0 3.3 0 6.6 0 4.4-0.1 8.9v2.6c0 6 0 6-1.1 8.2-0.5 3.5-1 6.9-1.4 10.4-0.6 3.4-1.4 6.4-2.6 9.6h-2l-0.3 1.6c-0.9 3.3-2.3 6.3-3.7 9.4h-2l-0.7 2.1c-1.6 3.6-3.6 6-6.3 8.9h-2v2h-2v2c-8.4 7.4-21.2 17-33 17v2h-37l-1-2c-2.1-0.8-2.1-0.8-4.6-1.4-4.3-1.3-8.3-2.7-12.4-4.6v-2l-1.6-0.3c-3.2-0.9-5.7-2.5-8.5-4.2-4.3-2.6-4.3-2.6-8.9-4.5v-2l-1.6-0.3c-3-0.9-5.4-2.3-8.1-3.9-3.6-2.2-7.2-4.3-10.9-6.4-4.1-2.2-8-4.5-11.9-6.9q-3.5-2.1-7-4c-4.1-2.2-8.1-4.6-12-7q-3.5-2.1-7-4c-4.1-2.2-8.1-4.6-12-7-3.1-1.8-6.1-3.5-9.2-5.2-2.4-1.4-4.8-2.8-7.2-4.2-7.8-4.8-15.9-9.1-24.1-13.1v-2l-1.6-0.3c-3.2-0.9-5.7-2.5-8.5-4.2-4.3-2.6-4.3-2.6-8.9-4.5v-2l-1.6-0.3c-3.2-0.9-5.7-2.5-8.5-4.2-4.3-2.6-4.3-2.6-8.9-4.5v-2l-1.6-0.3c-3.2-0.9-5.7-2.5-8.5-4.2-4.3-2.6-4.3-2.6-8.9-4.5v-2l-1.9-0.4c-2.1-0.6-2.1-0.6-4.1-1.6v-2l-2.2-0.7c-8.3-3.8-15.4-13.4-19.8-21.3v-3h-2v-4h-2l-0.6-2.2-0.8-2.7-0.8-2.8c-0.6-2.2-0.6-2.2-1.8-3.3-3.8-15.3-2.7-31 2-46h2l0.4-2.2c1.6-7.3 6-14 10.6-19.8h2l0.8-1.8c1.2-2.2 2.3-3.6 4.2-5.2h2v-2c5.8-4.9 12.5-8.6 19.1-12.3q1-0.6 2-1.2 1-0.6 2-1.2 1.1-0.6 2.1-1.2 1-0.6 2-1.2c3.8-2.3 7.6-4.5 11.5-6.6q3.7-2.1 7.3-4.3c3.9-2.3 7.8-4.5 11.7-6.7q3.7-2.1 7.3-4.3c3.9-2.3 7.8-4.5 11.7-6.7q3.7-2.1 7.3-4.3c3.9-2.3 7.8-4.6 11.7-6.7 2.4-1.4 4.8-2.8 7.2-4.2 4.3-2.6 8.7-5.1 13.1-7.5 8-4.4 15.9-8.9 23.7-13.7q1.8-1.2 3.7-2.3 1.8-1.1 3.7-2.1 1.8-1.1 3.7-2.1 1.9-1.1 3.8-2.1 0.6-0.3 1.2-0.7 0.7-0.4 1.3-0.7 0.7-0.4 1.3-0.8 0.6-0.4 1.2-0.8c2.4-1.3 2.4-1.3 5.4-1.3v-2l2.2-1.2 3-1.6 2.9-1.6q0.7-0.4 1.4-0.8 0.7-0.4 1.4-0.8 0.7-0.4 1.4-0.8 0.7-0.5 1.4-0.9c2.3-1.3 2.3-1.3 5.3-1.3v-2l2.3-1.1c7.1-3.5 7.1-3.5 13.8-7.5 12.3-7.8 28.6-11 42.9-8.4z"/><path  d="m957.8 183.4h3.7q4.9 0 9.8 0.1 5.2 0 10.4 0 8.7 0 17.4 0.1 12.2 0 24.5 0.1 2.7 0 5.3 0 2.6 0 5.3 0 2.6 0 5.3 0 2.6 0 5.2 0 6.8 0.1 13.6 0.1h3.4 3.2l2.7 0.1c2.3 0.1 4.2 0.5 6.4 1.1q3 0.2 5.9 0.4c6.4 0.4 12.6 1.1 18.9 2l2.7 0.4c15.6 2.3 15.6 2.3 17.5 4.2l3 0.4c3.7 0.5 6.9 1.5 10.4 2.7 3 1 6.1 1.8 9.2 2.7 7.3 2 13.9 5 20.6 8.3q2.5 1.3 5 2.4c16.9 8.2 34 19.7 46.8 33.5v2h2q0.6 0.7 1.2 1.3 0.6 0.7 1.2 1.3 0.5 0.7 1.1 1.4 0.6 0.7 1.1 1.4l2.5 3c1.9 2.6 1.9 2.6 1.9 4.6h2l1.7 3.1c2 3.5 4.2 6.7 6.5 10 5.5 8.4 9.2 17.5 12.9 26.8q0.3 0.6 0.6 1.2 0.2 0.7 0.5 1.3 0.2 0.6 0.5 1.3 0.3 0.6 0.5 1.2c1 2.8 0.9 5.2 0.8 8.1h2c3.2 16.4 3.2 16.4 3.8 24.2 0.1 1.9 0.1 1.9 1.2 3.8q0.4 3.8 0.6 7.7l0.1 2.4c0.5 10.3 0.5 20.6 0.3 30.9v2.5c-0.3 12.1-2.3 23.6-5 35.5l-0.8 3.5c-1.3 6-3.3 11.3-6 16.9-1.1 2.4-2 4.7-2.9 7.2-4.3 11.1-11.5 23.4-19.3 32.4h-2l-0.7 2.1c-1.6 3.6-3.6 6-6.3 8.9h-2v2c-1.4 1.6-1.4 1.6-3 3h-2v2h-2v2h-2v2c-5.5 5-5.5 5-8 5v2l-5 2v2c-1.7 1.3-1.7 1.3-3.9 2.6l-2.2 1.4c-1.9 1-1.9 1-3.9 1v2h-3v2l-2.3 1.1c-6.9 3.4-6.9 3.4-13.4 7.3-5.9 3.9-12.8 6.2-19.4 8.8q-2.3 1-4.6 2c-12.6 5.5-26.5 8.1-40.1 10.2-3.1 0.4-3.1 0.4-5.2 1.6q-0.7 0.1-1.4 0.1-0.6 0.1-1.3 0.2-0.7 0-1.4 0.1-0.7 0.1-1.3 0.1c-3.2 0.2-5.6 0.5-8.6 1.5q-2.8 0.1-5.5 0.1l-3.5 0.1h-3.8-4q-6.6 0-13.2 0l-4.5 0.1q-10.7 0-21.4 0-12.3 0-24.6 0.1-9.5 0-19 0-5.7 0-11.4 0.1-5.3 0-10.7 0-2.9 0-5.7 0c-11.1-0.1-17.3-3.5-25.4-11.1-6.4-6.8-8.4-13.7-8.4-23v-3.3-3.6-3.9q0-5.3 0-10.5 0-5.8-0.1-11.5 0-11.1 0-22.3 0-9.1 0-18.2 0-25.8 0-51.6v-5.6q0-22.5 0-45.1 0-23.1 0-46.3 0-13 0-26 0-2.7 0-5.5 0-2.7-0.1-5.5 0-2.8 0-5.5 0.1-2.8 0.1-5.6 0-5.6-0.1-11.3 0-6.1 0.1-12.2l-0.1-3.6c0.1-16.6 0.1-16.6 5.7-23.2l1.8-2.2c3.3-3.6 3.3-3.6 4.8-4.9h2v-2c8.5-4.2 15.4-5.7 24.8-5.6zm44.2 77.6v214c40.4 4.3 40.4 4.3 78-3l3.6-0.2c7.7-0.8 15-3.5 22.4-5.8l3-0.9c9.6-3.2 18.6-8.5 27-14.1v-2l1.7-0.7c14.5-8.1 25-27.8 29.6-43.3 1.8-6.3 3.2-12.6 3.6-19.3 0.1-1.7 0.1-1.7 1.1-3.7 0.3-4.8 0.3-9.6 0.3-14.4v-2.2c0-15-2.4-28.2-7.3-42.4h-2v-4h-2l-0.4-1.7c-0.6-2.4-1.5-4.4-2.7-6.6l-1.1-2.1-0.8-1.6h-2l-0.7-2.1c-1.6-3.6-3.6-6-6.3-8.9h-2v-2h-2v-2q-0.8-0.7-1.6-1.3-0.8-0.7-1.6-1.3-0.8-0.6-1.6-1.2-0.8-0.7-1.6-1.3l-2.1-1.4c-10.2-7.3-21.2-13.5-33.5-16.5l-2.8-1c-3.8-1.2-7.5-1.9-11.4-2.6-7.5-1.3-7.5-1.3-9.8-2.4q-0.8-0.1-1.6-0.1-0.8-0.1-1.6-0.2-0.8 0-1.6-0.1-0.8-0.1-1.6-0.1c-3.7-0.2-6.9-0.6-10.6-1.5zm374.5-77.4h2.9q4.8 0 9.6 0 3.5 0 6.9 0 9.4-0.1 18.8-0.1 7.9 0 15.7 0 19.6 0 39.1 0 17 0 34 0 17.4-0.1 34.8-0.1 9.8 0 19.6 0 9.2-0.1 18.4 0 0.8 0 1.7 0 0.8 0 1.7 0 0.8 0 1.7 0 0.8 0 1.6 0 1.2 0 2.4 0 1.1 0 2.3 0 1.1 0 2.3 0 1.1 0 2.3 0l2.7-0.1c6.2 0.1 9.3 1.6 14 5.7 3.1 5.5 2.3 12.3 2.3 18.4v3.6q0 3.8 0 7.6 0 5.8 0.1 11.6 0 3.7 0 7.4v3.5c0 6.7-0.5 11.4-5 16.8-1.4 1.1-1.4 1.1-3.4 1.1v2l-160 1v63h13.6q22.2 0.1 44.4 0.2 13.4 0 26.9 0.1 11.7 0 23.4 0.1 6.3 0 12.5 0 5.8 0 11.7 0 2.1 0.1 4.3 0c12.1 0 12.1 0 16.1 2.5l2.1 2.1v2h2c1 3.3 1.1 6.2 1.1 9.6v3.4 3.7 3.8q0 3.9 0 7.9 0 5 0 10.1 0 4.8 0 9.7v3.6 3.5 3c-0.1 2.6-0.5 5.1-1.1 7.7h-2v2h-2v2c-3.4 2.1-6.1 2.3-10.1 2.3h-3.9-4.1-4.4q-6 0.1-12 0.1-6.2 0-12.5 0.1-11.8 0-23.7 0.1-15.9 0.1-31.9 0.2-25.2 0.1-50.4 0.2v70h15.3q25.1-0.1 50.2-0.2 15.2 0 30.3 0 13.3-0.1 26.5-0.1 7 0 14.1 0 6.6 0 13.2 0 2.4 0 4.8-0.1 3.3 0 6.6 0h3.8c3.5 0.4 5.4 1.2 8.2 3.4v2h2c2 3.3 2.3 5.8 2.3 9.7v3.4 3.8 3.8q0 4 0 8.1 0 5.1 0.1 10.2 0 4.9 0 9.9v3.7c0 7.2-0.3 12.1-5.4 17.5-4.3 2.7-7.9 2.5-12.9 2.4h-3q-5.1 0.1-10.2 0-3.6 0-7.2 0.1-8.8 0-17.6 0-7.2 0-14.4 0h-2-4.2q-19.4 0-38.9 0-17.7 0-35.5 0-5.1 0-10.2 0-5.1 0-10.2 0-5 0-10.1 0-5.1 0-10.2 0h-2q-7.2 0-14.4 0.1-2.4 0-4.8 0-2.4 0-4.8 0-2.4 0-4.8 0-2.4-0.1-4.8-0.1-3.6 0-7.1 0-1.2 0.1-2.4 0.1-1.2 0-2.4 0-1.3 0-2.5-0.1-1.2 0-2.4 0l-2.8 0.1c-4.2-0.1-7.3-0.3-10.7-2.9-4-4.4-4.7-8-4.8-13.8v-3.7-4.1-4.3q0-5.9 0-11.8 0-6.4 0-12.8 0-12.5 0-24.9 0-10.2 0-20.4-0.1-28.7-0.1-57.5v-6.3q0-25.2 0-50.4-0.1-25.9-0.1-51.7 0-14.5 0-29.1 0-3.1 0-6.1 0-3.1 0-6.2 0-3.1 0-6.2 0-3.1 0-6.2 0-6.3 0-12.6 0-5.8 0-11.6 0-2 0-4.1c-0.1-13.3-0.1-13.3 4.5-19 4.3-3.8 9-3.4 14.5-3.4zm759-0.1h2.9q4.9-0.1 9.7 0 3.5 0 7-0.1 9.4 0 18.9 0 7.8 0 15.7 0 19.7 0 39.3 0 17.1 0 34.1 0 17.5 0 35 0 9.9 0 19.7-0.1 2.3 0 4.6 0 2.3 0 4.7 0 2.3 0 4.6 0 2.3 0.1 4.6 0.1 3.4 0 6.8 0 4.6-0.1 9.3 0l2.7-0.1c4.2 0.1 7 0.4 10.4 3.1 3.8 4 4.8 6 4.8 11.4l0.1 3.7v3.9 4.1q0 4.2 0 8.5 0 5.4 0.1 10.8 0.1 4.2 0.1 8.4 0 2.9 0 5.9c0 10 0 10-2.9 13.6-4.4 3.7-6.5 4.5-12.1 4.5h-2q-3.3 0-6.6 0h-4.8q-6.4 0-12.8 0-6.7 0-13.4 0-12.8 0-25.5-0.1-14.5 0-28.9 0-29.8 0-59.6-0.1v64h13.6q22.2 0.1 44.4 0.2 13.4 0 26.9 0.1 11.7 0 23.4 0.1 6.3 0 12.5 0 5.8 0 11.7 0 2.1 0.1 4.3 0c13.3 0 13.3 0 18.2 4.6 5.3 5.5 4.6 11.8 4.5 19.1v3.8q0 1 0 2 0 1 0 2 0 1 0 2 0 1 0 2 0 1.3 0 2.6 0 1.2 0 2.5 0 1.3 0 2.6 0 1.3 0 2.5 0.1 4.9 0 9.8l0.1 3.7c-0.2 10.7-0.2 10.7-4.6 15.4-3.8 3.6-6.1 4.5-11.3 4.5h-3.8-4.2q-2.3 0-4.5 0-6 0-12-0.1-6.3 0-12.6 0-11.9 0-23.8-0.1-16-0.1-32.1-0.1-25.4-0.1-50.7-0.2v71l15.4-0.1q25.2-0.1 50.4-0.2 15.3 0 30.5-0.1 13.4-0.1 26.7-0.1 7 0 14.1 0 6.6-0.1 13.2-0.1 2.5 0 4.9 0 3.3 0 6.7 0h3.7c4.5 0.8 6.2 2.4 9.4 5.6v2h2q0.1 12 0.1 24 0 5.6 0.1 11.2 0 5.4 0 10.8 0 2 0 4.1 0 2.9 0 5.8v3.3c-0.2 2.8-0.7 4.4-2.2 6.8h-2v2c-3.1 2.1-3.7 2.2-7.2 2.3h-2.6-2.9-3.1q-5 0-10.1 0-3.7 0-7.3 0-9.9 0.1-19.8 0.1-6.2 0-12.4 0-17.1 0-34.2 0h-2.2-6.7-2.2q-17.9 0-35.8 0.1-18.3 0.1-36.7 0.1-10.3-0.1-20.6 0-9.7 0-19.4 0-3.6 0-7.1 0-4.9 0-9.7 0l-2.9 0.1c-4.5-0.1-6.5-0.2-10.1-3-3.3-4.4-4.2-7.1-4.3-12.6v-3.8-4-4.4q0-5.9 0-11.9 0-6.4 0-12.8 0-12.6 0-25.2 0-10.2 0-20.4v-3-5.9q0-27.7 0-55.4 0-25.4 0-50.8-0.1-26-0.1-52 0-14.7 0-29.3 0-12.4 0-24.9 0-6.3 0-12.7 0-5.8 0-11.6 0-2.1 0-4.2 0-2.9 0-5.7v-3.2c0.6-4.4 2.6-7 5.5-10.2 4.1-2.4 7.7-2.3 12.4-2.2zm-233.8-8.8q4.5 0 8.9-0.1c9.5 0 18.9 0.3 28.3 1.7l2.4 0.4c4.7 0.8 9.2 2 13.7 3.6 3 1 6 1.8 9 2.7 18.9 5.7 36.9 15 52 28v2l1.8 0.8c4.1 2.2 7.4 5.8 8.9 10.2 0.7 4.5 0.3 8-1.7 12-2.5 2.9-2.5 2.9-5 5h-2v2c-1.9 1.7-1.9 1.7-4.4 3.6l-2.4 1.9c-2.2 1.5-2.2 1.5-4.2 1.5v2q-0.6 0.5-1.2 1-0.5 0.5-1.1 1-0.6 0.5-1.2 1-0.6 0.5-1.3 0.9l-2.6 2.1-2.6 2-2.2 1.8c-1.8 1.2-1.8 1.2-3.8 1.2v2c-1.9 1.7-1.9 1.7-4.4 3.6l-2.4 1.9c-2.2 1.5-2.2 1.5-4.2 1.5v2c-4 2.5-7.4 4.4-12.2 3.9-3.5-0.8-5.9-1.7-8.8-3.9v-2h-2v-2l-2.2-0.8c-2.6-1.1-4.5-2.3-6.8-4-7.4-5.1-16.3-8.1-25-10.2l-2.3-0.6c-7.2-1.5-14.4-1.6-21.8-1.6h-3.2c-5-0.2-5-0.2-9.7 1.2q-2.2 0.2-4.4 0.4c-11.4 1.1-20.6 5.3-30.6 10.6-5.7 3-5.7 3-8 3v2q-0.6 0.4-1.2 0.9-0.6 0.4-1.2 0.8-0.5 0.4-1.1 0.8-0.6 0.4-1.2 0.8c-9.7 6.8-17.7 15.5-23.2 26l-1.1 1.7h-2l-0.3 1.6c-0.9 3.2-2.2 6.1-3.6 9.2l-1.5 3.6q-0.4 0.9-0.8 1.8-0.4 0.9-0.8 1.8-0.4 0.9-0.8 1.8-0.4 0.9-0.8 1.8-0.5 1.1-0.9 2.2-0.4 1.2-0.8 2.3-0.3 1.2-0.7 2.3-0.3 1.2-0.6 2.3l-0.7 2.8-0.7 3.5-0.5 2.2c-1.9 8.4-1.8 16.8-1.8 25.4q0 3.8-0.1 7.7c0 18.8 3.7 35.6 12 52.6 1.5 3 2.8 5.8 3.4 9.1h2l0.8 1.6c3.4 6.6 8.4 16 15.2 19.4v2q0.8 0.4 1.7 0.8c2.6 1.4 4.7 3 6.9 5 9.5 7.7 19.3 12.5 31.1 15.6 2.3 0.6 2.3 0.6 3.3 1.6 7.9 2.3 15.8 2.3 24 2.3h3.7c9.9 0 18.2-1.2 27.3-5.3q2.6-0.9 5.3-1.7c12.2-4.5 21.6-12.9 30.5-22.2 2.6-2.6 4.5-4.4 8.2-5.1 7 0.3 11.3 3.2 17 7v2l2.2 0.8c3.1 1.3 5.2 3 7.8 5.1 2.6 2.2 4.9 4.1 7.8 5.7l2.2 1.4v2l2 0.6c4.3 2 7.9 4.9 11.6 7.8l2.3 1.8c8.5 6.5 8.5 6.5 10.1 9.8q0.1 3.3 0.1 6.6l-0.1 3.6v2.8h-2l-0.7 1.7c-1.5 2.7-3.2 5-5.3 7.3h-2v2h-2v2h-2v2q-0.8 0.7-1.7 1.4-0.8 0.7-1.6 1.4-0.9 0.6-1.7 1.3-0.9 0.7-1.7 1.3l-2 1.5q-1.8 1.4-3.7 2.9-0.5 0.3-1 0.7-0.4 0.4-0.9 0.8-0.5 0.4-1 0.8-0.5 0.4-1 0.7c-1.7 1.2-1.7 1.2-4.7 1.2v2c-19.5 11-19.5 11-26 11v2l-2 0.6-2.6 0.8-2.6 0.7q-0.7 0.3-1.4 0.5-0.8 0.2-1.5 0.4-0.7 0.3-1.4 0.5-0.7 0.2-1.4 0.5c-3.4 1.1-6.8 2.1-10.2 3l-3.7 1c-10.1 2.5-20.1 3.4-30.5 3.7l-4 0.1c-19.3 0.5-38-0.1-56.8-5.1-2.9-0.7-5.8-1.2-8.7-1.7-4.4-0.8-8.1-2.1-12.2-4q-2.3-0.7-4.6-1.3c-6.5-1.9-12.4-4.8-18.4-7.7l-3.3-1.5c-10.2-4.9-19.5-11-28.7-17.5l-2.3-1.6-2.2-1.6-2.1-1.5-1.4-1.3v-2l-1.7-0.8c-2.4-1.2-4.3-2.5-6.3-4.2v-2h-2v-2h-2c-1.7-1.6-1.7-1.6-3.6-3.8l-1.8-2.2c-1.6-2-1.6-2-2.6-5h-2c-9-10.1-9-10.1-9-15h-2q-3-5.1-5.9-10.3-0.5-0.8-0.9-1.6-0.5-0.8-1-1.7-0.4-0.8-0.9-1.6-0.5-0.8-0.9-1.6l-1.4-2.3-1.2-2c-0.8-1.9-0.8-1.9-0.8-5.9h-2c-0.4-1.2-0.4-1.2-0.8-2.4-2.1-6.6-2.1-6.6-4.7-13-16.1-38.9-16.3-95.3-1.3-134.5 1.4-3.8 2.7-7.7 4-11.6l0.8-2.5q1-3 2-6h2v-4h2v-4h2l0.3-2.1c0.8-3.3 2.1-5.8 3.8-8.7l1.6-3 1.3-2.2h2l0.4-1.9c0.6-2.1 0.6-2.1 1.6-4.1h2l0.7-2.1c1.5-3.4 3.6-6 6-8.8l1.4-1.6c16.1-18.6 16.1-18.6 23.9-23.5h2v-2c2.4-2.1 5.2-3.8 7.8-5.6l2.2-1.6 2.2-1.5 2-1.3c1.8-1 1.8-1 4.8-1v-2q4.2-2.1 8.5-4.2 0.8-0.5 1.7-0.9 0.9-0.4 1.7-0.9 0.9-0.4 1.8-0.9 0.8-0.4 1.7-0.9c11.4-5.9 22.9-9.7 35.4-12.6 2.2-0.4 2.2-0.4 3.2-1.6q3.8-0.8 7.6-1.4l2.1-0.4q3.6-0.6 7.3-1.2l3.1-0.5c10.6-1.7 21-1.8 31.6-1.8zm1040 9h2.9 3.2 3.5q5.7 0 11.4 0 4 0 8.1-0.1 11.1 0 22.2 0 6.9 0 13.9 0 19.2-0.1 38.3-0.1h2.5 2.5 5 2.5q20 0 40.1-0.1 20.6 0 41.1 0 11.6 0 23.2-0.1 9.8 0 19.6 0 5.1 0 10.1 0 5.4-0.1 10.9 0l3.2-0.1c6 0.1 9.4 1 13.9 5.2 2 2.6 2.1 4.7 2.1 7.9v3.7 4q0 2 0 4.1 0 4.3 0 8.6-0.1 5.5 0 10.9 0 4.3-0.1 8.5 0 3 0.1 6c-0.2 8.8-0.2 8.8-2.2 11.8-5.1 4.4-10.3 4.2-16.7 4.2h-2.7q-4.6 0-9.2 0h-6.3q-8.3 0-16.6 0-8.5 0-16.9-0.1-16.7 0-33.3 0v1.8q0 15 0.1 29.9 0 15 0 29.9 0.1 15 0.1 29.9 0 15 0 29.9v2.6q0.1 20.7 0.1 41.4 0.1 21.2 0.1 42.4 0 13 0 26.1 0.1 9 0.1 18-0.1 5.2 0 10.3 0 5.6 0 11.3v3.3c0 7.3-1.1 10.8-6.3 16-3.1 1.7-5.5 1.6-8.9 1.6q-1 0-2 0-3.3 0.1-6.6 0.1h-4.6q-4.8 0-9.6 0-6.1 0-12.2 0.1-4.8 0-9.5 0-2.2 0-4.5 0c-13.3 0.2-13.3 0.2-17.1-2.9-3.2-4-4.5-6.6-4.4-11.6l-0.1-3.1 0.1-3.3v-3.5q0-4.9 0-9.8 0-5.2 0-10.4 0-9.1 0-18.2 0-13.1 0-26.3 0-21.3 0-42.6 0.1-20.7 0.1-41.4v-2.5-12.8q0-53.1 0.1-106.2h-3.5q-16.5 0.1-33 0.2-8.4 0-16.9 0-8.2 0.1-16.3 0.1-3.1 0-6.3 0-4.3 0-8.7 0l-2.6 0.1c-5.9-0.1-10.3-1-14.7-5.4v-3h-2q0-2.8-0.1-5.6 0-2.8-0.1-5.6 0-2.8 0-5.6 0-2.8-0.1-5.6 0-5.2-0.1-10.4-0.1-5.9-0.1-11.9l-0.1-3.8c0-9.6 0-9.6 2.9-13.2 3.7-3.1 5.6-4.5 10.4-4.6zm-1579.4 409q2.3 0 4.6-0.1c12.9-0.2 25 0.7 35.3 9.6 5.5 5.4 7.5 11.2 7.8 18.8-0.6 2.9-1.6 5.4-3 8l-1.6 3-1.4 2h-2v2q-0.6 0.5-1.2 1-0.6 0.5-1.3 1-0.6 0.5-1.2 1-0.7 0.5-1.3 1l3 1v2l1.8 0.8c2.3 1.3 3.6 2.5 5.3 4.6l1.5 1.7c5 6.8 4.5 15.8 3.4 23.9-2.3 6.5-6.4 11.2-12 15h-2v2q-0.5 0.2-1 0.3-0.5 0.2-1 0.4-0.5 0.2-1 0.3-0.5 0.2-1 0.4l-2.2 0.7c-7.3 2.3-13.6 3.2-21.2 3.1h-2.9q-3 0-6 0-4.7 0-9.4 0-2.9 0-5.9 0h-2.8l-2.6-0.1h-2.3c-1.7-0.1-1.7-0.1-2.7-1.1q0-1.1-0.1-2.3 0-1.1 0-2.3 0-1.2 0-2.3 0-1.2 0-2.3v-2.9q0-4.8 0-9.7v-6.6q0-8.8 0-17.6 0-8.9 0.1-17.9 0-17.5 0-35.1c8.5-3.6 17.3-3.2 26.3-3.3zm-0.3 20.3q0 0.5-0.1 1.1 0 0.5 0 1 0 0.6 0 1.1 0 0.5 0 1.1v2.5 2.8l0.1 2.7q0 3.3 0 6.7c9.5 0.6 9.5 0.6 18-3 2.5-2.2 2.5-2.2 4-5-0.2-3.1-0.6-5.2-2-8h-2v-2c-4.3-1.5-14.3-4.7-18-1zm-1 38q0 6.5-0.1 12.9v3.8 3.5 3.3c-0.2 2.4-0.2 2.4 1.1 3.5 7.2 0.8 13.6-0.8 20-4v-2h2c2.4-3.7 2.4-6.7 2-11-1.1-3.6-2.6-6.1-5.8-8.1-4.5-1.7-8.7-2-13.5-2l-3.3 0.1zm337.1-58.3h2.1q2.1 0 4.3 0 3.3 0 6.5 0c9.3 0 18.5 0.3 27 4.3v2h3v2h3v2h2l2 5h2c2.6 4.8 2.3 9.5 2.2 14.8l-0.1 2.7q0 3.2-0.1 6.5h-2v4h-2l-2 5h-2v2c-3 2-3 2-6 2 1.2 2.6 2.3 4.2 4.4 6.3 7 8.2 8.9 21.5 11.6 31.7l1.2 3.6c0.8 3.4 0.8 3.4 0.8 7.4h-26c-4.4-10.2-4.4-10.2-5.6-14.8l-0.7-3-0.8-3.1q-0.7-3-1.5-6l-0.6-2.7c-0.7-2.4-1.4-4.4-2.8-6.4-4.9-1.4-4.9-1.4-14-1v37h-26v-99c13.6-2.3 13.6-2.3 20.1-2.3zm5.9 20.3q0 0.6-0.1 1.3 0 0.7 0 1.3-0.1 0.7-0.1 1.4 0 0.6-0.1 1.3l-0.1 3.3-0.1 3.4-0.1 3.5q-0.2 4.2-0.4 8.5 2.9 0 5.8 0h3.3c4.9-0.1 7.8-1.3 11.8-4 2.8-3.9 2.9-6.7 2.6-11.4-0.7-3.9-2.3-5.4-5.5-7.6-3.7-1.8-6.6-2.3-10.7-2.2h-2.9c-2.3-0.1-2.3-0.1-3.4 1.2zm864.2-20.3h2.2q0.6 0 1.1 0 0.6 0 1.2 0 0.5 0 1.1 0 0.5 0 1.1 0 3.4 0 6.8 0c13.6 0 24.5 1.6 34.9 10.8 2.9 3 3.4 4.2 3.4 8.5h2v20h-2v4h-2l-0.5 2.1c-2.1 4.2-5.6 6.3-9.5 8.9l2.5 2.3c2.5 2.7 2.5 2.7 2.5 4.7h2v4h2c1.5 3.4 2.4 6.6 3 10.3 0.7 4.2 1.7 7.9 3.3 11.8 1.9 4.7 2.9 8.9 2.7 13.9q-6.4 0.1-12.8 0.2h-3.7l-3.6 0.1h-3.2l-2.7-0.3c-1.9-3-2.6-5-3.4-8.4l-0.8-3.2q-0.2-0.9-0.4-1.7-0.2-0.9-0.3-1.8-0.2-0.8-0.4-1.7-0.2-0.8-0.4-1.7c-1.8-9.6-1.8-9.6-7.3-17.3-4-1.8-4-1.8-13-2.2v38h-25v-99c12.4-2.3 12.4-2.3 19.2-2.3zm5.8 21.3c-0.2 2.4-0.2 2.4-0.1 5.2v3.1 3.3l0.1 3.3q0 4 0 8.1 2.7 0 5.3 0h3c5-0.1 8.5-1.2 12.7-4 2.9-4.3 2.8-8 2-13-1.2-3.3-1.9-4-5-6-5.1-2.3-13.6-4.4-18 0zm-207.6-21.2h3.2 3.4 3.5 3.2 3c2.3 0.2 2.3 0.2 3.3 1.2q0.2 3.1 0.2 6.3v2q0 2.1 0 4.3 0 3.4 0.1 6.9 0 9.7 0.1 19.4 0 6 0.1 11.9 0 2.3 0 4.6c-0.1 11.4-0.1 11.4 4.5 21.6l2 1v2c6 1.5 11.8 2.1 17.4-0.7 5.9-5.3 7.4-12.9 7.9-20.6q0.1-5.7 0.2-11.4 0-2.1 0-4.2 0.1-5.5 0.2-11 0-5.6 0.1-11.2 0.1-11 0.2-21.9 6.3-0.1 12.5-0.1h3.6 3.4l3.1-0.1c2.4 0.2 2.4 0.2 3.4 1.2q0.2 2.8 0.2 5.7v3.7 4 4.1q0 4.3 0 8.5 0 5.6 0 11.1 0 4.2 0 8.4 0 2.1 0 4.1 0 2.8 0 5.7v3.2c-0.2 2.5-0.2 2.5-1.2 3.5q0 0.6 0 1.2-0.1 0.6-0.1 1.2-0.1 0.6-0.1 1.2 0 0.6-0.1 1.2c-0.4 6.2-2.3 11.5-4.7 17.2h-2l-0.6 2.1c-1.7 3.7-4.2 6.3-7.4 8.9h-2v2c-11.8 6.6-27.2 7.3-40.4 4.4-3.7-1.1-7.2-2.5-10.6-4.4v-2l-1.8-0.8c-2.5-1.4-3.1-2.6-4.2-5.2h-2q-1.4-2.4-2.8-4.8l-1.6-2.8c-4.2-9.5-3.8-19.9-3.8-30.1v-4.5q0-4.6 0-9.2 0.1-6 0.1-11.9 0-4.6 0-9.2v-4.4q0-3 0-6v-3.5c0.3-4.7 2.4-3.8 6.5-3.8zm-339.6 0h3.8 4.1 4.1q4.4 0 8.8 0 5.6 0 11.2 0 4.3 0 8.6 0 2 0 4.1 0 2.9 0 5.8 0h3.3c2.4 0.2 2.4 0.2 3.4 1.2q0.2 2.2 0.1 4.4v2.5 3.1l-0.1 10-38 1v15l-1 2h36v20l-35 1c0.1 6.1 0.1 6.1 0.1 12.3v2.3l0.1 2.4c-0.2 2-0.2 2-1.2 4h41v20h-66c0-25 0-25 0-35.5q0-10.9 0-21.7 0-8.8 0-17.5 0-3.4-0.1-6.7 0-4.7 0-9.3v-2.9c0-7.6 0-7.6 6.9-7.6zm-514.8 0.2l31.5-0.1h9.9 7.8 2q3-0.1 6-0.1h3.3c2.5 0.2 2.5 0.2 3.5 1.2q0.2 2.2 0.1 4.4v2.5 3.1l-0.1 10h-39l1 2q0.2 3.5 0.2 7v3.8c-0.2 3.2-0.2 3.2-1.2 5.2h36v20h-36l1 2q0.2 2 0.2 4v2.4 2.6 2.5 4.6c-0.2 1.9-0.2 1.9-1.2 3.9h41v20h-66zm379.4-1.4h3.5c7.8 0 14.7 1.1 22.1 3.4-0.4 7.5-0.9 14.9-4 22l-2 1q-0.6-0.3-1.2-0.6-0.6-0.2-1.2-0.5-0.6-0.3-1.2-0.6-0.6-0.2-1.2-0.5c-7.2-2.8-15.8-4.4-23-1.4-2.9 1.3-2.9 1.3-4.2 2.6-0.6 4.1-0.6 4.1 0 8 4 3.2 8 4.8 12.8 6.3 9.6 3.3 20.8 8.6 26.2 17.7v3h2c3.1 8.6 3.2 17.1-0.6 25.5-5.2 9.1-12.4 14.9-22.4 17.8-5.5 1.2-11 1.2-16.6 1.2h-3.7c-9.7-0.2-17.8-1.7-26.7-5.5v-6h2l-0.1-3c0-4.5 1-8.7 2.1-13 3.7 0.3 6.6 0.7 9.9 2.5 3.6 1.7 6.4 2 10.3 2.3 1.8 0.2 1.8 0.2 2.8 1.2 5.6 0.4 10.2-0.3 15-3 2.3-2.2 2.3-2.2 3-5-0.3-3.2-0.3-3.2-2-6-2.5-1.8-2.5-1.8-5-3v-2l-2.1-0.4c-8.5-1.9-16.9-5.4-23.9-10.6v-2h-2v-2h-2v-2h-2c-1.4-2.7-2-3.9-2-7h-2q0-4.3-0.1-8.7 0-1.2 0-2.4c-0.1-4.7 0.3-8.5 2.1-12.9h2l0.6-2.2c2-3.9 4.8-6.5 8.4-8.8h3v-2c7.9-3 15.1-3.5 23.4-3.4zm-854.8 0.1q3.1 0 6.1 0c7.6-0.1 14.2 0.5 21.3 3.3-1.3 18.3-1.3 18.3-4 21q-3 0-6 0v-2c-1.9 0-1.9 0-3.8 0-3.9 0.1-3.9 0.1-6.2-1-10.1-0.6-18.1 1.3-26 8-2.4 2.7-3.8 5.5-5 9h-2v28h2l1.1 3.1c2.5 5.7 7.3 9.4 12.9 11.9 5.7 1.7 11.1 2.3 17 2l1-1c2.4-0.4 4.7-0.5 7-0.8 2 0 2 0 3-1.2 2.5-0.2 2.5-0.2 5 0 1.9 1.8 1.7 4.7 2.1 7.2l0.5 3.4c0.4 3.1 0.5 6.2 0.4 9.4l-1.8 0.6-2.5 0.8-2.5 0.8c-2.2 0.7-2.2 0.7-4.2 1.8-4.1 0.2-8.2 0.2-12.3 0.2q-3.1 0-6.1 0.1c-15.1 0-26.5-3.4-37.6-14-2.4-2.5-4-4.9-5-8.3h-2q-0.9-2.4-1.9-4.8l-1.1-2.7c-2.5-6.8-2.2-13.5-2.2-20.7l-0.1-3.8c0-15.7 4.7-25.5 15.2-37 10.8-10.4 23.2-13.2 37.7-13.3zm1199.6 0h3.8c7.8-0.1 14.6 0.7 22 3.3 0.4 4.6-0.5 7.7-2.2 11.9-1.1 3-1.4 5.9-1.8 9.1q-3 0-6 0l-1-1q-0.4-0.1-0.9-0.2-0.5-0.1-1-0.1-0.5-0.1-1-0.1-0.5-0.1-1.1-0.1c-3.8-0.4-3.8-0.4-5-1.5-8.9-1.1-16.1 1.9-24 6h-2v2h-2l-3 9h-2l0.1 2.9c-0.1 3.1-0.1 3.1-1.1 4.1q-0.1 3.5-0.1 7v3.8c-0.2 3-0.2 3 1.1 4.2q0.1 3 0 6h2l0.6 1.9 0.7 2.4 0.7 2.5c1.3 2.7 2.3 3.1 5 4.2l3.2 2c6.2 3.5 12.9 4.4 19.8 4l2-1c2.4-0.3 4.7-0.5 7.1-0.8 1.9 0 1.9 0 2.9-1.2q0.7-0.1 1.3-0.1 0.6 0 1.2 0 0.7 0 1.3 0 0.6 0 1.2 0.1l0.2 1.9 0.3 2.5 0.2 2.5c0.1 2 0.1 2 1.3 3.1q0.2 2.7 0.1 5.5v3.1l-0.1 2.4c-7.8 3.1-15.3 3.4-23.6 3.3q-3.2 0-6.3 0c-6.1 0-11.3-0.2-17.1-2.3l-3.8-1.2c-7.4-2.8-16.1-9.4-19.5-16.6l-0.7-2.2h-2q-0.2-0.5-0.4-0.9-0.3-0.5-0.5-0.9-0.2-0.5-0.5-0.9-0.2-0.5-0.4-0.9l-1.1-2c-3.4-7.7-3.4-14.6-3.3-22.9v-3.7c0-6 0.2-11.2 2.2-16.8h2l-0.2-2.2c0.6-7.3 7.3-14.3 12.6-19.1 3.2-2.7 3.2-2.7 6.6-2.7v-2q3.1-1.5 6.2-3l3.5-1.6c7.3-3.1 14.7-2.7 22.5-2.7zm-1081.2 1.3q6.7-0.2 13.4-0.2l3.8-0.1h3.7l3.3-0.1c2.8 0.4 2.8 0.4 4.7 1.7 2.5 3.6 3.1 6.3 3.1 10.7h2l0.8 2.4 1.1 3.2 1 3.2c1.1 3 2.5 5.5 4.1 8.2 1.2 2.9 2.1 5.9 3 9l4-10h2l0.5-2.3q0.7-3.4 1.5-6.7h2l0.3-2.9c0.7-5 2.8-9.5 4.7-14.1h2v-2h27c1 4 1 4 0 6l-1.6 2.2c-3 4.1-5.2 8.2-7.4 12.8h-2l-0.3 1.6c-0.8 2.8-2 5-3.4 7.5-2.9 5.2-5.6 10.5-8.3 15.9h-2v4h-2l-0.3 1.7c-0.7 2.3-0.7 2.3-2.2 4.3-2.1 4.2-1.9 8-2 12.6v2.8q-0.1 4.5-0.1 8.9-0.1 3-0.1 6-0.2 7.3-0.3 14.7h-26l-0.1-9.3q0-1.1 0-2.2 0-1.1 0-2.2-0.1-1.1-0.1-2.2 0-1.1 0-2.2-0.1-3.1-0.1-6.2-0.1-4.4-0.1-8.8l-0.1-2.8c-0.1-5-0.5-8-3.5-12.1v-3h-2q-0.3-0.6-0.6-1.2-0.3-0.6-0.6-1.2-0.3-0.6-0.6-1.2-0.3-0.6-0.7-1.2l-1.4-2.8c-1.1-2.4-1.1-2.4-1.1-5.4h-2l-1.6-3.4-2.2-4.3-1-2.2c-1.6-3.1-3.1-6.1-4.9-9-1.3-2.1-1.3-2.1-1.3-5.1h-2q-0.2-0.5-0.5-1-0.2-0.4-0.5-0.9-0.2-0.4-0.5-0.9-0.2-0.5-0.5-0.9l-1.1-2.1c-1-2.6-0.9-4.5-0.9-7.2zm1858 0q6.7-0.2 13.4-0.2l3.8-0.1h3.7l3.3-0.1c2.8 0.4 2.8 0.4 4.7 1.7 1.6 2.3 1.4 4 1.1 6.7h2l0.7 1.8c2.3 6.6 5 12.8 8.1 19 1.6 3.4 2.2 5.3 2.2 9.2 3-1.5 3.2-3.7 4.4-6.8l1.3-3.5 1.3-3.7q0.4-0.9 0.7-1.8 0.4-0.9 0.7-1.7 0.3-0.9 0.7-1.8 0.3-0.9 0.6-1.7l1.2-3.2q0.4-0.9 0.8-1.9 0.4-1 0.8-2 0.4-1 0.8-2 0.4-1 0.7-1.9h2l0.5-2.5c0.5-2.5 0.5-2.5 1.5-3.5q3-0.2 6.1-0.1h3.6 3.9 3.9q4.8 0 9.5 0.1v5h-2l-0.3 1.6c-0.9 3.1-2.3 5.7-3.7 8.6l-1.7 3.3-1.3 2.5h-2l-0.3 1.6c-0.8 2.8-2 5.1-3.5 7.7l-1.6 2.9q-0.5 0.8-0.9 1.6-0.5 0.9-1 1.7-0.4 0.8-0.9 1.6-0.5 0.8-0.9 1.6c-1.9 3.4-3.4 6.7-4.9 10.3h-2l-0.8 2.2c-1.2 2.8-1.2 2.8-2.2 4.7-1 2.3-1.2 3.9-1.3 6.4v2.5l-0.1 2.7v2.8q-0.1 4.5-0.2 8.9l-0.1 6q-0.1 7.4-0.3 14.8h-26l0.1-8.9q0-4.3 0-8.6 0-3 0.1-6c0.1-12.6-0.9-21.7-8.1-32.3-1.9-3-2.7-4.8-3.1-8.2h-2q-0.2-0.5-0.5-1-0.2-0.5-0.5-0.9-0.2-0.5-0.5-1-0.2-0.5-0.5-0.9l-1.1-2.2c-0.9-2-0.9-2-0.9-5h-2q-0.3-0.6-0.6-1.2-0.3-0.6-0.6-1.2-0.3-0.6-0.6-1.2-0.3-0.6-0.7-1.2l-1.4-2.8c-1.1-2.4-1.1-2.4-1.1-5.4h-2q-0.2-0.5-0.5-1-0.2-0.4-0.5-0.9-0.2-0.4-0.5-0.9-0.2-0.5-0.5-0.9l-1.1-2.1c-1-2.6-0.9-4.5-0.9-7.2zm-168 0h79v22h-27v79h-26v-79h-26zm-122 0q6-0.1 12-0.1h3.4 3.3l3-0.1c2.3 0.2 2.3 0.2 3.3 1.2q0.2 4.6 0.2 9.3v2.9q0 4.9-0.1 9.7v6.8q0 8.8 0 17.7 0 9 0 18.1 0 17.7-0.1 35.5-6.2 0-12.4 0l-3.6 0.1h-3.4-3.1c-2.5-0.1-2.5-0.1-3.5-1.1q0-1.2 0-2.3 0-1.1-0.1-2.3 0-1.1 0-2.2 0-1.2 0-2.3v-2.9q0-4.8 0-9.5v-6.6q0-6.9 0-13.8 0-8.8 0-17.7 0-6.8 0-13.6 0-3.2 0-6.5 0-4.6 0-9.1v-2.8c0-6.2 0-6.2 1.1-8.4z"/></svg>