<?xml version="1.0" encoding="UTF-8"?>
<svg version="1.1" xmlns="http://www.w3.org/2000/svg" width="2100" height="800">
<path d="M0 0 C1.39919678 0.80969238 1.39919678 0.80969238 2.82666016 1.63574219 C7.80446265 4.51998171 12.77231847 7.42079532 17.734375 10.33203125 C24.09771035 14.06325971 30.48349555 17.75478058 36.875 21.4375 C37.95475098 22.05979492 39.03450195 22.68208984 40.14697266 23.32324219 C42.33714534 24.58528726 44.52741243 25.84716852 46.71777344 27.10888672 C52.14659942 30.23680148 57.57319281 33.36858448 63 36.5 C65.16665583 37.75001879 67.3333225 39.00001878 69.5 40.25 C73.83333333 42.75 78.16666667 45.25 82.5 47.75 C83.5737085 48.36939453 84.64741699 48.98878906 85.75366211 49.62695312 C87.90830624 50.870123 90.06276757 52.11360975 92.21704102 53.35742188 C97.22754121 56.24983147 102.23962635 59.13935227 107.25863647 62.01696777 C109.01728749 63.02548314 110.77533209 64.0350477 112.53320312 65.04492188 C114.72472231 66.30350518 116.91734504 67.56016987 119.11132812 68.81445312 C135.80327119 78.40937223 150.38544445 87.51498721 156.45703125 106.796875 C160.512496 123.25214206 157.2672639 137.55359556 149 152 C142.03173375 162.45239938 129.84356982 168.39040099 119.0703125 174.22265625 C113.5176655 177.23698153 108.07221133 180.42509876 102.625 183.625 C93.78303278 188.80888413 84.90577616 193.92688277 76 199 C66.27856294 204.53951839 56.59104683 210.13375194 46.93310547 215.78344727 C37.52219724 221.28677934 28.0804976 226.73588272 18.6328125 232.17578125 C14.65317915 234.46771358 10.67720686 236.76570706 6.70651245 239.07307434 C4.94272964 240.09789083 3.17825106 241.12149926 1.41357422 242.14477539 C-0.79188817 243.42417071 -2.99608202 244.70575641 -5.19873047 245.98999023 C-21.52583606 255.44946948 -35.41319228 261.01790776 -54.55078125 257.3125 C-68.46232273 252.98205907 -79.67394604 244.56048095 -87 232 C-92.30918176 220.90909451 -92.71549113 210.91365467 -92.63110352 198.8684082 C-92.63625289 196.9827304 -92.64354179 195.09705743 -92.65278625 193.21139526 C-92.67117497 188.130885 -92.65844291 183.05090491 -92.63869596 177.97041726 C-92.62221123 172.63312007 -92.6311356 167.29585388 -92.63621521 161.95854187 C-92.64072406 153.00214243 -92.62493852 144.04595266 -92.59692383 135.08959961 C-92.56484814 124.75567621 -92.56490309 114.42213017 -92.5821386 104.08817989 C-92.59803453 94.11528466 -92.59125228 84.14252693 -92.57420158 74.16963768 C-92.56735454 69.93903093 -92.56833926 65.70853517 -92.57574654 61.47793007 C-92.58344142 56.49297223 -92.57117908 51.508441 -92.54389763 46.52355576 C-92.53704734 44.70114978 -92.53687952 42.8787037 -92.54411316 41.05629921 C-92.60142946 24.727717 -89.38771912 11.61632821 -77.875 -0.6875 C-53.17651796 -24.10132946 -25.94548354 -15.06983054 0 0 Z " fill="#0A8B6F" transform="translate(291,215)"/>
<path d="M0 0 C1.13838318 -0.03197479 2.27676636 -0.06394958 3.449646 -0.09689331 C4.68088196 -0.10761871 5.91211792 -0.11834412 7.18066406 -0.12939453 C8.44718811 -0.14745148 9.71371216 -0.16550842 11.01861572 -0.18411255 C13.70244139 -0.21316382 16.38456241 -0.23249007 19.06835938 -0.23828125 C22.49427401 -0.24902779 25.91544536 -0.32425629 29.34002304 -0.41576958 C32.61995146 -0.48989073 35.90001107 -0.492353 39.18066406 -0.50439453 C40.4038031 -0.54345917 41.62694214 -0.5825238 42.887146 -0.62277222 C51.23005449 -0.53466398 51.23005449 -0.53466398 54.73849487 2.77537537 C56.54110056 5.31766453 58.02481092 7.84262995 59.44628906 10.61279297 C60.24339007 11.93640184 61.04643121 13.25649101 61.86035156 14.56982422 C62.60082515 15.85297025 63.33770588 17.13819523 64.07128906 18.42529297 C67.78003866 24.82584228 71.5978154 31.14634463 75.50878906 37.42529297 C80.64831569 45.68324447 85.72006512 53.98057262 90.75878906 62.30029297 C96.34985098 71.52984255 101.97059691 80.73974551 107.63378906 89.92529297 C112.80162997 98.30783023 117.95164244 106.70072059 123.07128906 115.11279297 C123.6271167 116.02585205 124.18294434 116.93891113 124.75561523 117.87963867 C127.36750504 122.17556757 129.96711582 126.47846781 132.55331421 130.78991699 C133.09473745 131.69246971 133.6361607 132.59502243 134.19399071 133.52492523 C134.60724916 134.21392159 135.02050762 134.90291794 135.44628906 135.61279297 C135.44959921 134.94649494 135.45290936 134.28019691 135.45631981 133.59370804 C135.53751822 117.38584584 135.62960025 101.17808582 135.73381615 84.97035599 C135.78395122 77.13243819 135.83039402 69.29453091 135.86816406 61.45654297 C135.90109139 54.62544867 135.94092667 47.79443569 135.98907912 40.96343112 C136.0143368 37.34601868 136.0361202 33.72866013 136.04963303 30.11118317 C136.06484238 26.07416588 136.09547307 22.03740764 136.12744141 18.00048828 C136.13068169 16.19866592 136.13068169 16.19866592 136.13398743 14.36044312 C136.14515091 13.26110443 136.15631439 12.16176575 136.16781616 11.02911377 C136.17334692 10.07413624 136.17887768 9.11915871 136.18457603 8.13524246 C136.46019702 5.47874494 137.00831711 3.85100623 138.44628906 1.61279297 C141.69811216 -0.01311858 145.27538944 0.44972445 148.84863281 0.44482422 C150.09889 0.43983162 150.09889 0.43983162 151.37440491 0.43473816 C153.13883919 0.42967136 154.90328306 0.42732976 156.66772461 0.42749023 C159.36946376 0.42530456 162.07079412 0.40714871 164.77246094 0.38818359 C166.48535016 0.38524948 168.19824133 0.38326481 169.91113281 0.38232422 C170.72057846 0.3751387 171.53002411 0.36795319 172.36399841 0.36054993 C176.24874479 0.37639905 178.13899005 0.40792696 181.44628906 2.61279297 C181.75175799 5.24299433 181.85929115 7.64016213 181.84069824 10.27403259 C181.84678935 11.07400101 181.85288045 11.87396942 181.85915613 12.6981793 C181.87587955 15.39373616 181.87099715 18.08882545 181.86621094 20.78442383 C181.87354586 22.71086624 181.88213039 24.63730424 181.89187622 26.56373596 C181.91416169 31.80749204 181.9170194 37.05109132 181.91512871 42.29488826 C181.91500933 46.66641254 181.92356003 51.0379032 181.93190622 55.40941817 C181.95116562 65.71933852 181.95401489 76.02917791 181.94726562 86.33911133 C181.94062246 96.98879418 181.96349458 107.63813088 182.00057936 118.28774351 C182.03122755 127.41898572 182.0426417 136.5501163 182.03874254 145.68140894 C182.03666999 151.14048936 182.04223206 156.59930053 182.06663513 162.05833244 C182.08881922 167.19086706 182.0870942 172.32283709 182.06670761 177.45537376 C182.06328273 179.34242436 182.06844977 181.22951234 182.08269119 183.1165123 C182.10075363 185.68653246 182.08823365 188.2546106 182.06774902 190.8245697 C182.08026687 191.5770928 182.09278472 192.32961591 182.1056819 193.10494274 C182.06990814 195.18823147 182.06990814 195.18823147 181.44628906 198.61279297 C178.11271822 201.35891883 175.53932952 201.99066696 171.27636719 202.0168457 C170.27182495 202.02952988 169.26728271 202.04221405 168.2322998 202.05528259 C167.15822876 202.05234695 166.08415771 202.04941132 164.97753906 202.04638672 C163.86447388 202.05162857 162.75140869 202.05687042 161.60461426 202.06227112 C159.25448439 202.06868622 156.90432239 202.06736099 154.55419922 202.05883789 C150.95905439 202.0503232 147.36549594 202.07910634 143.77050781 202.11083984 C141.48535204 202.11245184 139.20019345 202.11187435 136.91503906 202.10888672 C135.84096802 202.1201207 134.76689697 202.13135468 133.66027832 202.14292908 C126.24862057 202.07371507 126.24862057 202.07371507 122.41577148 199.87182617 C120.47476309 197.64545321 118.92650084 195.53799756 117.46582031 192.97216797 C116.94721436 192.07530273 116.4286084 191.1784375 115.89428711 190.25439453 C115.35457275 189.30016602 114.8148584 188.3459375 114.25878906 187.36279297 C113.09628989 185.35147192 111.93221822 183.34105895 110.76660156 181.33154297 C110.19844727 180.34798828 109.63029297 179.36443359 109.04492188 178.35107422 C106.97732383 174.80950739 104.8265711 171.32780894 102.63378906 167.86279297 C92.49334634 151.78339937 82.60622374 135.5445301 72.73632812 119.2980957 C67.74104222 111.08157045 62.70460713 102.89070034 57.65332031 94.70849609 C53.13259231 87.3779766 48.64918818 80.02517662 44.17285156 72.66748047 C43.52485596 71.60263428 42.87686035 70.53778809 42.20922852 69.44067383 C40.62145518 66.83145736 39.03381213 64.22216171 37.44628906 61.61279297 C37.44297892 62.31093518 37.43966877 63.0090774 37.43625832 63.72837543 C37.35509245 80.70364069 37.2630212 97.67881153 37.15876198 114.65395069 C37.10860722 122.86295006 37.06216468 131.0719393 37.02441406 139.28100586 C36.99150718 146.43474041 36.95168327 153.58839701 36.90349901 160.74204558 C36.87822096 164.53101282 36.8564436 168.31992825 36.8429451 172.10895729 C36.83013648 175.67368779 36.80809529 179.23824075 36.77890587 182.80287361 C36.76548144 184.73814608 36.76190626 186.67347897 36.7585907 188.60879517 C36.74742722 189.75724411 36.73626373 190.90569305 36.72476196 192.08894348 C36.7192312 193.08908887 36.71370045 194.08923426 36.70800209 195.11968708 C36.44628906 197.61279297 36.44628906 197.61279297 34.44628906 200.61279297 C30.87850929 201.80205289 27.60683418 201.79375879 23.89160156 201.81591797 C23.15303925 201.82161804 22.41447693 201.82731812 21.65353394 201.83319092 C20.09179105 201.84262942 18.53002836 201.84917034 16.96826172 201.85302734 C14.58688381 201.86272943 12.20637063 201.89376075 9.82519531 201.92529297 C8.30566917 201.93182391 6.78613688 201.93707403 5.26660156 201.94091797 C4.55811066 201.95326477 3.84961975 201.96561157 3.11965942 201.97833252 C-1.69392468 201.956792 -5.09247015 201.07403376 -8.55371094 197.61279297 C-8.65807867 195.13039231 -8.69703968 192.67557131 -8.69415283 190.19242859 C-8.69712395 189.40627082 -8.70009508 188.62011305 -8.70315623 187.81013232 C-8.71188154 185.15539342 -8.7133547 182.50069941 -8.71484375 179.84594727 C-8.71946925 177.95083519 -8.72449354 176.05572405 -8.72988892 174.16061401 C-8.74304145 168.99734654 -8.7494635 163.83409208 -8.75389957 158.67081046 C-8.75682591 155.44805267 -8.76092988 152.22529848 -8.76540375 149.0025425 C-8.77908663 138.92823384 -8.78874922 128.85393336 -8.79260564 118.77961606 C-8.7970875 107.1338805 -8.81463803 95.48826225 -8.84360623 83.84256238 C-8.86519591 74.8523181 -8.87530848 65.86210689 -8.87664676 56.87183696 C-8.8776968 51.49716587 -8.88364675 46.12260493 -8.90146637 40.74796104 C-8.91790004 35.69271821 -8.92012551 30.63766887 -8.91132736 25.58240891 C-8.91055444 23.72480439 -8.91493314 21.86718968 -8.92478561 20.00961113 C-8.93742992 17.47754397 -8.93166961 14.9461699 -8.92120361 12.41410828 C-8.92926002 11.67548874 -8.93731642 10.93686921 -8.94561696 10.17586726 C-8.91534334 7.05360061 -8.72029 4.91202188 -7.18796539 2.15948009 C-4.84690806 -0.05613769 -3.19000508 0.06770678 0 0 Z " fill="#EFEFEF" transform="translate(1566.5537109375,300.38720703125)"/>
<path d="M0 0 C9.22338906 7.64829471 14.11262806 16.24448574 16 28 C16.28468036 32.18968949 16.29385323 36.36716 16.29052734 40.56542969 C16.29724457 41.79431915 16.30396179 43.02320862 16.31088257 44.28933716 C16.3265485 47.63675405 16.33323307 50.98392269 16.33451414 54.33135891 C16.33594297 56.42991364 16.34022634 58.52844291 16.34550858 60.62699127 C16.36397173 67.96879204 16.37218397 75.31052054 16.37060547 82.65234375 C16.36940545 89.46260388 16.39048967 96.2725464 16.4220928 103.08272624 C16.44836907 108.9573872 16.45896802 114.83194515 16.45769465 120.70666432 C16.45718829 124.20306302 16.46268857 127.6991791 16.48405075 131.19551849 C16.50727543 135.10279892 16.49784322 139.00965434 16.48583984 142.91699219 C16.49707886 144.05300873 16.50831787 145.18902527 16.51989746 146.35946655 C16.4209729 159.11717168 12.93519715 170.47035738 4.22265625 179.9296875 C-3.8366586 187.60993437 -13.56786764 191.07484583 -24.5625 191.3125 C-25.67753906 191.34988281 -26.79257812 191.38726563 -27.94140625 191.42578125 C-38.33940245 190.83838473 -47.54305403 185.34688933 -56.25 180.125 C-57.96664362 179.11528915 -59.68329128 178.10558507 -61.40023804 177.09638977 C-63.14515492 176.06834024 -64.88696746 175.03521864 -66.62792969 174.00048828 C-71.69480043 170.99455584 -76.78509244 168.02919386 -81.875 165.0625 C-82.84598633 164.4948291 -83.81697266 163.9271582 -84.81738281 163.34228516 C-91.92604192 159.19072599 -99.06471618 155.09337133 -106.2164917 151.01675415 C-115.90729983 145.49215447 -125.59372826 139.95978403 -135.25 134.375 C-136.219375 133.81941406 -137.18875 133.26382813 -138.1875 132.69140625 C-150.84112987 125.34586687 -161.55674691 117.53470925 -166 103 C-166.19078125 102.38769531 -166.3815625 101.77539062 -166.578125 101.14453125 C-168.7045188 90.33536278 -167.27019826 78.8492289 -161.421875 69.46875 C-155.20524539 61.06789918 -147.64718986 55.95437094 -138.5625 51 C-136.49394024 49.85179296 -134.42625828 48.70200337 -132.359375 47.55078125 C-131.30298828 46.96377441 -130.24660156 46.37676758 -129.15820312 45.77197266 C-124.17207344 42.97440546 -119.24249042 40.08250565 -114.3125 37.1875 C-104.98736111 31.72291201 -95.61928371 26.33741311 -86.22647095 20.99038696 C-79.90177045 17.3893869 -73.58870885 13.77117006 -67.3125 10.0859375 C-66.24773437 9.46074219 -65.18296875 8.83554687 -64.0859375 8.19140625 C-62.10988648 7.02828761 -60.13574149 5.86192091 -58.1640625 4.69140625 C-39.24248159 -6.4500977 -19.92077765 -14.44526553 0 0 Z " fill="#28B34B" transform="translate(584,409)"/>
<path d="M0 0 C1.00344452 -0.00744736 1.00344452 -0.00744736 2.02716064 -0.01504517 C4.24744707 -0.02967633 6.46766147 -0.03647909 8.68798828 -0.04199219 C9.4533704 -0.04481956 10.21875252 -0.04764694 11.00732803 -0.05056 C15.07748001 -0.06557549 19.1475965 -0.07478321 23.21777344 -0.07910156 C26.54601235 -0.08344778 29.8739864 -0.09718369 33.20214844 -0.12011719 C71.97722497 -0.3821927 111.32261751 2.18789586 140.91064453 30.58691406 C157.25395658 47.58496588 165.30610951 69.72406208 166.38330078 93.16113281 C166.43615234 94.16917969 166.48900391 95.17722656 166.54345703 96.21582031 C167.24477589 122.13412592 160.15156898 146.78683535 142.44580078 166.09863281 C123.02383009 186.47888427 96.49357254 197.80257833 68.62158203 200.28222656 C67.69295853 200.36498337 66.76433502 200.44774017 65.80757141 200.53300476 C53.89198146 201.48791097 41.95756558 201.49696858 30.01049805 201.47680664 C27.36028013 201.47467162 24.71131248 201.47935004 22.0612793 201.49731445 C18.17238708 201.52183278 14.2839794 201.52597165 10.39501953 201.52441406 C8.63239021 201.53822868 8.63239021 201.53822868 6.83415222 201.55232239 C-0.50054852 201.51114631 -7.70277723 201.13802007 -13.73779297 196.54785156 C-14.17220703 195.98710937 -14.60662109 195.42636719 -15.05419922 194.84863281 C-15.73289062 194.01912109 -15.73289062 194.01912109 -16.42529297 193.17285156 C-19.31999295 188.28507946 -19.86810529 183.64091765 -19.87739563 178.0395813 C-19.88122118 177.34589538 -19.88504672 176.65220945 -19.8889882 175.93750274 C-19.89926313 173.62541183 -19.89533662 171.31357182 -19.89135742 169.00146484 C-19.89570697 167.3387021 -19.90089093 165.67594136 -19.90684509 164.01318359 C-19.92022075 159.50485842 -19.92081532 154.99661715 -19.91828179 150.488276 C-19.91721103 146.72096454 -19.9220982 142.95366998 -19.92688721 139.18636215 C-19.93797762 130.2962663 -19.93842254 121.4062127 -19.93237305 112.51611328 C-19.92633394 103.35364679 -19.93864375 94.19133388 -19.95994312 85.02889359 C-19.97757347 77.15439283 -19.98355818 69.2799409 -19.98030537 61.40542114 C-19.97849453 56.7058678 -19.98110875 52.006424 -19.99501991 47.30688858 C-20.00761683 42.88600467 -20.00563655 38.46535971 -19.99260902 34.04447937 C-19.99024769 32.42560113 -19.99296203 30.80670598 -20.00123215 29.18784714 C-20.08591961 11.31631269 -20.08591961 11.31631269 -14.89794922 5.10253906 C-14.31013672 4.6475 -13.72232422 4.19246094 -13.11669922 3.72363281 C-12.23498047 3.01400391 -12.23498047 3.01400391 -11.33544922 2.29003906 C-7.65562807 -0.12693437 -4.27614319 0.02414874 0 0 Z M25.38330078 41.16113281 C25.38330078 80.10113281 25.38330078 119.04113281 25.38330078 159.16113281 C67.60547206 160.41145325 67.60547206 160.41145325 103.85595703 141.94628906 C115.62791883 129.82057883 119.94128682 113.65735058 119.73266602 97.05908203 C119.22302279 82.79943725 114.54709775 70.2551156 104.69580078 59.78613281 C82.76000841 39.43367583 53.97833015 41.16113281 25.38330078 41.16113281 Z " fill="#EFEFEF" transform="translate(720.61669921875,300.8388671875)"/>
<path d="M0 0 C1.65306404 -0.01475121 1.65306404 -0.01475121 3.33952332 -0.02980042 C5.15369499 -0.01529846 5.15369499 -0.01529846 7.0045166 -0.00050354 C8.27785355 -0.00590652 9.55119049 -0.01130951 10.8631134 -0.01687622 C14.35700024 -0.03085248 17.85039583 -0.0196464 21.34425545 -0.00316501 C24.99838789 0.01067259 28.65249144 0.0042269 32.30664062 0.0007019 C38.44348072 -0.00200126 44.58012535 0.0114843 50.71691895 0.03465271 C57.81464509 0.06126326 64.91204437 0.06301003 72.0098033 0.05126435 C78.83407751 0.04048973 85.65823335 0.0466711 92.48249817 0.06081963 C95.38835952 0.06658222 98.29413431 0.06649464 101.19999695 0.06175423 C105.25611204 0.05610125 109.31173784 0.07529066 113.36779785 0.09715271 C114.57724564 0.09265106 115.78669342 0.08814941 117.03279114 0.08351135 C118.13483383 0.09341599 119.23687653 0.10332062 120.37231445 0.11352539 C121.33169167 0.11595529 122.29106888 0.11838518 123.27951813 0.12088871 C125.68615723 0.50120544 125.68615723 0.50120544 127.49401093 1.80631924 C129.51064532 4.67338834 129.11230328 7.96533916 129.08459473 11.34495544 C129.08889999 12.49320801 129.08889999 12.49320801 129.09329224 13.66465759 C129.09533222 15.28189331 129.08980685 16.89915374 129.07727051 18.51634216 C129.0612148 20.99232636 129.07712019 23.46667829 129.09631348 25.94261169 C129.09433103 27.51422988 129.09048733 29.08584705 129.08459473 30.65745544 C129.09066742 31.3981427 129.09674011 32.13882996 129.10299683 32.90196228 C129.03258382 38.04578635 129.03258382 38.04578635 127.39561749 40.19777393 C124.42243971 42.46476644 120.76617092 41.88892702 117.17565918 41.84178162 C115.87290039 41.84243874 115.87290039 41.84243874 114.54382324 41.84310913 C111.67046703 41.84101756 108.79769287 41.81766918 105.92443848 41.79417419 C103.93332742 41.78857955 101.94221224 41.78430883 99.95109558 41.78131104 C94.70832942 41.76985192 89.46581225 41.74037549 84.22314453 41.7071991 C78.87426115 41.67652123 73.52533758 41.66281058 68.1763916 41.64768982 C57.67951976 41.61550683 47.18289815 41.56273012 36.68615723 41.50120544 C36.68615723 53.71120544 36.68615723 65.92120544 36.68615723 78.50120544 C42.71510254 78.46640076 48.74404785 78.43159607 54.95568848 78.39573669 C58.77015126 78.38041206 62.5845762 78.36597049 66.39904785 78.35472107 C72.45650086 78.3367723 78.51381812 78.31551587 84.57116699 78.27488708 C89.45353879 78.24234341 94.33576505 78.22436295 99.21823692 78.21657372 C101.08301778 78.21102122 102.94779047 78.20017882 104.81250954 78.18401527 C107.42006404 78.16230722 110.02701355 78.15923572 112.63464355 78.16062927 C113.40931976 78.14984344 114.18399597 78.13905762 114.98214722 78.12794495 C120.16458699 78.15800818 120.16458699 78.15800818 122.66511536 79.80337524 C124.43323913 82.74348381 124.11190563 86.01383997 124.08459473 89.34495544 C124.08889999 90.49320801 124.08889999 90.49320801 124.09329224 91.66465759 C124.09533222 93.28189331 124.08980685 94.89915374 124.07727051 96.51634216 C124.0612148 98.99232636 124.07712019 101.46667829 124.09631348 103.94261169 C124.09433103 105.51422988 124.09048733 107.08584705 124.08459473 108.65745544 C124.09066742 109.3981427 124.09674011 110.13882996 124.10299683 110.90196228 C124.03427361 115.92234328 124.03427361 115.92234328 122.66511536 118.19903564 C119.53983916 120.25549163 116.25123827 119.89213551 112.63464355 119.84178162 C111.81490555 119.8422197 110.99516754 119.84265778 110.15058899 119.84310913 C107.439547 119.84101816 104.7291225 119.81767281 102.01818848 119.79417419 C100.13917885 119.78857933 98.26016485 119.78430872 96.38114929 119.78131104 C91.43429494 119.76985362 86.48770459 119.7403787 81.54095459 119.7071991 C75.60637112 119.67112369 69.67169939 119.65734133 63.73703766 119.63983917 C54.71989386 119.6107419 45.70332942 119.55326096 36.68615723 119.50120544 C36.68615723 132.70120544 36.68615723 145.90120544 36.68615723 159.50120544 C39.51798584 159.485495 42.34981445 159.46978455 45.26745605 159.45359802 C54.61125482 159.40394626 63.95505933 159.37077412 73.29895496 159.34576893 C78.96560949 159.33009574 84.63212916 159.30882723 90.29870605 159.27488708 C95.76462319 159.24235272 101.23041039 159.22436489 106.69641685 159.21657372 C108.78448216 159.21101956 110.87254014 159.200174 112.96055031 159.18401527 C115.87941628 159.16231983 118.79774151 159.15923522 121.7166748 159.16062927 C122.5848584 159.14984344 123.45304199 159.13905762 124.34753418 159.12794495 C130.23354551 159.15847602 130.23354551 159.15847602 132.40748119 160.80463696 C134.54416691 163.63962687 134.11255948 166.93409035 134.08459473 170.34495544 C134.08889999 171.49320801 134.08889999 171.49320801 134.09329224 172.66465759 C134.09533222 174.28189331 134.08980685 175.89915374 134.07727051 177.51634216 C134.0612148 179.99232636 134.07712019 182.46667829 134.09631348 184.94261169 C134.09433103 186.51422988 134.09048733 188.08584705 134.08459473 189.65745544 C134.09066742 190.3981427 134.09674011 191.13882996 134.10299683 191.90196228 C134.03288556 197.02374348 134.03288556 197.02374348 132.28625488 199.42893982 C129.19152442 201.50279643 127.21037654 201.63014147 123.50602722 201.64164734 C121.85936066 201.65021255 121.85936066 201.65021255 120.1794281 201.65895081 C118.96952713 201.66006866 117.75962616 201.66118652 116.51306152 201.66233826 C115.24308319 201.66730316 113.97310486 201.67226807 112.66464233 201.67738342 C109.17486745 201.6905156 105.68511181 201.69695411 102.19531608 201.70139408 C100.01529223 201.70432384 97.83527365 201.70842849 95.65525246 201.71289825 C88.83528501 201.7265761 82.01532961 201.73624102 75.1953494 201.74010015 C67.32134329 201.74458005 59.44751085 201.76212344 51.57355756 201.79110074 C45.48856013 201.81271731 39.40361157 201.82280443 33.31857616 201.82414126 C29.68376387 201.82518943 26.04911476 201.83109938 22.41434288 201.84896088 C18.35860028 201.86850275 14.30322098 201.86415272 10.24743652 201.85765076 C8.44169411 201.87147293 8.44169411 201.87147293 6.59947205 201.88557434 C5.49323486 201.88000519 4.38699768 201.87443604 3.24723816 201.86869812 C2.28840571 201.87016468 1.32957327 201.87163124 0.3416853 201.87314224 C-2.83759761 201.42784764 -4.72674079 200.37242252 -7.31384277 198.50120544 C-8.82989802 195.46909495 -8.45818736 192.32483944 -8.45428467 188.99855042 C-8.45725579 188.21562178 -8.46022691 187.43269314 -8.46328807 186.62603939 C-8.47199756 183.988226 -8.47348521 181.35045787 -8.47497559 178.71263123 C-8.47960214 176.82722374 -8.48462658 174.94181719 -8.49002075 173.05641174 C-8.50316176 167.92419423 -8.50959293 162.79198981 -8.51403141 157.65975809 C-8.51695918 154.4559235 -8.5210634 151.25209252 -8.52553558 148.04825974 C-8.53921451 138.03161959 -8.54887944 128.01498766 -8.55273747 117.99833882 C-8.55722044 106.42166363 -8.57477775 94.84510638 -8.60373807 83.26846707 C-8.62532735 74.32915761 -8.63544027 65.38988141 -8.63677859 56.45054615 C-8.63782853 51.10718882 -8.64377637 45.7639423 -8.66159821 40.42061234 C-8.67803151 35.3957246 -8.68025753 30.37103152 -8.6714592 25.34612656 C-8.67068629 23.49980906 -8.67506472 21.65348131 -8.68491745 19.80718994 C-8.69756221 17.2905016 -8.69180126 14.77451053 -8.68133545 12.25782776 C-8.68939185 11.52378129 -8.69744826 10.78973482 -8.7057488 10.03344452 C-8.67638056 7.02282771 -8.44557134 4.77260016 -7.12298965 2.04774189 C-4.67095275 -0.04836456 -3.20737732 0.00069967 0 0 Z " fill="#EFEFEF" transform="translate(1365.3138427734375,300.49879455566406)"/>
<path d="M0 0 C1.65306404 -0.01485695 1.65306404 -0.01485695 3.33952332 -0.03001404 C5.15369499 -0.02326157 5.15369499 -0.02326157 7.0045166 -0.01637268 C8.91452202 -0.02666756 8.91452202 -0.02666756 10.8631134 -0.03717041 C14.3569002 -0.05513457 17.85043631 -0.05392758 21.34425545 -0.04822803 C24.25943171 -0.04514122 27.17455946 -0.05122285 30.08972883 -0.05726677 C36.96549979 -0.07132071 43.84114652 -0.0697432 50.71691895 -0.05836487 C57.81468953 -0.04687887 64.91208248 -0.06096512 72.0098033 -0.08776134 C78.10075785 -0.10989726 84.19159368 -0.11656064 90.28258562 -0.11068493 C93.92181471 -0.1073095 97.56080162 -0.10976899 101.19999695 -0.12693596 C105.25617507 -0.14523449 109.3116151 -0.13124 113.36779785 -0.11402893 C114.57724564 -0.1236969 115.78669342 -0.13336487 117.03279114 -0.14332581 C118.13483383 -0.13349167 119.23687653 -0.12365753 120.37231445 -0.11352539 C121.81138027 -0.11321146 121.81138027 -0.11321146 123.27951813 -0.1128912 C125.68615723 0.38768005 125.68615723 0.38768005 127.49401093 2.20526028 C129.21174267 5.34985061 129.11539829 8.36331588 129.08459473 11.85643005 C129.08889999 12.93241455 129.08889999 12.93241455 129.09329224 14.03013611 C129.09532892 15.54304293 129.08982667 17.05597631 129.07727051 18.5688324 C129.0612096 20.88014289 129.07713089 23.18970497 129.09631348 25.5009613 C129.09433097 26.9736214 129.09048714 28.44628041 129.08459473 29.91893005 C129.09066742 30.60757141 129.09674011 31.29621277 129.10299683 32.00572205 C129.0624944 34.77886555 128.84628086 37.03505598 127.69380188 39.57304382 C124.57020044 42.39635239 121.17408146 41.9117836 117.17565918 41.84178162 C115.87290039 41.84265778 115.87290039 41.84265778 114.54382324 41.84355164 C111.67028978 41.84076271 108.79779093 41.80963277 105.92443848 41.77830505 C103.93332994 41.77084554 101.94221407 41.76515124 99.95109558 41.76115417 C94.70823935 41.7458751 89.46582576 41.70657357 84.22314453 41.66233826 C78.8742878 41.62143464 73.52535962 41.60315365 68.1763916 41.58299255 C57.67942095 41.5400815 47.18289513 41.46971293 36.68615723 41.38768005 C36.68615723 53.59768005 36.68615723 65.80768005 36.68615723 78.38768005 C45.7295752 78.31807068 45.7295752 78.31807068 54.95568848 78.24705505 C58.77015877 78.22662216 62.5845618 78.20736684 66.39904785 78.19236755 C72.45656305 78.16843561 78.51383692 78.14009378 84.57116699 78.08592224 C89.45355057 78.04253057 94.33567544 78.01855692 99.21823692 78.00817108 C101.08303591 78.00076768 102.94782039 77.98631088 104.81250954 77.96475983 C107.42020127 77.93581423 110.0268176 77.93172028 112.63464355 77.93357849 C113.40931976 77.91919739 114.18399597 77.90481628 114.98214722 77.88999939 C120.1886498 77.93026982 120.1886498 77.93026982 122.66610718 80.20805359 C124.15937371 83.3988414 124.05752468 86.12695508 124.04943848 89.63768005 C124.05018623 90.68037048 124.05018623 90.68037048 124.0509491 91.74412537 C124.04861448 93.20997484 124.03892202 94.67582877 124.02233887 96.1415863 C123.99873574 98.38023372 124.00178335 100.61768967 124.00842285 102.85643005 C123.96065862 115.07858422 123.96065862 115.07858422 121.68615723 118.38768005 C118.56856612 119.94647561 115.26101237 119.51720138 111.83996582 119.50120544 C111.03012741 119.50135147 110.220289 119.5014975 109.38591003 119.50164795 C106.70211126 119.50094982 104.01838141 119.4931621 101.33459473 119.4853363 C99.47657306 119.48347177 97.6185509 119.48204803 95.76052856 119.48104858 C90.86473234 119.4772262 85.96896568 119.46739828 81.07318115 119.4563446 C75.20198172 119.44432833 69.33077241 119.43972691 63.45956421 119.4338913 C54.53507464 119.4241864 45.61064996 119.40502788 36.68615723 119.38768005 C36.68615723 132.58768005 36.68615723 145.78768005 36.68615723 159.38768005 C39.48245605 159.36673279 42.27875488 159.34578552 45.15979004 159.32420349 C54.39179549 159.25796751 63.62381136 159.21375823 72.85599136 159.18043137 C78.45429284 159.15954378 84.05235117 159.13120441 89.6505127 159.08592224 C95.0516067 159.04250679 100.45246661 159.01855178 105.85372162 159.00817108 C107.9158573 159.00077201 109.97797997 158.98632358 112.04001617 158.96475983 C114.92527599 158.93578327 117.80956472 158.93172167 120.69494629 158.93357849 C121.55018387 158.91919739 122.40542145 158.90481628 123.28657532 158.88999939 C127.09949437 158.9166054 129.0537719 158.93420969 132.2167511 161.20231628 C134.31389117 164.32127288 134.24148983 167.22509632 134.18225098 170.85643005 C134.18370621 171.57375305 134.18516144 172.29107605 134.18666077 173.03013611 C134.18500464 174.54307629 134.17347513 176.05603382 134.15270996 177.5688324 C134.12375004 179.88027239 134.13210566 182.18941781 134.1451416 184.5009613 C134.13890369 185.97362866 134.13051233 187.4462888 134.11975098 188.91893005 C134.12268661 189.60757141 134.12562225 190.29621277 134.12864685 191.00572205 C134.06934279 194.03293654 133.83159095 196.12665739 132.34655762 198.79197693 C129.36615077 201.65625265 126.34840695 201.51582523 122.42373657 201.52812195 C121.33299835 201.53383209 120.24226013 201.53954224 119.11846924 201.54542542 C117.92151428 201.54654327 116.72455933 201.54766113 115.49133301 201.54881287 C114.23096222 201.55377777 112.97059143 201.55874268 111.67202759 201.56385803 C108.21330266 201.576973 104.75459714 201.58342511 101.29585123 201.58786869 C99.13475057 201.5908006 96.97365521 201.59490562 94.81255722 201.59937286 C88.05025829 201.61304482 81.28797147 201.6227132 74.52565968 201.62657475 C66.72071361 201.63105628 58.91594261 201.64860967 51.11104977 201.67757535 C45.07698715 201.69919155 39.04297379 201.70927898 33.00887287 201.71061587 C29.40537401 201.71166386 25.80203978 201.71757031 22.1985817 201.73543549 C18.17886986 201.75497703 14.15952457 201.75062749 10.13977051 201.74412537 C8.94686401 201.75334015 7.75395752 201.76255493 6.52490234 201.77204895 C5.42852448 201.7664798 4.33214661 201.76091064 3.20254517 201.75517273 C2.25238588 201.75663929 1.3022266 201.75810585 0.32327461 201.75961685 C-3.1336864 201.27205 -5.83002968 199.87149315 -8.31384277 197.38768005 C-8.41821986 194.8904356 -8.45717106 192.42060627 -8.45428467 189.92262268 C-8.45725579 189.1316758 -8.46022691 188.34072891 -8.46328807 187.52581394 C-8.47201338 184.85492158 -8.47348653 182.18407385 -8.47497559 179.51316833 C-8.47960104 177.60658166 -8.48462533 175.69999591 -8.49002075 173.79341125 C-8.50317276 168.59922017 -8.50959512 163.40504203 -8.51403141 158.21083689 C-8.51695754 154.96932582 -8.52106145 151.72781833 -8.52553558 148.48630905 C-8.5392177 138.35487131 -8.54888094 128.2234417 -8.55273747 118.09199536 C-8.55722058 106.37719949 -8.5747772 94.66252017 -8.60373807 82.94775975 C-8.62531935 73.90572687 -8.63543985 64.86372687 -8.63677859 55.82166851 C-8.63782915 50.41517152 -8.64378997 45.00878398 -8.66159821 39.602314 C-8.67801765 34.51834743 -8.68026435 29.4345733 -8.6714592 24.35058975 C-8.67068553 22.48127733 -8.67507461 20.61195482 -8.68491745 18.74266815 C-8.69753842 16.19711448 -8.6918144 13.65225253 -8.68133545 11.10670471 C-8.68939185 10.36128139 -8.69744826 9.61585806 -8.7057488 8.84784615 C-8.67827793 6.0084207 -8.61890006 3.88930861 -7.12298965 1.42947102 C-4.64926852 0.00498727 -2.85301674 0.00722608 0 0 Z " fill="#EFEFEF" transform="translate(950.3138427734375,300.61231994628906)"/>
<path d="M0 0 C6.23980771 5.25991011 6.23980771 5.25991011 7.5390625 9.13671875 C7.56225227 13.42682585 6.8121499 14.84784595 3.8359375 17.99609375 C2.66750937 18.97640076 1.48422884 19.93919379 0.2890625 20.88671875 C-0.33556885 21.39750977 -0.9602002 21.90830078 -1.60375977 22.43457031 C-2.90267072 23.49096774 -4.20753442 24.54008542 -5.51806641 25.58203125 C-7.38156041 27.07320112 -9.21006689 28.59894494 -11.03515625 30.13671875 C-12.15488023 31.05505811 -13.27591625 31.97180072 -14.3984375 32.88671875 C-15.39746094 33.7065625 -16.39648438 34.52640625 -17.42578125 35.37109375 C-21.1202125 37.52023522 -23.24976969 37.68387744 -27.4609375 37.13671875 C-29.61328125 35.96484375 -29.61328125 35.96484375 -31.3984375 34.38671875 C-40.53657901 26.98917562 -52.22362954 23.31175073 -64.07421875 23.859375 C-79.00279818 25.59411991 -93.26026126 30.63634245 -103.4609375 42.13671875 C-109.52075056 49.80513673 -113.52723169 57.83675256 -116.4609375 67.13671875 C-116.70714844 67.90886719 -116.95335937 68.68101562 -117.20703125 69.4765625 C-121.81993133 87.57821866 -118.26989513 107.60464291 -109.5546875 123.81640625 C-101.65703641 136.34066637 -90.8096835 144.9906763 -76.4609375 149.13671875 C-61.56526632 152.18716205 -48.0572937 149.95073231 -35.1484375 142.05078125 C-32.06231972 139.85281946 -29.61708866 137.47185437 -27.25390625 134.51953125 C-24.36610076 132.29233486 -22.06445081 132.17469044 -18.4609375 132.13671875 C-15.9592504 133.46042697 -14.12644585 134.64593806 -11.9609375 136.38671875 C-10.74880278 137.30873162 -9.53655908 138.23060125 -8.32421875 139.15234375 C-7.69854004 139.63896484 -7.07286133 140.12558594 -6.42822266 140.62695312 C-4.39685794 142.18589572 -2.33371914 143.69000146 -0.25390625 145.18359375 C0.431875 145.67698242 1.11765625 146.17037109 1.82421875 146.67871094 C3.15845263 147.63825389 4.49307772 148.59725314 5.828125 149.55566406 C9.83810454 152.48157526 11.22340934 153.68997509 12.2890625 158.57421875 C12.2297019 163.23826606 9.87955212 165.44307299 6.7265625 168.69921875 C1.50264314 173.66955805 -4.16157253 177.62165459 -10.4609375 181.13671875 C-11.22535156 181.5853125 -11.98976563 182.03390625 -12.77734375 182.49609375 C-37.40208309 195.99595085 -67.95742354 195.52242625 -94.41308594 188.36523438 C-119.39509762 181.07496381 -140.89743206 165.12576596 -153.55957031 142.14257812 C-168.22767205 114.26926636 -170.61467402 81.13262152 -161.46044922 51.06567383 C-153.02252897 25.12800172 -135.8703971 5.23189743 -111.6484375 -7.17578125 C-77.22441517 -24.11738084 -31.172405 -23.60196379 0 0 Z " fill="#EFEFEF" transform="translate(1299.4609375,313.86328125)"/>
<path d="M0 0 C1.93073112 -0.01268921 1.93073112 -0.01268921 3.90046692 -0.02563477 C5.3299268 -0.01980165 6.75938543 -0.01365713 8.18884277 -0.00723267 C9.6917916 -0.01129702 11.19473745 -0.01663813 12.69767761 -0.02316284 C16.78235616 -0.03685859 20.86680781 -0.03152856 24.9514904 -0.02202559 C29.22222387 -0.01444065 33.49293766 -0.02147135 37.76367188 -0.02618408 C44.93619278 -0.03164504 52.10862108 -0.02444112 59.28112793 -0.01016235 C67.57852618 0.00616484 75.87570329 0.00087657 84.17309618 -0.01564157 C91.29163525 -0.02924676 98.41010767 -0.03118085 105.52865553 -0.02332556 C109.78263442 -0.01864371 114.03650932 -0.0180382 118.29048157 -0.02793503 C122.28945603 -0.0365884 126.28814485 -0.03061286 130.28708839 -0.01325226 C131.75647825 -0.00927866 133.22589206 -0.01043637 134.69527245 -0.01704025 C136.69747445 -0.02521053 138.69972886 -0.01315876 140.7019043 0 C141.82351707 0.00113108 142.94512985 0.00226215 144.1007309 0.00342751 C146.85095215 0.38095093 146.85095215 0.38095093 148.71100616 1.69711876 C150.59407406 4.47862801 150.27765054 7.54380658 150.24938965 10.78720093 C150.25369492 11.86886536 150.25369492 11.86886536 150.25808716 12.97238159 C150.26012667 14.49546088 150.25460462 16.01856642 150.24206543 17.54159546 C150.22600858 19.87275771 150.24191625 22.20218634 150.2611084 24.53329468 C150.25912594 26.01376725 150.25528222 27.49423875 150.24938965 28.97470093 C150.25546234 29.67164063 150.26153503 30.36858032 150.26779175 31.0866394 C150.19769957 35.91023556 150.19769957 35.91023556 148.4510498 38.28134155 C145.41891264 40.3650684 143.49944771 40.50329029 139.85046387 40.49447632 C138.28907181 40.49436302 138.28907181 40.49436302 136.69613647 40.49424744 C135.56902252 40.48908615 134.44190857 40.48392487 133.28063965 40.47860718 C132.12927521 40.47719223 130.97791077 40.47577728 129.79165649 40.47431946 C126.10306229 40.46870809 122.4145281 40.45615363 118.72595215 40.44345093 C116.22985927 40.43843739 113.73376545 40.43387423 111.2376709 40.42977905 C105.10874406 40.41873496 98.97985239 40.40198572 92.85095215 40.38095093 C92.85371753 41.18732152 92.85648291 41.99369211 92.85933208 42.82449818 C92.92553139 62.42840647 92.9752032 82.0322925 93.00638866 101.63628864 C93.02186985 111.11656516 93.04298321 120.59676716 93.07727051 130.07699585 C93.10713463 138.33816822 93.12651804 146.59928663 93.13321763 154.86051148 C93.13713497 159.23640921 93.1463671 163.61215254 93.16814232 167.98800087 C93.18846037 172.10425868 93.1947955 176.22029806 93.19027519 180.33660126 C93.1911025 181.84954451 93.19709607 183.36249484 93.20856857 184.87539482 C93.22344005 186.93715406 93.21992613 188.99808278 93.2117157 191.05986023 C93.21448108 192.21486684 93.21724646 193.36987345 93.22009563 194.55988026 C92.85095215 197.38095093 92.85095215 197.38095093 91.51590443 199.2135191 C87.72310303 201.87295693 83.68937167 201.54203406 79.2611084 201.54891968 C78.52017441 201.55224808 77.77924042 201.55557648 77.01585388 201.55900574 C75.44990662 201.56406446 73.88394859 201.56641439 72.31799316 201.56625366 C69.92580362 201.56843964 67.53407572 201.58660463 65.14196777 201.6055603 C63.61918289 201.60849457 62.09639582 201.61047914 60.5736084 201.61141968 C59.85995621 201.61860519 59.14630402 201.62579071 58.411026 201.63319397 C54.75201464 201.61640989 51.89969262 201.52416224 48.85095215 199.38095093 C47.45460656 196.58825975 47.72820513 194.3057103 47.73069763 191.18011475 C47.72984321 190.53728818 47.72898878 189.89446161 47.72810847 189.23215544 C47.72645557 187.06867259 47.73197191 184.90526653 47.73742676 182.74179077 C47.7377087 181.19471743 47.73755076 179.64764395 47.73698425 178.10057068 C47.73669654 173.89213399 47.74258907 169.68372563 47.74955821 165.47529554 C47.75579608 161.08037426 47.75639589 156.68545237 47.75758362 152.29052734 C47.76069565 143.96429375 47.76890733 135.63807324 47.77893311 127.31184542 C47.7900982 117.83435116 47.7956057 108.35685629 47.80062854 98.8793571 C47.81109004 79.37988095 47.82868702 59.88041699 47.85095215 40.38095093 C46.88708588 40.38761276 46.88708588 40.38761276 45.90374756 40.39440918 C39.22048159 40.43862962 32.53725713 40.46881205 25.85388184 40.49081421 C23.359073 40.50087654 20.86427597 40.51452772 18.36950684 40.53182983 C14.78516731 40.55606761 11.20098362 40.56743174 7.61657715 40.57626343 C6.49978577 40.586586 5.38299438 40.59690857 4.23236084 40.60754395 C3.19158386 40.60769501 2.15080688 40.60784607 1.07849121 40.60800171 C0.16359924 40.61244293 -0.75129272 40.61688416 -1.69390869 40.62145996 C-4.32552306 40.36366316 -5.93025417 39.80086498 -8.14904785 38.38095093 C-9.63915691 35.40073281 -9.33238318 32.34170901 -9.35217285 29.07235718 C-9.35787292 28.34983261 -9.363573 27.62730804 -9.3694458 26.88288879 C-9.37889504 25.35385605 -9.38542948 23.82480294 -9.38928223 22.29574585 C-9.39899597 19.95594852 -9.43002162 17.6170267 -9.46154785 15.2774353 C-9.46807722 13.79241448 -9.47332795 12.30738738 -9.47717285 10.82235718 C-9.48951965 10.12228043 -9.50186646 9.42220367 -9.5145874 8.70091248 C-9.49250856 3.88946586 -9.49250856 3.88946586 -8.01108551 1.69612694 C-5.31869339 -0.20553682 -3.27867034 0.00330634 0 0 Z " fill="#EFEFEF" transform="translate(1810.1490478515625,300.6190490722656)"/>
<path d="M0 0 C1.12921875 -0.020625 2.2584375 -0.04125 3.421875 -0.0625 C11.33894107 -0.09958228 16.39638989 0.52760948 22.75 5.5 C25.36583948 8.88520403 25.7990572 10.99720338 25.875 15.25 C24.80426823 19.33824856 22.60322237 22.06707391 19.875 25.25 C20.65875 25.8275 21.4425 26.405 22.25 27 C25.47273128 29.7623411 26.66355163 31.62233929 27.2109375 35.8359375 C27.29444775 41.79856963 27.18271383 45.72137776 22.875 50.25 C17.38618511 54.1978715 12.66569815 55.38158519 6.015625 55.34765625 C4.90058594 55.34443359 3.78554688 55.34121094 2.63671875 55.33789062 C1.47785156 55.32951172 0.31898438 55.32113281 -0.875 55.3125 C-2.04933594 55.30798828 -3.22367188 55.30347656 -4.43359375 55.29882812 C-7.33078072 55.28705094 -10.22786454 55.27060326 -13.125 55.25 C-13.15026605 47.57788798 -13.16783123 39.9057866 -13.17993164 32.23364258 C-13.18497377 29.62133381 -13.19180725 27.00902789 -13.20043945 24.39672852 C-13.21251036 20.65119732 -13.21822935 16.90570328 -13.22265625 13.16015625 C-13.22781754 11.98413345 -13.23297882 10.80811066 -13.23829651 9.59645081 C-13.23840981 7.97488319 -13.23840981 7.97488319 -13.23852539 6.32055664 C-13.240746 5.36347305 -13.24296661 4.40638947 -13.24525452 3.42030334 C-12.93576167 -2.16529449 -4.21240704 0.01884746 0 0 Z M-0.125 10.25 C-0.19726502 12.10287502 -0.2088122 13.95833878 -0.1875 15.8125 C-0.17847656 16.82441406 -0.16945313 17.83632813 -0.16015625 18.87890625 C-0.14855469 19.66136719 -0.13695312 20.44382812 -0.125 21.25 C4.8149341 21.54058436 7.97325673 21.46320034 11.875 18.25 C13.0326585 16.37042756 13.0326585 16.37042756 12.875 14.25 C12.12587374 11.88511672 12.12587374 11.88511672 9.875 10.25 C4.57980351 8.7945315 4.57980351 8.7945315 -0.125 10.25 Z M-0.125 30.25 C-0.125 35.53 -0.125 40.81 -0.125 46.25 C6.77533499 46.20249254 6.77533499 46.20249254 12.5625 43.0625 C14.20990272 39.53235132 14.14891029 37.91249207 12.875 34.25 C10.39513897 31.25350125 7.82333259 30.99280914 4.125 30.5625 C2.02125 30.4078125 2.02125 30.4078125 -0.125 30.25 Z " fill="#EFEFEF" transform="translate(943.125,524.75)"/>
<path d="M0 0 C1.16853516 -0.02900391 2.33707031 -0.05800781 3.54101562 -0.08789062 C11.34045434 -0.14507771 17.02040361 0.42846758 23.08422852 5.76049805 C26.09658846 9.21522873 25.76451371 13.46559971 25.7265625 17.8046875 C25.15986607 22.72116191 22.00127255 26.10510471 18.4375 29.3125 C19.04078125 29.95960938 19.6440625 30.60671875 20.265625 31.2734375 C22.94286971 35.01965401 23.99344797 38.53677992 25.1875 42.9375 C25.51814453 44.0821875 25.51814453 44.0821875 25.85546875 45.25 C26.73062997 48.34839686 27.4375 51.07827196 27.4375 54.3125 C23.1475 54.3125 18.8575 54.3125 14.4375 54.3125 C14.025 53.219375 13.6125 52.12625 13.1875 51 C12.90777344 50.27941406 12.62804688 49.55882812 12.33984375 48.81640625 C11.4375 46.3125 11.4375 46.3125 10.62890625 43.40234375 C10.33886719 42.42394531 10.04882812 41.44554687 9.75 40.4375 C9.49863281 39.51195312 9.24726562 38.58640625 8.98828125 37.6328125 C7.12505789 34.28265778 7.12505789 34.28265778 -0.5625 33.3125 C-0.5625 40.2425 -0.5625 47.1725 -0.5625 54.3125 C-4.8525 54.3125 -9.1425 54.3125 -13.5625 54.3125 C-13.58714032 46.78279868 -13.60533141 39.25312061 -13.61743164 31.72338867 C-13.6224737 29.15958243 -13.62930714 26.59577909 -13.63793945 24.03198242 C-13.65001064 20.35594979 -13.65572942 16.67995502 -13.66015625 13.00390625 C-13.66531754 11.84975723 -13.67047882 10.69560822 -13.67579651 9.50648499 C-13.67587204 8.44546066 -13.67594757 7.38443634 -13.67602539 6.29125977 C-13.678246 5.35194107 -13.68046661 4.41262238 -13.68275452 3.44483948 C-13.36717779 -2.15093137 -4.20226867 0.03398061 0 0 Z M0.4375 9.3125 C-0.92782549 10.44951597 -0.92782549 10.44951597 -0.66015625 13.47265625 C-0.64855469 14.76042969 -0.63695312 16.04820312 -0.625 17.375 C-0.61597656 18.66535156 -0.60695313 19.95570313 -0.59765625 21.28515625 C-0.58605469 22.28417969 -0.57445312 23.28320312 -0.5625 24.3125 C5.37308055 23.94737169 5.37308055 23.94737169 11 22.1875 C13.26231804 19.23665038 12.88616107 16.90178854 12.4375 13.3125 C10.82644332 11.13731937 9.85452814 10.41492796 7.2109375 9.765625 C6.41945313 9.69859375 5.62796875 9.6315625 4.8125 9.5625 C4.01585937 9.48515625 3.21921875 9.4078125 2.3984375 9.328125 C1.42777344 9.32039062 1.42777344 9.32039062 0.4375 9.3125 Z " fill="#EFEFEF" transform="translate(1606.5625,524.6875)"/>
<path d="M0 0 C1.16853516 -0.02900391 2.33707031 -0.05800781 3.54101562 -0.08789062 C11.34045434 -0.14507771 17.02040361 0.42846758 23.08422852 5.76049805 C26.09658846 9.21522873 25.76451371 13.46559971 25.7265625 17.8046875 C25.15986607 22.72116191 22.00127255 26.10510471 18.4375 29.3125 C19.04078125 29.95960938 19.6440625 30.60671875 20.265625 31.2734375 C22.94286971 35.01965401 23.99344797 38.53677992 25.1875 42.9375 C25.51814453 44.0821875 25.51814453 44.0821875 25.85546875 45.25 C26.73062997 48.34839686 27.4375 51.07827196 27.4375 54.3125 C23.1475 54.3125 18.8575 54.3125 14.4375 54.3125 C14.025 53.219375 13.6125 52.12625 13.1875 51 C12.90777344 50.27941406 12.62804688 49.55882812 12.33984375 48.81640625 C11.4375 46.3125 11.4375 46.3125 10.62890625 43.40234375 C10.33886719 42.42394531 10.04882812 41.44554687 9.75 40.4375 C9.49863281 39.51195312 9.24726562 38.58640625 8.98828125 37.6328125 C7.12505789 34.28265778 7.12505789 34.28265778 -0.5625 33.3125 C-0.5625 40.2425 -0.5625 47.1725 -0.5625 54.3125 C-4.8525 54.3125 -9.1425 54.3125 -13.5625 54.3125 C-13.58714032 46.78279868 -13.60533141 39.25312061 -13.61743164 31.72338867 C-13.6224737 29.15958243 -13.62930714 26.59577909 -13.63793945 24.03198242 C-13.65001064 20.35594979 -13.65572942 16.67995502 -13.66015625 13.00390625 C-13.66531754 11.84975723 -13.67047882 10.69560822 -13.67579651 9.50648499 C-13.67587204 8.44546066 -13.67594757 7.38443634 -13.67602539 6.29125977 C-13.678246 5.35194107 -13.68046661 4.41262238 -13.68275452 3.44483948 C-13.36717779 -2.15093137 -4.20226867 0.03398061 0 0 Z M0.4375 9.3125 C-0.92782549 10.44951597 -0.92782549 10.44951597 -0.66015625 13.47265625 C-0.64855469 14.76042969 -0.63695312 16.04820312 -0.625 17.375 C-0.61597656 18.66535156 -0.60695313 19.95570313 -0.59765625 21.28515625 C-0.58605469 22.28417969 -0.57445312 23.28320312 -0.5625 24.3125 C5.37308055 23.94737169 5.37308055 23.94737169 11 22.1875 C13.26231804 19.23665038 12.88616107 16.90178854 12.4375 13.3125 C10.82644332 11.13731937 9.85452814 10.41492796 7.2109375 9.765625 C6.41945313 9.69859375 5.62796875 9.6315625 4.8125 9.5625 C4.01585937 9.48515625 3.21921875 9.4078125 2.3984375 9.328125 C1.42777344 9.32039062 1.42777344 9.32039062 0.4375 9.3125 Z " fill="#EFEFEF" transform="translate(1130.5625,524.6875)"/>
<path d="M0 0 C4.29 0 8.58 0 13 0 C13.01458252 1.12494873 13.02916504 2.24989746 13.04418945 3.40893555 C13.10227754 7.59317387 13.17950964 11.77687997 13.26245117 15.96069336 C13.29565114 17.76952458 13.32369841 19.57845818 13.34643555 21.38745117 C13.38007258 23.99181633 13.43239195 26.5952476 13.48828125 29.19921875 C13.49467117 30.00461594 13.5010611 30.81001312 13.50764465 31.63981628 C13.62691906 36.22185288 14.05103598 39.26870413 17 43 C19.65059747 44.25321135 22.10526398 44.3837077 25 44 C27.95404374 41.86303218 29.61805234 40.36965358 30.60913086 36.81567383 C31.10588626 33.2372353 31.23245195 29.68056037 31.31640625 26.07421875 C31.33718735 25.32662796 31.35796844 24.57903717 31.37937927 23.80879211 C31.44444189 21.43511604 31.5035571 19.06133513 31.5625 16.6875 C31.60572646 15.07225505 31.64934204 13.45702047 31.69335938 11.84179688 C31.80007851 7.89463701 31.90146619 3.94737233 32 0 C36.29 0 40.58 0 45 0 C45.04993675 4.51658714 45.08597002 9.03302226 45.10986328 13.54980469 C45.11983806 15.08205978 45.13342276 16.61429625 45.15087891 18.14648438 C45.4079208 41.31049504 45.4079208 41.31049504 39 49 C32.47381182 55.02417371 26.29665718 55.54925136 17.67578125 55.3046875 C12.97596131 54.91511688 9.56049509 54.16488452 6 51 C1.99320388 46.0747695 -0.1342316 41.34333241 -0.11352539 34.96582031 C-0.11344986 34.18531311 -0.11337433 33.40480591 -0.11329651 32.60064697 C-0.10813522 31.76821472 -0.10297394 30.93578247 -0.09765625 30.078125 C-0.0962413 29.21813904 -0.09482635 28.35815308 -0.09336853 27.47210693 C-0.08778097 24.73136891 -0.07523075 21.99071324 -0.0625 19.25 C-0.05748339 17.3893241 -0.05292077 15.52864691 -0.04882812 13.66796875 C-0.03781561 9.11194754 -0.02055951 4.55598772 0 0 Z " fill="#EFEFEF" transform="translate(1490,525)"/>
<path d="M0 0 C11.22 0 22.44 0 34 0 C34 3.3 34 6.6 34 10 C27.07 10 20.14 10 13 10 C13 13.63 13 17.26 13 21 C19.27 21 25.54 21 32 21 C32 24.3 32 27.6 32 31 C25.73 31 19.46 31 13 31 C13 35.29 13 39.58 13 44 C20.26 44 27.52 44 35 44 C35 47.3 35 50.6 35 54 C23.45 54 11.9 54 0 54 C0 36.18 0 18.36 0 0 Z " fill="#EFEFEF" transform="translate(1304,525)"/>
<path d="M0 0 C11.22 0 22.44 0 34 0 C34 3.3 34 6.6 34 10 C27.07 10 20.14 10 13 10 C13 13.63 13 17.26 13 21 C19.27 21 25.54 21 32 21 C32 24.3 32 27.6 32 31 C25.73 31 19.46 31 13 31 C13 35.29 13 39.58 13 44 C20.26 44 27.52 44 35 44 C35 47.3 35 50.6 35 54 C23.45 54 11.9 54 0 54 C0 36.18 0 18.36 0 0 Z " fill="#EFEFEF" transform="translate(1026,525)"/>
<path d="M0 0 C0.69931641 -0.01224609 1.39863281 -0.02449219 2.11914062 -0.03710938 C6.53311655 -0.04949659 10.08881584 0.55960817 14.1875 2.1875 C13.1975 5.8175 12.2075 9.4475 11.1875 13.1875 C10.30707031 13.01992188 9.42664062 12.85234375 8.51953125 12.6796875 C7.35808594 12.47601562 6.19664063 12.27234375 5 12.0625 C3.85144531 11.85367188 2.70289063 11.64484375 1.51953125 11.4296875 C-1.95373227 11.17723458 -3.74626527 11.6283976 -6.8125 13.1875 C-6.8125 14.8375 -6.8125 16.4875 -6.8125 18.1875 C-5.71550781 18.70699219 -4.61851563 19.22648438 -3.48828125 19.76171875 C-2.03359057 20.46560134 -0.57917807 21.17005902 0.875 21.875 C1.59623047 22.21466797 2.31746094 22.55433594 3.06054688 22.90429688 C8.22982374 25.4299253 12.07139485 28.26525955 15.5 33 C16.98222614 37.71617408 16.67267735 41.81283084 15.0625 46.375 C11.79936771 51.26969844 7.79002455 54.44638395 2.1875 56.1875 C-0.64924511 56.40291358 -3.35433445 56.51238272 -6.1875 56.5 C-7.28191406 56.52416992 -7.28191406 56.52416992 -8.3984375 56.54882812 C-13.59028355 56.5534637 -17.16888524 55.50930738 -21.8125 53.1875 C-21.1525 49.5575 -20.4925 45.9275 -19.8125 42.1875 C-19.0390625 42.41566406 -18.265625 42.64382813 -17.46875 42.87890625 C-11.10257817 44.63590664 -6.29697076 45.55921497 0.1875 44.1875 C0.8475 42.5375 1.5075 40.8875 2.1875 39.1875 C-0.8160406 35.77536319 -3.35429044 34.40675567 -7.625 32.9375 C-13.51934161 30.55667659 -17.90672887 28.0187424 -20.8125 22.1875 C-21.89811591 16.84292938 -21.51617275 12.67603851 -19.1875 7.75 C-13.40746611 1.51364765 -8.225549 0.00745743 0 0 Z " fill="#EFEFEF" transform="translate(1232.8125,523.8125)"/>
<path d="M0 0 C-0.66 3.3 -1.32 6.6 -2 10 C-2.85722656 9.90460937 -3.71445313 9.80921875 -4.59765625 9.7109375 C-15.42899593 8.50592901 -15.42899593 8.50592901 -24.8125 13.25 C-28.47059953 17.8487537 -29.42237689 22.10645912 -29.25390625 27.98046875 C-28.70209859 32.369462 -26.88599183 35.82922509 -24.25 39.3125 C-17.43689057 44.42233208 -10.01379369 42.8917605 -2 42 C-1.505 46.95 -1.505 46.95 -1 52 C-8.30259734 55.65129867 -18.14872944 54.90354914 -26.125 53.41796875 C-32.66049768 51.18160314 -37.22736666 46.71442991 -41 41 C-44.45121884 32.90204206 -44.38869714 21.8108263 -41.5625 13.5 C-38.49761509 7.07782066 -32.87918117 2.08901791 -26.5 -1 C-18.83222065 -3.41076227 -7.14747452 -3.5384933 0 0 Z " fill="#EFEFEF" transform="translate(1435,526)"/>
<path d="M0 0 C-0.66 3.3 -1.32 6.6 -2 10 C-2.85722656 9.90460937 -3.71445312 9.80921875 -4.59765625 9.7109375 C-15.42899593 8.50592901 -15.42899593 8.50592901 -24.8125 13.25 C-28.47059953 17.8487537 -29.42237689 22.10645912 -29.25390625 27.98046875 C-28.70209859 32.369462 -26.88599183 35.82922509 -24.25 39.3125 C-17.43689057 44.42233208 -10.01379369 42.8917605 -2 42 C-1.505 46.95 -1.505 46.95 -1 52 C-8.30259734 55.65129867 -18.14872944 54.90354914 -26.125 53.41796875 C-32.66049768 51.18160314 -37.22736666 46.71442991 -41 41 C-44.45121884 32.90204206 -44.38869714 21.8108263 -41.5625 13.5 C-38.49761509 7.07782066 -32.87918117 2.08901791 -26.5 -1 C-18.83222065 -3.41076227 -7.14747452 -3.5384933 0 0 Z " fill="#EFEFEF" transform="translate(780,526)"/>
<path d="M0 0 C4.95 0 9.9 0 15 0 C18.36929795 6.58884932 21.57935738 13.00703244 24 20 C27.39667777 13.45721905 30.34675978 6.87877094 33 0 C37.95 0 42.9 0 48 0 C46.85983913 2.33624243 45.71263938 4.66867257 44.5625 7 C44.20921631 7.72622559 43.85593262 8.45245117 43.49194336 9.20068359 C41.66834351 12.89093221 39.78712515 16.42621853 37.5 19.8515625 C30.22451237 30.96216856 29.6985142 40.87933808 30 54 C25.71 54 21.42 54 17 54 C17.10183594 52.67613281 17.20367188 51.35226562 17.30859375 49.98828125 C17.99473242 31.04227724 10.26122016 17.85293961 1 2 C0.67 1.34 0.34 0.68 0 0 Z " fill="#EFEFEF" transform="translate(1846,525)"/>
<path d="M0 0 C4.95 0 9.9 0 15 0 C18.36929795 6.58884932 21.57935738 13.00703244 24 20 C27.39667777 13.45721905 30.34675978 6.87877094 33 0 C37.95 0 42.9 0 48 0 C46.85983913 2.33624243 45.71263938 4.66867257 44.5625 7 C44.20921631 7.72622559 43.85593262 8.45245117 43.49194336 9.20068359 C41.66834351 12.89093221 39.78712515 16.42621853 37.5 19.8515625 C30.22451237 30.96216856 29.6985142 40.87933808 30 54 C25.71 54 21.42 54 17 54 C17.10183594 52.67613281 17.20367188 51.35226562 17.30859375 49.98828125 C17.99473242 31.04227724 10.26122016 17.85293961 1 2 C0.67 1.34 0.34 0.68 0 0 Z " fill="#EFEFEF" transform="translate(830,525)"/>
<path d="M0 0 C13.86 0 27.72 0 42 0 C42 3.63 42 7.26 42 11 C37.05 11 32.1 11 27 11 C27 25.19 27 39.38 27 54 C22.71 54 18.42 54 14 54 C14 39.81 14 25.62 14 11 C9.38 11 4.76 11 0 11 C0 7.37 0 3.74 0 0 Z " fill="#EFEFEF" transform="translate(1755,525)"/>
<path d="M0 0 C4.29 0 8.58 0 13 0 C13 17.82 13 35.64 13 54 C8.71 54 4.42 54 0 54 C0 36.18 0 18.36 0 0 Z " fill="#EFEFEF" transform="translate(1688,525)"/>
</svg>
