<svg xmlns="http://www.w3.org/2000/svg" viewBox="0 0 383 38"><style>.shp0{fill:#000}</style><g id="Microsec"><path id="Layer" d="M28.38 11.12h-7.86l-7.04 26.23H.4L10.26.66H57.4c3.87 0 5.8 1.87 5.8 5.64 0 1.38-.25 2.98-.75 4.82l-7.02 26.23h-13.1l6.69-24.92c.04-.17.07-.33.07-.46 0-.57-.35-.85-1.05-.85h-6.55l-7.02 26.23h-13.1z" class="shp0"/><path d="m82.85.66-9.83 36.69H59.95L69.76.66zM126.59 26.86l-2.82 10.48H84.46c-3.87 0-5.8-1.89-5.8-5.67 0-1.38.25-2.98.75-4.82l4.19-15.72C85.48 4.16 89.04.67 94.28.65h39.31l-2.82 10.48H98.01c-.87 0-1.42.44-1.64 1.31l-3.54 13.1c-.04.17-.07.33-.07.46 0 .57.35.85 1.05.85h32.78z" class="shp0"/><path fill-rule="evenodd" d="M221.78.66c3.87.02 5.8 1.92 5.8 5.7 0 1.35-.25 2.95-.75 4.78l-4.19 15.72c-1.88 6.99-5.44 10.48-10.68 10.48h-31.45c-3.87 0-5.8-1.89-5.8-5.67 0-1.38.25-2.98.75-4.82l4.19-15.72C181.53 4.16 185.09.67 190.33.65h31.45zm-32.89 24.89c-.04.17-.07.33-.07.46 0 .57.35.85 1.05.85h18.34c.87 0 1.42-.44 1.64-1.31l3.54-13.1c.04-.17.07-.33.07-.46 0-.57-.35-.85-1.05-.85h-18.34c-.87 0-1.42.44-1.64 1.31z" class="shp0"/><path d="M235.35 22.93c-4.13 0-6.19-1.64-6.19-4.91 0-.85.14-1.83.43-2.95l1.05-3.93C232.52 4.17 236.08.68 241.32.66h39.31l-2.82 10.48h-32.76c-.87 0-1.42.44-1.64 1.31l-.36 1.31c-.04.2-.07.36-.07.49 0 .55.34.82 1.02.82h24.89c4.13.02 6.19 1.66 6.19 4.91 0 .87-.14 1.86-.43 2.95l-1.05 3.93c-1.88 6.99-5.44 10.48-10.68 10.48h-39.31l2.82-10.48h32.76c.87 0 1.42-.44 1.64-1.31l.36-1.31c.04-.2.07-.36.07-.49 0-.55-.34-.82-1.02-.82z" class="shp0"/><path fill-rule="evenodd" d="m324.64 26.86-2.82 10.48h-39.31c-3.87 0-5.8-1.89-5.8-5.67 0-1.38.25-2.98.75-4.82l4.19-15.72C283.53 4.16 287.09.67 292.33.65h39.31l-2.82 10.48h-32.76c-.87 0-1.42.44-1.64 1.31l-3.54 13.1c-.04.17-.07.33-.07.46 0 .57.35.85 1.05.85h32.78zm-1.58-3.93h-24.89l2.1-7.86h24.89z" class="shp0"/><path d="m375.66 26.86-2.82 10.48h-39.31c-3.87 0-5.8-1.89-5.8-5.67 0-1.38.25-2.98.75-4.82l4.19-15.72C334.55 4.16 338.11.67 343.35.65h39.31l-2.82 10.48H347.1c-.87 0-1.42.44-1.64 1.31l-3.54 13.1c-.04.17-.07.33-.07.46 0 .57.35.85 1.05.85h32.76zM157.73.66q-6.015.03-9.09 6.12l1.65-6.12H137.8l-9.82 36.69h13.16l6.6-24.86q.33-1.32 1.65-1.32h27.09L179.3.66z" class="shp0"/></g></svg>