<?xml version="1.0" encoding="UTF-8"?>
<svg 
  xmlns="http://www.w3.org/2000/svg" 
  xmlns:xlink="http://www.w3.org/1999/xlink" version="1.1" id="Ebene_1" x="0px" y="0px" viewBox="0 0 2774.7 1318.5" style="enable-background:new 0 0 2774.7 1318.5;" xml:space="preserve">
  <style type="text/css"> .st0{fill:#A50E2D;} .st1{fill:#CF0C29;} .st2{fill:#FFFFFF;} </style>
  <g>
    <g>
      <path class="st0" d="M2621,1000.5l-821.4-833.1c0,0,105.2-93.7,125.9-112.5c18.2-16.6,42.5-26.7,69.1-26.7h656.5 c56.7,0,102.7,46,102.7,102.7v678.1c0,29.3-13.2,52.9-32,74.5C2702.7,904.5,2621,1000.5,2621,1000.5z"/>
      <path class="st1" d="M2544.1,1035.1h-674.7c-56.7,0-102.7-46-102.7-102.7V242.8c0-56.7,46-102.7,102.7-102.7h674.7 c56.7,0,102.7,46,102.7,102.7v689.7C2646.8,989.2,2600.8,1035.1,2544.1,1035.1z"/>
    </g>
    <g>
      <path d="M98.5,800.4c0,12.4,0.6,24.3,2,35.9c1.3,11.6,3.5,21.9,6.4,30.9c3,9,6.9,16.2,11.8,21.6c4.9,5.4,10.8,8.1,17.9,8.1 c13.1,0,22.6-6.4,28.6-19.3c6-12.9,10.1-32.4,12.3-58.7H247c-1.5,48.4-10.8,85.2-28,110.4c-17.2,25.2-44.3,37.8-81.3,37.8 c-28,0-49.9-6.4-65.6-19.3c-15.7-12.9-27.3-29.8-34.7-51c-7.5-21.1-12-44.8-13.7-71c-1.7-26.2-2.5-52.5-2.5-78.7 c0-27.8,1.4-54.5,4.2-80.3c2.8-25.7,8.4-48.6,16.8-68.7c8.4-20.1,20.5-36,36.1-47.9c15.7-11.8,36.6-17.8,62.8-17.8 c22.4,0,40.8,5,55.2,15.1c14.4,10,25.7,24.2,33.9,42.5c8.2,18.3,13.8,40.4,16.8,66.4c3,26,4.5,54.9,4.5,86.9v23.9h-153V800.4z M175.2,661.9c-1.1-12.1-3.1-22.4-5.9-30.9c-2.8-8.5-6.7-14.9-11.8-19.3c-5-4.4-11.5-6.6-19.3-6.6c-7.8,0-14.3,2.5-19.3,7.3 c-5,4.9-9.1,11.3-12,19.3c-3,8-5.1,16.9-6.4,26.6c-1.3,9.8-2,19.6-2,29.3v16.2h79C177.1,688,176.4,674,175.2,661.9z"/>
      <path d="M348.4,836.7c0,18,3.5,32.6,10.4,43.6c6.9,11.1,16.9,16.6,30,16.6c12,0,21.5-4.1,28.6-12.4c7.1-8.2,10.6-20.6,10.6-37.1 c0-13.4-2.8-23.5-8.4-30.5c-5.6-6.9-12.1-12.5-19.6-16.6l-54.4-27c-21.3-10.3-37.4-24.8-48.2-43.6c-10.8-18.8-16.3-42.8-16.3-72.2 c0-17,2-33.1,6.2-48.3c4.1-15.2,10.6-28.4,19.6-39.8c9-11.3,20.5-20.3,34.5-27c14-6.7,30.9-10,50.7-10c35.1,0,61.1,10.3,77.9,30.9 c16.8,20.6,25.2,49.7,25.2,87.2v17h-69.5c0-21.6-2.5-37.4-7.6-47.5c-5-10-13.9-15.1-26.6-15.1c-9.7,0-18.2,3.7-25.5,11.2 c-7.3,7.5-10.9,18.7-10.9,33.6c0,10.3,2.3,19.6,7,27.8c4.7,8.2,13.5,15.2,26.6,20.8l46.5,21.6c24.3,11.3,41.5,26.1,51.6,44.4 c10.1,18.3,15.1,43.1,15.1,74.5c0,22.1-2.8,41.3-8.4,57.5c-5.6,16.2-13.4,29.7-23.3,40.5c-9.9,10.8-21.7,18.5-35.3,23.2 c-13.6,4.6-28.7,6.9-45.1,6.9c-21.7,0-39.7-2.8-54.1-8.5c-14.4-5.7-25.8-14.1-34.2-25.5c-8.4-11.3-14.3-25.1-17.7-41.3 c-3.4-16.2-5-34.4-5-54.4v-14.7h69.5V836.7z"/>
      <path d="M597.2,836.7c0,18,3.5,32.6,10.4,43.6c6.9,11.1,16.9,16.6,30,16.6c12,0,21.5-4.1,28.6-12.4c7.1-8.2,10.6-20.6,10.6-37.1 c0-13.4-2.8-23.5-8.4-30.5s-12.1-12.5-19.6-16.6l-54.4-27c-21.3-10.3-37.4-24.8-48.2-43.6c-10.8-18.8-16.3-42.8-16.3-72.2 c0-17,2-33.1,6.2-48.3c4.1-15.2,10.6-28.4,19.6-39.8c9-11.3,20.5-20.3,34.5-27c14-6.7,30.9-10,50.7-10c35.1,0,61.1,10.3,77.9,30.9 c16.8,20.6,25.2,49.7,25.2,87.2v17h-69.5c0-21.6-2.5-37.4-7.6-47.5c-5-10-13.9-15.1-26.6-15.1c-9.7,0-18.2,3.7-25.5,11.2 c-7.3,7.5-10.9,18.7-10.9,33.6c0,10.3,2.3,19.6,7,27.8c4.7,8.2,13.5,15.2,26.6,20.8l46.5,21.6c24.3,11.3,41.5,26.1,51.6,44.4 c10.1,18.3,15.1,43.1,15.1,74.5c0,22.1-2.8,41.3-8.4,57.5c-5.6,16.2-13.4,29.7-23.3,40.5c-9.9,10.8-21.7,18.5-35.3,23.2 c-13.6,4.6-28.7,6.9-45.1,6.9c-21.7,0-39.7-2.8-54.1-8.5c-14.4-5.7-25.8-14.1-34.2-25.5c-8.4-11.3-14.3-25.1-17.7-41.3 c-3.4-16.2-5-34.4-5-54.4v-14.7h69.5V836.7z"/>
      <path d="M855.5,800.4c0,12.4,0.6,24.3,2,35.9c1.3,11.6,3.5,21.9,6.4,30.9c3,9,6.9,16.2,11.8,21.6c4.9,5.4,10.8,8.1,17.9,8.1 c13.1,0,22.6-6.4,28.6-19.3c6-12.9,10.1-32.4,12.3-58.7h69.5c-1.5,48.4-10.8,85.2-28,110.4c-17.2,25.2-44.3,37.8-81.3,37.8 c-28,0-49.9-6.4-65.6-19.3c-15.7-12.9-27.3-29.8-34.7-51c-7.5-21.1-12-44.8-13.7-71s-2.5-52.5-2.5-78.7c0-27.8,1.4-54.5,4.2-80.3 c2.8-25.7,8.4-48.6,16.8-68.7c8.4-20.1,20.5-36,36.1-47.9c15.7-11.8,36.6-17.8,62.8-17.8c22.4,0,40.8,5,55.2,15.1 c14.4,10,25.7,24.2,33.9,42.5c8.2,18.3,13.8,40.4,16.8,66.4c3,26,4.5,54.9,4.5,86.9v23.9h-153V800.4z M932.3,661.9 c-1.1-12.1-3.1-22.4-5.9-30.9c-2.8-8.5-6.7-14.9-11.8-19.3c-5-4.4-11.5-6.6-19.3-6.6c-7.8,0-14.3,2.5-19.3,7.3 c-5,4.9-9.1,11.3-12,19.3c-3,8-5.1,16.9-6.4,26.6c-1.3,9.8-2,19.6-2,29.3v16.2h79C934.1,688,933.4,674,932.3,661.9z"/>
      <path d="M1122.8,543.3V592h1.1c8.2-20.6,18.9-35.6,31.9-45.2c13.1-9.5,28-14.3,44.8-14.3c24.7,0,43.6,9.3,56.9,27.8 c13.3,18.5,19.9,48.6,19.9,90.3v308h-77.3V672.3c0-21.6-2.6-36.7-7.8-45.2c-5.2-8.5-13.6-12.7-25.2-12.7 c-27.3,0-40.9,22.9-40.9,68.7v275.6h-77.3V543.3H1122.8z"/>
      <path d="M1482.5,914.7c-8.6,19.6-18.2,33.2-28.9,40.9s-23.8,11.6-39.5,11.6c-31.8,0-55.1-16.7-70-50.2 c-14.9-33.4-22.4-88.8-22.4-166s7.5-132.9,22.4-167.1c14.9-34.2,38.3-51.3,70-51.3c14.6,0,27,4.1,37.3,12.4 c10.3,8.2,19.5,20.6,27.7,37.1h1.1V407.5h77.3v551.2h-74v-44H1482.5z M1406.6,853.3c5,22.9,16,34.4,32.8,34.4 c17.2,0,28.3-11.4,33.3-34.4c5-22.9,7.6-57,7.6-102.3c0-45.3-2.5-79.4-7.6-102.3c-5-22.9-16.2-34.4-33.3-34.4 c-16.8,0-27.7,11.5-32.8,34.4c-5,22.9-7.6,57-7.6,102.3C1399,796.3,1401.6,830.4,1406.6,853.3z"/>
      <path d="M1689.3,401.3v91.1H1612v-91.1H1689.3z M1689.3,543.3v415.3H1612V543.3H1689.3z"/>
    </g>
    <g>
      <path class="st2" d="M1920.5,401.3v91.4H1843v-91.4H1920.5z M1920.5,543.8v416.7H1843V543.8H1920.5z"/>
      <path class="st2" d="M2069.4,424.6v119.3h45v72.8h-45V842c0,16.5,1.8,28.2,5.4,35.2c3.5,7,11,10.5,22.2,10.5c3,0,6-0.1,9-0.4 c3-0.3,5.8-0.6,8.4-1.2v74.4c-8.6,0-16.9,0.4-25,1.1c-8.1,0.8-16.6,1.2-25.6,1.2c-15,0-27.3-1.4-36.8-4.3 c-9.6-2.8-16.9-8.5-21.9-17c-5.1-8.5-8.5-19.7-10.4-33.7c-1.9-13.9-2.8-31.5-2.8-52.6V616.6h-39.4v-72.8h39.4V424.6H2069.4z"/>
    </g>
  </g>
</svg> 