<svg xmlns="http://www.w3.org/2000/svg" viewBox="0 0 752 176"><path fill="#3ef2d0" d="M224 0v48h-16V0h-16v48h-16V0h-16v48H80V0H64v64h160v16H48V0H32v80H16V0H0v176h16v-48h16v48h16v-48h16v48h16v-48h80v48h16v-64H16V96h176v80h16V96h16v80h16V0zM348.11 64v17.37h-39.08V64H296v47.77h13.03V94.4h39.08v17.37h13.03V64zM595.66 94.4h-13.03v17.37h13.03zM595.66 64h-13.03v17.37h-39.09V64h-13.03v47.77h13.03V94.4h39.09l13.03-13.03zM430.63 64h-56.46v47.77h13.03V94.4h39.09v17.37h13.03V64zM387.2 81.37v-4.34h39.09v4.34zM517.49 77.03V64h-65.15v47.77h65.15V98.74h-52.12V77.03zM673.83 77.03V64h-65.14v47.77h65.14V98.74h-52.12V94.4h52.12V81.37h-52.12v-4.34zM738.97 64v30.4L699.89 64h-13.03v47.77h13.03v-30.4l39.08 30.4H752V64z"/></svg>
