<?xml version="1.0" encoding="utf-8"?>
<!-- Generator: Adobe Illustrator 26.0.2, SVG Export Plug-In . SVG Version: 6.00 Build 0)  -->
<svg version="1.1" id="Layer_1" 
  xmlns="http://www.w3.org/2000/svg" 
  xmlns:xlink="http://www.w3.org/1999/xlink" x="0px" y="0px" viewBox="0 0 444 101" style="enable-background:new 0 0 444 101;" xml:space="preserve">
  <style type="text/css">
	.st0{fill:#ED1C24;}
</style>
  <g id="XMLID_1_">
    <path id="XMLID_11_" class="st0" d="M87.3,1.8v2.3h0.1c3.8,0.2,7.7,0.4,7.7,5.1c0,2.2-0.4,3.4-0.7,4.5L94.3,14L81.7,52.3h-0.6
		l-12.2-38c-0.6-2.1-1.4-4.4-1.4-5.6c0-3.9,3.3-4.2,7.9-4.5c0,0,0.1,0,0.2,0V1.9H41.2v2.3c5.2,0.3,6.5,1.5,8,4L53.1,19
		c0,0.2-13.1,34.3-13.1,34.3l-0.1,0.2h-0.6L26,12.8c-0.5-1.5-0.8-2.7-0.8-3.8c0-4.3,3.3-4.6,7.2-4.9V1.8H0v2.4
		c4.5,0.7,5.8,1.9,7.7,7.3c0,0,23,65.4,23.7,67.2h2.8c0.1-0.3,20.4-52.4,20.4-52.4h1.1c0,0,18.7,52,18.8,52.4h2.7
		c0.1-0.3,22.3-67.2,22.3-67.2c1.4-4.4,4-6.9,7.7-7.3V1.8C107.2,1.8,87.3,1.8,87.3,1.8z"/>
    <path id="XMLID_10_" class="st0" d="M115.5,1.7V4l0,0c5.1,0.3,10.4,0.7,10.4,8.2v56.2c0,7.1-4.6,7.6-10.4,8.2v2.3h38.7v-2.3
		c-6-0.4-10.6-0.9-10.6-8.2V12.2c0-7.7,5.4-8,10.6-8.2l0,0V1.7L115.5,1.7z"/>
    <path id="XMLID_9_" class="st0" d="M209.5,0c-0.5,1.8-1.1,3.8-3.9,3.8c-1.3,0-2.8-0.5-4.7-1.2c-3.1-1.1-7.2-2.5-12.8-2.5
		c-23.3,0-24.5,18.2-24.5,21.8c0,5.1,0,14.6,19,23.7l7.5,3.6c6.8,3.2,12.7,6,12.7,13.9c0,1.3-0.4,12.8-14.2,12.8
		c-16.5,0-21.6-16.6-23.1-23.9h-2.8v27.1h2.8c0.4-1.7,1-3.8,3.5-3.8c1.3,0,2.8,0.5,4.7,1.1c3.3,1.1,7.7,2.7,14.4,2.7
		c18.9,0,27.5-12,27.5-23.1c0-13.9-10.9-19.7-12.2-20.4L187,27.4c-9.5-4.7-11.7-7.3-11.7-13.4c0-7.5,6.3-10.9,12.2-10.9
		c12.3,0,19.6,11.1,22.1,20.7h2.7V0H209.5z"/>
    <path id="XMLID_6_" class="st0" d="M351.7,63.2c0,11.8,8.6,17.1,16.6,17.1c11.9,0,17.7-9.5,21.2-15.2c-0.4-0.2-2.6-1.5-2.9-1.7
		c-2.8,4.1-6.9,10.2-13,10.2c-5.2,0-7.8-3.2-7.8-9.5c0-2.1,0.2-3.5,0.7-5.6l0.1-0.2h0.2c21-3.3,28.7-14.7,28.7-21.2
		c0-7.8-7.4-9.9-11.4-9.9C365.3,27.3,351.7,48.7,351.7,63.2 M367.3,54.9c1.4-6.3,7.1-24.4,14.8-24.4c3.5,0,3.5,3.1,3.5,4.1
		c0,3.7-1.3,16.2-18,20.6l-0.4,0.1L367.3,54.9z"/>
    <path id="XMLID_5_" class="st0" d="M431.3,33.1c0,3.8,1.7,5,3.4,6.1c1.4,1,2.8,1.9,2.8,4.4c0,4.1-4.6,13.1-9.5,22.5l-0.1,0.1
		l-0.2,0.1h-0.5l-1.4-8.3c-1.7-9.6-5.2-25.6-7.4-31c-4.3,1.1-10.2,2.1-16.4,2.6v2.6c4.3,0,5.5,0.3,9.3,17.3c0.7,3,5.1,24.2,5.1,29.9
		c0,6.4-7,13.2-10.1,13.2c-1.5,0-3.6-1.3-4.6-2c-1.9-1.3-3.8-1.9-5.8-1.9c-4.3,0-5.7,3.9-5.7,5.8c0,2.7,2.2,6.5,6.4,6.5
		c10.1,0,19.4-8.5,31.9-29.3l0.2-0.3c4.6-7.6,15.3-26.5,15.3-37.9c0-3.5-3.3-6.7-6.8-6.7C434,27,431.3,30.3,431.3,33.1"/>
    <path id="XMLID_2_" class="st0" d="M350.8,31.1v-2.4h-22.9v2.4c2.9,0.1,5.8,0.3,5.8,3.1c0,3.7-11.3,12.5-16.8,16.7l-1.7,1.3
		l-0.5-0.5c0,0,13.5-50.4,13.7-51.1c-7,1.3-16.1,2.6-22.9,3.3v2.6c2.5-0.1,4.8-0.1,6.1,1.1c0.7,0.7,1,1.6,1,2.9
		c0,1.5-0.4,3.1-0.9,4.8c0,0-6.7,24.2-11.8,42.8c-15.5,14.5-30.6,16.8-38.4,16.8c-20.9,0-35.4-14-35.4-34.1
		c0-21.6,13.4-36.7,32.7-36.7c21.3,0,32.7,18.4,32.7,31.7c0,8.9-3.4,16.7-8.9,21c-2.8,1.9-6.5,3-10,3c-7.4,0-11.4-6.1-11.8-18.2
		v-0.3h24.3c-0.9-14.3-6.9-21.5-18.1-21.5c-11.6,0-19.7,9.5-19.7,23.1c0,7.7,2.1,13.6,6.2,17.6c4.3,4.2,10.8,6.1,19.2,5.8
		c17.1-0.6,23.2-17.3,24.1-27.1c0.9-10.3-2.1-19.5-8.8-26.8C280.8,4.5,270.2,0,258.9,0c-24.4,0-42.7,18.1-42.7,42.2
		c0,15.6,13.9,37.6,45,37.6c11.2,0,24.3-1.8,37.2-14.9c-2.1,7.5-3.6,13.2-3.9,14.1h13.3c0.1-0.4,5.6-21,5.6-21
		c0.1-0.1,4.5-3.2,4.5-3.2l0.3-0.2l0.1,0.4c2.5,13.7,5.2,25,13.8,25c7.5,0,12.1-8.5,14.8-13.5c0,0,0-0.1,0.1-0.1
		c-0.3-0.2-1.8-0.9-2.1-1c-0.1,0.1-0.1,0.2-0.1,0.2c-1.5,2.6-4,6.9-6.9,6.9c-4,0-5.6-8.1-9.1-25.9l-0.1-0.3l7.2-6.3
		C344.2,32.1,346.9,31.6,350.8,31.1 M260.1,38c0-13.8,3.6-15.7,7.1-15.7c2.8,0,4.6,1.5,5.4,4.7c0.7,2.5,0.8,6.5,0.8,9.5v1.7H260V38
		H260.1z"/>
  </g>
</svg>
