<svg xmlns="http://www.w3.org/2000/svg" xml:space="preserve" id="Layer_1" x="0" y="0" viewBox="0 0 444 101"><style>.st0{fill:#ed1c24}</style><g id="XMLID_1_"><path id="XMLID_11_" d="M87.3 1.8v2.3h.1c3.8.2 7.7.4 7.7 5.1 0 2.2-.4 3.4-.7 4.5l-.1.3-12.6 38.3h-.6l-12.2-38c-.6-2.1-1.4-4.4-1.4-5.6 0-3.9 3.3-4.2 7.9-4.5h.2V1.9H41.2v2.3c5.2.3 6.5 1.5 8 4L53.1 19c0 .2-13.1 34.3-13.1 34.3l-.1.2h-.6L26 12.8c-.5-1.5-.8-2.7-.8-3.8 0-4.3 3.3-4.6 7.2-4.9V1.8H0v2.4c4.5.7 5.8 1.9 7.7 7.3 0 0 23 65.4 23.7 67.2h2.8c.1-.3 20.4-52.4 20.4-52.4h1.1s18.7 52 18.8 52.4h2.7l22.3-67.2c1.4-4.4 4-6.9 7.7-7.3V1.8z" class="st0"/><path id="XMLID_10_" d="M115.5 1.7V4c5.1.3 10.4.7 10.4 8.2v56.2c0 7.1-4.6 7.6-10.4 8.2v2.3h38.7v-2.3c-6-.4-10.6-.9-10.6-8.2V12.2c0-7.7 5.4-8 10.6-8.2V1.7z" class="st0"/><path id="XMLID_9_" d="M209.5 0c-.5 1.8-1.1 3.8-3.9 3.8-1.3 0-2.8-.5-4.7-1.2-3.1-1.1-7.2-2.5-12.8-2.5-23.3 0-24.5 18.2-24.5 21.8 0 5.1 0 14.6 19 23.7l7.5 3.6c6.8 3.2 12.7 6 12.7 13.9 0 1.3-.4 12.8-14.2 12.8-16.5 0-21.6-16.6-23.1-23.9h-2.8v27.1h2.8c.4-1.7 1-3.8 3.5-3.8 1.3 0 2.8.5 4.7 1.1 3.3 1.1 7.7 2.7 14.4 2.7 18.9 0 27.5-12 27.5-23.1 0-13.9-10.9-19.7-12.2-20.4L187 27.4c-9.5-4.7-11.7-7.3-11.7-13.4 0-7.5 6.3-10.9 12.2-10.9 12.3 0 19.6 11.1 22.1 20.7h2.7V0z" class="st0"/><path id="XMLID_6_" d="M351.7 63.2c0 11.8 8.6 17.1 16.6 17.1 11.9 0 17.7-9.5 21.2-15.2-.4-.2-2.6-1.5-2.9-1.7-2.8 4.1-6.9 10.2-13 10.2-5.2 0-7.8-3.2-7.8-9.5 0-2.1.2-3.5.7-5.6l.1-.2h.2c21-3.3 28.7-14.7 28.7-21.2 0-7.8-7.4-9.9-11.4-9.9-18.8.1-32.4 21.5-32.4 36m15.6-8.3c1.4-6.3 7.1-24.4 14.8-24.4 3.5 0 3.5 3.1 3.5 4.1 0 3.7-1.3 16.2-18 20.6l-.4.1z" class="st0"/><path id="XMLID_5_" d="M431.3 33.1c0 3.8 1.7 5 3.4 6.1 1.4 1 2.8 1.9 2.8 4.4 0 4.1-4.6 13.1-9.5 22.5l-.1.1-.2.1h-.5l-1.4-8.3c-1.7-9.6-5.2-25.6-7.4-31-4.3 1.1-10.2 2.1-16.4 2.6v2.6c4.3 0 5.5.3 9.3 17.3.7 3 5.1 24.2 5.1 29.9 0 6.4-7 13.2-10.1 13.2-1.5 0-3.6-1.3-4.6-2-1.9-1.3-3.8-1.9-5.8-1.9-4.3 0-5.7 3.9-5.7 5.8 0 2.7 2.2 6.5 6.4 6.5 10.1 0 19.4-8.5 31.9-29.3l.2-.3c4.6-7.6 15.3-26.5 15.3-37.9 0-3.5-3.3-6.7-6.8-6.7-3.2.2-5.9 3.5-5.9 6.3" class="st0"/><path id="XMLID_2_" d="M350.8 31.1v-2.4h-22.9v2.4c2.9.1 5.8.3 5.8 3.1 0 3.7-11.3 12.5-16.8 16.7l-1.7 1.3-.5-.5S328.2 1.3 328.4.6c-7 1.3-16.1 2.6-22.9 3.3v2.6c2.5-.1 4.8-.1 6.1 1.1.7.7 1 1.6 1 2.9 0 1.5-.4 3.1-.9 4.8 0 0-6.7 24.2-11.8 42.8-15.5 14.5-30.6 16.8-38.4 16.8-20.9 0-35.4-14-35.4-34.1 0-21.6 13.4-36.7 32.7-36.7 21.3 0 32.7 18.4 32.7 31.7 0 8.9-3.4 16.7-8.9 21-2.8 1.9-6.5 3-10 3-7.4 0-11.4-6.1-11.8-18.2v-.3h24.3c-.9-14.3-6.9-21.5-18.1-21.5-11.6 0-19.7 9.5-19.7 23.1 0 7.7 2.1 13.6 6.2 17.6 4.3 4.2 10.8 6.1 19.2 5.8 17.1-.6 23.2-17.3 24.1-27.1.9-10.3-2.1-19.5-8.8-26.8C280.8 4.5 270.2 0 258.9 0c-24.4 0-42.7 18.1-42.7 42.2 0 15.6 13.9 37.6 45 37.6 11.2 0 24.3-1.8 37.2-14.9-2.1 7.5-3.6 13.2-3.9 14.1h13.3c.1-.4 5.6-21 5.6-21 .1-.1 4.5-3.2 4.5-3.2l.3-.2.1.4c2.5 13.7 5.2 25 13.8 25 7.5 0 12.1-8.5 14.8-13.5 0 0 0-.1.1-.1-.3-.2-1.8-.9-2.1-1-.1.1-.1.2-.1.2-1.5 2.6-4 6.9-6.9 6.9-4 0-5.6-8.1-9.1-25.9l-.1-.3 7.2-6.3c8.3-7.9 11-8.4 14.9-8.9M260.1 38c0-13.8 3.6-15.7 7.1-15.7 2.8 0 4.6 1.5 5.4 4.7.7 2.5.8 6.5.8 9.5v1.7H260V38z" class="st0"/></g></svg>