<svg xmlns="http://www.w3.org/2000/svg" data-name="2022 logo - lt theme" viewBox="0 0 212 75"><path d="M57.62 38c-.31 0-1-.39-1.47-2.24-.76-3-1.15-5.48-2.44-5.48S51.79 32.8 51 35.77c-.45 1.75-.94 2.24-1.71 2.24s-1.47-.35-2.59-4.93c-1-4-1.64-11.21-4.89-11.21s-4.22 9.43-4.64 11.25C36.66 35.35 35.41 38 33.8 38s-2.44-1.85-2.93-3.85c-.74-3-1.58-7.44-3.71-7.44s-2.83 3.64-3.77 7.65c-.56 2.35-1.39 3.64-3 3.64H17a2.87 2.87 0 0 1 1.57 2.27c.53 3.35.94 5.45 2.13 5.45S22.31 44 23 41.18C23.5 39 24.33 38 25.31 38c1.47 0 2.13 1.75 2.94 5.14 1.57 6.7 1.92 10 4.47 10s2.93-3.25 4.61-10c.73-2.9 2.13-5.14 3.74-5.14s2.75 2.13 3.35 3.84c1.26 3.71 1.85 5.1 3.25 5.1s2.2-1.67 3.42-5.73c.77-2.5.91-3.21 3.18-3.21Z" style="fill:#e90029"/><path d="m76.45 47.02-8.63-9.92v9.92h-3.39V26.69h3.39v8.84l8-8.84h4.33l-8.8 9.61 9.57 10.72zM94.57 26.69v3.25h-8.62v4.78h7.68v3.25h-7.68v5.8h8.62v3.25H82.56V26.69zM99.92 26.69l5.13 8.07 5.07-8.07h3.94l-7.37 11.49v8.84h-3.38v-8.84L95.8 26.69zM114.1 40.45h3.35c0 2.17 1.75 3.67 4.19 3.67s3.91-1.15 3.91-2.87c0-4.57-11.21-1.64-11.21-9.08 0-3.35 2.9-5.76 6.88-5.76 4.68 0 7.06 3 7.06 6.39h-3.49c-.07-1.81-1.47-3.18-3.71-3.18-2.06 0-3.42 1-3.42 2.48 0 4.23 11.25 1.26 11.25 9.12 0 3.53-3.11 6.08-7.3 6.08s-7.51-2.87-7.51-6.85M130.97 26.69h3.39v20.33h-3.39zM156.5 37.55a9.51 9.51 0 0 1-9.88 9.75 10.18 10.18 0 0 1-10.27-10.48 10.14 10.14 0 0 1 10.27-10.44c4.57 0 8.69 3.1 9.43 6.67h-3.85c-.76-2-3.17-3.36-5.58-3.36a6.79 6.79 0 0 0-6.74 7.13 6.87 6.87 0 0 0 7 7.16 6.12 6.12 0 0 0 6.18-5.1h-6.35V35.6h9.67a11 11 0 0 1 .14 1.95M175.19 26.69v20.33h-3.39v-8.91h-9.85v8.91h-3.39V26.69h3.39v8.14h9.85v-8.14zM193 29.94h-6.25v17.08h-3.39V29.94h-6.25v-3.25H193z"/></svg>