<svg id="_2022_logo_-_lt_theme" data-name="2022 logo - lt theme" xmlns="http://www.w3.org/2000/svg" viewBox="0 0 212 75"><defs><style>.cls-1{fill:#e90029;}</style></defs><g id="KS-Horizontal-Logo-2021_RGB"><path class="cls-1" d="M57.62,38c-.31,0-1-.39-1.47-2.24-.76-3-1.15-5.48-2.44-5.48S51.79,32.8,51,35.77c-.45,1.75-.94,2.24-1.71,2.24s-1.47-.35-2.59-4.93c-1-4-1.64-11.21-4.89-11.21s-4.22,9.43-4.64,11.25C36.66,35.35,35.41,38,33.8,38s-2.44-1.85-2.93-3.85c-.74-3-1.58-7.44-3.71-7.44s-2.83,3.64-3.77,7.65C22.83,36.71,22,38,20.39,38H17a2.87,2.87,0,0,1,1.57,2.27c.53,3.35.94,5.45,2.13,5.45S22.31,44,23,41.18C23.5,39,24.33,38,25.31,38c1.47,0,2.13,1.75,2.94,5.14,1.57,6.7,1.92,10,4.47,10s2.93-3.25,4.61-10c.73-2.9,2.13-5.14,3.74-5.14s2.75,2.13,3.35,3.84c1.26,3.71,1.85,5.1,3.25,5.1s2.2-1.67,3.42-5.73C51.86,38.71,52,38,54.27,38Z"/><polygon points="76.45 47.02 67.82 37.1 67.82 47.02 64.43 47.02 64.43 26.69 67.82 26.69 67.82 35.53 75.82 26.69 80.15 26.69 71.35 36.3 80.92 47.02 76.45 47.02"/><polygon points="94.57 26.69 94.57 29.94 85.95 29.94 85.95 34.72 93.63 34.72 93.63 37.97 85.95 37.97 85.95 43.77 94.57 43.77 94.57 47.02 82.56 47.02 82.56 26.69 94.57 26.69"/><polygon points="99.92 26.69 105.05 34.76 110.12 26.69 114.06 26.69 106.69 38.18 106.69 47.02 103.31 47.02 103.31 38.18 95.8 26.69 99.92 26.69"/><path d="M114.1,40.45h3.35c0,2.17,1.75,3.67,4.19,3.67s3.91-1.15,3.91-2.87c0-4.57-11.21-1.64-11.21-9.08,0-3.35,2.9-5.76,6.88-5.76,4.68,0,7.06,3,7.06,6.39h-3.49c-.07-1.81-1.47-3.18-3.71-3.18-2.06,0-3.42,1-3.42,2.48,0,4.23,11.25,1.26,11.25,9.12,0,3.53-3.11,6.08-7.3,6.08s-7.51-2.87-7.51-6.85"/><rect x="130.97" y="26.69" width="3.39" height="20.33"/><path d="M156.5,37.55a9.51,9.51,0,0,1-9.88,9.75,10.18,10.18,0,0,1-10.27-10.48,10.14,10.14,0,0,1,10.27-10.44c4.57,0,8.69,3.1,9.43,6.67H152.2c-.76-2-3.17-3.36-5.58-3.36a6.79,6.79,0,0,0-6.74,7.13,6.87,6.87,0,0,0,7,7.16,6.12,6.12,0,0,0,6.18-5.1h-6.35V35.6h9.67a10.84,10.84,0,0,1,.14,1.95"/><polygon points="175.19 26.69 175.19 47.02 171.8 47.02 171.8 38.11 161.95 38.11 161.95 47.02 158.56 47.02 158.56 26.69 161.95 26.69 161.95 34.83 171.8 34.83 171.8 26.69 175.19 26.69"/><polygon points="193 29.94 186.75 29.94 186.75 47.02 183.36 47.02 183.36 29.94 177.11 29.94 177.11 26.69 193 26.69 193 29.94"/></g></svg>