<svg xmlns="http://www.w3.org/2000/svg" xml:space="preserve" viewBox="0 0 105.02 17.88"><path d="M28.516 11.827h-10.17c.425 1.147 1.233 1.822 2.383 2.019 1.772.298 3.435-.057 4.969-.998.124-.076.254-.136.434-.235q.908 1.564 1.841 3.169c-1.179.891-2.494 1.439-3.914 1.768-1.188.276-2.396.285-3.594.2-2.006-.143-3.79-.849-5.128-2.431a7.26 7.26 0 0 1-1.642-3.489c-.26-1.515-.177-3.008.361-4.459.574-1.537 1.588-2.716 2.963-3.594 1.597-1.017 3.375-1.22 5.201-1.084 1.296.098 2.519.507 3.603 1.264C27.309 5 28.213 6.416 28.548 8.2c.225 1.2.199 2.391-.032 3.627m-4.348-3.273c-.203-1.03-1.264-2.215-3.172-2.114-1.242.067-2.443.948-2.687 2.114z"/><path fill="#d70f37" d="M91.845 11.802H81.678c.139.599.475 1.039.906 1.388.672.545 1.464.732 2.329.757 1.645.048 3.118-.434 4.519-1.334.618 1.062 1.226 2.114 1.838 3.166-1.306.973-2.735 1.607-4.313 1.816-1.055.139-2.142.215-3.201.143-1.924-.136-3.66-.795-4.976-2.294-.954-1.084-1.562-2.336-1.778-3.781-.216-1.464-.149-2.9.38-4.285a7.1 7.1 0 0 1 3.134-3.689c1.553-.906 3.248-1.122 4.985-.982 1.981.158 3.698.951 4.998 2.5.846 1.008 1.306 2.193 1.42 3.502.054.593.076 1.192.07 1.787-.005.431-.09.859-.144 1.306M87.497 8.55c-.276-1.122-1.303-2.275-3.337-2.104-1.252.105-2.313.967-2.513 2.104zm-26.054 8.883v-.434c0-2.646-.019-5.292.01-7.936.013-1.068.225-2.111.7-3.087.773-1.588 2.082-2.504 3.736-2.992 1.125-.33 2.285-.364 3.435-.282 1.367.096 2.676.467 3.769 1.339 1.135.9 1.829 2.098 2.079 3.524.108.618.146 1.255.152 1.882.016 2.51.006 5.02.006 7.533v.46H70.7v-.418c0-2.462.016-4.925-.013-7.384a4.2 4.2 0 0 0-.273-1.445c-.396-1.024-1.604-1.486-2.783-1.135-.83.25-1.48 1.154-1.48 2.082q-.004 3.912 0 7.825v.469z" style="--darkreader-inline-fill:var(--darkreader-background-d70f37, #ac0c2c)"/><path d="M45.864 3.065h4.719v.431q0 3.875.003 7.749c0 .71.219 1.344.776 1.803.716.593 1.543.659 2.386.345.77-.288 1.179-.903 1.287-1.699.067-.479.076-.97.079-1.455.01-2.241.003-4.481.003-6.722v-.446h4.63c.006.133.016.254.016.374 0 2.814.067 5.635-.019 8.446-.07 2.272-1.074 4.091-3.153 5.175-.78.412-1.638.65-2.519.7-.656.035-1.315.105-1.968.063-1.727-.111-3.324-.602-4.564-1.889a5.42 5.42 0 0 1-1.518-3.245c-.108-1.027-.139-2.06-.152-3.093-.022-2.031-.006-4.063-.006-6.097zm-1.138 3.869-3.705 1.949c-.285-.323-.551-.662-.856-.967-1.512-1.512-4.573-1.116-5.305 1.293-.383 1.255-.162 2.456.786 3.385 1.001.982 2.339 1.163 3.654.58.713-.317 1.236-.833 1.623-1.553.621.364 1.233.716 1.841 1.078.52.307 1.027.634 1.553.925.282.158.371.273.168.596-1.268 2.035-3.109 3.156-5.454 3.473-1.746.235-3.464.105-5.055-.707a6.86 6.86 0 0 1-2.887-2.71c-.532-.922-.824-1.905-.951-2.963-.165-1.394-.051-2.754.447-4.066.441-1.166 1.163-2.126 2.13-2.922a7 7 0 0 1 2.611-1.344c1.179-.33 2.38-.374 3.597-.235 1.375.155 2.608.631 3.708 1.474.929.714 1.613 1.614 2.095 2.714M0 15.367c.65-.992 1.264-1.927 1.873-2.865.155-.241.254-.32.542-.086 1.245 1.024 2.653 1.667 4.31 1.578q.324-.024.627-.139c.301-.105.52-.295.542-.653.022-.364-.222-.545-.482-.656-.586-.244-1.195-.434-1.791-.656-.989-.371-2.019-.634-2.909-1.239C1.528 9.847.935 8.753.897 7.305.865 6.132 1.211 5.128 2 4.297A5 5 0 0 1 4.614 2.84c2.174-.463 4.304-.364 6.3.729.472.257.906.58 1.398.897-.507.776-.973 1.489-1.439 2.206-.152.231-.317.456-.45.697-.111.203-.203.209-.396.086-.776-.491-1.6-.9-2.516-1.039a3.8 3.8 0 0 0-1.23.019c-.456.078-.716.385-.719.692-.003.279.307.647.675.767.545.181 1.103.336 1.645.523 1.15.393 2.298.792 3.296 1.524.856.631 1.331 1.455 1.445 2.523.098.916-.01 1.775-.425 2.592-.551 1.087-1.442 1.794-2.545 2.266-1.394.599-2.871.599-4.332.494-1.623-.117-3.109-.713-4.427-1.68-.311-.224-.587-.499-.894-.769"/><path fill="#d70f37" d="M95.008 6.959H92.83V3.071h2.244V0h4.621v3.049h4.465V6.95h-4.424c-.01.139-.025.247-.025.352-.003 1.493-.01 2.989.003 4.481.006.463.13.906.463 1.264.634.685 1.413.596 2.193.39.463-.12.906-.32 1.398-.498l1.233 3.686c-.7.517-1.499.767-2.307.951-1.493.345-2.998.421-4.488-.041-1.572-.488-2.478-1.6-2.906-3.15-.231-.837-.307-1.686-.298-2.554.018-1.601.006-3.205.006-4.872" style="--darkreader-inline-fill:var(--darkreader-background-d70f37, #ac0c2c)"/></svg>