<svg version="1.2" xmlns="http://www.w3.org/2000/svg" viewBox="0 0 376 65">
	<title>SafeCipher</title>
	<style>
		.s0 { fill: #000000 } 
	</style>
	<path id="SafeCipher" fill-rule="evenodd" class="s0" d="m2.5 42.1c1.3-4.2 4.3-2.3 6.4-2 4.5 0.5 8.9 0.9 13.3-0.3 1.7-0.4 3.5-0.9 3.8-2.8 0.4-2.3-1.6-3-3.2-3.8-4.8-2.4-10.2-3.3-14.8-6-9.6-5.6-9.5-17.4 0.1-23 4-2.3 8.3-3.4 12.9-3.5 4.1-0.1 8.3 0.2 12.4-0.1 4.8-0.2 7 1.5 6 6.4-0.3 1.6 0.3 3.4-0.8 5.1-4.4 1.1-8.7-1.3-13.2-0.8-2.8 0.4-7-0.5-7.7 2.9-0.8 4 3.6 4.1 6.2 5.1 3.9 1.5 8 2.5 11.5 4.7 9.1 5.8 9.2 17.4 0.2 23.1-6.8 4.4-14.5 4.5-22.2 4.6-1.3 0-2.6-0.3-4-0.3-8.1-0.3-8.4-0.7-6.9-9.3zm250.8 5.3c-5.7 4.3-12.1 4.2-18.2 4.5-1.2 1.8-0.7 3.5-0.7 5.1-0.1 6.3-5.1 9.4-10.9 6.6-1.8-0.8-1.8-2.2-1.8-3.7 0-12.8 0-25.6 0-38.4 0-2.4 1-3.7 3.3-4.2 7.5-1.7 15.1-2.5 22.6-0.1 13.4 4.2 16.4 19.7 5.7 30.2zm-8.4-8.1c1.9-3.2 2.4-6.5 0.6-9.9-1.9-3.6-5.2-4.6-8.9-4-3.7 0.8-2 4-2.2 6.2-0.3 2.3 0 4.7-0.1 7-0.1 3.4 2 4.3 4.9 3.9 1.9-0.3 3.8-1.1 5.7-3.2zm-61.9-38.6c1.8 0 3.1-0.1 4.4 0 7.3 0.6 9.3 3.7 6.8 10.4-0.7 2-2.1 1.7-3.6 1.5-4-0.6-8-0.8-12-0.3-6.5 0.8-11 4.9-12.1 10.9-1.1 6.1 1.8 12 7.6 14.9 4.8 2.3 9.8 2.9 15.1 1.8 1.8-0.4 4.9-1.5 4.9 2 0 3.1 2.5 8-2.6 8.8-10.9 1.9-21.7 1.6-30.8-6.1-8.2-6.9-10.9-17.4-7.4-27.6 3.2-9.3 12.8-15.9 23.7-16.3 1.8-0.1 3.6 0 6 0zm82.7 10.3c0-1-0.1-1.5 0-2 0-7 3.4-9.3 10.3-7.2 2.1 0.7 2.2 2.2 2.2 3.9 0.1 3.8 0 7.5 0 11.2 2.9 0.5 4.8-0.4 6.7-0.8 9.4-1.9 16.7 3.5 17.2 13 0.3 5.6 0 11.3 0.1 17 0.2 5.2-3.5 4.2-6.5 4.2-2.9 0.1-6.3 0.8-6.1-4.1 0.2-4.5 0.1-9 0-13.5-0.1-3.9-1.4-7.2-5.9-7.1-4.4 0.1-5.7 3.1-5.5 7.2 0.2 4-0.2 8 0.1 12 0.5 5-2.1 5.7-6.3 5.7-3.9-0.1-6.6-0.2-6.4-5.5 0.3-11.1 0.1-22.3 0.1-34zm64.5 40.7c-5.2-0.3-9.9-1.1-14.3-3.5-6.7-3.8-10.1-10.5-9.1-17.9 1-7.1 5.6-11.9 13.2-13.8 11.5-2.8 22.2 3 24.2 13.2 1 5.5 0.3 6.5-5.3 6.5-5.8 0-11.6 0-17.9 0 1 3.8 3.7 4.6 6.3 5.4 2.9 0.8 5.9 1.5 8.9 0.9 3.6-0.6 4.7 0.9 5 4.2 0.3 3.6-1.2 4.8-4.6 4.7-2 0-4 0.3-6.4 0.3zm-0.2-25c-3.4-3.4-6-3.4-9 0.5 3 0.8 5.8 0.8 9-0.5zm-283.3 18.2c-2.2-8.6 2-14.5 10.5-15.2 3.5-0.2 6.9 0 10.4 0-1-5-2.6-5.3-14.1-2.8-4.6-6.3-3.9-8.4 3.4-10.2 3-0.7 6.1-1.2 9.3-0.9 10.5 1 14.8 5.7 14.9 16.1 0.1 4.9 0 9.7 0 14.5 0 2.6-1 4.1-3.9 4-6-0.3-11.9-0.2-17.9 0.9-5.2 1-9.9-0.8-12.6-6.4zm14.4-2.4c3.1 0.3 5.9-0.1 7.3-3.7-2.4-2-5-1.9-7.3-1.2-2.8 0.8-3.9 2.6 0 4.9zm64.3-4.4c5.2 5.2 11.7 4.5 17.9 4.4 2.7 7.6 2.2 8.5-5.2 9.1-5.9 0.4-11.6-0.2-17-2.8-8-3.7-11.5-10.2-10.4-19 0.8-6.7 6.2-11.9 14.1-13.6 11-2.4 21.2 3.8 23.3 14.2 0.7 3.8 0.1 6.1-4.6 5.8-5-0.2-10-0.1-15 0.1-1.1 0-3.2-1.1-3.1 1.8zm7.4-12.9c-2.9-1-5.8-2-8.1 1.9 2.8 1.1 5.4 0.7 8 0.5 1.4-0.1 1.4-1 0.1-2.4zm-48.8-3.2c0.1-2.6 0.3-4.7 3.1-5.3 2-0.4 2.3-2.3 2.5-4 1.3-9.6 12.9-13.4 20.2-11.7 4.8 1.1 1.8 5.4 2.4 8.6-2.7 0.6-5.1 1.1-7.4 1.8-1.5 0.5-2.5 1.8-2.4 3.5 0.2 2.1 2 1.9 3.5 1.9 3.8 0.1 3.3 2.8 3.4 5.3 0.2 2.9-0.8 4.5-3.9 4.2-3.2-0.3-4 1.5-4 4.3 0.1 5-0.2 10 0.1 15 0.3 4.8-2.6 4.8-6.1 4.8-3.5 0-6.8 0.2-6.5-5 0.3-3.8 0.1-7.6 0.1-11.5-0.1-3.3 1-7.1-4-8.3-1.1-0.2-1-2-1-3.6zm269.1-5.2c2.8 0.2 5.5-0.7 7.3 1.8 0.7 0.8 1.5 0.5 2.3 0.1 0.6-0.3 1.1-0.7 1.8-0.9 3-1.3 6.6-3.4 9.4-1.4 3.1 2.1 0.8 6.1 1.2 9-0.7 0.5-1 0.8-1.2 0.8-10.6 0.8-10.6 0.8-10.6 11.7 0 2-0.2 4 0 6 0.6 4.9-1.2 6.6-6.3 6.6-5.2 0-6.6-1.7-6.5-6.6 0.3-7.8 0.8-15.7-1.4-23.3-0.9-3.2 1-3.8 4-3.8zm-139.2 28c0.4 7.3-4.7 5.2-8.3 5.6-4.5 0.4-4.6-2.5-4.6-5.8 0.1-7.5 0.2-15 0.1-22.4-0.1-5.6 3.5-5.3 7.3-5.4 4.2-0.2 5.7 1.6 5.6 5.6-0.2 7.3-0.1 14.6-0.1 22.4zm-3.6-32.3c-1.2 0.3-2.1 0.7-2.8 0.6-3.3-0.4-6.3-1.4-6.8-5.3-0.4-3.1 1-5.3 4-6 3.5-0.8 7.3-0.9 9.1 2.9 1.5 3.3 0.4 6.2-3.5 7.8z"/>
</svg>