<svg version="1.1" id="Layer_1" xmlns="http://www.w3.org/2000/svg" xmlns:xlink="http://www.w3.org/1999/xlink" x="0px" y="0px"
	 viewBox="0 0 496 496" xml:space="preserve">
<path fill="#000000" stroke="none" 
	d="
M59.530884,231.147507 
	C60.751202,226.904785 63.769966,228.798126 65.851219,229.055557 
	C70.353661,229.612503 74.765480,230.035675 79.220711,228.833145 
	C80.897530,228.380554 82.653473,227.896072 82.998146,226.045975 
	C83.425926,223.749771 81.395149,222.958389 79.792862,222.163971 
	C75.020615,219.797867 69.641739,218.927902 65.003304,216.203461 
	C55.434185,210.582947 55.455791,198.750443 65.085907,193.189224 
	C69.054428,190.897430 73.406525,189.821823 77.956146,189.697968 
	C82.117119,189.584686 86.294685,189.870575 90.445053,189.633072 
	C95.215569,189.360077 97.357216,191.081360 96.380257,196.023300 
	C96.065498,197.615479 96.660927,199.350372 95.584503,201.116516 
	C91.225533,202.192841 86.903595,199.812027 82.448921,200.325165 
	C79.551003,200.658981 75.449623,199.832031 74.725426,203.244781 
	C73.896416,207.151505 78.323906,207.335693 80.913422,208.327621 
	C84.791519,209.813156 88.889458,210.759048 92.442230,213.015594 
	C101.488411,218.761322 101.593628,230.352936 92.573387,236.144836 
	C85.813499,240.485321 78.104240,240.649384 70.416618,240.664291 
	C69.088692,240.666870 67.761902,240.448059 66.432037,240.393417 
	C58.296825,240.059158 58.039696,239.738968 59.530884,231.147507 
z"/>
<path fill="#000000" opacity="1.000000" stroke="none" 
	d="
M310.292969,236.419617 
	C304.645477,240.743546 298.216553,240.569794 292.128296,240.930405 
	C290.924530,242.684860 291.384155,244.397705 291.360107,246.017807 
	C291.266479,252.325409 286.276886,255.350220 280.503448,252.647217 
	C278.748535,251.825623 278.721649,250.396973 278.719482,248.909653 
	C278.700623,236.101273 278.744843,223.292664 278.682098,210.484573 
	C278.670258,208.066254 279.676941,206.832031 281.977112,206.310822 
	C289.522461,204.601135 297.070221,203.797104 304.621063,206.173691 
	C317.963837,210.373276 321.042572,225.931152 310.292969,236.419617 
M301.862122,228.268204 
	C303.815033,225.082016 304.324036,221.761917 302.502838,218.373398 
	C300.590729,214.815659 297.308746,213.751831 293.628540,214.449585 
	C289.895386,215.157410 291.634583,218.419601 291.393005,220.616714 
	C291.141113,222.907486 291.404968,225.250305 291.342651,227.567657 
	C291.249786,231.020721 293.281647,231.909622 296.169006,231.477951 
	C298.137177,231.183701 300.008179,230.428375 301.862122,228.268204 
z"/>
<path fill="#000000" opacity="1.000000" stroke="none" 
	d="
M239.954254,189.653000 
	C241.765701,189.677277 243.103439,189.634857 244.430847,189.732666 
	C251.666214,190.265762 253.689331,193.449814 251.199142,200.142776 
	C250.458160,202.134338 249.131226,201.793686 247.570526,201.568085 
	C243.600891,200.994370 239.599274,200.845734 235.607254,201.320374 
	C229.128326,202.090729 224.577271,206.194016 223.485504,212.150360 
	C222.367111,218.251999 225.314453,224.225586 231.106567,227.059601 
	C235.869400,229.389999 240.875015,230.029999 246.164429,228.898819 
	C247.990051,228.508408 251.135941,227.358032 251.114471,230.898239 
	C251.095749,233.987061 253.578308,238.874069 248.469513,239.746277 
	C237.584259,241.604721 226.759109,241.327698 217.686768,233.643433 
	C209.472198,226.685715 206.786392,216.168869 210.323257,205.996506 
	C213.538879,196.748184 223.103989,190.137894 233.976654,189.684967 
	C235.806992,189.608719 237.642624,189.659149 239.954254,189.653000 
z"/>
<path fill="#000000" opacity="1.000000" stroke="none" 
	d="
M322.650330,200.039276 
	C322.650604,199.044983 322.649323,198.545395 322.651337,198.045792 
	C322.679749,191.021576 326.071320,188.694366 332.967957,190.805939 
	C335.101288,191.459091 335.209351,193.015686 335.225983,194.702209 
	C335.263092,198.463287 335.237549,202.224991 335.237549,205.881378 
	C338.120422,206.408493 339.953125,205.454666 341.872711,205.072296 
	C351.318085,203.190994 358.609039,208.571030 359.113556,218.098526 
	C359.412567,223.745163 359.083344,229.422256 359.235687,235.080307 
	C359.375397,240.269073 355.709503,239.322372 352.676331,239.340378 
	C349.759888,239.357697 346.392059,240.063995 346.616089,235.167740 
	C346.821381,230.681427 346.686554,226.176315 346.606659,221.681168 
	C346.537537,217.789139 345.232941,214.480377 340.728973,214.576767 
	C336.330933,214.670914 334.962402,217.666229 335.167816,221.793350 
	C335.366302,225.780746 334.950623,229.810120 335.310333,233.775192 
	C335.765594,238.794312 333.207306,239.547714 329.027893,239.452911 
	C325.146851,239.364838 322.379211,239.320602 322.554993,234.003159 
	C322.923462,222.857880 322.656403,211.691620 322.650330,200.039276 
z"/>
<path fill="#000000" opacity="1.000000" stroke="none" 
	d="
M387.226349,240.737030 
	C381.957825,240.386749 377.254364,239.608353 372.931152,237.181992 
	C366.216522,233.413544 362.766510,226.743988 363.795197,219.294266 
	C364.769440,212.238708 369.408112,207.415253 377.027863,205.534378 
	C388.548553,202.690582 399.161285,208.474075 401.159943,218.685394 
	C402.233582,224.170715 401.451233,225.164047 395.895416,225.193634 
	C390.108368,225.224472 384.321045,225.200516 378.005859,225.200516 
	C379.027863,228.975891 381.732880,229.825912 384.339478,230.587296 
	C387.212646,231.426498 390.224457,232.105301 393.193695,231.546265 
	C396.820343,230.863403 397.898071,232.449463 398.188751,235.731842 
	C398.506195,239.316803 396.954376,240.524521 393.612152,240.423462 
	C391.631317,240.363571 389.639923,240.653214 387.226349,240.737030 
M386.958099,215.713013 
	C383.639313,212.275177 381.008362,212.344254 378.019989,216.218155 
	C381.005707,217.020737 383.820892,217.011505 386.958099,215.713013 
z"/>
<path fill="#000000" opacity="1.000000" stroke="none" 
	d="
M103.678207,233.861206 
	C101.474648,225.321518 105.684425,219.393845 114.222870,218.743958 
	C117.667389,218.481796 121.148521,218.700745 124.592537,218.700745 
	C123.570992,213.712814 121.969986,213.379456 110.483574,215.869949 
	C105.885544,209.570358 106.565392,207.498566 113.851074,205.728561 
	C116.931923,204.980103 120.043251,204.467697 123.238632,204.783661 
	C133.712387,205.819321 138.049316,210.490936 138.139755,220.940613 
	C138.181519,225.766129 138.114624,230.592499 138.116211,235.418472 
	C138.117065,238.018875 137.083389,239.483032 134.245560,239.354050 
	C128.238785,239.081024 122.310219,239.204437 116.306358,240.329605 
	C111.111732,241.303085 106.402298,239.496429 103.678207,233.861206 
M118.104095,231.501587 
	C121.245186,231.832932 123.978340,231.400467 125.365265,227.776443 
	C123.022720,225.773300 120.402550,225.876099 118.123367,226.551147 
	C115.290146,227.390305 114.160934,229.192825 118.104095,231.501587 
z"/>
<path fill="#000000" opacity="1.000000" stroke="none" 
	d="
M182.357193,227.134750 
	C187.642075,232.285049 194.098999,231.576233 200.293350,231.496872 
	C203.016495,239.096161 202.532852,239.958862 195.119339,240.551407 
	C189.239136,241.021393 183.503113,240.403519 178.095474,237.846100 
	C170.115646,234.072235 166.617828,227.648224 167.696732,218.793884 
	C168.507584,212.139282 173.910843,206.946533 181.835419,205.206070 
	C192.832565,202.790771 203.020294,209.025192 205.063751,219.372818 
	C205.812256,223.163101 205.151901,225.481323 200.480789,225.237976 
	C195.503662,224.978714 190.497803,225.120621 185.511795,225.295715 
	C184.371384,225.335770 182.255295,224.176880 182.357193,227.134750 
M189.798019,214.185043 
	C186.871841,213.164963 183.961990,212.216354 181.674011,216.102295 
	C184.541992,217.208298 187.139038,216.773087 189.675339,216.605927 
	C191.145615,216.509018 191.088867,215.576813 189.798019,214.185043 
z"/>
<path fill="#000000" opacity="1.000000" stroke="none" 
	d="
M140.989777,211.044373 
	C141.085068,208.379181 141.299332,206.311325 144.130035,205.689865 
	C146.107422,205.255768 146.377335,203.397537 146.605530,201.741608 
	C147.934128,192.100235 159.468857,188.281967 166.806915,189.975403 
	C171.557373,191.071671 168.556976,195.441345 169.151459,198.578339 
	C166.508102,199.229523 164.105789,199.688538 161.797424,200.437241 
	C160.289062,200.926468 159.254898,202.155197 159.412338,203.866272 
	C159.610565,206.020874 161.438202,205.798767 162.861893,205.821625 
	C166.710327,205.883453 166.239746,208.596893 166.348053,211.107956 
	C166.471359,213.967194 165.491714,215.623672 162.367203,215.330017 
	C159.184906,215.030930 158.359970,216.784210 158.406616,219.591721 
	C158.489655,224.589340 158.188446,229.602676 158.474838,234.584915 
	C158.753357,239.429947 155.850662,239.422882 152.415527,239.400970 
	C148.882355,239.378403 145.573135,239.604156 145.922913,234.420547 
	C146.180359,230.605225 146.021149,226.757751 145.957947,222.926071 
	C145.902969,219.593307 146.987717,215.750443 141.971573,214.621277 
	C140.910812,214.382477 141.036682,212.628571 140.989777,211.044373 
z"/>
<path fill="#000000" opacity="1.000000" stroke="none" 
	d="
M410.080719,205.799988 
	C412.936920,205.963089 415.597778,205.129410 417.449677,207.572479 
	C418.094574,208.423187 418.929230,208.084137 419.693481,207.711182 
	C420.291351,207.419418 420.840424,207.020340 421.450714,206.762573 
	C424.525482,205.463776 428.115967,203.402832 430.927826,205.380859 
	C433.986023,207.532211 431.703156,211.483231 432.057434,214.372238 
	C431.390289,214.855194 431.137543,215.195160 430.861115,215.215637 
	C420.297943,215.997818 420.297333,215.993927 420.279205,226.891174 
	C420.275848,228.890686 420.076508,230.914352 420.314514,232.884964 
	C420.909576,237.811554 419.130798,239.537750 413.956024,239.540771 
	C408.773834,239.543793 407.377167,237.812378 407.546936,232.887161 
	C407.815582,225.094101 408.268372,217.224472 406.085327,209.551987 
	C405.181091,206.374008 407.146912,205.813416 410.080719,205.799988 
z"/>
<path fill="#000000" opacity="1.000000" stroke="none" 
	d="
M270.876892,233.774200 
	C271.343414,241.130219 266.226562,238.994812 262.643524,239.353638 
	C258.142975,239.804337 257.991913,236.858978 258.023560,233.608627 
	C258.096405,226.128021 258.197235,218.644409 258.061462,211.166107 
	C257.960754,205.620407 261.565613,205.915497 265.424347,205.760910 
	C269.610535,205.593185 271.053192,207.386963 270.971191,211.358063 
	C270.820190,218.670212 270.899628,225.987122 270.876892,233.774200 
z"/>
<path fill="#000000" opacity="1.000000" stroke="none" 
	d="
M267.252319,201.520477 
	C266.068665,201.823608 265.239960,202.182114 264.460541,202.095779 
	C261.150269,201.729095 258.247955,200.664490 257.724609,196.791031 
	C257.309570,193.719040 258.717072,191.522079 261.679413,190.834564 
	C265.171753,190.024078 268.962769,189.886154 270.777374,193.714218 
	C272.316040,196.960144 271.216125,199.858444 267.252319,201.520477 
z"/>
</svg>
