<svg xmlns="http://www.w3.org/2000/svg" viewBox="0 0 376 65"><title>SafeCipher</title><path fill-rule="evenodd" d="M2.5 42.1c1.3-4.2 4.3-2.3 6.4-2 4.5.5 8.9.9 13.3-.3 1.7-.4 3.5-.9 3.8-2.8.4-2.3-1.6-3-3.2-3.8-4.8-2.4-10.2-3.3-14.8-6-9.6-5.6-9.5-17.4.1-23C12.1 1.9 16.4.8 21 .7c4.1-.1 8.3.2 12.4-.1 4.8-.2 7 1.5 6 6.4-.3 1.6.3 3.4-.8 5.1-4.4 1.1-8.7-1.3-13.2-.8-2.8.4-7-.5-7.7 2.9-.8 4 3.6 4.1 6.2 5.1 3.9 1.5 8 2.5 11.5 4.7 9.1 5.8 9.2 17.4.2 23.1-6.8 4.4-14.5 4.5-22.2 4.6-1.3 0-2.6-.3-4-.3-8.1-.3-8.4-.7-6.9-9.3m250.8 5.3c-5.7 4.3-12.1 4.2-18.2 4.5-1.2 1.8-.7 3.5-.7 5.1-.1 6.3-5.1 9.4-10.9 6.6-1.8-.8-1.8-2.2-1.8-3.7V21.5c0-2.4 1-3.7 3.3-4.2 7.5-1.7 15.1-2.5 22.6-.1 13.4 4.2 16.4 19.7 5.7 30.2m-8.4-8.1c1.9-3.2 2.4-6.5.6-9.9-1.9-3.6-5.2-4.6-8.9-4-3.7.8-2 4-2.2 6.2-.3 2.3 0 4.7-.1 7-.1 3.4 2 4.3 4.9 3.9 1.9-.3 3.8-1.1 5.7-3.2M183 .7c1.8 0 3.1-.1 4.4 0 7.3.6 9.3 3.7 6.8 10.4-.7 2-2.1 1.7-3.6 1.5-4-.6-8-.8-12-.3-6.5.8-11 4.9-12.1 10.9-1.1 6.1 1.8 12 7.6 14.9 4.8 2.3 9.8 2.9 15.1 1.8 1.8-.4 4.9-1.5 4.9 2 0 3.1 2.5 8-2.6 8.8-10.9 1.9-21.7 1.6-30.8-6.1-8.2-6.9-10.9-17.4-7.4-27.6C156.5 7.7 166.1 1.1 177 .7c1.8-.1 3.6 0 6 0M265.7 11c0-1-.1-1.5 0-2 0-7 3.4-9.3 10.3-7.2 2.1.7 2.2 2.2 2.2 3.9.1 3.8 0 7.5 0 11.2 2.9.5 4.8-.4 6.7-.8 9.4-1.9 16.7 3.5 17.2 13 .3 5.6 0 11.3.1 17 .2 5.2-3.5 4.2-6.5 4.2-2.9.1-6.3.8-6.1-4.1.2-4.5.1-9 0-13.5-.1-3.9-1.4-7.2-5.9-7.1-4.4.1-5.7 3.1-5.5 7.2.2 4-.2 8 .1 12 .5 5-2.1 5.7-6.3 5.7-3.9-.1-6.6-.2-6.4-5.5.3-11.1.1-22.3.1-34m64.5 40.7c-5.2-.3-9.9-1.1-14.3-3.5-6.7-3.8-10.1-10.5-9.1-17.9 1-7.1 5.6-11.9 13.2-13.8 11.5-2.8 22.2 3 24.2 13.2 1 5.5.3 6.5-5.3 6.5H321c1 3.8 3.7 4.6 6.3 5.4 2.9.8 5.9 1.5 8.9.9 3.6-.6 4.7.9 5 4.2.3 3.6-1.2 4.8-4.6 4.7-2 0-4 .3-6.4.3m-.2-25c-3.4-3.4-6-3.4-9 .5 3 .8 5.8.8 9-.5M46.7 44.9c-2.2-8.6 2-14.5 10.5-15.2 3.5-.2 6.9 0 10.4 0-1-5-2.6-5.3-14.1-2.8-4.6-6.3-3.9-8.4 3.4-10.2 3-.7 6.1-1.2 9.3-.9 10.5 1 14.8 5.7 14.9 16.1.1 4.9 0 9.7 0 14.5 0 2.6-1 4.1-3.9 4-6-.3-11.9-.2-17.9.9-5.2 1-9.9-.8-12.6-6.4m14.4-2.4c3.1.3 5.9-.1 7.3-3.7-2.4-2-5-1.9-7.3-1.2-2.8.8-3.9 2.6 0 4.9m64.3-4.4c5.2 5.2 11.7 4.5 17.9 4.4 2.7 7.6 2.2 8.5-5.2 9.1-5.9.4-11.6-.2-17-2.8-8-3.7-11.5-10.2-10.4-19 .8-6.7 6.2-11.9 14.1-13.6 11-2.4 21.2 3.8 23.3 14.2.7 3.8.1 6.1-4.6 5.8-5-.2-10-.1-15 .1-1.1 0-3.2-1.1-3.1 1.8m7.4-12.9c-2.9-1-5.8-2-8.1 1.9 2.8 1.1 5.4.7 8 .5 1.4-.1 1.4-1 .1-2.4M84 22c.1-2.6.3-4.7 3.1-5.3 2-.4 2.3-2.3 2.5-4C90.9 3.1 102.5-.7 109.8 1c4.8 1.1 1.8 5.4 2.4 8.6-2.7.6-5.1 1.1-7.4 1.8-1.5.5-2.5 1.8-2.4 3.5.2 2.1 2 1.9 3.5 1.9 3.8.1 3.3 2.8 3.4 5.3.2 2.9-.8 4.5-3.9 4.2-3.2-.3-4 1.5-4 4.3.1 5-.2 10 .1 15 .3 4.8-2.6 4.8-6.1 4.8s-6.8.2-6.5-5c.3-3.8.1-7.6.1-11.5-.1-3.3 1-7.1-4-8.3-1.1-.2-1-2-1-3.6m269.1-5.2c2.8.2 5.5-.7 7.3 1.8.7.8 1.5.5 2.3.1.6-.3 1.1-.7 1.8-.9 3-1.3 6.6-3.4 9.4-1.4 3.1 2.1.8 6.1 1.2 9-.7.5-1 .8-1.2.8-10.6.8-10.6.8-10.6 11.7 0 2-.2 4 0 6 .6 4.9-1.2 6.6-6.3 6.6-5.2 0-6.6-1.7-6.5-6.6.3-7.8.8-15.7-1.4-23.3-.9-3.2 1-3.8 4-3.8m-139.2 28c.4 7.3-4.7 5.2-8.3 5.6-4.5.4-4.6-2.5-4.6-5.8.1-7.5.2-15 .1-22.4-.1-5.6 3.5-5.3 7.3-5.4 4.2-.2 5.7 1.6 5.6 5.6-.2 7.3-.1 14.6-.1 22.4m-3.6-32.3c-1.2.3-2.1.7-2.8.6-3.3-.4-6.3-1.4-6.8-5.3-.4-3.1 1-5.3 4-6 3.5-.8 7.3-.9 9.1 2.9 1.5 3.3.4 6.2-3.5 7.8" style="fill:#000"/></svg>