<svg 
  xmlns="http://www.w3.org/2000/svg" viewBox="0 0 38.673 23">
  <g data-name="Group 38206">
    <path data-name="Path 47607" d="M184.859 20.645c3.855 0 5.088-1.619 5.088-3.6V14.4a2.957 2.957 0 0 0-2.544-2.93 2.7 2.7 0 0 0 1.927-2.75V6.64c0-1.927-1.234-3.469-5.088-3.469h-3.958c-.308 0-.437.154-.437.488v16.5c0 .334.128.488.437.488zm-.617-15.522c1.927 0 2.75.591 2.75 1.825v1.825c0 1.208-.8 1.979-2.621 1.979h-2.184V5.124zm.54 7.452c2.03 0 2.827.8 2.827 1.927v2.236c0 1.234-.822 1.953-2.75 1.953h-2.673v-6.115z" transform="translate(-179.848 -2.733)" style="fill:#004180"/>
    <path data-name="Path 47608" d="M197.1 3.149c0-.334-.128-.488-.463-.488h-1.362c-.334 0-.463.154-.463.488v16.935c0 .334.128.488.463.488h1.362c.334 0 .463-.154.463-.488z" transform="translate(-181.994 -2.66)" style="fill:#004180"/>
    <path data-name="Path 47609" d="M200.811 18.242c0 2 1.311 3.366 4.5 3.366s4.5-1.362 4.5-3.366v-6.425c0-2-1.311-3.366-4.5-3.366s-4.5 1.362-4.5 3.366zm6.707-.077c0 .977-.617 1.568-2.21 1.568s-2.21-.591-2.21-1.568v-6.27c0-.977.617-1.542 2.21-1.542s2.21.565 2.21 1.542z" transform="translate(-182.854 -3.49)" style="fill:#004180"/>
    <path data-name="Path 47610" d="M217.6 21.608a5.777 5.777 0 0 0 3.6-1.285v2.647c0 .977-.565 1.593-2.21 1.593h-3.007c-.334 0-.488.154-.488.463v1c0 .334.154.463.488.463h3.058c3.161 0 4.446-1.336 4.446-3.315V9.144c0-.334-.128-.488-.463-.488h-1.259c-.334 0-.437.154-.463.488l-.051.694a5.522 5.522 0 0 0-3.651-1.387 2.819 2.819 0 0 0-3.109 3.084v6.99a2.819 2.819 0 0 0 3.109 3.083zM216.781 12c0-.822.385-1.465 1.568-1.465a4.779 4.779 0 0 1 2.852 1.131v6.759a4.779 4.779 0 0 1-2.852 1.131c-1.208 0-1.568-.668-1.568-1.465z" transform="translate(-184.816 -3.49)" style="fill:#004180"/>
  </g>
</svg>
