<svg xmlns="http://www.w3.org/2000/svg" viewBox="0 0 375 375"><defs><clipPath id="c"><path d="M0 0h222v64H0z"/></clipPath><clipPath id="d"><path d="M0 0h221v43H0z"/></clipPath></defs><g fill="#0d2959" clip-path="url(#c)" transform="translate(134.108 136.766)"><path d="M36.545 14.416v37.86h-3.61c-.562 0-1.031-.086-1.406-.266q-.562-.282-1.078-.938L10.685 25.838q.155 1.722.156 3.187v23.25H4.638V14.416h3.688c.289 0 .547.016.765.047.22.023.41.074.579.156.164.074.328.188.484.344q.233.221.531.578L30.53 40.885a72 72 0 0 1-.14-1.797 32 32 0 0 1-.048-1.656V14.416ZM76.175 33.291v15.313q-2.877 2.126-6.141 3.109c-2.18.656-4.5.984-6.969.984-3.094 0-5.898-.476-8.406-1.437q-3.751-1.435-6.406-4-2.66-2.579-4.094-6.14c-.961-2.376-1.438-4.962-1.438-7.766q-.001-4.266 1.375-7.829c.926-2.375 2.239-4.414 3.938-6.125q2.56-2.577 6.203-3.984c2.426-.945 5.148-1.422 8.172-1.422 1.531 0 2.96.125 4.297.375a22 22 0 0 1 3.719 1q1.717.644 3.125 1.563 1.42.926 2.593 2.015l-2.015 3.188q-.471.768-1.235.937-.75.177-1.64-.375l-1.735-1a11 11 0 0 0-1.922-.859q-1.065-.375-2.39-.61-1.314-.234-3.031-.234-2.814.002-5.079.953a10.7 10.7 0 0 0-3.859 2.688q-1.594 1.752-2.469 4.219-.86 2.453-.86 5.5-.001 3.235.923 5.796.938 2.55 2.625 4.313c1.133 1.18 2.492 2.078 4.078 2.703q2.372.924 5.312.922 2.093 0 3.735-.438 1.652-.452 3.234-1.203v-6.859H65.05q-.69 0-1.063-.375a1.3 1.3 0 0 1-.375-.938v-3.984zM90.006 30.291h1.657q.995 0 1.64-.281a2.96 2.96 0 0 0 1.14-.875l10.438-13.219q.656-.843 1.375-1.172.715-.328 1.829-.328h6.062l-12.75 15.734q-1.126 1.44-2.328 2.047c.57.211 1.086.5 1.547.875q.702.563 1.328 1.485L115.1 52.275h-6.203c-.844 0-1.477-.113-1.89-.343a2.85 2.85 0 0 1-1.016-1.047L95.272 36.9q-.502-.702-1.156-.984c-.43-.195-1.055-.297-1.875-.297h-2.235v16.656h-7.03V14.416h7.03ZM154.953 33.354c0 2.773-.461 5.34-1.375 7.703q-1.377 3.55-3.891 6.14-2.502 2.594-6.047 4.047-3.532 1.453-7.844 1.453-4.3 0-7.828-1.453-3.532-1.452-6.062-4.047-2.532-2.59-3.922-6.14-1.376-3.545-1.375-7.703c0-2.782.457-5.352 1.375-7.72q1.39-3.544 3.922-6.14c1.687-1.726 3.707-3.078 6.062-4.047q3.528-1.453 7.828-1.453c1.914 0 3.72.227 5.407.672q2.543.674 4.671 1.89a17.2 17.2 0 0 1 3.813 2.97 17.8 17.8 0 0 1 2.86 3.874c.788 1.43 1.39 2.98 1.796 4.657q.61 2.52.61 5.297m-7.188 0q0-3.123-.844-5.594-.844-2.468-2.39-4.203-1.536-1.734-3.75-2.64-2.22-.922-4.985-.923-2.784.001-5 .922a10.2 10.2 0 0 0-3.765 2.64q-1.547 1.737-2.391 4.204-.844 2.471-.844 5.594 0 3.11.844 5.593.845 2.472 2.39 4.188a10.5 10.5 0 0 0 3.766 2.625q2.216.907 5 .906 2.765.002 4.985-.906 2.214-.92 3.75-2.625 1.546-1.717 2.39-4.188.844-2.484.844-5.593M172.592 32.432c1.32 0 2.477-.164 3.47-.5q1.481-.498 2.437-1.375a5.5 5.5 0 0 0 1.422-2.078q.468-1.2.468-2.641 0-2.887-1.906-4.422-1.892-1.547-5.781-1.547h-4.516v12.563zm18.11 19.843h-6.36q-1.8 0-2.609-1.406l-7.969-12.125q-.439-.686-.984-.969-.535-.294-1.578-.296h-3.016v14.796h-7.031V14.416h11.547q3.841 0 6.594.797 2.763.797 4.53 2.25 1.78 1.44 2.61 3.437.844 2.004.844 4.407c0 1.281-.188 2.492-.563 3.625a10.5 10.5 0 0 1-1.625 3.078 10.9 10.9 0 0 1-2.625 2.437q-1.546 1.048-3.546 1.657.685.393 1.265.921c.383.356.735.778 1.047 1.266zM201.876 20.025v10.5h13.25v5.407h-13.25V46.65h16.813v5.625h-23.875V14.416h23.875v5.61Zm0 0"/></g><g fill="#344d79" clip-path="url(#d)" transform="translate(134.108 190.766)"><path d="M6.992 12.436v8.688H17.21v2.734H6.992v10.688h-3.36V9.686h15.313v2.75zM44.79 22.124q0 2.799-.89 5.14-.88 2.33-2.5 4.016c-1.075 1.117-2.368 1.984-3.876 2.61-1.511.617-3.18.921-5 .921-1.824 0-3.492-.304-5-.922-1.5-.625-2.789-1.492-3.859-2.609-1.074-1.125-1.906-2.461-2.5-4.016q-.89-2.341-.89-5.14 0-2.778.89-5.11.89-2.344 2.5-4.03c1.07-1.134 2.36-2.009 3.86-2.626q2.262-.937 5-.937 2.731 0 5 .937 2.262.925 3.874 2.625 1.622 1.688 2.5 4.031.891 2.332.891 5.11m-3.453 0q-.002-2.279-.625-4.094c-.418-1.219-1.012-2.242-1.781-3.078a7.6 7.6 0 0 0-2.766-1.938q-1.627-.686-3.64-.687-2.004 0-3.626.687a7.7 7.7 0 0 0-2.78 1.938q-1.161 1.252-1.782 3.078-.626 1.814-.625 4.094-.001 2.297.625 4.11.621 1.813 1.781 3.077a7.7 7.7 0 0 0 2.781 1.922q1.623.656 3.625.656c1.344 0 2.555-.218 3.641-.656a7.6 7.6 0 0 0 2.766-1.922c.77-.844 1.363-1.867 1.78-3.078q.624-1.811.626-4.11M57.754 31.874c1.031 0 1.945-.172 2.75-.516a5.9 5.9 0 0 0 2.062-1.453 6.3 6.3 0 0 0 1.282-2.234q.435-1.312.437-2.875V9.686h3.36v15.11q-.001 2.158-.688 4a9.3 9.3 0 0 1-1.969 3.171q-1.268 1.348-3.11 2.11-1.845.764-4.124.765c-1.531 0-2.914-.257-4.14-.765q-1.832-.762-3.11-2.11a9.2 9.2 0 0 1-1.969-3.171q-.688-1.842-.687-4V9.686h3.343V24.78q0 1.564.438 2.86c.3.867.734 1.609 1.297 2.234a5.9 5.9 0 0 0 2.062 1.468q1.22.533 2.766.532M92.385 9.686v24.86h-1.687q-.392 0-.672-.141a1.6 1.6 0 0 1-.516-.469L75.12 15.202q.044.438.062.86c.008.273.016.53.016.78v17.704h-2.953V9.686h1.734q.233.001.39.031.154.036.266.094.122.048.25.172.124.111.266.281l14.375 18.72q-.048-.454-.078-.876a20 20 0 0 1-.016-.812V9.686zM118.847 22.124q0 2.799-.89 5.093-.88 2.284-2.5 3.922-1.613 1.627-3.876 2.516-2.268.89-5 .89h-9.28V9.687h9.28c1.82 0 3.489.305 5 .906q2.263.891 3.875 2.532c1.082 1.086 1.914 2.39 2.5 3.922.594 1.53.891 3.226.891 5.078m-3.453 0q-.002-2.28-.625-4.078-.627-1.81-1.781-3.063a7.5 7.5 0 0 0-2.766-1.906q-1.627-.657-3.64-.656h-5.922v19.406h5.921q2.014 0 3.641-.656a7.7 7.7 0 0 0 2.766-1.907q1.155-1.232 1.78-3.03.624-1.813.626-4.11M135.455 25.311l-3.906-10.11c-.118-.3-.235-.648-.36-1.046q-.188-.592-.375-1.266-.361 1.408-.734 2.328l-3.906 10.094Zm7 9.235h-2.594c-.305 0-.547-.07-.734-.22a1.3 1.3 0 0 1-.407-.577l-2.328-6h-11.156l-2.328 6q-.096.316-.39.562-.3.234-.735.235h-2.594l9.938-24.86h3.39ZM161.12 12.514h-8.047v22.032h-3.36V12.514h-8.062V9.686h19.469zM166.723 34.546h-3.36V9.686h3.36ZM194.62 22.124q0 2.799-.89 5.14-.88 2.33-2.5 4.016c-1.075 1.117-2.368 1.984-3.876 2.61-1.511.617-3.18.921-5 .921-1.824 0-3.492-.304-5-.922-1.5-.625-2.789-1.492-3.859-2.609-1.074-1.125-1.906-2.461-2.5-4.016q-.89-2.341-.89-5.14 0-2.778.89-5.11.89-2.344 2.5-4.03c1.07-1.134 2.36-2.009 3.86-2.626q2.262-.937 5-.937 2.731 0 5 .937 2.262.925 3.874 2.625 1.622 1.688 2.5 4.031.891 2.332.891 5.11m-3.453 0c0-1.52-.211-2.883-.625-4.094-.418-1.219-1.012-2.242-1.781-3.078a7.6 7.6 0 0 0-2.766-1.938q-1.627-.686-3.64-.687-2.004 0-3.626.687a7.7 7.7 0 0 0-2.78 1.938q-1.161 1.252-1.782 3.078-.626 1.814-.625 4.094-.001 2.297.625 4.11.621 1.813 1.781 3.077a7.7 7.7 0 0 0 2.781 1.922q1.623.656 3.625.656 2.014 0 3.641-.656a7.6 7.6 0 0 0 2.766-1.922c.77-.844 1.363-1.867 1.78-3.078q.624-1.811.626-4.11M218.13 9.686v24.86h-1.687q-.392 0-.672-.141a1.6 1.6 0 0 1-.515-.469l-14.391-18.734q.045.438.062.86c.008.273.016.53.016.78v17.704h-2.953V9.686h1.734q.234.001.39.031.155.036.267.094.122.048.25.172.123.111.265.281l14.375 18.72q-.047-.454-.078-.876a20 20 0 0 1-.016-.812V9.686zm0 0"/></g><path d="M166.07 280.667h-.387l-1.747-.048-2.719-.096-3.239-.467-3.239-.467-2.879-.713-2.879-.713-2.4-.838-2.398-.839-2.04-.87-2.04-.87-2.518-1.34-2.52-1.338-2.298-1.51-2.298-1.512-2.02-1.59-2.02-1.59-2.335-2.158-2.334-2.157-2.44-2.913-2.441-2.913-1.75-2.662-1.751-2.663-1.555-2.989-1.555-2.988-.949-2.4-.949-2.399-.725-2.28-.725-2.278-.614-2.76-.613-2.759-.37-2.831-.314-2.845-.1-2.076v-1.2l-.011-.745-.006-.445-.002-.645-.01-.714.017-.67.006-.776.053-.788.16-3.076.33-2.35.487-3.326.365-1.592.364-1.592.741-2.52.742-2.519 1.038-2.59 1.039-2.59 1.41-2.816 1.41-2.816 1.386-2.152 1.387-2.15 1.706-2.28 1.705-2.28 3.6-3.623 3.601-3.624 1.69-1.326 1.691-1.325 2.515-1.691 2.515-1.691 2.753-1.443 2.752-1.443 1.957-.835 1.958-.836 2.925-.978 2.926-.978.44-.143.26-.076-.03 49.126v48.908l.023 2.389.019 1.968 30.285.044 30.014.01-2.186 2.11-2.05 1.956-2.149 1.72-2.012 1.564-2.235 1.498-2.234 1.498-3.164 1.642-3.164 1.642-2.639 1.057-2.64 1.058-2.518.744-2.52.744-2.159.477-2.16.476-2.868.375-2.87.374-2.188.075-1.565.066-.707.03-.256.005-.224-.006-.14-.012z" style="fill:#567dbc;stroke-width:2.83465" transform="matrix(.48193 0 0 .48417 -15.433 101.6)"/><path d="m83.064 173.853.06-83.434h60.94v66.393l-2.159.786-2.16.786-1.857.852-1.858.853-2.46 1.37-2.461 1.372-2.16 1.44-2.16 1.44-2.038 1.565-2.04 1.566-3.605 3.615-3.605 3.615-2.08 2.776-2.08 2.776-1.737 2.862-1.737 2.862-1.49 3.12-1.492 3.118-.971 2.665-.972 2.664-.728 2.806-.729 2.805-.515 2.928-.515 2.927-.241 2.893-.144 2.522.016.928.002 1.058.005.896c.014.48.038.378.023 1.205l.019.403.02.887.052 1.552.025 1.092.395 2.879.394 2.879.608 2.759.608 2.759 1.314 3.959 1.314 3.958 1.899 3.84 1.899 3.838 1.983 2.999 1.984 3 .194.299.194.3H83.003Z" style="fill:#334b77" transform="matrix(.48193 0 0 .48417 -15.433 101.6)"/><path d="m219.297 256.328.486-.274.35-.293.638-.676 1.222-1.72 1.251-1.97.724-1.319.724-1.32 1.21-2.279 1.21-2.279 1.092-2.759 1.092-2.759.83-2.888.83-2.887.395-1.911.396-1.911.46-3.239.461-3.239.15-3.599.13-3.521-.367-3.715-.388-3.638-.367-2.12-.366-2.12-.838-3.32-.839-3.319-.98-2.679-.98-2.679-1.44-2.88-1.44-2.878-.718-1.32-.717-1.32-1.606-2.399-1.605-2.399-2.021-2.519-2.021-2.52-2.886-2.84-2.886-2.841-1.92-1.506-1.918-1.506-2.4-1.677-2.399-1.677-2.64-1.47-2.638-1.469-3.61-1.537-3.608-1.538-2.03-.641-2.029-.642-3.119-.695-3.119-.696-2.999-.413-2.999-.412-5.819-.099-5.15.116-3.186.404-3.12.42-2.617.585-2.618.584-.2.085.006-.28.257-2.762.257-2.763.455-2.6.456-2.6.523-2.039.523-2.039.727-2.28.727-2.279.945-2.279.945-2.28 1.543-2.957 1.543-2.957 2.023-3.04 2.024-3.041 1.339-1.662 1.339-1.662 1.842-2.023 1.841-2.023 2.538-2.296 2.537-2.295 2.715-2.023 2.715-2.022 2.21-1.39 2.211-1.39 2.534-1.305 2.534-1.305 2.938-1.24 2.937-1.24 2.199-.705 2.199-.704 2.279-.604 2.28-.603 2.436-.49 2.436-.49 3.202-.357 3.202-.358 1.91-.07.983-.02.726-.05.493-.001 1.052-.032.795-.005.499.008.443-.032 1.407.095 1.252.109.927.064.965.088 1.625.174 1.92.16 2.099.357 2.097.357 2.13.491 2.129.491 2.85.82 2.85.82 3.298 1.34 3.298 1.34 3.209 1.664 3.208 1.664 2.67 1.761 2.67 1.762 2.638 2.06 2.64 2.06 3.123 3.077 3.123 3.077 2.018 2.52 2.02 2.518 1.732 2.64 1.734 2.639 1.165 2.159 1.164 2.16 1.05 2.27 1.05 2.272.947 2.647.947 2.647.81 3.15.81 3.15.488 3.328.489 3.328.236 1.76.055.312.03.383.04.184-.06 51.404-.062 51.403H219.96z" style="fill:#0c2858" transform="matrix(.48193 0 0 .48417 -15.433 101.6)"/></svg>