<svg xmlns="http://www.w3.org/2000/svg" id="Layer_1" viewBox="0 0 331.54 100.74"><defs><clipPath id="clippath"><path d="M109.54 0h222v64h-222z" class="st0"/></clipPath><clipPath id="clippath-1"><path d="M109.54 54h221v43h-221z" class="st0"/></clipPath><style>.st0{fill:none}</style></defs><g style="clip-path:url(#clippath)"><path d="M146.08 14.42v37.86h-3.61q-.84 0-1.41-.27c-.37-.19-.73-.5-1.08-.94l-19.77-25.23c.1 1.15.16 2.21.16 3.19v23.25h-6.2V14.42h3.69c.29 0 .55.02.77.05.22.02.41.07.58.16.16.07.33.19.48.34.16.15.33.34.53.58l19.85 25.34c-.05-.6-.1-1.2-.14-1.8-.03-.55-.05-1.1-.05-1.66V14.42zm39.63 18.87V48.6a20.1 20.1 0 0 1-6.14 3.11c-2.18.66-4.5.98-6.97.98-3.09 0-5.9-.48-8.41-1.44-2.5-.96-4.64-2.29-6.41-4-1.77-1.72-3.14-3.77-4.09-6.14-.96-2.38-1.44-4.96-1.44-7.77q0-4.26 1.38-7.83c.93-2.38 2.24-4.41 3.94-6.12 1.71-1.72 3.77-3.05 6.2-3.98 2.43-.94 5.15-1.42 8.17-1.42 1.53 0 2.96.12 4.3.38 1.27.22 2.51.56 3.72 1 1.14.43 2.19.95 3.12 1.56.95.62 1.81 1.29 2.59 2.01l-2.01 3.19c-.31.51-.73.82-1.24.94-.5.12-1.05 0-1.64-.38l-1.74-1c-.61-.35-1.26-.63-1.92-.86-.71-.25-1.51-.45-2.39-.61s-1.89-.23-3.03-.23c-1.88 0-3.57.32-5.08.95-1.47.6-2.79 1.52-3.86 2.69-1.06 1.17-1.89 2.57-2.47 4.22-.57 1.64-.86 3.47-.86 5.5 0 2.16.31 4.09.92 5.8.63 1.7 1.5 3.14 2.62 4.31q1.695 1.77 4.08 2.7c1.58.62 3.35.92 5.31.92 1.4 0 2.64-.15 3.74-.44 1.1-.3 2.18-.7 3.23-1.2v-6.86h-4.77c-.46 0-.81-.12-1.06-.38-.25-.25-.38-.59-.38-.94v-3.98h12.56Zm13.84-3h1.66c.66 0 1.21-.09 1.64-.28.45-.19.84-.49 1.14-.88l10.44-13.22q.66-.84 1.38-1.17t1.83-.33h6.06l-12.75 15.73c-.75.96-1.53 1.64-2.33 2.05.57.21 1.09.5 1.55.88.47.38.91.87 1.33 1.49l13.16 17.72h-6.2c-.84 0-1.48-.11-1.89-.34-.42-.25-.77-.62-1.02-1.05L204.83 36.9c-.33-.47-.72-.8-1.16-.98-.43-.19-1.06-.3-1.88-.3h-2.24v16.66h-7.03V14.42h7.03V30.3Zm64.94 3.06c0 2.77-.46 5.34-1.38 7.7-.92 2.37-2.22 4.41-3.89 6.14s-3.68 3.08-6.05 4.05c-2.35.97-4.97 1.45-7.84 1.45s-5.48-.48-7.83-1.45-4.38-2.32-6.06-4.05c-1.69-1.73-3-3.77-3.92-6.14-.92-2.36-1.38-4.93-1.38-7.7 0-2.78.46-5.35 1.38-7.72.93-2.36 2.23-4.41 3.92-6.14q2.535-2.595 6.06-4.05c2.35-.97 4.96-1.45 7.83-1.45 1.91 0 3.72.23 5.41.67 1.7.45 3.25 1.08 4.67 1.89 1.4.81 2.69 1.81 3.81 2.97s2.09 2.46 2.86 3.87c.79 1.43 1.39 2.98 1.8 4.66s.61 3.45.61 5.3m-7.19 0c0-2.08-.28-3.95-.84-5.59-.56-1.65-1.36-3.05-2.39-4.2a9.8 9.8 0 0 0-3.75-2.64c-1.48-.61-3.14-.92-4.99-.92-1.86 0-3.52.31-5 .92-1.44.58-2.73 1.48-3.76 2.64s-1.83 2.56-2.39 4.2c-.56 1.65-.84 3.51-.84 5.59s.28 3.94.84 5.59 1.36 3.04 2.39 4.19c1.05 1.14 2.33 2.04 3.77 2.62 1.48.6 3.14.91 5 .91 1.84 0 3.51-.3 4.99-.91s2.73-1.49 3.75-2.62c1.03-1.14 1.83-2.54 2.39-4.19.56-1.66.84-3.52.84-5.59m24.82-.92c1.32 0 2.48-.16 3.47-.5.99-.33 1.8-.79 2.44-1.38.63-.57 1.12-1.28 1.42-2.08.31-.8.47-1.68.47-2.64 0-1.92-.64-3.4-1.91-4.42-1.26-1.03-3.19-1.55-5.78-1.55h-4.52v12.56h4.41Zm18.11 19.85h-6.36q-1.8 0-2.61-1.41l-7.97-12.12c-.29-.46-.62-.78-.98-.97-.36-.2-.88-.29-1.58-.3h-3.02v14.8h-7.03V14.42h11.55c2.56 0 4.76.27 6.59.8q2.76.795 4.53 2.25c1.19.96 2.06 2.11 2.61 3.44q.84 2.01.84 4.41c0 1.28-.19 2.49-.56 3.62-.37 1.11-.92 2.15-1.62 3.08-.73.95-1.62 1.77-2.62 2.44-1.03.7-2.21 1.25-3.55 1.66.46.26.88.57 1.26.92.38.36.74.78 1.05 1.27l9.47 13.98Zm11.18-32.26v10.5h13.25v5.41h-13.25v10.72h16.81v5.62h-23.88V14.42h23.88v5.61h-16.81Z" style="fill:#0d2959"/></g><g style="clip-path:url(#clippath-1)"><path d="M116.53 66.44v8.69h10.22v2.73h-10.22v10.69h-3.36V63.69h15.31v2.75zm37.8 9.68c0 1.87-.3 3.58-.89 5.14-.59 1.55-1.42 2.89-2.5 4.02-1.08 1.12-2.37 1.98-3.88 2.61-1.51.62-3.18.92-5 .92s-3.49-.3-5-.92c-1.5-.62-2.79-1.49-3.86-2.61s-1.91-2.46-2.5-4.02-.89-3.27-.89-5.14.3-3.56.89-5.11c.59-1.56 1.43-2.91 2.5-4.03 1.07-1.13 2.36-2.01 3.86-2.63 1.51-.62 3.17-.94 5-.94s3.49.31 5 .94c1.51.62 2.8 1.49 3.87 2.62 1.08 1.13 1.91 2.47 2.5 4.03.59 1.55.89 3.26.89 5.11m-3.44.01c0-1.52-.21-2.88-.62-4.09-.42-1.22-1.01-2.24-1.78-3.08a7.5 7.5 0 0 0-2.77-1.94c-1.08-.46-2.3-.69-3.64-.69s-2.54.23-3.63.69a7.6 7.6 0 0 0-2.78 1.94c-.77.83-1.37 1.86-1.78 3.08-.42 1.21-.63 2.57-.62 4.09 0 1.53.21 2.9.62 4.11s1.01 2.23 1.78 3.08c.77.84 1.72 1.5 2.78 1.92 1.08.44 2.29.66 3.62.66s2.56-.22 3.64-.66c1.05-.43 2-1.08 2.77-1.92s1.36-1.87 1.78-3.08.62-2.58.63-4.11m16.41 9.75c1.03 0 1.94-.17 2.75-.52.78-.33 1.49-.83 2.06-1.45a6.3 6.3 0 0 0 1.28-2.23c.29-.87.44-1.83.44-2.88V63.68h3.36v15.11c0 1.44-.23 2.77-.69 4a9.4 9.4 0 0 1-1.97 3.17c-.85.9-1.88 1.6-3.11 2.11s-2.6.76-4.12.76c-1.53 0-2.91-.26-4.14-.76-1.22-.51-2.26-1.21-3.11-2.11a9.1 9.1 0 0 1-1.97-3.17c-.46-1.23-.69-2.56-.69-4V63.68h3.34v15.09c0 1.04.15 2 .44 2.86.3.87.73 1.61 1.3 2.23a6 6 0 0 0 2.06 1.47c.81.36 1.74.53 2.77.53m34.63-22.17v24.86h-1.69c-.26 0-.49-.05-.67-.14-.2-.12-.38-.28-.52-.47l-14.39-18.73c.03.29.05.58.06.86 0 .27.02.53.02.78v17.7h-2.95V63.69h1.73q.24 0 .39.03c.1.02.19.06.27.09s.16.09.25.17c.08.07.17.17.27.28l14.38 18.72c-.03-.3-.06-.59-.08-.88-.01-.27-.02-.54-.02-.81V63.68h2.95Zm26.47 12.43c0 1.87-.3 3.56-.89 5.09-.59 1.52-1.42 2.83-2.5 3.92-1.08 1.08-2.37 1.92-3.88 2.52-1.51.59-3.18.89-5 .89h-9.28V63.68h9.28c1.82 0 3.49.31 5 .91 1.51.59 2.8 1.44 3.88 2.53s1.91 2.39 2.5 3.92.89 3.23.89 5.08m-3.46 0c0-1.52-.21-2.88-.62-4.08-.42-1.21-1.01-2.23-1.78-3.06a7.5 7.5 0 0 0-2.77-1.91c-1.08-.44-2.3-.66-3.64-.66h-5.92v19.41h5.92c1.34 0 2.56-.22 3.64-.66 1.05-.42 2-1.08 2.77-1.91.77-.82 1.36-1.83 1.78-3.03.42-1.21.62-2.58.63-4.11m20.05 3.2-3.91-10.11q-.18-.45-.36-1.05c-.13-.39-.25-.82-.38-1.27-.24.94-.49 1.71-.73 2.33L235.7 79.3h9.28Zm7 9.24h-2.59c-.3 0-.55-.07-.73-.22-.19-.15-.33-.35-.41-.58l-2.33-6h-11.16l-2.33 6c-.06.21-.19.4-.39.56s-.45.23-.74.24h-2.59l9.94-24.86h3.39zm18.67-22.04h-8.05v22.03h-3.36V66.51h-8.06v-2.83h19.47zm5.6 22.04h-3.36V63.69h3.36zm27.9-12.43c0 1.87-.3 3.58-.89 5.14-.59 1.55-1.42 2.89-2.5 4.02-1.07 1.12-2.37 1.98-3.88 2.61-1.51.62-3.18.92-5 .92s-3.49-.3-5-.92c-1.5-.62-2.79-1.49-3.86-2.61s-1.91-2.46-2.5-4.02-.89-3.27-.89-5.14.3-3.56.89-5.11c.59-1.56 1.43-2.91 2.5-4.03 1.07-1.13 2.36-2.01 3.86-2.63 1.51-.62 3.17-.94 5-.94s3.49.31 5 .94c1.51.62 2.8 1.49 3.87 2.62 1.08 1.13 1.91 2.47 2.5 4.03.59 1.55.89 3.26.89 5.11m-3.44.01c0-1.52-.21-2.88-.62-4.09-.42-1.22-1.01-2.24-1.78-3.08a7.5 7.5 0 0 0-2.77-1.94c-1.08-.46-2.3-.69-3.64-.69s-2.54.23-3.63.69a7.6 7.6 0 0 0-2.78 1.94c-.77.83-1.37 1.86-1.78 3.08-.42 1.21-.63 2.57-.62 4.09 0 1.53.21 2.9.62 4.11s1.01 2.23 1.78 3.08c.77.84 1.72 1.5 2.78 1.92 1.08.44 2.29.66 3.62.66s2.56-.22 3.64-.66c1.05-.43 2-1.08 2.77-1.92s1.36-1.87 1.78-3.08.62-2.58.63-4.11m26.96-12.43v24.86h-1.69c-.26 0-.49-.05-.67-.14-.2-.12-.38-.28-.51-.47l-14.39-18.73c.03.29.05.58.06.86 0 .27.02.53.02.78v17.7h-2.95V63.69h1.73q.24 0 .39.03c.1.02.19.06.27.09s.16.09.25.17c.08.07.17.17.26.28l14.38 18.72c-.03-.3-.06-.59-.08-.88-.01-.27-.02-.54-.02-.81V63.68h2.95Z" style="fill:#344d79"/></g><path d="M40.03 100.72h-.19l-.84-.02-1.31-.05-1.56-.23-1.56-.23-1.39-.35-1.39-.35-1.16-.41-1.16-.41-.98-.42-.98-.42-1.21-.65-1.21-.65-1.11-.73-1.11-.73-.97-.77-.97-.77-1.13-1.04-1.12-1.04-1.18-1.41-1.18-1.41-.84-1.29-.84-1.29-.75-1.45-.75-1.45-.46-1.16-.46-1.16-.35-1.1-.35-1.1-.3-1.34-.3-1.34-.18-1.37-.15-1.38-.05-1.01v-2.14l.01-.38.03-.38.08-1.49.16-1.14.23-1.61.18-.77.18-.77.36-1.22.36-1.22.5-1.25.5-1.25.68-1.36.68-1.36.67-1.04.67-1.04.82-1.1.82-1.1 1.73-1.75 1.74-1.75.81-.64.81-.64 1.21-.82 1.21-.82 1.33-.7 1.33-.7.94-.4.94-.4 1.41-.47 1.41-.47.21-.07.13-.04v23.79l-.01 23.68v1.16l.02.95 14.6.02h14.46l-1.05 1.03-.99.95-1.04.83-.97.76-1.08.73-1.08.73-1.52.8-1.52.8-1.27.51-1.27.51-1.21.36-1.21.36-1.04.23-1.04.23-1.38.18-1.38.18-1.05.04-.75.03h-.34l-.12.02h-.37Z" style="fill:#567dbc"/><path d="m.03 49.01.03-40.4h29.37v32.15l-1.04.38-1.04.38-.89.41-.9.41-1.19.66-1.19.66-1.04.7-1.04.7-.98.76-.98.76-1.74 1.75-1.74 1.75-1 1.34-1 1.34-.84 1.39-.84 1.39-.72 1.51-.72 1.51-.47 1.29-.47 1.29-.35 1.36-.35 1.36-.25 1.42-.25 1.42-.12 1.4-.07 1.22v1.39c0 .23.02.18.01.58v.2l.02.43.03.75v.53l.2 1.39.19 1.39.29 1.34.29 1.34.63 1.92.63 1.92.92 1.86.92 1.86.96 1.45.96 1.45.09.14.09.15H0z" style="fill:#334b77"/><path d="m65.68 88.94.23-.13.17-.14.31-.33.59-.83.6-.95.35-.64.35-.64.58-1.1.58-1.1.53-1.34.53-1.34.4-1.4.4-1.4.19-.93.19-.93.22-1.57.22-1.57.07-1.74.06-1.7-.18-1.8-.19-1.76-.18-1.03-.18-1.03-.4-1.61-.4-1.61-.47-1.3-.47-1.3-.69-1.39-.69-1.39-.35-.64-.35-.64-.77-1.16-.77-1.16-.97-1.22-.97-1.22-1.39-1.38-1.39-1.38-.93-.73-.92-.73-1.16-.81-1.16-.81-1.27-.71-1.27-.71-1.74-.74-1.74-.74-.98-.31-.98-.31-1.5-.34-1.5-.34-1.45-.2-1.45-.2-2.8-.05-2.48.06-1.54.2-1.5.2-1.26.28-1.26.28-.1.04v-.14l.13-1.34.12-1.34.22-1.26.22-1.26.25-.99.25-.99.35-1.1.35-1.1.46-1.1.46-1.1.74-1.43.74-1.43.97-1.47.98-1.47.65-.8.65-.8.89-.98.89-.98 1.22-1.11 1.22-1.11 1.31-.98 1.31-.98 1.07-.67 1.07-.67 1.22-.63 1.22-.63 1.42-.6 1.42-.6 1.06-.34 1.06-.34 1.1-.29 1.1-.29 1.17-.24 1.17-.24 1.54-.17 1.54-.17.92-.03h.47l.35-.03h.24l.51-.02h.62l.21-.02.68.05.6.05.45.03.47.04.78.08.93.08 1.01.17 1.01.17 1.03.24 1.03.24 1.37.4 1.37.4 1.59.65 1.59.65 1.55.81 1.55.81 1.29.85 1.29.85 1.27 1 1.27 1 1.51 1.49 1.51 1.49.97 1.22.97 1.22.83 1.28.84 1.28.56 1.05.56 1.05.51 1.1.51 1.1.46 1.28.46 1.28.39 1.53.39 1.53.24 1.61.24 1.61.11.85.03.15v.19l.03.09-.03 24.89-.03 24.89H65.73Z" style="fill:#0c2858"/></svg>