<svg xmlns="http://www.w3.org/2000/svg" viewBox="0 0 1048.7 754.78"><path fill="#d0f6fb" d="M599.312 754.57c.619-.12 1.631-.12 2.25 0s.113.217-1.125.217-1.744-.098-1.125-.217m-7.24-.494c.486-.126 1.161-.118 1.5.019s-.06.24-.885.23-1.102-.122-.615-.249m14.74.016c.343-.139.906-.139 1.25 0s.062.252-.625.252-.97-.114-.625-.252m-195.97-.51c.36-.145.792-.127.958.039s-.13.284-.656.262c-.583-.024-.701-.142-.303-.302m59 0c.36-.145.792-.127.958.039s-.13.284-.656.262c-.583-.024-.701-.142-.303-.302m118.5 0c.36-.145.792-.127.958.039s-.13.284-.656.262c-.583-.024-.701-.142-.302-.302m22.5 0c.36-.145.792-.127.958.039s-.13.284-.656.262c-.583-.024-.701-.142-.302-.302m110 0c.36-.145.792-.127.958.039s-.13.284-.656.262c-.583-.024-.701-.142-.302-.302m2.5 0c.36-.145.792-.127.958.039s-.13.284-.656.262c-.583-.024-.701-.142-.302-.302m52 0c.36-.145.792-.127.958.039s-.13.284-.656.262c-.583-.024-.701-.142-.302-.302m2.5 0c.36-.145.792-.127.958.039s-.13.284-.656.262c-.583-.024-.701-.142-.302-.302m-369.44-1.534-1.213-1.375 1.375 1.212c.757.667 1.375 1.286 1.375 1.375 0 .392-.405.073-1.538-1.212m288.24.25-.953-1.125 1.125.952c1.057.896 1.353 1.298.952 1.298-.094 0-.6-.506-1.125-1.125m21.76-.25-1.213-1.375 1.375 1.212c.757.667 1.375 1.286 1.375 1.375 0 .392-.405.073-1.538-1.212m54.74.25-.953-1.125 1.125.952c1.057.896 1.353 1.298.952 1.298-.094 0-.6-.506-1.125-1.125m-483.2.436c0-.104.393-.497.874-.875.794-.622.811-.604.19.189-.654.833-1.065 1.098-1.065.686m468.5 0c0-.104.393-.497.874-.875.794-.622.811-.604.19.189-.654.833-1.065 1.098-1.065.686m23.281-1.958c.188-.493.468-.77.622-.616s0 .557-.342.896c-.493.49-.55.433-.28-.28m-489.74-1.645c.024-.582.143-.7.303-.302.144.361.126.792-.04.959s-.284-.13-.263-.657m115.08-.708c0-.963.103-1.356.23-.875.125.481.125 1.269 0 1.75-.127.481-.23.087-.23-.875m217.88 1.303c0-.108.35-.33.776-.494.445-.17.646-.087.471.197-.294.475-1.247.702-1.247.297m69.905-1.553c-.112-.963-.024-1.75.196-1.75s.4.787.4 1.75-.089 1.75-.196 1.75-.287-.788-.4-1.75m22.221 0c.006-1.1.108-1.491.228-.87s.115 1.523-.01 2c-.125.479-.223-.03-.218-1.13m54.267-.25c-.12-.825-.034-1.5.194-1.5.227 0 .413.675.413 1.5s-.087 1.5-.193 1.5-.292-.675-.414-1.5m-468.52-.25c-.13-.688-.045-1.25.192-1.25s.43.562.43 1.25-.085 1.25-.19 1.25c-.106 0-.3-.563-.432-1.25m446.5 0c-.13-.688-.045-1.25.192-1.25s.43.562.43 1.25-.085 1.25-.19 1.25c-.106 0-.3-.563-.432-1.25m11.352-21c0-12.375.066-17.366.145-11.091.08 6.275.08 16.4 0 22.5s-.145.966-.145-11.41m-446.49-19.25c0-22.688.062-31.97.137-20.625s.075 29.906 0 41.25-.137 2.062-.137-20.625m313.86 37.75c.01-.825.123-1.102.25-.616.126.487.118 1.162-.019 1.5s-.24-.06-.23-.884m-65.16-2.125c-.622-.793-.605-.81.188-.189.482.378.875.771.875.875 0 .412-.41.147-1.064-.686m-93.03.033c.36-.144.792-.126.958.04s-.13.284-.656.262c-.583-.024-.701-.142-.303-.302m90.295-2.283-.952-1.125 1.125.952c1.057.896 1.353 1.298.952 1.298-.094 0-.6-.506-1.125-1.125m61.932-1.222c.487-.126 1.162-.118 1.5.019s-.059.24-.884.23-1.102-.122-.616-.249m-71.198-7.528c-.621-.793-.604-.81.19-.189.832.653 1.097 1.064.685 1.064-.103 0-.497-.394-.875-.875m45.945.021c.622-.12 1.522-.115 2 .01.479.126-.03.223-1.13.218s-1.491-.108-.87-.228m6.5 0c.622-.12 1.522-.115 2 .01.479.126-.03.223-1.13.218s-1.491-.108-.87-.228m12.025.012c.361-.144.793-.126.959.04s-.13.284-.656.263c-.583-.024-.701-.143-.302-.303m-182.5-.5c.361-.144.793-.126.959.04s-.13.284-.656.263c-.583-.024-.701-.143-.303-.303m37 0c.361-.144.793-.126.959.04s-.13.284-.656.263c-.583-.024-.701-.143-.303-.303m122.97.01c.344-.138.907-.138 1.25 0s.063.253-.625.253-.968-.113-.625-.252m15.531-.01c.361-.144.793-.126.959.04s-.13.284-.656.263c-.583-.024-.701-.143-.302-.303m-60.97-3.033c-.621-.793-.604-.81.19-.189.48.378.874.771.874.875 0 .412-.41.147-1.064-.686m-118.9-2.917c.024-.582.143-.7.303-.302.144.361.126.792-.04.958-.166.167-.284-.129-.263-.656m195.21-.208c.498-.55 1.018-1 1.155-1s-.157.45-.654 1-1.018 1-1.155 1 .157-.45.654-1m-48.048-2.125-.952-1.125 1.125.952c1.057.895 1.353 1.298.952 1.298-.094 0-.6-.506-1.125-1.125m-103.24-.75-1.212-1.375 1.375 1.212c.757.667 1.375 1.285 1.375 1.375 0 .392-.405.073-1.538-1.212m152.66-.375c.006-1.1.108-1.491.228-.87s.115 1.523-.01 2c-.125.479-.223-.03-.218-1.13m-157-1.095c.482-.126 1.27-.126 1.75 0 .482.126.088.229-.875.229s-1.356-.103-.875-.229m103.58-1.78-.952-1.125 1.125.952c.619.524 1.125 1.03 1.125 1.125 0 .4-.402.105-1.297-.952m47.432-2.722c.487-.126 1.162-.118 1.5.019s-.059.24-.884.23-1.102-.122-.615-.249m-52.932-2.278-.952-1.125 1.125.952c1.057.895 1.353 1.298.952 1.298-.094 0-.6-.506-1.125-1.125m-126.62-2.5-.08-1.875 20.75.228-20.188.292-.2 1.615c-.197 1.577-.203 1.571-.281-.26zm292.07-1.747c2.144-.094 5.52-.094 7.5 0 1.982.095.228.172-3.897.172s-5.746-.079-3.602-.173zm-269.65-.817c0-.104.394-.498.876-.875.793-.622.81-.604.188.189-.653.833-1.064 1.098-1.064.686m150.41-.153c.361-.144.793-.126.959.04s-.13.284-.656.262c-.583-.024-.701-.142-.302-.302m-148.37-3.45c.024-.582.143-.7.303-.302.144.361.126.792-.04.958-.166.167-.284-.129-.263-.656m0-2c.024-.582.143-.7.303-.302.144.361.126.792-.04.958-.166.167-.284-.129-.263-.656m86.54-1.208c0-.688.113-.969.252-.625s.138.906 0 1.25-.253.062-.253-.625m208.12-1.625-.953-1.125 1.125.952c.619.524 1.125 1.03 1.125 1.125 0 .4-.402.105-1.297-.952m-208.61-2.125c.01-.825.122-1.102.249-.616.126.487.118 1.162-.019 1.5s-.24-.06-.23-.884m23.48-1.25c0-.688.114-.969.253-.625s.138.906 0 1.25-.253.062-.253-.625m-118.38-4.125-.952-1.125 1.125.952c1.057.895 1.353 1.298.952 1.298-.094 0-.6-.506-1.125-1.125m255.3.936c0-.104.394-.497.875-.875.794-.622.811-.604.19.189-.654.833-1.065 1.098-1.065.686m-136.96-5.603c.024-.582.143-.7.303-.302.144.361.126.792-.04.958-.166.167-.284-.129-.263-.656m-133.63-.582c3.936-.085 10.235-.085 14 0s.545.154-7.155.154-10.78-.07-6.845-.154m290 0a661 661 0 0 1 18 0c4.864.082.743.148-9.157.148s-13.879-.067-8.843-.149m-267.91-.815c0-.104.394-.497.875-.875.794-.622.811-.604.19.189-.654.833-1.065 1.098-1.065.686m88.08-.811c0-.688.113-.969.252-.625s.138.906 0 1.25-.253.062-.253-.625m168.36.125c-.622-.793-.605-.81.188-.189.833.653 1.098 1.064.686 1.064-.103 0-.497-.394-.875-.875m-289.21-1.158c-.182-.294-.223-.64-.092-.772.131-.131.372.109.535.533.338.881.05 1.036-.444.239m34.886-2.467c0-.963.103-1.356.23-.875.125.481.125 1.269 0 1.75-.127.481-.23.087-.23-.875m253 0c0-.963.103-1.356.23-.875.125.481.125 1.269 0 1.75-.127.481-.23.087-.23-.875m43.614-22c0-12.512.065-17.631.145-11.375s.08 16.494 0 22.75-.144 1.137-.144-11.375M428.47 682.13c.024-.583.143-.701.303-.302.144.36.126.792-.04.958s-.284-.129-.263-.656m-5.603-2.583c-.622-.793-.604-.811.19-.19.832.654 1.097 1.065.685 1.065-.104 0-.497-.394-.875-.875m158.06-6.875c.933-.963 1.809-1.75 1.946-1.75s-.513.787-1.446 1.75-1.808 1.75-1.946 1.75.513-.788 1.446-1.75m-141.37-4.5c.006-1.1.108-1.492.228-.87s.115 1.522-.01 2-.223-.03-.218-1.13m181.87 1.053c0-.108.35-.33.776-.494.445-.171.646-.087.47.196-.293.475-1.246.703-1.246.298m-284.59-3.145c.361-.144.792-.127.959.04.166.166-.13.284-.657.262-.582-.024-.7-.142-.302-.302m-81.204-1.283-.952-1.125 1.125.952c.619.524 1.125 1.03 1.125 1.125 0 .4-.403.105-1.298-.952m369.42-.625c.006-1.1.108-1.491.228-.87s.115 1.522-.01 2c-.125.479-.223-.03-.218-1.13m-29.72.908c.361-.144.792-.127.959.04.166.166-.13.284-.657.262-.582-.024-.7-.142-.302-.302m11.5 0c.361-.144.792-.127.959.04.166.166-.13.284-.657.262-.582-.024-.7-.142-.302-.302m-7.542-.52c.888-.11 2.462-.111 3.5-.003s.311.198-1.614.2-2.774-.086-1.886-.196m-258.27-3.388c.01-.825.122-1.102.249-.616s.118 1.162-.019 1.5-.24-.06-.23-.884m-87.02-.25c0-.688.114-.97.253-.625s.139.906 0 1.25-.252.062-.252-.625m305.92.31c0-.103.395-.497.876-.874.793-.622.81-.604.189.189-.654.833-1.064 1.097-1.064.686m-267.96-1.102c.025-.582.143-.7.303-.302.144.36.127.792-.04.958-.166.166-.284-.129-.262-.656m272.46-.897c0-.104.395-.498.876-.875.793-.622.81-.604.189.189-.654.833-1.064 1.097-1.064.686m-.25-2.811c1.355-1.375 2.576-2.5 2.713-2.5s-.858 1.125-2.212 2.5-2.575 2.5-2.712 2.5.858-1.125 2.212-2.5m-273.81.625c-.621-.793-.603-.811.19-.19.833.654 1.097 1.065.686 1.065-.104 0-.498-.394-.875-.875m49 0c-.621-.793-.603-.811.19-.19.833.654 1.097 1.065.686 1.065-.104 0-.498-.394-.875-.875m-53.31-1.47c.481-.126 1.269-.126 1.75 0s.087.229-.875.229-1.356-.103-.875-.229m48.756-.009c.622-.12 1.522-.115 2 .01s-.03.223-1.13.218-1.492-.108-.87-.228m133.24.009c.481-.126 1.269-.126 1.75 0s.087.229-.875.229-1.356-.103-.875-.229m-134.09-1.447c.024-.582.142-.7.302-.302.144.36.127.792-.04.958-.166.166-.284-.129-.262-.656m282.4-1.083c-.622-.793-.604-.811.189-.19.833.654 1.097 1.065.686 1.065-.104 0-.498-.394-.875-.875m-48.436.186c0-.104.394-.498.875-.875.793-.622.81-.604.189.189-.654.833-1.064 1.097-1.064.686m54.135-6.658c.486-.127 1.161-.118 1.5.019s-.06.24-.885.23-1.102-.122-.615-.249m-343.72-2.028c10.814-.075 28.364-.075 39 0s1.788.137-19.662.137-30.152-.062-19.338-.137m152.5 0c7.238-.078 18.938-.078 26 0s1.14.142-13.16.142-20.078-.064-12.84-.142m161.5-1.967c.36-.144.792-.127.958.04.166.166-.129.284-.656.262-.582-.024-.701-.142-.302-.302m15 0c.36-.144.792-.127.958.04.166.166-.129.284-.656.262-.582-.024-.701-.142-.302-.302m-8.766-.526c1.314-.104 3.34-.103 4.5.003 1.16.104.085.189-2.39.187s-3.425-.087-2.11-.19zm29.439-1.132c0-.688.113-.97.252-.625s.139.906 0 1.25-.252.062-.252-.625m-373.98-1.75c.01-.825.122-1.102.249-.616.126.487.118 1.162-.019 1.5s-.24-.06-.23-.884m87 0c.01-.825.122-1.102.249-.616.126.487.118 1.162-.019 1.5s-.24-.06-.23-.884m-92.661-3.125c-.622-.793-.605-.811.188-.19.482.378.875.772.875.876 0 .411-.41.146-1.063-.686m224.5-.5c-.622-.793-.605-.811.188-.19.482.378.875.772.875.876 0 .411-.41.146-1.063-.686m231.27-.25-.953-1.125 1.125.952c1.057.895 1.353 1.298.953 1.298-.095 0-.601-.507-1.125-1.125m76.5 0-.953-1.125 1.125.952c1.057.895 1.353 1.298.953 1.298-.095 0-.601-.507-1.125-1.125m-443.8-1.217c.36-.144.792-.127.958.04.166.166-.13.284-.656.262-.583-.024-.701-.142-.302-.302m284.13-.45c.024-.583.142-.701.302-.302.144.36.126.792-.04.958s-.284-.129-.262-.656m-153.4-.055c.486-.127 1.161-.118 1.5.019s-.06.24-.885.23-1.102-.122-.615-.249m232.77.005c.36-.144.792-.127.958.04.166.166-.13.284-.656.262-.583-.024-.701-.142-.302-.302m54.5 0c.36-.144.792-.127.958.04.166.166-.13.284-.656.262-.583-.024-.701-.142-.302-.302m22 0c.36-.144.792-.127.958.04.166.166-.13.284-.656.262-.583-.024-.701-.142-.302-.302m-442.87-1.45c.024-.582.142-.7.302-.302.144.36.126.792-.04.958s-.284-.129-.262-.656m354.46-3.397c0-.104.393-.498.875-.875.793-.622.81-.604.188.189-.653.833-1.063 1.097-1.063.686m76.5 0c0-.104.393-.498.875-.875.793-.622.81-.604.188.189-.653.833-1.063 1.097-1.063.686m-176.09-4.653c.36-.144.792-.127.958.04.166.166-.13.284-.656.262-.583-.024-.701-.142-.302-.302m8.468.01c.344-.138.907-.138 1.25 0s.063.253-.625.253-.968-.114-.625-.252m-550.64-11.107c-1.11-.505-2.99-2.019-4.178-3.364l-2.159-2.447 1.617-.162c1.25-.125 1.971.181 3.178 1.35 2.543 2.46 4.639 3.062 10.67 3.061 5.902 0 8.033-.658 9.723-3 .496-.687 6.548-16.55 13.448-35.25s13.036-34.9 13.636-36c2.148-3.94.057-3.747 40.585-3.751 23.338-.002 36.657-.186 37.869-.523 2.16-.6 3.107-2.002 2.634-3.897-.183-.73-3.707-9.254-7.831-18.94-7.686-18.054-8.869-20.138-11.42-20.138-1.576 0-2.513-.57-3.237-1.969-.692-1.338-.685-1.346.894-1.167 3.892.44 4.904.755 6.347 1.969.846.711 1.973 2.148 2.506 3.193 2.753 5.395 15.64 36.51 15.852 38.276.137 1.134-.019 2.55-.349 3.167-1.357 2.536-1.277 2.53-40.375 2.534-23.742.002-37.044.184-38.27.524-1.034.287-2.228 1.052-2.652 1.7-.425.648-6.48 16.61-13.454 35.47-6.976 18.86-13.207 35.227-13.85 36.372-1.918 3.427-3.456 3.933-11.907 3.92-5.956-.009-7.62-.175-9.277-.928zm199.02-.254c-2.645-1.282-53.336-41.613-53.65-42.685-.102-.345 10.315 7.755 23.148 18 18.59 14.841 23.706 18.687 25.168 18.918 1.01.16 3.019 1.103 4.466 2.096 3.24 2.222 4.887 2.486 14.237 2.278 6.804-.152 7.44-.247 8.459-1.267.99-.992 1.049-1.32.58-3.25-.43-1.77-92.15-221.99-95.88-230.21-.64-1.408-2.006-3.494-3.037-4.636-1.766-1.954-46.113-37.757-56.11-45.3-4.048-3.053-4.492-3.534-3.577-3.872.674-.25 1.8-.053 3.172.554 1.895.839 48.774 37.984 56.653 44.89 2.5 2.191 3.52 3.563 5.081 6.832 1.075 2.25 23.272 55.166 49.327 117.59 31.91 76.451 47.446 114.25 47.598 115.78.19 1.91.02 2.524-1.035 3.75l-1.26 1.467-10.42.135c-10.143.131-10.484.103-12.918-1.077zm82-.005c-2.3-1.092-44.357-36.195-48.75-40.689-1.982-2.028-3.178-3.02 22.97 19.07 16.31 13.78 18.933 15.816 20.371 15.816 1.113 0 2.39.564 3.917 1.73 2.955 2.256 4.956 2.764 10.884 2.768 5.655.003 8.104-.762 8.868-2.77.331-.872.458-30.478.372-86.944l-.131-85.622-1.53-2.455c-1.952-3.136-40.175-51.8-42.753-54.432-1.129-1.154-2.423-1.987-3.107-2-.711-.015-1.826-.77-2.839-1.923-.917-1.045-1.466-1.85-1.22-1.788.247.061 1.074-.191 1.837-.562 2.506-1.215 4.195.148 11.298 9.114 23.67 29.879 39.217 49.952 40.186 51.885l1.128 2.25v86.5c0 81.753-.048 86.589-.883 88.117-1.487 2.72-2.936 3.134-10.967 3.129-6.485-.004-7.383-.116-9.65-1.193zm289.39.578c-.885-.284-3.135-1.78-5-3.324l-3.39-2.807 1.835-.152c1.464-.122 2.3.202 4.137 1.604 3.08 2.351 4.96 2.792 11.92 2.796 6.753.003 8.868-.605 9.78-2.811.449-1.083.562-13.298.462-49.686-.123-44.746-.197-48.377-1.006-50-1.01-2.026-42.27-54.691-44.166-56.375-.697-.619-1.775-1.125-2.395-1.125s-1.79-.693-2.597-1.54l-1.47-1.538 1.22-.992c1.559-1.27 3.223-.894 5.448 1.23 2.951 2.816 44.78 56.245 46.333 59.181l1.5 2.838v49.285c0 46.68-.048 49.373-.909 50.95-1.45 2.659-3.194 3.092-12.2 3.034-4.34-.028-8.616-.284-9.502-.568zm121.89-.41c-1.221-.554-3.134-1.743-4.25-2.641-14.36-11.563-47.692-38.871-48.215-39.502-.377-.455-.582-.828-.455-.828s10.44 8.325 22.919 18.5c18.755 15.293 22.952 18.5 24.208 18.5.933 0 2.467.675 3.981 1.752 1.355.963 3.267 1.974 4.249 2.247 2.448.68 27.955.652 29.92-.034 2.014-.702 2.34-1.724 1.247-3.917-.493-.989-25.47-34.35-55.505-74.137s-54.981-73.118-55.435-74.069c-1.517-3.182-.753-4.831 4.998-10.789 2.815-2.916 20.055-20.828 38.31-39.803s35.387-36.78 38.072-39.57 5.03-5.661 5.21-6.385c.182-.723.052-1.988-.289-2.81-.829-2.002-26.916-26.929-29.65-28.333-1.176-.604-2.557-1.56-3.068-2.125-.927-1.024-.921-1.028 1.58-1.028 1.838 0 2.896.3 3.952 1.121 2.692 2.091 27.934 26.379 29.317 28.209 1.645 2.176 1.801 4.716.428 6.968-.519.85-19.884 21.199-43.034 45.218s-42.426 44.32-42.836 45.114c-.43.832-.621 2.009-.45 2.781.161.736 17.533 24.176 38.602 52.09 73.145 96.902 73.63 97.552 73.952 99.27.427 2.275-.109 3.611-1.797 4.484-1.19.615-4.25.743-17.59.734-15.11-.01-16.293-.076-18.371-1.019zm58.586-.028c-1.174-.581-3.029-2.1-4.122-3.375l-1.987-2.317 1.525-.16c1.17-.121 1.975.25 3.465 1.596 2.721 2.458 4.852 2.961 11.553 2.727 6.336-.22 7.309-.592 8.87-3.385.547-.978 6.55-16.853 13.339-35.278s12.877-34.427 13.527-35.56c2.224-3.877.164-3.69 40.541-3.693 23.655-.002 36.573-.183 37.824-.53 2.57-.714 3.215-2.177 2.23-5.05-1.912-5.568-14.645-34.655-15.74-35.958-.77-.915-2.076-1.68-3.459-2.03-1.585-.398-2.42-.942-2.914-1.898l-.693-1.34 3.032.358c3.303.39 5.028 1.387 6.736 3.896 1.79 2.628 16.29 37.128 16.54 39.355.128 1.13-.036 2.556-.365 3.169-1.356 2.535-1.29 2.53-40.188 2.53-19.912 0-36.903.14-37.759.312s-2.084.84-2.73 1.486c-.807.807-5.2 12.083-14.05 36.064-7.081 19.189-13.398 35.698-14.038 36.686-1.912 2.956-3.614 3.453-11.827 3.453-6.295 0-7.436-.13-9.31-1.058zm199.44.055c-2.419-1.114-53.287-41.576-53.735-42.742-.153-.4 10.258 7.703 23.136 18.009 19.543 15.638 23.673 18.737 24.975 18.737.997 0 2.346.6 3.74 1.664 3.284 2.507 5.518 2.932 14.426 2.748 6.96-.145 7.919-.27 8.9-1.16.863-.781 1.046-1.375.847-2.75-.236-1.625-94.478-227.9-96.745-232.28-.561-1.085-2.22-3.12-3.685-4.524-3.01-2.88-45.153-36.72-53.8-43.198-4.874-3.652-5.494-4.273-4.595-4.606 1.353-.5 3.988.613 7.217 3.051 5.729 4.325 51.679 41.341 53.68 43.244 1.193 1.133 2.799 3.297 3.569 4.81s23.026 54.547 49.457 117.85c38.83 93.006 48.057 115.52 48.057 117.29 0 1.7-.286 2.452-1.29 3.395-1.267 1.193-1.457 1.214-11.624 1.341-9.473.118-10.52.044-12.53-.881zm-486.41-1.872c-1.82-1.002-42.745-34.834-44.643-36.908-.687-.751 6.513 5.032 16 12.85 9.488 7.82 18.813 15.503 20.722 17.075 3.549 2.92 4.778 3.456 4.778 2.082 0-.61.347-.515 1.625.442 2.219 1.662 3.496 1.972 4.651 1.127.96-.702.976-2.397 1.102-115.59l.129-114.88-1.025-2.118c-.742-1.532-6.771-7.559-21.798-21.789-11.425-10.82-21.773-20.259-22.995-20.975-2.73-1.6-4.748-3.447-4.394-4.02.469-.758 3.412-.45 4.955.52 2.155 1.352 44.154 41.226 45.842 43.522.778 1.058 1.636 3.099 1.91 4.545.624 3.287.646 227.74.024 230.97-.724 3.747-3.488 5.01-6.883 3.143zm94.32-7.5-1.213-1.375 1.375 1.212c.757.667 1.375 1.285 1.375 1.375 0 .392-.405.073-1.538-1.212m-5.744-5.25-1.469-1.625 1.625 1.468c1.515 1.37 1.855 1.782 1.469 1.782-.086 0-.817-.732-1.625-1.625m-5.757-5.25-1.212-1.375 1.375 1.212c.757.667 1.375 1.285 1.375 1.375 0 .392-.405.073-1.538-1.212m-5.5-5-1.212-1.375 1.375 1.212c1.285 1.133 1.605 1.538 1.212 1.538-.09 0-.708-.619-1.375-1.375m-5.5-5-1.212-1.375 1.375 1.212c.757.667 1.375 1.285 1.375 1.375 0 .392-.405.073-1.538-1.212m183.97-3.5c-.621-.793-.604-.811.19-.19.832.654 1.097 1.065.685 1.065-.103 0-.497-.394-.875-.875m-189.72-1.75-1.468-1.625 1.625 1.468c.894.808 1.625 1.54 1.625 1.625 0 .387-.413.047-1.782-1.468m-5.756-5.25-1.212-1.375 1.375 1.212c1.285 1.133 1.604 1.538 1.212 1.538-.09 0-.708-.619-1.375-1.375m-6.76-6.25-.952-1.125 1.125.952c.619.524 1.125 1.03 1.125 1.125 0 .4-.402.105-1.298-.952m-5.712-5.137c-.348-.42-.536-.86-.417-.978.118-.118.49.225.825.762.726 1.163.484 1.29-.408.216m-119.75-39.975c-1.945-1.945-2.237-2.514-2.237-4.354v-2.118l2.144 2.104c2.333 2.29 4.016 2.675 4.853 1.11.365-.681.488-10.683.393-31.69l-.14-30.695-1.874-2.686c-1.031-1.477-13.856-17.423-28.5-35.435-23.283-28.638-27.036-33.032-29.894-35-1.798-1.237-3.936-2.925-4.75-3.75s-21.22-12.412-45.345-25.75-43.671-24.316-43.436-24.396 1.523.276 2.863.792c2.866 1.104 90.485 49.56 93.474 51.693 2.47 1.764.257-.878 32.163 38.403 14.41 17.742 26.673 33.27 27.25 34.508 1.025 2.198 1.053 2.965 1.192 33.13.096 20.67-.032 31.531-.388 32.851-.698 2.593-1.698 3.518-3.803 3.518-1.38 0-2.179-.45-3.965-2.236zm-370.56-49.26c-1.606-.647-2.679-2.496-2.679-4.615 0-1.765.098-1.889 1.5-1.889 1.24 0 1.5.203 1.5 1.173 0 .645.474 1.6 1.052 2.125.994.9 2.224.96 22.125 1.106 13.572.098 21.707-.032 22.853-.367.98-.286 2.285-1.057 2.902-1.714.702-.747 3.388-7.624 7.18-18.383 5.33-15.125 6.059-17.58 6.07-20.44.01-3.11-.435-4.315-10.33-27.955-5.687-13.588-10.716-25.119-11.174-25.625-1.003-1.109-3.097-1.21-3.496-.17-.441 1.15-.921.907-1.783-.899-.77-1.616-.757-1.676.667-3 .798-.743 2.007-1.35 2.686-1.35 2.938 0 3.73 1.5 14.774 28 5.787 13.887 10.874 26.498 11.303 28.025.703 2.501.704 3.07.015 5.75-1.31 5.094-11.851 34.864-13.112 37.034-2.188 3.764-1.663 3.695-27.807 3.659-12.746-.018-23.657-.226-24.246-.464zm751 0c-1.606-.647-2.679-2.496-2.679-4.615 0-1.734.115-1.889 1.397-1.889 1.142 0 1.484.295 1.875 1.618.858 2.901.862 2.902 24.892 2.76l21.914-.128 1.595-1.75c1.285-1.41 2.756-5.049 7.577-18.75 5.267-14.963 5.985-17.389 5.992-20.25.008-3.103-.45-4.347-10.184-27.643-5.606-13.416-10.628-24.947-11.161-25.625-1.12-1.422-2.477-1.58-3.635-.422-.92.92-.868.95-1.899-1.057-.748-1.456-.726-1.535.774-2.875.85-.758 2.088-1.378 2.753-1.378 2.846 0 3.893 2.01 15.367 29.5 10.608 25.414 10.955 26.354 10.908 29.5-.042 2.808-.872 5.59-6.107 20.444-3.333 9.457-6.565 18.097-7.183 19.2-2.21 3.943-1.604 3.86-27.866 3.824-12.792-.017-23.74-.226-24.33-.464zm-232.82-40.38c-1.246-1.376-1.862-3.467-1.862-6.319 0-2.103.232-2.848 1.157-3.717.636-.598 1.311-1.087 1.5-1.087.188 0 .343 1.446.343 3.214 0 4.519 1.292 5.74 4.11 3.882 1.25-.825 24.77-23.536 38.414-37.097 6.298-6.258 6.976-7.475 6.976-12.525 0-5.063-.203-5.286-22.813-25.067-11.416-9.987-21.48-18.608-22.365-19.158s-2.461-1.657-3.5-2.46c-1.617-1.249-1.771-1.529-1.066-1.923 1.386-.776 3.965.05 6.287 2.013 8.946 7.561 42.033 36.81 43.365 38.334 2.281 2.61 2.7 3.912 2.738 8.536.026 2.995-.22 4.566-.977 6.25-.776 1.728-5.82 6.962-21.715 22.534-22.037 21.59-24.58 23.997-26.296 24.895-1.584.829-3.385.7-4.295-.305zm23.638-8.761c0-.076 1.744-1.82 3.875-3.875l3.875-3.737-3.738 3.875c-3.47 3.599-4.012 4.103-4.012 3.737m28.75-29.362c1.91-1.925 3.586-3.5 3.723-3.5s-1.313 1.575-3.223 3.5-3.586 3.5-3.723 3.5 1.313-1.575 3.223-3.5m25-25.5c1.91-1.925 3.586-3.5 3.723-3.5s-1.313 1.575-3.223 3.5-3.586 3.5-3.723 3.5 1.313-1.575 3.223-3.5m21.75-22.138c0-.076 1.744-1.82 3.875-3.875l3.875-3.737-3.738 3.875c-3.47 3.599-4.012 4.103-4.012 3.737m301.44-1.737c-.622-.794-.604-.811.189-.19.481.378.875.772.875.876 0 .411-.41.146-1.064-.686m-10.5-9.5c-.622-.794-.604-.811.189-.19.481.378.875.772.875.876 0 .411-.41.146-1.064-.686m-5-4.5c-.622-.794-.604-.811.189-.19.48.378.875.772.875.876 0 .411-.41.146-1.064-.686m-509.97-4-1.212-1.375 1.375 1.212c.756.666 1.375 1.285 1.375 1.375 0 .392-.405.073-1.538-1.212m247.47-3c-.622-.794-.604-.811.189-.19.48.378.875.772.875.876 0 .411-.41.146-1.064-.686m252-2.5c-.622-.794-.604-.811.189-.19.48.378.875.772.875.876 0 .411-.41.146-1.064-.686m-5-4.5c-.622-.794-.604-.811.189-.19.833.654 1.097 1.065.686 1.065-.104 0-.498-.394-.875-.875m-10.5-9.5c-.622-.794-.604-.811.189-.19.48.378.875.772.875.876 0 .411-.41.146-1.064-.686m-5-4.5c-.622-.794-.604-.811.189-.19.48.378.875.772.875.876 0 .411-.41.146-1.064-.686m-108.96-20-1.723-1.875 1.875 1.723c1.031.947 1.875 1.791 1.875 1.875 0 .381-.423.022-2.027-1.723m-11.255-11.75-1.469-1.625 1.625 1.468c1.515 1.369 1.855 1.782 1.469 1.782-.086 0-.817-.732-1.625-1.625m121.69-73.217c.36-.145.792-.127.958.039s-.129.284-.656.263c-.582-.024-.701-.143-.302-.302m-6-.5c.36-.145.792-.127.958.039s-.129.284-.656.263c-.582-.024-.701-.143-.302-.302m-18.5-1.5c.36-.145.792-.127.958.039s-.129.284-.656.263c-.582-.024-.701-.143-.302-.302m-18.5-1.5c.36-.145.792-.127.958.039s-.129.284-.656.263c-.582-.024-.701-.143-.302-.302m51.03-.534c-.622-.793-.604-.81.189-.189.833.653 1.097 1.064.686 1.064-.104 0-.498-.394-.875-.875m-57.03.033c.36-.144.792-.126.958.04s-.129.284-.656.263c-.582-.024-.701-.143-.302-.302m-141.16-1.158c-.17-.275.055-.5.5-.5s.67.225.5.5-.395.5-.5.5-.33-.225-.5-.5m122.66-.341c.36-.145.792-.127.958.039s-.129.284-.656.263c-.582-.024-.701-.143-.302-.302m-6-.5c.36-.145.792-.127.958.039s-.129.284-.656.263c-.582-.024-.701-.143-.302-.302m-12.5-1c.36-.145.792-.127.958.039s-.129.284-.656.263c-.582-.024-.701-.143-.302-.302m-6-.5c.36-.145.792-.127.958.039s-.129.284-.656.263c-.582-.024-.701-.143-.302-.302m-18.5-1.5c.36-.145.792-.127.958.039s-.129.284-.656.263c-.582-.024-.701-.143-.302-.302m-6-.5c.36-.145.792-.127.958.039s-.129.284-.656.263c-.582-.024-.701-.143-.302-.302m118.3-1.284-.953-1.125 1.125.953c1.058.895 1.353 1.297.953 1.297-.095 0-.601-.506-1.125-1.125m-136.8-.216c.36-.145.792-.127.958.04.166.165-.129.283-.656.262-.582-.024-.701-.143-.302-.302m-18.5-1.5c.36-.145.792-.127.958.04.166.165-.129.283-.656.262-.582-.024-.701-.143-.302-.302m-6-.5c.36-.145.792-.127.958.04.166.165-.129.283-.656.262-.582-.024-.701-.143-.302-.302m-18.5-1.5c.36-.145.792-.127.958.04.166.165-.129.283-.656.262-.582-.024-.701-.143-.302-.302m-6-.5c.36-.145.792-.127.958.04.166.165-.129.283-.656.262-.582-.024-.701-.143-.302-.302m-12.5-1c.36-.145.792-.127.958.04.166.165-.129.283-.656.262-.582-.024-.701-.143-.302-.302m192.3-1.284-.953-1.125 1.125.953c1.058.895 1.353 1.297.953 1.297-.095 0-.601-.506-1.125-1.125m-6-6.5-.953-1.125 1.125.953c1.058.895 1.353 1.297.953 1.297-.095 0-.601-.506-1.125-1.125m-6-6.5-.953-1.125 1.125.953c1.058.895 1.353 1.297.953 1.297-.095 0-.601-.506-1.125-1.125m-6.266-6.75c-.622-.793-.605-.81.188-.189.833.654 1.098 1.064.687 1.064-.104 0-.498-.394-.875-.875"/><path fill="#b4f8fc" d="M590.682 753.85c-5.718-.729-12.661-2.808-18.181-5.445-5.957-2.845-9.96-5.577-14.569-9.944l-3.25-3.08 2.5 1.714c5.47 3.748 13.645 7.257 20.75 8.906 6.152 1.428 20.138 1.815 26.362.73 7.055-1.23 13.812-3.553 15.483-5.323 1.492-1.58 3.805-1.976 5.683-.97 2.106 1.126 3.22 5.713 1.832 7.533-.895 1.172-3.082 2.184-7.868 3.643-8.365 2.55-19.491 3.415-28.741 2.236zm-304.75-.258c-1.945-.628-3.144-1.498-3.793-2.752-1.215-2.349-.896-3.898 1.168-5.682l1.875-1.62.133-43.808.133-43.807h1.675c2.196 0 4.148 1.589 4.789 3.898.778 2.802.652 87.813-.133 90.055-.855 2.439-3.869 4.354-5.847 3.716zm20.507-.545c-3.358-1.684-4.036-5.442-1.382-7.658l1.625-1.357.133-42.305.134-42.305h11.468c12.116 0 13.375-.198 14.77-2.327.597-.911 1.22-1.173 2.795-1.173 4.016 0 6.193 4.147 4.2 8.002-1.116 2.157-3.182 2.493-15.375 2.496l-10.875.003v41.525c0 46.054.16 43.832-3.267 45.265-2.129.89-2.122.89-4.226-.165zm104.74.519c-1.995-.48-3.75-2.697-3.75-4.737v-1.906h27.516c29.945 0 30.338-.035 31.585-2.772.55-1.208.78-1.295 2.626-1 2.868.457 4.14 1.461 4.85 3.83.544 1.818.503 2.275-.356 3.876-.655 1.224-1.543 2.01-2.722 2.412-1.279.437-9.409.59-30.249.567-15.675-.016-28.95-.138-29.5-.27zm287.89.006c-1.75-.339-3.642-2.95-3.642-5.026 0-1.42.344-2.088 1.625-3.157l1.625-1.357.131-55.055.132-55.055h1.735c1.212 0 2.23.441 3.369 1.46l1.633 1.458.131 56.304c.146 62.505.35 58.606-3.148 60.068-.936.391-1.877.68-2.092.643s-.89-.165-1.5-.283zm22.108-.019c-.55-.125-1.619-.81-2.375-1.523-1.761-1.658-1.985-5.246-.38-6.105 2.417-1.293 2.505-2.11 2.505-23.228v-19.775h21.5v7h-14.5v19.516c0 20.604-.165 22.262-2.333 23.375-1.321.679-3.261 1.004-4.417.74m31.939-.349c-3.59-1.563-4.239-5.132-1.44-7.931l1.75-1.75V699.29l2.126.285c1.523.204 2.514.72 3.5 1.823l1.375 1.54v23.63c0 26.203.12 25.227-3.3 26.656-2.003.837-2.04.837-4.011-.021zm22.453.355c-1.718-.312-3.642-2.932-3.642-4.958 0-1.347.4-2.122 1.75-3.396l1.75-1.65v-109.63h1.742c1.218 0 2.233.438 3.375 1.458l1.633 1.46.131 56.303c.116 49.621.041 56.478-.63 57.776-1.067 2.063-3.5 3.114-6.109 2.64zm-375.9-66.887c0-30.25.06-42.55.134-27.337.073 15.215.073 39.965 0 55-.074 15.035-.134 2.587-.134-27.663m309.99 32.5c0-12.1.065-16.978.145-10.84.08 6.137.08 16.036 0 22-.08 5.962-.145.94-.145-11.16m-298.73-32.75v-49h53.1l1.75-1.75c2.244-2.244 4.448-2.368 6.66-.375 2.824 2.547 2.107 7.345-1.293 8.638-.773.294-11.59.487-27.25.487H417.93v91h-7zm185.01 45.446c-4.983-.588-8.076-1.534-12.814-3.918-3.869-1.946-9.014-5.797-10.391-7.778-.543-.78.233-.544 3.54 1.081 6.29 3.09 10.128 3.912 18.155 3.89 4.882-.013 7.649-.265 10-.91 4.398-1.208 10.978-4.369 12.462-5.988 1.756-1.916 4.592-1.845 6.604.166 1.298 1.299 1.47 1.793 1.336 3.854-.136 2.11-.376 2.533-2.234 3.947-2.292 1.745-9.51 4.547-13.419 5.21-4.323.734-9.365.904-13.24.446zm-163.3-.483c-2.117-.615-3.244-2.013-3.568-4.424l-.273-2.039h16.832c18.138 0 19.728-.198 20.823-2.6.452-.993.827-1.13 2.702-.98 5.9.47 7.039 8.488 1.426 10.047-2.334.648-35.707.645-37.942-.004zm124.62-8.968c-10.219-11.037-14.912-24.178-14.178-39.7.465-9.843 2.962-17.715 8.144-25.683 9.038-13.895 23.605-21.545 41.416-21.75 6.779-.077 11.47.688 18.151 2.963 5.05 1.718 5.129 1.728 6.92.878 1.094-.519 2.13-1.525 2.612-2.535.879-1.843 1.252-1.85 4.718-.102 2.143 1.081 2.892 2.229 2.892 4.434 0 2.978-2.13 5.47-4.69 5.49-.793.005-3.445-.678-5.894-1.519s-7.012-1.9-10.14-2.355c-16.98-2.467-35.122 4.2-45.541 16.738-7.96 9.577-11.809 20.513-11.756 33.396.05 11.98 3.027 22.223 8.83 30.375.93 1.306 1.602 2.375 1.494 2.375-.107 0-1.447-1.352-2.977-3.005zm36.3-8.34c.481-.125 1.269-.125 1.75 0 .481.126.087.23-.875.23s-1.356-.104-.875-.23m-148.25-.528c3.094-.088 8.156-.088 11.25 0s.562.16-5.625.16-8.719-.072-5.625-.16m-12.375-5.377v-5.25h21.132l1.65-1.75c1.922-2.038 3.635-2.254 6.074-.767 2.854 1.74 3.047 6.056.375 8.392-1.249 1.092-1.604 1.125-12.009 1.125h-10.722v3.5h-6.5zm142.17-1.13c-3.423-3.146-5.367-6.19-6.933-10.856-3.684-10.973-1.185-23.392 6.161-30.625 5.477-5.393 11.45-7.708 19.85-7.697 5.553.007 9 .755 14.062 3.05 4.303 1.951 6.311 1.963 8.227.047.804-.804 1.461-1.816 1.461-2.25 0-1.043.636-.995 3.041.232 3.071 1.567 3.96 2.692 3.96 5.012 0 2.583-.635 3.753-2.582 4.76-1.897.98-2.993.79-8.419-1.469-9.14-3.804-17.54-3.654-25.906.463-6.891 3.391-11.692 9.456-13.668 17.268-1.894 7.488-.64 18.539 2.616 23.07.543.757.925 1.373.848 1.37s-1.3-1.072-2.719-2.375zm-143.8-19.66c-1.142-.666-2.375-3.082-2.375-4.654v-1.243l25.078-.313 1.717-1.875c1.898-2.072 3.33-2.353 5.714-1.12 1.891.977 2.49 2.161 2.49 4.917 0 1.886-.242 2.443-1.538 3.533l-1.538 1.295-14.337-.016c-8.805-.009-14.674-.211-15.212-.524zm287.59-.922c-1.07-1.07-1.462-1.94-1.462-3.25v-1.788h15.516c16.644 0 18-.177 19.67-2.559.723-1.033.815-3.625.815-23.053v-21.889h1.548c2.02 0 4.272 1.36 4.945 2.984.362.874.49 8.958.396 24.948l-.14 23.655-2.805 2.413h-37.021zm-291.56-5.38c.36-.144.792-.127.958.04.166.166-.129.284-.656.262-.582-.024-.7-.142-.302-.302m288.5 0c.36-.144.792-.127.958.04.166.166-.129.284-.656.262-.582-.024-.7-.142-.302-.302m-6.256-8.158c0-1.513.093-2.131.208-1.375s.114 1.994 0 2.75c-.115.756-.208.137-.208-1.375m-276.65-8.25v-5.25l15.125-.002c14.053-.002 15.237-.07 16.705-.966.869-.53 1.71-1.374 1.87-1.877.236-.744.705-.88 2.525-.736 5.166.411 7.032 6.59 2.849 9.431-1.193.81-2.884.915-16.95 1.05l-15.624.152v3.448h-6.5zm276.73-13.75c0-10.588.066-14.92.147-9.625.08 5.294.08 13.956 0 19.25s-.147.962-.147-9.625m11.273 1v-18h1.638c.902 0 2.163.367 2.803.815 2.382 1.668 2.559 3.025 2.559 19.67v15.515h-7zM258.07 666.07c-1.71-.331-3.643-2.952-3.643-4.938v-1.712h19.5v7l-7.375-.068c-4.056-.037-7.873-.164-8.482-.282m-.964-22.145c-1.605-.648-2.678-2.497-2.678-4.616v-1.889h76.632l1.65-1.75c1.808-1.916 2.09-1.988 4.842-1.223 3.518.976 4.607 5.82 1.914 8.512l-1.461 1.461-39.913-.031c-21.952-.018-40.396-.227-40.985-.464zm-208.93-33.45c-1.1-.507-2.545-1.514-3.212-2.238l-1.212-1.316h1.308c.72 0 2.12.479 3.113 1.064 1.334.787 2.935 1.128 6.153 1.308 5.103.285 8.276-.414 9.356-2.06.414-.633 6.467-16.6 13.453-35.484 6.984-18.884 13.275-35.316 13.979-36.516 2.51-4.282.134-4.043 41.784-4.206 25.472-.1 36.92-.31 37.375-.686.36-.299.653-1.047.653-1.664 0-1.099-12.803-31.672-14.385-34.35-.443-.75-1.446-1.63-2.23-1.954-1.281-.53-2.74-2.264-2.286-2.717.466-.466 4.13.805 5.189 1.8 1.086 1.02 15.62 34.16 16.466 37.543.473 1.895-.474 3.297-2.634 3.897-1.212.337-14.531.52-37.87.523-40.526.004-38.436-.19-40.584 3.752-.6 1.1-6.736 17.3-13.636 36s-12.952 34.562-13.448 35.25c-1.703 2.358-3.811 3-9.831 2.988-4.276-.008-5.946-.216-7.5-.933zm199.66.263c-1.01-.37-2.797-1.38-3.973-2.245l-2.139-1.572h1.82c1 0 2.623.474 3.605 1.053 1.47.867 2.864 1.095 7.903 1.293 3.366.132 7.019.043 8.119-.198 1.756-.384 2.019-.626 2.153-1.986.112-1.142-12.345-31.482-47.357-115.34-26.13-62.586-47.95-114.64-48.485-115.68-.537-1.04-1.921-2.79-3.076-3.89s-2.412-2.723-2.792-3.607c-.497-1.156-5.67-5.615-18.442-15.896-9.763-7.859-17.75-14.403-17.75-14.542 0-.41 38.034 30.216 40.65 32.734 1.32 1.271 3.057 3.661 3.858 5.311 2.678 5.516 95.619 228.47 96.148 230.65.469 1.93.41 2.258-.58 3.25-1.038 1.039-1.59 1.11-9.465 1.223-6.017.086-8.877-.069-10.197-.553zm81.959-.03c-1.032-.369-2.72-1.315-3.75-2.104l-1.874-1.433 1.464-.167c.848-.097 2.27.286 3.376.907 2.402 1.35 9.776 1.962 12.561 1.042 1.477-.487 1.933-.959 2.363-2.443.371-1.279.488-27.354.385-85.589-.13-73.243-.243-83.938-.899-85.247-.796-1.59-37.623-48.62-42.626-54.438-1.915-2.227-2.783-3.606-2.468-3.921.643-.642 1.918.072 3.914 2.19 2.553 2.709 40.733 51.444 42.401 54.122l1.53 2.456.13 85.622c.086 56.466-.04 86.072-.371 86.943-.778 2.046-3.2 2.776-9.118 2.75-2.97-.012-5.933-.304-7.017-.69zm288.5 0c-1.032-.369-2.72-1.315-3.75-2.104l-1.874-1.433 1.464-.167c.878-.1 2.28.299 3.5.995 1.835 1.046 2.665 1.162 8.396 1.166 5.955.005 6.432-.067 7.5-1.133l1.14-1.14v-47.61c0-44.532-.057-47.726-.884-49.386-.764-1.533-36.646-47.597-40.293-51.726a359 359 0 0 1-3.719-4.327l-2.393-2.827 1.845.416c1.014.23 2.248.826 2.741 1.327 2.146 2.18 43.042 54.582 43.83 56.161.81 1.623.883 5.254 1.006 50 .1 36.39-.013 48.603-.461 49.686-.35.847-1.27 1.719-2.242 2.125-2.197.918-13.213.9-15.806-.025zm122.54.013c-1.01-.36-2.797-1.363-3.973-2.228l-2.139-1.572h1.82c1 0 2.676.506 3.723 1.125 1.802 1.065 2.533 1.134 13.663 1.3 12.716.19 15.99-.2 15.99-1.9 0-.514-24.687-33.637-54.859-73.606s-55.26-73.449-55.75-74.4c-1.182-2.298-1.123-3.934.234-6.437.628-1.157 19.71-21.352 43.125-45.638 23.1-23.96 42.273-44.043 42.607-44.63.93-1.631.772-2.451-.836-4.334-.814-.952-1.49-1.99-1.5-2.305-.015-.425-22.708-22.698-25.717-25.241-.246-.208.07-.243.703-.078 1.131.296 9.604 8.076 23.105 21.216 7.554 7.353 8.222 8.492 6.594 11.25-.525.889-19.855 21.22-42.955 45.18s-42.394 44.277-42.875 45.148c-1.094 1.98-1.106 3.452-.048 5.5.455.88 25.37 34.113 55.368 73.85s54.945 73.059 55.437 74.048c2.027 4.07.598 4.458-16.332 4.43-9.86-.016-14.05-.2-15.385-.677zm58.335-.22c-1.1-.521-2.545-1.54-3.212-2.264l-1.212-1.316h1.308c.72 0 2.126.482 3.125 1.071 1.388.82 2.898 1.125 6.404 1.296 5.577.272 8.147-.443 9.402-2.617.476-.825 6.49-16.723 13.364-35.33s12.83-34.467 13.237-35.25c.834-1.604 2.485-3.216 4.334-4.233 1.022-.562 7.858-.71 37.5-.811 19.938-.068 36.756-.241 37.375-.385.854-.198 1.125-.617 1.125-1.739 0-1.273-11.278-28.667-13.993-33.989-.55-1.08-1.572-2.127-2.416-2.476-1.303-.54-3.121-3.042-2.205-3.035 1.567.012 4.261 1.278 5.27 2.476 1.084 1.288 13.828 30.416 15.723 35.938.986 2.873.34 4.337-2.23 5.05-1.25.348-14.169.529-37.824.53-40.377.004-38.317-.184-40.54 3.693-.65 1.133-6.738 17.135-13.528 35.56s-12.792 34.3-13.339 35.278c-1.605 2.873-2.476 3.183-9.418 3.35-5.309.129-6.551.008-8.25-.797zm199.47.136c-1.117-.405-2.805-1.398-3.75-2.206l-1.719-1.47 1.468-.02c.807-.011 2.454.458 3.66 1.042 2.435 1.178 11.024 1.866 15.3 1.225 3.27-.49 3.64-1.428 2.134-5.388-1.943-5.105-93.811-224.94-94.922-227.14-.558-1.106-2.055-3.147-3.327-4.535s-2.674-3.206-3.115-4.04c-.46-.867-6.182-5.838-13.375-11.618-6.915-5.556-12.572-10.21-12.572-10.344 0-.429 27.657 21.821 30.415 24.468 1.465 1.407 3.124 3.446 3.685 4.532 2.267 4.383 96.509 230.65 96.745 232.28.2 1.374.016 1.968-.846 2.75-.996.902-1.892 1.007-9.425 1.1-6.293.076-8.82-.079-10.355-.636zm-487.97-3.004c-2.278-1.188-3.251-2.247-3.251-3.54 0-1.32.594-1.514 1.455-.476.318.382.995.805 1.506.938 2.415.632 2.28 6.917 2.417-112.93.086-75.18-.04-112.95-.382-114.22-.28-1.041-1.492-2.987-2.694-4.323-1.2-1.336-2.266-2.779-2.368-3.206s-8.96-9.06-19.684-19.184-19.725-18.64-20-18.925.434.026 1.575.691c1.14.665 11.425 10.062 22.853 20.882 15.036 14.235 21.062 20.257 21.804 21.79l1.025 2.117-.129 114.88c-.126 113.06-.143 114.89-1.098 115.59-1.2.877-1.197.877-3.029-.078zM4.291 560.05c2.544-.09 6.706-.09 9.25 0s.463.165-4.625.165-7.169-.074-4.625-.165m181.5 0c2.819-.09 7.431-.09 10.25 0s.513.162-5.125.162-7.944-.073-5.125-.162m86.5 0c2.819-.09 7.431-.09 10.25 0s.513.162-5.125.162-7.944-.073-5.125-.162m291.03 0c2.833-.09 7.333-.09 10 0s.348.163-5.152.162c-5.5 0-7.681-.073-4.848-.163m116.22 0c2.681-.09 7.069-.09 9.75 0s.488.163-4.875.163-7.556-.073-4.875-.163m75.75 0c2.544-.09 6.706-.09 9.25 0s.463.165-4.625.165-7.169-.074-4.625-.165m181.5 0c2.819-.09 7.431-.09 10.25 0s.513.162-5.125.162-7.944-.073-5.125-.162m-498.27-43.271c-1.641-1.673-2.104-2.52-2.104-3.848v-1.705l1.649 1.598c2.142 2.076 3.22 2.068 3.603-.026.163-.894.23-13.904.147-28.912l-.15-27.287-1.362-2.059c-1.37-2.07-51.053-63.429-56.48-69.756-1.6-1.863-2.907-3.507-2.907-3.653 0-.58 3.284 1.668 5.538 3.791 2.402 2.264 53.458 65.006 55.902 68.698l1.31 1.978.139 30.667c.096 20.987-.028 30.981-.393 31.662-.857 1.602-2.593 1.194-4.893-1.149zm-367.6-47.211c-1.423-.524-2.5-1.804-2.5-2.973 0-1.58 2.087-1.612 3.125-.048l.746 1.125 18.44.158c20.988.18 23.338.022 24.904-1.667 1.715-1.85 12.785-34.132 12.785-37.282 0-2.125-1.436-5.972-9.277-24.861-5.102-12.291-9.672-23.022-10.156-23.847-.563-.962-1.288-1.505-2.02-1.513-.681-.007-1.397-.49-1.776-1.198-1.26-2.355 2.062-4.157 3.907-2.12.457.507 5.486 12.038 11.174 25.626 9.895 23.64 10.34 24.845 10.329 27.955-.01 2.86-.74 5.314-6.066 20.426-3.33 9.447-6.461 17.634-6.96 18.194-2.052 2.305-2.873 2.382-25.014 2.34-11.49-.022-21.23-.164-21.641-.315zm750.66-.139c-1.173-.484-2.158-1.955-2.158-3.224 0-1.18 2.813-1.053 3.125.141.37 1.415 2.483 1.565 22.125 1.568 18.874.003 21.222-.221 22.482-2.144.83-1.267 11.931-32.786 12.435-35.31.184-.92.086-2.6-.218-3.73-.577-2.145-17.346-42.666-18.993-45.894-1.116-2.187-1.839-2.731-2.608-1.962-.42.42-.78.147-1.403-1.057-.804-1.555-.797-1.656.185-2.508 1.408-1.221 2.621-1.11 3.766.345.533.678 5.556 12.21 11.161 25.625 9.734 23.295 10.192 24.54 10.184 27.643-.007 2.86-.725 5.287-5.991 20.25-4.822 13.701-6.293 17.34-7.578 18.75l-1.595 1.75-21.914.104c-12.134.057-22.4-.098-23.006-.347zm-233.16-41.496c-.517-.327-.828-1.66-1.003-4.3-.227-3.423-.148-3.899.75-4.531.957-.675 1.01-.6 1.16 1.67.086 1.306.395 2.662.686 3.013 1.29 1.555-.304 2.977 30.973-27.648 12.539-12.28 12.828-12.607 13.385-15.201.944-4.405-.25-8.067-3.385-10.385-.823-.61-1.57-1.638-1.657-2.286-.112-.834-5.695-6.027-19.159-17.82-20.874-18.284-20.679-18.106-18.416-16.734.871.529 10.927 9.132 22.346 19.12 22.62 19.78 22.82 20.001 22.82 25.066 0 5.05-.677 6.267-6.975 12.525-13.645 13.56-37.164 36.272-38.415 37.097-1.543 1.018-2.048 1.086-3.11.415zm28.999-12.7c0-.104.394-.497.875-.875.793-.622.81-.604.189.189-.653.833-1.064 1.098-1.064.686m25-25.5c0-.104.394-.497.875-.875.793-.622.81-.604.189.189-.653.833-1.064 1.098-1.064.686m25-25.5c0-.104.394-.497.875-.875.793-.622.81-.604.189.189-.653.833-1.064 1.098-1.064.686m211.11-25.757c-5.025-4.057-9.412-7.691-9.75-8.077-.728-.83-1.154-1.161 10.261 7.96 7.51 6.002 9.54 7.748 8.75 7.529-.069-.02-4.236-3.355-9.261-7.412zm-185.61-.243c0-.103.394-.497.875-.875.793-.622.81-.604.189.19-.653.832-1.064 1.097-1.064.685m-567.3-1.436-.952-1.125 1.125.953c1.057.895 1.352 1.297.952 1.297-.095 0-.601-.506-1.125-1.125m-2.5-2-.952-1.125 1.125.953c1.057.895 1.352 1.297.952 1.297-.095 0-.601-.506-1.125-1.125m-2.5-2-.952-1.125 1.125.953c1.057.895 1.352 1.297.952 1.297-.095 0-.601-.506-1.125-1.125m-2.5-2-.952-1.125 1.125.953c1.057.895 1.352 1.297.952 1.297-.095 0-.601-.506-1.125-1.125m812.7-134.72c.361-.144.792-.126.958.04.167.166-.129.284-.656.262-.582-.024-.7-.142-.302-.302m-18.5-1.5c.361-.144.792-.126.958.04.167.166-.129.284-.656.262-.582-.024-.7-.142-.302-.302m-6-.5c.361-.144.792-.126.958.04.167.166-.129.284-.656.262-.582-.024-.7-.142-.302-.302m-18.5-1.5c.361-.144.792-.126.958.04.167.166-.129.284-.656.262-.582-.024-.7-.142-.302-.302m60.53-1.033c-.622-.793-.604-.81.189-.189.833.653 1.098 1.064.686 1.064-.104 0-.498-.394-.875-.875m-85.03-.967c.361-.144.792-.126.958.04.167.166-.129.284-.656.262-.582-.024-.7-.142-.302-.302m-18.5-1.5c.361-.144.792-.126.958.04.167.166-.129.284-.656.262-.582-.024-.7-.142-.302-.302m-24.5-2c.361-.144.792-.126.958.04.167.166-.129.284-.656.262-.582-.024-.7-.142-.302-.302m-18.5-1.5c.361-.144.792-.126.958.04.167.166-.129.284-.656.262-.582-.024-.7-.142-.302-.302m-6-.5c.361-.144.792-.126.958.04.167.166-.129.284-.656.262-.582-.024-.7-.142-.302-.302m-18.5-1.5c.361-.144.792-.126.958.04.167.166-.129.284-.656.262-.582-.024-.7-.142-.302-.302m-24.5-2c.361-.144.792-.126.958.04.167.166-.129.284-.656.262-.582-.024-.7-.142-.302-.302m171.03-16.533c-.622-.793-.604-.81.189-.189.833.654 1.098 1.064.686 1.064-.104 0-.498-.394-.875-.875"/><path fill="#99eef8" d="M464.932 745.73c0-.104.394-.498.875-.875.793-.622.81-.604.189.189-.653.833-1.064 1.097-1.064.686m253.5 0c0-.104.394-.498.875-.875.793-.622.81-.604.189.189-.653.833-1.064 1.097-1.064.686m25.436-.686c-.622-.793-.604-.81.189-.189.833.653 1.097 1.064.686 1.064-.104 0-.498-.394-.875-.875m-194.5-14.5c-.622-.793-.604-.81.189-.189.833.653 1.097 1.064.686 1.064-.104 0-.498-.394-.875-.875m40.939-5.456c.344-.139.906-.139 1.25 0s.063.252-.625.252-.969-.114-.625-.252m7.531-.01c.361-.145.792-.127.959.039s-.13.284-.657.262c-.582-.024-.7-.142-.302-.302m-132.91-1.348c0-.104.394-.498.875-.875.793-.622.81-.604.189.189-.653.833-1.064 1.098-1.064.686m-32.285-10.472c-.14-.363-.18-2.895-.089-5.625l.165-4.964.104 5.353.105 5.353 7.25.345-3.64.1c-2.63.071-3.712-.085-3.895-.562m24.324-15.63c.024-.583.143-.702.302-.303.145.36.127.792-.04.958-.165.166-.284-.129-.262-.656m-22.664-16.583c3.369-.086 8.881-.086 12.25 0s.613.157-6.125.157-9.494-.07-6.125-.157m290.5 0c4.469-.083 11.781-.083 16.25 0s.813.15-8.125.15-12.594-.068-8.125-.15m26.875-1.626c.498-.55 1.018-1 1.155-1s-.157.45-.655 1-1.017 1-1.155 1 .157-.45.655-1m-319.06-14.75c.001-3.025.084-4.198.183-2.607.1 1.591.099 4.066-.002 5.5-.1 1.434-.182.132-.18-2.893m142.81-.44c0-.103.394-.497.875-.874.793-.622.81-.604.189.189-.653.832-1.064 1.097-1.064.686m40.75-3.31c.498-.55 1.018-1 1.155-1s-.157.45-.655 1-1.017 1-1.155 1 .157-.45.655-1m-24.875-3.332c.344-.138.906-.138 1.25 0s.063.253-.625.253-.969-.114-.625-.253m4 0c.344-.138.906-.138 1.25 0s.063.253-.625.253-.969-.114-.625-.253m20.031-18.01c.361-.144.792-.126.959.04s-.13.284-.657.263c-.582-.024-.7-.143-.302-.302m-25.272-4.504c.487-.127 1.162-.119 1.5.018s-.06.24-.884.23-1.102-.122-.616-.248m6.272.005c.36-.145.792-.127.958.04.166.165-.129.283-.656.262-.582-.024-.701-.143-.302-.302m-5.531-10.99c.343-.14.906-.14 1.25 0s.062.252-.625.252-.97-.114-.625-.252m4 0c.343-.14.906-.14 1.25 0s.062.252-.625.252-.97-.114-.625-.252m-544.12-15.133c-.825-.2-2.063-.683-2.75-1.074-1.157-.659-.862-.73 3.954-.962l5.203-.25 28.675-77.5 41.386-.128c32.77-.101 41.333-.257 41.132-.75-.14-.342-3.648-8.593-7.797-18.335s-7.462-17.794-7.363-17.894c.444-.444 2.72 1.068 3.438 2.285 1.573 2.663 14.372 33.235 14.372 34.329 0 .616-.294 1.365-.654 1.663-.453.377-11.903.587-37.375.687-41.65.162-39.275-.077-41.784 4.206-.703 1.2-6.994 17.633-13.979 36.516-6.985 18.884-13.037 34.848-13.449 35.478s-1.595 1.379-2.63 1.666c-2.098.583-8.075.619-10.38.063zm199.5-.001c-1.1-.187-2.563-.665-3.25-1.062-1.131-.654-.428-.736 7.375-.86 4.743-.075 8.625-.213 8.625-.307 0-.093-22.253-53.438-49.45-118.54-48.836-116.9-49.423-118.35-47.21-116.19 1.234 1.2 2.682 3.031 3.219 4.07s22.356 53.096 48.486 115.68c35.264 84.461 47.47 114.2 47.357 115.36-.125 1.286-.421 1.624-1.653 1.885-1.983.42-10.969.401-13.5-.029zm81.75 0c-.963-.192-2.313-.673-3-1.067-1.15-.66-.796-.73 4.375-.86l5.625-.14v-176.81l-14.32-18.206c-21.721-27.615-23.417-29.804-22.052-28.455 2.037 2.014 40.048 50.61 40.872 52.253.656 1.31.768 12.004.898 85.247.103 57.908-.014 84.314-.38 85.578-.4 1.38-.915 1.962-2.099 2.375-1.708.595-7.128.64-9.92.082zm288.5.026c-.963-.207-2.313-.699-3-1.093-1.14-.655-.666-.73 5.375-.858l6.625-.14V504.51l-18.5-23.541c-10.175-12.948-18.5-23.673-18.5-23.833 0-.454 1.167 1.004 21.427 26.76 10.48 13.325 19.452 25.025 19.939 26 .827 1.66.884 4.855.884 49.387v47.61l-1.126 1.127c-1.005 1.005-1.68 1.138-6.25 1.233-2.818.059-5.912-.063-6.874-.27zm122.75-.026c-1.1-.187-2.563-.665-3.25-1.062-1.116-.646.39-.75 14.053-.973l15.303-.25-117.75-156 5.584-5.75c3.072-3.163 23.572-24.398 45.558-47.19l39.973-41.44 1.642 1.899c1.764 2.04 1.948 2.88.998 4.547-.334.586-19.507 20.669-42.607 44.629-23.415 24.287-42.498 44.482-43.125 45.638-1.357 2.503-1.417 4.139-.234 6.437.49.952 25.578 34.432 55.75 74.4s54.86 73.09 54.86 73.603c0 .65-.566 1.088-1.876 1.452-2.048.569-21.605.617-24.875.061zm58.5 0c-.825-.199-2.063-.682-2.75-1.073-1.157-.659-.858-.73 3.982-.962l5.231-.25 28.68-77.5 41.303-.128c22.717-.07 41.304-.207 41.304-.303s-3.471-8.36-7.714-18.366-7.648-18.258-7.565-18.341c.528-.528 3.015 1.389 3.8 2.928 2.705 5.301 13.98 32.693 13.98 33.962 0 1.122-.271 1.541-1.126 1.739-.618.143-17.438.317-37.375.385-29.642.1-36.478.248-37.5.81-1.85 1.018-3.5 2.63-4.334 4.235-.407.781-6.363 16.644-13.237 35.25s-12.887 34.504-13.363 35.329c-.501.868-1.591 1.75-2.59 2.096-1.885.652-8.336.766-10.725.19zm199.4-.06c-1.156-.228-2.619-.71-3.25-1.07-.986-.563.07-.674 7.476-.792 4.744-.075 8.625-.246 8.625-.38s-22.07-53.06-49.047-117.61c-26.976-64.554-49.17-117.71-49.324-118.12-.591-1.601 4.022 3.375 5.122 5.525 1.183 2.312 92.862 221.6 95.06 227.37 1.39 3.654 1.097 4.794-1.356 5.285-2.166.433-10.738.299-13.307-.209zm-393.21-2.85c-.622-.793-.605-.81.188-.189.833.653 1.098 1.064.687 1.064-.104 0-.498-.394-.875-.875m-97.436-1.57c-.413-.167-1.257-.64-1.875-1.05l-1.125-.746.02-116 .02-116 2.215 2.408c1.219 1.324 2.446 3.236 2.727 4.25.549 1.973.756 223.9.212 225.93-.332 1.237-1.098 1.662-2.194 1.215zm74.936-18.93c-.622-.793-.605-.811.188-.189.833.653 1.098 1.064.687 1.064-.104 0-.498-.394-.875-.875m-129.19-141.62c0-66.962.058-94.356.129-60.875s.07 88.269 0 121.75-.13 6.087-.13-60.875m-168.5 19.25c0-53.35.058-75.101.13-48.335s.071 70.416 0 97c-.072 26.584-.13 4.685-.13-48.665m150.35 49.6-1.598-1.648v-30.68c0-30.587.003-30.675.994-29.778.547.495 1.728 2.043 2.625 3.44l1.63 2.541.15 27.262c.082 14.994.016 27.993-.148 28.887-.388 2.126-1.577 2.118-3.653-.024zm-364.97-45.203c-.62-.12-1.357-.649-1.64-1.176-.501-.937-.063-.962 18.83-1.09l19.343-.131 7.165-20.5c3.94-11.275 7.168-20.86 7.172-21.3.004-.439-3.048-8.089-6.782-17a8793 8793 0 0 1-9.19-22l-2.402-5.8 1.288.05c.873.033 1.57.533 2.163 1.55.481.824 5.05 11.555 10.152 23.846 7.841 18.89 9.277 22.736 9.277 24.861 0 1.916-1.38 6.476-5.807 19.191-3.194 9.173-6.187 17.18-6.65 17.795s-1.732 1.323-2.818 1.575c-1.923.446-37.855.562-40.1.13zm751.13-.085c-.849-.182-1.566-.694-1.66-1.185-.156-.806 1.136-.874 18.976-.996l19.144-.131 14.62-41.88-9.123-21.81c-7.581-18.127-9.011-21.926-8.466-22.495.856-.892 1.553-.416 2.708 1.848 1.647 3.229 18.416 43.749 18.993 45.893.305 1.131.403 2.81.219 3.73-.505 2.524-11.605 34.042-12.435 35.31-.398.607-1.569 1.338-2.603 1.625-2.04.567-37.775.646-40.374.09zm-233.32-11.937c-.622-.793-.605-.811.188-.189.482.377.875.771.875.875 0 .411-.41.147-1.063-.686m-155.73-7.25-.953-1.125 1.125.952c1.057.895 1.353 1.298.953 1.298-.095 0-.601-.507-1.125-1.125m-2-2.5-.953-1.125 1.125.952c1.057.895 1.353 1.298.953 1.298-.095 0-.601-.507-1.125-1.125m-2-2.5-.953-1.125 1.125.952c1.057.895 1.353 1.298.953 1.298-.095 0-.601-.507-1.125-1.125m-2.5-3-.953-1.125 1.125.952c1.057.895 1.353 1.298.953 1.298-.095 0-.601-.507-1.125-1.125m-2-2.5-.953-1.125 1.125.952c1.057.895 1.353 1.298.953 1.298-.095 0-.601-.507-1.125-1.125m-2-2.5-.953-1.125 1.125.952c1.057.895 1.353 1.298.953 1.298-.095 0-.601-.507-1.125-1.125m-2.5-3-.953-1.125 1.125.952c1.057.895 1.353 1.298.953 1.298-.095 0-.601-.507-1.125-1.125m-2-2.5-.953-1.125 1.125.952c1.057.895 1.353 1.298.953 1.298-.095 0-.601-.507-1.125-1.125m-2-2.5-.953-1.125 1.125.952c1.057.895 1.353 1.298.953 1.298-.095 0-.601-.507-1.125-1.125m160.3.968c0-.086.73-.817 1.625-1.625l1.625-1.468-1.469 1.625c-1.369 1.514-1.781 1.854-1.781 1.468m-162.3-3.468-.953-1.125 1.125.952c1.057.895 1.353 1.298.953 1.298-.095 0-.601-.507-1.125-1.125m173.9-.975c-.33-.33-.6-1.694-.6-3.03 0-1.492-.193-2.31-.5-2.12-.275.17-.5.228-.5.13 0-.1 9.225-9.163 20.5-20.143l20.5-19.962v-9.305l1.532 1.133c3.17 2.344 4.367 5.987 3.418 10.41-.556 2.594-.845 2.922-13.385 15.2-25.362 24.836-28.982 28.287-29.669 28.287-.383 0-.967-.27-1.297-.6zm-176.4-2.025-.953-1.125 1.125.952c1.057.895 1.353 1.298.953 1.298-.095 0-.601-.507-1.125-1.125m-2-2.5-.953-1.125 1.125.952c1.057.895 1.353 1.298.953 1.298-.095 0-.601-.507-1.125-1.125m-2-2.5-.953-1.125 1.125.952c1.057.895 1.353 1.298.953 1.298-.095 0-.601-.507-1.125-1.125m-2.5-3-.953-1.125 1.125.952c1.057.895 1.353 1.298.953 1.298-.095 0-.601-.507-1.125-1.125m213.55-1.875c1.074-1.1 2.065-2 2.203-2s-.63.9-1.703 2-2.066 2-2.203 2 .629-.9 1.703-2m-215.55-.625-.953-1.125 1.125.952c1.057.895 1.353 1.298.953 1.298-.095 0-.601-.507-1.125-1.125m-2-2.5-.953-1.125 1.125.952c1.057.895 1.353 1.298.953 1.298-.095 0-.601-.507-1.125-1.125m-2.5-3-.953-1.125 1.125.952c1.057.895 1.353 1.298.953 1.298-.095 0-.601-.507-1.125-1.125m-2-2.5-.953-1.125 1.125.952c1.057.895 1.353 1.298.953 1.298-.095 0-.601-.507-1.125-1.125m-2-2.5-.953-1.125 1.125.952c1.057.895 1.353 1.298.953 1.298-.095 0-.601-.507-1.125-1.125m-2.5-3-.953-1.125 1.125.952c1.057.895 1.353 1.298.953 1.298-.095 0-.601-.507-1.125-1.125m-2-2.5-.953-1.125 1.125.952c1.057.895 1.353 1.298.953 1.298-.095 0-.601-.507-1.125-1.125m-2-2.5-.953-1.125 1.125.952c1.057.895 1.353 1.298.953 1.298-.095 0-.601-.507-1.125-1.125m-2.5-3-.953-1.125 1.125.952c1.057.895 1.353 1.298.953 1.298-.095 0-.601-.507-1.125-1.125m-2-2.5-.953-1.125 1.125.952c1.057.895 1.353 1.298.953 1.298-.095 0-.601-.507-1.125-1.125m260.05-.875c1.074-1.1 2.065-2 2.203-2s-.63.9-1.703 2-2.066 2-2.203 2 .629-.9 1.703-2m-345.81-5.875c-.622-.793-.605-.811.188-.19.482.378.875.772.875.876 0 .411-.41.147-1.063-.686m206.5-12c-.622-.793-.605-.811.188-.19.482.378.875.772.875.876 0 .411-.41.147-1.063-.686m118.5-5c-.622-.793-.605-.811.188-.19.482.378.875.772.875.876 0 .411-.41.147-1.063-.686m-126.21-2.25-1.977-2.125 2.125 1.976c1.976 1.838 2.355 2.274 1.977 2.274-.082 0-1.038-.957-2.125-2.125m172.02-.375c1.074-1.1 2.065-2 2.203-2s-.63.9-1.703 2-2.066 2-2.203 2 .629-.9 1.703-2m-49.814-.875c-.622-.793-.605-.811.188-.19.482.378.875.772.875.876 0 .411-.41.147-1.063-.686m-4-3.5c-.622-.793-.605-.811.188-.19.482.378.875.772.875.876 0 .411-.41.147-1.063-.686m-127.44-3.875c-1.215-1.238-2.096-2.25-1.959-2.25s1.244 1.012 2.459 2.25 2.095 2.25 1.958 2.25-1.244-1.013-2.458-2.25m123.44.375c-.622-.793-.605-.811.188-.19.482.378.875.772.875.876 0 .411-.41.147-1.063-.686m-4.234-3.75-.952-1.125 1.125.952c1.057.895 1.352 1.298.952 1.298-.095 0-.601-.507-1.125-1.125m124.28-3.25-2.733-2.875 2.875 2.733c1.581 1.503 2.875 2.796 2.875 2.875 0 .37-.478-.062-3.017-2.733m-128.55-.5c-.622-.793-.604-.811.189-.19.481.378.875.772.875.876 0 .411-.41.147-1.064-.686m-124.21-1.75-1.976-2.125 2.125 1.976c1.976 1.838 2.354 2.274 1.976 2.274-.082 0-1.038-.957-2.125-2.125m120.21-1.75c-.622-.793-.604-.811.189-.19.481.378.875.772.875.876 0 .411-.41.147-1.064-.686m-4-3.5c-.622-.793-.604-.811.189-.19.481.378.875.772.875.876 0 .411-.41.147-1.064-.686m-125.46-3.5-1.723-1.875 1.875 1.723c1.745 1.604 2.105 2.027 1.723 2.027-.084 0-.927-.844-1.875-1.875m225.28-.125c1.074-1.1 2.065-2 2.203-2s-.629.9-1.703 2-2.065 2-2.203 2 .629-.9 1.703-2m24.25-.75c-1.214-1.238-2.096-2.25-1.958-2.25s1.244 1.012 2.458 2.25 2.096 2.25 1.958 2.25-1.243-1.013-2.458-2.25m-128.06.875c-.622-.793-.604-.811.189-.19.481.378.875.772.875.876 0 .411-.41.147-1.064-.686m118.53-10-1.212-1.375 1.375 1.212c.756.667 1.375 1.285 1.375 1.375 0 .392-.405.073-1.538-1.212m117.74-45.75-.952-1.125 1.125.952c1.057.895 1.352 1.298.952 1.298-.095 0-.601-.507-1.125-1.125m-11.5-12c-.952-1.124-.952-1.125.088-.25.572.483 1.227.708 1.455.5s.253-.094.055.25c-.47.817-.487.812-1.598-.5m51.204-62.217c.36-.145.792-.127.958.04.166.165-.129.284-.656.262-.582-.024-.7-.143-.302-.302m-17.5-2c.36-.145.792-.127.958.04.166.165-.129.284-.656.262-.582-.024-.7-.143-.302-.302m-17.5-2c.36-.145.792-.127.958.04.166.165-.129.284-.656.262-.582-.024-.7-.143-.302-.302m116.97-3.49c.344-.139.906-.139 1.25 0s.063.252-.625.252-.969-.113-.625-.252m-5.969-.51c.361-.145.792-.127.959.04.166.165-.13.283-.657.262-.582-.024-.7-.143-.302-.302m8.53-.534c-.622-.793-.604-.81.189-.189.833.654 1.098 1.064.686 1.064-.104 0-.497-.393-.875-.875m-14.53.034c.361-.145.792-.127.959.04.166.165-.13.283-.657.262-.582-.024-.7-.143-.302-.302m-6-.5c.361-.145.792-.127.959.04.166.165-.13.283-.657.262-.582-.024-.7-.143-.302-.302m-6.5-.5c.361-.145.792-.127.959.04.166.165-.13.283-.657.262-.582-.024-.7-.143-.302-.302m-6-.5c.361-.145.792-.127.959.04.166.165-.13.283-.657.262-.582-.024-.7-.143-.302-.302m-6-.5c.361-.145.792-.127.959.04.166.165-.13.283-.657.262-.582-.024-.7-.143-.302-.302m-6-.5c.361-.145.792-.127.959.04.166.165-.13.283-.657.262-.582-.024-.7-.143-.302-.302m-6.5-.5c.361-.145.792-.127.959.04.166.165-.13.283-.657.262-.582-.024-.7-.143-.302-.302m-6-.5c.361-.145.792-.127.959.04.166.165-.13.283-.657.262-.582-.024-.7-.143-.302-.302m-141.04-.72c.34-.343.743-.496.897-.342s-.124.433-.617.621c-.713.271-.77.214-.28-.28m135.04.22c.361-.145.792-.127.959.04.166.165-.13.283-.657.262-.582-.024-.7-.143-.302-.302m-6.5-.5c.361-.145.792-.127.959.04.166.165-.13.283-.657.262-.582-.024-.7-.143-.302-.302m-6-.5c.361-.145.792-.127.959.04.166.165-.13.283-.657.262-.582-.024-.7-.143-.302-.302m-6-.5c.361-.145.792-.127.959.04.166.165-.13.283-.657.262-.582-.024-.7-.143-.302-.302m-6-.5c.361-.145.792-.127.959.04.166.165-.13.283-.657.262-.582-.024-.7-.143-.302-.302m82.03-.534c-.622-.793-.604-.81.189-.189.833.654 1.098 1.064.686 1.064-.104 0-.497-.394-.875-.875m-88.53.034c.361-.145.792-.127.959.04.166.165-.13.283-.657.262-.582-.024-.7-.143-.302-.302m-6-.5c.361-.145.792-.127.959.04.166.165-.13.283-.657.262-.582-.024-.7-.143-.302-.302m-6-.5c.361-.145.792-.127.959.04.166.165-.13.283-.657.262-.582-.024-.7-.143-.302-.302m-6.5-.5c.361-.145.792-.127.959.04.166.165-.13.283-.657.262-.582-.024-.7-.143-.302-.302m-6-.5c.361-.145.792-.127.959.04.166.165-.13.283-.657.262-.582-.024-.7-.143-.302-.302m-6-.5c.361-.145.792-.127.959.04.166.165-.13.283-.657.262-.582-.024-.7-.143-.302-.302m-6-.5c.361-.145.792-.127.959.04.166.165-.13.283-.657.262-.582-.024-.7-.143-.302-.302m-6.5-.5c.361-.145.792-.127.959.04.166.165-.13.283-.657.262-.582-.024-.7-.143-.302-.302m-6-.5c.361-.145.792-.127.959.04.166.165-.13.283-.657.262-.582-.024-.7-.143-.302-.302m-6-.5c.361-.145.792-.127.959.04.166.165-.13.283-.657.262-.582-.024-.7-.143-.302-.302m-6-.5c.361-.145.792-.127.959.04.166.165-.13.283-.657.262-.582-.024-.7-.143-.302-.302m-6.5-.5c.361-.145.792-.127.959.04.166.165-.13.283-.657.262-.582-.024-.7-.143-.302-.302m-6-.5c.361-.145.792-.127.959.04.166.165-.13.283-.657.262-.582-.024-.7-.143-.302-.302m155.8-.784-.952-1.125 1.125.953c1.057.895 1.352 1.297.952 1.297-.095 0-.6-.506-1.125-1.125m-161.8.284c.361-.145.792-.127.959.04.166.165-.13.283-.657.262-.582-.024-.7-.143-.302-.302m-6.5-.5c.361-.145.792-.127.959.04.166.165-.13.283-.657.262-.582-.024-.7-.143-.302-.302m-6-.5c.361-.145.792-.127.959.04.166.165-.13.283-.657.262-.582-.024-.7-.143-.302-.302m-6-.5c.361-.145.792-.127.959.04.166.165-.13.283-.657.262-.582-.024-.7-.143-.302-.302m-6-.5c.361-.145.792-.127.959.04.166.165-.13.283-.657.262-.582-.024-.7-.143-.302-.302m-6.5-.5c.361-.145.792-.127.959.04.166.165-.13.283-.657.262-.582-.024-.7-.143-.302-.302m186.8-4.284-.952-1.125 1.125.953c1.057.895 1.352 1.297.952 1.297-.095 0-.6-.506-1.125-1.125m-6-6.5-.952-1.125 1.125.953c1.057.895 1.352 1.297.952 1.297-.095 0-.6-.506-1.125-1.125m-6.266-6.75c-.622-.793-.604-.81.189-.189.833.654 1.097 1.064.686 1.064-.104 0-.498-.394-.875-.875"/><path fill="#53fdfc" d="M824.182 220.65c-39.325-15.774-71.388-28.68-71.25-28.68s28.109 3.2 62.159 7.11L877 206.188l2.666 5.992c1.466 3.296 5.817 13.024 9.669 21.617s6.856 15.604 6.676 15.579c-.18-.026-32.503-12.952-71.828-28.727zm25.75-31.223c-56.238-4.615-102.92-8.472-103.75-8.572-.825-.1 37.2-4.98 84.5-10.845s86.349-10.76 86.777-10.877c.516-.142 6.391 5.85 17.5 17.85 9.198 9.935 17.246 18.711 17.885 19.502 1.042 1.29 1.067 1.433.25 1.386-.501-.03-46.924-3.829-103.16-8.444zm-113.99-18.663c.574-.611 204.33-76.519 205.49-76.554 1.353-.04 53.365 32.357 52.325 32.593-.316.072-57.838 9.914-127.83 21.871s-127.92 21.881-128.75 22.053-1.383.188-1.241.036z"/><path fill="#5fa4d4" d="M587.062 747.07c.486-.127 1.162-.118 1.5.018.339.137-.06.241-.885.231s-1.102-.122-.615-.249m12.272.005c.36-.144.792-.127.958.04.166.166-.129.284-.656.262-.582-.024-.7-.142-.302-.302m-180-.533c8.063-.077 21.113-.077 29 0s1.29.14-14.661.14-22.403-.063-14.339-.14m270.03-1.5c-.622-.794-.604-.811.189-.19.481.378.875.772.875.876 0 .411-.41.146-1.064-.686m61.564.686c0-.104.394-.498.875-.875.793-.622.81-.605.189.189-.653.832-1.064 1.097-1.064.686m14.936-.686c-.622-.794-.604-.811.189-.19.481.378.875.772.875.876 0 .411-.41.146-1.064-.686m-298.84-3.876c.01-.825.122-1.102.249-.615.127.486.118 1.162-.018 1.5-.137.339-.241-.06-.231-.885m253.63-18.5c0-11 .066-15.429.147-9.841.08 5.587.08 14.587 0 20-.081 5.413-.147.841-.147-10.158zm-435.49-25c0-24.2.061-34.173.136-22.163.074 12.011.074 31.811 0 44-.075 12.19-.136 2.363-.136-21.837m307.14 38.888c.894-.11 2.356-.11 3.25 0 .894.111.163.202-1.625.202s-2.519-.09-1.625-.202m-6.469-.48c.361-.144.792-.126.959.04s-.13.284-.657.263c-.582-.024-.7-.143-.302-.302m-175.18-.783c-.13-.344-.179-22.562-.107-49.375l.132-48.75.122 49.12.123 49.12 51.25.269-25.641.12c-20.142.095-25.692-.014-25.88-.505zm182.65-10.237c.899-.111 2.249-.109 3 .005.752.114.016.205-1.634.203-1.65-.003-2.265-.097-1.366-.208zm-36.448-2.512c-.622-.793-.604-.811.189-.19.833.654 1.098 1.065.686 1.065-.104 0-.497-.394-.875-.875m-89.839-3.375c.01-.825.122-1.102.25-.616.126.487.118 1.162-.02 1.5-.136.339-.24-.06-.23-.884m123.81-5.092c.361-.144.792-.127.959.04.166.166-.13.284-.657.262-.582-.024-.7-.142-.302-.302m6 0c.361-.144.792-.127.959.04.166.166-.13.284-.657.262-.582-.024-.7-.142-.302-.302m19.03-3.533c-.622-.793-.604-.811.189-.19.833.654 1.098 1.065.686 1.065-.104 0-.497-.394-.875-.875m-160.94-8.814c0-.104.394-.498.875-.875.793-.622.81-.604.189.189-.653.832-1.064 1.097-1.064.686m-32.5-7.5c0-.104.394-.498.875-.875.793-.622.81-.604.189.189-.653.832-1.064 1.097-1.064.686m133.04-4.103c.024-.583.143-.701.302-.302.145.36.127.792-.04.958-.165.166-.284-.129-.262-.656m-23.403-1.708c0-1.238.098-1.744.217-1.125.12.618.12 1.63 0 2.25-.12.618-.217.112-.217-1.125m10.528-3.75c.002-1.925.093-2.652.201-1.614.108 1.037.106 2.612-.004 3.5s-.199.039-.197-1.886m-10.625-4.042c.024-.583.143-.701.302-.302.145.36.127.792-.04.958-.165.166-.284-.129-.262-.656m179.4-1.083c-.622-.793-.604-.811.189-.19.833.654 1.098 1.065.686 1.065-.104 0-.497-.394-.875-.875m-274.03-9.499c2.834-.089 7.334-.089 10 .001s.349.163-5.151.163-7.682-.074-4.849-.164m283.33-.253c-.132-.344-.178-9.288-.103-19.875l.137-19.249.238 39.23 21.75.29-10.891.115c-8.35.088-10.947-.031-11.131-.512zm-463.35-10.747c3.094-.087 8.156-.087 11.25 0s.563.16-5.625.16-8.719-.072-5.625-.16m55.278 0c3.247-.087 8.422-.087 11.5 0 3.078.088.422.16-5.903.16-6.325-.001-8.844-.073-5.597-.16m127.5 0c4.349-.084 11.323-.084 15.5 0 4.177.083.619.151-7.906.151s-11.942-.068-7.594-.152m157.25-1.468c.361-.145.792-.127.959.04.166.166-.13.284-.657.262-.582-.024-.7-.142-.302-.302m-130.31-3.909c.01-.825.122-1.102.25-.615.126.486.118 1.162-.02 1.5-.136.339-.24-.06-.23-.885m123.28-7.103c.622-.12 1.522-.115 2 .01s-.03.223-1.13.217-1.492-.108-.87-.227m4.754.007c.486-.127 1.161-.119 1.5.018s-.06.241-.885.23-1.102-.121-.615-.248m-43.635-7.342c0-.104.394-.498.875-.875.793-.622.81-.605.189.188-.654.833-1.064 1.098-1.064.687m49.906-3.653c.36-.145.792-.127.958.04.166.165-.129.284-.656.262-.582-.024-.701-.143-.302-.302m-13.772-.505c.486-.127 1.161-.119 1.5.018s-.06.241-.885.23-1.102-.121-.615-.248m10.272.005c.36-.145.792-.127.958.04.166.165-.129.284-.656.262-.582-.024-.701-.143-.302-.302M467 631.916c0-.687.113-.968.252-.625s.139.907 0 1.25-.252.063-.252-.625m-1.643-3.875c-.622-.793-.604-.81.189-.188.833.653 1.098 1.063.686 1.063-.104 0-.497-.393-.875-.875m-194.31-1.5c10.656-.075 28.094-.075 38.75 0s1.938.138-19.375.138-30.03-.062-19.375-.137m313.78-1.966c.361-.144.792-.127.959.04.166.166-.13.284-.657.262-.582-.024-.7-.142-.302-.302m7.969-.49c.344-.138.906-.138 1.25 0s.062.253-.625.253-.969-.114-.625-.253m13.561-19.544c-.622-.793-.604-.81.189-.188.833.653 1.097 1.063.686 1.063-.104 0-.498-.393-.875-.875m-5.5-5c-.622-.793-.604-.81.189-.188.833.653 1.097 1.063.686 1.063-.104 0-.498-.393-.875-.875m-5.5-5c-.622-.793-.604-.81.189-.188.833.653 1.097 1.063.686 1.063-.104 0-.498-.393-.875-.875m-5.5-5c-.622-.793-.604-.81.189-.188.833.653 1.097 1.063.686 1.063-.104 0-.498-.393-.875-.875m-6-5.5c-.622-.793-.604-.81.189-.188.481.377.875.77.875.875 0 .411-.41.146-1.064-.687m-5.5-5c-.622-.793-.604-.81.189-.188.481.377.875.77.875.875 0 .411-.41.146-1.064-.687m-5.5-5c-.622-.793-.604-.81.189-.188.481.377.875.77.875.875 0 .411-.41.146-1.064-.687m-5.734-5.25-.952-1.125 1.125.953c.619.524 1.125 1.03 1.125 1.125 0 .4-.403.105-1.298-.953m-5.766-5.25c-.622-.793-.604-.81.189-.188.481.377.875.77.875.875 0 .411-.41.146-1.064-.687m16.806-63.375c0-33.275.06-46.96.133-30.414.073 16.547.073 43.772 0 60.5s-.133 3.19-.133-30.086m222.69-16.377c.208-.207 22.64-.32 49.85-.25l49.473.128-49.85.25c-27.418.137-49.68.08-49.473-.128m-726.3-.247c13.681-.074 36.069-.074 49.75 0s2.488.134-24.875.134-38.556-.06-24.875-.134m584.62-41.125c1.354-1.375 2.575-2.5 2.712-2.5s-.858 1.125-2.212 2.5-2.575 2.5-2.712 2.5.858-1.125 2.212-2.5m-57.75-10.75c1.772-1.788 3.334-3.25 3.471-3.25s-1.2 1.462-2.971 3.25-3.334 3.25-3.471 3.25 1.2-1.463 2.971-3.25m71.75-3.75c1.354-1.375 2.575-2.5 2.712-2.5s-.858 1.125-2.212 2.5-2.575 2.5-2.712 2.5.858-1.125 2.212-2.5m-95.131-52.125c-.065-29.081.05-52.875.256-52.875.34 0 .337 36.767-.007 86.75-.072 10.45-.184-4.794-.25-33.875zm5.36 47.5c2.072-2.208 2.521-2.605 2.521-2.23 0 .081-1.069 1.15-2.375 2.376l-2.375 2.229zm103.27-9.375c1.355-1.375 2.575-2.5 2.713-2.5s-.858 1.125-2.213 2.5-2.575 2.5-2.712 2.5.858-1.125 2.212-2.5m-60.75-7.25c1.772-1.788 3.334-3.25 3.471-3.25s-1.2 1.462-2.97 3.25-3.334 3.25-3.472 3.25 1.2-1.463 2.971-3.25m-27.5 2.112c0-.075 1.744-1.819 3.875-3.875l3.875-3.737-3.737 3.875c-3.472 3.599-4.013 4.103-4.013 3.737m102.25-9.362c1.355-1.375 2.575-2.5 2.713-2.5s-.858 1.125-2.213 2.5-2.575 2.5-2.712 2.5.858-1.125 2.212-2.5m13.5-14c1.355-1.375 2.575-2.5 2.713-2.5s-.858 1.125-2.213 2.5-2.575 2.5-2.712 2.5.858-1.125 2.212-2.5m-90.5-1.5c1.91-1.925 3.586-3.5 3.723-3.5s-1.312 1.575-3.223 3.5-3.585 3.5-3.723 3.5 1.313-1.575 3.223-3.5m27.5-3c1.91-1.925 3.586-3.5 3.723-3.5s-1.312 1.575-3.223 3.5-3.585 3.5-3.723 3.5 1.313-1.575 3.223-3.5m77-10c1.355-1.375 2.575-2.5 2.713-2.5s-.858 1.125-2.213 2.5-2.575 2.5-2.712 2.5.858-1.125 2.212-2.5m-226.29-6.375-1.212-1.375 1.375 1.212c.756.667 1.375 1.286 1.375 1.375 0 .392-.405.073-1.538-1.212m174.29-9.125c1.91-1.925 3.586-3.5 3.723-3.5s-1.312 1.575-3.223 3.5-3.585 3.5-3.723 3.5 1.313-1.575 3.223-3.5m63.75 3.344c0-.087.731-.818 1.625-1.625l1.625-1.47-1.468 1.626c-1.37 1.515-1.782 1.855-1.782 1.469m-247.04-2.72-1.212-1.374 1.375 1.212c.756.667 1.375 1.286 1.375 1.375 0 .392-.405.073-1.538-1.212m244.76-5.25-1.976-2.124 2.125 1.976c1.976 1.839 2.355 2.274 1.976 2.274-.081 0-1.038-.956-2.125-2.125m-254.26-3.75-1.212-1.374 1.375 1.212c1.285 1.133 1.604 1.538 1.212 1.538-.09 0-.708-.619-1.375-1.375m122.47 0c-.622-.792-.604-.81.189-.188.481.378.875.771.875.875 0 .412-.41.147-1.064-.686m383.06-.654c0-.29.225-.39.5-.22s.5.408.5.53-.225.22-.5.22-.5-.238-.5-.53m-387.06-2.845c-.622-.793-.604-.81.189-.189.481.378.875.771.875.875 0 .412-.41.147-1.064-.686m-4-3.5c-.622-.793-.604-.81.189-.189.481.378.875.771.875.875 0 .412-.41.147-1.064-.686m126.79-1.75-1.976-2.125 2.125 1.976c1.976 1.839 2.355 2.274 1.976 2.274-.081 0-1.038-.956-2.125-2.125m-250.51 0-1.468-1.625 1.625 1.469c1.514 1.368 1.854 1.78 1.468 1.78-.086 0-.817-.73-1.625-1.624m504.72-1.25c-.622-.793-.604-.81.189-.189.481.378.875.771.875.875 0 .412-.41.147-1.064-.686m-385-.5c-.622-.793-.604-.81.189-.189.481.378.875.771.875.875 0 .412-.41.147-1.064-.686m-4-3.5c-.622-.793-.604-.81.189-.189.481.378.875.771.875.875 0 .412-.41.147-1.064-.686m111.56-3.375c1.772-1.788 3.334-3.25 3.471-3.25s-1.2 1.462-2.97 3.25-3.334 3.25-3.472 3.25 1.2-1.463 2.971-3.25m-236.04.375-1.212-1.375 1.375 1.212c.756.667 1.375 1.286 1.375 1.375 0 .392-.405.073-1.538-1.212m248-2.5-1.212-1.375 1.375 1.212c.756.667 1.375 1.286 1.375 1.375 0 .392-.405.073-1.538-1.212m249.97-4.5c-.622-.793-.604-.81.189-.189.481.378.875.771.875.875 0 .412-.41.147-1.064-.686m-15.5-14c-.622-.793-.604-.81.189-.189.481.378.875.771.875.875 0 .412-.41.147-1.064-.686m-110.72-20.75-1.468-1.625 1.625 1.469c1.514 1.368 1.854 1.78 1.468 1.78-.086 0-.817-.73-1.625-1.624m-11.245-11.75-1.723-1.875 1.875 1.723c1.031.948 1.875 1.791 1.875 1.875 0 .382-.423.022-2.027-1.723m-10.22-10.62c-.175-.283.026-.366.47-.196.867.333 1.025.691.306.691-.259 0-.608-.222-.776-.494m-189.85-58.846c.361-.145.792-.127.959.04.166.166-.13.284-.657.262-.582-.024-.7-.142-.302-.302m5-.5c.361-.145.792-.127.959.04.166.166-.13.284-.657.262-.582-.024-.7-.142-.302-.302m5-.5c.361-.145.792-.127.959.04.166.166-.13.284-.657.262-.582-.024-.7-.142-.302-.302m5-.5c.361-.145.792-.127.959.04.166.166-.13.284-.657.262-.582-.024-.7-.142-.302-.302m5-.5c.361-.145.792-.127.959.04.166.166-.13.284-.657.262-.582-.024-.7-.142-.302-.302m5-.5c.361-.145.792-.127.959.04.166.166-.13.284-.657.262-.582-.024-.7-.142-.302-.302"/><path fill="#2e87c6" d="M589.562 747.07c.486-.127 1.162-.118 1.5.018.339.137-.06.241-.885.231s-1.102-.122-.615-.249m8.272.005c.36-.144.792-.127.958.04.166.166-.13.284-.656.262-.583-.024-.701-.142-.302-.302m-14.5-.5c.36-.144.792-.127.958.04.166.166-.13.284-.656.262-.583-.024-.701-.142-.302-.302m-181.97-1.534c-.622-.793-.605-.81.188-.188.482.377.875.77.875.875 0 .411-.41.146-1.063-.686m310 0c-.622-.793-.605-.81.188-.188.482.377.875.77.875.875 0 .411-.41.146-1.063-.686m63.805-58.125c0-30.662.06-43.206.133-27.875s.074 40.42 0 55.75-.133 2.788-.133-27.875m-76.5-.25c0-30.525.06-42.939.133-27.587s.074 40.327 0 55.5c-.073 15.173-.133 2.612-.133-27.913m43.986 35.75c0-10.862.066-15.306.146-9.875.081 5.432.081 14.32 0 19.75s-.146.988-.146-9.875m-468.49-22c0-22.688.061-31.969.136-20.625s.075 29.906 0 41.25-.136 2.063-.136-20.625m315.67 36.158c.36-.144.792-.126.958.04s-.13.284-.656.263c-.583-.024-.701-.143-.302-.302m-31.204-12.283-.953-1.125 1.125.953c1.057.895 1.353 1.297.953 1.297-.095 0-.601-.506-1.125-1.125m-123.08.251c4.88-.082 12.869-.082 17.75 0s.887.15-8.875.15-13.756-.068-8.875-.15m119.81-3.5c-.622-.794-.605-.811.188-.19.833.654 1.098 1.064.687 1.064-.104 0-.498-.393-.875-.875m-133.72-12.876c0-6.6.071-9.23.158-5.846.086 3.385.086 8.785 0 12-.088 3.216-.159.446-.158-6.154m194.53 10.25c.497-.55 1.017-1 1.155-1s-.158.45-.655 1-1.018 1-1.155 1 .157-.45.655-1m-150.81-2.875c-.622-.793-.605-.81.188-.188.482.377.875.77.875.875 0 .411-.41.146-1.063-.687m100-2.5c-.622-.793-.605-.81.188-.188.833.653 1.098 1.063.687 1.063-.104 0-.498-.393-.875-.875m8.282-6.75-1.469-1.625 1.625 1.47c.894.807 1.625 1.538 1.625 1.624 0 .386-.412.046-1.781-1.469m177.72-12.75c-.622-.793-.604-.81.189-.188.481.377.875.77.875.875 0 .411-.41.146-1.064-.687m-318.31-1.498c3.506-.086 9.244-.086 12.75 0s.637.156-6.375.156-9.881-.07-6.375-.156m289.97 0a585 585 0 0 1 17 0c4.761.081 1.007.149-8.343.149s-13.246-.067-8.657-.15m-180.51-3.127c0-.687.113-.968.252-.625s.139.907 0 1.25-.252.063-.252-.625m13.019-.75c.01-.825.122-1.102.249-.615.127.486.118 1.161-.018 1.5-.137.338-.241-.06-.231-.885m10.567-2.5c.002-1.925.093-2.65.2-1.613.11 1.037.107 2.612-.003 3.5s-.2.038-.197-1.887m-34.067-.5c.01-.825.122-1.102.249-.615.127.486.118 1.161-.018 1.5-.137.338-.241-.06-.231-.885m23.519-2.25c0-.962.103-1.356.229-.875.125.482.125 1.27 0 1.75-.126.482-.229.088-.229-.875m-23.537-.5c0-.687.113-.968.252-.625s.139.907 0 1.25-.252.063-.252-.625m-110.36-17.75c0-6.6.071-9.23.158-5.846s.086 8.785 0 12c-.087 3.216-.158.446-.158-6.154m33.221 6.875c-.622-.793-.604-.81.189-.188.833.653 1.097 1.063.686 1.063-.104 0-.498-.393-.875-.875m287.79-21.125c0-10.862.066-15.306.147-9.875.08 5.432.08 14.32 0 19.75s-.147.988-.147-9.875m-170.23 16.344c0-.086.731-.817 1.625-1.625l1.625-1.468-1.469 1.625c-1.369 1.515-1.781 1.855-1.781 1.468m-16.5-16.594c.646-.687 1.287-1.25 1.424-1.25s-.278.563-.924 1.25-1.287 1.25-1.424 1.25.278-.562.924-1.25m-259 .562c0-.104.394-.498.875-.875.793-.622.81-.605.189.188-.653.833-1.064 1.098-1.064.687m296.41-4.153c.36-.145.792-.127.958.04.166.166-.129.284-.656.262-.582-.024-.7-.142-.302-.302m-44.156-5.159c1.074-1.1 2.065-2 2.203-2s-.629.9-1.703 2-2.065 2-2.203 2 .629-.9 1.703-2m-505.88-34.873c2.544-.09 6.706-.09 9.25 0 2.544.091.463.165-4.625.165s-7.169-.074-4.625-.165m201.5 0c3.369-.087 8.881-.087 12.25 0s.613.157-6.125.157-9.494-.071-6.125-.158m84.999.003 8.624-.153.257-176.23-.004 176.5-17.5.034zm177-118.28.127-118.55-1.877-2.023-1.877-2.023 4.25 3.953v118.37c0 65.103-.169 118.47-.375 118.6-.206.128-.318-53.118-.248-118.32zm112 118.28 10.123-.151.13-51.115.132-51.115-.008 102.5-20.5.032zm119.38.012c16.453-.35 30.751-.359 30.75-.018 0 .207-8.382.326-18.625.266s-15.7-.171-12.125-.248m56.125-.015c2.544-.09 6.706-.09 9.25 0s.463.165-4.625.165-7.169-.074-4.625-.165m201.5-.001a289 289 0 0 1 12.25 0c3.369.086.613.157-6.125.157s-9.494-.07-6.125-.157m-390.94-3.501c-.622-.793-.604-.81.189-.189.833.653 1.097 1.064.686 1.064-.104 0-.498-.394-.875-.875m-5.5-5c-.622-.793-.604-.81.189-.189.833.653 1.097 1.064.686 1.064-.104 0-.498-.394-.875-.875m-5.734-5.25-.952-1.125 1.125.952c1.057.895 1.352 1.298.952 1.298-.095 0-.6-.506-1.125-1.125m-5.5-5-.952-1.125 1.125.952c1.057.895 1.352 1.298.952 1.298-.095 0-.6-.506-1.125-1.125m-5.766-5.25c-.622-.793-.604-.81.189-.189.481.377.875.771.875.875 0 .412-.41.147-1.064-.686m-5.5-5c-.622-.793-.604-.81.189-.189.833.653 1.097 1.064.686 1.064-.104 0-.498-.394-.875-.875m-5.734-5.25-.952-1.125 1.125.952c1.057.895 1.352 1.298.952 1.298-.095 0-.6-.506-1.125-1.125m-5.766-5.25c-.622-.793-.604-.81.189-.189.833.653 1.097 1.064.686 1.064-.104 0-.498-.394-.875-.875m-5.5-5c-.622-.793-.604-.81.189-.189.481.377.875.771.875.875 0 .412-.41.147-1.064-.686m-453.56-33.5c11.344-.075 29.906-.075 41.25 0s2.063.136-20.625.136-31.969-.061-20.625-.136m751 0c11.344-.075 29.906-.075 41.25 0s2.063.136-20.625.136-31.969-.061-20.625-.136m-799.88-63.5c0-.34 19.221-.335 43 .013 5.088.074-2.506.186-16.875.249s-26.125-.056-26.125-.262m751 0c0-.34 19.221-.335 43 .013 5.088.074-2.506.186-16.875.249s-26.125-.056-26.125-.262m-154.25-17.625c1.354-1.375 2.575-2.5 2.712-2.5s-.858 1.125-2.212 2.5-2.575 2.5-2.712 2.5.858-1.125 2.212-2.5m13.75-14.25c1.494-1.513 2.828-2.75 2.966-2.75s-.972 1.237-2.466 2.75-2.828 2.75-2.966 2.75.972-1.238 2.466-2.75m-63-4.888c0-.075 1.744-1.82 3.875-3.875l3.875-3.737-3.737 3.875c-3.472 3.599-4.013 4.103-4.013 3.737m76.75-9.362c1.354-1.375 2.575-2.5 2.712-2.5s-.858 1.125-2.212 2.5-2.575 2.5-2.712 2.5.858-1.125 2.212-2.5m-92.75-1.25c1.772-1.788 3.334-3.25 3.471-3.25s-1.2 1.462-2.971 3.25-3.334 3.25-3.471 3.25 1.2-1.463 2.971-3.25m106.5-13c1.494-1.513 2.828-2.75 2.966-2.75s-.972 1.237-2.466 2.75-2.828 2.75-2.966 2.75.972-1.238 2.466-2.75m-62.25-5.25c2.187-2.2 4.089-4 4.227-4s-1.54 1.8-3.727 4-4.089 4-4.226 4 1.539-1.8 3.726-4m-23.25-2.25c2.325-2.338 4.34-4.25 4.478-4.25s-1.653 1.912-3.978 4.25-4.34 4.25-4.478 4.25 1.653-1.913 3.978-4.25m99.25-6.75c1.354-1.375 2.575-2.5 2.712-2.5s-.858 1.125-2.212 2.5-2.575 2.5-2.712 2.5.858-1.125 2.212-2.5m-81.75-10.19c0-.103.394-.497.875-.874.793-.622.81-.604.189.189-.653.832-1.064 1.097-1.064.686m95.5-4.06c1.494-1.513 2.828-2.75 2.966-2.75s-.972 1.237-2.466 2.75-2.828 2.75-2.966 2.75.972-1.238 2.466-2.75m-93.811-3.25c0-3.163.081-4.457.18-2.875.1 1.58.1 4.168 0 5.75s-.18.287-.18-2.875m29.561.5c2.187-2.2 4.089-4 4.227-4s-1.54 1.8-3.727 4-4.089 4-4.226 4 1.539-1.8 3.726-4m-370.25-6.5c-.45-.292-.512-.488-.155-.493.328-.004.735.218.905.493.384.62.21.62-.75 0m338.94-.875c-.622-.793-.604-.811.189-.19.481.378.875.772.875.876 0 .411-.41.146-1.064-.686m109.56-4.375c1.494-1.513 2.828-2.75 2.966-2.75s-.972 1.237-2.466 2.75-2.828 2.75-2.966 2.75.972-1.238 2.466-2.75m-113.56.875c-.622-.793-.604-.811.189-.19.481.378.875.772.875.876 0 .411-.41.146-1.064-.686m-127.72-3.75-1.469-1.625 1.625 1.468c1.515 1.37 1.855 1.782 1.469 1.782-.086 0-.817-.732-1.625-1.625m123.72.25c-.622-.793-.604-.811.189-.19.481.378.875.772.875.876 0 .411-.41.146-1.064-.686m-4-3.5c-.622-.793-.604-.811.189-.19.481.378.875.772.875.876 0 .411-.41.146-1.064-.686m125.78-1.25-1.469-1.625 1.625 1.468c1.515 1.37 1.855 1.782 1.469 1.782-.086 0-.817-.732-1.625-1.625m-129.78-2.25c-.622-.793-.604-.811.189-.19.481.378.875.772.875.876 0 .411-.41.146-1.064-.686m-124.96-2-1.723-1.875 1.875 1.723c1.745 1.604 2.105 2.027 1.723 2.027-.084 0-.927-.844-1.875-1.875m197.28-2.125c2.187-2.2 4.089-4 4.227-4s-1.54 1.8-3.727 4-4.089 4-4.226 4 1.539-1.8 3.726-4m-76.314.625c-.622-.793-.604-.811.189-.19.481.378.875.772.875.876 0 .411-.41.146-1.064-.686m-4-3.5c-.622-.793-.604-.811.189-.19.481.378.875.772.875.876 0 .411-.41.146-1.064-.686m125.79-2.25-2.481-2.625 2.625 2.48c1.444 1.366 2.625 2.547 2.625 2.626 0 .373-.463-.042-2.769-2.481m256.2.25c-.622-.793-.604-.811.189-.19.481.378.875.772.875.876 0 .411-.41.146-1.064-.686m-508.22-1.75-1.469-1.625 1.625 1.468c1.515 1.37 1.855 1.782 1.469 1.782-.086 0-.817-.732-1.625-1.625m503.22-2.75c-.622-.793-.604-.811.189-.19.481.378.875.772.875.876 0 .411-.41.146-1.064-.686m-5.234-4.75-.952-1.125 1.125.952c1.057.895 1.352 1.298.952 1.298-.095 0-.6-.507-1.125-1.125m-506.98-1-1.468-1.625 1.625 1.468c1.514 1.37 1.855 1.782 1.468 1.782-.086 0-.817-.732-1.625-1.625m248.51-2-1.976-2.125 2.125 1.976c1.976 1.838 2.355 2.274 1.976 2.274-.081 0-1.038-.957-2.125-2.125m253.21-1.75c-.622-.793-.604-.811.19-.19.48.378.874.772.874.876 0 .411-.41.146-1.064-.686m-263.44-4.375c.933-.963 1.809-1.75 1.947-1.75s-.514.787-1.447 1.75-1.808 1.75-1.946 1.75.513-.788 1.446-1.75m-247.04-.125-1.212-1.375 1.375 1.212c.756.667 1.375 1.285 1.375 1.375 0 .392-.405.073-1.538-1.212m505.47 0c-.622-.793-.604-.811.19-.19.48.378.874.772.874.876 0 .411-.41.146-1.064-.686m-5.233-4.75-.953-1.125 1.125.952c1.057.895 1.353 1.298.953 1.298-.095 0-.602-.507-1.125-1.125m-5.267-4.75c-.622-.793-.604-.811.19-.19.48.378.874.772.874.876 0 .411-.41.146-1.064-.686m-5-4.5c-.622-.793-.604-.811.19-.19.48.378.874.772.874.876 0 .411-.41.146-1.064-.686m-5.233-4.75-.953-1.125 1.125.952c1.057.895 1.353 1.298.953 1.298-.095 0-.602-.507-1.125-1.125m-5.267-4.75c-.622-.793-.604-.811.19-.19.48.378.874.772.874.876 0 .411-.41.146-1.064-.686m-5.156-4.391c-.534-.404-.73-.734-.437-.734s.815.337 1.157.75c.779.938.534.932-.72-.016m-99.806-11.61-1.724-1.874 1.875 1.723c1.032.948 1.875 1.791 1.875 1.875 0 .382-.423.022-2.026-1.723m-11.5-12-1.724-1.874 1.875 1.723c1.746 1.604 2.105 2.027 1.724 2.027-.084 0-.928-.844-1.875-1.875m-194.61-42.186c.339-.342.742-.496.896-.342s-.123.434-.617.622c-.712.271-.77.214-.28-.28"/><path fill="#0060b4" d="M586.932 746.88c-21.559-1.825-38.394-12.879-47.67-31.298-4.856-9.642-6.833-18.381-6.855-30.296-.056-30.589 19.438-54.664 48.525-59.928 2.259-.409 7.329-.677 12.75-.675 8.488.004 9.341.093 15 1.58 8.06 2.117 10.494 3.214 11.516 5.19 1.06 2.048.632 4.435-1.106 6.173-2.013 2.013-3.183 2.063-7.936.344-10.915-3.95-24.633-4.084-35.586-.348-15.294 5.216-27.105 18.189-31.468 34.562-1.173 4.403-1.33 5.926-1.336 12.988-.006 6.383.206 8.928 1.05 12.595 2.766 12.013 8.912 22.042 17.638 28.78 12.442 9.606 30.987 12.817 46.727 8.089 8.274-2.485 7.926-2.424 9.524-1.666.832.395 1.887 1.542 2.416 2.625.811 1.662.858 2.196.342 3.918-.512 1.71-.965 2.162-3.19 3.175-3.67 1.673-11.333 3.566-16.982 4.196-5.281.589-6.353.589-13.36-.005zm-310.07-1.213c-.724-.393-1.511-1.115-1.75-1.605s-.547-19.79-.684-42.89l-.25-42-12.086-.25c-11.787-.244-12.116-.279-13.32-1.41-1.618-1.52-2.044-3.77-1.093-5.773 1.43-3.013 1.638-3.052 17.09-3.22 15.934-.174 17.657.056 19.18 2.554.948 1.555.975 2.862.977 46.775l.002 45.175-1.7 1.7c-1.894 1.894-4.035 2.211-6.366.945zm21.704-.231c-.886-.54-1.786-1.609-2-2.373s-.388-21.58-.388-46.256v-44.865l1.633-1.635 1.634-1.634 14.866-.14c13.428-.125 15.035-.052 16.616.75 2.34 1.189 3.499 4.228 2.517 6.599-1.172 2.83-2.209 3.04-14.992 3.04h-11.525l-.003 40.876c-.002 27.148-.18 41.513-.53 42.776-.355 1.277-1.051 2.22-2.123 2.873-2.024 1.234-3.67 1.23-5.706-.01zm103.07-.703-1.711-1.71.002-56.176c.002-54.756.026-56.215.974-57.769.653-1.071 1.595-1.767 2.873-2.122 1.23-.342 11.832-.529 30.042-.53 30.23-.004 30.517.019 32.294 2.555 1.32 1.885 1.048 4.665-.644 6.559l-1.458 1.632-53.583.284v98.44l54.087.276 1.206 1.403c1.67 1.94 1.67 5.254 0 7.194l-1.206 1.403-61.164.273zm288.17.23-1.633-1.459-.148-55.666c-.101-37.946.02-56.245.378-57.486.654-2.258 2.56-3.566 5.198-3.566 1.619 0 2.277.304 3.414 1.576l1.408 1.576v113.56l-1.461 1.461c-2.04 2.04-4.876 2.04-7.156.003zm22 0-1.633-1.458-.14-23.403c-.1-16.981.021-23.79.444-24.811 1.2-2.895 1.006-2.87 21.213-2.87h18.545l2.938 3.066.155 22.593c.104 15.212-.022 23.196-.387 24.44-1.16 3.956-5.737 5.26-8.557 2.44l-1.461-1.46v-40.578h-22.5l-.012 20.125c-.01 18.313-.088 20.221-.875 21.191-2.108 2.604-5.293 2.902-7.73.725zm55.176.644c-2.642-1.85-2.558.083-2.558-59.094 0-37.888.166-55.42.537-56.483.703-2.017 2.648-3.244 5.14-3.244 1.62 0 2.278.304 3.414 1.576l1.409 1.576v113.56l-1.462 1.461c-1.702 1.703-4.564 1.988-6.48.647zm-180.27-21.215c-11.402-1.91-21.707-9.5-26.769-19.72-2.392-4.83-3.407-8.529-3.98-14.5-1.914-19.962 8.34-36.17 26.462-41.83 3.236-1.01 4.778-1.17 11.25-1.166 5.591.003 8.312.228 10.69.881 4.308 1.185 11.61 4.646 12.674 6.009 1.928 2.468.373 6.787-2.823 7.842-1.592.526-2.097.445-4.663-.749-5.787-2.691-8.213-3.32-13.878-3.595-8.974-.436-15.768 1.967-21.447 7.587-5.588 5.529-8.02 11.768-8 20.521.033 14 6.466 23.236 19.197 27.562 2.095.712 4.18.931 8.75.922 6.524-.014 8.776-.515 14.823-3.302 2.868-1.322 3.685-1.503 5.04-1.114 1.944.557 3.887 3.215 3.887 5.315 0 3.339-6.684 7.291-15.488 9.158-3.53.748-11.764.842-15.725.179zm-163.31-1.415-1.478-1.478v-26.154l2.923-2.924h29.122l1.207 1.207c2.484 2.484 2.155 6.224-.718 8.16-1.612 1.086-2.11 1.133-11.859 1.133h-10.176v10.96l31.583.29 1.459 1.634c1.9 2.127 2.001 4.93.252 6.964l-1.206 1.403-39.631.283zm1.522-42.597c-2.908-1.168-2.977-1.53-2.99-15.764l-.01-13.057 1.294-1.294c.792-.792 2.102-1.413 3.375-1.6 1.145-.168 10.031-.235 19.747-.149l17.667.156 1.458 1.633c2.037 2.28 2.036 5.117-.003 7.156l-1.461 1.461h-31.577v11.5h21.1l1.7 1.7c2.245 2.246 2.327 4.582.241 6.918l-1.458 1.632-13.917.105c-8.411.064-14.41-.094-15.167-.397zm288.25.07c-.55-.226-1.45-.91-2-1.52-.966-1.074-1.005-1.913-1.131-24.685-.127-22.662-.094-23.634.849-25.167 1.276-2.076 3.967-2.905 6.284-1.937 3.323 1.388 3.248.853 3.248 23.152v20.148l22.25-.269.13-20.287.13-20.287 1.448-1.386c2.348-2.25 6.279-1.828 8.065.865.604.91.75 4.981.861 24.095.124 21.169.064 23.139-.75 24.743-1.51 2.976-1.642 2.994-20.885 2.968-9.625-.014-17.95-.209-18.5-.434zm-462.71-43.675c-1.152-.406-2.019-1.208-2.668-2.465-1.224-2.372-.822-4.423 1.2-6.124l1.5-1.264h39.689c28.614 0 40.037.16 40.938.57 1.686.768 2.974 3.582 2.586 5.65-.167.89-.88 2.163-1.586 2.826l-1.283 1.205-39.335.102c-29.647.078-39.755-.045-41.04-.5zm-231.13-53.239L-.007 560.672l18.482-.5 31.265-76 99.434-.23 9.25 21.808c5.087 11.995 9.325 22.003 9.417 22.24.092.24-18.053.432-40.901.432H85.873l-.677 1.625c-.372.894-6.755 18.05-14.186 38.125s-13.664 36.894-13.852 37.375c-.308.79-1.231.874-9.413.864l-9.072-.011zm190.74.01-28.6-22.873 9.974-.136c5.486-.074 9.974-.251 9.974-.393s-22.976-54.936-51.058-121.76c-28.082-66.83-50.973-121.59-50.87-121.7.105-.104 14.35 11.216 31.66 25.157l31.47 25.346 49.9 119.44c27.445 65.694 49.9 119.52 49.9 119.62 0 .095-5.344.173-11.875.173l-11.875-.001zm83.934.501c-14.594-12.306-26.546-22.656-26.56-23-.02-.48 2.344-.625 10.224-.625h10.25v-96.75c0-60.704.177-96.75.474-96.75.45 0 7.403 8.714 37.18 46.593l12.846 16.343v176.56h-17.879zm187.33 1.996-24.671-20.379-.126-121.62c-.07-66.892.057-121.62.28-121.62s11.53 10.524 25.126 23.388l24.72 23.388.125 118.61c.076 71.112-.056 118.61-.33 118.61-.25 0-11.556-9.17-25.125-20.379zm102.3-2.518-25.032-22.853 19.809-.27.127-60.049.127-60.048 50.215 63.867.017 51.125.018 51.125-10.125-.022-10.125-.023zm119.86.022-28.081-22.875 9.538-.136c5.494-.078 9.47-.33 9.375-.593-.09-.252-21.727-28.393-48.083-62.535l-47.92-62.077 7.437-7.58c4.09-4.167 28.887-29.46 55.105-56.205l47.668-48.627 10.522 10.127a9507 9507 0 0 1 17.066 16.465l6.544 6.338-4.05 4.162c-17.845 18.337-87.2 90.448-87.2 90.665 0 .151 26.325 35.15 58.5 77.775s58.5 77.606 58.5 77.736-8.289.236-18.42.236h-18.418zm66.866-.015-19.303-22.86 18.475-.5 31.255-76 99.376-.253 1.09 2.627c.6 1.444 4.819 11.377 9.375 22.072 4.557 10.695 8.285 19.525 8.285 19.622s-18.502.233-41.115.304l-41.115.128-28.667 77.5-18.353.22zm190.68-.005-28.62-22.855 9.995-.135c5.496-.075 9.993-.287 9.993-.472s-22.967-54.99-51.037-121.79c-28.07-66.797-50.96-121.53-50.867-121.62.184-.184 60.426 48.12 62.263 49.924.668.655 20.926 48.524 50.875 120.21 27.371 65.519 49.765 119.24 49.765 119.38 0 .138-5.343.241-11.875.23l-11.875-.02zm-530.53-70.67c-28.262-34.812-153.48-190.21-153.37-190.33.085-.086 12.836 6.865 28.336 15.444s38.082 21.075 50.182 27.767l22 12.168 58.727 72.268.004 33.75c.002 18.562-.191 34.058-.43 34.434-.319.504-1.758-.948-5.453-5.5zm-372.6-48.339c0-.51 40.39-99.653 40.742-100a.37.37 0 0 1 .521.004c.144.145 5.765 13.43 12.489 29.521l12.226 29.258-6.246 17.937c-3.436 9.866-6.72 19.231-7.3 20.812l-1.054 2.875h-25.69c-14.128 0-25.688-.182-25.688-.404zm751.25-.587c.544-1.715 40.298-99.221 40.56-99.482.43-.43.87.571 13.17 29.981l12.055 28.824-14.425 41.418-25.84.13c-25.645.128-25.836.122-25.52-.872zm-230.75-88.243v-52.393l1.501 1.19c.826.653 12.172 10.526 25.214 21.938l23.713 20.75.071 11.575-17.62 17.212-25.25 24.666-7.63 7.454zm314-54.813c-41.662-30.249-76.2-55.249-76.75-55.555s1.812 2.41 5.25 6.037 8.771 9.25 11.853 12.499l5.603 5.905-14.603-3.574c-8.032-1.966-38.245-9.39-67.141-16.497l-52.538-12.923-8.654-20.205c-4.975-11.614-8.467-20.389-8.213-20.638.584-.572 21.582-11.501 22.097-11.501.39 0 49.757 21.232 50.646 21.781.247.153.44.096.429-.127-.012-.222-18.568-11.992-41.237-26.155-22.67-14.162-41.214-25.862-41.213-26 .002-.137 64.852-39.326 144.11-87.085L966.163.002l41.325 12.835c22.728 7.06 41.255 12.948 41.17 13.085s-76.447 33.438-169.69 74c-93.245 40.562-169.54 73.862-169.54 74s48.315 26.866 107.37 59.396l107.37 59.146 19.75 37.315c10.862 20.523 20.803 39.302 22.09 41.73s2.299 4.402 2.25 4.388c-.05-.013-34.177-24.774-75.84-55.023zm78.5 17.826c-9.763-4.223-18.144-7.982-18.625-8.353s-4.044-6.525-7.916-13.675a6580 6580 0 0 0-9.094-16.75c-1.38-2.52-1.739-3.504-1.093-3 .962.751 51.385 46.112 53.717 48.325.68.646 1.13 1.165 1 1.153-.132-.012-8.227-3.477-17.99-7.7zm-312.25-98.804c-16.773-5.188-30.638-9.274-30.812-9.079s-1.784 2.568-3.578 5.274l-3.262 4.92-1.092-4.92c-.6-2.706-1.28-5.651-1.512-6.546-.331-1.285.138-3.73 2.234-11.65 1.46-5.515 2.735-10.099 2.835-10.187.1-.089 13.007-1.434 28.682-2.99 15.675-1.555 29.512-2.963 30.75-3.127l2.25-.3-7 5.628c-3.85 3.096-6.97 5.926-6.935 6.29.036.365 4.368 8.547 9.625 18.182 5.258 9.635 9.56 17.634 9.56 17.775 0 .518-1.828-.015-31.746-9.27z"/></svg>