<svg xmlns="http://www.w3.org/2000/svg" id="Capa_2" data-name="Capa 2" viewBox="0 0 349.42 107.1"><defs><style>.cls-1{fill:#0061b5}</style></defs><g id="Vectores"><path d="m292.79 77.92-36.05-8.91-4.72-11.02 6.16-3.16 12.41 5.12-20.98-13.2L327.06 0l22.35 7.02-91.21 39.75 57.62 31.66 11.79 22.48-39.35-28.48c1.14 2.21 2.97 3.46 4.52 5.48ZM161.76 85.86l-12.48-10.19 4.2-.18-21.22-27.5 24.37-24.86 7.61 7.29-20.2 20.97 26 34.45zM112.19 85.96l-11.28-9.19.03-53.87 11.27 10.54zM218.83 85.87l-12.67-10.18 4.36-.18-22.53-53.73 14.02 11.12 22.11 52.92zM53.04 85.95 40.23 75.69l4.36-.19-22.53-53.73 14.02 11.1 22.11 52.9zM71.01 85.88 59.1 75.73l4.61-.19.04-42.86 11.23 14.08.01 39z" class="cls-1"/><path d="m178.68 85.8-4.03.04-8.64-10.21 4.1-.07 6.96-16.88h21.99l4.17 9.93-18.22.02zM12.77 85.76l-4.07.05L.14 75.65l4.05-.06 6.97-16.92 21.94.01 4.25 9.94H19.12zM334.75 34.07l-69.19 11.79 55.01-20.69zM96.53 51.18l-.1 15.44-35.11-43.54L83.6 35.3zM134.68 85.88l-11.15-10.2 4.32-.13.05-26.54 11.24 14.19.01 22.61zM323.94 53.13l-55.7-4.5 46.04-5.94zM303.19 55.37l5.19 11.66L270 51.64zM190.32 54.57l-11.59.04 9.2-22.51 5.54 13.18zM24.38 54.59H12.83L22 32.09l5.56 13.17zM139.11 35.57l-11.24 10.87V23.17l11.19 9.7zM236.42 61.98l-1.93 2.72c-.33-1.14-.92-2.92-.7-3.82l1.27-5.14 16.62-1.61-3.75 3.11 5.28 9.8-16.78-5.07ZM332.8 92.66l-9.55-3.92-4.69-8.92zM11.79 92.18H.74c-.41 0-.74-.33-.74-.74s.33-.74.74-.74h11.05c.41 0 .74.33.74.74s-.33.74-.74.74M4.8 106.55c-.41 0-.74-.33-.74-.74l.03-10.82H.74c-.41 0-.74-.33-.74-.74s.33-.74.74-.74h4.83l-.03 12.3c0 .41-.33.74-.74.74M7.7 106.49c-.41 0-.74-.33-.74-.74V93.51h4.83c.41 0 .74.33.74.74s-.33.74-.74.74H8.44v10.76c0 .41-.33.74-.74.74M156.45 92.18h-10.96c-.41 0-.74-.33-.74-.74s.33-.74.74-.74h10.96c.41 0 .74.33.74.74s-.33.74-.74.74M162.64 107c-.41 0-.74-.33-.74-.74v-15c0-.41.33-.74.74-.74s.74.33.74.74v15c0 .41-.33.74-.74.74M165.53 107c-.41 0-.74-.33-.74-.74v-15c0-.41.33-.74.74-.74s.74.33.74.74v15c0 .41-.33.74-.74.74M194.87 107c-.41 0-.74-.33-.74-.74v-15c0-.41.33-.74.74-.74s.74.33.74.74v15c0 .41-.33.74-.74.74M206.83 107c-.41 0-.74-.33-.74-.74v-15c0-.41.33-.74.74-.74s.74.33.74.74v15c0 .41-.33.74-.74.74M203.86 101.38a.75.75 0 0 1-.61-.32l-6.48-9.38c-.23-.34-.15-.8.19-1.03s.8-.15 1.03.19l5.13 7.43v-6.82c0-.41.33-.74.74-.74s.74.33.74.74v9.2c0 .32-.21.61-.52.71-.07.02-.15.03-.22.03ZM204.34 107c-.24 0-.47-.11-.61-.32l-5.13-7.43v6.82c0 .41-.33.74-.74.74s-.74-.33-.74-.74v-9.2c0-.32.21-.61.52-.71s.65.02.83.29l6.48 9.38a.739.739 0 0 1-.61 1.16ZM133.78 107.06c-3.67-.1-5.93-2.83-5.93-5.3V90.8c0-.41.33-.74.74-.74s.74.33.74.74v10.96c0 1.49 1.42 3.74 4.47 3.82h.16c3.03-.08 4.45-2.33 4.45-3.82V90.8c0-.41.33-.74.74-.74s.74.33.74.74v10.96c0 2.47-2.26 5.2-5.91 5.3z" class="cls-1"/><path d="M133.83 103.94c-1.93-.05-3.12-1.51-3.12-2.83V90.79c0-.41.33-.74.74-.74s.74.33.74.74v10.32c0 .45.49 1.32 1.65 1.35h.06c1.15-.03 1.63-.89 1.63-1.35V90.79c0-.41.33-.74.74-.74s.74.33.74.74v10.32c0 1.32-1.18 2.78-3.1 2.83h-.1ZM149.54 106.55c-.41 0-.74-.33-.74-.74l.03-10.82h-3.35c-.41 0-.74-.33-.74-.74s.33-.74.74-.74h4.83l-.03 12.3c0 .41-.33.74-.74.74M152.44 106.49c-.41 0-.74-.33-.74-.74V93.51h4.83c.41 0 .74.33.74.74s-.33.74-.74.74h-3.35v10.76c0 .41-.33.74-.74.74M121.79 107.1h-9.48V91.12c0-.41.33-.74.74-.74s.74.33.74.74v14.5h8c.41 0 .74.33.74.74s-.33.74-.74.74" class="cls-1"/><path d="M121.79 103.82h-6.29v-12.7c0-.41.33-.74.74-.74s.74.33.74.74v11.22h4.8c.41 0 .74.33.74.74s-.33.74-.74.74ZM25.8 106.76h-8.4V90.73h8.4c.41 0 .74.33.74.74s-.33.74-.74.74h-6.92v13.05h6.92c.41 0 .74.33.74.74s-.33.74-.74.74ZM49.17 106.95c-.41 0-.74-.33-.74-.74V91.37c0-.41.33-.74.74-.74s.74.33.74.74v14.84c0 .41-.33.74-.74.74M59.45 106.95c-.41 0-.74-.33-.74-.74V91.37c0-.41.33-.74.74-.74s.74.33.74.74v14.84c0 .41-.33.74-.74.74M51.58 97.99v-6.62c0-.41.33-.74.74-.74s.74.33.74.74v5.14h2.79v-5.14c0-.41.33-.74.74-.74s.74.33.74.74v6.62zM52.32 106.95c-.41 0-.74-.33-.74-.74v-6.62h5.75v6.62c0 .41-.33.74-.74.74s-.74-.33-.74-.74v-5.14h-2.79v5.14c0 .41-.33.74-.74.74" class="cls-1"/><path d="M24.3 98.12h-4.09v-4.46h5.6c.41 0 .74.33.74.74s-.33.74-.74.74H21.7v1.49h2.62c.41 0 .74.33.74.74s-.33.74-.74.74ZM25.8 103.94h-5.6v-4.45l4.09-.01c.41 0 .74.33.74.74s-.33.74-.74.74h-2.61v1.5h4.11c.41 0 .74.33.74.74s-.33.74-.74.74ZM39.72 103.78c-2.89 0-5.24-2.35-5.24-5.24a5.245 5.245 0 0 1 8.41-4.18c.33.25.39.71.14 1.04s-.71.39-1.04.14c-.66-.5-1.44-.76-2.27-.76-2.07 0-3.76 1.69-3.76 3.76s1.69 3.76 3.76 3.76c.76 0 1.49-.22 2.11-.65a.741.741 0 1 1 .83 1.23c-.87.59-1.89.91-2.95.91Z" class="cls-1"/><path d="M39.68 107.03c-4.68 0-8.49-3.81-8.49-8.49s3.81-8.49 8.49-8.49c1.29 0 2.53.28 3.68.84.37.18.52.62.35.99a.75.75 0 0 1-.99.35c-.95-.46-1.97-.69-3.04-.69-3.86 0-7 3.14-7 7s3.14 7 7 7c1.08 0 2.12-.24 3.09-.71.37-.18.81-.03.99.34s.03.81-.34.99c-1.17.57-2.43.87-3.74.87M98.67 107.06c-4.58 0-8.3-3.72-8.3-8.3s3.72-8.3 8.3-8.3c3.64 0 6.82 2.33 7.91 5.79a.74.74 0 0 1-1.41.45 6.785 6.785 0 0 0-6.5-4.76c-3.76 0-6.82 3.06-6.82 6.82s3.06 6.82 6.82 6.82c2.99 0 5.68-2 6.54-4.87a.75.75 0 0 1 .92-.5c.39.12.62.53.5.92-1.04 3.49-4.31 5.93-7.96 5.93" class="cls-1"/><path d="M98.74 103.77c-1.75 0-3.4-.93-4.3-2.44a.74.74 0 0 1 .26-1.02.74.74 0 0 1 1.02.26 3.5 3.5 0 0 0 3.02 1.72c1.94 0 3.52-1.58 3.52-3.52s-1.58-3.52-3.52-3.52c-1.26 0-2.43.68-3.05 1.77-.2.35-.66.48-1.01.27a.737.737 0 0 1-.27-1.01 5.002 5.002 0 0 1 9.34 2.49c0 2.76-2.24 5-5 5ZM180.26 107.06c-4.58 0-8.3-3.72-8.3-8.3s3.72-8.3 8.3-8.3c3.64 0 6.82 2.33 7.91 5.79a.74.74 0 0 1-1.41.45 6.785 6.785 0 0 0-6.5-4.76c-3.76 0-6.82 3.06-6.82 6.82s3.06 6.82 6.82 6.82c2.99 0 5.68-2 6.54-4.87a.75.75 0 0 1 .92-.5c.39.12.62.53.5.92-1.04 3.49-4.31 5.93-7.96 5.93" class="cls-1"/><path d="M180.34 103.77c-1.75 0-3.4-.93-4.3-2.44a.74.74 0 0 1 .26-1.02.74.74 0 0 1 1.02.26 3.5 3.5 0 0 0 3.02 1.72c1.94 0 3.52-1.58 3.52-3.52s-1.58-3.52-3.52-3.52c-1.26 0-2.43.68-3.05 1.77-.2.35-.66.48-1.01.27a.737.737 0 0 1-.27-1.01 5.002 5.002 0 0 1 9.34 2.49c0 2.76-2.24 5-5 5ZM79.31 104.16c-1.55 0-3.09-.81-4.1-1.78a.75.75 0 0 1-.02-1.05c.28-.29.75-.3 1.05-.02.96.93 2.59 1.65 3.85 1.25.35-.16.55-.42.56-.73 0-.4-.3-.8-.8-1.04-.6-.29-1.14-.59-2.11-1.17-1.89-1.11-2.83-3.07-2.46-5.11.29-1.6 1.35-2.89 2.89-3.54 1.84-.77 4.03-.49 5.86.75.34.23.43.69.19 1.03s-.69.43-1.03.19c-1.41-.96-3.07-1.19-4.45-.61-1.08.45-1.81 1.34-2.01 2.44-.26 1.41.42 2.78 1.76 3.56.94.55 1.45.84 2 1.11 1.03.5 1.65 1.42 1.63 2.41-.02.9-.57 1.68-1.48 2.07l-.06.02c-.42.14-.86.2-1.29.2Z" class="cls-1"/><path d="M79.62 107.03c-1.39 0-2.84-.45-4.2-1.34a.75.75 0 0 1-.22-1.03c.22-.34.68-.44 1.03-.22 1.75 1.14 3.63 1.41 5.17.74 1.17-.5 1.96-1.47 2.17-2.64.26-1.41-.42-2.78-1.76-3.56-.94-.55-1.45-.84-2-1.11-1.03-.5-1.65-1.42-1.63-2.41.02-.9.57-1.68 1.48-2.07l.06-.02c1.29-.43 2.54.11 3.71.7a.744.744 0 1 1-.67 1.33c-.91-.46-1.8-.85-2.54-.62-.35.16-.55.42-.56.73 0 .4.3.8.8 1.04.6.29 1.13.59 2.11 1.17 1.89 1.11 2.83 3.07 2.46 5.11-.3 1.65-1.44 3.05-3.04 3.74-.74.32-1.54.48-2.36.48ZM217.45 104.16c-1.55 0-3.09-.81-4.1-1.78a.75.75 0 0 1-.02-1.05c.28-.29.75-.3 1.05-.02.96.93 2.59 1.65 3.85 1.25.35-.16.55-.42.56-.73 0-.4-.3-.8-.8-1.04-.6-.29-1.13-.59-2.11-1.17-1.89-1.11-2.83-3.07-2.46-5.11.29-1.6 1.35-2.89 2.89-3.54 1.84-.77 4.03-.49 5.86.75.34.23.43.69.19 1.03s-.69.43-1.03.19c-1.41-.96-3.07-1.19-4.45-.61-1.08.45-1.81 1.34-2.01 2.44-.26 1.41.42 2.78 1.76 3.56.94.55 1.45.84 2 1.11 1.03.5 1.65 1.42 1.63 2.41-.02.9-.57 1.68-1.48 2.07l-.06.02c-.42.14-.86.2-1.29.2Z" class="cls-1"/><path d="M217.76 107.03c-1.39 0-2.84-.45-4.2-1.34-.34-.22-.44-.68-.22-1.03s.68-.44 1.03-.22c1.75 1.14 3.63 1.41 5.17.74 1.17-.5 1.96-1.47 2.17-2.64.26-1.41-.42-2.78-1.76-3.56-.94-.55-1.45-.84-2-1.11-1.03-.5-1.65-1.42-1.63-2.41.02-.9.57-1.68 1.48-2.07l.06-.02c1.29-.43 2.54.11 3.71.7a.744.744 0 1 1-.67 1.33c-.91-.46-1.8-.85-2.54-.62-.35.16-.55.42-.56.73 0 .4.3.8.8 1.04.6.29 1.13.59 2.11 1.17 1.89 1.11 2.83 3.07 2.46 5.11-.3 1.65-1.44 3.05-3.04 3.74-.74.32-1.54.48-2.36.48Z" class="cls-1"/></g></svg>