<svg xmlns="http://www.w3.org/2000/svg" xmlns:xlink="http://www.w3.org/1999/xlink" viewBox="0 0 150 43"><title>Zeva</title><defs><path id="a" d="M.054.009h20.939v30.326H.053z"/><path id="c" d="M0 .009h20.681V20.69H0z"/><path id="e" d="M.02.057h20.681V20.74H.021z"/></defs><g fill="none" fill-rule="evenodd"><path fill="#42505e" d="M115.99 26.985c.892-2.926 1.752-5.736 2.607-8.546 1.088-3.577 2.172-7.156 3.26-10.733.254-.84.89-1.314 1.888-1.39a16.4 16.4 0 0 1 2.454-.004c1.151.086 1.789.877 1.613 2.018-.222 1.444-.787 2.792-1.23 4.172-2.294 7.137-4.62 14.263-6.903 21.403-.36 1.126-1.054 1.734-2.191 1.82-1.168.087-2.338.121-3.506-.062-1.005-.159-1.637-.703-1.948-1.672-2.052-6.393-4.113-12.783-6.17-19.175-.57-1.77-1.145-3.539-1.706-5.312-.129-.406-.257-.823-.304-1.244-.12-1.094.33-1.737 1.408-1.9a11 11 0 0 1 3.168.012c.92.13 1.414.727 1.676 1.584.89 2.917 1.791 5.83 2.688 8.746l3.038 9.866c.033.106.078.208.157.417M76.341 30.015c1.343 0 1.86.388 2.1 1.709.17.938.162 1.891-.158 2.812-.267.767-.735 1.113-1.545 1.114q-7.199.007-14.397 0c-1.112-.002-1.884-.71-2.034-1.82-.243-1.81.06-3.48 1.007-5.084 3.134-5.315 6.209-10.665 9.306-16.002.092-.158.178-.321.268-.485-.153-.158-.328-.083-.48-.084-2.622-.005-5.245-.003-7.868-.004-.99 0-1.554-.425-1.791-1.402a6.14 6.14 0 0 1 .002-2.926c.221-.908.747-1.306 1.678-1.307q6.585-.004 13.17 0c1.38 0 2.116.705 2.228 2.088.143 1.777-.221 3.4-1.138 4.96-3.098 5.272-6.133 10.58-9.192 15.876-.09.156-.168.32-.29.555zM96.37 17.85c.534.012.626-.168.573-.633-.108-.945-.253-1.877-.611-2.765a5.04 5.04 0 0 0-7.833-2.11c-1.631 1.272-2.239 3.084-2.563 5.037-.067.405.057.465.416.462 1.679-.015 3.358-.007 5.037-.007 1.66 0 3.32-.025 4.98.015m-2.96 5.056c-2.35 0-4.701.012-7.051-.011-.431-.004-.552.115-.506.53.128 1.163.25 2.326.67 3.433.866 2.286 2.559 3.478 4.96 3.739 2.6.283 5.029-.3 7.358-1.411.335-.16.67-.33 1.024-.44.974-.3 1.777.167 1.977 1.155.19.94.18 1.89-.008 2.828-.14.697-.582 1.178-1.203 1.524-1.55.862-3.236 1.31-4.96 1.63-2.521.47-5.049.494-7.535-.191-3.604-.993-6.086-3.304-7.277-6.8-1.77-5.195-1.796-10.455.206-15.6 1.487-3.82 4.259-6.356 8.388-7.083 3.626-.638 7.033-.092 9.834 2.546 1.936 1.823 2.894 4.158 3.342 6.72.307 1.761.482 3.54.245 5.325-.17 1.277-1.126 2.098-2.412 2.103-2.351.01-4.701.003-7.052.003"/><g transform="translate(128.977 5.824)"><mask id="b" fill="#fff"><use xlink:href="#a"/></mask><path fill="#42505e" d="M15.098 17.528c.013-.342-.096-.452-.44-.444-.892.022-1.785-.015-2.675.013-1.02.032-2.033.127-3.021.42-3.032.899-3.303 3.698-2.472 5.66.629 1.483 2.4 2.13 4.295 1.676 1.364-.326 2.336-1.235 3.318-2.157.718-.675 1.178-1.402.995-2.433-.048-.27-.007-.557-.007-.837 0-.633-.017-1.266.007-1.898m.532 10.197c-1.028.835-2.019 1.536-3.17 1.929-3.378 1.153-6.61.923-9.498-1.316C1.089 26.886.28 24.81.097 22.494c-.245-3.105.522-5.85 3.034-7.888 1.71-1.386 3.748-1.998 5.882-2.349 1.828-.3 3.671-.261 5.512-.235.477.006.588-.142.577-.597-.026-1.063-.046-2.123-.322-3.158-.358-1.344-1.203-2.2-2.566-2.505-2.086-.464-4.056-.063-5.95.848-.77.371-1.498.82-2.23 1.26-1.38.83-2.559.238-2.768-1.362a7.6 7.6 0 0 1 .014-2.004c.108-.811.58-1.394 1.22-1.858C4.14 1.456 5.99.757 7.954.344c2.235-.472 4.476-.454 6.69.108 3.478.884 5.398 3.218 6.05 6.688.213 1.138.3 2.288.3 3.445q-.001 8.7-.001 17.4c0 1.137-.433 1.71-1.53 1.902-.771.134-1.56.136-2.333-.012-1.063-.204-1.434-.668-1.48-1.764-.003-.088-.009-.177-.02-.386" mask="url(#b)"/></g><path fill="#0d95b4" d="M53.69 20.597H42.19a1.286 1.286 0 0 1-1.282-1.283V7.816c0-.705.577-1.282 1.282-1.282H53.69c.706 0 1.283.577 1.283 1.282v11.498c0 .706-.577 1.283-1.283 1.283"/><path fill="#42505e" d="M37.775 20.597H23.589a1.72 1.72 0 0 1-1.714-1.715V4.697a1.72 1.72 0 0 1 1.714-1.714h14.186a1.72 1.72 0 0 1 1.714 1.714v14.185a1.72 1.72 0 0 1-1.714 1.715"/><path fill="#42505e" d="M23.654 3.11c-.912 0-1.653.74-1.653 1.652V18.96c0 .911.741 1.653 1.653 1.653h14.198c.911 0 1.653-.742 1.653-1.653V4.762c0-.912-.742-1.653-1.653-1.653zm14.198 17.629H23.654a1.78 1.78 0 0 1-1.779-1.78V4.763c0-.981.798-1.779 1.779-1.779h14.198c.98 0 1.779.798 1.779 1.779V18.96a1.78 1.78 0 0 1-1.779 1.779"/><path fill="#1a8799" d="M18.64 20.597H1.957A1.96 1.96 0 0 1 0 18.64V1.956C0 .88.88 0 1.956 0H18.64c1.076 0 1.956.88 1.956 1.956V18.64c0 1.075-.88 1.956-1.956 1.956"/><mask id="d" fill="#fff"><use xlink:href="#c"/></mask><path fill="#1a8799" d="M2.015.134C.973.134.125.982.125 2.024v16.651c0 1.042.848 1.89 1.89 1.89h16.652a1.89 1.89 0 0 0 1.889-1.89V2.023c0-1.041-.848-1.889-1.89-1.889zM18.667 20.69H2.015A2.017 2.017 0 0 1 0 18.675V2.023C0 .913.904.01 2.015.01h16.652c1.11 0 2.014.903 2.014 2.014v16.652a2.017 2.017 0 0 1-2.014 2.015" mask="url(#d)"/><path fill="#42505e" d="M53.69 21.59H42.19c-.705 0-1.282.578-1.282 1.283v11.498c0 .705.577 1.282 1.282 1.282H53.69c.706 0 1.283-.577 1.283-1.282V22.873c0-.705-.577-1.282-1.283-1.282"/><path fill="#42505e" d="M42.114 21.575c-.673 0-1.221.547-1.221 1.22v11.512c0 .673.548 1.22 1.22 1.22h11.512c.673 0 1.22-.547 1.22-1.22V22.796c0-.674-.547-1.221-1.22-1.221zm11.51 14.078h-11.51a1.35 1.35 0 0 1-1.347-1.346V22.796c0-.743.604-1.347 1.347-1.347h11.51c.743 0 1.348.604 1.348 1.347v11.51c0 .743-.605 1.347-1.347 1.347"/><path fill="#0d95b4" d="M37.917 21.449H23.73a1.72 1.72 0 0 0-1.714 1.714v14.185a1.72 1.72 0 0 0 1.714 1.715h14.186a1.72 1.72 0 0 0 1.714-1.715V23.163a1.72 1.72 0 0 0-1.714-1.714"/><path fill="#42505e" d="M18.64 21.449H1.957C.88 21.449 0 22.329 0 23.405V40.09c0 1.075.88 1.955 1.956 1.955H18.64c1.076 0 1.956-.88 1.956-1.955V23.405c0-1.076-.88-1.956-1.956-1.956"/><g transform="translate(0 21.449)"><mask id="f" fill="#fff"><use xlink:href="#e"/></mask><path fill="#42505e" d="M2.035.183a1.89 1.89 0 0 0-1.89 1.89v16.65c0 1.043.848 1.89 1.89 1.89h16.652a1.89 1.89 0 0 0 1.889-1.89V2.074a1.89 1.89 0 0 0-1.89-1.89zM18.687 20.74H2.035A2.017 2.017 0 0 1 .02 18.724V2.072C.02.962.924.057 2.035.057h16.652c1.11 0 2.014.904 2.014 2.015v16.652c0 1.11-.903 2.015-2.014 2.015" mask="url(#f)"/></g><g fill="#d5dbe5"><path d="M12.729 23.918c.342-.042.65.18.663.535.017.435.032.795.166 1.187.117.34.444.59.58.857.212.414.34.178.533-.057.262-.319.539-.63.942-.828.455-.226 1.012-.37 1.042-1.092.02-.505-.004-.777-.481-.907a3.3 3.3 0 0 1-.875-.361 1.05 1.05 0 0 1-.001-.664c.436-.199.368.127.602.067.22-.057 1.01.023.922.152.539.103.543.406.29.902-.032.08.217.112.269.167.063.068.16.14.17.218.032.275-.567.241-.205.708.14.225-.256.643-.516.845-.047.036-.121.087-.172.065-.331-.142-.428-.065-.418.255.011.371-.173.742-.552.713-.076-.006-.46.018-.47.038-.236.525-.536.145-.891.243-.558.153-1.199-.343-1.331-.981-.045-.219-.237-.41-.372-.605-.063-.091-.156-.104-.241-.018-.07.072-.223.087-.177.242.013.045-.024.212-.004.255.369.771.301 1.134-.336 1.764-.085.058-.009.27-.016.34-.027.273-.078.557-.293.783-.106.112-.21.25-.011.337.12.053.256.132.277.282.073.53-.084.66-.495.628-.245-.019-.568-.058-.808-.308-.023.191-.077.449-.046.555.143.482-.243.604-.583.751-.167.073-.296.04-.2-.161.214-.445.25-.982.686-1.32.268-.208.279-.447.025-.667a.039.039 0 0 1 .017-.068.41.41 0 0 0 .313-.27c.115-.276.237-.549.528-.702.117-.062.15-.196.145-.331-.002-.095-.042-.231.016-.28.684-.572.223-.683.228-1.088.004-.33.175-.795.402-1.112.161-.224.052-.534.304-.69.155-.097.287-.216.374-.379M11.755 21.544c.004.365-.095.659-.435.875-.315.2-.442.579-.65.878-.448.647-1.014.998-1.172 1.826-.032.168-.184.518.07.681.034.022-.172.126-.248.16-.733.332-.51.798-.623 1.422-.04.219-.168.416-.243.573-.225.47-.48.96-.42 1.475.074.63-.382.998-.61 1.479-.04.083-.089.16-.083.233.037.451-.321.856-.371 1.249-.079.615-.276 1.115-.535 1.618-.129.25.046.382 0 .565-.15.605-.403.85-.442 1.713-.007.142-.138.147-.255.153-.204.01-.247-.173-.346-.285-.068-.076-.089-.215.011-.245.72-.217.25-1.186.356-1.582.157-.582.192-.803.453-1.38.163-.363.217-.81.35-1.213.066-.202.095-.383.282-.557.254-.234.256-.623.29-.968.049-.496.132-.985.281-1.462.094-.072.233-.128.098-.28.244-.189.21-.46.226-.722.036-.64.464-1.17.72-1.724.325-.701.433-1.483.94-2.092.324-.389.581-.819.854-1.24.11-.17.304-.327.28-.532-.04-.341.19-.462.398-.619a1.54 1.54 0 0 1 .824 0M13.873 30.084c.168.154.115.319-.107.545-.51.518-1.114.477-1.637.896-.374.527-1.03.548-1.565.423-.115-.027-.352.356-.18.392.529.112.305.648.336 1.008.476-.164.87-.237 1.246-.764.496-.566 1.202-1.008 1.984-1.152.108-.02.24-.045.28.096.057.204.074.476-.112.568-.61.303-1.12.675-1.636 1.089-.239.191-.789.473-1.041.666-.372.283-.34.59-.715.863-.123.09-.245.167-.377.034-.116-.116-.113-.262-.022-.389.173-.24.05-.687.232-.92-.517.005-.236-.646-.53-.856-.083-.058-.312.066-.316.135-.043.697-.221.71-.462.876.026.682-.077.764-.435.86-.025.035-.377.918-.6.936-.116.01-.01-.09-.007-.139.028-.448-.058-.93.385-1.253.06-.044.13-.13.128-.193-.035-.732.473-1.122.953-1.53a.33.33 0 0 0 .115-.195c.155-.677.432-.74 1.144-.792.212-.016.428.16.363-.257-.027-.172.116-.312.22-.27.264.104.488.108.718-.023.261-.149.498.07.784-.008-.066-.194-.206-.444.091-.525.245-.067.376-.523.703-.055z"/><path d="M14.54 21.923c-.016.075-.03.216-.047.216-.474.008-.836.4-1.331.365-.326-.023-.39-.172-.299-.42.067-.183.122-.35.062-.54.006-.058.068-.06.095-.095h.189q.81.119 1.619.002l.28-.002c.622.108 1.248.018 1.871.05.201.01.407-.047.602.044q.272.153.526.324c.127.086.124.302.242.397.153.124.488.256.623.398.24.253.386.413.552.742.039.078.05.258.035.263-.566.177-.34.52-.339.996 0 .22-.093.394-.365.402-.121.004-.287.025-.28.147.015.275-.084.453-.303.543a.34.34 0 0 0-.216.227c-.29.868-.895 1.457-1.709 1.811-.225.098-.306.244-.428.473-.11-.13-.183-.255-.29-.331-.176-.124-.38-.271-.263-.478.106-.187.29-.176.525-.08.053.022.31.01.407.016-.226-.346-.14-.48.12-.584.232-.092.602.156.82-.025-.063-.126-.447-.317-.266-.466.293-.242.342-.935 1.056-.514-.524-.567-.107-.926.115-1.334.167-.306.407-.578.433-.912.016-.216-.172-.619-.44-.726-.65-.26-1.313-.484-1.87-.929-.27-.214-.45.117-.694.14-.337.033-.64.047-.937-.12-.08-.056-.08-.056-.095 0M14.255 34.831c-.183-.476.232-.697.36-1.073.043-.125.295-.458.115-.582-.169-.117-.455.187-.48.251-.31.768-.98.849-1.422 1.025-.187.172-.53.707-.576.996-.047.292-.295.216-.49.24-.101.013-.301-.09-.277.132.075.68-.482.774-.899 1.035-.18.113-.329.21-.283.511.04.26-.251.478-.495.533-.531.119-.953.314-.961.938-.003.22-.206.362-.419.35-.3-.017-.138-.245-.158-.394-.035-.276.046-.495.284-.646.54-.342.904-.878 1.41-1.274.379-.296.843-.601 1.026-1.223.149-.507.587-1.037 1.127-1.351.062-.037.165-.057.228-.031.375.154.508.187.446-.35-.028-.242.464-.613.847-.645.243-.02.384-.108.55-.238.667-.522 1.349-1.023 1.823-1.749.084-.128.24-.289.435-.228.236.074.272.297.34.495.037.109-.052.437-.252.57-.396.263-.699.382-1.092.65-.15.1-.196.256-.043.466.17.232.088.502-.142.717-.335.316-.388.9-1.003.874zM12.003 22.683c.186.02.353.026.443.194.118.22-.062.537-.227.666-.605.475-.513 1.178-1.11 1.65-.164.13-.305.6-.306.745-.006.55-.257.75-.327 1.269-.008.058-.102.385-.146.416-.643.45-.574 1.033-.659 1.683-.02.158-.016.448-.122.574-.194.232-.344.39-.367.663-.042.502-.078.764-.421.953-.416.228-.293 1.113-.632 1.375-.113.087.006.505-.165.563-.11.037-.219-.031-.288-.121-.107-.14-.088-.3-.023-.45.104-.242.233-.477.355-.705.183-.34.129-.723.304-1.063.111-.215.11-.477.386-.585.041-.016.09-.14.072-.159-.45-.508.134-.752.278-1.105.018-.044.07-.088.062-.124-.166-.891.582-1.555.596-2.401a.4.4 0 0 1 .078-.22c.452-.596.5-1.349.791-2.003.167-.373.665-.744.924-1.065.152-.189.188-.208.187-.454 0-.226.092-.322.317-.296M22.415 35.117c.393-.599.504-1.291.674-1.968.11-.437.385-.804.656-1.15.202-.257.458-.278.386-.703-.097-.567.047-1.27.454-1.744.137-.16.23-.381.277-.59.077-.352.224-.401.47-.16.027.372.342.372.415-.093.036-.228.216-.25.401-.231.231.023.302.202.252.376-.467.921.015 2.19-.623 2.938-.173.202-.076.642-.21.919-.102.21-.28.302-.456.164-.184-.144-.481-.371-.269-.617.573-.663.59-1.3.6-2.245.001-.165.356-.586.02-.62-.231-.024-.194.419-.305.572-.499.688-.737 1.573-.75 2.299-.036.248-.022.441-.27.584-.12.069-.306.18-.342.3-.17.566-.518.879-.595 1.479-.01.073-.048.488-.104.519-.544.298-.722.544-.867 1.299a2 2 0 0 1 0-.95c.071-.121.09-.269.186-.378M30.228 20.509c-.404.205-.694-.157-.85-.536-.44-1.067-.96-2.101-1.68-2.995-.324-.403-.68-.87-1.206-1.075-.264-.103-.378-.258-.37-.526.009-.3-.146-.493-.413-.64-.019.063-.047.107-.04.146.02.133.304.223.056.398a.465.465 0 0 1-.568-.027c-.643-.547-.675-.765-1.448-1.108-.241-.107-1.087-.545-1.377-.633-.218-.066-.167-.523-.146-.901.275.893.726.297 1.15.674.07.062.624.296.71.39.122.13.29.24.462.144.152-.085.05-.388.017-.593a.1.1 0 0 1 .12-.114c.526.116.696 1.077 1.288 1.026l.001.001c.347.185.493.615.898.731.102.03.126.138.164.22.238.512.659.86 1.036 1.26.274.293.501.662.746 1 .27.371.448.8.75 1.158.192.23.086.606.296.856.404.203.383.787.404 1.144M4.388 37.507c-.661-.247-.64-.744-.485-1.31.191-.707.02-1.494.363-2.146.406-.773.337-1.631.59-2.426.16-.503.438-.955.52-1.497.156-1.033.55-2.003.936-2.97.095-.238.212-.387.479-.317.26.068.161.29.11.494-.052.212-.003.484-.284.6-.101.043-.076.35-.085.443-.057.612-.218.964-.535 1.53-.325.582-.536.9-.387 1.657.072.369-.227 1.13-.378 1.52-.216.56-.4 1.046-.438 1.654-.024.379-.2.661-.322.994-.205.564-.142 1.219-.084 1.774M29.387 22.332c.282.44.498.752.175 1.256-.083.13-.134.216-.287.254-.107.027-.265.133-.17.251.37.463.212.909.037 1.357-.112.285-.17.528-.595.563-.187.015-.448.14-.326.438.063.155.124.496-.088.566a.72.72 0 0 1-.736-.174c-.128-.135-.088-.443.084-.56.332-.229.264-.42.123-.74a1.66 1.66 0 0 1-.02-1.204c.21-.538.081-.942.01-1.432-.032-.222-.116-.489-.053-.701-.074-.203-.216-.412-.03-.615.162-.177.26-.162.455-.132.31.047.285.359.26.606-.063.636-.04 1.259.15 1.875.067.217.006.434-.078.646-.048.123-.044.609-.06.742-.012.091.235.449.338.193.25-.623-.054-1.884.278-2.46.076-.38-.08-.749-.184-1.114-.126-.435-.24-.45.217-.447.154.002.316-.045.463.043.022.223.082.557.037.789M20.577 19.517c-.366-.081-.424-.241-.45-.544-.385-.147-.792-.184-1.072-.471-.314-.322-.688-.41-1.109-.49a3.7 3.7 0 0 1-1.2-.452c-.377-.222-.851-.39-1.33-.274-.399.098-.624-.022-.611-.442.007-.22-.102-.232-.258-.233-.155-.002-.291.018-.288.22.003.156-.037.32.07.458.092.12.184.274.028.367a.6.6 0 0 1-.445.036c-.16-.05-.148-.225-.102-.368.039-.122.1-.245-.018-.35-.082-.075-.166-.139-.235.035-.151.38-.96.889-1.305.796-.212-.057-.412-.234-.435-.456-.027-.253.222-.146.357-.17.12-.02.19-.087.273-.166.27-.257.586-.42.974-.403.33.013.588-.29.944-.197.538.14 1.066.014 1.6-.08.399-.07.741.216 1.057.372.41.203.802.382 1.249.49.313.077.611.274.876.471.388.288.722.657 1.225.75.175.033.23.301.44.275.055.064.016.19-.038.252-.032.193-.154.41-.197.574M13.59 10.44c-.096-.179-.134-.387-.435-.162-.24.18-.55.056-.789-.118-.181-.133-.333-.146-.501.012-.223.21-.447.223-.645-.033-.224-.288.01-.53.18-.643.288-.192.458-.35.307-.712-.06-.144.048-.256.184-.342.196-.126.376-.017.544.03.218.06-.105.233.026.342.806-.46 1.24-.51 1.198.22.547-.58 1.252-.41 1.823-.297.436.086.873.383 1.357.464.136.023.175.124.156.248-.026.173-.15.244-.306.226-.483-.056-.967-.106-1.443-.199-.266-.051-.521-.127-.788-.038-.18.06-.326-.022-.42-.14-.135-.17-.293-.356-.472-.177-.117.117-.442.153-.389.432.037.187.352.247.512.285.196.045.281.091.264.287-.021.24-.105.356-.364.314zM5.869 23.315c.062.488.007.87-.431 1.179-.287.201-.332.533-.437.862-.227.706-1.058 1.26-.972 2.318-.619.31-.219.95-.602 1.393a1 1 0 0 0-.206.539c-.015.342.093.56-.25.864-.224.2-.074.818-.19 1.21-.092.306-.264.331-.49.295-.26-.043-.35-.26-.23-.46.41-.675.521-1.41.535-2.177a.3.3 0 0 1 .258-.298c.335-.062.36-.258.352-.586-.018-.633.006-1.282.546-1.777.122-.113.118-.377.145-.576.02-.145.022-.346.158-.367.469-.071.418-.402.465-.736.061-.427.499-.622.721-.961.112-.17.187-.31.184-.502.217.133.231-.325.444-.22M2.662 34.798c.01-.129-.022-.27.034-.343.417-.546.364-1.221.418-1.826.081-.906.545-1.644.822-2.46.142-.42.58-.731.375-1.276-.067-.176.19-.307.327-.429.13-.114.227-.158.045-.348-.196-.205-.228-.512.088-.67.349-.174.454-.484.45-.803-.007-.382.096-.418.312-.517.139-.063.284.045.217.241-.188.552-.32 1.024-.53 1.642-.426.744-.547 1.414-.747 2.342-.113.52-.565.398-.52 1.075.016.242-.027.865-.282 1.018-.083.05-.293.2-.206.24.583.259.112.363.006.572-.204.4-.116 1.298-.382 1.747-.065.11.122.448-.089.468-.2.019-.249-.174-.297-.317-.038-.116-.03-.248-.04-.356"/><path d="m14.918 7.591.379.192c.175.123.396-.027.57.097.237.138.508.185.764.178.518-.016.901.217 1.324.482.509.318 1.08.58 1.732.48.483-.076.455.398.624.636.145.204-.088.348-.221.486-.078.08-.138.08-.238.005-.586-.447-1.394-.815-1.975-.477-.124.072-.27.029-.355-.193-.292-.751-.909-1.262-1.78-.99-.274.084-.416-.02-.54-.23-.14-.117-.331.017-.473-.096-.476-.017-.665-.1-.815-.277-.094-.112-.271.024-.93-.01-.15-.008-.317.05-.44-.092-.052-.053-.153-.082-.094-.19.097-.22.337-.079.477-.189.405.102.817.108 1.23.095.242.13.519-.03.761.093M24.316 22.772c.184.574.004 1.17-.012 1.752-.018.674-.325 1.179-.239 1.876.054.437-.094.705-.393.932-.18.137-.507.24-.57-.002-.055-.215-.579-.372-.123-.668.1-.064.206-.125.19-.244-.088-.628.245-1.234.45-1.793.164-.448-.159-.808-.14-1.251.015-.327-.076-.66.076-.977-.129-.153-.202-.351-.375-.47-.252-.384.213-.24.285-.387.524-.074.793.208.722.733-.023.172-.09.38.13.499M25.743 22.397c.009.342-.358.555.109.79.029.015.05.47.04.508-.166.714.182 1.297-.162 1.973-.158.31-.117.682-.52.864-.126.056-.087.337.002.36.22.057.086.963-.28 1.268-.203.17-.439.23-.624.017-.166-.19-.191-.546.028-.685.564-.36.392-.962.53-1.447.1-.35.016-.752.312-1.05.076-.077.053-.162.03-.261a5.3 5.3 0 0 1-.105-1.68c.017-.183-.074-.42-.22-.658-.074-.28-.035-.638-.235-.885.177-.1.367.008.52-.014.288-.042.41.12.424.37.01.193.014.377.15.53M16.773 38.722c-.386.004-.65-.245-.5-.541.176-.348.27-.733.405-1.062.149-.363.113-.664-.035-1.053-.099-.262.11-.375.384-.386.637-.027.542-.05.62-.682.067-.551.22-1.198.872-1.418.466-.157.54-.58.595-.908.043-.252.124-.305.297-.37.176-.064.335.002.406.149.073.152.098.355-.066.479-.514.343-.725.605-.85 1.117-.056.23-.331.287-.481.526-.295.467-.549.718-.81 1.19a3.7 3.7 0 0 0-.402 1.91c.041.51-.058 1.045-.435 1.049M27.071 22.777c-.132.854-.132 1.47.088 2.614.062.686-.158 1.167-.387 1.75-.04.099.008.28.018.385.046.475-.357.465-.624.54-.185.05-.247-.165-.23-.333.026-.264.152-.526.172-.791.061-.84.348-1.625.317-2.491-.026-.736.042-1.47-.197-2.185a.216.216 0 0 1 .084-.253c.094-.11.024-.24.043-.359.03-.177.164-.155.287-.155.163 0 .154.087.128.216-.079.401.275.687.301 1.062"/><path d="M16.53 34.736c.007-.096.026-.2.119-.238.27-.11.248-.302.111-.474-.361-.454-.291.057-.419.148-.172.21-.245.491-.476.658-.466-.418-.434-.577.147-.857.3-.145.04-.227.431-.57.16-.14.282-.508.512-.251.525.584.516 1.277.013 1.89-.253.307-.793.486-.893.922-.032.139-.048.289.131.367.226.098.454.262.241.448-.2.176-.404.493-.798.218-.372-.26-.667-.602-1.047-.856-.325-.217-.088-.539.08-.771.176-.242.549-.262.643-.071.21.426.298.147.468.009.132-.107.191-.245.265-.382.151-.079.324-.102.471-.19M22.186 8.803c.362.271.933.32 1.177.768.857-.046 1.24.867 2.011 1 .036.006.057.1.085.153.086.076.244.044.28.192l.855.378c.06.056.029.165.1.204.704.388 1.12 1.084 1.707 1.597l.002.001c.164.084.224.279.279.405.163.379.367.682.764.828v.002c.055.162.092.329.133.494.02.081.355.308.231.62-.05.129-.481-.435-.55-.517-.065-.077-.053-.178-.075-.269-.033-.138-.09-.243-.256-.299-.516-.172-.868-.573-1.24-.944-.416-.417-.754-.904-1.185-1.308-.104-.097-.191-.21-.356-.2-.061.004-.166.019-.178-.026-.185-.67-1.06-.437-1.315-1.009-.036-.08-.113-.098-.196-.104a.66.66 0 0 1-.458-.222c-.391-.466-.93-.86-1.84-.79v-.059c-.035-.472 0-.58.025-.895M20.822 27.542c-.275-.135-.67-.203-.693.152-.032.478-.418.708-.658 1.049-.316.448-.505 1.075-1.074 1.327-.142.062-.326.226-.463.171-.075-.03-.152-.171-.213-.015-.055.141.089.13.173.148.087.02.119.232.071.276-.414.082-.13.463-.358.673-.22.202-.5.099-.585-.19-.124-.419.058-.74.367-.972.113-.084.195.048.27-.06.155-.228.268-.722.485-.918.412-.374.7-.89 1.135-1.25.196-.163.332-.316.383-.555.007-.03 0-.084.015-.09.584-.238.624-1.127 1.145-1.347.074.509.05 1.07 0 1.601M20.83 24.722c-.31.103-.516.344-.508.686.007.359-.233.727-.643.692-.299-.025-.379 0-.295.318.093.35-.182.825-.54.896-.156.03-.36-.037-.354-.145.01-.178-.294-.317-.06-.497.495-.38.654-1.01 1.104-1.442.342-.33.459-.895.814-1.267.17-.178-.203-.394-.321-.553-.122-.162-.269-.249-.047-.447.057-.05.093-.31-.008-.403-.395-.363-.86-.657-1.258-1.017.16-.069.38-.09.54-.014.135.03.592.226.739.34 0 0 .387.284.485.44.21.211.199.509.323.763.08.57.1 1.08.03 1.65M20.842 33.784c0 .03-.038.066-.037.096-.033.032-.042.087-.094.1-.344.078-.37.423-.48.654-.187.386-.369.675-.776.86-.087.04-.148.138-.102.236.157.332.097.571-.237.71a1 1 0 0 0-.157.075c.163.54-.376.734-.502 1.172-.136.475-.354.997-.64 1.388-.096.132-.247.176-.368.06-.11-.106-.111-.337-.005-.381.325-.136.3-.472.294-.657-.022-.65.472-.994.757-1.456.048-.079.163-.207.163-.251.014-1.02 1.004-1.615 1.124-2.585.008-.06.1-.113.16-.162.285-.239.61-.33.582-.895-.004-.093.182-.244.298-.244.132.405-.064.827.02 1.28M27.262 11.196c.016-.357-.335-.497-.482-.763-.218-.395-.432-.808-.696-1.172-.256-.353-.653-.6-.941-.934-.438-.508-1.039-.765-1.583-1.11-.158-.1-.189-.243-.234-.389-.054-.175.073-.217.177-.147.592.396 1.242.684 1.818 1.128.551.425 1.004.94 1.476 1.42.444.45.981.894 1.148 1.583.059.242.251.429.46.578.031.269.362.76.451 1.006.039.107.578.976.413 1.046-.065.027-.093-.166-.308-.471-.192-.272-.575-.65-.608-.757-.17-.539-.64-.773-1.091-1.018M14.895 31.413c-.351.01-.511-.265-.382-.582.24-.59.71-.945 1.258-1.194.25-.113.413-.255.53-.497.12-.253.3-.459.516-.656A6 6 0 0 0 17.9 27.22c.07-.113.149-.06.235-.005.492.313.39.87-.154 1.153-.406.211-.413.76-.935.78-.004.563-.617.43-.963.593-.037.017-.038.302-.052.362-.148.648-.653.772-1.02 1.29-.022.03-.09.016-.115.02M20.84 11.56c-.42.113-.898-.171-1.235-.44-.282-.223-.686-.036-1.033-.101-.244-.047-.507.004-.72-.172-.083-.069-.151-.067-.252-.016-.338.17-.694.115-.998-.05-.273-.15-.518-.272-.813-.12-.25.127-.559-.058-.737-.276-.137-.167.1-.303.214-.369.264-.152.599-.275.821.007.172.217.161.112.328.005.32-.205.71-.052 1 .175.157.122.335.132.43.028.193-.214.425-.112.566-.06.756.285 1.7.432 2.429.79zM13.44 12.336c-.551.064-1.115-.131-1.662.086a.43.43 0 0 1-.321-.027c-.155-.082-.426-.067-.44-.266-.014-.186.219-.265.364-.383.398-.323.739-.468 1.09.044a.28.28 0 0 0 .42.057c.233-.22.531-.174.794-.238.244-.059.389-.089.395-.393.006-.245.791-.3 1.053-.055.186.173.273.35.562.07.257-.248.515.085.737.228.2.13.018.207-.049.35-.12.255-.428.2-.662.133-.465-.134-1.188-.22-1.395.045-.226.288-.509.335-.886.35M11.88 20.52c.02-.11-.03-.328.173-.377.4-.096.841-.15 1.164-.412.39-.317.51.031.892-.003.979-.088 2.222-.155 3.164.202.296.112.086.261.87.38-.025.23-.23.068-.343.078-.43.037-.717.032-1.144.14h-.706c-.076-.198-.52-.526-.544 0l-.046-.001h-.045c-.34-.13-.627.12-.967-.008-.115-.422-.475-.517-.38-.004a9.2 9.2 0 0 1-2.087.004M22.134 16.795c.397-.248.644-.192.982.207.244.286.532.615.95.804.416.188.782.704 1.061 1.085.29.397.465.84.785 1.218.102.12.252.265.208.379-.052.131-.175.045-.268.04-.44-.023-.844-.44-.994-.803-.43-1.04-1.352-1.627-2.21-2.226-.175-.123-.252-.317-.514-.317zM20.84 12.911c-.582-.002-1.463-.047-2.009-.32-.213-.106-.453.149-.598.033-.422-.34-.695-.132-1.155-.221-.26-.05-.319-.32-.271-.58.04-.221.147-.29.388-.255.264.037.537.001.763.19.045.037.132.085.165.066.7-.394 1.334.05 1.99.163.219.038.49.078.71.085.04.305.029.541.017.84M16.345 13.098a.29.29 0 0 1-.287-.19c.091.02.224.09.268.053.475-.399.88.136 1.326.089.048-.005.133.051.151.099.148.38.271.547.429-.001.025-.09.265-.065.257.045-.025.379.23.27.424.285.387.028.735.25 1.13.235.163-.006.566.284.299-.274-.123-.257.332-.232.498-.262.012.268.036.535 0 .752-.371 0-.416.322-.047.31.092.16.036.333.047.501.005.075-.088.176-.196.159-.08-.014-.071-.13-.124-.186l-.188-.006c-.09-.198-.27-.21-.443-.183-.345.057-.676-.07-.853-.298-.405-.522-.993-.43-1.469-.41-.58.024-.916-.11-1.11-.637-.013-.036-.074-.054-.112-.081M7.799 21.45h.092c.37.166.583-.055.954.093-.314.442-.445.689-.745 1.139-.064.096-.286.387-.418.379-.215-.013-.31.374-.343.545-.071.376-.135.433-.417.7-.245.23-.35.542-.389.87-.038.319-.276.407-.529.436-.215.024-.177-.078-.009-.275.217-.05.297-.166.186-.376.083-.886.536-1.684 1.18-2.285.354-.33.355-.684.343-1.132.005-.058.067-.06.095-.095M11.737 37.186c-.036-.303.165-.454.405-.584.267-.144.322.147.477.233.201.112.105.255-.006.337-.456.342-.852.774-1.193 1.195-.311.384-.763.682-.946 1.151-.157.4-.679.469-.748.946-.018.125-.311.074-.465-.023-.19-.119-.169-.292-.073-.451.185-.307.411-.584.658-.846.213-.226.597-.333.553-.752-.003-.022.039-.07.055-.069.632.08.67-.522.95-.838.108-.123.391-.006.333-.299"/><path d="M22.144 7.278c.685.031 1.178.678 1.72.913.65.28.98.965 1.645 1.219.253.096.273.413.363.637.039.095-.07.38-.269.274-.26-.137-.62-.153-.744-.501-.074-.212-.2-.326-.45-.342-.307-.02-.53-.181-.728-.45-.357-.485-.987-.742-1.52-.99-.011-.26-.033-.483-.017-.76M10.175 21.543c-.626.54-.718 1.538-1.507 1.94-.297.213-.165.404-.455 1.194-.027.074.016.3-.021.359-.143.225-.302.347-.553.302-.25-.044-.294-.352-.17-.597.18-.354.421-.481.47-1.09.021-.28.509-.259.62-.593.126-.373.306-.826.636-1.073.076-.056.124-.286.025-.442a2.1 2.1 0 0 1 .955 0M9.606 17.94c-.273.313-.47.696-.877.887-.14.066-.195.242-.152.414.023.093.1.113.182.113.174 0 .238-.11.285-.26.042-.134.094-.28.186-.378.079-.082.111-.325.343-.153.154.115.313.108.275.416-.052.416-.331.718-.744.736-.335.015-.271.243-.356.5-.096.073-.037.27-.14.34H8.42c-.372-.132-.823.076-1.195-.053.286-.29.883-.449.999-.927.02-.08.134-.256.027-.353-.118-.107-.237.063-.33.113-.211.115-.3.358-.432.529-.103.134-.099.335-.247.302-.184-.041-.121-.261-.146-.402-.102-.577.41-.615.738-.759.346-.15.666-.346 1.008-.499.13-.147.237-.314.376-.452.105-.104.21-.24.388-.115M20.788 7.025c-.373-.062-.857-.283-1.273-.256-.55.035-.94.01-1.373-.19-.159-.073-.374-.024-.563-.031-.313.004-.23-.325-.381-.346-.468-.16-.394.457-.832.06-.094-.085-.109-.174-.117-.28a.55.55 0 0 1 .472-.007c.345-.072.681-.234 1.044-.09.208.128.459-.033.666.098.224.229.612-.048.852.345.128.208.44-.111.573-.35.029-.232.167-.13.284-.092.098.193.244.307.472.286.213.283.289.477.176.853M18.342 32.457c-.105.171-.22.337-.31.516-.097.19-.185.372-.446.335-.309-.043-.5-.258-.603-.51-.081-.197.118-.287.274-.392.146-.099.25-.269.346-.425.034-.056.011-.184.104-.173.732.08.593-.718.994-.982.167-.11.24-.355.496-.36.322-.005.35.297.197.566-.168.294-.076.575-.5.702-.147.044-.197.278-.367.35-.096.107-.105.258-.185.373M22.263 19.261c-.155-.41-.086-.839-.095-1.26-.005-.272.194-.13.403-.056.354.124.633.456.765.707.224.425.505.771.833 1.047.298.25.221.645.824.817-.329.124-.731-.04-1.155.028h-.09c-.224-.433-.498-.874-.859-1.202-.086-.079-.224-.193-.377-.077-.062-.001-.187-.002-.249-.004M20.812 16.133c-.312-.288-.8-.167-1.059-.563-.032-.048-.29-.178-.332-.163-.887.322-.893-.693-2.13-.472-.173.031-.438-.041-.374-.346.03-.146-.183-.337.02-.42.236-.097.576-.079.715.098.334.424.874.35 1.263.622.198.139.393.334.701.022.06-.06.248-.04.338.084.212.05.435.076.566.285.038.133.127.184.285.102.076.252.082.498.007.75M3.216 25.667c-.177.553-.448.248-.55.907-.148.956-.618.872-.712 1.472-.057.369-.128.505-.252.476-.166-.04-.305-.194-.224-.379.421-.973.764-1.989 1.455-2.822.111-.134.26-.496.383.01.018.075-.146.307-.1.336M22.226 22.78c.008-.106-.014-.221.098-.291.095-.076.19-.063.284-.001.22.1.07.298.063.486-.008.255.007.527.303.717.118.075.032.166-.056.212-.3.156-.42.275-.42.55-.002.774.163 1.677-.045 2.432-.033.119-.053.255-.223.257-.102-.56-.044-1.124-.041-1.686.005-.892-.059-1.786.037-2.677M4.416 23.535c-.058.619-.314.449-.494.836-.09.193-.307.557-.488.46-.168-.09-.12-.282-.05-.419.09-.178.22-.588.332-.755.104-.466.223-.592.574-.913.065-.06.3-.103.312-.202.095-.769.601-1.043 1.3-1.092h.09c.164.238-.312.222-.313.378l-.19.382c-.051.28-.343.125-.35.441-.031.032-.063.19-.094.221-.233.184-.618.29-.63.663M15.623 24.4c.103-.114-.115-.445.104-.476.165-.023.312.001.427.138.102.123.06.26-.008.397-.176.347-.442.46-.793.493-.293.028-.413-.102-.445-.374-.013-.116-.148-.35-.285-.302-.166.059-.073.25 0 .371.049.081.108.156.152.238.055.102.08.219-.006.31s-.192.14-.338.095c-.304-.093-.452-.36-.453-.66-.002-.372.199-.563.526-.703.43-.184.83.157 1.119.473M15.205 7.12c-.191-.011-.19-.15-.192-.287-.24-.131-.518.031-.759-.095-.014-.186.134-.05.19-.096q.428-.106.854 0c.165-.005.328.006.474.097.274.128.833.033 1.108.157.296.35.328.25.695.223.143.114.333-.016.476.092.281.077.327.274.29.531-.044.313-.294.16-.482.106-.265-.077-.562-.057-.66-.38-.01-.033-.393-.024-.5-.035-.327-.035-.597-.051-.863-.283-.24-.13-.39.092-.631-.03M13.299 28.32c-.28-.022-.4.3-.68.312-.26.01-.536.046-.627-.241-.098-.309.02-.557.39-.603.584.052.763-.057 1.24-.282.36-.17.896.147.82.472-.017.077-.015.183-.108.185-.34.008-.682.217-1.035.157M9.78 34.737c.19.007.392.006.47.227.073.204-.277.28-.4.408-.2.21-.355.27-.41.63-.057.37-.391.724-.686.966-.098.08-.181.067-.291-.023-.113-.093-.099-.225-.09-.351.017-.244.2-.441.353-.537.37-.23.402-.62.512-.946.106-.316.258-.396.542-.374M14.919 23.442c-.167.124-.466.153-.69.132-.211-.02-.284-.167-.372.137-.056.194-.329.344-.457.264-.18-.113-.327-.298-.268-.557.1-.44 1.3-1.108 1.792-.712.027.022 0 .11-.001.168.064.19.07.38-.004.568M6.847 13.19c-.325-.303-.565.076-.85.105.103-.213.251-.29.507-.304.497-.028.982-.092 1.477.05.42.12.173-.291.291-.42.109-.101.272.015.38-.094.252-.205.505.016.758-.001.368-.285-.024.12-.077.425-.079.458-.39.459-.711.462-.315.003-.556-.256-.84.05-.143.154-.451.15-.534-.025-.09-.191-.209-.259-.4-.248M26.976 29.263c-.11-.493.253-.971.233-1.51-.004-.1.07-.326.264-.247.16.064.445.048.436.286-.016.408.113.84-.333 1.227-.212.184-.054.612-.259.878-.075.098-.132.253-.282.193-.12-.049-.049-.197-.056-.299-.01-.157-.003-.316-.003-.528M20.852 8.803c-.432-.587-.878-.2-1.215-.225-.249-.017-.421.063-.47-.26-.003-.015-.018-.139-.024-.153-.1-.222-.637-.206-.356-.475.262-.25.766-.177 1.119-.017.267.121.494.235.934.212.039.327.021.595.012.918M7.96 37.222c-.372.11-.194.708-.675.802-.169.034-.107.192-.125.341-.035.295-.023.578-.232.827-.125.15-.138.338-.38.111-.167-.156-.48-.21-.163-.503.123-.115.07-.266.082-.403.01-.107.339-.46.448-.481.563-.112.242-.456.487-.825.094-.142.232-.216.407-.115.081.047.18.079.151.246M20.615 36.918c-.223.416-.461.826-.663 1.252-.12.255-.326.333-.564.351-.275.02-.145-.32-.324-.405-.032-.016-.05-.153-.033-.163.508-.307.523-1.023 1.095-1.29.2-.094.43-.158.694-.128.053.051.027.107.027.172-.003.098-.151.168-.232.21M23.26 29.892c-.05-.544.298-.847.46-1.31.057-.159.353-.197.453-.106.19.171.186.497-.007.767-.213.3-.165.567-.289.901-.094.254-.262.25-.448.212-.212-.042-.169-.292-.17-.464M10.287 11.465c-.357.033-.407-.092-.396-.28.025-.407.246-.669.54-.611.302.06.583.192.915.08.158-.054.422-.14.522.14.107.3-.142.407-.324.54-.047.034-.142.072-.173.046-.597-.49-.862-.084-1.084.085M2.079 24.964c-.12.324.21.632-.4.752-.114.022-.073.515-.367.642-.13.055-.1.388-.157.517-.06.139-.05.267-.193.22-.18-.06-.081-.528-.086-.634-.023-.563.611-.88.737-1.535.034-.175.034-.27.226-.223.12.03.294.135.24.261M12.935 38.064c.29-.046.477-.242.556-.516.092-.321.325-.539.506-.794a.33.33 0 0 1 .43-.094c.208.126-.052.226-.065.348-.034.317-.2.464-.482.634-.298.18-.32.653-.604.888-.289.238-.306.275-.441-.055-.008-.02-.047-.035-.073-.036-.242-.01-.172-.149-.134-.294.05-.188.154-.169.307-.081M11.206 40.16c.297-.423.596-.886.943-1.31.079-.097.358-.102.477.042.117.141.056.325-.052.408-.355.273-.5.722-.657 1.105-.092.225-.26.243-.448.205-.213-.044-.23-.23-.263-.45M20.831 29.315c-.438-.14-.343.53-.508.748-.168.22-.375.425-.718.211-.35-.217-.417-.616-.002-.72.603-.153.806-.963 1.224-1.288.033.356 0 .735.004 1.05M14.254 34.83c-.064.44-.073.909-.63 1.06-.17.045-.16.225-.202.348-.083.241-.254.323-.473.285-.14-.024-.354-.053-.337-.256.016-.21.1-.429.332-.5.37-.111.631-.258.683-.718.024-.21.312-.445.628-.218zM12.07 29.503c-.002-.212-.03-.394.354-.315.323.068.672-.091 1-.197.169-.054.395-.15.443.152.042.265-.017.488-.356.467-.293-.019-.757-.2-.808.008-.105.427-.654.263-.633-.115M22.833 32.237c-.467.151-.605-.096-.474-.593.115-.435.344-.813.688-1.118.077-.068.141-.06.21-.04.115.034-.009.268-.012.36-.023.546-.1.455-.162.852-.084.082-.235.413-.25.539M13.589 10.439c-.04.162-.051.312.162.36.137.032.218.095.219.256 0 .196-.457.121-.526.241-.168.29-.466.245-.84-.002-.145-.096-.205-.165-.061-.27.324-.235.594-.578 1.048-.584zM16.399 39.35c-.658.081-.397.571-.654.786-.158.133-.453-.045-.641.143-.081-.16-.304-.333-.166-.497.247-.292.535-.57.907-.708.22-.081.383.05.554.275M7.42 21.543a.24.24 0 0 1-.256.2c-.514-.042-.474.37-.517.677-.034.245.089.53-.264.549-.27.014-.365-.138-.372-.374 0-.036.052-.073.08-.11.163-.07.142-.214.142-.35.001-.15-.03-.31.14-.401l.196-.188c.284-.078.568-.073.852-.003M5.338 36.862c.225-.003.467.572.384.826-.005.015-.197.096-.207.106-.198.184.075.663-.247.595-.304-.063-.256-.442-.277-.75-.024-.37-.034-.647.347-.777M7.32 12.21c-.064-.566.251-.595.574-.634.134-.016.441.113.252-.261-.052-.102.115-.127.2-.1.15.049.342.15.252.318-.11.205-.122.312.07.465.124.1-.027.187-.11.249-.111.084-.181.262-.384.096-.234-.19-.473-.456-.853-.132M22.229 28.47a.32.32 0 0 0 .315-.238c.048-.24.097-.306.334-.243.171.046.415-.048.467.206.045.22-.238.347-.396.525-.293.333-.357.595-.53.132a1 1 0 0 1-.284-.098v-.185c.035-.03.037-.09.094-.1M14.542 28.65c-.007-.366.261-.727.524-.69a.83.83 0 0 1 .646.493c.07.154-.563.501-.882.506-.272.004-.248-.164-.288-.309"/><path d="M9.982 12.62c-.129-.403-.378-.078-.572-.094.113-.44.657-.855.977-.77.29.079.46.264.4.537-.056.256-.262.417-.57.338-.074-.019-.157-.008-.235-.01M10.868 10.155c-.226.16-.3-.268-1.024.157-.109.064-.353-.18-.325-.276.049-.166.014-.4.264-.44.093-.016.214-.06.233.13.022.207.144.14.255.05.192-.156.356-.197.595-.19q.112.284.002.569M.965 29.891c-.01-.184.025-.345.146-.412.176-.097.22-.153.08-.332-.088-.112.03-.184.162-.2.341-.039.492.301.399.63-.096.336-.336.378-.577.524-.21.125-.166-.076-.21-.21M13.59 39.441c-.066-.36.102-.552.512-.53.201.01.31-.013.382.23.056.187-.402.794-.621.81-.23.017-.27-.051-.273-.51M20.841 30.599v.949c-.178.07-.448-.073-.57.33-.08.262-.45.216-.594.075-.192-.188.214-.282.288-.406.219-.37.392-.883.876-.948M15.114 37.819c.059.17.45-.147.387.267a.73.73 0 0 1-.673.61c-.268.01-.212-.143-.247-.234-.086-.222.275-.666.533-.643M9.053 10.466c.54.04.58.102.556.612-.016.353-.227.42-.498.395-.275-.025-.394-.22-.191-.512.098-.142.022-.223.06-.387.01-.045.066-.09.024-.108l-.136-.035c-.05-.023-.131-.034-.12-.088.016-.08.017-.14.064-.182l.145-.012c.056.008.102.051.112.107zM7.736 34.28c-.005.364-.288.73-.575.733-.14.002-.161-.041-.153-.221.015-.35.336-.909.552-.893.238.017.174.205.176.382M1.266 31.47c.095-.164.063-.325.079-.48.012-.117-.079-.326.18-.28.154.028.202.07.161.29-.061.338-.071.358-.146.693-.013.058.004.435-.071.412-.039-.012-.1-.065-.095-.086.052-.206-.127-.37-.108-.55M10.28 9.02c.324-.228.486-.65.97-.573.092.015.22.001.228.122.018.242-.34.186-.394.245-.192.207-.313.479-.804.206M13.876 30.086c-.047-.352.133-.54.462-.56.171-.01.33-.132.349.197.017.31-.1.425-.36.446-.148.012-.302-.054-.454-.085zM6.848 26.186c-.011-.294-.013-.537.318-.546.242-.007.247.225.182.35-.135.263-.033.542-.384.576-.303.029-.1-.224-.116-.38M2.347 32.41c.105.34-.162.62-.236.901-.031.115.105.362-.079.297-.149-.052-.344-.275-.258-.44.137-.261.181-.615.573-.758M6.902 36.303c.046.297.03.503-.254.493-.17-.006-.283-.171-.253-.346.046-.258.193-.53.499-.522.27.008-.048.279.008.375M22.166 29.135c.14.198.235.405.149.657-.019.054-.028.152.002.175.595.475.12.797-.088 1.163-.076-.665-.139-1.33-.063-1.995M22.23 32.456c.285-.018.408.126.377.4-.026.231-.18.275-.234.501-.043.18-.095.42-.21.301-.12-.308.103-.706-.027-1.014v-.088c.032-.033.04-.087.093-.1M13.12 40.717c-.115-.019-.272.03-.246-.148.033-.224.144-.436.373-.493.17-.043.313.112.319.273.01.298-.258.304-.445.368M24.458 33.99c-.089-.193-.002-.382.05-.509.072-.178.182-.33.396-.347.06-.005.145.015.132.097-.03.185-.127.313-.3.429-.103.069-.15.254-.278.33M19.488 20.46c-.03-.2-.246-.18-.341.039 0-.493.35-.918.804-.663q.084.094 0 .19c-.158.097-.397.247-.463.435M2.83 23.758c.002.237-.084.28-.198.441-.093.133-.245.164-.335.087-.164-.141-.072-.271.028-.342.164-.138.244-.343.505-.186M20.815 35.27c.196.301-.012.69.032 1.007-.663-.188-.547-.833-.032-1.007M7.779 36.28c.026-.192.043-.434.323-.468.099-.011.074.1.036.21-.07.205-.099.417-.302.485-.124.041-.095-.113-.057-.227M6.574 37.36c.002-.014-.04.102-.17.093-.128-.01-.174-.094-.154-.243.015-.115.089-.194.223-.19.14.004.127.081.101.34M20.84 9.522v.585c-.385-.152-.373-.48 0-.585M14.254 18.128c.498-.361 1.03-.057 1.546-.072 1.084-.034 1.998.627 2.995.918a.8.8 0 0 1 .459.402c.083.165.106.406-.192.485-.402.105-.783.164-1.037-.273-.058-.242-.197-.52-.305-.092-.028.113-.223.076-.297-.017-.771-.973-.981-.411-1.505-.49-.26-.038-.52-.137-.804.058-.377.258-.86-.371-.859-.921zM20.813 17.014l-.001.661c-.628-.422-.576-.296-.895-.117-.21.119-.463-.09-.506-.285-.122-.567-.528-.644-.987-.663-.21-.01-.38-.008-.495-.258-.053-.118-.306-.18-.476-.201-.439-.053-.81-.155-.758-.798-.3-.042-.053.643-.923.177-.188-.114.163-.604.667-.437.9.072 1.891.597 2.562 1.103.51.386 1.076.03 1.467.562.055.074.165.29.345.256"/><path d="M14.255 18.126c-.191 0-.38.14-.373.398.004.176-.046.41-.277.46-.513.112-1.079.02-1.412.654-.078.148-.385.202-.56.128-.236-.1-.113-.425-.203-.639-.032-.074.064-.127.151-.141.563-.09.943-.538 1.44-.746.385-.16.789-.462 1.233-.112zM5.398 20.51c-.201-.023-.47.001-.45-.39.015-.306-.014-.59.478-.372.344.153.645.062.668-.48.007-.16.05-.317.236-.37.202-.058.334.064.44.202.12.154.092.298-.028.466-.252.354-.636.483-1 .65-.114.052-.32.025-.344.295M10.713 20.524c-.566.124-.797-.07-1.301-.025-.009-.177-.01-.443.198-.526.43-.17.84-.409 1.333-.328.123.02.27-.003.318.143.048.144-.234.14-.303.214-.077.083-.246.402-.245.522M10.487 18.88c-.166-.069-.363-.148-.21-.261.38-.28.412-.828.944-1.025.423-.157.288.204.265.25-.143.287-.13.681-.541.735-.216.028-.384.104-.458.3M15.772 14.607c.245-.16.376-.312.071-.501-.09-.056-.064-.229.028-.215.257.037.528-.037.688.158.163.199.282.51.221.793-.02.094-.129.171-.218.1-.217-.176-.517-.122-.79-.335M15.419 14.425c-.16-.001-.313-.006-.297-.209.017-.21.218-.197.35-.237.17-.051.202.083.203.22.001.187-.11.236-.256.226"/><path d="M6.196 14.964c-.01.101.016.19.134.207.124.016.217-.023.222-.168.003-.109-.044-.178-.193-.189-.07.002-.152.033-.163.15m.176-1.192q-.168.003-.176.17c-.003.141.076.198.206.187.116-.01.156-.086.152-.193-.005-.117-.072-.165-.182-.164m9.973-.674q-.01.897-.852.537c-.543-.233-1.07.026-1.606.042-.06.002-.414.025-.439.003-.16-.142-.359-.3-.359-.3-.172-.006-.221.18-.397.224-.311.076-.85.116-1.145-.054-.123-.07-.005.08-.102.17-.134.127-.32.186-.485.13-.413-.14-.9.147-.967.304-.305.718-.908.238-1.253.422-.53.282-.695-.058-.993-.26-.153-.105-.359-.144-.46.044-.123.23-.266.512-.086.755.112.15.164.002.306-.145.07-.072.203-.182.317-.097.12.091.19.134.089.249-.02.022-.131.368-.131.396-.001.148-.082.158.09.283.153.11.449-.018.474-.077.177-.428.565-.368.878-.383.46-.021.765-.337 1.146-.52.111.179-.024.318-.017.469.017.353-.438.5-.723.358-.403-.202-.477.167-.55.633-.192-.193-.536-.633-.596-.048-.002.03-.055.059-.073.054-.537-.147-.612.446-.963.602-.266.119-.257.444-.095.554.305.207.298.484.35.772.023.121.128.25-.056.31-.218.071-.44.21-.673.115-.156-.064-.144-.233-.092-.375.062-.17.023-.472-.166-.586-.24-.146-.167.25-.28.35-.078.067-.104.22-.25.159-.134-.056-.102-.19-.091-.292.037-.346.263-.653.186-1.037-.015-.074.326-.096.473-.238.175-.171.361-.318.264-.595-.048-.14-.167-.198-.304-.147-.259.095-.81.134-.803.555.004.269.055.753-.004.895-.23.556-.055.877-.117 1.428 0 0-.91.787-1.148.79-.235.004-.468-.011-.365.349.073.253-.356.291-.28.59-.082.067-.18.037-.271.049-.297.036-.498-.107-.44-.474.016-.102-.052-.176-.14-.226-.169-.092-.387-.167-.37-.396.016-.226.21-.358.414-.389.298-.044.274-.345.444-.483-.24-.147.002-.595-.4-.645-.019-.002-.014-.05.007-.08-.011-.23.083-.454.308-.44.234.014.548.012.64.345.102.297.137.58.005.911-.066.166-.047.46.215.527.223.057.42-.033.544-.306.133-.289.26-.507-.017-.783-.097-.096-.104-.297.01-.443.062-.128.152-.251.176-.386.032-.178.09-.395-.112-.517-.212-.128-.259.103-.36.2-.141.139-.325.198-.47.086-.174-.135.008-.272.077-.404.127-.242.305-.486-.007-.73-.068-.055-.07-.158.012-.203.4-.216.455-.648.659-1.046.056.37.321.603.4.926.04.17.106.312.324.204.207-.102.193-.272.115-.44-.038-.082-.12-.147-.19-.21-.322-.282-.318-.516.11-.682-.424-.45-.367-.646.318-1.156.332-.3.581-.332.85-.105-.15.146-.27.406-.035.45.452.087.797.594 1.332.34.078-.036.22-.054.274-.01.02.582.943-.093 1.228-.37.479-.464 1.022-.61 1.628-.682.045-.006.114-.006.136.02.541.674.627-.126 1.494.053.056.011.292-.192.402-.174.729.117 1.424-.117 2.135-.19.25-.025.52-.054.616.28.087.078.201.113.287.19M22.167 14.722c.41.478.965.917 1.446 1.244.063.043.317.165.338.215.271.64 1.24.513 1.367 1.332.021.137.317.218.463.284.647.288.636.982.956 1.49.228.361.833.633.745 1.248-.747.088-.644-.137-.905-.778-.095-.231-.395-.323-.553-.49-.535-.56-.7-1.328-1.291-1.847-.222-.195-.67-.212-.904-.357-.301-.186-.654-.343-.565-.812.025-.13-.054-.209-.195-.203-.722.027-.913-.105-.904-.859.005-.42 0-.842 0-1.26.789.155 1.346.74 1.975 1.079.538.29.94.954 1.652.88.154-.016.398.235.419.325.123.538.677.717.88 1.18.23.527.41.8.76 1.146.332.328.565.253.641.777.011.075.018.159.057.22.084.13.306.23.07.408-.198.148-.419.239-.645.072-.348-.255-.179-.393-.37-.752-.242-.46-.476-.916-.852-1.312-.36-.381-.747-.91-1.133-1.26-.45-.408-.945-.675-1.506-.973-.45-.238-.966-.352-1.356-.716-.069-.065-.416-.372-.59-.281M28.875 16.23c-.007-.062.007-.16-.025-.18a2.47 2.47 0 0 1-.968-1.035c-.032-.063-.159-.078-.241-.114-.073-.782-.687-1.053-1.281-1.318-.247-.11-.44-.228-.519-.495-.017-.058-.049-.148-.087-.156-.539-.108-.814-.663-1.341-.784-.206-.373-.545-.532-.95-.562-.236-.018-.396-.092-.523-.318-.142-.251-.498-.368-.8-.556-.025-.051-.026-.171.063-.176.323-.017.861.28 1.089.384.708.323 1.365.759 2.045 1.146.066.038.143.055.216.081.482.054.677.51.89.804.352.49.898.735 1.25 1.204.132.175.112.578.518.46.071.366.411.543.623.795.318.379.74.914 1.088 1.278.126.132.033.533.094.933.062.409.292.56.014.724-.32-.647-.777-1.666-1.155-2.116M23.178 12.718c-.276-.225-.548-.456-.831-.672-.165-.125-.22-.278-.158-.424.067-.157.225.158.444.208.665.152.887.65 1.435.909-.323.319-.597-.065-.89-.02zM3.945 21.95a.22.22 0 0 1-.102.238 1.3 1.3 0 0 0-.475.552c-.064.138-.113.4-.291.333-.193-.073-.208-.21-.22-.316-.006-.045.161-.078.193-.265.061-.263.508-.736.866-.96 0 .17.004.319.03.418M2.403 22.246c-.039-.015-.187-.246-.175-.285.045-.15.095-.394.26-.493.026-.015.308.04.35.054-.11.145-.191.477-.253.636-.008.022-.182.088-.182.088"/><path d="M12.68 14.534c-.045-.029-.097.023-.068.067.063.094-.271-.021-.282.122s-.249.493-.013.533c.235.04.119-.242.27-.208.153.033.377.182.386.076s-.099-.11-.04-.251c.058-.141.131-.085-.04-.198zm-3.073 3.307c-.391.006-.384.547-.764.567-.008-.166.005-.328.095-.474.021-.03.008-.083.046-.098.072-.03.197-.186.063-.222-.108-.03-.122.148-.11.223-.24.174-.425-.01-.513-.16-.157-.268-.024-.554.126-.796.067-.108.214-.165.233-.33.208.14.236.32.225.535.4-.345.537-.364 1.014-.176.105-.098.063-.237.079-.352.047-.362.232-.573.598-.586.469-.017.798-.315 1.159-.55.102-.065.227-.148.165-.3-.048-.119-.17-.121-.283-.132-.2-.02-.367.068-.54.147-.217.099-.42.022-.56-.134-.175-.197.088-.245.164-.359.07-.104.122-.22.186-.329.14-.238.512-.389.593-.237.384.72.676.064 1.003.117.042.007.098 0 .133-.022.139-.092.111-.349.401-.312.514.067.987.263 1.479.393.152.04.034.194-.059.24-.152.077-.366.211-.25.407.094.158.31.11.478.032.225-.104.424.08.646.071.144-.006.165.116.166.236.001.128-.05.199-.186.225-.423.082-.837.003-1.253-.056-.185-.026-.415-.166-.377.228.027.276-.227.206-.383.205-.806-.009-1.355.625-2.124.704.016.04-.006.085-.018.06-.062-.13.16-.303-.014-.384-.175-.083-.318.1-.43.207-.119.113-.243.287-.249.439-.018.45-.457.598-.613.943-.072.16-.21.087-.326.03"/></g></g></svg>