<svg xmlns="http://www.w3.org/2000/svg" xmlns:xlink="http://www.w3.org/1999/xlink" width="150" height="43" viewBox="0 0 150 43"><defs><style>.cls-1{fill:#fff;}.cls-1,.cls-2,.cls-7{fill-rule:evenodd;}.cls-2,.cls-5{fill:#42505e;}.cls-3{mask:url(#mask);}.cls-4{fill:#0d95b4;}.cls-6{fill:#1a8799;}.cls-7{fill:#d5dbe5;}</style><mask id="mask" x="129.03" y="6.31" width="20.94" height="30.33" maskUnits="userSpaceOnUse"><g id="mask-2"><polygon id="path-1" class="cls-1" points="129.03 6.31 149.97 6.31 149.97 36.63 129.03 36.63 129.03 6.31"/></g></mask></defs><title>zeva-logo</title><g id="Layer_1" data-name="Layer 1"><path id="Fill-1" class="cls-2" d="M116,27.46c.89-2.93,1.75-5.74,2.61-8.55l3.26-10.73a1.92,1.92,0,0,1,1.89-1.39,16.69,16.69,0,0,1,2.45,0,1.63,1.63,0,0,1,1.61,2A26.25,26.25,0,0,1,126.58,13c-2.29,7.14-4.62,14.27-6.9,21.41a2.34,2.34,0,0,1-2.19,1.82,15.85,15.85,0,0,1-3.51-.06,2.29,2.29,0,0,1-2-1.68q-3.07-9.59-6.17-19.17-.85-2.65-1.7-5.31a6.92,6.92,0,0,1-.31-1.25,1.52,1.52,0,0,1,1.41-1.9,10.86,10.86,0,0,1,3.17,0,2,2,0,0,1,1.68,1.59c.89,2.92,1.79,5.83,2.68,8.74q1.53,4.93,3,9.87l.16.42"/><path id="Fill-3" class="cls-2" d="M76.34,30.49c1.34,0,1.86.39,2.1,1.71A5.48,5.48,0,0,1,78.28,35a1.45,1.45,0,0,1-1.54,1.11q-7.2,0-14.4,0a2,2,0,0,1-2-1.82,7.62,7.62,0,0,1,1-5.08c3.14-5.32,6.21-10.67,9.31-16l.27-.49c-.16-.16-.33-.08-.48-.08H62.54a1.63,1.63,0,0,1-1.79-1.4,6,6,0,0,1,0-2.92A1.53,1.53,0,0,1,62.43,7H75.6A2,2,0,0,1,77.83,9.1a8.2,8.2,0,0,1-1.14,5c-3.1,5.27-6.13,10.58-9.19,15.87-.09.16-.17.32-.29.56Z"/><path id="Fill-5" class="cls-2" d="M96.37,18.32c.53,0,.63-.17.57-.63a10.57,10.57,0,0,0-.61-2.77,5,5,0,0,0-7.83-2.11,7.52,7.52,0,0,0-2.56,5c-.07.41,0,.47.41.46h5c1.66,0,3.32,0,5,0m-3,5.06c-2.35,0-4.7,0-7,0-.43,0-.55.11-.51.53a13.89,13.89,0,0,0,.67,3.43,5.54,5.54,0,0,0,5,3.74,13.49,13.49,0,0,0,7.36-1.41,8.26,8.26,0,0,1,1-.44,1.44,1.44,0,0,1,2,1.15,7.1,7.1,0,0,1,0,2.83,2.2,2.2,0,0,1-1.2,1.52,15.91,15.91,0,0,1-5,1.64,16.7,16.7,0,0,1-7.54-.2,10.15,10.15,0,0,1-7.27-6.8,22.23,22.23,0,0,1,.2-15.6,10.65,10.65,0,0,1,8.39-7.08c3.63-.64,7-.09,9.84,2.55A11.65,11.65,0,0,1,102.63,16a17.6,17.6,0,0,1,.24,5.32,2.32,2.32,0,0,1-2.41,2.1h-7"/><g id="Group-9"><g class="cls-3"><path id="Fill-7" class="cls-2" d="M144.08,23.82c0-.34-.1-.45-.45-.44-.89,0-1.78,0-2.67,0a12.36,12.36,0,0,0-3,.42c-3,.9-3.3,3.7-2.47,5.66.63,1.49,2.4,2.13,4.29,1.68A7.44,7.44,0,0,0,143.08,29a2.56,2.56,0,0,0,1-2.43,4.7,4.7,0,0,1,0-.84c0-.63,0-1.26,0-1.9m.53,10.2A10.35,10.35,0,0,1,141.44,36a9.59,9.59,0,0,1-9.5-1.32,7.82,7.82,0,0,1-2.87-5.84c-.24-3.1.53-5.85,3-7.89A12.32,12.32,0,0,1,138,18.55a30.77,30.77,0,0,1,5.51-.23c.48,0,.59-.14.58-.6a14,14,0,0,0-.32-3.16,3.24,3.24,0,0,0-2.57-2.5,8.91,8.91,0,0,0-5.95.85c-.77.37-1.5.82-2.23,1.26-1.38.83-2.56.23-2.77-1.37a7.88,7.88,0,0,1,0-2,2.74,2.74,0,0,1,1.22-1.86,14,14,0,0,1,5.45-2.3,14.68,14.68,0,0,1,6.69.11c3.48.88,5.4,3.22,6,6.69a18.88,18.88,0,0,1,.3,3.44v17.4a1.64,1.64,0,0,1-1.53,1.9,6.29,6.29,0,0,1-2.33,0,1.55,1.55,0,0,1-1.48-1.76c0-.09,0-.18,0-.39"/></g></g></g><g id="Layer_2" data-name="Layer 2"><rect class="cls-4" x="41.37" y="6.61" width="14.21" height="14.21" rx="1.75"/><rect class="cls-5" x="22.18" y="3" width="17.82" height="17.82" rx="1.75"/><rect class="cls-6" width="20.82" height="20.82" rx="1.75"/><rect class="cls-5" x="41.37" y="22.18" width="14.21" height="14.21" rx="1.75"/><rect class="cls-4" x="22.18" y="22.18" width="17.82" height="17.82" rx="1.75"/><rect class="cls-5" y="22.18" width="20.82" height="20.82" rx="1.75"/><polygon class="cls-7" points="13.54 10.67 13.53 10.67 13.53 10.67 13.54 10.67"/><polygon class="cls-7" points="13.54 10.67 13.54 10.67 13.53 10.67 13.54 10.67"/><path class="cls-7" d="M12.54,11.53c.38.25.68.3.85,0,.07-.12.53,0,.53-.25s-.08-.22-.22-.25-.21-.2-.17-.37c-.45,0-.73.35-1,.59C12.33,11.37,12.39,11.44,12.54,11.53Z"/><path class="cls-7" d="M9.75,10.54c.73-.43.81,0,1-.16a.71.71,0,0,0,0-.57.78.78,0,0,0-.6.19c-.11.09-.23.16-.26-.05s-.14-.15-.23-.13c-.25,0-.22.28-.27.44S9.64,10.61,9.75,10.54Z"/><path class="cls-7" d="M15,7c0,.14,0,.28.2.29s.39-.1.63,0a1.4,1.4,0,0,0,.88.28,3,3,0,0,1,.5,0c.1.33.4.31.67.38s.44.21.49-.1,0-.46-.3-.54-.33,0-.48-.09c-.37,0-.4.13-.7-.23-.28-.12-.84,0-1.12-.16a.89.89,0,0,0-.48-.1,1.79,1.79,0,0,0-.86,0c-.06,0-.21-.09-.19.1C14.45,7.06,14.73,6.89,15,7Z"/><path class="cls-7" d="M12.87,7.6c-.15.11-.39,0-.49.19h0c-.06.11,0,.14.1.2s.29.08.44.09c.67,0,.85-.1.94,0s.35.26.83.28c.14.11.33,0,.47.1a.42.42,0,0,0,.55.23,1.41,1.41,0,0,1,1.8,1c.08.22.23.27.36.19.58-.34,1.4,0,2,.49.1.07.16.07.24,0s.37-.28.23-.49-.15-.72-.63-.64A2.56,2.56,0,0,1,18,8.75a2.36,2.36,0,0,0-1.34-.49,1.5,1.5,0,0,1-.77-.17c-.18-.13-.4,0-.58-.1l-.38-.2c-.25-.12-.53,0-.77-.09A4.28,4.28,0,0,1,12.87,7.6Z"/><path class="cls-7" d="M11.32,9.72c-.17.11-.41.36-.18.65a.39.39,0,0,0,.65,0,.35.35,0,0,1,.51,0,.69.69,0,0,0,.8.12c.3-.23.34,0,.43.16.27,0,.35-.08.37-.32s-.07-.24-.27-.29-.48-.1-.51-.28.27-.32.39-.44.34,0,.48.18a.36.36,0,0,0,.42.14,1.56,1.56,0,0,1,.8,0c.48.09,1,.14,1.46.2A.26.26,0,0,0,17,9.67c0-.13,0-.23-.16-.25-.49-.08-.93-.38-1.37-.47a1.82,1.82,0,0,0-1.84.3c0-.74-.4-.69-1.22-.22-.13-.11.2-.29,0-.35s-.35-.15-.55,0-.25.2-.19.35C11.78,9.36,11.61,9.52,11.32,9.72Z"/><path class="cls-7" d="M9.44,12.75c.17-.06.35-.2.45.13a1,1,0,0,1,.24,0,.43.43,0,0,0,.57-.35c.06-.27-.11-.46-.4-.54s-.88.33-1,.78C9.48,12.65,9.49,12.67,9.44,12.75Z"/><path class="cls-7" d="M20.82,10.31V9.77C20.51,9.88,20.5,10.15,20.82,10.31Z"/><path class="cls-7" d="M16.43,13.44c.2.53.54.67,1.12.64A1.56,1.56,0,0,1,19,14.5a.9.9,0,0,0,.86.3.37.37,0,0,1,.45.18h.19c.05.06,0,.17.12.19a.3.3,0,0,0,.16,0V14.5c-.3,0-.31-.27,0-.29v-.77c-.19,0-.58,0-.46.26.27.57-.14.27-.3.28-.4,0-.75-.21-1.15-.24-.19,0-.45.1-.42-.29,0-.11-.24-.13-.26,0-.16.55-.29.38-.44,0a.18.18,0,0,0-.15-.1c-.45,0-.86-.49-1.34-.09,0,0-.18,0-.27-.05h0c.09.07.2.11.29.19S16.42,13.4,16.43,13.44Z"/><path class="cls-7" d="M18.14,20.65c-.8-.12-.58-.27-.88-.39a7.68,7.68,0,0,0-3.2-.2c-.39,0-.51-.32-.9,0a2.83,2.83,0,0,1-1.18.42c-.18,0-.16.22-.17.34h2.1c-.07-.46.25-.38.38,0h1.09c0-.42.4-.19.51,0H18A.19.19,0,0,0,18.14,20.65Z"/><path class="cls-7" d="M17.75,6.07a1.72,1.72,0,0,0-1.05.09.58.58,0,0,0-.48,0,.37.37,0,0,0,.12.28c.44.4.37-.22.84-.06.15,0,.07.35.39.35a1.71,1.71,0,0,1,.56,0A2.64,2.64,0,0,0,19.52,7a3.73,3.73,0,0,1,1.3.28v-.9a.62.62,0,0,1-.67-.27c-.11,0-.25-.14-.28.09s-.45.57-.58.36c-.24-.4-.64-.12-.86-.35S18,6.2,17.75,6.07Z"/><path class="cls-7" d="M9,11.72c.27,0,.49-.05.5-.4,0-.52,0-.58-.56-.62l0-.21a.14.14,0,0,0-.12-.11H8.71c-.05,0-.05.1-.07.18s.07.07.12.09l.14,0s0,.06,0,.11,0,.25-.06.39C8.61,11.49,8.73,11.69,9,11.72Z"/><path class="cls-7" d="M4.12,20.23c-.1-.37.14-.35.37-.35a5.13,5.13,0,0,0,1.16-.8c.07-.56-.11-.88.12-1.45a3.83,3.83,0,0,0,0-.9c0-.43.55-.47.82-.56a.21.21,0,0,1,.3.15c.1.28-.09.43-.26.6s-.5.16-.48.24c.08.39-.15.7-.19,1.05,0,.1,0,.24.09.29s.18-.09.25-.16,0-.5.29-.35a.54.54,0,0,1,.17.59c-.06.14-.07.31.09.38s.46-.05.68-.12.08-.19.06-.31c-.06-.29,0-.57-.36-.78a.33.33,0,0,1,.1-.56c.35-.16.43-.76,1-.61,0,0,.07,0,.08,0,.06-.6.4-.15.6,0,.07-.47.15-.84.55-.64s.75,0,.73-.36c0-.15.13-.29,0-.47-.38.18-.69.5-1.16.52-.31,0-.7,0-.88.39a.45.45,0,0,1-.48.08c-.18-.13-.1-.14-.09-.29a3.1,3.1,0,0,1,.13-.4c.1-.11,0-.16-.09-.25s-.25,0-.32.1-.2.3-.31.15,0-.53.09-.77.31-.15.46,0c.3.2.47.55,1,.26.35-.18,1,.3,1.27-.43a1,1,0,0,1,1-.3.54.54,0,0,0,.49-.13c.1-.1,0-.25.1-.18a1.77,1.77,0,0,0,1.16.06c.17,0,.22-.23.4-.23,0,0,.2.16.36.31a3.52,3.52,0,0,0,.45,0c.54,0,1.07-.27,1.62,0s.85.06.86-.54a.3.3,0,0,1-.29-.19h0c-.1-.34-.37-.31-.62-.29a7.84,7.84,0,0,1-2.16.19c-.11,0-.35.19-.41.18-.87-.18-1,.63-1.51-.05,0,0-.09,0-.13,0a2.64,2.64,0,0,0-1.65.68c-.29.28-1.22,1-1.24.38-.05-.05-.2,0-.28,0-.54.26-.89-.26-1.34-.34-.24-.05-.12-.31,0-.46a.39.39,0,0,1,.41.25c.08.18.39.18.54,0,.28-.31.53-.05.84-.05s.64,0,.72-.47a1.8,1.8,0,0,1,.21-.46.31.31,0,0,1-.13,0c-.25,0-.51-.21-.77,0-.1.11-.27,0-.38.1s.13.54-.29.42a4.44,4.44,0,0,0-1.5-.05.52.52,0,0,0-.51.31h0c.27-.25.49-.31.71-.2-.26-.09-.47.17-.71.2-.69.51-.75.71-.32,1.17-.43.16-.43.4-.11.69a.64.64,0,0,1,.19.21c.08.17.1.34-.11.44s-.29,0-.33-.2c-.08-.33-.35-.57-.41-.94-.2.4-.26.84-.66,1.06a.12.12,0,0,0,0,.2c.31.25.13.49,0,.74s-.25.27-.07.41a.36.36,0,0,0,.47-.09c.1-.1.15-.33.36-.2s.15.34.12.52A2,2,0,0,1,4.8,18a.36.36,0,0,0,0,.45c.28.28.15.5,0,.79a.45.45,0,0,1-.55.31A.38.38,0,0,1,4,19a1.27,1.27,0,0,0,0-.92c-.1-.34-.42-.34-.65-.35s-.32.21-.31.44c0,0,0,.08,0,.08.41.05.16.51.4.65-.17.14-.14.45-.44.49a.45.45,0,0,0-.42.4c0,.23.2.3.37.4H3c.09,0,.16.12.14.22a.44.44,0,0,0,.13.43h.6C3.82,20.55,4.19,20.47,4.12,20.23ZM6.24,14c.11,0,.18.05.18.16s0,.19-.15.2a.17.17,0,0,1-.21-.19A.17.17,0,0,1,6.24,14Zm0,1.05c.15,0,.2.08.19.19s-.1.19-.22.17-.15-.1-.14-.21A.16.16,0,0,1,6.23,15.09Z"/><path class="cls-7" d="M20,20.36a.12.12,0,0,0,0-.19c-.45-.26-.79.15-.81.64a2.2,2.2,0,0,0,.37-.06A1.26,1.26,0,0,1,20,20.36Z"/><path class="cls-7" d="M20.54,15.56c-.13-.21-.36-.23-.57-.28a.27.27,0,0,0-.35-.09c-.31.31-.5.12-.7,0-.4-.28-.94-.2-1.28-.63a.66.66,0,0,0-.72-.1c-.21.08,0,.28,0,.42-.07.31.2.39.38.35,1.25-.22,1.25.81,2.15.48a.8.8,0,0,1,.33.17c.25.38.74.34,1.06.59v-.79C20.69,15.7,20.57,15.68,20.54,15.56Z"/><path class="cls-7" d="M7.13,20.82H8.55c0-.09,0-.21.09-.27.09-.26,0-.49.36-.51a.77.77,0,0,0,.75-.74c0-.31-.12-.3-.27-.42s-.27.07-.35.16a.91.91,0,0,0-.19.38c0,.15-.11.26-.29.26s-.16,0-.18-.11a.35.35,0,0,1,.15-.42c.41-.2.61-.58.89-.9a.27.27,0,0,0-.13-.05c-.22.1-.31.37-.52.47l-.12.15c-.35.16-.67.35-1,.51s-.85.18-.75.76c0,.15,0,.37.15.41s.15-.17.25-.31.22-.41.44-.53.21-.22.33-.11,0,.27,0,.35C8,20.37,7.43,20.54,7.13,20.82Z"/><path class="cls-7" d="M10.19,18.94c-.16.11,0,.19.21.26a.49.49,0,0,1,.46-.3c.42-.06.4-.46.55-.75,0,0,.16-.41-.27-.25S10.57,18.65,10.19,18.94Z"/><path class="cls-7" d="M9.38,18.2a.25.25,0,0,1,.13-.05c.12.06.26.13.33,0,.16-.35.6-.5.62-.95a.69.69,0,0,1,.25-.44c.11-.11.26-.3.43-.21s0,.25,0,.38,0,0,0-.06c.77-.08,1.33-.72,2.14-.71.16,0,.42.07.39-.21s.19-.25.38-.23a3.87,3.87,0,0,0,1.27.06.21.21,0,0,0,.19-.23c0-.12,0-.24-.17-.23s-.43-.18-.66-.08-.38.13-.48,0,.1-.33.25-.41.22-.2.06-.24a12.08,12.08,0,0,0-1.49-.4c-.29,0-.27.22-.41.32a.27.27,0,0,1-.13,0c-.33-.06-.63.61-1-.12-.09-.15-.46,0-.6.24s-.12.23-.19.33-.34.17-.17.36a.47.47,0,0,0,.57.14,1,1,0,0,1,.54-.15c.12,0,.24,0,.29.13s-.06.24-.17.31a2.27,2.27,0,0,1-1.17.55.59.59,0,0,0-.6.59c0,.12,0,.26-.08.36a.77.77,0,0,0-1,.18.53.53,0,0,0-.22-.54c0,.17-.17.22-.24.33a.78.78,0,0,0-.13.81c.09.15.28.33.52.16,0-.08,0-.26.11-.23s0,.2-.06.23,0,.06-.05.1a.79.79,0,0,0-.09.48.45.45,0,0,0,.12-.06,2.43,2.43,0,0,1,.26-.3A.38.38,0,0,1,9.38,18.2ZM12.26,15c0-.14.35,0,.29-.12s0-.1.06-.07l.22.14c.17.12.1.06,0,.2s.05.15,0,.26-.23-.05-.39-.08,0,.25-.27.21S12.25,15.14,12.26,15Z"/><path class="cls-7" d="M10.88,20.33c.06-.07.35-.07.3-.21S11,20,10.86,20a2.47,2.47,0,0,0-1.35.34c-.2.08-.21.33-.2.51h1.33A1.25,1.25,0,0,1,10.88,20.33Z"/><path class="cls-7" d="M20.82,19.06v0c-.2,0-.26-.25-.43-.28A3.07,3.07,0,0,1,19.15,18a2.88,2.88,0,0,0-.88-.47A5.79,5.79,0,0,1,17,17c-.32-.15-.66-.44-1.07-.37a3.81,3.81,0,0,1-1.61.08c-.36-.1-.62.21-1,.2a1.28,1.28,0,0,0-1,.4.51.51,0,0,1-.28.17c-.13,0-.38-.08-.36.17a.58.58,0,0,0,.44.46,1.64,1.64,0,0,0,1.32-.8c.07-.18.16-.11.24,0s.06.23,0,.36-.06.32.1.37a.63.63,0,0,0,.45,0c.16-.09.07-.25,0-.37s-.07-.3-.07-.46.14-.22.29-.22.27,0,.26.23c0,.43.22.55.62.45a1.79,1.79,0,0,1,1.34.28,3.54,3.54,0,0,0,1.22.45,1.91,1.91,0,0,1,1.12.5,2.58,2.58,0,0,0,1.08.47.58.58,0,0,0,.48.56A1.78,1.78,0,0,0,20.82,19.06Z"/><path class="cls-7" d="M19.26,19.7a.8.8,0,0,0-.47-.4c-1-.3-1.93-1-3-.93-.52,0-1.06-.29-1.56.07,0,.56.48,1.19.86.93a1,1,0,0,1,.82-.06c.53.08.74-.49,1.52.5.07.09.27.13.3,0,.11-.43.25-.15.31.1.25.44.64.38,1,.27S19.34,19.87,19.26,19.7Z"/><path class="cls-7" d="M5.6,20.55a2.28,2.28,0,0,0,1-.66.35.35,0,0,0,0-.47.39.39,0,0,0-.44-.2c-.19.05-.23.21-.24.37,0,.55-.33.64-.68.49s-.46.06-.48.37.06.32.13.37h.35C5.33,20.63,5.5,20.6,5.6,20.55Z"/><path class="cls-7" d="M13,18.55c-.5.21-.89.67-1.46.76-.08,0-.18.07-.15.14.09.22,0,.55.21.65a.51.51,0,0,0,.56-.13c.34-.64.91-.55,1.43-.66a.43.43,0,0,0,.28-.47.37.37,0,0,1,.37-.4C13.76,18.09,13.35,18.39,13,18.55Z"/><polygon class="cls-7" points="14.21 18.44 14.21 18.44 14.2 18.44 14.21 18.44 14.21 18.44 14.21 18.44 14.21 18.44 14.21 18.44"/><path class="cls-7" d="M20.49,17.06c-.4-.54-1-.18-1.49-.57a5.51,5.51,0,0,0-2.59-1.12c-.51-.17-.86.33-.67.45.88.47.63-.23.93-.18-.05.65.32.75.77.8.17,0,.43.09.48.21s.29.25.5.26c.46,0,.87.09,1,.67,0,.19.3.4.51.29s.3-.25.89.14v-.7A.59.59,0,0,1,20.49,17.06Z"/><path class="cls-7" d="M17.59,11.07c.1-.05.17-.06.25,0s.48.13.73.18.76-.13,1,.1a1.67,1.67,0,0,0,1.21.45v-.63c-.73-.35-1.66-.5-2.41-.78-.15-.05-.38-.16-.58.06s-.27.1-.43,0a.88.88,0,0,0-1-.17c-.17.1-.16.21-.33,0s-.56-.16-.83,0-.36.21-.22.38a.66.66,0,0,0,.75.27.8.8,0,0,1,.82.13A1.09,1.09,0,0,0,17.59,11.07Z"/><path class="cls-7" d="M10.2,11.71c.22-.17.49-.58,1.09-.09,0,0,.13,0,.18,0s.43-.25.33-.55-.37-.2-.53-.14a1.72,1.72,0,0,1-.93-.08c-.29-.06-.52.2-.54.62C9.79,11.62,9.84,11.74,10.2,11.71Z"/><path class="cls-7" d="M11.38,12.65a.44.44,0,0,0,.32,0,6.34,6.34,0,0,1,1.68-.08,1.07,1.07,0,0,0,.9-.35c.21-.27.94-.19,1.41-.05.23.07.55.12.67-.14s.25-.22.05-.35-.49-.48-.75-.23-.38.11-.57-.07S14,11.21,14,11.46s-.15.33-.4.39-.57,0-.8.24A.29.29,0,0,1,12.4,12c-.35-.52-.7-.37-1.1,0-.14.12-.38.2-.37.39S11.22,12.56,11.38,12.65Z"/><path class="cls-7" d="M11.17,8.66c-.49-.08-.65.35-1,.58.5.27.62,0,.81-.21.06-.06.42,0,.4-.25S11.26,8.67,11.17,8.66Z"/><path class="cls-7" d="M17.06,12.66c.46.09.74-.13,1.17.22.14.12.39-.14.6,0a5.17,5.17,0,0,0,2,.32v-.85c-.22,0-.48-.05-.69-.08-.67-.12-1.31-.57-2-.17,0,0-.13,0-.17-.07a1.38,1.38,0,0,0-.77-.19c-.25,0-.35,0-.39.26S16.8,12.6,17.06,12.66Z"/><path class="cls-7" d="M15.44,14.25c-.14,0-.34,0-.36.24s.14.21.3.21.26,0,.26-.23S15.61,14.2,15.44,14.25Z"/><path class="cls-7" d="M19.92,7.88a1.09,1.09,0,0,0-1.13,0c-.29.27.26.26.36.48,0,0,0,.14,0,.16,0,.32.22.24.48.26s.75-.33,1.17.17V8.09A1.9,1.9,0,0,1,19.92,7.88Z"/><path class="cls-7" d="M15.74,14.88c.28.22.58.16.8.34a.14.14,0,0,0,.22-.1,1,1,0,0,0-.22-.8c-.17-.2-.44-.12-.7-.16-.09,0-.12.16,0,.22C16.12,14.57,16,14.72,15.74,14.88Z"/><path class="cls-7" d="M7.78,11.82c-.33,0-.65.07-.58.64.38-.33.63-.06.86.14s.28,0,.39-.1.24-.15.11-.25-.18-.27-.07-.47-.1-.28-.25-.32-.26,0-.21.1C8.22,11.93,7.91,11.8,7.78,11.82Z"/><path class="cls-7" d="M23.61,7.42a6.08,6.08,0,0,1,1.6,1.12c.29.33.69.58.95.94a11.8,11.8,0,0,1,.7,1.18c.15.27.51.41.49.78a1.88,1.88,0,0,1,1.1,1c0,.11.42.49.62.77s.24.5.31.48-.38-1-.42-1.06a6.59,6.59,0,0,1-.45-1,1.06,1.06,0,0,1-.47-.58,3.56,3.56,0,0,0-1.16-1.6A14.51,14.51,0,0,0,25.39,8c-.58-.45-1.24-.74-1.84-1.14-.1-.07-.23,0-.18.15A.65.65,0,0,0,23.61,7.42Z"/><path class="cls-7" d="M24.52,11a.23.23,0,0,1,.2.11c.25.58,1.14.34,1.33,1,0,0,.11,0,.18,0s.25.1.36.2c.43.41.77.9,1.19,1.32a3.37,3.37,0,0,0,1.26,1,.38.38,0,0,1,.25.31c0,.09,0,.19.08.27s.51.65.56.52c.12-.32-.22-.54-.24-.63s-.08-.33-.13-.5h0a1.35,1.35,0,0,1-.77-.83c-.06-.13-.12-.33-.29-.41h0a10.94,10.94,0,0,0-1.72-1.61c-.08,0,0-.15-.1-.2l-.87-.39c0-.15-.19-.11-.28-.19s-.05-.15-.09-.16c-.78-.13-1.16-1.05-2-1-.24-.44-.86-.52-1.23-.78v1a2.14,2.14,0,0,1,1.88.79A.65.65,0,0,0,24.52,11Z"/><path class="cls-7" d="M25,20.82c-.51-.19-.46-.55-.74-.79A3.46,3.46,0,0,1,23.38,19a1.5,1.5,0,0,0-.77-.71c-.15-.06-.34-.15-.43-.09v.89a1.62,1.62,0,0,0,.1.54h.27c.16-.12.29,0,.38.08a4.2,4.2,0,0,1,.82,1.13l.19,0Z"/><path class="cls-7" d="M22.18,8.25a3.93,3.93,0,0,1,1.55,1,1,1,0,0,0,.74.46.46.46,0,0,1,.45.34c.13.36.49.37.75.51s.32-.18.28-.28-.12-.54-.37-.64c-.67-.26-1-1-1.66-1.23s-1.07-.86-1.74-.92Z"/><path class="cls-7" d="M29.94,19.69c-.21-.25-.11-.63-.3-.86s-.48-.8-.76-1.17a7.78,7.78,0,0,0-.75-1,5.17,5.17,0,0,1-1.05-1.28c0-.08-.06-.19-.16-.22-.41-.12-.56-.55-.91-.74h0c-.6.05-.77-.92-1.3-1a.1.1,0,0,0-.12.12c0,.21.13.51,0,.6a.4.4,0,0,1-.47-.15c-.09-.09-.64-.33-.72-.39-.4-.36-.91.11-1.2-.6v.65a.31.31,0,0,0,.19.18c.29.09,1.15.53,1.39.64.78.34.81.56,1.46,1.12a.48.48,0,0,0,.58,0c.25-.17,0-.26-.06-.4s0-.08,0-.15a.69.69,0,0,1,.42.65.5.5,0,0,0,.37.53,3.14,3.14,0,0,1,1.22,1.09,11.86,11.86,0,0,1,1.7,3,1.18,1.18,0,0,0,.38.51h.48C30.33,20.46,30.34,19.89,29.94,19.69Z"/><path class="cls-7" d="M26.82,19.61c-.32-.51-.31-1.21-1-1.5-.14-.07-.44-.15-.46-.29-.13-.83-1.11-.7-1.38-1.35a1.9,1.9,0,0,0-.35-.21A8.14,8.14,0,0,1,22.2,15c.18-.09.53.22.6.28a5.47,5.47,0,0,0,1.37.73,7,7,0,0,1,1.52,1c.39.35.78.89,1.15,1.27a5.71,5.71,0,0,1,.86,1.33c.19.36,0,.5.37.76a.5.5,0,0,0,.65-.07c.24-.18,0-.29-.07-.42a.71.71,0,0,1-.06-.22c-.07-.53-.31-.45-.64-.78a3.14,3.14,0,0,1-.77-1.16c-.21-.47-.77-.65-.89-1.19,0-.1-.27-.35-.42-.33-.72.07-1.13-.6-1.67-.89a8,8,0,0,0-2-1.1V16c.12.32.41.39.93.37.15,0,.23.07.2.2-.09.48.27.64.57.82s.69.17.92.36c.59.53.76,1.31,1.3,1.87.16.17.46.26.56.5.16.39.19.62.34.73h.57C27.62,20.24,27,20,26.82,19.61Z"/><path class="cls-7" d="M30,17c-.35-.37-.78-.91-1.1-1.3s-.56-.43-.63-.8c-.41.12-.39-.29-.52-.46-.36-.48-.91-.73-1.27-1.22-.21-.3-.41-.76-.9-.81l-.21-.08a23.6,23.6,0,0,0-2.07-1.16,3.24,3.24,0,0,0-1.16-.39V11c.3.17.67.29.8.53a.58.58,0,0,0,.53.32,1.11,1.11,0,0,1,1,.57c.53.12.81.68,1.36.79,0,0,.07.1.09.16a.79.79,0,0,0,.52.5c.6.27,1.22.54,1.29,1.33.09,0,.22.05.25.11a2.43,2.43,0,0,0,1,1.05s0,.12,0,.18a13.79,13.79,0,0,1,1.17,2.14c.28-.17.05-.32,0-.73S30.17,17.12,30,17Z"/><path class="cls-7" d="M26,20.44c-.33-.38-.5-.83-.8-1.23a3.38,3.38,0,0,0-1.07-1.09,3,3,0,0,1-1-.82c-.33-.39-.6-.45-1-.22v.41c.24,0,.34.2.51.31a5.49,5.49,0,0,1,2.23,2.25,1.55,1.55,0,0,0,.69.77h.59C26.23,20.71,26.09,20.56,26,20.44Z"/><path class="cls-7" d="M22.38,12.3c.29.21.56.45.84.67h0c.3,0,.58.35.9,0-.55-.26-.78-.76-1.45-.91-.18-.05-.39-.3-.49-.29v.28A.87.87,0,0,0,22.38,12.3Z"/><path class="cls-7" d="M19.2,30.91c-.26,0-.33.25-.5.36-.41.27-.26,1.08-1,1-.1,0-.08.12-.11.18a1.35,1.35,0,0,1-.35.43c-.16.11-.36.2-.28.39a.78.78,0,0,0,.61.52c.27,0,.36-.15.45-.34a5.58,5.58,0,0,1,.32-.52c.08-.12.09-.27.18-.38s.23-.31.37-.35c.43-.13.34-.41.51-.71S19.53,30.9,19.2,30.91Z"/><path class="cls-7" d="M14.88,23.07c-.49-.4-1.71.27-1.81.72a.51.51,0,0,0,.27.56c.13.08.41-.07.46-.27s.17-.16.38-.14a1,1,0,0,0,.7-.13.8.8,0,0,0,0-.57C14.88,23.18,14.91,23.09,14.88,23.07Z"/><path class="cls-7" d="M20.34,30.5c.16-.21.08-.85.48-.76v-1c-.4.35-.61,1.13-1.21,1.28-.42.1-.35.51,0,.73S20.17,30.72,20.34,30.5Z"/><path class="cls-7" d="M19.69,27.7s0,.06,0,.09a1,1,0,0,1-.39.56c-.43.36-.73.88-1.14,1.26-.22.2-.34.7-.49.93s-.16,0-.28.06a.87.87,0,0,0-.37,1,.34.34,0,0,0,.59.19c.23-.21-.05-.59.37-.67,0-.05,0-.26-.08-.28s-.23,0-.17-.15.14,0,.22,0,.32-.11.46-.17c.58-.26.77-.89,1.09-1.34s.63-.58.66-1.06.4-.29.68-.16v-1.6C20.32,26.59,20.27,27.46,19.69,27.7Z"/><path class="cls-7" d="M14.46,24.3a.73.73,0,0,0-.53.71.67.67,0,0,0,.45.67.34.34,0,0,0,.35-.1.25.25,0,0,0,0-.31c0-.08-.1-.16-.15-.24s-.17-.32,0-.38.27.19.29.31.15.41.45.38a.91.91,0,0,0,.8-.5.35.35,0,0,0,0-.4.43.43,0,0,0-.44-.14c-.22,0,0,.36-.1.48C15.3,24.46,14.89,24.11,14.46,24.3Z"/><path class="cls-7" d="M12.29,24.67c-.26.16-.15.48-.31.7a2.29,2.29,0,0,0-.41,1.13c0,.41.46.52-.23,1.1-.06,0,0,.18,0,.28a.34.34,0,0,1-.15.33,1.25,1.25,0,0,0-.53.71.45.45,0,0,1-.32.28,0,0,0,0,0,0,.06.39.39,0,0,1,0,.68c-.44.34-.48.88-.69,1.33-.1.2,0,.24.2.16.34-.14.73-.27.59-.75a2,2,0,0,1,0-.57,1.19,1.19,0,0,0,.82.32c.41,0,.57-.1.5-.64,0-.15-.16-.23-.28-.28s-.1-.23,0-.34a1.28,1.28,0,0,0,.3-.8c0-.07-.07-.28,0-.34a1.25,1.25,0,0,0,.34-1.78s0-.21,0-.26.1-.17.18-.24a.14.14,0,0,1,.24,0,1.89,1.89,0,0,1,.37.62,1.22,1.22,0,0,0,1.35,1c.36-.1.66.28.9-.25a2.94,2.94,0,0,1,.47,0c.39,0,.57-.34.56-.72s.09-.4.43-.26c.05,0,.12,0,.17-.06.26-.2.66-.63.52-.85-.36-.48.24-.44.21-.72,0-.08-.11-.15-.17-.22s-.31-.09-.28-.17c.26-.5.26-.81-.29-.91.09-.13-.71-.21-.93-.15s-.17-.27-.61-.07a1.1,1.1,0,0,0,0,.67,3.14,3.14,0,0,0,.89.36c.48.13.5.41.48.92,0,.73-.59.88-1,1.1a2.87,2.87,0,0,0-.95.84c-.2.24-.33.48-.54.06-.14-.27-.47-.52-.59-.87a4.24,4.24,0,0,1-.17-1.2.57.57,0,0,0-.67-.54A.9.9,0,0,1,12.29,24.67Z"/><path class="cls-7" d="M20.29,32.34c.11-.38.35-.29.53-.33v-.95c-.45.09-.63.58-.84.94-.08.13-.49.22-.29.41S20.21,32.6,20.29,32.34Z"/><path class="cls-7" d="M6.88,35.28c0,.18,0,.23.16.22.29,0,.57-.37.58-.74,0-.17.06-.37-.18-.38S6.9,34.93,6.88,35.28Z"/><path class="cls-7" d="M13.37,29.42a2.05,2.05,0,0,1-1,.2c-.39-.08-.36.1-.36.32a.33.33,0,0,0,.64.11c0-.21.52,0,.81,0s.41-.2.36-.47S13.54,29.36,13.37,29.42Z"/><path class="cls-7" d="M8,36.31c-.28,0-.3.28-.33.47s-.06.28.06.23.23-.28.31-.49S8.09,36.3,8,36.31Z"/><path class="cls-7" d="M15,28.38c-.27,0-.54.32-.53.69,0,.15,0,.32.29.32s1-.36.89-.52A.85.85,0,0,0,15,28.38Z"/><path class="cls-7" d="M14.4,28.39c.07-.32-.47-.64-.83-.47a1.92,1.92,0,0,1-1.26.28.43.43,0,0,0-.39.61c.09.29.37.26.63.25s.41-.34.69-.32.7-.15,1-.16C14.38,28.58,14.38,28.47,14.4,28.39Z"/><path class="cls-7" d="M17.89,27.63a6.37,6.37,0,0,1-1.09,1.28,2.24,2.24,0,0,0-.53.66,1,1,0,0,1-.53.5,2.28,2.28,0,0,0-1.27,1.21.39.39,0,0,0,.38.59s.1,0,.12,0c.37-.53.88-.65,1-1.31a1.64,1.64,0,0,1,.05-.36c.35-.17,1,0,1-.6.52,0,.53-.58.94-.79s.65-.85.16-1.17C18,27.57,18,27.51,17.89,27.63Z"/><path class="cls-7" d="M8.45,23.42c-.11.34-.6.32-.63.6,0,.62-.29.75-.47,1.1s-.08.56.17.61a.52.52,0,0,0,.56-.31c0-.06,0-.29,0-.36.29-.8.16-1,.46-1.21.67-.34.85-1.11,1.26-1.67H9.17a.3.3,0,0,1-.08.16A2.3,2.3,0,0,0,8.45,23.42Z"/><path class="cls-7" d="M13.1,22.86c.5,0,.87-.36,1.35-.37a1.1,1.1,0,0,0,0-.21c0-.06,0-.06.1,0a1.62,1.62,0,0,0,.95.12c.24,0,.43-.36.7-.14a6.93,6.93,0,0,0,1.89.93.86.86,0,0,1,.44.74,2.49,2.49,0,0,1-.43.92c-.23.41-.65.77-.12,1.35-.72-.43-.77.27-1.07.52s.21.34.27.47c-.22.18-.59-.07-.83,0s-.35.24-.12.59a2.63,2.63,0,0,1-.41,0c-.24-.1-.42-.11-.53.08s.09.36.26.48a2.07,2.07,0,0,1,.3.34.82.82,0,0,1,.43-.48,3,3,0,0,0,1.73-1.83.34.34,0,0,1,.22-.23.49.49,0,0,0,.3-.55c0-.12.16-.14.29-.15s.36-.18.36-.41c0-.48-.23-.82.35-1a.61.61,0,0,0,0-.27A2.78,2.78,0,0,0,19,23c-.13-.14-.47-.27-.63-.4s-.11-.31-.24-.4l-.06,0H12.88a2.58,2.58,0,0,1-.08.26C12.71,22.69,12.77,22.84,13.1,22.86Z"/><path class="cls-7" d="M8.2,31.54c-.18.35-.12.73-.31,1.08s-.25.47-.35.71a.43.43,0,0,0,0,.46.27.27,0,0,0,.29.12c.17-.06.05-.48.17-.57.34-.27.21-1.16.63-1.39s.39-.46.43-1a1.16,1.16,0,0,1,.37-.67c.11-.13.1-.42.12-.58.09-.66,0-1.25.67-1.7a1.62,1.62,0,0,0,.15-.42c.07-.53.32-.73.33-1.29a1.39,1.39,0,0,1,.31-.75c.6-.48.51-1.19,1.12-1.67.17-.13.35-.45.23-.67s-.26-.18-.45-.2-.32.07-.32.3,0,.27-.19.46a6.73,6.73,0,0,0-.93,1.08,9.24,9.24,0,0,1-.8,2,.37.37,0,0,0-.08.22c0,.86-.77,1.53-.6,2.43,0,0,0,.08-.06.13-.15.35-.74.6-.29,1.11,0,0,0,.15-.07.16C8.31,31.06,8.31,31.33,8.2,31.54Z"/><path class="cls-7" d="M20.82,36.76v-1C20.33,36,20.22,36.55,20.82,36.76Z"/><path class="cls-7" d="M18.42,35.06c.15-.24.43-.3.48-.53a1.68,1.68,0,0,1,.86-1.13.38.38,0,0,0,.07-.49.33.33,0,0,0-.41-.15.38.38,0,0,0-.3.38c-.06.33-.13.76-.6.92a1.52,1.52,0,0,0-.89,1.43c-.07.64,0,.66-.62.69-.28,0-.49.12-.39.39a1.31,1.31,0,0,1,0,1.06c-.14.33-.24.72-.41,1.08s.11.55.5.54.48-.54.44-1.06a3.7,3.7,0,0,1,.41-1.93C17.86,35.78,18.12,35.53,18.42,35.06Z"/><path class="cls-7" d="M20.82,37a1.36,1.36,0,0,0-.68.13c-.58.27-.59,1-1.11,1.3,0,0,0,.15,0,.17s.05.43.32.41a.62.62,0,0,0,.57-.36c.21-.43.45-.84.67-1.26a.62.62,0,0,0,.19-.14Z"/><path class="cls-7" d="M14.64,30.16c0-.33-.18-.21-.35-.2a.45.45,0,0,0-.47.56,2,2,0,0,0,.46.09C14.54,30.59,14.66,30.47,14.64,30.16Z"/><path class="cls-7" d="M1,27.28c.06-.13,0-.47.16-.52.29-.13.25-.63.37-.65.61-.12.28-.43.4-.76.06-.13-.12-.24-.24-.26s-.19,0-.23.22c-.13.66-.77,1-.74,1.55,0,.11-.1.58.08.64S.91,27.42,1,27.28Z"/><path class="cls-7" d="M20.54,33.21c0,.58-.3.67-.59.91-.06.05-.15.1-.16.16-.12,1-1.12,1.58-1.13,2.61,0,0-.12.18-.17.26-.29.47-.79.81-.76,1.47,0,.19,0,.53-.3.66-.11,0-.11.28,0,.39s.27.07.37-.06a4.45,4.45,0,0,0,.64-1.4c.13-.45.68-.64.51-1.19a.64.64,0,0,1,.16-.07c.34-.14.4-.39.24-.72a.18.18,0,0,1,.1-.24,1.6,1.6,0,0,0,.79-.87c.1-.22.25-.57.57-.66V33C20.7,33,20.54,33.13,20.54,33.21Z"/><path class="cls-7" d="M6.12,37.72c0,.15,0,.24.15.25a.19.19,0,0,0,.18-.1c0-.26,0-.33-.11-.34A.2.2,0,0,0,6.12,37.72Z"/><path class="cls-7" d="M1.93,33.78c.08-.28.35-.56.24-.91-.39.15-.44.51-.58.77s.11.39.27.44S1.9,33.9,1.93,33.78Z"/><path class="cls-7" d="M6.77,36.43c-.31,0-.46.26-.51.53a.3.3,0,0,0,.26.35c.29,0,.3-.2.26-.5C6.72,36.71,7,36.44,6.77,36.43Z"/><path class="cls-7" d="M13.53,40c0,.46.05.53.28.51s.69-.63.63-.82-.18-.22-.39-.23C13.64,39.42,13.47,39.62,13.53,40Z"/><path class="cls-7" d="M12.81,41.12c0,.18.13.13.25.15s.46-.07.45-.37a.28.28,0,0,0-.32-.28A.55.55,0,0,0,12.81,41.12Z"/><path class="cls-7" d="M14.38,37.17a.33.33,0,0,0-.43.09,2.83,2.83,0,0,0-.52.8.67.67,0,0,1-.56.53c-.15-.09-.26-.11-.31.08s-.11.29.14.3c0,0,.06,0,.07,0,.14.34.16.3.45.06s.31-.72.61-.9a.79.79,0,0,0,.48-.64C14.33,37.4,14.59,37.3,14.38,37.17Z"/><path class="cls-7" d="M6.42,39.84c.24.23.26,0,.38-.11A1.47,1.47,0,0,0,7,38.89c0-.15,0-.31.12-.34.49-.1.31-.7.69-.81,0-.17-.07-.21-.16-.25a.29.29,0,0,0-.41.11c-.25.38.08.72-.49.84a1.15,1.15,0,0,0-.45.48c0,.14,0,.29-.09.41C5.93,39.63,6.25,39.68,6.42,39.84Z"/><path class="cls-7" d="M2.46,24.58c.12-.17.2-.21.2-.45-.26-.16-.34.05-.51.19s-.19.2,0,.34A.24.24,0,0,0,2.46,24.58Z"/><path class="cls-7" d="M2.12,32.43a.37.37,0,0,0,.49-.29c.12-.4,0-1,.19-1.23s.24-.52.26-.87a.84.84,0,0,1,.21-.54c.38-.45,0-1.1.6-1.41-.08-1.07.76-1.63,1-2.35a1.46,1.46,0,0,1,.44-.87,1.1,1.1,0,0,0,.43-1.19c-.21-.1-.23.36-.45.23a.81.81,0,0,1-.18.5c-.23.35-.67.54-.73,1s0,.67-.47.75c-.14,0-.14.22-.16.37s0,.47-.15.58A2.16,2.16,0,0,0,3,28.88c0,.33,0,.52-.35.59a.31.31,0,0,0-.27.3A4.24,4.24,0,0,1,1.89,32,.29.29,0,0,0,2.12,32.43Z"/><path class="cls-7" d="M1.78,28.46c.09-.6.57-.52.72-1.48.1-.67.37-.36.55-.92,0,0,.12-.26.1-.34-.12-.51-.27-.15-.38,0A11,11,0,0,0,1.3,28.56a.27.27,0,0,0,.22.38C1.65,29,1.72,28.84,1.78,28.46Z"/><path class="cls-7" d="M1.17,29.37c-.13,0-.25.09-.16.21s.09.23-.09.33-.15.23-.14.42,0,.34.21.21.49-.19.58-.53S1.51,29.33,1.17,29.37Z"/><path class="cls-7" d="M6.84,27c.35,0,.25-.32.39-.58S7.29,26,7,26s-.33.26-.32.55S6.53,27,6.84,27Z"/><path class="cls-7" d="M4.65,35.23a5,5,0,0,1,.44-1.67A4.1,4.1,0,0,0,5.47,32a2,2,0,0,1,.39-1.67A3.52,3.52,0,0,0,6.4,28.8c0-.09,0-.41.09-.45.28-.12.23-.39.29-.6s.15-.44-.12-.5-.38.08-.48.32a13.61,13.61,0,0,0-.95,3,10,10,0,0,1-.52,1.51,14.12,14.12,0,0,1-.6,2.45c-.34.66-.17,1.46-.36,2.17s-.18,1.07.49,1.32a4,4,0,0,1,.08-1.79A3.79,3.79,0,0,0,4.65,35.23Z"/><path class="cls-7" d="M1.29,32.57c.07,0,.06-.36.07-.42.07-.34.08-.36.15-.7s0-.27-.17-.29-.17.16-.18.28a.91.91,0,0,1-.08.48c0,.18.16.35.11.56C1.18,32.5,1.25,32.55,1.29,32.57Z"/><path class="cls-7" d="M3.51,32.91c.26-.16.3-.79.29-1,0-.68.41-.56.52-1.09a7.52,7.52,0,0,1,.76-2.36c.21-.63.34-1.11.53-1.66.07-.2-.08-.31-.22-.25s-.32.14-.31.53a.83.83,0,0,1-.46.81.39.39,0,0,0-.09.67c.19.2.09.24,0,.36s-.4.25-.33.43c.21.55-.24.87-.38,1.29A10.49,10.49,0,0,0,3,33.09a3.34,3.34,0,0,1-.42,1.85c-.06.07,0,.22,0,.35a1.53,1.53,0,0,0,0,.36c.05.14.1.34.3.32s0-.37.09-.48c.27-.45.18-1.36.39-1.76.11-.21.58-.32,0-.58C3.22,33.11,3.43,33,3.51,32.91Z"/><path class="cls-7" d="M2.88,22.85c0,.19-.2.22-.19.27a.33.33,0,0,0,.22.32c.18.07.23-.2.3-.34a1.29,1.29,0,0,1,.48-.56.22.22,0,0,0,.1-.24s0-.08,0-.12H3.39A1.82,1.82,0,0,0,2.88,22.85Z"/><path class="cls-7" d="M4.45,22.9c0,.1-.25.14-.31.21a1.37,1.37,0,0,0-.58.92,7.35,7.35,0,0,0-.34.76c-.07.14-.12.33,0,.42s.4-.27.5-.46c.18-.39.44-.22.49-.85,0-.37.4-.48.64-.66,0,0,.06-.2.1-.23,0-.32.3-.16.35-.44l.19-.39H4.79A1.16,1.16,0,0,0,4.45,22.9Z"/><path class="cls-7" d="M5.13,38.92c.32.06,0-.42.24-.61l.21-.1c.09-.26-.16-.84-.38-.84-.39.13-.38.41-.35.79S4.82,38.85,5.13,38.92Z"/><path class="cls-7" d="M2.05,22.31a.68.68,0,0,0,.18.29s.18-.06.18-.09.07-.21.12-.33H2.1Z"/><path class="cls-7" d="M7.24,23a3.62,3.62,0,0,0-1.19,2.31c.11.21,0,.33-.19.38s-.21.3,0,.27.5-.11.53-.44a1.41,1.41,0,0,1,.4-.88,1,1,0,0,0,.42-.7c0-.18.13-.57.34-.55s.36-.29.43-.39c.23-.34.36-.57.55-.86H7.59A1.1,1.1,0,0,1,7.24,23Z"/><path class="cls-7" d="M6.1,22.49c0,.14,0,.28-.14.35s-.08.08-.08.11c0,.24.1.4.37.38s.23-.3.27-.55,0-.47.19-.6H6.14A.63.63,0,0,0,6.1,22.49Z"/><polygon class="cls-7" points="13.82 30.52 13.82 30.52 13.82 30.52 13.82 30.52 13.82 30.52"/><path class="cls-7" d="M8.32,39.72a.38.38,0,0,0,.42-.35c0-.63.44-.83,1-.95.25-.06.54-.28.5-.54s.11-.4.29-.51c.42-.27,1-.36.91-1,0-.23.18-.12.28-.13s.45.05.49-.25a2.61,2.61,0,0,1,.58-1c.45-.18,1.13-.26,1.44-1,0-.06.32-.37.49-.25s-.08.46-.12.58c-.13.38-.55.61-.36,1.09.62,0,.67-.57,1-.88a.54.54,0,0,0,.14-.73c-.15-.21-.1-.37.05-.47.39-.27.7-.39,1.1-.66a.64.64,0,0,0,.25-.57c-.06-.2-.1-.43-.34-.5s-.35.1-.44.23a7.69,7.69,0,0,1-1.84,1.76,1,1,0,0,1-.56.25c-.38,0-.88.4-.85.65.06.54-.07.51-.45.35a.31.31,0,0,0-.23,0,2.54,2.54,0,0,0-1.14,1.37,2.47,2.47,0,0,1-1,1.23c-.51.4-.88.94-1.42,1.29a.6.6,0,0,0-.29.65C8.18,39.47,8,39.7,8.32,39.72Z"/><polygon class="cls-7" points="14.21 35.32 14.21 35.32 14.21 35.32 14.21 35.32"/><path class="cls-7" d="M13.57,35.54c-.05.47-.31.61-.69.73a.51.51,0,0,0-.33.5c0,.21.2.24.34.26a.38.38,0,0,0,.47-.29c.05-.12,0-.3.21-.35.56-.15.57-.63.64-1.07A.39.39,0,0,0,13.57,35.54Z"/><polygon class="cls-7" points="14.21 35.32 14.21 35.32 14.21 35.32 14.21 35.32"/><path class="cls-7" d="M9.14,35.6c-.11.33-.15.73-.52,1a.74.74,0,0,0-.36.54.39.39,0,0,0,.09.36c.12.09.2.1.3,0a1.82,1.82,0,0,0,.69-1c.06-.36.21-.42.42-.63s.47-.21.4-.42-.28-.22-.47-.22A.44.44,0,0,0,9.14,35.6Z"/><path class="cls-7" d="M8.71,34.94c.36-.1.47-.18.44-.87.24-.17.42-.18.47-.89,0-.06.23-.19.32-.13.29.21,0,.87.53.86-.18.24-.06.69-.23.93a.29.29,0,0,0,0,.4c.13.13.26,0,.38,0,.38-.27.35-.58.72-.87s.81-.48,1.05-.67a8.86,8.86,0,0,1,1.66-1.1c.19-.1.17-.37.11-.58s-.17-.11-.28-.09a3.6,3.6,0,0,0-2,1.16,2,2,0,0,1-1.26.77c0-.36.2-.9-.33-1-.18,0,.06-.42.18-.39A1.46,1.46,0,0,0,12.06,32c.53-.42,1.14-.38,1.65-.91.23-.23.28-.39.11-.55h0l-.06.07c-.33-.47-.46,0-.71.05s-.16.34-.09.54c-.29.07-.53-.15-.79,0a.78.78,0,0,1-.73,0c-.11-.05-.25.1-.22.27.06.42-.15.24-.37.26-.72.05-1,.12-1.16.8a.33.33,0,0,1-.11.2c-.49.41-1,.8-1,1.54a.32.32,0,0,1-.13.2c-.45.33-.36.81-.39,1.26,0,0-.11.15,0,.15S8.69,35,8.71,34.94Z"/><path class="cls-7" d="M14.79,39.22a.74.74,0,0,0,.68-.61c.06-.42-.34-.1-.4-.27-.26,0-.62.43-.53.65S14.52,39.24,14.79,39.22Z"/><path class="cls-7" d="M10.45,22.52c0,.2-.18.36-.29.54a12.64,12.64,0,0,1-.86,1.25,8.74,8.74,0,0,0-1,2.11,5.12,5.12,0,0,0-.73,1.74c0,.27,0,.54-.23.73.14.16,0,.21-.1.29A7.34,7.34,0,0,0,7,30.65a1.46,1.46,0,0,1-.29,1,1.15,1.15,0,0,0-.29.57c-.13.4-.19.85-.35,1.22a7.39,7.39,0,0,0-.46,1.4c-.11.4.37,1.37-.36,1.59-.1,0-.08.17,0,.25s.14.3.35.29.25,0,.26-.15a6.28,6.28,0,0,1,.44-1.74c0-.18-.13-.31,0-.57a4.56,4.56,0,0,0,.55-1.63c.05-.4.41-.81.37-1.26a.46.46,0,0,1,.08-.24c.23-.49.69-.86.62-1.49a2.94,2.94,0,0,1,.42-1.5,2,2,0,0,0,.25-.57c.12-.63-.11-1.11.63-1.44.08,0,.29-.14.25-.16-.26-.17-.1-.52-.07-.69.16-.84.73-1.19,1.19-1.85.2-.3.33-.68.65-.88a.84.84,0,0,0,.41-.6H10.53A.46.46,0,0,0,10.45,22.52Z"/><path class="cls-7" d="M15.71,40.68c.26-.22,0-.71.66-.79-.17-.23-.33-.36-.56-.28a2.35,2.35,0,0,0-.91.71c-.14.17.08.34.16.51C15.25,40.64,15.55,40.82,15.71,40.68Z"/><path class="cls-7" d="M19.07,22.18c.31.24.63.48.91.74a.36.36,0,0,1,0,.41c-.22.2-.07.28.05.45s.5.38.32.56c-.35.37-.47.94-.82,1.28s-.61,1.07-1.11,1.45c-.24.19.07.33.06.51s.2.17.35.14a.79.79,0,0,0,.55-.9c-.08-.32,0-.35.3-.32a.64.64,0,0,0,.65-.7.69.69,0,0,1,.48-.68V23.94A1.77,1.77,0,0,0,19.07,22.18Z"/><path class="cls-7" d="M9.16,41c.16.1.45.15.47,0,.07-.48.6-.55.76-.95s.64-.78.95-1.17a7.23,7.23,0,0,1,1.21-1.2c.11-.09.21-.23,0-.35s-.21-.38-.48-.23-.44.28-.41.59-.22.18-.33.3c-.29.32-.33.93-1,.85,0,0-.06,0-.06.07,0,.42-.34.53-.56.76a4.51,4.51,0,0,0-.66.85A.3.3,0,0,0,9.16,41Z"/><path class="cls-7" d="M11.39,41.16a.34.34,0,0,0,.45-.21,2.5,2.5,0,0,1,.67-1.11.3.3,0,0,0,.05-.42.37.37,0,0,0-.48,0c-.35.43-.65.9-.95,1.33C11.16,40.93,11.18,41.12,11.39,41.16Z"/><path class="cls-7" d="M15.62,37.51c.39.28.6,0,.8-.22s0-.36-.24-.45-.17-.24-.13-.38c.1-.44.64-.62.9-.93a1.36,1.36,0,0,0,0-1.91c-.24-.26-.36.12-.52.26-.4.34-.13.43-.44.57-.58.29-.62.45-.15.87.24-.17.31-.45.49-.67s.05-.61.42-.15c.14.18.16.37-.11.48a.24.24,0,0,0-.12.24c-.15.09-.33.12-.48.2a1.39,1.39,0,0,1-.27.38c-.17.14-.26.42-.47,0-.1-.19-.47-.17-.65.07s-.41.56-.08.78S15.24,37.25,15.62,37.51Z"/><path class="cls-7" d="M25,22.75a1.23,1.23,0,0,1,.22.67,5.38,5.38,0,0,0,.11,1.7c0,.1,0,.18,0,.26-.29.3-.21.71-.31,1.06s0,1.1-.54,1.46a.49.49,0,0,0,0,.7c.18.21.42.15.63,0,.37-.31.5-1.23.28-1.28s-.13-.31,0-.37c.4-.18.36-.56.52-.87.35-.68,0-1.27.17-2a2.2,2.2,0,0,0,0-.52c-.48-.23-.11-.45-.11-.8a.78.78,0,0,1-.16-.53v0h-.81C24.89,22.37,24.9,22.58,25,22.75Z"/><path class="cls-7" d="M22.18,29.55h0l0,0v0Z"/><path class="cls-7" d="M27.12,30.53c.15.06.21-.1.29-.2.2-.27,0-.7.26-.88.45-.39.32-.83.33-1.24,0-.24-.27-.23-.44-.29s-.27.15-.26.25c0,.54-.35,1-.24,1.52a4.58,4.58,0,0,0,0,.54C27.07,30.33,27,30.48,27.12,30.53Z"/><path class="cls-7" d="M22.49,27.29a10.11,10.11,0,0,0,.05-2.46c0-.28.12-.4.42-.55.09-.05.18-.14.06-.22a.71.71,0,0,1-.31-.72c0-.19.16-.39-.06-.49a.07.07,0,0,0-.06,0,1.74,1.74,0,0,0-.41,1.11v3.58C22.32,27.47,22.47,27.38,22.49,27.29Z"/><path class="cls-7" d="M28.77,22.3A2.33,2.33,0,0,1,29,23.43c-.34.58,0,1.85-.28,2.48-.11.26-.36-.1-.34-.19A4.56,4.56,0,0,1,28.4,25a1.09,1.09,0,0,0,.08-.66,4.64,4.64,0,0,1-.15-1.89,1.92,1.92,0,0,0,0-.24h-.81a1.27,1.27,0,0,0,.11.38,1.72,1.72,0,0,0,.06.71,2.56,2.56,0,0,1,0,1.45,1.63,1.63,0,0,0,0,1.21c.14.33.21.52-.13.75a.42.42,0,0,0-.08.57.73.73,0,0,0,.74.17c.22-.07.15-.41.09-.57s.14-.43.33-.44c.43,0,.49-.28.6-.57a1.22,1.22,0,0,0,0-1.37c-.09-.12.07-.23.18-.25s.2-.13.29-.26c.32-.51.1-.83-.18-1.27a1.76,1.76,0,0,0,0-.51h-.76A.42.42,0,0,1,28.77,22.3Z"/><path class="cls-7" d="M24.19,33.32c.25-.15.24-.34.28-.59a4.26,4.26,0,0,1,.75-2.33c.12-.15.08-.6.31-.58s0,.46,0,.63a3.1,3.1,0,0,1-.6,2.27c-.22.25.08.48.27.62s.35,0,.46-.16,0-.73.21-.93c.65-.76.16-2,.63-3a.27.27,0,0,0-.25-.38c-.19,0-.37,0-.41.23-.07.47-.39.47-.42.1-.25-.25-.4-.2-.47.16a1.65,1.65,0,0,1-.28.6,2.18,2.18,0,0,0-.46,1.76c.07.43-.19.45-.39.71a3.15,3.15,0,0,0-.67,1.16,6.18,6.18,0,0,1-.68,2,4.5,4.5,0,0,0-.27.37V37a1.72,1.72,0,0,1,1-1.4c.06,0,.1-.45.11-.53.07-.6.43-.92.6-1.49C23.88,33.5,24.07,33.39,24.19,33.32Z"/><path class="cls-7" d="M26.39,22.37a.2.2,0,0,0-.08.25,7.82,7.82,0,0,1,.2,2.21,20.91,20.91,0,0,1-.33,2.52c0,.27-.14.53-.17.8s0,.38.23.33.68-.06.63-.54a1,1,0,0,1,0-.39,3.65,3.65,0,0,0,.39-1.77,6.49,6.49,0,0,1-.09-2.64c0-.34-.3-.61-.3-1h-.42A.26.26,0,0,1,26.39,22.37Z"/><path class="cls-7" d="M23.13,32.15a3.78,3.78,0,0,0,.16-.86c0-.09.13-.33,0-.36a.19.19,0,0,0-.21,0,2.19,2.19,0,0,0-.69,1.13c-.14.5,0,.75.47.6A1.55,1.55,0,0,1,23.13,32.15Z"/><path class="cls-7" d="M22.46,29.28c.17.47.24.2.53-.14.16-.18.45-.3.4-.53s-.3-.16-.47-.2-.29,0-.34.24a.32.32,0,0,1-.32.24s-.05,0-.08,0v.29Z"/><path class="cls-7" d="M23.26,22.32a2.86,2.86,0,0,1,.35.43,2.22,2.22,0,0,0-.08,1c0,.45.31.81.14,1.27a3.92,3.92,0,0,0-.46,1.81c0,.12-.09.18-.19.25-.46.29.07.45.13.67s.39.14.57,0a.9.9,0,0,0,.4-.94,11.1,11.1,0,0,1,.24-1.9,5,5,0,0,0,0-1.77c-.22-.12-.15-.33-.13-.5a.71.71,0,0,0-.06-.45h-.24A1.72,1.72,0,0,0,23.26,22.32Z"/><path class="cls-7" d="M24.57,34a.59.59,0,0,0-.05.51c.13-.08.17-.26.28-.33a.64.64,0,0,0,.3-.44c0-.08-.07-.1-.13-.1A.48.48,0,0,0,24.57,34Z"/><path class="cls-7" d="M23.48,30.8c.19,0,.36,0,.45-.22s.08-.6.29-.91a.58.58,0,0,0,0-.77.33.33,0,0,0-.46.11c-.16.46-.51.77-.46,1.32C23.31,30.5,23.26,30.76,23.48,30.8Z"/><path class="cls-7" d="M22.41,33.83c.05-.23.21-.27.24-.51s-.1-.42-.38-.4a.26.26,0,0,0-.09,0v1.12l0,0C22.31,34.25,22.37,34,22.41,33.83Z"/><path class="cls-7" d="M22.18,31.65c.28-.37.74-.79.17-1.24,0,0,0-.13,0-.18a.74.74,0,0,0-.15-.64c0,.07,0,.15,0,.22Z"/></g></svg>