<svg xmlns="http://www.w3.org/2000/svg" data-name="Capa 1" viewBox="0 0 389 149.09"><path fill="#5f5b58" d="M8 128.125h3.008l8 20.48H16l-2.237-6.169H5.1l-2.291 6.169H0Zm-2.039 12.02H12.9l-3.412-9.554h-.059ZM23.855 128.125h2.9l10.781 16.606h.057v-16.606h2.582v20.48h-2.98L26.5 132.174h-.057v16.431h-2.588ZM58.413 128.125h2.724v20.48h-2.724ZM68.565 128.125h2.9l10.781 16.606h.054v-16.606h2.58v20.48H81.9l-10.7-16.431h-.056v16.431h-2.579ZM92.165 128.125h13.45v2.3H94.888v6.51h9.412v2.3h-9.407v9.378h-2.728ZM120.156 127.637c6.51 0 9.805 5.164 9.805 10.731s-3.3 10.722-9.805 10.722-9.81-5.161-9.81-10.722 3.3-10.731 9.81-10.731m0 19.158c4.989 0 7.079-4.3 7.079-8.427s-2.09-8.435-7.079-8.435-7.086 4.3-7.086 8.435 2.092 8.427 7.086 8.427M150.555 134.292c-.578-2.9-2.9-4.359-5.739-4.359-4.873 0-6.94 4.017-6.94 8.288 0 4.676 2.067 8.574 6.967 8.574 3.586 0 5.653-2.524 5.907-5.9h2.727c-.516 5.1-3.7 8.2-8.863 8.2-6.365 0-9.463-4.706-9.463-10.672 0-5.936 3.387-10.781 9.692-10.781 4.275 0 7.8 2.3 8.431 6.655ZM159.725 128.125h14.141v2.3h-11.414v6.51H173.1v2.3h-10.648v7.08h11.5v2.3h-14.227ZM180.116 128.125h9.635c3.846 0 6.226 2.093 6.226 5.365 0 2.467-1.088 4.5-3.555 5.188v.063c2.377.454 2.865 2.2 3.069 4.214.169 2 .054 4.244 1.2 5.65h-3.037c-.777-.837-.348-3.044-.746-5.051-.291-2-.777-3.7-3.417-3.7h-6.648v8.752h-2.727Zm8.4 9.439c2.555 0 4.731-.665 4.731-3.645 0-2-1.087-3.5-3.636-3.5h-6.77v7.143ZM206.756 130.421h-6.825v-2.3h16.378v2.3h-6.826v18.184h-2.727ZM246.677 134.292c-.576-2.9-2.891-4.359-5.74-4.359-4.869 0-6.933 4.017-6.933 8.288 0 4.676 2.064 8.574 6.965 8.574 3.588 0 5.649-2.524 5.907-5.9h2.724c-.509 5.1-3.693 8.2-8.854 8.2-6.366 0-9.466-4.706-9.466-10.672 0-5.936 3.385-10.781 9.692-10.781 4.269 0 7.8 2.3 8.433 6.655ZM264.517 127.637c6.508 0 9.807 5.164 9.807 10.731s-3.3 10.722-9.807 10.722-9.814-5.161-9.814-10.722 3.304-10.731 9.814-10.731m0 19.158c4.985 0 7.077-4.3 7.077-8.427s-2.092-8.435-7.077-8.435-7.088 4.3-7.088 8.435 2.096 8.427 7.088 8.427M280.57 128.125h3.73l6.452 17.208 6.481-17.208h3.728v20.48h-2.581v-17.038h-.054l-6.4 17.038h-2.321l-6.4-17.038h-.055v17.038h-2.58ZM308.361 128.125h8.974c4.071 0 6.279 2.271 6.279 6.056s-2.208 6.078-6.279 6.047h-6.251v8.377h-2.723Zm2.723 9.811h5.333c3.067.026 4.474-1.321 4.474-3.755s-1.407-3.76-4.474-3.76h-5.333ZM333.25 128.125h3.016l8 20.48h-3.012l-2.241-6.169h-8.659l-2.292 6.169h-2.815Zm-2.037 12.02h6.942l-3.41-9.554h-.054ZM349.114 128.125h2.9l10.783 16.606h.055v-16.606h2.58v20.48h-2.983l-10.695-16.431h-.054v16.431h-2.581ZM381.174 140.228v8.377h-2.727v-8.377l-7.913-12.1h3.238l6.137 9.755 5.991-9.755h3.1Z"/><path fill="#0071a7" d="M1.55 35.145c.322-1.642.607-3.3.968-4.933 4.516-20.32 25.366-31.92 44.14-24.595a2.06 2.06 0 0 1 1.575 2.317c-.109 2.584-.034 5.178-.034 8.075-6.889-4.074-13.887-5.032-21.187-2.527A24.46 24.46 0 0 0 14.7 22.917a26.53 26.53 0 0 0 .094 30.345A24.35 24.35 0 0 0 30.171 63.42c6.317 1.3 12.23.063 18.018-3.363 0 3.225.062 6.153-.071 9.073-.019.453-.893 1.039-1.473 1.249-11.661 4.154-22.553 2.584-32.328-5.264C7.073 59.303 2.981 51.483 1.872 42.02a6.5 6.5 0 0 0-.322-1.1Z"/><path fill="#22283f" d="M144.518 54.072h-16.313c-.394-1.2-.211-1.877 1.171-1.793.859.055 1.718.011 2.784.011V29.865c-.1-1.642-.017-3.469-1.7-4.317-1.749-.882-3.448-.212-4.9.936a13.03 13.03 0 0 0-4.845 10.006c-.228 4.975-.059 9.975-.05 14.958a5 5 0 0 0 .169.842c.93 0 1.844.05 2.753-.013 1.2-.082 1.631.394 1.24 1.73H108.5c-.392-1.131-.207-1.81 1.18-1.728.858.053 1.725.011 2.7.011.034-.744.086-1.293.086-1.848 0-6.74.017-13.487-.014-20.232-.006-1.734.149-3.7-1.747-4.589-2.055-.974-3.858-.055-5.406 1.351a12.4 12.4 0 0 0-4.192 8.766c-.249 5.414-.067 10.852-.067 16.478h4.068c.038.712.069 1.232.107 1.841H87.63c-.027-.51-.054-.992-.1-1.73h5.149V24.282h-4.94l-.36-.42c.316-.453.616-1.268.96-1.291 4.132-.243 8.269-.369 12.651-.532v6.931q.223.082.452.17c.405-.536.825-1.064 1.221-1.607 2.439-3.357 5.384-5.766 9.7-5.72 3.966.044 6.71 2.078 8 6.009.132.411.3.813.574 1.538.542-.679.951-1.146 1.313-1.649 2.407-3.368 5.293-5.867 9.612-5.9 5.461-.033 8.276 2.576 8.433 8.3.178 6.627.09 13.259.116 19.89.008 2.283.006 2.263 2.224 2.3.989.018 2.438-.456 1.883 1.771"/><path fill="#0071a7" d="M344.766 43.045c.063.029.452.2.951.436-1.567 4.71-4.064 8.546-8.417 10.825a8 8 0 0 1-2.479.825c-4.835.712-7.311-2.1-6.28-7.22 1.022-5.1 2.212-10.157 3.305-15.238a41 41 0 0 0 .892-4.826c.164-1.7-.657-2.707-2.283-2.548a8.56 8.56 0 0 0-4.1 1.345 17.95 17.95 0 0 0-7.26 10.932c-1.2 5.459-2.421 10.915-3.657 16.466h-7.679q1.175-5.553 2.359-11.041c.992-4.581 2.006-9.162 3.011-13.741.688-3.162-.854-4.809-3.866-3.871a11 11 0 0 0-3.808 2.221 18.77 18.77 0 0 0-6.36 10.8c-.942 4.823-2.14 9.591-3.146 14.406-.213 1.052-.6 1.385-1.617 1.349-2.128-.075-4.256-.025-6.631-.025 2.195-9.958 4.369-19.783 6.581-29.81h-5.542c-.26-.922-.637-1.741.658-1.812 4.193-.244 8.391-.463 12.592-.685a6 6 0 0 1 .934.132c-.5 2.262-.988 4.434-1.466 6.608.105.08.206.157.31.239.474-.389.935-.79 1.416-1.16 2.011-1.54 3.947-3.214 6.075-4.569a9.96 9.96 0 0 1 6.845-1.112c3.611.484 5.324 2.679 5.312 6.95.486-.438.808-.748 1.148-1.02 2.082-1.634 4.076-3.408 6.279-4.849a9.62 9.62 0 0 1 6.686-1.085c3.507.456 5.4 2.8 4.961 6.456-.353 2.966-1.1 5.881-1.731 8.807-.787 3.645-1.7 7.258-2.4 10.92a8.4 8.4 0 0 0 .448 2.758c.9-.226 2.128-.149 2.627-.735 1.85-2.181 3.466-4.58 5.332-7.128M214.032 25.328h-6.338c-.14-.8-.254-1.462-.425-2.417 1.9 0 3.676-.118 5.435.037 1.536.136 2.03-.534 2.365-1.977a36.7 36.7 0 0 1 5.637-13.269c4.371-6.152 11.217-8.911 17.839-7.206a6.345 6.345 0 0 1 5.159 6.5 3.31 3.31 0 0 1-1.981 3.391 4.77 4.77 0 0 1-5.1-1.341 3.81 3.81 0 0 1-.484-4.273c.349-.695.578-1.458.863-2.191a10.8 10.8 0 0 0-2.728-.779 6.71 6.71 0 0 0-6.162 3.789c-2.151 3.8-2.727 8.079-3.423 12.315-.259 1.556-.412 3.127-.657 5 2.383 0 4.654.1 6.908-.036 1.669-.1 2.207.542 1.784 2.461-2.17 0-4.449.128-6.707-.04-1.719-.126-2.163.551-2.385 2.227-1.4 10.364-2.834 20.735-6.508 30.577a25.6 25.6 0 0 1-5.718 9.608c-4.437 4.357-9.7 5.132-15.373 3.444-2.748-.819-3.907-2.558-3.892-5a3.59 3.59 0 0 1 2.023-3.588 4.26 4.26 0 0 1 4.663.517 4.16 4.16 0 0 1 1.456 4.248c-.432 2.091.113 2.78 2.162 2.681a5.54 5.54 0 0 0 5.322-3.852 60.7 60.7 0 0 0 2.721-10.6c1.384-9.8 2.465-19.637 3.661-29.465a4 4 0 0 0-.117-.761M373.336 27.171c.323-1.185.57-2.4.989-3.544.176-.45.72-1.052 1.11-1.069 2.174-.106 4.361-.05 6.816-.05-.551 2.476-1.051 4.757-1.551 7.037-1.4 6.278-2.849 12.551-4.173 18.848a7.2 7.2 0 0 0 .461 2.605c.855-.211 2.036-.131 2.5-.693 1.827-2.193 3.435-4.591 5.283-7.128.033.015.486.237 1.047.515-1.6 4.416-3.854 8.157-7.842 10.4a9.3 9.3 0 0 1-4.2 1.115c-3.435.1-4.574-1.175-5.232-5.545-.444.425-.792.708-1.085 1.051-3.548 4.194-8.5 5.7-12.945 3.92-4.3-1.718-7.289-6.626-6.941-12.03.586-9.158 5.052-15.751 13.028-19.631a14.9 14.9 0 0 1 5.718-1.1c2.636-.115 4.55 1.332 5.769 3.751.268.526.532 1.054.808 1.58Zm-1.743 3.739a20.4 20.4 0 0 0-1.177-4.334 4.61 4.61 0 0 0-7.234-1.724 10 10 0 0 0-2.711 3.326 56.3 56.3 0 0 0-5.09 20.056c-.276 3.614 2.225 5.589 5.63 4.782 3.26-.77 5.233-3.152 6.712-6.028 2.425-4.736 3.277-9.912 3.87-16.078"/><path fill="#22283f" d="M84.694 50.367c0 .155.2.812-.032 1.2a8.22 8.22 0 0 1-8.962 3.345c-1.792-.613-2.456-1.439-3.918-5.035-.514.494-.972.911-1.4 1.353A13.04 13.04 0 0 1 58.8 55.08a6.42 6.42 0 0 1-5.748-4.613c-1.082-3.424-.735-6.638 1.711-9.338 3.067-3.368 7.093-4.547 11.376-4.917 1.781-.154 3.584-.026 5.853-.026-.25-3.519-.317-6.776-.8-9.964a3.37 3.37 0 0 0-2.354-2.177 20.8 20.8 0 0 0-6.278.476c-1.766.4-1.9 1.133-1.033 2.819a4.27 4.27 0 0 1 .057 4.508 3.55 3.55 0 0 1-3.634 1.435c-2.059-.176-3.26-1.755-3.088-4.013a5.43 5.43 0 0 1 2.308-4.309 17.9 17.9 0 0 1 5.258-2.6 22.9 22.9 0 0 1 12.629.525c3.435 1.108 4.566 2.767 4.572 6.487q.018 9.179.006 18.362c0 1.347-.3 3.051 1.3 3.454.996.246 2.219-.444 3.759-.822M71.925 37.481a48 48 0 0 0-6.391 1.147 9.25 9.25 0 0 0-3.7 2.346c-1.971 2.064-1.973 6.182-.255 8.339a5.375 5.375 0 0 0 6.746 1.125 5.97 5.97 0 0 0 3.113-4.554c.321-2.614.321-5.266.487-8.403M175.158 36.245h-20.416v9.212c0 5.848 3.783 8.944 9.319 7.6 4.1-1 6.805-3.722 8.374-7.66.457-1.146.943-1.7 2.126-1.284-.72 5.972-6.066 10.718-12.456 11.058-7.217.383-12.826-3.063-15.386-9.445-2.637-6.581-.77-15.253 4.311-20.006 7.172-6.721 18.825-4.591 22.6 4.227.793 1.838.977 3.956 1.528 6.298m-20.322-2.181h6.422c5.22 0 5.22 0 4.738-5.536-.272-3.095-1.929-4.7-5.048-4.884-3.416-.2-5.683 1.282-6.068 4.3a51 51 0 0 0-.044 6.12"/><path fill="#22283f" d="M188.6 52.332h6.764v1.8H174.94c-.031-.595-.056-1.079-.088-1.768h5.2V24.299h-5.069c-.048-.605-.088-1.072-.132-1.619 4.493-.232 8.871-.454 13.538-.691v7.532c.165.042.331.08.494.122q.535-.882 1.077-1.764c2.486-4.095 5.846-6.508 10.729-6.026a4.77 4.77 0 0 1 4.478 3.812c.36 1.864.159 3.638-1.429 4.916a5.12 5.12 0 0 1-5.289.126c-1.246-.775-1.455-2.034-1.518-3.371-.12-2.188-.773-2.637-2.625-1.533a11.46 11.46 0 0 0-5.606 9.472c-.367 5.57-.1 11.181-.1 17.057M46.827 44.145c-1.462 5.563-4.461 9.463-9.989 10.636-6.225 1.324-11.694-.136-15.626-5.6-6.374-8.849-2.84-24.611 9.811-27.083a15.93 15.93 0 0 1 9.512.8 7.84 7.84 0 0 1 5.144 6.665c.241 2.16-.617 3.978-2.212 4.69a4.6 4.6 0 0 1-5.158-1 4.89 4.89 0 0 1-.265-5.408 9 9 0 0 1 .574-.828c1.054-1.412.851-2.243-.737-2.947-4.738-2.1-9.874.589-10.314 5.871a132 132 0 0 0-.27 17.136c.235 4.958 4.34 7.346 9.357 5.924 3.931-1.119 6.453-3.863 7.966-7.7.517-1.314.517-1.319 2.207-1.156"/><path fill="#0071a7" d="M264.554 54.06h-7.934c2.185-9.879 4.348-19.7 6.563-29.756H257.6c-.132-.952-.488-1.733.8-1.8 4.078-.212 8.169-.45 12.247-.672a8 8 0 0 1 1.091.119c-.419 2.271-.811 4.441-1.211 6.613.164.1.323.207.486.31.939-1.064 1.823-2.189 2.824-3.184 2.333-2.325 4.9-4.148 8.387-3.869a4.5 4.5 0 0 1 3.824 6.592c-1.084 2.432-5.207 2.641-6.809.337-1.923-2.759-3.132-2.928-5.567-.546-3.639 3.554-5.44 8.079-6.383 13.093-.801 4.254-1.807 8.475-2.735 12.763M253.369 42.811c.555.239.995.426 1.416.61-1.016 5.082-6.418 10.705-11.141 11.669-5.205 1.052-8.09-1.963-6.927-7.321.926-4.241 1.956-8.46 2.937-12.691.814-3.511 1.631-7.019 2.5-10.762H236.4c-.126-.147-.245-.293-.373-.438.316-.456.6-1.28.942-1.307 4.512-.31 9.035-.509 13.559-.727a2.5 2.5 0 0 1 .6.185q-1.659 6.993-3.32 13.962c-.968 4.062-1.986 8.111-2.857 12.191-.178.815-.034 2.321.394 2.522a3.17 3.17 0 0 0 2.651-.312c2.405-1.55 3.754-4.039 4.9-6.636.119-.253.251-.496.473-.945M249.421 2.777a3.987 3.987 0 0 1 4.079 4.105 4.1 4.1 0 0 1-4.076 4.158 3.964 3.964 0 0 1-4.022-4.151 3.863 3.863 0 0 1 4.019-4.112M3.328 90.734h183.455v8.561H3.328z"/><path fill="#22283f" d="M198.779 90.691h183.463v8.561H198.779z"/></svg>