<svg version="1.2" xmlns="http://www.w3.org/2000/svg" viewBox="0 0 132 40">
    <title id="qrypt-logo">Qrypt Logo</title>
    <g clip-path="url(#a)">
        <path d="M65.868 29.485v3.003h-2.383c-.97 0-1.75-.135-2.345-.411-.596-.276-1.13-.737-1.6-1.39l-.26-.378c-2.085 1.603-4.569 2.402-7.452 2.402-2.407 0-4.56-.576-6.443-1.729-1.888-1.153-3.358-2.741-4.415-4.77-1.057-2.03-1.586-4.32-1.586-6.873 0-2.552.529-4.843 1.586-6.873 1.057-2.029 2.527-3.617 4.415-4.77 1.889-1.153 4.036-1.73 6.444-1.73 2.407 0 4.56.577 6.443 1.73 1.888 1.153 3.358 2.741 4.415 4.77 1.057 2.03 1.586 4.32 1.586 6.873 0 1.729-.25 3.342-.745 4.843a13.209 13.209 0 0 1-2.124 4.02c.346.475.707.809 1.081.993.375.189.832.28 1.38.28h2.003v.01Zm-8.456-1.729-.707-.978c-.346-.475-.696-.814-1.042-1.012-.346-.199-.76-.3-1.23-.3h-2.196v-3.003h2.72c.845 0 1.537.145 2.085.43.547.287 1.057.756 1.527 1.41l.822 1.129c1.043-1.7 1.567-3.73 1.567-6.083 0-2-.385-3.788-1.154-5.352-.768-1.565-1.845-2.79-3.224-3.681-1.379-.886-2.96-1.332-4.752-1.332-1.787 0-3.372.446-4.751 1.332-1.38.891-2.456 2.116-3.224 3.68-.77 1.565-1.154 3.347-1.154 5.353 0 2.005.385 3.787 1.154 5.351.768 1.565 1.845 2.79 3.224 3.681 1.379.891 2.96 1.332 4.752 1.332 2.157 0 4.016-.654 5.583-1.957ZM78.332 13.338v3.003h-1.528c-1.812 0-3.11.615-3.892 1.84-.783 1.226-1.173 2.742-1.173 4.543v9.764h-3.055v-19.15h2.647l.408 2.892a6.319 6.319 0 0 1 2.124-2.102c.87-.528 2.076-.79 3.613-.79h.856ZM83.27 13.338l5.848 15.624 5.665-15.624h3.243l-8.754 22.38c-.447 1.153-.846 2.015-1.192 2.592-.346.576-.783 1.002-1.302 1.278-.524.276-1.216.412-2.085.412H81.04v-2.819h2.72c.596 0 1.042-.063 1.34-.189.298-.125.538-.334.726-.62.187-.285.418-.77.687-1.448l.97-2.29-7.452-19.3h3.239v.004ZM114.583 14.278c1.379.775 2.46 1.903 3.243 3.38.783 1.477 1.172 3.23 1.172 5.26 0 1.928-.389 3.632-1.172 5.11-.783 1.477-1.869 2.63-3.258 3.453-1.393.828-2.955 1.24-4.694 1.24-1.542 0-2.859-.281-3.949-.843-1.096-.562-1.951-1.332-2.571-2.31V40.01h-3.056V13.338h2.648l.408 3.08c1.59-2.203 3.762-3.303 6.52-3.303 1.759-.005 3.33.388 4.709 1.163Zm-.447 13.725c1.153-1.312 1.734-3.012 1.734-5.09s-.576-3.773-1.734-5.09c-1.153-1.313-2.676-1.971-4.565-1.971-1.215 0-2.306.295-3.257.881-.956.591-1.696 1.415-2.215 2.48-.524 1.066-.783 2.271-.783 3.623 0 1.375.259 2.61.783 3.7.524 1.09 1.259 1.932 2.215 2.533.956.6 2.042.9 3.257.9 1.889.006 3.407-.653 4.565-1.966ZM123.544 16.152h-3.426v-2.819h3.426V7.967h3.056v5.371h4.804v2.819H126.6V27.46c0 .804.153 1.37.466 1.71.312.339.85.508 1.619.508H132v2.819h-3.502c-1.788 0-3.061-.402-3.82-1.201-.759-.8-1.134-2.063-1.134-3.793V16.152ZM23.168 21.93 34.19 33.035l-2.09 2.112-11.29-11.381 1.676 6.504-2.864.746-1.503-5.822-2.667 10.05-2.854-.775 2.768-10.427-9.994 10.073-2.095-2.106 9.864-9.948-8.735 2.266-.735-2.891 9.014-2.334L0 15.677l.764-2.881 12.516 3.38-4.137-4.174 2.09-2.107 3.983 4.02L11.825.75 14.688 0l3.479 13.498 2.258-8.51 2.863.77-2.21 8.307L31.125 3.938l2.09 2.111L22.89 16.457l11.478-2.974.74 2.887-10.767 2.79 7.72 2.082-.768 2.882-8.125-2.194Z"></path>
    </g>
    <defs>
        <clipPath id="a">
            <path fill="#fff" d="M0 0h132v40H0z"></path>
        </clipPath>
    </defs>
</svg>