<svg xmlns="http://www.w3.org/2000/svg" viewBox="0 0 132 40"><title>Qrypt Logo</title><g clip-path="url(#a)"><path d="M65.868 29.485v3.003h-2.383q-1.454.002-2.345-.411-.894-.412-1.6-1.39l-.26-.378q-3.128 2.403-7.452 2.402c-2.407 0-4.56-.576-6.443-1.729q-2.83-1.728-4.415-4.77-1.586-3.044-1.586-6.873 0-3.828 1.586-6.873 1.584-3.042 4.415-4.77 2.833-1.73 6.444-1.73c2.407 0 4.56.577 6.443 1.73q2.83 1.728 4.415 4.77 1.586 3.044 1.586 6.873-.001 2.592-.745 4.843a13.2 13.2 0 0 1-2.124 4.02c.346.475.707.809 1.081.993.375.189.832.28 1.38.28h2.003zm-8.456-1.729-.707-.978c-.346-.475-.696-.814-1.042-1.012s-.76-.3-1.23-.3h-2.196v-3.003h2.72c.845 0 1.537.145 2.085.43q.821.43 1.527 1.41l.822 1.129q1.566-2.552 1.567-6.083c0-2-.385-3.788-1.154-5.352q-1.154-2.346-3.224-3.681c-1.379-.886-2.96-1.332-4.752-1.332q-2.681.002-4.751 1.332-2.071 1.335-3.224 3.68-1.155 2.346-1.154 5.353 0 3.006 1.154 5.351t3.224 3.681c1.379.891 2.96 1.332 4.752 1.332q3.234-.001 5.583-1.957m20.92-14.418v3.003h-1.528q-2.719.001-3.892 1.84t-1.173 4.543v9.764h-3.055v-19.15h2.647l.408 2.892a6.3 6.3 0 0 1 2.124-2.102q1.306-.791 3.613-.79zm4.938 0 5.848 15.624 5.665-15.624h3.243l-8.754 22.38q-.672 1.728-1.192 2.592c-.346.576-.783 1.002-1.302 1.278-.524.276-1.216.412-2.085.412H81.04v-2.819h2.72q.894 0 1.34-.189.445-.19.726-.62.282-.43.687-1.448l.97-2.29-7.452-19.3h3.239zm31.313.94q2.069 1.164 3.243 3.38 1.173 2.215 1.172 5.26.001 2.893-1.172 5.11-1.174 2.217-3.258 3.453c-1.393.828-2.955 1.24-4.694 1.24q-2.314 0-3.949-.843-1.642-.843-2.571-2.31V40.01h-3.056V13.338h2.648l.408 3.08q2.384-3.304 6.52-3.303c1.759-.005 3.33.388 4.709 1.163m-.447 13.725c1.153-1.312 1.734-3.012 1.734-5.09s-.576-3.773-1.734-5.09q-1.73-1.97-4.565-1.971c-1.215 0-2.306.295-3.257.881-.956.591-1.696 1.415-2.215 2.48-.524 1.066-.783 2.271-.783 3.623q-.001 2.064.783 3.7c.524 1.09 1.259 1.932 2.215 2.533q1.434.9 3.257.9c1.889.006 3.407-.653 4.565-1.966m9.408-11.851h-3.426v-2.819h3.426V7.967h3.056v5.371h4.804v2.819H126.6V27.46c0 .804.153 1.37.466 1.71q.467.508 1.619.508H132v2.819h-3.502q-2.682-.001-3.82-1.201c-.759-.8-1.134-2.063-1.134-3.793zM23.168 21.93 34.19 33.035l-2.09 2.112-11.29-11.381 1.676 6.504-2.864.746-1.503-5.822-2.667 10.05-2.854-.775 2.768-10.427-9.994 10.073-2.095-2.106 9.864-9.948-8.735 2.266-.735-2.891 9.014-2.334L0 15.677l.764-2.881 12.516 3.38-4.137-4.174 2.09-2.107 3.983 4.02L11.825.75 14.688 0l3.479 13.498 2.258-8.51 2.863.77-2.21 8.307L31.125 3.938l2.09 2.111L22.89 16.457l11.478-2.974.74 2.887-10.767 2.79 7.72 2.082-.768 2.882z"/></g><defs><clipPath id="a"><path fill="#fff" d="M0 0h132v40H0z"/></clipPath></defs></svg>