<svg xmlns="http://www.w3.org/2000/svg" width="181" height="100" baseProfile="tiny-ps" viewBox="0 0 181 100"><title>Name</title><style>.shp2{fill:#000}</style><path id="Layer" d="M0 0h50v100H0z" style="fill:#154273"/><path fill-rule="evenodd" d="M20.14 62.67v1.97h.87V62.5c1.11-.2 2.5-.38 4.02-.38 3.12 0 5.75.74 6.37.93-.01-.32-.13-.61-.42-.68-.04-.01-.04-.06-.01-.08.64-.43.99.39 1 .42.23-.02.58.05.58.36 0 .93 2.12 1.44 2.61 1.52-.87.34-1.23 1.43-1.23 1.43-.63-.63-1.37-1.18-1.53-1.18s-.23.21-.24.33c-.01.04-.04.06-.07.02-.32-.49-.17-.61-.14-.75.02-.11-.01-.54-.49-.49v6.19l.25.05c.11.02 1.01-.75 2.05-1.47s1.6-.29 2.78.35c1.55.84 3.11.08 3.11.08 1.34.96 1.79 3.71 1.79 3.71.26.11.7.23 1.12.23 1.01 0 1.2-.61 1.2-.98 0-1.57-1.97-2.24-1.97-3.79 0-.37.17-1.9 2.06-1.9h1.69c.7 0 .88-.5.98-.7.03-.07.11-.03.08.03-.06.13.08.33.08.72 0 .63-.37 1.01-1.06 1.01-.31 0-.61-.09-.7-.15-.07-.04-.1.03-.07.06.3.35.32 1 .2 1.16-.03.04-.06.03-.07 0-.17-.66-.79-1.29-1.63-1.29-1.03 0-1.02.87-1.02 1.08 0 1.26 2.21 2.19 2.21 3.92 0 1.76-1.85 2.14-2.93 1.86.07 1.76 2.08 2.36 2.14 1.1 0-.05.05-.07.08.01.25.62.15 1.17-.63 1.34-.05.02-.03.05.02.08.78.49.36 2.43.32 3-.06.82.76.72.83.7.03-.01.06.01.01.07-.58.71-1.3.06-1.3.06-.54.17-.2.63.16.87.05.04.05.08-.01.08-.08.01-.92.08-1.07-.59-.37.44-.92.28-1.03.22-.16-.09-.94-.37-1.02.51-.01.06-.04.02-.07-.01-.59-.75.05-1.21.4-1.26a.594.594 0 0 0-.93.11c-.03.04-.06.04-.06-.03-.05-.95.72-1.03 1.22-.62.03-.1.19-.63-.56-.61-.02 0-.06-.02-.02-.06.59-.62 1.07-.05 1.18.08.26.31.91.19.97.18-.21-3.29-3.1-2.12-3.5-3.72-.01-.08-.05-.05-.06-.02-.11.39-1.09.45-1.27-.32-.01-.05-.01-.09.03-.05.84.83 2.73-1.78.15-3.91-2.2-1.82-4.17-.81-4.92-.21-.04.26.12.35.22.38.04.01.05.05-.01.07-.21.08-.5.06-.64-.14-.48.33-.07.74.12.86.05.03.03.06-.01.07-.44.08-.79-.37-.81-.62l-.07.04v1.87c0 2.66-3.06 3.02-6.43 5.28-3.37-2.25-6.44-2.62-6.44-5.28v-1.87l-.07-.04c-.02.26-.38.7-.81.62-.04-.01-.06-.04-.01-.07.19-.11.59-.53.12-.86-.14.19-.43.22-.64.14-.06-.03-.05-.06-.01-.07.1-.03.26-.12.22-.38-.75-.59-2.72-1.6-4.92.21-2.58 2.13-.69 4.75.15 3.91.03-.03.04 0 .03.05-.18.76-1.16.71-1.27.32 0-.03-.04-.06-.06.02-.4 1.6-3.3.43-3.5 3.72.06 0 .71.13.97-.18.12-.14.6-.7 1.18-.08.03.03 0 .06-.02.06-.75-.02-.58.51-.56.61.5-.41 1.27-.33 1.22.62 0 .08-.03.07-.06.03a.594.594 0 0 0-.93-.11c.36.05.99.51.4 1.26-.03.03-.07.07-.07.01-.07-.88-.86-.59-1.02-.51-.11.06-.66.22-1.03-.22-.15.67-.99.6-1.07.59-.06 0-.07-.04-.01-.08.37-.24.7-.7.16-.87 0 0-.72.65-1.3-.06-.06-.07-.02-.08.01-.07.07.02.89.12.83-.7-.04-.57-.46-2.51.32-3 .05-.04.07-.07.02-.08-.78-.17-.88-.72-.63-1.34.03-.08.08-.07.08-.01.06 1.26 2.08.66 2.14-1.1-1.07.27-2.93-.1-2.93-1.86 0-1.74 2.21-2.66 2.21-3.92 0-.21.01-1.08-1.02-1.08-.84 0-1.46.63-1.63 1.29 0 .03-.04.04-.07 0-.12-.15-.1-.81.2-1.16.03-.04-.01-.1-.07-.06-.09.06-.39.15-.7.15-.69 0-1.06-.38-1.06-1.01 0-.39.13-.59.08-.72-.03-.06.04-.11.08-.03.1.19.27.7.98.7h1.69c1.89 0 2.06 1.52 2.06 1.9 0 1.55-1.97 2.22-1.97 3.79 0 .36.18.98 1.2.98.41 0 .85-.12 1.12-.23 0 0 .46-2.76 1.79-3.71 0 0 1.56.76 3.11-.08 1.18-.64 1.73-1.07 2.77-.35 1.03.72 1.94 1.49 2.05 1.47l.25-.05v-6.19c-.48-.05-.51.38-.49.49.03.15.19.26-.14.75-.03.03-.07.02-.07-.02-.01-.12-.07-.33-.24-.33s-.9.55-1.53 1.18c0 0-.36-1.1-1.23-1.43.49-.08 2.61-.59 2.61-1.52 0-.31.35-.38.58-.36.01-.03.35-.85 1-.42.04.02.03.07-.01.08-.29.06-.41.36-.42.68.23-.07.75-.22 1.48-.38m9.69 1.64h-.87v2.41h.87zm-14.84-1.59c.37 0 .72-.16.79-.45.02-.07.08-.1.11.01.18.64-.28.94-.72.94-.49 0-.76-.35-1.46-.47-.31-.05-.52-.01-.52-.1s.45-.09.52-.09c.73 0 .82.16 1.28.16m-7.16 1.79c0-.06.03-.05.06-.04.55.27.84-.32.71-.92-.07-.33-.37-1.25.37-1.99.72.42 1.21-.27 1.09-.6-.03-.09-.09-.1-.09.01 0 .23-.23.4-.4.4-.29 0-.83-.33-.87-.83.75-.49 2.03-.29 2.28.64.03.12.17.11.16-.01-.01-.08-.04-.63-.59-.91-.49-.25-.31-.62-.18-.75.05-.06.15-.05.12.01-.19.33.22.48.79.41 1.2-.16 1.6.28 1.66.59.26.07 1.28.64 1.28.85 0 .06-.06.21-.16.26 0 0 .03.44-.29.72-1.28-.77-1.63-.05-1.5.46 0 0 .22.19 1.08.19 0 0-.04.31-.11.4 0 0 .2.24.06.47 0 0-.44-.33-1.2-.3 0 0-.49.74 1.32 1.09 1.82.35 2.39 2.06 2.39 3 0 .04-.02.07-.06.06-1.47-.28-2.14 1.24-4.04 1.07.16-.45-.02-.92-.02-.92-.15.4-.51.66-.77.8-.67-.15-1.12-.48-1.22-.67 0 0 .72-.59.25-1.67 0 0-.45.72-1.38.33-.08-.04-.07-.09-.01-.11 1.26-.41.44-1.47.36-1.58-.59.33-1.08-.1-1.09-.46m4.12-3.61c.14.64.7.73 1.05.34-.03-.31-.33-.38-1.05-.34m24.4 1.66c.07 0 .52 0 .52.09 0 .1-.21.05-.52.1-.7.12-.97.47-1.46.47-.44 0-.9-.3-.72-.94.03-.11.09-.08.11-.01.07.29.42.45.79.45.46 0 .56-.16 1.28-.16m4.79 2.39c-.08.11-.9 1.17.36 1.58.05.02.07.07-.01.11-.93.39-1.38-.33-1.38-.33-.47 1.08.25 1.67.25 1.67-.1.2-.54.52-1.22.67-.26-.13-.62-.4-.77-.8 0 0-.19.47-.02.92-1.9.18-2.57-1.34-4.04-1.07q-.06.015-.06-.06c0-.94.58-2.65 2.39-3s1.32-1.09 1.32-1.09c-.76-.03-1.2.3-1.2.3-.14-.22.06-.47.06-.47-.07-.09-.11-.4-.11-.4.86-.01 1.09-.19 1.09-.19.13-.51-.23-1.23-1.5-.46-.31-.29-.29-.72-.29-.72-.1-.04-.16-.2-.16-.26 0-.21 1.02-.78 1.28-.85.07-.3.46-.75 1.66-.59.56.07.97-.08.78-.41-.04-.05.07-.06.12-.01.14.13.32.5-.18.75-.55.28-.59.83-.59.91-.01.12.13.13.16.01.25-.93 1.53-1.13 2.28-.64-.04.5-.58.83-.87.83-.17 0-.4-.17-.4-.4 0-.11-.06-.1-.09-.01-.13.33.36 1.02 1.09.6.74.74.44 1.65.37 1.99-.13.61.16 1.19.71.92.03-.01.06-.02.06.04 0 .38-.5.81-1.09.46m-4.08-3.71c.35.39.91.3 1.05-.34-.71-.04-1.02.03-1.05.34M25.03 49.8c.15 0 .33.14.33.41 0 .16-.06.3-.12.38-.11.16-.09.25-.04.3s.14.07.3-.04c.08-.05.22-.12.38-.12.27 0 .41.18.41.33s-.14.33-.41.33c-.16 0-.3-.06-.38-.12-.16-.11-.25-.09-.3-.04s.03.61.09 1.04c.45.09.67.46.67.67 0 .55-.59.87-.93 1.05-.35-.19-.93-.5-.93-1.05 0-.21.22-.57.67-.67.07-.44.14-.99.09-1.04s-.14-.07-.3.04c-.08.05-.22.12-.38.12-.27 0-.41-.18-.41-.33s.14-.33.41-.33c.16 0 .3.06.38.12.16.11.25.09.3.04s.07-.14-.04-.3a.74.74 0 0 1-.12-.38c0-.27.18-.41.33-.41m-4.16 11.39c-.02-1.35-.01-2.1-.78-1.99.42-1.13-1.4-1.57-1.4-3.05 0-.97.69-1.08.89-1.08.6 0 .51.39 1.02.39.06 0 .13-.02.13.03 0 .17-.14.46-.38.46-.32 0-.33-.32-.56-.32-.1 0-.25.09-.25.41 0 .63.41 1.32.9 1.86.11-.15.26-.25.44-.25.29 0 .54.3.54.67 0 .14-.02.23-.07.35.16.09.3.14.41.14.22 0 .55-.09.55-.57 0-1.07-1.43-2.01-1.43-3.37 0-.65.44-1.29 1.34-1.29.97 0 .79.88 1.63.88.04 0 .07.02.07.05 0 .06-.15.55-.58.55-.47 0-.6-.8-1.01-.8-.15 0-.38.09-.38.63 0 .42.21 1.1.51 1.76a.6.6 0 0 1 .42-.19c.36 0 .62.34.62.76 0 .26-.1.51-.28.68.21.27.43.49.72.49.57 0 .83-.33.83-.69 0-.38-.71-.53-.71-1.13 0-.41.26-.64.52-.64.28 0 .42.18.45.18s.17-.18.45-.18c.25 0 .52.23.52.64 0 .6-.71.74-.71 1.13 0 .36.25.69.83.69.29 0 .51-.22.72-.49-.18-.16-.28-.42-.28-.68 0-.41.26-.76.62-.76.16 0 .31.08.42.19.3-.65.51-1.34.51-1.76 0-.54-.23-.63-.38-.63-.42 0-.55.8-1.01.8-.43 0-.58-.49-.58-.55 0-.04.03-.05.07-.05.84 0 .66-.88 1.63-.88.91 0 1.34.64 1.34 1.29 0 1.36-1.43 2.3-1.43 3.37 0 .48.33.57.55.57.1 0 .25-.05.41-.14a.8.8 0 0 1-.07-.35c0-.37.25-.67.54-.67.19 0 .34.1.45.25.49-.54.9-1.23.9-1.86 0-.33-.15-.41-.25-.41-.24 0-.24.32-.56.32-.24 0-.38-.29-.38-.46 0-.05.07-.03.13-.03.51 0 .42-.39 1.02-.39.2 0 .89.11.89 1.08 0 1.47-1.82 1.92-1.4 3.05-.77-.11-.77.64-.78 1.99 0 0-1.5-.51-4.17-.51-2.65 0-4.15.5-4.16.51m4.83-6.25a.67.67 0 1 1-1.34 0 .67.67 0 0 1 1.34 0m.2 20.01h-.87v2.41h.87zm-8.81 8.82v1.12c0 1.91-3.13.12-6.15-.07-2.51-.16-3.21.48-3.21.48l.46-2.53c.03-.14.57-.53 2.3-.53 2.09 0 3.13.4 3.51.53v1.33c0 .31.15.46.38.55 0-.11.35-.87 2.71-.88m18.59.88c.23-.1.38-.25.38-.55v-1.33c.39-.13 1.43-.53 3.51-.53 1.73 0 2.28.39 2.3.53l.46 2.54s-.7-.64-3.21-.48c-3.02.19-6.15 1.97-6.15.07v-1.12c2.37 0 2.72.76 2.71.87m-21.12-1.03c-.05.05-.07-.01-.07-.05v-2.58c0-.75 5.1-1.19 10.53-1.19s10.53.44 10.53 1.19v2.58c0 .05-.02.11-.07.05-.64-.74-5.58-.99-10.45-.99-4.86 0-9.8.26-10.47.99m6.02-12.74c0 .01.01.01.02 0 .05-.07.2-.27.48-.26.02 0 .02 0 .01.01-.09.04-.4.23-.3.61 0 .02.02.02.03.01.12-.17.34-.25.43-.28l-.09.66a.876.876 0 0 0 1.12-.77l-.57-.13c.62-.45 1.45-.75 2.22-.75 1.22 0 2 1.32 2 2.1 0 .19-.02.48-.17.7-.23.32-.4.25-.48.17-.03-.02-.04-.01-.03.02.1.42.65.4.72.19.02-.06.04-.04.05-.02.29 1.01 1.54-.07 2.19 1.22-.03.02-.35.19-.54.07-.37-.23-.56 0-.63.16-.01.03 0 .04.02.03.4-.09.56.17.58.24-.3-.13-.72.02-.53.54.01.03.03.03.04 0 .13-.36.44-.23.47-.21-.18.09-.43.44.01.73.02.01.03 0 .03-.02-.04-.26.08-.45.27-.45.1 0 .37.01.5-.31.18.31.54.19.71.13.02-.02.02-.04-.01-.05-.23-.07-.53-.23-.28-.41 0 0 .49.18.67-.29.02-.03.01-.05-.02-.03-.03.01-.51.27-.62-.19-.07-.31-.12-.82-.37-.93.28-.12.37-.34.16-.64-.01-.02-.04-.05-.04 0-.03.69-1.48.12-1.51-.85 1.02.26 2.03.01 2.03-1.01 0-.98-.95-1.42-.95-1.89 0-.34.29-.42.43-.42.39 0 .84.47.92.85 0 .02.02.02.04 0 .14-.2.17-.52.05-.61-.03-.03 0-.07.04-.04.09.07.86 0 .86-.53 0-.18-.05-.29-.04-.37.01-.07-.1-.09-.13-.01-.04.12-.12.39-.5.39-.32 0-.87-.16-1.25-.16-.71 0-.97.54-.97.91 0 .84.87.99.87 1.79 0 .59-.83.78-1.43.22-.15-.69-.29-1.19-.68-1.77-1.54.5-1.84-.48-2.68-.48-.7 0-1.62 1.26-2.35 1.43l.1-.74.08-.02-.02-.62s-.17.4-.19.46c-.02.05-.04.05-.06.01-.07-.18-.23-.54-.23-.54s-.01.48-.01.59c0 .03-.03.04-.05.01l-.37-.54.14.65c.01.03-.02.04-.04.02l-.5-.48.26.65c.01.03-.01.05-.04.03l-.55-.37.38.55c.02.03.01.05-.03.04-.33-.12-.56-.21-.56-.21s.21.2.44.43c.02.02.02.05-.03.05h-.51l.57.25.04-.06.49.13c-.13.14-.08.33-.11.41m2.41 4.39s.01-.01 0-.02c-.16-.1-.22-.22-.22-.31 0-.23.47-.51.61-.51s.19.14.45.14c.11 0 .24-.05.36-.19.02-.02.01-.03-.01-.02-.32.08-.51-.23-.51-.78 0-1.06.56-1.25 1.82-1.72.02-.01.02-.04-.01-.03-.24.05-.57-.33-.24-.73-.22-.15-.49-.27-.7-.27-.95 0-1.67 1.04-1.8 1.19-.12.14-.37.38-.52.17-.02-.03-.03-.02-.03.01 0 .42.34.43.48.35.01-.01.02-.01.02.01-.05.44.22 1.18.23 1.2-.03.04-.44.42-.72.42-.19 0-.23-.37-.52-.37-.09 0-.18.04-.27.14-.01.01-.01.03.02.03.22.01.35.14.3.34-.28-.23-.69-.19-.68.33 0 .02.02.03.03.01.19-.28.49-.08.52-.05-.2.03-.55.26-.24.68.01.01.02.01.02-.01 0-.09.05-.32.32-.32.29 0 .48.26.7-.01.08.35.45.32.59.32m4.36-10.4c.09-.15.64-.39.81-.42.06-.01.06-.05 0-.08-.23-.1-.76.01-.85-.1 0 0-.1-.76-.13-.78s-.71.34-.71.34c-.15-.01-.36-.51-.57-.64-.05-.03-.08-.01-.06.04.07.15.19.74.12.9-.61-.06-.81.17-.85.34-.15.04-.72.36-.72.48 0 .04.04.12.09.15 0 0-.03.21.15.37.39-.27.9-.22.81.28 0 0-.09.11-.57.11 0 0 .02.17.06.22 0 0-.11.13-.03.26 0 0 .43-.21.66-.15.09.24.01.56-.68.67-.86.14-1.33.38-1.42 1.32.67-.06 1.09.26 1.61.51.78.36 1.64-.15 1.64-.15-.19-.17-.23-.67.08-.9.16.32.51.35.74.19.02-.02.02-.05 0-.06-.37-.2-.42-.55-.24-.92.19.28.63.06.67-.18.01-.01-.01-.02-.02-.01-.29.1-.42-.22-.42-.44 0-.19.15-.88-.17-1.35m-3.81.59c-.01-.05-.05-.05-.06 0-.1.36.17.61.41.61.37 0 .4-.27.98-.34.05-.01.05-.08.01-.09s-.34-.04-.62.03c-.45.12-.68-.05-.72-.21m-7.83 13.62c-.02 0-.02-.02-.01-.03.23-.14.4-.35.4-.57 0-.4-.77-.92-1.13-.92-.21 0-.37.26-.79.26-.22 0-.47-.09-.68-.35-.01-.02-.01-.03.02-.03.18.03.65.14.87-.71.23-.89.3-1.53-.09-1.87-.34-.29-1.8-.84-2.61-1.15-.04-.02-.04-.05 0-.06.22-.06.44-.2.47-.47.02-.17-.02-.41-.21-.52.39-.43 1.18-.73 1.6-.73 1.6 0 2.95 2.16 3.6 2.16.08 0 .18-.03.28-.17.02-.03.04-.03.04.02 0 .65-.35.71-.53.71-.11 0-.22-.03-.3-.08-.02-.01-.03 0-.03.02 0 .03.01.09.01.14 0 .77-.8 1.61-.8 1.61.37.38 1.28 1.02 1.53.68.11-.13.58-.99 1.22-.31.02.02 0 .05-.04.05-.36 0-.64.24-.54.61.52-.41 1.23-.34 1.23.61 0 .04-.04.05-.06.02-.35-.49-.88-.16-.96-.09.36.06.99.48.44 1.23-.03.03-.05.03-.05 0-.05-.5-.35-.58-.6-.58-.51 0-.88.46-1.26-.03-.14.64-.85.58-1.02.55m17.61-.55c-.39.49-.76.03-1.26.03-.24 0-.54.09-.6.58-.01.03-.03.03-.05 0-.54-.75.08-1.18.44-1.23-.07-.07-.61-.4-.95.09-.02.03-.06.02-.06-.02 0-.95.71-1.02 1.23-.61.1-.37-.18-.61-.54-.61-.05 0-.06-.02-.04-.05.64-.68 1.11.17 1.22.31.26.33 1.17-.3 1.53-.68 0 0-.8-.84-.8-1.61 0-.05.01-.11.01-.14 0-.02-.01-.03-.03-.02a.6.6 0 0 1-.3.08c-.18 0-.53-.06-.53-.71 0-.05.02-.05.04-.02.09.14.2.17.28.17.65 0 2-2.16 3.6-2.16.42 0 1.21.3 1.61.73-.19.12-.23.35-.21.52.03.27.25.41.47.47.04.01.04.04 0 .06-.81.31-2.28.86-2.61 1.15-.4.34-.32.98-.09 1.87.22.85.7.74.87.71.03-.01.04.01.02.03-.21.26-.46.35-.68.35-.42 0-.57-.26-.79-.26-.37 0-1.13.52-1.13.92 0 .22.18.42.4.57.02.01.01.03-.01.03-.17.03-.88.09-1.04-.55M21.63 66.35l.42.2.2-.28-.36-.12 1.7-2.39c.04-.06.02-.42.01-.55-.12.03-.47.13-.51.19l-1.73 2.37-.23-.3-.2.28.32.34-.16.22c-.36-.22-.69.04-.8.16-.01.01 0 .01.01.01.11-.03.51-.12.51.15-.44-.13-.61.16-.66.26-.01.02 0 .02.01.02.08-.03.36-.1.48.02l-.35.49c-.08.1.29.37.37.27l.46-.64s1.5.8 1.87 1.03c.03-.31.14-.6.32-.84-.46-.12-1.4-.43-1.4-.43-.04.08-.2.14-.31.14-.24 0-.4-.27-.44-.36-.01-.01 0-.02.01-.01.06.03.23.1.28.03zm3.45-1.46c-.02-.13.24-.21.63-.19-.19.37-.44.39-.63.19" style="fill:#fff"/><g id="Name"><path d="M61.43 64.48c.57-.17.87-.45.91-.92l.68-7.92-.9-.26v-.45c.7-.09 1.55-.11 2.11-.11h.56l2.43 7.52h.02l2.36-7.52h.67c.56 0 1.26.02 1.88.11v.45l-.96.23.68 8.53.9.17v.34c-.37.17-.9.26-1.5.26-.71 0-1.16-.03-1.71-.16v-.29c.65-.16.95-.54.92-1.18l-.39-7.04h-.03l-2.76 8.6-.6.08-2.79-8.67-.02.02-.48 7.77 1.01.26v.34c-.67.2-1.04.26-1.78.26-.36 0-.81-.06-1.19-.16v-.26zM73.87 64.5c.42-.15.82-.46.82-.84v-5.24L73.7 58v-.33c.7-.2 1.41-.29 1.85-.29h.5l-.08.84v5.89l.87.23v.29c-.53.19-1.01.26-1.8.26-.36 0-.81-.03-1.16-.14v-.25zm.65-9.43c0-.48.34-.91.88-.91.43 0 .81.33.81.84 0 .54-.37.96-.87.96-.46-.01-.82-.38-.82-.89M78.04 64.5c.4-.15.82-.46.82-.84v-5.24l-1-.42v-.34c.71-.2 1.41-.28 1.86-.28h.37v.84c.53-.53 1.39-.87 2.29-.87 1.29 0 2.17.82 2.17 2.42v4.34l.81.23v.29c-.42.17-.96.26-1.63.26-.33 0-.7-.03-1.01-.14v-.25c.39-.17.56-.46.56-1.02v-2.96c0-1.52-.64-2.09-1.55-2.09-.64 0-1.25.22-1.6.48v5.21l.87.22v.29c-.53.19-1.02.26-1.8.26-.37 0-.81-.03-1.16-.14zM86.52 64.5c.42-.15.82-.46.82-.84v-5.24l-.99-.42v-.33c.7-.2 1.41-.29 1.85-.29h.5l-.08.84v5.89l.87.23v.29c-.53.19-1.01.26-1.8.26-.36 0-.81-.03-1.16-.14v-.25zm.65-9.43c0-.48.34-.91.88-.91.43 0 .81.33.81.84 0 .54-.37.96-.87.96-.46-.01-.82-.38-.82-.89M90.6 63.08c.7.65 1.36.98 2.19.98.87 0 1.32-.42 1.32-.96s-.31-.88-1.33-1.32l-.77-.33c-.9-.39-1.4-1.04-1.4-1.92 0-1.22 1.08-2.28 2.7-2.28 1.24 0 1.74.37 1.74.96 0 .23-.03.43-.08.65-.5-.34-1.18-.59-1.77-.59-.99 0-1.46.43-1.46.96 0 .56.28.87 1.21 1.22l.84.33c1.12.43 1.54 1.01 1.54 1.92 0 1.19-1.15 2.28-2.88 2.28-1.36 0-1.97-.43-1.97-1.27-.02-.21.02-.46.12-.63M97.04 60.53l.05-2.06h-.85v-.51l1.67-1.66.51-.06-.06 1.4h2.05l-.11.84h-1.98l-.03 1.95c-.02.65-.02 1.24-.02 1.81 0 1.26.37 1.69.95 1.69.45 0 .84-.16 1.15-.4l.16.06c-.06.91-.6 1.38-1.67 1.38-1.24 0-1.84-.65-1.84-2.16-.02-.75.01-1.57.02-2.28M101.14 64.5c.4-.15.82-.46.82-.84v-5.24l-1.01-.42v-.34c.71-.2 1.41-.28 1.86-.28h.37v1.08h.02l.43-.48c.42-.45.84-.68 1.36-.68.54 0 .81.23.81.67 0 .29-.09.64-.25.93-.29-.23-.63-.36-.96-.36-.48 0-.93.22-1.36.64v4.93l1.07.23v.29c-.53.19-1.04.26-1.92.26-.45 0-.88-.03-1.24-.14zM108.87 64.29l-2.45-6.09-.59-.45v-.37h2.85v.37l-.84.37 1.64 4.73h.02l1.47-4.68-.87-.42v-.37h2.33v.37l-.39.34-2.19 6.05c-1.22 3.41-2.45 4.42-3.24 4.42-.62 0-.95-.28-.95-1.21.22.05.43.06.7.06.65 0 1.6-.74 2.23-2.42z" class="shp2"/><path fill-rule="evenodd" d="M119.5 57.26c1.91 0 3.38 1.43 3.38 3.58 0 2.56-1.78 4.17-3.63 4.17-1.88 0-3.4-1.32-3.4-3.58.01-2.55 1.75-4.17 3.65-4.17m-.15 6.85c1.04 0 2.12-1.01 2.12-3.13 0-1.81-.98-2.82-2.08-2.82-1.07 0-2.12 1.07-2.12 3.12 0 1.87.98 2.83 2.08 2.83" class="shp2"/><path d="M124.17 64.5c.4-.15.82-.46.82-.84v-5.18h-.85v-.54l.85-.34v-1.15c-.02-1.64 1.07-2.82 2.98-2.82 1.1 0 1.53.29 1.53.74 0 .14-.03.36-.08.51-.57-.2-1.44-.33-2.06-.33-.64 0-1.15.59-1.15 1.69 0 .23.03 1.05.06 1.4h1.98l-.17.84h-1.83v5.63l.98.23v.29c-.53.19-1.05.26-1.91.26-.37 0-.81-.03-1.16-.14v-.25z" class="shp2"/><path fill-rule="evenodd" d="M132.68 63.28v-7.6l-.98-.33v-.34c1.01-.17 1.88-.22 3.15-.22 3.26 0 5.41 1.66 5.41 4.64 0 3.41-2.6 5.47-5.64 5.47-1.22 0-1.86-.02-2.84-.16v-.28c.56-.17.9-.47.9-1.18m2.09.72c2.19 0 3.98-1.53 3.98-4.29 0-2.57-1.72-4-3.94-4-.25 0-.53.02-.81.05v8.19c.29.02.51.05.77.05M144.71 57.27c1.67 0 2.68 1.12 2.68 2.9 0 .29 0 .6-.01.99h-4.57c0 1.74 1.01 2.74 2.29 2.74.76 0 1.6-.26 2.19-.67.03.08.06.25.06.4 0 .7-1.02 1.35-2.67 1.35-1.77 0-3.21-1.38-3.21-3.55 0-2.69 1.62-4.16 3.24-4.16m1.44 3.09c0-1.52-.65-2.25-1.57-2.25-.85 0-1.75 1.02-1.75 2.25z" class="shp2"/><path d="M148.57 64.5c.4-.15.82-.46.82-.84v-5.18h-.85v-.54l.85-.34v-1.15c-.02-1.64 1.07-2.82 2.98-2.82 1.1 0 1.53.29 1.53.74 0 .14-.03.36-.08.51-.57-.2-1.44-.33-2.06-.33-.64 0-1.15.59-1.15 1.69 0 .23.03 1.05.06 1.4h1.98l-.17.84h-1.83v5.63l.98.23v.29c-.53.19-1.05.26-1.91.26-.37 0-.81-.03-1.16-.14v-.25z" class="shp2"/><path fill-rule="evenodd" d="M156.27 57.27c1.67 0 2.68 1.12 2.68 2.9 0 .29 0 .6-.01.99h-4.57c0 1.74 1.01 2.74 2.29 2.74.76 0 1.6-.26 2.19-.67.03.08.06.25.06.4 0 .7-1.02 1.35-2.67 1.35-1.77 0-3.21-1.38-3.21-3.55 0-2.69 1.63-4.16 3.24-4.16m1.44 3.09c0-1.52-.65-2.25-1.57-2.25-.85 0-1.75 1.02-1.75 2.25z" class="shp2"/><path d="M160.14 64.5c.4-.15.82-.46.82-.84v-5.24l-1-.42v-.34c.71-.2 1.41-.28 1.86-.28h.37v.84c.53-.53 1.39-.87 2.29-.87 1.29 0 2.17.82 2.17 2.42v4.34l.81.23v.29c-.42.17-.96.26-1.63.26-.33 0-.7-.03-1.01-.14v-.25c.39-.17.56-.46.56-1.02v-2.96c0-1.52-.64-2.09-1.55-2.09-.64 0-1.25.22-1.6.48v5.21l.87.23v.29c-.53.19-1.02.26-1.8.26-.37 0-.81-.03-1.16-.14zM172.05 57.29c1.26 0 1.67.4 1.67.91 0 .29-.08.56-.19.81-.59-.47-1.15-.71-1.8-.71-1.07 0-1.98 1.05-1.98 2.85 0 1.85.98 2.78 2.19 2.78.6 0 1.29-.26 1.77-.62.05.09.08.25.08.39 0 .73-.79 1.3-2.26 1.3-1.69 0-3.12-1.41-3.12-3.57 0-2.55 1.59-4.14 3.64-4.14" class="shp2"/><path fill-rule="evenodd" d="M177.92 57.27c1.67 0 2.68 1.12 2.68 2.9 0 .29 0 .6-.02.99h-4.57c0 1.74 1.01 2.74 2.29 2.74.76 0 1.6-.26 2.19-.67.03.08.06.25.06.4 0 .7-1.02 1.35-2.67 1.35-1.77 0-3.21-1.38-3.21-3.55.01-2.69 1.64-4.16 3.25-4.16m1.45 3.09c0-1.52-.65-2.25-1.57-2.25-.85 0-1.75 1.02-1.75 2.25z" class="shp2"/></g></svg>