<svg version="1.2" baseProfile="tiny-ps" xmlns="http://www.w3.org/2000/svg" viewBox="0 0 181 100" width="181" height="100">
	<title>Name</title>
	<style>
		tspan { white-space:pre }
		.shp0 { fill: #154273 } 
		.shp1 { fill: #ffffff } 
		.shp2 { fill: #000000 } 
	</style>
	<path id="Layer" class="shp0" d="M0 0L50 0L50 100L0 100L0 0Z" />
	<path id="Layer" fill-rule="evenodd" class="shp1" d="M20.14 62.67L20.14 64.64L21.01 64.64L21.01 62.5C22.12 62.3 23.51 62.12 25.03 62.12C28.15 62.12 30.78 62.86 31.4 63.05C31.39 62.73 31.27 62.44 30.98 62.37C30.94 62.36 30.94 62.31 30.97 62.29C31.61 61.86 31.96 62.68 31.97 62.71C32.2 62.69 32.55 62.76 32.55 63.07C32.55 64 34.67 64.51 35.16 64.59C34.29 64.93 33.93 66.02 33.93 66.02C33.3 65.39 32.56 64.84 32.4 64.84C32.24 64.84 32.17 65.05 32.16 65.17C32.15 65.21 32.12 65.23 32.09 65.19C31.77 64.7 31.92 64.58 31.95 64.44C31.97 64.33 31.94 63.9 31.46 63.95L31.46 70.14L31.71 70.19C31.82 70.21 32.72 69.44 33.76 68.72C34.8 68 35.36 68.43 36.54 69.07C38.09 69.91 39.65 69.15 39.65 69.15C40.99 70.11 41.44 72.86 41.44 72.86C41.7 72.97 42.14 73.09 42.56 73.09C43.57 73.09 43.76 72.48 43.76 72.11C43.76 70.54 41.79 69.87 41.79 68.32C41.79 67.95 41.96 66.42 43.85 66.42C44.09 66.42 45.53 66.42 45.54 66.42C46.24 66.42 46.42 65.92 46.52 65.72C46.55 65.65 46.63 65.69 46.6 65.75C46.54 65.88 46.68 66.08 46.68 66.47C46.68 67.1 46.31 67.48 45.62 67.48C45.31 67.48 45.01 67.39 44.92 67.33C44.85 67.29 44.82 67.36 44.85 67.39C45.15 67.74 45.17 68.39 45.05 68.55C45.02 68.59 44.99 68.58 44.98 68.55C44.81 67.89 44.19 67.26 43.35 67.26C42.32 67.26 42.33 68.13 42.33 68.34C42.33 69.6 44.54 70.53 44.54 72.26C44.54 74.02 42.69 74.4 41.61 74.12C41.68 75.88 43.69 76.48 43.75 75.22C43.75 75.17 43.8 75.15 43.83 75.23C44.08 75.85 43.98 76.4 43.2 76.57C43.15 76.59 43.17 76.62 43.22 76.65C44 77.14 43.58 79.08 43.54 79.65C43.48 80.47 44.3 80.37 44.37 80.35C44.4 80.34 44.43 80.36 44.38 80.42C43.8 81.13 43.08 80.48 43.08 80.48C42.54 80.65 42.88 81.11 43.24 81.35C43.29 81.39 43.29 81.43 43.23 81.43C43.15 81.44 42.31 81.51 42.16 80.84C41.79 81.28 41.24 81.12 41.13 81.06C40.97 80.97 40.19 80.69 40.11 81.57C40.1 81.63 40.07 81.59 40.04 81.56C39.45 80.81 40.09 80.35 40.44 80.3C40.41 80.26 39.94 79.86 39.51 80.41C39.48 80.45 39.45 80.45 39.45 80.38C39.4 79.43 40.17 79.35 40.67 79.76C40.7 79.66 40.86 79.13 40.11 79.15C40.09 79.15 40.05 79.13 40.09 79.09C40.68 78.47 41.16 79.04 41.27 79.17C41.53 79.48 42.18 79.36 42.24 79.35C42.03 76.06 39.14 77.23 38.74 75.63C38.73 75.55 38.69 75.58 38.68 75.61C38.57 76 37.59 76.06 37.41 75.29C37.4 75.24 37.4 75.2 37.44 75.24C38.28 76.07 40.17 73.46 37.59 71.33C35.39 69.51 33.42 70.52 32.67 71.12C32.63 71.38 32.79 71.47 32.89 71.5C32.93 71.51 32.94 71.55 32.88 71.57C32.67 71.65 32.38 71.63 32.24 71.43C31.76 71.76 32.17 72.17 32.36 72.29C32.41 72.32 32.39 72.35 32.35 72.36C31.91 72.44 31.56 71.99 31.54 71.74L31.47 71.78L31.47 73.65C31.47 76.31 28.41 76.67 25.04 78.93C21.67 76.68 18.6 76.31 18.6 73.65L18.6 71.78L18.53 71.74C18.51 72 18.15 72.44 17.72 72.36C17.68 72.35 17.66 72.32 17.71 72.29C17.9 72.18 18.3 71.76 17.83 71.43C17.69 71.62 17.4 71.65 17.19 71.57C17.13 71.54 17.14 71.51 17.18 71.5C17.28 71.47 17.44 71.38 17.4 71.12C16.65 70.53 14.68 69.52 12.48 71.33C9.9 73.46 11.79 76.08 12.63 75.24C12.66 75.21 12.67 75.24 12.66 75.29C12.48 76.05 11.5 76 11.39 75.61C11.39 75.58 11.35 75.55 11.33 75.63C10.93 77.23 8.03 76.06 7.83 79.35C7.89 79.35 8.54 79.48 8.8 79.17C8.92 79.03 9.4 78.47 9.98 79.09C10.01 79.12 9.98 79.15 9.96 79.15C9.21 79.13 9.38 79.66 9.4 79.76C9.9 79.35 10.67 79.43 10.62 80.38C10.62 80.46 10.59 80.45 10.56 80.41C10.13 79.86 9.66 80.26 9.63 80.3C9.99 80.35 10.62 80.81 10.03 81.56C10 81.59 9.96 81.63 9.96 81.57C9.89 80.69 9.1 80.98 8.94 81.06C8.83 81.12 8.28 81.28 7.91 80.84C7.76 81.51 6.92 81.44 6.84 81.43C6.78 81.43 6.77 81.39 6.83 81.35C7.2 81.11 7.53 80.65 6.99 80.48C6.99 80.48 6.27 81.13 5.69 80.42C5.63 80.35 5.67 80.34 5.7 80.35C5.77 80.37 6.59 80.47 6.53 79.65C6.49 79.08 6.07 77.14 6.85 76.65C6.9 76.61 6.92 76.58 6.87 76.57C6.09 76.4 5.99 75.85 6.24 75.23C6.27 75.15 6.32 75.16 6.32 75.22C6.38 76.48 8.4 75.88 8.46 74.12C7.39 74.39 5.53 74.02 5.53 72.26C5.53 70.52 7.74 69.6 7.74 68.34C7.74 68.13 7.75 67.26 6.72 67.26C5.88 67.26 5.26 67.89 5.09 68.55C5.09 68.58 5.05 68.59 5.02 68.55C4.9 68.4 4.92 67.74 5.22 67.39C5.25 67.35 5.21 67.29 5.15 67.33C5.06 67.39 4.76 67.48 4.45 67.48C3.76 67.48 3.39 67.1 3.39 66.47C3.39 66.08 3.52 65.88 3.47 65.75C3.44 65.69 3.51 65.64 3.55 65.72C3.65 65.91 3.82 66.42 4.53 66.42C4.54 66.42 5.98 66.42 6.22 66.42C8.11 66.42 8.28 67.94 8.28 68.32C8.28 69.87 6.31 70.54 6.31 72.11C6.31 72.47 6.49 73.09 7.51 73.09C7.92 73.09 8.36 72.97 8.63 72.86C8.63 72.86 9.09 70.1 10.42 69.15C10.42 69.15 11.98 69.91 13.53 69.07C14.71 68.43 15.26 68 16.3 68.72C17.33 69.44 18.24 70.21 18.35 70.19L18.6 70.14L18.6 63.95C18.12 63.9 18.09 64.33 18.11 64.44C18.14 64.59 18.3 64.7 17.97 65.19C17.94 65.22 17.9 65.21 17.9 65.17C17.89 65.05 17.83 64.84 17.66 64.84C17.49 64.84 16.76 65.39 16.13 66.02C16.13 66.02 15.77 64.92 14.9 64.59C15.39 64.51 17.51 64 17.51 63.07C17.51 62.76 17.86 62.69 18.09 62.71C18.1 62.68 18.44 61.86 19.09 62.29C19.13 62.31 19.12 62.36 19.08 62.37C18.79 62.43 18.67 62.73 18.66 63.05C18.89 62.98 19.41 62.83 20.14 62.67ZM29.83 64.31L28.96 64.31L28.96 66.72L29.83 66.72L29.83 64.31ZM14.99 62.72C15.36 62.72 15.71 62.56 15.78 62.27C15.8 62.2 15.86 62.17 15.89 62.28C16.07 62.92 15.61 63.22 15.17 63.22C14.68 63.22 14.41 62.87 13.71 62.75C13.4 62.7 13.19 62.74 13.19 62.65C13.19 62.56 13.64 62.56 13.71 62.56C14.44 62.56 14.53 62.72 14.99 62.72ZM7.83 64.51C7.83 64.45 7.86 64.46 7.89 64.47C8.44 64.74 8.73 64.15 8.6 63.55C8.53 63.22 8.23 62.3 8.97 61.56C9.69 61.98 10.18 61.29 10.06 60.96C10.03 60.87 9.97 60.86 9.97 60.97C9.97 61.2 9.74 61.37 9.57 61.37C9.28 61.37 8.74 61.04 8.7 60.54C9.45 60.05 10.73 60.25 10.98 61.18C11.01 61.3 11.15 61.29 11.14 61.17C11.13 61.09 11.1 60.54 10.55 60.26C10.06 60.01 10.24 59.64 10.37 59.51C10.42 59.45 10.52 59.46 10.49 59.52C10.3 59.85 10.71 60 11.28 59.93C12.48 59.77 12.88 60.21 12.94 60.52C13.2 60.59 14.22 61.16 14.22 61.37C14.22 61.43 14.16 61.58 14.06 61.63C14.06 61.63 14.09 62.07 13.77 62.35C12.49 61.58 12.14 62.3 12.27 62.81C12.27 62.81 12.49 63 13.35 63C13.35 63 13.31 63.31 13.24 63.4C13.24 63.4 13.44 63.64 13.3 63.87C13.3 63.87 12.86 63.54 12.1 63.57C12.1 63.57 11.61 64.31 13.42 64.66C15.24 65.01 15.81 66.72 15.81 67.66C15.81 67.7 15.79 67.73 15.75 67.72C14.28 67.44 13.61 68.96 11.71 68.79C11.87 68.34 11.69 67.87 11.69 67.87C11.54 68.27 11.18 68.53 10.92 68.67C10.25 68.52 9.8 68.19 9.7 68C9.7 68 10.42 67.41 9.95 66.33C9.95 66.33 9.5 67.05 8.57 66.66C8.49 66.62 8.5 66.57 8.56 66.55C9.82 66.14 9 65.08 8.92 64.97C8.33 65.3 7.84 64.87 7.83 64.51ZM11.95 60.9C12.09 61.54 12.65 61.63 13 61.24C12.97 60.93 12.67 60.86 11.95 60.9ZM36.35 62.56C36.42 62.56 36.87 62.56 36.87 62.65C36.87 62.75 36.66 62.7 36.35 62.75C35.65 62.87 35.38 63.22 34.89 63.22C34.45 63.22 33.99 62.92 34.17 62.28C34.2 62.17 34.26 62.2 34.28 62.27C34.35 62.56 34.7 62.72 35.07 62.72C35.53 62.72 35.63 62.56 36.35 62.56ZM41.14 64.95C41.06 65.06 40.24 66.12 41.5 66.53C41.55 66.55 41.57 66.6 41.49 66.64C40.56 67.03 40.11 66.31 40.11 66.31C39.64 67.39 40.36 67.98 40.36 67.98C40.26 68.18 39.82 68.5 39.14 68.65C38.88 68.52 38.52 68.25 38.37 67.85C38.37 67.85 38.18 68.32 38.35 68.77C36.45 68.95 35.78 67.43 34.31 67.7C34.27 67.71 34.25 67.69 34.25 67.64C34.25 66.7 34.83 64.99 36.64 64.64C38.45 64.29 37.96 63.55 37.96 63.55C37.2 63.52 36.76 63.85 36.76 63.85C36.62 63.63 36.82 63.38 36.82 63.38C36.75 63.29 36.71 62.98 36.71 62.98C37.57 62.97 37.8 62.79 37.8 62.79C37.93 62.28 37.57 61.56 36.3 62.33C35.99 62.04 36.01 61.61 36.01 61.61C35.91 61.57 35.85 61.41 35.85 61.35C35.85 61.14 36.87 60.57 37.13 60.5C37.2 60.2 37.59 59.75 38.79 59.91C39.35 59.98 39.76 59.83 39.57 59.5C39.53 59.45 39.64 59.44 39.69 59.49C39.83 59.62 40.01 59.99 39.51 60.24C38.96 60.52 38.92 61.07 38.92 61.15C38.91 61.27 39.05 61.28 39.08 61.16C39.33 60.23 40.61 60.03 41.36 60.52C41.32 61.02 40.78 61.35 40.49 61.35C40.32 61.35 40.09 61.18 40.09 60.95C40.09 60.84 40.03 60.85 40 60.94C39.87 61.27 40.36 61.96 41.09 61.54C41.83 62.28 41.53 63.19 41.46 63.53C41.33 64.14 41.62 64.72 42.17 64.45C42.2 64.44 42.23 64.43 42.23 64.49C42.23 64.87 41.73 65.3 41.14 64.95ZM37.06 61.24C37.41 61.63 37.97 61.54 38.11 60.9C37.4 60.86 37.09 60.93 37.06 61.24ZM25.03 49.8C25.18 49.8 25.36 49.94 25.36 50.21C25.36 50.37 25.3 50.51 25.24 50.59C25.13 50.75 25.15 50.84 25.2 50.89C25.25 50.94 25.34 50.96 25.5 50.85C25.58 50.8 25.72 50.73 25.88 50.73C26.15 50.73 26.29 50.91 26.29 51.06C26.29 51.21 26.15 51.39 25.88 51.39C25.72 51.39 25.58 51.33 25.5 51.27C25.34 51.16 25.25 51.18 25.2 51.23C25.15 51.28 25.23 51.84 25.29 52.27C25.74 52.36 25.96 52.73 25.96 52.94C25.96 53.49 25.37 53.81 25.03 53.99C24.68 53.8 24.1 53.49 24.1 52.94C24.1 52.73 24.32 52.37 24.77 52.27C24.84 51.83 24.91 51.28 24.86 51.23C24.81 51.18 24.72 51.16 24.56 51.27C24.48 51.32 24.34 51.39 24.18 51.39C23.91 51.39 23.77 51.21 23.77 51.06C23.77 50.91 23.91 50.73 24.18 50.73C24.34 50.73 24.48 50.79 24.56 50.85C24.72 50.96 24.81 50.94 24.86 50.89C24.91 50.84 24.93 50.75 24.82 50.59C24.77 50.51 24.7 50.37 24.7 50.21C24.7 49.94 24.88 49.8 25.03 49.8ZM20.87 61.19C20.85 59.84 20.86 59.09 20.09 59.2C20.51 58.07 18.69 57.63 18.69 56.15C18.69 55.18 19.38 55.07 19.58 55.07C20.18 55.07 20.09 55.46 20.6 55.46C20.66 55.46 20.73 55.44 20.73 55.49C20.73 55.66 20.59 55.95 20.35 55.95C20.03 55.95 20.02 55.63 19.79 55.63C19.69 55.63 19.54 55.72 19.54 56.04C19.54 56.67 19.95 57.36 20.44 57.9C20.55 57.75 20.7 57.65 20.88 57.65C21.17 57.65 21.42 57.95 21.42 58.32C21.42 58.46 21.4 58.55 21.35 58.67C21.51 58.76 21.65 58.81 21.76 58.81C21.98 58.81 22.31 58.72 22.31 58.24C22.31 57.17 20.88 56.23 20.88 54.87C20.88 54.22 21.32 53.58 22.22 53.58C23.19 53.58 23.01 54.46 23.85 54.46C23.89 54.46 23.92 54.48 23.92 54.51C23.92 54.57 23.77 55.06 23.34 55.06C22.87 55.06 22.74 54.26 22.33 54.26C22.18 54.26 21.95 54.35 21.95 54.89C21.95 55.31 22.16 55.99 22.46 56.65C22.57 56.54 22.71 56.46 22.88 56.46C23.24 56.46 23.5 56.8 23.5 57.22C23.5 57.48 23.4 57.73 23.22 57.9C23.43 58.17 23.65 58.39 23.94 58.39C24.51 58.39 24.77 58.06 24.77 57.7C24.77 57.32 24.06 57.17 24.06 56.57C24.06 56.16 24.32 55.93 24.58 55.93C24.86 55.93 25 56.11 25.03 56.11C25.06 56.11 25.2 55.93 25.48 55.93C25.73 55.93 26 56.16 26 56.57C26 57.17 25.29 57.31 25.29 57.7C25.29 58.06 25.54 58.39 26.12 58.39C26.41 58.39 26.63 58.17 26.84 57.9C26.66 57.74 26.56 57.48 26.56 57.22C26.56 56.81 26.82 56.46 27.18 56.46C27.34 56.46 27.49 56.54 27.6 56.65C27.9 56 28.11 55.31 28.11 54.89C28.11 54.35 27.88 54.26 27.73 54.26C27.31 54.26 27.18 55.06 26.72 55.06C26.29 55.06 26.14 54.57 26.14 54.51C26.14 54.47 26.17 54.46 26.21 54.46C27.05 54.46 26.87 53.58 27.84 53.58C28.75 53.58 29.18 54.22 29.18 54.87C29.18 56.23 27.75 57.17 27.75 58.24C27.75 58.72 28.08 58.81 28.3 58.81C28.4 58.81 28.55 58.76 28.71 58.67C28.66 58.56 28.64 58.46 28.64 58.32C28.64 57.95 28.89 57.65 29.18 57.65C29.37 57.65 29.52 57.75 29.63 57.9C30.12 57.36 30.53 56.67 30.53 56.04C30.53 55.71 30.38 55.63 30.28 55.63C30.04 55.63 30.04 55.95 29.72 55.95C29.48 55.95 29.34 55.66 29.34 55.49C29.34 55.44 29.41 55.46 29.47 55.46C29.98 55.46 29.89 55.07 30.49 55.07C30.69 55.07 31.38 55.18 31.38 56.15C31.38 57.62 29.56 58.07 29.98 59.2C29.21 59.09 29.21 59.84 29.2 61.19C29.2 61.19 27.7 60.68 25.03 60.68C22.38 60.68 20.88 61.18 20.87 61.19ZM20.87 61.19C20.87 61.19 20.87 61.19 20.87 61.19C20.87 61.19 20.87 61.19 20.87 61.19ZM25.7 54.94C25.7 55.31 25.4 55.61 25.03 55.61C24.66 55.61 24.36 55.31 24.36 54.94C24.36 54.57 24.66 54.27 25.03 54.27C25.4 54.27 25.7 54.57 25.7 54.94ZM25.9 74.95L25.03 74.95L25.03 77.36L25.9 77.36L25.9 74.95ZM17.09 83.77L17.09 84.89C17.09 86.8 13.96 85.01 10.94 84.82C8.43 84.66 7.73 85.3 7.73 85.3L8.19 82.77C8.22 82.63 8.76 82.24 10.49 82.24C12.58 82.24 13.62 82.64 14 82.77L14 84.1C14 84.41 14.15 84.56 14.38 84.65C14.38 84.54 14.73 83.78 17.09 83.77ZM35.68 84.65C35.91 84.55 36.06 84.4 36.06 84.1L36.06 82.77C36.45 82.64 37.49 82.24 39.57 82.24C41.3 82.24 41.85 82.63 41.87 82.77L42.33 85.31C42.33 85.31 41.63 84.67 39.12 84.83C36.1 85.02 32.97 86.8 32.97 84.9L32.97 83.78C35.34 83.78 35.69 84.54 35.68 84.65ZM14.56 83.62C14.51 83.67 14.49 83.61 14.49 83.57L14.49 80.99C14.49 80.24 19.59 79.8 25.02 79.8C30.45 79.8 35.55 80.24 35.55 80.99L35.55 83.57C35.55 83.62 35.53 83.68 35.48 83.62C34.84 82.88 29.9 82.63 25.03 82.63C20.17 82.63 15.23 82.89 14.56 83.62ZM20.58 70.88C20.58 70.89 20.59 70.89 20.6 70.88C20.65 70.81 20.8 70.61 21.08 70.62C21.1 70.62 21.1 70.62 21.09 70.63C21 70.67 20.69 70.86 20.79 71.24C20.79 71.26 20.81 71.26 20.82 71.25C20.94 71.08 21.16 71 21.25 70.97L21.16 71.63C21.67 71.78 22.23 71.44 22.28 70.86L21.71 70.73C22.33 70.28 23.16 69.98 23.93 69.98C25.15 69.98 25.93 71.3 25.93 72.08C25.93 72.27 25.91 72.56 25.76 72.78C25.53 73.1 25.36 73.03 25.28 72.95C25.25 72.93 25.24 72.94 25.25 72.97C25.35 73.39 25.9 73.37 25.97 73.16C25.99 73.1 26.01 73.12 26.02 73.14C26.31 74.15 27.56 73.07 28.21 74.36C28.18 74.38 27.86 74.55 27.67 74.43C27.3 74.2 27.11 74.43 27.04 74.59C27.03 74.62 27.04 74.63 27.06 74.62C27.46 74.53 27.62 74.79 27.64 74.86C27.34 74.73 26.92 74.88 27.11 75.4C27.12 75.43 27.14 75.43 27.15 75.4C27.28 75.04 27.59 75.17 27.62 75.19C27.44 75.28 27.19 75.63 27.63 75.92C27.65 75.93 27.66 75.92 27.66 75.9C27.62 75.64 27.74 75.45 27.93 75.45C28.03 75.45 28.3 75.46 28.43 75.14C28.61 75.45 28.97 75.33 29.14 75.27C29.16 75.25 29.16 75.23 29.13 75.22C28.9 75.15 28.6 74.99 28.85 74.81C28.85 74.81 29.34 74.99 29.52 74.52C29.54 74.49 29.53 74.47 29.5 74.49C29.47 74.5 28.99 74.76 28.88 74.3C28.81 73.99 28.76 73.48 28.51 73.37C28.79 73.25 28.88 73.03 28.67 72.73C28.66 72.71 28.63 72.68 28.63 72.73C28.6 73.42 27.15 72.85 27.12 71.88C28.14 72.14 29.15 71.89 29.15 70.87C29.15 69.89 28.2 69.45 28.2 68.98C28.2 68.64 28.49 68.56 28.63 68.56C29.02 68.56 29.47 69.03 29.55 69.41C29.55 69.43 29.57 69.43 29.59 69.41C29.73 69.21 29.76 68.89 29.64 68.8C29.61 68.77 29.64 68.73 29.68 68.76C29.77 68.83 30.54 68.76 30.54 68.23C30.54 68.05 30.49 67.94 30.5 67.86C30.51 67.79 30.4 67.77 30.37 67.85C30.33 67.97 30.25 68.24 29.87 68.24C29.55 68.24 29 68.08 28.62 68.08C27.91 68.08 27.65 68.62 27.65 68.99C27.65 69.83 28.52 69.98 28.52 70.78C28.52 71.37 27.69 71.56 27.09 71C26.94 70.31 26.8 69.81 26.41 69.23C24.87 69.73 24.57 68.75 23.73 68.75C23.03 68.75 22.11 70.01 21.38 70.18L21.48 69.44L21.56 69.42L21.54 68.8C21.54 68.8 21.37 69.2 21.35 69.26C21.33 69.31 21.31 69.31 21.29 69.27C21.22 69.09 21.06 68.73 21.06 68.73C21.06 68.73 21.05 69.21 21.05 69.32C21.05 69.35 21.02 69.36 21 69.33L20.63 68.79C20.63 68.79 20.72 69.21 20.77 69.44C20.78 69.47 20.75 69.48 20.73 69.46L20.23 68.98C20.23 68.98 20.37 69.33 20.49 69.63C20.5 69.66 20.48 69.68 20.45 69.66C20.36 69.6 19.9 69.29 19.9 69.29C19.9 69.29 20.12 69.61 20.28 69.84C20.3 69.87 20.29 69.89 20.25 69.88C19.92 69.76 19.69 69.67 19.69 69.67C19.69 69.67 19.9 69.87 20.13 70.1C20.15 70.12 20.15 70.15 20.1 70.15C20.01 70.15 19.59 70.15 19.59 70.15L20.16 70.4L20.2 70.34L20.69 70.47C20.56 70.61 20.61 70.8 20.58 70.88ZM22.99 75.27C22.99 75.27 23 75.26 22.99 75.25C22.83 75.15 22.77 75.03 22.77 74.94C22.77 74.71 23.24 74.43 23.38 74.43C23.52 74.43 23.57 74.57 23.83 74.57C23.94 74.57 24.07 74.52 24.19 74.38C24.21 74.36 24.2 74.35 24.18 74.36C23.86 74.44 23.67 74.13 23.67 73.58C23.67 72.52 24.23 72.33 25.49 71.86C25.51 71.85 25.51 71.82 25.48 71.83C25.24 71.88 24.91 71.5 25.24 71.1C25.02 70.95 24.75 70.83 24.54 70.83C23.59 70.83 22.87 71.87 22.74 72.02C22.62 72.16 22.37 72.4 22.22 72.19C22.2 72.16 22.19 72.17 22.19 72.2C22.19 72.62 22.53 72.63 22.67 72.55C22.68 72.54 22.69 72.54 22.69 72.56C22.64 73 22.91 73.74 22.92 73.76C22.89 73.8 22.48 74.18 22.2 74.18C22.01 74.18 21.97 73.81 21.68 73.81C21.59 73.81 21.5 73.85 21.41 73.95C21.4 73.96 21.4 73.98 21.43 73.98C21.65 73.99 21.78 74.12 21.73 74.32C21.45 74.09 21.04 74.13 21.05 74.65C21.05 74.67 21.07 74.68 21.08 74.66C21.27 74.38 21.57 74.58 21.6 74.61C21.4 74.64 21.05 74.87 21.36 75.29C21.37 75.3 21.38 75.3 21.38 75.28C21.38 75.19 21.43 74.96 21.7 74.96C21.99 74.96 22.18 75.22 22.4 74.95C22.48 75.3 22.85 75.27 22.99 75.27ZM27.35 64.87C27.44 64.72 27.99 64.48 28.16 64.45C28.22 64.44 28.22 64.4 28.16 64.37C27.93 64.27 27.4 64.38 27.31 64.27C27.31 64.27 27.21 63.51 27.18 63.49C27.15 63.47 26.47 63.83 26.47 63.83C26.32 63.82 26.11 63.32 25.9 63.19C25.85 63.16 25.82 63.18 25.84 63.23C25.91 63.38 26.03 63.97 25.96 64.13C25.35 64.07 25.15 64.3 25.11 64.47C24.96 64.51 24.39 64.83 24.39 64.95C24.39 64.99 24.43 65.07 24.48 65.1C24.48 65.1 24.45 65.31 24.63 65.47C25.02 65.2 25.53 65.25 25.44 65.75C25.44 65.75 25.35 65.86 24.87 65.86C24.87 65.86 24.89 66.03 24.93 66.08C24.93 66.08 24.82 66.21 24.9 66.34C24.9 66.34 25.33 66.13 25.56 66.19C25.65 66.43 25.57 66.75 24.88 66.86C24.02 67 23.55 67.24 23.46 68.18C24.13 68.12 24.55 68.44 25.07 68.69C25.85 69.05 26.71 68.54 26.71 68.54C26.52 68.37 26.48 67.87 26.79 67.64C26.95 67.96 27.3 67.99 27.53 67.83C27.55 67.81 27.55 67.78 27.53 67.77C27.16 67.57 27.11 67.22 27.29 66.85C27.48 67.13 27.92 66.91 27.96 66.67C27.97 66.66 27.95 66.65 27.94 66.66C27.65 66.76 27.52 66.44 27.52 66.22C27.52 66.03 27.67 65.34 27.35 64.87ZM23.54 65.46C23.53 65.41 23.49 65.41 23.48 65.46C23.38 65.82 23.65 66.07 23.89 66.07C24.26 66.07 24.29 65.8 24.87 65.73C24.92 65.72 24.92 65.65 24.88 65.64C24.84 65.63 24.54 65.6 24.26 65.67C23.81 65.79 23.58 65.62 23.54 65.46ZM15.71 79.08C15.69 79.08 15.69 79.06 15.7 79.05C15.93 78.91 16.1 78.7 16.1 78.48C16.1 78.08 15.33 77.56 14.97 77.56C14.76 77.56 14.6 77.82 14.18 77.82C13.96 77.82 13.71 77.73 13.5 77.47C13.49 77.45 13.49 77.44 13.52 77.44C13.7 77.47 14.17 77.58 14.39 76.73C14.62 75.84 14.69 75.2 14.3 74.86C13.96 74.57 12.5 74.02 11.69 73.71C11.65 73.69 11.65 73.66 11.69 73.65C11.91 73.59 12.13 73.45 12.16 73.18C12.18 73.01 12.14 72.77 11.95 72.66C12.34 72.23 13.13 71.93 13.55 71.93C15.15 71.93 16.5 74.09 17.15 74.09C17.23 74.09 17.33 74.06 17.43 73.92C17.45 73.89 17.47 73.89 17.47 73.94C17.47 74.59 17.12 74.65 16.94 74.65C16.83 74.65 16.72 74.62 16.64 74.57C16.62 74.56 16.61 74.57 16.61 74.59C16.61 74.62 16.62 74.68 16.62 74.73C16.62 75.5 15.82 76.34 15.82 76.34C16.19 76.72 17.1 77.36 17.35 77.02C17.46 76.89 17.93 76.03 18.57 76.71C18.59 76.73 18.57 76.76 18.53 76.76C18.17 76.76 17.89 77 17.99 77.37C18.51 76.96 19.22 77.03 19.22 77.98C19.22 78.02 19.18 78.03 19.16 78C18.81 77.51 18.28 77.84 18.2 77.91C18.56 77.97 19.19 78.39 18.64 79.14C18.61 79.17 18.59 79.17 18.59 79.14C18.54 78.64 18.24 78.56 17.99 78.56C17.48 78.56 17.11 79.02 16.73 78.53C16.59 79.17 15.88 79.11 15.71 79.08ZM33.32 78.53C32.93 79.02 32.56 78.56 32.06 78.56C31.82 78.56 31.52 78.65 31.46 79.14C31.45 79.17 31.43 79.17 31.41 79.14C30.87 78.39 31.49 77.96 31.85 77.91C31.78 77.84 31.24 77.51 30.9 78C30.88 78.03 30.84 78.02 30.84 77.98C30.84 77.03 31.55 76.96 32.07 77.37C32.17 77 31.89 76.76 31.53 76.76C31.48 76.76 31.47 76.74 31.49 76.71C32.13 76.03 32.6 76.88 32.71 77.02C32.97 77.35 33.88 76.72 34.24 76.34C34.24 76.34 33.44 75.5 33.44 74.73C33.44 74.68 33.45 74.62 33.45 74.59C33.45 74.57 33.44 74.56 33.42 74.57C33.34 74.62 33.22 74.65 33.12 74.65C32.94 74.65 32.59 74.59 32.59 73.94C32.59 73.89 32.61 73.89 32.63 73.92C32.72 74.06 32.83 74.09 32.91 74.09C33.56 74.09 34.91 71.93 36.51 71.93C36.93 71.93 37.72 72.23 38.12 72.66C37.93 72.78 37.89 73.01 37.91 73.18C37.94 73.45 38.16 73.59 38.38 73.65C38.42 73.66 38.42 73.69 38.38 73.71C37.57 74.02 36.1 74.57 35.77 74.86C35.37 75.2 35.45 75.84 35.68 76.73C35.9 77.58 36.38 77.47 36.55 77.44C36.58 77.43 36.59 77.45 36.57 77.47C36.36 77.73 36.11 77.82 35.89 77.82C35.47 77.82 35.32 77.56 35.1 77.56C34.73 77.56 33.97 78.08 33.97 78.48C33.97 78.7 34.15 78.9 34.37 79.05C34.39 79.06 34.38 79.08 34.36 79.08C34.19 79.11 33.48 79.17 33.32 78.53ZM21.63 66.35L22.05 66.55L22.25 66.27L21.89 66.15L23.59 63.76C23.63 63.7 23.61 63.34 23.6 63.21C23.48 63.24 23.13 63.34 23.09 63.4L21.36 65.77L21.13 65.47L20.93 65.75L21.25 66.09L21.09 66.31C20.73 66.09 20.4 66.35 20.29 66.47C20.28 66.48 20.29 66.48 20.3 66.48C20.41 66.45 20.81 66.36 20.81 66.63C20.37 66.5 20.2 66.79 20.15 66.89C20.14 66.91 20.15 66.91 20.16 66.91C20.24 66.88 20.52 66.81 20.64 66.93L20.29 67.42C20.21 67.52 20.58 67.79 20.66 67.69L21.12 67.05C21.12 67.05 22.62 67.85 22.99 68.08C23.02 67.77 23.13 67.48 23.31 67.24C22.85 67.12 21.91 66.81 21.91 66.81C21.87 66.89 21.71 66.95 21.6 66.95C21.36 66.95 21.2 66.68 21.16 66.59C21.15 66.58 21.16 66.57 21.17 66.58C21.23 66.61 21.4 66.68 21.45 66.61L21.63 66.35ZM25.08 64.89C25.06 64.76 25.32 64.68 25.71 64.7C25.52 65.07 25.27 65.09 25.08 64.89Z" />
	<g id="Name">
		<path id="Layer" class="shp2" d="M61.43 64.48C62 64.31 62.3 64.03 62.34 63.56L63.02 55.64L62.12 55.38L62.12 54.93C62.82 54.84 63.67 54.82 64.23 54.82L64.79 54.82L67.22 62.34L67.24 62.34L69.6 54.82L70.27 54.82C70.83 54.82 71.53 54.84 72.15 54.93L72.15 55.38L71.19 55.61L71.87 64.14L72.77 64.31L72.77 64.65C72.4 64.82 71.87 64.91 71.27 64.91C70.56 64.91 70.11 64.88 69.56 64.75L69.56 64.46C70.21 64.3 70.51 63.92 70.48 63.28L70.09 56.24L70.06 56.24L67.3 64.84L66.7 64.92L63.91 56.25L63.89 56.27L63.41 64.04L64.42 64.3L64.42 64.64C63.75 64.84 63.38 64.9 62.64 64.9C62.28 64.9 61.83 64.84 61.45 64.74L61.45 64.48L61.43 64.48Z" />
		<path id="Layer" class="shp2" d="M73.87 64.5C74.29 64.35 74.69 64.04 74.69 63.66L74.69 58.42L73.7 58L73.7 57.67C74.4 57.47 75.11 57.38 75.55 57.38L76.05 57.38L75.97 58.22L75.97 64.11L76.84 64.34L76.84 64.63C76.31 64.82 75.83 64.89 75.04 64.89C74.68 64.89 74.23 64.86 73.88 64.75L73.88 64.5L73.87 64.5ZM74.52 55.07C74.52 54.59 74.86 54.16 75.4 54.16C75.83 54.16 76.21 54.49 76.21 55C76.21 55.54 75.84 55.96 75.34 55.96C74.88 55.95 74.52 55.58 74.52 55.07Z" />
		<path id="Layer" class="shp2" d="M78.04 64.5C78.44 64.35 78.86 64.04 78.86 63.66L78.86 58.42L77.86 58L77.86 57.66C78.57 57.46 79.27 57.38 79.72 57.38L80.09 57.38L80.09 58.22C80.62 57.69 81.48 57.35 82.38 57.35C83.67 57.35 84.55 58.17 84.55 59.77L84.55 64.11L85.36 64.34L85.36 64.63C84.94 64.8 84.4 64.89 83.73 64.89C83.4 64.89 83.03 64.86 82.72 64.75L82.72 64.5C83.11 64.33 83.28 64.04 83.28 63.48L83.28 60.52C83.28 59 82.64 58.43 81.73 58.43C81.09 58.43 80.48 58.65 80.13 58.91L80.13 64.12L81 64.34L81 64.63C80.47 64.82 79.98 64.89 79.2 64.89C78.83 64.89 78.39 64.86 78.04 64.75L78.04 64.5Z" />
		<path id="Layer" class="shp2" d="M86.52 64.5C86.94 64.35 87.34 64.04 87.34 63.66L87.34 58.42L86.35 58L86.35 57.67C87.05 57.47 87.76 57.38 88.2 57.38L88.7 57.38L88.62 58.22L88.62 64.11L89.49 64.34L89.49 64.63C88.96 64.82 88.48 64.89 87.69 64.89C87.33 64.89 86.88 64.86 86.53 64.75L86.53 64.5L86.52 64.5ZM87.17 55.07C87.17 54.59 87.51 54.16 88.05 54.16C88.48 54.16 88.86 54.49 88.86 55C88.86 55.54 88.49 55.96 87.99 55.96C87.53 55.95 87.17 55.58 87.17 55.07Z" />
		<path id="Layer" class="shp2" d="M90.6 63.08C91.3 63.73 91.96 64.06 92.79 64.06C93.66 64.06 94.11 63.64 94.11 63.1C94.11 62.56 93.8 62.22 92.78 61.78L92.01 61.45C91.11 61.06 90.61 60.41 90.61 59.53C90.61 58.31 91.69 57.25 93.31 57.25C94.55 57.25 95.05 57.62 95.05 58.21C95.05 58.44 95.02 58.64 94.97 58.86C94.47 58.52 93.79 58.27 93.2 58.27C92.21 58.27 91.74 58.7 91.74 59.23C91.74 59.79 92.02 60.1 92.95 60.45L93.79 60.78C94.91 61.21 95.33 61.79 95.33 62.7C95.33 63.89 94.18 64.98 92.45 64.98C91.09 64.98 90.48 64.55 90.48 63.71C90.46 63.5 90.5 63.25 90.6 63.08Z" />
		<path id="Layer" class="shp2" d="M97.04 60.53L97.09 58.47L96.24 58.47L96.24 57.96L97.91 56.3L98.42 56.24L98.36 57.64L100.41 57.64L100.3 58.48L98.32 58.48L98.29 60.43C98.27 61.08 98.27 61.67 98.27 62.24C98.27 63.5 98.64 63.93 99.22 63.93C99.67 63.93 100.06 63.77 100.37 63.53L100.53 63.59C100.47 64.5 99.93 64.97 98.86 64.97C97.62 64.97 97.02 64.32 97.02 62.81C97 62.06 97.03 61.24 97.04 60.53Z" />
		<path id="Layer" class="shp2" d="M101.14 64.5C101.54 64.35 101.96 64.04 101.96 63.66L101.96 58.42L100.95 58L100.95 57.66C101.66 57.46 102.36 57.38 102.81 57.38L103.18 57.38L103.18 58.46L103.2 58.46L103.63 57.98C104.05 57.53 104.47 57.3 104.99 57.3C105.53 57.3 105.8 57.53 105.8 57.97C105.8 58.26 105.71 58.61 105.55 58.9C105.26 58.67 104.92 58.54 104.59 58.54C104.11 58.54 103.66 58.76 103.23 59.18L103.23 64.11L104.3 64.34L104.3 64.63C103.77 64.82 103.26 64.89 102.38 64.89C101.93 64.89 101.5 64.86 101.14 64.75L101.14 64.5L101.14 64.5Z" />
		<path id="Layer" class="shp2" d="M108.87 64.29L106.42 58.2L105.83 57.75L105.83 57.38L108.68 57.38L108.68 57.75L107.84 58.12L109.48 62.85L109.5 62.85L110.97 58.17L110.1 57.75L110.1 57.38L112.43 57.38L112.43 57.75L112.04 58.09L109.85 64.14C108.63 67.55 107.4 68.56 106.61 68.56C105.99 68.56 105.66 68.28 105.66 67.35C105.88 67.4 106.09 67.41 106.36 67.41C107.01 67.41 107.96 66.67 108.59 64.99L108.87 64.29Z" />
		<path id="Layer" fill-rule="evenodd" class="shp2" d="M119.5 57.26C121.41 57.26 122.88 58.69 122.88 60.84C122.88 63.4 121.1 65.01 119.25 65.01C117.37 65.01 115.85 63.69 115.85 61.43C115.86 58.88 117.6 57.26 119.5 57.26ZM119.35 64.11C120.39 64.11 121.47 63.1 121.47 60.98C121.47 59.17 120.49 58.16 119.39 58.16C118.32 58.16 117.27 59.23 117.27 61.28C117.27 63.15 118.25 64.11 119.35 64.11Z" />
		<path id="Layer" class="shp2" d="M124.17 64.5C124.57 64.35 124.99 64.04 124.99 63.66L124.99 58.48L124.14 58.48L124.14 57.94L124.99 57.6L124.99 56.45C124.97 54.81 126.06 53.63 127.97 53.63C129.07 53.63 129.5 53.92 129.5 54.37C129.5 54.51 129.47 54.73 129.42 54.88C128.85 54.68 127.98 54.55 127.36 54.55C126.72 54.55 126.21 55.14 126.21 56.24C126.21 56.47 126.24 57.29 126.27 57.64L128.25 57.64L128.08 58.48L126.25 58.48L126.25 64.11L127.23 64.34L127.23 64.63C126.7 64.82 126.18 64.89 125.32 64.89C124.95 64.89 124.51 64.86 124.16 64.75L124.16 64.5L124.17 64.5Z" />
		<path id="Layer" fill-rule="evenodd" class="shp2" d="M132.68 63.28L132.68 55.68L131.7 55.35L131.7 55.01C132.71 54.84 133.58 54.79 134.85 54.79C138.11 54.79 140.26 56.45 140.26 59.43C140.26 62.84 137.66 64.9 134.62 64.9C133.4 64.9 132.76 64.88 131.78 64.74L131.78 64.46C132.34 64.29 132.68 63.99 132.68 63.28ZM134.77 64C136.96 64 138.75 62.47 138.75 59.71C138.75 57.14 137.03 55.71 134.81 55.71C134.56 55.71 134.28 55.73 134 55.76L134 63.95C134.29 63.97 134.51 64 134.77 64Z" />
		<path id="Layer" fill-rule="evenodd" class="shp2" d="M144.71 57.27C146.38 57.27 147.39 58.39 147.39 60.17C147.39 60.46 147.39 60.77 147.38 61.16L142.81 61.16C142.81 62.9 143.82 63.9 145.1 63.9C145.86 63.9 146.7 63.64 147.29 63.23C147.32 63.31 147.35 63.48 147.35 63.63C147.35 64.33 146.33 64.98 144.68 64.98C142.91 64.98 141.47 63.6 141.47 61.43C141.47 58.74 143.09 57.27 144.71 57.27ZM146.15 60.36C146.15 58.84 145.5 58.11 144.58 58.11C143.73 58.11 142.83 59.13 142.83 60.36L146.15 60.36Z" />
		<path id="Layer" class="shp2" d="M148.57 64.5C148.97 64.35 149.39 64.04 149.39 63.66L149.39 58.48L148.54 58.48L148.54 57.94L149.39 57.6L149.39 56.45C149.37 54.81 150.46 53.63 152.37 53.63C153.47 53.63 153.9 53.92 153.9 54.37C153.9 54.51 153.87 54.73 153.82 54.88C153.25 54.68 152.38 54.55 151.76 54.55C151.12 54.55 150.61 55.14 150.61 56.24C150.61 56.47 150.64 57.29 150.67 57.64L152.65 57.64L152.48 58.48L150.65 58.48L150.65 64.11L151.63 64.34L151.63 64.63C151.1 64.82 150.58 64.89 149.72 64.89C149.35 64.89 148.91 64.86 148.56 64.75L148.56 64.5L148.57 64.5Z" />
		<path id="Layer" fill-rule="evenodd" class="shp2" d="M156.27 57.27C157.94 57.27 158.95 58.39 158.95 60.17C158.95 60.46 158.95 60.77 158.94 61.16L154.37 61.16C154.37 62.9 155.38 63.9 156.66 63.9C157.42 63.9 158.26 63.64 158.85 63.23C158.88 63.31 158.91 63.48 158.91 63.63C158.91 64.33 157.89 64.98 156.24 64.98C154.47 64.98 153.03 63.6 153.03 61.43C153.03 58.74 154.66 57.27 156.27 57.27ZM157.71 60.36C157.71 58.84 157.06 58.11 156.14 58.11C155.29 58.11 154.39 59.13 154.39 60.36L157.71 60.36Z" />
		<path id="Layer" class="shp2" d="M160.14 64.5C160.54 64.35 160.96 64.04 160.96 63.66L160.96 58.42L159.96 58L159.96 57.66C160.67 57.46 161.37 57.38 161.82 57.38L162.19 57.38L162.19 58.22C162.72 57.69 163.58 57.35 164.48 57.35C165.77 57.35 166.65 58.17 166.65 59.77L166.65 64.11L167.46 64.34L167.46 64.63C167.04 64.8 166.5 64.89 165.83 64.89C165.5 64.89 165.13 64.86 164.82 64.75L164.82 64.5C165.21 64.33 165.38 64.04 165.38 63.48L165.38 60.52C165.38 59 164.74 58.43 163.83 58.43C163.19 58.43 162.58 58.65 162.23 58.91L162.23 64.12L163.1 64.35L163.1 64.64C162.57 64.83 162.08 64.9 161.3 64.9C160.93 64.9 160.49 64.87 160.14 64.76L160.14 64.5L160.14 64.5Z" />
		<path id="Layer" class="shp2" d="M172.05 57.29C173.31 57.29 173.72 57.69 173.72 58.2C173.72 58.49 173.64 58.76 173.53 59.01C172.94 58.54 172.38 58.3 171.73 58.3C170.66 58.3 169.75 59.35 169.75 61.15C169.75 63 170.73 63.93 171.94 63.93C172.54 63.93 173.23 63.67 173.71 63.31C173.76 63.4 173.79 63.56 173.79 63.7C173.79 64.43 173 65 171.53 65C169.84 65 168.41 63.59 168.41 61.43C168.41 58.88 170 57.29 172.05 57.29Z" />
		<path id="Layer" fill-rule="evenodd" class="shp2" d="M177.92 57.27C179.59 57.27 180.6 58.39 180.6 60.17C180.6 60.46 180.6 60.77 180.58 61.16L176.01 61.16C176.01 62.9 177.02 63.9 178.3 63.9C179.06 63.9 179.9 63.64 180.49 63.23C180.52 63.31 180.55 63.48 180.55 63.63C180.55 64.33 179.53 64.98 177.88 64.98C176.11 64.98 174.67 63.6 174.67 61.43C174.68 58.74 176.31 57.27 177.92 57.27ZM179.37 60.36C179.37 58.84 178.72 58.11 177.8 58.11C176.95 58.11 176.05 59.13 176.05 60.36L179.37 60.36Z" />
	</g>
</svg>