<svg xmlns="http://www.w3.org/2000/svg" xml:space="preserve" viewBox="0 0 364.733 112.013"><path d="M2001.91 672.773h83.84v87.125h-83.84zM302.602 831.531C259.215 806.359 31.363 547.715.152 368.801c-2.484-14.25 26.633-55.813 33.207-55.813 65.422 81.992 222.879 269.789 517.532 475.946-115.188 56.375-220.746 58.582-248.289 42.597M760.484 314.602c38.211 67.769 83.188 171.25 83.188 237.492 0 36.883-101.637 143.359-185.348 184.953 57.336-126.719 93.461-271.754 102.16-422.445M967.168 429.473c6.602-19.473 31.598-57.703 82.492-59.754 48.06-1.684 88.51-.766 136.59-2.922 24.85-1.121 28.88-21.145 28.88-45.742 0-7.532-7.16-27.176-29.08-27.188-80.34-.012-142.11-.476-224.038-.242v-83.891h230.548c69.78 0 104.8 54.719 104.8 119.387 0 54.102-19.44 105.875-76.69 118.477-43.08 9.476-93.65 4.183-137.74 4.14-22.52-.011-43.53 8.489-43.53 27.434v16.133c0 23.468 20.69 32.715 49.02 32.746 61.15.09 156.6.547 186.37.812v80.989H1105.5c-24.48.48-100.37 7.445-131.375-46-24.469-42.176-14.547-111.989-6.957-134.379M1787.49 643.73V211.348c12.5.086 60.87.285 83.83.488v315.73h61.26v83.899c-21.74.539-52.18 0-61.26 0v41.949c0 13.465 13.22 20.535 23.09 25.297 9.77 4.723 25.6 6.508 38.17 6.324v82.442c-27.22 5.617-67.95-4.387-93-17.762-41.55-21.602-52.09-64.504-52.09-105.985M2155.07 492.074v-280.48c30.69-.344 69.13-.246 80.62-.246v267.824c0 50.406 25.63 48.394 59.65 48.394h33.85v83.899h-25.79c-47.39 0-82.99-2.531-109.94-23.899-24.48-19.418-38.39-51.808-38.39-95.492" style="fill:#050301;fill-opacity:1;fill-rule:evenodd;stroke:none" transform="matrix(.13333 0 0 -.13333 0 112.013)"/><path d="M94.629 279.141c228.207-40.098 386.547-47.161 611.184-16.153-15.016 152.727-51.395 317.66-119.696 468.313-200.82-140.863-451.871-389.531-491.488-452.16" style="fill:#cf2935;fill-opacity:1;fill-rule:evenodd;stroke:none" transform="matrix(.13333 0 0 -.13333 0 112.013)"/><path d="M2551.68 611.465v-83.57l-156.38-.329v83.899zm-51.59-240.391h51.59v82.281h-80.6c-30.8 0-75.18-21.64-87.3-51.402-10.18-25.012-14.27-45.801-14.27-72.832 0-35.652 11.32-70.969 30.3-87.441 26.5-22.981 40.7-28.719 88.99-28.719h62.88v82.281h-62.88c-26.05 0-37.08 12.758-37.08 38.723 0 30.027 22.21 37.109 48.37 37.109m51.59 0h99.97v-43.562c0-18.664-13.65-32.27-32.25-32.27h-67.72v-82.281h83.84c26.62 0 61.72 17.039 73.88 32.559 15.8 20.156 26.08 46.453 26.08 81.992v172.629c0 7.554-6.73 39.078-9.1 45.754-4.4 12.386-13.41 26.57-21.33 35.121-14.66 15.832-51.79 30.449-82.43 30.449h-70.94v-83.57l75.3.156c12.73-1.059 24.67-20.113 24.67-34.36v-40.336h-99.97zM1440.84 490.465c0 27.426 18.19 37.101 45.15 37.101h54.82v82.286h-80.61c-70.21 0-102.22-51.36-103.19-112.938V359.773c0-40.253 3.83-83.55 20.46-106.98 16.57-23.359 48.04-41.445 87.56-41.445h75.78v83.465c-27.88.265-49.9.429-56.43.429-25.03-.008-43.54 6.899-43.54 30.656v43.567h99.97v83.66l-99.97.23zm99.97-279.117v83.465c56.7-.504 137.57-1.336 161.23-1.504v-81.961zm0 316.218h46.75c29.79 0 53.21-4.644 53.21-33.875v-8.07c0-27.07-18.1-30.687-38.66-32.637l-61.3.141v-83.66h67.71c23.61 0 54.05 7.129 68.99 16.465 30.11 18.804 45.48 53.703 45.48 88.394v30.656c0 32.547-15.25 63.208-32.63 78.665-20.29 18.039-48.96 26.207-86.67 26.207h-62.88zM2003.44 211.348h83.92v399.39c-29.72.563-71.84.727-83.84.727 0-112.496-.1-293.711-.08-400.117M165.566 204.895C254.73 139.375 450.805 0 507.359 0c53.918 0 165.454 149.441 183.797 190.383-193.984-29.863-353.308-15.481-525.59 14.512" style="fill:#050301;fill-opacity:1;fill-rule:evenodd;stroke:none" transform="matrix(.13333 0 0 -.13333 0 112.013)"/></svg>