<?xml version="1.0" encoding="UTF-8" standalone="no"?>
<svg
    xmlns:dc="http://purl.org/dc/elements/1.1/"
    xmlns:cc="http://creativecommons.org/ns#"
    xmlns:rdf="http://www.w3.org/1999/02/22-rdf-syntax-ns#"
    xmlns:svg="http://www.w3.org/2000/svg"
    xmlns="http://www.w3.org/2000/svg"
    viewBox="0 0 364.73334 112.01333"
    xml:space="preserve"
    id="svg2"
    version="1.1"><metadata
     id="metadata8"><rdf:RDF><cc:Work
         rdf:about=""><dc:format>image/svg+xml</dc:format><dc:type
           rdf:resource="http://purl.org/dc/dcmitype/StillImage" /></cc:Work></rdf:RDF></metadata><defs
     id="defs6" /><g
     transform="matrix(1.3333333,0,0,-1.3333333,0,112.01333)"
     id="g10"><g
       transform="scale(0.1)"
       id="g12"><path
         id="path14"
         style="fill:#050301;fill-opacity:1;fill-rule:evenodd;stroke:none"
         d="m 2001.91,672.773 h 83.84 v 87.125 h -83.84 v -87.125" /><path
         id="path16"
         style="fill:#050301;fill-opacity:1;fill-rule:evenodd;stroke:none"
         d="M 302.602,831.531 C 259.215,806.359 31.3633,547.715 0.152344,368.801 -2.33203,354.551 26.7852,312.988 33.3594,312.988 98.7813,394.98 256.238,582.777 550.891,788.934 435.703,845.309 330.145,847.516 302.602,831.531" /><path
         id="path18"
         style="fill:#050301;fill-opacity:1;fill-rule:evenodd;stroke:none"
         d="m 760.484,314.602 c 38.211,67.769 83.188,171.25 83.188,237.492 0,36.883 -101.637,143.359 -185.348,184.953 57.336,-126.719 93.461,-271.754 102.16,-422.445" /><path
         id="path20"
         style="fill:#050301;fill-opacity:1;fill-rule:evenodd;stroke:none"
         d="m 967.168,429.473 c 6.602,-19.473 31.598,-57.703 82.492,-59.754 48.06,-1.684 88.51,-0.766 136.59,-2.922 24.85,-1.121 28.88,-21.145 28.88,-45.742 0,-7.532 -7.16,-27.176 -29.08,-27.188 -80.34,-0.012 -142.11,-0.476 -224.038,-0.242 v -83.891 h 230.548 c 69.78,0 104.8,54.719 104.8,119.387 0,54.102 -19.44,105.875 -76.69,118.477 -43.08,9.476 -93.65,4.183 -137.74,4.14 -22.52,-0.011 -43.53,8.489 -43.53,27.434 v 16.133 c 0,23.468 20.69,32.715 49.02,32.746 61.15,0.09 156.6,0.547 186.37,0.812 v 80.989 H 1105.5 c -24.48,0.48 -100.37,7.445 -131.375,-46 -24.469,-42.176 -14.547,-111.989 -6.957,-134.379" /><path
         id="path22"
         style="fill:#050301;fill-opacity:1;fill-rule:evenodd;stroke:none"
         d="M 1787.49,643.73 V 211.348 c 12.5,0.086 60.87,0.285 83.83,0.488 v 315.73 h 61.26 v 83.899 c -21.74,0.539 -52.18,0 -61.26,0 v 41.949 c 0,13.465 13.22,20.535 23.09,25.297 9.77,4.723 25.6,6.508 38.17,6.324 v 82.442 c -27.22,5.617 -67.95,-4.387 -93,-17.762 -41.55,-21.602 -52.09,-64.504 -52.09,-105.985" /><path
         id="path24"
         style="fill:#050301;fill-opacity:1;fill-rule:evenodd;stroke:none"
         d="m 2155.07,492.074 v -280.48 c 30.69,-0.344 69.13,-0.246 80.62,-0.246 v 267.824 c 0,50.406 25.63,48.394 59.65,48.394 h 33.85 v 83.899 h -25.79 c -47.39,0 -82.99,-2.531 -109.94,-23.899 -24.48,-19.418 -38.39,-51.808 -38.39,-95.492" /><path
         id="path26"
         style="fill:#cf2935;fill-opacity:1;fill-rule:evenodd;stroke:none"
         d="M 94.6289,279.141 C 322.836,239.043 481.176,231.98 705.813,262.988 690.797,415.715 654.418,580.648 586.117,731.301 385.297,590.438 134.246,341.77 94.6289,279.141" /><path
         id="path28"
         style="fill:#050301;fill-opacity:1;fill-rule:evenodd;stroke:none"
         d="m 2551.68,611.465 v -83.57 l -156.38,-0.329 v 83.899 z m -51.59,-240.391 h 51.59 v 82.281 h -80.6 c -30.8,0 -75.18,-21.64 -87.3,-51.402 -10.18,-25.012 -14.27,-45.801 -14.27,-72.832 0,-35.652 11.32,-70.969 30.3,-87.441 26.5,-22.981 40.7,-28.719 88.99,-28.719 h 62.88 v 82.281 h -62.88 c -26.05,0 -37.08,12.758 -37.08,38.723 0,30.027 22.21,37.109 48.37,37.109 z m 51.59,0 h 99.97 v -43.562 c 0,-18.664 -13.65,-32.27 -32.25,-32.27 h -67.72 v -82.281 h 83.84 c 26.62,0 61.72,17.039 73.88,32.559 15.8,20.156 26.08,46.453 26.08,81.992 v 172.629 c 0,7.554 -6.73,39.078 -9.1,45.754 -4.4,12.386 -13.41,26.57 -21.33,35.121 -14.66,15.832 -51.79,30.449 -82.43,30.449 h -70.94 v -83.57 l 75.3,0.156 c 12.73,-1.059 24.67,-20.113 24.67,-34.36 v -40.336 h -99.97 v -82.281" /><path
         id="path30"
         style="fill:#050301;fill-opacity:1;fill-rule:evenodd;stroke:none"
         d="m 1440.84,490.465 c 0,27.426 18.19,37.101 45.15,37.101 h 54.82 v 82.286 h -80.61 c -70.21,0 -102.22,-51.36 -103.19,-112.938 V 359.773 c 0,-40.253 3.83,-83.55 20.46,-106.98 16.57,-23.359 48.04,-41.445 87.56,-41.445 h 75.78 v 83.465 c -27.88,0.265 -49.9,0.429 -56.43,0.429 -25.03,-0.008 -43.54,6.899 -43.54,30.656 v 43.567 h 99.97 v 83.66 l -99.97,0.23 z m 99.97,-279.117 v 83.465 c 56.7,-0.504 137.57,-1.336 161.23,-1.504 v -81.961 z m 0,316.218 h 46.75 c 29.79,0 53.21,-4.644 53.21,-33.875 v -8.07 c 0,-27.07 -18.1,-30.687 -38.66,-32.637 l -61.3,0.141 v -83.66 h 67.71 c 23.61,0 54.05,7.129 68.99,16.465 30.11,18.804 45.48,53.703 45.48,88.394 v 30.656 c 0,32.547 -15.25,63.208 -32.63,78.665 -20.29,18.039 -48.96,26.207 -86.67,26.207 h -62.88 v -82.286 0" /><path
         id="path32"
         style="fill:#050301;fill-opacity:1;fill-rule:evenodd;stroke:none"
         d="m 2003.44,211.348 h 83.92 v 399.39 c -29.72,0.563 -71.84,0.727 -83.84,0.727 0,-112.496 -0.1,-293.711 -0.08,-400.117" /><path
         id="path34"
         style="fill:#050301;fill-opacity:1;fill-rule:evenodd;stroke:none"
         d="M 165.566,204.895 C 254.73,139.375 450.805,0 507.359,0 561.277,0 672.813,149.441 691.156,190.383 497.172,160.52 337.848,174.902 165.566,204.895" /></g></g></svg>