<?xml version="1.0" standalone="no"?>
<!DOCTYPE svg PUBLIC "-//W3C//DTD SVG 20010904//EN"
 "http://www.w3.org/TR/2001/REC-SVG-20010904/DTD/svg10.dtd">
<svg version="1.0" xmlns="http://www.w3.org/2000/svg" viewBox="0 0 492.000000 67.000000" preserveAspectRatio="xMidYMid meet">

<g transform="translate(0.000000,67.000000) scale(0.100000,-0.100000)"
fill="#000000" stroke="none">
<path d="M165 607 c-109 -52 -173 -167 -163 -292 10 -113 67 -199 166 -246 58
-29 177 -31 236 -6 l40 17 -38 39 c-35 36 -40 38 -74 30 -98 -22 -189 39 -211
140 -12 57 -6 99 20 153 27 54 72 81 140 86 69 5 121 -19 159 -74 29 -43 38
-133 20 -189 -11 -34 -10 -39 17 -73 16 -20 35 -38 41 -40 7 -2 24 21 38 53
20 42 26 73 26 124 1 123 -46 213 -140 268 -39 23 -60 28 -137 31 -79 3 -96 0
-140 -21z"/>
<path d="M856 610 c-133 -52 -211 -210 -171 -347 39 -134 148 -217 285 -216
167 1 290 127 290 297 0 117 -81 233 -190 271 -58 21 -154 18 -214 -5z m193
-108 c90 -45 126 -155 81 -247 -22 -46 -75 -86 -132 -99 -81 -19 -185 50 -207
138 -13 54 -8 85 25 142 42 75 154 107 233 66z"/>
<path d="M2544 606 c-98 -46 -154 -144 -154 -271 0 -167 114 -289 270 -289 81
0 142 27 200 90 34 37 39 48 30 60 -18 21 -27 18 -68 -28 -72 -80 -166 -99
-259 -53 -86 43 -131 138 -120 254 19 210 249 292 384 138 23 -26 34 -32 47
-25 25 14 20 30 -21 70 -82 80 -207 102 -309 54z"/>
<path d="M1380 335 l0 -285 55 0 55 0 0 105 0 105 39 0 c45 0 50 -5 121 -132
l44 -78 58 0 c32 0 58 4 58 10 0 5 -27 54 -61 109 l-60 100 45 43 c54 53 72
107 56 170 -16 58 -36 85 -85 113 -39 23 -51 25 -183 25 l-142 0 0 -285z m275
160 c16 -15 25 -36 25 -55 0 -19 -9 -40 -25 -55 -21 -22 -33 -25 -95 -25 l-70
0 0 80 0 80 70 0 c62 0 74 -3 95 -25z"/>
<path d="M1930 335 l0 -285 180 0 180 0 0 50 0 50 -125 0 -125 0 0 70 0 70
105 0 105 0 0 50 0 50 -105 0 -105 0 0 65 0 65 125 0 125 0 0 50 0 50 -180 0
-180 0 0 -285z"/>
<path d="M3030 335 l0 -285 25 0 25 0 0 135 0 135 175 0 175 0 0 -135 0 -135
25 0 25 0 0 285 0 285 -25 0 -25 0 0 -125 0 -125 -175 0 -175 0 0 125 0 125
-25 0 -25 0 0 -285z"/>
<path d="M3709 344 c-63 -152 -116 -281 -118 -286 -2 -5 9 -8 25 -6 25 3 32
13 64 88 l36 85 136 3 136 3 35 -88 c31 -78 38 -88 62 -91 33 -4 42 -31 -94
298 -106 257 -110 265 -139 268 l-29 3 -114 -277z m200 77 c28 -68 51 -128 51
-132 0 -5 -49 -9 -110 -9 -60 0 -110 2 -110 4 0 2 18 48 41 102 23 55 47 114
55 133 8 19 16 32 18 30 2 -2 27 -60 55 -128z"/>
<path d="M4222 338 l3 -283 25 0 25 0 3 283 2 282 -30 0 -30 0 2 -282z"/>
<path d="M4450 335 l0 -285 25 0 25 0 0 240 c0 132 3 240 8 240 4 -1 87 -109
184 -240 150 -204 181 -240 203 -240 l25 0 0 285 0 285 -25 0 -25 0 -2 -241
-3 -241 -179 241 c-161 217 -181 241 -207 241 l-29 0 0 -285z"/>
<path d="M327 262 l-27 -28 38 -37 39 -38 33 31 33 31 -33 34 c-19 19 -39 35
-45 35 -6 0 -23 -13 -38 -28z"/>
<path d="M481 109 l-33 -31 28 -29 27 -28 37 32 37 32 -25 28 c-14 15 -28 27
-31 27 -3 0 -21 -14 -40 -31z"/>
</g>
</svg>
