<svg xmlns="http://www.w3.org/2000/svg" viewBox="0 0 492 67"><path d="M16.5 6.3C5.6 11.5-.8 23 .2 35.5c1 11.3 6.7 19.9 16.6 24.6 5.8 2.9 17.7 3.1 23.6.6l4-1.7-3.8-3.9c-3.5-3.6-4-3.8-7.4-3-9.8 2.2-18.9-3.9-21.1-14-1.2-5.7-.6-9.9 2-15.3 2.7-5.4 7.2-8.1 14-8.6 6.9-.5 12.1 1.9 15.9 7.4 2.9 4.3 3.8 13.3 2 18.9-1.1 3.4-1 3.9 1.7 7.3 1.6 2 3.5 3.8 4.1 4 .7.2 2.4-2.1 3.8-5.3 2-4.2 2.6-7.3 2.6-12.4.1-12.3-4.6-21.3-14-26.8-3.9-2.3-6-2.8-13.7-3.1-7.9-.3-9.6 0-14 2.1M85.6 6c-13.3 5.2-21.1 21-17.1 34.7C72.4 54.1 83.3 62.4 97 62.3c16.7-.1 29-12.7 29-29.7 0-11.7-8.1-23.3-19-27.1-5.8-2.1-15.4-1.8-21.4.5m19.3 10.8c9 4.5 12.6 15.5 8.1 24.7-2.2 4.6-7.5 8.6-13.2 9.9-8.1 1.9-18.5-5-20.7-13.8-1.3-5.4-.8-8.5 2.5-14.2 4.2-7.5 15.4-10.7 23.3-6.6M254.4 6.4C244.6 11 239 20.8 239 33.5c0 16.7 11.4 28.9 27 28.9 8.1 0 14.2-2.7 20-9 3.4-3.7 3.9-4.8 3-6-1.8-2.1-2.7-1.8-6.8 2.8-7.2 8-16.6 9.9-25.9 5.3-8.6-4.3-13.1-13.8-12-25.4 1.9-21 24.9-29.2 38.4-13.8 2.3 2.6 3.4 3.2 4.7 2.5 2.5-1.4 2-3-2.1-7-8.2-8-20.7-10.2-30.9-5.4M138 33.5V62h11V41h3.9c4.5 0 5 .5 12.1 13.2l4.4 7.8h5.8c3.2 0 5.8-.4 5.8-1 0-.5-2.7-5.4-6.1-10.9l-6-10 4.5-4.3c5.4-5.3 7.2-10.7 5.6-17-1.6-5.8-3.6-8.5-8.5-11.3-3.9-2.3-5.1-2.5-18.3-2.5H138zm27.5-16c1.6 1.5 2.5 3.6 2.5 5.5s-.9 4-2.5 5.5c-2.1 2.2-3.3 2.5-9.5 2.5h-7V15h7c6.2 0 7.4.3 9.5 2.5M193 33.5V62h36V52h-25V38h21V28h-21V15h25V5h-36zM303 33.5V62h5V35h35v27h5V5h-5v25h-35V5h-5zM370.9 32.6c-6.3 15.2-11.6 28.1-11.8 28.6s.9.8 2.5.6c2.5-.3 3.2-1.3 6.4-8.8l3.6-8.5 13.6-.3 13.6-.3 3.5 8.8c3.1 7.8 3.8 8.8 6.2 9.1 3.3.4 4.2 3.1-9.4-29.8-10.6-25.7-11-26.5-13.9-26.8l-2.9-.3zm20-7.7c2.8 6.8 5.1 12.8 5.1 13.2 0 .5-4.9.9-11 .9-6 0-11-.2-11-.4s1.8-4.8 4.1-10.2c2.3-5.5 4.7-11.4 5.5-13.3s1.6-3.2 1.8-3 2.7 6 5.5 12.8M422.2 33.2l.3 28.3h5l.3-28.3L428 5h-6zM445 33.5V62h5V38c0-13.2.3-24 .8-24 .4.1 8.7 10.9 18.4 24 15 20.4 18.1 24 20.3 24h2.5V5h-5l-.2 24.1-.3 24.1-17.9-24.1C452.5 7.4 450.5 5 447.9 5H445z"/><path d="M32.7 40.8 30 43.6l3.8 3.7 3.9 3.8L41 48l3.3-3.1-3.3-3.4c-1.9-1.9-3.9-3.5-4.5-3.5s-2.3 1.3-3.8 2.8M48.1 56.1l-3.3 3.1 2.8 2.9 2.7 2.8 3.7-3.2 3.7-3.2-2.5-2.8c-1.4-1.5-2.8-2.7-3.1-2.7s-2.1 1.4-4 3.1"/></svg>
