<svg xmlns="http://www.w3.org/2000/svg" viewBox="0 0 419 107"><path d="M360.3 4c2.3 0 6.7 1.1 9.7 2.3s7 3.2 12 6.7l4.7-2.9c2.7-1.7 6.8-3.7 9.3-4.6 2.5-.8 6-1.5 7.7-1.5 1.8 0 4.2.4 5.3 1 1.1.5 2.5 2.2 3 3.7.8 2 .8 4.3 0 7.8-.5 2.7-2.6 7.7-8.2 17l1.8 3c1 1.6 3.3 5.9 5.1 9.5 2.5 4.8 3.4 7.8 3.4 11.5 0 3.8-.5 5.5-2.2 7-1.5 1.5-3.3 2-6.8 1.8-2.5 0-6.9-1.1-9.6-2.3-2.8-1.2-6.9-3.5-13.5-8l-4.8 3.2c-2.6 1.7-6.7 4.1-9.2 5.1-2.5 1.1-6.6 2-9.1 2.1-3.4.1-5.3-.5-6.9-1.9-1.9-1.7-2.2-2.8-1.8-8 .3-4.2 1.4-7.7 3.5-11.5 1.6-3 3.8-6.9 4.8-8.5 1.8-3 1.8-3-1-7.5-1.5-2.5-3.4-6.3-4.2-8.5-.7-2.2-1.3-5.9-1.3-8.3 0-2.8.6-4.8 2-6.2s3.3-2 6.2-2z" style="fill:#7ee3ed"/><path fill-rule="evenodd" d="M316.3 44c3.1 0 8 .6 10.9 1.3 4.1.9 5.2.9 5.5-.1.2-.6 1-1.2 1.8-1.2 1.2 0 1.5 1.7 1.5 9 0 5.3-.4 9-1 9s-1.8-1.9-2.8-4.3c-1-2.3-3.5-5.7-5.5-7.5-3-2.6-4.5-3.2-8.2-3.2-3.6 0-5.1.6-7 2.5-1.6 1.5-2.5 3.7-2.5 5.5 0 1.7.9 3.9 2 5s5.3 3.6 9.2 5.6c4 2 9 4.9 11.2 6.3 2.1 1.4 4.8 4.4 5.8 6.6 1.4 2.8 1.9 5.4 1.6 8.5-.2 2.5-1.5 6.3-2.9 8.5-1.5 2.3-4.2 4.8-6.5 5.9-2.1 1-6.2 2.1-8.9 2.3-3.1.4-7.4-.1-11.5-1.2-6-1.6-6.6-1.6-7.3-.1-.4.9-1.1 1.6-1.7 1.6s-1-4.2-1-10.5c0-7.1.4-10.4 1.1-10.3.6.2 1.9 2.6 3 5.3 1.1 2.8 2.9 6.1 4.2 7.4 1.2 1.3 3.7 3 5.4 3.7 1.8.8 4.4 1.4 5.8 1.4s3.9-.7 5.5-1.5q3-1.5 4-5c.7-2.5.7-4.2-.3-6.2-.8-1.9-4.1-4.3-10.5-7.8-5.1-2.7-10.8-6.3-12.6-8-2.2-1.9-3.8-4.6-4.6-7.5-.6-2.5-.8-5.9-.5-7.5.4-1.6 1.7-4.6 2.9-6.4 1.1-1.9 3.5-4.3 5.1-5.3 2-1.2 5-1.8 8.7-1.8zM80.6 45c12.2 0 14.5.2 14.5 1.5 0 .9-.9 1.5-2.3 1.5-1.2-.1-2.8.5-3.4 1.2-.9 1-1.2 7.4-.8 49.3l3.3 1c1.8.6 3.2 1.6 3.2 2.3 0 .9-3.6 1.2-14.5 1.2-12.2 0-14.5-.2-14.5-1.5 0-.9.9-1.5 2.5-1.5 1.5 0 3.1-.9 4-2.2 1.2-1.9 1.5-6.3 1.5-23.8s-.3-21.9-1.5-23.7c-.9-1.4-2.5-2.3-4-2.3-1.6 0-2.5-.6-2.5-1.5 0-1.3 2.3-1.5 14.5-1.5m39.8.5 7.9 18.5c4.4 10.2 8.2 18.8 8.6 19.3.4.4 4.4-7.9 17.1-37.8l10.5-.2c8.9-.3 10.6-.1 10.6 1.2 0 .8-.8 1.5-1.8 1.5s-2.3.6-3 1.3c-.9.9-1.2 7.6-1.2 48.7l3 1.2c1.7.7 3 1.9 3 2.5 0 1-3.4 1.3-13.5 1.3s-13.5-.3-13.5-1.3c0-.6 1.4-1.7 6.5-3.2l.2-22.5c.2-19.4.1-22.2-1.1-20-.7 1.4-5.6 12.5-10.7 24.8-6.3 14.8-9.8 22.2-10.7 22-.8-.2-5.9-11-21.7-47.9l-.2 20.3c-.2 16.6 0 20.7 1.2 22.5.9 1.4 2.5 2.3 4 2.3 1.6 0 2.5.6 2.5 1.5 0 1.2-1.7 1.5-9.5 1.5s-9.5-.3-9.5-1.5c0-.8.9-1.5 1.9-1.5 1.1 0 2.7-.7 3.5-1.5 1.4-1.3 1.6-4.7 1.1-49l-3.3-1c-1.8-.6-3.2-1.6-3.2-2.3.1-1 2.6-1.2 21.3-.7m75.2-.5c10 0 18.3.5 21.2 1.2 2.6.7 5.9 2.4 7.4 3.8 1.6 1.5 3 4.1 3.4 6.5.4 2.6.2 5-.7 6.9-.7 1.7-3.3 4-10.7 8.1l3.7 1.2c2 .7 5.3 2.8 7.2 4.8 3.1 3.2 3.5 4.2 3.5 9s-.4 5.8-3.5 9c-1.9 1.9-5.5 4.3-8 5.3-3.6 1.4-7.9 1.7-21.9 1.7-13.1 0-17.5-.3-17.8-1.3-.1-.6.6-1.2 1.7-1.2s2.9-.9 4-2c1.9-1.9 2-3.3 2-23.5 0-11.8-.4-22.5-.9-23.8s-2.1-2.5-4-3c-1.7-.4-3.1-1.2-3.1-1.7 0-.6 6.2-1 16.5-1m4.3 15.2.2 9.8c7 0 8.7-.6 10.5-2.5 2.1-2.1 2.5-3.5 2.5-8.5 0-5.1-.4-6.4-2.5-8.5-1.5-1.5-3.6-2.5-5.3-2.5-1.5 0-3.4.5-4.2 1.2-1.1.9-1.4 3.6-1.2 11m.2 24.3c0 5.8.4 11.4 1 12.5.8 1.5 2 2 5 2 2.9 0 4.8-.7 6.4-2.3 1.2-1.2 2.5-4.1 2.9-6.5.4-2.3.2-6-.3-8.2-.6-2.4-2.1-4.8-3.8-6-1.7-1.4-4.2-2.1-7-2h-4.2zM22.6 45l29 35.4.3-12c.2-6.5.1-13.4-.3-15.2-.4-2.4-1.3-3.5-3.5-4.5-1.7-.6-3-1.8-3-2.5 0-.9 2.4-1.2 8.5-1.2 6.9 0 8.5.3 8.5 1.5 0 .8-.6 1.5-1.4 1.5s-2.2.7-3 1.5c-1.4 1.3-1.6 5.3-1.6 28.5 0 21.1-.3 26.9-1.3 26.7-.6-.2-9.5-10.5-38.2-45.3l-.2 18.5c-.3 16.5-.1 18.8 1.5 20.4.9 1 2.5 1.8 3.4 1.7 1 0 1.8.7 1.8 1.5 0 1.2-1.7 1.5-9 1.5s-9-.3-9-1.5c0-.8 1-1.6 2.2-1.8 1.2-.1 2.8-1.3 3.5-2.7.9-1.8 1.3-8.5 1.3-43l-3.5-3.5c-1.9-1.9-3.5-4-3.5-4.5 0-.6 3.6-1 17.5-1M250 45c8.3 0 15.1.3 15.1.7 0 .5-1.7 1.3-3.7 2-2.5.8-4.1 2-4.5 3.5-.4 1.3-.8 9.4-.8 18 0 8.7.4 17.9 1 20.5.5 2.7 2 5.8 3.2 7 1.3 1.3 4.1 2.6 6.3 2.9 2.6.4 5.5.1 8.2-1 3.3-1.2 4.8-2.6 6.3-5.6 1.8-3.6 2-6 2-22.5 0-10.2-.3-19.2-.8-20.1-.4-.8-2.2-1.9-4-2.5-1.7-.5-3.2-1.4-3.2-1.9 0-.6 3.8-1 9.5-1s9.5.4 9.5 1c0 .5-1.2 1.6-5.5 3.5l-.5 20c-.5 18-.8 20.4-2.8 24.2-1.2 2.4-3.7 5.4-5.5 6.7-1.7 1.3-5.7 2.9-8.7 3.5-3.9.8-7.1.8-10.8.1-2.8-.5-6.4-1.6-8-2.4-1.5-.8-3.7-2.5-4.9-3.8-1.2-1.2-2.6-3.5-3.2-5.1-.6-1.5-1.1-10.1-1.1-20 0-9.4-.3-18.7-.7-20.5-.6-2.6-1.5-3.5-3.7-4-1.6-.4-3.1-1.3-3.4-2-.3-.9 3-1.2 14.7-1.2" style="fill:#00a0c6"/></svg>