<svg version="1.2" xmlns="http://www.w3.org/2000/svg" viewBox="0 0 419 107"><style>.a{fill:#7ee3ed}.b{fill:#00a0c6}</style><path class="a" d="m360.3 4c2.3 0 6.7 1.1 9.7 2.3 3 1.2 7 3.2 12 6.7l4.7-2.9c2.7-1.7 6.8-3.7 9.3-4.6 2.5-0.8 6-1.5 7.7-1.5 1.8 0 4.2 0.4 5.3 1 1.1 0.5 2.5 2.2 3 3.7 0.8 2 0.8 4.3 0 7.8-0.5 2.7-2.6 7.7-8.2 17l1.8 3c1 1.6 3.3 5.9 5.1 9.5 2.5 4.8 3.4 7.8 3.4 11.5 0 3.8-0.5 5.5-2.2 7-1.5 1.5-3.3 2-6.8 1.8-2.5 0-6.9-1.1-9.6-2.3-2.8-1.2-6.9-3.5-13.5-8l-4.8 3.2c-2.6 1.7-6.7 4.1-9.2 5.1-2.5 1.1-6.6 2-9.1 2.1-3.4 0.1-5.3-0.5-6.9-1.9-1.9-1.7-2.2-2.8-1.8-8 0.3-4.2 1.4-7.7 3.5-11.5 1.6-3 3.8-6.9 4.8-8.5 1.8-3 1.8-3-1-7.5-1.5-2.5-3.4-6.3-4.2-8.5-0.7-2.2-1.3-5.9-1.3-8.3 0-2.8 0.6-4.8 2-6.2 1.4-1.4 3.3-2 6.2-2z"/><path fill-rule="evenodd" class="b" d="m316.3 44c3.1 0 8 0.6 10.9 1.3 4.1 0.9 5.2 0.9 5.5-0.1 0.2-0.6 1-1.2 1.8-1.2 1.2 0 1.5 1.7 1.5 9 0 5.3-0.4 9-1 9-0.6 0-1.8-1.9-2.8-4.3-1-2.3-3.5-5.7-5.5-7.5-3-2.6-4.5-3.2-8.2-3.2-3.6 0-5.1 0.6-7 2.5-1.6 1.5-2.5 3.7-2.5 5.5 0 1.7 0.9 3.9 2 5 1.1 1.1 5.3 3.6 9.2 5.6 4 2 9 4.9 11.2 6.3 2.1 1.4 4.8 4.4 5.8 6.6 1.4 2.8 1.9 5.4 1.6 8.5-0.2 2.5-1.5 6.3-2.9 8.5-1.5 2.3-4.2 4.8-6.5 5.9-2.1 1-6.2 2.1-8.9 2.3-3.1 0.4-7.4-0.1-11.5-1.2-6-1.6-6.6-1.6-7.3-0.1-0.4 0.9-1.1 1.6-1.7 1.6-0.6 0-1-4.2-1-10.5 0-7.1 0.4-10.4 1.1-10.3 0.6 0.2 1.9 2.6 3 5.3 1.1 2.8 2.9 6.1 4.2 7.4 1.2 1.3 3.7 3 5.4 3.7 1.8 0.8 4.4 1.4 5.8 1.4 1.4 0 3.9-0.7 5.5-1.5q3-1.5 4-5c0.7-2.5 0.7-4.2-0.3-6.2-0.8-1.9-4.1-4.3-10.5-7.8-5.1-2.7-10.8-6.3-12.6-8-2.2-1.9-3.8-4.6-4.6-7.5-0.6-2.5-0.8-5.9-0.5-7.5 0.4-1.6 1.7-4.6 2.9-6.4 1.1-1.9 3.5-4.3 5.1-5.3 2-1.2 5-1.8 8.7-1.8zm-235.7 1c12.2 0 14.5 0.2 14.5 1.5 0 0.9-0.9 1.5-2.3 1.5-1.2-0.1-2.8 0.5-3.4 1.2-0.9 1-1.2 7.4-0.8 49.3l3.3 1c1.8 0.6 3.2 1.6 3.2 2.3 0 0.9-3.6 1.2-14.5 1.2-12.2 0-14.5-0.2-14.5-1.5 0-0.9 0.9-1.5 2.5-1.5 1.5 0 3.1-0.9 4-2.2 1.2-1.9 1.5-6.3 1.5-23.8 0-17.5-0.3-21.9-1.5-23.7-0.9-1.4-2.5-2.3-4-2.3-1.6 0-2.5-0.6-2.5-1.5 0-1.3 2.3-1.5 14.5-1.5zm39.8 0.5l7.9 18.5c4.4 10.2 8.2 18.8 8.6 19.3 0.4 0.4 4.4-7.9 17.1-37.8l10.5-0.2c8.9-0.3 10.6-0.1 10.6 1.2 0 0.8-0.8 1.5-1.8 1.5-1 0-2.3 0.6-3 1.3-0.9 0.9-1.2 7.6-1.2 48.7l3 1.2c1.7 0.7 3 1.9 3 2.5 0 1-3.4 1.3-13.5 1.3-10.1 0-13.5-0.3-13.5-1.3 0-0.6 1.4-1.7 6.5-3.2l0.2-22.5c0.2-19.4 0.1-22.2-1.1-20-0.7 1.4-5.6 12.5-10.7 24.8-6.3 14.8-9.8 22.2-10.7 22-0.8-0.2-5.9-11-21.7-47.9l-0.2 20.3c-0.2 16.6 0 20.7 1.2 22.5 0.9 1.4 2.5 2.3 4 2.3 1.6 0 2.5 0.6 2.5 1.5 0 1.2-1.7 1.5-9.5 1.5-7.8 0-9.5-0.3-9.5-1.5 0-0.8 0.9-1.5 1.9-1.5 1.1 0 2.7-0.7 3.5-1.5 1.4-1.3 1.6-4.7 1.1-49l-3.3-1c-1.8-0.6-3.2-1.6-3.2-2.3 0.1-1 2.6-1.2 21.3-0.7zm75.2-0.5c10 0 18.3 0.5 21.2 1.2 2.6 0.7 5.9 2.4 7.4 3.8 1.6 1.5 3 4.1 3.4 6.5 0.4 2.6 0.2 5-0.7 6.9-0.7 1.7-3.3 4-10.7 8.1l3.7 1.2c2 0.7 5.3 2.8 7.2 4.8 3.1 3.2 3.5 4.2 3.5 9 0 4.8-0.4 5.8-3.5 9-1.9 1.9-5.5 4.3-8 5.3-3.6 1.4-7.9 1.7-21.9 1.7-13.1 0-17.5-0.3-17.8-1.3-0.1-0.6 0.6-1.2 1.7-1.2 1.1 0 2.9-0.9 4-2 1.9-1.9 2-3.3 2-23.5 0-11.8-0.4-22.5-0.9-23.8-0.5-1.3-2.1-2.5-4-3-1.7-0.4-3.1-1.2-3.1-1.7 0-0.6 6.2-1 16.5-1zm4.3 15.2l0.2 9.8c7 0 8.7-0.6 10.5-2.5 2.1-2.1 2.5-3.5 2.5-8.5 0-5.1-0.4-6.4-2.5-8.5-1.5-1.5-3.6-2.5-5.3-2.5-1.5 0-3.4 0.5-4.2 1.2-1.1 0.9-1.4 3.6-1.2 11zm0.2 24.3c0 5.8 0.4 11.4 1 12.5 0.8 1.5 2 2 5 2 2.9 0 4.8-0.7 6.4-2.3 1.2-1.2 2.5-4.1 2.9-6.5 0.4-2.3 0.2-6-0.3-8.2-0.6-2.4-2.1-4.8-3.8-6-1.7-1.4-4.2-2.1-7-2h-4.2zm-177.5-39.5l29 35.4 0.3-12c0.2-6.5 0.1-13.4-0.3-15.2-0.4-2.4-1.3-3.5-3.5-4.5-1.7-0.6-3-1.8-3-2.5 0-0.9 2.4-1.2 8.5-1.2 6.9 0 8.5 0.3 8.5 1.5 0 0.8-0.6 1.5-1.4 1.5-0.8 0-2.2 0.7-3 1.5-1.4 1.3-1.6 5.3-1.6 28.5 0 21.1-0.3 26.9-1.3 26.7-0.6-0.2-9.5-10.5-38.2-45.3l-0.2 18.5c-0.3 16.5-0.1 18.8 1.5 20.4 0.9 1 2.5 1.8 3.4 1.7 1 0 1.8 0.7 1.8 1.5 0 1.2-1.7 1.5-9 1.5-7.3 0-9-0.3-9-1.5 0-0.8 1-1.6 2.2-1.8 1.2-0.1 2.8-1.3 3.5-2.7 0.9-1.8 1.3-8.5 1.3-43l-3.5-3.5c-1.9-1.9-3.5-4-3.5-4.5 0-0.6 3.6-1 17.5-1zm227.4 0c8.3 0 15.1 0.3 15.1 0.7 0 0.5-1.7 1.3-3.7 2-2.5 0.8-4.1 2-4.5 3.5-0.4 1.3-0.8 9.4-0.8 18 0 8.7 0.4 17.9 1 20.5 0.5 2.7 2 5.8 3.2 7 1.3 1.3 4.1 2.6 6.3 2.9 2.6 0.4 5.5 0.1 8.2-1 3.3-1.2 4.8-2.6 6.3-5.6 1.8-3.6 2-6 2-22.5 0-10.2-0.3-19.2-0.8-20.1-0.4-0.8-2.2-1.9-4-2.5-1.7-0.5-3.2-1.4-3.2-1.9 0-0.6 3.8-1 9.5-1 5.7 0 9.5 0.4 9.5 1 0 0.5-1.2 1.6-5.5 3.5l-0.5 20c-0.5 18-0.8 20.4-2.8 24.2-1.2 2.4-3.7 5.4-5.5 6.7-1.7 1.3-5.7 2.9-8.7 3.5-3.9 0.8-7.1 0.8-10.8 0.1-2.8-0.5-6.4-1.6-8-2.4-1.5-0.8-3.7-2.5-4.9-3.8-1.2-1.2-2.6-3.5-3.2-5.1-0.6-1.5-1.1-10.1-1.1-20 0-9.4-0.3-18.7-0.7-20.5-0.6-2.6-1.5-3.5-3.7-4-1.6-0.4-3.1-1.3-3.4-2-0.3-0.9 3-1.2 14.7-1.2z"/></svg>