<?xml version="1.0"?>
<svg xmlns="http://www.w3.org/2000/svg" xmlns:svg="http://www.w3.org/2000/svg">
 <g class="layer">
  <title>Layer 1</title>
  <path d="m53.36,32.85c0.42,-1.88 0.64,-3.84 0.64,-5.85c0,-14.91 -12.09,-27 -27,-27c-14.91,0 -27,12.09 -27,27c0,14.91 12.09,27 27,27c2.01,0 3.97,-0.22 5.85,-0.64l-8.71,-8.7c-5.66,-5.67 -5.66,-14.85 0,-20.52c5.67,-5.66 14.85,-5.66 20.52,0l8.7,8.71z" fill="#B6B6B6" id="svg_1"/>
  <path d="m27.01,27.01c4.16,-4.16 10.9,-4.16 15.06,0l8.8,8.8c4.16,4.16 4.16,10.9 0,15.06c-4.16,4.16 -10.9,4.16 -15.06,0l-8.8,-8.8c-4.16,-4.16 -4.16,-10.9 0,-15.06z" fill="#2558DD" id="svg_2"/>
  <text fill="#2558dd" font-family="Sans-serif" font-size="19" font-weight="bold" id="svg_4" stroke-width="0" text-anchor="middle" x="102.5" xml:space="preserve" y="20.8">QUANTAG</text>
  <text fill="#320ea5" font-family="Sans-serif" font-size="13" id="svg_5" letter-spacing="0" stroke-width="0" text-anchor="middle" word-spacing="-1" x="105" xml:space="preserve" y="35.05">IT SOLUTIONS</text>
 </g>
</svg>