<svg  xmlns="http://www.w3.org/2000/svg" fill="none">

 <g>
  <title>Layer 1</title>
  <path id="svg_1" fill="#B6B6B6" d="m53.3647,32.8491c0.416,-1.8834 0.6353,-3.8406 0.6353,-5.8491c0,-14.9117 -12.0883,-27 -27,-27c-14.9117,0 -27,12.0883 -27,27c0,14.9117 12.0883,27 27,27c2.0085,0 3.9657,-0.2193 5.8491,-0.6353l-8.7056,-8.7056c-5.6652,-5.6652 -5.6652,-14.8504 0,-20.5156c5.6652,-5.6652 14.8504,-5.6652 20.5156,0l8.7056,8.7056z"/>
  <path id="svg_2" fill="#2558DD" d="m27.0077,27.0075c4.1597,-4.1597 10.9038,-4.1597 15.0635,0l8.8018,8.8018c4.1597,4.1597 4.1597,10.9039 0,15.0635c-4.1596,4.1597 -10.9038,4.1597 -15.0635,0l-8.8018,-8.8018c-4.1597,-4.1597 -4.1597,-10.9038 0,-15.0635z"/>
  <text font-weight="bold" xml:space="preserve" text-anchor="start" font-family="'Lexend'" font-size="18" id="svg_4" y="19" x="58.99994" stroke-width="0" fill="#2558DD">QUANTAG</text>
  <text xml:space="preserve" text-anchor="start" font-family="'Lexend'" font-size="12" id="svg_5" y="31.83333" x="60.26878" stroke-width="0" fill="#320ea5">IT SOLUTIONS</text>
 </g>
</svg>