<?xml version="1.0" encoding="UTF-8"?>
<svg xmlns="http://www.w3.org/2000/svg" version="1.1" style="shape-rendering:geometricPrecision; text-rendering:geometricPrecision; image-rendering:optimizeQuality; fill-rule:evenodd; clip-rule:evenodd" xmlns:xlink="http://www.w3.org/1999/xlink">
<g><path style="opacity:0.992" fill="#b5b5b5" d="M 96.5,-0.5 C 107.167,-0.5 117.833,-0.5 128.5,-0.5C 171.571,7.72921 201.738,32.0625 219,72.5C 225.154,90.6887 227.154,109.355 225,128.5C 224.802,131.702 223.969,134.702 222.5,137.5C 208.347,123.847 194.347,110.014 180.5,96C 157.833,80.519 134.5,79.519 110.5,93C 87.059,110.32 78.8924,133.154 86,161.5C 88.5539,168.276 91.8873,174.609 96,180.5C 109.667,194.167 123.333,207.833 137,221.5C 137.591,222.483 137.257,223.15 136,223.5C 133.331,224.016 130.831,224.683 128.5,225.5C 117.833,225.5 107.167,225.5 96.5,225.5C 53.4287,217.271 23.262,192.937 6,152.5C 3.4921,144.458 1.32544,136.458 -0.5,128.5C -0.5,117.833 -0.5,107.167 -0.5,96.5C 7.72921,53.4287 32.0625,23.262 72.5,6C 80.5419,3.4921 88.5419,1.32544 96.5,-0.5 Z"/></g>
<g><path style="opacity:0.969" fill="#2458dd" d="M 272.5,40.5 C 300.269,38.7716 312.436,51.7716 309,79.5C 308.011,84.3121 305.844,88.4787 302.5,92C 305.817,92.4983 309.15,92.665 312.5,92.5C 312.5,95.8333 312.5,99.1667 312.5,102.5C 298.856,102.143 285.189,101.976 271.5,102C 257.169,97.3083 250.169,87.3083 250.5,72C 250.122,55.8703 257.456,45.3703 272.5,40.5 Z M 277.5,49.5 C 291.446,50.1162 298.113,57.4495 297.5,71.5C 297.141,89.3788 288.475,95.8788 271.5,91C 261.961,81.2181 260.128,70.0514 266,57.5C 268.961,53.3396 272.795,50.6729 277.5,49.5 Z"/></g>
<g><path style="opacity:0.961" fill="#2458dd" d="M 670.5,69.5 C 670.5,79.5 670.5,89.5 670.5,99.5C 657.787,103.665 645.121,103.498 632.5,99C 619.836,89.8798 615.669,77.7132 620,62.5C 625.731,47.0425 636.898,39.7092 653.5,40.5C 657.902,40.4848 662.235,40.9848 666.5,42C 668.362,45.1494 669.029,48.6494 668.5,52.5C 659.073,48.4127 649.74,48.5794 640.5,53C 629.641,62.6805 627.807,73.8472 635,86.5C 641.724,92.6396 649.557,94.6396 658.5,92.5C 658.5,87.8333 658.5,83.1667 658.5,78.5C 654.167,78.5 649.833,78.5 645.5,78.5C 645.5,75.5 645.5,72.5 645.5,69.5C 653.833,69.5 662.167,69.5 670.5,69.5 Z"/></g>
<g><path style="opacity:0.963" fill="#2458dd" d="M 323.5,41.5 C 327.167,41.5 330.833,41.5 334.5,41.5C 334.109,55.878 334.609,70.2113 336,84.5C 341.056,93.6818 348.222,95.6818 357.5,90.5C 359.774,88.2873 361.274,85.6207 362,82.5C 362.5,68.8374 362.667,55.1707 362.5,41.5C 366.5,41.5 370.5,41.5 374.5,41.5C 374.92,57.2159 374.42,72.8825 373,88.5C 368.129,98.6918 359.962,103.358 348.5,102.5C 337.608,103.475 329.774,99.1414 325,89.5C 323.546,73.5707 323.046,57.5707 323.5,41.5 Z"/></g>
<g><path style="opacity:0.977" fill="#2458dd" d="M 404.5,41.5 C 408.555,41.1758 412.555,41.5091 416.5,42.5C 424.464,62.087 432.13,81.7536 439.5,101.5C 435.486,101.666 431.486,101.499 427.5,101C 425.5,96.3333 423.5,91.6667 421.5,87C 414.144,86.1687 406.811,86.3354 399.5,87.5C 398.03,91.9117 396.363,96.245 394.5,100.5C 390.205,101.661 385.871,101.828 381.5,101C 389.662,81.3442 397.329,61.5108 404.5,41.5 Z M 410.5,57.5 C 412.984,63.983 415.651,70.483 418.5,77C 413.467,77.8289 408.467,77.6623 403.5,76.5C 406.037,70.22 408.37,63.8867 410.5,57.5 Z"/></g>
<g><path style="opacity:0.978" fill="#2558dd" d="M 448.5,41.5 C 452.884,41.1744 457.217,41.5078 461.5,42.5C 471.493,55.8177 480.993,69.4844 490,83.5C 489.612,69.5304 489.446,55.5304 489.5,41.5C 493.5,41.5 497.5,41.5 501.5,41.5C 501.5,61.5 501.5,81.5 501.5,101.5C 497.116,101.826 492.783,101.492 488.5,100.5C 478.507,87.1823 469.007,73.5156 460,59.5C 460.342,73.4769 460.509,87.4769 460.5,101.5C 456.5,101.5 452.5,101.5 448.5,101.5C 448.5,81.5 448.5,61.5 448.5,41.5 Z"/></g>
<g><path style="opacity:0.983" fill="#2557dc" d="M 508.5,41.5 C 525.5,41.5 542.5,41.5 559.5,41.5C 559.5,44.5 559.5,47.5 559.5,50.5C 552.833,50.5 546.167,50.5 539.5,50.5C 539.5,67.5 539.5,84.5 539.5,101.5C 535.5,101.5 531.5,101.5 527.5,101.5C 527.5,84.5 527.5,67.5 527.5,50.5C 521.167,50.5 514.833,50.5 508.5,50.5C 508.5,47.5 508.5,44.5 508.5,41.5 Z"/></g>
<g><path style="opacity:0.977" fill="#2458dd" d="M 579.5,41.5 C 583.555,41.1758 587.555,41.5091 591.5,42.5C 599.464,62.087 607.13,81.7536 614.5,101.5C 610.486,101.666 606.486,101.499 602.5,101C 600.5,96.3333 598.5,91.6667 596.5,87C 589.144,86.1687 581.811,86.3354 574.5,87.5C 573.03,91.9117 571.363,96.245 569.5,100.5C 565.205,101.661 560.871,101.828 556.5,101C 564.662,81.3442 572.329,61.5108 579.5,41.5 Z M 585.5,57.5 C 587.984,63.983 590.651,70.483 593.5,77C 588.467,77.8289 583.467,77.6623 578.5,76.5C 581.037,70.22 583.37,63.8867 585.5,57.5 Z"/></g>
<g><path style="opacity:0.994" fill="#2458dd" d="M 190.5,225.5 C 184.167,225.5 177.833,225.5 171.5,225.5C 163.262,223.546 155.929,219.713 149.5,214C 136.667,201.167 123.833,188.333 111,175.5C 95.9982,156.513 94.9982,136.846 108,116.5C 123.391,99.3607 141.891,94.8607 163.5,103C 167.844,105.171 171.844,107.837 175.5,111C 188.333,123.833 201.167,136.667 214,149.5C 225.727,163.761 228.727,179.761 223,197.5C 216.569,212.108 205.736,221.441 190.5,225.5 Z"/></g>
<g><path style="opacity:0.42" fill="#880fac" d="M 374.5,120.5 C 376.745,119.172 377.078,117.339 375.5,115C 368.866,113.22 362.2,113.053 355.5,114.5C 355.918,113.778 356.584,113.278 357.5,113C 363.902,112.182 370.235,112.516 376.5,114C 377.435,116.381 377.768,118.881 377.5,121.5C 376.209,121.737 375.209,121.404 374.5,120.5 Z"/></g>
<g><path style="opacity:0.42" fill="#880fac" d="M 665.5,120.5 C 667.745,119.172 668.078,117.339 666.5,115C 659.866,113.22 653.2,113.053 646.5,114.5C 646.918,113.778 647.584,113.278 648.5,113C 654.902,112.182 661.235,112.516 667.5,114C 668.435,116.381 668.768,118.881 668.5,121.5C 667.209,121.737 666.209,121.404 665.5,120.5 Z"/></g>
<g><path style="opacity:0.114" fill="#8b11ae" d="M 282.5,113.5 C 285.5,113.5 288.5,113.5 291.5,113.5C 291.5,128.167 291.5,142.833 291.5,157.5C 288.5,157.5 285.5,157.5 282.5,157.5C 282.5,142.833 282.5,128.167 282.5,113.5 Z"/></g>
<g><path style="opacity:0.999" fill="#2c00f5" d="M 374.5,120.5 C 372.265,120.795 370.265,120.461 368.5,119.5C 367.551,118.848 366.385,118.514 365,118.5C 362.779,118.393 360.946,119.06 359.5,120.5C 357.05,120.874 356.05,122.374 356.5,125C 356.307,127.008 356.974,128.508 358.5,129.5C 360.403,129.796 362.07,130.463 363.5,131.5C 365.905,132.768 368.572,133.435 371.5,133.5C 372.514,134.674 373.847,135.34 375.5,135.5C 377.262,136.262 378.262,137.596 378.5,139.5C 378.882,144.362 378.216,149.028 376.5,153.5C 374.351,155.746 371.684,157.246 368.5,158C 363.5,158.667 358.5,158.667 353.5,158C 351.942,157.79 350.609,157.29 349.5,156.5C 349.338,154.473 349.505,152.473 350,150.5C 352.041,151.423 354.208,151.756 356.5,151.5C 360.29,152.902 363.956,152.569 367.5,150.5C 370.525,149.967 371.858,148.133 371.5,145C 371.95,142.374 370.95,140.874 368.5,140.5C 366.562,138.837 364.228,138.171 361.5,138.5C 359.562,136.837 357.228,136.171 354.5,136.5C 354.027,135.094 353.027,134.427 351.5,134.5C 348.833,128.833 348.833,123.167 351.5,117.5C 353.404,117.262 354.738,116.262 355.5,114.5C 362.2,113.053 368.866,113.22 375.5,115C 377.078,117.339 376.745,119.172 374.5,120.5 Z"/></g>
<g><path style="opacity:0.999" fill="#3300f3" d="M 418.5,118.5 C 425.167,129.833 425.167,141.167 418.5,152.5C 418.5,153.167 418.167,153.5 417.5,153.5C 415.973,153.427 414.973,154.094 414.5,155.5C 411.149,157.893 407.316,158.893 403,158.5C 398.684,158.893 394.851,157.893 391.5,155.5C 390.738,153.738 389.404,152.738 387.5,152.5C 387.573,150.973 386.906,149.973 385.5,149.5C 385.34,147.847 384.674,146.514 383.5,145.5C 382.167,138.833 382.167,132.167 383.5,125.5C 384.674,124.486 385.34,123.153 385.5,121.5C 387.833,119.833 389.833,117.833 391.5,115.5C 399.778,111.424 408.111,111.591 416.5,116C 417.381,116.708 418.047,117.542 418.5,118.5 Z M 412.5,123.5 C 412.427,125.027 413.094,126.027 414.5,126.5C 415.833,132.5 415.833,138.5 414.5,144.5C 412.833,146.833 410.833,148.833 408.5,150.5C 404.833,151.833 401.167,151.833 397.5,150.5C 396.564,149.026 395.23,148.026 393.5,147.5C 389.5,139.5 389.5,131.5 393.5,123.5C 394.167,123.5 394.5,123.167 394.5,122.5C 396.027,122.573 397.027,121.906 397.5,120.5C 403.051,118.81 408.051,119.81 412.5,123.5 Z"/></g>
<g><path style="opacity:0.364" fill="#8910ad" d="M 437.5,150.5 C 444.167,150.5 450.833,150.5 457.5,150.5C 457.5,152.833 457.5,155.167 457.5,157.5C 447.833,157.5 438.167,157.5 428.5,157.5C 428.5,142.833 428.5,128.167 428.5,113.5C 431.5,113.5 434.5,113.5 437.5,113.5C 437.5,125.833 437.5,138.167 437.5,150.5 Z"/></g>
<g><path style="opacity:0.055" fill="#860fad" d="M 469.5,145.5 C 468.71,144.391 468.21,143.058 468,141.5C 467.5,132.506 467.334,123.506 467.5,114.5C 465.5,114.5 463.5,114.5 461.5,114.5C 461.333,125.172 461.5,135.839 462,146.5C 462.608,148.154 463.108,149.821 463.5,151.5C 462.034,150.653 461.2,149.32 461,147.5C 460.5,136.172 460.333,124.838 460.5,113.5C 463.5,113.5 466.5,113.5 469.5,113.5C 469.5,124.167 469.5,134.833 469.5,145.5 Z"/></g>
<g><path style="opacity:0.37" fill="#840eaf" d="M 495.5,149.5 C 496.436,137.871 496.77,126.204 496.5,114.5C 494.5,114.5 492.5,114.5 490.5,114.5C 490.666,123.506 490.5,132.506 490,141.5C 489.79,143.058 489.29,144.391 488.5,145.5C 488.5,134.833 488.5,124.167 488.5,113.5C 491.5,113.5 494.5,113.5 497.5,113.5C 497.667,124.838 497.5,136.172 497,147.5C 496.722,148.416 496.222,149.082 495.5,149.5 Z"/></g>
<g><path style="opacity:0.114" fill="#8b11ae" d="M 537.5,113.5 C 540.5,113.5 543.5,113.5 546.5,113.5C 546.5,128.167 546.5,142.833 546.5,157.5C 543.5,157.5 540.5,157.5 537.5,157.5C 537.5,142.833 537.5,128.167 537.5,113.5 Z"/></g>
<g><path style="opacity:0.999" fill="#3300f3" d="M 586.5,118.5 C 593.167,129.833 593.167,141.167 586.5,152.5C 586.5,153.167 586.167,153.5 585.5,153.5C 583.973,153.427 582.973,154.094 582.5,155.5C 579.149,157.893 575.316,158.893 571,158.5C 566.684,158.893 562.851,157.893 559.5,155.5C 558.738,153.738 557.404,152.738 555.5,152.5C 555.573,150.973 554.906,149.973 553.5,149.5C 553.34,147.847 552.674,146.514 551.5,145.5C 550.167,138.833 550.167,132.167 551.5,125.5C 552.674,124.486 553.34,123.153 553.5,121.5C 555.833,119.833 557.833,117.833 559.5,115.5C 567.778,111.424 576.111,111.591 584.5,116C 585.381,116.708 586.047,117.542 586.5,118.5 Z M 580.5,123.5 C 580.427,125.027 581.094,126.027 582.5,126.5C 583.833,132.5 583.833,138.5 582.5,144.5C 580.833,146.833 578.833,148.833 576.5,150.5C 572.833,151.833 569.167,151.833 565.5,150.5C 564.564,149.026 563.23,148.026 561.5,147.5C 557.5,139.5 557.5,131.5 561.5,123.5C 562.167,123.5 562.5,123.167 562.5,122.5C 564.027,122.573 565.027,121.906 565.5,120.5C 571.051,118.81 576.051,119.81 580.5,123.5 Z"/></g>
<g><path style="opacity:0.333" fill="#8910ad" d="M 606.5,115.5 C 603.609,114.597 600.609,114.264 597.5,114.5C 597.5,128.5 597.5,142.5 597.5,156.5C 599.833,156.5 602.167,156.5 604.5,156.5C 604.755,146.807 604.422,137.14 603.5,127.5C 603.833,126.5 604.167,125.5 604.5,124.5C 605.298,124.957 605.631,125.624 605.5,126.5C 605.413,136.61 605.413,146.944 605.5,157.5C 602.5,157.5 599.5,157.5 596.5,157.5C 596.5,142.833 596.5,128.167 596.5,113.5C 600.329,112.931 603.663,113.598 606.5,115.5 Z"/></g>
<g><path style="opacity:0.196" fill="#890fac" d="M 624.5,154.5 C 627.505,156.299 630.838,156.966 634.5,156.5C 634.5,142.5 634.5,128.5 634.5,114.5C 632.167,114.5 629.833,114.5 627.5,114.5C 627.667,125.172 627.5,135.839 627,146.5C 625.906,144.922 625.072,143.255 624.5,141.5C 625.117,141.611 625.617,141.944 626,142.5C 626.5,132.839 626.666,123.172 626.5,113.5C 629.5,113.5 632.5,113.5 635.5,113.5C 635.5,128.167 635.5,142.833 635.5,157.5C 632.15,157.665 628.817,157.498 625.5,157C 624.748,156.329 624.414,155.496 624.5,154.5 Z"/></g>
<g><path style="opacity:0.999" fill="#2c00f5" d="M 665.5,120.5 C 663.265,120.795 661.265,120.461 659.5,119.5C 658.551,118.848 657.385,118.514 656,118.5C 653.779,118.393 651.946,119.06 650.5,120.5C 648.05,120.874 647.05,122.374 647.5,125C 647.307,127.008 647.974,128.508 649.5,129.5C 651.403,129.796 653.07,130.463 654.5,131.5C 656.905,132.768 659.572,133.435 662.5,133.5C 663.514,134.674 664.847,135.34 666.5,135.5C 668.262,136.262 669.262,137.596 669.5,139.5C 669.882,144.362 669.216,149.028 667.5,153.5C 665.351,155.746 662.684,157.246 659.5,158C 654.5,158.667 649.5,158.667 644.5,158C 642.942,157.79 641.609,157.29 640.5,156.5C 640.338,154.473 640.505,152.473 641,150.5C 643.041,151.423 645.208,151.756 647.5,151.5C 651.29,152.902 654.956,152.569 658.5,150.5C 661.525,149.967 662.858,148.133 662.5,145C 662.95,142.374 661.95,140.874 659.5,140.5C 657.562,138.837 655.228,138.171 652.5,138.5C 650.562,136.837 648.228,136.171 645.5,136.5C 645.027,135.094 644.027,134.427 642.5,134.5C 639.833,128.833 639.833,123.167 642.5,117.5C 644.404,117.262 645.738,116.262 646.5,114.5C 653.2,113.053 659.866,113.22 666.5,115C 668.078,117.339 667.745,119.172 665.5,120.5 Z"/></g>
<g><path style="opacity:1" fill="#1a01f8" d="M 283.5,114.5 C 285.833,114.5 288.167,114.5 290.5,114.5C 290.5,128.5 290.5,142.5 290.5,156.5C 288.167,156.5 285.833,156.5 283.5,156.5C 283.5,142.5 283.5,128.5 283.5,114.5 Z"/></g>
<g><path style="opacity:1" fill="#1500f9" d="M 437.5,150.5 C 443.645,151.49 449.978,151.823 456.5,151.5C 456.5,153.167 456.5,154.833 456.5,156.5C 447.5,156.5 438.5,156.5 429.5,156.5C 429.5,142.5 429.5,128.5 429.5,114.5C 431.833,114.5 434.167,114.5 436.5,114.5C 436.172,126.678 436.505,138.678 437.5,150.5 Z"/></g>
<g><path style="opacity:1" fill="#2000f9" d="M 469.5,145.5 C 470.338,145.842 470.672,146.508 470.5,147.5C 470.5,149.5 471.5,150.5 473.5,150.5C 477.167,151.833 480.833,151.833 484.5,150.5C 486.5,150.5 487.5,149.5 487.5,147.5C 487.328,146.508 487.662,145.842 488.5,145.5C 489.29,144.391 489.79,143.058 490,141.5C 490.5,132.506 490.666,123.506 490.5,114.5C 492.5,114.5 494.5,114.5 496.5,114.5C 496.77,126.204 496.436,137.871 495.5,149.5C 495.672,150.492 495.338,151.158 494.5,151.5C 492.833,152.5 491.5,153.833 490.5,155.5C 489.22,156.931 487.553,157.598 485.5,157.5C 480.12,157.676 474.787,157.342 469.5,156.5C 468.508,156.672 467.842,156.338 467.5,155.5C 466.5,153.833 465.167,152.5 463.5,151.5C 463.108,149.821 462.608,148.154 462,146.5C 461.5,135.839 461.333,125.172 461.5,114.5C 463.5,114.5 465.5,114.5 467.5,114.5C 467.334,123.506 467.5,132.506 468,141.5C 468.21,143.058 468.71,144.391 469.5,145.5 Z"/></g>
<g><path style="opacity:1" fill="#1a01f8" d="M 538.5,114.5 C 540.833,114.5 543.167,114.5 545.5,114.5C 545.5,128.5 545.5,142.5 545.5,156.5C 543.167,156.5 540.833,156.5 538.5,156.5C 538.5,142.5 538.5,128.5 538.5,114.5 Z"/></g>
<g><path style="opacity:1" fill="#1600f8" d="M 606.5,115.5 C 606.427,117.027 607.094,118.027 608.5,118.5C 608.738,120.404 609.738,121.738 611.5,122.5C 611.427,124.027 612.094,125.027 613.5,125.5C 613.427,127.027 614.094,128.027 615.5,128.5C 615.738,130.404 616.738,131.738 618.5,132.5C 618.427,134.027 619.094,135.027 620.5,135.5C 620.427,137.027 621.094,138.027 622.5,138.5C 622.427,140.027 623.094,141.027 624.5,141.5C 625.072,143.255 625.906,144.922 627,146.5C 627.5,135.839 627.667,125.172 627.5,114.5C 629.833,114.5 632.167,114.5 634.5,114.5C 634.5,128.5 634.5,142.5 634.5,156.5C 630.838,156.966 627.505,156.299 624.5,154.5C 624.573,152.973 623.906,151.973 622.5,151.5C 622.262,149.596 621.262,148.262 619.5,147.5C 619.573,145.973 618.906,144.973 617.5,144.5C 617.573,142.973 616.906,141.973 615.5,141.5C 615.262,139.596 614.262,138.262 612.5,137.5C 612.573,135.973 611.906,134.973 610.5,134.5C 610.573,132.973 609.906,131.973 608.5,131.5C 608.573,129.973 607.906,128.973 606.5,128.5C 605.662,128.158 605.328,127.492 605.5,126.5C 605.631,125.624 605.298,124.957 604.5,124.5C 604.167,125.5 603.833,126.5 603.5,127.5C 604.422,137.14 604.755,146.807 604.5,156.5C 602.167,156.5 599.833,156.5 597.5,156.5C 597.5,142.5 597.5,128.5 597.5,114.5C 600.609,114.264 603.609,114.597 606.5,115.5 Z"/></g>
<g><path style="opacity:0.612" fill="#6d07c2" d="M 355.5,114.5 C 354.738,116.262 353.404,117.262 351.5,117.5C 352.262,115.738 353.596,114.738 355.5,114.5 Z"/></g>
<g><path style="opacity:0.294" fill="#8b0faa" d="M 606.5,115.5 C 607.906,115.973 608.573,116.973 608.5,118.5C 607.094,118.027 606.427,117.027 606.5,115.5 Z"/></g>
<g><path style="opacity:0.612" fill="#6d07c2" d="M 646.5,114.5 C 645.738,116.262 644.404,117.262 642.5,117.5C 643.262,115.738 644.596,114.738 646.5,114.5 Z"/></g>
<g><path style="opacity:0.082" fill="#820daf" d="M 368.5,119.5 C 365.455,119.508 362.455,119.841 359.5,120.5C 360.946,119.06 362.779,118.393 365,118.5C 366.385,118.514 367.551,118.848 368.5,119.5 Z"/></g>
<g><path style="opacity:0.392" fill="#870eaf" d="M 391.5,115.5 C 389.833,117.833 387.833,119.833 385.5,121.5C 386.5,118.5 388.5,116.5 391.5,115.5 Z"/></g>
<g><path style="opacity:0.392" fill="#870eaf" d="M 559.5,115.5 C 557.833,117.833 555.833,119.833 553.5,121.5C 554.5,118.5 556.5,116.5 559.5,115.5 Z"/></g>
<g><path style="opacity:0.082" fill="#820daf" d="M 659.5,119.5 C 656.455,119.508 653.455,119.841 650.5,120.5C 651.946,119.06 653.779,118.393 656,118.5C 657.385,118.514 658.551,118.848 659.5,119.5 Z"/></g>
<g><path style="opacity:0.055" fill="#870fac" d="M 307.5,120.5 C 302.833,120.5 298.167,120.5 293.5,120.5C 293.5,118.167 293.5,115.833 293.5,113.5C 305.833,113.5 318.167,113.5 330.5,113.5C 330.5,115.833 330.5,118.167 330.5,120.5C 325.833,120.5 321.167,120.5 316.5,120.5C 316.5,132.833 316.5,145.167 316.5,157.5C 313.5,157.5 310.5,157.5 307.5,157.5C 307.5,145.167 307.5,132.833 307.5,120.5 Z"/></g>
<g><path style="opacity:1" fill="#0400fd" d="M 307.5,120.5 C 303.366,119.515 299.032,119.182 294.5,119.5C 294.5,117.833 294.5,116.167 294.5,114.5C 306.167,114.5 317.833,114.5 329.5,114.5C 329.5,116.167 329.5,117.833 329.5,119.5C 324.57,119.197 319.737,119.531 315,120.5C 314.5,132.495 314.333,144.495 314.5,156.5C 312.5,156.5 310.5,156.5 308.5,156.5C 308.828,144.322 308.495,132.322 307.5,120.5 Z"/></g>
<g><path style="opacity:0.055" fill="#870fac" d="M 513.5,120.5 C 508.833,120.5 504.167,120.5 499.5,120.5C 499.5,118.167 499.5,115.833 499.5,113.5C 511.833,113.5 524.167,113.5 536.5,113.5C 536.5,115.833 536.5,118.167 536.5,120.5C 531.833,120.5 527.167,120.5 522.5,120.5C 522.5,132.833 522.5,145.167 522.5,157.5C 519.5,157.5 516.5,157.5 513.5,157.5C 513.5,145.167 513.5,132.833 513.5,120.5 Z"/></g>
<g><path style="opacity:1" fill="#0400fd" d="M 513.5,120.5 C 509.366,119.515 505.032,119.182 500.5,119.5C 500.5,117.833 500.5,116.167 500.5,114.5C 512.167,114.5 523.833,114.5 535.5,114.5C 535.5,116.167 535.5,117.833 535.5,119.5C 530.57,119.197 525.737,119.531 521,120.5C 520.5,132.495 520.333,144.495 520.5,156.5C 518.5,156.5 516.5,156.5 514.5,156.5C 514.828,144.322 514.495,132.322 513.5,120.5 Z"/></g>
<g><path style="opacity:0.365" fill="#830bb2" d="M 608.5,118.5 C 610.262,119.262 611.262,120.596 611.5,122.5C 609.738,121.738 608.738,120.404 608.5,118.5 Z"/></g>
<g><path style="opacity:0.027" fill="#8c0ab0" d="M 397.5,120.5 C 397.027,121.906 396.027,122.573 394.5,122.5C 394.973,121.094 395.973,120.427 397.5,120.5 Z"/></g>
<g><path style="opacity:0.027" fill="#8c0ab0" d="M 565.5,120.5 C 565.027,121.906 564.027,122.573 562.5,122.5C 562.973,121.094 563.973,120.427 565.5,120.5 Z"/></g>
<g><path style="opacity:0.332" fill="#870ead" d="M 351.5,117.5 C 348.833,123.167 348.833,128.833 351.5,134.5C 350.21,133.942 349.377,132.942 349,131.5C 348.333,127.833 348.333,124.167 349,120.5C 349.377,119.058 350.21,118.058 351.5,117.5 Z"/></g>
<g><path style="opacity:0.332" fill="#870ead" d="M 642.5,117.5 C 639.833,123.167 639.833,128.833 642.5,134.5C 641.21,133.942 640.377,132.942 640,131.5C 639.333,127.833 639.333,124.167 640,120.5C 640.377,119.058 641.21,118.058 642.5,117.5 Z"/></g>
<g><path style="opacity:0.196" fill="#8b0dae" d="M 385.5,121.5 C 385.34,123.153 384.674,124.486 383.5,125.5C 383.229,123.62 383.896,122.287 385.5,121.5 Z"/></g>
<g><path style="opacity:0.196" fill="#8b0dae" d="M 553.5,121.5 C 553.34,123.153 552.674,124.486 551.5,125.5C 551.229,123.62 551.896,122.287 553.5,121.5 Z"/></g>
<g><path style="opacity:0.392" fill="#8a0fa9" d="M 611.5,122.5 C 612.906,122.973 613.573,123.973 613.5,125.5C 612.094,125.027 611.427,124.027 611.5,122.5 Z"/></g>
<g><path style="opacity:0.114" fill="#870eaf" d="M 359.5,120.5 C 357.227,123.222 356.893,126.222 358.5,129.5C 356.893,126.222 357.227,123.222 359.5,120.5 Z"/></g>
<g><path style="opacity:0.267" fill="#8a0dae" d="M 412.5,123.5 C 413.906,123.973 414.573,124.973 414.5,126.5C 413.094,126.027 412.427,125.027 412.5,123.5 Z"/></g>
<g><path style="opacity:0.267" fill="#8a0dae" d="M 580.5,123.5 C 581.906,123.973 582.573,124.973 582.5,126.5C 581.094,126.027 580.427,125.027 580.5,123.5 Z"/></g>
<g><path style="opacity:0.114" fill="#870eaf" d="M 650.5,120.5 C 648.227,123.222 647.893,126.222 649.5,129.5C 647.893,126.222 648.227,123.222 650.5,120.5 Z"/></g>
<g><path style="opacity:0.337" fill="#7f0bb2" d="M 613.5,125.5 C 614.906,125.973 615.573,126.973 615.5,128.5C 614.094,128.027 613.427,127.027 613.5,125.5 Z"/></g>
<g><path style="opacity:0.253" fill="#810bb3" d="M 615.5,128.5 C 617.262,129.262 618.262,130.596 618.5,132.5C 616.738,131.738 615.738,130.404 615.5,128.5 Z"/></g>
<g><path style="opacity:0.33" fill="#870daf" d="M 418.5,118.5 C 423.248,123.07 425.248,128.737 424.5,135.5C 425.248,142.263 423.248,147.93 418.5,152.5C 425.167,141.167 425.167,129.833 418.5,118.5 Z"/></g>
<g><path style="opacity:0.33" fill="#870daf" d="M 586.5,118.5 C 591.248,123.07 593.248,128.737 592.5,135.5C 593.248,142.263 591.248,147.93 586.5,152.5C 593.167,141.167 593.167,129.833 586.5,118.5 Z"/></g>
<g><path style="opacity:0.169" fill="#8a0ead" d="M 606.5,128.5 C 607.906,128.973 608.573,129.973 608.5,131.5C 607.094,131.027 606.427,130.027 606.5,128.5 Z"/></g>
<g><path style="opacity:0.169" fill="#8710ac" d="M 363.5,131.5 C 366.495,131.294 369.162,131.96 371.5,133.5C 368.572,133.435 365.905,132.768 363.5,131.5 Z"/></g>
<g><path style="opacity:0.294" fill="#8b0faa" d="M 608.5,131.5 C 609.906,131.973 610.573,132.973 610.5,134.5C 609.094,134.027 608.427,133.027 608.5,131.5 Z"/></g>
<g><path style="opacity:0.169" fill="#8710ac" d="M 654.5,131.5 C 657.495,131.294 660.162,131.96 662.5,133.5C 659.572,133.435 656.905,132.768 654.5,131.5 Z"/></g>
<g><path style="opacity:0.196" fill="#870daf" d="M 371.5,133.5 C 373.38,133.229 374.713,133.896 375.5,135.5C 373.847,135.34 372.514,134.674 371.5,133.5 Z"/></g>
<g><path style="opacity:0.392" fill="#8a10a9" d="M 618.5,132.5 C 619.906,132.973 620.573,133.973 620.5,135.5C 619.094,135.027 618.427,134.027 618.5,132.5 Z"/></g>
<g><path style="opacity:0.196" fill="#870daf" d="M 662.5,133.5 C 664.38,133.229 665.713,133.896 666.5,135.5C 664.847,135.34 663.514,134.674 662.5,133.5 Z"/></g>
<g><path style="opacity:0.278" fill="#8b0cae" d="M 351.5,134.5 C 353.027,134.427 354.027,135.094 354.5,136.5C 352.973,136.573 351.973,135.906 351.5,134.5 Z"/></g>
<g><path style="opacity:0.278" fill="#8b0cae" d="M 642.5,134.5 C 644.027,134.427 645.027,135.094 645.5,136.5C 643.973,136.573 642.973,135.906 642.5,134.5 Z"/></g>
<g><path style="opacity:0.269" fill="#860ead" d="M 393.5,123.5 C 389.5,131.5 389.5,139.5 393.5,147.5C 390.404,144.214 389.071,140.214 389.5,135.5C 389.071,130.786 390.404,126.786 393.5,123.5 Z"/></g>
<g><path style="opacity:0.269" fill="#860ead" d="M 561.5,123.5 C 557.5,131.5 557.5,139.5 561.5,147.5C 558.404,144.214 557.071,140.214 557.5,135.5C 557.071,130.786 558.404,126.786 561.5,123.5 Z"/></g>
<g><path style="opacity:0.141" fill="#8a0fa9" d="M 610.5,134.5 C 611.906,134.973 612.573,135.973 612.5,137.5C 611.094,137.027 610.427,136.027 610.5,134.5 Z"/></g>
<g><path style="opacity:0.378" fill="#7d0bb7" d="M 354.5,136.5 C 357.228,136.171 359.562,136.837 361.5,138.5C 358.848,138.59 356.515,137.924 354.5,136.5 Z"/></g>
<g><path style="opacity:0.337" fill="#830eaf" d="M 620.5,135.5 C 621.906,135.973 622.573,136.973 622.5,138.5C 621.094,138.027 620.427,137.027 620.5,135.5 Z"/></g>
<g><path style="opacity:0.378" fill="#7d0bb7" d="M 645.5,136.5 C 648.228,136.171 650.562,136.837 652.5,138.5C 649.848,138.59 647.515,137.924 645.5,136.5 Z"/></g>
<g><path style="opacity:0.21" fill="#860ead" d="M 361.5,138.5 C 364.228,138.171 366.562,138.837 368.5,140.5C 365.933,140.279 363.599,139.612 361.5,138.5 Z"/></g>
<g><path style="opacity:0.21" fill="#890ead" d="M 383.5,125.5 C 382.167,132.167 382.167,138.833 383.5,145.5C 381.981,142.474 381.315,139.141 381.5,135.5C 381.315,131.859 381.981,128.526 383.5,125.5 Z"/></g>
<g><path style="opacity:0.21" fill="#890ead" d="M 551.5,125.5 C 550.167,132.167 550.167,138.833 551.5,145.5C 549.981,142.474 549.315,139.141 549.5,135.5C 549.315,131.859 549.981,128.526 551.5,125.5 Z"/></g>
<g><path style="opacity:0.21" fill="#860ead" d="M 652.5,138.5 C 655.228,138.171 657.562,138.837 659.5,140.5C 656.933,140.279 654.599,139.612 652.5,138.5 Z"/></g>
<g><path style="opacity:0.082" fill="#830ab1" d="M 612.5,137.5 C 614.262,138.262 615.262,139.596 615.5,141.5C 613.738,140.738 612.738,139.404 612.5,137.5 Z"/></g>
<g><path style="opacity:0.392" fill="#820db2" d="M 414.5,126.5 C 415.222,126.918 415.722,127.584 416,128.5C 416.667,133.5 416.667,138.5 416,143.5C 415.617,144.056 415.117,144.389 414.5,144.5C 415.833,138.5 415.833,132.5 414.5,126.5 Z"/></g>
<g><path style="opacity:0.392" fill="#820db2" d="M 582.5,126.5 C 583.222,126.918 583.722,127.584 584,128.5C 584.667,133.5 584.667,138.5 584,143.5C 583.617,144.056 583.117,144.389 582.5,144.5C 583.833,138.5 583.833,132.5 582.5,126.5 Z"/></g>
<g><path style="opacity:0.306" fill="#840eaf" d="M 622.5,138.5 C 623.906,138.973 624.573,139.973 624.5,141.5C 623.094,141.027 622.427,140.027 622.5,138.5 Z"/></g>
<g><path style="opacity:0.196" fill="#840db0" d="M 368.5,140.5 C 370.95,140.874 371.95,142.374 371.5,145C 371.858,148.133 370.525,149.967 367.5,150.5C 370.979,147.448 371.313,144.114 368.5,140.5 Z"/></g>
<g><path style="opacity:0.196" fill="#840db0" d="M 659.5,140.5 C 661.95,140.874 662.95,142.374 662.5,145C 662.858,148.133 661.525,149.967 658.5,150.5C 661.979,147.448 662.313,144.114 659.5,140.5 Z"/></g>
<g><path style="opacity:0.196" fill="#840eaf" d="M 615.5,141.5 C 616.906,141.973 617.573,142.973 617.5,144.5C 616.094,144.027 615.427,143.027 615.5,141.5 Z"/></g>
<g><path style="opacity:0.308" fill="#890dad" d="M 378.5,139.5 C 379.643,142.976 379.81,146.642 379,150.5C 378.623,151.942 377.79,152.942 376.5,153.5C 378.216,149.028 378.882,144.362 378.5,139.5 Z"/></g>
<g><path style="opacity:0.141" fill="#8a0bad" d="M 617.5,144.5 C 618.906,144.973 619.573,145.973 619.5,147.5C 618.094,147.027 617.427,146.027 617.5,144.5 Z"/></g>
<g><path style="opacity:0.308" fill="#890dad" d="M 669.5,139.5 C 669.833,139.5 670.167,139.5 670.5,139.5C 670.5,143.167 670.5,146.833 670.5,150.5C 669.728,151.694 668.728,152.694 667.5,153.5C 669.216,149.028 669.882,144.362 669.5,139.5 Z"/></g>
<g><path style="opacity:0.169" fill="#890fad" d="M 383.5,145.5 C 384.674,146.514 385.34,147.847 385.5,149.5C 383.896,148.713 383.229,147.38 383.5,145.5 Z"/></g>
<g><path style="opacity:0.027" fill="#8306b8" d="M 393.5,147.5 C 395.23,148.026 396.564,149.026 397.5,150.5C 395.368,150.446 394.035,149.446 393.5,147.5 Z"/></g>
<g><path style="opacity:0.659" fill="#7106c2" d="M 414.5,144.5 C 414.129,148.205 412.129,150.205 408.5,150.5C 410.833,148.833 412.833,146.833 414.5,144.5 Z"/></g>
<g><path style="opacity:0.573" fill="#7009bf" d="M 470.5,147.5 C 471.833,148.167 472.833,149.167 473.5,150.5C 471.5,150.5 470.5,149.5 470.5,147.5 Z"/></g>
<g><path style="opacity:0.169" fill="#890fad" d="M 551.5,145.5 C 552.674,146.514 553.34,147.847 553.5,149.5C 551.896,148.713 551.229,147.38 551.5,145.5 Z"/></g>
<g><path style="opacity:0.027" fill="#8306b8" d="M 561.5,147.5 C 563.23,148.026 564.564,149.026 565.5,150.5C 563.368,150.446 562.035,149.446 561.5,147.5 Z"/></g>
<g><path style="opacity:0.659" fill="#7106c2" d="M 582.5,144.5 C 582.129,148.205 580.129,150.205 576.5,150.5C 578.833,148.833 580.833,146.833 582.5,144.5 Z"/></g>
<g><path style="opacity:0.573" fill="#6909c3" d="M 487.5,147.5 C 487.5,149.5 486.5,150.5 484.5,150.5C 485.167,149.167 486.167,148.167 487.5,147.5 Z"/></g>
<g><path style="opacity:0.082" fill="#840ab1" d="M 619.5,147.5 C 621.262,148.262 622.262,149.596 622.5,151.5C 620.738,150.738 619.738,149.404 619.5,147.5 Z"/></g>
<g><path style="opacity:0.196" fill="#840db0" d="M 356.5,151.5 C 354.208,151.756 352.041,151.423 350,150.5C 349.505,152.473 349.338,154.473 349.5,156.5C 347.656,154.721 346.99,152.388 347.5,149.5C 350.727,149.676 353.727,150.343 356.5,151.5 Z"/></g>
<g><path style="opacity:0.196" fill="#840db0" d="M 647.5,151.5 C 645.208,151.756 643.041,151.423 641,150.5C 640.505,152.473 640.338,154.473 640.5,156.5C 638.656,154.721 637.99,152.388 638.5,149.5C 641.727,149.676 644.727,150.343 647.5,151.5 Z"/></g>
<g><path style="opacity:0.42" fill="#870fad" d="M 367.5,150.5 C 363.956,152.569 360.29,152.902 356.5,151.5C 360.198,151.448 363.865,151.114 367.5,150.5 Z"/></g>
<g><path style="opacity:0.114" fill="#8c10ab" d="M 385.5,149.5 C 386.906,149.973 387.573,150.973 387.5,152.5C 386.094,152.027 385.427,151.027 385.5,149.5 Z"/></g>
<g><path style="opacity:0.114" fill="#8c10ab" d="M 553.5,149.5 C 554.906,149.973 555.573,150.973 555.5,152.5C 554.094,152.027 553.427,151.027 553.5,149.5 Z"/></g>
<g><path style="opacity:0.42" fill="#870fad" d="M 658.5,150.5 C 654.956,152.569 651.29,152.902 647.5,151.5C 651.198,151.448 654.865,151.114 658.5,150.5 Z"/></g>
<g><path style="opacity:0.027" fill="#8e09af" d="M 494.5,151.5 C 494.167,153.833 492.833,155.167 490.5,155.5C 491.5,153.833 492.833,152.5 494.5,151.5 Z"/></g>
<g><path style="opacity:0.392" fill="#830cb3" d="M 387.5,152.5 C 389.404,152.738 390.738,153.738 391.5,155.5C 389.596,155.262 388.262,154.262 387.5,152.5 Z"/></g>
<g><path style="opacity:0.082" fill="#8a0fa8" d="M 463.5,151.5 C 465.167,152.5 466.5,153.833 467.5,155.5C 465.167,155.167 463.833,153.833 463.5,151.5 Z"/></g>
<g><path style="opacity:0.392" fill="#830cb3" d="M 555.5,152.5 C 557.404,152.738 558.738,153.738 559.5,155.5C 557.596,155.262 556.262,154.262 555.5,152.5 Z"/></g>
<g><path style="opacity:0.169" fill="#8a10a9" d="M 622.5,151.5 C 623.906,151.973 624.573,152.973 624.5,154.5C 623.094,154.027 622.427,153.027 622.5,151.5 Z"/></g>
<g><path style="opacity:0.082" fill="#7f0bb0" d="M 417.5,153.5 C 417.027,154.906 416.027,155.573 414.5,155.5C 414.973,154.094 415.973,153.427 417.5,153.5 Z"/></g>
<g><path style="opacity:0.082" fill="#7f0bb0" d="M 585.5,153.5 C 585.027,154.906 584.027,155.573 582.5,155.5C 582.973,154.094 583.973,153.427 585.5,153.5 Z"/></g>
<g><path style="opacity:0.388" fill="#880fad" d="M 469.5,156.5 C 474.787,157.342 480.12,157.676 485.5,157.5C 481.019,158.648 476.352,158.815 471.5,158C 470.584,157.722 469.918,157.222 469.5,156.5 Z"/></g>
</svg>
