<svg xmlns="http://www.w3.org/2000/svg" viewBox="0 0 150 54"><title>Quantag IT Solutions</title><style>.s1{fill:#2558dd}</style><g id="Layer"><path id="svg_1" d="M53.4 32.9Q54 30 54 27C54 12.1 41.9 0 27 0S0 12.1 0 27s12.1 27 27 27q3 0 5.9-.6l-8.8-8.7c-5.6-5.7-5.6-14.9 0-20.6 5.7-5.6 14.9-5.6 20.6 0z" style="fill:#b6b6b6"/><path id="svg_2" d="M27 27c4.2-4.1 10.9-4.1 15.1 0l8.8 8.8c4.1 4.2 4.1 10.9 0 15.1-4.2 4.1-10.9 4.1-15.1 0L27 42.1c-4.1-4.2-4.1-10.9 0-15.1" class="s1"/><path id="QUANTAG" d="M75 14c0-2.2 0-3.6-1.3-4.9-.9-.9-2.4-1.4-3.9-1.4s-3 .5-4 1.4c-1.2 1.3-1.3 2.8-1.3 4.9v.7c0 2.1.1 3.7 1.3 5 1 .9 2.5 1.4 4 1.4h5.6v-2.3c-.7.2-1.3.3-1.9.3 1.1-.8 1.5-2.4 1.5-4.3zm-2.5.6c0 2.3-.1 4.2-2.7 4.2-2.7 0-2.7-2.1-2.7-4.1V14c0-2.2.1-4.1 2.7-4.1 2.5 0 2.7 1.9 2.7 3.8zM87 7.8h-2.6v8.6c0 1.7-1.1 2.4-2.5 2.4s-2.4-.7-2.4-2.4V7.8h-2.6v8.6c0 3 2.3 4.7 5 4.7s5.1-1.7 5.1-4.7zm12.7 13.3L95.5 9c-.4-1-.8-1.2-1.4-1.2S93 8.1 92.6 9l-4.2 12.1h2.7l.7-2.3h4.5l.7 2.3zm-4-4.5h-3.2l1.6-5.2zm16.2-8.8h-2.6v8.7l-5.4-8.7h-2.5V21h2.6v-8.5l4.5 7.2c.8 1.3 1.5 1.5 2.1 1.5.7 0 1.3-.7 1.3-1.5zm11.2 2.3V7.8h-9.6v2.3h3.5V21h2.6V10.1zm12 10.9-4.2-12.1c-.4-.9-.8-1.1-1.4-1.1s-1.1.2-1.5 1.1L123.8 21h2.7l.7-2.3h4.5l.7 2.3zm-4-4.5h-3.2l1.6-5.2zm5.1-1.8c0 4.2 1.5 6.4 5.3 6.4 2 0 3.8-.9 4.6-2.8v-3.9h-3.8v2.1h1.6v.9c-.5 1-1.3 1.4-2.3 1.4-2.7 0-2.7-2.2-2.7-4.4 0-2.3 0-4.5 2.4-4.5 1.5 0 2.4.7 2.4 2.3h2.4c0-1.1-.2-2.3-1-3.1-.9-.9-2.2-1.5-3.8-1.5-3.3 0-5.1 2.1-5.1 5.5z" aria-label="QUANTAG" class="s1"/><path id="IT SOLUTIONS" d="M66.5 35v-9.3h-1.8V35zm8.1-7.6v-1.7h-6.7v1.7h2.5V35h1.8v-7.6zm10.6 4.9c0-1.7-.9-2.5-2.5-2.7l-1.4-.2c-.6 0-1.2-.4-1.2-1s.6-1.2 1.7-1.2c.6 0 1.4.3 1.5 1.2l1.6-.1c0-1.6-1.3-2.6-3-2.6-2.2 0-3.5 1.1-3.5 2.8 0 1.6 1 2.4 2.4 2.6l1.5.1c.7.1 1.2.5 1.2 1.1 0 .8-.6 1.2-1.7 1.2-.8 0-1.9-.5-1.9-1.5l-1.6.1c0 2.2 2.1 3 3.5 3 1.9 0 3.4-1 3.4-2.8m8.3-2.4c0-2.8-1.2-4.2-3.7-4.2-2.6 0-3.7 1.4-3.7 4.2v.7c0 3.2 1.1 4.5 3.7 4.5 2.5 0 3.7-1.3 3.7-4.5zm-1.9.7c0 1.5-.1 2.9-1.8 2.9-1.8 0-1.9-1.5-1.9-2.9v-.5c0-1.5.2-2.8 1.9-2.8 1.6 0 1.8 1.3 1.8 2.8zm9.1 4.4v-1.6H98c-.9 0-1.2-.2-1.2-1v-6.6H95v6.6c0 1.9.9 2.6 3 2.6zm8.2-9.2h-1.8v6c0 1.2-.7 1.7-1.7 1.7s-1.7-.5-1.7-1.7v-6h-1.8v6c0 2.1 1.6 3.3 3.5 3.3s3.5-1.2 3.5-3.3zm7.9 1.7v-1.7h-6.7v1.7h2.4v7.6h1.9v-7.6zm3.2 7.6v-9.3h-1.8v9.3zm8.9-5.1c0-2.8-1.1-4.2-3.7-4.2s-3.7 1.4-3.7 4.2v.7c0 3.2 1.1 4.5 3.7 4.5s3.7-1.3 3.7-4.5zm-1.8.7c0 1.5-.2 2.9-1.9 2.9s-1.8-1.5-1.9-2.9v-.5c0-1.5.2-2.8 1.9-2.8s1.9 1.3 1.9 2.8zm10.6-4.8h-1.8v6l-3.8-6h-1.7v9.2h1.8v-5.9l3.2 5c.5.9 1 1 1.4 1 .5 0 .9-.4.9-1zm8.1 6.5c0-1.7-1-2.5-2.5-2.7l-1.5-.1c-.5-.1-1.1-.4-1.1-1 0-.7.6-1.2 1.7-1.2.6 0 1.3.2 1.5 1.1l1.6-.1c0-1.5-1.3-2.6-3-2.6-2.2 0-3.5 1.2-3.5 2.8s1 2.4 2.4 2.6l1.5.2c.7.1 1.1.4 1.1 1.1s-.5 1.1-1.6 1.1c-.8 0-1.9-.5-1.9-1.5l-1.6.1c0 2.3 2.1 3 3.5 3 1.9 0 3.4-1 3.4-2.8" aria-label="IT SOLUTIONS" class="s1"/></g></svg>