<svg version="1.2" xmlns="http://www.w3.org/2000/svg" viewBox="0 0 150 54">
	<title>Quantag IT Solutions</title>
	<style>
		.s0 { fill: #b6b6b6 } 
		.s1 { fill: #2558dd } 
	</style>
	<g id="Layer">
		<path id="svg_1" class="s0" d="m53.4 32.9q0.6-2.9 0.6-5.9c0-14.9-12.1-27-27-27-14.9 0-27 12.1-27 27 0 14.9 12.1 27 27 27q3 0 5.9-0.6l-8.8-8.7c-5.6-5.7-5.6-14.9 0-20.6 5.7-5.6 14.9-5.6 20.6 0z"/>
		<path id="svg_2" class="s1" d="m27 27c4.2-4.1 10.9-4.1 15.1 0l8.8 8.8c4.1 4.2 4.1 10.9 0 15.1-4.2 4.1-10.9 4.1-15.1 0l-8.8-8.8c-4.1-4.2-4.1-10.9 0-15.1z"/>
		<path id="QUANTAG" class="s1" aria-label="QUANTAG"  d="m75 14c0-2.2 0-3.6-1.3-4.9-0.9-0.9-2.4-1.4-3.9-1.4-1.5 0-3 0.5-4 1.4-1.2 1.3-1.3 2.8-1.3 4.9v0.7c0 2.1 0.1 3.7 1.3 5 1 0.9 2.5 1.4 4 1.4h5.6v-2.3c-0.7 0.2-1.3 0.3-1.9 0.3 1.1-0.8 1.5-2.4 1.5-4.3zm-2.5 0.6c0 2.3-0.1 4.2-2.7 4.2-2.7 0-2.7-2.1-2.7-4.1v-0.7c0-2.2 0.1-4.1 2.7-4.1 2.5 0 2.7 1.9 2.7 3.8zm14.5-6.8h-2.6v8.6c0 1.7-1.1 2.4-2.5 2.4-1.4 0-2.4-0.7-2.4-2.4v-8.6h-2.6v8.6c0 3 2.3 4.7 5 4.7 2.7 0 5.1-1.7 5.1-4.7zm12.7 13.3l-4.2-12.1c-0.4-1-0.8-1.2-1.4-1.2-0.6 0-1.1 0.3-1.5 1.2l-4.2 12.1h2.7l0.7-2.3h4.5l0.7 2.3zm-4-4.5h-3.2l1.6-5.2zm16.2-8.8h-2.6v8.7l-5.4-8.7h-2.5v13.2h2.6v-8.5l4.5 7.2c0.8 1.3 1.5 1.5 2.1 1.5 0.7 0 1.3-0.7 1.3-1.5zm11.2 2.3v-2.3h-9.6v2.3h3.5v10.9h2.6v-10.9zm12 10.9l-4.2-12.1c-0.4-0.9-0.8-1.1-1.4-1.1-0.6 0-1.1 0.2-1.5 1.1l-4.2 12.1h2.7l0.7-2.3h4.5l0.7 2.3zm-4-4.5h-3.2l1.6-5.2zm5.1-1.8c0 4.2 1.5 6.4 5.3 6.4 2 0 3.8-0.9 4.6-2.8v-3.9h-3.8v2.1h1.6v0.9c-0.5 1-1.3 1.4-2.3 1.4-2.7 0-2.7-2.2-2.7-4.4 0-2.3 0-4.5 2.4-4.5 1.5 0 2.4 0.7 2.4 2.3h2.4c0-1.1-0.2-2.3-1-3.1-0.9-0.9-2.2-1.5-3.8-1.5-3.3 0-5.1 2.1-5.1 5.5z"/>
		<path id="IT SOLUTIONS" class="s1" aria-label="IT SOLUTIONS"  d="m66.5 35v-9.3h-1.8v9.3zm8.1-7.6v-1.7h-6.7v1.7h2.5v7.6h1.8v-7.6zm10.6 4.9c0-1.7-0.9-2.5-2.5-2.7l-1.4-0.2c-0.6 0-1.2-0.4-1.2-1 0-0.6 0.6-1.2 1.7-1.2 0.6 0 1.4 0.3 1.5 1.2l1.6-0.1c0-1.6-1.3-2.6-3-2.6-2.2 0-3.5 1.1-3.5 2.8 0 1.6 1 2.4 2.4 2.6l1.5 0.1c0.7 0.1 1.2 0.5 1.2 1.1 0 0.8-0.6 1.2-1.7 1.2-0.8 0-1.9-0.5-1.9-1.5l-1.6 0.1c0 2.2 2.1 3 3.5 3 1.9 0 3.4-1 3.4-2.8zm8.3-2.4c0-2.8-1.2-4.2-3.7-4.2-2.6 0-3.7 1.4-3.7 4.2v0.7c0 3.2 1.1 4.5 3.7 4.5 2.5 0 3.7-1.3 3.7-4.5zm-1.9 0.7c0 1.5-0.1 2.9-1.8 2.9-1.8 0-1.9-1.5-1.9-2.9v-0.5c0-1.5 0.2-2.8 1.9-2.8 1.6 0 1.8 1.3 1.8 2.8zm9.1 4.4v-1.6h-2.7c-0.9 0-1.2-0.2-1.2-1v-6.6h-1.8v6.6c0 1.9 0.9 2.6 3 2.6zm8.2-9.2h-1.8v6c0 1.2-0.7 1.7-1.7 1.7-1 0-1.7-0.5-1.7-1.7v-6h-1.8v6c0 2.1 1.6 3.3 3.5 3.3 1.9 0 3.5-1.2 3.5-3.3zm7.9 1.7v-1.7h-6.7v1.7h2.4v7.6h1.9v-7.6zm3.2 7.6v-9.3h-1.8v9.3zm8.9-5.1c0-2.8-1.1-4.2-3.7-4.2-2.6 0-3.7 1.4-3.7 4.2v0.7c0 3.2 1.1 4.5 3.7 4.5 2.6 0 3.7-1.3 3.7-4.5zm-1.8 0.7c0 1.5-0.2 2.9-1.9 2.9-1.7 0-1.8-1.5-1.9-2.9v-0.5c0-1.5 0.2-2.8 1.9-2.8 1.7 0 1.9 1.3 1.9 2.8zm10.6-4.8h-1.8v6l-3.8-6h-1.7v9.2h1.8v-5.9l3.2 5c0.5 0.9 1 1 1.4 1 0.5 0 0.9-0.4 0.9-1zm8.1 6.5c0-1.7-1-2.5-2.5-2.7l-1.5-0.1c-0.5-0.1-1.1-0.4-1.1-1 0-0.7 0.6-1.2 1.7-1.2 0.6 0 1.3 0.2 1.5 1.1l1.6-0.1c0-1.5-1.3-2.6-3-2.6-2.2 0-3.5 1.2-3.5 2.8 0 1.6 1 2.4 2.4 2.6l1.5 0.2c0.7 0.1 1.1 0.4 1.1 1.1 0 0.7-0.5 1.1-1.6 1.1-0.8 0-1.9-0.5-1.9-1.5l-1.6 0.1c0 2.3 2.1 3 3.5 3 1.9 0 3.4-1 3.4-2.8z"/>
	</g>
</svg>
