<svg xmlns="http://www.w3.org/2000/svg" viewBox="0 0 939 201"><title>microsoft</title><defs><clipPath id="a" clipPathUnits="userSpaceOnUse"><path d="M-199-199h1338.89v600H-199z"/></clipPath></defs><g clip-path="url(#a)"><path fill-rule="evenodd" d="M898.1 91.5h-30.2V161h-20.5V91.5H833V75h14.4V63q0-13.6 8.8-22.2 8.9-8.7 22.7-8.7 3.6 0 6.5.4 2.8.4 5 1.1v17.5q-1-.6-3.5-1.4-2.5-.9-5.8-.9-6.3 0-9.8 4-3.4 4-3.4 11.8V75h30.2V55.6l20.3-6.2V75h20.5v16.5h-20.5v40.3q0 7.9 2.9 11.2t9.1 3.3q1.7 0 4.2-.9 2.5-.8 4.3-2v16.7q-1.9 1.1-6.4 2.1-4.5.9-8.8.9-12.8 0-19.2-6.8-6.4-6.9-6.4-20.6zm-155.6 27.7q0-21.3 12.1-33.8 12-12.5 33.4-12.5 20.2 0 31.5 12 11.4 12.1 11.4 32.5 0 20.9-12.1 33.3-12 12.4-32.8 12.4-20 0-31.7-11.8-11.8-11.8-11.8-32.1m21.1-.7q0 13.5 6.1 20.6t17.5 7.1q11 0 16.8-7.1t5.8-21.1q0-13.9-6-20.9-6-7.1-16.8-7.1-11.1 0-17.3 7.4-6.1 7.4-6.1 21.1m-66.7-21q0 4.4 2.8 6.9 2.7 2.4 12.2 6.2 12.1 4.8 17 10.9t4.9 14.7q0 12.1-9.3 19.5-9.4 7.4-25.3 7.4-5.3 0-11.8-1.3t-11-3.3v-20q5.5 3.9 11.9 6.1 6.3 2.3 11.5 2.3 6.9 0 10.2-1.9 3.2-1.9 3.2-6.5 0-4.1-3.4-7t-12.8-6.7q-11.2-4.7-15.9-10.5-4.7-5.9-4.7-14.9 0-11.7 9.3-19.1 9.2-7.5 23.9-7.5 4.5 0 10.2 1 5.6 1 9.3 2.6v19.2q-4-2.7-9.3-4.6-5.4-1.9-10.7-1.9-5.8 0-9 2.2-3.2 2.3-3.2 6.2m-118.5 21.7q0-21.3 12.1-33.8 12-12.5 33.4-12.5 20.2 0 31.5 12 11.4 12.1 11.4 32.5 0 20.9-12.1 33.3-12 12.4-32.8 12.4-20 0-31.7-11.8-11.8-11.8-11.8-32.1m21.1-.7q0 13.5 6.1 20.6t17.5 7.1q11 0 16.8-7.1t5.8-21.1q0-13.9-6-20.9-6-7.1-16.8-7.1-11.1 0-17.2 7.4-6.2 7.4-6.2 21.1m-29.8-45q2.4 0 4.4.4 1.9.3 3.2.8v20.5q-1.6-1.2-4.6-2.2-3.1-1.1-7.4-1.1-7.5 0-12.6 6.3-5.2 6.3-5.2 19.3V161h-20.2V74.9h20.2v13.6h.4q2.7-7 8.3-11t13.5-4M492 146.2q4.6 0 10-2.1 5.4-2 10-5.5v18.9q-4.8 2.7-11 4.1-6.1 1.5-13.5 1.5-19 0-30.9-12.1-11.8-12-11.8-30.6 0-20.8 12.1-34.2t34.4-13.4q5.7 0 11.5 1.4 5.8 1.5 9.2 3.4V97q-4.6-3.4-9.5-5.3t-10-1.9q-12 0-19.4 7.8-7.3 7.8-7.3 21 0 13.1 7 20.4 7.1 7.2 19.2 7.2M430.6 161h-20.2V74.9h20.2zM408.3 50.2q0-5.1 3.6-8.4 3.7-3.4 8.7-3.4 5.3 0 8.9 3.4 3.5 3.5 3.5 8.4t-3.6 8.2q-3.6 3.4-8.8 3.4t-8.8-3.4q-3.5-3.4-3.5-8.2M390.9 41v120H370V67h-.3l-37.3 94h-13.8l-38.1-94h-.3v94H261V41h29.9l34.4 89h.5l36.4-89z" style="fill:#77787b"/><path d="M96 96H1V1h95z" style="fill:#f26522"/><path d="M201 96h-95.1V1H201z" style="fill:#8dc63f"/><path d="M96 201H1v-95.1h95z" style="fill:#00aeef"/><path d="M201 201h-95.1v-95.1H201z" style="fill:#ffc20d"/></g></svg>