<svg version="1.2" xmlns="http://www.w3.org/2000/svg" viewBox="0 0 939 201">
	<title>microsoft</title>
	<defs>
		<clipPath clipPathUnits="userSpaceOnUse" id="cp1">
			<path d="m-199-199h1338.89v600h-1338.89z"/>
		</clipPath>
	</defs>
	<style>
		.s0 { fill: #77787b } 
		.s1 { fill: #f26522 } 
		.s2 { fill: #8dc63f } 
		.s3 { fill: #00aeef } 
		.s4 { fill: #ffc20d } 
	</style>
	<g>
		<g id="Layer-1">
			<g id="Clip-Path" clip-path="url(#cp1)">
				<g>
					<path fill-rule="evenodd" class="s0" d="m898.1 91.5h-30.2v69.5h-20.5v-69.5h-14.4v-16.5h14.4v-12q0-13.6 8.8-22.2 8.9-8.7 22.7-8.7 3.6 0 6.5 0.4 2.8 0.4 5 1.1v17.5q-1-0.6-3.5-1.4-2.5-0.9-5.8-0.9-6.3 0-9.8 4-3.4 4-3.4 11.8v10.4h30.2v-19.4l20.3-6.2v25.6h20.5v16.5h-20.5v40.3q0 7.9 2.9 11.2 2.9 3.3 9.1 3.3 1.7 0 4.2-0.9 2.5-0.8 4.3-2v16.7q-1.9 1.1-6.4 2.1-4.5 0.9-8.8 0.9-12.8 0-19.2-6.8-6.4-6.9-6.4-20.6zm-155.6 27.7q0-21.3 12.1-33.8 12-12.5 33.4-12.5 20.2 0 31.5 12 11.4 12.1 11.4 32.5 0 20.9-12.1 33.3-12 12.4-32.8 12.4-20 0-31.7-11.8-11.8-11.8-11.8-32.1zm21.1-0.7q0 13.5 6.1 20.6 6.1 7.1 17.5 7.1 11 0 16.8-7.1 5.8-7.1 5.8-21.1 0-13.9-6-20.9-6-7.1-16.8-7.1-11.1 0-17.3 7.4-6.1 7.4-6.1 21.1zm-66.7-21q0 4.4 2.8 6.9 2.7 2.4 12.2 6.2 12.1 4.8 17 10.9 4.9 6.1 4.9 14.7 0 12.1-9.3 19.5-9.4 7.4-25.3 7.4-5.3 0-11.8-1.3-6.5-1.3-11-3.3v-20q5.5 3.9 11.9 6.1 6.3 2.3 11.5 2.3 6.9 0 10.2-1.9 3.2-1.9 3.2-6.5 0-4.1-3.4-7-3.4-2.9-12.8-6.7-11.2-4.7-15.9-10.5-4.7-5.9-4.7-14.9 0-11.7 9.3-19.1 9.2-7.5 23.9-7.5 4.5 0 10.2 1 5.6 1 9.3 2.6v19.2q-4-2.7-9.3-4.6-5.4-1.9-10.7-1.9-5.8 0-9 2.2-3.2 2.3-3.2 6.2zm-118.5 21.7q0-21.3 12.1-33.8 12-12.5 33.4-12.5 20.2 0 31.5 12 11.4 12.1 11.4 32.5 0 20.9-12.1 33.3-12 12.4-32.8 12.4-20 0-31.7-11.8-11.8-11.8-11.8-32.1zm21.1-0.7q0 13.5 6.1 20.6 6.1 7.1 17.5 7.1 11 0 16.8-7.1 5.8-7.1 5.8-21.1 0-13.9-6-20.9-6-7.1-16.8-7.1-11.1 0-17.2 7.4-6.2 7.4-6.2 21.1zm-29.8-45q2.4 0 4.4 0.4 1.9 0.3 3.2 0.8v20.5q-1.6-1.2-4.6-2.2-3.1-1.1-7.4-1.1-7.5 0-12.6 6.3-5.2 6.3-5.2 19.3v43.5h-20.2v-86.1h20.2v13.6h0.4q2.7-7 8.3-11 5.6-4 13.5-4zm-77.7 72.7q4.6 0 10-2.1 5.4-2 10-5.5v18.9q-4.8 2.7-11 4.1-6.1 1.5-13.5 1.5-19 0-30.9-12.1-11.8-12-11.8-30.6 0-20.8 12.1-34.2 12.1-13.4 34.4-13.4 5.7 0 11.5 1.4 5.8 1.5 9.2 3.4v19.4q-4.6-3.4-9.5-5.3-4.9-1.9-10-1.9-12 0-19.4 7.8-7.3 7.8-7.3 21 0 13.1 7 20.4 7.1 7.2 19.2 7.2zm-61.4 14.8h-20.2v-86.1h20.2zm-22.3-110.8q0-5.1 3.6-8.4 3.7-3.4 8.7-3.4 5.3 0 8.9 3.4 3.5 3.5 3.5 8.4 0 4.9-3.6 8.2-3.6 3.4-8.8 3.4-5.2 0-8.8-3.4-3.5-3.4-3.5-8.2zm-17.4-9.2v120h-20.9v-94h-0.3l-37.3 94h-13.8l-38.1-94h-0.3v94h-19.2v-120h29.9l34.4 89h0.5l36.4-89z"/>
					<path class="s1" d="m96 96h-95v-95h95z"/>
					<path class="s2" d="m201 96h-95.1v-95h95.1z"/>
					<path class="s3" d="m96 201h-95v-95.1h95z"/>
					<path class="s4" d="m201 201h-95.1v-95.1h95.1z"/>
				</g>
			</g>
		</g>
	</g>
</svg>