<svg version="1.2" xmlns="http://www.w3.org/2000/svg" viewBox="0 0 370 98">
    <style>.a{fill:#e60037}.b{fill:#030044}</style>
    <path class="a"
        d="m61.5 0.6h-42.9c-11.8 0-18.3 6.6-18.3 18.3v22.3c0 3 1.6 4.6 4.6 4.6h7.3c3 0 4.6-1.6 4.6-4.6v-22.3c0-1.2 0.7-1.9 1.9-1.9h42.9c3 0 4.6-1.6 4.6-4.6v-7.3c-0.1-2.9-1.7-4.5-4.7-4.5z" />
    <path fill-rule="evenodd" class="a"
        d="m365 80.3h-7.3c-3 0-4.6 1.6-4.6 4.6v7.1c0 3 1.6 4.6 4.6 4.6h7.3c3 0 4.6-1.6 4.6-4.6v-7.1c0-3-1.6-4.6-4.6-4.6z" />
    <path fill-rule="evenodd" class="b"
        d="m304.4 79.4v4c0 6.9-4.6 13.8-15.4 13.8h-12.6c-11.4 0-15.9-6.1-17-13.8-0.2-1.7 0.8-2.3 2.1-2.3h7.7c1.5 0 2.1 0.4 2.5 1.8 0.5 1.6 1.5 3.8 5.3 3.8h10.6c2.7 0 4.2-1.2 4.2-4.1v-2.2c0-2.8-1.5-4-4.2-4l-12.7-0.3c-10.7-0.2-15.4-6.8-15.4-13.7v-3.7c0-6.9 4.6-13.8 15.4-13.8h11c11.4 0 15.9 6.1 17 13.8 0.2 1.7-0.8 2.3-2.1 2.3h-7.7c-1.5 0-2.1-0.4-2.5-1.8-0.5-1.6-1.5-3.8-5.3-3.8h-9c-2.7 0-4.2 1.2-4.2 4.1v1.8c0 2.8 1.5 3.9 4.2 4l12.6 0.3c10.9 0.1 15.5 7 15.5 13.8zm-106.4-31.6v7.3c0 1.4-0.8 2.2-2.2 2.2h-8c-3.9 0-6 2.1-6 6v31c0 1.4-0.8 2.2-2.2 2.2h-8.3c-1.4 0-2.2-0.8-2.2-2.2v-31.3c0-11.4 6.2-17.5 17.5-17.5l9.2 0.1c1.4 0 2.2 0.8 2.2 2.2zm50.7 0v46.6c0 1.4-0.8 2.2-2.2 2.2h-25c-11.2 0.1-17.3-6.1-17.3-17.5v-31.3c0-1.4 0.8-2.2 2.2-2.2h8.3c1.4 0 2.2 0.8 2.2 2.2v31.3c0 4.1 2.2 6.3 6.3 6.3h12.8v-37.6c0-1.4 0.8-2.2 2.2-2.2h8.3c1.4 0 2.2 0.8 2.2 2.2zm-89-0.1v8.3c0 1.4-0.8 2.2-2.2 2.2h-14v20.5c0 3.9 2.1 6 6 6h8c1.4 0 2.2 0.8 2.2 2.2v7.3c0 1.4-0.8 2.2-2.2 2.2v0.1h-9.2c-11.3 0-17.5-6.1-17.5-17.5v-20.8h-3.4c-1.4 0-2.2-0.8-2.2-2.2v-8.3c0-1.4 0.8-2.2 2.2-2.2h3.4v-14.3c0-1.4 0.8-2.2 2.2-2.2h8.3c1.4 0 2.2 0.8 2.2 2.2v14.3h14c1.4 0 2.2 0.8 2.2 2.2zm184 0v8.3c0 1.4-0.8 2.2-2.2 2.2h-14v20.5c0 3.9 2.1 6 6 6h8c1.4 0 2.2 0.8 2.2 2.2v7.3c0 1.4-0.8 2.2-2.2 2.2v0.1h-9.2c-11.3 0-17.5-6.1-17.5-17.5v-20.8h-3.4c-1.4 0-2.2-0.8-2.2-2.2v-8.3c0-1.4 0.8-2.2 2.2-2.2h3.4v-14.3c0-1.4 0.8-2.2 2.2-2.2h8.3c1.4 0 2.2 0.8 2.2 2.2v14.3h14c1.4 0 2.2 0.8 2.2 2.2zm-313.4 15.4c0-11.3 6.1-17.5 17.5-17.5h14.7v-14.4c0-1.4 0.8-2.2 2.2-2.2h8.3c1.4 0 2.2 0.8 2.2 2.2v63.2c0 1.4-0.8 2.2-2.2 2.2h-25.2c-11.3 0-17.5-6.1-17.5-17.5zm32.2 22.3v-28.6h-13.1c-4.1 0-6.3 2.2-6.3 6.3v16c0 4.1 2.2 6.3 6.3 6.3zm52.9-8.3h-28.6c-1.4 0-2.2-0.8-2.2-2.2v-8.3c0-1.4 0.8-2.2 2.2-2.2h28.6c1.4 0 2.2 0.8 2.2 2.2v8.3c0 1.4-0.8 2.2-2.2 2.2z" />
</svg>