<svg xmlns="http://www.w3.org/2000/svg" viewBox="0 0 328 92">
	<g >
		<g >
			<path class="shp0" d="M80.85 59.18L74.45 59.18C69.45 67.5 59.79 73.11 48.62 73.11L22.18 73.11L22.18 70.09L28.93 70.09L28.93 59.19L19.68 59.18L12.73 68.45L1.96 68.45L1.96 76.72C1.96 83.37 7.35 88.77 14.01 88.77L86.82 88.77C93.47 88.77 98.87 83.37 98.87 76.72L98.87 68.46L87.8 68.46L80.85 59.18" />
			<path class="shp0" d="M36.83 23.33L36.83 69.03L47.63 69.03C59.58 69.03 69.2 58.81 69.2 46.3C69.2 33.72 59.58 23.33 47.81 23.33L36.83 23.33Z" />
			<path class="shp0" d="M28.93 35.57L18.4 35.57L11.45 26.31L1.96 26.31L1.96 44.85L28.93 44.85L28.93 35.57Z" />
			<path class="shp0" d="M19.68 33.01L28.93 33.01L28.93 22.19L22.18 22.19L22.18 19.17L48.7 19.17C59.76 19.17 69.36 24.76 74.38 33.01L80.85 33.01L87.8 23.75L98.87 23.75L98.87 15.56C98.87 8.9 93.47 3.51 86.82 3.51L14.01 3.51C7.35 3.51 1.96 8.9 1.96 15.56L1.96 23.75L12.73 23.75L19.68 33.01Z" />
			<path class="shp0" d="M98.87 26.31L89.08 26.31L82.13 35.57L75.76 35.57C77.09 38.44 77.87 41.58 78.03 44.85L91.28 44.85L91.28 47.41L78.03 47.41C77.87 50.67 77.12 53.78 75.81 56.62L82.13 56.62L89.08 65.9L98.87 65.9L98.87 49.05L107.62 49.05L107.62 43.21L98.87 43.21L98.87 26.31Z" />
			<path class="shp0" d="M18.4 56.64L28.93 56.64L28.93 47.41L1.96 47.41L1.96 65.89L11.45 65.89L18.4 56.64Z" />
			<path class="shp0" d="M148.11 27.45L115.03 27.45L115.03 25.81L111.79 25.81L111.79 35.29L115.03 35.29L115.03 30.71L128.16 30.71L128.16 62.18L120.52 62.18L120.52 65.2L142.63 65.2L142.63 62.18L134.99 62.18L134.99 30.71L148.11 30.71L148.11 35.29L151.45 35.29L151.45 25.81L148.11 25.81L148.11 27.45" />
			<path fill-rule="evenodd" class="shp0" d="M191.79 59.16C193.42 61.2 195.03 62.18 197.01 62.18L199.53 62.18L199.53 65.2L192.97 65.2C189.01 65.2 188.29 64.87 186.05 61.77L176.43 48.61L172.02 48.61L172.02 62.18L178.76 62.18L178.76 65.2L158.44 65.2L158.44 62.18L165.18 62.18L165.18 30.71L158.44 30.71L158.44 27.45L179.66 27.45C188.39 27.45 193.05 30.96 193.05 37.58C193.05 43.05 189.37 47.06 183.44 48.04L191.79 59.16ZM178.4 45.34C182.71 45.34 185.51 42.32 185.51 37.82C185.51 33.25 182.99 30.71 178.31 30.71L172.02 30.71L172.02 45.34L178.4 45.34Z" />
			<path class="shp0" d="M229.46 30.71L236.2 30.71L236.2 51.15C236.2 57.77 231.35 62.5 224.6 62.5C218.04 62.5 213.64 57.93 213.64 51.23L213.64 30.71L220.47 30.71L220.47 27.45L200.06 27.45L200.06 30.71L206.89 30.71L206.89 52.94C206.89 60.63 213.91 66.27 223.52 66.27C233.78 66.27 240.79 60.22 240.79 51.39L240.79 30.71L247.52 30.71L247.52 27.45L229.46 27.45L229.46 30.71" />
			<path class="shp0" d="M269.72 43.63C267.83 42.65 265.68 41.5 263.34 40.28C260.28 38.64 259.29 37.5 259.29 35.37C259.29 32.02 262.08 29.9 266.31 29.9C268.73 29.9 270.35 30.3 273.85 32.02L273.85 36.1L277.19 36.1L277.19 26.3L273.85 26.3L273.85 28.34C271.25 27.04 268.65 26.47 265.68 26.47C258.49 26.47 252.82 31.12 252.82 37.01C252.82 41.83 255.52 44.69 263.42 48.29C270.89 51.72 273.32 53.85 273.32 56.95C273.32 60.14 270.08 62.42 265.58 62.42C262.53 62.42 260.01 61.69 256.42 59.73L256.42 55.48L253.09 55.48L253.09 65.69L256.42 65.69L256.42 63.57C259.93 65.37 263.16 66.27 266.57 66.27C274.04 66.27 279.61 61.6 279.61 55.48C279.61 50.17 277.45 47.55 269.72 43.63" />
			<path class="shp0" d="M321.13 25.81L321.13 27.45L288.04 27.45L288.04 25.81L284.8 25.81L284.8 35.29L288.04 35.29L288.04 30.71L301.17 30.71L301.17 62.18L293.53 62.18L293.53 65.2L315.64 65.2L315.64 62.18L308 62.18L308 30.71L321.13 30.71L321.13 35.29L324.45 35.29L324.45 25.81L321.13 25.81" />
		</g>
	</g>
</svg>