<svg xmlns="http://www.w3.org/2000/svg" viewBox="0 0 370 98"><style>.a{fill:#e60037}</style><path d="M61.5.6H18.6C6.8.6.3 7.2.3 18.9v22.3c0 3 1.6 4.6 4.6 4.6h7.3c3 0 4.6-1.6 4.6-4.6V18.9c0-1.2.7-1.9 1.9-1.9h42.9c3 0 4.6-1.6 4.6-4.6V5.1C66.1 2.2 64.5.6 61.5.6" class="a"/><path fill-rule="evenodd" d="M365 80.3h-7.3c-3 0-4.6 1.6-4.6 4.6V92c0 3 1.6 4.6 4.6 4.6h7.3c3 0 4.6-1.6 4.6-4.6v-7.1c0-3-1.6-4.6-4.6-4.6" class="a"/><path fill-rule="evenodd" d="M304.4 79.4v4c0 6.9-4.6 13.8-15.4 13.8h-12.6c-11.4 0-15.9-6.1-17-13.8-.2-1.7.8-2.3 2.1-2.3h7.7c1.5 0 2.1.4 2.5 1.8.5 1.6 1.5 3.8 5.3 3.8h10.6c2.7 0 4.2-1.2 4.2-4.1v-2.2c0-2.8-1.5-4-4.2-4l-12.7-.3c-10.7-.2-15.4-6.8-15.4-13.7v-3.7c0-6.9 4.6-13.8 15.4-13.8h11c11.4 0 15.9 6.1 17 13.8.2 1.7-.8 2.3-2.1 2.3h-7.7c-1.5 0-2.1-.4-2.5-1.8-.5-1.6-1.5-3.8-5.3-3.8h-9c-2.7 0-4.2 1.2-4.2 4.1v1.8c0 2.8 1.5 3.9 4.2 4l12.6.3c10.9.1 15.5 7 15.5 13.8M198 47.8v7.3c0 1.4-.8 2.2-2.2 2.2h-8c-3.9 0-6 2.1-6 6v31c0 1.4-.8 2.2-2.2 2.2h-8.3c-1.4 0-2.2-.8-2.2-2.2V63c0-11.4 6.2-17.5 17.5-17.5l9.2.1c1.4 0 2.2.8 2.2 2.2m50.7 0v46.6c0 1.4-.8 2.2-2.2 2.2h-25c-11.2.1-17.3-6.1-17.3-17.5V47.8c0-1.4.8-2.2 2.2-2.2h8.3c1.4 0 2.2.8 2.2 2.2v31.3c0 4.1 2.2 6.3 6.3 6.3H236V47.8c0-1.4.8-2.2 2.2-2.2h8.3c1.4 0 2.2.8 2.2 2.2m-89-.1V56c0 1.4-.8 2.2-2.2 2.2h-14v20.5c0 3.9 2.1 6 6 6h8c1.4 0 2.2.8 2.2 2.2v7.3c0 1.4-.8 2.2-2.2 2.2v.1h-9.2c-11.3 0-17.5-6.1-17.5-17.5V58.2h-3.4c-1.4 0-2.2-.8-2.2-2.2v-8.3c0-1.4.8-2.2 2.2-2.2h3.4V31.2c0-1.4.8-2.2 2.2-2.2h8.3c1.4 0 2.2.8 2.2 2.2v14.3h14c1.4 0 2.2.8 2.2 2.2m184 0V56c0 1.4-.8 2.2-2.2 2.2h-14v20.5c0 3.9 2.1 6 6 6h8c1.4 0 2.2.8 2.2 2.2v7.3c0 1.4-.8 2.2-2.2 2.2v.1h-9.2c-11.3 0-17.5-6.1-17.5-17.5V58.2h-3.4c-1.4 0-2.2-.8-2.2-2.2v-8.3c0-1.4.8-2.2 2.2-2.2h3.4V31.2c0-1.4.8-2.2 2.2-2.2h8.3c1.4 0 2.2.8 2.2 2.2v14.3h14c1.4 0 2.2.8 2.2 2.2M30.3 63.1c0-11.3 6.1-17.5 17.5-17.5h14.7V31.2c0-1.4.8-2.2 2.2-2.2H73c1.4 0 2.2.8 2.2 2.2v63.2c0 1.4-.8 2.2-2.2 2.2H47.8c-11.3 0-17.5-6.1-17.5-17.5zm32.2 22.3V56.8H49.4c-4.1 0-6.3 2.2-6.3 6.3v16c0 4.1 2.2 6.3 6.3 6.3zm52.9-8.3H86.8c-1.4 0-2.2-.8-2.2-2.2v-8.3c0-1.4.8-2.2 2.2-2.2h28.6c1.4 0 2.2.8 2.2 2.2v8.3c0 1.4-.8 2.2-2.2 2.2" style="fill:#030044"/></svg>