<svg version="1.2"
    xmlns="http://www.w3.org/2000/svg" viewBox="0 0 1035 113">
    <style>.a{fill:#fefefe;stroke:#231f20;stroke-linecap:round;stroke-linejoin:round;stroke-width:8}.b{fill:none;stroke:#231f20;stroke-linecap:round;stroke-linejoin:round;stroke-width:8}.c{fill:#fefefe;stroke:#231f20;stroke-linecap:round;stroke-linejoin:round;stroke-width:6}.d{fill:#1e8ccc}</style>
    <path d="m175.4 66h-12.9l12-35.8h12.8zm54.9 0h-12.2l5.2-15.1q1.1-3.1 1.1-4.2 0-3.2-6.6-3.2-4.5 0-8.2 2-3.8 2.1-4.7 5.1l-5.2 15.4h-12.3l7.2-21.6q0.7-2 1.7-5.8h11.7q0 0.2-0.4 2.1-0.4 1.9-0.6 2.5h0.1q3.3-2.6 7.2-3.9 4-1.2 9.1-1.2 6.6 0 10 1.8 3.3 1.9 3.3 5.4 0 0.6-0.3 2-0.3 1.4-0.6 2.1zm42.6-22.6h-9.3l-7.6 22.6h-12.2l7.6-22.6h-6.9l1.6-4.8h6.9l1-2.9q1.3-3.9 5.4-5.6 4.1-1.7 11.6-1.7 3.2 0 6.8 0.4l-1.6 4.6q-0.4-0.1-1.8-0.2-1.4-0.1-2.4-0.1-2.9 0-4.2 0.9-1.3 0.8-1.9 2.4l-0.7 2.2h9.3zm49.2 5.3q0 5.2-3.6 9.3-3.5 4.1-10.1 6.3-6.5 2.2-14.7 2.2-9.5 0-15.1-2.9-5.5-3-5.5-8.2 0-5.1 3.5-9.1 3.4-3.9 9.9-6.1 6.4-2.1 14.6-2.1 10.3 0 15.6 2.8 5.4 2.7 5.4 7.8zm-12.8 0.5q0-6.3-9.1-6.3-5 0-8 1.6-2.9 1.5-4.6 4.6-1.6 3.1-1.6 6 0 6.6 9.1 6.6 4.9 0 7.7-1.5 2.9-1.4 4.5-4.3 1.7-3 2-6.7zm54.6-10.8l-2.1 6q-3-0.4-4.9-0.4-5.4 0-8.8 2.2-3.4 2.2-4.9 6.8l-4.4 13h-12.3l7-21.1q1.1-3 1.9-6.4h11.7l-1 4.4-0.3 1.3h0.1q3.2-3.4 6.3-4.8 3.1-1.4 7.2-1.4 2 0 4.5 0.4zm53.6 5q-3.9 0-6.9 1.9-2.9 2-4 5.3l-5.2 15.4h-12.2l5.4-16.1q0.7-2.3 0.7-3.5 0-3-5.5-3-3.8 0-6.9 1.9-2.9 1.9-4.1 5.4l-5.2 15.3h-12.3l7.3-21.6q0.8-2.4 1.7-5.9h11.9q0 0.3-0.5 2-0.5 1.7-0.8 2.7h0.2q3.3-2.9 6.6-4 3.2-1.1 7.7-1.1 5.4 0 8.5 1.5 3.2 1.5 3.8 4.4 3.5-3.2 7.1-4.6 3.6-1.3 8.4-1.3 6 0 9.2 1.8 3.2 1.9 3.2 5.4 0 1.6-0.9 4.1l-5.6 16.6h-12.2l5.3-15.9q0.8-2.3 0.8-3.5v-0.2q-0.1-3-5.5-3zm60.8 22.9q-4.4 0-6.8-1.1-2.3-1.1-2.3-2.8 0-0.9 0.2-1.6h-0.3q-3.6 3.3-7.2 4.5-3.6 1.2-8.7 1.2-6.2 0-9.8-2.1-3.6-2.1-3.6-5.4 0-4.7 5.5-7.1 5.6-2.4 18.1-2.6h8.3q0.9-2.4 0.9-3.4 0-3.2-5.5-3.2-4.1 0-6.1 0.9-2 0.9-2.8 2.7l-11.5-0.8q1.5-3.7 6.7-5.6 5.3-1.9 13.9-1.9 9.1 0 13.2 1.9 4.3 1.8 4.3 5.6 0 1-1.1 4l-3.1 9q-0.3 1.1-0.3 1.8 0 0.6 0.4 0.9 0.5 0.4 1 0.5 0.6 0.2 1.2 0.2 0.5 0.1 0.8 0.1 1.3 0 2.7-0.2l-0.6 3.9q-1.8 0.4-3.7 0.5-1.9 0.1-3.8 0.1zm-8.9-10.7l1-2.4h-7.1q-5.1 0.1-8.1 1.3-2.9 1.1-2.9 3.3 0 1.7 1.7 2.8 1.7 1 4.7 1 3.6 0 6.6-1.7 2.9-1.6 4.1-4.3zm36.1 10.8q-5.4 0-8.4-1.4-3-1.5-3-4.3 0-1.8 0.7-4l4.5-13.3h-6.5l1.6-4.9h7.1l6-6.4h7.7l-2.1 6.4h8.8l-1.5 4.9h-9l-4.5 13.6q-0.5 1.4-0.5 2.2 0 1.2 1 1.8 1.1 0.5 2.8 0.5 1.4 0 4.7-0.3l-1.4 4.6q-3.5 0.6-8 0.6zm37.9-32.8h-12.2l1.8-5.3h12.2zm-10.8 32.5h-12.2l9.1-27.5h12.3zm62.9-17.4q0 5.3-3.6 9.4-3.6 4.1-10.1 6.3-6.5 2.2-14.7 2.2-9.6 0-15.1-3-5.5-3-5.5-8.1 0-5.2 3.4-9.1 3.5-3.9 9.9-6.1 6.4-2.2 14.6-2.2 10.3 0 15.7 2.8 5.4 2.8 5.4 7.8zm-12.9 0.6q0-6.3-9.1-6.3-5 0-7.9 1.5-2.9 1.6-4.6 4.7-1.7 3.1-1.7 5.9 0 6.6 9.1 6.6 4.9 0 7.7-1.4 2.9-1.4 4.5-4.4 1.7-2.9 2-6.6zm60.1 16.8h-12.1l5.1-15.1q1.2-3.2 1.2-4.2 0-3.3-6.7-3.3-4.4 0-8.2 2.1-3.7 2.1-4.7 5.1l-5.1 15.4h-12.3l7.2-21.6q0.7-2 1.7-5.9h11.7q0 0.2-0.5 2.2-0.4 1.9-0.6 2.5h0.2q3.2-2.6 7.2-3.9 3.9-1.3 9-1.3 6.7 0 10 1.9 3.4 1.8 3.4 5.3 0 0.7-0.3 2.1-0.3 1.3-0.6 2.1zm61.3 0.5q-11.7 0-17.8-2.4-6.1-2.4-7.3-7.4l12.6-1.2q0.9 2.8 4 4.1 3.2 1.3 9.3 1.3 15.1 0 15.1-5 0-2.1-2.6-3.2-2.6-1.2-10.4-2.4-8-1.2-11.9-2.6-3.9-1.3-5.9-3.2-2-2-2-4.8 0-4.5 6.8-7.3 6.9-2.7 18.2-2.7 10.4 0 16.7 2.2 6.3 2.2 7.7 6.4l-12.6 1.7q-0.9-2.3-4.2-3.6-3.2-1.4-8.3-1.4-5.4 0-8.5 1.2-3.1 1.2-3.1 3.2 0 1.2 1.1 2.1 1.1 0.8 3.3 1.4 2.2 0.6 8.7 1.7 6.9 1.1 10.2 2.1 3.4 0.9 5.3 2.1 2 1.3 3.1 2.8 1 1.6 1 3.7 0 5.5-7.2 8.4-7.3 2.8-21.3 2.8zm79.6-12.6h-30.5q-0.4 1-0.4 2.3 0 2.7 2.1 4.1 2 1.4 6 1.4 6.4 0 9.3-4.2l10.7 1.8q-3.3 4.1-8.1 5.6-4.9 1.6-12.7 1.6-9.4 0-14.6-2.9-5.2-2.9-5.2-8.2 0-5.3 3.1-9.2 3.2-4 8.9-6.1 5.8-2.1 13.4-2.1 9.2 0 14.1 2.8 5 2.7 5 7.7 0 2.5-1.1 5.4zm-29.1-4.7h18.8l0.1-1.4q0-2.8-2.1-4-2.2-1.2-5.7-1.2-4.2 0-7 1.7-2.9 1.6-4.1 4.9zm56.1 12.4q3.6 0 6-1.3 2.3-1.3 3.7-4l11.8 1.3q-4.6 8.9-22.2 8.9-9.6 0-14.8-2.8-5.2-2.9-5.2-8 0-4.9 3.5-9.3 3.4-4.3 9.1-6.3 5.8-2.1 14.4-2.1 8.2 0 13.1 2.5 5 2.4 5.6 6.7l-12.4 0.6q-0.5-4.9-7.3-4.9-4.7 0-7.3 1.9-2.7 1.9-4.8 6.6-1 2.9-1 4.3 0 5.9 7.8 5.9zm36.5-23.1h12.2l-5.2 15.1q-1.1 3.2-1.1 4.2 0 3.3 6.6 3.3 4.4 0 8.1-2 3.8-2.1 4.8-5.2l5.1-15.4h12.4l-7.3 21.6q-0.7 2.1-1.6 5.9h-11.7q0-0.2 0.3-2.1 0.5-1.9 0.7-2.6h-0.1q-3.4 2.7-7.3 4-4 1.2-9 1.2-6.7 0-10-1.9-3.4-1.8-3.4-5.3 0-0.7 0.3-2 0.3-1.5 0.6-2.2zm83.4-0.1l-2.1 5.9q-3-0.3-4.9-0.3-5.4 0-8.8 2.2-3.4 2.2-4.9 6.7l-4.4 13.1h-12.3l7-21.1q1.1-3 1.9-6.4h11.7l-1 4.4-0.3 1.2h0.2q3.1-3.4 6.2-4.7 3.1-1.4 7.2-1.4 2 0 4.5 0.4zm20.5-4.8h-12.3l1.8-5.3h12.3zm-10.9 32.4h-12.2l9.2-27.4h12.3zm27.5 0.4q-5.4 0-8.4-1.5-3-1.5-3-4.2 0-1.8 0.7-4l4.5-13.4h-6.5l1.6-4.8h7.1l6-6.5h7.7l-2.1 6.5h8.8l-1.5 4.8h-9l-4.5 13.6q-0.5 1.4-0.5 2.3 0 1.1 1 1.7 1 0.6 2.8 0.6 1.4 0 4.7-0.4l-1.4 4.7q-3.5 0.6-8 0.6zm17.2 10.4q-4.3 0-7.6-0.5l1.7-5q1.7 0.2 3.8 0.2 3.4 0 6-1.1 2.6-1.2 5.2-3.8l1.2-1.2-9.3-26.9h12.7l3.1 12.6q0.3 0.8 1 4.5 0.7 3.8 0.6 4l0.7-0.9 6.1-7.5 11.3-12.7h13.1l-28.6 28.9q-4.6 4.3-7.6 6-2.9 1.7-6.2 2.5-3.2 0.9-7.2 0.9zm-284.5 18.9l3.6 1.3q-3.1 2.8-7.2 4-4 1.3-9.4 1.3-4.5 0-7.9-1.1-3.3-1.1-5.1-3-1.7-2-1.7-4.6 0-3.6 2.6-6.5 2.7-2.9 7.3-4.5 4.7-1.6 10.5-1.6 5.5 0 9.3 1.3 3.7 1.4 5 3.8l-4.6 0.8q-0.9-1.7-3.5-2.6-2.6-1-6.4-1-4.6 0-8.2 1.3-3.5 1.3-5.4 3.7-1.9 2.3-1.9 5.4 0 2.9 2.8 4.6 2.7 1.7 7.6 1.7 3.7 0 6.9-1.1 3.3-1.1 5.7-3.2zm28.7-14.7q7 0 11 2.3 4.1 2.3 4.1 6.2-0.2 3.9-2.9 6.8-2.7 2.9-7.3 4.4-4.7 1.6-10.7 1.6-7.1 0-11.1-2.3-3.9-2.4-3.9-6.4 0-3.5 2.6-6.5 2.7-2.9 7.4-4.5 4.8-1.6 10.8-1.6zm-0.2 2.3q-5.1 0-8.6 1.3-3.5 1.3-5.4 3.9-1.8 2.6-1.8 5.2 0 3.1 2.6 4.7 2.7 1.6 7.8 1.6 5 0 8.5-1.3 3.5-1.2 5.4-3.8 1.9-2.5 1.9-5.3 0-3.1-2.7-4.7-2.7-1.6-7.7-1.6zm46.7 18.7h-5.1l-6.2-8.6h-11.1l-2.8 8.6h-4.8l6.8-20.7h15.5q5.3 0 8.5 1.5 3.2 1.5 3.2 3.9 0 2.8-2.7 4.4-2.7 1.6-8 2zm-21.7-10.7h11.6q4.6 0 6.9-1.1 2.3-1.1 2.3-3.2 0-1.6-1.9-2.5-1.8-0.9-5.6-0.9h-10.7zm34.1-9.8h13q5.8 0 9.2 1.5 3.4 1.5 3.4 4.2 0 3.2-3.9 5.1-3.8 1.8-10.4 1.8h-10.7l-2.7 8h-4.8zm4.1 2.3l-2.7 8.1h9.7q9.6 0 9.6-4.5 0-1.8-2-2.7-1.9-0.9-5.8-0.9zm43.9-2.6q6.9 0 11 2.3 4 2.3 4 6.2-0.1 3.9-2.8 6.8-2.7 2.9-7.4 4.4-4.7 1.6-10.6 1.6-7.2 0-11.1-2.3-4-2.4-4-6.4 0-3.5 2.7-6.5 2.6-2.9 7.4-4.5 4.8-1.6 10.8-1.6zm-0.3 2.3q-5 0-8.5 1.3-3.5 1.3-5.4 3.9-1.9 2.6-1.9 5.2 0 3.1 2.7 4.7 2.7 1.6 7.8 1.6 5 0 8.5-1.3 3.5-1.2 5.4-3.8 1.9-2.5 1.9-5.3 0-3.1-2.7-4.7-2.8-1.6-7.8-1.6zm46.8 18.7h-5.2l-6.1-8.6h-11.1l-2.9 8.6h-4.8l6.9-20.7h15.4q5.4 0 8.6 1.5 3.2 1.5 3.2 3.9 0 2.8-2.7 4.4-2.7 1.6-8 2zm-21.7-10.7h11.6q4.5 0 6.9-1.1 2.3-1.1 2.3-3.2 0-1.6-1.9-2.5-1.9-0.8-5.6-0.8h-10.8zm57.3 10.7h-4.9l-1.9-6h-16.1l-6 6h-5.3l21.4-20.6h5.5zm-10.1-16.3l-0.7-2.2q-0.3 0.3-0.9 1-0.6 0.6-9.1 9.3h13.3zm41.2-2.1h-12.2l-6.2 18.4h-4.8l6.2-18.4h-12.2l0.7-2.2h29.2zm3 18.3h-4.9l7-20.6h4.8zm29.5-21q6.9 0 11 2.3 4 2.3 4 6.2-0.1 3.9-2.8 6.8-2.7 2.9-7.4 4.4-4.7 1.6-10.6 1.6-7.2 0-11.1-2.3-4-2.4-4-6.4 0-3.5 2.7-6.5 2.6-2.9 7.4-4.5 4.8-1.6 10.8-1.6zm-0.3 2.3q-5 0-8.5 1.3-3.5 1.3-5.4 3.9-1.9 2.6-1.9 5.2 0 3.1 2.7 4.7 2.7 1.6 7.8 1.6 5 0 8.5-1.3 3.5-1.2 5.4-3.8 1.9-2.5 1.9-5.3 0-3.1-2.7-4.7-2.8-1.6-7.8-1.6zm45.6 18.7h-5.6l-13.4-17.8q-0.5 2.5-1 4l-4.6 13.8h-4.3l6.9-20.7h5.4l13.4 17.8q0.7-2.7 1.1-4.1l4.6-13.7h4.3z"/>
    <path class="a" d="m75.4 21l48 74.4"/>
    <path class="a" d="m68.2 21l-48 74.4"/>
    <path class="b" d="m22.6 95.4h98.4"/>
    <path class="c" d="m164.1 94.2h493.6"/>
    <path class="d" d="m50.2 21c0-11.2 9.6-20.4 21.6-20.4 12 0 21.6 9.2 21.6 20.4 0 11.2-9.6 20.4-21.6 20.4-12 0-21.6-9.2-21.6-20.4z"/>
    <path class="d" d="m100.6 92.6c0-11.2 9.6-20.4 21.6-20.4 12 0 21.6 9.2 21.6 20.4 0 11.2-9.6 20.4-21.6 20.4-12 0-21.6-9.2-21.6-20.4z"/>
    <path class="d" d="m0.2 92.6c0-11.2 9.6-20.4 21.6-20.4 12 0 21.6 9.2 21.6 20.4 0 11.2-9.6 20.4-21.6 20.4-12 0-21.6-9.2-21.6-20.4z"/>
</svg>
