<svg viewBox="0 0 54 54" fill="none" 
  xmlns="http://www.w3.org/2000/svg">
  <path d="M53.3647 32.8491C53.7807 30.9657 54 29.0085 54 27C54 12.0883 41.9117 0 27 0C12.0883 0 0 12.0883 0 27C0 41.9117 12.0883 54 27 54C29.0085 54 30.9657 53.7807 32.8491 53.3647L24.1435 44.6591C18.4783 38.9939 18.4783 29.8087 24.1435 24.1435C29.8087 18.4783 38.9939 18.4783 44.6591 24.1435L53.3647 32.8491Z" fill="#B6B6B6"/>
  <path d="M27.0077 27.0075C31.1674 22.8478 37.9115 22.8478 42.0712 27.0075L50.873 35.8093C55.0327 39.969 55.0327 46.7132 50.873 50.8728C46.7134 55.0325 39.9692 55.0325 35.8095 50.8728L27.0077 42.071C22.848 37.9113 22.848 31.1672 27.0077 27.0075Z" fill="#2558DD"/>
</svg>
