<svg xmlns="http://www.w3.org/2000/svg" xml:space="preserve" viewBox="0 0 332 104"><path d="M.2 91.2h2.9l3.2 5.1 3.2-5.1h2.9v12.1H9.6v-7.9l-3.4 5.2-3.4-5.1v7.8H.2zm22.8-.1h2.4l5.2 12.1h-2.8l-1.1-2.7h-5.1l-1.1 2.7h-2.7zm2.8 7.1-1.6-3.9-1.6 3.9zm10.4-7h2.7v5.3l4.9-5.3H47l-5 5.1 5.1 6.9H44l-3.7-5.1-1.4 1.4v3.7h-2.7zm16.2 0h9.2v2.4h-6.5V96h5.7v2.4h-5.7v2.5h6.5v2.4h-9.2zm24.1 0h9.2v2.4h-6.5V96h5.7v2.4h-5.7v2.5h6.5v2.4h-9.2zm15.3 0h2.4l5.7 7.4v-7.4h2.6v12.1h-2.3l-5.8-7.7v7.7h-2.6zm16.8 6.1c0-3.5 2.6-6.3 6.3-6.3 2.3 0 3.6.8 4.8 1.9l-1.7 1.9c-.9-.8-1.9-1.4-3.1-1.4-2 0-3.5 1.7-3.5 3.8s1.4 3.8 3.5 3.8c1.4 0 2.2-.6 3.2-1.4l1.7 1.7c-1.2 1.3-2.6 2.2-4.9 2.2-3.7 0-6.3-2.8-6.3-6.2m16.7-6.1h5.7c1.5 0 2.7.4 3.5 1.2.7.7 1 1.6 1 2.8 0 1.9-1.1 3.2-2.6 3.7l2.9 4.3h-3.1l-2.6-3.9H128v3.9h-2.7zm5.6 5.8c1.3 0 2-.7 2-1.7 0-1.1-.8-1.7-2.1-1.7h-2.6V97zm13.8 1.5-4.6-7.3h3.1L146 96l2.9-4.8h3l-4.6 7.3v4.8h-2.7v-4.8zm12.5-7.3h5c2.9 0 4.6 1.7 4.6 4.2 0 2.8-2.2 4.2-4.9 4.2h-2v3.6h-2.7zm4.9 6.1c1.3 0 2.1-.8 2.1-1.8 0-1.2-.8-1.8-2.2-1.8h-2v3.7h2.1zm13.2-3.7h-3.7v-2.4h10v2.4H178v9.6h-2.7zm12.2-2.4h2.7v12.1h-2.7zm8.8 6.1c0-3.5 2.7-6.3 6.4-6.3s6.4 2.8 6.4 6.2-2.7 6.2-6.4 6.2c-3.7.1-6.4-2.7-6.4-6.1m10.1 0c0-2.1-1.5-3.8-3.7-3.8-2.1 0-3.6 1.7-3.6 3.8s1.5 3.8 3.7 3.8c2.1-.1 3.6-1.8 3.6-3.8m8.8-6.1h2.4l5.7 7.4v-7.4h2.6v12.1h-2.3l-5.8-7.7v7.7h-2.6zm26.1 0h2.8V96h4.9v-4.8h2.7v12.1H249v-4.8h-5v4.8h-2.7zm21-.1h2.4l5.2 12.1h-2.8l-1.1-2.7h-5l-1.1 2.7h-2.7zm2.8 7.1-1.6-3.9-1.6 3.9zm10.3-7h5c2.9 0 4.6 1.7 4.6 4.2 0 2.8-2.2 4.2-4.9 4.2h-2v3.6h-2.7zm4.8 6.1c1.3 0 2.1-.8 2.1-1.8 0-1.2-.8-1.8-2.2-1.8H278v3.7h2.2zm10.4-6.1h5c2.9 0 4.6 1.7 4.6 4.2 0 2.8-2.2 4.2-4.9 4.2h-2v3.6h-2.7zm4.9 6.1c1.3 0 2.1-.8 2.1-1.8 0-1.2-.8-1.8-2.2-1.8h-2.1v3.7h2.2zm10.3-6.1h9.2v2.4h-6.5V96h5.7v2.4h-5.7v2.5h6.5v2.4h-9.2zm15.4 0h2.4l5.7 7.4v-7.4h2.6v12.1h-2.3l-5.8-7.7v7.7h-2.6zM131.9 25.3v-.2c0-6.9-2.2-12.7-6.3-16.8-4.8-4.8-12-7.4-21.4-7.4H70.7v73.3h16.1V50.7h12.7l15.7 23.5H134L116.2 48c9.3-3.5 15.7-10.9 15.7-22.7m-16.4.8c0 6.2-4.5 10.4-12.4 10.4H86.8v-21h16c7.9 0 12.7 3.6 12.7 10.5z" style="fill:#262262;fill-rule:nonzero"/><path d="M145.7.9h16.1v73.3h-16.1z" style="fill:#262262"/><path d="m234 .9-19.3 31-19.2-31h-17.4v73.3h15.8V26.6l20.4 31h.4l20.7-31.3v47.9h16V.9zM0 0h30.8c18 0 28.8 10.5 28.8 25.7v.2C59.6 43.1 46 52 29.1 52H16.6v22.3H0zm29.7 37.5c8.3 0 13.1-4.9 13.1-11.3V26c0-7.3-5.2-11.3-13.5-11.3H16.6v22.7h13.1z" style="fill:#262262;fill-rule:nonzero"/><path d="M331.1 74.4h-18.9L262 1.1h18.8z" style="fill:#d83629;fill-rule:nonzero"/><path d="M279.2 74.4h-18.3l50.8-73.3H330z" style="fill:#fbaa19;fill-rule:nonzero"/><path d="m305.3 36.8-9.5 13.7L305 64s-7.1-12.3 1.4-25.4c-.4-.6-1.1-1.8-1.1-1.8" style="fill:url(#a);fill-rule:nonzero"/><defs><linearGradient id="a" x1="0" x2="1" y1="0" y2="0" gradientTransform="rotate(53.824 110.172 311.618)scale(25.5836)" gradientUnits="userSpaceOnUse"><stop offset="0" style="stop-color:#89133d;stop-opacity:.71"/><stop offset="1" style="stop-color:#89133d;stop-opacity:0"/></linearGradient></defs></svg>