<svg xmlns="http://www.w3.org/2000/svg" viewBox="0 0 948 266"><style>.s0{fill:#000}</style><path fill-rule="evenodd" d="M382.4 88.9q9 0 15.6 3.3c4.4 2.2 8.3 5.9 11.8 11.3h.5c-.3-6.4-.5-12.7-.5-18.9V54.7h7.5v119.1h-5l-1.9-12.7h-.6c-6.3 9.5-15.4 14.2-27.3 14.2-11.5 0-20.3-3.6-26.3-10.7-6.1-7.1-9.1-17.6-9.1-31.2q0-21.6 9-33c6.1-7.7 14.8-11.5 26.3-11.5m0 6.9c-9.1 0-15.9 3.2-20.5 9.6S355 121 355 133.2c0 23.6 9.2 35.4 27.5 35.4 9.4 0 16.3-2.7 20.7-8.2q6.6-8.3 6.6-27V132c0-12.9-2.2-22.1-6.5-27.8-4.3-5.6-11.2-8.4-20.9-8.4" class="s0"/><path d="M444.2 67.4c0-4.9 1.6-7.3 4.8-7.3 1.6 0 2.8.6 3.7 1.9s1.3 3.1 1.3 5.4-.4 4.1-1.3 5.4-2.1 2-3.7 2c-3.2 0-4.8-2.5-4.8-7.4m8.7 106.3h-7.6V90.5h7.6z" class="s0"/><path fill-rule="evenodd" d="m545.7 95.8-17.2 1.1c4.6 5.7 6.9 12 6.9 18.8 0 8-2.7 14.5-8 19.5s-12.5 7.5-21.5 7.5c-3.8 0-6.4-.2-8-.5-3 1.6-5.3 3.4-6.9 5.6-1.6 2.1-2.4 4.4-2.4 6.8 0 2.7 1 4.6 3 5.8s5.4 1.8 10.1 1.8h14.5c9 0 16 1.8 20.8 5.5s7.2 9 7.2 16.2c0 8.8-3.6 15.6-10.7 20.3-7.1 4.8-17.3 7.2-30.4 7.2q-15.8 0-24.3-6c-5.7-4-8.6-9.6-8.6-16.8 0-5.7 1.8-10.5 5.3-14.2 3.5-3.8 8.4-6.4 14.4-7.7-2.5-1.1-4.5-2.6-6-4.6s-2.3-4.2-2.3-6.8c0-5.6 3.5-10.5 10.6-14.7-4.9-2-8.6-5.1-11.3-9.4s-4.1-9.2-4.1-14.7c0-8.3 2.6-15 7.9-20s12.4-7.5 21.4-7.5c5.5 0 9.7.5 12.7 1.6h26.9zm-67.4 92c0 11.4 8.5 17.2 25.5 17.2 21.8 0 32.8-7 32.8-20.9 0-5-1.7-8.6-5.1-10.9-3.4-2.2-9-3.4-16.6-3.4h-13.6c-15.4 0-23 6-23 18m6.3-71.3c0 6.4 2 11.4 5.9 15 3.9 3.5 9.1 5.3 15.7 5.3 6.9 0 12.3-1.8 16-5.3s5.6-8.6 5.6-15.3c0-7.1-1.9-12.4-5.7-16-3.8-3.5-9.1-5.3-16-5.3-6.6 0-11.9 1.9-15.7 5.7-3.9 3.8-5.8 9.1-5.8 15.9" class="s0"/><path d="M561.7 67.4c0-4.9 1.6-7.3 4.8-7.3 1.6 0 2.8.6 3.7 1.9s1.3 3.1 1.3 5.4-.4 4.1-1.3 5.4-2.1 2-3.7 2c-3.2 0-4.8-2.5-4.8-7.4m8.6 106.3h-7.6V90.5h7.6zM620.2 168.5q7.2 0 12.6-1.2v6.1c-3.7 1.2-7.9 1.8-12.7 1.8-7.3 0-12.8-2-16.3-5.9s-5.2-10.1-5.2-18.5V97h-12.3v-4.4l12.3-3.4 3.8-18.8h3.9v20.1h24.4v6.6h-24.4v52.7c0 6.4 1.1 11.1 3.4 14.2 2.1 3 5.7 4.5 10.5 4.5" class="s0"/><path fill-rule="evenodd" d="M719.6 132q0 20.4-9.9 31.8t-27.3 11.4c-7.3 0-13.7-1.8-19.3-5.3s-9.8-8.6-12.8-15.2-4.4-14.2-4.4-22.8c0-13.6 3.3-24.2 9.9-31.7 6.6-7.6 15.6-11.4 27.1-11.4 11.4 0 20.4 3.8 26.9 11.5 6.5 7.8 9.8 18.3 9.8 31.7m-65.7 0c0 11.4 2.5 20.4 7.5 26.8q7.5 9.6 21.3 9.6t21.3-9.6c5-6.4 7.5-15.3 7.5-26.8s-2.5-20.4-7.6-26.7-12.2-9.5-21.4-9.5-16.3 3.2-21.2 9.5c-5 6.2-7.4 15.2-7.4 26.7" class="s0"/><path d="M775.4 88.9c3.5 0 7.3.4 11.3 1.1l-1.5 7.3c-3.5-.9-7.1-1.3-10.8-1.3-7.1 0-12.9 3-17.5 9-4.5 6-6.8 13.6-6.8 22.8v45.9h-7.6V90.5h6.4l.8 15h.5c3.4-6.1 7.1-10.4 10.9-12.9 4.1-2.5 8.8-3.7 14.3-3.7M810.2 90.5v53.9c0 8.4 1.8 14.5 5.3 18.3s9 5.7 16.4 5.7q14.8 0 21.9-7.5c4.7-5 7-13.1 7-24.4V90.6h7.5v83.2h-6.5l-1.4-11.5h-.5c-5.4 8.7-15 13-28.9 13-18.9 0-28.4-10.1-28.4-30.4V90.5zM947.7 152.1c0 7.5-2.8 13.2-8.5 17.2s-13.7 6-24.1 6c-11.1 0-20-1.7-26.5-5.1V162c8.4 4.2 17.2 6.3 26.5 6.3 8.2 0 14.5-1.4 18.7-4.1 4.3-2.7 6.4-6.4 6.4-10.9 0-4.2-1.7-7.7-5.1-10.6s-9-5.7-16.7-8.4c-8.3-3-14.2-5.6-17.5-7.8-3.4-2.2-5.9-4.6-7.6-7.3s-2.6-6.1-2.6-10c0-6.2 2.6-11.2 7.8-14.8q7.8-5.4 21.9-5.4c9 0 17.5 1.7 25.6 5.1l-2.8 6.9c-8.2-3.4-15.7-5.1-22.7-5.1-6.8 0-12.2 1.1-16.2 3.4-4 2.2-6 5.4-6 9.3 0 4.3 1.5 7.8 4.6 10.4s9.1 5.5 18.1 8.7c7.5 2.7 13 5.1 16.4 7.3s6 4.6 7.7 7.4c1.8 2.7 2.6 5.9 2.6 9.7M126.5 256v9.8C94.2 264.2 64.9 251 42.8 230l8.7-8.8s24.2 27.6 63.7 33.7c3.8.6 7.5 1 11.3 1.1" class="s0"/><path d="M76.5 196c13.7 11.6 31.1 18.7 50.1 19.4v34.1c-27.8-.1-53.4-12.1-71.5-31.8zM254.5 137.3h9.7c-1 33.3-14.2 63.5-35.2 86.3l-6.8-6.9c19.9-28 19.4-64.3 19.3-68.9-.1-2.2-.4-4.5-.7-6.8-.2-1.3-.5-2.5-.7-3.7h9.2c1.4 10.2 1.6 20.5.4 30.8 2.8-9.8 4.5-20.1 4.8-30.8M216.8 222.2l6.8 6.9c-23.3 22.5-54.7 36.5-89.3 36.9v-9.7c31.9-.4 60.9-13.3 82.5-34.1M43.2 35.7C65.3 14.9 94.4 1.7 126.6.2v12.7C100.1 13.8 74.1 23 52.7 40c-.9.8-1.8 1.7-2.7 2.6zM206.7 38.2c-21.8-16.4-47.1-24.6-72.4-25.3V0c34.4.4 65.7 14.3 89 36.6l-8.4 8.5c-2.6-2.4-5.4-4.7-8.2-6.9M220.5 50.5l8.2-8.3c21.3 23 34.6 53.6 35.5 87.3h-9.6c-.4-15.1-3.5-29.6-8.9-42.9-6.1-13.2-14.5-25.5-25.2-36.1M211.7 129.5c-.6-19.2-7.7-36.9-19.2-50.7l1.6-1.6c14.5 13.5 25.1 31.5 29.4 52.3zM187.3 72.9c-3.1-3-6.3-5.8-9.8-8.3 3.7 2.2 7.3 4.7 10.7 7.4zM64.1 57c18.5-13.4 40.2-20.9 62.4-22.1V49c-19.3.7-36.9 8.1-50.6 19.9zM139.2 49.4c-1.6-.1-3.3-.3-4.9-.4V34.7c23.7.3 47.5 7.8 68.1 23l-8.9 9c-15.9-10.4-34.6-16.5-54.3-17.3M238.4 129.5c-6.1-23.9-20-44.1-38.4-58.3l8.5-8.6c21 17.8 34.3 41.5 39.5 66.9zM193 198.3l13.8 14c-10.4 13.6-26.4 25.9-50.8 33.1h-.3c-4.6 1.4-9.3 2.5-14.2 3.2-2.4.3-4.8.5-7.2.7v-33.9c20.4-1.2 38.8-9.9 52.5-23.4zM211.2 205.7l-1.4-1.4-17.8-18c11.3-13.4 18.5-30.4 19.6-49h13.3c.5 3.7.7 7.3.8 10.8 0 0 3 29.9-14.5 57.6" class="s0"/><path d="m118.1 132.9-89.4 82.8C11.5 194 .9 166.8 0 137.2v-7.8c.8-29.9 11.4-57.3 28.7-79.2z" style="fill:#ec1c27"/></svg>