<svg version="1.2" xmlns="http://www.w3.org/2000/svg" viewBox="0 0 948 266">
  <style>.s0{fill:#000000}.s1{fill:#ec1c27}</style>
  <path fill-rule="evenodd" class="s0" d="m382.4 88.9q9 0 15.6 3.3c4.4 2.2 8.3 5.9 11.8 11.3h0.5c-0.3-6.4-0.5-12.7-0.5-18.9v-29.9h7.5v119.1h-5l-1.9-12.7h-0.6c-6.3 9.5-15.4 14.2-27.3 14.2c-11.5 0-20.3-3.6-26.3-10.7c-6.1-7.1-9.1-17.6-9.1-31.2q0-21.6 9-33c6.1-7.7 14.8-11.5 26.3-11.5zm0 6.9c-9.1 0-15.9 3.2-20.5 9.6c-4.6 6.4-6.9 15.6-6.9 27.8c0 23.6 9.2 35.4 27.5 35.4c9.4 0 16.3-2.7 20.7-8.2q6.6-8.3 6.6-27v-1.4c0-12.9-2.2-22.1-6.5-27.8c-4.3-5.6-11.2-8.4-20.9-8.4z"/>
  <path class="s0" d="m444.2 67.4c0-4.9 1.6-7.3 4.8-7.3c1.6 0 2.8 0.6 3.7 1.9c0.9 1.3 1.3 3.1 1.3 5.4c0 2.3-0.4 4.1-1.3 5.4c-0.9 1.3-2.1 2-3.7 2c-3.2 0-4.8-2.5-4.8-7.4zm8.7 106.3h-7.6v-83.2h7.6z"/>
  <path fill-rule="evenodd" class="s0" d="m545.7 95.8l-17.2 1.1c4.6 5.7 6.9 12 6.9 18.8c0 8-2.7 14.5-8 19.5c-5.3 5-12.5 7.5-21.5 7.5c-3.8 0-6.4-0.2-8-0.5c-3 1.6-5.3 3.4-6.9 5.6c-1.6 2.1-2.4 4.4-2.4 6.8c0 2.7 1 4.6 3 5.8c2 1.2 5.4 1.8 10.1 1.8h14.5c9 0 16 1.8 20.8 5.5c4.8 3.7 7.2 9 7.2 16.2c0 8.8-3.6 15.6-10.7 20.3c-7.1 4.8-17.3 7.2-30.4 7.2q-15.8 0-24.3-6c-5.7-4-8.6-9.6-8.6-16.8c0-5.7 1.8-10.5 5.3-14.2c3.5-3.8 8.4-6.4 14.4-7.7c-2.5-1.1-4.5-2.6-6-4.6c-1.5-2-2.3-4.2-2.3-6.8c0-5.6 3.5-10.5 10.6-14.7c-4.9-2-8.6-5.1-11.3-9.4c-2.7-4.3-4.1-9.2-4.1-14.7c0-8.3 2.6-15 7.9-20c5.3-5 12.4-7.5 21.4-7.5c5.5 0 9.7 0.5 12.7 1.6h26.9zm-67.4 92c0 11.4 8.5 17.2 25.5 17.2c21.8 0 32.8-7 32.8-20.9c0-5-1.7-8.6-5.1-10.9c-3.4-2.2-9-3.4-16.6-3.4h-13.6c-15.4 0-23 6-23 18zm6.3-71.3c0 6.4 2 11.4 5.9 15c3.9 3.5 9.1 5.3 15.7 5.3c6.9 0 12.3-1.8 16-5.3c3.7-3.5 5.6-8.6 5.6-15.3c0-7.1-1.9-12.4-5.7-16c-3.8-3.5-9.1-5.3-16-5.3c-6.6 0-11.9 1.9-15.7 5.7c-3.9 3.8-5.8 9.1-5.8 15.9z"/>
  <path class="s0" d="m561.7 67.4c0-4.9 1.6-7.3 4.8-7.3c1.6 0 2.8 0.6 3.7 1.9c0.9 1.3 1.3 3.1 1.3 5.4c0 2.3-0.4 4.1-1.3 5.4c-0.9 1.3-2.1 2-3.7 2c-3.2 0-4.8-2.5-4.8-7.4zm8.6 106.3h-7.6v-83.2h7.6z"/>
  <path class="s0" d="m620.2 168.5q7.2 0 12.6-1.2v6.1c-3.7 1.2-7.9 1.8-12.7 1.8c-7.3 0-12.8-2-16.3-5.9c-3.5-3.9-5.2-10.1-5.2-18.5v-53.8h-12.3v-4.4l12.3-3.4l3.8-18.8h3.9v20.1h24.4v6.6h-24.4v52.7c0 6.4 1.1 11.1 3.4 14.2c2.1 3 5.7 4.5 10.5 4.5z"/>
  <path fill-rule="evenodd" class="s0" d="m719.6 132q0 20.4-9.9 31.8q-9.9 11.4-27.3 11.4c-7.3 0-13.7-1.8-19.3-5.3c-5.6-3.5-9.8-8.6-12.8-15.2c-3-6.6-4.4-14.2-4.4-22.8c0-13.6 3.3-24.2 9.9-31.7c6.6-7.6 15.6-11.4 27.1-11.4c11.4 0 20.4 3.8 26.9 11.5c6.5 7.8 9.8 18.3 9.8 31.7zm-65.7 0c0 11.4 2.5 20.4 7.5 26.8q7.5 9.6 21.3 9.6q13.8 0 21.3-9.6c5-6.4 7.5-15.3 7.5-26.8c0-11.5-2.5-20.4-7.6-26.7c-5.1-6.3-12.2-9.5-21.4-9.5c-9.2 0-16.3 3.2-21.2 9.5c-5 6.2-7.4 15.2-7.4 26.7z"/>
  <path class="s0" d="m775.4 88.9c3.5 0 7.3 0.4 11.3 1.1l-1.5 7.3c-3.5-0.9-7.1-1.3-10.8-1.3c-7.1 0-12.9 3-17.5 9c-4.5 6-6.8 13.6-6.8 22.8v45.9h-7.6v-83.2h6.4l0.8 15h0.5c3.4-6.1 7.1-10.4 10.9-12.9c4.1-2.5 8.8-3.7 14.3-3.7z"/>
  <path class="s0" d="m810.2 90.5v53.9c0 8.4 1.8 14.5 5.3 18.3c3.5 3.8 9 5.7 16.4 5.7q14.8 0 21.9-7.5c4.7-5 7-13.1 7-24.4v-45.9h7.5v83.2h-6.5l-1.4-11.5h-0.5c-5.4 8.7-15 13-28.9 13c-18.9 0-28.4-10.1-28.4-30.4v-54.4z"/>
  <path class="s0" d="m947.7 152.1c0 7.5-2.8 13.2-8.5 17.2c-5.7 4-13.7 6-24.1 6c-11.1 0-20-1.7-26.5-5.1v-8.2c8.4 4.2 17.2 6.3 26.5 6.3c8.2 0 14.5-1.4 18.7-4.1c4.3-2.7 6.4-6.4 6.4-10.9c0-4.2-1.7-7.7-5.1-10.6c-3.4-2.9-9-5.7-16.7-8.4c-8.3-3-14.2-5.6-17.5-7.8c-3.4-2.2-5.9-4.6-7.6-7.3c-1.7-2.7-2.6-6.1-2.6-10c0-6.2 2.6-11.2 7.8-14.8q7.8-5.4 21.9-5.4c9 0 17.5 1.7 25.6 5.1l-2.8 6.9c-8.2-3.4-15.7-5.1-22.7-5.1c-6.8 0-12.2 1.1-16.2 3.4c-4 2.2-6 5.4-6 9.3c0 4.3 1.5 7.8 4.6 10.4c3.1 2.6 9.1 5.5 18.1 8.7c7.5 2.7 13 5.1 16.4 7.3c3.4 2.2 6 4.6 7.7 7.4c1.8 2.7 2.6 5.9 2.6 9.7z"/>
  <path class="s0" d="m126.5 256v9.8c-32.3-1.6-61.6-14.8-83.7-35.8l8.7-8.8c0 0 24.2 27.6 63.7 33.7c3.8 0.6 7.5 1 11.3 1.1z"/>
  <path class="s0" d="m76.5 196c13.7 11.6 31.1 18.7 50.1 19.4v34.1c-27.8-0.1-53.4-12.1-71.5-31.8z"/>
  <path class="s0" d="m254.5 137.3h9.7c-1 33.3-14.2 63.5-35.2 86.3l-6.8-6.9c19.9-28 19.4-64.3 19.3-68.9c-0.1-2.2-0.4-4.5-0.7-6.8c-0.2-1.3-0.5-2.5-0.7-3.7h9.2c1.4 10.2 1.6 20.5 0.4 30.8c2.8-9.8 4.5-20.1 4.8-30.8z"/>
  <path class="s0" d="m216.8 222.2l6.8 6.9c-23.3 22.5-54.7 36.5-89.3 36.9v-9.7c31.9-0.4 60.9-13.3 82.5-34.1z"/>
  <path class="s0" d="m43.2 35.7c22.1-20.8 51.2-34 83.4-35.5v12.7c-26.5 0.9-52.5 10.1-73.9 27.1c-0.9 0.8-1.8 1.7-2.7 2.6z"/>
  <path class="s0" d="m206.7 38.2c-21.8-16.4-47.1-24.6-72.4-25.3v-12.9c34.4 0.4 65.7 14.3 89 36.6l-8.4 8.5c-2.6-2.4-5.4-4.7-8.2-6.9z"/>
  <path class="s0" d="m220.5 50.5l8.2-8.3c21.3 23 34.6 53.6 35.5 87.3h-9.6c-0.4-15.1-3.5-29.6-8.9-42.9c-6.1-13.2-14.5-25.5-25.2-36.1z"/>
  <path class="s0" d="m211.7 129.5c-0.6-19.2-7.7-36.9-19.2-50.7l1.6-1.6c14.5 13.5 25.1 31.5 29.4 52.3z"/>
  <path class="s0" d="m187.3 72.9c-3.1-3-6.3-5.8-9.8-8.3c3.7 2.2 7.3 4.7 10.7 7.4z"/>
  <path class="s0" d="m64.1 57c18.5-13.4 40.2-20.9 62.4-22.1v14.1c-19.3 0.7-36.9 8.1-50.6 19.9z"/>
  <path class="s0" d="m139.2 49.4c-1.6-0.1-3.3-0.3-4.9-0.4v-14.3c23.7 0.3 47.5 7.8 68.1 23l-8.9 9c-15.9-10.4-34.6-16.5-54.3-17.3z"/>
  <path class="s0" d="m238.4 129.5c-6.1-23.9-20-44.1-38.4-58.3l8.5-8.6c21 17.8 34.3 41.5 39.5 66.9z"/>
  <path class="s0" d="m193 198.3l13.8 14c-10.4 13.6-26.4 25.9-50.8 33.1h-0.1c-0.1 0-0.1 0-0.2 0c-4.6 1.4-9.3 2.5-14.2 3.2c-2.4 0.3-4.8 0.5-7.2 0.7v-33.9c20.4-1.2 38.8-9.9 52.5-23.4z"/>
  <path class="s0" d="m211.2 205.7l-1.4-1.4l-17.8-18c11.3-13.4 18.5-30.4 19.6-49h13.3c0.5 3.7 0.7 7.3 0.8 10.8c0 0 3 29.9-14.5 57.6z"/>
  <path class="s1" d="m118.1 132.9l-89.4 82.8c-17.2-21.7-27.8-48.9-28.7-78.5v-7.8c0.8-29.9 11.4-57.3 28.7-79.2z"/>
</svg>
