<?xml version="1.0" encoding="utf-8"?>
<!-- Generator: Adobe Illustrator 19.2.1, SVG Export Plug-In . SVG Version: 6.00 Build 0)  -->
<svg version="1.1" id="Layer_1" 
  xmlns="http://www.w3.org/2000/svg" 
  xmlns:xlink="http://www.w3.org/1999/xlink" x="0px" y="0px" viewBox="0 0 720 72.1" style="enable-background:new 0 0 720 72.1;" xml:space="preserve">
  <style type="text/css">
	.st0{fill:#E31837;}
	.st1{fill:#012169;}
</style>
  <path class="st0" d="M664.6,69.1c0-1.6,1.3-2.9,3-2.9s3,1.3,3,2.9s-1.3,3-3,3S664.6,70.8,664.6,69.1 M665.2,69.1
	c0,1.3,1.1,2.4,2.5,2.4c1.3,0,2.4-1,2.4-2.4c0-1.3-1.1-2.3-2.4-2.3C666.2,66.8,665.2,67.9,665.2,69.1"/>
  <path class="st0" d="M669.1,70.8h-0.6l-1-1.5h-0.6v1.5h-0.4v-3.3h1.5c0.3,0,0.6,0,0.8,0.2c0.3,0.1,0.4,0.4,0.4,0.7
	c0,0.6-0.5,0.9-1.1,0.9L669.1,70.8L669.1,70.8z M667.5,68.9c0.5,0,1.1,0.1,1.1-0.5c0-0.4-0.4-0.5-0.8-0.5h-0.9v1H667.5L667.5,68.9z"/>
  <path class="st0" d="M653.3,72.1c21-18,50.5-35.5,66.7-41.8c-2.5-1.6-6.4-3.9-10.8-6.4c-20.9,6.9-45.3,22.2-67.1,39.5
	C645.8,66.2,649.7,69.1,653.3,72.1L653.3,72.1z"/>
  <path class="st1" d="M643.7,23.2c-3.1-1.5-6.5-2.9-9.1-4.1c-7.9,3.9-18.2,9.8-31.2,19.1c2.8,1.5,5.8,3.3,9,5.1
	C622.4,35.9,632.5,28.9,643.7,23.2z"/>
  <path class="st0" d="M662.4,14.6c-3.8-2.1-17-7-26.1-9.1c-2.7,1-6.5,2.5-9.1,3.6c3.3,0.9,15.6,4.2,26.1,9.5
	C656,17.3,659.8,15.7,662.4,14.6z"/>
  <path class="st1" d="M617.7,13.3c-11.7,5.4-24,12.8-30.7,17.1c2.4,1.1,4.8,2,8.1,3.6c14.8-10,26.4-16.1,31-18.1
	C622.8,14.7,619.7,13.9,617.7,13.3L617.7,13.3z"/>
  <path class="st0" d="M671.2,11.5c2.7-0.9,5.8-1.7,8.5-2.5c-7.8-3.3-17.6-6.8-26.4-9c-1.4,0.4-5.6,1.5-8.5,2.4
	C647.8,3.3,657.7,5.6,671.2,11.5z M621.9,49.1c3.2,1.9,6.6,4.5,9.9,6.7c21.9-17,43.5-30.1,67.2-37.5c-3.3-1.7-6.2-3.2-9.9-5
	C674.9,16.9,650.6,26.6,621.9,49.1z"/>
  <path class="st1" d="M0,66.9h16c8.1,0,11.9-4.2,11.9-10.1c0-4.8-2.5-8-7.7-9c4.6-1.1,6.7-3.9,6.7-8c0-5.2-3.8-9.4-11.9-9.4H0.1v36.5
	H0z M13.9,51.4c3,0,5.1,1.5,5.1,4.5c0,3.2-2,4.5-5.1,4.5H8.7v-9.1h5.2V51.4z M12.9,36.8c3,0,5.1,1.3,5.1,4.3s-2,4.3-5.1,4.3H8.7
	v-8.6L12.9,36.8L12.9,36.8z M60.2,30.3h-9L37.5,66.9h9.1l2.5-7.6h13.2l2.5,7.6H74L60.2,30.3L60.2,30.3z M55.7,39.1L60,52.6h-8.8
	L55.7,39.1z M119.6,30.3h-8.3v24.5L95.7,30.3h-9.3v36.6h8.3V42.5l15.6,24.4h9.3V30.3z M157.9,66.9l-12-18.6v18.6H137V30.3h8.9v17.6
	l11.4-17.6h9.9l-12,17.6l13.1,19H157.9z M199.8,48.6c0,7.3,4.4,11.8,10.1,11.8S220,55.9,220,48.6s-4.4-11.8-10.1-11.8
	S199.8,41.3,199.8,48.6z M190.4,48.6c0.1-10.7,7.6-19.1,19.5-19.1s19.4,8.4,19.5,19.1c-0.1,10.7-7.6,19.1-19.5,19.1
	S190.5,59.3,190.4,48.6z M241.6,66.9h8.9V52.5h11.6v-7h-11.6v-8.2h14l1.6-7h-24.5V66.9z M307.6,30.3h-9l-13.7,36.6h9.1l2.5-7.6h13.2
	l2.5,7.6h9.2L307.6,30.3z M303.1,39.1l4.3,13.5h-8.8L303.1,39.1z M374.2,30.3h-10.4l-9.5,19.8l-9.5-19.8h-10.4v36.6h8V42.4
	l11.8,24.5L366,42.4v24.5h8.3L374.2,30.3L374.2,30.3z M391.5,66.9h25v-7h-16.1v-8.2h12.7v-6.8h-12.7v-7.6h14.7l1.6-7h-25.2
	L391.5,66.9L391.5,66.9z M450.4,66.9h9.7L451,51.4c5-1.4,7.4-4.9,7.4-10c0-6.6-4-11-13-11h-14.1V67h8.7V52.6h2.4L450.4,66.9
	L450.4,66.9z M443.7,37.1c3.7,0,5.6,1.6,5.6,4.7s-1.9,4.7-5.6,4.7h-3.8v-9.4L443.7,37.1L443.7,37.1z M473.4,66.9h8.9V30.4h-8.9V66.9
	z M526.1,57.1c-3.4,2.4-6.4,3.2-9.5,3.2c-6.8,0-11.6-4.7-11.6-11.7s4.7-11.7,11.3-11.7c3,0,6,0.8,9.3,3.2v-8.3
	c-3-1.7-6.5-2.4-10.4-2.4c-12.1,0-19.7,8.4-19.8,19.1c0.1,10.8,7.5,19.1,19.8,19.1c4.1,0,7.6-0.7,10.8-2.4v-8.1L526.1,57.1z
	 M558.7,30.3h-9L536,66.9h9.1l2.5-7.6h13.2l2.5,7.6h9.2L558.7,30.3z M554.2,39.1l4.3,13.5h-8.8L554.2,39.1L554.2,39.1z"/>
</svg>
