<svg version="1.1" id="Layer_1" xmlns="http://www.w3.org/2000/svg" xmlns:xlink="http://www.w3.org/1999/xlink" x="0px" y="0px"
	 width="100%" viewBox="0 0 4100 1182" enable-background="new 0 0 4100 1182" xml:space="preserve">
<path fill="#4C6971" opacity="1.000000" stroke="none" 
	d="
M4102.000000,416.000000 
	C4102.000000,671.874817 4102.000000,927.749573 4102.000000,1184.000000 
	C3786.613037,1184.000000 3471.226074,1184.000000 3154.788574,1183.071045 
	C3153.262695,1166.859497 3153.560059,1151.505127 3152.149414,1136.309326 
	C3149.249512,1105.073608 3134.169678,1081.843506 3104.753418,1069.097534 
	C3082.423584,1059.422119 3058.773193,1055.994385 3034.700928,1055.761353 
	C2997.373535,1055.400024 2960.040039,1055.710938 2922.708984,1055.630615 
	C2914.371582,1055.612671 2906.020996,1055.010986 2898.686523,1050.407959 
	C2888.502441,1044.016235 2887.208496,1031.849854 2895.434814,1023.060486 
	C2900.521484,1017.625732 2907.140381,1015.578186 2914.013672,1014.138245 
	C2934.912842,1009.759888 2956.155273,1008.776001 2977.408691,1008.392639 
	C3002.534912,1007.939453 3027.073730,1004.282410 3050.782471,995.858643 
	C3072.400146,988.177734 3091.565186,976.684021 3107.260742,959.580322 
	C3123.382568,942.012451 3132.186768,921.162903 3135.357910,897.928833 
	C3139.409668,868.244812 3134.336426,840.750671 3112.886475,818.212585 
	C3104.959717,809.883606 3096.307861,802.244446 3086.197998,792.581116 
	C3117.120850,800.776306 3146.442627,808.755066 3177.704590,807.397278 
	C3177.704590,786.622437 3177.704590,766.543701 3177.704590,746.213562 
	C3175.824219,745.992493 3174.548096,745.730469 3173.268066,745.708496 
	C3145.652100,745.232788 3118.037109,744.656311 3090.419189,744.371887 
	C3069.756104,744.159180 3049.088135,744.427307 3028.424316,744.254578 
	C3023.821777,744.216125 3019.177246,743.491211 3014.636475,742.635681 
	C2965.751953,733.424927 2917.877930,735.781616 2872.070801,756.534668 
	C2842.925781,769.739014 2820.233887,790.393860 2807.314941,820.195984 
	C2795.902588,846.522217 2793.688232,874.092102 2798.933105,902.259277 
	C2801.322266,915.088501 2805.382568,927.318420 2811.924805,938.705139 
	C2828.343750,967.280884 2853.464844,984.829895 2883.814697,995.845642 
	C2886.409668,996.787476 2888.955322,997.865051 2893.538086,999.674988 
	C2889.894043,1000.053711 2888.593018,1000.211548 2887.287842,1000.321228 
	C2871.698975,1001.631531 2856.199463,1003.485291 2841.545166,1009.397034 
	C2827.929443,1014.889526 2815.647949,1022.377625 2810.285645,1036.912231 
	C2799.790771,1065.357300 2809.782471,1098.188232 2844.602539,1109.812622 
	C2864.121582,1116.328857 2884.224609,1118.160645 2904.551758,1118.278687 
	C2939.215332,1118.479736 2973.880615,1118.266968 3008.544922,1118.368774 
	C3021.624023,1118.407227 3034.365967,1120.607056 3046.351562,1126.067383 
	C3060.960693,1132.723145 3068.914795,1144.204468 3070.286133,1160.177002 
	C3070.967041,1168.108521 3071.435303,1176.058472 3072.000000,1184.000000 
	C2048.882568,1184.000000 1025.765015,1184.000000 2.000000,1184.000000 
	C2.000000,882.613220 2.000000,581.226013 2.424814,279.489349 
	C4.147367,282.556946 5.549239,285.938568 6.725732,289.396881 
	C13.676255,309.827759 26.886530,324.778290 47.100704,332.226837 
	C56.275299,335.607513 66.524590,337.545776 76.298813,337.593597 
	C159.928116,338.002563 243.560257,337.833740 327.191559,337.807190 
	C330.850220,337.806030 334.508850,337.508820 338.652496,337.866028 
	C343.548706,345.776886 347.951538,353.176178 352.372986,360.564362 
	C359.509247,372.488983 366.657745,384.406342 373.962341,397.009613 
	C375.279694,400.077057 376.289551,402.546326 377.614197,404.833313 
	C393.242157,431.815002 408.873779,458.794830 424.605804,485.715942 
	C429.440338,493.989044 434.583099,502.082031 439.786926,510.935852 
	C451.962769,532.370300 463.084045,553.678650 476.094727,573.763000 
	C500.162537,610.916077 556.097717,610.655762 580.585510,582.297852 
	C587.482361,574.311035 593.373962,565.289368 598.708740,556.148254 
	C626.906677,507.830780 654.541687,459.183990 682.861267,410.938568 
	C697.976196,385.188599 705.727356,357.810333 703.787476,328.005554 
	C702.790771,312.692627 700.094604,297.611389 692.410156,283.134216 
	C689.996887,277.632965 688.006409,272.709595 685.427979,268.116211 
	C676.190674,251.659882 666.859009,235.254318 657.364807,218.944977 
	C647.045654,201.218567 636.505249,183.620941 625.864136,165.298492 
	C612.984375,142.565323 600.389465,120.449738 587.583679,98.456940 
	C580.779907,86.772102 573.610596,75.300156 566.316589,63.103836 
	C555.789551,46.629887 542.416870,33.841061 526.518982,23.959867 
	C508.048676,12.479803 488.190369,4.526937 465.624969,3.704028 
	C464.748047,3.018216 464.331421,2.546739 464.000000,2.000000 
	C672.720398,2.000000 881.440735,2.000000 1091.119141,2.464254 
	C1092.077026,2.928508 1092.052612,3.859884 1091.190918,4.050325 
	C1083.395996,4.878976 1076.446655,5.378066 1069.532104,6.178656 
	C1032.876953,10.422712 997.800171,19.917011 965.405945,38.050060 
	C895.900757,76.956451 867.128845,138.708420 866.525635,215.826431 
	C866.425110,228.685333 868.160400,241.658966 870.117493,254.415436 
	C876.984009,299.170715 897.146790,336.796478 931.703613,366.396362 
	C964.433105,394.431030 1003.007751,409.726135 1044.789185,417.791840 
	C1056.744141,420.099701 1068.858032,421.584808 1081.656738,423.564392 
	C1081.656738,436.721710 1081.656616,449.657928 1081.656616,462.594116 
	C1081.656616,475.919647 1081.617920,489.245300 1081.667969,502.570648 
	C1081.716064,515.397949 1081.447021,528.242432 1081.833740,540.944763 
	C1110.095459,540.944763 1136.894531,540.944763 1164.343262,540.944763 
	C1164.343262,530.596619 1164.343384,520.960327 1164.343384,511.324036 
	C1164.343384,501.329895 1164.343384,491.335754 1164.343384,481.341614 
	C1164.343384,471.680603 1164.270142,462.018921 1164.363647,452.358795 
	C1164.458984,442.511902 1163.937256,432.622803 1164.698364,422.894745 
	C1192.901978,420.460266 1219.217041,415.336151 1244.738037,406.262115 
	C1280.573730,393.520630 1311.585938,373.727417 1336.249023,344.485901 
	C1366.867676,308.183502 1378.417603,265.128876 1379.408569,218.829834 
	C1379.754517,202.671570 1378.027832,186.291473 1375.514526,170.284805 
	C1369.458130,131.712540 1352.547974,98.080406 1324.847778,70.578323 
	C1299.116089,45.030849 1267.857666,28.355705 1233.274658,17.722483 
	C1207.421753,9.773441 1180.838135,6.115183 1154.041748,3.250959 
	C1154.058472,2.833512 1154.000000,2.000000 1154.000000,2.000000 
	C2136.666748,2.000000 3119.333252,2.000000 4102.000000,2.000000 
	C4102.000000,67.529335 4102.000000,132.845261 4101.415039,198.542847 
	C4094.836914,152.344498 4069.060059,121.792580 4025.077637,106.570854 
	C3999.189453,97.611305 3972.345459,96.115280 3945.341797,99.732056 
	C3896.453613,106.279999 3859.052734,130.649475 3833.660645,173.127121 
	C3831.881348,176.103851 3830.019043,179.031097 3827.457520,183.174454 
	C3826.534912,180.118698 3826.193115,178.892548 3825.795898,177.684464 
	C3814.813965,144.280807 3792.939209,121.032303 3760.134766,108.534767 
	C3729.211182,96.753876 3696.963623,94.992210 3664.864502,100.904747 
	C3617.223145,109.680099 3581.331055,135.514465 3559.474609,179.534561 
	C3558.424805,181.649246 3556.824951,183.491013 3555.481201,185.459824 
	C3554.933350,185.253906 3554.385742,185.047974 3553.837891,184.842041 
	C3553.837891,158.311600 3553.837891,131.781158 3553.837891,104.929749 
	C3526.240967,104.929749 3499.438232,104.929749 3472.390625,104.929749 
	C3472.390625,208.923721 3472.390625,312.320129 3472.390625,415.682587 
	C3499.941406,415.682587 3526.755371,415.682587 3554.341309,415.682587 
	C3554.341309,411.450897 3554.341553,407.842133 3554.341553,404.233398 
	C3554.341553,351.249573 3554.806885,298.258820 3554.018066,245.286758 
	C3553.817627,231.827240 3558.125732,221.296921 3566.227051,211.685989 
	C3571.131104,205.868073 3576.344727,200.096451 3582.288086,195.404526 
	C3619.216553,166.252762 3660.753418,157.867188 3706.151367,169.627884 
	C3728.526855,175.424469 3742.133057,190.651123 3746.937012,212.967560 
	C3749.224854,223.597000 3750.116455,234.704849 3750.182129,245.604721 
	C3750.500977,298.586639 3750.326172,351.571503 3750.326172,404.555328 
	C3750.326172,408.125305 3750.326416,411.695282 3750.326416,415.628021 
	C3778.184082,415.628021 3804.928955,415.628021 3832.341309,415.628021 
	C3832.341309,411.312988 3832.341064,407.695923 3832.341064,404.078888 
	C3832.341064,344.763672 3832.418945,285.448181 3832.223145,226.133606 
	C3832.203125,220.102539 3833.805420,215.486069 3837.567871,210.770889 
	C3849.944580,195.260056 3865.800537,184.466812 3883.580566,176.511337 
	C3914.820068,162.533325 3947.134766,160.657242 3979.852783,170.490189 
	C3998.288818,176.030853 4011.176270,188.256943 4016.199951,207.053467 
	C4019.085449,217.849548 4021.314697,229.183838 4021.420166,240.298843 
	C4021.942871,295.277069 4021.658936,350.263000 4021.658936,405.246216 
	C4021.658936,408.757660 4021.658691,412.269104 4021.658691,416.000000 
	C4049.437500,416.000000 4075.718750,416.000000 4102.000000,416.000000 
M813.773621,490.634308 
	C789.872253,446.012878 720.981140,443.170532 694.056702,491.339294 
	C677.364929,521.201233 659.728210,550.533691 642.666443,580.190613 
	C633.576355,595.990967 624.806946,611.975830 614.910339,628.816956 
	C608.656250,639.687500 601.939575,650.323120 596.267761,661.489502 
	C589.515137,674.783569 584.612671,688.802856 583.445251,705.511108 
	C580.950256,721.861389 581.664978,738.016479 586.493774,755.442139 
	C590.775330,771.880676 596.555542,787.622437 607.805542,802.265015 
	C616.418579,817.073608 625.031555,831.882263 634.116150,847.934021 
	C641.387451,860.637451 648.658813,873.340820 656.492493,887.332458 
	C664.288818,900.250854 672.085144,913.169312 680.470581,927.360474 
	C688.318115,940.899414 696.165588,954.438354 704.361084,969.335876 
	C708.229980,976.189697 711.818665,983.221802 716.036743,989.853577 
	C721.661499,998.697083 726.867981,1007.982239 736.698853,1015.113892 
	C760.880798,1041.699463 791.696045,1055.383057 826.872070,1055.708252 
	C928.031128,1056.643433 1029.204468,1056.033447 1130.372192,1056.014526 
	C1133.031616,1056.013916 1135.691040,1055.830078 1139.523071,1055.206787 
	C1142.557251,1050.506836 1145.794922,1045.924805 1148.594849,1041.089233 
	C1189.618164,970.240417 1230.536133,899.330566 1271.606201,828.508850 
	C1278.800171,816.103149 1281.935913,803.122437 1282.425415,788.649109 
	C1283.432007,758.885315 1257.264038,722.000793 1216.577026,721.927368 
	C1127.011963,721.765808 1037.446167,721.943970 947.004700,720.961975 
	C941.962708,711.963928 936.920715,702.965881 931.014343,692.936096 
	C929.290955,690.207642 927.510132,687.513611 925.854431,684.744751 
	C919.329590,673.832764 912.843994,662.897278 905.973511,650.573425 
	C897.357178,635.704834 888.740845,620.836182 879.727295,604.624084 
	C871.246643,590.266296 862.765930,575.908569 853.923828,560.220276 
	C847.303528,548.803101 840.683228,537.385864 833.524597,524.689026 
	C832.248047,522.433228 831.015259,520.151367 829.687256,517.926270 
	C824.518982,509.266235 819.320496,500.624268 813.773621,490.634308 
M1859.802490,907.604248 
	C1856.700562,902.115112 1854.118896,896.241882 1850.401489,891.207336 
	C1838.188721,874.666809 1820.814941,865.549316 1801.603760,860.244690 
	C1787.032349,856.221313 1771.967529,853.985168 1755.999146,850.724304 
	C1759.957764,849.682861 1763.101807,848.942322 1766.193970,848.026733 
	C1777.642456,844.636780 1789.397949,841.997314 1800.434570,837.570923 
	C1816.470703,831.139526 1830.521362,821.180054 1839.173218,805.886902 
	C1855.028076,777.861633 1853.955811,748.306274 1843.115723,719.166687 
	C1833.020508,692.029663 1811.006836,676.686218 1785.166260,666.233582 
	C1755.404663,654.195007 1723.881958,650.915100 1692.345215,650.593689 
	C1614.052368,649.795593 1535.745972,650.324585 1457.444946,650.376099 
	C1455.253296,650.377563 1453.062134,651.008972 1450.923096,651.338562 
	C1450.923096,786.439026 1450.923096,920.904175 1450.923096,1056.334717 
	C1455.427002,1056.334717 1459.356567,1056.334839 1463.286011,1056.334839 
	C1538.921387,1056.334839 1614.557129,1056.441284 1690.192017,1056.243896 
	C1705.124756,1056.204956 1720.092773,1055.457153 1734.976562,1054.218628 
	C1757.618042,1052.334595 1779.639526,1047.345337 1800.541748,1038.223267 
	C1823.363037,1028.263672 1842.907593,1014.174438 1854.394287,991.366028 
	C1867.725464,964.894958 1869.154541,937.294983 1859.802490,907.604248 
M2725.679688,771.000122 
	C2725.679688,720.810913 2725.679688,670.621704 2725.679688,620.614136 
	C2710.670410,618.729553 2650.045166,619.323425 2642.320312,621.435425 
	C2642.320312,634.843323 2642.320068,648.454346 2642.320068,662.065308 
	C2642.320068,675.726624 2642.320068,689.388000 2642.320068,703.049316 
	C2642.320068,717.043884 2642.320068,731.038391 2642.320068,745.032959 
	C2642.320068,758.694275 2642.399902,772.356262 2642.297363,786.016785 
	C2642.197510,799.282104 2642.758545,812.584595 2641.136475,825.841309 
	C2639.229492,823.450928 2638.180908,821.044250 2637.157471,818.627075 
	C2621.384277,781.371948 2594.208496,756.684143 2555.349854,745.387939 
	C2516.344727,734.049255 2476.986084,734.057922 2438.464600,746.560547 
	C2394.536621,760.817932 2361.998291,788.977173 2343.766602,832.106873 
	C2329.783691,865.185669 2327.307617,899.748047 2333.849365,934.706421 
	C2343.816406,987.971313 2374.449951,1025.723145 2423.495605,1048.116699 
	C2451.475586,1060.891846 2481.151367,1064.589966 2511.935303,1062.511108 
	C2560.820312,1059.209839 2599.163086,1038.616211 2625.019531,996.500610 
	C2631.001465,986.757080 2635.806885,976.291199 2641.818359,964.898560 
	C2643.309326,996.142151 2644.021240,1026.116211 2648.627441,1055.514526 
	C2664.752686,1057.318970 2717.989502,1056.686646 2725.679688,1054.543701 
	C2725.679688,960.825806 2725.679688,866.913025 2725.679688,771.000122 
M3495.235596,972.228027 
	C3484.482910,983.293030 3471.131348,989.984436 3456.568115,994.100159 
	C3426.115967,1002.706116 3395.383789,1002.903320 3365.067383,993.958862 
	C3336.067383,985.402832 3313.138672,968.617004 3300.459473,940.218140 
	C3297.276855,933.089539 3295.563721,925.304810 3292.653320,916.185547 
	C3392.643555,916.185547 3490.723145,916.185547 3588.611572,916.185547 
	C3591.237061,898.455078 3590.232178,874.452454 3585.695557,852.701416 
	C3575.625244,804.421936 3548.128906,770.541504 3501.938232,752.415894 
	C3477.851318,742.964050 3452.648193,739.189209 3426.929932,738.066345 
	C3384.593018,736.217896 3343.200684,740.390198 3303.958496,757.638733 
	C3269.997314,772.566101 3242.936035,795.224548 3226.247314,829.005798 
	C3211.991943,857.861267 3208.376221,888.347046 3211.509521,920.177673 
	C3217.081055,976.772156 3247.515869,1015.467102 3297.218994,1040.047607 
	C3331.813965,1057.156494 3369.083252,1063.390381 3407.421143,1063.590942 
	C3419.033447,1063.651733 3430.658203,1062.921509 3442.264404,1062.307861 
	C3464.686523,1061.122559 3486.386963,1056.459961 3507.125977,1047.806763 
	C3534.119873,1036.543823 3557.356689,1020.492676 3572.827881,994.886475 
	C3580.602783,982.017639 3586.573242,968.498413 3587.993164,952.833496 
	C3561.139893,952.833496 3534.949219,952.833496 3510.190674,952.833496 
	C3505.027344,959.639709 3500.634521,965.429993 3495.235596,972.228027 
M2261.678955,175.000137 
	C2261.678955,151.782822 2261.678955,128.565491 2261.678955,105.576851 
	C2249.028320,103.486832 2187.166992,103.927940 2179.449951,106.176384 
	C2179.449951,133.682388 2179.449951,161.433548 2179.449951,189.184708 
	C2177.151367,187.454346 2176.236816,185.486145 2175.456055,183.466064 
	C2158.136475,138.645020 2126.344238,111.009422 2078.897217,101.657722 
	C2063.779297,98.677940 2048.578857,98.180603 2033.260010,98.285019 
	C2009.374634,98.447823 1986.300049,102.650620 1964.321411,112.020203 
	C1922.472168,129.860779 1892.337402,159.367508 1876.613892,202.442413 
	C1865.498901,232.892303 1864.375977,264.554993 1870.481689,295.931854 
	C1880.721436,348.555206 1911.237061,385.982819 1960.063110,408.244904 
	C1977.745239,416.307098 1996.298462,420.732910 2015.756226,422.628967 
	C2040.981323,425.087006 2065.675781,423.349182 2089.515869,415.209747 
	C2130.129150,401.343597 2156.973877,372.674133 2173.650879,333.781097 
	C2175.010742,330.609528 2176.378906,327.441498 2177.743164,324.271790 
	C2179.241943,355.212402 2179.768799,385.563538 2185.161377,416.323730 
	C2210.761719,416.279358 2235.864990,416.490753 2261.678955,416.183167 
	C2261.678955,335.522339 2261.678955,256.261261 2261.678955,175.000137 
M3038.318604,170.999878 
	C3038.318604,180.329346 3038.232910,189.659744 3038.333740,198.988113 
	C3038.748047,237.255875 3038.035889,275.582764 3039.966553,313.775299 
	C3042.395020,361.822693 3069.561279,399.074646 3117.034424,414.817261 
	C3138.423828,421.910156 3160.429199,424.666168 3182.813965,424.226898 
	C3198.822754,423.912750 3214.596436,421.398834 3229.589600,415.441986 
	C3260.993652,402.965118 3283.181152,380.152313 3299.843506,351.539978 
	C3305.594238,341.665497 3310.142578,331.091064 3315.239990,320.836334 
	C3315.662842,320.880707 3316.085693,320.925049 3316.508545,320.969421 
	C3316.508545,352.433960 3316.508545,383.898529 3316.508545,415.660583 
	C3344.598145,415.660583 3371.697510,415.660583 3398.700195,415.660583 
	C3400.874268,399.436768 3400.099365,111.774651 3397.966797,104.929489 
	C3371.099609,104.929489 3344.247559,104.929489 3316.319092,104.929489 
	C3316.319092,109.093666 3316.319092,112.667213 3316.319092,116.240753 
	C3316.319092,164.552902 3315.661133,212.879059 3316.688477,261.169342 
	C3317.030762,277.272125 3312.188965,290.345154 3303.326416,302.767487 
	C3300.043701,307.368835 3296.746582,312.021454 3292.936523,316.174164 
	C3274.975098,335.750763 3253.887695,350.288727 3227.268799,355.318848 
	C3208.437256,358.877411 3189.638428,358.430328 3170.925293,354.114380 
	C3139.925781,346.964813 3126.496826,329.008667 3122.392822,299.550995 
	C3120.977295,289.390900 3120.474365,279.033875 3120.436035,268.763458 
	C3120.245361,217.786530 3120.349121,166.808502 3120.349121,115.830849 
	C3120.349121,112.289612 3120.349121,108.748367 3120.349121,104.304985 
	C3092.285645,104.571190 3065.552246,103.762917 3038.318604,104.857170 
	C3038.318604,127.054039 3038.318604,148.026947 3038.318604,170.999878 
M1459.093384,353.640839 
	C1471.494995,382.452515 1492.993652,401.791229 1521.886108,413.019501 
	C1540.946289,420.426758 1561.007446,423.499786 1581.360596,424.213409 
	C1617.218750,425.470734 1649.823853,416.821198 1677.268433,392.340576 
	C1696.255371,375.404266 1709.846802,354.793610 1720.148438,331.785065 
	C1722.124146,327.372345 1724.019653,322.923706 1725.952026,318.491638 
	C1726.591431,318.600128 1727.230957,318.708618 1727.870361,318.817108 
	C1727.870361,351.113586 1727.870361,383.410065 1727.870361,415.779297 
	C1755.588257,415.779297 1782.095703,415.779297 1808.502197,415.779297 
	C1810.488647,404.251221 1810.068481,112.308228 1808.105103,104.914742 
	C1781.649292,104.914742 1755.150513,104.914742 1727.651489,104.914742 
	C1727.651489,109.079117 1727.651489,112.663918 1727.651489,116.248726 
	C1727.651489,167.230804 1727.589966,218.213058 1727.739990,269.194672 
	C1727.756104,274.705902 1726.733154,279.691010 1724.217163,284.497955 
	C1716.612671,299.027771 1707.615479,312.477692 1695.634766,323.893982 
	C1658.837646,358.957153 1616.023804,365.137115 1568.995850,350.260162 
	C1555.394409,345.957458 1545.691284,336.631897 1539.535767,323.567200 
	C1534.033691,311.889465 1531.696167,299.630157 1531.690674,286.846680 
	C1531.666504,229.866714 1531.680054,172.886734 1531.679932,115.906769 
	C1531.679932,112.359741 1531.679932,108.812721 1531.679932,105.499237 
	C1518.881958,103.536324 1456.246338,103.958740 1448.761230,105.932220 
	C1448.625000,107.438599 1448.340820,109.062332 1448.351196,110.684181 
	C1448.766724,175.613129 1449.257690,240.541656 1449.613403,305.470917 
	C1449.701904,321.635925 1452.874756,337.141083 1459.093384,353.640839 
M2685.898926,171.413757 
	C2671.637207,135.174347 2644.718262,113.594948 2607.609131,103.815643 
	C2583.831299,97.549492 2559.687256,96.543556 2535.447754,99.762207 
	C2483.134766,106.708710 2444.841064,133.780685 2420.772461,180.836472 
	C2419.858643,182.623428 2418.751953,184.311661 2417.735107,186.045898 
	C2417.134277,185.874985 2416.533447,185.704086 2415.932617,185.533173 
	C2415.932617,158.745743 2415.932617,131.958298 2415.932617,104.294022 
	C2388.236572,104.592354 2361.510742,103.764549 2334.995605,104.814598 
	C2334.995605,209.282272 2334.995605,312.417664 2334.995605,415.464447 
	C2349.873047,417.341583 2409.188477,416.698059 2416.345215,414.551331 
	C2416.345215,411.030151 2416.345215,407.380676 2416.345215,403.731232 
	C2416.345215,351.425964 2416.910645,299.110718 2415.988770,246.821701 
	C2415.724365,231.807312 2420.645508,219.981262 2430.007324,209.776428 
	C2467.432373,168.981354 2513.980225,157.132370 2566.996826,169.020844 
	C2588.066650,173.745590 2602.302979,187.483139 2607.812012,208.595917 
	C2610.465576,218.765732 2612.049072,229.508560 2612.128418,240.006927 
	C2612.544434,294.974304 2612.322754,349.946472 2612.322754,404.916992 
	C2612.322754,408.459961 2612.322754,412.002930 2612.322754,415.361206 
	C2627.487061,417.314819 2687.163574,416.690735 2694.345215,414.563385 
	C2694.345215,411.049286 2694.345215,407.400848 2694.345215,403.752411 
	C2694.345215,343.118286 2694.270020,282.483978 2694.394043,221.850098 
	C2694.428467,205.046829 2691.732422,188.786179 2685.898926,171.413757 
M2907.667480,410.437378 
	C2907.670898,334.126648 2907.670410,257.815918 2907.692383,181.505173 
	C2907.693359,178.180023 2907.892334,174.854309 2908.045410,171.531097 
	C2908.057373,171.272903 2908.429199,171.023941 2908.648926,170.784744 
	C2908.874268,170.539780 2909.118652,170.312073 2910.291260,169.142914 
	C2935.189697,169.142914 2961.035156,169.142914 2987.479980,169.142914 
	C2987.736572,147.105927 2987.847412,126.011665 2987.460938,104.010956 
	C2960.169434,104.010956 2934.323975,104.010956 2907.498291,104.010956 
	C2907.498291,75.604744 2907.498291,48.111671 2907.498291,20.410669 
	C2879.733643,20.410669 2852.984131,20.410669 2825.247559,20.410669 
	C2825.247559,48.644634 2825.247559,76.146370 2825.247559,104.545288 
	C2798.401611,104.545288 2772.535400,104.545288 2746.330078,104.545288 
	C2746.330078,126.579292 2746.330078,147.678925 2746.330078,169.670563 
	C2755.579834,169.670563 2764.176514,169.670563 2772.773193,169.670563 
	C2781.770508,169.670563 2790.776367,169.425903 2799.762695,169.741501 
	C2808.224365,170.038666 2816.851318,168.319275 2824.881836,170.771713 
	C2825.224854,171.781219 2825.418945,172.085876 2825.419189,172.390747 
	C2825.508057,251.363617 2825.583740,330.336517 2825.661865,409.309387 
	C2825.662842,410.308868 2825.667480,411.309875 2825.721680,412.307343 
	C2825.757568,412.970123 2825.845459,413.636993 2825.990723,414.283875 
	C2826.055908,414.575378 2826.297119,414.839844 2826.496582,415.085541 
	C2826.705811,415.342834 2826.960693,415.562866 2827.728516,416.334930 
	C2837.827148,416.334930 2848.459961,416.335358 2859.092773,416.334839 
	C2872.755371,416.334198 2886.418701,416.407318 2900.080078,416.273438 
	C2903.078125,416.244049 2907.225342,417.658081 2907.667480,410.437378 
M2129.678955,792.893677 
	C2129.678955,774.692993 2129.678955,756.492310 2129.678955,737.817871 
	C2108.593018,737.505615 2090.163574,741.644897 2072.943848,751.477234 
	C2047.625366,765.933838 2031.071777,787.938416 2018.593994,813.543274 
	C2015.938354,818.992493 2013.693359,824.641907 2011.259277,830.199097 
	C2010.605591,830.038574 2009.951782,829.878113 2009.298096,829.717590 
	C2009.298096,801.556091 2009.298096,773.394592 2009.298096,744.834229 
	C1981.834839,744.834229 1955.348633,744.834229 1928.258057,744.834229 
	C1928.258057,848.704956 1928.258057,952.069824 1928.258057,1055.355469 
	C1942.029541,1057.247437 2001.914795,1056.717285 2009.678589,1054.532593 
	C2009.678589,1051.114380 2009.678589,1047.498291 2009.678589,1043.882080 
	C2009.678589,994.246826 2009.631714,944.611450 2009.763550,894.976562 
	C2009.774658,890.772095 2009.874878,885.962036 2011.801514,882.461304 
	C2033.183472,843.610901 2065.069092,819.437317 2109.777100,813.703979 
	C2116.220947,812.877686 2122.686523,812.220825 2129.678955,811.424377 
	C2129.678955,805.439209 2129.678955,800.147644 2129.678955,792.893677 
M2197.229492,744.329956 
	C2193.001221,744.329956 2188.773193,744.329956 2184.762695,744.329956 
	C2182.762451,757.774841 2183.312988,1048.736206 2185.155518,1055.726562 
	C2211.674805,1055.726562 2238.180176,1055.726562 2264.582275,1055.726562 
	C2266.648682,1042.407715 2266.061279,751.963501 2263.857910,744.329956 
	C2242.432129,744.329956 2220.808105,744.329956 2197.229492,744.329956 
M2205.012939,680.333191 
	C2227.174805,680.333191 2249.336670,680.333191 2271.316162,680.333191 
	C2273.213867,666.011230 2272.706543,616.124084 2270.745361,608.978088 
	C2240.007324,608.978088 2209.255127,608.978088 2177.670166,608.978088 
	C2177.661621,633.018616 2177.626465,656.404419 2177.687500,680.333191 
	C2187.121094,680.333191 2195.069336,680.333191 2205.012939,680.333191 
z"/>
<path fill="#FEFEFE" opacity="1.000000" stroke="none" 
	d="
M4102.000000,415.062683 
	C4075.718750,416.000000 4049.437500,416.000000 4021.658691,416.000000 
	C4021.658691,412.269104 4021.658936,408.757660 4021.658936,405.246216 
	C4021.658936,350.263000 4021.942871,295.277069 4021.420166,240.298843 
	C4021.314697,229.183838 4019.085449,217.849548 4016.199951,207.053467 
	C4011.176270,188.256943 3998.288818,176.030853 3979.852783,170.490189 
	C3947.134766,160.657242 3914.820068,162.533325 3883.580566,176.511337 
	C3865.800537,184.466812 3849.944580,195.260056 3837.567871,210.770889 
	C3833.805420,215.486069 3832.203125,220.102539 3832.223145,226.133606 
	C3832.418945,285.448181 3832.341064,344.763672 3832.341064,404.078888 
	C3832.341064,407.695923 3832.341309,411.312988 3832.341309,415.628021 
	C3804.928955,415.628021 3778.184082,415.628021 3750.326416,415.628021 
	C3750.326416,411.695282 3750.326172,408.125305 3750.326172,404.555328 
	C3750.326172,351.571503 3750.500977,298.586639 3750.182129,245.604721 
	C3750.116455,234.704849 3749.224854,223.597000 3746.937012,212.967560 
	C3742.133057,190.651123 3728.526855,175.424469 3706.151367,169.627884 
	C3660.753418,157.867188 3619.216553,166.252762 3582.288086,195.404526 
	C3576.344727,200.096451 3571.131104,205.868073 3566.227051,211.685989 
	C3558.125732,221.296921 3553.817627,231.827240 3554.018066,245.286758 
	C3554.806885,298.258820 3554.341553,351.249573 3554.341553,404.233398 
	C3554.341553,407.842133 3554.341309,411.450897 3554.341309,415.682587 
	C3526.755371,415.682587 3499.941406,415.682587 3472.390625,415.682587 
	C3472.390625,312.320129 3472.390625,208.923721 3472.390625,104.929749 
	C3499.438232,104.929749 3526.240967,104.929749 3553.837891,104.929749 
	C3553.837891,131.781158 3553.837891,158.311600 3553.837891,184.842041 
	C3554.385742,185.047974 3554.933350,185.253906 3555.481201,185.459824 
	C3556.824951,183.491013 3558.424805,181.649246 3559.474609,179.534561 
	C3581.331055,135.514465 3617.223145,109.680099 3664.864502,100.904747 
	C3696.963623,94.992210 3729.211182,96.753876 3760.134766,108.534767 
	C3792.939209,121.032303 3814.813965,144.280807 3825.795898,177.684464 
	C3826.193115,178.892548 3826.534912,180.118698 3827.457520,183.174454 
	C3830.019043,179.031097 3831.881348,176.103851 3833.660645,173.127121 
	C3859.052734,130.649475 3896.453613,106.279999 3945.341797,99.732056 
	C3972.345459,96.115280 3999.189453,97.611305 4025.077637,106.570854 
	C4069.060059,121.792580 4094.836914,152.344498 4101.415039,199.462265 
	C4102.000000,271.375122 4102.000000,342.750244 4102.000000,415.062683 
z"/>
<path fill="#FEFEFE" opacity="1.000000" stroke="none" 
	d="
M3072.937012,1184.000000 
	C3071.435303,1176.058472 3070.967041,1168.108521 3070.286133,1160.177002 
	C3068.914795,1144.204468 3060.960693,1132.723145 3046.351562,1126.067383 
	C3034.365967,1120.607056 3021.624023,1118.407227 3008.544922,1118.368774 
	C2973.880615,1118.266968 2939.215332,1118.479736 2904.551758,1118.278687 
	C2884.224609,1118.160645 2864.121582,1116.328857 2844.602539,1109.812622 
	C2809.782471,1098.188232 2799.790771,1065.357300 2810.285645,1036.912231 
	C2815.647949,1022.377625 2827.929443,1014.889526 2841.545166,1009.397034 
	C2856.199463,1003.485291 2871.698975,1001.631531 2887.287842,1000.321228 
	C2888.593018,1000.211548 2889.894043,1000.053711 2893.538086,999.674988 
	C2888.955322,997.865051 2886.409668,996.787476 2883.814697,995.845642 
	C2853.464844,984.829895 2828.343750,967.280884 2811.924805,938.705139 
	C2805.382568,927.318420 2801.322266,915.088501 2798.933105,902.259277 
	C2793.688232,874.092102 2795.902588,846.522217 2807.314941,820.195984 
	C2820.233887,790.393860 2842.925781,769.739014 2872.070801,756.534668 
	C2917.877930,735.781616 2965.751953,733.424927 3014.636475,742.635681 
	C3019.177246,743.491211 3023.821777,744.216125 3028.424316,744.254578 
	C3049.088135,744.427307 3069.756104,744.159180 3090.419189,744.371887 
	C3118.037109,744.656311 3145.652100,745.232788 3173.268066,745.708496 
	C3174.548096,745.730469 3175.824219,745.992493 3177.704590,746.213562 
	C3177.704590,766.543701 3177.704590,786.622437 3177.704590,807.397278 
	C3146.442627,808.755066 3117.120850,800.776306 3086.197998,792.581116 
	C3096.307861,802.244446 3104.959717,809.883606 3112.886475,818.212585 
	C3134.336426,840.750671 3139.409668,868.244812 3135.357910,897.928833 
	C3132.186768,921.162903 3123.382568,942.012451 3107.260742,959.580322 
	C3091.565186,976.684021 3072.400146,988.177734 3050.782471,995.858643 
	C3027.073730,1004.282410 3002.534912,1007.939453 2977.408691,1008.392639 
	C2956.155273,1008.776001 2934.912842,1009.759888 2914.013672,1014.138245 
	C2907.140381,1015.578186 2900.521484,1017.625732 2895.434814,1023.060486 
	C2887.208496,1031.849854 2888.502441,1044.016235 2898.686523,1050.407959 
	C2906.020996,1055.010986 2914.371582,1055.612671 2922.708984,1055.630615 
	C2960.040039,1055.710938 2997.373535,1055.400024 3034.700928,1055.761353 
	C3058.773193,1055.994385 3082.423584,1059.422119 3104.753418,1069.097534 
	C3134.169678,1081.843506 3149.249512,1105.073608 3152.149414,1136.309326 
	C3153.560059,1151.505127 3153.262695,1166.859497 3153.869141,1183.071045 
	C3127.291504,1184.000000 3100.583008,1184.000000 3072.937012,1184.000000 
M2922.182373,941.256287 
	C2938.602783,947.760803 2955.742188,948.671814 2973.171387,948.451965 
	C2987.723389,948.268372 3001.615234,945.544556 3014.822754,939.713074 
	C3031.242188,932.463745 3043.684814,920.891602 3051.091309,904.294678 
	C3055.672607,894.028137 3056.690918,883.186157 3056.336182,872.101929 
	C3055.515137,846.436890 3044.460938,826.245667 3021.983643,814.022278 
	C2987.929688,795.503113 2952.607666,795.909058 2917.405273,811.130371 
	C2875.356445,829.312134 2868.561279,879.292053 2885.721191,910.830872 
	C2893.566406,925.250183 2906.100830,934.199158 2922.182373,941.256287 
z"/>
<path fill="#079780" opacity="1.000000" stroke="none" 
	d="
M338.167480,337.349487 
	C334.508850,337.508820 330.850220,337.806030 327.191559,337.807190 
	C243.560257,337.833740 159.928116,338.002563 76.298813,337.593597 
	C66.524590,337.545776 56.275299,335.607513 47.100704,332.226837 
	C26.886530,324.778290 13.676255,309.827759 6.725732,289.396881 
	C5.549239,285.938568 4.147367,282.556946 2.424814,278.569946 
	C2.000000,271.938812 2.000000,265.877625 2.493998,258.402557 
	C7.361860,247.338272 10.990409,237.261261 16.230400,228.106613 
	C50.551395,168.145294 85.184967,108.362633 119.801559,48.570908 
	C128.442825,33.645241 137.396103,18.900209 146.653534,4.559389 
	C152.515320,14.231086 157.932816,23.413624 163.343109,32.600391 
	C176.189682,54.414085 189.032837,76.229782 202.056519,98.724403 
	C212.936035,118.102638 223.535080,136.860077 234.369476,155.480591 
	C242.698303,169.794891 251.323410,183.936813 260.002991,198.831879 
	C267.666199,212.737778 275.006226,226.046936 282.653656,239.177032 
	C292.962799,256.877136 303.508667,274.439331 314.130981,292.737427 
	C315.213348,295.151550 316.089142,296.904572 317.026611,298.623993 
	C324.066711,311.536224 331.119019,324.441803 338.167480,337.349487 
z"/>
<path fill="#15D790" opacity="1.000000" stroke="none" 
	d="
M259.816772,198.155396 
	C251.323410,183.936813 242.698303,169.794891 234.369476,155.480591 
	C223.535080,136.860077 212.936035,118.102638 202.783752,98.649590 
	C205.430084,96.989944 207.878769,96.506271 209.564346,95.104790 
	C215.932205,89.810074 222.134338,84.307068 228.247375,78.716759 
	C239.745148,68.202148 251.091431,57.521900 262.587219,47.005104 
	C274.565613,36.046806 286.628815,25.180927 298.692322,14.316165 
	C302.378540,10.996253 304.343597,7.016205 304.000000,2.000000 
	C356.708466,2.000000 409.416901,2.000000 463.062683,2.000000 
	C464.331421,2.546739 464.748047,3.018216 465.617249,4.480077 
	C466.253571,9.834169 464.616364,13.062629 461.340973,15.978514 
	C451.672485,24.585770 442.211456,33.428532 432.755127,42.270958 
	C420.628784,53.610069 408.634369,65.090416 396.489838,76.409828 
	C388.721283,83.650597 380.782806,90.708961 372.922974,97.851822 
	C351.804077,117.044266 330.655762,136.204544 309.581665,155.446075 
	C299.530487,164.623260 289.817383,174.180252 279.574707,183.134598 
	C273.360687,188.566986 266.427094,193.176300 259.816772,198.155396 
z"/>
<path fill="#4C6971" opacity="1.000000" stroke="none" 
	d="
M146.205963,4.072152 
	C137.396103,18.900209 128.442825,33.645241 119.801559,48.570908 
	C85.184967,108.362633 50.551395,168.145294 16.230400,228.106613 
	C10.990409,237.261261 7.361860,247.338272 2.493998,257.494324 
	C2.000000,172.853699 2.000000,87.707397 2.000000,2.000000 
	C49.373646,2.000000 96.749504,2.000000 145.140732,2.515398 
	C146.172714,3.377915 146.189346,3.725033 146.205963,4.072152 
z"/>
<path fill="#0EE296" opacity="1.000000" stroke="none" 
	d="
M146.653534,4.559388 
	C146.189346,3.725033 146.172714,3.377915 146.078049,2.515398 
	C198.041794,2.000000 250.083572,2.000000 303.062683,2.000000 
	C304.343597,7.016205 302.378540,10.996253 298.692322,14.316165 
	C286.628815,25.180927 274.565613,36.046806 262.587219,47.005104 
	C251.091431,57.521900 239.745148,68.202148 228.247375,78.716759 
	C222.134338,84.307068 215.932205,89.810074 209.564346,95.104790 
	C207.878769,96.506271 205.430084,96.989944 202.604584,97.969864 
	C189.032837,76.229782 176.189682,54.414085 163.343109,32.600391 
	C157.932816,23.413624 152.515320,14.231086 146.653534,4.559388 
z"/>
<path fill="#939393" opacity="1.000000" stroke="none" 
	d="
M1153.062744,2.000000 
	C1154.000000,2.000000 1154.058472,2.833512 1153.113647,3.360322 
	C1132.130127,3.878049 1112.091309,3.868966 1092.052612,3.859884 
	C1092.052612,3.859884 1092.077026,2.928508 1092.038574,2.464254 
	C1112.041748,2.000000 1132.083618,2.000000 1153.062744,2.000000 
z"/>
<path fill="#FEFEFE" opacity="1.000000" stroke="none" 
	d="
M1860.040283,908.350037 
	C1869.154541,937.294983 1867.725464,964.894958 1854.394287,991.366028 
	C1842.907593,1014.174438 1823.363037,1028.263672 1800.541748,1038.223267 
	C1779.639526,1047.345337 1757.618042,1052.334595 1734.976562,1054.218628 
	C1720.092773,1055.457153 1705.124756,1056.204956 1690.192017,1056.243896 
	C1614.557129,1056.441284 1538.921387,1056.334839 1463.286011,1056.334839 
	C1459.356567,1056.334839 1455.427002,1056.334717 1450.923096,1056.334717 
	C1450.923096,920.904175 1450.923096,786.439026 1450.923096,651.338562 
	C1453.062134,651.008972 1455.253296,650.377563 1457.444946,650.376099 
	C1535.745972,650.324585 1614.052368,649.795593 1692.345215,650.593689 
	C1723.881958,650.915100 1755.404663,654.195007 1785.166260,666.233582 
	C1811.006836,676.686218 1833.020508,692.029663 1843.115723,719.166687 
	C1853.955811,748.306274 1855.028076,777.861633 1839.173218,805.886902 
	C1830.521362,821.180054 1816.470703,831.139526 1800.434570,837.570923 
	C1789.397949,841.997314 1777.642456,844.636780 1766.193970,848.026733 
	C1763.101807,848.942322 1759.957764,849.682861 1755.999146,850.724304 
	C1771.967529,853.985168 1787.032349,856.221313 1801.603760,860.244690 
	C1820.814941,865.549316 1838.188721,874.666809 1850.401489,891.207336 
	C1854.118896,896.241882 1856.700562,902.115112 1860.040283,908.350037 
M1775.384399,914.185852 
	C1771.890015,910.272522 1768.877075,905.739319 1764.801636,902.574097 
	C1756.165527,895.866699 1745.728271,893.248352 1735.044312,892.366333 
	C1720.156860,891.137329 1705.221802,889.884705 1690.299805,889.788696 
	C1640.991089,889.471436 1591.679321,889.655884 1542.368652,889.708435 
	C1539.864502,889.711121 1537.360962,890.281738 1535.033569,890.566406 
	C1533.262939,909.553955 1533.944214,978.660767 1535.942749,985.911011 
	C1537.520264,986.044312 1539.167358,986.304382 1540.814453,986.305115 
	C1596.122314,986.328918 1651.435181,986.721313 1706.734497,986.035767 
	C1719.488770,985.877625 1732.595581,983.326172 1744.849243,979.602478 
	C1777.113281,969.797974 1785.372681,940.346252 1775.384399,914.185852 
M1591.000122,720.326416 
	C1572.451050,720.326416 1553.901978,720.326416 1535.586426,720.326416 
	C1533.495117,732.973755 1533.945679,814.809143 1535.989258,821.931274 
	C1537.564209,822.059509 1539.211670,822.309998 1540.859253,822.310852 
	C1587.503662,822.334412 1634.149170,822.514587 1680.791870,822.234863 
	C1696.723633,822.139282 1712.654907,820.944824 1728.036743,816.074951 
	C1737.027588,813.228455 1745.636719,809.481018 1752.003418,802.337830 
	C1772.547363,779.288025 1763.283691,740.769104 1734.687866,729.002991 
	C1718.063232,722.162659 1700.660767,720.386841 1682.957397,720.345581 
	C1652.971802,720.275757 1622.985962,720.326416 1591.000122,720.326416 
z"/>
<path fill="#FEFEFE" opacity="1.000000" stroke="none" 
	d="
M1091.190918,4.050325 
	C1112.091309,3.868966 1132.130127,3.878049 1153.096924,3.777769 
	C1180.838135,6.115183 1207.421753,9.773441 1233.274658,17.722483 
	C1267.857666,28.355705 1299.116089,45.030849 1324.847778,70.578323 
	C1352.547974,98.080406 1369.458130,131.712540 1375.514526,170.284805 
	C1378.027832,186.291473 1379.754517,202.671570 1379.408569,218.829834 
	C1378.417603,265.128876 1366.867676,308.183502 1336.249023,344.485901 
	C1311.585938,373.727417 1280.573730,393.520630 1244.738037,406.262115 
	C1219.217041,415.336151 1192.901978,420.460266 1164.698364,422.894745 
	C1163.937256,432.622803 1164.458984,442.511902 1164.363647,452.358795 
	C1164.270142,462.018921 1164.343384,471.680603 1164.343384,481.341614 
	C1164.343384,491.335754 1164.343384,501.329895 1164.343384,511.324036 
	C1164.343384,520.960327 1164.343262,530.596619 1164.343262,540.944763 
	C1136.894531,540.944763 1110.095459,540.944763 1081.833740,540.944763 
	C1081.447021,528.242432 1081.716064,515.397949 1081.667969,502.570648 
	C1081.617920,489.245300 1081.656616,475.919647 1081.656616,462.594116 
	C1081.656616,449.657928 1081.656738,436.721710 1081.656738,423.564392 
	C1068.858032,421.584808 1056.744141,420.099701 1044.789185,417.791840 
	C1003.007751,409.726135 964.433105,394.431030 931.703613,366.396362 
	C897.146790,336.796478 876.984009,299.170715 870.117493,254.415436 
	C868.160400,241.658966 866.425110,228.685333 866.525635,215.826431 
	C867.128845,138.708420 895.900757,76.956451 965.405945,38.050060 
	C997.800171,19.917011 1032.876953,10.422712 1069.532104,6.178656 
	C1076.446655,5.378066 1083.395996,4.878976 1091.190918,4.050325 
M1281.241577,157.946945 
	C1279.681519,154.649277 1278.295532,151.255402 1276.534302,148.068893 
	C1259.917236,118.002594 1234.068115,99.252151 1202.197510,88.222878 
	C1173.943604,78.445145 1144.747803,75.402786 1114.917114,76.192642 
	C1085.360229,76.975266 1056.729614,81.807320 1029.635742,93.769188 
	C992.197388,110.298073 966.517334,137.336258 956.866028,177.975235 
	C952.220337,197.536682 951.982544,217.410751 954.480469,237.218536 
	C957.184814,258.663361 964.494629,278.413605 978.109863,295.616638 
	C998.661804,321.584290 1026.309814,335.764893 1057.578491,343.976929 
	C1091.788452,352.961426 1126.561157,353.858826 1161.397095,349.442566 
	C1183.531982,346.636444 1205.096558,340.900818 1224.970215,330.208069 
	C1251.328857,316.026276 1271.676514,296.138947 1282.160889,267.580505 
	C1295.386108,231.556274 1294.571899,195.404007 1281.241577,157.946945 
z"/>
<path fill="#FDFEFE" opacity="1.000000" stroke="none" 
	d="
M2725.679688,772.000122 
	C2725.679688,866.913025 2725.679688,960.825806 2725.679688,1054.543701 
	C2717.989502,1056.686646 2664.752686,1057.318970 2648.627441,1055.514526 
	C2644.021240,1026.116211 2643.309326,996.142151 2641.818359,964.898560 
	C2635.806885,976.291199 2631.001465,986.757080 2625.019531,996.500610 
	C2599.163086,1038.616211 2560.820312,1059.209839 2511.935303,1062.511108 
	C2481.151367,1064.589966 2451.475586,1060.891846 2423.495605,1048.116699 
	C2374.449951,1025.723145 2343.816406,987.971313 2333.849365,934.706421 
	C2327.307617,899.748047 2329.783691,865.185669 2343.766602,832.106873 
	C2361.998291,788.977173 2394.536621,760.817932 2438.464600,746.560547 
	C2476.986084,734.057922 2516.344727,734.049255 2555.349854,745.387939 
	C2594.208496,756.684143 2621.384277,781.371948 2637.157471,818.627075 
	C2638.180908,821.044250 2639.229492,823.450928 2641.136475,825.841309 
	C2642.758545,812.584595 2642.197510,799.282104 2642.297363,786.016785 
	C2642.399902,772.356262 2642.320068,758.694275 2642.320068,745.032959 
	C2642.320068,731.038391 2642.320068,717.043884 2642.320068,703.049316 
	C2642.320068,689.388000 2642.320068,675.726624 2642.320068,662.065308 
	C2642.320068,648.454346 2642.320312,634.843323 2642.320312,621.435425 
	C2650.045166,619.323425 2710.670410,618.729553 2725.679688,620.614136 
	C2725.679688,670.621704 2725.679688,720.810913 2725.679688,772.000122 
M2419.804443,932.827393 
	C2428.584961,959.369873 2446.082520,978.280945 2471.615723,988.933594 
	C2512.711182,1006.078796 2553.628174,1003.223145 2593.172363,983.898315 
	C2616.361328,972.566101 2631.541260,953.604309 2638.941406,928.602234 
	C2643.488525,913.239624 2643.389648,897.604431 2641.257080,882.081421 
	C2639.389893,868.493896 2634.439453,855.838989 2626.271484,844.452087 
	C2612.836426,825.722595 2594.314941,814.538635 2572.842773,807.955750 
	C2545.907959,799.698059 2518.278076,799.033813 2490.909180,804.618530 
	C2460.929688,810.735901 2437.825439,827.169678 2424.520264,855.484680 
	C2413.003662,879.993652 2412.790771,905.438660 2419.804443,932.827393 
z"/>
<path fill="#FEFEFE" opacity="1.000000" stroke="none" 
	d="
M3495.738770,971.724121 
	C3500.634521,965.429993 3505.027344,959.639709 3510.190674,952.833496 
	C3534.949219,952.833496 3561.139893,952.833496 3587.993164,952.833496 
	C3586.573242,968.498413 3580.602783,982.017639 3572.827881,994.886475 
	C3557.356689,1020.492676 3534.119873,1036.543823 3507.125977,1047.806763 
	C3486.386963,1056.459961 3464.686523,1061.122559 3442.264404,1062.307861 
	C3430.658203,1062.921509 3419.033447,1063.651733 3407.421143,1063.590942 
	C3369.083252,1063.390381 3331.813965,1057.156494 3297.218994,1040.047607 
	C3247.515869,1015.467102 3217.081055,976.772156 3211.509521,920.177673 
	C3208.376221,888.347046 3211.991943,857.861267 3226.247314,829.005798 
	C3242.936035,795.224548 3269.997314,772.566101 3303.958496,757.638733 
	C3343.200684,740.390198 3384.593018,736.217896 3426.929932,738.066345 
	C3452.648193,739.189209 3477.851318,742.964050 3501.938232,752.415894 
	C3548.128906,770.541504 3575.625244,804.421936 3585.695557,852.701416 
	C3590.232178,874.452454 3591.237061,898.455078 3588.611572,916.185547 
	C3490.723145,916.185547 3392.643555,916.185547 3292.653320,916.185547 
	C3295.563721,925.304810 3297.276855,933.089539 3300.459473,940.218140 
	C3313.138672,968.617004 3336.067383,985.402832 3365.067383,993.958862 
	C3395.383789,1002.903320 3426.115967,1002.706116 3456.568115,994.100159 
	C3471.131348,989.984436 3484.482910,983.293030 3495.738770,971.724121 
M3327.026367,867.686890 
	C3386.645020,867.505310 3446.263916,867.324341 3505.882568,867.122742 
	C3506.177002,867.121704 3506.528320,866.883606 3506.747559,866.654968 
	C3506.964111,866.429260 3507.046143,866.074707 3507.469971,865.178589 
	C3506.275635,853.836731 3501.687256,843.290405 3494.368652,834.026978 
	C3481.165527,817.315491 3463.206543,808.420715 3442.780029,804.265808 
	C3425.156982,800.681091 3407.458252,799.448181 3389.347900,801.416748 
	C3364.474121,804.120483 3341.989502,811.769592 3323.232666,828.659241 
	C3311.772217,838.978821 3302.722900,851.005859 3298.475586,867.686829 
	C3307.952393,867.686829 3316.497559,867.686829 3327.026367,867.686890 
z"/>
<path fill="#FDFEFE" opacity="1.000000" stroke="none" 
	d="
M2261.678955,176.000153 
	C2261.678955,256.261261 2261.678955,335.522339 2261.678955,416.183167 
	C2235.864990,416.490753 2210.761719,416.279358 2185.161377,416.323730 
	C2179.768799,385.563538 2179.241943,355.212402 2177.743164,324.271790 
	C2176.378906,327.441498 2175.010742,330.609528 2173.650879,333.781097 
	C2156.973877,372.674133 2130.129150,401.343597 2089.515869,415.209747 
	C2065.675781,423.349182 2040.981323,425.087006 2015.756226,422.628967 
	C1996.298462,420.732910 1977.745239,416.307098 1960.063110,408.244904 
	C1911.237061,385.982819 1880.721436,348.555206 1870.481689,295.931854 
	C1864.375977,264.554993 1865.498901,232.892303 1876.613892,202.442413 
	C1892.337402,159.367508 1922.472168,129.860779 1964.321411,112.020203 
	C1986.300049,102.650620 2009.374634,98.447823 2033.260010,98.285019 
	C2048.578857,98.180603 2063.779297,98.677940 2078.897217,101.657722 
	C2126.344238,111.009422 2158.136475,138.645020 2175.456055,183.466064 
	C2176.236816,185.486145 2177.151367,187.454346 2179.449951,189.184708 
	C2179.449951,161.433548 2179.449951,133.682388 2179.449951,106.176384 
	C2187.166992,103.927940 2249.028320,103.486832 2261.678955,105.576851 
	C2261.678955,128.565491 2261.678955,151.782822 2261.678955,176.000153 
M1956.079956,292.687073 
	C1964.855469,320.566803 1983.433472,339.593842 2010.135864,350.320343 
	C2047.114746,365.174988 2084.241699,362.808197 2120.868896,348.612885 
	C2134.033203,343.510925 2145.770020,335.612640 2155.168213,325.074127 
	C2177.370850,300.177063 2183.402588,270.630402 2176.902344,238.665909 
	C2169.110352,200.348999 2143.453613,178.655975 2107.208008,168.230133 
	C2083.247803,161.338058 2058.746094,160.397537 2034.156982,164.248001 
	C2009.710449,168.076172 1988.159180,177.961365 1972.446899,197.649338 
	C1950.124512,225.620026 1947.317383,257.453735 1956.079956,292.687073 
z"/>
<path fill="#FDFDFE" opacity="1.000000" stroke="none" 
	d="
M3038.318604,169.999863 
	C3038.318604,148.026947 3038.318604,127.054039 3038.318604,104.857170 
	C3065.552246,103.762917 3092.285645,104.571190 3120.349121,104.304985 
	C3120.349121,108.748367 3120.349121,112.289612 3120.349121,115.830849 
	C3120.349121,166.808502 3120.245361,217.786530 3120.436035,268.763458 
	C3120.474365,279.033875 3120.977295,289.390900 3122.392822,299.550995 
	C3126.496826,329.008667 3139.925781,346.964813 3170.925293,354.114380 
	C3189.638428,358.430328 3208.437256,358.877411 3227.268799,355.318848 
	C3253.887695,350.288727 3274.975098,335.750763 3292.936523,316.174164 
	C3296.746582,312.021454 3300.043701,307.368835 3303.326416,302.767487 
	C3312.188965,290.345154 3317.030762,277.272125 3316.688477,261.169342 
	C3315.661133,212.879059 3316.319092,164.552902 3316.319092,116.240753 
	C3316.319092,112.667213 3316.319092,109.093666 3316.319092,104.929489 
	C3344.247559,104.929489 3371.099609,104.929489 3397.966797,104.929489 
	C3400.099365,111.774651 3400.874268,399.436768 3398.700195,415.660583 
	C3371.697510,415.660583 3344.598145,415.660583 3316.508545,415.660583 
	C3316.508545,383.898529 3316.508545,352.433960 3316.508545,320.969421 
	C3316.085693,320.925049 3315.662842,320.880707 3315.239990,320.836334 
	C3310.142578,331.091064 3305.594238,341.665497 3299.843506,351.539978 
	C3283.181152,380.152313 3260.993652,402.965118 3229.589600,415.441986 
	C3214.596436,421.398834 3198.822754,423.912750 3182.813965,424.226898 
	C3160.429199,424.666168 3138.423828,421.910156 3117.034424,414.817261 
	C3069.561279,399.074646 3042.395020,361.822693 3039.966553,313.775299 
	C3038.035889,275.582764 3038.748047,237.255875 3038.333740,198.988113 
	C3038.232910,189.659744 3038.318604,180.329346 3038.318604,169.999863 
z"/>
<path fill="#FDFEFE" opacity="1.000000" stroke="none" 
	d="
M1458.781128,352.933044 
	C1452.874756,337.141083 1449.701904,321.635925 1449.613403,305.470917 
	C1449.257690,240.541656 1448.766724,175.613129 1448.351196,110.684181 
	C1448.340820,109.062332 1448.625000,107.438599 1448.761230,105.932220 
	C1456.246338,103.958740 1518.881958,103.536324 1531.679932,105.499237 
	C1531.679932,108.812721 1531.679932,112.359741 1531.679932,115.906769 
	C1531.680054,172.886734 1531.666504,229.866714 1531.690674,286.846680 
	C1531.696167,299.630157 1534.033691,311.889465 1539.535767,323.567200 
	C1545.691284,336.631897 1555.394409,345.957458 1568.995850,350.260162 
	C1616.023804,365.137115 1658.837646,358.957153 1695.634766,323.893982 
	C1707.615479,312.477692 1716.612671,299.027771 1724.217163,284.497955 
	C1726.733154,279.691010 1727.756104,274.705902 1727.739990,269.194672 
	C1727.589966,218.213058 1727.651489,167.230804 1727.651489,116.248726 
	C1727.651489,112.663918 1727.651489,109.079117 1727.651489,104.914742 
	C1755.150513,104.914742 1781.649292,104.914742 1808.105103,104.914742 
	C1810.068481,112.308228 1810.488647,404.251221 1808.502197,415.779297 
	C1782.095703,415.779297 1755.588257,415.779297 1727.870361,415.779297 
	C1727.870361,383.410065 1727.870361,351.113586 1727.870361,318.817108 
	C1727.230957,318.708618 1726.591431,318.600128 1725.952026,318.491638 
	C1724.019653,322.923706 1722.124146,327.372345 1720.148438,331.785065 
	C1709.846802,354.793610 1696.255371,375.404266 1677.268433,392.340576 
	C1649.823853,416.821198 1617.218750,425.470734 1581.360596,424.213409 
	C1561.007446,423.499786 1540.946289,420.426758 1521.886108,413.019501 
	C1492.993652,401.791229 1471.494995,382.452515 1458.781128,352.933044 
z"/>
<path fill="#3C3C3B" opacity="1.000000" stroke="none" 
	d="
M947.880676,721.983459 
	C1037.446167,721.943970 1127.011963,721.765808 1216.577026,721.927368 
	C1257.264038,722.000793 1283.432007,758.885315 1282.425415,788.649109 
	C1281.935913,803.122437 1278.800171,816.103149 1271.606201,828.508850 
	C1230.536133,899.330566 1189.618164,970.240417 1148.594849,1041.089233 
	C1145.794922,1045.924805 1142.557251,1050.506836 1138.792358,1054.771484 
	C1136.973511,1051.926270 1136.079224,1049.404663 1134.767456,1047.123291 
	C1120.510742,1022.329651 1106.171997,997.583252 1091.888184,972.805237 
	C1070.296021,935.349792 1048.786133,897.846802 1027.121460,860.433411 
	C1019.633545,847.502380 1011.787720,834.778625 1003.892456,821.292236 
	C1001.500610,816.569824 999.457764,812.434998 997.117004,808.476257 
	C990.267456,796.892090 983.299133,785.378052 976.137817,773.170227 
	C967.996033,758.973511 960.093933,745.443115 951.990967,731.264771 
	C950.487000,727.739075 949.183838,724.861267 947.880676,721.983459 
z"/>
<path fill="#FEFEFE" opacity="1.000000" stroke="none" 
	d="
M2686.135742,172.164261 
	C2691.732422,188.786179 2694.428467,205.046829 2694.394043,221.850098 
	C2694.270020,282.483978 2694.345215,343.118286 2694.345215,403.752411 
	C2694.345215,407.400848 2694.345215,411.049286 2694.345215,414.563385 
	C2687.163574,416.690735 2627.487061,417.314819 2612.322754,415.361206 
	C2612.322754,412.002930 2612.322754,408.459961 2612.322754,404.916992 
	C2612.322754,349.946472 2612.544434,294.974304 2612.128418,240.006927 
	C2612.049072,229.508560 2610.465576,218.765732 2607.812012,208.595917 
	C2602.302979,187.483139 2588.066650,173.745590 2566.996826,169.020844 
	C2513.980225,157.132370 2467.432373,168.981354 2430.007324,209.776428 
	C2420.645508,219.981262 2415.724365,231.807312 2415.988770,246.821701 
	C2416.910645,299.110718 2416.345215,351.425964 2416.345215,403.731232 
	C2416.345215,407.380676 2416.345215,411.030151 2416.345215,414.551331 
	C2409.188477,416.698059 2349.873047,417.341583 2334.995605,415.464447 
	C2334.995605,312.417664 2334.995605,209.282272 2334.995605,104.814598 
	C2361.510742,103.764549 2388.236572,104.592354 2415.932617,104.294022 
	C2415.932617,131.958298 2415.932617,158.745743 2415.932617,185.533173 
	C2416.533447,185.704086 2417.134277,185.874985 2417.735107,186.045898 
	C2418.751953,184.311661 2419.858643,182.623428 2420.772461,180.836472 
	C2444.841064,133.780685 2483.134766,106.708710 2535.447754,99.762207 
	C2559.687256,96.543556 2583.831299,97.549492 2607.609131,103.815643 
	C2644.718262,113.594948 2671.637207,135.174347 2686.135742,172.164261 
z"/>
<path fill="#585857" opacity="1.000000" stroke="none" 
	d="
M1004.105286,821.960205 
	C1011.787720,834.778625 1019.633545,847.502380 1027.121460,860.433411 
	C1048.786133,897.846802 1070.296021,935.349792 1091.888184,972.805237 
	C1106.171997,997.583252 1120.510742,1022.329651 1134.767456,1047.123291 
	C1136.079224,1049.404663 1136.973511,1051.926270 1138.206055,1055.033936 
	C1135.691040,1055.830078 1133.031616,1056.013916 1130.372192,1056.014526 
	C1029.204468,1056.033447 928.031128,1056.643433 826.872070,1055.708252 
	C791.696045,1055.383057 760.880798,1041.699463 736.946289,1014.255737 
	C748.383301,1005.600220 759.670532,997.938721 770.744202,989.980042 
	C806.148315,964.535156 841.452820,938.951599 876.833984,913.474609 
	C919.237244,882.941284 961.679749,852.462524 1004.105286,821.960205 
z"/>
<path fill="#28B17F" opacity="1.000000" stroke="none" 
	d="
M439.584717,510.257507 
	C434.583099,502.082031 429.440338,493.989044 424.605804,485.715942 
	C408.873779,458.794830 393.242157,431.815002 377.614197,404.833313 
	C376.289551,402.546326 375.279694,400.077057 374.515198,396.558075 
	C378.613617,393.240387 382.755554,391.556702 385.945160,388.779327 
	C395.209625,380.712189 404.139099,372.256531 413.113434,363.860779 
	C425.244720,352.511566 437.247223,341.024445 449.398071,329.696381 
	C457.170654,322.450073 465.087738,315.357849 472.981445,308.242523 
	C492.216858,290.903931 511.556885,273.680359 530.696106,256.236450 
	C542.235229,245.719376 553.360718,234.748703 564.887146,224.217346 
	C575.423218,214.590866 586.527405,205.574463 596.867188,195.748291 
	C606.937683,186.178085 616.356445,175.922073 626.061340,165.967163 
	C636.505249,183.620941 647.045654,201.218567 657.364807,218.944977 
	C666.859009,235.254318 676.190674,251.659882 685.427979,268.116211 
	C688.006409,272.709595 689.996887,277.632965 691.781189,283.480530 
	C680.511658,294.406616 669.712585,304.251160 658.925659,314.108978 
	C635.631958,335.396240 612.344238,356.690033 589.054626,377.981659 
	C565.764954,399.273315 542.410950,420.495117 519.206543,441.879272 
	C499.416382,460.117035 479.967896,478.729248 460.001495,496.769867 
	C453.984711,502.206329 448.549042,509.059174 439.584717,510.257507 
z"/>
<path fill="#FEFEFE" opacity="1.000000" stroke="none" 
	d="
M2907.645020,411.385101 
	C2907.225342,417.658081 2903.078125,416.244049 2900.080078,416.273438 
	C2886.418701,416.407318 2872.755371,416.334198 2859.092773,416.334839 
	C2848.459961,416.335358 2837.827148,416.334930 2827.728516,416.334930 
	C2826.960693,415.562866 2826.705811,415.342834 2826.496582,415.085541 
	C2826.297119,414.839844 2826.055908,414.575378 2825.990723,414.283875 
	C2825.845459,413.636993 2825.757568,412.970123 2825.721680,412.307343 
	C2825.667480,411.309875 2825.662842,410.308868 2825.661865,409.309387 
	C2825.583740,330.336517 2825.508057,251.363617 2825.419189,172.390747 
	C2825.418945,172.085876 2825.224854,171.781219 2824.881836,170.771713 
	C2816.851318,168.319275 2808.224365,170.038666 2799.762695,169.741501 
	C2790.776367,169.425903 2781.770508,169.670563 2772.773193,169.670563 
	C2764.176514,169.670563 2755.579834,169.670563 2746.330078,169.670563 
	C2746.330078,147.678925 2746.330078,126.579292 2746.330078,104.545288 
	C2772.535400,104.545288 2798.401611,104.545288 2825.247559,104.545288 
	C2825.247559,76.146370 2825.247559,48.644634 2825.247559,20.410669 
	C2852.984131,20.410669 2879.733643,20.410669 2907.498291,20.410669 
	C2907.498291,48.111671 2907.498291,75.604744 2907.498291,104.010956 
	C2934.323975,104.010956 2960.169434,104.010956 2987.460938,104.010956 
	C2987.847412,126.011665 2987.736572,147.105927 2987.479980,169.142914 
	C2961.035156,169.142914 2935.189697,169.142914 2910.291260,169.142914 
	C2909.118652,170.312073 2908.874268,170.539780 2908.648926,170.784744 
	C2908.429199,171.023941 2908.057373,171.272903 2908.045410,171.531097 
	C2907.892334,174.854309 2907.693359,178.180023 2907.692383,181.505173 
	C2907.670410,257.815918 2907.670898,334.126648 2907.645020,411.385101 
z"/>
<path fill="#21BF86" opacity="1.000000" stroke="none" 
	d="
M625.864136,165.298492 
	C616.356445,175.922073 606.937683,186.178085 596.867188,195.748291 
	C586.527405,205.574463 575.423218,214.590866 564.887146,224.217346 
	C553.360718,234.748703 542.235229,245.719376 530.696106,256.236450 
	C511.556885,273.680359 492.216858,290.903931 472.981445,308.242523 
	C465.087738,315.357849 457.170654,322.450073 449.398071,329.696381 
	C437.247223,341.024445 425.244720,352.511566 413.113434,363.860779 
	C404.139099,372.256531 395.209625,380.712189 385.945160,388.779327 
	C382.755554,391.556702 378.613617,393.240387 374.353912,395.875214 
	C366.657745,384.406342 359.509247,372.488983 352.372986,360.564362 
	C347.951538,353.176178 343.548706,345.776886 338.652496,337.866028 
	C331.119019,324.441803 324.066711,311.536224 317.026611,298.623993 
	C316.089142,296.904572 315.213348,295.151550 314.673889,292.326294 
	C321.619263,286.232239 328.546631,281.615875 334.705688,276.136017 
	C346.355865,265.770569 357.459503,254.793793 368.980255,244.279236 
	C389.068878,225.945190 409.358215,207.831100 429.451233,189.501785 
	C440.483643,179.437820 451.157104,168.979324 462.222839,158.952988 
	C480.655609,142.251633 499.430847,125.926147 517.763367,109.116791 
	C532.196655,95.882645 546.161072,82.137680 560.386108,68.674980 
	C562.302429,66.861374 564.525330,65.371758 566.606262,63.732109 
	C573.610596,75.300156 580.779907,86.772102 587.583679,98.456940 
	C600.389465,120.449738 612.984375,142.565323 625.864136,165.298492 
z"/>
<path fill="#2FA379" opacity="1.000000" stroke="none" 
	d="
M439.786926,510.935852 
	C448.549042,509.059174 453.984711,502.206329 460.001495,496.769867 
	C479.967896,478.729248 499.416382,460.117035 519.206543,441.879272 
	C542.410950,420.495117 565.764954,399.273315 589.054626,377.981659 
	C612.344238,356.690033 635.631958,335.396240 658.925659,314.108978 
	C669.712585,304.251160 680.511658,294.406616 691.934204,284.209778 
	C700.094604,297.611389 702.790771,312.692627 703.787476,328.005554 
	C705.727356,357.810333 697.976196,385.188599 682.861267,410.938568 
	C654.541687,459.183990 626.906677,507.830780 598.708740,556.148254 
	C593.373962,565.289368 587.482361,574.311035 580.585510,582.297852 
	C556.097717,610.655762 500.162537,610.916077 476.094727,573.763000 
	C463.084045,553.678650 451.962769,532.370300 439.786926,510.935852 
z"/>
<path fill="#1BCA8B" opacity="1.000000" stroke="none" 
	d="
M566.316589,63.103836 
	C564.525330,65.371758 562.302429,66.861374 560.386108,68.674980 
	C546.161072,82.137680 532.196655,95.882645 517.763367,109.116791 
	C499.430847,125.926147 480.655609,142.251633 462.222839,158.952988 
	C451.157104,168.979324 440.483643,179.437820 429.451233,189.501785 
	C409.358215,207.831100 389.068878,225.945190 368.980255,244.279236 
	C357.459503,254.793793 346.355865,265.770569 334.705688,276.136017 
	C328.546631,281.615875 321.619263,286.232239 314.495850,291.649597 
	C303.508667,274.439331 292.962799,256.877136 282.653656,239.177032 
	C275.006226,226.046936 267.666199,212.737778 260.002991,198.831879 
	C266.427094,193.176300 273.360687,188.566986 279.574707,183.134598 
	C289.817383,174.180252 299.530487,164.623260 309.581665,155.446075 
	C330.655762,136.204544 351.804077,117.044266 372.922974,97.851822 
	C380.782806,90.708961 388.721283,83.650597 396.489838,76.409828 
	C408.634369,65.090416 420.628784,53.610069 432.755127,42.270958 
	C442.211456,33.428532 451.672485,24.585770 461.340973,15.978514 
	C464.616364,13.062629 466.253571,9.834169 465.992371,4.769673 
	C488.190369,4.526937 508.048676,12.479803 526.518982,23.959867 
	C542.416870,33.841061 555.789551,46.629887 566.316589,63.103836 
z"/>
<path fill="#FDFEFE" opacity="1.000000" stroke="none" 
	d="
M2129.678955,793.874878 
	C2129.678955,800.147644 2129.678955,805.439209 2129.678955,811.424377 
	C2122.686523,812.220825 2116.220947,812.877686 2109.777100,813.703979 
	C2065.069092,819.437317 2033.183472,843.610901 2011.801514,882.461304 
	C2009.874878,885.962036 2009.774658,890.772095 2009.763550,894.976562 
	C2009.631714,944.611450 2009.678589,994.246826 2009.678589,1043.882080 
	C2009.678589,1047.498291 2009.678589,1051.114380 2009.678589,1054.532593 
	C2001.914795,1056.717285 1942.029541,1057.247437 1928.258057,1055.355469 
	C1928.258057,952.069824 1928.258057,848.704956 1928.258057,744.834229 
	C1955.348633,744.834229 1981.834839,744.834229 2009.298096,744.834229 
	C2009.298096,773.394592 2009.298096,801.556091 2009.298096,829.717590 
	C2009.951782,829.878113 2010.605591,830.038574 2011.259277,830.199097 
	C2013.693359,824.641907 2015.938354,818.992493 2018.593994,813.543274 
	C2031.071777,787.938416 2047.625366,765.933838 2072.943848,751.477234 
	C2090.163574,741.644897 2108.593018,737.505615 2129.678955,737.817871 
	C2129.678955,756.492310 2129.678955,774.692993 2129.678955,793.874878 
z"/>
<path fill="#FEFEFE" opacity="1.000000" stroke="none" 
	d="
M2198.207031,744.329956 
	C2220.808105,744.329956 2242.432129,744.329956 2263.857910,744.329956 
	C2266.061279,751.963501 2266.648682,1042.407715 2264.582275,1055.726562 
	C2238.180176,1055.726562 2211.674805,1055.726562 2185.155518,1055.726562 
	C2183.312988,1048.736206 2182.762451,757.774841 2184.762695,744.329956 
	C2188.773193,744.329956 2193.001221,744.329956 2198.207031,744.329956 
z"/>
<path fill="#636362" opacity="1.000000" stroke="none" 
	d="
M1003.892456,821.292236 
	C961.679749,852.462524 919.237244,882.941284 876.833984,913.474609 
	C841.452820,938.951599 806.148315,964.535156 770.744202,989.980042 
	C759.670532,997.938721 748.383301,1005.600220 736.578857,1013.698792 
	C726.867981,1007.982239 721.661499,998.697083 716.036743,989.853577 
	C711.818665,983.221802 708.229980,976.189697 704.739441,968.257935 
	C709.107178,964.823120 713.297852,962.747986 717.053589,960.064148 
	C743.571350,941.114807 769.996704,922.036255 796.457458,903.007202 
	C829.397156,879.318787 862.331604,855.623047 895.289001,831.959290 
	C922.302734,812.563171 949.346802,793.209229 976.377380,773.836548 
	C983.299133,785.378052 990.267456,796.892090 997.117004,808.476257 
	C999.457764,812.434998 1001.500610,816.569824 1003.892456,821.292236 
z"/>
<path fill="#898989" opacity="1.000000" stroke="none" 
	d="
M880.124512,605.967529 
	C888.740845,620.836182 897.357178,635.704834 905.433167,651.420227 
	C901.723511,654.013367 898.337830,655.458130 895.417847,657.552124 
	C860.851990,682.340637 826.350708,707.219116 791.842468,732.087830 
	C747.359680,764.144775 702.872498,796.195679 658.420349,828.295044 
	C650.081909,834.316467 641.899170,840.553406 633.644592,846.690857 
	C625.031555,831.882263 616.418579,817.073608 608.183228,800.994751 
	C621.453369,790.358337 634.322144,780.959290 647.242859,771.632263 
	C682.521118,746.166016 717.813293,720.719055 753.114807,695.284973 
	C789.763916,668.880005 826.389954,642.442505 863.133850,616.169983 
	C868.490479,612.339905 874.446106,609.347534 880.124512,605.967529 
z"/>
<path fill="#6D6D6C" opacity="1.000000" stroke="none" 
	d="
M976.137817,773.170227 
	C949.346802,793.209229 922.302734,812.563171 895.289001,831.959290 
	C862.331604,855.623047 829.397156,879.318787 796.457458,903.007202 
	C769.996704,922.036255 743.571350,941.114807 717.053589,960.064148 
	C713.297852,962.747986 709.107178,964.823120 704.565430,967.578674 
	C696.165588,954.438354 688.318115,940.899414 680.859253,926.529297 
	C686.319946,922.544373 691.592163,919.669373 696.432434,916.192932 
	C736.404785,887.483765 776.290894,858.654602 816.215210,829.878540 
	C861.534180,797.214111 906.865723,764.567200 952.191772,731.912598 
	C960.093933,745.443115 967.996033,758.973511 976.137817,773.170227 
z"/>
<path fill="#939393" opacity="1.000000" stroke="none" 
	d="
M879.925903,605.295776 
	C874.446106,609.347534 868.490479,612.339905 863.133850,616.169983 
	C826.389954,642.442505 789.763916,668.880005 753.114807,695.284973 
	C717.813293,720.719055 682.521118,746.166016 647.242859,771.632263 
	C634.322144,780.959290 621.453369,790.358337 608.095703,800.313477 
	C596.555542,787.622437 590.775330,771.880676 587.143066,754.627930 
	C590.809570,752.520020 594.175415,751.716675 596.790833,749.857544 
	C627.166687,728.265137 657.458130,706.553467 687.715393,684.794800 
	C737.423218,649.048889 787.145508,613.322571 836.703247,577.369629 
	C843.049316,572.765747 848.447815,566.855713 854.285278,561.550781 
	C862.765930,575.908569 871.246643,590.266296 879.925903,605.295776 
z"/>
<path fill="#767675" opacity="1.000000" stroke="none" 
	d="
M951.990967,731.264771 
	C906.865723,764.567200 861.534180,797.214111 816.215210,829.878540 
	C776.290894,858.654602 736.404785,887.483765 696.432434,916.192932 
	C691.592163,919.669373 686.319946,922.544373 680.564697,925.892944 
	C672.085144,913.169312 664.288818,900.250854 656.884094,886.501160 
	C658.721924,884.873352 660.269287,884.217346 661.599731,883.259949 
	C700.697083,855.123718 739.748047,826.923096 778.858337,798.804932 
	C825.521423,765.256775 872.181519,731.703735 919.024170,698.407654 
	C922.569641,695.887512 927.559998,695.400085 931.878662,693.967773 
	C936.920715,702.965881 941.962708,711.963928 947.442688,721.472717 
	C949.183838,724.861267 950.487000,727.739075 951.990967,731.264771 
z"/>
<path fill="#7F7F7F" opacity="1.000000" stroke="none" 
	d="
M931.446533,693.451904 
	C927.559998,695.400085 922.569641,695.887512 919.024170,698.407654 
	C872.181519,731.703735 825.521423,765.256775 778.858337,798.804932 
	C739.748047,826.923096 700.697083,855.123718 661.599731,883.259949 
	C660.269287,884.217346 658.721924,884.873352 656.602905,885.857056 
	C648.658813,873.340820 641.387451,860.637451 633.880371,847.312439 
	C641.899170,840.553406 650.081909,834.316467 658.420349,828.295044 
	C702.872498,796.195679 747.359680,764.144775 791.842468,732.087830 
	C826.350708,707.219116 860.851990,682.340637 895.417847,657.552124 
	C898.337830,655.458130 901.723511,654.013367 905.618286,652.118774 
	C912.843994,662.897278 919.329590,673.832764 925.854431,684.744751 
	C927.510132,687.513611 929.290955,690.207642 931.446533,693.451904 
z"/>
<path fill="#9B9B9B" opacity="1.000000" stroke="none" 
	d="
M854.104553,560.885498 
	C848.447815,566.855713 843.049316,572.765747 836.703247,577.369629 
	C787.145508,613.322571 737.423218,649.048889 687.715393,684.794800 
	C657.458130,706.553467 627.166687,728.265137 596.790833,749.857544 
	C594.175415,751.716675 590.809570,752.520020 587.091125,753.870728 
	C581.664978,738.016479 580.950256,721.861389 584.491455,704.679138 
	C589.345581,701.906372 593.447083,700.383789 596.909973,697.951782 
	C611.317749,687.832886 625.531250,677.437378 639.819397,667.148071 
	C671.361206,644.433899 702.986450,621.834534 734.425781,598.979431 
	C767.729858,574.768677 800.857971,550.315796 834.062927,525.968628 
	C840.683228,537.385864 847.303528,548.803101 854.104553,560.885498 
z"/>
<path fill="#ABABAB" opacity="1.000000" stroke="none" 
	d="
M615.892883,627.877441 
	C624.806946,611.975830 633.576355,595.990967 642.666443,580.190613 
	C659.728210,550.533691 677.364929,521.201233 694.056702,491.339294 
	C720.981140,443.170532 789.872253,446.012878 813.278137,491.480957 
	C808.184509,495.554199 803.556030,498.738495 798.993103,502.014160 
	C765.531921,526.035583 732.069153,550.054810 698.636719,574.116150 
	C674.640564,591.386108 650.698364,608.730896 626.710754,626.012756 
	C623.448914,628.362732 620.120605,630.877136 615.892883,627.877441 
z"/>
<path fill="#A4A4A4" opacity="1.000000" stroke="none" 
	d="
M615.401611,628.347168 
	C620.120605,630.877136 623.448914,628.362732 626.710754,626.012756 
	C650.698364,608.730896 674.640564,591.386108 698.636719,574.116150 
	C732.069153,550.054810 765.531921,526.035583 798.993103,502.014160 
	C803.556030,498.738495 808.184509,495.554199 813.457886,492.151611 
	C819.320496,500.624268 824.518982,509.266235 829.687256,517.926270 
	C831.015259,520.151367 832.248047,522.433228 833.793762,525.328857 
	C800.857971,550.315796 767.729858,574.768677 734.425781,598.979431 
	C702.986450,621.834534 671.361206,644.433899 639.819397,667.148071 
	C625.531250,677.437378 611.317749,687.832886 596.909973,697.951782 
	C593.447083,700.383789 589.345581,701.906372 584.823730,703.913330 
	C584.612671,688.802856 589.515137,674.783569 596.267761,661.489502 
	C601.939575,650.323120 608.656250,639.687500 615.401611,628.347168 
z"/>
<path fill="#FEFEFE" opacity="1.000000" stroke="none" 
	d="
M2204.015137,680.333191 
	C2195.069336,680.333191 2187.121094,680.333191 2177.687500,680.333191 
	C2177.626465,656.404419 2177.661621,633.018616 2177.670166,608.978088 
	C2209.255127,608.978088 2240.007324,608.978088 2270.745361,608.978088 
	C2272.706543,616.124084 2273.213867,666.011230 2271.316162,680.333191 
	C2249.336670,680.333191 2227.174805,680.333191 2204.015137,680.333191 
z"/>
<path fill="#4D6A72" opacity="1.000000" stroke="none" 
	d="
M2921.495117,940.903809 
	C2906.100830,934.199158 2893.566406,925.250183 2885.721191,910.830872 
	C2868.561279,879.292053 2875.356445,829.312134 2917.405273,811.130371 
	C2952.607666,795.909058 2987.929688,795.503113 3021.983643,814.022278 
	C3044.460938,826.245667 3055.515137,846.436890 3056.336182,872.101929 
	C3056.690918,883.186157 3055.672607,894.028137 3051.091309,904.294678 
	C3043.684814,920.891602 3031.242188,932.463745 3014.822754,939.713074 
	C3001.615234,945.544556 2987.723389,948.268372 2973.171387,948.451965 
	C2955.742188,948.671814 2938.602783,947.760803 2921.495117,940.903809 
z"/>
<path fill="#4D6A72" opacity="1.000000" stroke="none" 
	d="
M1775.707031,914.895386 
	C1785.372681,940.346252 1777.113281,969.797974 1744.849243,979.602478 
	C1732.595581,983.326172 1719.488770,985.877625 1706.734497,986.035767 
	C1651.435181,986.721313 1596.122314,986.328918 1540.814453,986.305115 
	C1539.167358,986.304382 1537.520264,986.044312 1535.942749,985.911011 
	C1533.944214,978.660767 1533.262939,909.553955 1535.033569,890.566406 
	C1537.360962,890.281738 1539.864502,889.711121 1542.368652,889.708435 
	C1591.679321,889.655884 1640.991089,889.471436 1690.299805,889.788696 
	C1705.221802,889.884705 1720.156860,891.137329 1735.044312,892.366333 
	C1745.728271,893.248352 1756.165527,895.866699 1764.801636,902.574097 
	C1768.877075,905.739319 1771.890015,910.272522 1775.707031,914.895386 
z"/>
<path fill="#4D6A72" opacity="1.000000" stroke="none" 
	d="
M1592.000244,720.326416 
	C1622.985962,720.326416 1652.971802,720.275757 1682.957397,720.345581 
	C1700.660767,720.386841 1718.063232,722.162659 1734.687866,729.002991 
	C1763.283691,740.769104 1772.547363,779.288025 1752.003418,802.337830 
	C1745.636719,809.481018 1737.027588,813.228455 1728.036743,816.074951 
	C1712.654907,820.944824 1696.723633,822.139282 1680.791870,822.234863 
	C1634.149170,822.514587 1587.503662,822.334412 1540.859253,822.310852 
	C1539.211670,822.309998 1537.564209,822.059509 1535.989258,821.931274 
	C1533.945679,814.809143 1533.495117,732.973755 1535.586426,720.326416 
	C1553.901978,720.326416 1572.451050,720.326416 1592.000244,720.326416 
z"/>
<path fill="#4D6A72" opacity="1.000000" stroke="none" 
	d="
M1281.557739,158.656082 
	C1294.571899,195.404007 1295.386108,231.556274 1282.160889,267.580505 
	C1271.676514,296.138947 1251.328857,316.026276 1224.970215,330.208069 
	C1205.096558,340.900818 1183.531982,346.636444 1161.397095,349.442566 
	C1126.561157,353.858826 1091.788452,352.961426 1057.578491,343.976929 
	C1026.309814,335.764893 998.661804,321.584290 978.109863,295.616638 
	C964.494629,278.413605 957.184814,258.663361 954.480469,237.218536 
	C951.982544,217.410751 952.220337,197.536682 956.866028,177.975235 
	C966.517334,137.336258 992.197388,110.298073 1029.635742,93.769188 
	C1056.729614,81.807320 1085.360229,76.975266 1114.917114,76.192642 
	C1144.747803,75.402786 1173.943604,78.445145 1202.197510,88.222878 
	C1234.068115,99.252151 1259.917236,118.002594 1276.534302,148.068893 
	C1278.295532,151.255402 1279.681519,154.649277 1281.557739,158.656082 
z"/>
<path fill="#4D6A72" opacity="1.000000" stroke="none" 
	d="
M2419.595703,932.044434 
	C2412.790771,905.438660 2413.003662,879.993652 2424.520264,855.484680 
	C2437.825439,827.169678 2460.929688,810.735901 2490.909180,804.618530 
	C2518.278076,799.033813 2545.907959,799.698059 2572.842773,807.955750 
	C2594.314941,814.538635 2612.836426,825.722595 2626.271484,844.452087 
	C2634.439453,855.838989 2639.389893,868.493896 2641.257080,882.081421 
	C2643.389648,897.604431 2643.488525,913.239624 2638.941406,928.602234 
	C2631.541260,953.604309 2616.361328,972.566101 2593.172363,983.898315 
	C2553.628174,1003.223145 2512.711182,1006.078796 2471.615723,988.933594 
	C2446.082520,978.280945 2428.584961,959.369873 2419.595703,932.044434 
z"/>
<path fill="#4F6C73" opacity="1.000000" stroke="none" 
	d="
M3326.034668,867.686890 
	C3316.497559,867.686829 3307.952393,867.686829 3298.475586,867.686829 
	C3302.722900,851.005859 3311.772217,838.978821 3323.232666,828.659241 
	C3341.989502,811.769592 3364.474121,804.120483 3389.347900,801.416748 
	C3407.458252,799.448181 3425.156982,800.681091 3442.780029,804.265808 
	C3463.206543,808.420715 3481.165527,817.315491 3494.368652,834.026978 
	C3501.687256,843.290405 3506.275635,853.836731 3507.469971,865.178589 
	C3507.046143,866.074707 3506.964111,866.429260 3506.747559,866.654968 
	C3506.528320,866.883606 3506.177002,867.121704 3505.882568,867.122742 
	C3446.263916,867.324341 3386.645020,867.505310 3326.034668,867.686890 
z"/>
<path fill="#4D6A72" opacity="1.000000" stroke="none" 
	d="
M1955.861816,291.901764 
	C1947.317383,257.453735 1950.124512,225.620026 1972.446899,197.649338 
	C1988.159180,177.961365 2009.710449,168.076172 2034.156982,164.248001 
	C2058.746094,160.397537 2083.247803,161.338058 2107.208008,168.230133 
	C2143.453613,178.655975 2169.110352,200.348999 2176.902344,238.665909 
	C2183.402588,270.630402 2177.370850,300.177063 2155.168213,325.074127 
	C2145.770020,335.612640 2134.033203,343.510925 2120.868896,348.612885 
	C2084.241699,362.808197 2047.114746,365.174988 2010.135864,350.320343 
	C1983.433472,339.593842 1964.855469,320.566803 1955.861816,291.901764 
z"/>
</svg>