<svg xmlns="http://www.w3.org/2000/svg" viewBox="0 0 163 242"><title>TSP Security Management</title><path fill-rule="evenodd" d="M80.5 0c7 0 12.4.6 18 2 4.4 1.1 11.4 3.7 15.5 5.8 4.1 2 9.5 5.2 12 7.1s7.1 6.1 10.4 9.5c3.2 3.4 7.8 9 10.1 12.6 2.4 3.6 5.5 9.2 7 12.5 1.4 3.3 3.8 9.8 5.1 14.5 1.4 4.7 2.8 12.6 3.9 26.9l-20.5.6 3.4 5c1.8 2.8 4.7 7.7 6.4 11 1.6 3.3 3.9 8.7 5 12s2.6 8.7 3.3 12 1.3 12.1 1.3 19.5-.5 16.2-1.2 19.5-2.3 8.9-3.4 12.5-3.4 9.2-5.1 12.5c-1.6 3.3-4.7 8.5-6.7 11.5-2.1 3-6.6 8.4-10.1 11.9s-8.2 7.6-10.4 9.1-7.2 4.3-11 6.3c-3.8 1.9-9.5 4.3-12.5 5.2s-10.2 1.9-16 2.2c-6.6.4-12.9.2-17-.6-3.6-.7-9.7-2.5-13.5-4-3.8-1.4-10.2-4.7-14-7.3s-9.6-7.3-12.8-10.5-8.3-9.4-11.2-13.8c-3-4.4-6.7-11.2-8.3-15S4.3 179.7 3.1 175C2 170.3.9 162.9.5 150.5L19 150l-3.2-4.7c-1.7-2.7-4.7-8-6.5-11.8-1.7-3.8-4.4-11.1-5.9-16C.9 109.3.6 107 .6 91.5c0-14.2.3-18.3 2.1-25C3.8 62.1 6.2 55.1 8 51c1.7-4.1 5.1-10.4 7.4-14 2.4-3.6 6.3-8.7 8.7-11.4s7.1-6.9 10.4-9.5c3.3-2.5 9.4-6.2 13.5-8.3s10.9-4.7 15-5.7C67.9.8 74 .1 80.5 0m-9.8 25.1c-2.6.5-7.7 2.3-11.4 4-3.8 1.6-9.2 4.9-12.2 7.2-2.9 2.3-7.5 6.9-10.1 10.2-2.7 3.3-6.4 9.4-8.4 13.5s-4.3 10.7-5.1 14.5-1.5 11.1-1.5 16c0 5.6.7 11.8 1.9 16.5 1 4.1 3.3 10.4 5.1 14s5.2 9 7.5 12 6.2 7.1 8.6 9.1 7.6 5.3 11.4 7.3 8.5 4.1 10.3 4.6l3.2 1V60c17.4 0 24.5.5 27 1.1 2.5.5 7.4 2.1 11 3.4 3.6 1.4 9.4 4.5 13 7 3.6 2.4 9.2 7.3 12.6 10.7l6 6.1c.3-6.8-.3-11.5-1.1-14.8s-3.6-10.3-6.2-15.5c-3.6-7.4-6.2-11-11.7-16.6-5-4.9-9.4-8.2-14.6-10.8-4.1-2-10.4-4.3-14-5.1s-8.8-1.4-11.5-1.4c-2.8.1-7.1.5-9.8 1m21.7 61.6c-.4.4-.7 21.9-.6 48L92 182c-20.3 0-25.7-.5-31.5-2-4.4-1.1-10.5-3.5-13.5-5.2s-7.5-4.6-10-6.6c-2.5-1.9-6.9-6.1-9.9-9.1l-5.4-5.6c1 10.9 2.2 16.9 3.4 20.5 1.1 3.6 3.7 9.4 5.7 13 2.1 3.8 6.7 9.6 11.1 14 4.9 4.8 9.9 8.7 14.1 10.8 3.6 1.8 9.7 3.9 13.5 4.7s8.8 1.5 11 1.5 6.7-.5 10-1.1 9.6-2.8 14-4.9c5.4-2.5 10-5.7 14-9.6 3.3-3.3 7.6-8.1 9.5-10.9 1.8-2.7 4.6-7.9 6-11.5 1.5-3.6 3.3-9 4-12s1.4-10.4 1.4-16.5c0-8.3-.6-12.9-2.2-18.7-1.2-4.3-3.7-10.8-5.6-14.5-1.9-3.8-5.5-9.4-8-12.5-2.5-3.2-7.4-7.8-10.8-10.2-3.5-2.5-9.3-5.6-13-7s-7-2.2-7.4-1.9" style="fill:#206596"/></svg>