<?xml version="1.0" encoding="UTF-8"?>
<svg xmlns="http://www.w3.org/2000/svg" version="1.1" viewBox="0 0 569.84 178.59">
  <defs>
    <style>
      .cls-1 {
        fill: #2b4b9c;
        stroke-width: 0px;
      }
    </style>
  </defs>
  <path class="cls-1" d="M35.89,33.58v14.76h74.59v45.11H20.71v-2.91c0-6.77,5.49-12.26,12.26-12.26h62.33v-14.76H20.71V18.41h89.77v2.91c0,6.77-5.49,12.26-12.26,12.26h-62.33Z"/>
  <g>
    <path class="cls-1" d="M549.12,78.28v3.41c-.16,6.52-5.5,11.75-12.06,11.75h-65.45c-6.76,0-12.24-5.48-12.24-12.24v-32.78h15.16v22.81c0,3.89,3.16,7.05,7.05,7.05h67.54Z"/>
    <path class="cls-1" d="M459.37,18.41h89.76v3.1c0,6.66-5.41,12.07-12.07,12.07h-77.69v-15.17h0Z"/>
    <path class="cls-1" d="M549.13,78.28v3.1c0,.1,0,.21-.01.31v-3.41h.01Z"/>
  </g>
  <rect class="cls-1" x="430.79" y="18.47" width="15.17" height="74.92"/>
  <g>
    <path class="cls-1" d="M136.13,78.27h65.48c6.65,0,12.04,5.4,12.04,12.04v3.13h-89.76v-2.93c0-6.75,5.48-12.23,12.23-12.23Z" transform="translate(337.55 171.71) rotate(180)"/>
    <rect class="cls-1" x="123.88" y="18.41" width="15.17" height="45.1"/>
    <rect class="cls-1" x="198.37" y="18.41" width="15.17" height="45.1"/>
  </g>
  <polygon class="cls-1" points="315.62 18.44 315.62 93.45 300.45 93.45 242.24 35.24 242.24 93.45 227.07 93.45 227.07 18.44 246.98 18.44 300.45 71.89 300.45 18.44 315.62 18.44"/>
  <polygon class="cls-1" points="417.35 18.44 417.35 93.45 402.18 93.45 343.97 35.24 343.97 93.45 328.8 93.45 328.8 18.44 348.71 18.44 402.18 71.89 402.18 18.44 417.35 18.44"/>
  <g>
    <path class="cls-1" d="M435.8,151.99v-19.85c.15-.03.25-.08.36-.07,2.25.03,4.51.05,6.76.1,1.21.03,2.36.38,3.35,1.05.73.5,1.37,1.19,1.61,2.1.51,1.88.42,3.67-1.09,5.11-.45.43-1.06.68-1.6,1.02.28.08.6.16.92.28,3.49,1.34,3.61,5.54,2.22,7.44-1.33,1.82-3.09,2.73-5.26,2.83-2.33.1-4.66.04-6.99.05-.09,0-.18-.03-.29-.05ZM437.96,150.11c.75,0,1.43.03,2.1,0,1.25-.07,2.56.02,3.74-.3,2.74-.74,3.16-1.73,3.05-3.91-.08-1.64-.88-2.68-2.53-3.08-2.08-.51-4.2-.34-6.37-.28v7.57ZM437.96,140.75c.15.04.26.09.37.09,1.28,0,2.55,0,3.83-.03,1.05-.03,2.03-.26,2.83-1.05.96-.95,1.13-2.09.84-3.32-.27-1.15-1.07-1.89-2.2-2.07-1.2-.19-2.42-.21-3.63-.27-.67-.03-1.34,0-2.02,0v6.66Z"/>
    <path class="cls-1" d="M486.02,134.25c-.56.53-1.06,1-1.6,1.51-1-1.17-2.38-1.8-3.91-2.03-3.25-.47-6.14.2-8.22,2.99-1.25,1.67-1.68,3.58-1.63,5.62.04,1.87.5,3.62,1.68,5.1,1.42,1.79,3.22,2.94,5.57,3.11,2.13.16,4.16-.13,6.03-1.23.1-.06.19-.12.29-.2v-6.47h-4.65v-1.84h6.77v9.72c-1.47.74-2.92,1.31-4.46,1.69-2.4.6-4.73.46-7.02-.41-2.03-.77-3.76-2.05-4.86-3.87-2.25-3.73-2.32-7.61-.17-11.45.4-.71.86-1.45,1.47-1.97,2.5-2.11,5.34-3.22,8.69-2.89,1.63.16,3.12.63,4.51,1.45.52.31.98.75,1.52,1.17Z"/>
    <path class="cls-1" d="M243.43,152.03h-2.28c-.73-1.68-1.47-3.38-2.22-5.11h-10.28c-.69,1.71-1.36,3.38-2.05,5.12h-2.47c2.91-6.69,5.77-13.29,8.66-19.93.62,0,1.2-.03,1.77.02.15.01.35.22.42.39,1.13,2.54,2.24,5.09,3.36,7.62.65,1.47,1.34,2.93,2,4.41.32.72.59,1.46.9,2.19.65,1.54,1.31,3.07,1.97,4.61.08.2.14.41.23.68ZM233.81,134.59c-1.46,3.49-2.86,6.84-4.29,10.24h8.48c-1.4-3.41-2.77-6.74-4.2-10.24Z"/>
    <path class="cls-1" d="M424.29,132.12c2.9,6.63,5.77,13.2,8.69,19.88h-2.43c-.72-1.65-1.46-3.35-2.21-5.08h-9.85c-.76,1.73-1.5,3.4-2.24,5.1h-2.4c2.9-6.68,5.77-13.28,8.64-19.9h1.8ZM419.22,144.83h8.16c-1.31-3.43-2.59-6.78-3.88-10.18-1.42,3.37-2.83,6.74-4.27,10.18Z"/>
    <path class="cls-1" d="M300.56,152.03h-1.98c0-.31,0-.56,0-.82,0-2.2,0-4.4-.03-6.59-.01-.77-.12-1.53-.22-2.29-.13-1.05-.83-1.63-1.78-1.87-2.42-.6-4.68.99-4.82,3.49-.13,2.36-.09,4.73-.12,7.1,0,.31,0,.62,0,.96h-1.87v-13.12h1.82c.03.58.05,1.16.09,1.94,1.17-1.61,2.64-2.29,4.42-2.3,1.85-.01,3.17.88,3.88,2.29.55-.44,1.09-.9,1.65-1.32,1.68-1.27,4.47-1.34,6.14-.07,1.02.78,1.64,1.88,1.67,3.19.07,3.02.08,6.05.11,9.07,0,.09-.03.18-.05.33h-1.95c0-.22,0-.38,0-.54-.01-2.59-.01-5.18-.04-7.78-.01-.85-.13-1.7-.71-2.38-.2-.24-.44-.48-.71-.61-2.03-.97-5.12-.13-5.32,2.86-.17,2.58-.13,5.18-.18,7.77,0,.22,0,.44,0,.69Z"/>
    <path class="cls-1" d="M532.12,138.86h1.84v1.98s.08.06.12.1c1.81-2.14,4.11-2.76,6.76-2.25,1.91.37,3.39,1.46,4.44,3.05,1.36,2.07,1.46,6.46-1.09,8.75-1.47,1.32-3.2,1.94-5.16,1.88-1.98-.06-3.62-.89-5.02-2.39v10.21h-1.88v-21.33ZM544.09,145.5c.08-3.25-2.13-5.19-4.8-5.15-3.17.04-5.35,1.91-5.36,5.17,0,2.86,2.3,5.1,5.26,5.1,2.5,0,5.02-1.97,4.89-5.13Z"/>
    <path class="cls-1" d="M313.82,138.88h1.87v1.96s.09.05.13.08c1.73-2.03,3.93-2.72,6.48-2.29,1.57.27,2.94.97,3.95,2.2,2.48,3,1.95,7.26-.34,9.6-2.3,2.36-7.22,3.01-10.19-.56v10.3h-1.91v-21.3ZM320.86,150.61c2.63.08,5.13-2.14,5-5.22-.13-3.11-2.02-5.1-5.12-5.05-2.72.05-5.2,2.07-5.13,5.25.06,2.98,2.82,5.14,5.24,5.01Z"/>
    <path class="cls-1" d="M270.02,134.77c-.57.48-1.08.9-1.64,1.36-.73-.89-1.62-1.55-2.68-2-1.98-.84-3.94-.67-5.86.1-2.15.86-3.61,2.38-4.26,4.68-.45,1.57-.67,3.12-.42,4.72.49,3.07,2.06,5.33,5.02,6.44,2.25.85,4.51.82,6.61-.44.81-.48,1.48-1.19,2.3-1.87.39.32.85.7,1.43,1.17-.54.58-.98,1.22-1.57,1.66-1.63,1.25-3.5,2.01-5.57,1.99-2.43-.03-4.76-.57-6.68-2.16-2.23-1.84-3.62-4.18-3.9-7.11-.32-3.26.55-6.15,2.75-8.58.72-.8,1.63-1.38,2.6-1.92,2.02-1.13,4.15-1.38,6.37-1.1,1.98.25,3.77.99,5.14,2.53.12.14.21.3.36.53Z"/>
    <path class="cls-1" d="M453.52,131.97c2.62.11,5.19.13,7.75.34,1.54.13,2.88.89,3.8,2.18.35.48.57,1.11.68,1.7.34,1.82.14,3.58-1.29,4.9-1.06.99-2.44,1.49-3.89,1.6-1.35.1-2.7.06-4.05.08-.31,0-.63,0-1.03,0v9.26h-1.97v-20.06ZM455.52,140.85c1.44,0,2.79,0,4.14,0,.35,0,.72-.03,1.06-.12,1.17-.31,2.19-.85,2.61-2.08.77-2.28-.4-4.15-2.79-4.41-1.19-.13-2.39-.11-3.59-.15-.46-.01-.92,0-1.42,0v6.77Z"/>
    <path class="cls-1" d="M360.13,158.75c.05-.71.08-1.28.12-1.92.26.03.46.04.65.08,1.35.29,2.3-.1,2.9-1.34.48-.99.85-2.04,1.24-3.07.07-.17.06-.42,0-.59-.8-2-1.63-3.99-2.44-5.99-.89-2.19-1.76-4.38-2.63-6.57-.05-.13-.06-.28-.11-.5.7,0,1.34-.05,1.96.03.2.02.44.32.53.55.72,1.81,1.4,3.64,2.1,5.45.5,1.31,1.01,2.62,1.53,3.93.07.18.19.35.28.52.06,0,.13.01.19.02,1.27-3.5,2.53-6.99,3.8-10.48h2.29c-.34.92-.65,1.78-.98,2.63-.88,2.27-1.74,4.55-2.65,6.81-1.11,2.76-2.21,5.54-3.43,8.26-.64,1.42-1.85,2.25-3.49,2.26-.59,0-1.17-.04-1.85-.07Z"/>
    <path class="cls-1" d="M506.11,152.38c-4.05,0-7.07-3.03-7.04-7.07.03-3.85,3.12-6.76,6.95-6.82,4.16-.06,7.15,3.12,7.1,6.96-.05,3.94-2.85,6.97-7.01,6.92ZM511,145.41c-.05-.43-.11-.86-.14-1.29-.16-2.23-2.36-3.59-4.02-3.78-2.33-.26-4.39.9-5.17,2.77-.46,1.11-.5,2.26-.33,3.43.47,3.28,4.05,5.04,7.05,3.53,1.91-.96,2.66-2.6,2.61-4.67Z"/>
    <path class="cls-1" d="M339.54,143.87c.2-2.11-.74-3.3-2.74-3.49-1.33-.12-2.61.04-3.75.87-.82.6-1.48.27-1.85-.87.94-.93,2.1-1.5,3.39-1.69,1.03-.15,2.1-.18,3.14-.07,2.3.25,3.63,1.98,3.7,4.13.08,2.29.05,4.58.09,6.87,0,.6.08,1.2.12,1.8.01.18,0,.36,0,.59h-1.68c-.07-.64-.13-1.26-.21-2.01-.32.35-.58.61-.81.88-1.48,1.77-5.3,2.14-7.33.2-1.06-1.01-1.56-2.83-.64-4.44.93-1.64,2.47-2.3,4.23-2.51,1.25-.15,2.51-.16,3.77-.23.18-.01.37-.03.58-.05ZM339.56,145.52c-1.76-.08-3.48.01-5.13.61-.49.18-.95.53-1.34.89-.6.55-.63,1.73-.12,2.38.99,1.25,3.13,1.62,4.61.78,1.61-.91,2.29-2.5,1.97-4.67Z"/>
    <path class="cls-1" d="M272.5,145.39c-.13-3.92,3.29-6.87,6.96-6.9,4.15-.03,7.1,3.19,7.08,6.93-.02,3.83-2.85,7.1-7.26,6.97-3.34-.1-6.93-2.96-6.77-7.01ZM279.5,150.7c.67-.16,1.39-.21,2-.49,2.22-1.01,2.97-2.54,2.87-5.1-.05-1.17-.27-2.36-1.08-3.26-1.29-1.45-3.9-1.97-5.68-1.19-1.2.53-2.21,1.32-2.61,2.64-.2.66-.34,1.35-.38,2.04-.16,2.82,2.04,5.41,4.87,5.36Z"/>
    <path class="cls-1" d="M396.13,145.49c.09,3.84-3.17,7.04-7.24,6.9-4.01-.14-6.79-2.95-6.78-6.98.01-4.08,2.95-6.94,7.08-6.89,3.74.04,7.06,2.91,6.93,6.97ZM384.16,145.42c-.2,4.17,4.06,6.36,7.31,4.58,1.66-.91,2.48-2.41,2.54-4.29.14-4.42-3.82-6.4-7.14-4.88-1.96.9-2.79,2.52-2.71,4.6Z"/>
    <path class="cls-1" d="M516.66,138.87h1.81c.02.29.05.55.05.8,0,2.24-.02,4.47-.01,6.71,0,1.13.05,2.27.88,3.18.2.22.41.46.66.59,1.73.91,4.52.58,5.47-1.98.33-.89.44-1.9.48-2.86.08-2.01.04-4.02.05-6.03,0-.11.02-.22.04-.39h1.92v13.13h-1.83c-.06-.68-.11-1.3-.17-2.04-.28.32-.45.55-.66.75-1.66,1.65-3.99,2.1-6.17,1.22-1.68-.68-2.3-2.12-2.38-3.71-.15-2.81-.09-5.63-.11-8.45,0-.29,0-.59,0-.92Z"/>
    <path class="cls-1" d="M347.73,152h-1.89v-13.12h1.79c.05.59.1,1.17.17,1.9.29-.29.51-.5.72-.72,1.5-1.57,4.49-2.05,6.38-1.01,1.36.75,2.12,1.98,2.19,3.47.13,2.6.09,5.22.11,7.82,0,.52,0,1.05,0,1.65h-1.91c-.02-.21-.06-.43-.06-.64,0-1.93.02-3.87-.02-5.8-.02-1.05-.12-2.09-.26-3.13-.14-1.07-.84-1.69-1.85-1.94-2.56-.62-5.09.88-5.25,3.55-.14,2.34-.09,4.69-.12,7.04,0,.28,0,.56,0,.93Z"/>
    <path class="cls-1" d="M397.94,138.83h2.74c.02-.41.03-.72.05-1.04.07-1.42.06-2.85.22-4.26.22-1.88,1.89-3,3.55-3.12.72-.05,1.44.03,2.26.06-.08.68-.14,1.22-.21,1.84-.44-.03-.81-.05-1.17-.08-1.53-.15-2.5.56-2.6,2.1-.1,1.49-.02,2.99-.02,4.53h2.98v1.77h-3.05v11.4h-1.95v-11.37h-2.8v-1.81Z"/>
    <path class="cls-1" d="M493.06,152.02h-1.95v-13.14h1.81v2.07s.09.04.14.06c.55-.97,1.31-1.69,2.33-2.15,1.03-.46,2.06-.42,3.15-.17-.1.63-.18,1.21-.28,1.82-.27,0-.47.01-.67,0-.96-.07-1.83.13-2.68.65-1.2.73-1.74,1.82-1.79,3.12-.08,2.35-.05,4.7-.06,7.04,0,.2,0,.4,0,.69Z"/>
  </g>
</svg>