<svg xmlns="http://www.w3.org/2000/svg" width="322" height="87" viewBox="0 0 322 87"><title>Logo Yokai black</title><g fill="none" fill-rule="nonzero"><path fill="#2f2def" d="m49.2 42.62 4.04-7h18l4.05-7.02L62.24 6h-26.1L23.09 28.6l4.05 7.02h18.01zM44.24 51.2h-8.1l-9-15.58h-8.09L6 58.22l13.05 22.6h26.1l4.05-7-9.01-15.6zM79.34 35.62h-8.1l-9 15.58h-8.09l4.05 7.02-9 15.6 4.04 7h26.1l13.05-22.6z"/><path fill="#8483f1" d="m49.2 42.62 4.95 8.58h8.09l9-15.58h-18z"/><path fill="#fff" d="m49.2 42.62-4.96 8.58h9.91z"/><path fill="#8483f1" d="m44.24 51.2 4.96-8.58-4.05-7H27.14l9 15.58zM54.15 51.2h-9.91l-4.05 7.02 9.01 15.6 9-15.6z"/><g fill="#000"><path d="m126.65 52.2-18.42-38.55h13.07l11.36 27.27 11.44-27.27h12.99L138.75 52.2v21.51h-12.09V52.2zM154.62 51.3c0-11.36 8.36-23.46 23.86-23.46s23.86 12.09 23.86 23.54S193.98 75 178.48 75s-23.86-12.09-23.86-23.62zm10.63.16c0 7.79 5.92 13.55 13.23 13.55s13.15-5.76 13.15-13.63-5.84-13.64-13.15-13.64-13.23 5.76-13.23 13.64zM169.4 13.66h18.69v8.02H169.4zM207.4 13.64h10.63v32.47l15.34-16.96h12.74L227.6 48.79l18.59 24.92h-12.17l-15.99-22.24v22.24H207.4V13.65zM295.3 73.71h-10.63V67.3c-2.84 5.19-8.77 7.79-15.02 7.79-14.28 0-22.64-11.12-22.64-23.7 0-14.04 10.15-23.62 22.64-23.62 8.12 0 13.07 4.3 15.02 7.87v-6.49h10.63zm-37.66-22.08c0 5.52 3.98 13.55 13.55 13.55 5.93 0 9.82-3.08 11.85-7.14 1.06-1.95 1.54-4.06 1.7-6.25.08-2.11-.32-4.3-1.22-6.25-1.87-4.22-6.01-7.87-12.42-7.87-8.6 0-13.47 6.98-13.47 13.88v.08zM305.84 13.64h10.63v9.5h-10.63zm0 15.5h10.63V73.7h-10.63z"/></g></g></svg>