<?xml version="1.0" encoding="UTF-8"?>
<svg width="322px" height="87px" viewBox="0 0 322 87" version="1.1" xmlns="http://www.w3.org/2000/svg" xmlns:xlink="http://www.w3.org/1999/xlink">
    <title>Logo Yokai black</title>
    <g id="Logo-Yokai-black" stroke="none" stroke-width="1" fill="none" fill-rule="evenodd">
        <g id="yokai-logo" transform="translate(6, 6)" fill-rule="nonzero">
            <g id="Path">
                <polygon fill="#2F2DEF" points="43.2 36.62 47.24 29.62 65.24 29.62 69.29 22.6 56.24 0 30.14 0 17.09 22.6 21.14 29.62 39.15 29.62"></polygon>
                <polygon fill="#2F2DEF" points="38.24 45.2 30.14 45.2 21.14 29.62 13.05 29.62 0 52.22 13.05 74.82 39.15 74.82 43.2 67.82 34.19 52.22"></polygon>
                <polygon fill="#2F2DEF" points="73.34 29.62 65.24 29.62 56.24 45.2 48.15 45.2 52.2 52.22 43.2 67.82 47.24 74.82 73.34 74.82 86.39 52.22"></polygon>
                <polygon fill="#8483F1" points="43.2 36.62 48.15 45.2 56.24 45.2 65.24 29.62 47.24 29.62"></polygon>
                <polygon fill="#FFFFFF" points="43.2 36.62 38.24 45.2 38.25 45.2 48.12 45.2 48.15 45.2"></polygon>
                <polygon fill="#8483F1" points="38.24 45.2 43.2 36.62 39.15 29.62 21.14 29.62 30.14 45.2"></polygon>
                <polygon fill="#8483F1" points="48.15 45.2 48.12 45.2 38.25 45.2 38.24 45.2 34.19 52.22 43.2 67.82 52.2 52.22"></polygon>
            </g>
            <g id="Group" transform="translate(102.23, 7.64)" fill="#000000">
                <polygon id="Path" points="18.42 38.56 0 0.01 13.07 0.01 24.43 27.28 35.87 0.01 48.86 0.01 30.52 38.56 30.52 60.07 18.43 60.07 18.43 38.56"></polygon>
                <path d="M46.39,37.66 C46.39,26.3 54.75,14.2 70.25,14.2 C85.75,14.2 94.11,26.29 94.11,37.74 C94.11,49.19 85.75,61.36 70.25,61.36 C54.75,61.36 46.39,49.27 46.39,37.74 L46.39,37.66 L46.39,37.66 Z M57.02,37.82 C57.02,45.61 62.94,51.37 70.25,51.37 C77.56,51.37 83.4,45.61 83.4,37.74 C83.4,29.87 77.56,24.1 70.25,24.1 C62.94,24.1 57.02,29.86 57.02,37.74 L57.02,37.82 Z" id="Shape"></path>
                <rect id="Rectangle" x="61.17" y="0.02" width="18.69" height="8.02"></rect>
                <polygon id="Path" points="99.17 0 109.8 0 109.8 32.47 125.14 15.51 137.88 15.51 119.37 35.15 137.96 60.07 125.79 60.07 109.8 37.83 109.8 60.07 99.17 60.07 99.17 0.01"></polygon>
                <path d="M187.07,60.07 L176.44,60.07 L176.44,53.66 C173.6,58.85 167.67,61.45 161.42,61.45 C147.14,61.45 138.78,50.33 138.78,37.75 C138.78,23.71 148.93,14.13 161.42,14.13 C169.54,14.13 174.49,18.43 176.44,22 L176.44,15.51 L187.07,15.51 L187.07,60.07 L187.07,60.07 Z M149.41,37.99 C149.41,43.51 153.39,51.54 162.96,51.54 C168.89,51.54 172.78,48.46 174.81,44.4 C175.87,42.45 176.35,40.34 176.51,38.15 C176.59,36.04 176.19,33.85 175.29,31.9 C173.42,27.68 169.28,24.03 162.87,24.03 C154.27,24.03 149.4,31.01 149.4,37.91 L149.4,37.99 L149.41,37.99 Z" id="Shape"></path>
                <path d="M197.61,0 L208.24,0 L208.24,9.5 L197.61,9.5 L197.61,0 Z M197.61,15.5 L208.24,15.5 L208.24,60.06 L197.61,60.06 L197.61,15.5 L197.61,15.5 Z" id="Shape"></path>
            </g>
        </g>
    </g>
</svg>