<svg xmlns="http://www.w3.org/2000/svg" viewBox="0 0 304 47"><path fill-rule="evenodd" d="M77.36 16.07c-1.49 0-2.24-.74-2.24-2.23s.75-2.23 2.24-2.23c1.52 0 2.28.74 2.28 2.23 0 .7-.2 1.25-.6 1.66q-.57.57-1.68.57m-10.27 20.2c-1.33 0-1.99-.72-1.99-2.16V22.64h-1.46c-1.05 0-1.58-.53-1.58-1.59 0-1.07.53-1.6 1.58-1.6h1.46v-.03c0-2.28.54-4 1.61-5.18 1.08-1.17 2.63-1.87 4.68-2.09l.95-.1c.61-.07 1.05.04 1.33.33.29.3.45.66.47 1.09.02.4-.07.77-.28 1.11a1.1 1.1 0 0 1-.86.58l-.76.07c-1.11.09-1.93.41-2.43.98-.51.56-.76 1.41-.76 2.53v.71h8.25c1.31 0 1.96.76 1.96 2.27v12.22c0 .72-.17 1.28-.5 1.69-.32.4-.81.61-1.46.61-.63 0-1.13-.21-1.48-.61-.34-.41-.51-.97-.51-1.69v-11.3h-6.26v11.47c0 1.44-.65 2.16-1.96 2.16m18.3 0c-1.34 0-2.02-.72-2.02-2.16V21.32c0-1.43.64-2.14 1.93-2.14 1.28 0 1.93.71 1.93 2.14v1.04c.76-1.94 2.38-3.02 4.87-3.24.9-.12 1.41.44 1.51 1.65.11 1.2-.44 1.87-1.64 2l-.7.07c-2.59.27-3.88 1.69-3.88 4.26v7.01c0 1.44-.67 2.16-2 2.16m12.4 0c-1.31 0-1.96-.72-1.96-2.16V21.32c0-1.43.64-2.14 1.93-2.14 1.28 0 1.92.71 1.92 2.14v.67c.47-.9 1.11-1.6 1.93-2.1.82-.51 1.77-.77 2.85-.77 2.32 0 3.83 1.08 4.55 3.24.48-1.01 1.18-1.8 2.09-2.36.9-.59 1.94-.88 3.09-.88 3.48 0 5.22 2.26 5.22 6.8v8.19c0 1.44-.66 2.16-1.99 2.16-1.31 0-1.96-.72-1.96-2.16v-8.02c0-1.27-.2-2.19-.6-2.78-.38-.58-1.03-.88-1.96-.88-1.03 0-1.85.4-2.44 1.19-.59.76-.88 1.83-.88 3.21v7.28c0 1.44-.65 2.16-1.96 2.16-1.33 0-1.99-.72-1.99-2.16v-8.02c0-1.27-.2-2.19-.6-2.78-.38-.58-1.03-.88-1.93-.88-1.03 0-1.85.4-2.44 1.19-.59.76-.88 1.83-.88 3.21v7.28c0 1.44-.67 2.16-1.99 2.16m30.79.07c-1.12 0-2.12-.23-3-.68-.87-.47-1.55-1.1-2.06-1.89-.48-.79-.73-1.68-.73-2.68 0-1.21.3-2.17.89-2.87q.885-1.08 2.88-1.56c1.32-.31 3.1-.47 5.34-.47h1.1v-.71c0-1.13-.23-1.94-.69-2.44-.46-.49-1.24-.74-2.34-.74-.61 0-1.28.08-1.99.23-.7.16-1.44.43-2.21.82-.51.24-.93.28-1.27.1-.34-.21-.57-.51-.7-.92-.1-.42-.08-.85.07-1.28.17-.43.49-.75.98-.95.97-.43 1.9-.73 2.78-.91.91-.18 1.73-.27 2.47-.27 2.25 0 3.93.56 5.02 1.69 1.1 1.1 1.65 2.83 1.65 5.17v8.13c0 1.44-.61 2.16-1.84 2.16q-1.86 0-1.86-2.16v-.75c-.36.93-.93 1.66-1.71 2.2-.78.52-1.71.78-2.78.78m.82-2.91c1.03 0 1.89-.38 2.56-1.15.7-.77 1.04-1.74 1.04-2.91v-.75h-1.07q-2.97 0-4.14.51c-.76.32-1.14.9-1.14 1.76 0 .75.24 1.35.73 1.83.48.47 1.16.71 2.02.71m13.34 8.93c-1.31 0-1.96-.71-1.96-2.13V21.32c0-1.43.64-2.14 1.93-2.14 1.31 0 1.96.71 1.96 2.14v.71c.44-.88 1.11-1.58 1.99-2.1.89-.54 1.9-.81 3.04-.81q2.025 0 3.54 1.05c1.03.69 1.83 1.69 2.4 2.97.57 1.27.85 2.79.85 4.57 0 1.76-.28 3.29-.85 4.6-.57 1.29-1.36 2.28-2.37 2.98q-1.515 1.05-3.57 1.05c-1.1 0-2.09-.25-2.98-.75a5.3 5.3 0 0 1-1.99-2.06v6.7c0 1.42-.66 2.13-1.99 2.13m5.85-9.24q1.77 0 2.85-1.35c.71-.92 1.07-2.28 1.07-4.06 0-1.8-.36-3.15-1.07-4.03q-1.08-1.35-2.85-1.35t-2.85 1.35c-.71.88-1.07 2.23-1.07 4.03 0 1.78.36 3.14 1.07 4.06q1.08 1.35 2.85 1.35m13.18 3.15c-1.35 0-2.02-.72-2.02-2.16V21.32c0-1.43.64-2.14 1.93-2.14 1.28 0 1.93.71 1.93 2.14v1.04c.76-1.94 2.38-3.02 4.87-3.24.9-.12 1.41.44 1.51 1.65.11 1.2-.44 1.87-1.64 2l-.7.07c-2.59.27-3.89 1.69-3.89 4.26v7.01c0 1.44-.66 2.16-1.99 2.16m17.17.07q-2.4 0-4.17-1.05c-1.18-.7-2.1-1.69-2.75-2.98-.66-1.31-.98-2.84-.98-4.6s.32-3.28.98-4.57c.65-1.28 1.57-2.28 2.75-2.97q1.77-1.05 4.17-1.05t4.17 1.05c1.18.69 2.1 1.69 2.75 2.97.66 1.29.98 2.81.98 4.57s-.32 3.29-.98 4.6c-.65 1.29-1.57 2.28-2.75 2.98q-1.77 1.05-4.17 1.05m0-3.22c1.18 0 2.13-.45 2.84-1.35.72-.92 1.08-2.28 1.08-4.06 0-1.8-.36-3.15-1.08-4.03-.71-.9-1.66-1.35-2.84-1.35q-1.77 0-2.85 1.35c-.71.88-1.07 2.23-1.07 4.03 0 1.78.36 3.14 1.07 4.06q1.08 1.35 2.85 1.35m14.04 3.15c-1.33 0-2-.72-2-2.16V22.64h-1.45c-1.05 0-1.58-.53-1.58-1.59 0-1.07.53-1.6 1.58-1.6h1.45v-.03c0-2.32.55-4.06 1.65-5.21 1.09-1.17 2.67-1.86 4.74-2.06l1.08-.1c.54-.05.94.07 1.2.37.25.29.38.65.38 1.08.02.41-.08.78-.29 1.12-.21.31-.52.49-.92.54l-.44.03c-1.2.09-2.07.42-2.62.98-.55.57-.82 1.42-.82 2.57v.71h2.68c1.06 0 1.58.53 1.58 1.6 0 1.06-.52 1.59-1.58 1.59h-2.68v11.47c0 1.44-.66 2.16-1.96 2.16m15.68.07c-1.75 0-3.26-.35-4.52-1.05a7.2 7.2 0 0 1-2.94-2.98c-.68-1.28-1.02-2.81-1.02-4.57 0-1.71.33-3.21.98-4.5.68-1.28 1.6-2.29 2.75-3.01q1.77-1.11 4.02-1.11c2.19 0 3.92.74 5.18 2.23 1.29 1.49 1.93 3.52 1.93 6.09 0 .83-.5 1.25-1.52 1.25h-9.54c.29 2.96 1.87 4.43 4.74 4.43.55 0 1.16-.06 1.83-.2.7-.16 1.35-.42 1.96-.78.55-.34 1.01-.44 1.39-.3.38.11.65.35.79.71.17.36.19.77.07 1.22-.11.43-.4.8-.89 1.11-.74.5-1.59.87-2.56 1.12-.95.23-1.83.34-2.65.34m-.57-14.35c-1.16 0-2.1.39-2.82 1.15q-1.065 1.155-1.29 3.12h7.77c-.08-1.38-.44-2.43-1.07-3.15-.61-.75-1.48-1.12-2.59-1.12m15.74 14.35c-.91 0-1.86-.1-2.88-.31a8 8 0 0 1-2.71-1.05c-.45-.27-.72-.59-.83-.98q-.15-.6.03-1.11c.15-.36.38-.62.7-.78.34-.16.73-.13 1.17.1.84.43 1.63.73 2.37.91.74.16 1.47.24 2.18.24q1.515 0 2.25-.54c.5-.38.76-.88.76-1.49 0-.95-.66-1.56-1.96-1.83l-3.17-.64c-2.67-.54-4.01-2.03-4.01-4.47 0-1.08.27-2.01.82-2.8q.855-1.185 2.34-1.83c.99-.43 2.13-.64 3.42-.64 1.85 0 3.5.44 4.96 1.32.4.22.63.54.69.94.09.39.05.76-.12 1.12-.15.34-.39.59-.73.74-.34.14-.73.09-1.17-.13a8 8 0 0 0-1.9-.78 6.5 6.5 0 0 0-1.7-.24c-1.04 0-1.81.2-2.31.58-.49.38-.73.89-.73 1.52q0 1.485 1.8 1.83l3.17.64c1.37.27 2.4.77 3.09 1.49q1.08 1.08 1.08 2.91c0 1.65-.6 2.94-1.8 3.89-1.21.93-2.81 1.39-4.81 1.39m11.73-20.27q-1.11 0-1.74-.57c-.4-.41-.6-.96-.6-1.66 0-.72.2-1.28.6-1.66q.63-.57 1.74-.57c1.56 0 2.34.74 2.34 2.23s-.78 2.23-2.34 2.23m0 20.17c-.63 0-1.12-.21-1.45-.61-.34-.41-.51-.97-.51-1.69V21.52c0-1.54.65-2.3 1.96-2.3 1.33 0 1.99.76 1.99 2.3v12.42c0 .72-.17 1.28-.5 1.69-.34.4-.84.61-1.49.61m13.15.1q-2.4 0-4.17-1.05c-1.18-.7-2.1-1.69-2.75-2.98-.66-1.31-.98-2.84-.98-4.6s.32-3.28.98-4.57c.65-1.28 1.57-2.28 2.75-2.97q1.77-1.05 4.17-1.05t4.17 1.05c1.18.69 2.1 1.69 2.75 2.97.66 1.29.98 2.81.98 4.57s-.32 3.29-.98 4.6c-.65 1.29-1.57 2.28-2.75 2.98q-1.77 1.05-4.17 1.05m0-3.22q1.77 0 2.85-1.35c.71-.92 1.07-2.28 1.07-4.06 0-1.8-.36-3.15-1.07-4.03q-1.08-1.35-2.85-1.35c-1.18 0-2.13.45-2.84 1.35-.72.88-1.08 2.23-1.08 4.03 0 1.78.36 3.14 1.08 4.06.71.9 1.66 1.35 2.84 1.35m13.12 3.15c-1.31 0-1.96-.72-1.96-2.16V21.32c0-1.43.64-2.14 1.93-2.14 1.28 0 1.93.71 1.93 2.14v.71c.52-.95 1.23-1.67 2.12-2.17.9-.5 1.91-.74 3.03-.74 3.65 0 5.47 2.26 5.47 6.8v8.19c0 1.44-.65 2.16-1.96 2.16-1.33 0-1.99-.72-1.99-2.16v-7.99c0-1.29-.23-2.22-.7-2.81-.44-.58-1.14-.88-2.08-.88-1.16 0-2.09.4-2.79 1.19-.67.76-1.01 1.79-1.01 3.08v7.41c0 1.44-.66 2.16-1.99 2.16m21.62.07c-1.11 0-2.11-.23-3-.68-.86-.47-1.55-1.1-2.05-1.89-.49-.79-.73-1.68-.73-2.68 0-1.21.29-2.17.88-2.87q.885-1.08 2.88-1.56c1.33-.31 3.11-.47 5.34-.47h1.11v-.71c0-1.13-.23-1.94-.7-2.44-.46-.49-1.24-.74-2.33-.74-.62 0-1.28.08-2 .23-.69.16-1.43.43-2.21.82-.5.24-.93.28-1.26.1-.34-.21-.57-.51-.7-.92-.1-.42-.08-.85.06-1.28.17-.43.5-.75.98-.95.97-.43 1.9-.73 2.79-.91q1.35-.27 2.46-.27c2.26 0 3.93.56 5.03 1.69 1.09 1.1 1.64 2.83 1.64 5.17v8.13q0 2.16-1.83 2.16c-1.24 0-1.87-.72-1.87-2.16v-.75a4.56 4.56 0 0 1-1.7 2.2q-1.17.78-2.79.78m.83-2.91c1.03 0 1.88-.38 2.56-1.15.69-.77 1.04-1.74 1.04-2.91v-.75h-1.07c-1.99 0-3.37.17-4.15.51-.75.32-1.13.9-1.13 1.76 0 .75.24 1.35.72 1.83.49.47 1.16.71 2.03.71m16.66 2.91q-5.28 0-5.28-6.33v-16c0-1.42.65-2.13 1.96-2.13 1.33 0 1.99.71 1.99 2.13v15.8c0 2.03.79 3.04 2.37 3.04h.47l.45-.06q.435-.075.6.27c.1.2.16.63.16 1.28 0 .57-.11 1.01-.32 1.32-.21.32-.56.51-1.04.58-.45.06-.9.1-1.36.1" style="fill:#0a203c"/><path d="M0 .69v45.62h4.14V4.85h29.03V.69zm24.88 12.39V8.94H8.33v29.07h4.16V21.43h12.39v-4.14H12.49v-4.21zm8.29 16.65V8.99h-4.15v16.58H16.63v12.49h16.54v-4.14H20.78v-4.19zM37.36.69v41.46H8.33v4.16h33.18V.69z" style="fill:#ff333b"/></svg>