<?xml version="1.0" encoding="utf-8"?>
<svg width="334" height="334" version="1.2" baseProfile="tiny-ps" xmlns="http://www.w3.org/2000/svg">
  <title>PKI Consortium</title>
  <path d="M196.82 294.34c-8.4 14.54-10.04 34.62-28.8 34.62-18.77 0-20.42-20.08-28.81-34.62-28.1-5.62-53.29-19.3-73.05-38.53l14.41-13.62c22.69 21.78 53.5 35.17 87.45 35.17 33.94 0 64.75-13.39 87.43-35.17l14.41 13.62c-19.76 19.23-44.94 32.91-73.04 38.53zm10.95-283.82c24.35 6.87 46.13 19.9 63.53 37.3a148.53 148.53 0 0 1 6.31 6.73c16.8 0 35.05-8.62 44.44 7.63 9.37 16.25-7.19 27.71-15.59 42.25 4.94 14.66 7.62 30.36 7.62 46.68 0 12.37-1.54 24.39-4.43 35.86l-19.01-5.67c2.37-9.67 3.64-19.78 3.64-30.19 0-34.87-14.14-66.44-36.98-89.28-14.86-14.85-33.39-26.02-54.12-32.02l4.59-19.29zm-178.4 94.39c-8.39-14.54-24.96-26-15.58-42.25 9.39-16.25 27.63-7.63 44.43-7.63a148.75 148.75 0 0 1 6.32-6.73c17.4-17.4 39.17-30.43 63.53-37.3l4.59 19.29c-20.73 6-39.27 17.17-54.12 32.02-22.84 22.84-36.98 54.41-36.98 89.28 0 10.41 1.27 20.52 3.64 30.19l-19.01 5.67c-2.89-11.47-4.43-23.49-4.43-35.86 0-16.32 2.67-32.02 7.61-46.68z" />
  <path fill-rule="evenodd" d="M238.24 80.88c17.98 17.97 29.09 42.8 29.09 70.23 0 14.57-3.14 28.42-8.78 40.88l40.9 23.62-9.83 17.1-40.95-23.65a99.39 99.39 0 0 1-10.43 12.28c-17.98 17.97-42.81 29.09-70.22 29.09-27.43 0-52.26-11.12-70.24-29.09a100.18 100.18 0 0 1-10.42-12.28l-40.95 23.65-9.83-17.1 40.9-23.62c-5.64-12.46-8.79-26.31-8.79-40.88 0-27.43 11.12-52.26 29.09-70.23 15.79-15.78 36.86-26.28 60.33-28.6V5.04h19.81v47.24c23.47 2.32 44.54 12.82 60.32 28.6zm-14.01 14.01C209.85 80.5 189.97 71.6 168.02 71.6c-21.96 0-41.84 8.9-56.23 23.29-14.39 14.38-23.29 34.26-23.29 56.22 0 21.95 8.9 41.83 23.29 56.22s34.27 23.28 56.23 23.28c21.95 0 41.83-8.89 56.21-23.28 14.4-14.38 23.3-34.27 23.3-56.22 0-21.96-8.9-41.84-23.3-56.22z" />
  <path d="M157.04 146.81l-13.73 53.14h49.41l-13.73-53.14c7.52-3.95 12.65-11.84 12.65-20.92 0-13.04-10.58-23.62-23.62-23.62-13.05 0-23.63 10.58-23.63 23.62 0 9.08 5.13 16.97 12.65 20.92z" />
</svg>