<svg xmlns="http://www.w3.org/2000/svg" viewBox="0 0 314 324" width="314" height="324">
	<style>
		tspan { white-space:pre }
		.shp0 { fill: #ffffff } 
	</style>
	<g id="Element">
		<path id="Consortium" fill-rule="evenodd" class="shp0" d="M196.77 5.52C221.12 12.39 242.9 25.42 260.3 42.82C262.47 45 264.58 47.24 266.61 49.55C283.41 49.55 301.66 40.93 311.05 57.18C320.42 73.43 303.86 84.89 295.46 99.43C300.4 114.09 303.08 129.79 303.08 146.11C303.08 158.48 301.54 170.5 298.65 181.97L279.64 176.3C282.01 166.63 283.28 156.52 283.28 146.11C283.28 111.24 269.14 79.67 246.3 56.83C231.44 41.98 212.91 30.81 192.18 24.81L196.77 5.52ZM227.24 75.88C245.22 93.85 256.33 118.68 256.33 146.11C256.33 160.68 253.19 174.53 247.55 186.99L288.45 210.61L278.62 227.71L237.67 204.06C234.53 208.43 231.04 212.54 227.24 216.34C209.26 234.31 184.43 245.43 157.02 245.43C129.59 245.43 104.76 234.31 86.78 216.34C82.99 212.54 79.5 208.43 76.36 204.06L35.41 227.71L25.58 210.61L66.48 186.99C60.84 174.53 57.69 160.68 57.69 146.11C57.69 118.68 68.81 93.85 86.78 75.88C102.57 60.1 123.64 49.6 147.11 47.28L147.11 0.04L166.92 0.04L166.92 47.28C190.39 49.6 211.46 60.1 227.24 75.88ZM213.23 89.89C198.85 75.5 178.97 66.6 157.02 66.6C135.06 66.6 115.18 75.5 100.79 89.89C86.4 104.27 77.5 124.15 77.5 146.11C77.5 168.06 86.4 187.94 100.79 202.33C115.18 216.72 135.06 225.61 157.02 225.61C178.97 225.61 198.85 216.72 213.23 202.33C227.63 187.95 236.53 168.06 236.53 146.11C236.53 124.15 227.63 104.27 213.23 89.89ZM185.82 289.34C177.42 303.88 175.78 323.96 157.02 323.96C138.25 323.96 136.6 303.88 128.21 289.34C100.11 283.72 74.92 270.04 55.16 250.81L69.57 237.19C92.26 258.97 123.07 272.36 157.02 272.36C190.96 272.36 221.77 258.97 244.45 237.19L258.86 250.81C239.1 270.04 213.92 283.72 185.82 289.34ZM18.56 99.43C10.17 84.89 -6.4 73.43 2.98 57.18C12.37 40.93 30.61 49.55 47.41 49.55C49.45 47.24 51.55 45 53.73 42.82C71.13 25.42 92.9 12.39 117.26 5.52L121.85 24.81C101.12 30.81 82.58 41.98 67.73 56.83C44.89 79.67 30.75 111.24 30.75 146.11C30.75 156.52 32.02 166.63 34.39 176.3L15.38 181.97C12.49 170.5 10.95 158.48 10.95 146.11C10.95 129.79 13.62 114.09 18.56 99.43Z" />
		<path id="Keyhole" class="shp0" d="M146.04 141.81L132.31 194.95L181.72 194.95L167.99 141.81C175.51 137.86 180.64 129.97 180.64 120.89C180.64 107.85 170.06 97.27 157.02 97.27C143.97 97.27 133.39 107.85 133.39 120.89C133.39 129.97 138.52 137.86 146.04 141.81Z" />
	</g>
</svg>