<svg version="1.2" xmlns="http://www.w3.org/2000/svg" viewBox="0 0 4100 1182">
	<title>Quantum Bridge</title>
	<style>
		.s0 { fill: #079780 } 
		.s1 { fill: #15d790 } 
		.s2 { fill: #0ee296 } 
		.s3 { fill: #939393 } 
		.s4 { fill: #3c3c3b } 
		.s5 { fill: #585857 } 
		.s6 { fill: #28b17f } 
		.s7 { fill: #21bf86 } 
		.s8 { fill: #2fa379 } 
		.s9 { fill: #1bca8b } 
		.s10 { fill: #636362 } 
		.s11 { fill: #898989 } 
		.s12 { fill: #6d6d6c } 
		.s13 { fill: #767675 } 
		.s14 { fill: #7f7f7f } 
		.s15 { fill: #9b9b9b } 
		.s16 { fill: #ababab } 
		.s17 { fill: #a4a4a4 } 
	</style>
	<path class="s0" d="m338.2 337.3c-3.7 0.2-7.3 0.5-11 0.5-83.6 0-167.3 0.2-250.9-0.2-9.8-0.1-20-2-29.2-5.4-20.2-7.4-33.4-22.4-40.4-42.8-1.2-3.5-2.6-6.8-4.3-10.8-0.4-6.7-0.4-12.7 0.1-20.2 4.9-11.1 8.5-21.1 13.7-30.3 34.4-60 69-119.7 103.6-179.5 8.6-15 17.6-29.7 26.9-44 5.8 9.6 11.2 18.8 16.6 28 12.9 21.8 25.7 43.6 38.8 66.1 10.8 19.4 21.4 38.2 32.3 56.8 8.3 14.3 16.9 28.4 25.6 43.3 7.7 13.9 15 27.2 22.7 40.4 10.3 17.7 20.8 35.2 31.4 53.5 1.1 2.5 2 4.2 2.9 5.9q10.6 19.4 21.2 38.7z"/>
	<path class="s1" d="m259.8 198.2c-8.5-14.3-17.1-28.4-25.4-42.7-10.9-18.6-21.5-37.4-31.6-56.9 2.6-1.6 5.1-2.1 6.8-3.5 6.3-5.3 12.5-10.8 18.6-16.4 11.5-10.5 22.9-21.2 34.4-31.7 12-11 24-21.8 36.1-32.7 3.7-3.3 5.6-7.3 5.3-12.3 52.7 0 105.4 0 159.1 0 1.2 0.5 1.6 1 2.5 2.5 0.7 5.3-1 8.6-4.3 11.5-9.6 8.6-19.1 17.4-28.5 26.3-12.2 11.3-24.2 22.8-36.3 34.1-7.8 7.3-15.7 14.3-23.6 21.5-21.1 19.1-42.2 38.3-63.3 57.5-10.1 9.2-19.8 18.8-30 27.7-6.2 5.5-13.2 10.1-19.8 15.1z"/>
	<path class="s2" d="m146.7 4.6c-0.5-0.9-0.5-1.2-0.6-2.1 51.9-0.5 104-0.5 157-0.5 1.2 5-0.7 9-4.4 12.3-12.1 10.9-24.1 21.7-36.1 32.7-11.5 10.5-22.9 21.2-34.4 31.7-6.1 5.6-12.3 11.1-18.6 16.4-1.7 1.4-4.2 1.9-7 2.9-13.6-21.8-26.4-43.6-39.3-65.4-5.4-9.2-10.8-18.4-16.6-28z"/>
	<path class="s3" d="m1153.1 2c0.9 0 1 0.8 0 1.4-21 0.5-41 0.5-61 0.5 0 0 0-1-0.1-1.4 20-0.5 40.1-0.5 61.1-0.5z"/>
	<path class="s4" d="m947.9 722c89.5-0.1 179.1-0.2 268.7-0.1 40.7 0.1 66.8 37 65.8 66.7-0.5 14.5-3.6 27.5-10.8 39.9-41.1 70.8-82 141.7-123 212.6-2.8 4.8-6 9.4-9.8 13.7-1.8-2.9-2.7-5.4-4-7.7-14.3-24.8-28.6-49.5-42.9-74.3-21.6-37.5-43.1-75-64.8-112.4-7.5-12.9-15.3-25.6-23.2-39.1-2.4-4.7-4.4-8.9-6.8-12.8-6.8-11.6-13.8-23.1-21-35.3-8.1-14.2-16-27.8-24.1-41.9-1.5-3.6-2.8-6.4-4.1-9.3z"/>
	<path class="s5" d="m1004.1 822c7.7 12.8 15.5 25.5 23 38.4 21.7 37.4 43.2 74.9 64.8 112.4 14.3 24.8 28.6 49.5 42.9 74.3 1.3 2.3 2.2 4.8 3.4 7.9-2.5 0.8-5.2 1-7.8 1-101.2 0-202.4 0.6-303.5-0.3-35.2-0.3-66-14-90-41.4 11.5-8.7 22.8-16.4 33.8-24.3 35.4-25.5 70.8-51 106.1-76.5 42.4-30.6 84.9-61 127.3-91.5z"/>
	<path class="s6" d="m439.6 510.3c-5-8.2-10.2-16.3-15-24.6-15.7-26.9-31.4-53.9-47-80.9-1.3-2.3-2.3-4.7-3.1-8.2 4.1-3.4 8.3-5 11.4-7.8 9.3-8.1 18.2-16.5 27.2-24.9 12.1-11.4 24.1-22.9 36.3-34.2 7.8-7.2 15.7-14.3 23.6-21.5 19.2-17.3 38.6-34.5 57.7-52 11.5-10.5 22.7-21.5 34.2-32 10.5-9.6 21.6-18.6 32-28.5 10-9.5 19.5-19.8 29.2-29.7 10.4 17.6 20.9 35.2 31.3 52.9 9.5 16.4 18.8 32.8 28 49.2 2.6 4.6 4.6 9.5 6.4 15.4-11.3 10.9-22.1 20.8-32.9 30.6q-34.9 31.9-69.8 63.9c-23.3 21.3-46.7 42.5-69.9 63.9-19.8 18.2-39.2 36.8-59.2 54.9-6 5.4-11.5 12.3-20.4 13.5z"/>
	<path class="s7" d="m625.9 165.3c-9.5 10.6-19 20.9-29 30.4-10.4 9.9-21.5 18.9-32 28.5-11.5 10.5-22.7 21.5-34.2 32-19.1 17.5-38.5 34.7-57.7 52-7.9 7.2-15.8 14.3-23.6 21.5-12.2 11.3-24.2 22.8-36.3 34.2-9 8.4-17.9 16.8-27.2 24.9-3.1 2.8-7.3 4.4-11.5 7.1-7.7-11.5-14.9-23.4-22-35.3-4.4-7.4-8.9-14.8-13.7-22.7-7.6-13.5-14.6-26.4-21.7-39.3-0.9-1.7-1.8-3.4-2.3-6.3 6.9-6.1 13.8-10.7 20-16.2 11.7-10.3 22.8-21.3 34.3-31.8 20.1-18.4 40.4-36.5 60.5-54.8 11-10.1 21.7-20.5 32.7-30.5 18.5-16.7 37.2-33.1 55.6-49.9 14.4-13.2 28.4-27 42.6-40.4 1.9-1.8 4.1-3.3 6.2-5 7 11.6 14.2 23.1 21 34.8 12.8 21.9 25.4 44.1 38.3 66.8z"/>
	<path class="s8" d="m439.8 510.9c8.7-1.8 14.2-8.7 20.2-14.1 20-18.1 39.4-36.7 59.2-54.9 23.2-21.4 46.6-42.6 69.9-63.9q34.9-32 69.8-63.9c10.8-9.8 21.6-19.7 33-29.9 8.2 13.4 10.9 28.5 11.9 43.8 1.9 29.8-5.8 57.2-20.9 82.9-28.4 48.3-56 96.9-84.2 145.2-5.3 9.2-11.2 18.2-18.1 26.2-24.5 28.4-80.4 28.6-104.5-8.5-13-20.1-24.1-41.4-36.3-62.9z"/>
	<path class="s9" d="m566.3 63.1c-1.8 2.3-4 3.8-5.9 5.6-14.2 13.4-28.2 27.2-42.6 40.4-18.4 16.8-37.1 33.2-55.6 49.9-11 10-21.7 20.4-32.7 30.5-20.1 18.3-40.4 36.4-60.5 54.8-11.5 10.5-22.6 21.5-34.3 31.8-6.2 5.5-13.1 10.1-20.2 15.5-11-17.2-21.5-34.7-31.8-52.4-7.7-13.2-15-26.5-22.7-40.4 6.4-5.6 13.4-10.2 19.6-15.7 10.2-8.9 19.9-18.5 30-27.7 21.1-19.2 42.2-38.4 63.3-57.5 7.9-7.2 15.8-14.2 23.6-21.5 12.1-11.3 24.1-22.8 36.3-34.1 9.4-8.9 18.9-17.7 28.5-26.3 3.3-2.9 5-6.2 4.7-11.2 22.2-0.3 42 7.7 60.5 19.2 15.9 9.8 29.3 22.6 39.8 39.1z"/>
	<path class="s10" d="m1003.9 821.3c-42.2 31.2-84.7 61.6-127.1 92.2-35.3 25.5-70.7 51-106.1 76.5-11 7.9-22.3 15.6-34.1 23.7-9.7-5.7-14.9-15-20.6-23.8-4.2-6.7-7.8-13.7-11.3-21.6 4.4-3.5 8.6-5.6 12.4-8.2 26.5-19 52.9-38.1 79.4-57.1q49.4-35.5 98.8-71c27-19.4 54-38.8 81.1-58.2 6.9 11.6 13.9 23.1 20.7 34.7 2.4 3.9 4.4 8.1 6.8 12.8z"/>
	<path class="s11" d="m880.1 606c8.6 14.8 17.3 29.7 25.3 45.4-3.7 2.6-7.1 4.1-10 6.2-34.5 24.7-69 49.6-103.6 74.5-44.4 32-88.9 64.1-133.4 96.2-8.3 6-16.5 12.3-24.8 18.4-8.6-14.8-17.2-29.6-25.4-45.7 13.3-10.6 26.1-20 39-29.4q53-38.2 105.9-76.3c36.7-26.4 73.3-52.9 110-79.1 5.4-3.9 11.3-6.9 17-10.2z"/>
	<path class="s12" d="m976.1 773.2c-26.8 20-53.8 39.4-80.8 58.8q-49.4 35.5-98.8 71c-26.5 19-52.9 38.1-79.4 57.1-3.8 2.6-8 4.7-12.5 7.5-8.4-13.2-16.3-26.7-23.7-41.1 5.4-4 10.7-6.8 15.5-10.3 40-28.7 79.9-57.5 119.8-86.3q68-49 136-98c7.9 13.5 15.8 27.1 23.9 41.3z"/>
	<path class="s3" d="m879.9 605.3c-5.5 4-11.4 7-16.8 10.9-36.7 26.2-73.3 52.7-110 79.1q-52.9 38.1-105.9 76.3c-12.9 9.4-25.7 18.8-39.1 28.7-11.5-12.7-17.3-28.4-21-45.7 3.7-2.1 7.1-2.9 9.7-4.7 30.4-21.6 60.7-43.3 90.9-65.1 49.7-35.8 99.4-71.5 149-107.4 6.3-4.6 11.7-10.5 17.6-15.8 8.5 14.3 16.9 28.7 25.6 43.7z"/>
	<path class="s13" d="m952 731.3c-45.1 33.3-90.5 65.9-135.8 98.6-39.9 28.8-79.8 57.6-119.8 86.3-4.8 3.5-10.1 6.3-15.8 9.7-8.5-12.7-16.3-25.6-23.7-39.4 1.8-1.6 3.4-2.3 4.7-3.2 39.1-28.2 78.1-56.4 117.3-84.5 46.6-33.5 93.3-67.1 140.1-100.4 3.6-2.5 8.6-3 12.9-4.4 5 9 10.1 18 15.5 27.5 1.8 3.4 3.1 6.2 4.6 9.8z"/>
	<path class="s14" d="m931.4 693.5c-3.8 1.9-8.8 2.4-12.4 4.9-46.8 33.3-93.5 66.9-140.1 100.4-39.2 28.1-78.2 56.3-117.3 84.5-1.3 0.9-2.9 1.6-5 2.6-7.9-12.6-15.2-25.3-22.7-38.6 8-6.7 16.2-13 24.5-19 44.5-32.1 89-64.2 133.4-96.2 34.6-24.9 69.1-49.8 103.6-74.5 2.9-2.1 6.3-3.6 10.2-5.5 7.2 10.8 13.7 21.7 20.3 32.6 1.6 2.8 3.4 5.5 5.5 8.8z"/>
	<path class="s15" d="m854.1 560.9c-5.7 6-11.1 11.9-17.4 16.5-49.6 35.9-99.3 71.6-149 107.4-30.2 21.8-60.5 43.5-90.9 65.1-2.6 1.8-6 2.6-9.7 4-5.4-15.9-6.1-32-2.6-49.2 4.8-2.8 8.9-4.3 12.4-6.7 14.4-10.2 28.6-20.6 42.9-30.9 31.6-22.7 63.2-45.3 94.6-68.1 33.3-24.2 66.5-48.7 99.7-73 6.6 11.4 13.2 22.8 20 34.9z"/>
	<path class="s16" d="m615.9 627.9c8.9-15.9 17.7-31.9 26.8-47.7 17-29.7 34.7-59 51.4-88.9 26.9-48.1 95.8-45.3 119.2 0.2-5.1 4.1-9.7 7.2-14.3 10.5q-50.2 36-100.4 72.1c-24 17.3-47.9 34.6-71.9 51.9-3.3 2.4-6.6 4.9-10.8 1.9z"/>
	<path class="s17" d="m615.4 628.3c4.7 2.6 8 0.1 11.3-2.3 24-17.3 47.9-34.6 71.9-51.9q50.2-36.1 100.4-72.1c4.6-3.3 9.2-6.4 14.5-9.8 5.8 8.4 11 17.1 16.2 25.7 1.3 2.3 2.5 4.5 4.1 7.4-32.9 25-66.1 49.5-99.4 73.7-31.4 22.8-63 45.4-94.6 68.1-14.3 10.3-28.5 20.7-42.9 30.9-3.5 2.4-7.6 3.9-12.1 5.9-0.2-15.1 4.7-29.1 11.5-42.4 5.6-11.2 12.4-21.8 19.1-33.2z"/>
	<path id="Quantum Bridge" fill-rule="evenodd" class="s4" d="m4101.4 199.5c-6.6-47.2-32.3-77.7-76.3-92.9-25.9-9-52.8-10.5-79.8-6.9-48.8 6.6-86.2 30.9-111.6 73.4-1.8 3-3.7 5.9-6.2 10.1-1-3.1-1.3-4.3-1.7-5.5-11-33.4-32.9-56.7-65.7-69.2-30.9-11.7-63.1-13.5-95.2-7.6-47.7 8.8-83.6 34.6-105.4 78.6-1.1 2.1-2.7 4-4 6q-0.8-0.3-1.7-0.7c0-26.5 0-53 0-79.9-27.6 0-54.4 0-81.4 0 0 104 0 207.4 0 310.8 27.5 0 54.4 0 81.9 0 0-4.2 0-7.9 0-11.5 0-53 0.5-105.9-0.3-158.9-0.2-13.5 4.1-24 12.2-33.6 4.9-5.8 10.1-11.6 16.1-16.3 36.9-29.1 78.5-37.5 123.9-25.8 22.3 5.8 35.9 21.1 40.7 43.4 2.3 10.6 3.2 21.7 3.3 32.6 0.3 53 0.1 106 0.1 159 0 3.5 0 7.1 0 11 27.9 0 54.6 0 82 0 0-4.3 0-7.9 0-11.5 0-59.3 0.1-118.7-0.1-178 0-6 1.6-10.6 5.4-15.3 12.3-15.5 28.2-26.3 46-34.3 31.2-14 63.5-15.8 96.3-6 18.4 5.5 31.3 17.8 36.3 36.6 2.9 10.7 5.1 22.1 5.2 33.2 0.5 55 0.3 110 0.3 164.9 0 3.6 0 7.1 0 10.8 27.7 0 54 0 80.3-0.9 0-72.3 0-143.7-0.6-215.6zm-947.5 983.6c-0.6-16.2-0.3-31.6-1.8-46.8-2.9-31.2-17.9-54.5-47.3-67.2-22.4-9.7-46-13.1-70.1-13.3-37.3-0.4-74.7-0.1-112-0.2-8.3 0-16.7-0.6-24-5.2-10.2-6.4-11.5-18.6-3.3-27.3 5.1-5.5 11.7-7.5 18.6-9 20.9-4.3 42.2-5.3 63.4-5.7 25.1-0.5 49.7-4.1 73.4-12.5 21.6-7.7 40.8-19.2 56.5-36.3 16.1-17.6 24.9-38.4 28.1-61.7 4-29.7-1.1-57.1-22.5-79.7-7.9-8.3-16.6-16-26.7-25.6 30.9 8.2 60.2 16.2 91.5 14.8 0-20.8 0-40.9 0-61.2-1.9-0.2-3.2-0.5-4.4-0.5-27.6-0.5-55.3-1-82.9-1.3-20.6-0.2-41.3 0-62-0.1-4.6-0.1-9.2-0.8-13.8-1.7-48.8-9.2-96.7-6.8-142.5 13.9-29.2 13.2-51.9 33.9-64.8 63.7-11.4 26.3-13.6 53.9-8.4 82.1 2.4 12.8 6.5 25 13 36.4 16.4 28.6 41.6 46.1 71.9 57.1 2.6 1 5.2 2.1 9.7 3.9-3.6 0.4-4.9 0.5-6.2 0.6-15.6 1.3-31.1 3.2-45.8 9.1-13.6 5.5-25.9 13-31.2 27.5-10.5 28.5-0.5 61.3 34.3 72.9 19.5 6.5 39.6 8.4 60 8.5 34.6 0.2 69.3 0 103.9 0.1 13.1 0 25.9 2.2 37.9 7.7 14.6 6.6 22.5 18.1 23.9 34.1 0.7 7.9 1.1 15.9 2.6 23.8 27.7 0 54.4 0 81-0.9zm-268.2-272.3c-17.1-31.5-10.3-81.5 31.7-99.7 35.2-15.2 70.5-15.6 104.6 2.9 22.5 12.2 33.5 32.4 34.3 58.1 0.4 11.1-0.6 21.9-5.2 32.2-7.4 16.6-19.9 28.2-36.3 35.4-13.2 5.8-27.1 8.6-41.6 8.8-17.5 0.2-34.6-0.7-51-7.2-16.1-7.1-28.6-16-36.5-30.5zm-1035.3-19.6c-12.2-16.5-29.6-25.7-48.8-31-14.6-4-29.6-6.2-45.6-9.5 4-1 7.1-1.8 10.2-2.7 11.4-3.4 23.2-6 34.2-10.4 16.1-6.5 30.1-16.4 38.8-31.7 15.8-28 14.8-57.6 3.9-86.7-10.1-27.2-32.1-42.5-57.9-53-29.8-12-61.3-15.3-92.9-15.6-78.2-0.8-156.6-0.3-234.9-0.2-2.1 0-4.3 0.6-6.5 0.9 0 135.1 0 269.6 0 405 4.5 0 8.5 0 12.4 0 75.6 0 151.3 0.1 226.9-0.1 14.9 0 29.9-0.7 44.8-2 22.6-1.9 44.6-6.9 65.5-16 22.9-9.9 42.4-24 53.9-46.8 13.3-26.5 14.8-54.1 5.6-83-3.3-6.3-5.9-12.2-9.6-17.2zm-105.6 88.4c-12.2 3.7-25.3 6.3-38.1 6.4-55.3 0.7-110.6 0.3-165.9 0.3-1.6 0-3.3-0.3-4.9-0.4-2-7.2-2.6-76.3-0.9-95.3 2.4-0.3 4.9-0.9 7.4-0.9 49.3 0 98.6-0.2 147.9 0.1 14.9 0.1 29.9 1.3 44.7 2.6 10.7 0.8 21.2 3.5 29.8 10.2 4.1 3.1 7.1 7.7 10.6 11.6 10 26.1 1.7 55.6-30.6 65.4zm-61.8-259.3c17.7 0.1 35.1 1.9 51.7 8.7 28.6 11.8 37.8 50.3 17.3 73.3-6.4 7.2-15 10.9-24 13.8-15.3 4.8-31.3 6-47.2 6.1-46.7 0.3-93.3 0.1-139.9 0.1-1.7 0-3.3-0.2-4.9-0.4-2.1-7.1-2.5-88.9-0.4-101.6 18.3 0 36.9 0 55.4 0 32 0 62 0 92 0zm1042.7-99.7c-15-1.9-75.7-1.3-83.4 0.8 0 13.4 0 27.1 0 40.7q0 20.5 0 40.9 0 21 0 42c0 13.7 0.1 27.4 0 41-0.1 13.3 0.5 26.6-1.2 39.8-1.9-2.3-2.9-4.8-3.9-7.2-15.8-37.2-43-61.9-81.9-73.2-39-11.4-78.3-11.3-116.8 1.2-44 14.2-76.5 42.4-94.7 85.5-14 33.1-16.5 67.6-10 102.6 10 53.3 40.6 91 89.7 113.4 28 12.8 57.7 16.5 88.4 14.4 48.9-3.3 87.3-23.9 113.1-66 6-9.7 10.8-20.2 16.8-31.6 1.5 31.2 2.2 61.2 6.8 90.6 16.2 1.8 69.4 1.2 77.1-1 0-93.7 0-187.6 0-282.5 0-51.2 0-101.4 0-151.4zm-301.2 234.9c13.3-28.3 36.4-44.8 66.4-50.9 27.4-5.6 55-4.9 81.9 3.4 21.5 6.5 40 17.7 53.5 36.5 8.1 11.3 13.1 24 15 37.6 2.1 15.5 2.2 31.1-2.4 46.5-7.4 25-22.5 44-45.7 55.3-39.6 19.3-80.5 22.2-121.6 5-25.5-10.6-43-29.5-51.8-56.1-7-27.4-6.8-52.8 4.7-77.3zm1032.1 138.6c-30.5 8.6-61.2 8.8-91.5-0.1-29-8.6-52-25.4-64.6-53.8-3.2-7.1-4.9-14.9-7.8-24 99.9 0 198 0 295.9 0 2.6-17.7 1.6-41.7-2.9-63.5-10.1-48.3-37.6-82.2-83.8-100.3-24-9.4-49.3-13.2-75-14.3-42.3-1.9-83.7 2.3-122.9 19.5-34 15-61.1 37.6-77.8 71.4-14.2 28.9-17.8 59.3-14.7 91.2 5.6 56.6 36 95.3 85.7 119.8 34.6 17.2 71.9 23.4 110.2 23.6 11.6 0.1 23.3-0.7 34.9-1.3 22.4-1.2 44.1-5.8 64.8-14.5 27-11.3 50.3-27.3 65.7-52.9 7.8-12.9 13.8-26.4 15.2-42.1-26.9 0-53.1 0-77.8 0-5.2 6.8-9.6 12.6-14.5 18.9-11.2 11.6-24.6 18.3-39.1 22.4zm-158.1-126.4c4.2-16.7 13.3-28.7 24.7-39 18.8-16.9 41.3-24.6 66.1-27.3 18.2-2 35.9-0.7 53.5 2.9 20.4 4.1 38.4 13 51.6 29.7 7.3 9.3 11.9 19.8 13.1 31.2-0.5 0.9-0.5 1.2-0.8 1.5-0.2 0.2-0.5 0.4-0.8 0.4q-89.4 0.3-178.9 0.6c-10.5 0-19 0-28.5 0zm-1036.8-762.1c-12.7-2.1-74.5-1.7-82.3 0.6 0 27.5 0 55.2 0 83-2.2-1.7-3.2-3.7-3.9-5.7-17.4-44.9-49.2-72.5-96.6-81.8-15.1-3-30.3-3.5-45.6-3.4-23.9 0.1-47 4.4-69 13.7-41.8 17.9-72 47.4-87.7 90.4-11.1 30.5-12.2 62.2-6.1 93.5 10.2 52.7 40.7 90.1 89.6 112.3 17.6 8.1 36.2 12.5 55.7 14.4 25.2 2.5 49.9 0.7 73.7-7.4 40.6-13.9 67.5-42.5 84.2-81.4q2-4.8 4-9.5c1.5 30.9 2.1 61.3 7.5 92 25.6 0 50.7 0.2 76.5-0.1 0-80.7 0-159.9 0-240.2 0-24.2 0-47.4 0-70.4zm-289.3 92c15.8-19.6 37.3-29.5 61.8-33.4 24.5-3.8 49-2.9 73 4 36.3 10.5 61.9 32.1 69.7 70.5 6.5 31.9 0.5 61.5-21.7 86.4-9.4 10.5-21.2 18.4-34.3 23.5-36.7 14.2-73.8 16.6-110.8 1.7-26.7-10.7-45.2-29.7-54-57.6-8.8-35.2-6-67.1 16.3-95.1zm1065.9 1.4c0.4 38.3-0.3 76.6 1.7 114.8 2.4 48 29.6 85.3 77 101 21.4 7.1 43.4 9.9 65.8 9.4 16-0.3 31.8-2.8 46.8-8.8 31.4-12.4 53.6-35.2 70.2-63.9 5.8-9.8 10.3-20.4 15.4-30.7q0.7 0.1 1.3 0.2c0 31.4 0 62.9 0 94.7 28.1 0 55.2 0 82.2 0 2.2-16.3 1.4-303.9-0.7-310.8-26.9 0-53.8 0-81.7 0 0 4.2 0 7.8 0 11.3 0 48.4-0.6 96.7 0.4 145 0.3 16.1-4.5 29.1-13.4 41.6-3.3 4.6-6.6 9.2-10.4 13.4-17.9 19.6-39 34.1-65.6 39.1-18.9 3.6-37.7 3.1-56.4-1.2-31-7.1-44.4-25.1-48.5-54.5-1.4-10.2-1.9-20.6-2-30.8-0.2-51-0.1-102-0.1-153 0-3.5 0-7.1 0-11.5-28 0.3-54.7-0.5-82 0.6 0 22.2 0 43.1 0 65.1 0 10.3-0.1 19.7 0 29zm-1516.4 214c19 7.4 39.1 10.5 59.5 11.2 35.8 1.3 68.4-7.4 95.9-31.9 19-16.9 32.5-37.5 42.8-60.5 2-4.4 3.9-8.9 5.9-13.3q0.9 0.2 1.9 0.3c0 32.3 0 64.6 0 97 27.7 0 54.2 0 80.6 0 2-11.5 1.6-303.5-0.4-310.9-26.5 0-52.9 0-80.4 0 0 4.2 0 7.8 0 11.3 0 51-0.1 102 0 153 0.1 5.5-1 10.5-3.5 15.3-7.6 14.5-16.6 28-28.6 39.4-36.8 35.1-79.6 41.2-126.6 26.4-13.6-4.3-23.3-13.7-29.5-26.7-5.5-11.7-7.8-24-7.8-36.8q0-85.4 0-170.9c0-3.5 0-7.1 0-10.4-12.8-2-75.5-1.5-82.9 0.4-0.2 1.5-0.5 3.2-0.4 4.8 0.4 64.9 0.9 129.8 1.2 194.8 0.1 16.1 3.3 31.6 9.2 47.4 12.7 29.6 34.2 48.9 63.1 60.1zm1085.7-309.2c-23.8-6.3-47.9-7.3-72.2-4-52.3 6.9-90.6 34-114.6 81-0.9 1.8-2 3.5-3.1 5.2q-0.9-0.2-1.8-0.5c0-26.8 0-53.5 0-81.2-27.7 0.3-54.4-0.5-80.9 0.5 0 104.5 0 207.6 0 310.7 14.9 1.8 74.2 1.2 81.3-0.9 0-3.6 0-7.2 0-10.9 0-52.3 0.6-104.6-0.3-156.9-0.3-15 4.6-26.8 14-37 37.4-40.8 84-52.7 137-40.8 21.1 4.7 35.3 18.5 40.8 39.6 2.7 10.2 4.2 20.9 4.3 31.4 0.4 55 0.2 109.9 0.2 164.9 0 3.6 0 7.1 0 10.5 15.2 1.9 74.9 1.3 82-0.8 0-3.6 0-7.2 0-10.8 0-60.7 0-121.3 0.1-181.9 0-16.9-2.7-33.1-8.3-49.7-14.5-37-41.4-58.6-78.5-68.4zm300.1 77.7c0-3.3 0.2-6.6 0.3-10 0.1-0.2 0.4-0.5 0.6-0.7 0.3-0.3 0.5-0.5 1.7-1.7 24.9 0 50.7 0 77.2 0 0.2-22 0.3-43.1 0-65.1-27.3 0-53.2 0-80 0 0-28.4 0-55.9 0-83.6-27.8 0-54.5 0-82.3 0 0 28.2 0 55.7 0 84.1-26.8 0-52.7 0-78.9 0 0 22.1 0 43.2 0 65.2 9.3 0 17.9 0 26.5 0 9 0 18-0.3 27 0 8.4 0.3 17.1-1.4 25.1 1.1 0.3 1 0.5 1.3 0.5 1.6q0.1 118.5 0.3 236.9 0 1.5 0 3 0.1 1 0.3 2c0.1 0.3 0.3 0.5 0.5 0.8 0.2 0.2 0.5 0.5 1.2 1.2 10.1 0 20.8 0 31.4 0 13.7 0 27.3 0.1 41 0 3-0.1 7.1 1.4 7.5-4.9 0.1-77.3 0.1-153.6 0.1-229.9zm-778 556.3c-21.1-0.3-39.5 3.8-56.8 13.7-25.3 14.4-41.8 36.4-54.3 62-2.7 5.5-4.9 11.1-7.3 16.7q-1-0.2-2-0.5c0-28.1 0-56.3 0-84.9-27.5 0-54 0-81 0 0 103.9 0 207.3 0 310.6 13.7 1.8 73.6 1.3 81.4-0.9 0-3.4 0-7 0-10.6 0-49.7-0.1-99.3 0.1-148.9 0-4.2 0.1-9 2-12.5 21.4-38.9 53.3-63.1 98-68.8 6.4-0.8 12.9-1.5 19.9-2.3 0-6 0-11.3 0-17.5 0-19.2 0-37.4 0-56.1zm55.1 6.5c-2 13.5-1.5 304.4 0.4 311.4 26.5 0 53 0 79.4 0 2-13.3 1.5-303.7-0.7-311.4-21.5 0-43.1 0-65.7 0-5.2 0-9.4 0-13.4 0zm86.5-64c1.9-14.3 1.4-64.2-0.6-71.3-30.7 0-61.4 0-93 0 0 24-0.1 47.4 0 71.3 9.4 0 17.4 0 26.3 0 23.2 0 45.3 0 67.3 0zm-1201.8-674.1c-36.6 4.2-71.7 13.7-104.1 31.9-69.5 38.9-98.3 100.6-98.9 177.7-0.1 12.9 1.7 25.9 3.6 38.6 6.9 44.8 27 82.4 61.6 112 32.7 28 71.3 43.3 113.1 51.4 11.9 2.3 24.1 3.8 36.9 5.8 0 13.1 0 26.1 0 39 0 13.3-0.1 26.6 0 40 0 12.8-0.3 25.6 0.1 38.3 28.3 0 55.1 0 82.5 0 0-10.3 0-19.9 0-29.6q0-15 0-30c0-9.6 0-19.3 0.1-28.9 0.1-9.9-0.5-19.8 0.3-29.5 28.2-2.4 54.5-7.6 80-16.6 35.9-12.8 66.9-32.6 91.5-61.8 30.7-36.3 42.2-79.4 43.2-125.7 0.4-16.1-1.4-32.5-3.9-48.5-6-38.6-23-72.2-50.7-99.7-25.7-25.6-56.9-42.2-91.5-52.9-25.9-7.9-52.5-11.6-80.2-13.9-21 0.1-41 0.1-61.9 0.3-7.8 0.8-14.8 1.3-21.7 2.1zm212.7 261.4c-10.5 28.5-30.9 48.4-57.2 62.6-19.9 10.7-41.5 16.4-63.6 19.2-34.8 4.5-69.6 3.6-103.8-5.4-31.3-8.2-58.9-22.4-79.5-48.4-13.6-17.2-20.9-36.9-23.6-58.4-2.5-19.8-2.3-39.7 2.4-59.2 9.6-40.7 35.3-67.7 72.7-84.2 27.1-12 55.8-16.8 85.3-17.6 29.8-0.8 59 2.2 87.3 12 31.9 11.1 57.7 29.8 74.3 59.9 1.8 3.2 3.2 6.5 4.7 9.8 13.4 37.5 14.2 73.7 1 109.7z"/>
</svg>