<?xml version="1.0" encoding="UTF-8"?>
<svg id="Layer_1" data-name="Layer 1" 
  xmlns="http://www.w3.org/2000/svg" version="1.1" viewBox="0 0 300 70">
  <defs>
    <style>
      .cls-1 {
        fill: #f7633d;
      }

      .cls-1, .cls-2 {
        stroke-width: 0px;
      }

      .cls-2 {
        fill: #111114;
      }
    </style>
  </defs>
  <g>
    <path class="cls-2" d="M170.9,2.6h10.9l32.3,46.8V2.6h10.7v64.9h-10.9l-32.3-46.1v46.1h-10.8V2.6Z"/>
    <path class="cls-2" d="M245.8,38.7V2.6h10.7v35.6c0,12.7,6.7,19.2,16.4,19.2s16.3-6.6,16.3-19.2V2.6h10.7v36.2c0,19-10.4,28.7-27,28.7s-27.1-9.7-27.1-28.7Z"/>
  </g>
  <path class="cls-2" d="M.8,35C.8,17.1,15.3,2.6,33,2.6s32.1,14.5,32.1,32.5-3.6,15.6-8.9,21.5c2.3.4,4.8.6,7.2.6h1.4v10h-1.4c-5.7,0-10.9-1.5-15.1-4-4.7,2.7-10,4.2-15.3,4.2C15.3,67.4.8,53,.8,35ZM33,57.5c2.3,0,4.5-.3,6.5-.8-6.3-5-10.5-12.1-11-20.3h10.6c.8,6.3,3.7,11.8,8.3,16,4.4-4,7.2-10.1,7.2-17.3,0-12.6-9.4-22.5-21.5-22.5s-21.5,10-21.5,22.5,9.5,22.4,21.5,22.4Z"/>
  <path class="cls-1" d="M156,35l-7.5-7.5L123.6,2.6l-7.5,7.5,19.7,19.7h-55.7v10.6h55.7l-19.7,19.7,7.5,7.5,32.4-32.4h0Z"/>
</svg>