<svg version="1.2" xmlns="http://www.w3.org/2000/svg" viewBox="0 0 668 161"><style>.a{fill:#2a3451}.b{fill:#b92025}</style><path class="a" d="m199.7 139.1q0 0.2-0.2 0.3-0.1 0.2-0.3 0.2h-9.9q-0.1 0-0.2 0.1l-0.4 2.7q0 0.1 0.2 0.1h6.1q0.2 0 0.3 0.2 0.1 0.1 0.1 0.3l-0.5 3.7q-0.1 0.2-0.2 0.3-0.1 0.1-0.4 0.1h-6.1q-0.2 0-0.2 0.2l-1.1 7.3q0 0.2-0.2 0.3-0.1 0.1-0.3 0.1h-5.3q-0.2 0-0.3-0.1-0.2-0.1-0.1-0.3l2.8-19.2q0.1-0.2 0.2-0.3 0.1-0.2 0.4-0.2h15.8q0.2 0 0.3 0.2 0.1 0.1 0.1 0.3zm16 7q0.1 0.9-0.2 2.4-0.1 0.3-0.5 0.3h-10.2q-0.2 0-0.2 0.2 0.1 0.6 0.2 1.1 0.7 1.6 3.3 1.6 2.1 0 3.6-1.5 0.3-0.3 0.5 0l2.1 2q0.1 0.1 0.1 0.3 0 0.1-0.1 0.2-1.3 1.2-3.1 1.8-1.8 0.7-3.9 0.7-2.8 0-4.6-1.1-1.8-1.2-2.4-3.2-0.3-0.8-0.3-2 0-0.7 0.1-1.5 0.1-1.6 0.9-3 1.1-2 3.2-3.2 2.1-1.2 4.7-1.2 3.3 0 5.1 1.6 1.7 1.7 1.7 4.5zm-7.3-2.6q-2.1 0-3 1.7-0.3 0.5-0.4 0.9 0 0.1 0.2 0.1h5.7q0.2 0 0.2-0.1 0-0.4-0.1-0.8-0.2-0.9-0.8-1.4-0.7-0.4-1.8-0.4zm22.5-8.3q0.1-0.1 0.2-0.2 0.1-0.1 0.3-0.1h3.9q0.2 0 0.3 0.1 0.1 0.1 0 0.2l-2.8 19.4q0 0.1-0.2 0.3-0.1 0-0.3 0h-3.9q-0.1 0-0.2 0-0.1-0.2-0.1-0.3l0.1-0.9q0-0.2-0.2-0.1-1.6 1.6-4 1.6-2.3 0-3.8-1.1-1.5-1.2-2-3.1-0.2-0.9-0.2-1.8 0-0.5 0.2-1.7 0.3-2 1.1-3.5 1-1.9 2.8-2.9 1.8-1.1 4.2-1.1 2.4 0 3.5 1.4 0.1 0.1 0.1 0.1 0.1 0 0.2-0.1zm-3 15.2q0.8-1 1.1-2.9 0.1-0.6 0.1-1.2 0-1-0.4-1.8-0.6-1.1-2.1-1.1-1.5 0-2.4 1.1-1 1.1-1.3 3-0.1 0.7-0.1 1 0 1.1 0.4 1.9 0.6 1.2 2.2 1.2 1.5 0 2.5-1.2zm24.6-4.4q0.1 0.9-0.2 2.4-0.1 0.4-0.5 0.4h-10.2q-0.2 0-0.2 0.1 0 0.6 0.2 1.2 0.7 1.6 3.3 1.6 2.1-0.1 3.6-1.5 0.3-0.3 0.5-0.1l2.1 2.1q0.1 0.1 0.1 0.2 0 0.1-0.1 0.2-1.3 1.2-3.1 1.9-1.8 0.6-3.9 0.6-2.8 0-4.6-1.1-1.8-1.1-2.4-3.1-0.3-0.8-0.3-2.1 0-0.7 0.1-1.4 0.1-1.6 0.9-3.1 1.1-2 3.2-3.2 2.1-1.2 4.7-1.2 3.3 0 5 1.7 1.8 1.6 1.8 4.4zm-7.3-2.6q-2.1 0-3 1.7-0.3 0.6-0.4 0.9 0 0.1 0.2 0.1h5.7q0.2 0 0.2-0.1 0-0.3-0.1-0.8-0.2-0.9-0.9-1.3-0.6-0.5-1.7-0.5zm19.7-3.4q1.2 0 1.9 0.4 0.2 0.1 0.1 0.4l-1.2 3.2q-0.1 0.4-0.5 0.3-0.4-0.2-1.1-0.2-0.3 0-0.7 0.1-1.2 0.1-2.2 0.7-0.9 0.7-1.1 1.8l-1.1 7.8q-0.1 0.2-0.2 0.3-0.1 0.1-0.3 0.1h-3.8q-0.2 0-0.3-0.1-0.1-0.1-0.1-0.3l2.1-14q0-0.1 0.1-0.2 0.2-0.1 0.3-0.1h3.9q0.2 0 0.3 0.1 0.1 0.1 0 0.2l-0.1 1.1q0 0.1 0 0.1 0.1 0 0.2 0 1.5-1.7 3.8-1.7zm14 0.5q0-0.1 0.1-0.2 0.1-0.1 0.3-0.1h3.9q0.2 0 0.3 0.1 0.1 0.1 0.1 0.2l-2.1 14q0 0.2-0.2 0.3-0.1 0.1-0.2 0.1h-3.9q-0.2 0-0.3-0.1-0.1-0.1-0.1-0.3l0.2-1.2q0-0.1 0-0.1-0.1 0-0.2 0-1.6 1.9-4.4 1.9-2.2 0-3.7-1.1-1.6-1.2-1.9-3.2-0.1-0.6-0.1-1.2 0-0.9 0.1-2.1 0.4-2.2 1.1-3.7 1-1.7 2.8-2.8 1.8-1.1 4.1-1.1 2.7 0 3.7 1.7 0.1 0.1 0.1 0.1 0.1 0 0.1-0.1zm-1.7 9.4q0.2-0.4 0.4-0.9 0.2-0.6 0.3-1.5 0.1-0.8 0.1-1.3 0-0.5-0.2-1.2-0.1-0.8-0.7-1.2-0.7-0.4-1.6-0.4-1 0-1.8 0.4-0.7 0.5-1.2 1.2-0.5 0.9-0.7 2.5-0.1 0.8-0.1 1.4 0 0.5 0.1 1 0.2 0.8 0.8 1.2 0.7 0.5 1.7 0.5 1 0 1.7-0.5 0.7-0.4 1.2-1.2zm8.2 4.9q-0.2 0-0.3 0-0.1-0.2-0.1-0.3l2.9-19.4q0-0.1 0.1-0.2 0.1-0.1 0.3-0.1h3.9q0.1 0 0.2 0.1 0.1 0.1 0.1 0.2l-2.8 19.4q-0.1 0.1-0.2 0.3-0.1 0-0.3 0zm27-20q3.2 0 5.1 1.5 1.9 1.5 1.9 4.1 0 0.6-0.1 1-0.3 1.9-1.5 3.4-1.3 1.4-3.3 2.2-1.9 0.8-4.3 0.8h-3.5q-0.2 0-0.3 0.2l-0.9 6.4q0 0.2-0.2 0.3-0.1 0.1-0.4 0.1h-5.2q-0.2 0-0.4-0.1-0.1-0.1 0-0.3l2.8-19.2q0-0.2 0.2-0.3 0.1-0.1 0.3-0.1zm-2.2 8.7q1.3 0 2.1-0.6 0.9-0.7 0.9-1.7 0-0.8-0.7-1.3-0.6-0.5-1.8-0.5h-2.7q-0.2 0-0.2 0.2l-0.6 3.8q0 0.1 0.2 0.1zm21.6-3q0.1-0.2 0.2-0.3 0.1-0.1 0.3-0.1h3.8q0.2 0 0.3 0.1 0.1 0.1 0.1 0.3l-2.1 14q0 0.1-0.1 0.3-0.2 0-0.3 0h-3.9q-0.2 0-0.3 0-0.1-0.2 0-0.3l0.1-1q0-0.1-0.1-0.1 0 0-0.1 0.1-1.6 1.5-4.3 1.5-2.3 0-3.7-1.1-1.4-1-1.4-3 0-0.3 0-0.9l1.4-9.5q0.1-0.2 0.2-0.3 0.1-0.1 0.3-0.1h3.8q0.4 0 0.4 0.4l-1.3 8.5q0 0.2 0 0.5 0 1 0.6 1.6 0.6 0.5 1.7 0.5 1.1 0 2-0.6 0.8-0.6 1.1-1.5zm22.7 3.4q0.2 0.9 0.2 2 0 0.7-0.1 1.5-0.4 2-1.1 3.5-1 2-2.9 3.1-1.8 1.1-4.1 1.1-2.4 0-3.6-1.6 0 0-0.1 0-0.1 0-0.1 0.1l-0.1 0.9q-0.1 0.2-0.2 0.3-0.1 0.1-0.3 0.1h-3.8q-0.4 0-0.4-0.4l2.8-19.3q0-0.2 0.2-0.3 0.1-0.1 0.3-0.1h3.9q0.1 0 0.2 0.1 0.1 0.1 0.1 0.3l-0.9 6.1q0 0.1 0 0.1 0.1 0 0.2-0.1 1.5-1.4 3.9-1.4 2.4 0 3.9 1.1 1.5 1.1 2 2.9zm-5.9 6.5q0.9-1.1 1.1-2.9 0.1-0.4 0.1-1.1 0-1.2-0.4-1.9-0.7-1.1-2.2-1.1-1.5 0-2.4 1.1-0.9 1.1-1.2 3-0.1 0.6-0.1 1.2 0 1 0.4 1.7 0.6 1.2 2.1 1.2 1.6 0 2.6-1.2zm8.3 4.5q-0.1 0-0.2-0.1-0.1-0.1-0.1-0.3l2.8-19.3q0-0.2 0.2-0.3 0.1-0.1 0.3-0.1h3.8q0.2 0 0.3 0.1 0.1 0.1 0.1 0.3l-2.8 19.3q-0.1 0.2-0.2 0.3-0.1 0.1-0.3 0.1zm12.6-16.4q-1 0-1.7-0.6-0.6-0.5-0.6-1.4 0-1.1 0.9-1.8 0.8-0.8 2.1-0.8 1 0 1.6 0.6 0.7 0.5 0.7 1.4 0 1.1-0.9 1.8-0.8 0.8-2.1 0.8zm-4.4 16.4q-0.3 0-0.3-0.4l2.1-14q0-0.2 0.1-0.3 0.1-0.1 0.3-0.1h3.9q0.1 0 0.2 0.1 0.1 0.1 0.1 0.3l-2 14q-0.1 0.2-0.2 0.3-0.1 0.1-0.3 0.1zm15.4 0.2q-2.7 0-4.5-1.2-1.7-1.1-2.3-3.1-0.2-0.8-0.2-1.8 0-0.4 0.2-1.6 0.2-1.8 1-3.3 1.1-2 3.2-3.1 2.1-1.1 4.8-1.1 2.6 0 4.5 1.2 1.8 1.1 2.2 2.8 0.1 0.5 0.1 1.1 0 0.1-0.1 0.2-0.1 0.1-0.3 0.2l-3.8 0.4h-0.1q-0.3 0-0.3-0.2l-0.1-0.5q-0.1-0.8-0.8-1.2-0.7-0.5-1.8-0.5-1.1 0-1.9 0.4-0.8 0.5-1.2 1.3-0.5 0.9-0.7 2.3-0.1 0.8-0.1 1.4 0 0.6 0.1 1 0.1 0.8 0.8 1.3 0.6 0.5 1.7 0.5 1.1 0 1.9-0.4 0.9-0.5 1.3-1.4 0-0.1 0-0.1 0.1-0.1 0.1-0.1 0.1-0.4 0.5-0.3l3.7 0.5q0.4 0.1 0.3 0.4-0.1 0.4-0.3 0.8-1 1.9-3.2 3-2.1 1.1-4.7 1.1zm17-0.2q-0.2 0-0.4-0.2-0.1-0.1 0-0.3l2.8-19.2q0-0.2 0.2-0.3 0.1-0.1 0.3-0.1h5.3q0.2 0 0.3 0.1 0.2 0.1 0.1 0.3l-1 6.8q0 0.1 0.1 0.2 0.1 0 0.1-0.1l6.8-7q0.3-0.3 0.7-0.3h5.9q0.4 0 0.4 0.2 0 0.2-0.2 0.3l-8 8.3q-0.2 0.1-0.1 0.2l5.6 10.5q0 0.2 0 0.3 0 0.3-0.4 0.3h-5.9q-0.4 0-0.6-0.3l-3.4-7q-0.1-0.1-0.2-0.1-0.1 0-0.1 0.1l-1.7 1.8q-0.1 0.1-0.1 0.2l-0.7 4.8q0 0.2-0.2 0.3-0.1 0.2-0.4 0.2zm37.4-8.9q0.1 0.9-0.2 2.4-0.1 0.4-0.5 0.4h-10.2q-0.2 0-0.2 0.1 0.1 0.6 0.2 1.1 0.7 1.7 3.3 1.7 2.1-0.1 3.6-1.5 0.3-0.4 0.5-0.1l2.1 2q0.1 0.2 0.1 0.3 0 0.1-0.1 0.2-1.3 1.2-3.1 1.9-1.8 0.6-3.9 0.6-2.8 0-4.6-1.1-1.8-1.1-2.4-3.1-0.3-0.9-0.3-2.1 0-0.7 0.1-1.4 0.1-1.6 0.9-3.1 1.1-2 3.2-3.2 2.1-1.2 4.7-1.2 3.3 0 5.1 1.6 1.7 1.7 1.7 4.5zm-7.3-2.6q-2.1 0-3 1.7-0.3 0.5-0.4 0.9 0 0.1 0.2 0.1h5.7q0.2 0 0.2-0.1 0-0.4-0.1-0.8-0.2-0.9-0.8-1.3-0.7-0.5-1.8-0.5zm7.2 17.2q-0.2 0-0.2-0.4l0.4-2.6q0-0.2 0.1-0.2 0.2-0.2 0.3-0.2 2.1 0 3-0.4 1-0.5 1.6-1.9 0.1 0 0.1-0.1l-3.4-14.3v-0.1q0-0.3 0.4-0.3h4.1q0.4 0 0.5 0.3l1.4 9.3q0 0.1 0.1 0.1 0 0 0.1-0.1l4.1-9.3q0.1-0.3 0.5-0.3h4.1q0.2 0 0.3 0.1 0 0.1-0.1 0.3l-7.9 14.9q-1.1 2.1-2.2 3.2-1 1-2.6 1.5-1.6 0.5-4.5 0.5zm24.3-5.7q-0.2 0-0.3-0.2-0.1-0.1-0.1-0.3l2.8-19.2q0.1-0.2 0.2-0.3 0.1-0.1 0.4-0.1h5.2q0.2 0 0.3 0.1 0.2 0.1 0.1 0.3l-2.8 19.2q0 0.2-0.2 0.3-0.1 0.2-0.3 0.2zm19.8-15q2.4 0 3.8 1.2 1.4 1.1 1.4 3.1 0 0.3-0.1 0.9l-1.4 9.4q0 0.2-0.1 0.3-0.1 0.1-0.3 0.1h-3.9q-0.3 0-0.3-0.4l1.2-8.5q0.1-0.2 0.1-0.5 0-1-0.7-1.5-0.6-0.6-1.7-0.6-1.2 0-2.1 0.7-0.8 0.7-1 1.9l-1.3 8.5q0 0.2-0.1 0.3-0.1 0.1-0.3 0.1h-3.9q-0.1 0-0.3-0.1-0.1-0.1 0-0.3l2-14q0.1-0.2 0.2-0.2 0.1-0.2 0.3-0.2h3.8q0.2 0 0.3 0.2 0.1 0 0.1 0.2l-0.2 1q0 0.1 0.1 0.1 0 0 0.1 0 1.6-1.7 4.3-1.7zm18.9 0.2q0.2 0 0.3 0.1 0.1 0.1 0.1 0.3l-0.4 2.7q-0.1 0.1-0.2 0.2-0.1 0.1-0.3 0.1h-3.2q-0.1 0-0.2 0.2l-1.6 10.8q0 0.2-0.2 0.3-0.1 0.1-0.2 0.1h-3.9q-0.2 0-0.3-0.1-0.1-0.1-0.1-0.3l1.6-10.8q0-0.2-0.1-0.2h-2q-0.1 0-0.3-0.1-0.1-0.1 0-0.2l0.4-2.7q0-0.2 0.1-0.3 0.2-0.1 0.3-0.1h2q0.2 0 0.2-0.1l0.1-0.7q0.2-1.7 1-2.7 0.8-1 2.2-1.4 1.5-0.4 4-0.4h1.2q0.4 0 0.4 0.4l-0.3 2.3q-0.1 0.1-0.2 0.2-0.1 0.1-0.3 0.1h-1.1q-1.2 0-1.7 0.4-0.5 0.4-0.6 1.5l-0.1 0.3q0 0.1 0.2 0.1zm11.6-0.2q1.2 0 1.8 0.4 0.3 0.2 0.2 0.5l-1.2 3.2q-0.1 0.4-0.5 0.2-0.4-0.1-1.2-0.1-0.2 0-0.7 0-1.2 0.1-2.1 0.8-1 0.7-1.1 1.8l-1.2 7.8q0 0.2-0.1 0.3-0.1 0.1-0.3 0.1h-3.9q-0.1 0-0.2-0.1-0.1-0.1-0.1-0.3l2-14q0.1-0.2 0.2-0.2 0.1-0.2 0.3-0.2h3.9q0.1 0 0.2 0.2 0.1 0 0.1 0.2l-0.1 1.1q-0.1 0.1 0 0.1 0.1 0 0.1 0 1.6-1.8 3.9-1.8zm13.9 0.6q0.1-0.2 0.2-0.2 0.1-0.2 0.3-0.2h3.9q0.1 0 0.3 0.2 0.1 0 0 0.2l-2 14q-0.1 0.2-0.2 0.3-0.1 0.1-0.3 0.1h-3.9q-0.1 0-0.2-0.1-0.1-0.1-0.1-0.3l0.2-1.2q0-0.1-0.1-0.1 0-0.1-0.1 0-1.7 1.9-4.5 1.9-2.1 0-3.7-1.2-1.5-1.1-1.9-3.1-0.1-0.6-0.1-1.2 0-0.9 0.2-2.1 0.3-2.3 1.1-3.7 0.9-1.7 2.7-2.8 1.9-1.1 4.2-1.1 2.7 0 3.7 1.7 0.1 0.1 0.1 0.1 0.1 0 0.1-0.2zm-1.8 9.5q0.3-0.4 0.5-1 0.1-0.5 0.3-1.4 0.1-0.8 0.1-1.4 0-0.4-0.2-1.1-0.2-0.8-0.8-1.2-0.6-0.5-1.6-0.5-0.9 0-1.7 0.5-0.8 0.5-1.2 1.2-0.5 0.9-0.7 2.5-0.2 0.8-0.2 1.4 0 0.5 0.2 1 0.2 0.8 0.8 1.2 0.7 0.5 1.7 0.5 0.9 0 1.7-0.5 0.7-0.4 1.1-1.2zm14.6 5.1q-3.2 0-5-1-1.8-1.1-1.8-2.8 0-0.3 0.1-0.4v-0.3q0-0.2 0.1-0.3 0.2-0.1 0.3-0.1h3.7q0.2 0 0.3 0.1 0.1 0.1 0.1 0.3-0.1 0.6 0.6 1.1 0.8 0.4 2 0.4 1.2 0 1.9-0.4 0.8-0.4 0.8-1 0-0.5-0.6-0.7-0.6-0.3-1.8-0.6-1.5-0.3-2.3-0.6-1.9-0.6-3-1.4-1.1-0.8-1.1-2.2 0-1.6 1-2.8 1-1.1 2.8-1.8 1.7-0.6 3.9-0.6 3 0 4.7 1.1 1.7 1.2 1.7 3 0 0.4 0 0.5 0 0.2-0.2 0.3-0.1 0.1-0.3 0.1h-3.5q-0.2 0-0.3-0.1-0.1-0.1 0-0.3 0-0.6-0.7-1-0.6-0.5-1.8-0.5-1.2 0-2 0.4-0.7 0.4-0.7 1.1 0 0.5 0.6 0.8 0.7 0.2 2.1 0.5 1.3 0.3 1.8 0.4 2.1 0.6 3.2 1.4 1.2 0.9 1.2 2.4 0 0.3 0 0.5-0.3 2.1-2.5 3.3-2.1 1.2-5.3 1.2zm21.3-12q0 0.1-0.1 0.2-0.1 0.1-0.3 0.1h-3.2q-0.1 0-0.2 0.2l-0.9 6q0 0.2 0 0.5 0 1.4 1.6 1.4h1.1q0.2 0 0.3 0.1 0.1 0.1 0.1 0.3l-0.4 2.7q-0.1 0.3-0.5 0.3-1.3 0.1-2 0.1-2.5 0-3.8-0.6-1.2-0.7-1.2-2.4 0-0.2 0.1-0.7l1.1-7.7q0.1-0.2-0.1-0.2h-1.9q-0.2 0-0.3-0.1-0.1-0.1-0.1-0.2l0.4-2.6q0-0.1 0.2-0.2 0.1-0.1 0.3-0.1h1.8q0.2 0 0.2-0.1l0.5-3.5q0.1-0.1 0.2-0.2 0.1-0.1 0.3-0.1h3.7q0.2 0 0.3 0.1 0.1 0.1 0 0.2l-0.5 3.5q0 0.1 0.2 0.1h3.2q0.2 0 0.3 0.1 0.1 0.1 0 0.2zm11.8-3.1q1.2 0 1.8 0.4 0.3 0.2 0.2 0.5l-1.2 3.2q-0.1 0.4-0.5 0.2-0.5-0.1-1.2-0.1-0.2 0-0.7 0.1-1.2 0-2.1 0.7-1 0.7-1.1 1.8l-1.2 7.8q0 0.2-0.1 0.3-0.1 0.1-0.3 0.1h-3.9q-0.1 0-0.2-0.1-0.2-0.1-0.1-0.3l2-14q0.1-0.2 0.2-0.2 0.1-0.2 0.3-0.2h3.8q0.2 0 0.3 0.2 0.1 0 0.1 0.2l-0.2 1.1q0 0.1 0.1 0.1 0 0 0.1 0 1.6-1.8 3.9-1.8zm14.1 0.6q0-0.2 0.1-0.2 0.2-0.2 0.3-0.2h3.9q0.2 0 0.3 0.2 0.1 0 0 0.2l-2 14q0 0.2-0.2 0.3-0.1 0.1-0.3 0.1h-3.8q-0.2 0-0.3-0.1-0.1-0.1-0.1-0.3l0.2-0.9q0-0.1-0.1-0.1-0.1-0.1-0.1 0-1.6 1.6-4.4 1.6-2.3 0-3.7-1.1-1.4-1.1-1.4-3.1 0-0.3 0.1-0.8l1.4-9.6q0-0.2 0.1-0.2 0.2-0.2 0.4-0.2h3.8q0.4 0 0.4 0.4l-1.3 8.6q0 0.1 0 0.4 0 1 0.6 1.6 0.6 0.5 1.7 0.5 1.1 0 1.9-0.5 0.9-0.6 1.2-1.6zm13.4 14.6q-2.6 0-4.4-1.1-1.8-1.2-2.3-3.2-0.2-0.8-0.2-1.7 0-0.5 0.1-1.7 0.3-1.8 1.1-3.3 1-1.9 3.2-3 2.1-1.2 4.7-1.2 2.7 0 4.5 1.2 1.8 1.1 2.2 2.9 0.2 0.4 0.2 1 0 0.2-0.2 0.3-0.1 0.1-0.2 0.1l-3.9 0.5h-0.1q-0.3 0-0.3-0.3v-0.5q-0.2-0.7-0.9-1.2-0.7-0.5-1.8-0.5-1.1 0-1.9 0.5-0.8 0.4-1.2 1.2-0.5 0.9-0.7 2.4-0.1 0.7-0.1 1.3 0 0.6 0.1 1 0.2 0.9 0.8 1.4 0.7 0.5 1.8 0.5 1 0 1.9-0.5 0.8-0.5 1.2-1.3 0.1-0.1 0.1-0.2 0 0 0-0.1 0.1-0.3 0.5-0.3l3.8 0.6q0.3 0 0.3 0.3-0.2 0.5-0.4 0.8-1 1.9-3.1 3-2.2 1.1-4.8 1.1zm21.9-12q-0.1 0.1-0.2 0.2-0.1 0.1-0.3 0.1h-3.2q-0.1 0-0.2 0.2l-0.8 6q-0.1 0.2-0.1 0.5 0 1.4 1.7 1.4h1.1q0.1 0 0.2 0.1 0.2 0.1 0.1 0.2l-0.4 2.8q-0.1 0.3-0.4 0.3-1.4 0.1-2 0.1-2.6 0-3.8-0.7-1.3-0.6-1.3-2.3 0-0.3 0.1-0.8l1.1-7.6q0.1-0.2-0.1-0.2h-1.9q-0.2 0-0.3-0.1-0.1-0.1 0-0.2l0.3-2.6q0-0.1 0.2-0.2 0.1-0.1 0.3-0.1h1.9q0.1 0 0.1-0.2l0.6-3.4q0-0.1 0.1-0.2 0.1-0.1 0.3-0.1h3.7q0.2 0 0.3 0.1 0.1 0.1 0.1 0.2l-0.5 3.4q0 0.2 0.1 0.2h3.2q0.2 0 0.3 0.1 0.1 0.1 0 0.2zm13.2-2.5q0-0.2 0.1-0.3 0.2-0.1 0.3-0.1h3.9q0.2 0 0.3 0.1 0.1 0.1 0 0.3l-2 14q0 0.1-0.2 0.3-0.1 0-0.2 0h-3.9q-0.2 0-0.3 0-0.1-0.2 0-0.3l0.1-1q0-0.1-0.1-0.1 0 0-0.1 0.1-1.6 1.5-4.4 1.5-2.2 0-3.6-1-1.5-1.1-1.5-3.1 0-0.3 0.1-0.9l1.4-9.5q0.1-0.2 0.2-0.3 0.1-0.1 0.3-0.1h3.8q0.4 0 0.4 0.4l-1.3 8.5q0 0.2 0 0.5 0 1 0.6 1.6 0.6 0.5 1.7 0.5 1.1 0 1.9-0.6 0.9-0.6 1.2-1.5zm16.6-0.6q1.2 0 1.9 0.4 0.2 0.2 0.1 0.5l-1.2 3.2q-0.1 0.4-0.5 0.2-0.4-0.1-1.1-0.1-0.3 0-0.8 0.1-1.2 0-2.1 0.7-0.9 0.7-1.1 1.8l-1.1 7.8q-0.1 0.2-0.2 0.3-0.1 0.1-0.3 0.1h-3.8q-0.2 0-0.3-0.1-0.1-0.1-0.1-0.3l2.1-14q0-0.2 0.1-0.2 0.1-0.2 0.3-0.2h3.9q0.1 0 0.2 0.2 0.2 0 0.1 0.2l-0.1 1.1q-0.1 0.1 0 0.1 0.1 0 0.2 0 1.5-1.8 3.8-1.8zm18 6.1q0 0.9-0.2 2.4-0.1 0.4-0.5 0.4h-10.2q-0.2 0-0.2 0.1 0 0.6 0.2 1.2 0.7 1.6 3.3 1.6 2.1-0.1 3.6-1.5 0.2-0.3 0.5-0.1l2.1 2q0.1 0.2 0.1 0.3 0 0.1-0.1 0.2-1.3 1.2-3.2 1.9-1.8 0.6-3.8 0.6-2.9 0-4.7-1.1-1.8-1.1-2.4-3.1-0.2-0.8-0.2-2.1 0-0.7 0.1-1.4 0.1-1.6 0.9-3.1 1.1-2 3.1-3.2 2.2-1.2 4.8-1.2 3.3 0 5 1.6 1.8 1.7 1.8 4.5zm-7.3-2.6q-2.1 0-3 1.7-0.3 0.5-0.4 0.9 0 0.1 0.1 0.1h5.8q0.1 0 0.1-0.1 0-0.4 0-0.8-0.2-0.9-0.9-1.3-0.6-0.5-1.7-0.5z"/><path fill-rule="evenodd" class="b" d="m197.3 0.8c3.9 0.2 7.8 0.5 8.4 0.8 0.7 0.2 1.1 1.4 0.9 2.6-0.2 1.3-2 7.7-4.1 14.3-2 6.6-4.1 13.4-4.6 15-0.4 1.6-1.7 6.1-2.8 10-1.1 3.9-2.9 9.9-4 13.5-1 3.6-3.3 11.2-5 17-1.7 5.8-3.5 11.8-4 13.5-0.5 1.7-2.9 9.8-5.4 18-2.5 8.3-5.7 19.1-7.1 24-1.4 4.9-3.6 12.4-4.8 16.5-1.3 4.1-2.7 8.1-3.1 8.8-0.5 0.9-9.4 1.2-77.2 1.2l0.7-5.2c0.5-2.9 4.2-17.7 8.4-32.8 4.2-15.1 8.1-28.1 8.8-28.8 0.6-0.7 2.6-1.3 4.3-1.2 3.1 0 3.4-0.3 5.3-9h11.5l-1.5 9h19l2-4.5c1.1-2.5 1.8-5 1.5-5.5-0.3-0.6-2.8-1-5.5-1-4.1 0-5-0.3-5-1.8 0.1-0.9 1-2.7 2-4 1.6-1.7 3.1-2.2 7-2.2 4.2 0 5.1-0.3 5.5-2 0.3-1.1 0.3-2.5 0-3-0.3-0.6-3.4-1-7-1-5.3 0-6.6-0.3-7.1-1.8-0.3-0.9 0-3 0.7-4.5 1.3-2.7 1.7-2.8 8.9-2.8 5.1 0.1 8.8-0.5 11.5-1.7 2.2-1 4.9-3.1 6-4.8 1.2-1.6 2.6-4.1 3.3-5.7 0.7-1.5 0.9-2.9 0.4-3.2-0.4-0.3-5.6-0.5-22.7-0.5l-1.5 4.2c-1.5 4.2-1.6 4.3-11 4.8v-4.5c0-4.3-0.1-4.5-3-4.5-2.9 0-3.1 0.3-5 7-1.1 3.8-2 7.4-2 8 0 0.5-0.7 2.8-1.5 5-1.4 3.7-1.8 4-5.5 4-3.2 0-4-0.4-4-1.8 0-0.9 0.9-5.5 2-10.2 1.1-4.7 2-9.3 2-10.3 0-1.4-0.7-1.7-3.7-1.5-3.6 0.3-3.8 0.5-5.6 6.3-1.1 3.3-2.3 7.3-2.7 9-0.5 1.6-1.7 6.4-2.8 10.5-1.1 4.1-3.4 12.7-5.2 19-1.8 6.3-4 14.4-5 18-1.1 3.6-4.4 15.7-7.5 27-3.1 11.3-6.2 22.1-8.1 27.5l-36.2 0.2c-35.6 0.3-36.2 0.3-36.2-1.7 0-1.1 0.9-5 2.1-8.8 1.1-3.7 3.6-10.5 5.4-15.2 1.8-4.7 5.3-12.8 7.7-18 2.5-5.2 7.3-14.2 10.8-20 3.5-5.8 9.7-14.8 13.8-20 4.2-5.2 11.2-13 15.6-17.4 4.5-4.3 11.8-10.6 16.3-14 4.4-3.3 11.9-8.3 16.5-11.1 4.5-2.7 13.5-7.2 19.8-10.1 6.3-2.8 14.9-6.1 19-7.4 4.1-1.2 10.2-2.9 13.5-3.7 3.3-0.8 10.7-2.3 16.5-3.4 5.8-1.1 15.2-2.4 21-3 5.8-0.5 10.8-1.1 11.3-1.2 0.4-0.1 4-0.1 8 0.1zm142.8 1.2h45.4c43 0 45.8 0.1 51.7 2 3.5 1.1 8 3.4 10 5 2.6 2.1 4.4 4.7 5.8 8.5 1.1 3 2 6.8 2 8.5 0 1.6-1 7.2-2.1 12.2-1.2 5.1-3.5 12-5.2 15.3-1.6 3.3-4.4 8-6.1 10.5-1.7 2.5-4.2 5.6-5.6 7-1.4 1.4-4.3 3.8-6.5 5.4-2.2 1.7-7.2 4.3-11 5.9-6.7 2.8-7.8 3-28.5 3.7-11.8 0.4-22.1 0.6-22.8 0.4-0.6-0.2-1.8 0.8-2.6 2.3-0.8 1.6-1.7 4.6-2.2 6.8-0.4 2.2-1.6 6.2-2.6 9-1.1 2.7-2.1 5.9-2.2 7-0.2 1.1-0.9 3.2-2.6 7.5h-23.5c-20 0-23.6-0.2-24-1.5-0.3-0.8 0.9-6.3 2.5-12.3 1.7-5.9 3.8-13.2 4.6-16.2 0.9-3 2.4-8.2 3.4-11.5 1-3.3 4.1-14.3 7-24.5 2.9-10.2 6.9-24.8 8.9-32.5 2.1-7.7 4.3-15 5-16.3zm36.3 44.8c-1.6 5.7-2.7 10.5-2.4 10.8 0.3 0.3 3 0.5 6 0.5 3 0 7.8-0.7 10.5-1.5 2.8-0.8 6.2-2.7 7.7-4.3 1.5-1.5 3.3-4.8 4.2-7.3 1.1-3.5 1.2-4.9 0.3-6.7-0.9-1.6-2.7-2.4-6.7-3.2-3-0.6-7.6-1-10.2-0.9-2.7 0.1-5.2 0.6-5.7 1.2-0.5 0.6-2.2 5.8-3.7 11.4zm125.7-44.8c19.5 0 23 0.3 23.4 1.5 0.3 0.9-0.4 4.8-1.6 8.8-1.2 4-3.4 11.5-5.1 16.7-1.6 5.3-2.8 9.9-2.6 10.4 0.2 0.5 4.6-3.8 9.8-9.4 5.2-5.7 13.3-14.3 26.5-28h28.3c24.4 0 28.2 0.3 28.2 1.5 0 0.9-1.6 3-3.5 4.8-2 1.8-14.2 13.1-27.3 25.2-13.1 12.1-24.7 23.3-26 24.8-2 2.5-2 3-0.9 5.5 0.8 1.5 4.2 8.2 7.7 14.7 3.4 6.6 8.6 16.5 11.6 22 2.9 5.5 6 11.4 6.8 13 1.2 2.4 1.3 3.3 0.3 4.3-0.9 1-7.5 1.3-28.7 1.3-21.2 0-27.7-0.3-28.6-1.3-0.7-0.7-3.1-6.2-5.4-12.3-2.3-6-5.4-14.2-6.8-18.2-1.5-4-3-7.3-3.4-7.3-0.4 0-1 1.3-1.3 2.8-0.3 1.5-2.4 9.5-4.6 17.7-2.3 8.3-4.5 15.8-5 16.8-0.8 1.6-2.9 1.7-23.1 1.7-12.3 0-23-0.4-23.8-0.9-1.3-0.8-1-2.7 2.4-13.7 2.1-7.1 4.9-17.1 6.2-22.4 1.4-5.2 4-14.9 5.9-21.5 2-6.6 4-13.8 4.6-16 0.6-2.2 1.5-5.1 1.9-6.5 0.5-1.3 2.8-9.4 5.1-18 2.3-8.5 4.7-16 5.2-16.7 0.7-0.9 6.7-1.3 23.8-1.3zm141.6 0c21.3 0 23.4 0.2 24 1.8 0.3 1 0.1 3.5-0.5 5.7-0.6 2.2-2.8 10.6-5.1 18.5-2.2 8-5 18.4-6.4 23-1.3 4.7-2.8 9.4-3.4 10.5-0.5 1.1-2.5 8.1-4.3 15.5-1.8 7.5-4.1 16-5 19-0.9 3.1-2.7 9.1-3.9 13.5-1.3 4.4-2.8 8.4-3.4 8.8-0.7 0.4-11.3 0.7-23.7 0.8-16.9 0-22.8-0.3-23.6-1.3-0.9-1-0.5-3.7 1.7-11.8 1.6-5.7 3.8-13.6 4.8-17.5 1.1-3.8 2.9-9.9 4-13.5 1.1-3.5 3.6-12.8 5.6-20.5 2.1-7.7 5-18 6.5-23 1.5-4.9 3.7-12.4 4.9-16.7 1.2-4.3 2-8.3 1.9-9.1-0.1-0.7 0.4-1.8 1.2-2.5 1-0.8 8-1.2 24.7-1.2z"/><path class="a" d="m220 2h49.7c27.4 0 50.3 0.4 51 0.8 0.8 0.5 0.1 4.6-2.6 15.2-2.1 8-4.3 16.1-5.7 21.5l-54.4 0.5-1.1 4.3c-0.5 2.3-1.2 5-1.5 6-0.4 1.6 1.3 1.7 24.8 1.7 13.9 0 25.9 0.4 26.6 0.8 1 0.6 0.8 2.7-1.3 10.7-1.4 5.5-3.6 12.8-7 22.5h-53.5l-1 4.3c-0.6 2.3-2.5 9.1-4.3 15.2-1.8 6-3.8 11.5-4.5 12.2-1 1-6.7 1.3-23 1.3-11.9 0-22.3-0.4-22.9-0.8-1-0.5-1.1-2-0.3-6.2 0.6-3 2-8.9 3.1-13 1.1-4.1 6.5-23.5 12-43 5.5-19.5 10.9-38.6 12.1-42.5 1.1-3.8 2.4-8 2.9-9.2z"/></svg>