<svg xmlns="http://www.w3.org/2000/svg" viewBox="0 0 668 161"><style>.a{fill:#2a3451}</style><path d="M199.7 139.1q0 .2-.2.3-.1.2-.3.2h-9.9q-.1 0-.2.1l-.4 2.7q0 .1.2.1h6.1q.2 0 .3.2.1.1.1.3l-.5 3.7q-.1.2-.2.3t-.4.1h-6.1q-.2 0-.2.2l-1.1 7.3q0 .2-.2.3-.1.1-.3.1h-5.3q-.2 0-.3-.1-.2-.1-.1-.3l2.8-19.2q.1-.2.2-.3.1-.2.4-.2h15.8q.2 0 .3.2.1.1.1.3zm16 7q.1.9-.2 2.4-.1.3-.5.3h-10.2q-.2 0-.2.2.1.6.2 1.1.7 1.6 3.3 1.6 2.1 0 3.6-1.5.3-.3.5 0l2.1 2q.1.1.1.3 0 .1-.1.2-1.3 1.2-3.1 1.8-1.8.7-3.9.7-2.8 0-4.6-1.1-1.8-1.2-2.4-3.2-.3-.8-.3-2 0-.7.1-1.5.1-1.6.9-3 1.1-2 3.2-3.2t4.7-1.2q3.3 0 5.1 1.6 1.7 1.7 1.7 4.5m-7.3-2.6q-2.1 0-3 1.7-.3.5-.4.9 0 .1.2.1h5.7q.2 0 .2-.1 0-.4-.1-.8-.2-.9-.8-1.4-.7-.4-1.8-.4m22.5-8.3.2-.2q.1-.1.3-.1h3.9q.2 0 .3.1t0 .2l-2.8 19.4q0 .1-.2.3h-4.4q-.1-.2-.1-.3l.1-.9q0-.2-.2-.1-1.6 1.6-4 1.6-2.3 0-3.8-1.1-1.5-1.2-2-3.1-.2-.9-.2-1.8 0-.5.2-1.7.3-2 1.1-3.5 1-1.9 2.8-2.9 1.8-1.1 4.2-1.1t3.5 1.4l.1.1q.1 0 .2-.1zm-3 15.2q.8-1 1.1-2.9.1-.6.1-1.2 0-1-.4-1.8-.6-1.1-2.1-1.1t-2.4 1.1q-1 1.1-1.3 3-.1.7-.1 1 0 1.1.4 1.9.6 1.2 2.2 1.2 1.5 0 2.5-1.2m24.6-4.4q.1.9-.2 2.4-.1.4-.5.4h-10.2q-.2 0-.2.1 0 .6.2 1.2.7 1.6 3.3 1.6 2.1-.1 3.6-1.5.3-.3.5-.1l2.1 2.1q.1.1.1.2t-.1.2q-1.3 1.2-3.1 1.9-1.8.6-3.9.6-2.8 0-4.6-1.1t-2.4-3.1q-.3-.8-.3-2.1 0-.7.1-1.4.1-1.6.9-3.1 1.1-2 3.2-3.2t4.7-1.2q3.3 0 5 1.7 1.8 1.6 1.8 4.4m-7.3-2.6q-2.1 0-3 1.7-.3.6-.4.9 0 .1.2.1h5.7q.2 0 .2-.1 0-.3-.1-.8-.2-.9-.9-1.3-.6-.5-1.7-.5m19.7-3.4q1.2 0 1.9.4.2.1.1.4l-1.2 3.2q-.1.4-.5.3-.4-.2-1.1-.2-.3 0-.7.1-1.2.1-2.2.7-.9.7-1.1 1.8l-1.1 7.8q-.1.2-.2.3t-.3.1h-3.8q-.2 0-.3-.1t-.1-.3l2.1-14q0-.1.1-.2.2-.1.3-.1h3.9q.2 0 .3.1t0 .2l-.1 1.1v.1h.2q1.5-1.7 3.8-1.7m14 .5q0-.1.1-.2t.3-.1h3.9q.2 0 .3.1t.1.2l-2.1 14q0 .2-.2.3-.1.1-.2.1h-3.9q-.2 0-.3-.1t-.1-.3l.2-1.2v-.1h-.2q-1.6 1.9-4.4 1.9-2.2 0-3.7-1.1-1.6-1.2-1.9-3.2-.1-.6-.1-1.2 0-.9.1-2.1.4-2.2 1.1-3.7 1-1.7 2.8-2.8t4.1-1.1q2.7 0 3.7 1.7l.1.1q.1 0 .1-.1zm-1.7 9.4q.2-.4.4-.9.2-.6.3-1.5.1-.8.1-1.3t-.2-1.2q-.1-.8-.7-1.2-.7-.4-1.6-.4-1 0-1.8.4-.7.5-1.2 1.2-.5.9-.7 2.5-.1.8-.1 1.4 0 .5.1 1 .2.8.8 1.2.7.5 1.7.5t1.7-.5q.7-.4 1.2-1.2m8.2 4.9h-.3q-.1-.2-.1-.3l2.9-19.4q0-.1.1-.2t.3-.1h3.9q.1 0 .2.1t.1.2l-2.8 19.4q-.1.1-.2.3h-.3zm27-20q3.2 0 5.1 1.5t1.9 4.1q0 .6-.1 1-.3 1.9-1.5 3.4-1.3 1.4-3.3 2.2-1.9.8-4.3.8h-3.5q-.2 0-.3.2l-.9 6.4q0 .2-.2.3-.1.1-.4.1h-5.2q-.2 0-.4-.1-.1-.1 0-.3l2.8-19.2q0-.2.2-.3.1-.1.3-.1zm-2.2 8.7q1.3 0 2.1-.6.9-.7.9-1.7 0-.8-.7-1.3-.6-.5-1.8-.5H308q-.2 0-.2.2l-.6 3.8q0 .1.2.1zm21.6-3q.1-.2.2-.3t.3-.1h3.8q.2 0 .3.1t.1.3l-2.1 14q0 .1-.1.3h-4.5q-.1-.2 0-.3l.1-1q0-.1-.1-.1l-.1.1q-1.6 1.5-4.3 1.5-2.3 0-3.7-1.1-1.4-1-1.4-3v-.9l1.4-9.5q.1-.2.2-.3t.3-.1h3.8q.4 0 .4.4l-1.3 8.5v.5q0 1 .6 1.6.6.5 1.7.5t2-.6q.8-.6 1.1-1.5zm22.7 3.4q.2.9.2 2 0 .7-.1 1.5-.4 2-1.1 3.5-1 2-2.9 3.1-1.8 1.1-4.1 1.1-2.4 0-3.6-1.6h-.1q-.1 0-.1.1l-.1.9q-.1.2-.2.3t-.3.1h-3.8q-.4 0-.4-.4l2.8-19.3q0-.2.2-.3.1-.1.3-.1h3.9q.1 0 .2.1t.1.3l-.9 6.1v.1q.1 0 .2-.1 1.5-1.4 3.9-1.4t3.9 1.1 2 2.9m-5.9 6.5q.9-1.1 1.1-2.9.1-.4.1-1.1 0-1.2-.4-1.9-.7-1.1-2.2-1.1t-2.4 1.1-1.2 3q-.1.6-.1 1.2 0 1 .4 1.7.6 1.2 2.1 1.2 1.6 0 2.6-1.2m8.3 4.5q-.1 0-.2-.1t-.1-.3l2.8-19.3q0-.2.2-.3.1-.1.3-.1h3.8q.2 0 .3.1t.1.3l-2.8 19.3q-.1.2-.2.3t-.3.1zm12.6-16.4q-1 0-1.7-.6-.6-.5-.6-1.4 0-1.1.9-1.8.8-.8 2.1-.8 1 0 1.6.6.7.5.7 1.4 0 1.1-.9 1.8-.8.8-2.1.8m-4.4 16.4q-.3 0-.3-.4l2.1-14q0-.2.1-.3t.3-.1h3.9q.1 0 .2.1t.1.3l-2 14q-.1.2-.2.3t-.3.1zm15.4.2q-2.7 0-4.5-1.2-1.7-1.1-2.3-3.1-.2-.8-.2-1.8 0-.4.2-1.6.2-1.8 1-3.3 1.1-2 3.2-3.1t4.8-1.1q2.6 0 4.5 1.2 1.8 1.1 2.2 2.8.1.5.1 1.1 0 .1-.1.2t-.3.2l-3.8.4h-.1q-.3 0-.3-.2l-.1-.5q-.1-.8-.8-1.2-.7-.5-1.8-.5t-1.9.4q-.8.5-1.2 1.3-.5.9-.7 2.3-.1.8-.1 1.4t.1 1q.1.8.8 1.3.6.5 1.7.5t1.9-.4q.9-.5 1.3-1.4v-.1l.1-.1q.1-.4.5-.3l3.7.5q.4.1.3.4-.1.4-.3.8-1 1.9-3.2 3-2.1 1.1-4.7 1.1m17-.2q-.2 0-.4-.2-.1-.1 0-.3l2.8-19.2q0-.2.2-.3.1-.1.3-.1h5.3q.2 0 .3.1.2.1.1.3l-1 6.8q0 .1.1.2.1 0 .1-.1l6.8-7q.3-.3.7-.3h5.9q.4 0 .4.2t-.2.3l-8 8.3q-.2.1-.1.2l5.6 10.5v.3q0 .3-.4.3h-5.9q-.4 0-.6-.3l-3.4-7q-.1-.1-.2-.1t-.1.1l-1.7 1.8q-.1.1-.1.2l-.7 4.8q0 .2-.2.3-.1.2-.4.2zm37.4-8.9q.1.9-.2 2.4-.1.4-.5.4H424q-.2 0-.2.1.1.6.2 1.1.7 1.7 3.3 1.7 2.1-.1 3.6-1.5.3-.4.5-.1l2.1 2q.1.2.1.3t-.1.2q-1.3 1.2-3.1 1.9-1.8.6-3.9.6-2.8 0-4.6-1.1t-2.4-3.1q-.3-.9-.3-2.1 0-.7.1-1.4.1-1.6.9-3.1 1.1-2 3.2-3.2t4.7-1.2q3.3 0 5.1 1.6 1.7 1.7 1.7 4.5m-7.3-2.6q-2.1 0-3 1.7-.3.5-.4.9 0 .1.2.1h5.7q.2 0 .2-.1 0-.4-.1-.8-.2-.9-.8-1.3-.7-.5-1.8-.5m7.2 17.2q-.2 0-.2-.4l.4-2.6q0-.2.1-.2.2-.2.3-.2 2.1 0 3-.4 1-.5 1.6-1.9.1 0 .1-.1l-3.4-14.3v-.1q0-.3.4-.3h4.1q.4 0 .5.3l1.4 9.3q0 .1.1.1l.1-.1 4.1-9.3q.1-.3.5-.3h4.1q.2 0 .3.1 0 .1-.1.3l-7.9 14.9q-1.1 2.1-2.2 3.2-1 1-2.6 1.5t-4.5.5zm24.3-5.7q-.2 0-.3-.2-.1-.1-.1-.3l2.8-19.2q.1-.2.2-.3t.4-.1h5.2q.2 0 .3.1.2.1.1.3l-2.8 19.2q0 .2-.2.3-.1.2-.3.2zm19.8-15q2.4 0 3.8 1.2 1.4 1.1 1.4 3.1 0 .3-.1.9l-1.4 9.4q0 .2-.1.3t-.3.1h-3.9q-.3 0-.3-.4l1.2-8.5q.1-.2.1-.5 0-1-.7-1.5-.6-.6-1.7-.6-1.2 0-2.1.7-.8.7-1 1.9l-1.3 8.5q0 .2-.1.3t-.3.1h-3.9q-.1 0-.3-.1-.1-.1 0-.3l2-14q.1-.2.2-.2.1-.2.3-.2h3.8q.2 0 .3.2.1 0 .1.2l-.2 1q0 .1.1.1h.1q1.6-1.7 4.3-1.7m18.9.2q.2 0 .3.1t.1.3l-.4 2.7-.2.2q-.1.1-.3.1h-3.2q-.1 0-.2.2l-1.6 10.8q0 .2-.2.3-.1.1-.2.1H488q-.2 0-.3-.1t-.1-.3l1.6-10.8q0-.2-.1-.2h-2q-.1 0-.3-.1-.1-.1 0-.2l.4-2.7q0-.2.1-.3.2-.1.3-.1h2q.2 0 .2-.1l.1-.7q.2-1.7 1-2.7t2.2-1.4q1.5-.4 4-.4h1.2q.4 0 .4.4l-.3 2.3-.2.2q-.1.1-.3.1h-1.1q-1.2 0-1.7.4t-.6 1.5l-.1.3q0 .1.2.1zm11.6-.2q1.2 0 1.8.4.3.2.2.5l-1.2 3.2q-.1.4-.5.2-.4-.1-1.2-.1h-.7q-1.2.1-2.1.8-1 .7-1.1 1.8l-1.2 7.8q0 .2-.1.3t-.3.1h-3.9q-.1 0-.2-.1t-.1-.3l2-14q.1-.2.2-.2.1-.2.3-.2h3.9q.1 0 .2.2.1 0 .1.2l-.1 1.1q-.1.1 0 .1h.1q1.6-1.8 3.9-1.8m13.9.6q.1-.2.2-.2.1-.2.3-.2h3.9q.1 0 .3.2.1 0 0 .2l-2 14q-.1.2-.2.3t-.3.1h-3.9q-.1 0-.2-.1t-.1-.3l.2-1.2q0-.1-.1-.1 0-.1-.1 0-1.7 1.9-4.5 1.9-2.1 0-3.7-1.2-1.5-1.1-1.9-3.1-.1-.6-.1-1.2 0-.9.2-2.1.3-2.3 1.1-3.7.9-1.7 2.7-2.8 1.9-1.1 4.2-1.1 2.7 0 3.7 1.7l.1.1q.1 0 .1-.2zm-1.8 9.5q.3-.4.5-1 .1-.5.3-1.4.1-.8.1-1.4 0-.4-.2-1.1-.2-.8-.8-1.2-.6-.5-1.6-.5-.9 0-1.7.5t-1.2 1.2q-.5.9-.7 2.5-.2.8-.2 1.4 0 .5.2 1 .2.8.8 1.2.7.5 1.7.5.9 0 1.7-.5.7-.4 1.1-1.2m14.6 5.1q-3.2 0-5-1-1.8-1.1-1.8-2.8 0-.3.1-.4v-.3q0-.2.1-.3.2-.1.3-.1h3.7q.2 0 .3.1t.1.3q-.1.6.6 1.1.8.4 2 .4t1.9-.4q.8-.4.8-1 0-.5-.6-.7-.6-.3-1.8-.6-1.5-.3-2.3-.6-1.9-.6-3-1.4t-1.1-2.2q0-1.6 1-2.8 1-1.1 2.8-1.8 1.7-.6 3.9-.6 3 0 4.7 1.1 1.7 1.2 1.7 3v.5q0 .2-.2.3-.1.1-.3.1h-3.5q-.2 0-.3-.1t0-.3q0-.6-.7-1-.6-.5-1.8-.5t-2 .4q-.7.4-.7 1.1 0 .5.6.8.7.2 2.1.5 1.3.3 1.8.4 2.1.6 3.2 1.4 1.2.9 1.2 2.4v.5q-.3 2.1-2.5 3.3-2.1 1.2-5.3 1.2m21.3-12q0 .1-.1.2t-.3.1h-3.2q-.1 0-.2.2l-.9 6v.5q0 1.4 1.6 1.4h1.1q.2 0 .3.1t.1.3l-.4 2.7q-.1.3-.5.3-1.3.1-2 .1-2.5 0-3.8-.6-1.2-.7-1.2-2.4 0-.2.1-.7l1.1-7.7q.1-.2-.1-.2h-1.9q-.2 0-.3-.1t-.1-.2l.4-2.6q0-.1.2-.2.1-.1.3-.1h1.8q.2 0 .2-.1l.5-3.5.2-.2q.1-.1.3-.1h3.7q.2 0 .3.1t0 .2l-.5 3.5q0 .1.2.1h3.2q.2 0 .3.1t0 .2zm11.8-3.1q1.2 0 1.8.4.3.2.2.5l-1.2 3.2q-.1.4-.5.2-.5-.1-1.2-.1-.2 0-.7.1-1.2 0-2.1.7-1 .7-1.1 1.8l-1.2 7.8q0 .2-.1.3t-.3.1h-3.9q-.1 0-.2-.1-.2-.1-.1-.3l2-14q.1-.2.2-.2.1-.2.3-.2h3.8q.2 0 .3.2.1 0 .1.2l-.2 1.1q0 .1.1.1h.1q1.6-1.8 3.9-1.8m14.1.6q0-.2.1-.2.2-.2.3-.2h3.9q.2 0 .3.2.1 0 0 .2l-2 14q0 .2-.2.3-.1.1-.3.1h-3.8q-.2 0-.3-.1t-.1-.3l.2-.9q0-.1-.1-.1-.1-.1-.1 0-1.6 1.6-4.4 1.6-2.3 0-3.7-1.1t-1.4-3.1q0-.3.1-.8l1.4-9.6q0-.2.1-.2.2-.2.4-.2h3.8q.4 0 .4.4l-1.3 8.6v.4q0 1 .6 1.6.6.5 1.7.5t1.9-.5q.9-.6 1.2-1.6zm13.4 14.6q-2.6 0-4.4-1.1-1.8-1.2-2.3-3.2-.2-.8-.2-1.7 0-.5.1-1.7.3-1.8 1.1-3.3 1-1.9 3.2-3 2.1-1.2 4.7-1.2 2.7 0 4.5 1.2 1.8 1.1 2.2 2.9.2.4.2 1 0 .2-.2.3-.1.1-.2.1l-3.9.5h-.1q-.3 0-.3-.3v-.5q-.2-.7-.9-1.2t-1.8-.5-1.9.5q-.8.4-1.2 1.2-.5.9-.7 2.4-.1.7-.1 1.3t.1 1q.2.9.8 1.4.7.5 1.8.5 1 0 1.9-.5.8-.5 1.2-1.3.1-.1.1-.2v-.1q.1-.3.5-.3l3.8.6q.3 0 .3.3-.2.5-.4.8-1 1.9-3.1 3-2.2 1.1-4.8 1.1m21.9-12-.2.2q-.1.1-.3.1h-3.2q-.1 0-.2.2l-.8 6q-.1.2-.1.5 0 1.4 1.7 1.4h1.1q.1 0 .2.1.2.1.1.2l-.4 2.8q-.1.3-.4.3-1.4.1-2 .1-2.6 0-3.8-.7-1.3-.6-1.3-2.3 0-.3.1-.8l1.1-7.6q.1-.2-.1-.2h-1.9q-.2 0-.3-.1t0-.2l.3-2.6q0-.1.2-.2.1-.1.3-.1h1.9q.1 0 .1-.2l.6-3.4q0-.1.1-.2t.3-.1h3.7q.2 0 .3.1t.1.2l-.5 3.4q0 .2.1.2h3.2q.2 0 .3.1t0 .2zm13.2-2.5q0-.2.1-.3.2-.1.3-.1h3.9q.2 0 .3.1t0 .3l-2 14q0 .1-.2.3h-4.4q-.1-.2 0-.3l.1-1q0-.1-.1-.1l-.1.1q-1.6 1.5-4.4 1.5-2.2 0-3.6-1-1.5-1.1-1.5-3.1 0-.3.1-.9l1.4-9.5q.1-.2.2-.3t.3-.1h3.8q.4 0 .4.4l-1.3 8.5v.5q0 1 .6 1.6.6.5 1.7.5t1.9-.6q.9-.6 1.2-1.5zm16.6-.6q1.2 0 1.9.4.2.2.1.5l-1.2 3.2q-.1.4-.5.2-.4-.1-1.1-.1-.3 0-.8.1-1.2 0-2.1.7t-1.1 1.8l-1.1 7.8q-.1.2-.2.3t-.3.1h-3.8q-.2 0-.3-.1t-.1-.3l2.1-14q0-.2.1-.2.1-.2.3-.2h3.9q.1 0 .2.2.2 0 .1.2l-.1 1.1q-.1.1 0 .1h.2q1.5-1.8 3.8-1.8m18 6.1q0 .9-.2 2.4-.1.4-.5.4h-10.2q-.2 0-.2.1 0 .6.2 1.2.7 1.6 3.3 1.6 2.1-.1 3.6-1.5.2-.3.5-.1l2.1 2q.1.2.1.3t-.1.2q-1.3 1.2-3.2 1.9-1.8.6-3.8.6-2.9 0-4.7-1.1t-2.4-3.1q-.2-.8-.2-2.1 0-.7.1-1.4.1-1.6.9-3.1 1.1-2 3.1-3.2 2.2-1.2 4.8-1.2 3.3 0 5 1.6 1.8 1.7 1.8 4.5m-7.3-2.6q-2.1 0-3 1.7-.3.5-.4.9 0 .1.1.1h5.8q.1 0 .1-.1v-.8q-.2-.9-.9-1.3-.6-.5-1.7-.5" class="a"/><path fill-rule="evenodd" d="M197.3.8c3.9.2 7.8.5 8.4.8.7.2 1.1 1.4.9 2.6-.2 1.3-2 7.7-4.1 14.3-2 6.6-4.1 13.4-4.6 15-.4 1.6-1.7 6.1-2.8 10s-2.9 9.9-4 13.5c-1 3.6-3.3 11.2-5 17s-3.5 11.8-4 13.5-2.9 9.8-5.4 18c-2.5 8.3-5.7 19.1-7.1 24s-3.6 12.4-4.8 16.5c-1.3 4.1-2.7 8.1-3.1 8.8-.5.9-9.4 1.2-77.2 1.2l.7-5.2c.5-2.9 4.2-17.7 8.4-32.8s8.1-28.1 8.8-28.8c.6-.7 2.6-1.3 4.3-1.2 3.1 0 3.4-.3 5.3-9h11.5l-1.5 9h19l2-4.5c1.1-2.5 1.8-5 1.5-5.5-.3-.6-2.8-1-5.5-1-4.1 0-5-.3-5-1.8.1-.9 1-2.7 2-4 1.6-1.7 3.1-2.2 7-2.2 4.2 0 5.1-.3 5.5-2 .3-1.1.3-2.5 0-3-.3-.6-3.4-1-7-1-5.3 0-6.6-.3-7.1-1.8-.3-.9 0-3 .7-4.5 1.3-2.7 1.7-2.8 8.9-2.8 5.1.1 8.8-.5 11.5-1.7 2.2-1 4.9-3.1 6-4.8 1.2-1.6 2.6-4.1 3.3-5.7.7-1.5.9-2.9.4-3.2-.4-.3-5.6-.5-22.7-.5l-1.5 4.2c-1.5 4.2-1.6 4.3-11 4.8v-4.5c0-4.3-.1-4.5-3-4.5s-3.1.3-5 7c-1.1 3.8-2 7.4-2 8 0 .5-.7 2.8-1.5 5-1.4 3.7-1.8 4-5.5 4-3.2 0-4-.4-4-1.8 0-.9.9-5.5 2-10.2s2-9.3 2-10.3c0-1.4-.7-1.7-3.7-1.5-3.6.3-3.8.5-5.6 6.3-1.1 3.3-2.3 7.3-2.7 9-.5 1.6-1.7 6.4-2.8 10.5S94.8 76.7 93 83s-4 14.4-5 18c-1.1 3.6-4.4 15.7-7.5 27s-6.2 22.1-8.1 27.5l-36.2.2C.6 156 0 156 0 154c0-1.1.9-5 2.1-8.8 1.1-3.7 3.6-10.5 5.4-15.2s5.3-12.8 7.7-18c2.5-5.2 7.3-14.2 10.8-20s9.7-14.8 13.8-20C44 66.8 51 59 55.4 54.6c4.5-4.3 11.8-10.6 16.3-14 4.4-3.3 11.9-8.3 16.5-11.1 4.5-2.7 13.5-7.2 19.8-10.1 6.3-2.8 14.9-6.1 19-7.4 4.1-1.2 10.2-2.9 13.5-3.7S151.2 6 157 4.9s15.2-2.4 21-3c5.8-.5 10.8-1.1 11.3-1.2.4-.1 4-.1 8 .1M340.1 2h45.4c43 0 45.8.1 51.7 2 3.5 1.1 8 3.4 10 5 2.6 2.1 4.4 4.7 5.8 8.5 1.1 3 2 6.8 2 8.5 0 1.6-1 7.2-2.1 12.2-1.2 5.1-3.5 12-5.2 15.3-1.6 3.3-4.4 8-6.1 10.5s-4.2 5.6-5.6 7-4.3 3.8-6.5 5.4c-2.2 1.7-7.2 4.3-11 5.9-6.7 2.8-7.8 3-28.5 3.7-11.8.4-22.1.6-22.8.4-.6-.2-1.8.8-2.6 2.3-.8 1.6-1.7 4.6-2.2 6.8-.4 2.2-1.6 6.2-2.6 9-1.1 2.7-2.1 5.9-2.2 7-.2 1.1-.9 3.2-2.6 7.5h-23.5c-20 0-23.6-.2-24-1.5-.3-.8.9-6.3 2.5-12.3 1.7-5.9 3.8-13.2 4.6-16.2.9-3 2.4-8.2 3.4-11.5s4.1-14.3 7-24.5 6.9-24.8 8.9-32.5c2.1-7.7 4.3-15 5-16.3zm36.3 44.8c-1.6 5.7-2.7 10.5-2.4 10.8s3 .5 6 .5 7.8-.7 10.5-1.5c2.8-.8 6.2-2.7 7.7-4.3 1.5-1.5 3.3-4.8 4.2-7.3 1.1-3.5 1.2-4.9.3-6.7-.9-1.6-2.7-2.4-6.7-3.2-3-.6-7.6-1-10.2-.9-2.7.1-5.2.6-5.7 1.2s-2.2 5.8-3.7 11.4M502.1 2c19.5 0 23 .3 23.4 1.5.3.9-.4 4.8-1.6 8.8s-3.4 11.5-5.1 16.7c-1.6 5.3-2.8 9.9-2.6 10.4s4.6-3.8 9.8-9.4c5.2-5.7 13.3-14.3 26.5-28h28.3c24.4 0 28.2.3 28.2 1.5 0 .9-1.6 3-3.5 4.8-2 1.8-14.2 13.1-27.3 25.2s-24.7 23.3-26 24.8c-2 2.5-2 3-.9 5.5.8 1.5 4.2 8.2 7.7 14.7 3.4 6.6 8.6 16.5 11.6 22 2.9 5.5 6 11.4 6.8 13 1.2 2.4 1.3 3.3.3 4.3-.9 1-7.5 1.3-28.7 1.3s-27.7-.3-28.6-1.3c-.7-.7-3.1-6.2-5.4-12.3-2.3-6-5.4-14.2-6.8-18.2-1.5-4-3-7.3-3.4-7.3s-1 1.3-1.3 2.8-2.4 9.5-4.6 17.7c-2.3 8.3-4.5 15.8-5 16.8-.8 1.6-2.9 1.7-23.1 1.7-12.3 0-23-.4-23.8-.9-1.3-.8-1-2.7 2.4-13.7 2.1-7.1 4.9-17.1 6.2-22.4 1.4-5.2 4-14.9 5.9-21.5 2-6.6 4-13.8 4.6-16s1.5-5.1 1.9-6.5c.5-1.3 2.8-9.4 5.1-18 2.3-8.5 4.7-16 5.2-16.7.7-.9 6.7-1.3 23.8-1.3m141.6 0c21.3 0 23.4.2 24 1.8.3 1 .1 3.5-.5 5.7s-2.8 10.6-5.1 18.5c-2.2 8-5 18.4-6.4 23-1.3 4.7-2.8 9.4-3.4 10.5-.5 1.1-2.5 8.1-4.3 15.5-1.8 7.5-4.1 16-5 19-.9 3.1-2.7 9.1-3.9 13.5-1.3 4.4-2.8 8.4-3.4 8.8-.7.4-11.3.7-23.7.8-16.9 0-22.8-.3-23.6-1.3-.9-1-.5-3.7 1.7-11.8 1.6-5.7 3.8-13.6 4.8-17.5 1.1-3.8 2.9-9.9 4-13.5 1.1-3.5 3.6-12.8 5.6-20.5 2.1-7.7 5-18 6.5-23 1.5-4.9 3.7-12.4 4.9-16.7s2-8.3 1.9-9.1c-.1-.7.4-1.8 1.2-2.5 1-.8 8-1.2 24.7-1.2" style="fill:#b92025"/><path d="M220 2h49.7c27.4 0 50.3.4 51 .8.8.5.1 4.6-2.6 15.2-2.1 8-4.3 16.1-5.7 21.5L258 40l-1.1 4.3c-.5 2.3-1.2 5-1.5 6-.4 1.6 1.3 1.7 24.8 1.7 13.9 0 25.9.4 26.6.8 1 .6.8 2.7-1.3 10.7-1.4 5.5-3.6 12.8-7 22.5H245l-1 4.3c-.6 2.3-2.5 9.1-4.3 15.2-1.8 6-3.8 11.5-4.5 12.2-1 1-6.7 1.3-23 1.3-11.9 0-22.3-.4-22.9-.8-1-.5-1.1-2-.3-6.2.6-3 2-8.9 3.1-13s6.5-23.5 12-43 10.9-38.6 12.1-42.5c1.1-3.8 2.4-8 2.9-9.2z" class="a"/></svg>