<svg xmlns="http://www.w3.org/2000/svg" xml:space="preserve" id="Calque_1" x="0" y="0" viewBox="0 0 1024 256"><style>.st0{fill:#ffce00}.st1{fill:#5c5c5c}</style><g id="XMLID_391_"><g id="XMLID_8882_"><path id="XMLID_8885_" d="M385.61 237.82v-53.16c9.64 8.09 20.1 14.15 31.4 18.19 11.3 4.05 22.7 6.06 34.22 6.06 6.75 0 12.65-.61 17.69-1.83q7.56-1.83 12.63-5.07c3.38-2.16 5.9-4.71 7.56-7.64s2.49-6.12 2.49-9.55c0-4.65-1.33-8.81-3.99-12.46-2.66-3.66-6.29-7.03-10.88-10.13-4.6-3.1-10.05-6.09-16.36-8.97s-13.13-5.81-20.43-8.81c-18.61-7.75-32.48-17.22-41.62-28.41s-13.71-24.7-13.71-40.54c0-12.4 2.49-23.06 7.48-31.98 4.98-8.91 11.77-16.25 20.35-22.01s18.52-9.99 29.82-12.71c11.3-2.71 23.26-4.07 35.89-4.07 12.4 0 23.4.75 32.98 2.24 9.58 1.5 18.41 3.8 26.5 6.89v49.67c-3.99-2.77-8.34-5.2-13.04-7.31-4.71-2.1-9.55-3.85-14.54-5.23s-9.94-2.41-14.87-3.07-9.61-1-14.04-1c-6.09 0-11.63.58-16.61 1.74s-9.19 2.8-12.63 4.9c-3.43 2.11-6.09 4.63-7.97 7.56-1.88 2.94-2.82 6.23-2.82 9.89 0 3.99 1.05 7.56 3.16 10.72q3.15 4.74 8.97 8.97c3.88 2.82 8.58 5.59 14.12 8.31s11.79 5.51 18.77 8.39c9.52 3.99 18.08 8.22 25.67 12.71s14.09 9.55 19.52 15.2c5.42 5.65 9.58 12.1 12.46 19.36s4.32 15.7 4.32 25.34q0 19.935-7.56 33.48t-20.52 21.93c-8.64 5.59-18.69 9.61-30.15 12.04s-23.57 3.66-36.3 3.66c-13.07 0-25.5-1.11-37.3-3.32s-22.02-5.55-30.66-9.98" class="st0"/><path id="XMLID_8883_" d="M640.48 250.85H589.9V13.5h50.58z" class="st0"/></g><g id="XMLID_407_"><g id="XMLID_408_"><path id="XMLID_8880_" d="m207.37 229.49-53.74-25.23-66.85-102.23c-5.74-8.72-9.72-15.3-11.92-19.71h-.66c.88 8.39 1.33 21.2 1.33 38.43v130.52H25V13.74h57.64l55.06 84.47c-.17.87-.25 1.76-.25 2.68 0 2.46.64 4.79 1.76 6.84-.04.33-.07.66-.11.99-.31 3 .36 6.23 1.28 9.08 1.09 3.44 2.68 6.74 4.25 9.99.4.83.81 1.65 1.22 2.48 1 2.77 1.8 5.62 2.61 8.44 1.38 4.81 2.68 9.65 4.08 14.46 1.43 4.9 2.93 9.79 4.74 14.57 1.84 4.88 3.79 10.05 6.79 14.37 3.43 4.94 7.42 8.8 13.29 10.66 1.19.38 2.41.56 3.61.58 5.7 7.42 11.66 14.64 17.39 22.04-.45-.59-.91-1.18-1.37-1.77 2.1 2.7 4.23 5.42 6 8.34 1.49 2.48 2.93 5.01 4.38 7.53" class="st1"/></g><g id="XMLID_8860_"><path id="XMLID_8865_" d="m241.15 154.62 51.19-.02v46.31c-8.53 3.65-18.83 5.47-31.64 5.47-13.9 0-26.52-2.84-36.69-8.53 13.27 13.47 28.55 24.63 46.74 31.31 26.49 9.74 47.19 9.43 58.57-1.99V112.54h-88.17z" class="st1"/><path id="XMLID_8864_" d="m196.45 189.05-58.98-91.1c-2.55 10.68-3.82 22.09-3.82 34.23 0 37.1 11.01 66.23 33.05 87.37 22.03 21.15 52.15 31.72 90.35 31.72 10.52 0 20.5-.63 29.97-1.87-6.7-1.27-13.51-3.17-20.37-5.69-28.55-10.49-54.78-30.93-70.2-54.66" class="st1"/><path id="XMLID_8861_" d="M264.28 5.63c-39.97 0-71.22 11.76-95.3 35.28-11.4 11.14-19.72 23.83-25.72 38.07l49.08 75.49c-1.71-7.51-2.47-15.77-2.47-24.78 0-24.07 7.03-43.31 21-57.72s30.53-21.61 52.72-21.61c26.5 0 54.35 5.3 65.72 15.9V16.07c-11.37-6.96-39.86-10.44-65.03-10.44" class="st1"/></g></g><g id="XMLID_392_"><g id="XMLID_397_"><path id="XMLID_405_" d="m816.63 229.49 53.74-25.23 66.85-102.24c5.74-8.72 9.72-15.3 11.92-19.71h.66c-.88 8.39-1.33 21.2-1.33 38.43v130.52H999V13.74h-57.64L886.3 98.22c.17.87.25 1.76.25 2.68 0 2.46-.64 4.79-1.76 6.84.04.33.07.66.11.99.31 3-.36 6.23-1.28 9.08-1.09 3.44-2.68 6.74-4.25 9.99-.4.83-.81 1.65-1.22 2.48-1 2.77-1.8 5.62-2.61 8.44-1.38 4.81-2.68 9.65-4.08 14.46-1.43 4.9-2.93 9.79-4.74 14.57-1.84 4.88-3.79 10.05-6.79 14.37-3.43 4.94-7.42 8.8-13.29 10.66-1.19.38-2.41.56-3.61.58-5.7 7.42-11.66 14.64-17.39 22.04.45-.59.91-1.18 1.37-1.77-2.1 2.7-4.23 5.42-6 8.34-1.5 2.47-2.94 5-4.38 7.52" class="st0"/></g><g id="XMLID_393_"><path id="XMLID_396_" d="m778.67 154.62-45.5-.02v46.31c11.38 3.65 18.08 5.47 30.9 5.47 13.9 0 26.15-2.84 36.32-8.53-13.27 13.47-30.83 24.63-49.02 31.31-26.49 9.74-38.1 9.43-60.85-1.99V112.54h88.17v42.08z" class="st0"/><path id="XMLID_395_" d="m827.56 189.05 58.98-91.1c2.55 10.68 3.82 22.09 3.82 34.23 0 37.1-11.01 66.23-33.05 87.37-22.03 21.15-52.15 31.72-90.35 31.72-10.52 0-20.5-.63-29.97-1.87 6.7-1.27 13.51-3.17 20.37-5.69 28.55-10.49 54.79-30.93 70.2-54.66" class="st0"/><path id="XMLID_394_" d="M757.64 5.63c39.97 0 72.27 11.76 96.34 35.28 11.4 11.14 20.24 23.83 26.24 38.07l-48.81 75.49c1.71-7.51 2.6-15.77 2.6-24.78 0-24.07-6.96-43.31-20.94-57.72-13.97-14.41-32.59-21.61-54.78-21.61-26.5 0-47.88 5.3-67.79 15.9V16.07c22.76-6.96 41.96-10.44 67.14-10.44" class="st0"/></g></g></g></svg>