<?xml version="1.0" encoding="utf-8"?>
<!-- Generator: Adobe Illustrator 23.0.1, SVG Export Plug-In . SVG Version: 6.00 Build 0)  -->
<svg version="1.1" id="Calque_1" xmlns="http://www.w3.org/2000/svg" xmlns:xlink="http://www.w3.org/1999/xlink" x="0px" y="0px"
	 viewBox="0 0 1024 256" style="enable-background:new 0 0 1024 256;" xml:space="preserve">
<style type="text/css">
	.st0{fill:#FFCE00;}
	.st1{fill:#5C5C5C;}
</style>
<g id="XMLID_391_">
	<g id="XMLID_8882_">
		<path id="XMLID_8885_" class="st0" d="M385.61,237.82v-53.16c9.64,8.09,20.1,14.15,31.4,18.19c11.3,4.05,22.7,6.06,34.22,6.06
			c6.75,0,12.65-0.61,17.69-1.83c5.04-1.22,9.25-2.91,12.63-5.07c3.38-2.16,5.9-4.71,7.56-7.64c1.66-2.93,2.49-6.12,2.49-9.55
			c0-4.65-1.33-8.81-3.99-12.46c-2.66-3.66-6.29-7.03-10.88-10.13c-4.6-3.1-10.05-6.09-16.36-8.97c-6.31-2.88-13.13-5.81-20.43-8.81
			c-18.61-7.75-32.48-17.22-41.62-28.41c-9.14-11.19-13.71-24.7-13.71-40.54c0-12.4,2.49-23.06,7.48-31.98
			c4.98-8.91,11.77-16.25,20.35-22.01c8.58-5.76,18.52-9.99,29.82-12.71c11.3-2.71,23.26-4.07,35.89-4.07
			c12.4,0,23.4,0.75,32.98,2.24c9.58,1.5,18.41,3.8,26.5,6.89v49.67c-3.99-2.77-8.34-5.2-13.04-7.31c-4.71-2.1-9.55-3.85-14.54-5.23
			c-4.99-1.38-9.94-2.41-14.87-3.07c-4.93-0.66-9.61-1-14.04-1c-6.09,0-11.63,0.58-16.61,1.74c-4.98,1.16-9.19,2.8-12.63,4.9
			c-3.43,2.11-6.09,4.63-7.97,7.56c-1.88,2.94-2.82,6.23-2.82,9.89c0,3.99,1.05,7.56,3.16,10.72c2.1,3.16,5.09,6.15,8.97,8.97
			c3.88,2.82,8.58,5.59,14.12,8.31c5.54,2.72,11.79,5.51,18.77,8.39c9.52,3.99,18.08,8.22,25.67,12.71
			c7.59,4.49,14.09,9.55,19.52,15.2c5.42,5.65,9.58,12.1,12.46,19.36c2.88,7.26,4.32,15.7,4.32,25.34c0,13.29-2.52,24.45-7.56,33.48
			c-5.04,9.03-11.88,16.34-20.52,21.93c-8.64,5.59-18.69,9.61-30.15,12.04c-11.46,2.43-23.57,3.66-36.3,3.66
			c-13.07,0-25.5-1.11-37.3-3.32S394.25,242.25,385.61,237.82z"/>
		<path id="XMLID_8883_" class="st0" d="M640.48,250.85H589.9V13.5h50.58V250.85z"/>
	</g>
	<g id="XMLID_407_">
		<g id="XMLID_408_">
			<g id="XMLID_8880_">
				<path class="st1" d="M207.37,229.49l-53.74-25.23L86.78,102.03c-5.74-8.72-9.72-15.3-11.92-19.71h-0.66
					c0.88,8.39,1.33,21.2,1.33,38.43v130.52H25V13.74h57.64l55.06,84.47c-0.17,0.87-0.25,1.76-0.25,2.68c0,2.46,0.64,4.79,1.76,6.84
					c-0.04,0.33-0.07,0.66-0.11,0.99c-0.31,3,0.36,6.23,1.28,9.08c1.09,3.44,2.68,6.74,4.25,9.99c0.4,0.83,0.81,1.65,1.22,2.48
					c1,2.77,1.8,5.62,2.61,8.44c1.38,4.81,2.68,9.65,4.08,14.46c1.43,4.9,2.93,9.79,4.74,14.57c1.84,4.88,3.79,10.05,6.79,14.37
					c3.43,4.94,7.42,8.8,13.29,10.66c1.19,0.38,2.41,0.56,3.61,0.58c5.7,7.42,11.66,14.64,17.39,22.04
					c-0.45-0.59-0.91-1.18-1.37-1.77c2.1,2.7,4.23,5.42,6,8.34C204.48,224.44,205.92,226.97,207.37,229.49z"/>
			</g>
			<g id="XMLID_8879_">
			</g>
		</g>
		<g id="XMLID_8860_">
			<path id="XMLID_8865_" class="st1" d="M241.15,154.62l51.19-0.02v46.31c-8.53,3.65-18.83,5.47-31.64,5.47
				c-13.9,0-26.52-2.84-36.69-8.53c13.27,13.47,28.55,24.63,46.74,31.31c26.49,9.74,47.19,9.43,58.57-1.99V112.54h-88.17V154.62z"/>
			<path id="XMLID_8864_" class="st1" d="M196.45,189.05l-58.98-91.1c-2.55,10.68-3.82,22.09-3.82,34.23
				c0,37.1,11.01,66.23,33.05,87.37c22.03,21.15,52.15,31.72,90.35,31.72c10.52,0,20.5-0.63,29.97-1.87
				c-6.7-1.27-13.51-3.17-20.37-5.69C238.1,233.22,211.87,212.78,196.45,189.05"/>
			<path id="XMLID_8861_" class="st1" d="M264.28,5.63c-39.97,0-71.22,11.76-95.3,35.28c-11.4,11.14-19.72,23.83-25.72,38.07
				l49.08,75.49c-1.71-7.51-2.47-15.77-2.47-24.78c0-24.07,7.03-43.31,21-57.72c13.97-14.41,30.53-21.61,52.72-21.61
				c26.5,0,54.35,5.3,65.72,15.9V16.07C317.94,9.11,289.45,5.63,264.28,5.63z"/>
		</g>
	</g>
	<g id="XMLID_392_">
		<g id="XMLID_397_">
			<g id="XMLID_405_">
				<path class="st0" d="M816.63,229.49l53.74-25.23l66.85-102.24c5.74-8.72,9.72-15.3,11.92-19.71h0.66
					c-0.88,8.39-1.33,21.2-1.33,38.43v130.52H999V13.74h-57.64L886.3,98.22c0.17,0.87,0.25,1.76,0.25,2.68
					c0,2.46-0.64,4.79-1.76,6.84c0.04,0.33,0.07,0.66,0.11,0.99c0.31,3-0.36,6.23-1.28,9.08c-1.09,3.44-2.68,6.74-4.25,9.99
					c-0.4,0.83-0.81,1.65-1.22,2.48c-1,2.77-1.8,5.62-2.61,8.44c-1.38,4.81-2.68,9.65-4.08,14.46c-1.43,4.9-2.93,9.79-4.74,14.57
					c-1.84,4.88-3.79,10.05-6.79,14.37c-3.43,4.94-7.42,8.8-13.29,10.66c-1.19,0.38-2.41,0.56-3.61,0.58
					c-5.7,7.42-11.66,14.64-17.39,22.04c0.45-0.59,0.91-1.18,1.37-1.77c-2.1,2.7-4.23,5.42-6,8.34
					C819.51,224.44,818.07,226.97,816.63,229.49z"/>
			</g>
			<g id="XMLID_404_">
			</g>
		</g>
		<g id="XMLID_393_">
			<path id="XMLID_396_" class="st0" d="M778.67,154.62l-45.5-0.02v46.31c11.38,3.65,18.08,5.47,30.9,5.47
				c13.9,0,26.15-2.84,36.32-8.53c-13.27,13.47-30.83,24.63-49.02,31.31c-26.49,9.74-38.1,9.43-60.85-1.99V112.54h88.17V154.62z"/>
			<path id="XMLID_395_" class="st0" d="M827.56,189.05l58.98-91.1c2.55,10.68,3.82,22.09,3.82,34.23
				c0,37.1-11.01,66.23-33.05,87.37c-22.03,21.15-52.15,31.72-90.35,31.72c-10.52,0-20.5-0.63-29.97-1.87
				c6.7-1.27,13.51-3.17,20.37-5.69C785.91,233.22,812.15,212.78,827.56,189.05"/>
			<path id="XMLID_394_" class="st0" d="M757.64,5.63c39.97,0,72.27,11.76,96.34,35.28c11.4,11.14,20.24,23.83,26.24,38.07
				l-48.81,75.49c1.71-7.51,2.6-15.77,2.6-24.78c0-24.07-6.96-43.31-20.94-57.72c-13.97-14.41-32.59-21.61-54.78-21.61
				c-26.5,0-47.88,5.3-67.79,15.9V16.07C713.26,9.11,732.46,5.63,757.64,5.63z"/>
		</g>
	</g>
</g>
</svg>
