<svg xmlns="http://www.w3.org/2000/svg" viewBox="0 0 1000 325"><title>Visa</title><path fill-rule="evenodd" d="m728.8 14.4-14.3 66.2s-29.6-15-65.9-15c-32.2 0-47.7 14.2-47.7 27.1 0 36.3 112.9 41.5 112.9 123.8 0 69.1-61 107.7-138.5 107.7-52.4 0-91.8-17.4-91.8-17.4l14.7-68.6s34.2 20.6 79.9 20.6c32.3 0 51.2-14.7 51.2-31.2 0-39.1-112.4-44.5-112.4-122.4C516.9 37.3 580.3.5 651.2.5c45.4 0 77.6 13.9 77.6 13.9M137.6 5.5c19.6 0 35.6 11.8 38.7 32.5l34.4 180.7L295 5.5h84.9L248.8 319h-85.2L100.1 74.2c-5.8-22.6-8.3-29.9-42.9-42.4C30.3 21 .5 15.5.5 15.5l1.7-10zm357.2 0L428.4 319h-81L414.1 5.5zm439.2 0L999.4 319h-74.9l-10-47.4H811L794.6 319h-85L828.3 34.2c7.6-18.2 17.9-28.7 37.5-28.7zm-99.5 202.4h67.4L876.7 90.2z" style="fill:#1434cb"/></svg>