<svg version="1.2" xmlns="http://www.w3.org/2000/svg" viewBox="0 0 1000 325">
	<title>Visa</title>
	<style>
		.s0 { fill: #1434cb } 
	</style>
	<path id="Visa" fill-rule="evenodd" class="s0" d="m728.8 14.4l-14.3 66.2c0 0-29.6-15-65.9-15-32.2 0-47.7 14.2-47.7 27.1 0 36.3 112.9 41.5 112.9 123.8 0 69.1-61 107.7-138.5 107.7-52.4 0-91.8-17.4-91.8-17.4l14.7-68.6c0 0 34.2 20.6 79.9 20.6 32.3 0 51.2-14.7 51.2-31.2 0-39.1-112.4-44.5-112.4-122.4 0-67.9 63.4-104.7 134.3-104.7 45.4 0 77.6 13.9 77.6 13.9zm-591.2-8.9c19.6 0 35.6 11.8 38.7 32.5l34.4 180.7 84.3-213.2h84.9l-131.1 313.5h-85.2l-63.5-244.8c-5.8-22.6-8.3-29.9-42.9-42.4-26.9-10.8-56.7-16.3-56.7-16.3l1.7-10zm357.2 0l-66.4 313.5h-81l66.7-313.5zm439.2 0l65.4 313.5h-74.9l-10-47.4h-103.5l-16.4 47.4h-85l118.7-284.8c7.6-18.2 17.9-28.7 37.5-28.7zm-99.5 202.4h67.4l-25.2-117.7z"/>
</svg>