<svg version="1.2" xmlns="http://www.w3.org/2000/svg" viewBox="0 0 400 400"><style>.a{fill:#c9d8e5}</style><path fill-rule="evenodd" d="m200.1 383.7c-101 0-182.6-81.7-182.6-182.7 0-101 81.6-182.6 182.6-182.6 101 0 182.7 81.6 182.7 182.6 0 101-81.7 182.7-182.7 182.7zm180.2-182.7c0-99.6-80.5-180.1-180.2-180.1-99.6 0-180.1 80.5-180.1 180.1 0 99.6 80.5 180.2 180.1 180.2 99.7 0 180.2-80.6 180.2-180.2z"/><path class="a" d="m198.8 361.9c0.6-1.3 1.1-2.9 1-4.5q-0.1-0.6-0.2-1.1 0.2-0.3 0.3-0.8c1.1-3.7-0.8-6.2-2.7-7.3-0.7-0.4-1.4-0.7-2.5-1.1-0.3-0.1-0.6-0.2-0.9-0.3-0.7-0.4-1.4-0.6-1.9-0.8l-0.5-0.1q-0.3-0.4-0.7-0.8c-1-1.2-2.2-1.9-3.9-2.3l-0.3-0.1c-0.5-0.1-1-0.3-1.6-0.4l-0.2-0.3c-0.5-0.6-2.1-2.4-5.2-2.4h-1.8q-0.3 0-0.6 0c-0.4-0.3-1.5-0.9-1.5-0.9l-0.2-0.1c-1-2.1-1.4-2.8-2-3.4-0.8-1-1.8-1.5-2.5-1.8-0.8-1.1-1.6-1.8-2.4-2.2l-0.1-0.5c-0.5-1.8-1.2-2.8-1.8-3.6l-0.1-0.2c-0.8-1.2-2.4-2.5-3.6-3.5l-49-39.8-31.3-26.1-10.7-8.3-22-17.9-24.3-19.3-1.9-1.6c0.4-2.9 1-7 1.1-7.7 0.2-1 1.4-7 2-10.4 0.6-0.3 1.2-0.7 1.7-1.1q0.4-0.2 0.7-0.3 1.1-0.4 2-1.3 0.5-0.1 1.1-0.4c0.9-0.4 1.6-0.9 2.7-1.9l0.5-0.3c0.6-0.4 1.7-0.9 2.1-1.2l0.5-0.2h0.2q0.3 0 0.5 0h0.3 0.4c1.3 0 2.6-0.2 2.6-0.2q0.7-0.2 1.3-0.4c3.1-1.5 4-2.1 4.9-3.1l0.2-0.4c0.7 0.4 1.5 0.7 2.6 0.9 0.6 0 1.1 0.1 1.6 0.1 0.6 0 1.1-0.1 1.5-0.1l0.4-0.1c0.4 0 0.9-0.1 1.4-0.1 1.1-0.2 2.6-0.4 3.4-0.4q0.9-0.1 1.9-0.1c1-0.1 2-0.2 2.8-0.2q0.7 0 1.4 0h0.6c0.5 0.4 1.1 0.7 1.9 0.9 0.3 0.3 0.7 0.6 1.3 0.8 0.7 0.3 1.5 0.5 2.2 0.5 2.9 0 4.5-2 5.2-2.8l0.1-0.2c0.7-0.5 1.3-1.2 2.1-2.1l0.3-0.3c0.2-0.2 0.6-0.5 1.4-1.3 0.6-0.6 1.1-1.3 1.4-2.2 1-0.6 2.3-1.4 2.8-1.6 1.3-0.6 3.8-1.7 4.2-1.9l0.3-0.1c1.9-0.7 3.2-1.2 4.1-1.7 0.8-0.5 1.4-1.1 2.4-2.2 0.2-0.2 0.5-0.4 0.8-0.7 1.3-0.1 3.8-0.3 5.2-0.4 2.9-0.2 5.3-2.2 6.5-3.4 1.3-1.3 1.7-2.7 1.7-4 1.3-1.4 2.6-3.3 1.8-6-0.1-0.4-0.8-2.1-1.7-3.6q0.2-0.3 0.3-0.7c0.1-0.3 0.2-0.7 0.3-1.2 0.9 0 2.2-0.1 3.3-0.2q0.6-0.1 1.3-0.2c2.3-0.4 3.5-0.5 4.5-1.1q1.4-0.6 2.7-2.1c0.7-0.7 1.1-1.5 1.3-2.5q0.4 0 0.7-0.1c0.9-0.1 1.6-0.4 2.3-0.7l0.2-0.1c0.6 0.2 1.5 0.5 2.6 0.5h0.1c1.3-0.1 2.5-0.4 3.4-0.6l0.3-0.1c0.6 0.3 1.4 0.5 2.3 0.6h0.5q0.4 0 0.8 0c1.1 0.4 2.3 0.8 3.5 1q0.9 0.1 1.7 0.1c1.2 0 2-0.2 2.7-0.3l0.1-0.1c1-0.1 3.7-0.7 5-3.3q0.6-1.3 0.6-2.7c2.9-2 3.2-5.1 2.1-7.3-0.3-0.7-0.6-1.1-1.8-2.7-0.3-0.4-0.6-0.8-0.8-1-0.3-0.7-1-1.7-1.7-2.6q-0.3-0.4-0.7-0.8 0.1-0.8 0-1.7c-0.1-0.5-0.2-1.7-1.5-3.4l0.3-1c0.3-1.2 0.6-2.2 0.7-3 0.1-1.7-0.3-3.2-0.9-4.3 0.4-0.7 0.7-1.6 0.8-2.8 0 0 0.3-2.8-0.1-4.5 0-0.3-0.1-0.7-0.6-2.1 0.1-0.7 0.1-1.5 0.1-2.1 0-1.6-0.5-2.8-0.9-3.7v-0.4c0.2-1.6-0.1-2.8-0.5-3.8q0.3-0.2 0.6-0.5l0.2-0.1q0.4-0.2 0.8-0.5c0.3-0.2 1.2-0.6 1.5-0.8l0.2-0.1c1.6 0 3-0.6 4.2-1.7 0.3-0.2 1-0.8 1.3-1 0.7-0.4 1.4-1.1 2-2.2l1-0.8c0.6-0.3 1.1-0.5 1.4-0.7 0.7 0.3 1.6 0.6 2.7 0.6h0.2q0.3 0 0.6 0 0.8 0 1.5-0.2l0.5-0.1q1.4 0.7 2.9 0.7h0.3q0.3 0.1 0.7 0.1c0.9 0 1.9-0.2 2.8-0.6 0.7-0.1 1.9-0.5 3.1-1.6 0.5-0.5 0.9-1.1 1.1-1.6 0.4-0.3 0.8-0.7 1.2-1.4 0.2-0.2 0.5-0.7 0.8-1.1l0.1-0.1q0.2-0.1 0.6-0.3c1.1-0.1 2.1-0.5 3-1.1l0.5-0.3 0.1-0.1 0.9-0.3h0.1c0.4-0.2 1-0.3 1.6-0.7l0.1-0.1h0.2c1.9-0.3 3.1-1.4 3.8-2l0.5-0.2q0.5-0.1 0.9-0.3 0.3 0.1 0.7 0.1 0.5 0 1.3-0.1 0.6 0.1 1.3 0.1 0.9 0.2 1.8 0.3 0.5-0.1 0.8-0.1 0.8 0.2 1.9 0.2 0.8 0 1.5-0.2h0.5q0.6 0.2 1.4 0.2h0.4c1 0 1.6-0.1 2-0.3 0.5 0 1-0.1 1.6-0.2q0.7 0.2 1.4 0.3 0.3 0 0.6 0c0.6 0 1.5 0 1.8-0.1 1.4-0.1 1.9-0.1 2.2-0.2 1.1-0.2 2.3-0.7 2.8-0.9l0.1-0.1c0.3-0.2 1.1-0.6 1.8-1.1l0.5-0.4q0.4-0.3 0.7-0.5l0.5 0.1c1.2 0.2 1.7 0.2 2.2 0.2 0.4 0 0.8 0 1.2-0.1 0.5 0.1 1.1 0.2 1.7 0.2q0.6 0 1.2-0.1c0.5-0.1 0.9-0.2 1.2-0.3h0.8q0.3 0 0.6 0c0.3-0.1 1.5-0.1 2.8-0.8l0.5 0.1c0.6 0.2 1.2 0.3 2 0.3h0.1c0.5 0.1 1 0.1 1.4 0.1h0.1q0.5 0.1 1.1 0.1 0.5 0 0.9-0.1l0.5 0.1q0.4 0.1 0.8 0.1 0.6 0 1.1-0.1 0.3 0.1 0.7 0.2c1.4 0.2 1.9 0.2 2.1 0.2q0.8 0 1.3-0.1c0.3 0.7 0.9 1.5 1.8 2.2 0.5 0.4 1.7 1.4 3.9 1.9 0.9 0.2 1.9 0.3 2.8 0.3 0.7 0 1.3 0 1.9-0.2l0.5-0.1c0.5-0.1 1.3-0.3 2.1-0.6 0.7-0.3 1.4-0.7 2.2-1.2h0.3q0.5 0.1 1 0.1c1.1 0 2.1-0.2 3.1-0.6l0.8-0.4q0.4 0 0.6-0.1c0.9-0.1 1.8-0.4 2.7-0.9q0.7-0.3 1.1-0.7 0.4-0.2 0.8-0.5l0.2-0.1 0.3 0.2c0.8 0.5 2.2 0.9 2.2 0.9l0.2 0.1h0.2q0.4 0.2 0.6 0.3c0.9 0.5 2.3 1.2 3.9 1.2 1 0 1.7-0.2 2.2-0.3h0.4q1 0 2-0.3l0.1-0.1c0.3-0.1 0.6-0.2 0.8-0.3 0.5-0.2 1-0.5 1.4-0.8q0.7 0.4 1.5 0.6c0.9 1.1 2 1.7 2.8 2.1 0.9 0.3 1.8 0.7 3 0.8 0 0.7 0.1 1.3 0.4 1.9q0.2 0.5 0.4 1-0.2 0.7-0.3 1.4l-0.2 0.5c-0.1 0.8-0.3 1.7-0.4 2.8l-0.1 0.5c-0.1 0.7-0.3 1.6-0.4 2.6v0.3c0 0.8 0 1.9 0.4 3.3 0.2 0.7 0.5 1.2 0.7 1.6l-0.1 0.7v0.2c-0.1 0.8-0.4 2.2 0.1 3.9q0.1 0.3 0.2 0.6c-0.5 0.7-0.9 1.6-1.3 2.7q-0.2 0.9-0.4 1.6l-0.1 0.4v0.1c-0.2 0.4-0.5 1.1-0.8 2q-0.6 0.4-1 1c-0.5 0.1-1.1 0.4-1.7 0.7-0.5 0.3-1.6 1-2.4 2.2-0.3 0.3-0.6 0.7-0.9 1.2l-0.2 0.4-0.6 0.2c-1 0.4-3.5 1.8-4.5 4.4 0 0-0.8 2.2-0.8 4-0.1 0.7-0.1 1.5-0.1 2 0 0.7 0.1 1.4 0.1 1.8l0.1 0.2v0.2c0 1.6 0.1 3.1 0.7 4.4l0.1 0.1c0.5 1.2 1 2.3 1.8 3.3q0 0.6 0.2 1.2c0.4 2.1 1.8 3.4 2.4 3.9 0.7 0.7 1.5 1.2 2.2 1.6l0.6 0.4q1.1 1.2 2.5 2c0.1 0.6 0.4 2.9 0.4 2.9 0.1 1.3 0.4 3.2 1.8 4.8 0.6 0.7 0.7 0.8 7.9 6.2q1 0.7 1.8 1.2 0 0.4 0.1 0.7c0 2.1 4.2 22.6 4.3 22.8 0.1 0.5 0.3 1.2 0.4 1.8-0.8 0.8-1.6 1.9-1.9 3.3-0.6 2.5 0.3 4.7 2.5 9q0.2 0.5 0.4 0.7c0.2 0.6 1.1 3 1.5 4.1 0.5 1.4 0.8 2.2 1 2.7 0.1 0.3 0.4 1.2 0.5 1.7q0.2 0.7 0.4 1.2c0 0.3 0.3 1.2 0.4 3 0.1 1.7 0.2 5.5 0.1 6.3 0 0.8-0.2 3.8-0.2 4.7l-0.1 0.4c-0.1 0.4-0.1 0.9-0.2 1.4v0.1c-0.1 0.6-0.2 1.8 0.1 3.1 0.1 0.4 0.2 0.8 0.3 1.2l0.1 0.3c0.1 0.2 0.5 1.9 0.5 1.9q-0.2 0.4-0.3 0.6c-0.2 0.4-0.5 1.1-0.7 2-0.6 0.8-1.2 1.7-1.4 3.1-0.1 1 0 1.9 0 3q0.1 0.5 0.1 0.9c0 0 0.1 3.4 0.5 4.8 0.2 0.8 0.6 1.4 0.8 1.8l0.1 0.3 0.2 0.2c-0.1 0.4-0.2 0.8-0.2 1.1 0 0-0.8 0.6-1.1 0.8-2.5 0-4 1.2-4.8 2.2-2.5 3.2-2.8 4-3 5-0.4 1.8-0.2 3.3 0.7 5.2 0.3 0.6 0.6 1.1 8.9 12.9l0.3 0.4c0 1.1 0 2.9 0 3.5 0 0.8-0.2 2.6 1.1 4.5q0.4 0.6 0.8 1c0.3 1.9 1.4 3.6 2.4 4.6 0.2 0.1 3.2 2.8 5.6 3.2 0.3 0.1 0.7 0.1 1 0.1 0.9 0 1.9-0.3 2.8-0.6q0.7 0.1 1.4 0.1h0.5q0.8 0.3 1.8 0.3h0.2c0.6 0.9 1.6 1.8 3.1 2.3 0.7 0.3 2.4 0.6 3.9 1 0 1.4 0.5 2.7 1.4 4 0 0 2.3 3 3.1 4.2-5.4 3.2-15.8 9.2-21.5 12.6l-1.3 0.8c-4.9 2.8-6 3.5-6.4 3.7-0.9 0.6-18.5 11-22.2 13.2l-18.6 11c-8.2 4.8-9.1 5.6-9.5 6-0.6 0.5-4.9 3.8-10.6 8-5.3 3.8-7.7 5.5-8.8 6.4-0.3 0.1-0.7 0.2-1.3 0.4-1.4 0.3-14.8 3.3-25.8 5.8l-1.1 0.2c-0.1 0.1-6.1 1.6-10.4 2.8z"/><path fill-rule="evenodd" d="m181 363.2l0.5 0.1q0.3 0 0.6 0 0.3 0 0.7 0.1 0.4 0 0.7 0.1 0.7 0 1.3 0 0.5-0.1 0.9 0 0.9 0 1.6 0.2 0.8 0.2 1.4 0.6 0.6 0.4 1 1 0.3 0.7 0.3 1.6-0.1 0.6-0.3 1.1-0.3 0.5-0.6 0.9-0.4 0.5-0.9 0.8-0.5 0.2-1.1 0.4 0.4 0.9 0.7 1.6 0.3 0.8 0.7 1.4 0.3 0.7 0.5 1.2 0.2 0.5 0.4 0.7 0.2 0.4 0.4 0.6l0.4 0.3 0.5 0.2q0.3 0.1 0.7 0.2l-0.1 0.5q-0.3-0.1-1-0.1-0.6-0.1-1.3-0.1-0.4-0.1-0.6-0.1h-0.4q-0.1-0.3-0.3-0.8-0.3-0.6-0.6-1.3-0.3-0.8-0.7-1.6-0.4-0.9-0.8-1.8l-0.2-0.2-0.1-0.2-0.3-0.2h-0.3-0.2l-0.3-0.1h-0.4l-0.3 4.1q0 0.4 0 0.6l0.2 0.3q0.2 0.2 0.5 0.3 0.3 0.1 1 0.2l-0.1 0.5q-0.7-0.1-1.3-0.1-0.7-0.1-1.5-0.2-0.4 0-0.7 0-0.3 0-0.6-0.1h-0.5-0.5v-0.5q0.5 0 0.9-0.1l0.5-0.2q0.1-0.2 0.2-0.5 0.1-0.3 0.2-0.8l0.7-8.8v-0.5l-0.2-0.4q-0.2-0.1-0.5-0.2-0.3-0.1-0.9-0.2zm4 6.5q1.1 0 1.9-0.5 0.9-0.6 1-2.2 0.1-1.4-0.6-2-0.8-0.7-2-0.8h-0.4l-0.4 0.2-0.2 0.3v0.5l-0.4 4.4 0.2 0.1h0.3 0.2zm36.1-6.6v0.5q-0.5 0.1-0.9 0.2-0.3 0.1-0.5 0.3-0.2 0.2-0.2 0.5 0 0.3 0 0.8l1 8.8q0 0.3 0.1 0.5l0.3 0.3q0.2 0.2 0.5 0.2 0.4 0 1 0v0.5q-0.3 0.1-0.6 0.1-0.3 0-0.6 0-0.4 0-0.7 0.1-0.4 0-0.8 0-0.5 0-0.7 0.1h-0.6l-0.5 0.1h-0.5v-0.5q0.4 0 0.7-0.2l0.4-0.3 0.2-0.5q0-0.3-0.1-0.8l-0.9-8.3q-0.9 2.7-1.8 5.4-0.9 2.8-1.7 5.6l-0.7 0.1q-0.5-0.9-2.1-3.9-1.7-3-3.1-5.7l0.2 7.4q0 0.6 0.1 1 0.1 0.3 0.3 0.5 0.2 0.2 0.5 0.2 0.3 0 0.8 0v0.6c-0.2 0-0.6 0-0.9 0q-0.5 0-1.2 0.1-0.5 0-1 0.1-0.6 0-1 0.1l-0.1-0.5q0.5-0.1 0.9-0.2 0.3-0.1 0.5-0.3 0.2-0.3 0.2-0.7 0.1-0.5 0-1.3l-0.2-6.8q0-0.5 0-0.8-0.1-0.3-0.2-0.5l-0.1-0.5-0.3-0.2q-0.3-0.3-0.7-0.3-0.4-0.1-0.8-0.1v-0.1q-0.4 0.1-0.7 0.1-0.3 0.1-0.5 0.3-0.2 0.3-0.3 0.7-0.1 0.5-0.1 1.3l-0.1 9.9-0.7 0.1q-0.3-0.5-0.7-1c-0.2-0.3-0.4-0.6-0.7-0.9l-7-8.3-0.1 7.6q0 0.6 0.1 1 0 0.3 0.2 0.5 0.2 0.2 0.6 0.2 0.3 0.1 0.9 0.1l-0.1 0.6q-0.4-0.1-1-0.1-0.6 0-1.2 0-0.6 0-1.1 0-0.6 0-1 0v-0.5q0.5 0 0.8-0.1 0.4 0 0.6-0.3 0.2-0.2 0.3-0.7 0.1-0.4 0.1-1.2v-6.6q0-0.5 0-0.9 0-0.3-0.1-0.5l-0.1-0.4-0.2-0.3-0.2-0.3-0.3-0.2-0.5-0.1q-0.2 0-0.6-0.1l0.1-0.5q0.1 0 0.4 0 0.3 0 0.7 0 0.4 0.1 0.9 0.1 0.6 0 0.9 0l8.2 9.7 0.1-7.3q0-0.6-0.1-1 0-0.3-0.2-0.5-0.2-0.2-0.6-0.3c-0.2 0-0.5-0.1-0.8-0.1v-0.5q0.4 0 1 0 0.6 0.1 1.2 0.1 0.3 0 0.6 0h0.5l0.5-0.1h0.5v0.1h0.3q0.4-0.1 0.9-0.1 0.4 0 1-0.1 0.6 0 1 0 0.3 0.5 0.6 1.1 0.2 0.5 0.5 1l4.3 7.8 2.8-8.5q0.2-0.5 0.3-1 0.2-0.6 0.4-1.1 0.2 0 0.8-0.1 0.6 0 1.1-0.1 0.5 0 1 0 0.4-0.1 0.6-0.1zm9.1-1.5q0 0.7 0.1 1.4 0.1 0.8 0.2 1.6l-0.6 0.1q-0.2-0.7-0.4-1.1c-0.1-0.3-0.3-0.5-0.5-0.6q-0.3-0.2-0.8-0.3-0.4 0-1.1 0.1l-1.6 0.2q-0.4 0.1-0.5 0.2-0.1 0.1-0.1 0.4l0.7 4.5 4.2-0.8 0.1 0.1 0.2 1.1q-1.2 0.1-2.3 0.2-1.1 0.1-2.1 0.2l0.6 3.9q0.1 0.5 0.2 0.8l0.3 0.4q0.2 0.1 0.5 0.1 0.4 0 0.9 0l0.7-0.2q0.8-0.1 1.3-0.3 0.4-0.2 0.7-0.5 0.3-0.3 0.5-0.9 0.2-0.5 0.3-1.2h0.6q0 0.4 0 0.9-0.1 0.4-0.1 0.8 0 0.5 0 0.8 0 0.4 0 0.6-2.6 0.4-4.2 0.7-1.6 0.2-2.4 0.3-0.4 0.1-0.7 0.1-0.3 0.1-0.6 0.1-0.4 0.1-0.7 0.1-0.3 0.1-0.5 0.1l-0.1-0.4q0.5-0.2 0.9-0.3 0.3-0.1 0.5-0.4l0.2-0.5q0-0.3 0-0.8l-1.4-8.7q0-0.4-0.1-0.5l-0.3-0.4q-0.2-0.1-0.5-0.1-0.4 0-0.9 0.1l-0.1-0.5q0.3-0.1 0.6-0.1 0.3-0.1 0.7-0.1 0.3-0.1 0.7-0.1 0.3 0 0.6-0.1 0.5-0.1 2.1-0.3 1.7-0.3 4.2-0.7zm-71.7-2.4q0.5 0.1 1.2 0.3 0.6 0.1 1.4 0.3 0.7 0.1 1.3 0.2 0.6 0.1 1.1 0.3l-0.1 0.4q-0.7-0.1-1 0-0.4 0-0.4 0.4l-0.1 0.3 0.1 0.5 1.2 8.8 4.8-7.4 0.2-0.5 0.2-0.4v-0.2l-0.2-0.3-0.5-0.2q-0.2-0.1-0.7-0.2l0.2-0.5q0.5 0.1 1 0.3 0.6 0.1 1.2 0.2 0.5 0.1 1 0.2l0.6 0.1q0.3 0 0.6 0.1 0.3 0 0.6 0.1 0.4 0 0.7 0.1 0.4 0 0.7 0.1 0.5 0 2.1 0.3 1.7 0.2 4.2 0.6-0.2 0.6-0.3 1.3-0.1 0.8-0.3 1.6l-0.6-0.1q0-0.7-0.1-1.1 0-0.5-0.3-0.8-0.2-0.3-0.6-0.5-0.4-0.1-1.1-0.2l-1.6-0.3q-0.4 0-0.5 0-0.2 0.1-0.2 0.4l-0.7 4.5 4.3 0.5 0.1 0.1-0.2 1.1q-1.2-0.3-2.2-0.5-1.1-0.2-2.1-0.3l-0.5 3.9q-0.1 0.4-0.1 0.7l0.2 0.5q0.1 0.2 0.4 0.3 0.3 0.1 0.9 0.2l0.7 0.1q0.8 0.1 1.3 0 0.5 0 0.9-0.3 0.3-0.2 0.6-0.6 0.4-0.5 0.8-1.1l0.5 0.2q-0.1 0.3-0.3 0.7-0.1 0.5-0.3 0.9-0.1 0.4-0.2 0.7-0.1 0.4-0.2 0.6-2.6-0.3-4.2-0.6-1.6-0.2-2.4-0.4-0.4 0-0.7 0-0.3-0.1-0.6-0.1-0.4-0.1-0.7-0.1-0.3-0.1-0.6-0.1l0.1-0.5q0.6 0.1 1 0.1 0.4-0.1 0.6-0.2l0.3-0.5q0.1-0.3 0.2-0.8l1.2-8.7q0.1-0.3 0.1-0.6l-0.2-0.3q-0.2-0.2-0.5-0.3l-0.4-0.1q-0.5-0.1-0.9-0.1-0.3 0.1-0.6 0.2-0.3 0.2-0.6 0.6-0.2 0.3-0.6 0.9-1.6 2.3-3.1 4.6-1.5 2.2-3 4.5l-0.9-0.1q-0.4-2.8-0.8-5.6-0.4-2.7-0.8-5.6-0.1-0.5-0.2-0.9-0.1-0.4-0.3-0.6l-0.4-0.3q-0.3-0.2-0.8-0.3zm-8.1-2.3q1 0 2.1 0.3 1.5 0.4 2.5 1.2 1.1 0.8 1.7 1.8 0.6 1.1 0.7 2.4c0.1 0.8 0 1.7-0.3 2.7q-0.4 1.4-1.2 2.4-0.8 1.1-1.9 1.7-1.1 0.6-2.4 0.8-1.2 0.1-2.7-0.3-1.5-0.5-2.5-1.2-1.1-0.8-1.7-1.8-0.6-1.1-0.7-2.4-0.1-1.3 0.3-2.7 0.4-1.4 1.2-2.4 0.8-1.1 1.9-1.7 1.1-0.7 2.3-0.8 0.3 0 0.7 0zm0 12.5h0.2q0.9-0.1 1.7-0.5 0.8-0.5 1.5-1.4 0.7-0.9 1.1-2.3 0.5-1.8 0.4-3-0.1-1.3-0.6-2.2-0.4-0.9-1.1-1.4-0.8-0.5-1.4-0.7-0.7-0.2-1.6-0.2-0.9 0-1.7 0.5-0.8 0.5-1.4 1.4-0.7 0.9-1.1 2.3-0.5 1.7-0.4 3 0.1 1.3 0.5 2.2 0.5 0.9 1.2 1.4 0.7 0.5 1.4 0.7 0.5 0.2 1.3 0.2zm104.2-14q0.1 0.5 0.2 0.9 0.1 0.4 0.2 0.7 0 0.4 0.2 0.8 0 0.3 0.2 0.8l-0.5 0.2q-0.4-0.7-0.6-1.1-0.3-0.4-0.7-0.7-0.3-0.2-0.8-0.2-0.4 0-1.1 0.2l-1.5 0.4 3 9.9 0.2 0.5 0.3 0.3q0.2 0.1 0.6 0 0.4 0 1-0.2l0.1 0.5q-0.2 0.1-0.5 0.2-0.4 0.1-0.8 0.2-0.3 0.1-0.7 0.2-0.4 0.1-0.7 0.2-0.4 0.1-0.7 0.2l-0.6 0.2-0.6 0.2q-0.3 0.1-0.6 0.2l-0.1-0.5q0.5-0.2 0.9-0.4 0.3-0.1 0.4-0.4 0.1-0.2 0.1-0.5 0-0.3-0.2-0.8l-2.8-9.4-1.4 0.4q-0.7 0.2-1.1 0.4-0.4 0.3-0.6 0.7-0.1 0.3-0.1 0.9 0 0.5 0.1 1.2l-0.6 0.1-0.2-0.8q-0.2-0.6-0.4-1.1-0.1-0.3-0.2-0.6-0.3 0.1-0.6 0.2l-0.4 0.4q-0.1 0.3-0.1 0.7 0 0.5 0.2 1.2l2.1 9.7-0.7 0.3q-0.4-0.4-0.8-0.8-0.5-0.3-0.9-0.7l-8.8-6.6 1.7 7.5q0.1 0.6 0.2 0.9 0.2 0.3 0.4 0.5 0.2 0.1 0.6 0.1 0.3 0 0.9-0.1v0.5q-0.4 0.1-0.9 0.2-0.6 0.1-1.2 0.3-0.6 0.1-1.1 0.2-0.5 0.1-1 0.2l-0.1-0.4q0.5-0.2 0.8-0.3 0.3-0.2 0.5-0.4 0.1-0.3 0.1-0.8 0-0.4-0.2-1.2l-1.4-6.4q-0.1-0.5-0.2-0.9-0.1-0.3-0.2-0.5l-0.2-0.3-0.3-0.3-0.3-0.2-0.3-0.1-0.5-0.1q-0.2 0-0.6 0.1l-0.1-0.5 0.5-0.1q0.3 0 0.7-0.1 0.4-0.1 0.9-0.2 0.5-0.1 0.8-0.2l10.2 7.6-1.6-7.1q-0.1-0.7-0.2-1-0.2-0.3-0.4-0.4-0.3-0.2-0.6-0.1-0.3 0-0.9 0.1l-0.1-0.5q0.5-0.1 1-0.2 0.6-0.2 1.2-0.3 0.3-0.1 0.6-0.1l0.5-0.2 0.5-0.1h0.1v-0.1q0.8-0.2 1.5-0.4 0.7-0.2 1.4-0.4 0.7-0.2 1.3-0.4 0.6-0.2 1.2-0.3 0.5-0.2 1.2-0.4 0.5-0.2 1.2-0.4 0.7-0.2 1.5-0.4 0.7-0.2 1.5-0.5zm-117.1-2.6q0.3 0 0.7 0 1.4 0.1 3 0.7 0.4 0.1 0.8 0.3 0.5 0.3 0.9 0.5 0.5 0.2 0.9 0.5 0.4 0.3 0.8 0.5-0.4 0.8-0.7 1.5-0.3 0.7-0.6 1.5l-0.6-0.2q0.3-0.8 0.2-1.4-0.1-0.7-0.4-1.2-0.3-0.5-0.8-0.9-0.5-0.4-1.2-0.6-1.1-0.4-2.2-0.4-1.1 0-2 0.5-0.8 0.4-1.5 1.3-0.7 0.9-1.1 2.1-0.5 1.1-0.6 2.3-0.1 1.2 0.3 2.2 0.3 1 1.1 1.8 0.8 0.8 1.8 1.2 0.2 0 0.5 0.1 0.4 0.1 0.8 0.2 0.5 0 0.9 0 0.3-0.1 0.4-0.3l0.9-2.4 0.2-0.5-0.2-0.5q-0.2-0.2-0.6-0.4-0.4-0.2-1-0.5l0.2-0.5q0.3 0.1 0.6 0.3 0.4 0.1 0.7 0.2 0.4 0.2 0.7 0.3 0.3 0.2 0.8 0.3 0.2 0.1 0.5 0.2 0.4 0.1 0.6 0.2l0.5 0.2 0.4 0.2-0.1 0.4c-0.3 0-0.4-0.1-0.6-0.1l-0.5 0.1-0.3 0.4q-0.2 0.3-0.3 0.8l-0.3 0.8q-0.3 0.5-0.4 1.1-0.3 0.5-0.3 0.9-1.1-0.1-2.3-0.3-1.2-0.2-2.1-0.6-1.6-0.5-2.6-1.4-1.1-0.9-1.7-2-0.6-1.2-0.6-2.5-0.1-1.3 0.4-2.7 0.6-1.5 1.6-2.5 1-1 2.3-1.4 1-0.3 2.1-0.3zm130.6-2.6q0.2 0.5 0.3 0.9 0.1 0.4 0.2 0.7 0.1 0.4 0.3 0.7 0.1 0.4 0.3 0.8l-0.5 0.2q-0.4-0.6-0.7-1-0.3-0.4-0.7-0.6-0.4-0.2-0.8-0.1-0.5 0-1.2 0.3l-1.3 0.5 3.7 9.6 0.3 0.5 0.3 0.2q0.3 0.1 0.6 0 0.4-0.1 1-0.3l0.2 0.5q-0.3 0.1-0.6 0.2-0.3 0.1-0.7 0.3-0.3 0.1-0.7 0.3-0.4 0.1-0.7 0.2-0.4 0.2-0.7 0.3l-0.6 0.2-0.6 0.3-0.5 0.2-0.2-0.4q0.6-0.3 0.9-0.5 0.3-0.2 0.4-0.4 0.1-0.3 0-0.6 0-0.3-0.2-0.8l-3.6-9.1-1.4 0.5q-0.6 0.3-1 0.6-0.4 0.3-0.5 0.6-0.2 0.4-0.1 1 0 0.5 0.1 1.2l-0.5 0.1-0.3-0.7q-0.2-0.6-0.4-1.1-0.2-0.5-0.6-1.1 0.8-0.3 1.5-0.6 0.7-0.3 1.4-0.5 0.7-0.3 1.2-0.5 0.6-0.2 1.2-0.5 0.5-0.2 1.1-0.4 0.6-0.3 1.2-0.5 0.7-0.3 1.4-0.6 0.8-0.3 1.5-0.6zm7.4-2.9q0.7 0 1.3 0.4 0.6 0.4 1 1.2 0.2 0.5 0.3 1.1 0.1 0.6 0 1.1-0.2 0.6-0.5 1.1-0.2 0.5-0.7 0.9 0.8 0.6 1.5 1.1 0.6 0.5 1.2 0.9 0.6 0.4 1 0.7 0.5 0.3 0.8 0.4 0.4 0.2 0.6 0.3l0.5 0.1h0.5q0.3-0.1 0.8-0.3l0.1 0.5q-0.3 0.2-0.9 0.4-0.6 0.3-1.2 0.6-0.3 0.1-0.5 0.2l-0.4 0.2q-0.2-0.2-0.7-0.5-0.5-0.4-1.1-0.9-0.7-0.5-1.5-1-0.7-0.6-1.6-1.1l-0.2-0.2-0.2-0.1h-0.3l-0.3 0.1-0.2 0.1-0.3 0.1-0.3 0.2 1.8 3.8 0.2 0.4 0.4 0.3c0.1 0 0.3 0 0.6-0.1q0.3 0 0.9-0.3l0.2 0.5q-0.6 0.2-1.3 0.5-0.6 0.3-1.3 0.7-0.3 0.1-0.6 0.2l-0.5 0.3-0.5 0.2-0.4 0.2-0.3-0.4q0.5-0.2 0.7-0.5l0.3-0.4v-0.5q0-0.3-0.2-0.8l-3.8-8-0.3-0.4-0.3-0.3q-0.2 0-0.6 0.1-0.3 0-0.8 0.3l-0.2-0.5 0.4-0.2 0.6-0.3q0.3-0.1 0.6-0.3 0.4-0.1 0.7-0.3 0.6-0.3 1.1-0.6 0.4-0.3 0.8-0.4 0.8-0.4 1.6-0.6 0.6-0.2 1.2-0.2zm-1.5 7l0.2-0.1 0.2-0.1 0.2-0.1q1.2-0.5 1.7-1.6 0.5-0.9-0.2-2.4-0.6-1.2-1.6-1.4-1-0.2-2 0.3l-0.4 0.2-0.2 0.4v0.4l0.2 0.4zm-152.5-9.2l0.5 0.3 0.6 0.3q0.3 0.1 0.6 0.3 0.4 0.2 0.6 0.3 0.5 0.2 2 0.9 1.5 0.7 3.8 1.9-0.4 0.5-0.7 1.2-0.4 0.6-0.8 1.4l-0.5-0.3q0.2-0.7 0.3-1.1 0-0.5-0.1-0.8-0.1-0.4-0.4-0.7-0.4-0.3-1-0.5l-1.5-0.8q-0.4-0.1-0.5-0.1-0.1 0-0.3 0.3l-1.9 4.1 3.9 1.7v0.1l-0.5 1q-1-0.6-2-1.1-0.9-0.5-1.8-0.9l-1.7 3.5q-0.2 0.4-0.3 0.7v0.5l0.3 0.4q0.3 0.2 0.8 0.5l0.7 0.3q0.7 0.3 1.2 0.4 0.5 0.1 0.9 0 0.4-0.1 0.8-0.4 0.5-0.4 1.1-0.9l0.4 0.4q-0.2 0.3-0.5 0.6-0.3 0.4-0.5 0.7-0.3 0.4-0.5 0.7l-0.3 0.5q-2.4-1.1-3.9-1.9-1.4-0.7-2.2-1-0.3-0.2-0.5-0.3-0.4-0.2-0.7-0.3-0.3-0.1-0.6-0.3-0.3-0.1-0.5-0.2l0.2-0.5q0.6 0.3 0.9 0.4 0.4 0 0.7 0l0.4-0.4q0.2-0.2 0.4-0.7l3.9-7.9 0.2-0.5-0.1-0.5-0.4-0.4q-0.2-0.2-0.7-0.4zm168.2-6.1l0.2 0.4q-0.4 0.3-0.7 0.6l-0.4 0.5q-0.1 0.3 0.1 0.7 0.1 0.4 0.4 1l2.8 4.9q0.6 1.1 0.7 2.1 0 1-0.3 1.8-0.4 0.9-1 1.5-0.7 0.7-1.5 1.2-0.8 0.4-1.6 0.6-0.9 0.3-1.7 0.1-0.9-0.2-1.6-0.6-0.7-0.5-1.2-1.5l-3.5-6.1-0.3-0.4-0.4-0.2q-0.2-0.1-0.6 0-0.3 0.1-0.9 0.4l-0.2-0.4 0.5-0.3q0.3-0.2 0.6-0.3 0.3-0.2 0.7-0.4 0.3-0.2 0.7-0.4 0.4-0.2 0.6-0.4l0.6-0.3 0.5-0.3 0.5-0.3 0.3 0.4q-0.5 0.3-0.8 0.6l-0.3 0.5q-0.1 0.3 0 0.6 0.1 0.3 0.3 0.8l3 5.2q0.4 0.8 1 1.3 0.6 0.4 1.3 0.5 0.7 0.1 1.3 0 0.7-0.1 1.2-0.4 0.6-0.4 1.1-0.9 0.4-0.5 0.6-1.1 0.3-0.7 0.1-1.5-0.1-0.8-0.7-1.7l-2.6-4.8q-0.3-0.5-0.5-0.7l-0.6-0.4q-0.3 0-0.7 0.1-0.3 0.1-0.9 0.4l-0.2-0.5q0.4-0.2 0.9-0.5 0.6-0.3 1.2-0.7 0.5-0.2 1.1-0.6 0.5-0.3 0.9-0.5zm6.4-4q0.2 0.4 0.3 0.7 0.2 0.3 0.4 0.6l0.4 0.6q0.2 0.3 0.4 0.7l-0.5 0.4q-0.8-1.2-1.8-1.3-1-0.2-2 0.5-0.3 0.2-0.6 0.5-0.2 0.3-0.3 0.7-0.1 0.4-0.1 0.8 0.1 0.4 0.4 0.8 0.3 0.5 0.7 0.8 0.4 0.2 0.9 0.3 0.4 0 0.9-0.1 0.5-0.1 1.1-0.1 0.7-0.2 1.5-0.2 0.8-0.1 1.4 0.1 0.6 0.1 1.2 0.5 0.6 0.3 1 1 0.5 0.7 0.6 1.5 0 0.8-0.2 1.5-0.3 0.8-0.8 1.4-0.6 0.7-1.3 1.1-0.6 0.4-1.4 0.7-0.7 0.3-1.6 0.6-0.5-0.7-1.1-1.2-0.5-0.6-1.1-1.2l0.4-0.5q0.6 0.5 1.2 0.8 0.5 0.3 1.1 0.5 0.6 0.1 1.2 0 0.6-0.1 1.2-0.5 0.4-0.3 0.6-0.6 0.3-0.4 0.4-0.8 0.1-0.5 0-0.9-0.1-0.5-0.3-0.9-0.4-0.6-0.8-0.8-0.5-0.2-1-0.3-0.4 0-1 0-0.4 0.1-1 0.2-0.7 0-1.4 0.1-0.7 0.1-1.4 0-0.7-0.2-1.2-0.5-0.6-0.3-1-1-0.5-0.7-0.5-1.4-0.1-0.7 0.2-1.4 0.2-0.7 0.8-1.3 0.5-0.7 1.2-1.1 0.7-0.5 1.4-0.8 0.7-0.2 1.5-0.5zm-196.2-3.2q0.7 0.5 1.3 0.9 0.7 0.4 1.2 0.8 0.6 0.4 1.1 0.8 0.5 0.3 1 0.7 0.5 0.3 1.1 0.7 0.5 0.3 1.1 0.7 0.6 0.4 1.2 0.8 0.7 0.5 1.4 0.9h-0.1l0.5 0.3 0.6 0.4 0.6 0.3 1.2 0.7 0.5 0.3 0.5 0.3 0.4 0.2-0.2 0.4q-0.5-0.2-0.8-0.3h-0.5l-0.4 0.4q-0.3 0.2-0.5 0.6l-1.7 3 5.8 3.3 2-3.4 0.2-0.4v-0.4l-0.3-0.5q-0.3-0.2-0.8-0.5l0.3-0.4 0.5 0.3 0.5 0.3q0.3 0.1 0.7 0.4 0.4 0.2 0.6 0.4l0.6 0.3 0.5 0.3 0.5 0.2 0.4 0.3-0.2 0.4q-0.5-0.2-0.8-0.3h-0.5l-0.5 0.3q-0.2 0.2-0.4 0.7l-4.4 7.6-0.2 0.5v0.4l0.3 0.5q0.3 0.2 0.7 0.5l-0.3 0.4-0.4-0.3-0.6-0.3q-0.2-0.2-0.6-0.4-0.3-0.2-0.6-0.3-0.4-0.3-0.7-0.4l-0.5-0.3-0.5-0.3-0.4-0.2 0.3-0.4q0.4 0.2 0.7 0.3h0.6l0.4-0.3q0.2-0.3 0.5-0.7l2-3.6-5.8-3.3-2.3 4-0.2 0.5v0.4l0.3 0.4q0.2 0.2 0.7 0.5l-0.3 0.4-0.4-0.2-0.5-0.3q-0.3-0.2-0.7-0.5-0.4-0.2-0.7-0.3l-0.5-0.4-0.6-0.2-0.5-0.3-0.3-0.2 0.2-0.5q0.4 0.3 0.7 0.3 0.4 0.1 0.6 0l0.4-0.3q0.2-0.2 0.5-0.6l4.4-7.7 0.2-0.5v-0.4l-0.3-0.4q-0.3-0.2-0.8-0.5l0.3-0.4q-0.3 0.4-0.5 0.6-0.3 0.3-0.5 0.6-0.2 0.3-0.4 0.6-0.2 0.3-0.5 0.7l-0.5-0.3q0.3-0.6 0.5-1.1 0.2-0.5 0.1-0.9 0-0.4-0.3-0.8-0.3-0.3-1-0.7l-1.2-0.9-5.7 8.6-0.3 0.5v0.4l0.3 0.5q0.3 0.2 0.8 0.6l-0.3 0.4-0.5-0.4q-0.3-0.2-0.6-0.4-0.3-0.2-0.6-0.4-0.4-0.3-0.6-0.4-0.4-0.3-0.6-0.4l-0.6-0.4-0.5-0.3-0.5-0.3 0.3-0.5q0.5 0.4 0.8 0.5 0.4 0.1 0.7 0.1l0.4-0.3q0.3-0.2 0.5-0.6l5.5-8.2-1.2-0.8q-0.6-0.4-1-0.5-0.5-0.2-0.9-0.1-0.4 0.1-0.8 0.4-0.4 0.4-0.9 0.9l-0.4-0.3 0.5-0.7q0.3-0.5 0.6-1 0.3-0.5 0.6-1.1zm205.7-3.9q0.2 0.4 0.4 0.8 0.2 0.3 0.4 0.6 0.2 0.3 0.4 0.6 0.3 0.4 0.5 0.7l-0.4 0.4q-0.5-0.5-0.9-0.9-0.4-0.3-0.8-0.4-0.4-0.1-0.9 0.1-0.4 0.2-1 0.6l-1.2 0.9 6.1 8.3 0.4 0.4 0.4 0.1q0.2 0 0.5-0.1 0.4-0.2 0.9-0.6l0.3 0.5-0.5 0.3-0.6 0.4q-0.3 0.3-0.7 0.5-0.3 0.3-0.6 0.5-0.3 0.2-0.5 0.4l-0.5 0.4-0.5 0.3-0.5 0.4-0.3-0.4q0.5-0.4 0.7-0.6l0.3-0.6-0.1-0.5q-0.1-0.3-0.4-0.7l-5.8-8-1.2 0.9q-0.6 0.4-0.9 0.8-0.3 0.4-0.3 0.8-0.1 0.4 0.1 0.9 0.2 0.5 0.5 1.1l-0.5 0.3-0.4-0.7q-0.4-0.4-0.7-0.9-0.4-0.4-0.8-0.9 0.6-0.5 1.2-1 0.7-0.4 1.2-0.8 0.6-0.5 1.1-0.8 0.5-0.4 1-0.7 0.5-0.4 1-0.7 0.5-0.4 1.1-0.8 0.5-0.5 1.2-0.9 0.6-0.5 1.3-1z"/><path fill-rule="evenodd" d="m200.1 400c-110 0-198.9-89-198.9-199 0-110 88.9-198.9 198.9-198.9 110.1 0 199 88.9 199 198.9 0 110-88.9 199-199 199zm191.4-199c0-105.8-85.5-191.4-191.4-191.4-105.8 0-191.3 85.6-191.3 191.4 0 105.8 85.5 191.4 191.3 191.4 105.9 0 191.4-85.6 191.4-191.4z"/><path  d="m58 190.4q-1.4-1.4-2.6-1.4-1.6 0.1-2.4 1.9l-1.6 3.5q-0.4 0.9-0.5 1-0.3 0.3-0.9 0.4-0.6 0-1.4-0.9l-1.9-1.9q-0.9-0.8-0.9-1.3 0-0.5 1.5-1.3l5.2-2.7q2.4-1.2 2.3-3.6v-0.5h0.4l0.2-1.4q0.1-1 1.8-2.2 1.8-1.3 3.1-1.4l-2.8-3.7q-0.8-1.1-1.2-1.4-0.7-0.5-1.8-0.7-0.9-0.1-2.8 0.6l-3 1.1q-2 0.8-2.7 0.7-0.7-0.1-1.7-0.5 1.1 1.4 2.3 2.9 1 1.2 2.4 1.3 0.7 0.1 3-0.7l2-0.8q1.6-0.5 2-0.4 0.5 0 0.9 0.5-1.7 1.3-2.5 1.9c-0.6 0.4-1 0.8-1.3 1.2h-1.5v1q0 1.6-1.7 2.5l-6.5 3.3q-1.8 1-2.6 1-0.7 0-1.7-0.3l9.2 9.2q2.1 2.1 3 2.1 1 0 1.5-0.5 0.3-0.3 0.8-1.3l1.9-4.1q0.5-1 1.5-1 0.4-0.1 1 0.5l1 1.1q1.3 1.2 1.3 1.5 0 0.5-1.5 2l-5.8 5.9q-1.2 1.3-1.8 1.3-0.5 0-1.9-0.8l-1.7-0.9 3.9 4q1.1 1 2 1 0.5 0 1.9-1.4l6.9-7.2q1.3-1.2 1.3-2.4 0-1-1.3-2.3z"/><path  d="m62.4 185.6q-0.8 0.8-1.6 0.9 2.1 2.4 2.6 2.4 0.6 0 1-0.9 0.6-1.4 1.6-2.2-1.7-1.1-2.2-1.1-0.7 0-1.4 0.9z"/><path  d="m63.3 184q0.7 0 1.1-1 0.5-1.3 1.6-2.2-1.8-1-2.3-1-0.7 0-1.4 0.8-0.8 0.8-1.5 0.9 2 2.5 2.5 2.5z"/><path  d="m40.5 179.4q0.6 0.1 1.1-0.8 0.7-1.3 1.9-2-1.6-1.2-2.1-1.3-0.7-0.1-1.5 0.7-0.8 0.7-1.6 0.7 1.7 2.7 2.2 2.7z"/><path fill-rule="evenodd" d="m65.9 167.4q1.5 2.3 0.8 5.3-0.1 0.8-0.5 1.3 0-0.5-0.1-1.4-0.3-1.8-1.8-4.1l-2.7-4.5q-0.6-1-1.1-1.1-0.4-0.1-1.6 0.7l-3.9 2.5q-0.9 0.6-1.1 0.7-0.5 0.2-1.3 0-1-0.2-1.9-1.6l-5.9-9.2q0.7 0.3 1.4 0.5 1 0.2 3.5-0.4l3.1-0.8q2.6-0.7 4.1-0.4 1.4 0.4 2.7 2.3zm-7.1-7.5q-0.8-1.5-1.5-1.7-0.6-0.1-1.5 0.1l-3.7 1.1q-0.7 0.1-1 0.1-0.6-0.2-0.9-0.3 1 1.8 1.8 2 0.6 0.1 1.6-0.2l3.2-1q1-0.2 1.5-0.2 0.3 0 0.5 0.1z"/><path  d="m51.5 127.7q0.8 3.2 1.2 3.4 0.6 0.3 1.4-0.4 1-1 2.4-1.3-1.2-1.7-1.6-2-0.6-0.2-1.7 0.2-1 0.4-1.7 0.1z"/><path  d="m56.1 126.2q1.1-1 2.4-1.3-1.1-1.7-1.6-2-0.6-0.2-1.6 0.2-1 0.4-1.8 0.1 0.8 3.2 1.3 3.4 0.6 0.3 1.3-0.4z"/><path  d="m84.5 102.5q-0.6-0.1-1.8-1l-18.1-13.9q1.1 4.9 0.2 6.1 5 0.7 6 1.5l10.4 8q0.4 0.3 0.4 0.8 0.1 0.6-0.1 0.9l-0.2 0.4-0.6-0.4-1.4 2.4-3.7-0.4q-1.8-0.2-2.1 0.3l-5.2 8.5q-0.7 1.2-2.1 1l-0.8-0.1q-0.4 0-1.1-0.4-0.4-0.3-0.8-2.2l-1.1-4.9q-0.6-2.9-2.4-4-1.4-0.8-3.8-1l-4.8-0.4 2.1 8.8q0.2-1.2 0.3-2.3 0.3-1.5 0.8-2.4 1.6-2.7 4.4-0.9 1.2 0.7 1.7 3.1l2.6 11.6q0.6 2.7 0.9 2.8 0.9 0.6 1.8 0.3 0.7-0.2 1.1-0.9l8.1-13.3 2 0.2-10.2 16.6 0.4 0.3-0.2 0.5q-0.5 0-1.6 0l-3.2 0.1q-2.1 0.1-2.8-0.3-0.6-0.3-1.4-0.9 0.6 1.7 1.2 3.4 0.7 1.5 1.9 2 0.7 0.4 3.1 0.3l2.2-0.1q1.6 0 2 0.2 0.4 0.2 0.7 0.7-2.1 0.8-3 1.1-1.3 0.5-2 0.9l-0.8-0.3-0.9 2.7-0.4-0.2q-1.1-0.3-3.6 0l-3.2 0.4q-2 0.2-2.8 0-0.7-0.2-1.5-0.8 0.8 1.6 1.6 3.3 0.7 1.4 2 1.9 0.7 0.2 3.1-0.1l2.2-0.3q2.3-0.3 2.5-0.2 1 0.3 2 2.5l3.8 8.2q1.2 2.4 1.3 4.3 0 0.9-0.1 1.4 0.4-0.5 0.7-1.2 1-2.9-0.2-5.4l-5.1-10.8 0.8-2 0.7-1.4q0.4-0.9 2.4-1.5 2-0.6 3.3-0.3l-1.4-4.4q-0.4-1.1-0.7-1.6l1.4-3.1-0.1-0.1 10.7-17.5 0.3 0.2 3.7-4.8q0.9-1.2 0.6-2.8-1.3 1-2.1 0.9z"/><path  d="m92.2 88.9l-8.7-2.6q-3.1-0.8-3.6-1-1.5-0.5-2.4-1.4l-5.5-5q0.6 4.9-0.4 6 4.9 1.1 5.9 2.1l0.7 0.6q0.7 0.7 4.7 1.8l6.6 1.9q1.6 0.4 1.9 0.7 0.6 0.5-0.1 1.2l-0.7 0.7q-0.7 0.8-1.2 0.4-0.1-0.1-0.2-2.4l-1.8-0.4v2.4q0 2.7-0.9 3.9l1.7 1.6q1 0.9 2.7-1l5.9-6.4-1-1q-1.8-1.6-3.6-2.1z"/><path  d="m82.8 81.2l2.7 2.5q1.4 1.3 1.5 2.8l2 0.6q-1.2-4.3-2.6-5.6l-9.1-8.4q0.5 5-0.4 6.1 4.9 1.1 5.9 2z"/><path  d="m102.1 83q-1.6-0.2-3.2-1.9l-13.7-15.4q0.2 4.8-1 6 4.8 1.6 5.7 2.6l9 10q1.6 1.8 3.1 1.7 1.4-0.2 3.7-2.2 2-1.9 2-2.5-1.4 0.6-2.2 1-2.1 0.8-3.4 0.7z"/><path  d="m122.9 54.4q1.5-0.1 2.7 0.4 0.1-2-0.1-2.5-0.3-0.5-1.4-0.8-1.1-0.3-1.5-1-1.3 3-1 3.5 0.3 0.5 1.3 0.4z"/><path  d="m121.1 54.7q-0.3-0.6-1.4-0.9-1-0.2-1.5-0.9-1.2 3-1 3.4 0.3 0.6 1.4 0.5 1.4-0.2 2.7 0.4 0.1-2-0.2-2.5z"/><path  d="m151.2 63.7q-1-0.4-1.4-1.1-1.5 2.8-1.3 3.3 0.2 0.6 1.2 0.6 1.5 0 2.6 0.8 0.4-2.1 0.2-2.6-0.2-0.6-1.3-1z"/><path  d="m146.6 65.6q-1-0.4-1.4-1.2-1.5 2.9-1.3 3.3 0.2 0.6 1.2 0.6 1.5 0.1 2.6 0.8 0.4-2 0.2-2.5-0.2-0.6-1.3-1z"/><path fill-rule="evenodd" d="m144.9 61.5q-1.9-1-2.8-0.6l-1.4 0.6-0.1-0.3-1.4 0.7-3.1 10q-0.5 1.8-1.4 2.2-1 0.6-2.8 0.1l-8.7-2.6q-1.9-0.6-2.1-1-0.4-0.8 0-2.3l1.7-5.3v2q0 1.6 0.2 2 0.3 0.5 2 1l7 2.2q2 0.5 2.4 0.3 0.3-0.1 0.8-1.8l0.5-1.5q0.2-0.7 0-1.1-0.3-0.5-2-1l-3.8-1.1q-1.7-0.4-2.3-1.5-0.4-0.8 0.1-2.4l3-10.2q0.2 1 0.5 1.6 0.4 0.7 2.1 1.9l3.7 2.5q1.7 1.2 2.2 2l0.1 0.3 2.3-1.2 0.6 1.1c0.5 0.1 1.1 0.3 1.8 0.6q0.9 0.4 2.9 1.3 0.2-0.6 0-1-0.1-0.4-1.3-1.5l-1.6-1.4q-1.8-1.7-2.1-2.4-0.5-1.2 0-2.7 0.8-1.7 1.5-3.4 0.1 1 0.4 1.7 0.3 0.7 1.8 2.1l2.4 2.1q1.5 1.4 1.9 2.3 0.4 1 0.2 1.8-0.1 0.5-0.7 1.8l-1.9 4.1q-0.7-1.1-2.6-2zm-7.7-0.9q-0.2-0.4-1-1l-3.2-2.1q-0.6-0.4-0.7-0.7-0.3-0.6-0.4-0.8-0.7 1.8-0.3 2.6 0.2 0.5 1.2 1.1l2.7 1.8q0.9 0.6 1.2 1l0.3 0.5q0.6-1.7 0.2-2.4z"/><path  d="m202.5 34.8q1.3 0.6 2.1 1.7 1.1-1.8 1.1-2.3 0-0.6-0.8-1.4-0.8-0.8-0.9-1.6-2.5 2.1-2.5 2.6 0 0.6 1 1z"/><path  d="m197.5 34.8q1.3 0.6 2.2 1.6 1.1-1.7 1.1-2.2 0-0.7-0.9-1.4-0.8-0.8-0.8-1.6-2.5 2-2.5 2.6 0 0.6 0.9 1z"/><path  d="m243.1 36.7q1.1 0.9 1.6 2.1 1.5-1.4 1.7-1.9 0.1-0.6-0.5-1.5-0.6-1-0.4-1.8-3 1.3-3.1 1.8-0.2 0.7 0.7 1.3z"/><path  d="m238.2 35.4q1.2 0.9 1.7 2.1 1.5-1.3 1.6-1.9 0.2-0.6-0.4-1.5-0.6-1-0.4-1.8-3 1.4-3.1 1.8-0.2 0.7 0.6 1.3z"/><path  d="m245.7 60.9q-3 1-3.2 1.5-0.2 0.6 0.5 1.3 1.1 1 1.5 2.3 1.6-1.3 1.8-1.8 0.2-0.6-0.3-1.6-0.5-1-0.3-1.7z"/><path  d="m250.4 62.6q-3.1 1-3.3 1.5-0.2 0.6 0.6 1.3 1 1 1.4 2.3 1.7-1.3 1.8-1.8 0.3-0.6-0.2-1.6-0.5-1-0.3-1.7z"/><path fill-rule="evenodd" d="m256.8 60.2l-2.2-0.8q-0.5 0.3-1.6 0.8l-4.3 1.8q0.2-1.3-0.5-3.3-0.8-2-1.7-2.3l-1.4-0.6-13.1-3.6q1.1-0.8 1.2-1.2 0.1-0.4 0-1.4-0.2-1 0-1.8 0.4-1.5 1.8-2.3l4.4-2.5-0.6-2.8 3.6-1.9 0.5 2.6 1.8-1q-0.8 1.2-1.1 2.3-0.2 0.8 0.4 4.1l1.4 6.2 3.1 0.9-0.2 0.6q0.5 0.7 1.1 2.1 0.4 0.9 1.3 2.9 0.5-0.3 0.7-0.8 0.1-0.4 0-2l-0.2-2.1q-0.3-2.5 0-3.2 0.4-1.2 1.8-2 1.7-0.7 3.4-1.5-0.6 0.8-0.9 1.5-0.2 0.7 0 2.8l0.3 3.2q0.1 1.1 0.1 1.5l0.8 0.3 0.1-0.1 1.3 0.6 0.5 0.2v-0.8q0-0.7 0.2-1.2 0.5-1 1.8-1.5l10.5-3.7q-1 1-1.5 2-0.3 0.8-0.3 3.6l0.3 10.5zm6.7-2.5l0.1 2.2q1.2 0.6 1.9 0.9v-3.2q-0.1-1.6 0.2-2.2-0.2 0.1-1.3 0.5-0.5 0.2-0.7 0.5-0.2 0.5-0.2 1.3zm-22.3-6.3l-0.7-3.2q-0.3-1.6-0.2-2.2-0.2 0.2-1.2 0.7-0.5 0.3-0.6 0.6-0.1 0.6 0.1 1.4l0.5 2.1q1.3 0.4 2.1 0.6z"/><path fill-rule="evenodd" d="m336 88l-17.8 14.2q-1.2 0.9-1.4 1.5-0.3 0.8 0.3 2.3-1.5-0.1-2.5-1.3l-3.8-4.7 0.1-0.1-0.4-0.4q-0.3 1.8 0.3 3.9 0.2 0.5 0.5 1.4-0.5-0.1-0.9-0.6-3.1-3.3-2.9-7.9l-7-7.5 0.1-0.1-15.8-13-3-1.8-11.7 2.6q-2.7 0.6-5.3-1-0.6-0.4-1-0.9 0.5 0.1 1.4 0.3 1.8 0.3 4.4-0.3l5.1-1.1q1.2-0.2 1.4-0.6 0.3-0.4 0-1.8l-1.2-4.5q-0.2-1-0.2-1.2 0-0.6 0.4-1.3 0.5-0.8 2.2-1.2l10.6-2.5q-0.6 0.5-0.9 1.1-0.6 0.9-0.8 3.4l-0.3 3.2q-0.2 2.5-0.8 3.5l-0.1 0.1 1.7 1.4 0.2 0.1h-0.1l13.1 10.7 0.4-1.9-12.1-9.9q-0.6-0.5-0.7-1.3-0.1-0.9 0.5-1.7 0.3-0.2 3-0.5l11.9-0.9q2.4-0.2 3.3-1.3 2-2.5-0.4-4.5-0.7-0.6-2.2-1.1-1.1-0.3-2.2-0.6l8.9-0.8-1 4.6q-0.6 2.4-1.5 3.6-1.4 1.7-4.4 1.9l-5 0.3q-1.9 0.2-2.2 0.6-0.5 0.6-0.5 1l-0.3 0.8q-0.4 1.3 0.7 2.2l7.7 6.3q0.5 0.4 0 2.1l-0.9 3.6 2.2 1.8-0.4 0.4 3.7 3.9 0.8-3.3q0.5-2.5-0.5-3.5-0.6-0.6-1.6-1l5.6 0.2q1.9 0 2.3 0.5 0.4 0.3-0.3 2.1l-3.1 8.5 3.3 3.5-0.2 0.2 0.4 0.5q0.3 0.3 0.9 0.4 0.6 0 0.9-0.3l10.2-8.1q1.1-0.9 3-5.6 0.9 1.2 5.9 1.4zm-53.4-22.8q0.4-0.6 0.5-0.8-1.9 0.3-2.4 1.1-0.3 0.5-0.4 1.5l-0.1 3.4q-0.1 1-0.3 1.4-0.1 0.4-0.3 0.5 1.8-0.3 2.1-0.9 0.3-0.5 0.4-1.4l0.3-3.9q0-0.6 0.2-0.9z"/><path  d="m336.9 95.3q-2.3 4.6-3.4 5.3l-11.1 7.6q-2 1.3-2.1 2.9 0 1.4 1.7 3.9 1.5 2.3 2.2 2.3-0.4-1.4-0.7-2.2-0.5-2.2-0.2-3.5 0.4-1.6 2.3-2.9l17.1-11.6q-4.9-0.4-5.8-1.8z"/><path fill-rule="evenodd" d="m343.9 173l-1.9-9.8 0.3-0.1-4.7-16.6-5.7-13.9q1.3 0.4 1.7 0.3 0.4-0.2 1.1-0.9 0.7-0.8 1.4-1.1 1.5-0.6 3 0.1l4.7 1.9 1.8-2.1 3.6 1.6-1.7 2 1.9 0.8q-1.4 0.1-2.5 0.5-0.8 0.4-2.9 2.9l-4.2 4.9 0.3 0.6 0.1-0.1 0.4 1.5 13.9-3.9q1.3-0.4 4.9-4 0.4 1.4 4.9 3.5l-18.3 5.2 3.3 11.5q0.2 0.6-1 1.7l-3 2.6 0.8 2.6-0.5 0.1 0.1 0.6q0.1 0.4 0.6 0.7 0.5 0.3 1 0.2l12.8-2.4q1.3-0.2 5.2-3.5 0.3 1.4 4.6 3.9l-21.1 4q-0.5 0.1-1.3 1.2-0.4 0.6-0.5 0.9l0.2 2.7 0.4-0.3q0.7-0.4 1.1-1.5l3.1 2.6-4.3 2.6 0.3 2.4 2.1-1.3q0.7-0.5 1.1-1.5l3.1 2.5-6 3.7 0.2 2.4 3.9-2.4q0.8-0.5 1.2-1.5l3 2.6-7.7 4.7 0.3 3.4h-0.4v0.5q0 0.5 0.4 0.9 0.4 0.4 0.9 0.4l13.1-0.1q1.3 0 5.7-2.5 0 1.5 3.8 4.7l-22.8 0.1q-1.5 0-2 0.3-0.8 0.4-1.2 2-1.2-1-1.2-2.6v-6h0.2zm-6.6-35.6q0.5 1.3 0.8 2l2.2-2.5q1-1.2 1.6-1.4-0.3-0.1-1.3-0.5-0.5-0.2-0.8-0.1-0.6 0.2-1.1 0.8zm4.7 12.9l2.2 7.9 1.4-1.3-2.2-7.9z"/><path fill-rule="evenodd" d="m218.9 45.6q-0.2 1.5 0 2.1 0.4 0.7 1.9 1.3-1.2 1.1-2.7 0.9l-5.2-0.6q-0.3 0.1-0.8 0l-6-0.4h-1.1q-0.4 0.5-1.2 1.3l-3.4 3.1q-0.2-1.3-1.6-2.9-1.4-1.6-2.4-1.6h-1.5v-0.3l-22.2 2.6-19.8 5.3-1.4-5.1q3.3 1.3 6 0.5l9.5-2.5-1.3-1.5-8.1 2.2q-1.8 0.5-3.7-1.7l-2.6-2.9q-0.6-0.7-1.7-0.9l2-3.4 4 4.5q1.2 1.3 2.4 1l8.7-2.4q0.6-0.1 1.7 1.2l2.3 2.7 1.4-0.2 1.4-0.4v0.2h0.7l-0.9-1.5q-0.5-0.7-1.6-1.1l3.6-4.3 1.1 1.6 14.6-1.7q0.7-0.1 1.5 1.2l2.1 3.4 2.8-0.3 0.1 1.2q0.6 0.5 1.5 1.4 0.7 0.7 2.2 2.3 0.4-0.5 0.4-1 0-0.5-0.7-1.9l-0.9-1.9q-1.1-2.3-1.1-3 0-1.3 1-2.5 1.4-1.3 2.7-2.6-0.3 1-0.3 1.7 0 0.8 0.9 2.7l1.4 2.8q0.5 1 0.7 1.4l3.1 0.1v0.1l0.8 0.1q0.4 0 0.9-0.4 0.4-0.4 0.4-0.8l1-13.1q0.1-1.3-2.1-5.9 1.5 0.1 5-3.4l-1.7 22.7q0 0.6 0 1l2.6 0.3q0.4 0.1 0.9-0.3 0.4-0.4 0.5-0.8l1.5-13q0.1-1.4-1.8-6 1.4 0.1 5.1-3.2zm-28.2 0.1l-1.1-1.6-11.3 1.3 1 1.6z"/><path  d="m205 219.6l-3.1-6.9-0.8 0.4 3.1 6.8c-0.2 0.3-0.3 0.7-0.1 1 0.2 0.5 0.8 0.7 1.2 0.5 0.5-0.3 0.7-0.8 0.5-1.3-0.1-0.3-0.5-0.5-0.8-0.5z"/><path  d="m200.6 217.1l-1.4-3.1-0.8 0.3 1.4 3.2c-0.2 0.3-0.3 0.6-0.1 1 0.2 0.4 0.8 0.7 1.2 0.4 0.5-0.2 0.7-0.7 0.5-1.2-0.1-0.4-0.5-0.5-0.8-0.6z"/><path  d="m206.6 214.6l-1.5-3.2-0.7 0.4 1.4 3.1c-0.2 0.3-0.3 0.7-0.1 1 0.2 0.5 0.8 0.7 1.2 0.5 0.5-0.2 0.7-0.8 0.5-1.3-0.1-0.3-0.5-0.5-0.8-0.5z"/><path  d="m211.3 216.6l-3.2-6.8-0.7 0.4 3.1 6.8c-0.2 0.2-0.3 0.6-0.1 0.9 0.2 0.5 0.7 0.7 1.2 0.5 0.5-0.2 0.7-0.8 0.5-1.2-0.2-0.4-0.5-0.6-0.8-0.6z"/><path  d="m160.7 195.9l-0.2 0.1-15.6-6.1v-0.3c-0.2-0.5-0.8-0.7-1.3-0.5-0.5 0.3-0.7 0.8-0.5 1.3 0.3 0.5 0.8 0.7 1.3 0.5l0.2-0.2 15.5 6.2 0.1 0.2c0.2 0.5 0.8 0.7 1.3 0.5 0.4-0.2 0.7-0.8 0.4-1.2-0.2-0.5-0.7-0.7-1.2-0.5z"/><path  d="m105.1 197.9c0.5-0.3 0.7-0.8 0.5-1.3-0.1-0.3-0.5-0.5-0.8-0.5l-1.1-2.5 2.1-0.9 0.7-2.4 12.9-5.9-0.5 1.5-11.1 5.1-0.3 3.7c-0.4 0.2-0.6 0.8-0.4 1.2 0.2 0.5 0.8 0.7 1.2 0.5 0.5-0.2 0.7-0.8 0.5-1.2l-0.4-0.5 0.3-3.1 10.9-5 0.9-2.6 3.1-0.9c1.6 0.2 3.8 0.6 5 0.8v0.1c0.2 0.5 0.8 0.7 1.3 0.5 0.5-0.2 0.7-0.8 0.4-1.3-0.2-0.5-0.7-0.7-1.2-0.5l-0.4 0.3c-1.4-0.3-4.2-0.7-5.2-0.8h-0.1l-3.6 1v0.1l-14 6.4-0.7 2.3-2.6 1.2 1.5 3.2c-0.2 0.3-0.3 0.7-0.1 1 0.2 0.5 0.8 0.7 1.2 0.5z"/><path  d="m126.7 190.6c-0.3-0.5-0.8-0.7-1.3-0.5-0.5 0.3-0.7 0.8-0.5 1.3 0.2 0.3 0.5 0.5 0.8 0.5l6.6 14.4 2.1 2.1c-0.1 0.2-0.1 0.4 0 0.7 0.2 0.4 0.8 0.6 1.3 0.4 0.5-0.2 0.7-0.8 0.5-1.2-0.2-0.5-0.7-0.7-1.2-0.5l-2-2-6.5-14.2c0.2-0.3 0.3-0.7 0.2-1z"/><path  d="m126.5 185c-0.2-0.5-0.8-0.7-1.3-0.5-0.5 0.2-0.7 0.8-0.5 1.3 0.2 0.3 0.5 0.5 0.9 0.5l1.9 4.1 5.6 1.9 6.8-3.1c0.3 0.2 0.7 0.3 1 0.1 0.5-0.2 0.7-0.7 0.5-1.2-0.3-0.5-0.8-0.7-1.3-0.5-0.3 0.2-0.5 0.5-0.5 0.8l-6.5 3-5-1.7-1.7-3.8c0.2-0.2 0.2-0.6 0.1-0.9z"/><path  d="m132.8 183.3l0.2-0.2 4-0.3 0.2 0.2c0.3 0.4 0.9 0.4 1.3 0 0.4-0.3 0.4-1 0-1.3-0.4-0.4-1-0.4-1.3 0l-0.2 0.3-4.1 0.2-0.1-0.2c-0.4-0.4-1-0.4-1.3 0-0.4 0.4-0.4 1 0 1.3 0.3 0.4 0.9 0.4 1.3 0z"/><path  d="m129.8 194.4l0.1-0.1 1.4 0.7 9.7 21.1-0.1 1c-0.5 0.3-0.7 0.8-0.5 1.3 0.2 0.5 0.8 0.7 1.3 0.5 0.4-0.2 0.6-0.8 0.4-1.3l-0.3-0.4 0.1-1.2-10-21.7-1.6-0.8-0.1-0.3c-0.2-0.5-0.8-0.7-1.2-0.5-0.5 0.2-0.7 0.8-0.5 1.3 0.2 0.4 0.8 0.6 1.3 0.4z"/><path  d="m129.8 187c0.2 0.3 0.5 0.5 0.9 0.6l0.8 1.7 10.7-4.9 12.8 4.1v0.3c0.2 0.4 0.8 0.7 1.3 0.4 0.5-0.2 0.7-0.7 0.5-1.2-0.3-0.5-0.8-0.7-1.3-0.5l-0.2 0.2-13.2-4.2-10.1 4.7-0.5-1c0.2-0.3 0.2-0.7 0.1-1-0.2-0.5-0.8-0.7-1.3-0.5-0.5 0.3-0.7 0.8-0.5 1.3z"/><path  d="m112.9 197.9c0.3-0.1 0.5-0.4 0.6-0.8l2-0.9 1 2.3c-0.2 0.3-0.2 0.6-0.1 1 0.2 0.5 0.8 0.7 1.3 0.4 0.5-0.2 0.7-0.7 0.5-1.2-0.2-0.4-0.5-0.5-0.9-0.6l-1.4-3.1-2.8 1.3c-0.3-0.2-0.7-0.3-1-0.1-0.5 0.2-0.7 0.8-0.5 1.3 0.3 0.4 0.8 0.6 1.3 0.4z"/><path  d="m124.1 208.9c0.2 0.5 0.8 0.7 1.3 0.5 0.5-0.2 0.7-0.8 0.4-1.3-0.1-0.3-0.4-0.5-0.8-0.5l-0.9-2c0.2-0.2 0.3-0.6 0.1-0.9-0.2-0.5-0.7-0.7-1.2-0.5-0.5 0.2-0.7 0.8-0.5 1.3 0.2 0.3 0.5 0.5 0.8 0.5l0.9 2c-0.2 0.2-0.2 0.6-0.1 0.9z"/><path  d="m107.6 204.4l3.3 7-8.6 3.9-1-2.1c0.3-0.3 0.3-0.7 0.2-1-0.3-0.5-0.8-0.7-1.3-0.5-0.5 0.2-0.7 0.8-0.5 1.3 0.2 0.3 0.5 0.5 0.8 0.5l1.4 3 10.1-4.6-3.6-7.9c0.3-0.2 0.3-0.6 0.2-0.9-0.3-0.5-0.8-0.7-1.3-0.5-0.5 0.2-0.7 0.8-0.5 1.3 0.2 0.3 0.5 0.5 0.8 0.5z"/><path  d="m114 201.4l2.1 4.5 6.7-3.1 2.6 0.1 2.7 6-0.3 1.1-4.1 1.9c-0.3-0.2-0.6-0.3-1-0.2-0.4 0.3-0.6 0.8-0.4 1.3 0.2 0.5 0.8 0.7 1.2 0.5 0.4-0.2 0.6-0.5 0.6-0.8l4.6-2.2 0.3-1.7-3.1-6.7-3.3-0.1-6.1 2.7-1.7-3.7c0.2-0.2 0.3-0.6 0.1-0.9-0.2-0.5-0.7-0.7-1.2-0.5-0.5 0.2-0.7 0.8-0.5 1.2 0.2 0.4 0.5 0.6 0.8 0.6z"/><path  d="m102 200.8c-0.3 0.2-0.5 0.5-0.6 0.8l-5.2 2.4 2.2 4.9c-0.2 0.3-0.3 0.6-0.1 1 0.2 0.4 0.8 0.6 1.3 0.4 0.4-0.2 0.7-0.8 0.4-1.2-0.1-0.4-0.4-0.6-0.8-0.6l-1.8-4 4.4-2.1c0.3 0.2 0.7 0.3 1 0.2 0.5-0.3 0.7-0.8 0.4-1.3-0.2-0.5-0.7-0.7-1.2-0.5z"/><path  d="m104.8 204.8c-0.2-0.5-0.7-0.7-1.2-0.5-0.5 0.2-0.7 0.8-0.5 1.3 0.1 0.3 0.5 0.5 0.8 0.5l2.3 5.1c-0.2 0.3-0.2 0.6-0.1 1 0.2 0.4 0.8 0.7 1.3 0.4 0.5-0.2 0.7-0.8 0.5-1.2-0.2-0.4-0.5-0.6-0.9-0.6l-2.3-5.1c0.2-0.2 0.3-0.6 0.1-0.9z"/><path  d="m100.7 224.3c0.2 0.5 0.8 0.7 1.3 0.5 0.4-0.2 0.7-0.8 0.4-1.3-0.1-0.3-0.4-0.5-0.8-0.5l-3.7-8.3c0.2-0.2 0.2-0.6 0.1-0.9-0.2-0.5-0.8-0.7-1.3-0.5-0.4 0.2-0.7 0.8-0.4 1.3 0.1 0.3 0.4 0.5 0.8 0.5l3.7 8.2c-0.2 0.3-0.2 0.7-0.1 1z"/><path  d="m108.9 223.6c-0.3 0.1-0.5 0.5-0.5 0.8l-1.2 0.6c-0.3-0.2-0.7-0.3-1-0.1-0.5 0.2-0.7 0.7-0.5 1.2 0.2 0.5 0.8 0.7 1.3 0.5 0.3-0.2 0.5-0.5 0.5-0.8l1.2-0.6c0.3 0.2 0.7 0.3 1 0.1 0.5-0.2 0.7-0.7 0.5-1.2-0.2-0.5-0.8-0.7-1.3-0.5z"/><path  d="m111.3 223.6c0.2 0.4 0.8 0.6 1.3 0.4 0.5-0.2 0.7-0.8 0.5-1.2-0.2-0.4-0.5-0.6-0.9-0.6l-1.3-3-2.6 1.1c-0.2-0.2-0.6-0.2-0.9-0.1-0.5 0.2-0.7 0.8-0.5 1.3 0.2 0.4 0.8 0.7 1.3 0.4 0.3-0.1 0.5-0.4 0.5-0.8l1.7-0.8 1 2.3c-0.2 0.3-0.2 0.6-0.1 1z"/><path  d="m118.3 220.4c0.2 0.5 0.7 0.7 1.2 0.5 0.5-0.3 0.7-0.8 0.5-1.3-0.2-0.3-0.5-0.5-0.8-0.5l-7.6-16.5c0.3-0.3 0.3-0.7 0.2-1-0.3-0.5-0.8-0.7-1.3-0.5-0.5 0.3-0.7 0.8-0.5 1.3 0.2 0.3 0.5 0.5 0.8 0.5l7.6 16.5c-0.2 0.3-0.3 0.7-0.1 1z"/><path  d="m112 230.3c-0.3 0.2-0.5 0.5-0.5 0.9l-11.6 5.2c-0.3-0.2-0.6-0.2-1-0.1-0.5 0.2-0.7 0.8-0.4 1.3 0.2 0.5 0.7 0.7 1.2 0.4 0.3-0.1 0.5-0.4 0.5-0.8l11.6-5.3c0.3 0.2 0.7 0.3 1 0.2 0.5-0.3 0.7-0.8 0.5-1.3-0.2-0.5-0.8-0.7-1.3-0.5z"/><path  d="m110.4 226.9c-0.3 0.2-0.5 0.5-0.5 0.9l-11.6 5.2c-0.2-0.2-0.6-0.2-0.9-0.1-0.5 0.2-0.7 0.8-0.5 1.3 0.2 0.5 0.8 0.7 1.3 0.5 0.3-0.2 0.5-0.5 0.5-0.9l11.6-5.3c0.2 0.3 0.6 0.3 0.9 0.2 0.5-0.2 0.7-0.8 0.5-1.3-0.2-0.5-0.8-0.7-1.3-0.5z"/><path  d="m115.1 237.1c-0.3 0.1-0.5 0.4-0.6 0.8l-11.5 5.3c-0.3-0.2-0.7-0.3-1-0.1-0.5 0.2-0.7 0.7-0.5 1.2 0.2 0.5 0.8 0.7 1.3 0.5 0.3-0.2 0.5-0.5 0.5-0.8l11.6-5.3c0.3 0.2 0.6 0.3 1 0.1 0.5-0.2 0.7-0.8 0.4-1.3-0.2-0.4-0.7-0.7-1.2-0.4z"/><path  d="m113.5 233.7c-0.3 0.1-0.5 0.4-0.5 0.8l-11.6 5.3c-0.3-0.2-0.6-0.3-1-0.2-0.4 0.3-0.6 0.8-0.4 1.3 0.2 0.5 0.8 0.7 1.2 0.5 0.4-0.2 0.6-0.5 0.6-0.8l11.6-5.3c0.2 0.2 0.6 0.3 0.9 0.1 0.5-0.2 0.7-0.8 0.5-1.3-0.2-0.4-0.8-0.7-1.3-0.4z"/><path  d="m116.6 240.4c-0.3 0.2-0.5 0.5-0.5 0.8l-11.6 5.3c-0.3-0.2-0.7-0.3-1-0.1-0.5 0.2-0.7 0.8-0.4 1.2 0.2 0.5 0.7 0.7 1.2 0.5 0.3-0.2 0.5-0.5 0.6-0.8l11.5-5.3c0.3 0.2 0.7 0.3 1 0.1 0.5-0.2 0.7-0.7 0.5-1.2-0.2-0.5-0.8-0.7-1.3-0.5z"/><path  d="m96.3 251.8c0.4-0.2 0.6-0.5 0.6-0.9l3.3-1.5c0.2 0.2 0.6 0.3 0.9 0.2 0.4-0.2 0.6-0.5 0.6-0.8v-0.1l-0.1-0.4c-0.2-0.5-0.8-0.7-1.3-0.5-0.2 0.1-0.3 0.3-0.4 0.5l-5.2-1.1-2.9-6.5c-0.2-2.5 0.3-4.1 1.2-4.8 0.3 0.2 0.6 0.2 0.9 0.1 0.5-0.3 0.7-0.8 0.5-1.3-0.2-0.5-0.8-0.7-1.3-0.5-0.4 0.2-0.6 0.6-0.5 1-1.1 0.8-1.9 2.7-1.7 5.7l3.2 7 4.9 1.1-2.5 1.1c-0.2-0.2-0.6-0.2-0.9-0.1-0.5 0.2-0.7 0.8-0.5 1.3 0.2 0.5 0.8 0.7 1.2 0.5z"/><path  d="m98.6 253.9l19.5-9c0.3 0.3 0.7 0.3 1 0.2 0.5-0.2 0.7-0.8 0.5-1.3-0.2-0.5-0.8-0.7-1.3-0.5-0.3 0.2-0.5 0.5-0.5 0.8l-19.6 9c-0.2-0.2-0.6-0.3-0.9-0.1-0.5 0.2-0.7 0.7-0.5 1.2 0.2 0.5 0.8 0.7 1.2 0.5 0.4-0.2 0.6-0.5 0.6-0.8z"/><path  d="m101.9 259.4l-0.2-0.4 0.7-2.8 16.9-7.8c0.3 0.2 0.7 0.3 1 0.1 0.5-0.2 0.7-0.8 0.5-1.2-0.2-0.5-0.8-0.7-1.3-0.5-0.3 0.1-0.5 0.5-0.5 0.8l-17.4 7.9-0.8 3.3-0.1 0.1c-0.5 0.2-0.7 0.8-0.5 1.3 0.2 0.4 0.8 0.6 1.2 0.4 0.5-0.2 0.7-0.8 0.5-1.2z"/><path  d="m108.1 265.1l12.4-5.5 1.4-7.5c0.5-0.3 0.7-0.8 0.5-1.3-0.2-0.5-0.8-0.7-1.3-0.5-0.4 0.2-0.6 0.8-0.4 1.3l0.3 0.4-1.3 7-11.9 5.3c-0.3-0.2-0.7-0.2-1-0.1-0.5 0.2-0.7 0.8-0.5 1.3 0.2 0.5 0.8 0.7 1.3 0.5 0.3-0.2 0.5-0.5 0.5-0.9z"/><path  d="m125.7 275.1l-2.8-3.5-5-3.4-1.2-0.2 9.2-4.3 2 2.5c-0.2 0.3-0.3 0.7-0.1 1 0.2 0.5 0.8 0.7 1.3 0.5 0.4-0.3 0.7-0.8 0.4-1.3-0.1-0.3-0.4-0.5-0.8-0.5l-2.3-3.3-12.6 5.7 3.6 0.7 4.9 3.2 2.7 3.4c-0.1 0.3-0.1 0.5 0 0.8 0.3 0.5 0.8 0.7 1.3 0.5 0.5-0.3 0.7-0.8 0.5-1.3-0.2-0.4-0.6-0.6-1.1-0.5z"/><path  d="m132.9 276c0.4-0.3 0.6-0.8 0.4-1.3-0.2-0.5-0.8-0.7-1.2-0.5l-0.3 0.2c-2.4-0.7-3.3-1.8-3.7-2.5 0.3-0.3 0.4-0.7 0.2-1.1-0.2-0.4-0.8-0.7-1.3-0.4-0.5 0.2-0.7 0.8-0.5 1.2 0.2 0.3 0.5 0.5 0.8 0.6 0.4 0.9 1.5 2.2 4.2 3.1l0.1 0.2c0.2 0.4 0.8 0.7 1.3 0.5z"/><path  d="m126.5 267.8c-0.2-0.5-0.7-0.7-1.2-0.5-0.3 0.1-0.4 0.3-0.5 0.5l-2.2 0.3c-0.3-0.4-0.8-0.6-1.2-0.4-0.5 0.2-0.7 0.8-0.5 1.3 0.3 0.5 0.8 0.7 1.3 0.5 0.2-0.1 0.4-0.3 0.5-0.6l2.2-0.2c0.2 0.4 0.7 0.5 1.2 0.3 0.4-0.2 0.6-0.7 0.4-1.2z"/><path  d="m122.6 227.6c0.3-0.2 0.5-0.5 0.5-0.8l14.1-6.5c0.3 0.2 0.7 0.3 1 0.2 0.5-0.3 0.7-0.8 0.5-1.3-0.3-0.5-0.8-0.7-1.3-0.5-0.3 0.2-0.5 0.5-0.6 0.8l-14 6.5c-0.3-0.2-0.7-0.3-1-0.2-0.5 0.3-0.7 0.8-0.5 1.3 0.2 0.5 0.8 0.7 1.3 0.5z"/><path  d="m121 224.2c0.4-0.2 0.6-0.5 0.6-0.8l15-6.9 0.5-3.7h0.1c0.5-0.2 0.7-0.8 0.4-1.3-0.2-0.4-0.7-0.7-1.2-0.4-0.5 0.2-0.7 0.7-0.5 1.2l0.3 0.4-0.4 3.2-14.6 6.7c-0.3-0.2-0.6-0.3-1-0.1-0.4 0.2-0.6 0.7-0.4 1.2 0.2 0.5 0.8 0.7 1.2 0.5z"/><path  d="m125.7 234.3c0.3-0.1 0.5-0.4 0.5-0.8l14.1-6.4c0.3 0.2 0.6 0.2 1 0.1 0.4-0.2 0.7-0.8 0.4-1.3-0.2-0.4-0.7-0.7-1.2-0.4-0.4 0.1-0.5 0.4-0.6 0.8l-14.1 6.4c-0.2-0.2-0.6-0.3-0.9-0.1-0.5 0.2-0.7 0.8-0.5 1.3 0.2 0.4 0.8 0.6 1.3 0.4z"/><path  d="m124.1 230.9c0.3-0.1 0.5-0.5 0.6-0.8l14-6.4c0.3 0.2 0.7 0.2 1 0.1 0.5-0.2 0.7-0.8 0.5-1.3-0.2-0.5-0.8-0.6-1.3-0.4-0.3 0.1-0.5 0.4-0.5 0.8l-14.1 6.4c-0.3-0.2-0.6-0.3-1-0.1-0.4 0.2-0.7 0.8-0.4 1.2 0.2 0.5 0.7 0.7 1.2 0.5z"/><path  d="m127.2 237.6c0.3-0.1 0.5-0.4 0.5-0.8l14.1-6.4c0.3 0.2 0.7 0.3 1 0.1 0.5-0.2 0.7-0.8 0.5-1.2-0.3-0.5-0.8-0.7-1.3-0.5-0.3 0.1-0.5 0.5-0.5 0.8l-14.1 6.5c-0.3-0.3-0.7-0.3-1-0.2-0.5 0.2-0.7 0.8-0.5 1.3 0.3 0.5 0.8 0.7 1.3 0.4z"/><path  d="m150.8 214.2c0.5-0.2 0.7-0.8 0.5-1.3-0.2-0.4-0.8-0.6-1.3-0.4-0.4 0.2-0.7 0.8-0.4 1.2l0.1 0.3-4 13.2h-0.3c-0.4 0.2-0.6 0.8-0.4 1.3 0.2 0.4 0.8 0.7 1.3 0.4 0.4-0.2 0.6-0.7 0.4-1.2l-0.2-0.3 4.1-13.1z"/><path  d="m177 206.3c-0.3 0.1-0.5 0.4-0.5 0.8l-17.7 8 0.6 1.4-3.7 1.7c-0.3-0.2-0.7-0.3-1-0.1-0.3 0.1-0.5 0.5-0.5 0.8l-0.7 0.3-0.9-1.9c0.3-0.2 0.4-0.6 0.2-1-0.2-0.5-0.8-0.7-1.2-0.5-0.5 0.2-0.7 0.8-0.5 1.3l0.2 0.3-2.3 8.2-0.2 0.1c-0.5 0.2-0.7 0.8-0.5 1.3 0.2 0.4 0.8 0.6 1.3 0.4 0.5-0.2 0.7-0.8 0.5-1.3l-0.3-0.2 2.2-7.8 1 2.3 1.5-0.7c0.3 0.2 0.7 0.3 1 0.1 0.3-0.1 0.5-0.4 0.5-0.8l4.6-2.1-0.6-1.3 16.9-7.7c0.2 0.2 0.6 0.2 0.9 0.1 0.5-0.2 0.7-0.8 0.5-1.3-0.2-0.5-0.8-0.7-1.3-0.4z"/><path  d="m178.4 209.2c-0.3 0.1-0.5 0.5-0.6 0.8l-15 6.9 0.6 1.3-2.4 1.1-4.4 10-0.4 0.1c-0.5 0.2-0.7 0.8-0.4 1.2 0.2 0.5 0.7 0.7 1.2 0.5 0.5-0.2 0.7-0.8 0.5-1.2l-0.2-0.2 4.4-9.7 2.9-1.3-0.6-1.4 14.2-6.5c0.3 0.2 0.6 0.3 1 0.1 0.5-0.2 0.7-0.8 0.5-1.3-0.3-0.4-0.8-0.6-1.3-0.4z"/><path  d="m133.1 252.7c-0.2-0.5-0.7-0.7-1.2-0.5-0.5 0.2-0.7 0.8-0.5 1.3 0.2 0.3 0.5 0.5 0.8 0.5l4.2 9.1 5.9 5.1 0.1 0.4c0.2 0.5 0.8 0.7 1.2 0.5 0.5-0.2 0.7-0.8 0.5-1.3-0.2-0.5-0.8-0.7-1.3-0.4l-5.8-5-4-8.8c0.2-0.2 0.3-0.6 0.1-0.9z"/><path  d="m152.8 276.5l-0.2 0.1c-0.9-0.3-2.5-0.4-4.2 1.3l-3.8 0.2-3.6-7.7c0.3-0.3 0.3-0.7 0.2-1-0.2-0.5-0.8-0.7-1.3-0.5-0.5 0.2-0.7 0.8-0.5 1.3 0.2 0.3 0.5 0.5 0.8 0.5l3.8 8.3 4.8-0.2 0.1-0.1c1.4-1.5 2.6-1.5 3.3-1.3l0.1 0.3c0.2 0.5 0.8 0.7 1.2 0.5 0.5-0.2 0.7-0.8 0.5-1.2-0.2-0.5-0.8-0.7-1.2-0.5z"/><path  d="m156.5 274.9l-4.9-10.6 2.3-1-1.3-2.9c0.2-0.3 0.3-0.6 0.1-1-0.2-0.4-0.8-0.7-1.2-0.4-0.5 0.2-0.7 0.7-0.5 1.2 0.1 0.4 0.5 0.6 0.8 0.6l1 2.1-2.3 1 5.2 11.4c-0.2 0.2-0.3 0.6-0.1 1 0.2 0.4 0.7 0.6 1.2 0.4 0.5-0.2 0.7-0.8 0.5-1.2-0.2-0.4-0.5-0.6-0.8-0.6z"/><path  d="m159.7 273.4l-3.3-7.2 0.2-5.6-0.7-1.7c0.2-0.3 0.2-0.6 0.1-1-0.2-0.4-0.8-0.7-1.3-0.4-0.4 0.2-0.7 0.8-0.4 1.2 0.1 0.4 0.4 0.6 0.8 0.6l0.7 1.5-0.2 5.6 3.3 7.4c-0.2 0.3-0.2 0.6-0.1 1 0.2 0.4 0.8 0.6 1.3 0.4 0.5-0.2 0.7-0.8 0.4-1.2-0.1-0.4-0.4-0.6-0.8-0.6z"/><path  d="m162.7 272.1l-3.4-7.5-0.1-3.1-0.1-4.1c0.2-0.2 0.3-0.6 0.1-1-0.2-0.4-0.7-0.6-1.2-0.4-0.5 0.2-0.7 0.8-0.5 1.2 0.2 0.4 0.5 0.6 0.8 0.6v3.8l0.1 3.1 3.5 7.7c-0.2 0.3-0.3 0.7-0.1 1 0.2 0.5 0.7 0.7 1.2 0.5 0.5-0.2 0.7-0.8 0.5-1.3-0.2-0.3-0.5-0.5-0.8-0.5z"/><path  d="m165.8 270.6l-3.9-8.5 0.4-7.7-1.4-3-3.4 1.6c-0.3-0.3-0.6-0.3-1-0.2-0.4 0.3-0.7 0.8-0.4 1.3 0.2 0.5 0.8 0.7 1.2 0.5 0.4-0.2 0.6-0.5 0.6-0.9l2.6-1.1 0.9 1.9-0.4 7.7 4 8.8c-0.2 0.3-0.3 0.7-0.1 1 0.2 0.5 0.8 0.7 1.2 0.4 0.5-0.2 0.7-0.7 0.5-1.2-0.1-0.3-0.5-0.5-0.8-0.6z"/><path  d="m171.1 266.1l-1.4-3-4.3 0.7-1.3-2.9 1.5-7.1-2.1-4.8-6.7-2.9-3.2 1.4 1.3 2.8c-0.2 0.3-0.3 0.6-0.1 0.9 0.2 0.5 0.8 0.7 1.3 0.5 0.4-0.2 0.6-0.8 0.4-1.2-0.2-0.4-0.5-0.6-0.8-0.6l-0.9-2 2-0.9 6.1 2.7 1.8 4.2-1.4 7.4 1.6 3.5 4.3-0.7 1.1 2.4c-0.2 0.3-0.3 0.6-0.1 1 0.2 0.4 0.8 0.7 1.2 0.4 0.5-0.2 0.7-0.8 0.5-1.2-0.1-0.3-0.5-0.5-0.8-0.6z"/><path  d="m173.6 262.9l-7.3-15.8-11.8-4.6-5.9 2.7 3 6.6c-0.2 0.2-0.2 0.6-0.1 0.9 0.2 0.5 0.8 0.7 1.3 0.5 0.5-0.2 0.7-0.8 0.4-1.3-0.1-0.3-0.4-0.5-0.8-0.5l-2.6-5.8 4.7-2.1 11.2 4.2 7.1 15.6c-0.2 0.2-0.3 0.6-0.1 0.9 0.2 0.5 0.7 0.7 1.2 0.5 0.5-0.2 0.7-0.8 0.5-1.2-0.2-0.4-0.5-0.6-0.8-0.6z"/><path  d="m175.7 259.8l-8.6-18.8-3.8 1.7-9.5-3.3-9.7 4.5 4.3 9.4c-0.2 0.2-0.3 0.6-0.2 0.9 0.3 0.5 0.8 0.7 1.3 0.5 0.5-0.2 0.7-0.8 0.5-1.3-0.2-0.3-0.5-0.5-0.8-0.5l-4-8.6 8.7-4 9.4 3.4 3.4-1.6 8.2 18.1c-0.2 0.3-0.3 0.6-0.1 1 0.2 0.5 0.8 0.7 1.2 0.4 0.5-0.2 0.7-0.7 0.5-1.2-0.1-0.4-0.5-0.5-0.8-0.6z"/><path  d="m134.8 271.4l-1.5-3.3-2.6 1.2c-0.2-0.3-0.6-0.3-1-0.2-0.4 0.3-0.6 0.8-0.4 1.3 0.2 0.5 0.8 0.7 1.2 0.5 0.4-0.2 0.6-0.5 0.6-0.8l1.8-0.9 1.1 2.5c-0.2 0.3-0.3 0.7-0.1 1 0.1 0.3 0.5 0.5 0.8 0.5l1.5 3.2c-0.4 0.3-0.6 0.7-1.2 1l-3.2-0.4-1.5-0.6-0.1-0.3c-0.2-0.5-0.8-0.7-1.2-0.5-0.5 0.3-0.7 0.8-0.5 1.3 0.2 0.5 0.8 0.7 1.2 0.5l0.3-0.2 1.5 0.6 3.6 0.6 0.1-0.1c1.1-0.5 1.8-1.5 1.8-1.5l0.2-0.2-1.7-3.7c0.2-0.3 0.3-0.7 0.1-1-0.1-0.3-0.4-0.5-0.8-0.5z"/><path  d="m137.6 270l-4.1-5.7-5.4-11.7c0.2-0.3 0.3-0.7 0.2-1-0.3-0.5-0.8-0.7-1.3-0.5-0.5 0.2-0.7 0.8-0.5 1.3 0.2 0.3 0.5 0.5 0.8 0.5l5.4 11.8 4.2 5.8c-0.1 0.3-0.2 0.6 0 0.8 0.1 0.3 0.3 0.5 0.5 0.5l2.9 6.3c-0.2 0.3-0.3 0.6-0.1 1 0.2 0.5 0.8 0.7 1.2 0.5 0.5-0.3 0.7-0.8 0.5-1.3-0.1-0.3-0.5-0.5-0.8-0.5l-2.8-6.1c0.3-0.3 0.5-0.7 0.3-1.1-0.2-0.4-0.6-0.6-1-0.6z"/><path  d="m146.4 269.7c-0.2-0.5-0.8-0.7-1.3-0.5-0.5 0.2-0.7 0.8-0.5 1.3 0.2 0.3 0.5 0.5 0.9 0.5l1.1 2.5c-0.2 0.2-0.3 0.6-0.1 1 0.2 0.4 0.8 0.6 1.2 0.4 0.5-0.2 0.7-0.8 0.5-1.2-0.1-0.4-0.5-0.6-0.8-0.6l-1.1-2.5c0.2-0.2 0.2-0.6 0.1-0.9z"/><path  d="m167.8 257c0.5-0.3 0.6-0.9 0.3-1.3-0.3-0.5-0.9-0.6-1.3-0.3-0.5 0.3-0.6 0.9-0.3 1.3l0.3 0.3-0.4 3.2-0.2 0.1c-0.4 0.3-0.6 0.9-0.3 1.3 0.3 0.4 0.9 0.6 1.3 0.3 0.5-0.3 0.6-0.9 0.3-1.4l-0.3-0.2 0.4-3.3z"/><path  d="m177.4 243.1c0.3-0.1 0.5-0.4 0.5-0.8l2.9-1.3c0.3 0.2 0.6 0.3 1 0.2 0.4-0.3 0.6-0.8 0.4-1.3-0.2-0.5-0.8-0.7-1.2-0.5-0.4 0.2-0.6 0.5-0.6 0.8l-2.8 1.3c-0.3-0.2-0.7-0.2-1-0.1-0.5 0.2-0.7 0.8-0.5 1.3 0.2 0.5 0.8 0.7 1.3 0.4z"/><path  d="m183 244.8c-0.5 0.2-0.7 0.8-0.5 1.3l0.2 0.3c-0.3 1.4-1.1 4.4-2.5 7.2h-0.4c-0.5 0.3-0.7 0.8-0.5 1.3 0.2 0.5 0.8 0.7 1.3 0.5 0.5-0.2 0.7-0.8 0.5-1.3l-0.1-0.1c1.4-2.9 2.2-6 2.6-7.4l0.2-0.1c0.5-0.2 0.7-0.8 0.5-1.2-0.3-0.5-0.8-0.7-1.3-0.5z"/><path  d="m185.2 229.7c-0.5 0.2-0.7 0.8-0.5 1.2l0.1 0.2c-0.2 0.8-0.4 1.9 0.1 2.8 0 0.7-0.1 3.6-0.7 5.2-0.5 0.5-1.1 1.4-0.8 2.8-0.3 0.2-0.4 0.7-0.2 1 0.2 0.5 0.8 0.7 1.2 0.5 0.5-0.2 0.7-0.8 0.5-1.3-0.1-0.3-0.4-0.4-0.7-0.5-0.2-1.2 0.5-1.8 0.6-1.8l0.1-0.1v-0.1c0.9-2 0.9-5.6 0.9-5.8v-0.2l-0.1-0.1c-0.4-0.6-0.2-1.4 0-2l0.3-0.1c0.4-0.2 0.7-0.8 0.4-1.2-0.2-0.5-0.7-0.7-1.2-0.5z"/><path  d="m174.9 238.6c0.3-0.2 0.5-0.5 0.5-0.8l1.2-0.6-1.9-4 6.4-2.9c0.2 0.2 0.6 0.2 0.9 0.1 0.5-0.2 0.7-0.8 0.5-1.3-0.2-0.4-0.8-0.7-1.2-0.4-0.4 0.1-0.6 0.4-0.6 0.8l-7.1 3.2 1.8 4.1-0.4 0.2c-0.2-0.2-0.6-0.3-0.9-0.1-0.5 0.2-0.7 0.7-0.5 1.2 0.2 0.5 0.8 0.7 1.3 0.5z"/><path  d="m170.9 239.4c-0.3-0.5-0.8-0.7-1.3-0.5-0.5 0.2-0.7 0.8-0.5 1.3 0.2 0.3 0.5 0.5 0.9 0.5l7.4 16.3c-0.2 0.2-0.3 0.6-0.1 0.9 0.2 0.5 0.7 0.7 1.2 0.5 0.5-0.2 0.7-0.8 0.5-1.2-0.2-0.4-0.5-0.6-0.8-0.6l-7.5-16.3c0.3-0.2 0.3-0.6 0.2-0.9z"/><path  d="m166.7 218.3c-0.4 0.1-0.6 0.4-0.6 0.8l-2.8 1.3-3.4 7.4-0.3 0.1c-0.5 0.2-0.7 0.7-0.5 1.2 0.2 0.5 0.8 0.7 1.3 0.5 0.4-0.2 0.6-0.8 0.4-1.3l-0.1-0.1 3.3-7.2 2.5-1.1c0.3 0.2 0.6 0.2 1 0.1 0.4-0.2 0.7-0.8 0.4-1.3-0.2-0.4-0.8-0.7-1.2-0.4z"/><path  d="m169.4 216.8c-0.5 0.2-0.7 0.8-0.4 1.2 0.2 0.5 0.7 0.7 1.2 0.5 0.3-0.2 0.5-0.5 0.6-0.8l9.1-4.2 4.2 9.3-19.7 9.1-2.2-0.5v-0.1c-0.2-0.5-0.8-0.7-1.3-0.5-0.5 0.2-0.7 0.8-0.5 1.3 0.3 0.4 0.8 0.6 1.3 0.4l0.3-0.2 2.4 0.5 20.9-9.5-0.2-0.4-4.6-10.2-0.2-0.3-9.9 4.5c-0.3-0.2-0.6-0.3-1-0.1z"/><path  d="m157.6 232.5l-0.3 0.3-3.7-1-23.3 10.6c-0.3-0.2-0.6-0.2-1-0.1-0.5 0.2-0.7 0.8-0.4 1.3 0.2 0.5 0.7 0.7 1.2 0.5 0.4-0.2 0.5-0.5 0.6-0.9l23-10.5 3.4 0.9 0.1 0.2c0.2 0.5 0.8 0.7 1.2 0.5 0.5-0.3 0.7-0.8 0.5-1.3-0.2-0.5-0.8-0.7-1.3-0.5z"/><path  d="m184.6 227.3l-0.9-1.9-16 7.3c-0.3-0.2-0.7-0.3-1-0.1-0.5 0.2-0.7 0.8-0.5 1.2 0.3 0.5 0.8 0.7 1.3 0.5 0.3-0.2 0.5-0.5 0.5-0.8l15.3-7 0.5 1.2c-0.2 0.2-0.3 0.6-0.2 0.9 0.3 0.5 0.8 0.7 1.3 0.5 0.5-0.2 0.7-0.8 0.5-1.3-0.2-0.3-0.5-0.5-0.8-0.5z"/><path  d="m152 273.1h-0.1l-1.6-1.2-1.1-2.6c0.2-0.3 0.2-0.6 0.1-0.9-0.2-0.5-0.8-0.7-1.3-0.5-0.5 0.2-0.7 0.8-0.5 1.2 0.2 0.4 0.5 0.6 0.9 0.6l1.2 2.8 1.8 1.3 0.1 0.5c0.2 0.5 0.8 0.7 1.3 0.5 0.4-0.2 0.6-0.8 0.4-1.3-0.2-0.5-0.8-0.7-1.2-0.4z"/><path  d="m145.9 254.4l-4.3-9.4-2.8 1.3c-0.3-0.2-0.6-0.3-1-0.1-0.4 0.2-0.6 0.7-0.4 1.2 0.2 0.5 0.8 0.7 1.2 0.5 0.4-0.2 0.6-0.5 0.6-0.8l2-0.9 3.9 8.6c-0.2 0.2-0.3 0.6-0.1 0.9 0.2 0.5 0.8 0.7 1.2 0.5 0.5-0.2 0.7-0.8 0.5-1.3-0.1-0.3-0.5-0.5-0.8-0.5z"/><path  d="m149.5 260.9c-0.3-0.4-0.8-0.7-1.3-0.5-0.3 0.2-0.5 0.5-0.5 0.9l-2.5 1.1-4.2-1.7-5.3-11.6c0.2-0.3 0.2-0.6 0.1-0.9-0.2-0.5-0.8-0.7-1.3-0.5-0.5 0.2-0.7 0.8-0.5 1.2 0.2 0.4 0.5 0.6 0.9 0.6l5.4 11.9 4.9 1.9 2.8-1.2c0.3 0.2 0.7 0.2 1 0.1 0.5-0.2 0.7-0.8 0.5-1.3z"/><path  d="m93.5 215.9c0.2 0.4 0.7 0.6 1.2 0.4 0.5-0.2 0.7-0.8 0.5-1.2-0.2-0.4-0.5-0.6-0.9-0.6l-1.3-2.1 3.6-11.2 3.8-1.7c0.3 0.2 0.7 0.2 1 0.1 0.5-0.3 0.7-0.8 0.5-1.3-0.2-0.5-0.8-0.7-1.3-0.5-0.3 0.2-0.5 0.5-0.5 0.9l-4.2 1.8-3.9 12.1 1.5 2.4q-0.2 0.4 0 0.9z"/><path  d="m90.7 228.4c0.5-0.2 0.7-0.8 0.5-1.3-0.1-0.2-0.3-0.3-0.4-0.4l-0.1-6.2 0.3-1 2.3-0.1 4.5 9.8-1.9 0.9-1.8-0.4v-0.1l-0.1-0.2 0.7-1.2 0.4-0.1c0.4-0.2 0.7-0.8 0.4-1.3-0.1-0.3-0.4-0.5-0.8-0.5l-1.4-3.2c0.2-0.3 0.2-0.7 0.1-1-0.2-0.5-0.8-0.7-1.3-0.5-0.5 0.2-0.7 0.8-0.4 1.3 0.1 0.3 0.4 0.5 0.7 0.5l1.5 3.2c-0.2 0.3-0.2 0.7-0.1 1l0.1 0.1-0.7 1.3-0.4 0.1c-0.4 0.2-0.6 0.8-0.4 1.3 0.2 0.4 0.8 0.7 1.2 0.4l0.3-0.2 2.1 0.5 3-1.4-4.8-10.4 1.8-0.1 4.4 9.8 2.1-0.9c0.3 0.2 0.7 0.2 1 0.1 0.5-0.3 0.7-0.8 0.5-1.3-0.2-0.5-0.8-0.7-1.3-0.5-0.3 0.2-0.5 0.5-0.5 0.9l-1.3 0.6-4.4-9.6-5 0.3 0.1-0.8 0.1-0.1 0.2-0.1c0.5-0.2 0.7-0.8 0.5-1.3-0.2-0.4-0.8-0.6-1.3-0.4-0.4 0.2-0.7 0.7-0.4 1.2l0.1 0.2v0.3l-1 2.7 0.1 6.4c-0.4 0.2-0.7 0.7-0.4 1.2 0.2 0.5 0.8 0.7 1.2 0.5z"/><path  d="m90.6 232.1l0.2-0.1 4.7 2.4 3 6.7-0.3 0.1c-0.2-0.2-0.6-0.3-0.9-0.1-0.5 0.2-0.7 0.8-0.5 1.3 0.2 0.4 0.8 0.6 1.3 0.4 0.3-0.1 0.5-0.4 0.5-0.8l1.1-0.5-3.5-7.7-5.1-2.6v-0.3c-0.2-0.5-0.8-0.7-1.3-0.5-0.5 0.2-0.7 0.8-0.5 1.2 0.3 0.5 0.8 0.7 1.3 0.5z"/><path  d="m144.9 192.8c-0.5 0.2-0.7 0.8-0.5 1.2 0.2 0.5 0.8 0.7 1.3 0.5l0.2-0.1 11.7 4.8v0.2c0.2 0.4 0.8 0.6 1.3 0.4 0.5-0.2 0.7-0.8 0.5-1.2-0.3-0.5-0.8-0.7-1.3-0.5l-0.3 0.2-11.6-4.7-0.1-0.3c-0.2-0.5-0.7-0.7-1.2-0.5z"/><path  d="m148 198.7l0.1-0.1 7 3.1 4.3 0.9c0.2 0.2 0.6 0.3 0.9 0.1 0.5-0.2 0.7-0.7 0.5-1.2-0.2-0.5-0.8-0.7-1.3-0.5-0.3 0.2-0.5 0.5-0.5 0.8l-3.9-1-6.5-3-0.1-0.3c-0.3-0.5-0.8-0.7-1.3-0.5-0.5 0.2-0.7 0.8-0.5 1.3 0.3 0.4 0.8 0.7 1.3 0.4z"/><path  d="m152.8 205.1c0.5 0.2 1 0.1 1.3-0.4 0.3-0.4 0.1-1-0.3-1.3-0.3-0.1-0.7-0.1-1 0.1l-2.9-1.7c0-0.4-0.2-0.7-0.5-0.9-0.5-0.2-1-0.1-1.3 0.4-0.3 0.4-0.1 1 0.3 1.3 0.4 0.2 0.7 0.1 1-0.1l2.9 1.7c0 0.4 0.2 0.7 0.5 0.9z"/><path  d="m118.3 214l4.5 2 6-2.8c0.3 0.2 0.7 0.3 1 0.1 0.5-0.2 0.7-0.7 0.5-1.2-0.2-0.5-0.8-0.7-1.3-0.5-0.3 0.2-0.5 0.5-0.5 0.8l-5.8 2.6-3.8-1.7-2.2-4.9 3.1-1.5 1 2.3c-0.2 0.3-0.3 0.6-0.1 1 0.2 0.4 0.8 0.7 1.3 0.4 0.4-0.2 0.6-0.7 0.4-1.2-0.1-0.4-0.5-0.6-0.8-0.6l-1.4-3-4.7 2.2z"/><path  d="m128.7 238.9c-0.3-0.2-0.6-0.3-1-0.1-0.5 0.2-0.7 0.8-0.5 1.3 0.2 0.4 0.8 0.6 1.3 0.4 0.3-0.1 0.5-0.5 0.5-0.8l25.7-11.7 2-4.9 0.2-0.1c0.5-0.2 0.7-0.8 0.5-1.3-0.2-0.4-0.8-0.6-1.2-0.4-0.5 0.2-0.7 0.8-0.5 1.2l0.1 0.2-1.8 4.6z"/><path  d="m169.1 235.8c-0.3-0.2-0.6-0.2-1-0.1-0.3 0.1-0.5 0.5-0.5 0.8l-4.3 2-8.6-3-22.8 10.5c-0.3-0.2-0.6-0.3-1-0.2-0.4 0.3-0.6 0.8-0.4 1.3 0.2 0.5 0.8 0.7 1.2 0.5 0.4-0.2 0.6-0.5 0.6-0.8l22.5-10.3 8.6 2.9 4.6-2.1c0.2 0.2 0.6 0.3 0.9 0.1 0.4-0.1 0.6-0.5 0.6-0.8l1.7-0.8 6.8 15.1c-0.2 0.2-0.2 0.6-0.1 0.9 0.2 0.5 0.8 0.7 1.3 0.5 0.5-0.2 0.7-0.8 0.5-1.2-0.2-0.4-0.5-0.6-0.9-0.6l-7.2-15.8z"/><path  d="m94.9 239.6c0.3 0.1 0.6 0.2 0.9 0 0.5-0.2 0.7-0.7 0.5-1.2-0.2-0.5-0.8-0.7-1.3-0.5-0.4 0.2-0.6 0.5-0.5 0.9l-1.3 0.9 2.8 6.2h2.5c0.2 0.4 0.7 0.5 1.1 0.3 0.5-0.2 0.7-0.8 0.5-1.2-0.2-0.5-0.8-0.7-1.3-0.5-0.2 0.1-0.4 0.3-0.5 0.6l-1.8-0.2-2.2-4.9z"/><path  d="m115.2 220.9c-0.2 0.3-0.3 0.6-0.1 1 0.2 0.4 0.7 0.6 1.2 0.4 0.5-0.2 0.7-0.8 0.5-1.2-0.2-0.4-0.5-0.6-0.8-0.6l-2.9-6.4-10.2 4.7 1.4 2.9c-0.2 0.3-0.3 0.7-0.1 1 0.2 0.5 0.8 0.7 1.2 0.5 0.5-0.2 0.7-0.8 0.5-1.3-0.1-0.3-0.5-0.5-0.8-0.5l-1-2.2 8.5-3.9z"/><path  d="m122.8 217.8c-0.2-0.2-0.6-0.3-0.9-0.1-0.5 0.2-0.7 0.8-0.5 1.3 0.2 0.4 0.8 0.7 1.3 0.4 0.3-0.1 0.5-0.4 0.5-0.8l11.1-5.1-11.8-25.8c0.2-0.3 0.3-0.6 0.1-1-0.2-0.4-0.8-0.6-1.2-0.4-0.5 0.2-0.7 0.8-0.5 1.2 0.1 0.4 0.4 0.5 0.8 0.6l11.4 25z"/><path  d="m119 201.1c-0.2-0.2-0.6-0.3-0.9-0.1-0.5 0.2-0.7 0.8-0.5 1.2 0.2 0.5 0.8 0.7 1.3 0.5 0.3-0.1 0.5-0.5 0.5-0.8l2.9-1.4-2.5-5.8c0.2-0.3 0.2-0.7 0.1-1-0.2-0.5-0.8-0.7-1.3-0.5-0.5 0.3-0.7 0.8-0.5 1.3 0.2 0.3 0.5 0.5 0.9 0.5l2.2 5.1z"/><path  d="m168 225.2l0.7-1.8 0.3-0.1c0.5-0.2 0.7-0.8 0.4-1.3-0.2-0.4-0.8-0.7-1.2-0.4-0.5 0.2-0.7 0.7-0.5 1.2l0.2 0.3-0.6 1.4-1.7 0.8-0.9 2-0.4 0.1c-0.4 0.2-0.7 0.8-0.4 1.2 0.2 0.5 0.7 0.7 1.2 0.5 0.5-0.2 0.7-0.8 0.5-1.3l-0.1-0.1 0.8-1.7z"/><path  d="m163.6 201.3c0.2-0.3 0.3-0.6 0.1-0.9-0.2-0.5-0.8-0.7-1.2-0.5-0.5 0.2-0.7 0.8-0.5 1.2 0.1 0.4 0.5 0.6 0.8 0.6l0.4 0.8-13.1 5.9-7.7-16.8c0.2-0.3 0.3-0.6 0.1-0.9-0.2-0.5-0.7-0.7-1.2-0.5-0.5 0.2-0.7 0.8-0.5 1.3 0.2 0.3 0.5 0.5 0.9 0.5l8 17.6 14.6-6.7z"/><path  d="m147.5 210.1l-7.5-16.3-3-1.6-3.4 1.6 10.1 21.9-1.2 4.8h-0.1c-0.5 0.2-0.7 0.8-0.5 1.2 0.2 0.5 0.8 0.7 1.3 0.5 0.5-0.2 0.7-0.8 0.4-1.2l-0.2-0.4 1.2-5-9.9-21.3 1.3-0.6 10.1 22.1-2 8-0.2 0.1c-0.4 0.2-0.6 0.8-0.4 1.2 0.2 0.5 0.8 0.7 1.2 0.5 0.5-0.2 0.7-0.8 0.5-1.2l-0.2-0.4 2.1-8.3-10.3-22.4 0.3-0.1 2.3 1.3 7.3 16c-0.2 0.3-0.3 0.6-0.1 1 0.2 0.5 0.8 0.7 1.3 0.4 0.4-0.2 0.6-0.7 0.4-1.2-0.1-0.4-0.4-0.5-0.8-0.6z"/><path  d="m146.6 258.9c0.2 0.2 0.6 0.3 0.9 0.1 0.5-0.2 0.7-0.7 0.5-1.2-0.2-0.5-0.8-0.7-1.2-0.5-0.4 0.2-0.6 0.5-0.6 0.8l-2 0.9-3.9-8.6c0.2-0.3 0.2-0.6 0.1-1-0.2-0.5-0.8-0.7-1.3-0.5-0.5 0.3-0.7 0.8-0.5 1.3 0.2 0.4 0.5 0.5 0.9 0.6l4.3 9.4z"/><path  d="m118.1 190.4l-6.4 2.9c-0.2-0.2-0.6-0.2-0.9-0.1-0.5 0.2-0.7 0.8-0.5 1.3 0.2 0.4 0.8 0.7 1.2 0.4 0.4-0.1 0.6-0.4 0.6-0.8l6-2.7 3.3 1.6 2.6 5.8c-0.2 0.3-0.2 0.6-0.1 1 0.2 0.4 0.8 0.6 1.3 0.4 0.5-0.2 0.7-0.8 0.5-1.2-0.2-0.4-0.5-0.6-0.9-0.6l-2.7-6z"/><path  d="m208.1 180.2c0.4-0.3 0.6-0.8 0.4-1.3-0.2-0.5-0.7-0.7-1.2-0.5-0.4 0.2-0.5 0.5-0.6 0.8l-37.1 17-26.6-9.5-0.1-0.3c-0.2-0.5-0.8-0.7-1.3-0.4-0.4 0.2-0.7 0.7-0.4 1.2 0.2 0.5 0.8 0.7 1.2 0.5l0.3-0.2 26.7 9.6 0.2 0.1 37.5-17.2c0.3 0.2 0.6 0.3 1 0.2z"/><path  d="m247.3 180.7l-0.1-0.1z"/><path  d="m286.7 175.1l-4.1-9 13.9-6.4-1.2-2.6-0.2-0.5-0.5 0.2-13.4 6.2-4-8.6 5.4-2.5 1.1-0.5 2.7-1.2 1.1-0.5 6.2-2.9-0.4-0.8-6.9 3.2-1.1 0.5-2.7 1.3-1.1 0.4-5.5 2.5 4.7 10.2 13.9-6.3 0.7 1.5-13.9 6.4 4.9 10.6 18.2-8.3 1.5 3.4-21.3 9.7-13.1-28.5 6-2.7 1.1-0.5 2.6-1.2 1.1-0.5 11.3-5.2-0.3-0.8-12.2 5.5-1.1 0.5-2.5 1.2-1.1 0.5-6.1 2.8 0.3 0.6 0.4 0.8 0.4 0.8 0.3 0.8 0.4 0.8 0.4 0.8 0.9 2.1 0.5 1 7.8 17 0.7 1.6 1.7 3.8 23-10.5-2.3-5z"/><path  d="m280.2 156l-0.2-0.6 2.5-1.2 1-0.5 1.7-0.7 1.1-0.5 2.8-1.3 1.1-0.5 6.1-2.8-2.2-4.6-10.5 4.8-1.2 0.5-2.6 1.2-1.1 0.5-5.6 2.6 12 26.4 19.3-8.8-0.3-0.9-18.5 8.5-11.4-24.7 5.7-2.6 1-0.5 2.7-1.2 1.1-0.5 9-4.1 1.4 3-6 2.7-1.2 0.5-2.7 1.3-1.1 0.5-5.3 2.4 2.9 6.4 11.3-5.1 1.1-0.5 1.4-0.7 0.7 1.5 0.5 1.2 1.3 2.8-13.8 6.3 3 6.6 17.1-7.8-0.3-0.8-11.4 5.2-0.8 0.4-1.7 0.7-0.7 0.4-1.7 0.8-2.3-5 1.7-0.8 0.8-0.4 1.7-0.7 0.8-0.4 1.5-0.7 0.8-0.4 1.4-0.6 0.8-0.4 4.3-1.9-1.1-2.4-0.3-0.7-0.4-0.9h-0.1v-0.1l-1.4-3-2.9 1.3-1.1 0.5-1.7 0.8-1.1 0.5-1.5 0.7-1 0.4-4.4 2.1-1.6-3.4z"/><path  d="m219.5 209l-7.2-6.5-1.7-1.5-4.9-4.4-1.4-1.3-3.2-2.9-0.7-0.7-0.6-0.5-0.7-0.7-0.6-0.5-0.7-0.6-0.6-0.6-0.7-0.6-0.5-0.4-0.7-0.6-0.2-0.2-0.2-0.2-6 2.8 0.1 0.5v0.9 0.6l0.1 0.9v0.8 1l0.1 0.8v0.9l0.1 0.8v1l0.5 12.2 0.2 2.3 0.4 9.8v0.2 0.5 0.5l0.1 0.1v0.4 1.3l0.6-0.3 4.7-2.1-0.2-2.7-0.5-9 4.4-2 0.8-0.4 6.2-2.8-0.7-0.6-5.9 2.6-0.8 0.4-4 1.9-0.8-14.6-0.1-0.9-0.1-0.8v-0.5l0.4 0.3 0.6 0.5 0.7 0.7 12.7 11.3-7.8 3.5-0.8 0.4-3.8 1.7 0.2 0.9 4-1.8 0.8-0.4 8.2-3.7 5.2 4.6 0.9-0.4-18.7-16.5-0.7-0.7-0.6-0.5-0.8-0.6-0.6-0.6-0.7-0.6-0.2 0.1 0.1 0.9v0.8l0.1 1v0.8l0.1 0.9 1.4 24.5v1.7l-1.4 0.7-0.7 0.3-1.4 0.6v-1.7l-1.1-24.6-0.1-1v-0.8l-0.1-0.9v-0.8-1l-0.1-0.8v-0.9-0.6l-0.1-0.5 5-2.2 0.4 0.3 0.4 0.4 0.7 0.6 0.6 0.6 0.7 0.6 0.6 0.5 0.7 0.7 0.6 0.5 0.7 0.7 3.9 3.5 0.7 0.6 13.9 12.5 2 1.9 0.9-0.4z"/><path  d="m198.8 193.4l-0.7-0.6-0.6-0.5-0.8-0.7-0.6-0.5-0.7-0.7-0.6-0.5-0.5-0.4-0.2-0.2-3.2 1.5v0.9 0.8l0.1 0.9v0.8l0.1 1v0.8l0.1 0.9 1.2 24.5 0.9-0.4-1.3-24.5v-0.9l-0.1-0.8v-1l-0.1-0.8v-0.9-0.8l2.2-1 0.5 0.5 0.7 0.7 0.7 0.5 0.7 0.7 0.6 0.5 0.7 0.6 18.6 16.6 1.4 1.2-3.2 1.4-1.4-1.1-4.5-3.9-7.3 3.4-0.8 0.3-4.2 2 0.3 5.7 0.2 2.8 0.8-0.4-0.1-2.8-0.3-4.8 0.6-0.3 0.8-0.3 2.3-1.1 0.8-0.3 2.3-1.1 0.8-0.4 2.4-1 0.8-0.4 0.4-0.2 3.8 3.2 2.2 1.8 4.8-2.2-2-1.9z"/><path fill-rule="evenodd" d="m195.1 195.1l9.8 9.2-5.5 2.5-0.8 0.4-2.7 1.2-0.9-13.3zm1.1 2.2l0.6 9.8 1.6-0.7 0.8-0.4 4.2-1.9-2.1-2-0.7-0.6z"/><path  d="m276.9 179.3c-1.4 4-4.4 7.4-8.5 9.3-8 3.6-17.4 0.2-21-7.7l-0.1-0.2-0.1-0.1c-3.3-7.8 0.3-17 8.2-20.6 2.6-1.2 5.4-1.6 8.1-1.4v1.2c-2.5-0.3-5.2 0.1-7.7 1.2-7.4 3.4-10.7 12.1-7.4 19.4 3.1 6.7 10.6 9.9 17.6 7.9l-0.3-0.8c-6.6 2-13.7-1.1-16.6-7.4-3.2-6.9 0-15.2 7-18.4 2.4-1.1 4.9-1.4 7.4-1.2l-0.1 1c-2.2-0.2-4.6 0.1-6.8 1.1q-0.6 0.3-1.1 0.6l0.4 0.5q0.5-0.2 0.9-0.5c2.2-0.9 4.4-1.2 6.6-1l-0.1 1c-2.1-0.2-4.1 0.1-6.1 1-5.7 2.6-8.2 9.2-5.6 14.8 2.5 5.6 9.2 8 14.9 5.4 2.7-1.2 4.9-3.5 5.9-6.3l0.1-0.2-0.8-0.2-0.1 0.1c-0.9 2.6-2.9 4.7-5.5 5.9q-0.9 0.4-1.9 0.7-0.5 0.1-0.9 0.1c-4.5 0.7-9-1.6-11-5.8-1-2.2-1.1-4.5-0.6-6.7q0.1-0.6 0.4-1.3 0.3-0.7 0.7-1.4 0.2-0.4 0.5-0.9 0.2-0.3 0.5-0.6 0.3-0.3 0.6-0.7 0.5-0.5 1.1-1 0.4-0.2 0.7-0.5 0.7-0.4 1.4-0.7 0.4-0.2 0.8-0.3 0.6-0.2 1.2-0.4 0.5-0.1 0.9-0.1 0.9-0.2 1.7-0.1 0.5 0 1 0h0.1q0.3 0.1 0.7 0.1v0.1l0.1-0.9v-1-0.4-0.3l0.1-0.7v-0.3-0.8l0.1-0.3v-0.8-0.1-0.7l-0.2-0.1h-0.5q-0.8-0.1-1.6-0.1-1.2 0-2.5 0.2-2.3 0.3-4.5 1.3-2.2 1-4 2.6-0.9 0.8-1.8 1.7c-2 2.4-3.4 5.3-3.9 8.4q-0.1 0.8-0.2 1.6 0 1.3 0.1 2.6 0.2 1.7 0.7 3.3 0.2 0.8 0.5 1.5l0.1 0.1 0.1 0.3c3.8 8.3 13.7 11.9 22.2 8 4.3-1.9 7.4-5.6 8.9-9.7z"/><path  d="m273.4 178.3v0.1l-0.2 0.5c-1.2 2.8-3.3 5.1-6.3 6.4-6.2 2.9-13.5 0.2-16.2-5.9-2.4-5.2-0.7-11.3 3.7-14.7l-0.4-0.5c-4.7 3.6-6.5 10-3.9 15.5 2.9 6.4 10.6 9.2 17.1 6.2 3.1-1.4 5.3-3.8 6.5-6.6l1 0.3c-1.3 3.1-3.8 5.7-7.1 7.2q-0.4 0.2-0.8 0.4l0.3 0.7q0.4-0.2 0.8-0.4c3.6-1.6 6.1-4.4 7.5-7.7q0.2-0.4 0.4-0.8h-0.2l-0.5-0.2-0.9-0.3h-0.1z"/><path  d="m242.7 180.6l-0.8 0.3-4.8 2.2-0.8 0.4-8.7 4 0.3 0.8 0.2 0.4 0.6 1.4 0.4 0.7 0.3 0.8 0.4 0.8 0.4 0.8 2.2-1 0.8-0.4 2.4-1.1 0.8-0.4 3.4-1.5c-0.1 1.9-0.6 3.8-1.6 5.3q-0.3 0.5-0.6 0.9-0.9 1.1-2 1.9-0.4 0.2-0.8 0.5-0.4 0.2-0.9 0.4-0.7 0.4-1.5 0.6-0.4 0.1-0.9 0.2c-0.9 0.1-1.8 0.2-2.7 0.1q-0.5 0-1-0.1-1.5-0.3-2.8-1-0.7-0.4-1.3-0.9c-1.2-0.9-2.3-2.2-2.9-3.6q-0.5-1.2-0.7-2.3-0.1-0.5-0.2-0.9 0-0.6 0-1.3 0-0.4 0.1-0.9 0.2-1.6 0.9-3 0.4-0.7 0.9-1.4 0.8-1.1 1.9-2 0.3-0.3 0.7-0.5c0.4-0.3 0.9-0.6 1.4-0.8q0.7-0.3 1.5-0.6 0.5-0.1 0.9-0.1 1.2-0.3 2.4-0.2 0.5 0.1 1 0.2 0.3 0 0.6 0.1 0.5 0.1 0.9 0.2v-0.8l0.1-0.2v-1-0.8l0.1-1.1v-0.9l0.1-1.2v-0.8-0.1q-0.4-0.1-0.9-0.2-0.7-0.1-1.5-0.1h-0.5q-0.3 0-0.7 0h-0.1q-1.2 0-2.5 0.2-2.2 0.3-4.3 1.3-2 0.9-3.7 2.4-1 0.8-1.9 1.8c-1.4 1.6-2.5 3.4-3.2 5.4q-0.3 0.6-0.4 1.4-0.4 1.4-0.6 3 0 0.9 0 1.9c0.1 1.9 0.5 3.8 1.2 5.6l0.8-0.3c-1.4-3.4-1.5-7.1-0.5-10.4v-0.1c0.9-2.9 2.6-5.5 5-7.6 1.1-0.9 2.3-1.7 3.7-2.3q2.1-1 4.2-1.3c1.7-0.3 3.4-0.2 5 0l-0.1 1.2c-2.8-0.5-5.8-0.1-8.6 1.1-7.4 3.4-10.7 12.1-7.4 19.3 3.4 7.3 12.1 10.5 19.5 7.1q0.7-0.4 1.4-0.8v-1q-0.9 0.6-1.8 1c-7 3.2-15.1 0.2-18.2-6.6-3.2-6.9-0.1-15 6.9-18.1 2.7-1.3 5.5-1.6 8.2-1.1l-0.1 1.1c-2.5-0.5-5.2-0.3-7.7 0.9l-0.4 0.2v0.9q0.4-0.2 0.8-0.3c2.4-1.1 4.9-1.4 7.3-0.9v0.6l-0.1 0.1 0.1 0.1-0.1 0.3c-2.2-0.5-4.6-0.3-6.8 0.8-5.4 2.4-7.8 8.8-5.4 14.1 2.5 5.3 8.8 7.7 14.3 5.2 4-1.9 6.4-6 6.3-10.1l-0.4-0.9-9.6 4.4-0.3-0.8 12.5-5.7 0.7 1.6c0.6 4.7-1.4 9.5-5.2 12.5l0.1 1.1c4.4-3.3 6.7-8.7 6-14l-0.8-1.6-0.3-0.8-0.9 0.4-12.5 5.7-1.2-2.5 14.6-6.6 0.3 0.8-13.7 6.3 0.4 0.8 13.7-6.3 1.5 3.3c1.1 6.9-2.4 13.9-9.1 17-7.8 3.6-16.9 0.4-20.7-7l-0.8 0.3c3.1 6.1 9.5 9.5 16.1 9q0.4-0.1 0.9-0.1 1.2-0.2 2.5-0.6c0.3-0.1 0.6-0.1 0.8-0.2q0.8-0.3 1.5-0.6 0.5-0.2 0.9-0.5 0.4-0.2 0.8-0.4 1.2-0.7 2.2-1.6 0.3-0.3 0.7-0.6c4.1-3.8 6-9.5 5-15.1l-2.2-4.9-0.4-0.7v-0.1z"/><path  d="m242.5 187.6l-0.4-0.8-0.8 0.3 0.4 0.9c0.3 4.7-2.3 9.5-7 11.6-6 2.7-13 0.2-15.7-5.7-2.4-5.3-0.5-11.4 4.2-14.6l-0.1-1c-5.3 3.3-7.5 10.1-4.9 15.9 2.9 6.3 10.4 9.1 16.9 6.2 5.1-2.4 7.9-7.6 7.4-12.8z"/><path  d="m124.5 257.7c-0.5 0.2-0.7 0.8-0.5 1.3l0.5 0.4-0.5 1.2-13.4 6.2c-0.2-0.2-0.6-0.3-0.9-0.1-0.5 0.2-0.7 0.7-0.5 1.2 0.2 0.4 0.6 0.6 1 0.5l3.8 2.3 5.3 1.7 0.9 1.3c-0.1 0.3-0.2 0.6 0 0.9 0.2 0.4 0.7 0.7 1.2 0.4 0.5-0.2 0.7-0.8 0.5-1.2-0.2-0.4-0.6-0.6-1-0.6l-1-1.6-5.6-1.7-3.4-2.1 0.1-0.2 13.8-6.3 0.3-1.2 0.6-0.9c0.2-0.3 0.2-0.7 0.1-1-0.2-0.5-0.8-0.7-1.3-0.5z"/><path  d="m209 186.7l-1.7-3.8-0.3-0.7-0.7 0.3-9 4.2 0.3 0.7 9-4.2 1.7 3.7c-0.3 0.3-0.4 0.7-0.2 1.1 0.2 0.5 0.8 0.7 1.2 0.5 0.5-0.2 0.7-0.8 0.5-1.3-0.1-0.3-0.5-0.5-0.8-0.5z"/><path  d="m239.3 178.6l-0.6-1.3-0.3-0.6-0.6 0.3-2.7 1.2 0.3 0.7 2.7-1.3 0.5 1.3c-0.2 0.3-0.3 0.7-0.1 1 0.2 0.5 0.8 0.7 1.2 0.5 0.5-0.2 0.7-0.8 0.5-1.3-0.2-0.3-0.5-0.5-0.9-0.5z"/><path  d="m188.5 200.4l-0.3-0.6-9.3 4.3-0.7 0.3 0.3 0.6 9.5 20.6c-0.3 0.3-0.3 0.7-0.2 1.1 0.2 0.4 0.8 0.7 1.3 0.4 0.5-0.2 0.7-0.7 0.4-1.2-0.1-0.4-0.5-0.6-0.8-0.6l-9.5-20.6z"/><path  d="m187.8 208l-1.4-3-0.3-0.6-0.7 0.3-2.8 1.3-0.7 0.3 0.3 0.7 5.8 12.6c-0.2 0.3-0.3 0.7-0.2 1 0.3 0.5 0.8 0.7 1.3 0.5 0.5-0.2 0.7-0.8 0.5-1.2-0.2-0.4-0.6-0.6-0.9-0.6l-5.8-12.6 2.8-1.4 1.4 3c-0.3 0.3-0.3 0.7-0.2 1 0.3 0.5 0.8 0.7 1.3 0.5 0.5-0.2 0.7-0.8 0.4-1.2-0.1-0.4-0.5-0.6-0.8-0.6z"/><path  d="m187.1 197.3l-26.7 12.3c-0.3-0.2-0.7-0.3-1.1-0.1-0.4 0.2-0.6 0.7-0.4 1.2 0.2 0.5 0.8 0.7 1.2 0.5 0.4-0.2 0.6-0.6 0.6-0.9l26.7-12.3z"/><path  d="m178.4 217.2l-5.9 2.7c-0.3-0.3-0.7-0.4-1-0.2-0.5 0.2-0.7 0.8-0.5 1.3 0.2 0.4 0.8 0.6 1.3 0.4 0.3-0.1 0.5-0.5 0.5-0.9l5.9-2.7 1.2 2.6-9.2 4.2c-0.2-0.2-0.7-0.3-1-0.1-0.5 0.2-0.7 0.7-0.5 1.2 0.2 0.5 0.8 0.7 1.3 0.5 0.3-0.2 0.5-0.5 0.5-0.9l9.2-4.2 0.7-0.3-0.3-0.7-1.2-2.6-0.3-0.6z"/><path  d="m186 194.9l-26.7 12.3c-0.3-0.3-0.7-0.4-1.1-0.2-0.5 0.2-0.7 0.8-0.4 1.2 0.2 0.5 0.7 0.7 1.2 0.5 0.4-0.2 0.6-0.5 0.6-0.9l26.7-12.3z"/><path  d="m234 175.8l3.3-1.5 0.3 0.7-3.3 1.5z"/><path  d="m230.1 182.7c-0.4 0.2-0.6 0.6-0.5 0.9l-6.2 2.9c-0.3-0.3-0.7-0.4-1-0.2-0.5 0.2-0.7 0.8-0.5 1.3 0.2 0.3 0.5 0.5 0.9 0.5l2.7 5.9c-0.3 0.2-0.4 0.6-0.2 1 0.2 0.5 0.8 0.7 1.3 0.4 0.4-0.2 0.6-0.7 0.4-1.2-0.1-0.4-0.5-0.6-0.9-0.6l-2.7-5.8q0.3-0.3 0.3-0.7l6.2-2.8c0.2 0.2 0.6 0.3 1 0.2 0.5-0.3 0.7-0.8 0.5-1.3-0.3-0.5-0.8-0.7-1.3-0.5z"/><path  d="m232.6 207.7l-0.5-1.1-0.6 0.3 0.4 1.1c-0.2 0.3-0.3 0.7-0.1 1.1 0.2 0.4 0.8 0.6 1.2 0.4 0.5-0.2 0.7-0.8 0.5-1.2-0.2-0.4-0.5-0.6-0.9-0.6z"/><path  d="m235.9 206.2l-0.4-1.1-0.7 0.3 0.5 1.1c-0.3 0.3-0.3 0.7-0.2 1 0.2 0.5 0.8 0.7 1.3 0.5 0.4-0.2 0.7-0.8 0.4-1.3-0.1-0.3-0.5-0.5-0.9-0.5z"/><path  d="m239.3 204.7l-0.5-1.1-0.7 0.3 0.5 1.1c-0.2 0.2-0.3 0.6-0.2 1 0.3 0.5 0.8 0.7 1.3 0.5 0.5-0.3 0.7-0.8 0.5-1.3-0.2-0.3-0.6-0.6-0.9-0.5z"/><path  d="m242.6 203.1l-0.5-1-0.7 0.3 0.5 1c-0.2 0.3-0.3 0.7-0.1 1.1 0.2 0.4 0.7 0.6 1.2 0.4 0.5-0.2 0.7-0.8 0.5-1.2-0.2-0.4-0.5-0.6-0.9-0.6z"/><path  d="m236.5 180.4l-1.9 0.9c-0.2-0.3-0.6-0.3-1-0.2-0.5 0.3-0.7 0.8-0.5 1.3 0.3 0.5 0.8 0.7 1.3 0.5 0.4-0.2 0.6-0.6 0.5-0.9l1.9-0.9 0.2 0.5 0.7-0.3-0.2-0.5-0.4-0.7z"/><path  d="m239.3 167.4l-4.9 2.2c-0.3-0.2-0.7-0.3-1.1-0.1-0.4 0.2-0.7 0.7-0.4 1.2 0.2 0.5 0.7 0.7 1.2 0.5 0.4-0.2 0.6-0.5 0.6-0.9l4.9-2.3 3 6.7 0.7-0.4-3.1-6.6-0.3-0.6z"/><path  d="m241.8 177.5l-2.9-6.3-0.3-0.6-3.9 1.8 0.3 0.6 3.2-1.5 2.9 6.3c-0.3 0.2-0.3 0.6-0.2 1 0.2 0.5 0.8 0.7 1.3 0.5 0.5-0.3 0.7-0.8 0.4-1.3-0.1-0.3-0.5-0.5-0.8-0.5z"/><path  d="m265.6 158.1l4.7-2.1 0.3 0.6-4.7 2.2z"/><path  d="m206.4 187.9l-0.5-1.3-0.4-0.8-0.7 0.3-5.6 2.6 0.4 0.8 5.6-2.6 0.6 1.3q-0.2 0.2-0.3 0.5l-4.1 1.9 0.4 0.8 4.1-1.9c0.3 0.2 0.6 0.3 1 0.2 0.4-0.3 0.7-0.8 0.4-1.3-0.1-0.4-0.5-0.6-0.9-0.5z"/><path  d="m215.7 201.4l-3.8-8.2c0.3-0.3 0.3-0.7 0.2-1-0.2-0.5-0.8-0.7-1.3-0.5-0.5 0.2-0.7 0.8-0.4 1.3 0.1 0.3 0.5 0.5 0.9 0.5l3.7 8.2c-0.2 0.3-0.3 0.7-0.1 1.1 0.2 0.4 0.7 0.6 1.2 0.4 0.5-0.2 0.7-0.8 0.5-1.2-0.2-0.4-0.5-0.6-0.9-0.6z"/><path  d="m211 197.7l-1.6-3.4c0.3-0.2 0.4-0.6 0.2-1-0.2-0.5-0.8-0.7-1.3-0.5-0.4 0.3-0.6 0.8-0.4 1.3 0.1 0.4 0.5 0.6 0.9 0.5l1.5 3.4c-0.2 0.3-0.3 0.7-0.1 1.1 0.2 0.5 0.7 0.7 1.2 0.4 0.5-0.2 0.7-0.7 0.5-1.2-0.2-0.4-0.5-0.6-0.9-0.6z"/><path  d="m263.7 167.3c-0.3 0.1-0.5 0.5-0.5 0.9l-7.3 3.3c-0.3-0.2-0.7-0.3-1.1-0.1-0.5 0.2-0.6 0.8-0.4 1.2 0.2 0.5 0.7 0.7 1.2 0.5 0.4-0.2 0.6-0.5 0.6-0.9l7.3-3.4c0.2 0.3 0.7 0.4 1 0.2 0.5-0.2 0.7-0.8 0.5-1.3-0.2-0.4-0.8-0.6-1.3-0.4z"/><path  d="m266.8 160.7l4.7-2.2 0.3 0.7-4.7 2.2z"/><path  d="m268.5 168.2c-0.4 0.1-0.6 0.5-0.6 0.9l-10.9 5c-0.3-0.3-0.7-0.4-1-0.2-0.5 0.2-0.7 0.8-0.5 1.3 0.3 0.4 0.8 0.6 1.3 0.4 0.3-0.2 0.5-0.5 0.5-0.9l10.9-5c0.3 0.3 0.7 0.3 1 0.2 0.5-0.2 0.7-0.8 0.5-1.3-0.2-0.5-0.8-0.7-1.2-0.4z"/><path  d="m278.3 174.7l-4.6-10c0.2-0.3 0.3-0.7 0.1-1-0.2-0.5-0.7-0.7-1.2-0.5-0.5 0.2-0.7 0.8-0.5 1.3 0.2 0.3 0.6 0.5 0.9 0.5l4.6 10c-0.2 0.3-0.3 0.7-0.1 1.1 0.2 0.4 0.7 0.6 1.2 0.4 0.5-0.2 0.7-0.8 0.5-1.2-0.2-0.4-0.5-0.6-0.9-0.6z"/><path  d="m272.4 169.4l-1.5-3.4c0.2-0.3 0.3-0.7 0.1-1-0.2-0.5-0.8-0.7-1.2-0.5-0.5 0.2-0.7 0.8-0.5 1.3 0.2 0.3 0.5 0.5 0.9 0.5l1.5 3.4c-0.1 0.2-0.2 0.4-0.2 0.7l-13.4 6.1c-0.2-0.2-0.6-0.3-1-0.2-0.5 0.3-0.7 0.8-0.4 1.3 0.2 0.5 0.7 0.7 1.2 0.5 0.4-0.2 0.6-0.6 0.5-0.9l13.4-6.2c0.3 0.3 0.7 0.4 1 0.2 0.5-0.2 0.7-0.8 0.5-1.3-0.2-0.3-0.5-0.5-0.9-0.5z"/><path  d="m267.2 174.7c-0.4 0.2-0.6 0.5-0.6 0.9l-7.3 3.4c-0.3-0.3-0.7-0.4-1.1-0.2-0.4 0.2-0.6 0.8-0.4 1.3 0.2 0.4 0.8 0.6 1.2 0.4 0.4-0.1 0.6-0.5 0.6-0.9l7.3-3.3c0.3 0.2 0.7 0.3 1 0.1 0.5-0.2 0.7-0.8 0.5-1.2-0.2-0.5-0.8-0.7-1.2-0.5z"/><path  d="m264.6 155.7l4.6-2.1 0.3 0.7-4.6 2.1z"/><path  d="m243.6 164.8c-0.4 0.1-0.6 0.5-0.6 0.9l-1.2 0.5 1.7 3.9 0.7-0.3-1.5-3.2 0.6-0.3c0.3 0.3 0.7 0.3 1.1 0.2 0.4-0.2 0.6-0.8 0.4-1.3-0.2-0.5-0.8-0.7-1.2-0.4z"/><path  d="m301.9 153l-0.3 0.2-8.6-3.2-0.3 0.7 8.6 3.2 0.1 0.4c0.2 0.4 0.8 0.7 1.3 0.4 0.4-0.2 0.6-0.7 0.4-1.2-0.2-0.5-0.7-0.7-1.2-0.5z"/><path  d="m280.3 145.4v-0.1l-2.4-0.8-1-0.4-0.4 0.2-0.5 0.2-14.4 6.7c-0.3-0.3-0.7-0.4-1-0.2-0.5 0.2-0.7 0.8-0.5 1.3 0.2 0.4 0.8 0.6 1.3 0.4 0.3-0.2 0.5-0.5 0.5-0.9l15-6.9 4.1 1.5 0.9-0.4z"/><path  d="m275 148h-0.1l-63.5 29.2c-0.3-0.2-0.7-0.3-1.1-0.1-0.4 0.2-0.6 0.7-0.4 1.2 0.2 0.5 0.8 0.7 1.2 0.5 0.4-0.2 0.6-0.5 0.6-0.9l63.2-29.1 0.5 0.2 1-0.4z"/><path  d="m108.3 254.7l-2.6 1.2c-0.2-0.2-0.6-0.3-0.9-0.1-0.5 0.2-0.7 0.8-0.5 1.2 0.2 0.5 0.8 0.7 1.3 0.5 0.3-0.1 0.5-0.5 0.5-0.8l1.8-0.8 0.9 1.9-1.8 0.8c-0.3-0.2-0.6-0.3-1-0.1-0.5 0.2-0.7 0.8-0.5 1.3 0.3 0.4 0.8 0.6 1.3 0.4 0.3-0.1 0.5-0.4 0.6-0.8l2.2-1 0.3-0.2z"/><path  d="m110.9 256.8l1.9-0.9 0.2-0.1c0-0.3 0.2-0.6 0.6-0.8 0.4-0.2 1 0 1.2 0.5 0.2 0.5 0 1-0.4 1.2-0.4 0.2-0.7 0.1-1-0.1l-2.1 1-0.7 0.3h-0.1v0.1l-1.6-3.5v-0.1l10.5-4.8-1 7-13.5 6.2c-0.1 0.3-0.2 0.6-0.6 0.8-0.5 0.2-1 0-1.2-0.5-0.3-0.5 0-1 0.4-1.3 0.4-0.1 0.7 0 1 0.2l13.1-6 0.6-4.8-8.1 3.7z"/><path  d="m257 152.6c-0.3 0.2-0.5 0.5-0.5 0.8l-84.6 38.9-10.6-3.3-0.1-0.2c-0.1-0.3-0.4-0.5-0.8-0.6l-0.6-1.4c0.2-0.2 0.2-0.6 0.1-0.9-0.2-0.5-0.8-0.7-1.3-0.5l-0.2 0.2-12.4-4.4-4.2-0.7v-0.1c-0.2-0.5-0.8-0.7-1.2-0.4-0.5 0.2-0.7 0.7-0.5 1.2 0.2 0.5 0.8 0.7 1.2 0.5l0.4-0.3 4.1 0.6 12.3 4.4 0.1 0.3c0.1 0.3 0.4 0.5 0.8 0.5l0.6 1.4c-0.2 0.3-0.3 0.6-0.1 1 0.2 0.5 0.8 0.7 1.3 0.4l0.2-0.1 11.3 3.2 84.5-38.9c0.3 0.2 0.6 0.3 1 0.1 0.5-0.2 0.7-0.7 0.5-1.2-0.3-0.5-0.8-0.7-1.3-0.5z"/><path  d="m278.9 180.6c-1.7 4.5-5 8.1-9.4 10.1h-0.1c-4.9 2.3-10.4 2.2-15 0.2l1.9 17.5 6.8-3.9 8 3.1-1-13.8 11.7 11 2.4-8.4 6.9-3.6z"/></svg>