<svg xmlns="http://www.w3.org/2000/svg" viewBox="0 0 400 400"><path fill-rule="evenodd" d="M200.1 383.7C99.1 383.7 17.5 302 17.5 201S99.1 18.4 200.1 18.4 382.8 100 382.8 201s-81.7 182.7-182.7 182.7M380.3 201c0-99.6-80.5-180.1-180.2-180.1C100.5 20.9 20 101.4 20 201s80.5 180.2 180.1 180.2c99.7 0 180.2-80.6 180.2-180.2"/><path d="M198.8 361.9c.6-1.3 1.1-2.9 1-4.5q-.1-.6-.2-1.1.2-.3.3-.8c1.1-3.7-.8-6.2-2.7-7.3-.7-.4-1.4-.7-2.5-1.1l-.9-.3c-.7-.4-1.4-.6-1.9-.8l-.5-.1q-.3-.4-.7-.8c-1-1.2-2.2-1.9-3.9-2.3l-.3-.1c-.5-.1-1-.3-1.6-.4l-.2-.3c-.5-.6-2.1-2.4-5.2-2.4h-2.4c-.4-.3-1.5-.9-1.5-.9l-.2-.1c-1-2.1-1.4-2.8-2-3.4-.8-1-1.8-1.5-2.5-1.8-.8-1.1-1.6-1.8-2.4-2.2l-.1-.5c-.5-1.8-1.2-2.8-1.8-3.6l-.1-.2c-.8-1.2-2.4-2.5-3.6-3.5l-49-39.8-31.3-26.1-10.7-8.3-22-17.9L25.6 212l-1.9-1.6c.4-2.9 1-7 1.1-7.7.2-1 1.4-7 2-10.4.6-.3 1.2-.7 1.7-1.1q.4-.2.7-.3 1.1-.4 2-1.3.5-.1 1.1-.4c.9-.4 1.6-.9 2.7-1.9l.5-.3c.6-.4 1.7-.9 2.1-1.2l.5-.2h1.4c1.3 0 2.6-.2 2.6-.2q.7-.2 1.3-.4c3.1-1.5 4-2.1 4.9-3.1l.2-.4c.7.4 1.5.7 2.6.9.6 0 1.1.1 1.6.1.6 0 1.1-.1 1.5-.1l.4-.1c.4 0 .9-.1 1.4-.1 1.1-.2 2.6-.4 3.4-.4q.9-.1 1.9-.1c1-.1 2-.2 2.8-.2h2c.5.4 1.1.7 1.9.9.3.3.7.6 1.3.8.7.3 1.5.5 2.2.5 2.9 0 4.5-2 5.2-2.8l.1-.2c.7-.5 1.3-1.2 2.1-2.1l.3-.3c.2-.2.6-.5 1.4-1.3.6-.6 1.1-1.3 1.4-2.2 1-.6 2.3-1.4 2.8-1.6 1.3-.6 3.8-1.7 4.2-1.9l.3-.1c1.9-.7 3.2-1.2 4.1-1.7.8-.5 1.4-1.1 2.4-2.2.2-.2.5-.4.8-.7 1.3-.1 3.8-.3 5.2-.4 2.9-.2 5.3-2.2 6.5-3.4 1.3-1.3 1.7-2.7 1.7-4 1.3-1.4 2.6-3.3 1.8-6-.1-.4-.8-2.1-1.7-3.6q.2-.3.3-.7.15-.45.3-1.2c.9 0 2.2-.1 3.3-.2q.6-.1 1.3-.2c2.3-.4 3.5-.5 4.5-1.1q1.4-.6 2.7-2.1c.7-.7 1.1-1.5 1.3-2.5q.4 0 .7-.1c.9-.1 1.6-.4 2.3-.7l.2-.1c.6.2 1.5.5 2.6.5h.1c1.3-.1 2.5-.4 3.4-.6l.3-.1c.6.3 1.4.5 2.3.6h1.3c1.1.4 2.3.8 3.5 1q.9.1 1.7.1c1.2 0 2-.2 2.7-.3l.1-.1c1-.1 3.7-.7 5-3.3q.6-1.3.6-2.7c2.9-2 3.2-5.1 2.1-7.3-.3-.7-.6-1.1-1.8-2.7-.3-.4-.6-.8-.8-1-.3-.7-1-1.7-1.7-2.6q-.3-.4-.7-.8.1-.8 0-1.7c-.1-.5-.2-1.7-1.5-3.4l.3-1c.3-1.2.6-2.2.7-3 .1-1.7-.3-3.2-.9-4.3.4-.7.7-1.6.8-2.8 0 0 .3-2.8-.1-4.5 0-.3-.1-.7-.6-2.1.1-.7.1-1.5.1-2.1 0-1.6-.5-2.8-.9-3.7V92c.2-1.6-.1-2.8-.5-3.8q.3-.2.6-.5l.2-.1q.4-.2.8-.5c.3-.2 1.2-.6 1.5-.8l.2-.1c1.6 0 3-.6 4.2-1.7.3-.2 1-.8 1.3-1 .7-.4 1.4-1.1 2-2.2l1-.8c.6-.3 1.1-.5 1.4-.7.7.3 1.6.6 2.7.6h.8q.8 0 1.5-.2l.5-.1q1.4.7 2.9.7h.3q.3.1.7.1c.9 0 1.9-.2 2.8-.6.7-.1 1.9-.5 3.1-1.6.5-.5.9-1.1 1.1-1.6.4-.3.8-.7 1.2-1.4.2-.2.5-.7.8-1.1l.1-.1.6-.3c1.1-.1 2.1-.5 3-1.1l.5-.3.1-.1.9-.3h.1c.4-.2 1-.3 1.6-.7l.1-.1h.2c1.9-.3 3.1-1.4 3.8-2l.5-.2q.5-.1.9-.3.3.1.7.1.5 0 1.3-.1.6.1 1.3.1.9.2 1.8.3.5-.1.8-.1.8.2 1.9.2.8 0 1.5-.2h.5q.6.2 1.4.2h.4c1 0 1.6-.1 2-.3.5 0 1-.1 1.6-.2q.7.2 1.4.3h.6c.6 0 1.5 0 1.8-.1 1.4-.1 1.9-.1 2.2-.2 1.1-.2 2.3-.7 2.8-.9l.1-.1c.3-.2 1.1-.6 1.8-1.1l.5-.4q.4-.3.7-.5l.5.1c1.2.2 1.7.2 2.2.2.4 0 .8 0 1.2-.1.5.1 1.1.2 1.7.2q.6 0 1.2-.1.75-.15 1.2-.3h1.4c.3-.1 1.5-.1 2.8-.8l.5.1c.6.2 1.2.3 2 .3h.1c.5.1 1 .1 1.4.1h.1q.5.1 1.1.1.5 0 .9-.1l.5.1q.4.1.8.1.6 0 1.1-.1.3.1.7.2c1.4.2 1.9.2 2.1.2q.8 0 1.3-.1c.3.7.9 1.5 1.8 2.2.5.4 1.7 1.4 3.9 1.9.9.2 1.9.3 2.8.3.7 0 1.3 0 1.9-.2l.5-.1c.5-.1 1.3-.3 2.1-.6.7-.3 1.4-.7 2.2-1.2h.3q.5.1 1 .1c1.1 0 2.1-.2 3.1-.6l.8-.4q.4 0 .6-.1 1.35-.15 2.7-.9.7-.3 1.1-.7.4-.2.8-.5l.2-.1.3.2c.8.5 2.2.9 2.2.9l.2.1h.2l.6.3c.9.5 2.3 1.2 3.9 1.2 1 0 1.7-.2 2.2-.3h.4q1 0 2-.3l.1-.1c.3-.1.6-.2.8-.3.5-.2 1-.5 1.4-.8q.7.4 1.5.6c.9 1.1 2 1.7 2.8 2.1.9.3 1.8.7 3 .8 0 .7.1 1.3.4 1.9l.4 1q-.2.7-.3 1.4l-.2.5c-.1.8-.3 1.7-.4 2.8l-.1.5c-.1.7-.3 1.6-.4 2.6v.3c0 .8 0 1.9.4 3.3.2.7.5 1.2.7 1.6l-.1.7v.2c-.1.8-.4 2.2.1 3.9l.2.6c-.5.7-.9 1.6-1.3 2.7q-.2.9-.4 1.6l-.1.4v.1c-.2.4-.5 1.1-.8 2q-.6.4-1 1c-.5.1-1.1.4-1.7.7-.5.3-1.6 1-2.4 2.2q-.45.45-.9 1.2l-.2.4-.6.2c-1 .4-3.5 1.8-4.5 4.4 0 0-.8 2.2-.8 4-.1.7-.1 1.5-.1 2 0 .7.1 1.4.1 1.8l.1.2v.2c0 1.6.1 3.1.7 4.4l.1.1c.5 1.2 1 2.3 1.8 3.3q0 .6.2 1.2c.4 2.1 1.8 3.4 2.4 3.9.7.7 1.5 1.2 2.2 1.6l.6.4q1.1 1.2 2.5 2c.1.6.4 2.9.4 2.9.1 1.3.4 3.2 1.8 4.8.6.7.7.8 7.9 6.2q1 .7 1.8 1.2 0 .4.1.7c0 2.1 4.2 22.6 4.3 22.8.1.5.3 1.2.4 1.8-.8.8-1.6 1.9-1.9 3.3-.6 2.5.3 4.7 2.5 9q.2.5.4.7c.2.6 1.1 3 1.5 4.1.5 1.4.8 2.2 1 2.7.1.3.4 1.2.5 1.7q.2.7.4 1.2c0 .3.3 1.2.4 3 .1 1.7.2 5.5.1 6.3 0 .8-.2 3.8-.2 4.7l-.1.4c-.1.4-.1.9-.2 1.4v.1c-.1.6-.2 1.8.1 3.1l.3 1.2.1.3c.1.2.5 1.9.5 1.9l-.3.6c-.2.4-.5 1.1-.7 2-.6.8-1.2 1.7-1.4 3.1-.1 1 0 1.9 0 3q.1.5.1.9s.1 3.4.5 4.8c.2.8.6 1.4.8 1.8l.1.3.2.2c-.1.4-.2.8-.2 1.1 0 0-.8.6-1.1.8-2.5 0-4 1.2-4.8 2.2-2.5 3.2-2.8 4-3 5-.4 1.8-.2 3.3.7 5.2.3.6.6 1.1 8.9 12.9l.3.4v3.5c0 .8-.2 2.6 1.1 4.5q.4.6.8 1c.3 1.9 1.4 3.6 2.4 4.6.2.1 3.2 2.8 5.6 3.2.3.1.7.1 1 .1.9 0 1.9-.3 2.8-.6q.7.1 1.4.1h.5q.8.3 1.8.3h.2c.6.9 1.6 1.8 3.1 2.3.7.3 2.4.6 3.9 1 0 1.4.5 2.7 1.4 4 0 0 2.3 3 3.1 4.2-5.4 3.2-15.8 9.2-21.5 12.6l-1.3.8c-4.9 2.8-6 3.5-6.4 3.7-.9.6-18.5 11-22.2 13.2l-18.6 11c-8.2 4.8-9.1 5.6-9.5 6-.6.5-4.9 3.8-10.6 8-5.3 3.8-7.7 5.5-8.8 6.4-.3.1-.7.2-1.3.4-1.4.3-14.8 3.3-25.8 5.8l-1.1.2c-.1.1-6.1 1.6-10.4 2.8" style="fill:#c9d8e5"/><path fill-rule="evenodd" d="m181 363.2.5.1h.6q.3 0 .7.1.4 0 .7.1h1.3q.5-.1.9 0 .9 0 1.6.2.8.2 1.4.6t1 1q.3.7.3 1.6-.1.6-.3 1.1-.3.5-.6.9-.4.5-.9.8-.5.2-1.1.4.4.9.7 1.6.3.8.7 1.4.3.7.5 1.2t.4.7q.2.4.4.6l.4.3.5.2q.3.1.7.2l-.1.5q-.3-.1-1-.1-.6-.1-1.3-.1-.4-.1-.6-.1h-.4q-.1-.3-.3-.8-.3-.6-.6-1.3-.3-.8-.7-1.6l-.8-1.8-.2-.2-.1-.2-.3-.2h-.5l-.3-.1h-.4l-.3 4.1v.6l.2.3q.2.2.5.3t1 .2l-.1.5q-.7-.1-1.3-.1-.7-.1-1.5-.2h-.7q-.3 0-.6-.1h-1v-.5q.5 0 .9-.1l.5-.2q.1-.2.2-.5t.2-.8l.7-8.8v-.5l-.2-.4q-.2-.1-.5-.2t-.9-.2zm4 6.5q1.1 0 1.9-.5.9-.6 1-2.2.1-1.4-.6-2-.8-.7-2-.8h-.4l-.4.2-.2.3v.5l-.4 4.4.2.1h.5zm36.1-6.6v.5q-.5.1-.9.2-.3.1-.5.3t-.2.5v.8l1 8.8q0 .3.1.5l.3.3q.2.2.5.2h1v.5q-.3.1-.6.1h-.6q-.4 0-.7.1h-.8q-.5 0-.7.1h-.6l-.5.1h-.5v-.5q.4 0 .7-.2l.4-.3.2-.5q0-.3-.1-.8l-.9-8.3-1.8 5.4q-.9 2.8-1.7 5.6l-.7.1q-.5-.9-2.1-3.9-1.7-3-3.1-5.7l.2 7.4q0 .6.1 1 .1.3.3.5t.5.2h.8v.6h-.9q-.5 0-1.2.1-.5 0-1 .1-.6 0-1 .1l-.1-.5q.5-.1.9-.2.3-.1.5-.3.2-.3.2-.7.1-.5 0-1.3l-.2-6.8v-.8q-.1-.3-.2-.5l-.1-.5-.3-.2q-.3-.3-.7-.3-.4-.1-.8-.1v-.1q-.4.1-.7.1-.3.1-.5.3-.2.3-.3.7-.1.5-.1 1.3l-.1 9.9-.7.1q-.3-.5-.7-1c-.2-.3-.4-.6-.7-.9l-7-8.3-.1 7.6q0 .6.1 1 0 .3.2.5t.6.2q.3.1.9.1l-.1.6q-.4-.1-1-.1h-3.3v-.5q.5 0 .8-.1.4 0 .6-.3.2-.2.3-.7.1-.4.1-1.2v-7.5q0-.3-.1-.5l-.1-.4-.2-.3-.2-.3-.3-.2-.5-.1q-.2 0-.6-.1l.1-.5h1.1q.4.1.9.1h.9l8.2 9.7.1-7.3q0-.6-.1-1 0-.3-.2-.5t-.6-.3c-.2 0-.5-.1-.8-.1v-.5h1q.6.1 1.2.1h1.1l.5-.1h.5v.1h.3q.4-.1.9-.1.4 0 1-.1h1q.3.5.6 1.1.2.5.5 1l4.3 7.8 2.8-8.5q.2-.5.3-1 .2-.6.4-1.1.2 0 .8-.1.6 0 1.1-.1h1q.4-.1.6-.1m9.1-1.5q0 .7.1 1.4l.2 1.6-.6.1q-.2-.7-.4-1.1c-.1-.3-.3-.5-.5-.6q-.3-.2-.8-.3-.4 0-1.1.1l-1.6.2q-.4.1-.5.2t-.1.4l.7 4.5 4.2-.8.1.1.2 1.1q-1.2.1-2.3.2t-2.1.2l.6 3.9q.1.5.2.8l.3.4q.2.1.5.1h.9l.7-.2q.8-.1 1.3-.3.4-.2.7-.5t.5-.9q.2-.5.3-1.2h.6v.9q-.1.4-.1.8v1.4q-2.6.4-4.2.7l-2.4.3q-.4.1-.7.1-.3.1-.6.1-.4.1-.7.1-.3.1-.5.1l-.1-.4q.5-.2.9-.3.3-.1.5-.4l.2-.5v-.8l-1.4-8.7q0-.4-.1-.5l-.3-.4q-.2-.1-.5-.1-.4 0-.9.1l-.1-.5q.3-.1.6-.1.3-.1.7-.1.3-.1.7-.1.3 0 .6-.1.5-.1 2.1-.3 1.7-.3 4.2-.7m-71.7-2.4q.5.1 1.2.3.6.1 1.4.3.7.1 1.3.2t1.1.3l-.1.4q-.7-.1-1 0-.4 0-.4.4l-.1.3.1.5 1.2 8.8 4.8-7.4.2-.5.2-.4v-.2l-.2-.3-.5-.2q-.2-.1-.7-.2l.2-.5q.5.1 1 .3l1.2.2 1 .2.6.1q.3 0 .6.1.3 0 .6.1.4 0 .7.1.4 0 .7.1.5 0 2.1.3 1.7.2 4.2.6-.2.6-.3 1.3-.1.8-.3 1.6l-.6-.1q0-.7-.1-1.1 0-.5-.3-.8-.2-.3-.6-.5-.4-.1-1.1-.2l-1.6-.3h-.5q-.2.1-.2.4l-.7 4.5 4.3.5.1.1-.2 1.1q-1.2-.3-2.2-.5-1.1-.2-2.1-.3l-.5 3.9q-.1.4-.1.7l.2.5q.1.2.4.3t.9.2l.7.1q.8.1 1.3 0 .5 0 .9-.3.3-.2.6-.6.4-.5.8-1.1l.5.2q-.1.3-.3.7-.1.5-.3.9-.1.4-.2.7-.1.4-.2.6-2.6-.3-4.2-.6-1.6-.2-2.4-.4h-.7q-.3-.1-.6-.1-.4-.1-.7-.1-.3-.1-.6-.1l.1-.5q.6.1 1 .1.4-.1.6-.2l.3-.5q.1-.3.2-.8l1.2-8.7q.1-.3.1-.6l-.2-.3q-.2-.2-.5-.3l-.4-.1q-.5-.1-.9-.1l-.6.2q-.3.2-.6.6l-.6.9q-1.6 2.3-3.1 4.6-1.5 2.2-3 4.5l-.9-.1-.8-5.6q-.4-2.7-.8-5.6-.1-.5-.2-.9t-.3-.6l-.4-.3q-.3-.2-.8-.3zm-8.1-2.3q1 0 2.1.3 1.5.4 2.5 1.2 1.1.8 1.7 1.8.6 1.1.7 2.4.15 1.2-.3 2.7-.4 1.4-1.2 2.4-.8 1.1-1.9 1.7t-2.4.8q-1.2.1-2.7-.3-1.5-.5-2.5-1.2-1.1-.8-1.7-1.8-.6-1.1-.7-2.4t.3-2.7 1.2-2.4q.8-1.1 1.9-1.7 1.1-.7 2.3-.8zm0 12.5h.2q.9-.1 1.7-.5.8-.5 1.5-1.4t1.1-2.3q.5-1.8.4-3-.1-1.3-.6-2.2-.4-.9-1.1-1.4-.8-.5-1.4-.7-.7-.2-1.6-.2t-1.7.5-1.4 1.4q-.7.9-1.1 2.3-.5 1.7-.4 3t.5 2.2q.5.9 1.2 1.4t1.4.7q.5.2 1.3.2m104.2-14q.1.5.2.9t.2.7q0 .4.2.8 0 .3.2.8l-.5.2q-.4-.7-.6-1.1-.3-.4-.7-.7-.3-.2-.8-.2-.4 0-1.1.2l-1.5.4 3 9.9.2.5.3.3q.2.1.6 0 .4 0 1-.2l.1.5q-.2.1-.5.2l-.8.2q-.3.1-.7.2t-.7.2q-.4.1-.7.2l-.6.2-.6.2-.6.2-.1-.5q.5-.2.9-.4.3-.1.4-.4.1-.2.1-.5t-.2-.8l-2.8-9.4-1.4.4q-.7.2-1.1.4-.4.3-.6.7-.1.3-.1.9 0 .5.1 1.2l-.6.1-.2-.8q-.2-.6-.4-1.1l-.2-.6-.6.2-.4.4q-.1.3-.1.7 0 .5.2 1.2l2.1 9.7-.7.3-.8-.8q-.5-.3-.9-.7l-8.8-6.6 1.7 7.5q.1.6.2.9.2.3.4.5.2.1.6.1.3 0 .9-.1v.5q-.4.1-.9.2-.6.1-1.2.3-.6.1-1.1.2l-1 .2-.1-.4q.5-.2.8-.3.3-.2.5-.4.1-.3.1-.8 0-.4-.2-1.2l-1.4-6.4q-.1-.5-.2-.9-.1-.3-.2-.5l-.2-.3-.3-.3-.3-.2-.3-.1-.5-.1q-.2 0-.6.1l-.1-.5.5-.1q.3 0 .7-.1t.9-.2.8-.2l10.2 7.6-1.6-7.1q-.1-.7-.2-1-.2-.3-.4-.4-.3-.2-.6-.1-.3 0-.9.1l-.1-.5 1-.2q.6-.2 1.2-.3.3-.1.6-.1l.5-.2.5-.1h.1v-.1q.8-.2 1.5-.4l1.4-.4q.7-.2 1.3-.4t1.2-.3q.5-.2 1.2-.4.5-.2 1.2-.4t1.5-.4q.7-.2 1.5-.5m-117.1-2.6h.7q1.4.1 3 .7.4.1.8.3.5.3.9.5.5.2.9.5t.8.5q-.4.8-.7 1.5t-.6 1.5l-.6-.2q.3-.8.2-1.4-.1-.7-.4-1.2t-.8-.9-1.2-.6q-1.1-.4-2.2-.4t-2 .5q-.8.4-1.5 1.3t-1.1 2.1q-.5 1.1-.6 2.3t.3 2.2q.3 1 1.1 1.8t1.8 1.2q.2 0 .5.1l.8.2h.9q.3-.1.4-.3l.9-2.4.2-.5-.2-.5q-.2-.2-.6-.4l-1-.5.2-.5q.3.1.6.3.4.1.7.2.4.2.7.3.3.2.8.3.2.1.5.2.4.1.6.2l.5.2.4.2-.1.4c-.3 0-.4-.1-.6-.1l-.5.1-.3.4q-.2.3-.3.8l-.3.8q-.3.5-.4 1.1-.3.5-.3.9-1.1-.1-2.3-.3t-2.1-.6q-1.6-.5-2.6-1.4-1.1-.9-1.7-2-.6-1.2-.6-2.5-.1-1.3.4-2.7.6-1.5 1.6-2.5t2.3-1.4q1-.3 2.1-.3m130.6-2.6q.2.5.3.9t.2.7q.1.4.3.7.1.4.3.8l-.5.2q-.4-.6-.7-1t-.7-.6-.8-.1q-.5 0-1.2.3l-1.3.5 3.7 9.6.3.5.3.2q.3.1.6 0 .4-.1 1-.3l.2.5-.6.2q-.3.1-.7.3-.3.1-.7.3-.4.1-.7.2-.4.2-.7.3l-.6.2-.6.3-.5.2-.2-.4q.6-.3.9-.5t.4-.4q.1-.3 0-.6 0-.3-.2-.8l-3.6-9.1-1.4.5q-.6.3-1 .6t-.5.6q-.2.4-.1 1 0 .5.1 1.2l-.5.1-.3-.7q-.2-.6-.4-1.1t-.6-1.1q.8-.3 1.5-.6t1.4-.5q.7-.3 1.2-.5.6-.2 1.2-.5.5-.2 1.1-.4.6-.3 1.2-.5l1.4-.6q.8-.3 1.5-.6m7.4-2.9q.7 0 1.3.4t1 1.2q.2.5.3 1.1t0 1.1q-.2.6-.5 1.1-.2.5-.7.9.8.6 1.5 1.1.6.5 1.2.9t1 .7q.5.3.8.4l.6.3.5.1h.5q.3-.1.8-.3l.1.5q-.3.2-.9.4l-1.2.6q-.3.1-.5.2l-.4.2q-.2-.2-.7-.5-.5-.4-1.1-.9-.7-.5-1.5-1-.7-.6-1.6-1.1l-.2-.2-.2-.1h-.3l-.3.1-.2.1-.3.1-.3.2 1.8 3.8.2.4.4.3c.1 0 .3 0 .6-.1q.3 0 .9-.3l.2.5q-.6.2-1.3.5-.6.3-1.3.7l-.6.2-.5.3-.5.2-.4.2-.3-.4q.5-.2.7-.5l.3-.4v-.5q0-.3-.2-.8l-3.8-8-.3-.4-.3-.3q-.2 0-.6.1-.3 0-.8.3l-.2-.5.4-.2.6-.3q.3-.1.6-.3.4-.1.7-.3.6-.3 1.1-.6.4-.3.8-.4.8-.4 1.6-.6.6-.2 1.2-.2zm-1.5 7 .2-.1.2-.1.2-.1q1.2-.5 1.7-1.6.5-.9-.2-2.4-.6-1.2-1.6-1.4t-2 .3l-.4.2-.2.4v.4l.2.4zm-152.5-9.2.5.3.6.3q.3.1.6.3l.6.3q.5.2 2 .9t3.8 1.9q-.4.5-.7 1.2-.4.6-.8 1.4l-.5-.3q.2-.7.3-1.1 0-.5-.1-.8-.1-.4-.4-.7-.4-.3-1-.5l-1.5-.8q-.4-.1-.5-.1t-.3.3l-1.9 4.1 3.9 1.7v.1l-.5 1q-1-.6-2-1.1-.9-.5-1.8-.9l-1.7 3.5q-.2.4-.3.7v.5l.3.4q.3.2.8.5l.7.3q.7.3 1.2.4t.9 0 .8-.4q.5-.4 1.1-.9l.4.4q-.2.3-.5.6-.3.4-.5.7-.3.4-.5.7l-.3.5q-2.4-1.1-3.9-1.9-1.4-.7-2.2-1-.3-.2-.5-.3-.4-.2-.7-.3t-.6-.3q-.3-.1-.5-.2l.2-.5q.6.3.9.4h.7l.4-.4q.2-.2.4-.7l3.9-7.9.2-.5-.1-.5-.4-.4q-.2-.2-.7-.4zm168.2-6.1.2.4q-.4.3-.7.6l-.4.5q-.1.3.1.7.1.4.4 1l2.8 4.9q.6 1.1.7 2.1 0 1-.3 1.8-.4.9-1 1.5-.7.7-1.5 1.2-.8.4-1.6.6-.9.3-1.7.1-.9-.2-1.6-.6-.7-.5-1.2-1.5l-3.5-6.1-.3-.4-.4-.2q-.2-.1-.6 0-.3.1-.9.4l-.2-.4.5-.3q.3-.2.6-.3.3-.2.7-.4.3-.2.7-.4t.6-.4l.6-.3.5-.3.5-.3.3.4q-.5.3-.8.6l-.3.5q-.1.3 0 .6t.3.8l3 5.2q.4.8 1 1.3.6.4 1.3.5t1.3 0q.7-.1 1.2-.4.6-.4 1.1-.9.4-.5.6-1.1.3-.7.1-1.5-.1-.8-.7-1.7l-2.6-4.8q-.3-.5-.5-.7l-.6-.4q-.3 0-.7.1-.3.1-.9.4l-.2-.5q.4-.2.9-.5.6-.3 1.2-.7.5-.2 1.1-.6.5-.3.9-.5m6.4-4q.2.4.3.7l.4.6.4.6q.2.3.4.7l-.5.4q-.8-1.2-1.8-1.3-1-.2-2 .5-.3.2-.6.5-.2.3-.3.7t-.1.8q.1.4.4.8.3.5.7.8.4.2.9.3.4 0 .9-.1t1.1-.1q.7-.2 1.5-.2.8-.1 1.4.1.6.1 1.2.5.6.3 1 1 .5.7.6 1.5 0 .8-.2 1.5-.3.8-.8 1.4-.6.7-1.3 1.1-.6.4-1.4.7-.7.3-1.6.6-.5-.7-1.1-1.2-.5-.6-1.1-1.2l.4-.5q.6.5 1.2.8.5.3 1.1.5.6.1 1.2 0t1.2-.5q.4-.3.6-.6.3-.4.4-.8.1-.5 0-.9-.1-.5-.3-.9-.4-.6-.8-.8-.5-.2-1-.3h-1q-.4.1-1 .2-.7 0-1.4.1t-1.4 0q-.7-.2-1.2-.5-.6-.3-1-1-.5-.7-.5-1.4-.1-.7.2-1.4.2-.7.8-1.3.5-.7 1.2-1.1.7-.5 1.4-.8.7-.2 1.5-.5m-196.2-3.2q.7.5 1.3.9.7.4 1.2.8.6.4 1.1.8.5.3 1 .7.5.3 1.1.7.5.3 1.1.7l1.2.8q.7.5 1.4.9h-.1l.5.3.6.4.6.3 1.2.7.5.3.5.3.4.2-.2.4q-.5-.2-.8-.3h-.5l-.4.4q-.3.2-.5.6l-1.7 3 5.8 3.3 2-3.4.2-.4v-.4l-.3-.5q-.3-.2-.8-.5l.3-.4.5.3.5.3q.3.1.7.4.4.2.6.4l.6.3.5.3.5.2.4.3-.2.4q-.5-.2-.8-.3h-.5l-.5.3q-.2.2-.4.7l-4.4 7.6-.2.5v.4l.3.5q.3.2.7.5l-.3.4-.4-.3-.6-.3q-.2-.2-.6-.4-.3-.2-.6-.3-.4-.3-.7-.4l-.5-.3-.5-.3-.4-.2.3-.4q.4.2.7.3h.6l.4-.3q.2-.3.5-.7l2-3.6-5.8-3.3-2.3 4-.2.5v.4l.3.4q.2.2.7.5l-.3.4-.4-.2-.5-.3q-.3-.2-.7-.5-.4-.2-.7-.3l-.5-.4-.6-.2-.5-.3-.3-.2.2-.5q.4.3.7.3.4.1.6 0l.4-.3q.2-.2.5-.6l4.4-7.7.2-.5v-.4l-.3-.4q-.3-.2-.8-.5l.3-.4q-.3.4-.5.6-.3.3-.5.6l-.4.6q-.2.3-.5.7l-.5-.3q.3-.6.5-1.1t.1-.9q0-.4-.3-.8-.3-.3-1-.7l-1.2-.9-5.7 8.6-.3.5v.4l.3.5q.3.2.8.6l-.3.4-.5-.4-.6-.4-.6-.4q-.4-.3-.6-.4-.4-.3-.6-.4l-.6-.4-.5-.3-.5-.3.3-.5q.5.4.8.5.4.1.7.1l.4-.3q.3-.2.5-.6l5.5-8.2-1.2-.8q-.6-.4-1-.5-.5-.2-.9-.1t-.8.4l-.9.9-.4-.3.5-.7.6-1q.3-.5.6-1.1m205.7-3.9.4.8.4.6.4.6q.3.4.5.7l-.4.4-.9-.9q-.4-.3-.8-.4t-.9.1q-.4.2-1 .6l-1.2.9 6.1 8.3.4.4.4.1q.2 0 .5-.1.4-.2.9-.6l.3.5-.5.3-.6.4q-.3.3-.7.5-.3.3-.6.5t-.5.4l-.5.4-.5.3-.5.4-.3-.4q.5-.4.7-.6l.3-.6-.1-.5q-.1-.3-.4-.7l-5.8-8-1.2.9q-.6.4-.9.8t-.3.8q-.1.4.1.9t.5 1.1l-.5.3-.4-.7q-.4-.4-.7-.9-.4-.4-.8-.9l1.2-1q.7-.4 1.2-.8.6-.5 1.1-.8.5-.4 1-.7.5-.4 1-.7.5-.4 1.1-.8.5-.5 1.2-.9.6-.5 1.3-1"/><path fill-rule="evenodd" d="M200.1 400C90.1 400 1.2 311 1.2 201S90.1 2.1 200.1 2.1c110.1 0 199 88.9 199 198.9s-88.9 199-199 199m191.4-199C391.5 95.2 306 9.6 200.1 9.6 94.3 9.6 8.8 95.2 8.8 201s85.5 191.4 191.3 191.4c105.9 0 191.4-85.6 191.4-191.4"/><path d="M58 190.4q-1.4-1.4-2.6-1.4-1.6.1-2.4 1.9l-1.6 3.5q-.4.9-.5 1-.3.3-.9.4-.6 0-1.4-.9l-1.9-1.9q-.9-.8-.9-1.3t1.5-1.3l5.2-2.7q2.4-1.2 2.3-3.6v-.5h.4l.2-1.4q.1-1 1.8-2.2 1.8-1.3 3.1-1.4l-2.8-3.7q-.8-1.1-1.2-1.4-.7-.5-1.8-.7-.9-.1-2.8.6l-3 1.1q-2 .8-2.7.7t-1.7-.5q1.1 1.4 2.3 2.9 1 1.2 2.4 1.3.7.1 3-.7l2-.8q1.6-.5 2-.4.5 0 .9.5-1.7 1.3-2.5 1.9c-.6.4-1 .8-1.3 1.2h-1.5v1q0 1.6-1.7 2.5l-6.5 3.3q-1.8 1-2.6 1-.7 0-1.7-.3l9.2 9.2q2.1 2.1 3 2.1 1 0 1.5-.5.3-.3.8-1.3l1.9-4.1q.5-1 1.5-1 .4-.1 1 .5l1 1.1q1.3 1.2 1.3 1.5 0 .5-1.5 2l-5.8 5.9q-1.2 1.3-1.8 1.3-.5 0-1.9-.8l-1.7-.9 3.9 4q1.1 1 2 1 .5 0 1.9-1.4l6.9-7.2q1.3-1.2 1.3-2.4 0-1-1.3-2.3z"/><path d="M62.4 185.6q-.8.8-1.6.9 2.1 2.4 2.6 2.4.6 0 1-.9.6-1.4 1.6-2.2-1.7-1.1-2.2-1.1-.7 0-1.4.9M63.3 184q.7 0 1.1-1 .5-1.3 1.6-2.2-1.8-1-2.3-1-.7 0-1.4.8-.8.8-1.5.9 2 2.5 2.5 2.5M40.5 179.4q.6.1 1.1-.8.7-1.3 1.9-2-1.6-1.2-2.1-1.3-.7-.1-1.5.7-.8.7-1.6.7 1.7 2.7 2.2 2.7"/><path fill-rule="evenodd" d="M65.9 167.4q1.5 2.3.8 5.3-.1.8-.5 1.3 0-.5-.1-1.4-.3-1.8-1.8-4.1l-2.7-4.5q-.6-1-1.1-1.1-.4-.1-1.6.7l-3.9 2.5q-.9.6-1.1.7-.5.2-1.3 0-1-.2-1.9-1.6l-5.9-9.2q.7.3 1.4.5 1 .2 3.5-.4l3.1-.8q2.6-.7 4.1-.4 1.4.4 2.7 2.3zm-7.1-7.5q-.8-1.5-1.5-1.7-.6-.1-1.5.1l-3.7 1.1q-.7.1-1 .1l-.9-.3q1 1.8 1.8 2 .6.1 1.6-.2l3.2-1q1-.2 1.5-.2.3 0 .5.1"/><path d="M51.5 127.7q.8 3.2 1.2 3.4.6.3 1.4-.4 1-1 2.4-1.3-1.2-1.7-1.6-2-.6-.2-1.7.2-1 .4-1.7.1M56.1 126.2q1.1-1 2.4-1.3-1.1-1.7-1.6-2-.6-.2-1.6.2t-1.8.1q.8 3.2 1.3 3.4.6.3 1.3-.4"/><path d="M84.5 102.5q-.6-.1-1.8-1L64.6 87.6q1.1 4.9.2 6.1 5 .7 6 1.5l10.4 8q.4.3.4.8.1.6-.1.9l-.2.4-.6-.4-1.4 2.4-3.7-.4q-1.8-.2-2.1.3l-5.2 8.5q-.7 1.2-2.1 1l-.8-.1q-.4 0-1.1-.4-.4-.3-.8-2.2l-1.1-4.9q-.6-2.9-2.4-4-1.4-.8-3.8-1l-4.8-.4 2.1 8.8q.2-1.2.3-2.3.3-1.5.8-2.4 1.6-2.7 4.4-.9 1.2.7 1.7 3.1l2.6 11.6q.6 2.7.9 2.8.9.6 1.8.3.7-.2 1.1-.9l8.1-13.3 2 .2L67 127.3l.4.3-.2.5h-1.6l-3.2.1q-2.1.1-2.8-.3-.6-.3-1.4-.9l1.2 3.4q.7 1.5 1.9 2 .7.4 3.1.3l2.2-.1q1.6 0 2 .2t.7.7q-2.1.8-3 1.1-1.3.5-2 .9l-.8-.3-.9 2.7-.4-.2q-1.1-.3-3.6 0l-3.2.4q-2 .2-2.8 0-.7-.2-1.5-.8.8 1.6 1.6 3.3.7 1.4 2 1.9.7.2 3.1-.1l2.2-.3q2.3-.3 2.5-.2 1 .3 2 2.5l3.8 8.2q1.2 2.4 1.3 4.3 0 .9-.1 1.4.4-.5.7-1.2 1-2.9-.2-5.4l-5.1-10.8.8-2 .7-1.4q.4-.9 2.4-1.5t3.3-.3l-1.4-4.4q-.4-1.1-.7-1.6l1.4-3.1-.1-.1L82 109l.3.2 3.7-4.8q.9-1.2.6-2.8-1.3 1-2.1.9M92.2 88.9l-8.7-2.6q-3.1-.8-3.6-1-1.5-.5-2.4-1.4l-5.5-5q.6 4.9-.4 6 4.9 1.1 5.9 2.1l.7.6q.7.7 4.7 1.8l6.6 1.9q1.6.4 1.9.7.6.5-.1 1.2l-.7.7q-.7.8-1.2.4-.1-.1-.2-2.4l-1.8-.4v2.4q0 2.7-.9 3.9l1.7 1.6q1 .9 2.7-1l5.9-6.4-1-1q-1.8-1.6-3.6-2.1"/><path d="m82.8 81.2 2.7 2.5q1.4 1.3 1.5 2.8l2 .6q-1.2-4.3-2.6-5.6l-9.1-8.4q.5 5-.4 6.1 4.9 1.1 5.9 2M102.1 83q-1.6-.2-3.2-1.9L85.2 65.7q.2 4.8-1 6 4.8 1.6 5.7 2.6l9 10q1.6 1.8 3.1 1.7 1.4-.2 3.7-2.2 2-1.9 2-2.5-1.4.6-2.2 1-2.1.8-3.4.7M122.9 54.4q1.5-.1 2.7.4.1-2-.1-2.5-.3-.5-1.4-.8t-1.5-1q-1.3 3-1 3.5t1.3.4M121.1 54.7q-.3-.6-1.4-.9-1-.2-1.5-.9-1.2 3-1 3.4.3.6 1.4.5 1.4-.2 2.7.4.1-2-.2-2.5M151.2 63.7q-1-.4-1.4-1.1-1.5 2.8-1.3 3.3.2.6 1.2.6 1.5 0 2.6.8.4-2.1.2-2.6-.2-.6-1.3-1M146.6 65.6q-1-.4-1.4-1.2-1.5 2.9-1.3 3.3.2.6 1.2.6 1.5.1 2.6.8.4-2 .2-2.5-.2-.6-1.3-1"/><path fill-rule="evenodd" d="M144.9 61.5q-1.9-1-2.8-.6l-1.4.6-.1-.3-1.4.7-3.1 10q-.5 1.8-1.4 2.2-1 .6-2.8.1l-8.7-2.6q-1.9-.6-2.1-1-.4-.8 0-2.3l1.7-5.3v2q0 1.6.2 2 .3.5 2 1l7 2.2q2 .5 2.4.3.3-.1.8-1.8l.5-1.5q.2-.7 0-1.1-.3-.5-2-1l-3.8-1.1q-1.7-.4-2.3-1.5-.4-.8.1-2.4l3-10.2q.2 1 .5 1.6.4.7 2.1 1.9l3.7 2.5q1.7 1.2 2.2 2l.1.3 2.3-1.2.6 1.1q.75.15 1.8.6.9.4 2.9 1.3.2-.6 0-1-.1-.4-1.3-1.5l-1.6-1.4q-1.8-1.7-2.1-2.4-.5-1.2 0-2.7.8-1.7 1.5-3.4.1 1 .4 1.7t1.8 2.1l2.4 2.1q1.5 1.4 1.9 2.3.4 1 .2 1.8-.1.5-.7 1.8l-1.9 4.1q-.7-1.1-2.6-2m-7.7-.9q-.2-.4-1-1l-3.2-2.1q-.6-.4-.7-.7l-.4-.8q-.7 1.8-.3 2.6.2.5 1.2 1.1l2.7 1.8q.9.6 1.2 1l.3.5q.6-1.7.2-2.4"/><path d="M202.5 34.8q1.3.6 2.1 1.7 1.1-1.8 1.1-2.3 0-.6-.8-1.4t-.9-1.6q-2.5 2.1-2.5 2.6 0 .6 1 1M197.5 34.8q1.3.6 2.2 1.6 1.1-1.7 1.1-2.2 0-.7-.9-1.4-.8-.8-.8-1.6-2.5 2-2.5 2.6t.9 1M243.1 36.7q1.1.9 1.6 2.1 1.5-1.4 1.7-1.9.1-.6-.5-1.5-.6-1-.4-1.8-3 1.3-3.1 1.8-.2.7.7 1.3M238.2 35.4q1.2.9 1.7 2.1 1.5-1.3 1.6-1.9.2-.6-.4-1.5-.6-1-.4-1.8-3 1.4-3.1 1.8-.2.7.6 1.3M245.7 60.9q-3 1-3.2 1.5-.2.6.5 1.3 1.1 1 1.5 2.3 1.6-1.3 1.8-1.8.2-.6-.3-1.6t-.3-1.7M250.4 62.6q-3.1 1-3.3 1.5-.2.6.6 1.3 1 1 1.4 2.3 1.7-1.3 1.8-1.8.3-.6-.2-1.6t-.3-1.7"/><path fill-rule="evenodd" d="m256.8 60.2-2.2-.8q-.5.3-1.6.8l-4.3 1.8q.2-1.3-.5-3.3-.8-2-1.7-2.3l-1.4-.6-13.1-3.6q1.1-.8 1.2-1.2t0-1.4q-.2-1 0-1.8.4-1.5 1.8-2.3l4.4-2.5-.6-2.8 3.6-1.9.5 2.6 1.8-1q-.8 1.2-1.1 2.3-.2.8.4 4.1l1.4 6.2 3.1.9-.2.6q.5.7 1.1 2.1.4.9 1.3 2.9.5-.3.7-.8.1-.4 0-2l-.2-2.1q-.3-2.5 0-3.2.4-1.2 1.8-2 1.7-.7 3.4-1.5-.6.8-.9 1.5-.2.7 0 2.8l.3 3.2q.1 1.1.1 1.5l.8.3.1-.1 1.3.6.5.2v-.8q0-.7.2-1.2.5-1 1.8-1.5l10.5-3.7q-1 1-1.5 2-.3.8-.3 3.6l.3 10.5zm6.7-2.5.1 2.2q1.2.6 1.9.9v-3.2q-.1-1.6.2-2.2-.2.1-1.3.5-.5.2-.7.5-.2.5-.2 1.3m-22.3-6.3-.7-3.2q-.3-1.6-.2-2.2-.2.2-1.2.7-.5.3-.6.6-.1.6.1 1.4l.5 2.1q1.3.4 2.1.6M336 88l-17.8 14.2q-1.2.9-1.4 1.5-.3.8.3 2.3-1.5-.1-2.5-1.3l-3.8-4.7.1-.1-.4-.4q-.3 1.8.3 3.9.2.5.5 1.4-.5-.1-.9-.6-3.1-3.3-2.9-7.9l-7-7.5.1-.1-15.8-13-3-1.8-11.7 2.6q-2.7.6-5.3-1-.6-.4-1-.9.5.1 1.4.3 1.8.3 4.4-.3l5.1-1.1q1.2-.2 1.4-.6.3-.4 0-1.8l-1.2-4.5q-.2-1-.2-1.2 0-.6.4-1.3.5-.8 2.2-1.2l10.6-2.5q-.6.5-.9 1.1-.6.9-.8 3.4l-.3 3.2q-.2 2.5-.8 3.5l-.1.1 1.7 1.4.2.1h-.1l13.1 10.7.4-1.9-12.1-9.9q-.6-.5-.7-1.3-.1-.9.5-1.7.3-.2 3-.5l11.9-.9q2.4-.2 3.3-1.3 2-2.5-.4-4.5-.7-.6-2.2-1.1l-2.2-.6 8.9-.8-1 4.6q-.6 2.4-1.5 3.6-1.4 1.7-4.4 1.9l-5 .3q-1.9.2-2.2.6-.5.6-.5 1l-.3.8q-.4 1.3.7 2.2l7.7 6.3q.5.4 0 2.1l-.9 3.6 2.2 1.8-.4.4 3.7 3.9.8-3.3q.5-2.5-.5-3.5-.6-.6-1.6-1l5.6.2q1.9 0 2.3.5.4.3-.3 2.1l-3.1 8.5 3.3 3.5-.2.2.4.5q.3.3.9.4.6 0 .9-.3l10.2-8.1q1.1-.9 3-5.6.9 1.2 5.9 1.4m-53.4-22.8q.4-.6.5-.8-1.9.3-2.4 1.1-.3.5-.4 1.5l-.1 3.4q-.1 1-.3 1.4-.1.4-.3.5 1.8-.3 2.1-.9.3-.5.4-1.4l.3-3.9q0-.6.2-.9"/><path d="M336.9 95.3q-2.3 4.6-3.4 5.3l-11.1 7.6q-2 1.3-2.1 2.9 0 1.4 1.7 3.9 1.5 2.3 2.2 2.3-.4-1.4-.7-2.2-.5-2.2-.2-3.5.4-1.6 2.3-2.9l17.1-11.6q-4.9-.4-5.8-1.8"/><path fill-rule="evenodd" d="m343.9 173-1.9-9.8.3-.1-4.7-16.6-5.7-13.9q1.3.4 1.7.3.4-.2 1.1-.9.7-.8 1.4-1.1 1.5-.6 3 .1l4.7 1.9 1.8-2.1 3.6 1.6-1.7 2 1.9.8q-1.4.1-2.5.5-.8.4-2.9 2.9l-4.2 4.9.3.6.1-.1.4 1.5 13.9-3.9q1.3-.4 4.9-4 .4 1.4 4.9 3.5l-18.3 5.2 3.3 11.5q.2.6-1 1.7l-3 2.6.8 2.6-.5.1.1.6q.1.4.6.7t1 .2l12.8-2.4q1.3-.2 5.2-3.5.3 1.4 4.6 3.9l-21.1 4q-.5.1-1.3 1.2-.4.6-.5.9l.2 2.7.4-.3q.7-.4 1.1-1.5l3.1 2.6-4.3 2.6.3 2.4 2.1-1.3q.7-.5 1.1-1.5l3.1 2.5-6 3.7.2 2.4 3.9-2.4q.8-.5 1.2-1.5l3 2.6-7.7 4.7.3 3.4h-.4v.5q0 .5.4.9t.9.4l13.1-.1q1.3 0 5.7-2.5 0 1.5 3.8 4.7l-22.8.1q-1.5 0-2 .3-.8.4-1.2 2-1.2-1-1.2-2.6v-6h.2zm-6.6-35.6q.5 1.3.8 2l2.2-2.5q1-1.2 1.6-1.4-.3-.1-1.3-.5-.5-.2-.8-.1-.6.2-1.1.8zm4.7 12.9 2.2 7.9 1.4-1.3-2.2-7.9zM218.9 45.6q-.2 1.5 0 2.1.4.7 1.9 1.3-1.2 1.1-2.7.9l-5.2-.6q-.3.1-.8 0l-6-.4H205q-.4.5-1.2 1.3l-3.4 3.1q-.2-1.3-1.6-2.9t-2.4-1.6h-1.5v-.3l-22.2 2.6-19.8 5.3-1.4-5.1q3.3 1.3 6 .5l9.5-2.5-1.3-1.5-8.1 2.2q-1.8.5-3.7-1.7l-2.6-2.9q-.6-.7-1.7-.9l2-3.4 4 4.5q1.2 1.3 2.4 1l8.7-2.4q.6-.1 1.7 1.2l2.3 2.7 1.4-.2 1.4-.4v.2h.7l-.9-1.5q-.5-.7-1.6-1.1l3.6-4.3 1.1 1.6 14.6-1.7q.7-.1 1.5 1.2l2.1 3.4 2.8-.3.1 1.2q.6.5 1.5 1.4.7.7 2.2 2.3.4-.5.4-1t-.7-1.9l-.9-1.9q-1.1-2.3-1.1-3 0-1.3 1-2.5 1.4-1.3 2.7-2.6-.3 1-.3 1.7 0 .8.9 2.7l1.4 2.8.7 1.4 3.1.1v.1l.8.1q.4 0 .9-.4.4-.4.4-.8l1-13.1q.1-1.3-2.1-5.9 1.5.1 5-3.4L212.7 45v1l2.6.3q.4.1.9-.3.4-.4.5-.8l1.5-13q.1-1.4-1.8-6 1.4.1 5.1-3.2zm-28.2.1-1.1-1.6-11.3 1.3 1 1.6z"/><path d="m205 219.6-3.1-6.9-.8.4 3.1 6.8c-.2.3-.3.7-.1 1 .2.5.8.7 1.2.5.5-.3.7-.8.5-1.3-.1-.3-.5-.5-.8-.5M200.6 217.1l-1.4-3.1-.8.3 1.4 3.2c-.2.3-.3.6-.1 1s.8.7 1.2.4c.5-.2.7-.7.5-1.2-.1-.4-.5-.5-.8-.6M206.6 214.6l-1.5-3.2-.7.4 1.4 3.1c-.2.3-.3.7-.1 1 .2.5.8.7 1.2.5.5-.2.7-.8.5-1.3-.1-.3-.5-.5-.8-.5M211.3 216.6l-3.2-6.8-.7.4 3.1 6.8c-.2.2-.3.6-.1.9.2.5.7.7 1.2.5s.7-.8.5-1.2-.5-.6-.8-.6M160.7 195.9l-.2.1-15.6-6.1v-.3c-.2-.5-.8-.7-1.3-.5-.5.3-.7.8-.5 1.3.3.5.8.7 1.3.5l.2-.2 15.5 6.2.1.2c.2.5.8.7 1.3.5.4-.2.7-.8.4-1.2-.2-.5-.7-.7-1.2-.5M105.1 197.9c.5-.3.7-.8.5-1.3-.1-.3-.5-.5-.8-.5l-1.1-2.5 2.1-.9.7-2.4 12.9-5.9-.5 1.5-11.1 5.1-.3 3.7c-.4.2-.6.8-.4 1.2.2.5.8.7 1.2.5.5-.2.7-.8.5-1.2l-.4-.5.3-3.1 10.9-5 .9-2.6 3.1-.9c1.6.2 3.8.6 5 .8v.1c.2.5.8.7 1.3.5s.7-.8.4-1.3c-.2-.5-.7-.7-1.2-.5l-.4.3c-1.4-.3-4.2-.7-5.2-.8h-.1l-3.6 1v.1l-14 6.4-.7 2.3-2.6 1.2 1.5 3.2c-.2.3-.3.7-.1 1 .2.5.8.7 1.2.5M126.7 190.6c-.3-.5-.8-.7-1.3-.5-.5.3-.7.8-.5 1.3.2.3.5.5.8.5l6.6 14.4 2.1 2.1c-.1.2-.1.4 0 .7.2.4.8.6 1.3.4s.7-.8.5-1.2c-.2-.5-.7-.7-1.2-.5l-2-2-6.5-14.2c.2-.3.3-.7.2-1"/><path d="M126.5 185c-.2-.5-.8-.7-1.3-.5s-.7.8-.5 1.3c.2.3.5.5.9.5l1.9 4.1 5.6 1.9 6.8-3.1c.3.2.7.3 1 .1.5-.2.7-.7.5-1.2-.3-.5-.8-.7-1.3-.5-.3.2-.5.5-.5.8l-6.5 3-5-1.7-1.7-3.8c.2-.2.2-.6.1-.9M132.8 183.3l.2-.2 4-.3.2.2c.3.4.9.4 1.3 0 .4-.3.4-1 0-1.3-.4-.4-1-.4-1.3 0l-.2.3-4.1.2-.1-.2c-.4-.4-1-.4-1.3 0-.4.4-.4 1 0 1.3.3.4.9.4 1.3 0M129.8 194.4l.1-.1 1.4.7 9.7 21.1-.1 1c-.5.3-.7.8-.5 1.3s.8.7 1.3.5c.4-.2.6-.8.4-1.3l-.3-.4.1-1.2-10-21.7-1.6-.8-.1-.3c-.2-.5-.8-.7-1.2-.5-.5.2-.7.8-.5 1.3.2.4.8.6 1.3.4"/><path d="M129.8 187q.3.45.9.6l.8 1.7 10.7-4.9 12.8 4.1v.3c.2.4.8.7 1.3.4.5-.2.7-.7.5-1.2-.3-.5-.8-.7-1.3-.5l-.2.2-13.2-4.2-10.1 4.7-.5-1c.2-.3.2-.7.1-1-.2-.5-.8-.7-1.3-.5-.5.3-.7.8-.5 1.3M112.9 197.9c.3-.1.5-.4.6-.8l2-.9 1 2.3c-.2.3-.2.6-.1 1 .2.5.8.7 1.3.4.5-.2.7-.7.5-1.2-.2-.4-.5-.5-.9-.6l-1.4-3.1-2.8 1.3c-.3-.2-.7-.3-1-.1-.5.2-.7.8-.5 1.3.3.4.8.6 1.3.4M124.1 208.9c.2.5.8.7 1.3.5s.7-.8.4-1.3c-.1-.3-.4-.5-.8-.5l-.9-2c.2-.2.3-.6.1-.9-.2-.5-.7-.7-1.2-.5s-.7.8-.5 1.3c.2.3.5.5.8.5l.9 2c-.2.2-.2.6-.1.9M107.6 204.4l3.3 7-8.6 3.9-1-2.1c.3-.3.3-.7.2-1-.3-.5-.8-.7-1.3-.5s-.7.8-.5 1.3c.2.3.5.5.8.5l1.4 3 10.1-4.6-3.6-7.9c.3-.2.3-.6.2-.9-.3-.5-.8-.7-1.3-.5s-.7.8-.5 1.3c.2.3.5.5.8.5"/><path d="m114 201.4 2.1 4.5 6.7-3.1 2.6.1 2.7 6-.3 1.1-4.1 1.9c-.3-.2-.6-.3-1-.2-.4.3-.6.8-.4 1.3s.8.7 1.2.5.6-.5.6-.8l4.6-2.2.3-1.7-3.1-6.7-3.3-.1-6.1 2.7-1.7-3.7c.2-.2.3-.6.1-.9-.2-.5-.7-.7-1.2-.5s-.7.8-.5 1.2.5.6.8.6M102 200.8c-.3.2-.5.5-.6.8l-5.2 2.4 2.2 4.9c-.2.3-.3.6-.1 1s.8.6 1.3.4c.4-.2.7-.8.4-1.2-.1-.4-.4-.6-.8-.6l-1.8-4 4.4-2.1c.3.2.7.3 1 .2.5-.3.7-.8.4-1.3-.2-.5-.7-.7-1.2-.5M104.8 204.8c-.2-.5-.7-.7-1.2-.5s-.7.8-.5 1.3c.1.3.5.5.8.5l2.3 5.1c-.2.3-.2.6-.1 1 .2.4.8.7 1.3.4.5-.2.7-.8.5-1.2q-.3-.6-.9-.6l-2.3-5.1c.2-.2.3-.6.1-.9M100.7 224.3c.2.5.8.7 1.3.5.4-.2.7-.8.4-1.3-.1-.3-.4-.5-.8-.5l-3.7-8.3c.2-.2.2-.6.1-.9-.2-.5-.8-.7-1.3-.5-.4.2-.7.8-.4 1.3.1.3.4.5.8.5l3.7 8.2c-.2.3-.2.7-.1 1M108.9 223.6c-.3.1-.5.5-.5.8l-1.2.6c-.3-.2-.7-.3-1-.1-.5.2-.7.7-.5 1.2s.8.7 1.3.5c.3-.2.5-.5.5-.8l1.2-.6c.3.2.7.3 1 .1.5-.2.7-.7.5-1.2s-.8-.7-1.3-.5M111.3 223.6c.2.4.8.6 1.3.4s.7-.8.5-1.2q-.3-.6-.9-.6l-1.3-3-2.6 1.1c-.2-.2-.6-.2-.9-.1-.5.2-.7.8-.5 1.3.2.4.8.7 1.3.4.3-.1.5-.4.5-.8l1.7-.8 1 2.3c-.2.3-.2.6-.1 1M118.3 220.4c.2.5.7.7 1.2.5.5-.3.7-.8.5-1.3-.2-.3-.5-.5-.8-.5l-7.6-16.5c.3-.3.3-.7.2-1-.3-.5-.8-.7-1.3-.5-.5.3-.7.8-.5 1.3.2.3.5.5.8.5l7.6 16.5c-.2.3-.3.7-.1 1M112 230.3c-.3.2-.5.5-.5.9l-11.6 5.2c-.3-.2-.6-.2-1-.1-.5.2-.7.8-.4 1.3.2.5.7.7 1.2.4.3-.1.5-.4.5-.8l11.6-5.3c.3.2.7.3 1 .2.5-.3.7-.8.5-1.3s-.8-.7-1.3-.5M110.4 226.9c-.3.2-.5.5-.5.9L98.3 233c-.2-.2-.6-.2-.9-.1-.5.2-.7.8-.5 1.3s.8.7 1.3.5c.3-.2.5-.5.5-.9l11.6-5.3c.2.3.6.3.9.2.5-.2.7-.8.5-1.3s-.8-.7-1.3-.5M115.1 237.1c-.3.1-.5.4-.6.8l-11.5 5.3c-.3-.2-.7-.3-1-.1-.5.2-.7.7-.5 1.2s.8.7 1.3.5c.3-.2.5-.5.5-.8l11.6-5.3c.3.2.6.3 1 .1.5-.2.7-.8.4-1.3-.2-.4-.7-.7-1.2-.4M113.5 233.7c-.3.1-.5.4-.5.8l-11.6 5.3c-.3-.2-.6-.3-1-.2-.4.3-.6.8-.4 1.3s.8.7 1.2.5.6-.5.6-.8l11.6-5.3c.2.2.6.3.9.1.5-.2.7-.8.5-1.3-.2-.4-.8-.7-1.3-.4M116.6 240.4c-.3.2-.5.5-.5.8l-11.6 5.3c-.3-.2-.7-.3-1-.1-.5.2-.7.8-.4 1.2.2.5.7.7 1.2.5.3-.2.5-.5.6-.8l11.5-5.3c.3.2.7.3 1 .1.5-.2.7-.7.5-1.2s-.8-.7-1.3-.5M96.3 251.8q.6-.3.6-.9l3.3-1.5c.2.2.6.3.9.2.4-.2.6-.5.6-.8v-.1l-.1-.4c-.2-.5-.8-.7-1.3-.5-.2.1-.3.3-.4.5l-5.2-1.1-2.9-6.5c-.2-2.5.3-4.1 1.2-4.8.3.2.6.2.9.1.5-.3.7-.8.5-1.3s-.8-.7-1.3-.5c-.4.2-.6.6-.5 1-1.1.8-1.9 2.7-1.7 5.7l3.2 7L99 249l-2.5 1.1c-.2-.2-.6-.2-.9-.1-.5.2-.7.8-.5 1.3s.8.7 1.2.5M98.6 253.9l19.5-9c.3.3.7.3 1 .2.5-.2.7-.8.5-1.3s-.8-.7-1.3-.5c-.3.2-.5.5-.5.8l-19.6 9c-.2-.2-.6-.3-.9-.1-.5.2-.7.7-.5 1.2s.8.7 1.2.5.6-.5.6-.8M101.9 259.4l-.2-.4.7-2.8 16.9-7.8c.3.2.7.3 1 .1.5-.2.7-.8.5-1.2-.2-.5-.8-.7-1.3-.5-.3.1-.5.5-.5.8l-17.4 7.9-.8 3.3-.1.1c-.5.2-.7.8-.5 1.3.2.4.8.6 1.2.4.5-.2.7-.8.5-1.2M108.1 265.1l12.4-5.5 1.4-7.5c.5-.3.7-.8.5-1.3s-.8-.7-1.3-.5c-.4.2-.6.8-.4 1.3l.3.4-1.3 7-11.9 5.3c-.3-.2-.7-.2-1-.1-.5.2-.7.8-.5 1.3s.8.7 1.3.5c.3-.2.5-.5.5-.9M125.7 275.1l-2.8-3.5-5-3.4-1.2-.2 9.2-4.3 2 2.5c-.2.3-.3.7-.1 1 .2.5.8.7 1.3.5.4-.3.7-.8.4-1.3-.1-.3-.4-.5-.8-.5l-2.3-3.3-12.6 5.7 3.6.7 4.9 3.2 2.7 3.4c-.1.3-.1.5 0 .8.3.5.8.7 1.3.5.5-.3.7-.8.5-1.3-.2-.4-.6-.6-1.1-.5"/><path d="M132.9 276c.4-.3.6-.8.4-1.3s-.8-.7-1.2-.5l-.3.2c-2.4-.7-3.3-1.8-3.7-2.5.3-.3.4-.7.2-1.1s-.8-.7-1.3-.4c-.5.2-.7.8-.5 1.2.2.3.5.5.8.6.4.9 1.5 2.2 4.2 3.1l.1.2c.2.4.8.7 1.3.5M126.5 267.8c-.2-.5-.7-.7-1.2-.5-.3.1-.4.3-.5.5l-2.2.3c-.3-.4-.8-.6-1.2-.4-.5.2-.7.8-.5 1.3.3.5.8.7 1.3.5.2-.1.4-.3.5-.6l2.2-.2c.2.4.7.5 1.2.3.4-.2.6-.7.4-1.2M122.6 227.6c.3-.2.5-.5.5-.8l14.1-6.5c.3.2.7.3 1 .2.5-.3.7-.8.5-1.3-.3-.5-.8-.7-1.3-.5-.3.2-.5.5-.6.8l-14 6.5c-.3-.2-.7-.3-1-.2-.5.3-.7.8-.5 1.3s.8.7 1.3.5M121 224.2c.4-.2.6-.5.6-.8l15-6.9.5-3.7h.1c.5-.2.7-.8.4-1.3-.2-.4-.7-.7-1.2-.4-.5.2-.7.7-.5 1.2l.3.4-.4 3.2-14.6 6.7c-.3-.2-.6-.3-1-.1s-.6.7-.4 1.2.8.7 1.2.5M125.7 234.3c.3-.1.5-.4.5-.8l14.1-6.4c.3.2.6.2 1 .1.4-.2.7-.8.4-1.3-.2-.4-.7-.7-1.2-.4-.4.1-.5.4-.6.8l-14.1 6.4c-.2-.2-.6-.3-.9-.1-.5.2-.7.8-.5 1.3.2.4.8.6 1.3.4M124.1 230.9c.3-.1.5-.5.6-.8l14-6.4c.3.2.7.2 1 .1.5-.2.7-.8.5-1.3s-.8-.6-1.3-.4c-.3.1-.5.4-.5.8l-14.1 6.4c-.3-.2-.6-.3-1-.1s-.7.8-.4 1.2c.2.5.7.7 1.2.5M127.2 237.6c.3-.1.5-.4.5-.8l14.1-6.4c.3.2.7.3 1 .1.5-.2.7-.8.5-1.2-.3-.5-.8-.7-1.3-.5-.3.1-.5.5-.5.8l-14.1 6.5c-.3-.3-.7-.3-1-.2-.5.2-.7.8-.5 1.3.3.5.8.7 1.3.4M150.8 214.2c.5-.2.7-.8.5-1.3-.2-.4-.8-.6-1.3-.4-.4.2-.7.8-.4 1.2l.1.3-4 13.2h-.3c-.4.2-.6.8-.4 1.3.2.4.8.7 1.3.4.4-.2.6-.7.4-1.2l-.2-.3 4.1-13.1zM177 206.3c-.3.1-.5.4-.5.8l-17.7 8 .6 1.4-3.7 1.7c-.3-.2-.7-.3-1-.1-.3.1-.5.5-.5.8l-.7.3-.9-1.9c.3-.2.4-.6.2-1-.2-.5-.8-.7-1.2-.5-.5.2-.7.8-.5 1.3l.2.3-2.3 8.2-.2.1c-.5.2-.7.8-.5 1.3.2.4.8.6 1.3.4s.7-.8.5-1.3l-.3-.2 2.2-7.8 1 2.3 1.5-.7c.3.2.7.3 1 .1.3-.1.5-.4.5-.8l4.6-2.1-.6-1.3 16.9-7.7c.2.2.6.2.9.1.5-.2.7-.8.5-1.3s-.8-.7-1.3-.4"/><path d="M178.4 209.2c-.3.1-.5.5-.6.8l-15 6.9.6 1.3-2.4 1.1-4.4 10-.4.1c-.5.2-.7.8-.4 1.2.2.5.7.7 1.2.5s.7-.8.5-1.2l-.2-.2 4.4-9.7 2.9-1.3-.6-1.4 14.2-6.5c.3.2.6.3 1 .1.5-.2.7-.8.5-1.3-.3-.4-.8-.6-1.3-.4M133.1 252.7c-.2-.5-.7-.7-1.2-.5s-.7.8-.5 1.3c.2.3.5.5.8.5l4.2 9.1 5.9 5.1.1.4c.2.5.8.7 1.2.5.5-.2.7-.8.5-1.3s-.8-.7-1.3-.4l-5.8-5-4-8.8c.2-.2.3-.6.1-.9M152.8 276.5l-.2.1c-.9-.3-2.5-.4-4.2 1.3l-3.8.2-3.6-7.7c.3-.3.3-.7.2-1-.2-.5-.8-.7-1.3-.5s-.7.8-.5 1.3c.2.3.5.5.8.5l3.8 8.3 4.8-.2.1-.1c1.4-1.5 2.6-1.5 3.3-1.3l.1.3c.2.5.8.7 1.2.5.5-.2.7-.8.5-1.2-.2-.5-.8-.7-1.2-.5M156.5 274.9l-4.9-10.6 2.3-1-1.3-2.9c.2-.3.3-.6.1-1s-.8-.7-1.2-.4c-.5.2-.7.7-.5 1.2.1.4.5.6.8.6l1 2.1-2.3 1 5.2 11.4c-.2.2-.3.6-.1 1s.7.6 1.2.4.7-.8.5-1.2-.5-.6-.8-.6M159.7 273.4l-3.3-7.2.2-5.6-.7-1.7c.2-.3.2-.6.1-1-.2-.4-.8-.7-1.3-.4-.4.2-.7.8-.4 1.2.1.4.4.6.8.6l.7 1.5-.2 5.6 3.3 7.4c-.2.3-.2.6-.1 1 .2.4.8.6 1.3.4s.7-.8.4-1.2c-.1-.4-.4-.6-.8-.6M162.7 272.1l-3.4-7.5-.1-3.1-.1-4.1c.2-.2.3-.6.1-1s-.7-.6-1.2-.4-.7.8-.5 1.2.5.6.8.6v3.8l.1 3.1 3.5 7.7c-.2.3-.3.7-.1 1 .2.5.7.7 1.2.5s.7-.8.5-1.3c-.2-.3-.5-.5-.8-.5"/><path d="m165.8 270.6-3.9-8.5.4-7.7-1.4-3-3.4 1.6c-.3-.3-.6-.3-1-.2-.4.3-.7.8-.4 1.3.2.5.8.7 1.2.5q.6-.3.6-.9l2.6-1.1.9 1.9-.4 7.7 4 8.8c-.2.3-.3.7-.1 1 .2.5.8.7 1.2.4.5-.2.7-.7.5-1.2-.1-.3-.5-.5-.8-.6"/><path d="m171.1 266.1-1.4-3-4.3.7-1.3-2.9 1.5-7.1-2.1-4.8-6.7-2.9-3.2 1.4 1.3 2.8c-.2.3-.3.6-.1.9.2.5.8.7 1.3.5.4-.2.6-.8.4-1.2s-.5-.6-.8-.6l-.9-2 2-.9 6.1 2.7 1.8 4.2-1.4 7.4 1.6 3.5 4.3-.7 1.1 2.4c-.2.3-.3.6-.1 1s.8.7 1.2.4c.5-.2.7-.8.5-1.2-.1-.3-.5-.5-.8-.6"/><path d="m173.6 262.9-7.3-15.8-11.8-4.6-5.9 2.7 3 6.6c-.2.2-.2.6-.1.9.2.5.8.7 1.3.5s.7-.8.4-1.3c-.1-.3-.4-.5-.8-.5l-2.6-5.8 4.7-2.1 11.2 4.2 7.1 15.6c-.2.2-.3.6-.1.9.2.5.7.7 1.2.5s.7-.8.5-1.2-.5-.6-.8-.6"/><path d="m175.7 259.8-8.6-18.8-3.8 1.7-9.5-3.3-9.7 4.5 4.3 9.4c-.2.2-.3.6-.2.9.3.5.8.7 1.3.5s.7-.8.5-1.3c-.2-.3-.5-.5-.8-.5l-4-8.6 8.7-4 9.4 3.4 3.4-1.6 8.2 18.1c-.2.3-.3.6-.1 1 .2.5.8.7 1.2.4.5-.2.7-.7.5-1.2-.1-.4-.5-.5-.8-.6M134.8 271.4l-1.5-3.3-2.6 1.2c-.2-.3-.6-.3-1-.2-.4.3-.6.8-.4 1.3s.8.7 1.2.5.6-.5.6-.8l1.8-.9 1.1 2.5c-.2.3-.3.7-.1 1 .1.3.5.5.8.5l1.5 3.2c-.4.3-.6.7-1.2 1l-3.2-.4-1.5-.6-.1-.3c-.2-.5-.8-.7-1.2-.5-.5.3-.7.8-.5 1.3s.8.7 1.2.5l.3-.2 1.5.6 3.6.6.1-.1c1.1-.5 1.8-1.5 1.8-1.5l.2-.2-1.7-3.7c.2-.3.3-.7.1-1-.1-.3-.4-.5-.8-.5M137.6 270l-4.1-5.7-5.4-11.7c.2-.3.3-.7.2-1-.3-.5-.8-.7-1.3-.5s-.7.8-.5 1.3c.2.3.5.5.8.5l5.4 11.8 4.2 5.8c-.1.3-.2.6 0 .8.1.3.3.5.5.5l2.9 6.3c-.2.3-.3.6-.1 1 .2.5.8.7 1.2.5.5-.3.7-.8.5-1.3-.1-.3-.5-.5-.8-.5l-2.8-6.1c.3-.3.5-.7.3-1.1s-.6-.6-1-.6M146.4 269.7c-.2-.5-.8-.7-1.3-.5s-.7.8-.5 1.3c.2.3.5.5.9.5l1.1 2.5c-.2.2-.3.6-.1 1s.8.6 1.2.4c.5-.2.7-.8.5-1.2-.1-.4-.5-.6-.8-.6l-1.1-2.5c.2-.2.2-.6.1-.9"/><path d="M167.8 257c.5-.3.6-.9.3-1.3-.3-.5-.9-.6-1.3-.3-.5.3-.6.9-.3 1.3l.3.3-.4 3.2-.2.1c-.4.3-.6.9-.3 1.3s.9.6 1.3.3c.5-.3.6-.9.3-1.4l-.3-.2.4-3.3zM177.4 243.1c.3-.1.5-.4.5-.8l2.9-1.3c.3.2.6.3 1 .2.4-.3.6-.8.4-1.3s-.8-.7-1.2-.5-.6.5-.6.8l-2.8 1.3c-.3-.2-.7-.2-1-.1-.5.2-.7.8-.5 1.3s.8.7 1.3.4M183 244.8c-.5.2-.7.8-.5 1.3l.2.3c-.3 1.4-1.1 4.4-2.5 7.2h-.4c-.5.3-.7.8-.5 1.3s.8.7 1.3.5.7-.8.5-1.3l-.1-.1c1.4-2.9 2.2-6 2.6-7.4l.2-.1c.5-.2.7-.8.5-1.2-.3-.5-.8-.7-1.3-.5M185.2 229.7c-.5.2-.7.8-.5 1.2l.1.2c-.2.8-.4 1.9.1 2.8 0 .7-.1 3.6-.7 5.2-.5.5-1.1 1.4-.8 2.8-.3.2-.4.7-.2 1 .2.5.8.7 1.2.5.5-.2.7-.8.5-1.3-.1-.3-.4-.4-.7-.5-.2-1.2.5-1.8.6-1.8l.1-.1v-.1c.9-2 .9-5.6.9-5.8v-.2l-.1-.1c-.4-.6-.2-1.4 0-2l.3-.1c.4-.2.7-.8.4-1.2-.2-.5-.7-.7-1.2-.5M174.9 238.6c.3-.2.5-.5.5-.8l1.2-.6-1.9-4 6.4-2.9c.2.2.6.2.9.1.5-.2.7-.8.5-1.3-.2-.4-.8-.7-1.2-.4-.4.1-.6.4-.6.8l-7.1 3.2 1.8 4.1-.4.2c-.2-.2-.6-.3-.9-.1-.5.2-.7.7-.5 1.2s.8.7 1.3.5M170.9 239.4c-.3-.5-.8-.7-1.3-.5s-.7.8-.5 1.3c.2.3.5.5.9.5l7.4 16.3c-.2.2-.3.6-.1.9.2.5.7.7 1.2.5s.7-.8.5-1.2-.5-.6-.8-.6l-7.5-16.3c.3-.2.3-.6.2-.9M166.7 218.3c-.4.1-.6.4-.6.8l-2.8 1.3-3.4 7.4-.3.1c-.5.2-.7.7-.5 1.2s.8.7 1.3.5c.4-.2.6-.8.4-1.3l-.1-.1 3.3-7.2 2.5-1.1c.3.2.6.2 1 .1.4-.2.7-.8.4-1.3-.2-.4-.8-.7-1.2-.4"/><path d="M169.4 216.8c-.5.2-.7.8-.4 1.2.2.5.7.7 1.2.5.3-.2.5-.5.6-.8l9.1-4.2 4.2 9.3-19.7 9.1-2.2-.5v-.1c-.2-.5-.8-.7-1.3-.5s-.7.8-.5 1.3c.3.4.8.6 1.3.4l.3-.2 2.4.5 20.9-9.5-.2-.4-4.6-10.2-.2-.3-9.9 4.5c-.3-.2-.6-.3-1-.1M157.6 232.5l-.3.3-3.7-1-23.3 10.6c-.3-.2-.6-.2-1-.1-.5.2-.7.8-.4 1.3.2.5.7.7 1.2.5.4-.2.5-.5.6-.9l23-10.5 3.4.9.1.2c.2.5.8.7 1.2.5.5-.3.7-.8.5-1.3s-.8-.7-1.3-.5M184.6 227.3l-.9-1.9-16 7.3c-.3-.2-.7-.3-1-.1-.5.2-.7.8-.5 1.2.3.5.8.7 1.3.5.3-.2.5-.5.5-.8l15.3-7 .5 1.2c-.2.2-.3.6-.2.9.3.5.8.7 1.3.5s.7-.8.5-1.3c-.2-.3-.5-.5-.8-.5M152 273.1h-.1l-1.6-1.2-1.1-2.6c.2-.3.2-.6.1-.9-.2-.5-.8-.7-1.3-.5s-.7.8-.5 1.2q.3.6.9.6l1.2 2.8 1.8 1.3.1.5c.2.5.8.7 1.3.5.4-.2.6-.8.4-1.3s-.8-.7-1.2-.4M145.9 254.4l-4.3-9.4-2.8 1.3c-.3-.2-.6-.3-1-.1s-.6.7-.4 1.2.8.7 1.2.5.6-.5.6-.8l2-.9 3.9 8.6c-.2.2-.3.6-.1.9.2.5.8.7 1.2.5.5-.2.7-.8.5-1.3-.1-.3-.5-.5-.8-.5M149.5 260.9c-.3-.4-.8-.7-1.3-.5-.3.2-.5.5-.5.9l-2.5 1.1-4.2-1.7-5.3-11.6c.2-.3.2-.6.1-.9-.2-.5-.8-.7-1.3-.5s-.7.8-.5 1.2q.3.6.9.6l5.4 11.9 4.9 1.9 2.8-1.2c.3.2.7.2 1 .1.5-.2.7-.8.5-1.3M93.5 215.9c.2.4.7.6 1.2.4s.7-.8.5-1.2q-.3-.6-.9-.6l-1.3-2.1 3.6-11.2 3.8-1.7c.3.2.7.2 1 .1.5-.3.7-.8.5-1.3s-.8-.7-1.3-.5c-.3.2-.5.5-.5.9l-4.2 1.8-3.9 12.1 1.5 2.4q-.2.4 0 .9M90.7 228.4c.5-.2.7-.8.5-1.3-.1-.2-.3-.3-.4-.4l-.1-6.2.3-1 2.3-.1 4.5 9.8-1.9.9-1.8-.4v-.1l-.1-.2.7-1.2.4-.1c.4-.2.7-.8.4-1.3-.1-.3-.4-.5-.8-.5l-1.4-3.2c.2-.3.2-.7.1-1-.2-.5-.8-.7-1.3-.5s-.7.8-.4 1.3c.1.3.4.5.7.5l1.5 3.2c-.2.3-.2.7-.1 1l.1.1-.7 1.3-.4.1c-.4.2-.6.8-.4 1.3.2.4.8.7 1.2.4l.3-.2 2.1.5 3-1.4-4.8-10.4 1.8-.1 4.4 9.8 2.1-.9c.3.2.7.2 1 .1.5-.3.7-.8.5-1.3s-.8-.7-1.3-.5c-.3.2-.5.5-.5.9l-1.3.6-4.4-9.6-5 .3.1-.8.1-.1.2-.1c.5-.2.7-.8.5-1.3-.2-.4-.8-.6-1.3-.4-.4.2-.7.7-.4 1.2l.1.2v.3l-1 2.7.1 6.4c-.4.2-.7.7-.4 1.2.2.5.8.7 1.2.5M90.6 232.1l.2-.1 4.7 2.4 3 6.7-.3.1c-.2-.2-.6-.3-.9-.1-.5.2-.7.8-.5 1.3.2.4.8.6 1.3.4.3-.1.5-.4.5-.8l1.1-.5-3.5-7.7-5.1-2.6v-.3c-.2-.5-.8-.7-1.3-.5s-.7.8-.5 1.2c.3.5.8.7 1.3.5M144.9 192.8c-.5.2-.7.8-.5 1.2.2.5.8.7 1.3.5l.2-.1 11.7 4.8v.2c.2.4.8.6 1.3.4s.7-.8.5-1.2c-.3-.5-.8-.7-1.3-.5l-.3.2-11.6-4.7-.1-.3c-.2-.5-.7-.7-1.2-.5M148 198.7l.1-.1 7 3.1 4.3.9c.2.2.6.3.9.1.5-.2.7-.7.5-1.2s-.8-.7-1.3-.5c-.3.2-.5.5-.5.8l-3.9-1-6.5-3-.1-.3c-.3-.5-.8-.7-1.3-.5s-.7.8-.5 1.3c.3.4.8.7 1.3.4M152.8 205.1c.5.2 1 .1 1.3-.4.3-.4.1-1-.3-1.3-.3-.1-.7-.1-1 .1l-2.9-1.7c0-.4-.2-.7-.5-.9-.5-.2-1-.1-1.3.4-.3.4-.1 1 .3 1.3.4.2.7.1 1-.1l2.9 1.7c0 .4.2.7.5.9M118.3 214l4.5 2 6-2.8c.3.2.7.3 1 .1.5-.2.7-.7.5-1.2s-.8-.7-1.3-.5c-.3.2-.5.5-.5.8l-5.8 2.6-3.8-1.7-2.2-4.9 3.1-1.5 1 2.3c-.2.3-.3.6-.1 1s.8.7 1.3.4c.4-.2.6-.7.4-1.2-.1-.4-.5-.6-.8-.6l-1.4-3-4.7 2.2zM128.7 238.9c-.3-.2-.6-.3-1-.1-.5.2-.7.8-.5 1.3.2.4.8.6 1.3.4.3-.1.5-.5.5-.8l25.7-11.7 2-4.9.2-.1c.5-.2.7-.8.5-1.3-.2-.4-.8-.6-1.2-.4-.5.2-.7.8-.5 1.2l.1.2-1.8 4.6z"/><path d="M169.1 235.8c-.3-.2-.6-.2-1-.1-.3.1-.5.5-.5.8l-4.3 2-8.6-3-22.8 10.5c-.3-.2-.6-.3-1-.2-.4.3-.6.8-.4 1.3s.8.7 1.2.5.6-.5.6-.8l22.5-10.3 8.6 2.9 4.6-2.1c.2.2.6.3.9.1.4-.1.6-.5.6-.8l1.7-.8 6.8 15.1c-.2.2-.2.6-.1.9.2.5.8.7 1.3.5s.7-.8.5-1.2q-.3-.6-.9-.6l-7.2-15.8zM94.9 239.6c.3.1.6.2.9 0 .5-.2.7-.7.5-1.2s-.8-.7-1.3-.5c-.4.2-.6.5-.5.9l-1.3.9 2.8 6.2h2.5c.2.4.7.5 1.1.3.5-.2.7-.8.5-1.2-.2-.5-.8-.7-1.3-.5-.2.1-.4.3-.5.6l-1.8-.2-2.2-4.9zM115.2 220.9c-.2.3-.3.6-.1 1s.7.6 1.2.4.7-.8.5-1.2-.5-.6-.8-.6l-2.9-6.4-10.2 4.7 1.4 2.9c-.2.3-.3.7-.1 1 .2.5.8.7 1.2.5.5-.2.7-.8.5-1.3-.1-.3-.5-.5-.8-.5l-1-2.2 8.5-3.9zM122.8 217.8c-.2-.2-.6-.3-.9-.1-.5.2-.7.8-.5 1.3.2.4.8.7 1.3.4.3-.1.5-.4.5-.8l11.1-5.1-11.8-25.8c.2-.3.3-.6.1-1s-.8-.6-1.2-.4c-.5.2-.7.8-.5 1.2.1.4.4.5.8.6l11.4 25z"/><path d="M119 201.1c-.2-.2-.6-.3-.9-.1-.5.2-.7.8-.5 1.2.2.5.8.7 1.3.5.3-.1.5-.5.5-.8l2.9-1.4-2.5-5.8c.2-.3.2-.7.1-1-.2-.5-.8-.7-1.3-.5-.5.3-.7.8-.5 1.3.2.3.5.5.9.5l2.2 5.1zM168 225.2l.7-1.8.3-.1c.5-.2.7-.8.4-1.3-.2-.4-.8-.7-1.2-.4-.5.2-.7.7-.5 1.2l.2.3-.6 1.4-1.7.8-.9 2-.4.1c-.4.2-.7.8-.4 1.2.2.5.7.7 1.2.5s.7-.8.5-1.3l-.1-.1.8-1.7zM163.6 201.3c.2-.3.3-.6.1-.9-.2-.5-.8-.7-1.2-.5-.5.2-.7.8-.5 1.2.1.4.5.6.8.6l.4.8-13.1 5.9-7.7-16.8c.2-.3.3-.6.1-.9-.2-.5-.7-.7-1.2-.5s-.7.8-.5 1.3c.2.3.5.5.9.5l8 17.6 14.6-6.7zM147.5 210.1l-7.5-16.3-3-1.6-3.4 1.6 10.1 21.9-1.2 4.8h-.1c-.5.2-.7.8-.5 1.2.2.5.8.7 1.3.5s.7-.8.4-1.2l-.2-.4 1.2-5-9.9-21.3 1.3-.6 10.1 22.1-2 8-.2.1c-.4.2-.6.8-.4 1.2.2.5.8.7 1.2.5.5-.2.7-.8.5-1.2l-.2-.4 2.1-8.3-10.3-22.4.3-.1 2.3 1.3 7.3 16c-.2.3-.3.6-.1 1 .2.5.8.7 1.3.4.4-.2.6-.7.4-1.2-.1-.4-.4-.5-.8-.6M146.6 258.9c.2.2.6.3.9.1.5-.2.7-.7.5-1.2s-.8-.7-1.2-.5-.6.5-.6.8l-2 .9-3.9-8.6c.2-.3.2-.6.1-1-.2-.5-.8-.7-1.3-.5-.5.3-.7.8-.5 1.3.2.4.5.5.9.6l4.3 9.4z"/><path d="m118.1 190.4-6.4 2.9c-.2-.2-.6-.2-.9-.1-.5.2-.7.8-.5 1.3.2.4.8.7 1.2.4.4-.1.6-.4.6-.8l6-2.7 3.3 1.6 2.6 5.8c-.2.3-.2.6-.1 1 .2.4.8.6 1.3.4s.7-.8.5-1.2q-.3-.6-.9-.6l-2.7-6zM208.1 180.2c.4-.3.6-.8.4-1.3s-.7-.7-1.2-.5c-.4.2-.5.5-.6.8l-37.1 17-26.6-9.5-.1-.3c-.2-.5-.8-.7-1.3-.4-.4.2-.7.7-.4 1.2.2.5.8.7 1.2.5l.3-.2 26.7 9.6.2.1 37.5-17.2c.3.2.6.3 1 .2M247.3 180.7l-.1-.1zM286.7 175.1l-4.1-9 13.9-6.4-1.2-2.6-.2-.5-.5.2-13.4 6.2-4-8.6 5.4-2.5 1.1-.5 2.7-1.2 1.1-.5 6.2-2.9-.4-.8-6.9 3.2-1.1.5-2.7 1.3-1.1.4-5.5 2.5 4.7 10.2 13.9-6.3.7 1.5-13.9 6.4 4.9 10.6 18.2-8.3 1.5 3.4-21.3 9.7-13.1-28.5 6-2.7 1.1-.5 2.6-1.2 1.1-.5 11.3-5.2-.3-.8-12.2 5.5-1.1.5-2.5 1.2-1.1.5-6.1 2.8.3.6.4.8.4.8.3.8.4.8.4.8.9 2.1.5 1 7.8 17 .7 1.6 1.7 3.8 23-10.5-2.3-5z"/><path d="m280.2 156-.2-.6 2.5-1.2 1-.5 1.7-.7 1.1-.5 2.8-1.3 1.1-.5 6.1-2.8-2.2-4.6-10.5 4.8-1.2.5-2.6 1.2-1.1.5-5.6 2.6 12 26.4 19.3-8.8-.3-.9-18.5 8.5-11.4-24.7 5.7-2.6 1-.5 2.7-1.2 1.1-.5 9-4.1 1.4 3-6 2.7-1.2.5-2.7 1.3-1.1.5-5.3 2.4 2.9 6.4 11.3-5.1 1.1-.5 1.4-.7.7 1.5.5 1.2 1.3 2.8-13.8 6.3 3 6.6 17.1-7.8-.3-.8-11.4 5.2-.8.4-1.7.7-.7.4-1.7.8-2.3-5 1.7-.8.8-.4 1.7-.7.8-.4 1.5-.7.8-.4 1.4-.6.8-.4 4.3-1.9-1.1-2.4-.3-.7-.4-.9h-.1v-.1l-1.4-3-2.9 1.3-1.1.5-1.7.8-1.1.5-1.5.7-1 .4-4.4 2.1-1.6-3.4zM219.5 209l-7.2-6.5-1.7-1.5-4.9-4.4-1.4-1.3-3.2-2.9-.7-.7-.6-.5-.7-.7-.6-.5-.7-.6-.6-.6-.7-.6-.5-.4-.7-.6-.2-.2-.2-.2-6 2.8.1.5v1.5l.1.9v1.8l.1.8v.9l.1.8v1l.5 12.2.2 2.3.4 9.8v1.2l.1.1v1.7l.6-.3 4.7-2.1-.2-2.7-.5-9 4.4-2 .8-.4 6.2-2.8-.7-.6-5.9 2.6-.8.4-4 1.9-.8-14.6-.1-.9-.1-.8v-.5l.4.3.6.5.7.7 12.7 11.3-7.8 3.5-.8.4-3.8 1.7.2.9 4-1.8.8-.4 8.2-3.7 5.2 4.6.9-.4-18.7-16.5-.7-.7-.6-.5-.8-.6-.6-.6-.7-.6-.2.1.1.9v.8l.1 1v.8l.1.9 1.4 24.5v1.7l-1.4.7-.7.3-1.4.6V222l-1.1-24.6-.1-1v-.8l-.1-.9v-1.8l-.1-.8v-1.5l-.1-.5 5-2.2.4.3.4.4.7.6.6.6.7.6.6.5.7.7.6.5.7.7 3.9 3.5.7.6 13.9 12.5 2 1.9.9-.4z"/><path d="m198.8 193.4-.7-.6-.6-.5-.8-.7-.6-.5-.7-.7-.6-.5-.5-.4-.2-.2-3.2 1.5v1.7l.1.9v.8l.1 1v.8l.1.9 1.2 24.5.9-.4-1.3-24.5v-.9l-.1-.8v-1l-.1-.8v-1.7l2.2-1 .5.5.7.7.7.5.7.7.6.5.7.6 18.6 16.6 1.4 1.2-3.2 1.4-1.4-1.1-4.5-3.9-7.3 3.4-.8.3-4.2 2 .3 5.7.2 2.8.8-.4-.1-2.8-.3-4.8.6-.3.8-.3 2.3-1.1.8-.3 2.3-1.1.8-.4 2.4-1 .8-.4.4-.2 3.8 3.2 2.2 1.8 4.8-2.2-2-1.9z"/><path fill-rule="evenodd" d="m195.1 195.1 9.8 9.2-5.5 2.5-.8.4-2.7 1.2-.9-13.3zm1.1 2.2.6 9.8 1.6-.7.8-.4 4.2-1.9-2.1-2-.7-.6z"/><path d="M276.9 179.3c-1.4 4-4.4 7.4-8.5 9.3-8 3.6-17.4.2-21-7.7l-.1-.2-.1-.1c-3.3-7.8.3-17 8.2-20.6 2.6-1.2 5.4-1.6 8.1-1.4v1.2c-2.5-.3-5.2.1-7.7 1.2-7.4 3.4-10.7 12.1-7.4 19.4 3.1 6.7 10.6 9.9 17.6 7.9l-.3-.8c-6.6 2-13.7-1.1-16.6-7.4-3.2-6.9 0-15.2 7-18.4 2.4-1.1 4.9-1.4 7.4-1.2l-.1 1c-2.2-.2-4.6.1-6.8 1.1q-.6.3-1.1.6l.4.5q.5-.2.9-.5c2.2-.9 4.4-1.2 6.6-1l-.1 1c-2.1-.2-4.1.1-6.1 1-5.7 2.6-8.2 9.2-5.6 14.8 2.5 5.6 9.2 8 14.9 5.4 2.7-1.2 4.9-3.5 5.9-6.3l.1-.2-.8-.2-.1.1c-.9 2.6-2.9 4.7-5.5 5.9q-.9.4-1.9.7-.5.1-.9.1c-4.5.7-9-1.6-11-5.8-1-2.2-1.1-4.5-.6-6.7q.1-.6.4-1.3t.7-1.4q.2-.4.5-.9.2-.3.5-.6t.6-.7q.5-.5 1.1-1 .4-.2.7-.5.7-.4 1.4-.7.4-.2.8-.3l1.2-.4q.5-.1.9-.1.9-.2 1.7-.1h1.1q.3.1.7.1v.1l.1-.9v-1.7l.1-.7v-1.1l.1-.3v-1.6l-.2-.1h-.5q-.8-.1-1.6-.1-1.2 0-2.5.2-2.3.3-4.5 1.3t-4 2.6q-.9.8-1.8 1.7c-2 2.4-3.4 5.3-3.9 8.4l-.2 1.6q0 1.3.1 2.6.2 1.7.7 3.3.2.8.5 1.5l.1.1.1.3c3.8 8.3 13.7 11.9 22.2 8 4.3-1.9 7.4-5.6 8.9-9.7z"/><path d="M273.4 178.3v.1l-.2.5c-1.2 2.8-3.3 5.1-6.3 6.4-6.2 2.9-13.5.2-16.2-5.9-2.4-5.2-.7-11.3 3.7-14.7l-.4-.5c-4.7 3.6-6.5 10-3.9 15.5 2.9 6.4 10.6 9.2 17.1 6.2 3.1-1.4 5.3-3.8 6.5-6.6l1 .3c-1.3 3.1-3.8 5.7-7.1 7.2l-.8.4.3.7.8-.4c3.6-1.6 6.1-4.4 7.5-7.7l.4-.8h-.2l-.5-.2-.9-.3h-.1zM242.7 180.6l-.8.3-4.8 2.2-.8.4-8.7 4 .3.8.2.4.6 1.4.4.7.3.8.4.8.4.8 2.2-1 .8-.4 2.4-1.1.8-.4 3.4-1.5c-.1 1.9-.6 3.8-1.6 5.3q-.3.5-.6.9-.9 1.1-2 1.9-.4.2-.8.5-.4.2-.9.4-.7.4-1.5.6-.4.1-.9.2c-.9.1-1.8.2-2.7.1q-.5 0-1-.1-1.5-.3-2.8-1-.7-.4-1.3-.9c-1.2-.9-2.3-2.2-2.9-3.6q-.5-1.2-.7-2.3-.1-.5-.2-.9v-1.3q0-.4.1-.9.2-1.6.9-3 .4-.7.9-1.4.8-1.1 1.9-2 .3-.3.7-.5c.4-.3.9-.6 1.4-.8q.7-.3 1.5-.6.5-.1.9-.1 1.2-.3 2.4-.2l1 .2q.3 0 .6.1.5.1.9.2v-.8l.1-.2v-1.8l.1-1.1v-.9l.1-1.2v-.9q-.4-.1-.9-.2-.7-.1-1.5-.1h-1.3q-1.2 0-2.5.2-2.2.3-4.3 1.3-2 .9-3.7 2.4-1 .8-1.9 1.8c-1.4 1.6-2.5 3.4-3.2 5.4q-.3.6-.4 1.4-.4 1.4-.6 3v1.9c.1 1.9.5 3.8 1.2 5.6l.8-.3c-1.4-3.4-1.5-7.1-.5-10.4v-.1c.9-2.9 2.6-5.5 5-7.6 1.1-.9 2.3-1.7 3.7-2.3q2.1-1 4.2-1.3c1.7-.3 3.4-.2 5 0l-.1 1.2c-2.8-.5-5.8-.1-8.6 1.1-7.4 3.4-10.7 12.1-7.4 19.3 3.4 7.3 12.1 10.5 19.5 7.1l1.4-.8v-1q-.9.6-1.8 1c-7 3.2-15.1.2-18.2-6.6-3.2-6.9-.1-15 6.9-18.1 2.7-1.3 5.5-1.6 8.2-1.1l-.1 1.1c-2.5-.5-5.2-.3-7.7.9l-.4.2v.9q.4-.2.8-.3c2.4-1.1 4.9-1.4 7.3-.9v.6l-.1.1.1.1-.1.3c-2.2-.5-4.6-.3-6.8.8-5.4 2.4-7.8 8.8-5.4 14.1 2.5 5.3 8.8 7.7 14.3 5.2 4-1.9 6.4-6 6.3-10.1l-.4-.9-9.6 4.4-.3-.8 12.5-5.7.7 1.6c.6 4.7-1.4 9.5-5.2 12.5l.1 1.1c4.4-3.3 6.7-8.7 6-14l-.8-1.6-.3-.8-.9.4-12.5 5.7-1.2-2.5 14.6-6.6.3.8-13.7 6.3.4.8 13.7-6.3 1.5 3.3c1.1 6.9-2.4 13.9-9.1 17-7.8 3.6-16.9.4-20.7-7l-.8.3c3.1 6.1 9.5 9.5 16.1 9q.4-.1.9-.1 1.2-.2 2.5-.6c.3-.1.6-.1.8-.2q.8-.3 1.5-.6.5-.2.9-.5l.8-.4q1.2-.7 2.2-1.6.3-.3.7-.6c4.1-3.8 6-9.5 5-15.1l-2.2-4.9-.4-.7v-.1z"/><path d="m242.5 187.6-.4-.8-.8.3.4.9c.3 4.7-2.3 9.5-7 11.6-6 2.7-13 .2-15.7-5.7-2.4-5.3-.5-11.4 4.2-14.6l-.1-1c-5.3 3.3-7.5 10.1-4.9 15.9 2.9 6.3 10.4 9.1 16.9 6.2 5.1-2.4 7.9-7.6 7.4-12.8M124.5 257.7c-.5.2-.7.8-.5 1.3l.5.4-.5 1.2-13.4 6.2c-.2-.2-.6-.3-.9-.1-.5.2-.7.7-.5 1.2.2.4.6.6 1 .5l3.8 2.3 5.3 1.7.9 1.3c-.1.3-.2.6 0 .9.2.4.7.7 1.2.4.5-.2.7-.8.5-1.2s-.6-.6-1-.6l-1-1.6-5.6-1.7-3.4-2.1.1-.2 13.8-6.3.3-1.2.6-.9c.2-.3.2-.7.1-1-.2-.5-.8-.7-1.3-.5M209 186.7l-1.7-3.8-.3-.7-.7.3-9 4.2.3.7 9-4.2 1.7 3.7c-.3.3-.4.7-.2 1.1.2.5.8.7 1.2.5.5-.2.7-.8.5-1.3-.1-.3-.5-.5-.8-.5M239.3 178.6l-.6-1.3-.3-.6-.6.3-2.7 1.2.3.7 2.7-1.3.5 1.3c-.2.3-.3.7-.1 1 .2.5.8.7 1.2.5.5-.2.7-.8.5-1.3-.2-.3-.5-.5-.9-.5M188.5 200.4l-.3-.6-9.3 4.3-.7.3.3.6 9.5 20.6c-.3.3-.3.7-.2 1.1.2.4.8.7 1.3.4.5-.2.7-.7.4-1.2-.1-.4-.5-.6-.8-.6l-9.5-20.6z"/><path d="m187.8 208-1.4-3-.3-.6-.7.3-2.8 1.3-.7.3.3.7 5.8 12.6c-.2.3-.3.7-.2 1 .3.5.8.7 1.3.5s.7-.8.5-1.2-.6-.6-.9-.6l-5.8-12.6 2.8-1.4 1.4 3c-.3.3-.3.7-.2 1 .3.5.8.7 1.3.5s.7-.8.4-1.2c-.1-.4-.5-.6-.8-.6M187.1 197.3l-26.7 12.3c-.3-.2-.7-.3-1.1-.1s-.6.7-.4 1.2.8.7 1.2.5.6-.6.6-.9l26.7-12.3zM178.4 217.2l-5.9 2.7c-.3-.3-.7-.4-1-.2-.5.2-.7.8-.5 1.3.2.4.8.6 1.3.4.3-.1.5-.5.5-.9l5.9-2.7 1.2 2.6-9.2 4.2c-.2-.2-.7-.3-1-.1-.5.2-.7.7-.5 1.2s.8.7 1.3.5c.3-.2.5-.5.5-.9l9.2-4.2.7-.3-.3-.7-1.2-2.6-.3-.6zM186 194.9l-26.7 12.3c-.3-.3-.7-.4-1.1-.2-.5.2-.7.8-.4 1.2.2.5.7.7 1.2.5q.6-.3.6-.9l26.7-12.3zM234 175.8l3.3-1.5.3.7-3.3 1.5zM230.1 182.7c-.4.2-.6.6-.5.9l-6.2 2.9c-.3-.3-.7-.4-1-.2-.5.2-.7.8-.5 1.3.2.3.5.5.9.5l2.7 5.9c-.3.2-.4.6-.2 1 .2.5.8.7 1.3.4.4-.2.6-.7.4-1.2-.1-.4-.5-.6-.9-.6l-2.7-5.8q.3-.3.3-.7l6.2-2.8c.2.2.6.3 1 .2.5-.3.7-.8.5-1.3-.3-.5-.8-.7-1.3-.5M232.6 207.7l-.5-1.1-.6.3.4 1.1c-.2.3-.3.7-.1 1.1s.8.6 1.2.4c.5-.2.7-.8.5-1.2q-.3-.6-.9-.6M235.9 206.2l-.4-1.1-.7.3.5 1.1c-.3.3-.3.7-.2 1 .2.5.8.7 1.3.5.4-.2.7-.8.4-1.3-.1-.3-.5-.5-.9-.5M239.3 204.7l-.5-1.1-.7.3.5 1.1c-.2.2-.3.6-.2 1 .3.5.8.7 1.3.5.5-.3.7-.8.5-1.3-.2-.3-.6-.6-.9-.5M242.6 203.1l-.5-1-.7.3.5 1c-.2.3-.3.7-.1 1.1s.7.6 1.2.4.7-.8.5-1.2q-.3-.6-.9-.6M236.5 180.4l-1.9.9c-.2-.3-.6-.3-1-.2-.5.3-.7.8-.5 1.3.3.5.8.7 1.3.5.4-.2.6-.6.5-.9l1.9-.9.2.5.7-.3-.2-.5-.4-.7zM239.3 167.4l-4.9 2.2c-.3-.2-.7-.3-1.1-.1s-.7.7-.4 1.2c.2.5.7.7 1.2.5q.6-.3.6-.9l4.9-2.3 3 6.7.7-.4-3.1-6.6-.3-.6z"/><path d="m241.8 177.5-2.9-6.3-.3-.6-3.9 1.8.3.6 3.2-1.5 2.9 6.3c-.3.2-.3.6-.2 1 .2.5.8.7 1.3.5.5-.3.7-.8.4-1.3-.1-.3-.5-.5-.8-.5M265.6 158.1l4.7-2.1.3.6-4.7 2.2zM206.4 187.9l-.5-1.3-.4-.8-.7.3-5.6 2.6.4.8 5.6-2.6.6 1.3q-.2.2-.3.5l-4.1 1.9.4.8 4.1-1.9c.3.2.6.3 1 .2.4-.3.7-.8.4-1.3-.1-.4-.5-.6-.9-.5M215.7 201.4l-3.8-8.2c.3-.3.3-.7.2-1-.2-.5-.8-.7-1.3-.5s-.7.8-.4 1.3c.1.3.5.5.9.5l3.7 8.2c-.2.3-.3.7-.1 1.1s.7.6 1.2.4.7-.8.5-1.2q-.3-.6-.9-.6M211 197.7l-1.6-3.4c.3-.2.4-.6.2-1-.2-.5-.8-.7-1.3-.5-.4.3-.6.8-.4 1.3.1.4.5.6.9.5l1.5 3.4c-.2.3-.3.7-.1 1.1.2.5.7.7 1.2.4.5-.2.7-.7.5-1.2q-.3-.6-.9-.6M263.7 167.3c-.3.1-.5.5-.5.9l-7.3 3.3c-.3-.2-.7-.3-1.1-.1-.5.2-.6.8-.4 1.2.2.5.7.7 1.2.5q.6-.3.6-.9l7.3-3.4c.2.3.7.4 1 .2.5-.2.7-.8.5-1.3-.2-.4-.8-.6-1.3-.4M266.8 160.7l4.7-2.2.3.7-4.7 2.2zM268.5 168.2c-.4.1-.6.5-.6.9l-10.9 5c-.3-.3-.7-.4-1-.2-.5.2-.7.8-.5 1.3.3.4.8.6 1.3.4.3-.2.5-.5.5-.9l10.9-5c.3.3.7.3 1 .2.5-.2.7-.8.5-1.3s-.8-.7-1.2-.4M278.3 174.7l-4.6-10c.2-.3.3-.7.1-1-.2-.5-.7-.7-1.2-.5s-.7.8-.5 1.3c.2.3.6.5.9.5l4.6 10c-.2.3-.3.7-.1 1.1s.7.6 1.2.4.7-.8.5-1.2q-.3-.6-.9-.6"/><path d="m272.4 169.4-1.5-3.4c.2-.3.3-.7.1-1-.2-.5-.8-.7-1.2-.5-.5.2-.7.8-.5 1.3.2.3.5.5.9.5l1.5 3.4c-.1.2-.2.4-.2.7l-13.4 6.1c-.2-.2-.6-.3-1-.2-.5.3-.7.8-.4 1.3.2.5.7.7 1.2.5.4-.2.6-.6.5-.9l13.4-6.2c.3.3.7.4 1 .2.5-.2.7-.8.5-1.3-.2-.3-.5-.5-.9-.5M267.2 174.7q-.6.3-.6.9l-7.3 3.4c-.3-.3-.7-.4-1.1-.2s-.6.8-.4 1.3c.2.4.8.6 1.2.4.4-.1.6-.5.6-.9l7.3-3.3c.3.2.7.3 1 .1.5-.2.7-.8.5-1.2-.2-.5-.8-.7-1.2-.5M264.6 155.7l4.6-2.1.3.7-4.6 2.1zM243.6 164.8c-.4.1-.6.5-.6.9l-1.2.5 1.7 3.9.7-.3-1.5-3.2.6-.3c.3.3.7.3 1.1.2.4-.2.6-.8.4-1.3s-.8-.7-1.2-.4M301.9 153l-.3.2-8.6-3.2-.3.7 8.6 3.2.1.4c.2.4.8.7 1.3.4.4-.2.6-.7.4-1.2s-.7-.7-1.2-.5M280.3 145.4v-.1l-2.4-.8-1-.4-.4.2-.5.2-14.4 6.7c-.3-.3-.7-.4-1-.2-.5.2-.7.8-.5 1.3.2.4.8.6 1.3.4.3-.2.5-.5.5-.9l15-6.9 4.1 1.5.9-.4z"/><path d="M275 148h-.1l-63.5 29.2c-.3-.2-.7-.3-1.1-.1s-.6.7-.4 1.2.8.7 1.2.5q.6-.3.6-.9l63.2-29.1.5.2 1-.4zM108.3 254.7l-2.6 1.2c-.2-.2-.6-.3-.9-.1-.5.2-.7.8-.5 1.2.2.5.8.7 1.3.5.3-.1.5-.5.5-.8l1.8-.8.9 1.9-1.8.8c-.3-.2-.6-.3-1-.1-.5.2-.7.8-.5 1.3.3.4.8.6 1.3.4.3-.1.5-.4.6-.8l2.2-1 .3-.2z"/><path d="m110.9 256.8 1.9-.9.2-.1c0-.3.2-.6.6-.8s1 0 1.2.5 0 1-.4 1.2-.7.1-1-.1l-2.1 1-.7.3h-.1v.1l-1.6-3.5v-.1l10.5-4.8-1 7-13.5 6.2c-.1.3-.2.6-.6.8-.5.2-1 0-1.2-.5-.3-.5 0-1 .4-1.3.4-.1.7 0 1 .2l13.1-6 .6-4.8-8.1 3.7zM257 152.6c-.3.2-.5.5-.5.8l-84.6 38.9-10.6-3.3-.1-.2c-.1-.3-.4-.5-.8-.6l-.6-1.4c.2-.2.2-.6.1-.9-.2-.5-.8-.7-1.3-.5l-.2.2-12.4-4.4-4.2-.7v-.1c-.2-.5-.8-.7-1.2-.4-.5.2-.7.7-.5 1.2s.8.7 1.2.5l.4-.3 4.1.6 12.3 4.4.1.3c.1.3.4.5.8.5l.6 1.4c-.2.3-.3.6-.1 1 .2.5.8.7 1.3.4l.2-.1 11.3 3.2 84.5-38.9c.3.2.6.3 1 .1.5-.2.7-.7.5-1.2-.3-.5-.8-.7-1.3-.5M278.9 180.6c-1.7 4.5-5 8.1-9.4 10.1h-.1c-4.9 2.3-10.4 2.2-15 .2l1.9 17.5 6.8-3.9 8 3.1-1-13.8 11.7 11 2.4-8.4 6.9-3.6z"/></svg>