<?xml version="1.0" encoding="utf-8"?>
<!-- Generator: Adobe Illustrator 24.0.3, SVG Export Plug-In . SVG Version: 6.00 Build 0)  -->
<svg version="1.1" id="圖層_1" xmlns="http://www.w3.org/2000/svg" xmlns:xlink="http://www.w3.org/1999/xlink" x="0px" y="0px"
	 viewBox="0 0 800 330" style="enable-background:new 0 0 800 330;" xml:space="preserve">
<style type="text/css">
	.st0{fill:url(#SVGID_1_);}
	.st1{fill:url(#SVGID_2_);}
	.st2{fill:url(#SVGID_3_);}
	.st3{fill:url(#SVGID_4_);}
	.st4{fill:url(#SVGID_5_);}
	.st5{fill:url(#SVGID_6_);}
	.st6{fill:url(#SVGID_7_);}
	.st7{fill:url(#SVGID_8_);}
	.st8{fill:#656464;}
	.st9{fill:#00913A;}
	.st10{fill:#005BAB;}
	.st11{fill:#3E3A39;}
</style>
<g>
	<polygon class="st9" points="365.1,44.1 349.8,117.5 329.3,44.1 274,44.1 253.6,117.5 238.3,44.1 57.4,44.1 57.4,81.3 105.6,81.3 
		105.6,191.7 150.7,191.7 150.7,81.3 201,81.3 224.1,191.7 277.9,191.7 301.7,106.5 325.4,191.7 379.3,191.7 410.1,44.1 	"/>
	<path class="st10" d="M518.1,130.6c-4.8,14-18.1,24-33.7,24c-19.7,0-35.6-15.9-35.6-35.6c0-19.7,15.9-35.6,35.6-35.6
		c16.1,0,29.6,10.6,34.1,25.3h45.4c-5.1-39.4-38.7-69.8-79.4-69.8c-44.2,0-80.1,35.9-80.1,80.1c0,44.2,35.9,80.1,80.1,80.1
		c40.3,0,73.6-29.8,79.3-68.5H518.1z"/>
	<path class="st10" d="M673.6,44.1h-57.8l-30.2,64.5h44.4v-9.2h29.6v9.2h8.9c4.6,0,8.3,3.7,8.3,8.3v5.2c0,4.6-3.7,8.3-8.3,8.3h-93.2
		l-28.6,61.1h48.9l13.2-28.2h71.6l13.2,28.2h48.9L673.6,44.1z"/>
	<g>
		<g>
			<path class="st11" d="M602.5,283.9c-3.6,0-1.4,0-5,0c-4.7,0-4.8-3.1-4.8-4.3v-13c0,0,0.3-2.4-2-2.4c-1.4,0-5.8,0-5.8,0v16.5
				c0,4.1,2.3,9.8,10.3,9.8c1.1,0,7.8,0,8.9,0c9.6,0,10.9-12.1,10.9-12.1l-6.5-2.6C608.6,275.9,607.6,283.9,602.5,283.9z"/>
			<path class="st11" d="M567.3,253.5h-19.6v5.3h19.6c1.5,0,2.6-1.2,2.6-2.6C569.9,254.6,568.7,253.5,567.3,253.5z"/>
			<path class="st11" d="M567.3,242.5h-19.6v5.3h19.6c1.5,0,2.6-1.2,2.6-2.6C569.9,243.7,568.7,242.5,567.3,242.5z"/>
			<path class="st11" d="M572.7,234.1c0-1.5-1.2-2.6-2.6-2.6h-25.3v5.3h25.3C571.6,236.8,572.7,235.6,572.7,234.1z"/>
			<path class="st11" d="M568.9,223.2c0-1.5-1.2-2.6-2.6-2.6h-17.6v5.3h17.6C567.7,225.8,568.9,224.6,568.9,223.2z"/>
			<path class="st11" d="M598.5,225.1h9.2v14.7c0,0,0.1,8.2-6.6,8.2c-1.2,0-4.7,0-4.7,0l3.3,6.6c0,0,1.8,0,2.9,0
				c13.2,0,12.8-15.4,12.8-15.4v-16.9c0-0.1,0.2-2.5-2.6-2.5h-36v5.3h14.5c-0.4,3.4-1.4,7-3.1,10.6l-5.7-4.3
				c-0.7-0.5-1.6-0.4-2.1,0.3l-2.8,3.6c-0.5,0.7-0.4,1.6,0.3,2.1l6.4,4.9c-2.7,3.6-6.1,7.1-10.4,10.3c-0.1,0.1-0.2,0.2-0.3,0.3
				l5.9,4.1C592.2,247.5,596.7,237.6,598.5,225.1z"/>
			<path class="st11" d="M580.1,262.9c-1.9-0.3-3.6,0.9-4,2.8c0,0.1-1,5.5-4.6,13.3v-10.9c0-0.1-0.1-2.5-2.6-2.5H546V291h7.7v-2.7
				h10.1v2.7h7.7V283l4.8,2c5.1-10.3,6.5-17.7,6.5-18C583.2,265,582,263.3,580.1,262.9z M553.7,283.1v-12.2h10.1v12.2H553.7z"/>
			<path class="st11" d="M593.1,258.1c-1.2,1.2-1.3,3.1-0.1,4.4c0.1,0.1,4.6,4.8,7.9,10.7l5.2-3.2c-3.7-6.4-8.5-11.5-8.7-11.7
				C596.3,256.9,594.3,256.9,593.1,258.1z"/>
			<path class="st11" d="M614.1,274.6l5.1-3.7c-3.6-5.9-7.9-10.5-8.1-10.7c-1.2-1.2-3.1-1.3-4.3-0.1c-1.2,1.2-1.3,3.1-0.1,4.3
				C606.6,264.5,610.8,269.2,614.1,274.6z"/>
		</g>
		<g>
			<path class="st11" d="M88.3,229.8H62.1v5.3h57.7c1.5,0,2.6-1.2,2.6-2.6c0-1.5-1.2-2.6-2.6-2.6H96.1v-3.1h28.2
				c1.5,0,2.6-1.2,2.6-2.6s-1.2-2.6-2.6-2.6H96.1v-2.5c0-0.9-0.7-1.6-1.6-1.6h-4.6c-0.9,0-1.6,0.7-1.6,1.6v2.5H57.4v5.3h30.9V229.8z
				"/>
			<path class="st11" d="M124,251.7H57.4v12.5H65v-7.3h54.5v7.3h7.7v-9.5C127.2,254.7,127.4,251.7,124,251.7z"/>
			<path class="st11" d="M66.8,237.4V249h50.8V239c0-0.9-0.7-1.5-1.5-1.5H66.8z M74.6,244.5V242h35.3v2.4H74.6z"/>
			<path class="st11" d="M124.3,285.2H96.1v-3.5h23.6c1.5,0,2.6-1.2,2.6-2.6c0-1.4-1.2-2.6-2.6-2.6H96.1v-3.5h18.8
				c1.4,0,2.6-1.2,2.6-2.6c0-0.8-0.4-1.5-1-2l0,0l-4.3-4.1h2.6c1.4,0,2.6-1.2,2.6-2.6s-1.2-2.6-2.6-2.6h-48v5.3h5.8l-3.7,3.5h-2.1
				v5.3h21.4v3.5H62.1v5.3h26.3v3.5H57.4v5.3h66.9c1.5,0,2.6-1.2,2.6-2.6C126.9,286.3,125.7,285.2,124.3,285.2z M82.8,264.2h19.3
				l3.7,3.5H79.1L82.8,264.2z"/>
		</g>
		<g>
			<path class="st11" d="M308.4,264c-1.5-0.3-3,0.6-3.3,2.2l-3.8,17.9l5.5,1.2l3.8-17.9C310.9,265.8,310,264.3,308.4,264z"/>
			<path class="st11" d="M323.3,265.1c-1.5,0.3-2.5,1.8-2.2,3.3l2.9,13.7l5.5-1.2l-2.9-13.7C326.3,265.7,324.8,264.8,323.3,265.1z"
				/>
			<path class="st11" d="M370.4,221.2h-40.3V291h7.7v-31.4h3.6v11.1c0,0-0.1,5,6,5c8.9,0,14.5,0,14.5,0c1.5,0,2.6-1.2,2.6-2.6
				s-1.2-2.6-2.6-2.6c0,0-8.8,0-11,0c-1.8,0-1.7-1.6-1.7-1.6v-9.3h12.8c1.5,0,2.6-1.2,2.6-2.6c0-1.5-1.2-2.6-2.6-2.6h-6.8v-8.9h6.8
				c1.5,0,2.6-1.2,2.6-2.6c0-1.4-1.2-2.6-2.6-2.6h-0.8l2.7-7.4c0.3-0.8-0.1-1.7-0.9-2l-4.7-1.8l-4.1,11.1h-5.3l-4.1-11.1l-4.7,1.8
				c-0.8,0.3-1.2,1.2-0.9,2l2.7,7.4h-4v-13.8h27.5v56.9c0,0,0.1,2.4-2.3,2.4c-1.4,0-1.8,0-4.6,0l1.8,5.3c0,0,4.1,0,5.1,0
				c7.5,0,7.8-5.6,7.8-5.6v-61.5C373,222.5,372.4,221.2,370.4,221.2z M347.3,245.5v8.9h-9.5v-8.9H347.3z"/>
			<path class="st11" d="M325,260c1.5,0,2.8-1.3,2.8-2.8c0,0,0,0,0,0v0v-9.8h-7.6v7H313l13.4-18.4c0.9-1.2,0.6-3-0.6-3.9
				c-1.3-0.9-3-0.6-3.9,0.6l-3.1,4.3h-9.3l9.6-13.1c0.9-1.3,0.6-3-0.6-3.9c-1.2-0.9-3-0.6-3.9,0.6l-11.6,16v6h11.9l-8.6,11.8h-3.3
				v5.6h9.2v31h7.6v-31H325z"/>
		</g>
		<g>
			<path class="st11" d="M451.4,276.4l-8.2,2.1v-14.8h8c1.5,0,2.6-1.2,2.6-2.6c0-1.5-1.2-2.6-2.6-2.6h-8v-10h8.7v-24.3
				c0-0.1,0-0.9,0-1c0-1.5-1.4-1.8-2.6-1.8h-22.9v27.1h9v32l-2.8,0.7v-23.3c0-0.9-0.7-1.5-1.5-1.5h-4.6c-0.9,0-1.6,0.7-1.6,1.5v25.3
				l-2.6,0.7l2,7.2l28.5-9c1.6-0.4,2.5-2,2.1-3.6C454.6,276.9,453,276,451.4,276.4z M434.2,226.6h10v16.6h-10V226.6z"/>
			<path class="st11" d="M488.5,261.6h-28.8V291h7.7v-2.6h15.9v2.6h7.7v-26.4C491.1,262.8,490,261.6,488.5,261.6z M467.4,283.2
				v-16.3h15.9v16.3H467.4z"/>
			<path class="st11" d="M496.4,254.1c-6.3-1.7-11.5-4.9-15.7-8.5c7.5-7.7,11.5-15.4,11.8-15.9c0.1-0.2,0.2-0.4,0.2-0.6
				c0.3-0.4,0.4-0.9,0.4-1.5c0-1.5-1.3-2.8-2.8-2.8h-18.9c0.6-1.3,1-2,1-2.2c0.8-1.7,0-3.7-1.7-4.5c-1.7-0.8-3.8,0-4.5,1.7
				c0,0.1-4.8,10.7-12.6,19.9l5,4.6c1.9-2.3,3.6-4.6,5.2-6.8c1.8,2.4,4,5.2,6.7,8c-4.2,3.6-9.4,6.8-15.7,8.5c-0.1,0-0.2,0.1-0.4,0.1
				l2.4,6.4c7.4-2.1,13.7-5.9,18.8-10.3c5.1,4.3,11.4,8.2,18.8,10.3l2.4-6.4C496.6,254.2,496.5,254.1,496.4,254.1z M468.3,230.4
				h14.5c-1.3,2.3-3.7,6.2-7.3,10.2C472,236.6,469.6,232.8,468.3,230.4C468.3,230.4,468.3,230.4,468.3,230.4z"/>
		</g>
		<g>
			<path class="st11" d="M189,231.5l4.5-5.3l-9-7.6c-0.6-0.5-1.5-0.4-2,0.2l-2.7,3.2c-0.5,0.6-0.4,1.5,0.2,2L189,231.5z"/>
			<path class="st11" d="M187.6,254.5l4.5-5.3l-9-7.6c-0.6-0.5-1.5-0.4-2,0.2l-2.7,3.2c-0.5,0.6-0.4,1.5,0.2,2L187.6,254.5z"/>
			<path class="st11" d="M196.2,266.4l-3.9-2.2c-0.7-0.4-1.6-0.1-2,0.6l-12.2,21.7l6.5,3.6l12.2-21.7
				C197.2,267.7,196.9,266.8,196.2,266.4z"/>
			<path class="st11" d="M248.7,274.2h-42.9l1-3.2H246v-11.6c0-0.9-0.7-1.6-1.5-1.6h-43.4v5.3h37.2v2.6h-37.7l-4.5,14.4
				c-0.1,0.3-0.3,1.5,1,1.5h6.3l0.7-2.2H243l-0.7,2.8c0,0-0.9,3.3-4.8,3.3c-2.3,0-11.3,0-11.3,0l2.8,5.2c0,0,0.4,0,8.8,0
				c10.4,0,11.5-6.3,11.5-6.3s1.7-6.6,1.7-6.9C251.5,275.1,250.2,274.2,248.7,274.2z"/>
			<path class="st11" d="M230,220.6c0-1.4-1.1-2.5-2.5-2.5h-12.7v5h12.7C228.8,223.1,230,222,230,220.6z"/>
			<path class="st11" d="M231,227.1c0-1.4-1.1-2.5-2.5-2.5h-14.7v5h14.7C229.9,229.6,231,228.5,231,227.1z"/>
			<path class="st11" d="M229.4,233.7c0-1.4-1.1-2.5-2.5-2.5h-11.6v5h11.6C228.3,236.2,229.4,235,229.4,233.7z"/>
			<path class="st11" d="M215.3,242.7h11.6c1.4,0,2.5-1.1,2.5-2.5c0-1.4-1.1-2.5-2.5-2.5h-11.6V242.7z"/>
			<path class="st11" d="M214.7,255.8H230v-9.6c0-2-1.8-2-2-2h-13.2V255.8z M220.6,250.7v-1.5h3.5v1.5H220.6z"/>
			<path class="st11" d="M197.7,237.7h-4.4v5h7.5v13.2h5.9v-13.2h2.7c1.4,0,2.5-1.1,2.5-2.5v-5.8h-4.5l3.8-4.3
				c0.9-1,0.8-2.6-0.2-3.6c-1-0.9-2.6-0.8-3.6,0.2l-1.8,2h-5.2l5.7-6.4c0.9-1,0.8-2.6-0.2-3.6c-1-0.9-2.6-0.8-3.6,0.2l-8.8,9.8h-0.1
				v0.1v5h7.5L197.7,237.7z M206.9,237.7h-2.4l2.4-2.7V237.7z"/>
			<path class="st11" d="M195.7,246.5l-2.4,8.2l4.7,1.4l2.4-8.2c0.4-1.3-0.4-2.7-1.7-3.1C197.5,244.4,196.1,245.2,195.7,246.5z"/>
			<path class="st11" d="M209.8,244.5c-1.4,0.2-2.3,1.4-2.1,2.8l0.9,6.9l4.9-0.6l-0.9-6.9C212.4,245.3,211.2,244.3,209.8,244.5z"/>
			<path class="st11" d="M238.7,255.9h5.9v-13.2h2.7c1.4,0,2.5-1.1,2.5-2.5v-5.8h-4.5l3.8-4.3c0.9-1,0.8-2.6-0.2-3.6
				c-1-0.9-2.6-0.8-3.6,0.2l-1.8,2h-5.2l5.7-6.4c0.9-1,0.8-2.6-0.2-3.6c-1-0.9-2.6-0.8-3.6,0.2l-8.7,9.8h-0.1v0.1v5h7.5l-3.5,3.9
				h-4.4v5h7.5V255.9z M244.8,235v2.7h-2.4L244.8,235z"/>
			<path class="st11" d="M238.3,247.9c0.4-1.3-0.4-2.7-1.7-3.1c-1.3-0.4-2.7,0.4-3.1,1.7l-2.4,8.2l4.7,1.4L238.3,247.9z"/>
			<path class="st11" d="M247.7,244.5c-1.4,0.2-2.3,1.4-2.1,2.8l0.9,6.9l4.9-0.6l-0.9-6.9C250.3,245.3,249,244.3,247.7,244.5z"/>
		</g>
		<g>
			<g>
				<path class="st11" d="M688.6,253.5H669v5.3h19.6c1.5,0,2.6-1.2,2.6-2.6C691.3,254.6,690.1,253.5,688.6,253.5z"/>
				<path class="st11" d="M688.6,242.5H669v5.3h19.6c1.5,0,2.6-1.2,2.6-2.6C691.3,243.7,690.1,242.5,688.6,242.5z"/>
				<path class="st11" d="M694.1,234.1c0-1.5-1.2-2.6-2.6-2.6h-25.3v5.3h25.3C692.9,236.8,694.1,235.6,694.1,234.1z"/>
				<path class="st11" d="M690.3,223.2c0-1.5-1.2-2.6-2.6-2.6H670v5.3h17.6C689.1,225.8,690.3,224.6,690.3,223.2z"/>
				<path class="st11" d="M690.3,265.6h-22.9V291h7.7v-2.7h10.1v2.7h7.8v-22.7C692.9,268.3,693.2,265.6,690.3,265.6z M675.1,283.1
					v-12.2h10.1v12.2H675.1z"/>
			</g>
			<g>
				<path class="st11" d="M737.8,285.8H730l3.3-9c0.3-0.8-0.1-1.7-0.9-1.9l-4.7-1.8l-4.7,12.7h-10.9l-4.6-12.7l-4.7,1.8
					c-0.8,0.3-1.2,1.2-0.9,1.9l3.3,9h-10.4v5.3h43c1.5,0,2.6-1.2,2.6-2.6C740.4,287,739.2,285.8,737.8,285.8z"/>
				<path class="st11" d="M734.7,253.2h-36.9v19.2h39.5v-16.8C737.3,255.6,737.5,253.2,734.7,253.2z M705.6,267.2v-8.7h24v8.7H705.6
					z"/>
				<path class="st11" d="M695.4,250.5c3-1.9,5.8-4,8.2-6.2v4.1h25.3c1.5,0,2.6-1.2,2.6-2.6c0-0.7-0.3-1.3-0.7-1.8
					c1.9,2,3.9,4.1,6.3,6l5.4-4.4c-2.9-2.3-5.3-4.7-7.4-7l4.4-3c0.6-0.4,0.8-1.3,0.4-1.9l-2.3-3.5c-0.4-0.6-1.3-0.8-1.9-0.4
					l-4.8,3.2c-0.7-1.1-1.4-2.2-2-3.2l6.6-4.4c0.6-0.4,0.8-1.3,0.4-1.9l-2.3-3.5c-0.4-0.6-1.3-0.8-1.9-0.4l-5.8,3.9
					c-0.5-1.4-0.8-2.2-0.8-2.3c-0.5-1.8-2.3-2.9-4.2-2.5c-1.4,0.4-2.4,1.6-2.5,3c-0.5-0.2-1.1-0.5-1.7-0.7c-1.1-0.5-2.7-0.5-3.6-0.5
					h-17.6v5.3h13.8c-1,1.7-2.4,4-4.2,6.4l-3.6-3.7c-0.5-0.5-1.4-0.6-2,0l-3,2.9c-0.5,0.5-0.6,1.4,0,2l4.1,4.1
					c-2.3,2.3-4.9,4.6-8,6.6L695.4,250.5z M719,224.6c1.1,3.3,4.4,11.2,11.8,19.3c-0.5-0.5-1.1-0.8-1.8-0.8h-24.1
					C712.9,235.5,717.7,227.1,719,224.6z"/>
			</g>
		</g>
	</g>
</g>
</svg>
