<svg version="1.2" xmlns="http://www.w3.org/2000/svg" viewBox="0 0 686 252" width="686" height="252">
	<title>TWCA</title>
	<style>
		.s0 { fill: #00913a } 
		.s1 { fill: #005bab } 
		.s2 { fill: #3e3a39 } 
	</style>
	<g>
		<path fill-rule="evenodd" class="s0" d="m308.1 5.1l-15.3 73.4-20.5-73.4h-55.3l-20.4 73.4-15.3-73.4h-180.9v37.2h48.2v110.4h45.1v-110.4h50.3l23.1 110.4h53.8l23.8-85.2 23.7 85.2h53.9l30.8-147.6z"/>
		<path class="s1" d="m461.1 91.6c-4.8 14-18.1 24-33.7 24-19.7 0-35.6-15.9-35.6-35.6 0-19.7 15.9-35.6 35.6-35.6 16.1 0 29.6 10.6 34.1 25.3h45.4c-5.1-39.4-38.7-69.8-79.4-69.8-44.2 0-80.1 35.9-80.1 80.1 0 44.2 35.9 80.1 80.1 80.1 40.3 0 73.6-29.8 79.3-68.5z"/>
		<path class="s1" d="m616.6 5.1h-57.8l-30.2 64.5h44.4v-9.2h29.6v9.2h8.9c4.6 0 8.3 3.7 8.3 8.3v5.2c0 4.6-3.7 8.3-8.3 8.3h-93.2l-28.6 61.1h48.9l13.2-28.2h71.6l13.2 28.2h48.9z"/>
		<g>
			<g>
				<path class="s2" d="m545.5 244.9c-3.6 0-1.4 0-5 0-4.7 0-4.8-3.1-4.8-4.3v-13c0 0 0.3-2.4-2-2.4-1.4 0-5.8 0-5.8 0v16.5c0 4.1 2.3 9.8 10.3 9.8 1.1 0 7.8 0 8.9 0 9.6 0 10.9-12.1 10.9-12.1l-6.5-2.6c0.1 0.1-0.9 8.1-6 8.1z"/>
				<path class="s2" d="m510.3 214.5h-19.6v5.3h19.6c1.5 0 2.6-1.2 2.6-2.6 0-1.6-1.2-2.7-2.6-2.7z"/>
				<path class="s2" d="m510.3 203.5h-19.6v5.3h19.6c1.5 0 2.6-1.2 2.6-2.6 0-1.5-1.2-2.7-2.6-2.7z"/>
				<path class="s2" d="m515.7 195.1c0-1.5-1.2-2.6-2.6-2.6h-25.3v5.3h25.3c1.5 0 2.6-1.2 2.6-2.7z"/>
				<path class="s2" d="m511.9 184.2c0-1.5-1.2-2.6-2.6-2.6h-17.6v5.3h17.6c1.4-0.1 2.6-1.3 2.6-2.7z"/>
				<path class="s2" d="m541.5 186.1h9.2v14.7c0 0 0.1 8.2-6.6 8.2-1.2 0-4.7 0-4.7 0l3.3 6.6c0 0 1.8 0 2.9 0 13.2 0 12.8-15.4 12.8-15.4v-16.9c0-0.1 0.2-2.5-2.6-2.5h-36v5.3h14.5c-0.4 3.4-1.4 7-3.1 10.6l-5.7-4.3c-0.7-0.5-1.6-0.4-2.1 0.3l-2.8 3.6c-0.5 0.7-0.4 1.6 0.3 2.1l6.4 4.9c-2.7 3.6-6.1 7.1-10.4 10.3q-0.2 0.1-0.3 0.3l5.9 4.1c12.7-9.5 17.2-19.4 19-31.9z"/>
				<path class="s2" d="m523.1 223.9c-1.9-0.3-3.6 0.9-4 2.8 0 0.1-1 5.5-4.6 13.3v-10.9c0-0.1-0.1-2.5-2.6-2.5h-22.9v25.4h7.7v-2.7h10.1v2.7h7.7v-8l4.8 2c5.1-10.3 6.5-17.7 6.5-18 0.4-2-0.8-3.7-2.7-4.1zm-26.4 20.2v-12.2h10.1v12.2z"/>
				<path class="s2" d="m536.1 219.1c-1.2 1.2-1.3 3.1-0.1 4.4 0.1 0.1 4.6 4.8 7.9 10.7l5.2-3.2c-3.7-6.4-8.5-11.5-8.7-11.7-1.1-1.4-3.1-1.4-4.3-0.2z"/>
				<path class="s2" d="m557.1 235.6l5.1-3.7c-3.6-5.9-7.9-10.5-8.1-10.7-1.2-1.2-3.1-1.3-4.3-0.1-1.2 1.2-1.3 3.1-0.1 4.3-0.1 0.1 4.1 4.8 7.4 10.2z"/>
			</g>
			<g>
				<path class="s2" d="m31.3 190.8h-26.2v5.3h57.7c1.5 0 2.6-1.2 2.6-2.6 0-1.5-1.2-2.6-2.6-2.6h-23.7v-3.1h28.2c1.5 0 2.6-1.2 2.6-2.6 0-1.4-1.2-2.6-2.6-2.6h-28.2v-2.5c0-0.9-0.7-1.6-1.6-1.6h-4.6c-0.9 0-1.6 0.7-1.6 1.6v2.5h-30.9v5.3h30.9z"/>
				<path class="s2" d="m67 212.7h-66.6v12.5h7.6v-7.3h54.5v7.3h7.7v-9.5c0 0 0.2-3-3.2-3z"/>
				<path class="s2" d="m9.8 198.4v11.6h50.8v-10c0-0.9-0.7-1.5-1.5-1.5h-49.3zm7.8 7.1v-2.5h35.3v2.4h-35.3z"/>
				<path class="s2" d="m67.3 246.2h-28.2v-3.5h23.6c1.5 0 2.6-1.2 2.6-2.6 0-1.4-1.2-2.6-2.6-2.6h-23.6v-3.5h18.8c1.4 0 2.6-1.2 2.6-2.6 0-0.8-0.4-1.5-1-2l-4.3-4.1h2.6c1.4 0 2.6-1.2 2.6-2.6 0-1.4-1.2-2.6-2.6-2.6h-48v5.3h5.8l-3.7 3.5h-2.1v5.3h21.4v3.5h-26.1v5.3h26.3v3.5h-31v5.3h66.9c1.5 0 2.6-1.2 2.6-2.6 0-1.9-1.2-3-2.6-3zm-41.5-21h19.3l3.7 3.5h-26.7z"/>
			</g>
			<g>
				<path class="s2" d="m251.4 225c-1.5-0.3-3 0.6-3.3 2.2l-3.8 17.9 5.5 1.2 3.8-17.9c0.3-1.6-0.6-3.1-2.2-3.4z"/>
				<path class="s2" d="m266.3 226.1c-1.5 0.3-2.5 1.8-2.2 3.3l2.9 13.7 5.5-1.2-2.9-13.7c-0.3-1.5-1.8-2.4-3.3-2.1z"/>
				<path class="s2" d="m313.4 182.2h-40.3v69.8h7.7v-31.4h3.6v11.1c0 0-0.1 5 6 5 8.9 0 14.5 0 14.5 0 1.5 0 2.6-1.2 2.6-2.6 0-1.4-1.2-2.6-2.6-2.6 0 0-8.8 0-11 0-1.8 0-1.7-1.6-1.7-1.6v-9.3h12.8c1.5 0 2.6-1.2 2.6-2.6 0-1.5-1.2-2.6-2.6-2.6h-6.8v-8.9h6.8c1.5 0 2.6-1.2 2.6-2.6 0-1.4-1.2-2.6-2.6-2.6h-0.8l2.7-7.4c0.3-0.8-0.1-1.7-0.9-2l-4.7-1.8-4.1 11.1h-5.3l-4.1-11.1-4.7 1.8c-0.8 0.3-1.2 1.2-0.9 2l2.7 7.4h-4v-13.8h27.5v56.9c0 0 0.1 2.4-2.3 2.4-1.4 0-1.8 0-4.6 0l1.8 5.3c0 0 4.1 0 5.1 0 7.5 0 7.8-5.6 7.8-5.6v-61.5c-0.2-1.5-0.8-2.8-2.8-2.8zm-23.1 24.3v8.9h-9.5v-8.9z"/>
				<path class="s2" d="m268 221c1.5 0 2.8-1.3 2.8-2.8v-9.8h-7.6v7h-7.2l13.4-18.4c0.9-1.2 0.6-3-0.6-3.9-1.3-0.9-3-0.6-3.9 0.6l-3.1 4.3h-9.3l9.6-13.1c0.9-1.3 0.6-3-0.6-3.9-1.2-0.9-3-0.6-3.9 0.6l-11.6 16v6h11.9l-8.6 11.8h-3.3v5.6h9.2v31h7.6v-31z"/>
			</g>
			<g>
				<path class="s2" d="m394.4 237.4l-8.2 2.1v-14.8h8c1.5 0 2.6-1.2 2.6-2.6 0-1.5-1.2-2.6-2.6-2.6h-8v-10h8.7v-24.3c0-0.1 0-0.9 0-1 0-1.5-1.4-1.8-2.6-1.8h-22.9v27.1h9v32l-2.8 0.7v-23.3c0-0.9-0.7-1.5-1.5-1.5h-4.6c-0.9 0-1.6 0.7-1.6 1.5v25.3l-2.6 0.7 2 7.2 28.5-9c1.6-0.4 2.5-2 2.1-3.6-0.3-1.6-1.9-2.5-3.5-2.1zm-17.2-49.8h10v16.6h-10z"/>
				<path class="s2" d="m431.5 222.6h-28.8v29.4h7.7v-2.6h15.9v2.6h7.7v-26.4c0.1-1.8-1-3-2.5-3zm-21.1 21.6v-16.3h15.9v16.3z"/>
				<path class="s2" d="m439.4 215.1c-6.3-1.7-11.5-4.9-15.7-8.5 7.5-7.7 11.5-15.4 11.8-15.9 0.1-0.2 0.2-0.4 0.2-0.6 0.3-0.4 0.4-0.9 0.4-1.5 0-1.5-1.3-2.8-2.8-2.8h-18.9c0.6-1.3 1-2 1-2.2 0.8-1.7 0-3.7-1.7-4.5-1.7-0.8-3.8 0-4.5 1.7 0 0.1-4.8 10.7-12.6 19.9l5 4.6c1.9-2.3 3.6-4.6 5.2-6.8 1.8 2.4 4 5.2 6.7 8-4.2 3.6-9.4 6.8-15.7 8.5-0.1 0-0.2 0.1-0.4 0.1l2.4 6.4c7.4-2.1 13.7-5.9 18.8-10.3 5.1 4.3 11.4 8.2 18.8 10.3l2.4-6.4c-0.2 0.1-0.3 0-0.4 0zm-28.1-23.7h14.5c-1.3 2.3-3.7 6.2-7.3 10.2-3.5-4-5.9-7.8-7.2-10.2z"/>
			</g>
			<g>
				<path class="s2" d="m132 192.5l4.5-5.3-9-7.6c-0.6-0.5-1.5-0.4-2 0.2l-2.7 3.2c-0.5 0.6-0.4 1.5 0.2 2z"/>
				<path class="s2" d="m130.6 215.5l4.5-5.3-9-7.6c-0.6-0.5-1.5-0.4-2 0.2l-2.7 3.2c-0.5 0.6-0.4 1.5 0.2 2z"/>
				<path class="s2" d="m139.2 227.4l-3.9-2.2c-0.7-0.4-1.6-0.1-2 0.6l-12.2 21.7 6.5 3.6 12.2-21.7c0.4-0.7 0.1-1.6-0.6-2z"/>
				<path class="s2" d="m191.7 235.2h-42.9l1-3.2h39.2v-11.6c0-0.9-0.7-1.6-1.5-1.6h-43.4v5.3h37.2v2.6h-37.7l-4.5 14.4c-0.1 0.3-0.3 1.5 1 1.5h6.3l0.7-2.2h38.9l-0.7 2.8c0 0-0.9 3.3-4.8 3.3-2.3 0-11.3 0-11.3 0l2.8 5.2c0 0 0.4 0 8.8 0 10.4 0 11.5-6.3 11.5-6.3 0 0 1.7-6.6 1.7-6.9 0.5-2.4-0.8-3.3-2.3-3.3z"/>
				<path class="s2" d="m173 181.6c0-1.4-1.1-2.5-2.5-2.5h-12.7v5h12.7c1.3 0 2.5-1.1 2.5-2.5z"/>
				<path class="s2" d="m174 188.1c0-1.4-1.1-2.5-2.5-2.5h-14.7v5h14.7c1.4 0 2.5-1.1 2.5-2.5z"/>
				<path class="s2" d="m172.4 194.7c0-1.4-1.1-2.5-2.5-2.5h-11.6v5h11.6c1.4 0 2.5-1.2 2.5-2.5z"/>
				<path class="s2" d="m158.3 203.7h11.6c1.4 0 2.5-1.1 2.5-2.5 0-1.4-1.1-2.5-2.5-2.5h-11.6z"/>
				<path class="s2" d="m157.7 216.8h15.3v-9.6c0-2-1.8-2-2-2h-13.2v11.6zm5.9-5.1v-1.5h3.5v1.5z"/>
				<path class="s2" d="m140.7 198.7h-4.4v5h7.5v13.2h5.9v-13.2h2.7c1.4 0 2.5-1.1 2.5-2.5v-5.8h-4.5l3.8-4.3c0.9-1 0.8-2.6-0.2-3.6-1-0.9-2.6-0.8-3.6 0.2l-1.8 2h-5.2l5.7-6.4c0.9-1 0.8-2.6-0.2-3.6-1-0.9-2.6-0.8-3.6 0.2l-8.8 9.8h-0.1v0.1 5h7.5zm9.2 0h-2.4l2.4-2.7z"/>
				<path class="s2" d="m138.7 207.5l-2.4 8.2 4.7 1.4 2.4-8.2c0.4-1.3-0.4-2.7-1.7-3.1-1.2-0.4-2.6 0.4-3 1.7z"/>
				<path class="s2" d="m152.8 205.5c-1.4 0.2-2.3 1.4-2.1 2.8l0.9 6.9 4.9-0.6-0.9-6.9c-0.2-1.4-1.4-2.4-2.8-2.2z"/>
				<path class="s2" d="m181.7 216.9h5.9v-13.2h2.7c1.4 0 2.5-1.1 2.5-2.5v-5.8h-4.5l3.8-4.3c0.9-1 0.8-2.6-0.2-3.6-1-0.9-2.6-0.8-3.6 0.2l-1.8 2h-5.2l5.7-6.4c0.9-1 0.8-2.6-0.2-3.6-1-0.9-2.6-0.8-3.6 0.2l-8.7 9.8h-0.1v0.1 5h7.5l-3.5 3.9h-4.4v5h7.5v13.2zm6.1-20.9v2.7h-2.4z"/>
				<path class="s2" d="m181.3 208.9c0.4-1.3-0.4-2.7-1.7-3.1-1.3-0.4-2.7 0.4-3.1 1.7l-2.4 8.2 4.7 1.4z"/>
				<path class="s2" d="m190.7 205.5c-1.4 0.2-2.3 1.4-2.1 2.8l0.9 6.9 4.9-0.6-0.9-6.9c-0.2-1.4-1.5-2.4-2.8-2.2z"/>
			</g>
			<g>
				<g>
					<path class="s2" d="m631.6 214.5h-19.6v5.3h19.6c1.5 0 2.6-1.2 2.6-2.6 0.1-1.6-1.1-2.7-2.6-2.7z"/>
					<path class="s2" d="m631.6 203.5h-19.6v5.3h19.6c1.5 0 2.6-1.2 2.6-2.6 0.1-1.5-1.1-2.7-2.6-2.7z"/>
					<path class="s2" d="m637.1 195.1c0-1.5-1.2-2.6-2.6-2.6h-25.3v5.3h25.3c1.4 0 2.6-1.2 2.6-2.7z"/>
					<path class="s2" d="m633.3 184.2c0-1.5-1.2-2.6-2.6-2.6h-17.7v5.3h17.6c1.5-0.1 2.7-1.3 2.7-2.7z"/>
					<path class="s2" d="m633.3 226.6h-22.9v25.4h7.7v-2.7h10.1v2.7h7.8v-22.7c-0.1 0 0.2-2.7-2.7-2.7zm-15.2 17.5v-12.2h10.1v12.2z"/>
				</g>
				<g>
					<path class="s2" d="m680.8 246.8h-7.8l3.3-9c0.3-0.8-0.1-1.7-0.9-1.9l-4.7-1.8-4.7 12.7h-10.9l-4.6-12.7-4.7 1.8c-0.8 0.3-1.2 1.2-0.9 1.9l3.3 9h-10.4v5.3h43c1.5 0 2.6-1.2 2.6-2.6 0-1.5-1.2-2.7-2.6-2.7z"/>
					<path class="s2" d="m677.7 214.2h-36.9v19.2h39.5v-16.8c0 0 0.2-2.4-2.6-2.4zm-29.1 14v-8.7h24v8.7z"/>
					<path class="s2" d="m638.4 211.5c3-1.9 5.8-4 8.2-6.2v4.1h25.3c1.5 0 2.6-1.2 2.6-2.6 0-0.7-0.3-1.3-0.7-1.8 1.9 2 3.9 4.1 6.3 6l5.4-4.4c-2.9-2.3-5.3-4.7-7.4-7l4.4-3c0.6-0.4 0.8-1.3 0.4-1.9l-2.3-3.5c-0.4-0.6-1.3-0.8-1.9-0.4l-4.8 3.2c-0.7-1.1-1.4-2.2-2-3.2l6.6-4.4c0.6-0.4 0.8-1.3 0.4-1.9l-2.3-3.5c-0.4-0.6-1.3-0.8-1.9-0.4l-5.8 3.9c-0.5-1.4-0.8-2.2-0.8-2.3-0.5-1.8-2.3-2.9-4.2-2.5-1.4 0.4-2.4 1.6-2.5 3-0.5-0.2-1.1-0.5-1.7-0.7-1.1-0.5-2.7-0.5-3.6-0.5h-17.6v5.3h13.8c-1 1.7-2.4 4-4.2 6.4l-3.6-3.7c-0.5-0.5-1.4-0.6-2 0l-3 2.9c-0.5 0.5-0.6 1.4 0 2l4.1 4.1c-2.3 2.3-4.9 4.6-8 6.6zm23.6-25.9c1.1 3.3 4.4 11.2 11.8 19.3-0.5-0.5-1.1-0.8-1.8-0.8h-24.1c8-7.6 12.8-16 14.1-18.5z"/>
				</g>
			</g>
		</g>
	</g>
</svg>
