<svg xmlns="http://www.w3.org/2000/svg" fill="none"><path fill="#0086ea" d="m67.398 43.107 12.507 12.718a.56.56 0 0 0 .396.163h15.638a.55.55 0 0 0 .514-.344.57.57 0 0 0-.118-.614l-20.34-20.668L88.5 21.644a.56.56 0 0 0 .12-.611.6.6 0 0 0-.12-.182l-7.815-7.95a.55.55 0 0 0-.603-.122.6.6 0 0 0-.179.122L46.295 47.08a.56.56 0 0 0-.124.622.6.6 0 0 0 .124.184l7.817 7.948a.55.55 0 0 0 .603.122.6.6 0 0 0 .179-.122l12.505-12.728Z"/><path fill="#ee282a" d="m66.634.165-12.132 12.34L42.364.164A.55.55 0 0 0 41.968 0H26.33a.55.55 0 0 0-.517.345.57.57 0 0 0 .12.615l19.972 20.288-4.3 4.372L16.58.166A.56.56 0 0 0 16.182 0H.556a.55.55 0 0 0-.513.346A.57.57 0 0 0 .16.96l41.056 41.75a.55.55 0 0 0 .395.17.55.55 0 0 0 .396-.17L83.05.96a.567.567 0 0 0-.396-.96h-15.64a.55.55 0 0 0-.395.165m25.806 0-7.442 7.57a.56.56 0 0 0-.163.397.57.57 0 0 0 .163.398l7.817 7.948a.55.55 0 0 0 .6.122.6.6 0 0 0 .18-.122L108.84.96a.568.568 0 0 0-.088-.866.55.55 0 0 0-.308-.094H92.805a.56.56 0 0 0-.395.165"/></svg>