<svg xmlns="http://www.w3.org/2000/svg" fill="none" viewBox="0 0 720 103"><path fill="#1a1a1a" d="M.178 100.739V10.022h12.96v21.513q0 8.035-.649 12.7-.518 4.536-1.944 7.776l1.685 1.685 40.823-43.674H70.55L31.28 50.456l-2.98 3.11-19.052 19.44 3.888-9.331v37.064zm59.873 0L23.116 53.825l8.943-9.071 44.97 55.985zM84.755 100.739v-70.15c0-11.36 9.208-20.567 20.567-20.567h43.583v11.923h-51.19v25.919h37.842v11.793H97.714v29.16h51.191v11.922zM186.949 100.739V62.767l-32.918-52.745h15.552l15.94 26.437q2.721 4.666 4.406 8.554t2.463 7.387h2.332q.39-1.555 1.037-3.37.648-1.815 1.426-3.758a57 57 0 0 1 1.814-4.277 2021 2021 0 0 0 2.462-4.665l14.904-26.308h15.422l-31.881 52.227v38.49zM237.81 100.739v-70.15c0-11.36 9.208-20.567 20.567-20.567h45.398v11.923H250.77v28.77h41.73v11.793h-41.73v38.231zM296.493 100.739l34.084-90.717h17.884l33.436 90.717h-14.515l-21.383-60.521a116 116 0 0 1-2.203-6.48q-.907-2.98-1.685-5.573a98 98 0 0 1-1.166-4.017 69 69 0 0 1-.648-4.147h-2.333a80 80 0 0 1-.907 4.406 190 190 0 0 1-1.166 4.665q-.778 2.463-1.685 5.314a168 168 0 0 1-2.074 5.832l-21.642 60.521zm18.273-23.975 4.147-11.923h40.175l4.147 11.923zM426.013 102.554q-13.737 0-23.846-6.35-10.109-6.351-15.422-17.237-5.184-10.886-5.184-24.364 0-13.09 5.573-23.716 5.702-10.627 15.811-16.589 10.108-6.09 23.068-6.09 11.016 0 19.31 3.887t13.348 9.98 7.128 12.959l-12.96 4.665q-1.555-4.795-4.665-9.201-2.98-4.407-8.554-7.387Q434.047 20 426.013 20q-9.072 0-16.07 4.147-6.869 4.147-10.757 11.923-3.758 7.775-3.758 18.402t3.758 18.921q3.888 8.165 10.757 12.83 6.998 4.536 16.07 4.536 11.793 0 18.014-5.572 6.22-5.703 9.201-15.163l12.7 4.924q-2.332 7.776-7.646 13.997-5.184 6.22-13.348 9.979-8.164 3.629-18.921 3.629M500.181 100.739V21.945h-32.139V10.022h78.146v11.923h-33.047v78.794zM594.404 102.554q-12.96 0-23.457-5.832-10.368-5.962-16.329-16.718-5.832-10.757-5.832-24.624t5.962-24.493q5.961-10.757 16.329-16.718t23.327-5.962 23.198 5.962q10.368 5.961 16.2 16.718 5.83 10.627 5.831 24.493 0 13.867-5.831 24.624-5.832 10.755-16.2 16.718-10.238 5.832-23.198 5.832m-.129-11.794q9.719 0 16.847-4.536 7.128-4.665 10.886-12.7 3.888-8.035 3.888-18.144t-3.888-18.143q-3.758-8.035-10.886-12.571-7.128-4.665-16.847-4.665t-16.848 4.665q-7.128 4.536-11.016 12.57-3.758 8.036-3.758 18.144 0 10.11 3.758 18.144 3.888 8.035 11.016 12.7 7.128 4.536 16.848 4.536M650.099 100.739V10.022h38.75q9.201 0 15.81 3.24 6.61 3.24 9.979 8.812 3.5 5.573 3.5 12.571t-3.111 11.793q-2.98 4.796-8.035 7.517-5.054 2.592-11.275 3.37v2.332q6.35.519 10.109 2.722 3.888 2.073 6.091 5.831t3.369 9.72l4.536 22.809h-14.126l-3.628-21.642q-1.038-5.832-3.5-9.202-2.333-3.498-6.479-5.054-4.018-1.555-10.239-1.555h-18.791v37.453zm36.806-49.117q7.905 0 12.7-3.758 4.925-3.758 4.925-11.145 0-7.388-4.795-11.016-4.796-3.758-12.83-3.758h-23.846v29.677z"/><path fill="#1a1a1a" d="M193.116 19.87 205.079.058h-23.911z"/></svg>