<svg xmlns="http://www.w3.org/2000/svg" viewBox="0 0 458 90"><title>Turkcell</title><path d="M45.2 0C20.3 0 .1 20.2.1 45v1.8c4.4-8.5 13-18.2 25.2-24.1v-.9c0-5.7 4.6-10.3 10.3-10.3 5.8 0 10.4 4.6 10.4 10.3s-4.6 10.4-10.4 10.4c-3.3 0-6.3-1.6-8.2-4.1C14.7 35.6 8.1 50.9 7.2 69.3q3.6 5.55 8.7 9.9c7.4-17.5 19.7-30 43.5-37.8q0-.2-.1-.4c0-5.7 4.7-10.4 10.4-10.4S80.1 35.3 80.1 41s-4.7 10.3-10.4 10.3c-3.4 0-6.5-1.6-8.3-4.2C43 55.6 31.2 74.5 30.7 87.6c4.6 1.6 9.4 2.4 14.5 2.4 24.9 0 45.1-20.1 45.1-45-.1-24.8-20.2-45-45.1-45" style="fill:#fec20d"/><path fill-rule="evenodd" d="M335.8 55.7q-1.4 8.5-7.1 13.1-5.4 4.5-13.4 4.5-8.9 0-15-6.1l-1.2-1.4c-2.9-3.1-5-7.1-6.2-11.7-.6-2.5-1-5.9-1-9.3 0-3.6.3-7.2 1.2-10.2 2.4-8 7-14.8 16.1-17.1q2.9-.7 6.1-.7 8.1 0 13.5 4.5 5.6 4.5 7 13h-11q-2-7.9-9.4-7.9c-3.3 0-6 .8-8.1 3-2.8 2.8-4.8 7.2-4.8 15.2 0 5.2.8 9.3 1.7 11.4.9 1.9 1.9 3.4 3 4.6 2.8 2.6 5.3 3 8.2 3q7.4 0 9.4-7.9zm122.1 16.8h-34.5v-55h10.8v45.4h23.7zm-39.3 0h-33.4v-55H396V63h22.6zm-40.3 0H342V17.4h36.3V27h-25.5v12.9h21.7v9.6h-21.7v13.4h25.5zm-84.6 0h-12.5L267 47.4l-7.1 8.5v16.6h-10.8v-55h10.8v23.9l19.4-23.9h13.1l-18.3 21.8zm-50.4 0h-12.5l-10.7-21.9h-7.8v21.9h-10.7v-55h21.6q8.2 0 13.1 5 4.8 4.7 4.8 11.8 0 5.5-3.1 9.5-2.7 3.5-7 5zm-13-38.2q0-3.2-2.2-5.2-2.1-2-5.6-2h-10.2v14.5h10.2q3.5 0 5.6-2 2.2-2 2.2-5.3m-36.5 19.3q0 8.6-5.8 14T173.5 73 159 67.6t-5.8-14V17.5H164v35.8q0 4.7 2.5 7.4 2.6 2.7 7 2.7t7-2.7 2.6-7.4V17.5h10.7zm-46.1-26.5h-14.4v45.4h-10.8V27.1h-14.4v-9.6h39.6z" style="fill:#217abf"/></svg>