<svg version="1.2" xmlns="http://www.w3.org/2000/svg" viewBox="0 0 458 90">
	<title>Turkcell</title>
	<style>
		.s0 { fill: #fec20d } 
		.s1 { fill: #217abf } 
	</style>
	<path id="Element" class="s0" d="m45.2 0c-24.9 0-45.1 20.2-45.1 45q0 0.9 0 1.8c4.4-8.5 13-18.2 25.2-24.1q0-0.4 0-0.9c0-5.7 4.6-10.3 10.3-10.3 5.8 0 10.4 4.6 10.4 10.3 0 5.7-4.6 10.4-10.4 10.4-3.3 0-6.3-1.6-8.2-4.1-12.7 7.5-19.3 22.8-20.2 41.2 2.4 3.7 5.3 7 8.7 9.9 7.4-17.5 19.7-30 43.5-37.8q0-0.2-0.1-0.4c0-5.7 4.7-10.4 10.4-10.4 5.7 0 10.4 4.7 10.4 10.4 0 5.7-4.7 10.3-10.4 10.3-3.4 0-6.5-1.6-8.3-4.2-18.4 8.5-30.2 27.4-30.7 40.5 4.6 1.6 9.4 2.4 14.5 2.4 24.9 0 45.1-20.1 45.1-45-0.1-24.8-20.2-45-45.1-45z"/>
	<path id="Turkcell" fill-rule="evenodd" class="s1" d="m335.8 55.7q-1.4 8.5-7.1 13.1-5.4 4.5-13.4 4.5-8.9 0-15-6.1-0.6-0.7-1.2-1.4c-2.9-3.1-5-7.1-6.2-11.7-0.6-2.5-1-5.9-1-9.3 0-3.6 0.3-7.2 1.2-10.2 2.4-8 7-14.8 16.1-17.1q2.9-0.7 6.1-0.7 8.1 0 13.5 4.5 5.6 4.5 7 13h-11q-2-7.9-9.4-7.9c-3.3 0-6 0.8-8.1 3-2.8 2.8-4.8 7.2-4.8 15.2 0 5.2 0.8 9.3 1.7 11.4 0.9 1.9 1.9 3.4 3 4.6 2.8 2.6 5.3 3 8.2 3q7.4 0 9.4-7.9zm122.1 16.8h-34.5v-55h10.8v45.4h23.7zm-39.3 0h-33.4v-55h10.8v45.5h22.6zm-40.3 0h-36.3v-55.1h36.3v9.6h-25.5v12.9h21.7v9.6h-21.7v13.4h25.5zm-84.6 0h-12.5l-14.2-25.1-7.1 8.5v16.6h-10.8v-55h10.8v23.9l19.4-23.9h13.1l-18.3 21.8zm-50.4 0h-12.5l-10.7-21.9h-7.8v21.9h-10.7v-55h21.6q8.2 0 13.1 5 4.8 4.7 4.8 11.8 0 5.5-3.1 9.5-2.7 3.5-7 5zm-13-38.2q0-3.2-2.2-5.2-2.1-2-5.6-2h-10.2v14.5h10.2q3.5 0 5.6-2 2.2-2 2.2-5.3zm-36.5 19.3q0 8.6-5.8 14-5.8 5.4-14.5 5.4-8.7 0-14.5-5.4-5.8-5.4-5.8-14v-36.1h10.8v35.8q0 4.7 2.5 7.4 2.6 2.7 7 2.7 4.4 0 7-2.7 2.6-2.7 2.6-7.4v-35.8h10.7c0 0 0 36.1 0 36.1zm-46.1-26.5h-14.4v45.4h-10.8v-45.4h-14.4v-9.6h39.6z"/>
</svg>