<svg xmlns="http://www.w3.org/2000/svg" viewBox="0 0 200 36"><path fill-rule="evenodd" d="M84.5 22.8c-.1 0 7.8 12.4 7.8 12.4h-9.6L71.1 16.8h8.1c3.5 0 4.8-1.9 4.8-4.3 0-2.3-1.3-4.3-4.8-4.3h-9.5v27h-8.4V.7h17.9c8.9 0 13.2 5 13.2 11.6 0 6-3.1 9.4-7.9 10.5M47.3.7h8.4v34.5h-8.4zM27.9.7l17.6 34.6h-9.7L24 11.6h-.1l-5.2 10.6h7.1l3.5 7.3H15.1l-2.8 5.8H2.8L20.4.7zm100.7 24.8c0 5.9-4.7 9.7-11.8 9.7H96.4V.7h19.7c6.9 0 11.1 3.7 11.1 9.3 0 3.5-1.4 5.8-4.1 7.3 3.3 1.2 5.6 4.2 5.5 8.2M104.8 14H116c1.7 0 3-1.3 3-3s-1.3-3-3-3h-11.2zm15.1 10.5c0-2-1.6-3.5-3.6-3.5h-11.5v7h11.5c2 0 3.6-1.5 3.6-3.5m35.4-4.5V.7h8.6v18.7c0 10.7-5.6 16.6-15.8 16.6s-15.8-5.9-15.8-16.6V.7h8.6V20c0 5.2 2.4 8.1 7.1 8.1 4.8 0 7.2-2.9 7.2-8.1zm41.8 5.2c0 6.8-5.2 10.8-13.9 10.8-6.2 0-12.4-1.4-16.6-3.6l2.6-7.4c3.8 2.1 8.5 3.4 13.8 3.4 3.7 0 5.5-.9 5.5-2.9 0-1.9-1.4-2.8-8.1-4.3-8.6-1.8-12.3-4.4-12.3-10.8 0-6 5-10.4 13.9-10.4 6 0 11 1.3 14.6 3.3l-2.7 7c-2.7-1.7-7.4-2.8-11.9-2.8-3.4 0-5.4.8-5.4 2.6 0 2.3 1.7 2.5 9.7 4.4 7.4 1.7 10.9 5.2 10.8 10.7" style="fill:#00205b"/></svg>