<svg xmlns="http://www.w3.org/2000/svg" version="1.2" viewBox="1.6 -0.8 7422.2 4055.31">
	<title>Data-Warehouse GmbH</title>
	<defs>
		<linearGradient id="g1" x2="1" gradientUnits="userSpaceOnUse" gradientTransform="matrix(0,-1310.59,1136.191,0,2630.09,3880.328)">
			<stop offset="0" stop-color="#ffed00"/>
			<stop offset="1" stop-color="#9e9e9f"/>
		</linearGradient>
		<linearGradient id="g2" x2="1" gradientUnits="userSpaceOnUse" gradientTransform="matrix(0,-245.957,910.811,0,4615.015,1854.082)">
			<stop offset="0" stop-color="#f3a19c"/>
			<stop offset="1" stop-color="#8f3332"/>
		</linearGradient>
		<linearGradient id="g3" x2="1" gradientUnits="userSpaceOnUse" gradientTransform="matrix(0,-1005.238,1509.257,0,4907.879,2794.347)">
			<stop offset="0" stop-color="#e5097f"/>
			<stop offset="1" stop-color="#e31e24"/>
		</linearGradient>
		<linearGradient id="g4" x2="1" gradientUnits="userSpaceOnUse" gradientTransform="matrix(0,-1053.508,1638.212,0,4615.016,3354.98)">
			<stop offset="0" stop-color="#e5097f"/>
			<stop offset="1" stop-color="#b2579c"/>
		</linearGradient>
		<linearGradient id="g5" x2="1" gradientUnits="userSpaceOnUse" gradientTransform="matrix(0,-333.219,1687.89,0,4542.614,3373.551)">
			<stop offset="0" stop-color="#e5097f"/>
			<stop offset="1" stop-color="#ffed00"/>
		</linearGradient>
		<linearGradient id="g6" x2="1" gradientUnits="userSpaceOnUse" gradientTransform="matrix(0,-2514.449,1300.374,0,3671.961,3712.32)">
			<stop offset="0" stop-color="#e5097f"/>
			<stop offset="1" stop-color="#393185"/>
		</linearGradient>
		<linearGradient id="g7" x2="1" gradientUnits="userSpaceOnUse" gradientTransform="matrix(0,-1796.976,1595.479,0,3522.528,3857.121)">
			<stop offset="0" stop-color="#e5097f"/>
			<stop offset="1" stop-color="#ffed00"/>
		</linearGradient>
		<linearGradient id="g8" x2="1" gradientUnits="userSpaceOnUse" gradientTransform="matrix(0,-2104.207,825.103,0,4666.055,3703.059)">
			<stop offset="0" stop-color="#ae4a84"/>
			<stop offset="1" stop-color="#e31e24"/>
		</linearGradient>
		<linearGradient id="g9" x2="1" gradientUnits="userSpaceOnUse" gradientTransform="matrix(0,-543.914,1530.358,0,2935.004,3109.946)">
			<stop offset="0" stop-color="#d5c41e"/>
			<stop offset="1" stop-color="#ffed00"/>
		</linearGradient>
		<radialGradient id="g10" cx="0" cy="0" r="1" gradientUnits="userSpaceOnUse" gradientTransform="matrix(328.341,0,0,328.341,2878.506,2725.24)">
			<stop offset="0" stop-color="#fddaad"/>
			<stop offset=".349" stop-color="#ef7f1a"/>
			<stop offset=".859" stop-color="#ef7f1a"/>
			<stop offset=".988" stop-color="#1c1b17"/>
			<stop offset="1" stop-color="#2b2a29"/>
		</radialGradient>
		<radialGradient id="g11" cx="0" cy="0" r="1" gradientUnits="userSpaceOnUse" gradientTransform="matrix(207.357,0,0,207.357,4081.757,1722.534)">
			<stop offset="0" stop-color="#f8cce1"/>
			<stop offset=".29" stop-color="#e31e24"/>
			<stop offset=".8" stop-color="#e31e24"/>
			<stop offset="1" stop-color="#2b2a29"/>
		</radialGradient>
		<radialGradient id="g12" cx="0" cy="0" r="1" gradientUnits="userSpaceOnUse" gradientTransform="matrix(285.898,0,0,285.898,4480.544,2537.538)">
			<stop offset="0" stop-color="#f8cce1"/>
			<stop offset=".278" stop-color="#793187"/>
			<stop offset=".878" stop-color="#714684"/>
			<stop offset="1" stop-color="#1c1b17"/>
		</radialGradient>
		<radialGradient id="g13" cx="0" cy="0" r="1" gradientUnits="userSpaceOnUse" gradientTransform="matrix(238.85,0,0,238.85,3719.222,2219.637)">
			<stop offset="0" stop-color="#f8cce1"/>
			<stop offset=".29" stop-color="#683387"/>
			<stop offset=".902" stop-color="#714684"/>
			<stop offset=".98" stop-color="#1c1b17"/>
			<stop offset="1" stop-color="#2b2a29"/>
		</radialGradient>
		<radialGradient id="g14" cx="0" cy="0" r="1" gradientUnits="userSpaceOnUse" gradientTransform="matrix(238.85,0,0,238.85,4164.731,3566.711)">
			<stop offset="0" stop-color="#f8cce1"/>
			<stop offset=".278" stop-color="#793187"/>
			<stop offset=".8" stop-color="#714684"/>
			<stop offset="1" stop-color="#1c1b17"/>
		</radialGradient>
		<radialGradient id="g15" cx="0" cy="0" r="1" gradientUnits="userSpaceOnUse" gradientTransform="matrix(238.85,0,0,238.85,5507.042,2639.096)">
			<stop offset="0" stop-color="#f8cce1"/>
			<stop offset=".278" stop-color="#793187"/>
			<stop offset=".859" stop-color="#714684"/>
			<stop offset="1" stop-color="#1c1b17"/>
		</radialGradient>
		<radialGradient id="g16" cx="0" cy="0" r="1" gradientUnits="userSpaceOnUse" gradientTransform="matrix(212.859,0,0,212.859,4918.521,1560.91)">
			<stop offset="0" stop-color="#f8cce1"/>
			<stop offset=".29" stop-color="#e31e24"/>
			<stop offset=".8" stop-color="#e31e24"/>
			<stop offset="1" stop-color="#2b2a29"/>
		</radialGradient>
		<radialGradient id="g17" cx="0" cy="0" r="1" gradientUnits="userSpaceOnUse" gradientTransform="matrix(213.945,0,0,213.945,3050.84,3746.61)">
			<stop offset="0" stop-color="#fefefe"/>
			<stop offset=".29" stop-color="#fae61b"/>
			<stop offset=".8" stop-color="#ffed00"/>
			<stop offset="1" stop-color="#1c1b17"/>
		</radialGradient>
		<radialGradient id="g18" cx="0" cy="0" r="1" gradientUnits="userSpaceOnUse" gradientTransform="matrix(183,0,0,183,3636.836,2997.092)">
			<stop offset="0" stop-color="#fefefe"/>
			<stop offset=".29" stop-color="#fae61b"/>
			<stop offset=".8" stop-color="#ffed00"/>
			<stop offset="1" stop-color="#2b2a29"/>
		</radialGradient>
		<radialGradient id="g19" cx="0" cy="0" r="1" gradientUnits="userSpaceOnUse" gradientTransform="matrix(185.375,0,0,185.375,2014.992,2505.173)">
			<stop offset="0" stop-color="#fefefe"/>
			<stop offset=".29" stop-color="#fae61b"/>
			<stop offset=".8" stop-color="#ffed00"/>
			<stop offset="1" stop-color="#1c1b17"/>
		</radialGradient>
		<radialGradient id="g20" cx="0" cy="0" r="1" gradientUnits="userSpaceOnUse" gradientTransform="matrix(273.003,0,0,273.003,2585.787,1949.714)">
			<stop offset="0" stop-color="#fefefe"/>
			<stop offset=".251" stop-color="#fae61b"/>
			<stop offset=".8" stop-color="#ffed00"/>
			<stop offset=".988" stop-color="#1c1b17"/>
			<stop offset="1" stop-color="#2b2a29"/>
		</radialGradient>
		<radialGradient id="g21" cx="0" cy="0" r="1" gradientUnits="userSpaceOnUse" gradientTransform="matrix(286.153,0,0,286.153,5374.501,3245.356)">
			<stop offset="0" stop-color="#f8cce1"/>
			<stop offset=".278" stop-color="#793187"/>
			<stop offset=".878" stop-color="#714684"/>
			<stop offset="1" stop-color="#1c1b17"/>
		</radialGradient>
		<radialGradient id="g22" cx="0" cy="0" r="1" gradientUnits="userSpaceOnUse" gradientTransform="matrix(489.59,0,0,489.59,2115.68,3424.774)">
			<stop offset="0" stop-color="#030a9d"/>
			<stop offset="1" stop-color="#000000"/>
		</radialGradient>
	</defs>
	<style>
		.s0 { fill: #2b2a29 } 
		.s1 { fill: url(#g1);stroke: #ffed00;stroke-miterlimit:22.925600051879883;stroke-width: 3 } 
		.s2 { fill: url(#g2);stroke: #e31e24;stroke-miterlimit:22.925600051879883;stroke-width: 3 } 
		.s3 { fill: url(#g3);stroke: #e31e24;stroke-miterlimit:22.925600051879883;stroke-width: 3 } 
		.s4 { fill: url(#g4);stroke: #e5097f;stroke-miterlimit:22.925600051879883;stroke-width: 3 } 
		.s5 { fill: url(#g5);stroke: #ffed00;stroke-miterlimit:22.925600051879883;stroke-width: 3 } 
		.s6 { fill: url(#g6);stroke: #393185;stroke-miterlimit:22.925600051879883;stroke-width: 3 } 
		.s7 { fill: url(#g7);stroke: #ffed00;stroke-miterlimit:22.925600051879883;stroke-width: 3 } 
		.s8 { fill: url(#g8);stroke: #e31e24;stroke-miterlimit:22.925600051879883;stroke-width: 3 } 
		.s9 { fill: url(#g9);stroke: #ffed00;stroke-miterlimit:22.925600051879883;stroke-width: 3 } 
		.s10 { fill: url(#g10);stroke: #d9dada;stroke-miterlimit:22.925600051879883;stroke-width: 3 } 
		.s11 { fill: url(#g11);stroke: #d9dada;stroke-miterlimit:22.925600051879883;stroke-width: 3 } 
		.s12 { fill: url(#g12);stroke: #d9dada;stroke-miterlimit:22.925600051879883;stroke-width: 3 } 
		.s13 { fill: url(#g13);stroke: #d9dada;stroke-miterlimit:22.925600051879883;stroke-width: 3 } 
		.s14 { fill: url(#g14);stroke: #d9dada;stroke-miterlimit:22.925600051879883;stroke-width: 3 } 
		.s15 { fill: url(#g15);stroke: #d9dada;stroke-miterlimit:22.925600051879883;stroke-width: 3 } 
		.s16 { fill: url(#g16);stroke: #d9dada;stroke-miterlimit:22.925600051879883;stroke-width: 3 } 
		.s17 { fill: url(#g17);stroke: #d9dada;stroke-miterlimit:22.925600051879883;stroke-width: 3 } 
		.s18 { fill: url(#g18);stroke: #d9dada;stroke-miterlimit:22.925600051879883;stroke-width: 3 } 
		.s19 { fill: url(#g19);stroke: #d9dada;stroke-miterlimit:22.925600051879883;stroke-width: 3 } 
		.s20 { fill: url(#g20);stroke: #d9dada;stroke-miterlimit:22.925600051879883;stroke-width: 3 } 
		.s21 { fill: url(#g21);stroke: #d9dada;stroke-miterlimit:22.925600051879883;stroke-width: 3 } 
		.s22 { fill: #0000ff;stroke: #000000;paint-order:stroke fill markers;stroke-linejoin: round;stroke-width: 10 } 
		.s23 { fill: #009846;stroke: #000000;stroke-miterlimit:22.925600051879883;stroke-width: 10 } 
		.s24 { fill: url(#g22) } 
		.s25 { fill: #676767;stroke: #000000;stroke-width: 29.3 } 
		.s26 { fill: #000000 } 
		.s27 { fill: #008000;stroke: #000000;paint-order:stroke fill markers;stroke-miterlimit:100;stroke-width: 20 } 
		.s28 { fill: #00ff00;stroke: #000000;paint-order:stroke fill markers;stroke-miterlimit:100;stroke-width: 20 } 
	</style>
	<path id="Data-Warehouse HmbH" fill-rule="evenodd" class="s0" d="m3265.6 253.6c41.2-58.7 115.3-89 185.9-80.2 58.4 3.8 120.2 39.2 135.1 99 16.9 57.1 14.6 117.3 20.3 176.1q8 115.1 16 230.2-42.7 3.2-85.4 6.5c-8.1-112.4-14.9-224.9-23.8-337.3-4.6-39.1-23-82.7-64.1-94.7-71.3-25.2-161.6 23.3-170.7 100.7-7.9 56.2 2.5 112.6 5.4 168.9q6.9 89.1 13.7 178.2-43.6 3.2-87.2 6.5-24.6-350.9-49.2-701.8 42.7-3.2 85.4-6.5 9.3 127.2 18.6 254.4zm723-81.7c69.6 5.6 124.4 32.5 165.2 79.8 41.8 49.2 60.4 114.2 53.9 194.9-4.7 65-16.7 115.1-40.9 150.4-20.4 36.2-53.9 64-91.9 80.7-38 20.4-80.7 26-124.3 23.3-69.7-4.7-128.1-31.6-166.2-78.9-39.9-47.4-56.6-115.1-52-200.5 6.5-93.8 38.1-163.4 91.9-204.2 39.8-30.1 87.4-46.6 141-46.6q11.5 0.1 23.3 1.1zm-36.5 71.9c-44.2 6.4-84.5 35.5-103.8 76.1-16.6 32.8-24.3 69.6-25.8 106.3-3.4 51.4-0.9 107.8 31.4 150.7 41.9 57.3 129.9 72.5 188.6 32.6 38.5-24.8 61.9-67.7 69.6-112.1 11.8-55.8 13.2-116.1-8.8-169.6-21.5-50.1-73.9-84.6-128-85.7q-11.6-0.2-23.2 1.7zm556.3 25.6c-31.7 104.1-64 208.1-95.3 312.4-8.9 34.3-20.6 77.6 8.1 106.2 24.4 27.9 60.2 45.4 97.7 43.5 33.6 2.9 67.7-8.4 91-33.3 25.8-31.2 40.2-70.5 52.6-108.8q38-125.2 76.1-250.4 40.4 12 80.7 24.1-74.2 244.1-148.5 488.2-37.1-12-74.2-24.1l22.3-67.8c-51.8 40.7-123.5 52.5-185.5 30.1-52.1-17.1-103.8-56-116.5-111.9-9.1-38.2-1-77.2 12-113.4 33.1-107 64.5-214.5 96.9-321.8q41.3 13.5 82.6 27zm-1614.9 33.9c80.5 27.7 133.9 103.6 157.6 182.3 3.3 15.6 7.9 28.5-12.1 29.3q-173.5 52.6-347.1 105.3c22 56.9 64.4 114.6 128.1 125.9 52.5 8.6 110.6-12.8 142.2-56.1 16.1-26.5 24.1-57.5 25.8-88.3q45-7.9 90.1-15.8c3.5 73.1-30.2 149-93.7 187.9-77.5 50.4-184.6 66.8-267 18-64.7-38.6-101.5-110.2-120.5-180.9-18.9-72.9-17.6-156.6 27.3-220.3 43.8-61.8 119.4-99.6 195-100 25.2-0.1 50.4 4 74.3 12.7zm-120.8 65.4c-38.1 11.1-67.8 35.2-85.4 66.8-18.6 34.3-22.3 74.3-11.1 115.1l271.9-83.5c-13.9-39.9-36.2-65.9-60.3-78.9-23.6-17.3-50.3-24.8-77.6-24.6-12.5 0.1-25 1.9-37.5 5.1zm-328.6 57.5q2.3 43.1 4.7 86.3c-25.6-1.8-54.1 0.4-75.7 15.2-18.1 13-32.3 31.8-34.7 54.5-5.1 33.7 7.4 67 17.5 98.6 16.6 45.5 39.6 88.3 59.4 132.5l65 139.2-77 36.2q-107.7-230.6-215.4-461.3 34.8-16.7 69.6-33.4 16.8 36.2 33.5 72.4c1.4-40.2 6.9-85.2 39.1-113.2 23.2-20.4 53.6-27.6 84-28.3 10.1-0.2 20.2 0.3 30 1.3zm2673 53.5c51.3 14.2 100.2 40.8 137.6 79 27.3 30.2 43.9 71.2 37.2 112.3-4.3 13.7 2.9 48.8-19.6 35q-34.4-10.4-68.7-20.9c13.4-36 1.6-80.2-31-101.9-31.9-24.4-71.8-40.6-112.2-40.4-32.1 1.1-61.4 32.6-52.6 65.3 11.1 34.8 44.1 55.3 69.8 78.9 44.5 36.8 93.5 71.2 125.5 120.2 21.6 33.7 23.2 77.3 6.4 113.3-25.3 56.5-87.8 94.2-149.7 88.6-47.1-1.4-92.2-17.3-132.8-40.4-48.8-25.5-96-65.1-107.9-121.4-8.5-34.8-5.3-71.5 4.9-105.5q41.3 13 82.6 25.9c-18.7 46.9-1.2 105.3 42.6 131.5 38.9 23.4 85.7 46.8 132 31.6 32-8.6 58.6-46.6 41.3-78.6-25-41.1-68-66.4-103.1-98-27.9-25.2-58.1-48.7-80.5-79-35.6-54.8-22.2-134.3 29.7-174.1 25.3-21.9 57.8-30.7 90.7-30.5 19.7 0.1 39.5 3.4 57.8 9.1zm-3058.4 215c44.3 43.6 71.5 100.6 108.1 150.3 34.2 49.7 67.1 100.8 106.6 146.4 14.8 11.9 60.2 27.2 22.8 41.4-25.2 12.4-51.5 50.9-76.9 19.5-9.8-7.6-18.7-16.2-26.7-25.5-17.1 70.6-61.3 135-125.1 171-42 27.9-96.1 43.8-145 24.5-74.4-24.9-114.5-117.8-81.6-189.2 34.6-78.5 115-119.5 169.7-181.9 19-18.3 42-40.5 15.1-62.9-20.6-29.9-59.3-48.2-95.1-35.9-51.7 12.7-102.5 46.7-122.9 97.3-11.6 27.6 10.2 63.2 2.7 85.4-23.7 7.7-53.6 34.6-73.4 30.1-29.3-57-19.6-129.3 21.1-178.3 40.6-53.6 99.2-92.4 161.5-116 17.3-6 36.3-9.5 55-9.5 31.3 0 62 9.6 84.1 33.3zm3518.6 62.3c120.8 7.4 229.2 120.8 218.4 243.8-4.4 62-34.4 118.9-71.5 167.4-29.9 0.2-53.3-36.4-80.9-50.1q-115.4-84.7-230.8-169.3c-34.3 52-55.2 123.2-22.5 181 31.4 57.9 106.9 97.3 170.3 68.5 15.5-6.3 30-14.9 43.4-24.9 19.1 21.9 53.3 44 63 65.6-65.3 56.7-167 64.8-240.4 18.9-67.1-37.1-127.1-100-135.7-179.2-10.9-85.1 31.5-167.4 87.7-228.6 46.5-52.6 112.8-94.2 184.6-93.7q7.2 0 14.4 0.6zm-3801.5 641l-63.1 63.2c-165.6-94.3-332.3-186.7-497.2-282.1-25.3-15.8-81.2-53.1-40.9-3.5 99.1 175.4 198.5 350.6 297.7 526l-67.8 67.7q-314.2-183.3-628.3-366.6 34.3-33.9 68.6-67.8c174.9 110.4 350.4 219.8 524.5 331.4-97.6-155.1-183.5-317.1-274.9-475.9q-19-33.6-37.9-67.1 39.4-40.4 78.9-80.8c143.7 81.7 290.2 158.7 431.3 245 29 15.1 112.8 80.7 103.1 67.1-110.4-172.8-215.3-349-322.8-523.7q33.9-34.3 67.8-68.7 180.5 317.9 361 635.8zm3741.9-551.3c-24.2 10.5-44.8 28.2-60.7 49.2l230.2 167.1c18.9-30.4 33.3-66.1 28.4-102.5-3.5-49.6-37.4-94.6-82.9-113.7-18.1-8.2-37.8-12.3-57.5-12.3-19.7-0.1-39.4 4-57.5 12.2zm-3536.8 129c-25 24.1-44.5 42.7-51.9 57.6-8.4 11.1-13 27.8-13 40.8 0 15.8 4.6 28.8 13 40.8 12 17.7 29.7 30.7 53.8 33.5 22.3 2.7 47.3-6.5 75.2-24.2 26.9-18.6 49.2-42.7 62.2-67.8 13.9-25 18.5-53.8 13.9-80.7-2.8-20.5-17.6-48.3-38.1-78.9l-16.7-26.9c-17.6 26.9-52.9 65-98.4 105.8zm4573.7 395.2c88.2 65.8 157.1 168.4 158.4 281.2-1.7 57.8-29.5 111.6-66 155.3q-34.8-27-69.7-53.9c37.7-45.1 61.1-108.6 39-166.1-17.1-72.2-72.6-131.5-136.4-166.8-50.1-28.1-111.3-22.5-165.2-10.7-96 32-180.7 101.6-227.4 191.7-29.6 60.2-21.4 131.2 7 190.1 39.7 88.9 124.8 150.9 217.6 175.3q52.9-41.3 105.8-82.6-63.1-80.3-126.2-160.6 32-25.5 64-51 91.9 116.9 183.8 233.9-102.6 81.7-205.1 163.4c-104.7-25.8-205.4-80.7-269.5-169.4-77-95.1-109-234.2-54.5-347.7 48.4-106.9 147.6-186.2 257.1-224.5 35.7-12.4 73.7-18.4 111.5-17.7 63 1.2 125.5 20.9 175.8 60.1zm-5448 460.6l-148.5 219.1-72.4-47.4 150.3-220.9zm5700.1 254.3q-33.9 14.8-67.8 29.7c74.4 10.7 138.5 69.9 152.2 144.2 10.2 45 0.9 98.3-35.2 129.7 80.3 10.6 150.9 76 160.5 157.6 11.4 58.4-20.6 117.4-71.5 145.8-58 31-119.7 54.8-179.4 82.5q-87.5 39.1-175.1 78.1-17.6-38.5-35.3-77c104.6-47.4 210.1-92.8 314-141.5 35.6-15.7 70.1-47.9 64.2-90.4-2.2-68-73.2-119.6-138.8-105.1-58.3 11.2-109.8 42.4-164.2 64.5q-81.7 36.4-163.4 72.9-17.6-38.5-35.2-77c108.1-48.9 217.1-96.1 324.7-146.1 34.1-17 62.9-53 53.4-93-10.4-59.1-71-108.8-131.9-94.9-71.8 12-135.5 49.6-202.2 76.9q-65.2 28.7-130.3 57.5-18.7-38.5-37.2-77 233.5-103.5 466.9-207 15.8 34.8 31.6 69.6zm-6083.3-16.9c51 16.4 96.8 45.1 145 68 57.8 28.3 114.2 60 174.4 83 16.2 9.8 53.6 2.1 58.8 12.3q-18.8 36.3-37.6 72.7c-21.9-0.1-44-3.4-64.1-12.1 14.5 60.7 16 127-13 183.9-23.1 52.5-61.5 107.5-121.7 118.9-59.7 11.5-125.9-19.8-154.7-73.2-26.9-56.5-15.5-123.6 7.6-179.3 20.5-51.8 38.2-105.5 46-160.8-31.7-28.1-84.8-38-119.2-8.6-38.2 32.1-64.1 80.1-68.7 129.9-2.5 36.8 22.8 67.3 48.7 90.3q-24.6 35.3-49.2 70.6c-56.4-36.7-84.9-108.4-70.9-174 13.1-69.9 46.9-136.4 96-188 23.8-23.6 56.5-37.3 89.6-37.8 11.1-0.1 22.2 1.2 33 4.2zm67.7 284.3c-13 32.4-19.5 59.4-19.5 72.4-1 17.6 1.8 31.5 10.2 45.4 7.4 11.2 16.7 20.5 31.5 28.8 18.6 9.3 39 9.3 61.3 2.8 20.4-7.4 39.9-27.9 55.7-58.5 13.9-29.7 20.4-59.4 20.4-90 0-27.9-9.3-54.8-26.9-76.1-11.1-16.7-38.1-34.4-71.5-50.2l-26.9-17.6c-2.8 35.3-13.9 82.6-34.3 143zm-333.3 198.6q-13.4 41.8-26.9 83.5c102.3 32.9 204.4 66.5 306.8 99 28.9 12.1 55.5-10.7 58.8-39.4 1.3-9 9.6-25.1 6.6-30.8q39 6.5 78 13c-6.6 45.2-16.1 92.5-46.6 128.2-22.6 23.9-58.2 27.8-88.7 19.5-62.1-14.2-121.7-36.9-182.5-55.7q-79.2-25.6-158.4-51.2-9.2 30.2-18.5 60.4-32.5-11.2-65-22.3 9.7-30.2 19.5-60.4-59.4-19-118.8-38-12.1-48.8-24.2-97.5 84.5 27.4 169 54.8 13.4-41.8 26.9-83.5 32 10.1 64 20.4zm6861.2 357.3q-123.4 26-246.9 52c52.8 25.1 91.4 76.3 99 134.4 12.5 72.2-16.2 150.6-75.9 194.3-43 31.4-92.5 53.9-145.3 62.7-80.6 16.3-174 9.4-235.6-50.9-61.2-55.5-91.5-152.5-49.9-228.1 3.9-15.9 45.2-46.8 10.7-34.2q-21.9 5-43.9 9.9-8.8-39.4-17.6-78.9 344.3-72.3 688.7-144.7 8.3 41.7 16.7 83.5zm-6785.7 19.9c63.5 11.7 126 29 190.2 36.6 22 3.3 54.1-6.1 68.8-6.2q-9.5 42.2-18.9 84.3c-20.9 6.4-43.3 7-64.9 4.7 36.3 62.1 49.5 138 31.1 208.1-11.3 55.2-46.2 110.3-102.5 127.3-71.4 22.2-158.7-19.2-178.9-92.9-22.9-66.7-2.8-136.6-2.1-204.8 0.9-28.4 1-56.8-2-85.1-33.2-7.8-73.7-17.8-101.9 8.1-44 38.8-56.4 103-49.6 159 6 35.8 39.6 58.2 69.9 73.3l-30.7 81.7c-52.3-19.8-96.6-63.9-107.1-120.1-13.7-69.1-1.6-141.7 25-206.2 17.7-43.2 52.6-87.2 102.3-91.7q10.9-1 21.8-0.9c50.6 0.5 99.8 16.1 149.5 24.8zm6350.4 63.6c-59.4 13-102.1 31.6-124.4 51.1-38 36.2-52 77.1-42.7 124.4 9.3 36.2 31.6 66.8 67.8 87.3 39.9 18.5 90 23.2 151.3 11.1 65-14.9 112.3-38.1 134.6-71.5 26.9-33.4 35.2-69.6 28.7-105.8-8.3-36.2-30.6-65-69.6-85.4-23.8-11.6-51.9-17.8-83.9-17.8-19.2-0.1-39.9 2.1-61.8 6.6zm-6363.1 183.4c-2.3 29.3-6.1 60.3 5.1 88.3 6.5 15.1 19.1 26.5 32.3 35.8 24.4 16 59.2 14.3 80.8-5.8 22.9-14.1 31.8-41.3 38.8-65.9 8.4-35.3 6.6-73.5-6.1-107.7-11.9-31.1-36.6-57-67.7-69.3-19-8.6-39.6-12.7-59.8-17.2q-13.4-4.1-26.8-8.2c6.2 49.7 6 100 3.4 150zm-27.7 275.8c42.8 12.4 76.5 29.6 104.6 47.7 27.2 20.1 47 42.1 63.2 66 14.2 23 27.6 51.5 32.7 83 7.9 33.3 12.2 72.3 12.8 115l-1 251.5-703.6-0.9 1.1-241.4c-0.8-55.7 5.1-96.6 11.2-125.5 8.7-40 26.7-76.5 50.5-103.8 31-36.6 71.4-65 118.5-82.4 49-17.4 107.3-27.6 169.5-27.5 52.9 1.1 101.3 5 140.5 18.3zm6929 78.5l-288.7 0.6 1.3 363.9 288.7-0.5 0.6 92.8-703.7 1.2 0.4-92.8 331.4-0.9-1.3-363-331.4-0.1-0.6-93.7 703.7-0.3zm-7167 12.7c-65.3 11.5-124.8 56.6-150.6 118-19.4 60.6-13.7 125-16.8 187.7q-0.9 37.5-1.9 74.9 269.7 4.2 539.3 8.3c0.6-64.4 4-128.8 1.7-193.2-1-34.9-7.3-69.8-24.7-100.5-23.5-45.1-72.2-68.9-118.7-83.4-45.9-14.6-94.1-21-142.3-20.3-28.9 0.4-57.7 3.4-86 8.5z"/>
	<g id="Page 1">
		<path id="Path 2" class="s1" d="m3198.2 3819.1l-61.3 61.3-22.3-14.9-1041.5-397.3v-857.6l-11.1-40.8h86.4l-10.2 40.8v813.1l1000.6 380.5z"/>
		<path id="Path 3" class="s2" d="m5070.3 1684.3h-34.4l-831.6 157.8-44.6 12v-76.1h33.4l832.6-157.8 44.6-12z"/>
		<path id="Path 4" class="s3" d="m4153.3 1829l78.8-39.9 10.2 39 435.3 762 949.6 129h35.3v75.2l-43.6-11.1-981.2-131.8-452.9-790.8z"/>
		<path id="Path 5" class="s4" d="m5434.1 3297.4l-57.5 57.6-22.3-33.4-726.8-672-772.2-272-59.4-14.8 61.2-61.3 22.3 14.9 781.5 276.6 738.9 682.2z"/>
		<path id="Path 6" class="s5" d="m5386.8 3373.6l-42.7-12.1-1611.3-245.1h-34.3v-76.1l42.6 11.1 1611.3 246h34.4z"/>
		<path id="Path 7" class="s6" d="m4263.7 3654.8l58.5 57.6h-98.4l-10.2-15.9-535.6-624.6-656.2-1874 767.6 1084.1 24.1 24.1-56.6 55.7-21.3-41.8-498.5-705.4 498.5 1423.8z"/>
		<path id="Path 8" class="s7" d="m3089.6 2858.4l111.3 926.3 1076.7-111.4 42.7-10.1v75.1h-35.2l-1140.8 118.9-117.9-982.1-286.8-731.4-14.8-22.3 61.2-61.2 14.8 59.4z"/>
		<path id="Path 9" class="s8" d="m5078.6 1660.1l-14.8 22.3-734.2 1961.2-14.9 59.4-61.2-61.2 14.8-22.3 734.2-1961.3 14.9-59.4z"/>
		<path id="Path 10" class="s9" d="m2169.7 2653.3v-87.3l48.3 24.1 1450.8 432.6h31.5v87.3l-48.3-24.2-1450.7-432.6z"/>
		<path id="Path 11" class="s10" d="m3056.1 2583.7c124.6-1.7 249.8 73.4 296.8 190.5 41.1 96.7 19.1 214.8-51.8 291.8-92.6 105.6-255.5 136.1-382.3 78.1-101.3-43.8-178.1-145.7-180-257.7-4.4-110.8 65.4-216 163-265.3 47.4-24.7 100.9-37.5 154.3-37.4z"/>
		<path id="Path 12" class="s11" d="m4195 1614.6c79-1 154.4 50 185.4 122.3 33.8 74.8 18.8 168.9-38.2 228.4-52.1 57.3-138.9 79.6-211.9 53.3-78.9-26.5-135.5-105.2-137.5-188-4.2-81.8 44.2-163.8 119.1-197.6 26-12.1 54.5-18.4 83.1-18.4z"/>
		<path id="Path 13" class="s12" d="m4644.3 2396.2c126.6-2.5 253.6 84.3 284.8 209.4 25.1 96.3-13 203.8-90.7 265.4-107.7 89.5-277.7 91.2-385.9 1.8-74-58.5-115.4-157.8-96.5-251.3 19.7-105.1 107-190.4 209.9-215.4 25.6-6.6 52-10 78.3-9.9z"/>
		<path id="Path 14" class="s13" d="m3847.8 2106.6c102.1-1.9 197.7 74 222.9 172.3 26.2 93.4-10.3 201.3-90.4 257-73.4 53-178.8 56.8-254.5 6.5-79-50.2-122-149.5-104.8-241.5 15.4-91.2 88.2-171.1 179.7-189.3 15.5-3.4 31.3-5 47.1-5z"/>
		<path id="Path 15" class="s14" d="m4294.4 3453.3c89.5-1.2 174.8 57 209.8 138.9 39.4 86.7 20.4 196-47.1 263.5-58 61.2-151.5 85-231.6 58.5-89.6-27.4-155.9-113.8-161.6-207-8.1-91.9 42.6-186 125-228 32.4-17 68.9-25.9 105.5-25.9z"/>
		<path id="Path 16" class="s15" d="m5636.5 2526.1c89.6-1.2 174.9 56.9 209.9 138.8 39.3 86.7 20.3 196-47.2 263.5-58 61.2-151.4 85-231.6 58.6-89.6-27.4-155.9-113.8-161.5-207.1-8.2-91.8 42.6-185.9 125-228 32.4-17 68.9-25.9 105.4-25.8z"/>
		<path id="Path 17" class="s16" d="m5032.3 1469.8c81.3-1 158.6 53.5 188.1 128.8 31.3 75 13 167.3-44.7 224.5-51.9 54.2-135.2 75-206.3 50.6-78.4-25.1-136-101.6-140-183.6-6.2-80.8 39.7-162.8 112.5-198.8 27.9-14.1 59.1-21.5 90.3-21.5z"/>
		<path id="Path 18" class="s17" d="m3156.3 3639c79.8-1.1 155.9 50.8 186.4 124.2 33.5 75.8 16.2 170.6-42.6 229.1-53.5 56.1-140.9 76.2-213.3 48.1-78.4-28.4-133.8-108.4-133.7-191.7-2.2-83.5 51.3-164.9 129.1-195.3 23.5-9.5 48.8-14.4 74.1-14.4z"/>
		<path id="Path 19" class="s18" d="m3736.5 2910.4c68.8-0.9 134 43.9 160.8 106.8 29.8 65.6 15.9 148.3-34.6 199.9-44.9 48.3-118.4 67-180.9 45.5-69-22-119.7-89.6-122.4-161.9-4.6-72.9 39.4-145.9 106.3-175.1 22.1-10 46.4-15.2 70.8-15.2z"/>
		<path id="Path 20" class="s19" d="m2121.4 2418.4c68.8-0.9 134 44 160.8 106.8 29.8 65.6 16 148.3-34.6 199.9-44.9 48.4-118.3 67.1-180.8 45.6-69-22.1-119.7-89.7-122.4-162-4.7-72.9 39.3-145.8 106.3-175.1 22.1-10 46.4-15.2 70.7-15.2z"/>
		<path id="Path 21" class="s20" d="m2718.3 1824.4c100.4-1.3 196.3 64.2 234.7 156.5 41.9 94.5 21 212.7-51.6 286.5-65.9 70.6-173.9 97.6-265.1 64.9-98.3-32.9-169.2-130.4-173-233.7-6.4-101.6 52.1-204.2 144.2-248.4 34.3-17 72.5-25.8 110.7-25.8z"/>
		<path id="Path 22" class="s21" d="m5539.1 3104.3c115.6-1.4 231.8 68.8 274.4 178 37 89.7 14.8 198.4-51.4 268.6-83.3 92.9-226 121.3-340.3 73.8-96.1-37.6-171.1-130.7-175.7-235.3-6.8-99.5 52.2-196 138.1-244 46.8-27.1 100.8-41.1 154.8-41.1z"/>
		<path id="World" class="s22" d="m3124.7 1153.8c-94.3 1.8-187.6 48.8-241.5 127.1-72.2 99.7-66.9 244.2 6.4 341.7 71.3 99 206.8 142 322.9 107.5 124.2-33.8 216.5-156.7 214-285.3q0-13.1-1.2-26.1c-9.4-121.3-105.1-226.5-222-255.4-25.8-6.9-52.2-10-78.6-9.5z"/>
		<path id="Map" fill-rule="evenodd" class="s23" d="m3148.9 1226.7l32.5-6.5h7.4l19.5 19.5 13 13.9 26.9-6.5h6.5l13 6.5h46.5l26 6.5 6.5 6.5v13l-19.5 6.5-13 6.5 6.5 6.5-13 7.4v19.5l-14 13v-46.4l-13 13.9-6.5 6.5-6.5-13.9-6.5 13.9v13h6.5v13l-6.5 20.4-13 13 6.5 6.5v13h-6.5v-13h-7.4l-6.5 6.5 6.5 19.5v20.4l-6.5 19.5-19.5 6.5h-13l6.5 13v13.9l-13 19.5-13.9-13v13l7.4 13 6.5 13-13.9-13-13-46.4-19.5-13h-13l-20.4 33.4v6.5l-6.5 19.5h-6.5l-19.5-39v-20.4l-6.5 6.5h-13.9l6.5-13-19.5-6.5-19.4-6.5-27-13v13l13 6.5 7.4 6.5h6.5l-20.4 19.5h-13v-6.5l-13-19.5-12.9-13-7.5-6.5v6.5l14 13 6.4 19.5 6.5 6.5v7.4l13 6.5 13-6.5-6.5 26-19.5 13v6.5l-6.5 13.9v13h6.5l-6.5 13-12.9 19.5v7.4h6.5l-6.5 6.5h-7.5v13l-6.5 6.5-26 13v-13l-6.5-13-6.5-6.5v-13.9l-6.5-13 6.5-13-6.5-6.5 6.5-6.5h-6.5l-7.4-26.9v-13l-13-6.5h-26l-6.5 6.5-7.4-6.5-6.5-13-6.5-13.9v-6.5l6.5-13v-13l6.5-6.5 7.4-6.5 6.5-13.9 13-13v-6.5l19.5 13 13.9-6.5v13h13v6.5l6.5 7.4 6.5-7.4 19.5 7.4v-7.4h6.5l7.5-6.5h6.5v-13h-14l-6.5-6.5 6.5-6.5 7.5-6.5h12.9l-6.4-6.5h-14l7.5-6.5h6.5v-7.4l-6.5 7.4h-7.5l-6.5 6.5v6.5l6.5 6.5h-13v13h-6.5l-6.5-6.5v-13l-6.5-6.5h-6.5l6.5 13 6.5 6.5h-6.5l-13-13v-6.5h-13.9l-13 19.5h-6.5l-6.5-6.5v-19.5h13v6.5l6.5-6.5v-7.4l-6.5-6.5h13l7.3-6.5h0.1v-0.1l6.5-6.4h6.5v-6.5l6.5 6.5v6.5l6.5-6.5v6.5l6.5-6.5v-6.5h6.5v-6.5h-6.5v-13l6.5-7.4v-6.5h-6.5l-6.5 6.5v26.9l-6.5 6.5v-13h-13v-13h6.5l6.5-7.4 6.5-13 6.5-6.5 13-6.5 14 6.5 6.5 6.5-6.5 6.5-7.5-6.5 7.5 13 19.4-6.5 13-6.5h6.5l6.5 6.5 20.4-19.5 26-13 39.9-13-6.5-20.4 32.5-6.5zm-237.6 112.2l-0.1 0.1-13.8-0.1v-6.5h6.5zm-13.9-6.4h-13l6.5-6.5h6.5zm0-13l6.5-6.5v13h-6.5zm99.3-39.9l13-19.5h14l-14 6.5v6.5l-6.5 6.5v6.5zm244.2 224.6l-6.5 26.9h-19.5v-13.9l6.5-6.5 13-19.5zm-118.9 13l-6.4 6.5v-13l6.4-6.5zm158.8-6.5l26.9 13h-6.5v7.4l13 19.5-20.4-19.5h-6.5l-19.5-13.9v-6.5zm-91.9 13l13 13.9v6.5h-13l-20.4-26.9zm26 26.9h46.4l-46.4 13-13-19.5zm-211.7 33.4h-13v-7.4l6.5-6.5-6.5-6.5v-6.5h6.5l6.5-13zm290.6-33.4l7.4 13v6.5l6.5-6.5v-13l6.5 6.5v6.5l6.5 6.5v6.5l6.5 7.4v6.5h6.5v26h-6.5v20.4h-13l-13-7.4v-6.5h-13.9v-6.5l-6.5-6.5-6.5 6.5h-19.5v6.5l-6.5-6.5v-6.5l-7.5-6.5v-19.5l7.5-7.4h6.5l6.5-6.5v-6.5l6.5-6.5 6.5 6.5h6.5v-6.5h6.5v-6.5zm86.3 39.9v13l-13 13-6.5 13-7.4-6.5v-6.5l7.4-6.5 13-13v-13zm-59.4 52.9v13h-6.5v-13zm-396.4-251.5h6.5z"/>
		<path id="Screen" class="s24" d="m2410 3212v443.3h-566v-443.3z"/>
		<path id="Computer" fill-rule="evenodd" class="s25" d="m1770.6 3140.6h707.3v647.9h-707.3zm73.3 509.6h568v-436.3h-568zm528.2 98.4v26.9h26.9v-26.9zm-601.5-19.5h707.2"/>
		<path id="Stand" class="s26" d="m1889.8 3869.3l0.8-8.9 59.6-19.4 59.6-19.3 0.1-9.4 0.1-9.4h236.2v9.4l0.1 9.4 54.6 18.9 54.6 18.8 1.6 18.8h-468z"/>
		<path id="Chart dark" class="s27" d="m2262.9 3400c-47.3 50.4-86.1 91.8-86.2 92.1-0.1 0.3 12.6 0.6 28.2 0.6h28.3l161.8-172.2v-12.1h-46.1zm-357.2 142.6l-17.2 23.8 59.9 0.1c12.5-14.8 15.2-18.5 14.8-18.8-0.4-0.3-9.3-6.8-19.8-14.5-10.5-7.6-19.4-14-19.8-14.1-0.3-0.1-8.4 10.5-17.9 23.5zm130.1-44.8c-23 29-41.9 53-42 53.3-0.1 0.3 12.7 0.6 28.5 0.6h28.6c47.5-63.4 61.5-82.2 61.7-82.6 0.2-0.5-6.3-5.3-16.9-12.2-9.4-6.3-17.3-11.5-17.6-11.6-0.3-0.1-19.3 23.5-42.3 52.5z"/>
		<path id="Chart" class="s28" d="m2347.7 3298.4c1.3 1.3 2 1.4 24.3 1.3 22.5 0 23 0 23-1.3 0-1.3-0.5-1.4-24.3-1.4h-24.3zm-28.2 16.9c-8.4 9-19.2 20.5-24 25.6-4.8 5.2-10.9 11.6-13.5 14.4-2.6 2.8-16.6 17.7-31.1 33.2-14.5 15.5-28.5 30.4-31.1 33.2-2.6 2.8-17.1 18.2-32.2 34.3-15.2 16.2-27.7 29.3-28 29.3-0.3 0-3.8-2.4-7.7-5.3-4-2.9-23.5-17.2-43.4-31.8-19.9-14.6-36.4-26.5-36.7-26.5-0.3 0-5.7 7-12.1 15.6-6.3 8.5-15 20.2-19.2 25.9-4.3 5.7-12.7 17-18.8 25.2-6 8.2-16.3 22.1-22.7 30.8-6.5 8.8-12.5 16.8-13.4 17.8l-1.7 1.9c-49.9-36.3-64.5-46.6-64.8-46.4-0.2 0.3-6.7 9.6-14.3 20.6-7.7 11.1-15.2 21.9-16.7 24.2-1.5 2.2-5.9 8.4-9.6 13.9-3.8 5.4-6.9 10.2-6.9 10.7 0 0.4 0.9 1.6 1.9 2.6 1 1.1 2.2 1.9 2.7 1.9 0.4 0 9.8-14.2 20.7-31.5 11-17.3 20.3-31.4 20.6-31.2 0.4 0.1 7.5 5.1 15.8 11.1 8.3 6 16.7 12.1 18.6 13.5 1.9 1.4 5.1 3.7 7 5.2 2 1.4 8.1 5.8 13.6 9.8 9.7 7 10.1 7.1 11 5.9 0.6-0.8 4.2-5.4 8.1-10.2 3.9-4.9 9.6-12.2 12.7-16.1 3.1-4 16.5-20.9 29.8-37.7 13.2-16.7 27.9-35.3 32.7-41.2 4.7-6 8.7-10.9 8.9-10.9 0.2 0 20.1 13.1 44.2 29.1 24.1 16 44.2 29.1 44.5 29 0.4-0.1 4.4-4.3 8.9-9.2 4.5-5 14.3-15.7 21.6-23.8 7.4-8.1 15-16.4 16.8-18.4 1.9-2.1 6.8-7.3 10.8-11.8 4-4.4 13.3-14.7 20.6-22.8 7.4-8.1 13.6-14.8 13.8-15 0.2-0.2 6.4-7 13.8-15 7.3-8.1 16.7-18.4 20.7-22.8 4.1-4.5 14.9-16.4 24.1-26.5 9.2-10.1 18.1-19.8 19.6-21.4 2.7-2.9 2.8-3.1 1.7-4.2-0.7-0.7-1.4-1.2-1.6-1.2-0.3 0-7.3 7.3-15.7 16.2zm-233.4 105.3c0.5 0.5 16.9 12.6 36.3 26.8 19.4 14.2 35.6 25.9 35.9 26 0.3 0.1 5.9-5.4 12.4-12.4 6.5-6.9 11.7-12.7 11.6-13-0.1-0.3-9.6-6.8-20.9-14.4l-20.7-13.9c-51.5 0-55.5 0.1-54.6 0.9zm-152.3 69.9c-0.3 0.3 0.3 1.1 1.3 1.9 1 0.7 12.1 8.8 24.6 17.8l22.8 16.6c4.7-6.4 9.1-12.4 12.9-17.5 3.8-5.1 6.9-9.5 6.9-9.7 0-0.3-3.3-2.6-7.4-5.1l-7.3-4.5c-41.4 0-53.6 0.2-53.8 0.5z"/>
	</g>
</svg>