<svg xmlns="http://www.w3.org/2000/svg" viewBox="0 0 2118 485"><title>DigiSign.ID</title><style>.s0{fill:red}.s1{fill:#000}</style><g id="Background"><path id="Path 1" fill-rule="evenodd" d="M379 .5c12.2.3 20.2 1 26.5 2.3 4.9 1.1 13.3 3.4 18.5 5.1 5.2 1.8 13.5 5.3 18.5 7.9s12.1 6.9 16 9.5 10.3 7.5 14.2 10.9c4 3.5 10.2 9.7 13.9 13.8 3.6 4.1 9 11.1 11.9 15.5 3 4.4 6.4 10.3 7.6 13 1.7 3.9 2.1 6.4 1.8 11.2s-1 7-3.5 10.5c-1.6 2.3-4.3 5.2-6 6.3-1.6 1.1-7.2 3.5-12.4 5.4-5.2 1.8-13.1 5.1-17.5 7.3s-11.8 6.6-16.4 9.7c-4.7 3.1-13.6 10.5-19.9 16.6s-15.3 15.7-19.9 21.5-15.4 20.4-24 32.5-19.9 27.6-25.2 34.5-14.8 17.8-21.1 24.4c-6.3 6.5-14.4 14.2-18 17.1s-9.6 7.3-13.5 9.9-10.8 6.6-15.5 9c-4.7 2.5-12.1 5.9-16.5 7.6s-13.2 4.5-19.5 6.1c-6.3 1.7-11.6 3.2-11.8 3.5-.1.2 1.5 1.3 3.5 2.3 2.1 1.1 5 3.2 6.5 4.8 1.5 1.5 3.4 4.5 4.2 6.5.9 2.1 1.6 6.3 1.6 9.3 0 3.7-.8 7.1-2.3 10.2-1.2 2.5-3.6 5.8-5.2 7.1-1.6 1.4-8.2 5-14.5 8-6.3 2.9-16.2 7.4-22 9.9s-16.4 6.4-23.5 8.8-18.6 5.5-25.5 6.9-18.1 3-25 3.6c-9 .8-16.1.8-25.5 0-7.2-.6-18.6-2.2-25.5-3.6S78.5 382 68 379l-5.9 13.8c-3.3 7.5-7.4 17.3-9.2 21.7-1.7 4.4-3.9 11.1-6.7 22l2.2.9c1.1.6 9.1 1 17.6 1 8.6-.1 21-.8 27.7-1.7 6.8-1 14.5-1.7 17.3-1.7 2.7 0 6.5.6 8.2 1.3 1.8.8 4.8 2.7 6.7 4.3 1.8 1.6 4.3 4.7 5.4 6.9 1.4 2.7 2 5.9 2 10s-.6 7.2-2 10c-1.2 2.2-3.4 5.2-5 6.6-1.5 1.5-4.4 3.4-6.3 4.4s-10 2.6-18 3.8c-10.5 1.4-20.3 2-35.5 2.1-16.9 0-22.3-.3-27.8-1.7-3.7-.9-9.7-3.1-13.5-4.8-4-1.8-8.9-5.2-12.2-8.4-3-2.9-6.7-7.8-8.3-10.9-1.5-3.1-3.2-8-3.8-10.9-.7-3-.9-8.9-.6-14.2.3-4.9 1.6-12.6 2.7-17 1.2-4.4 4-12.5 6.1-18 2.2-5.5 7.6-18.3 12.1-28.5 5-11.5 7.9-19.3 7.5-20.5-.3-1.1-2.6-8.1-5.1-15.5-2.6-7.4-6-18.9-7.6-25.5s-3.7-16.1-4.6-21c-.9-5.3-1.8-17.3-2.1-29-.4-12.8-.1-23.6.6-30 .7-5.5 2.1-14.1 3.2-19s3.8-14.4 6-21 6.5-17.2 9.5-23.5c3.1-6.3 7.7-15.1 10.4-19.5 2.9-4.9 6.3-9 8.6-10.7 2.2-1.5 6.1-3.2 8.9-3.9 3.8-.9 6.2-.9 10-.1 3.3.8 6.6 2.5 9.5 5 2.5 2.1 5.5 5.5 6.7 7.5 1.3 2 2.6 3.7 3 3.7.5 0 1.6-3.3 2.7-7.2 1-4 3.6-11.8 5.8-17.3s5.8-13.4 8.1-17.5 7.4-11.8 11.3-17 10.9-13.1 15.5-17.5 12.2-11 16.9-14.6 17.3-12.6 28-19.9c10.7-7.4 21.1-14 23-14.7 1.9-.6 5.1-1.2 7-1.3 1.9 0 5.1.4 7 1 1.9.5 4.9 2 6.7 3.2 1.7 1.3 4.3 3.9 5.7 5.8s3.1 5.7 3.6 8.5c.9 4.2.7 6.8-1.4 16.5-1.4 6.3-2.4 11.6-2.1 11.7.3.2 3.3-2.1 6.7-5 3.5-3 11.1-8.9 17-13.3 5.9-4.3 15.3-10.8 21-14.3 5.7-3.6 14.8-8.8 20.3-11.6s14.9-7.1 21-9.4c6.1-2.4 15.9-5.6 22-7.2s15.3-3.6 20.5-4.4c6.6-1 14.8-1.3 27-1M335.5 53c-6.6 2.2-17.6 6.7-24.5 10.2s-17.7 9.7-24 14c-6.3 4.2-16.4 11.6-22.5 16.5-6 4.8-17.7 15.3-25.9 23.3s-21 21.5-28.5 30c-9.7 11.1-14.9 16.1-18.1 17.8-3 1.5-6.3 2.2-10 2.2-4.1.1-6.9-.7-11-2.8-4.3-2.2-6.2-3.9-8.8-8.2-2.6-4.4-3.2-6.6-3.2-11 0-3 2-14.7 4.5-26s4.4-20.6 4.3-20.8c-.2-.1-4.4 4-9.3 9.1-5.3 5.5-10.9 12.7-13.6 17.3-2.6 4.4-5.9 11.1-7.4 14.9s-3.5 10.4-4.6 14.5c-1 4.1-2.3 11.3-2.9 16-.7 4.9-1 18.1-.9 31 .3 21.2.2 22.7-1.8 26.5-1.2 2.2-3.4 5.2-5 6.6-1.5 1.5-4.1 3.3-5.8 4.2-1.7.8-4.6 1.7-6.5 2.1s-5.6.2-8.3-.4c-2.6-.5-6.3-2-8.2-3.3-2.2-1.4-8.1-8.6-15.8-19.6-6.7-9.5-12.4-17.5-12.7-17.7-.3-.1-1.5 2.9-2.8 6.9-1.2 4-3.2 11.7-4.4 17.2-1.8 8.3-2.2 13.2-2.1 28.5 0 14.4.5 21 2.1 30 1.1 6.3 3.6 16.9 5.5 23.5s4.8 15.4 6.4 19.5l2.8 7.4c12.4 3.5 21.4 5.8 28 7.3 10.7 2.4 14 2.7 31 2.8 14.8 0 20.9-.4 27.5-1.8 4.7-1 13.6-3.5 19.9-5.5l11.5-3.7c-10-7.9-15.8-13.4-19.4-17.2s-7.7-8.7-9.2-10.9c-1.5-2.1-3.3-6.4-3.9-9.4-.9-4-.9-6.6-.1-9.5.6-2.2 2.1-5.6 3.4-7.4 1.3-1.9 4.3-4.9 6.6-6.5l4.4-3.1c52.1-.1 58.8-.4 65.8-1.9 4.7-1 12.6-3.1 17.5-4.7s12.6-4.7 17-7c4.4-2.2 11.6-6.6 15.9-9.7 4.4-3.1 12.3-10 17.5-15.3 5.3-5.2 13.8-14.9 18.8-21.5 5.1-6.5 15.7-21 23.5-32.1 7.9-11.1 18.4-25.5 23.4-32 5.1-6.5 14.1-17 20.1-23.3 6.1-6.3 15.2-14.9 20.4-19.1s13.2-10.2 17.9-13.2 10.6-6.6 13.3-7.8c2.6-1.3 4.6-2.8 4.4-3.4s-4.1-4.1-8.8-7.8c-5.3-4.4-12.4-8.8-19.4-12.2-6.1-2.9-14.8-6.3-19.5-7.5-5.5-1.4-12.9-2.2-21-2.5-8.4-.3-15.6.1-22 1.1-5.2.8-14.9 3.3-21.5 5.4m-32 380.4c58.4.1 59 .1 63 2.3 2.2 1.1 5 3.2 6.1 4.5 1.2 1.2 2.8 3.7 3.7 5.3.8 1.7 1.8 4.6 2.2 6.5.4 2.2.1 5.6-.8 9-1.2 4.2-2.6 6.5-6.1 9.8-2.5 2.3-6.3 4.6-8.4 5.2-2.2.6-25.7 1-59.7 1-30.8 0-68.1.5-83 1.2-22.6.9-27.8.9-32-.2-3.4-1-6.3-2.7-9-5.5-2.2-2.2-4.6-5.8-5.3-8-.6-2.2-1.2-5.3-1.2-7 0-1.6.5-4.7 1-6.7.6-2.1 2.5-5.5 4.3-7.5 1.7-2 5.2-4.5 7.7-5.6 3.8-1.7 8.5-2.2 31.5-3.2 15.3-.7 52.7-1.2 86-1.1" class="s0"/><path id="digi" fill-rule="evenodd" d="M637 58h64v334l-65.3-.3c-56.2-.3-66.2-.6-72.7-2-4.1-1-11.1-2.8-15.5-4.2s-12.5-4.8-18-7.5-13.8-7.8-18.5-11.4c-4.7-3.5-11.4-9.4-15-13.2s-9.2-11-12.5-15.9-7.7-13.1-9.8-18-5.1-13.7-6.5-19.5c-2.3-9.3-2.6-12.5-2.7-28 0-16 .3-18.4 2.9-28.5 1.5-6.1 4.5-14.8 6.5-19.5s5.7-11.9 8.3-16c2.5-4.1 7.5-10.9 11-15 3.6-4.1 8.9-9.6 11.9-12.1s8.1-6.4 11.4-8.6 8.9-5.5 12.5-7.3 9.4-4.4 13-5.7c3.6-1.4 9.4-3.1 13-3.9 3.6-.9 10.5-1.9 15.5-2.4 5.2-.5 13.2-.5 19 .1 5.5.5 13.4 1.8 17.5 3 4.1 1.1 10.5 3.4 14.3 5.2 6.6 3.2 6.7 3.3 7.7 8.2.6 2.8 2.5 12.4 7.8 38zm-66.5 159.5c-2.7.9-7 2.8-9.5 4.3-2.5 1.4-6.9 4.8-9.9 7.6s-6.9 7.5-8.7 10.3c-1.9 2.9-4.6 8.8-6 13-1.7 5.1-2.8 10.9-3.1 16.8-.3 6.1 0 11.4 1.1 16.5.9 4.1 3.2 10.9 5.3 15 2.5 5.2 5.7 9.5 10.2 14 3.9 3.9 9.5 8 13.6 10.2 3.9 2 10.6 4.6 15 5.8 7.1 1.8 11 2 33.3 2H637v-95c-8.1-8.8-13.2-13.1-16.5-15.2s-8.7-4.7-12-5.7-9.6-2.1-14-2.4-10.5-.2-13.5.3-7.7 1.6-10.5 2.5m214-140c4.7.4 8.9 1.5 13 3.4 3.3 1.5 8 4.8 10.4 7.2s5.4 6.5 6.7 9.1c1.3 2.7 2.8 7.6 3.3 11 .6 4 .6 8.4.1 11.8-.6 3-2.1 7.7-3.4 10.5-1.3 2.7-4.6 7-7.3 9.5-2.6 2.4-7.3 5.6-10.3 7-4.7 2.1-6.9 2.5-15.5 2.5-8.8 0-10.7-.3-15.7-2.8-3.2-1.5-7.8-4.7-10.3-7.2s-5.7-7.1-7.2-10.3c-2.5-5-2.8-6.9-2.8-15.2 0-8.1.4-10.3 2.6-15 1.4-3 4.3-7.5 6.5-9.9 2.1-2.4 5.7-5.4 7.9-6.7s6.5-3 9.5-3.8c3.7-1.1 7.8-1.4 12.5-1.1m368-.4c2.2 0 5.9.4 8.3.9 2.3.6 6.3 2 9 3.2 2.6 1.2 6.7 4.3 9.2 6.8s5.6 6.7 6.9 9.5c1.3 2.7 2.8 7.5 3.4 10.5.7 4.1.7 7.2-.2 12-.7 3.6-2.2 8.3-3.4 10.5-1.1 2.2-3.9 6-6.2 8.5-2.4 2.5-6.9 5.8-10.1 7.4-4.6 2.3-7.7 3-13.9 3.4-5.5.3-9.7 0-13.5-1.1-3-.9-7.6-3.1-10.2-4.9-2.5-1.8-6.2-5.3-8.2-7.8-2.2-2.7-4.5-7.3-5.8-11.5-1.7-5.6-2-8.4-1.4-14 .3-4 1.6-9.2 2.9-12s3.7-6.6 5.4-8.5c1.6-1.9 5.2-4.9 7.9-6.7s7.4-3.9 10.4-4.7 7.3-1.5 9.5-1.5M1092 156v58l-30.7.1c-17.6.1-29.3.4-27.3.9 1.9.4 12.2 2.3 42.1 7.5l2.6 5.5c1.4 3 3.6 8.4 5 12s3.4 10.3 4.4 15c1.3 5.6 2.2 14.1 2.6 25 .4 12.8.2 18.6-1.1 25.7-.9 5.1-2.5 12.1-3.7 15.5-1.1 3.5-3.7 9.7-5.7 13.8s-6.2 10.9-9.3 15-7.8 9.5-10.5 12-7.4 6.4-10.4 8.7-8.4 5.7-12 7.7c-3.6 1.9-9.6 4.7-13.5 6.2-3.8 1.4-11.7 3.7-17.5 5.1-9.1 2.1-14.2 2.5-38 3.3-15.4.5-29.3 1.4-31.5 2-2.2.7-5.3 2-7 3s-3.8 3.6-4.7 5.9c-1.3 3-1.6 5.3-1.1 8.3.4 2.4 1.9 5.6 3.3 7.2s4.3 3.8 6.5 4.7c3.7 1.7 8.7 1.9 145.5 1.9v58l-174.5-.5-7-2.4c-3.8-1.2-10.6-4.1-15-6.4-5.9-3-10.2-6.3-16.1-12.1-6-6-9-10-11.8-15.6-2.3-4.7-4.2-10.7-5.2-16-.9-5.3-1.3-10.8-.9-14.5.3-3.3 1.1-8 1.7-10.5s2.3-7.2 3.8-10.5c1.6-3.3 5.5-9.4 8.7-13.5s8.8-10 18.9-18.5l-7.9-8.5c-4.3-4.7-10.5-12.3-13.6-17-3.2-4.7-7.3-11.9-9.3-16s-4.7-11.1-6.1-15.5-3.1-12.1-3.7-17c-.8-5.4-1-13.3-.7-20 .4-6.2 1.7-15.4 3.1-21 1.4-5.5 4-13.6 5.8-18 1.9-4.4 5.2-11.1 7.5-15 2.2-3.9 6.8-10.4 10.1-14.5s8.4-9.8 11.4-12.7c2.9-2.8 8.5-7.4 12.3-10.3 3.9-2.8 11.3-7.3 16.5-10 5.2-2.6 12.7-5.8 16.5-6.9 3.9-1.2 10.4-2.8 14.5-3.5 5.9-1.1 23.2-1.4 153-1.6m-151.5 64.8c-3.9 2.1-9.6 6.3-13 9.7-3.8 3.8-7.5 9-10.2 14-2.3 4.4-4.9 10.9-5.8 14.5-1.1 4-1.7 10.3-1.7 16.5 0 6.1.6 12.5 1.7 16.5.9 3.6 3.3 9.9 5.2 14 2.7 5.4 5.6 9.4 10.7 14.6 4.7 4.6 9.3 8.1 13.6 10.2 3.6 1.7 9.2 3.8 12.5 4.7 3.3.8 9.6 1.5 14 1.5s10.7-.7 14-1.5c3.3-.9 8.9-3 12.5-4.8 4.2-2 9-5.7 13.5-10.2 5-5 8.1-9.2 10.7-14.5 2-4.1 4.4-10.4 5.3-14 1.1-3.9 1.7-10.5 1.7-16.5.1-6.3-.6-12.4-1.7-16.5-.9-3.6-3.5-10.1-5.8-14.5-2.7-5-6.4-10.2-10.2-14-3.5-3.4-9.1-7.6-13-9.7-3.9-2-9.7-4.4-13-5.2-3.3-.9-9.8-1.6-14.5-1.5-4.7 0-11 .7-14 1.5s-8.6 3.2-12.5 5.2M750 157h64v235h-64zm371 0h64v235h-64z" class="s1"/><path id="sign" fill-rule="evenodd" d="M1408.5 77.5c3.3.2 8.5 1.3 11.5 2.4 3.2 1.1 7.7 4 10.9 6.8 3.5 3.2 6.4 7 8.5 11.3 2.8 5.9 3.1 7.3 3.1 16-.1 8.1-.4 10.3-2.7 15-1.4 3-4.8 7.7-7.5 10.3-2.6 2.7-7.3 6.1-10.3 7.5-4.9 2.4-6.7 2.7-16 2.7-9.8 0-10.9-.2-16.5-3.1-3.5-1.9-8-5.3-10.8-8.5-2.7-3-5.8-7.9-6.9-10.9-1.5-3.9-2.2-7.9-2.2-13.5-.1-7.2.3-8.7 3.7-15.8 2.6-5.4 4.9-8.7 8-11.1 2.3-1.8 6.2-4.4 8.7-5.6s6.3-2.6 8.5-3.1c2.2-.4 6.7-.6 10-.4m455 72.1c2.2.2 7.8.6 12.5.9s11.7 1.3 15.5 2.1 9.9 2.4 13.5 3.5c3.6 1.2 10.3 4.1 15 6.5s11.4 6.7 15 9.7c3.6 2.9 8.9 8.4 11.8 12.2 2.9 3.9 6.8 10.1 8.7 14 1.8 3.9 4.3 9.9 5.4 13.5 1.2 3.6 2.9 9.9 3.8 14 1.4 6.6 1.7 17.2 2.3 166h-64v-70c0-47.7-.4-71.7-1.1-75.3-.6-2.8-2.3-7.7-3.7-10.7-1.5-3-5.1-8.1-8.2-11.3q-5.5-5.9-12.5-9.4c-4.4-2.1-9.8-3.8-14.5-4.5-6.3-1-8.9-.9-16 .5-5.1 1-11.5 3.2-15.9 5.4-4.5 2.3-10 6.2-13.7 9.8-4.6 4.4-7.2 8.1-13.9 22L1803 392h-64V156h64l.2 49.5 9.3-45.5 3.5-1.4c1.9-.8 6.4-2.2 10-3.1s12.6-2.7 20-4 15.3-2.1 17.5-1.9m-560.8 2.5c7.3-.1 18.6.6 25 1.4 6.5.9 12.8 1.8 16.3 2.5v29c0 22.5-.3 29-1.3 29-.6 0-5.3-.7-10.2-1.5-5-.8-13.3-1.5-18.5-1.5-5.5 0-11.7.6-14.8 1.5-2.8.8-6.8 2.9-8.7 4.5-2.1 1.8-3.7 4.3-4.1 6.3s0 4.4 1 6.5c.9 1.7 8.5 9.2 16.8 16.5 8.4 7.3 18.7 16.8 22.8 21.1 4.1 4.2 9.5 10.5 11.9 13.9s5.6 9 7.2 12.5c1.6 3.4 3.6 9 4.4 12.5.8 3.4 1.5 9.8 1.5 14.2s-.7 11.1-1.5 15c-.9 3.9-3.2 10.4-5.3 14.5-2.4 4.9-6.2 10.1-11.2 15.3-4.1 4.4-10.6 9.9-14.5 12.3-3.8 2.3-10.4 5.7-14.5 7.4s-10.9 3.9-15 5c-4.1 1-10.8 2.3-14.8 2.9-3.9.6-12.5 1.1-19 1.1-7.4 0-16.9-.8-40.2-4.5v-57l8.2 1c4.6.6 15.3 1 23.8 1 9 0 17.2-.5 19.5-1.2 2.2-.7 5.5-2.2 7.4-3.5s4.4-3.6 5.5-5.1q2.1-2.8 2-7c0-2.3-.9-6-1.9-8.2-1.1-2.2-6-8.1-10.9-13-5-5-13.6-13.1-19-18-5.5-5-12.8-12.6-16.3-17s-8.2-11.6-10.4-16c-2.1-4.4-4.6-10.9-5.6-14.5-.9-3.8-1.6-10.6-1.7-16.5 0-7.5.5-11.7 2.1-17 1.2-3.9 3.9-9.7 6.1-13 2.1-3.3 6.5-8.4 9.8-11.3 3.6-3.3 9.7-7.2 15.9-10.2 5.5-2.7 12.9-5.6 16.5-6.6 3.6-.9 10.1-2.2 14.5-2.9s14-1.3 21.2-1.4M1717 156v58l-62.4.5 45.9 7.8 3.4 7.6c1.9 4.2 4.5 10.7 5.8 14.6s3 11.3 3.9 16.5c.9 5.5 1.5 16.1 1.5 25 0 10.2-.5 18.1-1.5 23-.9 4.1-2.4 10-3.5 13-1 3-2.9 7.7-4.1 10.5-1.2 2.7-4.5 8.6-7.5 13-2.9 4.4-9 11.6-13.6 16s-10.9 9.6-13.9 11.6-8.7 5.2-12.5 7.2c-3.8 1.9-11.3 4.8-16.5 6.5s-14.2 3.7-20 4.6c-6.4 1-17.5 1.6-28.5 1.6-9.9 0-21.3.5-25.3 1-3.9.6-8.9 1.9-11 2.9-2 1-4.6 2.9-5.7 4.1-1.6 1.7-2 3.6-2 8.5s.5 7 2.1 9.2c1.2 1.5 3.6 3.7 5.5 4.8 3.3 1.9 5.4 2 146.9 2.5v58h-84c-72.2 0-85-.2-91.3-1.6-3.9-.8-10.4-2.8-14.2-4.4s-10.3-5.2-14.3-8c-3.9-2.7-9.5-7.8-12.4-11.2-2.8-3.5-6.4-9-7.9-12.3-1.6-3.3-3.6-8.9-4.5-12.5-1.2-4.8-1.5-9.1-1.1-16.5.3-6.8 1.2-12.1 2.8-16.5 1.3-3.6 4.4-9.6 7-13.5s8.8-10.9 22.9-24.5l-7.8-8.2c-4.3-4.6-9.9-11.2-12.4-14.8-2.4-3.6-5.9-9-7.6-12s-4.6-9.6-6.5-14.5c-2-4.9-4.3-12.6-5.2-17-1.1-5.1-1.7-12.7-1.7-21 0-9.3.6-15.7 2-22.5 1.1-5.2 3.3-12.9 4.7-17 1.5-4.1 4-10 5.5-13s5.5-9.6 8.8-14.5 9.3-12.4 13.4-16.5c4-4.2 10.7-10.1 14.8-13.2s10-7 13-8.6c3-1.7 8.7-4.4 12.5-6s10.8-3.9 15.5-5c4.7-1.2 10.1-2.3 12-2.5s36.2-.5 149-.7m-150 63.7c-3.6 1.7-9.2 5.6-12.5 8.6-3.3 2.9-7.9 8.3-10.3 12-2.3 3.7-5.4 10.2-6.8 14.4-1.8 5.3-2.8 10.9-3.1 17.3-.4 6.7-.1 11.8 1.1 17.2.9 4.3 2.9 10.6 4.5 14 1.5 3.5 4.9 9 7.4 12.3s6.7 7.6 9.4 9.6c2.6 2 7.2 4.8 10 6.3 2.9 1.4 8.1 3.3 11.5 4.1 3.5.8 9.7 1.5 13.8 1.5s10.3-.7 13.7-1.5c3.5-.8 9.1-2.9 12.5-4.7 3.5-1.7 9-5.6 12.2-8.7s7.7-8.3 9.8-11.6 5-9.6 6.4-14c1.7-5.2 2.8-11.3 3.1-17.5.3-6.6 0-11.8-1.1-17-.9-4.1-3.5-11.3-5.8-16-3.1-6.3-6-10.3-11.2-15.6-5.2-5.1-9.1-8-14.6-10.6-4.1-2-9.9-4.1-12.8-4.7-2.8-.6-8.7-1.1-13-1-4.2 0-10 .6-12.7 1.3-2.8.6-7.9 2.6-11.5 4.3M1374 157h64v235h-64z" class="s0"/><path id="id" fill-rule="evenodd" d="M2042.8 28.1c4.5-.1 11.7.6 16 1.5 4.2.9 10.4 2.7 13.7 4.1 3.3 1.3 8.9 4.4 12.5 6.7 3.6 2.4 9.2 7.2 12.5 10.7s7.7 9.1 9.7 12.4 4.8 8.9 6.1 12.5 3 9.7 3.7 13.5c.8 4.4 1.1 10.8.7 17-.3 6.4-1.4 12.7-2.9 17.5-1.3 4.1-4 10.4-6 14s-5.8 9-8.4 12-7.4 7.7-10.8 10.4-9.3 6.4-13.1 8.2c-3.8 1.9-10.8 4.3-15.5 5.5-7.2 1.8-10.3 2.1-20.5 1.6-7.7-.3-14.1-1.2-18-2.5-3.3-1-8.7-3.3-12-4.9-3.3-1.7-8.9-5.3-12.4-7.9-3.6-2.7-8.6-7.6-11.3-10.9s-6.8-9.8-9.2-14.5-5.1-12.1-6.1-16.5c-1.4-6.3-1.7-10.6-1.2-20 .3-8.5 1.1-13.9 2.7-18.5 1.2-3.6 3.7-9.4 5.6-13 1.8-3.6 5.5-9 8.1-12.1 2.6-3 7.2-7.5 10.1-10 3-2.4 7.5-5.6 10-7.1 2.6-1.6 7.2-3.7 10.2-4.9 3-1.1 8.2-2.7 11.5-3.4s9.7-1.4 14.3-1.4m23.2 49.6c-.1 12.7-.2 13.6-1.5 11-1.1-1.9-2.8-3-5.7-3.8-2.4-.6-5.9-.8-7.8-.4s-5.3 1.5-7.5 2.4c-2.2 1-5.7 3.7-7.7 5.9-2.5 2.7-4.4 6.2-5.4 9.9-1.1 3.8-1.4 7.3-1 10.3.4 2.5 1.9 6.7 3.4 9.3 1.5 2.7 4.2 6 6 7.3 1.7 1.3 5.1 3.1 7.5 3.9 3 1.1 8.2 1.5 19 1.5h14.7V64h-14zm-54.3-7.8c-2.3 1.7-2.8 3-2.8 5.9 0 2.2.8 4.3 1.9 5.3.9.9 2.8 1.9 4 2.2 1.2.4 3.5 0 5-.7 1.5-.8 3.1-2.1 3.5-3s.8-2.7.8-3.9-.8-3.3-1.8-4.5-3.1-2.5-4.8-2.8c-2.1-.4-3.8 0-5.8 1.5m-1.7 65h13v-50h-13zm48-37.4c2 .4 4.6 1.6 5.8 2.8 2.1 2 2.3 3 2.2 22.6h-6.2c-4.5 0-7.2-.5-9.5-2-1.8-1.1-4-3.2-4.9-4.7-1.2-1.9-1.6-4.2-1.3-7.4.2-2.5 1.1-5.6 2-6.9s3.1-2.9 5-3.6c1.9-.8 5-1.1 6.9-.8" class="s1"/></g></svg>