<svg version="1.2" xmlns="http://www.w3.org/2000/svg" viewBox="0 0 2118 485">
	<title>DigiSign.ID</title>
	<style>
		.s0 { fill: #ff0000 } 
		.s1 { fill: #000000 } 
	</style>
	<g id="Background">
		<path id="Path 1" fill-rule="evenodd" class="s0" d="m379 0.5c12.2 0.3 20.2 1 26.5 2.3 4.9 1.1 13.3 3.4 18.5 5.1 5.2 1.8 13.5 5.3 18.5 7.9 5 2.6 12.1 6.9 16 9.5 3.9 2.6 10.3 7.5 14.2 10.9 4 3.5 10.2 9.7 13.9 13.8 3.6 4.1 9 11.1 11.9 15.5 3 4.4 6.4 10.3 7.6 13 1.7 3.9 2.1 6.4 1.8 11.2-0.3 4.8-1 7-3.5 10.5-1.6 2.3-4.3 5.2-6 6.3-1.6 1.1-7.2 3.5-12.4 5.4-5.2 1.8-13.1 5.1-17.5 7.3-4.4 2.2-11.8 6.6-16.4 9.7-4.7 3.1-13.6 10.5-19.9 16.6-6.3 6.1-15.3 15.7-19.9 21.5-4.6 5.8-15.4 20.4-24 32.5-8.6 12.1-19.9 27.6-25.2 34.5-5.3 6.9-14.8 17.8-21.1 24.4-6.3 6.5-14.4 14.2-18 17.1-3.6 2.9-9.6 7.3-13.5 9.9-3.9 2.6-10.8 6.6-15.5 9-4.7 2.5-12.1 5.9-16.5 7.6-4.4 1.7-13.2 4.5-19.5 6.1-6.3 1.7-11.6 3.2-11.8 3.5-0.1 0.2 1.5 1.3 3.5 2.3 2.1 1.1 5 3.2 6.5 4.8 1.5 1.5 3.4 4.5 4.2 6.5 0.9 2.1 1.6 6.3 1.6 9.3 0 3.7-0.8 7.1-2.3 10.2-1.2 2.5-3.6 5.8-5.2 7.1-1.6 1.4-8.2 5-14.5 8-6.3 2.9-16.2 7.4-22 9.9-5.8 2.5-16.4 6.4-23.5 8.8-7.1 2.4-18.6 5.5-25.5 6.9-6.9 1.4-18.1 3-25 3.6-9 0.8-16.1 0.8-25.5 0-7.2-0.6-18.6-2.2-25.5-3.6-6.9-1.4-15.5-3.4-26-6.4l-5.9 13.8c-3.3 7.5-7.4 17.3-9.2 21.7-1.7 4.4-3.9 11.1-6.7 22l2.2 0.9c1.1 0.6 9.1 1 17.6 1 8.6-0.1 21-0.8 27.7-1.7 6.8-1 14.5-1.7 17.3-1.7 2.7 0 6.5 0.6 8.2 1.3 1.8 0.8 4.8 2.7 6.7 4.3 1.8 1.6 4.3 4.7 5.4 6.9 1.4 2.7 2 5.9 2 10 0 4.1-0.6 7.2-2 10-1.2 2.2-3.4 5.2-5 6.6-1.5 1.5-4.4 3.4-6.3 4.4-1.9 1-10 2.6-18 3.8-10.5 1.4-20.3 2-35.5 2.1-16.9 0-22.3-0.3-27.8-1.7-3.7-0.9-9.7-3.1-13.5-4.8-4-1.8-8.9-5.2-12.2-8.4-3-2.9-6.7-7.8-8.3-10.9-1.5-3.1-3.2-8-3.8-10.9-0.7-3-0.9-8.9-0.6-14.2 0.3-4.9 1.6-12.6 2.7-17 1.2-4.4 4-12.5 6.1-18 2.2-5.5 7.6-18.3 12.1-28.5 5-11.5 7.9-19.3 7.5-20.5-0.3-1.1-2.6-8.1-5.1-15.5-2.6-7.4-6-18.9-7.6-25.5-1.6-6.6-3.7-16.1-4.6-21-0.9-5.3-1.8-17.3-2.1-29-0.4-12.8-0.1-23.6 0.6-30 0.7-5.5 2.1-14.1 3.2-19 1.1-4.9 3.8-14.4 6-21 2.2-6.6 6.5-17.2 9.5-23.5 3.1-6.3 7.7-15.1 10.4-19.5 2.9-4.9 6.3-9 8.6-10.7 2.2-1.5 6.1-3.2 8.9-3.9 3.8-0.9 6.2-0.9 10-0.1 3.3 0.8 6.6 2.5 9.5 5 2.5 2.1 5.5 5.5 6.7 7.5 1.3 2 2.6 3.7 3 3.7 0.5 0 1.6-3.3 2.7-7.2 1-4 3.6-11.8 5.8-17.3 2.2-5.5 5.8-13.4 8.1-17.5 2.3-4.1 7.4-11.8 11.3-17 3.9-5.2 10.9-13.1 15.5-17.5 4.6-4.4 12.2-11 16.9-14.6 4.7-3.6 17.3-12.6 28-19.9 10.7-7.4 21.1-14 23-14.7 1.9-0.6 5.1-1.2 7-1.3 1.9 0 5.1 0.4 7 1 1.9 0.5 4.9 2 6.7 3.2 1.7 1.3 4.3 3.9 5.7 5.8 1.4 1.9 3.1 5.7 3.6 8.5 0.9 4.2 0.7 6.8-1.4 16.5-1.4 6.3-2.4 11.6-2.1 11.7 0.3 0.2 3.3-2.1 6.7-5 3.5-3 11.1-8.9 17-13.3 5.9-4.3 15.3-10.8 21-14.3 5.7-3.6 14.8-8.8 20.3-11.6 5.5-2.8 14.9-7.1 21-9.4 6.1-2.4 15.9-5.6 22-7.2 6.1-1.6 15.3-3.6 20.5-4.4 6.6-1 14.8-1.3 27-1zm-43.5 52.5c-6.6 2.2-17.6 6.7-24.5 10.2-6.9 3.5-17.7 9.7-24 14-6.3 4.2-16.4 11.6-22.5 16.5-6 4.8-17.7 15.3-25.9 23.3-8.2 8-21 21.5-28.5 30-9.7 11.1-14.9 16.1-18.1 17.8-3 1.5-6.3 2.2-10 2.2-4.1 0.1-6.9-0.7-11-2.8-4.3-2.2-6.2-3.9-8.8-8.2-2.6-4.4-3.2-6.6-3.2-11 0-3 2-14.7 4.5-26 2.5-11.3 4.4-20.6 4.3-20.8-0.2-0.1-4.4 4-9.3 9.1-5.3 5.5-10.9 12.7-13.6 17.3-2.6 4.4-5.9 11.1-7.4 14.9-1.5 3.8-3.5 10.4-4.6 14.5-1 4.1-2.3 11.3-2.9 16-0.7 4.9-1 18.1-0.9 31 0.3 21.2 0.2 22.7-1.8 26.5-1.2 2.2-3.4 5.2-5 6.6-1.5 1.5-4.1 3.3-5.8 4.2-1.7 0.8-4.6 1.7-6.5 2.1-1.9 0.4-5.6 0.2-8.3-0.4-2.6-0.5-6.3-2-8.2-3.3-2.2-1.4-8.1-8.6-15.8-19.6-6.7-9.5-12.4-17.5-12.7-17.7-0.3-0.1-1.5 2.9-2.8 6.9-1.2 4-3.2 11.7-4.4 17.2-1.8 8.3-2.2 13.2-2.1 28.5 0 14.4 0.5 21 2.1 30 1.1 6.3 3.6 16.9 5.5 23.5 1.9 6.6 4.8 15.4 6.4 19.5l2.8 7.4c12.4 3.5 21.4 5.8 28 7.3 10.7 2.4 14 2.7 31 2.8 14.8 0 20.9-0.4 27.5-1.8 4.7-1 13.6-3.5 19.9-5.5l11.5-3.7c-10-7.9-15.8-13.4-19.4-17.2-3.6-3.8-7.7-8.7-9.2-10.9-1.5-2.1-3.3-6.4-3.9-9.4-0.9-4-0.9-6.6-0.1-9.5 0.6-2.2 2.1-5.6 3.4-7.4 1.3-1.9 4.3-4.9 6.6-6.5l4.4-3.1c52.1-0.1 58.8-0.4 65.8-1.9 4.7-1 12.6-3.1 17.5-4.7 4.9-1.6 12.6-4.7 17-7 4.4-2.2 11.6-6.6 15.9-9.7 4.4-3.1 12.3-10 17.5-15.3 5.3-5.2 13.8-14.9 18.8-21.5 5.1-6.5 15.7-21 23.5-32.1 7.9-11.1 18.4-25.5 23.4-32 5.1-6.5 14.1-17 20.1-23.3 6.1-6.3 15.2-14.9 20.4-19.1 5.2-4.2 13.2-10.2 17.9-13.2 4.7-3 10.6-6.6 13.3-7.8 2.6-1.3 4.6-2.8 4.4-3.4-0.2-0.6-4.1-4.1-8.8-7.8-5.3-4.4-12.4-8.8-19.4-12.2-6.1-2.9-14.8-6.3-19.5-7.5-5.5-1.4-12.9-2.2-21-2.5-8.4-0.3-15.6 0.1-22 1.1-5.2 0.8-14.9 3.3-21.5 5.4zm-32 380.4c58.4 0.1 59 0.1 63 2.3 2.2 1.1 5 3.2 6.1 4.5 1.2 1.2 2.8 3.7 3.7 5.3 0.8 1.7 1.8 4.6 2.2 6.5 0.4 2.2 0.1 5.6-0.8 9-1.2 4.2-2.6 6.5-6.1 9.8-2.5 2.3-6.3 4.6-8.4 5.2-2.2 0.6-25.7 1-59.7 1-30.8 0-68.1 0.5-83 1.2-22.6 0.9-27.8 0.9-32-0.2-3.4-1-6.3-2.7-9-5.5-2.2-2.2-4.6-5.8-5.3-8-0.6-2.2-1.2-5.3-1.2-7 0-1.6 0.5-4.7 1-6.7 0.6-2.1 2.5-5.5 4.3-7.5 1.7-2 5.2-4.5 7.7-5.6 3.8-1.7 8.5-2.2 31.5-3.2 15.3-0.7 52.7-1.2 86-1.1z"/>
		<path id="digi" fill-rule="evenodd" class="s1" d="m637 58h64v334l-65.3-0.3c-56.2-0.3-66.2-0.6-72.7-2-4.1-1-11.1-2.8-15.5-4.2-4.4-1.4-12.5-4.8-18-7.5-5.5-2.7-13.8-7.8-18.5-11.4-4.7-3.5-11.4-9.4-15-13.2-3.6-3.8-9.2-11-12.5-15.9-3.3-4.9-7.7-13.1-9.8-18-2.1-4.9-5.1-13.7-6.5-19.5-2.3-9.3-2.6-12.5-2.7-28 0-16 0.3-18.4 2.9-28.5 1.5-6.1 4.5-14.8 6.5-19.5 2-4.7 5.7-11.9 8.3-16 2.5-4.1 7.5-10.9 11-15 3.6-4.1 8.9-9.6 11.9-12.1 3-2.5 8.1-6.4 11.4-8.6 3.3-2.2 8.9-5.5 12.5-7.3 3.6-1.8 9.4-4.4 13-5.7 3.6-1.4 9.4-3.1 13-3.9 3.6-0.9 10.5-1.9 15.5-2.4 5.2-0.5 13.2-0.5 19 0.1 5.5 0.5 13.4 1.8 17.5 3 4.1 1.1 10.5 3.4 14.3 5.2 6.6 3.2 6.7 3.3 7.7 8.2 0.6 2.8 2.5 12.4 7.8 38zm-66.5 159.5c-2.7 0.9-7 2.8-9.5 4.3-2.5 1.4-6.9 4.8-9.9 7.6-3 2.8-6.9 7.5-8.7 10.3-1.9 2.9-4.6 8.8-6 13-1.7 5.1-2.8 10.9-3.1 16.8-0.3 6.1 0 11.4 1.1 16.5 0.9 4.1 3.2 10.9 5.3 15 2.5 5.2 5.7 9.5 10.2 14 3.9 3.9 9.5 8 13.6 10.2 3.9 2 10.6 4.6 15 5.8 7.1 1.8 11 2 33.3 2h25.2v-95c-8.1-8.8-13.2-13.1-16.5-15.2-3.3-2.1-8.7-4.7-12-5.7-3.3-1-9.6-2.1-14-2.4-4.4-0.3-10.5-0.2-13.5 0.3-3 0.5-7.7 1.6-10.5 2.5zm214-140c4.7 0.4 8.9 1.5 13 3.4 3.3 1.5 8 4.8 10.4 7.2 2.4 2.4 5.4 6.5 6.7 9.1 1.3 2.7 2.8 7.6 3.3 11 0.6 4 0.6 8.4 0.1 11.8-0.6 3-2.1 7.7-3.4 10.5-1.3 2.7-4.6 7-7.3 9.5-2.6 2.4-7.3 5.6-10.3 7-4.7 2.1-6.9 2.5-15.5 2.5-8.8 0-10.7-0.3-15.7-2.8-3.2-1.5-7.8-4.7-10.3-7.2-2.5-2.5-5.7-7.1-7.2-10.3-2.5-5-2.8-6.9-2.8-15.2 0-8.1 0.4-10.3 2.6-15 1.4-3 4.3-7.5 6.5-9.9 2.1-2.4 5.7-5.4 7.9-6.7 2.2-1.3 6.5-3 9.5-3.8 3.7-1.1 7.8-1.4 12.5-1.1zm368-0.4c2.2 0 5.9 0.4 8.3 0.9 2.3 0.6 6.3 2 9 3.2 2.6 1.2 6.7 4.3 9.2 6.8 2.5 2.5 5.6 6.7 6.9 9.5 1.3 2.7 2.8 7.5 3.4 10.5 0.7 4.1 0.7 7.2-0.2 12-0.7 3.6-2.2 8.3-3.4 10.5-1.1 2.2-3.9 6-6.2 8.5-2.4 2.5-6.9 5.8-10.1 7.4-4.6 2.3-7.7 3-13.9 3.4-5.5 0.3-9.7 0-13.5-1.1-3-0.9-7.6-3.1-10.2-4.9-2.5-1.8-6.2-5.3-8.2-7.8-2.2-2.7-4.5-7.3-5.8-11.5-1.7-5.6-2-8.4-1.4-14 0.3-4 1.6-9.2 2.9-12 1.3-2.8 3.7-6.6 5.4-8.5 1.6-1.9 5.2-4.9 7.9-6.7 2.7-1.8 7.4-3.9 10.4-4.7 3-0.8 7.3-1.5 9.5-1.5zm-60.5 78.9v58l-30.7 0.1c-17.6 0.1-29.3 0.4-27.3 0.9 1.9 0.4 12.2 2.3 42.1 7.5l2.6 5.5c1.4 3 3.6 8.4 5 12 1.4 3.6 3.4 10.3 4.4 15 1.3 5.6 2.2 14.1 2.6 25 0.4 12.8 0.2 18.6-1.1 25.7-0.9 5.1-2.5 12.1-3.7 15.5-1.1 3.5-3.7 9.7-5.7 13.8-2 4.1-6.2 10.9-9.3 15-3.1 4.1-7.8 9.5-10.5 12-2.7 2.5-7.4 6.4-10.4 8.7-3 2.3-8.4 5.7-12 7.7-3.6 1.9-9.6 4.7-13.5 6.2-3.8 1.4-11.7 3.7-17.5 5.1-9.1 2.1-14.2 2.5-38 3.3-15.4 0.5-29.3 1.4-31.5 2-2.2 0.7-5.3 2-7 3-1.7 1-3.8 3.6-4.7 5.9-1.3 3-1.6 5.3-1.1 8.3 0.4 2.4 1.9 5.6 3.3 7.2 1.4 1.6 4.3 3.8 6.5 4.7 3.7 1.7 8.7 1.9 145.5 1.9v58l-174.5-0.5-7-2.4c-3.8-1.2-10.6-4.1-15-6.4-5.9-3-10.2-6.3-16.1-12.1-6-6-9-10-11.8-15.6-2.3-4.7-4.2-10.7-5.2-16-0.9-5.3-1.3-10.8-0.9-14.5 0.3-3.3 1.1-8 1.7-10.5 0.6-2.5 2.3-7.2 3.8-10.5 1.6-3.3 5.5-9.4 8.7-13.5 3.2-4.1 8.8-10 18.9-18.5l-7.9-8.5c-4.3-4.7-10.5-12.3-13.6-17-3.2-4.7-7.3-11.9-9.3-16-2-4.1-4.7-11.1-6.1-15.5-1.4-4.4-3.1-12.1-3.7-17-0.8-5.4-1-13.3-0.7-20 0.4-6.2 1.7-15.4 3.1-21 1.4-5.5 4-13.6 5.8-18 1.9-4.4 5.2-11.1 7.5-15 2.2-3.9 6.8-10.4 10.1-14.5 3.3-4.1 8.4-9.8 11.4-12.7 2.9-2.8 8.5-7.4 12.3-10.3 3.9-2.8 11.3-7.3 16.5-10 5.2-2.6 12.7-5.8 16.5-6.9 3.9-1.2 10.4-2.8 14.5-3.5 5.9-1.1 23.2-1.4 153-1.6zm-151.5 64.8c-3.9 2.1-9.6 6.3-13 9.7-3.8 3.8-7.5 9-10.2 14-2.3 4.4-4.9 10.9-5.8 14.5-1.1 4-1.7 10.3-1.7 16.5 0 6.1 0.6 12.5 1.7 16.5 0.9 3.6 3.3 9.9 5.2 14 2.7 5.4 5.6 9.4 10.7 14.6 4.7 4.6 9.3 8.1 13.6 10.2 3.6 1.7 9.2 3.8 12.5 4.7 3.3 0.8 9.6 1.5 14 1.5 4.4 0 10.7-0.7 14-1.5 3.3-0.9 8.9-3 12.5-4.8 4.2-2 9-5.7 13.5-10.2 5-5 8.1-9.2 10.7-14.5 2-4.1 4.4-10.4 5.3-14 1.1-3.9 1.7-10.5 1.7-16.5 0.1-6.3-0.6-12.4-1.7-16.5-0.9-3.6-3.5-10.1-5.8-14.5-2.7-5-6.4-10.2-10.2-14-3.5-3.4-9.1-7.6-13-9.7-3.9-2-9.7-4.4-13-5.2-3.3-0.9-9.8-1.6-14.5-1.5-4.7 0-11 0.7-14 1.5-3 0.8-8.6 3.2-12.5 5.2zm-190.5-63.8h64v235h-64zm371 0h64v235h-64z"/>
		<path id="sign" fill-rule="evenodd" class="s0" d="m1408.5 77.5c3.3 0.2 8.5 1.3 11.5 2.4 3.2 1.1 7.7 4 10.9 6.8 3.5 3.2 6.4 7 8.5 11.3 2.8 5.9 3.1 7.3 3.1 16-0.1 8.1-0.4 10.3-2.7 15-1.4 3-4.8 7.7-7.5 10.3-2.6 2.7-7.3 6.1-10.3 7.5-4.9 2.4-6.7 2.7-16 2.7-9.8 0-10.9-0.2-16.5-3.1-3.5-1.9-8-5.3-10.8-8.5-2.7-3-5.8-7.9-6.9-10.9-1.5-3.9-2.2-7.9-2.2-13.5-0.1-7.2 0.3-8.7 3.7-15.8 2.6-5.4 4.9-8.7 8-11.1 2.3-1.8 6.2-4.4 8.7-5.6 2.5-1.2 6.3-2.6 8.5-3.1 2.2-0.4 6.7-0.6 10-0.4zm455 72.1c2.2 0.2 7.8 0.6 12.5 0.9 4.7 0.3 11.7 1.3 15.5 2.1 3.8 0.8 9.9 2.4 13.5 3.5 3.6 1.2 10.3 4.1 15 6.5 4.7 2.4 11.4 6.7 15 9.7 3.6 2.9 8.9 8.4 11.8 12.2 2.9 3.9 6.8 10.1 8.7 14 1.8 3.9 4.3 9.9 5.4 13.5 1.2 3.6 2.9 9.9 3.8 14 1.4 6.6 1.7 17.2 2.3 166h-64v-70c0-47.7-0.4-71.7-1.1-75.3-0.6-2.8-2.3-7.7-3.7-10.7-1.5-3-5.1-8.1-8.2-11.3q-5.5-5.9-12.5-9.4c-4.4-2.1-9.8-3.8-14.5-4.5-6.3-1-8.9-0.9-16 0.5-5.1 1-11.5 3.2-15.9 5.4-4.5 2.3-10 6.2-13.7 9.8-4.6 4.4-7.2 8.1-13.9 22l-0.5 143.5h-64v-236h64l0.2 49.5 9.3-45.5 3.5-1.4c1.9-0.8 6.4-2.2 10-3.1 3.6-0.9 12.6-2.7 20-4 7.4-1.3 15.3-2.1 17.5-1.9zm-560.8 2.5c7.3-0.1 18.6 0.6 25 1.4 6.5 0.9 12.8 1.8 16.3 2.5v29c0 22.5-0.3 29-1.3 29-0.6 0-5.3-0.7-10.2-1.5-5-0.8-13.3-1.5-18.5-1.5-5.5 0-11.7 0.6-14.8 1.5-2.8 0.8-6.8 2.9-8.7 4.5-2.1 1.8-3.7 4.3-4.1 6.3-0.4 2 0 4.4 1 6.5 0.9 1.7 8.5 9.2 16.8 16.5 8.4 7.3 18.7 16.8 22.8 21.1 4.1 4.2 9.5 10.5 11.9 13.9 2.4 3.4 5.6 9 7.2 12.5 1.6 3.4 3.6 9 4.4 12.5 0.8 3.4 1.5 9.8 1.5 14.2 0 4.4-0.7 11.1-1.5 15-0.9 3.9-3.2 10.4-5.3 14.5-2.4 4.9-6.2 10.1-11.2 15.3-4.1 4.4-10.6 9.9-14.5 12.3-3.8 2.3-10.4 5.7-14.5 7.4-4.1 1.7-10.9 3.9-15 5-4.1 1-10.8 2.3-14.8 2.9-3.9 0.6-12.5 1.1-19 1.1-7.4 0-16.9-0.8-40.2-4.5v-57l8.2 1c4.6 0.6 15.3 1 23.8 1 9 0 17.2-0.5 19.5-1.2 2.2-0.7 5.5-2.2 7.4-3.5 1.9-1.3 4.4-3.6 5.5-5.1q2.1-2.8 2-7c0-2.3-0.9-6-1.9-8.2-1.1-2.2-6-8.1-10.9-13-5-5-13.6-13.1-19-18-5.5-5-12.8-12.6-16.3-17-3.5-4.4-8.2-11.6-10.4-16-2.1-4.4-4.6-10.9-5.6-14.5-0.9-3.8-1.6-10.6-1.7-16.5 0-7.5 0.5-11.7 2.1-17 1.2-3.9 3.9-9.7 6.1-13 2.1-3.3 6.5-8.4 9.8-11.3 3.6-3.3 9.7-7.2 15.9-10.2 5.5-2.7 12.9-5.6 16.5-6.6 3.6-0.9 10.1-2.2 14.5-2.9 4.4-0.7 14-1.3 21.2-1.4zm414.3 3.9v58l-62.4 0.5 45.9 7.8 3.4 7.6c1.9 4.2 4.5 10.7 5.8 14.6 1.3 3.9 3 11.3 3.9 16.5 0.9 5.5 1.5 16.1 1.5 25 0 10.2-0.5 18.1-1.5 23-0.9 4.1-2.4 10-3.5 13-1 3-2.9 7.7-4.1 10.5-1.2 2.7-4.5 8.6-7.5 13-2.9 4.4-9 11.6-13.6 16-4.6 4.4-10.9 9.6-13.9 11.6-3 2-8.7 5.2-12.5 7.2-3.8 1.9-11.3 4.8-16.5 6.5-5.2 1.7-14.2 3.7-20 4.6-6.4 1-17.5 1.6-28.5 1.6-9.9 0-21.3 0.5-25.3 1-3.9 0.6-8.9 1.9-11 2.9-2 1-4.6 2.9-5.7 4.1-1.6 1.7-2 3.6-2 8.5 0 4.9 0.5 7 2.1 9.2 1.2 1.5 3.6 3.7 5.5 4.8 3.3 1.9 5.4 2 146.9 2.5v58h-84c-72.2 0-85-0.2-91.3-1.6-3.9-0.8-10.4-2.8-14.2-4.4-3.8-1.6-10.3-5.2-14.3-8-3.9-2.7-9.5-7.8-12.4-11.2-2.8-3.5-6.4-9-7.9-12.3-1.6-3.3-3.6-8.9-4.5-12.5-1.2-4.8-1.5-9.1-1.1-16.5 0.3-6.8 1.2-12.1 2.8-16.5 1.3-3.6 4.4-9.6 7-13.5 2.6-3.9 8.8-10.9 22.9-24.5l-7.8-8.2c-4.3-4.6-9.9-11.2-12.4-14.8-2.4-3.6-5.9-9-7.6-12-1.7-3-4.6-9.6-6.5-14.5-2-4.9-4.3-12.6-5.2-17-1.1-5.1-1.7-12.7-1.7-21 0-9.3 0.6-15.7 2-22.5 1.1-5.2 3.3-12.9 4.7-17 1.5-4.1 4-10 5.5-13 1.5-3 5.5-9.6 8.8-14.5 3.3-4.9 9.3-12.4 13.4-16.5 4-4.2 10.7-10.1 14.8-13.2 4.1-3.1 10-7 13-8.6 3-1.7 8.7-4.4 12.5-6 3.8-1.6 10.8-3.9 15.5-5 4.7-1.2 10.1-2.3 12-2.5 1.9-0.2 36.2-0.5 149-0.7zm-150 63.7c-3.6 1.7-9.2 5.6-12.5 8.6-3.3 2.9-7.9 8.3-10.3 12-2.3 3.7-5.4 10.2-6.8 14.4-1.8 5.3-2.8 10.9-3.1 17.3-0.4 6.7-0.1 11.8 1.1 17.2 0.9 4.3 2.9 10.6 4.5 14 1.5 3.5 4.9 9 7.4 12.3 2.5 3.3 6.7 7.6 9.4 9.6 2.6 2 7.2 4.8 10 6.3 2.9 1.4 8.1 3.3 11.5 4.1 3.5 0.8 9.7 1.5 13.8 1.5 4.1 0 10.3-0.7 13.7-1.5 3.5-0.8 9.1-2.9 12.5-4.7 3.5-1.7 9-5.6 12.2-8.7 3.2-3.1 7.7-8.3 9.8-11.6 2.1-3.3 5-9.6 6.4-14 1.7-5.2 2.8-11.3 3.1-17.5 0.3-6.6 0-11.8-1.1-17-0.9-4.1-3.5-11.3-5.8-16-3.1-6.3-6-10.3-11.2-15.6-5.2-5.1-9.1-8-14.6-10.6-4.1-2-9.9-4.1-12.8-4.7-2.8-0.6-8.7-1.1-13-1-4.2 0-10 0.6-12.7 1.3-2.8 0.6-7.9 2.6-11.5 4.3zm-193-62.7h64v235h-64z"/>
		<path id="id" fill-rule="evenodd" class="s1" d="m2042.8 28.1c4.5-0.1 11.7 0.6 16 1.5 4.2 0.9 10.4 2.7 13.7 4.1 3.3 1.3 8.9 4.4 12.5 6.7 3.6 2.4 9.2 7.2 12.5 10.7 3.3 3.5 7.7 9.1 9.7 12.4 2 3.3 4.8 8.9 6.1 12.5 1.3 3.6 3 9.7 3.7 13.5 0.8 4.4 1.1 10.8 0.7 17-0.3 6.4-1.4 12.7-2.9 17.5-1.3 4.1-4 10.4-6 14-2 3.6-5.8 9-8.4 12-2.6 3-7.4 7.7-10.8 10.4-3.4 2.7-9.3 6.4-13.1 8.2-3.8 1.9-10.8 4.3-15.5 5.5-7.2 1.8-10.3 2.1-20.5 1.6-7.7-0.3-14.1-1.2-18-2.5-3.3-1-8.7-3.3-12-4.9-3.3-1.7-8.9-5.3-12.4-7.9-3.6-2.7-8.6-7.6-11.3-10.9-2.7-3.3-6.8-9.8-9.2-14.5-2.4-4.7-5.1-12.1-6.1-16.5-1.4-6.3-1.7-10.6-1.2-20 0.3-8.5 1.1-13.9 2.7-18.5 1.2-3.6 3.7-9.4 5.6-13 1.8-3.6 5.5-9 8.1-12.1 2.6-3 7.2-7.5 10.1-10 3-2.4 7.5-5.6 10-7.1 2.6-1.6 7.2-3.7 10.2-4.9 3-1.1 8.2-2.7 11.5-3.4 3.3-0.7 9.7-1.4 14.3-1.4zm23.2 49.6c-0.1 12.7-0.2 13.6-1.5 11-1.1-1.9-2.8-3-5.7-3.8-2.4-0.6-5.9-0.8-7.8-0.4-1.9 0.4-5.3 1.5-7.5 2.4-2.2 1-5.7 3.7-7.7 5.9-2.5 2.7-4.4 6.2-5.4 9.9-1.1 3.8-1.4 7.3-1 10.3 0.4 2.5 1.9 6.7 3.4 9.3 1.5 2.7 4.2 6 6 7.3 1.7 1.3 5.1 3.1 7.5 3.9 3 1.1 8.2 1.5 19 1.5h14.7v-71h-14zm-54.3-7.8c-2.3 1.7-2.8 3-2.8 5.9 0 2.2 0.8 4.3 1.9 5.3 0.9 0.9 2.8 1.9 4 2.2 1.2 0.4 3.5 0 5-0.7 1.5-0.8 3.1-2.1 3.5-3 0.4-0.9 0.8-2.7 0.8-3.9 0-1.2-0.8-3.3-1.8-4.5-1-1.2-3.1-2.5-4.8-2.8-2.1-0.4-3.8 0-5.8 1.5zm-1.7 65h13v-50h-13zm48-37.4c2 0.4 4.6 1.6 5.8 2.8 2.1 2 2.3 3 2.2 22.6h-6.2c-4.5 0-7.2-0.5-9.5-2-1.8-1.1-4-3.2-4.9-4.7-1.2-1.9-1.6-4.2-1.3-7.4 0.2-2.5 1.1-5.6 2-6.9 0.9-1.3 3.1-2.9 5-3.6 1.9-0.8 5-1.1 6.9-0.8z"/>
	</g>
</svg>