<svg xmlns="http://www.w3.org/2000/svg" xmlns:xlink="http://www.w3.org/1999/xlink" viewBox="0 0 95.99 67.509">
  <defs>
    <linearGradient id="linear-gradient" x1="0.169" y1="0.818" x2="1.061" y2="-0.038" gradientUnits="objectBoundingBox">
      <stop offset="0" stop-color="#78d2f7"/>
      <stop offset="0.52" stop-color="#0090d6"/>
      <stop offset="1" stop-color="#00558d"/>
    </linearGradient>
    <linearGradient id="linear-gradient-2" x1="0.169" y1="0.818" x2="1.061" y2="-0.038" gradientUnits="objectBoundingBox">
      <stop offset="0" stop-color="#c4e9fb"/>
      <stop offset="1" stop-color="#fff" stop-opacity="0"/>
    </linearGradient>
  </defs>
  <g id="Layer_2" data-name="Layer 2" transform="translate(0 0.012)">
    <g id="Layer_1" data-name="Layer 1" transform="translate(0 -0.012)">
      <path id="Path_952" data-name="Path 952" d="M0,134.142H4.736V136.2h.029a3.769,3.769,0,0,1,3.652-2.4,6.364,6.364,0,0,1,1.427.2v4.365a5.022,5.022,0,0,0-1.94-.314c-1.969,0-2.967,1.113-2.967,3.88v5.107H0Z" transform="translate(0 -95.622)" fill="#004c68"/>
      <path id="Path_953" data-name="Path 953" d="M41.708,141.7a2.4,2.4,0,0,0,2.482,2.511,2.5,2.5,0,0,0,2.083-.942h4.594c-1,2.8-3.738,4.08-6.648,4.08-4.109,0-7.218-2.425-7.218-6.733a6.626,6.626,0,0,1,6.819-6.819c5.107,0,7.333,2.853,7.333,7.9Zm4.708-2.568a2.111,2.111,0,0,0-2.168-2.168,2.331,2.331,0,0,0-2.539,2.168Z" transform="translate(-26.443 -95.622)" fill="#004c68"/>
      <path id="Path_954" data-name="Path 954" d="M102.653,144.157a5.023,5.023,0,0,0,.6,2.882H98.23a3.652,3.652,0,0,1-.171-1.227H98a5.2,5.2,0,0,1-4.137,1.541c-2.482,0-4.565-1.17-4.565-3.88,0-4.109,4.793-3.909,7.3-4.422.656-.114,1.341-.314,1.341-1.141s-.827-1.2-1.626-1.2c-1.484,0-1.826.77-1.826,1.341H89.9c.143-3.681,3.623-4.251,6.648-4.251,6.163,0,6.106,2.568,6.106,5.05Zm-4.708-2.91a11.01,11.01,0,0,1-1.94.628c-1.113.257-1.683.514-1.683,1.4s.656,1.17,1.541,1.17a2.078,2.078,0,0,0,2.083-2Z" transform="translate(-63.822 -95.622)" fill="#004c68"/>
      <path id="Path_955" data-name="Path 955" d="M143.9,118h4.907v17.746H143.9Z" transform="translate(-102.843 -84.33)" fill="#004c68"/>
      <path id="Path_956" data-name="Path 956" d="M0,189.414H4.736V191.5h.029a3.769,3.769,0,0,1,3.652-2.4,6.365,6.365,0,0,1,1.427.2v4.337a5.021,5.021,0,0,0-1.94-.314c-1.969,0-2.967,1.113-2.967,3.909v5.107H0Z" transform="translate(0 -135.144)" fill="#008dd2"/>
      <path id="Path_957" data-name="Path 957" d="M49.353,199.428a5.117,5.117,0,0,0,.6,2.91H44.93a3.11,3.11,0,0,1-.171-1.227H44.7a5.257,5.257,0,0,1-4.166,1.541c-2.482,0-4.536-1.2-4.536-3.909,0-4.109,4.793-3.909,7.275-4.394.685-.143,1.341-.342,1.341-1.141s-.8-1.2-1.6-1.2c-1.512,0-1.855.77-1.855,1.312H36.6c.114-3.652,3.595-4.223,6.648-4.223,6.163,0,6.106,2.568,6.106,5.05Zm-4.736-2.882a10.245,10.245,0,0,1-1.94.6c-1.084.285-1.655.542-1.655,1.4s.656,1.2,1.541,1.2a2.063,2.063,0,0,0,2.054-2.026Z" transform="translate(-25.729 -135.144)" fill="#72cee2"/>
      <path id="Path_958" data-name="Path 958" d="M90.2,189.414h4.736v1.655h.057a4.663,4.663,0,0,1,4.194-1.969,4.339,4.339,0,0,1,4.422,4.365v8.873H98.7v-6.79c0-1.484-.171-2.511-1.626-2.511-.856,0-1.969.4-1.969,2.482v6.819H90.2Z" transform="translate(-64.465 -135.144)" fill="#a9dcd9"/>
      <path id="Path_959" data-name="Path 959" d="M155.809,190.975h-4.736v-1.427h-.057c-.6.8-1.4,1.74-3.795,1.74-3.652,0-5.421-3.595-5.421-6.848s1.17-6.7,5.507-6.7a4.251,4.251,0,0,1,3.538,1.74h.057V173.2h4.907Zm-6.9-9.672c-1.769,0-2.168,1.683-2.168,3.2s.4,3.2,2.168,3.2,2.168-1.683,2.168-3.2S150.673,181.3,148.9,181.3Z" transform="translate(-101.343 -123.78)" fill="#e0d2af"/>
      <path id="Path_960" data-name="Path 960" d="M201.919,202.652c-4.85,0-7.019-3.224-7.019-6.79s2.168-6.762,7.019-6.762,7.047,3.2,7.047,6.762S206.769,202.652,201.919,202.652Zm0-9.986c-1.883,0-2.111,1.826-2.111,3.2s.228,3.2,2.111,3.2,2.111-1.826,2.111-3.2S203.83,192.666,201.919,192.666Z" transform="translate(-139.292 -135.144)" fill="#f1843c"/>
      <path id="Path_961" data-name="Path 961" d="M248.1,189.414h4.736v1.712h.057a4.659,4.659,0,0,1,4.223-2.026,3.426,3.426,0,0,1,3.481,2.026,5.039,5.039,0,0,1,4.394-2.026,4.13,4.13,0,0,1,4.422,4.365v8.873h-4.907v-6.99c0-1.227-.114-2.311-1.626-2.311s-1.655.942-1.655,2.311v6.99h-4.936v-6.99c0-1.227-.114-2.311-1.6-2.311s-1.683.942-1.683,2.311v6.99H248.1Z" transform="translate(-177.314 -135.144)" fill="#f26a25"/>
      <path id="Path_962" data-name="Path 962" d="M185.164,64.274a18.483,18.483,0,0,0,8.217,3.138,15.55,15.55,0,0,0,8.559-1.655,13.325,13.325,0,0,0,3.481-2.539,13.981,13.981,0,0,0,2.511-3.538,17.576,17.576,0,0,0,1.512-4.08,9.559,9.559,0,0,0,.342-2.111,3.738,3.738,0,0,0-.428-1.94,3.6,3.6,0,0,0-1.4-1.37,11.014,11.014,0,0,0-1.969-.827l-2.14-.628-1.113-.428a2.054,2.054,0,0,1-1.056-.884,1.769,1.769,0,0,1-.171-.742,1.712,1.712,0,0,1,.143-.685,5.68,5.68,0,0,1,.628-1.084,14.578,14.578,0,0,1,1.541-1.683c1.113-1.056,2.283-2,3.452-2.939,2.368-1.855,4.793-3.623,7.247-5.335l3.681-2.568,1.855-1.255.913-.656.884-.628a6.846,6.846,0,0,0,.8-.77,1.826,1.826,0,0,0,.428-.884,1.056,1.056,0,0,0-.285-.884,3,3,0,0,0-.856-.571,7.532,7.532,0,0,0-2.111-.628,14.008,14.008,0,0,0-2.2-.257,33.1,33.1,0,0,0-4.451,0c-1.484.086-2.967.228-4.451.457a59.83,59.83,0,0,0-8.674,2.026,45.109,45.109,0,0,0-8.16,3.509,29.475,29.475,0,0,0-3.681,2.454l-1.683,1.427-.77.8a9.842,9.842,0,0,0-.742.8,24.08,24.08,0,0,0-4.651,7.447,19.971,19.971,0,0,0-1.084,4.223,17.433,17.433,0,0,0,0,4.394,14.1,14.1,0,0,0,.4,2.14,18.229,18.229,0,0,0,.685,2.111,18.858,18.858,0,0,0,2.083,3.88h0a.257.257,0,0,1-.057.314c-.114.057-.257.057-.314-.057a18.432,18.432,0,0,1-2.283-3.909,19.576,19.576,0,0,1-.77-2.168,13.981,13.981,0,0,1-.457-2.225,18.66,18.66,0,0,1,1-9.016,25.735,25.735,0,0,1,4.765-7.732l.77-.827.827-.827a21.372,21.372,0,0,1,1.74-1.455,27.076,27.076,0,0,1,3.795-2.482,41.113,41.113,0,0,1,8.388-3.424,57.633,57.633,0,0,1,8.816-1.855,44.988,44.988,0,0,1,8.987-.371,21.169,21.169,0,0,1,2.254.285,9.445,9.445,0,0,1,2.168.628,3.367,3.367,0,0,1,1,.656,2.169,2.169,0,0,1,.342.542,1.655,1.655,0,0,1,.057.656,2.168,2.168,0,0,1-.542,1.084,4.535,4.535,0,0,1-.827.827l-.913.656-.913.656-1.826,1.284-3.652,2.625c-2.4,1.769-4.793,3.566-7.1,5.449-1.141.942-2.283,1.912-3.338,2.939a15.32,15.32,0,0,0-1.427,1.626,3.4,3.4,0,0,0-.485.884,1.113,1.113,0,0,0-.086.4.656.656,0,0,0,.057.342,1.712,1.712,0,0,0,.685.514,4.565,4.565,0,0,0,1,.342l2.14.628a10.185,10.185,0,0,1,2.168.884,4.394,4.394,0,0,1,2.34,4.109,12.155,12.155,0,0,1-.371,2.34,21.627,21.627,0,0,1-1.626,4.28,15.834,15.834,0,0,1-2.71,3.738,14.009,14.009,0,0,1-3.738,2.682,16.206,16.206,0,0,1-8.959,1.341,18.346,18.346,0,0,1-4.422-1.141,13.38,13.38,0,0,1-2.054-.942,22.08,22.08,0,0,1-1.94-1.2.2.2,0,0,1-.029-.257.228.228,0,0,1,.257-.057Z" transform="translate(-127.502 -18.135)" fill="#a9dcd9" opacity="0.7"/>
      <path id="Path_963" data-name="Path 963" d="M185.289,46.241a15.407,15.407,0,0,0,3.88,2.225,15.007,15.007,0,0,0,4.337,1,18.488,18.488,0,0,0,8.759-1.512,24.194,24.194,0,0,0,7.361-5.05,25.48,25.48,0,0,0,2.853-3.452,20.855,20.855,0,0,0,2.2-3.88,14.409,14.409,0,0,0,1.056-4.337c.086-.742.114-1.484.171-2.254a6.22,6.22,0,0,1,.457-2.254,5.25,5.25,0,0,1,1.455-1.8l.942-.656a5.935,5.935,0,0,0,.942-.6.628.628,0,0,0,.285-.342.542.542,0,0,0-.171-.342,3.937,3.937,0,0,0-.884-.571l-2.026-.97a19.429,19.429,0,0,1-3.909-2.34,9.33,9.33,0,0,1-2.768-3.623,9.53,9.53,0,0,1-.6-4.536A16.918,16.918,0,0,1,210.711,6.5c.285-.685.571-1.4.913-2.083a9.581,9.581,0,0,0,.856-2.026,2.026,2.026,0,0,0,.086-1,1,1,0,0,0-.485-.713A1.855,1.855,0,0,0,211.11.5a4.308,4.308,0,0,0-1.056.171A13.1,13.1,0,0,0,206.146,2.7a21.969,21.969,0,0,0-3.31,3,28.274,28.274,0,0,0-4.936,7.418,29.392,29.392,0,0,0-1.541,4.194c-.228.713-.456,1.427-.742,2.14a15.034,15.034,0,0,1-.884,2.111,4.594,4.594,0,0,1-.685,1.027,1.227,1.227,0,0,1-.628.371h-.4l-.371-.143a3.6,3.6,0,0,1-.913-.8c-.285-.257-.514-.542-.8-.77a3.139,3.139,0,0,0-1.769-.97,3.31,3.31,0,0,0-2,.371,7.959,7.959,0,0,0-.942.542l-.942.6-.884.685a9.7,9.7,0,0,0-.827.742,13.125,13.125,0,0,0-1.484,1.6,16.263,16.263,0,0,0-1.255,1.855,14.266,14.266,0,0,0-1.512,4.109,11.527,11.527,0,0,0-.257,2.2c-.029.371,0,.742,0,1.113a7.3,7.3,0,0,0,.086,1.113,17.405,17.405,0,0,0,1.113,4.308,18.6,18.6,0,0,0,2.2,3.88l-.2.143a19.771,19.771,0,0,1-2.34-3.88,15.808,15.808,0,0,1-1.255-4.394,14.437,14.437,0,0,1,1.655-8.9,13.979,13.979,0,0,1,1.284-1.912,17.378,17.378,0,0,1,1.541-1.712,10.643,10.643,0,0,1,.856-.742l.913-.713.942-.656c.342-.2.656-.4,1.027-.571a4.194,4.194,0,0,1,2.368-.428,3.937,3.937,0,0,1,2.14,1.141,10.921,10.921,0,0,1,.8.827,4.166,4.166,0,0,0,.77.685.656.656,0,0,0,.314.057.941.941,0,0,0,.314-.228,3.824,3.824,0,0,0,.6-.856,21.573,21.573,0,0,0,.856-2.026l.742-2.111a33.1,33.1,0,0,1,1.569-4.251,28.731,28.731,0,0,1,5.05-7.561,24.509,24.509,0,0,1,3.424-3.024,13.467,13.467,0,0,1,4.08-2.083,5.278,5.278,0,0,1,1.17-.2,2.682,2.682,0,0,1,1.227.228,1.569,1.569,0,0,1,.514.457,1.655,1.655,0,0,1,.228.628,2.939,2.939,0,0,1-.086,1.227,9.874,9.874,0,0,1-.942,2.083c-.314.685-.628,1.37-.884,2.054a16.178,16.178,0,0,0-1.084,4.308,8.959,8.959,0,0,0,.542,4.337,8.559,8.559,0,0,0,2.625,3.481,17.518,17.518,0,0,0,3.823,2.311c.685.342,1.37.628,2.054,1a3.538,3.538,0,0,1,.97.628,1.026,1.026,0,0,1,.2.285.628.628,0,0,1,.057.4,1.141,1.141,0,0,1-.4.542,9.3,9.3,0,0,1-.97.628,6.478,6.478,0,0,0-.913.628,4.793,4.793,0,0,0-1.369,1.655,6.677,6.677,0,0,0-.457,2.14c-.029.742-.057,1.512-.143,2.254a15.693,15.693,0,0,1-1.084,4.422,21.824,21.824,0,0,1-2.254,3.966,25.791,25.791,0,0,1-2.91,3.481,24.137,24.137,0,0,1-7.447,5.079,19.087,19.087,0,0,1-8.9,1.512,14.893,14.893,0,0,1-4.422-1.027,15.464,15.464,0,0,1-3.937-2.254Z" transform="translate(-127.599 0.012)" fill="#f1843c"/>
      <path id="Path_964" data-name="Path 964" d="M185.215,66.082a19.2,19.2,0,0,0,3.994,2.14,16.492,16.492,0,0,0,4.337,1.141,17.062,17.062,0,0,0,8.845-1.227A21.884,21.884,0,0,0,209.724,63a37.607,37.607,0,0,0,2.91-3.481c.884-1.227,1.74-2.482,2.511-3.795a58.2,58.2,0,0,0,4.08-8.1,44.76,44.76,0,0,0,1.512-4.28,26.3,26.3,0,0,0,.97-4.394,7.073,7.073,0,0,0,.057-1.084,2.454,2.454,0,0,0-.171-.97c-.057-.143-.143-.2-.2-.2a.428.428,0,0,0-.314.029,3.509,3.509,0,0,0-.827.6,17.148,17.148,0,0,0-1.455,1.683l-1.541,1.712a39.407,39.407,0,0,1-3.367,3.167,27.163,27.163,0,0,1-3.738,2.71,14.123,14.123,0,0,1-2.083,1.027,7.19,7.19,0,0,1-2.34.542,3.452,3.452,0,0,1-2.34-.656,4.365,4.365,0,0,1-1.37-2.026,8.161,8.161,0,0,1-.485-2.311,20.865,20.865,0,0,1-.086-2.311q.057-1.141.171-2.311c.086-.742.143-1.512.171-2.254a18.031,18.031,0,0,0-.285-4.479,5.677,5.677,0,0,0-.8-2.026,2.824,2.824,0,0,0-.685-.742,2.4,2.4,0,0,0-.942-.457,4.451,4.451,0,0,0-2.111.114,12.553,12.553,0,0,0-2.054.856,25.279,25.279,0,0,0-3.709,2.568c-1.2.942-2.311,1.969-3.424,3a37.8,37.8,0,0,0-3.138,3.281,26.734,26.734,0,0,0-4.508,7.818,22.941,22.941,0,0,0-1.056,4.394,19.83,19.83,0,0,0-.029,4.508,16.434,16.434,0,0,0,3.424,8.217l-.342.257a16.719,16.719,0,0,1-3.509-8.417,17.888,17.888,0,0,1,0-4.622,22.11,22.11,0,0,1,1.084-4.508,26.391,26.391,0,0,1,4.565-7.96,35.034,35.034,0,0,1,3.167-3.338c1.084-1.056,2.225-2.083,3.424-3.053a24.936,24.936,0,0,1,3.795-2.625,11.241,11.241,0,0,1,2.168-.913,4.822,4.822,0,0,1,2.4-.114,3.424,3.424,0,0,1,1.141.514,3.6,3.6,0,0,1,.827.913,6.5,6.5,0,0,1,.884,2.225,17.946,17.946,0,0,1,.314,4.622c-.029.77-.086,1.512-.171,2.283s-.114,1.512-.143,2.254a19.659,19.659,0,0,0,.057,2.254,10.841,10.841,0,0,0,.456,2.168,4,4,0,0,0,1.17,1.712,3.081,3.081,0,0,0,1.94.542,6.191,6.191,0,0,0,2.111-.514,10.871,10.871,0,0,0,2-1,27.734,27.734,0,0,0,3.652-2.653,37.691,37.691,0,0,0,3.281-3.11c.514-.571,1.027-1.113,1.512-1.712a14.354,14.354,0,0,1,1.541-1.74,3.51,3.51,0,0,1,1.027-.742,1.227,1.227,0,0,1,.8-.057.913.913,0,0,1,.6.571,3.4,3.4,0,0,1,.257,1.255,8.417,8.417,0,0,1-.057,1.2,23.968,23.968,0,0,1-1,4.508q-.661,2.206-1.541,4.337a56.6,56.6,0,0,1-4.166,8.188c-.827,1.312-1.683,2.6-2.6,3.823a34.468,34.468,0,0,1-2.967,3.509,23.025,23.025,0,0,1-7.561,5.221,18.032,18.032,0,0,1-9.1,1.227,18.345,18.345,0,0,1-4.451-1.2,21.369,21.369,0,0,1-4.051-2.2Z" transform="translate(-127.553 -19.972)" fill="#008dd2"/>
      <path id="Path_965" data-name="Path 965" d="M185.861,70.553a17.357,17.357,0,0,0,7.019,2.825,16.406,16.406,0,0,0,7.447-.114,18.973,18.973,0,0,0,3.481-1.312,19.173,19.173,0,0,0,3.138-2.054,19.431,19.431,0,0,0,2.682-2.625,26.024,26.024,0,0,0,2.254-3.024,16.427,16.427,0,0,0,2.739-6.848,12.441,12.441,0,0,0-.057-3.709,19.943,19.943,0,0,0-1.056-3.595c-.485-1.17-1.027-2.311-1.512-3.509a14.177,14.177,0,0,1-.628-1.855,6.02,6.02,0,0,1-.114-2.026,4.08,4.08,0,0,1,.77-1.883,6.5,6.5,0,0,1,1.369-1.427,17.668,17.668,0,0,1,1.569-1.113A4.365,4.365,0,0,0,216.19,37a1.056,1.056,0,0,0,.086-.77,1.2,1.2,0,0,0-.485-.6,5.107,5.107,0,0,0-1.655-.713,16.52,16.52,0,0,0-3.766-.314,33.467,33.467,0,0,0-7.5,1.027,52.326,52.326,0,0,0-14.123,5.678,17.69,17.69,0,0,0-5.478,5.107A19.715,19.715,0,0,0,180.1,60.881a15.578,15.578,0,0,0,3,6.933.059.059,0,1,1-.029.114.086.086,0,0,1-.114,0,16.206,16.206,0,0,1-3.138-6.99,18.8,18.8,0,0,1,.086-7.675,20.171,20.171,0,0,1,3-7.076,18.06,18.06,0,0,1,5.592-5.307,53.582,53.582,0,0,1,14.237-5.735,36.549,36.549,0,0,1,7.646-1.056,17.861,17.861,0,0,1,3.88.342,5.307,5.307,0,0,1,1.855.8,1.826,1.826,0,0,1,.656.856,1.626,1.626,0,0,1-.114,1.113,4.594,4.594,0,0,1-1.37,1.484c-.571.4-1.084.713-1.569,1.113a4.785,4.785,0,0,0-1.883,3,6.809,6.809,0,0,0,.77,3.538c.514,1.141,1.084,2.311,1.569,3.509a18.175,18.175,0,0,1,1.2,3.709,13.981,13.981,0,0,1,.143,3.937,17.01,17.01,0,0,1-2.853,7.275,27.676,27.676,0,0,1-2.34,3.11,20.942,20.942,0,0,1-2.825,2.682,17.433,17.433,0,0,1-6.99,3.424,16.862,16.862,0,0,1-7.732-.057,20.314,20.314,0,0,1-7.019-3.167.116.116,0,1,1,.114-.2Z" transform="translate(-128.257 -24.357)" fill="#72cee2"/>
      <path id="Path_966" data-name="Path 966" d="M206.858,60.9a17.09,17.09,0,0,0-25.536,22.654.143.143,0,0,0,.114.086l.114.057a.314.314,0,0,0,.485-.257.285.285,0,0,0-.057-.257,15.007,15.007,0,0,1-2.168-3.738,15.493,15.493,0,1,1,4.822,6.391l-.143-.057a.314.314,0,0,0-.371.086.285.285,0,0,0-.057.285.4.4,0,0,0,.057.171l.086.114A17.09,17.09,0,0,0,206.858,60.9Z" transform="translate(-126.913 -39.868)" fill="url(#linear-gradient)"/>
      <path id="Path_967" data-name="Path 967" d="M184.72,84.529l1.341.884,1.4.77,1.484.628.742.257a3.937,3.937,0,0,0,.77.228,16.891,16.891,0,0,0,12.326-1.312,5.224,5.224,0,0,0,.685-.371l.685-.428a13.124,13.124,0,0,0,1.284-.913,10.042,10.042,0,0,0,1.17-1.027,13.243,13.243,0,0,0,1.084-1.113,16.891,16.891,0,0,0,3.167-5.392,16.605,16.605,0,0,0,.913-6.134,16.235,16.235,0,0,0-1.341-6.049,16.719,16.719,0,0,0-8.616-8.616,16.976,16.976,0,0,0-6.049-1.37,16.691,16.691,0,0,0-11.527,4.08c-.4.342-.77.713-1.141,1.084a10.336,10.336,0,0,0-1.027,1.2,13.13,13.13,0,0,0-.913,1.284l-.428.656c-.143.228-.228.457-.371.685a17.291,17.291,0,0,0-1.8,6.02,16.805,16.805,0,0,0,.485,6.305c.057.285.171.514.228.77l.257.77c.2.485.428.97.656,1.455s.514.942.742,1.427l.913,1.312a17.062,17.062,0,0,1-3.852-12.1,17.29,17.29,0,0,1,1.712-6.277,17.86,17.86,0,0,1,3.937-5.25,17.49,17.49,0,0,1,12.154-4.508,17.233,17.233,0,0,1,6.448,1.427,18,18,0,0,1,5.507,3.709,18.4,18.4,0,0,1,3.709,5.478,18.06,18.06,0,0,1,1.4,6.477A17.375,17.375,0,0,1,208.372,82.7a17.632,17.632,0,0,1-5.25,3.937,16.891,16.891,0,0,1-6.305,1.712A17.09,17.09,0,0,1,184.72,84.529Z" transform="translate(-127.172 -38.219)" fill="#005d9e"/>
      <path id="Path_968" data-name="Path 968" d="M185.617,88.3a15.521,15.521,0,0,0,5.478,2.768,16.263,16.263,0,0,0,11.955-1.141,17.118,17.118,0,0,0,4.822-3.738,16.319,16.319,0,0,0,2.71-17.176,16.748,16.748,0,0,0-3.424-4.993,15.863,15.863,0,0,0-5.022-3.424,16.206,16.206,0,0,0-5.935-1.341,16.3,16.3,0,0,0-16.662,14.722,16.2,16.2,0,0,0,.542,6.077,16.691,16.691,0,0,0,2.768,5.507,16.525,16.525,0,0,1-1.855-17.575,17.09,17.09,0,0,1,3.766-4.936,16.577,16.577,0,0,1,17.547-2.825,16.178,16.178,0,0,1,5.164,3.481,16.8,16.8,0,0,1,3.481,5.164,16.52,16.52,0,0,1,1.341,6.077,16.32,16.32,0,0,1-4.194,11.47,16.72,16.72,0,0,1-4.936,3.738,16.092,16.092,0,0,1-5.963,1.683,16.52,16.52,0,0,1-6.134-.656,15.921,15.921,0,0,1-5.449-2.882Z" transform="translate(-128.126 -42.072)" fill="#00aeef"/>
      <path id="Path_969" data-name="Path 969" d="M206.858,60.9a17.09,17.09,0,0,0-25.536,22.654.143.143,0,0,0,.114.086l.114.057a.314.314,0,0,0,.485-.257.285.285,0,0,0-.057-.257,15.007,15.007,0,0,1-2.168-3.738,15.493,15.493,0,1,1,4.822,6.391l-.143-.057a.314.314,0,0,0-.371.086.285.285,0,0,0-.057.285.4.4,0,0,0,.057.171l.086.114A17.09,17.09,0,0,0,206.858,60.9Z" transform="translate(-126.913 -39.868)" opacity="0.81" fill="url(#linear-gradient-2)"/>
      <path id="Path_970" data-name="Path 970" d="M327.569,180.924a1.683,1.683,0,1,1-1.683-1.626,1.626,1.626,0,0,1,1.683,1.626Zm-2.939,0a1.255,1.255,0,0,0,1.284,1.284,1.227,1.227,0,0,0,1.227-1.284,1.255,1.255,0,0,0-1.255-1.312,1.284,1.284,0,0,0-1.255,1.312Zm1,.827h-.371v-1.6l.628-.057a1.141,1.141,0,0,1,.571.114.43.43,0,0,1-.2.742h0a.513.513,0,0,1,.314.4,1.824,1.824,0,0,0,.114.4h-.4a1.254,1.254,0,0,1-.143-.371c-.029-.2-.114-.257-.342-.257h-.171Zm.029-.913h.171c.2,0,.371-.057.371-.228s-.114-.257-.342-.257h-.2Z" transform="translate(-231.704 -128.137)" fill="#f26a25"/>
    </g>
  </g>
</svg>
