<svg xmlns="http://www.w3.org/2000/svg" viewBox="0 0 95.99 67.509"><defs><linearGradient id="a" x1=".169" x2="1.061" y1=".818" y2="-.038" gradientUnits="objectBoundingBox"><stop offset="0" stop-color="#78d2f7"/><stop offset=".52" stop-color="#0090d6"/><stop offset="1" stop-color="#00558d"/></linearGradient><linearGradient id="b" x1=".169" x2="1.061" y1=".818" y2="-.038" gradientUnits="objectBoundingBox"><stop offset="0" stop-color="#c4e9fb"/><stop offset="1" stop-color="#fff" stop-opacity="0"/></linearGradient></defs><g data-name="Layer 2"><g data-name="Layer 1"><path fill="#004c68" d="M0 38.52h4.736v2.058h.029a3.77 3.77 0 0 1 3.652-2.4 6.4 6.4 0 0 1 1.427.2v4.365a5 5 0 0 0-1.94-.314c-1.969 0-2.967 1.113-2.967 3.88v5.107H0Z" data-name="Path 952"/><path fill="#004c68" d="M15.265 46.078a2.4 2.4 0 0 0 2.482 2.511 2.5 2.5 0 0 0 2.083-.942h4.594c-1 2.8-3.738 4.08-6.648 4.08-4.109 0-7.218-2.425-7.218-6.733a6.626 6.626 0 0 1 6.819-6.819c5.107 0 7.333 2.853 7.333 7.9Zm4.708-2.568a2.11 2.11 0 0 0-2.168-2.168 2.33 2.33 0 0 0-2.539 2.168Z" data-name="Path 953"/><path fill="#004c68" d="M38.831 48.535a5.02 5.02 0 0 0 .6 2.882h-5.023a3.7 3.7 0 0 1-.171-1.227h-.059a5.2 5.2 0 0 1-4.137 1.541c-2.482 0-4.565-1.17-4.565-3.88 0-4.109 4.793-3.909 7.3-4.422.656-.114 1.341-.314 1.341-1.141s-.827-1.2-1.626-1.2c-1.484 0-1.826.77-1.826 1.341h-4.587c.143-3.681 3.623-4.251 6.648-4.251 6.163 0 6.106 2.568 6.106 5.05Zm-4.708-2.91a11 11 0 0 1-1.94.628c-1.113.257-1.683.514-1.683 1.4s.656 1.17 1.541 1.17a2.08 2.08 0 0 0 2.083-2Z" data-name="Path 954"/><path fill="#004c68" d="M41.057 33.67h4.907v17.746h-4.907Z" data-name="Path 955"/><path fill="#008dd2" d="M0 54.27h4.736v2.086h.029a3.77 3.77 0 0 1 3.652-2.4 6.4 6.4 0 0 1 1.427.2v4.337a5 5 0 0 0-1.94-.314c-1.969 0-2.967 1.113-2.967 3.909v5.107H0Z" data-name="Path 956"/><path fill="#72cee2" d="M23.624 64.284a5.1 5.1 0 0 0 .6 2.91h-5.023a3.1 3.1 0 0 1-.171-1.227h-.059a5.26 5.26 0 0 1-4.166 1.541c-2.482 0-4.536-1.2-4.536-3.909 0-4.109 4.793-3.909 7.275-4.394.685-.143 1.341-.342 1.341-1.141s-.8-1.2-1.6-1.2c-1.512 0-1.855.77-1.855 1.312h-4.559c.114-3.652 3.595-4.223 6.648-4.223 6.163 0 6.106 2.568 6.106 5.05Zm-4.736-2.882a10.3 10.3 0 0 1-1.94.6c-1.084.285-1.655.542-1.655 1.4s.656 1.2 1.541 1.2a2.063 2.063 0 0 0 2.054-2.026Z" data-name="Path 957"/><path fill="#a9dcd9" d="M25.735 54.27h4.736v1.655h.057a4.66 4.66 0 0 1 4.194-1.969 4.34 4.34 0 0 1 4.422 4.365v8.873h-4.909v-6.79c0-1.484-.171-2.511-1.626-2.511-.856 0-1.969.4-1.969 2.482v6.819h-4.905Z" data-name="Path 958"/><path fill="#e0d2af" d="M54.466 67.195H49.73v-1.427h-.057c-.6.8-1.4 1.74-3.795 1.74-3.652 0-5.421-3.595-5.421-6.848s1.17-6.7 5.507-6.7a4.25 4.25 0 0 1 3.538 1.74h.057v-6.28h4.907Zm-6.9-9.672c-1.769 0-2.168 1.683-2.168 3.2s.4 3.2 2.168 3.2 2.168-1.683 2.168-3.2-.404-3.203-2.177-3.203Z" data-name="Path 959"/><path fill="#f1843c" d="M62.627 67.508c-4.85 0-7.019-3.224-7.019-6.79s2.168-6.762 7.019-6.762 7.047 3.2 7.047 6.762-2.197 6.79-7.047 6.79m0-9.986c-1.883 0-2.111 1.826-2.111 3.2s.228 3.2 2.111 3.2 2.111-1.826 2.111-3.2-.2-3.2-2.111-3.2" data-name="Path 960"/><path fill="#f26a25" d="M70.786 54.27h4.736v1.712h.057a4.66 4.66 0 0 1 4.223-2.026 3.43 3.43 0 0 1 3.481 2.026 5.04 5.04 0 0 1 4.394-2.026 4.13 4.13 0 0 1 4.422 4.365v8.873h-4.907v-6.99c0-1.227-.114-2.311-1.626-2.311s-1.655.942-1.655 2.311v6.99h-4.936v-6.99c0-1.227-.114-2.311-1.6-2.311s-1.683.942-1.683 2.311v6.99h-4.906Z" data-name="Path 961"/><path fill="#a9dcd9" d="M57.662 46.139a18.5 18.5 0 0 0 8.217 3.138 15.55 15.55 0 0 0 8.559-1.655 13.3 13.3 0 0 0 3.481-2.539 14 14 0 0 0 2.511-3.538 17.6 17.6 0 0 0 1.512-4.08 9.6 9.6 0 0 0 .342-2.111 3.74 3.74 0 0 0-.428-1.94 3.6 3.6 0 0 0-1.4-1.37 11 11 0 0 0-1.969-.827l-2.14-.628-1.113-.428a2.05 2.05 0 0 1-1.056-.884 1.8 1.8 0 0 1-.171-.742 1.7 1.7 0 0 1 .143-.685 5.7 5.7 0 0 1 .628-1.084 14.6 14.6 0 0 1 1.541-1.683c1.113-1.056 2.283-2 3.452-2.939a163 163 0 0 1 7.247-5.335l3.681-2.568 1.855-1.255.913-.656.884-.628a7 7 0 0 0 .8-.77 1.83 1.83 0 0 0 .428-.884 1.06 1.06 0 0 0-.285-.884 3 3 0 0 0-.856-.571 7.5 7.5 0 0 0-2.111-.628 14 14 0 0 0-2.2-.257 33 33 0 0 0-4.451 0 47 47 0 0 0-4.451.457 60 60 0 0 0-8.674 2.026 45 45 0 0 0-8.16 3.509 29.5 29.5 0 0 0-3.681 2.454l-1.683 1.427-.77.8a10 10 0 0 0-.742.8 24.1 24.1 0 0 0-4.651 7.447 20 20 0 0 0-1.084 4.223 17.4 17.4 0 0 0 0 4.394 14 14 0 0 0 .4 2.14 18 18 0 0 0 .685 2.111 19 19 0 0 0 2.083 3.88.26.26 0 0 1-.057.314c-.114.057-.257.057-.314-.057a18.4 18.4 0 0 1-2.283-3.909 20 20 0 0 1-.77-2.168 14 14 0 0 1-.457-2.225 18.66 18.66 0 0 1 1-9.016 25.7 25.7 0 0 1 4.765-7.732l.77-.827.827-.827a21 21 0 0 1 1.74-1.455 27 27 0 0 1 3.795-2.482 41 41 0 0 1 8.388-3.424 57.6 57.6 0 0 1 8.816-1.855 45 45 0 0 1 8.987-.371 21 21 0 0 1 2.254.285 9.5 9.5 0 0 1 2.168.628 3.4 3.4 0 0 1 1 .656 2.2 2.2 0 0 1 .342.542 1.7 1.7 0 0 1 .057.656 2.17 2.17 0 0 1-.542 1.084 4.5 4.5 0 0 1-.827.827l-.913.656-.913.656-1.826 1.284-3.652 2.625c-2.4 1.769-4.793 3.566-7.1 5.449-1.141.942-2.283 1.912-3.338 2.939a15 15 0 0 0-1.427 1.626 3.4 3.4 0 0 0-.485.884 1.1 1.1 0 0 0-.086.4.66.66 0 0 0 .057.342 1.7 1.7 0 0 0 .685.514 4.6 4.6 0 0 0 1 .342l2.14.628a10.2 10.2 0 0 1 2.168.884 4.39 4.39 0 0 1 2.34 4.109 12 12 0 0 1-.371 2.34 21.6 21.6 0 0 1-1.626 4.28 15.8 15.8 0 0 1-2.71 3.738 14 14 0 0 1-3.738 2.682 16.2 16.2 0 0 1-8.959 1.341 18.4 18.4 0 0 1-4.422-1.141 13.4 13.4 0 0 1-2.054-.942 22 22 0 0 1-1.94-1.2.2.2 0 0 1-.029-.257.23.23 0 0 1 .257-.057Z" data-name="Path 962" opacity=".7"/><path fill="#f1843c" d="M57.69 46.253a15.4 15.4 0 0 0 3.88 2.225 15 15 0 0 0 4.337 1 18.5 18.5 0 0 0 8.759-1.512 24.2 24.2 0 0 0 7.361-5.05 25.5 25.5 0 0 0 2.853-3.452 21 21 0 0 0 2.2-3.88 14.4 14.4 0 0 0 1.056-4.337c.086-.742.114-1.484.171-2.254a6.2 6.2 0 0 1 .457-2.254 5.25 5.25 0 0 1 1.455-1.8l.942-.656a6 6 0 0 0 .942-.6.63.63 0 0 0 .285-.342.54.54 0 0 0-.171-.342 4 4 0 0 0-.884-.571l-2.026-.97a19.4 19.4 0 0 1-3.909-2.34 9.3 9.3 0 0 1-2.768-3.623 9.5 9.5 0 0 1-.6-4.536 17 17 0 0 1 1.082-4.447c.285-.685.571-1.4.913-2.083a9.6 9.6 0 0 0 .856-2.026 2 2 0 0 0 .086-1 1 1 0 0 0-.485-.713 1.86 1.86 0 0 0-.971-.178 4.3 4.3 0 0 0-1.056.171 13.1 13.1 0 0 0-3.908 2.029 22 22 0 0 0-3.31 3 28.3 28.3 0 0 0-4.936 7.418 29.4 29.4 0 0 0-1.541 4.194c-.228.713-.456 1.427-.742 2.14a15 15 0 0 1-.884 2.111 4.6 4.6 0 0 1-.685 1.027 1.23 1.23 0 0 1-.628.371h-.4l-.371-.143a3.6 3.6 0 0 1-.913-.8c-.285-.257-.514-.542-.8-.77a3.14 3.14 0 0 0-1.769-.97 3.3 3.3 0 0 0-2 .371 8 8 0 0 0-.942.542l-.942.6-.884.685a10 10 0 0 0-.827.742 13 13 0 0 0-1.484 1.6 16 16 0 0 0-1.255 1.855 14.3 14.3 0 0 0-1.512 4.109 11.5 11.5 0 0 0-.257 2.2c-.029.371 0 .742 0 1.113a7 7 0 0 0 .086 1.113 17.4 17.4 0 0 0 1.113 4.308 18.6 18.6 0 0 0 2.2 3.88l-.2.143a19.8 19.8 0 0 1-2.34-3.88 15.8 15.8 0 0 1-1.255-4.394 14.44 14.44 0 0 1 1.655-8.9 14 14 0 0 1 1.284-1.912 17 17 0 0 1 1.541-1.712 11 11 0 0 1 .856-.742l.913-.713.942-.656c.342-.2.656-.4 1.027-.571a4.2 4.2 0 0 1 2.368-.428 3.94 3.94 0 0 1 2.14 1.141 11 11 0 0 1 .8.827 4.2 4.2 0 0 0 .77.685.66.66 0 0 0 .314.057.9.9 0 0 0 .314-.228 3.8 3.8 0 0 0 .6-.856 22 22 0 0 0 .856-2.026l.742-2.111a33 33 0 0 1 1.569-4.251 28.7 28.7 0 0 1 5.05-7.561 24.5 24.5 0 0 1 3.424-3.024 13.5 13.5 0 0 1 4.08-2.083 5.3 5.3 0 0 1 1.17-.2 2.7 2.7 0 0 1 1.227.228 1.6 1.6 0 0 1 .514.457 1.7 1.7 0 0 1 .228.628 2.9 2.9 0 0 1-.086 1.227 10 10 0 0 1-.942 2.083c-.314.685-.628 1.37-.884 2.054a16.2 16.2 0 0 0-1.084 4.308 8.96 8.96 0 0 0 .542 4.337 8.56 8.56 0 0 0 2.625 3.481 17.5 17.5 0 0 0 3.823 2.311c.685.342 1.37.628 2.054 1a3.5 3.5 0 0 1 .97.628 1 1 0 0 1 .2.285.63.63 0 0 1 .057.4 1.14 1.14 0 0 1-.4.542 9 9 0 0 1-.97.628 6.5 6.5 0 0 0-.913.628 4.8 4.8 0 0 0-1.369 1.655 6.7 6.7 0 0 0-.457 2.14c-.029.742-.057 1.512-.143 2.254a15.7 15.7 0 0 1-1.084 4.422 22 22 0 0 1-2.254 3.966 26 26 0 0 1-2.91 3.481 24.1 24.1 0 0 1-7.447 5.079 19.1 19.1 0 0 1-8.9 1.512 14.9 14.9 0 0 1-4.422-1.027 15.5 15.5 0 0 1-3.937-2.254Z" data-name="Path 963"/><path fill="#008dd2" d="M57.662 46.11a19.2 19.2 0 0 0 3.994 2.14 16.5 16.5 0 0 0 4.337 1.141 17.06 17.06 0 0 0 8.845-1.227 21.9 21.9 0 0 0 7.333-5.136 38 38 0 0 0 2.91-3.481c.884-1.227 1.74-2.482 2.511-3.795a58 58 0 0 0 4.08-8.1 45 45 0 0 0 1.512-4.28 26.3 26.3 0 0 0 .97-4.394 7 7 0 0 0 .057-1.084 2.5 2.5 0 0 0-.171-.97c-.057-.143-.143-.2-.2-.2a.43.43 0 0 0-.314.029 3.5 3.5 0 0 0-.827.6 17 17 0 0 0-1.455 1.683l-1.541 1.712a39 39 0 0 1-3.367 3.167 27 27 0 0 1-3.738 2.71 14 14 0 0 1-2.083 1.027 7.2 7.2 0 0 1-2.34.542 3.45 3.45 0 0 1-2.34-.656 4.37 4.37 0 0 1-1.37-2.026 8.2 8.2 0 0 1-.485-2.311 21 21 0 0 1-.086-2.311q.057-1.141.171-2.311c.086-.742.143-1.512.171-2.254a18 18 0 0 0-.285-4.479 5.7 5.7 0 0 0-.8-2.026 2.8 2.8 0 0 0-.685-.742 2.4 2.4 0 0 0-.942-.457 4.45 4.45 0 0 0-2.111.114 12.6 12.6 0 0 0-2.054.856 25.3 25.3 0 0 0-3.709 2.568c-1.2.942-2.311 1.969-3.424 3a38 38 0 0 0-3.138 3.281 26.7 26.7 0 0 0-4.508 7.818 23 23 0 0 0-1.056 4.394 19.8 19.8 0 0 0-.029 4.508 16.43 16.43 0 0 0 3.424 8.217l-.342.257a16.7 16.7 0 0 1-3.509-8.417 18 18 0 0 1 0-4.622 22 22 0 0 1 1.084-4.508 26.4 26.4 0 0 1 4.565-7.96 35 35 0 0 1 3.167-3.338 50 50 0 0 1 3.424-3.053 25 25 0 0 1 3.795-2.625 11.2 11.2 0 0 1 2.168-.913 4.8 4.8 0 0 1 2.4-.114 3.4 3.4 0 0 1 1.141.514 3.6 3.6 0 0 1 .827.913 6.5 6.5 0 0 1 .884 2.225 18 18 0 0 1 .314 4.622c-.029.77-.086 1.512-.171 2.283s-.114 1.512-.143 2.254a20 20 0 0 0 .057 2.254 11 11 0 0 0 .456 2.168 4 4 0 0 0 1.17 1.712 3.08 3.08 0 0 0 1.94.542 6.2 6.2 0 0 0 2.111-.514 11 11 0 0 0 2-1 28 28 0 0 0 3.652-2.653 38 38 0 0 0 3.281-3.11c.514-.571 1.027-1.113 1.512-1.712a14.4 14.4 0 0 1 1.541-1.74 3.5 3.5 0 0 1 1.027-.742 1.23 1.23 0 0 1 .8-.057.91.91 0 0 1 .6.571 3.4 3.4 0 0 1 .257 1.255 8.4 8.4 0 0 1-.057 1.2 24 24 0 0 1-1 4.508q-.661 2.206-1.541 4.337a56.6 56.6 0 0 1-4.166 8.188 57 57 0 0 1-2.6 3.823 34.5 34.5 0 0 1-2.967 3.509 23 23 0 0 1-7.561 5.221 18.03 18.03 0 0 1-9.1 1.227 18.4 18.4 0 0 1-4.451-1.2 21.4 21.4 0 0 1-4.051-2.2Z" data-name="Path 964"/><path fill="#72cee2" d="M57.604 46.196a17.36 17.36 0 0 0 7.019 2.825 16.4 16.4 0 0 0 7.447-.114 19 19 0 0 0 3.481-1.312 19 19 0 0 0 3.138-2.054 19.4 19.4 0 0 0 2.682-2.625 26 26 0 0 0 2.254-3.024 16.4 16.4 0 0 0 2.739-6.848 12.4 12.4 0 0 0-.057-3.709 20 20 0 0 0-1.056-3.595c-.485-1.17-1.027-2.311-1.512-3.509a14 14 0 0 1-.628-1.855 6 6 0 0 1-.114-2.026 4.1 4.1 0 0 1 .77-1.883 6.5 6.5 0 0 1 1.369-1.427 18 18 0 0 1 1.569-1.113 4.4 4.4 0 0 0 1.228-1.284 1.06 1.06 0 0 0 .086-.77 1.2 1.2 0 0 0-.485-.6 5.1 5.1 0 0 0-1.655-.713 16.5 16.5 0 0 0-3.766-.314 33.5 33.5 0 0 0-7.5 1.027 52.3 52.3 0 0 0-14.123 5.678 17.7 17.7 0 0 0-5.478 5.107 19.72 19.72 0 0 0-3.169 14.466 15.6 15.6 0 0 0 3 6.933.059.059 0 1 1-.029.114.086.086 0 0 1-.114 0 16.2 16.2 0 0 1-3.138-6.99 18.8 18.8 0 0 1 .086-7.675 20.2 20.2 0 0 1 3-7.076 18.1 18.1 0 0 1 5.592-5.307 53.6 53.6 0 0 1 14.237-5.735 36.6 36.6 0 0 1 7.646-1.056 18 18 0 0 1 3.88.342 5.3 5.3 0 0 1 1.855.8 1.83 1.83 0 0 1 .656.856 1.63 1.63 0 0 1-.114 1.113 4.6 4.6 0 0 1-1.37 1.484c-.571.4-1.084.713-1.569 1.113a4.79 4.79 0 0 0-1.883 3 6.8 6.8 0 0 0 .77 3.538c.514 1.141 1.084 2.311 1.569 3.509a18.2 18.2 0 0 1 1.2 3.709 14 14 0 0 1 .143 3.937 17 17 0 0 1-2.853 7.275 28 28 0 0 1-2.34 3.11 21 21 0 0 1-2.825 2.682 17.4 17.4 0 0 1-6.99 3.424 16.86 16.86 0 0 1-7.732-.057 20.3 20.3 0 0 1-7.019-3.167.116.116 0 1 1 .114-.2Z" data-name="Path 965"/><path fill="url(#a)" d="M206.858 60.9a17.09 17.09 0 0 0-25.536 22.654.14.14 0 0 0 .114.086l.114.057a.314.314 0 0 0 .485-.257.28.28 0 0 0-.057-.257 15 15 0 0 1-2.168-3.738 15.493 15.493 0 1 1 4.822 6.391l-.143-.057a.314.314 0 0 0-.371.086.28.28 0 0 0-.057.285.4.4 0 0 0 .057.171l.086.114A17.09 17.09 0 0 0 206.858 60.9" data-name="Path 966" transform="translate(-126.913 -39.868)"/><path fill="#005d9e" d="m57.548 46.31 1.341.884 1.4.77 1.484.628.742.257a4 4 0 0 0 .77.228 16.9 16.9 0 0 0 12.326-1.312 5 5 0 0 0 .685-.371l.685-.428a13 13 0 0 0 1.284-.913 10 10 0 0 0 1.17-1.027 13 13 0 0 0 1.084-1.113 16.9 16.9 0 0 0 3.167-5.392 16.6 16.6 0 0 0 .913-6.134 16.2 16.2 0 0 0-1.341-6.049 16.72 16.72 0 0 0-8.616-8.616 17 17 0 0 0-6.049-1.37 16.7 16.7 0 0 0-11.527 4.08c-.4.342-.77.713-1.141 1.084a10.3 10.3 0 0 0-1.027 1.2A13 13 0 0 0 53.985 24l-.428.656c-.143.228-.228.457-.371.685a17.3 17.3 0 0 0-1.8 6.02 16.8 16.8 0 0 0 .485 6.305c.057.285.171.514.228.77l.257.77c.2.485.428.97.656 1.455s.514.942.742 1.427l.913 1.312a17.06 17.06 0 0 1-3.852-12.1 17.3 17.3 0 0 1 1.712-6.277 17.9 17.9 0 0 1 3.937-5.25 17.5 17.5 0 0 1 12.154-4.508 17.2 17.2 0 0 1 6.448 1.427 18 18 0 0 1 5.507 3.709 18.4 18.4 0 0 1 3.709 5.478 18.1 18.1 0 0 1 1.4 6.477A17.38 17.38 0 0 1 81.2 44.481a17.6 17.6 0 0 1-5.25 3.937 16.9 16.9 0 0 1-6.305 1.712 17.1 17.1 0 0 1-12.097-3.82" data-name="Path 967"/><path fill="#00aeef" d="M57.491 46.228a15.5 15.5 0 0 0 5.478 2.768 16.26 16.26 0 0 0 11.955-1.141 17.1 17.1 0 0 0 4.822-3.738 16.32 16.32 0 0 0 2.71-17.176 16.8 16.8 0 0 0-3.424-4.993 15.9 15.9 0 0 0-5.022-3.424 16.2 16.2 0 0 0-5.935-1.341 16.3 16.3 0 0 0-16.662 14.722 16.2 16.2 0 0 0 .542 6.077 16.7 16.7 0 0 0 2.768 5.507 16.52 16.52 0 0 1-1.855-17.575 17.1 17.1 0 0 1 3.766-4.936 16.58 16.58 0 0 1 17.547-2.825 16.2 16.2 0 0 1 5.164 3.481 16.8 16.8 0 0 1 3.481 5.164 16.5 16.5 0 0 1 1.341 6.077 16.32 16.32 0 0 1-4.194 11.47 16.7 16.7 0 0 1-4.936 3.738 16.1 16.1 0 0 1-5.963 1.683 16.5 16.5 0 0 1-6.134-.656 15.9 15.9 0 0 1-5.449-2.882" data-name="Path 968"/><path fill="url(#b)" d="M206.858 60.9a17.09 17.09 0 0 0-25.536 22.654.14.14 0 0 0 .114.086l.114.057a.314.314 0 0 0 .485-.257.28.28 0 0 0-.057-.257 15 15 0 0 1-2.168-3.738 15.493 15.493 0 1 1 4.822 6.391l-.143-.057a.314.314 0 0 0-.371.086.28.28 0 0 0-.057.285.4.4 0 0 0 .057.171l.086.114A17.09 17.09 0 0 0 206.858 60.9" data-name="Path 969" opacity=".81" transform="translate(-126.913 -39.868)"/><path fill="#f26a25" d="M95.865 52.787a1.683 1.683 0 1 1-1.683-1.626 1.626 1.626 0 0 1 1.683 1.626m-2.939 0a1.255 1.255 0 0 0 1.284 1.284 1.227 1.227 0 0 0 1.227-1.284 1.255 1.255 0 0 0-1.255-1.312 1.284 1.284 0 0 0-1.255 1.312Zm1 .827h-.371v-1.6l.628-.057a1.14 1.14 0 0 1 .571.114.43.43 0 0 1-.2.742.51.51 0 0 1 .314.4 1.8 1.8 0 0 0 .114.4h-.4a1.3 1.3 0 0 1-.143-.371c-.029-.2-.114-.257-.342-.257h-.171Zm.029-.913h.171c.2 0 .371-.057.371-.228s-.114-.257-.342-.257h-.2Z" data-name="Path 970"/></g></g></svg>