<svg version="1.1" id="Laag_1" xmlns="http://www.w3.org/2000/svg" x="0" y="0" xml:space="preserve" viewBox="0 0 51.3 56.4"><style>.st0{fill:#6b6b6b}.st1{fill:#f28f1c}</style><path id="Path_403" class="st0" d="M4 .1h20.7v9.4h-12c-4.9 0-5.3 4.6-5.3 5.6v5.7c0 2.4 1.4 4.8 4.2 4.8h13.2v10.1h-6.6v7.2l-6.5-7.1H4c-2.7 0-4-2.4-4-4.9V4.5C-.1 2.2 1.7.2 4 .1z"/><circle id="Ellipse_5" class="st0" cx="14.2" cy="17.4" r="2.3"/><path id="Path_404" class="st0" d="M.9 41.8h2.7V48l1.8-2.8H8l-2.4 3.6 3 4.2H5.4l-1.9-3.2V53H.9V41.8z"/><path id="Path_405" class="st0" d="M12.2 46.9c.9-.1 1.7.6 1.8 1.5h-3.4c.1-.8.8-1.5 1.6-1.5zM8 49.2c0 2.2 1.6 3.9 4.3 3.9 1.6 0 3.1-.9 4-2.2l-2.3-.4s-.2.8-1.8.8-1.7-1.7-1.7-1.7h6c0-3.5-2.4-4.7-4.5-4.7-2.2 0-4 1.7-4.1 4 .1.1.1.2.1.3z"/><path id="Path_406" class="st0" d="M16.6 45.4h2.3l1.6 4.8 1.6-4.7h2.3l-4.1 11H18l1.3-3.6-2.7-7.5z"/><path id="Path_407" class="st0" d="M26.2 43.4h2.3v1.9h1.2v1.8h-1.2v3.5c0 .5.8.4 1.1.4v2s-3.3.6-3.3-1.8v-4.1H25v-1.8h1.2v-1.9z"/><path id="Path_408" class="st0" d="M36 46.2V45h2.5v8.2H36V52c-.7.6-1.6.9-2.5 1-1.7 0-3.4-1.1-3.4-3.9s1.8-4.1 3.5-4.1c.9 0 1.8.4 2.4 1.2zm-1.7.9c-1.1-.3-2.2.4-2.5 1.5-.3 1.1.4 2.2 1.5 2.5s2.2-.4 2.5-1.5c0-.2.1-.3.1-.5.1-1-.6-1.9-1.6-2z"/><path id="Rectangle_135" class="st0" d="M39.9 41.8h2.5v11.4h-2.5z"/><path id="Path_409" class="st0" d="M43.5 41.8h2.7v6.3l2.1-3H51l-2.5 3.8 2.9 4.3h-3.1l-2-3.5v3.5h-2.8c-.1 0 0-11.5 0-11.4z"/><path id="Rectangle_136" class="st1" d="M26.9 15.8H43V17H26.9z"/><path id="Path_410" class="st1" d="M47.9 0h-21v13.9h17.4c1 0 1.7.8 1.7 1.8v.1c0 .9-1.5 3.5-2 4.1-.5.7-1.2 1-2 1H27v14.4h20c2.3 0 4.2-1.4 4.2-4.7V4c.1-2.2-1.1-4-3.3-4z"/></svg>