<svg xmlns="http://www.w3.org/2000/svg" xml:space="preserve" id="Layer_1" x="0" y="0" viewBox="0 0 547.087 116.22"><style>.st1{fill:#28225e}</style><linearGradient id="SVGID_1_" x1="62.207" x2="105.119" y1="102.28" y2="10.812" gradientUnits="userSpaceOnUse"><stop offset="0" style="stop-color:#d0513d"/><stop offset="1" style="stop-color:#e09a3c"/></linearGradient><path d="M61.847 95.521c-6.718.001-13.419-1.415-19.737-4.235l9.843-22.048c5.931 2.647 12.538 2.825 18.604.505a24.16 24.16 0 0 0 13.512-12.797c5.465-12.244-.049-26.652-12.292-32.118L81.619 2.78c24.401 10.893 35.391 39.606 24.498 64.007-5.277 11.82-14.84 20.879-26.93 25.506a48.4 48.4 0 0 1-17.34 3.228" style="fill:url(#SVGID_1_)"/><path d="M32.266 113.332c-11.82-5.277-20.878-14.841-25.505-26.93S2.492 61.144 7.768 49.325c10.893-24.4 39.609-35.391 64.007-24.499l-9.842 22.048c-12.245-5.463-26.651.05-32.118 12.293a24.15 24.15 0 0 0-.505 18.604 24.16 24.16 0 0 0 12.798 13.513zM166.819 76.997q-4.21 0-7.813-1.395-3.605-1.393-6.261-3.946a18 18 0 0 1-4.13-6.024q-1.473-3.473-1.473-7.577 0-4.103 1.473-7.576a17.8 17.8 0 0 1 4.157-6.025q2.682-2.55 6.26-3.946 3.577-1.394 7.839-1.394 4.524 0 8.26 1.552a16.36 16.36 0 0 1 6.314 4.604l-4.419 4.156q-2-2.156-4.472-3.235-2.474-1.079-5.367-1.079-2.895 0-5.287.947a12.3 12.3 0 0 0-4.157 2.683 12.2 12.2 0 0 0-2.735 4.104q-.974 2.368-.974 5.209t.974 5.209a12.2 12.2 0 0 0 2.735 4.104 12.3 12.3 0 0 0 4.157 2.684q2.393.947 5.287.947 2.893 0 5.367-1.079 2.471-1.078 4.472-3.289l4.419 4.209q-2.577 3-6.314 4.577-3.735 1.58-8.312 1.58M235.268 76.471l-8.467-12.082c.179-.072.375-.126.549-.203q3.498-1.551 5.393-4.472 1.894-2.92 1.894-6.971 0-4.05-1.894-6.998-1.895-2.946-5.393-4.524-3.5-1.579-8.392-1.578h-15.152v36.829h6.839V65.737h8.313c.492 0 .953-.035 1.424-.059l7.52 10.792h7.366zm-9.812-29.148q2.288 1.894 2.288 5.419 0 3.472-2.288 5.419-2.29 1.946-6.814 1.946h-7.997V45.43h7.997q4.524 0 6.814 1.893M264.888 70.736V60.582h17.784v-5.63h-17.784v-9.576h20.046v-5.734h-26.885v36.829h27.622v-5.735zM336.653 76.471h7.156l-16.626-36.829h-6.735l-16.572 36.829h7.049l3.647-8.524h18.42zm-19.784-13.89 6.897-16.118 6.922 16.118zM392.002 45.35q-1.789-2.762-5.103-4.236-3.315-1.472-7.945-1.472h-13.206v36.829h2.684V64.422h10.522q4.63 0 7.945-1.472 3.314-1.473 5.103-4.262t1.789-6.63q0-3.945-1.789-6.708m-4.025 14.047q-3.078 2.605-9.024 2.604h-10.522v-19.94h10.522q5.945 0 9.024 2.603 3.077 2.606 3.077 7.393.001 4.737-3.077 7.34M421.308 74.051V39.642h-2.684v36.829h23.887v-2.42zM478.867 76.602q-6.84 0-10.786-3.998t-3.946-11.891V39.511h2.683v21.098q0 6.892 3.157 10.206 3.156 3.315 8.944 3.315 5.735 0 8.892-3.315t3.157-10.206V39.511h2.683v21.203q0 7.892-3.946 11.891-3.945 3.998-10.838 3.997M531.638 76.734q-4.104 0-7.76-1.394-3.658-1.393-5.657-3.604l1.211-2q1.894 1.947 5.183 3.289 3.288 1.341 6.971 1.341c3.683 0 4.463-.324 6.024-.974q2.34-.972 3.473-2.603a6.23 6.23 0 0 0 1.131-3.631q0-2.367-1.263-3.788-1.261-1.42-3.315-2.262a30.6 30.6 0 0 0-4.472-1.421 200 200 0 0 1-4.893-1.237q-2.473-.656-4.524-1.71-2.053-1.052-3.289-2.867-1.236-1.816-1.236-4.709 0-2.63 1.368-4.84t4.262-3.579q2.893-1.367 7.419-1.368 3.051 0 6.024.895 2.971.895 5.077 2.42l-.999 2.157a17.2 17.2 0 0 0-4.972-2.341q-2.658-.763-5.129-.763-3.526 0-5.841.999-2.314 1-3.42 2.657t-1.105 3.709q0 2.368 1.237 3.789 1.236 1.42 3.288 2.262a30 30 0 0 0 4.525 1.42q2.472.58 4.893 1.237a23 23 0 0 1 4.472 1.71q2.052 1.054 3.315 2.841 1.262 1.79 1.262 4.63 0 2.579-1.42 4.814-1.42 2.237-4.34 3.578-2.923 1.343-7.5 1.343" class="st1"/></svg>