<?xml version="1.0" encoding="utf-8"?>
<!-- Generator: Adobe Illustrator 27.5.0, SVG Export Plug-In . SVG Version: 6.00 Build 0)  -->
<svg version="1.1" id="Layer_1" xmlns="http://www.w3.org/2000/svg" xmlns:xlink="http://www.w3.org/1999/xlink" x="0px" y="0px"
	 viewBox="0 0 547.087 116.22" style="enable-background:new 0 0 547.087 116.22;"
	 xml:space="preserve">
<style type="text/css">
	.st0{fill:url(#SVGID_1_);}
	.st1{fill:#28225E;}
</style>
<g>
	<g>
		<g>
			<linearGradient id="SVGID_1_" gradientUnits="userSpaceOnUse" x1="62.207" y1="102.2803" x2="105.1191" y2="10.8118">
				<stop  offset="0" style="stop-color:#D0513D"/>
				<stop  offset="1" style="stop-color:#E09A3C"/>
			</linearGradient>
			<path class="st0" d="M61.847,95.521c-6.718,0.001-13.419-1.415-19.737-4.235l9.843-22.048c5.931,2.647,12.538,2.825,18.604,0.505
				c6.066-2.322,10.864-6.867,13.512-12.797c5.465-12.244-0.049-26.652-12.292-32.118l9.842-22.048
				c24.401,10.893,35.391,39.606,24.498,64.007c-5.277,11.82-14.84,20.879-26.93,25.506C73.559,94.448,67.697,95.521,61.847,95.521z
				"/>
		</g>
		<g>
			<path class="st1" d="M32.266,113.332c-11.82-5.277-20.878-14.841-25.505-26.93c-4.627-12.09-4.269-25.258,1.007-37.077
				c10.893-24.4,39.609-35.391,64.007-24.499l-9.842,22.048c-12.245-5.463-26.651,0.05-32.118,12.293
				c-2.648,5.931-2.827,12.538-0.505,18.604c2.322,6.066,6.867,10.865,12.798,13.513L32.266,113.332z"/>
		</g>
	</g>
	<g>
		<path class="st1" d="M166.819,76.997c-2.807,0-5.411-0.465-7.813-1.395c-2.403-0.929-4.491-2.244-6.261-3.946
			c-1.771-1.701-3.148-3.709-4.13-6.024c-0.982-2.316-1.473-4.84-1.473-7.577c0-2.735,0.491-5.261,1.473-7.576
			c0.982-2.316,2.368-4.323,4.157-6.025c1.788-1.7,3.875-3.016,6.26-3.946c2.385-0.929,4.998-1.394,7.839-1.394
			c3.016,0,5.77,0.518,8.26,1.552c2.491,1.035,4.595,2.57,6.314,4.604l-4.419,4.156c-1.334-1.437-2.824-2.516-4.472-3.235
			c-1.65-0.719-3.438-1.079-5.367-1.079c-1.93,0-3.692,0.316-5.287,0.947c-1.597,0.631-2.982,1.526-4.157,2.683
			c-1.176,1.158-2.087,2.526-2.735,4.104c-0.649,1.579-0.974,3.315-0.974,5.209c0,1.894,0.325,3.631,0.974,5.209
			c0.648,1.579,1.56,2.947,2.735,4.104c1.175,1.157,2.56,2.052,4.157,2.684c1.595,0.631,3.358,0.947,5.287,0.947
			c1.929,0,3.717-0.36,5.367-1.079c1.648-0.718,3.138-1.815,4.472-3.289l4.419,4.209c-1.718,2-3.823,3.525-6.314,4.577
			C172.641,76.471,169.87,76.997,166.819,76.997z"/>
		<path class="st1" d="M235.268,76.471l-8.467-12.082c0.179-0.072,0.375-0.126,0.549-0.203c2.332-1.034,4.13-2.525,5.393-4.472
			c1.262-1.946,1.894-4.27,1.894-6.971c0-2.7-0.632-5.033-1.894-6.998c-1.263-1.964-3.061-3.472-5.393-4.524
			c-2.333-1.053-5.13-1.578-8.392-1.578h-15.152v36.829h6.839V65.737h8.313c0.492,0,0.953-0.035,1.424-0.059l7.52,10.792H235.268z
			 M225.456,47.323c1.526,1.262,2.288,3.07,2.288,5.419c0,2.315-0.763,4.121-2.288,5.419c-1.527,1.298-3.798,1.946-6.814,1.946
			h-7.997V45.43h7.997C221.658,45.43,223.929,46.06,225.456,47.323z"/>
		<polygon class="st1" points="264.888,70.736 264.888,60.582 282.672,60.582 282.672,54.952 264.888,54.952 264.888,45.376 
			284.934,45.376 284.934,39.642 258.049,39.642 258.049,76.471 285.671,76.471 285.671,70.736 		"/>
		<path class="st1" d="M336.653,76.471h7.156l-16.626-36.829h-6.735l-16.572,36.829h7.049l3.647-8.524h18.42L336.653,76.471z
			 M316.869,62.581l6.897-16.118l6.922,16.118H316.869z"/>
		<path class="st1" d="M392.002,45.35c-1.193-1.842-2.893-3.253-5.103-4.236c-2.21-0.981-4.859-1.472-7.945-1.472h-13.206v36.829
			h2.684V64.422h10.522c3.086,0,5.735-0.49,7.945-1.472c2.21-0.982,3.91-2.403,5.103-4.262c1.192-1.859,1.789-4.069,1.789-6.63
			C393.791,49.428,393.194,47.192,392.002,45.35z M387.977,59.397c-2.052,1.737-5.06,2.604-9.024,2.604h-10.522v-19.94h10.522
			c3.963,0,6.972,0.867,9.024,2.603c2.052,1.737,3.077,4.202,3.077,7.393C391.055,55.215,390.029,57.662,387.977,59.397z"/>
		<polygon class="st1" points="421.308,74.051 421.308,39.642 418.624,39.642 418.624,76.471 442.511,76.471 442.511,74.051 		"/>
		<path class="st1" d="M478.867,76.602c-4.56,0-8.155-1.332-10.786-3.998c-2.631-2.665-3.946-6.63-3.946-11.891V39.511h2.683v21.098
			c0,4.595,1.053,7.997,3.157,10.206c2.104,2.21,5.086,3.315,8.944,3.315c3.823,0,6.787-1.105,8.892-3.315
			c2.104-2.209,3.157-5.611,3.157-10.206V39.511h2.683v21.203c0,5.261-1.315,9.225-3.946,11.891
			C487.075,75.271,483.462,76.602,478.867,76.602z"/>
		<path class="st1" d="M531.638,76.734c-2.735,0-5.323-0.464-7.76-1.394c-2.439-0.929-4.324-2.13-5.657-3.604l1.211-2
			c1.263,1.298,2.99,2.394,5.183,3.289c2.191,0.894,4.516,1.341,6.971,1.341s4.463-0.324,6.024-0.974
			c1.56-0.648,2.718-1.516,3.473-2.603c0.754-1.088,1.131-2.297,1.131-3.631c0-1.578-0.421-2.841-1.263-3.788
			c-0.841-0.947-1.946-1.701-3.315-2.262c-1.368-0.561-2.858-1.034-4.472-1.421c-1.613-0.386-3.244-0.798-4.893-1.237
			c-1.649-0.438-3.157-1.007-4.524-1.71c-1.368-0.701-2.465-1.657-3.289-2.867c-0.824-1.211-1.236-2.78-1.236-4.709
			c0-1.754,0.456-3.367,1.368-4.84c0.912-1.473,2.332-2.665,4.262-3.579c1.929-0.911,4.401-1.368,7.419-1.368
			c2.034,0,4.042,0.299,6.024,0.895c1.981,0.597,3.673,1.403,5.077,2.42l-0.999,2.157c-1.544-1.052-3.201-1.832-4.972-2.341
			c-1.772-0.508-3.482-0.763-5.129-0.763c-2.35,0-4.298,0.333-5.841,0.999c-1.543,0.667-2.683,1.553-3.42,2.657
			c-0.737,1.105-1.105,2.342-1.105,3.709c0,1.579,0.412,2.842,1.237,3.789c0.824,0.947,1.92,1.701,3.288,2.262
			c1.369,0.561,2.876,1.035,4.525,1.42c1.648,0.387,3.279,0.799,4.893,1.237c1.613,0.439,3.104,1.009,4.472,1.71
			c1.368,0.702,2.473,1.65,3.315,2.841c0.841,1.193,1.262,2.736,1.262,4.63c0,1.719-0.473,3.324-1.42,4.814
			c-0.947,1.492-2.394,2.683-4.34,3.578C537.189,76.287,534.69,76.734,531.638,76.734z"/>
	</g>
</g>
</svg>
