<?xml version="1.0" encoding="UTF-8"?>
<!DOCTYPE svg PUBLIC "-//W3C//DTD SVG 1.1//EN" "http://www.w3.org/Graphics/SVG/1.1/DTD/svg11.dtd">
<!-- Creator: CorelDRAW 2020 (64-Bit) -->
<svg xmlns="http://www.w3.org/2000/svg" xml:space="preserve" version="1.1" style="shape-rendering:geometricPrecision; text-rendering:geometricPrecision; image-rendering:optimizeQuality; fill-rule:evenodd; clip-rule:evenodd"
viewBox="0 0 98.17 17.56"
 xmlns:xlink="http://www.w3.org/1999/xlink"
 xmlns:xodm="http://www.corel.com/coreldraw/odm/2003">
 <defs>
  <style type="text/css">
   <![CDATA[
    .fil0 {fill:#F68E34;fill-rule:nonzero}
    .fil1 {fill:#666666;fill-rule:nonzero}
   ]]>
  </style>
 </defs>
 <g id="Layer_x0020_1">
  <metadata id="CorelCorpID_0Corel-Layer"/>
  <g id="_2118206276416">
   <path class="fil0" d="M11.36 9.06l0 0.8c0,0.45 -0.03,0.82 -0.09,1.12 -0.07,0.3 -0.19,0.54 -0.38,0.73 -0.18,0.18 -0.45,0.33 -0.8,0.42 -0.36,0.1 -0.83,0.16 -1.41,0.2 -0.58,0.03 -1.29,0.05 -2.14,0.04 -0.66,0.01 -1.23,0 -1.71,-0.02 -0.48,-0.02 -0.88,-0.07 -1.22,-0.16 -0.33,-0.09 -0.6,-0.23 -0.82,-0.43 -0.21,-0.2 -0.37,-0.48 -0.49,-0.83 -0.12,-0.36 -0.21,-0.81 -0.26,-1.37 -0.05,-0.55 -0.08,-1.23 -0.09,-2.04 -0.01,-0.8 -0.02,-1.75 -0.02,-2.84 0,-0.59 0.04,-1.08 0.11,-1.48 0.07,-0.4 0.19,-0.72 0.35,-0.97 0.17,-0.25 0.4,-0.44 0.68,-0.57 0.28,-0.13 0.64,-0.21 1.07,-0.25 0.16,-0.02 0.38,-0.03 0.64,-0.05 0.27,-0.01 0.57,-0.02 0.89,-0.04 0.33,-0.01 0.66,-0.02 0.99,-0.02 0.34,-0.01 0.66,-0.01 0.95,-0.01 0.75,-0.01 1.35,0.02 1.82,0.08 0.46,0.07 0.81,0.18 1.06,0.36 0.24,0.17 0.41,0.43 0.5,0.77 0.09,0.33 0.14,0.77 0.15,1.32l0 0.42 1.83 0c-0.01,-0.31 -0.02,-0.56 -0.04,-0.75 -0.01,-0.19 -0.02,-0.35 -0.04,-0.48 -0.01,-0.13 -0.02,-0.27 -0.04,-0.4 -0.06,-0.49 -0.23,-0.91 -0.5,-1.28 -0.26,-0.37 -0.61,-0.65 -1.04,-0.85 -0.2,-0.09 -0.42,-0.17 -0.63,-0.24 -0.22,-0.06 -0.46,-0.11 -0.74,-0.14 -0.27,-0.04 -0.59,-0.06 -0.96,-0.08 -0.37,-0.01 -0.81,-0.02 -1.32,-0.02 -0.73,0 -1.35,0.01 -1.86,0.02 -0.52,0.01 -0.96,0.04 -1.32,0.07 -0.38,0.03 -0.71,0.06 -1,0.11 -0.6,0.1 -1.13,0.27 -1.59,0.51 -0.47,0.25 -0.85,0.56 -1.14,0.92 -0.29,0.37 -0.48,0.78 -0.58,1.24 -0.03,0.15 -0.06,0.29 -0.08,0.42 -0.02,0.13 -0.04,0.29 -0.05,0.46 -0.02,0.17 -0.02,0.39 -0.03,0.65 -0.01,0.26 -0.01,0.58 -0.01,0.98 0,0.4 0,0.89 0,1.47 0,0.23 0,0.5 0.01,0.79 0.01,0.29 0.02,0.6 0.04,0.9 0.02,0.3 0.03,0.58 0.05,0.85 0.02,0.26 0.05,0.48 0.07,0.65 0.1,0.9 0.35,1.62 0.76,2.16 0.4,0.53 0.98,0.91 1.74,1.14 0.27,0.08 0.55,0.15 0.85,0.2 0.3,0.05 0.65,0.09 1.05,0.11 0.4,0.02 0.9,0.03 1.48,0.03l2.64 -0.02c0.73,-0.03 1.35,-0.09 1.85,-0.18 0.5,-0.09 0.92,-0.23 1.25,-0.41 0.33,-0.18 0.6,-0.41 0.82,-0.7 0.14,-0.19 0.26,-0.4 0.34,-0.64 0.09,-0.23 0.15,-0.51 0.18,-0.83 0.04,-0.33 0.05,-0.72 0.04,-1.18l0 -0.66 -1.81 0zm3.89 4.48l1.84 0 0 -5.39 5.55 0c0.43,0 0.78,0.01 1.05,0.04 0.28,0.02 0.5,0.07 0.7,0.13 0.19,0.07 0.38,0.16 0.56,0.28 0.18,0.12 0.33,0.27 0.45,0.43 0.12,0.17 0.2,0.37 0.25,0.6 0.05,0.24 0.08,0.52 0.08,0.85l0 3.06 1.84 0 0 -3.4c0,-0.81 -0.22,-1.43 -0.65,-1.86 -0.43,-0.43 -1.08,-0.67 -1.95,-0.73l0 -0.02c0.54,-0.07 1,-0.18 1.36,-0.34 0.36,-0.15 0.65,-0.36 0.86,-0.63 0.22,-0.27 0.37,-0.61 0.46,-1.03 0.09,-0.42 0.14,-0.93 0.14,-1.53 0,-0.94 -0.15,-1.7 -0.47,-2.26 -0.31,-0.57 -0.81,-0.98 -1.51,-1.23 -0.71,-0.25 -1.64,-0.38 -2.8,-0.37l-7.76 0 0 13.4zm1.84 -6.69l0 -5.4 5.95 0c0.64,0 1.17,0.05 1.58,0.16 0.41,0.11 0.71,0.28 0.89,0.5 0.11,0.12 0.2,0.28 0.26,0.47 0.07,0.19 0.11,0.44 0.14,0.74 0.03,0.3 0.04,0.68 0.04,1.14 0.01,0.6 -0.1,1.07 -0.32,1.42 -0.22,0.35 -0.59,0.6 -1.11,0.75 -0.52,0.15 -1.23,0.22 -2.12,0.22l-5.31 0zm14.61 -5.4l8.64 0 0 -1.31 -10.47 0 0 13.4 10.47 0 0 -1.31 -8.64 0 0 -4.98 8.28 0 0 -1.26 -8.28 0 0 -4.54zm21.03 9.26l1.27 2.83 1.94 0 -6.1 -13.4 -2.59 0 -5.98 13.4 1.96 0 1.25 -2.83 8.25 0zm-0.54 -1.21l-7.19 0 3.57 -8.13 3.62 8.13z"/>
   <path class="fil1" d="M59.49 4.16l0 13.4 1.66 0 0 -5.13 0.05 0c0.22,0.3 0.48,0.55 0.81,0.73 0.31,0.18 0.71,0.31 1.19,0.4 0.47,0.08 1.06,0.12 1.75,0.12 0.81,0 1.5,-0.08 2.07,-0.24 0.56,-0.16 1.01,-0.43 1.35,-0.79 0.34,-0.37 0.58,-0.85 0.73,-1.46 0.16,-0.6 0.23,-1.33 0.23,-2.21 0,-0.7 -0.04,-1.3 -0.11,-1.82 -0.07,-0.52 -0.19,-0.96 -0.34,-1.32 -0.16,-0.37 -0.36,-0.67 -0.6,-0.9 -0.21,-0.19 -0.48,-0.36 -0.82,-0.5 -0.33,-0.13 -0.72,-0.24 -1.15,-0.31 -0.44,-0.08 -0.92,-0.11 -1.44,-0.11 -0.69,0 -1.27,0.04 -1.76,0.13 -0.48,0.09 -0.88,0.24 -1.21,0.44 -0.32,0.19 -0.59,0.45 -0.8,0.77l-0.02 -0.02 0.07 -1.18 -1.66 0zm4.94 1.02c0.66,0 1.19,0.05 1.61,0.15 0.42,0.1 0.74,0.29 0.96,0.56 0.23,0.26 0.38,0.64 0.47,1.14 0.08,0.49 0.13,1.13 0.12,1.91 0.01,0.72 -0.04,1.32 -0.13,1.79 -0.09,0.46 -0.24,0.83 -0.46,1.09 -0.23,0.26 -0.54,0.44 -0.95,0.55 -0.4,0.1 -0.91,0.15 -1.54,0.14 -0.67,0.01 -1.22,-0.04 -1.66,-0.15 -0.43,-0.11 -0.78,-0.29 -1.02,-0.56 -0.24,-0.27 -0.41,-0.64 -0.51,-1.11 -0.1,-0.47 -0.15,-1.07 -0.14,-1.79 -0.01,-0.77 0.03,-1.4 0.12,-1.89 0.09,-0.49 0.25,-0.86 0.48,-1.13 0.24,-0.27 0.57,-0.45 1,-0.55 0.43,-0.1 0.98,-0.15 1.65,-0.15zm9.21 -5.04l-1.67 0 0 13.4 1.67 0 0 -13.4zm12.26 4.02l-1.66 0 0 5.38c0.01,0.75 -0.1,1.35 -0.32,1.78 -0.21,0.44 -0.57,0.75 -1.07,0.93 -0.51,0.18 -1.19,0.27 -2.06,0.26 -0.67,0.01 -1.2,-0.05 -1.57,-0.17 -0.37,-0.12 -0.62,-0.33 -0.77,-0.64 -0.15,-0.3 -0.22,-0.74 -0.21,-1.3l0 -6.24 -1.66 0 0 6.24c-0.01,0.77 0.13,1.4 0.4,1.88 0.27,0.48 0.69,0.84 1.28,1.06 0.58,0.23 1.33,0.34 2.26,0.34 0.98,0 1.79,-0.12 2.42,-0.34 0.62,-0.23 1.08,-0.59 1.37,-1.07l0.05 0.04 -0.12 1.23 1.66 0 0 -9.38zm11.92 2.45l0 -0.34c0.01,-0.56 -0.13,-1.01 -0.42,-1.34 -0.29,-0.33 -0.76,-0.56 -1.43,-0.71 -0.66,-0.14 -1.56,-0.21 -2.67,-0.2 -0.94,-0.01 -1.72,0.03 -2.33,0.11 -0.62,0.08 -1.1,0.22 -1.45,0.42 -0.35,0.19 -0.6,0.46 -0.74,0.81 -0.14,0.34 -0.21,0.77 -0.21,1.29 0,0.5 0.06,0.91 0.18,1.24 0.13,0.33 0.33,0.6 0.6,0.79 0.27,0.19 0.63,0.34 1.08,0.42 0.17,0.04 0.41,0.07 0.73,0.1 0.31,0.04 0.67,0.07 1.08,0.09 0.4,0.03 0.83,0.06 1.27,0.07 0.44,0.02 0.88,0.03 1.3,0.04 0.44,0 0.78,0.04 1.02,0.12 0.24,0.09 0.4,0.24 0.49,0.46 0.09,0.21 0.14,0.51 0.13,0.91 0,0.32 -0.05,0.59 -0.14,0.82 -0.09,0.22 -0.22,0.38 -0.39,0.48 -0.21,0.13 -0.55,0.23 -1.01,0.29 -0.46,0.06 -1.04,0.09 -1.74,0.09 -0.6,0 -1.1,-0.02 -1.5,-0.07 -0.4,-0.04 -0.68,-0.11 -0.85,-0.19 -0.2,-0.1 -0.37,-0.27 -0.48,-0.5 -0.12,-0.23 -0.18,-0.51 -0.18,-0.82 0,-0.05 0,-0.11 0.01,-0.19 0,-0.08 0,-0.16 0.02,-0.26l-1.72 0c-0.01,0.11 -0.02,0.21 -0.02,0.31 0,0.09 0,0.17 0,0.24 -0.01,0.48 0.08,0.88 0.25,1.22 0.16,0.33 0.43,0.6 0.81,0.8 0.37,0.2 0.86,0.34 1.47,0.43 0.61,0.09 1.36,0.14 2.24,0.14 0.76,0 1.39,-0.02 1.9,-0.07 0.52,-0.04 0.95,-0.11 1.28,-0.21 0.34,-0.1 0.63,-0.22 0.86,-0.38 0.3,-0.22 0.52,-0.5 0.67,-0.86 0.16,-0.36 0.24,-0.78 0.24,-1.25 0,-0.42 -0.05,-0.78 -0.15,-1.09 -0.1,-0.31 -0.26,-0.58 -0.46,-0.8 -0.16,-0.18 -0.34,-0.32 -0.56,-0.43 -0.23,-0.11 -0.5,-0.2 -0.82,-0.26 -0.32,-0.05 -0.7,-0.09 -1.15,-0.12 -0.66,-0.02 -1.2,-0.04 -1.63,-0.06 -0.43,-0.01 -0.78,-0.02 -1.03,-0.03 -0.26,-0.02 -0.46,-0.02 -0.6,-0.03 -0.13,-0.01 -0.24,-0.02 -0.31,-0.03 -0.08,-0.01 -0.15,-0.02 -0.22,-0.03 -0.25,-0.03 -0.44,-0.1 -0.58,-0.2 -0.14,-0.1 -0.25,-0.26 -0.31,-0.47 -0.06,-0.21 -0.09,-0.49 -0.09,-0.83 0,-0.31 0.03,-0.55 0.1,-0.74 0.08,-0.19 0.21,-0.33 0.42,-0.42 0.21,-0.1 0.51,-0.17 0.9,-0.2 0.4,-0.03 0.92,-0.05 1.57,-0.05 0.65,0 1.16,0.01 1.55,0.04 0.38,0.03 0.67,0.1 0.87,0.19 0.19,0.1 0.32,0.25 0.38,0.45 0.07,0.2 0.1,0.47 0.11,0.81l1.66 0z"/>
  </g>
 </g>
</svg>
