<?xml version="1.0" encoding="UTF-8"?><svg id="Warstwa_1" xmlns="http://www.w3.org/2000/svg" viewBox="0 0 2381.1 2381.1"><defs><style>.cls-1{fill:#fff;}.cls-2{fill:#03161d;}</style></defs><rect class="cls-1" width="2381.1" height="2381.1"/><path class="cls-2" d="M1778.16,1282.6c108.59,0,192.25-27.97,248.66-83.12,26.05-25.47,45.21-55.81,56.95-90.18l7.4-21.68h-124.09l-4.52,9.09c-20.85,41.94-46.79,94.13-184.4,94.13-73.81,0-128.69-22.41-163.11-66.59-33.37-42.84-34.33-88.87-34.33-93.98s.96-51.14,34.33-93.98c34.42-44.19,89.29-66.59,163.11-66.59,137.62,0,163.56,52.19,184.4,94.13l4.52,9.09h124.09l-7.4-21.68c-11.73-34.37-30.89-64.71-56.95-90.18-56.41-55.15-140.07-83.12-248.66-83.12s-192.26,27.97-248.66,83.12c-60.93,59.57-70.02,131.58-70.02,169.21s9.1,109.64,70.02,169.21c56.41,55.15,140.07,83.12,248.66,83.12Z"/><path class="cls-2" d="M807.44,1148.02c0-51.87-29.74-96.67-74.63-117.82,44.67-21.3,74.26-66.13,74.26-117.91,0-74.08-60.27-134.36-134.36-134.36h-383.04v504.66l383.41-.22c74.08,0,134.36-60.27,134.36-134.36h0ZM312.53,801.85h358.39c60.43,0,109.59,46.53,109.59,103.72s-51.21,111.55-109.59,111.55h-358.39v-215.26h0ZM312.91,1259.06v-217.71h358.58c58.64,0,110.08,53.4,110.08,113.16s-49.38,104.55-110.08,104.55h-358.58Z"/><polygon class="cls-2" points="1088.45 1070.14 923.92 1234.65 940.81 1251.54 1105.32 1087.04 1099.5 1075.95 1088.45 1070.14"/><polygon class="cls-2" points="924.21 825.56 1089.61 990.97 1100.71 985.15 1106.52 974.1 941.1 808.67 924.21 825.56"/><polygon class="cls-2" points="1251.95 1071.25 1251.94 1071.25 1229.2 1048.5 1187.04 1071.56 1164.22 1113.28 1269.64 1218.7 1269.64 1218.71 1302.27 1251.34 1367.16 1186.46 1251.95 1071.25"/><polygon class="cls-2" points="1228.1 1012.46 1251.04 989.52 1251.04 989.52 1366.25 874.31 1301.37 809.43 1268.73 842.06 1268.73 842.07 1163.21 947.59 1186.13 989.5 1228.1 1012.46"/><path class="cls-2" d="M320.4,1587.52c-9.6-3.94-17.12-9.81-22.56-17.62-5.45-7.8-8.16-17.44-8.16-28.9v-1.5h12.89v1.29c0,9.31,2.15,17.05,6.45,23.2,4.3,6.16,10.38,10.74,18.26,13.75s17.19,4.51,27.93,4.51c11.46-.14,21.06-1.79,28.79-4.94,7.73-3.15,13.25-7.45,16.54-12.89,1.15-2.43,2.04-4.9,2.69-7.41.64-2.5.97-4.97.97-7.41,0-2.58-.22-4.83-.65-6.77-.43-1.93-1.07-3.76-1.93-5.48-.14-.14-.22-.28-.22-.43s-.07-.28-.21-.43c-2.29-4.15-6.09-7.48-11.39-9.99-5.3-2.51-11.82-4.26-19.55-5.27l-33.3-4.08c-10.31-1.58-18.77-3.98-25.35-7.2-6.59-3.22-11.46-7.55-14.61-13-1.43-2.58-2.55-5.37-3.33-8.38-.79-3.01-1.18-6.23-1.18-9.67,0-3.87.43-7.48,1.29-10.85.86-3.36,2.15-6.48,3.87-9.35,4.3-7.45,11.39-13.28,21.27-17.51,9.88-4.22,21.84-6.34,35.88-6.34,12.89,0,24.1,1.93,33.62,5.8s16.94,9.6,22.24,17.19,7.95,16.97,7.95,28.14v1.5h-12.68v-1.07c0-13.46-4.51-23.56-13.54-30.29-9.02-6.73-21.63-10.1-37.81-10.1-11.75,0-21.48,1.61-29.22,4.83-7.73,3.22-13.18,7.56-16.33,13-1.15,2.15-2.01,4.4-2.58,6.77-.57,2.36-.86,4.91-.86,7.63,0,2.29.25,4.48.75,6.55.5,2.08,1.25,3.98,2.26,5.69,2.43,4.01,6.26,7.27,11.49,9.78,5.23,2.51,12.14,4.4,20.73,5.69l33.3,4.08c9.88,1.43,18.01,3.83,24.39,7.2,6.37,3.37,11.06,7.63,14.07,12.78,1.43,2.87,2.51,5.84,3.22,8.91.71,3.08,1.07,6.41,1.07,9.99,0,3.87-.36,7.52-1.07,10.96-.72,3.44-1.93,6.59-3.65,9.45-4.73,7.74-11.96,13.68-21.7,17.83-9.74,4.15-21.63,6.23-35.66,6.23s-24.78-1.97-34.38-5.91v.04Z"/><polygon class="cls-2" points="628.17 1452.14 628.17 1436.95 517.8 1436.95 517.8 1591.36 628.17 1591.36 628.17 1576.17 534.07 1576.17 534.07 1521.75 626.02 1521.75 626.02 1506.13 534.07 1506.13 534.07 1452.14 628.17 1452.14"/><path class="cls-2" d="M906.45,1492.7v-1.99h-.2c-1.33-11.19-5.56-21.34-12.59-30.19-7.34-9.23-17.46-16.58-30.07-21.84-12.47-5.2-26.94-7.83-43.01-7.83-14.13,0-27.27,2.1-39.04,6.24-11.85,4.18-22.11,10.2-30.5,17.91-8.46,7.78-14.74,17.16-18.64,27.82-1.37,3.5-2.41,7.02-3.1,10.45-.67,3.37-1.16,6.84-1.46,10.33-.3,3.44-.44,6.99-.44,10.55,0,5.49.38,10.79,1.12,15.74.75,5.01,1.97,10.07,3.65,15.11,4.08,10.86,10.43,20.31,18.88,28.08,8.37,7.7,18.51,13.76,30.13,18.01,11.57,4.22,24.54,6.37,38.55,6.37,15.81,0,29.79-2.61,41.57-7.75,11.87-5.18,21.53-12.41,28.72-21.49,7.18-9.07,11.97-19.78,14.26-32.02l.03-.18v-4.61h-20.94v4.01c-1.89,8.32-5.51,15.74-10.77,22.04-5.35,6.41-12.46,11.49-21.12,15.08-8.78,3.65-19.1,5.5-30.68,5.5s-21.43-1.62-30.7-4.83c-9.15-3.16-17.05-7.82-23.48-13.85-6.38-5.98-11.18-13.22-14.28-21.57-1.46-3.58-2.54-7.35-3.2-11.2-.67-3.89-1.02-8.07-1.02-12.42,0-4.07.34-8.23,1.02-12.35.67-4.06,1.72-7.7,3.28-11.3,2.78-8.34,7.41-15.59,13.76-21.54,6.43-6.03,14.33-10.68,23.48-13.85,9.27-3.21,19.6-4.83,30.7-4.83,12.17,0,23.13,1.89,32.57,5.63,9.29,3.68,16.79,8.79,22.27,15.2,5.36,6.28,8.84,13.65,10.31,21.91v3.89h17.02l3.92-.21v-2.16l.16-.02-.16-1.82v-.02Z"/><path class="cls-2" d="M1130.01,1434.43v94.33c0,9.66-1.99,18.14-5.91,25.22-3.82,6.91-9.4,12.26-16.58,15.91-7.41,3.77-16.46,5.68-26.91,5.68s-19.94-1.91-27.34-5.68c-7.2-3.66-12.87-9.04-16.83-15.98-4.03-7.06-6.08-15.52-6.08-25.15v-94.33h-24.53v94.33c0,14.02,3.04,26.55,9.04,37.22,6.08,10.83,14.92,19.23,26.27,24.99,11.12,5.64,24.33,8.49,39.25,8.49s27.75-2.85,39.01-8.48,20.38-14.15,26.32-24.94c5.84-10.6,8.81-23.14,8.81-37.29v-94.33h-24.53.01Z"/><path class="cls-2" d="M1334.5,1527.03c9.96-.45,18.7-2.25,26.04-5.37,9.26-3.93,16.11-9.83,20.25-17.36,2.45-3.57,4.2-7.75,5.2-12.41.91-4.2,1.36-8.57,1.36-12.97s-.56-8.94-1.67-13.14c-1.09-4.1-2.51-7.85-4.4-11.58-4.56-7.71-11.3-13.64-20.03-17.62-8.25-3.76-18.52-5.66-30.51-5.66h-77.01v166.48h28.33v-69.61h15.85l60.3,69.61h38.25l-61.98-70.36h.02ZM1282.09,1458.17h48.03c7.3,0,13.23.97,17.63,2.88,3.82,1.66,6.57,4.05,8.47,7.39.73,1.14,1.26,2.49,1.57,3.99.39,1.99.59,4.17.59,6.49s-.23,4.76-.69,6.94c-.39,1.83-1,3.46-1.84,4.86-1.81,3.05-4.65,5.4-8.45,7-4.43,1.86-10.39,2.81-17.72,2.81h-47.6v-42.35h0Z"/><rect class="cls-2" x="1495.7" y="1428.9" width="32.36" height="170.5"/><polygon class="cls-2" points="1627.27 1426.89 1627.27 1462.2 1690.65 1462.2 1690.65 1601.42 1727.25 1601.42 1727.25 1462.2 1790.84 1462.2 1790.84 1426.89 1627.27 1426.89"/><polygon class="cls-2" points="2041.16 1424.88 1990.51 1497.23 1940.03 1424.88 1890.05 1424.88 1970.18 1538.44 1970.18 1603.43 2010.58 1603.43 2010.58 1538.77 2091.17 1424.88 2041.16 1424.88"/></svg>