<svg xmlns="http://www.w3.org/2000/svg" xml:space="preserve" width="188.3" height="116.55" viewBox="0 0 188.304 116.548"><path fill="#f0c33b" d="M128.154 7.252c-12.183-.076-26.517 4.071-37.115 16.34-7.876 9.116-11.226 20.39-9.754 31.756 4.296-2.273 9.78-3.51 16.285-3.51 2.176 0 4.202.15 6.086.432.336-6.72 2.696-13.216 6.48-17.096 16.439-17.351 50.396-16.708 50.995 10.725 1.93-8.54.886-16.012-2.252-22.045-2.544-4.893-6.483-8.854-11.34-11.676-4.887-2.84-10.707-4.527-16.98-4.856a52 52 0 0 0-2.406-.07zm5.303 35.844a27 27 0 0 0-4.006.357c21.75 12.604 11.525 37.087-11.24 32.607-3.34-.881-6.041-2.499-8.174-4.605h-7.693c.056-4.04-2.191-6.063-6.989-6.063-3.285 0-5.73 1.853-6.047 4.125-.477 3.453 4.338 4.547 13.664 8.926 7.874 3.676 11.822 8.316 11.957 14.762 4.374.923 8.931 1.056 13.426.113 39.315-9.371 31.366-50.54 5.102-50.223z"/><path fill="#245397" d="M137.214 1.12c-13.059.068-25.874 4.102-36.055 12.312 9.936-6.231 20.466-8.762 30.016-8.26 6.575.345 12.7 2.126 17.863 5.123 5.196 3.021 9.416 7.274 12.156 12.54 3.816 7.335 4.724 16.615 1.334 27.226h.04l-.009.027h24.166c.224-2.05.366-3.399.371-3.457 1.09-17.839-8.08-32.928-23.5-40.145a66.3 66.3 0 0 0-26.38-5.365zm25.346 48.968h-.039l.008-.027h-7.777c1.72 2.918 2.9 6.174 3.486 9.59h1.555zm-64.99 1.75c-15.489 0-25.214 6.99-26.79 18.354-1.322 9.514 4.29 13.979 15.593 19.28 6.084 2.865 9.9 3.872 9.41 7.41-.43 3.114-2.95 4.882-7.244 4.882-5.81 0-8.669-2.441-8.049-6.902l.022-.168H61.737c-1.788 12.883 6.781 20.893 24.295 20.893 16.84 0 27.044-7.424 28.717-19.463 1.109-7.998-2.758-13.47-11.775-17.68-9.326-4.38-14.143-5.472-13.664-8.926.316-2.273 2.763-4.125 6.047-4.125 4.799 0 7.043 2.022 6.988 6.062h18.1c.78-12.295-7.38-19.618-22.871-19.618zm-58.639 1.599L.881 113.97h19.63l4.037-7.242H43.83l-.08 7.242h18.27l-3.723-60.535H38.931zm88.121 0-6.777 22.955c16.29 2.027 25.359-11.17 19.29-22.955zm37.553 0-10.57 36.117c-2.264 7.831-4.971 10.949-11.959 10.949-5.22 0-7.674-2.95-6.914-8.422q.066-.468.162-.934a52 52 0 0 1-6.969 2.17c-4.165.874-8.388.827-12.467.078-1.57 14.471 6.823 22.271 24.166 22.271 18.355 0 27.852-7.756 32.902-25.352l10.676-36.879h-19.027zm-121.2 18.69.094 22.396H31.036z"/></svg>