<svg xmlns="http://www.w3.org/2000/svg" viewBox="0 0 1100 500"><g fill="#414180"><path d="M614.797 214.132c-35.024 0-63.657 30.341-63.657 67.703 0 36.716 28.633 66.739 63.657 66.739 34.91 0 63.543-30.023 63.543-66.739 0-37.362-28.633-67.703-63.543-67.703m74.291 141.675H678.34v-35.866c-12.13 23.418-35.866 39.381-63.543 39.381-41.089 0-74.299-34.697-74.299-77.487 0-43.435 33.21-78.664 74.299-78.664 27.677 0 51.413 16.176 63.543 39.912V140.691h10.748zm104.641-171.476h-11.82l23.949-29.483h13.945zm43.108 83.347c-11.607 10.643-33.21 12.661-53.759 14.37-38.212 3.825-52.9 13.944-52.9 34.485 0 24.48 27.676 31.182 42.47 31.182 32.042 0 64.189-14.476 64.189-45.977zm4.046 88.129c-2.665-5.533-4.046-12.448-4.046-21.709v-2.877c-11.82 16.822-34.706 27.145-64.189 27.145-26.073 0-54.069-12.988-54.069-41.621 0-33.847 31.502-41.621 63.33-44.498 32.891-3.187 54.928-6.596 54.928-24.905 0-27.358-26.083-33.741-48.004-33.741-27.145 0-45.136 11.279-51.413 31.51h-11.076c6.711-26.614 28.951-41.94 62.489-41.94 37.247 0 58.646 16.176 58.646 44.171v84.198c0 7.561 2.019 18.521 4.365 24.267zm60.665-51.519c0 25.445 11.926 42.896 40.24 41.727v9.792c-32.148 2.878-50.882-18.203-50.882-51.519v-86.641h-20.222v-10.749h20.222V175.07h10.642v31.828h40.24v10.749h-40.24zm80.152 51.519h-10.749V206.898H981.7zm0-174.035h-10.749v-26.605H981.7zm55.246 174.035h-10.748V140.691h10.748zm-657.495-140.4c2.125 8.411 3.302 17.247 3.302 26.295 0 9.155-1.177 17.991-3.302 26.401 1.169-1.177 2.337-2.452 3.515-3.621 6.064-6.498 12.66-11.713 18.415-16.928 2.338-2.231 4.79-4.152 7.127-6.064-1.487-1.488-2.877-2.878-4.471-4.365-7.233-6.915-15.007-13.839-22.249-21.178-.743-.646-1.381-1.39-2.125-2.028-.106.425-.106.957-.212 1.488m6.915 116.133c-.319-1.169-.744-2.444-1.063-3.728a87 87 0 0 1-7.34.956c-10.119 1.072-20.336 1.709-30.447 3.09-2.444.213-4.79.638-7.233.956-.966 2.134-2.134 4.259-3.09 6.499-4.365 9.261-8.199 18.734-12.351 28.101-.85 2.125-1.913 4.259-2.975 6.384 1.169.744 2.337 1.593 3.515 2.231 5.321 3.409 9.686 6.711 13.192 9.367a623 623 0 0 0 8.092 5.967c-.106.425-.213.744-.213 1.063-2.018-1.381-4.896-3.409-8.623-5.852-3.727-2.665-8.198-5.755-13.626-8.836-1.062-.638-2.231-1.381-3.293-2.028-3.409 6.393-7.455 12.563-12.245 17.991-3.94 3.408-7.561 7.136-12.138 9.261l-1.594.956c5.534-.638 10.855-1.381 15.857-2.019 3.09-.425 6.18-.319 8.942-.531 2.771-.106 5.428.531 7.668.637 2.337.213 4.258.638 5.958 1.169 1.709.531 3.196.956 4.365 1.275 2.346.753 3.621 1.071 3.621 1.071l-.319.744s-1.168-.106-3.621-.425c-2.444-.106-5.746-1.284-10.217-.956q-6.707-.159-15.644 1.593c-6.074 1.169-12.882 3.409-20.868 4.365-3.94.319-8.624.638-12.776.213-1.275-.106-2.656-.213-3.931-.425-1.39.212-2.665.319-3.94.425-4.152.425-8.836.106-12.776-.213-7.986-.956-14.794-3.196-20.859-4.365-5.967-1.274-11.182-1.815-15.653-1.699-4.471-.328-7.764.85-10.217.956-2.337.319-3.621.425-3.621.425l-.319-.744s1.284-.319 3.621-1.071c1.169-.319 2.665-.744 4.365-1.275a23 23 0 0 1 5.959-1.063c2.346-.212 4.896-.85 7.667-.743 2.771.212 5.852.106 8.942.637 5.002.531 10.323 1.381 15.857 2.019l-1.594-.956c-4.577-2.232-8.198-5.853-12.138-9.368-4.79-5.427-8.73-11.491-12.13-17.99-1.177.637-2.346 1.496-3.408 2.027-5.427 3.188-9.899 6.278-13.626 8.836-3.621 2.444-6.49 4.471-8.517 5.853 0-.425-.106-.744-.213-1.063a810 810 0 0 0 7.986-5.861c3.622-2.762 7.986-6.065 13.307-9.367 1.063-.744 2.338-1.594 3.409-2.337-1.071-2.019-2.027-4.153-2.984-6.384-4.152-9.367-7.879-18.84-12.244-28.101-.956-2.134-2.125-4.259-3.188-6.499-2.346-.319-4.683-.743-7.136-.956-10.11-1.381-20.327-2.019-30.438-3.09-2.24-.212-4.471-.531-6.711-.85-.425 1.39-.85 2.878-1.169 4.259-1.594 6.064-3.302 11.288-4.79 15.538-1.487 4.152-2.558 7.561-3.408 9.792-.319 0-.532.115-.744.115 2.134-.328 18.522-2.346 31.722 5.109 0 0 12.882 5.852 16.707 30.12 0 0 1.39 9.579 1.921 13.731 0 0 3.728 29.164 17.991 38.319 0 0 16.388 14.157 42.249 3.727 0 0 8.199-2.771 9.908-3.621h.637c1.594.85 9.898 3.621 9.898 3.621 25.862 10.43 42.259-3.727 42.259-3.727 14.263-9.155 17.884-38.319 17.884-38.319.531-4.152 1.912-13.731 1.912-13.731 3.94-24.268 16.813-30.12 16.813-30.12 12.988-7.349 29.385-5.437 31.616-5.109-.849-2.24-2.018-5.755-3.621-10.438-1.487-4.259-3.293-9.367-4.789-15.538M218.829 145.162l-2.24 4.471a106.15 106.15 0 0 1 49.288-16.184c.531-.319.956-.531 1.381-.744-.85-.425-1.7-.85-2.656-1.275-9.261-4.577-18.203-9.792-27.039-14.582a69 69 0 0 0-5.002-2.452 100 100 0 0 1-3.303 8.092c-3.187 7.021-6.171 14.901-10.429 22.674m129.856 14.051c-1.594-.213-3.294-.54-5.003-.753a108.66 108.66 0 0 1 30.66 41.409c.319.425.744.85 1.063 1.168.212-.956.212-1.912.425-2.974 1.487-10.217 3.621-20.337 5.321-30.236.212-1.699.531-3.399.743-5.108-2.762-.106-5.533-.213-8.402-.531-7.667-.956-16.078-1.275-24.807-2.975m-16.495-16.078a915 915 0 0 1 5.746 10.111c3.94.743 7.668 1.496 11.395 2.24 8.614 2.018 16.919 2.656 24.48 3.833 2.975.531 5.64.744 8.411.956.85-7.136.956-14.157.213-20.761-1.072-4.25-1.603-8.721-3.622-12.449-.956-1.921-1.496-4.046-2.665-5.852-1.274-1.708-2.337-3.515-3.506-5.223l-1.708-2.55c0-.106-.638-.744-.107-.319l-.637-.637-1.169-1.178-.425-.425-.637-.319-1.496-.743-.744-.319c.531.212-.213-.106-.319-.106l-2.983-.744c-2.019-.531-4.047-1.062-6.065-1.7-2.019-.54-4.259-.434-6.384-.752-4.258-.744-8.623.212-12.988.531-6.49 1.39-13.094 3.727-19.584 6.711 1.062 2.55 2.125 5.002 3.515 7.667 3.506 6.808 6.702 14.476 11.279 22.028m-.956 6.286c-.85-1.496-1.602-2.984-2.346-4.471-4.365-7.774-7.233-15.653-10.536-22.674-1.275-2.665-2.231-5.215-3.196-7.774-1.594.85-3.081 1.594-4.577 2.346-8.942 4.79-17.876 10.005-27.137 14.582-.858.425-1.815.85-2.665 1.275.532.213.957.425 1.382.638 17.99 1.381 34.599 7.136 49.075 16.078M156.03 347.184a199 199 0 0 0 4.259-15.644c.212-1.275.637-2.772.956-4.047-7.242-1.274-14.476-3.302-21.187-6.171-4.471-2.771-9.048-5.002-12.554-8.729-.425-.425-.965-.85-1.39-1.275 2.346 5.321 4.79 10.217 7.03 14.901 1.381 2.762 2.231 5.746 3.302 8.304.956 2.656 1.169 5.321 1.7 7.552.531 2.24.744 4.259.744 6.074 0 1.7.106 3.187.106 4.462.106 2.453.106 3.728.106 3.728h-.85s-.212-1.275-.637-3.613c-.744-2.346-.532-5.861-2.24-10.013-1.275-4.259-3.4-9.049-6.384-14.476-2.983-5.321-7.242-11.067-10.642-18.415-1.496-3.613-3.196-7.977-4.152-12.024-.319-1.381-.531-2.877-.85-4.258-.531-1.275-1.178-2.453-1.709-3.728-1.594-3.833-2.762-8.304-3.612-12.235-1.603-7.88-1.603-15.016-2.24-21.187-.638-6.065-1.806-11.173-3.303-15.325-.956-4.365-3.187-7.243-4.037-9.474a209 209 0 0 0-1.496-3.408l.637-.425s.744 1.062 2.134 3.089c.638.957 1.488 2.232 2.444 3.728 1.071 1.487 2.133 3.187 2.983 5.427.85 2.019 2.232 4.365 2.984 7.021.638 2.665 1.7 5.534 2.231 8.73.956 5.002 1.806 10.429 2.984 16.069.106-.637.319-1.275.425-1.806.637-5.002 2.975-9.58 5.108-14.37 3.728-6.383 8.411-12.138 13.52-17.353-1.071-.956-2.134-1.912-3.196-2.762-4.578-4.152-8.942-7.561-12.457-10.217-3.294-2.559-5.853-4.577-7.765-6.074l-.956.638s-10.757 5.755-11.82 6.18c-1.062.531-26.932 11.704-30.863 29.057 0 0-9.261 18.947 9.473 41.727 1.912 2.231 2.444 3.506 5.958 7.871 0 0-.212 4.577-.318 10.651-.107 11.279 1.593 28.739 17.131 38.956 0 0 12.351 11.811 42.046 5.427 0 0 7.242-2.018 13.413-2.231.638-2.24 1.7-5.755 2.984-10.332m81.002-244.386c-.531 1.275-1.063 2.868-1.603 4.258 1.921 1.063 3.94 2.019 5.755 3.188 8.836 5.108 17.451 10.535 26.499 15.431 2.134 1.284 4.259 2.24 6.392 3.409 2.125-1.169 4.259-2.125 6.384-3.409 8.942-4.896 17.565-10.323 26.401-15.431 1.806-1.063 3.612-2.019 5.427-2.975-.637-1.496-1.177-3.196-1.815-4.577a174 174 0 0 1-5.321-15.441c-.956-2.975-1.806-5.534-2.443-7.659-15.441 12.661-28.633 12.98-28.633 12.98s-13.519-.319-29.172-13.405a266 266 0 0 1-2.55 8.296 182 182 0 0 1-5.321 15.335m157.638 60.665c-1.593-.107-3.302-.213-5.002-.213-.319 1.921-.638 3.94-1.063 5.968-2.133 10.004-4.577 19.902-6.383 30.013-.54 2.346-.859 4.684-1.284 7.136 1.815 1.594 3.515 3.294 5.215 4.896 7.455 7.021 15.441 13.511 23.099 20.328 1.815 1.594 3.621 3.196 5.321 5.002 1.071-.849 2.134-1.699 3.09-2.452 4.79-4.037 9.261-7.233 12.988-9.792 3.188-2.231 5.746-4.152 7.659-5.427-22.772-12.661-22.878-28.739-22.878-28.739-.753-9.049 2.337-18.947 5.533-26.605-2.346 0-5.746.106-10.11.106-4.471.106-9.908.106-16.185-.221"/><path d="M306.435 86.826c1.488 4.258 3.294 9.473 5.959 15.113a70 70 0 0 0 1.806 4.259c6.711-3.294 13.838-6.065 21.293-7.659 5.108-.425 10.217-1.39 15.219-.425.638.106 1.275.106 1.806.213-5.215-2.984-10.429-5.64-15.113-8.199-2.877-1.487-5.321-3.408-7.667-4.79-2.337-1.593-4.037-3.514-5.852-5.002-1.7-1.487-3.081-2.984-4.153-4.471-1.168-1.381-2.018-2.559-2.762-3.515-1.603-1.912-2.346-2.975-2.346-2.975l.637-.433s.965.858 2.771 2.452c1.807 1.487 3.834 4.471 7.668 6.702 3.506 2.771 8.083 5.33 13.723 7.88 5.542 2.559 12.457 4.683 19.486 8.517 3.4 2.125 7.34 4.577 10.536 7.233l3.515 3.197c1.275.743 2.656 1.487 3.931 2.24 3.621 2.124 7.242 5.108 10.226 7.658 5.852 5.533 10.111 11.395 14.263 15.866 4.144 4.577 8.084 8.083 11.705 10.535 3.408 2.869 6.808 3.94 8.836 5.321a94 94 0 0 0 3.196 1.7l-.213.744-3.515-1.169c-1.168-.425-2.558-.956-4.258-1.593-1.7-.532-3.621-1.381-5.534-2.559-1.921-1.169-4.365-2.231-6.604-3.94-2.125-1.806-4.684-3.506-6.915-5.746-3.94-3.621-7.986-7.764-12.563-11.811.318.532.531 1.063.743 1.594 2.453 4.471 3.196 9.58 4.471 14.582.744 7.561.425 15.219-.637 22.674 1.496.106 3.196.213 4.577.425 6.277.638 11.714.744 16.185.85 4.577.212 8.189.212 10.535.319 3.081-6.915 6.065-11.705 6.065-11.705 15.644-24.799 7.986-42.152 7.986-42.152-6.498-18.415-19.69-23.63-32.041-27.782-4.684-1.488-9.686-2.772-9.686-2.772-.637-.85-6.277-8.72-6.277-8.72-21.081-33.104-51.626-18.735-51.626-18.735-8.41 2.656-21.93 17.663-21.93 17.663a82 82 0 0 1-10.429 10.545h.106c.743 2.019 1.7 4.684 2.877 7.871M130.479 233.929c1.071.965 2.346 1.921 3.408 2.771 1.594-1.594 3.303-3.09 5.003-4.578 7.561-6.808 15.431-13.307 22.886-20.327 1.806-1.603 3.515-3.303 5.215-5.003-.425-2.452-.744-4.79-1.275-7.136-1.815-10.111-4.365-20.009-6.499-29.907-.425-2.24-.85-4.365-1.168-6.499-1.594 0-3.196.106-4.578.213-6.277.327-11.704.327-16.281.221-4.259 0-7.668-.115-10.111-.115 3.293 7.667 6.383 17.565 5.533 26.614 0 0 0 15.972-22.674 28.632 1.913 1.382 4.471 3.09 7.561 5.321 3.719 2.665 8.19 5.755 12.98 9.793m6.711-71.635c4.577-.106 10.004-.212 16.175-.85 1.381-.106 2.878-.319 4.259-.425-.956-7.348-1.381-14.794-.638-22.143 1.169-5.108 1.913-10.111 4.365-14.582.213-.637.531-1.168.744-1.7-4.365 3.834-8.305 7.765-12.032 11.386-2.338 2.24-4.896 3.94-7.021 5.746-2.134 1.709-4.577 2.771-6.49 3.94-2.027 1.178-3.833 2.027-5.648 2.559a134 134 0 0 1-4.153 1.593c-2.337.744-3.506 1.169-3.506 1.169l-.319-.744s1.169-.531 3.294-1.7c1.921-1.381 5.436-2.452 8.836-5.321 3.621-2.452 7.561-5.958 11.713-10.535 4.153-4.471 8.296-10.333 14.263-15.866 2.975-2.55 6.596-5.534 10.111-7.658 1.275-.753 2.55-1.39 3.834-2.134.956-.956 2.018-1.913 3.081-2.869 3.196-2.771 7.136-5.223 10.545-7.348 7.02-3.834 13.838-6.065 19.477-8.517 5.534-2.55 10.111-5.215 13.626-7.88 3.825-2.337 5.852-5.321 7.765-6.809 1.709-1.699 2.665-2.549 2.665-2.549l.637.531s-.744 1.062-2.24 2.975c-.744.956-1.7 2.133-2.868 3.515-.957 1.487-2.347 2.983-4.153 4.471-1.7 1.487-3.408 3.515-5.746 5.002-2.346 1.487-4.789 3.409-7.667 4.79-4.471 2.558-9.473 5.108-14.582 7.986.638-.107 1.275-.107 1.913-.213 4.896-.965 10.013 0 15.228.425 7.233 1.594 14.263 4.259 20.859 7.552.531-1.275 1.062-2.762 1.7-3.931 2.558-5.755 4.365-10.863 5.861-15.122 1.275-3.506 2.231-6.383 3.081-8.508l.212.213c-3.293-2.878-6.702-6.18-10.11-10.333 0 0-13.626-15.007-22.028-17.663 0 0-30.448-14.369-51.626 18.735 0 0-5.648 7.87-6.179 8.72 0 0-5.109 1.284-9.792 2.772-12.342 4.152-25.543 9.367-31.927 27.782 0 0-7.773 17.353 7.871 42.152 0 0 3.09 4.896 6.171 11.917 0-.106 0-.106-.106-.212 2.452-.107 6.074-.107 10.545-.319m36.078 119.648c-.212 1.806-.531 3.506-.744 5.108-1.168 8.827-3.515 16.919-5.002 24.587-.637 2.974-1.381 5.746-2.125 8.517 1.806.425 3.719.744 5.64.956 9.898 1.487 20.222 2.444 30.439 4.259.965.106 1.921.318 2.877.531-.212-.531-.531-1.063-.85-1.709-13.201-11.279-23.63-25.755-30.235-42.249m107.934 68.119c1.488.744 3.09 1.594 4.578 2.338 8.092 3.727 15.007 8.517 21.824 12.244 2.762 1.594 5.215 3.196 7.658 4.79.965-1.7 1.921-3.409 2.771-5.215 4.365-9.048 8.518-18.522 13.307-27.676.425-.956.957-1.806 1.382-2.656-.532.106-1.063.212-1.7.318-14.582 9.04-31.617 14.689-49.82 15.857m27.677-97.398v-.106c19.903-21.71 45.135 14.05 45.135 14.05l-.106.106s-41.089 15.122-45.029-14.05m17.459 60.355s-64.507-24.374-46.304-63.33l.106-.106c42.577-5.534 46.304 63.33 46.304 63.33zm-52.157 12.244h-.106s-26.72-34.706 0-47.154h.106c26.712 12.448 0 47.154 0 47.154m-51.412-11.819v-.106s3.081-68.864 45.764-63.649h.115c18.407 38.85-45.879 63.755-45.879 63.755m-27.889-45.658v-.107s24.692-36.193 44.808-14.697h.106c-3.506 29.386-44.914 14.804-44.914 14.804m-4.684-52.803s66.42-18.416 74.725 23.736v.107c-31.192 29.597-74.725-23.843-74.725-23.843m34.591-40.443v-.107s42.152 12.13 28.102 38l-.107.106c-28.951 5.746-27.995-37.999-27.995-37.999m49.394-20.975h.107s37.681 57.699 0 78.346h-.107c-37.68-20.647 0-78.346 0-78.346m83.977 60.674v.106s-43.215 53.759-74.609 24.374v-.106c7.977-42.258 74.609-24.374 74.609-24.374m-35.441-40.443h.106s1.594 43.852-27.464 38.531v-.107c-14.582-25.657 27.358-38.424 27.358-38.424m41.302 111.334c3.187-3.621 5.959-7.34 9.367-10.855a.84.84 0 0 1 .425-.425c-.106-.318-.106-.531-.106-.743-.638-4.79-.744-9.367-1.178-14.263-1.168-9.474-.637-19.7-.425-30.023a734 734 0 0 1 2.24-20.328c-4.789-4.896-9.367-9.898-13.838-15.007-6.383-8.092-12.882-15.972-17.778-24.267-2.443-4.153-5.108-7.88-7.446-12.139h-.106c-4.79-.956-9.155-2.231-13.838-3.408-9.474-1.913-18.947-5.64-28.633-9.155-6.286-2.656-12.457-5.534-18.628-8.402a1508 1508 0 0 1-18.628 8.508c-9.686 3.409-19.265 7.136-28.632 9.049-4.684 1.177-9.155 2.452-13.945 3.408h-.212c0 .106-.106.213-.106.213-2.347 4.365-5.003 8.092-7.561 12.244-4.684 8.305-11.174 16.176-17.566 24.374-4.471 5.003-9.048 10.111-13.838 15.007.965 6.817 1.709 13.626 2.346 20.328.319 10.332.85 20.549-.212 30.023-.425 4.896-.532 9.473-1.169 14.263v.318c0 .107.106.213.212.319 3.4 3.515 6.065 7.127 9.261 10.855 6.49 7.136 11.917 15.759 17.769 24.267 3.409 5.862 6.818 11.82 10.005 17.778a606 606 0 0 1 20.018 4.153c9.898 2.877 19.797 5.533 28.526 9.473 4.471 1.913 8.836 3.409 13.201 5.534.213 0 .319.106.425.212.212-.106.319-.212.531-.212 4.365-2.125 8.73-3.621 13.201-5.534 8.721-3.94 18.513-6.49 28.526-9.473 6.596-1.488 13.298-2.878 20.009-4.046 3.188-6.065 6.596-11.917 10.005-17.778 5.852-8.509 11.386-17.132 17.778-24.268m11.811 1.602c-.319-1.708-.531-3.408-.85-5.223-6.49 16.715-17.035 31.297-30.439 42.789-.327.54-.646 1.072-.859 1.603.965-.106 1.922-.319 2.878-.425 10.217-1.815 20.54-2.878 30.438-4.259 2.134-.212 4.153-.637 6.18-.956-.85-2.877-1.602-5.861-2.346-9.155-1.487-7.561-3.834-15.653-5.002-24.374m106.978-31.616c-4.046-17.353-29.81-28.526-30.873-29.057-1.062-.425-11.81-6.18-11.81-6.18-.319-.213-.532-.319-.85-.531-1.922 1.496-4.471 3.515-7.88 6.073-3.515 2.763-7.88 6.065-12.563 10.324-.85.743-1.806 1.593-2.763 2.337 5.109 5.108 9.58 10.757 13.307 16.928 2.019 4.79 4.463 9.261 5.109 14.369.106.532.319 1.169.425 1.807 1.062-5.322 1.912-10.536 2.868-15.22.532-3.196 1.603-6.065 2.24-8.729.744-2.763 2.125-5.003 2.975-7.128.859-2.133 1.921-3.939 2.984-5.321a174 174 0 0 1 2.452-3.727c1.381-2.028 2.125-3.09 2.125-3.09l.744.425s-.638 1.169-1.594 3.409c-.85 2.231-3.09 5.108-4.046 9.367-1.487 4.258-2.665 9.367-3.302 15.432-.744 6.064-.744 13.307-2.231 21.186-.957 3.825-2.028 8.402-3.728 12.236-.425 1.169-.956 2.346-1.487 3.515-.319 1.169-.531 2.337-.744 3.515-.965 4.046-2.665 8.411-4.152 12.129-3.409 7.349-7.561 13.201-10.545 18.522-2.975 5.321-5.108 10.217-6.277 14.369-1.7 4.153-1.594 7.774-2.231 10.111a541 541 0 0 0-.646 3.621h-.85s0-1.381.106-3.727c0-1.275.106-2.762.106-4.577 0-1.807.213-3.825.744-6.065.54-2.231.752-4.79 1.709-7.446.956-2.559 1.806-5.542 3.302-8.411 1.912-4.365 4.25-9.048 6.49-14.051-.425.425-.957.85-1.382 1.275-3.514 3.621-8.092 5.959-12.563 8.624-6.596 2.868-13.519 4.79-20.54 6.064.212 1.169.531 2.347.85 3.515 1.275 6.171 2.868 11.28 4.152 15.645 1.488 5.002 2.656 8.623 3.294 10.969 6.073.319 12.775 2.125 12.775 2.125 29.695 6.384 42.046-5.427 42.046-5.427 15.432-10.217 17.247-27.677 17.035-38.956-.107-6.074-.319-10.651-.319-10.651 3.506-4.365 4.143-5.64 6.065-7.871 18.734-22.78 9.473-41.727 9.473-41.727"/><path d="M198.82 155.486c3.621-.744 7.339-1.39 11.067-2.24 1.912-3.294 3.833-6.596 5.639-9.899 4.471-7.446 7.668-15.219 11.182-22.027 1.382-2.772 2.55-5.437 3.719-7.986-6.49-2.984-12.873-5.321-19.265-6.605-4.472-.319-8.836-1.275-13.086-.531-2.134.318-4.259.212-6.286.752-2.019.638-4.046 1.169-6.065 1.7l-2.984.744c-.106 0-.956.318-.425.106l-.743.319-1.381.743c-.319.107-.638.319-.957.425-.212.319-.54.532-.752.753l-1.169 1.169-.531.531c.425-.319-.106.319-.106.425l-1.7 2.558a129 129 0 0 0-3.409 5.215c-1.275 1.806-1.806 3.931-2.771 5.852-2.019 3.834-2.444 8.199-3.506 12.564-.753 6.489-.531 13.298.212 20.328 2.869-.319 5.746-.532 8.73-1.063 7.658-1.177 15.963-1.815 24.587-3.833m216.399 151.148c1.488-1.496 3.294-2.665 4.684-4.364 1.275-1.603 2.656-3.303 3.931-4.896l1.921-2.347c.106-.106.531-.85.319-.318l.319-.638.743-1.487c.319-.425.532-.85.744-1.39.106-.532.106-1.063.213-1.594l.212-1.594.106-.85v-.318l-.212-3.09c-.106-2.134-.213-4.153-.319-6.277-.106-2.134-.956-4.153-1.275-6.286-.637-4.259-2.877-8.084-4.683-12.13-3.09-5.533-7.136-10.757-11.82-15.759-2.231 2.027-4.577 4.046-6.915 6.392-5.427 5.427-11.713 10.854-17.565 17.45-2.338 2.665-4.896 5.33-7.34 8.093.425 3.621.85 7.348 1.275 10.854.85 8.73 2.878 16.822 4.046 24.489.531 3.188 1.275 6.277 2.019 9.155 6.605-1.39 12.988-3.196 18.734-5.861 3.834-2.231 7.88-4.153 10.863-7.234M284.08 355.807c-3.303-1.593-6.711-3.081-10.111-4.683-3.409 1.602-6.817 3.09-10.005 4.577-8.198 3.515-15.228 7.88-22.142 11.395-2.878 1.381-5.428 2.974-7.986 4.462 3.408 6.073 7.242 11.607 11.607 16.291 3.293 2.983 6.277 6.17 10.11 8.092 1.913 1.062 3.622 2.443 5.534 3.187 2.019.744 4.046 1.496 5.958 2.24l2.878 1.062c0 .107.85.319.319.213l.743.106 1.594.319c.531 0 .965.106 1.39.212.425-.106.85-.212 1.381-.212l1.594-.319.744-.106c-.532.106.318-.106.318-.213l2.878-1.062c2.027-.744 3.94-1.496 5.958-2.24 1.921-.744 3.621-2.125 5.542-3.187 3.931-1.815 6.809-5.109 10.218-7.986 4.364-4.79 8.083-10.324 11.492-16.282a107 107 0 0 0-7.986-4.577c-6.809-3.409-13.945-7.88-22.028-11.289m-118.895-91.431c1.062 1.169 2.337 2.337 3.506 3.621-2.125-8.411-3.294-17.14-3.294-26.295 0-8.942 1.063-17.566 3.188-25.861-.107-.54-.213-1.072-.213-1.497-.744.638-1.381 1.39-2.125 2.134-7.242 7.34-15.007 14.263-22.249 21.178-1.381 1.275-2.656 2.665-3.94 4.046 2.24 1.806 4.471 3.621 6.711 5.64 5.64 5.321 12.236 10.536 18.416 17.034m7.339-62.905c.319-.327.638-.752 1.063-1.071 6.711-16.388 17.459-30.757 30.872-41.94-1.7.213-3.408.54-5.108.753-8.73 1.7-17.141 2.019-24.799 2.975-2.984.319-5.861.425-8.73.637.319 1.815.531 3.621.85 5.427 1.7 9.908 3.94 20.018 5.427 30.236.213 1.062.213 2.018.425 2.983m89.732 150.928c1.487-.85 2.983-1.594 4.577-2.338-18.203-1.275-35.229-6.817-49.917-15.963l-1.602-.327c.425.965.956 1.815 1.39 2.665 4.79 9.154 8.933 18.734 13.298 27.676.859 1.806 1.815 3.621 2.665 5.321 2.444-1.594 5.002-3.302 7.773-4.79 6.703-3.727 13.723-8.517 21.816-12.244m-92.175-77.062c-2.559-2.762-5.109-5.64-7.667-8.305-5.746-6.596-12.139-12.023-17.46-17.557-2.231-2.133-4.471-4.046-6.596-5.967-4.789 5.109-8.942 10.439-12.138 16.185-1.7 4.046-3.931 7.87-4.577 12.129-.319 2.134-1.169 4.152-1.275 6.286 0 2.125-.213 4.259-.319 6.277l-.106 3.09c0 .106 0 .956-.106.425l.106.744.212 1.593c.107.319.107.744.213 1.072.212.425.319.743.531 1.062l.744 1.488.434.743c-.328-.531.212.107.212.213l2.019 2.452c1.275 1.594 2.558 3.188 3.939 4.896 1.275 1.594 3.082 2.869 4.578 4.259 2.975 3.187 7.127 5.002 10.854 7.34 5.853 2.664 12.351 4.577 19.266 5.967.637-2.771 1.275-5.649 1.815-8.73 1.168-7.561 3.187-15.653 3.931-24.48.425-3.621.965-7.455 1.39-11.182m-60.143-56.628c-.319.213-.637.425-.956.531.319-.106.637-.318.956-.425zm43.321 138.807h-.213zm242.474.106c-.213 0-.425 0-.744-.106.319 0 .531.106.744.106M127.079 163.569c-.106-.213-.213-.531-.319-.744.106.213.213.531.319.744m117.824-84.402c-.107-.106-.319-.212-.532-.424.213.212.425.318.532.424m176.062 84.402c.213-.319.319-.638.425-.956-.106.318-.212.637-.425.956"/></g></svg>