<?xml version="1.0" encoding="UTF-8"?>
<!DOCTYPE svg PUBLIC "-//W3C//DTD SVG 1.1//EN" "http://www.w3.org/Graphics/SVG/1.1/DTD/svg11.dtd">
<svg version="1.1" xmlns="http://www.w3.org/2000/svg" xmlns:xlink="http://www.w3.org/1999/xlink" x="0" y="0" viewBox="0, 0, 1100, 500">
  <g id="Layer_1">
    <path d="M614.797,214.132 C579.773,214.132 551.14,244.473 551.14,281.835 C551.14,318.551 579.773,348.574 614.797,348.574 C649.707,348.574 678.34,318.551 678.34,281.835 C678.34,244.473 649.707,214.132 614.797,214.132 M689.088,355.807 L678.34,355.807 L678.34,319.941 C666.21,343.359 642.474,359.322 614.797,359.322 C573.708,359.322 540.498,324.625 540.498,281.835 C540.498,238.4 573.708,203.171 614.797,203.171 C642.474,203.171 666.21,219.347 678.34,243.083 L678.34,140.691 L689.088,140.691 z M793.729,184.331 L781.909,184.331 L805.858,154.848 L819.803,154.848 z M836.837,267.678 C825.23,278.321 803.627,280.339 783.078,282.048 C744.866,285.873 730.178,295.992 730.178,316.533 C730.178,341.013 757.854,347.715 772.648,347.715 C804.69,347.715 836.837,333.239 836.837,301.738 z M840.883,355.807 C838.218,350.274 836.837,343.359 836.837,334.098 L836.837,331.221 C825.017,348.043 802.131,358.366 772.648,358.366 C746.575,358.366 718.579,345.378 718.579,316.745 C718.579,282.898 750.081,275.124 781.909,272.247 C814.8,269.06 836.837,265.651 836.837,247.342 C836.837,219.984 810.754,213.601 788.833,213.601 C761.688,213.601 743.697,224.88 737.42,245.111 L726.344,245.111 C733.055,218.497 755.295,203.171 788.833,203.171 C826.08,203.171 847.479,219.347 847.479,247.342 L847.479,331.54 C847.479,339.101 849.498,350.061 851.844,355.807 z M901.548,304.288 C901.548,329.733 913.474,347.184 941.788,346.015 L941.788,355.807 C909.64,358.685 890.906,337.604 890.906,304.288 L890.906,217.647 L870.684,217.647 L870.684,206.898 L890.906,206.898 L890.906,175.07 L901.548,175.07 L901.548,206.898 L941.788,206.898 L941.788,217.647 L901.548,217.647 z M981.7,355.807 L970.951,355.807 L970.951,206.898 L981.7,206.898 z M981.7,181.772 L970.951,181.772 L970.951,155.167 L981.7,155.167 z M1036.946,355.807 L1026.198,355.807 L1026.198,140.691 L1036.946,140.691 z M379.451,215.407 C381.576,223.818 382.753,232.654 382.753,241.702 C382.753,250.857 381.576,259.693 379.451,268.103 C380.62,266.926 381.788,265.651 382.966,264.482 C389.03,257.984 395.626,252.769 401.381,247.554 C403.719,245.323 406.171,243.402 408.508,241.49 C407.021,240.002 405.631,238.612 404.037,237.125 C396.804,230.21 389.03,223.286 381.788,215.947 C381.045,215.301 380.407,214.557 379.663,213.919 C379.557,214.344 379.557,214.876 379.451,215.407 M386.366,331.54 C386.047,330.371 385.622,329.096 385.303,327.812 C382.859,328.237 380.407,328.556 377.963,328.768 C367.844,329.84 357.627,330.477 347.516,331.858 C345.072,332.071 342.726,332.496 340.283,332.814 C339.317,334.948 338.149,337.073 337.193,339.313 C332.828,348.574 328.994,358.047 324.842,367.414 C323.992,369.539 322.929,371.673 321.867,373.798 C323.036,374.542 324.204,375.391 325.382,376.029 C330.703,379.438 335.068,382.74 338.574,385.396 C341.982,387.955 344.754,389.973 346.666,391.363 C346.56,391.788 346.453,392.107 346.453,392.426 C344.435,391.045 341.557,389.017 337.83,386.574 C334.103,383.909 329.632,380.819 324.204,377.738 C323.142,377.1 321.973,376.357 320.911,375.71 C317.502,382.103 313.456,388.273 308.666,393.701 C304.726,397.109 301.105,400.837 296.528,402.962 L294.934,403.918 C300.468,403.28 305.789,402.537 310.791,401.899 C313.881,401.474 316.971,401.58 319.733,401.368 C322.504,401.262 325.161,401.899 327.401,402.005 C329.738,402.218 331.659,402.643 333.359,403.174 C335.068,403.705 336.555,404.13 337.724,404.449 C340.07,405.202 341.345,405.52 341.345,405.52 L341.026,406.264 C341.026,406.264 339.858,406.158 337.405,405.839 C334.961,405.733 331.659,404.555 327.188,404.883 C322.717,404.777 317.502,405.308 311.544,406.476 C305.47,407.645 298.662,409.885 290.676,410.841 C286.736,411.16 282.052,411.479 277.9,411.054 C276.625,410.948 275.244,410.841 273.969,410.629 C272.579,410.841 271.304,410.948 270.029,411.054 C265.877,411.479 261.193,411.16 257.253,410.841 C249.267,409.885 242.459,407.645 236.394,406.476 C230.427,405.202 225.212,404.661 220.741,404.777 C216.27,404.449 212.977,405.627 210.524,405.733 C208.187,406.052 206.903,406.158 206.903,406.158 L206.584,405.414 C206.584,405.414 207.868,405.095 210.205,404.343 C211.374,404.024 212.87,403.599 214.57,403.068 C216.27,402.537 218.191,402.112 220.529,402.005 C222.875,401.793 225.425,401.155 228.196,401.262 C230.967,401.474 234.048,401.368 237.138,401.899 C242.14,402.43 247.461,403.28 252.995,403.918 L251.401,402.962 C246.824,400.73 243.203,397.109 239.263,393.594 C234.473,388.167 230.533,382.103 227.133,375.604 C225.956,376.241 224.787,377.1 223.725,377.631 C218.298,380.819 213.826,383.909 210.099,386.467 C206.478,388.911 203.609,390.938 201.582,392.32 C201.582,391.895 201.476,391.576 201.369,391.257 C203.291,389.867 206.053,387.848 209.355,385.396 C212.977,382.634 217.341,379.331 222.662,376.029 C223.725,375.285 225,374.435 226.071,373.692 C225,371.673 224.044,369.539 223.087,367.308 C218.935,357.941 215.208,348.468 210.843,339.207 C209.887,337.073 208.718,334.948 207.655,332.708 C205.309,332.389 202.972,331.965 200.519,331.752 C190.409,330.371 180.192,329.733 170.081,328.662 C167.841,328.45 165.61,328.131 163.37,327.812 C162.945,329.202 162.52,330.69 162.201,332.071 C160.607,338.135 158.899,343.359 157.411,347.609 C155.924,351.761 154.853,355.17 154.003,357.401 C153.684,357.401 153.471,357.516 153.259,357.516 C155.393,357.188 171.781,355.17 184.981,362.625 C184.981,362.625 197.863,368.477 201.688,392.745 C201.688,392.745 203.078,402.324 203.609,406.476 C203.609,406.476 207.337,435.64 221.6,444.795 C221.6,444.795 237.988,458.952 263.849,448.522 C263.849,448.522 272.048,445.751 273.757,444.901 L274.394,444.901 C275.988,445.751 284.292,448.522 284.292,448.522 C310.154,458.952 326.551,444.795 326.551,444.795 C340.814,435.64 344.435,406.476 344.435,406.476 C344.966,402.324 346.347,392.745 346.347,392.745 C350.287,368.477 363.16,362.625 363.16,362.625 C376.148,355.276 392.545,357.188 394.776,357.516 C393.927,355.276 392.758,351.761 391.155,347.078 C389.668,342.819 387.862,337.711 386.366,331.54 M218.829,145.162 L216.589,149.633 C231.073,140.479 247.886,134.724 265.877,133.449 C266.408,133.13 266.833,132.918 267.258,132.705 C266.408,132.28 265.558,131.855 264.602,131.43 C255.341,126.853 246.399,121.638 237.563,116.848 C235.969,115.99 234.261,115.14 232.561,114.396 C231.604,117.061 230.533,119.717 229.258,122.488 C226.071,129.509 223.087,137.389 218.829,145.162 M348.685,159.213 C347.091,159 345.391,158.673 343.682,158.46 C357.078,169.607 367.587,183.808 374.342,199.869 C374.661,200.294 375.086,200.719 375.405,201.037 C375.617,200.081 375.617,199.125 375.83,198.063 C377.317,187.846 379.451,177.726 381.151,167.827 C381.363,166.128 381.682,164.428 381.894,162.719 C379.132,162.613 376.361,162.506 373.492,162.188 C365.825,161.232 357.414,160.913 348.685,159.213 M332.19,143.135 C334.103,146.437 336.024,149.846 337.936,153.246 C341.876,153.989 345.604,154.742 349.331,155.486 C357.945,157.504 366.25,158.142 373.811,159.319 C376.786,159.85 379.451,160.063 382.222,160.275 C383.072,153.139 383.178,146.118 382.435,139.514 C381.363,135.264 380.832,130.793 378.813,127.065 C377.857,125.144 377.317,123.019 376.148,121.213 C374.874,119.505 373.811,117.698 372.642,115.99 L370.934,113.44 C370.934,113.334 370.296,112.696 370.827,113.121 L370.19,112.484 L369.021,111.306 L368.596,110.881 L367.959,110.562 L366.463,109.819 L365.719,109.5 C366.25,109.712 365.506,109.394 365.4,109.394 L362.417,108.65 C360.398,108.119 358.37,107.588 356.352,106.95 C354.333,106.41 352.093,106.516 349.968,106.198 C345.71,105.454 341.345,106.41 336.98,106.729 C330.49,108.119 323.886,110.456 317.396,113.44 C318.458,115.99 319.521,118.442 320.911,121.107 C324.417,127.915 327.613,135.583 332.19,143.135 M331.234,149.421 C330.384,147.925 329.632,146.437 328.888,144.95 C324.523,137.176 321.655,129.297 318.352,122.276 C317.077,119.611 316.121,117.061 315.156,114.502 C313.562,115.352 312.075,116.096 310.579,116.848 C301.637,121.638 292.703,126.853 283.442,131.43 C282.584,131.855 281.627,132.28 280.777,132.705 C281.309,132.918 281.734,133.13 282.159,133.343 C300.149,134.724 316.758,140.479 331.234,149.421 M156.03,347.184 C157.411,342.819 158.899,337.604 160.289,331.54 C160.501,330.265 160.926,328.768 161.245,327.493 C154.003,326.219 146.769,324.191 140.058,321.322 C135.587,318.551 131.01,316.32 127.504,312.593 C127.079,312.168 126.539,311.743 126.114,311.318 C128.46,316.639 130.904,321.535 133.144,326.219 C134.525,328.981 135.375,331.965 136.446,334.523 C137.402,337.179 137.615,339.844 138.146,342.075 C138.677,344.315 138.89,346.334 138.89,348.149 C138.89,349.849 138.996,351.336 138.996,352.611 C139.102,355.064 139.102,356.339 139.102,356.339 L138.252,356.339 C138.252,356.339 138.04,355.064 137.615,352.726 C136.871,350.38 137.083,346.865 135.375,342.713 C134.1,338.454 131.975,333.664 128.991,328.237 C126.008,322.916 121.749,317.17 118.349,309.822 C116.853,306.209 115.153,301.845 114.197,297.798 C113.878,296.417 113.666,294.921 113.347,293.54 C112.816,292.265 112.169,291.087 111.638,289.812 C110.044,285.979 108.876,281.508 108.026,277.577 C106.423,269.697 106.423,262.561 105.786,256.39 C105.148,250.325 103.98,245.217 102.483,241.065 C101.527,236.7 99.296,233.822 98.446,231.591 C97.481,229.351 96.95,228.183 96.95,228.183 L97.587,227.758 C97.587,227.758 98.331,228.82 99.721,230.847 C100.359,231.804 101.209,233.079 102.165,234.575 C103.236,236.062 104.298,237.762 105.148,240.002 C105.998,242.021 107.38,244.367 108.132,247.023 C108.77,249.688 109.832,252.557 110.363,255.753 C111.319,260.755 112.169,266.182 113.347,271.822 C113.453,271.185 113.666,270.547 113.772,270.016 C114.409,265.014 116.747,260.436 118.88,255.646 C122.608,249.263 127.291,243.508 132.4,238.293 C131.329,237.337 130.266,236.381 129.204,235.531 C124.626,231.379 120.262,227.97 116.747,225.314 C113.453,222.755 110.894,220.737 108.982,219.24 L108.026,219.878 C108.026,219.878 97.269,225.633 96.206,226.058 C95.144,226.589 69.274,237.762 65.343,255.115 C65.343,255.115 56.082,274.062 74.816,296.842 C76.728,299.073 77.26,300.348 80.774,304.713 C80.774,304.713 80.562,309.29 80.456,315.364 C80.349,326.643 82.049,344.103 97.587,354.32 C97.587,354.32 109.938,366.131 139.633,359.747 C139.633,359.747 146.875,357.729 153.046,357.516 C153.684,355.276 154.746,351.761 156.03,347.184 M237.032,102.798 C236.501,104.073 235.969,105.666 235.429,107.056 C237.35,108.119 239.369,109.075 241.184,110.244 C250.02,115.352 258.635,120.779 267.683,125.675 C269.817,126.959 271.942,127.915 274.075,129.084 C276.2,127.915 278.334,126.959 280.459,125.675 C289.401,120.779 298.024,115.352 306.86,110.244 C308.666,109.181 310.472,108.225 312.287,107.269 C311.65,105.773 311.11,104.073 310.472,102.692 C308.135,96.83 306.435,91.616 305.151,87.251 C304.195,84.276 303.345,81.717 302.708,79.592 C287.267,92.253 274.075,92.572 274.075,92.572 C274.075,92.572 260.556,92.253 244.903,79.167 C244.265,81.399 243.415,84.17 242.353,87.463 C241.078,91.722 239.369,96.937 237.032,102.798 M394.67,163.463 C393.077,163.356 391.368,163.25 389.668,163.25 C389.349,165.171 389.03,167.19 388.605,169.218 C386.472,179.222 384.028,189.12 382.222,199.231 C381.682,201.577 381.363,203.915 380.938,206.367 C382.753,207.961 384.453,209.661 386.153,211.263 C393.608,218.284 401.594,224.774 409.252,231.591 C411.067,233.185 412.873,234.787 414.573,236.593 C415.644,235.744 416.707,234.894 417.663,234.141 C422.453,230.104 426.924,226.908 430.651,224.349 C433.839,222.118 436.397,220.197 438.31,218.922 C415.538,206.261 415.432,190.183 415.432,190.183 C414.679,181.134 417.769,171.236 420.965,163.578 C418.619,163.578 415.219,163.684 410.855,163.684 C406.384,163.79 400.947,163.79 394.67,163.463" fill="#414180"/>
    <path d="M306.435,86.826 C307.923,91.084 309.729,96.299 312.394,101.939 C312.925,103.329 313.562,104.816 314.2,106.198 C320.911,102.904 328.038,100.133 335.493,98.539 C340.601,98.114 345.71,97.149 350.712,98.114 C351.35,98.22 351.987,98.22 352.518,98.327 C347.303,95.343 342.089,92.687 337.405,90.128 C334.528,88.641 332.084,86.72 329.738,85.338 C327.401,83.745 325.701,81.824 323.886,80.336 C322.186,78.849 320.805,77.352 319.733,75.865 C318.565,74.484 317.715,73.306 316.971,72.35 C315.368,70.438 314.625,69.375 314.625,69.375 L315.262,68.942 C315.262,68.942 316.227,69.8 318.033,71.394 C319.84,72.881 321.867,75.865 325.701,78.096 C329.207,80.867 333.784,83.426 339.424,85.976 C344.966,88.535 351.881,90.659 358.91,94.493 C362.31,96.618 366.25,99.07 369.446,101.726 L372.961,104.923 C374.236,105.666 375.617,106.41 376.892,107.163 C380.513,109.287 384.134,112.271 387.118,114.821 C392.97,120.354 397.229,126.216 401.381,130.687 C405.525,135.264 409.465,138.77 413.086,141.222 C416.494,144.091 419.894,145.162 421.922,146.543 C424.046,147.712 425.118,148.243 425.118,148.243 L424.905,148.987 L421.39,147.818 C420.222,147.393 418.832,146.862 417.132,146.225 C415.432,145.693 413.511,144.844 411.598,143.666 C409.677,142.497 407.233,141.435 404.994,139.726 C402.869,137.92 400.31,136.22 398.079,133.98 C394.139,130.359 390.093,126.216 385.516,122.169 C385.834,122.701 386.047,123.232 386.259,123.763 C388.712,128.234 389.455,133.343 390.73,138.345 C391.474,145.906 391.155,153.564 390.093,161.019 C391.589,161.125 393.289,161.232 394.67,161.444 C400.947,162.082 406.384,162.188 410.855,162.294 C415.432,162.506 419.044,162.506 421.39,162.613 C424.471,155.698 427.455,150.908 427.455,150.908 C443.099,126.109 435.441,108.756 435.441,108.756 C428.943,90.341 415.751,85.126 403.4,80.974 C398.716,79.486 393.714,78.202 393.714,78.202 C393.077,77.352 387.437,69.482 387.437,69.482 C366.356,36.378 335.811,50.747 335.811,50.747 C327.401,53.403 313.881,68.41 313.881,68.41 C310.366,72.669 306.86,76.078 303.452,78.955 L303.558,78.955 C304.301,80.974 305.258,83.639 306.435,86.826 M130.479,233.929 C131.55,234.894 132.825,235.85 133.887,236.7 C135.481,235.106 137.19,233.61 138.89,232.122 C146.451,225.314 154.321,218.815 161.776,211.795 C163.582,210.192 165.291,208.492 166.991,206.792 C166.566,204.34 166.247,202.002 165.716,199.656 C163.901,189.545 161.351,179.647 159.217,169.749 C158.792,167.509 158.367,165.384 158.049,163.25 C156.455,163.25 154.853,163.356 153.471,163.463 C147.194,163.79 141.767,163.79 137.19,163.684 C132.931,163.684 129.522,163.569 127.079,163.569 C130.372,171.236 133.462,181.134 132.612,190.183 C132.612,190.183 132.612,206.155 109.938,218.815 C111.851,220.197 114.409,221.905 117.499,224.136 C121.218,226.801 125.689,229.891 130.479,233.929 M137.19,162.294 C141.767,162.188 147.194,162.082 153.365,161.444 C154.746,161.338 156.243,161.125 157.624,161.019 C156.668,153.671 156.243,146.225 156.986,138.876 C158.155,133.768 158.899,128.765 161.351,124.294 C161.564,123.657 161.882,123.126 162.095,122.594 C157.73,126.428 153.79,130.359 150.063,133.98 C147.725,136.22 145.167,137.92 143.042,139.726 C140.908,141.435 138.465,142.497 136.552,143.666 C134.525,144.844 132.719,145.693 130.904,146.225 C129.31,146.862 127.929,147.393 126.751,147.818 C124.414,148.562 123.245,148.987 123.245,148.987 L122.926,148.243 C122.926,148.243 124.095,147.712 126.22,146.543 C128.141,145.162 131.656,144.091 135.056,141.222 C138.677,138.77 142.617,135.264 146.769,130.687 C150.922,126.216 155.065,120.354 161.032,114.821 C164.007,112.271 167.628,109.287 171.143,107.163 C172.418,106.41 173.693,105.773 174.977,105.029 C175.933,104.073 176.995,103.116 178.058,102.16 C181.254,99.389 185.194,96.937 188.603,94.812 C195.623,90.978 202.441,88.747 208.08,86.295 C213.614,83.745 218.191,81.08 221.706,78.415 C225.531,76.078 227.558,73.094 229.471,71.606 C231.18,69.907 232.136,69.057 232.136,69.057 L232.773,69.588 C232.773,69.588 232.029,70.65 230.533,72.563 C229.789,73.519 228.833,74.696 227.665,76.078 C226.708,77.565 225.318,79.061 223.512,80.549 C221.812,82.036 220.104,84.064 217.766,85.551 C215.42,87.038 212.977,88.96 210.099,90.341 C205.628,92.899 200.626,95.449 195.517,98.327 C196.155,98.22 196.792,98.22 197.43,98.114 C202.326,97.149 207.443,98.114 212.658,98.539 C219.891,100.133 226.921,102.798 233.517,106.091 C234.048,104.816 234.579,103.329 235.217,102.16 C237.775,96.405 239.582,91.297 241.078,87.038 C242.353,83.532 243.309,80.655 244.159,78.53 L244.371,78.743 C241.078,75.865 237.669,72.563 234.261,68.41 C234.261,68.41 220.635,53.403 212.233,50.747 C212.233,50.747 181.785,36.378 160.607,69.482 C160.607,69.482 154.959,77.352 154.428,78.202 C154.428,78.202 149.319,79.486 144.636,80.974 C132.294,85.126 119.093,90.341 112.709,108.756 C112.709,108.756 104.936,126.109 120.58,150.908 C120.58,150.908 123.67,155.804 126.751,162.825 C126.751,162.719 126.751,162.719 126.645,162.613 C129.097,162.506 132.719,162.506 137.19,162.294 M173.268,281.942 C173.056,283.748 172.737,285.448 172.524,287.05 C171.356,295.877 169.009,303.969 167.522,311.637 C166.885,314.611 166.141,317.383 165.397,320.154 C167.203,320.579 169.116,320.898 171.037,321.11 C180.935,322.597 191.259,323.554 201.476,325.369 C202.441,325.475 203.397,325.687 204.353,325.9 C204.141,325.369 203.822,324.837 203.503,324.191 C190.302,312.912 179.873,298.436 173.268,281.942 M281.202,350.061 C282.69,350.805 284.292,351.655 285.78,352.399 C293.872,356.126 300.787,360.916 307.604,364.643 C310.366,366.237 312.819,367.839 315.262,369.433 C316.227,367.733 317.183,366.024 318.033,364.218 C322.398,355.17 326.551,345.696 331.34,336.542 C331.765,335.586 332.297,334.736 332.722,333.886 C332.19,333.992 331.659,334.098 331.022,334.204 C316.44,343.244 299.405,348.893 281.202,350.061 M308.879,252.663 L308.879,252.557 C328.782,230.847 354.014,266.607 354.014,266.607 L353.908,266.713 C353.908,266.713 312.819,281.835 308.879,252.663 M326.338,313.018 C326.338,313.018 261.831,288.644 280.034,249.688 L280.14,249.582 C322.717,244.048 326.444,312.912 326.444,312.912 z M274.181,325.262 L274.075,325.262 C274.075,325.262 247.355,290.556 274.075,278.108 L274.181,278.108 C300.893,290.556 274.181,325.262 274.181,325.262 M222.769,313.443 L222.769,313.337 C222.769,313.337 225.85,244.473 268.533,249.688 L268.648,249.688 C287.055,288.538 222.769,313.443 222.769,313.443 M194.88,267.785 L194.88,267.678 C194.88,267.678 219.572,231.485 239.688,252.981 L239.794,252.981 C236.288,282.367 194.88,267.785 194.88,267.785 M190.196,214.982 C190.196,214.982 256.616,196.566 264.921,238.718 L264.921,238.825 C233.729,268.422 190.196,214.982 190.196,214.982 z M224.787,174.539 L224.787,174.432 C224.787,174.432 266.939,186.562 252.889,212.432 L252.782,212.538 C223.831,218.284 224.787,174.539 224.787,174.539 M274.181,153.564 L274.288,153.564 C274.288,153.564 311.969,211.263 274.288,231.91 L274.181,231.91 C236.501,211.263 274.181,153.564 274.181,153.564 M358.158,214.238 L358.158,214.344 C358.158,214.344 314.943,268.103 283.549,238.718 L283.549,238.612 C291.526,196.354 358.158,214.238 358.158,214.238 M322.717,173.795 L322.823,173.795 C322.823,173.795 324.417,217.647 295.359,212.326 L295.359,212.219 C280.777,186.562 322.717,173.795 322.717,173.795 M364.019,285.129 C367.206,281.508 369.978,277.789 373.386,274.274 C373.492,274.062 373.599,273.956 373.811,273.849 C373.705,273.531 373.705,273.318 373.705,273.106 C373.067,268.316 372.961,263.739 372.527,258.843 C371.359,249.369 371.89,239.143 372.102,228.82 C372.749,222.118 373.492,215.301 374.342,208.492 C369.553,203.596 364.975,198.594 360.504,193.485 C354.121,185.393 347.622,177.513 342.726,169.218 C340.283,165.065 337.618,161.338 335.28,157.079 L335.174,157.079 C330.384,156.123 326.019,154.848 321.336,153.671 C311.862,151.758 302.389,148.031 292.703,144.516 C286.417,141.86 280.246,138.982 274.075,136.114 C267.895,138.982 261.618,141.86 255.447,144.622 C245.761,148.031 236.182,151.758 226.815,153.671 C222.131,154.848 217.66,156.123 212.87,157.079 L212.658,157.079 C212.658,157.185 212.552,157.292 212.552,157.292 C210.205,161.657 207.549,165.384 204.991,169.536 C200.307,177.841 193.817,185.712 187.425,193.91 C182.954,198.913 178.377,204.021 173.587,208.917 C174.552,215.734 175.296,222.543 175.933,229.245 C176.252,239.577 176.783,249.794 175.721,259.268 C175.296,264.164 175.189,268.741 174.552,273.531 L174.552,273.849 C174.552,273.956 174.658,274.062 174.764,274.168 C178.164,277.683 180.829,281.295 184.025,285.023 C190.515,292.159 195.942,300.782 201.794,309.29 C205.203,315.152 208.612,321.11 211.799,327.068 C218.51,328.343 225.212,329.733 231.817,331.221 C241.715,334.098 251.614,336.754 260.343,340.694 C264.814,342.607 269.179,344.103 273.544,346.228 C273.757,346.228 273.863,346.334 273.969,346.44 C274.181,346.334 274.288,346.228 274.5,346.228 C278.865,344.103 283.23,342.607 287.701,340.694 C296.422,336.754 306.214,334.204 316.227,331.221 C322.823,329.733 329.525,328.343 336.236,327.175 C339.424,321.11 342.832,315.258 346.241,309.397 C352.093,300.888 357.627,292.265 364.019,285.129 M375.83,286.731 C375.511,285.023 375.299,283.323 374.98,281.508 C368.49,298.223 357.945,312.805 344.541,324.297 C344.214,324.837 343.895,325.369 343.682,325.9 C344.647,325.794 345.604,325.581 346.56,325.475 C356.777,323.66 367.1,322.597 376.998,321.216 C379.132,321.004 381.151,320.579 383.178,320.26 C382.328,317.383 381.576,314.399 380.832,311.105 C379.345,303.544 376.998,295.452 375.83,286.731 M482.808,255.115 C478.762,237.762 452.998,226.589 451.935,226.058 C450.873,225.633 440.125,219.878 440.125,219.878 C439.806,219.665 439.593,219.559 439.275,219.347 C437.353,220.843 434.804,222.862 431.395,225.42 C427.88,228.183 423.515,231.485 418.832,235.744 C417.982,236.487 417.026,237.337 416.069,238.081 C421.178,243.189 425.649,248.838 429.376,255.009 C431.395,259.799 433.839,264.27 434.485,269.378 C434.591,269.91 434.804,270.547 434.91,271.185 C435.972,265.863 436.822,260.649 437.778,255.965 C438.31,252.769 439.381,249.9 440.018,247.236 C440.762,244.473 442.143,242.233 442.993,240.108 C443.852,237.975 444.914,236.169 445.977,234.787 C446.933,233.291 447.783,232.016 448.429,231.06 C449.81,229.032 450.554,227.97 450.554,227.97 L451.298,228.395 C451.298,228.395 450.66,229.564 449.704,231.804 C448.854,234.035 446.614,236.912 445.658,241.171 C444.171,245.429 442.993,250.538 442.356,256.603 C441.612,262.667 441.612,269.91 440.125,277.789 C439.168,281.614 438.097,286.191 436.397,290.025 C435.972,291.194 435.441,292.371 434.91,293.54 C434.591,294.709 434.379,295.877 434.166,297.055 C433.201,301.101 431.501,305.466 430.014,309.184 C426.605,316.533 422.453,322.385 419.469,327.706 C416.494,333.027 414.361,337.923 413.192,342.075 C411.492,346.228 411.598,349.849 410.961,352.186 C410.536,354.532 410.315,355.807 410.315,355.807 L409.465,355.807 C409.465,355.807 409.465,354.426 409.571,352.08 C409.571,350.805 409.677,349.318 409.677,347.503 C409.677,345.696 409.89,343.678 410.421,341.438 C410.961,339.207 411.173,336.648 412.13,333.992 C413.086,331.433 413.936,328.45 415.432,325.581 C417.344,321.216 419.682,316.533 421.922,311.53 C421.497,311.955 420.965,312.38 420.54,312.805 C417.026,316.426 412.448,318.764 407.977,321.429 C401.381,324.297 394.458,326.219 387.437,327.493 C387.649,328.662 387.968,329.84 388.287,331.008 C389.562,337.179 391.155,342.288 392.439,346.653 C393.927,351.655 395.095,355.276 395.733,357.622 C401.806,357.941 408.508,359.747 408.508,359.747 C438.203,366.131 450.554,354.32 450.554,354.32 C465.986,344.103 467.801,326.643 467.589,315.364 C467.482,309.29 467.27,304.713 467.27,304.713 C470.776,300.348 471.413,299.073 473.335,296.842 C492.069,274.062 482.808,255.115 482.808,255.115" fill="#414180"/>
    <path d="M198.82,155.486 C202.441,154.742 206.159,154.096 209.887,153.246 C211.799,149.952 213.72,146.65 215.526,143.347 C219.997,135.901 223.194,128.128 226.708,121.32 C228.09,118.548 229.258,115.883 230.427,113.334 C223.937,110.35 217.554,108.013 211.162,106.729 C206.69,106.41 202.326,105.454 198.076,106.198 C195.942,106.516 193.817,106.41 191.79,106.95 C189.771,107.588 187.744,108.119 185.725,108.65 L182.741,109.394 C182.635,109.394 181.785,109.712 182.316,109.5 L181.573,109.819 L180.192,110.562 C179.873,110.669 179.554,110.881 179.235,110.987 C179.023,111.306 178.695,111.519 178.483,111.74 L177.314,112.909 L176.783,113.44 C177.208,113.121 176.677,113.759 176.677,113.865 L174.977,116.423 C173.799,118.123 172.631,119.93 171.568,121.638 C170.293,123.444 169.762,125.569 168.797,127.49 C166.778,131.324 166.353,135.689 165.291,140.054 C164.538,146.543 164.76,153.352 165.503,160.382 C168.372,160.063 171.249,159.85 174.233,159.319 C181.891,158.142 190.196,157.504 198.82,155.486 M415.219,306.634 C416.707,305.138 418.513,303.969 419.903,302.27 C421.178,300.667 422.559,298.967 423.834,297.374 L425.755,295.027 C425.861,294.921 426.286,294.177 426.074,294.709 L426.393,294.071 L427.136,292.584 C427.455,292.159 427.668,291.734 427.88,291.194 C427.986,290.662 427.986,290.131 428.093,289.6 L428.305,288.006 L428.411,287.156 L428.411,286.838 L428.199,283.748 C428.093,281.614 427.986,279.595 427.88,277.471 C427.774,275.337 426.924,273.318 426.605,271.185 C425.968,266.926 423.728,263.101 421.922,259.055 C418.832,253.522 414.786,248.298 410.102,243.296 C407.871,245.323 405.525,247.342 403.187,249.688 C397.76,255.115 391.474,260.542 385.622,267.138 C383.284,269.803 380.726,272.468 378.282,275.231 C378.707,278.852 379.132,282.579 379.557,286.085 C380.407,294.815 382.435,302.907 383.603,310.574 C384.134,313.762 384.878,316.851 385.622,319.729 C392.227,318.339 398.61,316.533 404.356,313.868 C408.19,311.637 412.236,309.715 415.219,306.634 M284.08,355.807 C280.777,354.214 277.369,352.726 273.969,351.124 C270.56,352.726 267.152,354.214 263.964,355.701 C255.766,359.216 248.736,363.581 241.822,367.096 C238.944,368.477 236.394,370.07 233.836,371.558 C237.244,377.631 241.078,383.165 245.443,387.849 C248.736,390.832 251.72,394.019 255.553,395.941 C257.466,397.003 259.175,398.384 261.087,399.128 C263.106,399.872 265.133,400.624 267.045,401.368 L269.923,402.43 C269.923,402.537 270.773,402.749 270.242,402.643 L270.985,402.749 L272.579,403.068 C273.11,403.068 273.544,403.174 273.969,403.28 C274.394,403.174 274.819,403.068 275.35,403.068 L276.944,402.749 L277.688,402.643 C277.156,402.749 278.006,402.537 278.006,402.43 L280.884,401.368 C282.911,400.624 284.824,399.872 286.842,399.128 C288.763,398.384 290.463,397.003 292.384,395.941 C296.315,394.126 299.193,390.832 302.602,387.955 C306.966,383.165 310.685,377.631 314.094,371.673 C311.544,370.07 308.985,368.583 306.108,367.096 C299.299,363.687 292.163,359.216 284.08,355.807 M165.185,264.376 C166.247,265.545 167.522,266.713 168.691,267.997 C166.566,259.586 165.397,250.857 165.397,241.702 C165.397,232.76 166.46,224.136 168.585,215.841 C168.478,215.301 168.372,214.769 168.372,214.344 C167.628,214.982 166.991,215.734 166.247,216.478 C159.005,223.818 151.24,230.741 143.998,237.656 C142.617,238.931 141.342,240.321 140.058,241.702 C142.298,243.508 144.529,245.323 146.769,247.342 C152.409,252.663 159.005,257.878 165.185,264.376 M172.524,201.471 C172.843,201.144 173.162,200.719 173.587,200.4 C180.298,184.012 191.046,169.643 204.459,158.46 C202.759,158.673 201.051,159 199.351,159.213 C190.621,160.913 182.21,161.232 174.552,162.188 C171.568,162.507 168.691,162.613 165.822,162.825 C166.141,164.64 166.353,166.446 166.672,168.252 C168.372,178.16 170.612,188.27 172.099,198.488 C172.312,199.55 172.312,200.506 172.524,201.471 M262.256,352.399 C263.743,351.549 265.239,350.805 266.833,350.061 C248.63,348.786 231.604,343.244 216.916,334.098 L215.314,333.771 C215.739,334.736 216.27,335.586 216.704,336.436 C221.494,345.59 225.637,355.17 230.002,364.112 C230.861,365.918 231.817,367.733 232.667,369.433 C235.111,367.839 237.669,366.131 240.44,364.643 C247.143,360.916 254.163,356.126 262.256,352.399 M170.081,275.337 C167.522,272.575 164.972,269.697 162.414,267.032 C156.668,260.436 150.275,255.009 144.954,249.475 C142.723,247.342 140.483,245.429 138.358,243.508 C133.569,248.617 129.416,253.947 126.22,259.693 C124.52,263.739 122.289,267.563 121.643,271.822 C121.324,273.956 120.474,275.974 120.368,278.108 C120.368,280.233 120.155,282.367 120.049,284.385 L119.943,287.475 C119.943,287.581 119.943,288.431 119.837,287.9 L119.943,288.644 L120.155,290.237 C120.262,290.556 120.262,290.981 120.368,291.309 C120.58,291.734 120.687,292.052 120.899,292.371 L121.643,293.859 L122.077,294.602 C121.749,294.071 122.289,294.709 122.289,294.815 L124.308,297.267 C125.583,298.861 126.866,300.455 128.247,302.163 C129.522,303.757 131.329,305.032 132.825,306.422 C135.8,309.609 139.952,311.424 143.679,313.762 C149.532,316.426 156.03,318.339 162.945,319.729 C163.582,316.958 164.22,314.08 164.76,310.999 C165.928,303.438 167.947,295.346 168.691,286.519 C169.116,282.898 169.656,279.064 170.081,275.337 M109.938,218.709 C109.619,218.922 109.301,219.134 108.982,219.24 C109.301,219.134 109.619,218.922 109.938,218.815 L109.938,218.709 M153.259,357.516 L153.046,357.516 L153.259,357.516 M395.733,357.622 C395.52,357.622 395.308,357.622 394.989,357.516 C395.308,357.516 395.52,357.622 395.733,357.622 M394.776,357.516 L394.776,357.516 M127.079,163.569 C126.973,163.356 126.866,163.038 126.76,162.825 C126.866,163.038 126.973,163.356 127.079,163.569 M244.903,79.167 C244.796,79.061 244.584,78.955 244.371,78.743 C244.584,78.955 244.796,79.061 244.903,79.167 M420.965,163.569 C421.178,163.25 421.284,162.931 421.39,162.613 C421.284,162.931 421.178,163.25 420.965,163.569" fill="#414180"/>
  </g>
</svg>
