<svg xmlns="http://www.w3.org/2000/svg" class="global-nav__desktop-logo-svg" viewBox="0 0 277.2 27"><title>NFCU Desktop Logo</title><path d="M83.2 20.13h3.18v-4.69H91v-2.38h-4.61v-2.87h5V7.81H83.2Zm12.18-5h5.18v-2.39h-5.18v-2.57h5.5V7.81h-8.67v12.32H101v-2.4h-5.62V15.1Zm15.87-6.33a7.8 7.8 0 0 0-4.4-1H102v12.33h4.91a9.3 9.3 0 0 0 3.39-.48c2.34-1 3.15-3 3.15-5.73a6 6 0 0 0-2.2-5.12m-4.62 8.95h-1.38v-7.63h1.26c1 0 3.6 0 3.6 3.74 0 2.9-1.36 3.87-3.48 3.89m10.77-2.65h5.18v-2.36h-5.18v-2.57h5.5V7.81h-8.67v12.32H123v-2.4h-5.63V15.1Zm13.36-1V14a4.1 4.1 0 0 0 1.76-.63 2.43 2.43 0 0 0 1.06-2.29 3.28 3.28 0 0 0-.8-2.39c-.69-.75-1.47-.89-3.55-.89h-5.34v12.33h3.22V15.3h1.34c1.44 0 1.49.55 1.63 2a21 21 0 0 0 .38 2.79h3.47a21 21 0 0 1-.54-3c-.27-1.91-.39-2.97-2.64-3.03Zm-1.14-1.1a4.1 4.1 0 0 1-1.33.1h-1.2v-3h1.2c.93 0 2.18 0 2.18 1.52a1.43 1.43 0 0 1-.85 1.38m9-5.2-4.56 12.35h3.2l.78-2.48h4.62l.8 2.48h3.62l-4.55-12.37Zm.18 7.59 1.6-5.18 1.49 5.18Zm12-7.59h-3.3v12.33h8.43V17.7h-5.18Zm16 10.19c-2.48 0-2.5-3.11-2.5-3.87 0-2.26.59-4.16 2.53-4.16a1.75 1.75 0 0 1 1.87 1.71h3.3A3.94 3.94 0 0 0 171 9a5.36 5.36 0 0 0-4.21-1.5 5.23 5.23 0 0 0-4.38 1.81A7.24 7.24 0 0 0 161 14a7.14 7.14 0 0 0 1.49 4.69 5.85 5.85 0 0 0 4.38 1.64c1.5 0 5.18-.32 5.2-4.19h-3.37a1.8 1.8 0 0 1-1.94 1.86Zm12.81-3.92V14a4.1 4.1 0 0 0 1.76-.63 2.42 2.42 0 0 0 1.06-2.29 3.28 3.28 0 0 0-.8-2.39c-.69-.75-1.47-.89-3.55-.89h-5.38v12.33h3.22V15.3h1.34c1.44 0 1.49.55 1.63 2a21 21 0 0 0 .38 2.79h3.47a21 21 0 0 1-.54-3c-.25-1.91-.38-2.97-2.62-3.03ZM178.44 13a4.1 4.1 0 0 1-1.33.1h-1.2v-3h1.2c.93 0 2.18 0 2.18 1.52a1.43 1.43 0 0 1-.85 1.38m8.08 2.12h5.18v-2.38h-5.18v-2.57H192V7.81h-8.67v12.32h8.8v-2.4h-5.63V15.1Zm15.89-6.32a7.8 7.8 0 0 0-4.4-1h-4.88v12.33H198a9.3 9.3 0 0 0 3.39-.48c2.34-1 3.15-3 3.15-5.73a6 6 0 0 0-2.13-5.12m-4.62 8.95h-1.38v-7.63h1.26c1 0 3.6 0 3.6 3.74 0 2.9-1.36 3.87-3.49 3.89Zm7.5 2.38h3.3V7.78h-3.3Zm3.89-9.9h3.52v9.9h3.23v-9.9h3.6V7.78h-10.36ZM232.76 15c0 1.23-.27 3-2.3 3a2.26 2.26 0 0 1-2-1 3.55 3.55 0 0 1-.37-1.86V7.78h-3.23v7c0 2 0 5.64 5.47 5.64 1.46 0 3.52-.29 4.64-1.76a6.3 6.3 0 0 0 .9-3.76V7.78h-3.12V15Zm12.73 2-3.9-9.2h-4.42v12.33H240v-9.59l4 9.59h4.32V7.78h-2.8Zm3.94 3.15h3.3V7.78h-3.3Zm10.06-12.71A6.24 6.24 0 0 0 255 9.15a7.57 7.57 0 0 0-1.61 4.85c0 4.6 2.86 6.41 5.94 6.41 2.75 0 6-1.5 6-6.43.02-2.98-1.23-6.54-5.84-6.54m-.13 10.47c-2.13 0-2.67-1.95-2.67-3.92 0-2.12.58-4.07 2.69-4.07a2.21 2.21 0 0 1 1.92.89 5.4 5.4 0 0 1 .73 3.13c-.03 1.71-.38 3.96-2.67 3.96Zm15-10.12v9.2l-3.9-9.2h-4.42v12.34h2.82v-9.59l4 9.59h4.32V7.78ZM41 17l-3.9-9.2h-4.43v12.33h2.82v-9.59l4 9.59h4.32V7.78H41Zm8-9.2-4.58 12.33h3.2l.78-2.48H53l.8 2.48h3.62L52.88 7.78Zm.18 7.59 1.6-5.18 1.49 5.18Zm12.32 1.34-2.62-8.95h-3.54l4.08 12.35h3.82l4.21-12.35h-3.18ZM73.95 13l-2.53-5.22h-3.71l4.4 7.83v4.52h3.23v-4.36l4.51-8h-3.3ZM27 13.5A13.49 13.49 0 0 0 14.67.08 9 9 0 0 0 13.48 0a9 9 0 0 0-1.13.08 13.53 13.53 0 0 0-9.58 5.25l-.25.34-.26.33a13.46 13.46 0 0 0 10 20.89 8.6 8.6 0 0 0 2.39 0A13.49 13.49 0 0 0 27 13.5m-7.3 10h-1.93a17 17 0 0 0 1.32-3.75h3.13a12.3 12.3 0 0 1-2.56 3.7ZM4.73 19.7h3.13a17 17 0 0 0 1.32 3.75H7.29a12.4 12.4 0 0 1-2.56-3.75M.86 13.92H2.6a16.3 16.3 0 0 0 .88 4.92H2a12.5 12.5 0 0 1-1.14-4.92m4-6.92a12.1 12.1 0 0 1 2.45-3.45h1.88a16 16 0 0 0-1.08 2.82L8 6.78l-.11.41v.11H4.73Zm17.36.3h-3.13a17 17 0 0 0-1.32-3.75h1.89a12.4 12.4 0 0 1 2.56 3.75m3.87 5.77h-1.73a16.2 16.2 0 0 0-.89-4.92h1.44a12.5 12.5 0 0 1 1.18 4.92m-2.59 0h-3.73a27.7 27.7 0 0 0-.49-4.92h3.29a15.3 15.3 0 0 1 .94 4.92ZM8.82 7a15.3 15.3 0 0 1 1.33-3.45h2.9V7.3h-4.3c.02-.1.04-.21.07-.3m.84-4.3H8.28a9.2 9.2 0 0 1 2.39-1.33 8 8 0 0 0-1.01 1.32ZM13.05.9v1.8h-2.37A4 4 0 0 1 13.05.9m.85 1.8V.89a4 4 0 0 1 2.36 1.8Zm2.89.85A16 16 0 0 1 18.2 7.3h-4.3V3.55Zm-3.74 4.6v4.92H8a26.6 26.6 0 0 1 .52-4.92Zm0 5.77v4.92H8.56A26 26 0 0 1 8 13.92Zm0 5.77v3.75h-2.89a15.8 15.8 0 0 1-1.41-3.74Zm0 4.61v1.8a4 4 0 0 1-2.36-1.8Zm.85 0h2.36a4 4 0 0 1-2.36 1.8Zm0-.85V19.7h4.3a15.9 15.9 0 0 1-1.41 3.75Zm0-4.6v-4.93h5a26.4 26.4 0 0 1-.52 4.92Zm0-5.77V8.15h4.5a26.4 26.4 0 0 1 .52 4.92Zm3.4-10.39a8.4 8.4 0 0 0-1-1.35 9.2 9.2 0 0 1 2.4 1.35ZM7.69 8.15a28 28 0 0 0-.5 4.92H3.45a15.5 15.5 0 0 1 .93-4.92ZM2.6 13.07H.87A12.4 12.4 0 0 1 2 8.15h1.48a16.3 16.3 0 0 0-.88 4.92m.85.85h3.73a27.4 27.4 0 0 0 .49 4.92H4.38a15.3 15.3 0 0 1-.93-4.92m6.21 10.39a8 8 0 0 0 1 1.34 9 9 0 0 1-2.43-1.34Zm7.64 0h1.4a9.1 9.1 0 0 1-2.43 1.34 8.4 8.4 0 0 0 1.03-1.34m2-5.46a28 28 0 0 0 .49-4.92h3.73a15.3 15.3 0 0 1-.93 4.92Zm5.08-4.92h1.73a12.5 12.5 0 0 1-1.18 4.92h-1.46a16.2 16.2 0 0 0 .89-4.93Zm.11-6.62h-1.35a13.6 13.6 0 0 0-2.32-3.75h.41a12.8 12.8 0 0 1 3.24 3.74ZM5.72 3.55h.41a13 13 0 0 0-1.84 2.71l-.18.38-.2.36-.12.27H2.48a13 13 0 0 1 .72-1.11 12.7 12.7 0 0 1 2.52-2.61M2.48 19.7h1.33a13.5 13.5 0 0 0 2.32 3.75h-.41a12.7 12.7 0 0 1-3.24-3.75m18.75 3.76h-.41a13.6 13.6 0 0 0 2.32-3.75h1.33a12.7 12.7 0 0 1-3.24 3.74Z" class="cls-1"/></svg>