<?xml version="1.0" encoding="utf-8"?>
<!-- Generator: Adobe Illustrator 26.4.1, SVG Export Plug-In . SVG Version: 6.00 Build 0)  -->
<svg version="1.1" id="Layer_1" xmlns="http://www.w3.org/2000/svg" xmlns:xlink="http://www.w3.org/1999/xlink" x="0px" y="0px"
	 viewBox="0 0 765.4 283.5" style="enable-background:new 0 0 765.4 283.5;" xml:space="preserve">
<style type="text/css">
	.st0{fill:#282560;}
	.st1{fill:#969799;}
	.st2{fill:#BC202E;}
</style>
<polygon class="st0" points="113.9,212.4 26.3,212.4 26.3,93.3 57,124.2 57,181.7 113.9,181.7 "/>
<polygon class="st1" points="113.9,182.6 145.4,212.4 145.4,93.3 57,93.3 57,124.2 113.9,124.2 "/>
<polyline class="st2" points="79.7,129.8 109.1,129.8 109.1,159.2 "/>
<polyline class="st0" points="148.7,93.3 178.1,93.3 178.1,122.7 "/>
<g>
	<path class="st0" d="M200.7,96.1h44.4c3.4,0,6,0.3,7.6,0.8c1.7,0.6,3.4,1.7,5.1,3.5c1.7,1.8,3.1,3.8,4,6c1,2.3,1.5,4.6,1.5,7V152
		c0,5-1.9,9.4-5.6,13.3c-3.7,3.9-8,5.8-12.8,5.8h-25.1c-5,0-9.4-2-13.3-6.1c-3.9-4.1-5.8-8.7-5.8-14v-9c0-7.5,1.6-13.3,4.9-17.3
		c3.3-4,8-6,14.1-6h30.9v-4.9c0-3.5-2.5-5.3-7.5-5.3h-42.5V96.1z M216.1,157.4c1.3,0.8,3.7,1.2,7.4,1.2h16.9c3.8,0,6.2-0.4,7.1-1.1
		c0.9-0.7,1.7-1.7,2.3-3c0.6-1.2,0.9-2.3,0.9-3.3v-12.1c0-2.5-0.9-4.5-2.7-6c-1.8-1.5-4.3-2.2-7.4-2.2h-17.3c-3,0-5.4,0.7-7.2,2.2
		c-1.9,1.5-2.8,3.5-2.8,6v12.1c0,0.8,0.3,1.9,0.8,3.1C214.6,155.7,215.3,156.7,216.1,157.4z"/>
	<path class="st0" d="M328.9,171.2h-28.7c-5.9,0-10.9-1.8-14.8-5.4c-4-3.6-6-8.1-6-13.6v-37.1c0-3.8,0.5-6.8,1.5-9.1
		c1-2.3,2.8-4.2,5.4-5.8c3.9-2.8,8.5-4.2,13.7-4.2h28.6v12.5h-28.6c-2.5,0-4.5,0.7-6,2.2c-1.5,1.5-2.2,3.5-2.2,6v32.6
		c0,2.5,0.8,4.7,2.5,6.5c1.7,1.9,3.7,2.8,6.1,2.8h28.4V171.2z"/>
	<path class="st0" d="M404.8,96.1V152c0,6.4-2.2,11.5-6.5,15.3c-1.8,1.4-3.8,2.4-6,3c-2.3,0.6-5.1,0.9-8.5,0.9h-19.8
		c-3.7,0-6.5-0.3-8.5-0.8c-2-0.6-4-1.6-5.9-3.1c-4.3-3.6-6.5-8.7-6.5-15.3V96.1h12.5v54.3v3.5c0.2,1,0.7,1.9,1.5,2.6
		c1.4,1.3,3.7,1.9,6.8,1.9h20.1c3.2,0,5.5-0.6,6.8-1.7c1.3-1.2,1.9-3.3,1.9-6.3V96.1H404.8z"/>
	<path class="st0" d="M435.1,96.1h29c6.5,0,11.5,1.6,15,4.9c3.5,3.2,5.3,8,5.3,14.2v36.4c0,5.8-1.6,10.4-4.7,13.6
		c-4.1,4.1-8.7,6.1-13.9,6.1h-24.6c-5.2,0-9.6-2-13.2-6.1c-3.6-4.1-5.4-9.1-5.4-15v-79h12.5V96.1z M435.1,149.7
		c0,2.7,0.7,4.9,2.2,6.5c1.5,1.7,3.5,2.5,6,2.5h21.8c1.9,0,3.6-0.7,4.9-2.2c1.3-1.5,1.9-3.4,1.9-5.7V117c0-5.6-2.7-8.5-8.2-8.5
		h-20.5c-5.4,0-8,2.7-8,8.2V149.7z"/>
	<path class="st0" d="M564.3,171.2h-41.8c-6.2,0-11.1-1.8-14.8-5.4c-3.7-3.6-5.6-8.4-5.6-14.4v-33.6c0-14.4,7.7-21.6,23-21.6h18.6
		c6.3,0,11.2,1.7,14.6,5.1c3.5,3.4,5.2,8.1,5.2,14.2v8.9l-49,22.8v2.5l0.4,3.2c0.3,1,0.4,1.7,0.5,2c0,0.3,0.3,0.8,0.6,1.3
		c0.9,1.8,3.2,2.6,6.9,2.6h41.2V171.2z M514.6,118.1l0,15.2l36.3-17l0-1.2c0-2.4-0.5-4.1-1.6-5c-1.1-0.9-3.1-1.4-6-1.4h-20.4
		C517.4,108.6,514.6,111.7,514.6,118.1z"/>
	<path class="st0" d="M641.3,71.1v79c0,5.8-1.8,10.8-5.5,14.9c-3.7,4.1-8,6.2-13.1,6.2h-24.6c-2.2,0-4.6-0.6-7.2-1.7
		c-2.6-1.1-4.8-2.6-6.7-4.4c-3.1-3.1-4.7-7.7-4.7-13.6v-36.4c0-6.1,1.7-10.8,5.2-14.1c3.5-3.3,8.5-4.9,15.1-4.9h29v-25H641.3z
		 M592,150.8c0,2.1,0.6,4,1.9,5.6c1.3,1.6,2.9,2.4,4.7,2.4h21.9c2.5,0,4.5-0.8,6-2.5c1.5-1.7,2.2-3.8,2.2-6.5v-32.9
		c0-5.5-2.7-8.2-8.1-8.2h-20.5c-5.5,0-8.2,2.8-8.2,8.5V150.8z"/>
	<path class="st0" d="M653.9,162.4c0-2.4,0.8-4.4,2.4-6.1c1.6-1.7,3.6-2.5,6.1-2.5c2.4,0,4.4,0.8,6.1,2.5c1.7,1.7,2.5,3.7,2.5,6.1
		c0,2.5-0.8,4.6-2.4,6.2c-1.6,1.7-3.6,2.5-6.1,2.5c-2.4,0-4.4-0.8-6.1-2.5C654.8,167,653.9,164.9,653.9,162.4z"/>
	<path class="st1" d="M681.1,79.9c0-2.5,0.8-4.6,2.4-6.2c1.6-1.7,3.6-2.5,6-2.5c2.5,0,4.6,0.9,6.3,2.6c1.7,1.7,2.6,3.8,2.6,6.2
		c0,2.4-0.8,4.4-2.5,6.1c-1.7,1.7-3.7,2.5-6.1,2.5c-2.4,0-4.4-0.8-6.1-2.5C682,84.3,681.1,82.3,681.1,79.9z M683.6,171.2V96.1H696
		v75.1H683.6z"/>
	<path class="st1" d="M713.7,171.2V71.1h12.5v25H739v12.5h-12.8v62.6H713.7z"/>
</g>
<g>
	<g>
		<path class="st0" d="M202.4,207.7V189h9.5c1.1,0,2.1,0.4,2.8,1.2c0.7,0.8,1.1,1.8,1.1,3.1v9.6c0,1.3-0.4,2.5-1.3,3.4
			c-0.8,0.9-1.9,1.4-3.2,1.4H202.4z M205,191.7V205h6.1c1.3,0,1.9-0.7,1.9-2.2v-8.9c0-0.8-0.1-1.4-0.4-1.7c-0.3-0.3-0.8-0.5-1.5-0.5
			H205z"/>
		<path class="st0" d="M237.2,207.7h-7.8c-1.2,0-2.1-0.3-2.8-1c-0.7-0.7-1-1.6-1-2.7v-6.3c0-2.7,1.4-4,4.3-4h3.5
			c1.2,0,2.1,0.3,2.7,0.9s1,1.5,1,2.7v1.7l-9.1,4.2v0.5l0.1,0.6c0.1,0.2,0.1,0.3,0.1,0.4c0,0.1,0,0.1,0.1,0.2
			c0.2,0.3,0.6,0.5,1.3,0.5h7.7V207.7z M227.9,197.8l0,2.8l6.8-3.2l0-0.2c0-0.4-0.1-0.8-0.3-0.9c-0.2-0.2-0.6-0.3-1.1-0.3h-3.8
			C228.4,196,227.9,196.6,227.9,197.8z"/>
		<path class="st0" d="M246,207.7v-2.3h6.6h0.6c0.6,0,1-0.5,1-1.4v-1.1c0-0.9-0.5-1.3-1.4-1.3h-3.2c-1.1,0-1.9-0.2-2.4-0.6
			c-0.3-0.2-0.6-0.6-0.8-1c-0.2-0.4-0.3-0.8-0.3-1.3v-1.8c0-1,0.3-1.8,0.8-2.4s1.3-0.9,2.3-0.9h7.3v2.3h-6.6h-0.5
			c-0.3,0-0.5,0.1-0.7,0.3c-0.2,0.2-0.3,0.4-0.3,0.8v1c0,0.3,0.1,0.6,0.4,0.8c0.2,0.2,0.6,0.3,0.9,0.3h3.5c0.9,0,1.7,0.3,2.3,1
			c0.7,0.6,1,1.4,1,2.3v2.2c0,0.8-0.3,1.5-0.9,2.1c-0.6,0.6-1.3,0.9-2.1,0.9H246z"/>
		<path class="st0" d="M265.4,190.6c0-0.5,0.1-0.9,0.4-1.2c0.3-0.3,0.7-0.5,1.1-0.5c0.5,0,0.9,0.2,1.2,0.5c0.3,0.3,0.5,0.7,0.5,1.2
			c0,0.4-0.2,0.8-0.5,1.1c-0.3,0.3-0.7,0.5-1.1,0.5c-0.4,0-0.8-0.2-1.1-0.5C265.5,191.5,265.4,191.1,265.4,190.6z M265.8,207.7v-14
			h2.3v14H265.8z"/>
		<path class="st0" d="M278,212.2v-2.3h7.5c0.5,0,0.7,0,0.8,0c0.1,0,0.2-0.1,0.4-0.3c0.3-0.3,0.5-0.8,0.5-1.3v-0.6h-5.6
			c-1,0-1.9-0.4-2.6-1.1c-0.7-0.7-1-1.6-1-2.7v-6.6c0-1,0.3-1.9,0.9-2.6c0.6-0.7,1.4-1,2.4-1h4.9c1,0,1.8,0.3,2.4,0.9
			c0.6,0.6,0.9,1.4,0.9,2.5v11.7c0,1.1-0.4,1.9-1.1,2.5c-0.7,0.6-1.7,0.9-2.9,0.9H278z M280.4,203.7c0,0.5,0.1,0.9,0.4,1.2
			c0.3,0.3,0.6,0.5,1.1,0.5h4.1c0.9,0,1.3-0.6,1.3-1.7v-6.1c0-1.1-0.4-1.6-1.3-1.6h-3.9c-0.5,0-0.9,0.1-1.2,0.4
			c-0.3,0.3-0.5,0.7-0.5,1.2V203.7z"/>
		<path class="st0" d="M299.4,207.7v-10.4c0-1.2,0.4-2.2,1.2-2.8c0.6-0.5,1.5-0.7,2.7-0.7h3.7c1.2,0,2.1,0.2,2.7,0.7
			c0.4,0.3,0.7,0.7,0.9,1.2c0.2,0.5,0.3,1,0.3,1.6v10.4h-2.3v-10.1v-0.6c0-0.2-0.1-0.3-0.3-0.5c-0.3-0.2-0.7-0.4-1.3-0.4h-3.8
			c-0.6,0-1,0.1-1.3,0.3c-0.2,0.2-0.3,0.6-0.3,1.2v10.1H299.4z"/>
		<path class="st0" d="M320.3,190.6c0-0.5,0.1-0.9,0.4-1.2c0.3-0.3,0.7-0.5,1.1-0.5c0.5,0,0.9,0.2,1.2,0.5c0.3,0.3,0.5,0.7,0.5,1.2
			c0,0.4-0.2,0.8-0.5,1.1c-0.3,0.3-0.7,0.5-1.1,0.5c-0.4,0-0.8-0.2-1.1-0.5C320.4,191.5,320.3,191.1,320.3,190.6z M320.7,207.7v-14
			h2.3v14H320.7z"/>
		<path class="st0" d="M332.9,207.7v-10.4c0-1.2,0.4-2.2,1.2-2.8c0.6-0.5,1.5-0.7,2.7-0.7h3.7c1.2,0,2.1,0.2,2.7,0.7
			c0.4,0.3,0.7,0.7,0.9,1.2c0.2,0.5,0.3,1,0.3,1.6v10.4h-2.3v-10.1v-0.6c0-0.2-0.1-0.3-0.3-0.5c-0.3-0.2-0.7-0.4-1.3-0.4h-3.8
			c-0.6,0-1,0.1-1.3,0.3c-0.2,0.2-0.3,0.6-0.3,1.2v10.1H332.9z"/>
		<path class="st0" d="M354.2,212.2v-2.3h7.5c0.5,0,0.7,0,0.8,0c0.1,0,0.2-0.1,0.4-0.3c0.3-0.3,0.5-0.8,0.5-1.3v-0.6H358
			c-1,0-1.9-0.4-2.6-1.1c-0.7-0.7-1-1.6-1-2.7v-6.6c0-1,0.3-1.9,0.9-2.6c0.6-0.7,1.4-1,2.4-1h4.9c1,0,1.8,0.3,2.4,0.9
			c0.6,0.6,0.9,1.4,0.9,2.5v11.7c0,1.1-0.4,1.9-1.1,2.5c-0.7,0.6-1.7,0.9-2.9,0.9H354.2z M356.7,203.7c0,0.5,0.1,0.9,0.4,1.2
			c0.3,0.3,0.6,0.5,1.1,0.5h4.1c0.9,0,1.3-0.6,1.3-1.7v-6.1c0-1.1-0.4-1.6-1.3-1.6h-3.9c-0.5,0-0.9,0.1-1.2,0.4
			c-0.3,0.3-0.5,0.7-0.5,1.2V203.7z"/>
		<path class="st0" d="M389.1,207.7V205h7.5c0.5,0,0.9-0.1,1.3-0.4c0.3-0.3,0.5-0.7,0.5-1.1v-2.4c0-0.5-0.2-0.9-0.5-1.2
			s-0.8-0.4-1.4-0.4h-2.8c-1.3,0-2.3-0.4-3.2-1.1c-0.9-0.7-1.3-1.6-1.3-2.7v-2.3c0-0.9,0.1-1.7,0.4-2.2c0.3-0.6,0.7-1,1.3-1.4
			c0.4-0.3,0.8-0.4,1.2-0.5c0.4-0.1,0.9-0.2,1.6-0.2h7.6v2.7h-7.7c-1.1,0-1.7,0.5-1.7,1.5v1.9c0,1.3,0.6,1.9,1.8,1.9h3.3
			c1.2,0,2.2,0.4,3,1.1c0.8,0.7,1.2,1.6,1.2,2.5v2.9c0,1.2-0.4,2.2-1.2,2.9c-0.8,0.8-1.8,1.2-3,1.2H389.1z"/>
		<path class="st0" d="M422,207.7h-7.8c-1.2,0-2.1-0.3-2.8-1c-0.7-0.7-1-1.6-1-2.7v-6.3c0-2.7,1.4-4,4.3-4h3.5
			c1.2,0,2.1,0.3,2.7,0.9c0.6,0.6,1,1.5,1,2.7v1.7l-9.1,4.2v0.5l0.1,0.6c0.1,0.2,0.1,0.3,0.1,0.4s0,0.1,0.1,0.2
			c0.2,0.3,0.6,0.5,1.3,0.5h7.7V207.7z M412.8,197.8l0,2.8l6.8-3.2l0-0.2c0-0.4-0.1-0.8-0.3-0.9c-0.2-0.2-0.6-0.3-1.1-0.3h-3.8
			C413.3,196,412.8,196.6,412.8,197.8z"/>
		<path class="st0" d="M440.6,207.7h-5.4c-1.1,0-2-0.3-2.8-1c-0.7-0.7-1.1-1.5-1.1-2.5v-6.9c0-0.7,0.1-1.3,0.3-1.7
			c0.2-0.4,0.5-0.8,1-1.1c0.7-0.5,1.6-0.8,2.6-0.8h5.3v2.3h-5.3c-0.5,0-0.8,0.1-1.1,0.4c-0.3,0.3-0.4,0.6-0.4,1.1v6.1
			c0,0.5,0.2,0.9,0.5,1.2c0.3,0.3,0.7,0.5,1.1,0.5h5.3V207.7z"/>
		<path class="st0" d="M461.3,193.7v10.4c0,1.2-0.4,2.1-1.2,2.8c-0.3,0.3-0.7,0.4-1.1,0.6c-0.4,0.1-1,0.2-1.6,0.2h-3.7
			c-0.7,0-1.2-0.1-1.6-0.2c-0.4-0.1-0.7-0.3-1.1-0.6c-0.8-0.7-1.2-1.6-1.2-2.8v-10.4h2.3v10.1v0.6c0,0.2,0.1,0.4,0.3,0.5
			c0.3,0.2,0.7,0.4,1.3,0.4h3.7c0.6,0,1-0.1,1.3-0.3c0.2-0.2,0.3-0.6,0.3-1.2v-10.1H461.3z"/>
		<path class="st0" d="M471.1,207.7v-10.3c0-1.3,0.3-2.2,0.8-2.8c0.3-0.3,0.7-0.5,1.2-0.7c0.5-0.2,1-0.3,1.5-0.3h1.3v2.4h-1.1
			c-0.9,0-1.3,0.5-1.3,1.4v10.2H471.1z"/>
		<path class="st0" d="M496,207.7h-7.8c-1.2,0-2.1-0.3-2.8-1c-0.7-0.7-1-1.6-1-2.7v-6.3c0-2.7,1.4-4,4.3-4h3.5
			c1.2,0,2.1,0.3,2.7,0.9c0.6,0.6,1,1.5,1,2.7v1.7l-9.1,4.2v0.5l0.1,0.6c0.1,0.2,0.1,0.3,0.1,0.4c0,0.1,0,0.1,0.1,0.2
			c0.2,0.3,0.6,0.5,1.3,0.5h7.7V207.7z M486.7,197.8l0,2.8l6.8-3.2l0-0.2c0-0.4-0.1-0.8-0.3-0.9c-0.2-0.2-0.6-0.3-1.1-0.3h-3.8
			C487.2,196,486.7,196.6,486.7,197.8z"/>
		<path class="st0" d="M517.5,207.7l6.2-16.9c0.3-0.7,0.6-1.3,0.9-1.5c0.3-0.3,0.7-0.4,1.3-0.4c0.6,0,1,0.1,1.3,0.4
			c0.3,0.3,0.6,0.8,0.9,1.6l6.2,16.9l-2.9,0l-1.4-3.9h-8.1l-1.4,3.9L517.5,207.7z M525.8,192.6l-3,8.5h6.1L525.8,192.6z"/>
		<path class="st0" d="M542.2,212.2v-15c0-1.2,0.3-2,0.9-2.7c0.6-0.6,1.5-0.9,2.7-0.9h4.4c1.2,0,2.1,0.3,2.7,0.9
			c0.6,0.6,1,1.4,1,2.5v6.7c0,1.1-0.3,2-1,2.8c-0.7,0.7-1.5,1.1-2.6,1.1h-5.8v4.6H542.2z M544.5,203.7c0,0.4,0.1,0.8,0.4,1.1
			c0.2,0.3,0.6,0.5,0.9,0.5h4.4c0.4,0,0.7-0.1,1-0.4c0.2-0.3,0.4-0.6,0.4-1v-6.6c0-0.9-0.4-1.3-1.2-1.3h-4.2c-1.1,0-1.7,0.5-1.7,1.4
			V203.7z"/>
		<path class="st0" d="M563.7,212.2v-15c0-1.2,0.3-2,0.9-2.7c0.6-0.6,1.5-0.9,2.7-0.9h4.4c1.2,0,2.1,0.3,2.7,0.9
			c0.6,0.6,1,1.4,1,2.5v6.7c0,1.1-0.3,2-1,2.8c-0.7,0.7-1.5,1.1-2.6,1.1H566v4.6H563.7z M566,203.7c0,0.4,0.1,0.8,0.4,1.1
			c0.2,0.3,0.6,0.5,0.9,0.5h4.4c0.4,0,0.7-0.1,1-0.4c0.2-0.3,0.4-0.6,0.4-1v-6.6c0-0.9-0.4-1.3-1.2-1.3h-4.2c-1.1,0-1.7,0.5-1.7,1.4
			V203.7z"/>
		<path class="st0" d="M585.2,207.7V189h2.3v18.7H585.2z"/>
		<path class="st0" d="M596.8,190.6c0-0.5,0.1-0.9,0.4-1.2c0.3-0.3,0.7-0.5,1.1-0.5c0.5,0,0.9,0.2,1.2,0.5c0.3,0.3,0.5,0.7,0.5,1.2
			c0,0.4-0.2,0.8-0.5,1.1s-0.7,0.5-1.1,0.5c-0.4,0-0.8-0.2-1.1-0.5S596.8,191.1,596.8,190.6z M597.2,207.7v-14h2.3v14H597.2z"/>
		<path class="st0" d="M618.6,207.7h-5.4c-1.1,0-2-0.3-2.8-1c-0.7-0.7-1.1-1.5-1.1-2.5v-6.9c0-0.7,0.1-1.3,0.3-1.7
			c0.2-0.4,0.5-0.8,1-1.1c0.7-0.5,1.6-0.8,2.6-0.8h5.3v2.3h-5.3c-0.5,0-0.8,0.1-1.1,0.4c-0.3,0.3-0.4,0.6-0.4,1.1v6.1
			c0,0.5,0.2,0.9,0.5,1.2c0.3,0.3,0.7,0.5,1.1,0.5h5.3V207.7z"/>
		<path class="st0" d="M627.8,193.7h8.3c0.6,0,1.1,0.1,1.4,0.2c0.3,0.1,0.6,0.3,0.9,0.6c0.3,0.3,0.6,0.7,0.7,1.1
			c0.2,0.4,0.3,0.9,0.3,1.3v7.2c0,0.9-0.3,1.8-1,2.5c-0.7,0.7-1.5,1.1-2.4,1.1h-4.7c-0.9,0-1.8-0.4-2.5-1.1
			c-0.7-0.8-1.1-1.6-1.1-2.6v-1.7c0-1.4,0.3-2.5,0.9-3.2c0.6-0.8,1.5-1.1,2.6-1.1h5.8V197c0-0.7-0.5-1-1.4-1h-7.9V193.7z
			 M630.6,205.1c0.2,0.2,0.7,0.2,1.4,0.2h3.2c0.7,0,1.1-0.1,1.3-0.2s0.3-0.3,0.4-0.6c0.1-0.2,0.2-0.4,0.2-0.6v-2.3
			c0-0.5-0.2-0.8-0.5-1.1c-0.3-0.3-0.8-0.4-1.4-0.4h-3.2c-0.6,0-1,0.1-1.3,0.4c-0.3,0.3-0.5,0.6-0.5,1.1v2.3c0,0.2,0.1,0.3,0.2,0.6
			C630.3,204.8,630.5,205,630.6,205.1z"/>
		<path class="st0" d="M649.2,207.7V189h2.3v4.7h2.4v2.3h-2.4v11.7H649.2z"/>
		<path class="st0" d="M661.4,190.6c0-0.5,0.1-0.9,0.4-1.2c0.3-0.3,0.7-0.5,1.1-0.5c0.5,0,0.9,0.2,1.2,0.5c0.3,0.3,0.5,0.7,0.5,1.2
			c0,0.4-0.2,0.8-0.5,1.1c-0.3,0.3-0.7,0.5-1.1,0.5c-0.4,0-0.8-0.2-1.1-0.5C661.5,191.5,661.4,191.1,661.4,190.6z M661.9,207.7v-14
			h2.3v14H661.9z"/>
		<path class="st0" d="M677.7,207.7c-1.1,0-2-0.3-2.7-1c-0.7-0.6-1-1.5-1-2.5V197c0-1,0.3-1.8,1-2.4c0.7-0.6,1.6-0.9,2.7-0.9h4.3
			c1.1,0,2,0.3,2.7,0.9c0.7,0.6,1,1.4,1,2.4v7.3c0,1-0.4,1.8-1.1,2.5c-0.7,0.7-1.6,1-2.7,1H677.7z M676.3,203.5
			c0,0.7,0.1,1.1,0.4,1.4c0.3,0.3,0.7,0.4,1.3,0.4h3.8c1.1,0,1.7-0.6,1.7-1.8v-5.9c0-1.1-0.6-1.7-1.7-1.7H678
			c-1.1,0-1.7,0.6-1.7,1.7V203.5z"/>
		<path class="st0" d="M695.5,207.7v-10.4c0-1.2,0.4-2.2,1.2-2.8c0.6-0.5,1.5-0.7,2.7-0.7h3.7c1.2,0,2.1,0.2,2.7,0.7
			c0.4,0.3,0.7,0.7,0.9,1.2c0.2,0.5,0.3,1,0.3,1.6v10.4h-2.3v-10.1v-0.6c0-0.2-0.1-0.3-0.3-0.5c-0.3-0.2-0.7-0.4-1.3-0.4h-3.8
			c-0.6,0-1,0.1-1.3,0.3c-0.2,0.2-0.3,0.6-0.3,1.2v10.1H695.5z"/>
		<path class="st0" d="M716.4,207.7v-2.3h6.6h0.6c0.6,0,1-0.5,1-1.4v-1.1c0-0.9-0.5-1.3-1.4-1.3H720c-1.1,0-1.9-0.2-2.4-0.6
			c-0.3-0.2-0.6-0.6-0.8-1c-0.2-0.4-0.3-0.8-0.3-1.3v-1.8c0-1,0.3-1.8,0.8-2.4c0.6-0.6,1.3-0.9,2.3-0.9h7.3v2.3h-6.6h-0.5
			c-0.3,0-0.5,0.1-0.7,0.3c-0.2,0.2-0.3,0.4-0.3,0.8v1c0,0.3,0.1,0.6,0.4,0.8c0.2,0.2,0.6,0.3,0.9,0.3h3.5c0.9,0,1.7,0.3,2.3,1
			c0.7,0.6,1,1.4,1,2.3v2.2c0,0.8-0.3,1.5-0.9,2.1c-0.6,0.6-1.3,0.9-2.1,0.9H716.4z"/>
	</g>
</g>
</svg>
