<svg xmlns="http://www.w3.org/2000/svg" xml:space="preserve" id="Layer_1" x="0" y="0" viewBox="0 0 765.4 283.5"><style>.st0{fill:#282560}.st1{fill:#969799}</style><path d="M113.9 212.4H26.3V93.3L57 124.2v57.5h56.9z" class="st0"/><path d="m113.9 182.6 31.5 29.8V93.3H57v30.9h56.9z" class="st1"/><path d="M79.7 129.8h29.4v29.4" style="fill:#bc202e"/><path d="M148.7 93.3h29.4v29.4M200.7 96.1h44.4c3.4 0 6 .3 7.6.8 1.7.6 3.4 1.7 5.1 3.5s3.1 3.8 4 6c1 2.3 1.5 4.6 1.5 7V152c0 5-1.9 9.4-5.6 13.3s-8 5.8-12.8 5.8h-25.1c-5 0-9.4-2-13.3-6.1s-5.8-8.7-5.8-14v-9c0-7.5 1.6-13.3 4.9-17.3q4.95-6 14.1-6h30.9v-4.9c0-3.5-2.5-5.3-7.5-5.3h-42.5V96.1zm15.4 61.3c1.3.8 3.7 1.2 7.4 1.2h16.9c3.8 0 6.2-.4 7.1-1.1s1.7-1.7 2.3-3q.9-1.8.9-3.3v-12.1q0-3.75-2.7-6c-1.8-1.5-4.3-2.2-7.4-2.2h-17.3c-3 0-5.4.7-7.2 2.2-1.9 1.5-2.8 3.5-2.8 6v12.1c0 .8.3 1.9.8 3.1.5 1.4 1.2 2.4 2 3.1M328.9 171.2h-28.7c-5.9 0-10.9-1.8-14.8-5.4-4-3.6-6-8.1-6-13.6v-37.1c0-3.8.5-6.8 1.5-9.1s2.8-4.2 5.4-5.8c3.9-2.8 8.5-4.2 13.7-4.2h28.6v12.5H300c-2.5 0-4.5.7-6 2.2s-2.2 3.5-2.2 6v32.6c0 2.5.8 4.7 2.5 6.5 1.7 1.9 3.7 2.8 6.1 2.8h28.4v12.6zM404.8 96.1V152c0 6.4-2.2 11.5-6.5 15.3q-2.7 2.1-6 3c-2.3.6-5.1.9-8.5.9H364c-3.7 0-6.5-.3-8.5-.8-2-.6-4-1.6-5.9-3.1-4.3-3.6-6.5-8.7-6.5-15.3V96.1h12.5v57.8c.2 1 .7 1.9 1.5 2.6 1.4 1.3 3.7 1.9 6.8 1.9H384c3.2 0 5.5-.6 6.8-1.7 1.3-1.2 1.9-3.3 1.9-6.3V96.1zM435.1 96.1h29c6.5 0 11.5 1.6 15 4.9 3.5 3.2 5.3 8 5.3 14.2v36.4c0 5.8-1.6 10.4-4.7 13.6-4.1 4.1-8.7 6.1-13.9 6.1h-24.6c-5.2 0-9.6-2-13.2-6.1q-5.4-6.15-5.4-15v-79h12.5zm0 53.6c0 2.7.7 4.9 2.2 6.5 1.5 1.7 3.5 2.5 6 2.5h21.8c1.9 0 3.6-.7 4.9-2.2s1.9-3.4 1.9-5.7V117c0-5.6-2.7-8.5-8.2-8.5h-20.5c-5.4 0-8 2.7-8 8.2v33zM564.3 171.2h-41.8c-6.2 0-11.1-1.8-14.8-5.4s-5.6-8.4-5.6-14.4v-33.6c0-14.4 7.7-21.6 23-21.6h18.6c6.3 0 11.2 1.7 14.6 5.1 3.5 3.4 5.2 8.1 5.2 14.2v8.9l-49 22.8v2.5l.4 3.2c.3 1 .4 1.7.5 2 0 .3.3.8.6 1.3.9 1.8 3.2 2.6 6.9 2.6h41.2v12.4zm-49.7-53.1v15.2l36.3-17v-1.2c0-2.4-.5-4.1-1.6-5s-3.1-1.4-6-1.4h-20.4c-5.5-.1-8.3 3-8.3 9.4M641.3 71.1v79c0 5.8-1.8 10.8-5.5 14.9s-8 6.2-13.1 6.2h-24.6c-2.2 0-4.6-.6-7.2-1.7s-4.8-2.6-6.7-4.4c-3.1-3.1-4.7-7.7-4.7-13.6v-36.4c0-6.1 1.7-10.8 5.2-14.1s8.5-4.9 15.1-4.9h29v-25zM592 150.8c0 2.1.6 4 1.9 5.6s2.9 2.4 4.7 2.4h21.9c2.5 0 4.5-.8 6-2.5s2.2-3.8 2.2-6.5v-32.9c0-5.5-2.7-8.2-8.1-8.2h-20.5c-5.5 0-8.2 2.8-8.2 8.5v33.6zM653.9 162.4c0-2.4.8-4.4 2.4-6.1s3.6-2.5 6.1-2.5c2.4 0 4.4.8 6.1 2.5s2.5 3.7 2.5 6.1c0 2.5-.8 4.6-2.4 6.2-1.6 1.7-3.6 2.5-6.1 2.5-2.4 0-4.4-.8-6.1-2.5-1.6-1.6-2.5-3.7-2.5-6.2" class="st0"/><path d="M681.1 79.9c0-2.5.8-4.6 2.4-6.2 1.6-1.7 3.6-2.5 6-2.5 2.5 0 4.6.9 6.3 2.6s2.6 3.8 2.6 6.2-.8 4.4-2.5 6.1-3.7 2.5-6.1 2.5-4.4-.8-6.1-2.5c-1.7-1.8-2.6-3.8-2.6-6.2m2.5 91.3V96.1H696v75.1zM713.7 171.2V71.1h12.5v25H739v12.5h-12.8v62.6z" class="st1"/><path d="M202.4 207.7V189h9.5c1.1 0 2.1.4 2.8 1.2s1.1 1.8 1.1 3.1v9.6c0 1.3-.4 2.5-1.3 3.4-.8.9-1.9 1.4-3.2 1.4zm2.6-16V205h6.1c1.3 0 1.9-.7 1.9-2.2v-8.9c0-.8-.1-1.4-.4-1.7s-.8-.5-1.5-.5zM237.2 207.7h-7.8c-1.2 0-2.1-.3-2.8-1s-1-1.6-1-2.7v-6.3c0-2.7 1.4-4 4.3-4h3.5q1.8 0 2.7.9c.9.9 1 1.5 1 2.7v1.7l-9.1 4.2v.5l.1.6c.1.2.1.3.1.4s0 .1.1.2c.2.3.6.5 1.3.5h7.7v2.3zm-9.3-9.9v2.8l6.8-3.2v-.2c0-.4-.1-.8-.3-.9-.2-.2-.6-.3-1.1-.3h-3.8c-1.1 0-1.6.6-1.6 1.8M246 207.7v-2.3h7.2c.6 0 1-.5 1-1.4v-1.1c0-.9-.5-1.3-1.4-1.3h-3.2q-1.65 0-2.4-.6c-.3-.2-.6-.6-.8-1s-.3-.8-.3-1.3v-1.8c0-1 .3-1.8.8-2.4s1.3-.9 2.3-.9h7.3v2.3h-7.1c-.3 0-.5.1-.7.3s-.3.4-.3.8v1c0 .3.1.6.4.8.2.2.6.3.9.3h3.5c.9 0 1.7.3 2.3 1 .7.6 1 1.4 1 2.3v2.2q0 1.2-.9 2.1t-2.1.9H246zM265.4 190.6c0-.5.1-.9.4-1.2s.7-.5 1.1-.5c.5 0 .9.2 1.2.5s.5.7.5 1.2c0 .4-.2.8-.5 1.1s-.7.5-1.1.5-.8-.2-1.1-.5c-.4-.2-.5-.6-.5-1.1m.4 17.1v-14h2.3v14zM278 212.2v-2.3h8.3c.1 0 .2-.1.4-.3.3-.3.5-.8.5-1.3v-.6h-5.6c-1 0-1.9-.4-2.6-1.1s-1-1.6-1-2.7v-6.6c0-1 .3-1.9.9-2.6s1.4-1 2.4-1h4.9q1.5 0 2.4.9c.6.6.9 1.4.9 2.5v11.7c0 1.1-.4 1.9-1.1 2.5s-1.7.9-2.9.9zm2.4-8.5c0 .5.1.9.4 1.2s.6.5 1.1.5h4.1c.9 0 1.3-.6 1.3-1.7v-6.1c0-1.1-.4-1.6-1.3-1.6h-3.9c-.5 0-.9.1-1.2.4s-.5.7-.5 1.2zM299.4 207.7v-10.4c0-1.2.4-2.2 1.2-2.8.6-.5 1.5-.7 2.7-.7h3.7c1.2 0 2.1.2 2.7.7q.6.45.9 1.2c.2.5.3 1 .3 1.6v10.4h-2.3V197c0-.2-.1-.3-.3-.5-.3-.2-.7-.4-1.3-.4h-3.8c-.6 0-1 .1-1.3.3q-.3.3-.3 1.2v10.1zM320.3 190.6c0-.5.1-.9.4-1.2s.7-.5 1.1-.5c.5 0 .9.2 1.2.5s.5.7.5 1.2c0 .4-.2.8-.5 1.1s-.7.5-1.1.5-.8-.2-1.1-.5c-.4-.2-.5-.6-.5-1.1m.4 17.1v-14h2.3v14zM332.9 207.7v-10.4c0-1.2.4-2.2 1.2-2.8.6-.5 1.5-.7 2.7-.7h3.7c1.2 0 2.1.2 2.7.7q.6.45.9 1.2c.2.5.3 1 .3 1.6v10.4h-2.3V197c0-.2-.1-.3-.3-.5-.3-.2-.7-.4-1.3-.4h-3.8c-.6 0-1 .1-1.3.3q-.3.3-.3 1.2v10.1zM354.2 212.2v-2.3h8.3c.1 0 .2-.1.4-.3.3-.3.5-.8.5-1.3v-.6H358c-1 0-1.9-.4-2.6-1.1s-1-1.6-1-2.7v-6.6c0-1 .3-1.9.9-2.6s1.4-1 2.4-1h4.9q1.5 0 2.4.9c.6.6.9 1.4.9 2.5v11.7c0 1.1-.4 1.9-1.1 2.5s-1.7.9-2.9.9zm2.5-8.5c0 .5.1.9.4 1.2s.6.5 1.1.5h4.1c.9 0 1.3-.6 1.3-1.7v-6.1c0-1.1-.4-1.6-1.3-1.6h-3.9c-.5 0-.9.1-1.2.4s-.5.7-.5 1.2zM389.1 207.7V205h7.5c.5 0 .9-.1 1.3-.4.3-.3.5-.7.5-1.1v-2.4c0-.5-.2-.9-.5-1.2s-.8-.4-1.4-.4h-2.8c-1.3 0-2.3-.4-3.2-1.1s-1.3-1.6-1.3-2.7v-2.3c0-.9.1-1.7.4-2.2.3-.6.7-1 1.3-1.4.4-.3.8-.4 1.2-.5s.9-.2 1.6-.2h7.6v2.7h-7.7c-1.1 0-1.7.5-1.7 1.5v1.9c0 1.3.6 1.9 1.8 1.9h3.3c1.2 0 2.2.4 3 1.1s1.2 1.6 1.2 2.5v2.9c0 1.2-.4 2.2-1.2 2.9q-1.2 1.2-3 1.2zM422 207.7h-7.8c-1.2 0-2.1-.3-2.8-1s-1-1.6-1-2.7v-6.3c0-2.7 1.4-4 4.3-4h3.5q1.8 0 2.7.9c.6.6 1 1.5 1 2.7v1.7l-9.1 4.2v.5l.1.6c.1.2.1.3.1.4s0 .1.1.2c.2.3.6.5 1.3.5h7.7v2.3zm-9.2-9.9v2.8l6.8-3.2v-.2c0-.4-.1-.8-.3-.9-.2-.2-.6-.3-1.1-.3h-3.8c-1.1 0-1.6.6-1.6 1.8M440.6 207.7h-5.4c-1.1 0-2-.3-2.8-1-.7-.7-1.1-1.5-1.1-2.5v-6.9c0-.7.1-1.3.3-1.7s.5-.8 1-1.1c.7-.5 1.6-.8 2.6-.8h5.3v2.3h-5.3c-.5 0-.8.1-1.1.4s-.4.6-.4 1.1v6.1c0 .5.2.9.5 1.2s.7.5 1.1.5h5.3zM461.3 193.7v10.4c0 1.2-.4 2.1-1.2 2.8-.3.3-.7.4-1.1.6-.4.1-1 .2-1.6.2h-3.7c-.7 0-1.2-.1-1.6-.2s-.7-.3-1.1-.6c-.8-.7-1.2-1.6-1.2-2.8v-10.4h2.3v10.7c0 .2.1.4.3.5.3.2.7.4 1.3.4h3.7c.6 0 1-.1 1.3-.3q.3-.3.3-1.2v-10.1zM471.1 207.7v-10.3c0-1.3.3-2.2.8-2.8.3-.3.7-.5 1.2-.7q.75-.3 1.5-.3h1.3v2.4h-1.1c-.9 0-1.3.5-1.3 1.4v10.2h-2.4zM496 207.7h-7.8c-1.2 0-2.1-.3-2.8-1s-1-1.6-1-2.7v-6.3c0-2.7 1.4-4 4.3-4h3.5q1.8 0 2.7.9c.6.6 1 1.5 1 2.7v1.7l-9.1 4.2v.5l.1.6c.1.2.1.3.1.4s0 .1.1.2c.2.3.6.5 1.3.5h7.7v2.3zm-9.3-9.9v2.8l6.8-3.2v-.2c0-.4-.1-.8-.3-.9-.2-.2-.6-.3-1.1-.3h-3.8c-1.1 0-1.6.6-1.6 1.8M517.5 207.7l6.2-16.9c.3-.7.6-1.3.9-1.5.3-.3.7-.4 1.3-.4s1 .1 1.3.4.6.8.9 1.6l6.2 16.9h-2.9l-1.4-3.9h-8.1l-1.4 3.9zm8.3-15.1-3 8.5h6.1zM542.2 212.2v-15c0-1.2.3-2 .9-2.7q.9-.9 2.7-.9h4.4q1.8 0 2.7.9c.6.6 1 1.4 1 2.5v6.7c0 1.1-.3 2-1 2.8-.7.7-1.5 1.1-2.6 1.1h-5.8v4.6zm2.3-8.5c0 .4.1.8.4 1.1.2.3.6.5.9.5h4.4c.4 0 .7-.1 1-.4.2-.3.4-.6.4-1v-6.6c0-.9-.4-1.3-1.2-1.3h-4.2c-1.1 0-1.7.5-1.7 1.4zM563.7 212.2v-15c0-1.2.3-2 .9-2.7q.9-.9 2.7-.9h4.4q1.8 0 2.7.9c.6.6 1 1.4 1 2.5v6.7c0 1.1-.3 2-1 2.8-.7.7-1.5 1.1-2.6 1.1H566v4.6zm2.3-8.5c0 .4.1.8.4 1.1.2.3.6.5.9.5h4.4c.4 0 .7-.1 1-.4.2-.3.4-.6.4-1v-6.6c0-.9-.4-1.3-1.2-1.3h-4.2c-1.1 0-1.7.5-1.7 1.4zM585.2 207.7V189h2.3v18.7zM596.8 190.6c0-.5.1-.9.4-1.2s.7-.5 1.1-.5c.5 0 .9.2 1.2.5s.5.7.5 1.2c0 .4-.2.8-.5 1.1s-.7.5-1.1.5-.8-.2-1.1-.5-.5-.6-.5-1.1m.4 17.1v-14h2.3v14zM618.6 207.7h-5.4c-1.1 0-2-.3-2.8-1-.7-.7-1.1-1.5-1.1-2.5v-6.9c0-.7.1-1.3.3-1.7s.5-.8 1-1.1c.7-.5 1.6-.8 2.6-.8h5.3v2.3h-5.3c-.5 0-.8.1-1.1.4s-.4.6-.4 1.1v6.1c0 .5.2.9.5 1.2s.7.5 1.1.5h5.3zM627.8 193.7h8.3c.6 0 1.1.1 1.4.2q.45.15.9.6c.3.3.6.7.7 1.1.2.4.3.9.3 1.3v7.2c0 .9-.3 1.8-1 2.5s-1.5 1.1-2.4 1.1h-4.7c-.9 0-1.8-.4-2.5-1.1-.7-.8-1.1-1.6-1.1-2.6v-1.7c0-1.4.3-2.5.9-3.2.6-.8 1.5-1.1 2.6-1.1h5.8v-1c0-.7-.5-1-1.4-1h-7.9v-2.3zm2.8 11.4c.2.2.7.2 1.4.2h3.2c.7 0 1.1-.1 1.3-.2s.3-.3.4-.6c.1-.2.2-.4.2-.6v-2.3c0-.5-.2-.8-.5-1.1s-.8-.4-1.4-.4H632c-.6 0-1 .1-1.3.4s-.5.6-.5 1.1v2.3c0 .2.1.3.2.6-.1.3.1.5.2.6M649.2 207.7V189h2.3v4.7h2.4v2.3h-2.4v11.7zM661.4 190.6c0-.5.1-.9.4-1.2s.7-.5 1.1-.5c.5 0 .9.2 1.2.5s.5.7.5 1.2c0 .4-.2.8-.5 1.1s-.7.5-1.1.5-.8-.2-1.1-.5c-.4-.2-.5-.6-.5-1.1m.5 17.1v-14h2.3v14zM677.7 207.7c-1.1 0-2-.3-2.7-1-.7-.6-1-1.5-1-2.5V197c0-1 .3-1.8 1-2.4q1.05-.9 2.7-.9h4.3q1.65 0 2.7.9c.7.6 1 1.4 1 2.4v7.3c0 1-.4 1.8-1.1 2.5s-1.6 1-2.7 1h-4.2zm-1.4-4.2c0 .7.1 1.1.4 1.4s.7.4 1.3.4h3.8c1.1 0 1.7-.6 1.7-1.8v-5.9c0-1.1-.6-1.7-1.7-1.7H678c-1.1 0-1.7.6-1.7 1.7zM695.5 207.7v-10.4c0-1.2.4-2.2 1.2-2.8.6-.5 1.5-.7 2.7-.7h3.7c1.2 0 2.1.2 2.7.7q.6.45.9 1.2c.2.5.3 1 .3 1.6v10.4h-2.3V197c0-.2-.1-.3-.3-.5-.3-.2-.7-.4-1.3-.4h-3.8c-.6 0-1 .1-1.3.3q-.3.3-.3 1.2v10.1zM716.4 207.7v-2.3h7.2c.6 0 1-.5 1-1.4v-1.1c0-.9-.5-1.3-1.4-1.3H720q-1.65 0-2.4-.6c-.3-.2-.6-.6-.8-1s-.3-.8-.3-1.3v-1.8c0-1 .3-1.8.8-2.4.6-.6 1.3-.9 2.3-.9h7.3v2.3h-7.1c-.3 0-.5.1-.7.3s-.3.4-.3.8v1c0 .3.1.6.4.8.2.2.6.3.9.3h3.5c.9 0 1.7.3 2.3 1 .7.6 1 1.4 1 2.3v2.2q0 1.2-.9 2.1t-2.1.9h-7.5z" class="st0"/></svg>