<?xml version="1.0" encoding="UTF-8"?>
<svg width="171px" height="28px" viewBox="0 0 171 28" version="1.1" xmlns="http://www.w3.org/2000/svg" xmlns:xlink="http://www.w3.org/1999/xlink">
    <title>Atoms/Logo</title>
    <g id="Atoms/Logo" stroke="none" stroke-width="1" fill="none" fill-rule="evenodd">
        <g id="Group">
            <path d="M4,0 L24,0 C26.209139,1.11220812e-15 28,1.790861 28,4 L28,24 C28,26.209139 26.209139,28 24,28 L4,28 C1.790861,28 1.78856188e-15,26.209139 0,24 L0,4 C-7.1463071e-16,1.790861 1.790861,-3.82769592e-17 4,0 Z" id="Rectangle" fill="#4B9FE0"></path>
            <path d="M2.60465116,17.0867119 C2.98187459,16.4668742 3.4833438,16.0322848 4.10905878,15.7829439 C4.73477377,15.533603 5.40410931,15.4681721 6.1170654,15.5866513 C6.27942759,17.1479897 6.38096405,18.0695677 6.42167477,18.3513854 C6.51960708,19.0293162 6.76505932,19.8452844 7.15803149,20.7992897 L19.5603806,3.718555 C20.3581273,2.68373417 21.0717757,2.119027 21.7013258,2.0244335 C22.3308758,1.92984 23.5622168,1.92984 25.3953488,2.0244335 C21.4909768,7.01792304 18.5674133,10.9012514 16.6246582,13.6744186 C14.6819032,16.4475858 12.072697,20.3545625 8.79703973,25.3953488 L5.24811181,25.3953488 C4.36768502,23.7241303 3.78683918,22.480648 3.50557428,21.6649017 C3.22430939,20.8491554 2.92400168,19.3230922 2.60465116,17.0867119 Z" id="Path" fill="#FFFFFF"></path>
        </g>
        <path d="M40.056,27 L40.056,16.164 L54.456,16.164 L54.456,27 L57.948,27 L57.948,1.8 L54.456,1.8 L54.456,13.032 L40.056,13.032 L40.056,1.8 L36.6,1.8 L36.6,27 L40.056,27 Z M63.712909,27 L66.340909,20.88 L79.624909,20.88 L82.288909,27 L86.032909,27 L74.872909,1.8 L71.272909,1.8 L60.076909,27 L63.712909,27 Z M78.292909,17.748 L67.708909,17.748 L72.964909,5.508 L78.292909,17.748 Z M91.581818,27 L91.581818,19.152 L97.989818,19.152 C98.349818,19.152 98.817818,19.128 99.393818,19.08 L99.393818,19.08 L104.397818,27 L108.357818,27 L102.489818,18.468 C104.265818,17.844 105.627818,16.836 106.575818,15.444 C107.523818,14.052 107.997818,12.336 107.997818,10.296 C107.997818,7.584 107.127818,5.49 105.387818,4.014 C103.647818,2.538 101.181818,1.8 97.989818,1.8 L97.989818,1.8 L88.125818,1.8 L88.125818,27 L91.581818,27 Z M97.989818,16.02 L91.581818,16.02 L91.581818,4.932 L97.989818,4.932 C100.149818,4.932 101.805818,5.394 102.957818,6.318 C104.109818,7.242 104.685818,8.604 104.685818,10.404 C104.685818,12.252 104.109818,13.65 102.957818,14.598 C101.805818,15.546 100.149818,16.02 97.989818,16.02 L97.989818,16.02 Z M116.030727,27 L116.030727,1.8 L112.574727,1.8 L112.574727,27 L116.030727,27 Z M132.451636,27.252 C134.179636,27.252 135.883636,26.898 137.563636,26.19 C139.243636,25.482 140.719636,24.504 141.991636,23.256 L141.991636,23.256 L139.903636,20.988 C138.919636,21.924 137.791636,22.662 136.519636,23.202 C135.247636,23.742 133.951636,24.012 132.631636,24.012 C130.855636,24.012 129.223636,23.58 127.735636,22.716 C126.247636,21.852 125.071636,20.676 124.207636,19.188 C123.343636,17.7 122.911636,16.08 122.911636,14.328 C122.911636,12.552 123.343636,10.926 124.207636,9.45 C125.071636,7.974 126.247636,6.804 127.735636,5.94 C129.223636,5.076 130.855636,4.644 132.631636,4.644 C133.975636,4.644 135.283636,4.926 136.555636,5.49 C137.827636,6.054 138.943636,6.84 139.903636,7.848 L139.903636,7.848 L141.955636,5.364 C140.755636,4.164 139.333636,3.234 137.689636,2.574 C136.045636,1.914 134.347636,1.584 132.595636,1.584 C130.171636,1.584 127.951636,2.148 125.935636,3.276 C123.919636,4.404 122.329636,5.946 121.165636,7.902 C120.001636,9.858 119.419636,12.012 119.419636,14.364 C119.419636,16.74 119.995636,18.912 121.147636,20.88 C122.299636,22.848 123.871636,24.402 125.863636,25.542 C127.855636,26.682 130.051636,27.252 132.451636,27.252 Z M145.236545,27 L147.864545,20.88 L161.148545,20.88 L163.812545,27 L167.556545,27 L156.396545,1.8 L152.796545,1.8 L141.600545,27 L145.236545,27 Z M159.816545,17.748 L149.232545,17.748 L154.488545,5.508 L159.816545,17.748 Z" id="HARICA" fill="#555555" fill-rule="nonzero"></path>
    </g>
</svg>