<svg xmlns="http://www.w3.org/2000/svg" viewBox="0 0 391 63" width="391" height="63">
	<style>
		tspan { white-space:pre }
		.shp0 { fill: #545454 } 
		.shp1 { fill: #4c9ce4 } 
	</style>
	<g id="Logo">
		<path id="name" fill-rule="evenodd" class="shp0" d="M124.29 0.81L124.29 62L113.5 62L113.5 36.41L83.91 36.41L83.91 62L73.01 62L73.01 0.81L83.91 0.81L83.91 26.51L113.5 26.51L113.5 0.81L124.29 0.81ZM166.35 0.81L189.38 62L178.36 62L172.13 45.87L149.55 45.87L143.43 62L132.75 62L155.78 0.81L166.35 0.81ZM160.78 13.16L153 36.08L168.57 36.08L160.78 13.16ZM217.86 0.81C234.62 0.81 243 6.82 243 18.83C243 27.51 238.47 33.37 229.43 36.41L244.78 62L232.43 62L218.41 38.19C217.3 38.27 215.71 38.3 213.63 38.3C212.59 38.3 210.96 38.23 208.73 38.08L208.73 62L197.83 62L197.83 0.81L217.86 0.81ZM208.73 28.18C210.59 28.4 212.37 28.51 214.07 28.51C219.71 28.51 224.09 27.92 227.2 26.73C230.39 25.47 231.98 22.91 231.98 19.06C231.98 15.72 230.61 13.49 227.87 12.38C225.2 11.2 221.49 10.6 216.74 10.6L208.73 10.6L208.73 28.18ZM265.36 0.81L265.36 62L254.46 62L254.46 0.81L265.36 0.81ZM326.55 3.7L328.33 4.37L324.66 12.94L322.99 12.38C320.02 11.27 317.54 10.6 315.53 10.38C313.53 10.08 311.42 9.93 309.19 9.93C304.89 9.93 301.11 10.9 297.84 12.83C294.66 14.68 292.21 17.24 290.5 20.5C288.8 23.77 287.94 27.36 287.94 31.29C287.94 37.82 289.95 43.09 293.95 47.09C298.03 51.02 303.63 52.99 310.75 52.99C314.38 52.99 318.8 52.02 323.99 50.1L325.55 49.43L329.11 58.22L327.55 58.88C323.99 60.29 320.76 61.33 317.87 62C314.98 62.67 311.97 63 308.86 63C302.33 63 296.62 61.59 291.73 58.77C286.91 55.96 283.2 52.14 280.6 47.31C278.08 42.49 276.82 37.19 276.82 31.41C276.82 25.47 278.15 20.17 280.82 15.5C283.49 10.75 287.28 7.04 292.17 4.37C297.14 1.63 302.89 0.26 309.41 0.26C315.35 0.26 321.06 1.41 326.55 3.7ZM367.71 0.81L390.74 62L379.72 62L373.49 45.87L350.91 45.87L344.79 62L334.11 62L357.14 0.81L367.71 0.81ZM362.15 13.16L354.36 36.08L369.93 36.08L362.15 13.16Z" />
		<path id="icon" fill-rule="evenodd" class="shp1" d="M31.82 -0.04C54.04 -0.08 60.78 0.2 61.73 1.21C62.62 2.15 63.03 10.2 63.23 31.08C63.46 55.34 63.27 59.93 62 61.38C60.65 62.92 57.66 63.08 31.75 63.04C7.57 63.01 2.76 62.76 1.5 61.5C0.24 60.24 -0.01 55.44 -0.07 31.57C-0.13 6.45 0.05 2.96 1.5 1.57C2.91 0.22 7.15 -0.01 31.82 -0.04ZM30 29.85C23.67 38.68 18.05 45.77 17.5 45.62C16.95 45.46 16.16 43.23 15.75 40.67C15.12 36.73 14.65 35.99 12.75 35.97C11.51 35.95 9.72 36.74 8.77 37.72C7.42 39.1 7.17 40.51 7.63 44C7.96 46.47 9.19 50.52 10.37 53C12.33 57.1 12.87 57.53 16.51 57.81L20.5 58.12C32.11 40.59 39.93 29.58 45.36 22.34C50.8 15.11 55.64 8.92 56.12 8.59C56.6 8.27 57 7.55 57 7C57 6.45 55.01 6 52.57 6C48.66 6 47.76 6.45 44.82 9.9C43 12.05 36.32 21.03 30 29.85Z" />
	</g>
</svg>