<svg xmlns="http://www.w3.org/2000/svg" viewBox="0 0 168 28"><path fill-rule="evenodd" d="M4 0h20c2.21 0 4 1.79 4 4v20c0 2.21-1.79 4-4 4H4c-2.21 0-4-1.79-4-4V4c0-2.21 1.79-4 4-4m-.49 21.66c.28.82.86 2.06 1.74 3.74H8.8c3.27-5.05 5.88-8.95 7.82-11.73 1.95-2.77 4.87-6.65 8.78-11.65-1.84-.09-3.07-.09-3.7 0-.63.1-1.34.66-2.14 1.7L7.16 20.8c-.39-.95-.64-1.77-.74-2.45q-.06-.42-.3-2.76c-.72-.12-1.39-.06-2.01.19-.63.25-1.13.69-1.51 1.31.32 2.23.62 3.76.91 4.57" style="fill:#4b9fe0"/><path fill-rule="evenodd" d="M36.6 27V1.8h3.46v11.23h14.4V1.8h3.49V27h-3.49V16.16h-14.4V27zm23.48 0L71.27 1.8h3.6L86.03 27h-3.74l-2.67-6.12H66.34L63.71 27zM72.96 5.51l-5.25 12.24h10.58zM88.13 27V1.8h9.86c3.19 0 5.66.74 7.4 2.21 1.74 1.48 2.61 3.57 2.61 6.29 0 2.04-.48 3.75-1.42 5.14-.95 1.4-2.31 2.4-4.09 3.03l5.87 8.53h-3.96l-5.01-7.92c-.57.05-1.04.07-1.4.07h-6.41V27zm9.86-10.98c2.16 0 3.82-.47 4.97-1.42s1.73-2.35 1.73-4.2c0-1.8-.58-3.16-1.73-4.08-1.15-.93-2.81-1.39-4.97-1.39h-6.41v11.09zM112.57 27V1.8h3.46V27zm13.29-1.46a12.6 12.6 0 0 1-4.71-4.66c-1.15-1.97-1.73-4.14-1.73-6.52 0-2.35.58-4.5 1.75-6.46a12.53 12.53 0 0 1 4.77-4.62c2.01-1.13 4.23-1.7 6.66-1.7 1.75 0 3.45.33 5.09.99s3.07 1.59 4.27 2.79l-2.06 2.49c-.96-1.01-2.07-1.8-3.34-2.36-1.28-.56-2.58-.85-3.93-.85-1.77 0-3.41.44-4.89 1.3a9.5 9.5 0 0 0-3.53 3.51c-.87 1.48-1.3 3.1-1.3 4.88 0 1.75.43 3.37 1.3 4.86a9.56 9.56 0 0 0 3.53 3.53c1.48.86 3.12 1.29 4.89 1.29 1.32 0 2.62-.27 3.89-.81s2.4-1.28 3.38-2.21l2.09 2.27a14.2 14.2 0 0 1-4.43 2.93c-1.68.71-3.38 1.06-5.11 1.06-2.4 0-4.59-.57-6.59-1.71M141.6 27l11.2-25.2h3.6L167.56 27h-3.75l-2.66-6.12h-13.29L145.24 27zm12.89-21.49-5.26 12.24h10.59z" style="fill:#555"/></svg>