<svg version="1.2" xmlns="http://www.w3.org/2000/svg" viewBox="0 0 175 66" width="175" height="66">
	<title>Unsung Ltd</title>
	<style>
		.s0 { fill: #100f0d } 
		.s1 { fill: none;stroke: #211d1d;stroke-miterlimit:10;stroke-width: .4 } 
		.s2 { fill: none;stroke: #211d1d;stroke-miterlimit:10;stroke-width: .9 } 
		.s3 { fill: #6acedb } 
		.s4 { fill: none;stroke: #6acedb;stroke-miterlimit:10;stroke-width: .8 } 
	</style>
	<g id="g8">
		<g id="g10">
			<path id="path12" class="s0" d="m16.8 37h0.8q1.5 0.3 4.5 0.4 1.7-0.3 2.3-0.3 3.6 0 3.6 0.8 0.4 0 0.6 2.3-0.8 1.7-1.9 1.7-0.6-0.5-2.8-0.8h-0.2q-0.6 0-1.5 0.8h-0.3q-0.8-0.5-1.3-0.5h-0.4q-1.6 0-2.9 0.3 0-0.2-0.5-0.5h-0.5l-0.4 0.2h-0.4q-0.7-0.5-1.1-0.5l-1.1 0.2q-0.2-0.2-0.4-0.2-0.8 0.4-0.8 0.5-1.2-0.5-2.3-0.5h-0.3v0.2l0.1 0.8h-0.1q-0.5-0.7-1.1-0.7l-0.2 0.1q-1.7-0.5-2.6-0.5-0.9 0-1.7 1.1-0.2 0-0.2-0.2 0.1-0.3 0.1-0.4-0.1-0.5-0.6-0.5-0.3 0-0.9 1h-0.2q-0.3 0-0.6-2.1 0-2.3 1.2-2.3 0.5 0 1.1-0.3 3.2 0.2 5.4 0.2h1.8q0.1 0 0.1-0.2 0.2 0.2 0.4 0.2 0.7 0 1.8 0.1 0.6 0 3.5-0.4z"/>
			<path id="path14" class="s1" d="m16.8 37h0.8q1.5 0.3 4.5 0.4 1.7-0.3 2.3-0.3 3.6 0 3.6 0.8 0.4 0 0.6 2.3-0.8 1.7-1.9 1.7-0.6-0.5-2.8-0.8h-0.2q-0.6 0-1.5 0.8h-0.3q-0.8-0.5-1.3-0.5h-0.4q-1.6 0-2.9 0.3 0-0.2-0.5-0.5h-0.5l-0.4 0.2h-0.4q-0.7-0.5-1.1-0.5l-1.1 0.2q-0.2-0.2-0.4-0.2-0.8 0.4-0.8 0.5-1.2-0.5-2.3-0.5h-0.3v0.2l0.1 0.8h-0.1q-0.5-0.7-1.1-0.7l-0.2 0.1q-1.7-0.5-2.6-0.5-0.9 0-1.7 1.1-0.2 0-0.2-0.2 0.1-0.3 0.1-0.4-0.1-0.5-0.6-0.5-0.3 0-0.9 1h-0.2q-0.3 0-0.6-2.1 0-2.3 1.2-2.3 0.5 0 1.1-0.3 3.2 0.2 5.4 0.2h1.8q0.1 0 0.1-0.2 0.2 0.2 0.4 0.2 0.7 0 1.8 0.1 0.6 0 3.5-0.4z"/>
			<path id="path16" class="s0" d="m19.1 0.2q0.9 0.3 1.7 0.3h0.4q1.1 0 3-0.1 0.4 0.3 2.8 0.4 1.9 1.7 1.9 2.5-0.1 0.2-0.6 0.7-1.4-0.6-1.7-0.6h-0.4q0 0.6-0.6 1.9l-0.3-0.1q0 0.1 0.1 0.1l-0.1 0.9q0 0.8 0.1 3-0.2 0.7-0.5 1l-0.7-0.1h-0.6v0.1q0 0.7 1.1 1.3 0.3 0.8 0.3 1.6h-0.7q-0.1 0-0.1-0.1-0.7 0-0.7 1.3 0.3 0 0.3 0.3 0.5-0.3 0.8-0.3l0.1 0.3v0.4q0 0.8-0.1 2 0.8 1.9 0.8 2.2v0.2q0 0.9-0.9 1.8-0.9 1.9-0.9 2.5 0.2 2.2 0.2 3 0 0.4-0.3 1.2 0.7 1.2 0.7 1.5v0.8q0 1.2-2.6 2.3-0.2 0.4-2.1 1 0 0.2-0.7 0.4-1.2-0.1-2-0.1l-0.8 0.1q-0.7-0.3-1.5-0.3-1.4 0.6-1.9 0.6h-0.9q-3-0.7-3-1.8-0.2-0.4-2.2-1.1-1-0.6-1-2.1-0.7-1.5-0.7-4.1 0.1-0.3 0.1-0.4 0-0.8-0.1-1.3l0.3-8.7q-0.2-0.6-0.2-2.6v-0.2q0-0.1-0.4-1.4 0.6-1.8 0.6-2.3-0.3-1-0.5-3.3-0.7-0.8-2-0.9l-0.7 0.1q-1.3-0.4-1.5-1.3 0-1.3 1.8-2.3l0.7 0.2h0.2q1.7 0 1.7-0.3 3.5 0.4 6.9 0.6v0.3l0.3-0.2q0.7 0.4 1.4 1.5v0.4q0 0.2-0.8 0.7-1-0.1-1.6-0.1-0.9 1-2.6 1.6l-0.1 0.7v0.1l0.1 0.9q-0.2 0.6-0.2 1l0.1 1q0 0.2-0.1 0.5 0.1 1.2 0.1 1.5 0 2-0.3 5.5 0.3 1 0.3 1.8-0.3 0.9-0.3 1.3l0.4 1.6-0.1 1.3q0.1 0.2 0.1 0.4h1l-0.1 0.3 0.3-0.2h0.1v0.5q-0.1 0.4-0.8 0.4h-0.5l-0.1 0.6q0 1.4 1.1 2.4 0.2 0 1.5 2.5 1.7 0.7 1.7 0.9 0.2-0.2 0.4-0.2 0.3 0 2.1 1.2h0.3q0.3-0.1 0.4-0.1v-0.9q-0.5 0-0.8-0.6v-0.2q0-0.5 1.7-0.9 0.1 0 0.9 0.8h0.2q0.6 0 1.1-0.8 1.7-1.1 1.7-3 0-0.9-0.1-2.8 0.4-1.5 0.4-2.1-0.2-1.1-0.4-1.1 0.3-1.2 0.3-2.5v-1.3q0-1.1-0.2-3 0.5-0.8 0.5-1.2-0.3-1.4-0.5-3.4 0.2-0.6 0.2-1.2 0-2.2-2.2-2.2-0.4 0-1.2-1.4-1.6 0-1.6-2 0.8-0.4 3.3-1.1zm6.1 24.9q0.4 0.1 0.5 0.7-0.1 0.7-0.4 0.7h-0.1q-0.5-0.1-0.5-0.8 0.3-0.6 0.5-0.6z"/>
			<path id="path18" class="s1" d="m19.1 0.2q0.9 0.3 1.7 0.3h0.4q1.1 0 3-0.1 0.4 0.3 2.8 0.4 1.9 1.7 1.9 2.5-0.1 0.2-0.6 0.7-1.4-0.6-1.7-0.6h-0.4q0 0.6-0.6 1.9l-0.3-0.1q0 0.1 0.1 0.1l-0.1 0.9q0 0.8 0.1 3-0.2 0.7-0.5 1l-0.7-0.1h-0.6v0.1q0 0.7 1.1 1.3 0.3 0.8 0.3 1.6h-0.7q-0.1 0-0.1-0.1-0.7 0-0.7 1.3 0.3 0 0.3 0.3 0.5-0.3 0.8-0.3l0.1 0.3v0.4q0 0.8-0.1 2 0.8 1.9 0.8 2.2v0.2q0 0.9-0.9 1.8-0.9 1.9-0.9 2.5 0.2 2.2 0.2 3 0 0.4-0.3 1.2 0.7 1.2 0.7 1.5v0.8q0 1.2-2.6 2.3-0.2 0.4-2.1 1 0 0.2-0.7 0.4-1.2-0.1-2-0.1l-0.8 0.1q-0.7-0.3-1.5-0.3-1.4 0.6-1.9 0.6h-0.9q-3-0.7-3-1.8-0.2-0.4-2.2-1.1-1-0.6-1-2.1-0.7-1.5-0.7-4.1 0.1-0.3 0.1-0.4 0-0.8-0.1-1.3l0.3-8.7q-0.2-0.6-0.2-2.6v-0.2q0-0.1-0.4-1.4 0.6-1.8 0.6-2.3-0.3-1-0.5-3.3-0.7-0.8-2-0.9l-0.7 0.1q-1.3-0.4-1.5-1.3 0-1.3 1.8-2.3l0.7 0.2h0.2q1.7 0 1.7-0.3 3.5 0.4 6.9 0.6v0.3l0.3-0.2q0.7 0.4 1.4 1.5v0.4q0 0.2-0.8 0.7-1-0.1-1.6-0.1-0.9 1-2.6 1.6l-0.1 0.7v0.1l0.1 0.9q-0.2 0.6-0.2 1l0.1 1q0 0.2-0.1 0.5 0.1 1.2 0.1 1.5 0 2-0.3 5.5 0.3 1 0.3 1.8-0.3 0.9-0.3 1.3l0.4 1.6-0.1 1.3q0.1 0.2 0.1 0.4h1l-0.1 0.3 0.3-0.2h0.1v0.5q-0.1 0.4-0.8 0.4h-0.5l-0.1 0.6q0 1.4 1.1 2.4 0.2 0 1.5 2.5 1.7 0.7 1.7 0.9 0.2-0.2 0.4-0.2 0.3 0 2.1 1.2h0.3q0.3-0.1 0.4-0.1v-0.9q-0.5 0-0.8-0.6v-0.2q0-0.5 1.7-0.9 0.1 0 0.9 0.8h0.2q0.6 0 1.1-0.8 1.7-1.1 1.7-3 0-0.9-0.1-2.8 0.4-1.5 0.4-2.1-0.2-1.1-0.4-1.1 0.3-1.2 0.3-2.5v-1.3q0-1.1-0.2-3 0.5-0.8 0.5-1.2-0.3-1.4-0.5-3.4 0.2-0.6 0.2-1.2 0-2.2-2.2-2.2-0.4 0-1.2-1.4-1.6 0-1.6-2 0.8-0.4 3.3-1.1zm6.1 24.9q0.4 0.1 0.5 0.7-0.1 0.7-0.4 0.7h-0.1q-0.5-0.1-0.5-0.8 0.3-0.6 0.5-0.6z"/>
			<path id="path20" class="s0" d="m64.4 13.6h0.2q0.4 0.1 0.4 0.8v0.3q0 0.2-0.7 0.7l-0.3-0.1q0.1-1.7 0.4-1.7zm-16.8-4.6q0.9 0.3 3 0.5 1.8 1.1 1.8 2.8 0.2 0 1.3 2.4 0.4 0.1 0.4 0.8 0 0.3-0.5 1.3 0.2 1.3 0.7 1.3v0.4q-0.7 1.5-0.7 3.7 0 1.8-0.2 4.4l0.3 0.2h0.4l-0.4 0.8q0.6 0 1 0.9 1.2-0.3 1.2 0.1 0 0.4 2.2 1.8 1 0.9 1 1v0.2q-1.1 1.5-3.2 1.5 0 0.2-0.2 0.2-0.8-0.2-1.3-0.2l-0.7 0.2q-0.9-0.8-1.4-0.8h-0.7q-0.1 0-0.9 0.9l-1.5-0.6-0.7 0.2q-1-0.5-1.6-0.5h-0.4q-0.2 0-0.2 0.2-0.4-0.3-0.7-0.3v-0.3q0-2.5 1.3-2.5 0.6-0.7 2-1.1 1.4-1.6 1.4-4.2 0-1.5 0.3-3.1 0-1.3-1.1-3.1 0.3-0.9 0.3-1.1-0.5-1.8-1-3-0.6 0-1.9-1-0.1 0-0.4-0.1-1.8 1.4-3 1.8-2.2 2-2.2 2.8 0 1.1-1.2 1.6l-0.3-0.1 0.2 0.2q-1 1.4-1 3v0.4l0.1 1h-0.1l0.4 1.2q0.2-0.2-1.1 0v-0.9q0-0.2 0.5-0.4 0.2 0 0.5 0.6v1q0.3 1 0.3 1.1-0.3 0.9-0.3 1.3 1.8 1.2 3.9 2.4l0.4 0.7q-0.4 2.2-1.6 2.2l-1-0.1q-1.2 0.6-1.6 0.6-1.6-0.6-2.1-0.6-2.5 0.3-3 0.6-2.7 0-3.4-1.5v-0.4q0-0.4 1.3-2.7 1.4 0.3 1.5 0.3 1.2-0.5 1.7-1.4v-1.1q0-0.2-0.1-0.2 0.4-1.8 0.4-2.5v-5q0-0.3-0.1-0.5 0.3-0.9 0.4-1.9l-0.3-1.3 0.4-1.7q-0.3-0.9-0.8-1.1h-0.2q-0.6 0-1.1 0.7-0.2 0.1-0.5 0.1-2.7-1.3-2.7-1.7v-0.5q0-1 2.9-1.1 1.1 0.1 1.4 0.2 0.1-0.2 0.3-0.2h0.2q2.8 0.5 2.8 1.8 0.5 1.7 1 1.7l1-0.4q0 0.1 0.1 0.1v-0.1q-0.1 0-0.1-0.2 0.2 0 1.8-1.7 2.9-1.7 3.1-1.7 1.1 0 2.3-0.3zm9.9 15.1q0.5 0.2 0.5 0.4-0.1 0.4-0.8 0.4-0.3 0-0.3-0.3v-0.1q0-0.2 0.6-0.4z"/>
			<path id="path22" class="s1" d="m64.4 13.6h0.2q0.4 0.1 0.4 0.8v0.3q0 0.2-0.7 0.7l-0.3-0.1q0.1-1.7 0.4-1.7zm-16.8-4.6q0.9 0.3 3 0.5 1.8 1.1 1.8 2.8 0.2 0 1.3 2.4 0.4 0.1 0.4 0.8 0 0.3-0.5 1.3 0.2 1.3 0.7 1.3v0.4q-0.7 1.5-0.7 3.7 0 1.8-0.2 4.4l0.3 0.2h0.4l-0.4 0.8q0.6 0 1 0.9 1.2-0.3 1.2 0.1 0 0.4 2.2 1.8 1 0.9 1 1v0.2q-1.1 1.5-3.2 1.5 0 0.2-0.2 0.2-0.8-0.2-1.3-0.2l-0.7 0.2q-0.9-0.8-1.4-0.8h-0.7q-0.1 0-0.9 0.9l-1.5-0.6-0.7 0.2q-1-0.5-1.6-0.5h-0.4q-0.2 0-0.2 0.2-0.4-0.3-0.7-0.3v-0.3q0-2.5 1.3-2.5 0.6-0.7 2-1.1 1.4-1.6 1.4-4.2 0-1.5 0.3-3.1 0-1.3-1.1-3.1 0.3-0.9 0.3-1.1-0.5-1.8-1-3-0.6 0-1.9-1-0.1 0-0.4-0.1-1.8 1.4-3 1.8-2.2 2-2.2 2.8 0 1.1-1.2 1.6l-0.3-0.1 0.2 0.2q-1 1.4-1 3v0.4l0.1 1h-0.1l0.4 1.2q0.2-0.2-1.1 0v-0.9q0-0.2 0.5-0.4 0.2 0 0.5 0.6v1q0.3 1 0.3 1.1-0.3 0.9-0.3 1.3 1.8 1.2 3.9 2.4l0.4 0.7q-0.4 2.2-1.6 2.2l-1-0.1q-1.2 0.6-1.6 0.6-1.6-0.6-2.1-0.6-2.5 0.3-3 0.6-2.7 0-3.4-1.5v-0.4q0-0.4 1.3-2.7 1.4 0.3 1.5 0.3 1.2-0.5 1.7-1.4v-1.1q0-0.2-0.1-0.2 0.4-1.8 0.4-2.5v-5q0-0.3-0.1-0.5 0.3-0.9 0.4-1.9l-0.3-1.3 0.4-1.7q-0.3-0.9-0.8-1.1h-0.2q-0.6 0-1.1 0.7-0.2 0.1-0.5 0.1-2.7-1.3-2.7-1.7v-0.5q0-1 2.9-1.1 1.1 0.1 1.4 0.2 0.1-0.2 0.3-0.2h0.2q2.8 0.5 2.8 1.8 0.5 1.7 1 1.7l1-0.4q0 0.1 0.1 0.1v-0.1q-0.1 0-0.1-0.2 0.2 0 1.8-1.7 2.9-1.7 3.1-1.7 1.1 0 2.3-0.3zm9.9 15.1q0.5 0.2 0.5 0.4-0.1 0.4-0.8 0.4-0.3 0-0.3-0.3v-0.1q0-0.2 0.6-0.4z"/>
			<path id="path24" class="s0" d="m70.2 9.3l1.2 0.2q1.8-0.2 1.9-0.2 3.7 0.7 5.4 2-0.2 0-0.2 0.2 0.2 0 0.2-0.2l0.7 0.2q0.2 0 1-1l0.8-0.2q1.1 0.1 1.1 1.2l-0.2 1.1q0.1 1.3 0.1 2.2l-0.3 1.1q0.2 1.4 0.2 2.3-0.7 0.5-2.3 0.5-0.5-1.7-1-2.4 0.2 0 0.2-0.2h-0.2q0 0.2-0.1 0.2-1.1-2.5-3.9-2.5v-0.1l0.5-0.8v-0.5h-0.3l-0.9 0.1q-0.9-0.5-1.1-0.5-2.5 1.2-2.7 1.2l-2.3-0.4q-1.4 0.8-1.4 3.9 0 1.1 2.3 1.9 0 0.1 0.4 0.3 0.8-0.2 1.3-0.2 0 0.2 0.4 0.5h0.7q0.7-0.6 0.7-0.6h0.5q0.6 1 3.1 1 0.3 0 1.1-0.1 1.1 0.7 1.4 1 1.7 0 2.3 1.1 2.5 1.8 2.5 4.8v0.6q0 0.3-0.7 2.3 0 1.1-2.4 2.2-0.6 0.7-1.9 0.7 0 0.3-3 0.9-0.2 0.6-0.7 0.9h-0.3q-0.8 0-2.3-0.9-0.6-0.3-1-0.3-0.3 0-1.1 0.6-0.8-0.5-2.6-0.7-0.1-0.5-1.1-0.5h-0.3q-1 1.3-1.1 1.3-2.1-0.3-2.1-1.1-0.3-1-0.3-1.3l0.4-1.5v-0.9q0-1.4-0.4-1.8l0.1-0.8v-1.8q0-1.1 1.2-1.1 1.5 0 3.3 5.1 3.6 2.4 4.9 2.4 0.4 0 0.7-0.1 0.8 0.1 1.2 0.1 1.5 0 3.5-1.1 1 0 1.8-1.4 0.9-0.3 0.9-1.2v-1.3q0-0.8-1-1.3h-0.7l-0.6 0.4-0.3-0.1v0.1q0.1 0 0.1 0.2h-0.2q-0.3 0-0.6-1.5h-0.6q-0.1 0-1.1 0.3h-0.2q-1.3-0.2-2.6-1.7h-0.3q-0.8 0.9-1.3 1-0.7 0-2.3-1.2-1.7 0-1.7-0.9-2.7-1.4-2.7-2.1 0-0.5-0.4-1.3 0.2 0 0.2-0.2-0.4 0-0.5-1 0-3.9 1.2-3.9 1-2 2.8-2 0.7-0.4 2.8-1 0-0.2 0.2-0.2zm7.9 7.9h0.4v0.2q0 0.3-0.2 0.3h-0.2q-0.3 0-0.3-0.3 0.1-0.2 0.3-0.2z"/>
			<path id="path26" class="s1" d="m70.2 9.3l1.2 0.2q1.8-0.2 1.9-0.2 3.7 0.7 5.4 2-0.2 0-0.2 0.2 0.2 0 0.2-0.2l0.7 0.2q0.2 0 1-1l0.8-0.2q1.1 0.1 1.1 1.2l-0.2 1.1q0.1 1.3 0.1 2.2l-0.3 1.1q0.2 1.4 0.2 2.3-0.7 0.5-2.3 0.5-0.5-1.7-1-2.4 0.2 0 0.2-0.2h-0.2q0 0.2-0.1 0.2-1.1-2.5-3.9-2.5v-0.1l0.5-0.8v-0.5h-0.3l-0.9 0.1q-0.9-0.5-1.1-0.5-2.5 1.2-2.7 1.2l-2.3-0.4q-1.4 0.8-1.4 3.9 0 1.1 2.3 1.9 0 0.1 0.4 0.3 0.8-0.2 1.3-0.2 0 0.2 0.4 0.5h0.7q0.7-0.6 0.7-0.6h0.5q0.6 1 3.1 1 0.3 0 1.1-0.1 1.1 0.7 1.4 1 1.7 0 2.3 1.1 2.5 1.8 2.5 4.8v0.6q0 0.3-0.7 2.3 0 1.1-2.4 2.2-0.6 0.7-1.9 0.7 0 0.3-3 0.9-0.2 0.6-0.7 0.9h-0.3q-0.8 0-2.3-0.9-0.6-0.3-1-0.3-0.3 0-1.1 0.6-0.8-0.5-2.6-0.7-0.1-0.5-1.1-0.5h-0.3q-1 1.3-1.1 1.3-2.1-0.3-2.1-1.1-0.3-1-0.3-1.3l0.4-1.5v-0.9q0-1.4-0.4-1.8l0.1-0.8v-1.8q0-1.1 1.2-1.1 1.5 0 3.3 5.1 3.6 2.4 4.9 2.4 0.4 0 0.7-0.1 0.8 0.1 1.2 0.1 1.5 0 3.5-1.1 1 0 1.8-1.4 0.9-0.3 0.9-1.2v-1.3q0-0.8-1-1.3h-0.7l-0.6 0.4-0.3-0.1v0.1q0.1 0 0.1 0.2h-0.2q-0.3 0-0.6-1.5h-0.6q-0.1 0-1.1 0.3h-0.2q-1.3-0.2-2.6-1.7h-0.3q-0.8 0.9-1.3 1-0.7 0-2.3-1.2-1.7 0-1.7-0.9-2.7-1.4-2.7-2.1 0-0.5-0.4-1.3 0.2 0 0.2-0.2-0.4 0-0.5-1 0-3.9 1.2-3.9 1-2 2.8-2 0.7-0.4 2.8-1 0-0.2 0.2-0.2zm7.9 7.9h0.4v0.2q0 0.3-0.2 0.3h-0.2q-0.3 0-0.3-0.3 0.1-0.2 0.3-0.2z"/>
			<path id="path28" class="s0" d="m105.2 9.1q3.9 0.3 3.9 2.1 0.4 1.2 0.4 1.7v0.3q0 0.1-0.4 1.4v1.6q0 0.5 0.4 1.6l-0.1 1.3 0.1 1q-0.1 1.1-0.1 1.2 0.1 1 0.1 1.6-0.4 1.2-0.4 4.4v2.2q0.2 0.7 1.3 0.7h0.8l1-0.1q1 0.8 1 1.1l0.3-0.1 0.7 0.9v0.7l-0.3-0.2 0.1 0.3v0.2q0 0.2-0.5 0.6-0.4 0-1.2-0.5l-0.7 0.5h-0.4q-0.8-0.8-1-0.8l-2 0.2q-1.8 0-4.1-1.8h-0.4q-0.9 0-2.1 1.5-1.1 0-1.9 0.4-0.2-0.1-0.5-0.1h-0.2l-0.5 0.4h-0.3l-0.6-0.4h-1.7q-3.1-0.4-3.1-0.9 0.1 0 0.1-0.1l-0.3 0.1q-2.2-2.8-2.2-3.5v-0.4q0-0.4 0.4-2.8-0.3-1-0.3-1.7v-9.7q0-1.6-3-1.9-0.7 0-1.5-1.3 0.6-1.3 1.4-1.3 2 0.2 3.4 0.2h2q1.5 1.4 1.5 4.2 0.2 0 0.2 0.1-0.5 1.3-0.6 3 0.3 1.3 0.3 1.4 0 0.4-0.3 4.5 0.2 1.3 0.2 1.6 0 0.1-0.2 0.6 0.8 5 2.4 5 0.6 0 1.6-0.2l0.8 0.2 1.2-0.6q0 0.2 0.1 0.2v-0.2q-0.1 0-0.1-0.2 2.2-1.8 3.2-4 1.9-1.9 1.9-3.3v-0.8l-0.2-0.9q0.6-1.9 0.6-2.5 0-0.2-0.2-1.4l0.5-2q-1.4-1-1.6-1.5-1.8 0.5-2.1 0.5-0.7 0-1.7-2.4 0-1.8 3.7-1.8 0.7 0 1.2-0.1z"/>
			<path id="path30" class="s1" d="m105.2 9.1q3.9 0.3 3.9 2.1 0.4 1.2 0.4 1.7v0.3q0 0.1-0.4 1.4v1.6q0 0.5 0.4 1.6l-0.1 1.3 0.1 1q-0.1 1.1-0.1 1.2 0.1 1 0.1 1.6-0.4 1.2-0.4 4.4v2.2q0.2 0.7 1.3 0.7h0.8l1-0.1q1 0.8 1 1.1l0.3-0.1 0.7 0.9v0.7l-0.3-0.2 0.1 0.3v0.2q0 0.2-0.5 0.6-0.4 0-1.2-0.5l-0.7 0.5h-0.4q-0.8-0.8-1-0.8l-2 0.2q-1.8 0-4.1-1.8h-0.4q-0.9 0-2.1 1.5-1.1 0-1.9 0.4-0.2-0.1-0.5-0.1h-0.2l-0.5 0.4h-0.3l-0.6-0.4h-1.7q-3.1-0.4-3.1-0.9 0.1 0 0.1-0.1l-0.3 0.1q-2.2-2.8-2.2-3.5v-0.4q0-0.4 0.4-2.8-0.3-1-0.3-1.7v-9.7q0-1.6-3-1.9-0.7 0-1.5-1.3 0.6-1.3 1.4-1.3 2 0.2 3.4 0.2h2q1.5 1.4 1.5 4.2 0.2 0 0.2 0.1-0.5 1.3-0.6 3 0.3 1.3 0.3 1.4 0 0.4-0.3 4.5 0.2 1.3 0.2 1.6 0 0.1-0.2 0.6 0.8 5 2.4 5 0.6 0 1.6-0.2l0.8 0.2 1.2-0.6q0 0.2 0.1 0.2v-0.2q-0.1 0-0.1-0.2 2.2-1.8 3.2-4 1.9-1.9 1.9-3.3v-0.8l-0.2-0.9q0.6-1.9 0.6-2.5 0-0.2-0.2-1.4l0.5-2q-1.4-1-1.6-1.5-1.8 0.5-2.1 0.5-0.7 0-1.7-2.4 0-1.8 3.7-1.8 0.7 0 1.2-0.1z"/>
			<path id="path32" class="s0" d="m150.3 13.6h0.2q0.4 0.1 0.4 0.8v0.3q0 0.2-0.7 0.7l-0.3-0.1q0.1-1.7 0.4-1.7zm-16.8-4.6q0.9 0.3 3 0.5 1.8 1.1 1.8 2.8 0.2 0 1.3 2.4 0.4 0.1 0.4 0.8 0 0.3-0.5 1.3 0.2 1.3 0.7 1.3v0.4q-0.7 1.5-0.7 3.7 0 1.8-0.2 4.4l0.3 0.2h0.4l-0.4 0.8q0.6 0 1 0.9 1.2-0.3 1.2 0.1 0 0.4 2.2 1.8 1 0.9 1 1v0.2q-1.1 1.5-3.2 1.5 0 0.2-0.2 0.2-0.8-0.2-1.3-0.2l-0.7 0.2q-0.9-0.8-1.4-0.8h-0.7q-0.1 0-0.9 0.9l-1.5-0.6-0.7 0.2q-1-0.5-1.6-0.5h-0.4q-0.2 0-0.2 0.2-0.4-0.3-0.7-0.3v-0.3q0-2.5 1.3-2.5 0.6-0.7 2-1.1 1.4-1.6 1.4-4.2 0-1.5 0.3-3.1 0-1.3-1.1-3.1 0.3-0.9 0.3-1.1-0.5-1.8-1-3-0.6 0-1.9-1-0.1 0-0.4-0.1-1.8 1.4-3 1.8-2.2 2-2.2 2.8 0 1.1-1.2 1.6l-0.3-0.1 0.2 0.2q-1 1.4-1 3v0.4l0.1 1h-0.1l0.4 1.2q0.2-0.2-1.1 0v-0.9q0-0.2 0.5-0.4 0.2 0 0.5 0.6v1q0.3 1 0.3 1.1-0.3 0.9-0.3 1.3 1.8 1.2 3.9 2.4l0.5 0.7q-0.5 2.2-1.7 2.2l-1-0.1q-1.2 0.6-1.6 0.6-1.6-0.6-2.1-0.6-2.5 0.3-3 0.6-2.7 0-3.4-1.5v-0.4q0-0.4 1.3-2.7 1.4 0.3 1.5 0.3 1.2-0.5 1.7-1.4v-1.1q0-0.2-0.1-0.2 0.4-1.8 0.4-2.5v-5q0-0.3-0.1-0.5 0.3-0.9 0.4-1.9l-0.3-1.3 0.4-1.7q-0.3-0.9-0.8-1.1h-0.2q-0.6 0-1.1 0.7-0.2 0.1-0.5 0.1-2.7-1.3-2.7-1.7v-0.5q0-1 2.9-1.1 1.1 0.1 1.4 0.2 0.1-0.2 0.3-0.2h0.2q2.8 0.5 2.8 1.8 0.5 1.7 1 1.7l1-0.4q0 0.1 0.1 0.1v-0.1q-0.1 0-0.1-0.2 0.2 0 1.8-1.7 2.9-1.7 3.1-1.7 1.1 0 2.3-0.3zm9.9 15.1q0.5 0.2 0.5 0.4-0.1 0.4-0.8 0.4-0.3 0-0.3-0.3v-0.1q0-0.2 0.6-0.4z"/>
			<path id="path34" class="s1" d="m150.3 13.6h0.2q0.4 0.1 0.4 0.8v0.3q0 0.2-0.7 0.7l-0.3-0.1q0.1-1.7 0.4-1.7zm-16.8-4.6q0.9 0.3 3 0.5 1.8 1.1 1.8 2.8 0.2 0 1.3 2.4 0.4 0.1 0.4 0.8 0 0.3-0.5 1.3 0.2 1.3 0.7 1.3v0.4q-0.7 1.5-0.7 3.7 0 1.8-0.2 4.4l0.3 0.2h0.4l-0.4 0.8q0.6 0 1 0.9 1.2-0.3 1.2 0.1 0 0.4 2.2 1.8 1 0.9 1 1v0.2q-1.1 1.5-3.2 1.5 0 0.2-0.2 0.2-0.8-0.2-1.3-0.2l-0.7 0.2q-0.9-0.8-1.4-0.8h-0.7q-0.1 0-0.9 0.9l-1.5-0.6-0.7 0.2q-1-0.5-1.6-0.5h-0.4q-0.2 0-0.2 0.2-0.4-0.3-0.7-0.3v-0.3q0-2.5 1.3-2.5 0.6-0.7 2-1.1 1.4-1.6 1.4-4.2 0-1.5 0.3-3.1 0-1.3-1.1-3.1 0.3-0.9 0.3-1.1-0.5-1.8-1-3-0.6 0-1.9-1-0.1 0-0.4-0.1-1.8 1.4-3 1.8-2.2 2-2.2 2.8 0 1.1-1.2 1.6l-0.3-0.1 0.2 0.2q-1 1.4-1 3v0.4l0.1 1h-0.1l0.4 1.2q0.2-0.2-1.1 0v-0.9q0-0.2 0.5-0.4 0.2 0 0.5 0.6v1q0.3 1 0.3 1.1-0.3 0.9-0.3 1.3 1.8 1.2 3.9 2.4l0.5 0.7q-0.5 2.2-1.7 2.2l-1-0.1q-1.2 0.6-1.6 0.6-1.6-0.6-2.1-0.6-2.5 0.3-3 0.6-2.7 0-3.4-1.5v-0.4q0-0.4 1.3-2.7 1.4 0.3 1.5 0.3 1.2-0.5 1.7-1.4v-1.1q0-0.2-0.1-0.2 0.4-1.8 0.4-2.5v-5q0-0.3-0.1-0.5 0.3-0.9 0.4-1.9l-0.3-1.3 0.4-1.7q-0.3-0.9-0.8-1.1h-0.2q-0.6 0-1.1 0.7-0.2 0.1-0.5 0.1-2.7-1.3-2.7-1.7v-0.5q0-1 2.9-1.1 1.1 0.1 1.4 0.2 0.1-0.2 0.3-0.2h0.2q2.8 0.5 2.8 1.8 0.5 1.7 1 1.7l1-0.4q0 0.1 0.1 0.1v-0.1q-0.1 0-0.1-0.2 0.2 0 1.8-1.7 2.9-1.7 3.1-1.7 1.1 0 2.3-0.3zm9.9 15.1q0.5 0.2 0.5 0.4-0.1 0.4-0.8 0.4-0.3 0-0.3-0.3v-0.1q0-0.2 0.6-0.4z"/>
			<path id="path36" class="s0" d="m159.1 9q1.4 0 5.1 1.3v0.1q-0.1 0-0.1 0.1 0.1 0 0.1-0.1l1 0.1h0.1q3.3-1.4 3.9-1.4h1.7q1.3 0 2.5 2.3 0.3 1.8 0.3 2.4-1.7 0.1-1.7 1.1h-0.6l-1.4-1.3q-0.8-0.6-0.8-0.8-1.3 0.4-1.3 2.5 0 0.7-0.2 1.9l0.2 0.7q-0.5 4.4-1.6 4.4 0 0.2-2.2 0.8-1.8 2-2.2 2-0.2 0-1.2-0.2l-1.9 0.2q-1.9-1.1-2.5-1.1-1.6-0.9-1.9-0.9-0.7 0.5-1 0.5 0-0.2-0.1-0.2v0.2q0.1 0 0.1 0.1-0.6 0-1.8 1.6v0.3q0 1 1 2.2-0.2 0-0.2 0.2 0.3 0 0.9 0.8 0.1 0.1 1.7 0.3l3.4-1.4 3.7 0.3q0.5-0.3 1.1-0.3 5.7 1.2 5.7 2 1.5 0.5 2.4 1.9l-0.2 0.3h0.2q0-0.1 0.1-0.1 0.9 0.7 0.9 4 0 0.9-0.6 0.9l0.1 0.3q-0.5 1.6-1.5 2.3-0.5 0-2.4 1.1-1.6 0-2 1-0.3 0.2-0.4 0.2-0.8-0.5-1.2-0.5 0 0.3-3.9 0.5v0.1q-5.3-0.2-5.3-0.6l-0.3 0.2q-0.3-0.4-3.8-0.7-0.7-0.7-1.6-2-1.1-0.8-1.1-1.7 0.2 0 0.2-0.2-0.5 0-0.5-1.4v-0.5q0-1.4 1.3-3.6 0.6-0.7 0.6-1.3-1.4-1.6-1.4-3.1 0.3-3.7 1.2-3.8l2.2-2.4v-0.3q0-0.7-0.7-2.1 0-2.2 1.4-5.4 0-0.4 1.1-1.4 0-0.8 2.1-1.3 0-0.7 2.7-0.8 0-0.1 0.6-0.3zm2 21.9q-1.2-0.1-1.9-0.1v0.1q-0.9-0.4-1.5-0.4h-0.2q-0.4 0-0.8 0.3l-2.3-0.2q-0.9 0-1.8 1.5-0.7 1.3-1.7 2.5v0.3q0 0.1 0.1 0.9-0.1 0-0.1 0.1 1.8 2.1 3.5 2.1 0 0.6 2.7 1.3v0.1q0.1 0 0.1-0.1 0.6 0.3 1.2 0.3 7.5-0.6 7.5-1.2 3.4-1 3.4-1.8 0-0.6 1.1-1.8 0.3-0.5 0.3-0.7 0-0.7-2.3-1-1.5-2.2-3.9-2.2-1.2-0.5-1.6-0.5h-0.4q-0.4 0-1.4 0.5zm-6.8-14.5v1.2q0 2 3.1 4.1 1.5 0.4 2.8 0.4 2.3-0.3 2.6-0.5 0-0.2 1.8-1.9l0.2-0.9v-2.9q0-0.7-1.2-1.8 0-1.9-1.5-1.9-0.9-0.4-1.4-1h-0.5q-1.9 0.3-2.8 1.2-1.6 0.8-2.3 2.5l-0.7 0.9q-0.1 0.2-0.1 0.6z"/>
			<path id="path38" class="s1" d="m159.1 9q1.4 0 5.1 1.3v0.1q-0.1 0-0.1 0.1 0.1 0 0.1-0.1l1 0.1h0.1q3.3-1.4 3.9-1.4h1.7q1.3 0 2.5 2.3 0.3 1.8 0.3 2.4-1.7 0.1-1.7 1.1h-0.6l-1.4-1.3q-0.8-0.6-0.8-0.8-1.3 0.4-1.3 2.5 0 0.7-0.2 1.9l0.2 0.7q-0.5 4.4-1.6 4.4 0 0.2-2.2 0.8-1.8 2-2.2 2-0.2 0-1.2-0.2l-1.9 0.2q-1.9-1.1-2.5-1.1-1.6-0.9-1.9-0.9-0.7 0.5-1 0.5 0-0.2-0.1-0.2v0.2q0.1 0 0.1 0.1-0.6 0-1.8 1.6v0.3q0 1 1 2.2-0.2 0-0.2 0.2 0.3 0 0.9 0.8 0.1 0.1 1.7 0.3l3.4-1.4 3.7 0.3q0.5-0.3 1.1-0.3 5.7 1.2 5.7 2 1.5 0.5 2.4 1.9l-0.2 0.3h0.2q0-0.1 0.1-0.1 0.9 0.7 0.9 4 0 0.9-0.6 0.9l0.1 0.3q-0.5 1.6-1.5 2.3-0.5 0-2.4 1.1-1.6 0-2 1-0.3 0.2-0.4 0.2-0.8-0.5-1.2-0.5 0 0.3-3.9 0.5v0.1q-5.3-0.2-5.3-0.6l-0.3 0.2q-0.3-0.4-3.8-0.7-0.7-0.7-1.6-2-1.1-0.8-1.1-1.7 0.2 0 0.2-0.2-0.5 0-0.5-1.4v-0.5q0-1.4 1.3-3.6 0.6-0.7 0.6-1.3-1.4-1.6-1.4-3.1 0.3-3.7 1.2-3.8l2.2-2.4v-0.3q0-0.7-0.7-2.1 0-2.2 1.4-5.4 0-0.4 1.1-1.4 0-0.8 2.1-1.3 0-0.7 2.7-0.8 0-0.1 0.6-0.3zm2 21.9q-1.2-0.1-1.9-0.1v0.1q-0.9-0.4-1.5-0.4h-0.2q-0.4 0-0.8 0.3l-2.3-0.2q-0.9 0-1.8 1.5-0.7 1.3-1.7 2.5v0.3q0 0.1 0.1 0.9-0.1 0-0.1 0.1 1.8 2.1 3.5 2.1 0 0.6 2.7 1.3v0.1q0.1 0 0.1-0.1 0.6 0.3 1.2 0.3 7.5-0.6 7.5-1.2 3.4-1 3.4-1.8 0-0.6 1.1-1.8 0.3-0.5 0.3-0.7 0-0.7-2.3-1-1.5-2.2-3.9-2.2-1.2-0.5-1.6-0.5h-0.4q-0.4 0-1.4 0.5zm-6.8-14.5v1.2q0 2 3.1 4.1 1.5 0.4 2.8 0.4 2.3-0.3 2.6-0.5 0-0.2 1.8-1.9l0.2-0.9v-2.9q0-0.7-1.2-1.8 0-1.9-1.5-1.9-0.9-0.4-1.4-1h-0.5q-1.9 0.3-2.8 1.2-1.6 0.8-2.3 2.5l-0.7 0.9q-0.1 0.2-0.1 0.6z"/>
			<path id="path40" class="s0" d="m132.4 47.5h0.2 0.3q0.3 0 0.8 0 0.3 0.1 0.8 0.1h0.8q0.2 0 0.7-0.1 1.2 0.4 1.4 0.9v0.1q-0.1 0.3-0.4 0.3h-0.2q-0.1 0-0.2-0.1l-1 0.3q-0.1 0-0.6-0.2-1.6 0-1.5 0.4 0 0.3-0.2 1.3 0.2 0.5 0.2 1.2 0 0-0.2 0.8 0 0.2 0.2 0.7-0.1 1.8-0.1 3-0.1 0.5-0.1 0.6 0 0.3 0.2 1.6l-0.1 0.8 0.1 1.1-0.1 0.4q0.1 0 0.3 0.9 0.2 0.4 1 0.4h0.4v0.1q0.5-0.2 0.6-0.3 0 0.1 0.1 0.1 0-0.4 1-0.8 0.4 0 0.4 0.2 0.1 0 0.1-0.1 0.4 0.3 0.7 0.3h0.3q1.1-0.3 1.1-1.1 0.1-1.1 0.1-1.2 0-0.1 0-0.2 0-0.1 0-0.2l-0.2-0.7 0.4-1.1-0.1-0.7q0-0.3 0.4-0.6 0.4 0 0.7 0.7l-0.1 0.3v0.1q0.3 0.9 0.6 2.4l-0.2 1.3q0.2 0.4 0.2 1.2v0.4q0 0.3 0 0.4 0 0.5-1.3 0.5l-0.2 0.3q-1.1-0.1-1.8-0.4-0.2 0-1 0.3h-0.1v-0.2l-0.1 0.1q-0.2-0.1-0.3-0.1-0.8 0.2-1.3 0.3-0.5-0.2-1-0.3l-0.6 0.2q-0.3-0.1-0.7-0.4h-0.2q-1.2 0.3-2.3 0.3h-1.4q-0.2 0-0.6 0.1-0.2 0-0.3-0.6 0.2-1.2 0.9-1.2l0.6 0.5q0.3-0.4 1.5-0.5 0.4 0.2 0.6 0.2 0.4 0 0.4-1.1-0.2-0.7-0.2-1.2l0.2-0.5v-0.9q0-0.7 0-1.1 0-0.2-0.2-2.7 0.2-1.2 0.2-1.5v-0.4q0-0.3-0.1-0.6 0.1-0.6 0.1-0.9 0-0.1-0.3-0.8 0.1-0.3 0.1-0.3-0.3-0.8-1-0.8h-0.3q-0.1 0-0.5 0.5h-0.1q-0.3 0-0.3-0.2l-0.8 0.1h-0.4q-0.3-0.2-0.3-0.4 0-0.5 0.2-0.5l-0.1-0.1q0.3-0.7 0.7-0.7 0.2 0 0.6 0.1 1.3-0.1 2.1-0.1 0.2 0.1 0.2 0.2z"/>
			<path id="path42" class="s2" d="m132.4 47.5h0.2 0.3q0.3 0 0.8 0 0.3 0.1 0.8 0.1h0.8q0.2 0 0.7-0.1 1.2 0.4 1.4 0.9v0.1q-0.1 0.3-0.4 0.3h-0.2q-0.1 0-0.2-0.1l-1 0.3q-0.1 0-0.6-0.2-1.6 0-1.5 0.4 0 0.3-0.2 1.3 0.2 0.5 0.2 1.2 0 0-0.2 0.8 0 0.2 0.2 0.7-0.1 1.8-0.1 3-0.1 0.5-0.1 0.6 0 0.3 0.2 1.6l-0.1 0.8 0.1 1.1-0.1 0.4q0.1 0 0.3 0.9 0.2 0.4 1 0.4h0.4v0.1q0.5-0.2 0.6-0.3 0 0.1 0.1 0.1 0-0.4 1-0.8 0.4 0 0.4 0.2 0.1 0 0.1-0.1 0.4 0.3 0.7 0.3h0.3q1.1-0.3 1.1-1.1 0.1-1.1 0.1-1.2 0-0.1 0-0.2 0-0.1 0-0.2l-0.2-0.7 0.4-1.1-0.1-0.7q0-0.3 0.4-0.6 0.4 0 0.7 0.7l-0.1 0.3v0.1q0.3 0.9 0.6 2.4l-0.2 1.3q0.2 0.4 0.2 1.2v0.4q0 0.3 0 0.4 0 0.5-1.3 0.5l-0.2 0.3q-1.1-0.1-1.8-0.4-0.2 0-1 0.3h-0.1v-0.2l-0.1 0.1q-0.2-0.1-0.3-0.1-0.8 0.2-1.3 0.3-0.5-0.2-1-0.3l-0.6 0.2q-0.3-0.1-0.7-0.4h-0.2q-1.2 0.3-2.3 0.3h-1.4q-0.2 0-0.6 0.1-0.2 0-0.3-0.6 0.2-1.2 0.9-1.2l0.6 0.5q0.3-0.4 1.5-0.5 0.4 0.2 0.6 0.2 0.4 0 0.4-1.1-0.2-0.7-0.2-1.2l0.2-0.5v-0.9q0-0.7 0-1.1 0-0.2-0.2-2.7 0.2-1.2 0.2-1.5v-0.4q0-0.3-0.1-0.6 0.1-0.6 0.1-0.9 0-0.1-0.3-0.8 0.1-0.3 0.1-0.3-0.3-0.8-1-0.8h-0.3q-0.1 0-0.5 0.5h-0.1q-0.3 0-0.3-0.2l-0.8 0.1h-0.4q-0.3-0.2-0.3-0.4 0-0.5 0.2-0.5l-0.1-0.1q0.3-0.7 0.7-0.7 0.2 0 0.6 0.1 1.3-0.1 2.1-0.1 0.2 0.1 0.2 0.2z"/>
			<path id="path44" class="s0" d="m147.5 47.4q0.3 0 0.6 1.1 0.1 1.9 0.1 2.2v0.2q0 0.1 0 0.2v0.1q0 0.6 0.8 0.6 0 0 0.4 0.1 1.8-0.1 2.2-0.1 1.6 0.1 1.6 0.6v0.4q0 0.4-0.8 0.9-0.4-0.1-0.4-0.3h-0.2q0 0.2-0.5 0.4l-0.4-0.2q-1.2 0.4-2.3 0.7 0 0.1-0.1 0.1 0.1 0.7 0.1 1 0 0.5-0.3 2.4 0.1 0.5 0.2 0.5l-0.1 0.7v0.2l0.1 0.4q-0.1 0.1-0.1 0.3v0.1q0 0.3 0.7 0.8 0 0.5 0.6 0.5 0.5 0 1.4-0.9 0.3-0.8 0.5-1.6 0.5-0.6 1.2-0.6 0.9 0 0.9 1.1v0.1q-0.3 1.3-0.6 1.9l-1 1.3q-0.9 0.7-1.6 0.7l-0.5-0.1q-0.3 0.2-0.5 0.2h-0.2l-0.7-0.2h-0.3v-0.1l-0.1 0.1q-0.3-0.6-1.1-1.4-0.6-1.2-0.6-2.4-0.1 0-0.2-2.9 0.2-0.5 0.2-0.6-0.1-2.1-0.4-2.1-0.5-0.3-0.8-0.3h-0.6q-1.7 0.4-1.9 0.4-0.5 0-0.5-1.4 0.3-0.7 0.6-0.7l0.8 0.1 0.8-0.1 0.4 0.1q1.4-0.4 1.7-1 0-0.3-0.1-1 0.1-1.1 0.1-2v-0.2q0-0.3 0.9-0.3z"/>
			<path id="path46" class="s2" d="m147.5 47.4q0.3 0 0.6 1.1 0.1 1.9 0.1 2.2v0.2q0 0.1 0 0.2v0.1q0 0.6 0.8 0.6 0 0 0.4 0.1 1.8-0.1 2.2-0.1 1.6 0.1 1.6 0.6v0.4q0 0.4-0.8 0.9-0.4-0.1-0.4-0.3h-0.2q0 0.2-0.5 0.4l-0.4-0.2q-1.2 0.4-2.3 0.7 0 0.1-0.1 0.1 0.1 0.7 0.1 1 0 0.5-0.3 2.4 0.1 0.5 0.2 0.5l-0.1 0.7v0.2l0.1 0.4q-0.1 0.1-0.1 0.3v0.1q0 0.3 0.7 0.8 0 0.5 0.6 0.5 0.5 0 1.4-0.9 0.3-0.8 0.5-1.6 0.5-0.6 1.2-0.6 0.9 0 0.9 1.1v0.1q-0.3 1.3-0.6 1.9l-1 1.3q-0.9 0.7-1.6 0.7l-0.5-0.1q-0.3 0.2-0.5 0.2h-0.2l-0.7-0.2h-0.3v-0.1l-0.1 0.1q-0.3-0.6-1.1-1.4-0.6-1.2-0.6-2.4-0.1 0-0.2-2.9 0.2-0.5 0.2-0.6-0.1-2.1-0.4-2.1-0.5-0.3-0.8-0.3h-0.6q-1.7 0.4-1.9 0.4-0.5 0-0.5-1.4 0.3-0.7 0.6-0.7l0.8 0.1 0.8-0.1 0.4 0.1q1.4-0.4 1.7-1 0-0.3-0.1-1 0.1-1.1 0.1-2v-0.2q0-0.3 0.9-0.3z"/>
			<path id="path48" class="s0" d="m160.8 47.7q3.3 0.2 3.3 0.5l0.5 0.6v0.5q0 0.3-0.2 1 0 0.1 0.1 0.8-0.1 0.6-0.1 0.8 0.2 0.6 0.2 0.8 0 1-0.2 2.4 0.1 0.4 0.1 0.7 0 0.1-0.1 0.4v0.4q0 1.7 0 2.6 0 0.5 0.1 0.8-0.1 0.9-0.1 1.3 0 0.4 1.3 0.4 0.4 0 1.2 0.9v0.1q-0.3 0.5-0.6 0.6l-0.5-0.2h-0.1q-0.2 0-0.7 0.3-0.1 0-0.6-0.2-0.5 0.3-0.7 0.3-0.6-0.2-0.6-0.6l0.1-0.2q-0.4-0.5-0.7-0.5-0.9 0.6-1.1 0.9-1.5-0.2-1.6-0.2l-0.4 0.4h-0.4q-1.7-0.2-1.7-0.6-1.4-1-1.4-2 0-0.1-0.5-2.3 0.1-3.3 0.5-3.3 0 0.1 0.1 0.1l-0.1-0.2q0.3-1.4 1.2-2 0.8-0.8 1.7-0.8l1.6-0.4q0.5 0.1 2.3 1 0.3 0 0.4-0.8 0.1 0 0.1-0.5 0-0.2-0.1-1 0.2-0.5 0.2-0.7 0-0.9-2-0.9-0.3 0.2-0.4 0.2-1.1-0.2-1.1-0.9 0-0.3 1-0.5zm-0.9 5.7h-0.2q-0.6 0-1.3 0.6-0.4 0.5-0.7 1.1-0.7 0-0.8 2.5l-0.1 0.9q0.2 0.5 0.6 2 0.3 0.1 1.1 0.9 0.5 0.4 0.7 0.4 0.5-0.2 1.9-0.3 0-0.2 1-0.6 0.9-2.3 0.9-3.7 0-0.3-0.5-1.9-0.2-1.3-0.8-1.3-0.3 0-0.9-0.8l-0.4-0.1h-0.2q-0.3 0.1-0.3 0.3z"/>
			<path id="path50" class="s2" d="m160.8 47.7q3.3 0.2 3.3 0.5l0.5 0.6v0.5q0 0.3-0.2 1 0 0.1 0.1 0.8-0.1 0.6-0.1 0.8 0.2 0.6 0.2 0.8 0 1-0.2 2.4 0.1 0.4 0.1 0.7 0 0.1-0.1 0.4v0.4q0 1.7 0 2.6 0 0.5 0.1 0.8-0.1 0.9-0.1 1.3 0 0.4 1.3 0.4 0.4 0 1.2 0.9v0.1q-0.3 0.5-0.6 0.6l-0.5-0.2h-0.1q-0.2 0-0.7 0.3-0.1 0-0.6-0.2-0.5 0.3-0.7 0.3-0.6-0.2-0.6-0.6l0.1-0.2q-0.4-0.5-0.7-0.5-0.9 0.6-1.1 0.9-1.5-0.2-1.6-0.2l-0.4 0.4h-0.4q-1.7-0.2-1.7-0.6-1.4-1-1.4-2 0-0.1-0.5-2.3 0.1-3.3 0.5-3.3 0 0.1 0.1 0.1l-0.1-0.2q0.3-1.4 1.2-2 0.8-0.8 1.7-0.8l1.6-0.4q0.5 0.1 2.3 1 0.3 0 0.4-0.8 0.1 0 0.1-0.5 0-0.2-0.1-1 0.2-0.5 0.2-0.7 0-0.9-2-0.9-0.3 0.2-0.4 0.2-1.1-0.2-1.1-0.9 0-0.3 1-0.5zm-0.9 5.7h-0.2q-0.6 0-1.3 0.6-0.4 0.5-0.7 1.1-0.7 0-0.8 2.5l-0.1 0.9q0.2 0.5 0.6 2 0.3 0.1 1.1 0.9 0.5 0.4 0.7 0.4 0.5-0.2 1.9-0.3 0-0.2 1-0.6 0.9-2.3 0.9-3.7 0-0.3-0.5-1.9-0.2-1.3-0.8-1.3-0.3 0-0.9-0.8l-0.4-0.1h-0.2q-0.3 0.1-0.3 0.3z"/>
			<path id="path52" class="s0" d="m170 59.1h0.3q0.6 0 1.5 0.7 0.4 0.7 0.4 0.9 0 0.1 0.1 0.6-0.4 1.2-0.7 1.2-0.2 0-0.9 0.7h-0.2q-0.9-0.1-1.8-1 0-0.2-0.3-0.9 0-0.3-0.1-0.9 0-0.6 1.3-1.2 0.3-0.1 0.4-0.1z"/>
			<path id="path54" class="s2" d="m170 59.1h0.3q0.6 0 1.5 0.7 0.4 0.7 0.4 0.9 0 0.1 0.1 0.6-0.4 1.2-0.7 1.2-0.2 0-0.9 0.7h-0.2q-0.9-0.1-1.8-1 0-0.2-0.3-0.9 0-0.3-0.1-0.9 0-0.6 1.3-1.2 0.3-0.1 0.4-0.1z"/>
			<path id="path56" class="s3" d="m4.6 51.6h0.1q0.2 0.3 0.3 0.4-0.1 0-0.1 0.1h0.1q0-0.1 0-0.1l0.3 0.5q0.1 0.2 0.2 0.6-0.1 0-0.1 0.1 0.2 0.1 0.6 1.5 0.1 0 0.1 0.9 0.4 0.5 0.4 1.5 0.5 0.7 0.5 1.1v0.1l-0.1 0.1q0.2 0 0.4 1.5 0.1 0.1 0.4 1.1 0.2 0.2 0.7 0.1 0.1 0 0.1 0 0.7 0.1 0.7 0.7-0.3 0.6-1.1 0.6-0.2-0.1-0.3-0.1-1.2 0-1.8 0-0.2 0-0.2-0.1 0 0 0 0h-0.1q-0.2-0.2-0.2-0.4v-0.3q0-0.3 0.4-0.3l0.5-0.1q0.2 0 0.1-0.6v-0.4q-0.1-0.8-1.1-0.7 0-0.1 0-0.1l-0.6 0.1q-0.7-0.1-1.5-0.1-0.4 0.5-0.4 1.2v0.2q-0.3 0.5 0.7 0.8h0.1q0.3 0 0.4 0.6 0 0.2-0.6 0.3h-0.2q-0.1 0-0.6 0.1-0.2-0.1-0.3-0.1h-0.2q-0.6 0-1.4 0.1-0.1-0.2-0.4-0.8 0-0.5 1.3-0.5 0.3-0.3 0.4-0.9 0.1 0 0.1-0.3v-0.2q0.2-0.5 0.2-0.5 0.1-0.5 0.1-0.6 0.4-1.4 0.5-2 0.4-1.5 0.4-2.2 0.1 0 0.2-0.4 0 0-0.1-0.3 0.4-0.7 0.4-1.3 0.1 0 0.1-0.3v-0.4q0.2-0.1 0.6-0.2zm-1.1 6.3q0.1 0.6 0.9 0.6 0.1 0.1 0.4 0.1 0.9-0.1 1-0.2l0.1-0.3v-0.1q-0.2-0.4-0.3-1.5-0.1 0-0.3-1.1-0.3-0.4-0.4-1.2-0.1 0-0.2-0.1-0.3 0-0.6 1.3-0.1 1.3-0.3 1.6 0 0.5-0.3 0.9z"/>
			<path id="path58" class="s4" d="m4.6 51.6h0.1q0.2 0.3 0.3 0.4-0.1 0-0.1 0.1h0.1q0-0.1 0-0.1l0.3 0.5q0.1 0.2 0.2 0.6-0.1 0-0.1 0.1 0.2 0.1 0.6 1.5 0.1 0 0.1 0.9 0.4 0.5 0.4 1.5 0.5 0.7 0.5 1.1v0.1l-0.1 0.1q0.2 0 0.4 1.5 0.1 0.1 0.4 1.1 0.2 0.2 0.7 0.1 0.1 0 0.1 0 0.7 0.1 0.7 0.7-0.3 0.6-1.1 0.6-0.2-0.1-0.3-0.1-1.2 0-1.8 0-0.2 0-0.2-0.1 0 0 0 0h-0.1q-0.2-0.2-0.2-0.4v-0.3q0-0.3 0.4-0.3l0.5-0.1q0.2 0 0.1-0.6v-0.4q-0.1-0.8-1.1-0.7 0-0.1 0-0.1l-0.6 0.1q-0.7-0.1-1.5-0.1-0.4 0.5-0.4 1.2v0.2q-0.3 0.5 0.7 0.8h0.1q0.3 0 0.4 0.6 0 0.2-0.6 0.3h-0.2q-0.1 0-0.6 0.1-0.2-0.1-0.3-0.1h-0.2q-0.6 0-1.4 0.1-0.1-0.2-0.4-0.8 0-0.5 1.3-0.5 0.3-0.3 0.4-0.9 0.1 0 0.1-0.3v-0.2q0.2-0.5 0.2-0.5 0.1-0.5 0.1-0.6 0.4-1.4 0.5-2 0.4-1.5 0.4-2.2 0.1 0 0.2-0.4 0 0-0.1-0.3 0.4-0.7 0.4-1.3 0.1 0 0.1-0.3v-0.4q0.2-0.1 0.6-0.2zm-1.1 6.3q0.1 0.6 0.9 0.6 0.1 0.1 0.4 0.1 0.9-0.1 1-0.2l0.1-0.3v-0.1q-0.2-0.4-0.3-1.5-0.1 0-0.3-1.1-0.3-0.4-0.4-1.2-0.1 0-0.2-0.1-0.3 0-0.6 1.3-0.1 1.3-0.3 1.6 0 0.5-0.3 0.9z"/>
			<path id="path60" class="s3" d="m19.4 58.8q0.1 0.1 0.2 0.1v0.3h-0.2q-0.1 0-0.1-0.3 0.1 0 0.1-0.1zm-0.4 0.1h0.1q0 0.2-0.1 0.2h-0.1v-0.1q0-0.1 0.1-0.1zm-0.7-0.3q0.1 0 0.1 0.2v0.2h-0.2l-0.3-0.1q-0.1 0.2-0.3 0.2-0.1 0-0.1-0.2 0.1-0.1 0.1-0.1 0.3 0.1 0.3 0.1 0.2-0.3 0.4-0.3zm-5.1-6.9q0.5 0.1 0.8 0.1h0.1v0.1q0 0 0 0 0.4 0.1 0.4 0.6 0 0.2-0.1 0.4 0.1 0.4 0.2 1.3l-0.1 0.3q0.1 0.9 0.1 1.1-0.1 0.4-0.1 0.5v0.2 0.2l0.1 1.6q-0.1 0.6-0.1 0.7 0 0.2 0.1 0.4-0.1 0.6-0.1 1.1v0.5q0.2 0.6 0.7 0.6 0.3 0.1 0.6 0.1h0.1q0.3-0.2 0.3-0.2 0.3 0.1 1.1 0.2 0.6 0 0.6 0.8 0 0.2-0.3 0.2-0.1 0-0.5 0l-0.4 0.2q-0.4-0.1-1.1-0.3-0.1 0-0.3 0.1-1 0-1.2-0.1-0.8 0-0.8 0h-0.3q-1.6 0.1-2.1 0.2-0.8 0-0.8-0.2v-0.2q0-0.5 0.6-0.8 0.3 0.1 0.4 0.1 1-0.2 1.4-0.2h0.4q0.4 0 0.6-0.4-0.1-0.5-0.1-0.8v-0.3l0.1-0.1q-0.1 0-0.2-0.3 0.1-0.3 0.1-0.4v-0.2q-0.1-0.4-0.1-1.3 0-0.2 0-0.4 0-0.2 0-0.3 0-0.4 0-0.5v-0.3q0-0.4 0.1-1-0.1-0.1-0.1-0.1l0.1-0.2q-0.1-0.6-0.1-1-0.1-0.6-0.7-0.6-0.3 0-0.5-0.1-0.3 0.1-0.5 0.1-0.3-0.1-0.4-0.1h-0.4q-0.7 0-1.1-0.6v-0.1q0.5-0.5 0.9-0.5l0.8 0.1q0.8-0.2 1.8-0.2zm3.9 6.9l0.1 0.3-0.2 0.1h-0.2v-0.3z"/>
			<path id="path62" class="s4" d="m19.4 58.8q0.1 0.1 0.2 0.1v0.3h-0.2q-0.1 0-0.1-0.3 0.1 0 0.1-0.1zm-0.4 0.1h0.1q0 0.2-0.1 0.2h-0.1v-0.1q0-0.1 0.1-0.1zm-0.7-0.3q0.1 0 0.1 0.2v0.2h-0.2l-0.3-0.1q-0.1 0.2-0.3 0.2-0.1 0-0.1-0.2 0.1-0.1 0.1-0.1 0.3 0.1 0.3 0.1 0.2-0.3 0.4-0.3zm-5.1-6.9q0.5 0.1 0.8 0.1h0.1v0.1q0 0 0 0 0.4 0.1 0.4 0.6 0 0.2-0.1 0.4 0.1 0.4 0.2 1.3l-0.1 0.3q0.1 0.9 0.1 1.1-0.1 0.4-0.1 0.5v0.2 0.2l0.1 1.6q-0.1 0.6-0.1 0.7 0 0.2 0.1 0.4-0.1 0.6-0.1 1.1v0.5q0.2 0.6 0.7 0.6 0.3 0.1 0.6 0.1h0.1q0.3-0.2 0.3-0.2 0.3 0.1 1.1 0.2 0.6 0 0.6 0.8 0 0.2-0.3 0.2-0.1 0-0.5 0l-0.4 0.2q-0.4-0.1-1.1-0.3-0.1 0-0.3 0.1-1 0-1.2-0.1-0.8 0-0.8 0h-0.3q-1.6 0.1-2.1 0.2-0.8 0-0.8-0.2v-0.2q0-0.5 0.6-0.8 0.3 0.1 0.4 0.1 1-0.2 1.4-0.2h0.4q0.4 0 0.6-0.4-0.1-0.5-0.1-0.8v-0.3l0.1-0.1q-0.1 0-0.2-0.3 0.1-0.3 0.1-0.4v-0.2q-0.1-0.4-0.1-1.3 0-0.2 0-0.4 0-0.2 0-0.3 0-0.4 0-0.5v-0.3q0-0.4 0.1-1-0.1-0.1-0.1-0.1l0.1-0.2q-0.1-0.6-0.1-1-0.1-0.6-0.7-0.6-0.3 0-0.5-0.1-0.3 0.1-0.5 0.1-0.3-0.1-0.4-0.1h-0.4q-0.7 0-1.1-0.6v-0.1q0.5-0.5 0.9-0.5l0.8 0.1q0.8-0.2 1.8-0.2zm3.9 6.9l0.1 0.3-0.2 0.1h-0.2v-0.3z"/>
			<path id="path64" class="s3" d="m27.9 58.8q0.1 0.1 0.1 0.1v0.3h-0.2q0 0-0.1-0.3 0.1 0 0.2-0.1zm-0.5 0.1h0.2q0 0.2-0.1 0.2h-0.2v-0.1q0-0.1 0.1-0.1zm-0.7-0.3h0.1q0.1 0 0.1 0.2v0.2h-0.3l-0.2-0.1q-0.2 0.2-0.3 0.2-0.1 0-0.1-0.2 0-0.1 0.1-0.1 0.2 0.1 0.3 0.1 0.2-0.3 0.3-0.3zm-5-6.9q0.5 0.1 0.7 0.1h0.1v0.1q0.1 0 0.1 0 0.3 0.1 0.3 0.6 0 0.2 0 0.4 0 0.4 0.1 1.3v0.3q0 0.9 0 1.1-0.1 0.4-0.1 0.5l0.1 0.2-0.1 0.2 0.1 1.6q0 0.6 0 0.7 0 0.2 0 0.4 0 0.6 0 1.1v0.5q0.2 0.6 0.6 0.6 0.3 0.1 0.6 0.1h0.1q0.3-0.2 0.4-0.2 0.2 0.1 1 0.2 0.7 0 0.7 0.8-0.1 0.2-0.3 0.2-0.1 0-0.5 0l-0.4 0.2q-0.5-0.1-1.2-0.3-0.1 0-0.3 0.1-1 0-1.1-0.1-0.9 0-0.9 0h-0.3q-1.6 0.1-2.1 0.2-0.7 0-0.7-0.2v-0.2q0-0.5 0.5-0.8 0.4 0.1 0.5 0.1 0.9-0.2 1.4-0.2h0.3q0.4 0 0.6-0.4 0-0.5 0-0.8v-0.3-0.1q-0.1 0-0.2-0.3 0.2-0.3 0.2-0.4v-0.2q-0.1-0.4-0.2-1.3 0.1-0.2 0.1-0.4-0.1-0.2-0.1-0.3 0.1-0.4 0.1-0.5v-0.3q0-0.4 0-1 0-0.1 0-0.1v-0.2q0-0.6 0-1-0.2-0.6-0.8-0.6-0.3 0-0.5-0.1-0.3 0.1-0.5 0.1-0.3-0.1-0.3-0.1h-0.5q-0.6 0-1-0.6v-0.1q0.5-0.5 0.9-0.5l0.7 0.1q0.9-0.2 1.9-0.2zm3.8 6.9l0.1 0.3-0.1 0.1h-0.2v-0.3z"/>
			<path id="path66" class="s4" d="m27.9 58.8q0.1 0.1 0.1 0.1v0.3h-0.2q0 0-0.1-0.3 0.1 0 0.2-0.1zm-0.5 0.1h0.2q0 0.2-0.1 0.2h-0.2v-0.1q0-0.1 0.1-0.1zm-0.7-0.3h0.1q0.1 0 0.1 0.2v0.2h-0.3l-0.2-0.1q-0.2 0.2-0.3 0.2-0.1 0-0.1-0.2 0-0.1 0.1-0.1 0.2 0.1 0.3 0.1 0.2-0.3 0.3-0.3zm-5-6.9q0.5 0.1 0.7 0.1h0.1v0.1q0.1 0 0.1 0 0.3 0.1 0.3 0.6 0 0.2 0 0.4 0 0.4 0.1 1.3v0.3q0 0.9 0 1.1-0.1 0.4-0.1 0.5l0.1 0.2-0.1 0.2 0.1 1.6q0 0.6 0 0.7 0 0.2 0 0.4 0 0.6 0 1.1v0.5q0.2 0.6 0.6 0.6 0.3 0.1 0.6 0.1h0.1q0.3-0.2 0.4-0.2 0.2 0.1 1 0.2 0.7 0 0.7 0.8-0.1 0.2-0.3 0.2-0.1 0-0.5 0l-0.4 0.2q-0.5-0.1-1.2-0.3-0.1 0-0.3 0.1-1 0-1.1-0.1-0.9 0-0.9 0h-0.3q-1.6 0.1-2.1 0.2-0.7 0-0.7-0.2v-0.2q0-0.5 0.5-0.8 0.4 0.1 0.5 0.1 0.9-0.2 1.4-0.2h0.3q0.4 0 0.6-0.4 0-0.5 0-0.8v-0.3-0.1q-0.1 0-0.2-0.3 0.2-0.3 0.2-0.4v-0.2q-0.1-0.4-0.2-1.3 0.1-0.2 0.1-0.4-0.1-0.2-0.1-0.3 0.1-0.4 0.1-0.5v-0.3q0-0.4 0-1 0-0.1 0-0.1v-0.2q0-0.6 0-1-0.2-0.6-0.8-0.6-0.3 0-0.5-0.1-0.3 0.1-0.5 0.1-0.3-0.1-0.3-0.1h-0.5q-0.6 0-1-0.6v-0.1q0.5-0.5 0.9-0.5l0.7 0.1q0.9-0.2 1.9-0.2zm3.8 6.9l0.1 0.3-0.1 0.1h-0.2v-0.3z"/>
			<path id="path68" class="s3" d="m37.1 51.5h0.1q0.1 0.1 0.1 0.1 0 0 0 0.1 0 0 0-0.1 1.3 0 1.6 0.8 0.3 0.2 0.3 0.3-0.2 0.3-0.2 0.5 0 0.2 0.1 0.7-0.1 0.3-0.1 0.5l0.1 0.5q0 0.3-0.1 0.3l0.1 1q0 0.3-0.7 0.7-0.5 0-0.6-0.8 0-0.1 0.1-0.4 0-0.3-0.1-0.3l0.1-0.8q0-1-0.7-1.6-0.2-0.4-0.8-0.4-0.4 0-0.8 0.9 0 0.1 0.1 0.4-0.1 0.3-0.1 0.5l0.2 1.2q0 0.4 0.1 0.5-0.1 0.2-0.1 0.4v1.1q0 0.3-0.1 0.6 0.1 0.2 0.1 0.5v0.4q0 0.3 0.1 0.6v0.1q0 1.1 0.3 1.1h0.2 0.2q0.6 0.2 0.6 0.3l0.1-0.1h0.2q0.7 0 1.8 1.1v0.1q-0.3 0.3-0.6 0.4h-0.1q-0.2 0-0.5-0.3v-0.1q-0.1 0.1-0.4 0.1-0.2-0.1-0.3-0.1h-0.1q-0.1 0.3-0.2 0.3-0.1 0-0.1-0.1v-0.3q-0.1 0-0.2-0.1-0.3 0.5-0.5 0.5-0.4-0.1-1-0.2-0.3 0.1-0.6 0.1h-0.2q-0.2 0-0.6-0.2-0.4 0.3-0.6 0.3h-0.1q-0.1 0-0.5-0.3-0.3 0.2-0.4 0.2-0.1 0-0.3-0.3v-0.3q0-0.5 0.6-0.5 0.5-0.1 0.9-0.1h0.1q0.2 0 0.6 0 0.3 0 0.4-0.6 0-0.1-0.1-0.4 0.1-0.5 0.1-0.6v-0.2q0 0-0.1 0l0.1-0.1v-0.2q0-0.4 0-1.1v-0.1-0.3q0-0.5 0-0.7v-0.7q0.1-0.7 0.1-0.8-0.1-0.5-0.1-0.6v-0.3q0-0.1 0.2-0.6-0.2-1.3-0.6-1.3-0.1 0-0.2 0-0.2 0-0.6 0.3-1 0-1.1 1.2 0.2 0.8 0.2 1.4 0 0.4-0.4 1.3v0.1h-0.2q-0.5 0-0.5-0.4 0.1-0.2 0.1-0.3 0-0.2-0.1-0.6 0.1-0.6 0.1-0.8-0.1-0.4-0.1-0.4 0.1-0.4 0.1-0.5 0-0.1 0-0.2 0.1-1.8 0.5-1.8 0-0.2 0.5-0.3 0.3 0.1 0.4 0.1 0.1 0 0.3-0.1 0.4 0 0.5 0 0.7 0 0.9 0 0.3 0.1 0.4 0.1h0.2q0.1 0 0.6-0.2l0.2 0.2q0.4-0.1 0.6-0.1 0 0 0.1 0 0.2 0 0.4-0.2zm-0.6 7.9h0.1q0.1 0 0.1 0.1v0.1q0 0-0.2 0.2 0-0.1-0.1-0.1v-0.1q0-0.1 0.1-0.2zm0.1 0.7q0 0.1 0.1 0.1v0.1q0 0-0.1 0.1-0.1-0.1-0.2-0.1 0-0.1 0.2-0.2z"/>
			<path id="path70" class="s4" d="m37.1 51.5h0.1q0.1 0.1 0.1 0.1 0 0 0 0.1 0 0 0-0.1 1.3 0 1.6 0.8 0.3 0.2 0.3 0.3-0.2 0.3-0.2 0.5 0 0.2 0.1 0.7-0.1 0.3-0.1 0.5l0.1 0.5q0 0.3-0.1 0.3l0.1 1q0 0.3-0.7 0.7-0.5 0-0.6-0.8 0-0.1 0.1-0.4 0-0.3-0.1-0.3l0.1-0.8q0-1-0.7-1.6-0.2-0.4-0.8-0.4-0.4 0-0.8 0.9 0 0.1 0.1 0.4-0.1 0.3-0.1 0.5l0.2 1.2q0 0.4 0.1 0.5-0.1 0.2-0.1 0.4v1.1q0 0.3-0.1 0.6 0.1 0.2 0.1 0.5v0.4q0 0.3 0.1 0.6v0.1q0 1.1 0.3 1.1h0.2 0.2q0.6 0.2 0.6 0.3l0.1-0.1h0.2q0.7 0 1.8 1.1v0.1q-0.3 0.3-0.6 0.4h-0.1q-0.2 0-0.5-0.3v-0.1q-0.1 0.1-0.4 0.1-0.2-0.1-0.3-0.1h-0.1q-0.1 0.3-0.2 0.3-0.1 0-0.1-0.1v-0.3q-0.1 0-0.2-0.1-0.3 0.5-0.5 0.5-0.4-0.1-1-0.2-0.3 0.1-0.6 0.1h-0.2q-0.2 0-0.6-0.2-0.4 0.3-0.6 0.3h-0.1q-0.1 0-0.5-0.3-0.3 0.2-0.4 0.2-0.1 0-0.3-0.3v-0.3q0-0.5 0.6-0.5 0.5-0.1 0.9-0.1h0.1q0.2 0 0.6 0 0.3 0 0.4-0.6 0-0.1-0.1-0.4 0.1-0.5 0.1-0.6v-0.2q0 0-0.1 0l0.1-0.1v-0.2q0-0.4 0-1.1v-0.1-0.3q0-0.5 0-0.7v-0.7q0.1-0.7 0.1-0.8-0.1-0.5-0.1-0.6v-0.3q0-0.1 0.2-0.6-0.2-1.3-0.6-1.3-0.1 0-0.2 0-0.2 0-0.6 0.3-1 0-1.1 1.2 0.2 0.8 0.2 1.4 0 0.4-0.4 1.3v0.1h-0.2q-0.5 0-0.5-0.4 0.1-0.2 0.1-0.3 0-0.2-0.1-0.6 0.1-0.6 0.1-0.8-0.1-0.4-0.1-0.4 0.1-0.4 0.1-0.5 0-0.1 0-0.2 0.1-1.8 0.5-1.8 0-0.2 0.5-0.3 0.3 0.1 0.4 0.1 0.1 0 0.3-0.1 0.4 0 0.5 0 0.7 0 0.9 0 0.3 0.1 0.4 0.1h0.2q0.1 0 0.6-0.2l0.2 0.2q0.4-0.1 0.6-0.1 0 0 0.1 0 0.2 0 0.4-0.2zm-0.6 7.9h0.1q0.1 0 0.1 0.1v0.1q0 0-0.2 0.2 0-0.1-0.1-0.1v-0.1q0-0.1 0.1-0.2zm0.1 0.7q0 0.1 0.1 0.1v0.1q0 0-0.1 0.1-0.1-0.1-0.2-0.1 0-0.1 0.2-0.2z"/>
			<path id="path72" class="s3" d="m42.5 51.8q0.6 0.2 0.6 0.5 0 0-0.1 0.1 0.1 0 0.3 0.3l-0.1 0.2q0 0.3 0 1.4 0.1 1.2 0.3 1.2 0.1 0.1 0.2 0.1 0.4 0 0.9-0.6 0.3-0.2 0.4-0.2 0 0.1 0.1 0.1v-0.1q-0.1 0-0.1 0 0.3-0.2 0.3-0.2h0.2q0.6-0.1 0.7-0.1 0.2 0 1.2 0.6-0.1 0-0.1 0.1l0.1-0.1q0.2 0.2 0.3 0.2l-0.1 0.1h0.1q0-0.1 0-0.1 0.6 0.9 0.6 2.1-0.1 0.4-0.1 0.6v0.4q0 0.2 0.3 0.7-0.2 0.4-0.2 0.5v0.4q0 0.2 0.1 0.4-0.2 0.3-0.2 0.5v0.1q0 0.2 0.8 0.2 0.4 0.5 0.5 0.8-0.1 0.5-0.2 0.5h-0.2q-0.2 0-0.7-0.2h-0.5q-0.2 0.2-0.4 0.1h-0.1q-0.2 0-0.5-0.2-0.1 0-0.2 0h-0.6q0 0-0.3 0.2h-0.1q-0.2-0.1-0.2-0.7 0.2-0.2 0.3-0.2 0.1 0 0.2 0.1 0.9-0.3 0.9-0.7 0-0.2 0.2-0.9 0-0.9 0-1.6 0-0.4 0-1.1-0.1-0.1-0.1-0.2 0-0.4 0-0.5 0-0.3-0.6-0.6-0.1-0.3-0.4-0.3-0.2 0-0.4 0.3h-0.2q-1 0.3-1 0.6-0.2 0.6-0.5 0.6-0.2 0.1-0.7 1.7 0 0.1 0 0.3 0 0.4 0 0.7 0.1 0.9 0.2 1.1 0 0.3 1.2 0.7 0 0.1 0.2 0.3 0 0.4-0.5 0.4l-0.3-0.1q-0.5 0.1-0.8 0.1-0.3-0.1-0.4-0.1h-0.1l-0.8 0.3h-0.1q-1.1-0.2-1.1-0.5v-0.1q0.1-0.5 1.2-0.5 0.5-0.2 0.5-0.5 0-0.1-0.1-0.2l0.1-0.2q-0.1-1.1-0.2-1.4v-0.1l0.2-0.6q-0.1-0.6-0.2-0.7 0.1-0.4 0.1-0.5 0-0.2-0.1-0.4 0.1-0.1 0.1-0.5-0.1-0.4-0.1-0.5l0.1-0.2q-0.1-0.4-0.1-0.6 0-0.2 0.1-0.4-0.2-0.5-0.2-0.8 0.1-0.2 0.1-0.4 0-0.5-1-0.5-0.7-0.3-0.7-0.4 0-0.2 0-0.3 0-0.3 0.2-0.4 0.3 0 0.3 0 0.8 0 1.5-0.1z"/>
			<path id="path74" class="s4" d="m42.5 51.8q0.6 0.2 0.6 0.5 0 0-0.1 0.1 0.1 0 0.3 0.3l-0.1 0.2q0 0.3 0 1.4 0.1 1.2 0.3 1.2 0.1 0.1 0.2 0.1 0.4 0 0.9-0.6 0.3-0.2 0.4-0.2 0 0.1 0.1 0.1v-0.1q-0.1 0-0.1 0 0.3-0.2 0.3-0.2h0.2q0.6-0.1 0.7-0.1 0.2 0 1.2 0.6-0.1 0-0.1 0.1l0.1-0.1q0.2 0.2 0.3 0.2l-0.1 0.1h0.1q0-0.1 0-0.1 0.6 0.9 0.6 2.1-0.1 0.4-0.1 0.6v0.4q0 0.2 0.3 0.7-0.2 0.4-0.2 0.5v0.4q0 0.2 0.1 0.4-0.2 0.3-0.2 0.5v0.1q0 0.2 0.8 0.2 0.4 0.5 0.5 0.8-0.1 0.5-0.2 0.5h-0.2q-0.2 0-0.7-0.2h-0.5q-0.2 0.2-0.4 0.1h-0.1q-0.2 0-0.5-0.2-0.1 0-0.2 0h-0.6q0 0-0.3 0.2h-0.1q-0.2-0.1-0.2-0.7 0.2-0.2 0.3-0.2 0.1 0 0.2 0.1 0.9-0.3 0.9-0.7 0-0.2 0.2-0.9 0-0.9 0-1.6 0-0.4 0-1.1-0.1-0.1-0.1-0.2 0-0.4 0-0.5 0-0.3-0.6-0.6-0.1-0.3-0.4-0.3-0.2 0-0.4 0.3h-0.2q-1 0.3-1 0.6-0.2 0.6-0.5 0.6-0.2 0.1-0.7 1.7 0 0.1 0 0.3 0 0.4 0 0.7 0.1 0.9 0.2 1.1 0 0.3 1.2 0.7 0 0.1 0.2 0.3 0 0.4-0.5 0.4l-0.3-0.1q-0.5 0.1-0.8 0.1-0.3-0.1-0.4-0.1h-0.1l-0.8 0.3h-0.1q-1.1-0.2-1.1-0.5v-0.1q0.1-0.5 1.2-0.5 0.5-0.2 0.5-0.5 0-0.1-0.1-0.2l0.1-0.2q-0.1-1.1-0.2-1.4v-0.1l0.2-0.6q-0.1-0.6-0.2-0.7 0.1-0.4 0.1-0.5 0-0.2-0.1-0.4 0.1-0.1 0.1-0.5-0.1-0.4-0.1-0.5l0.1-0.2q-0.1-0.4-0.1-0.6 0-0.2 0.1-0.4-0.2-0.5-0.2-0.8 0.1-0.2 0.1-0.4 0-0.5-1-0.5-0.7-0.3-0.7-0.4 0-0.2 0-0.3 0-0.3 0.2-0.4 0.3 0 0.3 0 0.8 0 1.5-0.1z"/>
			<path id="path76" class="s3" d="m56.1 63.4q0.1 0 0.1 0v0.1q0 0.1-0.1 0.1h-0.1q-0.1 0-0.1-0.1zm-3.3-8.8q1.2 0 1.2 0.7l0.1 0.1-0.1 0.5q0.2 0.4 0.2 0.7v1.8q0 0.7 0 1.3 0 0.2 0 0.8 0 0.9 0.5 0.9 0.4 0 0.8 0 0.1 0 0.5-0.1 0.6 0.1 0.6 0.2h0.1q0.3 0.2 0.4 0.4-0.1 0.5-0.2 0.7-1.9-0.1-2.2-0.3-0.5 0.1-0.6 0.1-0.1-0.1-0.2-0.1h-0.6q-0.5 0-1.3 0.3-0.2-0.1-0.5-0.1h-0.2q-0.5 0-0.5 0.1-0.9-0.2-0.9-0.7 0-0.7 1.4-0.7 0.1 0.1 0.4 0.1l0.4-0.2 0.2 0.1h0.1q0.6 0 0.6-1.4 0.1 0 0.1-0.2l-0.1-0.5q0 0 0.1-0.1 0 0-0.1-0.3 0.1-0.6 0.1-0.7l-0.1-0.3q0.2-0.4 0.2-0.6v-0.3q0-0.9-0.6-0.9-0.1-0.1-0.2-0.1l-0.4 0.2-0.4-0.1q-0.6 0.1-0.6 0.1-0.3-0.1-0.3-0.4 0.1-0.4 0.2-0.5h-0.1q0-0.3 0.8-0.3 0-0.1 0.3-0.2 0.1 0 0.4 0.1zm0.8-2.9q0.6 0 1.4 0.7v0.1q-0.2 0.1-0.3 0.9-0.2 0.6-0.7 0.6 0 0.1-0.7 0.1-0.7-0.3-0.7-1.2 0.2-1.2 1-1.2zm2.2 3.7h0.2q0 0.1 0.1 0.1v0.3h-0.2q-0.2 0-0.2-0.3 0.1-0.1 0.1-0.1z"/>
			<path id="path78" class="s4" d="m56.1 63.4q0.1 0 0.1 0v0.1q0 0.1-0.1 0.1h-0.1q-0.1 0-0.1-0.1zm-3.3-8.8q1.2 0 1.2 0.7l0.1 0.1-0.1 0.5q0.2 0.4 0.2 0.7v1.8q0 0.7 0 1.3 0 0.2 0 0.8 0 0.9 0.5 0.9 0.4 0 0.8 0 0.1 0 0.5-0.1 0.6 0.1 0.6 0.2h0.1q0.3 0.2 0.4 0.4-0.1 0.5-0.2 0.7-1.9-0.1-2.2-0.3-0.5 0.1-0.6 0.1-0.1-0.1-0.2-0.1h-0.6q-0.5 0-1.3 0.3-0.2-0.1-0.5-0.1h-0.2q-0.5 0-0.5 0.1-0.9-0.2-0.9-0.7 0-0.7 1.4-0.7 0.1 0.1 0.4 0.1l0.4-0.2 0.2 0.1h0.1q0.6 0 0.6-1.4 0.1 0 0.1-0.2l-0.1-0.5q0 0 0.1-0.1 0 0-0.1-0.3 0.1-0.6 0.1-0.7l-0.1-0.3q0.2-0.4 0.2-0.6v-0.3q0-0.9-0.6-0.9-0.1-0.1-0.2-0.1l-0.4 0.2-0.4-0.1q-0.6 0.1-0.6 0.1-0.3-0.1-0.3-0.4 0.1-0.4 0.2-0.5h-0.1q0-0.3 0.8-0.3 0-0.1 0.3-0.2 0.1 0 0.4 0.1zm0.8-2.9q0.6 0 1.4 0.7v0.1q-0.2 0.1-0.3 0.9-0.2 0.6-0.7 0.6 0 0.1-0.7 0.1-0.7-0.3-0.7-1.2 0.2-1.2 1-1.2zm2.2 3.7h0.2q0 0.1 0.1 0.1v0.3h-0.2q-0.2 0-0.2-0.3 0.1-0.1 0.1-0.1z"/>
			<path id="path80" class="s3" d="m68.9 56.1h0.1q0.1 0 0.1 0.2v0.1q0 0.1-0.2 0.3l-0.1-0.1q0.1-0.5 0.1-0.5zm-5.5-1.5q0.3 0.1 1 0.1 0.6 0.4 0.6 0.9 0.1 0 0.4 0.8 0.2 0.1 0.2 0.3 0 0.1-0.2 0.4 0.1 0.4 0.2 0.4v0.2q-0.2 0.5-0.2 1.2 0 0.6-0.1 1.4l0.1 0.1h0.2l-0.2 0.3q0.2 0 0.4 0.2 0.3 0 0.3 0.1 0 0.1 0.8 0.6 0.3 0.3 0.3 0.3-0.4 0.5-1.1 0.5 0 0.1 0 0.1-0.3 0-0.4-0.1l-0.3 0.1q-0.3-0.2-0.4-0.2h-0.2q-0.1 0-0.3 0.2l-0.5-0.1h-0.3q-0.3-0.1-0.5-0.1h-0.1q-0.1 0-0.1 0-0.1-0.1-0.2-0.1v-0.1q0-0.8 0.4-0.8 0.2-0.2 0.7-0.4 0.4-0.5 0.4-1.3 0-0.5 0.1-1 0-0.5-0.3-1.1 0-0.2 0-0.3-0.1-0.6-0.3-1-0.1 0-0.6-0.3 0 0-0.1-0.1-0.6 0.5-1 0.6-0.7 0.7-0.7 1 0 0.3-0.4 0.5l-0.1-0.1 0.1 0.1q-0.4 0.5-0.4 1v0.1l0.1 0.3h-0.1l0.2 0.4q0 0-0.4 0v-0.2q0-0.1 0.2-0.2 0 0 0.1 0.2v0.3q0.1 0.3 0.1 0.4-0.1 0.3-0.1 0.4 0.6 0.4 1.3 0.8l0.2 0.2q-0.2 0.8-0.6 0.8l-0.3-0.1q-0.4 0.2-0.5 0.2-0.6-0.2-0.7-0.2-0.8 0.1-1 0.2-0.9 0-1.1-0.5v-0.1q0-0.1 0.4-0.9 0.5 0.1 0.5 0.1 0.4-0.1 0.6-0.5v-0.3q0-0.1-0.1-0.1 0.2-0.6 0.2-0.8v-1.6q0-0.1-0.1-0.2 0.1-0.3 0.2-0.6l-0.1-0.4 0.1-0.6q-0.1-0.3-0.3-0.4-0.2 0-0.4 0.3-0.1 0-0.2 0-0.8-0.4-0.9-0.5v-0.2q0-0.3 1-0.4 0.4 0.1 0.5 0.1 0-0.1 0.1-0.1 0.9 0.2 0.9 0.6 0.2 0.6 0.4 0.6l0.3-0.2q0 0.1 0 0.1v-0.1q0 0 0 0 0.1 0 0.6-0.6 0.9-0.5 1-0.5 0.3 0 0.7-0.1zm3.3 4.9q0.2 0.1 0.2 0.1-0.1 0.2-0.3 0.2-0.1 0-0.1-0.1v-0.1q0 0 0.2-0.1z"/>
			<path id="path82" class="s4" d="m68.9 56.1h0.1q0.1 0 0.1 0.2v0.1q0 0.1-0.2 0.3l-0.1-0.1q0.1-0.5 0.1-0.5zm-5.5-1.5q0.3 0.1 1 0.1 0.6 0.4 0.6 0.9 0.1 0 0.4 0.8 0.2 0.1 0.2 0.3 0 0.1-0.2 0.4 0.1 0.4 0.2 0.4v0.2q-0.2 0.5-0.2 1.2 0 0.6-0.1 1.4l0.1 0.1h0.2l-0.2 0.3q0.2 0 0.4 0.2 0.3 0 0.3 0.1 0 0.1 0.8 0.6 0.3 0.3 0.3 0.3-0.4 0.5-1.1 0.5 0 0.1 0 0.1-0.3 0-0.4-0.1l-0.3 0.1q-0.3-0.2-0.4-0.2h-0.2q-0.1 0-0.3 0.2l-0.5-0.1h-0.3q-0.3-0.1-0.5-0.1h-0.1q-0.1 0-0.1 0-0.1-0.1-0.2-0.1v-0.1q0-0.8 0.4-0.8 0.2-0.2 0.7-0.4 0.4-0.5 0.4-1.3 0-0.5 0.1-1 0-0.5-0.3-1.1 0-0.2 0-0.3-0.1-0.6-0.3-1-0.1 0-0.6-0.3 0 0-0.1-0.1-0.6 0.5-1 0.6-0.7 0.7-0.7 1 0 0.3-0.4 0.5l-0.1-0.1 0.1 0.1q-0.4 0.5-0.4 1v0.1l0.1 0.3h-0.1l0.2 0.4q0 0-0.4 0v-0.2q0-0.1 0.2-0.2 0 0 0.1 0.2v0.3q0.1 0.3 0.1 0.4-0.1 0.3-0.1 0.4 0.6 0.4 1.3 0.8l0.2 0.2q-0.2 0.8-0.6 0.8l-0.3-0.1q-0.4 0.2-0.5 0.2-0.6-0.2-0.7-0.2-0.8 0.1-1 0.2-0.9 0-1.1-0.5v-0.1q0-0.1 0.4-0.9 0.5 0.1 0.5 0.1 0.4-0.1 0.6-0.5v-0.3q0-0.1-0.1-0.1 0.2-0.6 0.2-0.8v-1.6q0-0.1-0.1-0.2 0.1-0.3 0.2-0.6l-0.1-0.4 0.1-0.6q-0.1-0.3-0.3-0.4-0.2 0-0.4 0.3-0.1 0-0.2 0-0.8-0.4-0.9-0.5v-0.2q0-0.3 1-0.4 0.4 0.1 0.5 0.1 0-0.1 0.1-0.1 0.9 0.2 0.9 0.6 0.2 0.6 0.4 0.6l0.3-0.2q0 0.1 0 0.1v-0.1q0 0 0 0 0.1 0 0.6-0.6 0.9-0.5 1-0.5 0.3 0 0.7-0.1zm3.3 4.9q0.2 0.1 0.2 0.1-0.1 0.2-0.3 0.2-0.1 0-0.1-0.1v-0.1q0 0 0.2-0.1z"/>
			<path id="path84" class="s3" d="m71.8 54.6q0.5 0 1.7 0.4-0.1 0-0.1 0.1 0.1 0 0.1-0.1l0.3 0.1q1.1-0.5 1.3-0.5h0.6q0.4 0 0.8 0.7 0.1 0.6 0.1 0.8-0.6 0.1-0.6 0.4h-0.2l-0.4-0.4q-0.3-0.2-0.3-0.3-0.4 0.1-0.4 0.8 0 0.3-0.1 0.6l0.1 0.3q-0.2 1.4-0.5 1.4 0 0.1-0.8 0.3-0.5 0.6-0.7 0.6 0 0-0.4-0.1l-0.6 0.1q-0.6-0.3-0.8-0.3-0.5-0.3-0.6-0.3-0.3 0.1-0.4 0.1 0.1 0 0 0 0.1 0 0 0.1-0.2 0-0.5 0.5v0.1q0 0.3 0.3 0.7-0.1 0-0.1 0.1 0.1 0 0.3 0.2 0.1 0.1 0.6 0.1l1.1-0.4 1.2 0.1q0.1-0.1 0.3-0.1 1.9 0.4 1.9 0.6 0.5 0.2 0.8 0.7l-0.1 0.1h0.1q0-0.1 0-0.1 0.3 0.2 0.3 1.3 0 0.3-0.2 0.3l0.1 0.1q-0.2 0.5-0.5 0.8-0.2 0-0.8 0.3-0.5 0-0.7 0.4-0.1 0-0.1 0-0.3-0.1-0.4-0.1 0 0.1-1.3 0.1v0.1q-1.7-0.1-1.7-0.2h-0.1q-0.1-0.1-1.2-0.2-0.3-0.2-0.5-0.7-0.4-0.2-0.4-0.5 0 0 0-0.1-0.1 0-0.1-0.4v-0.2q0-0.5 0.4-1.2 0.2-0.2 0.2-0.4-0.5-0.5-0.5-1 0.1-1.2 0.4-1.3l0.7-0.7v-0.1q0-0.3-0.2-0.7 0-0.8 0.5-1.8 0-0.1 0.3-0.5 0-0.2 0.7-0.4 0-0.2 0.9-0.2 0-0.1 0.2-0.1zm0.7 7.1q-0.4 0-0.6 0-0.4-0.1-0.6-0.1-0.1 0-0.3 0.1l-0.7-0.1q-0.3 0-0.6 0.5-0.2 0.4-0.6 0.8v0.1q0 0.1 0.1 0.3-0.1 0-0.1 0.1 0.6 0.7 1.2 0.7 0 0.1 0.9 0.4 0 0 0 0 0.2 0.1 0.4 0.1 2.4-0.2 2.4-0.4 1.1-0.4 1.1-0.6 0-0.2 0.4-0.6 0.1-0.2 0.1-0.2 0-0.3-0.7-0.4-0.5-0.7-1.3-0.7-0.4-0.2-0.5-0.2h-0.2q-0.1 0-0.4 0.2zm-2.3-4.7v0.4q0 0.6 1.1 1.3 0.5 0.2 0.9 0.2 0.7-0.2 0.8-0.2 0-0.1 0.6-0.6l0.1-0.3v-1q0-0.2-0.4-0.6 0-0.6-0.5-0.6-0.3-0.1-0.5-0.3h-0.1q-0.7 0.1-0.9 0.4-0.6 0.2-0.8 0.8l-0.2 0.3q-0.1 0.1-0.1 0.2z"/>
			<path id="path86" class="s4" d="m71.8 54.6q0.5 0 1.7 0.4-0.1 0-0.1 0.1 0.1 0 0.1-0.1l0.3 0.1q1.1-0.5 1.3-0.5h0.6q0.4 0 0.8 0.7 0.1 0.6 0.1 0.8-0.6 0.1-0.6 0.4h-0.2l-0.4-0.4q-0.3-0.2-0.3-0.3-0.4 0.1-0.4 0.8 0 0.3-0.1 0.6l0.1 0.3q-0.2 1.4-0.5 1.4 0 0.1-0.8 0.3-0.5 0.6-0.7 0.6 0 0-0.4-0.1l-0.6 0.1q-0.6-0.3-0.8-0.3-0.5-0.3-0.6-0.3-0.3 0.1-0.4 0.1 0.1 0 0 0 0.1 0 0 0.1-0.2 0-0.5 0.5v0.1q0 0.3 0.3 0.7-0.1 0-0.1 0.1 0.1 0 0.3 0.2 0.1 0.1 0.6 0.1l1.1-0.4 1.2 0.1q0.1-0.1 0.3-0.1 1.9 0.4 1.9 0.6 0.5 0.2 0.8 0.7l-0.1 0.1h0.1q0-0.1 0-0.1 0.3 0.2 0.3 1.3 0 0.3-0.2 0.3l0.1 0.1q-0.2 0.5-0.5 0.8-0.2 0-0.8 0.3-0.5 0-0.7 0.4-0.1 0-0.1 0-0.3-0.1-0.4-0.1 0 0.1-1.3 0.1v0.1q-1.7-0.1-1.7-0.2h-0.1q-0.1-0.1-1.2-0.2-0.3-0.2-0.5-0.7-0.4-0.2-0.4-0.5 0 0 0-0.1-0.1 0-0.1-0.4v-0.2q0-0.5 0.4-1.2 0.2-0.2 0.2-0.4-0.5-0.5-0.5-1 0.1-1.2 0.4-1.3l0.7-0.7v-0.1q0-0.3-0.2-0.7 0-0.8 0.5-1.8 0-0.1 0.3-0.5 0-0.2 0.7-0.4 0-0.2 0.9-0.2 0-0.1 0.2-0.1zm0.7 7.1q-0.4 0-0.6 0-0.4-0.1-0.6-0.1-0.1 0-0.3 0.1l-0.7-0.1q-0.3 0-0.6 0.5-0.2 0.4-0.6 0.8v0.1q0 0.1 0.1 0.3-0.1 0-0.1 0.1 0.6 0.7 1.2 0.7 0 0.1 0.9 0.4 0 0 0 0 0.2 0.1 0.4 0.1 2.4-0.2 2.4-0.4 1.1-0.4 1.1-0.6 0-0.2 0.4-0.6 0.1-0.2 0.1-0.2 0-0.3-0.7-0.4-0.5-0.7-1.3-0.7-0.4-0.2-0.5-0.2h-0.2q-0.1 0-0.4 0.2zm-2.3-4.7v0.4q0 0.6 1.1 1.3 0.5 0.2 0.9 0.2 0.7-0.2 0.8-0.2 0-0.1 0.6-0.6l0.1-0.3v-1q0-0.2-0.4-0.6 0-0.6-0.5-0.6-0.3-0.1-0.5-0.3h-0.1q-0.7 0.1-0.9 0.4-0.6 0.2-0.8 0.8l-0.2 0.3q-0.1 0.1-0.1 0.2z"/>
			<path id="path88" class="s3" d="m80.3 54.7h0.4q0.5 0 0.6 0 1.2 0.2 1.7 0.6 0 0 0 0.1 0 0 0-0.1l0.3 0.1q0 0 0.3-0.3l0.3-0.1q0.3 0 0.3 0.4l-0.1 0.4q0.1 0.4 0.1 0.7l-0.1 0.3q0 0.5 0 0.8-0.2 0.1-0.7 0.1-0.2-0.5-0.3-0.8 0 0 0 0 0 0-0.1 0-0.3-0.8-1.2-0.8l0.1-0.2v-0.2h-0.1-0.3q-0.3-0.1-0.3-0.1-0.9 0.3-0.9 0.3l-0.7-0.1q-0.5 0.3-0.5 1.3 0 0.4 0.7 0.6 0 0 0.2 0.1 0.2-0.1 0.4-0.1 0 0.1 0.1 0.2h0.3q0.2-0.2 0.2-0.2h0.1q0.2 0.3 1.1 0.3 0.1 0 0.3 0 0.4 0.2 0.5 0.3 0.5 0 0.7 0.4 0.9 0.6 0.9 1.6v0.1q0 0.1-0.3 0.8 0 0.4-0.8 0.7-0.2 0.3-0.6 0.3 0 0.1-1 0.2 0 0.2-0.2 0.3h-0.1q-0.2 0-0.7-0.3-0.2-0.1-0.4-0.1-0.1 0-0.3 0.2-0.3-0.1-0.9-0.2 0-0.1-0.3-0.1h-0.1q-0.4 0.4-0.4 0.4-0.7-0.1-0.7-0.4-0.1-0.3-0.1-0.4l0.1-0.5v-0.3q0-0.5-0.1-0.6l0.1-0.2v-0.6q0-0.4 0.3-0.4 0.5 0 1.1 1.7 1.2 0.8 1.6 0.8 0.2 0 0.2-0.1 0.3 0.1 0.5 0.1 0.4 0 1.1-0.4 0.3 0 0.6-0.5 0.2-0.1 0.2-0.4v-0.4q0-0.3-0.3-0.4h-0.2l-0.2 0.1h-0.1q0.1 0 0.1 0.1h-0.1q-0.1 0-0.2-0.5h-0.2q0 0-0.4 0.1-0.5-0.1-0.9-0.6h-0.1q-0.3 0.4-0.4 0.4-0.3 0-0.8-0.4-0.5 0-0.5-0.3-0.9-0.5-0.9-0.7 0-0.2-0.1-0.4 0 0 0-0.1-0.1 0-0.1-0.3 0-1.3 0.4-1.3 0.3-0.6 0.9-0.6 0.2-0.2 0.9-0.4 0 0 0.1 0zm2.5 2.5h0.2v0.1q0 0.1-0.1 0.1h-0.1q-0.1 0-0.1-0.1 0.1-0.1 0.1-0.1z"/>
			<path id="path90" class="s4" d="m80.3 54.7h0.4q0.5 0 0.6 0 1.2 0.2 1.7 0.6 0 0 0 0.1 0 0 0-0.1l0.3 0.1q0 0 0.3-0.3l0.3-0.1q0.3 0 0.3 0.4l-0.1 0.4q0.1 0.4 0.1 0.7l-0.1 0.3q0 0.5 0 0.8-0.2 0.1-0.7 0.1-0.2-0.5-0.3-0.8 0 0 0 0 0 0-0.1 0-0.3-0.8-1.2-0.8l0.1-0.2v-0.2h-0.1-0.3q-0.3-0.1-0.3-0.1-0.9 0.3-0.9 0.3l-0.7-0.1q-0.5 0.3-0.5 1.3 0 0.4 0.7 0.6 0 0 0.2 0.1 0.2-0.1 0.4-0.1 0 0.1 0.1 0.2h0.3q0.2-0.2 0.2-0.2h0.1q0.2 0.3 1.1 0.3 0.1 0 0.3 0 0.4 0.2 0.5 0.3 0.5 0 0.7 0.4 0.9 0.6 0.9 1.6v0.1q0 0.1-0.3 0.8 0 0.4-0.8 0.7-0.2 0.3-0.6 0.3 0 0.1-1 0.2 0 0.2-0.2 0.3h-0.1q-0.2 0-0.7-0.3-0.2-0.1-0.4-0.1-0.1 0-0.3 0.2-0.3-0.1-0.9-0.2 0-0.1-0.3-0.1h-0.1q-0.4 0.4-0.4 0.4-0.7-0.1-0.7-0.4-0.1-0.3-0.1-0.4l0.1-0.5v-0.3q0-0.5-0.1-0.6l0.1-0.2v-0.6q0-0.4 0.3-0.4 0.5 0 1.1 1.7 1.2 0.8 1.6 0.8 0.2 0 0.2-0.1 0.3 0.1 0.5 0.1 0.4 0 1.1-0.4 0.3 0 0.6-0.5 0.2-0.1 0.2-0.4v-0.4q0-0.3-0.3-0.4h-0.2l-0.2 0.1h-0.1q0.1 0 0.1 0.1h-0.1q-0.1 0-0.2-0.5h-0.2q0 0-0.4 0.1-0.5-0.1-0.9-0.6h-0.1q-0.3 0.4-0.4 0.4-0.3 0-0.8-0.4-0.5 0-0.5-0.3-0.9-0.5-0.9-0.7 0-0.2-0.1-0.4 0 0 0-0.1-0.1 0-0.1-0.3 0-1.3 0.4-1.3 0.3-0.6 0.9-0.6 0.2-0.2 0.9-0.4 0 0 0.1 0zm2.5 2.5h0.2v0.1q0 0.1-0.1 0.1h-0.1q-0.1 0-0.1-0.1 0.1-0.1 0.1-0.1z"/>
			<path id="path92" class="s3" d="m94 51.2h0.1q0 0 0 0.1v0.2q-0.1 0-0.1 0l-0.1-0.1v-0.1q0-0.1 0.1-0.1zm-2.1 0.7h0.3q0.1 0 0.3 0 0.3 0 0.6 0h0.3q0.1 0 1 0h1.6q0.7 0 1.7 0.8 0 0.2 0.4 0.4 0.6 1.7 0.6 2.4 0 0.2 0 0.4v0.9q-0.1 0.2-0.5 0.3-0.4 0.5-1.1 0.5l-0.2 0.6q0 0-0.1 0-0.4-0.3-0.9-0.3 0 0-0.3-0.1-0.5 0.3-0.7 0.3-0.1 0-0.7-0.3h-0.1q-0.1 0-0.5 0.5 0.2 0.6 0.2 1-0.1 0.2-0.2 1.2 0 0.1 0.5 0.5h0.1l0.3-0.2h0.4q0 0 0-0.1 0.6 0.4 1.1 0.5 0 0 0.3 0.4 0 0.7-0.6 0.9h-0.4q-0.1 0-0.3 0.1l-0.5-0.4q-0.3 0.2-1.2 0.3-0.4-0.2-0.6-0.2h-0.2q-0.3 0-0.8 0.3-0.2 0-0.4-0.3-0.4 0-0.4-0.2-0.1 0-0.2 0h-0.2q0 0.2-0.2 0.2-0.2 0-0.3-0.2 0-0.6 0.6-0.8 0.1-0.1 1.1-0.1 0-0.1 0.2-0.2 0.2 0.1 0.4 0.1 0.1 0 0.2-1-0.1-1-0.1-1.7 0-0.2 0.1-0.5 0-0.6 0-1v-0.1q0-0.4 0-1.1-0.1-0.2-0.1-0.5v-0.2q0-0.8 0.1-1.4-0.1-0.7-0.3-0.7h-0.1l-0.4 0.1q-0.2-0.1-1.2-0.2h-0.1q-0.1 0-0.1 0.1-0.2 0-0.3-0.3v-0.1q0-0.1 0.2-0.6 0.4 0.1 0.7 0.1h0.1q0.5 0 0.9-0.1zm1.3 1.2q-0.1 0.2-0.1 0.3 0 0.2 0.3 0.9v0.6q-0.1 0.4-0.1 1.2 0.1 0.9 0.5 0.9 0.5 0.1 0.5 0.1 0.1 0 0.4-0.1 0.4 0.1 0.5 0.1 0.3 0 1.2-0.5 0.5 0 0.7-0.7 0.3-0.1 0.5-1.6v-0.1q-0.5-0.7-0.6-0.7h-0.3q-0.6-0.5-0.8-0.5h-0.2q-0.4 0.1-0.5 0.1-0.2-0.3-1.5-0.3l-0.1-0.1q-0.1 0-0.4 0.4z"/>
			<path id="path94" class="s4" d="m94 51.2h0.1q0 0 0 0.1v0.2q-0.1 0-0.1 0l-0.1-0.1v-0.1q0-0.1 0.1-0.1zm-2.1 0.7h0.3q0.1 0 0.3 0 0.3 0 0.6 0h0.3q0.1 0 1 0h1.6q0.7 0 1.7 0.8 0 0.2 0.4 0.4 0.6 1.7 0.6 2.4 0 0.2 0 0.4v0.9q-0.1 0.2-0.5 0.3-0.4 0.5-1.1 0.5l-0.2 0.6q0 0-0.1 0-0.4-0.3-0.9-0.3 0 0-0.3-0.1-0.5 0.3-0.7 0.3-0.1 0-0.7-0.3h-0.1q-0.1 0-0.5 0.5 0.2 0.6 0.2 1-0.1 0.2-0.2 1.2 0 0.1 0.5 0.5h0.1l0.3-0.2h0.4q0 0 0-0.1 0.6 0.4 1.1 0.5 0 0 0.3 0.4 0 0.7-0.6 0.9h-0.4q-0.1 0-0.3 0.1l-0.5-0.4q-0.3 0.2-1.2 0.3-0.4-0.2-0.6-0.2h-0.2q-0.3 0-0.8 0.3-0.2 0-0.4-0.3-0.4 0-0.4-0.2-0.1 0-0.2 0h-0.2q0 0.2-0.2 0.2-0.2 0-0.3-0.2 0-0.6 0.6-0.8 0.1-0.1 1.1-0.1 0-0.1 0.2-0.2 0.2 0.1 0.4 0.1 0.1 0 0.2-1-0.1-1-0.1-1.7 0-0.2 0.1-0.5 0-0.6 0-1v-0.1q0-0.4 0-1.1-0.1-0.2-0.1-0.5v-0.2q0-0.8 0.1-1.4-0.1-0.7-0.3-0.7h-0.1l-0.4 0.1q-0.2-0.1-1.2-0.2h-0.1q-0.1 0-0.1 0.1-0.2 0-0.3-0.3v-0.1q0-0.1 0.2-0.6 0.4 0.1 0.7 0.1h0.1q0.5 0 0.9-0.1zm1.3 1.2q-0.1 0.2-0.1 0.3 0 0.2 0.3 0.9v0.6q-0.1 0.4-0.1 1.2 0.1 0.9 0.5 0.9 0.5 0.1 0.5 0.1 0.1 0 0.4-0.1 0.4 0.1 0.5 0.1 0.3 0 1.2-0.5 0.5 0 0.7-0.7 0.3-0.1 0.5-1.6v-0.1q-0.5-0.7-0.6-0.7h-0.3q-0.6-0.5-0.8-0.5h-0.2q-0.4 0.1-0.5 0.1-0.2-0.3-1.5-0.3l-0.1-0.1q-0.1 0-0.4 0.4z"/>
			<path id="path96" class="s3" d="m100.6 51.7q0.4 0.1 0.9 0.1 0.2 0 0.5 0 0.4 0.1 0.5 0.1 0.2-0.1 0.3-0.1 0.2 0.1 0.7 0.2 0.3 0.1 0.3 0.2 0 0.4-0.3 0.4-0.3-0.1-0.4-0.1-0.8 0.6-0.8 1.1l0.1 0.4q-0.1 0.1-0.2 0.8 0.1 0.1 0.1 0.2-0.1 0-0.1 0 0.2 0 0.4 0.3-0.1 0.6-0.1 1 0 0.3 0.4 0.3h0.1q0.2-0.1 0.4-0.7 0.1 0 0.3-0.2 0.6-0.4 0.8-1.2 0.3-0.1 1-1.6 0-0.2-0.6-0.4-0.1-0.1-0.1-0.3 0-0.3 0.4-0.4l0.3 0.1q0.4-0.2 0.7-0.2 0.4 0.2 0.5 0.2 0.1 0 0.1 0l0.4 0.1q0.3 0 0.5 0 0.4 0 0.6 0.3v0.3q0 0.1-0.6 0.3-0.6-0.2-0.8-0.2-0.2 0-0.4 0.5-0.1 0-0.4 0.8-0.5 0.1-0.5 0.6-0.2 0.3-0.5 0.5-0.1 0.3-0.4 0.5l-0.1 0.1q0.1 0.3 0.1 0.4-0.4 0.5-0.4 0.6v0.1q0 0.2 0.8 1.3 0.1 0 0.3 0.7 0.1 0.1 0.9 0.9 0.1 1 0.7 1.7 0 0.1 1.5 0.3l0.3 0.4q0 0.3-1 0.3 0 0-0.1 0 0 0.1-0.4 0.2-0.5-0.2-0.6-0.2h-0.1-0.3q0 0-0.1 0 0 0.1-0.5 0.2-0.9-0.3-0.9-0.4-0.1 0-0.1-0.2 0-0.1 0.4-0.4 0.1 0 0.5 0.1 0.2 0 0.3-0.3 0-0.1-0.3-0.7-0.2-0.2-0.3-0.6-0.6-0.4-0.6-1.2-0.1-0.2-0.6-0.5-0.1-0.5-0.4-0.5h-0.4q-0.2 0-0.3 1-0.5 0.7-0.5 0.9 0 0.1 0.1 0.4-0.1 0.2-0.1 0.4 0 0.7 0.7 0.9 0.5 0 0.6 0.7 0 0.3-0.6 0.3h-0.3q-0.2 0-0.7-0.1h-0.1q-0.7 0.2-0.8 0.2-0.1-0.1-0.2-0.1-0.1 0-1 0-0.2-0.3-0.2-0.5 0-0.3 1-0.5 0.5-0.3 0.5-1 0.1 0 0.1-0.4 0-0.3-0.1-1.1 0-0.3 0-0.5v-0.7-0.3q0.1-0.2 0.1-1.2-0.1-0.6-0.1-0.7 0-0.5 0.1-1.2l-0.1-0.5 0.1-0.3q0-0.9-0.7-0.9-1 0-1-0.3l-0.1-0.1q0-0.3 0.9-0.6z"/>
			<path id="path98" class="s4" d="m100.6 51.7q0.4 0.1 0.9 0.1 0.2 0 0.5 0 0.4 0.1 0.5 0.1 0.2-0.1 0.3-0.1 0.2 0.1 0.7 0.2 0.3 0.1 0.3 0.2 0 0.4-0.3 0.4-0.3-0.1-0.4-0.1-0.8 0.6-0.8 1.1l0.1 0.4q-0.1 0.1-0.2 0.8 0.1 0.1 0.1 0.2-0.1 0-0.1 0 0.2 0 0.4 0.3-0.1 0.6-0.1 1 0 0.3 0.4 0.3h0.1q0.2-0.1 0.4-0.7 0.1 0 0.3-0.2 0.6-0.4 0.8-1.2 0.3-0.1 1-1.6 0-0.2-0.6-0.4-0.1-0.1-0.1-0.3 0-0.3 0.4-0.4l0.3 0.1q0.4-0.2 0.7-0.2 0.4 0.2 0.5 0.2 0.1 0 0.1 0l0.4 0.1q0.3 0 0.5 0 0.4 0 0.6 0.3v0.3q0 0.1-0.6 0.3-0.6-0.2-0.8-0.2-0.2 0-0.4 0.5-0.1 0-0.4 0.8-0.5 0.1-0.5 0.6-0.2 0.3-0.5 0.5-0.1 0.3-0.4 0.5l-0.1 0.1q0.1 0.3 0.1 0.4-0.4 0.5-0.4 0.6v0.1q0 0.2 0.8 1.3 0.1 0 0.3 0.7 0.1 0.1 0.9 0.9 0.1 1 0.7 1.7 0 0.1 1.5 0.3l0.3 0.4q0 0.3-1 0.3 0 0-0.1 0 0 0.1-0.4 0.2-0.5-0.2-0.6-0.2h-0.1-0.3q0 0-0.1 0 0 0.1-0.5 0.2-0.9-0.3-0.9-0.4-0.1 0-0.1-0.2 0-0.1 0.4-0.4 0.1 0 0.5 0.1 0.2 0 0.3-0.3 0-0.1-0.3-0.7-0.2-0.2-0.3-0.6-0.6-0.4-0.6-1.2-0.1-0.2-0.6-0.5-0.1-0.5-0.4-0.5h-0.4q-0.2 0-0.3 1-0.5 0.7-0.5 0.9 0 0.1 0.1 0.4-0.1 0.2-0.1 0.4 0 0.7 0.7 0.9 0.5 0 0.6 0.7 0 0.3-0.6 0.3h-0.3q-0.2 0-0.7-0.1h-0.1q-0.7 0.2-0.8 0.2-0.1-0.1-0.2-0.1-0.1 0-1 0-0.2-0.3-0.2-0.5 0-0.3 1-0.5 0.5-0.3 0.5-1 0.1 0 0.1-0.4 0-0.3-0.1-1.1 0-0.3 0-0.5v-0.7-0.3q0.1-0.2 0.1-1.2-0.1-0.6-0.1-0.7 0-0.5 0.1-1.2l-0.1-0.5 0.1-0.3q0-0.9-0.7-0.9-1 0-1-0.3l-0.1-0.1q0-0.3 0.9-0.6z"/>
			<path id="path100" class="s3" d="m111.5 51.6q0.6 0.1 1.6 0.1h0.2q0.2 0 0.5 0 0.3 0 0.9 0.1 0.7 0 0.8 0 0.3 0.1 0.4 0.1l0.3-0.2q1 0.2 1 0.6 0.1 0 0.1 0.6-0.2 0-0.4 0-0.1 0-0.5 0l-0.7 0.2q-0.4-0.1-0.6-0.1h-0.4q-0.7 0-0.7 0.3v0.1q0.1 0.4 0.1 0.5 0 0.5 0 0.5 0 0.4 0 0.4-0.1 0.3-0.1 0.5 0.1 0.4 0.1 0.6-0.1 0.3-0.1 0.4 0 0.9 0.5 0.9 0.1 0.1 0.1 0.2-0.2 0.9-0.5 0.9v0.1 0.3q0 0.1 0.1 0.1 0.2-0.1 0.3-0.1 0 0.1 0.1 0.1v0.3q0 0.2 0.1 0.3 0 0.1 0 0.2h-0.2q-0.2-0.6-0.3-0.6-0.1 0-0.1 0.1v0.1q0 0 0 0.4 0 0.1 0 0.5 0 0.4 0 0.6v0.4h0.1q-0.1 0.1-0.1 0.1 0.2 0.1 0.3 0.1 0.3-0.2 0.8-0.3 0.8 0.1 1.6 0.6 0.4 0 0.4 0.3v0.2q0 0.2-0.2 0.4 0 0 0 0.1-0.1 0.1-0.1 0.1l-0.1-0.1v0.1q0 0 0 0-0.2 0-0.7-0.1-0.2 0.2-0.4 0.2-0.1 0-0.5-0.2-0.3 0.1-0.3 0.2l-0.1-0.1h-0.7q-0.1 0-0.2 0.1-0.3-0.2-1.5-0.3-0.4 0.2-0.5 0.2-0.2-0.2-0.4-0.2-0.4 0-0.8 0.3-0.9 0-0.9-0.6v-0.1q0-0.3 0.3-0.6 0-0.4 0.3-0.4l0.5 0.2q0.6-0.2 1.3-0.2h0.5q0 0 0.1-0.1 0-0.4 0-0.5 0-0.6 0.1-0.7h-0.1v-0.1-0.3q0.1-0.2 0.1-1.1 0.1 0 0.1-0.2-0.2-0.5-0.3-0.7 0.2-0.4 0.2-0.5v-0.1l-0.1-0.3q0.1-1.2 0.3-2.8v-0.2q0-0.2-0.4-0.3-0.5-0.4-1.2-0.4-0.5 0.2-0.6 0.2h-0.1q-0.4-0.1-0.6-0.1 0 0 0 0.1l-0.2-0.1 0.2-1q0.2-0.3 1.3-0.3zm2.9 4.6h0.1q0 0.2 0.1 0.5l-0.1 0.1h-0.1q0 0-0.1-0.1 0-0.5 0.1-0.5zm0.3 3.8q0.1 0 0.2 0.4 0 0.2-0.1 0.2-0.2-0.1-0.2-0.3v-0.1z"/>
			<path id="path102" class="s4" d="m111.5 51.6q0.6 0.1 1.6 0.1h0.2q0.2 0 0.5 0 0.3 0 0.9 0.1 0.7 0 0.8 0 0.3 0.1 0.4 0.1l0.3-0.2q1 0.2 1 0.6 0.1 0 0.1 0.6-0.2 0-0.4 0-0.1 0-0.5 0l-0.7 0.2q-0.4-0.1-0.6-0.1h-0.4q-0.7 0-0.7 0.3v0.1q0.1 0.4 0.1 0.5 0 0.5 0 0.5 0 0.4 0 0.4-0.1 0.3-0.1 0.5 0.1 0.4 0.1 0.6-0.1 0.3-0.1 0.4 0 0.9 0.5 0.9 0.1 0.1 0.1 0.2-0.2 0.9-0.5 0.9v0.1 0.3q0 0.1 0.1 0.1 0.2-0.1 0.3-0.1 0 0.1 0.1 0.1v0.3q0 0.2 0.1 0.3 0 0.1 0 0.2h-0.2q-0.2-0.6-0.3-0.6-0.1 0-0.1 0.1v0.1q0 0 0 0.4 0 0.1 0 0.5 0 0.4 0 0.6v0.4h0.1q-0.1 0.1-0.1 0.1 0.2 0.1 0.3 0.1 0.3-0.2 0.8-0.3 0.8 0.1 1.6 0.6 0.4 0 0.4 0.3v0.2q0 0.2-0.2 0.4 0 0 0 0.1-0.1 0.1-0.1 0.1l-0.1-0.1v0.1q0 0 0 0-0.2 0-0.7-0.1-0.2 0.2-0.4 0.2-0.1 0-0.5-0.2-0.3 0.1-0.3 0.2l-0.1-0.1h-0.7q-0.1 0-0.2 0.1-0.3-0.2-1.5-0.3-0.4 0.2-0.5 0.2-0.2-0.2-0.4-0.2-0.4 0-0.8 0.3-0.9 0-0.9-0.6v-0.1q0-0.3 0.3-0.6 0-0.4 0.3-0.4l0.5 0.2q0.6-0.2 1.3-0.2h0.5q0 0 0.1-0.1 0-0.4 0-0.5 0-0.6 0.1-0.7h-0.1v-0.1-0.3q0.1-0.2 0.1-1.1 0.1 0 0.1-0.2-0.2-0.5-0.3-0.7 0.2-0.4 0.2-0.5v-0.1l-0.1-0.3q0.1-1.2 0.3-2.8v-0.2q0-0.2-0.4-0.3-0.5-0.4-1.2-0.4-0.5 0.2-0.6 0.2h-0.1q-0.4-0.1-0.6-0.1 0 0 0 0.1l-0.2-0.1 0.2-1q0.2-0.3 1.3-0.3zm2.9 4.6h0.1q0 0.2 0.1 0.5l-0.1 0.1h-0.1q0 0-0.1-0.1 0-0.5 0.1-0.5zm0.3 3.8q0.1 0 0.2 0.4 0 0.2-0.1 0.2-0.2-0.1-0.2-0.3v-0.1z"/>
		</g>
	</g>
</svg>
