<svg xmlns="http://www.w3.org/2000/svg" viewBox="0 0 175 66"><title>Unsung Ltd</title><style>.s0{fill:#100f0d}.s1,.s2{fill:none;stroke:#211d1d;stroke-miterlimit:10;stroke-width:.4}.s2{stroke-width:.9}.s3{fill:#6acedb}.s4{fill:none;stroke:#6acedb;stroke-miterlimit:10;stroke-width:.8}</style><g id="g8"><g id="g10"><path id="path12" d="M16.8 37h.8q1.5.3 4.5.4 1.7-.3 2.3-.3 3.6 0 3.6.8.4 0 .6 2.3-.8 1.7-1.9 1.7-.6-.5-2.8-.8h-.2q-.6 0-1.5.8h-.3q-.8-.5-1.3-.5h-.4q-1.6 0-2.9.3 0-.2-.5-.5h-.5l-.4.2h-.4q-.7-.5-1.1-.5l-1.1.2q-.2-.2-.4-.2-.8.4-.8.5-1.2-.5-2.3-.5h-.3v.2l.1.8h-.1q-.5-.7-1.1-.7l-.2.1q-1.7-.5-2.6-.5t-1.7 1.1q-.2 0-.2-.2.1-.3.1-.4-.1-.5-.6-.5-.3 0-.9 1h-.2q-.3 0-.6-2.1 0-2.3 1.2-2.3.5 0 1.1-.3 3.2.2 5.4.2H11q.1 0 .1-.2.2.2.4.2.7 0 1.8.1.6 0 3.5-.4" class="s0"/><path id="path14" d="M16.8 37h.8q1.5.3 4.5.4 1.7-.3 2.3-.3 3.6 0 3.6.8.4 0 .6 2.3-.8 1.7-1.9 1.7-.6-.5-2.8-.8h-.2q-.6 0-1.5.8h-.3q-.8-.5-1.3-.5h-.4q-1.6 0-2.9.3 0-.2-.5-.5h-.5l-.4.2h-.4q-.7-.5-1.1-.5l-1.1.2q-.2-.2-.4-.2-.8.4-.8.5-1.2-.5-2.3-.5h-.3v.2l.1.8h-.1q-.5-.7-1.1-.7l-.2.1q-1.7-.5-2.6-.5t-1.7 1.1q-.2 0-.2-.2.1-.3.1-.4-.1-.5-.6-.5-.3 0-.9 1h-.2q-.3 0-.6-2.1 0-2.3 1.2-2.3.5 0 1.1-.3 3.2.2 5.4.2H11q.1 0 .1-.2.2.2.4.2.7 0 1.8.1.6 0 3.5-.4z" class="s1"/><path id="path16" d="M19.1.2q.9.3 1.7.3h.4q1.1 0 3-.1.4.3 2.8.4 1.9 1.7 1.9 2.5-.1.2-.6.7-1.4-.6-1.7-.6h-.4q0 .6-.6 1.9l-.3-.1q0 .1.1.1l-.1.9q0 .8.1 3-.2.7-.5 1l-.7-.1h-.6v.1q0 .7 1.1 1.3.3.8.3 1.6h-.7q-.1 0-.1-.1-.7 0-.7 1.3.3 0 .3.3.5-.3.8-.3l.1.3v.4q0 .8-.1 2 .8 1.9.8 2.2v.2q0 .9-.9 1.8-.9 1.9-.9 2.5.2 2.2.2 3 0 .4-.3 1.2.7 1.2.7 1.5v.8q0 1.2-2.6 2.3-.2.4-2.1 1 0 .2-.7.4-1.2-.1-2-.1l-.8.1q-.7-.3-1.5-.3-1.4.6-1.9.6h-.9q-3-.7-3-1.8-.2-.4-2.2-1.1-1-.6-1-2.1-.7-1.5-.7-4.1.1-.3.1-.4 0-.8-.1-1.3l.3-8.7q-.2-.6-.2-2.6v-.2q0-.1-.4-1.4.6-1.8.6-2.3-.3-1-.5-3.3-.7-.8-2-.9l-.7.1Q.6 3.7.4 2.8.4 1.5 2.2.5l.7.2h.2Q4.8.7 4.8.4q3.5.4 6.9.6v.3l.3-.2q.7.4 1.4 1.5V3q0 .2-.8.7-1-.1-1.6-.1-.9 1-2.6 1.6l-.1.7V6l.1.9q-.2.6-.2 1l.1 1q0 .2-.1.5.1 1.2.1 1.5 0 2-.3 5.5.3 1 .3 1.8-.3.9-.3 1.3l.4 1.6-.1 1.3q.1.2.1.4h1l-.1.3.3-.2h.1v.5q-.1.4-.8.4h-.5l-.1.6q0 1.4 1.1 2.4.2 0 1.5 2.5 1.7.7 1.7.9.2-.2.4-.2.3 0 2.1 1.2h.3q.3-.1.4-.1v-.9q-.5 0-.8-.6v-.2q0-.5 1.7-.9.1 0 .9.8h.2q.6 0 1.1-.8 1.7-1.1 1.7-3 0-.9-.1-2.8.4-1.5.4-2.1-.2-1.1-.4-1.1.3-1.2.3-2.5v-1.3q0-1.1-.2-3 .5-.8.5-1.2-.3-1.4-.5-3.4.2-.6.2-1.2 0-2.2-2.2-2.2-.4 0-1.2-1.4-1.6 0-1.6-2 .8-.4 3.3-1.1m6.1 24.9q.4.1.5.7-.1.7-.4.7h-.1q-.5-.1-.5-.8.3-.6.5-.6" class="s0"/><path id="path18" d="M19.1.2q.9.3 1.7.3h.4q1.1 0 3-.1.4.3 2.8.4 1.9 1.7 1.9 2.5-.1.2-.6.7-1.4-.6-1.7-.6h-.4q0 .6-.6 1.9l-.3-.1q0 .1.1.1l-.1.9q0 .8.1 3-.2.7-.5 1l-.7-.1h-.6v.1q0 .7 1.1 1.3.3.8.3 1.6h-.7q-.1 0-.1-.1-.7 0-.7 1.3.3 0 .3.3.5-.3.8-.3l.1.3v.4q0 .8-.1 2 .8 1.9.8 2.2v.2q0 .9-.9 1.8-.9 1.9-.9 2.5.2 2.2.2 3 0 .4-.3 1.2.7 1.2.7 1.5v.8q0 1.2-2.6 2.3-.2.4-2.1 1 0 .2-.7.4-1.2-.1-2-.1l-.8.1q-.7-.3-1.5-.3-1.4.6-1.9.6h-.9q-3-.7-3-1.8-.2-.4-2.2-1.1-1-.6-1-2.1-.7-1.5-.7-4.1.1-.3.1-.4 0-.8-.1-1.3l.3-8.7q-.2-.6-.2-2.6v-.2q0-.1-.4-1.4.6-1.8.6-2.3-.3-1-.5-3.3-.7-.8-2-.9l-.7.1Q.6 3.7.4 2.8.4 1.5 2.2.5l.7.2h.2Q4.8.7 4.8.4q3.5.4 6.9.6v.3l.3-.2q.7.4 1.4 1.5V3q0 .2-.8.7-1-.1-1.6-.1-.9 1-2.6 1.6l-.1.7V6l.1.9q-.2.6-.2 1l.1 1q0 .2-.1.5.1 1.2.1 1.5 0 2-.3 5.5.3 1 .3 1.8-.3.9-.3 1.3l.4 1.6-.1 1.3q.1.2.1.4h1l-.1.3.3-.2h.1v.5q-.1.4-.8.4h-.5l-.1.6q0 1.4 1.1 2.4.2 0 1.5 2.5 1.7.7 1.7.9.2-.2.4-.2.3 0 2.1 1.2h.3q.3-.1.4-.1v-.9q-.5 0-.8-.6v-.2q0-.5 1.7-.9.1 0 .9.8h.2q.6 0 1.1-.8 1.7-1.1 1.7-3 0-.9-.1-2.8.4-1.5.4-2.1-.2-1.1-.4-1.1.3-1.2.3-2.5v-1.3q0-1.1-.2-3 .5-.8.5-1.2-.3-1.4-.5-3.4.2-.6.2-1.2 0-2.2-2.2-2.2-.4 0-1.2-1.4-1.6 0-1.6-2 .8-.4 3.3-1.1zm6.1 24.9q.4.1.5.7-.1.7-.4.7h-.1q-.5-.1-.5-.8.3-.6.5-.6z" class="s1"/><path id="path20" d="M64.4 13.6h.2q.4.1.4.8v.3q0 .2-.7.7l-.3-.1q.1-1.7.4-1.7M47.6 9q.9.3 3 .5 1.8 1.1 1.8 2.8.2 0 1.3 2.4.4.1.4.8 0 .3-.5 1.3.2 1.3.7 1.3v.4q-.7 1.5-.7 3.7 0 1.8-.2 4.4l.3.2h.4l-.4.8q.6 0 1 .9 1.2-.3 1.2.1t2.2 1.8q1 .9 1 1v.2q-1.1 1.5-3.2 1.5 0 .2-.2.2-.8-.2-1.3-.2l-.7.2q-.9-.8-1.4-.8h-.7q-.1 0-.9.9l-1.5-.6-.7.2q-1-.5-1.6-.5h-.4q-.2 0-.2.2-.4-.3-.7-.3v-.3q0-2.5 1.3-2.5.6-.7 2-1.1 1.4-1.6 1.4-4.2 0-1.5.3-3.1 0-1.3-1.1-3.1.3-.9.3-1.1-.5-1.8-1-3-.6 0-1.9-1-.1 0-.4-.1-1.8 1.4-3 1.8-2.2 2-2.2 2.8 0 1.1-1.2 1.6l-.3-.1.2.2q-1 1.4-1 3v.4l.1 1H39l.4 1.2q.2-.2-1.1 0v-.9q0-.2.5-.4.2 0 .5.6v1q.3 1 .3 1.1-.3.9-.3 1.3 1.8 1.2 3.9 2.4l.4.7q-.4 2.2-1.6 2.2l-1-.1q-1.2.6-1.6.6-1.6-.6-2.1-.6-2.5.3-3 .6-2.7 0-3.4-1.5v-.4q0-.4 1.3-2.7 1.4.3 1.5.3 1.2-.5 1.7-1.4v-1.1q0-.2-.1-.2.4-1.8.4-2.5v-5q0-.3-.1-.5.3-.9.4-1.9l-.3-1.3.4-1.7q-.3-.9-.8-1.1h-.2q-.6 0-1.1.7-.2.1-.5.1-2.7-1.3-2.7-1.7v-.5q0-1 2.9-1.1 1.1.1 1.4.2.1-.2.3-.2h.2q2.8.5 2.8 1.8.5 1.7 1 1.7l1-.4q0 .1.1.1v-.1q-.1 0-.1-.2.2 0 1.8-1.7 2.9-1.7 3.1-1.7 1.1 0 2.3-.3m9.9 15.1q.5.2.5.4-.1.4-.8.4-.3 0-.3-.3v-.1q0-.2.6-.4" class="s0"/><path id="path22" d="M64.4 13.6h.2q.4.1.4.8v.3q0 .2-.7.7l-.3-.1q.1-1.7.4-1.7zM47.6 9q.9.3 3 .5 1.8 1.1 1.8 2.8.2 0 1.3 2.4.4.1.4.8 0 .3-.5 1.3.2 1.3.7 1.3v.4q-.7 1.5-.7 3.7 0 1.8-.2 4.4l.3.2h.4l-.4.8q.6 0 1 .9 1.2-.3 1.2.1t2.2 1.8q1 .9 1 1v.2q-1.1 1.5-3.2 1.5 0 .2-.2.2-.8-.2-1.3-.2l-.7.2q-.9-.8-1.4-.8h-.7q-.1 0-.9.9l-1.5-.6-.7.2q-1-.5-1.6-.5h-.4q-.2 0-.2.2-.4-.3-.7-.3v-.3q0-2.5 1.3-2.5.6-.7 2-1.1 1.4-1.6 1.4-4.2 0-1.5.3-3.1 0-1.3-1.1-3.1.3-.9.3-1.1-.5-1.8-1-3-.6 0-1.9-1-.1 0-.4-.1-1.8 1.4-3 1.8-2.2 2-2.2 2.8 0 1.1-1.2 1.6l-.3-.1.2.2q-1 1.4-1 3v.4l.1 1H39l.4 1.2q.2-.2-1.1 0v-.9q0-.2.5-.4.2 0 .5.6v1q.3 1 .3 1.1-.3.9-.3 1.3 1.8 1.2 3.9 2.4l.4.7q-.4 2.2-1.6 2.2l-1-.1q-1.2.6-1.6.6-1.6-.6-2.1-.6-2.5.3-3 .6-2.7 0-3.4-1.5v-.4q0-.4 1.3-2.7 1.4.3 1.5.3 1.2-.5 1.7-1.4v-1.1q0-.2-.1-.2.4-1.8.4-2.5v-5q0-.3-.1-.5.3-.9.4-1.9l-.3-1.3.4-1.7q-.3-.9-.8-1.1h-.2q-.6 0-1.1.7-.2.1-.5.1-2.7-1.3-2.7-1.7v-.5q0-1 2.9-1.1 1.1.1 1.4.2.1-.2.3-.2h.2q2.8.5 2.8 1.8.5 1.7 1 1.7l1-.4q0 .1.1.1v-.1q-.1 0-.1-.2.2 0 1.8-1.7 2.9-1.7 3.1-1.7 1.1 0 2.3-.3zm9.9 15.1q.5.2.5.4-.1.4-.8.4-.3 0-.3-.3v-.1q0-.2.6-.4z" class="s1"/><path id="path24" d="m70.2 9.3 1.2.2q1.8-.2 1.9-.2 3.7.7 5.4 2-.2 0-.2.2.2 0 .2-.2l.7.2q.2 0 1-1l.8-.2q1.1.1 1.1 1.2l-.2 1.1q.1 1.3.1 2.2l-.3 1.1q.2 1.4.2 2.3-.7.5-2.3.5-.5-1.7-1-2.4.2 0 .2-.2h-.2q0 .2-.1.2-1.1-2.5-3.9-2.5v-.1l.5-.8v-.5H75l-.9.1q-.9-.5-1.1-.5-2.5 1.2-2.7 1.2l-2.3-.4q-1.4.8-1.4 3.9 0 1.1 2.3 1.9 0 .1.4.3.8-.2 1.3-.2 0 .2.4.5h.7l.7-.6h.5q.6 1 3.1 1 .3 0 1.1-.1 1.1.7 1.4 1 1.7 0 2.3 1.1 2.5 1.8 2.5 4.8v.6q0 .3-.7 2.3 0 1.1-2.4 2.2-.6.7-1.9.7 0 .3-3 .9-.2.6-.7.9h-.3q-.8 0-2.3-.9-.6-.3-1-.3-.3 0-1.1.6-.8-.5-2.6-.7-.1-.5-1.1-.5h-.3q-1 1.3-1.1 1.3-2.1-.3-2.1-1.1-.3-1-.3-1.3l.4-1.5v-.9q0-1.4-.4-1.8l.1-.8v-1.8q0-1.1 1.2-1.1 1.5 0 3.3 5.1 3.6 2.4 4.9 2.4.4 0 .7-.1.8.1 1.2.1 1.5 0 3.5-1.1 1 0 1.8-1.4.9-.3.9-1.2v-1.3q0-.8-1-1.3h-.7l-.6.4-.3-.1v.1q.1 0 .1.2h-.2q-.3 0-.6-1.5h-.6q-.1 0-1.1.3h-.2q-1.3-.2-2.6-1.7h-.3q-.8.9-1.3 1-.7 0-2.3-1.2-1.7 0-1.7-.9-2.7-1.4-2.7-2.1 0-.5-.4-1.3.2 0 .2-.2-.4 0-.5-1 0-3.9 1.2-3.9 1-2 2.8-2 .7-.4 2.8-1 0-.2.2-.2m7.9 7.9h.4v.2q0 .3-.2.3h-.2q-.3 0-.3-.3.1-.2.3-.2" class="s0"/><path id="path26" d="m70.2 9.3 1.2.2q1.8-.2 1.9-.2 3.7.7 5.4 2-.2 0-.2.2.2 0 .2-.2l.7.2q.2 0 1-1l.8-.2q1.1.1 1.1 1.2l-.2 1.1q.1 1.3.1 2.2l-.3 1.1q.2 1.4.2 2.3-.7.5-2.3.5-.5-1.7-1-2.4.2 0 .2-.2h-.2q0 .2-.1.2-1.1-2.5-3.9-2.5v-.1l.5-.8v-.5H75l-.9.1q-.9-.5-1.1-.5-2.5 1.2-2.7 1.2l-2.3-.4q-1.4.8-1.4 3.9 0 1.1 2.3 1.9 0 .1.4.3.8-.2 1.3-.2 0 .2.4.5h.7l.7-.6h.5q.6 1 3.1 1 .3 0 1.1-.1 1.1.7 1.4 1 1.7 0 2.3 1.1 2.5 1.8 2.5 4.8v.6q0 .3-.7 2.3 0 1.1-2.4 2.2-.6.7-1.9.7 0 .3-3 .9-.2.6-.7.9h-.3q-.8 0-2.3-.9-.6-.3-1-.3-.3 0-1.1.6-.8-.5-2.6-.7-.1-.5-1.1-.5h-.3q-1 1.3-1.1 1.3-2.1-.3-2.1-1.1-.3-1-.3-1.3l.4-1.5v-.9q0-1.4-.4-1.8l.1-.8v-1.8q0-1.1 1.2-1.1 1.5 0 3.3 5.1 3.6 2.4 4.9 2.4.4 0 .7-.1.8.1 1.2.1 1.5 0 3.5-1.1 1 0 1.8-1.4.9-.3.9-1.2v-1.3q0-.8-1-1.3h-.7l-.6.4-.3-.1v.1q.1 0 .1.2h-.2q-.3 0-.6-1.5h-.6q-.1 0-1.1.3h-.2q-1.3-.2-2.6-1.7h-.3q-.8.9-1.3 1-.7 0-2.3-1.2-1.7 0-1.7-.9-2.7-1.4-2.7-2.1 0-.5-.4-1.3.2 0 .2-.2-.4 0-.5-1 0-3.9 1.2-3.9 1-2 2.8-2 .7-.4 2.8-1 0-.2.2-.2zm7.9 7.9h.4v.2q0 .3-.2.3h-.2q-.3 0-.3-.3.1-.2.3-.2z" class="s1"/><path id="path28" d="M105.2 9.1q3.9.3 3.9 2.1.4 1.2.4 1.7v.3q0 .1-.4 1.4v1.6q0 .5.4 1.6l-.1 1.3.1 1q-.1 1.1-.1 1.2.1 1 .1 1.6-.4 1.2-.4 4.4v2.2q.2.7 1.3.7h.8l1-.1q1 .8 1 1.1l.3-.1.7.9v.7l-.3-.2.1.3v.2q0 .2-.5.6-.4 0-1.2-.5l-.7.5h-.4q-.8-.8-1-.8l-2 .2q-1.8 0-4.1-1.8h-.4q-.9 0-2.1 1.5-1.1 0-1.9.4-.2-.1-.5-.1H99l-.5.4h-.3l-.6-.4h-1.7q-3.1-.4-3.1-.9.1 0 .1-.1l-.3.1q-2.2-2.8-2.2-3.5v-.4q0-.4.4-2.8-.3-1-.3-1.7V14q0-1.6-3-1.9-.7 0-1.5-1.3.6-1.3 1.4-1.3 2 .2 3.4.2h2q1.5 1.4 1.5 4.2.2 0 .2.1-.5 1.3-.6 3 .3 1.3.3 1.4 0 .4-.3 4.5.2 1.3.2 1.6 0 .1-.2.6.8 5 2.4 5 .6 0 1.6-.2l.8.2 1.2-.6q0 .2.1.2v-.2q-.1 0-.1-.2 2.2-1.8 3.2-4 1.9-1.9 1.9-3.3v-.8l-.2-.9q.6-1.9.6-2.5 0-.2-.2-1.4l.5-2q-1.4-1-1.6-1.5-1.8.5-2.1.5-.7 0-1.7-2.4 0-1.8 3.7-1.8.7 0 1.2-.1" class="s0"/><path id="path30" d="M105.2 9.1q3.9.3 3.9 2.1.4 1.2.4 1.7v.3q0 .1-.4 1.4v1.6q0 .5.4 1.6l-.1 1.3.1 1q-.1 1.1-.1 1.2.1 1 .1 1.6-.4 1.2-.4 4.4v2.2q.2.7 1.3.7h.8l1-.1q1 .8 1 1.1l.3-.1.7.9v.7l-.3-.2.1.3v.2q0 .2-.5.6-.4 0-1.2-.5l-.7.5h-.4q-.8-.8-1-.8l-2 .2q-1.8 0-4.1-1.8h-.4q-.9 0-2.1 1.5-1.1 0-1.9.4-.2-.1-.5-.1H99l-.5.4h-.3l-.6-.4h-1.7q-3.1-.4-3.1-.9.1 0 .1-.1l-.3.1q-2.2-2.8-2.2-3.5v-.4q0-.4.4-2.8-.3-1-.3-1.7V14q0-1.6-3-1.9-.7 0-1.5-1.3.6-1.3 1.4-1.3 2 .2 3.4.2h2q1.5 1.4 1.5 4.2.2 0 .2.1-.5 1.3-.6 3 .3 1.3.3 1.4 0 .4-.3 4.5.2 1.3.2 1.6 0 .1-.2.6.8 5 2.4 5 .6 0 1.6-.2l.8.2 1.2-.6q0 .2.1.2v-.2q-.1 0-.1-.2 2.2-1.8 3.2-4 1.9-1.9 1.9-3.3v-.8l-.2-.9q.6-1.9.6-2.5 0-.2-.2-1.4l.5-2q-1.4-1-1.6-1.5-1.8.5-2.1.5-.7 0-1.7-2.4 0-1.8 3.7-1.8.7 0 1.2-.1z" class="s1"/><path id="path32" d="M150.3 13.6h.2q.4.1.4.8v.3q0 .2-.7.7l-.3-.1q.1-1.7.4-1.7M133.5 9q.9.3 3 .5 1.8 1.1 1.8 2.8.2 0 1.3 2.4.4.1.4.8 0 .3-.5 1.3.2 1.3.7 1.3v.4q-.7 1.5-.7 3.7 0 1.8-.2 4.4l.3.2h.4l-.4.8q.6 0 1 .9 1.2-.3 1.2.1t2.2 1.8q1 .9 1 1v.2q-1.1 1.5-3.2 1.5 0 .2-.2.2-.8-.2-1.3-.2l-.7.2q-.9-.8-1.4-.8h-.7q-.1 0-.9.9l-1.5-.6-.7.2q-1-.5-1.6-.5h-.4q-.2 0-.2.2-.4-.3-.7-.3v-.3q0-2.5 1.3-2.5.6-.7 2-1.1 1.4-1.6 1.4-4.2 0-1.5.3-3.1 0-1.3-1.1-3.1.3-.9.3-1.1-.5-1.8-1-3-.6 0-1.9-1-.1 0-.4-.1-1.8 1.4-3 1.8-2.2 2-2.2 2.8 0 1.1-1.2 1.6l-.3-.1.2.2q-1 1.4-1 3v.4l.1 1h-.1l.4 1.2q.2-.2-1.1 0v-.9q0-.2.5-.4.2 0 .5.6v1q.3 1 .3 1.1-.3.9-.3 1.3 1.8 1.2 3.9 2.4l.5.7q-.5 2.2-1.7 2.2l-1-.1q-1.2.6-1.6.6-1.6-.6-2.1-.6-2.5.3-3 .6-2.7 0-3.4-1.5v-.4q0-.4 1.3-2.7 1.4.3 1.5.3 1.2-.5 1.7-1.4v-1.1q0-.2-.1-.2.4-1.8.4-2.5v-5q0-.3-.1-.5.3-.9.4-1.9l-.3-1.3.4-1.7q-.3-.9-.8-1.1h-.2q-.6 0-1.1.7-.2.1-.5.1-2.7-1.3-2.7-1.7v-.5q0-1 2.9-1.1 1.1.1 1.4.2.1-.2.3-.2h.2q2.8.5 2.8 1.8.5 1.7 1 1.7l1-.4q0 .1.1.1v-.1q-.1 0-.1-.2.2 0 1.8-1.7 2.9-1.7 3.1-1.7 1.1 0 2.3-.3m9.9 15.1q.5.2.5.4-.1.4-.8.4-.3 0-.3-.3v-.1q0-.2.6-.4" class="s0"/><path id="path34" d="M150.3 13.6h.2q.4.1.4.8v.3q0 .2-.7.7l-.3-.1q.1-1.7.4-1.7zM133.5 9q.9.3 3 .5 1.8 1.1 1.8 2.8.2 0 1.3 2.4.4.1.4.8 0 .3-.5 1.3.2 1.3.7 1.3v.4q-.7 1.5-.7 3.7 0 1.8-.2 4.4l.3.2h.4l-.4.8q.6 0 1 .9 1.2-.3 1.2.1t2.2 1.8q1 .9 1 1v.2q-1.1 1.5-3.2 1.5 0 .2-.2.2-.8-.2-1.3-.2l-.7.2q-.9-.8-1.4-.8h-.7q-.1 0-.9.9l-1.5-.6-.7.2q-1-.5-1.6-.5h-.4q-.2 0-.2.2-.4-.3-.7-.3v-.3q0-2.5 1.3-2.5.6-.7 2-1.1 1.4-1.6 1.4-4.2 0-1.5.3-3.1 0-1.3-1.1-3.1.3-.9.3-1.1-.5-1.8-1-3-.6 0-1.9-1-.1 0-.4-.1-1.8 1.4-3 1.8-2.2 2-2.2 2.8 0 1.1-1.2 1.6l-.3-.1.2.2q-1 1.4-1 3v.4l.1 1h-.1l.4 1.2q.2-.2-1.1 0v-.9q0-.2.5-.4.2 0 .5.6v1q.3 1 .3 1.1-.3.9-.3 1.3 1.8 1.2 3.9 2.4l.5.7q-.5 2.2-1.7 2.2l-1-.1q-1.2.6-1.6.6-1.6-.6-2.1-.6-2.5.3-3 .6-2.7 0-3.4-1.5v-.4q0-.4 1.3-2.7 1.4.3 1.5.3 1.2-.5 1.7-1.4v-1.1q0-.2-.1-.2.4-1.8.4-2.5v-5q0-.3-.1-.5.3-.9.4-1.9l-.3-1.3.4-1.7q-.3-.9-.8-1.1h-.2q-.6 0-1.1.7-.2.1-.5.1-2.7-1.3-2.7-1.7v-.5q0-1 2.9-1.1 1.1.1 1.4.2.1-.2.3-.2h.2q2.8.5 2.8 1.8.5 1.7 1 1.7l1-.4q0 .1.1.1v-.1q-.1 0-.1-.2.2 0 1.8-1.7 2.9-1.7 3.1-1.7 1.1 0 2.3-.3zm9.9 15.1q.5.2.5.4-.1.4-.8.4-.3 0-.3-.3v-.1q0-.2.6-.4z" class="s1"/><path id="path36" d="M159.1 9q1.4 0 5.1 1.3v.1q-.1 0-.1.1.1 0 .1-.1l1 .1h.1q3.3-1.4 3.9-1.4h1.7q1.3 0 2.5 2.3.3 1.8.3 2.4-1.7.1-1.7 1.1h-.6l-1.4-1.3q-.8-.6-.8-.8-1.3.4-1.3 2.5 0 .7-.2 1.9l.2.7q-.5 4.4-1.6 4.4 0 .2-2.2.8-1.8 2-2.2 2-.2 0-1.2-.2l-1.9.2q-1.9-1.1-2.5-1.1-1.6-.9-1.9-.9-.7.5-1 .5 0-.2-.1-.2v.2q.1 0 .1.1-.6 0-1.8 1.6v.3q0 1 1 2.2-.2 0-.2.2.3 0 .9.8.1.1 1.7.3l3.4-1.4 3.7.3q.5-.3 1.1-.3 5.7 1.2 5.7 2 1.5.5 2.4 1.9l-.2.3h.2q0-.1.1-.1.9.7.9 4 0 .9-.6.9l.1.3q-.5 1.6-1.5 2.3-.5 0-2.4 1.1-1.6 0-2 1-.3.2-.4.2-.8-.5-1.2-.5 0 .3-3.9.5v.1q-5.3-.2-5.3-.6l-.3.2q-.3-.4-3.8-.7-.7-.7-1.6-2-1.1-.8-1.1-1.7.2 0 .2-.2-.5 0-.5-1.4v-.5q0-1.4 1.3-3.6.6-.7.6-1.3-1.4-1.6-1.4-3.1.3-3.7 1.2-3.8l2.2-2.4v-.3q0-.7-.7-2.1 0-2.2 1.4-5.4 0-.4 1.1-1.4 0-.8 2.1-1.3 0-.7 2.7-.8 0-.1.6-.3m2 21.9q-1.2-.1-1.9-.1v.1q-.9-.4-1.5-.4h-.2q-.4 0-.8.3l-2.3-.2q-.9 0-1.8 1.5-.7 1.3-1.7 2.5v.3q0 .1.1.9-.1 0-.1.1 1.8 2.1 3.5 2.1 0 .6 2.7 1.3v.1q.1 0 .1-.1.6.3 1.2.3 7.5-.6 7.5-1.2 3.4-1 3.4-1.8 0-.6 1.1-1.8.3-.5.3-.7 0-.7-2.3-1-1.5-2.2-3.9-2.2-1.2-.5-1.6-.5h-.4q-.4 0-1.4.5m-6.8-14.5v1.2q0 2 3.1 4.1 1.5.4 2.8.4 2.3-.3 2.6-.5 0-.2 1.8-1.9l.2-.9v-2.9q0-.7-1.2-1.8 0-1.9-1.5-1.9-.9-.4-1.4-1h-.5q-1.9.3-2.8 1.2-1.6.8-2.3 2.5l-.7.9q-.1.2-.1.6" class="s0"/><path id="path38" d="M159.1 9q1.4 0 5.1 1.3v.1q-.1 0-.1.1.1 0 .1-.1l1 .1h.1q3.3-1.4 3.9-1.4h1.7q1.3 0 2.5 2.3.3 1.8.3 2.4-1.7.1-1.7 1.1h-.6l-1.4-1.3q-.8-.6-.8-.8-1.3.4-1.3 2.5 0 .7-.2 1.9l.2.7q-.5 4.4-1.6 4.4 0 .2-2.2.8-1.8 2-2.2 2-.2 0-1.2-.2l-1.9.2q-1.9-1.1-2.5-1.1-1.6-.9-1.9-.9-.7.5-1 .5 0-.2-.1-.2v.2q.1 0 .1.1-.6 0-1.8 1.6v.3q0 1 1 2.2-.2 0-.2.2.3 0 .9.8.1.1 1.7.3l3.4-1.4 3.7.3q.5-.3 1.1-.3 5.7 1.2 5.7 2 1.5.5 2.4 1.9l-.2.3h.2q0-.1.1-.1.9.7.9 4 0 .9-.6.9l.1.3q-.5 1.6-1.5 2.3-.5 0-2.4 1.1-1.6 0-2 1-.3.2-.4.2-.8-.5-1.2-.5 0 .3-3.9.5v.1q-5.3-.2-5.3-.6l-.3.2q-.3-.4-3.8-.7-.7-.7-1.6-2-1.1-.8-1.1-1.7.2 0 .2-.2-.5 0-.5-1.4v-.5q0-1.4 1.3-3.6.6-.7.6-1.3-1.4-1.6-1.4-3.1.3-3.7 1.2-3.8l2.2-2.4v-.3q0-.7-.7-2.1 0-2.2 1.4-5.4 0-.4 1.1-1.4 0-.8 2.1-1.3 0-.7 2.7-.8 0-.1.6-.3zm2 21.9q-1.2-.1-1.9-.1v.1q-.9-.4-1.5-.4h-.2q-.4 0-.8.3l-2.3-.2q-.9 0-1.8 1.5-.7 1.3-1.7 2.5v.3q0 .1.1.9-.1 0-.1.1 1.8 2.1 3.5 2.1 0 .6 2.7 1.3v.1q.1 0 .1-.1.6.3 1.2.3 7.5-.6 7.5-1.2 3.4-1 3.4-1.8 0-.6 1.1-1.8.3-.5.3-.7 0-.7-2.3-1-1.5-2.2-3.9-2.2-1.2-.5-1.6-.5h-.4q-.4 0-1.4.5zm-6.8-14.5v1.2q0 2 3.1 4.1 1.5.4 2.8.4 2.3-.3 2.6-.5 0-.2 1.8-1.9l.2-.9v-2.9q0-.7-1.2-1.8 0-1.9-1.5-1.9-.9-.4-1.4-1h-.5q-1.9.3-2.8 1.2-1.6.8-2.3 2.5l-.7.9q-.1.2-.1.6z" class="s1"/><path id="path40" d="M132.4 47.5h1.3q.3.1.8.1h.8q.2 0 .7-.1 1.2.4 1.4.9v.1q-.1.3-.4.3h-.2q-.1 0-.2-.1l-1 .3q-.1 0-.6-.2-1.6 0-1.5.4 0 .3-.2 1.3.2.5.2 1.2l-.2.8q0 .2.2.7-.1 1.8-.1 3-.1.5-.1.6 0 .3.2 1.6l-.1.8.1 1.1-.1.4q.1 0 .3.9.2.4 1 .4h.4v.1q.5-.2.6-.3 0 .1.1.1 0-.4 1-.8.4 0 .4.2.1 0 .1-.1.4.3.7.3h.3q1.1-.3 1.1-1.1.1-1.1.1-1.2v-.4l-.2-.7.4-1.1-.1-.7q0-.3.4-.6.4 0 .7.7l-.1.3v.1q.3.9.6 2.4l-.2 1.3q.2.4.2 1.2v.8q0 .5-1.3.5l-.2.3q-1.1-.1-1.8-.4-.2 0-1 .3h-.1V63l-.1.1q-.2-.1-.3-.1-.8.2-1.3.3-.5-.2-1-.3l-.6.2q-.3-.1-.7-.4h-.2q-1.2.3-2.3.3h-1.4q-.2 0-.6.1-.2 0-.3-.6.2-1.2.9-1.2l.6.5q.3-.4 1.5-.5.4.2.6.2.4 0 .4-1.1-.2-.7-.2-1.2l.2-.5v-2q0-.2-.2-2.7.2-1.2.2-1.5v-.4q0-.3-.1-.6.1-.6.1-.9 0-.1-.3-.8l.1-.3q-.3-.8-1-.8h-.3q-.1 0-.5.5h-.1q-.3 0-.3-.2l-.8.1h-.4q-.3-.2-.3-.4 0-.5.2-.5l-.1-.1q.3-.7.7-.7.2 0 .6.1 1.3-.1 2.1-.1.2.1.2.2z" class="s0"/><path id="path42" d="M132.4 47.5h1.3q.3.1.8.1h.8q.2 0 .7-.1 1.2.4 1.4.9v.1q-.1.3-.4.3h-.2q-.1 0-.2-.1l-1 .3q-.1 0-.6-.2-1.6 0-1.5.4 0 .3-.2 1.3.2.5.2 1.2l-.2.8q0 .2.2.7-.1 1.8-.1 3-.1.5-.1.6 0 .3.2 1.6l-.1.8.1 1.1-.1.4q.1 0 .3.9.2.4 1 .4h.4v.1q.5-.2.6-.3 0 .1.1.1 0-.4 1-.8.4 0 .4.2.1 0 .1-.1.4.3.7.3h.3q1.1-.3 1.1-1.1.1-1.1.1-1.2v-.4l-.2-.7.4-1.1-.1-.7q0-.3.4-.6.4 0 .7.7l-.1.3v.1q.3.9.6 2.4l-.2 1.3q.2.4.2 1.2v.8q0 .5-1.3.5l-.2.3q-1.1-.1-1.8-.4-.2 0-1 .3h-.1V63l-.1.1q-.2-.1-.3-.1-.8.2-1.3.3-.5-.2-1-.3l-.6.2q-.3-.1-.7-.4h-.2q-1.2.3-2.3.3h-1.4q-.2 0-.6.1-.2 0-.3-.6.2-1.2.9-1.2l.6.5q.3-.4 1.5-.5.4.2.6.2.4 0 .4-1.1-.2-.7-.2-1.2l.2-.5v-2q0-.2-.2-2.7.2-1.2.2-1.5v-.4q0-.3-.1-.6.1-.6.1-.9 0-.1-.3-.8l.1-.3q-.3-.8-1-.8h-.3q-.1 0-.5.5h-.1q-.3 0-.3-.2l-.8.1h-.4q-.3-.2-.3-.4 0-.5.2-.5l-.1-.1q.3-.7.7-.7.2 0 .6.1 1.3-.1 2.1-.1.2.1.2.2z" class="s2"/><path id="path44" d="M147.5 47.4q.3 0 .6 1.1.1 1.9.1 2.2v.5q0 .6.8.6l.4.1q1.8-.1 2.2-.1 1.6.1 1.6.6v.4q0 .4-.8.9-.4-.1-.4-.3h-.2q0 .2-.5.4l-.4-.2q-1.2.4-2.3.7 0 .1-.1.1.1.7.1 1 0 .5-.3 2.4.1.5.2.5l-.1.7v.2l.1.4q-.1.1-.1.3v.1q0 .3.7.8 0 .5.6.5.5 0 1.4-.9.3-.8.5-1.6.5-.6 1.2-.6.9 0 .9 1.1v.1q-.3 1.3-.6 1.9l-1 1.3q-.9.7-1.6.7l-.5-.1q-.3.2-.5.2h-.2l-.7-.2h-.3v-.1l-.1.1q-.3-.6-1.1-1.4-.6-1.2-.6-2.4-.1 0-.2-2.9.2-.5.2-.6-.1-2.1-.4-2.1-.5-.3-.8-.3h-.6q-1.7.4-1.9.4-.5 0-.5-1.4.3-.7.6-.7l.8.1.8-.1.4.1q1.4-.4 1.7-1 0-.3-.1-1 .1-1.1.1-2v-.2q0-.3.9-.3" class="s0"/><path id="path46" d="M147.5 47.4q.3 0 .6 1.1.1 1.9.1 2.2v.5q0 .6.8.6l.4.1q1.8-.1 2.2-.1 1.6.1 1.6.6v.4q0 .4-.8.9-.4-.1-.4-.3h-.2q0 .2-.5.4l-.4-.2q-1.2.4-2.3.7 0 .1-.1.1.1.7.1 1 0 .5-.3 2.4.1.5.2.5l-.1.7v.2l.1.4q-.1.1-.1.3v.1q0 .3.7.8 0 .5.6.5.5 0 1.4-.9.3-.8.5-1.6.5-.6 1.2-.6.9 0 .9 1.1v.1q-.3 1.3-.6 1.9l-1 1.3q-.9.7-1.6.7l-.5-.1q-.3.2-.5.2h-.2l-.7-.2h-.3v-.1l-.1.1q-.3-.6-1.1-1.4-.6-1.2-.6-2.4-.1 0-.2-2.9.2-.5.2-.6-.1-2.1-.4-2.1-.5-.3-.8-.3h-.6q-1.7.4-1.9.4-.5 0-.5-1.4.3-.7.6-.7l.8.1.8-.1.4.1q1.4-.4 1.7-1 0-.3-.1-1 .1-1.1.1-2v-.2q0-.3.9-.3z" class="s2"/><path id="path48" d="M160.8 47.7q3.3.2 3.3.5l.5.6v.5q0 .3-.2 1 0 .1.1.8-.1.6-.1.8.2.6.2.8 0 1-.2 2.4.1.4.1.7 0 .1-.1.4v3q0 .5.1.8-.1.9-.1 1.3t1.3.4q.4 0 1.2.9v.1q-.3.5-.6.6l-.5-.2h-.1q-.2 0-.7.3-.1 0-.6-.2-.5.3-.7.3-.6-.2-.6-.6l.1-.2q-.4-.5-.7-.5-.9.6-1.1.9-1.5-.2-1.6-.2l-.4.4h-.4q-1.7-.2-1.7-.6-1.4-1-1.4-2 0-.1-.5-2.3.1-3.3.5-3.3 0 .1.1.1l-.1-.2q.3-1.4 1.2-2 .8-.8 1.7-.8l1.6-.4q.5.1 2.3 1 .3 0 .4-.8.1 0 .1-.5 0-.2-.1-1 .2-.5.2-.7 0-.9-2-.9-.3.2-.4.2-1.1-.2-1.1-.9 0-.3 1-.5m-.9 5.7h-.2q-.6 0-1.3.6-.4.5-.7 1.1-.7 0-.8 2.5l-.1.9q.2.5.6 2 .3.1 1.1.9.5.4.7.4.5-.2 1.9-.3 0-.2 1-.6.9-2.3.9-3.7 0-.3-.5-1.9-.2-1.3-.8-1.3-.3 0-.9-.8l-.4-.1h-.2q-.3.1-.3.3" class="s0"/><path id="path50" d="M160.8 47.7q3.3.2 3.3.5l.5.6v.5q0 .3-.2 1 0 .1.1.8-.1.6-.1.8.2.6.2.8 0 1-.2 2.4.1.4.1.7 0 .1-.1.4v3q0 .5.1.8-.1.9-.1 1.3t1.3.4q.4 0 1.2.9v.1q-.3.5-.6.6l-.5-.2h-.1q-.2 0-.7.3-.1 0-.6-.2-.5.3-.7.3-.6-.2-.6-.6l.1-.2q-.4-.5-.7-.5-.9.6-1.1.9-1.5-.2-1.6-.2l-.4.4h-.4q-1.7-.2-1.7-.6-1.4-1-1.4-2 0-.1-.5-2.3.1-3.3.5-3.3 0 .1.1.1l-.1-.2q.3-1.4 1.2-2 .8-.8 1.7-.8l1.6-.4q.5.1 2.3 1 .3 0 .4-.8.1 0 .1-.5 0-.2-.1-1 .2-.5.2-.7 0-.9-2-.9-.3.2-.4.2-1.1-.2-1.1-.9 0-.3 1-.5zm-.9 5.7h-.2q-.6 0-1.3.6-.4.5-.7 1.1-.7 0-.8 2.5l-.1.9q.2.5.6 2 .3.1 1.1.9.5.4.7.4.5-.2 1.9-.3 0-.2 1-.6.9-2.3.9-3.7 0-.3-.5-1.9-.2-1.3-.8-1.3-.3 0-.9-.8l-.4-.1h-.2q-.3.1-.3.3z" class="s2"/><path id="path52" d="M170 59.1h.3q.6 0 1.5.7.4.7.4.9 0 .1.1.6-.4 1.2-.7 1.2-.2 0-.9.7h-.2q-.9-.1-1.8-1 0-.2-.3-.9 0-.3-.1-.9 0-.6 1.3-1.2.3-.1.4-.1" class="s0"/><path id="path54" d="M170 59.1h.3q.6 0 1.5.7.4.7.4.9 0 .1.1.6-.4 1.2-.7 1.2-.2 0-.9.7h-.2q-.9-.1-1.8-1 0-.2-.3-.9 0-.3-.1-.9 0-.6 1.3-1.2.3-.1.4-.1z" class="s2"/><path id="path56" d="M4.6 51.6h.1q.2.3.3.4-.1 0-.1.1H5V52l.3.5q.1.2.2.6-.1 0-.1.1.2.1.6 1.5.1 0 .1.9.4.5.4 1.5.5.7.5 1.1v.1l-.1.1q.2 0 .4 1.5.1.1.4 1.1.2.2.7.1h.1q.7.1.7.7-.3.6-1.1.6-.2-.1-.3-.1H6q-.2 0-.2-.1h-.1q-.2-.2-.2-.4v-.3q0-.3.4-.3l.5-.1q.2 0 .1-.6v-.4q-.1-.8-1.1-.7v-.1l-.6.1q-.7-.1-1.5-.1-.4.5-.4 1.2v.2q-.3.5.7.8h.1q.3 0 .4.6 0 .2-.6.3h-.2q-.1 0-.6.1-.2-.1-.3-.1h-.2q-.6 0-1.4.1l-.4-.8q0-.5 1.3-.5.3-.3.4-.9.1 0 .1-.3v-.2l.2-.5q.1-.5.1-.6.4-1.4.5-2 .4-1.5.4-2.2.1 0 .2-.4l-.1-.3q.4-.7.4-1.3.1 0 .1-.3v-.4q.2-.1.6-.2m-1.1 6.3q.1.6.9.6.1.1.4.1.9-.1 1-.2l.1-.3V58q-.2-.4-.3-1.5-.1 0-.3-1.1-.3-.4-.4-1.2-.1 0-.2-.1-.3 0-.6 1.3-.1 1.3-.3 1.6 0 .5-.3.9" class="s3"/><path id="path58" d="M4.6 51.6h.1q.2.3.3.4-.1 0-.1.1H5V52l.3.5q.1.2.2.6-.1 0-.1.1.2.1.6 1.5.1 0 .1.9.4.5.4 1.5.5.7.5 1.1v.1l-.1.1q.2 0 .4 1.5.1.1.4 1.1.2.2.7.1h.1q.7.1.7.7-.3.6-1.1.6-.2-.1-.3-.1H6q-.2 0-.2-.1h-.1q-.2-.2-.2-.4v-.3q0-.3.4-.3l.5-.1q.2 0 .1-.6v-.4q-.1-.8-1.1-.7v-.1l-.6.1q-.7-.1-1.5-.1-.4.5-.4 1.2v.2q-.3.5.7.8h.1q.3 0 .4.6 0 .2-.6.3h-.2q-.1 0-.6.1-.2-.1-.3-.1h-.2q-.6 0-1.4.1l-.4-.8q0-.5 1.3-.5.3-.3.4-.9.1 0 .1-.3v-.2l.2-.5q.1-.5.1-.6.4-1.4.5-2 .4-1.5.4-2.2.1 0 .2-.4l-.1-.3q.4-.7.4-1.3.1 0 .1-.3v-.4q.2-.1.6-.2zm-1.1 6.3q.1.6.9.6.1.1.4.1.9-.1 1-.2l.1-.3V58q-.2-.4-.3-1.5-.1 0-.3-1.1-.3-.4-.4-1.2-.1 0-.2-.1-.3 0-.6 1.3-.1 1.3-.3 1.6 0 .5-.3.9z" class="s4"/><path id="path60" d="M19.4 58.8q.1.1.2.1v.3h-.2q-.1 0-.1-.3.1 0 .1-.1m-.4.1h.1q0 .2-.1.2h-.1V59q0-.1.1-.1m-.7-.3q.1 0 .1.2v.2h-.2l-.3-.1q-.1.2-.3.2-.1 0-.1-.2l.1-.1.3.1q.2-.3.4-.3m-5.1-6.9q.5.1.8.1h.1v.1q.4.1.4.6 0 .2-.1.4.1.4.2 1.3l-.1.3q.1.9.1 1.1-.1.4-.1.5v.4l.1 1.6q-.1.6-.1.7 0 .2.1.4-.1.6-.1 1.1v.5q.2.6.7.6.3.1.6.1h.1l.3-.2q.3.1 1.1.2.6 0 .6.8 0 .2-.3.2h-.5l-.4.2q-.4-.1-1.1-.3-.1 0-.3.1-1 0-1.2-.1H13q-1.6.1-2.1.2-.8 0-.8-.2v-.2q0-.5.6-.8.3.1.4.1 1-.2 1.4-.2h.4q.4 0 .6-.4-.1-.5-.1-.8v-.3l.1-.1q-.1 0-.2-.3.1-.3.1-.4v-.2q-.1-.4-.1-1.3V56q0-.4.1-1l-.1-.1.1-.2q-.1-.6-.1-1-.1-.6-.7-.6-.3 0-.5-.1-.3.1-.5.1-.3-.1-.4-.1h-.4q-.7 0-1.1-.6v-.1q.5-.5.9-.5l.8.1q.8-.2 1.8-.2m3.9 6.9.1.3-.2.1h-.2v-.3z" class="s3"/><path id="path62" d="M19.4 58.8q.1.1.2.1v.3h-.2q-.1 0-.1-.3.1 0 .1-.1zm-.4.1h.1q0 .2-.1.2h-.1V59q0-.1.1-.1zm-.7-.3q.1 0 .1.2v.2h-.2l-.3-.1q-.1.2-.3.2-.1 0-.1-.2l.1-.1.3.1q.2-.3.4-.3zm-5.1-6.9q.5.1.8.1h.1v.1q.4.1.4.6 0 .2-.1.4.1.4.2 1.3l-.1.3q.1.9.1 1.1-.1.4-.1.5v.4l.1 1.6q-.1.6-.1.7 0 .2.1.4-.1.6-.1 1.1v.5q.2.6.7.6.3.1.6.1h.1l.3-.2q.3.1 1.1.2.6 0 .6.8 0 .2-.3.2h-.5l-.4.2q-.4-.1-1.1-.3-.1 0-.3.1-1 0-1.2-.1H13q-1.6.1-2.1.2-.8 0-.8-.2v-.2q0-.5.6-.8.3.1.4.1 1-.2 1.4-.2h.4q.4 0 .6-.4-.1-.5-.1-.8v-.3l.1-.1q-.1 0-.2-.3.1-.3.1-.4v-.2q-.1-.4-.1-1.3V56q0-.4.1-1l-.1-.1.1-.2q-.1-.6-.1-1-.1-.6-.7-.6-.3 0-.5-.1-.3.1-.5.1-.3-.1-.4-.1h-.4q-.7 0-1.1-.6v-.1q.5-.5.9-.5l.8.1q.8-.2 1.8-.2zm3.9 6.9.1.3-.2.1h-.2v-.3z" class="s4"/><path id="path64" d="m27.9 58.8.1.1v.3h-.2l-.1-.3q.1 0 .2-.1m-.5.1h.2q0 .2-.1.2h-.2V59q0-.1.1-.1m-.7-.3h.1q.1 0 .1.2v.2h-.3l-.2-.1q-.2.2-.3.2t-.1-.2q0-.1.1-.1.2.1.3.1.2-.3.3-.3m-5-6.9q.5.1.7.1h.1v.1h.1q.3.1.3.6v.4q0 .4.1 1.3v1.4q-.1.4-.1.5l.1.2-.1.2.1 1.6v2.7q.2.6.6.6.3.1.6.1h.1q.3-.2.4-.2.2.1 1 .2.7 0 .7.8-.1.2-.3.2h-.5l-.4.2q-.5-.1-1.2-.3-.1 0-.3.1-1 0-1.1-.1h-1.2q-1.6.1-2.1.2-.7 0-.7-.2v-.2q0-.5.5-.8.4.1.5.1.9-.2 1.4-.2h.3q.4 0 .6-.4v-1.2q-.1 0-.2-.3.2-.3.2-.4v-.2q-.1-.4-.2-1.3.1-.2.1-.4-.1-.2-.1-.3.1-.4.1-.5v-2.6q-.2-.6-.8-.6-.3 0-.5-.1-.3.1-.5.1l-.3-.1h-.5q-.6 0-1-.6v-.1q.5-.5.9-.5l.7.1q.9-.2 1.9-.2m3.8 6.9.1.3-.1.1h-.2v-.3z" class="s3"/><path id="path66" d="m27.9 58.8.1.1v.3h-.2l-.1-.3q.1 0 .2-.1zm-.5.1h.2q0 .2-.1.2h-.2V59q0-.1.1-.1zm-.7-.3h.1q.1 0 .1.2v.2h-.3l-.2-.1q-.2.2-.3.2t-.1-.2q0-.1.1-.1.2.1.3.1.2-.3.3-.3zm-5-6.9q.5.1.7.1h.1v.1h.1q.3.1.3.6v.4q0 .4.1 1.3v1.4q-.1.4-.1.5l.1.2-.1.2.1 1.6v2.7q.2.6.6.6.3.1.6.1h.1q.3-.2.4-.2.2.1 1 .2.7 0 .7.8-.1.2-.3.2h-.5l-.4.2q-.5-.1-1.2-.3-.1 0-.3.1-1 0-1.1-.1h-1.2q-1.6.1-2.1.2-.7 0-.7-.2v-.2q0-.5.5-.8.4.1.5.1.9-.2 1.4-.2h.3q.4 0 .6-.4v-1.2q-.1 0-.2-.3.2-.3.2-.4v-.2q-.1-.4-.2-1.3.1-.2.1-.4-.1-.2-.1-.3.1-.4.1-.5v-2.6q-.2-.6-.8-.6-.3 0-.5-.1-.3.1-.5.1l-.3-.1h-.5q-.6 0-1-.6v-.1q.5-.5.9-.5l.7.1q.9-.2 1.9-.2zm3.8 6.9.1.3-.1.1h-.2v-.3z" class="s4"/><path id="path68" d="M37.1 51.5h.1l.1.1v.1-.1q1.3 0 1.6.8.3.2.3.3-.2.3-.2.5t.1.7q-.1.3-.1.5l.1.5q0 .3-.1.3l.1 1q0 .3-.7.7-.5 0-.6-.8 0-.1.1-.4 0-.3-.1-.3l.1-.8q0-1-.7-1.6-.2-.4-.8-.4-.4 0-.8.9 0 .1.1.4-.1.3-.1.5l.2 1.2q0 .4.1.5-.1.2-.1.4v1.1q0 .3-.1.6.1.2.1.5v.4q0 .3.1.6v.1q0 1.1.3 1.1h.4q.6.2.6.3l.1-.1h.2q.7 0 1.8 1.1v.1q-.3.3-.6.4h-.1q-.2 0-.5-.3v-.1q-.1.1-.4.1-.2-.1-.3-.1h-.1q-.1.3-.2.3t-.1-.1v-.3q-.1 0-.2-.1-.3.5-.5.5-.4-.1-1-.2-.3.1-.6.1h-.2q-.2 0-.6-.2-.4.3-.6.3h-.1q-.1 0-.5-.3-.3.2-.4.2t-.3-.3v-.3q0-.5.6-.5.5-.1.9-.1h.7q.3 0 .4-.6 0-.1-.1-.4.1-.5.1-.6v-.2h-.1l.1-.1v-3.1q.1-.7.1-.8-.1-.5-.1-.6v-.3q0-.1.2-.6-.2-1.3-.6-1.3H34q-.2 0-.6.3-1 0-1.1 1.2.2.8.2 1.4 0 .4-.4 1.3v.1h-.2q-.5 0-.5-.4.1-.2.1-.3 0-.2-.1-.6.1-.6.1-.8l-.1-.4q.1-.4.1-.5v-.2q.1-1.8.5-1.8 0-.2.5-.3.3.1.4.1t.3-.1h1.4q.3.1.4.1h.2q.1 0 .6-.2l.2.2q.4-.1.6-.1h.1q.2 0 .4-.2m-.6 7.9h.1q.1 0 .1.1v.1l-.2.2q0-.1-.1-.1v-.1q0-.1.1-.2m.1.7q0 .1.1.1v.1l-.1.1q-.1-.1-.2-.1 0-.1.2-.2" class="s3"/><path id="path70" d="M37.1 51.5h.1l.1.1v.1-.1q1.3 0 1.6.8.3.2.3.3-.2.3-.2.5t.1.7q-.1.3-.1.5l.1.5q0 .3-.1.3l.1 1q0 .3-.7.7-.5 0-.6-.8 0-.1.1-.4 0-.3-.1-.3l.1-.8q0-1-.7-1.6-.2-.4-.8-.4-.4 0-.8.9 0 .1.1.4-.1.3-.1.5l.2 1.2q0 .4.1.5-.1.2-.1.4v1.1q0 .3-.1.6.1.2.1.5v.4q0 .3.1.6v.1q0 1.1.3 1.1h.4q.6.2.6.3l.1-.1h.2q.7 0 1.8 1.1v.1q-.3.3-.6.4h-.1q-.2 0-.5-.3v-.1q-.1.1-.4.1-.2-.1-.3-.1h-.1q-.1.3-.2.3t-.1-.1v-.3q-.1 0-.2-.1-.3.5-.5.5-.4-.1-1-.2-.3.1-.6.1h-.2q-.2 0-.6-.2-.4.3-.6.3h-.1q-.1 0-.5-.3-.3.2-.4.2t-.3-.3v-.3q0-.5.6-.5.5-.1.9-.1h.7q.3 0 .4-.6 0-.1-.1-.4.1-.5.1-.6v-.2h-.1l.1-.1v-3.1q.1-.7.1-.8-.1-.5-.1-.6v-.3q0-.1.2-.6-.2-1.3-.6-1.3H34q-.2 0-.6.3-1 0-1.1 1.2.2.8.2 1.4 0 .4-.4 1.3v.1h-.2q-.5 0-.5-.4.1-.2.1-.3 0-.2-.1-.6.1-.6.1-.8l-.1-.4q.1-.4.1-.5v-.2q.1-1.8.5-1.8 0-.2.5-.3.3.1.4.1t.3-.1h1.4q.3.1.4.1h.2q.1 0 .6-.2l.2.2q.4-.1.6-.1h.1q.2 0 .4-.2zm-.6 7.9h.1q.1 0 .1.1v.1l-.2.2q0-.1-.1-.1v-.1q0-.1.1-.2zm.1.7q0 .1.1.1v.1l-.1.1q-.1-.1-.2-.1 0-.1.2-.2z" class="s4"/><path id="path72" d="M42.5 51.8q.6.2.6.5l-.1.1q.1 0 .3.3l-.1.2v1.4q.1 1.2.3 1.2.1.1.2.1.4 0 .9-.6.3-.2.4-.2 0 .1.1.1v-.1H45l.3-.2h.2q.6-.1.7-.1.2 0 1.2.6-.1 0-.1.1l.1-.1q.2.2.3.2l-.1.1h.1v-.1q.6.9.6 2.1-.1.4-.1.6v.4q0 .2.3.7-.2.4-.2.5v.4q0 .2.1.4-.2.3-.2.5v.1q0 .2.8.2.4.5.5.8-.1.5-.2.5h-.2q-.2 0-.7-.2h-.5q-.2.2-.4.1h-.1q-.2 0-.5-.2h-.8l-.3.2h-.1q-.2-.1-.2-.7.2-.2.3-.2t.2.1q.9-.3.9-.7 0-.2.2-.9v-2.7q-.1-.1-.1-.2v-.5q0-.3-.6-.6-.1-.3-.4-.3-.2 0-.4.3h-.2q-1 .3-1 .6-.2.6-.5.6-.2.1-.7 1.7v1q.1.9.2 1.1 0 .3 1.2.7 0 .1.2.3 0 .4-.5.4l-.3-.1q-.5.1-.8.1-.3-.1-.4-.1h-.1l-.8.3h-.1q-1.1-.2-1.1-.5V62q.1-.5 1.2-.5.5-.2.5-.5 0-.1-.1-.2l.1-.2q-.1-1.1-.2-1.4v-.1l.2-.6q-.1-.6-.2-.7.1-.4.1-.5 0-.2-.1-.4.1-.1.1-.5-.1-.4-.1-.5l.1-.2q-.1-.4-.1-.6t.1-.4q-.2-.5-.2-.8.1-.2.1-.4 0-.5-1-.5-.7-.3-.7-.4v-.3q0-.3.2-.4h.3q.8 0 1.5-.1" class="s3"/><path id="path74" d="M42.5 51.8q.6.2.6.5l-.1.1q.1 0 .3.3l-.1.2v1.4q.1 1.2.3 1.2.1.1.2.1.4 0 .9-.6.3-.2.4-.2 0 .1.1.1v-.1H45l.3-.2h.2q.6-.1.7-.1.2 0 1.2.6-.1 0-.1.1l.1-.1q.2.2.3.2l-.1.1h.1v-.1q.6.9.6 2.1-.1.4-.1.6v.4q0 .2.3.7-.2.4-.2.5v.4q0 .2.1.4-.2.3-.2.5v.1q0 .2.8.2.4.5.5.8-.1.5-.2.5h-.2q-.2 0-.7-.2h-.5q-.2.2-.4.1h-.1q-.2 0-.5-.2h-.8l-.3.2h-.1q-.2-.1-.2-.7.2-.2.3-.2t.2.1q.9-.3.9-.7 0-.2.2-.9v-2.7q-.1-.1-.1-.2v-.5q0-.3-.6-.6-.1-.3-.4-.3-.2 0-.4.3h-.2q-1 .3-1 .6-.2.6-.5.6-.2.1-.7 1.7v1q.1.9.2 1.1 0 .3 1.2.7 0 .1.2.3 0 .4-.5.4l-.3-.1q-.5.1-.8.1-.3-.1-.4-.1h-.1l-.8.3h-.1q-1.1-.2-1.1-.5V62q.1-.5 1.2-.5.5-.2.5-.5 0-.1-.1-.2l.1-.2q-.1-1.1-.2-1.4v-.1l.2-.6q-.1-.6-.2-.7.1-.4.1-.5 0-.2-.1-.4.1-.1.1-.5-.1-.4-.1-.5l.1-.2q-.1-.4-.1-.6t.1-.4q-.2-.5-.2-.8.1-.2.1-.4 0-.5-1-.5-.7-.3-.7-.4v-.3q0-.3.2-.4h.3q.8 0 1.5-.1z" class="s4"/><path id="path76" d="M56.1 63.4h.1v.1q0 .1-.1.1H56q-.1 0-.1-.1zm-3.3-8.8q1.2 0 1.2.7l.1.1-.1.5q.2.4.2.7v3.9q0 .9.5.9h.8q.1 0 .5-.1.6.1.6.2h.1q.3.2.4.4-.1.5-.2.7-1.9-.1-2.2-.3-.5.1-.6.1-.1-.1-.2-.1h-.6q-.5 0-1.3.3-.2-.1-.5-.1h-.2q-.5 0-.5.1-.9-.2-.9-.7 0-.7 1.4-.7.1.1.4.1l.4-.2.2.1h.1q.6 0 .6-1.4.1 0 .1-.2l-.1-.5.1-.1-.1-.3q.1-.6.1-.7l-.1-.3q.2-.4.2-.6v-.3q0-.9-.6-.9-.1-.1-.2-.1l-.4.2-.4-.1-.6.1q-.3-.1-.3-.4.1-.4.2-.5h-.1q0-.3.8-.3 0-.1.3-.2.1 0 .4.1zm.8-2.9q.6 0 1.4.7v.1q-.2.1-.3.9-.2.6-.7.6 0 .1-.7.1-.7-.3-.7-1.2.2-1.2 1-1.2m2.2 3.7h.2q0 .1.1.1v.3h-.2q-.2 0-.2-.3z" class="s3"/><path id="path78" d="M56.1 63.4h.1v.1q0 .1-.1.1H56q-.1 0-.1-.1zm-3.3-8.8q1.2 0 1.2.7l.1.1-.1.5q.2.4.2.7v3.9q0 .9.5.9h.8q.1 0 .5-.1.6.1.6.2h.1q.3.2.4.4-.1.5-.2.7-1.9-.1-2.2-.3-.5.1-.6.1-.1-.1-.2-.1h-.6q-.5 0-1.3.3-.2-.1-.5-.1h-.2q-.5 0-.5.1-.9-.2-.9-.7 0-.7 1.4-.7.1.1.4.1l.4-.2.2.1h.1q.6 0 .6-1.4.1 0 .1-.2l-.1-.5.1-.1-.1-.3q.1-.6.1-.7l-.1-.3q.2-.4.2-.6v-.3q0-.9-.6-.9-.1-.1-.2-.1l-.4.2-.4-.1-.6.1q-.3-.1-.3-.4.1-.4.2-.5h-.1q0-.3.8-.3 0-.1.3-.2.1 0 .4.1zm.8-2.9q.6 0 1.4.7v.1q-.2.1-.3.9-.2.6-.7.6 0 .1-.7.1-.7-.3-.7-1.2.2-1.2 1-1.2zm2.2 3.7h.2q0 .1.1.1v.3h-.2q-.2 0-.2-.3z" class="s4"/><path id="path80" d="M68.9 56.1h.1q.1 0 .1.2v.1q0 .1-.2.3l-.1-.1zm-5.5-1.5q.3.1 1 .1.6.4.6.9.1 0 .4.8.2.1.2.3 0 .1-.2.4.1.4.2.4v.2q-.2.5-.2 1.2 0 .6-.1 1.4l.1.1h.2l-.2.3q.2 0 .4.2.3 0 .3.1t.8.6l.3.3q-.4.5-1.1.5v.1q-.3 0-.4-.1l-.3.1q-.3-.2-.4-.2h-.2q-.1 0-.3.2l-.5-.1h-.3q-.3-.1-.5-.1H63q-.1-.1-.2-.1v-.1q0-.8.4-.8.2-.2.7-.4.4-.5.4-1.3 0-.5.1-1 0-.5-.3-1.1v-.3q-.1-.6-.3-1-.1 0-.6-.3l-.1-.1q-.6.5-1 .6-.7.7-.7 1t-.4.5l-.1-.1.1.1q-.4.5-.4 1v.1l.1.3h-.1l.2.4h-.4v-.2q0-.1.2-.2l.1.2v.3q.1.3.1.4-.1.3-.1.4.6.4 1.3.8l.2.2q-.2.8-.6.8l-.3-.1q-.4.2-.5.2-.6-.2-.7-.2-.8.1-1 .2-.9 0-1.1-.5v-.1q0-.1.4-.9l.5.1q.4-.1.6-.5v-.3q0-.1-.1-.1.2-.6.2-.8v-1.6q0-.1-.1-.2l.2-.6-.1-.4.1-.6q-.1-.3-.3-.4-.2 0-.4.3h-.2q-.8-.4-.9-.5v-.2q0-.3 1-.4.4.1.5.1 0-.1.1-.1.9.2.9.6.2.6.4.6l.3-.2v.1-.1q.1 0 .6-.6.9-.5 1-.5.3 0 .7-.1m3.3 4.9.2.1q-.1.2-.3.2-.1 0-.1-.1v-.1z" class="s3"/><path id="path82" d="M68.9 56.1h.1q.1 0 .1.2v.1q0 .1-.2.3l-.1-.1zm-5.5-1.5q.3.1 1 .1.6.4.6.9.1 0 .4.8.2.1.2.3 0 .1-.2.4.1.4.2.4v.2q-.2.5-.2 1.2 0 .6-.1 1.4l.1.1h.2l-.2.3q.2 0 .4.2.3 0 .3.1t.8.6l.3.3q-.4.5-1.1.5v.1q-.3 0-.4-.1l-.3.1q-.3-.2-.4-.2h-.2q-.1 0-.3.2l-.5-.1h-.3q-.3-.1-.5-.1H63q-.1-.1-.2-.1v-.1q0-.8.4-.8.2-.2.7-.4.4-.5.4-1.3 0-.5.1-1 0-.5-.3-1.1v-.3q-.1-.6-.3-1-.1 0-.6-.3l-.1-.1q-.6.5-1 .6-.7.7-.7 1t-.4.5l-.1-.1.1.1q-.4.5-.4 1v.1l.1.3h-.1l.2.4h-.4v-.2q0-.1.2-.2l.1.2v.3q.1.3.1.4-.1.3-.1.4.6.4 1.3.8l.2.2q-.2.8-.6.8l-.3-.1q-.4.2-.5.2-.6-.2-.7-.2-.8.1-1 .2-.9 0-1.1-.5v-.1q0-.1.4-.9l.5.1q.4-.1.6-.5v-.3q0-.1-.1-.1.2-.6.2-.8v-1.6q0-.1-.1-.2l.2-.6-.1-.4.1-.6q-.1-.3-.3-.4-.2 0-.4.3h-.2q-.8-.4-.9-.5v-.2q0-.3 1-.4.4.1.5.1 0-.1.1-.1.9.2.9.6.2.6.4.6l.3-.2v.1-.1q.1 0 .6-.6.9-.5 1-.5.3 0 .7-.1zm3.3 4.9.2.1q-.1.2-.3.2-.1 0-.1-.1v-.1z" class="s4"/><path id="path84" d="M71.8 54.6q.5 0 1.7.4-.1 0-.1.1.1 0 .1-.1l.3.1q1.1-.5 1.3-.5h.6q.4 0 .8.7.1.6.1.8-.6.1-.6.4h-.2l-.4-.4q-.3-.2-.3-.3-.4.1-.4.8 0 .3-.1.6l.1.3q-.2 1.4-.5 1.4 0 .1-.8.3-.5.6-.7.6l-.4-.1-.6.1q-.6-.3-.8-.3-.5-.3-.6-.3-.3.1-.4.1.1 0 0 0 .1 0 0 .1-.2 0-.5.5v.1q0 .3.3.7-.1 0-.1.1.1 0 .3.2.1.1.6.1l1.1-.4 1.2.1q.1-.1.3-.1 1.9.4 1.9.6.5.2.8.7l-.1.1h.1V62q.3.2.3 1.3 0 .3-.2.3l.1.1q-.2.5-.5.8-.2 0-.8.3-.5 0-.7.4h-.1q-.3-.1-.4-.1 0 .1-1.3.1v.1q-1.7-.1-1.7-.2h-.1q-.1-.1-1.2-.2-.3-.2-.5-.7-.4-.2-.4-.5v-.1q-.1 0-.1-.4V63q0-.5.4-1.2.2-.2.2-.4-.5-.5-.5-1 .1-1.2.4-1.3l.7-.7v-.1q0-.3-.2-.7 0-.8.5-1.8 0-.1.3-.5 0-.2.7-.4 0-.2.9-.2 0-.1.2-.1m.7 7.1h-.6q-.4-.1-.6-.1-.1 0-.3.1l-.7-.1q-.3 0-.6.5-.2.4-.6.8v.1q0 .1.1.3-.1 0-.1.1.6.7 1.2.7 0 .1.9.4.2.1.4.1 2.4-.2 2.4-.4 1.1-.4 1.1-.6t.4-.6l.1-.2q0-.3-.7-.4-.5-.7-1.3-.7-.4-.2-.5-.2h-.2q-.1 0-.4.2M70.2 57v.4q0 .6 1.1 1.3.5.2.9.2.7-.2.8-.2 0-.1.6-.6l.1-.3v-1q0-.2-.4-.6 0-.6-.5-.6-.3-.1-.5-.3h-.1q-.7.1-.9.4-.6.2-.8.8l-.2.3q-.1.1-.1.2" class="s3"/><path id="path86" d="M71.8 54.6q.5 0 1.7.4-.1 0-.1.1.1 0 .1-.1l.3.1q1.1-.5 1.3-.5h.6q.4 0 .8.7.1.6.1.8-.6.1-.6.4h-.2l-.4-.4q-.3-.2-.3-.3-.4.1-.4.8 0 .3-.1.6l.1.3q-.2 1.4-.5 1.4 0 .1-.8.3-.5.6-.7.6l-.4-.1-.6.1q-.6-.3-.8-.3-.5-.3-.6-.3-.3.1-.4.1.1 0 0 0 .1 0 0 .1-.2 0-.5.5v.1q0 .3.3.7-.1 0-.1.1.1 0 .3.2.1.1.6.1l1.1-.4 1.2.1q.1-.1.3-.1 1.9.4 1.9.6.5.2.8.7l-.1.1h.1V62q.3.2.3 1.3 0 .3-.2.3l.1.1q-.2.5-.5.8-.2 0-.8.3-.5 0-.7.4h-.1q-.3-.1-.4-.1 0 .1-1.3.1v.1q-1.7-.1-1.7-.2h-.1q-.1-.1-1.2-.2-.3-.2-.5-.7-.4-.2-.4-.5v-.1q-.1 0-.1-.4V63q0-.5.4-1.2.2-.2.2-.4-.5-.5-.5-1 .1-1.2.4-1.3l.7-.7v-.1q0-.3-.2-.7 0-.8.5-1.8 0-.1.3-.5 0-.2.7-.4 0-.2.9-.2 0-.1.2-.1zm.7 7.1h-.6q-.4-.1-.6-.1-.1 0-.3.1l-.7-.1q-.3 0-.6.5-.2.4-.6.8v.1q0 .1.1.3-.1 0-.1.1.6.7 1.2.7 0 .1.9.4.2.1.4.1 2.4-.2 2.4-.4 1.1-.4 1.1-.6t.4-.6l.1-.2q0-.3-.7-.4-.5-.7-1.3-.7-.4-.2-.5-.2h-.2q-.1 0-.4.2zM70.2 57v.4q0 .6 1.1 1.3.5.2.9.2.7-.2.8-.2 0-.1.6-.6l.1-.3v-1q0-.2-.4-.6 0-.6-.5-.6-.3-.1-.5-.3h-.1q-.7.1-.9.4-.6.2-.8.8l-.2.3q-.1.1-.1.2z" class="s4"/><path id="path88" d="M80.3 54.7h1q1.2.2 1.7.6v.1-.1l.3.1.3-.3.3-.1q.3 0 .3.4l-.1.4q.1.4.1.7l-.1.3v.8q-.2.1-.7.1-.2-.5-.3-.8H83q-.3-.8-1.2-.8l.1-.2v-.2h-.4l-.3-.1-.9.3-.7-.1q-.5.3-.5 1.3 0 .4.7.6l.2.1q.2-.1.4-.1 0 .1.1.2h.3l.2-.2h.1q.2.3 1.1.3h.3q.4.2.5.3.5 0 .7.4.9.6.9 1.6v.1q0 .1-.3.8 0 .4-.8.7-.2.3-.6.3 0 .1-1 .2 0 .2-.2.3h-.1q-.2 0-.7-.3-.2-.1-.4-.1-.1 0-.3.2-.3-.1-.9-.2 0-.1-.3-.1h-.1l-.4.4q-.7-.1-.7-.4-.1-.3-.1-.4l.1-.5V61q0-.5-.1-.6l.1-.2v-.6q0-.4.3-.4.5 0 1.1 1.7 1.2.8 1.6.8.2 0 .2-.1.3.1.5.1.4 0 1.1-.4.3 0 .6-.5.2-.1.2-.4V60q0-.3-.3-.4h-.2l-.2.1h-.1q.1 0 .1.1h-.1q-.1 0-.2-.5h-.2l-.4.1q-.5-.1-.9-.6h-.1q-.3.4-.4.4-.3 0-.8-.4-.5 0-.5-.3-.9-.5-.9-.7t-.1-.4v-.1q-.1 0-.1-.3 0-1.3.4-1.3.3-.6.9-.6.2-.2.9-.4zm2.5 2.5h.2v.1q0 .1-.1.1h-.1q-.1 0-.1-.1z" class="s3"/><path id="path90" d="M80.3 54.7h1q1.2.2 1.7.6v.1-.1l.3.1.3-.3.3-.1q.3 0 .3.4l-.1.4q.1.4.1.7l-.1.3v.8q-.2.1-.7.1-.2-.5-.3-.8H83q-.3-.8-1.2-.8l.1-.2v-.2h-.4l-.3-.1-.9.3-.7-.1q-.5.3-.5 1.3 0 .4.7.6l.2.1q.2-.1.4-.1 0 .1.1.2h.3l.2-.2h.1q.2.3 1.1.3h.3q.4.2.5.3.5 0 .7.4.9.6.9 1.6v.1q0 .1-.3.8 0 .4-.8.7-.2.3-.6.3 0 .1-1 .2 0 .2-.2.3h-.1q-.2 0-.7-.3-.2-.1-.4-.1-.1 0-.3.2-.3-.1-.9-.2 0-.1-.3-.1h-.1l-.4.4q-.7-.1-.7-.4-.1-.3-.1-.4l.1-.5V61q0-.5-.1-.6l.1-.2v-.6q0-.4.3-.4.5 0 1.1 1.7 1.2.8 1.6.8.2 0 .2-.1.3.1.5.1.4 0 1.1-.4.3 0 .6-.5.2-.1.2-.4V60q0-.3-.3-.4h-.2l-.2.1h-.1q.1 0 .1.1h-.1q-.1 0-.2-.5h-.2l-.4.1q-.5-.1-.9-.6h-.1q-.3.4-.4.4-.3 0-.8-.4-.5 0-.5-.3-.9-.5-.9-.7t-.1-.4v-.1q-.1 0-.1-.3 0-1.3.4-1.3.3-.6.9-.6.2-.2.9-.4zm2.5 2.5h.2v.1q0 .1-.1.1h-.1q-.1 0-.1-.1z" class="s4"/><path id="path92" d="M94 51.2h.1v.3H94l-.1-.1v-.1q0-.1.1-.1m-2.1.7H96q.7 0 1.7.8 0 .2.4.4.6 1.7.6 2.4v1.3q-.1.2-.5.3-.4.5-1.1.5l-.2.6h-.1q-.4-.3-.9-.3l-.3-.1q-.5.3-.7.3-.1 0-.7-.3h-.1q-.1 0-.5.5.2.6.2 1-.1.2-.2 1.2 0 .1.5.5h.1l.3-.2h.4v-.1q.6.4 1.1.5l.3.4q0 .7-.6.9h-.4q-.1 0-.3.1l-.5-.4q-.3.2-1.2.3-.4-.2-.6-.2h-.2q-.3 0-.8.3-.2 0-.4-.3-.4 0-.4-.2h-.4q0 .2-.2.2t-.3-.2q0-.6.6-.8.1-.1 1.1-.1 0-.1.2-.2.2.1.4.1.1 0 .2-1-.1-1-.1-1.7 0-.2.1-.5v-2.2q-.1-.2-.1-.5V55q0-.8.1-1.4-.1-.7-.3-.7h-.1l-.4.1q-.2-.1-1.2-.2h-.1q-.1 0-.1.1-.2 0-.3-.3v-.1q0-.1.2-.6.4.1.7.1h.1q.5 0 .9-.1m1.3 1.2q-.1.2-.1.3 0 .2.3.9v.6q-.1.4-.1 1.2.1.9.5.9l.5.1q.1 0 .4-.1.4.1.5.1.3 0 1.2-.5.5 0 .7-.7.3-.1.5-1.6v-.1q-.5-.7-.6-.7h-.3q-.6-.5-.8-.5h-.2q-.4.1-.5.1-.2-.3-1.5-.3l-.1-.1q-.1 0-.4.4" class="s3"/><path id="path94" d="M94 51.2h.1v.3H94l-.1-.1v-.1q0-.1.1-.1zm-2.1.7H96q.7 0 1.7.8 0 .2.4.4.6 1.7.6 2.4v1.3q-.1.2-.5.3-.4.5-1.1.5l-.2.6h-.1q-.4-.3-.9-.3l-.3-.1q-.5.3-.7.3-.1 0-.7-.3h-.1q-.1 0-.5.5.2.6.2 1-.1.2-.2 1.2 0 .1.5.5h.1l.3-.2h.4v-.1q.6.4 1.1.5l.3.4q0 .7-.6.9h-.4q-.1 0-.3.1l-.5-.4q-.3.2-1.2.3-.4-.2-.6-.2h-.2q-.3 0-.8.3-.2 0-.4-.3-.4 0-.4-.2h-.4q0 .2-.2.2t-.3-.2q0-.6.6-.8.1-.1 1.1-.1 0-.1.2-.2.2.1.4.1.1 0 .2-1-.1-1-.1-1.7 0-.2.1-.5v-2.2q-.1-.2-.1-.5V55q0-.8.1-1.4-.1-.7-.3-.7h-.1l-.4.1q-.2-.1-1.2-.2h-.1q-.1 0-.1.1-.2 0-.3-.3v-.1q0-.1.2-.6.4.1.7.1h.1q.5 0 .9-.1zm1.3 1.2q-.1.2-.1.3 0 .2.3.9v.6q-.1.4-.1 1.2.1.9.5.9l.5.1q.1 0 .4-.1.4.1.5.1.3 0 1.2-.5.5 0 .7-.7.3-.1.5-1.6v-.1q-.5-.7-.6-.7h-.3q-.6-.5-.8-.5h-.2q-.4.1-.5.1-.2-.3-1.5-.3l-.1-.1q-.1 0-.4.4z" class="s4"/><path id="path96" d="M100.6 51.7q.4.1.9.1h.5q.4.1.5.1.2-.1.3-.1.2.1.7.2.3.1.3.2 0 .4-.3.4-.3-.1-.4-.1-.8.6-.8 1.1l.1.4q-.1.1-.2.8.1.1.1.2h-.1q.2 0 .4.3-.1.6-.1 1 0 .3.4.3h.1q.2-.1.4-.7.1 0 .3-.2.6-.4.8-1.2.3-.1 1-1.6 0-.2-.6-.4-.1-.1-.1-.3 0-.3.4-.4l.3.1q.4-.2.7-.2.4.2.5.2h.1l.4.1h.5q.4 0 .6.3v.3q0 .1-.6.3-.6-.2-.8-.2t-.4.5q-.1 0-.4.8-.5.1-.5.6-.2.3-.5.5-.1.3-.4.5l-.1.1q.1.3.1.4-.4.5-.4.6v.1q0 .2.8 1.3.1 0 .3.7l.9.9q.1 1 .7 1.7 0 .1 1.5.3l.3.4q0 .3-1 .3h-.1q0 .1-.4.2-.5-.2-.6-.2h-.5q0 .1-.5.2-.9-.3-.9-.4-.1 0-.1-.2 0-.1.4-.4.1 0 .5.1.2 0 .3-.3 0-.1-.3-.7-.2-.2-.3-.6-.6-.4-.6-1.2-.1-.2-.6-.5-.1-.5-.4-.5h-.4q-.2 0-.3 1-.5.7-.5.9 0 .1.1.4-.1.2-.1.4 0 .7.7.9.5 0 .6.7 0 .3-.6.3h-.3q-.2 0-.7-.1h-.1q-.7.2-.8.2-.1-.1-.2-.1h-1q-.2-.3-.2-.5 0-.3 1-.5.5-.3.5-1 .1 0 .1-.4 0-.3-.1-1.1v-1.5q.1-.2.1-1.2-.1-.6-.1-.7 0-.5.1-1.2l-.1-.5.1-.3q0-.9-.7-.9-1 0-1-.3l-.1-.1q0-.3.9-.6" class="s3"/><path id="path98" d="M100.6 51.7q.4.1.9.1h.5q.4.1.5.1.2-.1.3-.1.2.1.7.2.3.1.3.2 0 .4-.3.4-.3-.1-.4-.1-.8.6-.8 1.1l.1.4q-.1.1-.2.8.1.1.1.2h-.1q.2 0 .4.3-.1.6-.1 1 0 .3.4.3h.1q.2-.1.4-.7.1 0 .3-.2.6-.4.8-1.2.3-.1 1-1.6 0-.2-.6-.4-.1-.1-.1-.3 0-.3.4-.4l.3.1q.4-.2.7-.2.4.2.5.2h.1l.4.1h.5q.4 0 .6.3v.3q0 .1-.6.3-.6-.2-.8-.2t-.4.5q-.1 0-.4.8-.5.1-.5.6-.2.3-.5.5-.1.3-.4.5l-.1.1q.1.3.1.4-.4.5-.4.6v.1q0 .2.8 1.3.1 0 .3.7l.9.9q.1 1 .7 1.7 0 .1 1.5.3l.3.4q0 .3-1 .3h-.1q0 .1-.4.2-.5-.2-.6-.2h-.5q0 .1-.5.2-.9-.3-.9-.4-.1 0-.1-.2 0-.1.4-.4.1 0 .5.1.2 0 .3-.3 0-.1-.3-.7-.2-.2-.3-.6-.6-.4-.6-1.2-.1-.2-.6-.5-.1-.5-.4-.5h-.4q-.2 0-.3 1-.5.7-.5.9 0 .1.1.4-.1.2-.1.4 0 .7.7.9.5 0 .6.7 0 .3-.6.3h-.3q-.2 0-.7-.1h-.1q-.7.2-.8.2-.1-.1-.2-.1h-1q-.2-.3-.2-.5 0-.3 1-.5.5-.3.5-1 .1 0 .1-.4 0-.3-.1-1.1v-1.5q.1-.2.1-1.2-.1-.6-.1-.7 0-.5.1-1.2l-.1-.5.1-.3q0-.9-.7-.9-1 0-1-.3l-.1-.1q0-.3.9-.6z" class="s4"/><path id="path100" d="M111.5 51.6q.6.1 1.6.1h.7q.3 0 .9.1h.8q.3.1.4.1l.3-.2q1 .2 1 .6.1 0 .1.6h-.9l-.7.2q-.4-.1-.6-.1h-.4q-.7 0-.7.3v.1q.1.4.1.5v.9q-.1.3-.1.5.1.4.1.6-.1.3-.1.4 0 .9.5.9.1.1.1.2-.2.9-.5.9v.4q0 .1.1.1.2-.1.3-.1 0 .1.1.1v.3q0 .2.1.3v.2h-.2q-.2-.6-.3-.6t-.1.1v2h.1l-.1.1q.2.1.3.1.3-.2.8-.3.8.1 1.6.6.4 0 .4.3v.2q0 .2-.2.4v.1l-.1.1-.1-.1v.1q-.2 0-.7-.1-.2.2-.4.2-.1 0-.5-.2-.3.1-.3.2l-.1-.1h-.7q-.1 0-.2.1-.3-.2-1.5-.3-.4.2-.5.2-.2-.2-.4-.2-.4 0-.8.3-.9 0-.9-.6v-.1q0-.3.3-.6 0-.4.3-.4l.5.2q.6-.2 1.3-.2h.5l.1-.1v-.5q0-.6.1-.7h-.1v-.4q.1-.2.1-1.1.1 0 .1-.2-.2-.5-.3-.7.2-.4.2-.5v-.1l-.1-.3q.1-1.2.3-2.8v-.2q0-.2-.4-.3-.5-.4-1.2-.4-.5.2-.6.2h-.1q-.4-.1-.6-.1v.1l-.2-.1.2-1q.2-.3 1.3-.3m2.9 4.6h.1q0 .2.1.5l-.1.1h-.1l-.1-.1q0-.5.1-.5m.3 3.8q.1 0 .2.4 0 .2-.1.2-.2-.1-.2-.3v-.1z" class="s3"/><path id="path102" d="M111.5 51.6q.6.1 1.6.1h.7q.3 0 .9.1h.8q.3.1.4.1l.3-.2q1 .2 1 .6.1 0 .1.6h-.9l-.7.2q-.4-.1-.6-.1h-.4q-.7 0-.7.3v.1q.1.4.1.5v.9q-.1.3-.1.5.1.4.1.6-.1.3-.1.4 0 .9.5.9.1.1.1.2-.2.9-.5.9v.4q0 .1.1.1.2-.1.3-.1 0 .1.1.1v.3q0 .2.1.3v.2h-.2q-.2-.6-.3-.6t-.1.1v2h.1l-.1.1q.2.1.3.1.3-.2.8-.3.8.1 1.6.6.4 0 .4.3v.2q0 .2-.2.4v.1l-.1.1-.1-.1v.1q-.2 0-.7-.1-.2.2-.4.2-.1 0-.5-.2-.3.1-.3.2l-.1-.1h-.7q-.1 0-.2.1-.3-.2-1.5-.3-.4.2-.5.2-.2-.2-.4-.2-.4 0-.8.3-.9 0-.9-.6v-.1q0-.3.3-.6 0-.4.3-.4l.5.2q.6-.2 1.3-.2h.5l.1-.1v-.5q0-.6.1-.7h-.1v-.4q.1-.2.1-1.1.1 0 .1-.2-.2-.5-.3-.7.2-.4.2-.5v-.1l-.1-.3q.1-1.2.3-2.8v-.2q0-.2-.4-.3-.5-.4-1.2-.4-.5.2-.6.2h-.1q-.4-.1-.6-.1v.1l-.2-.1.2-1q.2-.3 1.3-.3zm2.9 4.6h.1q0 .2.1.5l-.1.1h-.1l-.1-.1q0-.5.1-.5zm.3 3.8q.1 0 .2.4 0 .2-.1.2-.2-.1-.2-.3v-.1z" class="s4"/></g></g></svg>