<svg xmlns="http://www.w3.org/2000/svg" xml:space="preserve" viewBox="0 0 204.13 37.91"><path d="M35.06 18.99c0 2.06-.37 4.06-1.1 5.95h-2.32c.6-13.14-16.42-18.87-23.92-8.11-1.22-4.07.11-8.66 3.24-11.45 1.14-1.04 2.5-1.84 3.95-2.33C24.93.12 35.22 8.73 35.06 18.99" class="st1"/><path d="M35.06 26.83v8.7H18.52c-.21 0-.4 0-.59-.02-4.29-.15-8.3-1.94-11.29-5.03-6.48-6.3-5.98-17.92.71-23.67-2.35 3.73-2.6 8.65-.66 12.59 2.15 4.47 6.82 7.43 11.83 7.42 0 .01 16.54.01 16.54.01M114.52 16.51h4.97v8.5h1.96v-8.5h4.97v-1.96h-11.9zm-5.64 6.13-8.21-8.08h-2.25v10.46h1.96v-8.03l7.92 8.03h2.55V14.55h-1.96v8.09zm-22.1-8.09-5.34 10.46h2.19l.79-1.57h7.34l.79 1.57h2.2l-5.34-10.46zm-1.36 6.94 2.67-5.21 2.67 5.21zM61.7 23.44h2.15l.04-.12c.53-1.46.54-2.96.02-4.46-.78-2.3-2.81-4.05-5.18-4.47-.4-.07-.81-.11-1.23-.11-1.81 0-3.51.7-4.79 1.98a6.73 6.73 0 0 0-1.98 4.8c0 3.67 2.98 6.7 6.65 6.77l.3.01h6.6v-1.96h-6.8c-1.95 0-3.72-1.16-4.41-2.88-.64-1.59-.49-3.28.44-4.64.9-1.33 2.39-2.13 3.99-2.13.35 0 .7.04 1.07.11 1.76.38 3.18 1.77 3.62 3.55.28 1.13.15 2.27-.36 3.28zm15.52-3.83c0 2.03-1.65 3.68-3.68 3.68s-3.68-1.65-3.68-3.68v-5.06H67.9v5.06c0 3.11 2.53 5.64 5.63 5.64 3.11 0 5.63-2.53 5.63-5.64v-5.06H77.2v5.06zm121.32-5.06-4.91 8.94-4.96-8.94h-3.03v10.46h1.96v-8.36l4.63 8.36h2.8l4.57-8.32v8.32h1.96V14.55zm-19.13 5.06c0 2.03-1.65 3.68-3.68 3.68s-3.68-1.65-3.68-3.68v-5.06h-1.96v5.06c0 3.11 2.53 5.64 5.64 5.64s5.63-2.53 5.63-5.64v-5.06h-1.96v5.06zm-31.16 3.03-8.21-8.08h-2.25v10.46h1.96v-8.03l7.92 8.03h2.55V14.55h-1.96v8.09zm15.65-3.03c0 2.03-1.65 3.68-3.68 3.68s-3.68-1.65-3.68-3.68v-5.06h-1.96v5.06c0 3.11 2.53 5.64 5.63 5.64 3.11 0 5.64-2.53 5.64-5.64v-5.06h-1.96v5.06zm-33.27 5.4h1.96V14.55h-1.96z" class="st1"/></svg>