<svg xmlns="http://www.w3.org/2000/svg" xml:space="preserve" viewBox="0 0 3224 1376"><path fill="#fefefe" d="M2448 1378H2V2h3224v1376zm-900.48-291.827c.29-.68.58-1.36 1.548-3.54.04-15.819-.063-31.64.248-47.452.057-2.95.886-7.331 2.881-8.541 7.6-4.61 15.74-8.8 25.672-2.233 1.128 5.1 3.09 10.18 3.228 15.307.424 15.929.155 31.875.155 48.204h29.013c.157-3.367.403-6.303.41-9.239.04-14.983.06-29.966-.013-44.95-.018-3.651-.215-7.325-.659-10.949-1.751-14.292-10.089-22.094-24.254-22.938-13.644-.814-26.132 2.412-37.455 11.248l-3.79-8.83c-6.604 0-12.563 0-19.832-.405-.894.132-1.788.264-3.84.171-.284.66-.567 1.318-1.362 3.791-.019 22.943-.044 45.886-.05 68.829 0 3.655-.218 7.357.332 10.935.144.942 2.78 1.501 5.722 2.71 1.5-.159 2.999-.318 6.139-.076 2.798-.134 5.597-.267 9.776.082 1.637-.622 3.273-1.244 6.13-2.124m-567.14-446.3c1.96.23 3.919.46 6.037.868 0 0 .197.134 1.188 1.19 2.8.72 5.6 1.441 9.182 2.665l.91.2s.847-.385 1.735.762c15.12 6.29 26.723 16.097 31.875 32.214 2.214 6.926 4.672 13.826 6.184 20.916 4.691 22.004 4.519 44.277 3.049 66.61a17648 17648 0 0 0-6.7 106.634c-.477 7.97-.63 15.99-.366 23.969.5 15.083 9.201 24.894 24.038 27.416 3.583.61 7.284.712 10.932.723 20.982.067 41.985-.544 62.941.194 23.206.816 36.117-9.2 35.82-35.307-.586-51.616.136-103.247-.325-154.866a1025 1025 0 0 0-3.136-71.762c-2.585-32.627-14.058-62.206-35.123-87.421-7.14-8.547-16.34-15.372-24.953-23.918-.441-.55-1.012-.866-1.564-2.33 12.042-15.321 20.855-32.207 26.029-51.106 9.474-34.61 10.648-69.736 5.284-104.868-5.404-35.396-20.241-66.762-46.404-91.872-24.05-23.084-53.165-37.284-84.844-46.725-37.64-11.217-76.36-15.141-115.332-15.244-166.563-.437-333.126-.284-499.69-.29-3.297-.001-6.632.468-9.885 1.068-12.06 2.224-22.714 10.833-22.88 27.658-.044 1.332-.125 2.663-.125 3.995-.009 206.661-.021 413.322.054 619.983.002 4.27 1.026 8.537 1.454 14.252 4.927 13.41 15.402 18.557 28.79 18.887 11.31.28 22.631.1 33.948.104 12.315.004 24.64.295 36.943-.095 19.107-.607 30.128-12.002 30.53-30.931.035-1.664.009-3.329.01-4.993 0-80.88.004-161.762-.012-242.643-.001-3.322-.196-6.643-.065-10.082 0 0-.156-.211 1.67-.847 3.992-.071 7.985-.203 11.978-.204 138.521-.008 277.043.002 415.564-.03 3.627 0 7.254-.426 12.687-.308 8.759.39 17.518.78 26.849 1.838 1.116-.044 2.232-.087 4.936.315 2.743.112 5.485.223 9.05 1.137 1.117.085 2.233.17 4.772.83 2.019.212 4.038.424 6.273.385 0 0-.328-.05.693 1.028m409.962 362.022c-2.759.137-5.517.275-9.852-.105-2.183.175-4.366.349-7.821.138-.878.083-1.755.167-3.965-.285-.932.76-1.865 1.52-3.216 4.124.15 26.761.3 53.523.981 81.991 8.299.187 16.598.446 24.897.458.916.001 1.834-1.405 3.189-3.15-.111-.342-.223-.686.393-2.488.056-20.279.17-40.558.13-60.836-.012-5.268-.51-10.534-.409-16.829-.139-.337-.278-.674-.438-2.267-.75-.146-1.502-.292-3.89-.751m1211.63-699.86s-.39.41-.216-1.06c-1.866-5.506-5.326-8.998-12.715-9.587-3.644-3.887-7.288-7.773-11-13.099-.681-5.758-4.11-8.342-10.959-8.906-3.658-3.881-7.317-7.763-11.026-13.184-1.288-7.592-1.288-7.592-10.953-8.734-.996-1.25-1.993-2.498-3.066-5.214-.265-5.286-3.6-6.53-9.194-5.576-.537 1.084-1.074 2.167-3.026 3.819-.602 4.126-1.73 8.252-1.73 12.379-.087 211.05-.07 422.102-.117 633.153-.001 4.613-.225 9.298-1.053 13.82-.745 4.069 1.117 5.48 5.187 7.058 1.025.255 2.05.51 4.589.888 2.903-2.066 6.143-3.79 8.654-6.255 13.308-13.067 26.194-26.575 39.726-39.401 6.572-6.229 9.092-12.976 9.078-22.037-.226-146.886-.16-293.772-.157-440.657 0-2.998-.463-6.116.23-8.949.437-1.789 2.623-3.15 3.844-4.503 0 0 .118-.243.102 1.181 5.841 6.443 11.605 12.96 17.604 19.25.943.99 2.954.96 4.27 1.535 0 0 .134-.2.125 1.222.55 1.172.85 2.58 1.69 3.48 7.197 7.702 14.32 15.49 21.865 22.84 2.179 2.122 5.659 2.909 8.328 4.45 0 0 .145-.212.124 1.213 1.948 2.616 3.634 5.486 5.89 7.802 8.602 8.831 17.423 17.45 26.081 26.228 2.213 2.243 5.388 4.455 1.431 9.41-2.573-1.896-5.242-3.524-7.505-5.595-6.203-5.674-11.12-12.483-17.649-18.044-11.28-9.61-21.296-20.714-31.708-31.323-2.515-2.563-4.18-5.998-6.815-8.398-3.556-3.241-7.451-6.265-11.643-8.582-1.901-1.05-4.865-.178-7.783-.178-.853 17.63-2.299 34.16-2.142 50.676.065 6.863-.119 13.689-.194 20.54-.084 7.602 1.163 15.217 1.092 22.82-.158 16.825-.894 33.645-1.135 50.47-.066 4.602 1.211 9.222 1.143 13.822-.227 15.16-1.137 30.316-1.124 45.472.015 16.49 1.083 32.98 1.106 49.47.02 14.49-1.135 28.981-1.106 43.47.034 17.491 1.059 34.98 1.108 52.47.038 13.49-1.139 26.983-1.078 40.471.047 10.25.982 20.513 1.892 30.737 1.528 17.173-3.425 34.305-.138 51.493.417 2.18-.382 4.595-.639 6.899-.403 3.61-1.216 7.221-1.18 10.826.577 59.566 1.257 119.131 1.943 178.696.022 1.94.355 3.875.525 5.626 4.485 2.564 8.045 1.865 11.265-1.303 1.9-1.87 3.788-3.752 5.673-5.637 19.253-19.249 38.47-38.535 57.799-57.707 2.568-2.547 6.71-3.934 8.412-6.855 7.728-13.263 20.25-21.795 30.714-32.339 10.024-10.098 20.112-20.131 30.173-30.192q15.446-15.444 30.892-30.89 15.09-15.092 30.182-30.185l35.84-35.839c8.647-8.647 17.396-17.195 25.916-25.966 17.294-17.804 34.421-35.77 51.723-53.566 2.988-3.074 6.733-5.414 9.706-8.5 4.813-4.994 9.719-10.007 13.742-15.617 3.116-4.342 1.785-6.865-2.952-10.271-2.11-1.517-3.796-3.616-5.702-5.424-3.375-3.201-6.628-6.66-11.93-6.147l.004-1.47c-.454-1.545-.496-3.427-1.435-4.576-4.143-5.07-7.903-10.781-13.027-14.629-5.504-4.133-8.862-12.057-17.542-11.325l.004-1.464c-1.575-2.749-2.752-5.848-4.805-8.174-4.565-5.172-9.911-9.676-14.278-14.995-3.02-3.679-6.317-5.53-12.036-5.764-.962-1.204-1.923-2.407-2.888-5.113-.664-7.303-4.88-10.55-11.997-10.49l.015-1.52c-2.463-9.354-8.889-14.384-18.015-16.48 0 0 .011-.02.008-1.48-1.84-3.008-3.228-6.444-5.602-8.945-7.96-8.382-16.027-16.694-24.517-24.53-8.386-7.739-15.12-16.962-23.904-24.427-10.612-9.018-19.954-19.535-29.797-29.45-2.847-2.87-5.55-5.862-11.132-5.508-.348-.563-.697-1.125-1.047-3.144-1.84-3.006-3.21-6.464-5.6-8.94-10.394-10.765-21.118-21.212-31.636-31.86-1.719-1.74-3.001-3.91-4.576-6.002 4.851-3.076 7.654-.849 10.355 1.854 6.053 6.055 12.12 12.096 18.174 18.15q32.01 32.011 64.02 64.022c12.23 12.23 24.377 24.544 36.73 36.648 6.34 6.214 9.892 6.759 15.355 1.544 11.785-11.25 23.132-22.96 34.654-34.486 2.67-2.67 3.641-6.05 1.36-9.001-3.169-4.097-6.214-8.931-13.726-8.985-1.003-1.246-2.007-2.493-3.08-5.18-.7-5.803-4.157-8.376-11.046-8.874-3.63-3.89-7.26-7.779-10.952-13.091-1.77-6.482-5.304-11.107-12.06-12.306 0 0-.42.45-.232-1.013-2.711-5.869-6.24-10.745-14.488-11.498-.386-.586-.771-1.172-1.22-3.175-.722-1.789-1-4.004-2.241-5.295-7.325-7.625-14.742-15.174-22.446-22.41-1.71-1.606-4.695-1.852-8.337-3.232-12.302-12.555-24.604-25.11-36.977-39.106-.698-5.796-4.15-8.371-11.042-8.881-4.962-5.227-9.923-10.454-14.954-17.101-2.632-7.687-7.393-13.038-17.034-14.906-4.966-5.226-9.931-10.453-14.968-17.109-1.488-6.207-4.915-10.224-12.752-10.804-.392-.59-.784-1.18-1.259-3.182-.021-3.96-2.735-4.391-6.768-4.798-.387-.585-.773-1.17-1.209-3.321-1.705-9.746-1.705-9.746-12.784-10.69-.386-.589-.773-1.178-1.227-3.185-3.424-8.203-8.445-14.673-17.98-16.367 0 0 .062-.165.002-1.705-.468-8.83-.468-8.83-9.03-6.859-2.304-2.564-4.608-5.128-6.999-9.096-.142-2.86-1.426-4.394-4.065-4.241m-456.872 785.82c.116-.66.233-1.32.663-3.686-.09-4.042-.18-8.084.116-13.166-.129-.347-.258-.694-.128-2.892-.09-12.7-.179-25.398.204-39.658-.156-2.15-.312-4.3-.208-8.226-.124-5.36-.247-10.72-.442-17.51-1.771-.189-3.542-.378-7.091-.861-5.4.103-10.8.207-17.535-.223-1.343.844-2.685 1.689-4.456 4.34-.014 12.183-.108 24.366-.018 36.547.106 14.462.371 28.924.918 45.032 8.955.115 17.91.23 27.977.302m-37.543-160.524c4.815-.44 9.63-.88 16.223-.988 22.536-2.345 44.98-5.347 66.754-11.842 24.087-7.185 47.072-16.614 66.625-34.961 1.651-1.735 3.302-3.47 6.217-5.725 17.703-18.623 30.783-40.05 38.7-64.513 13.453-41.568 16.798-84.01 9.905-127.128-7.478-46.776-29.75-84.778-67.844-113.442-28.857-21.714-61.984-32.856-96.614-40.73-30.889-7.023-62.231-10.86-93.725-13.498-13.24-1.109-26.57-1.115-41.561-2.071-4.098.051-8.195.102-14.112-.29-14.682.142-29.364.285-45.712.093-2.821.112-5.642.224-10.07-.097-2.757.14-5.514.282-9.62.098-.913.11-1.826.221-3.721-.022-.325.126-.65.253-2.555.068-2.126.191-4.252.383-8.206.146-11.935.54-23.865 1.388-35.805 1.562-32.233.47-64.472.977-96.706.858-32.547-.12-65.078-1.167-97.276-6.7-8.144-1.4-16.305-2.704-25.62-4.979-13.777-3.884-27.276-8.412-39.673-15.82-17.205-10.283-27.635-25.254-28.772-45.207-.674-11.827.63-23.952 2.541-35.7 3.106-19.1 14.531-31.639 33.226-37.27 2.863-.861 5.68-2.039 8.608-2.49 15.078-2.32 30.185-4.452 46.593-6.29.88-.168 1.759-.336 4.488-.163 116.11-.006 232.218-.016 348.327-.014 21.966 0 43.871.837 65.597 4.476 22.564 3.78 44.077 9.954 62.213 25.49-.297.197-.595.394-.51 1.967 6.132 10.673 11.493 21.644 13.06 34.062.91 7.21 1.612 14.45 2.664 21.639 2.302 15.735 11.243 24.291 27.393 24.611 24.656.49 49.335.458 73.992.003 14.065-.26 23.596-9.208 26.069-23.019.581-3.247.73-6.622.654-9.928-.525-23.279-3.83-46.107-10.61-68.457-10.788-35.564-30.54-64.985-60.396-87.074-36.264-26.83-77.768-39.796-123.161-44.578-.333.073-.666.147-2.39-.652-20.944-1.051-41.884-2.952-62.83-3.012-108.32-.308-216.643-.15-324.965-.124-3.648 0-7.296.33-12.774.054-6.296-.016-12.595-.16-18.888-.025-19.192.412-38.421.465-58.677 4.36-1.325.35-2.65.701-5.18.943-1.206.862-2.412 1.724-5.377 2.787-7.71-.127-15.37.045-23.971 3.948-9.407 3.41-18.813 6.82-28.115 10.321 0 0-.033-.134-1.521-.064-45.368 18.998-77.586 50.825-93.723 97.662-15.24 44.237-16.316 89.37-5.647 134.72 9.636 40.963 32.223 73.263 67.05 96.973 19.74 13.438 41.446 22.575 64.195 29.38 44.314 13.257 89.937 18.556 135.883 19.782 46.582 1.244 93.223.312 139.838.214 3.232-.007 6.462-1.003 11.572-1.193 50.206-.078 100.412-.156 151.64.468 2.906-.003 5.811-.005 10.418.48 6.872.622 13.765 1.068 20.611 1.903 12.378 1.511 24.79 2.884 37.072 4.989 18.053 3.094 34.743 10.142 50.915 19.118 0 0 .257-.017.985 1.216 12.46 10.278 21.274 22.746 24.132 39.027 2.515 14.333 1.33 28.52-.824 42.741-3.904 25.769-18.712 41.89-43.368 49.41-1.583.482-3.149 1.024-4.728 1.52-25.11 7.901-51.07 8.805-77.04 8.845-99.292.152-198.585.247-297.876-.093-23.94-.081-47.92-1.29-71.791-3.152-17.224-1.343-34.02-5.684-50.243-11.973-21.054-8.161-33.503-23.443-37.59-45.414-1.82-9.787-2.417-19.794-3.905-29.65-1.967-13.032-11.96-22.521-25.144-22.737-25.647-.42-51.307-.232-76.96-.081-6.497.038-12.413 2.093-17.293 7.914-.571.336-.824.834-2.053 2.14-4.84 5.674-5.867 12.537-5.864 19.618.002 5.318.378 10.636.615 15.953 1.575 35.301 11.308 68.106 30.956 97.582 9.576 14.366 19.987 28.23 35.183 37.283 0 0-.315.28.285 1.448 5.145 3.676 10.29 7.352 15.94 10.396 0 0-.589.554.094 1.664 18.866 13.46 39.779 22.572 61.909 29.072 27.518 8.082 55.579 12.63 86.13 13.268 1.33.034 2.66.098 3.99.098 124.086.008 248.173.014 372.259-.008 2.644 0 5.289-.33 9.27-.02 6.226-.526 12.453-1.053 20.215-1.176m-868.034 78.473c-.041 18.706-.083 37.411.242 55.934 0 0-.257-.319-1.598.268-5.516 2.132-10.87 5.062-16.583 6.213-9.182 1.85-12.996-1.457-13.947-10.623-.308-2.96-.279-5.963-.286-8.946-.03-12.94.025-25.882-.053-38.822-.015-2.508-.487-5.013-.756-7.592-7.382 0-13.964 0-21.849-.424-.89.137-1.782.274-4.24-.015-1.036 1.015-2.968 2.026-2.974 3.047-.114 20.622-.764 41.285.31 61.855.774 14.825 9.94 22.567 24.806 23.65 9.863.718 19.13-1.73 27.866-6.273 3.116-1.62 6.227-3.247 9.483-4.946l3.56 8.616h25.307c0-27.621.004-54.544-.018-81.468-.001-.983.058-2.53-.474-2.837-1.268-.729-2.873-.872-6.08-1.653-4.741.143-9.483.286-15.742-.007-2.242.487-5.379-1.652-6.974 4.023m-85.688-35.513c-6.548.533-13.097 1.067-20.303 3.388-.028 7.654-.078 15.307-.08 22.96-.007 27.62-.074 55.241.123 82.86.02 2.78-2.378 6.828 4.33 8.762h23.037c.79-1.644 1.302-2.215 1.304-2.787.11-37.15.2-74.3.142-111.45-.002-1.092-1.618-2.18-3.633-3.695-1.141.302-2.283.603-4.92-.038m105.722-704.47c-.032 1.664-.09 3.328-.09 4.993-.002 206.77 0 413.54.03 620.311 0 2.975.363 5.95.302 10.412 2.306 12.483 9.765 19.863 23.971 22.896 18.727.041 37.455.188 56.18.018 3.012-.027 6.012-1.462 9.497-1.876 0 0 .492-.352 1.559-.024.328-.176.656-.35 2.406-.484 9.928-5.038 14.303-13.446 14.675-24.255.092-2.663.066-5.331.066-7.997q.009-306.455.004-612.91c0-3.998.059-8.004-.15-11.994-.84-16.158-11.487-26.63-27.557-26.792-17.329-.175-34.662-.135-51.991-.001-16.341.126-26.301 9.309-28.902 27.703M231.488 924.052c11.534-3.225 17.8-11.191 19.865-22.62.644-3.567.463-7.303.463-10.962.02-205.974.019-411.948.016-617.922 0-2.333.087-4.675-.087-6.997-1.283-17.168-12.122-27.34-29.35-27.417-17.331-.08-34.666-.21-51.993.05-15.08.226-25.641 10.207-27.158 25.21-.401 3.967-.445 7.982-.445 11.975-.029 204.975-.036 409.949-.032 614.923 0 2.996.016 6.005.278 8.986 1.243 14.089 8.327 21.697 24.713 25.196 20.762-.19 41.525-.382 63.73-.422m-78.284 57.942h-11.006v105.177c1.202.512 1.788.978 2.375.98 23.321.081 46.646.394 69.961.03 9.39-.147 18.072-3.234 26.148-8.664 14.67-9.863 12.699-37.137-4.901-43.744-4.379-1.644-8.765-3.27-13.775-5.138 4.918-2.313 9.316-3.863 13.165-6.284 13.972-8.79 14.184-26.335.541-35.54-6.789-4.582-14.308-6.811-22.577-6.776-19.325.083-38.652-.013-59.93-.04m818.82 107.139c9.074-.883 17.63-3.44 25.414-8.233 9.902-6.098 14.949-15.102 14.372-26.68-.559-11.225-6.178-19.607-16.577-24.114a111 111 0 0 0-17.886-5.978c-9.992-2.43-20.185-4.025-30.19-6.408-7.233-1.724-10.843-5.2-10.545-8.953.317-3.991 5.48-7.317 12.53-8.013 1.322-.13 2.678-.212 3.991-.071 9.218.99 18.447 1.91 27.635 3.13 5.765.767 11.465 2.02 17.998 3.198l2.29-20.598c-1.358-.849-2.13-1.648-3.035-1.85-16.31-3.64-32.859-5.819-49.503-4.192-8.46.827-17.028 3.106-24.952 6.238-11.642 4.6-17.424 14.117-17.343 26.68.083 12.801 6.634 21.546 18.57 25.576 9.407 3.175 19.175 5.29 28.802 7.8 7.056 1.84 14.316 3.084 21.134 5.562 2.623.953 6.203 4.868 5.901 6.93-.425 2.913-3.555 6.522-6.418 7.734-4.455 1.888-9.726 3.007-14.53 2.68-10.894-.744-21.72-2.524-32.562-3.976-3.808-.51-7.58-1.293-11.897-2.043l-5.384 19.797c11.355 5.06 42.41 8.104 62.185 5.784m-152.385 17.615c17.194-6.97 21.719-13.464 21.758-31.562.049-22.32.033-44.64-.017-66.96-.006-2.549-.408-5.096-.62-7.583h-21.153l-3.754 9.582c-2.626-2.022-4.383-3.536-6.294-4.821-15.885-10.69-40.884-6.986-52.323 8.001-6.774 8.874-8.277 19.27-8.096 30.233.49 29.561 27.107 46.352 53.782 33.685 2.92-1.387 5.784-2.894 8.888-4.453 2.488 13.284-.15 17.843-12.02 19.604a77.4 77.4 0 0 1-19.792.353c-7.11-.8-14.06-3.027-21.82-4.8l-3.874 15.773c21.718 6.814 42.513 9.593 65.335 2.948m-306.87 1.56c3.288.496 6.567 1.07 9.866 1.475 13.015 1.597 25.904 1.184 38.493-2.843 16.374-5.237 22.552-13.635 22.61-30.865.074-22.628.05-45.256 0-67.884-.006-2.531-.449-5.06-.74-8.119h-21.242l-3.247 10.524c-2.906-2.226-4.909-3.928-7.073-5.391-15.269-10.323-40.447-6.72-51.552 7.657-7.01 9.074-8.926 19.71-8.679 31.043.641 29.323 27.588 46.035 54.109 33.335 2.862-1.37 5.664-2.866 8.768-4.442 2.21 13.76-.216 17.932-12.202 19.736-6.478.974-13.27 1.048-19.78.307-7.087-.806-14.014-3.027-21.816-4.816l-3.568 15.929c5.516 1.494 9.98 2.703 16.052 4.354m1591.674-45.867h-60.688v-79.798h-36.582v105.095h104.774c0-7.254-.094-13.854.034-20.45.08-4.106-2.11-5.178-7.538-4.847m-1628.516 8.344c-.002-14.325.258-28.656-.077-42.973-.374-15.931-8.855-28.626-28.923-28.22-9.24.188-17.713 2.42-25.773 6.66-2.608 1.372-5.12 2.925-7.847 4.494l-4.128-8.556h-23.882v86.168c9.882-.316 19.043.945 28.646-1.005v-10.442c0-13.991-.084-27.984.08-41.973.028-2.496.25-6.14 1.814-7.262 5.973-4.287 12.678-7.545 20.372-6.85 4.89.443 7.729 3.977 8.898 8.35.93 3.48 1.092 7.237 1.124 10.874.118 13.324.012 26.65.058 39.975.009 2.542.326 5.083.521 7.923h29.118zm194.675-60.598-3.337-7.913h-24.6v85.369h29.237v-10.549c0-13.976.246-27.958-.119-41.924-.143-5.479 1.496-8.914 6.733-10.593 1.893-.607 3.67-1.569 5.548-2.229 12.514-4.398 19.392.108 19.725 13.52.356 14.3.068 28.614.133 42.923.013 2.89.351 5.78.566 9.08 10.063.701 19.447.818 29.32.053 0-21.074.058-40.997-.069-60.92-.017-2.604-.853-5.236-1.527-7.798-3.237-12.296-10.853-18.284-23.323-19.4-13.647-1.222-25.47 3.317-38.287 10.381m1165.19 26.47c-.134 4.31-.62 8.644-.339 12.928 1.288 19.613 13.112 34.153 31.746 38.723 9.74 2.388 19.613 2.896 29.635.923 21.015-4.138 33.123-15.753 36.276-36.778 3.424-22.826-6.98-45.81-34.046-51.48-6.4-1.341-13.199-1.022-19.816-1.052-20.273-.094-39.498 12.84-43.457 36.736m-728.69 41.471c6.994-6.733 10.798-15.163 12.166-24.568 3.513-24.16-6.589-46.568-33.924-52.57-6.385-1.403-13.216-1.18-19.83-1.064-29.175.508-48.102 22.54-43.265 53.972 2.78 18.063 13.33 29.608 30.664 34.136 18.787 4.909 36.952 3.26 54.189-9.906m394.15-55.89c-6.31-11.486-15.986-19.172-28.765-20.873-10.34-1.376-21.356-1.774-31.492.269-19.747 3.98-30.16 16.552-32.484 36.526-.642 5.516-.208 11.282.572 16.815 2.256 16.005 11.761 26.396 26.618 31.832 14.234 5.208 28.71 4.967 42.968-.05 15.973-5.62 24.878-17.385 26.97-33.876 1.256-9.891.846-19.934-4.387-30.644m713.004-55.952c-6.922.565-14.032.32-20.725 1.872-12.094 2.805-17.745 10.566-18.14 22.936-.105 3.287-.016 6.581-.016 10.47-3.65.169-6.577.279-9.499.447-2.872.166-5.74.39-8.835.606v14.84c3.43.202 6.33.35 9.226.55 2.835.193 5.668.438 9.572.744v79.954h29.597v-81.003h21.942v-15.652h-21.373c-.52-5.857-2.06-11.042 1.895-15.022 5.018-5.05 11.356-.745 17.652-1.09.4-5.694 3.898-10.731 1.137-16.822-3.647-.892-7.163-1.753-12.433-2.83m48.534 34.595c-39.473 11.766-36.622 61.211-16.746 77.738 14.874 12.368 43.981 15.868 61.264 6.459.511-.279.76-1.04 1.621-2.286l-5.683-13.986c-1.575.23-2.51.364-3.445.502-9.263 1.369-18.574 2.339-27.446-1.593-6.376-2.825-10.689-7.352-9.908-16.097h53.43c0-5.898.515-10.893-.09-15.747-2.656-21.327-19.124-36.56-38.413-36.093-4.321.104-8.637.385-14.584 1.103m-935.442 89.492c9.22-.105 18.287-.887 27.083-5.098l-4.632-17.059c-3.959.67-6.852 1.488-9.77 1.581-5.68.182-9.87-3.123-10.015-8.808-.356-13.886-.116-27.787-.116-42.663h23.579v-16.657h-23.767v-29.811l-30.268 4.857v24.606l-17.96.862v16.144l18.336.837c0 14.809-.017 28.414.003 42.02.032 20.74 4.785 26.101 27.527 29.189m479.514.042c7.023-1.382 14.52-.986 21.4-5.295l-3.62-15.822c-1.247-.542-1.575-.823-1.855-.782-1.622.241-3.228.585-4.848.845-9.465 1.519-13.737-1.965-14.022-11.585-.138-4.657-.037-9.322-.038-13.983-.003-8.182-.001-16.364-.001-25.575h23.71v-16.62h-23.889v-29.769l-29.932 4.91v24.556l-17.95.813v16.81h17.513c.275 3.127.64 5.398.648 7.67.05 12.985-.174 25.974.06 38.955.277 15.288 5.907 21.606 21.04 24.092 3.268.537 6.622.552 11.784.78m-168.616-1.804c6.276.678 12.601 2.196 18.815 1.83 8.519-.501 17.268-1.441 25.34-4.011 9.177-2.922 14.442-10.377 15.366-20.227.907-9.67-3.854-16.707-11.531-21.71-4.123-2.685-8.93-4.341-13.483-6.34-5.163-2.266-10.45-4.262-15.563-6.633-3.498-1.622-6.352-4.18-5.325-8.525 1.053-4.455 4.535-6.938 8.855-6.44 4.84.56 9.57 2.232 14.29 3.621 3.947 1.163 7.148 4.828 12.3 3.755l3.675-17.908c-6.153-1.928-11.388-4.239-16.856-5.146-12.23-2.028-24.506-2.408-36.055 3.396-9.15 4.6-13.877 12.15-14.03 22.372-.143 9.542 4.055 16.713 12.744 20.79 6.9 3.237 14.04 5.955 21.03 9.005 3.328 1.451 6.943 2.64 9.736 4.83 4.604 3.611 3.836 8.907-1.752 10.688-3.896 1.241-8.533 1.457-12.567.693-8.336-1.579-16.491-4.118-25.407-6.44l-3.732 18.98c4.843 1.222 8.656 2.183 14.15 3.42m-1308.132-75.926c.232-11.32-8.028-16.782-18.49-11.146-5.628 3.033-9.931 8.549-14.767 13.015-1.472 1.36-2.725 2.958-4.819 5.261l-3.084-17.509h-24.69v85.527c9.958.681 19.342 1.276 29.385-.421 0-14.542-.152-28.483.107-42.417.065-3.471.545-7.542 2.409-10.257 5.244-7.64 12.593-11.705 22.306-9.766 3.171.633 6.356 1.197 10.763 2.024.299-4.924.534-8.804.88-14.31m14.292 75.746h24.65c1.819-14.538 1.209-79.44-.838-86.771-8.988.237-18.14-.328-27.704.393 0 28.151-.032 55.087.092 82.022.007 1.376 1.355 2.745 3.8 4.356m283.506-13.609v-72.426h-29.115v85.462h29.116zm2369.512-828.878-2.518 41.291 10.199-.681 2.24-32.715 2.47-.265 10.682 32.513h11.185l11.119-32.852c5.24 10.955 3.603 22.311 5.36 33.92l10.475-.563-3.83-51.792h-15.397l-12.472 35.213-12.537-35.07h-15.677c-.44 3.421-.816 6.33-1.3 11m-29.897 41.274 8.61-.698v-41.98l15.074-.841c.25-2.295.589-4.21.607-6.128.008-.87-.62-1.746-.997-2.715h-43.29c.287 3.36.52 6.077.764 8.946l16.025.753c0 11.476-.122 22.059.074 32.635.058 3.152 1.004 6.288 3.133 10.028M2124.8 973.233c-4.024 4.05-4.906 8.56-1.73 13.476 2.734 4.231 9.212 5.916 15.28 4.16 5.254-1.519 7.693-4.74 7.668-10.123-.024-5.269-2.615-9.53-7.66-10.084-4.017-.44-8.243 1.01-13.558 2.571M368.149 987.494c3.492-4.548 3.385-9.28-.021-13.628-3.22-4.11-8.045-4.275-12.743-3.637-5.503.747-9.931 5.884-9.735 10.836.19 4.818 4.045 9.65 9.36 9.889 3.984.178 8.053-1.56 13.139-3.46m248.805-17.416c-1.648.098-3.413-.154-4.923.353-6.8 2.278-10.075 8.049-8.006 13.715 2.192 6.004 9.41 8.906 16.673 6.701 5.905-1.792 8.793-7.03 7.255-13.188-1.219-4.879-4.814-6.81-10.999-7.58m755.195 5.01c-2.06 4.96-2.39 9.739 2.153 13.548 4.195 3.518 9.155 3.617 14.06 1.996 8.021-2.65 9.798-11.583 3.618-17.38-4.825-4.527-10.996-4.32-19.83 1.836"/><path fill="#183d6d" d="M2262.11 874.335c-1.65 1.735-3.3 3.47-5.951 4.89-2.46.104-4.171.171-5.338 1.003-5.642 4.018-10.623 9.393-16.793 12.155-13.188 5.905-24.98 15.052-39.776 17.363-5.186.81-10.272 2.344-15.35 3.743-12.098 3.333-24.13 6.511-36.89 6.737-6.69.119-13.342 2.442-20.9 3.765-5.62.02-10.35.043-15.95.05-6.966.64-13.064 1.298-20.1 1.953-128.979-.01-257.021-.014-385.653-.605-15.05-1.788-29.503-3.536-43.894-4.766-17.523-1.498-33.582-7.346-49.838-12.32-16.02-4.9-31.4-12.33-45.205-22.42-1.744-1.275-4.88-.645-7.372-.897 0 0 .589-.554.402-.976-4.096-6.227-8.57-11.18-16.353-11.142 0 0 .315-.28.255-.81-4.534-5.401-9.049-10.234-13.467-15.154-2.871-3.197-5.528-6.588-8.408-9.777-9.848-10.905-17.41-23.432-23.031-36.777-5.218-12.388-11.674-24.48-12.73-38.467-.842-11.163-2.969-22.23-4.581-33.333-1.53-10.536-3.013-21.02 1.934-31.201.813-1.674.527-3.882.75-5.843-.068-.66.185-1.158 2.021-1.535 6.016-1.344 10.751-3.705 15.52-3.774 25.636-.373 51.284-.393 76.923-.077 11.196.137 20.303 9.412 21.712 20.602 1.237 9.827 2.1 19.749 4.143 29.414 2.928 13.85 9.035 26.38 19.929 35.793 8.654 7.477 19.278 11.53 30.03 15.14 28.269 9.491 57.756 12.678 87.094 12.575 114.473-.405 228.97 2.913 343.42-1.667 10.912-.437 21.948-.424 32.678-2.16 15.943-2.578 31.508-6.135 46.21-14.124 15.695-8.528 23.443-21.438 28.563-37.453 4.673-14.62 4.484-29.549 3.694-44.426-.69-13-4.004-25.724-13.127-35.623-4.456-4.835-7.646-12.197-16.152-11.769 0 0-.257.017-.463-.78-3.285-3.116-6.075-6.049-9.49-7.646-17.44-8.159-35.086-15.378-54.806-16.559-18.793-1.126-37.474-4.107-56.266-5.268-14.273-.882-28.645-.141-42.972-.229-3.304-.02-6.604-.511-9.91-.723-6.275-.402-12.564-1.198-18.828-1.035-10.423.272-20.823 1.485-31.246 1.728-13.654.319-27.323-.032-40.981.168-3.145.046-6.274 1.162-10.334 1.822-1.59.051-2.261.13-2.921.072-6.253-.55-12.504-1.579-18.754-1.562-6.575.017-13.163 1.661-19.718 1.497-34.571-.865-69.13 1.363-103.757-1.469-21.092-1.725-42.41-1.07-63.442-4.403-15.011-2.38-30.248-3.842-44.963-7.438-15.36-3.754-30.604-8.004-45.592-13.639-14.407-5.416-27.64-12.58-41.21-19.405-8.82-4.436-15.018-11.991-22.631-17.782-9.188-6.988-15.994-15.885-22.63-24.85-11.556-15.612-19.47-33.03-24.595-51.946-2.13-7.866-1.63-15.92-3.766-23.43-2.977-10.465-3.664-20.913-3.23-31.559.473-11.586 1.048-23.179 2.012-34.732 1.38-16.544 4.136-32.97 10.653-48.256 5.026-11.789 11.641-22.926 17.913-34.15 7.744-13.858 19.287-24.434 31.101-34.704 10.633-9.243 23.215-15.324 35.531-21.84 2.808-1.487 6.632-2.04 6.702-6.43 0 0 .033.133.84.13 11.255.783 20-4.48 29.824-8.052 1.535-.668 2.477-1.297 4.253-1.934 6.93-.708 13.028-1.407 19.936-2.183 15.74-1.999 30.623-4.601 45.614-5.643 13.805-.96 27.727-.242 42.534-.246 126.985.036 253.034.054 379.492.589 2.12.808 3.828 1.1 6.413 1.408 4.971.029 9.064.04 13.374.485.61.976 1.133 1.332 2.656 1.518 5.775.677 10.69 1.271 15.583 2.006 28.358 4.259 55.008 12.867 80.433 26.759 16.01 8.748 29.88 19.288 42.762 31.83 24.48 23.833 36.9 53.77 44.29 86.253 4.333 19.049 5.715 38.371 4.15 57.92-.773 9.656-10.163 19.235-20.096 19.27-25.299.086-50.599.147-75.896-.09-3.812-.036-7.81-1.246-11.374-2.742-10.125-4.25-12.499-13.58-12.513-22.985-.021-13.94-3.942-26.808-8.371-39.665-1.853-5.378-4.244-10.504-10.751-11.73.297-.197.595-.394.68-1.004-1.035-2.14-1.39-4.53-2.753-5.49-13.67-9.625-28.355-17.283-44.98-20.175-11.371-1.978-22.888-3.156-34.363-4.488-11.468-1.331-22.953-3.249-34.454-3.436-29.94-.486-59.891-.166-89.838-.165-85.515 0-171.03-.001-256.546.01-5.27 0-10.774-.8-14.841 3.863-.88.169-1.759.337-3.875-.272-3.185-1.058-5.13-1.563-7.08-1.587-19.121-.232-37.358 3.784-55.089 10.894-12.783 5.126-21.628 13.453-26.182 26.654-5.293 15.34-6.954 31.085-5.573 47.047.858 9.908 3.563 19.66 9.564 27.92 10.472 14.415 24.864 23.635 41.44 29.372 7.403 2.563 14.343 7.317 23.299 6.66 11.106 2.839 21.632 5.653 32.339 7.241 9.776 1.45 19.75 1.58 29.636 2.276 18.448 1.3 36.887 3.486 55.345 3.652 21.51.193 43.005.72 64.606-1.355 24.353-2.34 48.99-1.721 74.448-2.385 31.69.001 62.436-.001 94.025.012 4.418.665 8.006 1.936 11.565 1.86 25.621-.549 50.948 2.228 76.208 6.093 10.456 1.599 21.171 2.039 31.387 4.554a839 839 0 0 1 55.478 15.717c27.232 8.73 50.739 24.029 71.267 43.72 11.267 10.808 19.916 23.722 27.664 37.364 10.324 18.18 16.617 37.537 19.559 58.085a354 354 0 0 1 2.605 23.659c.644 8.58 1.872 17.307.985 25.775-1.858 17.723-4.565 35.382-7.6 52.95-4.606 26.65-15.484 50.56-32.382 71.809-3.951 4.969-10.17 9.009-9.522 16.733"/><path fill="#183e6e" d="M986.613 640.875s-.197-.134-.719-.876c-2.526-.897-4.53-1.051-6.535-1.206 0 0 .328.051.115-.535-2.711-3.075-5.131-2.882-7.484-.374-1.115-.085-2.231-.17-4.093-1.374-3.87-1.57-6.993-2.02-10.551-2.483-.435-.011-1.303-.086-1.903-.666-10.263-.827-19.925-1.075-30.404-1.305-3.54.01-6.263.002-9.578-.606-3.21-.881-5.828-1.407-8.445-1.408-136.566-.04-273.131-.048-409.697.05-3.119.002-6.237 1.266-9.827 2.225-.894 1.256-1.317 2.228-1.74 3.2 0 0 .156.211-.71.529-1.537 4.08-2.792 7.843-2.798 11.607-.11 79.882-.08 159.765-.077 239.648 0 2.663.077 5.33-.028 7.988-.559 14.132-11.512 24.82-25.557 24.849-23.632.047-47.277-.443-70.89.24-9.7.28-16.716-2.974-22.57-10.074-1.68-2.036-3.34-4.09-5.035-7.082-.046-213.041-.064-425.134 0-637.96 2.558-12.63 9.268-20.491 21.54-22.733 3.235-.59 6.618-.511 9.933-.513 59.285-.026 118.574-.427 177.855.071 113.155.95 226.331-2.513 339.474 1.794 19.566.745 38.847 3.125 58.2 5.804 31.027 4.295 59.89 14.66 87.112 29.603 17.566 9.643 32.726 22.382 45.088 38.53 8.962 11.707 15.429 24.546 21.655 37.757 8.07 17.124 11.654 35.428 12.673 53.796 1.504 27.119 1.692 54.454-5.703 81.098-5.068 18.265-9.952 36.575-23.881 50.696-1.558 1.58-2.548 3.917-3.174 6.083-.166.576 2 1.825 3.096 2.764.7.082 1.271.398 1.95 2.112 2.218 3.761 4.046 6.494 6.207 8.931 7.703 8.686 16.411 16.636 23.105 26.03 13.455 18.879 21.513 40.227 24.839 63.23.992 6.86 1.45 13.8 2.137 20.705 1.275 12.818 3.551 25.632 3.635 38.46.392 59.602.245 119.209.063 178.814-.017 5.544-1.087 11.242-2.627 16.592-2.824 9.812-9.524 15.038-20.797 15.08-25.64.096-51.285-.283-76.919.148-15.31.257-28.726-14.665-27.526-28.032.65-7.242 1.608-14.47 1.92-21.726.844-19.557 1.415-39.125 2.102-58.688.035-.996.139-1.99.224-2.984 1.245-14.49 2.946-28.96 3.607-43.477.62-13.625.358-27.304.094-40.951-.436-22.444-4.932-44.115-16.967-63.218-6.174-9.8-15.1-17.742-28.459-16.627l-.848.385s-.909-.2-1.498-1.23c-3.01-4.711-6.39-3.202-9.584-2.691m-13.091-262.068s-.114.376-.468-1.244c-2.08-.477-4.16-.954-6.59-1.082 0 0-.426-.249-.786-1.885-2.44-4.072-5.989-2.255-9.44-1.706 0 0-.152.032-.673-1.3-2.499-1.19-4.998-2.38-9.379-3.583-2.52.122-5.039.245-7.2.747 0 0-.378.36-1.335-1.07-3.22-.59-6.442-1.178-10.77-2.868-4.268-.264-8.535-.528-14.687-.803l-402.195-.018c-5.988 0-11.988-.223-17.957.108-2.012.111-3.946 1.618-5.748 2.15 0 0 .283.247-1.007.01-1.085.569-2.17 1.137-3.276 3.585q-.011 57.255-.02 114.508c0 5.31.066 10.622-.001 15.931-.038 2.945.555 5.298 4.01 5.713 0 0 .004-.007.378 1.58 2.524 4.096 6.607 2.344 9.973 2.346 140.563.085 281.127.062 423.294-.15 7.09-1.26 14.138-2.916 21.28-3.698 13.017-1.424 24.836-6.431 36.36-12.001 5.208-2.518 9.668-6.778 14.037-10.724 1.361-1.23 1.312-4.02 2.195-5.877 0 0-.324.159.954-.16.49-1.155.98-2.312 1.525-3.343 0 0-.134-.024 1.326-.153 2.168-2.697 5.563-5.113 6.257-8.148 1.616-7.059 7.181-13.844 2.256-23.034.25-.889.498-1.777 2.15-3.134.661-1.73 2.09-3.574 1.854-5.17-1.247-8.435-2.71-16.853-4.6-25.162-.393-1.73-2.901-2.978-4.061-4.697 0 0 .01.449.115-.786-.605-.5-1.21-.999-1.525-1.497 0 0-.094.274.048-1.297.31-4.478-1.75-6.771-7.373-7.152-1.539-1.693-3.078-3.387-4.635-6.604-1.604-5.515-5.445-7.085-10.42-6.287 0 0-.133.348-.249-1.149-1.323-.24-2.646-.482-3.617-.896"/><path fill="#fbb44e" d="M2858 663.992a150 150 0 0 0 3.664 4.442c10.631 10.408 20.484 19.985 30.336 29.562 0 0 0 .004.219.637 10.74 10.875 21.26 21.117 31.781 31.358 0 0 0 .009.22.644 5.054 7.209 12.94 11.273 16.383 19.733-2.397 2.614-4.531 5.124-6.854 7.446-58.203 58.21-116.432 116.392-174.643 174.594-47.84 47.835-95.65 95.701-143.532 143.495-2.65 2.644-4.818 6.251-9.989 6.984v-17.491c-.015-207.294-.031-414.588-.04-621.882 0-6.999-.027-14 .172-20.994.058-2.057.85-4.094 1.612-7.519 3.714 3.48 6.42 5.875 8.971 8.424 36.073 36.038 72.115 72.107 108.206 108.125 2.324 2.32 4.995 4.29 7.505 6.423.348.562.697 1.124 1.74 2.488a48176 48176 0 0 0 90.98 91.365c.904.906 2.178 1.444 3.28 2.153 0 0-.011.021.211.65 6.075 6.207 11.927 11.784 17.779 17.362 0 0-.001.009.215.635 4.073 4.206 7.928 7.786 11.784 11.366"/><path fill="#1a3f6e" d="M165.92 923.992c-14.548-3.017-21.632-10.625-22.875-24.714-.262-2.98-.278-5.99-.278-8.986-.004-204.974.003-409.948.032-614.923 0-3.993.044-8.008.445-11.975 1.517-15.003 12.078-24.984 27.158-25.21 17.327-.26 34.662-.13 51.992-.05 17.23.078 28.068 10.249 29.351 27.417.174 2.322.087 4.664.087 6.997.003 205.974.004 411.948-.016 617.922 0 3.659.18 7.395-.463 10.962-2.065 11.429-8.33 19.395-21.196 21.968-21.183-.87-41.035-1.117-60.887-1.22-1.114-.006-2.234 1.18-3.35 1.812"/><path fill="#173d6e" d="M1281.946 923.903c-12.383-2.504-19.842-9.884-21.436-23.714.98-5.304 1.479-9.262 1.48-13.22.044-207.656.047-415.314.598-623.391 1.51-2.523 2.307-4.724 3.473-6.71 4.49-7.653 9.829-14.653 19.674-14.799 18.99-.28 37.998-.414 56.974.179 4.564.142 10.88 2.108 13.15 5.442 4.425 6.493 8.473 13.2 8.456 22.46-.385 207.274-.295 414.548-.296 621.823 0 2 .072 4.002-.022 5.998-.293 6.181-2.079 11.682-6.878 16.005-1.948 1.754-3.44 4.014-5.6 6.283-.834.814-1.207 1.388-1.58 1.963 0 0-.493.352-1.739.11-20.125-.278-39.005-.391-57.884-.26-2.794.02-5.58 1.192-8.37 1.831"/><path fill="#4bc1e0" d="M2708.114 409.718a9869 9869 0 0 1 15.688 16.555c3.972 3.731 7.14 6.59 10.309 9.448a22465 22465 0 0 1 37.715 38.554c11.299 11.082 21.789 21.274 32.278 31.466.386.585.771 1.171 1.844 2.59 4.996 4.598 9.304 8.363 13.613 12.128 0 0 .42-.45.321.415 4.008 4.865 8.115 8.865 12.222 12.864 3.63 3.89 7.26 7.778 11.69 12.538 3.973 3.73 7.144 6.587 10.315 9.444a245 245 0 0 0 3.772 4.595l10.4 11.652c-10.156 12.676-34.851 36.561-43.22 41.046-1.747-2.381-3.58-5.683-6.144-8.256a97624 97624 0 0 0-157.55-157.608c-2.766-2.762-6.1-4.955-9.17-7.414 0 0-.146.211-.192-.515-6.19-7.149-12.19-13.719-18.532-19.942-4.177-4.1-8.846-7.7-13.296-11.523 0 0-.133.2-.188-.521-7.305-7.644-14.554-14.566-21.804-21.488 0 0-.118.243-.187-.52-1.981-2.76-3.894-4.757-7.172-8.18-.44 4.018-.815 5.889-.824 7.761-.065 12.665-.064 25.33-.064 37.994 0 139.312-.048 278.623.148 417.934.01 7.565-1.908 13.128-7.496 18.406-13.077 12.353-25.59 25.307-38.233 38.114-3.246 3.288-6.129 6.933-9.179 10.415-1.025-.256-2.05-.512-3.24-2.092-.134-1.99-.077-2.656-.077-3.322.008-217.803.014-435.606-.012-653.41 0-2.974-.403-5.947-.618-8.921.537-1.084 1.074-2.167 2.405-2.976 3.355 2.439 5.916 4.603 8.477 6.768.996 1.249 1.993 2.498 3.745 4.585 3.92 3.705 7.083 6.57 10.247 9.436 3.659 3.881 7.318 7.763 11.769 12.512 3.94 3.738 7.087 6.608 10.235 9.477 3.643 3.887 7.287 7.773 11.734 12.545 4.448 3.98 8.093 7.076 11.738 10.171 0 0 .39-.408.277.387 1.347 2.147 2.806 3.499 4.266 4.85a4115 4115 0 0 0 7.692 8.544c3.29 3.084 5.8 5.315 8.31 7.547 0 0-.064.165.215.77 6.109 6.129 11.939 11.654 17.77 17.18.386.589.773 1.178 1.842 2.596 4.505 4.362 8.328 7.895 12.15 11.427.387.585.773 1.17 1.819 2.547 2.503 2.334 4.347 3.875 6.192 5.417.392.59.784 1.18 1.86 2.6 4.503 4.354 8.32 7.88 12.139 11.405a9358 9358 0 0 1 15.71 16.563c5.973 5.737 11.132 10.59 16.29 15.442"/><path fill="#1e3f6b" d="M154.18 981.997c20.303.025 39.63.121 58.955.038 8.27-.035 15.788 2.194 22.577 6.775 13.643 9.206 13.43 26.75-.541 35.54-3.85 2.422-8.247 3.972-13.165 6.285 5.01 1.868 9.396 3.494 13.775 5.138 17.6 6.607 19.57 33.88 4.9 43.744-8.075 5.43-16.757 8.517-26.147 8.664-23.315.364-46.64.051-69.96-.03-.588-.002-1.174-.468-2.376-.98V981.994c3.88 0 7.443 0 11.982.003m54.285 62.363c-9.699-6.596-20.257-3.258-31.508-3.836 0 7.417-.044 13.674.02 19.929.03 2.93.267 5.86.448 9.547 7.709 0 15.043.79 22.142-.167 14.12-1.903 18.406-12.894 8.898-25.473m-16.192-20.644c3.544-.752 7.24-1.1 10.596-2.355 4.476-1.674 8.262-4.492 8.361-9.967.08-4.34-3.78-8.93-9.355-10.324a54.9 54.9 0 0 0-24.058-.618v23.349c4.822 0 8.771 0 14.456-.085"/><path fill="#eff8f0" d="M2652.186 440.448c3.08 1.746 6.415 3.94 9.182 6.701a97624 97624 0 0 1 157.549 157.608c2.564 2.573 4.397 5.875 6.145 8.256 8.368-4.485 33.063-28.37 43.219-41.046-3.134-3.512-6.386-7.155-9.827-11.435 6.177-1.018 9.222 3.816 12.39 7.913 2.282 2.951 1.31 6.332-1.359 9.001-11.522 11.526-22.869 23.236-34.654 34.486-5.463 5.215-9.014 4.67-15.356-1.544-12.352-12.104-24.5-24.419-36.73-36.648q-32.008-32.012-64.02-64.022c-6.053-6.054-12.12-12.095-18.173-18.15-2.701-2.703-5.504-4.93-10.355-1.854 1.575 2.092 2.857 4.262 4.576 6.002 10.518 10.648 21.242 21.095 31.637 31.86 2.39 2.476 3.76 5.934 5.6 9.669-2.509-1.405-5.18-3.376-7.504-5.695-36.091-36.018-72.133-72.087-108.206-108.125-2.552-2.549-5.257-4.944-8.97-8.424-.763 3.425-1.555 5.462-1.613 7.52-.199 6.993-.173 13.994-.172 20.993.009 207.294.025 414.588.04 621.882v17.49c5.171-.732 7.34-4.339 9.989-6.983 47.882-47.794 95.691-95.66 143.532-143.495 58.211-58.202 116.44-116.385 174.643-174.594 2.323-2.322 4.457-4.832 6.854-7.446-3.442-8.46-11.329-12.524-16.38-19.734 5.08-1.147 8.332 2.312 11.707 5.513 1.906 1.808 3.592 3.907 5.702 5.424 4.737 3.406 6.068 5.93 2.952 10.271-4.023 5.61-8.93 10.623-13.742 15.617-2.973 3.086-6.718 5.426-9.706 8.5-17.302 17.797-34.43 35.762-51.723 53.566-8.52 8.77-17.27 17.319-25.916 25.966l-35.84 35.839-30.182 30.186-30.892 30.889c-10.06 10.06-20.149 20.094-30.173 30.192-10.465 10.544-22.986 19.076-30.714 32.339-1.702 2.921-5.844 4.308-8.412 6.855-19.33 19.172-38.546 38.458-57.799 57.707a1004 1004 0 0 1-5.673 5.637c-3.22 3.168-6.78 3.867-11.265 1.303-.17-1.75-.503-3.686-.525-5.626-.686-59.565-1.366-119.13-1.944-178.696-.035-3.605.778-7.216 1.181-10.826.257-2.304 1.056-4.72.64-6.899-3.288-17.188 1.665-34.32.137-51.493-.91-10.224-1.845-20.487-1.892-30.737-.06-13.488 1.116-26.982 1.078-40.471-.05-17.49-1.074-34.979-1.108-52.47-.029-14.489 1.127-28.98 1.106-43.47-.023-16.49-1.091-32.98-1.106-49.47-.013-15.156.897-30.312 1.124-45.472.068-4.6-1.209-9.22-1.143-13.821.24-16.826.977-33.646 1.135-50.471.071-7.603-1.176-15.218-1.092-22.82.075-6.851.26-13.677.194-20.54-.157-16.516 1.29-33.046 2.142-50.676 2.918 0 5.882-.873 7.783.178 4.192 2.317 8.087 5.34 11.643 8.582 2.634 2.4 4.3 5.835 6.815 8.398 10.412 10.61 20.428 21.714 31.708 31.323 6.53 5.561 11.446 12.37 17.649 18.044 2.263 2.07 4.932 3.699 7.505 5.594 3.957-4.954.782-7.166-1.431-9.41-8.658-8.778-17.479-17.396-26.081-26.227-2.256-2.316-3.942-5.186-5.88-8.514"/><path fill="#20406a" d="M971.127 1089.297c-18.877 2.157-49.932-.887-61.287-5.947l5.384-19.797c4.318.75 8.09 1.533 11.897 2.043 10.842 1.452 21.668 3.232 32.562 3.975 4.804.328 10.075-.791 14.53-2.679 2.863-1.212 5.993-4.821 6.418-7.734.302-2.062-3.278-5.977-5.901-6.93-6.818-2.478-14.078-3.723-21.134-5.562-9.627-2.51-19.395-4.625-28.801-7.8-11.937-4.03-18.488-12.775-18.57-25.577-.082-12.562 5.7-22.079 17.342-26.68 7.924-3.13 16.493-5.41 24.952-6.237 16.644-1.627 33.192.552 49.503 4.192.905.202 1.677 1.001 3.035 1.85l-2.29 20.598c-6.533-1.179-12.233-2.431-17.998-3.197-9.188-1.222-18.417-2.14-27.635-3.131-1.313-.141-2.67-.06-3.99.071-7.051.696-12.214 4.022-12.53 8.013-.3 3.753 3.31 7.23 10.545 8.953 10.004 2.383 20.197 3.979 30.19 6.408a111 111 0 0 1 17.885 5.978c10.4 4.507 16.018 12.889 16.577 24.113.577 11.58-4.47 20.583-14.372 26.681-7.784 4.794-16.34 7.35-26.312 8.396"/><path fill="#21416b" d="M818.875 1106.968c-22.057 6.426-42.852 3.647-64.57-3.167l3.874-15.774c7.76 1.774 14.71 4.001 21.82 4.8 6.515.734 13.304.61 19.792-.352 11.87-1.761 14.508-6.32 12.02-19.604-3.104 1.559-5.967 3.066-8.888 4.453-26.675 12.667-53.292-4.124-53.782-33.685-.181-10.964 1.322-21.36 8.096-30.233 11.439-14.987 36.438-18.69 52.323-8.001 1.91 1.285 3.668 2.799 6.294 4.82l3.754-9.58h21.152c.213 2.486.615 5.033.62 7.581.05 22.32.067 44.64.018 66.961-.04 18.098-4.564 24.591-22.523 31.781m-11.618-83.489c-3.385-1.294-6.67-3.166-10.174-3.768-8.725-1.5-16.498 2.318-18.368 9.801-1.487 5.948-1.88 12.43-1.348 18.553.672 7.73 4.778 13.846 12.842 15.97 8.25 2.175 15.849-.888 20.73-6.78 5.625-6.786 1.353-15.976 2.42-24.031.538-4.061-.818-7.16-6.102-9.745"/><path fill="#20406a" d="M511.966 1108.088c-5.269-1.43-9.733-2.64-15.249-4.133l3.568-15.929c7.802 1.789 14.729 4.01 21.816 4.816 6.51.741 13.302.667 19.78-.307 11.986-1.804 14.412-5.977 12.202-19.736-3.104 1.576-5.906 3.071-8.768 4.442-26.52 12.7-53.468-4.012-54.109-33.335-.247-11.334 1.67-21.968 8.68-31.043 11.104-14.377 36.282-17.98 51.55-7.657 2.165 1.463 4.168 3.165 7.074 5.391l3.247-10.524H583c.29 3.058.733 5.588.739 8.119.05 22.628.074 45.256 0 67.884-.058 17.23-6.236 25.628-22.61 30.865-12.589 4.027-25.478 4.44-38.493 2.843-3.3-.405-6.578-.979-10.67-1.696m32.95-45.292c8.181-3.045 12.114-8.553 10.574-17.554-.44-2.573-.059-5.286-.063-7.935-.018-10.745-1.19-12.534-10.642-16.277-12.786-5.063-23.216.895-25.285 14.595-.489 3.238-.811 6.615-.46 9.847 1.606 14.786 9.413 20.472 25.876 17.324"/><path fill="#21426d" d="M2105.38 1062.441c4.49-.33 6.682.742 6.601 4.847-.128 6.597-.034 13.197-.034 20.451h-104.774V982.644h36.582v79.798z"/><path fill="#21416c" d="M475.928 1071.743v16.206H446.81c-.195-2.84-.512-5.38-.52-7.923-.047-13.325.059-26.65-.059-39.975-.032-3.637-.193-7.393-1.124-10.873-1.17-4.374-4.008-7.908-8.898-8.35-7.694-.696-14.4 2.562-20.372 6.849-1.563 1.122-1.786 4.766-1.815 7.262-.163 13.99-.079 27.982-.079 41.973v10.442c-9.603 1.95-18.764.689-28.646 1.005v-86.168h23.882l4.128 8.556c2.727-1.569 5.24-3.122 7.847-4.494 8.06-4.24 16.533-6.472 25.773-6.66 20.068-.406 28.55 12.289 28.923 28.22.335 14.317.075 28.648.078 43.93"/><path fill="#20406a" d="M671.408 1010.184c12.011-7.06 23.834-11.599 37.48-10.377 12.47 1.116 20.087 7.104 23.324 19.4.674 2.562 1.51 5.194 1.527 7.799.127 19.922.07 39.845.07 60.919-9.874.765-19.258.648-29.321-.053-.215-3.3-.553-6.19-.566-9.08-.065-14.309.223-28.624-.133-42.924-.333-13.41-7.211-17.917-19.725-13.519-1.878.66-3.655 1.622-5.548 2.23-5.237 1.678-6.876 5.113-6.733 10.592.365 13.966.12 27.948.119 41.924v10.549h-29.238v-85.37h24.6c1.067 2.528 2.203 5.221 4.144 7.91"/><path fill="#1f3f6a" d="M1835.93 1035.85c3.82-23.088 23.045-36.022 43.318-35.928 6.617.03 13.415-.29 19.816 1.052 27.066 5.67 37.47 28.654 34.046 51.48-3.153 21.025-15.261 32.64-36.276 36.778-10.022 1.973-19.896 1.465-29.635-.923-18.634-4.57-30.458-19.11-31.746-38.723-.281-4.284.205-8.617.478-13.736m45.767-15.287c-19.798 1.46-23.482 23.202-17.674 36.591 6.273 14.464 29.051 17.096 38.372 4.337 6.377-8.73 6.922-18.714 2.644-28.413-4.02-9.111-11.631-13.297-23.342-12.515M1106.547 1078.595c-16.683 12.7-34.848 14.349-53.635 9.44-17.333-4.528-27.884-16.073-30.664-34.136-4.837-31.433 14.09-53.464 43.264-53.972 6.615-.116 13.446-.339 19.83 1.063 27.336 6.003 37.438 28.411 33.925 52.57-1.368 9.406-5.172 17.836-12.72 25.035m-54.524-49.084c-1.2 2.72-2.81 5.335-3.532 8.176-3.443 13.544 2.676 26.783 13.91 30.448 9.305 3.036 18.212 1.752 24.931-5.267 7.584-7.922 8.052-18.127 4.592-28.023-5.704-16.313-25.335-19.427-39.901-5.334"/><path fill="#20406a" d="M1501.576 1022.932c4.908 10.016 5.318 20.059 4.063 29.95-2.093 16.491-10.998 28.256-26.971 33.877-14.257 5.016-28.734 5.257-42.968.05-14.857-5.437-24.362-15.828-26.618-31.833-.78-5.533-1.214-11.299-.572-16.815 2.323-19.974 12.737-32.546 32.484-36.526 10.136-2.043 21.151-1.645 31.492-.269 12.78 1.701 22.454 9.387 29.09 21.566m-65.849 12.481c-2.155 6.176-1.855 12.281-.152 18.577 4.762 17.608 27.588 19.66 37.948 9.158 6.775-6.868 8.652-21.366 3.932-30.811-3.952-7.909-10.537-11.46-19.241-11.828-10.423-.441-17.982 3.564-22.487 14.904"/><path fill="#21416c" d="M2215.132 966.394c4.393.97 7.909 1.83 11.556 2.722 2.76 6.09-.738 11.128-1.137 16.821-6.296.346-12.634-3.958-17.652 1.091-3.955 3.98-2.414 9.165-1.895 15.022h21.373v15.653h-21.942v81.002h-29.597v-79.954c-3.904-.306-6.737-.55-9.572-.745-2.897-.198-5.797-.347-9.226-.549v-14.84c3.095-.215 5.963-.44 8.835-.606 2.922-.168 5.848-.278 9.5-.448 0-3.888-.09-7.182.015-10.469.395-12.37 6.046-20.13 18.14-22.936 6.693-1.552 13.803-1.307 21.602-1.764"/><path fill="#21416b" d="M2263.603 1000.622c5.133-.459 9.449-.74 13.77-.844 19.29-.467 35.757 14.766 38.413 36.093.605 4.854.09 9.849.09 15.747h-53.43c-.781 8.745 3.532 13.272 9.908 16.097 8.872 3.932 18.183 2.962 27.446 1.593.935-.138 1.87-.273 3.445-.502l5.683 13.986c-.862 1.246-1.11 2.007-1.62 2.286-17.284 9.41-46.39 5.91-61.265-6.459-19.876-16.527-22.727-65.972 17.56-77.997m-2.494 31.75-.576 6.321h28.187c-.747-4.678-.79-8.702-2.1-12.26-1.927-5.241-5.848-9.193-11.755-9.305-5.415-.103-9.284 3.114-11.448 8.1-.783 1.803-1.263 3.737-2.308 7.145"/><path fill="#1f3f6a" d="M1326.44 1090.316c-21.835-3.031-26.588-8.393-26.62-29.132-.02-13.606-.003-27.211-.003-42.02l-18.336-.837v-16.144l17.96-.862v-24.606l30.268-4.857v29.81h23.767v16.658h-23.579c0 14.876-.24 28.777.116 42.663.146 5.685 4.335 8.99 10.016 8.808 2.917-.093 5.81-.912 9.77-1.58l4.631 17.058c-8.796 4.211-17.863 4.993-27.99 5.041M1805.937 1090.429c-4.238-.242-7.592-.257-10.86-.794-15.133-2.486-20.763-8.804-21.04-24.092-.234-12.981-.01-25.97-.06-38.955-.009-2.272-.373-4.543-.648-7.67h-17.512v-16.81l17.949-.813v-24.557l29.932-4.909v29.769h23.89v16.62h-23.711c0 9.211-.002 17.393 0 25.575.002 4.661-.099 9.326.04 13.983.284 9.62 4.556 13.104 14.021 11.585 1.62-.26 3.226-.604 4.848-.845.28-.041.608.24 1.856.782l3.62 15.822c-6.88 4.31-14.378 3.913-22.325 5.309"/><path fill="#21416b" d="M1637.405 1088.474c-4.654-1.1-8.467-2.061-13.31-3.283l3.732-18.98c8.916 2.322 17.07 4.861 25.407 6.44 4.034.764 8.671.548 12.567-.693 5.588-1.78 6.356-7.077 1.752-10.688-2.793-2.19-6.408-3.379-9.735-4.83-6.99-3.05-14.131-5.768-21.03-9.006-8.69-4.076-12.888-11.247-12.745-20.79.153-10.22 4.88-17.771 14.03-22.37 11.549-5.805 23.825-5.425 36.055-3.397 5.468.907 10.703 3.218 16.856 5.146l-3.675 17.908c-5.152 1.073-8.353-2.592-12.3-3.755-4.72-1.39-9.45-3.062-14.29-3.62-4.32-.499-7.802 1.984-8.855 6.44-1.027 4.345 1.827 6.902 5.325 8.524 5.114 2.37 10.4 4.367 15.563 6.634 4.552 1.998 9.36 3.654 13.483 6.34 7.677 5.002 12.438 12.04 11.531 21.709-.924 9.85-6.189 17.305-15.366 20.227-8.072 2.57-16.821 3.51-25.34 4.01-6.214.367-12.539-1.151-19.655-1.966"/><path fill="#1c3558" d="M2160.893 663.039c8.142-1.045 11.332 6.317 15.788 11.152 9.123 9.899 12.436 22.623 13.127 35.623.79 14.877.98 29.806-3.694 44.426-5.12 16.015-12.868 28.925-28.563 37.453-14.702 7.989-30.267 11.546-46.21 14.125-10.73 1.735-21.766 1.722-32.678 2.16-114.45 4.58-228.947 1.261-343.42 1.666-29.338.103-58.825-3.084-87.094-12.576-10.752-3.61-21.376-7.662-30.03-15.14-10.894-9.411-17.001-21.943-19.93-35.792-2.042-9.665-2.905-19.587-4.142-29.414-1.409-11.19-10.516-20.465-21.712-20.602a2862 2862 0 0 0-76.923.077c-4.769.07-9.504 2.43-15.086 3.702 3.181-5.708 9.097-7.763 15.594-7.801 25.653-.151 51.313-.34 76.96.08 13.185.217 23.177 9.706 25.144 22.737 1.488 9.857 2.086 19.864 3.906 29.651 4.086 21.971 16.535 37.253 37.59 45.414 16.223 6.29 33.018 10.63 50.242 11.973 23.87 1.861 47.852 3.07 71.79 3.152 99.292.34 198.585.245 297.877.093 25.97-.04 51.93-.944 77.04-8.845 1.58-.496 3.145-1.038 4.728-1.52 24.656-7.52 39.464-23.641 43.368-49.41 2.154-14.221 3.34-28.408.824-42.741-2.858-16.281-11.672-28.75-24.496-39.643M1102.029 549.321c-1.17-.248-3.336-1.497-3.17-2.073.626-2.166 1.616-4.504 3.174-6.083 13.929-14.12 18.813-32.431 23.881-50.696 7.395-26.644 7.207-53.98 5.703-81.098-1.019-18.368-4.603-36.672-12.673-53.796-6.226-13.21-12.693-26.05-21.655-37.757-12.362-16.148-27.522-28.887-45.088-38.53-27.222-14.943-56.085-25.308-87.111-29.603-19.354-2.679-38.635-5.059-58.201-5.804-113.143-4.307-226.319-.843-339.474-1.794-59.281-.498-118.57-.097-177.855-.07-3.315 0-6.698-.079-9.934.512-12.271 2.242-18.981 10.103-22.28 22.68-1.314.624-1.805.57-2.297.517-.502-15.3 10.152-23.909 22.212-26.133 3.253-.6 6.588-1.069 9.885-1.069 166.564.007 333.127-.146 499.69.291 38.973.103 77.691 4.027 115.332 15.244 31.679 9.44 60.793 23.64 84.844 46.725 26.163 25.11 41 56.476 46.404 91.872 5.364 35.132 4.19 70.259-5.284 104.868-5.174 18.899-13.987 35.785-26.103 51.797"/><path fill="#1d3f6c" d="M1182.019 1002.222c.89-.137 1.782-.274 3.523.563 6.375 2.202 11.902 3.431 18.458 4.889v9.573c0 12.918-.095 25.838.03 38.756.121 12.48 4.407 16.688 16.97 15.845 4.814-.322 9.574-2.129 14.25-3.606 3.105-.98 5.01-3.196 4.257-6.824 0 0 .257.32.807-.05.936-3.573 1.62-6.775 1.657-9.984.173-15.12.169-30.241.898-45.38 2.162-1.275 3.654-2.532 5.145-3.788 4.741-.143 9.483-.286 15.213.589 1.583 4.245 2.754 7.487 2.674 10.697-.527 21.168 1.74 42.405-1.807 63.512-1.145 6.82-2.152 8.39-9.192 8.931-2.285.176-4.594.028-6.764.028-1.686-2.585-2.683-5.306-4.628-6.754-1.87-1.394-5.006-2.494-7.084-1.917-4.329 1.202-8.504 3.29-12.425 5.562-9.702 5.62-20.054 2.626-30.163 2.578-1.354-.006-2.766-1.66-4.037-2.691-7.986-6.488-9.497-15.656-9.714-25.042-.315-13.607-.255-27.23.01-40.838.096-4.894 1.25-9.767 1.922-14.649"/><path fill="#2a4165" d="M1571.192 257.908c.674 4.356-3.15 4.91-5.958 6.395-12.316 6.517-24.898 12.598-35.53 21.84-11.815 10.27-23.358 20.847-31.102 34.705-6.272 11.224-12.887 22.361-17.913 34.15-6.517 15.287-9.273 31.712-10.653 48.256-.964 11.553-1.539 23.146-2.012 34.732-.434 10.646.253 21.094 3.23 31.56 2.137 7.51 1.635 15.563 3.766 23.429 5.125 18.915 13.04 36.334 24.594 51.945 6.637 8.966 13.443 17.863 22.63 24.851 7.614 5.791 13.812 13.346 22.633 17.782 13.568 6.825 26.802 13.989 41.21 19.405 14.987 5.635 30.232 9.885 45.59 13.64 14.716 3.595 29.953 5.058 44.964 7.437 21.031 3.333 42.35 2.678 63.442 4.403 34.627 2.832 69.186.604 103.757 1.47 6.555.163 13.143-1.481 19.718-1.498 6.25-.017 12.501 1.012 18.754 1.562.66.057 1.332-.02 3.249.054 1.72.283 2.03.623 2.176 1.11-3.231.535-6.461 1.531-9.693 1.538-46.615.098-93.256 1.03-139.838-.214-45.946-1.226-91.57-6.525-135.883-19.781-22.75-6.806-44.456-15.943-64.194-29.381-34.828-23.71-57.415-56.01-67.051-96.973-10.67-45.35-9.594-90.483 5.647-134.72 16.137-46.837 48.355-78.664 94.467-97.697"/><path fill="#21416b" d="M330.058 1013.499c-.291 4.693-.526 8.573-.825 13.497-4.407-.827-7.592-1.391-10.763-2.024-9.713-1.94-17.062 2.125-22.306 9.766-1.864 2.715-2.344 6.786-2.409 10.257-.259 13.934-.107 27.875-.107 42.417-10.043 1.697-19.427 1.102-29.384.421v-85.527h24.689l3.084 17.51c2.094-2.304 3.347-3.902 4.82-5.262 4.835-4.466 9.138-9.982 14.767-13.015 10.461-5.636 18.721-.173 18.434 11.96"/><path fill="#1c3558" d="M998.987 644.984c12.914-1.688 21.84 6.254 28.015 16.054 12.035 19.103 16.531 40.774 16.967 63.218.264 13.647.526 27.326-.094 40.95-.66 14.518-2.362 28.987-3.607 43.478-.085.994-.189 1.988-.224 2.984-.687 19.563-1.258 39.131-2.101 58.688-.313 7.256-1.27 14.484-1.92 21.726-1.2 13.367 12.216 28.29 27.525 28.032 25.634-.43 51.28-.052 76.92-.148 11.272-.042 17.972-5.268 20.796-15.08 1.54-5.35 2.61-11.048 2.627-16.592.182-59.605.33-119.212-.063-178.815-.084-12.827-2.36-25.64-3.635-38.46-.687-6.904-1.145-13.843-2.137-20.705-3.326-23.002-11.384-44.35-24.839-63.23-6.694-9.393-15.402-17.343-23.105-26.029-2.161-2.437-3.99-5.17-6.03-8.464 8.198 6.915 17.398 13.74 24.538 22.287 21.065 25.215 32.538 54.794 35.123 87.42 1.89 23.858 2.923 47.83 3.136 71.763.461 51.62-.261 103.25.326 154.866.296 26.107-12.615 36.123-35.82 35.307-20.957-.738-41.96-.127-62.942-.194-3.648-.011-7.349-.114-10.932-.723-14.837-2.522-23.539-12.333-24.038-27.416-.265-7.978-.11-15.998.365-23.969a17648 17648 0 0 1 6.7-106.635c1.47-22.332 1.643-44.605-3.048-66.609-1.512-7.09-3.97-13.99-6.184-20.916-5.152-16.117-16.754-25.924-32.32-32.788"/><path fill="#2a4165" d="M1351.98 920.02c1.7-2.03 3.191-4.29 5.139-6.044 4.8-4.323 6.585-9.824 6.878-16.005.094-1.996.022-3.999.022-5.998 0-207.275-.09-414.55.296-621.823.017-9.26-4.031-15.967-8.455-22.46-2.272-3.334-8.587-5.3-13.15-5.442-18.977-.593-37.985-.46-56.975-.179-9.845.146-15.184 7.146-19.674 14.799-1.166 1.986-1.963 4.187-3.979 6.714-1.385.42-1.722.416-2.058.412 2.133-16.568 12.093-25.75 28.434-25.877 17.33-.134 34.662-.174 51.991.001 16.07.162 26.717 10.634 27.558 26.792.208 3.99.15 7.996.15 11.994q.004 306.455-.005 612.91c0 2.666.026 5.334-.066 7.997-.372 10.81-4.747 19.217-15.395 23.733-.716-.856-.713-1.19-.71-1.524"/><path fill="#1b3d6a" d="M1159.905 970.752c.864 1.09 2.48 2.18 2.482 3.271.059 37.15-.032 74.3-.142 111.45-.002.572-.515 1.143-1.304 2.787-7.314 0-15.175 0-23.967-1.137-.944-13.424-.965-25.71-.97-37.998-.006-12.619-.028-25.238.017-37.857.043-12.147.164-24.294.257-37.308 6.652 0 11.935.312 17.15-.146 2.232-.196 4.323-1.993 6.477-3.062"/><path fill="#eff8f0" d="M2530.523 240.209c.923 2.69 1.326 5.663 1.326 8.637.026 217.804.02 435.607.012 653.41 0 .666-.057 1.331-.3 2.924-3.528.145-5.39-1.266-4.645-5.336.828-4.521 1.052-9.206 1.053-13.82.047-211.05.03-422.101.116-633.152.002-4.127 1.13-8.253 2.438-12.663"/><path fill="#21426d" d="M343.544 1088.313c-1.584-1.492-2.932-2.861-2.939-4.237-.124-26.935-.092-53.87-.092-82.022 9.564-.721 18.716-.156 27.704-.393 2.047 7.33 2.657 72.233.839 86.77-8.129 0-16.39 0-25.512-.118"/><path fill="#21416b" d="M627.911 1075.796v12.063h-29.115v-85.462h29.115z"/><path fill="#13335a" d="M354.715 266.488c.826-.709 1.317-.655 2.549-.547.759 212.147.777 424.24.265 637.243-.903.89-1.274.87-1.646.85-.547-4.268-1.571-8.536-1.573-12.805-.075-206.66-.063-413.322-.054-619.983 0-1.332.081-2.663.459-4.758"/><path fill="#2a4165" d="M2262.743 874.075c-1.28-7.464 4.939-11.504 8.89-16.473 16.898-21.25 27.776-45.158 32.381-71.808 3.036-17.569 5.743-35.228 7.6-52.951.888-8.468-.34-17.194-.984-25.775a354 354 0 0 0-2.605-23.66c-2.942-20.547-9.235-39.904-19.56-58.084-7.747-13.642-16.396-26.556-27.663-37.364-20.528-19.691-44.035-34.99-71.267-43.72a839 839 0 0 0-55.478-15.717c-10.216-2.515-20.931-2.955-31.387-4.554-25.26-3.865-50.587-6.642-76.208-6.093-3.559.076-7.147-1.195-11.595-2.38-.892-1.23-.911-1.922-.93-2.616 13.29.508 26.62.514 39.86 1.623 31.494 2.639 62.836 6.475 93.725 13.498 34.63 7.874 67.757 19.016 96.614 40.73 38.094 28.664 60.366 66.666 67.844 113.442 6.893 43.117 3.548 85.56-9.905 127.128-7.917 24.463-20.997 45.89-39.332 64.774"/><path fill="#283f5f" d="M2165.28 391.46c6.316.538 8.707 5.664 10.56 11.042 4.429 12.857 8.35 25.724 8.37 39.665.015 9.405 2.39 18.735 12.514 22.985 3.564 1.496 7.562 2.706 11.374 2.742 25.297.237 50.597.176 75.896.09 9.933-.035 19.323-9.614 20.096-19.27 1.565-19.549.183-38.871-4.15-57.92-7.39-32.484-19.81-62.42-44.29-86.254-12.882-12.54-26.753-23.081-42.762-31.83-25.425-13.891-52.075-22.499-80.433-26.758-4.893-.735-9.808-1.329-15.583-2.668-.87-1.566-.87-2.45-.868-3.335 44.525 4.24 86.029 17.206 122.293 44.036 29.856 22.09 49.608 51.51 60.396 87.074 6.78 22.35 10.085 45.178 10.61 68.457.075 3.306-.073 6.681-.654 9.928-2.473 13.81-12.004 22.759-26.069 23.019-24.657.455-49.336.486-73.992-.003-16.15-.32-25.09-8.876-27.393-24.611-1.052-7.19-1.755-14.429-2.664-21.639-1.567-12.418-6.928-23.39-13.25-34.75"/><path fill="#303030" d="M2997.477 245.065c.43-3.79.804-6.7 1.245-10.121h15.677l12.537 35.07 12.472-35.213h15.397l3.83 51.792-10.475.564c-1.757-11.61-.12-22.966-5.36-33.92l-11.119 32.85h-11.185l-10.682-32.512-2.47.265-2.24 32.715-10.199.681z"/><path fill="#eff8f0" d="M2535.935 907.73a67 67 0 0 1 8.422-10.475c12.643-12.807 25.156-25.76 38.233-38.114 5.588-5.278 7.507-10.84 7.496-18.406-.196-139.31-.148-278.622-.148-417.934 0-12.665-.001-25.33.064-37.994.01-1.872.383-3.743.824-7.76 3.278 3.422 5.19 5.42 7.263 8.08-1.243 2.215-3.429 3.576-3.867 5.365-.692 2.833-.23 5.951-.23 8.949-.002 146.885-.068 293.771.158 440.657.014 9.06-2.506 15.808-9.078 22.037-13.532 12.826-26.418 26.334-39.726 39.4-2.511 2.466-5.75 4.19-9.41 6.195"/><path fill="#1e4270" d="M1373.94 1002.312c2.184-.174 4.367-.348 7.526.468 4.312 5.07 8.853 2.565 12.827 3.16.275 5.267.773 10.533.784 15.801.042 20.278-.073 40.557-1.438 61.554-9.12.175-17.109 1.995-25.616-.817v-10.03q-.003-25.954-.003-51.91c.002-10.907.005-10.907 5.92-18.226"/><path fill="#283f5f" d="M1688.919 360.058c3.142-4.834 8.647-4.033 13.916-4.034 85.516-.011 171.03-.01 256.546-.01 29.947 0 59.899-.321 89.838.165 11.501.187 22.986 2.105 34.454 3.436 11.475 1.332 22.992 2.51 34.363 4.488 16.625 2.892 31.31 10.55 44.98 20.174 1.363.96 1.718 3.352 2.322 5.809-17.493-15.44-39.006-21.615-61.57-25.395-21.726-3.64-43.631-4.476-65.597-4.476-116.109-.002-232.218.008-349.252-.157"/><path fill="#3f5876" d="M355.824 904.758c.43-.703.802-.683 1.732-.626 2.227 2.083 3.887 4.136 5.566 6.172 5.854 7.1 12.87 10.355 22.57 10.074 23.613-.683 47.258-.193 70.89-.24 14.045-.029 24.998-10.717 25.557-24.85.105-2.658.028-5.324.028-7.987-.002-79.883-.033-159.766.077-239.648.006-3.764 1.26-7.527 2.681-11.55.852 3.064 1.047 6.385 1.048 9.707.016 80.881.012 161.762.011 242.643 0 1.664.026 3.33-.01 4.993-.401 18.93-11.422 30.324-30.529 30.93-12.303.391-24.628.1-36.943.096-11.317-.003-22.638.176-33.949-.104-13.387-.33-23.862-5.477-28.73-19.61M916.053 632.05c2.723.008 5.446.015 9.04.493.871.47.908 1.45.908 1.45-3.627.228-7.254.654-10.88.655-138.522.031-277.044.021-415.565.03-3.993 0-7.986.132-12.891.52-.49-.653-.067-1.625 1.769-2.872 143.481-.275 285.55-.275 427.619-.276"/><path fill="#283f5f" d="M2114 241.996c-4.094-.012-8.187-.024-13.57-.563-2.996-.823-4.704-1.119-6.411-1.415-126.048-.018-252.097-.036-379.081-.705-.935-1.497-.933-2.343-.932-3.189 3.649-.176 7.297-.504 10.945-.505 108.322-.026 216.645-.184 324.966.124 20.945.06 41.885 1.96 63.482 4.04.637 1.423.62 1.818.601 2.213"/><path fill="#182f4a" d="M1259.79 264.907c.57-.909.907-.905 1.749-.905.498 207.653.495 415.31.45 622.968 0 3.957-.5 7.915-1.351 12.475-.78-2.372-1.142-5.346-1.143-8.32-.03-206.771-.03-413.542-.03-620.312 0-1.665.059-3.329.325-5.906"/><path fill="#2a4165" d="M1919.927 516c-24.513.668-49.15.05-73.503 2.389-21.6 2.074-43.096 1.548-64.606 1.355-18.458-.166-36.897-2.351-55.345-3.652-9.887-.697-19.86-.826-29.636-2.276-10.707-1.588-21.233-4.402-32.34-7.721-.505-1.04-.502-1.999-.502-1.999 8.153 1.348 16.314 2.651 24.458 4.051 32.198 5.534 64.729 6.58 97.276 6.701 32.234.12 64.473-.388 96.706-.858 11.94-.174 23.87-1.022 36.733-.823.872 1.437.816 2.135.76 2.833"/><path fill="#283f5f" d="M1181.235 1002.009c.113 5.095-1.042 9.968-1.137 14.862-.266 13.609-.326 27.231-.01 40.838.216 9.386 1.727 18.554 9.713 25.042 1.27 1.032 2.683 2.685 4.037 2.691 10.11.048 20.461 3.042 30.163-2.578 3.921-2.272 8.096-4.36 12.425-5.562 2.078-.577 5.213.523 7.084 1.917 1.945 1.448 2.942 4.17 4.628 6.754 2.17 0 4.48.148 6.764-.028 7.04-.54 8.047-2.111 9.192-8.931 3.546-21.107 1.28-42.344 1.807-63.512.08-3.21-1.091-6.452-1.805-10.496 1.349-.438 2.954-.295 4.222.434.532.306.473 1.854.474 2.837.022 26.924.018 53.847.018 81.468h-25.306l-3.561-8.616c-3.256 1.699-6.367 3.326-9.483 4.946-8.737 4.543-18.003 6.99-27.866 6.272-14.865-1.082-24.032-8.824-24.806-23.649-1.074-20.57-.424-41.233-.31-61.855.006-1.021 1.938-2.032 3.757-2.834"/><path fill="#3a3a3a" d="M2966.73 286.92c-1.334-3.442-2.28-6.578-2.338-9.73-.196-10.576-.074-21.159-.074-32.635l-16.025-.753-.764-8.946h43.29c.377.97 1.005 1.845.997 2.715-.018 1.918-.357 3.833-.607 6.128l-15.074.841v41.98c-3.541.287-6.076.492-9.405.4"/><path fill="#283f5f" d="M1525.982 1002.26h18.522l3.79 8.83c11.323-8.836 23.811-12.062 37.455-11.248 14.165.844 22.503 8.646 24.254 22.938.444 3.624.641 7.298.66 10.95.071 14.983.052 29.966.013 44.95-.008 2.935-.254 5.87-.411 9.238h-29.013c0-16.329.269-32.275-.155-48.204-.137-5.127-2.1-10.206-3.36-16.29-.131-.983.304-1.477 1.044-1.315 5.017 3.75 5.208 8.71 5.219 13.696.027 12.97-.036 25.941.046 38.91.018 2.853.487 5.703.816 9.3 4.176 0 7.456.007 10.735-.002 11.061-.03 12.259-1.05 12.366-11.728.13-12.97.32-25.95-.112-38.906-.174-5.196-1.49-10.48-3.071-15.476-2.962-9.357-10.083-13.014-19.563-14.044-10.815-1.175-20.411 1.728-29.088 7.491-5.556 3.69-9.756 2.945-13.611-1.697.493-1.789.5-3.201.507-4.614-1.02.309-2.04.618-3.931.932-4.927.005-8.984.005-13.055-.614-.029-1.445-.043-2.27-.057-3.096M1663.414 503.633c.58.463.578 1.423.58 1.903-8.452 1.696-15.392-3.058-22.795-5.62-16.576-5.738-30.968-14.958-41.44-29.372-6.001-8.26-8.706-18.013-9.564-27.921-1.381-15.962.28-31.707 5.573-47.047 4.554-13.201 13.4-21.528 26.182-26.654 17.73-7.11 35.968-11.126 55.088-10.894 1.951.024 3.896.529 6.426 1.407-14.516 2.795-29.623 4.926-44.701 7.247-2.928.451-5.745 1.629-8.608 2.49-18.695 5.631-30.12 18.17-33.226 37.27-1.91 11.748-3.215 23.873-2.541 35.7 1.137 19.953 11.567 34.924 28.772 45.206 12.397 7.409 25.896 11.937 40.254 16.285"/><path fill="#1c3558" d="M1888.677 635.308c-1.087-.66-1.395-.999-2.193-1.318 2.809-.75 5.938-1.866 9.083-1.912 13.658-.2 27.327.151 40.981-.168 10.423-.243 20.823-1.456 31.246-1.728 6.264-.163 12.553.633 18.829 1.035 3.305.212 6.605.703 9.909.723 14.327.088 28.699-.653 42.972.23 18.792 1.16 37.473 4.141 56.266 5.267 19.72 1.181 37.366 8.4 54.806 16.559 3.415 1.597 6.205 4.53 9.392 7.562-15.868-8.095-32.558-15.143-50.61-18.237-12.283-2.105-24.695-3.478-37.073-4.989-6.846-.835-13.74-1.281-21.887-2.668-4.238-.65-7.2-.533-10.164-.417-50.206.078-100.412.156-151.557.061M1477.222 701.828c.426 1.639.712 3.847-.101 5.52-4.947 10.182-3.464 20.666-1.934 31.202 1.612 11.102 3.74 22.17 4.581 33.333 1.056 13.987 7.512 26.079 12.73 38.467 5.62 13.345 13.183 25.872 23.031 36.777 2.88 3.19 5.537 6.58 8.408 9.777 4.418 4.92 8.933 9.753 13.379 15.344-15.048-8.714-25.459-22.577-35.035-36.943-19.648-29.476-29.381-62.28-30.956-97.582-.237-5.317-.613-10.635-.615-15.953-.003-7.081 1.024-13.944 6.512-19.942"/><path fill="#192946" d="M1699.998 925.975c128.043.005 256.085.01 385.065.524.938.847.94 1.183.941 1.52-2.644.177-5.289.506-7.933.507-124.086.022-248.173.016-372.259.008-1.33 0-2.66-.064-4.902-.824-.911-1.063-.912-1.399-.912-1.735"/><path fill="#13335a" d="M2122.013 1002.167c5.4-.104 10.8-.208 17.447.32 2.803.972 4.36 1.315 5.915 1.659.124 5.36.247 10.72-.21 17.42-.281 3.708.018 6.078.317 8.448.09 12.7.179 25.398-.184 39.201-.236 1.68-.021 2.254.195 2.828.09 4.042.179 8.084-.27 12.971-.537.845-1.29.962-2.211.967-9.36-.022-17.8-.049-26.24-.075-.197-14.462-.462-28.924-.568-43.386-.09-12.181.004-24.364.84-37.45 2.204-1.57 3.587-2.237 4.97-2.903M2120 1043c.001 6.652-.257 13.316.075 19.951.34 6.796-1.623 13.834 1.749 21.052 3.06 0 6.024.013 8.989-.003 10.54-.054 11.134-.6 11.163-11.42q.075-28.435-.017-56.87c-.009-2.883-.428-5.764-.687-9.022H2120z"/><path fill="#1c3558" d="M1699.41 925.39c.588.921.589 1.257.585 2.098-28.724.31-56.785-4.238-84.303-12.32-22.13-6.5-43.043-15.612-62.25-29.627 2.15-.303 5.286-.933 7.03.342 13.805 10.09 29.185 17.52 45.205 22.42 16.256 4.974 32.315 10.822 49.838 12.32 14.391 1.23 28.845 2.978 43.894 4.766M2122 923.995c6.67-1.327 13.322-3.65 20.012-3.769 12.76-.226 24.792-3.404 36.89-6.737 5.078-1.399 10.164-2.934 15.35-3.743 14.796-2.31 26.588-11.458 39.776-17.363 6.17-2.762 11.15-8.137 16.793-12.155 1.167-.832 2.878-.899 4.749-.853-17.965 18.51-40.95 27.94-65.037 35.125-21.775 6.495-44.218 9.497-67.643 11.172-.89-1.005-.89-1.341-.89-1.677"/><path fill="#eff8f0" d="M2828.01 633.25c-1.1.02-2.375-.518-3.28-1.424-30.116-30.167-60.198-60.368-90.498-91.2 4.406-1.32 7.109 1.672 9.956 4.541 9.843 9.916 19.185 20.433 29.797 29.451 8.784 7.465 15.518 16.688 23.904 24.427 8.49 7.836 16.558 16.148 24.517 24.53 2.374 2.5 3.762 5.937 5.604 9.675"/><path fill="#2a4165" d="M2125.391 972.758c4.724-1.086 8.95-2.537 12.968-2.096 5.044.554 7.635 4.815 7.66 10.084.024 5.384-2.415 8.604-7.668 10.124-6.069 1.755-12.547.07-15.28-4.161-3.177-4.916-2.295-9.426 2.32-13.95M367.621 988.002c-4.558 1.393-8.627 3.13-12.61 2.952-5.316-.238-9.17-5.07-9.361-9.89-.196-4.95 4.232-10.088 9.735-10.835 4.698-.638 9.523-.474 12.743 3.637 3.406 4.349 3.513 9.08-.507 14.136M617.763 970.107c5.376.741 8.971 2.673 10.19 7.552 1.538 6.158-1.35 11.396-7.255 13.188-7.262 2.205-14.48-.697-16.673-6.7-2.069-5.667 1.205-11.438 8.006-13.716 1.51-.507 3.275-.255 5.732-.324"/><path fill="#283f5f" d="M1238.836 1061.711c1.424 3.335-.48 5.55-3.586 6.531-4.676 1.477-9.436 3.284-14.25 3.606-12.563.843-16.849-3.365-16.97-15.845-.125-12.918-.03-25.838-.03-38.756v-9.573c-6.556-1.458-12.083-2.687-17.807-4.677 6.384-.762 12.966-.762 20.348-.762.269 2.58.74 5.084.756 7.592.078 12.94.023 25.881.053 38.822.007 2.983-.022 5.985.286 8.946.95 9.166 4.765 12.473 13.947 10.623 5.713-1.15 11.067-4.081 17.253-6.507"/><path fill="#2a4165" d="M1372.625 974.488c8.36-5.555 14.53-5.762 19.355-1.235 6.18 5.797 4.403 14.73-3.618 17.38-4.905 1.62-9.865 1.522-14.06-1.996-4.544-3.81-4.213-8.588-1.677-14.149"/><path fill="#283f5f" d="M1577.388 1022.688c-9.45-4.848-17.59-.658-25.191 3.952-1.995 1.21-2.824 5.59-2.881 8.541-.31 15.813-.208 31.633-1.19 48.16-1.345.681-1.748.653-2.144-.309.012-17.242.067-33.55-.014-49.858-.02-3.837.218-7.7 3.878-9.627 7.074-3.728 14.493-6.924 22.766-5.328 1.976.38 3.628 2.44 5.429 3.728z"/><path fill="#264264" d="M1713.092 235.899c.913 1.071.91 1.917.908 3.397-13.87.654-27.792-.064-41.597.896-14.99 1.042-29.873 3.644-45.646 5.05-.877-.914-.91-1.31-.944-1.705 1.207-.862 2.413-1.724 4.917-2.27 2.618-.094 3.937-.503 5.257-.912 18.88-4.242 38.11-4.295 57.302-4.707 6.293-.135 12.592.009 19.803.25"/><path fill="#192946" d="M1159.33 970.54c-1.58 1.281-3.67 3.078-5.901 3.274-5.216.458-10.499.146-17.15.146-.094 13.014-.215 25.161-.258 37.308-.045 12.62-.023 25.238-.018 37.857.006 12.287.027 24.574.064 37.787-4.871-.586-2.473-4.634-2.493-7.414-.197-27.619-.13-55.24-.123-82.86.002-7.653.052-15.306 1.332-23.794 7.684-1.093 14.115-1.353 20.547-1.612 1.141-.301 2.283-.602 4-.692"/><path fill="#1c3558" d="M1525.327 1002.058c.67 1.028.683 1.854.013 3.69-1.561 4.38-3.133 7.737-3.195 11.122-.276 14.917-.118 29.843-.114 44.766.001 4.31-.18 8.632.06 12.93.429 7.634 2.093 8.985 9.573 9.505 3.472.242 6.892 1.234 9.906 2.08-.985.547-1.362 1.037-1.562 1.663-2.798.134-5.597.267-9.585-.275-2.926-.358-4.662-.04-6.399.278-1.492-.735-4.128-1.294-4.272-2.236-.55-3.578-.333-7.28-.332-10.935.006-22.943.031-45.886.735-69.907 1.239-1.41 1.621-1.88 1.834-2.488.895-.132 1.789-.264 3.338-.193"/><path fill="#13335a" d="M1920.872 516.004c-.888-.702-.832-1.4-.79-2.623 2.112-.716 4.238-.908 7.334-.655 1.503.244 2.035.043 2.568-.158.912-.11 1.825-.221 3.91.278 4.133.314 7.094.02 10.055-.275 2.821-.112 5.642-.224 9.952.323 14.466.827 27.443 1.058 40.42 1.096 1.873.005 3.748-.913 5.622-1.404 4.098-.052 8.195-.103 13.143.07.87.918.889 1.61.938 2.824-30.716.523-61.461.525-93.152.524"/><path fill="#182f4a" d="M1373.305 1002.12c-5.28 7.51-5.283 7.51-5.285 18.418q0 25.956.003 51.91v10.03c8.507 2.812 16.495.992 25.253 1.547 1.056.354 1.168.698.123 1.5-9.924.482-18.692.504-27.46.526-.15-26.762-.3-53.524.352-81.25 1.783-1.517 2.765-2.07 3.746-2.624.877-.083 1.754-.167 3.268-.058"/><path fill="#eff8f0" d="M2924.002 729.26c-10.523-9.51-21.044-19.752-31.783-30.627 8.461-1.365 11.82 6.559 17.323 10.692 5.124 3.848 8.884 9.56 13.027 14.629.94 1.149.98 3.031 1.433 5.307M2620.173 408.466c4.454 3.112 9.123 6.712 13.3 10.812 6.341 6.223 12.341 12.793 18.639 19.871-2.73-.743-6.21-1.53-8.389-3.653-7.546-7.35-14.668-15.137-21.864-22.839-.842-.9-1.14-2.308-1.686-4.191M2804.073 505.032c-10.458-9.483-20.948-19.675-31.625-30.503 2.21.237 5.197.483 6.906 2.088 7.704 7.237 15.121 14.786 22.446 22.411 1.24 1.291 1.519 3.506 2.273 6.004M2892.002 697.266c-9.854-8.847-19.707-18.424-29.782-28.632 4.384-.797 7.68 1.054 10.7 4.733 4.368 5.319 9.714 9.823 14.28 14.995 2.052 2.326 3.23 5.425 4.802 8.904"/><path fill="#192946" d="M1282.858 924.168c1.878-.904 4.664-2.077 7.458-2.096 18.88-.131 37.76-.018 57.645.074-2 .842-5 2.277-8.012 2.304-18.725.17-37.453.023-57.091-.282M166.838 924.233c.198-.872 1.318-2.06 2.432-2.054 19.852.104 39.704.352 60.166 1.145-20.153.768-40.916.96-62.598.91"/><path fill="#eff8f0" d="M2598.177 386.458c7.258 6.21 14.507 13.132 21.912 20.71-1.362.213-3.373.242-4.316-.747a340 340 0 0 1-17.596-19.963"/><path fill="#2a4165" d="M1602.008 249.993c-9.232 3.532-17.977 8.794-29.284 7.966 8.547-3.452 17.953-6.863 28.286-10.151.926.122 1.192.402 1.123.845-.069.444-.125 1.34-.125 1.34"/><path fill="#192946" d="M1242.198 1006.022c-.058 15.12-.054 30.242-.227 45.362-.036 3.21-.721 6.411-1.84 10.076-.692-18.246-.65-36.951.099-56.34 1.127-.156 1.548.373 1.968.902"/><path fill="#eff8f0" d="M2846.008 651.236c-5.86-4.823-11.711-10.4-17.776-16.612 8.894 1.472 15.32 6.502 17.776 16.612M2640.077 341.012c-5.797-4.817-11.627-10.342-17.653-16.502 9.174 1.12 14.195 7.59 17.653 16.502"/><path fill="#2a4165" d="M1999.034 512.363c-.965.714-2.84 1.632-4.713 1.627-12.977-.038-25.954-.269-39.587-.929 14.026-.634 28.708-.777 44.3-.698"/><path fill="#1c3558" d="M2086.672 928.263c-.67-.58-.67-.917-.672-1.76 6.098-1.164 12.196-1.822 19.16-1.985.906 1.133.904 1.77.86 2.409-6.226.526-12.453 1.053-19.348 1.336"/><path fill="#eff8f0" d="M2708.079 409.008c-5.124-4.142-10.283-8.995-15.635-14.478 8.207.73 12.968 6.081 15.635 14.478M2654.08 354.96c-3.799-2.748-7.622-6.281-11.626-10.44 9.895-.088 9.895-.088 11.625 10.44"/><path fill="#1c3558" d="M1537.449 873.452c7.483-.622 11.957 4.331 15.8 10.874-5.21-2.938-10.355-6.614-15.8-10.874"/><path fill="#eff8f0" d="M2819.655 519.728c-4.403-3.034-8.711-6.799-13.208-11.198 7.062-.28 10.59 4.597 13.208 11.198M2832.072 533.027c-4.075-3.288-8.182-7.288-12.41-11.938 7.075.12 10.609 4.744 12.41 11.938"/><path fill="#1c3558" d="M926.904 634.167c-.903-.173-.94-1.154-.994-1.641 9.608-.24 19.27.008 29.11.974-.43.944-.802 1.375-.937 2.01-8.758-.39-17.517-.78-27.179-1.343"/><path fill="#2a4165" d="M1624.934 243.637c.913.295.946.691 1.012 1.681-6.065 1.293-12.162 1.992-19.731 2.7-2.32.07-3.166.131-4.013.192l-.398-.42c6.882-4.007 14.54-4.18 23.13-4.153"/><path fill="#eff8f0" d="M2857.999 663.241c-3.855-2.829-7.71-6.41-11.778-10.616 6.897-.685 11.112 2.562 11.778 10.616M2676.078 376.998c-3.783-2.81-7.601-6.336-11.6-10.488 6.649-.45 10.076 3.566 11.6 10.488"/><path fill="#2a4165" d="M2116.947 1086.729c8.265-.797 16.704-.77 26.083-.268.938.475.957 1.435.957 1.435-8.955-.115-17.91-.23-27.04-1.167M1366.204 1086.904c8.503-.875 17.27-.897 26.976-.883.02.789-.898 2.195-1.814 2.194-8.3-.012-16.598-.271-25.162-1.311"/><path fill="#eff8f0" d="M2556.08 256.968c-3.139-2.096-6.302-4.961-9.65-8.447 8.337.085 8.337.085 9.65 8.447M2601.668 301.709c-3.732-2.361-7.377-5.457-11.208-9.185 5.97-.548 9.43 2.944 11.208 9.185M2622.095 323c-2.479-1.46-4.988-3.692-7.671-6.54 7.173-3.06 7.173-3.06 7.671 6.54M2854.074 555c-3.136-2.137-6.307-4.995-9.662-8.474 5.47-.622 8.927 1.951 9.662 8.474M2734.076 435c-3.134-2.137-6.302-4.996-9.653-8.474 5.466-.617 8.919 1.958 9.653 8.475M2578.074 279.008c-3.113-2.15-6.26-5.02-9.579-8.51 5.434-.552 8.864 2.032 9.579 8.51"/><path fill="#182f4a" d="M1394.481 1005.426c-4.162-.081-8.703 2.423-12.227-2.387 2.57-.87 5.33-1.008 9.138-.536 1.654.871 2.257 1.134 2.86 1.397.14.338.278.675.23 1.526M2106.789 927.128c-.725-.84-.723-1.477-.76-2.593 4.732-.501 9.464-.524 15.083-.544.888.34.888.676.888 1.515-4.814.944-9.63 1.384-15.211 1.622"/><path fill="#2a4165" d="M2040.745 635.598c2.452-.467 5.415-.583 8.803-.178-2.48.524-5.386.526-8.803.178"/><path fill="#1b3d6a" d="M1154.582 970.76c-5.684.731-12.115.99-19.47 1.19 5.625-.593 12.174-1.127 19.47-1.19"/><path fill="#eff8f0" d="M2542.074 242.983c-2.522-1.43-5.083-3.595-7.912-6.338 4.274-.926 7.609.32 7.912 6.338"/><path fill="#3f5876" d="M987.108 641.402c2.7-1.038 6.08-2.547 8.698 1.913-2.602.057-5.402-.664-8.698-1.913"/><path fill="#283f5f" d="M1242.87 1006.003c-1.092-.51-1.513-1.039-2.391-1.793.638-4.082 3.775-1.943 6.776-2.212-.732 1.474-2.224 2.73-4.386 4.005"/><path fill="#eff8f0" d="M2662.072 363.003c-1.803-.837-3.647-2.378-5.651-4.514 2.875-.583 5.589-.152 5.651 4.514"/><path fill="#2a4165" d="M1943.145 512.354c-2.157.512-5.118.806-8.576.654 2.26-.588 5.016-.73 8.576-.654"/><path fill="#eff8f0" d="M2606.08 306.978c-1.416-.65-2.875-2.001-4.433-3.96 2.963-1.136 4.247.398 4.433 3.96"/><path fill="#1c3558" d="M957.78 634.039c3.124.45 6.247.901 9.705 2.07-2.408.606-5.15.495-8.722-.344-.88-1.06-.931-1.393-.982-1.726"/><path fill="#3f5876" d="M2145.718 1029.234c-.535-1.59-.834-3.96-.683-6.78.607 1.7.763 3.85.683 6.78"/><path fill="#1c3558" d="M972.702 638.172c1.64-2.796 4.06-2.99 6.664.212-1.914.5-3.933.287-6.664-.212"/><path fill="#3f5876" d="M957.346 634.027c.486.345.536.678.622 1.515-1.08.548-2.196.591-3.598.302-.152-.97.22-1.4 1.251-1.765.422-.138 1.29-.063 1.725-.052"/><path fill="#2a4165" d="M1540.699 1088.056c-.491-.868-.114-1.358 1.525-1.907 1.953-.267 2.82-.338 3.812-.251.124.157.262.533.262.533-1.636.622-3.272 1.244-5.599 1.625"/><path fill="#3f5876" d="M2145.34 1003.431c-1.52.371-3.077.028-4.99-.798 1.412-.294 3.183-.105 4.99.798"/><path fill="#2a4165" d="M1524.75 1088.054c1.01-.555 2.747-.873 4.853-.716-1.13.635-2.63.794-4.854.716"/><path fill="#3f5876" d="M2121.346 1001.9c-.715.933-2.098 1.6-4.087 2.266.734-.844 2.076-1.689 4.087-2.266"/><path fill="#1c3558" d="M979.87 639.333c1.494-.385 3.498-.23 5.945.578-1.517.423-3.476.192-5.945-.578"/><path fill="#3f5876" d="M1635.3 240.181c-.633.583-1.952.992-3.967 1.14.63-.612 1.954-.963 3.967-1.14"/><path fill="#264264" d="M2114.216 242.428c-.198-.827-.18-1.222-.12-2.209.374-.665.707-.739 1.474-.541.433 1.156.431 2.04.43 3.587-.651.495-1.174.14-1.784-.837"/><path fill="#3f5876" d="M1369.37 1001.91c-.314.82-1.296 1.374-2.87 1.97.339-.719 1.272-1.478 2.87-1.97M2144.543 1087.875c-.556.021-.575-.939-.593-1.419s.736-.597 1.117-.59c.265.668.148 1.328-.524 2.01"/><path fill="#283f5f" d="M1521.41 1002.139c.366.72-.016 1.19-.999 1.693-.146-.488.137-1.147 1-1.693"/><path fill="#1c3558" d="m1545.976 1083.966 1.811.125c.314.721.023 1.401-.878 2.21-.611.13-.75-.246-.857-.846s-.076-1.49-.076-1.49"/><path fill="#3f5876" d="M2145.685 1071.523c-.408-.054-.623-.629-.517-1.382.452.168.581.515.517 1.382"/><path fill="#192946" d="M1351.52 920.26c.458.094.455.428.46 1.263-.32.676-.647.851-1.508.863-.16-.739.213-1.313 1.048-2.127"/><path fill="#2a4165" d="M1929.492 512.39c-.04.379-.573.58-1.285.492.145-.415.47-.542 1.285-.491"/><path fill="#3f5876" d="M1394.242 1003.273c-.593.364-1.196.101-2.032-.614.519-.306 1.27-.16 2.032.614"/><path fill="#264264" d="M2094.43 240.535q1.944-.329 5.123.88-1.945.331-5.124-.88M1602.133 248.653c.916-.504 1.763-.564 3.247-.625-.303.627-1.245 1.256-2.78 1.924-.592.041-.536-.855-.467-1.299"/><path fill="#fdfdfd" d="M956.086 372.922s.151-.032.738.49c3.462 1.289 6.338 2.054 9.214 2.82 0 0 .427.249 1.105.634 2.54 1.03 4.403 1.673 6.265 2.317 0 0 .114-.376.28.213 1.3.994 2.433 1.399 3.567 1.804 0 0 .133-.348.352.266 3.553 2.807 6.886 5.002 10.219 7.196a2557 2557 0 0 0 5.364 5.889 525 525 0 0 1 6.484 7.915s.094-.274-.008.313c.44 1.106.98 1.626 1.522 2.145 0 0-.01-.449-.078.45 4.81 11.635 4.747 23.181 5.472 34.598-.249.889-.498 1.777-.837 4.099-.67 11.839-4.767 21.034-9.883 29.878 0 0 .134.024-.426.262-1.121 1.3-1.682 2.362-2.243 3.424 0 0 .324-.159-.414.026-12.615 12.142-27.23 19.003-43.473 22.4-11.665 2.44-23.493 4.106-36.136 5.984-5.667.094-10.445.32-16.134.33-129.616-.24-258.32-.267-387.025-.268-1.978 0-3.956.315-6.825.316-6.321-.255-11.752-.343-17.182-.43 0 0-.004.007-.109-.927-.136-31.42-.129-61.906-.214-92.392-.04-14.238-.26-28.475-.12-43.264.525-1.339.77-2.124 1.016-2.91 0 0-.283-.247.565-.077 93.163.156 185.478.145 277.792.127 49.647-.01 99.294-.031 149.526.312 4.902.62 9.22.88 14.392 1.36 3.823.443 6.79.667 9.756.891 0 0 .378-.36.67.139 3.026.855 5.76 1.212 9.03 2.071 2.949.868 5.363 1.234 7.778 1.6"/><path fill="#13335a" d="M486.19 506.786c5.244-.706 10.675-.618 17.655.124 3.531.822 5.512 1.134 7.493 1.135 125.994.022 251.988.028 377.981-.044 2.877-.002 5.752-.918 8.628-1.408 4.778-.227 9.556-.454 15.524-.073 2.317 1.559 3.443 2.509 4.57 3.46-140.563.008-281.127.03-421.69-.054-3.366-.002-7.449 1.75-10.16-3.14"/><path fill="#1c3558" d="M915.46 631.45c-141.476.6-283.545.601-426.555.592 2.177-.684 5.295-1.948 8.414-1.95 136.566-.098 273.131-.09 409.697-.05 2.617.001 5.235.527 8.445 1.408"/><path fill="#182f4a" d="M913.874 366.503c-49.646.016-99.293.037-148.94.047-92.314.018-184.629.03-277.875.042 1.037-.871 2.971-2.378 4.983-2.49 5.97-.33 11.97-.107 17.957-.107 134.065.007 268.13.012 403.077.642.854 1.038.826 1.452.798 1.866"/><path fill="#13335a" d="M485.283 369.962c.138 14.237.358 28.474.398 42.712.085 30.486.078 60.972.218 92.39-3.354.52-3.947-1.832-3.91-4.777.068-5.31.002-10.62.002-15.931.005-38.17.013-76.339.471-115.26 1.24-.213 2.03.326 2.82.866"/><path fill="#2a4165" d="M918.843 509.878c-1.929-.849-3.055-1.8-4.484-3.225 11.454-2.486 23.282-4.151 34.947-6.591 16.242-3.398 30.858-10.26 43.33-22.511-.002 1.782.047 4.573-1.314 5.802-4.37 3.946-8.829 8.206-14.037 10.724-11.524 5.57-23.343 10.577-36.36 12.001-7.142.782-14.19 2.437-22.082 3.8"/><path fill="#182f4a" d="M1007.284 439.738c-1.427-11.183-1.365-22.73-6.36-34.24 1.414.696 3.922 1.944 4.315 3.674 1.89 8.31 3.353 16.727 4.6 25.161.236 1.597-1.193 3.44-2.555 5.405M996.592 473.885c4.386-8.78 8.483-17.975 9.329-29.132 4.84 7.075-.726 13.86-2.342 20.92-.694 3.034-4.089 5.45-6.987 8.212"/><path fill="#2a4165" d="M914.46 366.862c-.558-.773-.53-1.187-.442-2.219 4.328-.355 8.595-.091 13.419 1.245.556 1.42.558 1.768.559 2.116-4.317-.261-8.634-.522-13.536-1.142"/><path fill="#182f4a" d="M987.817 387.9c-3.324-1.432-6.657-3.627-10.37-6.339 4.916-1.507 8.757.063 10.37 6.34M999.745 401.68c-1.984-1.583-3.896-3.953-6.003-6.953 4.323-.603 6.383 1.69 6.003 6.953"/><path fill="#2a4165" d="M965.858 375.414c-2.696.052-5.572-.713-8.96-2.022 2.791-1.05 6.34-2.868 8.96 2.022M955.825 372.256c-2.154.3-4.568-.065-7.454-1.634-.415-1.67-.359-2.136-.303-2.602 2.5 1.19 4.998 2.38 7.757 4.236"/><path fill="#182f4a" d="M928.852 368.223c-.857-.567-.859-.914-.862-1.784 3.219.067 6.44.656 10.14 1.96-2.488.49-5.455.266-9.278-.176M947.127 368.013c.885.473.83.939.71 2.106-2.798.345-5.533-.012-8.738-1.057 2.048-.81 4.568-.933 8.028-1.049"/><path fill="#2a4165" d="M485.562 369.41c-1.07.012-1.86-.527-3.09-1.254.645-.756 1.73-1.324 3.46-1.775.4.905.154 1.69-.37 3.029"/><path fill="#182f4a" d="M973.231 378.373c-1.685.166-3.548-.478-5.913-1.681 1.576-.083 3.656.394 5.913 1.68M977.197 380.452c-1.076.343-2.209-.062-3.685-.97.98-.26 2.304-.02 3.685.97M993.832 477.476c-.078-.903.483-1.965 1.577-3.328.042.856-.448 2.013-1.577 3.328M1001.24 404.307c-.593.098-1.134-.422-1.719-1.529.562-.088 1.167.412 1.72 1.529"/><path fill="#f3f6f7" d="M209.069 1044.872c8.904 12.067 4.619 23.058-9.502 24.961-7.099.957-14.433.167-22.142.167-.181-3.688-.419-6.617-.449-9.547-.063-6.255-.02-12.512-.02-19.929 11.252.578 21.81-2.76 32.113 4.348M191.405 1023.759c-4.817.042-8.766.042-13.588.042v-23.35a54.9 54.9 0 0 1 24.058.619c5.574 1.395 9.434 5.985 9.355 10.324-.1 5.475-3.885 8.293-8.36 9.967-3.357 1.256-7.053 1.603-11.465 2.398M807.943 1023.916c4.598 2.147 5.954 5.247 5.416 9.308-1.067 8.055 3.205 17.245-2.42 24.031-4.881 5.892-12.48 8.955-20.73 6.78-8.064-2.124-12.17-8.24-12.842-15.97-.533-6.122-.139-12.605 1.348-18.553 1.87-7.483 9.643-11.3 18.368-9.801 3.504.602 6.79 2.474 10.86 4.205M544.197 1063.191c-15.744 2.753-23.55-2.933-25.157-17.719-.351-3.232-.029-6.609.46-9.847 2.069-13.7 12.499-19.658 25.285-14.595 9.453 3.743 10.624 5.533 10.642 16.277.004 2.649-.377 5.362.063 7.935 1.54 9.001-2.393 14.509-11.293 17.95M1882.506 1020.555c10.903-.774 18.514 3.412 22.534 12.523 4.278 9.7 3.733 19.683-2.644 28.413-9.32 12.759-32.099 10.127-38.372-4.337-5.808-13.39-2.124-35.131 18.482-36.6M1052.494 1028.906c14.095-13.488 33.726-10.374 39.43 5.94 3.46 9.895 2.992 20.1-4.592 28.022-6.72 7.02-15.626 8.303-24.93 5.267-11.235-3.665-17.354-16.904-13.911-30.448.722-2.84 2.331-5.456 4.003-8.781M1435.902 1034.64c4.33-10.567 11.889-14.572 22.312-14.131 8.704.369 15.289 3.92 19.24 11.828 4.721 9.445 2.844 23.943-3.93 30.811-10.36 10.501-33.187 8.45-37.949-9.158-1.703-6.296-2.003-12.4.327-19.35"/><path fill="#e5e9ee" d="M2261.322 1031.606c.832-2.64 1.312-4.575 2.095-6.379 2.164-4.985 6.033-8.202 11.448-8.1 5.907.113 9.828 4.065 11.755 9.305 1.31 3.559 1.353 7.583 2.1 12.261h-28.187c.191-2.1.384-4.21.79-7.087"/><path fill="#1a3f6e" d="M1545.982 1083.032a79 79 0 0 1-.053 2.266c-.885.513-1.752.584-3.274.657-4.099-.65-7.519-1.642-10.991-1.884-7.48-.52-9.144-1.871-9.572-9.505-.241-4.298-.06-8.62-.06-12.93-.005-14.923-.163-29.849.113-44.766.062-3.385 1.634-6.742 3.21-10.503 4.755-.39 8.812-.39 14.238-.055 1.726 1.463 2.082 2.59 2.438 3.718 4.342 4.265 8.542 5.01 14.098 1.32 8.677-5.763 18.273-8.666 29.088-7.491 9.48 1.03 16.601 4.687 19.563 14.044 1.58 4.996 2.897 10.28 3.071 15.476.433 12.956.242 25.937.112 38.906-.107 10.678-1.305 11.698-12.366 11.728-3.28.01-6.56.002-10.735.002-.33-3.597-.798-6.447-.816-9.3-.082-12.969-.019-25.94-.046-38.91-.011-4.986-.202-9.946-5.22-13.696-2.54-1.45-4.192-3.51-6.168-3.89-8.273-1.596-15.692 1.6-22.766 5.328-3.66 1.928-3.897 5.79-3.878 9.627.08 16.308.026 32.616.014 49.858"/><path fill="#1c3558" d="M1542.518 1009.653c-.843-.75-1.199-1.878-2.054-3.346.52-.65 1.54-.959 2.561-1.268-.007 1.413-.014 2.825-.507 4.614"/><path fill="#173d6e" d="M2120 1042.002v-35.313h21.272c.26 3.258.678 6.139.687 9.021q.092 28.436.017 56.872c-.03 10.82-.624 11.365-11.163 11.42-2.965.015-5.93.002-8.99.002-3.37-7.218-1.408-14.256-1.748-21.052-.332-6.635-.074-13.3-.075-20.95"/><path fill="#2a4165" d="M897.036 506.376c-1.965.707-4.84 1.623-7.717 1.625-125.993.072-251.987.066-377.981.044-1.981 0-3.962-.313-6.602-.967 1.32-.656 3.297-.97 5.275-.97 128.705 0 257.41.026 387.025.268"/></svg>