<svg version="1.1" id="nexus" xmlns="http://www.w3.org/2000/svg" xmlns:xlink="http://www.w3.org/1999/xlink" x="0px" y="0px" viewBox="0 0 2441.1 670.1">
<style type="text/css">
	.st0{fill:#FFFFFF;}
</style>
<g id="Calque_5_-_copie">
</g>
<g>
	<g>
		<g>
			<path class="st0" d="M659.1,212.4c-5.6,3-11.7,5.8-18.2,8.3c14.2,35.9,21.6,74.5,21.6,114.2c0,173.9-144.1,315.4-321.2,315.4
				C164.1,650.3,20,508.9,20,335C20,161.2,163.5,19.6,341.3,19.6c123.4,0,205.8,64.8,247.9,114.8c10,0.6,17.8,0.6,25.9,0.5
				C567.8,72.8,476.1,0,341.3,0C151.8,0,0,151,0,335c0,184.7,153.1,335,341.3,335c188.1,0,341.2-150.3,341.2-335
				C682.5,292.4,674.5,251,659.1,212.4z"></path>
			<path class="st0" d="M383.3,251.5c-60.6-20.8-121-26.4-159.8-28.7c-4-5.9-5.2-16.4-4.5-24c32.5-6.5,72.3-8.3,111.2-6.6l7.6-18.9
				c-45.8-31.5-103.3-44.9-142.1-36.7c-43.1,28.4-64.7,80.9-39,127.8L137,295.1c0,0-20.9,4.9-33.6,11.2c-5.8,7.2-6.9,15.3-6.9,15.3
				h56.8l31.9-23.5c27.1,22.1,62.4,34.4,95.5,40.7c5.1-12.6,19.8-25.7,34.5-31.1c1.7-0.2,4,0.2,4.7,0.4c-11,9-18.9,19.9-23.1,34.1
				c-0.9,13.2,6.2,30.9,9.4,38.6c-13.8,3.1-21.9,5.6-33.6,10.5c-4.8,5.1-7.7,13.8-8.3,18.2H341l51.5-56.4
				c58.4,1.9,118.3,35.7,107.2,95.6c-2.3,12.5-12.3,41.2-48,54C393,522.2,340.9,476.9,293,450.8c-44.9-24.4-91.5-28.9-135.8-6.6
				c-6.9,7.9-8.9,19-8.9,19c17.7-7.5,31.5-10.3,49.8-11.6c68.9-4.9,117.7,68.8,181.1,85.3c88.2,22.9,167.1-24,176-105.8
				C560,382.7,534.3,304.5,383.3,251.5z M284.8,158.4c-39.3,15.6-45.1,1.1-48.2-11C253.8,148.6,270.1,152.5,284.8,158.4z"></path>
			<g>
				<path class="st0" d="M523.5,142.9l22.5-15.6c-90.3-6.1-167.8,36.3-195.6,66.5c43.9,4.1,91.3,14.4,134.2,35.5l-7-24.6
					c39.2,19.4,92.9,29.9,127.3,24.1l-17-15c82.1-9.9,113-63.1,116.2-68.5C645.7,156.8,574.3,159.6,523.5,142.9z"></path>
			</g>
		</g>
	</g>
	<g>
		<rect x="834.7" y="495.2" class="st0" width="33.1" height="121.5"></rect>
		<polygon class="st0" points="988.5,495.2 988.5,574.5 987.9,574.5 933.3,495.2 895.8,495.2 895.8,616.7 926.9,616.7 926.9,537.3 
			927.5,537.3 982.3,616.7 1019.6,616.7 1019.6,495.2 		"></polygon>
		<g>
			<path class="st0" d="M1420.6,493.4c-38.5,0-68.4,27.6-68.4,62.9c0,35.5,29.3,62.3,68.1,62.3c38.4,0,68.4-27.8,68.4-62.4
				C1488.7,518.9,1457.9,493.4,1420.6,493.4z M1420.6,598.3c-24.3,0-44.5-17.9-44.5-42.6c0-23.9,19-42,44.2-42
				c25.7,0,44.5,18.5,44.5,42.6C1464.8,580.3,1445.8,598.3,1420.6,598.3z"></path>
			<path class="st0" d="M1604,495.4v69.8c0,21.5-11.4,32.9-32.9,32.9c-21.3,0-33.5-12.3-33.5-33.8v-69h-23.4v69.8
				c0,32.9,21.6,53.3,56.5,53.3c35.5,0,56.7-20.3,56.7-54.2v-68.9L1604,495.4L1604,495.4z"></path>
			<path class="st0" d="M1715.8,495.4h-56.1v121.3h23.4v-39.8h30.5c26.7,0,53.6-12.8,53.6-41.5
				C1767.1,511.1,1746.9,495.4,1715.8,495.4z M1743.5,536.2c0,12.3-11.9,20.5-29.5,20.5h-31v-41.1h31.7
				C1731.3,515.7,1743.5,521.4,1743.5,536.2z"></path>
			<path class="st0" d="M1303.1,572.3c17.6-6.8,27.3-19.8,27.3-36.9c0-24.3-20.1-40-51.3-40h-58.6v121.3h23.4v-39.8h34.3l32.8,39.8
				h29L1303.1,572.3z M1277.3,556.7h-33.4v-41.1h34.1c19.2,0,28.8,7.5,28.8,20.5C1306.8,548.5,1294.9,556.7,1277.3,556.7z"></path>
			<polygon class="st0" points="1888.2,515.5 1888.2,495.4 1787.9,495.4 1787.9,616.7 1888.2,616.7 1888.2,596.5 1811.3,596.5 
				1811.3,565.6 1879.3,565.6 1879.3,545.5 1811.3,545.5 1811.3,515.5 			"></polygon>
			<path class="st0" d="M1129,545.2v20h35.3v30.5h-36c-27.6,0-45.4-19.4-45.4-39.8c0-21.9,19.7-39.8,44-39.8h52.1l0-20.8h-52.1
				c-37.6,0-67.1,27.4-67.1,60.6c0,33.5,30.1,60.8,67.1,60.8h60.6v-71.5H1129z"></path>
		</g>
	</g>
	<path class="st0" d="M894.1,82.2c1.4,16.8,2.9,40.7,2.9,54.7h2.1c16.4-35.8,61.4-63.8,110-63.8c87.1,0,126.4,61,126.4,135.3v206.1
		h-67.1V230.2c0-54-15-101.7-77.1-101.7c-52.8,0-90.7,43.5-90.7,109.4v176.7h-67.1V153.7c0-17.5-0.7-49.8-2.9-71.5H894.1z"></path>
	<path class="st0" d="M1506,268h-268.5c2.1,56.8,50.7,101,110,101c45.7,0,79.3-22.4,98.6-50.5l47.1,37.2
		c-36.4,46.3-85.7,68-145.7,68c-102.8,0-178.6-70.1-178.6-174.6c0-103.8,75.7-176,175-176c100,0,162.8,66.6,162.8,172.5
		C1506.7,252.6,1506.7,260.3,1506,268z M1438.8,218.9c-1.4-52.6-32.9-93.9-95-93.9c-57.9,0-102.1,42.1-106.4,93.9H1438.8z"></path>
	<path class="st0" d="M1621.2,240L1497.7,82.2h82.8l82.8,114.3l83.6-114.3h78.6l-122.1,157l136.4,175.3h-83.6L1662,284.8
		l-95.7,129.7h-80.7L1621.2,240z"></path>
	<path class="st0" d="M2086.9,414.5c-1.4-16.8-2.9-40.7-2.9-54.7h-1.4c-17.1,35.1-61.4,63.8-110.7,63.8
		c-87.1,0-126.4-61-126.4-135.3V82.2h67.1v183.7c0,54.7,15,102.4,77.1,102.4c53.6,0,90.7-43.5,90.7-109.4V82.2h67.1V343
		c0,17.5,0.7,49.8,2.9,71.5L2086.9,414.5L2086.9,414.5z"></path>
	<path class="st0" d="M2391.9,166.3c-15-23.8-44.3-41.4-78.6-41.4c-30.7,0-62.8,11.9-62.8,43.5c0,28,25.7,38.6,77.1,49.8
		c64.3,14,113.6,40,113.6,98.1c0,78.5-66.4,107.3-135,107.3c-51.4,0-104.3-19.6-136.4-59.6l47.9-40c17.9,25.9,52.1,46.3,90,46.3
		c33.6,0,67.1-11.9,67.1-48.4c0-30.9-30.7-42.1-88.6-55.4c-45-10.5-98.6-29.4-98.6-91.8c0-71.5,63.6-101.7,127.8-101.7
		c47.9,0,98.6,18.9,122.8,54.7L2391.9,166.3z"></path>
</g>
</svg>