<svg xmlns="http://www.w3.org/2000/svg" id="nexus" x="0" y="0" viewBox="0 0 2441.1 670.1"><style>.st0{fill:#003088}</style><path d="M659.1 212.4c-5.6 3-11.7 5.8-18.2 8.3 14.2 35.9 21.6 74.5 21.6 114.2 0 173.9-144.1 315.4-321.2 315.4C164.1 650.3 20 508.9 20 335 20 161.2 163.5 19.6 341.3 19.6c123.4 0 205.8 64.8 247.9 114.8 10 .6 17.8.6 25.9.5C567.8 72.8 476.1 0 341.3 0 151.8 0 0 151 0 335c0 184.7 153.1 335 341.3 335 188.1 0 341.2-150.3 341.2-335 0-42.6-8-84-23.4-122.6" class="st0"/><path d="M383.3 251.5c-60.6-20.8-121-26.4-159.8-28.7-4-5.9-5.2-16.4-4.5-24 32.5-6.5 72.3-8.3 111.2-6.6l7.6-18.9c-45.8-31.5-103.3-44.9-142.1-36.7-43.1 28.4-64.7 80.9-39 127.8L137 295.1s-20.9 4.9-33.6 11.2c-5.8 7.2-6.9 15.3-6.9 15.3h56.8l31.9-23.5c27.1 22.1 62.4 34.4 95.5 40.7 5.1-12.6 19.8-25.7 34.5-31.1 1.7-.2 4 .2 4.7.4-11 9-18.9 19.9-23.1 34.1-.9 13.2 6.2 30.9 9.4 38.6-13.8 3.1-21.9 5.6-33.6 10.5-4.8 5.1-7.7 13.8-8.3 18.2H341l51.5-56.4c58.4 1.9 118.3 35.7 107.2 95.6-2.3 12.5-12.3 41.2-48 54-58.7 19.5-110.8-25.8-158.7-51.9-44.9-24.4-91.5-28.9-135.8-6.6-6.9 7.9-8.9 19-8.9 19 17.7-7.5 31.5-10.3 49.8-11.6 68.9-4.9 117.7 68.8 181.1 85.3 88.2 22.9 167.1-24 176-105.8 4.8-48.4-20.9-126.6-171.9-179.6m-98.5-93.1c-39.3 15.6-45.1 1.1-48.2-11 17.2 1.2 33.5 5.1 48.2 11" class="st0"/><path d="m523.5 142.9 22.5-15.6c-90.3-6.1-167.8 36.3-195.6 66.5 43.9 4.1 91.3 14.4 134.2 35.5l-7-24.6c39.2 19.4 92.9 29.9 127.3 24.1l-17-15c82.1-9.9 113-63.1 116.2-68.5-58.4 11.5-129.8 14.3-180.6-2.4M834.7 495.2h33.1v121.5h-33.1zM988.5 495.2v79.3h-.6l-54.6-79.3h-37.5v121.5h31.1v-79.4h.6l54.8 79.4h37.3V495.2zM1420.6 493.4c-38.5 0-68.4 27.6-68.4 62.9 0 35.5 29.3 62.3 68.1 62.3 38.4 0 68.4-27.8 68.4-62.4 0-37.3-30.8-62.8-68.1-62.8m0 104.9c-24.3 0-44.5-17.9-44.5-42.6 0-23.9 19-42 44.2-42 25.7 0 44.5 18.5 44.5 42.6 0 24-19 42-44.2 42M1604 495.4v69.8c0 21.5-11.4 32.9-32.9 32.9-21.3 0-33.5-12.3-33.5-33.8v-69h-23.4v69.8c0 32.9 21.6 53.3 56.5 53.3 35.5 0 56.7-20.3 56.7-54.2v-68.9zM1715.8 495.4h-56.1v121.3h23.4v-39.8h30.5c26.7 0 53.6-12.8 53.6-41.5-.1-24.3-20.3-40-51.4-40m27.7 40.8c0 12.3-11.9 20.5-29.5 20.5h-31v-41.1h31.7c16.6.1 28.8 5.8 28.8 20.6M1303.1 572.3c17.6-6.8 27.3-19.8 27.3-36.9 0-24.3-20.1-40-51.3-40h-58.6v121.3h23.4v-39.8h34.3l32.8 39.8h29zm-25.8-15.6h-33.4v-41.1h34.1c19.2 0 28.8 7.5 28.8 20.5 0 12.4-11.9 20.6-29.5 20.6M1888.2 515.5v-20.1h-100.3v121.3h100.3v-20.2h-76.9v-30.9h68v-20.1h-68v-30zM1129 545.2v20h35.3v30.5h-36c-27.6 0-45.4-19.4-45.4-39.8 0-21.9 19.7-39.8 44-39.8h52.1v-20.8h-52.1c-37.6 0-67.1 27.4-67.1 60.6 0 33.5 30.1 60.8 67.1 60.8h60.6v-71.5zM894.1 82.2c1.4 16.8 2.9 40.7 2.9 54.7h2.1c16.4-35.8 61.4-63.8 110-63.8 87.1 0 126.4 61 126.4 135.3v206.1h-67.1V230.2c0-54-15-101.7-77.1-101.7-52.8 0-90.7 43.5-90.7 109.4v176.7h-67.1V153.7c0-17.5-.7-49.8-2.9-71.5zM1506 268h-268.5c2.1 56.8 50.7 101 110 101 45.7 0 79.3-22.4 98.6-50.5l47.1 37.2c-36.4 46.3-85.7 68-145.7 68-102.8 0-178.6-70.1-178.6-174.6 0-103.8 75.7-176 175-176 100 0 162.8 66.6 162.8 172.5 0 7 0 14.7-.7 22.4m-67.2-49.1c-1.4-52.6-32.9-93.9-95-93.9-57.9 0-102.1 42.1-106.4 93.9z" class="st0"/><path d="M1621.2 240 1497.7 82.2h82.8l82.8 114.3 83.6-114.3h78.6l-122.1 157 136.4 175.3h-83.6L1662 284.8l-95.7 129.7h-80.7zM2086.9 414.5c-1.4-16.8-2.9-40.7-2.9-54.7h-1.4c-17.1 35.1-61.4 63.8-110.7 63.8-87.1 0-126.4-61-126.4-135.3V82.2h67.1v183.7c0 54.7 15 102.4 77.1 102.4 53.6 0 90.7-43.5 90.7-109.4V82.2h67.1V343c0 17.5.7 49.8 2.9 71.5zM2391.9 166.3c-15-23.8-44.3-41.4-78.6-41.4-30.7 0-62.8 11.9-62.8 43.5 0 28 25.7 38.6 77.1 49.8 64.3 14 113.6 40 113.6 98.1 0 78.5-66.4 107.3-135 107.3-51.4 0-104.3-19.6-136.4-59.6l47.9-40c17.9 25.9 52.1 46.3 90 46.3 33.6 0 67.1-11.9 67.1-48.4 0-30.9-30.7-42.1-88.6-55.4-45-10.5-98.6-29.4-98.6-91.8 0-71.5 63.6-101.7 127.8-101.7 47.9 0 98.6 18.9 122.8 54.7z" class="st0"/></svg>