<svg version="1.2" xmlns="http://www.w3.org/2000/svg" viewBox="0 0 385 162">
	<title>SmartCrypto Solutions</title>
	<defs>
		<linearGradient id="g1" x2="1" gradientUnits="userSpaceOnUse" gradientTransform="matrix(-74.852,-129.648,135.981,-78.508,173.735,150.214)">
			<stop offset="0" stop-color="#009bff"/>
			<stop offset="1" stop-color="#262261"/>
		</linearGradient>
	</defs>
	<style>
		.s0 { fill: url(#g1) } 
		.s1 { fill: #ffffff } 
		.s2 { fill: #009bff } 
		.s3 { fill: #262262 } 
	</style>
	<path id="element" class="s0" d="m252.5 54c-0.7 26.8-21.5 48.4-47.7 50.6q-2.1 0.1-4.3 0.1h-15.1q-0.6 0-1.3 0c-28.7-0.7-51.4-24.6-50.7-53.3 0.7-28.3 23.9-50.8 52-50.8h15.1q0.6 0 1.3 0.1 1.5 0 3 0.1c27.3 2.3 48.4 25.5 47.7 53.2z"/>
	<path id="element inner" class="s1" d="m231.7 59.8c0 13.1-9.7 24.2-22.7 26.2q-0.7 0.1-1.5 0.2-0.1 0-0.3 0c-2.1 0-3.7-1.7-3.7-3.7 0-2 1.4-3.5 3.2-3.7q0.1 0 0.1-0.1 0.6 0 1.1-0.1c9.4-1.3 16.3-9.4 16.3-18.8 0-10.6-8.5-19.2-19.1-19.2h-24.3c-2.2 0-3.9 1.8-3.9 3.9 0 2.2 1.7 3.9 3.9 3.9h24.3c6.3 0 11.4 5.1 11.4 11.4 0 6.2-5.1 11.3-11.4 11.3q-0.3 0-0.5 0h-23.8c-14.7 0-26.6-11.9-26.6-26.6 0-11.7 7.9-22.2 19.1-25.4q2-0.6 3.8-0.9 0.3 0 0.5 0c1.9 0 3.5 1.4 3.7 3.2 0.1 1-0.1 2-0.7 2.8-0.6 0.8-1.5 1.3-2.5 1.4q-2.8 0.4-5.3 1.6c-6.8 3.1-11.1 9.9-11.1 17.3 0 10.6 8.5 19.1 19.1 19.1h24q0.1 0 0.3 0c2.2 0 3.9-1.7 3.9-3.8 0-2.2-1.7-3.9-3.9-3.9h-24.3c-6.3 0-11.3-5.1-11.3-11.4 0-6.2 5-11.3 11.3-11.3h24.3c14.7 0 26.6 11.9 26.6 26.6zm-32.9 23c0 2.3-1.9 4.1-4.2 4.1h-3.3c-2.3 0-4.2-1.8-4.2-4.1 0-2.4 1.9-4.2 4.2-4.2h3.3c2.3 0 4.2 1.8 4.2 4.2z"/>
	<path id="crypto" fill-rule="evenodd" class="s2" d="m191.1 134.1q0.3-1.7 0.9-3.1 0.6-1.4 1.7-2.4 1.1-0.9 2.6-1.5 1.5-0.6 3.5-0.6h21.3q1.3 0 1.1 1.4l-0.4 2.8q-0.2 1.4-1.6 1.4h-19.2q-1.6 0-2.6 0.9-1 0.8-1.3 2.4l-1.1 7.3q-0.1 0.2-0.1 0.7 0 1.2 0.8 1.9 0.7 0.7 2.1 0.7h19.2q1.4 0 1.1 1.4l-0.4 2.7q-0.2 1.4-1.6 1.4h-21.2q-3 0-4.8-1.6-1.7-1.7-1.7-4.5 0-0.6 0.1-1.4zm37.5-5.5q2.1-2.1 6.1-2.1h12q1.3 0 1.1 1.4l-0.4 2.8q-0.2 1.4-1.6 1.4h-9.9q-1.6 0-2.6 0.9-1 0.8-1.3 2.4l-2.3 14.7q-0.2 1.4-1.6 1.4h-3.5q-1.4 0-1.2-1.4l2.5-16q0.6-3.4 2.7-5.5zm50.5 24.9q-0.5 3.8-2.8 6-2.2 2.2-6.6 2.2h-20.4q-1.4 0-1.2-1.4l0.4-2.5q0.2-1.3 1.6-1.3h18.7q1.8 0 2.8-1 1.1-0.9 1.4-2.6l0.6-4q-1.1 1.2-2.6 1.9-1.6 0.7-3.7 0.7h-11.6q-3 0-4.7-1.6-1.8-1.7-1.8-4.4 0-0.7 0.2-1.5l2.5-16.1q0.2-1.4 1.6-1.4h3.5q1.3 0 1.1 1.4l-2.3 14.8q0 0.2 0 0.7 0 1.2 0.7 1.9 0.7 0.7 2.1 0.7h12.2q1.5 0 2.5-0.9 1.1-0.9 1.3-2.4l2.4-14.8q0.1-1.4 1.5-1.4h3.5q1.4 0 1.2 1.4zm18.5-2q-2.2 0-3.6-0.7-1.4-0.7-2.1-2l-1.7 11.5q-0.2 1.4-1.6 1.4h-3.5q-1.4 0-1.2-1.4l4.1-26.2q0.6-3.4 2.7-5.5 2.1-2.1 6.1-2.1h17q3 0 4.7 1.7 1.7 1.7 1.7 4.4 0 0.4 0 0.8 0 0.3 0 0.7l-1.6 9.9q-0.3 1.7-0.9 3-0.7 1.4-1.7 2.4-1.1 1-2.6 1.6-1.6 0.5-3.6 0.5zm-4.6-8.8q0 0.2 0 0.7 0 1.2 0.7 1.9 0.7 0.7 2.1 0.7h12.9q1.6 0 2.6-0.9 1-0.9 1.3-2.4l1.1-7.3q0.1-0.3 0.1-0.7 0-1.3-0.8-2-0.7-0.6-2.1-0.6h-12.9q-1.5 0-2.6 0.9-1 0.8-1.2 2.4zm32.6-10.6q-1.4 0-1.2-1.4l0.5-2.8q0.2-1.4 1.6-1.4h2.6l0.7-4.6q0.2-1.4 1.6-1.4h3.5q1.4 0 1.1 1.4l-0.7 4.6h12.6q1.3 0 1.1 1.4l-0.4 2.8q-0.2 1.4-1.6 1.4h-12.5l-1.7 10.6q-0.1 0.2-0.1 0.7 0 1.2 0.8 1.9 0.7 0.7 2.1 0.7h9.4q1.4 0 1.2 1.4l-0.5 2.7q-0.2 1.4-1.5 1.4h-11.5q-3 0-4.8-1.6-1.7-1.7-1.7-4.5 0-0.6 0.1-1.4l1.9-11.9zm27.2 2q0.3-1.7 0.9-3.1 0.6-1.4 1.7-2.4 1.1-0.9 2.6-1.5 1.5-0.6 3.5-0.6h17q3 0 4.7 1.7 1.8 1.7 1.8 4.4 0 0.4 0 0.8 0 0.3-0.1 0.7l-1.6 9.9q-0.3 1.7-0.9 3-0.7 1.4-1.7 2.4-1.1 1-2.6 1.6-1.5 0.5-3.6 0.5h-16.9q-3 0-4.8-1.6-1.7-1.7-1.7-4.5 0-0.6 0.1-1.4zm25.6 1.3q0-0.3 0-0.8 0-1.2-0.7-1.9-0.7-0.6-2.1-0.6h-12.9q-1.5 0-2.6 0.8-1 0.9-1.2 2.5l-1.2 7.3q0 0.2 0 0.7 0 1.2 0.7 1.9 0.7 0.7 2.1 0.7h12.9q1.5 0 2.6-0.9 1-0.9 1.2-2.4z"/>
	<path id="smart" fill-rule="evenodd" class="s3" d="m2.8 151.7q-1.4 0-1.4-1.4v-2.7q0-1.4 1.4-1.4h21q1.2 0 1.7-0.6 0.5-0.5 0.5-1.6v-0.2q0-1.1-0.5-1.6-0.5-0.6-1.7-0.6h-16q-6.9 0-6.9-6.8v-1.3q0-3.3 1.8-5 1.7-1.8 5.1-1.8h22.1q1.4 0 1.4 1.4v2.7q0 1.4-1.4 1.4h-20.5q-1.2 0-1.7 0.6-0.5 0.5-0.5 1.6v0.2q0 1.1 0.5 1.6 0.5 0.6 1.7 0.6h16q3.4 0 5.1 1.7 1.8 1.8 1.8 5.1v1.3q0 3.3-1.8 5-1.7 1.8-5.1 1.8zm52.2-18.6q-0.9-0.9-2.5-0.9h-6q-1.6 0-2.4 0.9-0.9 0.9-0.9 2.5v14.7q0 1.4-1.4 1.4h-3.5q-1.4 0-1.4-1.4v-16q0-3.4 2.1-5.5 2.1-2.1 5.5-2.1h8.3q2.2 0 3.7 0.9 1.6 0.9 2.5 2.5 0.8-1.6 2.3-2.5 1.6-0.9 3.8-0.9h8.5q3.4 0 5.5 2.1 2.1 2.1 2.1 5.5v16q0 1.4-1.4 1.4h-3.5q-1.4 0-1.4-1.4v-14.7q0-1.6-0.9-2.5-0.9-0.9-2.4-0.9h-6.2q-1.5 0-2.4 0.9-0.9 0.9-0.9 2.5v14.7q0 1.4-1.4 1.4h-3.5q-1.4 0-1.4-1.4v-14.7q0-1.6-0.8-2.5zm56.2 2.5q0-1.6-0.9-2.5-0.8-0.9-2.4-0.9h-19.7q-1.3 0-1.3-1.4v-2.7q0-1.4 1.3-1.4h21.7q3.4 0 5.5 2.1 2.1 2.1 2.1 5.5v10.3q0 3.4-1.8 5.3-1.9 1.8-5.3 1.8h-17.8q-3.3 0-5.1-1.8-1.7-1.7-1.7-5v-1.3q0-6.8 6.8-6.8h18.6zm-2.4 10.6q2.4 0 2.4-2.4v-2.2h-17q-1.2 0-1.6 0.6-0.5 0.6-0.5 1.6v0.2q0 1.2 0.5 1.7 0.4 0.5 1.6 0.5zm16.1-17.4q2.1-2.1 5.5-2.1h12q1.4 0 1.4 1.4v2.7q0 1.4-1.4 1.4h-9.9q-1.6 0-2.5 0.9-0.9 0.9-0.9 2.5v14.7q0 1.4-1.4 1.4h-3.5q-1.3 0-1.3-1.4v-16q0-3.4 2-5.5zm45.7 18.8v2.7q0 1.4-1.4 1.4h-11.5q-3.4 0-5.4-2.1-2.1-2-2.1-5.5v-11.9h-2.6q-1.3 0-1.3-1.4v-2.7q0-1.4 1.3-1.4h2.6v-4.6q0-1.4 1.4-1.4h3.5q1.4 0 1.4 1.4v4.6h12.5q1.4 0 1.4 1.4v2.7q0 1.4-1.4 1.4h-12.5v10.6q0 1.6 0.8 2.5 0.9 0.9 2.5 0.9h9.4q1.4 0 1.4 1.4zm4.6 2.6v-3.8q0-1.6 1.5-1.6h4.8q1.4 0 1.4 1.6v3.8q0 1.5-1.4 1.5h-4.8q-1.5 0-1.5-1.5z"/>
</svg>
