<svg xmlns="http://www.w3.org/2000/svg" viewBox="0 0 385 162"><title>SmartCrypto Solutions</title><defs><linearGradient id="a" x2="1" gradientTransform="rotate(240 130.23 24.954)scale(149.704 157.017)" gradientUnits="userSpaceOnUse"><stop offset="0" stop-color="#009bff"/><stop offset="1" stop-color="#262261"/></linearGradient></defs><path d="M252.5 54c-.7 26.8-21.5 48.4-47.7 50.6q-2.1.1-4.3.1h-16.4c-28.7-.7-51.4-24.6-50.7-53.3.7-28.3 23.9-50.8 52-50.8h15.1q.6 0 1.3.1 1.5 0 3 .1c27.3 2.3 48.4 25.5 47.7 53.2" style="fill:url(#a)"/><path d="M231.7 59.8C231.7 72.9 222 84 209 86q-.7.1-1.5.2h-.3c-2.1 0-3.7-1.7-3.7-3.7s1.4-3.5 3.2-3.7q.1 0 .1-.1.6 0 1.1-.1c9.4-1.3 16.3-9.4 16.3-18.8 0-10.6-8.5-19.2-19.1-19.2h-24.3c-2.2 0-3.9 1.8-3.9 3.9 0 2.2 1.7 3.9 3.9 3.9h24.3c6.3 0 11.4 5.1 11.4 11.4 0 6.2-5.1 11.3-11.4 11.3h-24.3c-14.7 0-26.6-11.9-26.6-26.6 0-11.7 7.9-22.2 19.1-25.4q2-.6 3.8-.9h.5c1.9 0 3.5 1.4 3.7 3.2.1 1-.1 2-.7 2.8s-1.5 1.3-2.5 1.4q-2.8.4-5.3 1.6c-6.8 3.1-11.1 9.9-11.1 17.3 0 10.6 8.5 19.1 19.1 19.1h24.3c2.2 0 3.9-1.7 3.9-3.8 0-2.2-1.7-3.9-3.9-3.9h-24.3c-6.3 0-11.3-5.1-11.3-11.4 0-6.2 5-11.3 11.3-11.3h24.3c14.7 0 26.6 11.9 26.6 26.6m-32.9 23c0 2.3-1.9 4.1-4.2 4.1h-3.3c-2.3 0-4.2-1.8-4.2-4.1 0-2.4 1.9-4.2 4.2-4.2h3.3c2.3 0 4.2 1.8 4.2 4.2" style="fill:#fff"/><path fill-rule="evenodd" d="M191.1 134.1q.3-1.7.9-3.1t1.7-2.4q1.1-.9 2.6-1.5t3.5-.6h21.3q1.3 0 1.1 1.4l-.4 2.8q-.2 1.4-1.6 1.4H201q-1.6 0-2.6.9-1 .8-1.3 2.4l-1.1 7.3q-.1.2-.1.7 0 1.2.8 1.9.7.7 2.1.7H218q1.4 0 1.1 1.4l-.4 2.7q-.2 1.4-1.6 1.4h-21.2q-3 0-4.8-1.6-1.7-1.7-1.7-4.5 0-.6.1-1.4zm37.5-5.5q2.1-2.1 6.1-2.1h12q1.3 0 1.1 1.4l-.4 2.8q-.2 1.4-1.6 1.4h-9.9q-1.6 0-2.6.9-1 .8-1.3 2.4l-2.3 14.7q-.2 1.4-1.6 1.4h-3.5q-1.4 0-1.2-1.4l2.5-16q.6-3.4 2.7-5.5m50.5 24.9q-.5 3.8-2.8 6-2.2 2.2-6.6 2.2h-20.4q-1.4 0-1.2-1.4l.4-2.5q.2-1.3 1.6-1.3h18.7q1.8 0 2.8-1 1.1-.9 1.4-2.6l.6-4q-1.1 1.2-2.6 1.9-1.6.7-3.7.7h-11.6q-3 0-4.7-1.6-1.8-1.7-1.8-4.4 0-.7.2-1.5l2.5-16.1q.2-1.4 1.6-1.4h3.5q1.3 0 1.1 1.4l-2.3 14.8v.7q0 1.2.7 1.9t2.1.7h12.2q1.5 0 2.5-.9 1.1-.9 1.3-2.4l2.4-14.8q.1-1.4 1.5-1.4h3.5q1.4 0 1.2 1.4zm18.5-2q-2.2 0-3.6-.7t-2.1-2l-1.7 11.5q-.2 1.4-1.6 1.4h-3.5q-1.4 0-1.2-1.4l4.1-26.2q.6-3.4 2.7-5.5t6.1-2.1h17q3 0 4.7 1.7t1.7 4.4v1.5l-1.6 9.9q-.3 1.7-.9 3-.7 1.4-1.7 2.4-1.1 1-2.6 1.6-1.6.5-3.6.5zm-4.6-8.8v.7q0 1.2.7 1.9t2.1.7h12.9q1.6 0 2.6-.9t1.3-2.4l1.1-7.3q.1-.3.1-.7 0-1.3-.8-2-.7-.6-2.1-.6H298q-1.5 0-2.6.9-1 .8-1.2 2.4zm32.6-10.6q-1.4 0-1.2-1.4l.5-2.8q.2-1.4 1.6-1.4h2.6l.7-4.6q.2-1.4 1.6-1.4h3.5q1.4 0 1.1 1.4l-.7 4.6h12.6q1.3 0 1.1 1.4l-.4 2.8q-.2 1.4-1.6 1.4h-12.5l-1.7 10.6q-.1.2-.1.7 0 1.2.8 1.9.7.7 2.1.7h9.4q1.4 0 1.2 1.4l-.5 2.7q-.2 1.4-1.5 1.4h-11.5q-3 0-4.8-1.6-1.7-1.7-1.7-4.5 0-.6.1-1.4l1.9-11.9zm27.2 2q.3-1.7.9-3.1t1.7-2.4q1.1-.9 2.6-1.5t3.5-.6h17q3 0 4.7 1.7 1.8 1.7 1.8 4.4v.8q0 .3-.1.7l-1.6 9.9q-.3 1.7-.9 3-.7 1.4-1.7 2.4-1.1 1-2.6 1.6-1.5.5-3.6.5h-16.9q-3 0-4.8-1.6-1.7-1.7-1.7-4.5 0-.6.1-1.4zm25.6 1.3v-.8q0-1.2-.7-1.9-.7-.6-2.1-.6h-12.9q-1.5 0-2.6.8-1 .9-1.2 2.5l-1.2 7.3v.7q0 1.2.7 1.9t2.1.7h12.9q1.5 0 2.6-.9 1-.9 1.2-2.4z" style="fill:#009bff"/><path fill-rule="evenodd" d="M2.8 151.7q-1.4 0-1.4-1.4v-2.7q0-1.4 1.4-1.4h21q1.2 0 1.7-.6.5-.5.5-1.6v-.2q0-1.1-.5-1.6-.5-.6-1.7-.6h-16q-6.9 0-6.9-6.8v-1.3q0-3.3 1.8-5 1.7-1.8 5.1-1.8h22.1q1.4 0 1.4 1.4v2.7q0 1.4-1.4 1.4H9.4q-1.2 0-1.7.6-.5.5-.5 1.6v.2q0 1.1.5 1.6.5.6 1.7.6h16q3.4 0 5.1 1.7 1.8 1.8 1.8 5.1v1.3q0 3.3-1.8 5-1.7 1.8-5.1 1.8zM55 133.1q-.9-.9-2.5-.9h-6q-1.6 0-2.4.9-.9.9-.9 2.5v14.7q0 1.4-1.4 1.4h-3.5q-1.4 0-1.4-1.4v-16q0-3.4 2.1-5.5t5.5-2.1h8.3q2.2 0 3.7.9 1.6.9 2.5 2.5.8-1.6 2.3-2.5 1.6-.9 3.8-.9h8.5q3.4 0 5.5 2.1t2.1 5.5v16q0 1.4-1.4 1.4h-3.5q-1.4 0-1.4-1.4v-14.7q0-1.6-.9-2.5t-2.4-.9h-6.2q-1.5 0-2.4.9t-.9 2.5v14.7q0 1.4-1.4 1.4h-3.5q-1.4 0-1.4-1.4v-14.7q0-1.6-.8-2.5m56.2 2.5q0-1.6-.9-2.5-.8-.9-2.4-.9H88.2q-1.3 0-1.3-1.4v-2.7q0-1.4 1.3-1.4h21.7q3.4 0 5.5 2.1t2.1 5.5v10.3q0 3.4-1.8 5.3-1.9 1.8-5.3 1.8H92.6q-3.3 0-5.1-1.8-1.7-1.7-1.7-5v-1.3q0-6.8 6.8-6.8h18.6zm-2.4 10.6q2.4 0 2.4-2.4v-2.2h-17q-1.2 0-1.6.6-.5.6-.5 1.6v.2q0 1.2.5 1.7.4.5 1.6.5zm16.1-17.4q2.1-2.1 5.5-2.1h12q1.4 0 1.4 1.4v2.7q0 1.4-1.4 1.4h-9.9q-1.6 0-2.5.9t-.9 2.5v14.7q0 1.4-1.4 1.4h-3.5q-1.3 0-1.3-1.4v-16q0-3.4 2-5.5m45.7 18.8v2.7q0 1.4-1.4 1.4h-11.5q-3.4 0-5.4-2.1-2.1-2-2.1-5.5v-11.9h-2.6q-1.3 0-1.3-1.4v-2.7q0-1.4 1.3-1.4h2.6v-4.6q0-1.4 1.4-1.4h3.5q1.4 0 1.4 1.4v4.6H169q1.4 0 1.4 1.4v2.7q0 1.4-1.4 1.4h-12.5v10.6q0 1.6.8 2.5.9.9 2.5.9h9.4q1.4 0 1.4 1.4m4.6 2.6v-3.8q0-1.6 1.5-1.6h4.8q1.4 0 1.4 1.6v3.8q0 1.5-1.4 1.5h-4.8q-1.5 0-1.5-1.5" style="fill:#262262"/></svg>