<?xml version="1.0" encoding="UTF-8"?>
<!DOCTYPE svg PUBLIC "-//W3C//DTD SVG 1.1//EN" "http://www.w3.org/Graphics/SVG/1.1/DTD/svg11.dtd">
<!-- Creator: CorelDRAW 2021 (64-Bit) -->
<svg xmlns="http://www.w3.org/2000/svg" xml:space="preserve" version="1.1" style="shape-rendering:geometricPrecision; text-rendering:geometricPrecision; image-rendering:optimizeQuality; fill-rule:evenodd; clip-rule:evenodd"
viewBox="0 0 29674.04 5291.25"
 xmlns:xlink="http://www.w3.org/1999/xlink"
 xmlns:xodm="http://www.corel.com/coreldraw/odm/2003">
 <defs>
  <style type="text/css">
   <![CDATA[
    .fil0 {fill:#39AAE1;fill-rule:nonzero}
   ]]>
  </style>
 </defs>
 <g id="Layer_x0020_1">
  <metadata id="CorelCorpID_0Corel-Layer"/>
  <path class="fil0" d="M29601.71 2347.96l-1470.72 0 0 402.46 1.86 12.98 3.71 14.83 5.57 11.13 9.27 11.13 11.14 9.28 12.97 5.57 12.98 5.56 12.98 0 1003.35 0 0 999.64 0 20.4 -1.85 22.26 -3.71 20.4 -3.72 20.4 -7.42 20.39 -5.56 20.4 -9.28 18.55 -9.28 20.4 -9.27 18.54 -11.14 16.69 -12.97 18.54 -12.98 16.69 -12.98 16.69 -14.83 14.83 -14.83 14.83 -16.69 14.84 -16.69 14.83 -18.54 12.98 -16.69 12.98 -20.4 11.13 -18.55 11.13 -18.54 9.28 -20.4 9.27 -20.4 9.28 -20.4 7.42 -22.25 5.57 -20.4 5.56 -22.25 5.57 -20.4 3.71 -22.26 1.86 -22.25 1.85 -20.4 0 -1142.46 0 -20.4 0 -22.25 -1.85 -20.4 -1.86 -20.4 -3.71 -20.4 -5.57 -20.4 -5.56 -18.54 -5.57 -20.4 -7.42 -18.54 -9.28 -16.69 -9.27 -18.54 -9.28 -16.69 -11.13 -16.69 -11.13 -14.83 -12.98 -16.69 -12.98 -12.98 -14.83 -14.83 -14.84 -12.98 -14.83 -12.98 -14.83 -11.13 -16.69 -11.13 -16.69 -9.28 -18.54 -9.28 -16.69 -9.27 -18.54 -7.42 -20.4 -5.57 -18.55 -5.57 -20.4 -5.56 -20.39 -3.71 -20.4 -1.86 -20.4 -1.85 -22.26 -1.86 -20.4 0 -2399.88 1.86 -20.4 1.85 -22.25 1.86 -20.4 3.71 -20.4 5.56 -20.4 5.57 -20.4 5.57 -18.54 7.42 -20.4 9.27 -18.55 9.28 -16.68 9.28 -18.55 11.13 -16.69 11.13 -16.68 12.98 -14.84 12.98 -16.69 14.83 -12.97 12.98 -14.84 16.69 -12.97 14.83 -12.98 16.69 -11.13 16.69 -11.14 18.54 -9.27 16.69 -9.28 18.54 -9.28 20.4 -7.42 18.54 -5.56 20.4 -5.57 20.4 -5.57 20.4 -3.71 20.4 -1.85 22.25 -1.86 20.4 -1.85 1813.83 0 16.69 0 14.83 -5.57 12.98 -5.56 11.13 -9.28 9.28 -11.13 7.42 -11.14 3.71 -14.83 1.86 -12.98 0 -402.45 -1891.73 0 -48.22 0 -46.36 3.71 -48.22 7.42 -46.36 7.42 -44.51 11.14 -44.51 12.97 -44.51 12.98 -40.8 16.69 -42.65 20.4 -40.8 20.4 -38.94 22.25 -37.1 24.11 -37.1 25.97 -35.24 27.82 -35.24 29.67 -31.53 31.53 -31.53 31.53 -29.68 35.25 -27.82 35.24 -25.96 35.24 -24.11 38.94 -22.26 38.95 -20.4 40.79 -18.54 40.8 -16.69 42.66 -14.83 44.5 -12.98 44.51 -11.13 44.51 -7.42 46.37 -5.57 46.36 -3.71 48.22 -1.86 48.22 0 2310.87 1.86 48.22 3.71 46.36 5.57 48.22 7.42 46.36 11.13 44.51 12.98 44.51 14.83 44.51 16.69 42.65 18.54 40.8 20.4 40.8 22.26 38.94 24.11 37.1 25.96 37.1 27.82 35.24 29.68 35.24 31.53 31.53 31.53 31.53 35.24 29.68 35.24 27.82 37.1 25.96 37.1 24.11 38.94 22.26 40.8 20.4 42.65 18.54 40.8 16.69 44.51 14.83 44.51 12.98 44.51 11.13 46.36 7.42 48.22 7.42 46.36 1.86 48.22 1.86 1142.46 0 48.22 0 46.36 -3.72 48.22 -3.71 46.37 -5.56 44.51 -9.28 44.5 -9.28 44.51 -11.13 40.8 -12.98 42.65 -14.83 40.8 -16.69 38.95 -18.54 37.09 -18.54 37.1 -22.26 35.24 -24.11 35.24 -24.11 31.54 -27.82 31.53 -27.82 29.67 -29.67 27.82 -31.54 25.97 -35.24 24.11 -35.24 22.25 -37.1 20.4 -37.09 18.54 -40.8 16.69 -42.66 14.84 -44.5 12.97 -44.51 11.14 -48.22 7.42 -48.22 5.56 -50.08 3.71 -51.93 1.86 -55.64 0 -1411.37 -1.86 -12.98 -3.71 -12.98 -7.42 -12.98 -9.28 -11.13 -9.27 -7.42 -12.98 -7.42 -12.98 -3.71 -14.83 -1.86zm-7316.51 -860.55l0 2266.36 1.86 48.22 3.71 48.22 5.56 46.36 9.28 46.37 9.28 44.51 12.97 44.51 14.84 44.5 16.69 42.66 18.54 40.8 20.4 40.79 22.25 38.95 24.11 38.94 27.82 35.24 27.82 35.24 27.82 35.25 31.53 31.53 33.39 31.53 33.39 29.67 35.24 27.82 37.1 25.97 37.09 24.11 40.8 22.25 38.95 20.4 42.65 20.4 42.65 16.69 42.66 14.83 44.5 11.14 46.37 11.13 46.36 7.42 46.37 7.42 48.22 3.71 48.22 0 1856.48 0 0 -402.45 -1.86 -12.98 -3.71 -14.83 -5.56 -11.14 -9.28 -11.13 -11.13 -9.28 -12.98 -5.56 -12.98 -5.57 -12.98 0 -1786 0 -22.26 -1.85 -20.4 -1.86 -22.25 -1.85 -20.4 -3.71 -20.4 -5.57 -20.4 -5.57 -18.54 -5.56 -18.55 -7.42 -18.54 -9.28 -18.54 -9.28 -18.55 -9.27 -16.69 -11.14 -16.68 -11.13 -14.84 -12.98 -14.83 -12.97 -14.83 -14.84 -14.84 -12.97 -12.97 -16.69 -11.14 -14.84 -12.97 -16.68 -11.14 -16.69 -9.27 -18.55 -9.28 -16.68 -9.28 -18.55 -7.42 -20.4 -5.56 -18.54 -5.57 -20.4 -5.57 -20.4 -3.71 -20.4 -1.85 -20.4 -1.86 -22.25 0 -20.4 0 -944 2012.28 0 12.97 -1.86 12.98 -3.71 12.98 -5.56 11.13 -9.28 9.28 -11.13 5.56 -12.98 3.71 -12.98 1.86 -12.98 0 -402.45 -1813.83 0 -72.33 0 -59.35 0 -59.35 0 -77.9 0 0 -938.45 0 -20.39 1.86 -22.26 1.85 -20.4 3.71 -20.4 5.57 -20.4 5.57 -20.39 5.56 -18.55 7.42 -20.4 9.28 -18.54 9.28 -16.69 9.27 -18.54 11.14 -16.69 12.97 -16.69 11.14 -14.83 12.97 -16.69 14.84 -14.83 14.83 -12.98 14.83 -12.98 14.84 -12.98 16.68 -11.13 16.69 -11.13 18.55 -9.28 18.54 -9.27 18.54 -9.28 18.55 -7.42 18.54 -7.42 20.4 -5.57 20.4 -3.71 20.4 -3.71 22.25 -3.71 20.4 0 22.26 -1.86 1786 0 12.98 0 12.98 -5.56 12.98 -5.57 11.13 -9.28 9.28 -11.13 5.56 -11.13 3.71 -14.83 1.86 -12.98 0 -402.46 -1856.48 0 -48.22 0 -48.22 3.71 -46.37 7.43 -46.36 7.42 -46.37 11.13 -44.5 11.13 -42.66 14.83 -42.65 16.69 -42.65 18.55 -38.95 22.25 -40.8 22.26 -37.09 24.11 -37.1 25.96 -35.24 27.82 -33.39 29.68 -33.39 31.53 -31.53 31.53 -27.82 33.39 -27.82 37.09 -27.82 35.25 -24.11 38.94 -22.25 38.94 -20.4 40.8 -18.54 40.8 -16.69 42.65 -14.84 44.51 -12.97 44.51 -9.28 44.51 -9.28 46.36 -5.56 46.36 -3.71 48.22 -1.86 48.22zm-4054.22 908.77l-11.13 -1.85 -9.28 -1.86 -11.13 -1.85 -9.28 -3.71 -9.28 -3.71 -7.42 -5.57 -9.27 -5.57 -7.42 -5.56 -7.43 -7.42 -5.56 -9.28 -5.57 -7.42 -3.71 -9.28 -3.71 -11.13 -3.71 -9.28 -1.86 -11.13 0 -11.13 0 -1146.16 0 -11.13 1.86 -9.28 1.85 -11.13 3.72 -9.28 5.56 -9.27 3.71 -7.43 5.57 -9.27 7.42 -7.42 7.42 -5.57 7.42 -7.42 9.28 -5.57 9.28 -3.71 9.27 -3.71 11.14 -3.71 11.13 0 11.13 -1.85 1426.21 0 22.25 1.85 22.26 0 20.39 3.71 20.4 3.71 20.4 3.71 20.4 5.57 18.55 7.42 18.54 7.42 18.54 7.42 18.55 9.28 18.54 11.13 16.69 11.13 16.69 11.14 14.83 12.97 14.83 12.98 14.84 12.98 14.83 14.83 12.98 14.84 11.13 16.68 12.98 16.69 11.13 16.69 9.27 16.69 9.28 18.54 9.28 18.55 7.42 18.54 5.57 20.4 5.56 20.4 5.57 20.4 3.71 20.4 1.85 20.39 1.86 22.26 0 20.4 0 519.29 0 20.4 -1.86 22.25 -1.85 20.4 -3.71 20.4 -5.57 20.4 -5.56 20.4 -5.57 18.54 -7.42 20.4 -9.28 18.55 -9.28 16.68 -9.27 18.55 -11.13 16.69 -12.98 16.68 -11.13 14.84 -12.98 16.69 -14.83 12.97 -14.84 14.84 -14.83 12.97 -14.83 12.98 -16.69 11.13 -16.69 11.14 -18.54 9.27 -18.55 9.28 -18.54 9.28 -18.54 7.42 -18.55 5.56 -20.4 5.57 -20.4 5.57 -20.4 3.71 -20.39 1.85 -22.26 1.86 -22.25 1.85 -1426.21 0zm2364.65 -408.02l0 -535.99 -1.85 -51.93 -3.71 -50.07 -5.57 -50.08 -9.28 -46.36 -9.27 -46.37 -12.98 -46.36 -14.83 -42.65 -16.69 -42.66 -18.55 -38.94 -20.4 -38.94 -22.25 -37.1 -24.11 -35.24 -27.82 -35.24 -27.82 -31.54 -27.82 -31.53 -31.53 -29.67 -33.39 -27.82 -33.39 -25.97 -35.24 -24.11 -37.09 -22.25 -37.1 -20.4 -40.8 -18.54 -38.94 -18.55 -42.66 -14.83 -42.65 -14.83 -42.65 -11.14 -44.51 -11.13 -46.37 -7.42 -46.36 -7.42 -46.36 -3.71 -48.22 -3.71 -48.22 0 -1730.37 0 -31.53 0 -33.39 5.56 -29.67 7.42 -29.68 11.14 -27.82 12.97 -25.97 16.69 -25.96 18.55 -22.25 20.4 -20.4 22.25 -18.55 25.96 -14.83 25.97 -14.83 27.82 -11.14 29.68 -7.42 29.67 -3.71 31.53 -1.85 33.39 0 3820.53 445.1 0 14.84 -1.85 12.98 -3.71 12.97 -7.42 11.13 -7.42 7.43 -11.14 7.42 -12.97 3.71 -12.98 1.85 -14.84 1.86 -1769.31 1183.25 5.56 838.3 1769.32 7.42 12.98 9.28 12.98 11.13 11.13 12.98 9.28 14.83 9.27 14.83 5.57 14.84 3.71 12.97 1.85 480.35 0 -882.8 -1863.9 38.94 -9.28 37.1 -11.13 37.1 -12.98 35.24 -12.97 35.24 -14.84 35.24 -14.83 35.24 -14.83 33.39 -18.55 33.39 -18.54 31.53 -18.54 31.53 -20.4 31.53 -20.4 29.68 -22.26 27.82 -24.11 27.82 -24.1 25.96 -25.97 25.97 -27.82 22.25 -27.82 24.11 -27.82 20.4 -31.53 20.4 -31.53 18.54 -31.54 16.69 -33.38 14.83 -35.24 14.84 -37.1 11.13 -37.1 11.13 -37.1 7.42 -40.79 7.42 -40.8 5.57 -42.66 1.86 -42.65 1.85 -44.51zm-5243.03 1832.37l-1.85 20.4 0 22.26 -3.71 20.4 -3.72 20.4 -3.71 20.39 -5.56 20.4 -7.42 18.55 -7.43 20.4 -9.27 18.54 -9.28 16.69 -9.28 18.54 -11.13 16.69 -11.13 16.69 -12.98 14.83 -12.98 14.83 -12.97 14.84 -14.84 14.83 -16.68 12.98 -14.84 12.98 -16.69 11.13 -16.68 11.13 -18.55 9.28 -16.69 9.27 -18.54 9.28 -20.4 7.42 -18.54 5.57 -20.4 5.56 -20.4 5.57 -20.4 3.71 -20.4 1.86 -22.25 1.85 -20.4 0 -1246.31 0 -22.25 0 -20.4 -1.85 -20.4 -1.86 -22.25 -3.71 -18.55 -5.57 -20.4 -5.56 -20.4 -5.57 -18.54 -7.42 -18.54 -9.28 -18.55 -9.27 -16.69 -9.28 -16.68 -11.13 -16.69 -11.13 -16.69 -12.98 -14.83 -12.98 -14.84 -14.83 -12.97 -14.84 -12.98 -14.83 -12.98 -14.83 -11.13 -16.69 -11.13 -16.69 -11.14 -18.54 -9.27 -16.69 -7.42 -18.54 -7.43 -20.4 -7.42 -18.55 -5.56 -20.4 -3.71 -20.39 -3.71 -20.4 -3.71 -20.4 -1.86 -22.26 0 -20.4 0 -2399.88 0 -20.4 1.86 -22.25 3.71 -20.4 3.71 -20.4 3.71 -20.4 5.56 -20.4 7.42 -18.54 7.43 -20.4 7.42 -18.55 9.27 -16.68 11.14 -18.55 11.13 -16.69 11.13 -16.68 12.98 -14.84 12.98 -16.69 12.97 -12.97 14.84 -14.84 14.83 -12.97 16.69 -12.98 16.69 -11.13 16.68 -11.14 16.69 -9.27 18.55 -9.28 18.54 -9.28 18.54 -7.42 20.4 -5.56 20.4 -5.57 18.55 -5.57 22.25 -3.71 20.4 -1.85 20.4 -1.86 22.25 -1.85 1246.31 0 20.4 1.85 22.25 1.86 20.4 1.85 20.4 3.71 20.4 5.57 20.4 5.57 18.54 5.56 20.4 7.42 18.54 9.28 16.69 9.28 18.55 9.27 16.68 11.14 16.69 11.13 14.84 12.98 16.68 12.97 14.84 14.84 12.97 12.97 12.98 16.69 12.98 14.84 11.13 16.68 11.13 16.69 9.28 18.55 9.28 16.68 9.27 18.55 7.43 20.4 7.42 18.54 5.56 20.4 3.71 20.4 3.72 20.4 3.71 20.4 0 22.25 1.85 20.4 0 2399.88zm-419.14 -3291.96l-1246.31 0 -48.22 0 -48.22 3.71 -46.36 7.42 -46.36 7.42 -44.51 11.14 -44.51 11.13 -44.51 14.83 -42.65 16.69 -40.8 20.4 -40.8 20.4 -38.94 22.25 -38.95 24.11 -35.24 25.97 -37.1 27.82 -33.38 29.67 -31.53 31.53 -31.53 31.53 -29.68 35.25 -27.82 35.24 -25.97 35.24 -24.11 38.94 -22.25 38.95 -22.25 40.79 -18.55 40.8 -16.69 42.66 -14.83 44.5 -11.13 44.51 -11.13 44.51 -9.28 46.37 -5.57 46.36 -3.71 48.22 0 48.22 0 2310.87 0 48.22 3.71 48.21 5.57 46.37 9.28 46.36 11.13 44.51 11.13 44.51 14.83 44.51 16.69 42.65 18.55 40.8 22.25 40.8 22.25 38.94 24.11 37.1 25.97 37.1 27.82 35.24 29.68 35.24 31.53 31.53 31.53 31.53 33.38 29.68 37.1 27.82 35.24 25.96 38.95 24.11 38.94 22.26 40.8 20.4 40.8 18.54 42.65 16.69 44.51 14.83 44.51 12.98 44.51 11.13 46.36 7.42 46.36 7.42 48.22 1.86 48.22 1.86 1246.31 0 48.22 -1.86 46.36 -1.86 46.37 -7.42 46.36 -7.42 44.51 -11.13 44.51 -12.98 42.65 -14.83 42.66 -16.69 42.65 -18.54 38.94 -20.4 40.8 -22.26 37.1 -24.11 37.09 -25.96 35.25 -27.82 33.38 -29.68 33.39 -31.53 31.53 -31.53 29.68 -35.24 27.82 -35.24 25.96 -37.1 24.11 -37.1 24.11 -38.94 20.4 -40.8 18.54 -40.8 16.69 -42.65 14.84 -44.51 12.97 -44.51 11.14 -44.51 7.42 -46.36 5.56 -46.37 3.71 -48.21 1.86 -48.22 0 -2310.87 -1.86 -48.22 -3.71 -48.22 -5.56 -46.36 -7.42 -46.37 -11.14 -44.51 -12.97 -44.51 -14.84 -44.5 -16.69 -42.66 -18.54 -40.8 -20.4 -40.79 -24.11 -38.95 -24.11 -38.94 -25.96 -35.24 -27.82 -35.24 -29.68 -35.25 -31.53 -31.53 -33.39 -31.53 -33.38 -29.67 -35.25 -27.82 -37.09 -25.97 -37.1 -24.11 -40.8 -22.25 -38.94 -20.4 -42.65 -20.4 -42.66 -16.69 -42.65 -14.83 -44.51 -11.13 -44.51 -11.14 -46.36 -7.42 -46.37 -7.42 -46.36 -3.71 -48.22 0zm-4480.79 3319.78l-1973.32 -3158.42 -9.27 -14.84 -9.28 -12.97 -11.13 -12.98 -11.13 -11.13 -12.98 -11.14 -12.98 -11.13 -12.98 -9.28 -14.83 -7.42 -14.83 -7.42 -14.84 -7.42 -14.83 -5.57 -16.69 -5.56 -16.68 -1.86 -14.84 -3.71 -18.54 -1.85 -16.69 0 -389.47 0 5.57 9.27 -5.57 0 0 4120.99 535.99 0 0 -3273.42 1971.48 3158.42 9.28 14.84 11.13 12.98 11.13 12.97 11.13 11.13 12.98 11.14 12.98 9.27 12.97 9.28 14.84 9.28 12.98 7.42 16.68 7.42 14.84 5.57 14.83 3.71 16.69 3.71 16.69 3.71 16.68 0 16.69 1.85 389.47 0 0 -4156.22 -534.14 0 0 3299.38zm-7286.83 -3291.96l0 2889.51 -1479.99 -2238.54 -9.28 -12.97 -11.13 -12.98 -11.13 -12.98 -11.14 -11.13 -12.97 -11.13 -12.98 -11.14 -14.83 -7.42 -14.84 -9.27 -14.83 -7.43 -14.83 -5.56 -14.84 -5.57 -16.68 -5.56 -16.69 -3.71 -16.69 -1.86 -16.69 -1.86 -16.69 0 -391.32 0 0 3648.06 -530.42 0 0 -4178.48 797.48 0 27.82 0 25.97 -5.57 25.96 -5.56 25.97 -9.28 22.25 -11.13 22.26 -14.83 22.25 -14.84 18.55 -16.69 16.68 -20.39 16.69 -20.4 12.98 -22.26 11.13 -24.11 9.28 -24.11 7.42 -25.96 3.71 -27.82 1.86 -27.82 0 -285.62 -955.14 0 -27.82 1.86 -25.96 3.71 -25.97 7.42 -25.96 9.27 -24.11 11.14 -24.11 14.83 -20.4 16.69 -20.4 18.54 -456.24 472.93 0 280.05 0 278.2 0 280.05 0 278.19 0 278.2 0 280.05 0 278.19 0 280.05 0 278.2 0 278.19 0 280.05 0 278.2 0 280.05 0 278.19 0 278.2 0 280.05 1.86 27.82 3.71 25.96 7.42 25.97 7.42 25.96 12.98 24.11 12.97 22.26 14.84 20.4 18.54 18.54 18.54 18.54 20.4 14.84 22.26 12.97 24.11 12.98 25.96 7.42 25.97 7.42 25.96 3.71 27.82 1.86 797.49 0 537.85 -556.39 0 -2833.87 1478.13 2238.54 11.14 12.97 9.27 12.98 11.14 12.98 12.97 11.13 12.98 11.13 12.98 11.14 12.98 9.27 14.83 7.42 14.83 7.43 14.83 5.56 16.69 5.57 14.84 5.56 16.68 3.72 16.69 1.85 16.69 1.86 16.69 0 393.18 0 0 -3703.7 528.57 0 0 4178.48 -795.64 0 -27.82 0 -27.82 5.57 -25.96 5.56 -24.11 9.28 -24.11 11.13 -22.26 14.83 -20.4 14.84 -20.39 16.69 -16.69 20.39 -14.84 20.4 -14.83 22.26 -11.13 24.11 -9.28 24.11 -5.56 25.96 -5.57 27.82 0 27.82 0 285.62 953.28 0 27.82 -1.86 27.82 -3.71 25.96 -7.42 25.97 -9.27 24.11 -11.14 22.25 -14.83 22.26 -16.69 20.4 -18.54 454.38 -472.93 0 -280.05 0 -278.2 0 -280.05 0 -278.19 0 -278.2 0 -280.05 0 -278.19 0 -280.05 0 -278.2 0 -278.19 0 -280.05 0 -278.2 0 -280.05 0 -278.19 0 -278.2 0 -280.05 0 -27.82 -5.56 -25.96 -5.57 -25.97 -9.28 -25.96 -11.13 -24.11 -14.83 -22.26 -14.84 -20.4 -16.68 -18.54 -20.4 -18.54 -20.4 -14.84 -22.26 -12.97 -24.11 -12.98 -24.11 -7.42 -25.96 -7.42 -27.82 -3.71 -27.82 -1.86 -795.63 0 -537.85 556.39z"/>
 </g>
</svg>
