<svg xmlns="http://www.w3.org/2000/svg" viewBox="0 0 216 40"><title>CertiPath</title><path fill-rule="evenodd" d="M13.6 26.5q-6.2 0-9.6-2.4Q.6 21.6.6 17q0-3.6 1.5-6.6 1.5-2.9 4.1-5.1Q8.8 3.2 12.4 2 16 .9 19.9.9q3.2 0 5.9.5 2.8.5 5 1.5l-1.9 6H28q-1.9-1.8-3.9-2.5-1.9-.8-4.5-.8-4.7 0-7.6 2.9-3 3-3 7.7 0 2.9 1.6 4.3 1.7 1.3 4.9 1.3 2.8 0 5.3-.9 2.6-.9 4.8-2.4h.8l-1.8 5.9q-.9.3-2.2.7-1.2.4-2.4.7-1.5.3-2.7.5-1.3.2-3.7.2m28.8 0q-6 0-9.2-2.1-3.3-2.1-3.3-5.8 0-2.6 1.1-4.7 1-2.1 3-3.7 1.9-1.6 4.8-2.5t6.3-.9q5.2 0 7.8 1.7 2.7 1.7 2.7 4.9 0 1.2-.3 2.2-.3 1.1-.7 2.2H37.3v.4q0 1.9 1.7 3t5.2 1.1q2.4 0 4.6-.7 2.2-.6 3.8-1.4h.9L52.1 25q-2.2.7-4.6 1.1t-5.1.4m5.7-12.2q.1-.3.1-.6v-.5q0-1.3-1-2t-2.9-.7q-2.3 0-3.9 1T38 14.3zm29.5-1.2H77q-.5-.1-1.4-.2-1-.1-1.8-.1-1.5 0-2.9.2t-2.8.5L64.5 26H57l5.4-18.6h7.5l-.8 2.7q2.1-1.2 4.2-2t4.3-.8h.8q.5.1.9.1zm8.9 13.3q-3.9 0-5.5-1-1.7-1.1-1.7-3.1 0-.5.1-1t.3-1.2l2.5-8.8h-3.1l1.2-3.9h3.1l1.5-5.3h7.5l-1.6 5.3h7l-1.1 3.9h-7l-1.9 6.8q-.3.7-.4 1.4-.2.7-.2 1.2 0 1 .7 1.4t2.1.4q.6 0 1.5-.2 1-.2 1.5-.4h.6l-1.1 3.9q-1.3.3-2.7.4-1.4.2-3.3.2m22.9-19L104 26h-7.5l5.4-18.6z" style="fill:#688fba"/><path fill-rule="evenodd" d="M141.8 8.2q0 4.4-4.6 7.1T124.4 18h-3L115 39.7h-8l11.2-38.3h11.1q3 0 5.3.3 2.2.3 3.8 1.2 1.6.8 2.5 2.1t.8 3.2zm-8.5.6q0-1.5-1.3-2.1-1.3-.7-3.8-.7H125l-2.1 7.3h2.8q3.6 0 5.6-1.2t2-3.3M156.1 24q-.7.4-1.7.9t-1.8.8q-1.2.4-2.2.6t-2.8.2q-2.9 0-4.8-1.3-1.8-1.3-1.8-3.4 0-2.2 1.3-3.7 1.3-1.6 3.9-2.5 2.4-.8 5.7-1.2t7.2-.6q0-.1.1-.3V13q0-1.2-1.3-1.6-1.4-.5-4.1-.5-1.9 0-4.1.5t-3.3.8h-.7l1.1-4.4q1.3-.2 4-.6 2.8-.3 5.5-.3 5.4 0 8 1.1 2.5 1.2 2.5 3.6.1.3 0 .8-.1.6-.2 1L163 26h-7.4zm2-6.8q-2 .1-3.8.3-1.7.2-2.9.5-1.3.4-2 1.1-.6.6-.6 1.7 0 1 .8 1.4.9.4 2.6.4 1.1 0 2.4-.4 1.2-.4 2.3-1.1zm20.1 9.2q-3.9 0-5.5-1.1-1.7-1-1.7-3 0-.5.1-1t.3-1.2l2.6-8.8h-3.1l1.1-3.9h3.1l1.5-5.3h7.5l-1.5 5.3h6.9l-1.1 3.9h-7l-1.9 6.7q-.3.7-.4 1.4-.2.8-.2 1.3 0 1 .7 1.4.7.3 2.1.3.6 0 1.5-.1 1-.2 1.5-.5h.6l-1.1 4q-1.3.3-2.7.4t-3.3.1zm37.3-14.7q0 .4-.1 1t-.3 1.2L211.6 26h-7.5l2.6-9.2q.3-1 .5-1.8.2-.7.1-1.3.1-1.1-.6-1.6t-2.5-.5q-.9 0-2.1.3-1.1.4-2.5 1L195.7 26h-7.5L195.7.3h7.5l-2.7 9.2q2.3-1.2 4.2-1.9t4.2-.7q3.1 0 4.8 1.3 1.7 1.2 1.7 3.5zM111.9.3l-1.3 4.5h-7.9L104 .3z" style="fill:#005288"/></svg>