<svg version="1.2" xmlns="http://www.w3.org/2000/svg" viewBox="0 0 216 40">
	<title>CertiPath</title>
	<style>
		.s0 { fill: #688fba } 
		.s1 { fill: #005288 } 
	</style>
	<path fill-rule="evenodd" class="s0" d="m13.6 26.5q-6.2 0-9.6-2.4-3.4-2.5-3.4-7.1 0-3.6 1.5-6.6 1.5-2.9 4.1-5.1 2.6-2.1 6.2-3.3 3.6-1.1 7.5-1.1 3.2 0 5.9 0.5 2.8 0.5 5 1.5l-1.9 6h-0.9q-1.9-1.8-3.9-2.5-1.9-0.8-4.5-0.8-4.7 0-7.6 2.9-3 3-3 7.7 0 2.9 1.6 4.3 1.7 1.3 4.9 1.3 2.8 0 5.3-0.9 2.6-0.9 4.8-2.4h0.8l-1.8 5.9q-0.9 0.3-2.2 0.7-1.2 0.4-2.4 0.7-1.5 0.3-2.7 0.5-1.3 0.2-3.7 0.2zm28.8 0q-6 0-9.2-2.1-3.3-2.1-3.3-5.8 0-2.6 1.1-4.7 1-2.1 3-3.7 1.9-1.6 4.8-2.5 2.9-0.9 6.3-0.9 5.2 0 7.8 1.7 2.7 1.7 2.7 4.9 0 1.2-0.3 2.2-0.3 1.1-0.7 2.2h-17.3v0.4q0 1.9 1.7 3 1.7 1.1 5.2 1.1 2.4 0 4.6-0.7 2.2-0.6 3.8-1.4h0.9l-1.4 4.8q-2.2 0.7-4.6 1.1-2.4 0.4-5.1 0.4zm5.7-12.2q0.1-0.3 0.1-0.6 0-0.2 0-0.5 0-1.3-1-2-1-0.7-2.9-0.7-2.3 0-3.9 1-1.6 1-2.4 2.8zm29.5-1.2h-0.6q-0.5-0.1-1.4-0.2-1-0.1-1.8-0.1-1.5 0-2.9 0.2-1.4 0.2-2.8 0.5l-3.6 12.5h-7.5l5.4-18.6h7.5l-0.8 2.7q2.1-1.2 4.2-2 2.1-0.8 4.3-0.8 0.3 0 0.8 0 0.5 0.1 0.9 0.1zm8.9 13.3q-3.9 0-5.5-1-1.7-1.1-1.7-3.1 0-0.5 0.1-1 0.1-0.5 0.3-1.2l2.5-8.8h-3.1l1.2-3.9h3.1l1.5-5.3h7.5l-1.6 5.3h7l-1.1 3.9h-7l-1.9 6.8q-0.3 0.7-0.4 1.4-0.2 0.7-0.2 1.2 0 1 0.7 1.4 0.7 0.4 2.1 0.4 0.6 0 1.5-0.2 1-0.2 1.5-0.4h0.6l-1.1 3.9q-1.3 0.3-2.7 0.4-1.4 0.2-3.3 0.2zm22.9-19l-5.4 18.6h-7.5l5.4-18.6z"/>
	<path fill-rule="evenodd" class="s1" d="m141.8 8.2q0 4.4-4.6 7.1-4.6 2.7-12.8 2.7h-3l-6.4 21.7h-8l11.2-38.3h11.1q3 0 5.3 0.3 2.2 0.3 3.8 1.2 1.6 0.8 2.5 2.1 0.9 1.3 0.8 3.2zm-8.5 0.6q0-1.5-1.3-2.1-1.3-0.7-3.8-0.7h-3.2l-2.1 7.3h2.8q3.6 0 5.6-1.2 2-1.2 2-3.3zm22.8 15.2q-0.7 0.4-1.7 0.9-1 0.5-1.8 0.8-1.2 0.4-2.2 0.6-1 0.2-2.8 0.2-2.9 0-4.8-1.3-1.8-1.3-1.8-3.4 0-2.2 1.3-3.7 1.3-1.6 3.9-2.5 2.4-0.8 5.7-1.2 3.3-0.4 7.2-0.6 0-0.1 0.1-0.3 0-0.2 0-0.5 0-1.2-1.3-1.6-1.4-0.5-4.1-0.5-1.9 0-4.1 0.5-2.2 0.5-3.3 0.8h-0.7l1.1-4.4q1.3-0.2 4-0.6 2.8-0.3 5.5-0.3 5.4 0 8 1.1 2.5 1.2 2.5 3.6 0.1 0.3 0 0.8-0.1 0.6-0.2 1l-3.6 12.6h-7.4zm2-6.8q-2 0.1-3.8 0.3-1.7 0.2-2.9 0.5-1.3 0.4-2 1.1-0.6 0.6-0.6 1.7 0 1 0.8 1.4 0.9 0.4 2.6 0.4 1.1 0 2.4-0.4 1.2-0.4 2.3-1.1l1.2-3.9zm20.1 9.2q-3.9 0-5.5-1.1-1.7-1-1.7-3 0-0.5 0.1-1 0.1-0.5 0.3-1.2l2.6-8.8h-3.1l1.1-3.9h3.1l1.5-5.3h7.5l-1.5 5.3h6.9l-1.1 3.9h-7l-1.9 6.7q-0.3 0.7-0.4 1.4-0.2 0.8-0.2 1.3 0 1 0.7 1.4 0.7 0.3 2.1 0.3 0.6 0 1.5-0.1 1-0.2 1.5-0.5h0.6l-1.1 4q-1.3 0.3-2.7 0.4-1.4 0.1-3.3 0.1zm37.3-14.7q0 0.4-0.1 1-0.1 0.6-0.3 1.2l-3.5 12.1h-7.5l2.6-9.2q0.3-1 0.5-1.8 0.2-0.7 0.1-1.3 0.1-1.1-0.6-1.6-0.7-0.5-2.5-0.5-0.9 0-2.1 0.3-1.1 0.4-2.5 1l-3.9 13.1h-7.5l7.5-25.7h7.5l-2.7 9.2q2.3-1.2 4.2-1.9 1.9-0.7 4.2-0.7 3.1 0 4.8 1.3 1.7 1.2 1.7 3.5zm-103.6-11.4l-1.3 4.5h-7.9l1.3-4.5z"/>
</svg>