<svg xmlns="http://www.w3.org/2000/svg" viewBox="0 0 291 201"><title>gse</title><style>.s0{fill:#000}</style><path d="M269 61.2c-12 0-23.5 0-35-.1-1.3 0-2.7.1-4-.1-5.5-.7-9-4.2-8.6-8.5.4-4.2 3.8-6.8 9.5-6.9 10.8 0 21.7-.1 32.5.1 4.1 0 5-1.6 3.7-5.2-3-9.1-9.2-15.3-17.5-19.6-16.5-8.5-38-4.4-49.1 9.2-12.7 15.5-7.8 37.7 10.1 46.6 14.9 7.4 29.5 7.1 43.6-2 .7-.5 1.4-1.1 2.2-1.2 8.2-1 16.4-.8 25.4-.1-3.4 9.2-8.9 16-15.4 21.9-18.5 16.7-40.8 26-64.6 32-24.4 6.2-49.3 8.3-74.3 6.6-35.6-2.6-69.7-10.5-99.4-31.8-6.8-4.9-12.6-10.8-17.7-17.4-.9-1.2-2.1-2.3-1.6-4.8 4.5 3.7 7.8 7.9 11.9 11.3 15.2 12.1 32.6 19.1 50.9 24.5 26 7.7 52.6 8.5 79.2 6.9 26.9-1.7 52.8-8.4 76.6-21.9l2.1-1.2c.3-.2.4-.5.8-1-13.7-1-26.3-4.4-37.1-13.1-1.8-1.4-3.3-.7-5 .4-13.2 8.9-28 13-43.7 13.8-12 .7-23-2.8-32.3-10.8-1.3-1.1-2.5-2.2-4-3.6-7.3 6.2-15.4 10.6-24.7 12.5-24.6 4.7-46.5.5-63.5-19.3C3.5 59.2 6.1 33.6 24.4 16.7c21.7-20 55.1-21.9 79.4-5.1 1.2.9 2.4 1.7 4.1 2.8 5.9-7.1 13.5-11.5 22.3-13.1 15-2.6 29-.5 40 11.2 4.5 4.8 4.9 8.5 1.4 11.7-3.6 3.3-9.7 2.7-13.4-1.3-7.9-8.5-18.1-10.6-28.5-6-1.8.8-3.6 1.9-5.1 3.2-6.3 5.6-5.5 10.9 2.1 14.7 6.8 3.3 14.1 5.1 21.3 7.1 4.8 1.4 9.5 3 14 5.1 4.4 2.1 8.1 5 12.1 8.2-2.2-31 20.5-50 43.9-53.8C244.8-3 269.2 5 282.3 28.8c5 8.9 6 18.5 4.1 28.6-.6 2.6-1.9 3.7-4.4 3.7-4.2 0-8.3.1-13 .1M77.1 84.6c3.3-1 6.8-1.7 10-3 8.3-3.3 14.2-11.8 13.5-19.3h-5.8c-6.4 0-12.7.1-19-.1-3.9-.2-6.8-2.6-6.9-6.6-.1-3.7 2.1-6.7 6-6.8 11.8-.4 23.6-.7 35.4-.4 7.3.2 9.3 3.5 8.3 11-1.1 8.7-.2 16.7 8.2 21.8 10.1 6.2 20.3 5.6 30.4.1 7.1-3.9 7.7-13.9 1.4-19-6.4-5.2-14.2-7-21.9-9-13.6-3.7-26.2-8.9-34.5-21.1-1.5-2.2-3.3-4.3-5.3-6-16-13.5-33.5-15.1-52-6-21.5 10.6-26 36.1-9.1 52.7C47 84 60.8 87.5 77.1 84.6" class="s0"/><path fill-rule="evenodd" d="M183.8 199.2c-7 2.5-13.6 3-18.8-2.6-8.1-8.7-2.9-20.5 9.8-23-1.1-4.9 1.9-7.3 7.9-6.3.7 1.5-.5 2.1-1.3 2.9-.7.7-1.5 1.2-3.4 2.7 8.7 2.9 13.3 7.8 12.3 16.4-.4 4.4-2.6 7.5-6.5 9.9m-3.8-18.8c-3.6-1.9-6.9-1.6-9.4 1.6-2.4 3.2-2.8 6.7-.5 10.2 2.1 3.2 5.3 3.2 8.5 2.5 5.4-1.4 6.3-8.1 1.4-14.3m28.5 5c.8 1.2 1.5 2.2 2.1 3.1q.5 0 1.1-.1v-9.5c-.1-2.4.4-4.2 3.5-4.2 2.9.1 3.6 1.8 3.7 4.2.1 5.4.1 10.7 0 16 0 2 .6 4.7-2.4 5.3-2.6.5-5 0-6.6-2.4-2.8-4.3-5.7-8.5-9.5-12.6 0 3.7-.1 7.4 0 11.2 0 2.2-.5 3.9-3.3 3.8-2.8 0-3.3-1.7-3.3-3.9 0-5.7-.1-11.3 0-17 0-1.8-.3-4 2.2-4.4 2.3-.3 4.8-.9 6.4 1.5 2 2.9 3.9 5.8 6.1 9m-56.9-10.7c7.4 1.5 9 5.1 6.3 11.5-1.6 3.6 1.3 7.2.7 11-.1.7.3 1.5.6 2.5-4.5 1.3-7.4.8-7.7-4.5-.2-3.9-2.6-4.9-6.1-4.8-4.2.2-3.1 3.2-3.2 5.4-.1 2.7-.6 4.6-3.9 4.5-3.4-.1-3.6-2.2-3.6-4.8 0-5.5.1-11-.1-16.5 0-3.2 1.4-4.4 4.5-4.3 4 .1 8 0 12.5 0m.5 7.1c-2.2-2.6-5.1-1.8-7.8-1.6-1.4.1-1.9 1.2-2 2.5 0 1.2.2 2.6 1.6 2.7 3.1.2 6.7 1.2 8.2-3.6M19.9 200.3c-4.7 0-8.8-.1-13 0-2.9.1-4.3-1.1-4.2-4.1q.1-8.8 0-17.5c-.1-2.7 1-4 3.8-4 5 .1 10 0 15 .1 1.6 0 3.5 0 3.6 2.4.1 2.7-2 2.6-3.8 2.7-2.5.1-5 0-7.5-.1-1.8 0-3.5-.1-3.5 2.4.1 2.4 1.8 2.4 3.6 2.4 2.1.1 4.3 0 6.5.1 1.6.1 3.5-.2 3.7 2.3.1 2.7-2.1 2.7-3.9 2.8s-3.6-.1-5.4-.1c-2-.1-4.4-.6-4.4 2.4-.1 3.2 2.5 2.5 4.4 2.6 2.3.1 4.6-.1 7 0 1.9.1 4.3-.3 4.3 2.8 0 2.9-2.2 2.7-4.3 2.8zM70 179.9c-2.1 0-3.7 0-5.4-.1-1.6 0-3.1 0-3.2 2.2-.1 2.3 1.5 2.6 3.3 2.6 2.5 0 5 .1 7.5.1 1.4.1 2.7.3 2.9 2.1.1 2-1.1 2.8-2.7 2.8-2.7.1-5.4 0-8 0-1.7 0-3 .3-3 2.4-.1 1.9 1 2.7 2.7 2.7h10c1.8 0 3.4.2 3.4 2.6-.1 2.1-1.2 3-3.2 3H57.8c-2.3 0-3.1-1.4-3.1-3.6v-18.4c0-2.6 1.3-3.6 3.7-3.6 4.5.1 9 0 13.5.1 1.7 0 4-.5 4.2 2.2.3 3-2.2 2.7-4.1 2.9-.5.1-1 0-2 0m189.3 2.3c-2.7 3-4.9 1.6-7.2-.4-3.9-3.3-7.1-3.2-10.1 0-2.5 2.8-2.5 9.1.4 11.4 3.2 2.6 6.8 2.7 9.7-.5 2.1-2.3 4.2-2.2 6.7-1.4-.4 6-4.2 9.2-11.1 9.7-7.6.4-13.6-4.3-14.7-11.4-1-7 2.8-13.3 9.2-15.2 7.7-2.4 14.2.5 17.1 7.8m-173.2 17c-6.9-5.6-8.2-12.5-4.1-19.6 3.1-5.4 11-7.6 17.8-4.8 3.4 1.5 6.2 3.7 6.5 8.1-2.8 1.4-4.9 1.4-7.3-.8-3.6-3.6-7-3.6-9.9-.4-2.5 2.7-2.5 8.7.1 11.5 2.4 2.6 6.2 2.3 9.7-.7 2.4-2 2.4-2 6.7-1.1-.1 8.1-8.4 11.5-19.5 7.8m176.1-5.9c2.3-5.6 4.3-10.9 6.5-16 1.4-3.2 8-4 9.5-1 3.5 7.4 7 14.9 9.1 23.1-3.5 1.4-5.9 1.3-8-1.9s-9.1-3.4-11.1-.1c-2.1 3.3-4.5 3.3-7.7 2.3-.7-2.4.9-4.1 1.7-6.4m13.4-5.7c-.3-1.5-.6-3.1-2-4.4-.7 2.1-3.1 3.7-1.5 5.9.9 1.2 2.6.9 3.5-1.5m-147-7.7c-3.7-.1-4.7 1.6-4.6 4.7.1 4-.1 8-.1 12 0 2.6-1.3 3.8-4.1 3.7-2.6 0-4-1-4-3.8 0-3.8-.1-7.6 0-11.5.2-3.1-.6-5.1-4.2-5.1-1.7 0-3.6-.4-3.5-2.7 0-2.3 1.9-2.4 3.6-2.5q8.2 0 16.4.1c1.6 0 3.1.1 3.4 2.1.3 1.9-.7 2.7-2.9 3m-98.7 17.8c0-6.1-.1-11.8 0-17.4 0-2.4-.6-5.4 3.3-5.5 4.2-.1 3.5 3.2 3.7 5.7.1 3.1.2 6.3 0 9.4-.2 3.7 1.5 5.1 5.1 4.8 2.3-.2 4.6 0 7 .1 1.3.1 2.1.8 2.2 2.2 0 1.2 0 2.8-1.3 2.9-6.5.2-13.1 1.7-19.5-.9-.2-.1-.3-.6-.5-1.3m192.9-1v-17.4c0-2.2 0-4.4 3.1-4.5 3.2-.1 3.4 1.9 3.4 4.2 0 5.8.1 11.6 0 17.4 0 1.7 0 3.4-2.3 3.7s-3.9-.4-4.2-3.4M53.8 162.5c0-2.1.1-3.8-.1-5.5-.2-1.8.9-4.2-1.4-5.4-2.7-1.4-3.5 1.6-5.3 2.8-2.4-1.7-4.6-4.9-8.1-1.8 1.4 2.6 4.1 2 6.2 2.9 2.3.9 4.3 2.1 4 4.9-.3 2.6-2.2 4-4.6 4.7-5.2 1.3-8.9-.8-9.8-6 3.6-.9 6.2 5.6 10.3 1.3-1-2.8-3.8-2.4-6-3.1-2.2-.6-4.1-1.7-4.1-4.3 0-2.7 1.9-4.9 4.3-4.6 7.5.7 15-1.5 22.5 0 .4.1.7.7 1.8 1.7-7.5 1.1-5.1 6.7-5.6 11-.1 1.3-.1 2.9-1.5 3.5-1.5.5-2.2-.4-2.6-2.1m-41.2-1.1c2.6-4.4-4.3-1-2.2-5.3 1.5-1.2 4.6-1.1 6.8.2 2.9 1.8.9 5.1 1.1 8.1-3.4.4-6.5 1-9.5.8-4.2-.2-7.2-2.6-7.9-7s1.1-7.8 5.3-9.6c3.9-1.7 9.3-.4 11.4 2.6.7 1 1.4 2.1.1 3-1.4.9-2.4 0-3.4-1-2.1-2.3-4.7-2.5-7.2-.9-2.4 1.5-2.4 3.9-1.7 6.2 1 3.6 3.9 3.5 7.2 2.9m184.5 3.2c-2.7-.4-4.9.6-7.2.7-4.9.2-8.7-2.6-9.6-6.9-.9-4.5 1.6-8.6 6.1-10 4.9-1.6 9.2.3 11.4 5-2.2 2.4-3.3-.1-4.8-1-2.8-1.6-5.6-1.7-7.7.9-1.6 2.1-1.6 4.7.2 6.8 1.8 2.2 4.2 2.1 7.4 0-.4-1.9-3.3-.8-3.6-3.2 2.4-1.9 5.6-2 7.6-.6 2.6 1.9 1.7 5.3.2 8.3M82.2 146.1c-.8 2.9 1.7 3.2 2.9 4.4 3.3 3.1 3.8 7.6 1.1 11.1-3.3 4.3-9.2 5.1-13.8 1.7-3.4-2.5-4.5-7.6-2-11.1 2.4-3.4 6.5-5 9.9-7.3.6-.4 1.6-.1 1.9 1.2m-8.7 13.1c1.9 2.9 4.5 3.2 7.4 2 2.1-1 3.1-2.9 2.9-5.3-.3-2.4-1.9-3.8-4.1-4.4-4.2-1.1-6.8 1.8-6.2 7.7m166.3-7.9c2.2-5.5 6.4-3.1 9.9-2.8 4.5.3 6.7 3.5 7.2 7.6.4 3.7-1.6 6.4-4.9 7.9-2.4 1.2-5.1 1.2-7.7 1.2-3.1 0-4.7-1.2-4.5-4.4.1-3 0-6 0-9.5m10.4 1c-2-.2-4.6-2.3-5.7.5-.9 2.6-1.6 6.1.8 8.3 1.7 1.5 4.3.6 5.8-.9 2.5-2.4 2.6-5.2-.9-7.9m-152.1 3.2c.6 1 1 1.7 1.6 2.9 2.3-3.8-.2-7.7 3.3-10.2 2.9 2.5 2.2 5.7 1.6 8.3-.5 2.8 1.7 7-1.6 8.1s-4.2-3.5-6.3-5.4c-1.3-1.2-2.4-2.6-3.8-4-1.4 3.2.5 6.6-1.5 9.3-1.9.5-2.6-.6-2.6-2.1-.1-3.8-.2-7.6 0-11.4.1-3 1.9-3.5 3.9-1.7s3.5 4 5.4 6.2m119.6 3.3v-2.4c0-8.6 3-10.6 11.3-7.5 2.6 1 4 2.7 3.3 5.3-.6 2.3-.5 4.5-.1 6.8.2 1.4.6 3.4-1.5 3.7-1.8.3-2.3-1.5-2.7-3-.3-1.1-.3-2.5-1.6-2.9-2.2-.7-4.7-1.4-5.1 2.3-.2 1.4.1 3.2-2.1 3.5-2.3-1.2-1.2-3.5-1.5-5.8m8.8-4.1c1.2-.5 2.3-1.2.8-2.4-1.4-1.1-3.3-1.3-5.1-.5-.4.2-.8 1.3-.6 1.7.8 2 2.7 1.4 4.9 1.2m-55.7 3.5c-1.1 3 .6 3.4 2.7 3.5 2.2.1 4.6-.5 6.6 1.2-2.4 2.5-11.4 3.2-13.3 1.4-1.2-1.2-1.4-13.8-.3-15.2 1.7-2 10.5-1.5 13.3.9-2.5 2.9-6.9-.3-9.5 2.9 1.8 3.7 6.2.4 8.4 3.2-2 3.1-5.2.9-7.9 2.1m-51.1 7c-5.6.8-7.4-1.6-6.8-6.5.1-.8-.1-1.7 0-2.5.4-2.7-1.4-6.6 2.4-7.8 3.9-1.3 8-.5 11.4 1.8 3.2 2.3 3 5.8 2.3 9.1-1 4.7-5 5.2-9.3 5.9m5.1-5.9c.9-1.3 1.1-2.8.6-4.2-.9-2.9-3.6-3.2-5.9-3.6-1.4-.3-2.9.1-3 1.8-.1 2.5-1.3 5.7.7 7.5 2.1 2 4.9.8 7.6-1.5m14-11.4c2.2.2 4.3-.5 5.1 2.2-2.5 2.8-6.9-.3-9.6 2.7 1.8 3.6 6.1.6 8.4 3.2-1.1 2.2-3.1 1.7-4.7 1.8-1.5.1-3.4-.5-3.5 1.7-.1 2.6 2.1 2 3.7 2.2 1.9.3 4.3-.8 5.7 1.6-2.2 1.9-10.9 3-12.3 1.2-3.2-4.2-1.9-9.3-1.2-13.9.7-4.4 5.2-2.1 8.4-2.7m136.8.6c3.2-1 6-.4 8.8.2 3.8.8 5.6 3.2 5.9 7 .2 3.9-1 6.9-4.8 8.5-2.7 1.1-5.5 1.1-8.4.9-1.4-.1-2.7-.9-2.8-2.3-.3-4.8-1.5-9.6 1.3-14.3m8.4 12.2c1.3-.9 2.3-2 2.5-3.6.4-2.4-.8-4.2-3.1-4.9-1.9-.6-4.2-1.9-5.5.3-1.3 2.3-1.2 5.3-.2 7.7 1.1 2.6 3.6 1.5 6.3.5m-119-2.3c.7 3.8-1 5.9-4.1 6.6-3.4.8-6.7.4-9.2-2.4-.9-1-1.5-2.4-.3-3.5 1-.9 2.1-.4 3 .6 2 2.2 4.2 3 6.9.8-1.3-2.8-4-2.4-6.1-3.1s-4.1-1.8-4.2-4.2c-.2-2.8 2-4.1 4.3-4.8 2.8-.9 5.6-.5 8 1.3 1.4 1.1 2.1 2.6.5 4.3-2.8.5-4.6-5.2-8.1-1.2 2.2 3.3 7.4 1.4 9.3 5.6m39.4.8c1.1 2.8 3.1 2.8 5.1 2.3 2.4-.6 2.2-2.6 2.3-4.4.1-2.2.1-4.4.2-6.5.1-1.1.5-2 1.7-2.1 1-.1 1.9.3 2 1.2.7 4 1.5 8.2-.7 12.1-1.8 3.2-4.8 3.8-8.2 3.5-4.4-.4-6.8-3-6.9-7.5q0-3.5.2-7c.1-1.2.5-2.4 2-2.3 1.5 0 1.9 1.1 2 2.3.1 2.7.1 5.4.3 8.4m64.4 2.9c-3.4-2.7-6.3-2.7-8.6 1-.9 1.4-1.9 2.2-4.2 1.1 1.6-5.4 4.5-10.2 7.1-15.1.7-1.4 2.7-1.5 3.4-.3 2.7 4.9 5.9 9.7 6.6 15.5-2.5.7-3.3-.7-4.3-2.2m-241.4-7.4c2.1.3 4.1-.5 5.4 1.5-1.1 2.4-3.1 1.4-4.8 1.4-1.5 0-3.3-.2-3.4 1.8-.2 2.6 1.9 2.1 3.5 2.3 2.1.3 4.7-.9 6.2 1.7-3 2.3-11.2 2.6-12.8.6-1.2-1.5-1-14 .2-15.1 1.9-1.9 9.8-1.1 12.3 1.3-2.2 1.8-4.8.8-7.1 1.2-1 .1-2.1.2-2.2 1.5-.2 1.6 1.1 1.7 2.7 1.8m40.8 6.9c-.3 2-.7 3.5-2.8 3.1-1.4-.2-1.6-1.5-1.7-2.7q0-5.4.1-10.9c0-1.4.4-2.8 2.2-2.7 1.7.1 2.1 1.4 2.1 2.8.1 3.3.1 6.6.1 10.4m166.2 1.8c-.2-4.1-.4-7.9-.3-11.7 0-1.5.2-3.3 2.3-3.2 1.8.1 1.8 1.7 1.8 3 .1 3.5.1 7 0 10.4-.1 2.4-.9 4.2-3.8 1.5" class="s0"/></svg>