<svg version="1.1" id="Layer_1" xmlns="http://www.w3.org/2000/svg" xmlns:xlink="http://www.w3.org/1999/xlink" x="0px" y="0px"
	 viewBox="0 0 1024 784" enable-background="new 0 0 1024 784" xml:space="preserve">
<path fill="#000000" opacity="1.000000" stroke="none" 
	d="
M627.995850,343.171570 
	C616.000244,343.164978 604.503540,343.161072 593.006897,343.147156 
	C591.674988,343.145538 590.326721,343.211273 589.014282,343.035126 
	C583.526550,342.298859 580.042542,338.783813 580.422058,334.473083 
	C580.793640,330.252197 584.243958,327.673920 589.891907,327.640167 
	C600.721741,327.575470 611.553467,327.514008 622.381653,327.660522 
	C626.501343,327.716278 627.369202,326.077301 626.138794,322.457520 
	C623.068665,313.424622 616.933105,307.162567 608.596436,302.892059 
	C592.085449,294.434143 570.645081,298.485535 559.454041,312.137207 
	C546.814453,327.555878 551.680542,349.801483 569.629211,358.699982 
	C584.542053,366.093445 599.088196,365.790985 613.234375,356.680206 
	C613.932312,356.230682 614.643494,355.572571 615.403564,355.484009 
	C623.624451,354.526123 631.835205,354.658295 640.828796,355.442566 
	C637.417542,364.637024 631.880676,371.362244 625.359497,377.268951 
	C606.865906,394.019958 584.599182,403.269440 560.756897,409.306732 
	C536.363220,415.483582 511.540955,417.624329 486.528473,415.856354 
	C450.910339,413.338776 416.843140,405.417969 387.142761,384.094391 
	C380.314453,379.191986 374.504700,373.274078 369.388245,366.651031 
	C368.519714,365.526794 367.311859,364.448914 367.811859,361.913666 
	C372.271088,365.556763 375.585297,369.831238 379.746674,373.176575 
	C394.851715,385.319611 412.293274,392.311798 430.622650,397.731415 
	C456.572754,405.404266 483.183868,406.196655 509.787262,404.559204 
	C536.738159,402.900269 562.618408,396.218567 586.376221,382.730438 
	C587.100037,382.319489 587.845642,381.942932 588.543091,381.491608 
	C588.780518,381.337921 588.900879,381.003357 589.265381,380.475281 
	C575.649414,379.451599 562.986816,376.080872 552.230042,367.447083 
	C550.421997,365.995911 548.853699,366.727203 547.241089,367.812073 
	C534.026245,376.702484 519.191345,380.777100 503.524109,381.622864 
	C491.493347,382.272339 480.486664,378.811066 471.182861,370.800293 
	C469.936218,369.726929 468.742676,368.591858 467.220337,367.209015 
	C459.870941,373.356262 451.845154,377.836121 442.465820,379.655487 
	C417.899384,384.420807 395.961823,380.188477 379.016205,360.423340 
	C362.526215,341.189575 365.110901,315.580353 383.392456,298.724457 
	C405.089172,278.719727 438.466095,276.792694 462.771240,293.630646 
	C463.990112,294.475037 465.222198,295.300385 466.868866,296.420929 
	C472.759705,289.323730 480.388123,284.892303 489.247803,283.320740 
	C504.222046,280.664490 518.153503,282.781372 529.212830,294.505585 
	C533.718933,299.282532 534.083618,302.997894 530.585327,306.210236 
	C527.032349,309.472778 520.897644,308.875214 517.205627,304.906860 
	C509.324646,296.435944 499.110046,294.253052 488.674103,298.936005 
	C486.876160,299.742767 485.116455,300.820099 483.633118,302.110443 
	C477.264893,307.650421 478.128906,313.039886 485.716705,316.767487 
	C492.497314,320.098572 499.773346,321.850098 506.970093,323.906006 
	C511.759369,325.274139 516.458679,326.873322 520.997559,329.037231 
	C525.368591,331.121155 529.144043,334.002808 533.098022,337.215759 
	C530.915100,306.186798 553.605652,287.206268 577.038452,283.397522 
	C603.798706,279.047943 628.160156,286.963287 641.341125,310.811676 
	C646.258057,319.707947 647.330017,329.339874 645.362610,339.353424 
	C644.841797,342.004120 643.496338,343.095459 640.988037,343.113495 
	C636.823669,343.143372 632.659180,343.153076 627.995850,343.171570 
M436.078979,366.591522 
	C439.424957,365.620575 442.879333,364.919220 446.095703,363.625916 
	C454.369293,360.299042 460.316681,351.837036 459.606201,344.289886 
	C457.691162,344.289886 455.723785,344.294128 453.756409,344.289154 
	C447.428619,344.273163 441.092255,344.446747 434.776245,344.164795 
	C430.850006,343.989563 428.038971,341.602600 427.917542,337.578064 
	C427.805847,333.876068 430.049652,330.939484 433.887726,330.812866 
	C445.690033,330.423737 457.516266,330.076355 469.312073,330.425781 
	C476.621368,330.642303 478.555054,333.919708 477.628204,341.371521 
	C476.548004,350.056915 477.419037,358.108398 485.822418,363.248138 
	C495.909821,369.417786 506.131622,368.780212 516.155151,363.272430 
	C523.285217,359.354584 523.929932,349.409821 517.601379,344.309784 
	C511.195282,339.147247 503.380096,337.327332 495.674286,335.262878 
	C482.096161,331.625153 469.493896,326.419891 461.152771,314.152313 
	C459.673401,311.976562 457.876434,309.911804 455.871216,308.215332 
	C439.918274,294.718689 422.392609,293.108856 403.916748,302.188141 
	C382.408142,312.757812 377.947235,338.263580 394.811737,354.939117 
	C405.987915,365.990112 419.790558,369.541504 436.078979,366.591522 
z"/>
<path fill="#000000" opacity="1.000000" stroke="none" 
	d="
M542.841431,481.218628 
	C535.838257,483.689636 529.179871,484.208954 524.012451,478.622009 
	C515.947266,469.902130 521.096069,458.143341 533.817383,455.589233 
	C532.748291,450.661224 535.745056,448.270355 541.678345,449.333191 
	C542.352661,450.758636 541.221130,451.447235 540.426514,452.211395 
	C539.727478,452.883667 538.908081,453.430786 537.000061,454.931030 
	C545.729736,457.789978 550.314453,462.705017 549.342773,471.331055 
	C548.854614,475.665253 546.737244,478.753906 542.841431,481.218628 
M538.960571,462.393066 
	C535.418640,460.503693 532.116333,460.823822 529.626099,464.034790 
	C527.187927,467.178528 526.797241,470.731018 529.095032,474.209839 
	C531.182434,477.370148 534.394470,477.443970 537.556519,476.655670 
	C542.950562,475.311005 543.862976,468.649231 538.960571,462.393066 
z"/>
<path fill="#000000" opacity="1.000000" stroke="none" 
	d="
M567.458679,467.400513 
	C568.285339,468.633545 568.950134,469.569611 569.614868,470.505676 
	C569.965759,470.482422 570.316711,470.459198 570.667603,470.435944 
	C570.667603,467.266510 570.708862,464.096405 570.654297,460.927917 
	C570.612122,458.478394 571.064941,456.714325 574.150818,456.739136 
	C577.135864,456.763184 577.846619,458.541351 577.880310,460.925507 
	C577.955566,466.253693 578.007324,471.584656 577.910583,476.911591 
	C577.873840,478.938049 578.495056,481.570435 575.464966,482.167145 
	C572.876892,482.676788 570.525635,482.224640 568.898621,479.755859 
	C566.085327,475.487274 563.184448,471.276337 559.353271,467.197906 
	C559.353271,470.917053 559.331421,474.636383 559.361389,478.355286 
	C559.379639,480.622467 558.862793,482.263702 556.072693,482.219696 
	C553.326294,482.176361 552.763489,480.519012 552.765320,478.275391 
	C552.770081,472.613007 552.740112,466.950378 552.787170,461.288391 
	C552.802063,459.496887 552.545227,457.298035 555.043518,456.947906 
	C557.270935,456.635651 559.753479,455.991913 561.412048,458.432007 
	C563.375793,461.321075 565.335388,464.212921 567.458679,467.400513 
z"/>
<path fill="#000000" opacity="1.000000" stroke="none" 
	d="
M510.586700,456.738464 
	C517.983826,458.247925 519.639404,461.805237 516.855408,468.202362 
	C515.288330,471.803284 518.179077,475.424469 517.597900,479.166229 
	C517.484497,479.896576 517.938110,480.714966 518.177002,481.682617 
	C513.744385,482.980621 510.770996,482.539764 510.525024,477.169250 
	C510.348724,473.319824 507.944580,472.288269 504.370026,472.415405 
	C500.186768,472.564240 501.282745,475.552979 501.188751,477.810669 
	C501.078461,480.458679 500.566925,482.350922 497.288727,482.282532 
	C493.906555,482.211914 493.673431,480.057800 493.680115,477.542877 
	C493.694641,472.044373 493.781128,466.543365 493.645142,461.048187 
	C493.564301,457.780792 494.997620,456.585632 498.138214,456.688385 
	C502.132996,456.819000 506.135101,456.725891 510.586700,456.738464 
M511.113342,463.816315 
	C508.928009,461.181793 505.998138,462.015717 503.255859,462.215881 
	C501.891327,462.315491 501.359772,463.397095 501.330994,464.700989 
	C501.303833,465.930237 501.498505,467.322205 502.893707,467.414459 
	C506.046448,467.622894 509.610901,468.616577 511.113342,463.816315 
z"/>
<path fill="#000000" opacity="1.000000" stroke="none" 
	d="
M378.866760,482.315552 
	C374.220978,482.309357 370.055878,482.236511 365.893890,482.319092 
	C362.967133,482.377136 361.629395,481.158447 361.673431,478.168396 
	C361.759308,472.340393 361.749390,466.509613 361.674927,460.681305 
	C361.640503,457.985199 362.718781,456.682190 365.493958,456.720245 
	C370.489502,456.788818 375.486816,456.719208 380.482758,456.769684 
	C382.147675,456.786499 384.027924,456.757202 384.110016,459.158234 
	C384.203461,461.890015 382.097198,461.840729 380.282562,461.894287 
	C377.787750,461.967926 375.287201,461.884918 372.789978,461.829010 
	C371.037476,461.789795 369.284912,461.730988 369.319702,464.209808 
	C369.353729,466.633972 371.139221,466.616943 372.857269,466.634491 
	C375.022278,466.656647 377.189606,466.612885 379.351837,466.699951 
	C380.973480,466.765228 382.938202,466.545197 383.052612,468.982513 
	C383.180298,471.701691 381.017792,471.672150 379.238342,471.786346 
	C377.419861,471.902985 375.581177,471.743805 373.753204,471.663300 
	C371.754150,471.575256 369.398804,471.067017 369.366638,474.135498 
	C369.333679,477.281555 371.896088,476.599091 373.767181,476.674286 
	C376.095215,476.767822 378.431213,476.649200 380.761017,476.716553 
	C382.713806,476.773010 385.076813,476.444366 385.107483,479.451172 
	C385.137787,482.420380 382.853424,482.224640 380.847687,482.304291 
	C380.348694,482.324158 379.848480,482.312500 378.866760,482.315552 
z"/>
<path fill="#000000" opacity="1.000000" stroke="none" 
	d="
M429.039551,461.935730 
	C426.931335,461.905426 425.266479,461.886505 423.602112,461.847260 
	C422.028046,461.810211 420.484741,461.815918 420.400085,463.982056 
	C420.308197,466.333527 421.866608,466.645142 423.703003,466.647186 
	C426.200226,466.649933 428.698669,466.652222 431.194092,466.732361 
	C432.559601,466.776184 433.910034,466.991058 434.057098,468.797821 
	C434.216400,470.755066 433.009705,471.567902 431.352936,471.634155 
	C428.700836,471.740265 426.039703,471.631104 423.382599,471.596130 
	C421.721405,471.574280 420.388580,471.882935 420.363831,473.979187 
	C420.341034,475.908691 421.353638,476.676270 423.144165,476.681885 
	C426.473969,476.692291 429.803802,476.693970 433.133606,476.701294 
	C434.921722,476.705261 436.539185,476.914581 436.481323,479.309692 
	C436.431244,481.380737 435.347290,482.285614 433.327271,482.277313 
	C427.833527,482.254730 422.339661,482.256561 416.845856,482.255890 
	C414.475067,482.255585 413.673309,480.907715 413.683075,478.734833 
	C413.710754,472.574921 413.732483,466.414551 413.684235,460.254944 
	C413.663971,457.665192 414.966217,456.710663 417.391541,456.730011 
	C421.886536,456.765930 426.383331,456.670502 430.876740,456.761078 
	C432.586731,456.795563 434.917236,456.293243 435.136353,458.984558 
	C435.384125,462.027863 432.901276,461.697876 430.980560,461.922180 
	C430.487518,461.979767 429.982605,461.935669 429.039551,461.935730 
z"/>
<path fill="#000000" opacity="1.000000" stroke="none" 
	d="
M618.339233,464.152039 
	C615.617249,467.249207 613.383179,465.769958 611.061768,463.797852 
	C607.214722,460.529602 604.028687,460.596069 601.044800,463.834351 
	C598.491638,466.605194 598.471069,472.910004 601.364380,475.237213 
	C604.600037,477.839722 608.156555,477.942047 611.103516,474.661377 
	C613.151794,472.381134 615.316162,472.510651 617.788391,473.295319 
	C617.390198,479.319397 613.578186,482.546570 606.666382,482.954468 
	C599.139587,483.398682 593.063049,478.700806 592.021667,471.632507 
	C590.991577,464.640259 594.774109,458.334717 601.166199,456.388306 
	C608.870300,454.042389 615.379822,456.852112 618.339233,464.152039 
z"/>
<path fill="#000000" opacity="1.000000" stroke="none" 
	d="
M445.121643,481.248840 
	C438.197571,475.582794 436.865875,468.672699 441.004486,461.589478 
	C444.133667,456.233917 452.005646,454.025146 458.753448,456.813721 
	C462.232422,458.251465 464.992920,460.504913 465.276703,464.921570 
	C462.535706,466.329590 460.352112,466.329102 458.025818,464.059143 
	C454.385284,460.506775 451.049286,460.521271 448.126190,463.662079 
	C445.581635,466.396149 445.608490,472.439301 448.177368,475.176514 
	C450.631104,477.791046 454.381744,477.535522 457.898224,474.514160 
	C460.279541,472.468140 460.279510,472.468109 464.634247,473.379303 
	C464.454681,481.459900 456.223663,484.908234 445.121643,481.248840 
z"/>
<path fill="#000000" opacity="1.000000" stroke="none" 
	d="
M621.213867,475.280273 
	C623.470703,469.705933 625.482910,464.447784 627.704590,459.279633 
	C629.061951,456.121948 635.741516,455.332245 637.172607,458.335327 
	C640.703613,465.744965 644.242004,473.205322 646.321167,481.380402 
	C642.797729,482.786652 640.366150,482.742828 638.273865,479.502319 
	C636.182434,476.262970 629.184143,476.117157 627.192200,479.371887 
	C625.137939,482.728485 622.676819,482.668640 619.547424,481.722595 
	C618.820435,479.333649 620.400391,477.594116 621.213867,475.280273 
M634.599792,469.571747 
	C634.254517,468.065399 634.028259,466.502502 632.649780,465.158112 
	C631.920593,467.313568 629.527344,468.928314 631.089905,471.055878 
	C631.980286,472.268280 633.742554,472.041992 634.599792,469.571747 
z"/>
<path fill="#000000" opacity="1.000000" stroke="none" 
	d="
M487.631348,461.903259 
	C483.940216,461.790741 482.882690,463.548706 482.958374,466.599243 
	C483.057373,470.588928 482.947235,474.584290 482.902405,478.576904 
	C482.872406,481.248596 481.574493,482.408600 478.827850,482.341064 
	C476.170380,482.275696 474.772797,481.293365 474.800323,478.518311 
	C474.838257,474.691956 474.676300,470.860077 474.827271,467.039520 
	C474.951202,463.902954 474.211365,461.867767 470.556366,461.859009 
	C468.899200,461.855042 467.018921,461.485291 467.066895,459.196014 
	C467.115479,456.878479 468.962036,456.757660 470.668884,456.748322 
	C476.159302,456.718231 481.650116,456.730652 487.140625,456.752563 
	C488.697876,456.758759 490.208954,456.947113 490.527863,458.911865 
	C490.841187,460.842346 489.777344,461.647186 487.631348,461.903259 
z"/>
<path fill="#000000" opacity="1.000000" stroke="none" 
	d="
M388.945190,479.672424 
	C388.871216,473.558746 388.790161,467.909851 388.893738,462.264343 
	C388.936829,459.916626 388.294403,456.898468 392.195404,456.802887 
	C396.436279,456.698944 395.713654,459.973907 395.856415,462.457733 
	C396.037231,465.604462 396.073761,468.774200 395.919647,471.921631 
	C395.737732,475.637299 397.375336,477.008881 400.983734,476.728424 
	C403.290009,476.549164 405.630280,476.728790 407.950775,476.840912 
	C409.265503,476.904449 410.080933,477.638702 410.169281,479.037415 
	C410.245209,480.239410 410.217438,481.849304 408.892761,481.897278 
	C402.378998,482.133057 395.782318,483.601379 389.398193,481.030975 
	C389.184540,480.944885 389.137390,480.445404 388.945190,479.672424 
z"/>
<path fill="#000000" opacity="1.000000" stroke="none" 
	d="
M412.839233,444.452209 
	C412.771881,442.354675 412.862396,440.678040 412.702118,439.025757 
	C412.520599,437.154327 413.578613,434.815887 411.270538,433.613892 
	C408.590424,432.218170 407.768616,435.185272 406.012207,436.352203 
	C403.557220,434.655884 401.353760,431.521637 397.852112,434.577301 
	C399.337952,437.154388 402.038239,436.626984 404.072632,437.481445 
	C406.366608,438.445007 408.449677,439.550873 408.123322,442.420227 
	C407.825256,445.040710 405.932617,446.435242 403.505890,447.071899 
	C398.261536,448.447754 394.630859,446.282654 393.716736,441.066254 
	C397.320740,440.245087 399.883972,446.657990 404.049011,442.441498 
	C403.030487,439.580261 400.202057,439.961151 398.018280,439.319794 
	C395.771027,438.659760 393.876862,437.627838 393.881958,435.028992 
	C393.887329,432.295502 395.838928,430.118011 398.167328,430.353149 
	C405.719910,431.115936 413.238556,428.917725 420.739349,430.420746 
	C421.141815,430.501373 421.449036,431.057465 422.499908,432.058136 
	C415.004639,433.221558 417.385345,438.767456 416.905518,443.137268 
	C416.761871,444.445831 416.830627,445.987976 415.355225,446.567963 
	C413.949493,447.120605 413.228882,446.158661 412.839233,444.452209 
z"/>
<path fill="#000000" opacity="1.000000" stroke="none" 
	d="
M371.561005,443.352936 
	C374.215027,439.022736 367.347351,442.374756 369.373383,438.145416 
	C370.880676,436.894409 374.026886,436.981232 376.195129,438.304962 
	C379.115936,440.088135 377.121002,443.386475 377.325867,446.449554 
	C373.909668,446.758942 370.820160,447.413269 367.783539,447.223022 
	C363.585419,446.959930 360.599274,444.639008 359.922485,440.247925 
	C359.233734,435.779205 360.982697,432.441010 365.209839,430.610718 
	C369.067749,428.940277 374.498566,430.211914 376.596893,433.168091 
	C377.314667,434.179291 377.988129,435.302429 376.697449,436.182312 
	C375.337524,437.109344 374.309906,436.239410 373.305054,435.163483 
	C371.197968,432.907440 368.632294,432.680542 366.084045,434.270630 
	C363.709869,435.752136 363.746674,438.244446 364.389862,440.526764 
	C365.409393,444.144623 368.327393,444.006989 371.561005,443.352936 
z"/>
<path fill="#000000" opacity="1.000000" stroke="none" 
	d="
M556.119995,446.645020 
	C553.403564,446.196838 551.175903,447.212524 548.884521,447.306030 
	C544.020447,447.504486 540.151611,444.694092 539.289307,440.380737 
	C538.388733,435.876312 540.895020,431.775024 545.410400,430.364105 
	C550.329407,428.827057 554.626099,430.692810 556.806396,435.398651 
	C554.643616,437.782654 553.463867,435.328888 551.955811,434.415649 
	C549.221313,432.759735 546.421448,432.665009 544.346436,435.257050 
	C542.652405,437.373291 542.726318,439.951477 544.548584,442.125549 
	C546.334656,444.256348 548.700562,444.200836 551.893005,442.143463 
	C551.492004,440.240936 548.625549,441.258240 548.326660,438.887299 
	C550.665588,436.976074 553.898621,436.866333 555.905273,438.326874 
	C558.545715,440.248657 557.645691,443.621918 556.119995,446.645020 
z"/>
<path fill="#000000" opacity="1.000000" stroke="none" 
	d="
M441.213409,428.120758 
	C440.420410,431.000671 442.910736,431.319092 444.097992,432.456268 
	C447.419769,435.637848 447.920898,440.072357 445.189819,443.619019 
	C441.856018,447.948395 435.980347,448.661499 431.410583,445.291412 
	C427.984894,442.765015 426.870087,437.667328 429.384949,434.175140 
	C431.843750,430.760803 435.853760,429.160889 439.259857,426.881927 
	C439.854706,426.483917 440.906555,426.797791 441.213409,428.120758 
M432.540100,441.245911 
	C434.384735,444.137451 437.048492,444.432220 439.856049,443.172577 
	C441.955475,442.230621 443.030121,440.314087 442.757507,437.923798 
	C442.482941,435.516479 440.936401,434.090271 438.700928,433.497559 
	C434.485840,432.379883 431.859283,435.324829 432.540100,441.245911 
z"/>
<path fill="#000000" opacity="1.000000" stroke="none" 
	d="
M598.842285,433.349487 
	C601.046936,427.763458 605.193665,430.159729 608.659424,430.457611 
	C613.186890,430.846802 615.370300,434.004395 615.872070,438.101868 
	C616.318848,441.750366 614.319153,444.476685 611.048523,446.047455 
	C608.610901,447.218201 605.932068,447.226685 603.251831,447.226898 
	C600.155457,447.227112 598.631897,445.980072 598.757629,442.766113 
	C598.874268,439.783569 598.799866,436.793518 598.842285,433.349487 
M609.156616,434.332092 
	C607.206665,434.071045 604.610718,432.013184 603.548401,434.807800 
	C602.562195,437.402008 601.873474,440.883453 604.283997,443.101776 
	C605.963379,444.647247 608.597717,443.659210 610.142029,442.169189 
	C612.636780,439.762115 612.714539,437.037720 609.156616,434.332092 
z"/>
<path fill="#000000" opacity="1.000000" stroke="none" 
	d="
M457.143250,437.509155 
	C457.732300,438.480682 458.108856,439.225311 458.710327,440.414734 
	C461.023743,436.622375 458.477417,432.655548 462.012726,430.225342 
	C464.856384,432.701752 464.161743,435.866272 463.635345,438.527618 
	C463.087189,441.298920 465.268341,445.516724 461.978882,446.602509 
	C458.684540,447.689911 457.783386,443.118561 455.693512,441.189423 
	C454.406494,440.001465 453.287079,438.631927 451.924957,437.163422 
	C450.482025,440.405975 452.403809,443.805908 450.428467,446.505005 
	C448.507782,446.956299 447.840302,445.870361 447.800812,444.385590 
	C447.699493,440.576019 447.597839,436.757385 447.753387,432.952881 
	C447.875824,429.958130 449.711334,429.531494 451.706604,431.314117 
	C453.663422,433.062378 455.206238,435.274017 457.143250,437.509155 
z"/>
<path fill="#000000" opacity="1.000000" stroke="none" 
	d="
M576.715698,440.824585 
	C576.714417,439.692993 576.710632,439.027649 576.711731,438.362335 
	C576.725708,429.750122 579.702637,427.839294 588.023010,430.924530 
	C590.626831,431.890076 592.002808,433.574280 591.295593,436.208038 
	C590.667358,438.547516 590.780701,440.730316 591.159546,443.040344 
	C591.388306,444.435120 591.778564,446.392792 589.720825,446.698792 
	C587.852234,446.976715 587.374451,445.192047 586.965332,443.742310 
	C586.651978,442.632263 586.682922,441.186462 585.432068,440.793457 
	C583.155090,440.078094 580.696777,439.425293 580.263733,443.105621 
	C580.098755,444.507568 580.440002,446.252411 578.223694,446.591705 
	C575.928833,445.362396 577.023071,443.115143 576.715698,440.824585 
M585.546570,436.728241 
	C586.748108,436.227875 587.825256,435.496429 586.340759,434.328247 
	C584.853149,433.157440 582.987610,432.993683 581.243408,433.822662 
	C580.842468,434.013214 580.447510,435.050781 580.617493,435.466309 
	C581.442261,437.482971 583.280457,436.857758 585.546570,436.728241 
z"/>
<path fill="#000000" opacity="1.000000" stroke="none" 
	d="
M529.848145,440.238586 
	C528.693054,443.197540 530.368774,443.566071 532.460815,443.695740 
	C534.651733,443.831573 537.054810,443.165588 539.053711,444.929077 
	C536.693054,447.385223 527.650635,448.135254 525.776672,446.255280 
	C524.601807,445.076599 524.387634,432.519165 525.518738,431.128448 
	C527.207458,429.052063 536.036438,429.561005 538.849426,432.047424 
	C536.301697,434.938446 531.883850,431.668274 529.307800,434.867126 
	C531.130310,438.566833 535.494324,435.263062 537.709961,438.107544 
	C535.711609,441.203156 532.467346,439.001007 529.848145,440.238586 
z"/>
<path fill="#000000" opacity="1.000000" stroke="none" 
	d="
M478.717590,447.186890 
	C473.139130,447.986267 471.269562,445.578674 471.878357,440.692902 
	C471.980072,439.876709 471.794464,439.021942 471.917633,438.211731 
	C472.336151,435.457916 470.496368,431.632141 474.286652,430.370270 
	C478.160828,429.080444 482.263611,429.870941 485.677490,432.242737 
	C488.890320,434.474823 488.679810,438.013214 487.977997,441.308136 
	C486.983795,445.975861 482.956268,446.495361 478.717590,447.186890 
M483.759003,441.282410 
	C484.724670,439.991638 484.894806,438.503021 484.422668,437.058838 
	C483.492371,434.213196 480.847809,433.940125 478.450928,433.476654 
	C477.053162,433.206360 475.580902,433.601288 475.492828,435.258026 
	C475.356415,437.825043 474.214081,440.974426 476.172363,442.826874 
	C478.306610,444.845764 481.083496,443.586212 483.759003,441.282410 
z"/>
<path fill="#000000" opacity="1.000000" stroke="none" 
	d="
M497.840698,429.903381 
	C499.977600,430.121765 502.058380,429.447601 502.917175,432.124756 
	C500.363251,434.906311 496.039185,431.788239 493.297028,434.847992 
	C495.107239,438.423187 499.418762,435.389526 501.655029,438.025543 
	C500.570038,440.187378 498.636658,439.706604 496.958374,439.813965 
	C495.544525,439.904480 493.588226,439.294861 493.508850,441.538513 
	C493.417755,444.113922 495.613495,443.469818 497.158539,443.686768 
	C499.140320,443.965088 501.540314,442.893036 502.934692,445.330994 
	C500.675354,447.188446 491.961975,448.338501 490.561859,446.500366 
	C487.362518,442.300171 488.716461,437.172760 489.418243,432.640442 
	C490.100098,428.236755 494.559814,430.483765 497.840698,429.903381 
z"/>
<path fill="#000000" opacity="1.000000" stroke="none" 
	d="
M634.603394,430.467468 
	C637.833801,429.499756 640.601562,430.076355 643.377014,430.695923 
	C647.153198,431.538879 649.028870,433.945251 649.268738,437.728668 
	C649.512878,441.579132 648.277527,444.578491 644.492188,446.179504 
	C641.789734,447.322540 638.984253,447.328583 636.144836,447.112793 
	C634.653442,446.999512 633.430176,446.249817 633.331177,444.762329 
	C633.016724,440.037750 631.765137,435.224915 634.603394,430.467468 
M643.035950,442.747498 
	C644.303528,441.849609 645.273926,440.677612 645.500732,439.142853 
	C645.867188,436.663116 644.742249,434.926849 642.358337,434.189636 
	C640.520203,433.621185 638.171814,432.304993 636.916077,434.457275 
	C635.571899,436.761078 635.730713,439.808685 636.699768,442.192596 
	C637.754761,444.787689 640.311707,443.657227 643.035950,442.747498 
z"/>
<path fill="#000000" opacity="1.000000" stroke="none" 
	d="
M581.823120,478.679626 
	C581.785522,472.585907 581.777832,466.960968 581.775513,461.335999 
	C581.774536,459.096222 581.793152,456.929260 584.936584,456.801056 
	C588.081604,456.672760 588.337402,458.689423 588.331360,461.029175 
	C588.316345,466.819489 588.350098,472.610046 588.306580,478.400085 
	C588.294189,480.052734 588.295471,481.835144 586.001587,482.135437 
	C583.683655,482.438873 582.086670,481.741302 581.823120,478.679626 
z"/>
<path fill="#000000" opacity="1.000000" stroke="none" 
	d="
M523.971252,440.424561 
	C524.664673,444.236694 523.001892,446.291901 519.856628,447.037445 
	C516.473083,447.839447 513.208435,447.420776 510.715393,444.646332 
	C509.793243,443.620117 509.214264,442.228180 510.418488,441.105316 
	C511.441376,440.151581 512.529358,440.719330 513.420593,441.686737 
	C515.429016,443.866760 517.602539,444.738647 520.255615,442.488739 
	C518.979858,439.678528 516.318604,440.104736 514.239563,439.425018 
	C512.057983,438.711792 510.084015,437.632690 509.970734,435.166992 
	C509.843384,432.395447 512.035461,431.114807 514.299072,430.384766 
	C517.129761,429.471802 519.942200,429.927948 522.324341,431.734650 
	C523.736206,432.805420 524.444824,434.288605 522.759277,436.031433 
	C520.044922,436.522644 518.174561,430.829071 514.697571,434.816284 
	C516.941284,438.148010 522.077209,436.247864 523.971252,440.424561 
z"/>
<path fill="#000000" opacity="1.000000" stroke="none" 
	d="
M563.387573,441.231262 
	C564.503601,444.025269 566.531921,443.981995 568.534912,443.503601 
	C570.864502,442.947174 570.743591,440.871857 570.834229,439.059174 
	C570.942078,436.901733 570.914368,434.737396 571.025879,432.580200 
	C571.080566,431.522247 571.549988,430.626740 572.747498,430.485016 
	C573.666565,430.376282 574.579285,430.847382 574.709778,431.667480 
	C575.358521,435.744720 576.165100,439.897308 573.982178,443.780060 
	C572.190247,446.967377 569.165283,447.612946 565.811707,447.311737 
	C561.442749,446.919373 558.970703,444.274200 558.897217,439.805542 
	C558.859009,437.481750 558.945129,435.150604 559.100342,432.831146 
	C559.180725,431.630798 559.644409,430.449951 561.129761,430.452942 
	C562.628113,430.455994 563.041382,431.629822 563.098083,432.849060 
	C563.221863,435.504761 563.243469,438.165192 563.387573,441.231262 
z"/>
<path fill="#000000" opacity="1.000000" stroke="none" 
	d="
M627.783569,444.085236 
	C624.371887,441.390015 621.498352,441.449615 619.222351,445.060608 
	C618.333801,446.470367 617.326477,447.293579 614.963074,446.233948 
	C616.586914,440.785126 619.450867,435.998077 622.054077,431.127075 
	C622.794312,429.742126 624.788513,429.603394 625.462646,430.798706 
	C628.224670,435.696167 631.449707,440.483124 632.079712,446.291321 
	C629.558350,447.048889 628.829102,445.615845 627.783569,444.085236 
z"/>
<path fill="#000000" opacity="1.000000" stroke="none" 
	d="
M386.424469,436.735352 
	C388.505127,437.039429 390.541107,436.152374 391.773499,438.213013 
	C390.701965,440.565857 388.696045,439.580688 387.019836,439.574677 
	C385.485687,439.569153 383.729767,439.380157 383.566193,441.431671 
	C383.360870,444.007111 385.502014,443.510651 387.079041,443.735901 
	C389.187286,444.036987 391.762512,442.764282 393.321594,445.368591 
	C390.325256,447.683044 382.052063,447.998444 380.451294,445.953888 
	C379.289276,444.469666 379.493744,432.039764 380.699524,430.864349 
	C382.573853,429.037231 390.544922,429.771637 393.031189,432.222046 
	C390.815796,434.023376 388.225464,433.037445 385.910004,433.375580 
	C384.897125,433.523468 383.772339,433.613373 383.665863,434.858978 
	C383.526428,436.490387 384.836212,436.604614 386.424469,436.735352 
z"/>
<path fill="#000000" opacity="1.000000" stroke="none" 
	d="
M427.170715,443.595825 
	C426.904266,445.624573 426.473694,447.107483 424.418152,446.728027 
	C423.013855,446.468781 422.751038,445.231842 422.743378,444.028992 
	C422.720215,440.383514 422.712708,436.736908 422.782806,433.092377 
	C422.809479,431.706940 423.183838,430.318146 424.968628,430.390717 
	C426.666992,430.459839 427.103790,431.811188 427.136078,433.202423 
	C427.212952,436.515564 427.183228,439.831207 427.170715,443.595825 
z"/>
<path fill="#000000" opacity="1.000000" stroke="none" 
	d="
M593.427246,445.426331 
	C593.195801,441.262299 593.036804,437.466705 593.101562,433.674957 
	C593.125977,432.245453 593.345276,430.410645 595.408386,430.500946 
	C597.185974,430.578705 597.204956,432.195099 597.221069,433.511688 
	C597.263550,436.986542 597.335938,440.467133 597.184875,443.936218 
	C597.079895,446.348022 596.282776,448.076050 593.427246,445.426331 
z"/>
</svg>