<?xml version="1.0" encoding="utf-8"?>
<!-- Generator: Adobe Illustrator 23.0.3, SVG Export Plug-In . SVG Version: 6.00 Build 0)  -->
<svg version="1.1" id="Layer_1" xmlns="http://www.w3.org/2000/svg" xmlns:xlink="http://www.w3.org/1999/xlink" x="0px" y="0px"
	 viewBox="0 0 1323 584" style="enable-background:new 0 0 1323 584;" xml:space="preserve">
<style type="text/css">
	.st0{fill:#7CCBED;}
	.st1{opacity:0.2;fill:#FFFFFF;}
	.st2{fill:#FFFFFF;}
	.st3{fill:#00487A;}
	.st4{fill:#454545;}
	.st5{clip-path:url(#SVGID_2_);fill:#454545;}
	.st6{clip-path:url(#SVGID_4_);fill:#454545;}
</style>
<path class="st0" d="M281.55,448.1c-32.33,27.7-73.6,43.18-116.79,43.18c-34.06,0-65.93-9.53-93.1-26.06
	C121.81,528.67,199.45,569.4,286.6,569.4c102.73,0,192.23-56.58,239.07-140.27c-19.91,12.04-43.24,18.98-68.16,18.98H281.55z"/>
<path class="st0" d="M550.39,222.01c-10.61-10.49-22.89-19.06-36.24-25.41c-11.45-26.13-29.08-49.46-51.43-67.61
	c-31.86-25.88-72.05-40.13-113.15-40.13c-34.2,0-67.49,9.67-96.26,27.96c-11.18,7.11-21.49,15.39-30.77,24.68
	c-18.39-6.25-37.82-9.46-57.78-9.46c-51.02,0-97.15,21.39-129.88,55.66c-14.21,33.11-22.09,69.58-22.09,107.9
	c0,64.07,22.01,122.99,58.87,169.63c27.17,16.53,59.04,26.06,93.1,26.06c43.19,0,84.46-15.48,116.79-43.18h175.96
	c24.92,0,48.25-6.94,68.16-18.98c22.11-39.51,34.74-85.04,34.74-133.54C560.41,270.1,556.91,245.42,550.39,222.01z M442.84,382.39
	c-0.26,0-182.18,0-182.18,0c-20.55,24.13-51.14,39.45-85.32,39.45c-61.88,0-112.05-50.17-112.05-112.05s50.17-112.05,112.05-112.05
	c25.7,0,49.36,8.67,68.27,23.22c18.25-37.12,56.43-62.68,100.59-62.68c53.49,0,98.2,37.5,109.35,87.64
	c32.82,5.15,57.93,33.54,57.93,67.81C511.49,351.65,480.75,382.39,442.84,382.39z"/>
<g>
	<path class="st0" d="M164.76,132.03c19.95,0,39.38,3.21,57.78,9.46c9.28-9.28,19.59-17.57,30.77-24.68
		c28.77-18.29,62.06-27.96,96.26-27.96c41.1,0,81.29,14.25,113.15,40.13c22.35,18.15,39.98,41.48,51.43,67.61
		c13.36,6.34,25.63,14.92,36.24,25.41C518.25,106.53,412.33,21.78,286.6,21.78c-112.91,0-209.84,68.34-251.71,165.91
		C67.62,153.42,113.74,132.03,164.76,132.03z"/>
	<path class="st1" d="M550.39,222.01c-10.61-10.49-22.89-19.06-36.24-25.41c-11.45-26.13-29.08-49.46-51.43-67.61
		c-31.86-25.88-72.05-40.13-113.15-40.13c-34.2,0-67.49,9.67-96.26,27.96c-11.18,7.11-21.49,15.39-30.77,24.68
		c-18.39-6.25-37.82-9.46-57.78-9.46c-51.02,0-97.15,21.39-129.88,55.66c-14.21,33.11-22.09,69.58-22.09,107.9
		c0,64.07,22.01,122.99,58.87,169.63c27.17,16.53,59.04,26.06,93.1,26.06c43.19,0,84.46-15.48,116.79-43.18h175.96
		c24.92,0,48.25-6.94,68.16-18.98c22.11-39.51,34.74-85.04,34.74-133.54C560.41,270.1,556.91,245.42,550.39,222.01z M442.84,382.39
		c-0.26,0-182.18,0-182.18,0c-20.55,24.13-51.14,39.45-85.32,39.45c-61.88,0-112.05-50.17-112.05-112.05s50.17-112.05,112.05-112.05
		c25.7,0,49.36,8.67,68.27,23.22c18.25-37.12,56.43-62.68,100.59-62.68c53.49,0,98.2,37.5,109.35,87.64
		c32.82,5.15,57.93,33.54,57.93,67.81C511.49,351.65,480.75,382.39,442.84,382.39z"/>
</g>
<path class="st2" d="M164.29,315v-10.41c0-4.97,4.03-9,9-9h35.46c-5.53-12.99-18.41-22.09-33.41-22.09
	c-20.05,0-36.3,16.25-36.3,36.3c0,20.05,16.25,36.3,36.3,36.3c15.01,0,27.88-9.11,33.41-22.09h-35.46
	C168.32,324,164.29,319.97,164.29,315z"/>
<path class="st2" d="M453.55,245.93c-11.15-50.14-55.86-87.64-109.35-87.64c-44.16,0-82.34,25.56-100.59,62.68
	c-18.9-14.55-42.57-23.22-68.27-23.22c-61.88,0-112.05,50.17-112.05,112.05s50.17,112.05,112.05,112.05
	c34.18,0,64.76-15.32,85.32-39.45c0,0,181.91,0,182.18,0c37.91,0,68.65-30.74,68.65-68.65
	C511.49,279.47,486.38,251.07,453.55,245.93z M405.75,295.59v4.73v12.5c0,6.17-5,11.17-11.17,11.17H251.35
	c-6.67,35.92-38.15,63.13-76,63.13c-42.71,0-77.33-34.62-77.33-77.33c0-42.71,34.62-77.33,77.33-77.33c37.85,0,69.33,27.21,76,63.13
	h80.23v-42c0-4.69,3.81-8.5,8.5-8.5h9.83c4.69,0,8.5,3.81,8.5,8.5v42h20.52V258.5c0-7.41,6.01-13.41,13.41-13.41l0,0
	c7.41,0,13.41,6.01,13.41,13.41V295.59z"/>
<path class="st2" d="M175.34,372.92c-34.86,0-63.13-28.26-63.13-63.13c0-34.86,28.26-63.13,63.13-63.13
	c29.98,0,55.06,20.9,61.5,48.92h14.5c-6.67-35.92-38.15-63.13-76-63.13c-42.71,0-77.33,34.62-77.33,77.33
	c0,42.71,34.62,77.33,77.33,77.33c37.85,0,69.33-27.21,76-63.13h-14.5C230.4,352.02,205.32,372.92,175.34,372.92z"/>
<path class="st2" d="M251.35,295.59h-14.5c1.05,4.57,1.62,9.32,1.62,14.2s-0.57,9.64-1.62,14.2h14.5c0.86-4.61,1.32-9.35,1.32-14.2
	S252.2,300.2,251.35,295.59z"/>
<path class="st3" d="M236.84,295.59c-6.45-28.02-31.52-48.92-61.5-48.92c-34.86,0-63.13,28.26-63.13,63.13s28.26,63.13,63.13,63.13
	c29.98,0,55.06-20.9,61.5-48.92c1.05-4.57,1.62-9.32,1.62-14.2S237.89,300.16,236.84,295.59z M223.7,316.48
	c-1.21,0.76-2.64,1.2-4.17,1.2c-4.36,0-7.89-3.53-7.89-7.89s3.53-7.89,7.89-7.89c1.17,0,2.28,0.26,3.28,0.72
	c2.72,1.25,4.61,3.98,4.61,7.17C227.42,312.62,225.93,315.09,223.7,316.48z M175.34,346.09c-20.05,0-36.3-16.25-36.3-36.3
	s16.25-36.3,36.3-36.3c15.01,0,27.88,9.11,33.41,22.09h-35.46c-4.97,0-9,4.03-9,9V315c0,4.97,4.03,9,9,9h35.46
	C203.22,336.98,190.35,346.09,175.34,346.09z"/>
<path class="st3" d="M392.34,245.09c-7.41,0-13.41,6.01-13.41,13.41v37.09h-20.52v-42c0-4.69-3.81-8.5-8.5-8.5h-9.83
	c-4.69,0-8.5,3.81-8.5,8.5v42h-80.23c0.86,4.61,1.32,9.35,1.32,14.2s-0.47,9.6-1.32,14.2h143.24c6.17,0,11.17-5,11.17-11.17v-12.5
	v-4.73V258.5C405.75,251.1,399.74,245.09,392.34,245.09z"/>
<path class="st2" d="M211.64,309.79c0,4.36,3.53,7.89,7.89,7.89c1.53,0,2.96-0.44,4.17-1.2c0.01-0.04,0.02-0.08,0.03-0.13
	c0.11-0.57,0.2-1.15,0.27-1.73c0.02-0.15,0.03-0.31,0.05-0.46c0.05-0.45,0.08-0.9,0.1-1.35c0.01-0.17,0.02-0.34,0.02-0.51
	c0.02-0.59,0.02-1.19-0.01-1.79c-0.04-0.94-0.13-1.87-0.25-2.8c-0.05-0.37-0.13-0.73-0.19-1.09c-0.09-0.54-0.18-1.08-0.29-1.61
	c-0.1-0.47-0.23-0.93-0.36-1.39c-0.09-0.33-0.18-0.67-0.28-1c-1-0.46-2.11-0.72-3.28-0.72C215.17,301.9,211.64,305.44,211.64,309.79
	z"/>
<path class="st2" d="M223.44,305c0.12,0.53,0.2,1.07,0.29,1.61c0.06,0.36,0.14,0.72,0.19,1.09c0.12,0.92,0.21,1.85,0.25,2.8
	c0.03,0.6,0.02,1.2,0.01,1.79c-0.01,0.17-0.01,0.34-0.02,0.51c-0.02,0.45-0.06,0.9-0.1,1.35c-0.02,0.15-0.03,0.31-0.05,0.46
	c-0.07,0.58-0.16,1.16-0.27,1.73c-0.01,0.04-0.02,0.08-0.03,0.13c2.23-1.39,3.72-3.86,3.72-6.69c0-3.19-1.89-5.93-4.61-7.17
	c0.1,0.33,0.19,0.66,0.28,1C223.21,304.08,223.34,304.54,223.44,305z"/>
<polygon class="st4" points="654.42,494.38 658.48,504.2 662.64,494.38 669.41,494.38 661.59,509.57 661.59,517.08 655.38,517.08 
	655.38,509.5 647.68,494.38 "/>
<path class="st4" d="M679.62,508.68c0,1.13,0.27,2.01,0.83,2.65c0.56,0.64,1.27,0.96,2.15,0.96c0.87,0,1.58-0.32,2.13-0.96
	c0.56-0.64,0.84-1.52,0.84-2.65c0-1.13-0.28-2.02-0.84-2.65c-0.55-0.64-1.26-0.96-2.13-0.96c-0.88,0-1.59,0.32-2.15,0.96
	C679.89,506.66,679.62,507.54,679.62,508.68z M682.59,517.4c-1.52,0-2.85-0.24-3.99-0.71c-1.14-0.48-2.1-1.12-2.88-1.92
	c-0.78-0.8-1.36-1.73-1.76-2.79c-0.39-1.06-0.59-2.16-0.59-3.3c0-1.15,0.19-2.25,0.59-3.3c0.4-1.06,0.98-1.98,1.76-2.79
	c0.78-0.8,1.74-1.44,2.88-1.92c1.14-0.48,2.47-0.72,3.99-0.72c1.49,0,2.81,0.24,3.96,0.72c1.15,0.48,2.12,1.12,2.89,1.92
	c0.78,0.8,1.37,1.73,1.76,2.79c0.4,1.05,0.6,2.15,0.6,3.3c0,1.15-0.2,2.25-0.6,3.3c-0.39,1.06-0.98,1.99-1.76,2.79
	c-0.78,0.8-1.74,1.44-2.89,1.92C685.4,517.16,684.09,517.4,682.59,517.4z"/>
<path class="st4" d="M705.63,517.4c-1.7,0-3-0.51-3.9-1.55c-0.9-1.04-1.35-2.55-1.35-4.52v-11.07h6.07v9.69
	c0,0.74,0.17,1.32,0.5,1.73c0.33,0.4,0.78,0.61,1.35,0.61c0.47,0,0.95-0.11,1.44-0.32c0.49-0.22,0.98-0.69,1.47-1.41v-10.3h6.08
	v10.1c0,0.58,0.08,0.98,0.25,1.2c0.17,0.23,0.47,0.36,0.89,0.4v5.11c-1.04,0.21-1.9,0.32-2.55,0.32c-2.07,0-3.26-0.78-3.58-2.33
	l-0.12-0.6c-0.79,1.04-1.73,1.8-2.81,2.26C708.28,517.17,707.03,517.4,705.63,517.4z"/>
<path class="st4" d="M739.01,505.45c-1.17,0-2.24,0.13-3.2,0.38c-0.96,0.25-1.68,0.68-2.14,1.28v9.97h-6.07v-16.82h5.56v3.2
	c0.6-1.13,1.34-1.99,2.22-2.6c0.88-0.61,1.84-0.91,2.86-0.91c0.4,0,0.66,0.01,0.77,0.04V505.45z"/>
<polygon class="st4" points="777.74,499.82 771.21,499.82 771.21,517.08 764.99,517.08 764.99,499.82 758.43,499.82 758.43,494.38 
	777.74,494.38 "/>
<path class="st4" d="M797.23,505.45c-1.17,0-2.24,0.13-3.2,0.38c-0.96,0.25-1.68,0.68-2.14,1.28v9.97h-6.07v-16.82h5.56v3.2
	c0.6-1.13,1.34-1.99,2.22-2.6c0.88-0.61,1.84-0.91,2.86-0.91c0.4,0,0.66,0.01,0.77,0.04V505.45z"/>
<path class="st4" d="M810.77,517.4c-1.7,0-3-0.51-3.9-1.55c-0.9-1.04-1.35-2.55-1.35-4.52v-11.07h6.07v9.69
	c0,0.74,0.17,1.32,0.5,1.73c0.33,0.4,0.78,0.61,1.35,0.61c0.47,0,0.95-0.11,1.44-0.32c0.49-0.22,0.98-0.69,1.47-1.41v-10.3h6.08
	v10.1c0,0.58,0.08,0.98,0.25,1.2c0.17,0.23,0.47,0.36,0.89,0.4v5.11c-1.04,0.21-1.9,0.32-2.55,0.32c-2.07,0-3.26-0.78-3.58-2.33
	l-0.12-0.6c-0.79,1.04-1.73,1.8-2.81,2.26C813.42,517.17,812.17,517.4,810.77,517.4z"/>
<path class="st4" d="M839.67,517.4c-1.47,0-2.92-0.24-4.32-0.71c-1.4-0.48-2.59-1.18-3.57-2.1l2.07-3.64
	c1.04,0.71,2.05,1.25,3.02,1.63c0.97,0.38,1.87,0.58,2.68,0.58c0.85,0,1.28-0.27,1.28-0.81c0-0.29-0.17-0.55-0.5-0.76
	c-0.33-0.22-0.97-0.46-1.93-0.74c-1.2-0.34-2.2-0.67-3-1c-0.79-0.33-1.45-0.69-1.95-1.08c-0.5-0.38-0.86-0.81-1.07-1.28
	c-0.21-0.47-0.32-1.03-0.32-1.66c0-0.86,0.17-1.65,0.51-2.37c0.34-0.72,0.81-1.35,1.42-1.88c0.61-0.53,1.33-0.94,2.17-1.23
	c0.85-0.29,1.77-0.43,2.77-0.43c1.23,0,2.41,0.16,3.53,0.48c1.12,0.32,2.24,0.97,3.37,1.95l-2.3,3.64
	c-1.04-0.68-1.92-1.16-2.62-1.45c-0.71-0.29-1.37-0.43-1.99-0.43c-0.36,0-0.66,0.07-0.89,0.21c-0.23,0.13-0.35,0.35-0.35,0.65
	c0,0.32,0.17,0.58,0.51,0.79c0.34,0.2,1.01,0.43,2.01,0.68c1.22,0.32,2.24,0.66,3.07,1.01c0.83,0.35,1.5,0.74,2,1.15
	c0.5,0.41,0.86,0.88,1.07,1.4c0.22,0.52,0.33,1.12,0.33,1.81c0,0.87-0.16,1.65-0.48,2.33c-0.32,0.68-0.79,1.27-1.39,1.76
	c-0.61,0.49-1.35,0.86-2.21,1.11C841.73,517.27,840.76,517.4,839.67,517.4z"/>
<path class="st4" d="M866.99,516.15c-0.85,0.37-1.76,0.67-2.74,0.92c-0.97,0.24-1.92,0.37-2.86,0.37c-0.68,0-1.33-0.09-1.95-0.26
	c-0.61-0.17-1.15-0.45-1.61-0.83c-0.46-0.38-0.82-0.88-1.09-1.5c-0.26-0.62-0.39-1.39-0.39-2.32v-7.7h-2.08v-4.57h2.08v-5.27h6.07
	v5.27h3.29v4.57h-3.29v5.56c0,0.56,0.12,0.95,0.35,1.17c0.23,0.23,0.56,0.34,0.96,0.34c0.3,0,0.64-0.05,1.03-0.14
	c0.38-0.1,0.77-0.23,1.15-0.4L866.99,516.15z"/>
<path class="st4" d="M886.08,506.88c-0.1-0.81-0.4-1.44-0.89-1.91c-0.49-0.47-1.11-0.71-1.88-0.71s-1.4,0.24-1.89,0.71
	c-0.49,0.47-0.78,1.1-0.89,1.91H886.08z M883.4,517.4c-1.47,0-2.79-0.23-3.94-0.68c-1.15-0.46-2.11-1.09-2.89-1.87
	c-0.78-0.79-1.37-1.69-1.78-2.72c-0.4-1.02-0.61-2.1-0.61-3.23c0-1.21,0.19-2.37,0.59-3.45c0.4-1.09,0.98-2.04,1.76-2.84
	c0.78-0.81,1.74-1.46,2.88-1.94c1.14-0.48,2.47-0.72,3.99-0.72c1.49,0,2.81,0.24,3.96,0.72c1.15,0.48,2.12,1.12,2.89,1.92
	c0.78,0.8,1.37,1.73,1.76,2.79c0.4,1.05,0.6,2.15,0.6,3.3c0,0.32-0.02,0.65-0.05,0.98c-0.03,0.33-0.07,0.62-0.11,0.87h-11.8
	c0.06,0.9,0.39,1.54,0.99,1.94c0.6,0.39,1.25,0.59,1.96,0.59c0.66,0,1.28-0.15,1.86-0.45c0.59-0.3,0.98-0.72,1.17-1.25l5.15,1.47
	c-0.69,1.34-1.74,2.44-3.15,3.29C887.21,516.97,885.47,517.4,883.4,517.4z"/>
<path class="st4" d="M909.92,512.29c1.11,0,2.07-0.58,2.87-1.73v-3.01c-0.3-0.74-0.73-1.34-1.31-1.8c-0.58-0.46-1.19-0.69-1.82-0.69
	c-0.45,0-0.86,0.1-1.23,0.29c-0.37,0.19-0.69,0.46-0.96,0.8c-0.26,0.34-0.48,0.74-0.63,1.18c-0.16,0.45-0.24,0.93-0.24,1.44
	c0,1.06,0.3,1.92,0.91,2.55C908.12,511.97,908.92,512.29,909.92,512.29z M908.26,517.4c-1.15,0-2.22-0.21-3.19-0.63
	c-0.97-0.43-1.8-1.03-2.51-1.81c-0.7-0.78-1.25-1.71-1.64-2.79c-0.39-1.08-0.59-2.25-0.59-3.53c0-1.23,0.18-2.38,0.54-3.45
	c0.36-1.06,0.87-1.98,1.52-2.76c0.65-0.78,1.42-1.39,2.32-1.82c0.9-0.44,1.89-0.66,2.98-0.66c1.09,0,2.08,0.25,2.99,0.74
	c0.91,0.49,1.61,1.18,2.09,2.07v-9.01h6.07v16.62c0,0.58,0.09,0.98,0.26,1.2c0.17,0.23,0.47,0.36,0.89,0.4v5.11
	c-1.04,0.21-1.9,0.32-2.55,0.32c-2.07,0-3.26-0.78-3.58-2.33l-0.12-0.6c-0.58,1.03-1.35,1.77-2.33,2.24
	C910.41,517.16,909.37,517.4,908.26,517.4z"/>
<path class="st4" d="M956.95,501.8c-0.64-0.38-1.3-0.72-1.98-1.02c-0.58-0.25-1.22-0.49-1.94-0.72c-0.71-0.22-1.41-0.34-2.09-0.34
	c-0.55,0-0.99,0.09-1.33,0.26c-0.33,0.17-0.49,0.45-0.49,0.86c0,0.3,0.1,0.55,0.29,0.74c0.19,0.19,0.47,0.37,0.83,0.53
	c0.37,0.16,0.81,0.31,1.33,0.46c0.52,0.15,1.12,0.33,1.78,0.55c1.04,0.32,1.98,0.67,2.82,1.06c0.85,0.38,1.57,0.83,2.16,1.35
	c0.59,0.52,1.05,1.15,1.37,1.9c0.32,0.74,0.48,1.65,0.48,2.72c0,1.36-0.25,2.51-0.75,3.44c-0.5,0.92-1.16,1.66-1.98,2.22
	c-0.82,0.55-1.75,0.95-2.79,1.2c-1.03,0.24-2.07,0.36-3.11,0.36c-0.83,0-1.69-0.06-2.56-0.19c-0.87-0.13-1.74-0.31-2.6-0.54
	c-0.86-0.24-1.7-0.51-2.5-0.84c-0.79-0.32-1.53-0.68-2.22-1.09l2.69-5.47c0.74,0.47,1.52,0.88,2.33,1.24
	c0.68,0.32,1.45,0.61,2.31,0.86c0.86,0.26,1.74,0.38,2.64,0.38c0.68,0,1.15-0.09,1.41-0.27c0.27-0.18,0.4-0.42,0.4-0.72
	c0-0.32-0.13-0.59-0.4-0.82c-0.26-0.22-0.63-0.42-1.09-0.59c-0.47-0.17-1.01-0.34-1.61-0.51c-0.61-0.17-1.26-0.38-1.94-0.61
	c-1-0.34-1.86-0.7-2.58-1.09c-0.72-0.4-1.32-0.85-1.8-1.34c-0.47-0.5-0.81-1.08-1.04-1.71c-0.23-0.64-0.34-1.38-0.34-2.21
	c0-1.25,0.23-2.36,0.69-3.32c0.46-0.96,1.09-1.76,1.87-2.4c0.79-0.64,1.69-1.12,2.7-1.45c1.01-0.33,2.08-0.5,3.21-0.5
	c0.83,0,1.64,0.08,2.43,0.24c0.79,0.16,1.55,0.37,2.29,0.61c0.74,0.24,1.42,0.51,2.07,0.8c0.64,0.28,1.21,0.55,1.73,0.81
	L956.95,501.8z"/>
<path class="st4" d="M980.11,506.88c-0.1-0.81-0.4-1.44-0.89-1.91c-0.49-0.47-1.11-0.71-1.88-0.71s-1.4,0.24-1.89,0.71
	c-0.49,0.47-0.79,1.1-0.89,1.91H980.11z M977.43,517.4c-1.47,0-2.79-0.23-3.94-0.68c-1.15-0.46-2.11-1.09-2.89-1.87
	c-0.78-0.79-1.37-1.69-1.78-2.72c-0.4-1.02-0.61-2.1-0.61-3.23c0-1.21,0.19-2.37,0.59-3.45c0.4-1.09,0.98-2.04,1.76-2.84
	c0.78-0.81,1.74-1.46,2.88-1.94c1.14-0.48,2.47-0.72,3.99-0.72c1.49,0,2.81,0.24,3.96,0.72c1.15,0.48,2.12,1.12,2.89,1.92
	c0.78,0.8,1.37,1.73,1.76,2.79c0.4,1.05,0.59,2.15,0.59,3.3c0,0.32-0.02,0.65-0.05,0.98c-0.03,0.33-0.07,0.62-0.11,0.87h-11.8
	c0.06,0.9,0.39,1.54,0.99,1.94c0.6,0.39,1.25,0.59,1.96,0.59c0.66,0,1.28-0.15,1.86-0.45c0.59-0.3,0.98-0.72,1.17-1.25l5.15,1.47
	c-0.69,1.34-1.74,2.44-3.15,3.29C981.24,516.97,979.5,517.4,977.43,517.4z"/>
<path class="st4" d="M1006.67,505.45c-1.17,0-2.24,0.13-3.2,0.38c-0.96,0.25-1.68,0.68-2.14,1.28v9.97h-6.07v-16.82h5.56v3.2
	c0.6-1.13,1.33-1.99,2.22-2.6c0.88-0.61,1.84-0.91,2.86-0.91c0.4,0,0.66,0.01,0.77,0.04V505.45z"/>
<polygon class="st4" points="1019.28,517.08 1013.62,500.26 1019.85,500.26 1022.86,512.32 1025.89,500.26 1031.55,500.26 
	1025.89,517.08 "/>
<path class="st4" d="M1039.72,498.86v-5.11h6.07v5.11H1039.72z M1039.72,517.08v-16.82h6.07v16.82H1039.72z"/>
<path class="st4" d="M1054.43,508.68c0-1.15,0.2-2.25,0.61-3.3c0.41-1.06,1-1.98,1.78-2.79c0.78-0.8,1.74-1.44,2.89-1.92
	c1.15-0.48,2.47-0.72,3.97-0.72c2.05,0,3.76,0.43,5.13,1.28c1.38,0.85,2.4,1.95,3.08,3.29l-5.91,1.79
	c-0.58-0.83-1.35-1.24-2.33-1.24c-0.83,0-1.54,0.31-2.11,0.94c-0.58,0.63-0.86,1.52-0.86,2.67c0,1.15,0.29,2.04,0.86,2.67
	c0.58,0.63,1.28,0.94,2.11,0.94c0.98,0,1.76-0.42,2.33-1.25l5.91,1.79c-0.68,1.34-1.71,2.44-3.08,3.29
	c-1.37,0.85-3.08,1.28-5.13,1.28c-1.49,0-2.81-0.24-3.97-0.71c-1.15-0.48-2.11-1.12-2.89-1.92c-0.78-0.8-1.37-1.73-1.78-2.79
	C1054.64,510.92,1054.43,509.82,1054.43,508.68z"/>
<path class="st4" d="M1091.17,506.88c-0.1-0.81-0.4-1.44-0.89-1.91c-0.49-0.47-1.11-0.71-1.88-0.71s-1.4,0.24-1.89,0.71
	c-0.49,0.47-0.79,1.1-0.89,1.91H1091.17z M1088.49,517.4c-1.47,0-2.79-0.23-3.94-0.68c-1.15-0.46-2.11-1.09-2.89-1.87
	c-0.78-0.79-1.37-1.69-1.78-2.72c-0.4-1.02-0.61-2.1-0.61-3.23c0-1.21,0.19-2.37,0.59-3.45c0.4-1.09,0.98-2.04,1.76-2.84
	c0.78-0.81,1.74-1.46,2.88-1.94c1.14-0.48,2.47-0.72,3.99-0.72c1.49,0,2.81,0.24,3.96,0.72c1.15,0.48,2.12,1.12,2.89,1.92
	c0.78,0.8,1.37,1.73,1.76,2.79c0.4,1.05,0.6,2.15,0.6,3.3c0,0.32-0.02,0.65-0.05,0.98c-0.03,0.33-0.07,0.62-0.11,0.87h-11.8
	c0.06,0.9,0.39,1.54,0.99,1.94c0.6,0.39,1.25,0.59,1.96,0.59c0.66,0,1.28-0.15,1.86-0.45c0.59-0.3,0.98-0.72,1.17-1.25l5.15,1.47
	c-0.69,1.34-1.74,2.44-3.15,3.29C1092.3,516.97,1090.56,517.4,1088.49,517.4z"/>
<path class="st4" d="M1126.66,504.68h3.29c0.38,0,0.74-0.18,1.07-0.53c0.33-0.35,0.5-0.98,0.5-1.9c0-0.94-0.19-1.58-0.58-1.92
	c-0.38-0.34-0.77-0.51-1.15-0.51h-3.13V504.68z M1120.43,517.08v-22.7h9.78c1.11,0,2.13,0.23,3.06,0.69
	c0.94,0.46,1.75,1.05,2.42,1.79c0.67,0.74,1.2,1.58,1.58,2.53c0.38,0.95,0.58,1.9,0.58,2.86c0,1-0.18,1.97-0.55,2.92
	c-0.36,0.95-0.86,1.79-1.52,2.53c-0.65,0.74-1.44,1.32-2.36,1.76c-0.93,0.44-1.95,0.65-3.05,0.65h-3.71v6.97H1120.43z"/>
<path class="st4" d="M1157.97,505.45c-1.17,0-2.24,0.13-3.2,0.38c-0.96,0.25-1.68,0.68-2.14,1.28v9.97h-6.07v-16.82h5.56v3.2
	c0.6-1.13,1.34-1.99,2.22-2.6c0.88-0.61,1.84-0.91,2.86-0.91c0.4,0,0.66,0.01,0.77,0.04V505.45z"/>
<path class="st4" d="M1171.73,508.68c0,1.13,0.27,2.01,0.83,2.65c0.56,0.64,1.27,0.96,2.15,0.96c0.87,0,1.58-0.32,2.13-0.96
	c0.56-0.64,0.84-1.52,0.84-2.65c0-1.13-0.28-2.02-0.84-2.65c-0.55-0.64-1.26-0.96-2.13-0.96c-0.88,0-1.59,0.32-2.15,0.96
	C1172,506.66,1171.73,507.54,1171.73,508.68z M1174.71,517.4c-1.52,0-2.85-0.24-3.99-0.71c-1.14-0.48-2.1-1.12-2.88-1.92
	c-0.78-0.8-1.36-1.73-1.76-2.79c-0.39-1.06-0.59-2.16-0.59-3.3c0-1.15,0.19-2.25,0.59-3.3c0.4-1.06,0.98-1.98,1.76-2.79
	c0.78-0.8,1.74-1.44,2.88-1.92c1.14-0.48,2.47-0.72,3.99-0.72c1.49,0,2.81,0.24,3.96,0.72c1.15,0.48,2.12,1.12,2.89,1.92
	c0.78,0.8,1.37,1.73,1.76,2.79c0.4,1.05,0.59,2.15,0.59,3.3c0,1.15-0.2,2.25-0.59,3.3c-0.39,1.06-0.98,1.99-1.76,2.79
	c-0.78,0.8-1.74,1.44-2.89,1.92C1177.52,517.16,1176.2,517.4,1174.71,517.4z"/>
<polygon class="st4" points="1196.24,517.08 1190.59,500.26 1196.82,500.26 1199.83,512.32 1202.86,500.26 1208.52,500.26 
	1202.86,517.08 "/>
<path class="st4" d="M1216.69,498.86v-5.11h6.07v5.11H1216.69z M1216.69,517.08v-16.82h6.07v16.82H1216.69z"/>
<path class="st4" d="M1241.03,512.29c1.11,0,2.07-0.58,2.87-1.73v-3.01c-0.3-0.74-0.73-1.34-1.31-1.8
	c-0.58-0.46-1.19-0.69-1.83-0.69c-0.45,0-0.86,0.1-1.23,0.29c-0.37,0.19-0.69,0.46-0.96,0.8c-0.26,0.34-0.48,0.74-0.63,1.18
	c-0.16,0.45-0.24,0.93-0.24,1.44c0,1.06,0.3,1.92,0.91,2.55C1239.23,511.97,1240.03,512.29,1241.03,512.29z M1239.37,517.4
	c-1.15,0-2.22-0.21-3.19-0.63c-0.97-0.43-1.8-1.03-2.51-1.81c-0.7-0.78-1.25-1.71-1.64-2.79c-0.39-1.08-0.59-2.25-0.59-3.53
	c0-1.23,0.18-2.38,0.54-3.45c0.36-1.06,0.87-1.98,1.52-2.76c0.65-0.78,1.42-1.39,2.32-1.82c0.9-0.44,1.89-0.66,2.98-0.66
	c1.09,0,2.08,0.25,2.99,0.74c0.91,0.49,1.61,1.18,2.09,2.07v-9.01h6.07v16.62c0,0.58,0.09,0.98,0.26,1.2
	c0.17,0.23,0.47,0.36,0.89,0.4v5.11c-1.04,0.21-1.9,0.32-2.55,0.32c-2.07,0-3.26-0.78-3.58-2.33l-0.12-0.6
	c-0.58,1.03-1.35,1.77-2.33,2.24C1241.52,517.16,1240.48,517.4,1239.37,517.4z"/>
<path class="st4" d="M1271.17,506.88c-0.1-0.81-0.4-1.44-0.89-1.91c-0.49-0.47-1.11-0.71-1.88-0.71s-1.4,0.24-1.89,0.71
	c-0.49,0.47-0.79,1.1-0.89,1.91H1271.17z M1268.49,517.4c-1.47,0-2.79-0.23-3.94-0.68c-1.15-0.46-2.11-1.09-2.89-1.87
	c-0.78-0.79-1.37-1.69-1.78-2.72c-0.4-1.02-0.6-2.1-0.6-3.23c0-1.21,0.19-2.37,0.59-3.45c0.4-1.09,0.98-2.04,1.76-2.84
	c0.78-0.81,1.74-1.46,2.88-1.94c1.14-0.48,2.47-0.72,3.99-0.72c1.49,0,2.81,0.24,3.96,0.72c1.15,0.48,2.12,1.12,2.89,1.92
	c0.78,0.8,1.37,1.73,1.76,2.79c0.4,1.05,0.6,2.15,0.6,3.3c0,0.32-0.02,0.65-0.05,0.98c-0.03,0.33-0.07,0.62-0.11,0.87h-11.8
	c0.06,0.9,0.39,1.54,0.99,1.94c0.6,0.39,1.25,0.59,1.96,0.59c0.66,0,1.28-0.15,1.86-0.45c0.59-0.3,0.98-0.72,1.17-1.25l5.15,1.47
	c-0.69,1.34-1.74,2.44-3.15,3.29C1272.3,516.97,1270.55,517.4,1268.49,517.4z"/>
<path class="st4" d="M1297.72,505.45c-1.17,0-2.24,0.13-3.2,0.38c-0.96,0.25-1.68,0.68-2.14,1.28v9.97h-6.07v-16.82h5.56v3.2
	c0.6-1.13,1.34-1.99,2.22-2.6c0.88-0.61,1.84-0.91,2.86-0.91c0.4,0,0.66,0.01,0.77,0.04V505.45z"/>
<path class="st3" d="M1042.06,279.44c-1.67-1.67-4.7-3.93-9.11-6.79c-4.41-2.85-9.76-5.65-16.07-8.38
	c-6.31-2.74-13.15-5.06-20.54-6.96c-7.38-1.91-14.89-2.86-22.5-2.86c-13.57,0-23.69,2.5-30.35,7.5c-6.67,4.99-10,12.02-10,21.06
	c0,5.24,1.25,9.59,3.75,13.04c2.5,3.45,6.13,6.49,10.89,9.11c4.76,2.62,10.78,5,18.04,7.15c7.26,2.14,15.65,4.4,25.18,6.78
	c12.38,3.34,23.63,6.91,33.75,10.72c10.12,3.8,18.69,8.57,25.71,14.28c7.02,5.71,12.44,12.56,16.25,20.54
	c3.81,7.98,5.72,17.8,5.72,29.47c0,13.57-2.56,25.18-7.68,34.82c-5.12,9.64-12.02,17.44-20.71,23.4
	c-8.69,5.95-18.69,10.29-30.01,13.03c-11.31,2.73-23.15,4.1-35.53,4.1c-19.05,0-37.86-2.85-56.44-8.57
	c-18.57-5.71-35.24-13.81-49.99-24.28l21.78-42.5c2.14,2.14,6.02,4.94,11.61,8.4c5.59,3.45,12.2,6.9,19.82,10.35
	c7.62,3.45,16.07,6.37,25.36,8.75c9.29,2.38,18.82,3.57,28.58,3.57c27.14,0,40.72-8.69,40.72-26.08c0-5.47-1.55-10.12-4.65-13.93
	c-3.09-3.81-7.5-7.14-13.21-10c-5.71-2.85-12.62-5.47-20.72-7.86c-8.09-2.38-17.14-5-27.14-7.86c-12.14-3.34-22.68-6.97-31.61-10.89
	c-8.93-3.93-16.37-8.57-22.32-13.93c-5.95-5.36-10.41-11.55-13.39-18.58c-2.98-7.02-4.47-15.42-4.47-25.18
	c0-12.85,2.38-24.28,7.15-34.28c4.76-10,11.37-18.34,19.83-25s18.27-11.72,29.46-15.18c11.19-3.46,23.22-5.19,36.08-5.19
	c17.86,0,34.29,2.8,49.28,8.39c15,5.6,28.1,12.21,39.3,19.83L1042.06,279.44z M859.49,256.23h-81.07v210.36h-48.94V256.23h-81.07
	V213h211.07V256.23z"/>
<path class="st3" d="M1159.33,338.37h57.14c9.05,0,16.61-3.69,22.68-11.07c6.08-7.38,9.12-17.39,9.12-30.01
	c0-6.43-0.96-12.2-2.86-17.32c-1.9-5.12-4.4-9.47-7.5-13.04c-3.09-3.57-6.72-6.25-10.89-8.03c-4.16-1.79-8.39-2.68-12.68-2.68h-55
	V338.37z M1110.04,466.59V213h107.5c11.67,0,22.44,2.44,32.32,7.33c9.88,4.88,18.39,11.31,25.53,19.29
	c7.15,7.97,12.74,17.02,16.79,27.14c4.05,10.12,6.08,20.3,6.08,30.53c0,10.71-1.91,21.13-5.72,31.26
	c-3.81,10.12-9.17,19.1-16.08,26.96c-6.9,7.86-15.24,14.17-25,18.93c-9.76,4.76-20.47,7.14-32.14,7.14h-60v85.01H1110.04z"/>
<polygon class="st4" points="719.24,96.53 694.91,96.53 694.91,160.93 671.65,160.93 671.65,96.53 647.21,96.53 647.21,76.26 
	719.24,76.26 "/>
<path class="st4" d="M767.29,117.52c-4.37,0-8.34,0.48-11.92,1.43c-3.58,0.96-6.24,2.54-7.99,4.76v37.21h-22.66V98.2h20.75v11.93
	c2.23-4.21,4.99-7.45,8.29-9.72c3.3-2.27,6.86-3.4,10.67-3.4c1.51,0,2.46,0.04,2.86,0.11V117.52z"/>
<path class="st4" d="M798.97,145.91c1.35,0,2.74-0.22,4.17-0.65c1.43-0.44,2.71-1.02,3.82-1.74c0.88-0.63,1.59-1.33,2.14-2.08
	c0.56-0.75,0.84-1.53,0.84-2.32v-4.65c-1.35-0.48-2.82-0.88-4.41-1.19c-1.59-0.32-3.02-0.48-4.29-0.48c-2.78,0-5.09,0.68-6.92,2.03
	c-1.83,1.35-2.75,3.06-2.75,5.13c0,1.75,0.69,3.18,2.08,4.29C795.05,145.35,796.82,145.91,798.97,145.91z M792.17,162.12
	c-3.1,0-6-0.52-8.7-1.55c-2.7-1.04-5.03-2.45-6.97-4.24c-1.95-1.79-3.48-3.91-4.59-6.38c-1.11-2.46-1.67-5.13-1.67-7.99
	c0-3.18,0.67-6.08,2.03-8.7c1.35-2.62,3.22-4.89,5.6-6.8c2.39-1.91,5.23-3.38,8.53-4.41c3.3-1.04,6.94-1.56,10.91-1.56
	c5.09,0,9.3,0.79,12.64,2.38v-1.9c0-2.94-0.86-5.13-2.56-6.56c-1.7-1.43-4.46-2.15-8.28-2.15c-3.58,0-6.88,0.58-9.9,1.73
	c-3.02,1.15-6.2,2.84-9.54,5.07L773.09,105c8.27-5.33,17.69-7.99,28.26-7.99c10.02,0,17.73,2.23,23.14,6.69
	c5.4,4.45,8.11,11.13,8.11,20.03v12.17c0,2.15,0.32,3.64,0.95,4.48c0.64,0.83,1.75,1.33,3.34,1.48v19.09
	c-1.83,0.4-3.55,0.69-5.19,0.89c-1.63,0.2-3.08,0.3-4.35,0.3c-4.05,0-7.13-0.74-9.24-2.2c-2.11-1.47-3.48-3.64-4.11-6.5l-0.48-2.27
	c-2.79,3.58-6.01,6.31-9.66,8.17C800.2,161.19,796.3,162.12,792.17,162.12z"/>
<path class="st4" d="M908.36,160.93H885.7v-35.3c0-3.1-0.7-5.34-2.09-6.73c-1.39-1.39-3-2.09-4.82-2.09c-1.91,0-3.94,0.84-6.09,2.51
	c-2.15,1.67-3.73,3.82-4.76,6.44v35.18h-22.66V98.2h20.39v9.31c2.23-3.42,5.35-6.02,9.37-7.81c4.01-1.79,8.76-2.69,14.24-2.69
	c4.3,0,7.7,0.78,10.2,2.32c2.5,1.55,4.41,3.48,5.73,5.78c1.31,2.31,2.17,4.77,2.56,7.4c0.4,2.63,0.6,5.01,0.6,7.16V160.93z"/>
<path class="st4" d="M945.29,162.12c-5.48,0-10.85-0.89-16.1-2.68c-5.24-1.79-9.7-4.39-13.36-7.81l7.76-13.6
	c3.89,2.63,7.65,4.66,11.27,6.09c3.62,1.43,6.94,2.14,9.96,2.14c3.17,0,4.76-0.99,4.76-2.99c0-1.11-0.62-2.06-1.85-2.85
	c-1.23-0.8-3.63-1.71-7.2-2.75c-4.46-1.27-8.18-2.53-11.16-3.76c-2.98-1.23-5.4-2.57-7.27-4c-1.86-1.43-3.2-3.03-4-4.77
	c-0.79-1.75-1.19-3.81-1.19-6.2c0-3.18,0.64-6.12,1.91-8.83c1.27-2.7,3.04-5.05,5.3-7.03c2.27-1.99,4.97-3.52,8.11-4.59
	c3.14-1.08,6.58-1.61,10.33-1.61c4.61,0,9,0.6,13.17,1.79c4.17,1.19,8.37,3.62,12.59,7.27l-8.59,13.6c-3.9-2.55-7.16-4.36-9.79-5.43
	c-2.62-1.08-5.08-1.61-7.39-1.61c-1.35,0-2.47,0.26-3.34,0.78c-0.88,0.52-1.32,1.33-1.32,2.44c0,1.2,0.64,2.18,1.91,2.93
	c1.27,0.75,3.78,1.6,7.51,2.55c4.53,1.2,8.35,2.45,11.45,3.77c3.1,1.31,5.58,2.74,7.45,4.29c1.87,1.55,3.2,3.3,4,5.24
	c0.79,1.95,1.19,4.19,1.19,6.73c0,3.26-0.6,6.16-1.79,8.71c-1.19,2.54-2.92,4.73-5.19,6.56c-2.27,1.83-5.01,3.22-8.23,4.17
	C952.98,161.64,949.34,162.12,945.29,162.12z"/>
<path class="st4" d="M1058.98,103.92c-2.38-1.43-4.85-2.7-7.4-3.81c-2.15-0.95-4.55-1.85-7.21-2.68c-2.67-0.84-5.27-1.26-7.81-1.26
	c-2.07,0-3.72,0.32-4.96,0.96c-1.23,0.63-1.84,1.71-1.84,3.22c0,1.11,0.36,2.02,1.08,2.74c0.72,0.72,1.75,1.37,3.1,1.97
	c1.35,0.6,3,1.17,4.95,1.73c1.95,0.56,4.15,1.23,6.62,2.03c3.9,1.19,7.42,2.5,10.56,3.94c3.14,1.43,5.82,3.12,8.05,5.07
	c2.23,1.95,3.94,4.31,5.13,7.1c1.19,2.78,1.79,6.16,1.79,10.13c0,5.09-0.94,9.36-2.8,12.82c-1.86,3.46-4.33,6.22-7.39,8.29
	c-3.06,2.06-6.52,3.55-10.38,4.47c-3.86,0.91-7.73,1.37-11.62,1.37c-3.1,0-6.28-0.24-9.54-0.72c-3.26-0.47-6.5-1.15-9.72-2.02
	c-3.22-0.88-6.32-1.91-9.31-3.1c-2.98-1.2-5.74-2.55-8.29-4.06l10.02-20.39c2.79,1.75,5.69,3.3,8.71,4.65
	c2.54,1.2,5.42,2.27,8.65,3.23c3.22,0.96,6.5,1.43,9.84,1.43c2.55,0,4.32-0.34,5.31-1.02c0.99-0.68,1.49-1.57,1.49-2.68
	c0-1.2-0.5-2.21-1.49-3.04c-0.99-0.83-2.37-1.57-4.12-2.2c-1.75-0.64-3.76-1.28-6.02-1.91c-2.27-0.64-4.67-1.39-7.21-2.27
	c-3.73-1.27-6.95-2.64-9.66-4.11c-2.7-1.47-4.93-3.14-6.68-5.01c-1.75-1.87-3.04-4-3.88-6.38c-0.83-2.39-1.25-5.13-1.25-8.23
	c0-4.69,0.86-8.83,2.56-12.4c1.71-3.58,4.03-6.56,6.97-8.94c2.94-2.39,6.3-4.2,10.08-5.43c3.78-1.23,7.78-1.85,12-1.85
	c3.1,0,6.12,0.3,9.06,0.89c2.94,0.6,5.79,1.35,8.53,2.27c2.74,0.92,5.3,1.91,7.68,2.99c2.39,1.07,4.54,2.08,6.45,3.03
	L1058.98,103.92z"/>
<g>
	<defs>
		<rect id="SVGID_1_" x="1078.6" y="96.49" width="69.46" height="90.33"/>
	</defs>
	<clipPath id="SVGID_2_">
		<use xlink:href="#SVGID_1_"  style="overflow:visible;"/>
	</clipPath>
	<path class="st5" d="M1113.25,143.04c1.67,0,3.2-0.36,4.59-1.08c1.39-0.72,2.58-1.71,3.57-2.98c0.99-1.27,1.79-2.75,2.38-4.42
		c0.6-1.67,0.9-3.46,0.9-5.37c0-3.97-1.13-7.15-3.4-9.53c-2.27-2.39-5.27-3.58-9.01-3.58c-4.21,0-7.79,2.15-10.73,6.44v10.85
		c1.11,2.78,2.74,5.09,4.89,6.92C1108.59,142.13,1110.86,143.04,1113.25,143.04z M1121.12,162.12c-4.53,0-8.46-0.89-11.8-2.68
		c-3.34-1.79-5.92-4.39-7.75-7.81v34.7h-22.66V98.2h19.68v9.42c2.22-3.42,4.96-6.04,8.22-7.87c3.26-1.83,7.27-2.75,12.04-2.75
		c4.14,0,7.99,0.82,11.56,2.45c3.58,1.63,6.64,3.87,9.18,6.73c2.55,2.86,4.56,6.28,6.02,10.26c1.47,3.98,2.21,8.27,2.21,12.88
		c0,4.69-0.68,9.04-2.03,13.05c-1.35,4.02-3.22,7.5-5.61,10.44c-2.38,2.94-5.2,5.23-8.46,6.86
		C1128.47,161.31,1124.93,162.12,1121.12,162.12z"/>
</g>
<path class="st4" d="M1196.99,122.88c-0.4-3.02-1.51-5.41-3.34-7.16c-1.83-1.75-4.18-2.62-7.04-2.62s-5.21,0.87-7.04,2.62
	c-1.83,1.75-2.94,4.14-3.33,7.16H1196.99z M1186.97,162.12c-5.49,0-10.38-0.86-14.68-2.56c-4.29-1.71-7.89-4.03-10.79-6.97
	c-2.9-2.94-5.11-6.32-6.62-10.13c-1.51-3.82-2.27-7.83-2.27-12.05c0-4.53,0.73-8.83,2.2-12.88c1.47-4.06,3.66-7.6,6.56-10.61
	c2.91-3.02,6.49-5.43,10.74-7.21c4.25-1.79,9.2-2.69,14.85-2.69c5.56,0,10.49,0.9,14.78,2.69c4.3,1.79,7.9,4.17,10.8,7.16
	c2.9,2.98,5.09,6.44,6.56,10.37c1.47,3.93,2.21,8.05,2.21,12.34c0,1.19-0.06,2.41-0.18,3.64c-0.12,1.23-0.26,2.32-0.42,3.28h-44
	c0.24,3.34,1.46,5.74,3.69,7.21c2.23,1.47,4.65,2.21,7.28,2.21c2.46,0,4.79-0.56,6.97-1.67c2.19-1.11,3.64-2.66,4.36-4.65l19.2,5.48
	c-2.55,5.01-6.47,9.1-11.76,12.29C1201.18,160.53,1194.68,162.12,1186.97,162.12z"/>
<g>
	<defs>
		<rect id="SVGID_3_" x="1224.9" y="73.75" width="74.33" height="88.52"/>
	</defs>
	<clipPath id="SVGID_4_">
		<use xlink:href="#SVGID_3_"  style="overflow:visible;"/>
	</clipPath>
	<path class="st6" d="M1261.26,143.04c4.14,0,7.72-2.15,10.74-6.44v-11.21c-1.11-2.79-2.75-5.03-4.9-6.73
		c-2.15-1.71-4.41-2.56-6.79-2.56c-1.67,0-3.21,0.36-4.6,1.08c-1.39,0.71-2.58,1.7-3.57,2.98c-0.99,1.27-1.79,2.74-2.38,4.41
		c-0.6,1.67-0.89,3.46-0.89,5.37c0,3.98,1.13,7.16,3.4,9.55C1254.53,141.85,1257.53,143.04,1261.26,143.04z M1255.06,162.12
		c-4.29,0-8.25-0.79-11.86-2.38c-3.62-1.59-6.74-3.83-9.37-6.73c-2.62-2.91-4.67-6.37-6.14-10.38c-1.47-4.01-2.21-8.41-2.21-13.18
		c0-4.61,0.67-8.9,2.03-12.88c1.35-3.98,3.24-7.41,5.67-10.32c2.43-2.9,5.31-5.16,8.64-6.79c3.34-1.63,7.04-2.45,11.09-2.45
		c4.05,0,7.77,0.92,11.15,2.75c3.38,1.82,5.98,4.41,7.81,7.75V73.87h22.66v62.02c0,2.15,0.32,3.64,0.95,4.48
		c0.64,0.83,1.75,1.33,3.34,1.48v19.09c-3.89,0.79-7.07,1.19-9.54,1.19c-7.71,0-12.16-2.9-13.36-8.7l-0.47-2.27
		c-2.15,3.82-5.06,6.6-8.71,8.35C1263.09,161.25,1259.19,162.12,1255.06,162.12z"/>
</g>
</svg>
