<svg xmlns="http://www.w3.org/2000/svg" viewBox="0 0 210.528 66.004"><path fill="#e42528" d="m40.406 39.055-.037.116a11 11 0 0 1-2.774 5.307 11.35 11.35 0 0 1-8.268 3.592 11.33 11.33 0 0 1-7.721-3.043 11 11 0 0 1-.711-.736c-.127-.139-.268-.291-.385-.444l-.336-.43a5 5 0 0 1-.235-.351l-.071-.105c-.43-.64-.793-1.341-1.084-2.086l-.059-.153c-.046-.127-.093-.255-.128-.385a4 4 0 0 1-.105-.303l-.056-.187a11 11 0 0 1-.41-2.692 11.25 11.25 0 0 1 3.031-8.117 11.26 11.26 0 0 1 7.886-3.581c2.04-.082 4.069.419 5.839 1.401h.014l.07.045a2.48 2.48 0 0 1 1.142 2.007 2.485 2.485 0 0 1-2.392 2.576l-.091.012a2.44 2.44 0 0 1-1.237-.338l-.105-.059a6.15 6.15 0 0 0-3.079-.676c-3.485.116-6.239 3.057-6.122 6.555.022.43.07.815.164 1.178a6.33 6.33 0 0 0 6.181 4.944 6.41 6.41 0 0 0 4.654-2.018 6.45 6.45 0 0 0 1.491-2.74c0-.036.012-.07.012-.093.116-.526.326-.934.631-1.26.92-.968 2.541-1.027 3.521-.116a2.48 2.48 0 0 1 .77 2.18"/><path fill="#3c8cc5" d="M58.461 12.839v47.872a5.303 5.303 0 0 1-5.293 5.293H5.293A5.303 5.303 0 0 1 0 60.711V2.194C0 1.61.223 1.062.642.654a2.18 2.18 0 0 1 3.114 0c.408.408.642.956.642 1.54l.011 5.408v53.109c0 .478.397.875.884.875h47.875a.88.88 0 0 0 .872-.875V12.839a.88.88 0 0 0-.872-.886H22.567a2.202 2.202 0 0 1-.374-4.351c.128-.034.267-.045.397-.056h30.578a5.296 5.296 0 0 1 5.293 5.293M83.424 32.931c-.28.404-.642.607-1.068.607q-.424 0-1.41-.383-.982-.382-1.672-.382c-.694 0-1.291.19-1.783.559a3.4 3.4 0 0 0-1.118 1.472 5.1 5.1 0 0 0-.369 1.941c0 1.043.296 1.953.883 2.744.593.784 1.383 1.179 2.387 1.179q.415 0 .889-.15.471-.153 1.159-.403c.444-.167.733-.252.845-.252q.454 0 .829.229.386.233.617.622.234.392.235.849c0 .612-.278 1.113-.841 1.522q-.841.61-1.974.885-1.134.276-1.952.276c-1.346 0-2.553-.34-3.622-1.008a6.84 6.84 0 0 1-2.471-2.736c-.588-1.15-.879-2.399-.879-3.757 0-.967.169-1.903.508-2.819a7.8 7.8 0 0 1 1.446-2.436 6.7 6.7 0 0 1 2.23-1.674 6.5 6.5 0 0 1 2.788-.608q.894 0 2.023.244 1.13.245 1.94.792c.531.366.804.839.804 1.422 0 .437-.143.862-.424 1.265M86.588 25.432q0-.963.542-1.565.534-.601 1.405-.601c.374 0 .716.091 1.009.272q.439.269.693.766c.164.328.248.709.248 1.128v16.647q-.001.637-.248 1.13a1.86 1.86 0 0 1-.702.768c-.296.18-.633.27-1 .27q-.871 0-1.405-.602-.542-.6-.542-1.566zM103.352 35.423q-.16-1.329-.977-2.146-.821-.823-2.127-.821-1.25 0-2.087.833c-.558.554-.888 1.265-1 2.134zm-6.098 2.602q.198 1.39 1.21 2.101c.677.478 1.501.717 2.458.717.59 0 1.089-.097 1.505-.28q.617-.278 1.549-.786c.62-.34 1.075-.509 1.357-.509q.394 0 .768.245.38.247.604.625.224.384.223.808c0 .405-.182.807-.563 1.202-.367.395-.869.749-1.487 1.063a9.8 9.8 0 0 1-2.103.752 9.4 9.4 0 0 1-2.209.284c-1.421 0-2.683-.328-3.803-.973a6.63 6.63 0 0 1-2.59-2.675c-.606-1.145-.911-2.425-.911-3.854q0-1.45.524-2.822a8 8 0 0 1 1.45-2.446 6.6 6.6 0 0 1 2.235-1.669 6.5 6.5 0 0 1 2.777-.6 6.5 6.5 0 0 1 2.833.627c.875.419 1.619.97 2.221 1.656a7.9 7.9 0 0 1 1.428 2.291q.516 1.264.517 2.502 0 1.74-1.704 1.741zM109.187 32.404q-.234-.638-.235-1.135-.001-.9.592-1.401.596-.5 1.438-.5 1.268-.001 1.731 1.385l2.478 7.673h.059l2.492-7.673q.431-1.386 1.736-1.385.841 0 1.43.494.583.494.583 1.407.001.497-.235 1.135l-3.92 10.049c-.213.558-.469.974-.76 1.233q-.444.389-1.353.389-.911 0-1.344-.384c-.28-.254-.542-.669-.765-1.238zM133.273 35.423q-.159-1.329-.979-2.146-.819-.823-2.125-.821c-.836 0-1.536.277-2.087.833-.553.554-.891 1.265-1.004 2.134zm-6.102 2.602c.134.927.535 1.627 1.214 2.101.674.478 1.496.717 2.455.717.595 0 1.096-.097 1.506-.28q.621-.278 1.551-.786.933-.51 1.355-.509.397 0 .768.245c.255.164.453.374.608.625.145.256.226.526.226.808q-.002.609-.568 1.202-.556.592-1.489 1.063a9.7 9.7 0 0 1-2.1.752 9.4 9.4 0 0 1-2.212.284c-1.417 0-2.681-.328-3.804-.973a6.65 6.65 0 0 1-2.587-2.675c-.606-1.145-.909-2.425-.909-3.854q0-1.45.522-2.822a8 8 0 0 1 1.448-2.446 6.62 6.62 0 0 1 5.014-2.269q1.517 0 2.833.627c.872.419 1.617.97 2.221 1.656a8 8 0 0 1 1.43 2.291c.342.843.517 1.676.517 2.502 0 1.16-.572 1.741-1.706 1.741zM139.949 31.32c0-.615.201-1.097.602-1.436q.601-.517 1.396-.516c1.264 0 1.904.545 1.904 1.624h.048q.593-.86 1.218-1.241c.413-.258.92-.383 1.515-.383q.753-.001 1.321.545.57.534.569 1.538c0 .387-.098.687-.301.885q-.293.306-.811.517c-.336.141-.746.303-1.213.487q-1.158.529-1.759 1.05c-.394.349-.587.866-.587 1.551v5.969c0 .421-.085.8-.253 1.126a1.85 1.85 0 0 1-.704.769q-.446.27-.998.27-.87.002-1.409-.6t-.538-1.565zM155.146 39.426c.526.827 1.278 1.242 2.264 1.242q.952 0 1.649-.58c.467-.385.813-.88 1.045-1.471q.344-.894.342-1.872.001-.975-.342-1.887a3.64 3.64 0 0 0-1.034-1.5q-.697-.584-1.66-.585c-.659 0-1.223.184-1.683.55a3.24 3.24 0 0 0-1.032 1.418 5.2 5.2 0 0 0-.335 1.872q0 1.575.786 2.813m-4.678-14.164c0-.645.173-1.165.528-1.565q.54-.602 1.41-.603.568 0 1.007.271c.298.18.528.435.701.767q.246.496.246 1.13v5.294a5.3 5.3 0 0 1 1.715-.997 5.9 5.9 0 0 1 1.984-.351q1.99 0 3.41 1.096 1.416 1.094 2.143 2.864a9.8 9.8 0 0 1 .729 3.748 8.3 8.3 0 0 1-.795 3.548 6.93 6.93 0 0 1-2.278 2.741c-.991.694-2.1 1.042-3.343 1.042a4.7 4.7 0 0 1-2.052-.469 3.5 3.5 0 0 1-1.513-1.325q-.397 1.621-1.954 1.622-.87.002-1.41-.6c-.355-.401-.528-.923-.528-1.565zM171.122 38.64q.35.906 1.041 1.466c.464.378 1.025.562 1.688.562.942 0 1.688-.395 2.218-1.179.529-.791.792-1.701.792-2.744q-.001-.973-.334-1.894c-.23-.612-.572-1.108-1.034-1.495q-.696-.584-1.642-.583c-.654 0-1.214.191-1.688.572-.474.383-.82.884-1.048 1.499a5.5 5.5 0 0 0-.344 1.901q0 .99.351 1.895m9.63 2.898c0 .76-.107 1.37-.312 1.836-.214.47-.731.7-1.558.7q-.798 0-1.223-.415-.434-.417-.64-1.235-1.546 1.823-3.713 1.822a5.84 5.84 0 0 1-3.27-.965c-.989-.643-1.764-1.529-2.317-2.671q-.844-1.712-.845-3.865 0-2.07.861-3.807.862-1.735 2.334-2.734a5.67 5.67 0 0 1 3.237-.996q1.094 0 2.089.449a3.93 3.93 0 0 1 1.624 1.335q.077-.715.615-1.17a1.85 1.85 0 0 1 1.248-.454q1.239 0 1.558.703c.205.474.312 1.087.312 1.842zM193.755 33.218c-.308.356-.681.532-1.132.532q-.304.001-1.157-.385a40 40 0 0 0-1.31-.565 2.8 2.8 0 0 0-1.031-.183q-.564-.001-.944.274-.381.276-.38.806-.001.567 1.166 1.077c.777.339 1.592.684 2.462 1.043a6.8 6.8 0 0 1 2.219 1.434c.61.598.916 1.398.916 2.414q0 1.304-.691 2.343c-.453.69-1.109 1.24-1.956 1.637q-1.276.6-2.899.602c-.762 0-1.572-.134-2.424-.393-.85-.268-1.563-.631-2.143-1.098q-.874-.7-.873-1.52c0-.354.155-.727.469-1.13.315-.4.711-.6 1.205-.6.358 0 .663.055.927.166q.395.164.998.509c.401.226.745.395 1.041.499.294.104.654.163 1.075.163.574 0 .977-.093 1.198-.275q.336-.27.337-.837 0-.568-1.125-1.059-1.118-.486-2.469-1.042-1.344-.556-2.255-1.468c-.61-.602-.911-1.409-.911-2.412 0-.888.226-1.677.669-2.364q.678-1.028 1.877-1.604 1.202-.574 2.731-.574c.718 0 1.444.107 2.198.318q1.118.316 1.893.964.774.643.775 1.529a1.8 1.8 0 0 1-.456 1.199M206.633 35.423q-.162-1.329-.977-2.146-.819-.823-2.125-.821-1.255 0-2.089.833-.827.83-1.002 2.134zm-6.102 2.602q.198 1.39 1.219 2.101 1.014.717 2.455.717c.588 0 1.089-.097 1.501-.28q.627-.278 1.555-.786.928-.51 1.353-.509c.263 0 .518.082.773.245q.377.247.601.625c.15.256.221.526.221.808q0 .609-.556 1.202-.565.592-1.494 1.063a9.7 9.7 0 0 1-2.1.752 9.4 9.4 0 0 1-2.212.284c-1.419 0-2.683-.328-3.801-.973a6.63 6.63 0 0 1-2.59-2.675c-.606-1.145-.913-2.425-.913-3.854 0-.967.182-1.907.524-2.822a8 8 0 0 1 1.453-2.446 6.6 6.6 0 0 1 2.23-1.669 6.6 6.6 0 0 1 2.781-.6q1.517 0 2.829.627 1.319.628 2.225 1.656a8 8 0 0 1 1.428 2.291q.515 1.264.515 2.502-.001 1.74-1.704 1.741z"/></svg>