<svg xmlns="http://www.w3.org/2000/svg" viewBox="0 0 192.902 31.171"><defs><clipPath id="a"><path fill="#fff" d="M0 0h192.902v31.171H0z" data-name="Rectangle 515"/></clipPath></defs><g fill="#fff" clip-path="url(#a)" data-name="Group 503"><path d="M45.645 30.949a10.13 10.13 0 0 1-7.153-2.547 8.32 8.32 0 0 1-2.792-6.52V9.519h5.037v12.363a4.868 4.868 0 1 0 9.729 0V9.519h5.037v12.363a8.4 8.4 0 0 1-2.7 6.516 10.13 10.13 0 0 1-7.157 2.551" data-name="Path 5498"/><path d="M70.3 30.949a12.73 12.73 0 0 1-8.571-2.732 8.91 8.91 0 0 1-3.3-6.787h5.434c.211 3.19 2.821 5.23 6.741 5.23 3.7 0 6.185-1.814 6.185-4.513 0-3.112-3.541-3.856-7.292-4.645-4.8-1.011-10.245-2.153-10.245-8.232a7.84 7.84 0 0 1 3.081-6.5A12.57 12.57 0 0 1 70.476.288a12.03 12.03 0 0 1 7.958 2.647 8.95 8.95 0 0 1 3.076 6.611h-5.258c-.2-3.029-2.5-4.968-5.952-4.968-3.278 0-5.48 1.726-5.48 4.293 0 3.164 3.531 3.894 7.27 4.669 4.812 1 10.265 2.125 10.265 8.386a7.7 7.7 0 0 1-3.288 6.54 14.33 14.33 0 0 1-8.768 2.483" data-name="Path 5499"/><path d="M95.834 30.949a11.36 11.36 0 0 1-8.161-3.07 10.2 10.2 0 0 1-3.235-7.843 10.38 10.38 0 0 1 3.235-7.887 11.36 11.36 0 0 1 8.161-3.07 11.14 11.14 0 0 1 8.115 3.07 10.75 10.75 0 0 1 3.235 7.937 7 7 0 0 1-.106 1.371H89.384l.1.419a6.53 6.53 0 0 0 6.394 5.093 6.32 6.32 0 0 0 5.713-3.474h5.093a9.9 9.9 0 0 1-3.84 5.233 11.64 11.64 0 0 1-7.01 2.221m.044-17.887a6.45 6.45 0 0 0-6.163 4.261l-.171.458h12.882l-.166-.455a6.72 6.72 0 0 0-6.383-4.265" data-name="Path 5500"/><path d="M120.531 30.949a11.36 11.36 0 0 1-8.161-3.07 10.2 10.2 0 0 1-3.235-7.843 10.38 10.38 0 0 1 3.235-7.886 12.34 12.34 0 0 1 15.723-.468 9.78 9.78 0 0 1 3.48 6.3h-5.15a6.04 6.04 0 0 0-5.848-4.615c-3.666 0-6.227 2.742-6.227 6.667 0 3.837 2.618 6.623 6.227 6.623a6.05 6.05 0 0 0 5.895-4.568h5.1a9.62 9.62 0 0 1-3.48 6.259 11.45 11.45 0 0 1-7.562 2.6" data-name="Path 5501"/><path d="M144.013 30.949a10.13 10.13 0 0 1-7.153-2.547 8.32 8.32 0 0 1-2.792-6.52V9.519h5.037v12.363a4.869 4.869 0 1 0 9.731 0V9.519h5.035v12.363a8.4 8.4 0 0 1-2.7 6.516 10.13 10.13 0 0 1-7.157 2.551" data-name="Path 5502"/><path d="M156.955 30.552V9.519h5.035v4.625l.649.005c1.454-3.323 4.009-5.2 7.219-5.326v5.034c-4.792.113-7.868 2.669-7.868 6.575v10.12Z" data-name="Path 5503"/><path d="M181.551 30.949a11.36 11.36 0 0 1-8.161-3.07 10.2 10.2 0 0 1-3.235-7.843 10.38 10.38 0 0 1 3.235-7.886 11.36 11.36 0 0 1 8.161-3.07 11.14 11.14 0 0 1 8.115 3.07 10.75 10.75 0 0 1 3.237 7.936 7 7 0 0 1-.106 1.371h-17.7l.1.419a6.53 6.53 0 0 0 6.394 5.093 6.32 6.32 0 0 0 5.713-3.474h5.091a9.9 9.9 0 0 1-3.839 5.233 11.64 11.64 0 0 1-7.01 2.221m.044-17.887a6.45 6.45 0 0 0-6.163 4.261l-.171.458h12.882l-.166-.455a6.72 6.72 0 0 0-6.383-4.265" data-name="Path 5504"/><path d="m27.881 30.479-3.073-5.507h7.147l2.863 5.507Z" data-name="Path 5505"/><path d="M15.586 31.172a15.586 15.586 0 1 1 15.587-15.587 15.605 15.605 0 0 1-15.587 15.587m0-25.933a10.346 10.346 0 1 0 10.347 10.346A10.36 10.36 0 0 0 15.586 5.239" data-name="Path 5506"/></g></svg>