<svg 
  xmlns="http://www.w3.org/2000/svg" 
  xmlns:xlink="http://www.w3.org/1999/xlink" viewBox="0 0 192.902 31.171">
  <defs>
    <clipPath id="clip-path">
      <rect id="Rectangle_515" data-name="Rectangle 515" width="192.902" height="31.171" fill="#fff"/>
    </clipPath>
  </defs>
  <g id="Logo_QuSecure_White" transform="translate(0 0)">
    <g id="Group_503" data-name="Group 503" transform="translate(0 0)" clip-path="url(#clip-path)">
      <path id="Path_5498" data-name="Path 5498" d="M31.066,27.062a10.127,10.127,0,0,1-7.153-2.547,8.317,8.317,0,0,1-2.792-6.52V5.632h5.037V17.995a4.868,4.868,0,1,0,9.729,0V5.632h5.037V17.995a8.407,8.407,0,0,1-2.7,6.516,10.128,10.128,0,0,1-7.157,2.551" transform="translate(14.579 3.887)" fill="#fff"/>
      <path id="Path_5499" data-name="Path 5499" d="M46.437,30.832A12.731,12.731,0,0,1,37.866,28.1a8.913,8.913,0,0,1-3.3-6.787H40c.211,3.19,2.821,5.23,6.741,5.23,3.7,0,6.185-1.814,6.185-4.513,0-3.112-3.541-3.856-7.292-4.645-4.8-1.011-10.245-2.153-10.245-8.232a7.836,7.836,0,0,1,3.081-6.5A12.569,12.569,0,0,1,46.613.171a12.027,12.027,0,0,1,7.958,2.647,8.949,8.949,0,0,1,3.076,6.611H52.389c-.2-3.029-2.5-4.968-5.952-4.968-3.278,0-5.48,1.726-5.48,4.293,0,3.164,3.531,3.894,7.27,4.669,4.812,1,10.265,2.125,10.265,8.386a7.707,7.707,0,0,1-3.288,6.54,14.329,14.329,0,0,1-8.768,2.483" transform="translate(23.863 0.117)" fill="#fff"/>
      <path id="Path_5500" data-name="Path 5500" d="M61.35,27.241a11.355,11.355,0,0,1-8.161-3.07,10.2,10.2,0,0,1-3.235-7.843,10.379,10.379,0,0,1,3.235-7.887,11.355,11.355,0,0,1,8.161-3.07,11.139,11.139,0,0,1,8.115,3.07A10.75,10.75,0,0,1,72.7,16.378a7.141,7.141,0,0,1-.106,1.371H54.9l.1.419a6.533,6.533,0,0,0,6.394,5.093,6.321,6.321,0,0,0,5.713-3.474H72.2A9.913,9.913,0,0,1,68.36,25.02a11.639,11.639,0,0,1-7.01,2.221m.044-17.887a6.447,6.447,0,0,0-6.163,4.261l-.171.458H67.942l-.166-.455a6.721,6.721,0,0,0-6.383-4.265" transform="translate(34.484 3.708)" fill="#fff"/>
      <path id="Path_5501" data-name="Path 5501" d="M75.961,27.241a11.355,11.355,0,0,1-8.161-3.07,10.2,10.2,0,0,1-3.235-7.843A10.379,10.379,0,0,1,67.8,8.442a12.34,12.34,0,0,1,15.723-.468,9.782,9.782,0,0,1,3.48,6.3h-5.15a6.037,6.037,0,0,0-5.848-4.615c-3.666,0-6.227,2.742-6.227,6.667,0,3.837,2.618,6.623,6.227,6.623A6.049,6.049,0,0,0,81.9,18.381H87a9.616,9.616,0,0,1-3.48,6.259,11.453,11.453,0,0,1-7.562,2.6" transform="translate(44.57 3.708)" fill="#fff"/>
      <path id="Path_5502" data-name="Path 5502" d="M89.261,27.062a10.127,10.127,0,0,1-7.153-2.547,8.317,8.317,0,0,1-2.792-6.52V5.632h5.037V17.995a4.869,4.869,0,1,0,9.731,0V5.632h5.035V17.995a8.407,8.407,0,0,1-2.7,6.516,10.128,10.128,0,0,1-7.157,2.551" transform="translate(54.752 3.887)" fill="#fff"/>
      <path id="Path_5503" data-name="Path 5503" d="M92.856,26.949V5.916h5.035v4.625l.649.005c1.454-3.323,4.009-5.2,7.219-5.326v5.034c-4.792.113-7.868,2.669-7.868,6.575v10.12Z" transform="translate(64.099 3.603)" fill="#fff"/>
      <path id="Path_5504" data-name="Path 5504" d="M112.061,27.241a11.355,11.355,0,0,1-8.161-3.07,10.2,10.2,0,0,1-3.235-7.843A10.379,10.379,0,0,1,103.9,8.442a11.355,11.355,0,0,1,8.161-3.07,11.139,11.139,0,0,1,8.115,3.07,10.75,10.75,0,0,1,3.237,7.936,7.141,7.141,0,0,1-.106,1.371h-17.7l.1.419a6.533,6.533,0,0,0,6.394,5.093,6.321,6.321,0,0,0,5.713-3.474h5.091a9.913,9.913,0,0,1-3.839,5.233,11.639,11.639,0,0,1-7.01,2.221m.044-17.887a6.447,6.447,0,0,0-6.163,4.261l-.171.458h12.882l-.166-.455a6.721,6.721,0,0,0-6.383-4.265" transform="translate(69.49 3.708)" fill="#fff"/>
      <path id="Path_5505" data-name="Path 5505" d="M17.75,20.281l-3.073-5.507h7.147l2.863,5.507Z" transform="translate(10.131 10.198)" fill="#fff"/>
      <path id="Path_5506" data-name="Path 5506" d="M15.586,31.173A15.586,15.586,0,1,1,31.173,15.586,15.605,15.605,0,0,1,15.586,31.173m0-25.933A10.346,10.346,0,1,0,25.933,15.586,10.358,10.358,0,0,0,15.586,5.24" transform="translate(0 -0.001)" fill="#fff"/>
    </g>
  </g>
</svg>
