<svg class="ICON_CLASS" viewBox="0 0 24 24" fill="none" xmlns="http://www.w3.org/2000/svg" stroke="currentColor" stroke-width="1.75" stroke-linecap="round" stroke-linejoin="round" aria-hidden="true">
  <path d="m10.065 12.493-6.18 1.318a.934.934 0 0 1-1.108-.702l-.537-2.15a1.07 1.07 0 0 1 .691-1.265l13.504-4.44"/>
  <path d="m13.56 11.747 4.332-.924"/>
  <path d="m16 21-3.105-6.21"/>
  <path d="M16.485 5.94a2 2 0 0 1 1.455-2.425l1.09-.272a1 1 0 0 1 1.212.727l1.515 6.06a1 1 0 0 1-.727 1.213l-<svg class="ICON_CLASS" viewBox="0 0 24 24" fill="none" xmlns="http://www.w3.orth  <path d="m14.5 12.5-8 8a2.119 2.119 0 0 1-3-3l8-8"/>
  <path d="m16 16 6-6"/>
  <path d="m8 8 6-6"/>
  <path d="m9 7 8 8"/>
  <path d="m21 11-8-8"/>
</svg>
