<?xml version="1.0" encoding="UTF-8"?>
<svg id="Ebene_1" xmlns="http://www.w3.org/2000/svg" version="1.1" viewBox="0 0 180.9 40.1">
  <!-- Generator: Adobe Illustrator 29.8.0, SVG Export Plug-In . SVG Version: 2.1.1 Build 160)  -->
  <defs>
    <style>
      .st0 {
        fill: #666;
      }

      .st1 {
        fill: #e00;
      }
    </style>
  </defs>
  <g>
    <path class="st0" d="M179.3,30.2h-5.2c.1-2.2,1-3.5,2.8-3.5s2.4,1.1,2.4,3v.5ZM180.7,30.1c0-2.9-1.2-4.4-3.8-4.4s-4.2,2-4.2,5.2,1.6,5.1,4.6,5.1,2.1,0,2.7-.3l-.3-1c-.6.2-1.4.3-2.3.3-2.2,0-3.2-1.4-3.4-3.7h6.6v-1.2M171.3,35.5l-.3-1.1c-.2,0-1,.4-2.1.4-2.2,0-3.3-1.3-3.3-4s1.1-4,3.3-4,1.6.2,2.2.4v-1.2c-.2-.1-1.1-.3-2.4-.3-2.9,0-4.6,1.9-4.6,5.1s1.6,5.1,4.5,5.1,2.1,0,2.7-.4M161.9,35.8v-9.8h-2.6v.9c.4,0,.9.1,1.3.2v8.8h1.3ZM162,22.8c0-.5-.4-1-.9-1s-.9.4-.9,1,.4.9.9.9.9-.4.9-.9M158.3,26h-1.4c-.7,2.4-1.7,5.5-3,8.6-1.4-3.1-2.4-6.2-3-8.6h-1.4c.9,2.9,2.4,7.1,3.6,9.8h1.4c1.4-2.8,2.9-6.9,3.8-9.8M148.7,27.2v-1.2h-.6c-1.4,0-2.4.9-2.9,2v-2h-1.3v9.8h1.3v-5.7c0-1.3,1-2.9,3.1-2.9h.4M140.5,30.2h-5.2c.1-2.2,1-3.5,2.8-3.5s2.4,1.1,2.4,3v.5ZM141.9,30.1c0-2.9-1.2-4.4-3.8-4.4s-4.2,2-4.2,5.2,1.6,5.1,4.6,5.1,2.1,0,2.7-.3l-.3-1c-.6.2-1.4.3-2.3.3-2.2,0-3.2-1.4-3.4-3.7h6.6v-1.2M132.5,33.2c0-1.8-1.2-2.4-3.1-3-1.7-.5-2.4-.8-2.4-1.8s.9-1.5,2.3-1.5,2,.2,2.6.4v-1.1c-.6-.2-1.4-.3-2.7-.3-2.2,0-3.4,1-3.4,2.7s1.3,2.2,2.9,2.8c1.4.5,2.5.7,2.5,1.9s-.7,1.7-2.5,1.7-2.2-.3-2.8-.6l-.4,1c.6.2,1.6.6,3.3.6s3.7-1,3.7-2.8M117.2,29.8h-3.4c0-1.5.8-2.4,1.8-2.4s1.6.7,1.6,2.1v.3ZM120,30.4c0-3.1-1.5-4.8-4.2-4.8s-4.6,2.2-4.6,5.2,1.8,5.2,5,5.2,2.3,0,3.4-.4l-.5-2c-.6.2-1.6.3-2.5.3-1.5,0-2.4-.7-2.5-2.3h6c-.2-.3,0-.7,0-1.2M108.4,35.8v-10h-3.9v1.7c.3,0,1,.1,1.2.1v8.1h2.7ZM108.4,22.7c0-.8-.7-1.5-1.7-1.5s-1.6.7-1.6,1.5.8,1.5,1.6,1.5,1.7-.7,1.7-1.5M99.8,31.2c0,1.6-.8,2.4-1.8,2.4s-1.8-1.1-1.8-2.8.9-2.9,2-2.9,1.2.3,1.6.6v2.7h0ZM102.4,35.4v-9.6h-2.5v.8c-.5-.5-1.2-1-2.7-1-2.2,0-4,1.8-4,5.1s1.7,5,4,5,2-.4,2.5-1.1v1c0,1.6-.8,2.3-2.7,2.3s-2-.2-2.4-.3l-.4,1.9c.4,0,1.6.4,3.4.4s2.8-.3,3.7-1.2c.8-.6,1.1-1.6,1.1-3.3M88.3,30.8c0,2-.6,3.2-1.9,3.2s-1.9-1.2-1.9-3.1.6-3.1,1.9-3.1c1.3-.2,1.9,1,1.9,3M91.1,30.8c0-3-1.6-5.2-4.8-5.2s-4.8,2.2-4.8,5.2,1.7,5.2,4.8,5.2,4.8-2.3,4.8-5.2M79,35.8v-14.4h-4v1.7c.3,0,1,.1,1.2.1v12.5h2.8ZM70.8,30.8c0,2-.6,3.2-1.9,3.2s-1.9-1.2-1.9-3.1.6-3.1,1.9-3.1c1.3-.2,1.9,1,1.9,3M73.6,30.8c0-3-1.6-5.2-4.8-5.2s-4.8,2.2-4.8,5.2,1.7,5.2,4.8,5.2,4.8-2.3,4.8-5.2M61.6,35.8v-6.9c0-2.1-1.2-3.3-3.3-3.3s-2.4.6-2.9,1.4v-1.2h-2.6v10h2.7v-5.7c0-1.2.9-2.2,1.9-2.2s1.5.5,1.5,1.7v6.2s2.7,0,2.7,0ZM49.8,35.8v-6.9c0-2.1-1.2-3.3-3.3-3.3s-2.3.5-2.8,1.2v-5.4h-2.7v14.4h2.7v-5.8c0-1.2.9-2.2,1.9-2.2s1.5.5,1.5,1.7v6.2h2.7,0ZM39.1,35.4l-.6-2c-.4,0-1.2.3-2.1.3-1.6,0-2.4-1-2.4-2.9s1-3,2.7-3,1.7.2,2,.3v-2.1c-.2-.1-1.2-.4-2.5-.4-3.2,0-5,2-5,5.2s1.8,5.1,4.9,5.1c1.1,0,2.2-.2,3-.5M26.4,29.8h-3.4c.1-1.5.7-2.4,1.8-2.4s1.6.7,1.6,2.1v.3ZM29.1,30.4c0-3.1-1.5-4.8-4.2-4.8s-4.6,2.2-4.6,5.2,1.8,5.2,5,5.2,2.3,0,3.4-.4l-.5-2c-.6.2-1.6.3-2.5.3-1.5,0-2.4-.7-2.5-2.3h6c-.1-.3-.1-.7-.1-1.2M19.5,35.6l-.5-1.9c-.3,0-.9.2-1.5.2s-1.1-.3-1.1-1.3v-4.7h2.6v-2.1h-2.5v-3.3c-.9.5-2,.9-2.7,1.2v2.1h-1.5v2.1h1.5v5c0,1.8.8,3.1,3,3.1s1.8-.2,2.7-.4"/>
    <path class="st1" d="M161.9,14.8c-1.5-2.4-3-4.4-4.1-5.7l3.8-4.3h-3.2l-3.1,3.7V.4h-2.7v14.4h2.7v-4.7c1.2,1.6,2.5,3.4,3.4,4.7h3.2ZM149.6,14.8V4.8h-3.9v1.7h1.2v8.1c-.1,0,2.7,0,2.7,0v.2ZM149.6,1.7c0-.8-.8-1.5-1.6-1.5s-1.6.7-1.6,1.5.8,1.5,1.6,1.5,1.6-.7,1.6-1.5M144.8,14.6l-.5-1.9c-.3.1-.9.2-1.4.2s-1.1-.3-1.1-1.3v-4.7h2.5v-2.1h-2.5V1.5c-.9.5-2,.9-2.7,1.2v2.1h-1.5v2.1h1.5v5c0,1.8.8,3.1,3,3.1s1.8-.1,2.7-.4M133.3,12.4c-.3.3-1.1.6-1.8.6s-1.2-.6-1.2-1.2c0-1,.6-1.6,2.6-1.6h.4v2.2ZM135.9,14.8v-6.8c0-2.4-1.3-3.4-4.1-3.4s-2.3,0-3.5.4v2.1c1.1-.4,2-.6,2.9-.6,1.5,0,2,.4,2,1.4v.4h-1.1c-.8,0-1.6.1-2.2.4-1.5.5-2.3,1.5-2.3,3.2s1.4,3,3.1,3,2.3-.6,2.6-.9v.7c.1.1,2.6.1,2.6.1ZM125.4,14.8v-6.9c0-2.1-1-3.3-3.1-3.3s-2.3.7-3,1.5c-.4-1-1.3-1.5-2.7-1.5s-2.2.6-2.7,1.3v-1.2h-2.7v10h2.7v-5.6c0-1.2.7-2.2,1.7-2.2s1.3.5,1.3,1.6v6.3h2.7v-5.7c0-1.2.7-2.2,1.7-2.2s1.3.5,1.3,1.6v6.3s2.8,0,2.8,0ZM109.6,7.3v-2.5h-.9c-1.1,0-2,.7-2.6,1.9v-1.8h-2.7v10h2.7v-5c0-1.2.8-2.6,2.4-2.6h1.1M98.2,9.8c0,2-.6,3.2-1.9,3.2s-1.9-1.2-1.9-3.2.6-3.2,1.9-3.2,1.9,1.2,1.9,3.2M101.1,9.8c0-3-1.6-5.2-4.8-5.2s-4.8,2.2-4.8,5.2,1.7,5.2,4.8,5.2,4.8-2.3,4.8-5.2M91.4,2.4V.4c-.5,0-1.3-.2-2.3-.2-2,0-3.3,1.1-3.3,3.2v1.4h-1.2v2.1h1.2v7.9h2.7v-7.9h2.2v-2.1h-2.2v-1c0-1.1.5-1.5,1.4-1.5.5,0,1.1,0,1.5,0M82.8,14.8v-6.9c0-2.1-1.2-3.3-3.3-3.3s-2.4.6-2.9,1.3v-1.1h-2.6v10h2.7v-5.7c0-1.2.9-2.2,1.9-2.2s1.5.5,1.5,1.7v6.2s2.7,0,2.7,0ZM70.8,14.8V4.8h-3.9v1.7h1.2v8.1h2.7v.2ZM70.9,1.7c0-.8-.8-1.5-1.7-1.5s-1.6.7-1.6,1.5.8,1.5,1.6,1.5,1.7-.7,1.7-1.5M61.3,14.8v-1h-6c.5-.9,1.6-2.4,2.7-3.9,1.4-1.9,2.7-3.5,3.1-3.9v-1h-7v1h5.5c-.5.6-1.4,1.7-2.6,3.3-1.6,2.1-2.8,3.9-3.1,4.5v1s7.4,0,7.4,0ZM51.6,14.8v-6.9c0-2-1.2-3.2-3.1-3.2s-2.7.7-3.3,1.8v-1.6h-1.3v9.8h1.3v-5.7c0-1.8,1.3-3.2,2.9-3.2s2.2.8,2.2,2.5v6.4h1.3,0ZM39.8,12.8c-.6.6-1.5,1.2-2.7,1.2s-2-.9-2-1.9c0-1.9,1.4-2.3,3.8-2.3h.9c0-.1,0,3,0,3ZM41.1,14.8v-6.9c0-2.2-1.1-3.2-3.6-3.2s-2.1.2-2.9.4v1.1c.6-.2,1.5-.5,2.7-.5,1.9,0,2.6.7,2.6,2.2v.6h-.9c-1.4,0-2.5.2-3.3.5-1.2.5-1.8,1.5-1.8,2.8,0,2.2,1.4,3,3.1,3s2.5-.6,3-1.1v.9l1.1.2h0ZM31.6,14.8v-6.9c0-2-1.2-3.2-3.1-3.2s-2.7.7-3.3,1.8v-1.6h-1.3v9.8h1.3v-5.7c0-1.8,1.3-3.2,2.9-3.2s2.2.8,2.2,2.5v6.4h1.3ZM20.9,14.8V4.9h-2.6v.9c.4,0,.9,0,1.3.2v8.8h1.3ZM20.9,1.8c0-.5-.4-1-.9-1s-.9.4-.9,1,.4.9.9.9.9-.4.9-.9M18.1,1.4V.4c-.2,0-.8-.2-1.6-.2-1.7,0-2.8,1-2.8,2.9v1.9h-1.2v1h1.2v8.8h1.3V5.9h2.3v-1h-2.3v-1.6c0-1.4.4-2.1,1.8-2.1s.9,0,1.3.2"/>
  </g>
  <rect class="st1" y=".4" width="2.7" height="35.4"/>
</svg>