<svg xmlns="http://www.w3.org/2000/svg" id="Ebene_1" viewBox="0 0 180.9 40.1"><defs><style>.st1{fill:#e00}</style></defs><path d="M179.3 30.2h-5.2c.1-2.2 1-3.5 2.8-3.5s2.4 1.1 2.4 3zm1.4-.1c0-2.9-1.2-4.4-3.8-4.4s-4.2 2-4.2 5.2 1.6 5.1 4.6 5.1 2.1 0 2.7-.3l-.3-1c-.6.2-1.4.3-2.3.3-2.2 0-3.2-1.4-3.4-3.7h6.6v-1.2m-9.3 5.4-.3-1.1c-.2 0-1 .4-2.1.4-2.2 0-3.3-1.3-3.3-4s1.1-4 3.3-4 1.6.2 2.2.4V26c-.2-.1-1.1-.3-2.4-.3-2.9 0-4.6 1.9-4.6 5.1s1.6 5.1 4.5 5.1 2.1 0 2.7-.4m-9.4.3V26h-2.6v.9c.4 0 .9.1 1.3.2v8.8h1.3Zm.1-13c0-.5-.4-1-.9-1s-.9.4-.9 1 .4.9.9.9.9-.4.9-.9m-3.7 3.2h-1.4c-.7 2.4-1.7 5.5-3 8.6-1.4-3.1-2.4-6.2-3-8.6h-1.4c.9 2.9 2.4 7.1 3.6 9.8h1.4c1.4-2.8 2.9-6.9 3.8-9.8m-9.6 1.2V26h-.6c-1.4 0-2.4.9-2.9 2v-2h-1.3v9.8h1.3v-5.7c0-1.3 1-2.9 3.1-2.9zm-8.2 3h-5.2c.1-2.2 1-3.5 2.8-3.5s2.4 1.1 2.4 3zm1.4-.1c0-2.9-1.2-4.4-3.8-4.4s-4.2 2-4.2 5.2 1.6 5.1 4.6 5.1 2.1 0 2.7-.3l-.3-1c-.6.2-1.4.3-2.3.3-2.2 0-3.2-1.4-3.4-3.7h6.6v-1.2m-9.3 3.1c0-1.8-1.2-2.4-3.1-3-1.7-.5-2.4-.8-2.4-1.8s.9-1.5 2.3-1.5 2 .2 2.6.4v-1.1c-.6-.2-1.4-.3-2.7-.3-2.2 0-3.4 1-3.4 2.7s1.3 2.2 2.9 2.8c1.4.5 2.5.7 2.5 1.9s-.7 1.7-2.5 1.7-2.2-.3-2.8-.6l-.4 1c.6.2 1.6.6 3.3.6s3.7-1 3.7-2.8m-15.3-3.4h-3.4c0-1.5.8-2.4 1.8-2.4s1.6.7 1.6 2.1zm2.8.6c0-3.1-1.5-4.8-4.2-4.8s-4.6 2.2-4.6 5.2 1.8 5.2 5 5.2 2.3 0 3.4-.4l-.5-2c-.6.2-1.6.3-2.5.3-1.5 0-2.4-.7-2.5-2.3h6c-.2-.3 0-.7 0-1.2m-11.7 5.4v-10h-3.9v1.7c.3 0 1 .1 1.2.1v8.1h2.7Zm0-13.1c0-.8-.7-1.5-1.7-1.5s-1.6.7-1.6 1.5.8 1.5 1.6 1.5 1.7-.7 1.7-1.5m-8.6 8.5c0 1.6-.8 2.4-1.8 2.4s-1.8-1.1-1.8-2.8.9-2.9 2-2.9 1.2.3 1.6.6zm2.6 4.2v-9.6h-2.5v.8c-.5-.5-1.2-1-2.7-1-2.2 0-4 1.8-4 5.1s1.7 5 4 5 2-.4 2.5-1.1v1c0 1.6-.8 2.3-2.7 2.3s-2-.2-2.4-.3l-.4 1.9c.4 0 1.6.4 3.4.4s2.8-.3 3.7-1.2c.8-.6 1.1-1.6 1.1-3.3m-14.1-4.6c0 2-.6 3.2-1.9 3.2s-1.9-1.2-1.9-3.1.6-3.1 1.9-3.1c1.3-.2 1.9 1 1.9 3m2.8 0c0-3-1.6-5.2-4.8-5.2s-4.8 2.2-4.8 5.2 1.7 5.2 4.8 5.2 4.8-2.3 4.8-5.2m-12.1 5V21.4h-4v1.7c.3 0 1 .1 1.2.1v12.5H79Zm-8.2-5c0 2-.6 3.2-1.9 3.2S67 32.8 67 30.9s.6-3.1 1.9-3.1c1.3-.2 1.9 1 1.9 3m2.8 0c0-3-1.6-5.2-4.8-5.2S64 27.8 64 30.8s1.7 5.2 4.8 5.2 4.8-2.3 4.8-5.2m-12 5v-6.9c0-2.1-1.2-3.3-3.3-3.3s-2.4.6-2.9 1.4v-1.2h-2.6v10h2.7v-5.7c0-1.2.9-2.2 1.9-2.2s1.5.5 1.5 1.7v6.2zm-11.8 0v-6.9c0-2.1-1.2-3.3-3.3-3.3s-2.3.5-2.8 1.2v-5.4H41v14.4h2.7V30c0-1.2.9-2.2 1.9-2.2s1.5.5 1.5 1.7v6.2h2.7Zm-10.7-.4-.6-2c-.4 0-1.2.3-2.1.3-1.6 0-2.4-1-2.4-2.9s1-3 2.7-3 1.7.2 2 .3V26c-.2-.1-1.2-.4-2.5-.4-3.2 0-5 2-5 5.2s1.8 5.1 4.9 5.1c1.1 0 2.2-.2 3-.5m-12.7-5.6H23c.1-1.5.7-2.4 1.8-2.4s1.6.7 1.6 2.1zm2.7.6c0-3.1-1.5-4.8-4.2-4.8s-4.6 2.2-4.6 5.2 1.8 5.2 5 5.2 2.3 0 3.4-.4l-.5-2c-.6.2-1.6.3-2.5.3-1.5 0-2.4-.7-2.5-2.3h6c-.1-.3-.1-.7-.1-1.2m-9.6 5.2-.5-1.9c-.3 0-.9.2-1.5.2s-1.1-.3-1.1-1.3v-4.7H19v-2.1h-2.5v-3.3c-.9.5-2 .9-2.7 1.2v2.1h-1.5v2.1h1.5v5c0 1.8.8 3.1 3 3.1s1.8-.2 2.7-.4" style="fill:#666"/><path d="M161.9 14.8c-1.5-2.4-3-4.4-4.1-5.7l3.8-4.3h-3.2l-3.1 3.7V.4h-2.7v14.4h2.7v-4.7c1.2 1.6 2.5 3.4 3.4 4.7zm-12.3 0v-10h-3.9v1.7h1.2v8.1h2.7zm0-13.1c0-.8-.8-1.5-1.6-1.5s-1.6.7-1.6 1.5.8 1.5 1.6 1.5 1.6-.7 1.6-1.5m-4.8 12.9-.5-1.9c-.3.1-.9.2-1.4.2s-1.1-.3-1.1-1.3V6.9h2.5V4.8h-2.5V1.5c-.9.5-2 .9-2.7 1.2v2.1h-1.5v2.1h1.5v5c0 1.8.8 3.1 3 3.1s1.8-.1 2.7-.4m-11.5-2.2c-.3.3-1.1.6-1.8.6s-1.2-.6-1.2-1.2c0-1 .6-1.6 2.6-1.6h.4zm2.6 2.4V8c0-2.4-1.3-3.4-4.1-3.4s-2.3 0-3.5.4v2.1c1.1-.4 2-.6 2.9-.6 1.5 0 2 .4 2 1.4v.4h-1.1c-.8 0-1.6.1-2.2.4-1.5.5-2.3 1.5-2.3 3.2s1.4 3 3.1 3 2.3-.6 2.6-.9v.7c.1.1 2.6.1 2.6.1m-10.5 0V7.9c0-2.1-1-3.3-3.1-3.3s-2.3.7-3 1.5q-.6-1.5-2.7-1.5c-2.1 0-2.2.6-2.7 1.3V4.7h-2.7v10h2.7V9.1c0-1.2.7-2.2 1.7-2.2s1.3.5 1.3 1.6v6.3h2.7V9.1c0-1.2.7-2.2 1.7-2.2s1.3.5 1.3 1.6v6.3zm-15.8-7.5V4.8h-.9c-1.1 0-2 .7-2.6 1.9V4.9h-2.7v10h2.7v-5c0-1.2.8-2.6 2.4-2.6zM98.2 9.8c0 2-.6 3.2-1.9 3.2s-1.9-1.2-1.9-3.2.6-3.2 1.9-3.2 1.9 1.2 1.9 3.2m2.9 0c0-3-1.6-5.2-4.8-5.2s-4.8 2.2-4.8 5.2 1.7 5.2 4.8 5.2 4.8-2.3 4.8-5.2m-9.7-7.4v-2c-.5 0-1.3-.2-2.3-.2-2 0-3.3 1.1-3.3 3.2v1.4h-1.2v2.1h1.2v7.9h2.7V6.9h2.2V4.8h-2.2v-1c0-1.1.5-1.5 1.4-1.5h1.5m-8.6 12.5V7.9c0-2.1-1.2-3.3-3.3-3.3s-2.4.6-2.9 1.3V4.8H74v10h2.7V9.1c0-1.2.9-2.2 1.9-2.2s1.5.5 1.5 1.7v6.2zm-12 0v-10h-3.9v1.7h1.2v8.1h2.7zm.1-13.1c0-.8-.8-1.5-1.7-1.5s-1.6.7-1.6 1.5.8 1.5 1.6 1.5 1.7-.7 1.7-1.5m-9.6 13.1v-1h-6c.5-.9 1.6-2.4 2.7-3.9C59.4 8 60.7 6.4 61.1 6V5h-7v1h5.5c-.5.6-1.4 1.7-2.6 3.3-1.6 2.1-2.8 3.9-3.1 4.5v1zm-9.7 0V7.9c0-2-1.2-3.2-3.1-3.2s-2.7.7-3.3 1.8V4.9h-1.3v9.8h1.3V9c0-1.8 1.3-3.2 2.9-3.2s2.2.8 2.2 2.5v6.4h1.3Zm-11.8-2c-.6.6-1.5 1.2-2.7 1.2s-2-.9-2-1.9c0-1.9 1.4-2.3 3.8-2.3h.9zm1.3 2V7.9c0-2.2-1.1-3.2-3.6-3.2s-2.1.2-2.9.4v1.1c.6-.2 1.5-.5 2.7-.5 1.9 0 2.6.7 2.6 2.2v.6H39c-1.4 0-2.5.2-3.3.5-1.2.5-1.8 1.5-1.8 2.8 0 2.2 1.4 3 3.1 3s2.5-.6 3-1.1v.9zm-9.5 0V7.9c0-2-1.2-3.2-3.1-3.2s-2.7.7-3.3 1.8V4.9h-1.3v9.8h1.3V9c0-1.8 1.3-3.2 2.9-3.2s2.2.8 2.2 2.5v6.4h1.3Zm-10.7 0V4.9h-2.6v.9c.4 0 .9 0 1.3.2v8.8zm0-13c0-.5-.4-1-.9-1s-.9.4-.9 1 .4.9.9.9.9-.4.9-.9m-2.8-.4v-1c-.2 0-.8-.2-1.6-.2-1.7 0-2.8 1-2.8 2.9V5h-1.2v1h1.2v8.8H15V5.9h2.3v-1H15V3.3c0-1.4.4-2.1 1.8-2.1s.9 0 1.3.2M0 .4h2.7v35.4H0z" class="st1"/></svg>