<svg xmlns="http://www.w3.org/2000/svg" viewBox="0 0 132 132"><path fill-rule="evenodd" d="M0 26.37c0-3.46.68-6.89 2.01-10.09s3.27-6.11 5.72-8.56 5.36-4.39 8.56-5.71A26.3 26.3 0 0 1 26.38 0h79.18c3.46 0 6.89.68 10.09 2.01a26.28 26.28 0 0 1 14.27 14.27 26.3 26.3 0 0 1 2.01 10.09v79.18c0 3.46-.68 6.89-2 10.09-1.33 3.2-3.27 6.11-5.72 8.56s-5.36 4.4-8.56 5.72a26.3 26.3 0 0 1-10.09 2.01H26.38c-3.46 0-6.89-.68-10.1-2.01-3.2-1.32-6.1-3.27-8.55-5.72s-4.4-5.35-5.72-8.55A26.4 26.4 0 0 1 0 105.55zm20.52 59.21h-1.67v2h1.67zm0 4.65h-1.67v11.1h1.67zm4.49 11.1h12.53v-1.41H27.39l10.11-8.28v-1.41H25.46v1.41h9.63l-10.08 8.28zm30.87-5.25c.02-2.13-.27-3.59-.86-4.39-.18-.21-.38-.4-.59-.57a4.2 4.2 0 0 0-1.45-.74q-.405-.12-.81-.15l-.82-.09c-.28-.02-.56-.04-.83-.05-.28-.02-.55-.03-.83-.03-.28-.01-.55-.01-.83 0-2.95 0-4.76.31-5.67 1.1s-1.36 2.33-1.36 4.61.45 3.82 1.36 4.61c.84.73 2.74 1.1 5.69 1.1.33.01.67.01 1 0 .34-.01.67-.02 1.01-.05a16.904 16.904 0 0 0 1.99-.24c.4-.04.79-.15 1.15-.32.35-.18.68-.42.95-.71.28-.29.5-.63.65-1s.24-.76.25-1.16h-1.71c-.04.25-.11.49-.23.71-.11.22-.26.42-.44.59a2.273 2.273 0 0 1-1.33.62l-.78.09c-.26.02-.52.04-.78.05s-.52.02-.78.02-.52 0-.78-.01c-.31.02-.61.02-.92.02-.3-.01-.61-.02-.91-.05-.31-.02-.61-.06-.92-.1-.3-.04-.6-.1-.9-.16a2.37 2.37 0 0 1-1.12-.76c-.15-.17-.27-.37-.36-.58q-.135-.315-.18-.66c-.02-.14-.03-.28-.04-.42l-.03-.42c-.01-.14-.01-.29-.02-.43v-.42zm-12.19-1.35c.05-1.41.47-2.32 1.24-2.74.32-.11.65-.2.98-.28.33-.07.66-.13.99-.17.34-.05.68-.07 1.02-.08.33-.01.67 0 1.01.02.23-.01.46-.01.68-.01.23 0 .46.01.69.02l.68.03.68.06c.22.02.44.06.66.13.21.07.41.17.6.29.19.11.37.25.53.41s.29.34.41.53c.06.14.11.28.16.43.04.15.08.3.1.45q.045.225.06.45c.01.15.02.31.01.46zm17.46 6.6h1.67v-6.52c-.02-.3 0-.6.07-.9.08-.29.2-.57.36-.83.16-.25.36-.48.6-.67.23-.19.5-.34.78-.45.29-.09.59-.17.89-.24a9.6 9.6 0 0 1 1.84-.23c.3-.02.61-.02.92 0 2.03 0 3.34.26 3.92.78.12.15.23.31.32.48.08.17.16.35.21.53.05.19.09.38.1.57.02.19.01.38-.01.57v6.92h1.67v-7c.02-.24.02-.49 0-.73-.02-.25-.05-.49-.1-.73-.06-.24-.12-.47-.21-.7-.08-.23-.18-.45-.3-.67-.15-.19-.31-.37-.5-.53-.18-.16-.38-.3-.59-.42-.2-.12-.43-.22-.65-.3-.23-.07-.47-.13-.71-.16-.22-.04-.45-.07-.67-.09-.22-.03-.45-.05-.67-.06-.23-.02-.45-.03-.68-.03-.22-.01-.45-.01-.67 0-.29-.01-.59-.01-.88-.01-.3.01-.59.02-.88.04-.3.02-.59.05-.88.09s-.58.09-.87.14c-.28.07-.55.18-.8.31-.25.14-.49.31-.7.5-.2.2-.39.42-.54.66-.16.25-.28.51-.37.78v-2.2h-1.67zM80.13 106h1.67v-6.32c.13.22.28.43.45.61.17.19.37.35.58.49s.44.26.68.35c.24.08.49.14.74.17.26.04.51.07.77.1s.52.05.78.07l.78.03c.26 0 .52 0 .78-.01 2.99 0 4.84-.3 5.75-1.1s1.36-2.35 1.36-4.62-.45-3.81-1.36-4.6c-.84-.73-2.75-1.1-5.74-1.1q-.39-.015-.78 0c-.26 0-.52.01-.78.02-.26.02-.52.04-.78.07-.25.02-.51.05-.77.09-.25.03-.5.09-.74.17-.24.09-.47.21-.68.35-.22.14-.41.3-.59.49-.17.18-.32.39-.45.61v-1.64h-1.7zm7.09-14.52c2.5 0 4.04.27 4.61.81s.86 1.7.86 3.48c.03.28.04.57.02.86-.01.28-.05.57-.11.85-.05.28-.13.55-.24.82q-.15.405-.36.78c-.15.14-.31.27-.49.38-.17.11-.35.21-.54.29-.2.08-.39.14-.6.18-.2.04-.4.07-.61.07-.48.08-1.33.08-2.54.08-2.47 0-4-.25-4.57-.8s-.86-1.73-.86-3.55c-.03-.28-.04-.56-.02-.85.01-.28.05-.56.11-.83.06-.28.14-.55.24-.82.1-.26.22-.51.36-.76.15-.14.32-.27.49-.38s.36-.21.55-.28c.19-.08.39-.14.59-.18.21-.04.41-.07.62-.07.21-.02.42-.03.63-.04q.315-.03.63-.03c.21-.01.42-.01.63-.01.21-.01.42 0 .63 0zm26.24 4.6c.01-2.13-.27-3.59-.86-4.39-.18-.21-.38-.4-.59-.57a4.2 4.2 0 0 0-1.45-.74q-.405-.12-.81-.15l-.82-.09c-.28-.02-.56-.04-.83-.05-.28-.02-.55-.03-.83-.03-.28-.01-.55-.01-.83 0-2.95 0-4.76.31-5.67 1.1s-1.37 2.33-1.37 4.61.53 3.88 1.37 4.61 2.69 1.1 5.69 1.1c.33.01.67.01 1 0 .34-.01.67-.02 1.01-.05.33-.02.66-.05 1-.09.33-.05.66-.09.99-.15.4-.04.79-.15 1.15-.32.35-.18.68-.42.95-.71.28-.29.5-.63.65-1s.24-.76.25-1.16h-1.7c-.04.25-.11.49-.23.71-.11.22-.26.42-.44.59a2.273 2.273 0 0 1-1.33.62c-.26.03-.52.06-.78.08q-.39.045-.78.06c-.26.01-.52.02-.79.02-.26 0-.52 0-.78-.01-.3.02-.61.02-.92.02-.3-.01-.61-.02-.91-.05-.3-.02-.61-.06-.91-.1s-.6-.1-.9-.16c-.22-.07-.43-.17-.62-.29-.19-.13-.36-.29-.51-.46-.14-.18-.26-.38-.35-.59q-.135-.315-.18-.66c-.02-.14-.04-.28-.05-.42l-.03-.42c-.01-.14-.01-.29-.01-.43-.01-.14 0-.28 0-.42zm-12.22-1.35c.05-1.41.46-2.32 1.23-2.74.32-.11.65-.2.98-.28.33-.07.66-.13.99-.17.34-.05.68-.07 1.02-.08.33-.01.67 0 1.01.02.23-.01.45-.01.68-.01s.45.01.68.02l.68.03.68.06c.22.02.44.06.66.13.21.07.42.16.61.28s.36.26.52.42.3.34.41.53c.06.14.12.28.16.43.05.15.08.29.11.45a3.5 3.5 0 0 1 .06.91zM18.2 45v12c0 1.94.39 3.87 1.13 5.66.75 1.8 1.84 3.43 3.21 4.8s3 2.46 4.8 3.21c1.79.74 3.72 1.13 5.66 1.13h13.79c1.95 0 3.87-.38 5.67-1.12a14.85 14.85 0 0 0 8.03-8.01c.74-1.8 1.13-3.72 1.13-5.67v-4.18h8V57c0 1.94.39 3.87 1.13 5.67.75 1.79 1.84 3.42 3.22 4.8 1.37 1.37 3.01 2.46 4.8 3.2 1.8.75 3.73 1.13 5.67 1.13h13.77c1.92.03 3.83-.33 5.62-1.03 1.79-.71 3.42-1.76 4.81-3.1 1.39-1.33 2.5-2.93 3.27-4.69s1.19-3.66 1.24-5.58h-9.54c-.15.91-.46 1.79-.91 2.6-.46.81-1.05 1.53-1.76 2.13-.7.6-1.51 1.07-2.38 1.39s-1.78.48-2.71.48h-9c-1.03 0-2.06-.2-3.01-.6-.95-.39-1.82-.97-2.55-1.7s-1.31-1.6-1.7-2.56c-.39-.95-.59-1.98-.59-3.01v-3.31h34V39.56c0-1.94-.38-3.87-1.12-5.67a14.8 14.8 0 0 0-8.01-8.02c-1.79-.75-3.72-1.14-5.66-1.14H84.44c-1.95 0-3.87.39-5.67 1.13-1.8.75-3.43 1.84-4.81 3.22a14.6 14.6 0 0 0-3.21 4.81 14.7 14.7 0 0 0-1.13 5.67V45h-8v-5.44c0-1.95-.38-3.88-1.13-5.68-.74-1.79-1.84-3.43-3.21-4.81a15 15 0 0 0-4.81-3.21 14.8 14.8 0 0 0-5.68-1.13H33c-1.95 0-3.87.38-5.67 1.12-1.8.75-3.44 1.84-4.82 3.21a14.9 14.9 0 0 0-3.21 4.81 14.7 14.7 0 0 0-1.14 5.67v.8h9.38c.01-1.03.21-2.04.61-2.99.4-.94.98-1.8 1.71-2.52.73-.73 1.59-1.3 2.54-1.69s1.96-.59 2.99-.59h9c1.03 0 2.05.21 3 .6.95.4 1.82.97 2.55 1.7s1.3 1.6 1.7 2.55c.39.95.6 1.97.6 3V45zm9.38 7.82h24.7v3.33c0 1.03-.21 2.05-.6 3-.4.95-.97 1.82-1.7 2.55s-1.6 1.3-2.55 1.7c-.95.39-1.97.6-3 .6h-9c-1.03 0-2.05-.2-3.01-.6-.95-.4-1.82-.98-2.55-1.71s-1.3-1.6-1.7-2.55c-.39-.95-.59-1.98-.59-3.01zM79 40.41c0-1.03.2-2.04.59-2.99s.96-1.82 1.69-2.55a7.871 7.871 0 0 1 5.52-2.31h9c1.03 0 2.05.2 3.01.59.95.4 1.81.98 2.54 1.71s1.31 1.59 1.71 2.54c.39.96.59 1.98.59 3.01V45H79z" style="fill:#00537f"/></svg>