<svg xmlns="http://www.w3.org/2000/svg" viewBox="0 0 131.93 131.93"><defs><style>.cls-1{fill:#00537f;}.cls-2,.cls-3{fill:#fff;}.cls-3{fill-rule:evenodd;}</style></defs><title>Recurso 1</title><g id="Capa_2" data-name="Capa 2"><g id="Capa_1-2" data-name="Capa 1"><path class="cls-1" d="M0,26.37A26.38,26.38,0,0,1,26.38,0h79.18a26.37,26.37,0,0,1,26.37,26.37v79.18a26.37,26.37,0,0,1-26.37,26.38H26.38A26.38,26.38,0,0,1,0,105.55V26.37"/><rect class="cls-2" x="26.19" y="45.04" width="83.98" height="7.78"/><path class="cls-1" d="M27.13,52.71a34.2,34.2,0,0,0,.21,5.22,7.22,7.22,0,0,0,4.45,5.32c2.06,1,3.79.75,7.48.75,3.38,0,5.33.1,6.74-.27a7.9,7.9,0,0,0,5.19-4.34c.59-1.24.67-3,.64-6.68H27.13"/><path class="cls-1" d="M104.12,45a49.11,49.11,0,0,0-.25-6.6,8.12,8.12,0,0,0-4.68-5.3c-1.64-.65-3.35-.56-7-.56a36.8,36.8,0,0,0-6.63.24,7.63,7.63,0,0,0-5.42,4.59c-.74,1.85-.58,3.94-.56,7.63h24.58"/><path class="cls-3" d="M20.52,87.58H18.85v-2h1.67Zm0,13.75H18.85V90.23h1.67Z"/><polygon class="cls-2" points="25.01 101.33 25.01 99.92 35.09 91.64 25.46 91.64 25.46 90.23 37.5 90.23 37.5 91.64 27.39 99.92 37.54 99.92 37.54 101.33 25.01 101.33"/><path class="cls-3" d="M54.19,94.73a4.19,4.19,0,0,0-.33-1.79,2.84,2.84,0,0,0-2.2-1.36,21.62,21.62,0,0,0-2.73-.1,10.19,10.19,0,0,0-4,.51c-.77.42-1.19,1.33-1.24,2.74H54.19M43.65,96.09a13.26,13.26,0,0,0,.09,1.69,2.41,2.41,0,0,0,1.66,2,14.3,14.3,0,0,0,3.65.29,19.25,19.25,0,0,0,3.12-.15,2.26,2.26,0,0,0,2-1.92h1.71a3.31,3.31,0,0,1-3,3.19,20.56,20.56,0,0,1-4,.29q-4.43,0-5.69-1.1c-.91-.79-1.36-2.33-1.36-4.61s.45-3.82,1.36-4.61,2.72-1.1,5.67-1.1a23.32,23.32,0,0,1,3.31.17,4.23,4.23,0,0,1,2.85,1.46c.59.8.88,2.26.86,4.39Z"/><path class="cls-2" d="M61.15,101.33V90.23h1.67v2.2a3.41,3.41,0,0,1,2.41-2.25,15.76,15.76,0,0,1,3.51-.26,14.71,14.71,0,0,1,2.69.18,3.7,3.7,0,0,1,2.45,1.41,5.19,5.19,0,0,1,.61,2.83v7H72.82V94.42a2.86,2.86,0,0,0-.62-2.15c-.58-.52-1.89-.78-3.92-.78a10.41,10.41,0,0,0-3.65.47,2.81,2.81,0,0,0-1.81,2.85v6.52H61.15"/><path class="cls-3" d="M87.25,91.48a24.44,24.44,0,0,0-2.52.08,3.38,3.38,0,0,0-2.25.91,5.46,5.46,0,0,0-.69,3.26c0,1.82.29,3,.86,3.55s2.1.8,4.57.8c1.21,0,2.06,0,2.54-.08A3.37,3.37,0,0,0,92,99.08a5.54,5.54,0,0,0,.69-3.31c0-1.78-.29-2.94-.86-3.48s-2.11-.81-4.61-.81m-7.12-1.25H81.8v1.64a3.26,3.26,0,0,1,2.46-1.62,18.48,18.48,0,0,1,3.11-.18q4.48,0,5.74,1.1c.91.79,1.36,2.33,1.36,4.6s-.45,3.82-1.36,4.62-2.76,1.1-5.75,1.1a17.05,17.05,0,0,1-3.11-.19,3.24,3.24,0,0,1-2.45-1.62V106H80.13Z"/><path class="cls-3" d="M111.72,94.73a3.91,3.91,0,0,0-.33-1.79,2.8,2.8,0,0,0-2.2-1.36,21.53,21.53,0,0,0-2.72-.1,10.25,10.25,0,0,0-4,.51c-.77.42-1.18,1.33-1.23,2.74h10.53m-10.53,1.36a10.27,10.27,0,0,0,.09,1.69,2.38,2.38,0,0,0,1.66,2,14.2,14.2,0,0,0,3.64.29,19.4,19.4,0,0,0,3.13-.15,2.26,2.26,0,0,0,2-1.92h1.7a3.31,3.31,0,0,1-3,3.19,20.7,20.7,0,0,1-4,.29c-3,0-4.85-.37-5.69-1.1s-1.37-2.33-1.37-4.61.46-3.82,1.37-4.61,2.72-1.1,5.67-1.1a23.42,23.42,0,0,1,3.31.17,4.23,4.23,0,0,1,2.85,1.46c.59.8.87,2.26.86,4.39Z"/><path class="cls-2" d="M52.24,45V40.4a7.86,7.86,0,0,0-7.85-7.85h-9a7.84,7.84,0,0,0-7.85,7.79l-9.38,0v-.8A14.83,14.83,0,0,1,33,24.73H46.79A14.83,14.83,0,0,1,61.62,39.56V45h8V39.56A14.83,14.83,0,0,1,84.44,24.73H98.21A14.82,14.82,0,0,1,113,39.56V52.82H79v3.31A7.84,7.84,0,0,0,86.85,64h9a7.86,7.86,0,0,0,7.76-6.6l9.54,0A14.75,14.75,0,0,1,98.21,71.8H84.44A14.82,14.82,0,0,1,69.62,57V52.82h-8V57A14.82,14.82,0,0,1,46.79,71.8H33A14.82,14.82,0,0,1,18.2,57V45h34M27.58,52.82v3.31A7.85,7.85,0,0,0,35.43,64h9a7.86,7.86,0,0,0,7.85-7.85V52.82ZM79,45h24.65V40.41a7.84,7.84,0,0,0-7.85-7.85h-9A7.84,7.84,0,0,0,79,40.41Z"/></g></g></svg>