<svg xmlns="http://www.w3.org/2000/svg" fill="none" viewBox="0 0 600 300"><g fill-opacity=".988" clip-path="url(#a)"><path fill="#000" d="M78.918 138.082h-7.37L59.87 164.559h7.623l2.1-5.149h11.172l2.1 5.149h7.77zm-.336 15.802h-6.825l3.423-8.469zm39.354-15.802h-7.329v14.1l-11.697-14.1h-6.153v26.477h7.329v-14.1l11.697 14.1h6.153zm2.793 5.946h8.148v20.531h7.476v-20.531h8.085v-5.946h-23.709zm-87.633-5.946v14.667q0 5.926 3.276 9.141 3.255 3.194 9.177 3.194 5.88 0 9.156-3.194 3.276-3.215 3.276-9.141v-14.667h-7.392v14.457q0 6.346-4.977 6.346-5.02 0-5.02-6.346v-14.457zm-5.607 6.157q-1.911-3.132-5.25-4.917-3.339-1.766-7.56-1.766-4.179 0-7.518 1.766-3.36 1.785-5.271 4.917Q0 147.391 0 151.32q0 3.447 1.491 6.304a12.76 12.76 0 0 0 4.158 4.77q2.688 1.912 6.132 2.459 2.226 2.353 4.032 3.656 1.785 1.303 3.549 1.87 1.806.567 3.969.568 2.268 0 4.2-.841a9 9 0 0 0 3.234-2.48l-3.255-3.866q-1.785 1.85-4.032 1.849a3.8 3.8 0 0 1-1.596-.336q-.714-.336-1.47-1.177 4.116-1.449 6.552-4.896 2.436-3.404 2.436-7.88 0-3.929-1.911-7.081m-6.615 3.131q.945 1.701.945 3.95 0 2.228-.945 3.951-.924 1.723-2.562 2.668-1.617.946-3.633.946-1.995 0-3.612-.946-1.617-.945-2.583-2.668-.945-1.723-.945-3.951 0-2.249.945-3.95.966-1.724 2.583-2.669t3.612-.946q2.016 0 3.633.946 1.638.945 2.562 2.669m330.646-9.288h-1.911v26.477h17.157v-1.745H351.52zm-12.621 1.765q-2.394-1.765-6.7-1.765h-11.025v26.477h11.782q4.849 0 7.307-1.808 2.436-1.827 2.436-5.19-.001-2.71-1.49-4.413-1.491-1.722-4.305-2.248 2.016-.672 3.212-2.228 1.198-1.554 1.198-3.824 0-3.236-2.415-5.001m-15.814-.084h9.051q3.464 0 5.356 1.324 1.847 1.344 1.848 3.908 0 2.627-1.848 3.951-1.892 1.344-5.356 1.345h-9.051zm9.871 23.136h-9.871v-10.927h9.871q3.864 0 5.836 1.323 1.995 1.304 1.995 4.119 0 2.794-1.995 4.14-1.972 1.344-5.836 1.345m63.755-11.579q0-3.825-1.806-6.892-1.806-3.047-4.934-4.812-3.129-1.723-7.035-1.723-3.886 0-7.036 1.744-3.128 1.785-4.913 4.854-1.807 3.047-1.807 6.829 0 3.783 1.807 6.85 1.784 3.069 4.913 4.812 3.15 1.766 7.036 1.766 3.906 0 7.035-1.745a12.77 12.77 0 0 0 4.934-4.79q1.806-3.068 1.806-6.893m-3.528-5.947q1.554 2.649 1.554 5.947 0 3.278-1.554 5.968a11.24 11.24 0 0 1-4.221 4.161q-2.708 1.513-6.026 1.513-3.319 0-6.027-1.513t-4.242-4.161q-1.554-2.69-1.554-5.968 0-3.298 1.554-5.947a10.9 10.9 0 0 1 4.242-4.202q2.708-1.513 6.027-1.513t6.026 1.513a11.14 11.14 0 0 1 4.221 4.202m9.597 5.947q0-3.298 1.555-5.947a10.87 10.87 0 0 1 4.263-4.202q2.729-1.513 6.048-1.513 4.934 0 8.127 3.152l1.217-1.24q-1.7-1.807-4.116-2.753-2.436-.924-5.312-.924-3.885 0-7.015 1.723-3.108 1.765-4.892 4.812-1.807 3.067-1.807 6.892t1.807 6.893a12.66 12.66 0 0 0 4.892 4.79q3.13 1.745 7.015 1.745 2.855 0 5.291-.946 2.437-.945 4.137-2.753l-1.217-1.26q-3.215 3.173-8.127 3.173-3.32 0-6.048-1.513-2.73-1.513-4.263-4.161-1.555-2.69-1.555-5.968m-230.895 1.429v-14.667h-7.392v14.457q0 6.346-4.977 6.346-5.019 0-5.019-6.346v-14.457H147v14.667q0 5.926 3.276 9.141 3.255 3.194 9.177 3.194 5.88 0 9.156-3.194 3.276-3.215 3.276-9.141m11.214-14.667h-6.153v26.477h6.909V150.9l6.783 11.053h3.318l6.804-11.431.084 14.037h6.867l-.084-26.477h-6.132l-9.093 15.276zm415.695 2.185q-1.553-1.093-3.653-1.723a14.7 14.7 0 0 0-4.326-.651q-3.13 0-5.23.945-2.099.946-3.107 2.564a6.4 6.4 0 0 0-1.03 3.53q0 2.375 1.24 3.803a7.5 7.5 0 0 0 2.981 2.102q1.744.672 4.662 1.387 2.563.609 4.095 1.177 1.512.567 2.522 1.617 1.007 1.073 1.007 2.858 0 2.29-1.912 3.72-1.931 1.45-5.712 1.45-2.604 0-4.976-.925-2.352-.924-3.739-2.395l-.902 1.428q1.491 1.598 4.116 2.585a15.3 15.3 0 0 0 5.543 1.009q3.13 0 5.272-.946 2.162-.945 3.191-2.522a6.2 6.2 0 0 0 1.072-3.53q0-2.354-1.24-3.719a7.4 7.4 0 0 0-2.981-2.059q-1.722-.694-4.62-1.408-2.626-.652-4.137-1.198-1.513-.588-2.541-1.639-1.01-1.072-1.009-2.837 0-2.354 1.891-3.824 1.89-1.471 5.544-1.471 1.87 0 3.758.567 1.913.567 3.507 1.66zm-93.177-2.185h-1.911v12.188h-17.702v-12.188h-1.911v26.477h1.911v-12.587h17.702v12.587h1.911zm-54.39 0h-2.331l-16.527 17.021v-17.021h-1.911v26.477h1.911v-6.956l5.944-6.094 11.381 13.05h2.33l-12.43-14.437zm11.004 3.089q2.731-1.513 6.048-1.513 4.936 0 8.127 3.152l1.219-1.24q-1.702-1.807-4.116-2.753-2.437-.924-5.314-.924-3.885 0-7.013 1.723-3.108 1.765-4.895 4.812-1.803 3.067-1.804 6.892 0 3.825 1.804 6.893a12.67 12.67 0 0 0 4.895 4.79q3.128 1.745 7.013 1.745 2.857 0 5.293-.946 2.435-.945 4.137-2.753l-1.219-1.26q-3.212 3.173-8.127 3.173-3.317 0-6.048-1.513t-4.263-4.161q-1.554-2.69-1.553-5.968-.001-3.298 1.553-5.947a10.9 10.9 0 0 1 4.263-4.202m111.952-3.089h-1.911v23.009l-17.998-23.009h-1.617v26.477h1.911V141.57l18.04 22.989h1.575zm-49.666 0h-1.911l-12.18 26.477h2.079l3.361-7.439h15.35l3.403 7.439h2.079zm-.965 2.122 6.951 15.277h-13.882zm19.865-2.122h-1.911v26.477h1.911z"/><path fill="#7ec7ba" d="m256.305 168.719-18.984-18.996 18.984-18.996V85.359H95.55v44.485h21v-23.472h118.755v87.164H116.55v-21.665h-21v42.678h139.755v61.359h21zM295.471 24h-21v107.462l-18.25 18.261 18.25 18.261v46.565h160.756v-42.678h-21v21.665H295.471v-87.164h118.756v23.472h21V85.359H295.471z"/></g><defs><clipPath id="a"><path fill="#fff" d="M0 24h600v251.908H0z"/></clipPath></defs></svg>