<svg xmlns="http://www.w3.org/2000/svg" viewBox="0 0 128 58" fill="none" class="_logo_tx8g2_56"><path fill="#25EE32" d="M8.04.79a2.702 2.702 0 0 0-2.704 2.703A2.702 2.702 0 0 0 8.04 6.196a2.702 2.702 0 0 0 2.704-2.703A2.702 2.702 0 0 0 8.04.789Z"></path><path fill="#000" d="M51.228 16.727h-9.463c.071-1.281.57-2.42 1.423-3.202.854-.925 2.135-1.423 3.558-1.423 1.352 0 2.632.498 3.415 1.494.782.925.996 2.134 1.067 3.13Zm4.34 3.628v-1.28c0-.997 0-2.064-.213-3.131a9.34 9.34 0 0 0-1.423-3.7c-.783-1.21-1.779-2.134-2.917-2.775-1.139-.64-2.49-.996-3.842-1.067-2.846-.142-5.55.996-7.187 2.988-1.992 2.348-2.419 5.337-2.419 7.4 0 2.348.498 4.34 1.495 6.048a8.68 8.68 0 0 0 4.909 3.913c.996.284 1.992.427 2.988.427 1.139 0 2.206-.143 3.273-.498 2.206-.712 3.913-2.206 4.767-4.198l.213-.498-3.272-2.206-.356.712c-.498 1.067-1.423 1.992-2.49 2.419-1.068.427-2.348.569-3.558.284a4.388 4.388 0 0 1-2.917-1.92c-.498-.783-.783-1.708-.854-2.847H55l.57-.07ZM0 12.814h6.688v15.795h3.984V8.9H0v3.914ZM60.904 28.609h3.985V12.814h6.688V8.9H60.904V28.61ZM121.666 8.9h-1.067c-1.636 0-3.202.356-4.482.996V8.83h-3.985v19.78h3.985v-13.02c0-.712.213-1.353.711-1.85.143-.143.285-.285.498-.428.712-.498 1.708-.782 2.846-.782 2.562 0 3.842 1.494 3.842 4.482V28.61h3.985V16.513c.071-4.411-2.348-7.328-6.333-7.613ZM82.036.79h-9.392v3.912h5.407v19.993h-2.988v3.914h10.032v-3.914h-3.06V.79ZM100.606 24.268l-.356.356-.142.071c-.57.356-1.352.64-2.206.783-.284 0-.57.071-.854.071h-.996c-1.21-.142-2.561-.64-2.561-2.348v-.782c0-.57 0-2.277 4.411-2.277h3.415v2.49c0 .57-.213 1.067-.64 1.494l-.071.142Zm4.696-8.965c0-4.197-2.917-6.83-7.684-6.83-4.198 0-6.689 2.135-7.614 4.056l-.213.427 2.775 2.063.284-.498c.997-1.708 2.42-2.49 4.483-2.49 2.561 0 3.913 1.21 3.913 3.557v1.28h-3.415c-5.692 0-8.538 1.993-8.538 5.977 0 3.771 2.704 6.19 6.973 6.19h.569c1.85 0 3.557-.427 4.909-1.28v.854h6.119v-3.914h-2.561v-9.392ZM30.096 8.9l-8.822 7.827V.789H17.29v27.82h3.984v-6.617l2.775-2.42 6.617 8.823.213.214h4.98L27.038 16.94l9.036-8.04h-5.977ZM6.688 38.285h.783l1.28 2.064 1.281-2.064h.711v4.483h-.711v-3.202l-1.28 2.063-1.353-2.063v3.202h-.711v-4.483ZM11.668 38.285h3.06v.712H12.38v1.138h2.063v.712H12.38v1.21h2.419v.71h-3.13v-4.482ZM15.44 38.285h.782l1.28 2.064 1.282-2.064h.782v4.483h-.782v-3.202l-1.281 2.063-1.352-2.063v3.202h-.711v-4.483ZM22.27 40.846H21.13v1.21h1.21c.498 0 .783-.213.783-.64 0-.356-.285-.57-.854-.57Zm.64-1.28c0-.356-.284-.57-.711-.57H21.13v1.21h.997c.498-.07.782-.284.782-.64Zm-2.49-1.28h1.85c.498 0 .854.142 1.067.426.213.213.285.427.285.712 0 .569-.285.853-.57.996.498.213.854.498.854 1.067 0 .782-.64 1.21-1.565 1.21H20.42v-4.412ZM24.547 38.285h3.06v.712h-2.349v1.138h2.064v.712h-2.064v1.21h2.348v.71h-3.06v-4.482ZM30.097 40.49c.498 0 .853-.284.853-.711 0-.498-.355-.712-.853-.712h-1.068v1.495h1.068v-.072Zm-1.78-2.205h1.85c.499 0 .926.142 1.21.427.214.213.356.569.356.996 0 .711-.427 1.138-.996 1.352l1.138 1.707h-.853l-.996-1.565H29.1v1.565h-.712v-4.482h-.071ZM37.425 40.49c0-.853-.57-1.636-1.423-1.636-.854 0-1.423.712-1.423 1.565 0 .854.57 1.566 1.423 1.566.854.07 1.423-.57 1.423-1.495Zm-3.629 0c0-1.28.925-2.347 2.206-2.347 1.28 0 2.134 1.067 2.134 2.276 0 1.281-.924 2.277-2.205 2.277-1.28 0-2.135-.925-2.135-2.206ZM38.848 38.285h3.13v.712H39.63v1.21h2.064v.71H39.63v1.85h-.782v-4.482ZM46.034 40.846h-1.138v1.21h1.21c.497 0 .782-.213.782-.64 0-.356-.285-.57-.854-.57Zm.64-1.28c0-.356-.284-.57-.711-.57h-1.067v1.21h.996c.427-.07.782-.284.782-.64Zm-2.49-1.28h1.85c.498 0 .854.142 1.067.426.214.213.285.427.285.712 0 .569-.285.853-.57.996.499.213.854.498.854 1.067 0 .782-.64 1.21-1.565 1.21h-1.92v-4.412ZM50.801 40.989l-.711-1.779-.712 1.779h1.423Zm-1.067-2.775h.64l1.85 4.482h-.783l-.427-1.067h-1.92l-.427 1.139h-.712l1.779-4.554ZM52.438 42.056l.426-.57c.427.356.783.57 1.281.57.427 0 .712-.214.712-.57 0-.284-.143-.497-.925-.71-.854-.214-1.352-.499-1.352-1.353 0-.782.569-1.28 1.423-1.28.569 0 1.067.213 1.494.569l-.427.569c-.356-.285-.712-.427-1.138-.427-.427 0-.64.214-.64.498 0 .356.213.498.995.712.854.213 1.352.569 1.352 1.28 0 .854-.64 1.352-1.494 1.352-.64.071-1.21-.142-1.708-.64ZM59.054 41.914l-.711-.64.498-.57.711.712c.143-.214.214-.498.214-.854 0-.854-.57-1.566-1.423-1.566-.854 0-1.423.712-1.423 1.566 0 .854.57 1.565 1.423 1.565.213-.071.498-.142.711-.213Zm.996.925-.498-.498c-.355.284-.782.426-1.28.426-1.281 0-2.135-1.067-2.135-2.276 0-1.281.925-2.277 2.206-2.277 1.28 0 2.134 1.067 2.134 2.277 0 .498-.142.996-.427 1.352l.498.426-.498.57ZM61.118 40.846v-2.561h.711v2.561c0 .854.427 1.28 1.067 1.28.64 0 1.068-.426 1.068-1.209v-2.561h.711v2.561c0 1.352-.711 1.992-1.779 1.992-1.138-.07-1.778-.782-1.778-2.063ZM65.458 38.285h3.06v.712H66.24v1.138h2.063v.712h-2.063v1.21h2.348v.71h-3.131v-4.482ZM72.644 40.49c.498 0 .854-.284.854-.71 0-.499-.285-.712-.854-.712h-1.067v1.494h1.067v-.071Zm-1.779-2.205h1.85c.498 0 .925.143 1.21.427.213.213.355.57.355.996 0 .712-.427 1.139-.996 1.352l1.139 1.708h-.854l-.996-1.566h-.925v1.566h-.712v-4.483h-.07ZM74.992 38.285h3.06v.712h-2.349v1.138h2.063v.712h-2.063v1.21h2.348v.71h-3.06v-4.482ZM78.478 42.056l.427-.57c.427.356.783.57 1.28.57.427 0 .712-.214.712-.57 0-.284-.142-.497-.925-.71-.854-.214-1.352-.499-1.352-1.353 0-.782.57-1.28 1.423-1.28.57 0 1.068.213 1.494.569l-.426.569c-.356-.285-.712-.427-1.139-.427-.427 0-.64.214-.64.498 0 .356.213.498.996.712.854.213 1.352.569 1.352 1.28 0 .854-.64 1.352-1.494 1.352-.64.071-1.21-.142-1.708-.64ZM82.392 38.285h3.059v.712h-2.348v1.138h2.063v.712h-2.063v1.21h2.348v.71h-3.06v-4.482ZM88.653 40.989l-.712-1.779-.711 1.779h1.423Zm-.997-2.775h.64l1.85 4.482h-.782l-.427-1.067h-1.992l-.427 1.067h-.711l1.85-4.482ZM92.494 40.49c.499 0 .854-.284.854-.711 0-.498-.284-.712-.854-.712h-1.067v1.495h1.067v-.072Zm-1.85-2.205h1.85c.499 0 .925.142 1.21.427.213.213.356.569.356.996 0 .711-.427 1.138-.996 1.352l1.138 1.707h-.854l-.996-1.565h-.925v1.565h-.711v-4.482h-.072ZM94.558 40.49c0-1.28.853-2.347 2.134-2.347.783 0 1.21.284 1.637.711l-.498.57c-.356-.356-.712-.57-1.139-.57-.782 0-1.352.712-1.352 1.565 0 .854.57 1.566 1.352 1.566.498 0 .854-.214 1.21-.57l.498.498c-.427.499-.925.783-1.708.783-1.21.143-2.134-.925-2.134-2.206ZM99.112 38.285h.711v1.85h1.993v-1.85h.711v4.483h-.711v-1.922h-1.993v1.922h-.711v-4.483ZM8.609 46.396a.486.486 0 0 0-.498-.498c-.285 0-.498.214-.498.57 0 .213.071.355.284.64.499-.143.712-.356.712-.712Zm0 2.42-.925-.997c-.356.214-.57.427-.57.712 0 .355.285.64.712.64.285.071.57-.071.783-.356Zm.427.497c-.356.356-.783.57-1.28.57-.783 0-1.353-.498-1.353-1.281 0-.57.285-.996.854-1.28-.213-.357-.356-.641-.356-.926 0-.569.427-1.138 1.21-1.138.64 0 1.067.498 1.067 1.067 0 .57-.356.925-.925 1.139l.712.782.427-.854.569.285a4.535 4.535 0 0 1-.57.996l.641.712-.427.498-.57-.57ZM13.02 46.111h-1.28v-.782h3.344v.782h-1.352v3.7h-.712v-3.7ZM15.653 45.329h3.06v.711h-2.349v1.21H18.5v.64h-2.135v1.21h2.42v.711h-3.131V45.33ZM19.282 47.606c0-1.28.854-2.348 2.134-2.348.783 0 1.21.284 1.637.711l-.498.57c-.356-.356-.712-.57-1.139-.57-.782 0-1.352.712-1.352 1.566 0 .853.57 1.565 1.352 1.565.498 0 .854-.214 1.21-.57l.498.499c-.427.498-.925.782-1.708.782-1.21.072-2.134-.925-2.134-2.205ZM23.764 45.329h.712v1.85h1.992v-1.85h.711v4.482h-.711v-1.85h-1.992v1.85h-.712V45.33ZM28.247 45.329h.64l2.206 3.13v-3.13h.711v4.482h-.57l-2.276-3.13v3.13h-.711V45.33ZM36.215 47.606c0-.854-.569-1.637-1.423-1.637-.854 0-1.423.712-1.423 1.566 0 .853.57 1.565 1.423 1.565.854.071 1.423-.64 1.423-1.494Zm-3.557 0c0-1.28.925-2.348 2.205-2.348 1.281 0 2.135 1.067 2.135 2.277 0 1.28-.925 2.276-2.206 2.276-1.28.072-2.134-.925-2.134-2.205ZM37.78 45.329h.783v3.77h2.135v.712H37.78V45.33ZM44.54 47.606c0-.854-.57-1.637-1.423-1.637-.854 0-1.423.712-1.423 1.566 0 .853.57 1.565 1.423 1.565.854.071 1.423-.64 1.423-1.494Zm-3.558 0c0-1.28.925-2.348 2.206-2.348 1.28 0 2.135 1.067 2.135 2.277 0 1.28-.925 2.276-2.206 2.276-1.28 0-2.135-.925-2.135-2.205ZM45.963 47.606c0-1.28.854-2.348 2.134-2.348.712 0 1.139.213 1.566.64l-.427.57c-.285-.285-.64-.499-1.139-.499-.782 0-1.352.712-1.352 1.566 0 .925.57 1.565 1.424 1.565a1.7 1.7 0 0 0 .996-.356v-.854h-1.068v-.711h1.78v1.992c-.428.356-.997.712-1.709.712-1.351 0-2.205-.997-2.205-2.277ZM51.868 48.032l-1.636-2.703h.854l1.21 1.992 1.138-1.992h.854l-1.637 2.703v1.78h-.783v-1.78ZM58.841 48.032l-.712-1.778-.711 1.778h1.423Zm-1.067-2.703h.64l1.85 4.482h-.783l-.427-1.067h-1.992l-.427 1.067h-.711l1.85-4.482ZM60.833 45.329h.712v3.77h2.205v.712h-2.917V45.33ZM64.32 45.329h.71v3.77h2.207v.712h-2.918V45.33ZM68.588 45.329h-.711v4.482h.712V45.33ZM72.004 48.032l-.712-1.778-.711 1.778h1.423Zm-.996-2.703h.64l1.85 4.482h-.783l-.427-1.067h-1.992l-.427 1.067h-.711l1.85-4.482ZM73.996 45.329h.711l2.206 3.13v-3.13h.711v4.482h-.64l-2.277-3.13v3.13h-.711V45.33ZM78.336 47.606c0-1.28.854-2.348 2.134-2.348.783 0 1.21.284 1.637.711l-.498.57c-.356-.356-.712-.57-1.139-.57-.782 0-1.351.712-1.351 1.566 0 .853.569 1.565 1.351 1.565.499 0 .854-.214 1.21-.57l.498.499c-.427.498-.925.782-1.708.782-1.21.072-2.134-.925-2.134-2.205ZM82.747 45.329h3.06v.711h-2.348v1.21h2.063v.64h-2.063v1.21h2.347v.711h-3.059V45.33Z"></path><path fill="#FEDB00" d="M27.749 54.507H6.617v2.704H27.75v-2.704Z"></path></svg>