<svg xmlns="http://www.w3.org/2000/svg" xml:space="preserve" style="fill-rule:evenodd;clip-rule:evenodd;stroke-linejoin:round;stroke-miterlimit:2" viewBox="0 0 327 70"><path d="M285.569 80.252v8.987l2.938 1.697.004-8.988 18.505-10.684-2.939-1.697zm76.694-10.298v-1.322h-2.938v20.277h2.938v-7.347c4.69 3.449 11.461.139 11.461-5.804 0-5.939-6.768-9.255-11.461-5.804m-12.999 7.432-3.901-8.755h-3.217l5.509 12.365-3.525 7.912h3.217l9.035-20.277h-3.217zm-42.248-.525-13.658 7.885-.003 3.391 13.659-7.886zm-29.228 7.886v-8.989l18.505-10.683 2.936 1.693-18.454 10.687-.052 8.99zm119.838-14.793c-4.69-3.449-11.461-.139-11.461 5.804 0 5.939 6.768 9.255 11.461 5.804v1.322h2.939V68.632h-2.939zm14.421 5.804c-1.678-1.56-3.963-1.262-4.939-2.126-1.047-.927.032-2.135 1.454-2.135 1.021 0 1.874.629 1.874 1.322h2.938c0-2.353-2.154-4.261-4.812-4.261-2.657 0-4.812 1.908-4.812 4.261 0 1.934 1.447 3.539 3.386 4.071 2.181.602 2.101.57 2.269.632.514.193 1.031.626 1.031 1.174 0 .9-1.423 1.659-2.716 1.175-.515-.193-1.031-.626-1.031-1.175h-2.939c0 2.354 2.155 4.262 4.812 4.262 4.257 0 6.369-4.519 3.485-7.2m-90.043-4.261a4.26 4.26 0 0 1 3.947 2.65h3.072a7.2 7.2 0 1 0-.004 3.24h-3.076a4.26 4.26 0 0 1-3.939 2.632 4.26 4.26 0 0 1-4.261-4.261 4.26 4.26 0 0 1 4.261-4.261m57.602-8.89h-2.938v13.722a6.555 6.555 0 0 0 6.555 6.555v-2.939a3.614 3.614 0 0 1-3.617-3.616V71.57h3.617v-2.939h-3.617zm-40.404 6.025a7.16 7.16 0 0 0-4.298 1.396v-1.396h-2.938v14.252h2.938v-7.053c0-2.355 1.943-4.261 4.298-4.261zm-50.693-8.053L270 71.265v8.985l2.94 1.698.005-8.979 18.501-10.693zm81.028 18.192c-2.699 2.699-7.274.743-7.274-3.014a4.26 4.26 0 0 1 4.261-4.26c3.815 0 5.67 4.617 3.013 7.274m20.815 0a4.26 4.26 0 0 1 0-6.026c2.698-2.698 7.274-.743 7.274 3.013 0 3.76-4.58 5.707-7.274 3.013" style="fill:#84d1e0;fill-rule:nonzero" transform="translate(-614.244 -137.818)scale(2.27498)"/></svg>