<svg xmlns="http://www.w3.org/2000/svg" baseProfile="tiny-ps" viewBox="0 0 675 238"><title>Garantir</title><style>.shp0{fill:#35803e}</style><path id="G1" d="M257.46 169.15v-21.78c0-2.87-1.18-4.83-5-4.83h-27.61c-5.48 0-6.13 8.61 0 8.61h23.48v17.35c-5.74 7.7-15.78 11.87-25.44 11.74-16.82-.39-31.69-15.78-31.95-34.17 0-17.09 12.52-29.74 26.87-33.13 9.78-2.48 21.91.52 29.21 9 4 4.69 10.7-1.57 6.79-6.13-7.18-8.35-19.31-12.26-30.66-12.26-.57 0-1.13 0-1.7.02-.56.01-1.13.04-1.7.07a48 48 0 0 0-3.38.3c-20 3.78-34.82 21.91-34.82 41.74-.53 24.65 18.78 43.32 41.21 43.45 12.65.13 25.57-5.5 33.26-15.67a5.9 5.9 0 0 0 1.14-2.01c.13-.37.21-.75.26-1.14.05-.38.07-.77.04-1.16" class="shp0"/><path id="a2" d="M305.65 189.49h1.37c7.7 0 17.35-4.32 21.13-11.87v6.24c-.06.63.02 1.27.24 1.87.21.6.56 1.14 1.01 1.59.44.45.99.8 1.58 1.01.6.22 1.24.31 1.87.25.64.05 1.28-.04 1.87-.26a4.53 4.53 0 0 0 2.65-2.59c.23-.6.33-1.23.3-1.87v-57.75c.02-.63-.09-1.26-.32-1.85-.24-.59-.6-1.12-1.05-1.57-.45-.44-1-.78-1.59-1s-1.23-.32-1.86-.28c-.63-.05-1.26.04-1.85.26s-1.13.57-1.58 1.01c-.44.45-.79.99-1.01 1.58s-.31 1.22-.26 1.85v5c-4.69-7.7-13.17-10-20.61-10.18h-1.89v9.05c.59 0 1.18-.05 1.76 0 11.74.52 20.74 7.15 20.74 20.05v10.28c-.65 13-10 20.3-22 20.3h-.46zm-11.93-66.25c-12.52 4.83-19.83 16.94-20.09 30.07v2.38c.27 11.76 5.32 21.89 14.62 28.23 1.28.87 2.62 1.64 4.01 2.32 1.39.67 2.82 1.25 4.29 1.73 1.48.47 2.98.84 4.5 1.1 1.53.26 3.07.41 4.61.45v-9c-1.17-.1-2.33-.27-3.48-.53-1.14-.26-2.27-.6-3.37-1.01-1.09-.42-2.16-.91-3.19-1.47a25 25 0 0 1-2.96-1.9c-7-5.85-9.78-13.66-9.52-22.13.02-.82.09-1.65.18-2.46.1-.82.23-1.64.4-2.44.17-.81.37-1.61.61-2.4.23-.79.5-1.56.81-2.33 3.42-8.54 11.88-13.41 20.54-13.88v-9.05c-1.03 0-2.07.05-3.1.15-1.02.11-2.05.26-3.06.47q-1.515.315-3 .78c-.98.32-1.95.68-2.9 1.09z" class="shp0"/><path id="r3" d="M366.89 125.85c0-6.26-9.26-5.74-9.26 0v57.78a4.537 4.537 0 0 0 1.39 3.37c.46.43 1 .77 1.59.98s1.22.29 1.85.24c.61.01 1.22-.09 1.79-.32.57-.22 1.09-.56 1.52-.99a4.3 4.3 0 0 0 1.02-1.5c.24-.56.36-1.17.36-1.78v-29.48c0-13.17 5.74-23.87 19.17-23.87 3 0 5-1.56 5-4.43s-2-4.57-5-4.57c-7.43 0-15.26 2.35-19.43 11.09z" class="shp0"/><path id="a4" d="M430 189.49h1.37c7.7 0 17.35-4.32 21.13-11.87v6.24c-.06.63.02 1.27.24 1.87.21.6.56 1.14 1.01 1.59.44.45.99.8 1.58 1.01.6.22 1.24.31 1.87.25.64.05 1.28-.04 1.88-.26a4.7 4.7 0 0 0 1.6-1.01c.45-.45.81-.99 1.04-1.58.24-.6.34-1.23.31-1.87v-57.75c.02-.63-.09-1.27-.33-1.85a4.6 4.6 0 0 0-1.05-1.57 4.5 4.5 0 0 0-1.59-1c-.59-.22-1.23-.32-1.86-.28-.63-.05-1.26.04-1.85.26s-1.13.57-1.58 1.01c-.44.45-.79.99-1.01 1.58s-.31 1.22-.26 1.85v5c-4.69-7.7-13.17-10-20.6-10.18H430v9.05c.59 0 1.18-.05 1.77 0 11.73.52 20.73 7.15 20.73 20.05v10.28c-.65 13-10 20.3-22 20.3h-.46zm-12-66.25c-12.52 4.83-19.83 16.94-20.09 30.07v2.39c.28 11.74 5.33 21.86 14.62 28.19 1.28.87 2.62 1.64 4.01 2.32 1.39.67 2.82 1.25 4.29 1.73 1.48.47 2.98.84 4.5 1.1 1.53.26 3.07.41 4.61.45v-9a25.073 25.073 0 0 1-6.85-1.54c-1.09-.41-2.16-.91-3.19-1.47a25 25 0 0 1-2.96-1.9c-7.05-5.85-9.79-13.66-9.53-22.13.03-.82.09-1.65.18-2.46.1-.82.23-1.64.4-2.44.17-.81.37-1.61.61-2.4.23-.79.51-1.56.81-2.33 3.42-8.54 11.88-13.41 20.54-13.88v-9.05c-1.03 0-2.07.05-3.1.15-1.02.11-2.05.26-3.06.47q-1.515.315-3 .78c-.98.32-1.95.68-2.9 1.09z" class="shp0"/><path id="n5" d="M536.71 184.15c0 2.87 2 4.59 4.83 4.59s4.69-1.72 4.69-4.59v-34.56c0-18.78-14.47-29.22-29.6-29.22-10.18 0-20.22 4-24.92 13.57v-8.09c0-6.26-9.39-6.13-9.39-.13v58.43c0 2.87 2 4.59 5 4.59S492 187 492 184.15v-30.26c.02-3.22.66-6.41 1.9-9.39 1.23-2.97 3.04-5.68 5.31-7.96 2.28-2.29 4.97-4.11 7.94-5.36s6.16-1.91 9.38-1.94c2.67-.01 5.31.52 7.77 1.54 2.47 1.02 4.7 2.52 6.58 4.42 1.88 1.89 3.37 4.14 4.37 6.61 1.01 2.47 1.51 5.11 1.49 7.78z" class="shp0"/><path id="t6" d="M579.62 121.55v-15.13c0-6.14-9.39-6.27-9.39 0v15.13h-8.6c-5.77 0-6.16 8.21 0 8.21h8.6V165c0 12.39 3.79 23.89 19.44 23.89.86.04 1.73.03 2.59-.05.86-.07 1.72-.2 2.56-.39.85-.19 1.68-.44 2.49-.74s1.6-.65 2.36-1.06c5.87-3.26 1.57-11-3.91-7.83-.48.23-.97.43-1.46.61-.5.18-1.01.32-1.53.45q-.765.18-1.56.27c-.52.07-1.05.1-1.58.11-8.87 0-10-7.83-10-15.26v-35.24h14.22a4.117 4.117 0 0 0 4.47-4.11 4.11 4.11 0 0 0-4.47-4.1z" class="shp0"/><path id="i7" d="M614.32 184.54c0 5.63 9.52 5.76 9.52 0v-58.82c0-5.61-9.52-5.48-9.52.13zm9.68-78.65c0-6-9.78-6-9.78 0v5.87c0 6 9.78 5.87 9.78 0z" class="shp0"/><path id="r8" d="M650.58 125.85c0-6.26-9.26-5.74-9.26 0v57.78a4.537 4.537 0 0 0 1.39 3.37c.46.43 1 .77 1.59.98s1.22.29 1.85.24c.61.01 1.22-.09 1.79-.32.57-.22 1.09-.56 1.52-.99a4.3 4.3 0 0 0 1.02-1.5c.24-.56.36-1.17.36-1.78v-29.48c0-13.17 5.74-23.87 19.17-23.87 3 0 5-1.56 5-4.43s-2-4.57-5-4.57c-7.43 0-15.26 2.35-19.43 11.09z" class="shp0"/><path id="Circle" fill-rule="evenodd" d="M50.67 163.62a29.72 29.72 0 0 1 8.69 20.99c0 7.87-3.13 15.42-8.69 20.99a29.72 29.72 0 0 1-20.99 8.69v-4.36c6.72 0 13.16-2.67 17.9-7.42a25.29 25.29 0 0 0 7.42-17.9c0-6.72-2.67-13.16-7.42-17.9a25.29 25.29 0 0 0-17.9-7.42v-4.36c7.87 0 15.42 3.13 20.99 8.69m-41.98 0A29.72 29.72 0 0 0 0 184.61c0 7.87 3.13 15.42 8.69 20.99a29.72 29.72 0 0 0 20.99 8.69v-4.36c-6.72 0-13.16-2.67-17.9-7.42a25.29 25.29 0 0 1-7.42-17.9c0-6.72 2.67-13.16 7.42-17.9a25.29 25.29 0 0 1 17.9-7.42v-4.36a29.72 29.72 0 0 0-20.99 8.69" class="shp0"/><path id="Lock bottom" fill-rule="evenodd" d="M86.27 144.87c15.47-.41 49-.8 63.36-1.17l4.92-.13v58c0 11.76-7.8 22.35-17.52 23.59l-45.63 5.78-51.12 6.5c-12.57 1.59-23.07-8.35-23.07-22.16v-3.74a29.6 29.6 0 0 0 11.42 2.74 29.7 29.7 0 0 0 11.58-1.9v.62l.11.11L91.38 208l45.62-4.58c.01-.01.02-.01.03-.02s.02-.02.02-.03c.01-.01.02-.02.02-.03 0-.02.01-.03.01-.04v-36.83l-50.63 2.74c.01-8.14-.05-16.25-.18-24.34" style="fill:#343434"/><path id="Lock top" fill-rule="evenodd" d="m89.76.24 1.64.2C117.67 4.23 138 31.39 138 60.93v15.28c9.28 1.14 16.59 11 16.59 22.32v32.68c-1.45-.08-2.91-.13-4.37-.16-1.45-.03-2.91-.03-4.37 0-1.45.02-2.91.07-4.36.15-1.46.08-2.91.18-4.36.31V98c0-.01-.01-.02-.01-.03s-.01-.02-.01-.03c-.01-.01-.01-.02-.02-.03-.01 0-.01-.01-.02-.02l-45.69-1.44h-1.62v-23l1.62.1L127 75.54V60.08c0-22.57-15.61-43-35.54-45.6-.55-.07-1.09-.12-1.64-.16zM17.17 157.68c.01-.01.03-.01.04-.02v.02zm.04-.02c1.78-.82 3.63-1.46 5.53-1.92 1.92-.46 3.88-.73 5.85-.8a29.7 29.7 0 0 1 11.58 1.9V94.97c0-.01.01-.03.02-.04s.01-.02.02-.03l.03-.03c.02-.01.03-.01.04-.02l49.48 1.52v-23l-37.2-2.17V54.32c0-24 16.98-41.57 37.2-40V.28c-27.29-2.94-50.67 20.47-50.67 53v17.16c-12.01-.01-21.88 10.45-21.88 23.81z" class="shp0"/><path id="Tick" fill-rule="evenodd" d="M12.13 177.76c4.14 7.71 6.08 11.24 10.24 18.93 10.32-12.57 26.5-23 29.79-26.14 0 0-26.63 14.61-29.7 16-4.46-3.5-5.56-5.03-10.33-8.79" class="shp0"/></svg>