<svg version="1.2" baseProfile="tiny-ps" xmlns="http://www.w3.org/2000/svg" viewBox="0 0 675 238">
	<title>Garantir</title>
	<style>
		tspan { white-space:pre }
		.shp0 { fill: #35803e } 
		.shp1 { fill: #343434 } 
	</style>
	<path id="G1" class="shp0" d="M257.46 169.15L257.46 147.37C257.46 144.5 256.28 142.54 252.46 142.54L224.85 142.54C219.37 142.54 218.72 151.15 224.85 151.15L248.33 151.15L248.33 168.5C242.59 176.2 232.55 180.37 222.89 180.24C206.07 179.85 191.2 164.46 190.94 146.07C190.94 128.98 203.46 116.33 217.81 112.94C227.59 110.46 239.72 113.46 247.02 121.94C251.02 126.63 257.72 120.37 253.81 115.81C246.63 107.46 234.5 103.55 223.15 103.55C222.58 103.55 222.02 103.55 221.45 103.57C220.89 103.58 220.32 103.61 219.75 103.64C219.19 103.67 218.62 103.71 218.06 103.76C217.5 103.81 216.93 103.87 216.37 103.94C196.37 107.72 181.55 125.85 181.55 145.68C181.02 170.33 200.33 189 222.76 189.13C235.41 189.26 248.33 183.63 256.02 173.46C256.27 173.17 256.5 172.85 256.69 172.51C256.88 172.17 257.04 171.82 257.16 171.45C257.29 171.08 257.37 170.7 257.42 170.31C257.47 169.93 257.49 169.54 257.46 169.15Z" />
	<path id="a2" class="shp0" d="M305.65 189.49L307.02 189.49C314.72 189.49 324.37 185.17 328.15 177.62L328.15 183.86C328.09 184.49 328.17 185.13 328.39 185.73C328.6 186.33 328.95 186.87 329.4 187.32C329.84 187.77 330.39 188.12 330.98 188.33C331.58 188.55 332.22 188.64 332.85 188.58C333.49 188.63 334.13 188.54 334.72 188.32C335.32 188.1 335.87 187.75 336.32 187.31C336.78 186.86 337.14 186.32 337.37 185.73C337.6 185.13 337.7 184.5 337.67 183.86L337.67 126.11C337.69 125.48 337.58 124.85 337.35 124.26C337.11 123.67 336.75 123.14 336.3 122.69C335.85 122.25 335.3 121.91 334.71 121.69C334.12 121.47 333.48 121.37 332.85 121.41C332.22 121.36 331.59 121.45 331 121.67C330.41 121.89 329.87 122.24 329.42 122.68C328.98 123.13 328.63 123.67 328.41 124.26C328.19 124.85 328.1 125.48 328.15 126.11L328.15 131.11C323.46 123.41 314.98 121.11 307.54 120.93C306.91 120.93 306.28 120.93 305.65 120.93L305.65 129.98C306.24 129.98 306.83 129.93 307.41 129.98C319.15 130.5 328.15 137.13 328.15 150.03L328.15 160.31C327.5 173.31 318.15 180.61 306.15 180.61L305.69 180.61L305.65 189.49ZM293.72 123.24C281.2 128.07 273.89 140.18 273.63 153.31C273.63 153.43 273.63 153.56 273.63 153.69L273.63 155.69C273.9 167.45 278.95 177.58 288.25 183.92C289.53 184.79 290.87 185.56 292.26 186.24C293.65 186.91 295.08 187.49 296.55 187.97C298.03 188.44 299.53 188.81 301.05 189.07C302.58 189.33 304.12 189.48 305.66 189.52L305.66 180.52C304.49 180.42 303.33 180.25 302.18 179.99C301.04 179.73 299.91 179.39 298.81 178.98C297.72 178.56 296.65 178.07 295.62 177.51C294.59 176.95 293.6 176.31 292.66 175.61C285.66 169.76 282.88 161.95 283.14 153.48C283.16 152.66 283.23 151.83 283.32 151.02C283.42 150.2 283.55 149.38 283.72 148.58C283.89 147.77 284.09 146.97 284.33 146.18C284.56 145.39 284.83 144.62 285.14 143.85C288.56 135.31 297.02 130.44 305.68 129.97L305.68 120.92C304.65 120.92 303.61 120.97 302.58 121.07C301.56 121.18 300.53 121.33 299.52 121.54C298.51 121.75 297.51 122.01 296.52 122.32C295.54 122.64 294.57 123 293.62 123.41L293.72 123.24Z" />
	<path id="r3" class="shp0" d="M366.89 125.85C366.89 119.59 357.63 120.11 357.63 125.85L357.63 183.63C357.61 184.26 357.73 184.88 357.97 185.46C358.21 186.04 358.57 186.57 359.02 187C359.48 187.43 360.02 187.77 360.61 187.98C361.2 188.19 361.83 188.27 362.46 188.22C363.07 188.23 363.68 188.13 364.25 187.9C364.82 187.68 365.34 187.34 365.77 186.91C366.21 186.49 366.56 185.98 366.79 185.41C367.03 184.85 367.15 184.24 367.15 183.63L367.15 154.15C367.15 140.98 372.89 130.28 386.32 130.28C389.32 130.28 391.32 128.72 391.32 125.85C391.32 122.98 389.32 121.28 386.32 121.28C378.89 121.28 371.06 123.63 366.89 132.37L366.89 125.85Z" />
	<path id="a4" class="shp0" d="M430 189.49L431.37 189.49C439.07 189.49 448.72 185.17 452.5 177.62L452.5 183.86C452.44 184.49 452.52 185.13 452.74 185.73C452.95 186.33 453.3 186.87 453.75 187.32C454.19 187.77 454.74 188.12 455.33 188.33C455.93 188.55 456.57 188.64 457.2 188.58C457.84 188.63 458.48 188.54 459.08 188.32C459.67 188.1 460.22 187.75 460.68 187.31C461.13 186.86 461.49 186.32 461.72 185.73C461.96 185.13 462.06 184.5 462.03 183.86L462.03 126.11C462.05 125.48 461.94 124.84 461.7 124.26C461.46 123.67 461.11 123.14 460.65 122.69C460.2 122.25 459.66 121.91 459.06 121.69C458.47 121.47 457.83 121.37 457.2 121.41C456.57 121.36 455.94 121.45 455.35 121.67C454.76 121.89 454.22 122.24 453.77 122.68C453.33 123.13 452.98 123.67 452.76 124.26C452.54 124.85 452.45 125.48 452.5 126.11L452.5 131.11C447.81 123.41 439.33 121.11 431.9 120.93C431.26 120.93 430.63 120.93 430 120.93L430 129.98C430.59 129.98 431.18 129.93 431.77 129.98C443.5 130.5 452.5 137.13 452.5 150.03L452.5 160.31C451.85 173.31 442.5 180.61 430.5 180.61L430.04 180.61L430 189.49ZM418 123.24C405.48 128.07 398.17 140.18 397.91 153.31L397.91 155.7C398.19 167.44 403.24 177.56 412.53 183.89C413.81 184.76 415.15 185.53 416.54 186.21C417.93 186.88 419.36 187.46 420.83 187.94C422.31 188.41 423.81 188.78 425.33 189.04C426.86 189.3 428.4 189.45 429.94 189.49L429.94 180.49C428.77 180.39 427.61 180.22 426.46 179.96C425.32 179.7 424.19 179.37 423.09 178.95C422 178.54 420.93 178.04 419.9 177.48C418.87 176.92 417.88 176.28 416.94 175.58C409.89 169.73 407.15 161.92 407.41 153.45C407.44 152.63 407.5 151.8 407.59 150.99C407.69 150.17 407.82 149.35 407.99 148.55C408.16 147.74 408.36 146.94 408.6 146.15C408.83 145.36 409.11 144.59 409.41 143.82C412.83 135.28 421.29 130.41 429.95 129.94L429.95 120.89C428.92 120.89 427.88 120.94 426.85 121.04C425.83 121.15 424.8 121.3 423.79 121.51C422.78 121.72 421.78 121.98 420.79 122.29C419.81 122.61 418.84 122.97 417.89 123.38L418 123.24Z" />
	<path id="n5" class="shp0" d="M536.71 184.15C536.71 187.02 538.71 188.74 541.54 188.74C544.37 188.74 546.23 187.02 546.23 184.15L546.23 149.59C546.23 130.81 531.76 120.37 516.63 120.37C506.45 120.37 496.41 124.37 491.71 133.94L491.71 125.85C491.71 119.59 482.32 119.72 482.32 125.72L482.32 184.15C482.32 187.02 484.32 188.74 487.32 188.74C490.32 188.74 492 187 492 184.15L492 153.89C492.02 150.67 492.66 147.48 493.9 144.5C495.13 141.53 496.94 138.82 499.21 136.54C501.49 134.25 504.18 132.43 507.15 131.18C510.12 129.93 513.31 129.27 516.53 129.24C519.2 129.23 521.84 129.76 524.3 130.78C526.77 131.8 529 133.3 530.88 135.2C532.76 137.09 534.25 139.34 535.25 141.81C536.26 144.28 536.76 146.92 536.74 149.59L536.71 184.15Z" />
	<path id="t6" class="shp0" d="M579.62 121.55L579.62 106.42C579.62 100.28 570.23 100.15 570.23 106.42L570.23 121.55L561.63 121.55C555.86 121.55 555.47 129.76 561.63 129.76L570.23 129.76L570.23 165C570.23 177.39 574.02 188.89 589.67 188.89C590.53 188.93 591.4 188.92 592.26 188.84C593.12 188.77 593.98 188.64 594.82 188.45C595.67 188.26 596.5 188.01 597.31 187.71C598.12 187.41 598.91 187.06 599.67 186.65C605.54 183.39 601.24 175.65 595.76 178.82C595.28 179.05 594.79 179.25 594.3 179.43C593.8 179.61 593.29 179.75 592.77 179.88C592.26 180 591.74 180.09 591.21 180.15C590.69 180.22 590.16 180.25 589.63 180.26C580.76 180.26 579.63 172.43 579.63 165L579.63 129.76L593.85 129.76C595 129.86 596.14 129.47 596.99 128.69C597.84 127.91 598.32 126.81 598.32 125.65C598.32 124.5 597.84 123.4 596.99 122.62C596.14 121.84 595 121.45 593.85 121.55L579.62 121.55Z" />
	<path id="i7" class="shp0" d="M614.32 184.54C614.32 190.17 623.84 190.3 623.84 184.54L623.84 125.72C623.84 120.11 614.32 120.24 614.32 125.85L614.32 184.54ZM624 105.89C624 99.89 614.22 99.89 614.22 105.89L614.22 111.76C614.22 117.76 624 117.63 624 111.76L624 105.89Z" />
	<path id="r8" class="shp0" d="M650.58 125.85C650.58 119.59 641.32 120.11 641.32 125.85L641.32 183.63C641.3 184.26 641.42 184.88 641.66 185.46C641.9 186.04 642.26 186.57 642.71 187C643.17 187.43 643.71 187.77 644.3 187.98C644.89 188.19 645.52 188.27 646.15 188.22C646.76 188.23 647.37 188.13 647.94 187.9C648.51 187.68 649.03 187.34 649.46 186.91C649.9 186.49 650.25 185.98 650.48 185.41C650.72 184.85 650.84 184.24 650.84 183.63L650.84 154.15C650.84 140.98 656.58 130.28 670.01 130.28C673.01 130.28 675.01 128.72 675.01 125.85C675.01 122.98 673.01 121.28 670.01 121.28C662.58 121.28 654.75 123.63 650.58 132.37L650.58 125.85Z" />
	<path id="Circle" fill-rule="evenodd" class="shp0" d="M50.67 163.62C56.23 169.19 59.36 176.74 59.36 184.61C59.36 192.48 56.23 200.03 50.67 205.6C45.1 211.16 37.55 214.29 29.68 214.29L29.68 209.93C36.4 209.93 42.84 207.26 47.58 202.51C52.33 197.77 55 191.33 55 184.61C55 177.89 52.33 171.45 47.58 166.71C42.84 161.96 36.4 159.29 29.68 159.29L29.68 154.93C37.55 154.93 45.1 158.06 50.67 163.62ZM8.69 163.62C3.13 169.19 0 176.74 0 184.61C0 192.48 3.13 200.03 8.69 205.6C14.26 211.16 21.81 214.29 29.68 214.29L29.68 209.93C22.96 209.93 16.52 207.26 11.78 202.51C7.03 197.77 4.36 191.33 4.36 184.61C4.36 177.89 7.03 171.45 11.78 166.71C16.52 161.96 22.96 159.29 29.68 159.29L29.68 154.93C21.81 154.93 14.26 158.06 8.69 163.62Z" />
	<path id="Lock bottom" fill-rule="evenodd" class="shp1" d="M86.27 144.87C101.74 144.46 135.27 144.07 149.63 143.7L149.63 143.7L154.55 143.57L154.55 201.57C154.55 213.33 146.75 223.92 137.03 225.16L91.4 230.94L40.28 237.44C27.71 239.03 17.21 229.09 17.21 215.28L17.21 211.54C19 212.37 20.86 213.02 22.78 213.48C24.7 213.94 26.66 214.21 28.63 214.28C30.6 214.35 32.57 214.23 34.51 213.91C36.46 213.59 38.37 213.08 40.21 212.38L40.21 213L40.32 213.11L91.38 208L137 203.42C137.01 203.41 137.02 203.41 137.03 203.4C137.04 203.39 137.05 203.38 137.05 203.37C137.06 203.36 137.07 203.35 137.07 203.34C137.07 203.32 137.08 203.31 137.08 203.3L137.08 166.47L86.45 169.21C86.46 161.07 86.4 152.96 86.27 144.87Z" />
	<path id="Lock top" fill-rule="evenodd" class="shp0" d="M89.76 0.24L91.4 0.44C117.67 4.23 138 31.39 138 60.93L138 76.21C147.28 77.35 154.59 87.21 154.59 98.53L154.59 131.21C153.14 131.13 151.68 131.08 150.22 131.05C148.77 131.02 147.31 131.02 145.85 131.05C144.4 131.07 142.94 131.12 141.49 131.2C140.03 131.28 138.58 131.38 137.13 131.51L137.13 98C137.13 97.99 137.12 97.98 137.12 97.97C137.12 97.96 137.11 97.95 137.11 97.94C137.1 97.93 137.1 97.92 137.09 97.91C137.08 97.91 137.08 97.9 137.07 97.89L91.38 96.45L89.76 96.45L89.76 73.45L91.38 73.55L127 75.54C127 70.4 127 65.25 127 60.08C127 37.51 111.39 17.08 91.46 14.48C90.91 14.41 90.37 14.36 89.82 14.32L89.76 0.24ZM17.17 157.68C17.18 157.67 17.2 157.67 17.21 157.66L17.21 157.68L17.17 157.68ZM17.21 157.66C18.99 156.84 20.84 156.2 22.74 155.74C24.66 155.28 26.62 155.01 28.59 154.94C30.56 154.87 32.53 154.99 34.47 155.31C36.42 155.63 38.33 156.14 40.17 156.84L40.17 94.97C40.17 94.96 40.18 94.94 40.19 94.93C40.2 94.92 40.2 94.91 40.21 94.9C40.22 94.89 40.23 94.88 40.24 94.87C40.26 94.86 40.27 94.86 40.28 94.85L89.76 96.37L89.76 73.37L52.56 71.2L52.56 54.32C52.56 30.32 69.54 12.75 89.76 14.32L89.76 0.28C62.47 -2.66 39.09 20.75 39.09 53.28L39.09 70.44C27.08 70.43 17.21 80.89 17.21 94.25L17.21 157.66Z" />
	<path id="Tick" fill-rule="evenodd" class="shp0" d="M12.13 177.76C16.27 185.47 18.21 189 22.37 196.69C32.69 184.12 48.87 173.69 52.16 170.55C52.16 170.55 25.53 185.16 22.46 186.55C18 183.05 16.9 181.52 12.13 177.76Z" />
</svg>