<svg xmlns="http://www.w3.org/2000/svg" xml:space="preserve" style="shape-rendering:geometricPrecision;text-rendering:geometricPrecision;image-rendering:optimizeQuality;fill-rule:evenodd;clip-rule:evenodd" viewBox="0 0 9039.14 2279.21"><path d="M2198.25 0H573.2v689.31h1625.05z" style="fill:#e31e25"/><path d="M1807.8 1589.88H848.48v689.33h959.32z" style="fill:#a2daf7"/><path d="M1237.11 794.94H0v689.3h1237.11z" style="fill:#00a0e3"/><path d="M2630.54 1135.63c49.41-28.38 74.12-74.13 74.12-131.77 0-95.16-87.85-186.67-234.25-186.67-179.36 0-252.56 98.83-252.56 215.95h150.07c3.67-51.24 36.6-76.87 91.51-76.87 58.56 0 87.85 29.28 87.85 69.55s-32.95 65.88-87.85 65.88h-51.24v120.79h54.91c58.56 0 95.16 25.63 95.16 65.89 0 40.25-36.6 65.88-91.51 65.88-40.25 0-87.84-14.64-95.16-65.88h-152.82c-.92 131.76 116.22 204.97 251.65 204.97 150.07 0 252.55-84.19 252.55-201.32 0-58.56-28.36-115.3-92.41-146.4zm727.63 336.74-281.84-345.89 270.86-298.32h-117.12l-314.79 351.39V828.16h-95.16v644.2h95.16v-168.37l100.66-110.72 225.1 279.09h117.13zm159.22-84.19v-201.31h274.52v-84.19h-274.52V912.35h322.11v-84.19h-417.27v644.2h424.59v-84.19h-329.43zm847.36-560.02-183.01 304.72-194-304.72h-106.15l248.91 398.96v245.24h95.16v-245.24l245.24-398.96zM4830.51 1483.35c89.67 0 164.71-32.95 219.61-92.42l-39.35-44.84c-43.92 47.57-109.8 75.95-180.26 75.95-148.23 0-254.38-115.3-254.38-271.77 0-156.48 106.15-271.77 254.38-271.77 71.38 0 135.43 27.45 181.18 73.2l38.43-43.92c-56.73-59.48-130.86-90.59-219.61-90.59-188.5 0-323.93 148.23-323.93 333.08 0 183.92 135.43 333.08 323.93 333.08m618.47 0c190.33 0 330.35-144.58 330.35-333.08 0-189.42-140.01-333.08-330.35-333.08-189.42 0-330.33 142.75-330.33 333.08 0 189.42 143.66 333.08 330.33 333.08m0-61.31c-150.98 0-260.78-113.47-260.78-271.77s112.55-271.77 260.78-271.77c150.08 0 260.8 112.55 260.8 271.77 0 157.39-110.72 271.77-260.8 271.77m1108.95-593.88h-49.41l-277.27 549.95-278.18-549.95h-49.41v644.2h64.96V1001.1l240.66 471.26h40.27l243.41-476.75v476.75h64.96v-644.2zm388.8 0h-216.86v644.2h65.88v-255.3h150.98c111.63 0 207.72-72.3 207.72-194.9 0-121.7-97.01-194-207.72-194m0 328.51h-150.98V888.55h150.98c87.84 0 138.18 63.14 138.18 133.61 0 71.37-50.34 134.51-138.18 134.51m751.16 315.69h70.45l-286.41-652.44h-43l-286.41 652.44h69.55l73.2-169.29h329.42l73.21 169.29zm-376.1-229.69 138.18-321.18 139.09 321.18zm988.16-414.52v512.43l-408.12-512.43h-37.52v644.2h64.96V964.49l406.28 507.86h39.35v-644.2h-64.96zm655.07 0-211.38 334-215.95-334h-74.12l257.13 396.23v247.98h65.88v-247.98l252.56-396.23h-74.13z" style="fill:#000;fill-rule:nonzero"/></svg>