<?xml version="1.0" encoding="UTF-8" standalone="no"?>
<!-- Created with Inkscape (http://www.inkscape.org/) -->

<svg
   viewBox="0 0 77.068099 13.229167"
   version="1.1"
   id="svg1"
   xml:space="preserve"
   xmlns="http://www.w3.org/2000/svg"
   xmlns:svg="http://www.w3.org/2000/svg"><defs
     id="defs1" /><g
     id="g12"
     transform="translate(41.549697,-132.35772)"><path
       id="rect8"
       style="fill:#000000;fill-opacity:1;stroke-width:0.521771"
       d="m 19.939283,134.8909 v 1.9296 h 0.175183 c 0.03644,-0.13119 0.0838,-0.22031 0.142111,-0.26769 0.05831,-0.051 0.142342,-0.0765 0.251664,-0.0765 h 2.317171 v 5.65754 c 0,0.11296 -0.02546,0.19852 -0.07648,0.25683 -0.05102,0.0583 -0.142182,0.10567 -0.273368,0.14211 v 0.17467 h 2.329056 v -0.17467 c -0.131186,-0.0364 -0.222351,-0.0838 -0.273368,-0.14211 -0.05102,-0.0583 -0.07648,-0.14387 -0.07648,-0.25683 v -5.65754 h 2.312003 c 0.112967,0 0.198527,0.0255 0.256832,0.0765 0.05831,0.0474 0.10567,0.1365 0.142111,0.26769 h 0.174666 v -1.9296 h -0.174666 c -0.03644,0.13483 -0.0838,0.22803 -0.142111,0.27905 -0.05831,0.051 -0.143865,0.0765 -0.256832,0.0765 h -6.258532 c -0.109322,0 -0.193359,-0.0255 -0.251664,-0.0765 -0.05466,-0.051 -0.102026,-0.14422 -0.142111,-0.27905 z m 15.18512,0 c -0.03644,0.13119 -0.0838,0.22439 -0.14211,0.27905 -0.0583,0.051 -0.142342,0.0765 -0.251665,0.0765 h -6.646622 v 0.17467 c 0.131186,0.0364 0.222351,0.0838 0.273368,0.14211 0.05102,0.0583 0.07648,0.14438 0.07648,0.25735 v 6.31331 c 0,0.11296 -0.02546,0.19852 -0.07648,0.25683 -0.05102,0.0583 -0.142182,0.10567 -0.273368,0.14211 v 0.17467 h 6.777881 c 0.109322,0 0.193359,0.0255 0.251664,0.0765 0.0583,0.051 0.105669,0.14218 0.14211,0.27337 h 0.174666 v -1.9296 h -0.174666 c -0.03644,0.13118 -0.08381,0.22235 -0.14211,0.27337 -0.05831,0.051 -0.142342,0.0765 -0.251664,0.0765 h -4.799191 v -2.04432 h 3.028239 c 0.109322,0 0.193359,0.0275 0.251664,0.0822 0.05831,0.051 0.10567,0.14014 0.142111,0.26769 h 0.174666 v -1.88568 H 33.48471 c -0.03644,0.13119 -0.0838,0.22235 -0.142111,0.27337 -0.0583,0.051 -0.142342,0.0765 -0.251664,0.0765 h -3.028239 v -1.77095 h 4.667932 c 0.109323,0 0.19336,0.0255 0.251665,0.0765 0.05831,0.051 0.105669,0.14014 0.14211,0.26769 h 0.174666 v -1.9296 z m -27.9316285,0.22427 c -1.3410185,0 -2.4161422,0.33512 -3.2251262,1.00563 -0.8527128,0.70695 -1.2789917,1.65831 -1.2789917,2.85357 0,1.28271 0.4792475,2.28449 1.4376384,3.00602 0.761611,0.57212 1.7450532,0.85834 2.951241,0.85834 1.3300863,0 2.7041683,-0.40437 4.121712,-1.21336 v -0.13694 c -0.13483,-0.0364 -0.228035,-0.0838 -0.279052,-0.14211 -0.05102,-0.0583 -0.07648,-0.14387 -0.07648,-0.25683 v -1.53014 c 0,-0.11297 0.02547,-0.19905 0.07648,-0.25735 0.05466,-0.0583 0.147866,-0.10567 0.279052,-0.14211 v -0.17467 H 7.6573456 c -0.1129662,0 -0.1985267,-0.0239 -0.2568319,-0.0713 -0.054661,-0.051 -0.1005018,-0.14371 -0.1369425,-0.27854 H 7.0889048 v 1.7384 h 0.1746664 c 0.036441,-0.13119 0.082281,-0.22235 0.1369425,-0.27337 0.058305,-0.051 0.1438657,-0.0765 0.2568319,-0.0765 h 1.841748 v 1.01647 c -0.2915257,0.16399 -0.6373316,0.29335 -1.0381795,0.38809 -0.4008479,0.0948 -0.8072669,0.14211 -1.219047,0.14211 -0.8454247,0 -1.5268615,-0.22204 -2.0443197,-0.66662 -0.5648311,-0.48466 -0.8474935,-1.12078 -0.8474935,-1.9079 0,-0.81262 0.2897902,-1.46656 0.8691976,-1.96215 0.5138142,-0.43729 1.1606187,-0.65629 1.94045,-0.65629 0.3826276,0 0.7890466,0.0601 1.2190471,0.18035 0.4300005,0.11661 0.7559465,0.25922 0.9782349,0.42685 0.102034,0.0765 0.1677346,0.14171 0.1968872,0.19637 0.029153,0.051 0.045449,0.13658 0.049093,0.25683 l 0.1586466,0.0822 0.8743647,-1.78749 -0.152962,-0.0816 c -0.102034,0.0838 -0.191158,0.12557 -0.267684,0.12557 -0.105678,0 -0.2824029,-0.0494 -0.5301998,-0.14779 -0.4810175,-0.18585 -0.9108603,-0.31673 -1.2898438,-0.39326 -0.3753394,-0.0802 -0.7761541,-0.12041 -1.2025105,-0.12041 z m 7.5649125,0.13126 v 0.17467 c 0.211357,0.0729 0.316777,0.19307 0.316777,0.3607 0,0.10932 -0.04328,0.2555 -0.130741,0.4377 l -2.744019,5.73402 c -0.09839,0.21135 -0.185991,0.35345 -0.262516,0.42633 -0.07653,0.0729 -0.18755,0.12381 -0.333313,0.15296 v 0.17467 h 2.47065 v -0.17467 c -0.244153,-0.062 -0.366386,-0.17297 -0.366386,-0.33331 0,-0.0838 0.03463,-0.19892 0.10387,-0.34469 l 0.502811,-1.04954 h 3.388941 l 0.51418,1.04954 c 0.07288,0.14941 0.109038,0.26248 0.109038,0.339 0,0.18585 -0.120193,0.29891 -0.360702,0.339 v 0.17467 h 2.744019 v -0.17467 c -0.153051,-0.0292 -0.275284,-0.0877 -0.366386,-0.17518 -0.0911,-0.0911 -0.196522,-0.25866 -0.316777,-0.50282 l -2.84272,-5.75003 c -0.06924,-0.13483 -0.10387,-0.25554 -0.10387,-0.36122 0,-0.15305 0.107461,-0.26051 0.322461,-0.32246 v -0.17467 z m 1.26814,1.88051 1.208195,2.65617 h -2.43241 z" /><path
       id="rect1"
       style="stroke-width:0.521771"
       d="m -41.46162,135.00045 v 1.9296 h 0.175183 c 0.03644,-0.13116 0.0838,-0.2208 0.14211,-0.2682 0.05831,-0.051 0.142343,-0.0765 0.251664,-0.0765 h 2.317172 v 5.65753 c 0,0.11294 -0.02546,0.1985 -0.07648,0.25684 -0.05102,0.0583 -0.142182,0.10564 -0.273369,0.14211 v 0.17518 h 2.329057 v -0.17518 c -0.131184,-0.0365 -0.222348,-0.0839 -0.273368,-0.14211 -0.05102,-0.0583 -0.07648,-0.14387 -0.07648,-0.25684 v -5.65753 h 2.312003 c 0.112965,0 0.198525,0.0255 0.256832,0.0765 0.05831,0.0474 0.10567,0.13701 0.14211,0.2682 h 0.175183 v -1.9296 h -0.175183 c -0.03644,0.13485 -0.0838,0.22754 -0.14211,0.27854 -0.0583,0.051 -0.143866,0.0765 -0.256832,0.0765 h -6.258533 c -0.10932,0 -0.193357,-0.0255 -0.251664,-0.0765 -0.05466,-0.051 -0.102023,-0.14371 -0.14211,-0.27854 z m 29.489673,0.22428 c -1.13695,0 -1.989508,0.27145 -2.557984,0.81442 -0.433644,0.41178 -0.650606,0.93279 -0.650606,1.56321 0,0.38263 0.08608,0.7213 0.257349,1.01648 0.189492,0.32796 0.449737,0.57396 0.781347,0.73794 0.233221,0.1166 0.466478,0.20216 0.699699,0.25683 0.233221,0.051 0.632512,0.106 1.197343,0.16433 l 0.841809,0.0873 c 0.564832,0.0619 0.940183,0.12969 1.12603,0.20257 0.266017,0.10568 0.3989418,0.2824 0.3989418,0.5302 0,0.16398 -0.056532,0.32237 -0.1694988,0.47543 -0.112966,0.1494 -0.264227,0.2696 -0.453719,0.3607 -0.342543,0.16399 -0.75609,0.24598 -1.240751,0.24598 -0.444577,0 -0.914656,-0.0764 -1.41025,-0.22944 -0.495594,-0.15305 -0.861776,-0.33538 -1.098641,-0.54674 -0.156695,-0.13847 -0.235128,-0.28973 -0.235128,-0.45372 v -0.0713 l -0.158646,-0.0765 -0.808736,1.83142 0.158129,0.0816 c 0.102034,-0.0802 0.176903,-0.11989 0.224276,-0.11989 0.04008,0 0.162318,0.0474 0.366386,0.14211 0.962034,0.47373 1.936826,0.71055 2.924369,0.71055 0.550255,0 1.065658,-0.0677 1.546676,-0.20257 0.6450009,-0.17856 1.1206842,-0.45358 1.4267863,-0.82528 0.3388986,-0.40814 0.5084961,-0.87465 0.5084961,-1.39939 0,-0.33161 -0.072828,-0.64279 -0.2185914,-0.93431 -0.1421187,-0.29153 -0.3371803,-0.52683 -0.5849772,-0.70539 -0.2441528,-0.17127 -0.5247748,-0.30419 -0.841809,-0.39894 -0.3133908,-0.0947 -0.7254138,-0.16961 -1.2355838,-0.22427 l -0.857829,-0.0873 c -0.575763,-0.0583 -0.951113,-0.11281 -1.126029,-0.16381 -0.338898,-0.10204 -0.508496,-0.29353 -0.508496,-0.57413 0,-0.17127 0.0657,-0.32966 0.196887,-0.47542 0.134831,-0.14577 0.309515,-0.25527 0.524516,-0.32815 0.29517,-0.0947 0.635888,-0.14211 1.02216,-0.14211 0.874577,0 1.636487,0.22613 2.2851316,0.678 0.2113561,0.14212 0.3167765,0.27504 0.3167765,0.39894 0,0.0218 -0.00204,0.0509 -0.00568,0.0873 l 0.153479,0.0873 0.8909017,-1.75442 -0.1529622,-0.0822 c -0.1020341,0.0838 -0.1916752,0.12609 -0.2682007,0.12609 -0.047373,0 -0.1767338,-0.0423 -0.38809,-0.12609 -0.6158479,-0.25874 -1.1297279,-0.43546 -1.5415079,-0.5302 -0.411781,-0.0984 -0.856396,-0.14728 -1.333769,-0.14728 z m -21.344951,0.13074 v 0.17518 c 0.131184,0.0364 0.222349,0.0838 0.273369,0.14211 0.05102,0.0583 0.07648,0.14387 0.07648,0.25684 v 6.31899 c 0,0.1093 -0.02546,0.19281 -0.07648,0.25115 -0.05102,0.0583 -0.142182,0.10564 -0.273369,0.14211 v 0.17518 h 2.32854 v -0.17518 c -0.127543,-0.0328 -0.218708,-0.0781 -0.273368,-0.13643 -0.05102,-0.0619 -0.07648,-0.1475 -0.07648,-0.25683 v -2.47634 h 1.989543 l 1.508951,2.19729 c 0.171272,0.25143 0.256832,0.41034 0.256832,0.47594 0,0.10205 -0.09321,0.16723 -0.279052,0.19637 v 0.17518 h 2.70061 v -0.17518 c -0.171271,-0.0109 -0.316928,-0.0675 -0.437183,-0.1695 -0.11661,-0.10568 -0.302503,-0.33842 -0.557588,-0.69918 l -1.448491,-2.06086 c 1.351951,-0.20771 2.027783,-0.92022 2.027783,-2.13734 0,-0.35712 -0.06722,-0.69223 -0.202054,-1.00562 -0.142119,-0.32432 -0.357557,-0.58152 -0.645439,-0.77101 -0.247797,-0.16398 -0.539111,-0.27857 -0.874365,-0.34417 -0.331611,-0.0656 -0.78183,-0.0987 -1.350305,-0.0987 z m 8.806181,0 v 0.17518 c 0.131183,0.0364 0.221832,0.0838 0.272852,0.14211 0.05102,0.0583 0.07648,0.14387 0.07648,0.25684 v 4.18165 c 0,0.52475 0.06927,0.97649 0.207739,1.35547 0.142119,0.38263 0.397277,0.68515 0.765328,0.90744 0.630425,0.38263 1.540032,0.57413 2.727999,0.57413 1.643476,0 2.727252,-0.35345 3.251998,-1.0604 0.291526,-0.39356 0.437183,-0.98587 0.437183,-1.77664 v -4.18165 c 0,-0.11294 0.02546,-0.1985 0.07648,-0.25684 0.05102,-0.0583 0.142181,-0.10564 0.273368,-0.14211 v -0.17518 h -2.197282 v 0.17518 c 0.131184,0.0364 0.222348,0.0838 0.273368,0.14211 0.05102,0.0583 0.07648,0.14387 0.07648,0.25684 v 3.72225 c 0,0.43 -0.02342,0.74882 -0.0708,0.95653 -0.04737,0.20407 -0.134974,0.3757 -0.262516,0.51418 -0.349831,0.37169 -0.949272,0.55759 -1.79834,0.55759 -0.845425,0 -1.443342,-0.1859 -1.793173,-0.55759 -0.131186,-0.13848 -0.22031,-0.31011 -0.267683,-0.51418 -0.04737,-0.20771 -0.0708,-0.52653 -0.0708,-0.95653 v -3.72225 c 0,-0.11294 0.02546,-0.1985 0.07648,-0.25684 0.05466,-0.0619 0.147349,-0.10931 0.278536,-0.14211 v -0.17518 z m -6.82749,1.2299 h 2.514575 c 0.378984,0 0.641269,0.0112 0.787032,0.0331 0.149407,0.0182 0.28946,0.0636 0.420646,0.13643 0.27695,0.1494 0.415479,0.41933 0.415479,0.80925 0,0.38991 -0.138529,0.65933 -0.415479,0.80874 -0.127542,0.0692 -0.267595,0.11507 -0.420646,0.13694 -0.153051,0.0219 -0.415336,0.0326 -0.787032,0.0326 h -2.514575 z" /><path
       id="path4197-1"
       style="fill:#910003;stroke-width:0.0769138"
       d="m -4.850209,132.35772 c -0.9402701,0.53486 -1.9173472,0.97407 -3.0262114,0.93737 -0.3606462,-0.012 -0.3890748,0.11183 -0.3551554,0.4071 0.1887453,1.64188 0.4271749,3.27465 0.8547375,4.87392 0.5910053,2.21089 1.5216296,4.23666 3.2259605,5.8317 0.4271013,0.39972 0.8665499,0.78628 1.3002658,1.17892 0.025612,0 0.051388,7e-5 0.077,1.6e-4 0.046918,-0.0433 0.090671,-0.0904 0.1410489,-0.12923 1.71909819,-1.32407 3.03035972,-2.95381 3.8146486,-4.99695 0.8607417,-2.24234 1.2248555,-4.58641 1.4921316,-6.95403 0.031227,-0.27649 -0.1415603,-0.20458 -0.2839277,-0.20158 -1.1322465,0.0203 -2.13858717,-0.36928 -3.0871639,-0.94737 z m -1.5364731,2.70217 c 0.063146,-0.004 0.091812,0.0506 0.1109244,0.0998 0.092912,0.23959 0.2909826,0.25636 0.5054951,0.25619 1.98645,-10e-4 3.9728625,-5.4e-4 5.95923568,-10e-4 0.20774337,-8e-5 0.42010938,0.004 0.50394597,-0.25001 0.0221516,-0.0669 0.0693781,-0.11071 0.14090815,-0.10417 0.0892966,0.008 0.0789573,0.0839 0.079111,0.14472 0.001144,0.53824 0.001444,1.07641 1.5391e-4,1.61473 -1.5391e-4,0.0595 0.0148922,0.13599 -0.0726357,0.15091 -0.0699915,0.0119 -0.12197709,-0.0204 -0.14682006,-0.0908 -0.0747605,-0.2119 -0.24996281,-0.22942 -0.43778576,-0.22903 -0.65361198,0.001 -1.30729929,0.009 -1.96060459,-0.005 -0.2221271,-0.005 -0.2804865,0.0696 -0.2795639,0.28463 0.00754,1.74286 0.00395,3.48599 0.00464,5.22894 7.69e-5,0.22335 0.00964,0.44165 0.2782962,0.52957 0.033611,0.011 0.068926,0.0795 0.06785,0.12049 -0.00238,0.0886 -0.08286,0.0779 -0.14316,0.078 -0.6663806,0.001 -1.3327943,8.1e-4 -1.9991749,0 -0.059916,-8e-5 -0.1366922,0.0149 -0.1548438,-0.0695 -0.014844,-0.0689 0.01622,-0.122 0.087135,-0.14753 0.251662,-0.0907 0.2345183,-0.30457 0.2345183,-0.51154 -3.078e-4,-1.7301 -0.00446,-3.46027 0.00493,-5.19037 0.00131,-0.23989 -0.04609,-0.34391 -0.3106732,-0.32376 -0.3183464,0.0244 -0.6401723,0.006 -0.9605951,0.006 v -2.7e-4 c -0.3075774,8e-5 -0.6151509,0.001 -0.9227285,-2.7e-4 -0.1969764,-0.001 -0.3890685,0 -0.4779042,0.22889 -0.022536,0.0581 -0.063553,0.11562 -0.1448497,0.0847 -0.080836,-0.0307 -0.058674,-0.10508 -0.058981,-0.16315 -0.00237,-0.5254 -0.00248,-1.05084 1.536e-4,-1.57631 2.997e-4,-0.0573 -0.021683,-0.13291 0.063768,-0.15921 0.010498,-0.003 0.020258,-0.005 0.02928,-0.006 z" /></g></svg>
