<svg xmlns="http://www.w3.org/2000/svg" xml:space="preserve" viewBox="0 0 77.068 13.229"><path d="M19.94 134.89v1.93h.174q.055-.196.143-.267.087-.077.251-.077h2.317v5.658q0 .169-.076.257-.076.087-.273.142v.174h2.329v-.174q-.198-.055-.274-.142-.076-.088-.076-.257v-5.658h2.312q.169 0 .257.077.087.07.142.267h.174v-1.93h-.174q-.055.204-.142.28-.088.076-.257.076h-6.259q-.165 0-.251-.076-.082-.076-.143-.28zm15.184 0a.6.6 0 0 1-.142.28q-.087.076-.251.076h-6.647v.175q.197.055.273.142.077.088.077.258v6.313q0 .169-.077.257-.076.087-.273.142v.175h6.778q.164 0 .252.076.087.076.142.273h.174v-1.93h-.174q-.055.198-.142.274-.089.077-.252.077h-4.8v-2.045h3.029q.164 0 .252.083.087.076.142.267h.174v-1.885h-.174q-.055.196-.142.273-.089.076-.252.076h-3.028v-1.77h4.668q.164 0 .251.076.088.076.142.268h.175v-1.93zm-27.931.225q-2.011 0-3.225 1.006-1.28 1.06-1.28 2.853 0 1.924 1.438 3.006 1.142.86 2.952.859 1.995 0 4.121-1.214v-.137q-.203-.054-.279-.142-.075-.087-.076-.257v-1.53q0-.17.076-.257a.6.6 0 0 1 .28-.142v-.175H7.656q-.17 0-.256-.071-.083-.077-.137-.279h-.175v1.739h.175a.6.6 0 0 1 .137-.274q.087-.076.256-.076H9.5v1.016a4 4 0 0 1-1.038.388 5.3 5.3 0 0 1-1.22.143q-1.267 0-2.043-.667-.848-.727-.848-1.908 0-1.22.87-1.962.77-.656 1.94-.656.573 0 1.219.18.645.176.978.427a.7.7 0 0 1 .197.196q.043.077.049.257l.159.082.874-1.787-.153-.082q-.153.126-.268.126-.158 0-.53-.148a8 8 0 0 0-1.29-.393 5.8 5.8 0 0 0-1.202-.12m7.565.131v.175q.316.11.316.36 0 .165-.13.438l-2.744 5.735q-.148.316-.263.426a.66.66 0 0 1-.333.153v.174h2.47v-.174q-.366-.093-.366-.334 0-.125.104-.344l.503-1.05h3.389l.514 1.05q.11.224.109.339 0 .279-.36.339v.174h2.743v-.174a.7.7 0 0 1-.366-.175q-.137-.137-.317-.503l-2.843-5.75a.8.8 0 0 1-.103-.361q0-.23.322-.323v-.175zm1.268 1.88 1.208 2.657h-2.432z" style="fill:#000;fill-opacity:1;stroke-width:.521771" transform="translate(41.55 -132.358)"/><path d="M-41.462 135v1.93h.176q.054-.196.142-.268.087-.077.251-.077h2.318v5.658q0 .169-.077.257-.077.087-.273.142v.175h2.329v-.175q-.197-.055-.274-.142-.076-.088-.076-.257v-5.658h2.312q.169 0 .257.077.087.071.142.268h.175V135h-.175q-.055.202-.142.279-.088.076-.257.076h-6.259q-.164 0-.251-.076-.082-.077-.142-.279zm29.49.225q-1.706 0-2.558.814-.65.618-.65 1.563 0 .575.257 1.017.285.492.781.738.35.174.7.257.35.076 1.197.164l.842.087q.847.093 1.126.203.399.158.399.53a.8.8 0 0 1-.17.475q-.169.225-.453.361-.514.246-1.241.246-.668 0-1.41-.23-.744-.229-1.099-.546-.235-.208-.235-.454v-.071l-.159-.077-.808 1.832.158.081q.153-.12.224-.12.06 0 .366.143 1.443.71 2.925.71.825 0 1.546-.202.968-.268 1.427-.826a2.13 2.13 0 0 0 .509-1.399 2.06 2.06 0 0 0-.219-.934 1.85 1.85 0 0 0-.585-.706 2.9 2.9 0 0 0-.842-.399 7 7 0 0 0-1.235-.224l-.858-.087q-.864-.088-1.126-.164-.509-.154-.509-.574 0-.257.197-.476.203-.218.525-.328a3.4 3.4 0 0 1 1.022-.142q1.312 0 2.285.678.317.213.317.4 0 .031-.006.086l.154.088.89-1.755-.152-.082q-.153.126-.269.126-.07 0-.388-.126-.924-.388-1.541-.53a5.7 5.7 0 0 0-1.334-.147zm-21.345.13v.176q.197.054.273.142.077.087.077.257v6.319q0 .163-.077.25-.076.088-.273.143v.175h2.329v-.175a.56.56 0 0 1-.274-.137.4.4 0 0 1-.076-.256v-2.477h1.99l1.508 2.198q.258.377.257.475 0 .154-.279.197v.175h2.7v-.175a.73.73 0 0 1-.437-.17q-.174-.157-.557-.699l-1.449-2.06q2.028-.311 2.028-2.138 0-.535-.202-1.006a1.74 1.74 0 0 0-.645-.77 2.4 2.4 0 0 0-.875-.345q-.496-.098-1.35-.099zm8.806 0v.176q.197.054.273.142.077.087.077.257v4.181q0 .787.207 1.356.213.574.766.907.945.574 2.728.574 2.465 0 3.252-1.06.437-.59.437-1.777v-4.181q0-.17.076-.257.077-.088.274-.142v-.176h-2.198v.176q.198.054.274.142.076.087.076.257v3.722q0 .645-.07.956a1.1 1.1 0 0 1-.263.515q-.526.557-1.798.557-1.269 0-1.794-.557a1.1 1.1 0 0 1-.267-.515q-.072-.31-.071-.956v-3.722q0-.17.076-.257a.54.54 0 0 1 .279-.142v-.176zm-6.827 1.23h2.514q.57 0 .787.033.225.028.421.137.416.225.416.81 0 .584-.416.808-.191.105-.42.137a6 6 0 0 1-.788.032h-2.514z" style="stroke-width:.521771" transform="translate(41.55 -132.358)"/><path d="M-4.85 132.358c-.94.535-1.918.974-3.026.937-.361-.012-.39.112-.356.407.19 1.642.428 3.275.855 4.874.591 2.211 1.522 4.237 3.226 5.832.427.4.867.786 1.3 1.179h.077c.047-.043.091-.09.141-.13 1.72-1.323 3.03-2.953 3.815-4.996.86-2.243 1.225-4.587 1.492-6.954.031-.277-.141-.205-.284-.202-1.132.02-2.138-.37-3.087-.947zm-1.537 2.702c.063-.004.092.05.111.1.093.24.291.256.506.256l5.959-.001c.208 0 .42.004.504-.25.022-.067.07-.11.14-.104.09.008.08.084.08.144v1.615c0 .06.015.136-.073.151-.07.012-.122-.02-.146-.09-.075-.213-.25-.23-.438-.23-.654.001-1.307.01-1.96-.005-.223-.005-.281.07-.28.285.007 1.743.004 3.486.004 5.229 0 .223.01.441.279.53.033.01.069.079.067.12-.002.088-.082.078-.143.078h-1.999c-.06 0-.137.015-.155-.07-.015-.069.017-.122.087-.147.252-.09.235-.305.235-.512 0-1.73-.005-3.46.005-5.19.001-.24-.046-.344-.31-.324-.32.025-.641.006-.961.006h-.923c-.197-.001-.39 0-.478.229-.023.058-.064.115-.145.084-.08-.03-.059-.105-.059-.163q-.003-.787 0-1.576c0-.058-.021-.133.064-.16z" style="fill:#910003;stroke-width:.0769138" transform="translate(41.55 -132.358)"/></svg>